####
#
# OBJ File Generated by Meshlab
#
####
# Object ABR.obj
#
# Vertices: 875
# Faces: 1746
#
####
v 25244.183594 21210.820312 21510.207031
v 25414.460938 21375.115234 21510.494141
v 25383.871094 21288.972656 21505.966797
v 25240.644531 21587.699219 21465.007812
v 25293.761719 21591.654297 21476.714844
v 25215.878906 21692.576172 21473.562500
v 25075.453125 21778.677734 21464.072266
v 25150.410156 21726.519531 21467.167969
v 25415.673828 21155.382812 21533.894531
v 25273.425781 21113.513672 21531.744141
v 25305.416016 21316.521484 21483.554688
v 25495.195312 21366.726562 21560.048828
v 25236.005859 21460.828125 21469.019531
v 25342.201172 21420.916016 21482.322266
v 25406.521484 21415.865234 21506.503906
v 25337.005859 21575.880859 21489.974609
v 25159.208984 21501.117188 21469.912109
v 25430.279297 21522.613281 21529.011719
v 25151.052734 21627.115234 21463.638672
v 25360.673828 21626.486328 21506.769531
v 24964.972656 21809.779297 21473.433594
v 25262.560547 21721.902344 21492.691406
v 25368.394531 21691.738281 21525.158203
v 25294.058594 21793.169922 21523.539062
v 25243.695312 21916.630859 21548.404297
v 25144.091797 21809.279297 21478.189453
v 25050.853516 21890.144531 21483.052734
v 25182.841797 21871.373047 21507.644531
v 24933.183594 21893.392578 21483.664062
v 24957.953125 21952.558594 21505.769531
v 25362.849609 21125.453125 21524.074219
v 25472.724609 21178.755859 21552.564453
v 25578.884766 21304.023438 21623.859375
v 25178.152344 21373.677734 21485.707031
v 24971.357422 21557.039062 21492.787109
v 25044.902344 21608.890625 21473.705078
v 25415.656250 21651.787109 21539.593750
v 24804.712891 21727.820312 21506.953125
v 24720.205078 21710.904297 21547.496094
v 25036.164062 21720.304688 21463.853516
v 25484.835938 21701.958984 21597.398438
v 24868.296875 21796.943359 21486.501953
v 24709.292969 21859.896484 21537.626953
v 25414.664062 21879.054688 21630.025391
v 24872.554688 21883.644531 21489.867188
v 24832.453125 21932.425781 21506.568359
v 24910.783203 22005.683594 21536.451172
v 25327.457031 20987.896484 21572.800781
v 25380.259766 21065.890625 21545.216797
v 25522.160156 21053.666016 21604.685547
v 25509.894531 21231.384766 21572.042969
v 25187.679688 21179.800781 21533.632812
v 25124.980469 21337.673828 21506.677734
v 25557.166016 21460.726562 21598.992188
v 25619.099609 21398.142578 21653.345703
v 24968.152344 21468.929688 21517.210938
v 24801.105469 21550.121094 21553.832031
v 24912.947266 21595.582031 21496.064453
v 25499.988281 21566.054688 21574.007812
v 25405.609375 21814.953125 21591.718750
v 24568.121094 21798.570312 21629.197266
v 24613.843750 21842.384766 21591.642578
v 25323.205078 21853.998047 21561.279297
v 24601.324219 21942.250000 21601.130859
v 24678.812500 21819.171875 21551.109375
v 24699.291016 21925.298828 21555.996094
v 25141.861328 21936.460938 21518.011719
v 24752.351562 21963.419922 21548.376953
v 24738.710938 22037.931641 21596.242188
v 24942.597656 22037.851562 21558.312500
v 25464.093750 21021.417969 21582.384766
v 25214.839844 21076.134766 21570.199219
v 25004.710938 21357.705078 21544.552734
v 25126.283203 21190.873047 21557.242188
v 25569.601562 21692.205078 21654.650391
v 25196.101562 22005.423828 21574.324219
v 24801.773438 22024.546875 21570.394531
v 25079.363281 21991.412109 21533.281250
v 25403.429688 20922.148438 21607.134766
v 25475.244141 20907.736328 21626.705078
v 25165.408203 21075.980469 21598.335938
v 25550.394531 21117.425781 21611.566406
v 25601.398438 21165.662109 21644.474609
v 25658.488281 21202.394531 21692.759766
v 24911.312500 21380.373047 21577.800781
v 25591.685547 21496.744141 21625.419922
v 24706.033203 21625.082031 21578.646484
v 25315.789062 21950.435547 21605.033203
v 24553.361328 21964.201172 21633.423828
v 24639.789062 22030.093750 21626.378906
v 25477.041016 20854.087891 21653.693359
v 25576.871094 20907.560547 21690.292969
v 25573.386719 21004.812500 21647.003906
v 24966.869141 21283.742188 21598.441406
v 24788.982422 21414.007812 21624.720703
v 24668.574219 21667.394531 21588.113281
v 25609.587891 21588.175781 21665.021484
v 24534.119141 21889.308594 21636.259766
v 25277.226562 22069.158203 21665.011719
v 24679.214844 22079.001953 21649.837891
v 24807.332031 22112.041016 21641.117188
v 24973.941406 22090.880859 21609.148438
v 25082.921875 22077.031250 21606.152344
v 25156.937500 22078.916016 21625.285156
v 24924.880859 22124.982422 21647.511719
v 25427.195312 20772.792969 21707.177734
v 25506.996094 20781.798828 21714.085938
v 25650.216797 20961.597656 21728.765625
v 25299.693359 20938.253906 21610.132812
v 25008.433594 21169.994141 21643.871094
v 24850.953125 21299.759766 21657.464844
v 25681.242188 21329.171875 21724.757812
v 24694.878906 21476.023438 21656.494141
v 24609.341797 21532.447266 21691.326172
v 25496.373047 21771.275391 21638.595703
v 24465.507812 21905.699219 21699.630859
v 25372.337891 22019.654297 21685.679688
v 24721.128906 22134.841797 21691.798828
v 25069.353516 22156.062500 21688.287109
v 25376.126953 20811.787109 21684.144531
v 25634.097656 20877.216797 21755.123047
v 25169.396484 20975.828125 21669.345703
v 25640.406250 21058.953125 21693.037109
v 24543.644531 21641.277344 21697.376953
v 25519.109375 21857.740234 21715.648438
v 24581.798828 22084.730469 21695.578125
v 24908.710938 22182.285156 21720.660156
v 25366.261719 20689.974609 21798.341797
v 25313.832031 20817.189453 21707.064453
v 25597.394531 20783.574219 21781.933594
v 25701.781250 20908.490234 21807.419922
v 25236.632812 20882.197266 21695.417969
v 25682.027344 21047.138672 21738.796875
v 24723.052734 21273.445312 21766.021484
v 25669.761719 21460.824219 21708.312500
v 25690.220703 21571.343750 21751.837891
v 25576.357422 21753.882812 21696.902344
v 24494.343750 22007.845703 21709.458984
v 25454.437500 21990.037109 21732.783203
v 25327.804688 22112.246094 21750.953125
v 25234.519531 22117.703125 21687.289062
v 25156.917969 22170.199219 21732.410156
v 24995.910156 22219.158203 21774.185547
v 25463.062500 20690.925781 21778.800781
v 25550.984375 20724.312500 21799.263672
v 25038.964844 21033.462891 21729.578125
v 24455.833984 21659.722656 21777.218750
v 25630.015625 21713.589844 21736.412109
v 24497.855469 21769.390625 21696.714844
v 25592.380859 21863.263672 21806.826172
v 24475.599609 22032.625000 21751.054688
v 24579.572266 22165.511719 21812.742188
v 25235.689453 22158.087891 21754.482422
v 24771.146484 22204.765625 21765.390625
v 25384.734375 20644.474609 21840.466797
v 25253.710938 20748.152344 21813.609375
v 25630.513672 20735.402344 21853.416016
v 25020.900391 20962.843750 21815.535156
v 24903.416016 21178.654297 21713.277344
v 25726.330078 21401.623047 21789.984375
v 25698.248047 21597.453125 21774.943359
v 24465.730469 21568.019531 21805.642578
v 24420.935547 21759.630859 21782.355469
v 24507.871094 22143.128906 21852.914062
v 25045.349609 22236.238281 21823.902344
v 25483.220703 20648.167969 21833.712891
v 25731.894531 21006.869141 21811.929688
v 24895.589844 21054.753906 21829.201172
v 25697.392578 21182.146484 21734.052734
v 24763.632812 21171.207031 21820.996094
v 25753.785156 21287.037109 21823.136719
v 24550.867188 21397.035156 21814.619141
v 24494.816406 21500.494141 21809.773438
v 25741.056641 21502.384766 21832.960938
v 25711.154297 21680.308594 21854.033203
v 25496.759766 21938.576172 21748.865234
v 24434.613281 21962.757812 21765.353516
v 24355.365234 22024.167969 21918.193359
v 25396.476562 22058.250000 21750.289062
v 24671.380859 22192.255859 21783.439453
v 24860.958984 22230.082031 21794.177734
v 24900.019531 22267.109375 21861.187500
v 25757.117188 20985.509766 21856.953125
v 25760.718750 21145.091797 21833.154297
v 25767.878906 21371.140625 21856.726562
v 25765.076172 21557.337891 21901.259766
v 25744.312500 21627.003906 21893.826172
v 25681.017578 21725.845703 21828.333984
v 24435.880859 21889.986328 21741.041016
v 24329.232422 21955.291016 21917.976562
v 25514.763672 22024.876953 21878.357422
v 24516.826172 22079.125000 21749.023438
v 25468.326172 20606.259766 21890.117188
v 25292.714844 20664.126953 21885.849609
v 25735.453125 20906.109375 21859.205078
v 25813.431641 21229.714844 21930.861328
v 25800.853516 21361.605469 21930.837891
v 24346.000000 21657.662109 21898.986328
v 25637.322266 21836.562500 21842.250000
v 24352.093750 21883.847656 21863.230469
v 25233.164062 22213.115234 21907.429688
v 24790.564453 22269.857422 21882.539062
v 25412.373047 20593.806641 21914.111328
v 24986.929688 20907.175781 21899.619141
v 25809.697266 21072.896484 21937.082031
v 24813.794922 21069.957031 21873.625000
v 24629.457031 21238.433594 21859.074219
v 24501.384766 21280.046875 21919.427734
v 24605.892578 21335.681641 21806.482422
v 25797.492188 21543.021484 21986.068359
v 24297.185547 21886.357422 21951.482422
v 24382.669922 22076.160156 21922.210938
v 25555.746094 21957.470703 21855.000000
v 25477.248047 22078.382812 21905.025391
v 24419.119141 22130.728516 21937.326172
v 25385.498047 22128.591797 21856.351562
v 25301.169922 22189.318359 21926.244141
v 24617.582031 22215.621094 21862.974609
v 25144.865234 22224.451172 21852.007812
v 24747.695312 22243.671875 21839.619141
v 25349.287109 20601.500000 21928.183594
v 25566.906250 20641.392578 21922.195312
v 25669.962891 20740.292969 21911.591797
v 25800.035156 20973.048828 21953.121094
v 25840.400391 21042.236328 22011.857422
v 24632.177734 21114.994141 21948.839844
v 25859.218750 21227.736328 22049.171875
v 25815.390625 21417.380859 21995.244141
v 24344.378906 21791.898438 21876.082031
v 25655.652344 21871.646484 21922.369141
v 25419.406250 22133.087891 21951.361328
v 24558.597656 22262.302734 22000.789062
v 25085.310547 22259.414062 21916.578125
v 24953.451172 22289.070312 21932.908203
v 24963.078125 22305.552734 22006.763672
v 25096.810547 20812.328125 21903.537109
v 25699.667969 20793.640625 21899.974609
v 25802.068359 20914.605469 22026.650391
v 24715.865234 21126.328125 21889.556641
v 25855.046875 21114.445312 22042.953125
v 24484.904297 21160.980469 22005.888672
v 25876.496094 21221.894531 22114.031250
v 24372.269531 21358.365234 21985.767578
v 24387.878906 21554.574219 21885.066406
v 24267.632812 21625.447266 21999.267578
v 25741.851562 21711.384766 21948.642578
v 24261.865234 21776.490234 21994.492188
v 24878.097656 22320.457031 22030.642578
v 25353.871094 20558.023438 22030.267578
v 25454.746094 20560.779297 21995.189453
v 25530.623047 20588.513672 22009.726562
v 25699.564453 20753.533203 22005.664062
v 25763.281250 20872.119141 21960.978516
v 25094.287109 20726.865234 21999.583984
v 25850.892578 20987.601562 22107.656250
v 24846.185547 20959.794922 21947.750000
v 24425.388672 21324.376953 21955.748047
v 25835.755859 21426.683594 22094.962891
v 24273.015625 21713.281250 21981.767578
v 25775.664062 21668.214844 22022.750000
v 25720.541016 21754.535156 21933.837891
v 25536.376953 22042.675781 21959.589844
v 24466.710938 22194.865234 21969.673828
v 25138.636719 22259.953125 21977.761719
v 24656.878906 22284.824219 21976.503906
v 25298.306641 20587.531250 22012.312500
v 24644.863281 20998.666016 22026.783203
v 24410.695312 21177.181641 22049.128906
v 24273.261719 21527.496094 22018.994141
v 25749.910156 21746.269531 22030.685547
v 25611.210938 21961.648438 21960.519531
v 25490.228516 22099.056641 22031.087891
v 24787.587891 22321.531250 22024.751953
v 25386.505859 20529.585938 22087.134766
v 25607.314453 20644.076172 22018.460938
v 25179.894531 20671.951172 21992.195312
v 24969.777344 20763.996094 22046.113281
v 25739.992188 20807.318359 22051.529297
v 25789.076172 20872.847656 22110.298828
v 24929.294922 20872.306641 21972.494141
v 24495.164062 21045.058594 22074.531250
v 24346.054688 21177.931641 22103.169922
v 24305.349609 21428.820312 22020.367188
v 25763.507812 21736.300781 22104.869141
v 25698.650391 21864.277344 22030.931641
v 24306.275391 22009.369141 21983.662109
v 25652.310547 21923.105469 22009.175781
v 25588.396484 21999.128906 22013.988281
v 24348.259766 22146.869141 22031.337891
v 24369.677734 22201.775391 22081.587891
v 25323.326172 22196.126953 22013.988281
v 24651.652344 22329.945312 22096.763672
v 25416.457031 20518.681641 22115.847656
v 25172.339844 20613.718750 22075.925781
v 25562.769531 20601.800781 22045.611328
v 25678.636719 20718.197266 22106.373047
v 24785.099609 20820.105469 22093.001953
v 24799.808594 20882.113281 22036.470703
v 24282.414062 21317.654297 22094.707031
v 24228.271484 21815.666016 22046.677734
v 24193.193359 21858.751953 22110.701172
v 24245.533203 21919.742188 22043.757812
v 25662.341797 21921.337891 22077.076172
v 25569.775391 22020.140625 22077.353516
v 24407.970703 22262.351562 22134.640625
v 24980.992188 22311.455078 22081.617188
v 25285.230469 20530.261719 22123.816406
v 25045.185547 20658.626953 22107.996094
v 24935.304688 20686.791016 22138.687500
v 25693.554688 20726.330078 22189.863281
v 24679.781250 20888.900391 22087.593750
v 24407.435547 20952.003906 22181.916016
v 24424.439453 21082.984375 22096.011719
v 24234.125000 21429.429688 22098.339844
v 24208.798828 21533.027344 22100.529297
v 25785.505859 21689.710938 22192.679688
v 24293.140625 22073.773438 22048.312500
v 24293.820312 22185.433594 22154.082031
v 25171.699219 22255.970703 22054.931641
v 25441.263672 20511.660156 22167.697266
v 25131.521484 20560.748047 22174.080078
v 24670.398438 20730.728516 22210.634766
v 24833.435547 20720.482422 22153.689453
v 24609.958984 20807.455078 22176.365234
v 24497.205078 20916.777344 22152.925781
v 25820.498047 20925.492188 22127.666016
v 24347.437500 21040.427734 22175.109375
v 24291.130859 21136.205078 22173.148438
v 24227.646484 21273.191406 22171.458984
v 24176.736328 21408.554688 22177.222656
v 24109.550781 21498.593750 22236.552734
v 25824.958984 21539.705078 22080.777344
v 24195.929688 21630.837891 22099.554688
v 24149.865234 21778.964844 22167.716797
v 25714.070312 21845.714844 22145.089844
v 25635.027344 21947.171875 22182.136719
v 25320.917969 22192.316406 22097.300781
v 24584.988281 22320.316406 22112.787109
v 24928.332031 22335.025391 22150.617188
v 25054.888672 22297.117188 22138.490234
v 25501.730469 20552.294922 22123.048828
v 25546.353516 20580.435547 22169.453125
v 25613.736328 20642.154297 22194.917969
v 24895.431641 20613.636719 22226.660156
v 25005.115234 20598.656250 22196.248047
v 24634.517578 20684.843750 22262.373047
v 25792.007812 20895.402344 22234.730469
v 24312.761719 20914.718750 22263.484375
v 25861.951172 21045.957031 22087.759766
v 24249.673828 21104.402344 22223.503906
v 24160.457031 21325.326172 22221.599609
v 24124.390625 21357.839844 22251.945312
v 25798.447266 21632.070312 22153.353516
v 24135.332031 21690.429688 22183.904297
v 25641.367188 21929.773438 22242.115234
v 24165.214844 21908.281250 22171.792969
v 24198.109375 22009.468750 22159.761719
v 24230.958984 22093.593750 22159.613281
v 25404.375000 22133.472656 22163.375000
v 25220.304688 22237.960938 22166.146484
v 24505.691406 22313.976562 22147.863281
v 24802.630859 22356.996094 22179.185547
v 25367.648438 20468.943359 22229.445312
v 25443.750000 20496.761719 22246.582031
v 25064.484375 20522.410156 22260.884766
v 24693.398438 20608.720703 22312.791016
v 24480.066406 20702.244141 22316.507812
v 24395.191406 20798.425781 22277.505859
v 25765.447266 20836.648438 22189.824219
v 24139.613281 21223.345703 22284.425781
v 25857.986328 21331.378906 22112.957031
v 25843.117188 21404.505859 22171.699219
v 24091.859375 21406.167969 22287.496094
v 24103.304688 21582.507812 22234.050781
v 24066.441406 21544.884766 22292.083984
v 25799.718750 21582.097656 22250.214844
v 25728.535156 21792.261719 22228.691406
v 24158.179688 21966.658203 22214.871094
v 25564.121094 22016.941406 22160.941406
v 24232.318359 22183.226562 22242.242188
v 24405.910156 22318.580078 22224.492188
v 24722.732422 22352.304688 22157.244141
v 25178.134766 20505.574219 22224.560547
v 25543.144531 20571.644531 22274.281250
v 25677.142578 20706.593750 22263.601562
v 24224.859375 21056.646484 22271.076172
v 25849.707031 21012.683594 22192.927734
v 25872.142578 21104.257812 22167.691406
v 24170.033203 21215.732422 22252.089844
v 25870.644531 21187.671875 22187.015625
v 24105.710938 21281.294922 22307.250000
v 25822.695312 21510.425781 22193.589844
v 24089.240234 21727.324219 22260.742188
v 24175.968750 22076.521484 22247.148438
v 25502.832031 22063.687500 22176.009766
v 25037.806641 22298.955078 22215.072266
v 24314.796875 22283.998047 22250.357422
v 24361.832031 22340.619141 22334.738281
v 24544.205078 22354.212891 22215.873047
v 24668.890625 22364.617188 22248.101562
v 24853.859375 22349.103516 22229.140625
v 24566.173828 22374.693359 22285.681641
v 25294.548828 20472.347656 22218.607422
v 25022.292969 20484.607422 22331.462891
v 25490.324219 20527.416016 22252.875000
v 24459.845703 20768.410156 22266.824219
v 24308.787109 20792.378906 22339.650391
v 24230.035156 20899.699219 22352.894531
v 25863.751953 21311.910156 22181.126953
v 24047.605469 21528.253906 22341.501953
v 25764.835938 21669.488281 22291.218750
v 24067.882812 21752.324219 22307.281250
v 25514.548828 22025.810547 22285.986328
v 25418.687500 22092.521484 22295.505859
v 25127.074219 22263.580078 22235.841797
v 24931.503906 22316.384766 22298.886719
v 24648.068359 22369.296875 22314.134766
v 25374.056641 20447.771484 22303.466797
v 24961.095703 20547.792969 22274.068359
v 24807.097656 20525.667969 22367.978516
v 25495.914062 20526.101562 22364.968750
v 25717.722656 20772.437500 22279.753906
v 25802.480469 20943.835938 22275.015625
v 24160.796875 21040.130859 22352.179688
v 24095.152344 21195.085938 22373.289062
v 25856.173828 21239.216797 22247.361328
v 24061.435547 21301.482422 22408.093750
v 25841.763672 21355.083984 22248.113281
v 24080.441406 21878.791016 22359.921875
v 24104.349609 21892.832031 22291.136719
v 24122.162109 22017.230469 22344.234375
v 25314.541016 22172.945312 22243.398438
v 24200.216797 22171.037109 22295.992188
v 25201.253906 22216.015625 22298.503906
v 24270.550781 22267.162109 22289.718750
v 24471.244141 22369.388672 22288.675781
v 24753.298828 22357.017578 22289.812500
v 25416.396484 20466.763672 22357.394531
v 25145.578125 20467.115234 22303.292969
v 24609.371094 20556.472656 22418.097656
v 24437.273438 20673.308594 22367.203125
v 25605.304688 20646.365234 22364.164062
v 24361.453125 20724.447266 22356.900391
v 24215.298828 20856.125000 22399.015625
v 25850.244141 21100.953125 22263.246094
v 24078.535156 21322.328125 22342.134766
v 24043.501953 21672.572266 22329.496094
v 25657.525391 21865.822266 22323.703125
v 25501.503906 22003.005859 22341.332031
v 25068.914062 22257.693359 22323.490234
v 25299.162109 20405.126953 22399.914062
v 25323.646484 20435.382812 22296.613281
v 25221.216797 20431.808594 22332.595703
v 24870.378906 20476.843750 22410.779297
v 24302.650391 20729.060547 22402.845703
v 25786.431641 21514.408203 22363.609375
v 25748.611328 21621.242188 22370.216797
v 25614.171875 21926.574219 22309.531250
v 25488.244141 21950.115234 22425.654297
v 24117.611328 22078.072266 22466.605469
v 24208.261719 22207.697266 22365.853516
v 25052.328125 22231.363281 22400.037109
v 24599.232422 22362.433594 22437.531250
v 25358.214844 20430.927734 22414.373047
v 25458.095703 20499.388672 22425.601562
v 25565.572266 20618.707031 22427.921875
v 24441.027344 20618.232422 22436.468750
v 25655.748047 20711.531250 22368.199219
v 25724.996094 20814.115234 22341.949219
v 24128.716797 21004.056641 22428.611328
v 25767.921875 20915.179688 22348.005859
v 25780.259766 21000.160156 22384.496094
v 24053.810547 21314.664062 22444.421875
v 25814.164062 21318.722656 22352.078125
v 24038.347656 21565.117188 22370.937500
v 25707.695312 21714.173828 22380.314453
v 24049.080078 21741.765625 22361.677734
v 25559.720703 21879.330078 22429.394531
v 24089.748047 21992.337891 22474.347656
v 25380.662109 22054.804688 22397.437500
v 25302.363281 22137.796875 22347.191406
v 24918.701172 22304.835938 22351.705078
v 24757.935547 22332.068359 22409.828125
v 24786.289062 22342.748047 22346.177734
v 24537.416016 22375.183594 22427.392578
v 25222.451172 20400.626953 22400.035156
v 25827.150391 21187.429688 22335.726562
v 24104.601562 22036.468750 22451.416016
v 25293.578125 22035.134766 22503.822266
v 24297.017578 22305.742188 22344.001953
v 24417.416016 22364.457031 22412.220703
v 25093.699219 20401.517578 22446.863281
v 25122.621094 20376.093750 22498.007812
v 24992.746094 20432.253906 22430.517578
v 24676.730469 20477.902344 22498.658203
v 24244.347656 20735.353516 22495.373047
v 25637.136719 20731.554688 22448.042969
v 25681.871094 20831.265625 22473.218750
v 25796.003906 21079.332031 22381.222656
v 25782.460938 21279.119141 22428.042969
v 25776.730469 21427.183594 22424.521484
v 25659.396484 21766.441406 22417.009766
v 24031.251953 21635.507812 22487.304688
v 25405.187500 21973.000000 22482.410156
v 25054.455078 22184.775391 22484.328125
v 24155.257812 22153.138672 22486.363281
v 24239.787109 22261.333984 22474.896484
v 24844.597656 22282.029297 22473.066406
v 24365.345703 20635.505859 22473.660156
v 24491.660156 20551.335938 22506.089844
v 24269.785156 20690.154297 22547.960938
v 25557.302734 20666.689453 22540.025391
v 25561.160156 20691.943359 22566.775391
v 25728.298828 20919.357422 22445.875000
v 24114.314453 20988.261719 22513.789062
v 25775.285156 21141.599609 22436.060547
v 24031.166016 21506.433594 22451.972656
v 25752.957031 21530.488281 22428.970703
v 25620.324219 21802.640625 22436.978516
v 24066.177734 21880.109375 22468.437500
v 25208.300781 22104.531250 22480.318359
v 25077.166016 22130.062500 22547.710938
v 24656.687500 22325.148438 22497.509766
v 24287.314453 22304.148438 22503.994141
v 25237.117188 20376.007812 22485.167969
v 24957.298828 20388.742188 22528.775391
v 25390.015625 20464.595703 22508.537109
v 25467.945312 20544.664062 22522.623047
v 24321.832031 20648.351562 22515.998047
v 24130.671875 20975.794922 22453.357422
v 25734.292969 20989.996094 22473.476562
v 24079.222656 21120.058594 22498.796875
v 25740.308594 21056.527344 22484.804688
v 24043.748047 21402.058594 22513.748047
v 25642.935547 21656.380859 22530.861328
v 25521.416016 21833.861328 22533.992188
v 25395.435547 21889.697266 22589.107422
v 25230.750000 22020.371094 22568.716797
v 24116.003906 22069.011719 22545.486328
v 24166.832031 22160.652344 22569.683594
v 24203.771484 22219.320312 22568.572266
v 24857.601562 22242.880859 22529.583984
v 24672.863281 22286.544922 22564.515625
v 24364.363281 22347.626953 22483.369141
v 24413.318359 22329.810547 22574.240234
v 24490.494141 22363.507812 22494.169922
v 25311.195312 20417.515625 22523.042969
v 24800.146484 20437.906250 22505.062500
v 24372.843750 20605.386719 22529.365234
v 25433.390625 20555.632812 22606.251953
v 24191.439453 20833.972656 22474.820312
v 24099.785156 21018.667969 22575.150391
v 25684.570312 20947.568359 22546.378906
v 24068.925781 21182.191406 22535.449219
v 24031.492188 21527.816406 22506.419922
v 25591.677734 21719.634766 22560.427734
v 24072.431641 21827.087891 22578.792969
v 24066.474609 21865.164062 22524.800781
v 24253.626953 22267.587891 22600.814453
v 25176.966797 20364.978516 22573.349609
v 24891.236328 20362.675781 22620.166016
v 24601.419922 20459.802734 22583.724609
v 24504.517578 20500.064453 22592.408203
v 24160.623047 20832.880859 22637.636719
v 24150.980469 20866.349609 22581.359375
v 25645.316406 20839.855469 22547.230469
v 24101.550781 20988.166016 22638.742188
v 25683.615234 21030.908203 22573.666016
v 24065.851562 21233.429688 22585.289062
v 25702.070312 21128.769531 22566.335938
v 25742.525391 21262.222656 22507.080078
v 24064.224609 21335.503906 22609.015625
v 25698.822266 21412.228516 22570.416016
v 25712.640625 21596.306641 22463.099609
v 24039.191406 21618.169922 22537.042969
v 25083.527344 22066.814453 22618.164062
v 24939.681641 22180.193359 22570.929688
v 24558.652344 22345.824219 22516.107422
v 24913.519531 20322.083984 22719.728516
v 25041.306641 20364.378906 22548.570312
v 25133.691406 20360.291016 22553.519531
v 24729.056641 20406.707031 22603.218750
v 25346.087891 20468.478516 22616.431641
v 25559.531250 20722.732422 22597.349609
v 25640.363281 20919.171875 22598.697266
v 24077.318359 21431.511719 22657.855469
v 24079.185547 21804.218750 22602.242188
v 24114.591797 21913.248047 22630.619141
v 25228.531250 21964.316406 22626.753906
v 24119.796875 22030.111328 22585.556641
v 24157.861328 22106.660156 22605.851562
v 24939.365234 22141.242188 22619.082031
v 24785.755859 22176.539062 22651.441406
v 24333.435547 22313.943359 22584.156250
v 24467.664062 22316.242188 22595.230469
v 25203.771484 20377.261719 22610.986328
v 24738.753906 20384.812500 22653.310547
v 24491.230469 20491.251953 22635.660156
v 24468.335938 20490.105469 22681.367188
v 24204.375000 20763.947266 22588.833984
v 25562.380859 20835.660156 22666.707031
v 24086.494141 21093.378906 22616.166016
v 25609.898438 20940.445312 22658.207031
v 24087.357422 21325.279297 22706.945312
v 24103.058594 21525.044922 22708.283203
v 24075.806641 21655.867188 22628.316406
v 25498.597656 21788.835938 22605.751953
v 25345.138672 21845.451172 22663.753906
v 24216.941406 22187.371094 22631.373047
v 24713.546875 22240.414062 22607.992188
v 25019.212891 20332.361328 22646.800781
v 24741.734375 20364.623047 22718.873047
v 24639.998047 20411.574219 22663.304688
v 25282.062500 20445.863281 22665.250000
v 25342.890625 20499.113281 22671.408203
v 24086.007812 21217.015625 22699.933594
v 25661.900391 21303.449219 22637.605469
v 25646.021484 21499.578125 22618.101562
v 25618.970703 21541.740234 22634.275391
v 24134.566406 21597.628906 22751.167969
v 25226.583984 21873.357422 22705.578125
v 25143.048828 21976.455078 22667.406250
v 24162.289062 21995.906250 22670.488281
v 24254.853516 22128.082031 22701.683594
v 24533.302734 22272.195312 22641.792969
v 24629.210938 22228.736328 22658.070312
v 24405.492188 22275.048828 22654.955078
v 24340.306641 22256.408203 22660.849609
v 25070.876953 20335.357422 22667.566406
v 25198.681641 20384.386719 22659.238281
v 24571.839844 20429.654297 22695.800781
v 24364.613281 20567.367188 22671.212891
v 24256.914062 20685.417969 22665.994141
v 25575.720703 20998.449219 22721.708984
v 25625.994141 21087.552734 22680.500000
v 25657.066406 21169.689453 22648.148438
v 25642.097656 21386.486328 22655.412109
v 24124.349609 21466.787109 22762.529297
v 25536.474609 21654.857422 22665.900391
v 25425.296875 21719.500000 22712.230469
v 25337.707031 21718.914062 22765.474609
v 24190.970703 21752.242188 22788.347656
v 24144.144531 21733.972656 22736.796875
v 25136.558594 21908.951172 22721.978516
v 25011.146484 22048.726562 22674.185547
v 24204.373047 22092.867188 22672.033203
v 24880.505859 22113.638672 22675.771484
v 24437.712891 22228.351562 22700.123047
v 24532.033203 22219.873047 22694.404297
v 24873.501953 20323.832031 22762.179688
v 25116.837891 20373.775391 22739.128906
v 25398.816406 20593.328125 22702.359375
v 24294.824219 20637.382812 22711.744141
v 24220.015625 20732.953125 22739.994141
v 25401.955078 20666.759766 22753.103516
v 25478.126953 20706.298828 22692.802734
v 24090.177734 21124.326172 22678.480469
v 24103.007812 21203.666016 22786.140625
v 25557.105469 21163.175781 22770.882812
v 24119.421875 21317.783203 22791.222656
v 25565.060547 21458.123047 22734.042969
v 25467.369141 21681.046875 22707.986328
v 24938.648438 21939.220703 22776.009766
v 24168.123047 21879.595703 22725.218750
v 25017.007812 21958.458984 22739.488281
v 24705.976562 22144.292969 22708.939453
v 24306.875000 22139.371094 22726.531250
v 24285.058594 22204.361328 22679.269531
v 25129.572266 20416.849609 22795.136719
v 24479.109375 20469.830078 22742.677734
v 24345.953125 20571.533203 22805.117188
v 24133.550781 20907.107422 22718.861328
v 25493.169922 20852.613281 22759.898438
v 24117.400391 21030.529297 22770.796875
v 24147.773438 21412.703125 22810.871094
v 25584.416016 21412.763672 22724.492188
v 24169.119141 21582.253906 22797.664062
v 25546.878906 21556.410156 22711.052734
v 24211.078125 21629.091797 22825.203125
v 25412.591797 21587.550781 22810.039062
v 25355.724609 21635.902344 22810.414062
v 25173.474609 21801.433594 22776.763672
v 25042.621094 21776.736328 22830.222656
v 24218.757812 21950.884766 22748.271484
v 24863.701172 22068.468750 22718.695312
v 24408.851562 22180.833984 22737.517578
v 24799.630859 20338.640625 22800.535156
v 24962.111328 20319.048828 22764.582031
v 24628.835938 20390.601562 22767.175781
v 25185.767578 20432.662109 22764.044922
v 25316.566406 20552.939453 22753.949219
v 25344.273438 20656.187500 22800.970703
v 24182.160156 20800.968750 22728.298828
v 25507.337891 20951.904297 22781.785156
v 24135.353516 21136.277344 22851.603516
v 25481.720703 21064.351562 22830.683594
v 25458.527344 21559.966797 22790.523438
v 24222.562500 21779.101562 22808.566406
v 25276.144531 21626.933594 22849.265625
v 25151.998047 21748.726562 22814.138672
v 24784.175781 21999.037109 22782.695312
v 24317.173828 22071.833984 22759.685547
v 24585.451172 22157.908203 22727.878906
v 24631.431641 22108.214844 22750.789062
v 24673.906250 20373.796875 22836.400391
v 25027.373047 20367.775391 22806.142578
v 24402.017578 20519.951172 22796.029297
v 25208.853516 20527.673828 22832.376953
v 24197.765625 20796.806641 22817.242188
v 25385.865234 20778.355469 22821.787109
v 24149.437500 20959.035156 22831.050781
v 24162.857422 21271.777344 22867.828125
v 25556.230469 21292.978516 22777.261719
v 25521.494141 21369.677734 22802.687500
v 25505.835938 21457.685547 22795.425781
v 25434.632812 21487.804688 22839.792969
v 24263.957031 21609.162109 22859.060547
v 25067.712891 21696.548828 22857.597656
v 25227.529297 21620.193359 22863.582031
v 24939.753906 21723.929688 22867.910156
v 24907.951172 21817.005859 22839.121094
v 24268.498047 21879.076172 22804.951172
v 24649.593750 22000.646484 22805.675781
v 24318.880859 21883.955078 22824.660156
v 24416.322266 21974.414062 22818.376953
v 24579.113281 21987.498047 22819.496094
v 24401.164062 22113.085938 22764.910156
v 24511.195312 22104.734375 22768.457031
v 24882.466797 20338.636719 22837.251953
v 24733.101562 20370.574219 22871.990234
v 25082.375000 20466.539062 22871.228516
v 24500.587891 20450.287109 22825.408203
v 25174.535156 20516.316406 22851.824219
v 24372.107422 20552.718750 22859.376953
v 25254.294922 20642.718750 22864.312500
v 24239.605469 20720.318359 22807.109375
v 24228.634766 20775.396484 22859.371094
v 24165.476562 20889.302734 22822.150391
v 25418.285156 20930.726562 22850.884766
v 24138.951172 21045.953125 22842.546875
v 25482.798828 21227.583984 22846.630859
v 24211.166016 21476.658203 22854.488281
v 25376.261719 21541.039062 22852.574219
v 24993.490234 21620.185547 22896.943359
v 24359.091797 21665.031250 22874.851562
v 24479.109375 21756.818359 22875.582031
v 24582.429688 21675.666016 22900.960938
v 24728.507812 21846.628906 22851.998047
v 24876.414062 21683.679688 22888.228516
v 24643.501953 21803.753906 22872.314453
v 24523.181641 21869.923828 22855.648438
v 24389.410156 21872.798828 22840.267578
v 24522.462891 21959.550781 22832.503906
v 24796.849609 20384.232422 22895.644531
v 24873.841797 20447.078125 22928.265625
v 24895.060547 20396.900391 22890.898438
v 24986.281250 20410.742188 22873.275391
v 24576.884766 20415.302734 22841.830078
v 24290.857422 20653.142578 22849.835938
v 25306.060547 20773.216797 22882.615234
v 25283.904297 20882.962891 22933.628906
v 25364.250000 21039.884766 22914.958984
v 24222.865234 21318.974609 22905.343750
v 25444.253906 21397.371094 22860.294922
v 24309.089844 21494.996094 22897.500000
v 25345.912109 21494.748047 22881.437500
v 24412.443359 21612.318359 22896.527344
v 24489.343750 21643.677734 22901.285156
v 24620.267578 21590.666016 22922.490234
v 24698.095703 21531.531250 22939.464844
v 24780.996094 21658.521484 22902.078125
v 24862.623047 21555.763672 22927.279297
v 24683.468750 21681.003906 22900.500000
v 24593.458984 20419.939453 22883.501953
v 24696.291016 20390.599609 22890.541016
v 24538.480469 20456.533203 22913.587891
v 24428.056641 20504.574219 22881.886719
v 24455.617188 20528.681641 22924.791016
v 24355.230469 20612.861328 22896.798828
v 24355.726562 20664.484375 22927.562500
v 24286.564453 20728.648438 22902.123047
v 24217.939453 20831.945312 22890.087891
v 24175.460938 20960.351562 22878.611328
v 25389.398438 21181.789062 22906.052734
v 25383.591797 21262.392578 22907.085938
v 24376.470703 21432.468750 22933.150391
v 24441.000000 21435.625000 22945.843750
v 25357.650391 21396.498047 22901.226562
v 25283.056641 21461.638672 22907.341797
v 24534.310547 21406.037109 22966.751953
v 24534.701172 21567.830078 22924.445312
v 24641.437500 21447.345703 22963.398438
v 25092.044922 21586.083984 22899.404297
v 24752.390625 20470.746094 22949.943359
v 24968.386719 20481.296875 22927.992188
v 25099.121094 20537.037109 22908.046875
v 24444.265625 20629.808594 22958.634766
v 24528.888672 20684.583984 23002.628906
v 25185.234375 20711.589844 22932.800781
v 24351.705078 20709.349609 22941.257812
v 24245.363281 20828.238281 22920.906250
v 24226.175781 20969.548828 22929.736328
v 24181.806641 21078.644531 22907.851562
v 24188.738281 21199.005859 22903.806641
v 24264.501953 21184.287109 22946.486328
v 24299.644531 21350.021484 22932.552734
v 24383.330078 21289.656250 22970.167969
v 24644.837891 21346.343750 22993.582031
v 25214.716797 21391.894531 22940.339844
v 24880.906250 21406.091797 22973.511719
v 25047.017578 21496.060547 22933.669922
v 25180.972656 21479.593750 22922.984375
v 24761.515625 21435.304688 22969.080078
v 24644.269531 20466.167969 22943.035156
v 24547.458984 20536.113281 22960.150391
v 24689.744141 20523.388672 22975.697266
v 24768.529297 20519.140625 22973.654297
v 24810.824219 20607.738281 23000.671875
v 24988.533203 20560.341797 22956.640625
v 25081.162109 20620.830078 22948.660156
v 25221.976562 20841.992188 22955.966797
v 25200.904297 20921.154297 22973.718750
v 24281.642578 20920.552734 22959.207031
v 24289.082031 21058.599609 22967.753906
v 25251.960938 21032.484375 22965.492188
v 25286.208984 21096.626953 22951.771484
v 24325.162109 21261.140625 22960.900391
v 24446.656250 21212.054688 22999.914062
v 25243.046875 21189.945312 22964.412109
v 24529.320312 21286.605469 22998.662109
v 24665.927734 21243.880859 23020.425781
v 24769.410156 21302.179688 23008.853516
v 25019.277344 21191.287109 23015.431641
v 25276.617188 21333.798828 22939.685547
v 24927.744141 21263.058594 23010.865234
v 24981.894531 21361.355469 22979.966797
v 25085.417969 21285.662109 22989.138672
v 24696.162109 20571.402344 22992.755859
v 24953.064453 20645.957031 22993.179688
v 24898.148438 20545.337891 22971.363281
v 24770.443359 20695.496094 23026.052734
v 24532.777344 20595.673828 22980.800781
v 24607.218750 20643.873047 23005.152344
v 24906.480469 20734.701172 23028.103516
v 25029.488281 20695.353516 22987.070312
v 25016.691406 20791.000000 23009.888672
v 24391.029297 20765.974609 22974.595703
v 24493.859375 20786.935547 23011.207031
v 24461.232422 20866.886719 23021.578125
v 24318.820312 20854.402344 22967.234375
v 24939.941406 20815.353516 23037.949219
v 25016.605469 20872.500000 23020.533203
v 24401.501953 20997.207031 23011.394531
v 25135.480469 20963.826172 22997.230469
v 24372.148438 21147.714844 22994.269531
v 25018.125000 20970.089844 23024.992188
v 24499.324219 21091.099609 23027.960938
v 24870.089844 21024.646484 23045.529297
v 24583.134766 21168.537109 23026.378906
v 24964.128906 21038.863281 23035.882812
v 25128.853516 21154.488281 22999.400391
v 24645.601562 20741.628906 23026.423828
v 24830.917969 20794.054688 23041.054688
v 24706.347656 20834.824219 23040.257812
v 24598.404297 20814.818359 23033.314453
v 24583.316406 20920.412109 23040.470703
v 24498.138672 20919.531250 23036.431641
v 24650.939453 20926.734375 23047.175781
v 24439.794922 21048.488281 23020.886719
v 24908.480469 20910.931641 23046.835938
v 24663.546875 21022.886719 23044.298828
v 24779.697266 20962.109375 23047.419922
v 24735.945312 21144.544922 23042.205078
v 24551.126953 21038.652344 23037.119141
v 24831.337891 21153.322266 23040.193359
# 875 vertices, 0 vertices normals

f 1 11 31
f 31 3 9
f 31 11 3
f 9 3 32
f 3 2 32
f 11 14 3
f 3 14 2
f 14 11 13
f 4 6 5
f 6 22 5
f 20 5 22
f 19 8 4
f 19 7 8
f 8 6 4
f 8 26 6
f 6 26 22
f 9 49 31
f 1 31 10
f 1 53 34
f 34 11 1
f 32 2 51
f 2 12 51
f 34 13 11
f 34 17 13
f 12 2 15
f 13 4 14
f 14 15 2
f 14 4 5
f 17 19 13
f 13 19 4
f 14 5 16
f 14 16 15
f 15 16 18
f 18 16 20
f 19 17 36
f 20 16 5
f 40 19 36
f 37 20 23
f 19 40 7
f 22 23 20
f 22 24 23
f 21 7 40
f 28 22 26
f 24 22 28
f 24 63 23
f 45 21 42
f 45 29 21
f 21 29 7
f 7 29 27
f 27 8 7
f 26 8 27
f 24 28 25
f 24 25 63
f 27 67 26
f 26 67 28
f 45 46 29
f 46 30 29
f 29 30 27
f 47 30 46
f 52 1 10
f 52 53 1
f 12 54 33
f 12 33 51
f 15 54 12
f 15 18 54
f 34 35 17
f 59 54 18
f 17 35 36
f 59 18 37
f 35 58 36
f 20 37 18
f 58 40 36
f 58 38 42
f 58 42 40
f 23 41 37
f 40 42 21
f 60 23 63
f 41 23 60
f 38 65 43
f 38 43 42
f 60 63 44
f 42 43 45
f 43 46 45
f 28 67 25
f 67 27 78
f 30 78 27
f 49 48 10
f 10 31 49
f 9 71 49
f 32 71 9
f 32 50 71
f 50 32 82
f 51 82 32
f 55 33 54
f 56 35 53
f 35 34 53
f 59 86 54
f 58 56 57
f 56 58 35
f 87 39 57
f 39 38 57
f 57 38 58
f 59 37 41
f 39 65 38
f 61 62 65
f 64 65 62
f 63 25 88
f 65 66 43
f 65 64 66
f 66 46 43
f 66 68 46
f 25 67 76
f 68 66 64
f 68 77 46
f 68 69 77
f 77 47 46
f 47 70 30
f 70 78 30
f 77 70 47
f 48 49 79
f 79 49 80
f 80 49 71
f 72 10 48
f 72 52 10
f 51 83 82
f 51 33 83
f 74 94 73
f 74 73 52
f 73 53 52
f 73 56 53
f 54 86 55
f 73 57 56
f 59 75 86
f 41 75 59
f 87 96 39
f 39 96 65
f 61 65 96
f 60 115 41
f 63 88 44
f 98 64 62
f 61 98 62
f 89 64 98
f 25 76 88
f 76 67 78
f 90 68 64
f 90 69 68
f 78 103 76
f 101 77 69
f 101 70 77
f 78 70 103
f 79 80 91
f 48 109 72
f 71 93 80
f 50 93 71
f 81 72 109
f 50 82 93
f 81 52 72
f 81 74 52
f 81 110 94
f 81 94 74
f 33 84 83
f 85 73 94
f 95 57 85
f 113 57 95
f 85 57 73
f 113 87 57
f 97 86 75
f 115 75 41
f 60 44 115
f 88 76 99
f 89 90 64
f 100 69 90
f 101 69 100
f 102 103 70
f 103 104 76
f 76 104 99
f 105 102 70
f 70 101 105
f 107 106 91
f 120 91 106
f 91 120 79
f 120 109 79
f 48 79 109
f 80 92 91
f 92 80 93
f 122 81 109
f 93 82 123
f 84 123 83
f 123 82 83
f 33 112 84
f 55 112 33
f 111 95 94
f 94 95 85
f 55 86 112
f 112 86 135
f 114 96 87
f 61 96 124
f 137 75 115
f 116 89 98
f 117 44 88
f 116 138 89
f 117 88 99
f 89 126 90
f 99 104 141
f 119 103 102
f 102 105 119
f 132 109 129
f 129 109 120
f 92 107 91
f 92 93 108
f 132 122 109
f 93 123 108
f 81 122 110
f 111 94 110
f 135 86 136
f 136 86 97
f 113 114 87
f 114 124 96
f 136 97 75
f 124 149 61
f 115 125 137
f 115 44 125
f 98 149 116
f 98 61 149
f 117 139 44
f 138 126 89
f 126 100 90
f 118 100 126
f 118 101 100
f 141 104 103
f 127 105 101
f 103 119 141
f 107 144 106
f 92 130 107
f 121 130 92
f 108 121 92
f 146 122 132
f 146 110 122
f 84 169 123
f 169 133 123
f 159 110 146
f 159 111 110
f 84 112 169
f 139 125 44
f 177 138 116
f 99 179 117
f 141 140 99
f 126 180 118
f 118 180 154
f 118 154 101
f 119 105 127
f 119 142 141
f 101 154 127
f 127 143 119
f 128 106 144
f 128 120 106
f 128 129 120
f 107 130 145
f 121 108 131
f 123 133 108
f 134 95 111
f 209 113 95
f 75 148 136
f 75 137 148
f 139 176 125
f 117 179 139
f 151 192 138
f 126 138 192
f 99 140 179
f 192 152 126
f 152 180 126
f 141 153 140
f 142 153 141
f 119 143 142
f 127 154 181
f 127 181 143
f 128 144 155
f 145 166 144
f 107 145 144
f 156 129 128
f 132 129 156
f 121 157 130
f 131 157 121
f 156 158 132
f 146 132 158
f 133 131 108
f 167 133 169
f 146 168 159
f 134 209 95
f 135 160 112
f 113 172 114
f 209 172 113
f 161 136 148
f 147 149 124
f 150 137 125
f 189 116 149
f 189 149 163
f 176 150 125
f 177 116 189
f 177 151 138
f 143 165 142
f 167 131 133
f 168 146 158
f 159 134 111
f 207 209 134
f 112 171 169
f 135 136 160
f 114 172 173
f 114 173 124
f 147 124 162
f 163 149 147
f 188 161 148
f 177 178 151
f 139 179 191
f 164 152 192
f 165 219 142
f 153 142 219
f 154 180 220
f 220 181 154
f 143 181 182
f 144 166 155
f 193 155 166
f 156 128 155
f 157 166 145
f 145 130 157
f 195 131 167
f 184 167 169
f 170 159 168
f 184 169 171
f 134 159 170
f 112 160 171
f 136 174 160
f 174 185 160
f 161 174 136
f 173 162 124
f 174 161 186
f 188 175 161
f 150 148 137
f 199 148 150
f 190 178 177
f 190 177 189
f 200 190 189
f 212 192 151
f 180 152 218
f 233 165 234
f 165 233 219
f 220 202 181
f 181 202 182
f 143 182 165
f 155 193 203
f 193 166 222
f 156 155 194
f 237 157 131
f 167 183 195
f 184 183 167
f 196 184 171
f 196 171 185
f 160 185 171
f 174 197 185
f 174 186 197
f 244 147 162
f 175 187 161
f 186 161 187
f 198 229 163
f 229 189 163
f 199 188 148
f 139 213 176
f 213 150 176
f 191 213 139
f 178 212 151
f 179 214 191
f 179 216 214
f 179 140 216
f 216 140 153
f 201 216 153
f 153 219 201
f 218 220 180
f 182 234 165
f 157 222 166
f 237 223 157
f 236 158 156
f 184 205 183
f 184 196 205
f 207 134 170
f 197 196 185
f 197 227 196
f 198 147 244
f 163 147 198
f 175 188 261
f 199 261 188
f 229 200 189
f 150 213 199
f 212 215 192
f 192 215 164
f 201 217 216
f 164 218 152
f 273 182 202
f 155 203 221
f 194 155 221
f 156 194 276
f 223 222 157
f 236 156 276
f 195 237 131
f 204 158 236
f 224 183 205
f 168 158 204
f 205 225 224
f 205 240 225
f 206 170 168
f 196 240 205
f 239 170 206
f 239 207 170
f 227 240 196
f 208 209 207
f 208 172 209
f 210 228 197
f 162 173 243
f 186 210 197
f 243 244 162
f 246 187 175
f 175 261 246
f 213 230 199
f 190 200 211
f 190 286 178
f 218 164 263
f 218 263 232
f 235 233 234
f 273 234 182
f 193 250 203
f 253 237 195
f 224 253 195
f 183 224 195
f 168 204 206
f 241 207 226
f 226 207 239
f 241 208 207
f 227 242 240
f 257 172 208
f 197 228 227
f 257 243 173
f 257 173 172
f 187 246 186
f 246 210 186
f 247 200 229
f 199 230 261
f 200 247 211
f 289 215 212
f 215 263 164
f 216 217 231
f 233 264 219
f 219 264 201
f 232 265 218
f 218 265 220
f 220 265 202
f 265 273 202
f 193 251 250
f 222 251 193
f 194 221 266
f 224 238 253
f 225 238 224
f 225 349 238
f 239 206 256
f 240 349 225
f 239 256 226
f 227 228 371
f 258 371 228
f 332 228 210
f 259 229 198
f 259 198 245
f 259 247 229
f 191 271 213
f 178 289 212
f 214 262 191
f 216 231 214
f 217 291 231
f 273 248 234
f 249 203 274
f 274 203 250
f 249 221 203
f 251 222 295
f 275 295 222
f 275 222 223
f 252 275 223
f 252 223 237
f 253 252 237
f 280 204 254
f 204 236 254
f 256 204 280
f 349 255 238
f 256 206 204
f 268 208 241
f 268 257 208
f 243 283 244
f 332 258 228
f 269 244 283
f 269 198 244
f 210 260 332
f 198 269 245
f 246 260 210
f 300 211 247
f 230 285 261
f 302 190 211
f 286 190 302
f 213 271 230
f 191 262 271
f 272 262 214
f 214 231 272
f 289 263 215
f 231 291 272
f 235 264 233
f 234 248 235
f 250 293 274
f 266 221 249
f 294 276 266
f 276 194 266
f 276 254 236
f 277 280 254
f 253 238 278
f 298 256 280
f 267 256 298
f 267 226 256
f 227 371 242
f 246 270 260
f 261 270 246
f 261 285 270
f 300 301 302
f 302 211 300
f 285 230 287
f 230 271 287
f 286 317 178
f 271 262 288
f 317 289 178
f 288 262 272
f 217 201 291
f 201 264 291
f 265 292 273
f 320 293 250
f 251 320 250
f 275 252 296
f 253 278 252
f 298 280 277
f 279 278 238
f 238 326 279
f 238 255 326
f 311 267 298
f 267 281 226
f 281 241 226
f 282 257 268
f 282 243 257
f 260 270 284
f 271 288 287
f 272 304 288
f 338 292 232
f 232 292 265
f 248 306 235
f 235 306 264
f 249 274 307
f 307 266 249
f 294 254 276
f 343 275 296
f 308 277 254
f 296 252 278
f 296 278 310
f 308 309 277
f 309 297 277
f 278 279 310
f 297 298 277
f 297 311 298
f 325 281 267
f 281 313 241
f 313 268 241
f 243 282 299
f 283 299 314
f 283 243 299
f 283 314 269
f 258 332 372
f 260 284 332
f 245 333 259
f 285 284 270
f 286 302 357
f 285 287 303
f 286 357 317
f 304 336 303
f 288 304 303
f 287 288 303
f 289 317 318
f 290 289 318
f 290 263 289
f 290 305 263
f 305 232 263
f 305 361 232
f 264 319 291
f 264 340 319
f 306 340 264
f 273 382 248
f 362 339 248
f 248 339 306
f 341 320 251
f 295 341 251
f 321 294 307
f 307 294 266
f 308 254 294
f 323 297 309
f 324 297 323
f 324 311 297
f 325 267 311
f 312 281 325
f 281 312 313
f 268 313 282
f 242 349 240
f 258 372 371
f 315 269 314
f 315 245 269
f 333 245 315
f 333 247 259
f 354 300 247
f 354 247 333
f 316 284 335
f 354 334 300
f 334 301 300
f 285 335 284
f 302 356 357
f 302 301 356
f 303 336 335
f 303 335 285
f 304 379 336
f 395 379 304
f 395 304 272
f 359 395 272
f 272 291 337
f 359 272 337
f 290 318 397
f 305 290 397
f 361 305 381
f 338 232 361
f 291 319 337
f 339 340 306
f 382 273 292
f 307 363 403
f 307 274 363
f 274 293 363
f 343 342 295
f 343 295 275
f 321 308 294
f 343 296 310
f 345 309 308
f 345 308 321
f 323 322 324
f 385 310 369
f 279 369 310
f 324 325 311
f 279 326 369
f 327 313 312
f 327 282 313
f 328 282 327
f 242 388 349
f 242 390 388
f 328 299 282
f 329 299 328
f 329 314 299
f 330 314 329
f 315 330 331
f 330 315 314
f 315 331 333
f 284 353 332
f 333 331 374
f 316 353 284
f 333 374 354
f 336 355 335
f 317 357 358
f 358 318 317
f 318 358 380
f 337 319 360
f 340 360 319
f 382 362 248
f 307 383 321
f 383 307 403
f 341 295 342
f 344 309 345
f 344 346 323
f 344 323 309
f 406 322 346
f 346 322 323
f 385 369 422
f 406 324 322
f 368 325 406
f 406 325 324
f 312 325 368
f 348 312 368
f 347 326 387
f 312 348 327
f 255 387 326
f 348 350 327
f 350 328 327
f 389 329 350
f 329 328 350
f 351 329 389
f 351 330 329
f 352 331 330
f 352 330 351
f 332 353 392
f 335 377 316
f 335 355 377
f 356 301 334
f 379 355 336
f 432 337 360
f 359 337 432
f 415 360 340
f 399 338 361
f 339 396 340
f 362 401 339
f 403 363 452
f 320 363 293
f 364 320 341
f 341 405 364
f 365 345 321
f 310 385 343
f 366 346 344
f 367 406 346
f 422 369 347
f 369 326 347
f 407 348 368
f 350 348 386
f 349 387 255
f 349 388 387
f 386 389 350
f 370 351 389
f 352 351 370
f 331 373 375
f 331 352 373
f 331 375 374
f 353 376 392
f 353 316 376
f 354 374 375
f 393 334 354
f 356 334 393
f 378 357 356
f 394 357 378
f 357 394 358
f 359 432 395
f 358 394 380
f 435 318 380
f 318 435 397
f 381 305 397
f 340 396 415
f 399 292 338
f 399 382 292
f 401 396 339
f 416 396 401
f 418 452 363
f 364 363 320
f 364 418 363
f 341 342 405
f 405 342 384
f 365 321 383
f 342 343 384
f 384 343 385
f 419 345 365
f 419 344 345
f 441 367 346
f 422 347 469
f 389 386 424
f 424 370 389
f 242 409 390
f 391 352 370
f 371 409 242
f 391 446 373
f 373 352 391
f 372 409 371
f 446 375 373
f 372 332 392
f 410 375 446
f 411 376 316
f 393 447 412
f 393 354 375
f 393 375 447
f 377 411 316
f 393 412 430
f 355 448 377
f 430 356 393
f 430 378 356
f 394 378 430
f 458 355 413
f 355 379 413
f 395 413 379
f 433 380 394
f 433 435 380
f 381 397 398
f 398 436 381
f 436 361 381
f 436 399 361
f 382 399 400
f 382 400 362
f 400 401 362
f 399 436 402
f 453 403 452
f 383 403 439
f 405 438 364
f 404 419 365
f 419 366 344
f 441 346 366
f 406 367 443
f 443 368 406
f 407 368 443
f 408 348 407
f 408 386 348
f 347 387 423
f 408 424 386
f 424 425 370
f 425 391 370
f 446 391 425
f 390 409 426
f 372 392 428
f 355 458 448
f 431 394 430
f 395 414 413
f 431 433 394
f 432 414 395
f 360 434 432
f 415 434 360
f 398 397 490
f 484 416 401
f 399 402 400
f 402 417 400
f 417 437 400
f 401 400 437
f 401 437 484
f 418 364 438
f 439 403 453
f 421 438 405
f 404 365 439
f 439 365 383
f 384 421 405
f 385 421 384
f 420 366 419
f 441 366 440
f 441 443 367
f 442 385 468
f 468 385 422
f 347 423 469
f 445 423 387
f 388 445 387
f 425 424 470
f 428 409 372
f 427 410 446
f 376 428 392
f 475 375 410
f 475 447 375
f 377 448 411
f 477 412 447
f 412 477 429
f 429 430 412
f 435 490 397
f 416 450 396
f 396 450 415
f 452 418 451
f 486 453 452
f 420 419 404
f 440 366 420
f 442 421 385
f 455 407 443
f 407 444 408
f 469 423 471
f 470 408 444
f 424 408 470
f 390 445 388
f 390 426 445
f 409 428 426
f 376 456 428
f 376 411 456
f 476 411 448
f 429 431 430
f 488 431 429
f 458 413 449
f 460 431 488
f 460 433 431
f 481 414 432
f 432 434 481
f 461 435 433
f 434 415 450
f 416 482 450
f 484 482 416
f 491 436 398
f 491 485 436
f 436 485 402
f 485 417 402
f 486 452 451
f 438 451 418
f 438 464 451
f 494 404 439
f 494 439 453
f 438 421 465
f 454 420 404
f 466 465 421
f 421 442 466
f 467 441 440
f 509 443 467
f 443 441 467
f 468 466 442
f 509 455 443
f 469 468 422
f 444 407 455
f 472 423 445
f 427 446 425
f 410 427 517
f 410 517 475
f 411 457 456
f 476 457 411
f 448 502 476
f 414 480 449
f 414 449 413
f 460 461 433
f 414 481 480
f 434 450 462
f 461 490 435
f 450 482 462
f 485 463 417
f 437 417 463
f 453 486 492
f 492 494 453
f 494 454 404
f 444 530 470
f 514 471 472
f 471 423 472
f 472 445 499
f 445 487 499
f 426 487 445
f 517 427 473
f 428 474 426
f 428 456 474
f 501 456 518
f 503 447 475
f 457 518 456
f 503 477 447
f 459 478 458
f 449 459 458
f 479 429 477
f 488 429 479
f 449 504 459
f 480 504 449
f 460 506 461
f 434 505 481
f 462 505 434
f 462 482 508
f 483 508 482
f 463 484 437
f 490 544 398
f 398 544 491
f 464 438 465
f 440 420 495
f 465 466 528
f 496 455 529
f 455 509 529
f 512 466 468
f 496 444 455
f 444 496 551
f 471 498 469
f 471 514 498
f 425 470 532
f 532 427 425
f 426 474 487
f 501 474 456
f 517 503 475
f 574 518 457
f 448 519 502
f 520 477 503
f 478 519 448
f 458 478 448
f 520 479 477
f 459 536 478
f 480 489 504
f 481 521 489
f 481 489 480
f 481 505 521
f 461 507 490
f 483 484 463
f 484 483 482
f 491 546 485
f 451 525 486
f 451 464 525
f 525 464 547
f 494 492 526
f 493 492 486
f 547 464 527
f 465 527 464
f 495 420 454
f 528 527 465
f 509 467 510
f 468 469 497
f 469 498 497
f 551 530 444
f 514 472 531
f 531 472 499
f 532 473 427
f 474 500 487
f 534 517 473
f 574 457 476
f 478 536 519
f 504 537 536
f 459 504 536
f 507 461 506
f 462 508 505
f 490 507 524
f 463 546 578
f 463 485 546
f 524 544 490
f 544 546 491
f 525 493 486
f 580 526 492
f 580 492 493
f 454 494 548
f 548 495 454
f 510 467 440
f 512 528 466
f 511 496 529
f 497 512 468
f 512 497 513
f 513 497 498
f 530 515 470
f 499 533 531
f 532 470 515
f 487 516 499
f 554 473 532
f 474 501 500
f 555 503 517
f 575 503 555
f 519 556 502
f 558 479 520
f 479 460 488
f 460 479 539
f 521 505 522
f 505 577 522
f 505 508 542
f 523 508 483
f 578 523 463
f 483 463 523
f 526 548 494
f 510 440 495
f 509 510 563
f 529 509 549
f 496 600 551
f 513 498 584
f 514 566 498
f 531 553 514
f 553 566 514
f 516 533 499
f 516 570 533
f 500 516 487
f 554 534 473
f 500 571 516
f 534 555 517
f 535 574 476
f 502 535 476
f 556 535 502
f 575 557 503
f 536 556 519
f 558 520 503
f 504 489 537
f 521 522 538
f 521 538 489
f 539 540 460
f 460 540 506
f 506 540 541
f 505 542 577
f 506 541 507
f 507 541 559
f 508 523 543
f 544 524 594
f 544 545 546
f 581 493 525
f 548 526 582
f 561 526 580
f 510 562 563
f 562 510 495
f 549 509 563
f 528 512 550
f 600 496 511
f 530 551 565
f 584 498 566
f 530 565 515
f 552 532 515
f 533 568 531
f 554 569 534
f 571 570 516
f 500 501 571
f 518 573 501
f 536 607 556
f 557 558 503
f 537 607 536
f 489 538 537
f 479 558 539
f 522 576 538
f 577 592 522
f 543 542 508
f 559 524 507
f 543 523 578
f 545 544 594
f 560 581 525
f 560 525 596
f 580 493 581
f 547 596 525
f 561 582 526
f 562 495 582
f 582 495 548
f 528 583 527
f 550 583 528
f 550 512 513
f 600 511 633
f 565 600 564
f 600 565 551
f 567 515 565
f 566 553 585
f 567 552 515
f 602 552 567
f 602 532 552
f 568 553 531
f 602 554 532
f 569 554 602
f 570 568 533
f 571 636 570
f 518 574 573
f 572 555 534
f 575 555 572
f 606 557 575
f 587 557 606
f 639 556 607
f 557 590 558
f 539 558 590
f 591 539 590
f 522 592 576
f 540 539 591
f 610 577 542
f 542 543 610
f 559 594 524
f 595 578 546
f 546 545 595
f 580 581 611
f 560 629 581
f 561 597 582
f 579 561 611
f 611 561 580
f 582 597 613
f 583 547 527
f 550 615 583
f 598 549 563
f 598 599 549
f 511 529 632
f 633 511 632
f 566 601 584
f 567 565 564
f 566 585 601
f 568 585 553
f 568 603 585
f 603 568 635
f 657 569 602
f 635 568 570
f 572 534 569
f 571 617 636
f 501 573 571
f 571 573 617
f 618 573 574
f 618 574 619
f 586 575 572
f 574 535 619
f 606 575 586
f 556 619 535
f 607 537 608
f 588 557 587
f 538 589 537
f 588 590 557
f 576 589 538
f 541 540 609
f 577 593 592
f 610 593 577
f 610 543 625
f 578 625 543
f 595 625 578
f 581 629 611
f 596 629 560
f 630 596 547
f 630 547 583
f 631 562 613
f 613 562 582
f 563 562 631
f 598 563 631
f 615 614 583
f 632 529 599
f 599 529 549
f 652 615 550
f 550 513 652
f 633 632 653
f 584 656 513
f 656 584 601
f 672 567 564
f 585 603 601
f 657 616 569
f 635 570 636
f 604 572 616
f 616 572 569
f 604 586 572
f 605 586 604
f 605 606 586
f 605 638 620
f 605 620 606
f 607 662 639
f 606 620 643
f 607 640 662
f 606 643 587
f 607 608 640
f 587 643 588
f 537 589 608
f 623 590 588
f 576 622 589
f 623 591 590
f 576 592 645
f 623 646 591
f 646 609 591
f 593 647 592
f 609 540 591
f 559 541 609
f 625 626 610
f 628 627 594
f 545 594 627
f 545 627 595
f 629 596 630
f 597 579 612
f 579 597 561
f 613 597 612
f 583 614 630
f 599 598 631
f 691 615 652
f 652 656 655
f 652 513 656
f 654 564 600
f 657 602 567
f 635 634 603
f 658 604 616
f 660 604 658
f 660 605 604
f 573 637 617
f 618 637 573
f 639 619 556
f 589 621 608
f 664 588 643
f 622 621 589
f 588 664 623
f 622 645 644
f 576 645 622
f 592 647 645
f 646 624 609
f 668 609 624
f 609 668 559
f 610 626 593
f 648 625 627
f 628 594 559
f 595 627 625
f 612 689 613
f 689 631 613
f 633 654 600
f 693 564 654
f 672 564 693
f 634 601 603
f 617 713 636
f 637 713 617
f 638 605 660
f 620 638 675
f 620 677 643
f 642 643 677
f 608 641 640
f 608 621 641
f 622 644 621
f 645 665 644
f 623 684 646
f 645 685 665
f 647 685 645
f 668 624 667
f 593 666 647
f 626 649 666
f 626 666 593
f 625 649 626
f 559 668 628
f 627 628 648
f 625 648 649
f 579 688 650
f 611 688 579
f 688 611 629
f 651 688 629
f 650 612 579
f 630 651 629
f 651 630 690
f 690 630 614
f 615 690 614
f 670 599 631
f 707 671 632
f 670 707 632
f 632 599 670
f 671 653 632
f 692 652 655
f 633 653 654
f 601 673 656
f 672 674 567
f 634 673 601
f 674 657 567
f 674 616 657
f 635 659 634
f 658 616 674
f 636 659 635
f 636 713 659
f 675 638 660
f 618 676 637
f 619 661 618
f 618 661 676
f 678 661 619
f 678 619 639
f 644 682 621
f 664 643 642
f 665 663 682
f 665 682 644
f 684 623 664
f 646 684 624
f 665 685 663
f 667 624 702
f 686 668 667
f 668 686 628
f 628 686 648
f 612 687 689
f 612 650 687
f 651 690 669
f 631 732 670
f 631 689 732
f 652 692 691
f 671 654 653
f 656 673 655
f 694 673 634
f 634 659 696
f 695 658 674
f 637 676 713
f 677 620 675
f 639 697 678
f 679 642 677
f 662 680 697
f 662 697 639
f 641 680 640
f 640 680 662
f 641 681 680
f 682 641 621
f 682 683 700
f 663 683 682
f 698 664 642
f 683 663 721
f 698 684 664
f 684 702 624
f 685 701 663
f 685 666 704
f 647 666 685
f 666 703 704
f 648 686 649
f 649 686 703
f 649 703 666
f 650 688 729
f 651 706 688
f 669 706 651
f 690 615 691
f 671 736 654
f 736 693 654
f 693 709 672
f 709 738 672
f 672 711 674
f 634 696 694
f 658 695 712
f 712 660 658
f 676 714 713
f 676 661 714
f 742 677 675
f 679 677 742
f 678 715 661
f 678 697 715
f 680 681 743
f 698 642 679
f 641 699 681
f 682 699 641
f 700 699 682
f 663 701 721
f 722 684 698
f 702 684 722
f 704 723 701
f 704 701 685
f 727 686 667
f 702 727 667
f 728 686 727
f 703 728 704
f 686 728 703
f 650 729 687
f 706 729 688
f 689 687 705
f 669 690 733
f 733 690 708
f 707 670 732
f 708 690 691
f 707 734 671
f 691 692 708
f 671 759 736
f 735 692 710
f 736 709 693
f 655 710 692
f 673 710 655
f 694 739 673
f 673 739 710
f 711 672 738
f 740 674 711
f 695 674 740
f 659 741 696
f 659 713 741
f 712 675 660
f 742 675 712
f 715 714 661
f 697 716 715
f 717 679 742
f 680 743 716
f 680 716 697
f 681 699 743
f 698 679 717
f 700 718 719
f 700 719 699
f 698 717 724
f 683 720 718
f 683 718 700
f 721 720 683
f 723 748 721
f 698 724 722
f 723 726 748
f 701 723 721
f 724 702 722
f 727 702 725
f 725 702 724
f 726 725 753
f 727 725 726
f 727 726 728
f 704 728 723
f 728 726 723
f 687 729 730
f 730 705 687
f 756 729 757
f 757 729 706
f 705 758 689
f 758 732 689
f 757 706 731
f 669 731 706
f 731 669 733
f 707 732 777
f 707 777 734
f 759 671 734
f 735 708 692
f 710 760 735
f 737 709 736
f 737 738 709
f 761 760 739
f 739 760 710
f 696 739 694
f 714 741 713
f 763 742 712
f 714 764 741
f 715 764 714
f 716 764 715
f 716 743 766
f 746 745 767
f 717 745 724
f 718 744 793
f 720 744 718
f 718 793 719
f 748 771 749
f 721 749 720
f 752 745 746
f 751 746 747
f 751 747 750
f 748 750 771
f 721 748 749
f 752 724 745
f 752 746 751
f 726 750 748
f 753 750 726
f 753 751 750
f 724 752 725
f 725 752 751
f 753 725 751
f 754 730 729
f 756 754 729
f 730 775 705
f 755 754 756
f 705 774 758
f 775 774 705
f 732 758 776
f 708 735 733
f 737 736 759
f 782 737 781
f 781 801 782
f 782 738 737
f 783 711 738
f 738 782 783
f 762 761 739
f 696 762 739
f 784 762 741
f 762 696 741
f 764 785 741
f 763 765 742
f 788 764 716
f 765 717 742
f 745 717 765
f 745 765 767
f 766 788 716
f 768 767 787
f 766 699 719
f 792 769 791
f 770 771 769
f 770 769 792
f 772 771 770
f 772 749 771
f 699 766 743
f 773 769 771
f 749 772 744
f 767 768 746
f 747 791 769
f 768 791 747
f 747 769 773
f 720 749 744
f 768 747 746
f 747 773 750
f 750 773 771
f 730 754 775
f 754 814 775
f 794 814 754
f 755 794 754
f 757 755 756
f 776 758 774
f 776 774 775
f 776 777 732
f 755 757 795
f 796 795 757
f 757 731 796
f 796 731 733
f 779 734 777
f 779 777 778
f 735 796 733
f 735 799 796
f 734 779 759
f 779 781 759
f 779 780 781
f 760 799 735
f 781 737 759
f 821 799 760
f 760 761 821
f 801 783 782
f 740 783 803
f 711 783 740
f 803 695 740
f 804 695 803
f 804 712 695
f 763 712 804
f 741 785 784
f 765 763 806
f 765 806 786
f 788 785 764
f 765 786 767
f 786 787 767
f 787 790 791
f 789 834 788
f 768 787 791
f 766 789 788
f 791 790 792
f 766 812 789
f 770 792 813
f 770 813 772
f 793 812 719
f 719 812 766
f 744 772 811
f 744 811 793
f 775 814 776
f 794 816 814
f 776 778 777
f 755 817 794
f 778 776 815
f 815 776 814
f 840 755 795
f 778 815 842
f 778 842 797
f 780 778 797
f 778 780 779
f 797 800 780
f 799 820 796
f 800 781 780
f 800 801 781
f 800 850 801
f 850 823 801
f 802 783 801
f 801 823 802
f 761 762 825
f 783 802 803
f 784 826 762
f 785 826 784
f 829 826 785
f 805 763 804
f 806 805 827
f 763 805 806
f 806 827 807
f 786 806 807
f 834 829 785
f 786 807 787
f 787 807 830
f 788 834 785
f 787 830 790
f 790 830 808
f 790 808 792
f 792 808 813
f 809 834 789
f 812 809 789
f 772 813 810
f 811 772 810
f 793 811 812
f 817 816 794
f 815 814 816
f 838 816 817
f 755 840 817
f 817 840 818
f 795 819 840
f 796 819 795
f 798 797 842
f 820 819 796
f 847 797 798
f 799 845 820
f 797 847 800
f 821 845 799
f 847 850 800
f 761 822 821
f 825 822 761
f 823 824 802
f 762 826 825
f 802 824 803
f 824 805 803
f 805 824 855
f 805 804 803
f 827 805 855
f 829 825 826
f 827 855 828
f 807 827 828
f 830 807 828
f 861 829 834
f 834 837 861
f 808 830 831
f 808 831 832
f 810 832 835
f 837 835 833
f 836 835 837
f 809 837 834
f 813 808 832
f 832 810 813
f 810 835 836
f 812 837 809
f 810 836 811
f 811 836 837
f 811 837 812
f 816 838 815
f 815 843 842
f 843 815 838
f 817 818 838
f 843 838 841
f 819 839 840
f 841 838 818
f 844 818 840
f 844 840 839
f 820 839 819
f 820 845 839
f 844 839 845
f 843 862 798
f 842 843 798
f 862 843 841
f 844 845 846
f 798 848 847
f 851 844 846
f 821 846 845
f 849 847 848
f 849 848 867
f 847 849 850
f 822 846 821
f 851 846 852
f 854 852 846
f 854 846 822
f 850 853 823
f 850 849 853
f 856 851 852
f 856 852 854
f 823 853 824
f 856 870 851
f 855 824 853
f 855 853 869
f 825 854 822
f 856 854 861
f 825 861 854
f 855 869 857
f 870 856 860
f 860 856 861
f 829 861 825
f 855 857 828
f 828 857 859
f 860 875 858
f 859 830 828
f 859 831 830
f 831 859 873
f 831 873 875
f 875 860 833
f 833 860 861
f 835 875 833
f 837 833 861
f 832 831 875
f 832 875 835
f 818 844 841
f 863 862 841
f 865 798 862
f 865 862 864
f 864 862 863
f 863 841 844
f 844 851 863
f 865 848 798
f 848 865 867
f 866 867 865
f 868 865 864
f 866 865 868
f 872 864 863
f 870 863 851
f 867 853 849
f 872 863 870
f 869 853 867
f 868 864 872
f 874 867 866
f 874 869 867
f 871 874 866
f 871 866 868
f 872 870 858
f 857 869 874
f 871 868 872
f 874 871 873
f 873 871 872
f 873 872 858
f 860 858 870
f 857 874 859
f 875 873 858
f 859 874 873
# 1746 faces, 0 coords texture

# End of File
