####
#
# OBJ File Generated by Meshlab
#
####
# Object AL-DA3R.obj
#
# Vertices: 612
# Faces: 1220
#
####
v 17651.386719 35854.824219 24036.205078
v 17797.306641 35931.847656 24021.550781
v 17895.544922 35951.714844 24021.462891
v 17696.789062 35999.585938 24054.996094
v 17822.248047 36046.324219 24042.683594
v 17687.826172 35686.609375 24048.496094
v 17748.884766 35693.949219 24051.087891
v 17817.162109 35738.960938 24048.828125
v 17556.855469 35781.664062 24060.748047
v 17633.623047 35742.511719 24046.910156
v 17844.078125 35860.785156 24021.802734
v 18008.216797 35829.320312 24074.175781
v 17583.972656 35863.449219 24057.853516
v 17785.107422 35855.089844 24014.171875
v 18001.906250 35898.902344 24058.035156
v 17581.570312 35960.941406 24079.349609
v 18160.832031 35880.585938 24111.294922
v 18043.791016 35986.199219 24063.900391
v 17994.894531 36041.656250 24054.798828
v 18115.046875 36096.777344 24091.880859
v 17773.267578 36144.050781 24091.478516
v 17974.769531 36090.261719 24061.138672
v 18119.281250 36185.894531 24115.542969
v 17550.564453 35555.164062 24126.220703
v 17628.972656 35609.496094 24088.384766
v 17602.814453 35670.167969 24067.208984
v 17893.181641 35671.324219 24094.259766
v 17994.199219 35749.480469 24096.123047
v 18217.462891 35821.292969 24158.900391
v 18217.986328 35880.332031 24134.429688
v 18208.460938 35974.937500 24108.878906
v 18223.267578 36052.285156 24111.753906
v 18196.455078 36141.093750 24120.791016
v 17867.076172 36150.796875 24081.515625
v 17916.568359 36101.140625 24056.708984
v 17629.119141 35443.878906 24185.863281
v 17513.087891 35499.285156 24164.267578
v 17665.976562 35515.765625 24132.666016
v 17747.894531 35457.835938 24173.386719
v 17738.220703 35527.617188 24126.398438
v 17817.062500 35592.472656 24109.273438
v 17920.832031 35633.250000 24118.429688
v 17964.980469 35585.992188 24160.251953
v 18104.496094 35650.636719 24189.736328
v 18057.089844 35644.597656 24162.210938
v 17358.023438 35711.042969 24142.453125
v 17474.212891 35729.703125 24085.037109
v 18174.681641 35743.820312 24178.794922
v 18079.585938 35739.558594 24130.546875
v 17475.089844 35804.792969 24088.058594
v 18252.923828 35792.898438 24204.458984
v 18337.802734 35883.660156 24189.425781
v 17437.806641 35910.757812 24134.541016
v 17542.652344 36031.203125 24122.931641
v 18322.685547 35990.191406 24166.595703
v 18388.193359 35957.226562 24234.478516
v 18354.738281 36050.910156 24184.980469
v 17646.566406 36098.433594 24102.355469
v 18298.757812 36139.308594 24158.007812
v 18207.802734 36249.812500 24154.179688
v 18266.484375 36194.394531 24156.349609
v 18039.136719 36219.269531 24118.470703
v 17571.898438 35451.597656 24183.001953
v 17490.458984 35590.312500 24119.558594
v 17450.990234 35636.492188 24115.339844
v 17847.191406 35519.343750 24157.642578
v 17406.615234 35670.671875 24123.968750
v 17381.613281 35781.953125 24130.117188
v 18304.251953 35817.667969 24234.488281
v 17593.619141 36172.500000 24170.326172
v 17692.638672 36244.414062 24175.431641
v 18330.492188 36227.371094 24199.783203
v 17824.912109 36234.937500 24135.445312
v 17969.406250 36317.792969 24166.605469
v 18034.904297 36289.148438 24150.339844
v 17407.019531 35503.390625 24191.115234
v 17804.458984 35432.582031 24210.394531
v 18221.277344 35731.019531 24231.353516
v 17374.189453 35848.238281 24146.646484
v 17483.203125 36059.113281 24175.503906
v 18425.476562 35985.105469 24308.587891
v 18403.306641 36109.921875 24248.021484
v 18370.351562 36121.457031 24209.447266
v 17922.113281 36347.867188 24191.607422
v 18146.951172 36279.742188 24154.578125
v 18278.755859 36283.125000 24179.835938
v 17628.341797 35391.914062 24233.816406
v 17485.175781 35428.535156 24235.943359
v 17815.904297 35411.273438 24239.919922
v 17925.726562 35497.855469 24203.646484
v 17322.175781 35584.257812 24192.464844
v 17979.595703 35509.050781 24227.273438
v 17280.875000 35751.152344 24194.857422
v 18344.777344 35852.542969 24249.033203
v 18444.417969 36072.218750 24312.982422
v 17641.988281 35335.511719 24314.109375
v 17396.115234 35445.687500 24261.656250
v 18141.498047 35629.226562 24256.523438
v 18265.439453 35738.125000 24308.589844
v 17314.900391 35867.117188 24208.326172
v 18398.953125 35906.652344 24317.679688
v 17494.496094 36155.402344 24230.025391
v 18382.125000 36272.007812 24262.947266
v 17853.609375 36346.906250 24204.496094
v 18027.333984 36409.312500 24220.304688
v 18134.404297 36384.058594 24205.259766
v 17858.058594 35395.105469 24310.822266
v 18449.156250 36142.378906 24342.037109
v 18413.388672 36261.867188 24305.492188
v 17646.275391 36295.675781 24236.658203
v 17748.253906 36376.843750 24261.042969
v 18316.468750 36308.382812 24207.851562
v 18335.199219 36481.464844 24358.445312
v 17697.279297 35364.671875 24277.361328
v 17529.419922 35375.585938 24286.177734
v 17778.787109 35337.683594 24361.291016
v 17240.111328 35654.480469 24243.033203
v 18198.130859 35637.722656 24383.312500
v 17240.744141 35679.378906 24302.593750
v 17261.605469 35809.269531 24251.150391
v 17380.777344 35960.757812 24201.437500
v 18479.615234 36047.835938 24470.417969
v 18470.757812 36215.320312 24447.917969
v 18447.923828 36246.187500 24383.789062
v 18435.042969 36329.546875 24393.865234
v 18392.265625 36362.335938 24331.908203
v 18401.287109 36409.238281 24371.570312
v 18357.080078 36429.625000 24337.195312
v 18248.195312 36395.441406 24240.097656
v 18290.185547 36439.457031 24293.828125
v 18132.105469 36448.171875 24247.119141
v 17553.453125 35332.363281 24347.318359
v 17359.257812 35440.843750 24332.869141
v 17332.476562 35503.539062 24252.052734
v 17903.017578 35412.210938 24331.115234
v 17254.855469 35580.765625 24269.261719
v 18123.781250 35578.582031 24331.679688
v 18334.785156 35787.101562 24392.496094
v 17366.175781 36026.453125 24266.007812
v 18456.566406 35998.312500 24408.140625
v 17799.845703 36471.421875 24323.777344
v 17916.859375 36486.925781 24300.025391
v 18290.031250 36546.792969 24388.162109
v 17651.583984 35277.671875 24418.958984
v 17314.142578 35487.597656 24360.113281
v 17952.771484 35417.347656 24405.417969
v 17256.007812 35792.222656 24340.185547
v 17290.160156 35914.195312 24288.380859
v 18431.050781 35934.503906 24395.085938
v 18488.820312 36204.179688 24545.152344
v 18477.542969 36345.109375 24576.904297
v 18464.246094 36322.050781 24482.890625
v 17676.048828 36426.398438 24337.339844
v 18048.105469 36510.289062 24300.648438
v 18098.529297 36544.617188 24331.466797
v 18234.654297 36520.105469 24337.667969
v 17731.328125 35309.000000 24387.878906
v 17265.333984 35609.066406 24379.775391
v 17271.925781 35822.921875 24457.384766
v 17281.664062 35922.792969 24361.726562
v 17335.359375 36027.648438 24315.771484
v 17375.656250 36158.722656 24365.105469
v 17734.228516 36524.281250 24395.091797
v 18015.558594 36585.007812 24375.212891
v 17772.814453 35277.632812 24496.660156
v 17495.359375 35345.941406 24365.376953
v 17294.076172 35531.742188 24400.458984
v 18029.542969 35473.734375 24417.703125
v 17284.412109 35603.687500 24474.140625
v 17258.125000 35706.566406 24390.437500
v 18414.496094 35879.480469 24449.287109
v 17274.132812 35884.000000 24406.207031
v 17303.675781 36076.296875 24464.226562
v 17309.382812 36021.351562 24372.964844
v 17552.656250 36284.914062 24293.101562
v 18493.945312 36287.519531 24711.361328
v 18443.986328 36404.929688 24453.626953
v 18373.578125 36539.457031 24440.859375
v 18395.421875 36522.570312 24455.417969
v 18165.300781 36580.773438 24376.455078
v 18283.390625 36639.765625 24483.886719
v 18320.769531 36640.226562 24514.769531
v 17344.619141 35439.796875 24513.912109
v 18344.480469 35742.398438 24601.570312
v 17282.736328 35937.761719 24557.738281
v 17287.074219 35988.136719 24486.244141
v 18486.615234 36103.511719 24474.164062
v 17318.988281 36221.785156 24517.773438
v 17328.716797 36145.570312 24442.048828
v 17348.609375 36198.000000 24443.181641
v 17425.058594 36217.460938 24351.242188
v 17513.199219 36445.515625 24468.386719
v 17585.535156 36386.777344 24358.863281
v 17643.742188 36515.554688 24435.019531
v 17803.121094 36584.621094 24428.041016
v 17889.033203 36557.019531 24371.205078
v 18208.328125 36624.597656 24430.419922
v 17685.304688 35239.242188 24507.685547
v 17440.652344 35366.921875 24392.066406
v 17414.191406 35365.500000 24459.476562
v 18099.357422 35518.253906 24474.957031
v 18492.656250 36015.140625 24580.357422
v 18473.441406 36444.546875 24651.517578
v 17633.146484 36567.753906 24497.158203
v 17964.156250 36679.593750 24487.476562
v 17518.142578 35267.457031 24559.419922
v 17448.384766 35296.996094 24600.513672
v 18247.076172 35659.656250 24496.185547
v 17276.593750 35698.207031 24495.509766
v 18373.021484 35828.820312 24408.246094
v 17285.527344 36061.082031 24601.861328
v 17291.087891 36072.988281 24538.902344
v 18511.792969 36147.304688 24687.148438
v 17299.472656 36217.386719 24564.470703
v 17391.744141 36285.398438 24446.296875
v 17360.125000 36339.671875 24521.597656
v 18408.757812 36568.992188 24550.714844
v 17720.910156 36610.859375 24491.201172
v 18369.712891 36613.492188 24543.724609
v 17857.089844 36694.730469 24529.484375
v 18171.275391 36699.589844 24513.781250
v 17731.583984 35223.894531 24594.679688
v 17319.527344 35503.707031 24553.941406
v 18479.025391 35953.843750 24624.673828
v 18501.208984 36125.000000 24576.093750
v 17451.673828 36358.640625 24446.144531
v 18265.625000 36708.132812 24573.533203
v 18095.281250 36679.925781 24469.478516
v 18226.341797 36709.781250 24548.632812
v 17387.054688 35381.625000 24494.894531
v 17869.263672 35337.910156 24482.480469
v 17948.808594 35384.679688 24501.742188
v 18122.523438 35504.562500 24612.669922
v 17281.402344 35766.601562 24577.623047
v 17299.105469 36337.296875 24625.951172
v 17330.398438 36361.187500 24574.355469
v 17530.003906 36534.886719 24542.037109
v 18407.087891 36612.464844 24606.044922
v 17732.212891 36680.472656 24567.527344
v 18270.458984 36726.558594 24609.357422
v 17980.560547 36732.441406 24553.009766
v 18141.914062 36761.644531 24595.222656
v 17605.236328 35242.644531 24521.724609
v 18023.341797 35420.875000 24576.121094
v 18510.070312 36043.304688 24658.632812
v 17534.638672 36604.781250 24600.400391
v 18455.933594 36562.167969 24793.244141
v 18445.861328 36539.183594 24617.732422
v 17907.654297 36774.445312 24639.994141
v 18090.833984 36743.003906 24561.697266
v 17811.000000 35253.570312 24618.544922
v 17297.126953 35596.070312 24603.318359
v 18278.769531 35641.917969 24722.695312
v 17283.712891 35702.496094 24677.656250
v 18523.927734 35992.742188 24835.005859
v 17284.751953 36157.257812 24631.183594
v 17416.242188 36470.011719 24577.855469
v 18473.669922 36504.882812 24855.005859
v 18440.048828 36607.382812 24803.269531
v 17644.951172 36638.972656 24565.304688
v 17626.023438 36713.246094 24662.712891
v 18367.013672 36665.523438 24631.310547
v 17806.052734 36720.121094 24584.974609
v 18030.156250 36777.992188 24622.855469
v 18170.580078 36801.203125 24698.537109
v 17934.992188 35312.449219 24699.908203
v 18170.292969 35530.539062 24707.324219
v 18213.337891 35555.433594 24816.714844
v 18459.949219 35904.238281 24637.322266
v 17349.546875 36429.468750 24612.769531
v 17450.191406 36553.191406 24633.335938
v 17517.927734 36629.664062 24632.679688
v 17860.253906 36749.109375 24605.691406
v 17679.193359 35201.675781 24629.876953
v 17601.695312 35199.859375 24674.976562
v 17879.390625 35279.425781 24668.462891
v 17323.958984 35483.414062 24665.185547
v 18038.527344 35398.578125 24715.798828
v 17287.058594 35749.355469 24754.335938
v 18412.923828 36646.535156 24730.119141
v 18305.085938 36755.738281 24788.785156
v 18284.025391 36749.929688 24691.541016
v 17832.697266 36805.082031 24725.781250
v 18021.259766 36823.265625 24717.171875
v 17537.605469 35207.054688 24773.144531
v 17504.994141 35232.523438 24715.441406
v 17286.433594 35988.527344 24681.041016
v 17293.310547 36064.218750 24772.226562
v 17290.515625 36249.191406 24701.312500
v 17304.212891 36353.015625 24732.500000
v 18482.003906 36426.042969 24804.611328
v 17333.113281 36447.187500 24675.894531
v 17377.683594 36529.578125 24708.019531
v 17479.623047 36694.367188 24756.423828
v 17563.804688 36728.046875 24727.214844
v 18353.306641 36712.796875 24741.474609
v 18099.167969 36831.082031 24733.751953
v 18192.507812 36816.707031 24780.560547
v 17836.898438 36841.816406 24815.396484
v 17954.787109 36831.023438 24749.091797
v 17653.138672 35175.050781 24772.781250
v 17745.511719 35191.593750 24768.562500
v 17821.312500 35231.671875 24719.664062
v 17932.423828 35301.195312 24816.734375
v 17650.750000 36771.531250 24738.570312
v 18206.576172 36826.140625 24870.089844
v 17706.980469 36826.777344 24815.167969
v 17685.972656 35168.394531 24853.373047
v 17433.089844 35286.136719 24699.667969
v 17389.957031 35336.066406 24672.166016
v 17379.611328 35328.429688 24835.865234
v 17445.289062 35255.289062 24789.302734
v 17350.205078 35405.941406 24691.525391
v 17275.751953 35625.410156 24749.246094
v 17351.162109 36508.972656 24748.365234
v 18401.539062 36685.429688 24911.109375
v 18376.792969 36720.972656 24879.644531
v 17550.197266 35189.914062 24851.505859
v 17363.417969 35371.757812 24749.828125
v 17994.453125 35350.699219 24776.490234
v 18415.205078 35813.210938 24693.140625
v 17312.671875 36100.746094 24887.333984
v 17338.121094 36479.359375 24774.998047
v 17407.740234 36638.898438 24778.533203
v 17366.265625 36621.820312 24842.007812
v 17999.816406 36850.886719 24813.082031
v 17313.433594 35499.769531 24808.789062
v 17284.576172 35837.800781 24670.773438
v 18520.876953 36148.371094 24815.503906
v 17328.152344 36320.257812 24866.099609
v 17342.021484 36470.179688 24836.150391
v 17384.535156 36684.808594 24856.275391
v 17485.253906 36741.359375 24813.671875
v 17547.744141 36778.253906 24821.691406
v 17640.208984 36821.902344 24843.671875
v 17755.482422 36873.105469 24925.677734
v 17890.996094 36863.320312 24878.101562
v 17824.171875 35226.277344 24819.117188
v 17731.693359 35184.140625 24867.955078
v 17793.000000 35214.984375 24932.603516
v 17395.818359 35321.109375 24918.816406
v 18520.658203 36081.824219 24738.912109
v 17402.566406 36582.019531 24952.558594
v 17409.083984 36693.441406 24896.580078
v 17484.042969 36770.960938 24883.234375
v 18296.388672 36769.800781 24886.367188
v 17846.949219 36887.875000 24975.378906
v 17559.808594 35185.476562 24890.263672
v 17890.277344 35273.585938 24890.027344
v 17303.669922 35597.230469 24881.574219
v 17294.658203 35880.480469 24776.525391
v 17310.833984 36005.652344 24870.761719
v 17465.890625 36714.496094 24968.171875
v 17964.064453 36872.449219 24928.761719
v 17745.216797 35205.753906 24993.294922
v 17432.390625 35251.066406 24899.539062
v 17357.173828 35398.261719 24897.007812
v 17296.787109 35731.984375 24821.380859
v 17312.101562 35835.242188 24870.611328
v 18456.296875 35849.953125 24836.376953
v 17359.730469 36266.039062 24981.197266
v 17365.736328 36412.621094 24945.087891
v 17523.375000 36791.082031 24953.179688
v 17579.273438 36790.132812 25095.054688
v 18087.919922 36859.140625 24979.250000
v 17617.513672 36833.265625 25092.429688
v 17636.296875 36852.394531 25038.425781
v 18112.205078 36851.117188 24869.841797
v 17639.806641 36848.949219 24924.152344
v 17473.597656 35219.437500 24929.878906
v 17694.376953 35193.929688 24984.753906
v 17930.974609 35326.125000 25096.236328
v 18035.949219 35384.835938 24958.453125
v 17355.113281 35504.957031 24952.603516
v 18106.205078 35440.976562 24959.699219
v 17336.416016 35606.296875 24944.802734
v 17314.742188 35701.343750 24891.835938
v 17331.914062 35846.121094 24934.523438
v 18538.003906 36094.679688 24930.501953
v 18530.994141 36138.832031 24945.779297
v 18309.300781 36756.968750 24970.265625
v 17975.292969 36883.593750 25017.611328
v 17789.470703 36901.054688 25066.875000
v 17477.730469 35239.566406 24979.781250
v 18055.056641 35403.671875 24797.957031
v 17404.291016 35589.093750 25046.896484
v 17352.134766 35692.621094 24977.357422
v 17329.679688 36034.328125 24935.417969
v 17353.595703 35936.812500 24987.708984
v 18533.755859 36042.203125 24865.343750
v 17349.607422 36086.722656 24979.228516
v 17424.791016 36465.050781 25040.496094
v 17596.181641 35185.843750 24944.951172
v 17548.308594 35216.375000 24996.957031
v 17480.554688 35318.351562 25028.857422
v 17395.894531 35381.707031 24972.519531
v 18287.460938 35631.484375 24873.191406
v 17358.794922 35809.406250 25000.613281
v 17404.619141 35833.453125 25083.822266
v 18552.880859 36004.582031 25044.753906
v 17394.810547 36002.296875 25064.277344
v 18551.958984 36053.886719 25023.888672
v 18513.365234 36207.570312 24989.324219
v 18441.912109 36601.007812 24913.113281
v 17472.294922 36640.238281 25037.769531
v 17775.199219 36917.425781 25136.185547
v 17854.968750 36909.875000 25111.949219
v 17561.750000 35222.746094 25019.855469
v 17850.744141 35280.683594 25080.253906
v 17976.691406 35346.835938 25042.330078
v 18089.884766 35426.429688 25097.154297
v 17446.607422 35477.910156 25062.533203
v 17395.687500 35695.582031 25058.427734
v 18380.839844 35744.546875 24813.814453
v 17434.166016 35989.628906 25126.328125
v 18504.314453 35924.527344 24860.765625
v 17573.490234 36677.753906 25174.507812
v 18218.595703 36817.343750 24954.935547
v 18033.216797 36872.820312 25086.835938
v 17626.019531 35279.406250 25093.816406
v 17704.621094 35237.484375 25064.837891
v 18174.017578 35501.414062 24968.693359
v 18250.746094 35573.007812 25102.046875
v 17454.783203 35683.500000 25128.214844
v 18500.755859 35888.320312 25057.853516
v 17431.246094 35836.289062 25120.943359
v 18541.974609 35954.683594 25077.105469
v 17566.691406 36748.816406 25116.558594
v 18139.378906 36843.968750 25010.863281
v 17691.144531 36877.035156 25153.212891
v 17719.222656 36891.933594 25084.333984
v 17698.439453 35361.664062 25181.542969
v 17780.585938 35269.480469 25103.966797
v 17543.707031 35330.046875 25083.015625
v 17505.736328 35563.156250 25142.921875
v 18325.814453 35667.042969 25042.794922
v 18375.255859 35727.769531 24963.453125
v 17413.216797 36173.023438 25078.902344
v 17437.359375 36326.195312 25090.757812
v 18455.707031 36550.820312 24970.265625
v 18330.673828 36731.148438 25043.767578
v 18241.568359 36785.949219 25095.322266
v 17638.861328 35446.914062 25195.667969
v 18045.894531 35394.292969 25190.232422
v 17529.957031 35464.738281 25129.802734
v 18178.667969 35499.824219 25132.400391
v 18544.103516 36104.062500 25045.337891
v 17491.662109 36432.140625 25146.832031
v 17494.835938 36562.648438 25110.402344
v 17549.412109 36587.406250 25184.726562
v 18149.208984 36826.265625 25127.044922
v 17815.771484 35376.734375 25237.076172
v 17790.564453 35317.062500 25166.312500
v 17883.412109 35324.472656 25167.619141
v 17943.919922 35351.910156 25204.748047
v 17589.986328 35668.941406 25238.160156
v 17513.515625 35709.578125 25184.705078
v 18377.853516 35729.558594 25109.910156
v 18369.132812 36692.160156 25054.906250
v 17622.169922 36692.101562 25228.089844
v 18300.476562 36727.523438 25182.734375
v 17663.451172 36844.277344 25201.732422
v 17924.269531 36901.195312 25155.425781
v 17771.173828 36904.488281 25191.210938
v 17672.035156 35544.792969 25259.847656
v 18535.591797 35926.859375 25198.128906
v 17556.113281 35896.468750 25250.916016
v 17496.921875 36215.816406 25195.765625
v 18474.039062 36479.703125 24933.019531
v 18460.408203 36515.050781 24999.669922
v 18412.632812 36661.132812 24968.587891
v 18330.949219 36689.921875 25204.220703
v 17760.226562 36874.785156 25242.410156
v 17882.451172 35359.656250 25237.097656
v 17733.511719 35435.539062 25246.419922
v 17954.228516 35378.175781 25295.386719
v 18046.707031 35411.281250 25318.384766
v 18302.910156 35641.554688 25180.353516
v 18471.482422 35844.992188 25148.037109
v 17619.464844 35810.203125 25290.578125
v 18561.779297 35967.085938 25197.976562
v 17516.894531 36019.691406 25219.632812
v 18529.373047 36134.613281 25125.925781
v 18487.037109 36351.339844 24949.425781
v 17547.017578 36367.609375 25233.339844
v 17625.105469 36559.246094 25277.943359
v 17655.890625 36642.070312 25277.320312
v 18189.281250 36800.132812 25167.873047
v 18036.314453 36863.722656 25183.964844
v 17947.146484 35419.484375 25325.595703
v 17787.248047 35514.773438 25323.005859
v 17701.224609 35623.292969 25309.583984
v 18229.744141 35556.308594 25264.582031
v 18401.843750 35769.789062 25235.914062
v 17671.162109 35713.218750 25311.187500
v 18525.958984 35932.109375 25278.503906
v 18583.671875 36012.738281 25199.994141
v 18489.466797 36289.566406 25063.134766
v 18466.615234 36399.546875 25074.847656
v 18417.513672 36591.304688 25101.117188
v 18376.253906 36634.878906 25186.550781
v 17697.578125 36737.390625 25280.906250
v 18264.966797 36729.160156 25234.177734
v 17932.664062 36875.855469 25247.263672
v 17757.855469 36828.429688 25286.376953
v 17860.919922 36909.914062 25215.298828
v 18141.585938 35465.652344 25265.863281
v 18164.595703 35500.625000 25316.558594
v 18347.933594 35715.093750 25279.277344
v 18497.966797 36216.660156 25122.046875
v 18467.470703 36304.437500 25161.876953
v 17593.712891 36429.171875 25278.123047
v 18440.316406 36449.875000 25160.859375
v 17728.744141 36611.148438 25328.445312
v 18382.445312 36604.421875 25219.773438
v 18237.666016 36716.214844 25280.220703
v 18078.449219 36828.804688 25224.257812
v 17886.023438 35591.539062 25387.626953
v 18303.500000 35684.695312 25333.750000
v 18422.929688 35826.707031 25303.125000
v 18497.921875 35926.921875 25320.558594
v 18550.259766 36039.535156 25243.273438
v 17605.015625 36017.816406 25304.023438
v 18507.115234 36150.539062 25191.714844
v 17636.310547 36175.941406 25329.152344
v 17594.101562 36263.449219 25299.123047
v 18470.226562 36233.238281 25212.871094
v 18441.429688 36280.847656 25247.750000
v 18327.273438 36421.898438 25355.431641
v 18404.371094 36404.667969 25273.703125
v 18362.250000 36351.703125 25340.556641
v 18433.289062 36372.164062 25225.697266
v 17675.414062 36444.308594 25331.916016
v 18292.214844 36405.644531 25378.562500
v 18359.279297 36479.601562 25311.521484
v 18252.408203 36516.230469 25374.056641
v 18307.164062 36508.093750 25348.736328
v 18351.646484 36599.992188 25291.326172
v 18413.777344 36511.507812 25215.000000
v 17770.103516 36655.109375 25337.919922
v 18275.673828 36648.953125 25336.027344
v 18321.531250 36661.566406 25292.107422
v 18148.386719 36741.937500 25293.976562
v 18130.734375 36783.105469 25256.660156
v 17913.935547 36853.578125 25289.095703
v 17835.873047 36847.585938 25296.214844
v 17868.773438 35494.402344 25342.748047
v 18096.699219 35480.441406 25354.896484
v 18252.134766 35607.300781 25329.496094
v 17841.093750 35711.214844 25402.494141
v 17755.726562 35750.789062 25368.533203
v 18312.000000 35721.160156 25354.546875
v 18413.158203 35862.664062 25341.568359
v 17671.576172 35945.953125 25351.568359
v 18509.439453 35980.953125 25311.474609
v 18374.896484 36020.816406 25388.851562
v 18464.576172 36103.210938 25305.662109
v 17689.451172 36112.644531 25362.806641
v 18400.531250 36122.984375 25353.460938
v 18404.095703 36239.984375 25316.947266
v 18328.849609 36207.882812 25383.345703
v 18478.085938 36140.839844 25263.626953
v 17712.302734 36256.523438 25371.394531
v 18269.537109 36232.085938 25406.783203
v 18142.054688 36381.843750 25414.968750
v 18119.632812 36511.390625 25394.406250
v 18226.503906 36444.371094 25394.486328
v 17743.998047 36435.125000 25366.015625
v 18014.361328 36490.824219 25406.679688
v 18145.927734 36614.789062 25367.210938
v 18227.361328 36588.703125 25363.988281
v 18023.056641 36619.925781 25371.279297
v 17963.417969 36492.867188 25404.939453
v 17802.687500 36723.703125 25330.263672
v 18026.466797 36708.132812 25342.283203
v 18168.757812 36695.019531 25324.291016
v 17908.017578 36721.863281 25343.656250
v 17936.990234 36779.207031 25324.142578
v 18037.841797 36763.312500 25314.039062
v 18027.242188 35510.156250 25389.939453
v 18201.148438 35592.792969 25377.541016
v 18314.519531 35812.585938 25392.683594
v 17733.482422 35872.738281 25379.865234
v 18389.478516 35926.199219 25377.798828
v 18274.826172 35981.363281 25430.107422
v 17829.080078 35922.386719 25428.566406
v 17705.628906 36000.105469 25374.310547
v 18198.626953 36091.496094 25440.929688
v 18266.255859 36104.425781 25424.503906
v 18057.433594 36182.191406 25450.005859
v 18171.953125 36258.125000 25427.382812
v 17759.078125 36234.703125 25393.851562
v 17811.455078 36249.718750 25414.253906
v 18042.468750 36388.847656 25424.894531
v 17892.607422 36301.656250 25430.890625
v 17815.162109 36462.230469 25388.984375
v 17884.503906 36478.210938 25399.935547
v 17885.988281 35667.847656 25407.673828
v 18093.669922 35549.613281 25398.199219
v 18232.171875 35667.109375 25392.232422
v 18162.896484 35666.750000 25424.982422
v 18243.394531 35835.562500 25427.445312
v 18180.498047 35847.109375 25451.306641
v 18105.638672 35957.292969 25463.490234
v 17837.994141 36085.875000 25431.449219
v 17930.433594 36155.789062 25452.021484
v 17969.394531 35703.582031 25439.275391
v 18020.841797 35627.250000 25428.667969
v 18075.519531 35765.199219 25461.804688
v 18057.615234 35843.167969 25473.980469
v 17980.808594 35986.195312 25467.828125
v 17946.869141 35858.042969 25460.361328
# 612 vertices, 0 vertices normals

f 9 13 1
f 1 2 14
f 3 11 14
f 13 16 1
f 14 2 3
f 1 4 2
f 1 16 4
f 2 4 5
f 2 5 3
f 5 35 3
f 35 19 3
f 5 21 34
f 5 34 35
f 9 10 47
f 6 14 7
f 7 14 8
f 27 8 12
f 12 28 27
f 9 1 10
f 10 1 14
f 10 14 6
f 14 11 8
f 8 11 12
f 11 15 12
f 15 11 3
f 17 15 31
f 15 3 18
f 15 18 31
f 58 4 16
f 58 5 4
f 22 19 35
f 3 19 18
f 18 32 31
f 18 19 20
f 18 20 32
f 32 20 33
f 5 58 21
f 19 22 20
f 22 23 20
f 64 25 24
f 25 40 38
f 25 6 40
f 64 26 25
f 40 6 7
f 65 26 64
f 25 26 6
f 40 7 41
f 41 7 27
f 26 65 47
f 26 47 10
f 26 10 6
f 67 47 65
f 7 8 27
f 27 28 42
f 49 45 42
f 42 28 49
f 50 13 9
f 50 9 47
f 28 12 17
f 28 17 49
f 12 15 17
f 49 30 29
f 50 16 13
f 49 17 30
f 30 52 29
f 30 17 31
f 54 16 53
f 52 30 55
f 30 31 55
f 55 32 57
f 55 31 32
f 57 32 59
f 59 32 33
f 20 23 33
f 33 61 59
f 21 73 34
f 22 62 23
f 34 62 35
f 35 62 22
f 38 36 63
f 38 37 24
f 37 38 63
f 36 40 39
f 36 38 40
f 24 37 64
f 38 24 25
f 40 41 39
f 39 41 66
f 66 41 42
f 27 42 41
f 45 43 42
f 67 46 47
f 48 44 45
f 68 47 46
f 47 68 50
f 48 45 49
f 48 49 29
f 78 48 51
f 52 51 29
f 51 48 29
f 53 16 50
f 52 55 56
f 56 55 57
f 56 57 82
f 54 58 16
f 58 71 21
f 75 62 34
f 23 60 33
f 34 74 75
f 34 73 74
f 62 85 23
f 33 60 61
f 23 85 60
f 63 36 87
f 37 76 64
f 77 39 66
f 90 77 66
f 43 66 42
f 66 43 90
f 45 92 43
f 43 92 90
f 48 78 44
f 46 93 68
f 79 50 68
f 79 53 50
f 52 69 51
f 80 54 53
f 95 56 82
f 57 83 82
f 54 70 58
f 72 83 59
f 83 57 59
f 71 58 70
f 72 59 61
f 73 21 71
f 72 61 86
f 86 61 60
f 74 73 84
f 85 62 75
f 87 36 39
f 77 114 39
f 114 87 39
f 37 63 76
f 63 88 76
f 63 87 88
f 89 77 90
f 91 65 64
f 91 64 76
f 91 67 65
f 44 92 45
f 46 67 91
f 78 98 44
f 68 93 79
f 69 78 51
f 94 52 56
f 53 121 80
f 95 81 56
f 54 80 70
f 80 102 70
f 83 72 103
f 86 112 72
f 106 75 74
f 85 75 106
f 85 86 60
f 115 88 87
f 77 89 114
f 98 92 44
f 91 93 46
f 79 93 100
f 52 94 69
f 79 100 121
f 121 53 79
f 101 94 56
f 56 81 101
f 110 71 70
f 112 103 72
f 110 111 71
f 104 73 71
f 111 104 71
f 104 84 73
f 129 112 86
f 105 106 74
f 106 86 85
f 129 86 106
f 74 84 105
f 105 131 106
f 87 96 115
f 87 114 96
f 88 115 97
f 97 134 76
f 97 76 88
f 90 107 89
f 90 92 107
f 91 76 134
f 117 93 91
f 99 98 78
f 99 78 69
f 69 94 99
f 117 120 93
f 100 93 120
f 101 81 149
f 95 140 81
f 83 109 82
f 109 108 82
f 108 95 82
f 103 109 83
f 142 104 111
f 130 112 129
f 104 142 84
f 84 142 105
f 115 96 132
f 116 114 89
f 92 135 107
f 91 134 136
f 98 137 92
f 94 138 99
f 101 210 94
f 140 149 81
f 95 187 140
f 121 102 80
f 124 108 109
f 124 123 108
f 70 175 110
f 112 126 103
f 128 112 130
f 128 130 113
f 131 129 106
f 105 142 154
f 154 131 105
f 144 132 96
f 89 107 116
f 133 134 97
f 137 135 92
f 136 117 91
f 118 137 98
f 118 98 99
f 147 120 119
f 120 117 119
f 210 138 94
f 148 100 120
f 139 100 148
f 139 121 100
f 140 187 122
f 121 139 102
f 108 187 95
f 123 187 108
f 102 175 70
f 126 109 103
f 109 125 124
f 125 109 126
f 111 110 153
f 141 111 153
f 128 127 126
f 128 126 112
f 141 142 111
f 113 130 143
f 155 131 154
f 131 156 129
f 130 156 143
f 130 129 156
f 131 155 180
f 131 180 156
f 96 157 144
f 114 157 96
f 132 166 115
f 116 157 114
f 166 97 115
f 166 133 97
f 134 133 145
f 145 136 134
f 137 146 135
f 119 117 136
f 160 120 147
f 120 160 148
f 171 210 101
f 171 101 149
f 123 150 187
f 152 124 125
f 152 123 124
f 126 127 125
f 128 179 127
f 128 113 179
f 166 199 133
f 145 167 136
f 137 168 146
f 158 119 136
f 138 208 118
f 99 138 118
f 170 147 119
f 147 170 159
f 161 139 148
f 139 162 191
f 191 102 139
f 150 225 187
f 123 151 150
f 152 151 123
f 175 193 110
f 127 177 125
f 177 152 125
f 110 193 153
f 153 163 141
f 163 196 141
f 196 142 141
f 154 142 164
f 143 178 113
f 142 196 164
f 154 164 155
f 155 228 180
f 132 144 243
f 146 231 135
f 158 136 167
f 137 201 168
f 138 184 208
f 158 170 119
f 172 147 159
f 172 160 147
f 161 148 174
f 148 160 174
f 140 224 149
f 162 139 161
f 202 224 140
f 140 122 202
f 202 122 187
f 150 213 225
f 175 102 191
f 175 192 193
f 193 194 153
f 163 153 194
f 179 177 127
f 178 179 113
f 197 156 180
f 197 181 156
f 181 143 156
f 155 164 228
f 144 198 243
f 157 116 165
f 166 132 243
f 135 231 107
f 200 133 199
f 145 133 183
f 183 167 145
f 169 158 167
f 209 158 169
f 210 184 138
f 158 209 170
f 173 160 172
f 160 173 174
f 174 189 161
f 162 161 189
f 151 176 150
f 177 151 152
f 179 248 177
f 195 196 163
f 181 182 143
f 143 182 178
f 144 157 198
f 198 157 165
f 206 166 243
f 166 206 199
f 116 231 165
f 107 231 116
f 231 146 232
f 118 233 201
f 118 201 137
f 209 159 170
f 234 159 209
f 234 185 159
f 171 149 269
f 224 269 149
f 185 186 159
f 186 172 159
f 186 173 172
f 202 187 245
f 174 173 189
f 187 225 245
f 189 173 188
f 189 190 162
f 188 190 189
f 190 191 162
f 190 215 191
f 226 175 191
f 175 226 192
f 151 203 176
f 192 194 193
f 177 203 151
f 177 248 203
f 194 218 163
f 195 163 218
f 196 205 164
f 197 180 228
f 199 206 207
f 207 200 199
f 133 200 230
f 146 168 232
f 232 168 244
f 223 169 167
f 118 208 233
f 328 185 234
f 212 186 185
f 212 173 186
f 214 173 212
f 214 188 173
f 190 188 216
f 190 216 215
f 226 191 215
f 179 217 248
f 194 204 218
f 217 179 178
f 219 178 182
f 217 178 219
f 220 196 195
f 196 220 205
f 164 205 228
f 228 221 197
f 198 274 243
f 165 222 198
f 183 133 230
f 201 244 168
f 252 169 223
f 209 169 252
f 208 184 253
f 287 185 328
f 185 211 212
f 287 211 185
f 150 176 213
f 188 236 216
f 188 214 236
f 215 216 226
f 192 237 194
f 194 237 204
f 220 195 218
f 197 221 229
f 197 229 181
f 181 229 227
f 181 227 182
f 228 250 221
f 243 274 275
f 200 207 230
f 223 167 183
f 244 201 233
f 233 208 267
f 210 321 184
f 225 342 245
f 256 212 211
f 256 214 212
f 226 257 192
f 192 257 237
f 246 260 204
f 260 218 204
f 217 219 238
f 260 239 218
f 220 218 239
f 239 263 220
f 241 205 220
f 250 242 221
f 221 242 229
f 222 274 198
f 251 222 165
f 231 251 165
f 253 267 208
f 253 184 414
f 252 234 209
f 171 321 210
f 328 234 254
f 255 416 224
f 255 224 202
f 202 245 255
f 256 211 287
f 213 342 225
f 235 214 256
f 235 236 214
f 203 291 176
f 226 216 257
f 258 291 203
f 203 247 258
f 203 248 247
f 204 237 246
f 238 248 217
f 239 260 261
f 182 262 219
f 227 240 182
f 182 240 262
f 273 241 220
f 220 263 273
f 241 228 205
f 241 250 228
f 229 240 227
f 206 243 275
f 276 251 231
f 232 276 231
f 244 266 232
f 254 234 252
f 269 321 171
f 224 416 269
f 216 236 270
f 257 216 270
f 272 260 246
f 262 238 219
f 239 261 263
f 229 242 240
f 273 249 241
f 264 241 249
f 250 241 264
f 242 265 240
f 250 264 242
f 275 274 301
f 206 275 286
f 207 206 286
f 207 309 230
f 266 276 232
f 277 223 183
f 252 223 277
f 278 244 233
f 267 278 233
f 267 253 268
f 279 328 254
f 289 235 256
f 236 235 270
f 271 237 257
f 271 272 246
f 237 271 246
f 259 247 248
f 248 280 259
f 272 261 260
f 262 240 282
f 240 265 282
f 264 297 242
f 297 265 242
f 274 222 302
f 303 222 251
f 251 276 303
f 286 309 207
f 230 309 310
f 313 277 183
f 278 266 244
f 268 278 267
f 314 254 252
f 176 329 213
f 235 292 270
f 270 271 257
f 238 280 248
f 272 295 261
f 263 261 305
f 263 305 273
f 298 282 265
f 283 249 273
f 284 264 249
f 297 264 284
f 249 300 284
f 303 302 222
f 286 275 285
f 286 312 309
f 310 313 183
f 310 183 230
f 314 279 254
f 213 329 342
f 288 256 287
f 288 289 256
f 290 235 289
f 292 293 270
f 293 271 270
f 280 238 262
f 272 294 295
f 280 262 296
f 296 262 282
f 282 281 296
f 305 307 273
f 300 249 283
f 297 298 265
f 301 318 275
f 275 318 285
f 303 276 266
f 278 320 266
f 314 252 277
f 288 287 351
f 290 292 235
f 296 281 317
f 298 306 282
f 281 282 306
f 273 307 283
f 283 299 300
f 300 326 284
f 326 297 284
f 308 301 274
f 274 302 308
f 285 312 286
f 309 312 310
f 303 266 304
f 385 320 278
f 351 287 328
f 245 390 255
f 245 342 390
f 290 323 292
f 292 323 315
f 293 324 271
f 324 272 271
f 272 324 294
f 259 280 316
f 280 296 317
f 261 295 305
f 368 298 297
f 299 326 300
f 312 311 310
f 310 319 313
f 319 310 311
f 320 304 266
f 327 277 313
f 327 314 277
f 321 414 184
f 358 279 314
f 351 328 279
f 416 360 269
f 293 292 315
f 316 280 317
f 346 317 281
f 307 305 335
f 281 306 346
f 368 306 298
f 307 299 283
f 299 337 326
f 303 338 302
f 304 338 303
f 327 313 319
f 268 385 278
f 397 253 414
f 358 351 279
f 322 289 288
f 322 290 289
f 330 290 322
f 331 323 290
f 293 315 325
f 325 315 323
f 323 331 325
f 293 325 324
f 294 333 295
f 333 334 295
f 334 305 295
f 305 334 335
f 346 381 317
f 336 337 299
f 348 318 301
f 301 308 348
f 302 339 308
f 338 339 302
f 311 312 356
f 349 338 304
f 311 327 319
f 327 311 357
f 269 360 321
f 330 322 361
f 331 290 330
f 325 332 324
f 332 294 324
f 333 294 332
f 335 369 307
f 307 336 299
f 337 354 326
f 285 370 312
f 285 318 370
f 370 356 312
f 350 314 327
f 397 268 253
f 358 314 350
f 321 360 414
f 322 288 352
f 330 361 362
f 330 362 331
f 331 362 325
f 332 344 345
f 333 332 345
f 345 334 333
f 345 369 335
f 334 345 335
f 369 336 307
f 336 347 337
f 326 368 297
f 339 338 340
f 356 341 311
f 357 311 341
f 375 320 385
f 357 350 327
f 352 288 351
f 291 484 176
f 343 325 362
f 259 404 247
f 343 332 325
f 259 316 404
f 344 332 343
f 306 368 365
f 347 354 337
f 354 368 326
f 393 348 308
f 370 318 348
f 349 340 338
f 304 320 373
f 375 373 320
f 388 322 352
f 405 344 343
f 405 353 344
f 353 363 344
f 418 346 306
f 344 363 345
f 345 363 369
f 382 368 354
f 355 339 340
f 377 358 350
f 359 351 358
f 352 351 359
f 361 322 391
f 176 403 329
f 362 392 343
f 404 316 471
f 353 428 364
f 364 363 353
f 365 429 306
f 306 429 418
f 364 366 363
f 367 363 366
f 369 363 367
f 369 431 336
f 336 383 347
f 431 383 336
f 371 393 308
f 308 339 371
f 393 370 348
f 371 339 355
f 384 356 370
f 384 341 356
f 384 396 341
f 372 409 340
f 372 340 349
f 396 357 341
f 304 373 349
f 357 396 374
f 374 350 357
f 350 374 376
f 268 422 385
f 377 350 376
f 377 359 358
f 378 359 377
f 378 352 359
f 388 352 378
f 391 322 388
f 342 379 390
f 329 379 342
f 329 380 379
f 291 469 484
f 317 381 441
f 428 353 405
f 381 346 418
f 354 347 382
f 382 365 368
f 367 431 369
f 383 407 347
f 393 394 370
f 394 384 370
f 340 409 355
f 395 396 384
f 410 372 349
f 373 410 349
f 376 374 386
f 268 423 422
f 387 377 376
f 397 423 268
f 397 414 437
f 387 378 377
f 398 378 387
f 389 378 398
f 389 388 378
f 391 388 389
f 392 362 361
f 469 291 258
f 247 404 258
f 449 343 392
f 449 405 343
f 382 419 365
f 431 406 383
f 347 407 382
f 408 394 393
f 408 393 371
f 394 408 384
f 395 412 396
f 410 373 411
f 386 374 396
f 375 411 373
f 422 375 385
f 413 387 386
f 386 387 376
f 413 398 387
f 413 399 398
f 401 398 399
f 401 389 398
f 401 391 389
f 427 416 255
f 427 255 400
f 390 400 255
f 390 402 400
f 379 402 390
f 438 391 401
f 401 415 438
f 438 361 391
f 428 405 417
f 419 429 365
f 366 430 367
f 430 431 367
f 371 421 408
f 408 421 420
f 355 421 371
f 433 421 355
f 384 408 434
f 433 355 409
f 384 434 395
f 372 454 409
f 410 411 444
f 412 386 396
f 386 412 424
f 386 424 413
f 423 397 436
f 437 436 397
f 399 413 426
f 401 399 415
f 399 426 415
f 447 402 379
f 380 447 379
f 439 392 361
f 449 392 448
f 316 317 471
f 442 381 418
f 451 418 429
f 407 463 382
f 382 463 419
f 408 420 434
f 434 445 395
f 395 445 412
f 412 445 435
f 446 411 375
f 412 435 424
f 375 422 446
f 426 413 424
f 414 360 425
f 360 416 425
f 425 416 427
f 426 482 415
f 468 438 415
f 329 403 380
f 438 439 361
f 448 392 439
f 258 440 469
f 404 440 258
f 440 404 471
f 417 405 449
f 441 381 442
f 442 418 451
f 462 364 428
f 462 366 364
f 406 407 383
f 420 432 434
f 453 420 421
f 433 453 421
f 454 433 409
f 443 434 432
f 444 372 410
f 434 443 445
f 444 411 507
f 446 422 423
f 457 424 435
f 458 436 437
f 437 414 479
f 414 425 479
f 424 467 426
f 426 467 482
f 400 481 427
f 447 497 402
f 400 402 497
f 484 403 176
f 438 468 439
f 450 449 448
f 449 450 417
f 441 459 317
f 428 417 460
f 460 462 428
f 451 488 442
f 463 489 419
f 419 451 429
f 489 451 419
f 464 431 430
f 464 406 431
f 406 464 407
f 453 432 420
f 453 433 454
f 455 454 372
f 444 455 372
f 465 445 443
f 446 507 411
f 445 465 435
f 457 467 424
f 425 466 479
f 425 427 466
f 481 400 497
f 468 415 482
f 468 448 439
f 459 471 317
f 417 450 460
f 459 441 461
f 441 442 461
f 462 430 366
f 462 464 430
f 464 506 407
f 407 506 463
f 453 452 432
f 475 443 432
f 475 432 452
f 456 435 465
f 456 457 435
f 456 480 457
f 437 479 458
f 457 480 467
f 481 466 427
f 380 403 447
f 448 468 485
f 450 448 485
f 440 470 469
f 440 471 500
f 460 502 462
f 453 474 452
f 453 454 474
f 474 454 455
f 476 474 455
f 477 476 455
f 477 455 444
f 444 507 477
f 465 443 475
f 465 492 456
f 492 495 456
f 526 468 482
f 483 497 447
f 403 483 447
f 485 512 450
f 440 500 470
f 486 460 450
f 486 487 460
f 459 461 472
f 442 488 461
f 462 502 505
f 505 473 462
f 473 464 462
f 506 504 463
f 504 489 463
f 490 475 452
f 491 465 475
f 465 491 492
f 493 507 446
f 446 423 493
f 478 493 423
f 478 423 436
f 479 494 458
f 481 497 496
f 485 468 526
f 486 450 512
f 471 501 500
f 502 460 487
f 471 459 501
f 459 472 501
f 517 488 451
f 451 489 517
f 473 506 464
f 452 476 490
f 452 474 476
f 475 490 547
f 436 458 478
f 478 458 494
f 495 480 456
f 479 466 494
f 494 466 496
f 466 481 496
f 496 497 555
f 523 482 467
f 483 524 497
f 524 522 497
f 526 482 523
f 484 498 403
f 484 499 498
f 512 485 526
f 469 499 484
f 470 499 469
f 515 500 501
f 503 472 461
f 544 503 488
f 461 488 503
f 517 489 504
f 473 546 506
f 490 476 477
f 547 491 475
f 493 508 507
f 478 494 509
f 520 509 494
f 496 520 494
f 521 520 496
f 480 495 583
f 554 467 480
f 554 480 583
f 554 523 467
f 497 522 555
f 403 510 483
f 498 510 403
f 498 511 510
f 499 511 498
f 499 513 511
f 487 486 514
f 470 513 499
f 470 539 513
f 515 539 500
f 470 500 539
f 515 501 542
f 514 502 487
f 501 472 542
f 514 540 502
f 542 472 503
f 542 503 516
f 505 502 540
f 544 516 503
f 517 544 488
f 505 546 473
f 546 545 506
f 506 545 504
f 477 580 490
f 580 477 548
f 508 477 507
f 491 518 492
f 492 550 551
f 495 492 551
f 509 549 493
f 509 493 478
f 520 519 509
f 553 520 521
f 555 521 496
f 523 587 525
f 522 524 562
f 510 524 483
f 510 527 524
f 523 525 526
f 527 511 528
f 527 510 511
f 532 530 528
f 511 532 528
f 533 512 526
f 513 532 511
f 486 512 533
f 537 534 529
f 535 529 531
f 535 531 530
f 536 534 537
f 535 537 529
f 539 530 532
f 513 539 532
f 486 533 514
f 514 533 568
f 541 571 536
f 541 536 537
f 538 535 530
f 538 530 539
f 538 537 535
f 541 537 538
f 538 539 515
f 542 538 515
f 542 541 538
f 516 541 542
f 544 543 516
f 543 576 516
f 516 576 541
f 540 574 505
f 517 504 545
f 544 517 545
f 505 574 546
f 580 547 490
f 508 548 477
f 580 548 599
f 491 547 518
f 548 508 581
f 549 581 508
f 493 549 508
f 550 492 518
f 519 549 509
f 553 582 552
f 553 552 520
f 552 519 520
f 583 495 551
f 521 584 553
f 555 556 584
f 555 584 521
f 587 523 554
f 559 556 555
f 557 559 555
f 522 557 555
f 587 558 525
f 564 589 556
f 564 556 561
f 561 556 559
f 562 557 522
f 560 559 557
f 561 559 560
f 560 557 562
f 527 562 524
f 563 525 558
f 531 561 560
f 563 526 525
f 591 589 564
f 530 560 528
f 560 562 528
f 528 562 527
f 531 560 530
f 563 533 526
f 534 564 561
f 529 561 531
f 567 591 564
f 567 564 534
f 534 561 529
f 533 563 568
f 565 591 567
f 566 594 565
f 536 567 534
f 566 569 594
f 566 565 567
f 540 568 596
f 570 566 571
f 571 567 536
f 571 566 567
f 568 540 514
f 540 596 597
f 572 573 569
f 572 569 566
f 572 566 570
f 574 540 597
f 577 597 573
f 574 597 577
f 541 570 571
f 572 577 573
f 576 570 541
f 575 577 572
f 575 572 570
f 575 570 576
f 578 577 575
f 578 575 579
f 544 579 543
f 579 576 543
f 579 575 576
f 546 574 577
f 546 577 578
f 545 578 579
f 545 579 544
f 546 578 545
f 580 518 547
f 548 581 599
f 599 581 601
f 549 519 581
f 581 519 552
f 551 550 583
f 584 602 582
f 584 582 553
f 585 602 584
f 585 603 602
f 585 584 556
f 583 586 554
f 587 554 586
f 585 604 603
f 556 589 585
f 588 604 585
f 588 585 589
f 558 587 592
f 590 588 591
f 591 588 589
f 592 563 558
f 565 590 591
f 593 563 592
f 594 590 565
f 593 568 563
f 593 596 568
f 593 595 596
f 596 595 597
f 573 597 595
f 573 594 569
f 573 595 594
f 580 608 518
f 607 518 608
f 598 550 518
f 518 607 598
f 599 608 580
f 581 600 601
f 552 600 581
f 582 600 552
f 582 601 600
f 602 603 601
f 602 601 582
f 550 586 583
f 610 603 604
f 611 610 604
f 605 587 586
f 605 592 587
f 606 605 611
f 590 611 604
f 590 604 588
f 593 592 605
f 590 606 611
f 593 605 606
f 594 606 590
f 593 606 595
f 595 606 594
f 599 609 608
f 601 609 599
f 609 607 608
f 603 609 601
f 598 607 550
f 550 607 612
f 603 610 609
f 610 607 609
f 612 607 610
f 612 586 550
f 611 612 610
f 611 605 612
f 612 605 586
# 1220 faces, 0 coords texture

# End of File
