####
#
# OBJ File Generated by Meshlab
#
####
# Object AL-DM3L.obj
#
# Vertices: 1287
# Faces: 2570
#
####
v 30142.332031 31814.945312 23186.279297
v 30184.818359 31660.667969 23243.544922
v 30164.275391 31762.197266 23195.349609
v 30235.371094 31777.697266 23192.177734
v 30662.357422 31212.511719 23266.855469
v 30550.660156 31190.525391 23260.046875
v 30883.431641 31561.070312 23251.414062
v 30131.501953 31608.710938 23262.078125
v 30979.990234 31565.232422 23248.564453
v 30204.980469 31620.927734 23271.361328
v 30080.552734 31796.830078 23218.646484
v 30400.566406 30878.957031 23325.498047
v 30468.152344 30985.142578 23302.558594
v 30408.751953 30966.351562 23310.304688
v 30537.142578 31111.324219 23269.904297
v 30555.222656 30975.185547 23313.333984
v 30671.673828 31067.283203 23302.970703
v 30422.980469 31080.892578 23280.599609
v 30734.019531 31139.691406 23293.933594
v 30193.554688 31402.234375 23304.441406
v 30316.232422 31312.789062 23294.427734
v 30419.957031 31336.554688 23280.363281
v 30841.587891 31316.462891 23275.656250
v 30233.031250 31462.302734 23293.238281
v 30324.857422 31398.027344 23290.931641
v 30565.201172 31363.964844 23269.283203
v 30519.753906 31240.914062 23261.179688
v 30877.248047 31268.560547 23287.869141
v 30452.601562 31436.349609 23282.990234
v 30707.667969 31365.865234 23264.363281
v 30754.419922 31330.718750 23265.998047
v 31242.976562 31429.984375 23318.935547
v 31237.404297 31340.076172 23342.396484
v 30344.935547 31494.503906 23292.511719
v 30987.589844 31404.824219 23278.970703
v 31123.884766 31419.656250 23296.267578
v 30308.767578 31557.531250 23303.337891
v 30393.496094 31554.876953 23304.970703
v 30470.386719 31530.595703 23293.699219
v 30709.955078 31444.199219 23265.205078
v 30607.462891 31494.541016 23276.142578
v 30828.921875 31495.214844 23257.355469
v 30848.017578 31429.886719 23263.816406
v 30472.496094 31593.548828 23311.447266
v 31239.433594 31524.451172 23299.552734
v 30249.138672 31590.230469 23302.042969
v 30586.544922 31585.994141 23292.148438
v 31082.914062 31516.312500 23271.980469
v 31134.904297 31576.371094 23273.250000
v 30158.173828 31512.986328 23287.156250
v 30235.111328 31539.513672 23287.240234
v 30718.179688 31584.339844 23273.046875
v 30937.113281 31703.755859 23263.396484
v 30083.097656 31689.679688 23241.707031
v 31091.914062 31646.955078 23264.505859
v 30749.750000 31688.710938 23286.007812
v 30888.351562 31810.105469 23286.558594
v 31232.812500 31650.433594 23286.746094
v 31228.125000 31758.191406 23290.302734
v 31094.019531 31769.689453 23273.207031
v 31232.800781 31907.533203 23305.367188
v 30851.671875 31898.414062 23315.123047
v 31032.484375 31823.888672 23279.203125
v 31014.871094 31899.046875 23294.289062
v 31130.332031 31997.746094 23311.210938
v 30351.203125 30743.453125 23369.605469
v 30267.052734 30701.691406 23393.818359
v 30248.890625 30815.193359 23383.083984
v 30311.628906 30974.988281 23335.113281
v 30351.935547 30964.119141 23322.416016
v 30492.283203 30848.501953 23340.982422
v 30362.869141 31227.412109 23288.134766
v 30899.898438 31195.117188 23310.507812
v 30139.904297 31341.529297 23327.820312
v 30232.251953 31290.433594 23315.189453
v 31072.882812 31309.439453 23312.027344
v 30088.376953 31405.166016 23323.835938
v 31378.255859 31451.660156 23344.871094
v 31485.857422 31498.093750 23363.607422
v 31318.564453 31571.548828 23309.142578
v 30308.728516 31596.943359 23341.582031
v 30396.359375 31597.820312 23327.562500
v 30012.531250 31417.816406 23343.000000
v 30063.890625 31556.183594 23293.138672
v 30587.697266 31664.160156 23312.955078
v 30191.919922 31656.119141 23285.335938
v 31530.273438 31631.455078 23361.638672
v 30036.636719 31624.921875 23294.783203
v 30523.031250 31681.269531 23339.466797
v 31407.537109 31633.166016 23324.060547
v 30671.753906 31722.710938 23308.941406
v 30159.388672 31665.666016 23301.677734
v 30621.496094 31797.279297 23354.060547
v 30163.638672 31795.240234 23218.533203
v 31383.953125 31740.109375 23319.945312
v 30719.070312 31824.705078 23327.882812
v 30820.652344 32015.746094 23362.277344
v 31178.949219 31930.076172 23301.638672
v 30926.093750 32050.515625 23345.990234
v 30979.880859 31997.134766 23318.414062
v 31034.160156 32002.705078 23315.306641
v 30350.068359 30632.085938 23410.820312
v 30421.748047 30661.025391 23406.986328
v 30533.707031 30794.324219 23372.156250
v 30667.312500 30975.601562 23334.089844
v 30878.775391 31131.300781 23327.443359
v 30282.689453 31125.664062 23324.216797
v 30201.210938 31221.818359 23339.859375
v 30356.613281 31162.017578 23293.021484
v 31079.978516 31259.433594 23329.265625
v 31086.359375 31188.375000 23358.937500
v 31502.935547 31397.337891 23395.015625
v 31560.232422 31459.058594 23395.519531
v 29978.423828 31443.527344 23365.107422
v 30003.642578 31533.919922 23326.900391
v 31574.820312 31559.820312 23384.265625
v 30206.037109 31610.439453 23336.718750
v 30385.050781 31641.671875 23367.033203
v 30051.263672 31674.830078 23285.257812
v 31675.615234 31658.478516 23412.617188
v 31504.751953 31734.185547 23349.156250
v 30505.826172 31788.904297 23409.970703
v 30551.392578 31780.429688 23378.876953
v 30649.357422 31918.050781 23393.265625
v 31388.064453 31881.580078 23329.445312
v 31303.550781 32017.765625 23334.076172
v 30744.757812 32004.722656 23385.667969
v 31456.390625 32013.630859 23364.439453
v 30979.496094 32204.593750 23384.658203
v 31061.363281 32259.605469 23393.316406
v 31079.605469 32124.078125 23344.552734
v 31194.183594 32095.044922 23337.875000
v 30172.587891 30673.765625 23436.781250
v 30227.392578 30895.808594 23388.859375
v 30247.017578 31023.158203 23359.281250
v 30831.273438 30969.037109 23380.757812
v 30821.759766 31037.074219 23349.316406
v 30191.232422 31164.519531 23360.412109
v 30129.287109 31235.517578 23367.255859
v 31055.222656 31094.265625 23391.582031
v 30005.564453 31347.099609 23378.439453
v 31642.263672 31492.015625 23417.496094
v 29982.849609 31494.250000 23372.318359
v 30464.570312 31702.550781 23375.835938
v 30094.365234 31653.974609 23317.177734
v 30397.275391 31720.734375 23443.392578
v 31607.775391 31882.201172 23391.689453
v 30544.046875 31868.197266 23431.162109
v 31496.384766 31876.255859 23354.109375
v 31565.283203 31963.982422 23382.769531
v 30903.582031 32203.164062 23398.791016
v 30838.886719 32284.791016 23443.027344
v 31279.777344 32090.623047 23344.935547
v 31392.699219 32163.216797 23389.064453
v 31499.441406 32083.761719 23396.009766
v 30982.878906 32347.322266 23429.306641
v 31263.261719 32195.103516 23372.445312
v 31152.697266 32214.492188 23374.015625
v 30283.976562 30640.863281 23409.042969
v 30514.001953 30658.472656 23427.119141
v 30659.470703 30858.998047 23378.652344
v 30161.841797 31053.171875 23413.603516
v 30982.216797 30977.339844 23426.085938
v 30136.904297 31157.367188 23400.410156
v 30079.679688 31236.816406 23399.328125
v 31303.832031 31211.351562 23408.410156
v 31287.146484 31283.757812 23374.626953
v 31364.609375 31190.806641 23436.806641
v 31459.054688 31344.996094 23397.601562
v 31610.789062 31411.341797 23424.421875
v 31746.095703 31576.367188 23443.712891
v 30187.419922 31580.066406 23404.671875
v 30278.939453 31605.091797 23372.699219
v 30335.765625 31662.121094 23439.339844
v 31727.582031 31748.242188 23439.498047
v 30602.177734 31991.037109 23450.519531
v 30666.267578 32056.501953 23440.443359
v 31680.398438 31947.968750 23436.664062
v 31588.166016 32024.904297 23410.851562
v 31604.871094 32147.035156 23450.445312
v 31507.632812 32198.267578 23431.429688
v 31182.468750 32282.015625 23402.292969
v 31276.554688 32234.337891 23389.064453
v 31348.664062 32336.134766 23449.296875
v 31384.382812 32242.765625 23413.226562
v 31509.687500 32256.615234 23454.656250
v 31474.414062 32321.259766 23473.197266
v 31209.486328 32354.816406 23438.728516
v 30011.923828 30018.042969 23507.138672
v 29956.287109 30133.599609 23469.734375
v 30183.710938 30234.076172 23484.619141
v 29941.287109 30190.064453 23473.388672
v 30033.888672 30228.289062 23467.976562
v 30024.626953 30307.318359 23469.230469
v 30339.021484 30466.132812 23461.675781
v 30462.162109 30530.464844 23469.460938
v 30381.154297 30547.484375 23442.271484
v 30215.443359 30633.841797 23423.718750
v 30149.841797 30581.867188 23450.990234
v 30574.490234 30565.162109 23493.427734
v 30126.279297 30718.689453 23463.128906
v 30172.671875 30919.263672 23425.812500
v 30018.160156 31292.230469 23419.640625
v 31608.125000 31309.996094 23468.310547
v 29977.820312 31384.066406 23405.414062
v 31848.542969 31546.126953 23496.996094
v 30119.517578 31576.949219 23384.908203
v 31769.300781 31617.822266 23450.070312
v 30030.015625 31563.988281 23361.337891
v 30264.365234 31605.798828 23416.816406
v 31819.714844 31717.593750 23485.406250
v 30467.289062 31824.066406 23463.541016
v 31750.302734 31880.769531 23464.097656
v 31680.464844 32085.750000 23466.537109
v 31618.228516 32219.632812 23479.091797
v 30939.490234 32388.460938 23451.806641
v 31299.957031 32407.640625 23488.095703
v 31046.998047 32390.263672 23443.941406
v 31185.931641 32420.572266 23471.199219
v 31317.882812 32435.091797 23520.896484
v 30982.558594 32439.105469 23476.753906
v 31105.089844 32439.482422 23474.068359
v 31127.179688 32473.199219 23508.328125
v 30962.027344 32468.771484 23506.761719
v 30057.435547 30037.746094 23507.619141
v 29953.958984 30033.517578 23508.718750
v 29872.908203 30128.382812 23503.808594
v 30105.062500 30380.144531 23459.878906
v 29897.044922 30179.611328 23485.914062
v 30162.255859 30440.048828 23451.847656
v 30139.025391 30302.669922 23466.337891
v 30268.009766 30479.630859 23448.396484
v 30288.261719 30375.082031 23475.566406
v 30259.945312 30541.968750 23434.312500
v 30201.732422 30547.917969 23439.103516
v 30103.021484 30629.708984 23474.425781
v 30750.417969 30832.750000 23419.871094
v 30110.357422 30947.595703 23483.224609
v 30118.427734 31057.931641 23463.285156
v 30108.259766 31137.806641 23447.857422
v 30076.253906 31210.710938 23439.943359
v 31784.777344 31481.886719 23477.402344
v 31881.242188 31644.525391 23514.777344
v 30217.978516 31579.664062 23456.892578
v 30259.630859 31614.058594 23482.054688
v 31880.085938 31820.765625 23534.419922
v 30495.810547 31940.470703 23509.230469
v 31806.386719 32071.787109 23528.205078
v 31692.251953 32232.464844 23520.449219
v 30806.250000 32324.867188 23469.671875
v 31439.548828 32380.904297 23501.511719
v 30867.693359 32436.931641 23507.535156
v 30854.175781 32502.292969 23593.394531
v 30039.302734 30001.210938 23529.277344
v 30254.769531 30246.644531 23500.509766
v 29884.652344 30226.572266 23511.218750
v 30030.742188 30418.179688 23483.392578
v 29930.755859 30319.230469 23508.849609
v 29993.892578 30467.644531 23513.132812
v 30107.892578 30479.064453 23463.771484
v 30071.923828 30537.994141 23482.857422
v 30056.916016 30655.806641 23507.736328
v 30091.830078 30803.134766 23494.962891
v 30758.527344 30728.212891 23477.958984
v 31146.236328 30980.562500 23479.894531
v 30083.603516 31184.220703 23490.804688
v 30068.386719 31244.232422 23473.337891
v 30081.244141 31296.648438 23519.474609
v 30054.810547 31338.511719 23473.958984
v 30094.882812 31379.281250 23518.427734
v 30108.625000 31457.210938 23486.568359
v 30150.513672 31480.960938 23533.550781
v 31723.080078 31384.025391 23483.275391
v 30060.531250 31443.357422 23448.781250
v 30078.751953 31526.574219 23411.621094
v 30129.396484 31529.669922 23441.287109
v 30164.691406 31536.853516 23466.503906
v 31857.564453 31418.515625 23536.132812
v 30326.048828 31685.226562 23491.554688
v 30369.558594 31763.896484 23519.613281
v 31810.041016 31954.230469 23508.023438
v 30733.779297 32209.351562 23457.066406
v 31799.669922 32248.523438 23604.054688
v 31543.101562 32360.947266 23535.882812
v 30802.451172 32398.111328 23507.240234
v 31263.746094 32482.714844 23563.312500
v 31163.013672 32492.619141 23548.062500
v 30155.859375 30097.123047 23520.074219
v 29880.320312 30282.634766 23551.005859
v 30408.730469 30425.718750 23494.572266
v 30981.535156 30839.560547 23501.093750
v 30074.349609 31189.808594 23568.324219
v 30080.185547 31239.699219 23527.550781
v 31619.632812 31217.503906 23524.484375
v 31766.582031 31329.921875 23531.275391
v 30199.000000 31553.949219 23521.537109
v 31968.513672 31534.792969 23573.896484
v 30219.986328 31588.296875 23572.589844
v 31951.228516 31674.917969 23567.468750
v 30411.707031 31834.521484 23528.679688
v 31936.281250 31853.095703 23578.308594
v 31868.976562 32018.193359 23558.080078
v 30748.208984 32418.150391 23551.310547
v 31494.822266 32425.181641 23588.732422
v 31379.945312 32446.634766 23561.978516
v 30234.187500 30098.921875 23572.066406
v 29874.285156 30144.164062 23538.660156
v 30269.648438 30175.138672 23542.294922
v 29867.496094 30227.023438 23542.789062
v 30399.244141 30361.121094 23517.226562
v 29927.683594 30473.435547 23586.480469
v 30502.181641 30402.480469 23545.199219
v 30659.796875 30585.699219 23517.339844
v 30051.271484 30812.386719 23535.527344
v 31260.130859 30950.123047 23539.578125
v 30087.652344 31098.191406 23512.357422
v 31508.039062 31135.640625 23524.550781
v 31789.056641 31251.935547 23578.923828
v 31927.808594 31454.839844 23560.039062
v 31968.769531 31453.955078 23587.812500
v 32017.439453 31678.517578 23620.574219
v 32031.375000 31770.820312 23637.150391
v 31897.175781 32091.912109 23597.914062
v 31998.955078 31862.417969 23628.728516
v 30630.271484 32156.929688 23504.435547
v 31794.994141 32178.072266 23559.740234
v 30729.490234 32321.326172 23509.500000
v 31551.470703 32331.572266 23510.373047
v 31586.164062 32403.429688 23623.156250
v 30917.617188 32535.496094 23625.464844
v 30993.091797 32508.695312 23563.603516
v 30143.402344 30062.931641 23581.765625
v 29940.203125 30048.666016 23531.814453
v 29994.419922 30035.648438 23554.470703
v 30411.933594 30248.804688 23587.085938
v 30253.720703 30101.515625 23590.468750
v 30410.660156 30291.728516 23558.642578
v 30633.601562 30482.500000 23564.625000
v 29938.326172 30437.015625 23549.210938
v 29959.851562 30578.871094 23579.839844
v 30738.349609 30522.914062 23590.878906
v 29999.044922 30646.083984 23555.849609
v 30005.992188 30777.597656 23576.818359
v 30880.386719 30668.630859 23562.591797
v 30065.750000 31074.443359 23557.462891
v 31675.169922 31157.414062 23580.207031
v 30090.994141 31291.650391 23579.542969
v 31912.968750 31314.541016 23609.212891
v 30135.697266 31434.933594 23575.353516
v 30221.138672 31629.271484 23670.183594
v 32019.093750 31553.750000 23613.910156
v 30270.791016 31644.937500 23536.076172
v 30352.570312 31816.236328 23593.798828
v 30397.460938 31952.447266 23630.072266
v 30468.500000 32035.486328 23592.042969
v 30542.410156 32036.402344 23518.605469
v 32007.628906 31951.369141 23658.447266
v 30512.115234 32163.585938 23611.164062
v 30596.103516 32245.406250 23572.511719
v 30610.626953 32325.431641 23604.621094
v 31410.191406 32475.607422 23624.996094
v 31240.509766 32529.912109 23647.281250
v 30780.654297 32494.035156 23615.462891
v 31048.488281 32534.419922 23612.617188
v 30756.753906 32576.257812 23725.800781
v 30339.646484 30158.791016 23605.199219
v 30476.683594 30271.859375 23617.201172
v 30602.722656 30407.972656 23595.445312
v 31241.253906 30852.859375 23592.763672
v 31481.437500 31016.554688 23583.560547
v 30066.775391 30965.820312 23538.789062
v 30050.578125 31157.769531 23633.542969
v 30125.666016 31404.232422 23628.873047
v 32029.849609 31422.712891 23640.064453
v 32088.132812 31354.781250 23722.863281
v 30175.687500 31521.078125 23625.455078
v 32064.703125 31448.462891 23666.187500
v 32088.544922 31618.386719 23684.062500
v 30474.150391 32198.015625 23667.310547
v 31950.144531 32084.093750 23643.324219
v 31695.964844 32345.953125 23629.357422
v 31523.630859 32439.337891 23631.857422
v 30686.712891 32411.949219 23603.855469
v 30828.050781 32561.558594 23685.007812
v 30233.806641 30135.167969 23624.287109
v 30306.679688 30146.679688 23620.169922
v 29923.076172 30114.664062 23569.982422
v 30052.515625 30111.154297 23606.722656
v 30433.150391 30227.320312 23641.144531
v 30561.115234 30322.371094 23636.830078
v 29898.208984 30236.400391 23594.716797
v 30689.314453 30419.810547 23639.427734
v 29919.853516 30474.082031 23620.210938
v 29916.720703 30410.644531 23626.390625
v 30034.125000 30976.300781 23587.255859
v 29993.419922 30969.939453 23644.343750
v 31639.732422 31022.044922 23643.263672
v 31796.531250 31090.935547 23671.630859
v 30070.060547 31234.492188 23643.207031
v 30078.677734 31296.105469 23693.859375
v 31947.095703 31229.652344 23677.015625
v 32019.548828 31307.556641 23686.781250
v 30121.595703 31413.056641 23713.183594
v 32108.296875 31446.693359 23716.945312
v 30179.236328 31556.208984 23711.917969
v 30265.498047 31671.783203 23599.714844
v 32045.416016 31789.167969 23658.667969
v 30304.652344 31750.882812 23613.078125
v 30445.585938 32137.710938 23672.636719
v 31910.316406 32162.263672 23638.138672
v 30531.291016 32304.964844 23666.343750
v 30566.501953 32381.865234 23684.462891
v 30623.943359 32437.458984 23683.382812
v 31180.996094 32585.855469 23752.660156
v 30718.496094 32488.253906 23653.515625
v 30712.162109 32533.275391 23702.574219
v 30849.976562 32604.167969 23749.265625
v 30189.419922 30207.785156 23657.667969
v 30123.939453 30258.617188 23670.941406
v 30480.683594 30284.951172 23682.294922
v 30012.085938 30178.250000 23627.419922
v 30097.470703 30311.765625 23684.718750
v 30595.910156 30329.011719 23674.816406
v 30786.470703 30434.400391 23721.691406
v 29976.736328 30282.687500 23651.802734
v 30767.773438 30439.408203 23678.128906
v 29933.876953 30392.357422 23647.837891
v 30838.353516 30509.117188 23652.566406
v 30890.787109 30581.521484 23624.218750
v 29923.349609 30563.820312 23664.275391
v 31157.117188 30651.023438 23693.826172
v 29934.359375 30694.513672 23652.257812
v 31081.882812 30691.101562 23633.050781
v 31393.757812 30812.619141 23679.068359
v 30035.957031 31083.460938 23622.236328
v 32003.929688 31130.253906 23769.236328
v 32082.101562 31235.708984 23763.345703
v 32180.060547 31357.568359 23817.306641
v 30328.761719 31852.091797 23664.468750
v 31759.031250 32313.433594 23640.003906
v 31315.251953 32523.105469 23666.990234
v 30339.072266 30219.830078 23663.273438
v 30325.013672 30345.796875 23720.828125
v 30436.048828 30315.765625 23705.500000
v 30534.425781 30363.101562 23726.333984
v 30675.427734 30417.074219 23743.339844
v 30906.000000 30500.207031 23700.667969
v 29954.056641 30349.761719 23654.445312
v 30050.468750 30382.050781 23696.261719
v 30216.449219 30381.431641 23724.025391
v 30872.162109 30469.541016 23725.433594
v 30109.583984 30499.332031 23739.431641
v 30984.115234 30515.884766 23733.072266
v 29933.697266 30570.175781 23690.957031
v 29962.130859 30543.957031 23703.787109
v 31065.005859 30572.125000 23714.777344
v 29930.439453 30582.863281 23634.656250
v 29915.794922 30721.849609 23707.474609
v 29904.794922 30790.650391 23763.105469
v 29909.718750 30796.687500 23716.150391
v 29955.900391 30702.339844 23619.162109
v 31594.892578 30894.464844 23702.017578
v 31872.697266 31140.865234 23682.246094
v 29968.394531 31027.443359 23711.533203
v 31957.816406 31147.818359 23725.818359
v 29990.896484 31108.710938 23734.148438
v 32173.882812 31462.976562 23802.265625
v 32164.066406 31606.494141 23796.406250
v 32121.175781 31622.320312 23727.503906
v 30267.777344 31757.757812 23707.152344
v 32082.148438 31836.996094 23717.869141
v 30491.027344 32323.664062 23730.210938
v 31989.308594 32115.806641 23701.294922
v 31919.511719 32215.412109 23688.007812
v 30542.269531 32402.107422 23736.529297
v 30625.792969 32497.941406 23743.623047
v 31072.394531 32577.988281 23705.117188
v 30927.921875 32636.023438 23805.441406
v 30431.820312 30489.537109 23783.523438
v 30775.521484 30441.031250 23743.291016
v 30298.630859 30529.023438 23781.882812
v 31114.593750 30547.250000 23773.839844
v 30007.943359 30521.619141 23717.035156
v 31183.066406 30584.917969 23757.574219
v 29924.468750 30683.314453 23723.220703
v 31297.167969 30652.968750 23754.550781
v 31395.228516 30737.625000 23731.435547
v 31544.287109 30800.203125 23744.521484
v 29952.115234 30876.169922 23668.650391
v 29917.998047 30990.808594 23772.697266
v 32113.531250 31212.142578 23820.080078
v 32200.316406 31604.082031 23870.388672
v 30142.265625 31487.369141 23823.412109
v 30192.181641 31643.421875 23844.861328
v 30295.191406 31867.800781 23746.847656
v 30349.984375 31949.117188 23698.990234
v 32043.349609 32003.919922 23713.449219
v 32043.509766 32133.986328 23781.019531
v 31840.103516 32366.173828 23774.273438
v 31885.914062 32303.298828 23742.302734
v 30563.681641 32465.326172 23789.968750
v 31568.937500 32489.113281 23761.373047
v 30672.820312 32568.732422 23795.162109
v 30801.498047 32606.695312 23765.730469
v 30933.792969 30492.736328 23769.505859
v 30500.062500 30425.617188 23760.429688
v 30759.726562 30479.750000 23783.607422
v 30388.150391 30559.214844 23805.503906
v 30177.664062 30645.082031 23798.191406
v 31448.740234 30693.587891 23787.185547
v 29985.167969 30674.644531 23753.099609
v 31694.066406 30871.302734 23754.359375
v 29876.919922 30846.693359 23768.123047
v 31846.031250 30934.279297 23783.986328
v 29888.414062 30918.636719 23775.517578
v 31748.234375 30936.414062 23736.757812
v 31929.320312 30992.251953 23797.923828
v 32035.152344 31057.279297 23869.902344
v 30020.671875 31186.419922 23747.435547
v 32157.779297 31282.531250 23829.191406
v 32204.269531 31510.460938 23871.644531
v 32186.900391 31700.007812 23865.548828
v 30214.429688 31680.259766 23781.878906
v 32144.966797 31729.677734 23787.107422
v 32120.820312 31871.048828 23787.333984
v 30291.117188 32000.525391 23864.833984
v 30374.226562 32100.482422 23767.523438
v 32089.658203 31971.773438 23767.914062
v 32093.195312 32059.433594 23816.201172
v 30399.466797 32222.425781 23827.800781
v 31986.515625 32192.558594 23747.908203
v 31714.253906 32427.972656 23760.404297
v 30623.695312 32547.718750 23840.111328
v 30764.101562 32618.021484 23817.054688
v 30638.306641 30461.535156 23777.636719
v 30959.863281 30521.931641 23805.662109
v 30590.152344 30515.490234 23806.628906
v 31023.453125 30516.152344 23767.732422
v 30515.658203 30562.414062 23822.689453
v 31082.484375 30549.134766 23827.023438
v 30463.562500 30648.021484 23853.548828
v 30558.037109 30644.185547 23867.869141
v 31457.226562 30653.996094 23823.648438
v 31595.175781 30720.621094 23817.566406
v 30285.400391 30626.326172 23812.916016
v 31776.517578 30721.365234 23878.291016
v 30069.474609 30690.558594 23784.968750
v 31850.666016 30844.939453 23839.228516
v 29947.902344 30894.082031 23816.634766
v 29914.214844 30975.830078 23808.578125
v 29927.208984 31048.152344 23825.119141
v 29983.365234 31139.025391 23803.091797
v 30058.761719 31281.398438 23773.939453
v 30094.951172 31363.232422 23807.154297
v 32204.386719 31379.039062 23864.421875
v 30175.800781 31594.363281 23886.025391
v 30255.359375 31810.037109 23797.615234
v 32039.886719 32211.406250 23835.587891
v 30485.220703 32370.785156 23817.515625
v 31246.644531 32657.201172 23931.654297
v 30754.646484 32643.003906 23915.068359
v 30838.896484 32669.285156 23897.898438
v 30853.177734 30491.955078 23785.964844
v 30701.453125 30540.910156 23828.287109
v 30887.765625 30544.691406 23836.083984
v 30797.539062 30540.281250 23831.111328
v 30994.687500 30558.714844 23851.369141
v 30642.626953 30597.167969 23855.318359
v 31209.375000 30570.583984 23829.869141
v 31190.630859 30566.845703 23853.587891
v 31349.050781 30629.906250 23804.662109
v 31459.050781 30616.035156 23860.162109
v 30401.058594 30712.408203 23869.986328
v 30192.765625 30743.185547 23835.435547
v 31924.607422 30914.757812 23850.072266
v 32015.300781 31071.355469 23824.248047
v 30011.871094 31196.515625 23838.335938
v 32140.275391 31182.941406 23897.507812
v 32229.052734 31421.669922 23932.882812
v 30107.294922 31378.496094 23853.984375
v 32123.275391 31996.023438 23840.111328
v 32083.443359 32160.726562 23863.183594
v 31990.427734 32282.246094 23833.312500
v 30404.486328 32295.865234 23956.111328
v 31912.595703 32367.376953 23851.664062
v 31976.630859 32342.705078 23890.720703
v 31841.058594 32422.683594 23860.029297
v 31727.707031 32475.310547 23851.671875
v 31677.179688 32540.529297 23933.250000
v 31408.039062 32539.855469 23758.396484
v 31085.878906 32628.433594 23813.960938
v 30719.089844 32632.902344 23958.066406
v 31453.412109 30569.958984 23909.582031
v 31628.921875 30645.792969 23882.037109
v 31087.630859 30571.314453 23877.839844
v 31292.093750 30601.601562 23811.675781
v 31336.960938 30577.324219 23875.933594
v 30679.738281 30683.896484 23912.089844
v 30788.408203 30635.271484 23899.125000
v 31720.351562 30667.531250 23894.507812
v 30537.244141 30726.767578 23906.707031
v 30316.214844 30780.263672 23879.761719
v 31909.105469 30807.279297 23915.076172
v 31968.650391 30939.726562 23884.724609
v 29992.595703 31142.789062 23876.826172
v 32206.005859 31266.832031 23934.330078
v 30069.433594 31291.607422 23859.269531
v 30154.398438 31502.345703 23906.214844
v 32207.080078 31651.343750 23920.361328
v 32165.376953 31827.744141 23852.957031
v 30400.453125 32194.912109 23792.056641
v 32148.300781 32059.857422 23926.208984
v 31582.632812 32570.652344 23927.998047
v 31365.652344 32613.591797 23893.021484
v 30907.341797 30589.089844 23878.576172
v 31150.583984 30586.007812 23913.070312
v 31254.800781 30568.154297 23890.402344
v 31008.966797 30605.455078 23908.902344
v 30896.210938 30634.074219 23917.058594
v 30753.021484 30738.964844 23964.779297
v 30480.355469 30793.863281 23927.949219
v 30171.154297 30867.806641 23875.130859
v 30101.156250 30938.080078 23879.246094
v 29963.507812 30992.912109 23848.458984
v 32042.136719 31020.179688 23939.091797
v 30096.884766 31095.439453 23922.050781
v 30116.136719 31336.767578 23919.537109
v 32218.876953 31291.576172 23965.837891
v 30182.632812 31601.675781 23955.035156
v 30221.902344 31764.634766 23864.384766
v 32171.988281 31924.142578 23922.117188
v 32118.636719 32172.392578 23933.453125
v 30457.472656 32372.380859 23950.691406
v 30548.658203 32472.121094 23847.035156
v 31519.195312 32547.849609 23844.082031
v 30600.666016 32534.898438 23912.511719
v 31421.332031 30557.623047 23930.714844
v 31510.986328 30595.537109 23979.226562
v 31610.605469 30602.726562 23930.820312
v 31692.093750 30615.976562 23942.066406
v 31116.441406 30631.810547 23959.531250
v 31311.820312 30570.455078 23933.068359
v 31006.646484 30657.695312 23960.033203
v 31827.257812 30652.312500 23957.158203
v 31863.421875 30723.917969 23930.802734
v 30762.933594 30813.955078 24019.419922
v 30398.027344 30910.712891 23960.779297
v 30402.837891 30845.031250 23931.843750
v 31943.140625 30810.587891 23975.255859
v 32156.748047 31156.482422 23985.416016
v 30028.652344 31116.187500 23896.402344
v 30084.140625 31278.753906 23900.582031
v 32222.433594 31523.511719 23935.853516
v 30154.220703 31462.242188 23937.283203
v 30214.414062 31815.138672 23957.503906
v 30253.751953 31941.470703 23918.791016
v 30310.300781 32127.966797 23965.818359
v 30515.025391 32445.546875 23963.226562
v 30587.591797 32524.509766 23971.722656
v 30940.505859 32686.269531 23906.111328
v 30921.011719 32716.171875 23993.687500
v 31620.550781 30599.117188 23960.822266
v 31401.300781 30585.207031 23963.179688
v 31791.542969 30606.664062 23978.324219
v 31890.923828 30632.064453 24003.787109
v 31086.949219 30712.566406 24032.904297
v 30850.460938 30776.365234 24019.136719
v 30965.400391 30810.845703 24083.117188
v 31915.021484 30735.605469 23974.431641
v 30573.482422 30845.402344 23981.664062
v 31979.685547 30910.572266 23943.966797
v 31954.238281 30847.060547 24013.550781
v 30311.406250 30967.736328 23957.656250
v 30106.667969 31250.107422 23933.228516
v 30155.289062 31404.558594 23962.203125
v 32224.792969 31596.773438 24004.689453
v 30198.564453 31697.113281 23931.304688
v 32210.224609 31799.230469 24009.728516
v 32196.730469 31817.818359 23946.027344
v 30287.234375 32062.828125 23955.226562
v 30399.767578 32259.685547 23890.394531
v 32198.867188 31931.298828 24024.527344
v 32199.996094 32034.042969 24077.746094
v 32153.988281 32161.009766 24007.367188
v 32081.292969 32256.257812 23943.771484
v 31732.253906 30606.134766 23999.640625
v 31264.250000 30628.820312 23990.421875
v 30922.750000 30705.935547 23981.886719
v 30638.109375 30777.597656 23959.652344
v 30310.478516 31064.361328 23994.917969
v 30162.722656 31024.992188 23927.960938
v 30169.048828 31191.433594 23971.041016
v 30165.542969 31259.804688 23977.085938
v 32237.216797 31398.679688 24015.349609
v 30201.837891 31585.537109 24045.707031
v 30199.238281 31658.914062 24015.732422
v 30316.542969 32192.490234 24055.837891
v 32176.906250 32058.550781 24005.886719
v 32052.025391 32337.515625 23986.292969
v 31952.814453 32473.412109 24054.207031
v 30661.390625 32593.015625 23980.570312
v 31328.929688 32743.646484 24135.347656
v 31095.462891 32727.263672 24030.343750
v 30827.244141 32705.460938 24023.068359
v 31661.785156 30623.296875 24019.175781
v 31522.738281 30670.068359 24076.902344
v 31878.978516 30713.929688 24038.402344
v 31409.662109 30681.175781 24078.794922
v 31196.414062 30701.460938 24051.843750
v 30429.785156 31002.234375 24013.189453
v 32026.224609 30972.830078 24013.931641
v 30237.035156 31131.978516 23987.535156
v 30169.539062 31368.564453 23987.916016
v 32222.173828 31723.824219 24095.650391
v 30225.337891 31940.328125 24098.349609
v 32118.419922 32321.152344 24081.021484
v 32038.605469 32374.886719 24016.273438
v 30489.189453 32437.947266 24097.343750
v 31876.486328 32506.443359 24031.234375
v 31491.187500 32637.562500 24001.660156
v 31033.052734 32747.238281 24066.601562
v 31789.005859 30628.007812 24026.162109
v 31813.013672 30701.287109 24062.025391
v 31321.490234 30789.382812 24179.693359
v 31836.195312 30760.541016 24083.037109
v 31913.630859 30726.109375 24008.937500
v 30576.248047 30919.738281 24023.376953
v 31989.492188 30920.195312 24044.503906
v 30444.244141 31067.871094 24049.408203
v 30355.814453 31159.935547 24050.947266
v 30257.943359 31258.544922 24034.925781
v 30202.371094 31417.425781 24032.441406
v 30208.123047 31747.664062 24056.279297
v 30242.640625 31976.195312 24029.037109
v 30261.634766 32094.697266 24103.734375
v 32219.988281 31912.339844 24140.453125
v 30461.529297 32393.349609 24022.609375
v 32144.765625 32234.980469 24049.423828
v 32191.189453 32156.615234 24106.490234
v 32181.910156 32262.982422 24148.843750
v 31985.365234 32418.212891 24007.332031
v 31788.177734 32532.730469 24001.578125
v 30848.146484 32739.550781 24114.593750
v 31710.300781 30706.156250 24091.269531
v 31761.261719 30755.544922 24111.783203
v 31104.449219 30800.107422 24121.427734
v 31902.089844 30807.923828 24064.859375
v 31853.667969 30835.343750 24126.345703
v 30763.339844 30888.439453 24069.773438
v 30552.619141 30996.460938 24056.429688
v 30429.375000 31209.583984 24112.343750
v 30418.984375 31310.980469 24158.273438
v 30328.390625 31302.074219 24094.240234
v 30197.207031 31308.658203 24006.617188
v 30191.031250 31505.480469 24021.486328
v 32228.166016 31551.492188 24103.488281
v 32227.757812 31788.175781 24255.650391
v 32223.515625 32073.417969 24187.546875
v 32233.439453 32177.216797 24228.326172
v 31571.158203 32685.527344 24129.517578
v 31155.687500 32697.583984 23982.513672
v 31925.068359 30884.056641 24111.773438
v 30728.437500 30952.134766 24097.923828
v 30515.406250 31117.361328 24106.515625
v 31962.554688 30901.169922 24080.513672
v 32144.498047 31117.546875 24072.001953
v 30457.945312 31261.863281 24156.802734
v 32227.578125 31385.183594 24107.824219
v 32238.626953 31459.746094 24056.224609
v 30235.357422 31520.179688 24106.474609
v 30214.726562 31853.505859 24077.404297
v 32216.328125 32230.240234 24200.812500
v 31956.816406 32527.244141 24137.812500
v 30729.765625 32678.826172 24165.628906
v 31651.939453 32607.375000 24039.062500
v 31855.792969 32566.585938 24111.578125
v 31421.146484 30799.966797 24207.742188
v 31632.441406 30683.634766 24084.179688
v 31749.976562 30812.746094 24164.816406
v 30972.236328 30877.363281 24139.419922
v 30667.298828 31027.470703 24120.046875
v 32066.392578 31018.361328 24128.951172
v 30572.683594 31161.269531 24158.457031
v 32138.072266 31115.343750 24150.140625
v 32204.830078 31233.808594 24043.437500
v 30256.285156 31425.714844 24090.193359
v 30227.970703 31583.466797 24119.675781
v 30218.646484 31660.109375 24103.142578
v 30216.230469 31774.773438 24122.855469
v 32241.042969 31985.128906 24297.294922
v 30339.746094 32267.769531 24120.730469
v 30399.392578 32356.898438 24206.076172
v 32025.623047 32512.728516 24189.447266
v 30609.828125 32561.468750 24103.921875
v 30941.076172 32765.654297 24133.353516
v 31546.416016 30715.175781 24126.009766
v 31633.908203 30834.699219 24234.035156
v 31215.179688 30794.675781 24153.812500
v 31672.728516 30764.654297 24149.662109
v 30873.597656 30967.558594 24165.988281
v 31814.458984 30882.761719 24200.304688
v 31905.005859 30914.984375 24169.437500
v 31951.804688 30961.875000 24184.800781
v 30698.921875 31135.890625 24198.849609
v 32209.835938 31307.767578 24142.433594
v 32164.943359 31178.591797 24163.244141
v 32217.273438 31476.003906 24182.105469
v 30357.263672 31399.378906 24155.757812
v 30396.572266 31504.500000 24221.794922
v 30306.078125 31509.990234 24166.154297
v 30240.359375 31636.511719 24145.746094
v 32219.806641 31613.992188 24206.931641
v 30228.291016 31714.599609 24151.564453
v 30222.117188 31858.396484 24197.996094
v 30219.458984 31892.900391 24155.281250
v 30240.640625 32067.689453 24159.132812
v 32252.126953 32132.585938 24316.449219
v 31711.615234 32671.835938 24186.183594
v 30838.816406 32762.388672 24251.244141
v 31092.587891 32787.183594 24174.449219
v 31266.238281 32788.210938 24216.152344
v 30960.322266 32792.675781 24217.115234
v 31722.087891 30850.310547 24216.462891
v 32053.119141 31067.814453 24212.527344
v 32187.050781 31307.285156 24218.140625
v 30599.035156 31276.673828 24227.218750
v 30515.638672 31434.027344 24259.183594
v 30268.523438 31596.066406 24166.140625
v 30316.498047 31577.972656 24198.769531
v 30232.767578 31778.003906 24196.353516
v 30229.677734 32027.343750 24202.503906
v 30260.623047 32162.605469 24209.386719
v 30311.539062 32257.427734 24196.861328
v 32208.001953 32321.222656 24239.560547
v 30452.896484 32411.458984 24230.089844
v 32068.734375 32462.921875 24178.636719
v 30538.611328 32493.488281 24152.445312
v 30692.421875 32651.455078 24198.066406
v 30775.910156 32715.855469 24184.642578
v 31146.578125 32823.710938 24299.062500
v 31262.126953 32825.484375 24313.662109
v 31773.878906 30956.476562 24312.457031
v 30847.617188 31049.039062 24210.146484
v 31883.966797 31024.417969 24312.816406
v 30831.304688 31191.005859 24288.408203
v 32023.273438 31120.419922 24301.818359
v 32137.433594 31169.197266 24215.033203
v 30731.621094 31268.478516 24285.263672
v 32196.998047 31401.906250 24238.640625
v 30338.972656 31663.189453 24252.478516
v 30273.019531 31700.578125 24212.587891
v 30242.619141 31804.517578 24227.015625
v 30234.261719 31898.562500 24229.669922
v 30246.917969 32022.802734 24239.210938
v 30291.851562 32130.826172 24263.343750
v 30352.042969 32227.216797 24275.962891
v 32255.621094 32275.808594 24370.363281
v 30378.755859 32289.416016 24266.150391
v 30301.601562 32242.113281 24225.896484
v 31482.384766 32734.826172 24179.806641
v 30983.351562 32808.250000 24280.798828
v 31389.414062 30956.025391 24343.806641
v 31034.402344 30969.238281 24232.355469
v 30976.921875 31121.587891 24312.720703
v 32060.662109 31249.507812 24378.917969
v 32103.935547 31266.664062 24342.074219
v 32136.214844 31289.457031 24309.187500
v 32171.867188 31380.419922 24300.265625
v 32199.707031 31502.394531 24280.550781
v 30713.623047 31364.937500 24327.115234
v 32211.880859 31646.402344 24323.617188
v 30283.382812 31830.392578 24262.050781
v 30299.013672 31767.750000 24259.031250
v 30273.423828 31914.849609 24265.273438
v 30374.855469 31969.931641 24334.638672
v 30300.671875 32021.638672 24283.837891
v 30411.255859 32052.347656 24355.468750
v 32237.851562 31846.544922 24375.136719
v 30349.820312 32156.507812 24296.476562
v 30450.224609 32275.789062 24326.214844
v 32243.421875 32306.919922 24303.685547
v 30434.724609 32377.093750 24254.650391
v 32178.457031 32370.701172 24234.128906
v 30539.890625 32486.531250 24265.908203
v 30561.501953 32516.152344 24206.609375
v 32062.892578 32565.757812 24325.359375
v 31987.322266 32556.472656 24208.560547
v 31922.285156 32644.417969 24311.935547
v 30728.607422 32686.201172 24252.181641
v 31877.375000 32619.896484 24219.687500
v 31538.861328 32784.316406 24311.029297
v 30886.662109 32779.824219 24234.564453
v 31435.583984 30848.705078 24258.207031
v 31547.216797 30839.238281 24254.390625
v 31198.912109 30896.441406 24241.076172
v 30922.289062 31189.916016 24331.095703
v 31862.697266 31052.013672 24356.244141
v 30821.359375 31293.261719 24343.425781
v 30614.572266 31463.853516 24325.742188
v 30498.648438 31584.886719 24317.287109
v 30514.451172 31689.814453 24373.271484
v 30367.134766 31863.894531 24321.933594
v 32215.769531 31711.568359 24406.968750
v 32240.728516 31853.310547 24497.255859
v 30460.041016 32134.031250 24377.488281
v 30450.980469 32208.367188 24350.705078
v 32260.414062 32068.941406 24415.080078
v 32124.757812 32411.619141 24192.986328
v 30656.074219 32609.148438 24263.824219
v 31635.189453 32723.087891 24237.244141
v 30834.210938 32750.818359 24321.552734
v 31118.701172 32831.519531 24339.810547
v 31313.794922 32846.386719 24382.455078
v 30895.445312 32787.320312 24300.310547
v 31137.855469 32840.062500 24403.648438
v 31303.361328 30875.691406 24257.628906
v 31031.199219 31067.810547 24300.878906
v 31186.660156 31018.748047 24330.121094
v 31683.951172 30946.738281 24333.523438
v 31040.300781 31166.666016 24372.687500
v 30823.896484 31365.060547 24389.833984
v 30714.697266 31461.041016 24382.750000
v 32183.298828 31495.355469 24348.140625
v 30635.628906 31536.103516 24377.599609
v 32194.402344 31620.681641 24405.031250
v 30429.572266 31762.335938 24342.677734
v 30471.656250 32047.566406 24405.212891
v 30528.839844 32216.306641 24409.611328
v 30554.892578 32326.179688 24385.091797
v 30497.453125 32387.789062 24305.941406
v 32254.449219 32379.552734 24420.640625
v 30733.208984 32550.259766 24412.667969
v 30612.228516 32537.830078 24304.482422
v 30686.982422 32629.261719 24305.822266
v 30728.302734 32672.867188 24299.136719
v 30907.494141 32780.222656 24358.535156
v 30985.884766 32810.765625 24371.878906
v 31460.191406 30977.003906 24376.529297
v 31604.630859 30928.175781 24333.066406
v 31172.017578 31098.597656 24383.201172
v 31996.060547 31193.753906 24387.605469
v 30947.142578 31272.031250 24398.123047
v 30878.382812 31417.263672 24461.519531
v 32169.191406 31576.138672 24444.769531
v 30571.035156 31618.851562 24379.488281
v 32183.576172 31670.404297 24508.673828
v 30519.740234 31763.875000 24409.673828
v 30508.486328 31823.769531 24421.718750
v 30433.021484 31945.517578 24379.574219
v 30521.923828 32117.132812 24438.792969
v 32251.703125 31973.302734 24431.949219
v 32222.347656 32421.787109 24367.625000
v 32144.394531 32514.017578 24355.855469
v 32009.046875 32622.820312 24364.396484
v 30770.203125 32648.769531 24372.431641
v 31669.660156 32764.003906 24350.958984
v 30893.183594 32756.548828 24386.013672
v 31447.615234 32797.734375 24299.537109
v 31545.052734 32807.339844 24376.347656
v 31289.773438 31003.074219 24353.412109
v 31052.216797 31244.376953 24436.267578
v 32163.371094 31446.519531 24375.429688
v 30797.503906 31464.123047 24440.394531
v 30680.378906 31576.492188 24434.460938
v 30598.583984 31677.001953 24432.705078
v 30592.001953 31772.335938 24486.996094
v 30539.152344 31872.097656 24471.404297
v 30501.552734 31949.044922 24442.287109
v 30521.472656 32040.736328 24457.791016
v 30608.232422 32271.240234 24464.339844
v 30676.810547 32366.466797 24480.931641
v 30641.431641 32467.892578 24381.216797
v 30910.890625 32658.039062 24501.757812
v 30886.458984 32725.021484 24418.816406
v 31766.849609 32724.396484 24324.214844
v 31020.216797 32797.953125 24457.414062
v 31625.605469 32797.265625 24415.708984
v 31103.388672 32830.085938 24445.910156
v 31278.347656 32856.773438 24413.531250
v 31764.064453 31062.330078 24404.425781
v 31261.781250 31137.521484 24450.291016
v 32146.525391 31399.328125 24384.095703
v 32133.367188 31487.876953 24449.537109
v 30762.830078 31560.443359 24490.982422
v 30674.105469 31667.845703 24500.041016
v 30602.687500 32187.982422 24502.476562
v 32265.363281 32242.042969 24472.345703
v 32265.998047 32318.376953 24499.839844
v 30804.013672 32493.582031 24529.076172
v 31779.662109 32740.017578 24388.822266
v 31897.062500 32696.654297 24405.765625
v 31531.490234 30976.082031 24375.625000
v 31397.083984 31066.796875 24432.492188
v 31484.578125 31077.892578 24451.787109
v 31652.158203 31078.445312 24444.580078
v 31837.333984 31178.503906 24459.253906
v 31166.234375 31172.302734 24439.144531
v 31891.632812 31173.646484 24431.070312
v 32068.662109 31317.382812 24422.128906
v 30987.814453 31336.816406 24470.955078
v 32078.046875 31426.123047 24477.097656
v 31999.818359 31383.298828 24508.929688
v 32129.441406 31546.265625 24496.802734
v 30579.679688 31871.015625 24543.056641
v 30542.591797 31973.068359 24498.748047
v 30785.046875 32409.849609 24577.875000
v 32239.541016 32432.574219 24465.638672
v 32100.306641 32604.292969 24462.619141
v 30997.394531 32715.705078 24526.419922
v 31044.998047 32755.625000 24522.949219
v 31746.800781 32762.910156 24444.511719
v 31437.742188 32838.769531 24431.896484
v 31234.777344 32835.960938 24533.474609
v 31653.794922 31172.117188 24509.929688
v 31574.634766 31125.720703 24488.138672
v 31665.679688 31297.666016 24594.255859
v 31334.373047 31112.572266 24453.373047
v 31746.687500 31135.957031 24461.843750
v 31819.812500 31233.630859 24506.306641
v 31936.527344 31294.554688 24491.378906
v 31260.808594 31242.701172 24538.335938
v 31117.634766 31331.875000 24549.175781
v 32024.181641 31473.373047 24554.949219
v 32090.775391 31509.945312 24518.542969
v 30895.853516 31483.164062 24535.058594
v 30722.007812 31669.949219 24570.087891
v 30586.439453 32012.529297 24579.337891
v 32239.892578 31945.822266 24571.033203
v 32262.375000 32358.031250 24502.687500
v 30656.441406 32251.193359 24537.193359
v 32233.197266 32436.410156 24514.009766
v 30803.068359 32365.277344 24644.863281
v 32177.412109 32511.757812 24418.960938
v 30837.550781 32590.556641 24486.242188
v 32164.240234 32531.343750 24497.980469
v 31018.085938 32634.894531 24628.783203
v 31995.953125 32663.417969 24459.666016
v 31876.507812 32724.109375 24489.650391
v 31146.451172 32751.775391 24601.925781
v 31552.359375 32827.796875 24502.154297
v 31730.769531 32769.898438 24485.371094
v 31243.611328 32849.621094 24474.886719
v 31191.265625 31270.005859 24533.121094
v 31802.281250 31341.285156 24579.449219
v 30978.353516 31415.285156 24534.794922
v 31866.671875 31390.921875 24585.617188
v 30781.511719 31598.783203 24550.773438
v 32217.326172 31779.070312 24534.126953
v 30598.390625 31896.369141 24610.156250
v 30572.210938 32101.611328 24509.039062
v 32112.187500 32564.314453 24529.478516
v 31965.312500 32672.646484 24514.931641
v 31836.052734 32706.187500 24555.406250
v 31789.810547 32745.531250 24514.300781
v 31703.943359 32741.001953 24582.031250
v 31605.849609 32799.507812 24535.972656
v 31117.591797 32810.980469 24500.244141
v 31374.183594 32850.253906 24478.945312
v 31485.466797 32828.199219 24541.478516
v 31389.929688 31226.798828 24558.435547
v 31445.572266 31200.486328 24543.996094
v 31316.814453 31264.296875 24576.191406
v 30933.250000 31509.060547 24607.117188
v 31942.443359 31420.517578 24568.138672
v 32251.548828 31984.828125 24515.222656
v 32261.996094 32049.765625 24469.771484
v 32263.837891 32176.044922 24557.830078
v 32181.660156 32474.679688 24573.466797
v 32015.902344 32627.646484 24536.392578
v 31985.261719 32609.753906 24583.621094
v 31818.458984 32669.154297 24617.125000
v 31524.419922 32777.925781 24612.037109
v 31226.888672 31341.816406 24618.984375
v 32056.097656 31601.578125 24633.671875
v 32147.863281 31651.367188 24564.496094
v 32172.589844 31755.382812 24619.748047
v 30614.480469 32055.496094 24621.388672
v 30685.587891 32230.908203 24598.847656
v 32207.794922 32372.251953 24652.328125
v 32108.611328 32514.007812 24607.748047
v 31182.417969 32788.964844 24579.250000
v 31349.009766 32835.097656 24565.898438
v 31450.646484 31292.371094 24614.500000
v 31493.943359 31341.822266 24648.207031
v 31594.779297 31272.746094 24593.074219
v 31128.988281 31445.394531 24683.298828
v 31889.910156 31505.638672 24655.037109
v 31988.367188 31594.937500 24675.691406
v 30660.558594 31749.156250 24591.964844
v 30615.330078 31831.765625 24606.951172
v 32132.498047 32429.623047 24668.683594
v 32053.656250 32464.966797 24690.789062
v 31962.951172 32569.767578 24645.037109
v 31084.968750 32661.597656 24661.501953
v 31638.753906 32670.236328 24691.152344
v 31247.871094 32762.259766 24641.667969
v 31410.476562 32779.265625 24633.308594
v 31183.640625 31485.933594 24752.613281
v 31649.417969 31467.058594 24706.710938
v 31791.210938 31480.773438 24675.376953
v 32222.753906 31874.412109 24590.119141
v 30597.082031 31967.109375 24621.775391
v 30653.152344 32146.765625 24621.597656
v 30708.580078 32176.855469 24698.845703
v 32248.976562 32333.699219 24592.494141
v 30945.187500 32561.203125 24628.103516
v 30895.593750 32424.371094 24707.876953
v 31944.890625 32495.337891 24726.664062
v 31461.763672 32710.234375 24704.945312
v 31211.007812 32649.583984 24763.306641
v 31528.681641 31398.191406 24683.683594
v 31064.236328 31487.923828 24696.929688
v 31703.453125 31429.937500 24668.345703
v 31871.425781 31583.109375 24721.570312
v 30819.431641 31623.740234 24655.406250
v 30720.291016 31708.621094 24647.578125
v 32267.876953 32245.435547 24627.650391
v 31835.207031 32610.576172 24672.009766
v 31547.507812 32630.738281 24759.314453
v 31316.744141 32770.031250 24645.908203
v 31375.947266 31413.478516 24712.933594
v 31325.396484 31339.910156 24644.970703
v 31552.341797 31487.869141 24740.859375
v 30747.427734 31730.142578 24773.937500
v 32107.960938 31667.791016 24642.560547
v 32193.503906 31878.253906 24674.226562
v 32219.367188 31948.164062 24660.208984
v 32252.207031 32083.296875 24624.865234
v 30643.185547 32045.314453 24704.914062
v 32209.191406 32277.808594 24712.662109
v 32127.726562 32357.875000 24727.253906
v 31694.681641 32597.152344 24743.718750
v 31414.224609 31524.365234 24784.169922
v 30947.535156 31546.021484 24685.261719
v 30869.208984 31643.894531 24773.087891
v 32016.191406 31681.833984 24734.578125
v 32071.148438 31747.718750 24749.191406
v 32154.431641 31810.226562 24704.437500
v 30627.474609 31863.417969 24750.095703
v 30638.988281 31964.082031 24775.720703
v 30615.132812 31941.847656 24691.320312
v 32251.824219 32160.103516 24643.640625
v 30718.589844 32108.558594 24787.345703
v 32232.921875 32180.994141 24699.748047
v 30988.142578 32483.363281 24752.845703
v 31061.562500 32517.449219 24787.183594
v 31253.955078 32676.175781 24747.099609
v 31371.152344 32700.376953 24728.472656
v 31277.593750 31461.300781 24748.113281
v 31276.740234 31550.742188 24813.691406
v 31617.234375 31603.544922 24802.583984
v 31786.550781 31628.710938 24780.351562
v 31943.046875 31643.740234 24740.445312
v 30669.941406 31791.386719 24745.917969
v 32149.099609 31912.425781 24792.253906
v 32225.330078 32067.152344 24697.736328
v 31607.238281 32493.855469 24873.699219
v 31477.955078 32598.404297 24807.222656
v 31180.378906 31565.734375 24825.722656
v 31437.886719 31645.273438 24858.308594
v 30647.406250 31851.990234 24800.802734
v 32120.580078 31787.632812 24734.607422
v 32093.060547 31862.267578 24824.478516
v 30682.498047 32024.929688 24812.751953
v 32203.755859 32046.582031 24738.142578
v 30795.583984 32185.416016 24823.464844
v 30796.587891 32247.910156 24764.568359
v 32206.351562 32210.906250 24739.914062
v 32143.949219 32277.802734 24769.097656
v 32029.951172 32304.294922 24823.140625
v 31806.798828 32502.539062 24785.414062
v 31150.533203 32591.691406 24782.757812
v 31105.037109 31515.406250 24761.138672
v 31072.783203 31594.537109 24842.769531
v 31321.007812 31600.193359 24844.484375
v 31010.242188 31587.281250 24808.062500
v 30766.265625 31751.201172 24830.048828
v 31884.775391 31800.271484 24870.246094
v 31944.111328 31741.933594 24814.414062
v 32018.937500 31863.644531 24860.488281
v 30750.802734 31855.417969 24867.751953
v 32131.335938 31877.824219 24797.214844
v 30694.517578 31943.175781 24847.572266
v 30730.267578 32044.236328 24846.937500
v 32163.548828 32136.666016 24796.248047
v 32070.384766 32248.632812 24826.574219
v 30869.259766 32319.603516 24788.105469
v 31911.076172 32422.859375 24801.601562
v 31296.386719 32625.695312 24800.433594
v 31152.691406 31653.095703 24893.060547
v 30852.376953 31738.937500 24868.498047
v 31782.757812 31731.166016 24848.929688
v 31586.070312 31704.320312 24869.236328
v 32187.376953 32073.558594 24769.326172
v 32126.138672 32001.671875 24833.242188
v 32129.242188 32181.099609 24816.376953
v 32044.667969 32205.800781 24858.445312
v 31888.687500 32270.289062 24905.605469
v 31983.654297 32346.150391 24821.957031
v 31781.064453 32444.097656 24841.611328
v 30891.431641 31678.400391 24840.310547
v 31054.605469 31705.226562 24918.865234
v 31262.708984 31693.248047 24905.341797
v 31460.660156 31741.398438 24906.089844
v 31729.214844 31797.351562 24893.345703
v 32032.552734 31961.142578 24883.992188
v 31948.160156 31887.726562 24889.441406
v 32095.550781 31969.187500 24856.695312
v 30794.033203 32047.343750 24886.082031
v 32081.511719 32105.054688 24863.599609
v 31983.652344 32181.041016 24893.250000
v 30963.703125 32389.943359 24813.576172
v 31855.304688 32357.669922 24873.814453
v 31705.867188 32401.462891 24898.386719
v 31372.144531 32499.500000 24901.345703
v 31407.351562 32572.804688 24841.925781
v 30997.617188 31694.210938 24900.128906
v 30938.845703 31768.335938 24916.917969
v 31201.158203 31749.332031 24937.121094
v 30857.638672 31815.667969 24906.291016
v 31003.855469 31833.648438 24955.015625
v 31375.109375 31799.859375 24938.646484
v 31159.595703 31822.083984 24962.281250
v 31566.220703 31812.677734 24924.015625
v 31748.490234 31855.423828 24915.751953
v 30861.703125 31927.833984 24922.412109
v 30952.759766 31888.425781 24950.927734
v 31822.914062 31912.595703 24926.101562
v 30780.074219 31974.189453 24887.179688
v 31800.964844 32000.546875 24952.367188
v 31886.849609 32019.455078 24938.775391
v 31920.964844 31935.886719 24913.931641
v 32011.126953 32061.785156 24900.136719
v 30817.580078 32146.115234 24864.554688
v 30986.798828 32163.736328 24946.933594
v 31886.626953 32136.937500 24940.439453
v 30860.546875 32247.289062 24847.691406
v 31769.419922 32273.427734 24940.521484
v 31709.117188 32331.546875 24934.318359
v 31618.283203 32421.056641 24913.224609
v 31471.642578 32513.648438 24883.494141
v 31475.656250 32464.279297 24915.099609
v 31140.148438 32490.011719 24856.501953
v 31211.029297 32511.804688 24869.958984
v 31257.886719 32520.169922 24874.921875
v 31072.958984 31821.371094 24961.427734
v 31292.943359 31853.613281 24964.423828
v 31019.585938 31923.716797 24971.466797
v 31228.169922 31958.582031 24994.666016
v 31503.531250 31893.246094 24958.097656
v 31042.046875 31875.457031 24971.755859
v 31684.146484 31945.076172 24953.855469
v 30900.808594 32035.841797 24932.687500
v 31588.626953 32053.912109 24989.941406
v 31718.966797 32088.476562 24976.121094
v 31762.910156 32130.417969 24969.984375
v 31028.722656 32206.763672 24951.476562
v 31877.640625 32194.509766 24933.326172
v 31730.648438 32207.435547 24971.533203
v 30982.757812 32281.644531 24896.746094
v 31639.660156 32316.320312 24956.339844
v 31074.335938 32432.064453 24861.626953
v 31173.212891 32470.775391 24882.765625
v 31245.673828 32429.923828 24926.519531
v 31188.822266 32055.035156 25003.402344
v 31372.212891 32095.000000 25013.568359
v 30998.804688 32044.070312 24965.230469
v 31412.480469 31987.251953 24993.058594
v 31036.816406 32140.855469 24970.636719
v 31240.568359 32173.103516 25010.625000
v 31099.625000 32085.064453 24991.441406
v 31605.275391 32112.173828 24996.955078
v 31438.562500 32177.437500 25019.908203
v 31129.017578 32190.072266 24992.923828
v 31657.347656 32185.037109 24990.869141
v 31128.865234 32374.728516 24920.726562
v 31122.798828 32281.417969 24960.953125
v 31568.220703 32274.365234 24985.228516
v 31480.423828 32392.896484 24952.554688
v 31171.783203 32383.412109 24932.697266
v 31275.421875 32339.681641 24979.748047
v 31333.751953 32412.982422 24952.232422
v 31335.148438 32185.779297 25018.894531
v 31238.791016 32270.068359 24997.271484
v 31433.822266 32271.046875 25009.773438
v 31375.580078 32321.410156 24990.765625
v 31479.882812 32336.074219 24977.429688
# 1287 vertices, 0 vertices normals

f 4 3 1
f 54 1 3
f 94 4 1
f 2 3 4
f 11 1 54
f 18 6 15
f 18 27 6
f 1 11 94
f 18 13 14
f 5 15 6
f 18 72 27
f 6 31 5
f 6 27 31
f 5 31 23
f 9 42 7
f 53 7 52
f 7 53 9
f 8 2 10
f 8 54 3
f 8 3 2
f 86 2 4
f 54 88 11
f 9 60 55
f 12 13 71
f 14 12 70
f 14 13 12
f 71 13 16
f 70 69 18
f 14 70 18
f 13 15 16
f 18 15 13
f 16 15 17
f 17 15 19
f 15 5 19
f 72 18 109
f 21 27 72
f 5 28 19
f 22 27 21
f 77 20 74
f 22 26 27
f 23 28 5
f 20 25 21
f 20 24 25
f 21 25 22
f 36 76 28
f 77 50 20
f 20 50 24
f 24 34 25
f 25 34 29
f 25 29 22
f 22 29 26
f 26 30 27
f 27 30 31
f 23 35 28
f 28 35 36
f 36 32 76
f 32 33 76
f 24 50 51
f 24 51 34
f 29 34 39
f 26 40 30
f 30 40 43
f 30 43 31
f 31 43 23
f 23 43 35
f 34 51 37
f 34 37 38
f 34 38 39
f 29 39 41
f 29 41 26
f 26 41 40
f 40 41 42
f 40 42 43
f 43 9 35
f 35 48 36
f 35 9 48
f 36 48 45
f 36 45 32
f 80 32 45
f 51 46 37
f 38 37 82
f 44 38 82
f 44 39 38
f 39 47 41
f 39 44 47
f 41 52 7
f 41 7 42
f 42 9 43
f 48 49 45
f 84 8 50
f 41 47 52
f 45 49 80
f 47 44 85
f 56 47 85
f 47 56 52
f 48 9 49
f 50 8 51
f 51 8 10
f 46 51 10
f 9 55 49
f 80 49 58
f 84 54 8
f 10 2 86
f 52 56 53
f 49 55 58
f 84 88 54
f 53 56 57
f 56 91 57
f 53 57 63
f 60 9 53
f 53 63 60
f 55 60 59
f 58 55 59
f 94 92 86
f 94 86 4
f 57 96 62
f 94 11 145
f 63 57 64
f 61 60 98
f 62 100 57
f 60 63 98
f 57 100 64
f 100 101 64
f 63 65 98
f 65 63 64
f 64 101 65
f 66 71 103
f 103 71 104
f 66 67 12
f 71 66 12
f 70 67 68
f 70 12 67
f 69 70 68
f 71 16 105
f 105 16 17
f 107 18 69
f 109 18 107
f 106 19 73
f 83 77 74
f 75 21 72
f 73 19 28
f 74 20 75
f 75 20 21
f 73 28 76
f 110 73 76
f 78 33 32
f 169 33 78
f 169 79 112
f 169 78 79
f 112 79 113
f 80 78 32
f 78 80 79
f 77 84 50
f 82 37 81
f 80 90 79
f 77 83 84
f 79 90 87
f 118 89 82
f 89 44 82
f 85 44 89
f 115 84 83
f 85 91 56
f 58 90 80
f 115 88 84
f 85 89 91
f 58 95 90
f 11 88 119
f 93 91 89
f 96 57 91
f 93 96 91
f 58 59 95
f 95 59 125
f 127 96 93
f 60 61 59
f 59 61 125
f 97 96 127
f 96 97 62
f 97 99 62
f 62 99 100
f 151 99 97
f 98 65 132
f 151 129 99
f 99 129 131
f 99 131 100
f 100 131 101
f 101 131 65
f 65 131 132
f 104 160 103
f 102 66 103
f 134 135 69
f 68 134 69
f 71 105 104
f 104 105 161
f 135 107 69
f 106 105 17
f 105 106 137
f 108 75 107
f 19 106 17
f 107 75 109
f 108 139 74
f 108 74 75
f 75 72 109
f 141 83 139
f 139 83 74
f 106 73 110
f 106 110 111
f 110 76 33
f 110 33 111
f 111 33 167
f 166 111 167
f 167 33 169
f 113 170 112
f 113 79 116
f 83 114 115
f 87 116 79
f 113 116 142
f 115 114 143
f 10 117 46
f 81 37 46
f 82 81 118
f 10 86 117
f 144 89 118
f 121 87 90
f 87 120 116
f 143 88 115
f 145 117 92
f 92 117 86
f 87 121 120
f 119 88 209
f 144 123 89
f 123 93 89
f 119 145 11
f 121 90 95
f 94 145 92
f 122 144 146
f 122 123 144
f 121 149 147
f 95 149 121
f 95 125 149
f 123 124 93
f 124 127 93
f 61 126 125
f 126 128 125
f 149 125 128
f 98 126 61
f 153 126 98
f 132 153 98
f 128 126 153
f 130 131 129
f 158 132 131
f 157 153 132
f 131 130 158
f 132 158 157
f 160 104 161
f 133 68 67
f 201 68 133
f 136 161 105
f 136 105 137
f 135 138 107
f 136 111 140
f 136 137 111
f 139 108 138
f 138 108 107
f 137 106 111
f 203 141 165
f 141 139 165
f 140 111 166
f 205 114 141
f 170 169 112
f 114 83 141
f 170 113 142
f 142 116 171
f 116 120 171
f 117 173 46
f 173 81 46
f 81 173 118
f 119 209 145
f 147 120 121
f 120 147 175
f 212 122 146
f 148 122 212
f 148 123 122
f 148 124 123
f 149 150 147
f 124 148 176
f 177 124 176
f 177 127 124
f 149 128 150
f 177 282 127
f 282 97 127
f 150 128 155
f 179 150 155
f 152 97 282
f 152 151 97
f 128 153 154
f 155 128 154
f 154 153 157
f 181 154 185
f 154 181 155
f 156 129 151
f 154 157 185
f 129 156 130
f 158 182 157
f 157 182 183
f 226 227 190
f 227 229 190
f 229 192 190
f 190 192 193
f 197 160 196
f 234 159 102
f 102 103 197
f 197 103 160
f 67 66 159
f 159 66 102
f 237 160 161
f 201 134 68
f 134 202 135
f 237 161 136
f 202 162 135
f 162 138 135
f 136 140 163
f 163 140 166
f 165 164 241
f 203 165 241
f 165 139 164
f 164 139 138
f 141 203 205
f 168 166 167
f 167 169 168
f 170 142 242
f 205 143 114
f 142 171 242
f 209 88 143
f 172 173 117
f 210 173 172
f 120 208 171
f 117 207 172
f 173 210 118
f 175 208 120
f 208 175 211
f 209 207 145
f 145 207 117
f 174 146 144
f 118 174 144
f 247 148 212
f 178 147 150
f 148 247 176
f 150 179 178
f 179 214 178
f 179 180 214
f 180 179 155
f 180 155 181
f 185 157 183
f 181 186 180
f 185 186 181
f 250 216 152
f 216 151 152
f 151 216 156
f 182 158 130
f 183 184 185
f 156 218 130
f 182 188 183
f 183 188 184
f 184 187 185
f 186 185 187
f 130 218 182
f 182 218 188
f 187 184 251
f 188 222 219
f 188 219 217
f 188 217 184
f 156 216 218
f 189 226 190
f 189 190 225
f 225 190 191
f 229 227 256
f 194 193 192
f 190 193 231
f 190 231 191
f 193 194 228
f 232 197 195
f 195 197 196
f 232 234 197
f 234 102 197
f 235 199 198
f 198 159 235
f 235 159 234
f 199 133 198
f 133 67 198
f 198 67 159
f 237 200 160
f 202 134 201
f 237 136 163
f 238 162 202
f 164 138 162
f 241 164 240
f 164 162 240
f 166 265 163
f 265 166 168
f 169 204 168
f 170 204 169
f 204 170 273
f 206 242 171
f 206 171 208
f 243 208 211
f 210 174 118
f 280 212 146
f 147 213 175
f 211 175 213
f 178 213 147
f 213 178 281
f 215 214 180
f 249 214 215
f 250 152 282
f 215 180 186
f 215 187 328
f 215 186 187
f 215 328 249
f 285 216 250
f 187 251 328
f 285 252 216
f 251 184 217
f 222 188 218
f 217 219 220
f 216 252 221
f 221 218 216
f 219 222 223
f 219 223 220
f 252 224 221
f 223 222 224
f 222 221 224
f 222 218 221
f 189 225 254
f 191 288 225
f 288 191 255
f 258 229 256
f 228 231 193
f 229 194 192
f 228 230 231
f 231 233 191
f 191 233 255
f 231 232 233
f 231 230 232
f 232 195 233
f 196 290 195
f 290 233 195
f 235 230 260
f 230 234 232
f 230 235 234
f 261 199 260
f 199 235 260
f 200 196 160
f 236 199 261
f 236 201 133
f 199 236 133
f 262 201 236
f 237 264 200
f 263 202 201
f 263 238 202
f 237 163 291
f 265 291 163
f 162 238 239
f 239 240 162
f 241 267 203
f 242 273 170
f 274 143 205
f 206 319 242
f 143 274 209
f 209 274 275
f 207 275 276
f 207 276 172
f 172 276 277
f 244 172 277
f 244 210 172
f 208 243 206
f 209 275 207
f 244 245 210
f 174 210 245
f 174 245 279
f 299 243 246
f 174 279 146
f 246 243 211
f 211 213 246
f 213 281 246
f 247 356 176
f 178 248 281
f 325 177 176
f 214 248 178
f 249 248 214
f 248 249 326
f 282 327 250
f 250 327 285
f 251 284 328
f 251 217 220
f 305 251 220
f 286 223 287
f 223 286 220
f 253 224 252
f 223 224 331
f 364 223 331
f 254 226 189
f 227 226 333
f 307 227 333
f 256 227 309
f 256 289 258
f 256 309 289
f 257 194 229
f 257 229 258
f 258 259 257
f 257 260 194
f 228 194 260
f 339 259 258
f 255 233 290
f 260 230 228
f 262 259 339
f 259 262 261
f 259 261 257
f 257 261 260
f 261 262 236
f 262 263 201
f 291 264 237
f 316 240 239
f 316 266 240
f 267 241 266
f 266 241 240
f 370 168 317
f 267 266 293
f 267 269 203
f 268 269 267
f 267 293 268
f 269 205 203
f 270 269 268
f 274 205 269
f 274 269 270
f 274 270 271
f 271 270 272
f 278 273 242
f 276 274 271
f 275 274 276
f 271 272 277
f 276 271 277
f 278 242 319
f 243 297 206
f 277 296 244
f 245 244 296
f 245 296 352
f 245 352 279
f 299 297 243
f 301 299 246
f 302 246 281
f 281 248 302
f 356 325 176
f 177 325 282
f 249 283 326
f 249 328 283
f 303 285 327
f 251 304 284
f 286 305 220
f 253 330 224
f 330 331 224
f 223 364 287
f 225 288 306
f 333 226 254
f 339 258 289
f 311 339 289
f 342 262 339
f 264 313 200
f 263 262 314
f 291 344 264
f 369 291 315
f 291 265 315
f 316 239 238
f 315 265 168
f 315 168 370
f 292 316 345
f 266 316 292
f 292 293 266
f 204 317 168
f 317 204 294
f 347 268 293
f 268 347 270
f 349 270 347
f 295 294 204
f 295 204 273
f 349 272 270
f 273 278 295
f 277 272 296
f 320 319 206
f 297 320 206
f 296 298 352
f 299 351 297
f 146 279 280
f 212 280 300
f 247 212 300
f 301 246 302
f 381 328 284
f 284 304 329
f 361 304 305
f 251 305 304
f 303 252 285
f 287 362 286
f 303 363 252
f 363 253 252
f 287 364 477
f 306 254 225
f 332 254 306
f 334 333 254
f 288 308 306
f 307 333 387
f 288 255 308
f 307 309 227
f 255 310 308
f 308 310 337
f 310 312 337
f 290 310 255
f 312 310 290
f 290 200 312
f 290 196 200
f 342 314 262
f 313 264 344
f 291 369 344
f 314 238 263
f 371 238 314
f 316 238 371
f 347 293 292
f 317 294 346
f 346 294 318
f 318 294 295
f 348 295 278
f 352 298 406
f 299 321 351
f 299 322 321
f 279 352 280
f 301 322 299
f 324 322 301
f 302 324 301
f 302 323 324
f 248 323 302
f 326 323 248
f 323 326 410
f 325 327 282
f 326 283 410
f 328 440 283
f 328 381 440
f 284 329 381
f 304 382 329
f 286 361 305
f 441 361 286
f 286 362 441
f 287 477 362
f 253 363 384
f 253 384 330
f 332 334 254
f 336 332 306
f 334 387 333
f 308 335 306
f 306 335 366
f 336 306 366
f 307 391 309
f 335 308 337
f 367 335 337
f 367 337 368
f 337 312 368
f 338 368 312
f 313 312 200
f 338 312 313
f 340 339 311
f 340 342 339
f 338 313 341
f 342 461 343
f 313 344 341
f 343 314 342
f 395 314 343
f 371 314 395
f 371 345 316
f 395 345 371
f 317 346 370
f 399 347 292
f 318 295 348
f 373 349 347
f 278 319 348
f 348 319 320
f 374 348 320
f 349 296 272
f 376 296 349
f 297 351 374
f 297 374 320
f 376 298 296
f 298 376 350
f 406 298 350
f 408 280 352
f 353 300 280
f 353 354 300
f 354 247 300
f 355 247 354
f 357 324 323
f 355 356 247
f 358 356 355
f 358 325 356
f 359 325 358
f 359 358 411
f 360 359 411
f 359 327 325
f 359 360 327
f 360 303 327
f 383 303 360
f 477 414 362
f 330 384 417
f 330 364 331
f 415 365 363
f 363 365 384
f 332 388 334
f 336 385 332
f 421 334 388
f 386 385 336
f 421 387 334
f 391 307 387
f 336 366 386
f 366 367 389
f 367 366 335
f 389 367 423
f 394 309 391
f 423 367 390
f 289 309 394
f 367 368 390
f 368 392 390
f 393 311 289
f 340 311 457
f 340 461 342
f 369 315 370
f 345 395 435
f 372 345 435
f 372 292 345
f 372 399 292
f 370 346 397
f 400 347 399
f 347 400 373
f 373 400 403
f 374 375 402
f 402 348 374
f 374 377 375
f 349 373 376
f 351 377 374
f 378 377 351
f 321 378 351
f 352 406 408
f 322 407 321
f 321 407 378
f 353 280 408
f 409 355 354
f 409 358 355
f 357 323 380
f 379 358 409
f 323 410 380
f 358 379 411
f 360 411 412
f 412 383 360
f 304 361 382
f 413 383 412
f 415 383 413
f 415 363 303
f 415 303 383
f 414 441 362
f 478 364 330
f 478 330 417
f 477 364 478
f 415 416 365
f 332 385 388
f 418 388 385
f 389 386 366
f 425 391 387
f 425 387 421
f 423 420 389
f 448 391 425
f 390 392 423
f 426 423 392
f 394 391 427
f 393 289 394
f 393 394 454
f 368 341 392
f 338 341 368
f 311 393 457
f 457 432 461
f 340 457 461
f 429 341 344
f 369 433 344
f 489 343 461
f 462 434 369
f 370 462 369
f 462 370 397
f 396 435 395
f 346 318 398
f 398 318 463
f 348 463 318
f 348 401 463
f 375 437 402
f 401 348 402
f 375 404 438
f 403 376 373
f 377 404 375
f 405 376 403
f 378 404 377
f 469 404 378
f 405 350 376
f 324 407 322
f 472 411 379
f 283 474 410
f 283 440 500
f 283 500 474
f 411 475 412
f 381 329 532
f 441 590 361
f 476 416 413
f 416 415 413
f 477 591 414
f 417 384 365
f 386 442 385
f 389 420 386
f 386 420 442
f 388 419 421
f 418 419 388
f 422 421 419
f 421 422 425
f 449 425 422
f 426 424 423
f 448 427 391
f 426 392 428
f 428 392 341
f 447 426 428
f 394 427 454
f 430 393 454
f 341 429 428
f 428 456 447
f 430 457 393
f 428 429 456
f 457 430 485
f 429 431 456
f 429 344 433
f 431 429 433
f 433 369 434
f 489 395 343
f 489 396 395
f 435 396 464
f 397 346 516
f 398 516 346
f 465 463 401
f 436 465 437
f 437 465 401
f 437 401 402
f 491 436 437
f 375 438 437
f 404 467 438
f 469 467 404
f 470 408 406
f 470 406 350
f 407 469 378
f 408 470 439
f 439 353 408
f 353 439 354
f 354 439 496
f 324 357 407
f 496 409 354
f 357 380 497
f 410 473 380
f 410 474 531
f 410 531 473
f 411 472 475
f 499 381 532
f 381 499 440
f 382 532 329
f 361 502 382
f 412 475 413
f 590 635 361
f 476 503 416
f 417 365 504
f 416 503 365
f 385 442 418
f 418 442 443
f 443 419 418
f 420 444 442
f 450 419 443
f 443 442 444
f 419 450 422
f 420 445 444
f 423 446 420
f 445 420 446
f 449 422 450
f 451 424 426
f 451 426 447
f 453 451 447
f 425 449 448
f 453 538 451
f 448 455 427
f 448 483 455
f 483 448 449
f 452 449 450
f 427 455 454
f 453 447 456
f 452 483 449
f 431 484 456
f 455 485 454
f 485 430 454
f 431 486 484
f 458 457 485
f 458 485 459
f 458 432 457
f 460 432 458
f 460 461 432
f 486 431 487
f 458 459 460
f 434 431 433
f 431 434 487
f 460 489 461
f 512 462 397
f 516 512 397
f 463 465 517
f 517 465 436
f 466 435 464
f 466 399 372
f 466 372 435
f 466 519 399
f 436 491 576
f 437 520 491
f 437 438 520
f 554 493 403
f 468 467 469
f 405 403 493
f 494 405 493
f 523 350 405
f 523 470 350
f 470 523 557
f 439 470 495
f 471 469 407
f 496 439 495
f 357 497 407
f 497 471 407
f 379 409 527
f 527 472 379
f 380 473 497
f 527 611 472
f 499 500 440
f 361 635 502
f 413 475 476
f 614 590 441
f 365 534 504
f 365 503 534
f 444 506 443
f 444 445 506
f 443 506 479
f 424 480 423
f 480 446 423
f 505 424 451
f 479 481 450
f 479 450 443
f 538 505 451
f 450 481 452
f 538 453 482
f 453 456 482
f 484 482 456
f 547 483 452
f 511 485 455
f 511 455 483
f 483 547 511
f 485 511 459
f 488 510 487
f 513 460 459
f 487 434 488
f 488 434 462
f 513 489 460
f 513 515 489
f 396 489 515
f 514 516 398
f 396 515 464
f 514 398 463
f 514 463 517
f 490 464 515
f 466 464 490
f 519 400 399
f 553 400 519
f 553 403 400
f 554 403 553
f 467 555 438
f 492 521 467
f 468 492 467
f 524 522 468
f 469 524 468
f 468 522 492
f 494 523 405
f 557 495 470
f 471 524 469
f 471 525 524
f 527 409 496
f 473 498 497
f 531 498 473
f 530 472 611
f 475 472 559
f 475 559 501
f 475 501 476
f 501 533 476
f 414 614 441
f 476 533 503
f 417 504 478
f 446 535 445
f 424 505 480
f 506 445 535
f 480 505 563
f 508 481 479
f 481 545 452
f 596 482 484
f 452 545 509
f 508 545 481
f 452 509 547
f 544 543 510
f 487 510 486
f 510 488 544
f 544 488 546
f 549 459 511
f 546 488 512
f 459 549 513
f 488 462 512
f 516 514 548
f 517 548 514
f 436 576 517
f 551 466 490
f 551 552 466
f 552 519 466
f 576 491 518
f 578 491 520
f 556 494 493
f 524 610 522
f 610 524 525
f 557 526 495
f 656 526 557
f 471 528 525
f 526 496 495
f 497 528 471
f 496 526 527
f 497 529 528
f 498 529 497
f 498 582 529
f 531 474 583
f 500 583 474
f 530 559 472
f 587 499 532
f 501 559 634
f 382 502 532
f 502 588 532
f 634 533 501
f 533 592 503
f 477 478 591
f 504 534 562
f 478 504 660
f 660 504 562
f 503 561 534
f 480 507 446
f 446 507 535
f 564 535 507
f 537 535 564
f 563 507 480
f 536 563 505
f 505 538 536
f 537 479 506
f 535 537 506
f 538 540 536
f 537 539 479
f 539 537 568
f 537 564 568
f 540 538 569
f 482 569 538
f 479 539 508
f 508 539 541
f 541 539 542
f 539 568 542
f 508 541 545
f 544 600 594
f 573 545 541
f 486 596 484
f 571 596 486
f 510 571 486
f 510 543 571
f 543 544 594
f 544 546 600
f 509 574 547
f 509 545 574
f 511 547 549
f 546 512 516
f 546 516 548
f 549 515 513
f 515 549 550
f 517 575 548
f 624 550 549
f 550 490 515
f 550 551 490
f 518 491 578
f 552 577 553
f 519 552 553
f 520 606 578
f 438 606 520
f 553 577 554
f 467 521 555
f 556 493 608
f 629 556 608
f 630 523 494
f 557 523 630
f 528 581 525
f 581 529 632
f 632 529 582
f 531 558 498
f 498 558 582
f 531 583 558
f 559 530 681
f 585 500 499
f 500 585 583
f 499 587 585
f 532 588 587
f 589 588 502
f 635 613 502
f 502 613 589
f 590 614 635
f 414 591 560
f 414 560 614
f 562 534 561
f 507 563 566
f 507 566 564
f 536 565 563
f 536 567 565
f 540 567 536
f 566 563 565
f 540 595 567
f 570 540 569
f 595 540 570
f 596 569 482
f 601 541 542
f 571 543 572
f 572 543 594
f 545 573 602
f 573 541 601
f 545 602 574
f 622 547 574
f 623 547 622
f 622 574 602
f 547 623 549
f 549 623 624
f 517 576 575
f 576 604 575
f 551 605 577
f 551 577 552
f 518 578 625
f 607 554 577
f 555 606 438
f 607 580 554
f 521 579 555
f 580 493 554
f 608 493 580
f 677 556 629
f 677 494 556
f 494 677 630
f 656 557 630
f 611 527 526
f 529 581 528
f 681 584 559
f 583 585 586
f 636 592 533
f 478 660 591
f 561 503 592
f 566 599 564
f 566 565 615
f 615 567 595
f 565 567 615
f 564 599 568
f 599 566 615
f 619 599 615
f 595 570 617
f 596 597 569
f 569 597 570
f 572 594 593
f 542 568 598
f 596 571 597
f 597 571 572
f 598 568 599
f 598 601 542
f 601 621 573
f 689 601 598
f 621 601 689
f 621 602 573
f 575 645 548
f 648 602 621
f 622 602 648
f 604 603 575
f 624 623 691
f 604 576 518
f 671 604 518
f 624 551 550
f 551 624 605
f 607 577 605
f 555 628 606
f 627 580 607
f 579 628 555
f 654 608 580
f 492 653 521
f 609 653 492
f 522 609 492
f 679 522 610
f 581 610 525
f 632 612 581
f 558 583 685
f 558 685 582
f 584 633 559
f 634 559 633
f 588 589 742
f 636 533 634
f 592 636 701
f 562 661 660
f 561 704 562
f 597 593 637
f 642 617 637
f 617 597 637
f 637 593 662
f 595 618 615
f 617 616 595
f 616 617 642
f 594 639 593
f 618 595 616
f 617 570 597
f 593 597 572
f 615 618 619
f 598 620 689
f 620 599 688
f 598 599 620
f 548 645 546
f 621 689 670
f 575 603 645
f 603 649 669
f 648 647 622
f 604 649 603
f 673 622 647
f 625 671 518
f 626 624 691
f 626 651 624
f 624 651 605
f 606 650 578
f 652 627 607
f 580 627 654
f 521 653 579
f 654 629 608
f 522 679 609
f 630 677 655
f 655 656 630
f 610 631 679
f 581 631 610
f 612 631 581
f 657 611 526
f 611 657 530
f 631 612 698
f 657 681 530
f 582 685 632
f 586 699 583
f 583 699 685
f 742 587 588
f 591 761 560
f 660 703 591
f 642 637 663
f 663 637 638
f 662 638 637
f 639 662 593
f 687 616 642
f 641 616 687
f 687 642 663
f 594 640 639
f 640 600 664
f 616 641 618
f 641 643 618
f 640 594 600
f 618 643 619
f 664 600 644
f 600 546 644
f 619 688 599
f 619 643 688
f 666 643 641
f 666 641 709
f 644 546 645
f 688 643 666
f 667 620 688
f 689 620 646
f 646 620 667
f 670 648 621
f 671 649 604
f 673 623 622
f 691 623 673
f 578 650 625
f 651 626 692
f 605 651 674
f 605 652 607
f 674 652 605
f 675 654 627
f 579 694 628
f 609 676 653
f 609 678 676
f 696 677 629
f 679 678 609
f 633 737 658
f 586 717 699
f 634 633 658
f 585 741 586
f 717 586 741
f 585 587 700
f 587 719 700
f 634 658 636
f 636 658 659
f 701 636 659
f 703 761 591
f 640 664 662
f 639 640 662
f 663 708 687
f 641 687 709
f 645 603 669
f 645 669 665
f 667 688 668
f 688 666 746
f 647 648 670
f 671 711 672
f 625 711 671
f 692 674 651
f 627 652 674
f 693 627 674
f 653 694 579
f 695 629 654
f 526 656 680
f 679 631 682
f 657 526 680
f 682 631 698
f 681 657 697
f 584 681 697
f 682 698 683
f 612 684 698
f 632 684 612
f 585 700 741
f 587 742 719
f 614 720 635
f 560 702 614
f 614 702 720
f 721 660 661
f 562 704 661
f 665 686 664
f 664 686 662
f 705 638 662
f 686 705 662
f 644 665 664
f 638 706 663
f 638 705 706
f 644 645 665
f 663 706 708
f 665 669 726
f 709 687 724
f 724 687 708
f 798 746 666
f 798 666 709
f 726 669 649
f 689 646 749
f 727 670 689
f 671 672 649
f 647 670 727
f 647 710 673
f 711 728 672
f 673 710 690
f 690 691 673
f 691 712 626
f 712 691 690
f 625 650 711
f 626 712 692
f 693 674 692
f 693 713 627
f 713 675 627
f 755 654 675
f 695 654 755
f 694 653 676
f 696 629 695
f 678 714 676
f 771 655 677
f 655 771 715
f 656 655 734
f 734 680 656
f 682 678 679
f 791 633 584
f 685 738 632
f 632 738 684
f 658 737 718
f 658 718 659
f 776 719 742
f 720 613 635
f 613 720 775
f 589 613 775
f 775 742 589
f 703 660 721
f 592 704 561
f 661 704 743
f 722 705 686
f 722 686 665
f 723 722 665
f 778 706 705
f 707 723 665
f 726 707 665
f 668 688 746
f 649 672 726
f 749 727 689
f 710 647 727
f 710 729 690
f 690 729 730
f 712 690 730
f 711 650 766
f 712 730 731
f 606 785 650
f 606 628 785
f 712 731 692
f 731 693 692
f 754 713 693
f 732 713 754
f 755 675 713
f 694 676 769
f 676 756 769
f 714 756 676
f 733 677 696
f 733 771 677
f 715 734 655
f 678 736 714
f 680 734 735
f 682 736 678
f 791 584 697
f 683 736 682
f 698 739 683
f 791 737 633
f 698 684 739
f 739 684 738
f 685 699 716
f 685 716 738
f 718 794 659
f 794 701 659
f 860 720 702
f 592 701 774
f 592 774 839
f 560 761 702
f 704 592 743
f 592 839 743
f 795 661 743
f 778 796 706
f 778 705 722
f 722 723 744
f 725 723 707
f 646 667 749
f 780 667 668
f 727 750 710
f 710 750 729
f 729 750 764
f 785 766 650
f 628 694 785
f 693 731 754
f 732 755 713
f 680 735 657
f 683 758 736
f 739 758 683
f 739 759 758
f 716 740 738
f 738 740 739
f 699 717 716
f 794 838 701
f 774 701 838
f 760 775 720
f 720 860 760
f 661 795 721
f 722 744 778
f 745 744 723
f 798 709 724
f 725 745 723
f 747 725 707
f 748 725 747
f 726 747 707
f 667 780 749
f 748 747 762
f 726 672 747
f 672 765 747
f 765 762 747
f 765 672 728
f 763 727 749
f 763 750 727
f 781 750 763
f 764 750 781
f 729 764 730
f 730 764 751
f 730 751 753
f 730 753 731
f 752 753 751
f 694 768 785
f 769 768 694
f 786 732 754
f 786 754 731
f 788 696 695
f 714 812 756
f 788 733 696
f 736 757 714
f 735 734 816
f 739 772 759
f 739 740 772
f 737 833 718
f 700 836 741
f 700 719 773
f 719 776 773
f 819 743 839
f 761 703 821
f 777 708 706
f 796 777 706
f 708 777 724
f 744 799 778
f 745 799 744
f 746 798 895
f 745 779 799
f 725 748 745
f 780 668 746
f 780 746 895
f 779 745 748
f 802 748 762
f 711 765 728
f 781 783 764
f 765 711 782
f 766 782 711
f 767 764 783
f 764 767 751
f 751 767 752
f 768 805 785
f 752 808 753
f 753 808 786
f 731 753 786
f 756 807 769
f 755 732 770
f 770 732 786
f 695 755 770
f 787 695 770
f 789 733 788
f 789 771 733
f 734 715 816
f 735 697 657
f 833 737 791
f 718 833 792
f 716 717 908
f 716 908 883
f 716 883 740
f 741 836 717
f 700 773 793
f 836 700 793
f 776 887 773
f 775 818 742
f 742 818 776
f 775 760 818
f 797 778 799
f 748 801 779
f 863 780 895
f 748 802 801
f 749 800 763
f 749 780 800
f 763 800 781
f 781 804 783
f 785 806 784
f 766 785 784
f 826 767 783
f 807 768 769
f 808 810 786
f 786 810 770
f 695 787 788
f 815 771 789
f 715 771 815
f 736 790 757
f 735 832 697
f 740 834 772
f 834 881 772
f 881 759 772
f 740 883 834
f 717 836 908
f 793 773 887
f 776 890 887
f 760 910 818
f 820 721 795
f 821 702 761
f 819 892 743
f 892 795 743
f 721 820 703
f 894 796 797
f 796 778 797
f 779 823 799
f 779 801 823
f 800 843 781
f 800 780 863
f 762 803 802
f 782 803 765
f 803 762 765
f 843 804 781
f 824 803 782
f 782 766 784
f 806 785 805
f 826 783 804
f 825 806 805
f 805 849 825
f 768 849 805
f 752 767 826
f 768 807 849
f 827 808 752
f 809 810 808
f 809 808 827
f 770 828 787
f 770 810 828
f 811 787 828
f 829 828 810
f 788 787 811
f 813 788 811
f 813 789 788
f 814 789 813
f 814 815 789
f 831 715 815
f 816 715 831
f 790 878 757
f 791 697 832
f 758 790 736
f 758 817 790
f 791 832 833
f 758 759 817
f 792 837 718
f 794 718 837
f 794 837 838
f 818 975 776
f 776 975 890
f 760 860 910
f 822 795 892
f 820 795 822
f 703 820 821
f 777 796 894
f 797 799 823
f 863 843 800
f 802 844 801
f 842 823 801
f 842 801 844
f 803 844 802
f 784 824 782
f 847 824 784
f 806 847 784
f 826 804 848
f 806 825 847
f 827 752 826
f 756 812 807
f 810 809 829
f 829 809 850
f 851 830 828
f 830 811 828
f 830 813 811
f 851 828 829
f 851 829 850
f 714 757 812
f 813 830 814
f 831 853 854
f 831 815 853
f 816 831 832
f 832 735 816
f 832 859 833
f 759 857 817
f 881 857 759
f 859 792 833
f 792 882 835
f 837 835 885
f 792 835 837
f 888 887 890
f 891 910 860
f 861 840 822
f 822 840 820
f 820 840 841
f 820 841 821
f 894 893 777
f 916 798 724
f 724 777 893
f 916 895 798
f 797 823 842
f 863 917 843
f 917 864 843
f 824 846 803
f 846 844 803
f 843 864 845
f 804 843 845
f 847 846 824
f 848 804 845
f 847 825 867
f 825 868 867
f 900 809 827
f 850 809 900
f 852 830 851
f 853 814 830
f 853 830 852
f 853 815 814
f 832 831 854
f 855 854 876
f 855 832 854
f 832 855 859
f 855 879 856
f 859 855 856
f 858 859 856
f 859 858 882
f 792 859 882
f 835 884 885
f 836 793 886
f 838 837 885
f 838 839 774
f 818 910 975
f 702 821 958
f 702 958 860
f 892 861 822
f 861 912 840
f 916 724 862
f 862 724 893
f 897 842 844
f 897 844 846
f 847 866 846
f 846 866 865
f 867 866 847
f 849 868 825
f 807 869 849
f 848 870 826
f 827 826 870
f 812 869 807
f 827 870 899
f 812 871 869
f 827 899 900
f 850 900 901
f 757 871 812
f 926 850 901
f 873 851 850
f 850 926 873
f 852 873 872
f 851 873 852
f 874 853 872
f 872 853 852
f 757 878 871
f 902 872 873
f 874 872 902
f 875 874 902
f 874 876 853
f 876 874 875
f 876 854 853
f 876 875 877
f 876 879 855
f 876 877 879
f 856 879 906
f 880 856 906
f 858 856 880
f 882 858 930
f 883 952 834
f 952 881 834
f 952 931 881
f 908 952 883
f 884 835 882
f 933 909 884
f 884 909 885
f 793 887 886
f 909 889 838
f 885 909 838
f 887 888 954
f 889 839 838
f 889 819 839
f 958 891 860
f 821 841 913
f 821 913 958
f 939 894 797
f 919 939 797
f 919 797 842
f 918 863 895
f 918 917 863
f 864 920 896
f 864 896 845
f 896 898 845
f 845 898 848
f 848 898 870
f 898 921 870
f 869 868 849
f 869 923 868
f 870 922 899
f 870 921 922
f 871 923 869
f 871 925 923
f 900 899 924
f 945 900 924
f 901 900 945
f 871 903 925
f 878 903 871
f 926 902 873
f 875 902 949
f 878 904 903
f 877 875 949
f 905 879 877
f 879 905 906
f 790 951 878
f 905 928 906
f 930 858 880
f 884 882 930
f 884 930 933
f 953 836 886
f 836 953 908
f 909 933 934
f 886 887 954
f 888 890 975
f 935 909 934
f 909 935 889
f 935 911 889
f 891 956 910
f 889 911 819
f 914 892 819
f 911 914 819
f 914 861 892
f 912 861 915
f 840 913 841
f 914 937 861
f 861 937 915
f 862 893 938
f 893 894 938
f 938 894 939
f 960 895 916
f 917 920 864
f 942 920 961
f 896 920 942
f 941 897 846
f 1000 942 961
f 865 941 846
f 896 942 898
f 865 866 999
f 898 942 921
f 982 866 867
f 868 982 867
f 868 962 982
f 868 923 962
f 922 924 899
f 1048 925 903
f 1048 903 904
f 926 948 902
f 949 902 948
f 927 877 949
f 949 968 927
f 878 951 904
f 905 877 927
f 927 950 905
f 905 950 928
f 817 907 790
f 906 928 929
f 817 987 907
f 857 987 817
f 906 929 880
f 929 930 880
f 931 857 881
f 930 929 972
f 908 953 952
f 933 930 972
f 933 972 932
f 955 933 932
f 934 933 955
f 934 955 935
f 911 974 957
f 910 956 975
f 936 911 957
f 913 840 979
f 936 914 911
f 937 914 936
f 937 978 915
f 915 979 912
f 912 979 840
f 960 916 862
f 992 938 939
f 960 918 895
f 842 897 980
f 918 940 917
f 940 918 960
f 917 940 920
f 940 997 920
f 997 961 920
f 942 1000 943
f 942 943 921
f 921 943 963
f 963 922 921
f 923 944 962
f 922 963 964
f 925 944 923
f 922 964 924
f 964 945 924
f 965 901 945
f 1048 946 925
f 947 926 901
f 947 948 926
f 969 927 968
f 969 950 927
f 907 951 790
f 928 970 929
f 970 971 929
f 972 929 971
f 955 932 1034
f 973 955 1034
f 888 991 954
f 974 955 973
f 974 935 955
f 975 991 888
f 974 911 935
f 891 959 956
f 976 936 957
f 913 959 958
f 976 937 936
f 976 978 937
f 862 993 960
f 919 842 980
f 960 981 940
f 997 940 981
f 961 997 1043
f 999 866 982
f 984 964 963
f 946 944 925
f 965 945 964
f 964 985 965
f 964 984 985
f 965 947 901
f 965 966 947
f 965 985 966
f 947 966 948
f 967 966 1004
f 948 966 967
f 948 968 949
f 948 967 968
f 968 967 1005
f 968 1005 969
f 951 1065 904
f 1050 950 969
f 907 1066 951
f 986 950 1050
f 986 928 950
f 928 986 970
f 857 988 987
f 857 931 988
f 972 971 989
f 1006 989 971
f 1007 931 952
f 972 989 932
f 952 1033 1007
f 932 989 1034
f 886 954 1008
f 956 990 975
f 1009 976 974
f 976 957 974
f 958 959 891
f 959 977 956
f 913 1012 959
f 978 1042 915
f 915 1042 979
f 862 938 993
f 938 992 994
f 993 938 994
f 995 939 919
f 995 919 980
f 993 1017 960
f 960 1017 981
f 998 980 897
f 941 998 897
f 1020 941 865
f 1020 865 999
f 983 999 982
f 1000 1045 943
f 983 982 962
f 943 1045 1025
f 944 983 962
f 943 1025 963
f 944 1003 983
f 944 1075 1003
f 963 1025 984
f 984 1025 1047
f 1075 944 946
f 1047 985 984
f 907 987 1066
f 986 1030 970
f 1030 971 970
f 988 931 1029
f 953 1033 952
f 886 1008 953
f 1008 1033 953
f 954 991 1037
f 954 1037 1008
f 991 975 990
f 977 990 956
f 976 1009 1010
f 979 1012 913
f 1015 994 992
f 995 992 939
f 995 1015 992
f 1018 995 980
f 1061 993 994
f 996 1018 980
f 980 998 996
f 1020 998 941
f 1043 1022 961
f 1002 1020 999
f 961 1022 1000
f 1002 1064 1020
f 983 1001 999
f 1002 999 1001
f 1003 1024 983
f 983 1024 1001
f 1026 985 1047
f 1005 1050 969
f 1030 1006 971
f 1007 1029 931
f 1009 974 973
f 1038 991 990
f 991 1038 1037
f 977 1011 990
f 990 1011 1038
f 1010 1057 976
f 1039 1057 1010
f 959 1012 977
f 1057 978 976
f 978 1013 1042
f 1042 1058 979
f 995 1014 1015
f 1014 995 1018
f 993 1060 1017
f 1060 993 1061
f 994 1015 1061
f 1014 1018 1016
f 996 1019 1018
f 998 1019 996
f 981 1021 997
f 1017 1021 981
f 1020 1019 998
f 1021 1043 997
f 1021 1017 1062
f 1046 1019 1020
f 1044 1019 1046
f 1064 1046 1020
f 1000 1022 1045
f 1002 1023 1064
f 1063 1025 1045
f 1001 1023 1002
f 1024 1023 1001
f 1075 1024 1003
f 1089 966 985
f 1090 1004 966
f 1065 1028 904
f 1027 1050 1005
f 951 1066 1065
f 986 1078 1030
f 1007 1031 1029
f 1032 989 1006
f 1032 1106 989
f 1106 1034 989
f 1033 1035 1007
f 1033 1008 1035
f 1034 1106 973
f 1036 1009 973
f 1037 1038 1052
f 1036 1010 1009
f 1041 1038 1011
f 977 1040 1011
f 1040 1041 1011
f 1040 977 1012
f 979 1058 1012
f 1012 1058 1040
f 1083 1061 1015
f 1014 1085 1015
f 1019 1016 1018
f 1017 1060 1062
f 1014 1016 1085
f 1044 1016 1019
f 1073 1022 1043
f 1063 1045 1022
f 1064 1023 1074
f 1023 1024 1074
f 1024 1125 1074
f 1063 1047 1025
f 946 1076 1075
f 1076 946 1048
f 1089 985 1026
f 966 1089 1090
f 1048 904 1101
f 1004 1049 967
f 1028 1101 904
f 1049 1005 967
f 1027 1005 1049
f 1050 1027 1077
f 987 1067 1066
f 986 1050 1103
f 1078 986 1103
f 987 1117 1067
f 987 988 1117
f 1006 1030 1078
f 1035 1068 1031
f 1035 1031 1007
f 1008 1051 1035
f 1106 1036 973
f 1052 1069 1051
f 1052 1008 1037
f 1052 1051 1008
f 1052 1071 1070
f 1052 1070 1069
f 1036 1094 1010
f 1053 1055 1071
f 1053 1071 1052
f 1039 1010 1094
f 1055 1053 1054
f 1054 1053 1038
f 1038 1053 1052
f 1041 1054 1038
f 1056 1054 1041
f 1056 1055 1054
f 1040 1056 1041
f 1081 1057 1039
f 978 1057 1013
f 1040 1058 1059
f 1058 1042 1082
f 1058 1082 1059
f 1015 1084 1083
f 1015 1085 1084
f 1021 1073 1043
f 1063 1022 1112
f 1089 1026 1116
f 1090 1049 1004
f 1027 1049 1102
f 1077 1103 1050
f 1006 1078 1032
f 988 1029 1105
f 1031 1105 1029
f 1107 1106 1032
f 1051 1080 1068
f 1069 1080 1051
f 1051 1068 1035
f 1071 1093 1070
f 1056 1072 1055
f 1059 1082 1072
f 1040 1059 1056
f 1059 1072 1056
f 1057 1081 1013
f 1013 1082 1042
f 1061 1083 1060
f 1122 1062 1060
f 1021 1062 1073
f 1046 1100 1044
f 1100 1016 1044
f 1087 1046 1064
f 1134 1047 1063
f 1088 1064 1074
f 1024 1075 1125
f 1026 1047 1115
f 1077 1027 1102
f 1105 1117 988
f 1031 1079 1105
f 1031 1068 1079
f 1079 1080 1091
f 1068 1080 1079
f 1070 1093 1069
f 1069 1093 1080
f 1071 1118 1093
f 1055 1095 1071
f 1072 1095 1055
f 1082 1097 1072
f 1081 1096 1013
f 1082 1096 1120
f 1013 1096 1082
f 1082 1120 1097
f 1083 1122 1060
f 1085 1111 1084
f 1073 1062 1122
f 1073 1086 1022
f 1113 1016 1100
f 1112 1022 1086
f 1087 1100 1046
f 1088 1087 1064
f 1047 1134 1115
f 1115 1116 1026
f 1141 1102 1049
f 1066 1128 1065
f 1129 1103 1077
f 1067 1128 1066
f 1104 1078 1103
f 1032 1078 1104
f 1080 1092 1091
f 1093 1092 1080
f 1093 1118 1108
f 1071 1095 1118
f 1095 1072 1109
f 1110 1096 1039
f 1096 1081 1039
f 1148 1097 1120
f 1097 1109 1072
f 1121 1083 1084
f 1121 1122 1083
f 1085 1016 1111
f 1086 1073 1098
f 1123 1111 1099
f 1016 1099 1111
f 1113 1099 1016
f 1063 1112 1134
f 1114 1100 1087
f 1114 1087 1153
f 1088 1153 1087
f 1074 1136 1088
f 1125 1075 1138
f 1076 1138 1075
f 1028 1127 1101
f 1128 1028 1065
f 1092 1131 1091
f 1093 1108 1092
f 1095 1132 1118
f 1095 1109 1119
f 1110 1039 1094
f 1097 1148 1109
f 1122 1098 1073
f 1084 1111 1121
f 1115 1134 1135
f 1124 1116 1115
f 1137 1074 1125
f 1089 1116 1154
f 1076 1048 1126
f 1139 1089 1154
f 1101 1126 1048
f 1139 1090 1089
f 1139 1049 1090
f 1139 1141 1049
f 1077 1102 1141
f 1129 1077 1141
f 1028 1128 1127
f 1067 1142 1128
f 1104 1103 1129
f 1117 1142 1067
f 1104 1167 1032
f 1105 1079 1117
f 1079 1091 1131
f 1079 1131 1130
f 1107 1032 1187
f 1118 1171 1108
f 1118 1132 1171
f 1132 1095 1119
f 1121 1149 1122
f 1123 1099 1151
f 1152 1113 1100
f 1124 1115 1135
f 1137 1136 1074
f 1126 1101 1127
f 1129 1141 1140
f 1129 1164 1104
f 1167 1104 1143
f 1130 1117 1079
f 1187 1032 1167
f 1131 1169 1130
f 1107 1145 1106
f 1106 1145 1036
f 1145 1146 1036
f 1036 1146 1094
f 1094 1172 1110
f 1147 1096 1110
f 1147 1120 1096
f 1148 1120 1147
f 1098 1122 1149
f 1086 1098 1173
f 1149 1121 1133
f 1111 1133 1121
f 1111 1123 1133
f 1112 1086 1173
f 1134 1112 1176
f 1151 1099 1152
f 1099 1113 1152
f 1100 1114 1152
f 1088 1136 1153
f 1116 1124 1154
f 1126 1138 1076
f 1161 1139 1154
f 1139 1140 1141
f 1128 1156 1127
f 1129 1140 1164
f 1164 1143 1104
f 1144 1142 1117
f 1168 1144 1117
f 1168 1117 1130
f 1131 1092 1199
f 1108 1199 1092
f 1171 1132 1157
f 1172 1094 1146
f 1119 1157 1132
f 1119 1109 1158
f 1133 1150 1149
f 1133 1175 1150
f 1173 1176 1112
f 1123 1160 1133
f 1160 1123 1151
f 1135 1134 1176
f 1152 1192 1151
f 1152 1114 1153
f 1125 1162 1137
f 1138 1162 1125
f 1126 1155 1138
f 1127 1155 1126
f 1161 1140 1139
f 1142 1156 1128
f 1142 1144 1156
f 1167 1143 1166
f 1119 1158 1157
f 1109 1148 1158
f 1147 1189 1148
f 1159 1098 1149
f 1150 1159 1149
f 1174 1176 1173
f 1133 1160 1175
f 1193 1160 1151
f 1153 1179 1152
f 1124 1135 1177
f 1177 1135 1201
f 1178 1152 1179
f 1179 1153 1136
f 1136 1163 1179
f 1137 1163 1136
f 1154 1124 1177
f 1161 1154 1177
f 1163 1137 1162
f 1163 1162 1182
f 1182 1162 1138
f 1155 1182 1138
f 1183 1140 1161
f 1127 1165 1155
f 1127 1156 1165
f 1164 1140 1183
f 1156 1194 1165
f 1144 1194 1156
f 1144 1168 1194
f 1168 1130 1169
f 1167 1237 1187
f 1131 1199 1170
f 1131 1170 1169
f 1145 1107 1187
f 1108 1188 1199
f 1188 1171 1200
f 1171 1188 1108
f 1189 1147 1110
f 1158 1148 1216
f 1148 1189 1216
f 1098 1174 1173
f 1159 1174 1098
f 1150 1175 1159
f 1203 1175 1160
f 1201 1135 1176
f 1193 1204 1160
f 1192 1193 1151
f 1152 1178 1192
f 1163 1180 1179
f 1161 1177 1181
f 1183 1161 1181
f 1183 1184 1164
f 1155 1165 1194
f 1164 1184 1143
f 1143 1184 1166
f 1168 1185 1194
f 1168 1196 1185
f 1166 1237 1167
f 1169 1186 1196
f 1169 1196 1168
f 1170 1186 1169
f 1187 1212 1145
f 1157 1158 1241
f 1158 1216 1241
f 1190 1174 1159
f 1190 1159 1175
f 1176 1217 1201
f 1217 1176 1174
f 1203 1190 1175
f 1191 1177 1201
f 1177 1220 1181
f 1178 1205 1192
f 1179 1180 1178
f 1208 1163 1182
f 1155 1208 1182
f 1155 1195 1208
f 1155 1194 1195
f 1183 1229 1184
f 1185 1195 1194
f 1234 1166 1184
f 1195 1185 1210
f 1185 1196 1210
f 1186 1197 1196
f 1198 1197 1170
f 1170 1197 1186
f 1199 1198 1170
f 1237 1212 1187
f 1188 1213 1199
f 1212 1146 1145
f 1200 1213 1188
f 1171 1157 1200
f 1146 1243 1172
f 1244 1110 1172
f 1244 1189 1110
f 1216 1189 1215
f 1174 1202 1217
f 1190 1202 1174
f 1191 1201 1217
f 1191 1220 1177
f 1190 1219 1202
f 1219 1190 1203
f 1160 1204 1203
f 1204 1222 1203
f 1224 1204 1193
f 1192 1205 1193
f 1224 1193 1205
f 1225 1205 1178
f 1181 1220 1226
f 1228 1178 1207
f 1226 1183 1181
f 1207 1178 1180
f 1207 1180 1206
f 1206 1180 1163
f 1208 1206 1163
f 1229 1183 1226
f 1209 1184 1229
f 1195 1210 1208
f 1184 1209 1234
f 1234 1237 1166
f 1197 1211 1210
f 1197 1210 1196
f 1198 1211 1197
f 1213 1198 1199
f 1237 1262 1212
f 1262 1146 1212
f 1200 1214 1213
f 1157 1240 1214
f 1157 1214 1200
f 1262 1243 1146
f 1243 1244 1172
f 1244 1245 1189
f 1189 1245 1215
f 1217 1218 1191
f 1218 1217 1202
f 1191 1218 1220
f 1220 1218 1221
f 1221 1218 1202
f 1202 1219 1246
f 1221 1202 1246
f 1246 1219 1223
f 1203 1222 1219
f 1220 1221 1227
f 1223 1219 1247
f 1204 1224 1222
f 1227 1226 1220
f 1247 1219 1222
f 1205 1225 1224
f 1250 1268 1247
f 1222 1250 1247
f 1250 1222 1224
f 1178 1228 1225
f 1250 1224 1252
f 1252 1224 1225
f 1252 1225 1228
f 1207 1232 1228
f 1230 1228 1232
f 1253 1229 1226
f 1231 1230 1232
f 1207 1206 1232
f 1209 1229 1253
f 1231 1232 1206
f 1231 1206 1233
f 1210 1233 1208
f 1208 1233 1206
f 1209 1253 1235
f 1234 1209 1235
f 1236 1231 1233
f 1234 1235 1237
f 1211 1233 1210
f 1236 1233 1211
f 1260 1237 1235
f 1258 1236 1211
f 1198 1238 1258
f 1198 1258 1211
f 1239 1261 1238
f 1239 1238 1213
f 1213 1238 1198
f 1214 1239 1213
f 1214 1240 1239
f 1157 1242 1240
f 1241 1242 1157
f 1263 1244 1243
f 1216 1215 1241
f 1251 1227 1221
f 1246 1251 1221
f 1248 1227 1251
f 1251 1246 1249
f 1249 1246 1223
f 1247 1249 1223
f 1249 1247 1268
f 1227 1267 1226
f 1227 1248 1267
f 1254 1268 1250
f 1228 1230 1252
f 1267 1253 1226
f 1254 1250 1252
f 1254 1252 1230
f 1255 1254 1230
f 1256 1255 1230
f 1256 1230 1231
f 1256 1231 1236
f 1235 1257 1260
f 1275 1256 1259
f 1259 1256 1258
f 1258 1256 1236
f 1260 1257 1277
f 1259 1258 1238
f 1276 1260 1277
f 1259 1261 1278
f 1261 1259 1238
f 1260 1262 1237
f 1260 1276 1262
f 1261 1240 1279
f 1240 1261 1239
f 1262 1276 1280
f 1262 1263 1243
f 1262 1280 1263
f 1242 1279 1240
f 1241 1215 1242
f 1263 1280 1264
f 1244 1263 1264
f 1244 1264 1245
f 1245 1264 1282
f 1245 1282 1215
f 1267 1248 1271
f 1265 1248 1251
f 1271 1248 1265
f 1265 1251 1249
f 1266 1249 1268
f 1267 1269 1253
f 1265 1249 1266
f 1269 1235 1253
f 1269 1267 1271
f 1266 1268 1273
f 1273 1268 1254
f 1273 1254 1272
f 1271 1265 1270
f 1255 1272 1254
f 1235 1269 1257
f 1269 1274 1257
f 1274 1269 1271
f 1273 1272 1275
f 1275 1272 1255
f 1256 1275 1255
f 1257 1274 1277
f 1285 1273 1275
f 1275 1278 1285
f 1278 1275 1259
f 1276 1277 1280
f 1261 1287 1278
f 1279 1286 1287
f 1279 1287 1261
f 1282 1286 1279
f 1264 1280 1281
f 1264 1281 1282
f 1282 1279 1242
f 1215 1282 1242
f 1266 1283 1265
f 1266 1273 1283
f 1274 1271 1270
f 1265 1283 1270
f 1284 1270 1283
f 1274 1270 1284
f 1285 1283 1273
f 1286 1283 1285
f 1284 1283 1286
f 1281 1284 1286
f 1287 1285 1278
f 1274 1284 1277
f 1277 1284 1280
f 1284 1281 1280
f 1286 1285 1287
f 1282 1281 1286
# 2570 faces, 0 coords texture

# End of File
