####
#
# OBJ File Generated by Meshlab
#
####
# Object AL-DA4mL.obj
#
# Vertices: 618
# Faces: 1232
#
####
v 32007.355469 35055.746094 25006.744141
v 32085.505859 35004.378906 25007.765625
v 31923.000000 35037.277344 25008.263672
v 32151.683594 34952.507812 25018.689453
v 32235.324219 35021.132812 25014.595703
v 32010.425781 35089.398438 25022.802734
v 32190.568359 35086.808594 25019.824219
v 32153.541016 35151.730469 25047.705078
v 32308.281250 35119.601562 25048.111328
v 31898.261719 34862.984375 25056.578125
v 31955.253906 34802.203125 25079.839844
v 32076.507812 34834.269531 25060.486328
v 31895.681641 34933.222656 25024.238281
v 32036.068359 34869.617188 25045.785156
v 31984.460938 34980.898438 25007.070312
v 32247.986328 34916.515625 25038.087891
v 31744.259766 34970.093750 25039.269531
v 31783.035156 35008.683594 25034.359375
v 32303.148438 35051.902344 25032.000000
v 31890.818359 35064.558594 25028.744141
v 32280.048828 35196.367188 25085.494141
v 32200.958984 35132.335938 25036.621094
v 31790.826172 34816.082031 25100.666016
v 31703.345703 34909.234375 25068.132812
v 32154.234375 34846.574219 25058.937500
v 31837.318359 34905.218750 25043.398438
v 31811.173828 34964.562500 25024.458984
v 32387.353516 34911.648438 25068.371094
v 32437.935547 34955.003906 25067.775391
v 31628.097656 35024.726562 25091.031250
v 31786.367188 35092.042969 25083.050781
v 32007.103516 35139.671875 25062.697266
v 32090.152344 35190.625000 25100.111328
v 32002.824219 34749.136719 25111.742188
v 31877.900391 34755.308594 25130.068359
v 32086.345703 34765.707031 25095.744141
v 31735.363281 34811.917969 25120.015625
v 31612.837891 34887.800781 25115.064453
v 31625.580078 34956.417969 25080.759766
v 31626.123047 34990.996094 25076.673828
v 32477.115234 35203.941406 25119.718750
v 32298.730469 34779.468750 25106.228516
v 31626.892578 34840.757812 25146.921875
v 32500.363281 34869.195312 25110.636719
v 31516.595703 35002.570312 25122.408203
v 32454.015625 35145.507812 25090.500000
v 31950.880859 35203.011719 25154.654297
v 32204.203125 35212.390625 25105.601562
v 32398.564453 35198.632812 25093.808594
v 31806.960938 34726.550781 25186.785156
v 32375.511719 34844.769531 25090.789062
v 31554.316406 34898.378906 25146.402344
v 32482.931641 35004.648438 25081.394531
v 31643.759766 35083.003906 25127.246094
v 31753.539062 35137.281250 25138.691406
v 32200.498047 35259.832031 25172.695312
v 32015.808594 34668.546875 25183.261719
v 32240.732422 34715.414062 25130.271484
v 32582.201172 34672.132812 25196.482422
v 32588.460938 34901.546875 25131.593750
v 31531.734375 34864.144531 25196.146484
v 32638.238281 34943.914062 25151.125000
v 31463.939453 34958.242188 25188.046875
v 32568.244141 35016.718750 25118.769531
v 32658.236328 35124.843750 25182.919922
v 31696.580078 35162.449219 25194.300781
v 32569.441406 35155.558594 25141.435547
v 32479.863281 35238.316406 25145.058594
v 32384.828125 34691.011719 25162.683594
v 32467.488281 34777.351562 25135.283203
v 32645.244141 34791.703125 25170.716797
v 32676.453125 34894.015625 25168.669922
v 32763.703125 34809.968750 25219.808594
v 32717.294922 34968.191406 25191.539062
v 31432.449219 35019.085938 25209.566406
v 31429.937500 35087.257812 25239.289062
v 31514.433594 35100.562500 25198.769531
v 31808.714844 35200.867188 25206.847656
v 32317.855469 35252.902344 25145.574219
v 32397.181641 35247.449219 25138.335938
v 32580.367188 35293.445312 25217.015625
v 31925.705078 34682.988281 25193.119141
v 32481.765625 34626.976562 25202.818359
v 32669.046875 34673.652344 25215.791016
v 32747.789062 34646.097656 25251.341797
v 31731.140625 34727.843750 25222.255859
v 32733.011719 34762.328125 25214.328125
v 32850.972656 34725.902344 25275.990234
v 32859.367188 34925.269531 25264.683594
v 31466.085938 34906.039062 25226.626953
v 32681.193359 35048.593750 25180.957031
v 31544.183594 35145.535156 25245.322266
v 31940.027344 35247.960938 25230.748047
v 32676.025391 35216.265625 25220.125000
v 32615.029297 35260.382812 25207.804688
v 32694.429688 34530.781250 25273.486328
v 32333.650391 34598.425781 25213.212891
v 32093.671875 34683.507812 25158.345703
v 32233.222656 34550.527344 25252.498047
v 32213.091797 34636.519531 25187.158203
v 32573.351562 34592.703125 25223.482422
v 32633.912109 34594.757812 25233.281250
v 31860.093750 34656.960938 25254.019531
v 32851.656250 34635.125000 25299.447266
v 31656.531250 34765.835938 25227.980469
v 32864.230469 34828.992188 25268.267578
v 31403.923828 34964.992188 25247.548828
v 31366.037109 35044.648438 25300.574219
v 32811.566406 35077.179688 25254.296875
v 31790.033203 35237.585938 25275.550781
v 32005.828125 35224.671875 25166.203125
v 32778.265625 35147.902344 25253.017578
v 32121.767578 35319.292969 25289.292969
v 32300.232422 35323.582031 25256.015625
v 32707.210938 35336.664062 25298.119141
v 32799.175781 35312.039062 25325.730469
v 32661.902344 34470.328125 25295.314453
v 32515.136719 34510.800781 25258.832031
v 32580.945312 34518.492188 25254.056641
v 32010.259766 34587.789062 25269.406250
v 32826.023438 34572.210938 25309.339844
v 32919.117188 34570.144531 25353.509766
v 31599.074219 34785.402344 25265.810547
v 32967.621094 34734.742188 25336.255859
v 33046.468750 34905.687500 25370.578125
v 31502.671875 34848.820312 25293.818359
v 31376.421875 34968.707031 25339.740234
v 32842.898438 35012.199219 25261.332031
v 31447.289062 35122.914062 25265.421875
v 32515.132812 35309.164062 25224.792969
v 32440.644531 35317.335938 25231.031250
v 32616.369141 34388.746094 25346.437500
v 32564.800781 34434.714844 25299.363281
v 32652.855469 34423.726562 25324.394531
v 32478.476562 34445.710938 25299.589844
v 32346.806641 34516.558594 25264.791016
v 32790.093750 34457.539062 25346.437500
v 32157.412109 34519.460938 25294.443359
v 31791.341797 34648.562500 25326.851562
v 31708.556641 34706.191406 25302.296875
v 32933.167969 34661.792969 25332.441406
v 33034.859375 34592.089844 25407.486328
v 33024.234375 34777.171875 25364.111328
v 31447.113281 35159.109375 25370.687500
v 31547.658203 35173.628906 25299.011719
v 32848.726562 35251.160156 25324.304688
v 32840.472656 35393.386719 25384.515625
v 32683.207031 35369.003906 25319.910156
v 32760.716797 35384.953125 25352.548828
v 32508.642578 34392.277344 25339.283203
v 32471.134766 34385.796875 25351.171875
v 32575.390625 34353.351562 25387.402344
v 32310.343750 34465.410156 25308.666016
v 32874.867188 34433.808594 25394.964844
v 33033.144531 34574.527344 25417.937500
v 31883.792969 34578.039062 25355.652344
v 31635.886719 34737.785156 25367.101562
v 32980.968750 35080.722656 25353.750000
v 32944.457031 35252.835938 25376.339844
v 31761.212891 35259.089844 25341.728516
v 31958.044922 35299.046875 25320.527344
v 31994.781250 35345.203125 25406.089844
v 32958.753906 35374.671875 25429.875000
v 32506.710938 34343.167969 25418.921875
v 32430.058594 34334.675781 25458.607422
v 32872.367188 34399.046875 25425.888672
v 32245.486328 34436.812500 25349.347656
v 31963.464844 34545.406250 25346.335938
v 32089.437500 34499.593750 25339.339844
v 31864.916016 34564.839844 25401.179688
v 31745.019531 34640.492188 25446.667969
v 33071.078125 34724.691406 25398.455078
v 31582.925781 34778.078125 25325.144531
v 31483.386719 34854.660156 25356.388672
v 31349.378906 35032.296875 25344.986328
v 31370.892578 35096.281250 25333.152344
v 32488.472656 35419.000000 25414.580078
v 32419.681641 35355.183594 25295.195312
v 32581.902344 35367.675781 25309.837891
v 32697.246094 35412.113281 25372.958984
v 32830.746094 35456.761719 25431.789062
v 32293.460938 34357.375000 25438.302734
v 32311.455078 34401.136719 25369.806641
v 32678.583984 34334.695312 25403.687500
v 32254.052734 34388.917969 25401.244141
v 32750.609375 34328.300781 25438.392578
v 32751.410156 34358.125000 25390.285156
v 31729.814453 34667.128906 25382.195312
v 31405.908203 34934.875000 25416.183594
v 33004.000000 34991.226562 25349.703125
v 31723.933594 35292.125000 25484.769531
v 32213.412109 35395.210938 25433.140625
v 32168.375000 34410.199219 25409.048828
v 32372.222656 34325.125000 25507.453125
v 32533.933594 34316.558594 25531.015625
v 32916.187500 34352.167969 25529.458984
v 32062.720703 34460.765625 25405.927734
v 33102.761719 34652.781250 25439.664062
v 31601.689453 34758.453125 25443.396484
v 33103.839844 34889.066406 25409.962891
v 31591.060547 35223.019531 25405.488281
v 31861.755859 35317.269531 25424.039062
v 32348.808594 35385.550781 25360.978516
v 32630.396484 35454.667969 25470.021484
v 32644.468750 35430.015625 25408.822266
v 32942.335938 35443.113281 25463.121094
v 32153.355469 34386.539062 25454.726562
v 31968.189453 34478.832031 25451.300781
v 33015.796875 34429.750000 25503.246094
v 33133.960938 34736.250000 25447.671875
v 33190.746094 34843.777344 25496.742188
v 31350.595703 35007.847656 25412.585938
v 31346.996094 35120.128906 25458.570312
v 31398.796875 35153.441406 25438.214844
v 31532.136719 35215.195312 25468.037109
v 31894.255859 35374.429688 25579.398438
v 32734.402344 35464.171875 25478.619141
v 32884.937500 35479.726562 25474.650391
v 32245.250000 34330.750000 25526.197266
v 31916.623047 34498.214844 25492.443359
v 33048.117188 34483.605469 25483.744141
v 31751.371094 34631.359375 25505.007812
v 33239.335938 34682.492188 25562.970703
v 31522.271484 34828.429688 25479.134766
v 31431.859375 34925.968750 25517.277344
v 32090.515625 35377.410156 25436.972656
v 32141.669922 34364.515625 25531.857422
v 32310.466797 34318.734375 25574.232422
v 32801.839844 34328.718750 25515.345703
v 32988.066406 34379.109375 25538.681641
v 31922.386719 34484.007812 25558.099609
v 31655.634766 34720.312500 25534.849609
v 33117.234375 34960.457031 25430.474609
v 33072.570312 35094.332031 25422.630859
v 33063.691406 35159.144531 25435.068359
v 33013.816406 35318.863281 25437.039062
v 32538.826172 35461.070312 25510.906250
v 32967.273438 35467.449219 25546.474609
v 33046.695312 35440.664062 25533.792969
v 32271.857422 34324.097656 25561.726562
v 32621.181641 34316.132812 25477.796875
v 32696.007812 34316.816406 25527.125000
v 32082.015625 34384.257812 25550.759766
v 32009.767578 34431.976562 25507.044922
v 33134.812500 34433.890625 25589.738281
v 33131.113281 34510.281250 25528.859375
v 31781.044922 34609.613281 25568.714844
v 33180.171875 34589.070312 25533.246094
v 33239.792969 34745.777344 25553.285156
v 33174.355469 34924.308594 25484.902344
v 33077.015625 35294.871094 25482.812500
v 32012.746094 35402.675781 25563.324219
v 33051.046875 35390.390625 25493.720703
v 33108.058594 35343.230469 25539.660156
v 32169.333984 34345.902344 25647.816406
v 33194.843750 34511.746094 25585.771484
v 31453.578125 34935.632812 25591.417969
v 31369.974609 35009.796875 25538.066406
v 33208.539062 34997.218750 25544.984375
v 33141.429688 35118.562500 25497.457031
v 33195.589844 35070.800781 25547.869141
v 31385.300781 35146.550781 25577.025391
v 31422.697266 35172.515625 25534.285156
v 33133.777344 35224.066406 25524.523438
v 31537.517578 35235.660156 25582.744141
v 33173.125000 35191.148438 25569.441406
v 32282.242188 35438.476562 25529.433594
v 33104.039062 35362.347656 25578.248047
v 32766.109375 35475.996094 25523.906250
v 32871.257812 35478.507812 25548.996094
v 32781.933594 34319.781250 25582.230469
v 32895.531250 34333.160156 25585.658203
v 31862.080078 34528.960938 25558.367188
v 33273.726562 34669.429688 25607.824219
v 33269.371094 34859.820312 25603.466797
v 33263.722656 35002.027344 25635.537109
v 31335.431641 35087.074219 25500.242188
v 31580.437500 35264.695312 25692.179688
v 33156.035156 35251.820312 25589.046875
v 31641.810547 35287.742188 25612.853516
v 32127.587891 35450.523438 25649.707031
v 32244.476562 35467.117188 25643.001953
v 32632.509766 35481.292969 25590.406250
v 32728.898438 35479.667969 25609.986328
v 33041.886719 35433.441406 25573.117188
v 32835.777344 34320.535156 25680.400391
v 33030.675781 34359.281250 25613.230469
v 32053.882812 34382.847656 25650.332031
v 33190.230469 34444.613281 25646.382812
v 31780.835938 34622.960938 25630.984375
v 31666.261719 34729.101562 25609.001953
v 33273.375000 34566.679688 25662.427734
v 31537.451172 34836.914062 25584.644531
v 33283.601562 34731.691406 25621.814453
v 33289.632812 34900.355469 25659.234375
v 31386.863281 35087.839844 25615.800781
v 33214.144531 35128.214844 25624.378906
v 33156.523438 35243.820312 25626.570312
v 32000.007812 35423.218750 25655.939453
v 33073.585938 35365.625000 25629.669922
v 33100.984375 34370.960938 25665.332031
v 32013.701172 34409.312500 25642.357422
v 33321.367188 34603.089844 25725.039062
v 31664.279297 34756.027344 25666.218750
v 31581.722656 34844.312500 25673.548828
v 33309.667969 34722.101562 25684.906250
v 33248.820312 35038.281250 25682.595703
v 31384.689453 35133.968750 25618.734375
v 33150.457031 35214.957031 25683.453125
v 32812.332031 35471.363281 25632.894531
v 32963.503906 35450.574219 25615.984375
v 32086.851562 34368.085938 25645.818359
v 32271.927734 34328.816406 25690.875000
v 32624.082031 34313.453125 25629.572266
v 31937.847656 34486.160156 25698.478516
v 31497.533203 34933.945312 25651.566406
v 33190.425781 35137.058594 25695.109375
v 33087.562500 35261.980469 25720.324219
v 33016.441406 35385.000000 25669.810547
v 32181.621094 35492.687500 25754.958984
v 32513.306641 35501.535156 25715.810547
v 32594.902344 35495.312500 25704.453125
v 32684.093750 35485.398438 25683.216797
v 32844.953125 35456.906250 25664.191406
v 32995.113281 34338.890625 25657.439453
v 33169.625000 34404.289062 25688.425781
v 33237.203125 34493.878906 25664.701172
v 33317.332031 34700.187500 25736.121094
v 33293.664062 34864.000000 25725.847656
v 33276.468750 34858.734375 25782.996094
v 33253.734375 34973.507812 25744.214844
v 31434.869141 35038.207031 25658.916016
v 31478.910156 35201.988281 25667.269531
v 32984.390625 35348.894531 25734.740234
v 32428.593750 35492.609375 25676.376953
v 32388.125000 34318.906250 25730.042969
v 32445.214844 34313.042969 25597.705078
v 33276.910156 34485.769531 25764.083984
v 31853.896484 34579.156250 25716.621094
v 31758.240234 34688.132812 25734.429688
v 33294.164062 34720.640625 25809.343750
v 33113.343750 35132.019531 25802.294922
v 33037.445312 35225.929688 25792.226562
v 31706.029297 35328.222656 25728.275391
v 32754.841797 35470.140625 25706.117188
v 32876.730469 35431.941406 25701.945312
v 32599.730469 35498.371094 25774.171875
v 32338.876953 35483.171875 25662.652344
v 32093.121094 34401.382812 25805.978516
v 32205.826172 34344.589844 25720.816406
v 32334.578125 34341.464844 25866.574219
v 32384.716797 34323.503906 25795.679688
v 32518.455078 34313.796875 25746.500000
v 32888.531250 34324.929688 25749.703125
v 33103.175781 34363.972656 25748.136719
v 33218.542969 34424.675781 25794.738281
v 31993.097656 34461.101562 25767.691406
v 31945.810547 34509.929688 25767.681641
v 33306.125000 34573.300781 25797.421875
v 31518.312500 35010.933594 25729.044922
v 33211.132812 34970.730469 25825.638672
v 31518.357422 35132.824219 25784.615234
v 31446.382812 35149.949219 25701.027344
v 32942.964844 35260.921875 25832.099609
v 31832.386719 35375.082031 25681.888672
v 32896.976562 35405.136719 25731.320312
v 32707.287109 35476.394531 25775.884766
v 32368.535156 35521.562500 25809.365234
v 32689.875000 34314.171875 25764.720703
v 32989.738281 34340.804688 25782.185547
v 33289.539062 34510.355469 25795.652344
v 33279.390625 34610.078125 25845.281250
v 31577.492188 34912.574219 25728.656250
v 33242.867188 34807.175781 25872.273438
v 33171.031250 35103.511719 25760.023438
v 32877.738281 35357.304688 25793.076172
v 32744.716797 35425.882812 25808.613281
v 32552.517578 35487.039062 25831.382812
v 32724.785156 35456.175781 25790.851562
v 32243.988281 35515.828125 25822.125000
v 32480.146484 35515.695312 25813.914062
v 32161.980469 34369.125000 25789.648438
v 32660.425781 34313.796875 25848.806641
v 32236.998047 34391.566406 25928.248047
v 33155.699219 34402.804688 25827.662109
v 33153.613281 34433.160156 25893.599609
v 33227.484375 34450.230469 25841.818359
v 33248.644531 34512.515625 25883.599609
v 31959.755859 34571.929688 25866.560547
v 31866.183594 34621.976562 25801.849609
v 31683.474609 34788.199219 25741.162109
v 33238.265625 34912.222656 25829.390625
v 31602.044922 34991.449219 25803.466797
v 32961.003906 35188.203125 25883.148438
v 31546.441406 35197.523438 25817.839844
v 32757.259766 35275.332031 25924.638672
v 31597.267578 35269.804688 25793.449219
v 31700.679688 35329.078125 25864.011719
v 31721.390625 35340.117188 25797.183594
v 32597.707031 35421.417969 25878.470703
v 32474.787109 35465.070312 25890.083984
v 32044.187500 35470.789062 25801.789062
v 32103.328125 35487.566406 25904.826172
v 32454.705078 35511.121094 25852.576172
v 32561.607422 34316.585938 25857.185547
v 32796.304688 34327.906250 25870.382812
v 33088.453125 34377.933594 25830.576172
v 32013.326172 34487.828125 25843.316406
v 33182.917969 34912.562500 25904.625000
v 32934.031250 35130.710938 25966.783203
v 32844.824219 35224.250000 25924.589844
v 31523.191406 35207.214844 25780.136719
v 32508.218750 35343.507812 25969.640625
v 31945.675781 35445.429688 25845.945312
v 32339.701172 35522.445312 25882.574219
v 32443.148438 34330.906250 25887.869141
v 32448.292969 34347.914062 25968.707031
v 32804.898438 34340.132812 25922.750000
v 32982.253906 34358.304688 25865.148438
v 32072.988281 34443.003906 25853.789062
v 32073.287109 34492.785156 25912.107422
v 31788.486328 34713.617188 25803.447266
v 33063.617188 35116.898438 25865.466797
v 32624.818359 35298.238281 25965.089844
v 31630.591797 35270.226562 25883.507812
v 32330.740234 35416.179688 25968.380859
v 32234.216797 35511.933594 25914.664062
v 32593.412109 34326.011719 25942.880859
v 32668.330078 34328.488281 25942.537109
v 32212.570312 34421.472656 25963.365234
v 32869.921875 34375.785156 25997.443359
v 33007.296875 34382.003906 25921.044922
v 33108.800781 34437.273438 25950.578125
v 33179.652344 34571.507812 25976.509766
v 31928.591797 34654.949219 25903.500000
v 31888.472656 34725.695312 25915.001953
v 33226.777344 34639.761719 25927.716797
v 31737.695312 34833.437500 25837.820312
v 33170.796875 34859.234375 25943.193359
v 33078.398438 34942.496094 26006.345703
v 33057.363281 34995.570312 25992.482422
v 31618.423828 35095.578125 25860.082031
v 32687.896484 35225.128906 26015.244141
v 31575.220703 35167.980469 25843.455078
v 32519.146484 35280.050781 26023.386719
v 31801.337891 35383.003906 25964.404297
v 31840.148438 35405.019531 25890.628906
v 31977.914062 35458.988281 25905.419922
v 32191.863281 34472.253906 26017.859375
v 32324.478516 34401.492188 26034.503906
v 32302.802734 34367.843750 25926.910156
v 32984.476562 34420.554688 26011.218750
v 33166.082031 34525.718750 25973.386719
v 32026.968750 34584.179688 25948.953125
v 32033.785156 34669.476562 26022.597656
v 33152.640625 34746.769531 25998.779297
v 31793.525391 34856.765625 25904.400391
v 31707.076172 34965.601562 25884.304688
v 32933.148438 35039.531250 26089.429688
v 32693.324219 35172.046875 26096.984375
v 32814.640625 35168.765625 26012.037109
v 32383.253906 35279.687500 26067.304688
v 31650.660156 35240.214844 25918.101562
v 31715.808594 35323.636719 25933.207031
v 32131.041016 35466.664062 25962.666016
v 32438.277344 34370.132812 26039.554688
v 32735.285156 34358.335938 26010.636719
v 33147.214844 34476.253906 25960.240234
v 31772.056641 34977.242188 25941.949219
v 31875.843750 34857.371094 25979.226562
v 31659.009766 35165.148438 25916.605469
v 32561.031250 35222.304688 26082.015625
v 32353.304688 35351.058594 26011.812500
v 32151.679688 35428.093750 25994.462891
v 31699.765625 35297.164062 25948.082031
v 31880.855469 35423.050781 25984.273438
v 31971.156250 35440.445312 25994.888672
v 32585.775391 34347.757812 26022.474609
v 32142.574219 34530.457031 26027.390625
v 33106.335938 34653.843750 26059.656250
v 31914.765625 34775.039062 25972.322266
v 31877.314453 34970.281250 26025.187500
v 33000.593750 35040.449219 26011.130859
v 31803.091797 35046.277344 25988.355469
v 32780.382812 35120.039062 26129.863281
v 31814.916016 35141.808594 26018.080078
v 32179.580078 35332.226562 26058.894531
v 31742.808594 35275.390625 25990.652344
v 31878.515625 35394.886719 26028.769531
v 32054.119141 35403.722656 26022.804688
v 32383.601562 34411.675781 26100.542969
v 32129.339844 34601.000000 26076.328125
v 33018.792969 34730.425781 26139.371094
v 32860.707031 35101.027344 26080.105469
v 32400.896484 35227.796875 26131.703125
v 31939.246094 35208.031250 26091.730469
v 31851.199219 35229.960938 26046.507812
v 32263.933594 35298.914062 26074.050781
v 32127.429688 35294.921875 26087.384766
v 32050.460938 35210.253906 26124.734375
v 31940.513672 35398.066406 26031.621094
v 31791.525391 35361.593750 26011.531250
v 32033.933594 35301.386719 26080.921875
v 32486.742188 34385.457031 26097.664062
v 32661.636719 34378.246094 26078.263672
v 32824.734375 34394.375000 26063.298828
v 33083.253906 34572.167969 26074.976562
v 33025.441406 34798.953125 26119.423828
v 33043.390625 34874.691406 26075.421875
v 32921.031250 34889.429688 26206.117188
v 31885.283203 35051.882812 26051.343750
v 31984.314453 35117.464844 26120.664062
v 32649.470703 35159.871094 26159.160156
v 32202.222656 35232.019531 26138.142578
v 32316.472656 35249.703125 26116.738281
v 31920.619141 35300.667969 26063.923828
v 32738.474609 34413.894531 26122.714844
v 32266.994141 34453.191406 26071.437500
v 32987.968750 34461.093750 26069.822266
v 33020.054688 34492.785156 26081.664062
v 33056.902344 34529.382812 26084.671875
v 32262.648438 34534.843750 26172.722656
v 32038.429688 34731.714844 26068.082031
v 32011.910156 34816.859375 26086.138672
v 31967.628906 34944.054688 26093.761719
v 31962.968750 35068.109375 26107.466797
v 32067.601562 35129.523438 26159.589844
v 32782.671875 35083.898438 26207.824219
v 32108.972656 35162.750000 26164.332031
v 32103.011719 35230.925781 26124.677734
v 32244.666016 35208.625000 26166.736328
v 32338.123047 35201.199219 26183.226562
v 32500.177734 35189.351562 26174.667969
v 32358.332031 34458.707031 26163.851562
v 32563.384766 34401.132812 26130.400391
v 32850.285156 34473.820312 26163.742188
v 32872.386719 34517.890625 26206.585938
v 32326.916016 34501.667969 26194.197266
v 32950.792969 34969.125000 26134.982422
v 32042.910156 35078.535156 26157.898438
v 32752.166016 34448.566406 26170.279297
v 32887.980469 34543.085938 26221.958984
v 32997.179688 34671.218750 26163.835938
v 32186.021484 34726.167969 26222.511719
v 32077.525391 34884.476562 26172.591797
v 32161.976562 35148.679688 26194.966797
v 32210.828125 35137.832031 26227.224609
v 32376.939453 35159.031250 26277.521484
v 32721.244141 34485.570312 26240.734375
v 32956.347656 34585.046875 26187.699219
v 32913.953125 34737.187500 26247.802734
v 32168.330078 34817.710938 26242.677734
v 32109.019531 34984.902344 26213.183594
v 32138.693359 35058.933594 26224.501953
v 32255.550781 35163.628906 26223.970703
v 32619.132812 34446.753906 26199.759766
v 32806.992188 34554.289062 26277.871094
v 32896.621094 34826.542969 26249.359375
v 32836.187500 35018.304688 26242.732422
v 32211.339844 35088.152344 26267.445312
v 32432.875000 34467.441406 26218.087891
v 32518.441406 34461.019531 26226.853516
v 32867.523438 34585.117188 26260.796875
v 32267.882812 34610.433594 26241.593750
v 32880.617188 34670.007812 26272.648438
v 32137.171875 34882.070312 26228.822266
v 32161.501953 34992.507812 26258.882812
v 32473.125000 35166.738281 26251.058594
v 32538.125000 35139.925781 26298.164062
v 32409.281250 34548.214844 26303.769531
v 32492.332031 34526.902344 26315.103516
v 32597.324219 34529.820312 26319.929688
v 32660.113281 34535.687500 26323.992188
v 32798.203125 34950.406250 26303.951172
v 32199.070312 35039.765625 26282.330078
v 32572.021484 35097.156250 26351.619141
v 32356.203125 34590.632812 26304.000000
v 32225.101562 34905.214844 26330.136719
v 32814.863281 34854.816406 26326.486328
v 32701.919922 35050.492188 26315.609375
v 32676.919922 35113.488281 26244.275391
v 32295.763672 35132.671875 26295.832031
v 32626.218750 34594.222656 26380.072266
v 32785.296875 34614.125000 26339.228516
v 32834.390625 34720.148438 26315.001953
v 32317.486328 35068.156250 26386.496094
v 32440.580078 34588.558594 26364.250000
v 32744.261719 34710.863281 26381.218750
v 32280.914062 34681.679688 26297.929688
v 32322.552734 34942.078125 26431.105469
v 32692.066406 35007.394531 26363.345703
v 32658.921875 34649.363281 26404.443359
v 32758.609375 34834.925781 26374.818359
v 32406.316406 35117.992188 26395.955078
v 32488.705078 34614.601562 26403.318359
v 32425.021484 34661.765625 26413.257812
v 32271.669922 34783.187500 26341.869141
v 32676.128906 34952.753906 26397.597656
v 32314.947266 35000.886719 26417.177734
v 32485.353516 35050.242188 26456.841797
v 32509.685547 35089.722656 26405.591797
v 32556.191406 34653.265625 26426.015625
v 32374.863281 34701.246094 26401.949219
v 32626.167969 34775.925781 26448.626953
v 32605.191406 34919.367188 26448.888672
v 32600.390625 34983.488281 26431.281250
v 32473.525391 34728.675781 26460.863281
v 32532.277344 34734.960938 26467.861328
v 32429.306641 34778.351562 26472.589844
v 32362.337891 34841.371094 26452.351562
v 32558.429688 34775.132812 26475.498047
v 32457.699219 34834.601562 26511.447266
v 32585.566406 34864.953125 26468.015625
v 32367.394531 35039.585938 26439.218750
v 32496.443359 34973.980469 26491.013672
v 32372.517578 34892.925781 26476.103516
v 32427.238281 34975.343750 26500.349609
v 32479.000000 34882.457031 26516.287109
# 618 vertices, 0 vertices normals

f 3 15 27
f 15 3 1
f 15 1 2
f 5 4 2
f 2 1 5
f 3 20 6
f 3 6 1
f 1 7 5
f 1 6 8
f 22 1 8
f 22 7 1
f 7 22 9
f 10 14 11
f 26 13 10
f 10 13 14
f 12 14 25
f 13 15 14
f 15 4 14
f 14 4 25
f 25 4 16
f 13 27 15
f 15 2 4
f 17 18 27
f 18 3 27
f 4 5 16
f 16 5 29
f 3 18 20
f 5 19 29
f 32 6 20
f 6 32 8
f 19 5 7
f 9 19 7
f 8 21 22
f 23 10 11
f 12 36 11
f 25 36 12
f 24 26 23
f 23 26 10
f 11 14 12
f 24 17 27
f 24 27 26
f 26 27 13
f 17 24 39
f 28 16 29
f 30 18 40
f 30 20 18
f 19 53 29
f 30 31 20
f 32 20 31
f 19 46 53
f 32 33 8
f 33 48 8
f 48 21 8
f 9 46 19
f 22 49 9
f 49 46 9
f 23 11 35
f 35 11 34
f 36 34 11
f 58 36 25
f 42 58 25
f 37 24 23
f 25 16 42
f 51 42 16
f 28 51 16
f 38 39 24
f 40 17 39
f 40 39 45
f 40 18 17
f 40 45 30
f 32 31 55
f 32 47 33
f 49 22 21
f 41 46 49
f 23 50 37
f 35 50 23
f 37 86 43
f 38 24 43
f 43 24 37
f 51 28 44
f 44 28 29
f 52 39 38
f 44 29 60
f 52 45 39
f 53 60 29
f 31 30 54
f 55 47 32
f 34 98 57
f 34 36 98
f 52 38 43
f 64 60 53
f 63 45 52
f 54 30 45
f 55 31 54
f 46 67 64
f 46 64 53
f 47 111 33
f 48 79 21
f 79 80 21
f 21 80 49
f 41 67 46
f 49 68 41
f 95 67 41
f 41 68 95
f 50 35 82
f 82 35 57
f 57 35 34
f 100 98 36
f 58 100 36
f 50 86 37
f 42 69 58
f 43 86 105
f 70 69 42
f 51 70 42
f 70 51 44
f 70 44 71
f 71 44 60
f 61 52 43
f 60 62 72
f 63 52 61
f 62 60 64
f 62 64 91
f 63 107 75
f 63 75 45
f 75 76 45
f 45 76 77
f 77 54 45
f 67 91 64
f 65 91 67
f 66 55 54
f 55 78 47
f 66 78 55
f 33 111 56
f 56 48 33
f 49 80 68
f 69 59 83
f 69 70 59
f 105 61 43
f 71 72 73
f 71 60 72
f 90 63 61
f 62 74 72
f 107 63 90
f 91 74 62
f 66 54 77
f 56 79 48
f 94 65 67
f 65 94 112
f 94 67 95
f 81 68 80
f 68 81 95
f 84 85 96
f 82 103 50
f 97 100 58
f 101 83 59
f 101 59 102
f 102 59 84
f 86 50 103
f 97 58 69
f 84 59 70
f 85 88 104
f 71 84 70
f 87 84 71
f 84 87 85
f 85 87 88
f 73 87 71
f 88 87 73
f 88 73 106
f 123 126 61
f 123 61 105
f 90 61 126
f 72 89 73
f 73 89 106
f 74 89 72
f 74 128 89
f 74 91 128
f 108 75 107
f 108 76 75
f 91 65 112
f 109 91 112
f 77 92 66
f 110 78 66
f 78 93 47
f 93 111 47
f 93 113 111
f 56 114 79
f 79 131 80
f 131 130 80
f 81 80 130
f 95 81 115
f 99 100 97
f 119 101 102
f 119 102 96
f 96 102 84
f 82 120 103
f 120 82 57
f 120 57 138
f 138 57 98
f 99 98 100
f 97 69 83
f 119 83 101
f 96 85 121
f 104 121 85
f 88 141 104
f 88 124 141
f 88 106 124
f 107 90 126
f 107 126 127
f 76 108 176
f 109 128 91
f 176 129 76
f 76 129 77
f 77 129 92
f 92 145 66
f 145 110 66
f 110 93 78
f 113 56 111
f 93 161 113
f 114 56 113
f 79 114 131
f 116 94 95
f 115 116 95
f 130 148 81
f 81 148 115
f 133 117 134
f 133 119 117
f 133 118 119
f 117 119 96
f 136 97 118
f 136 99 97
f 118 97 83
f 118 83 119
f 120 168 103
f 138 98 99
f 103 168 156
f 122 121 104
f 103 156 139
f 86 103 139
f 141 122 104
f 126 123 173
f 106 143 124
f 143 106 125
f 125 106 89
f 125 89 190
f 190 89 128
f 127 175 107
f 107 175 108
f 129 145 92
f 145 160 110
f 112 146 159
f 93 110 161
f 94 146 112
f 94 116 146
f 114 178 131
f 131 179 130
f 179 148 130
f 116 115 149
f 149 115 148
f 134 187 132
f 135 133 150
f 133 132 150
f 132 133 134
f 134 137 187
f 134 117 137
f 135 118 133
f 137 117 96
f 136 118 135
f 138 169 120
f 138 99 153
f 153 99 136
f 137 96 121
f 122 137 121
f 169 168 120
f 170 139 156
f 86 139 140
f 105 86 140
f 122 141 142
f 123 140 157
f 123 105 140
f 142 141 124
f 142 124 172
f 172 124 143
f 174 127 126
f 158 190 128
f 175 176 108
f 128 109 158
f 158 109 112
f 159 158 112
f 110 160 161
f 113 203 114
f 149 147 116
f 151 152 164
f 150 152 151
f 132 152 150
f 132 184 152
f 187 184 132
f 153 151 183
f 150 151 135
f 151 153 135
f 187 137 154
f 187 154 166
f 153 136 135
f 167 138 153
f 122 154 137
f 154 122 155
f 170 188 139
f 142 155 122
f 188 140 139
f 140 188 157
f 173 123 157
f 143 200 172
f 126 173 174
f 125 200 143
f 127 174 189
f 212 127 189
f 145 129 144
f 145 201 160
f 160 162 161
f 163 159 146
f 161 162 113
f 114 203 178
f 179 131 178
f 146 116 163
f 148 179 180
f 180 149 148
f 180 181 149
f 149 181 147
f 151 164 182
f 182 183 151
f 184 164 152
f 167 153 183
f 169 138 167
f 156 168 208
f 172 198 142
f 157 188 171
f 200 125 190
f 212 175 127
f 176 214 129
f 129 214 144
f 201 191 160
f 160 191 202
f 160 202 162
f 226 113 162
f 226 192 113
f 203 177 178
f 178 205 179
f 116 147 163
f 179 205 180
f 163 147 206
f 206 147 181
f 164 165 182
f 182 165 194
f 185 183 182
f 183 185 167
f 186 184 187
f 193 167 185
f 197 169 193
f 193 169 167
f 166 154 209
f 208 168 197
f 197 168 169
f 221 154 155
f 208 170 156
f 171 199 157
f 173 157 199
f 200 210 172
f 174 173 199
f 174 199 224
f 158 234 190
f 176 213 214
f 144 201 145
f 236 159 163
f 192 203 113
f 178 177 205
f 205 181 180
f 206 181 218
f 182 219 207
f 182 194 219
f 193 185 207
f 207 185 182
f 241 165 164
f 241 195 165
f 241 164 184
f 187 196 186
f 196 187 166
f 207 197 193
f 208 197 244
f 221 209 154
f 220 170 208
f 170 220 171
f 188 170 171
f 155 142 198
f 210 198 172
f 189 174 224
f 189 224 225
f 233 200 190
f 190 234 233
f 175 213 176
f 144 215 201
f 191 216 202
f 177 237 204
f 204 205 177
f 204 217 205
f 205 217 181
f 217 218 181
f 240 219 194
f 240 194 228
f 337 228 194
f 195 337 194
f 195 194 165
f 186 241 184
f 244 197 207
f 208 244 220
f 222 171 273
f 273 171 220
f 198 246 155
f 199 171 222
f 210 211 249
f 200 211 210
f 189 225 258
f 212 277 175
f 175 277 213
f 158 235 234
f 214 215 144
f 159 236 158
f 253 236 163
f 177 203 237
f 269 217 204
f 269 218 217
f 207 219 227
f 243 207 227
f 243 244 207
f 230 196 166
f 230 166 209
f 155 246 221
f 198 248 246
f 248 198 223
f 224 199 232
f 199 222 232
f 210 223 198
f 223 210 249
f 225 224 293
f 200 250 211
f 250 200 233
f 189 258 212
f 212 258 277
f 236 235 158
f 215 191 201
f 216 252 202
f 202 252 162
f 162 252 226
f 226 267 192
f 192 267 203
f 267 237 203
f 206 253 163
f 270 218 269
f 218 239 206
f 218 238 239
f 312 243 227
f 314 195 241
f 186 229 242
f 186 196 229
f 242 241 186
f 220 302 231
f 221 245 209
f 231 273 220
f 245 221 246
f 222 273 247
f 222 247 232
f 293 224 291
f 224 232 291
f 257 258 225
f 260 233 234
f 262 263 213
f 213 263 214
f 214 265 215
f 260 235 251
f 251 235 236
f 265 280 215
f 280 191 215
f 270 238 218
f 206 239 253
f 312 227 219
f 255 312 219
f 255 219 240
f 255 240 313
f 313 240 228
f 314 337 195
f 271 242 229
f 272 229 196
f 272 271 229
f 302 220 244
f 245 230 209
f 248 256 246
f 223 274 248
f 275 249 211
f 250 275 211
f 233 260 250
f 277 262 213
f 235 260 234
f 260 251 264
f 251 254 264
f 266 264 254
f 365 216 191
f 251 253 254
f 216 299 252
f 236 253 251
f 252 281 226
f 281 267 226
f 283 284 269
f 284 270 269
f 254 253 239
f 336 313 228
f 337 336 228
f 314 241 242
f 271 314 242
f 243 312 288
f 244 243 288
f 288 302 244
f 256 289 246
f 289 245 246
f 290 247 273
f 290 291 247
f 223 294 274
f 232 247 291
f 249 294 223
f 257 225 293
f 250 259 275
f 260 259 250
f 296 277 258
f 260 261 259
f 260 264 261
f 264 266 261
f 263 265 214
f 263 278 265
f 365 191 280
f 254 279 266
f 254 268 279
f 282 348 267
f 348 237 267
f 237 269 204
f 311 238 270
f 239 268 254
f 285 268 239
f 285 239 238
f 196 287 272
f 287 196 230
f 274 256 248
f 275 294 249
f 275 259 276
f 261 276 259
f 266 297 276
f 266 276 261
f 278 263 262
f 279 298 297
f 266 279 297
f 268 298 279
f 268 309 298
f 267 281 282
f 237 283 269
f 284 310 270
f 268 285 300
f 238 311 285
f 286 271 272
f 325 286 272
f 245 287 230
f 326 301 245
f 301 287 245
f 245 289 326
f 273 231 302
f 327 289 256
f 256 292 327
f 290 273 315
f 274 292 256
f 294 306 274
f 304 293 291
f 294 275 295
f 316 257 293
f 295 275 276
f 332 258 257
f 332 257 316
f 332 296 258
f 308 277 296
f 308 262 277
f 262 333 278
f 268 300 309
f 281 320 282
f 335 237 348
f 283 237 335
f 300 285 319
f 310 311 270
f 350 312 255
f 313 350 255
f 353 336 337
f 325 272 287
f 273 302 315
f 290 315 339
f 291 290 339
f 274 303 292
f 306 303 274
f 340 304 291
f 305 293 304
f 294 295 306
f 305 316 293
f 307 329 295
f 276 307 295
f 276 297 307
f 298 317 307
f 297 298 307
f 298 309 317
f 308 333 262
f 265 344 280
f 309 300 318
f 216 365 299
f 365 402 299
f 299 320 281
f 252 299 281
f 282 320 348
f 335 321 283
f 322 284 283
f 323 310 284
f 285 311 319
f 311 310 324
f 301 325 287
f 340 291 339
f 304 340 391
f 304 391 305
f 373 316 305
f 329 307 331
f 317 331 307
f 309 375 317
f 375 309 318
f 308 363 333
f 265 278 344
f 280 344 365
f 319 318 300
f 322 283 321
f 324 346 311
f 286 369 314
f 286 314 271
f 325 354 286
f 301 355 325
f 326 355 301
f 315 302 357
f 327 338 289
f 292 303 327
f 329 328 306
f 422 391 340
f 295 329 306
f 330 329 331
f 317 375 361
f 317 361 331
f 363 308 296
f 375 318 342
f 318 319 334
f 299 402 320
f 334 319 366
f 311 366 319
f 323 284 322
f 323 345 310
f 345 324 310
f 382 349 312
f 312 349 288
f 350 382 312
f 370 354 325
f 349 302 288
f 355 370 325
f 357 302 349
f 289 338 326
f 315 357 358
f 358 339 315
f 340 339 390
f 328 303 306
f 329 341 328
f 341 329 330
f 360 332 316
f 373 360 316
f 362 296 332
f 362 363 296
f 318 343 342
f 334 343 318
f 412 333 363
f 278 399 344
f 345 346 324
f 346 366 311
f 323 322 347
f 323 347 345
f 320 380 348
f 368 335 348
f 335 368 321
f 351 350 313
f 352 313 336
f 352 351 313
f 353 337 314
f 354 369 286
f 356 355 326
f 356 326 338
f 303 338 327
f 303 371 338
f 358 390 339
f 328 359 303
f 341 359 328
f 374 341 330
f 391 373 305
f 392 330 331
f 361 392 331
f 360 362 332
f 343 423 342
f 334 364 343
f 376 364 334
f 333 397 278
f 365 344 414
f 366 376 334
f 366 377 376
f 379 377 366
f 345 379 346
f 346 379 366
f 367 345 347
f 367 379 345
f 368 348 380
f 381 321 368
f 381 322 321
f 322 381 347
f 351 382 350
f 353 352 336
f 353 314 369
f 407 355 385
f 407 370 355
f 356 385 355
f 420 357 349
f 338 387 356
f 338 371 387
f 420 408 357
f 408 358 357
f 359 371 303
f 341 372 359
f 390 422 340
f 391 438 373
f 330 392 374
f 373 393 360
f 375 342 423
f 393 362 360
f 423 364 394
f 343 364 423
f 395 363 362
f 362 444 395
f 395 412 363
f 412 397 333
f 278 398 399
f 377 396 376
f 414 402 365
f 367 378 379
f 402 380 320
f 347 381 378
f 367 347 378
f 368 415 381
f 381 415 404
f 416 351 352
f 405 352 353
f 383 405 353
f 383 353 369
f 354 383 369
f 406 354 370
f 382 384 349
f 384 382 451
f 451 382 351
f 419 406 370
f 407 419 370
f 420 349 384
f 385 387 386
f 356 387 385
f 371 388 387
f 359 388 371
f 359 372 388
f 389 358 408
f 389 390 358
f 341 437 372
f 374 437 341
f 392 361 409
f 394 410 423
f 364 411 394
f 364 396 411
f 376 396 364
f 397 398 278
f 344 447 414
f 399 447 344
f 414 448 402
f 377 379 400
f 448 403 402
f 401 400 379
f 402 403 380
f 378 401 379
f 404 401 378
f 380 427 368
f 404 378 381
f 416 352 405
f 406 383 354
f 418 406 419
f 407 432 419
f 407 385 386
f 437 388 372
f 435 390 389
f 438 391 422
f 393 373 438
f 392 409 374
f 361 375 441
f 375 423 441
f 362 393 442
f 442 444 362
f 461 410 411
f 411 410 394
f 424 400 413
f 424 396 400
f 400 396 377
f 398 447 399
f 401 413 400
f 415 401 404
f 403 427 380
f 368 427 415
f 405 428 416
f 405 383 428
f 429 428 383
f 406 429 383
f 417 351 416
f 417 416 428
f 430 420 384
f 420 430 449
f 386 433 407
f 407 433 432
f 468 433 386
f 387 468 386
f 388 468 387
f 421 408 420
f 421 420 449
f 388 453 468
f 434 453 388
f 454 389 408
f 421 454 408
f 437 434 388
f 435 422 390
f 422 435 436
f 374 439 456
f 438 458 393
f 374 409 439
f 440 409 361
f 393 458 442
f 441 423 483
f 483 410 459
f 423 410 483
f 411 443 461
f 396 424 443
f 396 443 411
f 425 412 395
f 412 425 397
f 425 398 397
f 401 473 413
f 401 426 473
f 447 448 414
f 415 427 426
f 415 426 401
f 406 418 429
f 351 417 451
f 418 419 431
f 431 419 432
f 452 432 433
f 449 479 421
f 479 454 421
f 435 389 454
f 374 456 437
f 436 438 422
f 436 481 438
f 457 458 438
f 409 440 439
f 361 441 440
f 410 494 459
f 410 461 494
f 442 471 444
f 424 445 443
f 463 395 444
f 463 425 395
f 413 445 424
f 473 445 413
f 425 464 398
f 446 447 398
f 427 474 426
f 427 465 474
f 403 465 427
f 478 417 428
f 478 428 429
f 467 478 429
f 467 429 418
f 450 384 451
f 450 430 384
f 452 431 432
f 492 454 479
f 454 492 455
f 437 480 434
f 455 435 454
f 437 456 480
f 455 436 435
f 438 481 457
f 458 469 442
f 442 469 471
f 485 461 460
f 472 460 443
f 443 460 461
f 445 472 443
f 471 463 444
f 472 445 462
f 473 462 445
f 463 475 425
f 475 464 425
f 464 446 398
f 446 476 447
f 474 473 426
f 447 476 448
f 476 477 448
f 448 477 403
f 477 465 403
f 431 467 418
f 450 518 430
f 430 518 449
f 466 451 417
f 466 417 478
f 433 519 452
f 507 453 434
f 480 507 434
f 508 456 509
f 439 509 456
f 470 457 481
f 470 469 457
f 509 439 440
f 469 458 457
f 484 471 469
f 494 461 485
f 471 488 463
f 462 473 498
f 475 463 488
f 464 475 502
f 464 502 446
f 474 477 490
f 465 477 474
f 466 450 451
f 505 478 467
f 505 467 506
f 431 506 467
f 519 433 520
f 468 520 433
f 453 521 468
f 468 521 520
f 453 507 521
f 523 481 455
f 455 481 436
f 481 524 470
f 524 482 470
f 482 524 525
f 470 482 469
f 482 484 469
f 482 511 484
f 486 484 511
f 484 486 471
f 472 513 460
f 471 486 488
f 474 487 498
f 474 498 473
f 488 502 475
f 474 490 487
f 502 476 446
f 502 489 476
f 476 489 477
f 489 501 477
f 501 490 477
f 504 466 478
f 518 450 534
f 450 491 534
f 491 450 466
f 452 506 431
f 518 522 449
f 522 479 449
f 479 522 492
f 493 480 456
f 524 481 523
f 508 493 456
f 539 509 440
f 441 539 440
f 483 539 441
f 483 459 539
f 526 486 511
f 526 497 486
f 513 485 460
f 533 472 495
f 533 513 472
f 495 472 462
f 497 488 486
f 498 499 514
f 487 499 498
f 502 497 496
f 490 499 487
f 497 502 488
f 502 496 516
f 516 500 501
f 490 503 499
f 489 502 516
f 489 516 501
f 501 503 490
f 506 452 519
f 480 543 507
f 455 492 564
f 511 482 525
f 539 510 509
f 526 511 525
f 485 528 494
f 496 497 512
f 512 497 526
f 496 512 527
f 527 516 496
f 515 495 462
f 499 530 514
f 498 514 515
f 498 515 462
f 503 500 530
f 503 530 499
f 501 500 503
f 478 535 504
f 505 535 478
f 506 517 505
f 561 534 491
f 504 491 466
f 504 561 491
f 535 505 556
f 519 536 506
f 538 518 534
f 538 522 518
f 507 550 521
f 522 564 492
f 523 455 564
f 493 543 480
f 523 544 524
f 509 510 508
f 527 512 540
f 540 512 526
f 459 494 528
f 516 527 500
f 500 527 529
f 530 529 546
f 500 529 530
f 532 531 555
f 533 495 532
f 530 546 514
f 514 546 531
f 514 531 515
f 515 531 532
f 515 532 495
f 517 556 505
f 506 541 517
f 536 541 506
f 537 536 519
f 537 520 521
f 537 519 520
f 545 525 524
f 544 545 524
f 525 545 553
f 553 526 525
f 553 540 526
f 527 546 529
f 533 569 513
f 546 547 531
f 531 547 555
f 548 532 555
f 532 568 533
f 548 568 532
f 535 562 504
f 517 541 556
f 561 504 562
f 562 535 556
f 536 549 541
f 537 549 536
f 550 542 521
f 521 542 537
f 563 542 550
f 577 522 538
f 577 564 522
f 544 523 564
f 493 551 543
f 493 508 551
f 552 545 544
f 510 558 508
f 508 558 551
f 554 540 553
f 553 567 554
f 459 559 539
f 546 527 554
f 554 527 540
f 560 546 554
f 581 528 485
f 528 559 459
f 560 547 546
f 513 581 485
f 549 556 541
f 538 534 561
f 557 549 537
f 557 537 542
f 507 543 550
f 589 544 564
f 552 566 545
f 553 545 566
f 539 559 510
f 510 559 579
f 567 575 554
f 575 560 554
f 547 582 555
f 560 582 547
f 573 556 549
f 538 570 577
f 542 563 557
f 543 565 550
f 543 551 565
f 552 544 597
f 510 579 558
f 578 567 553
f 575 586 560
f 559 528 580
f 582 548 555
f 568 569 533
f 570 538 561
f 571 561 562
f 584 563 565
f 550 565 563
f 551 585 565
f 552 578 566
f 578 553 566
f 559 574 579
f 591 574 559
f 580 591 559
f 582 560 586
f 569 581 513
f 548 594 568
f 562 572 571
f 556 572 562
f 573 572 556
f 571 570 561
f 573 549 557
f 573 557 584
f 584 557 563
f 589 597 544
f 558 579 551
f 551 579 585
f 576 580 528
f 565 585 584
f 574 598 579
f 590 567 578
f 574 591 598
f 586 575 599
f 599 575 567
f 581 576 528
f 548 582 594
f 587 570 571
f 587 577 570
f 595 587 571
f 572 595 571
f 583 572 573
f 583 573 584
f 584 585 588
f 597 578 552
f 579 598 593
f 590 599 567
f 601 580 576
f 569 576 581
f 594 569 568
f 594 582 586
f 583 584 592
f 603 564 577
f 603 589 564
f 579 588 585
f 593 588 579
f 616 590 578
f 580 601 591
f 594 601 569
f 569 601 576
f 572 583 595
f 595 596 587
f 596 577 587
f 577 596 603
f 588 592 584
f 588 604 592
f 597 589 603
f 610 578 597
f 610 616 578
f 591 601 600
f 594 586 614
f 600 601 594
f 602 595 583
f 593 604 588
f 593 613 604
f 593 598 613
f 613 598 605
f 605 598 606
f 591 606 598
f 614 586 599
f 591 600 606
f 592 602 583
f 595 602 607
f 596 595 607
f 608 602 592
f 596 607 609
f 611 608 592
f 596 609 603
f 604 611 592
f 603 610 597
f 600 615 606
f 602 608 607
f 607 608 609
f 612 608 611
f 610 603 609
f 612 609 608
f 613 611 604
f 610 609 612
f 618 612 611
f 618 611 613
f 610 612 616
f 599 590 616
f 616 617 599
f 615 618 613
f 599 617 614
f 606 615 605
f 605 615 613
f 600 617 615
f 614 617 594
f 594 617 600
f 617 616 612
f 617 612 618
f 617 618 615
# 1232 faces, 0 coords texture

# End of File
