####
#
# OBJ File Generated by Meshlab
#
####
# Object AL-DA4mR.obj
#
# Vertices: 384
# Faces: 764
#
####
v 19920.333984 36226.789062 24937.501953
v 20087.941406 36226.804688 24940.976562
v 19847.880859 36262.773438 24946.708984
v 19829.470703 36323.910156 24988.082031
v 19888.121094 36319.265625 24968.111328
v 19995.658203 36266.386719 24942.359375
v 20149.597656 36281.757812 24952.707031
v 19770.027344 36323.390625 25015.408203
v 20061.921875 36315.363281 24956.267578
v 19952.179688 36348.871094 24985.562500
v 19919.580078 36370.328125 25020.332031
v 20072.699219 36373.437500 25005.429688
v 19798.900391 36157.300781 24956.822266
v 19978.041016 36135.160156 24965.089844
v 19650.658203 36166.542969 24972.001953
v 19790.367188 36208.433594 24951.269531
v 19596.675781 36218.925781 24996.593750
v 19706.550781 36254.351562 24976.679688
v 20227.734375 36285.601562 24972.138672
v 19527.023438 36251.339844 25059.892578
v 19711.289062 36290.140625 25003.902344
v 19666.837891 36111.480469 24982.283203
v 19777.062500 36075.625000 24985.736328
v 20114.738281 36142.089844 24972.333984
v 20236.533203 36123.277344 25006.310547
v 20168.515625 36210.386719 24955.777344
v 19475.753906 36184.875000 25028.603516
v 19571.988281 36243.187500 25021.373047
v 19987.937500 36405.585938 25080.453125
v 20132.214844 36421.957031 25095.605469
v 20181.056641 36373.359375 25021.039062
v 19943.701172 36051.273438 25002.576172
v 19520.191406 36033.265625 25032.230469
v 19655.777344 36021.792969 25020.619141
v 19479.679688 36136.105469 25016.763672
v 20273.539062 36143.734375 25002.753906
v 20283.664062 36213.980469 24980.109375
v 19447.988281 36209.664062 25057.353516
v 19334.861328 36182.050781 25083.472656
v 19447.154297 36239.140625 25096.109375
v 20179.994141 36334.687500 24983.730469
v 19854.414062 36384.007812 25094.230469
v 20105.173828 36404.800781 25045.998047
v 19587.259766 35979.195312 25047.199219
v 19720.892578 35979.535156 25039.312500
v 19840.095703 35999.113281 25025.945312
v 20016.968750 36013.406250 25038.501953
v 19302.951172 36013.917969 25081.714844
v 19491.724609 36089.210938 25019.298828
v 20233.640625 36065.863281 25058.544922
v 19358.361328 36149.597656 25052.173828
v 20353.267578 36256.300781 25010.226562
v 19670.515625 36309.644531 25059.677734
v 20385.607422 36295.515625 25066.603516
v 19498.361328 35877.855469 25116.671875
v 19640.216797 35896.433594 25095.103516
v 19908.576172 35973.351562 25054.044922
v 19329.289062 35938.203125 25108.203125
v 19414.136719 36015.105469 25056.699219
v 20159.968750 36033.734375 25060.826172
v 20315.558594 36114.902344 25049.447266
v 19230.205078 36056.304688 25088.341797
v 20370.199219 36177.195312 25024.292969
v 19284.023438 36095.699219 25067.556641
v 19228.537109 36147.746094 25109.070312
v 19277.117188 36180.640625 25117.902344
v 19337.699219 36214.921875 25133.097656
v 19473.939453 36268.093750 25141.447266
v 19573.179688 36308.601562 25157.320312
v 19722.589844 36347.140625 25113.833984
v 20090.912109 36431.132812 25147.562500
v 20272.697266 36426.078125 25176.935547
v 19453.046875 35938.382812 25084.859375
v 19744.181641 35917.843750 25083.669922
v 19947.945312 35905.378906 25127.396484
v 19217.835938 35992.093750 25110.886719
v 19017.585938 36055.105469 25166.552734
v 19133.804688 36112.722656 25132.833984
v 19255.757812 36202.765625 25180.576172
v 19940.076172 36419.812500 25178.740234
v 20325.738281 36361.878906 25060.783203
v 20278.787109 36407.328125 25106.865234
v 19819.097656 35889.417969 25115.353516
v 19120.531250 35949.507812 25158.873047
v 20026.599609 35937.605469 25120.978516
v 20120.558594 35982.949219 25116.353516
v 20195.925781 36026.363281 25135.769531
v 19015.005859 36092.191406 25184.787109
v 19129.546875 36138.914062 25166.970703
v 19135.554688 36162.597656 25207.093750
v 20362.498047 36242.519531 25103.113281
v 19855.322266 36410.460938 25227.382812
v 19414.876953 35875.242188 25128.039062
v 19174.669922 35904.757812 25164.681641
v 20072.681641 35927.824219 25173.226562
v 20177.378906 36012.835938 25175.082031
v 19092.826172 36018.425781 25141.654297
v 20255.046875 36098.296875 25157.570312
v 20361.140625 36183.824219 25063.240234
v 19353.744141 36259.062500 25239.386719
v 19639.742188 36345.640625 25218.908203
v 20317.574219 36397.019531 25157.150391
v 19285.435547 35862.433594 25160.214844
v 19572.917969 35823.570312 25156.015625
v 19946.855469 35867.890625 25184.107422
v 20070.003906 35914.316406 25214.820312
v 18995.453125 35913.929688 25215.101562
v 18979.656250 35990.054688 25194.734375
v 18910.132812 36098.585938 25284.402344
v 19478.181641 36289.335938 25210.138672
v 20156.853516 36434.691406 25209.441406
v 19765.361328 35832.363281 25161.945312
v 19752.958984 35760.128906 25253.625000
v 19681.164062 35832.785156 25148.912109
v 19842.181641 35830.777344 25187.599609
v 19893.298828 35817.488281 25261.669922
v 19996.769531 35879.421875 25212.558594
v 20119.373047 35961.152344 25240.482422
v 18853.238281 35938.222656 25271.062500
v 18901.185547 36051.597656 25221.679688
v 19004.414062 36128.265625 25254.867188
v 20278.197266 36266.128906 25230.548828
v 20340.945312 36307.105469 25148.474609
v 20010.548828 36433.859375 25245.234375
v 19675.580078 35742.246094 25267.869141
v 19424.990234 35813.226562 25177.878906
v 19478.794922 35752.472656 25239.183594
v 19616.949219 35760.761719 25223.466797
v 19120.351562 35855.667969 25213.539062
v 20056.539062 35910.484375 25268.308594
v 19999.654297 35875.589844 25273.171875
v 18844.464844 35999.152344 25258.310547
v 20260.683594 36154.441406 25208.851562
v 19207.847656 36210.019531 25259.492188
v 20258.501953 36212.597656 25246.835938
v 19472.773438 36309.070312 25312.515625
v 20172.390625 36428.855469 25263.689453
v 19538.117188 35704.171875 25309.429688
v 19262.148438 35757.546875 25270.916016
v 19771.460938 35763.773438 25305.238281
v 18832.830078 35860.062500 25332.718750
v 20161.097656 36016.718750 25253.589844
v 20187.363281 36071.867188 25272.091797
v 20104.087891 36432.285156 25327.615234
v 20191.640625 36407.652344 25299.796875
v 19370.982422 35728.808594 25279.730469
v 19468.130859 35713.359375 25290.888672
v 19613.650391 35719.785156 25352.421875
v 19109.201172 35791.351562 25279.802734
v 18974.716797 35846.519531 25268.912109
v 20205.148438 36151.250000 25315.066406
v 19115.603516 36190.011719 25322.744141
v 19759.861328 36389.195312 25251.253906
v 20266.369141 36322.035156 25250.734375
v 20210.078125 36367.753906 25317.179688
v 19400.791016 35682.480469 25348.599609
v 19905.082031 35824.046875 25366.890625
v 18778.179688 35945.089844 25326.167969
v 18819.390625 36066.410156 25362.183594
v 19855.173828 36427.250000 25384.500000
v 19228.197266 35709.394531 25340.273438
v 19058.183594 35761.675781 25334.941406
v 19548.101562 35704.898438 25400.365234
v 18772.214844 36033.316406 25331.271484
v 20190.740234 36284.421875 25393.310547
v 19940.431641 36431.066406 25274.867188
v 20132.558594 36369.195312 25466.896484
v 20147.679688 36399.859375 25388.064453
v 19330.474609 35677.421875 25371.537109
v 19079.134766 35730.289062 25371.939453
v 18923.873047 35798.210938 25344.656250
v 19649.238281 35732.175781 25438.003906
v 19973.234375 35871.523438 25438.935547
v 20105.017578 35997.464844 25398.830078
v 18985.349609 36154.035156 25382.783203
v 20183.728516 36176.921875 25390.609375
v 20172.087891 36321.578125 25420.195312
v 19193.050781 35691.796875 25390.896484
v 19012.783203 35708.359375 25456.449219
v 19367.048828 35681.921875 25432.076172
v 19435.449219 35686.386719 25399.429688
v 19779.470703 35774.500000 25433.816406
v 18786.816406 35860.871094 25374.222656
v 18737.025391 35921.421875 25435.736328
v 20156.615234 36100.929688 25394.595703
v 18749.238281 36000.054688 25407.550781
v 20221.957031 36231.078125 25321.482422
v 20029.958984 36437.523438 25343.496094
v 19171.513672 35685.042969 25453.966797
v 19291.267578 35683.195312 25491.378906
v 18937.623047 35752.863281 25418.310547
v 19434.767578 35701.488281 25542.625000
v 18838.585938 35803.750000 25394.798828
v 18780.339844 35842.789062 25458.146484
v 18755.177734 35885.031250 25452.271484
v 20065.181641 35939.804688 25394.197266
v 19083.941406 36210.191406 25539.294922
v 19284.261719 36259.171875 25359.699219
v 19492.613281 36328.390625 25392.250000
v 19729.699219 36418.187500 25576.869141
v 19967.226562 36442.003906 25541.181641
v 20129.912109 36420.105469 25368.757812
v 20096.818359 36402.050781 25494.660156
v 19031.371094 35702.726562 25485.785156
v 19200.998047 35692.207031 25528.048828
v 18849.671875 35782.152344 25465.851562
v 18774.398438 36037.296875 25373.964844
v 20152.132812 36235.214844 25491.988281
v 19963.681641 36438.246094 25367.839844
v 20066.449219 36428.269531 25441.923828
v 18936.064453 35753.621094 25538.453125
v 19033.150391 35730.902344 25560.521484
v 19576.921875 35717.320312 25498.455078
v 19869.744141 35820.839844 25490.033203
v 19695.039062 36402.031250 25499.220703
v 20098.708984 36305.929688 25621.652344
v 18905.220703 35796.152344 25562.390625
v 18771.574219 35973.148438 25476.884766
v 18968.914062 36155.656250 25509.582031
v 19159.130859 36229.355469 25456.173828
v 19350.414062 35704.757812 25569.697266
v 19693.933594 35770.847656 25574.244141
v 19975.593750 35887.316406 25506.884766
v 20115.652344 36076.996094 25498.652344
v 18793.613281 36025.687500 25470.113281
v 18879.216797 36095.796875 25522.337891
v 18865.498047 36094.269531 25402.912109
v 20095.031250 36345.453125 25619.820312
v 19182.613281 35723.566406 25620.833984
v 19081.796875 35773.097656 25671.503906
v 18876.156250 35909.167969 25616.609375
v 19790.332031 35802.089844 25569.769531
v 19881.699219 35851.437500 25596.519531
v 19996.941406 35936.691406 25595.890625
v 20054.675781 36100.800781 25667.349609
v 18873.587891 36028.437500 25612.257812
v 20121.873047 36162.539062 25542.398438
v 19262.068359 36272.628906 25520.326172
v 19381.052734 36310.101562 25517.322266
v 20024.324219 36427.621094 25640.220703
v 20045.845703 36411.402344 25642.066406
v 19345.470703 35736.792969 25653.617188
v 18877.564453 35834.359375 25568.947266
v 18966.814453 35800.335938 25621.519531
v 19554.707031 36363.937500 25518.210938
v 20074.296875 36381.625000 25634.130859
v 20006.019531 36437.414062 25579.158203
v 19499.699219 35722.128906 25594.265625
v 20039.287109 35994.898438 25592.011719
v 18874.669922 35966.187500 25624.601562
v 19825.195312 36435.375000 25586.324219
v 19937.693359 35911.937500 25666.087891
v 18956.115234 35964.464844 25723.095703
v 18926.994141 36068.273438 25683.863281
v 18881.554688 36083.898438 25578.375000
v 19260.058594 35752.890625 25688.072266
v 19572.117188 35748.773438 25612.021484
v 19574.814453 35783.957031 25687.808594
v 19036.281250 35822.394531 25705.207031
v 20042.109375 36043.902344 25647.369141
v 20084.349609 36175.730469 25638.742188
v 19084.759766 36216.871094 25675.744141
v 19875.062500 36443.816406 25639.562500
v 19411.480469 35804.160156 25761.777344
v 18959.890625 35878.644531 25694.027344
v 19003.806641 36027.390625 25782.964844
v 20022.316406 36229.062500 25777.574219
v 19020.064453 36179.554688 25681.822266
v 19244.642578 36277.023438 25646.939453
v 19553.714844 36385.878906 25737.207031
v 19953.208984 36443.785156 25718.136719
v 19177.824219 35795.773438 25734.919922
v 19726.472656 35825.734375 25691.810547
v 19800.574219 35864.804688 25731.666016
v 19857.695312 35892.144531 25733.562500
v 18979.341797 36082.410156 25744.630859
v 19996.835938 36139.328125 25801.298828
v 18972.794922 36135.632812 25688.898438
v 19247.113281 36282.546875 25801.015625
v 20067.361328 36260.976562 25696.250000
v 19673.773438 36425.121094 25907.160156
v 20039.689453 36362.933594 25736.126953
v 19838.316406 36441.695312 25851.736328
v 19961.707031 36436.875000 25800.789062
v 19486.283203 35763.117188 25679.302734
v 19622.322266 35844.359375 25790.355469
v 19059.570312 35881.675781 25769.730469
v 19139.183594 35888.238281 25818.101562
v 19125.121094 35848.218750 25776.605469
v 19709.546875 35852.933594 25770.662109
v 19922.292969 35938.945312 25743.783203
v 19982.216797 35977.027344 25695.677734
v 19985.058594 36054.175781 25774.287109
v 19055.181641 36169.664062 25797.359375
v 20006.371094 36414.269531 25749.695312
v 19328.980469 35833.082031 25806.095703
v 19527.181641 35842.402344 25811.080078
v 19080.939453 36206.031250 25766.136719
v 19137.107422 36233.375000 25821.271484
v 19345.500000 36318.726562 25779.593750
v 19893.539062 36442.171875 25833.365234
v 19445.347656 35880.570312 25883.396484
v 19239.988281 35892.539062 25859.140625
v 19065.423828 35975.421875 25826.894531
v 19798.927734 35950.535156 25895.574219
v 19840.023438 35932.121094 25841.972656
v 19962.574219 36295.710938 25890.771484
v 19309.138672 35875.335938 25858.361328
v 19445.814453 35922.363281 25929.533203
v 19618.994141 35894.496094 25875.785156
v 19055.808594 36123.328125 25826.146484
v 19943.626953 36207.871094 25909.164062
v 19979.609375 36369.773438 25862.130859
v 19768.722656 36436.351562 25821.742188
v 19891.814453 36430.449219 25924.365234
v 19953.201172 36404.777344 25897.744141
v 19718.117188 35916.609375 25881.949219
v 19914.779297 36017.343750 25867.974609
v 19102.259766 36092.656250 25872.792969
v 19925.515625 36133.554688 25916.472656
v 19148.691406 36192.175781 25912.937500
v 19194.042969 36239.546875 25924.177734
v 19252.994141 36279.480469 25920.777344
v 19406.789062 36342.554688 25879.478516
v 19379.878906 36327.105469 25703.839844
v 19587.304688 36405.156250 25892.246094
v 19853.312500 36434.500000 25923.671875
v 19350.849609 35947.687500 25944.302734
v 19587.919922 35939.496094 25940.693359
v 19155.484375 36074.761719 25914.382812
v 19669.003906 35966.304688 25968.390625
v 19142.585938 35971.328125 25878.728516
v 19296.041016 35985.281250 25962.388672
v 19835.707031 36005.250000 25934.246094
v 19871.410156 36052.242188 25939.906250
v 19920.710938 36074.250000 25902.486328
v 19866.566406 36276.300781 26034.994141
v 19523.640625 36006.273438 26010.630859
v 19695.062500 36023.484375 26024.439453
v 19238.423828 36047.878906 25965.900391
v 19844.421875 36229.066406 26047.609375
v 19225.097656 36197.542969 25974.603516
v 19361.755859 36316.683594 26003.587891
v 19408.396484 36340.273438 25969.152344
v 19525.681641 36387.226562 25979.908203
v 19430.718750 36020.207031 26024.837891
v 19364.488281 36035.164062 26022.923828
v 19748.753906 35987.898438 25970.125000
v 19791.757812 36065.851562 26019.521484
v 19367.888672 36121.941406 26057.810547
v 19272.328125 36132.882812 26001.953125
v 19285.544922 36256.308594 26006.011719
v 19614.441406 36413.917969 25964.255859
v 19576.650391 36398.742188 26066.990234
v 19876.267578 36401.128906 25989.300781
v 19833.554688 36139.546875 26024.400391
v 19340.421875 36208.234375 26051.544922
v 19847.134766 36342.042969 26053.218750
v 19778.687500 36420.871094 26032.884766
v 19420.941406 36082.593750 26061.691406
v 19581.886719 36075.679688 26064.759766
v 19772.914062 36197.003906 26085.076172
v 19366.796875 36250.699219 26067.794922
v 19484.476562 36362.050781 26064.468750
v 19720.279297 36089.316406 26060.580078
v 19520.640625 36080.273438 26069.912109
v 19718.419922 36149.292969 26089.359375
v 19500.544922 36159.039062 26104.376953
v 19430.830078 36193.179688 26096.966797
v 19780.851562 36283.875000 26101.439453
v 19473.212891 36289.902344 26125.255859
v 19364.521484 36295.839844 26053.271484
v 19482.625000 36343.683594 26108.712891
v 19710.130859 36431.589844 25995.324219
v 19664.929688 36409.621094 26105.230469
v 19761.494141 36394.562500 26093.695312
v 19631.291016 36123.257812 26091.941406
v 19643.978516 36227.582031 26148.916016
v 19566.544922 36239.441406 26145.767578
v 19664.878906 36368.726562 26148.101562
v 19752.101562 36336.109375 26119.169922
v 19678.880859 36262.535156 26148.039062
v 19592.550781 36335.296875 26157.138672
v 19579.771484 36381.683594 26128.904297
# 384 vertices, 0 vertices normals

f 16 3 1
f 1 6 2
f 1 3 6
f 2 7 26
f 3 9 6
f 2 6 7
f 18 21 4
f 4 21 8
f 18 4 3
f 3 4 5
f 3 5 9
f 6 9 7
f 7 9 41
f 5 4 10
f 5 10 9
f 4 11 10
f 10 11 12
f 10 12 9
f 9 12 41
f 29 43 11
f 11 43 12
f 23 13 14
f 13 16 1
f 13 1 14
f 24 14 2
f 24 2 26
f 15 16 13
f 14 1 2
f 15 17 18
f 15 18 16
f 16 18 3
f 26 7 19
f 37 26 19
f 17 28 18
f 28 20 21
f 28 21 18
f 8 21 53
f 8 53 70
f 41 19 7
f 70 42 8
f 8 42 4
f 42 11 4
f 42 29 11
f 23 14 32
f 24 32 14
f 22 15 13
f 22 13 23
f 49 15 22
f 24 26 25
f 35 15 49
f 25 26 36
f 37 36 26
f 35 17 15
f 35 27 17
f 27 38 28
f 28 38 40
f 27 28 17
f 37 19 52
f 28 40 20
f 20 53 21
f 29 30 43
f 43 31 12
f 12 31 41
f 23 46 45
f 44 33 34
f 45 34 23
f 46 23 32
f 59 49 33
f 33 49 22
f 33 22 34
f 34 22 23
f 32 24 47
f 47 25 60
f 47 24 25
f 51 35 64
f 36 37 63
f 52 63 37
f 51 27 35
f 51 38 27
f 51 39 38
f 66 67 39
f 40 38 39
f 40 68 20
f 68 53 20
f 52 41 81
f 52 19 41
f 29 71 30
f 31 81 41
f 43 82 31
f 59 33 44
f 44 34 45
f 32 47 46
f 47 57 46
f 48 49 59
f 60 25 50
f 49 64 35
f 48 64 49
f 50 25 36
f 50 36 61
f 36 63 61
f 51 65 39
f 65 66 39
f 40 39 67
f 40 67 68
f 69 53 68
f 52 81 54
f 80 71 29
f 43 30 82
f 31 82 81
f 73 44 55
f 73 59 44
f 55 44 56
f 56 44 45
f 56 45 74
f 74 45 46
f 57 74 46
f 58 48 59
f 85 47 60
f 76 62 48
f 62 64 48
f 77 64 62
f 78 64 77
f 64 65 51
f 78 65 64
f 78 89 65
f 89 66 65
f 67 66 79
f 99 63 54
f 52 54 63
f 70 53 69
f 30 71 72
f 30 72 82
f 73 58 59
f 74 57 83
f 75 83 57
f 76 48 58
f 75 57 47
f 85 75 47
f 60 86 85
f 76 97 62
f 77 62 97
f 99 61 63
f 77 88 78
f 89 90 66
f 79 66 90
f 100 68 67
f 54 91 99
f 68 110 69
f 70 101 153
f 153 42 70
f 153 92 42
f 42 80 29
f 92 80 42
f 93 73 55
f 103 58 93
f 93 58 73
f 114 56 74
f 114 74 83
f 84 76 94
f 94 76 58
f 103 94 58
f 97 76 84
f 86 60 50
f 86 50 87
f 50 61 87
f 98 87 61
f 99 98 61
f 88 89 78
f 79 100 67
f 100 110 68
f 110 101 69
f 69 101 70
f 80 124 71
f 166 124 80
f 81 82 102
f 71 111 72
f 56 104 55
f 104 56 114
f 129 94 103
f 112 83 75
f 94 107 84
f 108 84 107
f 95 85 86
f 87 96 95
f 86 87 95
f 84 108 97
f 96 87 98
f 77 97 108
f 77 120 88
f 88 121 89
f 90 89 121
f 90 134 79
f 54 123 91
f 102 123 54
f 54 81 102
f 104 93 55
f 95 117 105
f 95 106 117
f 112 114 83
f 115 112 75
f 115 75 105
f 129 107 94
f 105 75 85
f 105 85 95
f 95 96 106
f 96 118 106
f 118 96 142
f 96 98 142
f 108 120 77
f 98 99 133
f 164 109 120
f 120 109 88
f 121 88 109
f 124 188 71
f 137 72 111
f 82 72 102
f 104 127 126
f 126 103 93
f 126 93 104
f 128 114 112
f 113 112 115
f 113 115 105
f 113 105 116
f 117 116 105
f 119 108 107
f 143 142 98
f 119 132 108
f 132 120 108
f 133 143 98
f 91 133 99
f 121 152 90
f 152 134 90
f 91 135 133
f 122 135 91
f 79 134 100
f 123 122 91
f 110 136 101
f 123 154 122
f 154 123 102
f 188 111 71
f 144 137 111
f 113 125 128
f 127 104 128
f 128 112 113
f 128 104 114
f 117 131 116
f 106 131 117
f 150 107 129
f 131 106 130
f 118 130 106
f 120 132 164
f 100 134 198
f 188 144 111
f 125 138 128
f 128 147 127
f 149 103 139
f 139 103 126
f 139 126 146
f 146 126 127
f 116 140 113
f 149 129 103
f 157 140 116
f 157 116 131
f 141 107 150
f 173 157 131
f 130 173 131
f 141 119 107
f 196 173 130
f 118 196 130
f 142 196 118
f 119 158 132
f 158 164 132
f 164 159 109
f 198 136 100
f 100 136 110
f 136 199 101
f 199 153 101
f 92 160 80
f 160 166 80
f 137 144 202
f 102 155 154
f 145 155 72
f 137 145 72
f 72 155 102
f 147 138 156
f 146 127 147
f 147 128 138
f 148 138 125
f 113 148 125
f 148 113 140
f 150 149 171
f 149 150 129
f 141 158 119
f 143 133 151
f 207 159 164
f 151 133 135
f 109 175 121
f 175 152 121
f 124 166 209
f 165 154 155
f 202 145 137
f 156 169 146
f 156 146 147
f 163 138 148
f 161 139 146
f 162 149 161
f 161 149 139
f 140 172 148
f 171 149 162
f 150 171 141
f 183 158 141
f 223 173 196
f 142 174 196
f 143 174 142
f 159 227 109
f 151 135 187
f 122 187 135
f 152 198 134
f 122 154 187
f 209 188 124
f 177 165 155
f 145 168 155
f 145 202 168
f 161 146 169
f 181 156 138
f 138 163 181
f 161 170 162
f 172 163 148
f 182 172 140
f 157 182 140
f 158 183 184
f 164 158 184
f 174 143 185
f 143 151 185
f 151 176 185
f 151 187 176
f 227 175 109
f 175 220 152
f 220 198 152
f 154 165 187
f 144 188 210
f 210 202 144
f 155 167 177
f 155 168 167
f 161 169 178
f 156 180 169
f 156 181 180
f 178 170 161
f 191 162 170
f 171 162 191
f 193 141 171
f 214 182 157
f 157 173 214
f 164 184 186
f 185 224 174
f 207 164 186
f 198 199 136
f 215 200 153
f 200 92 153
f 200 160 92
f 189 178 169
f 205 189 190
f 190 189 169
f 179 170 178
f 191 170 179
f 213 181 163
f 193 171 191
f 172 213 163
f 141 193 183
f 184 183 195
f 201 188 209
f 189 205 204
f 179 178 189
f 204 179 189
f 180 190 169
f 192 180 181
f 213 192 181
f 206 193 191
f 182 213 172
f 195 183 194
f 194 183 193
f 186 184 218
f 225 207 186
f 165 208 187
f 153 199 215
f 210 188 201
f 202 203 168
f 167 168 203
f 191 179 206
f 179 211 206
f 179 204 211
f 180 192 190
f 206 194 193
f 214 232 182
f 214 173 233
f 196 174 249
f 224 249 174
f 176 224 185
f 218 225 186
f 207 226 159
f 219 197 175
f 187 208 176
f 197 220 175
f 220 238 198
f 238 239 198
f 239 199 198
f 245 215 199
f 177 167 228
f 210 203 202
f 240 203 210
f 190 221 205
f 192 221 190
f 206 217 194
f 206 211 217
f 243 194 217
f 223 233 173
f 196 234 223
f 218 184 195
f 225 226 207
f 226 227 159
f 227 219 175
f 177 216 165
f 216 177 228
f 251 166 160
f 166 263 209
f 263 201 209
f 210 201 247
f 167 246 228
f 247 240 210
f 167 203 246
f 205 229 204
f 204 212 211
f 212 204 229
f 230 211 212
f 248 192 213
f 222 213 182
f 182 232 222
f 195 194 243
f 195 243 231
f 196 249 234
f 224 260 249
f 176 237 224
f 208 237 176
f 239 245 199
f 165 216 208
f 251 160 200
f 251 263 166
f 240 241 203
f 246 203 241
f 229 205 221
f 213 222 248
f 214 233 232
f 195 231 250
f 250 218 195
f 218 236 225
f 226 219 227
f 269 238 220
f 230 212 229
f 230 244 211
f 217 211 244
f 265 231 243
f 252 233 223
f 234 252 223
f 224 235 260
f 236 218 250
f 235 224 237
f 255 225 236
f 226 225 255
f 197 269 220
f 242 229 221
f 242 221 192
f 248 242 192
f 257 248 222
f 244 243 217
f 259 244 230
f 265 243 244
f 231 265 253
f 231 253 250
f 235 237 261
f 208 261 237
f 262 197 219
f 280 208 216
f 325 239 238
f 239 270 245
f 270 215 245
f 242 256 229
f 256 230 229
f 252 234 292
f 234 249 292
f 250 254 236
f 255 278 226
f 226 268 219
f 208 280 261
f 263 271 201
f 271 247 201
f 271 240 247
f 285 242 248
f 256 272 230
f 257 285 248
f 273 257 222
f 232 273 222
f 265 244 259
f 292 249 260
f 254 255 236
f 254 278 255
f 278 268 226
f 219 268 262
f 197 262 269
f 325 270 239
f 270 200 215
f 281 251 200
f 241 295 246
f 241 240 295
f 273 258 257
f 275 274 232
f 275 232 233
f 252 275 233
f 291 252 292
f 266 250 253
f 266 254 250
f 266 276 254
f 235 261 277
f 216 228 282
f 281 314 251
f 246 282 228
f 295 282 246
f 264 256 242
f 264 242 285
f 257 258 285
f 259 230 289
f 289 230 272
f 258 273 290
f 274 273 232
f 260 293 292
f 235 293 260
f 235 277 293
f 278 254 276
f 261 267 277
f 280 267 261
f 279 269 262
f 269 325 238
f 282 280 216
f 314 263 251
f 263 283 271
f 240 284 295
f 240 271 284
f 256 296 272
f 296 256 264
f 286 285 258
f 259 289 287
f 304 265 287
f 287 265 259
f 291 275 252
f 304 253 265
f 266 311 276
f 276 294 278
f 278 294 268
f 269 300 325
f 271 283 301
f 301 284 271
f 264 302 296
f 302 264 297
f 297 264 285
f 290 286 258
f 303 272 308
f 288 287 289
f 274 290 273
f 287 332 304
f 332 287 288
f 306 274 275
f 291 306 275
f 253 304 266
f 294 276 311
f 298 268 294
f 298 262 268
f 279 300 269
f 325 326 270
f 314 283 263
f 308 272 296
f 286 297 285
f 272 303 289
f 306 290 274
f 291 292 318
f 293 318 292
f 318 293 336
f 277 336 293
f 298 299 262
f 262 299 279
f 282 313 280
f 326 200 270
f 326 281 200
f 282 295 313
f 315 284 301
f 296 302 308
f 286 310 297
f 297 310 302
f 303 288 289
f 290 317 286
f 306 317 290
f 291 318 306
f 277 320 336
f 320 277 312
f 299 298 294
f 267 312 277
f 267 307 312
f 280 307 267
f 307 280 313
f 295 316 313
f 301 327 315
f 284 316 295
f 310 329 302
f 302 329 309
f 317 310 286
f 328 308 302
f 317 306 305
f 305 306 334
f 304 319 266
f 266 319 311
f 311 321 294
f 321 299 294
f 323 279 299
f 279 324 300
f 300 324 325
f 325 345 326
f 283 327 301
f 315 316 284
f 308 328 303
f 302 309 328
f 288 333 332
f 303 333 288
f 333 303 328
f 306 318 334
f 304 332 330
f 318 336 335
f 304 330 319
f 319 321 311
f 322 299 321
f 299 322 323
f 279 323 324
f 324 345 325
f 345 353 326
f 281 374 314
f 374 283 314
f 329 338 309
f 329 310 331
f 331 310 317
f 305 348 317
f 317 348 331
f 348 305 334
f 334 318 335
f 340 330 332
f 319 330 321
f 337 312 307
f 337 307 316
f 313 316 307
f 326 353 281
f 359 315 327
f 309 346 328
f 338 346 309
f 329 331 338
f 328 346 347
f 340 333 347
f 332 333 340
f 333 328 347
f 312 341 320
f 320 341 336
f 312 337 341
f 342 321 330
f 342 322 321
f 323 344 324
f 324 344 345
f 353 374 281
f 374 359 283
f 359 327 283
f 359 355 315
f 316 315 355
f 338 331 339
f 334 335 349
f 336 349 335
f 351 330 340
f 330 351 342
f 351 357 342
f 352 322 342
f 352 342 357
f 323 322 352
f 343 323 352
f 316 358 337
f 358 316 355
f 361 338 339
f 348 339 331
f 348 349 339
f 348 334 349
f 347 350 340
f 336 356 349
f 341 356 336
f 357 363 352
f 352 363 372
f 372 343 352
f 323 343 344
f 345 354 353
f 354 374 353
f 360 347 346
f 346 366 360
f 338 366 346
f 366 338 361
f 350 347 360
f 340 350 351
f 350 357 351
f 337 358 341
f 343 364 344
f 364 345 344
f 349 365 339
f 360 366 368
f 362 367 349
f 367 365 349
f 356 362 349
f 360 369 350
f 360 368 369
f 357 350 369
f 341 362 356
f 369 363 357
f 358 370 341
f 358 381 370
f 364 343 372
f 345 364 354
f 354 375 374
f 355 376 358
f 358 376 381
f 339 365 361
f 366 361 377
f 377 361 365
f 377 365 367
f 369 371 363
f 370 362 341
f 363 371 372
f 371 373 372
f 364 372 373
f 364 384 354
f 384 375 354
f 374 375 359
f 375 376 359
f 359 376 355
f 366 378 368
f 366 377 378
f 368 379 369
f 379 368 378
f 378 377 367
f 371 369 379
f 362 378 367
f 382 378 362
f 381 382 370
f 370 382 362
f 373 371 383
f 373 383 384
f 384 364 373
f 376 380 381
f 375 380 376
f 378 383 379
f 383 378 382
f 379 383 371
f 380 383 382
f 380 382 381
f 384 383 380
f 375 384 380
# 764 faces, 0 coords texture

# End of File
