####
#
# OBJ File Generated by Meshlab
#
####
# Object AL-DA2R.obj
#
# Vertices: 1079
# Faces: 2154
#
####
v 20801.175781 35912.128906 24997.500000
v 21025.791016 35614.964844 25079.197266
v 20900.968750 35716.593750 25033.316406
v 20780.082031 35677.636719 25051.433594
v 20990.564453 35750.632812 25051.550781
v 20795.900391 35784.734375 25011.248047
v 21105.546875 35754.367188 25090.878906
v 20870.179688 35818.726562 25005.107422
v 20930.935547 35890.171875 25030.925781
v 21010.208984 35827.289062 25055.197266
v 20679.259766 35851.210938 25025.939453
v 20720.402344 35887.421875 25009.316406
v 21006.417969 35926.734375 25055.199219
v 20592.324219 36038.812500 25042.152344
v 20657.121094 35964.218750 25022.189453
v 20739.916016 36031.597656 25023.142578
v 20691.886719 36039.335938 25023.623047
v 20632.976562 36163.851562 25066.455078
v 20959.544922 35569.089844 25081.324219
v 20852.013672 35631.750000 25058.929688
v 21085.548828 35515.730469 25118.732422
v 21114.507812 35648.058594 25098.917969
v 20712.140625 35737.304688 25047.005859
v 20624.582031 35770.402344 25063.035156
v 21142.658203 35862.101562 25106.673828
v 20572.234375 35857.968750 25061.359375
v 20550.402344 35951.980469 25053.046875
v 20489.498047 36031.328125 25072.416016
v 20901.732422 35968.105469 25035.382812
v 20841.609375 36024.648438 25037.066406
v 20716.533203 36132.500000 25057.470703
v 20563.531250 36151.097656 25068.408203
v 20570.824219 36254.390625 25100.630859
v 20951.330078 35505.210938 25107.105469
v 20838.511719 35510.843750 25105.630859
v 20758.007812 35571.777344 25091.353516
v 20647.453125 35664.648438 25084.996094
v 20446.617188 36045.546875 25098.501953
v 20866.701172 36141.878906 25078.392578
v 20491.144531 36177.386719 25100.716797
v 20803.101562 36203.074219 25092.277344
v 21042.062500 35456.343750 25146.048828
v 20902.195312 35481.898438 25120.921875
v 21143.871094 35472.824219 25160.830078
v 20727.455078 35507.875000 25143.367188
v 21179.166016 35553.726562 25142.201172
v 21214.292969 35663.789062 25139.294922
v 20479.244141 35819.660156 25104.205078
v 21265.742188 35771.835938 25166.037109
v 20419.996094 35918.652344 25121.554688
v 21080.480469 35979.699219 25092.875000
v 21036.214844 36036.398438 25085.931641
v 20458.859375 36126.796875 25106.187500
v 20415.978516 36157.003906 25138.767578
v 20970.429688 36094.531250 25084.080078
v 21004.890625 36176.570312 25119.738281
v 20699.791016 36258.105469 25104.402344
v 20876.011719 36280.644531 25140.062500
v 20568.847656 36314.312500 25133.144531
v 21117.820312 35431.757812 25189.042969
v 20925.292969 35430.949219 25185.449219
v 20843.490234 35466.140625 25152.419922
v 21233.888672 35468.023438 25239.134766
v 20593.937500 35562.042969 25188.593750
v 21262.187500 35555.226562 25190.744141
v 20679.638672 35562.867188 25119.529297
v 20510.589844 35682.765625 25142.052734
v 21263.931641 35648.550781 25168.042969
v 20391.507812 35801.707031 25161.894531
v 21268.607422 35877.570312 25170.683594
v 20363.404297 35996.156250 25157.843750
v 21199.595703 35972.039062 25145.740234
v 21175.142578 36059.425781 25149.322266
v 21332.496094 36053.406250 25223.634766
v 21068.541016 36131.960938 25123.623047
v 21102.214844 36190.531250 25158.640625
v 21163.798828 36130.074219 25161.935547
v 21048.054688 36260.078125 25171.808594
v 20768.679688 36308.492188 25137.404297
v 20976.267578 36382.925781 25220.802734
v 20463.189453 36406.515625 25206.441406
v 20500.363281 36294.757812 25131.480469
v 20541.267578 36391.273438 25184.558594
v 21018.404297 35414.742188 25196.912109
v 21077.373047 35391.933594 25253.000000
v 21135.691406 35396.250000 25284.128906
v 20822.929688 35452.679688 25203.363281
v 21331.351562 35540.890625 25254.566406
v 20399.546875 35756.191406 25183.267578
v 21353.005859 35782.902344 25216.886719
v 20344.318359 35887.023438 25188.019531
v 20376.101562 36081.238281 25154.992188
v 21215.347656 36197.753906 25201.658203
v 20657.437500 36346.218750 25153.644531
v 20827.000000 36396.742188 25204.722656
v 21012.248047 35366.140625 25320.546875
v 20683.406250 35518.128906 25164.626953
v 21343.832031 35604.804688 25230.402344
v 20520.054688 35625.945312 25189.154297
v 20403.308594 35718.011719 25232.001953
v 20347.933594 35776.875000 25230.208984
v 21392.537109 35749.800781 25248.697266
v 20292.113281 35881.679688 25266.535156
v 20306.107422 35918.148438 25231.039062
v 21424.130859 35884.914062 25268.544922
v 20376.097656 36215.792969 25183.535156
v 21102.271484 36350.417969 25231.525391
v 20424.810547 36325.730469 25179.037109
v 20768.750000 36434.761719 25228.546875
v 20891.142578 35406.921875 25289.582031
v 20700.917969 35488.996094 25277.851562
v 20565.531250 35564.203125 25351.326172
v 20479.441406 35635.250000 25273.720703
v 21367.746094 35921.894531 25231.826172
v 20329.035156 36113.292969 25202.406250
v 21342.828125 36228.519531 25273.865234
v 20324.343750 36285.386719 25251.529297
v 21196.888672 36253.917969 25214.607422
v 21208.269531 36318.726562 25251.470703
v 21098.607422 36403.089844 25261.900391
v 20611.878906 36431.054688 25219.320312
v 20734.369141 36484.875000 25273.876953
v 20477.132812 36445.003906 25234.544922
v 20431.675781 36458.906250 25264.417969
v 21327.513672 35496.429688 25319.554688
v 21455.613281 35752.027344 25306.853516
v 21493.150391 35897.277344 25326.029297
v 20251.019531 35951.609375 25342.751953
v 21358.613281 36108.031250 25251.701172
v 21042.898438 36451.273438 25279.818359
v 20345.437500 36410.390625 25290.566406
v 20610.349609 36483.921875 25274.148438
v 20917.316406 36479.539062 25280.046875
v 21072.857422 35356.363281 25351.316406
v 21154.507812 35363.488281 25411.718750
v 20867.484375 35400.917969 25359.781250
v 21217.375000 35416.335938 25325.500000
v 20806.269531 35436.507812 25281.986328
v 21373.484375 35570.261719 25283.292969
v 20274.369141 35872.847656 25334.935547
v 21500.597656 36069.109375 25337.050781
v 21456.998047 36204.054688 25338.369141
v 20295.533203 36260.335938 25278.908203
v 21362.158203 36358.257812 25337.503906
v 20283.734375 36362.156250 25336.808594
v 20246.320312 36413.167969 25418.984375
v 20383.970703 36482.851562 25339.050781
v 20572.355469 36527.867188 25333.132812
v 20855.830078 36498.332031 25290.396484
v 21037.736328 36569.460938 25380.910156
v 21420.316406 35671.917969 25290.261719
v 20404.710938 35684.914062 25403.589844
v 20386.371094 35719.156250 25286.429688
v 20304.785156 35805.472656 25344.890625
v 21542.042969 35876.328125 25372.097656
v 20292.039062 36095.269531 25245.917969
v 21528.628906 36197.699219 25387.957031
v 20255.095703 36184.156250 25317.728516
v 21450.029297 36362.414062 25386.550781
v 20236.476562 36331.066406 25384.986328
v 21216.630859 36434.593750 25320.388672
v 21274.355469 36522.652344 25398.853516
v 20421.986328 36522.476562 25382.906250
v 20486.310547 36536.687500 25376.230469
v 21053.093750 36517.214844 25334.962891
v 20623.519531 36580.406250 25405.375000
v 20731.062500 36585.460938 25391.501953
v 20746.197266 36543.910156 25337.953125
v 21459.968750 35613.566406 25379.138672
v 21535.451172 35773.917969 25383.177734
v 20260.806641 36044.613281 25301.316406
v 20270.412109 36490.992188 25518.328125
v 20370.632812 36506.183594 25397.396484
v 20890.386719 36630.464844 25443.218750
v 20951.814453 35355.210938 25434.679688
v 21003.066406 35348.789062 25411.224609
v 21200.667969 35391.957031 25366.736328
v 21398.238281 35507.953125 25433.957031
v 20215.933594 36028.937500 25397.875000
v 21603.306641 35879.066406 25430.810547
v 21577.814453 36039.027344 25398.013672
v 20202.882812 36239.753906 25402.962891
v 20297.480469 36456.152344 25396.781250
v 21301.521484 36447.589844 25360.769531
v 20657.523438 36623.863281 25487.062500
v 20928.957031 36593.132812 25396.162109
v 21112.287109 35345.109375 25450.128906
v 20873.509766 35375.273438 25513.068359
v 20783.974609 35433.359375 25393.546875
v 20660.074219 35503.281250 25365.513672
v 21327.697266 35447.035156 25438.105469
v 20347.414062 35744.960938 25390.560547
v 20284.166016 35812.214844 25432.181641
v 20185.048828 35966.183594 25515.021484
v 20196.357422 36432.226562 25551.734375
v 21362.267578 36471.519531 25405.789062
v 20499.375000 36583.343750 25469.728516
v 20497.187500 35605.386719 25423.048828
v 21640.207031 35992.679688 25452.990234
v 21503.781250 36393.089844 25446.333984
v 20721.216797 36609.917969 25434.132812
v 21147.914062 36554.453125 25385.599609
v 21302.523438 36658.816406 25530.105469
v 21210.574219 36631.347656 25477.843750
v 20758.341797 35430.535156 25523.724609
v 21529.623047 35565.203125 25561.138672
v 21445.228516 35560.421875 25425.753906
v 20402.554688 35665.589844 25518.689453
v 20295.730469 35774.500000 25501.386719
v 21671.771484 35872.363281 25505.005859
v 21613.205078 36180.500000 25453.746094
v 21552.193359 36250.726562 25422.779297
v 21553.074219 36320.253906 25450.339844
v 21523.798828 36488.023438 25514.644531
v 20217.822266 36468.265625 25564.041016
v 20324.320312 36535.265625 25535.585938
v 21441.244141 36469.773438 25450.251953
v 20409.892578 36571.792969 25513.800781
v 20500.691406 36615.972656 25562.177734
v 20570.705078 36620.160156 25523.523438
v 21358.775391 36647.410156 25542.685547
v 20867.937500 36651.429688 25481.265625
v 21114.095703 36636.402344 25468.746094
v 21069.652344 35310.695312 25612.111328
v 21056.960938 35338.855469 25452.058594
v 20964.710938 35331.445312 25557.900391
v 21176.628906 35345.335938 25524.748047
v 20620.982422 35512.210938 25505.980469
v 21565.763672 35647.546875 25502.929688
v 21560.449219 35719.164062 25435.425781
v 20248.589844 35808.851562 25568.082031
v 20217.761719 35893.945312 25503.265625
v 21647.330078 36087.136719 25461.753906
v 21646.226562 36290.648438 25514.761719
v 20178.080078 36332.511719 25502.468750
v 21587.314453 36494.488281 25563.980469
v 21404.902344 36547.253906 25485.392578
v 21446.265625 36632.359375 25574.312500
v 20642.808594 36655.867188 25591.031250
v 21030.523438 36680.984375 25523.007812
v 21410.818359 35451.050781 25580.992188
v 21686.496094 35740.660156 25587.148438
v 20231.736328 35848.484375 25535.041016
v 20170.410156 35966.003906 25570.250000
v 21694.783203 36032.898438 25507.898438
v 21729.152344 36286.945312 25589.027344
v 21643.980469 36429.179688 25573.689453
v 20149.050781 36409.058594 25633.556641
v 21556.964844 36577.699219 25597.218750
v 21500.285156 36591.773438 25571.867188
v 20649.859375 36684.722656 25707.869141
v 20839.351562 36704.039062 25606.634766
v 20841.035156 36680.078125 25544.886719
v 21029.638672 36728.042969 25597.564453
v 21245.917969 35373.398438 25519.140625
v 20864.468750 35371.191406 25645.585938
v 20793.597656 35408.878906 25579.515625
v 21316.144531 35409.414062 25523.085938
v 21467.566406 35504.707031 25565.277344
v 20279.156250 35736.410156 25724.402344
v 20283.009766 35760.515625 25593.164062
v 21677.964844 35821.257812 25527.447266
v 21754.810547 36191.078125 25589.585938
v 21701.562500 36404.265625 25609.867188
v 20428.816406 36599.035156 25576.271484
v 21665.634766 36540.644531 25650.927734
v 21643.330078 36645.804688 25719.714844
v 20883.007812 36741.988281 25699.257812
v 21441.761719 36690.031250 25622.902344
v 21468.056641 36740.054688 25687.406250
v 20987.294922 36742.000000 25633.236328
v 21099.902344 36790.261719 25704.419922
v 21139.201172 36777.898438 25670.578125
v 21325.843750 36760.792969 25657.953125
v 20970.675781 35328.820312 25649.582031
v 21136.929688 35302.507812 25687.177734
v 21158.513672 35321.597656 25606.472656
v 20240.064453 35782.179688 25705.556641
v 20207.814453 35830.496094 25678.783203
v 20118.011719 35971.050781 25729.492188
v 20159.097656 36106.242188 25513.396484
v 21781.298828 36249.906250 25636.871094
v 21755.476562 36446.582031 25679.671875
v 21519.794922 36672.468750 25648.410156
v 21019.501953 36780.238281 25720.322266
v 21305.265625 36696.164062 25567.058594
v 21420.951172 36768.605469 25700.601562
v 20732.443359 35431.730469 25703.685547
v 21510.468750 35472.203125 25698.671875
v 21693.023438 35674.464844 25664.976562
v 21786.312500 35972.371094 25625.636719
v 20172.593750 35905.179688 25637.306641
v 20116.927734 36025.109375 25690.320312
v 21787.263672 36073.691406 25623.322266
v 20105.953125 36166.390625 25667.009766
v 20171.660156 36203.679688 25454.621094
v 21821.710938 36207.531250 25680.613281
v 21801.925781 36413.570312 25717.335938
v 20192.859375 36503.921875 25699.392578
v 20323.015625 36561.250000 25622.910156
v 21108.027344 36821.058594 25779.257812
v 21222.005859 36753.515625 25627.871094
v 21261.882812 35336.445312 25666.230469
v 20528.972656 35554.851562 25651.449219
v 20494.964844 35583.093750 25599.916016
v 21631.152344 35600.121094 25667.744141
v 20114.074219 36100.640625 25658.328125
v 21855.476562 36290.617188 25743.771484
v 20134.572266 36451.429688 25717.236328
v 21793.519531 36524.496094 25785.134766
v 21717.908203 36558.382812 25713.593750
v 21196.292969 35297.195312 25743.291016
v 20934.917969 35335.632812 25759.353516
v 20660.306641 35478.664062 25613.917969
v 20461.574219 35580.628906 25837.937500
v 21558.917969 35533.039062 25662.972656
v 21727.076172 35616.433594 25791.955078
v 21775.990234 35804.050781 25670.417969
v 21861.546875 36127.710938 25728.320312
v 21885.781250 36236.054688 25775.408203
v 20122.728516 36363.781250 25660.863281
v 21520.509766 36742.292969 25732.712891
v 21265.251953 36812.894531 25726.669922
v 21368.527344 36819.414062 25751.000000
v 21301.458984 36856.937500 25815.429688
v 21026.099609 35310.234375 25718.125000
v 21117.261719 35293.140625 25753.728516
v 20602.230469 35498.687500 25761.595703
v 20552.162109 35521.816406 25863.802734
v 20337.150391 35684.531250 25724.826172
v 21825.384766 35736.578125 25798.582031
v 21856.439453 35793.917969 25808.076172
v 20207.753906 35792.511719 25809.503906
v 20156.189453 35864.160156 25779.804688
v 20132.560547 35918.335938 25750.109375
v 21858.779297 36009.523438 25732.273438
v 21939.289062 36204.906250 25863.972656
v 21870.275391 36329.789062 25784.291016
v 21856.138672 36461.464844 25842.578125
v 20346.816406 36610.003906 25803.841797
v 21715.916016 36618.820312 25772.369141
v 20888.025391 36765.253906 25791.027344
v 20844.986328 35368.804688 25805.765625
v 21336.537109 35364.898438 25681.250000
v 21419.798828 35388.398438 25744.136719
v 21461.914062 35432.269531 25705.441406
v 21624.908203 35518.175781 25790.246094
v 21820.248047 35923.847656 25689.333984
v 20074.144531 36107.906250 25765.453125
v 20107.828125 36262.070312 25665.898438
v 20080.261719 36470.546875 25859.296875
v 21822.449219 36570.171875 25883.093750
v 21258.226562 35305.031250 25771.720703
v 20225.312500 35762.144531 25864.566406
v 21858.585938 35863.582031 25775.679688
v 20151.910156 35840.695312 25852.574219
v 20061.927734 35966.070312 25870.287109
v 20035.287109 36023.800781 25888.857422
v 20047.285156 36280.097656 25820.277344
v 20070.751953 36411.558594 25816.662109
v 20232.744141 36533.789062 25704.880859
v 21486.033203 36818.425781 25822.630859
v 21343.810547 36907.281250 25942.353516
v 21911.941406 36044.851562 25810.941406
v 21930.650391 36151.960938 25841.664062
v 20060.304688 36342.070312 25806.117188
v 20113.535156 36511.898438 25886.718750
v 21797.085938 36586.648438 25860.644531
v 21647.035156 36691.878906 25784.359375
v 21218.392578 36859.230469 25821.222656
v 21167.777344 35275.867188 25852.871094
v 21080.066406 35290.800781 25821.246094
v 21270.515625 35282.835938 25880.628906
v 20751.326172 35406.632812 25895.021484
v 20624.548828 35476.964844 25915.283203
v 20378.779297 35639.179688 25831.550781
v 21782.554688 35668.000000 25810.257812
v 20062.564453 36188.914062 25780.533203
v 21912.339844 36342.855469 25882.990234
v 20141.953125 36544.140625 25931.714844
v 21844.072266 36542.773438 25898.400391
v 20495.613281 36636.941406 25667.183594
v 20867.605469 36771.683594 25871.646484
v 21025.074219 36811.906250 25825.619141
v 21542.878906 36811.980469 25865.703125
v 21394.107422 36872.667969 25882.240234
v 20978.316406 35314.332031 25846.705078
v 21341.689453 35305.351562 25867.753906
v 21409.781250 35341.375000 25857.269531
v 21734.828125 35558.773438 25895.990234
v 20282.949219 35707.414062 25886.882812
v 21914.201172 35936.171875 25848.542969
v 20030.220703 36144.953125 25854.871094
v 21957.076172 36181.164062 25919.177734
v 20224.568359 36567.929688 25857.449219
v 20332.027344 36585.804688 25705.140625
v 21729.164062 36669.496094 25875.832031
v 20970.513672 36808.007812 25896.015625
v 21195.390625 35266.699219 25925.587891
v 21517.060547 35385.218750 25906.402344
v 21609.833984 35442.402344 25917.494141
v 21851.490234 35683.476562 25923.328125
v 21893.138672 35782.628906 25899.347656
v 20088.585938 35898.960938 25905.515625
v 21947.685547 36267.546875 25928.712891
v 21916.855469 36423.417969 25975.228516
v 20727.427734 36726.968750 25846.517578
v 21788.375000 36653.773438 25961.453125
v 21460.628906 36875.078125 25927.121094
v 21276.628906 35269.882812 25969.455078
v 21063.367188 35286.617188 25944.457031
v 20940.689453 35322.554688 25976.777344
v 21708.892578 35508.246094 25954.810547
v 21954.904297 36047.226562 25905.523438
v 20032.832031 36079.835938 25866.042969
v 19979.626953 36178.875000 25946.875000
v 19991.513672 36267.460938 25925.919922
v 19983.548828 36337.964844 25953.384766
v 20000.800781 36413.457031 25955.501953
v 20903.646484 36808.585938 26108.185547
v 21598.462891 36844.152344 26003.593750
v 21213.464844 36894.601562 25926.753906
v 21297.904297 36914.968750 25953.322266
v 21401.583984 35313.292969 25943.394531
v 21432.431641 35322.125000 25961.035156
v 21491.009766 35354.890625 25964.052734
v 21776.828125 35548.492188 26026.025391
v 21912.271484 35742.167969 26029.685547
v 21937.921875 35782.097656 26076.814453
v 21935.185547 35883.019531 25940.226562
v 20043.521484 35922.636719 25983.781250
v 20008.281250 35984.906250 25974.796875
v 19968.792969 36091.203125 25984.593750
v 21961.136719 35999.460938 25956.734375
v 19992.761719 36459.500000 26013.490234
v 20063.722656 36517.503906 25995.541016
v 20377.451172 36636.656250 25922.369141
v 21696.291016 36755.531250 25983.828125
v 21282.892578 36941.671875 26052.855469
v 21365.160156 36967.148438 26137.291016
v 21352.423828 35291.261719 25976.363281
v 21629.230469 35441.734375 26058.375000
v 20812.474609 35377.109375 25966.533203
v 20448.410156 35579.230469 25986.599609
v 21814.011719 35620.558594 25934.658203
v 20317.054688 35667.605469 25996.261719
v 20182.826172 35772.687500 25994.341797
v 20102.544922 35842.855469 26003.896484
v 21985.068359 36150.011719 26021.595703
v 19930.660156 36261.960938 26019.988281
v 21980.455078 36219.949219 26013.630859
v 19945.960938 36405.917969 26037.369141
v 21863.828125 36584.750000 26049.826172
v 20977.421875 36827.625000 26021.724609
v 21138.414062 35270.996094 26018.441406
v 21364.648438 35333.738281 26101.119141
v 21498.347656 35375.246094 26064.166016
v 20746.300781 35412.500000 26108.949219
v 20524.673828 35529.562500 26150.246094
v 19976.273438 35937.156250 26119.046875
v 21957.857422 35914.062500 26020.330078
v 21977.525391 36040.195312 26017.384766
v 19883.414062 36138.781250 26107.476562
v 21970.728516 36313.734375 26095.300781
v 21954.285156 36324.300781 26005.730469
v 19902.046875 36445.824219 26131.250000
v 21931.480469 36439.550781 26070.867188
v 20218.150391 36595.320312 26004.843750
v 20247.537109 36617.015625 26077.214844
v 20526.585938 36673.316406 25870.359375
v 21107.755859 36877.105469 26004.775391
v 21618.152344 36850.550781 26047.412109
v 21421.199219 36934.121094 26046.980469
v 21519.625000 36894.851562 26022.166016
v 21229.001953 35283.261719 26085.742188
v 21578.265625 35446.031250 26149.304688
v 21668.699219 35458.710938 26009.152344
v 21882.949219 35657.183594 26094.140625
v 19927.576172 36321.097656 26031.474609
v 19821.189453 36289.695312 26160.296875
v 19828.380859 36373.289062 26174.296875
v 20016.101562 36491.996094 26025.789062
v 20034.591797 36540.511719 26118.972656
v 21896.058594 36510.546875 26029.703125
v 21822.886719 36634.406250 26021.441406
v 21758.814453 36775.785156 26180.005859
v 21742.972656 36739.906250 26051.761719
v 21145.957031 36923.945312 26211.476562
v 21222.099609 36934.589844 26082.289062
v 21503.697266 36960.792969 26224.921875
v 21180.078125 35271.523438 26076.109375
v 21474.601562 35409.550781 26177.478516
v 21785.126953 35560.851562 26110.585938
v 21858.908203 35640.164062 26160.349609
v 21958.740234 35853.894531 26093.513672
v 19931.160156 36029.636719 26078.644531
v 19919.373047 36190.734375 26041.177734
v 21980.042969 36307.773438 26172.591797
v 19904.515625 36479.796875 26179.757812
v 19970.234375 36511.757812 26147.125000
v 20158.263672 36569.527344 25998.035156
v 21881.292969 36597.085938 26154.998047
v 20345.236328 36654.000000 26142.882812
v 21042.781250 36870.945312 26157.962891
v 21074.253906 35288.617188 26133.429688
v 20845.216797 35367.062500 26128.271484
v 20670.462891 35450.644531 26053.402344
v 20394.501953 35610.320312 26075.697266
v 20236.261719 35726.019531 26018.080078
v 21951.144531 35800.839844 26164.666016
v 20145.462891 35775.511719 26130.384766
v 19946.808594 35986.730469 26097.527344
v 21986.253906 36049.785156 26126.785156
v 19885.187500 36044.121094 26159.675781
v 21987.917969 36230.941406 26129.669922
v 21555.986328 36915.203125 26134.949219
v 21265.458984 36960.410156 26163.083984
v 21029.296875 35292.773438 26054.779297
v 21671.835938 35495.582031 26153.392578
v 21927.792969 35726.804688 26126.703125
v 20092.927734 35823.636719 26100.486328
v 21969.349609 35929.789062 26220.740234
v 19968.517578 35899.058594 26231.396484
v 21976.638672 35935.714844 26153.285156
v 19828.599609 36087.648438 26218.630859
v 19848.570312 36122.019531 26164.666016
v 19830.369141 36213.082031 26155.896484
v 21991.224609 36186.886719 26172.115234
v 21960.058594 36404.035156 26186.058594
v 19791.076172 36426.261719 26253.837891
v 20055.650391 36573.968750 26212.712891
v 21924.312500 36505.992188 26160.583984
v 20990.263672 36871.777344 26382.855469
v 21684.974609 36822.687500 26118.115234
v 21668.958984 36889.515625 26264.210938
v 21274.167969 36976.070312 26269.421875
v 21432.212891 36976.976562 26216.767578
v 20899.568359 35347.761719 26193.562500
v 21260.716797 35342.460938 26199.662109
v 21727.824219 35526.324219 26142.830078
v 21784.304688 35598.179688 26234.068359
v 20339.472656 35635.496094 26189.890625
v 21863.457031 35667.027344 26228.523438
v 20301.123047 35671.492188 26077.804688
v 21921.386719 35783.269531 26264.039062
v 19899.779297 35972.855469 26229.125000
v 19848.933594 36027.660156 26249.511719
v 19738.154297 36145.984375 26300.134766
v 19729.873047 36240.042969 26262.302734
v 21989.031250 36128.523438 26216.857422
v 19763.896484 36331.750000 26229.714844
v 21897.201172 36591.300781 26242.103516
v 21395.900391 36992.191406 26276.968750
v 20657.142578 35459.894531 26240.804688
v 21626.230469 35520.722656 26271.166016
v 21981.582031 36094.875000 26283.765625
v 21966.285156 36419.945312 26305.419922
v 19751.117188 36377.957031 26260.890625
v 19806.435547 36462.085938 26280.871094
v 21940.310547 36503.625000 26291.863281
v 21832.046875 36688.738281 26190.451172
v 20786.496094 36783.136719 26262.244141
v 21341.226562 36991.304688 26289.591797
v 21068.406250 35320.304688 26233.031250
v 21168.787109 35328.039062 26219.488281
v 20583.412109 35494.273438 26294.466797
v 20492.253906 35532.582031 26401.607422
v 20417.890625 35574.289062 26349.906250
v 20213.404297 35714.507812 26203.785156
v 21896.292969 35728.175781 26257.144531
v 19678.488281 36212.921875 26347.554688
v 21975.148438 36098.335938 26359.837891
v 19689.251953 36305.808594 26309.246094
v 21981.900391 36315.871094 26270.468750
v 21860.787109 36668.417969 26269.468750
v 21698.722656 36877.609375 26320.601562
v 20953.648438 35331.441406 26211.898438
v 20750.830078 35417.484375 26276.009766
v 21547.421875 35524.578125 26352.199219
v 21706.314453 35562.265625 26272.810547
v 20104.445312 35782.527344 26246.560547
v 21948.619141 35905.343750 26309.656250
v 20030.478516 35840.921875 26242.111328
v 19842.789062 35993.992188 26311.744141
v 19777.402344 36066.335938 26319.062500
v 21983.275391 36276.609375 26377.546875
v 19656.117188 36349.390625 26362.763672
v 21965.291016 36439.121094 26432.517578
v 19807.453125 36489.265625 26334.623047
v 20077.744141 36596.855469 26290.023438
v 21779.050781 36797.218750 26274.912109
v 21588.751953 36939.621094 26299.152344
v 21463.755859 36993.085938 26334.232422
v 20975.462891 35349.191406 26305.539062
v 21108.990234 35354.722656 26304.677734
v 21063.537109 35388.660156 26397.970703
v 20663.091797 35458.015625 26360.777344
v 21241.781250 35428.386719 26388.382812
v 21375.199219 35384.562500 26210.095703
v 21805.796875 35641.562500 26294.837891
v 21858.794922 35738.226562 26365.189453
v 21898.582031 35800.742188 26357.888672
v 21981.906250 36199.679688 26403.953125
v 21977.968750 36361.914062 26410.019531
v 19939.582031 36541.523438 26283.265625
v 21909.828125 36597.582031 26369.892578
v 21809.869141 35717.585938 26430.167969
v 20255.328125 35668.691406 26332.562500
v 19940.126953 35860.890625 26430.224609
v 21949.050781 35985.804688 26399.546875
v 19874.507812 36521.406250 26323.281250
v 21943.308594 36508.781250 26374.587891
v 20207.230469 36638.746094 26319.273438
v 21809.105469 36772.433594 26378.566406
v 21394.564453 37010.925781 26388.281250
v 21524.470703 36982.265625 26376.953125
v 20843.015625 35384.507812 26321.222656
v 21929.175781 35954.070312 26491.046875
v 19751.347656 36038.250000 26415.880859
v 21963.363281 36076.222656 26456.269531
v 19677.167969 36446.269531 26434.437500
v 21860.341797 36696.164062 26396.929688
v 20640.375000 36742.929688 26264.259766
v 21437.531250 37023.257812 26450.769531
v 20910.306641 35367.558594 26334.792969
v 20966.812500 35373.578125 26377.941406
v 20797.804688 35414.468750 26441.734375
v 20977.789062 35410.718750 26468.730469
v 20746.537109 35427.210938 26394.017578
v 21430.878906 35497.730469 26394.417969
v 20284.531250 35633.730469 26453.177734
v 21651.683594 35615.554688 26443.878906
v 20163.611328 35694.828125 26508.080078
v 20153.769531 35735.597656 26309.369141
v 21973.447266 36158.652344 26583.904297
v 21984.601562 36259.679688 26510.306641
v 19764.638672 36500.191406 26430.304688
v 19941.525391 36560.296875 26350.685547
v 21621.753906 36944.578125 26424.646484
v 21054.808594 35436.183594 26496.949219
v 21163.250000 35413.980469 26406.353516
v 21536.763672 35604.570312 26516.398438
v 21719.558594 35648.386719 26434.220703
v 19925.191406 35890.585938 26367.871094
v 19835.603516 35958.757812 26398.210938
v 19671.722656 36122.734375 26448.423828
v 19597.187500 36357.550781 26469.990234
v 19675.361328 36412.625000 26383.406250
v 19958.607422 36583.652344 26453.703125
v 20916.306641 36849.980469 26463.355469
v 21748.396484 36846.125000 26402.824219
v 20884.468750 35400.367188 26453.708984
v 21902.000000 35912.042969 26556.634766
v 19647.664062 36185.816406 26423.994141
v 19585.912109 36235.582031 26525.986328
v 19640.625000 36266.144531 26394.347656
v 19710.076172 36483.500000 26488.369141
v 21932.166016 36568.480469 26561.392578
v 20149.679688 36640.367188 26460.611328
v 21763.244141 36838.421875 26494.398438
v 21534.695312 36991.621094 26504.484375
v 21681.707031 35718.191406 26608.886719
v 21765.539062 35717.777344 26507.542969
v 20020.646484 35793.785156 26459.597656
v 19828.611328 35938.218750 26513.044922
v 19621.910156 36158.406250 26542.929688
v 19566.115234 36348.117188 26530.197266
v 19574.958984 36393.179688 26537.642578
v 21893.378906 36644.890625 26468.683594
v 20773.041016 36814.347656 26582.617188
v 21132.537109 36939.015625 26402.041016
v 21210.630859 36967.605469 26350.634766
v 21254.703125 36984.183594 26375.041016
v 21351.208984 37019.070312 26469.408203
v 21397.335938 37026.792969 26536.707031
v 20929.839844 35470.144531 26612.253906
v 21870.333984 35854.695312 26555.804688
v 19732.658203 36024.886719 26513.365234
v 19660.777344 36102.441406 26541.720703
v 19614.667969 36231.070312 26573.400391
v 19589.044922 36362.753906 26569.166016
v 19627.427734 36426.070312 26550.312500
v 19812.181641 36534.746094 26482.013672
v 19923.968750 36579.265625 26560.585938
v 21713.638672 36886.578125 26475.574219
v 21604.371094 36963.812500 26542.513672
v 20780.169922 35433.968750 26534.080078
v 20965.363281 35497.578125 26652.732422
v 21263.068359 35533.214844 26571.742188
v 21438.638672 35629.886719 26633.107422
v 21830.449219 35788.746094 26527.011719
v 19757.664062 36021.355469 26594.896484
v 19678.531250 36194.304688 26609.167969
v 21985.666016 36377.386719 26592.216797
v 19696.628906 36462.519531 26587.386719
v 19724.537109 36494.949219 26531.562500
v 19807.167969 36535.011719 26555.714844
v 21868.214844 36700.464844 26541.339844
v 21000.146484 36894.234375 26575.595703
v 21538.972656 36990.894531 26570.349609
v 21581.548828 36963.917969 26685.064453
v 20840.458984 35455.531250 26604.357422
v 21041.142578 35491.597656 26610.990234
v 21116.769531 35530.167969 26645.039062
v 20532.748047 35510.546875 26447.835938
v 20172.847656 35680.796875 26602.064453
v 20049.400391 35760.710938 26563.900391
v 19920.699219 35855.550781 26550.519531
v 21801.302734 35814.660156 26636.757812
v 19793.095703 36164.785156 26680.558594
v 19651.384766 36297.199219 26606.794922
v 21986.410156 36272.656250 26670.851562
v 19638.998047 36374.855469 26596.871094
v 21964.792969 36490.707031 26620.691406
v 19790.804688 36520.507812 26609.802734
v 20314.224609 36688.671875 26511.007812
v 20625.855469 36772.230469 26563.376953
v 20663.111328 36793.046875 26695.369141
v 21759.607422 36847.933594 26624.197266
v 21192.556641 36981.941406 26592.964844
v 21677.087891 36919.308594 26633.169922
v 20612.128906 35483.972656 26602.691406
v 20334.361328 35596.011719 26559.091797
v 21547.382812 35718.472656 26718.029297
v 19962.511719 35833.062500 26636.955078
v 19847.578125 35917.980469 26591.314453
v 21869.798828 35892.105469 26648.677734
v 19920.246094 35886.312500 26651.248047
v 19934.449219 35915.820312 26681.136719
v 19797.492188 35975.906250 26609.466797
v 19763.126953 36064.000000 26628.802734
v 19880.640625 35994.859375 26682.406250
v 19768.998047 36104.101562 26649.500000
v 19752.304688 36343.078125 26670.507812
v 20096.093750 36634.824219 26571.230469
v 20294.003906 36693.203125 26628.484375
v 21863.806641 36707.566406 26624.082031
v 21806.306641 36790.304688 26599.818359
v 21724.056641 36882.949219 26619.904297
v 21407.812500 37025.218750 26613.628906
v 20663.718750 35486.308594 26671.968750
v 20607.408203 35481.144531 26514.269531
v 20058.537109 35753.425781 26633.167969
v 20047.878906 35780.757812 26677.285156
v 21671.162109 35757.214844 26683.410156
v 20031.130859 35837.078125 26709.060547
v 21746.822266 35796.937500 26678.406250
v 21928.921875 36010.722656 26688.960938
v 21954.652344 36059.187500 26634.962891
v 21978.292969 36282.242188 26728.681641
v 19773.539062 36261.023438 26681.294922
v 19703.267578 36434.265625 26619.533203
v 19870.251953 36552.359375 26631.841797
v 21801.595703 36782.468750 26754.138672
v 20501.154297 36752.957031 26705.283203
v 20857.964844 36840.808594 26585.099609
v 21076.898438 36936.433594 26691.744141
v 21722.357422 36874.031250 26716.164062
v 21273.003906 37012.078125 26639.269531
v 21322.552734 37024.257812 26642.357422
v 20536.242188 35521.789062 26743.242188
v 20473.777344 35537.468750 26747.582031
v 20422.966797 35551.347656 26626.667969
v 20236.636719 35643.453125 26659.914062
v 21213.964844 35582.796875 26686.714844
v 20175.142578 35686.230469 26687.308594
v 21835.699219 35912.867188 26751.369141
v 20063.292969 35915.027344 26765.646484
v 21907.468750 36016.140625 26777.402344
v 19910.507812 36058.046875 26723.310547
v 21951.250000 36096.945312 26799.326172
v 19737.171875 36405.695312 26654.945312
v 19812.832031 36500.054688 26664.753906
v 21909.751953 36616.730469 26670.173828
v 20021.091797 36609.632812 26656.326172
v 20934.208984 36874.753906 26677.865234
v 21776.382812 36817.570312 26741.232422
v 21160.248047 36973.101562 26656.642578
v 21624.664062 36945.820312 26684.005859
v 21469.697266 37014.789062 26616.683594
v 20693.060547 35515.136719 26738.585938
v 20257.759766 35655.207031 26731.992188
v 20388.203125 35577.925781 26741.121094
v 20155.054688 35737.738281 26723.808594
v 21551.576172 35792.597656 26833.347656
v 19851.253906 36218.761719 26725.601562
v 19842.810547 36391.585938 26727.525391
v 21868.384766 36675.089844 26757.953125
v 20955.871094 36886.132812 26748.117188
v 21261.835938 37009.066406 26734.916016
v 21338.027344 37020.503906 26734.423828
v 20772.656250 35550.007812 26791.613281
v 20856.955078 35534.433594 26752.818359
v 21035.474609 35562.851562 26737.593750
v 21336.380859 35626.796875 26693.669922
v 20279.113281 35711.796875 26783.115234
v 21401.941406 35693.246094 26765.441406
v 20164.000000 35791.031250 26766.236328
v 21969.017578 36155.894531 26712.445312
v 19918.937500 36361.574219 26774.972656
v 19912.240234 36458.117188 26762.560547
v 21930.994141 36552.972656 26714.193359
v 19840.681641 36477.957031 26705.888672
v 19981.892578 36589.667969 26699.433594
v 20120.328125 36645.238281 26687.308594
v 20227.744141 36677.421875 26697.554688
v 21705.595703 36874.199219 26790.306641
v 21475.166016 36993.062500 26738.955078
v 21401.162109 37013.675781 26727.843750
v 20578.785156 35573.746094 26805.480469
v 20689.933594 35566.109375 26813.460938
v 20442.910156 35603.804688 26797.867188
v 20920.949219 35568.035156 26790.400391
v 20369.283203 35678.070312 26810.033203
v 21403.328125 35759.589844 26869.076172
v 21707.953125 35846.414062 26798.462891
v 20015.058594 36161.574219 26803.869141
v 19948.765625 36092.167969 26754.365234
v 19946.113281 36267.246094 26784.445312
v 21959.496094 36451.160156 26713.105469
v 19906.931641 36536.566406 26731.154297
v 20004.048828 36587.746094 26763.242188
v 20444.677734 36736.335938 26811.492188
v 20821.308594 36837.890625 26733.507812
v 21665.820312 36892.683594 26814.494141
v 21584.201172 36948.261719 26767.039062
v 20676.427734 35601.523438 26856.515625
v 20541.539062 35628.218750 26843.230469
v 20435.099609 35691.089844 26846.904297
v 21263.613281 35677.839844 26821.521484
v 20017.906250 36461.253906 26834.523438
v 20092.695312 36619.472656 26812.882812
v 20171.226562 36658.800781 26763.287109
v 20575.917969 36771.906250 26770.714844
v 20794.496094 36825.242188 26818.035156
v 21746.744141 36819.667969 26846.718750
v 21666.074219 36870.253906 26874.437500
v 21291.613281 37006.148438 26816.740234
v 21369.029297 36998.621094 26839.083984
v 20818.773438 35596.578125 26866.613281
v 20946.845703 35623.886719 26865.691406
v 21088.392578 35656.160156 26865.746094
v 20332.355469 35763.429688 26844.132812
v 20122.835938 35908.238281 26798.386719
v 20315.898438 35867.429688 26877.115234
v 21756.843750 35883.730469 26809.388672
v 21833.900391 36011.078125 26888.890625
v 20149.560547 36141.011719 26870.701172
v 21952.031250 36197.296875 26819.287109
v 20052.792969 36351.789062 26855.328125
v 21903.125000 36568.207031 26801.617188
v 19997.556641 36564.835938 26797.851562
v 21832.050781 36709.109375 26817.291016
v 20312.667969 36696.265625 26827.326172
v 20623.316406 36776.062500 26840.019531
v 20997.648438 36901.316406 26825.033203
v 21139.251953 36960.605469 26816.978516
v 20236.289062 35960.480469 26868.632812
v 21745.744141 35942.769531 26893.597656
v 21872.908203 36014.507812 26837.255859
v 20171.328125 36039.765625 26858.287109
v 21953.679688 36360.367188 26790.496094
v 20125.964844 36263.796875 26882.531250
v 21925.185547 36461.535156 26814.691406
v 21875.056641 36530.707031 26897.843750
v 20069.423828 36575.414062 26854.380859
v 20188.496094 36645.765625 26870.339844
v 21784.507812 36738.507812 26885.574219
v 20443.292969 36723.976562 26885.400391
v 20742.199219 36793.027344 26899.496094
v 21211.941406 36980.562500 26875.919922
v 21555.816406 36941.683594 26830.056641
v 21501.125000 36961.398438 26832.785156
v 20612.503906 35702.796875 26925.812500
v 20514.351562 35753.625000 26918.093750
v 21025.515625 35675.500000 26913.603516
v 21173.896484 35721.476562 26926.980469
v 21282.646484 35737.992188 26898.255859
v 21896.925781 36076.523438 26863.888672
v 21922.294922 36146.429688 26862.066406
v 20191.982422 36327.109375 26926.455078
v 20110.541016 36421.914062 26889.783203
v 21860.843750 36592.753906 26890.957031
v 21712.287109 36809.347656 26913.958984
v 20872.542969 36847.652344 26842.046875
v 21104.148438 36934.335938 26898.070312
v 21503.380859 36928.144531 26922.208984
v 21342.070312 37009.562500 26821.503906
v 21355.886719 36966.484375 26938.574219
v 20694.613281 35647.058594 26910.451172
v 20725.384766 35711.050781 26956.179688
v 20815.740234 35680.800781 26947.771484
v 20580.761719 35784.789062 26953.726562
v 21118.111328 35738.281250 26961.416016
v 20417.396484 35872.324219 26926.148438
v 21643.734375 35896.894531 26919.650391
v 20318.744141 36031.976562 26926.888672
v 20324.308594 36149.480469 26955.464844
v 20265.320312 36191.375000 26940.597656
v 21902.416016 36397.500000 26889.853516
v 20278.888672 36477.804688 26967.949219
v 20128.826172 36547.980469 26894.880859
v 20183.917969 36612.078125 26904.183594
v 20283.164062 36669.679688 26903.597656
v 20385.359375 36679.191406 26952.837891
v 20455.486328 36707.222656 26941.470703
v 20582.507812 36751.792969 26902.601562
v 21243.367188 36973.992188 26952.628906
v 20868.644531 35739.843750 26986.218750
v 20691.166016 35778.507812 26980.867188
v 20915.191406 35675.878906 26936.085938
v 20581.257812 35841.554688 26974.761719
v 21462.486328 35846.929688 26957.041016
v 20536.792969 35912.175781 26980.429688
v 21717.394531 36013.105469 27001.484375
v 20421.296875 36023.906250 26965.429688
v 21767.517578 36008.542969 26960.373047
v 20528.759766 35977.597656 26993.287109
v 21808.322266 36057.289062 26966.296875
v 21860.455078 36104.246094 26936.990234
v 21821.726562 36151.523438 27002.175781
v 21881.701172 36232.906250 26949.429688
v 20433.589844 36200.292969 27003.900391
v 21903.343750 36293.468750 26907.933594
v 20339.240234 36349.695312 26991.218750
v 21851.783203 36456.335938 26953.890625
v 21837.378906 36562.085938 26939.550781
v 20220.210938 36558.039062 26935.166016
v 20257.425781 36621.750000 26937.927734
v 20608.207031 36737.277344 26952.117188
v 20837.054688 36814.921875 26924.914062
v 20980.941406 36869.136719 26938.685547
v 20943.792969 36870.683594 26877.632812
v 21185.601562 36933.679688 27008.496094
v 20942.947266 35724.332031 26975.216797
v 20736.060547 35854.804688 27017.392578
v 21166.527344 35766.312500 26973.677734
v 20690.216797 35950.226562 27033.734375
v 21300.185547 35808.796875 26973.496094
v 20678.781250 35880.332031 27014.767578
v 20640.179688 36106.699219 27052.332031
v 20288.935547 36400.523438 26973.789062
v 21794.929688 36488.714844 27013.123047
v 20399.255859 36501.382812 27014.626953
v 21780.041016 36628.371094 26971.250000
v 20438.224609 36588.437500 27012.201172
v 21750.634766 36714.113281 26956.294922
v 20385.283203 36642.453125 26976.339844
v 20634.046875 36709.289062 27002.570312
v 20731.162109 36725.695312 27003.826172
v 20716.333984 36759.929688 26957.802734
v 21555.410156 36867.125000 26983.667969
v 21647.476562 36782.632812 27008.707031
v 21440.894531 36913.210938 26992.591797
v 21108.382812 36917.882812 26963.884766
v 21342.982422 36954.218750 26968.792969
v 21406.476562 36897.503906 27031.962891
v 20819.724609 35783.027344 27003.312500
v 20964.966797 35799.347656 27026.671875
v 20852.978516 35855.179688 27039.451172
v 21097.853516 35791.625000 27007.335938
v 20776.617188 35924.039062 27047.968750
v 21298.496094 35865.558594 27024.933594
v 20739.410156 36014.136719 27062.912109
v 21444.677734 35889.765625 27011.322266
v 20849.623047 36047.132812 27091.394531
v 21600.511719 35952.886719 27005.593750
v 21718.666016 36064.632812 27043.177734
v 20713.724609 36153.992188 27080.179688
v 21740.683594 36102.097656 27054.234375
v 20499.738281 36293.457031 27035.990234
v 20526.601562 36370.429688 27048.386719
v 21807.876953 36280.855469 27036.669922
v 21844.626953 36316.617188 27002.351562
v 21791.851562 36376.667969 27046.462891
v 20576.894531 36444.988281 27061.775391
v 20530.339844 36516.488281 27044.871094
v 21652.855469 36718.550781 27046.826172
v 20551.146484 36584.386719 27036.099609
v 20551.306641 36663.085938 27008.955078
v 20852.111328 36786.496094 26986.115234
v 20996.175781 36848.429688 26994.318359
v 21558.744141 36828.699219 27032.468750
v 21489.244141 36827.722656 27069.052734
v 21308.230469 36922.003906 27023.746094
v 20948.212891 35923.449219 27075.947266
v 21082.185547 35854.226562 27048.371094
v 21195.882812 35884.500000 27055.259766
v 21364.250000 35933.156250 27059.421875
v 20909.720703 35968.250000 27084.962891
v 20839.812500 36141.042969 27102.253906
v 20952.357422 36249.785156 27133.632812
v 20709.515625 36229.558594 27086.125000
v 21757.519531 36174.199219 27064.902344
v 20783.177734 36361.046875 27104.533203
v 20671.162109 36362.296875 27083.947266
v 20704.517578 36451.562500 27088.660156
v 21709.722656 36529.699219 27087.812500
v 20682.998047 36532.753906 27075.960938
v 20668.894531 36647.324219 27043.359375
v 20765.216797 36588.937500 27076.941406
v 20744.896484 36675.964844 27041.228516
v 20807.900391 36723.703125 27031.960938
v 20859.990234 36704.585938 27067.519531
v 20858.708984 36758.316406 27027.464844
v 20973.449219 36801.210938 27037.703125
v 21077.798828 36866.632812 27026.912109
v 21144.613281 36876.296875 27059.585938
v 21259.050781 36885.605469 27063.906250
v 21064.501953 35920.335938 27079.980469
v 21018.621094 36044.433594 27116.435547
v 21397.496094 36017.222656 27101.472656
v 21529.173828 35983.339844 27060.164062
v 20987.677734 36116.847656 27125.740234
v 21694.578125 36129.406250 27095.060547
v 21685.466797 36243.003906 27126.300781
v 21746.609375 36312.445312 27089.783203
v 20982.238281 36406.757812 27140.779297
v 20796.138672 36475.585938 27101.167969
v 20977.425781 36545.324219 27129.519531
v 20873.773438 36517.484375 27112.871094
v 20921.751953 36593.039062 27111.628906
v 20897.826172 36659.105469 27090.287109
v 21017.939453 36637.960938 27120.279297
v 20798.839844 36666.191406 27060.949219
v 20935.781250 36738.906250 27066.992188
v 21510.392578 36762.687500 27117.451172
v 21066.136719 36813.578125 27067.767578
v 21367.718750 36871.308594 27067.330078
v 21145.164062 36837.910156 27086.457031
v 21211.951172 35948.898438 27087.085938
v 21123.789062 36009.488281 27115.853516
v 21222.439453 36089.953125 27139.259766
v 21322.632812 36059.824219 27126.789062
v 21124.117188 36151.308594 27150.640625
v 21306.119141 36173.781250 27160.279297
v 21540.074219 36044.878906 27093.371094
v 21580.574219 36137.765625 27127.138672
v 21078.753906 36293.667969 27157.771484
v 21261.402344 36310.289062 27177.314453
v 21664.640625 36178.996094 27118.923828
v 21065.181641 36343.476562 27158.015625
v 21284.783203 36467.511719 27186.501953
v 21687.339844 36435.417969 27127.078125
v 21092.964844 36500.421875 27157.066406
v 21651.273438 36586.402344 27111.132812
v 21065.574219 36585.500000 27140.363281
v 21148.058594 36453.734375 27165.900391
v 21561.361328 36676.839844 27131.208984
v 21158.658203 36551.386719 27159.091797
v 21157.652344 36662.859375 27138.486328
v 21247.068359 36626.539062 27164.847656
v 21484.281250 36737.265625 27137.679688
v 21014.115234 36731.832031 27090.673828
v 21135.175781 36791.472656 27099.751953
v 21220.917969 36736.113281 27128.373047
v 21255.367188 36818.898438 27100.802734
v 21349.041016 36822.656250 27103.839844
v 21367.609375 36221.851562 27166.902344
v 21480.855469 36186.703125 27153.667969
v 21479.609375 36097.031250 27128.505859
v 21366.847656 36283.019531 27176.082031
v 21330.929688 36391.210938 27184.074219
v 21483.392578 36273.535156 27168.263672
v 21556.619141 36370.187500 27175.468750
v 21583.378906 36218.000000 27151.996094
v 21619.697266 36396.941406 27168.234375
v 21455.990234 36371.683594 27179.041016
v 21465.910156 36452.867188 27180.882812
v 21696.011719 36334.851562 27128.486328
v 21282.421875 36569.554688 27178.410156
v 21657.187500 36508.949219 27134.486328
v 21566.326172 36544.511719 27170.154297
v 21414.875000 36574.699219 27176.703125
v 21518.126953 36626.058594 27164.652344
v 21426.041016 36667.402344 27167.986328
v 21345.542969 36740.683594 27142.892578
v 21342.710938 36683.875000 27160.091797
v 21567.843750 36453.144531 27179.593750
# 1079 vertices, 0 vertices normals

f 1 8 6
f 9 1 29
f 9 8 1
f 1 17 16
f 1 30 29
f 1 16 30
f 3 5 2
f 6 3 20
f 4 6 20
f 3 8 5
f 6 8 3
f 5 8 10
f 7 5 10
f 11 6 23
f 11 12 6
f 6 12 1
f 8 9 10
f 9 13 10
f 27 15 11
f 11 15 12
f 13 9 29
f 12 15 1
f 28 14 27
f 27 14 15
f 15 17 1
f 14 17 15
f 32 14 28
f 30 16 39
f 14 32 17
f 39 16 31
f 32 18 17
f 17 31 16
f 18 31 17
f 32 33 18
f 34 43 35
f 21 34 19
f 35 20 34
f 34 20 19
f 19 2 21
f 19 3 2
f 36 20 35
f 2 22 21
f 37 4 36
f 4 20 36
f 19 20 3
f 5 22 2
f 23 4 37
f 5 7 22
f 22 7 47
f 24 23 37
f 23 6 4
f 47 7 25
f 10 25 7
f 24 48 26
f 24 11 23
f 25 10 13
f 26 11 24
f 11 26 27
f 29 52 13
f 53 28 38
f 40 28 53
f 40 32 28
f 41 39 31
f 30 55 29
f 41 31 57
f 18 57 31
f 32 82 33
f 57 18 33
f 21 42 34
f 66 36 35
f 21 22 46
f 48 24 37
f 48 27 26
f 51 25 13
f 48 28 27
f 13 52 51
f 29 55 52
f 55 30 39
f 82 32 40
f 59 57 33
f 44 60 42
f 42 84 43
f 62 45 35
f 62 43 61
f 35 43 62
f 43 34 42
f 42 21 44
f 46 44 21
f 45 66 35
f 66 37 36
f 65 46 47
f 22 47 46
f 65 47 68
f 66 67 37
f 67 48 37
f 68 47 49
f 25 70 49
f 25 49 47
f 25 72 70
f 50 28 48
f 72 25 51
f 50 38 28
f 72 51 73
f 71 38 50
f 71 92 38
f 73 51 52
f 92 54 38
f 54 53 38
f 75 52 55
f 55 56 75
f 56 55 39
f 40 54 108
f 40 53 54
f 39 58 56
f 57 79 41
f 41 58 39
f 41 79 58
f 57 94 79
f 57 59 94
f 60 85 84
f 84 42 60
f 43 84 61
f 63 60 44
f 46 65 44
f 44 65 63
f 66 97 64
f 97 66 45
f 64 99 67
f 67 66 64
f 89 69 67
f 67 69 48
f 68 49 90
f 90 49 70
f 91 50 69
f 69 50 48
f 71 50 91
f 72 74 70
f 72 73 74
f 75 73 52
f 75 77 73
f 76 75 56
f 75 76 77
f 76 118 77
f 108 82 40
f 56 78 76
f 76 78 118
f 78 56 58
f 79 80 58
f 58 107 78
f 59 33 82
f 83 94 59
f 58 80 107
f 81 83 82
f 59 82 83
f 96 84 85
f 85 60 86
f 45 62 87
f 87 62 61
f 63 65 88
f 88 65 98
f 65 68 98
f 89 67 99
f 89 99 100
f 101 69 89
f 103 91 101
f 91 69 101
f 103 104 91
f 70 114 90
f 104 71 91
f 70 74 114
f 156 71 104
f 73 93 74
f 77 93 73
f 92 71 115
f 106 54 92
f 93 77 118
f 106 108 54
f 107 118 78
f 108 81 82
f 95 80 79
f 94 95 79
f 80 95 130
f 83 121 94
f 94 121 109
f 94 109 95
f 81 123 83
f 96 61 84
f 87 61 96
f 137 86 60
f 60 63 137
f 45 87 138
f 113 100 99
f 68 90 98
f 98 90 102
f 100 101 89
f 140 103 101
f 90 105 102
f 114 105 90
f 104 171 156
f 115 71 156
f 74 116 129
f 74 93 116
f 106 92 115
f 116 93 118
f 106 117 108
f 119 118 107
f 119 107 161
f 120 107 80
f 122 109 121
f 133 95 109
f 95 133 130
f 108 131 81
f 83 123 121
f 109 122 149
f 109 149 133
f 123 81 124
f 81 131 124
f 85 134 96
f 110 138 87
f 87 96 110
f 125 137 63
f 88 125 63
f 97 45 138
f 97 138 111
f 111 64 97
f 139 125 88
f 139 88 98
f 113 99 64
f 64 112 113
f 101 100 153
f 104 103 128
f 171 104 128
f 141 105 114
f 141 114 74
f 141 74 129
f 106 115 117
f 108 117 131
f 130 120 80
f 107 120 161
f 122 121 132
f 123 132 121
f 147 163 124
f 134 176 96
f 85 86 134
f 64 111 190
f 64 190 112
f 98 151 139
f 151 98 102
f 100 113 153
f 102 126 151
f 140 101 154
f 126 102 127
f 127 102 105
f 127 105 141
f 141 129 142
f 142 129 116
f 115 143 117
f 144 118 119
f 118 144 116
f 184 119 161
f 144 119 184
f 145 131 117
f 131 145 146
f 168 122 132
f 130 133 165
f 146 183 131
f 131 183 147
f 131 147 124
f 124 148 123
f 123 148 132
f 134 86 135
f 136 138 110
f 137 125 191
f 207 125 139
f 101 153 192
f 101 192 154
f 127 155 126
f 179 171 128
f 143 115 156
f 143 145 117
f 143 160 145
f 161 120 130
f 150 165 133
f 183 173 147
f 147 173 163
f 163 164 124
f 124 164 148
f 168 132 148
f 149 122 168
f 149 150 133
f 168 148 167
f 175 110 96
f 96 176 175
f 134 225 176
f 175 136 110
f 86 137 177
f 177 137 191
f 125 178 191
f 207 178 125
f 169 207 139
f 151 169 139
f 152 153 113
f 192 153 152
f 155 170 126
f 103 140 128
f 127 181 155
f 141 181 127
f 156 171 158
f 158 171 182
f 142 157 141
f 143 156 158
f 159 142 116
f 182 143 158
f 159 116 144
f 160 143 182
f 184 196 144
f 145 160 146
f 202 130 165
f 162 161 130
f 162 130 202
f 164 166 148
f 148 166 167
f 186 149 168
f 149 186 150
f 165 150 202
f 167 166 201
f 134 187 225
f 86 177 135
f 136 189 138
f 138 189 111
f 112 198 113
f 151 230 169
f 198 152 113
f 230 151 170
f 170 151 126
f 170 155 180
f 296 171 179
f 180 155 199
f 199 155 181
f 159 144 196
f 172 173 183
f 163 197 164
f 197 166 164
f 174 186 168
f 174 168 167
f 134 135 187
f 188 136 175
f 189 136 188
f 258 255 177
f 177 191 258
f 189 190 111
f 208 152 198
f 194 128 140
f 194 179 128
f 281 296 179
f 157 181 141
f 159 157 142
f 160 182 235
f 146 160 235
f 146 215 183
f 215 172 183
f 162 184 161
f 218 163 173
f 197 185 166
f 185 201 166
f 150 204 202
f 189 188 205
f 112 190 228
f 169 229 207
f 193 154 192
f 180 210 170
f 210 262 170
f 232 154 193
f 194 140 232
f 232 140 154
f 179 194 281
f 296 182 171
f 157 211 233
f 157 233 181
f 212 211 157
f 213 212 159
f 159 212 157
f 195 146 235
f 172 216 173
f 162 196 184
f 216 218 173
f 218 197 163
f 220 185 197
f 222 167 201
f 222 174 167
f 223 150 186
f 204 150 223
f 227 187 135
f 135 177 255
f 190 189 205
f 228 190 205
f 206 259 178
f 206 178 207
f 198 112 305
f 170 262 230
f 193 192 209
f 199 210 180
f 181 233 199
f 245 199 233
f 296 235 182
f 200 213 159
f 217 200 159
f 214 200 217
f 217 159 196
f 146 195 215
f 217 196 237
f 237 196 162
f 218 219 197
f 203 162 202
f 201 185 253
f 201 253 222
f 202 204 203
f 186 174 240
f 186 240 223
f 255 227 135
f 205 188 257
f 228 205 314
f 178 259 191
f 305 112 228
f 169 230 229
f 261 209 152
f 209 192 152
f 231 243 209
f 243 193 209
f 243 232 193
f 232 244 194
f 236 200 214
f 248 195 235
f 216 300 218
f 197 219 220
f 237 162 221
f 220 239 185
f 203 221 162
f 240 174 222
f 176 224 226
f 175 176 226
f 176 225 224
f 226 188 175
f 191 241 258
f 259 241 191
f 242 229 230
f 261 152 208
f 231 209 261
f 291 210 245
f 245 210 199
f 211 212 234
f 234 212 213
f 247 213 200
f 234 213 247
f 200 236 247
f 321 248 235
f 214 217 250
f 249 214 250
f 236 214 249
f 300 265 218
f 265 219 218
f 237 250 217
f 220 219 239
f 250 237 238
f 252 253 185
f 221 238 237
f 185 239 252
f 286 203 204
f 240 222 254
f 204 223 286
f 277 224 225
f 277 225 187
f 187 227 277
f 303 277 227
f 255 303 227
f 188 256 257
f 258 344 255
f 257 314 205
f 229 206 207
f 242 230 262
f 233 263 245
f 211 246 263
f 211 263 233
f 234 246 211
f 234 264 246
f 296 350 235
f 234 247 264
f 266 247 236
f 266 236 249
f 249 267 266
f 284 249 250
f 249 284 267
f 284 250 238
f 219 251 239
f 239 251 268
f 284 238 269
f 239 268 252
f 269 238 221
f 269 221 286
f 253 271 222
f 222 271 254
f 302 223 240
f 302 286 223
f 221 203 286
f 286 302 274
f 188 226 256
f 255 344 303
f 314 257 288
f 304 305 228
f 259 206 316
f 229 306 206
f 208 198 330
f 290 306 229
f 330 260 208
f 229 242 290
f 243 292 232
f 292 244 232
f 293 194 244
f 293 281 194
f 294 245 263
f 282 263 246
f 264 247 283
f 283 247 266
f 215 299 172
f 172 299 216
f 396 265 300
f 219 265 382
f 252 271 253
f 286 287 269
f 269 287 270
f 252 285 271
f 254 271 272
f 273 240 254
f 273 254 272
f 240 273 302
f 276 224 277
f 256 288 257
f 258 241 346
f 289 346 241
f 314 304 228
f 259 316 289
f 330 198 305
f 208 260 261
f 331 290 242
f 260 278 261
f 231 261 278
f 279 231 278
f 279 292 243
f 279 243 231
f 262 210 291
f 244 292 280
f 293 244 280
f 245 294 291
f 281 295 296
f 297 294 263
f 297 263 282
f 282 246 298
f 298 246 283
f 350 321 235
f 264 283 246
f 266 311 283
f 299 361 216
f 300 216 361
f 382 251 219
f 270 284 269
f 285 252 268
f 285 272 271
f 287 286 274
f 273 323 302
f 226 326 275
f 226 224 326
f 259 289 241
f 304 314 328
f 206 306 316
f 331 242 318
f 262 318 242
f 318 262 291
f 307 281 293
f 307 295 281
f 308 282 298
f 248 321 309
f 195 248 309
f 309 215 195
f 267 311 266
f 285 301 272
f 274 324 287
f 272 370 273
f 370 323 273
f 302 323 274
f 274 323 324
f 256 226 275
f 256 275 313
f 303 312 277
f 344 258 345
f 346 345 258
f 291 348 318
f 319 294 297
f 350 296 295
f 282 308 297
f 298 338 308
f 360 309 321
f 311 310 283
f 283 310 298
f 309 299 215
f 396 340 265
f 342 251 407
f 251 342 268
f 322 267 284
f 284 270 322
f 301 370 272
f 327 326 224
f 276 327 224
f 326 313 275
f 277 312 276
f 256 313 343
f 343 288 256
f 374 314 288
f 304 328 315
f 316 347 289
f 304 315 305
f 305 376 330
f 317 306 290
f 278 334 279
f 334 335 292
f 292 279 334
f 292 335 280
f 291 336 348
f 294 336 291
f 294 319 336
f 297 320 319
f 308 320 297
f 351 299 309
f 361 395 300
f 395 396 300
f 265 340 382
f 268 384 285
f 362 322 270
f 384 301 285
f 270 287 362
f 370 325 323
f 303 353 312
f 343 374 288
f 374 328 314
f 315 328 329
f 306 347 316
f 306 317 347
f 305 315 376
f 318 332 331
f 278 260 333
f 334 278 333
f 318 355 332
f 348 355 318
f 335 357 280
f 364 336 319
f 338 337 320
f 308 338 320
f 350 366 321
f 366 360 321
f 298 339 338
f 351 309 360
f 341 310 311
f 267 341 311
f 267 322 369
f 342 384 268
f 324 362 287
f 323 325 324
f 326 372 387
f 326 327 372
f 313 326 387
f 290 377 317
f 260 330 354
f 333 260 354
f 356 334 333
f 334 357 335
f 280 357 358
f 358 293 280
f 348 336 364
f 349 293 358
f 307 293 349
f 349 295 307
f 378 295 349
f 320 365 319
f 295 378 350
f 350 378 359
f 359 366 350
f 338 379 337
f 339 298 310
f 351 367 299
f 299 367 361
f 368 310 341
f 470 251 382
f 470 407 251
f 369 341 267
f 322 385 369
f 370 301 422
f 325 386 324
f 312 327 276
f 343 313 387
f 388 353 303
f 412 343 387
f 344 388 303
f 345 389 344
f 346 289 347
f 390 347 317
f 290 331 377
f 354 356 333
f 355 348 392
f 364 392 348
f 319 365 364
f 337 365 320
f 379 405 337
f 339 379 338
f 310 352 339
f 310 368 352
f 437 470 382
f 383 342 407
f 362 385 322
f 384 422 301
f 386 362 324
f 370 363 325
f 325 363 386
f 372 327 371
f 312 371 327
f 373 371 312
f 353 373 312
f 389 388 344
f 346 400 345
f 328 374 375
f 329 328 375
f 391 330 376
f 354 330 391
f 448 356 354
f 415 349 358
f 393 378 349
f 352 381 339
f 380 395 361
f 342 383 398
f 398 384 342
f 409 362 386
f 423 363 370
f 353 388 373
f 400 389 345
f 346 401 400
f 347 401 346
f 390 317 445
f 377 445 317
f 446 391 376
f 447 448 354
f 392 332 355
f 356 404 334
f 334 404 357
f 364 414 392
f 365 414 364
f 415 393 349
f 360 419 351
f 367 380 361
f 340 437 382
f 397 368 341
f 397 341 369
f 362 409 385
f 422 423 370
f 399 371 373
f 372 371 411
f 387 372 411
f 411 412 387
f 347 390 401
f 331 402 377
f 402 331 403
f 447 354 391
f 447 391 509
f 403 331 332
f 356 448 404
f 332 392 403
f 365 394 414
f 337 394 365
f 417 378 393
f 417 359 378
f 418 366 359
f 419 360 366
f 419 366 418
f 435 351 419
f 406 379 339
f 482 367 351
f 339 381 406
f 471 384 398
f 409 474 385
f 411 371 399
f 373 410 399
f 389 424 388
f 400 425 389
f 343 412 443
f 413 401 390
f 445 377 402
f 403 392 430
f 357 404 432
f 404 431 432
f 414 430 392
f 393 415 416
f 359 417 418
f 405 394 337
f 379 406 405
f 351 435 482
f 482 436 367
f 436 380 367
f 380 501 395
f 470 562 407
f 397 408 368
f 407 420 383
f 369 438 397
f 369 385 421
f 471 422 384
f 421 385 474
f 386 473 409
f 363 473 386
f 422 439 423
f 399 455 411
f 441 373 388
f 441 388 424
f 389 425 424
f 374 343 443
f 431 404 448
f 414 434 430
f 357 432 358
f 415 358 433
f 416 415 433
f 414 394 449
f 416 417 393
f 451 394 405
f 405 465 451
f 395 468 396
f 501 468 395
f 468 340 396
f 468 469 340
f 469 437 340
f 368 408 352
f 438 408 397
f 398 383 454
f 421 438 369
f 471 489 422
f 409 473 474
f 423 440 363
f 440 473 363
f 410 491 399
f 455 399 491
f 441 410 373
f 518 412 411
f 400 426 425
f 400 477 426
f 477 400 401
f 374 507 375
f 477 401 413
f 375 444 329
f 445 427 390
f 315 329 444
f 444 446 315
f 315 446 376
f 446 509 391
f 428 402 403
f 448 447 521
f 430 428 403
f 429 428 430
f 433 358 432
f 449 434 414
f 450 417 416
f 450 418 417
f 479 418 450
f 418 479 452
f 452 419 418
f 405 406 465
f 484 467 406
f 381 484 406
f 453 484 381
f 453 381 352
f 454 383 420
f 398 454 471
f 489 439 422
f 423 439 440
f 491 410 475
f 441 475 410
f 455 518 411
f 424 425 441
f 457 441 425
f 426 457 425
f 442 457 426
f 477 442 426
f 458 507 374
f 374 443 458
f 413 427 477
f 427 413 390
f 427 445 478
f 445 402 478
f 402 428 478
f 430 461 429
f 434 461 430
f 512 432 431
f 496 432 512
f 496 433 432
f 434 449 462
f 497 416 433
f 450 416 497
f 394 451 449
f 452 435 419
f 483 501 436
f 436 501 380
f 352 485 453
f 487 408 438
f 489 517 439
f 441 456 475
f 457 456 441
f 506 443 412
f 507 459 375
f 459 444 375
f 521 447 511
f 495 429 461
f 460 512 431
f 431 448 460
f 461 434 462
f 433 463 497
f 497 479 450
f 515 451 464
f 465 464 451
f 481 452 479
f 467 465 406
f 466 435 452
f 466 482 435
f 482 500 436
f 500 483 436
f 408 485 352
f 407 562 420
f 471 454 504
f 438 421 472
f 471 488 489
f 421 474 472
f 505 455 491
f 518 455 505
f 412 518 538
f 539 475 456
f 506 412 538
f 599 539 456
f 492 456 457
f 476 492 457
f 476 457 442
f 519 476 442
f 519 442 540
f 477 540 442
f 493 477 427
f 493 540 477
f 493 427 478
f 520 478 428
f 509 446 544
f 428 429 520
f 448 521 523
f 495 461 462
f 449 513 462
f 515 449 451
f 464 498 515
f 479 480 481
f 464 465 467
f 481 466 452
f 466 499 482
f 501 590 468
f 484 532 467
f 590 469 468
f 437 469 503
f 408 487 485
f 485 487 486
f 471 504 488
f 474 516 472
f 474 473 490
f 474 490 516
f 517 440 439
f 440 537 473
f 565 491 475
f 539 565 475
f 443 506 458
f 492 599 456
f 478 494 493
f 446 508 544
f 446 444 508
f 429 510 520
f 447 509 511
f 510 429 495
f 495 524 510
f 523 460 448
f 462 524 495
f 462 513 524
f 512 514 496
f 496 463 433
f 449 528 513
f 515 528 449
f 499 500 482
f 531 590 501
f 502 532 484
f 437 503 470
f 453 502 484
f 453 485 561
f 485 486 561
f 504 454 420
f 534 487 438
f 534 438 472
f 489 488 672
f 672 517 489
f 473 537 490
f 458 506 554
f 554 507 458
f 555 476 519
f 494 541 493
f 508 444 459
f 478 520 494
f 496 526 463
f 496 514 526
f 527 497 463
f 497 527 480
f 480 479 497
f 464 529 498
f 532 529 467
f 467 529 464
f 590 503 469
f 503 623 470
f 561 502 453
f 470 623 562
f 504 420 533
f 486 487 534
f 517 536 563
f 440 517 563
f 563 553 440
f 440 553 537
f 507 554 459
f 566 459 554
f 555 492 476
f 540 493 541
f 494 570 543
f 494 520 570
f 542 544 508
f 508 459 542
f 570 520 545
f 520 510 545
f 510 524 522
f 460 546 512
f 513 550 524
f 514 512 546
f 526 514 525
f 548 526 525
f 528 550 513
f 527 463 526
f 549 480 527
f 528 498 574
f 528 515 498
f 480 551 481
f 558 530 481
f 530 466 481
f 499 611 500
f 483 531 501
f 420 650 533
f 488 504 671
f 535 472 516
f 535 516 592
f 672 536 517
f 491 564 505
f 505 577 518
f 565 564 491
f 538 518 577
f 630 599 492
f 566 567 459
f 540 555 519
f 494 543 541
f 569 509 544
f 511 509 569
f 521 511 581
f 523 521 583
f 460 523 546
f 585 525 547
f 547 514 546
f 547 525 514
f 549 526 548
f 549 527 526
f 549 551 480
f 574 498 529
f 558 481 551
f 530 559 466
f 559 499 466
f 560 529 532
f 611 605 500
f 500 605 483
f 552 532 502
f 503 717 623
f 561 486 591
f 486 534 591
f 591 534 535
f 534 472 535
f 672 673 536
f 592 516 490
f 490 537 593
f 565 539 595
f 554 506 578
f 598 539 599
f 579 630 492
f 555 579 492
f 540 580 555
f 580 540 541
f 568 459 567
f 580 541 600
f 541 543 600
f 542 459 568
f 569 544 542
f 581 511 569
f 581 583 521
f 522 582 510
f 522 556 572
f 550 556 524
f 524 556 522
f 585 547 584
f 549 548 571
f 603 556 550
f 573 551 549
f 558 573 587
f 558 551 573
f 529 557 574
f 587 648 558
f 648 530 558
f 529 560 557
f 648 559 530
f 559 589 499
f 589 611 499
f 605 531 483
f 560 532 552
f 552 502 575
f 502 561 575
f 562 650 420
f 671 504 533
f 593 616 490
f 490 616 592
f 673 674 536
f 674 563 536
f 553 593 537
f 578 506 538
f 567 566 705
f 543 570 601
f 634 581 569
f 510 582 545
f 546 523 645
f 584 546 645
f 584 547 546
f 585 548 525
f 603 572 556
f 656 549 571
f 528 586 550
f 656 573 549
f 574 586 528
f 588 557 560
f 612 588 560
f 560 606 612
f 638 531 605
f 606 560 552
f 590 613 503
f 552 575 606
f 575 561 591
f 576 591 535
f 594 577 505
f 594 505 564
f 564 565 595
f 617 538 577
f 597 705 566
f 566 554 597
f 543 601 600
f 569 542 608
f 545 602 570
f 570 602 601
f 545 582 602
f 523 583 644
f 644 645 523
f 572 582 522
f 550 586 603
f 604 586 574
f 587 573 656
f 557 604 574
f 588 604 557
f 621 559 648
f 638 590 531
f 563 615 553
f 615 593 553
f 595 594 564
f 641 596 595
f 641 595 539
f 578 538 617
f 598 641 539
f 554 578 597
f 643 580 600
f 542 568 608
f 601 607 600
f 634 569 608
f 581 609 583
f 583 609 644
f 619 584 645
f 585 584 619
f 572 610 582
f 654 571 548
f 610 572 620
f 622 606 575
f 614 575 591
f 651 591 576
f 488 671 672
f 674 615 563
f 615 624 593
f 594 625 577
f 594 595 626
f 617 577 625
f 626 595 596
f 629 578 617
f 597 578 629
f 705 597 742
f 630 598 599
f 632 555 580
f 643 632 580
f 663 643 600
f 607 663 600
f 664 581 634
f 610 618 582
f 646 654 548
f 548 585 646
f 620 572 635
f 572 603 635
f 586 636 603
f 604 636 586
f 621 589 559
f 611 638 605
f 649 613 590
f 622 669 606
f 716 717 503
f 614 622 575
f 651 614 591
f 592 616 639
f 624 616 593
f 626 625 594
f 608 568 631
f 633 608 631
f 601 602 677
f 664 609 581
f 602 582 618
f 585 619 646
f 620 618 610
f 656 571 654
f 637 611 589
f 637 683 611
f 714 588 612
f 649 590 638
f 669 658 606
f 716 503 613
f 670 756 562
f 756 650 562
f 576 535 639
f 592 639 535
f 615 674 624
f 674 675 624
f 652 625 626
f 617 625 627
f 628 626 596
f 629 617 627
f 579 642 630
f 632 579 555
f 723 631 568
f 634 608 633
f 603 636 635
f 647 587 656
f 604 694 636
f 604 588 694
f 648 587 647
f 621 637 589
f 611 683 638
f 658 714 612
f 658 612 606
f 649 659 613
f 659 716 613
f 717 562 623
f 533 699 671
f 651 576 685
f 576 639 685
f 624 661 616
f 639 616 661
f 627 625 652
f 640 628 596
f 629 742 597
f 641 640 596
f 630 689 598
f 567 723 568
f 632 642 579
f 607 601 691
f 677 691 601
f 619 645 678
f 655 656 654
f 657 683 637
f 683 649 638
f 717 670 562
f 622 614 698
f 661 686 639
f 675 780 624
f 626 628 652
f 652 628 702
f 689 641 598
f 663 662 643
f 602 653 677
f 645 644 609
f 645 609 665
f 618 653 602
f 678 645 665
f 678 646 619
f 654 646 666
f 656 667 647
f 668 648 647
f 668 621 648
f 621 657 637
f 588 714 694
f 683 684 649
f 622 698 669
f 614 651 660
f 660 651 685
f 639 686 685
f 661 624 780
f 742 629 627
f 676 702 628
f 676 628 640
f 690 630 642
f 642 632 662
f 643 662 632
f 633 664 634
f 663 607 691
f 609 708 665
f 609 664 708
f 646 679 666
f 679 646 678
f 620 749 618
f 655 654 666
f 620 635 749
f 636 712 635
f 667 656 655
f 636 694 712
f 667 681 668
f 668 647 667
f 668 657 621
f 657 697 683
f 696 697 657
f 649 735 659
f 720 672 671
f 661 780 700
f 687 722 627
f 687 627 652
f 742 627 722
f 703 676 640
f 703 640 641
f 704 641 689
f 705 723 567
f 690 689 630
f 633 631 706
f 618 749 653
f 666 680 655
f 680 667 655
f 680 681 667
f 668 682 657
f 657 682 696
f 658 774 714
f 649 684 735
f 736 716 659
f 698 658 669
f 718 670 717
f 660 738 614
f 698 614 738
f 756 699 650
f 699 533 650
f 720 671 699
f 673 672 720
f 673 720 759
f 674 673 759
f 674 759 760
f 686 661 700
f 674 760 675
f 760 740 675
f 675 740 780
f 687 652 702
f 703 688 676
f 641 704 703
f 631 723 706
f 707 633 706
f 707 664 633
f 663 691 709
f 677 727 691
f 727 709 691
f 707 708 664
f 665 708 726
f 678 730 692
f 678 726 730
f 726 678 665
f 679 678 692
f 680 666 693
f 635 799 749
f 712 799 635
f 680 693 711
f 681 680 711
f 681 711 713
f 682 681 713
f 668 681 682
f 713 752 682
f 820 694 714
f 695 696 682
f 735 736 659
f 658 698 737
f 719 738 660
f 685 739 660
f 720 699 778
f 685 721 739
f 685 686 721
f 780 701 700
f 687 702 741
f 723 764 706
f 724 690 642
f 642 662 724
f 747 745 662
f 747 662 663
f 663 709 747
f 743 708 707
f 677 653 727
f 731 692 730
f 731 679 692
f 731 666 679
f 731 693 666
f 693 731 733
f 710 693 733
f 693 751 711
f 751 693 710
f 711 751 734
f 734 713 711
f 713 734 772
f 713 772 752
f 695 682 752
f 695 715 696
f 696 715 697
f 683 697 684
f 658 737 774
f 755 717 716
f 738 737 698
f 756 776 699
f 660 739 719
f 779 721 686
f 701 779 700
f 686 700 779
f 722 687 741
f 723 705 763
f 765 704 689
f 795 689 690
f 707 706 743
f 725 726 743
f 726 708 743
f 726 725 728
f 728 730 726
f 730 728 729
f 732 730 729
f 731 730 732
f 731 732 733
f 732 770 733
f 752 773 695
f 773 715 695
f 774 802 714
f 684 775 735
f 736 755 716
f 755 718 717
f 718 824 670
f 824 756 670
f 776 757 699
f 778 699 757
f 719 739 758
f 758 739 721
f 722 741 761
f 781 741 702
f 793 781 702
f 676 793 702
f 688 793 676
f 705 742 763
f 795 765 689
f 763 764 723
f 706 766 743
f 744 725 743
f 744 728 725
f 744 746 728
f 767 747 709
f 767 709 727
f 729 728 746
f 748 769 727
f 653 748 727
f 749 748 653
f 710 733 770
f 712 750 799
f 786 751 710
f 800 734 751
f 734 800 787
f 734 787 772
f 803 752 772
f 752 803 773
f 715 753 697
f 753 684 697
f 753 775 684
f 775 805 735
f 737 788 774
f 754 788 737
f 738 754 737
f 777 754 738
f 776 789 757
f 719 777 738
f 758 777 719
f 779 758 721
f 778 759 720
f 760 791 740
f 762 763 722
f 763 742 722
f 794 688 703
f 704 794 703
f 783 764 763
f 764 782 766
f 766 706 764
f 797 690 724
f 797 795 690
f 766 744 743
f 784 744 766
f 662 745 724
f 744 784 746
f 785 724 745
f 846 816 747
f 767 846 747
f 768 729 746
f 769 767 727
f 729 768 732
f 768 770 732
f 799 771 749
f 818 710 770
f 800 751 786
f 694 750 712
f 694 820 750
f 773 753 715
f 753 804 775
f 735 806 736
f 805 806 735
f 834 718 755
f 824 776 756
f 807 758 779
f 778 790 759
f 759 790 760
f 780 808 701
f 790 791 760
f 761 741 781
f 761 762 722
f 793 792 781
f 813 793 688
f 813 688 794
f 783 763 762
f 764 783 782
f 784 766 782
f 798 746 784
f 816 745 747
f 768 746 798
f 768 844 818
f 768 818 770
f 749 771 748
f 818 786 710
f 819 800 786
f 802 820 714
f 801 772 787
f 772 801 803
f 821 773 803
f 788 802 774
f 773 821 753
f 753 821 804
f 804 805 775
f 736 806 755
f 806 823 755
f 758 807 777
f 825 779 826
f 807 779 825
f 701 826 779
f 791 809 740
f 780 740 809
f 783 762 812
f 783 812 782
f 794 704 765
f 796 784 782
f 830 795 797
f 798 784 796
f 816 785 745
f 798 844 768
f 786 817 819
f 801 787 800
f 801 800 831
f 803 801 821
f 804 821 822
f 805 833 806
f 834 755 823
f 789 776 824
f 777 836 754
f 789 857 757
f 856 857 789
f 807 836 777
f 757 857 778
f 825 836 807
f 790 778 857
f 790 857 871
f 871 838 790
f 838 791 790
f 780 809 808
f 810 762 761
f 828 762 810
f 762 828 812
f 810 761 811
f 781 811 761
f 811 781 792
f 812 814 782
f 830 794 765
f 830 765 795
f 782 814 796
f 796 814 843
f 815 797 724
f 796 843 798
f 785 815 724
f 843 844 798
f 748 771 769
f 861 818 844
f 861 817 818
f 750 771 799
f 817 786 818
f 831 800 850
f 850 800 819
f 802 851 820
f 821 801 852
f 788 851 802
f 822 821 852
f 804 833 805
f 754 853 788
f 833 823 806
f 754 836 853
f 834 835 718
f 835 824 718
f 885 789 824
f 885 856 789
f 872 825 826
f 873 808 839
f 826 808 873
f 808 826 701
f 838 888 791
f 839 791 888
f 791 839 809
f 809 839 808
f 828 810 827
f 810 811 827
f 840 811 792
f 840 793 813
f 812 828 829
f 829 828 874
f 841 794 842
f 841 813 794
f 812 829 814
f 794 830 842
f 829 843 814
f 830 797 815
f 896 785 816
f 843 845 844
f 858 861 844
f 817 861 848
f 863 817 848
f 750 849 771
f 817 863 819
f 849 750 862
f 850 819 863
f 820 862 750
f 851 788 883
f 804 822 832
f 832 833 804
f 854 823 833
f 853 836 868
f 835 885 824
f 836 825 837
f 837 825 872
f 873 872 826
f 890 874 828
f 890 828 827
f 840 792 793
f 841 840 813
f 875 829 874
f 911 840 841
f 843 829 875
f 896 816 846
f 844 845 858
f 847 846 767
f 769 860 767
f 767 860 847
f 769 879 860
f 769 771 879
f 862 820 864
f 882 831 850
f 831 882 902
f 851 864 820
f 831 866 801
f 831 902 866
f 852 801 866
f 832 822 852
f 866 832 852
f 832 867 833
f 788 853 883
f 867 854 833
f 834 823 855
f 834 855 835
f 868 836 884
f 890 827 840
f 827 811 840
f 877 842 830
f 895 843 875
f 815 878 830
f 815 785 913
f 896 913 785
f 859 896 846
f 846 847 859
f 859 847 917
f 771 880 879
f 861 899 848
f 849 880 771
f 848 899 863
f 881 863 899
f 850 863 881
f 882 850 881
f 865 864 851
f 883 865 851
f 868 883 853
f 867 904 854
f 855 823 869
f 884 947 868
f 869 907 855
f 855 870 835
f 870 885 835
f 856 885 933
f 836 837 884
f 857 856 886
f 857 886 871
f 837 872 887
f 887 872 873
f 871 908 838
f 908 888 838
f 892 890 840
f 911 892 840
f 876 911 841
f 876 841 842
f 875 874 893
f 877 876 842
f 877 830 878
f 815 913 878
f 843 895 845
f 858 895 897
f 845 895 858
f 858 897 861
f 861 897 898
f 919 917 847
f 879 847 860
f 899 861 898
f 880 920 879
f 862 924 849
f 862 900 924
f 864 900 862
f 882 881 942
f 865 900 864
f 866 902 903
f 832 866 867
f 903 867 866
f 868 947 883
f 904 869 854
f 854 869 823
f 907 870 855
f 931 885 870
f 933 885 931
f 955 871 886
f 888 889 839
f 873 889 887
f 873 839 889
f 890 891 874
f 890 892 891
f 874 891 910
f 892 911 935
f 874 910 893
f 894 876 877
f 893 895 875
f 893 912 895
f 895 912 914
f 859 915 896
f 915 859 917
f 898 897 916
f 847 879 919
f 919 879 920
f 880 922 920
f 849 922 880
f 924 922 849
f 881 899 925
f 925 899 923
f 942 881 925
f 974 924 900
f 865 926 900
f 901 882 942
f 901 902 882
f 883 927 865
f 928 902 901
f 903 902 928
f 903 928 929
f 867 903 929
f 904 867 929
f 947 945 883
f 904 905 869
f 869 905 906
f 884 953 947
f 906 907 869
f 907 930 870
f 884 952 953
f 933 886 856
f 837 952 884
f 887 952 837
f 955 934 871
f 908 871 934
f 887 954 952
f 954 887 889
f 908 889 888
f 909 891 892
f 935 909 892
f 891 958 910
f 958 891 909
f 935 911 894
f 894 911 876
f 910 912 893
f 912 910 940
f 877 878 939
f 939 878 913
f 914 912 940
f 967 913 896
f 914 916 895
f 918 916 914
f 895 916 897
f 898 916 918
f 968 917 919
f 923 898 918
f 922 921 920
f 923 899 898
f 900 926 974
f 927 926 865
f 928 901 944
f 929 928 944
f 944 946 929
f 883 945 927
f 929 946 948
f 904 929 948
f 905 904 948
f 906 930 907
f 930 951 870
f 870 951 931
f 931 932 933
f 933 932 886
f 932 955 886
f 889 956 954
f 908 956 889
f 910 936 940
f 936 910 958
f 959 909 935
f 959 935 961
f 961 935 894
f 961 894 937
f 877 937 894
f 940 936 938
f 939 937 877
f 918 914 940
f 965 939 913
f 918 940 938
f 967 965 913
f 941 918 938
f 938 964 941
f 915 967 896
f 923 918 941
f 915 917 968
f 970 968 919
f 921 970 920
f 970 919 920
f 971 923 941
f 924 974 922
f 925 923 971
f 972 925 971
f 926 943 974
f 944 925 972
f 942 925 944
f 927 943 926
f 944 901 942
f 927 945 943
f 953 978 947
f 980 906 905
f 948 980 905
f 906 949 930
f 949 951 930
f 951 981 931
f 952 954 983
f 957 956 985
f 956 957 954
f 960 936 958
f 959 958 909
f 960 962 936
f 958 959 960
f 937 963 961
f 937 939 963
f 936 962 938
f 962 964 938
f 964 962 966
f 1013 965 967
f 941 964 966
f 967 915 968
f 941 966 969
f 971 941 969
f 993 971 969
f 974 921 922
f 974 973 921
f 972 971 993
f 993 996 972
f 973 974 975
f 976 972 996
f 943 975 974
f 944 972 976
f 977 944 976
f 945 998 943
f 977 976 999
f 977 946 944
f 947 978 945
f 945 978 998
f 946 977 979
f 979 977 999
f 980 948 946
f 980 946 979
f 1000 979 999
f 980 979 1000
f 906 980 949
f 980 1000 949
f 949 950 951
f 950 981 951
f 952 983 953
f 981 932 931
f 981 982 932
f 982 955 932
f 954 984 983
f 957 1029 984
f 957 984 954
f 934 985 908
f 957 985 1029
f 908 985 956
f 986 960 959
f 961 987 959
f 986 990 960
f 986 959 1010
f 1010 959 987
f 961 988 987
f 963 988 961
f 960 990 962
f 989 988 963
f 962 990 966
f 965 963 939
f 989 963 965
f 989 965 1013
f 993 969 991
f 991 969 966
f 967 968 1013
f 993 991 992
f 995 993 992
f 921 994 970
f 973 994 921
f 1017 994 973
f 995 996 993
f 973 975 1017
f 997 996 995
f 997 976 996
f 943 998 975
f 1019 997 995
f 999 997 1019
f 976 997 999
f 998 978 1046
f 1000 999 1001
f 1001 999 1019
f 953 1027 978
f 949 1000 950
f 1000 1002 950
f 1000 1001 1002
f 1001 1025 1002
f 983 1027 953
f 1025 1003 1002
f 1003 950 1002
f 1003 981 950
f 1003 1004 1005
f 981 1003 1005
f 981 1006 982
f 1005 1006 981
f 1006 1007 982
f 982 1007 955
f 1007 934 955
f 1007 1008 934
f 985 934 1009
f 985 1009 1029
f 1032 986 1010
f 1031 987 988
f 1031 1010 987
f 1032 1010 1031
f 986 1011 990
f 1011 986 1032
f 989 1031 988
f 1011 966 990
f 1035 1011 1032
f 1031 989 1012
f 989 1013 1012
f 1014 966 1011
f 966 1014 991
f 1012 1013 1037
f 992 991 1014
f 1014 1011 1035
f 1015 1037 1013
f 968 1015 1013
f 992 1014 1035
f 970 1015 968
f 1039 992 1035
f 994 1015 970
f 1017 1016 994
f 1018 995 992
f 992 1039 1042
f 1017 1070 1016
f 995 1021 1019
f 1021 995 1018
f 992 1042 1018
f 975 1070 1017
f 1021 1018 1020
f 998 1044 975
f 1072 1044 998
f 1022 1021 1020
f 998 1046 1072
f 978 1049 1046
f 1022 1020 1024
f 1027 1049 978
f 1019 1021 1001
f 1021 1023 1001
f 1023 1021 1022
f 1023 1025 1001
f 1025 1023 1004
f 1023 1022 1024
f 1003 1025 1004
f 1026 1004 1023
f 1054 1023 1024
f 1026 1023 1054
f 984 1027 983
f 1005 1004 1026
f 1005 1026 1006
f 1006 1028 1007
f 1026 1028 1006
f 1008 1007 1028
f 984 1029 1027
f 1028 1030 1008
f 1008 1009 934
f 1030 1009 1008
f 1029 1009 1058
f 1034 1032 1031
f 1012 1034 1031
f 1032 1033 1035
f 1035 1033 1036
f 1033 1032 1034
f 1012 1061 1034
f 1036 1033 1034
f 1012 1037 1061
f 1036 1034 1061
f 1040 1035 1036
f 1038 1061 1037
f 1015 1038 1037
f 1036 1059 1040
f 1039 1035 1040
f 1040 1059 1062
f 1015 1041 1038
f 1016 1041 1015
f 994 1016 1015
f 1042 1039 1040
f 1043 1042 1040
f 1045 1018 1042
f 1045 1042 1048
f 975 1044 1070
f 1018 1045 1020
f 1048 1042 1043
f 1047 1020 1045
f 1047 1045 1050
f 1050 1045 1048
f 1050 1048 1071
f 1052 1050 1071
f 1027 1053 1049
f 1047 1024 1020
f 1051 1050 1052
f 1051 1047 1050
f 1024 1047 1051
f 1055 1024 1051
f 1054 1024 1055
f 1055 1051 1056
f 1056 1051 1052
f 1052 1077 1056
f 1027 1058 1053
f 1027 1029 1058
f 1026 1054 1028
f 1028 1054 1055
f 1055 1030 1028
f 1030 1055 1057
f 1057 1055 1056
f 1056 1077 1057
f 1030 1057 1009
f 1009 1057 1058
f 1061 1060 1036
f 1036 1060 1059
f 1064 1059 1060
f 1060 1061 1038
f 1060 1038 1066
f 1062 1063 1040
f 1062 1059 1064
f 1064 1060 1066
f 1016 1066 1041
f 1066 1038 1041
f 1068 1062 1064
f 1064 1066 1065
f 1068 1063 1062
f 1068 1064 1065
f 1067 1065 1066
f 1067 1066 1016
f 1063 1043 1040
f 1070 1067 1016
f 1069 1043 1063
f 1069 1063 1068
f 1069 1068 1065
f 1079 1069 1065
f 1072 1067 1044
f 1074 1043 1069
f 1043 1071 1048
f 1074 1069 1079
f 1046 1073 1072
f 1074 1079 1073
f 1075 1073 1049
f 1049 1073 1046
f 1071 1043 1074
f 1075 1074 1073
f 1053 1075 1049
f 1076 1071 1074
f 1076 1074 1075
f 1078 1052 1071
f 1078 1071 1076
f 1076 1075 1053
f 1077 1052 1078
f 1077 1078 1076
f 1077 1076 1053
f 1058 1077 1053
f 1057 1077 1058
f 1079 1065 1067
f 1044 1067 1070
f 1072 1079 1067
f 1072 1073 1079
# 2154 faces, 0 coords texture

# End of File
