####
#
# OBJ File Generated by Meshlab
#
####
# Object AL-DL4L.obj
#
# Vertices: 667
# Faces: 1330
#
####
v 34285.875000 33817.859375 23344.320312
v 34268.914062 33913.335938 23309.656250
v 34335.906250 33892.609375 23370.865234
v 34234.792969 33785.562500 23336.509766
v 34316.226562 33780.406250 23394.679688
v 34085.003906 33962.390625 23359.181641
v 34136.101562 34001.867188 23340.371094
v 34366.042969 33971.695312 23438.513672
v 34199.839844 34022.261719 23328.291016
v 34271.277344 34001.964844 23321.914062
v 34310.156250 33988.992188 23347.951172
v 34250.761719 34054.625000 23334.583984
v 34337.105469 34035.214844 23389.744141
v 34266.750000 34102.257812 23352.337891
v 34357.500000 34090.039062 23443.417969
v 34187.296875 33849.484375 23329.251953
v 34071.632812 34115.480469 23365.099609
v 34136.472656 34156.371094 23361.705078
v 34198.035156 34185.531250 23372.636719
v 34364.253906 34188.125000 23495.324219
v 34278.074219 34168.449219 23387.236328
v 34330.843750 34172.812500 23420.980469
v 34152.703125 33709.203125 23372.238281
v 34139.828125 33831.984375 23350.087891
v 34043.183594 33885.894531 23390.898438
v 33979.789062 34057.351562 23400.208984
v 34382.843750 33899.191406 23483.289062
v 34384.648438 33999.382812 23507.775391
v 34399.898438 34007.320312 23608.615234
v 34389.984375 34109.726562 23593.455078
v 33996.089844 34181.937500 23388.742188
v 34308.660156 34233.527344 23436.419922
v 34352.078125 34255.054688 23500.582031
v 34374.957031 34215.281250 23555.898438
v 34193.300781 33613.460938 23404.306641
v 34278.933594 33733.261719 23380.648438
v 34065.488281 33724.710938 23412.851562
v 34017.812500 33801.488281 23427.898438
v 34360.070312 33875.421875 23423.695312
v 34404.722656 34080.316406 23762.539062
v 34395.496094 34188.371094 23694.748047
v 34136.242188 34262.167969 23399.232422
v 34225.453125 34245.601562 23403.484375
v 34388.199219 34235.828125 23634.658203
v 34331.750000 34269.449219 23475.771484
v 34376.660156 34276.812500 23594.638672
v 34137.210938 33556.230469 23446.425781
v 34230.898438 33687.066406 23371.140625
v 34089.039062 33654.195312 23423.691406
v 34345.828125 33802.882812 23427.103516
v 33934.261719 34026.632812 23434.404297
v 34046.906250 34277.597656 23405.792969
v 34071.480469 34373.777344 23438.345703
v 34251.214844 34329.449219 23445.740234
v 34394.281250 34255.914062 23717.148438
v 34159.414062 34356.605469 23440.843750
v 34338.648438 34353.917969 23546.791016
v 34198.660156 33442.523438 23520.476562
v 34006.574219 33672.058594 23475.275391
v 34415.347656 33972.292969 23794.685547
v 33899.339844 34136.644531 23443.664062
v 33927.425781 34218.199219 23420.169922
v 34398.515625 34305.824219 23813.214844
v 33966.480469 34270.859375 23418.390625
v 33914.917969 34397.941406 23466.656250
v 34208.539062 34410.179688 23482.625000
v 34273.363281 34366.503906 23480.794922
v 34309.222656 34396.007812 23534.765625
v 34382.539062 34347.296875 23676.052734
v 34364.289062 34359.542969 23603.703125
v 34362.015625 34438.433594 23683.337891
v 34248.480469 33544.074219 23468.876953
v 34053.160156 33581.519531 23483.333984
v 34304.906250 33629.992188 23462.994141
v 34368.453125 33721.597656 23499.072266
v 33939.921875 33801.386719 23502.949219
v 34395.460938 33819.027344 23522.007812
v 33913.703125 33976.164062 23468.001953
v 33816.238281 34237.101562 23499.896484
v 33851.832031 34278.968750 23469.011719
v 34406.445312 34192.070312 23935.953125
v 33886.656250 34338.023438 23458.841797
v 34394.296875 34349.078125 23774.492188
v 33783.933594 34384.097656 23526.681641
v 33989.488281 34473.210938 23490.714844
v 34179.089844 34492.460938 23530.292969
v 34267.964844 34437.234375 23534.478516
v 34382.484375 34423.187500 23774.464844
v 33804.125000 34484.968750 23535.939453
v 34122.160156 34431.378906 23475.042969
v 34324.214844 34454.582031 23608.470703
v 34113.148438 33470.421875 23522.013672
v 34284.679688 33494.265625 23525.048828
v 34046.437500 33512.015625 23548.548828
v 34332.769531 33593.468750 23527.070312
v 33996.230469 33633.671875 23507.123047
v 33887.312500 33898.921875 23534.070312
v 34410.199219 33901.386719 23593.904297
v 33839.660156 34064.351562 23523.404297
v 33839.210938 34149.500000 23492.208984
v 33774.179688 34261.304688 23539.302734
v 33722.695312 34362.464844 23594.169922
v 33746.195312 34468.960938 23577.269531
v 34392.238281 34433.816406 23925.773438
v 33854.117188 34493.117188 23519.070312
v 33894.683594 34599.753906 23552.722656
v 34055.011719 34529.527344 23523.166016
v 34278.273438 34509.062500 23596.710938
v 34345.882812 34490.378906 23675.003906
v 34370.136719 34480.476562 23770.349609
v 34068.328125 33448.527344 23610.968750
v 34144.773438 33368.933594 23672.652344
v 34150.515625 33404.394531 23584.509766
v 34213.492188 33393.894531 23561.759766
v 34349.375000 33562.636719 23577.234375
v 33932.570312 33727.394531 23552.744141
v 34379.273438 33680.726562 23565.181641
v 33891.968750 33791.894531 23597.224609
v 33848.109375 33962.414062 23566.992188
v 34417.109375 33926.246094 23684.394531
v 33763.343750 34177.582031 23574.951172
v 34417.335938 33972.097656 24149.255859
v 34403.597656 34330.062500 24026.238281
v 34383.589844 34522.902344 23923.064453
v 33768.933594 34561.714844 23589.953125
v 34228.015625 34563.039062 23594.433594
v 34321.519531 34547.964844 23671.007812
v 34354.207031 34548.261719 23754.896484
v 34340.867188 34605.898438 23736.972656
v 34142.414062 34602.843750 23583.201172
v 34289.562500 34578.246094 23646.339844
v 33805.308594 34646.605469 23610.509766
v 33815.093750 34610.488281 23578.037109
v 33851.257812 34658.203125 23593.318359
v 33995.359375 34634.328125 23571.343750
v 34309.351562 33414.886719 23594.396484
v 34003.824219 33544.281250 23581.527344
v 34384.871094 33624.230469 23636.238281
v 34410.441406 33807.261719 23579.929688
v 33828.527344 33973.523438 23612.441406
v 34422.636719 33910.539062 23881.789062
v 33731.449219 34258.269531 23593.886719
v 33732.851562 34554.609375 23634.394531
v 34372.371094 34599.093750 23841.894531
v 34323.726562 34662.234375 23722.019531
v 34358.808594 34657.980469 23781.101562
v 34059.410156 34600.734375 23560.189453
v 33924.265625 34716.250000 23625.001953
v 34272.218750 33387.671875 23582.523438
v 34025.679688 33483.042969 23652.339844
v 33928.062500 33676.500000 23634.113281
v 33807.789062 33999.867188 23666.035156
v 34422.613281 33824.425781 23704.636719
v 34425.738281 33845.863281 23794.798828
v 33690.347656 34354.671875 23658.568359
v 33700.273438 34521.601562 23692.707031
v 34393.464844 34602.738281 24008.548828
v 34251.976562 34638.074219 23649.945312
v 34072.785156 34745.828125 23653.386719
v 34131.195312 34698.039062 23635.173828
v 34090.289062 33408.765625 23699.873047
v 34203.925781 33336.636719 23678.138672
v 34357.921875 33531.613281 23616.615234
v 33979.593750 33562.039062 23643.326172
v 34410.746094 33663.328125 23791.203125
v 33853.097656 33857.812500 23703.146484
v 34412.734375 33744.636719 23683.966797
v 34420.414062 33764.414062 23796.425781
v 33755.191406 34145.992188 23623.566406
v 34423.335938 33829.523438 23943.785156
v 33717.566406 34233.972656 23663.251953
v 33760.003906 34629.679688 23649.121094
v 34385.742188 34650.738281 23875.523438
v 34219.019531 34706.050781 23663.564453
v 34256.191406 34717.960938 23690.630859
v 33996.097656 34741.207031 23644.589844
v 34139.628906 34774.378906 23695.857422
v 33855.000000 34765.414062 23679.285156
v 34026.210938 34789.367188 23691.533203
v 34298.304688 33356.281250 23658.380859
v 34341.761719 33392.277344 23687.398438
v 34367.535156 33479.171875 23690.015625
v 34380.566406 33449.585938 23772.392578
v 34397.300781 33622.113281 23707.242188
v 34412.726562 33600.347656 23898.132812
v 34419.097656 33710.250000 23958.294922
v 34418.125000 33750.593750 24236.683594
v 33766.156250 34101.015625 23692.742188
v 33712.261719 34245.937500 23774.650391
v 34388.199219 34677.023438 23838.771484
v 34356.738281 34725.765625 23782.498047
v 34266.726562 33328.957031 23711.277344
v 33990.023438 33529.710938 23699.818359
v 34413.535156 33617.066406 24077.662109
v 33781.078125 34061.425781 23776.652344
v 34144.222656 33363.035156 23761.185547
v 34038.929688 33459.167969 23744.328125
v 34398.226562 34689.929688 23952.939453
v 34022.222656 34874.675781 23791.457031
v 33913.664062 34800.968750 23701.109375
v 34327.382812 33357.371094 23731.273438
v 34360.765625 33387.703125 23780.871094
v 34395.031250 33496.585938 23851.587891
v 34410.890625 34202.734375 24417.453125
v 33682.203125 34341.835938 23733.802734
v 34396.007812 34743.039062 23912.796875
v 34380.570312 34728.617188 23835.332031
v 34201.132812 34801.937500 23751.537109
v 34278.464844 34786.273438 23776.103516
v 34278.894531 33326.781250 23788.386719
v 34167.039062 33362.816406 23816.867188
v 33917.347656 33688.320312 23748.703125
v 33667.304688 34440.945312 23800.990234
v 33754.601562 34747.941406 23767.494141
v 33800.582031 34759.800781 23716.802734
v 33851.039062 34856.539062 23782.199219
v 34380.671875 33414.152344 23884.906250
v 33779.617188 34086.375000 23886.058594
v 33678.289062 34463.726562 23739.859375
v 33806.851562 34874.523438 23844.279297
v 33930.796875 34917.898438 23839.402344
v 34336.835938 33364.820312 23857.023438
v 34231.042969 33327.601562 23765.933594
v 34030.324219 33474.964844 23798.474609
v 34136.898438 34906.558594 23878.357422
v 33866.070312 34914.589844 23844.406250
v 34279.246094 33356.449219 23891.986328
v 33995.308594 33524.035156 23782.666016
v 34402.539062 33518.992188 23983.470703
v 33945.449219 33639.242188 23838.679688
v 33882.597656 33786.835938 23853.128906
v 34384.910156 34800.210938 23915.382812
v 34351.871094 34809.156250 23878.068359
v 34070.800781 34890.687500 23820.560547
v 34140.050781 33396.503906 23895.369141
v 33668.000000 34562.062500 23872.427734
v 34406.218750 34787.261719 23991.728516
v 34249.289062 34868.921875 23885.718750
v 33901.207031 34969.652344 23925.363281
v 33926.085938 33723.839844 23956.433594
v 33731.718750 34290.652344 24089.017578
v 33692.664062 34347.683594 23892.435547
v 33680.292969 34636.269531 23851.947266
v 33709.921875 34662.417969 23758.523438
v 34404.488281 34751.937500 24019.621094
v 34276.785156 34912.609375 23985.828125
v 34355.152344 34885.718750 24041.191406
v 33784.515625 34931.300781 23950.953125
v 33956.382812 34976.398438 23936.875000
v 33861.730469 35005.035156 23985.523438
v 34225.238281 33370.332031 23926.314453
v 34104.925781 33458.457031 23994.373047
v 33672.152344 34449.375000 23935.417969
v 33657.695312 34563.835938 23963.398438
v 33656.851562 34670.226562 23988.679688
v 33747.152344 34930.628906 24010.533203
v 34046.007812 34978.417969 23959.552734
v 34236.886719 33413.109375 24088.093750
v 34298.898438 33396.000000 24046.292969
v 34074.031250 33466.019531 23916.238281
v 33995.156250 33571.250000 23917.328125
v 34409.167969 33600.296875 24358.826172
v 33765.691406 34154.246094 23981.513672
v 34401.281250 34681.789062 24216.744141
v 33668.636719 34770.375000 24002.941406
v 33688.761719 34741.621094 23920.890625
v 33737.882812 34793.718750 23844.035156
v 34394.531250 34855.410156 24194.873047
v 34388.082031 34852.554688 24079.535156
v 34174.179688 34985.039062 24033.566406
v 34118.375000 35056.074219 24120.025391
v 34154.449219 33437.082031 24051.076172
v 34058.390625 33539.218750 24090.712891
v 33965.476562 33676.644531 24048.177734
v 33939.609375 35052.203125 24049.986328
v 34400.832031 34466.441406 24263.722656
v 33657.308594 34576.324219 24136.992188
v 33638.968750 34691.234375 24112.339844
v 34403.652344 34789.015625 24155.976562
v 34376.058594 34887.894531 24121.867188
v 33775.687500 35031.402344 24115.406250
v 33818.113281 34978.820312 23977.927734
v 34392.085938 33464.234375 24072.642578
v 34402.972656 33527.257812 24167.509766
v 33679.156250 34793.953125 24197.998047
v 33683.316406 34853.660156 24071.347656
v 33920.703125 33800.023438 24111.556641
v 33704.597656 34403.855469 24171.152344
v 33716.218750 34901.593750 24149.169922
v 33842.515625 35077.781250 24121.630859
v 33951.953125 35082.929688 24157.265625
v 34330.609375 33419.070312 24137.886719
v 34121.554688 33497.320312 24157.929688
v 34396.355469 33510.289062 24309.556641
v 34417.007812 33833.984375 24546.371094
v 33785.210938 34171.757812 24176.123047
v 33766.851562 34969.292969 24178.035156
v 34391.957031 34847.238281 24403.050781
v 33782.363281 34930.238281 24282.070312
v 34364.613281 34963.671875 24240.515625
v 34351.578125 34925.562500 24120.400391
v 34315.640625 34949.718750 24101.707031
v 33963.343750 35071.363281 24088.507812
v 33824.921875 35038.117188 24173.507812
v 34190.312500 33453.367188 24171.326172
v 33982.910156 33703.015625 24197.369141
v 34402.558594 34331.144531 24881.007812
v 33904.437500 35039.632812 24302.351562
v 33910.781250 35069.785156 24200.888672
v 34017.492188 35095.292969 24224.878906
v 34361.015625 33419.234375 24060.851562
v 34184.519531 33489.542969 24292.898438
v 34260.035156 33446.328125 24256.308594
v 34377.945312 33467.167969 24255.884766
v 34056.460938 33579.765625 24194.343750
v 33840.765625 34052.527344 24242.535156
v 33667.804688 34610.332031 24251.501953
v 34382.031250 34919.925781 24269.171875
v 34251.144531 34994.625000 24102.345703
v 34320.125000 35019.531250 24235.798828
v 33911.097656 35063.976562 24230.759766
v 34307.285156 33447.855469 24316.888672
v 33671.574219 34671.585938 24280.087891
v 33836.664062 34986.312500 24290.300781
v 34002.792969 35088.359375 24351.539062
v 34197.531250 35080.339844 24225.357422
v 34133.707031 35096.906250 24228.369141
v 34338.976562 33445.511719 24286.605469
v 34361.960938 33457.414062 24321.640625
v 34022.113281 33720.468750 24384.107422
v 33686.589844 34490.535156 24225.320312
v 33767.031250 34872.421875 24344.849609
v 34252.933594 35061.144531 24232.097656
v 34334.410156 35047.675781 24303.181641
v 34286.234375 35111.238281 24319.902344
v 34128.585938 33531.773438 24291.427734
v 34414.253906 33969.660156 24844.117188
v 33731.710938 34364.957031 24308.800781
v 33689.800781 34654.300781 24352.494141
v 34375.300781 34992.039062 24401.445312
v 34366.085938 35021.695312 24365.646484
v 34079.296875 35126.570312 24339.953125
v 34192.554688 35137.167969 24341.515625
v 34271.015625 33458.687500 24368.308594
v 33917.574219 33894.167969 24305.207031
v 34297.292969 35128.917969 24379.140625
v 34229.390625 33476.660156 24362.552734
v 34025.687500 33626.445312 24199.029297
v 33877.324219 33984.000000 24296.212891
v 33686.820312 34532.480469 24301.984375
v 33702.148438 34694.925781 24382.640625
v 33757.609375 34811.941406 24416.117188
v 33861.171875 34957.632812 24391.781250
v 34355.535156 35023.539062 24494.988281
v 34329.023438 35112.769531 24374.062500
v 34389.843750 33492.078125 24413.921875
v 33963.054688 33812.359375 24336.863281
v 33730.457031 34751.882812 24419.576172
v 34048.164062 35089.089844 24398.826172
v 34223.515625 33494.480469 24466.294922
v 34014.644531 33789.339844 24547.878906
v 33822.011719 34157.054688 24420.050781
v 33938.328125 34987.605469 24464.451172
v 33996.480469 35011.210938 24493.710938
v 34175.167969 35021.703125 24597.662109
v 34292.894531 33458.203125 24552.134766
v 34338.207031 33454.753906 24438.818359
v 34375.281250 33469.222656 24502.068359
v 34110.328125 33585.023438 24381.806641
v 33855.296875 34113.820312 24538.843750
v 34410.550781 34153.550781 24828.796875
v 33811.246094 34866.464844 24462.054688
v 34148.191406 35106.296875 24419.910156
v 34310.574219 35019.324219 24582.855469
v 34305.996094 33454.023438 24455.453125
v 34162.789062 33536.367188 24405.681641
v 34086.046875 33680.085938 24570.539062
v 33694.550781 34563.125000 24374.121094
v 33762.882812 34774.527344 24502.304688
v 34345.480469 33453.699219 24588.679688
v 34400.492188 33528.707031 24466.044922
v 33766.906250 34313.929688 24464.083984
v 33739.160156 34417.355469 24517.929688
v 33716.144531 34458.031250 24409.125000
v 33709.781250 34582.671875 24480.144531
v 33885.851562 34933.148438 24491.679688
v 34366.800781 34962.242188 24580.333984
v 34259.441406 35018.656250 24610.746094
v 34256.687500 35079.441406 24477.898438
v 34057.585938 35031.609375 24515.335938
v 34222.953125 33513.601562 24561.656250
v 33767.320312 34353.363281 24625.568359
v 33730.242188 34490.640625 24586.667969
v 33723.343750 34602.628906 24554.398438
v 33756.656250 34718.589844 24586.669922
v 33854.464844 34875.039062 24557.406250
v 34383.453125 34914.449219 24548.763672
v 34113.472656 35013.968750 24591.869141
v 34283.101562 33493.328125 24725.535156
v 33810.007812 34230.910156 24574.417969
v 33733.949219 34694.066406 24515.337891
v 33781.644531 34780.968750 24567.578125
v 34039.269531 34978.503906 24625.724609
v 34155.449219 33575.132812 24531.107422
v 33909.371094 33990.089844 24523.167969
v 33739.261719 34507.109375 24704.591797
v 33977.011719 34953.281250 24609.798828
v 34337.785156 34973.464844 24658.806641
v 34332.250000 33451.042969 24656.322266
v 34037.207031 33825.359375 24747.269531
v 33966.843750 33948.496094 24748.349609
v 34412.585938 33788.425781 24869.236328
v 34393.613281 34619.156250 24728.109375
v 33791.109375 34754.910156 24655.453125
v 33840.593750 34810.902344 24688.773438
v 33928.750000 34915.734375 24623.625000
v 34191.550781 34990.625000 24704.281250
v 34271.710938 34991.109375 24699.681641
v 33814.820312 34263.226562 24724.718750
v 33751.960938 34564.328125 24799.746094
v 34386.160156 34876.593750 24638.681641
v 34244.914062 34968.835938 24795.779297
v 34180.515625 33612.320312 24722.496094
v 34090.656250 33739.246094 24736.505859
v 33747.699219 34444.523438 24689.556641
v 34372.527344 34924.835938 24717.568359
v 34169.062500 34966.789062 24803.345703
v 34402.863281 33569.132812 24613.058594
v 33915.382812 34026.082031 24671.917969
v 33744.488281 34614.015625 24680.068359
v 34319.472656 34953.023438 24774.375000
v 34100.968750 34981.390625 24682.750000
v 34382.015625 33478.339844 24605.964844
v 34322.250000 33495.316406 24763.582031
v 34396.078125 33521.117188 24673.103516
v 33914.542969 34863.710938 24739.097656
v 33765.796875 34642.921875 24771.566406
v 33833.679688 34762.578125 24804.187500
v 34193.601562 34936.492188 24910.683594
v 34379.957031 33505.582031 24758.769531
v 34219.332031 33594.578125 24785.771484
v 34122.640625 33739.976562 24861.937500
v 33825.898438 34311.546875 24942.539062
v 33778.175781 34391.722656 24802.484375
v 33796.425781 34703.855469 24806.630859
v 33804.714844 34678.382812 24882.263672
v 34260.031250 34928.804688 24919.271484
v 34100.929688 34930.359375 24892.427734
v 34367.109375 33542.761719 24817.636719
v 34390.640625 33600.277344 24815.785156
v 34288.964844 33537.832031 24802.802734
v 34008.792969 33918.003906 24896.425781
v 33875.726562 34140.195312 24782.662109
v 33769.421875 34478.917969 24895.285156
v 34386.417969 34485.437500 25149.529297
v 33883.871094 34804.531250 24833.556641
v 33999.511719 34930.636719 24726.033203
v 34377.519531 34887.875000 24762.193359
v 34375.539062 33592.835938 24857.730469
v 34400.148438 33605.976562 24742.511719
v 34288.039062 33603.703125 24899.941406
v 34241.582031 33608.628906 24854.984375
v 33853.480469 34320.136719 25132.947266
v 33819.882812 34657.808594 25006.964844
v 33851.210938 34738.757812 24906.712891
v 34383.734375 34807.046875 24813.326172
v 33944.214844 34845.257812 24877.861328
v 34044.125000 34921.875000 24850.039062
v 34336.453125 33587.117188 24891.476562
v 34410.410156 33690.074219 24630.960938
v 34168.132812 33707.441406 24920.853516
v 34060.171875 33852.695312 24949.617188
v 33802.093750 34406.210938 24982.187500
v 34352.707031 34913.402344 24839.919922
v 34401.031250 33669.230469 24817.097656
v 34227.339844 33673.925781 24964.777344
v 34124.140625 33785.082031 25006.611328
v 33875.941406 34203.175781 24990.423828
v 33774.937500 34532.109375 24944.710938
v 33782.988281 34586.773438 24957.128906
v 33922.441406 34791.019531 24975.554688
v 34325.441406 33641.085938 24997.033203
v 34391.308594 33684.296875 24939.847656
v 33945.390625 34044.617188 24947.689453
v 33824.851562 34630.453125 25085.773438
v 33863.945312 34702.187500 25050.443359
v 34374.265625 34856.292969 24910.208984
v 34347.023438 34887.050781 24958.710938
v 34283.015625 33661.886719 25014.062500
v 34357.988281 33644.375000 24979.023438
v 34373.488281 33693.574219 25023.902344
v 34057.054688 33882.148438 25079.064453
v 33989.117188 33987.613281 25062.017578
v 33801.882812 34478.890625 25063.003906
v 34320.531250 34906.292969 24944.832031
v 34002.757812 34851.968750 24989.441406
v 34044.992188 34851.820312 25072.220703
v 34135.582031 34916.734375 24956.761719
v 34326.320312 33697.390625 25095.318359
v 34236.894531 33738.207031 25159.738281
v 34405.777344 33760.902344 25009.792969
v 34410.210938 33806.816406 25100.371094
v 33911.718750 34181.289062 25210.623047
v 33971.121094 34804.007812 25088.421875
v 34371.722656 34802.484375 25000.396484
v 34193.386719 34885.156250 25079.751953
v 34276.906250 33726.593750 25156.615234
v 34203.410156 33728.785156 25066.835938
v 33797.167969 34545.078125 25041.675781
v 34268.726562 34885.734375 25049.246094
v 34328.863281 34855.515625 25065.658203
v 34091.109375 34874.914062 25053.324219
v 34380.906250 33731.398438 25092.427734
v 33835.925781 34610.390625 25163.998047
v 34358.414062 34824.906250 25057.486328
v 34097.062500 33842.468750 25151.441406
v 33945.250000 34089.789062 25155.847656
v 33828.109375 34407.796875 25118.515625
v 33878.589844 34673.628906 25151.923828
v 34113.257812 34843.824219 25173.666016
v 34191.011719 33785.820312 25221.232422
v 34121.441406 33831.003906 25223.578125
v 34414.304688 33869.023438 25071.927734
v 34015.101562 33958.488281 25183.273438
v 34036.640625 33937.687500 25321.615234
v 34362.781250 34690.062500 25154.886719
v 33960.238281 34765.914062 25154.064453
v 34354.144531 34794.804688 25106.572266
v 34065.203125 33896.328125 25291.429688
v 33973.218750 34047.910156 25269.652344
v 34028.578125 34804.585938 25181.623047
v 34327.128906 34813.652344 25150.574219
v 34205.750000 34850.375000 25178.292969
v 34331.316406 33743.140625 25187.070312
v 34396.582031 33781.914062 25162.605469
v 34261.878906 33767.816406 25237.902344
v 33828.804688 34490.625000 25182.591797
v 33927.218750 34659.300781 25269.007812
v 34378.585938 34709.390625 24992.527344
v 34266.546875 34830.222656 25198.292969
v 34371.437500 33800.804688 25284.666016
v 34086.937500 33884.917969 25309.488281
v 34407.023438 33983.070312 25170.279297
v 33903.195312 34226.304688 25273.255859
v 33852.269531 34405.015625 25258.414062
v 34210.386719 33821.843750 25333.367188
v 34404.695312 33876.617188 25272.750000
v 33895.195312 34279.992188 25320.550781
v 33851.183594 34474.839844 25271.632812
v 34345.578125 34718.933594 25208.199219
v 34059.914062 34801.664062 25226.130859
v 34211.410156 34815.367188 25254.087891
v 34272.382812 34784.257812 25259.591797
v 34107.925781 34784.339844 25276.500000
v 33942.656250 34140.625000 25350.457031
v 33859.640625 34551.183594 25255.957031
v 33910.972656 34596.453125 25316.835938
v 33998.640625 34721.585938 25284.287109
v 34113.472656 34725.292969 25353.250000
v 34165.527344 33880.691406 25419.242188
v 34402.703125 34110.875000 25165.531250
v 34376.625000 34617.859375 25095.896484
v 34051.019531 34746.636719 25301.937500
v 34320.632812 34727.468750 25253.166016
v 34062.777344 34689.988281 25378.791016
v 34235.699219 34767.785156 25301.652344
v 34276.992188 33856.324219 25443.564453
v 33996.449219 34026.074219 25385.232422
v 33897.671875 34379.878906 25395.089844
v 33891.046875 34455.375000 25377.769531
v 33935.804688 34577.742188 25375.677734
v 34367.691406 34566.566406 25266.279297
v 34350.355469 34634.511719 25262.525391
v 34282.050781 34706.984375 25318.402344
v 34333.402344 33870.136719 25427.064453
v 34374.175781 33858.859375 25363.935547
v 33936.601562 34201.968750 25419.527344
v 33928.050781 34248.800781 25433.605469
v 33947.734375 34269.339844 25492.607422
v 33918.902344 34387.515625 25443.474609
v 33896.429688 34527.152344 25365.419922
v 34011.796875 34668.605469 25368.001953
v 34093.843750 34633.234375 25430.957031
v 34161.000000 34674.519531 25397.095703
v 34223.085938 34642.941406 25407.417969
v 34268.820312 34628.433594 25397.037109
v 34319.941406 34650.816406 25323.562500
v 33988.472656 34083.175781 25459.033203
v 33967.269531 34294.902344 25535.068359
v 33927.679688 34436.941406 25451.802734
v 33961.992188 34464.097656 25485.089844
v 33968.031250 34569.375000 25418.210938
v 34345.449219 34608.261719 25322.472656
v 34032.421875 34606.558594 25438.050781
v 34267.656250 34565.070312 25449.628906
v 34320.664062 34587.695312 25389.142578
v 34082.707031 33957.328125 25474.902344
v 34384.933594 34388.929688 25331.523438
v 34370.210938 34524.566406 25331.478516
v 34010.863281 34506.148438 25501.076172
v 34065.980469 34561.621094 25479.083984
v 34157.367188 34565.664062 25479.757812
v 34401.562500 33932.167969 25275.343750
v 34039.640625 34013.054688 25509.107422
v 33975.984375 34339.414062 25542.615234
v 34014.593750 34303.468750 25595.185547
v 34020.597656 34423.039062 25556.498047
v 34104.988281 34500.140625 25538.873047
v 34355.554688 34453.398438 25449.613281
v 34214.097656 34487.718750 25534.882812
v 34332.265625 34536.066406 25433.707031
v 34240.839844 33869.160156 25460.279297
v 34388.261719 33918.195312 25349.546875
v 33974.667969 34182.781250 25530.169922
v 34394.109375 34359.476562 25204.759766
v 34069.058594 34359.792969 25608.142578
v 34138.531250 34437.230469 25581.613281
v 34278.746094 34475.835938 25526.029297
v 34351.707031 33935.671875 25449.355469
v 34379.839844 33983.632812 25397.234375
v 34397.410156 34018.093750 25287.712891
v 34058.292969 34006.050781 25526.527344
v 34005.375000 34214.035156 25594.718750
v 34373.769531 34441.128906 25380.552734
v 34265.257812 34425.527344 25577.751953
v 34327.519531 34466.250000 25500.632812
v 34306.453125 33935.828125 25513.724609
v 34271.261719 33911.281250 25504.951172
v 34321.128906 33988.347656 25562.548828
v 34228.933594 33998.785156 25625.884766
v 34198.082031 33956.753906 25557.357422
v 33997.660156 34138.652344 25547.427734
v 34396.085938 34249.074219 25274.042969
v 34090.195312 34271.699219 25648.380859
v 34284.585938 34342.121094 25610.929688
v 34368.789062 34332.851562 25481.457031
v 34323.996094 34358.707031 25568.849609
v 34280.121094 34013.324219 25632.494141
v 34350.582031 34004.503906 25527.296875
v 34371.800781 34036.699219 25478.970703
v 34134.140625 33963.070312 25529.890625
v 34388.156250 34045.781250 25372.089844
v 34060.632812 34095.820312 25602.447266
v 34392.230469 34170.292969 25415.304688
v 34081.687500 34191.488281 25651.476562
v 34383.179688 34257.312500 25446.789062
v 34152.175781 34335.222656 25642.894531
v 34127.859375 34039.488281 25629.572266
v 34380.703125 34162.011719 25528.621094
v 34362.042969 34232.011719 25569.019531
v 34240.683594 34279.691406 25665.345703
v 34294.199219 34208.425781 25671.396484
v 34332.968750 34272.816406 25605.431641
v 34350.195312 34350.574219 25532.148438
v 34327.968750 34067.675781 25642.498047
v 34198.511719 34072.054688 25681.111328
v 34283.535156 34084.535156 25699.613281
v 34152.222656 34104.312500 25672.583984
v 34368.976562 34140.867188 25586.027344
v 34235.644531 34121.718750 25714.490234
v 34173.882812 34174.097656 25691.351562
v 34238.808594 34197.949219 25691.605469
v 34159.210938 34259.046875 25670.712891
v 34323.148438 34185.703125 25657.359375
v 34353.113281 34094.218750 25610.503906
v 34285.230469 34147.675781 25704.318359
v 34340.726562 34137.515625 25653.992188
# 667 vertices, 0 vertices normals

f 4 2 1
f 1 3 5
f 1 2 3
f 3 2 11
f 2 9 10
f 3 11 13
f 2 10 11
f 4 16 2
f 6 7 2
f 6 2 16
f 2 7 9
f 8 39 3
f 8 3 13
f 9 12 10
f 10 12 11
f 9 18 12
f 12 14 11
f 11 14 13
f 8 13 15
f 12 19 14
f 14 22 13
f 13 22 15
f 23 4 48
f 23 16 4
f 4 36 48
f 24 16 23
f 4 1 36
f 5 3 50
f 24 6 16
f 17 6 31
f 6 17 7
f 17 9 7
f 17 18 9
f 18 19 12
f 15 28 8
f 22 14 21
f 20 28 15
f 19 21 14
f 19 43 21
f 20 15 22
f 35 23 48
f 37 24 23
f 1 5 36
f 25 24 37
f 25 6 24
f 25 26 6
f 8 27 39
f 26 31 6
f 28 30 29
f 31 18 17
f 52 18 31
f 20 30 28
f 18 52 42
f 19 18 42
f 42 43 19
f 32 43 54
f 32 21 43
f 32 22 21
f 33 20 22
f 32 33 22
f 45 33 32
f 33 34 20
f 34 30 20
f 54 45 32
f 47 23 35
f 49 23 47
f 49 37 23
f 38 25 37
f 50 3 39
f 38 78 51
f 51 25 38
f 51 26 25
f 8 28 27
f 30 40 29
f 62 64 31
f 30 41 40
f 31 64 52
f 34 41 30
f 34 44 41
f 67 45 54
f 42 56 43
f 46 34 33
f 46 44 34
f 33 70 46
f 38 59 78
f 27 77 39
f 27 28 98
f 29 98 28
f 62 31 26
f 42 52 53
f 44 55 41
f 53 56 42
f 54 43 56
f 46 55 44
f 57 33 45
f 57 45 67
f 70 33 57
f 69 46 70
f 69 55 46
f 54 56 66
f 67 68 57
f 47 35 58
f 47 73 49
f 59 49 73
f 36 74 48
f 74 36 5
f 59 37 49
f 59 38 37
f 75 50 77
f 39 77 50
f 27 98 77
f 29 120 98
f 60 120 29
f 61 26 51
f 40 60 29
f 26 61 62
f 62 61 80
f 41 81 40
f 80 82 62
f 82 64 62
f 55 81 41
f 55 63 81
f 64 65 52
f 52 65 53
f 69 63 55
f 69 83 63
f 67 54 66
f 90 56 53
f 56 90 66
f 66 87 67
f 70 57 68
f 66 90 86
f 66 86 87
f 67 87 68
f 70 71 69
f 92 47 58
f 72 58 35
f 72 35 48
f 92 73 47
f 74 72 48
f 96 59 73
f 5 75 74
f 96 76 59
f 75 5 50
f 76 78 59
f 100 61 51
f 40 122 60
f 100 79 61
f 79 80 61
f 79 101 80
f 80 101 84
f 80 84 82
f 82 65 64
f 85 53 65
f 84 89 82
f 82 89 65
f 65 106 85
f 89 105 65
f 65 105 106
f 85 90 53
f 91 70 68
f 91 68 87
f 71 70 91
f 88 69 71
f 88 83 69
f 91 109 71
f 88 71 110
f 110 71 109
f 85 107 90
f 58 114 92
f 58 149 114
f 149 58 72
f 72 93 149
f 94 73 92
f 94 96 73
f 74 93 72
f 95 93 74
f 75 95 74
f 116 76 96
f 76 116 97
f 77 98 139
f 76 97 78
f 97 99 78
f 99 100 78
f 78 100 51
f 99 121 100
f 81 122 40
f 101 100 121
f 100 101 79
f 101 142 102
f 84 101 102
f 63 123 81
f 102 103 84
f 83 123 63
f 103 89 84
f 88 104 83
f 110 104 88
f 89 103 125
f 108 91 87
f 127 109 91
f 127 91 108
f 89 133 105
f 89 125 133
f 105 133 106
f 90 107 86
f 87 86 108
f 110 109 128
f 128 109 127
f 85 135 107
f 86 107 130
f 133 134 106
f 112 111 113
f 111 92 113
f 113 92 114
f 94 92 111
f 94 111 137
f 96 94 137
f 93 95 136
f 137 116 96
f 115 95 117
f 75 117 95
f 116 118 97
f 119 97 118
f 98 153 139
f 120 153 98
f 119 121 99
f 119 99 97
f 60 141 120
f 60 122 141
f 142 121 169
f 121 142 101
f 142 155 102
f 104 123 83
f 143 125 103
f 110 124 104
f 128 124 110
f 135 85 106
f 147 107 135
f 130 107 147
f 126 86 130
f 126 108 86
f 131 127 108
f 131 108 126
f 143 132 125
f 125 132 133
f 128 127 129
f 129 127 131
f 130 174 158
f 130 158 126
f 126 158 131
f 131 145 129
f 134 148 106
f 135 106 148
f 162 112 113
f 162 113 114
f 93 136 149
f 150 137 111
f 95 115 136
f 151 116 137
f 115 138 163
f 117 138 115
f 118 116 151
f 77 117 75
f 139 117 77
f 118 140 119
f 153 167 139
f 140 121 119
f 153 120 154
f 141 154 120
f 140 169 121
f 169 171 142
f 156 102 155
f 156 103 102
f 104 276 123
f 124 276 104
f 128 144 124
f 129 144 128
f 132 143 172
f 175 158 174
f 145 131 158
f 146 129 145
f 146 144 129
f 215 132 172
f 147 160 130
f 147 159 160
f 174 130 160
f 134 133 132
f 147 135 159
f 178 134 132
f 148 176 135
f 135 176 159
f 112 161 111
f 180 149 136
f 150 164 137
f 115 163 136
f 164 151 137
f 166 140 118
f 139 138 117
f 152 140 166
f 152 169 140
f 141 170 154
f 141 122 170
f 103 156 143
f 124 157 276
f 144 157 124
f 144 173 157
f 146 173 144
f 146 190 173
f 158 175 145
f 145 191 146
f 178 132 215
f 160 177 174
f 178 148 134
f 159 176 179
f 148 178 176
f 161 150 111
f 162 114 149
f 180 162 149
f 136 181 180
f 193 164 150
f 182 163 138
f 212 151 164
f 151 166 118
f 138 167 184
f 165 184 167
f 165 167 168
f 139 167 138
f 153 168 167
f 153 154 168
f 171 169 188
f 155 142 171
f 123 204 81
f 145 175 191
f 146 191 190
f 159 177 160
f 200 176 178
f 176 200 179
f 162 180 192
f 201 180 181
f 161 197 150
f 163 182 181
f 163 181 136
f 193 150 197
f 183 138 184
f 182 138 183
f 212 164 193
f 165 185 184
f 212 166 151
f 165 186 185
f 168 186 165
f 168 170 186
f 154 170 168
f 188 169 152
f 122 187 170
f 188 189 171
f 189 205 171
f 155 171 205
f 244 172 143
f 215 172 214
f 207 190 191
f 175 174 177
f 179 177 159
f 177 208 175
f 200 178 216
f 178 215 216
f 179 200 221
f 112 162 196
f 223 196 162
f 223 162 192
f 201 192 180
f 196 161 112
f 196 197 161
f 193 197 228
f 184 203 183
f 185 203 184
f 186 194 185
f 186 187 194
f 170 187 186
f 195 152 166
f 195 188 152
f 195 189 188
f 219 155 213
f 156 155 219
f 123 276 204
f 173 198 157
f 190 198 173
f 207 206 190
f 208 209 175
f 175 209 191
f 177 179 199
f 177 199 234
f 221 199 179
f 210 223 192
f 202 201 181
f 202 181 183
f 182 183 181
f 213 155 205
f 244 214 172
f 206 198 190
f 267 215 214
f 234 208 177
f 216 215 220
f 216 226 200
f 210 192 201
f 224 197 196
f 183 217 202
f 224 228 197
f 183 203 217
f 185 229 203
f 228 212 193
f 194 229 185
f 231 195 166
f 156 244 143
f 233 207 191
f 191 209 233
f 200 226 221
f 223 211 196
f 210 201 222
f 201 202 222
f 235 196 211
f 224 196 235
f 231 166 212
f 218 189 195
f 189 242 205
f 253 213 205
f 242 253 205
f 221 234 199
f 217 222 202
f 235 260 224
f 229 217 203
f 231 212 230
f 243 156 219
f 267 214 244
f 207 232 206
f 238 209 208
f 207 233 232
f 234 225 208
f 225 238 208
f 209 238 233
f 226 216 220
f 223 210 227
f 235 211 251
f 261 230 228
f 230 212 228
f 231 218 195
f 219 213 236
f 243 219 236
f 244 156 243
f 206 245 198
f 206 237 245
f 232 237 206
f 220 215 267
f 221 249 234
f 226 239 221
f 210 222 227
f 251 211 223
f 251 223 227
f 222 217 311
f 229 283 217
f 240 230 261
f 81 204 122
f 263 189 218
f 241 189 263
f 189 241 242
f 233 238 246
f 233 247 232
f 239 249 221
f 234 249 257
f 226 220 282
f 259 227 222
f 311 259 222
f 260 261 224
f 261 228 224
f 231 230 240
f 187 262 194
f 213 254 236
f 247 237 232
f 248 220 267
f 246 247 233
f 225 234 257
f 226 282 250
f 239 226 250
f 235 251 272
f 252 260 235
f 283 311 217
f 261 260 273
f 194 284 229
f 274 240 261
f 254 213 253
f 243 236 255
f 236 254 255
f 243 266 244
f 256 248 267
f 269 237 247
f 238 225 270
f 270 246 238
f 248 282 220
f 272 252 235
f 229 284 283
f 231 263 218
f 265 243 255
f 266 243 265
f 267 244 266
f 225 257 270
f 249 275 257
f 250 249 239
f 259 251 227
f 259 258 251
f 292 259 311
f 260 252 273
f 287 231 240
f 241 288 242
f 245 264 198
f 266 265 267
f 237 279 245
f 237 268 279
f 269 268 237
f 280 269 247
f 247 301 280
f 257 271 270
f 250 275 249
f 258 272 251
f 284 294 283
f 348 261 273
f 261 348 274
f 295 470 187
f 231 296 263
f 254 253 277
f 264 157 198
f 255 254 278
f 278 265 255
f 265 278 286
f 265 286 267
f 286 256 267
f 246 302 247
f 302 301 247
f 246 270 319
f 305 272 258
f 262 284 194
f 287 240 274
f 316 231 287
f 231 316 296
f 242 277 253
f 245 279 264
f 280 268 269
f 286 289 281
f 286 281 256
f 246 319 302
f 282 248 256
f 256 281 282
f 303 271 257
f 290 250 282
f 303 257 275
f 250 290 275
f 275 290 303
f 293 273 252
f 293 252 272
f 122 295 187
f 254 277 278
f 286 278 285
f 289 286 285
f 268 298 279
f 281 290 282
f 288 277 242
f 331 277 288
f 277 317 278
f 280 318 268
f 280 300 318
f 280 301 300
f 297 281 289
f 281 297 304
f 290 291 303
f 272 305 293
f 311 283 314
f 294 314 283
f 284 262 294
f 315 348 273
f 306 287 274
f 241 263 296
f 264 276 157
f 318 298 268
f 270 271 319
f 303 327 271
f 310 303 291
f 281 304 290
f 336 273 293
f 273 336 315
f 348 306 274
f 187 470 262
f 338 241 296
f 288 241 338
f 350 277 331
f 350 317 277
f 285 278 323
f 279 298 264
f 332 297 289
f 299 324 297
f 304 297 324
f 302 320 301
f 319 320 302
f 300 301 320
f 324 308 304
f 321 304 308
f 304 321 309
f 291 290 309
f 310 291 309
f 310 327 303
f 290 304 309
f 259 313 258
f 336 293 305
f 305 312 336
f 313 312 305
f 313 305 258
f 313 259 292
f 328 292 311
f 328 311 329
f 311 314 329
f 369 315 336
f 278 317 323
f 351 285 323
f 299 297 332
f 300 341 318
f 326 271 327
f 319 271 326
f 319 333 320
f 321 310 309
f 347 312 313
f 344 347 313
f 322 344 313
f 322 313 292
f 328 322 292
f 369 348 315
f 348 330 306
f 345 316 287
f 349 316 345
f 382 338 296
f 285 352 332
f 332 289 285
f 326 333 319
f 334 300 320
f 334 341 300
f 325 321 308
f 320 333 334
f 310 321 342
f 470 428 262
f 357 287 306
f 357 345 287
f 296 316 362
f 276 307 204
f 331 288 338
f 324 299 353
f 318 340 298
f 341 340 318
f 335 326 327
f 335 333 326
f 342 321 325
f 327 310 342
f 333 335 334
f 327 342 343
f 262 381 294
f 357 306 330
f 122 337 295
f 204 337 122
f 382 296 362
f 307 371 204
f 331 384 350
f 378 317 350
f 317 339 323
f 378 339 317
f 339 351 323
f 299 332 353
f 353 308 324
f 334 335 355
f 335 327 343
f 341 334 355
f 335 343 346
f 335 346 355
f 360 376 312
f 312 376 336
f 347 360 312
f 329 314 356
f 376 369 336
f 294 356 314
f 381 356 294
f 316 349 362
f 338 384 331
f 363 308 353
f 325 308 363
f 325 359 342
f 343 342 373
f 367 322 328
f 329 367 328
f 262 428 381
f 348 369 330
f 405 345 357
f 349 345 405
f 351 358 285
f 352 285 358
f 332 372 353
f 353 372 386
f 325 364 359
f 325 363 364
f 342 359 373
f 389 346 373
f 341 354 340
f 341 355 354
f 343 373 346
f 330 377 361
f 361 357 330
f 370 362 349
f 349 405 370
f 385 339 378
f 351 339 385
f 332 352 372
f 389 355 346
f 375 366 344
f 375 344 322
f 367 375 322
f 329 356 368
f 330 369 377
f 361 405 357
f 383 384 338
f 378 350 384
f 352 358 379
f 386 363 353
f 390 359 364
f 390 373 359
f 373 365 389
f 389 374 355
f 366 347 344
f 366 360 347
f 367 329 368
f 369 404 377
f 383 338 382
f 358 351 401
f 379 358 401
f 298 413 264
f 379 372 352
f 386 372 396
f 391 376 360
f 404 369 376
f 356 381 368
f 337 412 295
f 413 276 264
f 401 395 379
f 372 379 402
f 340 397 298
f 354 355 374
f 375 380 366
f 380 375 367
f 367 368 380
f 368 433 380
f 391 404 376
f 368 381 433
f 400 382 362
f 384 393 378
f 393 385 378
f 394 351 385
f 394 401 351
f 395 402 379
f 372 402 415
f 397 421 298
f 340 387 397
f 354 387 340
f 363 407 364
f 388 389 365
f 388 374 389
f 390 398 373
f 373 398 365
f 399 360 366
f 399 391 360
f 370 400 362
f 392 383 382
f 425 383 392
f 413 307 276
f 393 384 383
f 396 372 415
f 365 418 388
f 404 423 377
f 411 405 361
f 419 392 400
f 392 382 400
f 425 393 383
f 393 406 385
f 402 395 414
f 396 416 386
f 363 386 416
f 416 407 363
f 403 364 407
f 398 390 403
f 432 398 403
f 432 365 398
f 403 390 364
f 409 399 366
f 409 366 380
f 399 404 391
f 405 411 429
f 370 453 400
f 406 394 385
f 430 394 406
f 395 401 437
f 401 430 437
f 401 394 430
f 445 395 437
f 396 436 416
f 354 408 387
f 407 457 403
f 457 432 403
f 432 417 365
f 365 417 418
f 388 418 374
f 354 374 408
f 408 374 418
f 404 399 423
f 377 410 361
f 411 361 410
f 370 405 429
f 425 406 393
f 420 430 406
f 414 395 445
f 415 402 414
f 415 436 396
f 397 426 421
f 387 426 397
f 408 426 387
f 416 457 407
f 427 417 432
f 381 435 433
f 441 423 399
f 424 410 377
f 295 412 470
f 453 370 429
f 453 419 400
f 204 371 337
f 427 418 417
f 399 409 434
f 380 433 409
f 423 424 377
f 444 392 419
f 444 425 392
f 438 415 414
f 426 408 431
f 427 422 418
f 418 422 431
f 418 431 408
f 434 451 399
f 381 428 435
f 424 423 442
f 406 425 444
f 414 445 438
f 432 448 427
f 409 440 434
f 423 441 471
f 471 442 423
f 452 411 410
f 444 419 443
f 454 406 444
f 437 430 420
f 436 415 456
f 457 416 436
f 457 468 432
f 468 448 432
f 422 427 439
f 433 440 409
f 433 435 440
f 435 460 440
f 451 441 399
f 428 460 435
f 462 441 451
f 424 472 410
f 424 442 472
f 453 429 411
f 478 419 453
f 443 419 478
f 454 420 406
f 421 466 298
f 438 456 415
f 426 458 421
f 439 447 422
f 422 447 431
f 426 431 474
f 439 427 498
f 427 448 498
f 484 453 411
f 473 444 443
f 473 454 444
f 413 455 307
f 446 445 437
f 446 465 445
f 465 438 445
f 465 456 438
f 421 458 466
f 456 467 436
f 457 436 467
f 449 434 440
f 440 450 449
f 440 460 450
f 451 434 469
f 469 434 449
f 461 451 469
f 462 451 461
f 470 460 428
f 462 471 441
f 411 452 484
f 479 420 454
f 426 474 458
f 447 495 431
f 431 495 474
f 459 469 449
f 449 450 459
f 410 472 452
f 484 478 453
f 503 443 478
f 463 443 503
f 480 420 479
f 480 437 420
f 480 464 437
f 437 464 446
f 446 464 465
f 465 481 456
f 467 456 481
f 468 457 467
f 474 487 458
f 460 475 450
f 489 476 461
f 461 476 462
f 482 489 461
f 461 469 482
f 470 475 460
f 471 462 476
f 477 471 476
f 442 477 472
f 442 471 477
f 493 484 452
f 493 452 472
f 463 473 443
f 494 454 473
f 465 464 486
f 466 413 298
f 481 465 486
f 458 487 466
f 467 496 468
f 506 439 498
f 439 506 447
f 495 488 474
f 482 469 490
f 490 469 459
f 450 483 459
f 475 483 450
f 412 475 470
f 472 477 492
f 494 479 454
f 480 485 464
f 481 496 467
f 497 448 468
f 497 468 496
f 447 510 495
f 491 490 459
f 459 483 491
f 412 501 475
f 476 508 477
f 509 479 494
f 480 479 509
f 474 488 487
f 506 510 447
f 499 482 490
f 476 489 508
f 501 483 475
f 492 493 472
f 493 517 484
f 517 478 484
f 518 473 463
f 518 494 473
f 537 494 518
f 509 485 480
f 486 464 485
f 466 539 413
f 486 504 481
f 496 481 504
f 515 488 511
f 515 487 488
f 488 495 511
f 497 512 448
f 512 498 448
f 507 489 482
f 508 489 500
f 499 490 491
f 491 483 513
f 483 501 513
f 412 502 501
f 516 477 508
f 514 485 509
f 487 505 466
f 515 505 487
f 510 511 495
f 498 512 506
f 482 499 507
f 500 489 507
f 513 499 491
f 523 502 412
f 337 523 412
f 492 524 493
f 492 477 516
f 492 516 524
f 478 517 503
f 544 463 503
f 485 514 519
f 485 519 486
f 486 519 527
f 486 527 504
f 504 497 496
f 512 520 506
f 534 499 513
f 371 561 337
f 493 524 517
f 537 518 545
f 509 494 537
f 509 537 514
f 506 533 510
f 510 533 540
f 510 540 511
f 500 521 508
f 534 507 499
f 508 521 522
f 522 516 508
f 524 525 530
f 371 307 561
f 505 539 466
f 504 527 531
f 515 528 505
f 511 532 515
f 528 515 532
f 497 504 531
f 520 533 506
f 512 497 520
f 513 535 534
f 501 535 513
f 521 500 536
f 536 500 507
f 536 507 534
f 501 502 535
f 561 543 337
f 530 517 524
f 555 544 503
f 463 545 518
f 537 545 549
f 556 514 537
f 514 538 519
f 519 538 527
f 505 526 539
f 505 528 526
f 516 522 529
f 529 524 516
f 530 503 517
f 555 503 530
f 307 633 561
f 548 463 544
f 545 463 548
f 558 531 527
f 511 540 532
f 531 551 497
f 551 520 497
f 536 546 521
f 546 542 521
f 542 522 521
f 529 525 524
f 337 543 523
f 527 538 558
f 528 550 526
f 558 551 531
f 528 532 550
f 567 536 534
f 567 534 541
f 541 534 535
f 542 529 522
f 560 542 546
f 502 547 535
f 523 547 502
f 549 556 537
f 554 520 551
f 520 552 533
f 533 552 540
f 543 547 523
f 568 530 525
f 557 538 514
f 539 562 413
f 539 526 562
f 552 553 540
f 540 553 532
f 550 532 564
f 564 532 553
f 554 552 520
f 567 546 536
f 535 547 541
f 525 529 542
f 568 555 530
f 555 548 544
f 578 545 548
f 557 514 556
f 558 563 551
f 563 554 551
f 554 559 552
f 560 546 612
f 546 567 612
f 597 525 542
f 597 542 560
f 543 603 547
f 577 548 555
f 578 548 577
f 569 545 578
f 549 545 569
f 570 549 569
f 581 556 549
f 581 549 570
f 557 556 581
f 557 581 571
f 557 571 538
f 558 538 571
f 558 571 582
f 562 455 413
f 563 558 582
f 563 582 565
f 574 553 566
f 563 565 554
f 554 565 559
f 559 566 552
f 552 566 553
f 553 574 564
f 576 575 541
f 541 575 567
f 547 576 541
f 604 525 597
f 568 525 604
f 455 615 307
f 562 572 455
f 562 573 572
f 526 573 562
f 550 573 526
f 550 587 573
f 583 559 565
f 585 566 584
f 574 566 585
f 587 564 574
f 587 550 564
f 559 584 566
f 576 547 613
f 603 613 547
f 604 597 622
f 588 568 604
f 588 577 555
f 588 555 568
f 307 615 633
f 579 569 578
f 580 569 579
f 580 570 569
f 590 570 580
f 590 581 570
f 455 599 624
f 572 599 455
f 592 582 571
f 594 582 592
f 573 593 572
f 593 573 587
f 559 583 584
f 585 586 574
f 574 586 587
f 560 612 641
f 597 560 641
f 589 580 579
f 581 590 591
f 581 591 592
f 571 581 592
f 572 593 599
f 601 583 594
f 582 594 565
f 565 594 583
f 584 583 602
f 584 602 585
f 585 595 586
f 586 595 596
f 586 596 587
f 587 596 593
f 614 577 588
f 614 578 577
f 579 578 614
f 590 580 589
f 605 590 589
f 590 605 591
f 455 624 598
f 600 591 607
f 600 592 591
f 601 600 608
f 593 611 599
f 592 600 594
f 594 600 601
f 583 601 602
f 602 601 608
f 585 602 595
f 595 611 596
f 596 611 593
f 575 576 619
f 576 613 619
f 622 597 641
f 632 588 604
f 632 614 588
f 579 614 589
f 589 623 605
f 607 591 606
f 606 591 605
f 455 598 615
f 608 607 616
f 626 609 611
f 609 599 611
f 609 624 599
f 600 607 608
f 611 618 626
f 602 608 610
f 602 610 595
f 595 610 618
f 595 618 611
f 628 612 567
f 628 567 575
f 543 621 603
f 561 621 543
f 643 632 604
f 643 604 622
f 589 614 623
f 606 605 623
f 608 616 617
f 625 626 618
f 608 617 610
f 610 617 625
f 610 625 618
f 619 613 620
f 631 641 612
f 628 631 612
f 603 620 613
f 623 614 632
f 616 606 634
f 616 607 606
f 616 647 617
f 575 627 628
f 575 619 627
f 631 628 630
f 629 627 619
f 629 619 639
f 619 620 639
f 621 620 603
f 621 642 620
f 561 642 621
f 622 641 648
f 643 622 648
f 561 633 644
f 615 598 633
f 651 625 647
f 651 635 625
f 624 636 598
f 617 647 625
f 636 609 654
f 636 624 609
f 625 635 637
f 625 637 626
f 626 637 654
f 626 654 609
f 630 628 638
f 638 628 627
f 629 638 627
f 639 620 640
f 642 640 620
f 641 631 648
f 648 631 630
f 644 642 561
f 658 643 648
f 623 632 643
f 606 623 645
f 633 646 644
f 598 646 633
f 645 634 606
f 598 636 646
f 647 616 634
f 653 654 637
f 653 637 635
f 656 648 630
f 656 630 657
f 642 649 640
f 648 656 658
f 644 649 642
f 645 643 658
f 645 623 643
f 661 663 634
f 646 649 644
f 646 650 649
f 652 635 651
f 653 650 654
f 650 636 654
f 650 646 636
f 663 647 634
f 647 663 651
f 653 635 652
f 629 655 638
f 638 655 657
f 629 639 655
f 638 657 630
f 665 655 639
f 640 665 639
f 660 656 657
f 640 659 665
f 640 649 659
f 660 658 656
f 661 645 658
f 661 658 660
f 662 661 660
f 662 660 666
f 650 667 659
f 664 667 650
f 649 650 659
f 661 634 645
f 663 661 662
f 663 662 651
f 652 662 666
f 651 662 652
f 652 666 664
f 653 664 650
f 652 664 653
f 667 657 655
f 667 655 665
f 659 667 665
f 660 657 666
f 666 657 667
f 666 667 664
# 1330 faces, 0 coords texture

# End of File
