####
#
# OBJ File Generated by Meshlab
#
####
# Object AL-DM3R.obj
#
# Vertices: 1260
# Faces: 2516
#
####
v 20779.591797 32937.968750 23277.189453
v 20665.154297 32982.632812 23288.074219
v 20747.892578 33077.648438 23277.951172
v 20969.476562 32935.906250 23305.296875
v 20611.419922 32897.914062 23299.925781
v 20906.773438 32967.980469 23286.679688
v 20657.671875 33082.679688 23291.050781
v 20834.687500 33050.593750 23270.408203
v 20969.609375 33074.183594 23286.878906
v 20798.333984 33246.613281 23283.960938
v 21047.169922 33186.113281 23294.330078
v 21159.179688 33326.148438 23312.625000
v 20895.880859 33251.570312 23285.361328
v 20903.228516 33365.382812 23294.855469
v 20971.679688 33193.468750 23286.572266
v 21118.595703 33357.328125 23307.007812
v 20925.992188 33456.406250 23309.562500
v 21005.798828 33365.832031 23298.542969
v 21083.714844 33445.058594 23311.679688
v 21141.740234 33533.035156 23338.544922
v 20754.673828 32815.312500 23301.218750
v 20864.169922 32880.281250 23296.421875
v 20979.210938 32875.800781 23321.441406
v 20551.533203 32932.984375 23307.681641
v 20462.044922 32915.886719 23335.517578
v 20515.138672 33007.046875 23320.972656
v 20581.828125 33124.574219 23311.681641
v 21083.851562 33096.113281 23301.281250
v 20663.326172 33223.519531 23299.576172
v 20560.970703 33284.332031 23334.527344
v 21157.363281 33124.351562 23320.406250
v 20741.767578 33235.082031 23285.767578
v 21190.441406 33216.679688 23323.341797
v 20840.308594 33377.152344 23297.375000
v 21201.806641 33432.453125 23333.164062
v 21299.683594 33349.777344 23360.466797
v 21264.568359 33442.097656 23356.078125
v 21177.371094 33490.613281 23335.917969
v 21036.958984 33471.347656 23311.751953
v 20873.339844 33574.054688 23345.462891
v 21015.136719 33550.269531 23334.951172
v 21266.583984 33604.835938 23384.458984
v 20952.257812 33620.738281 23359.480469
v 21184.880859 33629.515625 23375.669922
v 21088.093750 33578.000000 23346.097656
v 20472.609375 32727.007812 23365.572266
v 20816.189453 32810.421875 23309.298828
v 20549.503906 32824.160156 23324.521484
v 20553.023438 32748.966797 23341.933594
v 21039.781250 32776.175781 23358.986328
v 21080.244141 32892.957031 23339.341797
v 21212.707031 32908.429688 23373.031250
v 21221.007812 33035.375000 23352.671875
v 21314.884766 33148.468750 23367.886719
v 21313.095703 33252.589844 23361.474609
v 20651.332031 33317.726562 23316.679688
v 21347.287109 33393.222656 23383.220703
v 21418.296875 33293.996094 23416.753906
v 20715.166016 33394.875000 23317.662109
v 20798.527344 33505.847656 23331.289062
v 21301.490234 33663.292969 23412.724609
v 21014.187500 33724.878906 23398.734375
v 21126.421875 33742.832031 23410.492188
v 20826.085938 32574.300781 23385.910156
v 20775.062500 32619.167969 23367.566406
v 20657.021484 32649.466797 23360.714844
v 20675.808594 32800.046875 23308.156250
v 20716.255859 32689.992188 23344.230469
v 20823.714844 32704.902344 23344.626953
v 20893.146484 32773.902344 23332.994141
v 20431.029297 32688.853516 23394.320312
v 21191.878906 32805.046875 23391.042969
v 20403.503906 33009.164062 23363.250000
v 20400.210938 33118.292969 23372.689453
v 20456.035156 33125.718750 23349.369141
v 20481.873047 33387.601562 23378.677734
v 20639.857422 33433.265625 23342.843750
v 20512.320312 33460.835938 23384.099609
v 21406.007812 33455.203125 23418.695312
v 21375.691406 33532.324219 23411.146484
v 21355.322266 33614.152344 23418.167969
v 20896.126953 33702.445312 23391.697266
v 21276.443359 33740.234375 23432.304688
v 21350.113281 33723.324219 23445.710938
v 20965.306641 33771.863281 23417.265625
v 20994.691406 33863.832031 23468.546875
v 21089.005859 33804.964844 23438.392578
v 20757.738281 32314.074219 23474.746094
v 20654.390625 32412.347656 23427.984375
v 20892.677734 32469.068359 23428.476562
v 20711.033203 32546.884766 23388.332031
v 20929.574219 32613.250000 23386.488281
v 20594.980469 32581.335938 23388.869141
v 21056.685547 32637.380859 23399.726562
v 20392.162109 32818.894531 23367.234375
v 20378.984375 32855.851562 23366.796875
v 20349.591797 33063.757812 23392.367188
v 21387.011719 33177.785156 23401.708984
v 20411.093750 33298.367188 23388.892578
v 20491.316406 33303.988281 23360.867188
v 20633.644531 33567.800781 23381.175781
v 20776.962891 33663.820312 23386.503906
v 20804.162109 32422.822266 23433.314453
v 20931.869141 32353.695312 23483.695312
v 20563.324219 32379.423828 23447.527344
v 21088.376953 32454.736328 23470.095703
v 20528.324219 32474.402344 23431.419922
v 21048.246094 32534.572266 23433.212891
v 21110.748047 32411.183594 23492.408203
v 21178.470703 32553.408203 23454.019531
v 20506.910156 32591.207031 23404.490234
v 20462.671875 32502.548828 23442.666016
v 20368.939453 32696.246094 23420.064453
v 21283.386719 32662.839844 23446.578125
v 20324.027344 32776.863281 23422.144531
v 21203.931641 32678.888672 23424.912109
v 21303.265625 32770.671875 23430.960938
v 20336.593750 32955.085938 23395.224609
v 21302.025391 32892.359375 23408.933594
v 21377.216797 32872.675781 23438.054688
v 21386.103516 33017.902344 23422.718750
v 20298.492188 33060.125000 23421.115234
v 20348.634766 33193.214844 23403.439453
v 20358.271484 33327.437500 23411.339844
v 20328.914062 33508.433594 23450.900391
v 21470.777344 33569.031250 23483.541016
v 20519.519531 33556.164062 23406.156250
v 20698.042969 33593.875000 23376.054688
v 21422.349609 33661.632812 23462.580078
v 21389.847656 33719.875000 23466.179688
v 20639.650391 33715.742188 23430.009766
v 20847.080078 33773.195312 23423.900391
v 21211.914062 33810.925781 23449.027344
v 21143.582031 33889.011719 23494.603516
v 21245.300781 33847.976562 23490.496094
v 20845.878906 32295.375000 23496.029297
v 20670.044922 32293.566406 23480.695312
v 20964.591797 32279.781250 23527.589844
v 20615.101562 32278.794922 23492.708984
v 21213.839844 32449.804688 23493.017578
v 21322.796875 32517.681641 23486.199219
v 21466.593750 32559.832031 23498.656250
v 20410.070312 32597.033203 23433.816406
v 21293.812500 32588.941406 23463.228516
v 21536.216797 32585.478516 23509.554688
v 21426.123047 32665.816406 23475.523438
v 21557.675781 32729.359375 23506.095703
v 21434.876953 32800.847656 23464.699219
v 20269.347656 32760.128906 23458.109375
v 21357.851562 32728.611328 23451.304688
v 20277.224609 32903.675781 23436.083984
v 20221.812500 33034.382812 23466.398438
v 21460.025391 32957.964844 23461.921875
v 20169.843750 33112.304688 23499.150391
v 20205.617188 33150.667969 23475.035156
v 20137.794922 33127.828125 23528.287109
v 21445.367188 33135.558594 23440.367188
v 20100.888672 33215.527344 23568.828125
v 20127.037109 33312.687500 23533.710938
v 20170.287109 33267.953125 23500.511719
v 21480.750000 33220.656250 23457.814453
v 20232.605469 33289.539062 23464.533203
v 20182.796875 33404.023438 23499.453125
v 20257.919922 33363.761719 23457.947266
v 21461.566406 33359.187500 23446.111328
v 20230.714844 33498.152344 23483.509766
v 21456.763672 33516.562500 23459.023438
v 20422.964844 33536.312500 23428.136719
v 20536.050781 33644.746094 23427.896484
v 20450.666016 33765.695312 23486.578125
v 21342.509766 33778.390625 23471.496094
v 21245.652344 33885.667969 23531.144531
v 21100.644531 33882.488281 23484.158203
v 20485.306641 32218.943359 23554.744141
v 21133.169922 32342.785156 23526.490234
v 21367.941406 32394.941406 23536.482422
v 20450.476562 32410.347656 23474.000000
v 21384.306641 32484.728516 23504.837891
v 20402.666016 32452.017578 23479.412109
v 21594.007812 32596.585938 23532.505859
v 20314.253906 32639.177734 23463.578125
v 20159.132812 32751.074219 23527.455078
v 20242.556641 32641.720703 23496.892578
v 20208.476562 32803.355469 23485.175781
v 21658.324219 32752.580078 23559.875000
v 20102.722656 32879.808594 23588.378906
v 20139.728516 32863.324219 23532.802734
v 20192.943359 32904.613281 23488.609375
v 21561.199219 32842.218750 23509.361328
v 21504.685547 32848.351562 23485.000000
v 20157.955078 32992.996094 23513.958984
v 21558.201172 32960.468750 23508.451172
v 20113.035156 33031.503906 23564.224609
v 20084.824219 33022.117188 23615.154297
v 20074.703125 33122.371094 23625.205078
v 21523.693359 33060.136719 23489.177734
v 21538.716797 33184.187500 23498.359375
v 20111.167969 33351.273438 23542.316406
v 20128.792969 33500.218750 23533.027344
v 20079.195312 33453.757812 23568.439453
v 21525.357422 33268.015625 23492.121094
v 20159.964844 33562.003906 23521.562500
v 20096.544922 33553.578125 23551.617188
v 20217.710938 33608.292969 23506.421875
v 21477.583984 33627.792969 23511.402344
v 20160.333984 33669.695312 23534.462891
v 20282.644531 33664.371094 23497.769531
v 21487.421875 33672.605469 23561.318359
v 20397.431641 33690.699219 23472.837891
v 20340.193359 33747.789062 23506.123047
v 21331.476562 33849.449219 23549.333984
v 20553.291016 33798.578125 23478.535156
v 20514.572266 33888.582031 23524.638672
v 20709.953125 33770.144531 23439.638672
v 20720.951172 33850.863281 23476.435547
v 20868.177734 33937.054688 23513.722656
v 21056.652344 34013.742188 23583.435547
v 20594.093750 32145.503906 23572.369141
v 20739.664062 32148.634766 23565.617188
v 20933.068359 32210.335938 23561.562500
v 20457.539062 32336.478516 23505.443359
v 21202.595703 32300.619141 23562.837891
v 20346.804688 32354.285156 23544.253906
v 21289.785156 32336.441406 23554.712891
v 20304.212891 32482.250000 23516.343750
v 21651.082031 32651.664062 23557.203125
v 20229.507812 32512.347656 23547.937500
v 21698.029297 32531.421875 23588.607422
v 21744.937500 32664.996094 23615.736328
v 20193.255859 32672.591797 23518.716797
v 20126.068359 32763.050781 23564.349609
v 20108.707031 32741.167969 23598.992188
v 21689.572266 32856.578125 23583.343750
v 21735.886719 32801.632812 23612.164062
v 20073.822266 32891.937500 23652.607422
v 21715.386719 32942.371094 23606.773438
v 21698.320312 33085.171875 23617.664062
v 21624.435547 32944.843750 23547.683594
v 21657.830078 33070.273438 23580.812500
v 20044.695312 33328.140625 23629.082031
v 21583.322266 33166.773438 23531.818359
v 20074.753906 33344.160156 23581.609375
v 21546.597656 33358.511719 23521.583984
v 21561.876953 33424.085938 23550.964844
v 20054.808594 33602.222656 23587.341797
v 20098.837891 33674.164062 23564.382812
v 20344.634766 33862.511719 23543.830078
v 20869.060547 33854.843750 23462.740234
v 20625.335938 33961.964844 23545.689453
v 20751.060547 33965.847656 23537.746094
v 20957.937500 33962.800781 23532.232422
v 20627.242188 34057.976562 23595.974609
v 20833.103516 34022.707031 23571.757812
v 20546.082031 32185.890625 23556.128906
v 21089.083984 32274.572266 23558.097656
v 20331.675781 32258.449219 23595.115234
v 20407.685547 32269.343750 23555.978516
v 21548.437500 32375.427734 23574.843750
v 21569.886719 32447.283203 23554.294922
v 20277.500000 32372.205078 23570.763672
v 21645.089844 32473.197266 23572.814453
v 20141.166016 32604.970703 23586.742188
v 20177.382812 32559.097656 23568.666016
v 20112.744141 32623.023438 23620.796875
v 20056.390625 32867.921875 23710.068359
v 20049.623047 33134.269531 23686.742188
v 20060.296875 33230.265625 23632.304688
v 21605.601562 33236.417969 23558.097656
v 20037.818359 33489.480469 23609.431641
v 21523.218750 33553.093750 23541.388672
v 20112.935547 33762.128906 23576.619141
v 20173.046875 33827.769531 23574.177734
v 20467.751953 33958.355469 23559.771484
v 20524.433594 34040.054688 23591.992188
v 21126.134766 33996.839844 23591.187500
v 20990.142578 34029.488281 23585.675781
v 20721.810547 34043.949219 23587.386719
v 20712.119141 32076.175781 23620.570312
v 20438.503906 32185.386719 23590.144531
v 21098.064453 32234.111328 23602.896484
v 21324.689453 32310.826172 23581.757812
v 21465.843750 32326.109375 23589.953125
v 21578.554688 32347.732422 23600.880859
v 21665.572266 32418.427734 23595.591797
v 20173.349609 32422.626953 23620.654297
v 20125.662109 32471.605469 23656.675781
v 20105.445312 32567.582031 23663.472656
v 21734.226562 32556.005859 23622.826172
v 20085.603516 32662.974609 23700.423828
v 21770.886719 32742.281250 23640.408203
v 21744.416016 33017.171875 23642.238281
v 20056.914062 33025.328125 23690.123047
v 21727.306641 33131.296875 23664.492188
v 20029.984375 33218.355469 23715.226562
v 21614.269531 33361.867188 23596.402344
v 20023.988281 33651.406250 23625.882812
v 20032.326172 33718.710938 23621.251953
v 20091.906250 33828.031250 23615.335938
v 20053.767578 33786.843750 23626.015625
v 21428.818359 33752.984375 23548.933594
v 20058.593750 33863.183594 23683.845703
v 20019.523438 33787.390625 23684.251953
v 21402.046875 33895.085938 23723.998047
v 20145.640625 33916.039062 23635.984375
v 21206.767578 33956.714844 23592.304688
v 20290.318359 33934.250000 23584.601562
v 20251.794922 33957.437500 23609.990234
v 20259.679688 34017.277344 23647.130859
v 20833.007812 32098.757812 23620.732422
v 20843.199219 32137.451172 23583.990234
v 20977.250000 32191.460938 23589.341797
v 21214.175781 32272.794922 23595.716797
v 21342.845703 32289.552734 23610.562500
v 20199.437500 32281.699219 23677.250000
v 21703.199219 32465.718750 23620.476562
v 21733.421875 32538.052734 23673.074219
v 20099.755859 32533.654297 23704.359375
v 21751.269531 32572.826172 23649.183594
v 21779.552734 32699.949219 23655.148438
v 21778.091797 32845.656250 23657.423828
v 21659.212891 33237.433594 23615.777344
v 20025.568359 33417.226562 23638.705078
v 21538.664062 33593.304688 23587.373047
v 19993.406250 33780.128906 23799.410156
v 20357.642578 34022.234375 23611.455078
v 20277.201172 34054.976562 23677.478516
v 20480.494141 34065.226562 23615.892578
v 20402.888672 34119.582031 23680.503906
v 20653.404297 34119.492188 23638.890625
v 20763.304688 34113.722656 23636.251953
v 20368.521484 34120.875000 23701.082031
v 20606.179688 32065.023438 23642.906250
v 20287.853516 32178.892578 23679.812500
v 20377.195312 32164.832031 23639.437500
v 20246.828125 32313.001953 23618.582031
v 21027.451172 32185.837891 23638.351562
v 21180.376953 32248.328125 23626.400391
v 21376.244141 32289.863281 23631.822266
v 21357.265625 32299.630859 23674.498047
v 21486.843750 32308.884766 23622.291016
v 20115.970703 32399.115234 23729.167969
v 21514.232422 32347.025391 23658.171875
v 21499.296875 32418.699219 23736.710938
v 21639.412109 32404.962891 23631.970703
v 20090.152344 32533.757812 23786.966797
v 21716.644531 33260.156250 23700.544922
v 21611.560547 33448.292969 23625.669922
v 20007.003906 33581.851562 23663.597656
v 21602.136719 33628.996094 23738.953125
v 19983.904297 33726.742188 23774.296875
v 20050.003906 33904.187500 23805.773438
v 21238.146484 33993.378906 23671.630859
v 20188.810547 34005.386719 23686.046875
v 20566.152344 34110.281250 23639.066406
v 20893.056641 34077.507812 23614.283203
v 20500.062500 34160.378906 23695.138672
v 20643.609375 32040.566406 23679.167969
v 20730.548828 32044.820312 23676.955078
v 20517.812500 32105.603516 23623.294922
v 20869.056641 32100.074219 23663.546875
v 20418.451172 32061.013672 23716.333984
v 21001.542969 32166.076172 23681.572266
v 20936.851562 32145.781250 23621.230469
v 20200.212891 32213.281250 23727.593750
v 21124.283203 32221.001953 23651.474609
v 21240.179688 32262.265625 23663.046875
v 21248.097656 32281.044922 23705.898438
v 21428.935547 32363.027344 23717.498047
v 21774.314453 32630.568359 23697.054688
v 21806.361328 32735.093750 23721.064453
v 21802.412109 32954.289062 23713.988281
v 21786.421875 33068.449219 23721.736328
v 20006.355469 33379.144531 23696.453125
v 21613.095703 33539.644531 23677.708984
v 21535.841797 33702.046875 23687.636719
v 19984.363281 33673.671875 23730.164062
v 20103.425781 33964.394531 23776.914062
v 20098.298828 33928.464844 23692.535156
v 20910.474609 34116.421875 23650.060547
v 20311.441406 34121.382812 23748.861328
v 20559.935547 34191.839844 23713.949219
v 20570.482422 32007.937500 23744.447266
v 20636.066406 32028.474609 23737.046875
v 20466.500000 32050.587891 23703.296875
v 20795.464844 32072.212891 23703.250000
v 20760.896484 32098.707031 23783.652344
v 20221.388672 32155.289062 23770.693359
v 20150.095703 32290.658203 23733.755859
v 21130.900391 32231.615234 23700.085938
v 21008.953125 32189.427734 23731.759766
v 21667.517578 32475.953125 23677.500000
v 21730.583984 32632.095703 23788.115234
v 21762.675781 32620.341797 23729.783203
v 21832.816406 32902.363281 23756.380859
v 20040.769531 32875.425781 23796.148438
v 19991.560547 33505.996094 23707.435547
v 19970.601562 33544.710938 23806.488281
v 20023.949219 33844.777344 23776.466797
v 21164.560547 34056.796875 23700.011719
v 20492.388672 34211.000000 23759.001953
v 20465.779297 32002.658203 23782.324219
v 20309.265625 32068.332031 23792.414062
v 20650.652344 32049.343750 23782.941406
v 20764.095703 32143.875000 23847.031250
v 20978.953125 32211.328125 23788.447266
v 21122.019531 32265.228516 23765.197266
v 21264.873047 32322.363281 23755.234375
v 21155.882812 32318.607422 23815.548828
v 21294.876953 32419.191406 23852.150391
v 21613.798828 32469.324219 23714.019531
v 20059.658203 32782.640625 23743.373047
v 20033.349609 33073.343750 23779.492188
v 21849.728516 33067.535156 23807.281250
v 20016.808594 33179.210938 23799.488281
v 21740.667969 33331.863281 23768.226562
v 21687.707031 33413.562500 23732.697266
v 19986.621094 33408.257812 23776.074219
v 21485.660156 33779.050781 23689.775391
v 20087.273438 33968.644531 23838.816406
v 21304.373047 33986.289062 23732.519531
v 21254.632812 34063.855469 23789.371094
v 20166.332031 34027.375000 23781.019531
v 20991.130859 34126.242188 23684.373047
v 20550.546875 34264.121094 23815.023438
v 20381.111328 32022.185547 23827.138672
v 20041.291016 32933.648438 23775.957031
v 19999.839844 33247.921875 23848.212891
v 21685.039062 33508.828125 23792.523438
v 19962.246094 33643.300781 23849.792969
v 21542.224609 33763.906250 23779.992188
v 21037.462891 34202.183594 23800.201172
v 21097.449219 34136.207031 23755.351562
v 21172.779297 34154.031250 23832.169922
v 20872.083984 34197.417969 23729.697266
v 20735.322266 34206.253906 23721.878906
v 20563.093750 32016.654297 23784.042969
v 21776.447266 32672.369141 23785.048828
v 20064.888672 32708.171875 23798.216797
v 21809.419922 32718.617188 23770.357422
v 21848.279297 32837.230469 23811.380859
v 21862.742188 33133.300781 23848.181641
v 21833.822266 33267.691406 23868.351562
v 21658.662109 33603.781250 23824.398438
v 19967.105469 33758.722656 23914.154297
v 21517.164062 33836.132812 23829.035156
v 20012.832031 33869.859375 23869.902344
v 20263.750000 34103.445312 23784.441406
v 21253.349609 34150.843750 23898.345703
v 20687.898438 34273.460938 23799.544922
v 20774.234375 34269.496094 23793.689453
v 20639.271484 34287.953125 23824.218750
v 20946.953125 34256.929688 23826.046875
v 20571.179688 34299.132812 23871.509766
v 20271.880859 32081.705078 23839.974609
v 20182.208984 32194.437500 23784.480469
v 20139.654297 32267.625000 23816.732422
v 21020.919922 32281.312500 23854.097656
v 21087.339844 32355.203125 23904.734375
v 20104.769531 32372.748047 23890.498047
v 21407.480469 32494.679688 23868.117188
v 21577.714844 32518.162109 23787.271484
v 21833.369141 32804.457031 23847.191406
v 21873.173828 32890.125000 23864.525391
v 21863.068359 33003.605469 23814.023438
v 20015.582031 33109.867188 23879.779297
v 21608.091797 33697.941406 23825.681641
v 19987.597656 33820.964844 23887.740234
v 20123.408203 34020.351562 23886.261719
v 20170.314453 34059.179688 23884.824219
v 20456.777344 34215.843750 23797.210938
v 20741.089844 34373.410156 23929.076172
v 20645.636719 32185.757812 23979.031250
v 20964.853516 32337.041016 23966.800781
v 21300.648438 32534.042969 23982.140625
v 21664.941406 32636.771484 23848.597656
v 21534.607422 32675.630859 23986.816406
v 21808.830078 32789.609375 23872.560547
v 21873.988281 32895.941406 23906.042969
v 21870.375000 32928.265625 23828.451172
v 21917.154297 33043.054688 23899.355469
v 21918.281250 33173.117188 23949.199219
v 21801.818359 33382.023438 23889.792969
v 19949.542969 33691.796875 23981.308594
v 21584.322266 33778.218750 23873.876953
v 21410.914062 33995.531250 23880.816406
v 21132.552734 34254.285156 23917.904297
v 20666.806641 34365.000000 23932.292969
v 20868.517578 34353.410156 23919.019531
v 21015.369141 34306.320312 23911.085938
v 20326.917969 32063.818359 23924.250000
v 20620.382812 32080.224609 23854.421875
v 20092.369141 32416.431641 23952.439453
v 21211.494141 32456.460938 23948.560547
v 21468.716797 32620.126953 23968.279297
v 21616.054688 32744.945312 24003.822266
v 21724.697266 32800.222656 23974.003906
v 21757.656250 32709.785156 23848.875000
v 21793.591797 32828.011719 23937.925781
v 21922.835938 32964.085938 23945.900391
v 21943.742188 33146.656250 23997.013672
v 21830.072266 33552.164062 24049.259766
v 21740.130859 33485.371094 23865.927734
v 21714.757812 33599.054688 23914.572266
v 21657.902344 33709.230469 23922.679688
v 21562.957031 33876.058594 23951.248047
v 21338.058594 34045.683594 23857.531250
v 20470.089844 34253.937500 23872.142578
v 20797.996094 34342.023438 23888.669922
v 20430.720703 32010.302734 23840.630859
v 20205.347656 32127.517578 23894.443359
v 20143.644531 32233.949219 23900.439453
v 20784.603516 32239.996094 23962.673828
v 20124.701172 32291.451172 23897.603516
v 21846.042969 32874.332031 23928.148438
v 21917.222656 33010.109375 24009.785156
v 21933.609375 33015.632812 23948.039062
v 21613.048828 33814.355469 23958.718750
v 19976.302734 33854.671875 23999.511719
v 20264.621094 34137.218750 23916.519531
v 20354.791016 34194.339844 23897.445312
v 20484.957031 34303.812500 23989.529297
v 21052.525391 34324.453125 23961.160156
v 20585.453125 34332.039062 23931.515625
v 20395.730469 32054.222656 23919.968750
v 20267.320312 32090.687500 23919.986328
v 20518.539062 32048.328125 23869.261719
v 20169.992188 32171.429688 23896.564453
v 20175.160156 32178.107422 23984.945312
v 20026.609375 33010.250000 23885.341797
v 21679.644531 32837.781250 24061.509766
v 21761.154297 32867.796875 24019.894531
v 21845.027344 32937.890625 24015.425781
v 21935.306641 33289.671875 24043.947266
v 21732.025391 33736.343750 24054.207031
v 19950.359375 33784.289062 24024.876953
v 20092.755859 34018.300781 24003.642578
v 20605.990234 34390.066406 24069.111328
v 20314.292969 32100.234375 23978.564453
v 20355.437500 32136.423828 24033.250000
v 20133.457031 32261.388672 23984.232422
v 20921.671875 32385.068359 24072.308594
v 21109.173828 32449.984375 24012.699219
v 20075.250000 32577.216797 23929.474609
v 21338.642578 32636.589844 24085.359375
v 21821.800781 33008.078125 24136.636719
v 21952.882812 33285.140625 24099.517578
v 19990.347656 33257.394531 23957.894531
v 19953.951172 33525.730469 23974.396484
v 20005.806641 33898.890625 23970.244141
v 20056.148438 33969.910156 23980.025391
v 21490.257812 33985.636719 23976.429688
v 21213.476562 34239.003906 23975.746094
v 20412.501953 34271.421875 24043.814453
v 21151.568359 34307.332031 24026.527344
v 20934.095703 34377.199219 23981.972656
v 20774.923828 34419.519531 24030.843750
v 20873.660156 34403.074219 24010.755859
v 20231.039062 32134.722656 23990.015625
v 20252.054688 32188.109375 24097.337891
v 20509.960938 32161.929688 24020.460938
v 20111.166016 32328.595703 24006.917969
v 21149.753906 32515.132812 24072.904297
v 20044.380859 32799.597656 23905.554688
v 19987.781250 33232.351562 24079.070312
v 21892.917969 33027.597656 24072.652344
v 21941.656250 33087.777344 24055.093750
v 21954.632812 33141.933594 24035.771484
v 19946.462891 33616.679688 24004.517578
v 19939.863281 33719.277344 24040.242188
v 19944.066406 33815.921875 24154.599609
v 21642.158203 33871.503906 24055.164062
v 20311.900391 34199.898438 24036.636719
v 21079.507812 34381.445312 24097.996094
v 20899.253906 34479.523438 24209.570312
v 20742.636719 34448.828125 24125.421875
v 20305.382812 32175.673828 24095.765625
v 20198.234375 32198.882812 24071.857422
v 20147.037109 32263.849609 24087.500000
v 20602.845703 32231.468750 24073.179688
v 21021.769531 32485.228516 24143.166016
v 20024.771484 32985.054688 23964.869141
v 21497.271484 32741.380859 24096.876953
v 21950.619141 33134.726562 24111.859375
v 19945.333984 33520.902344 24093.052734
v 21715.445312 33898.492188 24168.996094
v 20013.351562 33947.171875 24116.433594
v 20079.310547 34026.386719 24113.396484
v 21233.664062 34319.351562 24140.984375
v 20789.085938 34449.839844 24108.970703
v 20130.486328 32320.564453 24128.220703
v 20783.986328 32306.720703 24062.433594
v 20060.103516 32684.373047 23999.039062
v 20033.972656 32885.250000 24052.771484
v 20017.820312 33009.769531 24088.929688
v 21957.693359 33228.300781 24104.085938
v 21902.566406 33304.554688 23989.773438
v 21873.796875 33473.648438 24060.263672
v 19926.460938 33714.562500 24160.230469
v 19982.808594 33925.359375 24207.775391
v 20020.113281 33988.714844 24232.324219
v 20122.396484 34054.753906 24034.789062
v 21325.531250 34234.867188 24107.136719
v 20980.589844 34410.800781 24081.880859
v 20415.628906 32150.582031 24041.435547
v 20472.708984 32234.199219 24146.400391
v 21580.927734 32808.378906 24113.277344
v 21951.322266 33217.785156 24175.552734
v 21961.511719 33282.695312 24174.830078
v 19950.789062 33429.738281 24181.054688
v 19930.230469 33665.902344 24124.537109
v 21807.029297 33648.457031 24086.130859
v 19936.046875 33764.578125 24121.253906
v 19954.632812 33864.242188 24194.914062
v 21631.189453 33986.816406 24154.542969
v 21553.130859 33970.640625 24041.281250
v 20157.105469 34109.101562 24160.285156
v 21331.849609 34163.320312 24003.074219
v 20368.841797 34274.535156 24220.937500
v 20099.197266 32396.347656 24062.058594
v 20047.138672 32792.460938 24096.890625
v 20038.031250 32878.429688 24296.798828
v 21849.748047 33124.800781 24239.662109
v 21898.972656 33152.695312 24207.111328
v 21933.201172 33190.972656 24193.222656
v 21950.431641 33406.742188 24161.589844
v 21926.421875 33451.117188 24135.169922
v 20089.976562 34059.718750 24207.777344
v 21532.394531 34077.414062 24139.367188
v 20238.525391 34160.773438 24100.251953
v 21471.205078 34121.886719 24121.529297
v 20708.296875 34457.515625 24206.000000
v 20864.535156 34495.414062 24247.029297
v 20168.425781 32288.990234 24192.435547
v 20093.603516 32505.123047 24141.937500
v 20078.621094 32559.712891 24048.419922
v 21926.421875 33561.199219 24201.234375
v 21869.261719 33625.257812 24154.935547
v 21834.490234 33731.531250 24178.558594
v 19918.992188 33750.000000 24291.431641
v 19932.982422 33827.710938 24277.914062
v 19957.248047 33915.632812 24314.720703
v 20156.677734 34127.781250 24254.785156
v 21413.253906 34180.625000 24131.558594
v 20236.941406 34195.593750 24270.740234
v 20518.054688 34355.160156 24132.203125
v 21278.662109 34342.371094 24229.662109
v 21064.703125 34443.425781 24216.423828
v 20642.804688 34424.687500 24173.841797
v 20245.966797 32253.585938 24201.167969
v 20303.849609 32262.957031 24228.195312
v 20513.720703 32298.812500 24232.921875
v 20113.691406 32417.548828 24167.933594
v 20800.701172 32362.345703 24139.031250
v 21233.718750 32679.689453 24247.699219
v 21963.404297 33327.851562 24254.058594
v 21934.740234 33263.937500 24282.910156
v 19984.779297 33200.765625 24269.873047
v 21970.234375 33369.992188 24227.884766
v 21946.416016 33506.277344 24207.636719
v 21968.128906 33441.078125 24231.923828
v 21911.210938 33664.847656 24235.828125
v 21799.160156 33818.687500 24198.062500
v 21684.007812 34015.164062 24239.757812
v 21502.656250 34184.250000 24237.492188
v 21395.394531 34250.894531 24212.152344
v 21199.136719 34393.679688 24240.914062
v 20576.917969 34387.242188 24125.894531
v 20935.494141 34455.425781 24161.886719
v 20135.330078 32420.337891 24246.773438
v 20168.351562 32392.279297 24272.746094
v 20650.697266 32329.388672 24201.361328
v 20823.539062 32412.263672 24206.041016
v 21014.255859 32524.595703 24215.929688
v 21528.732422 32894.351562 24277.572266
v 21736.027344 33075.984375 24310.070312
v 20014.849609 33023.511719 24220.714844
v 21987.531250 33477.207031 24301.542969
v 19919.044922 33818.054688 24346.578125
v 21330.466797 34289.625000 24200.306641
v 20696.910156 34467.949219 24295.734375
v 20363.173828 32230.449219 24176.824219
v 20615.544922 32383.814453 24320.468750
v 20095.193359 32573.968750 24245.001953
v 20801.648438 32476.648438 24347.982422
v 21628.390625 33022.902344 24353.839844
v 21809.460938 33163.492188 24337.248047
v 21884.683594 33244.292969 24341.753906
v 21955.070312 33344.464844 24332.443359
v 21979.958984 33407.351562 24310.179688
v 19928.552734 33574.292969 24212.333984
v 21950.917969 33630.433594 24275.945312
v 21971.976562 33798.191406 24384.587891
v 19899.140625 33796.046875 24451.228516
v 21902.607422 33865.917969 24340.132812
v 20111.441406 34112.761719 24401.804688
v 20664.406250 34463.574219 24361.287109
v 20818.994141 34495.812500 24256.369141
v 20253.947266 32332.718750 24293.830078
v 20367.250000 32304.248047 24282.242188
v 20571.863281 32413.615234 24394.445312
v 20703.085938 32407.517578 24303.386719
v 20065.417969 32686.480469 24126.484375
v 21909.902344 33357.945312 24453.222656
v 21926.921875 33311.773438 24361.513672
v 21986.138672 33440.035156 24411.884766
v 22001.714844 33562.585938 24347.898438
v 21971.669922 33549.570312 24279.531250
v 21899.605469 33777.929688 24282.720703
v 19928.886719 33883.933594 24400.767578
v 21850.486328 33942.328125 24341.982422
v 21376.882812 34330.304688 24308.855469
v 20349.927734 32346.718750 24333.437500
v 20450.300781 32318.828125 24289.656250
v 20213.011719 32362.902344 24291.970703
v 20119.371094 32506.648438 24267.824219
v 20085.517578 32661.435547 24277.199219
v 20892.478516 32538.427734 24365.685547
v 21961.242188 33413.773438 24441.554688
v 22008.376953 33513.707031 24371.335938
v 22009.492188 33700.980469 24397.103516
v 19944.386719 33935.113281 24433.587891
v 21603.796875 34111.535156 24256.320312
v 21595.636719 34194.570312 24340.593750
v 20401.238281 34304.125000 24295.531250
v 21160.175781 34441.613281 24293.695312
v 21115.000000 34485.953125 24341.308594
v 21009.628906 34490.882812 24282.921875
v 20842.156250 34542.734375 24403.904297
v 20947.875000 34544.277344 24384.134766
v 20417.695312 32344.859375 24336.921875
v 20245.464844 32418.939453 24356.244141
v 20159.027344 32498.847656 24333.544922
v 21412.699219 32800.445312 24255.873047
v 22023.332031 33525.343750 24434.605469
v 19908.833984 33682.402344 24355.435547
v 19977.923828 33979.246094 24407.783203
v 20030.242188 34031.488281 24358.726562
v 21824.580078 34014.050781 24377.376953
v 20534.302734 34393.765625 24367.730469
v 21275.240234 34432.898438 24370.330078
v 20789.591797 34540.582031 24478.292969
v 20766.312500 34497.910156 24312.394531
v 20006.480469 33078.230469 24348.203125
v 21819.064453 33251.878906 24444.767578
v 22038.031250 33628.578125 24441.570312
v 19953.716797 33977.375000 24492.121094
v 20018.339844 34033.210938 24449.896484
v 20081.658203 34079.773438 24346.046875
v 21753.546875 34133.742188 24422.056641
v 20386.238281 34300.968750 24376.144531
v 21497.390625 34249.578125 24315.322266
v 20319.654297 32380.927734 24359.878906
v 20507.085938 32411.285156 24410.101562
v 20298.812500 32440.626953 24404.406250
v 20251.078125 32504.714844 24425.962891
v 20200.107422 32445.671875 24342.927734
v 20128.117188 32583.960938 24344.117188
v 20151.917969 32588.746094 24386.675781
v 20058.039062 32811.292969 24329.578125
v 21729.001953 33140.328125 24401.492188
v 19893.394531 33807.945312 24520.687500
v 21940.703125 33886.234375 24408.617188
v 21536.505859 34315.375000 24421.712891
v 21433.398438 34391.433594 24432.744141
v 20627.855469 34458.378906 24484.472656
v 21195.789062 34492.468750 24404.048828
v 21100.558594 34535.562500 24421.671875
v 21125.589844 34590.015625 24518.703125
v 20904.976562 34562.761719 24434.876953
v 20378.333984 32475.794922 24465.757812
v 20417.621094 32445.648438 24449.804688
v 20448.560547 32409.589844 24413.779297
v 20715.740234 32467.955078 24405.828125
v 20183.171875 32588.466797 24425.917969
v 20107.152344 32630.263672 24329.707031
v 20927.246094 32636.740234 24484.691406
v 21100.638672 32742.095703 24481.228516
v 21386.218750 32918.378906 24455.160156
v 21525.468750 33050.847656 24499.066406
v 19979.033203 33207.156250 24459.136719
v 21712.515625 33239.292969 24553.619141
v 19955.013672 33320.359375 24375.894531
v 21991.349609 33482.566406 24503.046875
v 19895.064453 33712.675781 24488.869141
v 22014.125000 33781.011719 24459.189453
v 22032.009766 33762.515625 24526.742188
v 21978.923828 33881.929688 24499.000000
v 21923.851562 33985.640625 24509.271484
v 21861.523438 34047.785156 24466.937500
v 21807.121094 34102.042969 24450.166016
v 21676.900391 34245.996094 24462.666016
v 21019.869141 34548.613281 24410.316406
v 20953.564453 34576.390625 24456.611328
v 20315.662109 32511.046875 24467.025391
v 20136.652344 32705.152344 24449.679688
v 20078.095703 32791.773438 24397.843750
v 20031.980469 32958.917969 24361.210938
v 19923.779297 33486.636719 24361.400391
v 19910.046875 33590.632812 24376.742188
v 22041.820312 33605.246094 24553.488281
v 22042.689453 33690.199219 24473.648438
v 19904.527344 33871.238281 24497.505859
v 21873.128906 34066.234375 24534.667969
v 21812.828125 34161.093750 24555.708984
v 21825.623047 34146.097656 24525.699219
v 21756.863281 34231.863281 24545.410156
v 21736.941406 34238.421875 24514.876953
v 21327.664062 34477.687500 24465.792969
v 20510.449219 32517.955078 24530.460938
v 20590.652344 32468.855469 24469.734375
v 20435.234375 32559.207031 24549.484375
v 20378.410156 32552.951172 24526.300781
v 20791.937500 32537.140625 24457.134766
v 20296.339844 32590.101562 24511.757812
v 20166.882812 32734.236328 24507.472656
v 20290.365234 32686.572266 24574.242188
v 20103.314453 32763.779297 24438.335938
v 20062.615234 32898.718750 24446.408203
v 20028.195312 33030.417969 24475.287109
v 20003.789062 33112.656250 24454.689453
v 19904.232422 33540.488281 24548.167969
v 22050.460938 33667.375000 24547.845703
v 21935.593750 33963.664062 24558.988281
v 21968.164062 33905.746094 24553.408203
v 20058.761719 34068.050781 24506.730469
v 20164.335938 34152.996094 24428.623047
v 21862.236328 34048.816406 24613.595703
v 21700.734375 34310.304688 24587.814453
v 20368.316406 34289.945312 24470.003906
v 21650.087891 34347.257812 24538.785156
v 21687.240234 34323.890625 24556.478516
v 20748.480469 34533.976562 24556.666016
v 21204.472656 34528.039062 24462.966797
v 20685.376953 32556.152344 24535.779297
v 20225.837891 32643.679688 24499.904297
v 20365.269531 32651.916016 24593.220703
v 20219.724609 32763.126953 24575.521484
v 20124.876953 32865.382812 24556.048828
v 21152.652344 32825.390625 24553.527344
v 20052.847656 32975.519531 24512.953125
v 21218.859375 32931.109375 24646.501953
v 21633.099609 33149.781250 24520.478516
v 19950.923828 33304.734375 24495.876953
v 21839.644531 33329.398438 24516.800781
v 21858.279297 33392.371094 24581.107422
v 21932.779297 33454.058594 24561.482422
v 21973.033203 33588.449219 24636.027344
v 22040.226562 33696.894531 24572.363281
v 19902.279297 33902.863281 24553.921875
v 21988.285156 33832.937500 24576.996094
v 20225.675781 34189.367188 24522.257812
v 21702.373047 34287.382812 24625.251953
v 21544.646484 34413.089844 24531.136719
v 21619.291016 34404.074219 24597.240234
v 21399.583984 34536.531250 24575.562500
v 21565.191406 34442.703125 24583.259766
v 21277.167969 34578.015625 24563.251953
v 20886.419922 34592.812500 24530.583984
v 20542.613281 32497.388672 24511.558594
v 20516.177734 32632.808594 24616.701172
v 20714.984375 32511.644531 24472.320312
v 20881.511719 32658.369141 24554.234375
v 20241.996094 32881.117188 24673.912109
v 20091.568359 32891.210938 24521.292969
v 20005.613281 33124.503906 24539.601562
v 21973.851562 33534.367188 24594.578125
v 19904.378906 33703.816406 24591.449219
v 19912.294922 33783.375000 24598.314453
v 21980.675781 33783.035156 24623.058594
v 19935.751953 33808.273438 24631.232422
v 19938.222656 33971.109375 24561.496094
v 20029.386719 34037.851562 24561.748047
v 21828.677734 34011.867188 24712.904297
v 21769.740234 34187.996094 24622.826172
v 21735.951172 34165.210938 24710.648438
v 20544.125000 34405.613281 24566.449219
v 20567.019531 34422.675781 24535.681641
v 21476.537109 34519.238281 24600.880859
v 20574.382812 32622.039062 24613.486328
v 20644.980469 32594.173828 24583.904297
v 20366.283203 32742.966797 24650.400391
v 20989.283203 32760.958984 24609.492188
v 20164.052734 32874.460938 24606.082031
v 21114.892578 32858.000000 24635.732422
v 20077.308594 32974.164062 24584.347656
v 19978.541016 33205.609375 24573.609375
v 19918.822266 33447.472656 24515.669922
v 21756.882812 33297.355469 24578.601562
v 21820.927734 33461.476562 24715.687500
v 19920.402344 33681.582031 24653.646484
v 21974.500000 33706.656250 24655.003906
v 19947.107422 33919.152344 24607.802734
v 20124.515625 34091.214844 24594.050781
v 20113.156250 34100.148438 24553.402344
v 20335.986328 34263.074219 24536.855469
v 20457.337891 34348.945312 24551.441406
v 20634.441406 34455.167969 24631.382812
v 21596.566406 34398.929688 24650.556641
v 21549.767578 34471.304688 24616.013672
v 20798.128906 34559.914062 24641.398438
v 21512.531250 34488.824219 24652.070312
v 21213.400391 34652.792969 24634.294922
v 21348.541016 34599.433594 24622.460938
v 20986.130859 34664.441406 24645.617188
v 21050.814453 34658.718750 24609.623047
v 21431.175781 34563.304688 24640.990234
v 20493.126953 32695.445312 24657.941406
v 20844.849609 32697.337891 24624.781250
v 20435.867188 32712.111328 24655.128906
v 20291.455078 32766.257812 24627.839844
v 20043.724609 33052.113281 24596.527344
v 20009.546875 33135.269531 24606.726562
v 21878.041016 33508.816406 24696.609375
v 19901.437500 33628.085938 24579.625000
v 19915.902344 33601.207031 24667.738281
v 21975.623047 33637.375000 24650.033203
v 19977.677734 33845.164062 24660.625000
v 21923.125000 33938.546875 24624.007812
v 21869.279297 33963.554688 24687.138672
v 20088.677734 34007.886719 24650.349609
v 20003.919922 33984.535156 24610.248047
v 20244.687500 34104.894531 24693.482422
v 20138.191406 34080.468750 24623.302734
v 21664.929688 34190.976562 24771.546875
v 20250.904297 34191.878906 24585.857422
v 21672.568359 34280.535156 24680.228516
v 20365.396484 34276.945312 24577.896484
v 21571.843750 34385.359375 24690.054688
v 21487.962891 34449.757812 24707.128906
v 21432.253906 34490.023438 24715.349609
v 20871.097656 34604.132812 24614.341797
v 20926.628906 34636.476562 24662.089844
v 21130.128906 34697.261719 24680.833984
v 20630.484375 32644.734375 24629.548828
v 20709.015625 32723.871094 24690.511719
v 20027.748047 33119.484375 24651.505859
v 20087.716797 33044.128906 24664.509766
v 19968.882812 33216.097656 24660.103516
v 19909.128906 33469.464844 24602.822266
v 21761.755859 33415.335938 24732.822266
v 19907.587891 33493.140625 24656.855469
v 20031.751953 33795.066406 24733.312500
v 21914.570312 33732.855469 24747.693359
v 21942.361328 33845.097656 24658.753906
v 20116.681641 33986.671875 24687.095703
v 20296.804688 34210.984375 24617.289062
v 20335.005859 34206.503906 24670.042969
v 20424.220703 34304.382812 24631.992188
v 20529.574219 34368.468750 24656.871094
v 21376.871094 34573.625000 24684.320312
v 20820.082031 34551.726562 24692.070312
v 21258.041016 34658.687500 24679.105469
v 21013.166016 34673.351562 24692.136719
v 21081.533203 34706.027344 24698.537109
v 21200.607422 34655.191406 24709.433594
v 20587.328125 32709.050781 24680.343750
v 20864.642578 32770.531250 24693.068359
v 20615.976562 32803.648438 24753.197266
v 20522.023438 32869.144531 24780.919922
v 21040.925781 32856.015625 24691.486328
v 20450.511719 32874.765625 24764.957031
v 20305.134766 32882.402344 24709.740234
v 20201.517578 33001.109375 24728.962891
v 20007.566406 33182.003906 24700.642578
v 20071.738281 33139.375000 24735.306641
v 21579.324219 33242.925781 24708.082031
v 19929.900391 33366.390625 24611.751953
v 21685.837891 33331.882812 24710.246094
v 19913.457031 33544.308594 24694.376953
v 19945.023438 33654.855469 24701.773438
v 21910.570312 33672.789062 24748.214844
v 20050.113281 33922.859375 24678.136719
v 21763.009766 34061.742188 24767.285156
v 20390.535156 34168.289062 24749.859375
v 20339.216797 34189.253906 24692.757812
v 20508.841797 34246.496094 24769.835938
v 20486.863281 34286.796875 24716.546875
v 20590.552734 34343.503906 24743.275391
v 20624.535156 34416.671875 24689.597656
v 20749.929688 34472.093750 24729.119141
v 20756.134766 34528.269531 24663.931641
v 21343.285156 34471.550781 24781.937500
v 21285.808594 34579.406250 24729.373047
v 20914.941406 34597.078125 24709.218750
v 21173.441406 34515.789062 24815.150391
v 21116.169922 34645.281250 24732.433594
v 21054.392578 34638.488281 24731.414062
v 20695.839844 32805.046875 24758.035156
v 20752.517578 32687.085938 24648.896484
v 20948.214844 32795.148438 24677.623047
v 20156.972656 33107.773438 24776.720703
v 21369.042969 33073.394531 24696.482422
v 20151.681641 32995.605469 24688.277344
v 19968.320312 33246.371094 24707.080078
v 19932.392578 33353.816406 24712.244141
v 19920.345703 33404.101562 24700.888672
v 19940.142578 33435.460938 24765.498047
v 19986.660156 33689.312500 24737.802734
v 21860.439453 33564.761719 24764.177734
v 21893.562500 33618.128906 24752.500000
v 20075.972656 33709.996094 24803.511719
v 20376.328125 33961.496094 24885.201172
v 20284.878906 34054.023438 24759.554688
v 20439.375000 34143.925781 24802.279297
v 20609.070312 34195.691406 24880.816406
v 20602.287109 34290.343750 24798.371094
v 21472.667969 34358.480469 24796.550781
v 20790.679688 34367.804688 24852.955078
v 21294.775391 34436.863281 24834.916016
v 20833.576172 34507.980469 24747.939453
v 20910.269531 34543.546875 24756.882812
v 21163.566406 34620.015625 24743.447266
v 20994.912109 34615.613281 24732.078125
v 21005.447266 34541.746094 24794.759766
v 20829.207031 32813.824219 24746.613281
v 20955.962891 32879.925781 24769.517578
v 21045.388672 32936.925781 24788.345703
v 21135.429688 32941.656250 24736.564453
v 20377.810547 32912.617188 24762.984375
v 20425.863281 32997.792969 24839.673828
v 21237.656250 33070.335938 24814.705078
v 20283.691406 33040.531250 24803.847656
v 20314.669922 33105.515625 24867.169922
v 21343.744141 33156.496094 24827.212891
v 20016.619141 33217.515625 24749.583984
v 21449.835938 33188.710938 24770.269531
v 21617.125000 33334.949219 24792.726562
v 21664.347656 33409.601562 24838.722656
v 19964.726562 33574.417969 24759.052734
v 20032.953125 33651.722656 24792.205078
v 20137.166016 33812.621094 24801.917969
v 21817.046875 33867.902344 24837.085938
v 20602.164062 34128.437500 24925.394531
v 20705.097656 34332.312500 24830.716797
v 21375.500000 34391.128906 24833.398438
v 20925.992188 34430.085938 24865.539062
v 21240.158203 34500.785156 24805.558594
v 20788.382812 32840.671875 24778.582031
v 20606.619141 32941.988281 24847.873047
v 20070.183594 33199.296875 24785.316406
v 20164.464844 33168.464844 24826.986328
v 21473.312500 33268.429688 24853.226562
v 19969.306641 33321.121094 24771.437500
v 19996.113281 33365.644531 24817.160156
v 21763.896484 33503.488281 24834.351562
v 20046.748047 33533.085938 24839.593750
v 21832.275391 33672.781250 24867.808594
v 21842.714844 33790.835938 24838.742188
v 20243.023438 33875.378906 24843.296875
v 21814.660156 33903.457031 24818.140625
v 20441.449219 34025.738281 24891.613281
v 21559.884766 34293.507812 24782.214844
v 21250.218750 34418.765625 24868.113281
v 20988.896484 34427.250000 24889.218750
v 21109.529297 34558.453125 24792.541016
v 20917.033203 32896.445312 24798.587891
v 21108.814453 33015.753906 24841.074219
v 20374.154297 33099.976562 24889.820312
v 21390.107422 33235.761719 24889.429688
v 20041.228516 33263.984375 24815.673828
v 20003.294922 33457.035156 24819.882812
v 21691.812500 33524.242188 24947.617188
v 21658.390625 34068.097656 24880.632812
v 21561.486328 34156.039062 24898.373047
v 21460.960938 34226.121094 24915.476562
v 21040.492188 34486.539062 24848.382812
v 20791.337891 32965.679688 24881.587891
v 21238.402344 33137.457031 24885.765625
v 20188.189453 33207.746094 24864.947266
v 21287.259766 33164.585938 24886.328125
v 20076.419922 33319.335938 24862.802734
v 21817.884766 33603.050781 24858.869141
v 20888.169922 32951.289062 24854.804688
v 20711.812500 32963.867188 24878.292969
v 20423.382812 33133.628906 24925.535156
v 20499.136719 33073.167969 24912.035156
v 21527.576172 33370.171875 24938.406250
v 20131.792969 33598.707031 24882.781250
v 20126.414062 33672.757812 24856.285156
v 21818.632812 33736.183594 24886.333984
v 21356.941406 34218.964844 24985.128906
v 21307.507812 34313.449219 24931.990234
v 20840.050781 34337.421875 24908.207031
v 21079.226562 34427.382812 24899.472656
v 20888.546875 33046.046875 24928.755859
v 20612.621094 33034.777344 24911.402344
v 20284.412109 33207.859375 24910.087891
v 20218.359375 33292.257812 24917.099609
v 21299.720703 33218.691406 24940.626953
v 21404.009766 33320.609375 24991.781250
v 20181.142578 33355.343750 24922.212891
v 20046.416016 33360.792969 24857.294922
v 21632.419922 33476.371094 24962.763672
v 20163.205078 33522.160156 24919.218750
v 21751.099609 33566.261719 24918.585938
v 21742.941406 33609.945312 24958.455078
v 20351.095703 33784.960938 24948.382812
v 21773.560547 33674.277344 24943.751953
v 20238.261719 33771.640625 24891.523438
v 20359.746094 33850.171875 24927.646484
v 21715.748047 33867.976562 24963.843750
v 20520.562500 33948.617188 24976.392578
v 21649.167969 33959.570312 24979.710938
v 20768.341797 34250.589844 24937.158203
v 20920.560547 34298.746094 24968.398438
v 21097.093750 34269.363281 25024.400391
v 21138.591797 34431.714844 24889.878906
v 20854.806641 33104.402344 24973.361328
v 20594.945312 33119.363281 24952.603516
v 20692.898438 33072.281250 24941.734375
v 20786.878906 33060.054688 24942.109375
v 21057.529297 33059.976562 24904.976562
v 21139.621094 33141.777344 24943.185547
v 20500.652344 33163.109375 24955.988281
v 20564.533203 33226.125000 24999.314453
v 21205.820312 33169.000000 24940.853516
v 20342.210938 33236.613281 24945.373047
v 20136.509766 33453.640625 24909.158203
v 21511.246094 33447.453125 25049.390625
v 20274.980469 33513.546875 24975.541016
v 21731.662109 33772.378906 24989.888672
v 21702.654297 33932.843750 24939.306641
v 21539.187500 34104.417969 24961.394531
v 20768.484375 34112.125000 25033.951172
v 21252.257812 34249.585938 25007.894531
v 21015.519531 33105.804688 24955.626953
v 21070.753906 33158.804688 24980.937500
v 20927.986328 33178.808594 25012.054688
v 20697.542969 33143.421875 24982.273438
v 20733.019531 33205.953125 25015.070312
v 20432.480469 33262.437500 24981.253906
v 20550.763672 33309.386719 25027.248047
v 20427.230469 33324.906250 25002.712891
v 20248.201172 33428.808594 24965.318359
v 21621.640625 33544.648438 25049.152344
v 20242.736328 33646.894531 24934.917969
v 21660.376953 33601.167969 25049.179688
v 20344.347656 33701.562500 24971.005859
v 21702.544922 33642.683594 25019.121094
v 20498.878906 33869.636719 24997.845703
v 20886.546875 34225.781250 25009.382812
v 21201.941406 34304.417969 24979.720703
v 21156.328125 34180.617188 25091.232422
v 21026.576172 34339.109375 24965.312500
v 21005.105469 33179.609375 25009.103516
v 21165.347656 33210.871094 24996.529297
v 20996.724609 33257.945312 25054.673828
v 20873.050781 33231.914062 25038.619141
v 21267.148438 33246.500000 24991.181641
v 21334.755859 33318.433594 25029.933594
v 20844.960938 33317.515625 25077.228516
v 20743.402344 33336.820312 25069.804688
v 20310.109375 33358.207031 24977.564453
v 20635.076172 33401.175781 25071.136719
v 20296.125000 33399.656250 24980.193359
v 20425.105469 33518.574219 25033.789062
v 20495.246094 33476.617188 25052.605469
v 20367.636719 33560.398438 25009.216797
v 20380.033203 33631.988281 25004.330078
v 20606.865234 34041.042969 24981.697266
v 21423.464844 34077.437500 25064.861328
v 21117.378906 33245.671875 25035.974609
v 21034.105469 33349.906250 25110.441406
v 21090.031250 33308.015625 25083.871094
v 20934.076172 33315.761719 25085.560547
v 20897.240234 33418.296875 25129.376953
v 20807.572266 33462.210938 25129.273438
v 20547.916016 33436.425781 25060.218750
v 20516.937500 33582.562500 25068.130859
v 20474.056641 33615.179688 25049.023438
v 21693.589844 33725.445312 25039.560547
v 20590.990234 33680.289062 25094.302734
v 20502.048828 33729.203125 25042.708984
v 21678.306641 33840.894531 25022.191406
v 21604.617188 33945.011719 25030.031250
v 21517.291016 33938.980469 25104.613281
v 20708.812500 33945.734375 25085.548828
v 21521.720703 33978.820312 25074.851562
v 21372.449219 34055.742188 25113.933594
v 20863.992188 34148.328125 25059.421875
v 21278.560547 33361.601562 25101.328125
v 21248.824219 33303.269531 25051.921875
v 21187.380859 33349.531250 25107.859375
v 20975.464844 33398.343750 25132.269531
v 20675.156250 33504.847656 25109.785156
v 20609.410156 33609.503906 25104.111328
v 21627.437500 33636.316406 25100.373047
v 21658.111328 33751.394531 25073.736328
v 20518.242188 33803.281250 25031.890625
v 20751.833984 33783.398438 25158.378906
v 21197.279297 34192.468750 25075.888672
v 21057.353516 34216.585938 25061.951172
v 20978.121094 34198.488281 25059.294922
v 21176.248047 33394.429688 25143.285156
v 21281.339844 33446.656250 25172.744141
v 21347.105469 33415.679688 25124.335938
v 21420.123047 33422.847656 25090.292969
v 21048.816406 33543.277344 25220.890625
v 20918.320312 33522.097656 25179.408203
v 21534.218750 33521.625000 25110.089844
v 20634.494141 33549.222656 25106.707031
v 20838.048828 33561.703125 25171.841797
v 20722.289062 33664.167969 25155.599609
v 20790.169922 33730.730469 25186.755859
v 21564.339844 33811.320312 25131.675781
v 21540.953125 33866.132812 25127.027344
v 20746.429688 33852.964844 25137.390625
v 21436.324219 33959.632812 25147.812500
v 20813.369141 34026.843750 25105.939453
v 21304.324219 34093.839844 25115.576172
v 20959.730469 34062.867188 25148.248047
v 21467.750000 33485.015625 25125.003906
v 21557.591797 33589.964844 25141.914062
v 20793.035156 33611.429688 25172.460938
v 21530.085938 33734.492188 25184.947266
v 20892.007812 34064.296875 25121.470703
v 21241.697266 34052.203125 25168.326172
v 21386.929688 33511.757812 25205.289062
v 21449.519531 33607.773438 25223.841797
v 21553.296875 33694.437500 25169.531250
v 20822.488281 33675.328125 25197.652344
v 21411.066406 33869.679688 25205.972656
v 20891.660156 34004.539062 25156.546875
v 21315.615234 33986.703125 25188.345703
v 21070.908203 34050.320312 25183.662109
v 21123.500000 34073.226562 25170.603516
v 21162.242188 33450.031250 25182.845703
v 21338.439453 33496.835938 25209.589844
v 21544.437500 33641.386719 25169.000000
v 21477.519531 33779.000000 25204.279297
v 20903.328125 33769.261719 25234.582031
v 21035.882812 33989.242188 25213.058594
v 21164.167969 33999.500000 25212.689453
v 21448.326172 33526.984375 25182.863281
v 21111.349609 33501.335938 25211.699219
v 21418.820312 33665.835938 25256.703125
v 20957.085938 33835.195312 25247.494141
v 21376.318359 33852.417969 25231.394531
v 20886.576172 33923.984375 25187.109375
v 21209.515625 33543.554688 25243.667969
v 20932.382812 33674.898438 25237.236328
v 21383.976562 33738.777344 25260.298828
v 21038.419922 33774.835938 25287.857422
v 21018.089844 33865.558594 25262.003906
v 21286.457031 33876.468750 25252.398438
v 21039.476562 33932.085938 25244.447266
v 21101.814453 33920.250000 25266.220703
v 21218.548828 33899.792969 25257.277344
v 21255.886719 33517.183594 25229.693359
v 21416.156250 33583.929688 25229.845703
v 21298.517578 33633.031250 25286.669922
v 21138.718750 33628.527344 25273.740234
v 21346.417969 33690.636719 25280.359375
v 21042.675781 33686.507812 25276.277344
v 21278.542969 33767.804688 25291.755859
v 21152.791016 33754.972656 25313.224609
v 21112.189453 33832.562500 25297.128906
v 21177.695312 33825.101562 25295.314453
v 21218.035156 33685.437500 25307.056641
v 21231.937500 33716.000000 25309.740234
# 1260 vertices, 0 vertices normals

f 21 1 22
f 5 2 1
f 6 1 8
f 2 3 1
f 1 3 8
f 22 47 21
f 67 1 21
f 22 6 4
f 67 5 1
f 6 22 1
f 24 2 5
f 8 9 6
f 27 24 26
f 24 27 7
f 7 3 2
f 7 2 24
f 6 9 28
f 3 10 8
f 8 15 9
f 32 3 7
f 3 32 10
f 9 11 28
f 9 15 11
f 10 13 8
f 8 13 15
f 11 12 28
f 11 16 12
f 11 15 16
f 10 14 13
f 10 34 14
f 13 18 15
f 18 16 15
f 12 16 35
f 13 14 18
f 34 17 14
f 14 39 18
f 18 19 16
f 17 39 14
f 18 39 19
f 16 19 38
f 16 38 35
f 19 39 20
f 19 20 38
f 22 4 23
f 48 5 67
f 23 4 51
f 24 5 48
f 25 26 24
f 51 4 28
f 6 28 4
f 51 28 52
f 28 31 53
f 27 29 7
f 29 32 7
f 29 56 32
f 53 31 54
f 28 33 31
f 31 33 54
f 56 59 32
f 32 34 10
f 33 28 12
f 54 33 55
f 32 59 34
f 33 12 55
f 55 12 36
f 12 37 36
f 12 35 37
f 59 60 34
f 57 36 37
f 60 59 128
f 34 60 17
f 35 38 37
f 60 40 17
f 42 37 38
f 17 40 41
f 41 39 17
f 39 45 20
f 20 45 44
f 20 44 38
f 38 44 42
f 40 43 41
f 39 41 45
f 45 41 43
f 45 63 44
f 47 69 21
f 69 47 70
f 48 49 46
f 70 47 22
f 95 48 46
f 49 48 67
f 70 22 23
f 70 23 50
f 95 24 48
f 50 23 51
f 95 96 25
f 95 25 24
f 73 75 26
f 25 73 26
f 75 27 26
f 53 52 28
f 30 29 27
f 30 27 75
f 30 56 29
f 30 76 77
f 77 59 56
f 30 77 56
f 57 55 36
f 98 55 58
f 58 55 57
f 57 79 58
f 101 128 77
f 77 128 59
f 57 80 79
f 57 37 80
f 37 81 80
f 37 42 81
f 102 60 128
f 42 61 81
f 60 102 40
f 61 84 81
f 40 82 43
f 61 42 44
f 83 61 44
f 61 83 84
f 82 40 102
f 43 82 62
f 62 45 43
f 63 45 62
f 83 44 133
f 44 63 133
f 85 62 82
f 62 87 63
f 63 87 133
f 62 85 87
f 69 64 65
f 111 49 93
f 93 49 66
f 66 67 68
f 68 69 65
f 69 70 92
f 70 94 92
f 66 49 67
f 68 67 21
f 68 21 69
f 70 50 94
f 71 95 46
f 50 51 72
f 73 25 96
f 72 51 52
f 75 73 74
f 52 53 119
f 54 119 53
f 100 75 99
f 100 30 75
f 76 30 100
f 54 55 98
f 76 78 77
f 165 58 79
f 77 78 101
f 167 79 80
f 84 130 81
f 102 132 82
f 83 133 84
f 85 82 132
f 85 86 87
f 87 134 133
f 137 89 88
f 88 89 103
f 89 91 103
f 103 91 64
f 103 64 90
f 107 93 105
f 105 93 89
f 89 93 91
f 90 92 108
f 90 64 92
f 107 111 93
f 91 65 64
f 108 92 94
f 91 66 68
f 93 66 91
f 91 68 65
f 64 69 92
f 111 71 46
f 111 46 49
f 116 94 50
f 72 116 50
f 118 73 96
f 97 74 73
f 97 73 118
f 97 123 74
f 123 99 74
f 99 75 74
f 99 124 76
f 99 76 100
f 125 168 78
f 168 127 78
f 127 101 78
f 79 167 165
f 169 101 127
f 81 129 80
f 129 167 80
f 101 169 128
f 130 129 81
f 214 132 102
f 248 85 132
f 86 85 248
f 173 87 86
f 87 173 134
f 136 88 104
f 139 105 137
f 105 89 137
f 88 103 104
f 103 90 104
f 104 90 106
f 177 107 105
f 106 90 108
f 106 110 109
f 106 108 110
f 177 112 107
f 110 144 141
f 112 111 107
f 110 108 94
f 112 143 111
f 143 71 111
f 110 114 144
f 110 116 114
f 110 94 116
f 143 113 71
f 95 71 113
f 115 95 113
f 115 96 95
f 116 117 114
f 116 72 117
f 115 151 96
f 151 118 96
f 72 119 117
f 117 119 120
f 52 119 72
f 118 151 122
f 118 122 97
f 54 121 119
f 120 119 121
f 122 123 97
f 54 98 121
f 124 99 123
f 124 123 164
f 157 98 58
f 125 76 124
f 125 78 76
f 161 58 165
f 127 168 169
f 167 129 126
f 131 169 170
f 169 131 128
f 131 102 128
f 131 214 102
f 84 171 130
f 171 84 133
f 214 215 132
f 135 171 133
f 248 132 215
f 138 136 104
f 104 109 138
f 109 104 106
f 109 175 138
f 175 109 140
f 179 112 177
f 109 110 140
f 140 141 178
f 140 178 176
f 110 141 140
f 141 142 178
f 141 144 142
f 142 146 145
f 179 143 112
f 181 143 179
f 181 113 143
f 142 144 114
f 142 114 146
f 146 148 145
f 145 148 147
f 183 149 181
f 115 113 181
f 184 149 183
f 149 115 181
f 146 114 150
f 150 114 117
f 146 150 148
f 184 151 149
f 149 151 115
f 148 190 147
f 150 117 120
f 189 147 190
f 151 184 188
f 150 120 148
f 152 151 188
f 152 188 191
f 152 122 151
f 154 152 191
f 120 153 148
f 148 153 190
f 156 154 191
f 153 196 190
f 192 190 196
f 121 153 120
f 152 155 122
f 154 155 152
f 121 157 153
f 156 160 154
f 154 160 155
f 153 157 196
f 156 193 158
f 160 162 155
f 162 123 122
f 162 122 155
f 156 158 159
f 156 159 160
f 98 157 121
f 242 198 159
f 242 159 158
f 162 164 123
f 159 163 160
f 159 198 163
f 160 163 162
f 157 58 161
f 162 163 164
f 166 164 163
f 124 164 166
f 166 125 124
f 125 207 168
f 126 205 270
f 205 126 129
f 209 168 207
f 168 209 169
f 209 170 169
f 170 212 131
f 131 212 214
f 134 135 133
f 135 172 171
f 216 86 248
f 251 86 216
f 251 173 86
f 137 219 139
f 137 88 219
f 219 88 136
f 310 219 136
f 138 310 136
f 254 174 139
f 174 105 139
f 174 221 105
f 221 177 105
f 176 175 140
f 178 142 259
f 259 145 261
f 259 142 145
f 145 180 261
f 183 181 225
f 225 181 179
f 145 147 180
f 180 147 226
f 182 184 230
f 230 184 183
f 182 231 187
f 187 231 186
f 182 187 184
f 226 147 185
f 147 189 185
f 238 185 189
f 187 188 184
f 192 189 190
f 189 192 238
f 187 191 188
f 187 186 193
f 193 186 194
f 191 193 156
f 187 193 191
f 195 193 194
f 195 158 193
f 157 161 196
f 161 197 196
f 238 196 241
f 241 196 197
f 267 158 195
f 242 158 267
f 197 201 241
f 161 201 197
f 198 242 200
f 198 200 199
f 198 199 163
f 166 163 199
f 161 165 201
f 200 203 199
f 199 203 202
f 199 202 166
f 126 244 167
f 206 202 203
f 126 270 244
f 202 204 166
f 166 204 125
f 202 206 204
f 204 207 125
f 206 207 204
f 208 205 129
f 207 210 209
f 129 130 208
f 208 130 300
f 210 170 209
f 130 171 300
f 300 171 211
f 170 213 212
f 171 172 211
f 213 214 212
f 217 173 251
f 134 173 217
f 135 134 275
f 275 172 135
f 214 213 215
f 248 215 250
f 217 275 134
f 219 278 218
f 254 139 218
f 218 139 219
f 138 220 310
f 257 221 174
f 138 255 220
f 255 138 175
f 257 223 221
f 255 175 222
f 222 175 224
f 223 177 221
f 176 178 258
f 259 258 178
f 223 225 179
f 179 177 223
f 180 228 261
f 225 227 183
f 228 180 226
f 227 263 230
f 230 263 262
f 230 183 227
f 226 229 228
f 226 185 229
f 262 264 232
f 262 182 230
f 185 234 229
f 290 229 234
f 262 232 231
f 262 231 182
f 185 233 234
f 232 186 231
f 235 186 232
f 238 233 185
f 233 236 234
f 238 236 233
f 236 239 237
f 236 238 239
f 235 194 186
f 292 194 235
f 196 238 192
f 292 195 194
f 266 195 292
f 239 238 241
f 266 267 195
f 267 240 242
f 269 200 242
f 269 245 200
f 200 245 203
f 165 243 201
f 167 244 243
f 167 243 165
f 203 245 246
f 206 203 246
f 246 271 206
f 272 206 271
f 206 272 207
f 272 210 207
f 272 247 210
f 247 170 210
f 213 170 247
f 247 273 213
f 275 305 172
f 213 273 249
f 249 215 213
f 250 215 249
f 217 251 276
f 216 248 250
f 249 252 277
f 249 277 250
f 250 277 253
f 250 253 216
f 216 253 251
f 254 279 174
f 311 310 220
f 279 257 174
f 255 311 220
f 223 256 260
f 256 223 257
f 259 284 258
f 224 175 176
f 282 224 176
f 282 176 258
f 260 225 223
f 284 259 261
f 260 285 227
f 260 227 225
f 262 263 285
f 285 263 227
f 262 286 264
f 232 264 265
f 265 235 232
f 236 291 234
f 237 291 236
f 265 292 235
f 237 239 268
f 294 267 266
f 241 268 239
f 201 268 241
f 243 268 201
f 322 242 240
f 322 269 242
f 269 296 245
f 205 323 270
f 246 245 297
f 271 246 297
f 208 323 205
f 299 271 297
f 298 271 299
f 298 272 271
f 298 304 272
f 272 306 247
f 306 272 307
f 247 306 273
f 172 305 211
f 306 325 273
f 274 249 273
f 274 252 249
f 253 355 251
f 251 355 276
f 277 330 253
f 253 330 355
f 254 218 359
f 279 254 359
f 279 256 257
f 280 311 255
f 222 280 255
f 312 280 222
f 282 283 340
f 282 258 283
f 335 260 256
f 222 224 281
f 281 224 282
f 284 283 258
f 284 261 228
f 315 284 228
f 285 260 335
f 286 262 285
f 315 228 288
f 287 264 286
f 229 288 228
f 319 288 229
f 229 290 319
f 289 264 287
f 287 317 289
f 289 265 264
f 411 265 289
f 234 320 290
f 291 320 234
f 293 291 237
f 293 237 321
f 268 321 237
f 295 321 268
f 373 240 267
f 294 373 267
f 243 295 268
f 244 295 243
f 347 295 244
f 270 347 244
f 270 323 347
f 348 296 269
f 348 269 322
f 296 297 245
f 300 375 208
f 302 299 297
f 301 299 302
f 301 298 299
f 211 303 300
f 211 420 303
f 378 298 301
f 298 378 304
f 304 307 272
f 308 307 304
f 353 304 378
f 353 308 304
f 211 305 352
f 326 308 353
f 306 307 325
f 273 327 274
f 273 325 327
f 307 308 325
f 329 277 252
f 308 328 325
f 329 330 277
f 309 278 219
f 309 219 310
f 218 332 359
f 332 218 278
f 363 310 311
f 256 279 334
f 282 340 338
f 335 256 333
f 337 280 312
f 282 338 313
f 312 222 281
f 312 281 313
f 313 281 282
f 342 340 283
f 344 342 283
f 284 344 283
f 314 388 285
f 314 285 335
f 341 286 388
f 286 285 388
f 315 344 284
f 317 286 341
f 317 287 286
f 288 318 315
f 316 315 318
f 319 318 288
f 345 289 317
f 438 289 345
f 319 290 320
f 438 411 289
f 412 266 292
f 293 321 346
f 373 322 240
f 323 374 347
f 322 396 348
f 373 396 322
f 348 376 296
f 376 297 296
f 375 300 418
f 302 297 376
f 418 300 303
f 324 398 302
f 302 398 301
f 217 423 275
f 276 423 217
f 276 355 379
f 423 276 379
f 326 328 308
f 326 331 328
f 327 325 328
f 327 354 274
f 274 354 252
f 334 279 359
f 310 363 309
f 364 335 333
f 314 335 364
f 333 256 334
f 336 363 311
f 336 311 280
f 337 365 280
f 280 365 336
f 313 366 337
f 313 338 366
f 337 312 313
f 340 339 338
f 314 364 388
f 342 339 340
f 342 410 343
f 344 410 342
f 410 344 391
f 391 344 315
f 345 317 341
f 315 316 391
f 318 369 316
f 319 370 318
f 320 394 319
f 371 394 320
f 291 371 320
f 372 371 291
f 395 265 411
f 426 265 395
f 426 292 265
f 412 292 426
f 372 291 293
f 294 266 412
f 295 346 321
f 295 347 346
f 349 374 323
f 376 348 396
f 208 349 323
f 375 349 208
f 350 302 376
f 350 324 302
f 351 378 398
f 398 378 301
f 352 420 211
f 352 305 399
f 378 422 353
f 305 275 399
f 380 326 353
f 326 380 331
f 356 354 327
f 356 327 328
f 329 252 354
f 356 381 354
f 354 381 329
f 330 379 355
f 435 379 330
f 328 331 400
f 328 400 356
f 357 278 358
f 309 358 278
f 332 384 359
f 357 332 278
f 358 309 360
f 333 334 361
f 384 361 359
f 361 334 359
f 363 360 309
f 364 333 387
f 360 336 362
f 360 363 336
f 362 336 365
f 366 365 337
f 366 389 365
f 338 339 366
f 367 389 366
f 367 366 339
f 407 367 339
f 339 368 407
f 342 368 339
f 343 368 342
f 461 343 410
f 391 316 393
f 369 393 316
f 370 369 318
f 370 319 394
f 372 413 371
f 414 294 412
f 293 346 372
f 346 347 416
f 351 377 378
f 353 422 447
f 423 432 275
f 399 275 432
f 423 431 432
f 447 380 353
f 435 330 329
f 380 470 331
f 400 331 470
f 381 435 329
f 401 384 382
f 401 361 384
f 382 384 332
f 383 382 357
f 382 332 357
f 383 357 358
f 385 383 358
f 360 385 358
f 362 385 360
f 402 333 361
f 387 333 402
f 386 385 390
f 390 385 362
f 365 389 362
f 389 390 362
f 387 455 364
f 455 388 364
f 390 389 406
f 406 389 367
f 406 367 407
f 407 368 409
f 409 368 343
f 410 391 392
f 392 391 393
f 369 439 393
f 543 438 345
f 370 439 369
f 394 479 370
f 371 464 394
f 413 372 441
f 346 441 372
f 414 373 294
f 417 373 414
f 416 415 346
f 374 416 347
f 417 396 373
f 396 397 376
f 430 375 418
f 429 350 376
f 398 446 351
f 351 419 377
f 378 377 422
f 421 352 399
f 352 421 420
f 379 434 423
f 435 434 379
f 356 400 381
f 382 436 401
f 402 361 401
f 382 383 436
f 385 403 383
f 386 403 385
f 405 386 390
f 406 457 405
f 390 406 405
f 408 407 409
f 543 345 492
f 392 393 437
f 439 370 440
f 440 370 479
f 464 479 394
f 371 413 464
f 346 442 441
f 415 442 346
f 428 416 374
f 397 396 417
f 429 376 397
f 429 444 350
f 444 324 350
f 467 398 324
f 467 446 398
f 351 446 549
f 549 419 351
f 422 377 419
f 434 435 450
f 381 400 424
f 425 402 401
f 526 436 403
f 436 383 403
f 403 386 491
f 454 387 402
f 491 386 404
f 405 404 386
f 456 341 388
f 405 457 404
f 408 457 406
f 406 407 408
f 345 341 459
f 343 460 409
f 461 460 343
f 475 461 410
f 439 437 393
f 438 395 411
f 427 417 414
f 374 443 428
f 349 443 374
f 418 445 430
f 444 467 324
f 422 419 468
f 422 469 447
f 421 433 448
f 421 399 433
f 433 399 432
f 449 435 381
f 434 452 423
f 423 452 431
f 520 380 447
f 451 449 381
f 435 449 450
f 400 470 424
f 451 381 424
f 401 509 425
f 402 425 454
f 526 403 491
f 510 455 387
f 387 454 510
f 456 388 455
f 456 459 341
f 492 345 459
f 410 392 475
f 439 462 437
f 480 464 413
f 465 414 412
f 413 441 480
f 465 427 414
f 502 416 428
f 548 397 417
f 428 503 502
f 443 503 428
f 375 466 349
f 466 443 349
f 430 466 375
f 483 444 429
f 466 430 484
f 484 430 445
f 303 445 418
f 419 549 550
f 420 506 303
f 506 485 303
f 469 422 468
f 431 486 432
f 486 433 432
f 489 486 431
f 433 486 448
f 520 507 380
f 507 470 380
f 489 431 452
f 452 434 450
f 449 471 450
f 450 471 508
f 508 488 450
f 450 488 452
f 424 453 451
f 509 401 436
f 509 436 526
f 510 527 455
f 408 458 457
f 409 458 408
f 460 493 409
f 461 494 460
f 475 494 461
f 392 497 475
f 497 392 437
f 462 497 437
f 497 462 477
f 440 462 439
f 440 463 462
f 479 463 440
f 529 412 426
f 529 465 412
f 480 441 481
f 465 547 427
f 427 547 548
f 548 417 427
f 415 482 442
f 416 482 415
f 502 482 416
f 548 429 397
f 466 504 443
f 444 535 467
f 518 549 446
f 467 518 446
f 445 303 485
f 419 550 468
f 420 421 506
f 448 506 421
f 469 519 447
f 519 520 447
f 489 522 486
f 470 453 424
f 451 471 449
f 451 487 471
f 453 487 451
f 487 453 523
f 452 488 489
f 527 456 455
f 472 491 404
f 404 512 472
f 457 512 404
f 513 459 456
f 473 512 457
f 458 473 457
f 473 458 493
f 493 458 409
f 460 474 493
f 474 460 494
f 476 494 475
f 497 477 498
f 395 438 563
f 477 462 478
f 463 478 462
f 516 479 480
f 479 464 480
f 442 481 441
f 596 481 442
f 568 429 548
f 443 504 503
f 568 483 429
f 484 504 466
f 504 484 517
f 483 569 535
f 444 483 535
f 445 505 484
f 535 518 467
f 445 551 505
f 550 536 468
f 536 469 468
f 520 521 507
f 507 453 470
f 507 523 453
f 425 509 490
f 454 425 525
f 527 511 456
f 511 513 456
f 542 473 493
f 542 493 474
f 543 563 438
f 476 475 495
f 497 495 475
f 496 495 497
f 498 496 497
f 478 514 477
f 477 514 498
f 478 463 499
f 479 516 499
f 479 499 463
f 480 500 516
f 500 480 481
f 584 548 547
f 484 505 517
f 485 551 445
f 469 536 601
f 522 554 486
f 507 521 523
f 488 555 489
f 489 555 522
f 524 490 509
f 525 425 490
f 454 525 510
f 472 526 491
f 540 513 511
f 513 540 561
f 561 459 513
f 562 542 474
f 531 496 498
f 514 532 498
f 499 514 478
f 499 532 514
f 581 465 529
f 499 516 515
f 515 516 566
f 500 567 516
f 482 596 442
f 584 547 564
f 502 597 482
f 502 501 597
f 584 568 548
f 534 504 517
f 506 617 485
f 448 617 506
f 617 448 552
f 552 448 486
f 521 537 523
f 471 488 508
f 487 523 537
f 488 471 557
f 557 555 488
f 471 487 556
f 526 524 509
f 527 510 528
f 524 526 604
f 604 526 560
f 472 560 526
f 527 540 511
f 528 540 527
f 579 472 512
f 591 512 473
f 541 591 473
f 542 541 473
f 561 492 459
f 544 562 474
f 544 474 494
f 476 544 494
f 582 544 476
f 476 495 582
f 582 495 606
f 563 581 395
f 581 426 395
f 529 426 581
f 530 495 496
f 496 531 530
f 498 532 531
f 515 532 499
f 564 547 465
f 533 481 596
f 504 534 503
f 601 629 469
f 520 519 572
f 572 553 520
f 521 520 553
f 486 554 552
f 573 554 522
f 557 471 556
f 522 555 603
f 537 575 487
f 487 575 556
f 538 490 524
f 539 538 524
f 558 510 525
f 525 490 558
f 604 539 524
f 591 579 512
f 592 563 543
f 606 495 530
f 545 531 532
f 515 565 532
f 532 565 545
f 564 465 581
f 566 565 515
f 567 566 516
f 481 533 500
f 533 546 500
f 546 567 500
f 482 597 596
f 610 483 568
f 569 483 610
f 612 535 569
f 570 535 612
f 570 518 535
f 505 571 517
f 469 629 519
f 519 629 572
f 490 538 558
f 528 510 558
f 577 558 559
f 559 558 538
f 559 538 576
f 576 538 539
f 528 558 577
f 579 560 472
f 578 540 528
f 578 561 540
f 619 492 561
f 562 541 542
f 567 583 566
f 567 546 595
f 610 568 584
f 534 611 503
f 571 534 517
f 536 550 587
f 505 615 571
f 601 536 587
f 615 505 551
f 630 485 617
f 551 485 630
f 537 521 667
f 575 537 648
f 574 556 589
f 557 556 574
f 556 575 589
f 578 528 577
f 653 591 541
f 635 492 619
f 580 541 562
f 635 543 492
f 593 581 563
f 674 606 530
f 622 545 565
f 623 622 565
f 583 623 565
f 583 565 566
f 595 583 567
f 503 501 502
f 611 501 503
f 610 598 569
f 598 612 569
f 571 585 534
f 518 613 599
f 570 613 518
f 599 586 549
f 518 599 549
f 586 550 549
f 586 587 550
f 601 587 616
f 552 554 588
f 645 521 553
f 557 574 668
f 557 668 555
f 603 555 668
f 648 631 575
f 681 576 539
f 605 604 560
f 590 561 578
f 590 619 561
f 580 672 541
f 594 581 593
f 594 564 581
f 607 624 583
f 583 595 607
f 607 595 608
f 609 584 564
f 534 585 662
f 599 600 586
f 586 600 587
f 615 614 571
f 616 587 627
f 629 644 553
f 629 553 572
f 552 602 617
f 588 602 552
f 554 573 666
f 603 573 522
f 667 648 537
f 649 559 576
f 649 576 650
f 650 576 681
f 604 681 539
f 605 560 579
f 653 671 591
f 672 653 541
f 635 592 543
f 544 580 562
f 592 620 563
f 702 620 592
f 620 593 563
f 606 733 582
f 676 594 593
f 545 685 531
f 676 564 594
f 623 583 624
f 546 608 595
f 609 564 657
f 626 533 596
f 597 626 596
f 690 584 609
f 690 610 584
f 611 637 501
f 639 570 612
f 641 599 613
f 600 627 587
f 551 628 615
f 629 601 616
f 630 628 551
f 618 645 553
f 554 666 588
f 647 666 573
f 645 667 521
f 649 633 577
f 649 577 559
f 681 604 605
f 633 578 577
f 633 590 578
f 651 605 579
f 651 579 671
f 671 579 591
f 702 592 635
f 654 580 544
f 733 544 582
f 621 593 620
f 674 733 606
f 621 676 593
f 685 530 531
f 607 656 624
f 546 658 608
f 533 625 546
f 626 625 533
f 637 597 501
f 637 611 638
f 662 638 534
f 534 638 611
f 598 639 612
f 640 613 570
f 640 641 613
f 614 585 571
f 614 615 628
f 643 630 617
f 602 643 617
f 644 618 553
f 602 588 679
f 573 603 647
f 631 697 575
f 697 589 575
f 589 632 574
f 589 697 632
f 651 681 605
f 652 634 619
f 590 652 619
f 634 635 619
f 634 702 635
f 733 654 544
f 702 621 620
f 530 685 674
f 675 685 545
f 656 623 624
f 658 655 608
f 655 607 608
f 607 655 656
f 625 660 546
f 660 658 546
f 597 636 626
f 637 636 597
f 678 641 640
f 600 599 641
f 628 722 614
f 616 627 642
f 616 642 629
f 628 630 664
f 642 644 629
f 602 665 643
f 665 602 679
f 588 646 679
f 588 666 646
f 670 669 633
f 669 590 633
f 652 590 669
f 684 672 580
f 684 580 673
f 683 702 634
f 686 545 622
f 623 687 622
f 657 564 676
f 743 657 676
f 625 659 660
f 626 659 625
f 636 659 626
f 661 636 637
f 708 637 638
f 708 638 662
f 639 640 570
f 678 640 639
f 709 641 678
f 710 662 585
f 585 614 663
f 737 627 600
f 614 722 663
f 628 664 722
f 664 630 643
f 667 696 648
f 603 668 647
f 649 698 633
f 649 650 698
f 633 698 714
f 633 714 670
f 701 671 653
f 672 701 653
f 683 634 652
f 673 717 684
f 656 688 704
f 656 655 688
f 677 689 658
f 689 655 658
f 689 688 655
f 657 782 609
f 660 677 658
f 707 660 659
f 659 636 707
f 799 610 690
f 598 610 735
f 708 661 637
f 735 639 598
f 694 708 662
f 662 710 694
f 736 600 641
f 600 736 737
f 710 585 663
f 627 748 642
f 644 642 695
f 643 665 664
f 665 751 664
f 751 665 711
f 665 679 711
f 645 618 724
f 645 739 667
f 666 647 725
f 739 696 667
f 647 727 726
f 647 726 725
f 648 696 680
f 647 668 727
f 648 680 631
f 668 574 727
f 631 742 697
f 680 742 631
f 712 698 650
f 712 650 699
f 681 699 650
f 713 681 651
f 682 651 671
f 701 682 671
f 715 652 669
f 715 683 652
f 684 701 672
f 716 702 683
f 654 673 580
f 797 676 621
f 797 743 676
f 687 686 622
f 656 687 623
f 703 687 704
f 687 656 704
f 689 705 688
f 677 719 689
f 707 677 660
f 706 677 707
f 798 690 609
f 707 636 691
f 661 691 636
f 661 692 691
f 691 692 720
f 692 661 708
f 693 709 678
f 709 721 641
f 736 641 721
f 737 748 627
f 748 695 642
f 711 679 646
f 750 739 724
f 724 739 645
f 728 697 742
f 681 713 699
f 700 713 651
f 700 651 682
f 756 670 714
f 654 717 673
f 759 621 702
f 675 545 686
f 718 704 688
f 705 718 688
f 689 734 705
f 719 734 689
f 706 719 677
f 799 690 798
f 691 720 707
f 735 678 639
f 735 693 678
f 738 710 663
f 663 749 738
f 618 644 724
f 666 740 646
f 740 711 646
f 696 742 680
f 632 729 574
f 574 729 727
f 632 697 729
f 729 697 728
f 730 699 713
f 756 714 731
f 759 702 716
f 778 733 674
f 760 685 675
f 675 686 760
f 744 686 687
f 718 703 704
f 707 745 706
f 799 735 610
f 720 745 707
f 694 692 708
f 802 709 693
f 802 721 709
f 736 721 746
f 663 722 749
f 695 826 644
f 751 723 664
f 723 722 664
f 740 666 725
f 766 740 725
f 726 766 725
f 767 726 727
f 696 741 742
f 792 727 729
f 727 792 767
f 728 769 729
f 712 752 698
f 712 699 730
f 700 753 713
f 698 752 731
f 698 731 714
f 773 682 701
f 773 701 684
f 732 715 669
f 732 669 670
f 775 683 715
f 775 716 683
f 777 654 733
f 797 621 759
f 778 674 685
f 779 778 685
f 657 780 782
f 744 687 703
f 745 734 719
f 706 745 719
f 762 694 710
f 737 736 747
f 749 722 723
f 644 826 750
f 724 644 750
f 711 764 751
f 740 764 711
f 739 765 696
f 741 696 832
f 729 793 792
f 729 769 793
f 772 712 730
f 753 772 730
f 753 730 713
f 754 731 752
f 731 754 755
f 755 756 731
f 670 756 732
f 757 715 732
f 757 775 715
f 777 717 654
f 780 657 743
f 703 844 744
f 846 703 718
f 798 609 782
f 785 720 692
f 692 694 762
f 762 710 738
f 747 736 746
f 747 748 737
f 723 791 749
f 723 751 763
f 739 750 877
f 765 832 696
f 726 767 766
f 768 767 792
f 741 728 742
f 772 771 712
f 712 771 752
f 752 771 770
f 752 770 754
f 754 770 794
f 773 700 682
f 754 794 755
f 758 757 732
f 732 756 758
f 813 684 717
f 758 756 774
f 774 756 755
f 717 776 813
f 776 717 777
f 778 777 733
f 842 685 760
f 686 744 760
f 705 783 718
f 800 783 734
f 734 783 705
f 784 735 799
f 735 784 693
f 693 761 802
f 802 849 721
f 721 849 746
f 826 829 750
f 829 877 750
f 739 877 765
f 766 767 833
f 728 741 858
f 769 728 858
f 810 700 773
f 861 810 773
f 814 755 794
f 813 773 684
f 774 755 835
f 835 755 814
f 795 775 758
f 758 775 757
f 758 774 795
f 796 716 775
f 796 759 716
f 820 743 797
f 779 685 842
f 744 781 760
f 845 844 846
f 844 703 846
f 846 718 783
f 734 745 800
f 745 720 801
f 785 801 720
f 785 786 801
f 692 787 785
f 786 785 787
f 762 787 692
f 746 849 871
f 738 789 762
f 789 788 762
f 787 762 788
f 790 789 738
f 749 790 738
f 748 747 695
f 788 789 803
f 790 805 789
f 803 789 805
f 749 807 790
f 790 807 805
f 791 723 763
f 807 806 805
f 763 830 791
f 764 763 751
f 740 766 808
f 740 808 764
f 833 767 768
f 793 769 858
f 772 859 771
f 859 772 753
f 859 753 810
f 810 753 700
f 770 771 811
f 770 812 794
f 770 811 812
f 813 861 773
f 794 812 814
f 835 815 774
f 774 815 795
f 817 775 795
f 817 796 775
f 776 777 839
f 818 759 796
f 797 759 818
f 778 839 777
f 780 743 820
f 842 760 781
f 822 745 801
f 822 801 786
f 761 693 784
f 848 786 850
f 850 786 824
f 787 824 786
f 788 823 824
f 788 824 787
f 746 825 747
f 803 827 823
f 788 803 823
f 804 827 803
f 803 805 804
f 807 749 791
f 806 804 805
f 791 830 807
f 806 807 831
f 831 807 830
f 853 830 763
f 853 763 764
f 877 832 765
f 766 833 808
f 833 857 808
f 905 768 792
f 792 793 905
f 809 771 859
f 771 809 811
f 834 810 861
f 814 812 836
f 836 812 811
f 814 816 835
f 795 838 817
f 838 795 815
f 818 796 817
f 841 839 778
f 818 820 797
f 819 820 818
f 779 992 778
f 744 888 781
f 843 887 782
f 844 888 744
f 887 798 782
f 821 799 798
f 866 846 783
f 800 866 783
f 821 784 799
f 745 822 800
f 822 786 848
f 849 802 761
f 825 746 871
f 695 747 825
f 874 827 804
f 851 829 826
f 874 804 828
f 806 828 804
f 877 829 896
f 831 828 806
f 830 854 831
f 809 860 811
f 859 810 834
f 862 861 813
f 862 813 776
f 814 836 816
f 835 837 815
f 835 816 837
f 864 818 817
f 838 864 817
f 840 818 864
f 841 884 839
f 818 840 819
f 992 841 778
f 843 782 780
f 887 821 798
f 800 847 866
f 848 800 822
f 867 784 914
f 867 761 784
f 761 867 849
f 850 869 848
f 918 850 824
f 823 918 824
f 827 918 823
f 871 872 825
f 695 825 826
f 828 852 874
f 895 896 829
f 896 876 877
f 856 830 853
f 854 830 856
f 831 854 828
f 808 855 764
f 853 878 856
f 856 899 854
f 764 855 878
f 764 878 853
f 741 832 931
f 833 768 857
f 931 858 741
f 809 879 860
f 859 880 879
f 809 859 879
f 880 859 834
f 811 909 836
f 909 811 860
f 882 862 776
f 816 836 910
f 910 836 881
f 882 776 839
f 816 910 837
f 863 837 910
f 883 838 815
f 883 837 863
f 815 837 883
f 885 840 864
f 885 864 838
f 865 819 840
f 865 820 819
f 865 780 820
f 780 886 843
f 781 966 842
f 845 846 889
f 889 846 913
f 913 846 866
f 848 916 800
f 800 916 847
f 890 868 867
f 868 849 867
f 870 849 868
f 873 874 875
f 827 874 873
f 851 826 825
f 875 874 852
f 851 895 829
f 852 926 875
f 854 852 828
f 878 899 856
f 855 808 857
f 857 903 855
f 933 768 905
f 878 906 899
f 793 858 905
f 905 858 904
f 855 906 878
f 934 879 880
f 860 907 909
f 908 834 861
f 908 861 862
f 909 881 836
f 884 882 839
f 838 883 885
f 911 840 885
f 911 865 840
f 937 885 883
f 865 911 912
f 886 780 865
f 967 887 843
f 821 887 939
f 888 844 845
f 940 888 845
f 889 940 845
f 914 784 821
f 866 999 913
f 847 999 866
f 891 916 848
f 870 868 890
f 848 869 891
f 917 892 870
f 944 869 850
f 892 849 870
f 944 850 918
f 892 871 849
f 871 892 921
f 871 921 872
f 919 827 873
f 919 918 827
f 921 893 872
f 893 894 872
f 872 894 825
f 851 825 894
f 898 926 852
f 854 898 852
f 876 897 877
f 928 898 901
f 901 898 899
f 899 898 854
f 900 832 877
f 902 768 933
f 857 768 902
f 901 899 906
f 902 903 857
f 931 904 858
f 903 906 855
f 902 952 903
f 903 952 906
f 879 956 860
f 860 956 907
f 879 934 956
f 935 934 880
f 935 880 989
f 989 880 834
f 834 908 989
f 908 862 882
f 908 882 990
f 881 962 910
f 910 962 863
f 1018 884 841
f 863 993 883
f 883 993 937
f 885 937 911
f 936 912 911
f 936 911 937
f 865 912 886
f 966 992 779
f 966 779 842
f 968 966 781
f 968 781 888
f 821 939 941
f 914 821 941
f 915 867 914
f 915 914 969
f 915 890 867
f 999 847 1000
f 847 916 1000
f 870 890 970
f 870 970 998
f 917 870 998
f 998 942 917
f 943 891 869
f 869 944 943
f 917 972 892
f 917 942 972
f 920 921 972
f 972 921 892
f 920 972 945
f 922 920 945
f 923 921 920
f 923 920 922
f 893 921 923
f 922 947 923
f 893 925 894
f 893 923 925
f 946 925 923
f 894 925 851
f 875 926 924
f 851 925 895
f 927 895 925
f 928 924 926
f 895 927 896
f 896 927 948
f 926 898 928
f 896 897 876
f 900 877 897
f 900 897 981
f 929 928 901
f 931 832 900
f 930 929 901
f 906 950 901
f 901 950 930
f 931 932 904
f 952 950 906
f 904 932 953
f 902 933 952
f 905 904 933
f 933 904 954
f 956 934 935
f 957 989 908
f 959 909 907
f 959 956 958
f 907 956 959
f 961 881 909
f 961 909 959
f 960 882 884
f 881 1019 962
f 881 961 1019
f 964 938 936
f 938 912 936
f 938 886 912
f 964 936 937
f 886 938 843
f 966 1026 992
f 939 887 967
f 941 969 914
f 970 915 969
f 890 915 970
f 916 971 1000
f 891 971 916
f 943 971 891
f 942 1031 972
f 919 1050 918
f 945 1003 922
f 875 973 873
f 947 922 975
f 875 924 973
f 923 947 946
f 946 947 948
f 928 1052 924
f 946 927 925
f 946 948 927
f 896 949 897
f 948 949 896
f 929 1007 1052
f 928 929 1052
f 929 930 1007
f 932 931 900
f 932 900 951
f 952 983 950
f 951 953 932
f 952 955 983
f 904 953 954
f 955 952 933
f 954 955 933
f 958 956 988
f 956 935 988
f 957 908 990
f 960 990 882
f 863 963 993
f 962 963 863
f 964 937 965
f 965 937 993
f 964 994 938
f 967 938 995
f 967 843 938
f 939 967 996
f 941 939 996
f 1028 968 940
f 968 888 940
f 970 969 1029
f 999 1045 913
f 1029 998 970
f 1030 942 998
f 1001 942 1030
f 942 1001 1031
f 944 918 1050
f 873 1050 919
f 1003 974 922
f 974 975 922
f 977 975 974
f 977 974 976
f 976 974 1004
f 947 975 977
f 978 976 1006
f 977 976 978
f 949 947 977
f 948 947 949
f 949 977 979
f 979 977 978
f 979 978 980
f 979 897 949
f 897 979 981
f 979 980 981
f 981 980 951
f 1010 951 980
f 982 1007 930
f 982 1035 1007
f 950 982 930
f 983 1037 982
f 983 982 950
f 951 900 981
f 955 985 1037
f 955 1037 983
f 984 1011 1013
f 955 1012 985
f 984 953 951
f 984 1013 953
f 953 1013 987
f 953 987 954
f 954 987 986
f 955 986 1012
f 954 986 955
f 935 1038 988
f 1038 935 989
f 1038 989 1015
f 1015 989 957
f 1016 990 960
f 959 958 1039
f 1018 1017 960
f 884 1018 960
f 1021 1018 841
f 1022 963 962
f 1021 841 992
f 991 993 963
f 965 1025 964
f 964 1025 994
f 995 938 994
f 995 996 967
f 995 997 996
f 1027 966 968
f 996 997 969
f 969 941 996
f 1045 889 913
f 969 997 1029
f 998 1029 1030
f 1049 972 1031
f 1049 945 972
f 945 1049 1002
f 945 1002 1003
f 873 973 1050
f 1003 1002 1051
f 1003 1004 974
f 1003 1051 1004
f 1033 1004 1051
f 976 1004 1005
f 1006 976 1005
f 978 1006 1034
f 978 1034 980
f 980 1034 1008
f 980 1008 1010
f 1010 1008 1083
f 1010 1083 1011
f 1036 1011 1083
f 982 1009 1035
f 951 1010 984
f 1014 1011 1036
f 1054 1014 1036
f 982 1037 1009
f 1010 1011 984
f 1014 1054 1066
f 1013 1011 1014
f 985 1012 1055
f 987 1013 1014
f 1014 1055 987
f 1055 986 987
f 986 1055 1012
f 1016 957 990
f 1016 960 1017
f 961 1020 1019
f 1020 961 959
f 1022 962 1019
f 1019 1020 1022
f 992 1024 1021
f 963 1022 991
f 1022 1041 991
f 1041 1022 1023
f 993 991 965
f 1024 992 1026
f 965 1040 1025
f 965 991 1040
f 1040 991 1041
f 1025 1040 1060
f 1043 995 994
f 1025 1043 994
f 1043 1025 1060
f 1026 966 1027
f 1043 997 995
f 997 1043 1044
f 1044 1061 997
f 1028 1027 968
f 1045 940 889
f 997 1061 1029
f 1029 1061 1046
f 999 1095 1045
f 1046 1030 1029
f 1072 999 1000
f 1000 971 1072
f 1079 1001 1030
f 1001 1079 1031
f 944 1048 943
f 1050 1032 944
f 944 1032 1048
f 1033 1005 1004
f 1104 1034 1005
f 1007 1065 1064
f 1007 1064 1052
f 1005 1034 1006
f 1104 1008 1034
f 1007 1035 1065
f 1009 1053 1082
f 1035 1009 1082
f 1037 985 1053
f 1037 1053 1009
f 1014 1066 1055
f 1056 1038 1015
f 957 1056 1015
f 1056 957 1016
f 988 1074 958
f 1074 1039 958
f 1021 1057 1018
f 1023 1022 1020
f 1023 1020 1058
f 1040 1041 1060
f 1077 1042 1027
f 1042 1026 1027
f 1043 1060 1044
f 1028 940 1045
f 1095 999 1072
f 971 1047 1072
f 1046 1079 1030
f 1046 1078 1079
f 971 943 1047
f 1099 1031 1079
f 973 924 1063
f 924 1064 1063
f 1052 1064 924
f 985 1055 1107
f 985 1107 1053
f 1038 1067 988
f 1038 1073 1067
f 1056 1073 1038
f 988 1067 1074
f 1057 1017 1018
f 1069 1041 1023
f 1024 1026 1059
f 1059 1026 1042
f 1044 1060 1092
f 1060 1071 1092
f 1092 1061 1044
f 1061 1092 1118
f 1093 1028 1045
f 1062 1093 1045
f 1062 1045 1095
f 1080 1047 943
f 1080 943 1048
f 1099 1049 1031
f 1099 1002 1049
f 1122 1050 973
f 973 1063 1122
f 1083 1008 1104
f 1035 1082 1081
f 1035 1081 1065
f 1107 1142 1053
f 1055 1084 1107
f 1066 1084 1055
f 1017 1056 1016
f 959 1039 1086
f 1086 1039 1074
f 1076 1020 959
f 1086 1076 959
f 1058 1020 1076
f 1068 1057 1021
f 1075 1058 1076
f 1024 1068 1021
f 1070 1068 1024
f 1087 1069 1023
f 1058 1087 1023
f 1070 1024 1059
f 1069 1060 1041
f 1069 1071 1060
f 1090 1059 1042
f 1077 1090 1042
f 1071 1069 1088
f 1077 1027 1028
f 1046 1061 1118
f 1033 1104 1005
f 1053 1142 1082
f 1105 1036 1083
f 1105 1054 1036
f 1084 1066 1054
f 1073 1056 1112
f 1112 1056 1017
f 1087 1058 1075
f 1059 1089 1070
f 1088 1069 1087
f 1071 1088 1091
f 1071 1091 1092
f 1093 1077 1028
f 1094 1046 1118
f 1078 1046 1094
f 1096 1095 1072
f 1098 1096 1072
f 1047 1098 1072
f 1079 1136 1099
f 1047 1080 1098
f 1121 1080 1048
f 1103 1122 1063
f 1064 1123 1063
f 1065 1123 1064
f 1142 1125 1082
f 1073 1126 1085
f 1067 1073 1085
f 1126 1073 1112
f 1112 1017 1057
f 1110 1074 1111
f 1086 1074 1110
f 1111 1074 1067
f 1113 1057 1068
f 1116 1113 1068
f 1089 1116 1068
f 1089 1068 1070
f 1117 1087 1075
f 1117 1088 1087
f 1089 1059 1090
f 1088 1153 1091
f 1134 1091 1153
f 1092 1091 1134
f 1092 1134 1118
f 1135 1093 1062
f 1136 1078 1094
f 1136 1079 1078
f 1099 1136 1097
f 1099 1097 1100
f 1101 1121 1032
f 1032 1121 1048
f 1099 1100 1002
f 1050 1101 1032
f 1122 1101 1050
f 1102 1051 1002
f 1051 1102 1160
f 1051 1160 1033
f 1104 1033 1124
f 1144 1054 1105
f 1054 1144 1084
f 1084 1144 1106
f 1084 1106 1107
f 1085 1111 1067
f 1108 1111 1085
f 1113 1112 1057
f 1110 1109 1086
f 1086 1109 1076
f 1109 1114 1076
f 1076 1114 1075
f 1109 1110 1129
f 1115 1114 1109
f 1075 1131 1117
f 1075 1114 1131
f 1117 1153 1088
f 1155 1134 1153
f 1119 1077 1093
f 1118 1134 1120
f 1094 1118 1120
f 1135 1119 1093
f 1094 1120 1136
f 1139 1096 1098
f 1138 1097 1136
f 1080 1121 1098
f 1121 1101 1174
f 1102 1002 1100
f 1140 1102 1100
f 1123 1178 1103
f 1063 1123 1103
f 1065 1161 1123
f 1065 1081 1161
f 1125 1081 1082
f 1107 1143 1142
f 1107 1106 1143
f 1085 1126 1108
f 1127 1126 1112
f 1111 1129 1110
f 1111 1108 1129
f 1128 1108 1126
f 1128 1126 1145
f 1126 1127 1145
f 1127 1112 1113
f 1113 1146 1127
f 1116 1146 1113
f 1109 1129 1115
f 1148 1129 1108
f 1149 1146 1116
f 1115 1131 1114
f 1115 1129 1130
f 1130 1129 1148
f 1148 1108 1128
f 1149 1116 1089
f 1132 1115 1152
f 1115 1130 1152
f 1133 1117 1131
f 1132 1131 1115
f 1117 1133 1153
f 1133 1131 1132
f 1077 1119 1090
f 1120 1134 1156
f 1134 1155 1156
f 1156 1158 1120
f 1135 1062 1095
f 1120 1158 1159
f 1136 1120 1159
f 1137 1135 1095
f 1137 1095 1096
f 1137 1096 1139
f 1138 1136 1159
f 1171 1139 1098
f 1098 1121 1171
f 1100 1097 1140
f 1103 1101 1122
f 1103 1178 1175
f 1160 1124 1033
f 1161 1178 1123
f 1141 1083 1104
f 1141 1105 1083
f 1193 1144 1105
f 1141 1193 1105
f 1146 1162 1127
f 1162 1145 1127
f 1147 1128 1145
f 1145 1162 1147
f 1182 1146 1149
f 1147 1148 1128
f 1165 1148 1147
f 1150 1149 1089
f 1151 1152 1130
f 1151 1130 1148
f 1151 1148 1165
f 1090 1150 1089
f 1132 1154 1133
f 1133 1168 1153
f 1168 1133 1154
f 1154 1132 1152
f 1157 1153 1168
f 1153 1157 1155
f 1156 1155 1157
f 1158 1156 1170
f 1159 1158 1170
f 1138 1159 1173
f 1189 1138 1173
f 1097 1138 1189
f 1097 1189 1140
f 1103 1174 1101
f 1103 1175 1174
f 1102 1140 1177
f 1102 1177 1160
f 1160 1209 1124
f 1081 1179 1161
f 1180 1104 1124
f 1180 1141 1104
f 1192 1144 1193
f 1144 1192 1106
f 1182 1162 1146
f 1147 1164 1163
f 1162 1164 1147
f 1147 1163 1165
f 1149 1150 1182
f 1151 1166 1167
f 1165 1166 1151
f 1184 1165 1163
f 1151 1167 1152
f 1166 1165 1184
f 1152 1167 1154
f 1154 1167 1185
f 1154 1185 1168
f 1169 1156 1157
f 1157 1168 1201
f 1201 1168 1185
f 1156 1169 1170
f 1169 1157 1186
f 1157 1201 1186
f 1169 1172 1170
f 1187 1137 1139
f 1170 1173 1159
f 1121 1188 1171
f 1173 1170 1172
f 1174 1188 1121
f 1175 1176 1206
f 1175 1206 1174
f 1140 1189 1177
f 1178 1176 1175
f 1160 1177 1209
f 1125 1191 1210
f 1125 1210 1081
f 1142 1191 1125
f 1191 1142 1143
f 1180 1193 1141
f 1182 1183 1162
f 1162 1183 1164
f 1194 1164 1183
f 1181 1183 1182
f 1164 1194 1163
f 1181 1182 1150
f 1196 1181 1150
f 1196 1150 1090
f 1184 1163 1235
f 1197 1196 1090
f 1197 1090 1119
f 1166 1184 1198
f 1198 1184 1235
f 1212 1197 1119
f 1199 1166 1198
f 1200 1212 1119
f 1199 1167 1166
f 1202 1167 1199
f 1200 1119 1135
f 1202 1185 1167
f 1213 1135 1137
f 1187 1213 1137
f 1186 1172 1169
f 1186 1201 1203
f 1186 1203 1172
f 1187 1139 1171
f 1190 1173 1172
f 1174 1205 1188
f 1173 1190 1189
f 1206 1205 1174
f 1190 1207 1189
f 1177 1189 1207
f 1209 1177 1223
f 1179 1208 1161
f 1161 1208 1178
f 1081 1210 1179
f 1124 1209 1180
f 1106 1192 1143
f 1183 1181 1195
f 1227 1235 1163
f 1227 1163 1194
f 1213 1200 1135
f 1185 1214 1201
f 1214 1185 1202
f 1203 1201 1214
f 1187 1171 1188
f 1220 1187 1188
f 1172 1203 1204
f 1172 1204 1190
f 1188 1205 1215
f 1178 1208 1176
f 1177 1239 1223
f 1216 1209 1223
f 1209 1216 1180
f 1191 1217 1210
f 1211 1193 1180
f 1143 1226 1217
f 1191 1143 1217
f 1193 1211 1225
f 1193 1225 1192
f 1192 1225 1226
f 1192 1226 1143
f 1194 1183 1195
f 1218 1196 1197
f 1212 1218 1197
f 1213 1234 1200
f 1229 1213 1187
f 1214 1202 1221
f 1220 1229 1187
f 1214 1221 1203
f 1203 1221 1204
f 1215 1220 1188
f 1176 1208 1206
f 1177 1207 1239
f 1179 1224 1208
f 1210 1224 1179
f 1216 1223 1211
f 1180 1216 1211
f 1181 1196 1195
f 1195 1196 1228
f 1228 1196 1218
f 1227 1194 1195
f 1234 1212 1200
f 1219 1234 1213
f 1229 1219 1213
f 1241 1202 1199
f 1202 1241 1221
f 1205 1230 1215
f 1205 1206 1230
f 1208 1222 1206
f 1239 1207 1190
f 1217 1224 1210
f 1226 1233 1217
f 1249 1227 1195
f 1249 1195 1228
f 1234 1218 1212
f 1236 1219 1229
f 1220 1236 1229
f 1221 1231 1204
f 1221 1241 1231
f 1231 1190 1204
f 1237 1190 1231
f 1222 1230 1206
f 1237 1239 1190
f 1208 1238 1222
f 1224 1245 1238
f 1208 1224 1238
f 1232 1211 1223
f 1217 1233 1224
f 1232 1225 1211
f 1226 1225 1233
f 1240 1235 1227
f 1249 1240 1227
f 1250 1234 1219
f 1198 1254 1199
f 1199 1254 1241
f 1215 1236 1220
f 1230 1236 1215
f 1241 1243 1231
f 1222 1238 1230
f 1239 1237 1244
f 1244 1246 1239
f 1224 1248 1245
f 1246 1223 1239
f 1223 1246 1232
f 1233 1247 1248
f 1233 1248 1224
f 1225 1232 1247
f 1233 1225 1247
f 1250 1218 1234
f 1235 1240 1252
f 1235 1252 1198
f 1230 1242 1236
f 1241 1254 1243
f 1238 1242 1230
f 1237 1231 1243
f 1237 1243 1244
f 1247 1246 1244
f 1246 1247 1232
f 1218 1251 1228
f 1228 1251 1249
f 1250 1251 1218
f 1240 1259 1252
f 1249 1259 1240
f 1249 1251 1259
f 1250 1236 1251
f 1236 1250 1219
f 1252 1254 1198
f 1242 1253 1236
f 1242 1255 1253
f 1238 1255 1242
f 1243 1254 1256
f 1245 1255 1238
f 1244 1243 1257
f 1248 1255 1245
f 1258 1255 1248
f 1247 1258 1248
f 1247 1257 1258
f 1244 1257 1247
f 1253 1251 1236
f 1260 1259 1251
f 1255 1260 1253
f 1253 1260 1251
f 1252 1259 1254
f 1259 1256 1254
f 1256 1259 1260
f 1258 1260 1255
f 1256 1260 1258
f 1243 1256 1257
f 1257 1256 1258
# 2516 faces, 0 coords texture

# End of File
