####
#
# OBJ File Generated by Meshlab
#
####
# Object AL-VA7mR.obj
#
# Vertices: 1377
# Faces: 2750
#
####
v 20665.107422 36191.863281 29281.072266
v 20724.650391 36230.136719 29281.152344
v 20636.968750 36308.863281 29287.173828
v 20624.150391 36386.464844 29310.138672
v 20542.845703 36398.875000 29339.789062
v 20627.015625 36471.414062 29353.621094
v 20726.275391 36482.718750 29349.292969
v 20732.296875 36440.070312 29324.228516
v 20771.738281 35833.921875 29295.757812
v 20840.453125 35893.667969 29293.011719
v 20658.355469 35968.054688 29293.789062
v 20584.544922 36017.000000 29295.257812
v 20698.521484 36027.699219 29288.679688
v 20773.449219 36078.687500 29288.027344
v 20862.744141 36141.851562 29294.408203
v 20879.449219 36008.203125 29294.060547
v 20529.416016 36124.582031 29300.408203
v 20892.082031 36287.015625 29302.433594
v 20811.216797 36238.824219 29291.115234
v 20505.570312 36206.144531 29308.529297
v 20534.425781 36326.886719 29318.011719
v 20730.613281 36341.023438 29285.000000
v 20944.207031 36339.023438 29314.914062
v 20459.103516 36390.035156 29369.439453
v 20828.248047 36358.093750 29305.105469
v 20588.847656 36481.117188 29379.878906
v 20805.115234 36436.250000 29321.726562
v 20912.056641 36447.207031 29331.888672
v 20891.492188 36527.648438 29359.458984
v 20976.488281 36605.152344 29387.564453
v 20930.052734 35599.734375 29329.164062
v 20778.021484 35698.523438 29312.679688
v 20869.166016 35726.378906 29313.833984
v 20714.701172 35674.304688 29318.179688
v 20651.505859 35665.039062 29327.373047
v 20687.570312 35807.812500 29304.285156
v 20590.582031 35670.750000 29340.839844
v 20540.537109 35725.558594 29350.128906
v 20599.191406 35797.128906 29322.589844
v 20472.748047 35850.996094 29363.519531
v 20524.792969 35887.457031 29333.720703
v 20605.949219 35905.796875 29307.515625
v 20920.929688 35844.949219 29307.851562
v 21019.542969 35948.863281 29314.570312
v 21026.250000 35731.578125 29325.757812
v 20383.400391 36092.035156 29367.000000
v 20463.025391 36017.796875 29336.546875
v 20395.208984 36148.531250 29349.035156
v 21047.619141 36057.812500 29315.697266
v 21067.476562 36151.117188 29320.130859
v 20988.753906 36251.535156 29313.330078
v 20390.134766 36233.300781 29355.812500
v 21164.078125 36285.968750 29338.488281
v 20387.017578 36388.125000 29413.699219
v 20438.171875 36281.695312 29341.871094
v 21086.476562 36391.347656 29337.902344
v 20499.021484 36455.511719 29409.808594
v 21014.968750 36467.308594 29341.638672
v 20729.791016 36528.011719 29389.585938
v 20833.710938 36582.222656 29416.666016
v 20860.781250 36557.339844 29381.789062
v 20817.648438 35133.984375 29414.767578
v 20887.378906 35154.058594 29403.580078
v 20835.726562 35233.632812 29388.429688
v 20935.808594 35229.933594 29384.681641
v 20710.675781 35252.230469 29391.527344
v 21006.394531 35312.734375 29368.884766
v 20707.019531 35414.042969 29358.634766
v 20810.501953 35363.710938 29364.380859
v 20916.603516 35355.417969 29364.183594
v 21020.144531 35480.187500 29349.759766
v 20618.171875 35306.109375 29391.351562
v 20804.095703 35551.609375 29332.269531
v 20925.113281 35497.191406 29345.328125
v 20636.687500 35406.121094 29367.322266
v 20546.203125 35374.656250 29401.109375
v 21050.855469 35632.488281 29338.458984
v 20715.347656 35504.195312 29344.154297
v 20583.058594 35446.687500 29373.673828
v 21170.779297 35549.183594 29352.867188
v 21097.914062 35562.601562 29346.644531
v 20479.917969 35449.363281 29424.291016
v 20542.988281 35520.937500 29377.968750
v 20634.031250 35545.816406 29348.658203
v 20428.482422 35573.406250 29457.951172
v 20461.886719 35628.296875 29410.671875
v 20408.339844 35763.089844 29434.423828
v 20439.117188 35788.832031 29398.392578
v 20500.542969 35634.132812 29383.269531
v 20412.019531 35940.835938 29383.378906
v 21164.246094 35710.597656 29344.416016
v 20346.597656 35962.828125 29447.582031
v 20372.101562 35951.195312 29416.453125
v 21194.359375 35859.269531 29341.642578
v 21358.865234 35847.093750 29363.738281
v 20318.730469 36084.671875 29437.257812
v 21233.121094 36174.496094 29343.832031
v 20323.648438 36247.125000 29397.972656
v 20334.822266 36328.269531 29397.914062
v 21316.826172 36453.714844 29364.152344
v 21181.183594 36383.320312 29346.931641
v 20492.117188 36474.195312 29459.474609
v 21195.867188 36494.804688 29359.572266
v 20672.621094 36544.210938 29437.833984
v 21089.580078 36555.785156 29365.574219
v 20620.015625 36524.402344 29419.396484
v 20806.431641 36594.566406 29456.490234
v 20914.593750 36621.171875 29429.289062
v 20986.228516 36555.718750 29363.863281
v 21079.535156 36683.476562 29414.007812
v 20971.218750 35081.582031 29419.750000
v 20857.875000 35022.960938 29442.878906
v 20734.595703 35063.835938 29451.455078
v 20669.617188 35119.035156 29440.384766
v 20632.271484 35078.140625 29470.818359
v 21057.289062 35148.296875 29404.144531
v 21056.279297 35265.796875 29383.144531
v 20552.542969 35190.601562 29446.982422
v 20590.164062 35217.171875 29416.611328
v 20709.570312 35176.859375 29413.093750
v 20485.621094 35283.976562 29463.015625
v 20539.240234 35257.148438 29431.337891
v 21052.978516 35400.105469 29355.593750
v 21177.591797 35402.687500 29373.564453
v 21304.773438 35538.703125 29374.841797
v 21230.353516 35546.570312 29363.775391
v 21436.972656 35551.750000 29388.701172
v 20363.667969 35841.746094 29467.425781
v 21342.224609 35686.894531 29369.363281
v 20315.431641 35966.437500 29513.195312
v 21180.777344 36011.125000 29336.296875
v 20298.976562 36229.507812 29424.216797
v 21384.285156 36198.882812 29362.939453
v 21562.878906 36341.015625 29386.759766
v 20285.435547 36299.687500 29434.367188
v 20305.076172 36359.042969 29436.412109
v 20390.273438 36417.125000 29452.927734
v 21474.253906 36543.050781 29383.044922
v 21319.947266 36556.667969 29371.955078
v 21277.613281 36604.964844 29376.414062
v 21193.945312 36589.808594 29374.500000
v 21145.150391 36666.324219 29397.208984
v 21451.955078 36697.824219 29389.205078
v 21093.095703 36730.757812 29448.195312
v 21252.478516 36695.757812 29393.835938
v 21158.011719 36756.839844 29436.648438
v 21210.539062 36743.566406 29413.457031
v 21338.708984 36901.199219 29438.402344
v 21257.751953 36823.324219 29431.605469
v 21371.585938 36723.359375 29391.554688
v 21308.451172 36817.179688 29416.392578
v 21370.039062 36939.800781 29457.562500
v 21395.535156 36835.492188 29409.210938
v 21470.509766 36936.875000 29440.287109
v 21607.113281 36933.253906 29443.882812
v 21053.542969 34903.351562 29465.607422
v 20991.876953 35002.339844 29439.882812
v 20942.226562 34910.199219 29477.902344
v 20898.949219 34987.179688 29453.992188
v 20781.546875 34999.847656 29468.509766
v 21110.345703 34966.832031 29442.966797
v 21066.158203 35054.855469 29423.292969
v 20703.093750 35004.308594 29490.207031
v 21218.986328 35252.199219 29392.632812
v 21232.904297 35103.320312 29417.771484
v 21248.900391 34971.777344 29440.517578
v 21303.294922 35172.578125 29411.708984
v 21384.718750 35138.320312 29418.361328
v 20543.648438 35105.156250 29497.226562
v 21147.556641 35158.859375 29404.984375
v 21393.308594 35294.386719 29405.248047
v 21276.810547 35256.152344 29399.630859
v 21501.273438 35251.281250 29414.306641
v 21386.634766 35391.910156 29395.242188
v 21486.783203 35461.445312 29400.537109
v 21618.636719 35647.804688 29404.310547
v 21487.648438 35734.984375 29385.253906
v 21715.843750 35758.222656 29410.656250
v 21559.332031 35835.496094 29390.640625
v 21816.748047 36017.480469 29418.160156
v 21537.447266 36008.601562 29383.816406
v 21362.582031 36362.953125 29364.353516
v 20829.732422 36617.058594 29502.050781
v 20991.755859 36656.359375 29423.767578
v 21615.533203 36682.187500 29404.921875
v 21519.824219 36752.621094 29400.664062
v 21787.117188 36726.960938 29425.828125
v 21207.476562 36839.417969 29468.962891
v 21586.656250 36829.968750 29416.056641
v 21744.080078 36842.199219 29437.144531
v 21273.595703 36904.488281 29483.146484
v 21720.224609 36921.460938 29450.240234
v 21889.792969 36867.792969 29472.253906
v 21470.117188 36816.496094 29405.654297
v 21578.197266 36897.488281 29428.197266
v 21805.636719 36888.617188 29457.251953
v 21339.966797 36942.453125 29490.949219
v 21595.679688 36956.789062 29460.812500
v 22048.611328 34822.230469 29492.818359
v 21945.195312 34772.929688 29483.042969
v 22052.400391 34724.554688 29515.806641
v 22127.998047 34905.406250 29502.156250
v 21159.896484 34834.453125 29479.511719
v 21222.466797 34865.492188 29465.605469
v 21864.183594 34909.316406 29456.349609
v 21930.113281 34848.066406 29466.548828
v 20840.345703 34936.347656 29487.191406
v 20909.320312 34872.812500 29506.445312
v 21328.154297 34897.761719 29455.941406
v 21787.025391 34865.101562 29458.054688
v 20760.695312 34944.703125 29512.156250
v 20833.300781 34892.722656 29519.769531
v 21371.478516 34824.753906 29469.757812
v 21492.496094 34895.902344 29453.246094
v 21700.562500 34995.492188 29446.279297
v 21419.382812 34999.554688 29440.173828
v 21587.482422 34983.386719 29444.240234
v 21810.605469 35050.074219 29448.306641
v 21945.322266 35053.566406 29457.515625
v 22091.126953 34985.308594 29480.712891
v 21533.009766 35093.492188 29433.677734
v 22017.726562 35004.894531 29467.005859
v 21578.181641 35205.628906 29426.148438
v 21698.910156 35175.488281 29436.748047
v 21882.767578 35266.960938 29445.154297
v 22049.162109 35192.640625 29463.615234
v 21671.111328 35335.484375 29424.791016
v 21807.822266 35421.812500 29432.970703
v 22114.902344 35263.304688 29472.023438
v 21961.896484 35390.757812 29447.882812
v 21623.054688 35481.355469 29410.900391
v 22031.535156 35454.167969 29454.191406
v 22062.792969 35646.664062 29454.990234
v 20444.242188 35363.867188 29483.242188
v 21712.855469 35551.226562 29416.755859
v 21870.871094 35610.359375 29432.007812
v 21844.457031 35802.085938 29424.216797
v 21970.431641 35695.722656 29440.884766
v 22001.816406 36054.632812 29439.375000
v 21582.158203 36153.644531 29388.673828
v 21896.761719 36239.871094 29426.820312
v 21780.947266 36360.121094 29414.189453
v 21849.550781 36474.382812 29424.865234
v 20381.822266 36435.292969 29530.363281
v 21747.677734 36645.628906 29415.011719
v 20687.093750 36561.625000 29481.953125
v 21923.541016 36622.359375 29440.621094
v 21990.933594 36541.117188 29444.970703
v 21028.447266 36702.199219 29468.179688
v 22036.476562 36621.113281 29455.802734
v 21963.539062 36712.042969 29454.060547
v 21895.507812 36814.289062 29455.412109
v 22065.302734 36718.937500 29471.435547
v 22158.738281 36709.187500 29497.154297
v 21973.525391 36809.742188 29477.423828
v 22101.187500 36771.679688 29500.259766
v 21558.779297 36966.433594 29474.892578
v 21428.945312 36967.652344 29474.351562
v 21913.527344 34573.488281 29555.083984
v 21823.669922 34617.949219 29519.380859
v 21709.232422 34649.839844 29499.697266
v 21899.281250 34655.011719 29510.078125
v 22004.304688 34665.222656 29523.833984
v 21925.367188 34705.515625 29497.503906
v 22101.310547 34718.050781 29542.306641
v 22156.673828 34828.394531 29541.414062
v 21184.242188 34769.218750 29504.433594
v 21058.123047 34762.640625 29537.718750
v 21148.337891 34737.675781 29528.812500
v 21792.955078 34731.910156 29474.726562
v 21033.552734 34831.824219 29496.318359
v 21374.738281 34758.671875 29488.150391
v 21393.126953 34699.460938 29506.660156
v 20973.603516 34813.242188 29522.541016
v 21588.369141 34724.160156 29483.132812
v 20867.699219 34835.761719 29560.771484
v 21541.271484 34801.500000 29467.642578
v 21688.763672 34804.671875 29464.796875
v 20707.896484 34918.421875 29580.203125
v 20577.744141 35027.070312 29528.250000
v 22172.734375 34937.062500 29518.478516
v 22173.853516 35107.742188 29497.175781
v 22164.431641 35205.718750 29487.642578
v 22115.277344 35474.101562 29466.332031
v 22217.099609 35396.679688 29494.181641
v 22207.226562 35262.832031 29503.904297
v 22256.595703 35369.433594 29524.533203
v 22195.435547 35712.406250 29477.494141
v 22169.330078 35341.968750 29480.697266
v 22282.710938 35528.101562 29513.113281
v 20403.470703 35522.398438 29515.730469
v 22251.214844 35590.359375 29494.513672
v 22314.908203 35734.140625 29505.414062
v 22313.539062 35645.601562 29512.189453
v 22377.853516 35713.277344 29536.785156
v 22334.458984 35926.000000 29499.724609
v 22385.398438 35826.781250 29520.576172
v 22157.673828 35866.769531 29466.757812
v 20278.808594 36127.523438 29516.738281
v 22061.193359 35861.527344 29450.908203
v 22428.488281 35951.980469 29521.101562
v 22487.353516 36029.367188 29540.808594
v 22515.056641 36122.785156 29546.732422
v 22095.460938 36129.957031 29452.763672
v 22422.322266 36099.777344 29510.611328
v 22443.937500 36203.898438 29519.128906
v 22296.384766 36113.765625 29487.367188
v 22031.269531 36244.714844 29441.937500
v 20302.876953 36380.050781 29533.431641
v 22375.195312 36193.042969 29501.357422
v 22206.539062 36313.609375 29471.656250
v 22365.304688 36338.980469 29500.642578
v 20350.695312 36414.347656 29495.679688
v 22063.978516 36436.527344 29449.535156
v 20530.167969 36501.652344 29506.423828
v 22264.597656 36439.109375 29484.345703
v 22379.654297 36440.785156 29517.017578
v 22296.572266 36515.957031 29495.572266
v 22286.267578 36566.089844 29503.992188
v 22139.804688 36540.121094 29464.582031
v 21139.460938 36790.054688 29475.816406
v 22153.095703 36629.855469 29475.011719
v 22192.064453 36672.437500 29496.484375
v 21841.847656 36897.722656 29483.244141
v 21721.933594 36935.093750 29473.751953
v 21403.062500 36955.500000 29544.343750
v 21589.986328 36963.636719 29490.517578
v 21832.480469 34560.789062 29550.878906
v 21808.816406 34518.312500 29580.828125
v 21708.808594 34597.898438 29521.490234
v 21213.087891 34655.480469 29576.253906
v 21272.947266 34656.703125 29552.685547
v 21370.175781 34659.531250 29527.728516
v 21530.119141 34632.859375 29514.923828
v 20789.392578 34887.972656 29550.144531
v 20654.052734 34982.328125 29532.812500
v 20530.058594 35074.394531 29548.166016
v 22199.595703 34925.906250 29553.833984
v 22194.478516 35082.390625 29516.748047
v 22223.238281 35192.378906 29529.529297
v 22220.402344 35088.097656 29552.515625
v 22257.511719 35287.039062 29552.064453
v 22282.810547 35351.273438 29578.478516
v 22316.503906 35566.207031 29530.714844
v 22311.232422 35502.871094 29549.617188
v 20394.208984 35682.191406 29481.035156
v 22371.974609 35642.921875 29573.097656
v 22432.898438 35836.472656 29544.521484
v 22460.144531 35843.179688 29579.576172
v 22493.042969 35960.539062 29556.289062
v 22523.916016 35994.863281 29579.412109
v 22465.916016 36240.679688 29529.673828
v 22542.888672 36176.816406 29569.507812
v 20265.126953 36206.988281 29519.525391
v 22451.119141 36317.718750 29535.945312
v 22434.845703 36393.144531 29551.271484
v 22412.427734 36440.335938 29554.332031
v 22398.001953 36464.402344 29577.050781
v 22301.324219 36573.476562 29530.099609
v 20929.683594 36655.656250 29487.921875
v 22218.357422 36659.343750 29576.828125
v 22214.720703 36670.476562 29522.898438
v 21191.488281 36843.906250 29518.292969
v 22142.183594 36741.531250 29534.962891
v 21997.722656 36825.445312 29513.169922
v 21480.792969 36964.121094 29551.169922
v 21555.419922 34506.480469 29579.115234
v 21686.437500 34521.902344 29566.066406
v 21927.685547 34531.597656 29603.625000
v 21420.417969 34546.578125 29580.775391
v 21268.953125 34599.968750 29606.085938
v 21514.605469 34562.316406 29550.000000
v 22042.011719 34619.710938 29571.240234
v 21321.716797 34609.144531 29565.255859
v 22118.398438 34676.703125 29607.576172
v 21149.818359 34669.250000 29599.568359
v 21005.306641 34761.347656 29566.371094
v 20547.535156 35022.292969 29603.154297
v 20483.310547 35164.996094 29532.583984
v 22223.222656 35025.558594 29597.302734
v 20452.591797 35231.863281 29540.917969
v 22252.537109 35193.492188 29592.835938
v 22321.181641 35487.390625 29580.935547
v 22440.718750 35786.500000 29615.308594
v 22517.349609 35951.011719 29595.554688
v 22550.099609 36114.781250 29573.285156
v 22519.982422 36269.566406 29589.332031
v 20467.134766 36479.101562 29620.839844
v 20647.597656 36553.261719 29532.847656
v 21048.087891 36729.863281 29520.318359
v 21963.757812 36841.050781 29546.865234
v 21172.238281 36825.984375 29569.687500
v 21878.232422 36871.265625 29558.007812
v 21765.746094 36927.242188 29502.566406
v 21619.792969 36949.359375 29550.144531
v 21457.078125 34477.117188 29631.181641
v 21662.062500 34478.968750 29604.144531
v 21532.746094 34444.117188 29648.109375
v 21342.322266 34538.941406 29621.201172
v 21266.349609 34571.492188 29660.330078
v 22165.156250 34781.921875 29585.232422
v 21104.496094 34669.593750 29648.623047
v 20949.386719 34760.687500 29622.324219
v 22203.027344 34908.128906 29589.853516
v 20454.945312 35127.023438 29641.416016
v 20434.326172 35195.828125 29614.968750
v 22231.097656 35061.785156 29637.617188
v 22260.693359 35215.367188 29641.205078
v 22283.455078 35318.605469 29625.076172
v 22364.941406 35601.554688 29612.308594
v 22555.265625 36092.121094 29602.738281
v 20265.957031 36325.832031 29527.091797
v 22487.683594 36339.757812 29638.748047
v 20362.126953 36423.519531 29617.791016
v 22319.427734 36555.546875 29579.701172
v 22250.025391 36619.187500 29608.931641
v 20820.230469 36619.554688 29557.783203
v 21328.658203 36932.214844 29553.324219
v 21605.255859 34428.007812 29670.246094
v 21670.814453 34425.546875 29681.218750
v 21397.046875 34477.312500 29704.699219
v 21805.015625 34487.472656 29623.335938
v 21990.636719 34591.238281 29562.673828
v 22177.814453 34814.632812 29628.556641
v 22182.164062 34855.429688 29671.011719
v 20811.802734 34838.679688 29604.402344
v 20618.501953 34963.035156 29602.365234
v 22283.226562 35320.316406 29678.830078
v 22319.357422 35452.183594 29628.660156
v 22401.238281 35696.105469 29689.304688
v 22459.046875 35833.347656 29677.185547
v 22520.865234 35963.988281 29639.449219
v 20279.156250 36334.375000 29607.478516
v 20595.759766 36530.867188 29635.958984
v 20749.058594 36591.585938 29609.626953
v 20950.861328 36676.289062 29548.806641
v 22043.693359 36796.035156 29565.542969
v 21069.289062 36747.566406 29569.222656
v 21914.996094 36833.058594 29618.425781
v 21360.291016 36900.226562 29665.205078
v 21603.773438 36924.707031 29628.242188
v 21982.615234 34544.957031 29633.638672
v 22131.972656 34696.246094 29669.982422
v 22227.888672 35076.738281 29684.517578
v 22258.365234 35225.589844 29696.544922
v 22323.820312 35478.187500 29715.003906
v 20418.093750 35256.242188 29598.830078
v 22358.644531 35576.503906 29658.181641
v 20345.408203 35779.410156 29546.820312
v 22564.240234 36159.871094 29610.462891
v 20261.150391 36285.621094 29622.675781
v 20318.976562 36387.031250 29609.181641
v 22476.277344 36350.261719 29690.734375
v 22294.273438 36523.738281 29724.236328
v 20875.220703 36641.511719 29634.705078
v 21009.800781 36705.324219 29664.507812
v 21916.320312 36785.023438 29718.941406
v 21281.109375 36866.707031 29666.863281
v 21815.904297 36826.285156 29739.050781
v 21809.789062 36872.539062 29626.375000
v 21530.658203 34415.089844 29701.611328
v 22050.833984 34598.152344 29627.031250
v 22097.226562 34640.652344 29655.244141
v 21288.007812 34540.109375 29723.494141
v 20888.755859 34766.500000 29683.072266
v 20690.929688 34879.800781 29674.589844
v 20398.113281 35255.562500 29669.996094
v 22238.912109 35211.117188 29768.714844
v 20394.187500 35397.750000 29591.613281
v 22364.714844 35607.609375 29721.841797
v 22495.587891 35947.449219 29759.199219
v 22530.802734 36032.304688 29725.777344
v 22557.287109 36091.664062 29658.453125
v 22551.900391 36150.699219 29746.843750
v 22544.769531 36241.203125 29637.785156
v 20270.546875 36312.531250 29687.875000
v 22414.978516 36416.535156 29710.392578
v 20941.248047 36673.171875 29601.269531
v 21140.007812 36786.953125 29645.628906
v 21490.593750 36934.574219 29629.949219
v 21741.853516 36906.027344 29594.513672
v 21727.898438 36881.359375 29677.337891
v 21436.894531 34449.628906 29758.275391
v 22029.169922 34569.199219 29705.929688
v 22089.835938 34639.914062 29714.089844
v 22145.119141 34805.351562 29726.593750
v 20755.335938 34832.503906 29698.087891
v 20502.125000 34997.988281 29748.421875
v 20484.525391 35072.871094 29649.742188
v 22194.378906 34984.363281 29729.132812
v 22291.056641 35393.558594 29755.142578
v 22338.871094 35581.648438 29816.765625
v 20355.443359 35665.132812 29582.050781
v 22450.132812 35848.445312 29774.648438
v 20251.972656 36039.953125 29686.162109
v 22539.044922 36218.414062 29729.148438
v 20249.285156 36216.792969 29632.810547
v 20264.818359 36310.445312 29780.656250
v 22342.337891 36500.351562 29675.078125
v 22171.734375 36637.675781 29692.937500
v 22014.460938 36732.695312 29708.621094
v 21224.152344 36846.257812 29626.027344
v 21598.144531 36900.468750 29713.687500
v 21735.292969 34418.847656 29724.417969
v 21935.484375 34499.894531 29767.214844
v 21978.996094 34529.972656 29694.273438
v 21098.859375 34649.996094 29721.646484
v 21092.410156 34628.460938 29854.560547
v 20977.974609 34709.289062 29730.849609
v 20868.626953 34754.144531 29762.433594
v 20760.460938 34798.046875 29814.718750
v 20653.207031 34883.597656 29732.962891
v 22168.912109 34945.093750 29765.808594
v 20408.607422 35142.265625 29740.998047
v 20304.316406 35548.093750 29803.625000
v 20238.589844 36121.812500 29696.671875
v 20745.154297 36572.222656 29781.080078
v 20964.062500 36669.183594 29757.566406
v 21242.986328 36820.808594 29755.884766
v 21417.822266 36903.253906 29695.310547
v 21495.765625 36899.496094 29744.068359
v 21505.775391 34418.277344 29797.373047
v 21622.582031 34389.171875 29775.353516
v 21783.089844 34437.546875 29707.466797
v 21351.105469 34492.675781 29815.460938
v 21216.968750 34571.171875 29787.132812
v 20678.759766 34849.808594 29800.480469
v 22118.753906 34905.425781 29835.042969
v 20557.728516 34953.687500 29729.931641
v 20428.468750 35084.437500 29765.488281
v 20252.431641 35910.886719 29763.025391
v 20223.435547 36144.417969 29760.501953
v 22533.382812 36095.585938 29796.970703
v 20311.052734 36362.320312 29739.347656
v 20423.902344 36441.898438 29755.681641
v 20548.037109 36502.425781 29736.642578
v 22222.011719 36556.750000 29782.974609
v 21083.361328 36737.433594 29723.152344
v 21357.837891 36870.050781 29756.914062
v 21631.582031 36861.082031 29819.857422
v 21854.753906 34460.484375 29728.554688
v 22005.542969 34580.117188 29772.687500
v 20589.576172 34896.824219 29851.097656
v 22169.595703 35173.726562 29923.792969
v 22221.630859 35219.554688 29831.376953
v 20347.291016 35373.074219 29752.035156
v 22252.765625 35340.703125 29847.808594
v 22289.787109 35459.308594 29847.750000
v 20210.960938 36205.968750 29843.134766
v 20241.660156 36247.417969 29724.742188
v 20217.207031 36258.648438 29914.685547
v 20364.111328 36397.644531 29806.808594
v 22355.824219 36428.722656 29823.814453
v 21714.234375 34390.929688 29825.605469
v 21624.271484 34385.972656 29848.197266
v 21839.056641 34454.652344 29802.169922
v 20909.308594 34713.675781 29850.878906
v 22056.316406 34715.187500 29810.445312
v 20438.603516 35046.117188 29823.626953
v 20354.458984 35303.351562 29770.781250
v 22385.691406 35730.617188 29856.748047
v 22467.177734 35983.218750 29895.384766
v 20209.494141 36158.734375 29819.675781
v 20185.386719 36159.886719 29898.810547
v 20250.839844 36300.324219 29906.509766
v 20299.986328 36348.343750 29854.292969
v 20545.578125 36474.453125 29929.105469
v 22267.798828 36492.644531 29852.445312
v 22061.382812 34833.570312 29880.808594
v 20670.716797 34828.300781 29919.291016
v 20501.085938 34954.230469 29895.349609
v 22067.093750 34943.218750 29951.054688
v 22141.273438 35065.679688 29902.458984
v 20356.478516 35211.257812 29848.039062
v 20321.509766 35234.800781 29949.595703
v 22309.578125 35575.332031 29922.054688
v 20210.656250 36049.425781 29823.773438
v 20173.623047 36092.765625 29919.126953
v 22519.650391 36187.953125 29835.302734
v 22510.261719 36262.937500 29762.123047
v 22460.318359 36314.410156 29820.921875
v 22105.250000 36626.371094 29814.296875
v 21169.265625 36773.117188 29794.425781
v 21337.902344 36828.726562 29905.925781
v 21257.804688 34542.582031 29899.603516
v 21887.232422 34570.046875 29904.207031
v 20925.343750 34691.589844 29933.560547
v 21970.275391 34668.000000 29890.396484
v 21979.777344 34762.605469 29949.650391
v 20746.949219 34776.531250 29960.945312
v 20396.830078 35091.226562 29886.253906
v 20438.332031 35007.628906 29939.369141
v 20362.210938 35166.406250 29885.121094
v 22254.541016 35443.937500 29948.351562
v 22424.582031 35936.441406 29980.605469
v 20115.871094 36098.781250 30060.994141
v 22487.605469 36252.148438 29856.968750
v 20354.761719 36382.285156 29948.828125
v 22395.542969 36375.148438 29855.535156
v 20849.746094 36621.343750 29731.736328
v 21039.810547 36675.953125 29951.453125
v 21265.867188 36808.343750 29860.812500
v 21672.255859 36823.785156 29895.136719
v 21643.091797 34397.976562 29893.761719
v 21819.474609 34472.078125 29859.642578
v 21529.765625 34417.367188 29883.638672
v 21690.947266 34473.800781 30002.611328
v 21794.673828 34526.886719 29961.935547
v 21877.630859 34700.320312 30039.449219
v 20593.947266 34866.937500 29959.521484
v 22208.126953 35266.687500 29907.505859
v 20272.304688 35392.828125 30014.158203
v 20258.691406 35626.226562 29907.228516
v 22359.210938 35803.953125 30046.625000
v 22427.605469 35867.617188 29896.130859
v 20192.927734 36211.734375 29915.121094
v 22461.175781 36234.636719 29924.304688
v 20430.083984 36424.968750 29919.230469
v 22007.833984 36575.410156 30114.712891
v 21735.390625 36786.328125 29936.023438
v 21716.289062 34412.214844 29880.710938
v 21624.142578 34440.253906 29983.125000
v 21185.685547 34575.121094 30004.660156
v 21067.906250 34626.320312 29967.548828
v 20528.542969 34901.910156 30020.958984
v 20350.041016 35131.300781 29976.679688
v 22472.003906 36072.464844 29932.843750
v 20179.851562 36265.203125 30091.164062
v 20298.318359 36344.601562 29949.253906
v 22372.421875 36377.082031 29918.742188
v 21946.087891 36718.750000 29836.994141
v 21566.099609 34431.535156 29963.613281
v 21456.742188 34478.273438 30061.666016
v 21346.058594 34501.414062 29949.298828
v 20932.242188 34679.234375 30022.875000
v 20822.865234 34715.949219 30124.386719
v 21984.357422 34840.113281 30006.085938
v 22466.457031 36177.707031 29948.158203
v 20157.380859 36225.433594 30043.535156
v 22407.720703 36282.289062 29981.898438
v 20248.861328 36308.898438 29984.091797
v 20295.525391 36345.726562 30086.814453
v 20356.160156 36375.640625 30099.591797
v 22314.957031 36383.511719 30004.441406
v 20856.662109 36586.500000 29966.707031
v 21949.011719 36654.781250 30001.314453
v 21819.910156 36757.507812 29911.207031
v 21407.367188 36857.671875 29864.667969
v 21600.531250 36801.738281 30023.742188
v 21416.695312 34474.320312 29970.744141
v 21804.386719 34636.765625 30074.333984
v 20752.203125 34751.062500 30114.718750
v 21847.408203 34792.078125 30167.722656
v 20643.509766 34819.113281 30052.306641
v 21966.205078 34925.894531 30105.246094
v 20433.410156 34973.332031 30078.925781
v 22179.583984 35330.558594 30037.925781
v 20196.113281 35963.085938 29896.898438
v 22479.050781 36133.375000 29929.226562
v 20215.535156 36298.320312 30145.919922
v 22357.060547 36342.925781 29995.490234
v 22165.576172 36473.414062 30088.943359
v 21473.322266 36853.218750 29925.166016
v 20376.857422 35072.167969 29997.927734
v 22296.337891 35605.746094 30003.843750
v 20173.820312 35674.539062 30110.765625
v 20114.173828 36138.355469 30073.035156
v 22430.892578 36211.843750 30004.718750
v 22250.421875 36430.863281 30026.400391
v 22152.099609 36516.441406 30006.294922
v 21254.595703 36764.730469 30060.611328
v 21802.013672 36690.230469 30126.091797
v 21431.726562 36817.804688 30049.800781
v 21506.501953 34473.863281 30078.439453
v 21389.828125 34494.445312 30058.824219
v 21242.902344 34553.570312 30099.289062
v 22096.851562 35150.152344 30059.236328
v 22130.880859 35323.660156 30143.625000
v 20241.783203 35454.781250 30070.787109
v 20211.664062 35679.406250 30013.203125
v 22351.644531 35857.156250 30131.097656
v 20167.248047 35838.179688 30033.125000
v 20118.074219 35991.031250 30076.335938
v 22429.957031 36013.421875 30020.609375
v 22433.234375 36101.933594 30037.843750
v 22339.689453 36302.371094 30097.757812
v 22276.064453 36359.000000 30132.945312
v 20451.798828 36413.632812 30125.892578
v 21524.765625 36841.921875 29956.605469
v 21721.527344 34663.804688 30211.398438
v 20367.500000 35029.058594 30129.519531
v 20318.009766 35156.859375 30070.800781
v 20262.306641 35337.621094 30095.695312
v 22397.533203 36180.019531 30123.625000
v 22391.330078 36233.710938 30078.498047
v 20194.574219 36292.679688 30231.091797
v 21018.244141 36627.648438 30195.433594
v 21186.699219 36744.382812 29999.843750
v 21884.017578 36656.031250 30102.310547
v 21304.523438 36776.746094 30093.460938
v 21575.470703 34473.515625 30081.640625
v 21144.138672 34592.882812 30188.890625
v 20991.125000 34649.867188 30087.777344
v 20617.335938 34811.441406 30222.972656
v 21873.628906 34875.500000 30205.591797
v 20293.718750 35202.945312 30110.656250
v 22028.136719 35044.003906 30099.662109
v 22237.763672 35547.976562 30109.974609
v 20128.261719 35856.558594 30110.359375
v 20074.599609 36063.000000 30153.160156
v 20111.101562 36207.226562 30131.617188
v 22313.462891 36266.500000 30236.898438
v 22081.267578 36517.886719 30137.152344
v 20750.580078 36523.406250 30128.193359
v 21660.224609 36743.011719 30133.416016
v 21379.167969 36797.316406 30095.089844
v 21366.785156 34522.843750 30204.753906
v 21595.046875 34534.550781 30184.119141
v 21642.847656 34538.914062 30143.841797
v 21694.912109 34565.347656 30125.287109
v 20577.208984 34848.152344 30139.486328
v 22182.968750 35468.015625 30167.023438
v 20165.484375 35561.906250 30200.482422
v 22308.853516 35759.128906 30144.111328
v 20070.955078 35953.968750 30184.390625
v 20046.111328 36206.460938 30394.054688
v 20290.845703 36339.031250 30239.898438
v 20662.210938 36472.742188 30277.009766
v 21568.382812 36749.167969 30187.460938
v 21443.800781 36773.699219 30179.070312
v 21765.884766 34764.046875 30256.902344
v 20499.656250 34907.269531 30114.574219
v 20263.509766 35246.605469 30176.121094
v 20204.402344 35482.347656 30158.720703
v 22219.361328 35702.355469 30315.755859
v 20099.818359 35791.500000 30199.507812
v 20103.525391 35672.476562 30259.109375
v 20078.281250 36211.500000 30218.009766
v 22265.027344 36308.750000 30293.916016
v 20409.777344 36385.191406 30273.744141
v 22159.523438 36424.980469 30240.322266
v 21740.269531 36710.500000 30142.912109
v 21512.644531 36751.109375 30216.130859
v 21591.632812 34592.941406 30286.558594
v 21645.666016 34638.339844 30281.425781
v 20866.085938 34691.957031 30236.083984
v 21086.671875 34612.992188 30112.703125
v 20745.527344 34739.335938 30373.761719
v 20519.048828 34847.722656 30350.060547
v 20331.058594 35094.062500 30123.617188
v 22089.679688 35267.777344 30177.988281
v 22110.146484 35484.429688 30342.005859
v 20048.113281 35901.218750 30244.015625
v 20071.921875 36147.441406 30175.726562
v 22349.705078 36222.050781 30205.322266
v 20141.689453 36261.320312 30219.130859
v 22210.816406 36377.324219 30250.556641
v 22069.535156 36481.429688 30275.789062
v 21998.253906 36529.535156 30270.371094
v 21844.162109 36627.562500 30235.238281
v 21105.328125 36671.699219 30183.851562
v 21417.023438 34521.640625 30251.089844
v 21286.310547 34543.675781 30171.160156
v 21248.828125 34565.238281 30250.984375
v 21050.833984 34627.722656 30248.802734
v 20711.904297 34757.914062 30269.914062
v 20314.898438 35053.316406 30269.501953
v 21969.925781 35100.031250 30245.773438
v 20270.259766 35161.734375 30249.101562
v 20116.005859 35553.316406 30314.363281
v 22155.351562 35572.214844 30335.404297
v 22357.074219 35935.957031 30182.748047
v 22370.726562 36033.773438 30197.304688
v 19999.705078 36068.328125 30302.169922
v 22356.667969 36165.812500 30244.310547
v 19930.119141 36092.515625 30425.855469
v 20016.863281 36163.519531 30335.400391
v 20948.501953 36586.617188 30262.468750
v 21930.798828 36579.121094 30239.052734
v 21756.658203 36657.449219 30264.076172
v 21699.179688 36653.117188 30338.976562
v 21629.498047 36715.347656 30238.451172
v 21226.818359 36720.015625 30220.060547
v 21325.052734 36748.851562 30222.746094
v 21443.650391 34502.839844 30190.779297
v 21535.783203 34522.238281 30214.923828
v 20391.714844 34953.460938 30283.302734
v 20424.119141 34922.789062 30301.552734
v 20368.515625 34999.050781 30209.214844
v 21877.890625 35023.726562 30328.087891
v 20211.117188 35245.460938 30350.919922
v 21974.160156 35272.453125 30387.144531
v 22040.562500 35249.335938 30254.078125
v 22254.484375 35802.093750 30322.332031
v 20011.277344 36001.929688 30281.634766
v 19998.458984 36115.261719 30321.593750
v 20888.320312 36556.542969 30316.281250
v 21801.390625 36604.773438 30372.738281
v 21870.287109 36578.882812 30351.042969
v 21607.505859 36673.480469 30359.607422
v 21353.716797 36714.937500 30324.384766
v 21545.835938 34604.949219 30358.181641
v 21179.933594 34588.136719 30279.835938
v 20856.880859 34697.359375 30378.140625
v 20602.464844 34799.480469 30371.390625
v 20589.322266 34805.156250 30411.679688
v 21703.792969 34751.097656 30335.085938
v 21912.773438 35175.546875 30400.076172
v 20210.236328 35340.726562 30256.638672
v 20170.753906 35425.929688 30289.234375
v 22057.361328 35473.960938 30424.638672
v 20041.794922 35688.070312 30361.894531
v 19952.335938 35893.234375 30399.177734
v 19971.853516 36147.480469 30427.580078
v 22204.267578 36352.542969 30358.531250
v 21443.365234 36716.671875 30320.085938
v 21441.267578 34557.832031 30345.330078
v 21280.375000 34568.707031 30310.929688
v 21119.041016 34617.878906 30333.865234
v 21570.220703 34649.949219 30391.052734
v 21640.748047 34684.910156 30349.363281
v 20482.710938 34867.960938 30449.435547
v 21786.173828 34890.718750 30347.492188
v 20368.125000 34962.558594 30370.625000
v 20272.597656 35116.625000 30314.158203
v 22154.730469 35719.449219 30468.828125
v 20047.390625 35828.156250 30275.482422
v 19955.089844 35810.542969 30431.095703
v 22277.154297 35959.199219 30399.152344
v 22318.214844 35989.867188 30314.060547
v 22338.138672 36085.746094 30300.898438
v 22337.396484 36145.671875 30303.646484
v 20094.320312 36240.484375 30402.816406
v 20230.373047 36307.968750 30391.052734
v 22007.400391 36490.695312 30414.914062
v 21659.121094 36629.527344 30451.876953
v 21538.056641 36676.980469 30389.619141
v 20801.277344 34727.910156 30453.533203
v 21573.189453 34713.089844 30460.312500
v 20321.779297 35024.890625 30328.146484
v 20119.261719 35455.976562 30384.613281
v 22125.160156 35603.996094 30424.376953
v 22213.173828 35852.320312 30460.265625
v 19971.531250 35954.765625 30353.767578
v 21094.150391 36640.917969 30311.667969
v 21167.208984 36651.578125 30386.613281
v 21260.412109 36693.511719 30340.835938
v 21485.404297 34575.089844 30355.652344
v 20974.013672 34654.679688 30316.898438
v 20649.466797 34782.449219 30439.072266
v 21661.457031 34798.144531 30429.517578
v 20223.246094 35185.886719 30384.906250
v 19971.603516 35739.660156 30445.830078
v 19896.505859 35957.671875 30462.929688
v 19904.554688 36024.898438 30447.197266
v 19886.982422 36066.804688 30490.568359
v 22287.470703 36034.882812 30426.314453
v 22294.042969 36155.996094 30445.548828
v 22242.488281 36295.226562 30415.425781
v 22109.074219 36422.625000 30407.365234
v 21927.146484 36547.777344 30360.242188
v 21013.146484 36593.664062 30401.937500
v 21360.478516 34556.460938 30333.113281
v 21195.970703 34615.210938 30401.609375
v 21082.787109 34643.546875 30407.105469
v 20954.458984 34672.617188 30415.927734
v 20699.701172 34777.554688 30513.660156
v 20322.105469 34997.386719 30454.820312
v 20404.921875 34924.257812 30422.117188
v 21851.908203 35090.195312 30416.914062
v 21794.916016 35086.242188 30481.199219
v 20155.359375 35342.898438 30408.031250
v 20079.351562 35460.058594 30472.626953
v 20062.619141 35559.109375 30415.095703
v 19905.904297 36100.589844 30500.759766
v 19958.902344 36149.277344 30487.980469
v 19941.511719 36135.402344 30551.199219
v 20055.363281 36217.082031 30484.265625
v 22285.621094 36240.984375 30392.015625
v 22182.878906 36330.468750 30507.849609
v 21560.486328 36640.769531 30488.628906
v 21148.177734 34653.144531 30467.767578
v 21383.439453 34578.828125 30383.291016
v 21472.152344 34619.011719 30427.511719
v 21006.488281 34672.082031 30461.890625
v 20572.589844 34825.343750 30522.107422
v 20386.134766 34936.789062 30484.769531
v 21747.449219 34925.078125 30419.628906
v 20241.699219 35124.226562 30450.718750
v 21878.759766 35257.140625 30511.789062
v 21957.279297 35393.996094 30516.886719
v 19885.777344 35808.835938 30537.390625
v 19890.935547 35872.789062 30496.400391
v 22181.845703 35854.207031 30525.835938
v 22218.824219 35952.500000 30521.767578
v 19844.236328 36044.929688 30536.464844
v 22305.681641 36191.855469 30386.884766
v 21739.115234 36611.445312 30432.851562
v 21370.244141 34619.136719 30445.015625
v 21235.173828 34653.800781 30490.060547
v 20818.683594 34732.410156 30489.050781
v 20487.630859 34866.625000 30510.441406
v 21724.775391 34973.972656 30473.533203
v 20192.074219 35198.453125 30501.511719
v 20128.537109 35341.027344 30496.126953
v 20058.585938 35432.062500 30575.988281
v 19973.251953 35630.265625 30523.388672
v 19824.894531 35928.417969 30563.429688
v 22267.150391 36110.773438 30499.820312
v 20838.578125 36525.742188 30437.314453
v 22000.488281 36460.226562 30555.173828
v 21055.234375 36594.156250 30496.923828
v 21123.458984 36616.734375 30485.417969
v 21262.248047 36666.445312 30424.496094
v 21465.224609 36678.371094 30410.392578
v 21215.300781 34688.812500 30525.740234
v 21279.683594 34678.292969 30519.601562
v 21424.472656 34651.937500 30476.978516
v 20886.890625 34730.835938 30519.984375
v 21056.183594 34692.187500 30519.242188
v 21421.089844 34727.566406 30536.828125
v 20865.736328 34763.730469 30560.611328
v 21537.191406 34699.355469 30481.332031
v 20343.349609 34975.781250 30495.230469
v 20259.484375 35091.781250 30539.250000
v 21653.857422 34866.601562 30473.892578
v 21585.917969 34856.308594 30516.291016
v 21656.644531 34964.062500 30521.154297
v 20126.914062 35318.761719 30555.546875
v 21913.855469 35414.476562 30587.830078
v 19967.544922 35578.675781 30602.777344
v 21982.699219 35492.480469 30559.726562
v 22099.736328 35686.160156 30539.011719
v 19871.937500 35756.375000 30598.929688
v 19811.964844 35851.156250 30624.587891
v 19829.296875 35990.910156 30545.906250
v 22262.238281 36162.421875 30521.289062
v 20127.708984 36256.031250 30539.427734
v 22227.794922 36277.855469 30509.460938
v 22074.181641 36427.886719 30489.585938
v 21923.496094 36502.875000 30552.556641
v 21012.937500 34771.746094 30582.425781
v 21280.337891 34734.667969 30551.457031
v 21346.103516 34806.027344 30575.406250
v 20983.208984 34742.410156 30558.826172
v 20868.205078 34798.453125 30595.392578
v 21290.501953 34859.398438 30608.007812
v 20725.892578 34800.128906 30572.435547
v 21427.992188 34815.554688 30564.224609
v 20660.009766 34850.183594 30626.046875
v 20384.728516 34942.988281 30561.523438
v 21504.929688 34820.230469 30543.472656
v 21406.501953 34913.515625 30606.820312
v 20250.015625 35119.503906 30617.935547
v 21495.294922 34933.031250 30587.414062
v 21568.406250 34960.777344 30569.828125
v 21648.140625 35044.562500 30568.562500
v 20182.472656 35217.601562 30591.320312
v 21799.148438 35201.042969 30552.845703
v 21862.308594 35308.218750 30572.468750
v 19882.474609 35695.398438 30647.193359
v 21972.314453 35549.031250 30616.710938
v 19803.494141 36008.070312 30619.107422
v 22212.916016 36028.609375 30573.527344
v 20413.958984 36361.078125 30622.708984
v 20663.125000 36452.214844 30575.408203
v 21812.398438 36562.226562 30516.371094
v 21059.029297 36580.191406 30597.039062
v 21669.298828 36578.277344 30621.681641
v 21356.156250 36675.710938 30426.056641
v 21419.568359 36621.906250 30575.718750
v 21153.013672 34745.531250 30565.484375
v 21117.697266 34812.203125 30600.953125
v 20922.875000 34870.109375 30644.046875
v 21136.388672 34883.449219 30630.365234
v 20491.363281 34882.617188 30588.607422
v 20365.488281 34970.714844 30607.316406
v 20298.976562 35038.433594 30597.441406
v 21350.232422 35021.171875 30655.164062
v 21226.599609 34943.617188 30644.789062
v 21456.402344 35018.941406 30631.361328
v 21558.740234 35095.406250 30630.371094
v 21653.513672 35126.617188 30606.332031
v 20130.021484 35306.000000 30624.515625
v 21814.267578 35311.664062 30613.591797
v 21880.003906 35444.054688 30642.125000
v 19793.603516 35832.503906 30687.183594
v 19846.880859 36061.167969 30619.796875
v 20234.312500 36294.785156 30608.830078
v 20892.042969 36528.832031 30608.900391
v 20840.730469 36494.097656 30724.341797
v 21511.527344 36602.468750 30615.501953
v 21309.408203 36605.281250 30622.978516
v 20828.078125 34847.628906 30635.861328
v 20738.212891 34899.761719 30669.923828
v 20596.763672 34844.695312 30604.728516
v 21055.261719 35012.605469 30697.441406
v 21362.142578 35116.343750 30691.562500
v 20182.863281 35230.617188 30662.523438
v 21199.734375 35106.734375 30717.199219
v 21452.578125 35101.480469 30664.126953
v 21551.656250 35176.855469 30669.064453
v 21734.300781 35151.730469 30572.628906
v 21746.855469 35292.539062 30645.992188
v 20081.625000 35380.890625 30628.705078
v 22134.412109 35826.914062 30585.625000
v 19768.865234 35936.902344 30674.646484
v 19884.953125 36076.992188 30683.863281
v 20005.816406 36172.953125 30597.923828
v 22199.175781 36192.101562 30642.050781
v 20063.310547 36210.941406 30605.683594
v 22259.486328 36204.027344 30521.230469
v 20344.906250 36344.015625 30537.693359
v 22182.285156 36291.070312 30581.800781
v 22088.220703 36376.128906 30610.197266
v 20618.275391 36429.222656 30650.273438
v 21049.468750 36558.464844 30702.437500
v 21232.003906 36619.148438 30564.318359
v 20598.625000 34914.042969 30675.587891
v 20614.488281 34940.800781 30695.251953
v 20436.193359 34944.179688 30647.275391
v 20327.232422 35039.925781 30665.669922
v 20848.542969 34981.375000 30708.261719
v 20130.261719 35322.031250 30736.501953
v 21664.171875 35251.968750 30663.937500
v 19992.541016 35500.546875 30705.046875
v 19932.326172 35600.031250 30682.775391
v 19828.892578 35744.546875 30728.468750
v 22040.484375 35703.425781 30640.996094
v 22162.613281 35949.917969 30619.060547
v 20206.347656 36268.144531 30691.390625
v 22071.707031 36356.878906 30669.101562
v 20648.750000 36425.847656 30733.093750
v 20946.000000 36534.363281 30691.248047
v 21801.816406 36534.316406 30614.511719
v 21949.041016 36457.222656 30636.564453
v 21603.417969 36570.074219 30675.582031
v 21157.218750 36572.152344 30704.417969
v 20411.496094 35038.707031 30719.667969
v 20345.029297 35075.050781 30717.308594
v 20722.960938 34951.335938 30701.519531
v 20278.357422 35105.941406 30674.542969
v 21507.539062 35345.929688 30762.308594
v 20098.060547 35356.949219 30714.765625
v 20024.154297 35456.957031 30764.552734
v 19914.917969 35608.359375 30759.691406
v 21892.382812 35561.058594 30707.123047
v 21977.511719 35646.593750 30680.189453
v 21950.781250 35689.554688 30735.408203
v 22089.708984 35924.417969 30707.250000
v 19787.105469 35963.230469 30730.214844
v 19988.218750 36116.343750 30769.910156
v 22217.552734 36096.101562 30595.109375
v 20031.968750 36167.640625 30695.136719
v 20114.384766 36223.761719 30685.388672
v 22206.240234 36221.066406 30623.431641
v 22163.537109 36255.664062 30661.085938
v 20413.972656 36340.253906 30748.402344
v 20850.335938 36484.625000 30770.900391
v 21997.171875 36392.449219 30711.316406
v 21862.285156 36461.539062 30720.820312
v 21389.445312 36588.960938 30672.605469
v 21490.662109 36573.796875 30698.080078
v 20476.162109 34956.250000 30680.445312
v 20495.667969 35022.035156 30731.648438
v 20567.843750 35040.398438 30749.425781
v 20876.455078 35103.582031 30762.027344
v 21323.044922 35278.417969 30771.408203
v 20187.337891 35250.480469 30727.125000
v 19759.914062 35883.375000 30720.900391
v 22008.720703 35788.699219 30736.718750
v 22143.906250 36009.144531 30673.072266
v 20693.046875 36423.515625 30798.843750
v 21743.847656 36508.347656 30724.015625
v 21833.199219 36452.878906 30761.009766
v 21286.082031 36565.390625 30740.105469
v 20758.570312 35052.328125 30749.439453
v 20250.574219 35183.125000 30735.451172
v 21608.986328 35316.253906 30718.000000
v 21739.806641 35444.378906 30730.113281
v 21828.312500 35469.289062 30696.562500
v 21679.875000 35487.195312 30773.279297
v 19818.820312 35755.230469 30788.755859
v 21935.482422 35779.984375 30798.382812
v 22061.830078 35851.949219 30708.371094
v 20530.746094 36369.750000 30796.929688
v 21657.917969 36519.671875 30753.535156
v 21712.568359 36468.617188 30814.128906
v 20486.011719 35140.097656 30795.906250
v 20588.175781 35169.820312 30816.371094
v 20325.121094 35176.203125 30784.644531
v 20649.910156 35094.664062 30776.384766
v 20116.048828 35371.363281 30816.871094
v 21481.785156 35415.003906 30796.261719
v 19932.019531 35582.589844 30851.964844
v 21661.089844 35571.593750 30817.042969
v 21807.699219 35600.218750 30779.000000
v 21884.812500 35658.085938 30767.289062
v 21994.359375 35875.511719 30801.277344
v 19908.888672 36044.550781 30814.546875
v 22088.464844 36040.390625 30755.064453
v 19966.210938 36067.824219 30848.324219
v 20185.511719 36236.886719 30761.609375
v 22056.041016 36301.140625 30761.615234
v 20164.638672 36200.921875 30828.416016
v 20396.730469 36291.867188 30874.955078
v 21911.503906 36388.035156 30794.214844
v 21788.550781 36426.066406 30828.205078
v 21519.740234 36537.242188 30774.615234
v 21116.250000 36536.000000 30797.074219
v 21403.392578 36554.808594 30760.658203
v 20287.210938 35165.945312 30754.154297
v 20197.695312 35280.281250 30789.939453
v 20425.007812 35134.058594 30783.681641
v 20242.673828 35274.664062 30824.183594
v 20720.023438 35222.429688 30830.484375
v 20832.523438 35290.789062 30848.746094
v 21047.486328 35253.914062 30806.244141
v 21112.210938 35438.796875 30872.984375
v 19976.343750 35537.171875 30907.595703
v 21274.548828 35386.808594 30828.796875
v 21375.433594 35499.882812 30855.474609
v 19885.416016 35643.445312 30846.912109
v 21813.347656 35732.707031 30837.386719
v 21884.716797 35763.234375 30818.699219
v 19810.980469 35987.148438 30762.212891
v 22050.820312 35968.730469 30778.486328
v 22144.433594 36113.480469 30705.570312
v 22136.582031 36166.238281 30722.703125
v 22121.140625 36212.675781 30733.134766
v 20353.763672 36299.507812 30810.324219
v 22031.085938 36299.988281 30790.134766
v 21000.501953 36529.894531 30771.335938
v 21221.240234 36534.378906 30828.871094
v 21392.595703 36520.066406 30848.757812
v 21548.292969 36504.109375 30838.000000
v 21621.105469 36474.687500 30858.347656
v 20321.939453 35249.578125 30837.316406
v 20472.703125 35234.257812 30845.779297
v 20253.933594 35307.347656 30862.130859
v 20542.826172 35293.253906 30875.195312
v 20344.687500 35293.792969 30873.046875
v 20417.148438 35307.722656 30887.732422
v 20635.449219 35331.988281 30887.767578
v 20080.302734 35433.910156 30889.322266
v 20779.730469 35411.078125 30907.699219
v 21075.259766 35543.789062 30918.294922
v 20911.140625 35452.761719 30906.953125
v 21024.412109 35600.343750 30951.613281
v 21568.675781 35626.531250 30863.095703
v 21739.457031 35749.488281 30868.792969
v 19780.791016 35877.714844 30824.363281
v 19884.232422 35953.242188 30912.935547
v 20128.376953 36142.812500 30899.023438
v 22047.601562 36053.132812 30809.097656
v 22075.660156 36136.398438 30786.880859
v 22046.070312 36205.285156 30811.148438
v 20284.845703 36226.867188 30900.839844
v 21955.134766 36343.855469 30813.058594
v 20597.035156 36370.312500 30864.916016
v 21736.146484 36397.921875 30894.179688
v 20833.134766 36448.699219 30849.576172
v 21118.628906 36503.617188 30864.980469
v 20371.683594 35362.843750 30928.701172
v 20148.136719 35373.476562 30871.187500
v 20492.177734 35365.351562 30921.900391
v 20672.550781 35433.730469 30936.339844
v 20044.029297 35453.011719 30845.035156
v 20716.896484 35509.027344 30972.289062
v 20853.220703 35519.777344 30948.673828
v 20881.658203 35595.843750 30982.250000
v 21233.347656 35783.152344 30985.128906
v 19795.964844 35799.207031 30864.080078
v 19831.896484 35756.156250 30930.453125
v 21947.082031 35883.632812 30837.289062
v 19960.275391 35989.000000 30958.773438
v 22002.578125 36057.246094 30850.285156
v 22043.503906 36128.867188 30823.068359
v 21983.501953 36251.765625 30844.470703
v 21896.113281 36308.343750 30876.175781
v 21867.677734 36358.527344 30859.160156
v 21469.898438 36491.191406 30897.064453
v 20194.408203 35372.546875 30909.792969
v 20266.943359 35354.304688 30914.775391
v 20419.888672 35407.355469 30962.054688
v 20486.988281 35450.285156 30985.050781
v 20053.712891 35487.398438 30984.578125
v 21012.085938 35699.195312 31002.890625
v 21356.732422 35736.972656 30943.332031
v 21638.853516 35797.484375 30908.285156
v 21828.154297 35898.316406 30894.482422
v 21797.708984 35986.890625 30930.355469
v 20044.994141 36012.656250 31020.908203
v 21996.923828 35931.148438 30827.878906
v 21906.906250 36012.578125 30900.804688
v 21966.267578 36086.523438 30879.162109
v 21963.679688 36160.714844 30877.998047
v 21857.794922 36264.531250 30915.726562
v 20586.017578 36341.781250 30920.117188
v 20770.189453 36399.843750 30918.593750
v 21592.917969 36444.410156 30906.876953
v 21016.287109 36504.199219 30831.960938
v 20895.527344 36442.566406 30898.544922
v 21029.019531 36472.523438 30894.517578
v 21348.281250 36488.750000 30904.626953
v 21421.292969 36466.820312 30928.921875
v 20116.669922 35438.550781 30955.183594
v 20249.537109 35422.960938 30993.933594
v 20312.160156 35404.300781 30970.828125
v 20633.736328 35521.730469 31002.451172
v 20682.093750 35585.222656 31037.580078
v 19883.853516 35670.613281 30972.283203
v 19805.917969 35822.960938 30907.906250
v 21142.738281 35790.121094 31010.458984
v 21218.306641 35866.695312 31021.126953
v 21362.689453 35905.492188 31001.201172
v 21500.027344 35856.253906 30958.183594
v 21844.347656 36037.105469 30929.433594
v 20203.681641 36138.691406 30981.888672
v 21836.349609 36101.296875 30942.273438
v 21905.750000 36132.367188 30915.013672
v 21842.000000 36199.050781 30939.458984
v 21879.748047 36208.367188 30921.455078
v 20399.445312 36252.656250 30946.335938
v 20570.589844 36312.734375 30963.031250
v 21509.617188 36433.148438 30942.085938
v 21187.761719 36481.468750 30908.671875
v 20180.941406 35425.394531 30979.638672
v 20110.746094 35480.953125 31044.558594
v 20341.287109 35446.003906 31020.957031
v 19927.806641 35610.960938 30982.720703
v 20846.767578 35638.121094 31018.931641
v 21006.843750 35752.656250 31034.285156
v 19825.449219 35879.023438 30904.455078
v 19881.150391 35824.351562 31015.259766
v 21334.363281 35979.671875 31029.238281
v 21499.908203 36028.578125 31008.472656
v 21501.224609 36100.175781 31022.388672
v 21630.458984 35999.566406 30976.199219
v 21702.166016 36122.539062 30984.681641
v 21756.310547 36203.234375 30969.818359
v 21758.132812 36336.742188 30931.857422
v 21704.332031 36378.332031 30929.412109
v 21325.070312 36431.792969 30972.980469
v 20849.890625 35767.031250 31109.847656
v 21216.308594 35943.402344 31047.158203
v 21253.574219 36046.105469 31061.587891
v 21386.445312 36072.488281 31037.958984
v 21306.886719 36167.000000 31062.703125
v 21398.546875 36138.011719 31043.314453
v 21440.132812 36215.601562 31036.726562
v 21567.363281 36238.640625 31014.246094
v 21639.615234 36169.445312 31002.835938
v 20438.072266 36235.820312 30996.707031
v 21700.447266 36269.660156 30980.355469
v 20770.001953 36359.812500 30992.740234
v 21368.753906 36265.757812 31047.796875
v 21452.242188 36294.968750 31024.589844
v 21628.542969 36306.648438 30990.521484
v 21451.294922 36348.226562 31008.037109
v 20960.775391 36410.582031 30968.335938
v 21376.816406 36393.648438 30997.722656
v 21639.849609 36359.925781 30965.083984
v 21095.511719 36442.593750 30951.794922
v 20161.958984 35480.335938 31074.273438
v 20007.441406 35526.632812 31005.962891
v 20824.855469 35691.691406 31067.691406
v 19869.181641 35746.199219 31022.220703
v 19914.595703 35885.265625 31012.529297
v 21157.654297 35999.367188 31079.605469
v 21163.720703 36149.964844 31093.625000
v 20255.218750 36137.265625 31024.859375
v 20545.587891 36239.937500 31045.472656
v 21261.835938 36239.753906 31069.296875
v 21248.669922 36312.460938 31054.361328
v 20688.076172 36307.496094 31031.033203
v 21305.429688 36347.199219 31033.474609
v 21198.564453 36434.687500 30971.666016
v 20493.468750 35509.734375 31040.468750
v 19903.126953 35688.832031 31052.642578
v 19947.255859 35670.792969 31117.818359
v 21093.875000 35874.933594 31061.843750
v 21069.029297 35942.917969 31094.871094
v 21107.152344 36176.468750 31106.595703
v 21120.609375 36241.734375 31095.359375
v 20544.958984 36182.675781 31102.761719
v 20718.052734 36271.554688 31080.890625
v 20879.343750 36322.503906 31075.451172
v 20818.771484 36360.250000 31009.841797
v 20973.285156 36308.785156 31085.886719
v 21152.486328 36368.636719 31031.050781
v 21103.214844 36326.394531 31065.263672
v 20892.939453 36353.800781 31038.105469
v 21051.818359 36388.285156 31009.423828
v 20256.792969 35491.023438 31110.470703
v 19998.171875 35588.367188 31107.121094
v 20631.302734 35619.546875 31101.246094
v 19954.974609 35731.585938 31148.478516
v 20014.886719 35875.039062 31140.091797
v 21137.212891 36076.515625 31095.937500
v 20108.728516 36051.625000 31033.064453
v 20358.792969 36151.242188 31066.246094
v 20373.441406 36119.085938 31109.675781
v 21037.156250 36200.808594 31120.439453
v 21087.843750 36283.941406 31089.365234
v 20986.402344 36274.531250 31105.027344
v 20871.599609 36294.027344 31098.855469
v 20420.140625 35542.925781 31133.410156
v 20060.492188 35539.886719 31110.199219
v 19952.093750 35614.054688 31068.484375
v 20710.919922 35733.652344 31156.468750
v 20827.304688 35828.195312 31147.019531
v 19941.183594 35820.656250 31103.121094
v 20902.613281 36023.265625 31158.242188
v 20985.019531 35969.074219 31128.658203
v 20282.384766 36054.195312 31141.056641
v 20850.660156 36101.691406 31169.880859
v 20665.544922 36210.046875 31116.402344
v 20803.277344 36217.734375 31135.767578
v 20954.507812 36206.707031 31131.080078
v 20199.261719 35525.437500 31136.119141
v 20243.744141 35577.835938 31173.701172
v 20304.109375 35571.554688 31168.251953
v 20347.107422 35627.839844 31192.361328
v 20021.015625 35608.570312 31150.148438
v 20606.070312 35662.535156 31158.285156
v 19915.511719 35777.574219 31092.753906
v 20203.531250 36057.371094 31094.984375
v 20916.056641 36081.738281 31156.972656
v 20556.330078 36136.632812 31141.876953
v 20869.636719 36189.949219 31147.537109
v 20663.097656 36170.035156 31142.218750
v 20783.255859 36130.261719 31170.902344
v 20776.738281 36249.238281 31112.839844
v 20118.447266 35588.500000 31168.390625
v 20129.125000 35661.496094 31203.136719
v 20054.740234 35663.367188 31185.611328
v 20454.683594 35736.074219 31215.015625
v 19991.896484 35686.363281 31163.328125
v 20652.576172 35800.433594 31189.998047
v 20501.173828 35771.375000 31217.423828
v 20799.802734 35911.894531 31173.685547
v 19994.816406 35781.820312 31174.285156
v 20649.013672 35870.234375 31204.673828
v 20049.812500 35930.332031 31124.652344
v 20789.771484 35981.816406 31185.947266
v 20175.103516 35971.246094 31165.347656
v 20275.597656 36009.089844 31176.121094
v 20550.505859 35967.371094 31218.707031
v 20700.687500 35973.886719 31201.853516
v 20424.037109 36097.117188 31146.082031
v 20694.261719 36024.953125 31197.328125
v 20470.421875 36071.265625 31172.191406
v 20600.539062 36088.882812 31175.335938
v 20635.052734 36041.996094 31195.089844
v 20722.015625 36151.218750 31161.095703
v 20256.666016 35644.195312 31206.847656
v 20325.457031 35688.367188 31218.464844
v 20046.480469 35764.503906 31206.539062
v 20117.613281 35749.988281 31222.101562
v 20250.724609 35763.027344 31239.935547
v 20402.820312 35788.414062 31231.644531
v 20075.406250 35886.105469 31175.949219
v 20377.416016 35863.851562 31241.578125
v 20510.373047 35861.417969 31228.384766
v 20311.939453 35844.117188 31254.111328
v 20445.607422 35915.558594 31231.169922
v 20604.285156 35908.550781 31218.429688
v 20404.277344 35946.593750 31225.523438
v 20354.445312 36041.363281 31177.792969
v 20424.917969 36008.910156 31202.691406
v 20518.060547 36019.230469 31201.734375
v 20236.306641 35824.933594 31250.306641
v 20286.089844 35898.050781 31239.486328
v 20151.947266 35920.539062 31190.996094
v 20194.585938 35855.300781 31236.435547
v 20275.093750 35960.082031 31207.535156
# 1377 vertices, 0 vertices normals

f 2 1 3
f 3 22 2
f 3 21 4
f 3 4 22
f 4 21 5
f 6 5 26
f 6 4 5
f 4 6 7
f 4 8 22
f 4 7 8
f 27 22 8
f 59 7 6
f 36 9 34
f 36 11 9
f 42 11 36
f 10 9 14
f 11 13 9
f 14 16 10
f 13 14 9
f 11 12 13
f 14 15 16
f 12 1 13
f 13 1 14
f 12 17 1
f 2 14 1
f 14 19 15
f 15 50 16
f 17 3 1
f 14 2 19
f 19 18 15
f 2 22 19
f 50 15 51
f 51 15 18
f 17 20 3
f 22 25 19
f 19 25 18
f 51 18 23
f 21 3 20
f 55 21 20
f 55 24 21
f 21 24 5
f 18 25 23
f 22 27 25
f 25 28 23
f 58 23 28
f 57 26 24
f 5 24 26
f 25 27 28
f 106 6 26
f 106 59 6
f 8 7 27
f 27 7 29
f 7 59 61
f 7 61 29
f 109 28 29
f 28 27 29
f 61 30 29
f 32 33 31
f 73 78 34
f 35 34 78
f 34 32 73
f 84 35 78
f 35 84 37
f 32 9 33
f 32 34 9
f 31 33 45
f 33 43 45
f 34 35 36
f 35 39 36
f 33 9 10
f 33 10 43
f 37 39 35
f 39 42 36
f 38 39 37
f 38 89 40
f 38 41 39
f 39 41 42
f 40 41 38
f 41 12 42
f 43 44 45
f 40 47 41
f 42 12 11
f 10 44 43
f 40 90 47
f 41 47 12
f 10 16 44
f 90 46 47
f 47 17 12
f 46 48 47
f 47 48 17
f 16 49 44
f 131 44 49
f 20 17 48
f 49 16 50
f 98 48 46
f 131 49 50
f 48 52 20
f 48 98 52
f 52 55 20
f 99 52 98
f 53 50 51
f 99 55 52
f 53 51 56
f 56 51 23
f 24 99 54
f 24 55 99
f 56 23 58
f 54 57 24
f 57 106 26
f 102 106 57
f 28 109 58
f 58 109 105
f 59 60 61
f 29 30 109
f 64 62 120
f 64 63 62
f 120 66 64
f 64 65 63
f 66 69 64
f 64 70 65
f 64 69 70
f 70 67 65
f 68 69 66
f 69 74 70
f 70 123 67
f 70 71 123
f 72 75 68
f 70 74 71
f 69 68 73
f 69 73 74
f 74 73 31
f 76 72 119
f 75 78 68
f 68 78 73
f 73 32 31
f 72 76 79
f 72 79 75
f 74 31 77
f 74 77 71
f 123 71 81
f 71 77 81
f 75 79 84
f 75 84 78
f 76 83 79
f 76 82 83
f 79 83 84
f 123 81 80
f 86 82 85
f 82 89 83
f 82 86 89
f 84 83 37
f 83 38 37
f 89 38 83
f 77 31 45
f 77 91 81
f 81 91 80
f 87 86 85
f 86 87 88
f 86 88 89
f 89 88 40
f 87 90 88
f 90 40 88
f 45 91 77
f 80 91 95
f 87 128 93
f 93 128 92
f 87 93 90
f 94 95 91
f 93 46 90
f 45 94 91
f 93 96 46
f 92 96 93
f 44 94 45
f 94 131 95
f 131 94 44
f 132 46 96
f 132 98 46
f 50 97 131
f 50 53 97
f 97 53 182
f 98 132 135
f 135 99 98
f 182 53 100
f 100 53 101
f 135 136 99
f 56 101 53
f 100 101 103
f 54 99 136
f 56 103 101
f 313 137 136
f 137 54 136
f 137 57 54
f 56 58 103
f 102 315 106
f 58 105 103
f 59 107 60
f 141 103 105
f 107 108 60
f 108 61 60
f 108 30 61
f 108 184 30
f 142 105 109
f 30 184 110
f 109 30 110
f 109 110 142
f 111 112 63
f 111 116 162
f 63 65 111
f 111 65 116
f 113 62 112
f 112 62 63
f 115 114 113
f 113 114 120
f 113 120 62
f 65 117 116
f 116 117 170
f 119 114 115
f 119 120 114
f 117 65 67
f 118 119 115
f 119 66 120
f 67 123 117
f 170 117 164
f 119 72 66
f 66 72 68
f 117 124 164
f 122 118 121
f 118 122 119
f 117 123 124
f 119 122 76
f 124 174 164
f 122 82 76
f 121 82 122
f 121 234 82
f 124 123 80
f 234 85 82
f 124 125 174
f 124 80 126
f 124 126 125
f 174 125 127
f 125 129 127
f 85 346 87
f 80 129 126
f 126 129 125
f 127 129 177
f 128 87 346
f 80 95 129
f 128 130 92
f 129 95 177
f 130 96 92
f 177 95 179
f 95 181 179
f 95 131 181
f 131 240 181
f 131 133 240
f 354 135 132
f 97 133 131
f 133 97 182
f 133 182 134
f 103 139 100
f 182 100 138
f 137 102 57
f 103 140 139
f 100 139 143
f 138 100 143
f 315 246 106
f 106 246 104
f 140 103 141
f 106 104 59
f 104 107 59
f 140 150 139
f 141 145 140
f 142 141 105
f 141 142 145
f 139 150 143
f 140 145 150
f 146 110 144
f 146 142 110
f 142 147 145
f 142 146 147
f 150 145 153
f 147 151 145
f 146 144 321
f 150 194 143
f 146 321 188
f 146 149 147
f 146 188 149
f 147 149 151
f 145 151 153
f 148 149 188
f 148 188 191
f 150 153 194
f 149 148 151
f 191 152 148
f 151 148 153
f 153 195 194
f 148 154 153
f 195 153 154
f 148 152 154
f 157 158 159
f 159 158 207
f 158 157 156
f 157 161 156
f 159 207 112
f 159 111 157
f 157 111 162
f 157 162 161
f 159 112 111
f 162 116 170
f 162 170 165
f 162 166 161
f 163 113 160
f 113 112 160
f 166 162 165
f 115 280 169
f 280 115 163
f 163 115 113
f 165 167 166
f 167 168 166
f 169 118 115
f 170 172 165
f 170 164 172
f 165 172 167
f 167 171 168
f 169 121 118
f 168 171 173
f 167 172 171
f 173 171 175
f 172 174 171
f 172 164 174
f 171 174 175
f 173 175 231
f 175 174 127
f 291 346 85
f 234 291 85
f 175 176 231
f 175 127 176
f 235 231 176
f 178 235 176
f 127 177 176
f 177 179 176
f 176 179 178
f 235 178 237
f 179 180 178
f 237 178 180
f 179 181 180
f 299 132 96
f 180 181 240
f 133 134 240
f 240 134 242
f 135 412 136
f 245 182 138
f 313 244 137
f 244 102 137
f 138 185 245
f 138 143 185
f 182 245 134
f 245 242 134
f 143 186 185
f 144 110 184
f 144 184 249
f 245 185 187
f 194 186 143
f 185 186 189
f 185 189 187
f 363 188 321
f 194 189 186
f 187 190 252
f 251 187 252
f 189 190 187
f 190 196 252
f 190 192 196
f 196 193 252
f 194 195 189
f 189 192 190
f 189 195 192
f 197 152 191
f 192 195 155
f 152 197 258
f 154 155 195
f 152 258 154
f 154 198 155
f 258 198 154
f 200 199 201
f 270 200 264
f 200 206 199
f 202 201 199
f 206 200 270
f 199 206 220
f 199 220 202
f 156 203 271
f 156 204 203
f 210 206 270
f 210 205 206
f 158 274 208
f 274 158 271
f 158 156 271
f 204 156 161
f 207 158 208
f 204 166 209
f 214 213 209
f 209 213 204
f 205 219 206
f 207 212 211
f 204 161 166
f 210 215 205
f 163 211 336
f 160 207 211
f 163 160 211
f 207 160 112
f 214 217 210
f 217 215 210
f 206 222 220
f 209 216 214
f 209 166 216
f 216 217 214
f 215 218 205
f 205 218 219
f 219 222 206
f 280 163 336
f 216 166 168
f 217 216 221
f 217 221 224
f 217 224 215
f 215 224 218
f 337 379 169
f 224 225 218
f 216 168 221
f 221 223 224
f 218 225 219
f 202 220 282
f 202 282 281
f 221 168 173
f 221 173 223
f 222 219 226
f 222 226 220
f 282 220 283
f 379 121 169
f 381 121 379
f 223 227 224
f 226 229 220
f 283 220 229
f 219 225 230
f 219 230 226
f 223 173 227
f 227 228 224
f 224 228 225
f 226 232 284
f 226 230 232
f 226 284 229
f 381 234 121
f 227 173 231
f 225 228 230
f 228 236 230
f 230 236 232
f 284 232 233
f 231 235 227
f 227 235 228
f 236 238 232
f 233 232 238
f 228 235 236
f 449 128 346
f 235 237 236
f 236 237 238
f 237 239 238
f 299 96 130
f 237 180 239
f 354 132 299
f 180 240 241
f 240 242 241
f 239 180 308
f 412 135 354
f 241 308 180
f 309 136 412
f 309 313 136
f 241 243 308
f 242 243 241
f 242 245 243
f 308 243 314
f 243 248 314
f 104 246 107
f 246 183 107
f 243 247 248
f 243 245 247
f 314 248 320
f 183 360 107
f 360 108 107
f 108 249 184
f 360 249 108
f 248 247 250
f 320 248 250
f 249 321 144
f 245 251 247
f 245 187 251
f 247 251 250
f 250 251 253
f 250 253 322
f 252 255 251
f 253 255 256
f 253 251 255
f 253 256 254
f 363 191 188
f 255 252 193
f 196 324 193
f 325 196 192
f 324 196 325
f 192 155 198
f 325 192 198
f 197 326 258
f 258 257 198
f 262 259 260
f 261 262 260
f 259 262 263
f 262 264 263
f 264 200 201
f 263 264 201
f 201 265 263
f 261 270 262
f 262 270 264
f 265 201 202
f 266 265 202
f 267 269 271
f 271 269 268
f 267 272 273
f 267 203 272
f 275 270 261
f 281 266 202
f 338 266 281
f 271 268 274
f 271 203 267
f 203 204 272
f 275 277 270
f 204 213 272
f 277 278 270
f 208 274 276
f 272 277 275
f 272 213 277
f 207 208 212
f 278 210 270
f 211 212 335
f 336 211 279
f 213 214 277
f 277 214 278
f 278 214 210
f 337 169 280
f 338 281 339
f 229 289 283
f 282 283 286
f 289 229 284
f 289 285 283
f 286 283 285
f 284 288 289
f 285 290 286
f 287 286 290
f 288 284 233
f 289 288 292
f 289 292 285
f 285 292 290
f 287 290 344
f 292 294 290
f 300 233 238
f 344 290 294
f 292 293 294
f 294 295 344
f 300 298 233
f 233 298 288
f 288 293 292
f 293 297 294
f 294 297 295
f 288 298 296
f 293 288 296
f 293 296 297
f 297 348 295
f 296 301 297
f 297 301 348
f 296 298 307
f 348 301 350
f 296 305 301
f 239 300 238
f 296 307 305
f 300 304 298
f 350 301 302
f 301 305 302
f 304 300 239
f 305 303 302
f 298 304 307
f 305 306 303
f 304 311 307
f 307 310 305
f 239 308 304
f 310 306 305
f 308 311 304
f 307 311 310
f 306 310 312
f 311 312 310
f 308 314 311
f 244 315 102
f 311 314 316
f 311 316 312
f 312 316 317
f 316 318 317
f 389 246 315
f 314 320 316
f 318 319 317
f 316 320 318
f 320 322 318
f 320 250 322
f 318 322 319
f 319 322 323
f 253 323 322
f 254 323 253
f 365 193 324
f 365 255 193
f 256 255 365
f 363 418 191
f 191 418 197
f 325 394 324
f 197 418 326
f 325 198 327
f 257 327 198
f 366 258 326
f 258 366 257
f 257 366 327
f 328 259 329
f 328 330 260
f 328 260 259
f 330 261 260
f 263 423 259
f 373 423 263
f 332 371 331
f 373 263 265
f 332 331 269
f 269 331 268
f 332 333 374
f 333 372 374
f 372 261 330
f 269 267 332
f 332 267 273
f 333 332 273
f 334 261 372
f 333 273 334
f 274 268 377
f 261 334 275
f 274 377 276
f 273 272 334
f 334 272 275
f 208 276 212
f 212 276 335
f 211 335 279
f 336 279 427
f 337 280 378
f 341 338 339
f 282 339 281
f 282 340 339
f 341 339 340
f 286 340 282
f 286 287 340
f 341 340 342
f 342 340 287
f 287 345 342
f 343 342 345
f 343 345 383
f 344 345 287
f 295 345 344
f 493 449 346
f 348 347 295
f 384 348 349
f 350 349 348
f 350 385 349
f 350 302 386
f 351 350 386
f 302 303 386
f 303 353 386
f 303 352 353
f 352 303 306
f 352 355 353
f 355 387 353
f 312 352 306
f 387 355 356
f 312 355 352
f 414 244 313
f 317 355 312
f 244 388 315
f 317 357 356
f 355 317 356
f 359 415 358
f 359 358 357
f 319 359 357
f 319 357 317
f 436 360 183
f 249 390 321
f 321 390 363
f 362 361 415
f 362 359 323
f 362 415 359
f 323 359 319
f 361 362 364
f 254 364 362
f 254 362 323
f 364 256 437
f 256 364 254
f 365 437 256
f 392 418 363
f 324 391 365
f 324 393 391
f 324 394 393
f 394 327 395
f 327 394 325
f 366 395 327
f 397 367 368
f 370 396 399
f 368 330 328
f 368 328 329
f 369 329 259
f 374 399 371
f 374 370 399
f 372 367 370
f 259 423 369
f 367 372 368
f 331 371 376
f 371 332 374
f 374 372 370
f 368 372 330
f 375 373 265
f 268 331 376
f 401 375 265
f 265 266 401
f 372 333 334
f 338 401 266
f 338 404 401
f 268 376 377
f 403 276 377
f 426 335 276
f 279 335 426
f 279 426 466
f 338 380 404
f 427 280 336
f 341 380 338
f 341 382 380
f 342 343 382
f 341 342 382
f 343 409 382
f 343 429 409
f 343 383 429
f 469 291 234
f 347 383 345
f 493 291 469
f 295 347 345
f 346 291 493
f 348 384 347
f 449 130 128
f 351 385 350
f 386 411 351
f 450 386 353
f 353 387 450
f 433 309 412
f 433 452 309
f 309 414 313
f 452 414 309
f 356 413 387
f 357 358 413
f 356 357 413
f 434 315 388
f 315 434 389
f 389 434 435
f 246 417 183
f 417 436 183
f 361 416 415
f 360 390 249
f 365 391 437
f 393 394 481
f 481 394 395
f 397 419 398
f 398 367 397
f 398 396 367
f 397 368 329
f 369 422 329
f 396 370 367
f 371 399 400
f 400 376 371
f 404 424 401
f 377 376 402
f 403 377 402
f 276 403 426
f 466 427 279
f 380 407 404
f 378 489 337
f 378 280 427
f 405 379 337
f 406 381 379
f 406 379 405
f 381 406 447
f 382 407 380
f 382 408 407
f 408 382 409
f 447 234 381
f 469 234 447
f 410 429 383
f 347 410 383
f 384 410 347
f 351 411 385
f 385 411 473
f 386 450 411
f 475 450 387
f 358 453 413
f 477 453 358
f 414 388 244
f 358 415 477
f 416 499 415
f 416 361 500
f 389 417 246
f 361 364 500
f 360 436 390
f 436 438 390
f 363 390 438
f 363 438 392
f 437 500 364
f 502 418 392
f 391 439 437
f 393 460 439
f 393 439 391
f 481 460 393
f 396 398 461
f 397 420 419
f 422 397 329
f 422 420 397
f 400 399 421
f 421 399 396
f 369 423 442
f 375 462 373
f 400 402 376
f 401 443 375
f 401 424 443
f 424 404 425
f 466 426 487
f 407 425 404
f 488 378 529
f 489 378 488
f 529 378 427
f 405 337 489
f 407 444 425
f 407 445 444
f 408 445 407
f 408 409 428
f 445 408 428
f 409 446 428
f 429 446 409
f 429 410 448
f 448 410 430
f 384 430 410
f 385 431 384
f 385 384 349
f 432 385 473
f 411 450 473
f 495 354 299
f 497 412 354
f 387 413 475
f 497 451 412
f 451 433 412
f 388 536 434
f 415 499 477
f 416 454 499
f 389 435 417
f 435 455 417
f 417 478 436
f 455 478 417
f 456 438 436
f 502 392 479
f 502 458 418
f 326 418 440
f 441 366 480
f 441 395 366
f 481 395 441
f 461 398 419
f 461 421 396
f 524 420 422
f 369 524 422
f 423 462 442
f 373 462 423
f 463 462 375
f 463 375 443
f 425 443 424
f 507 509 402
f 403 402 509
f 426 403 465
f 426 465 487
f 513 425 490
f 427 466 529
f 444 490 425
f 467 447 406
f 491 445 428
f 448 446 429
f 448 430 470
f 384 431 430
f 431 494 430
f 432 473 472
f 450 475 496
f 476 433 451
f 476 452 433
f 437 501 500
f 478 456 436
f 479 438 456
f 438 479 392
f 437 457 501
f 439 457 437
f 439 459 457
f 440 418 458
f 460 482 459
f 460 459 439
f 480 326 440
f 481 482 460
f 326 480 366
f 419 523 461
f 419 420 523
f 421 461 483
f 504 420 524
f 442 541 369
f 421 464 400
f 462 463 484
f 402 400 507
f 400 464 507
f 425 486 443
f 465 403 509
f 425 513 486
f 512 466 487
f 490 444 468
f 445 468 444
f 469 447 467
f 428 446 491
f 446 448 470
f 385 432 431
f 431 432 471
f 432 472 471
f 450 474 473
f 496 474 450
f 495 516 354
f 516 497 354
f 550 451 497
f 476 451 550
f 534 452 476
f 414 535 388
f 536 388 535
f 600 435 434
f 435 600 455
f 456 478 455
f 456 538 479
f 521 503 480
f 480 503 441
f 441 503 481
f 522 461 523
f 541 524 369
f 506 541 442
f 421 483 525
f 442 462 506
f 506 462 484
f 464 421 525
f 526 464 525
f 484 463 485
f 443 485 463
f 464 526 507
f 486 485 443
f 465 509 510
f 511 487 510
f 510 487 465
f 529 466 512
f 489 530 405
f 514 406 405
f 514 467 406
f 468 545 490
f 560 469 467
f 491 468 445
f 546 469 560
f 546 493 469
f 470 492 446
f 430 492 470
f 494 492 430
f 471 494 431
f 299 449 495
f 130 449 299
f 472 473 533
f 533 473 474
f 497 516 532
f 498 476 550
f 534 476 498
f 534 414 452
f 535 414 552
f 416 537 454
f 600 518 455
f 518 456 455
f 631 501 457
f 457 459 631
f 440 520 480
f 480 520 521
f 482 481 503
f 540 482 503
f 603 482 540
f 482 603 459
f 483 461 522
f 420 504 523
f 506 505 541
f 508 509 507
f 508 557 509
f 486 528 485
f 487 511 527
f 512 487 527
f 489 488 530
f 530 514 405
f 468 547 545
f 491 547 468
f 515 493 546
f 491 446 492
f 531 449 493
f 449 531 495
f 496 475 580
f 532 550 497
f 580 475 413
f 453 580 413
f 552 414 534
f 499 553 477
f 454 553 499
f 536 517 434
f 434 517 600
f 416 500 537
f 537 500 582
f 582 501 631
f 500 501 582
f 518 538 456
f 538 583 479
f 583 519 479
f 519 502 479
f 519 458 502
f 539 458 519
f 458 539 440
f 539 520 440
f 555 522 523
f 484 505 506
f 542 505 484
f 485 542 484
f 508 507 526
f 485 588 542
f 558 588 485
f 587 557 508
f 528 558 485
f 510 509 557
f 557 511 510
f 513 528 486
f 530 488 559
f 573 513 490
f 548 547 491
f 491 492 548
f 515 531 493
f 471 472 533
f 495 577 516
f 532 516 577
f 532 563 550
f 453 477 581
f 581 477 599
f 477 553 599
f 568 553 454
f 454 537 568
f 518 601 538
f 602 539 519
f 648 520 539
f 520 648 521
f 663 503 521
f 606 522 555
f 504 554 523
f 504 524 554
f 525 483 522
f 526 525 585
f 528 569 558
f 512 527 543
f 529 512 543
f 488 529 571
f 528 513 573
f 573 490 544
f 490 545 544
f 613 515 546
f 613 531 515
f 531 613 658
f 471 615 494
f 533 562 471
f 577 495 531
f 532 577 563
f 580 579 496
f 474 496 579
f 549 550 563
f 581 580 453
f 550 549 551
f 551 498 550
f 498 566 534
f 566 552 534
f 535 552 618
f 535 618 567
f 535 567 536
f 567 517 536
f 538 601 583
f 584 539 602
f 584 648 539
f 648 663 521
f 523 554 555
f 554 524 541
f 505 556 541
f 556 554 541
f 505 605 556
f 586 505 542
f 587 508 624
f 570 543 527
f 527 511 570
f 543 570 610
f 528 572 569
f 571 529 543
f 528 573 572
f 592 559 488
f 593 514 530
f 593 574 514
f 514 574 467
f 467 574 560
f 545 611 544
f 547 611 545
f 548 492 576
f 561 576 492
f 494 561 492
f 561 494 615
f 562 615 471
f 658 577 531
f 577 578 563
f 563 578 564
f 563 564 549
f 597 579 580
f 549 564 616
f 616 551 549
f 498 551 565
f 565 566 498
f 552 566 598
f 598 618 552
f 517 645 600
f 583 602 519
f 663 689 503
f 689 540 503
f 621 554 556
f 604 606 555
f 605 621 556
f 634 525 522
f 586 605 505
f 585 508 526
f 588 586 542
f 558 589 588
f 557 587 590
f 569 589 558
f 570 511 590
f 590 511 557
f 610 571 543
f 488 571 592
f 559 591 530
f 530 591 593
f 575 560 574
f 575 546 560
f 612 613 546
f 561 615 576
f 680 658 613
f 533 474 579
f 565 551 641
f 641 629 565
f 565 629 566
f 629 598 566
f 567 645 517
f 582 670 537
f 568 537 670
f 583 601 698
f 631 459 647
f 554 604 555
f 554 621 604
f 632 606 604
f 606 650 522
f 634 522 650
f 586 608 605
f 525 634 585
f 623 508 585
f 624 635 587
f 589 609 588
f 637 589 569
f 572 637 569
f 625 571 610
f 559 592 591
f 626 593 591
f 575 612 546
f 611 547 594
f 548 594 547
f 548 576 594
f 562 595 615
f 658 578 577
f 533 579 659
f 578 596 564
f 596 616 564
f 580 581 597
f 639 551 616
f 639 628 551
f 641 551 628
f 553 568 630
f 647 459 620
f 607 621 605
f 608 607 605
f 634 623 585
f 651 608 586
f 624 508 623
f 651 586 609
f 624 703 635
f 609 586 588
f 609 589 653
f 637 653 589
f 590 610 570
f 592 664 591
f 664 626 591
f 572 573 677
f 575 574 593
f 657 677 544
f 576 615 614
f 682 658 680
f 658 683 578
f 659 579 638
f 579 617 638
f 579 597 617
f 581 599 630
f 598 629 642
f 642 618 598
f 599 553 630
f 568 669 630
f 670 582 619
f 645 518 600
f 698 602 583
f 671 584 602
f 459 603 620
f 606 633 650
f 572 677 707
f 692 593 626
f 573 544 677
f 544 611 657
f 679 613 612
f 576 614 665
f 614 615 595
f 683 658 682
f 595 562 627
f 533 627 562
f 659 627 533
f 617 597 640
f 630 640 581
f 597 581 640
f 642 643 618
f 688 567 618
f 669 568 662
f 698 671 602
f 622 632 604
f 622 604 621
f 632 633 606
f 634 676 623
f 720 607 608
f 624 623 747
f 587 635 652
f 590 587 652
f 590 654 610
f 571 656 592
f 692 575 593
f 594 576 665
f 595 627 684
f 667 616 596
f 667 639 616
f 641 642 629
f 630 661 640
f 661 630 644
f 669 644 630
f 662 568 670
f 601 518 645
f 582 631 646
f 699 631 647
f 646 631 699
f 699 647 672
f 689 649 540
f 603 540 649
f 622 621 607
f 674 633 632
f 650 675 634
f 720 719 607
f 675 676 634
f 635 703 636
f 652 635 636
f 654 625 610
f 637 572 655
f 655 572 707
f 571 625 656
f 693 612 575
f 594 657 611
f 657 594 708
f 665 708 594
f 679 680 613
f 724 665 614
f 595 681 614
f 640 695 668
f 617 640 668
f 638 617 668
f 628 660 641
f 660 642 641
f 643 688 618
f 714 567 688
f 714 645 567
f 619 582 646
f 620 672 647
f 671 700 584
f 584 716 648
f 700 716 584
f 648 716 673
f 673 663 648
f 622 701 632
f 633 675 650
f 690 720 608
f 651 690 608
f 703 624 747
f 590 652 654
f 654 721 625
f 656 625 732
f 691 664 592
f 592 656 691
f 706 575 692
f 706 693 575
f 724 708 665
f 681 724 614
f 666 682 680
f 595 772 681
f 684 627 685
f 659 685 627
f 685 659 638
f 754 711 667
f 667 711 639
f 686 695 640
f 639 711 628
f 661 687 686
f 661 686 640
f 756 660 628
f 644 687 661
f 728 714 688
f 714 778 645
f 672 620 742
f 603 649 620
f 673 689 663
f 607 701 622
f 719 701 607
f 763 676 675
f 747 623 676
f 637 655 705
f 750 626 664
f 750 664 691
f 692 626 750
f 657 678 677
f 693 679 612
f 679 734 680
f 772 595 684
f 578 683 596
f 685 638 694
f 695 694 668
f 694 638 668
f 738 628 711
f 738 756 628
f 756 696 660
f 740 688 643
f 669 741 687
f 669 687 644
f 662 741 669
f 670 713 662
f 670 619 713
f 601 645 697
f 761 671 698
f 715 742 620
f 620 649 715
f 701 674 632
f 717 763 675
f 653 637 705
f 732 625 721
f 733 693 706
f 708 722 657
f 666 680 734
f 666 709 682
f 709 683 682
f 683 710 596
f 667 596 710
f 695 686 712
f 687 712 686
f 642 727 643
f 727 740 643
f 741 757 687
f 662 713 741
f 730 689 673
f 743 689 730
f 743 649 689
f 719 718 701
f 785 717 675
f 675 633 785
f 702 747 676
f 703 746 636
f 609 731 651
f 652 704 654
f 654 704 721
f 787 656 732
f 734 679 693
f 678 657 722
f 736 709 666
f 772 684 773
f 773 684 685
f 710 754 667
f 694 695 755
f 660 727 642
f 696 727 660
f 740 728 688
f 645 778 697
f 697 761 601
f 646 699 619
f 761 698 601
f 700 671 783
f 716 730 673
f 786 674 701
f 674 785 633
f 676 763 702
f 747 746 703
f 652 636 766
f 651 731 690
f 704 652 766
f 609 653 731
f 655 790 705
f 656 787 789
f 789 691 656
f 767 750 691
f 655 707 768
f 692 750 706
f 733 706 769
f 707 677 751
f 677 678 751
f 809 693 733
f 809 734 693
f 723 666 734
f 722 708 735
f 708 724 735
f 725 709 736
f 725 683 709
f 683 725 710
f 773 685 831
f 685 775 831
f 775 685 694
f 754 738 711
f 695 712 755
f 738 726 756
f 687 739 712
f 687 757 739
f 761 783 671
f 715 729 782
f 715 782 742
f 784 716 700
f 743 729 649
f 649 729 715
f 786 785 674
f 701 718 786
f 762 717 785
f 702 765 747
f 720 690 745
f 766 636 746
f 769 706 750
f 707 793 768
f 751 793 707
f 752 751 678
f 736 666 723
f 794 724 681
f 737 827 736
f 827 753 736
f 736 753 725
f 758 741 713
f 758 713 759
f 699 779 619
f 759 619 779
f 713 619 759
f 742 780 672
f 784 700 783
f 716 784 730
f 717 764 763
f 745 744 719
f 720 745 719
f 764 803 702
f 702 763 764
f 765 702 803
f 745 690 807
f 690 731 807
f 766 746 748
f 749 732 721
f 721 704 749
f 749 788 732
f 787 732 788
f 769 791 733
f 791 809 733
f 810 734 809
f 734 810 723
f 678 722 771
f 752 678 771
f 810 770 723
f 770 737 723
f 736 723 737
f 724 794 735
f 794 681 772
f 795 710 725
f 795 725 753
f 710 795 774
f 774 754 710
f 755 775 694
f 796 777 754
f 738 754 777
f 777 726 738
f 741 860 757
f 741 758 860
f 728 797 714
f 797 778 714
f 699 760 779
f 699 672 760
f 729 743 782
f 744 786 718
f 744 718 719
f 849 746 747
f 747 765 849
f 821 745 807
f 704 766 805
f 731 653 823
f 823 653 705
f 767 691 789
f 769 750 767
f 655 768 790
f 722 735 771
f 812 827 737
f 813 753 827
f 813 844 753
f 844 795 753
f 796 754 774
f 776 777 796
f 739 757 815
f 758 759 835
f 799 760 798
f 779 760 799
f 697 845 761
f 798 760 780
f 780 760 672
f 782 800 781
f 742 782 781
f 742 781 780
f 800 782 743
f 801 730 784
f 817 762 785
f 802 848 786
f 802 786 744
f 818 764 717
f 744 745 820
f 820 745 821
f 804 746 849
f 748 746 804
f 805 749 704
f 705 790 823
f 790 768 808
f 768 793 792
f 752 793 751
f 810 841 770
f 794 772 829
f 829 772 830
f 830 772 773
f 795 776 774
f 776 796 774
f 712 879 755
f 879 775 755
f 776 814 777
f 814 726 777
f 726 833 756
f 815 859 739
f 833 696 756
f 834 727 696
f 860 758 835
f 835 759 861
f 759 779 861
f 697 778 845
f 799 861 779
f 783 761 845
f 781 798 780
f 837 743 816
f 800 743 837
f 816 743 730
f 817 785 786
f 848 817 786
f 766 748 805
f 731 823 807
f 789 787 840
f 840 767 789
f 825 769 767
f 825 852 769
f 768 792 808
f 852 791 769
f 792 793 811
f 793 752 811
f 735 794 843
f 794 829 843
f 830 773 831
f 795 855 776
f 832 831 775
f 876 726 814
f 712 739 859
f 833 834 696
f 797 728 910
f 845 846 783
f 847 783 846
f 847 784 783
f 847 801 784
f 801 816 730
f 762 863 818
f 762 818 717
f 818 803 764
f 820 802 744
f 819 849 765
f 819 765 803
f 805 806 749
f 822 749 806
f 869 749 822
f 787 788 824
f 869 788 749
f 840 787 824
f 840 825 767
f 872 809 791
f 809 872 810
f 872 841 810
f 874 812 770
f 771 842 752
f 770 812 737
f 842 771 826
f 735 826 771
f 812 853 827
f 826 735 843
f 829 830 857
f 844 855 795
f 831 857 830
f 875 814 776
f 875 876 814
f 775 897 832
f 876 878 726
f 859 879 712
f 879 897 775
f 1013 740 727
f 860 815 757
f 837 881 800
f 781 800 836
f 836 800 881
f 915 837 816
f 866 804 849
f 821 839 820
f 805 850 806
f 850 805 748
f 851 821 807
f 824 788 869
f 889 825 840
f 823 790 870
f 889 852 825
f 791 852 872
f 841 872 873
f 874 770 841
f 853 828 827
f 813 827 828
f 831 858 857
f 832 858 831
f 726 878 833
f 859 815 880
f 940 860 835
f 797 862 778
f 862 845 778
f 898 967 798
f 798 967 799
f 836 898 781
f 798 781 898
f 863 762 817
f 883 863 817
f 864 819 803
f 818 864 803
f 849 865 866
f 804 838 748
f 748 838 850
f 902 822 806
f 807 823 851
f 824 869 868
f 868 840 824
f 870 790 808
f 792 811 891
f 873 874 841
f 842 811 752
f 826 843 894
f 843 829 895
f 813 854 844
f 854 855 844
f 856 776 855
f 856 875 776
f 897 858 832
f 834 1013 727
f 880 815 860
f 1013 728 740
f 941 861 799
f 799 967 941
f 846 845 862
f 846 862 913
f 881 837 915
f 847 914 801
f 801 970 816
f 914 970 801
f 970 915 816
f 864 818 863
f 884 848 802
f 866 865 885
f 849 819 865
f 802 820 884
f 838 804 866
f 901 867 838
f 838 867 850
f 867 886 850
f 821 851 839
f 806 850 886
f 902 806 886
f 869 822 887
f 851 823 888
f 869 924 868
f 868 889 840
f 870 888 823
f 904 872 852
f 808 792 891
f 891 811 932
f 907 853 874
f 853 812 874
f 893 813 828
f 893 854 813
f 854 893 908
f 936 855 854
f 936 854 908
f 896 856 855
f 936 896 855
f 875 856 896
f 909 857 858
f 877 878 876
f 878 938 833
f 938 834 833
f 911 835 861
f 912 913 862
f 969 898 836
f 846 913 914
f 846 914 847
f 883 817 884
f 848 884 817
f 883 882 864
f 883 864 863
f 882 885 865
f 865 864 882
f 864 865 819
f 885 901 866
f 923 884 820
f 838 866 901
f 839 923 820
f 924 869 887
f 889 904 852
f 888 870 871
f 904 905 872
f 890 871 870
f 808 890 870
f 905 873 872
f 890 808 891
f 907 874 873
f 932 811 933
f 811 842 933
f 842 826 933
f 892 853 907
f 828 853 892
f 893 828 892
f 843 895 894
f 895 829 857
f 939 859 880
f 910 862 797
f 911 861 941
f 969 836 881
f 900 882 883
f 899 900 883
f 899 883 884
f 882 920 885
f 900 920 882
f 919 901 885
f 885 920 919
f 867 901 919
f 886 867 996
f 926 923 839
f 851 926 839
f 951 924 887
f 951 887 822
f 822 902 951
f 888 926 851
f 925 889 868
f 903 926 888
f 904 889 925
f 903 888 871
f 929 905 904
f 905 906 873
f 890 891 960
f 906 931 873
f 931 907 873
f 907 934 892
f 826 1006 933
f 1006 826 894
f 892 908 893
f 936 963 896
f 963 988 896
f 988 875 896
f 875 877 876
f 988 877 875
f 859 939 879
f 939 1012 879
f 1012 897 879
f 1012 858 897
f 1013 966 728
f 835 911 940
f 910 990 862
f 990 912 862
f 915 992 881
f 900 917 916
f 899 917 900
f 899 918 917
f 884 918 899
f 916 920 900
f 884 923 918
f 919 920 945
f 918 921 917
f 921 918 923
f 922 919 945
f 948 919 922
f 867 919 948
f 996 867 948
f 952 921 923
f 976 902 886
f 923 927 952
f 926 927 923
f 978 925 868
f 868 924 978
f 926 928 927
f 903 928 926
f 958 904 925
f 903 959 928
f 959 903 871
f 905 929 906
f 959 871 890
f 960 959 890
f 960 891 930
f 891 932 930
f 907 931 961
f 961 934 907
f 932 1029 962
f 1029 932 933
f 908 892 935
f 895 857 964
f 858 937 909
f 877 1009 878
f 1011 938 878
f 880 860 940
f 728 966 910
f 912 968 913
f 968 1018 913
f 1018 914 913
f 970 971 915
f 915 971 992
f 917 943 916
f 916 943 972
f 917 921 943
f 920 942 945
f 942 920 916
f 942 916 972
f 943 973 972
f 944 943 921
f 943 947 973
f 947 943 944
f 948 922 946
f 946 922 945
f 949 944 921
f 996 976 886
f 944 949 953
f 952 949 921
f 976 951 902
f 947 944 953
f 951 977 924
f 977 978 924
f 953 949 955
f 955 949 952
f 956 952 927
f 955 952 956
f 954 925 978
f 928 956 927
f 957 956 928
f 958 925 954
f 958 929 904
f 928 1003 957
f 959 1003 928
f 984 929 958
f 929 984 1005
f 1005 906 929
f 930 932 962
f 935 892 934
f 895 1030 894
f 1007 936 908
f 895 964 1030
f 963 936 1007
f 988 963 1126
f 964 857 909
f 1009 877 988
f 1009 1011 878
f 858 1012 937
f 989 834 938
f 989 1013 834
f 965 966 1013
f 912 990 1034
f 898 1035 967
f 1037 969 881
f 1018 970 914
f 973 942 972
f 947 975 973
f 945 942 946
f 942 974 946
f 974 942 973
f 946 974 994
f 975 974 973
f 980 975 947
f 950 948 946
f 994 950 946
f 950 996 948
f 979 980 947
f 953 979 947
f 1042 999 954
f 999 958 954
f 981 979 953
f 955 981 953
f 980 998 1000
f 982 981 955
f 982 955 956
f 980 979 998
f 1001 979 981
f 1001 981 982
f 983 956 957
f 982 956 983
f 998 979 1001
f 984 958 999
f 985 1003 959
f 985 959 960
f 1005 1026 906
f 986 985 960
f 930 986 960
f 906 1027 931
f 1048 930 962
f 1029 1048 962
f 1028 987 961
f 987 934 961
f 933 1006 1029
f 935 934 987
f 908 935 1070
f 1007 908 1070
f 1051 963 1007
f 1051 1126 963
f 1008 988 1126
f 988 1008 1009
f 1012 939 1014
f 1016 966 965
f 880 940 1015
f 1015 940 911
f 1016 990 966
f 990 910 966
f 991 1034 990
f 1035 941 967
f 1034 968 912
f 1035 898 969
f 992 1037 881
f 970 993 971
f 994 995 950
f 950 995 1019
f 974 995 994
f 1041 995 974
f 1022 978 977
f 1022 977 1021
f 1041 974 1023
f 1023 974 975
f 1022 1042 978
f 1042 954 978
f 975 997 1067
f 1023 975 1067
f 980 997 975
f 980 1000 997
f 1000 998 1068
f 982 1002 1001
f 1024 984 999
f 1025 1002 982
f 1025 982 983
f 1043 998 1001
f 1079 1001 1002
f 1079 1002 1025
f 1003 983 957
f 984 1044 1005
f 984 1024 1044
f 1025 983 1004
f 1004 983 1003
f 1004 1003 985
f 906 1026 1027
f 961 931 1027
f 1028 961 1027
f 935 987 1070
f 894 1030 1006
f 1010 909 937
f 938 1055 1031
f 1011 1055 938
f 1031 989 938
f 1012 1056 937
f 989 965 1013
f 939 880 1014
f 880 1015 1014
f 1033 991 1016
f 1016 991 990
f 1036 911 941
f 1035 1036 941
f 1017 1018 968
f 1018 993 970
f 976 1021 977
f 1021 976 996
f 1020 1019 995
f 977 951 976
f 1041 1020 995
f 999 1042 1069
f 1024 999 1069
f 1043 1001 1079
f 1044 1045 1005
f 1026 1005 1045
f 1027 1026 1046
f 1047 986 930
f 930 1048 1047
f 1029 1006 1085
f 1100 1008 1126
f 1030 964 1072
f 964 1053 1072
f 909 1053 964
f 1054 1008 1052
f 1054 1009 1008
f 1010 1053 909
f 1009 1054 1011
f 1054 1055 1011
f 1056 1010 937
f 1014 1057 1056
f 1014 1056 1012
f 1031 1058 989
f 989 1058 965
f 1014 1015 1032
f 1016 965 1058
f 1016 1058 1033
f 911 1060 1015
f 1036 1060 911
f 1017 968 1034
f 1017 1038 1018
f 1062 992 971
f 1038 993 1018
f 993 1062 971
f 996 1019 1064
f 950 1019 996
f 996 1064 1021
f 1021 1064 1039
f 1040 1022 1021
f 1039 1040 1021
f 1022 1112 1042
f 1078 1042 1112
f 997 1000 1118
f 1043 1068 998
f 1080 1079 1025
f 1025 1004 1080
f 1004 1081 1080
f 986 1081 985
f 985 1081 1004
f 1081 986 1047
f 1027 1046 1028
f 1123 1083 1028
f 1028 1046 1123
f 1071 1049 1048
f 1071 1048 1029
f 1085 1071 1029
f 987 1028 1070
f 1152 1051 1007
f 1070 1152 1007
f 1050 1085 1006
f 1030 1050 1006
f 1030 1072 1050
f 1052 1008 1100
f 1052 1055 1054
f 1103 1031 1055
f 1032 1057 1014
f 1058 1086 1033
f 1032 1015 1060
f 1073 991 1033
f 1061 1060 1036
f 1034 991 1059
f 1035 1061 1036
f 969 1074 1035
f 1076 993 1038
f 1062 993 1076
f 1062 1063 992
f 992 1063 1037
f 1019 1065 1064
f 1064 1065 1039
f 1020 1065 1019
f 1066 1065 1020
f 1066 1020 1041
f 1066 1041 1092
f 1092 1041 1077
f 1040 1112 1022
f 1077 1041 1023
f 1042 1078 1069
f 1026 1045 1095
f 1046 1026 1095
f 1049 1047 1048
f 1103 1131 1031
f 1031 1131 1058
f 1032 1104 1057
f 1032 1060 1104
f 1075 1107 1060
f 1061 1075 1060
f 1061 1035 1074
f 1075 1061 1074
f 1109 1063 1111
f 1109 1037 1063
f 1037 1087 969
f 1074 969 1087
f 1038 1017 1133
f 1062 1076 1111
f 1062 1111 1063
f 1065 1114 1039
f 1065 1089 1114
f 1089 1065 1066
f 1091 1112 1040
f 1039 1091 1040
f 1067 1077 1023
f 997 1118 1067
f 1113 1024 1069
f 1093 1044 1024
f 1082 1043 1079
f 1082 1079 1080
f 1082 1080 1097
f 1097 1080 1081
f 1046 1095 1123
f 1081 1047 1098
f 1098 1047 1049
f 1084 1098 1049
f 1070 1028 1083
f 1099 1049 1071
f 1099 1071 1085
f 1126 1051 1152
f 1085 1050 1127
f 1102 1052 1100
f 1102 1105 1052
f 1072 1053 1128
f 1053 1010 1128
f 1105 1055 1052
f 1105 1103 1055
f 1010 1056 1057
f 1131 1106 1058
f 1106 1086 1058
f 1060 1132 1104
f 1086 1073 1033
f 1060 1159 1132
f 1073 1059 991
f 1060 1107 1159
f 1133 1059 1162
f 1133 1034 1059
f 1034 1133 1017
f 1109 1111 1135
f 1136 1087 1109
f 1087 1088 1074
f 1074 1088 1075
f 1133 1110 1038
f 1134 1038 1110
f 1037 1109 1087
f 1038 1134 1076
f 1076 1134 1111
f 1066 1090 1089
f 1092 1090 1066
f 1114 1091 1039
f 1114 1138 1091
f 1092 1077 1116
f 1116 1077 1067
f 1113 1069 1078
f 1112 1113 1078
f 1121 1118 1000
f 1000 1068 1121
f 1093 1024 1113
f 1094 1068 1043
f 1044 1168 1045
f 1044 1093 1168
f 1121 1068 1094
f 1168 1120 1045
f 1095 1045 1120
f 1082 1094 1043
f 1096 1094 1082
f 1096 1082 1124
f 1124 1082 1097
f 1098 1097 1081
f 1124 1097 1098
f 1083 1123 1173
f 1173 1070 1083
f 1070 1173 1152
f 1085 1127 1194
f 1153 1100 1126
f 1050 1072 1101
f 1010 1129 1128
f 1010 1130 1129
f 1130 1057 1104
f 1057 1130 1010
f 1105 1131 1103
f 1106 1160 1086
f 1162 1059 1073
f 1075 1088 1108
f 1075 1108 1107
f 1087 1136 1137
f 1087 1137 1088
f 1089 1139 1114
f 1090 1139 1089
f 1141 1139 1090
f 1092 1116 1090
f 1115 1113 1112
f 1091 1115 1112
f 1141 1090 1116
f 1067 1117 1116
f 1118 1117 1067
f 1113 1115 1165
f 1093 1113 1165
f 1119 1118 1121
f 1168 1093 1145
f 1119 1117 1118
f 1122 1119 1121
f 1122 1121 1094
f 1150 1122 1094
f 1096 1150 1094
f 1096 1151 1150
f 1151 1096 1124
f 1125 1124 1098
f 1084 1125 1098
f 1084 1049 1099
f 1175 1084 1099
f 1194 1099 1085
f 1101 1127 1050
f 1101 1072 1128
f 1128 1129 1156
f 1132 1157 1130
f 1104 1132 1130
f 1160 1073 1086
f 1135 1182 1109
f 1182 1136 1109
f 1133 1202 1110
f 1111 1134 1135
f 1138 1115 1091
f 1142 1138 1114
f 1114 1139 1142
f 1138 1140 1115
f 1143 1142 1139
f 1143 1139 1141
f 1140 1165 1115
f 1140 1138 1142
f 1166 1143 1141
f 1116 1144 1141
f 1166 1141 1144
f 1165 1145 1093
f 1166 1144 1167
f 1146 1144 1116
f 1146 1116 1117
f 1167 1144 1146
f 1148 1146 1117
f 1117 1119 1148
f 1147 1148 1119
f 1147 1119 1122
f 1149 1148 1147
f 1147 1122 1189
f 1150 1189 1122
f 1151 1190 1150
f 1152 1173 1213
f 1213 1234 1152
f 1124 1125 1191
f 1234 1126 1152
f 1153 1126 1234
f 1125 1084 1175
f 1153 1176 1100
f 1176 1102 1100
f 1155 1194 1127
f 1127 1101 1155
f 1154 1102 1301
f 1102 1154 1105
f 1155 1101 1178
f 1101 1156 1178
f 1101 1128 1156
f 1129 1157 1156
f 1130 1157 1129
f 1132 1179 1157
f 1105 1158 1131
f 1131 1158 1106
f 1199 1160 1106
f 1107 1181 1159
f 1160 1162 1073
f 1108 1181 1107
f 1182 1135 1205
f 1088 1137 1161
f 1088 1161 1108
f 1202 1133 1162
f 1202 1163 1110
f 1110 1163 1134
f 1140 1142 1184
f 1140 1183 1165
f 1164 1142 1143
f 1184 1142 1164
f 1166 1164 1143
f 1145 1165 1207
f 1185 1164 1166
f 1187 1168 1145
f 1170 1167 1146
f 1169 1167 1170
f 1146 1148 1170
f 1170 1148 1149
f 1171 1170 1149
f 1188 1171 1149
f 1149 1147 1172
f 1147 1189 1172
f 1231 1212 1123
f 1173 1123 1212
f 1173 1212 1174
f 1217 1189 1150
f 1190 1217 1150
f 1213 1173 1174
f 1124 1191 1151
f 1125 1175 1191
f 1195 1191 1175
f 1194 1175 1099
f 1194 1195 1175
f 1177 1194 1155
f 1155 1178 1177
f 1157 1197 1178
f 1157 1178 1156
f 1154 1158 1105
f 1179 1197 1157
f 1132 1180 1179
f 1159 1181 1180
f 1159 1180 1132
f 1200 1162 1160
f 1203 1162 1200
f 1243 1161 1201
f 1108 1161 1181
f 1203 1202 1162
f 1161 1137 1201
f 1204 1163 1202
f 1163 1227 1134
f 1134 1227 1205
f 1134 1205 1135
f 1136 1182 1137
f 1184 1183 1140
f 1207 1165 1183
f 1164 1209 1184
f 1185 1209 1164
f 1187 1145 1207
f 1186 1185 1166
f 1167 1186 1166
f 1169 1186 1167
f 1168 1187 1266
f 1169 1210 1186
f 1266 1120 1168
f 1170 1171 1169
f 1210 1169 1232
f 1232 1169 1171
f 1231 1123 1095
f 1172 1188 1149
f 1216 1189 1217
f 1239 1190 1151
f 1239 1151 1191
f 1191 1192 1239
f 1192 1191 1195
f 1176 1193 1102
f 1218 1192 1195
f 1193 1301 1102
f 1177 1195 1194
f 1154 1301 1219
f 1196 1195 1177
f 1178 1196 1177
f 1195 1196 1221
f 1197 1196 1178
f 1197 1221 1196
f 1219 1158 1154
f 1223 1221 1197
f 1179 1198 1223
f 1179 1223 1197
f 1224 1106 1158
f 1180 1198 1179
f 1199 1106 1224
f 1224 1225 1199
f 1181 1242 1180
f 1161 1243 1242
f 1161 1242 1181
f 1199 1200 1160
f 1204 1202 1203
f 1205 1206 1182
f 1182 1201 1137
f 1227 1278 1205
f 1228 1207 1183
f 1208 1183 1184
f 1184 1209 1208
f 1230 1209 1185
f 1186 1230 1185
f 1186 1279 1230
f 1279 1186 1210
f 1279 1210 1211
f 1095 1120 1231
f 1232 1211 1210
f 1171 1188 1232
f 1188 1233 1232
f 1268 1174 1212
f 1172 1214 1188
f 1174 1268 1213
f 1233 1188 1214
f 1189 1216 1172
f 1172 1215 1214
f 1215 1172 1216
f 1269 1153 1234
f 1216 1217 1239
f 1239 1217 1190
f 1237 1216 1239
f 1239 1192 1218
f 1195 1220 1218
f 1221 1220 1195
f 1220 1222 1240
f 1222 1220 1221
f 1223 1222 1221
f 1272 1158 1219
f 1158 1272 1224
f 1222 1223 1198
f 1254 1225 1224
f 1242 1198 1180
f 1199 1256 1200
f 1243 1263 1242
f 1226 1243 1201
f 1278 1244 1205
f 1244 1206 1205
f 1206 1226 1182
f 1201 1182 1226
f 1204 1264 1163
f 1163 1264 1227
f 1229 1207 1228
f 1208 1228 1183
f 1208 1209 1230
f 1120 1266 1231
f 1267 1211 1232
f 1233 1267 1232
f 1235 1234 1213
f 1214 1282 1233
f 1234 1235 1269
f 1216 1236 1215
f 1282 1214 1215
f 1282 1215 1246
f 1215 1236 1246
f 1236 1216 1237
f 1238 1236 1237
f 1238 1237 1239
f 1240 1238 1239
f 1253 1238 1240
f 1301 1272 1219
f 1218 1240 1239
f 1220 1240 1218
f 1241 1253 1240
f 1222 1241 1240
f 1198 1255 1222
f 1222 1255 1241
f 1242 1255 1198
f 1289 1200 1256
f 1289 1203 1200
f 1243 1226 1263
f 1261 1204 1203
f 1261 1264 1204
f 1262 1206 1244
f 1262 1226 1206
f 1265 1229 1228
f 1265 1228 1208
f 1187 1207 1229
f 1295 1208 1230
f 1297 1279 1211
f 1267 1297 1211
f 1245 1267 1233
f 1213 1268 1327
f 1327 1235 1213
f 1269 1345 1153
f 1176 1153 1345
f 1247 1270 1246
f 1247 1246 1236
f 1247 1236 1248
f 1238 1248 1236
f 1250 1247 1248
f 1250 1248 1238
f 1249 1250 1251
f 1250 1238 1253
f 1251 1250 1252
f 1252 1250 1253
f 1224 1272 1254
f 1257 1251 1258
f 1255 1253 1241
f 1258 1251 1252
f 1255 1252 1253
f 1276 1225 1254
f 1276 1256 1225
f 1259 1252 1255
f 1259 1255 1242
f 1256 1199 1225
f 1260 1257 1258
f 1259 1258 1252
f 1263 1259 1242
f 1260 1258 1259
f 1260 1259 1263
f 1289 1261 1203
f 1278 1291 1244
f 1291 1262 1244
f 1262 1260 1263
f 1278 1227 1264
f 1226 1262 1263
f 1266 1310 1231
f 1212 1231 1310
f 1212 1280 1268
f 1282 1245 1233
f 1327 1313 1235
f 1313 1269 1235
f 1269 1299 1345
f 1270 1283 1282
f 1246 1270 1282
f 1345 1193 1176
f 1300 1270 1247
f 1249 1300 1247
f 1250 1249 1247
f 1301 1328 1272
f 1249 1271 1300
f 1274 1271 1249
f 1302 1254 1272
f 1257 1274 1249
f 1251 1257 1249
f 1302 1273 1254
f 1276 1254 1273
f 1275 1274 1257
f 1276 1289 1256
f 1260 1275 1257
f 1292 1275 1277
f 1262 1277 1260
f 1260 1277 1275
f 1289 1293 1261
f 1291 1278 1294
f 1291 1292 1277
f 1291 1277 1262
f 1264 1261 1294
f 1264 1294 1278
f 1295 1265 1208
f 1309 1187 1229
f 1309 1296 1266
f 1309 1266 1187
f 1308 1230 1279
f 1266 1296 1310
f 1310 1280 1212
f 1297 1267 1326
f 1245 1282 1312
f 1313 1299 1269
f 1270 1300 1283
f 1328 1302 1272
f 1274 1284 1271
f 1274 1285 1284
f 1286 1287 1273
f 1287 1276 1273
f 1274 1305 1285
f 1276 1288 1289
f 1275 1305 1274
f 1289 1288 1293
f 1294 1290 1291
f 1292 1291 1290
f 1275 1292 1305
f 1293 1294 1261
f 1309 1229 1265
f 1309 1265 1321
f 1308 1295 1230
f 1297 1308 1279
f 1281 1280 1310
f 1280 1298 1268
f 1281 1298 1280
f 1298 1327 1268
f 1245 1311 1267
f 1282 1283 1312
f 1300 1315 1283
f 1345 1301 1193
f 1345 1328 1301
f 1284 1300 1271
f 1285 1304 1284
f 1302 1303 1286
f 1302 1286 1273
f 1285 1305 1304
f 1305 1320 1304
f 1287 1286 1318
f 1306 1320 1305
f 1287 1288 1276
f 1290 1307 1306
f 1290 1306 1292
f 1292 1306 1305
f 1288 1307 1290
f 1293 1288 1294
f 1294 1288 1290
f 1295 1321 1265
f 1335 1309 1321
f 1296 1309 1325
f 1326 1308 1297
f 1311 1326 1267
f 1313 1327 1343
f 1343 1299 1313
f 1283 1315 1312
f 1300 1314 1315
f 1329 1314 1300
f 1284 1329 1300
f 1328 1316 1302
f 1316 1303 1302
f 1316 1370 1303
f 1304 1329 1284
f 1303 1351 1286
f 1304 1317 1329
f 1320 1331 1317
f 1304 1320 1317
f 1286 1330 1332
f 1332 1318 1286
f 1307 1319 1331
f 1334 1319 1307
f 1306 1331 1320
f 1334 1288 1287
f 1288 1334 1307
f 1307 1331 1306
f 1295 1322 1321
f 1308 1323 1295
f 1295 1323 1322
f 1335 1321 1322
f 1325 1309 1335
f 1308 1324 1323
f 1296 1325 1310
f 1281 1310 1325
f 1281 1325 1339
f 1298 1281 1339
f 1245 1312 1311
f 1315 1342 1312
f 1346 1342 1314
f 1315 1314 1342
f 1363 1345 1299
f 1345 1347 1328
f 1329 1346 1314
f 1317 1346 1329
f 1370 1351 1303
f 1351 1330 1286
f 1333 1356 1355
f 1319 1356 1333
f 1331 1333 1317
f 1332 1356 1319
f 1332 1334 1318
f 1332 1319 1334
f 1319 1333 1331
f 1334 1287 1318
f 1322 1357 1335
f 1323 1357 1322
f 1323 1324 1357
f 1325 1335 1337
f 1336 1335 1357
f 1358 1357 1324
f 1326 1324 1308
f 1337 1339 1325
f 1336 1337 1335
f 1338 1358 1324
f 1338 1324 1326
f 1337 1336 1360
f 1326 1341 1338
f 1339 1337 1359
f 1311 1341 1326
f 1339 1343 1298
f 1339 1359 1343
f 1340 1341 1311
f 1343 1327 1298
f 1341 1340 1344
f 1312 1340 1311
f 1344 1340 1342
f 1342 1340 1312
f 1341 1344 1368
f 1363 1299 1343
f 1346 1344 1342
f 1350 1368 1344
f 1350 1344 1346
f 1347 1316 1328
f 1350 1349 1368
f 1317 1350 1346
f 1348 1370 1316
f 1349 1350 1352
f 1317 1352 1350
f 1372 1349 1355
f 1355 1349 1352
f 1333 1352 1317
f 1351 1353 1330
f 1354 1372 1355
f 1353 1372 1354
f 1355 1352 1333
f 1353 1354 1330
f 1330 1354 1332
f 1354 1356 1332
f 1354 1355 1356
f 1360 1336 1361
f 1361 1336 1357
f 1361 1357 1358
f 1361 1358 1362
f 1362 1358 1338
f 1362 1338 1341
f 1359 1337 1360
f 1360 1361 1373
f 1361 1366 1373
f 1359 1360 1376
f 1366 1361 1362
f 1365 1362 1341
f 1343 1359 1363
f 1368 1365 1341
f 1359 1376 1363
f 1364 1366 1362
f 1364 1362 1365
f 1367 1364 1365
f 1345 1363 1347
f 1347 1363 1375
f 1368 1367 1365
f 1369 1366 1364
f 1369 1364 1367
f 1347 1348 1316
f 1349 1367 1368
f 1369 1367 1349
f 1351 1370 1353
f 1353 1370 1371
f 1372 1369 1349
f 1371 1369 1372
f 1353 1371 1372
f 1373 1376 1360
f 1374 1373 1366
f 1376 1375 1363
f 1376 1373 1374
f 1377 1376 1374
f 1375 1376 1377
f 1375 1348 1347
f 1348 1375 1377
f 1369 1374 1366
f 1377 1370 1348
f 1377 1374 1370
f 1371 1374 1369
f 1370 1374 1371
# 2750 faces, 0 coords texture

# End of File
