####
#
# OBJ File Generated by Meshlab
#
####
# Object AL-VM1R.obj
#
# Vertices: 778
# Faces: 1552
#
####
v 23930.224609 31149.162109 31095.750000
v 23941.539062 31054.494141 31166.460938
v 23968.205078 31143.673828 31170.375000
v 23992.228516 31112.910156 31254.847656
v 23874.439453 31038.886719 31111.628906
v 23993.726562 31217.982422 31228.806641
v 23943.468750 31236.158203 31094.117188
v 23908.474609 31201.550781 31061.115234
v 23974.119141 31227.718750 31158.267578
v 23954.021484 31400.244141 31107.687500
v 23932.603516 31397.601562 31079.447266
v 23923.585938 31502.738281 31095.046875
v 23998.117188 31373.980469 31224.166016
v 23974.039062 31425.777344 31149.927734
v 23995.597656 31509.492188 31215.753906
v 23899.296875 30993.980469 31152.441406
v 23972.751953 31035.074219 31238.130859
v 23843.103516 31047.027344 31108.230469
v 23865.970703 30996.736328 31129.820312
v 23866.693359 31142.873047 31072.232422
v 24009.556641 31147.261719 31327.244141
v 23791.511719 31260.031250 31086.089844
v 23869.341797 31251.833984 31058.519531
v 23883.199219 31316.380859 31056.591797
v 24015.628906 31322.812500 31312.419922
v 23814.335938 31466.218750 31079.800781
v 23907.773438 31412.302734 31064.121094
v 23842.123047 31498.693359 31074.621094
v 23774.857422 31624.656250 31111.222656
v 23804.435547 31685.326172 31116.273438
v 23847.953125 31555.447266 31084.542969
v 23891.000000 31562.576172 31090.154297
v 23960.207031 31551.332031 31150.923828
v 24014.533203 31456.505859 31293.500000
v 23873.556641 31640.896484 31107.556641
v 23919.880859 31610.113281 31125.031250
v 23988.511719 31602.394531 31206.654297
v 24006.042969 31635.976562 31262.908203
v 23913.740234 30914.876953 31232.574219
v 23950.775391 30968.437500 31238.527344
v 23997.908203 31005.994141 31335.234375
v 24015.736328 31044.960938 31433.056641
v 23737.867188 31032.423828 31144.076172
v 24025.744141 31190.113281 31444.625000
v 23722.421875 31399.380859 31109.753906
v 23722.324219 31551.779297 31120.794922
v 24027.648438 31363.234375 31409.853516
v 23892.878906 31711.460938 31142.382812
v 23831.916016 31705.218750 31120.550781
v 24025.460938 31531.289062 31373.154297
v 24015.257812 31668.232422 31317.722656
v 23949.003906 31734.972656 31197.000000
v 23986.126953 31712.611328 31239.914062
v 23881.898438 30913.892578 31199.279297
v 23862.421875 30864.404297 31244.847656
v 23985.058594 30977.333984 31305.359375
v 23785.193359 30949.382812 31158.371094
v 23693.718750 30999.464844 31174.486328
v 23733.744141 31156.535156 31117.240234
v 23671.232422 31206.201172 31145.568359
v 24038.236328 31238.738281 31617.859375
v 23729.847656 31773.722656 31150.380859
v 24032.921875 31630.863281 31437.148438
v 23788.203125 31779.371094 31146.445312
v 23862.458984 31766.031250 31148.496094
v 23995.451172 31767.941406 31267.617188
v 23863.695312 31857.875000 31198.046875
v 23910.119141 31808.142578 31194.515625
v 23964.050781 31844.951172 31260.933594
v 23997.292969 31814.533203 31301.777344
v 23910.533203 30852.332031 31294.009766
v 23763.496094 30905.015625 31198.960938
v 23793.425781 30873.599609 31219.441406
v 24031.552734 31073.935547 31586.904297
v 23634.894531 31131.207031 31177.228516
v 24040.773438 30948.785156 31865.974609
v 23648.644531 31390.828125 31151.710938
v 23566.333984 31504.298828 31199.148438
v 23684.714844 31678.591797 31155.564453
v 24038.462891 31473.746094 31546.851562
v 23791.992188 31868.695312 31188.451172
v 24030.164062 31704.316406 31409.041016
v 23907.748047 31923.763672 31255.820312
v 23987.794922 31887.654297 31319.390625
v 24017.253906 31802.111328 31367.750000
v 23948.539062 31919.994141 31282.658203
v 23831.076172 30871.025391 31219.996094
v 23825.072266 30819.951172 31299.396484
v 23947.238281 30862.976562 31332.554688
v 24002.435547 30928.283203 31440.654297
v 24023.306641 30954.101562 31588.574219
v 23694.464844 30951.652344 31197.705078
v 23625.056641 31630.207031 31179.238281
v 23614.656250 31850.103516 31233.937500
v 23663.166016 31801.714844 31187.900391
v 24041.212891 31685.634766 31593.898438
v 24031.804688 31792.064453 31460.894531
v 23697.945312 31920.210938 31238.132812
v 23977.427734 31958.013672 31332.669922
v 23992.417969 30856.841797 31460.271484
v 24009.349609 30868.087891 31548.222656
v 23698.498047 30878.324219 31253.099609
v 23615.384766 31008.666016 31225.658203
v 23666.910156 31055.371094 31172.933594
v 23526.386719 31165.917969 31239.785156
v 24006.093750 31917.906250 31373.535156
v 23995.554688 31985.437500 31375.523438
v 23781.716797 30782.134766 31398.234375
v 23892.244141 30795.699219 31345.855469
v 23586.431641 30968.554688 31269.830078
v 23542.314453 31059.421875 31256.845703
v 23579.748047 31333.541016 31191.730469
v 23552.390625 31779.972656 31234.464844
v 23566.767578 31881.939453 31278.298828
v 24020.175781 31945.527344 31437.843750
v 23794.408203 31974.955078 31265.933594
v 23860.949219 31966.369141 31266.759766
v 23951.578125 30761.162109 31457.171875
v 23975.716797 30836.685547 31422.240234
v 23864.791016 30775.033203 31380.648438
v 23746.623047 30844.183594 31264.847656
v 23626.582031 30865.968750 31341.953125
v 23483.279297 31450.992188 31249.123047
v 23500.267578 31594.351562 31246.636719
v 23505.599609 31815.099609 31275.917969
v 23751.564453 32009.472656 31304.144531
v 24035.810547 31887.851562 31545.908203
v 24031.679688 32016.441406 31497.330078
v 23946.896484 32001.160156 31329.558594
v 24016.539062 32033.841797 31435.595703
v 23936.029297 32070.107422 31373.175781
v 23700.416016 30814.328125 31378.482422
v 23607.414062 30909.980469 31303.210938
v 23464.884766 31000.441406 31339.054688
v 23441.904297 31055.679688 31323.464844
v 23520.919922 31279.548828 31230.312500
v 23265.478516 31463.195312 31382.062500
v 23417.394531 31622.472656 31299.316406
v 24039.539062 32018.083984 31602.056641
v 23998.138672 32059.371094 31407.355469
v 23453.386719 30962.117188 31383.566406
v 23400.994141 31131.800781 31327.929688
v 23379.007812 31217.226562 31325.980469
v 23402.117188 31381.480469 31299.109375
v 23377.033203 31737.814453 31343.281250
v 23420.173828 31800.976562 31333.402344
v 23471.582031 31860.093750 31328.648438
v 23505.970703 31928.945312 31360.365234
v 23881.410156 32085.519531 31374.132812
v 23977.316406 32121.568359 31423.181641
v 23870.646484 30734.285156 31482.361328
v 23508.808594 30889.765625 31426.035156
v 23303.929688 31333.087891 31361.982422
v 23221.888672 31615.988281 31418.646484
v 23376.148438 31687.470703 31333.468750
v 23436.376953 31895.572266 31380.464844
v 23612.134766 31962.117188 31324.564453
v 24033.841797 32090.460938 31483.990234
v 23924.201172 30739.435547 31478.248047
v 23328.369141 31030.658203 31428.332031
v 23237.460938 31271.523438 31414.740234
v 23181.613281 31540.111328 31438.351562
v 23276.494141 31741.253906 31415.000000
v 23487.921875 31995.054688 31441.423828
v 23585.185547 32029.929688 31415.908203
v 23750.603516 32071.345703 31375.888672
v 23861.634766 32129.091797 31418.603516
v 23981.628906 32168.296875 31505.117188
v 23397.138672 30922.197266 31506.375000
v 23383.738281 30974.695312 31436.052734
v 23316.064453 31108.750000 31397.955078
v 23214.531250 31230.265625 31439.822266
v 23182.003906 31394.496094 31437.992188
v 23211.837891 31755.998047 31469.082031
v 23603.144531 32160.613281 31572.945312
v 23678.845703 32018.076172 31343.658203
v 24011.525391 32185.550781 31582.759766
v 23937.140625 32184.638672 31505.109375
v 23616.068359 30828.681641 31420.412109
v 23277.376953 31021.201172 31497.474609
v 23195.226562 31150.867188 31487.832031
v 23137.419922 31264.697266 31485.626953
v 23125.646484 31656.541016 31487.400391
v 23090.251953 31690.212891 31534.011719
v 23300.380859 31842.408203 31441.240234
v 23295.849609 31918.937500 31513.585938
v 23397.691406 31981.621094 31492.287109
v 23697.691406 32151.179688 31506.656250
v 23781.921875 32184.380859 31519.234375
v 23756.445312 30733.890625 31601.730469
v 23216.566406 31081.281250 31513.982422
v 23104.015625 31174.095703 31557.898438
v 24052.498047 31103.755859 32151.191406
v 23080.333984 31386.478516 31502.207031
v 23107.708984 31585.431641 31489.427734
v 23341.128906 32005.179688 31568.654297
v 24027.667969 32131.675781 31553.380859
v 23871.769531 32200.201172 31521.296875
v 23990.158203 30789.058594 31548.632812
v 23129.167969 31115.457031 31585.294922
v 23047.261719 31299.880859 31536.853516
v 23100.914062 31230.453125 31525.953125
v 23074.376953 31473.255859 31503.939453
v 24038.185547 32104.621094 31632.552734
v 23663.462891 30775.849609 31529.746094
v 23339.906250 30919.873047 31595.750000
v 23224.316406 31025.970703 31572.777344
v 22997.125000 31224.494141 31628.599609
v 22988.166016 31268.824219 31594.603516
v 22928.261719 31337.699219 31606.974609
v 22980.724609 31409.181641 31560.148438
v 22904.136719 31536.654297 31629.037109
v 22969.935547 31591.441406 31595.867188
v 22980.681641 31492.242188 31562.919922
v 23032.457031 31561.294922 31539.587891
v 24049.105469 31635.343750 31811.142578
v 23523.523438 32093.179688 31536.427734
v 24033.902344 32165.484375 31656.582031
v 23848.753906 32275.958984 31632.068359
v 24015.589844 32270.839844 31667.984375
v 24023.150391 30873.648438 31674.369141
v 23139.048828 31058.306641 31663.283203
v 23022.132812 31173.683594 31666.433594
v 22873.720703 31394.148438 31649.166016
v 22871.568359 31510.812500 31658.841797
v 22896.968750 31454.712891 31619.720703
v 23025.878906 31754.595703 31636.048828
v 23204.203125 31817.826172 31510.437500
v 23217.917969 31943.593750 31610.931641
v 24038.031250 32229.570312 31690.248047
v 23980.062500 32217.888672 31575.621094
v 23972.072266 30737.691406 31601.347656
v 23515.267578 30851.531250 31493.525391
v 23303.707031 30926.527344 31645.628906
v 22898.763672 31300.044922 31687.720703
v 22836.673828 31432.927734 31707.939453
v 22958.615234 31640.960938 31631.373047
v 23550.529297 30785.380859 31674.992188
v 23428.412109 30850.931641 31649.892578
v 22880.115234 31343.414062 31662.041016
v 24048.623047 31383.722656 31870.513672
v 22895.279297 31577.451172 31657.697266
v 23177.199219 31882.591797 31583.578125
v 23300.462891 32042.998047 31649.140625
v 23705.826172 32226.179688 31608.892578
v 23940.244141 32273.291016 31628.269531
v 24006.347656 30756.156250 31684.464844
v 23874.880859 30682.712891 31709.232422
v 23622.857422 30763.343750 31646.314453
v 22820.210938 31505.921875 31744.417969
v 22834.722656 31587.523438 31760.312500
v 22906.531250 31647.919922 31695.328125
v 23423.998047 32087.542969 31602.800781
v 23933.435547 30716.871094 31605.328125
v 23802.416016 30696.277344 31699.619141
v 24020.289062 30804.220703 31752.955078
v 22920.917969 31243.634766 31781.712891
v 22792.404297 31449.699219 31811.732422
v 22844.949219 31682.601562 31819.115234
v 22999.255859 31799.054688 31699.800781
v 23583.666016 32243.091797 31691.353516
v 23582.103516 32310.265625 31780.244141
v 23809.751953 32346.716797 31727.162109
v 24033.121094 32294.373047 31742.050781
v 23956.865234 30680.435547 31746.572266
v 24003.548828 30734.189453 31742.818359
v 24027.718750 30802.322266 31845.263672
v 23371.742188 30871.279297 31694.603516
v 24050.630859 30863.171875 32002.826172
v 23081.224609 31078.064453 31741.224609
v 23684.767578 32324.625000 31744.822266
v 23937.650391 32385.431641 31756.373047
v 23989.695312 32355.015625 31737.326172
v 23983.878906 30701.875000 31739.181641
v 24011.691406 30716.890625 31836.492188
v 23682.800781 30717.089844 31737.367188
v 23557.679688 30745.421875 31803.738281
v 22882.460938 31285.740234 31819.236328
v 24052.333984 31295.556641 32116.533203
v 22886.949219 31734.285156 31795.324219
v 23414.986328 32209.775391 31768.722656
v 23511.121094 32317.947266 31834.451172
v 24015.130859 32410.181641 31816.912109
v 23914.634766 30663.724609 31762.621094
v 23110.150391 31034.488281 31817.585938
v 23029.828125 31110.707031 31817.523438
v 22834.671875 31365.277344 31796.962891
v 22779.378906 31547.169922 31851.792969
v 22983.378906 31832.830078 31752.855469
v 23207.505859 32021.121094 31713.826172
v 23227.373047 32154.927734 31867.343750
v 23756.150391 32401.593750 31804.466797
v 23887.250000 32418.292969 31796.869141
v 23981.464844 30651.605469 31835.023438
v 23744.679688 30650.580078 31864.220703
v 23455.044922 30812.136719 31747.156250
v 23214.652344 30958.476562 31774.210938
v 22772.099609 31491.919922 31912.113281
v 22796.691406 31656.583984 31892.041016
v 23092.484375 31889.884766 31681.939453
v 23318.158203 32193.734375 31830.789062
v 24036.955078 32254.785156 31778.117188
v 23633.607422 32399.164062 31857.560547
v 23969.123047 32450.451172 31832.591797
v 23841.923828 30650.121094 31808.628906
v 23362.779297 30842.226562 31822.140625
v 22837.408203 31348.701172 31885.771484
v 22785.726562 31451.560547 31957.365234
v 22747.218750 31586.177734 32030.894531
v 23034.285156 31958.812500 31835.119141
v 23103.744141 32069.792969 31889.978516
v 23122.353516 32131.500000 31955.535156
v 24027.929688 32291.316406 31838.800781
v 23852.810547 32477.582031 31874.193359
v 23930.017578 32470.013672 31885.087891
v 23934.630859 30622.847656 31851.591797
v 23470.480469 30766.066406 31871.009766
v 23286.775391 30918.945312 31712.578125
v 23293.810547 30871.777344 31877.603516
v 24055.980469 30929.822266 32124.312500
v 22902.765625 31245.828125 31920.101562
v 22760.867188 31647.818359 31977.650391
v 24044.957031 31844.046875 31802.017578
v 23416.285156 32279.466797 31854.171875
v 23512.923828 32400.203125 31942.707031
v 23759.296875 32479.328125 31904.285156
v 23848.060547 32503.812500 31923.978516
v 23891.171875 30559.605469 31978.738281
v 23995.560547 30600.945312 31933.132812
v 23821.218750 30603.261719 31919.746094
v 23720.955078 30585.748047 32032.853516
v 23646.427734 30668.212891 31906.591797
v 23426.482422 30756.748047 31974.380859
v 23368.343750 30793.347656 31975.203125
v 23252.839844 30879.728516 31966.187500
v 24051.150391 31624.074219 31982.722656
v 22759.785156 31575.367188 31948.564453
v 22842.652344 31858.652344 31992.630859
v 24038.916016 32099.009766 31773.355469
v 23224.271484 32261.263672 32018.378906
v 23292.802734 32261.019531 31943.871094
v 23992.972656 32336.345703 31923.121094
v 23592.607422 32458.695312 31966.636719
v 23689.318359 32503.480469 31973.103516
v 23868.037109 32487.916016 31967.406250
v 24011.578125 30652.812500 31943.726562
v 23604.925781 30646.335938 32008.675781
v 23529.996094 30687.513672 32001.285156
v 23097.156250 31019.203125 31952.375000
v 22734.412109 31696.683594 32083.845703
v 22814.816406 31742.365234 31932.222656
v 22934.720703 31899.935547 31889.695312
v 24014.736328 32295.292969 31891.724609
v 23960.906250 32432.826172 31899.949219
v 23964.437500 32359.925781 31959.531250
v 23405.992188 32365.843750 31986.433594
v 23526.578125 32458.152344 32022.314453
v 23197.046875 30915.839844 32005.482422
v 22985.070312 31145.412109 31907.664062
v 22914.207031 31955.656250 32000.976562
v 23022.666016 32071.542969 32004.675781
v 24031.078125 32189.222656 31850.535156
v 23768.246094 32517.050781 31967.890625
v 23887.115234 30513.132812 32100.972656
v 23827.513672 30535.714844 32065.208984
v 23529.369141 30651.132812 32118.693359
v 22737.230469 31658.277344 32060.437500
v 22779.587891 31744.261719 32016.636719
v 24037.621094 31989.521484 31915.894531
v 24030.046875 32097.478516 31910.937500
v 23989.542969 32179.849609 32022.175781
v 23103.525391 32213.832031 32104.767578
v 23968.150391 32265.812500 32017.345703
v 23324.722656 32349.443359 32055.234375
v 23397.919922 32407.126953 32088.029297
v 23896.027344 32399.449219 32031.941406
v 23616.488281 32494.207031 32017.441406
v 23698.029297 32524.447266 32058.261719
v 23781.935547 32518.150391 32030.667969
v 23945.240234 30542.283203 32014.380859
v 23709.898438 30553.847656 32197.824219
v 24028.267578 30749.189453 31935.103516
v 24016.238281 32165.531250 31945.787109
v 23931.929688 32312.994141 32043.556641
v 23962.394531 30542.650391 32112.544922
v 24020.710938 30647.285156 32134.111328
v 23614.412109 30606.621094 32127.306641
v 24033.328125 30705.089844 32068.527344
v 23167.646484 30918.597656 32090.242188
v 22999.951172 31105.363281 32063.904297
v 23011.320312 31071.339844 32163.503906
v 22812.429688 31384.968750 32032.146484
v 22806.316406 31826.917969 32046.207031
v 24028.427734 32007.154297 32001.726562
v 23170.871094 32298.343750 32160.474609
v 23818.933594 32477.980469 32049.015625
v 23536.820312 32474.066406 32173.076172
v 23609.373047 32481.285156 32151.531250
v 23999.253906 30596.667969 32065.246094
v 24050.417969 30776.005859 32091.013672
v 23296.001953 30800.236328 32122.058594
v 22897.697266 31244.292969 32052.226562
v 22751.333984 31553.396484 32099.214844
v 22723.208984 31742.076172 32209.304688
v 22754.023438 31772.507812 32126.271484
v 24047.810547 31767.667969 31997.771484
v 24040.433594 31862.742188 32029.685547
v 23942.033203 32210.017578 32095.130859
v 23897.849609 32191.257812 32173.523438
v 23858.882812 32377.638672 32085.648438
v 23548.976562 32480.945312 32103.683594
v 23746.279297 32518.449219 32067.666016
v 23916.404297 30517.115234 32144.324219
v 22728.677734 31813.033203 32286.083984
v 22874.792969 31918.638672 32013.070312
v 24014.853516 32002.148438 32081.146484
v 23999.314453 32061.410156 32083.351562
v 23006.771484 32118.437500 32101.289062
v 23065.083984 32175.132812 32098.904297
v 23256.085938 32366.443359 32188.535156
v 23479.246094 32454.000000 32103.226562
v 23682.437500 32377.320312 32215.740234
v 23659.308594 32467.390625 32154.697266
v 23935.699219 30527.488281 32262.189453
v 23992.554688 30583.251953 32185.443359
v 23527.585938 30632.738281 32196.451172
v 22922.521484 31197.822266 32205.722656
v 23843.183594 32176.906250 32244.326172
v 23788.017578 32330.437500 32179.710938
v 23575.787109 32448.833984 32209.845703
v 23872.476562 30510.361328 32196.824219
v 23588.484375 30591.605469 32277.818359
v 23415.316406 30677.550781 32275.343750
v 23424.968750 30712.865234 32118.240234
v 24062.960938 30800.511719 32191.005859
v 22845.544922 31336.287109 32245.095703
v 22766.851562 31504.595703 32172.386719
v 22723.150391 31691.460938 32175.183594
v 22713.097656 31746.324219 32300.250000
v 24028.457031 31903.625000 32094.150391
v 24011.851562 31891.191406 32184.751953
v 23931.746094 32130.029297 32172.427734
v 23719.699219 32296.777344 32254.726562
v 23320.792969 32403.546875 32202.068359
v 23461.214844 32460.779297 32183.892578
v 23158.361328 30884.750000 32220.996094
v 24050.488281 31445.984375 32156.490234
v 22727.228516 31639.677734 32348.130859
v 22774.189453 31864.046875 32205.742188
v 23981.603516 31928.001953 32242.847656
v 23967.287109 32102.068359 32129.990234
v 22865.572266 31999.580078 32184.679688
v 23780.570312 32195.087891 32288.464844
v 23097.855469 32281.816406 32236.031250
v 23772.185547 30534.693359 32260.453125
v 23287.861328 30733.505859 32359.345703
v 23246.005859 30807.226562 32221.119141
v 23085.240234 31000.636719 32095.029297
v 24048.042969 31250.175781 32284.589844
v 22800.640625 31436.587891 32335.501953
v 24048.482422 31694.863281 32102.195312
v 22727.294922 31647.460938 32229.972656
v 22707.888672 31727.070312 32347.750000
v 24038.019531 31711.628906 32222.621094
v 23997.361328 31865.023438 32256.599609
v 23881.035156 32061.816406 32297.884766
v 22928.972656 32089.154297 32198.080078
v 22989.298828 32168.396484 32215.042969
v 23227.050781 32384.111328 32308.455078
v 23316.652344 32413.677734 32279.666016
v 23463.144531 32446.761719 32251.064453
v 23818.039062 30530.699219 32315.875000
v 23618.449219 30573.398438 32356.175781
v 23494.841797 30633.150391 32286.705078
v 23188.421875 30807.611328 32363.070312
v 24055.712891 30916.822266 32227.187500
v 23111.259766 30886.845703 32361.417969
v 23013.369141 31006.832031 32406.066406
v 24046.232422 31648.494141 32201.664062
v 24021.968750 31781.005859 32245.267578
v 23947.189453 31942.246094 32301.724609
v 22814.851562 31934.919922 32201.609375
v 23904.412109 31975.128906 32343.304688
v 23725.021484 32154.212891 32366.585938
v 23570.544922 32356.605469 32298.294922
v 23504.117188 32421.902344 32273.730469
v 23943.267578 30540.388672 32303.296875
v 23712.718750 30550.699219 32377.990234
v 23481.560547 30619.744141 32399.625000
v 23413.943359 30641.775391 32429.015625
v 22946.517578 31146.769531 32303.457031
v 22750.837891 31890.244141 32325.304688
v 23662.697266 32242.972656 32335.949219
v 23267.750000 32401.037109 32346.794922
v 23357.201172 32413.671875 32317.628906
v 23981.140625 30605.257812 32314.144531
v 24044.966797 30746.880859 32274.406250
v 24051.460938 30799.015625 32271.890625
v 23040.039062 30992.119141 32323.437500
v 24051.105469 31594.332031 32136.919922
v 24024.658203 31676.921875 32329.650391
v 22698.050781 31824.509766 32433.177734
v 23970.751953 31791.531250 32395.443359
v 22719.085938 31840.728516 32346.355469
v 23669.134766 32073.964844 32478.310547
v 23598.232422 32221.605469 32392.689453
v 22989.660156 32220.439453 32323.902344
v 23370.646484 32352.177734 32374.183594
v 23494.505859 32267.189453 32403.281250
v 23120.796875 32332.585938 32335.556641
v 23286.699219 32353.597656 32388.912109
v 23996.275391 30700.046875 32462.660156
v 24019.058594 30666.693359 32259.000000
v 23183.259766 30783.324219 32439.095703
v 24049.984375 31070.052734 32292.818359
v 22925.919922 31175.691406 32381.320312
v 22868.699219 31298.876953 32419.636719
v 22765.853516 31527.527344 32360.837891
v 22710.886719 31705.371094 32402.925781
v 23853.193359 32002.507812 32386.062500
v 22742.962891 31917.558594 32417.884766
v 23803.056641 32093.257812 32353.927734
v 22794.982422 31999.330078 32382.529297
v 22837.398438 32062.064453 32369.910156
v 22890.630859 32124.126953 32352.349609
v 22997.929688 32252.464844 32410.218750
v 23099.302734 32280.912109 32445.388672
v 23032.562500 32287.033203 32403.158203
v 23217.113281 32366.324219 32381.580078
v 23955.253906 30611.199219 32436.123047
v 24020.867188 30728.595703 32370.591797
v 23172.355469 30757.947266 32568.222656
v 24046.888672 30904.179688 32322.218750
v 23087.687500 30876.699219 32477.365234
v 23009.636719 30988.562500 32482.728516
v 22817.519531 31427.128906 32457.511719
v 24047.232422 31558.291016 32234.367188
v 22744.421875 31631.742188 32466.626953
v 23989.062500 31714.248047 32418.083984
v 23936.392578 31851.580078 32414.152344
v 23886.117188 31855.011719 32492.462891
v 23473.720703 32186.259766 32475.728516
v 22938.644531 32203.255859 32424.642578
v 22987.595703 32236.802734 32448.210938
v 23172.013672 32250.357422 32475.910156
v 23865.232422 30536.173828 32377.132812
v 23363.218750 30651.597656 32565.996094
v 23331.046875 30687.185547 32429.953125
v 24025.101562 30857.675781 32459.742188
v 24035.085938 30805.632812 32369.302734
v 24042.970703 31454.613281 32304.353516
v 24039.826172 31590.355469 32297.275391
v 23900.015625 31817.472656 32504.156250
v 23752.730469 31988.595703 32500.062500
v 23009.109375 32196.238281 32516.257812
v 23704.423828 30550.773438 32447.222656
v 23833.642578 30583.048828 32540.146484
v 23563.181641 30590.031250 32501.421875
v 24040.802734 31007.179688 32396.253906
v 23051.548828 30924.027344 32579.023438
v 24037.646484 31267.189453 32411.300781
v 22919.462891 31207.384766 32557.787109
v 24032.056641 31418.244141 32400.636719
v 22860.812500 31368.087891 32549.132812
v 24025.900391 31562.337891 32381.201172
v 23946.257812 31750.587891 32485.539062
v 22697.775391 31811.455078 32467.779297
v 22731.107422 31908.333984 32496.003906
v 23822.017578 31916.029297 32509.718750
v 22804.689453 32043.429688 32456.144531
v 23626.750000 32052.027344 32516.064453
v 22875.701172 32142.537109 32470.888672
v 23899.060547 30569.597656 32448.263672
v 23598.066406 30590.025391 32547.724609
v 23332.082031 30670.451172 32508.843750
v 23241.166016 30706.169922 32568.492188
v 23086.890625 30867.984375 32556.958984
v 24039.992188 31111.875000 32425.193359
v 22964.253906 31084.072266 32519.402344
v 24026.787109 31189.050781 32509.664062
v 24021.021484 31355.216797 32484.505859
v 24006.380859 31415.707031 32517.851562
v 22812.390625 31488.744141 32529.296875
v 22715.191406 31756.628906 32496.361328
v 22798.339844 32032.433594 32497.017578
v 23476.498047 32091.984375 32537.863281
v 22841.333984 32080.460938 32559.632812
v 23884.531250 30615.789062 32569.380859
v 23919.533203 30652.691406 32587.339844
v 23493.789062 30607.179688 32484.197266
v 23673.796875 30586.945312 32570.150391
v 23978.359375 30763.759766 32596.451172
v 23154.058594 30779.300781 32619.833984
v 24022.908203 30928.150391 32522.312500
v 24024.658203 31036.052734 32528.183594
v 23999.437500 31582.958984 32468.134766
v 22768.531250 31637.761719 32548.027344
v 22758.242188 31704.140625 32567.730469
v 22730.605469 31848.953125 32542.203125
v 23306.880859 32195.064453 32505.062500
v 22924.617188 32167.300781 32528.935547
v 23783.556641 30580.699219 32555.361328
v 23489.890625 30615.587891 32579.601562
v 23554.816406 30617.859375 32638.699219
v 23699.068359 30622.927734 32674.886719
v 23960.978516 30677.023438 32535.726562
v 24009.226562 30790.695312 32503.234375
v 23027.300781 30982.591797 32603.041016
v 22980.708984 31094.005859 32602.777344
v 24004.140625 31032.841797 32612.742188
v 24009.591797 31190.767578 32585.005859
v 23955.554688 31638.109375 32539.375000
v 22802.742188 31641.515625 32603.718750
v 23834.970703 31836.654297 32559.107422
v 23856.207031 31727.789062 32600.988281
v 23811.648438 31779.566406 32606.195312
v 23755.421875 31864.390625 32587.292969
v 22764.585938 31961.306641 32541.462891
v 23585.376953 32009.777344 32556.583984
v 22801.158203 32015.875000 32556.664062
v 23134.656250 32143.203125 32556.449219
v 23340.203125 32085.791016 32568.337891
v 22910.083984 32061.656250 32594.814453
v 23037.906250 32126.820312 32566.964844
v 23895.800781 30687.548828 32661.808594
v 23362.458984 30658.511719 32632.871094
v 23239.072266 30705.992188 32617.468750
v 23112.958984 30866.804688 32670.457031
v 23999.517578 30864.037109 32588.693359
v 23083.398438 30947.498047 32691.687500
v 22909.164062 31286.140625 32609.199219
v 22982.716797 31123.373047 32636.937500
v 23983.605469 31314.154297 32612.667969
v 23977.636719 31498.140625 32559.482422
v 22824.410156 31546.683594 32599.943359
v 23906.753906 31701.265625 32566.085938
v 22833.441406 31681.660156 32629.527344
v 22779.833984 31791.656250 32589.492188
v 22801.896484 31848.072266 32598.966797
v 23693.144531 31861.923828 32608.968750
v 23209.587891 31958.269531 32641.037109
v 23272.976562 31886.148438 32661.835938
v 22842.115234 31999.072266 32593.783203
v 23480.449219 31996.621094 32588.679688
v 23080.417969 31987.146484 32625.718750
v 23168.595703 32022.142578 32613.394531
v 23065.007812 32051.353516 32604.298828
v 23322.537109 31964.796875 32631.130859
v 23947.437500 30741.945312 32642.011719
v 23195.958984 30761.431641 32664.140625
v 23183.888672 30813.376953 32703.464844
v 23974.347656 30984.708984 32684.701172
v 23062.339844 31031.402344 32711.912109
v 23986.583984 31178.892578 32648.822266
v 22928.527344 31314.882812 32658.257812
v 23958.263672 31384.242188 32635.332031
v 23926.976562 31543.742188 32621.908203
v 22876.144531 31590.984375 32664.894531
v 23887.150391 31628.210938 32625.257812
v 23770.970703 31731.128906 32648.375000
v 22873.972656 31800.003906 32635.943359
v 22830.929688 31920.884766 32603.064453
v 22935.406250 31834.486328 32648.755859
v 23004.548828 31876.525391 32651.271484
v 23483.199219 31874.144531 32644.607422
v 23627.603516 31835.986328 32637.123047
v 23371.128906 31876.191406 32657.951172
v 22913.597656 31930.238281 32621.990234
v 22974.996094 31995.226562 32615.746094
v 22784.205078 31953.804688 32583.984375
v 23422.906250 30664.898438 32686.451172
v 23603.162109 30628.996094 32686.978516
v 23324.783203 30690.347656 32684.330078
v 23967.097656 31053.410156 32696.230469
v 22988.919922 31194.785156 32689.296875
v 23945.761719 31210.310547 32709.001953
v 23920.562500 31371.521484 32687.173828
v 22873.826172 31432.501953 32632.037109
v 22910.421875 31516.228516 32700.906250
v 23871.583984 31517.000000 32683.699219
v 22924.113281 31604.775391 32692.583984
v 23840.560547 31634.671875 32660.416016
v 22864.560547 31720.193359 32645.197266
v 23095.263672 31735.791016 32701.710938
v 23174.978516 31719.201172 32714.990234
v 23303.238281 31779.291016 32695.269531
v 23444.011719 31639.906250 32747.347656
v 23698.345703 31725.968750 32670.648438
v 23130.009766 31832.660156 32676.556641
v 23468.771484 31773.794922 32687.386719
v 23592.808594 31755.535156 32679.148438
v 23788.720703 30643.212891 32699.701172
v 23603.990234 30667.722656 32755.259766
v 23441.046875 30701.958984 32741.785156
v 23697.363281 30672.347656 32757.716797
v 23903.107422 31222.873047 32751.505859
v 22950.384766 31444.474609 32728.162109
v 23817.806641 31530.439453 32711.605469
v 22960.648438 31658.822266 32695.593750
v 23032.546875 31687.902344 32708.468750
v 23530.884766 31613.792969 32751.994141
v 23299.923828 31623.968750 32757.494141
v 23811.712891 30663.105469 32716.314453
v 23328.679688 30755.292969 32758.250000
v 23944.392578 30795.617188 32684.734375
v 23274.277344 30761.988281 32734.642578
v 23961.726562 30853.375000 32669.580078
v 23115.128906 30981.736328 32747.990234
v 23070.255859 31138.412109 32760.062500
v 22976.320312 31307.380859 32713.664062
v 23875.683594 31395.660156 32722.894531
v 23833.013672 31443.701172 32739.033203
v 22994.625000 31547.796875 32737.832031
v 23727.570312 31530.892578 32750.457031
v 23074.853516 31493.714844 32773.511719
v 23768.568359 31605.884766 32701.935547
v 23667.767578 31613.441406 32727.353516
v 23857.853516 30721.552734 32722.798828
v 23850.417969 30791.820312 32764.503906
v 23263.191406 30796.933594 32755.263672
v 23931.751953 30963.425781 32749.000000
v 23927.281250 31026.716797 32761.546875
v 23031.636719 31234.388672 32744.937500
v 23006.162109 31435.855469 32756.779297
v 23739.796875 31390.990234 32798.132812
v 23142.371094 31515.228516 32780.359375
v 23309.814453 31328.464844 32840.710938
v 23263.130859 31539.433594 32784.210938
v 23471.187500 31490.912109 32800.738281
v 23568.537109 31510.982422 32785.328125
v 23683.367188 31517.523438 32765.326172
v 23573.785156 30782.839844 32843.937500
v 23427.929688 30810.679688 32825.082031
v 23169.750000 30888.941406 32749.082031
v 23304.726562 30901.781250 32832.175781
v 23891.089844 30901.609375 32775.410156
v 23165.410156 30999.468750 32790.773438
v 23253.371094 31010.560547 32841.441406
v 23867.695312 31154.976562 32792.535156
v 23116.250000 31293.816406 32798.656250
v 23849.421875 31261.359375 32780.285156
v 23085.568359 31226.382812 32780.679688
v 23154.988281 31346.945312 32808.929688
v 23027.917969 31341.927734 32762.535156
v 23790.707031 31349.193359 32789.898438
v 23709.544922 31297.560547 32837.523438
v 23403.425781 31400.412109 32829.714844
v 23608.513672 31430.595703 32812.371094
v 23550.255859 31307.769531 32861.468750
v 23774.054688 30699.271484 32760.595703
v 23555.685547 30744.880859 32814.671875
v 23810.291016 30871.611328 32828.621094
v 23454.099609 30871.560547 32865.843750
v 23802.527344 30938.529297 32844.179688
v 23833.681641 31030.931641 32826.140625
v 23130.191406 31161.822266 32801.363281
v 23289.046875 31151.964844 32862.101562
v 23748.287109 31192.322266 32853.457031
v 23259.080078 31274.662109 32840.410156
v 23664.402344 31327.916016 32840.437500
v 23658.015625 30752.609375 32828.273438
v 23746.531250 30782.271484 32826.460938
v 23420.246094 30938.660156 32881.375000
v 23285.482422 30941.759766 32839.410156
v 23232.039062 31093.800781 32841.390625
v 23773.974609 31071.076172 32860.589844
v 23225.347656 31166.041016 32841.800781
v 23370.945312 31163.044922 32880.574219
v 23461.705078 31228.185547 32880.546875
v 23649.943359 31197.990234 32877.359375
v 23570.529297 30957.542969 32912.503906
v 23701.183594 30866.861328 32875.007812
v 23600.494141 30876.996094 32885.769531
v 23396.470703 31041.078125 32899.304688
v 23740.542969 31150.361328 32864.226562
v 23670.035156 30992.158203 32906.234375
v 23537.412109 31064.910156 32920.945312
v 23600.306641 31095.335938 32915.671875
# 778 vertices, 0 vertices normals

f 3 2 1
f 1 2 16
f 5 1 16
f 3 1 7
f 3 7 9
f 4 3 6
f 6 3 9
f 5 18 20
f 5 20 8
f 5 8 1
f 1 8 7
f 20 23 8
f 23 24 8
f 7 10 9
f 6 9 13
f 24 27 8
f 8 11 7
f 7 11 10
f 8 27 11
f 10 14 9
f 13 9 14
f 27 12 11
f 11 12 10
f 12 33 10
f 10 33 14
f 14 15 13
f 5 19 18
f 16 2 40
f 40 2 17
f 17 2 3
f 3 4 17
f 4 41 17
f 4 21 41
f 6 21 4
f 6 25 21
f 59 23 20
f 59 22 23
f 13 25 6
f 45 23 22
f 45 26 23
f 23 26 24
f 26 28 24
f 24 28 27
f 28 26 29
f 28 29 31
f 31 32 28
f 28 32 27
f 29 30 31
f 32 12 27
f 30 49 31
f 31 49 35
f 31 35 32
f 35 36 32
f 36 33 12
f 32 36 12
f 15 14 33
f 34 13 15
f 34 25 13
f 33 37 15
f 34 15 38
f 38 15 37
f 35 48 36
f 19 54 87
f 54 19 16
f 54 16 39
f 39 16 40
f 40 17 56
f 17 41 56
f 57 19 87
f 18 19 57
f 19 5 16
f 21 42 41
f 21 44 42
f 43 20 18
f 43 18 57
f 59 20 43
f 25 44 21
f 25 47 44
f 59 60 45
f 45 22 59
f 45 46 26
f 46 29 26
f 29 62 30
f 34 47 25
f 34 50 47
f 48 35 49
f 38 50 34
f 64 30 62
f 30 64 49
f 52 33 36
f 52 36 48
f 52 37 33
f 49 64 65
f 49 65 48
f 48 65 68
f 48 68 52
f 53 38 37
f 52 53 37
f 53 51 38
f 51 50 38
f 52 66 53
f 53 66 51
f 39 55 54
f 39 71 55
f 89 39 40
f 89 71 39
f 56 89 40
f 87 73 72
f 92 58 57
f 92 57 72
f 72 57 87
f 57 58 43
f 43 58 104
f 59 43 104
f 44 61 74
f 47 61 44
f 47 80 61
f 79 29 46
f 50 80 47
f 79 62 29
f 50 63 80
f 51 63 50
f 51 82 63
f 81 64 62
f 81 65 64
f 85 51 66
f 85 82 51
f 65 81 67
f 67 68 65
f 52 69 66
f 52 68 69
f 66 69 70
f 85 66 70
f 71 109 55
f 56 41 90
f 73 121 72
f 55 87 54
f 42 90 41
f 44 74 42
f 75 59 104
f 75 60 59
f 60 112 77
f 77 45 60
f 77 78 45
f 78 46 45
f 93 79 46
f 93 46 78
f 95 62 79
f 98 62 95
f 98 81 62
f 85 97 82
f 81 116 117
f 81 117 67
f 83 67 117
f 67 83 68
f 83 69 68
f 86 69 83
f 84 70 69
f 84 69 86
f 84 85 70
f 88 87 55
f 109 88 55
f 119 89 56
f 56 90 119
f 72 121 102
f 121 73 87
f 42 91 90
f 92 72 102
f 74 91 42
f 103 58 92
f 103 104 58
f 112 78 77
f 113 95 79
f 113 79 93
f 63 96 80
f 94 95 113
f 94 98 95
f 82 96 63
f 97 96 82
f 116 81 98
f 85 115 97
f 117 129 83
f 83 129 86
f 99 84 86
f 99 86 129
f 99 106 84
f 106 85 84
f 106 115 85
f 99 107 106
f 89 119 118
f 109 89 118
f 71 89 109
f 119 90 100
f 90 101 100
f 121 87 88
f 91 101 90
f 133 110 102
f 102 110 92
f 92 110 103
f 111 104 103
f 104 111 105
f 105 75 104
f 105 60 75
f 136 112 60
f 136 60 105
f 80 241 61
f 123 78 112
f 119 100 199
f 120 108 88
f 109 120 88
f 101 199 100
f 122 133 102
f 134 135 110
f 135 111 110
f 110 111 103
f 136 144 112
f 144 123 112
f 124 78 123
f 124 93 78
f 113 93 124
f 94 113 125
f 125 114 94
f 98 94 114
f 98 126 116
f 129 107 99
f 106 107 115
f 88 108 121
f 120 151 108
f 102 121 122
f 134 110 133
f 142 105 111
f 142 111 135
f 143 105 142
f 143 136 105
f 124 138 113
f 145 113 138
f 125 113 145
f 114 157 98
f 97 127 96
f 98 157 126
f 115 127 97
f 115 128 127
f 126 149 116
f 116 149 117
f 140 107 129
f 140 130 107
f 130 115 107
f 130 128 115
f 149 131 117
f 117 131 129
f 129 131 140
f 109 118 120
f 118 159 120
f 122 121 132
f 122 132 179
f 141 134 133
f 153 136 143
f 153 144 136
f 137 123 144
f 138 124 123
f 137 138 123
f 96 241 80
f 138 155 145
f 146 125 145
f 146 147 125
f 125 147 114
f 157 114 148
f 176 126 157
f 176 166 126
f 128 139 127
f 149 126 167
f 126 166 167
f 150 140 131
f 121 108 132
f 74 76 91
f 133 122 141
f 122 152 141
f 152 122 179
f 135 171 142
f 148 114 147
f 148 147 156
f 130 158 128
f 131 149 150
f 150 158 140
f 158 130 140
f 120 159 151
f 108 179 132
f 233 152 179
f 135 134 160
f 134 141 160
f 171 135 160
f 143 142 161
f 153 143 161
f 154 138 137
f 155 138 154
f 154 163 145
f 145 155 154
f 163 185 146
f 145 163 146
f 146 185 147
f 185 156 147
f 156 187 148
f 187 164 148
f 157 148 164
f 157 164 165
f 176 157 165
f 128 158 139
f 149 167 150
f 150 168 158
f 152 170 141
f 141 170 160
f 61 76 74
f 161 142 171
f 137 144 153
f 162 154 137
f 163 154 183
f 174 163 183
f 166 176 188
f 188 189 166
f 167 166 189
f 150 167 178
f 178 168 150
f 151 205 108
f 179 108 205
f 91 221 101
f 76 221 91
f 169 170 152
f 152 233 169
f 160 170 180
f 172 161 171
f 161 172 194
f 161 194 173
f 173 153 161
f 173 137 153
f 174 185 163
f 185 186 156
f 156 186 187
f 164 217 165
f 217 175 165
f 176 165 175
f 175 188 176
f 189 198 167
f 178 167 198
f 177 158 168
f 177 197 158
f 101 247 199
f 221 247 101
f 169 180 170
f 191 180 207
f 191 160 180
f 191 181 160
f 181 171 160
f 181 172 171
f 182 172 181
f 173 162 137
f 195 183 154
f 195 154 162
f 183 184 174
f 184 228 174
f 174 228 185
f 187 217 164
f 119 199 118
f 169 233 206
f 169 206 180
f 206 207 180
f 200 191 207
f 191 200 192
f 192 181 191
f 202 181 192
f 202 182 181
f 194 172 182
f 194 203 173
f 203 162 173
f 203 195 162
f 228 243 185
f 185 243 186
f 187 253 217
f 231 168 178
f 231 177 168
f 232 159 118
f 233 179 238
f 234 207 206
f 202 192 209
f 202 209 201
f 201 182 202
f 201 194 182
f 211 194 201
f 211 203 194
f 211 214 203
f 203 215 195
f 214 215 203
f 215 183 195
f 184 183 213
f 183 215 213
f 186 196 187
f 197 204 158
f 175 245 188
f 188 245 189
f 190 205 151
f 205 238 179
f 222 207 234
f 222 223 200
f 200 207 222
f 223 208 200
f 200 208 192
f 192 208 209
f 209 210 201
f 210 211 201
f 226 211 210
f 226 214 211
f 226 212 214
f 212 213 215
f 212 215 214
f 237 184 213
f 237 227 184
f 186 243 229
f 186 229 196
f 196 253 187
f 197 218 204
f 189 219 198
f 177 218 197
f 177 230 218
f 189 245 219
f 178 198 246
f 231 178 246
f 220 177 231
f 220 230 177
f 151 255 190
f 208 223 235
f 208 235 209
f 235 240 209
f 209 240 210
f 224 210 240
f 224 226 210
f 226 224 236
f 236 225 226
f 226 225 212
f 212 242 213
f 242 237 213
f 184 227 228
f 244 196 229
f 196 244 253
f 246 198 219
f 249 238 205
f 239 206 233
f 239 234 206
f 270 223 222
f 61 241 76
f 240 236 224
f 250 225 236
f 242 212 225
f 96 216 241
f 227 243 228
f 96 127 323
f 217 261 175
f 219 245 263
f 220 231 246
f 254 151 159
f 254 159 232
f 118 199 232
f 232 199 247
f 190 249 205
f 239 233 238
f 239 268 234
f 234 270 222
f 223 270 235
f 251 225 250
f 225 251 242
f 252 237 242
f 237 252 227
f 300 229 243
f 290 244 229
f 204 139 158
f 218 339 204
f 253 261 217
f 245 175 261
f 220 264 230
f 272 246 219
f 248 255 151
f 151 254 248
f 265 254 232
f 221 256 247
f 221 76 256
f 234 268 318
f 318 297 234
f 270 234 297
f 235 270 257
f 240 235 287
f 240 258 236
f 240 287 258
f 236 258 250
f 251 252 242
f 252 251 259
f 227 260 243
f 300 290 229
f 204 339 139
f 218 230 339
f 281 261 253
f 245 261 271
f 273 220 246
f 273 264 220
f 274 265 232
f 232 247 274
f 190 255 276
f 239 238 296
f 241 193 76
f 288 250 258
f 251 250 288
f 280 252 259
f 260 227 252
f 280 260 252
f 260 300 243
f 244 291 301
f 301 281 253
f 244 301 253
f 271 261 262
f 271 263 245
f 293 219 263
f 293 272 219
f 273 246 272
f 265 248 254
f 274 247 266
f 247 256 266
f 249 276 238
f 249 190 276
f 76 267 256
f 296 268 239
f 76 320 269
f 193 320 76
f 235 257 278
f 287 235 278
f 299 259 251
f 282 261 281
f 261 282 262
f 263 271 292
f 292 293 263
f 264 273 283
f 265 316 284
f 274 294 265
f 265 294 316
f 255 305 295
f 248 305 255
f 284 248 265
f 266 275 274
f 295 276 255
f 256 275 266
f 256 267 275
f 276 277 238
f 257 270 286
f 251 288 299
f 260 280 289
f 323 216 96
f 127 139 323
f 244 290 291
f 324 282 281
f 271 262 303
f 303 292 271
f 304 273 272
f 272 293 304
f 304 283 273
f 248 284 305
f 274 275 294
f 270 297 285
f 270 285 286
f 289 300 260
f 289 310 300
f 300 311 290
f 301 324 281
f 264 302 230
f 314 293 292
f 305 284 316
f 296 238 277
f 268 306 318
f 268 296 306
f 297 318 319
f 257 286 359
f 287 278 307
f 308 258 287
f 298 288 258
f 288 298 337
f 288 337 322
f 288 322 299
f 289 280 352
f 310 311 300
f 311 291 290
f 301 291 341
f 282 324 325
f 264 313 302
f 282 303 262
f 313 264 283
f 303 326 292
f 326 314 292
f 354 283 304
f 315 354 304
f 314 304 293
f 315 304 314
f 316 294 329
f 294 275 329
f 295 332 276
f 276 332 277
f 317 296 277
f 296 317 306
f 297 319 335
f 321 257 359
f 321 278 257
f 307 278 321
f 308 287 307
f 298 258 308
f 337 298 309
f 280 259 351
f 352 310 289
f 139 339 323
f 302 339 230
f 341 291 340
f 341 324 301
f 313 283 353
f 282 325 303
f 303 325 343
f 354 342 283
f 343 344 303
f 326 303 344
f 316 329 380
f 328 305 316
f 328 330 305
f 275 346 329
f 275 382 346
f 295 305 330
f 267 382 275
f 76 382 267
f 333 306 317
f 306 319 318
f 285 297 335
f 241 447 279
f 216 336 241
f 351 259 299
f 291 311 312
f 342 353 283
f 344 363 326
f 326 327 314
f 363 327 326
f 315 314 327
f 328 316 380
f 331 295 330
f 332 295 331
f 348 277 332
f 348 317 277
f 333 334 306
f 349 286 285
f 390 321 359
f 368 299 322
f 351 299 368
f 352 280 338
f 352 311 310
f 312 340 291
f 313 362 302
f 341 356 324
f 324 356 325
f 345 354 315
f 327 345 315
f 331 330 365
f 365 330 328
f 347 332 331
f 348 332 347
f 76 269 382
f 319 306 334
f 349 359 286
f 308 309 298
f 336 447 241
f 309 367 337
f 367 322 337
f 350 322 367
f 350 368 322
f 351 368 393
f 280 351 338
f 338 351 393
f 352 361 311
f 302 362 339
f 313 353 362
f 340 374 341
f 374 356 341
f 355 342 354
f 356 343 325
f 356 357 343
f 357 377 343
f 343 377 344
f 327 363 379
f 379 345 327
f 328 380 364
f 364 365 328
f 346 399 329
f 347 331 387
f 382 388 346
f 348 333 317
f 335 319 334
f 358 349 285
f 358 285 335
f 279 193 241
f 307 321 402
f 392 307 402
f 392 308 307
f 308 403 309
f 338 415 360
f 352 338 360
f 352 360 361
f 311 361 312
f 312 372 340
f 383 353 371
f 383 362 353
f 353 342 371
f 354 376 355
f 376 345 396
f 354 345 376
f 379 396 345
f 377 378 344
f 378 363 344
f 364 381 365
f 346 386 399
f 387 366 347
f 348 366 434
f 366 348 347
f 434 333 348
f 334 434 401
f 334 333 434
f 335 334 401
f 401 358 335
f 391 402 390
f 390 402 321
f 339 369 323
f 339 370 369
f 362 370 339
f 362 383 370
f 361 419 312
f 372 312 419
f 373 371 342
f 373 355 384
f 342 355 373
f 355 376 384
f 374 375 356
f 375 357 356
f 411 378 377
f 363 378 412
f 363 412 379
f 380 329 385
f 380 413 364
f 399 385 329
f 346 388 386
f 331 365 387
f 401 389 358
f 349 358 389
f 458 359 349
f 458 390 359
f 438 367 309
f 438 350 367
f 323 336 216
f 368 350 405
f 393 368 405
f 370 394 369
f 370 383 394
f 395 340 372
f 375 421 357
f 376 396 410
f 357 421 377
f 421 411 377
f 412 396 379
f 413 380 385
f 364 431 381
f 387 365 381
f 382 400 388
f 366 387 426
f 434 366 426
f 458 349 389
f 462 438 309
f 309 403 462
f 338 393 415
f 323 407 406
f 369 407 323
f 369 394 407
f 383 417 394
f 394 417 416
f 371 451 417
f 383 371 417
f 418 419 361
f 340 395 374
f 397 378 411
f 398 412 378
f 413 431 364
f 387 381 432
f 426 387 432
f 433 434 426
f 269 400 382
f 456 457 401
f 389 401 457
f 389 457 446
f 389 446 458
f 390 458 391
f 402 391 427
f 437 308 392
f 437 403 308
f 350 404 405
f 393 405 449
f 360 418 361
f 371 408 451
f 451 408 442
f 371 373 408
f 384 409 408
f 373 384 408
f 410 409 384
f 376 410 384
f 374 395 420
f 420 375 374
f 444 375 420
f 375 444 421
f 396 429 410
f 445 411 421
f 422 429 412
f 445 397 411
f 412 429 396
f 397 398 378
f 398 423 412
f 425 385 399
f 401 434 456
f 427 392 402
f 427 436 392
f 350 438 404
f 405 404 414
f 405 414 449
f 406 336 323
f 449 482 393
f 393 482 415
f 394 440 407
f 440 394 416
f 360 467 418
f 409 442 408
f 410 428 409
f 395 372 454
f 429 428 410
f 444 445 421
f 412 423 422
f 424 431 413
f 424 413 385
f 424 385 425
f 386 425 399
f 435 386 388
f 388 400 435
f 462 403 437
f 406 461 336
f 406 407 461
f 360 415 452
f 418 467 468
f 454 420 395
f 422 443 429
f 422 423 430
f 397 430 398
f 471 430 397
f 398 430 423
f 487 424 425
f 431 455 381
f 513 425 386
f 426 474 433
f 269 435 400
f 320 435 269
f 391 491 427
f 460 392 436
f 460 437 392
f 448 462 437
f 438 439 404
f 439 414 404
f 464 407 440
f 464 461 407
f 416 441 440
f 450 441 416
f 450 416 417
f 482 452 415
f 417 451 450
f 360 452 467
f 418 468 419
f 419 468 372
f 453 429 443
f 430 485 422
f 430 486 485
f 430 471 486
f 472 455 431
f 487 425 496
f 488 473 455
f 381 473 432
f 381 455 473
f 432 474 426
f 499 491 391
f 491 436 427
f 448 437 518
f 462 439 438
f 464 479 461
f 464 440 480
f 441 480 440
f 449 492 482
f 450 465 441
f 451 481 450
f 481 451 442
f 442 466 481
f 409 428 466
f 409 466 442
f 429 453 428
f 510 420 454
f 422 485 493
f 422 493 443
f 420 469 444
f 444 469 470
f 444 470 445
f 470 471 445
f 445 471 397
f 546 472 431
f 424 546 431
f 496 425 513
f 477 499 458
f 499 391 458
f 279 459 193
f 517 436 516
f 517 460 436
f 460 518 437
f 463 439 462
f 439 504 414
f 441 465 480
f 449 414 492
f 414 504 492
f 481 465 450
f 443 484 453
f 468 454 372
f 443 493 484
f 493 485 506
f 495 471 470
f 473 488 556
f 386 497 513
f 433 456 434
f 435 497 386
f 475 457 456
f 475 446 457
f 477 446 475
f 477 458 446
f 499 478 491
f 193 459 515
f 491 516 436
f 336 500 447
f 461 500 336
f 461 479 500
f 463 462 448
f 466 483 481
f 452 482 524
f 525 452 524
f 428 522 466
f 428 453 522
f 453 484 522
f 510 469 420
f 469 494 470
f 495 470 494
f 495 486 471
f 546 424 487
f 488 455 472
f 489 474 432
f 473 489 432
f 490 433 474
f 548 456 433
f 435 498 497
f 476 498 435
f 463 448 519
f 502 439 463
f 480 465 539
f 439 502 504
f 503 539 465
f 503 465 481
f 481 540 503
f 483 540 481
f 523 524 482
f 466 522 520
f 466 520 483
f 452 525 467
f 493 505 484
f 525 507 468
f 467 525 468
f 493 506 505
f 468 507 454
f 507 528 454
f 528 510 454
f 485 509 506
f 486 508 509
f 486 509 485
f 486 495 508
f 546 488 472
f 530 487 496
f 489 490 474
f 490 548 433
f 475 456 514
f 477 475 514
f 320 476 435
f 320 193 476
f 535 516 478
f 516 491 478
f 447 459 279
f 479 537 500
f 479 552 537
f 518 519 448
f 552 464 501
f 552 479 464
f 480 501 464
f 519 502 463
f 541 540 483
f 482 492 523
f 483 520 541
f 505 554 484
f 510 494 469
f 495 494 511
f 495 511 508
f 546 487 573
f 487 530 573
f 512 530 496
f 513 512 496
f 456 548 514
f 534 477 514
f 499 477 534
f 499 534 478
f 517 536 460
f 536 518 460
f 538 519 518
f 501 480 539
f 492 504 521
f 504 502 521
f 521 523 492
f 484 554 522
f 505 506 571
f 506 509 542
f 506 542 571
f 525 543 507
f 543 526 507
f 526 528 507
f 600 508 511
f 510 528 529
f 529 494 510
f 494 529 511
f 488 546 556
f 558 473 556
f 590 490 489
f 473 590 489
f 575 548 490
f 513 531 512
f 513 497 531
f 532 514 576
f 534 514 532
f 498 550 497
f 498 476 533
f 534 535 478
f 193 515 476
f 579 516 535
f 579 517 516
f 583 538 536
f 538 518 536
f 500 537 447
f 501 565 552
f 567 519 584
f 567 502 519
f 569 541 520
f 522 569 520
f 523 521 570
f 522 554 569
f 524 523 570
f 525 524 572
f 572 543 525
f 508 542 509
f 600 542 508
f 543 544 526
f 544 528 526
f 527 528 544
f 511 545 600
f 529 527 545
f 529 545 511
f 528 527 529
f 573 557 546
f 530 589 573
f 590 473 558
f 490 547 575
f 590 547 490
f 512 606 530
f 514 548 576
f 531 607 512
f 497 550 531
f 533 550 498
f 515 533 476
f 579 562 517
f 562 536 517
f 447 551 459
f 562 564 536
f 537 551 447
f 537 552 551
f 596 501 539
f 584 519 538
f 540 566 503
f 553 566 540
f 553 540 541
f 502 567 568
f 521 502 568
f 524 570 572
f 570 585 572
f 572 544 543
f 527 555 545
f 545 621 600
f 574 558 556
f 531 550 607
f 607 550 549
f 532 577 534
f 534 577 535
f 533 549 550
f 515 559 533
f 515 578 559
f 535 560 579
f 459 578 515
f 459 561 578
f 551 561 459
f 551 563 561
f 551 565 563
f 564 583 536
f 565 551 552
f 501 596 565
f 584 538 597
f 568 570 521
f 554 571 617
f 554 505 571
f 587 572 585
f 545 555 621
f 572 601 544
f 544 555 527
f 602 556 546
f 557 602 546
f 589 530 606
f 576 548 575
f 512 592 606
f 577 560 535
f 559 549 533
f 549 559 594
f 561 580 578
f 561 581 580
f 581 563 582
f 581 561 563
f 565 582 563
f 565 596 582
f 539 612 596
f 597 538 583
f 566 539 503
f 584 597 598
f 599 568 567
f 569 614 541
f 568 585 570
f 542 586 571
f 572 587 601
f 600 586 542
f 544 601 555
f 602 591 556
f 589 588 573
f 588 557 573
f 590 603 547
f 603 590 558
f 574 603 558
f 591 574 556
f 576 575 547
f 532 576 627
f 532 627 593
f 512 607 592
f 532 593 577
f 593 560 577
f 578 595 559
f 559 595 594
f 579 560 608
f 580 595 578
f 580 611 595
f 581 611 580
f 581 582 611
f 597 583 635
f 613 598 597
f 612 539 566
f 636 612 566
f 636 566 553
f 614 636 553
f 584 599 567
f 584 598 599
f 541 614 553
f 617 614 569
f 554 617 569
f 568 618 585
f 585 618 620
f 571 619 617
f 587 585 620
f 571 586 619
f 624 621 555
f 622 600 621
f 600 622 586
f 547 603 626
f 604 603 574
f 591 604 574
f 605 591 602
f 626 576 547
f 627 576 626
f 628 560 593
f 594 607 549
f 628 608 560
f 595 610 594
f 609 579 608
f 609 562 579
f 611 610 595
f 631 564 562
f 633 611 582
f 678 583 564
f 582 634 633
f 635 583 678
f 596 634 582
f 596 612 634
f 613 597 635
f 614 615 636
f 616 615 614
f 638 599 598
f 616 614 617
f 599 618 568
f 618 599 670
f 619 644 640
f 617 619 640
f 586 644 619
f 646 621 647
f 648 621 646
f 622 621 648
f 622 644 586
f 601 623 624
f 601 624 555
f 603 604 626
f 591 672 604
f 591 605 672
f 588 589 625
f 649 589 606
f 627 650 593
f 592 649 606
f 650 628 593
f 607 594 629
f 630 608 628
f 610 629 594
f 632 609 608
f 630 632 608
f 653 632 630
f 610 654 652
f 611 654 610
f 632 631 609
f 609 631 562
f 676 654 633
f 633 654 611
f 678 564 631
f 634 656 633
f 657 634 612
f 636 657 612
f 613 637 598
f 636 615 659
f 637 638 598
f 660 617 640
f 616 617 660
f 599 639 670
f 638 639 599
f 669 623 643
f 648 641 642
f 644 665 666
f 644 666 640
f 670 620 618
f 670 643 620
f 647 669 645
f 646 645 641
f 644 648 665
f 643 587 620
f 643 623 587
f 647 623 669
f 647 645 646
f 648 646 641
f 622 648 644
f 623 647 624
f 624 647 621
f 587 623 601
f 602 557 692
f 588 692 557
f 626 671 673
f 626 604 671
f 626 673 627
f 673 650 627
f 651 628 650
f 629 592 607
f 629 707 592
f 610 652 629
f 654 674 652
f 675 632 653
f 675 631 632
f 655 631 675
f 633 656 676
f 655 678 631
f 657 656 634
f 679 635 678
f 658 613 635
f 635 679 658
f 636 659 657
f 658 637 613
f 615 682 659
f 615 616 682
f 683 638 637
f 661 638 683
f 662 639 661
f 661 639 638
f 662 661 663
f 689 664 684
f 686 641 689
f 686 642 641
f 686 667 642
f 666 691 688
f 640 688 660
f 640 666 688
f 662 670 639
f 668 662 663
f 668 663 664
f 666 665 691
f 669 668 664
f 669 664 689
f 642 667 648
f 648 667 665
f 643 662 668
f 670 662 643
f 643 668 669
f 645 669 689
f 645 689 641
f 604 672 671
f 692 605 602
f 692 588 703
f 588 625 703
f 693 671 672
f 695 672 605
f 705 718 649
f 718 625 649
f 625 589 649
f 650 673 706
f 649 592 705
f 707 705 592
f 708 630 628
f 629 652 707
f 630 708 653
f 654 676 674
f 674 676 722
f 710 678 655
f 656 677 676
f 697 678 710
f 656 657 677
f 679 678 697
f 659 680 657
f 680 659 682
f 683 637 681
f 681 637 658
f 663 661 699
f 699 661 683
f 663 699 700
f 682 616 660
f 664 663 700
f 684 664 700
f 685 702 686
f 689 684 685
f 689 685 686
f 686 687 690
f 667 686 690
f 667 690 665
f 665 690 691
f 695 693 672
f 695 605 692
f 703 625 718
f 673 671 694
f 694 671 693
f 706 651 650
f 651 706 720
f 734 628 651
f 734 708 628
f 709 675 653
f 676 696 722
f 710 655 675
f 657 711 677
f 680 712 711
f 657 680 711
f 658 679 681
f 682 698 680
f 699 681 713
f 699 713 700
f 726 700 715
f 699 683 681
f 685 700 726
f 716 698 682
f 685 726 728
f 685 728 702
f 660 716 682
f 717 716 688
f 688 716 660
f 684 700 685
f 686 702 687
f 691 701 717
f 691 717 688
f 687 701 690
f 690 701 691
f 704 706 673
f 673 694 704
f 705 719 718
f 734 651 720
f 721 707 652
f 674 721 652
f 674 722 721
f 708 709 653
f 696 739 722
f 709 723 675
f 723 710 675
f 677 696 676
f 677 711 696
f 697 710 744
f 679 697 713
f 714 712 698
f 680 698 712
f 713 681 679
f 698 716 714
f 713 715 700
f 702 729 687
f 687 729 701
f 717 731 714
f 701 731 717
f 717 714 716
f 750 695 692
f 750 692 703
f 694 693 751
f 720 706 704
f 707 736 705
f 705 736 719
f 721 736 707
f 737 708 734
f 737 709 708
f 709 742 723
f 744 710 723
f 711 741 696
f 711 745 741
f 740 724 744
f 697 744 724
f 724 740 715
f 712 745 711
f 697 724 713
f 724 715 713
f 726 715 743
f 712 725 745
f 728 727 747
f 714 725 712
f 726 727 728
f 728 747 729
f 730 729 748
f 730 748 731
f 714 731 725
f 702 728 729
f 729 730 701
f 701 730 731
f 695 761 693
f 718 750 703
f 694 751 704
f 751 693 761
f 719 750 718
f 719 762 750
f 704 751 733
f 733 751 732
f 704 735 720
f 735 704 733
f 735 734 720
f 754 736 722
f 721 722 736
f 754 722 755
f 739 755 722
f 709 737 756
f 742 709 756
f 696 741 739
f 742 756 740
f 742 744 723
f 744 742 740
f 743 759 727
f 740 743 715
f 769 749 747
f 726 743 727
f 725 746 745
f 760 746 725
f 748 749 760
f 731 760 725
f 729 747 749
f 729 749 748
f 748 760 731
f 695 750 761
f 750 762 761
f 736 752 719
f 719 752 762
f 733 753 735
f 753 733 732
f 764 735 763
f 763 735 753
f 736 754 752
f 735 764 734
f 738 737 764
f 764 737 734
f 738 756 737
f 738 765 756
f 739 766 755
f 756 765 767
f 740 756 767
f 741 758 739
f 739 758 766
f 743 740 767
f 759 767 757
f 743 767 759
f 745 746 758
f 745 758 741
f 747 727 769
f 751 761 732
f 773 732 761
f 773 761 772
f 772 761 762
f 773 753 732
f 772 762 752
f 764 763 774
f 774 738 764
f 738 774 765
f 757 765 774
f 767 765 757
f 757 774 768
f 758 775 766
f 770 775 758
f 759 757 768
f 759 768 727
f 727 768 769
f 749 769 778
f 749 778 770
f 770 758 746
f 749 770 760
f 760 770 746
f 773 771 753
f 753 771 763
f 752 754 772
f 774 763 771
f 755 766 754
f 777 774 771
f 776 766 775
f 768 774 777
f 768 777 769
f 769 777 778
f 770 778 775
f 771 773 772
f 776 771 772
f 754 776 772
f 766 776 754
f 777 771 776
f 778 777 776
f 778 776 775
# 1552 faces, 0 coords texture

# End of File
