####
#
# OBJ File Generated by Meshlab
#
####
# Object PBL5.obj
#
# Vertices: 1190
# Faces: 2376
#
####
v 31106.250000 15172.781250 12579.305664
v 30967.085938 15190.957031 12576.627930
v 31003.222656 15244.907227 12563.804688
v 31143.687500 15237.657227 12566.313477
v 30976.439453 15336.953125 12556.982422
v 31091.414062 15291.477539 12556.509766
v 31045.132812 15395.568359 12557.161133
v 30987.619141 15039.200195 12631.318359
v 30887.978516 15088.441406 12621.095703
v 30995.207031 15142.478516 12588.752930
v 31059.460938 15114.300781 12596.823242
v 31157.107422 15079.230469 12615.914062
v 31266.050781 15163.292969 12611.581055
v 30843.957031 15297.833008 12576.153320
v 30886.726562 15258.160156 12573.116211
v 30734.212891 15359.050781 12598.829102
v 31232.566406 15264.869141 12586.518555
v 31169.558594 15329.180664 12572.493164
v 31265.130859 15309.789062 12599.867188
v 30905.412109 15385.518555 12564.330078
v 30810.732422 15458.616211 12592.202148
v 30954.126953 15441.049805 12564.779297
v 31160.515625 15427.800781 12584.020508
v 31068.199219 15475.071289 12578.392578
v 30904.111328 15525.438477 12596.863281
v 31181.535156 15513.462891 12610.133789
v 30957.146484 15596.363281 12618.506836
v 30999.457031 15527.351562 12592.844727
v 31213.384766 14966.578125 12670.481445
v 31123.318359 14937.004883 12680.263672
v 31291.626953 14987.495117 12670.146484
v 31193.837891 15125.516602 12605.185547
v 30839.910156 15145.671875 12608.753906
v 30803.917969 15202.910156 12602.562500
v 31384.750000 15131.296875 12651.567383
v 31307.205078 15221.510742 12615.375000
v 31374.816406 15288.410156 12636.452148
v 30711.144531 15445.702148 12605.628906
v 31398.904297 15456.983398 12661.690430
v 31220.728516 15415.120117 12598.351562
v 31288.054688 15518.802734 12636.030273
v 30722.359375 15530.333984 12620.994141
v 30812.667969 15537.621094 12610.690430
v 30867.222656 15623.728516 12634.043945
v 30949.119141 14935.476562 12682.197266
v 31037.123047 14889.544922 12705.532227
v 31081.267578 15000.873047 12646.498047
v 30896.648438 15010.013672 12650.886719
v 30782.753906 15034.037109 12660.268555
v 31332.505859 15012.059570 12668.233398
v 31348.007812 15079.403320 12651.512695
v 31423.339844 15040.309570 12690.192383
v 31502.355469 15066.167969 12710.435547
v 30759.099609 15150.459961 12625.707031
v 30673.412109 15234.627930 12632.436523
v 31413.580078 15207.736328 12650.180664
v 30549.783203 15345.699219 12660.797852
v 30641.335938 15336.912109 12629.405273
v 31435.666016 15250.609375 12656.656250
v 31481.132812 15326.653320 12677.639648
v 31341.619141 15401.804688 12633.700195
v 30602.554688 15444.722656 12634.514648
v 30542.744141 15530.335938 12662.296875
v 30568.412109 15585.800781 12664.876953
v 31379.355469 15559.037109 12679.533203
v 31238.119141 15569.982422 12636.056641
v 30658.294922 15643.449219 12661.720703
v 31174.367188 15628.698242 12646.037109
v 31339.740234 15636.280273 12693.883789
v 31155.509766 15714.285156 12680.260742
v 30926.050781 15706.582031 12664.293945
v 31056.914062 15739.296875 12681.152344
v 31055.830078 15641.530273 12638.534180
v 30979.544922 15807.442383 12712.502930
v 30825.546875 14952.859375 12690.441406
v 31139.869141 14846.931641 12731.855469
v 30691.187500 15089.274414 12666.820312
v 31522.830078 15160.934570 12701.344727
v 30633.714844 15138.750000 12669.041992
v 30455.082031 15391.672852 12700.090820
v 30532.197266 15292.172852 12676.637695
v 31518.601562 15396.322266 12703.766602
v 30521.541016 15474.032227 12664.413086
v 30416.636719 15559.267578 12708.550781
v 31423.001953 15505.770508 12681.828125
v 31255.062500 15681.085938 12685.518555
v 30744.654297 15714.596680 12675.514648
v 30786.796875 15778.953125 12697.839844
v 31320.060547 15736.378906 12729.746094
v 30822.896484 15825.711914 12716.745117
v 31183.896484 15797.285156 12723.654297
v 30879.628906 14869.400391 12733.264648
v 31056.189453 14805.967773 12757.757812
v 31506.925781 14967.515625 12747.724609
v 31629.460938 15052.755859 12774.092773
v 30524.953125 15176.908203 12709.203125
v 30407.515625 15340.344727 12733.751953
v 30368.275391 15351.124023 12775.989258
v 30452.564453 15257.591797 12727.284180
v 31531.722656 15269.251953 12694.619141
v 30344.248047 15499.323242 12758.770508
v 30368.955078 15511.401367 12733.496094
v 30429.085938 15480.341797 12701.937500
v 31508.486328 15588.589844 12748.867188
v 31431.105469 15660.162109 12740.192383
v 31565.839844 15640.909180 12797.704102
v 30484.636719 15629.467773 12699.481445
v 30565.568359 15777.420898 12726.500000
v 31373.636719 15770.978516 12762.360352
v 31234.355469 15770.126953 12719.571289
v 31192.039062 15895.652344 12781.215820
v 31064.210938 15873.695312 12752.367188
v 30901.935547 14800.117188 12784.773438
v 31346.410156 14888.568359 12734.893555
v 31431.580078 14870.836914 12771.880859
v 31434.099609 14919.989258 12743.706055
v 30662.699219 15035.783203 12699.490234
v 30588.810547 15083.166992 12710.839844
v 30433.355469 15120.983398 12787.605469
v 31613.298828 15140.525391 12750.845703
v 30517.746094 15123.255859 12731.514648
v 30417.498047 15237.860352 12761.541016
v 30385.228516 15252.266602 12795.487305
v 31649.750000 15251.565430 12765.500977
v 31646.255859 15344.695312 12768.158203
v 31541.757812 15498.019531 12738.336914
v 31606.074219 15421.787109 12755.879883
v 30312.505859 15639.984375 12796.920898
v 30344.449219 15683.541016 12775.292969
v 30442.699219 15664.700195 12725.613281
v 30680.910156 15803.968750 12718.626953
v 31352.359375 15881.719727 12820.910156
v 31296.115234 15819.464844 12763.501953
v 30891.667969 15880.479492 12748.832031
v 31121.210938 15828.948242 12731.057617
v 30987.025391 15916.120117 12776.351562
v 31566.125000 14897.583008 12809.063477
v 30677.853516 14938.597656 12748.089844
v 31579.181641 14980.127930 12773.672852
v 30567.048828 14972.553711 12773.919922
v 31697.375000 15137.208984 12801.341797
v 30394.875000 15150.844727 12822.263672
v 30301.023438 15585.405273 12811.710938
v 31652.658203 15534.562500 12805.498047
v 30418.169922 15747.099609 12767.711914
v 31433.630859 15755.576172 12779.672852
v 30575.544922 15809.299805 12740.166016
v 31093.425781 15937.250000 12795.506836
v 30961.945312 14738.318359 12829.439453
v 31295.839844 14814.462891 12777.338867
v 31385.458984 14794.604492 12814.086914
v 30758.250000 14892.025391 12753.030273
v 31670.251953 15018.210938 12813.713867
v 30464.269531 15028.497070 12800.611328
v 30378.044922 15161.819336 12862.451172
v 30359.046875 15272.015625 12851.304688
v 30328.611328 15396.181641 12845.455078
v 31763.082031 15317.675781 12839.248047
v 30299.144531 15750.746094 12876.480469
v 30323.085938 15731.457031 12823.155273
v 30350.683594 15781.849609 12822.586914
v 31455.574219 15782.692383 12806.948242
v 30782.304688 15921.583984 12770.093750
v 30856.986328 15952.791016 12794.235352
v 31205.154297 14765.779297 12801.702148
v 31450.791016 14728.028320 12894.097656
v 31565.865234 14849.561523 12839.378906
v 30759.490234 14823.407227 12805.895508
v 31639.980469 14924.716797 12836.036133
v 30545.558594 14928.612305 12812.661133
v 30420.183594 14960.930664 12875.414062
v 30480.259766 14902.304688 12864.949219
v 30400.333984 15063.140625 12844.640625
v 31765.951172 15089.635742 12865.027344
v 31755.675781 15218.607422 12835.165039
v 31792.414062 15425.240234 12866.610352
v 31726.771484 15468.916992 12832.862305
v 31776.648438 15532.127930 12879.725586
v 30301.544922 15536.241211 12856.277344
v 31603.376953 15725.001953 12866.296875
v 30328.970703 15905.092773 12908.667969
v 30386.271484 15842.463867 12830.237305
v 30512.785156 15887.982422 12806.108398
v 30713.667969 15901.727539 12765.809570
v 31205.050781 15920.320312 12802.362305
v 31010.339844 15983.920898 12830.296875
v 31076.564453 14720.346680 12837.427734
v 30747.314453 14780.022461 12850.330078
v 30495.646484 14827.754883 12918.486328
v 30561.148438 14852.263672 12866.181641
v 31809.134766 15294.990234 12870.985352
v 31683.994141 15578.590820 12837.049805
v 31631.271484 15666.200195 12846.391602
v 31484.617188 15834.112305 12870.636719
v 30390.724609 15937.888672 12891.065430
v 30425.671875 15883.345703 12834.510742
v 30731.826172 15984.148438 12830.939453
v 31334.699219 15911.519531 12843.080078
v 30932.369141 14700.864258 12877.239258
v 31232.193359 14719.423828 12849.965820
v 31319.222656 14752.545898 12832.969727
v 31525.550781 14794.725586 12863.717773
v 30625.580078 14854.600586 12830.405273
v 30453.962891 14847.478516 12928.725586
v 30391.070312 15043.921875 12910.019531
v 31798.171875 15162.727539 12873.579102
v 31826.074219 15216.041992 12887.589844
v 31868.652344 15301.863281 12922.341797
v 30321.300781 15406.987305 12922.989258
v 31788.289062 15494.914062 12871.975586
v 30303.851562 15577.825195 12948.915039
v 30510.958984 15923.784180 12830.970703
v 30494.660156 16013.087891 12914.253906
v 30601.632812 15991.756836 12862.955078
v 30846.914062 16034.206055 12865.430664
v 31131.513672 16063.739258 12933.738281
v 31131.957031 16025.262695 12885.253906
v 31534.626953 14706.444336 12951.452148
v 31665.740234 14734.424805 12988.869141
v 31604.169922 14784.310547 12915.741211
v 31680.529297 14857.451172 12908.299805
v 31754.939453 14933.455078 12920.227539
v 31819.517578 15019.882812 12931.158203
v 30366.996094 15177.750977 12913.162109
v 31858.117188 15044.398438 12953.208984
v 30349.447266 15273.607422 12920.751953
v 30323.738281 15460.425781 12978.484375
v 30287.849609 15646.308594 12888.272461
v 30292.312500 15730.812500 12927.113281
v 31709.125000 15734.077148 12967.628906
v 30310.873047 15899.284180 12933.595703
v 30691.875000 16069.601562 12929.097656
v 31007.660156 14637.944336 12940.621094
v 31372.126953 14688.345703 12909.661133
v 30590.496094 14776.536133 12925.941406
v 30659.046875 14716.143555 12961.786133
v 30822.441406 14727.832031 12878.293945
v 31714.437500 14780.057617 12976.750000
v 31824.089844 14905.375000 13003.992188
v 31903.945312 15164.634766 12973.069336
v 31994.503906 15315.314453 13046.679688
v 31884.751953 15385.302734 12942.436523
v 31886.416016 15460.703125 12957.862305
v 31750.332031 15655.374023 12936.260742
v 30299.171875 15843.961914 12953.710938
v 31279.207031 15975.116211 12888.778320
v 30553.796875 16077.658203 12966.333984
v 31165.539062 14648.552734 12926.077148
v 31293.955078 14664.580078 12919.079102
v 30900.316406 14658.356445 12939.988281
v 31758.193359 14786.651367 13006.537109
v 30354.041016 15263.477539 12977.609375
v 31954.158203 15320.121094 13005.100586
v 31871.009766 15527.709961 12967.470703
v 31977.923828 15462.651367 13036.640625
v 31831.851562 15612.775391 12980.503906
v 31566.675781 15818.930664 12931.831055
v 31379.574219 15941.934570 12918.849609
v 30312.785156 15945.248047 13041.359375
v 30343.992188 15979.637695 12966.041992
v 30389.546875 16049.300781 13018.642578
v 30429.376953 16020.812500 12947.974609
v 31244.164062 16031.283203 12943.081055
v 30852.958984 16069.329102 12904.549805
v 31177.910156 16035.540039 12905.814453
v 30791.996094 16106.230469 12963.520508
v 30945.351562 16105.327148 12960.957031
v 30980.806641 16159.026367 13049.456055
v 31439.957031 14591.301758 13043.943359
v 31493.037109 14640.578125 13002.758789
v 31602.902344 14637.430664 13048.565430
v 30531.781250 14723.955078 13017.323242
v 31733.458984 14708.156250 13055.282227
v 30517.121094 14686.876953 13085.029297
v 30427.984375 14810.590820 13015.162109
v 30384.708984 15048.056641 12968.535156
v 31926.160156 15593.767578 13047.705078
v 31800.626953 15698.210938 13016.564453
v 31745.212891 15782.620117 13046.028320
v 30466.193359 16097.655273 13026.399414
v 30644.503906 16129.859375 13015.828125
v 31310.812500 14600.648438 13000.889648
v 31267.388672 14556.886719 13054.590820
v 30846.679688 14619.758789 13024.688477
v 30478.523438 14711.161133 13079.635742
v 31839.367188 14854.388672 13067.771484
v 30407.763672 14901.429688 12978.102539
v 31962.046875 15197.840820 13035.915039
v 31977.404297 15539.865234 13061.681641
v 30311.878906 15649.604492 13017.833984
v 30345.816406 16006.505859 13053.038086
v 30902.611328 16154.474609 13032.815430
v 30600.353516 14669.342773 13058.024414
v 30419.394531 14814.717773 13055.328125
v 30399.638672 14926.309570 13044.684570
v 30374.316406 15131.381836 13000.204102
v 31883.074219 14979.825195 13033.646484
v 32027.343750 15461.744141 13073.718750
v 32107.906250 15506.454102 13154.752930
v 32059.005859 15608.191406 13165.034180
v 31880.062500 15661.925781 13053.698242
v 31842.603516 15738.848633 13082.504883
v 31683.617188 15850.624023 13067.945312
v 30758.681641 16159.072266 13049.136719
v 31487.615234 14502.004883 13170.370117
v 30692.257812 14654.621094 13032.104492
v 31019.222656 14587.241211 13019.726562
v 31055.492188 14640.215820 12933.335938
v 31162.025391 14534.990234 13093.034180
v 31602.876953 14575.353516 13117.227539
v 31793.613281 14726.277344 13119.428711
v 30376.095703 15172.760742 13058.547852
v 30380.785156 15235.861328 13115.389648
v 30355.099609 15320.063477 13035.297852
v 31979.238281 15684.509766 13144.062500
v 30304.507812 15795.427734 13015.382812
v 31908.671875 15766.323242 13150.853516
v 30307.226562 15882.414062 13035.522461
v 31613.289062 15899.169922 13069.256836
v 31508.367188 15903.172852 12985.661133
v 31377.222656 16094.462891 13173.381836
v 30383.675781 16062.421875 13118.525391
v 30527.625000 16133.515625 13054.835938
v 30609.601562 16156.298828 13067.527344
v 30735.666016 16196.208008 13121.142578
v 30768.425781 14563.219727 13159.367188
v 30858.783203 14519.702148 13193.368164
v 30918.406250 14574.293945 13076.109375
v 31046.558594 14549.456055 13084.973633
v 31688.322266 14635.578125 13108.117188
v 31725.042969 14576.344727 13227.303711
v 31947.300781 15058.894531 13084.468750
v 32216.753906 15436.600586 13230.675781
v 30365.681641 15376.166992 13105.397461
v 32063.867188 15311.040039 13109.823242
v 32136.128906 15414.376953 13157.761719
v 31996.513672 15385.354492 13044.452148
v 30328.234375 15660.401367 13078.721680
v 32056.099609 15659.981445 13193.411133
v 31796.558594 15839.125977 13136.421875
v 31461.271484 15992.464844 13077.224609
v 31697.951172 15915.695312 13148.507812
v 30454.201172 16127.978516 13090.598633
v 31092.800781 16145.572266 13068.086914
v 30815.449219 16237.555664 13212.808594
v 31305.234375 14485.697266 13164.856445
v 31451.957031 14456.187500 13234.831055
v 31246.541016 14472.125000 13193.356445
v 30595.925781 14641.548828 13111.468750
v 31557.732422 14566.821289 13108.204102
v 30549.828125 14641.236328 13164.935547
v 30469.777344 14705.253906 13161.485352
v 30441.498047 14749.885742 13097.432617
v 31897.339844 14853.828125 13178.490234
v 31926.003906 14957.765625 13127.073242
v 30392.787109 15066.488281 13102.836914
v 31990.253906 15077.525391 13132.763672
v 32021.107422 15235.103516 13090.381836
v 32250.787109 15336.852539 13243.163086
v 30381.281250 15418.863281 13173.807617
v 31581.966797 15976.188477 13143.495117
v 31469.593750 16050.229492 13168.455078
v 30373.671875 16028.866211 13182.288086
v 31166.937500 16118.573242 13052.417969
v 30536.812500 16176.415039 13180.800781
v 31011.546875 16214.512695 13181.300781
v 31365.667969 14437.490234 13259.986328
v 31125.839844 14442.203125 13276.121094
v 30954.232422 14504.275391 13189.251953
v 31087.851562 14475.186523 13210.681641
v 30624.626953 14586.719727 13230.019531
v 30716.812500 14549.000000 13228.399414
v 31681.757812 14498.718750 13294.484375
v 31782.851562 14679.022461 13156.747070
v 30417.363281 14871.697266 13119.880859
v 30407.560547 15203.114258 13212.552734
v 32006.994141 15021.470703 13198.498047
v 32095.226562 15246.988281 13155.530273
v 31939.968750 15818.385742 13211.946289
v 30334.427734 15926.184570 13126.188477
v 31206.523438 16164.268555 13178.920898
v 30414.490234 16095.591797 13188.105469
v 30459.115234 16136.899414 13150.023438
v 30864.562500 16201.063477 13122.436523
v 30604.576172 16190.768555 13154.188477
v 30694.378906 16214.716797 13174.441406
v 30733.574219 16263.326172 13303.098633
v 30774.896484 14488.533203 13312.260742
v 31639.460938 14548.197266 13179.070312
v 30524.527344 14644.833984 13214.737305
v 30451.015625 14793.491211 13202.745117
v 30446.775391 14863.248047 13230.911133
v 32049.251953 15131.120117 13169.360352
v 32143.882812 15179.824219 13232.424805
v 32188.353516 15274.647461 13214.712891
v 32331.808594 15357.469727 13304.420898
v 32291.976562 15431.529297 13305.336914
v 32137.724609 15580.468750 13226.255859
v 30388.023438 15593.752930 13233.866211
v 30330.781250 15758.243164 13113.841797
v 32092.351562 15731.462891 13285.558594
v 30347.082031 15853.644531 13171.041992
v 31895.611328 15894.154297 13251.912109
v 31754.078125 15982.392578 13253.182617
v 31602.824219 16086.009766 13297.843750
v 30488.302734 16157.536133 13264.161133
v 30478.500000 16149.398438 13207.776367
v 31132.349609 16196.613281 13198.980469
v 30524.441406 16182.466797 13255.517578
v 31021.046875 16261.989258 13312.838867
v 30593.927734 16217.927734 13271.672852
v 31363.878906 14390.970703 13351.267578
v 31592.759766 14471.214844 13252.107422
v 31223.089844 14405.647461 13343.981445
v 30501.636719 14704.415039 13284.320312
v 31852.212891 14709.708984 13277.017578
v 31967.294922 14919.845703 13237.777344
v 30426.085938 14983.968750 13212.095703
v 32111.871094 15118.691406 13245.859375
v 32362.353516 15305.304688 13336.238281
v 32225.445312 15478.218750 13258.498047
v 32197.390625 15580.719727 13301.083984
v 30365.021484 15768.892578 13207.934570
v 30371.089844 15937.897461 13216.795898
v 30405.185547 16070.149414 13214.733398
v 30467.513672 16110.329102 13299.080078
v 31305.316406 16134.916992 13190.924805
v 30814.017578 16274.687500 13320.745117
v 30925.382812 16254.125000 13268.000977
v 31531.884766 14473.129883 13225.412109
v 31217.599609 14388.583984 13398.295898
v 30879.832031 14464.541992 13285.334961
v 30648.986328 14560.728516 13297.389648
v 30572.724609 14624.917969 13334.914062
v 30488.679688 14790.892578 13320.362305
v 30458.109375 15052.769531 13341.764648
v 32034.427734 14999.426758 13259.578125
v 32017.781250 14937.618164 13312.849609
v 32110.205078 15057.536133 13304.488281
v 32181.423828 15146.498047 13293.516602
v 32302.871094 15291.461914 13293.269531
v 30401.089844 15460.140625 13245.083984
v 31832.369141 15982.905273 13318.260742
v 30541.294922 16168.576172 13346.735352
v 30614.953125 16229.431641 13333.002930
v 30763.837891 16281.958008 13364.096680
v 30734.025391 16284.129883 13410.142578
v 31439.826172 14390.853516 13346.682617
v 31367.261719 14366.252930 13410.114258
v 30938.281250 14437.520508 13349.814453
v 30690.576172 14526.254883 13357.918945
v 31784.136719 14605.458008 13289.190430
v 31950.142578 14859.418945 13282.671875
v 32186.521484 15103.911133 13351.733398
v 32296.185547 15231.688477 13321.589844
v 30463.345703 15168.781250 13375.869141
v 32394.738281 15342.275391 13378.546875
v 32081.537109 15768.708984 13310.462891
v 32014.652344 15787.077148 13242.371094
v 31984.250000 15883.878906 13336.610352
v 30460.960938 16047.185547 13331.061523
v 31756.414062 16063.210938 13368.800781
v 30517.671875 16111.912109 13376.672852
v 31401.691406 16198.626953 13362.460938
v 30582.707031 16205.655273 13351.202148
v 30905.822266 16290.088867 13378.883789
v 31631.281250 14445.068359 13320.767578
v 31359.779297 14348.452148 13469.755859
v 31008.681641 14411.378906 13436.556641
v 30625.160156 14575.821289 13356.198242
v 30529.892578 14701.784180 13354.167969
v 30530.583984 14777.631836 13457.388672
v 31912.232422 14765.818359 13348.275391
v 32028.132812 14915.808594 13382.934570
v 32092.482422 14992.241211 13374.889648
v 32382.056641 15297.456055 13371.129883
v 30401.609375 15820.126953 13298.843750
v 31453.173828 16143.095703 13295.163086
v 31264.027344 16206.542969 13297.904297
v 30625.695312 16213.441406 13443.095703
v 31132.423828 16233.378906 13286.255859
v 30657.294922 16247.400391 13416.402344
v 30692.171875 14518.656250 13442.782227
v 30744.378906 14488.372070 13400.080078
v 30830.951172 14458.112305 13356.383789
v 30657.222656 14548.365234 13481.736328
v 30585.753906 14626.894531 13404.571289
v 30556.828125 14694.846680 13454.002930
v 31834.218750 14621.443359 13406.774414
v 31971.761719 14848.573242 13364.257812
v 32026.523438 14902.599609 13459.429688
v 32224.214844 15125.259766 13412.877930
v 32294.804688 15200.190430 13426.938477
v 32314.689453 15212.188477 13378.032227
v 30449.009766 15397.599609 13366.149414
v 32316.548828 15470.542969 13373.250000
v 30458.058594 15524.587891 13403.217773
v 30417.751953 15674.604492 13320.793945
v 32245.380859 15559.084961 13354.461914
v 32068.527344 15876.707031 13436.781250
v 30408.025391 15983.948242 13274.339844
v 30431.859375 15900.131836 13340.753906
v 31895.359375 16042.500000 13470.809570
v 30834.779297 16294.457031 13363.735352
v 31121.564453 16284.802734 13421.471680
v 31569.712891 14378.167969 13381.986328
v 31615.402344 14348.717773 13456.882812
v 31724.935547 14471.686523 13408.853516
v 30815.447266 14458.212891 13420.369141
v 30610.041016 14607.307617 13490.436523
v 31912.791016 14735.101562 13453.404297
v 31978.402344 14834.017578 13458.757812
v 32060.597656 14953.161133 13502.669922
v 32117.849609 15014.683594 13425.774414
v 30505.304688 14977.054688 13465.869141
v 32382.433594 15323.324219 13459.623047
v 32335.195312 15493.071289 13443.386719
v 32183.908203 15690.003906 13384.536133
v 30475.599609 15847.789062 13429.054688
v 31765.976562 16135.578125 13496.270508
v 31598.826172 16164.358398 13416.199219
v 30838.365234 16295.240234 13475.367188
v 31005.865234 16297.704102 13429.739258
v 31314.691406 16248.758789 13417.226562
v 31543.339844 14333.767578 13463.500977
v 31660.839844 14398.382812 13423.715820
v 30766.085938 14469.524414 13509.923828
v 30922.601562 14427.020508 13448.026367
v 31710.666016 14349.228516 13582.097656
v 31773.248047 14511.908203 13446.384766
v 30524.136719 14754.792969 13412.131836
v 32006.990234 14883.323242 13577.769531
v 32137.925781 15047.831055 13477.947266
v 32219.046875 15147.980469 13484.478516
v 32361.378906 15283.741211 13442.026367
v 32269.746094 15588.774414 13440.344727
v 30467.720703 15641.138672 13432.050781
v 31966.947266 15995.006836 13475.848633
v 31446.148438 16227.414062 13439.757812
v 30728.785156 16265.801758 13492.203125
v 31160.130859 16310.066406 13516.553711
v 31239.535156 16284.185547 13469.469727
v 31621.390625 14275.885742 13591.621094
v 30866.402344 14436.900391 13520.468750
v 30653.916016 14553.709961 13557.055664
v 30507.177734 14885.521484 13441.374023
v 32075.466797 14990.562500 13556.459961
v 30485.476562 15255.429688 13447.842773
v 32380.433594 15400.878906 13413.702148
v 32201.050781 15715.586914 13460.714844
v 32128.267578 15827.148438 13463.745117
v 32075.363281 15899.964844 13487.414062
v 30489.367188 15958.334961 13419.805664
v 30541.314453 16030.819336 13477.316406
v 30601.062500 16160.868164 13476.849609
v 31667.873047 14290.387695 13590.344727
v 31193.437500 14377.242188 13461.193359
v 31054.394531 14395.126953 13528.342773
v 31225.031250 14363.389648 13522.192383
v 30703.472656 14508.642578 13566.387695
v 31801.509766 14524.818359 13510.917969
v 31840.470703 14587.682617 13540.690430
v 31937.343750 14763.578125 13537.103516
v 32157.488281 15097.689453 13533.668945
v 32253.628906 15228.533203 13532.924805
v 32258.558594 15292.027344 13582.932617
v 32366.464844 15454.136719 13531.588867
v 30452.015625 15744.189453 13397.583008
v 30950.882812 16304.809570 13478.091797
v 31422.023438 16282.775391 13539.363281
v 30824.804688 14444.828125 13634.346680
v 30909.843750 14424.460938 13582.798828
v 30614.632812 14608.188477 13569.982422
v 30538.792969 14995.154297 13574.128906
v 32202.451172 15210.612305 13590.429688
v 30492.511719 15389.519531 13475.549805
v 32383.017578 15374.493164 13490.906250
v 32362.771484 15480.830078 13499.127930
v 30499.646484 15802.254883 13484.930664
v 31991.742188 16024.205078 13568.128906
v 30559.958984 16077.725586 13482.562500
v 31823.634766 16127.043945 13540.517578
v 30602.816406 16106.481445 13529.674805
v 30698.531250 16228.302734 13541.458984
v 31554.746094 16256.728516 13564.511719
v 30987.833984 16312.799805 13558.944336
v 31540.910156 14285.115234 13608.829102
v 31532.773438 14309.596680 13517.932617
v 31463.177734 14307.654297 13546.463867
v 31263.958984 14353.221680 13600.216797
v 30749.955078 14479.401367 13625.470703
v 30888.468750 14429.875000 13654.294922
v 31806.222656 14492.967773 13630.871094
v 31862.462891 14617.837891 13601.034180
v 30533.347656 15123.780273 13569.203125
v 30508.550781 15513.306641 13517.077148
v 32308.177734 15417.773438 13591.368164
v 32315.712891 15534.582031 13590.737305
v 32324.900391 15542.171875 13514.191406
v 32282.441406 15625.190430 13553.022461
v 32249.625000 15679.891602 13538.519531
v 30523.851562 15887.840820 13502.365234
v 32047.642578 15978.921875 13590.408203
v 31656.546875 16209.160156 13546.244141
v 30654.933594 16161.972656 13570.361328
v 30787.937500 16278.374023 13527.191406
v 31356.417969 14333.841797 13559.426758
v 31910.933594 14711.695312 13627.340820
v 31973.867188 14836.388672 13637.079102
v 30540.763672 14882.324219 13556.024414
v 32186.175781 15147.391602 13547.047852
v 32279.050781 15353.574219 13596.359375
v 32303.433594 15501.706055 13616.494141
v 32292.103516 15614.950195 13611.888672
v 30531.955078 15683.302734 13556.042969
v 30489.310547 15699.197266 13474.975586
v 30761.505859 16196.941406 13675.681641
v 30811.263672 16258.017578 13630.437500
v 30928.074219 16300.148438 13624.031250
v 31136.859375 16323.338867 13563.886719
v 31246.667969 16330.358398 13622.074219
v 31746.812500 14386.988281 13616.773438
v 31037.746094 14397.727539 13596.113281
v 31249.335938 14359.555664 13659.990234
v 30744.005859 14500.634766 13731.602539
v 30589.000000 14661.277344 13566.332031
v 30559.697266 14730.799805 13528.635742
v 32098.080078 15046.835938 13598.815430
v 32144.318359 15161.984375 13642.958008
v 32186.789062 15268.353516 13663.364258
v 32210.548828 15355.716797 13683.504883
v 32217.539062 15772.556641 13641.225586
v 32186.636719 15787.543945 13546.213867
v 31914.123047 16090.589844 13581.341797
v 31498.132812 16295.875000 13617.490234
v 31369.312500 16312.510742 13603.400391
v 31382.712891 16341.976562 13719.072266
v 31571.251953 14266.543945 13701.467773
v 31702.273438 14263.992188 13755.744141
v 31453.558594 14303.716797 13655.230469
v 30790.205078 14472.921875 13721.460938
v 31866.923828 14621.745117 13720.551758
v 30551.363281 14793.914062 13552.660156
v 30577.865234 15085.380859 13688.709961
v 32252.019531 15464.037109 13676.526367
v 30554.554688 15474.578125 13615.359375
v 30570.937500 15716.931641 13619.337891
v 32258.542969 15695.059570 13627.838867
v 30576.042969 15933.531250 13572.863281
v 30617.824219 16018.814453 13601.795898
v 30814.357422 16227.092773 13704.655273
v 31090.650391 16324.229492 13725.046875
v 31626.779297 16270.237305 13651.191406
v 31508.458984 16325.279297 13722.289062
v 31763.962891 14386.211914 13716.071289
v 31067.208984 14400.125000 13679.798828
v 30690.136719 14524.268555 13677.437500
v 30645.271484 14561.030273 13644.790039
v 30603.142578 14670.462891 13665.907227
v 31949.365234 14806.857422 13744.175781
v 30551.283203 15303.382812 13617.481445
v 30602.925781 15361.352539 13724.526367
v 32147.835938 15275.245117 13735.524414
v 32193.541016 15406.450195 13738.892578
v 32247.207031 15726.487305 13692.311523
v 30592.281250 15843.144531 13626.487305
v 32141.486328 15924.824219 13738.870117
v 30672.640625 15941.273438 13725.947266
v 32128.802734 15867.784180 13544.185547
v 30745.892578 16013.106445 13801.372070
v 30676.527344 16093.696289 13648.232422
v 31169.718750 16332.142578 13648.724609
v 31660.875000 14237.759766 13718.844727
v 31420.568359 14316.458984 13712.096680
v 31805.351562 14474.810547 13740.561523
v 30586.007812 14741.660156 13659.539062
v 32109.304688 15141.408203 13695.707031
v 32231.990234 15559.912109 13743.766602
v 30641.382812 15467.097656 13783.767578
v 30597.070312 15564.230469 13686.332031
v 32266.939453 15636.784180 13697.002930
v 32195.816406 15842.603516 13738.779297
v 30733.617188 16154.419922 13684.329102
v 30928.392578 16282.138672 13730.178711
v 31841.246094 16192.733398 13703.975586
v 31767.978516 16224.125977 13678.111328
v 31318.492188 16352.980469 13781.686523
v 31715.033203 16286.287109 13780.402344
v 31231.257812 14370.953125 13715.045898
v 31853.111328 14598.149414 13808.476562
v 30575.210938 14864.078125 13667.381836
v 30581.056641 14931.822266 13693.613281
v 32029.353516 14962.750000 13683.853516
v 32238.304688 15744.911133 13762.728516
v 30690.796875 15809.283203 13796.010742
v 32083.107422 16001.892578 13753.452148
v 32035.449219 16040.605469 13723.396484
v 31923.933594 16170.447266 13814.844727
v 30809.283203 16183.874023 13766.222656
v 30905.380859 16235.639648 13854.259766
v 30886.220703 16258.583008 13747.556641
v 31445.998047 16343.962891 13755.215820
v 31645.943359 16317.384766 13810.118164
v 31586.542969 14265.046875 13773.379883
v 31774.773438 14409.924805 13860.816406
v 31370.486328 14341.590820 13771.455078
v 31071.373047 14412.911133 13750.529297
v 30938.804688 14446.341797 13780.276367
v 30665.083984 14572.017578 13754.301758
v 30715.066406 14535.158203 13781.871094
v 30875.570312 14449.285156 13740.171875
v 30632.207031 15271.936523 13800.736328
v 32187.330078 15502.151367 13805.635742
v 32194.263672 15591.012695 13844.218750
v 30640.646484 15694.755859 13740.338867
v 32228.458984 15667.914062 13790.240234
v 32181.486328 15901.950195 13827.264648
v 30959.958984 16269.505859 13873.244141
v 31415.488281 16362.768555 13869.342773
v 31544.087891 16342.092773 13827.941406
v 31676.792969 14234.169922 13768.428711
v 31739.625000 14333.706055 13859.228516
v 31488.576172 14303.714844 13800.793945
v 31225.544922 14387.375000 13785.171875
v 30649.261719 14625.918945 13767.917969
v 30621.921875 14722.950195 13757.761719
v 30616.708984 14814.842773 13772.042969
v 32066.582031 15134.268555 13818.308594
v 32126.677734 15285.692383 13791.411133
v 30693.287109 15488.987305 13872.004883
v 32128.738281 15367.275391 13858.555664
v 30694.375000 15674.379883 13835.560547
v 32226.759766 15814.904297 13872.867188
v 32215.119141 15824.487305 13799.333984
v 30750.650391 15939.572266 13845.409180
v 30814.375000 16097.129883 13856.014648
v 31979.671875 16136.988281 13852.961914
v 30895.230469 16202.615234 13893.880859
v 31859.035156 16225.384766 13839.761719
v 31185.427734 16337.689453 13751.383789
v 31241.878906 14401.533203 13849.052734
v 31082.544922 14435.327148 13838.424805
v 30785.066406 14512.670898 13854.993164
v 30685.312500 14570.867188 13792.060547
v 31853.001953 14636.288086 13968.763672
v 30630.951172 14931.617188 13820.236328
v 30632.177734 15071.502930 13817.841797
v 31990.291016 14931.867188 13827.851562
v 30658.490234 15188.032227 13863.680664
v 32037.636719 15027.527344 13770.553711
v 32153.875000 15484.123047 13896.613281
v 32064.410156 16058.702148 13863.019531
v 30761.621094 16116.123047 13758.170898
v 31019.074219 16268.566406 13962.179688
v 31628.185547 16342.744141 13925.758789
v 30912.152344 14498.071289 13937.333008
v 30849.447266 14498.488281 13894.002930
v 30685.648438 14608.416992 13855.851562
v 30739.591797 14561.384766 13898.374023
v 31842.203125 14588.790039 13897.220703
v 30666.167969 14677.199219 13877.815430
v 30664.015625 14881.278320 13905.015625
v 32220.343750 15732.799805 13881.391602
v 32204.500000 15680.451172 14004.752930
v 30813.166016 16006.838867 13905.524414
v 31016.015625 16304.369141 13779.765625
v 31495.302734 16362.693359 13913.409180
v 31521.554688 14313.814453 13884.727539
v 31719.785156 14316.920898 13924.364258
v 31337.841797 14411.552734 13958.272461
v 31146.847656 14450.855469 13920.447266
v 30699.570312 14616.773438 13926.436523
v 30632.382812 14788.908203 13814.625000
v 30696.652344 14936.410156 13977.611328
v 30690.281250 15283.569336 13909.847656
v 30752.148438 15574.167969 13949.259766
v 30837.185547 15934.390625 13970.491211
v 32193.771484 15927.348633 13923.348633
v 32143.632812 15985.087891 13903.201172
v 30915.992188 16118.629883 14004.909180
v 30982.074219 16227.606445 14009.041992
v 31799.277344 16273.195312 13877.416016
v 31739.126953 16320.320312 14017.202148
v 31693.265625 16326.482422 13907.273438
v 31647.437500 14260.544922 13859.879883
v 31701.607422 14273.104492 13828.066406
v 31587.511719 14319.809570 13976.653320
v 31352.140625 14371.867188 13863.076172
v 31250.343750 14426.038086 13925.277344
v 31042.982422 14487.068359 13965.197266
v 30670.900391 14755.737305 13909.832031
v 30719.806641 14990.519531 14015.391602
v 30745.859375 15266.890625 14012.071289
v 32084.093750 15241.865234 13898.070312
v 30748.990234 15813.929688 13892.179688
v 32234.976562 15815.835938 13951.230469
v 32017.498047 16151.838867 14036.417969
v 30873.935547 16148.474609 13914.173828
v 32056.298828 16096.832031 13956.924805
v 31017.583984 16299.096680 13870.010742
v 31811.447266 16288.315430 14018.422852
v 31470.816406 16371.557617 13967.095703
v 31471.705078 14372.240234 13997.756836
v 31738.349609 14347.418945 13940.325195
v 31431.933594 14429.439453 14087.595703
v 30731.089844 14606.249023 13976.542969
v 30789.812500 14550.135742 13951.217773
v 31783.988281 14459.310547 13952.027344
v 30707.494141 14711.244141 13986.842773
v 31927.972656 14822.731445 13981.902344
v 32011.085938 15022.655273 13918.605469
v 32110.595703 15359.675781 13952.634766
v 30802.500000 15698.308594 13994.798828
v 32119.224609 16031.987305 13954.521484
v 31919.267578 16209.372070 13915.872070
v 31877.050781 16250.084961 13988.637695
v 31238.945312 16344.554688 13916.314453
v 30841.751953 14581.016602 14074.603516
v 30865.732422 14545.217773 14029.512695
v 30919.767578 14539.888672 14056.488281
v 31162.304688 14525.143555 14088.906250
v 31812.027344 14576.738281 14066.138672
v 31883.035156 14747.686523 14065.199219
v 32075.435547 15254.224609 14005.217773
v 32176.792969 15591.786133 13944.165039
v 30815.648438 15404.166992 14084.413086
v 30876.996094 15833.968750 14057.576172
v 32220.697266 15877.985352 13926.414062
v 30907.080078 16032.432617 14029.095703
v 32263.007812 15893.833008 14068.655273
v 31973.212891 16178.728516 13987.484375
v 31317.224609 16349.609375 14030.714844
v 31393.037109 16368.062500 13958.756836
v 31687.218750 14298.083984 13963.745117
v 31331.626953 14457.388672 14052.351562
v 30959.287109 14561.769531 14119.680664
v 30728.535156 14664.110352 14016.040039
v 30743.121094 14904.490234 14064.852539
v 32108.513672 15402.100586 14101.450195
v 32152.654297 15546.343750 14139.164062
v 30854.804688 15616.205078 14085.253906
v 31034.808594 16199.271484 14107.291992
v 31933.824219 16214.472656 14066.761719
v 31110.669922 16303.832031 13979.668945
v 31194.419922 16325.465820 13996.831055
v 31613.357422 16349.666992 14028.065430
v 31758.167969 14445.163086 14067.033203
v 30826.593750 14621.294922 14112.251953
v 30902.175781 14601.439453 14153.833984
v 30801.701172 14652.508789 14112.145508
v 31254.837891 14497.226562 14074.248047
v 30705.083984 14861.644531 13998.045898
v 31957.968750 14924.765625 14086.710938
v 32045.710938 15182.310547 14140.455078
v 32261.765625 15844.165039 14058.491211
v 32116.583984 16065.346680 14082.748047
v 31673.496094 14321.963867 14041.074219
v 31630.460938 14332.422852 14048.676758
v 30782.990234 14722.664062 14107.980469
v 30745.433594 14757.254883 14059.959961
v 30799.316406 14905.060547 14153.110352
v 32198.699219 15660.265625 14114.681641
v 32273.806641 15817.002930 14172.265625
v 30944.992188 15888.493164 14124.155273
v 32220.556641 15946.349609 14064.954102
v 30974.970703 16110.962891 14084.997070
v 31878.804688 16248.935547 14075.657227
v 31261.669922 16314.011719 14128.074219
v 31432.433594 16366.749023 14029.993164
v 31711.720703 14347.925781 14030.989258
v 30775.537109 15097.864258 14091.408203
v 32005.386719 15061.416016 14127.787109
v 32022.757812 15146.993164 14229.438477
v 32079.435547 15326.745117 14173.489258
v 32112.218750 15454.535156 14200.851562
v 30943.992188 15625.367188 14193.616211
v 32010.255859 16160.880859 14094.390625
v 31147.642578 16274.741211 14104.737305
v 31394.269531 16344.772461 14130.506836
v 31627.746094 16340.997070 14084.744141
v 31529.800781 16359.291016 14049.857422
v 31649.849609 14375.899414 14142.509766
v 31600.646484 14403.052734 14181.513672
v 30894.179688 14666.176758 14229.487305
v 31350.578125 14508.046875 14166.998047
v 30820.667969 14807.822266 14175.427734
v 31286.603516 14574.099609 14243.594727
v 31830.464844 14677.076172 14174.971680
v 31906.802734 14882.882812 14248.769531
v 30903.449219 15396.031250 14204.507812
v 32198.509766 15672.904297 14220.001953
v 32224.806641 15951.246094 14137.769531
v 32043.554688 16131.553711 14168.547852
v 31832.683594 16267.871094 14132.892578
v 31754.193359 16295.753906 14156.756836
v 30908.220703 14745.510742 14279.614258
v 31048.572266 14596.432617 14212.632812
v 31775.519531 14549.419922 14159.356445
v 31963.492188 14977.600586 14185.810547
v 32151.820312 15571.950195 14223.273438
v 31055.890625 16046.727539 14198.056641
v 32101.625000 16077.642578 14229.497070
v 31947.101562 16198.471680 14179.409180
v 31850.320312 16243.267578 14192.252930
v 31119.621094 16206.942383 14194.541992
v 31133.179688 16245.600586 14152.842773
v 31490.181641 16353.392578 14116.909180
v 30937.384766 14644.290039 14243.710938
v 31370.742188 14548.959961 14273.656250
v 31191.484375 14580.987305 14210.399414
v 32054.052734 15286.507812 14260.483398
v 30997.695312 15718.516602 14231.458984
v 32257.160156 15793.315430 14243.964844
v 32176.609375 16005.456055 14151.375000
v 31138.896484 16154.427734 14248.088867
v 31553.613281 16331.262695 14185.516602
v 31682.542969 16285.385742 14231.375977
v 31677.437500 14403.619141 14167.183594
v 31547.238281 14415.800781 14175.428711
v 31713.779297 14533.198242 14287.995117
v 31319.101562 14609.818359 14363.511719
v 31744.894531 14544.250977 14235.631836
v 30864.302734 14911.125000 14242.575195
v 30997.445312 15398.883789 14321.863281
v 32128.501953 15577.384766 14319.584961
v 32210.328125 15743.279297 14307.091797
v 32273.429688 15885.122070 14243.058594
v 32196.238281 15980.889648 14240.264648
v 32056.011719 16098.613281 14269.077148
v 31917.890625 16190.123047 14246.554688
v 31818.396484 16236.566406 14245.078125
v 31437.398438 16313.651367 14262.954102
v 31276.027344 16287.666992 14212.192383
v 31360.896484 16311.171875 14227.905273
v 31572.285156 16295.289062 14265.414062
v 31708.437500 14458.791016 14205.604492
v 31006.826172 14637.883789 14270.868164
v 31152.771484 14639.659180 14336.674805
v 30956.441406 14735.629883 14332.804688
v 31848.177734 14780.820312 14288.651367
v 31947.724609 15008.365234 14337.988281
v 31996.544922 15143.188477 14353.456055
v 32084.578125 15443.397461 14308.587891
v 32245.285156 15821.320312 14310.516602
v 32146.652344 16021.884766 14308.644531
v 31246.820312 16224.292969 14298.408203
v 31635.181641 14446.918945 14266.706055
v 31514.156250 14467.503906 14257.082031
v 31782.062500 14664.171875 14315.602539
v 30851.779297 15114.586914 14201.126953
v 30949.419922 15199.587891 14313.848633
v 32035.255859 15341.576172 14379.184570
v 32083.773438 15558.814453 14423.662109
v 31054.259766 15638.512695 14321.376953
v 31112.656250 15827.373047 14330.700195
v 31988.082031 16115.465820 14327.198242
v 31157.296875 16022.955078 14314.167969
v 31872.406250 16154.970703 14365.708008
v 31759.832031 16237.464844 14286.781250
v 31402.416016 16297.329102 14290.325195
v 31679.257812 14503.721680 14306.132812
v 31722.091797 14620.163086 14398.519531
v 30883.226562 14872.287109 14262.742188
v 32182.171875 15817.096680 14406.937500
v 32262.673828 15877.504883 14299.810547
v 32222.568359 15938.284180 14295.102539
v 32045.076172 16067.759766 14353.704102
v 31184.166016 16201.711914 14270.938477
v 31555.029297 16265.906250 14330.078125
v 31346.906250 16244.353516 14337.678711
v 30924.414062 14988.962891 14313.452148
v 32023.654297 15421.992188 14465.763672
v 32165.009766 15751.058594 14404.488281
v 32200.775391 15879.138672 14382.628906
v 32162.453125 15951.657227 14381.193359
v 31191.623047 16001.239258 14359.416992
v 31289.806641 16059.406250 14424.883789
v 31985.400391 16032.129883 14477.157227
v 31489.279297 16255.808594 14353.246094
v 31574.617188 14479.423828 14334.101562
v 31127.003906 14683.491211 14407.130859
v 31872.101562 14877.787109 14375.970703
v 31926.507812 15012.808594 14421.847656
v 31985.259766 15234.650391 14450.829102
v 32141.148438 15668.232422 14387.641602
v 32105.136719 15967.826172 14434.001953
v 32063.214844 16007.972656 14428.896484
v 31669.548828 16177.763672 14453.394531
v 31767.236328 16185.460938 14387.652344
v 31222.880859 16097.021484 14351.528320
v 31660.732422 16241.903320 14343.591797
v 31578.400391 16205.884766 14427.303711
v 31287.005859 16171.696289 14369.516602
v 31440.074219 16225.181641 14388.704102
v 31614.273438 14493.321289 14358.021484
v 31323.958984 14641.766602 14463.029297
v 31025.453125 14689.886719 14362.271484
v 31230.494141 14653.845703 14413.070312
v 31020.808594 14718.414062 14391.633789
v 31099.466797 14731.287109 14452.092773
v 31800.785156 14773.951172 14421.069336
v 31034.771484 14806.841797 14435.458984
v 30964.830078 14836.628906 14359.403320
v 31003.841797 15044.632812 14409.015625
v 31165.908203 15540.039062 14482.947266
v 32122.000000 15762.473633 14497.567383
v 31175.480469 15674.889648 14449.126953
v 32145.171875 15850.305664 14466.507812
v 31257.267578 15869.165039 14467.049805
v 31507.126953 14534.268555 14411.888672
v 31574.042969 14528.097656 14434.306641
v 31659.841797 14635.104492 14522.093750
v 31103.806641 14813.357422 14509.411133
v 31249.476562 14698.594727 14508.350586
v 31861.941406 14915.765625 14468.750977
v 31941.326172 15110.420898 14481.079102
v 31026.404297 15173.696289 14415.594727
v 31118.558594 15288.643555 14504.894531
v 32118.656250 15888.509766 14493.509766
v 31925.410156 16035.774414 14523.833984
v 31822.806641 16107.930664 14480.875000
v 31349.945312 16102.583984 14449.500977
v 31549.787109 16171.662109 14478.014648
v 31416.726562 16140.397461 14467.901367
v 31427.988281 16173.684570 14443.642578
v 31376.914062 16216.321289 14385.469727
v 31638.267578 14539.032227 14412.858398
v 31743.419922 14825.466797 14609.692383
v 31731.597656 14709.951172 14487.320312
v 31002.394531 14956.253906 14412.853516
v 31907.654297 15053.058594 14511.903320
v 31142.828125 15168.862305 14567.609375
v 31254.382812 15610.912109 14559.198242
v 31329.935547 15946.318359 14504.301758
v 31380.933594 15990.720703 14527.018555
v 31569.253906 14577.648438 14529.893555
v 31462.644531 14594.747070 14510.865234
v 31668.214844 14709.096680 14584.662109
v 31784.507812 14827.641602 14539.536133
v 31121.468750 14889.736328 14551.298828
v 31065.191406 14916.267578 14489.935547
v 32063.861328 15674.923828 14569.958984
v 31353.230469 15836.721680 14574.295898
v 31386.863281 15888.046875 14583.710938
v 32070.761719 15913.558594 14539.758789
v 31887.503906 16013.761719 14582.435547
v 31805.345703 16033.575195 14598.464844
v 31455.867188 16024.962891 14563.186523
v 31611.890625 14637.620117 14579.442383
v 31218.228516 14743.640625 14541.076172
v 31153.326172 14778.166016 14527.054688
v 31170.152344 14850.322266 14581.220703
v 31945.568359 15311.406250 14580.388672
v 31202.107422 15270.993164 14611.983398
v 31311.169922 15698.096680 14589.601562
v 32041.316406 15858.296875 14648.620117
v 32001.060547 15961.490234 14564.575195
v 31438.273438 15956.041992 14593.942383
v 31511.910156 16086.508789 14552.177734
v 31578.759766 16085.683594 14570.740234
v 31416.501953 14654.723633 14576.098633
v 31338.958984 14702.642578 14585.434570
v 32092.468750 15822.548828 14569.958008
v 31517.000000 15994.824219 14628.434570
v 31566.664062 16035.646484 14618.046875
v 31679.324219 16097.680664 14556.736328
v 31508.193359 14624.707031 14583.085938
v 31476.695312 14701.816406 14642.083984
v 31251.402344 14872.496094 14655.678711
v 31787.642578 14939.156250 14652.491211
v 31165.683594 14941.812500 14613.277344
v 31136.169922 14998.856445 14586.592773
v 31103.781250 15052.187500 14540.673828
v 31202.041016 15074.745117 14655.124023
v 31411.490234 15763.231445 14680.950195
v 31729.232422 16026.591797 14639.871094
v 31406.373047 14723.313477 14635.893555
v 31680.693359 14864.501953 14712.625000
v 31273.253906 14790.762695 14617.097656
v 31873.666016 15061.176758 14585.055664
v 31247.419922 15238.043945 14669.751953
v 31916.205078 15301.924805 14633.984375
v 31317.021484 15343.115234 14719.065430
v 31282.769531 15437.841797 14652.676758
v 31994.755859 15517.625000 14605.707031
v 32054.115234 15766.575195 14646.174805
v 32033.765625 15804.521484 14683.787109
v 31482.650391 15896.773438 14674.373047
v 31918.875000 15954.670898 14655.108398
v 31612.324219 15977.056641 14700.964844
v 31547.203125 14684.855469 14642.048828
v 31583.550781 14749.901367 14676.108398
v 31617.343750 14723.362305 14641.498047
v 31724.285156 14878.169922 14685.705078
v 31229.500000 14924.622070 14661.615234
v 31854.615234 14975.234375 14561.624023
v 31819.345703 15064.167969 14681.605469
v 31871.566406 15277.352539 14699.591797
v 31950.119141 15457.246094 14660.917969
v 31365.716797 15591.270508 14698.224609
v 31993.808594 15916.586914 14638.736328
v 31659.023438 15983.526367 14700.715820
v 31378.544922 14813.009766 14680.598633
v 31493.117188 14799.125977 14710.289062
v 31630.878906 14842.350586 14725.594727
v 31338.210938 14899.345703 14704.017578
v 31235.130859 15000.500000 14685.133789
v 31266.392578 15158.468750 14701.168945
v 31905.177734 15476.869141 14752.425781
v 31962.873047 15563.168945 14708.478516
v 32002.792969 15675.568359 14698.926758
v 31777.232422 15962.973633 14705.045898
v 31546.345703 14781.875977 14703.272461
v 31549.375000 14895.194336 14768.200195
v 31468.716797 14873.960938 14742.591797
v 31658.453125 14935.924805 14788.707031
v 31613.679688 14909.093750 14784.342773
v 31432.664062 14950.974609 14759.762695
v 31476.992188 14921.393555 14763.208984
v 31359.550781 14984.125000 14739.048828
v 31285.458984 15012.169922 14715.090820
v 31311.134766 15130.710938 14736.279297
v 31757.621094 14983.643555 14732.018555
v 31822.457031 15240.968750 14755.450195
v 31395.597656 15519.072266 14756.523438
v 31748.568359 15940.642578 14735.897461
v 31869.804688 15954.693359 14680.288086
v 31666.550781 15909.587891 14769.997070
v 31498.628906 15020.000000 14802.760742
v 31430.013672 15046.060547 14785.770508
v 31379.781250 15097.687500 14769.468750
v 31349.789062 15261.220703 14758.900391
v 31806.119141 15309.608398 14801.152344
v 31414.179688 15443.672852 14786.419922
v 31482.296875 15523.256836 14829.808594
v 31865.550781 15435.712891 14787.687500
v 31467.531250 15728.523438 14773.458008
v 31983.814453 15732.057617 14755.339844
v 31992.904297 15844.177734 14722.925781
v 31501.435547 15786.619141 14775.808594
v 31553.468750 15136.665039 14842.157227
v 31569.039062 14989.308594 14811.987305
v 31469.107422 15191.658203 14820.815430
v 31598.324219 15267.639648 14863.656250
v 31421.837891 15273.410156 14802.633789
v 31553.625000 15385.582031 14854.707031
v 31501.224609 15404.158203 14836.894531
v 31766.392578 15328.798828 14841.796875
v 31457.228516 15411.456055 14816.117188
v 31459.021484 15636.664062 14803.001953
v 31945.332031 15653.483398 14797.958984
v 31944.607422 15859.384766 14745.019531
v 31738.511719 15866.184570 14796.870117
v 31631.845703 15009.342773 14821.423828
v 31687.023438 15054.291016 14818.559570
v 31607.167969 15086.621094 14839.675781
v 31757.039062 15083.951172 14779.444336
v 31623.433594 15189.932617 14857.214844
v 31685.976562 15174.272461 14846.734375
v 31742.769531 15231.504883 14835.833008
v 31746.912109 15356.424805 14856.795898
v 31682.578125 15329.295898 14867.077148
v 31616.718750 15411.253906 14869.384766
v 31567.142578 15501.115234 14865.116211
v 31844.421875 15489.293945 14832.553711
v 31538.568359 15614.104492 14853.426758
v 31520.890625 15700.754883 14832.693359
v 31583.375000 15783.826172 14826.541016
v 31955.451172 15767.900391 14792.739258
v 31695.943359 15844.654297 14812.310547
v 31846.658203 15836.902344 14799.594727
v 31894.892578 15876.316406 14753.954102
v 31896.886719 15772.956055 14830.907227
v 31588.912109 15877.795898 14776.888672
v 31727.718750 15122.429688 14818.877930
v 31734.089844 15442.750977 14871.728516
v 31684.660156 15444.597656 14875.914062
v 31809.023438 15494.476562 14857.464844
v 31886.248047 15584.134766 14839.054688
v 31676.357422 15568.564453 14884.430664
v 31611.968750 15617.296875 14876.674805
v 31891.693359 15694.169922 14850.967773
v 31667.509766 15680.486328 14880.753906
v 31676.642578 15779.563477 14843.743164
v 31812.732422 15794.497070 14833.877930
v 31768.253906 15551.261719 14883.273438
v 31839.916016 15619.555664 14875.113281
v 31755.560547 15738.493164 14868.319336
v 31718.861328 15679.196289 14891.186523
v 31848.208984 15715.631836 14863.535156
# 1190 vertices, 0 vertices normals

f 11 10 1
f 10 2 1
f 15 3 2
f 2 3 1
f 1 3 4
f 15 5 3
f 15 14 5
f 5 6 3
f 3 6 4
f 14 20 5
f 18 6 7
f 6 5 7
f 20 7 5
f 22 7 20
f 9 10 8
f 8 11 47
f 8 10 11
f 47 11 12
f 9 2 10
f 9 33 2
f 33 34 2
f 12 11 1
f 12 1 32
f 32 1 4
f 32 4 13
f 34 15 2
f 34 14 15
f 13 4 17
f 6 18 4
f 4 18 17
f 16 20 14
f 38 21 16
f 16 21 20
f 19 17 18
f 23 18 7
f 18 40 19
f 40 18 23
f 7 24 23
f 21 42 43
f 20 21 22
f 24 7 22
f 24 26 23
f 21 43 25
f 21 25 22
f 22 25 28
f 22 28 24
f 25 27 28
f 48 8 45
f 45 8 47
f 30 47 29
f 29 47 12
f 29 12 31
f 49 9 48
f 48 9 8
f 31 12 32
f 31 32 50
f 50 32 51
f 49 33 9
f 32 13 51
f 54 33 49
f 51 13 35
f 54 34 33
f 13 36 35
f 54 55 34
f 55 14 34
f 36 13 17
f 55 16 14
f 35 36 56
f 17 19 36
f 36 37 56
f 36 19 37
f 38 16 62
f 19 61 37
f 61 19 40
f 40 41 61
f 39 61 41
f 64 38 62
f 42 21 38
f 23 26 40
f 41 40 26
f 38 64 42
f 26 66 41
f 42 67 43
f 44 25 43
f 24 28 73
f 43 67 87
f 43 87 44
f 27 25 44
f 73 28 27
f 66 26 68
f 26 24 68
f 44 71 27
f 27 71 73
f 87 88 71
f 71 44 87
f 73 68 24
f 75 48 45
f 46 45 47
f 46 30 76
f 46 47 30
f 30 29 76
f 49 48 75
f 50 51 52
f 51 35 52
f 52 35 53
f 77 54 49
f 54 77 79
f 35 56 53
f 79 55 54
f 57 58 55
f 58 16 55
f 59 60 100
f 37 59 56
f 57 62 58
f 62 16 58
f 37 60 59
f 57 83 62
f 37 61 60
f 61 39 60
f 83 63 62
f 62 63 64
f 65 39 41
f 39 65 85
f 41 66 65
f 64 67 42
f 65 66 69
f 66 68 86
f 66 86 69
f 68 70 86
f 72 73 71
f 68 73 70
f 90 71 88
f 71 90 74
f 73 72 70
f 71 74 72
f 75 45 92
f 50 116 31
f 50 52 116
f 116 52 94
f 94 52 53
f 77 49 117
f 78 53 56
f 81 55 79
f 59 100 78
f 59 78 56
f 81 57 55
f 80 57 81
f 60 82 100
f 80 83 57
f 80 103 83
f 39 82 60
f 85 82 39
f 103 84 83
f 83 84 63
f 85 65 104
f 84 107 63
f 107 64 63
f 107 67 64
f 65 69 105
f 108 67 107
f 86 89 69
f 69 89 105
f 67 108 131
f 131 87 67
f 89 86 110
f 87 131 88
f 110 86 70
f 88 131 90
f 72 135 70
f 70 135 91
f 110 70 91
f 134 74 90
f 74 135 72
f 93 92 45
f 93 45 46
f 93 46 76
f 114 76 29
f 114 29 31
f 138 75 152
f 31 116 114
f 138 49 75
f 94 53 139
f 117 49 138
f 139 53 95
f 53 78 95
f 118 77 117
f 118 79 77
f 78 120 95
f 96 79 118
f 120 78 100
f 96 81 79
f 98 97 122
f 97 99 122
f 99 80 81
f 96 99 81
f 97 80 99
f 101 102 98
f 102 97 98
f 97 102 80
f 103 80 102
f 82 125 100
f 125 82 127
f 102 84 103
f 82 126 127
f 126 82 85
f 104 126 85
f 84 102 129
f 84 130 107
f 130 84 129
f 105 104 65
f 106 104 105
f 105 109 146
f 105 146 106
f 130 108 107
f 109 105 89
f 146 109 132
f 133 89 110
f 109 89 133
f 134 90 163
f 111 91 135
f 110 91 111
f 136 74 134
f 112 135 74
f 112 74 136
f 113 92 93
f 152 75 92
f 115 114 116
f 119 121 154
f 121 96 118
f 119 123 122
f 119 122 99
f 119 99 96
f 119 96 121
f 98 122 123
f 100 124 120
f 100 125 124
f 126 144 127
f 102 101 128
f 144 126 104
f 106 144 104
f 128 101 143
f 128 129 102
f 128 160 129
f 129 145 130
f 146 162 106
f 106 162 193
f 130 145 108
f 131 108 147
f 132 109 133
f 90 131 184
f 110 111 133
f 132 133 185
f 133 111 185
f 90 184 163
f 163 164 134
f 136 134 164
f 148 112 136
f 148 135 112
f 111 135 148
f 92 113 168
f 165 93 76
f 168 152 92
f 137 115 116
f 94 137 116
f 137 94 139
f 140 117 138
f 140 118 117
f 154 173 119
f 119 173 142
f 154 121 118
f 154 118 140
f 141 95 120
f 142 123 119
f 141 120 124
f 123 142 156
f 157 123 156
f 157 98 123
f 157 143 98
f 98 143 101
f 177 125 127
f 177 127 144
f 192 106 193
f 192 144 106
f 161 129 160
f 129 161 145
f 145 196 108
f 162 146 132
f 132 185 198
f 186 136 164
f 148 185 111
f 149 113 93
f 165 76 150
f 150 76 114
f 115 150 114
f 150 115 151
f 169 137 139
f 138 170 140
f 153 169 139
f 154 140 170
f 95 153 139
f 141 153 95
f 155 142 173
f 175 141 124
f 156 142 155
f 125 176 158
f 125 158 124
f 179 143 157
f 125 177 176
f 178 144 192
f 159 128 143
f 162 180 193
f 128 159 160
f 182 145 161
f 196 145 182
f 183 108 196
f 147 108 183
f 147 184 131
f 186 148 136
f 149 199 237
f 187 149 93
f 113 149 237
f 165 187 93
f 201 165 150
f 168 113 188
f 202 166 151
f 115 202 151
f 167 202 115
f 137 167 115
f 203 138 168
f 168 138 152
f 171 154 172
f 170 138 203
f 222 169 153
f 172 154 170
f 154 171 173
f 174 153 141
f 173 205 155
f 175 174 141
f 156 155 224
f 158 175 124
f 191 175 158
f 209 179 157
f 177 210 176
f 177 178 210
f 178 177 144
f 228 143 179
f 228 159 143
f 160 181 161
f 160 159 181
f 132 194 162
f 184 147 183
f 184 197 163
f 163 197 164
f 148 217 185
f 165 200 187
f 201 150 151
f 188 113 237
f 203 168 188
f 189 172 190
f 169 167 137
f 189 204 172
f 190 172 170
f 190 170 203
f 171 172 204
f 223 222 153
f 174 223 153
f 224 155 205
f 175 206 174
f 226 156 224
f 175 207 206
f 175 191 207
f 226 157 156
f 209 157 226
f 176 191 158
f 211 179 209
f 162 194 180
f 231 181 159
f 212 184 183
f 182 161 181
f 198 194 132
f 195 182 181
f 182 195 196
f 183 196 212
f 212 214 184
f 196 195 212
f 184 214 197
f 258 198 246
f 215 164 197
f 215 186 164
f 265 185 217
f 185 265 198
f 265 246 198
f 217 186 264
f 217 148 186
f 149 308 233
f 199 149 233
f 308 149 187
f 200 165 201
f 201 151 166
f 201 166 234
f 189 190 235
f 235 190 203
f 174 206 225
f 225 206 240
f 240 206 207
f 191 208 207
f 191 242 208
f 176 242 191
f 210 242 176
f 211 209 227
f 211 228 179
f 178 192 193
f 180 244 193
f 229 159 228
f 194 257 180
f 245 159 229
f 245 231 159
f 198 258 194
f 213 212 195
f 212 213 214
f 264 186 215
f 187 200 248
f 248 200 249
f 249 200 201
f 249 201 234
f 250 237 199
f 202 218 166
f 219 218 220
f 218 202 220
f 188 235 203
f 167 220 202
f 221 220 167
f 238 220 221
f 169 221 167
f 171 204 275
f 222 221 169
f 205 173 171
f 174 225 223
f 276 224 205
f 207 253 240
f 252 209 226
f 208 253 207
f 253 208 242
f 244 180 230
f 180 257 230
f 231 260 181
f 181 260 195
f 262 195 260
f 262 213 195
f 213 247 214
f 232 197 214
f 232 215 197
f 246 265 263
f 247 232 214
f 232 264 215
f 216 265 217
f 248 308 187
f 233 250 199
f 234 166 270
f 218 270 166
f 236 188 237
f 219 220 238
f 272 189 235
f 236 235 188
f 272 204 189
f 238 221 222
f 238 222 251
f 222 239 251
f 287 171 275
f 223 239 222
f 205 171 287
f 223 225 239
f 296 224 276
f 226 224 296
f 253 288 240
f 288 253 241
f 210 243 242
f 244 178 193
f 257 279 230
f 262 247 213
f 232 266 264
f 267 217 264
f 216 217 267
f 271 218 219
f 306 236 250
f 250 236 237
f 275 204 285
f 285 204 272
f 239 225 297
f 252 226 296
f 242 255 337
f 253 242 337
f 243 255 242
f 210 254 243
f 289 243 254
f 255 243 289
f 178 254 210
f 256 254 178
f 254 256 277
f 289 254 277
f 244 256 178
f 290 229 228
f 316 245 229
f 318 245 316
f 257 194 320
f 259 231 245
f 194 258 320
f 259 260 231
f 263 258 246
f 261 262 260
f 262 280 247
f 281 232 247
f 281 266 232
f 267 264 266
f 344 265 216
f 266 292 267
f 267 292 268
f 268 216 267
f 282 248 249
f 282 249 234
f 282 234 269
f 269 234 270
f 270 218 271
f 274 285 272
f 272 235 236
f 238 273 219
f 238 251 273
f 314 209 252
f 298 337 255
f 255 289 298
f 256 301 277
f 244 278 256
f 301 256 278
f 211 290 228
f 244 230 278
f 290 316 229
f 318 259 245
f 291 260 259
f 260 291 261
f 280 262 261
f 263 265 364
f 280 323 247
f 281 247 323
f 344 364 265
f 304 292 266
f 283 308 248
f 248 282 283
f 233 307 250
f 310 270 271
f 306 250 284
f 284 250 307
f 272 236 293
f 293 236 306
f 271 219 273
f 353 275 285
f 251 286 311
f 286 251 239
f 294 287 275
f 295 287 294
f 239 297 286
f 295 276 287
f 287 276 205
f 225 332 297
f 240 332 225
f 240 288 332
f 312 252 296
f 314 252 312
f 241 358 288
f 227 209 314
f 334 227 314
f 337 241 253
f 289 299 298
f 290 211 227
f 289 277 300
f 300 277 315
f 315 277 301
f 278 302 301
f 279 278 230
f 278 279 302
f 279 257 303
f 257 320 319
f 320 258 341
f 261 343 280
f 343 323 280
f 323 324 281
f 304 281 324
f 304 266 281
f 268 344 216
f 308 283 309
f 269 270 350
f 310 350 270
f 330 271 273
f 293 274 272
f 273 251 311
f 353 294 275
f 296 276 295
f 312 356 313
f 334 290 227
f 289 300 299
f 317 301 302
f 316 290 338
f 302 279 340
f 302 340 317
f 316 400 318
f 303 257 319
f 279 303 340
f 318 380 259
f 291 322 261
f 324 325 304
f 304 384 292
f 384 268 292
f 283 305 346
f 284 326 306
f 306 326 349
f 309 307 308
f 346 309 283
f 283 282 305
f 305 282 269
f 350 305 269
f 307 233 308
f 349 293 306
f 310 271 330
f 354 286 355
f 375 356 295
f 356 296 295
f 297 355 286
f 297 332 355
f 312 296 356
f 313 314 312
f 335 358 241
f 335 241 337
f 299 333 336
f 336 337 298
f 336 298 299
f 315 339 300
f 316 338 400
f 315 317 459
f 315 301 317
f 459 317 379
f 317 340 379
f 320 341 319
f 341 258 263
f 263 321 341
f 363 322 291
f 322 343 261
f 385 324 323
f 384 304 325
f 384 366 268
f 430 305 350
f 326 284 327
f 327 284 328
f 328 284 307
f 328 307 329
f 329 307 309
f 274 349 351
f 330 389 310
f 274 293 349
f 273 331 330
f 331 273 374
f 352 353 285
f 311 374 273
f 375 295 294
f 358 357 288
f 357 332 288
f 376 313 356
f 358 335 378
f 334 314 313
f 360 334 313
f 376 360 313
f 336 333 359
f 360 290 334
f 300 398 299
f 360 338 290
f 315 459 339
f 380 318 400
f 402 380 400
f 340 303 342
f 342 303 319
f 361 319 341
f 319 361 342
f 291 259 363
f 322 383 343
f 323 343 385
f 344 268 366
f 385 386 324
f 325 324 386
f 325 345 384
f 346 305 347
f 347 305 430
f 326 372 349
f 327 328 369
f 369 328 329
f 369 329 370
f 370 329 309
f 309 346 348
f 310 389 350
f 330 331 389
f 351 352 285
f 285 274 351
f 353 375 294
f 311 286 354
f 375 418 356
f 332 357 355
f 393 357 358
f 396 359 333
f 299 398 333
f 339 398 300
f 340 403 379
f 342 404 340
f 404 342 361
f 380 363 259
f 362 341 321
f 362 361 341
f 425 322 363
f 263 364 321
f 425 382 322
f 382 383 322
f 383 365 343
f 365 385 343
f 367 412 348
f 348 346 367
f 367 346 347
f 432 369 370
f 370 309 348
f 413 430 350
f 389 413 350
f 372 371 349
f 351 349 371
f 389 331 373
f 390 352 351
f 352 391 353
f 391 375 353
f 311 354 374
f 355 377 354
f 418 376 356
f 357 377 355
f 377 357 393
f 358 378 393
f 395 378 335
f 395 335 359
f 333 397 396
f 335 337 336
f 335 336 359
f 398 421 333
f 399 338 360
f 399 400 338
f 459 401 339
f 423 402 400
f 402 424 380
f 404 403 340
f 380 424 363
f 362 404 361
f 362 405 404
f 427 321 364
f 381 427 364
f 344 366 408
f 364 344 381
f 344 408 381
f 383 382 407
f 383 407 365
f 365 407 409
f 409 411 365
f 385 365 411
f 345 325 386
f 345 429 384
f 411 387 385
f 385 387 386
f 386 387 345
f 348 412 368
f 368 370 348
f 388 372 326
f 432 388 326
f 432 326 327
f 327 369 432
f 432 370 368
f 389 467 413
f 351 371 390
f 374 416 452
f 392 375 391
f 374 354 416
f 418 375 392
f 354 377 417
f 436 376 418
f 394 393 378
f 419 393 394
f 394 378 395
f 441 359 396
f 420 441 396
f 333 421 397
f 399 360 442
f 401 398 339
f 423 400 399
f 459 458 401
f 423 477 402
f 403 459 379
f 363 424 425
f 321 478 362
f 321 427 478
f 382 425 406
f 406 407 382
f 409 407 406
f 384 429 366
f 429 410 366
f 387 428 345
f 428 429 345
f 412 367 448
f 448 367 347
f 506 347 430
f 432 368 414
f 388 433 372
f 373 467 389
f 371 433 390
f 371 372 433
f 331 374 452
f 415 352 390
f 415 391 352
f 415 435 391
f 377 437 417
f 419 377 393
f 359 441 395
f 456 360 376
f 456 442 360
f 421 422 397
f 397 422 496
f 401 422 398
f 424 402 477
f 460 459 403
f 404 443 403
f 424 501 425
f 501 461 425
f 405 362 478
f 405 462 404
f 425 461 426
f 425 426 406
f 381 479 427
f 366 481 408
f 426 444 406
f 410 481 366
f 444 409 406
f 465 409 444
f 465 445 409
f 409 445 411
f 411 447 387
f 445 447 411
f 447 446 387
f 446 428 387
f 428 466 429
f 504 466 428
f 506 448 347
f 414 431 450
f 414 368 412
f 432 414 450
f 452 508 331
f 434 415 390
f 392 391 435
f 453 354 417
f 453 417 438
f 438 417 437
f 437 439 438
f 419 437 377
f 439 437 419
f 439 419 440
f 440 419 394
f 394 455 440
f 394 395 441
f 394 441 455
f 441 420 455
f 396 457 420
f 398 422 421
f 477 502 424
f 502 501 424
f 462 443 404
f 464 427 479
f 427 464 478
f 479 381 408
f 463 444 426
f 446 504 428
f 449 431 414
f 414 412 449
f 506 430 413
f 557 450 431
f 373 526 467
f 450 485 432
f 433 388 451
f 432 485 388
f 508 373 331
f 390 470 434
f 390 433 470
f 471 415 434
f 416 489 452
f 453 473 416
f 490 473 453
f 354 453 416
f 490 453 438
f 439 475 438
f 475 439 454
f 454 439 440
f 455 494 454
f 454 440 455
f 455 420 476
f 436 456 376
f 457 476 420
f 397 457 396
f 496 457 397
f 495 442 456
f 495 399 442
f 401 518 422
f 423 399 498
f 423 498 477
f 518 401 458
f 521 462 405
f 405 478 521
f 444 480 465
f 408 481 479
f 480 482 465
f 482 445 465
f 466 410 429
f 445 482 447
f 413 467 506
f 468 431 449
f 557 469 450
f 373 508 526
f 433 451 470
f 484 451 388
f 485 484 388
f 487 471 434
f 416 473 489
f 471 435 415
f 435 472 392
f 546 392 472
f 546 418 392
f 546 436 418
f 474 490 438
f 474 438 475
f 454 492 475
f 456 436 515
f 492 454 494
f 476 494 455
f 422 499 496
f 518 499 422
f 403 538 460
f 461 463 426
f 447 522 446
f 466 523 410
f 540 447 482
f 506 467 507
f 467 526 507
f 412 525 588
f 449 412 588
f 525 412 448
f 525 448 506
f 468 557 431
f 485 509 484
f 487 434 470
f 486 470 483
f 470 451 483
f 470 486 487
f 483 451 484
f 487 486 510
f 508 452 530
f 488 471 487
f 488 487 510
f 452 489 530
f 488 531 471
f 531 435 471
f 531 472 435
f 489 473 511
f 490 511 473
f 512 511 490
f 490 474 512
f 491 512 474
f 514 491 474
f 475 514 474
f 494 493 492
f 535 494 476
f 476 516 535
f 457 516 476
f 496 549 457
f 497 399 495
f 498 399 497
f 568 477 498
f 518 458 551
f 551 458 500
f 500 458 459
f 459 460 500
f 403 503 538
f 553 501 502
f 403 443 503
f 461 501 553
f 443 462 503
f 463 461 554
f 478 464 539
f 444 463 555
f 464 479 524
f 464 524 539
f 446 522 504
f 410 523 505
f 410 542 481
f 410 505 542
f 450 528 509
f 450 469 528
f 509 485 450
f 513 491 514
f 515 436 546
f 492 533 514
f 492 514 475
f 493 494 535
f 495 456 548
f 496 517 549
f 537 498 497
f 519 502 477
f 538 500 460
f 554 461 553
f 581 463 554
f 521 520 462
f 555 463 581
f 478 539 521
f 480 444 555
f 524 479 481
f 524 481 542
f 504 569 466
f 569 523 466
f 525 507 543
f 506 507 525
f 526 556 507
f 556 543 507
f 449 588 589
f 468 449 589
f 559 469 557
f 509 527 484
f 544 527 509
f 544 509 528
f 558 528 469
f 560 486 483
f 483 484 527
f 560 483 527
f 530 529 508
f 510 626 488
f 489 562 561
f 563 511 512
f 512 491 532
f 532 491 513
f 513 514 533
f 533 492 564
f 534 492 493
f 535 534 493
f 548 576 495
f 576 497 495
f 499 536 496
f 536 517 496
f 518 536 499
f 568 498 537
f 519 477 568
f 552 551 500
f 502 519 553
f 462 520 503
f 539 524 570
f 584 482 480
f 584 540 482
f 522 569 504
f 524 542 570
f 523 620 541
f 523 541 505
f 505 541 542
f 588 525 543
f 508 556 526
f 556 508 529
f 469 559 558
f 572 544 528
f 572 528 558
f 560 545 486
f 530 622 529
f 545 510 486
f 530 561 622
f 573 510 545
f 626 510 573
f 561 530 489
f 472 531 488
f 511 562 489
f 532 563 512
f 533 547 513
f 564 492 534
f 574 456 515
f 595 456 574
f 565 535 516
f 595 548 456
f 577 457 549
f 457 577 516
f 578 549 517
f 517 599 578
f 497 596 537
f 536 599 517
f 550 536 518
f 551 550 518
f 568 579 519
f 669 551 552
f 602 519 579
f 602 553 519
f 552 500 538
f 538 580 552
f 553 602 554
f 503 520 582
f 503 582 634
f 555 581 583
f 521 604 520
f 605 480 555
f 539 585 521
f 584 480 605
f 540 606 447
f 620 523 569
f 607 557 468
f 571 591 527
f 571 527 544
f 572 571 544
f 560 527 591
f 627 472 488
f 627 488 626
f 594 562 511
f 511 563 594
f 643 546 472
f 610 515 546
f 532 513 547
f 574 515 610
f 564 547 533
f 564 534 611
f 565 611 534
f 565 534 535
f 565 516 566
f 595 576 548
f 578 567 549
f 567 577 549
f 550 601 536
f 568 537 616
f 601 550 633
f 551 633 550
f 634 538 503
f 555 583 605
f 618 540 584
f 542 636 570
f 541 636 542
f 607 559 557
f 589 607 468
f 623 558 590
f 558 559 590
f 623 592 572
f 623 572 558
f 658 545 560
f 658 573 545
f 563 608 594
f 643 472 627
f 608 563 609
f 610 546 643
f 532 609 563
f 547 564 628
f 577 566 516
f 596 497 576
f 616 537 596
f 536 600 599
f 601 600 536
f 616 579 568
f 616 615 579
f 551 669 633
f 602 649 554
f 650 554 649
f 581 554 650
f 538 634 580
f 521 585 604
f 606 522 447
f 522 586 569
f 569 586 620
f 539 570 585
f 587 589 588
f 571 572 592
f 591 657 560
f 641 591 571
f 657 658 560
f 561 562 593
f 532 547 693
f 547 628 693
f 692 595 574
f 611 565 575
f 565 566 575
f 661 576 595
f 577 612 566
f 596 576 661
f 567 612 577
f 567 597 612
f 599 598 578
f 578 598 567
f 602 579 666
f 666 649 602
f 669 552 603
f 603 552 580
f 583 581 650
f 520 686 582
f 520 604 686
f 606 540 618
f 522 619 586
f 606 619 522
f 619 652 586
f 585 570 635
f 621 541 620
f 541 621 636
f 588 543 587
f 559 607 590
f 590 624 623
f 622 561 593
f 658 626 573
f 594 593 562
f 628 564 629
f 644 595 692
f 661 595 644
f 567 613 597
f 613 567 598
f 596 646 616
f 614 598 599
f 615 616 646
f 600 614 599
f 600 601 648
f 685 634 582
f 686 685 582
f 617 584 605
f 617 651 584
f 585 653 604
f 604 653 686
f 651 618 584
f 586 672 620
f 672 621 620
f 637 636 621
f 543 556 673
f 607 589 640
f 607 640 590
f 593 655 622
f 625 657 591
f 641 625 591
f 675 593 594
f 608 642 594
f 659 627 626
f 609 532 693
f 564 611 629
f 629 611 575
f 566 630 575
f 575 630 629
f 631 630 612
f 630 566 612
f 597 631 612
f 631 597 645
f 613 645 597
f 646 596 661
f 613 598 681
f 648 614 600
f 633 632 601
f 647 579 615
f 647 666 579
f 671 583 650
f 605 583 671
f 684 619 606
f 635 653 585
f 636 635 570
f 639 673 556
f 721 673 639
f 587 543 673
f 587 673 638
f 529 639 556
f 640 589 587
f 587 638 640
f 622 639 529
f 590 674 624
f 641 571 592
f 711 641 592
f 655 593 675
f 659 626 658
f 594 642 675
f 659 643 627
f 660 642 608
f 608 609 660
f 676 610 643
f 691 610 676
f 691 574 610
f 628 629 677
f 629 630 677
f 613 678 645
f 678 613 681
f 680 615 646
f 598 614 681
f 665 681 614
f 648 665 614
f 632 648 601
f 633 669 667
f 649 668 650
f 650 668 670
f 670 671 650
f 683 605 671
f 671 753 683
f 683 617 605
f 684 606 618
f 672 687 621
f 636 654 635
f 636 702 654
f 637 702 636
f 638 674 640
f 639 622 655
f 590 640 674
f 689 656 624
f 656 592 623
f 656 711 592
f 624 656 623
f 709 658 657
f 676 643 659
f 692 574 691
f 628 677 693
f 677 630 663
f 630 631 663
f 663 631 664
f 664 631 645
f 661 662 646
f 647 615 680
f 632 665 648
f 633 667 632
f 668 649 666
f 753 671 670
f 698 580 634
f 618 701 684
f 684 766 619
f 652 740 586
f 672 586 740
f 653 688 686
f 703 653 635
f 703 635 654
f 653 703 688
f 637 621 687
f 674 638 704
f 710 709 657
f 657 625 710
f 709 659 658
f 609 693 660
f 750 693 677
f 661 644 747
f 712 661 747
f 712 662 661
f 645 678 664
f 662 680 646
f 662 679 680
f 680 679 715
f 680 715 647
f 694 681 665
f 665 734 694
f 632 734 665
f 647 715 666
f 666 715 695
f 682 632 667
f 668 666 695
f 696 669 603
f 696 603 697
f 697 603 580
f 580 698 697
f 698 634 685
f 699 683 753
f 683 699 617
f 699 651 617
f 701 618 651
f 766 652 619
f 740 687 672
f 719 637 687
f 721 704 673
f 638 673 704
f 674 704 723
f 723 706 674
f 706 624 674
f 706 689 624
f 705 655 675
f 675 690 705
f 711 707 708
f 711 656 707
f 642 690 675
f 726 676 659
f 660 690 642
f 691 676 726
f 747 644 746
f 749 712 747
f 663 729 677
f 678 713 664
f 679 662 712
f 681 716 678
f 694 716 681
f 632 682 734
f 696 667 669
f 668 735 670
f 753 738 699
f 651 700 701
f 699 700 651
f 817 740 652
f 720 654 702
f 703 654 720
f 723 704 785
f 722 639 655
f 655 705 722
f 689 706 724
f 724 707 689
f 656 689 707
f 709 710 744
f 743 625 641
f 743 710 625
f 757 641 711
f 757 711 708
f 725 659 709
f 660 745 690
f 727 691 726
f 727 692 691
f 746 644 692
f 748 660 693
f 750 748 693
f 750 677 728
f 729 728 677
f 664 729 663
f 664 713 729
f 775 679 712
f 730 679 775
f 678 714 713
f 715 679 730
f 732 715 730
f 716 714 678
f 695 715 732
f 763 716 694
f 694 734 733
f 734 682 717
f 735 668 695
f 695 795 735
f 667 717 682
f 736 753 670
f 697 698 737
f 700 699 738
f 718 701 700
f 718 684 701
f 800 684 718
f 684 800 766
f 698 685 739
f 782 739 686
f 685 686 739
f 686 688 782
f 719 702 637
f 704 721 785
f 639 786 721
f 723 785 768
f 639 722 786
f 705 804 722
f 742 708 707
f 742 707 724
f 705 690 760
f 743 641 757
f 759 744 710
f 725 709 744
f 726 659 725
f 745 760 690
f 746 727 773
f 746 692 727
f 775 712 749
f 731 729 713
f 713 751 731
f 713 714 751
f 714 716 763
f 795 695 732
f 694 733 763
f 717 667 779
f 667 696 779
f 696 697 752
f 752 697 737
f 815 698 739
f 781 700 738
f 718 754 800
f 740 833 687
f 703 784 688
f 719 767 702
f 702 767 720
f 720 755 703
f 767 755 720
f 724 706 788
f 788 706 723
f 741 724 788
f 742 724 741
f 742 756 708
f 708 756 757
f 759 710 743
f 758 725 744
f 758 761 725
f 761 726 725
f 773 727 726
f 726 761 773
f 750 728 811
f 728 794 811
f 794 728 729
f 729 731 794
f 775 793 730
f 776 730 793
f 714 825 751
f 776 732 730
f 763 825 714
f 734 828 733
f 734 717 828
f 779 778 717
f 765 670 735
f 736 670 765
f 765 780 736
f 736 780 798
f 736 798 753
f 737 698 815
f 753 798 738
f 766 800 652
f 718 700 781
f 754 844 800
f 784 782 688
f 687 833 719
f 755 784 703
f 785 787 768
f 722 769 786
f 723 768 788
f 742 741 771
f 742 790 756
f 790 742 771
f 758 744 759
f 807 759 743
f 757 807 743
f 758 772 761
f 762 773 791
f 762 746 773
f 762 747 746
f 774 747 762
f 660 748 745
f 774 749 747
f 774 792 749
f 775 749 792
f 748 750 811
f 796 763 733
f 778 828 717
f 779 696 752
f 799 752 737
f 815 799 737
f 781 738 798
f 817 833 740
f 833 802 719
f 719 802 767
f 721 786 785
f 769 722 804
f 788 768 803
f 804 705 808
f 741 770 789
f 741 788 770
f 771 741 789
f 806 772 759
f 759 772 758
f 807 806 759
f 705 760 808
f 745 810 823
f 794 731 812
f 731 751 812
f 825 812 751
f 795 732 776
f 764 825 763
f 796 764 763
f 828 796 733
f 735 795 777
f 735 777 765
f 780 765 777
f 779 752 814
f 782 815 739
f 781 754 718
f 800 817 652
f 801 784 783
f 782 784 801
f 768 787 803
f 770 788 803
f 789 770 835
f 819 807 757
f 756 819 757
f 820 756 790
f 808 760 745
f 791 773 761
f 852 762 791
f 745 748 810
f 793 775 792
f 794 824 811
f 812 824 794
f 826 776 793
f 813 795 776
f 795 827 777
f 778 830 828
f 779 830 778
f 799 814 752
f 831 799 815
f 815 782 816
f 816 782 801
f 832 833 817
f 785 786 834
f 858 787 785
f 769 834 786
f 805 770 803
f 835 770 805
f 835 851 789
f 821 771 789
f 820 819 756
f 806 837 772
f 761 837 809
f 761 772 837
f 809 791 761
f 852 791 809
f 774 762 852
f 852 792 774
f 810 748 811
f 871 793 792
f 813 776 826
f 825 764 840
f 827 795 813
f 796 855 764
f 777 827 829
f 777 829 780
f 797 799 831
f 780 781 798
f 781 878 754
f 878 844 754
f 802 755 767
f 755 846 784
f 783 784 846
f 834 858 785
f 858 803 787
f 805 803 919
f 808 847 804
f 806 807 818
f 819 818 807
f 850 837 806
f 771 821 790
f 808 745 822
f 823 822 745
f 838 792 852
f 810 811 853
f 871 792 838
f 950 793 871
f 839 824 812
f 826 793 950
f 812 825 839
f 863 764 855
f 796 828 855
f 779 865 830
f 779 814 865
f 799 797 856
f 814 799 856
f 780 842 781
f 831 815 816
f 800 845 817
f 832 817 845
f 832 869 833
f 802 846 755
f 857 858 834
f 769 870 834
f 804 870 769
f 858 919 803
f 919 948 805
f 818 848 806
f 851 821 789
f 850 806 848
f 836 820 790
f 790 821 836
f 851 835 885
f 808 822 847
f 853 811 872
f 811 854 872
f 811 824 854
f 839 825 840
f 813 826 841
f 764 862 840
f 841 827 813
f 830 855 828
f 864 829 827
f 865 814 856
f 866 780 829
f 831 843 797
f 831 816 843
f 867 843 816
f 816 801 867
f 906 878 781
f 845 800 844
f 833 869 802
f 870 857 834
f 847 870 804
f 819 849 818
f 885 835 805
f 897 836 821
f 821 910 897
f 887 851 885
f 860 809 837
f 860 852 809
f 822 823 888
f 861 871 838
f 824 839 854
f 863 862 764
f 864 866 829
f 842 780 866
f 797 843 877
f 842 906 781
f 845 844 868
f 801 783 894
f 783 846 880
f 802 881 846
f 857 882 858
f 858 882 883
f 918 857 870
f 849 819 820
f 859 837 850
f 860 837 859
f 847 822 898
f 822 888 898
f 910 821 851
f 910 851 887
f 860 838 852
f 853 823 810
f 839 874 854
f 890 826 950
f 839 840 875
f 841 826 890
f 855 830 863
f 865 892 830
f 865 856 914
f 878 868 844
f 801 894 867
f 868 832 845
f 832 879 869
f 869 881 802
f 857 918 882
f 919 858 883
f 847 936 870
f 884 850 848
f 849 848 818
f 836 849 820
f 859 886 860
f 861 860 886
f 838 860 861
f 861 950 871
f 854 873 872
f 874 873 854
f 874 839 875
f 890 876 841
f 827 841 876
f 927 830 892
f 901 866 864
f 865 914 892
f 877 856 797
f 843 903 877
f 843 867 903
f 905 906 842
f 878 933 868
f 868 879 832
f 894 783 895
f 879 907 869
f 880 895 783
f 869 907 881
f 881 880 846
f 936 918 870
f 885 805 948
f 922 847 898
f 896 850 884
f 886 859 896
f 896 859 850
f 823 853 889
f 888 823 889
f 853 872 899
f 874 911 873
f 950 951 890
f 862 900 840
f 900 862 891
f 876 864 827
f 863 830 927
f 914 856 902
f 893 856 877
f 915 842 866
f 877 903 893
f 915 905 842
f 903 867 894
f 879 868 934
f 907 880 881
f 936 847 922
f 948 909 885
f 908 884 848
f 849 908 848
f 836 908 849
f 909 887 885
f 886 896 963
f 886 963 923
f 923 861 886
f 889 940 888
f 899 889 853
f 872 873 899
f 875 911 874
f 943 875 925
f 890 924 876
f 900 925 875
f 875 840 900
f 863 891 862
f 912 864 876
f 915 866 901
f 893 902 856
f 902 893 903
f 903 894 904
f 906 933 878
f 933 934 868
f 894 895 904
f 879 934 932
f 932 907 879
f 907 916 880
f 895 880 916
f 922 920 936
f 939 896 884
f 888 949 898
f 950 861 923
f 899 941 889
f 875 943 911
f 924 954 876
f 891 925 900
f 955 912 954
f 913 891 863
f 955 864 912
f 892 914 928
f 902 928 914
f 902 903 929
f 930 903 904
f 915 968 905
f 906 905 968
f 904 931 930
f 968 946 906
f 946 933 906
f 904 895 931
f 916 907 932
f 917 916 935
f 916 917 895
f 947 883 882
f 910 938 897
f 887 909 921
f 922 898 949
f 887 998 910
f 921 998 887
f 873 941 899
f 943 952 911
f 954 912 876
f 913 926 891
f 926 925 891
f 927 913 863
f 901 864 955
f 927 892 928
f 901 976 957
f 945 928 902
f 902 929 945
f 903 930 929
f 934 960 932
f 895 959 931
f 917 959 895
f 919 980 948
f 980 919 883
f 920 961 936
f 836 937 908
f 836 897 937
f 949 962 922
f 962 920 922
f 997 908 937
f 938 937 897
f 938 910 998
f 896 1003 963
f 971 950 923
f 941 982 889
f 942 941 873
f 911 942 873
f 952 942 911
f 951 924 890
f 943 925 953
f 1007 955 954
f 944 926 913
f 965 944 913
f 965 913 927
f 927 966 965
f 927 928 966
f 901 957 915
f 956 967 945
f 929 956 945
f 930 956 929
f 931 958 930
f 931 959 958
f 933 960 934
f 932 935 916
f 935 991 917
f 917 991 959
f 882 918 947
f 918 961 947
f 918 936 961
f 980 883 947
f 1010 909 948
f 962 961 920
f 997 999 908
f 908 999 884
f 981 997 937
f 938 981 937
f 999 939 884
f 939 1003 896
f 949 888 940
f 941 942 983
f 952 943 972
f 953 972 943
f 953 925 985
f 955 976 901
f 928 945 966
f 987 945 967
f 968 915 957
f 930 958 956
f 946 960 933
f 935 932 969
f 935 969 991
f 1027 995 947
f 947 961 1027
f 980 947 995
f 909 1010 921
f 939 1002 1003
f 949 940 1001
f 923 963 971
f 889 982 940
f 951 950 971
f 984 942 952
f 1018 954 924
f 926 985 925
f 964 965 974
f 944 965 964
f 975 945 986
f 945 975 966
f 990 957 976
f 945 987 986
f 990 968 957
f 959 989 958
f 993 946 968
f 960 979 932
f 992 969 979
f 969 932 979
f 991 989 959
f 980 1010 948
f 998 981 938
f 1002 939 999
f 1001 962 949
f 940 982 1001
f 1030 963 1003
f 1030 971 963
f 982 941 983
f 983 942 1016
f 971 1004 951
f 951 1004 1017
f 1005 954 1018
f 973 985 926
f 973 926 944
f 964 973 944
f 1006 973 964
f 976 955 1007
f 975 974 965
f 966 975 965
f 977 990 976
f 967 978 987
f 956 978 967
f 958 978 956
f 989 1021 958
f 990 993 968
f 992 991 969
f 994 960 970
f 979 960 994
f 946 970 960
f 1011 980 995
f 1011 1010 980
f 961 962 1012
f 996 921 1010
f 996 998 921
f 983 1015 982
f 942 984 1016
f 924 951 1018
f 952 972 984
f 953 1085 972
f 1007 954 1005
f 1085 953 985
f 1006 985 973
f 1007 1009 976
f 1008 964 974
f 1008 974 1019
f 974 975 1019
f 958 1021 1020
f 958 1020 978
f 989 988 1021
f 988 991 992
f 991 988 989
f 979 994 992
f 946 1026 970
f 961 1012 1027
f 998 1014 981
f 1000 999 997
f 1000 997 981
f 1000 981 1014
f 1001 982 1015
f 1004 971 1030
f 983 1016 1031
f 951 1017 1018
f 1042 1085 985
f 985 1006 1042
f 1008 1006 964
f 977 976 1009
f 993 990 977
f 988 992 1023
f 1023 992 994
f 1026 993 1024
f 970 1026 994
f 946 993 1026
f 996 1010 1037
f 996 1014 998
f 962 1029 1012
f 1013 999 1000
f 1013 1000 1051
f 1029 962 1001
f 1013 1002 999
f 1040 1002 1013
f 1015 1039 1001
f 1041 1003 1002
f 1041 1030 1003
f 1073 1004 1030
f 1073 1017 1004
f 1032 1017 1073
f 1017 1032 1018
f 1085 1099 972
f 972 1099 1053
f 1006 1008 1063
f 1063 1008 1019
f 978 1057 987
f 1019 986 1045
f 986 1057 1045
f 986 987 1057
f 986 1019 975
f 1034 977 1009
f 978 1020 1057
f 1020 1021 1046
f 1022 993 977
f 1024 993 1022
f 1025 994 1026
f 1025 1023 994
f 1026 1024 1025
f 1036 1037 1011
f 1011 1037 1010
f 1011 995 1036
f 1027 1036 995
f 996 1037 1014
f 1029 1038 1012
f 1001 1039 1029
f 1040 1041 1002
f 1072 1030 1041
f 983 1096 1015
f 1072 1073 1030
f 1053 984 972
f 1054 1005 1018
f 1033 1007 1005
f 1033 1009 1007
f 1043 1009 1055
f 1006 1063 1086
f 1009 1043 1034
f 1019 1045 1056
f 1057 1020 1046
f 1035 977 1034
f 1035 1022 977
f 1035 1048 1022
f 1047 1046 1021
f 1021 988 1047
f 1047 988 1066
f 1022 1048 1024
f 1066 988 1023
f 1025 1024 1059
f 1023 1025 1059
f 1036 1067 1037
f 1061 1037 1067
f 1012 1049 1027
f 1000 1014 1050
f 1000 1050 1051
f 1028 1038 1029
f 1039 1028 1029
f 1096 983 1031
f 1054 1084 1005
f 1033 1005 1084
f 1055 1009 1033
f 1019 1056 1063
f 1044 1034 1043
f 1035 1034 1044
f 1057 1101 1045
f 1044 1058 1035
f 1048 1035 1058
f 1066 1076 1047
f 1024 1048 1059
f 1023 1059 1060
f 1036 1027 1049
f 1061 1062 1014
f 1061 1014 1037
f 1062 1050 1014
f 1052 1013 1051
f 1040 1013 1052
f 1096 1039 1015
f 1072 1041 1071
f 1096 1031 1080
f 984 1053 1016
f 1057 1046 1089
f 1046 1047 1089
f 1064 1048 1058
f 1048 1064 1059
f 1060 1059 1065
f 1023 1060 1066
f 1049 1012 1038
f 1079 1051 1050
f 1079 1050 1062
f 1069 1051 1079
f 1039 1096 1070
f 1071 1041 1040
f 1080 1031 1016
f 1074 1032 1073
f 1074 1054 1032
f 1054 1018 1032
f 1054 1083 1084
f 1084 1100 1033
f 1033 1100 1055
f 1085 1042 1110
f 1111 1042 1006
f 1006 1086 1111
f 1043 1055 1075
f 1056 1087 1063
f 1075 1044 1043
f 1101 1056 1045
f 1088 1058 1044
f 1088 1064 1058
f 1065 1059 1064
f 1064 1090 1065
f 1090 1060 1065
f 1102 1066 1060
f 1102 1060 1090
f 1076 1066 1102
f 1036 1091 1067
f 1036 1049 1091
f 1068 1061 1067
f 1077 1062 1061
f 1077 1061 1068
f 1049 1038 1093
f 1094 1078 1038
f 1094 1038 1028
f 1069 1052 1051
f 1070 1028 1039
f 1071 1040 1052
f 1096 1080 1097
f 1072 1074 1073
f 1099 1082 1053
f 1100 1075 1055
f 1111 1110 1042
f 1086 1063 1087
f 1088 1044 1075
f 1101 1057 1089
f 1076 1127 1047
f 1089 1047 1127
f 1091 1068 1067
f 1093 1091 1049
f 1077 1079 1062
f 1093 1038 1078
f 1028 1070 1094
f 1095 1071 1052
f 1095 1107 1071
f 1071 1107 1072
f 1074 1072 1107
f 1016 1053 1080
f 1082 1080 1053
f 1081 1054 1074
f 1083 1054 1081
f 1099 1085 1110
f 1137 1075 1100
f 1140 1075 1137
f 1075 1140 1088
f 1088 1174 1064
f 1064 1174 1090
f 1093 1092 1091
f 1077 1104 1103
f 1077 1068 1104
f 1077 1103 1079
f 1103 1069 1079
f 1095 1052 1069
f 1106 1095 1069
f 1094 1116 1078
f 1116 1094 1123
f 1123 1094 1070
f 1070 1097 1123
f 1096 1097 1070
f 1097 1080 1098
f 1098 1080 1082
f 1108 1083 1081
f 1125 1084 1083
f 1082 1099 1098
f 1100 1084 1125
f 1150 1100 1125
f 1137 1100 1150
f 1056 1139 1087
f 1139 1056 1101
f 1101 1089 1152
f 1076 1112 1127
f 1092 1113 1091
f 1091 1113 1068
f 1068 1113 1104
f 1104 1115 1103
f 1105 1092 1093
f 1093 1078 1105
f 1103 1106 1069
f 1103 1115 1106
f 1121 1095 1106
f 1095 1121 1107
f 1122 1074 1107
f 1122 1108 1074
f 1081 1074 1108
f 1108 1132 1083
f 1098 1136 1124
f 1083 1134 1125
f 1136 1098 1109
f 1099 1109 1098
f 1110 1109 1099
f 1086 1087 1138
f 1152 1089 1127
f 1152 1139 1101
f 1172 1127 1112
f 1102 1126 1076
f 1076 1126 1112
f 1104 1114 1115
f 1114 1104 1113
f 1114 1113 1117
f 1117 1113 1105
f 1113 1092 1105
f 1117 1105 1116
f 1115 1118 1106
f 1118 1115 1119
f 1119 1115 1114
f 1078 1116 1105
f 1118 1120 1106
f 1120 1121 1106
f 1157 1116 1123
f 1121 1122 1107
f 1123 1097 1157
f 1157 1097 1124
f 1098 1124 1097
f 1122 1132 1108
f 1134 1083 1132
f 1151 1110 1111
f 1169 1138 1087
f 1169 1087 1139
f 1140 1174 1088
f 1152 1127 1172
f 1112 1126 1172
f 1128 1102 1090
f 1126 1102 1128
f 1142 1119 1114
f 1118 1119 1129
f 1119 1142 1129
f 1118 1130 1120
f 1129 1130 1118
f 1155 1116 1157
f 1131 1121 1120
f 1130 1131 1120
f 1131 1122 1121
f 1122 1131 1143
f 1133 1157 1124
f 1136 1133 1124
f 1135 1125 1134
f 1135 1150 1125
f 1179 1136 1109
f 1151 1179 1109
f 1151 1109 1110
f 1111 1138 1151
f 1137 1150 1167
f 1086 1138 1111
f 1174 1128 1090
f 1128 1153 1126
f 1117 1142 1114
f 1141 1129 1142
f 1141 1142 1156
f 1141 1143 1129
f 1129 1143 1130
f 1130 1143 1131
f 1144 1143 1141
f 1133 1175 1157
f 1145 1122 1143
f 1160 1175 1133
f 1122 1145 1132
f 1134 1132 1145
f 1133 1148 1160
f 1134 1145 1149
f 1145 1143 1147
f 1146 1143 1144
f 1149 1145 1147
f 1147 1143 1146
f 1146 1144 1163
f 1164 1147 1146
f 1164 1146 1163
f 1149 1135 1134
f 1135 1149 1147
f 1135 1147 1164
f 1133 1136 1165
f 1167 1140 1137
f 1151 1138 1169
f 1139 1152 1169
f 1168 1174 1140
f 1170 1128 1174
f 1153 1128 1170
f 1126 1153 1171
f 1126 1171 1172
f 1154 1142 1117
f 1116 1154 1117
f 1142 1154 1156
f 1154 1116 1155
f 1158 1141 1156
f 1158 1144 1141
f 1162 1158 1159
f 1144 1158 1162
f 1161 1159 1160
f 1162 1159 1161
f 1160 1148 1161
f 1162 1161 1176
f 1144 1177 1163
f 1144 1162 1177
f 1148 1133 1165
f 1136 1179 1165
f 1166 1135 1164
f 1166 1150 1135
f 1150 1166 1167
f 1151 1169 1182
f 1140 1167 1168
f 1184 1170 1174
f 1184 1174 1168
f 1173 1172 1171
f 1152 1173 1169
f 1185 1153 1170
f 1172 1173 1152
f 1171 1153 1185
f 1175 1155 1157
f 1159 1156 1154
f 1159 1154 1155
f 1156 1159 1158
f 1175 1159 1155
f 1159 1175 1160
f 1176 1177 1162
f 1178 1161 1148
f 1178 1176 1161
f 1165 1178 1148
f 1186 1176 1178
f 1177 1180 1163
f 1186 1177 1176
f 1164 1180 1181
f 1163 1180 1164
f 1180 1177 1186
f 1179 1178 1165
f 1164 1181 1166
f 1183 1181 1180
f 1183 1180 1189
f 1167 1166 1181
f 1183 1167 1181
f 1182 1179 1151
f 1168 1167 1183
f 1184 1183 1189
f 1184 1189 1188
f 1169 1173 1182
f 1168 1183 1184
f 1173 1171 1185
f 1170 1184 1188
f 1170 1188 1185
f 1179 1187 1178
f 1187 1186 1178
f 1180 1186 1189
f 1189 1186 1187
f 1182 1187 1179
f 1190 1187 1182
f 1189 1187 1190
f 1188 1189 1190
f 1173 1190 1182
f 1185 1188 1190
f 1185 1190 1173
# 2376 faces, 0 coords texture

# End of File
