####
#
# OBJ File Generated by Meshlab
#
####
# Object PBL4.obj
#
# Vertices: 1406
# Faces: 2808
#
####
v 30107.751953 15204.532227 12773.866211
v 30036.869141 15337.370117 12753.376953
v 29950.083984 15305.548828 12750.467773
v 30232.228516 15207.176758 12811.325195
v 30185.900391 15279.858398 12783.430664
v 30175.613281 15366.809570 12777.583008
v 30094.876953 15380.351562 12762.770508
v 29972.640625 15488.986328 12771.915039
v 30106.291016 15453.497070 12770.788086
v 30192.748047 15509.511719 12802.154297
v 30106.123047 15572.071289 12794.898438
v 30004.544922 15029.471680 12825.896484
v 30065.320312 15072.745117 12811.983398
v 30003.488281 15132.257812 12789.164062
v 30175.511719 15042.861328 12837.632812
v 30264.113281 15066.979492 12867.183594
v 29921.976562 15096.271484 12803.902344
v 30191.535156 15190.529297 12798.530273
v 29743.619141 15252.786133 12788.145508
v 29843.365234 15230.796875 12777.043945
v 29946.625000 15235.232422 12762.408203
v 30260.998047 15149.170898 12838.841797
v 30255.458984 15280.836914 12823.212891
v 29662.970703 15278.039062 12811.268555
v 29858.601562 15331.882812 12768.349609
v 29789.398438 15371.024414 12784.078125
v 29874.093750 15434.533203 12777.083984
v 29948.160156 15404.847656 12754.824219
v 30249.863281 15459.203125 12829.549805
v 29874.984375 15566.410156 12807.357422
v 29970.664062 15586.799805 12800.385742
v 30053.218750 15512.469727 12775.145508
v 30159.279297 15618.625977 12818.150391
v 30008.355469 15653.429688 12820.020508
v 30044.085938 14953.446289 12863.744141
v 29791.916016 15057.413086 12831.804688
v 29891.609375 15031.688477 12827.549805
v 30210.830078 15031.450195 12851.923828
v 29767.833984 15131.802734 12807.002930
v 29745.296875 15186.985352 12797.455078
v 30312.031250 15129.143555 12896.635742
v 29595.822266 15188.448242 12836.620117
v 29555.761719 15320.061523 12858.872070
v 29508.666016 15321.577148 12876.484375
v 30238.234375 15373.679688 12805.161133
v 30294.011719 15282.028320 12865.175781
v 29743.558594 15447.949219 12814.591797
v 29638.541016 15399.199219 12838.893555
v 29838.843750 15521.652344 12803.049805
v 30214.117188 15586.211914 12830.461914
v 30039.923828 14906.604492 12893.943359
v 30176.308594 14909.892578 12902.172852
v 30171.792969 14974.861328 12865.685547
v 29926.789062 14936.116211 12872.659180
v 30312.208984 15061.952148 12916.675781
v 29638.521484 15130.693359 12834.244141
v 29553.107422 15142.015625 12860.357422
v 29539.277344 15194.939453 12861.198242
v 29584.146484 15240.489258 12840.986328
v 29537.630859 15434.120117 12886.682617
v 30296.642578 15410.597656 12882.531250
v 29609.972656 15503.374023 12876.993164
v 29624.605469 15573.697266 12898.156250
v 29753.902344 15555.213867 12840.376953
v 29829.595703 15600.114258 12833.534180
v 29818.101562 15685.154297 12868.900391
v 29931.371094 15684.111328 12845.140625
v 30184.298828 15813.376953 12926.513672
v 30081.869141 15704.209961 12841.409180
v 30157.289062 15700.465820 12847.264648
v 30164.250000 15741.715820 12874.207031
v 30272.675781 14970.000977 12897.791016
v 29665.470703 15049.902344 12854.444336
v 29565.058594 15070.542969 12876.921875
v 29465.855469 15161.008789 12904.435547
v 30324.634766 15197.939453 12906.125000
v 29434.066406 15260.142578 12917.912109
v 30343.867188 15263.050781 12965.326172
v 29455.232422 15360.226562 12911.791016
v 30270.951172 15480.290039 12858.335938
v 30248.324219 15567.569336 12854.756836
v 30248.476562 15623.006836 12884.202148
v 30222.189453 15752.396484 12917.729492
v 29940.607422 15745.558594 12872.465820
v 30009.556641 14838.594727 12958.810547
v 30233.792969 14907.203125 12915.046875
v 29610.722656 14939.061523 12936.185547
v 29704.777344 14996.037109 12874.570312
v 29767.345703 14943.677734 12897.976562
v 29594.552734 14994.108398 12903.290039
v 29481.718750 14974.310547 12948.425781
v 29461.638672 15070.723633 12921.745117
v 29458.169922 15431.958984 12930.257812
v 29435.707031 15521.822266 12977.527344
v 29524.421875 15538.247070 12932.943359
v 29719.353516 15664.058594 12899.808594
v 30263.796875 15696.257812 12941.323242
v 30015.634766 15773.270508 12875.564453
v 29836.343750 14887.724609 12932.583984
v 29525.757812 14949.145508 12947.600586
v 30306.570312 15010.978516 12909.786133
v 29490.208984 15022.501953 12923.643555
v 29408.140625 15090.092773 12949.801758
v 29395.847656 15219.684570 12943.858398
v 29736.931641 15733.396484 12933.068359
v 30119.132812 14842.510742 12954.307617
v 30251.187500 14818.903320 13007.719727
v 29712.271484 14877.080078 12966.501953
v 30299.609375 14912.792969 12949.143555
v 30352.851562 15028.656250 13005.415039
v 29416.449219 15592.017578 13028.381836
v 29572.480469 15673.457031 12978.177734
v 30233.953125 15844.019531 12980.868164
v 29829.650391 15771.084961 12918.950195
v 30043.332031 15858.503906 12925.414062
v 30209.513672 14817.494141 12993.962891
v 29635.853516 14866.114258 12994.996094
v 29832.546875 14822.738281 12995.196289
v 29450.214844 14916.810547 13009.588867
v 29317.351562 15034.457031 13019.168945
v 29316.242188 15329.690430 13005.879883
v 30304.406250 15562.158203 12953.949219
v 29774.509766 15887.568359 13024.991211
v 29936.718750 15822.323242 12915.528320
v 30093.009766 15841.139648 12913.506836
v 30195.574219 15936.837891 13015.596680
v 30150.314453 15874.732422 12948.375000
v 30307.439453 14836.488281 13045.947266
v 29526.476562 14842.898438 13052.693359
v 30358.949219 14964.713867 13043.469727
v 29402.216797 15437.640625 12968.375000
v 30343.373047 15379.988281 12984.281250
v 29325.123047 15469.666016 13038.455078
v 30282.544922 15776.748047 13026.778320
v 29716.978516 15849.394531 13020.502930
v 29977.873047 15861.005859 12933.897461
v 29993.587891 14758.961914 13052.160156
v 29344.509766 14998.746094 13012.221680
v 29322.425781 15115.892578 13005.207031
v 30353.050781 15121.533203 12994.136719
v 30394.128906 15286.209961 13120.036133
v 29497.935547 15735.814453 13070.105469
v 30276.742188 15907.392578 13091.196289
v 29932.082031 15954.867188 13022.765625
v 30014.408203 15971.269531 13017.276367
v 30212.708984 14737.297852 13102.346680
v 30278.464844 14788.087891 13073.253906
v 29991.089844 14702.130859 13129.760742
v 29874.652344 14780.287109 13037.665039
v 30331.240234 14922.678711 12994.660156
v 29266.630859 14983.572266 13080.546875
v 29249.978516 15084.497070 13069.480469
v 29287.285156 15283.480469 13022.863281
v 29296.251953 15622.778320 13151.734375
v 29829.390625 15960.006836 13062.489258
v 30129.628906 16002.322266 13043.741211
v 30054.322266 14765.355469 13041.924805
v 30142.052734 14757.851562 13058.889648
v 29352.613281 14890.740234 13086.162109
v 29708.759766 14790.664062 13058.474609
v 30361.480469 14884.887695 13099.594727
v 29330.128906 14942.146484 13058.301758
v 29154.765625 15018.738281 13164.028320
v 29233.441406 15214.707031 13072.673828
v 29242.019531 15379.116211 13082.452148
v 29261.578125 15461.012695 13093.158203
v 30309.396484 15831.133789 13107.443359
v 29519.808594 15866.273438 13150.906250
v 29580.787109 15790.812500 13055.689453
v 29628.541016 15874.922852 13087.817383
v 29720.742188 15968.206055 13118.632812
v 30240.226562 15932.504883 13057.852539
v 30230.345703 16020.082031 13106.423828
v 29866.052734 16047.940430 13133.872070
v 30048.013672 16047.361328 13090.677734
v 29935.275391 16023.659180 13089.484375
v 29874.232422 14651.018555 13207.689453
v 30172.419922 14664.948242 13187.577148
v 30266.382812 14718.196289 13147.569336
v 30319.732422 14729.432617 13166.638672
v 30338.048828 14810.666016 13117.605469
v 29349.259766 14800.295898 13168.906250
v 29159.507812 15091.544922 13148.242188
v 29240.443359 15335.013672 13071.552734
v 29275.878906 15537.256836 13116.979492
v 30317.865234 15688.469727 13056.917969
v 30349.691406 15764.440430 13159.543945
v 29611.562500 15916.735352 13133.614258
v 30297.242188 15973.242188 13153.589844
v 29789.539062 16023.880859 13139.562500
v 30253.669922 16078.236328 13170.973633
v 30187.537109 16105.481445 13165.999023
v 30107.144531 16105.946289 13153.222656
v 29333.250000 14728.007812 13246.625000
v 30411.820312 15101.148438 13155.513672
v 29201.353516 15282.595703 13103.483398
v 29189.666016 15585.224609 13220.282227
v 30347.935547 15624.383789 13098.244141
v 29396.357422 15692.549805 13115.195312
v 29459.458984 15773.111328 13121.339844
v 30329.695312 15877.669922 13162.382812
v 29554.636719 15944.112305 13189.530273
v 29695.119141 16025.958008 13187.482422
v 29821.869141 16106.094727 13211.490234
v 30035.128906 16114.512695 13162.696289
v 30250.859375 14634.545898 13235.775391
v 30302.197266 14673.156250 13215.414062
v 30343.851562 14689.692383 13229.336914
v 29397.207031 14693.791016 13256.166016
v 29278.519531 14878.230469 13141.799805
v 29566.464844 14768.197266 13121.190430
v 29198.597656 14878.739258 13196.925781
v 30419.150391 14994.151367 13197.197266
v 29090.595703 15065.943359 13211.973633
v 29098.738281 15279.479492 13207.074219
v 30394.156250 15173.427734 13105.604492
v 29136.650391 15454.083008 13207.361328
v 30376.970703 15395.397461 13093.749023
v 29407.093750 15929.319336 13281.045898
v 29670.835938 16067.459961 13246.135742
v 29920.222656 16159.322266 13233.969727
v 29910.656250 16181.358398 13284.653320
v 29958.900391 16169.909180 13239.431641
v 30253.648438 16135.666992 13218.187500
v 30383.070312 14724.839844 13244.992188
v 29654.195312 14678.089844 13210.832031
v 30376.267578 14835.285156 13164.378906
v 29160.361328 14917.554688 13201.891602
v 30399.091797 14904.709961 13177.808594
v 29112.066406 15178.412109 13188.867188
v 29108.505859 15337.049805 13204.275391
v 30373.269531 15546.444336 13133.729492
v 30392.544922 15678.250977 13223.806641
v 29381.490234 15830.266602 13224.920898
v 29589.330078 15980.500000 13199.742188
v 29723.287109 16120.944336 13285.847656
v 29652.558594 16149.805664 13386.460938
v 29845.771484 16148.967773 13252.807617
v 30202.113281 16170.773438 13234.867188
v 30124.837891 16188.008789 13239.571289
v 30312.349609 16123.297852 13251.598633
v 30096.472656 16204.781250 13269.417969
v 30312.705078 14592.550781 13295.325195
v 30381.433594 14626.080078 13320.646484
v 30189.582031 14591.869141 13277.225586
v 29725.724609 14560.686523 13347.288086
v 29198.658203 14797.548828 13257.473633
v 29128.859375 14961.056641 13206.287109
v 30455.347656 15133.458984 13283.712891
v 29030.931641 15221.416016 13271.770508
v 30348.621094 15977.578125 13229.732422
v 29808.638672 16195.010742 13376.690430
v 30351.074219 16070.320312 13267.858398
v 29958.679688 16206.764648 13338.210938
v 30380.054688 16166.994141 13346.814453
v 29918.304688 14611.439453 13258.541992
v 30270.947266 14562.131836 13310.678711
v 30415.050781 14747.432617 13283.711914
v 29118.142578 14838.182617 13285.559570
v 29063.365234 14993.775391 13256.976562
v 29009.402344 15119.369141 13290.070312
v 29058.000000 15340.245117 13261.835938
v 30402.875000 15540.203125 13209.701172
v 29279.531250 15733.943359 13243.042969
v 29348.972656 15908.097656 13308.923828
v 29570.486328 16124.345703 13390.188477
v 30405.527344 16038.496094 13330.454102
v 29982.708984 16220.047852 13398.444336
v 30060.263672 16233.380859 13379.358398
v 30109.150391 16227.422852 13316.011719
v 30292.041016 16193.933594 13298.552734
v 30213.361328 16237.179688 13326.966797
v 30355.664062 14552.125000 13388.696289
v 30053.464844 14622.204102 13238.774414
v 30434.263672 14677.767578 13356.284180
v 29242.558594 14741.105469 13278.569336
v 29531.900391 14638.867188 13283.771484
v 30423.623047 14817.275391 13266.991211
v 30446.357422 14904.650391 13289.802734
v 28928.833984 15231.832031 13369.862305
v 28986.990234 15295.810547 13325.868164
v 30445.992188 15327.452148 13279.358398
v 28996.046875 15409.666992 13352.212891
v 30428.242188 15441.663086 13252.688477
v 29145.070312 15526.642578 13229.393555
v 29172.691406 15664.176758 13296.734375
v 30393.207031 15780.599609 13253.087891
v 29283.824219 15831.279297 13306.265625
v 30388.898438 15911.195312 13275.298828
v 29430.615234 15992.813477 13326.965820
v 29582.070312 16060.574219 13297.367188
v 29658.289062 16167.617188 13435.359375
v 30422.734375 16137.850586 13383.008789
v 30318.095703 16243.984375 13386.662109
v 30383.849609 16240.753906 13428.041016
v 29950.148438 14534.593750 13364.844727
v 30113.382812 14550.582031 13336.619141
v 30396.111328 14557.435547 13420.311523
v 29626.972656 14586.065430 13328.853516
v 29504.152344 14579.628906 13358.050781
v 29225.113281 14631.589844 13384.120117
v 30465.847656 14749.562500 13382.888672
v 29047.722656 14784.902344 13366.015625
v 29055.246094 14884.345703 13311.242188
v 30490.468750 14905.168945 13397.279297
v 30456.564453 15042.514648 13290.443359
v 28876.572266 15127.903320 13415.624023
v 30480.179688 15240.039062 13365.023438
v 29069.689453 15496.142578 13304.487305
v 29181.783203 15736.403320 13333.453125
v 30437.140625 15755.853516 13336.626953
v 30448.392578 16001.144531 13389.056641
v 29467.968750 16058.631836 13376.746094
v 29755.558594 16191.360352 13457.463867
v 29877.083984 16211.154297 13460.375977
v 30475.306641 16118.605469 13448.238281
v 30186.201172 16249.706055 13377.793945
v 30325.667969 14513.761719 13440.757812
v 30242.201172 14544.190430 13340.166016
v 30423.339844 14588.945312 13418.240234
v 29777.988281 14481.282227 13451.540039
v 29093.417969 14661.259766 13417.760742
v 28949.054688 14817.300781 13428.641602
v 28981.882812 15043.777344 13324.891602
v 28938.550781 15287.585938 13369.650391
v 29185.539062 15835.334961 13402.031250
v 29336.367188 15976.001953 13393.904297
v 30141.250000 16245.353516 13504.370117
v 30191.007812 16253.770508 13434.308594
v 30274.902344 14493.678711 13451.604492
v 30172.869141 14510.529297 13401.021484
v 30447.914062 14544.054688 13521.997070
v 29948.996094 14473.375000 13458.759766
v 29561.394531 14528.677734 13404.943359
v 30478.531250 14601.519531 13497.146484
v 29372.193359 14619.277344 13346.235352
v 29014.095703 14629.067383 13484.469727
v 29073.476562 14736.156250 13376.366211
v 28992.783203 14939.067383 13345.139648
v 28850.431641 15196.242188 13446.792969
v 28894.191406 15386.041992 13453.847656
v 30480.775391 15544.570312 13401.124023
v 30439.400391 15560.632812 13305.487305
v 29058.343750 15561.008789 13356.166992
v 29085.037109 15672.131836 13392.272461
v 29340.181641 16027.460938 13460.536133
v 29447.636719 16082.690430 13420.877930
v 29640.863281 16176.732422 13500.485352
v 29534.929688 16135.796875 13442.921875
v 30023.349609 16229.582031 13480.767578
v 30330.917969 16258.406250 13598.750000
v 30302.773438 16260.416016 13442.597656
v 30443.226562 16179.903320 13426.131836
v 30157.375000 14464.540039 13488.037109
v 30412.982422 14505.310547 13549.155273
v 29272.240234 14564.125000 13429.204102
v 30494.621094 14681.185547 13473.847656
v 28946.406250 14662.534180 13507.747070
v 30521.365234 14958.858398 13474.832031
v 30506.250000 15172.173828 13432.871094
v 30489.148438 15382.707031 13403.718750
v 28907.888672 15481.194336 13483.021484
v 29060.322266 15706.146484 13439.492188
v 29188.626953 15897.153320 13455.378906
v 30466.111328 15913.222656 13409.142578
v 29424.226562 16105.274414 13491.433594
v 30231.087891 16251.041992 13594.621094
v 30393.316406 16257.697266 13556.338867
v 30509.541016 16189.715820 13532.775391
v 30384.511719 14480.972656 13579.789062
v 30497.093750 14787.837891 13439.136719
v 28863.818359 14953.607422 13453.186523
v 28839.734375 15265.063477 13471.048828
v 29121.083984 15818.615234 13460.979492
v 30544.515625 16081.751953 13544.874023
v 29758.482422 16197.546875 13539.238281
v 30429.865234 16244.049805 13497.760742
v 29628.783203 14474.421875 13468.682617
v 30279.710938 14456.692383 13560.615234
v 29344.939453 14525.421875 13447.872070
v 29483.185547 14472.076172 13483.324219
v 29705.884766 14429.273438 13528.312500
v 30518.671875 14624.154297 13556.191406
v 28825.980469 14805.560547 13531.320312
v 30542.976562 15278.331055 13535.809570
v 30494.636719 15644.357422 13441.715820
v 28970.498047 15639.050781 13506.784180
v 30520.167969 15808.995117 13497.819336
v 29132.228516 15946.358398 13615.390625
v 29176.480469 15930.968750 13514.441406
v 29496.667969 16147.613281 13531.290039
v 30516.259766 16143.409180 13516.785156
v 30455.728516 16256.485352 13714.394531
v 29391.875000 14486.176758 13480.562500
v 29426.279297 14371.047852 13604.278320
v 29838.253906 14432.875000 13528.215820
v 29979.136719 14432.607422 13540.226562
v 30488.152344 14525.062500 13647.591797
v 28790.896484 15313.820312 13535.808594
v 28865.949219 15510.430664 13557.406250
v 28997.214844 15601.790039 13447.780273
v 30522.951172 15686.989258 13501.759766
v 29029.279297 15769.900391 13536.139648
v 29262.703125 16038.154297 13581.347656
v 29347.263672 16061.504883 13509.226562
v 29349.560547 16088.316406 13569.083008
v 29761.363281 16200.182617 13708.637695
v 29930.593750 16219.203125 13564.648438
v 30103.691406 16236.057617 13627.489258
v 30522.187500 16232.817383 13634.647461
v 30559.992188 16203.896484 13619.418945
v 29586.507812 14384.082031 13584.782227
v 29703.988281 14346.904297 13650.147461
v 29745.160156 14383.072266 13599.472656
v 29885.263672 14398.333008 13597.567383
v 30029.462891 14412.262695 13597.956055
v 29105.904297 14538.996094 13511.454102
v 29149.628906 14456.401367 13571.231445
v 29023.994141 14534.685547 13557.470703
v 30557.599609 14588.235352 13723.230469
v 28913.617188 14711.986328 13503.330078
v 28782.353516 14983.888672 13517.798828
v 28839.378906 15048.503906 13456.601562
v 28785.265625 15144.815430 13506.085938
v 30553.134766 15538.276367 13562.826172
v 29397.214844 16121.425781 13602.004883
v 29570.712891 16171.008789 13609.973633
v 29629.738281 16183.703125 13690.387695
v 30577.152344 16166.897461 13606.930664
v 30035.632812 16222.640625 13822.875000
v 29231.250000 14424.683594 13578.958984
v 29878.941406 14370.735352 13655.404297
v 30152.289062 14427.161133 13599.685547
v 30325.625000 14445.357422 13660.074219
v 29077.921875 14492.617188 13564.727539
v 28927.173828 14577.678711 13585.822266
v 28777.341797 14760.392578 13590.791992
v 28639.343750 14896.718750 13642.450195
v 28759.992188 14919.782227 13549.283203
v 28622.486328 15033.695312 13631.841797
v 28735.578125 15053.289062 13548.303711
v 28691.669922 15128.191406 13584.891602
v 30566.513672 15110.647461 13597.967773
v 28636.496094 15172.386719 13631.289062
v 30574.464844 15290.061523 13615.308594
v 28732.572266 15216.480469 13563.507812
v 30578.976562 15720.604492 13605.921875
v 30557.419922 16005.040039 13560.222656
v 30628.830078 16170.169922 13683.486328
v 30292.568359 16245.821289 13785.939453
v 30383.474609 16257.139648 13724.191406
v 29454.082031 14304.773438 13692.321289
v 29299.542969 14391.918945 13598.047852
v 29050.611328 14385.361328 13669.860352
v 28992.312500 14429.279297 13661.332031
v 30510.474609 14552.800781 13636.172852
v 28857.509766 14591.928711 13626.569336
v 28868.519531 14662.244141 13571.523438
v 30553.662109 14733.349609 13590.651367
v 28742.017578 14841.425781 13586.045898
v 30548.683594 14886.085938 13554.444336
v 28650.011719 14984.233398 13617.248047
v 28560.646484 15078.486328 13672.417969
v 28636.125000 15230.671875 13651.587891
v 28710.902344 15280.708984 13603.654297
v 28793.429688 15394.666016 13574.077148
v 28779.148438 15427.147461 13616.406250
v 30532.707031 15461.997070 13516.319336
v 28818.335938 15514.436523 13637.656250
v 28921.306641 15676.916016 13633.942383
v 28895.908203 15594.432617 13583.625000
v 29072.376953 15912.122070 13689.066406
v 30562.406250 15933.118164 13567.563477
v 30607.283203 16107.660156 13639.702148
v 29225.113281 14261.437500 13756.809570
v 30451.003906 14493.853516 13681.780273
v 28912.205078 14523.824219 13635.964844
v 28782.666016 14549.053711 13708.702148
v 28541.626953 15109.807617 13691.337891
v 28588.693359 15194.508789 13673.426758
v 28687.542969 15322.523438 13665.179688
v 28992.708984 15764.757812 13594.889648
v 30621.453125 15843.658203 13666.578125
v 29053.552734 15848.248047 13602.200195
v 30636.521484 16005.903320 13678.018555
v 30684.640625 15976.162109 13749.664062
v 29456.066406 16149.592773 13660.717773
v 29534.082031 16169.302734 13725.530273
v 29916.216797 16215.750977 13684.624023
v 30480.789062 16247.829102 13650.186523
v 29361.035156 14302.914062 13693.988281
v 29524.414062 14282.413086 13731.914062
v 29040.884766 14321.833008 13735.990234
v 29135.363281 14349.839844 13676.146484
v 28869.273438 14394.809570 13761.906250
v 28915.154297 14453.255859 13686.220703
v 30482.017578 14505.273438 13745.947266
v 30564.433594 14558.528320 13829.525391
v 30568.089844 14643.589844 13692.942383
v 28777.837891 14679.818359 13631.668945
v 28586.705078 14765.237305 13733.360352
v 28688.402344 14676.783203 13702.752930
v 28674.515625 14778.121094 13660.320312
v 28590.404297 14861.753906 13685.999023
v 28520.292969 14981.014648 13703.283203
v 30610.085938 15187.665039 13708.137695
v 28546.947266 15149.037109 13718.533203
v 28661.226562 15295.886719 13694.489258
v 28769.240234 15450.091797 13666.665039
v 30608.208984 15361.593750 13688.543945
v 28834.265625 15554.820312 13685.982422
v 30591.888672 15590.733398 13636.948242
v 28893.560547 15654.523438 13680.976562
v 29291.132812 16097.841797 13687.178711
v 30611.078125 16211.960938 13705.968750
v 29624.582031 14261.208984 13787.540039
v 29693.123047 14307.829102 13720.414062
v 29764.960938 14316.972656 13732.461914
v 30201.367188 14413.591797 13684.613281
v 28666.917969 14630.276367 13746.908203
v 28555.037109 14924.207031 13690.244141
v 28459.632812 14981.793945 13756.483398
v 28482.689453 15042.924805 13725.416016
v 28662.269531 15281.961914 13725.700195
v 28721.744141 15326.704102 13760.367188
v 28794.394531 15475.998047 13712.730469
v 28808.763672 15414.378906 13792.936523
v 28853.009766 15575.113281 13730.811523
v 30637.962891 15682.723633 13710.828125
v 28968.927734 15772.798828 13671.969727
v 29216.699219 16043.222656 13677.625000
v 29068.667969 14277.095703 13774.611328
v 29280.468750 14217.144531 13799.165039
v 28936.699219 14315.937500 13788.728516
v 29388.406250 14236.673828 13781.840820
v 28808.628906 14467.486328 13747.525391
v 30280.191406 14423.333984 13719.316406
v 30365.240234 14451.651367 13808.145508
v 28576.449219 14678.539062 13806.563477
v 30592.445312 14719.417969 13738.434570
v 28616.123047 14662.096680 13770.664062
v 28513.210938 14798.346680 13781.962891
v 30614.835938 14852.174805 13767.341797
v 28468.265625 14900.208008 13764.626953
v 30615.718750 14988.885742 13746.024414
v 28487.548828 15066.498047 13750.574219
v 28644.320312 15224.477539 13763.022461
v 28643.869141 15172.605469 13802.719727
v 28762.113281 15294.163086 13823.354492
v 28894.648438 15417.366211 13869.287109
v 28855.851562 15477.417969 13803.351562
v 30649.402344 15287.315430 13784.551758
v 28832.021484 15505.370117 13754.582031
v 30635.009766 15480.038086 13729.609375
v 30660.925781 15575.483398 13763.960938
v 28918.441406 15703.802734 13728.348633
v 30677.683594 15720.104492 13771.416016
v 29161.589844 16003.675781 13702.833984
v 29372.732422 16133.146484 13720.943359
v 28987.425781 14245.442383 13855.996094
v 29143.320312 14225.293945 13819.810547
v 28913.755859 14263.617188 13878.556641
v 29912.451172 14347.243164 13732.465820
v 30076.281250 14383.439453 13700.767578
v 28696.085938 14515.087891 13812.391602
v 30131.357422 14382.962891 13776.533203
v 28730.962891 14506.725586 13780.654297
v 28536.060547 14730.670898 13827.842773
v 28477.816406 14851.182617 13813.947266
v 28462.683594 14911.713867 13792.103516
v 28864.291016 15224.741211 13944.189453
v 30699.435547 15352.800781 13871.200195
v 28919.582031 15331.142578 13931.453125
v 28966.335938 15541.220703 13875.255859
v 30707.425781 15571.163086 13844.005859
v 28948.947266 15727.407227 13784.063477
v 28979.142578 15805.742188 13773.123047
v 28974.224609 15807.019531 13755.841797
v 30726.609375 15887.359375 13823.011719
v 29033.636719 15876.785156 13719.206055
v 29125.435547 15976.376953 13742.661133
v 29398.421875 16142.649414 13835.742188
v 30729.121094 16134.790039 13809.722656
v 30708.574219 16194.064453 13804.687500
v 30795.265625 16176.681641 13894.470703
v 29671.365234 16192.140625 13818.272461
v 28848.859375 14256.745117 13946.417969
v 29482.990234 14232.208984 13814.670898
v 29784.443359 14297.989258 13802.294922
v 28796.439453 14414.113281 13798.997070
v 29955.289062 14337.646484 13813.066406
v 28729.400391 14428.875000 13864.948242
v 28648.550781 14558.594727 13833.455078
v 30418.203125 14471.275391 13814.877930
v 30545.314453 14539.456055 13842.406250
v 30646.750000 14916.054688 13844.257812
v 28564.527344 15055.095703 13812.118164
v 30676.650391 15144.946289 13863.979492
v 28907.400391 15533.517578 13829.046875
v 30747.230469 15986.074219 13835.541992
v 29083.017578 15925.325195 13791.960938
v 30744.566406 16079.675781 13826.122070
v 29495.664062 16165.280273 13828.414062
v 29570.447266 16178.347656 13833.615234
v 30650.308594 16235.037109 13797.232422
v 30743.642578 16223.670898 13865.670898
v 29097.226562 14192.167969 13884.578125
v 28842.593750 14345.732422 13834.533203
v 28682.685547 14485.441406 13880.701172
v 28616.105469 14602.206055 13853.912109
v 28601.396484 14648.984375 13878.266602
v 30625.115234 14779.169922 13824.810547
v 30647.240234 15101.122070 13806.181641
v 28485.205078 14954.376953 13804.551758
v 28623.945312 14970.658203 13882.482422
v 30689.615234 14953.949219 13935.719727
v 28662.132812 15088.753906 13861.854492
v 29041.017578 15581.003906 13915.331055
v 29027.236328 15803.397461 13835.727539
v 28947.169922 15665.725586 13814.736328
v 29180.546875 16047.947266 13786.384766
v 29229.990234 16089.619141 13785.730469
v 30145.183594 16217.494141 14022.488281
v 30533.806641 16256.067383 13771.456055
v 30579.943359 16241.588867 13744.609375
v 30680.880859 16258.083008 13865.250000
v 30795.148438 16268.835938 13965.272461
v 30814.273438 16237.107422 13942.312500
v 29034.878906 14194.348633 13915.856445
v 29174.986328 14175.863281 13893.529297
v 29511.587891 14216.959961 13862.335938
v 29324.607422 14192.889648 13852.083008
v 29682.925781 14249.610352 13869.531250
v 30041.085938 14356.572266 13892.088867
v 28693.683594 14456.126953 13921.935547
v 30280.644531 14424.316406 13854.331055
v 30484.652344 14502.828125 13831.603516
v 30593.095703 14610.875977 13830.435547
v 28556.826172 14779.170898 13865.653320
v 30615.582031 14693.518555 13839.449219
v 30667.957031 14820.766602 13931.777344
v 28575.533203 14886.261719 13874.367188
v 28682.375000 14946.503906 13928.250977
v 28966.746094 15411.663086 13926.755859
v 30728.253906 15226.822266 13947.634766
v 30793.082031 15434.706055 14010.486328
v 30736.646484 15727.762695 13861.771484
v 29015.468750 15716.145508 13858.722656
v 29089.042969 15915.436523 13823.551758
v 29091.011719 15878.814453 13855.598633
v 29191.824219 16043.998047 13859.897461
v 30518.201172 16261.005859 13820.011719
v 30749.566406 16284.041016 13962.090820
v 29095.269531 14165.496094 13958.901367
v 29576.642578 14215.653320 13922.556641
v 29693.906250 14251.189453 13949.338867
v 29823.083984 14293.016602 13871.754883
v 29895.224609 14314.458008 13896.723633
v 30170.841797 14390.363281 13835.257812
v 28651.597656 14574.284180 13927.446289
v 30440.544922 14492.430664 14039.545898
v 28641.689453 14670.637695 13929.580078
v 28638.544922 14788.205078 13925.773438
v 30753.480469 14992.691406 14047.124023
v 29007.765625 15504.267578 13918.426758
v 29113.892578 15848.723633 13890.127930
v 29145.087891 15967.236328 13870.317383
v 29205.433594 15996.585938 13917.374023
v 30836.292969 16077.472656 13937.806641
v 29299.312500 16103.748047 13884.785156
v 29419.941406 16138.234375 13913.970703
v 30369.744141 16240.411133 13947.658203
v 30624.468750 16272.836914 13899.452148
v 29295.501953 14169.118164 13927.854492
v 29435.181641 14182.040039 13968.476562
v 28781.103516 14349.452148 13897.210938
v 28735.191406 14380.288086 13942.551758
v 29901.421875 14320.172852 13953.747070
v 28689.179688 14471.172852 13949.923828
v 30321.818359 14450.990234 14002.479492
v 30593.000000 14571.269531 13981.523438
v 28678.462891 14636.739258 13967.814453
v 30620.378906 14610.182617 13968.194336
v 28691.150391 14726.221680 13974.412109
v 28782.660156 14840.113281 14031.859375
v 28717.531250 14894.306641 13965.041016
v 28749.402344 15078.974609 13927.209961
v 30785.386719 15080.512695 14076.687500
v 28994.525391 15264.845703 14026.538086
v 29179.904297 15536.407227 14020.292969
v 29218.101562 15659.048828 14007.766602
v 29161.277344 15811.648438 13936.294922
v 30769.906250 15625.431641 13931.181641
v 29241.117188 16046.818359 13916.781250
v 30897.207031 16210.642578 14012.339844
v 29636.683594 14248.304688 14048.652344
v 29891.191406 14326.697266 14009.591797
v 28718.894531 14386.989258 14002.433594
v 28698.935547 14495.611328 13990.789062
v 28718.056641 14568.288086 14024.654297
v 30656.837891 14734.185547 13948.500977
v 28828.226562 14751.138672 14102.357422
v 30851.136719 15595.037109 14052.474609
v 29329.378906 15654.013672 14079.818359
v 29241.439453 15924.217773 13964.453125
v 29363.955078 16097.199219 13962.160156
v 30435.285156 16251.792969 13909.672852
v 30455.527344 16258.068359 13840.671875
v 29064.777344 14136.552734 14052.475586
v 28936.457031 14189.722656 13969.061523
v 28981.970703 14158.777344 14010.723633
v 29171.232422 14147.405273 14011.280273
v 29258.351562 14150.901367 14024.880859
v 28757.414062 14290.121094 14059.394531
v 30042.994141 14370.521484 14002.236328
v 30164.740234 14394.574219 13932.051758
v 30389.617188 14484.835938 14114.237305
v 30475.128906 14502.610352 13969.214844
v 28732.933594 14656.207031 14027.098633
v 28798.128906 15000.209961 13994.519531
v 28890.257812 15080.431641 14038.432617
v 29105.824219 15269.187500 14115.178711
v 29075.191406 15423.333984 13996.664062
v 29406.105469 15876.626953 14085.428711
v 30828.210938 15941.133789 13947.090820
v 29320.361328 15992.987305 13994.227539
v 29383.664062 16059.791016 14008.432617
v 29506.054688 16123.890625 14013.010742
v 30974.544922 16230.100586 14108.788086
v 29794.367188 14311.867188 14079.416016
v 28734.986328 14497.110352 14068.434570
v 30608.150391 14574.532227 14120.462891
v 28791.699219 14620.378906 14106.273438
v 30696.722656 14777.000000 14021.879883
v 28956.244141 15131.526367 14069.964844
v 29363.546875 15940.306641 14039.984375
v 29476.044922 15979.134766 14108.474609
v 29809.148438 16200.826172 13948.651367
v 30492.783203 16245.956055 14028.337891
v 30596.808594 16264.286133 14025.066406
v 30614.230469 16274.066406 13953.503906
v 30883.650391 16257.958008 14034.745117
v 30850.328125 16282.232422 14074.204102
v 28954.330078 14131.033203 14119.905273
v 29266.062500 14148.375977 14087.466797
v 29497.414062 14197.116211 14019.832031
v 28835.582031 14208.875977 14039.736328
v 28729.783203 14395.119141 14073.752930
v 28754.800781 14427.036133 14143.526367
v 30665.044922 14697.740234 14002.291016
v 29073.121094 15349.649414 14036.583008
v 29218.851562 15454.732422 14079.674805
v 29267.433594 15522.710938 14078.847656
v 29417.257812 15566.480469 14174.052734
v 30825.179688 15776.473633 13975.425781
v 29416.808594 15746.232422 14121.798828
v 29473.912109 15887.341797 14135.016602
v 30912.908203 16140.377930 14022.481445
v 29490.931641 16051.524414 14087.144531
v 29596.177734 16156.458984 13984.503906
v 29900.431641 16211.605469 13906.813477
v 29953.287109 16212.993164 14054.159180
v 30735.626953 16291.571289 14038.276367
v 30981.619141 16261.648438 14201.244141
v 29020.644531 14133.789062 14067.419922
v 29149.144531 14124.225586 14123.979492
v 28875.472656 14154.855469 14123.514648
v 29355.136719 14178.427734 14187.091797
v 28779.107422 14244.347656 14078.668945
v 28743.830078 14251.722656 14185.492188
v 28742.150391 14323.571289 14083.948242
v 28790.796875 14523.525391 14153.594727
v 30507.878906 14524.574219 14153.018555
v 30544.896484 14538.059570 13971.909180
v 30639.052734 14605.847656 14083.602539
v 30678.751953 14664.832031 14079.704102
v 30716.824219 14857.813477 14023.367188
v 30820.935547 15136.837891 14116.599609
v 29347.251953 15584.616211 14109.583008
v 29500.339844 15711.320312 14200.175781
v 29529.472656 15885.711914 14184.108398
v 29503.830078 16094.452148 14057.332031
v 29635.445312 16127.180664 14088.880859
v 29623.703125 16175.929688 13924.607422
v 29747.351562 16189.747070 13967.965820
v 30246.115234 16229.251953 13948.079102
v 30743.613281 16275.259766 14127.851562
v 29042.203125 14100.533203 14228.739258
v 29220.832031 14136.729492 14152.705078
v 29307.798828 14159.105469 14147.401367
v 28813.367188 14182.160156 14137.904297
v 28762.941406 14214.470703 14165.009766
v 29516.294922 14222.921875 14124.430664
v 28740.812500 14374.172852 14119.537109
v 30706.625000 14659.155273 14172.405273
v 28930.566406 14876.298828 14161.027344
v 28921.753906 14994.818359 14104.360352
v 29038.886719 15167.454102 14123.426758
v 29222.191406 15331.594727 14164.109375
v 29329.904297 15473.384766 14146.750977
v 31008.144531 16032.287109 14148.859375
v 31085.324219 16074.255859 14237.750000
v 31026.460938 16146.196289 14163.118164
v 29598.224609 16088.566406 14132.770508
v 30257.478516 16218.407227 14057.042969
v 30377.964844 16226.754883 14063.660156
v 28896.042969 14121.090820 14193.956055
v 28743.509766 14201.345703 14234.595703
v 28750.691406 14340.215820 14200.996094
v 28778.896484 14418.207031 14212.742188
v 29745.107422 14347.403320 14253.519531
v 30503.773438 14535.770508 14257.365234
v 30656.843750 14601.541992 14201.621094
v 28866.269531 14559.923828 14241.167969
v 30666.923828 14615.781250 14166.548828
v 28879.833984 14681.429688 14187.940430
v 28951.751953 14745.440430 14239.493164
v 30741.867188 14767.900391 14128.238281
v 30760.187500 14867.108398 14103.090820
v 30822.886719 14892.495117 14200.554688
v 30810.427734 14979.431641 14145.347656
v 29025.519531 15064.370117 14170.860352
v 29423.304688 15450.265625 14238.766602
v 30900.755859 15681.503906 14095.507812
v 30976.730469 15945.430664 14126.417969
v 29749.818359 16172.652344 14050.204102
v 30195.421875 16206.060547 14118.366211
v 30321.738281 16208.837891 14141.596680
v 30617.720703 16251.700195 14115.198242
v 28743.396484 14325.381836 14170.611328
v 30201.748047 14427.467773 14068.675781
v 30343.285156 14485.982422 14190.042969
v 30759.197266 14685.303711 14262.154297
v 30759.515625 14728.115234 14200.715820
v 30850.433594 14853.346680 14267.773438
v 29134.986328 15219.450195 14178.604492
v 30912.343750 15194.639648 14231.488281
v 29476.587891 15565.930664 14234.267578
v 31054.533203 15741.579102 14263.467773
v 29605.857422 15778.107422 14303.092773
v 29597.417969 15914.152344 14245.865234
v 29572.083984 16037.876953 14163.435547
v 29763.392578 16134.848633 14166.475586
v 29868.792969 16195.918945 14085.586914
v 30030.853516 16207.666992 14112.316406
v 30425.599609 16213.085938 14165.236328
v 30524.113281 16227.736328 14152.022461
v 30808.351562 16268.115234 14202.028320
v 30991.408203 16248.424805 14168.265625
v 30864.417969 16281.707031 14153.458008
v 28756.994141 14245.641602 14322.559570
v 29950.386719 14367.674805 14101.890625
v 30113.583984 14431.224609 14189.449219
v 30589.531250 14561.515625 14200.541992
v 30840.298828 14788.434570 14297.244141
v 29000.267578 14968.366211 14193.270508
v 29258.392578 15263.089844 14257.890625
v 29388.121094 15371.837891 14277.031250
v 31029.748047 15821.334961 14215.369141
v 31091.234375 15960.411133 14256.581055
v 29654.972656 16072.628906 14209.474609
v 29680.115234 16103.731445 14177.464844
v 30272.300781 16189.754883 14211.696289
v 30452.087891 16198.821289 14234.347656
v 30624.531250 16223.020508 14232.243164
v 31082.857422 16158.977539 14239.115234
v 28794.923828 14139.293945 14248.449219
v 28922.833984 14088.345703 14287.674805
v 29099.740234 14108.556641 14261.648438
v 29168.210938 14128.918945 14284.281250
v 28786.363281 14314.964844 14327.635742
v 30415.570312 14524.863281 14303.993164
v 30662.125000 14606.089844 14288.930664
v 30814.183594 14731.492188 14307.819336
v 29117.234375 15018.942383 14292.660156
v 29348.730469 15265.857422 14355.805664
v 31014.019531 15391.099609 14311.569336
v 30980.636719 15562.352539 14223.581055
v 29647.466797 15920.440430 14305.084961
v 31198.871094 15915.208984 14380.897461
v 29728.285156 16079.994141 14262.030273
v 29795.261719 16102.117188 14272.507812
v 29858.779297 16168.806641 14141.398438
v 29985.970703 16181.548828 14167.785156
v 30134.037109 16186.839844 14190.421875
v 30473.517578 16180.348633 14307.059570
v 31046.123047 16220.219727 14212.801758
v 29322.640625 14186.572266 14291.197266
v 30010.472656 14443.384766 14342.404297
v 28904.800781 14510.363281 14328.078125
v 28989.683594 14615.221680 14350.406250
v 30773.109375 14671.680664 14348.036133
v 30770.832031 14677.165039 14313.632812
v 30893.826172 14748.215820 14416.208984
v 30977.402344 15242.315430 14306.106445
v 29452.851562 15393.077148 14339.632812
v 29492.603516 15460.195312 14331.355469
v 29551.945312 15646.036133 14286.509766
v 29705.175781 15959.287109 14362.417969
v 31240.810547 15980.998047 14414.652344
v 30384.199219 16149.009766 14377.187500
v 29909.914062 16140.706055 14242.097656
v 30075.611328 16155.682617 14270.832031
v 30256.351562 16164.862305 14294.901367
v 31015.201172 16254.313477 14252.291016
v 30977.708984 16255.033203 14328.575195
v 28856.382812 14113.272461 14336.186523
v 28764.650391 14164.375000 14258.531250
v 28812.958984 14416.322266 14278.607422
v 29156.033203 14879.046875 14406.740234
v 30928.521484 14959.092773 14335.757812
v 29126.117188 15104.488281 14249.651367
v 30927.537109 15049.817383 14296.870117
v 29181.050781 15155.694336 14271.109375
v 29238.529297 15185.070312 14309.848633
v 29527.449219 15542.018555 14315.940430
v 29630.503906 15731.860352 14363.531250
v 29649.248047 15992.216797 14270.996094
v 29713.406250 16033.111328 14311.828125
v 29879.750000 16105.724609 14324.573242
v 30018.246094 16118.161133 14361.276367
v 30179.564453 16134.101562 14369.876953
v 30593.544922 16156.325195 14412.823242
v 30666.779297 16169.199219 14402.559570
v 30619.853516 16193.162109 14321.221680
v 31149.035156 16093.113281 14311.058594
v 31173.187500 16157.384766 14351.901367
v 30894.449219 16244.531250 14325.387695
v 31161.470703 16198.432617 14367.013672
v 31111.880859 16231.677734 14359.994141
v 28931.677734 14107.052734 14367.210938
v 28779.687500 14168.271484 14332.379883
v 29295.998047 14206.330078 14381.351562
v 29548.189453 14307.359375 14381.705078
v 30603.091797 14587.994141 14342.064453
v 30799.550781 14689.132812 14436.252930
v 29236.763672 15050.519531 14411.507812
v 29513.259766 15432.265625 14407.029297
v 31096.447266 15647.289062 14337.059570
v 29762.291016 16022.667969 14377.041016
v 29791.425781 16061.635742 14354.158203
v 30288.101562 16111.750977 14463.003906
v 30792.435547 16211.324219 14356.025391
v 31078.412109 16238.101562 14384.119141
v 28991.722656 14096.996094 14326.489258
v 28851.511719 14147.683594 14386.002930
v 29161.314453 14152.924805 14363.469727
v 29494.849609 14318.614258 14474.488281
v 29886.955078 14393.232422 14262.063477
v 30226.529297 14487.960938 14322.392578
v 30911.318359 14749.125000 14474.896484
v 29319.066406 15183.389648 14409.594727
v 31081.060547 15299.312500 14425.458008
v 29464.089844 15308.653320 14488.351562
v 29575.763672 15529.574219 14425.360352
v 29699.425781 15864.541992 14415.180664
v 29849.644531 16038.667969 14470.648438
v 30444.955078 16121.161133 14465.003906
v 29047.896484 14133.002930 14390.261719
v 28808.812500 14198.294922 14380.455078
v 29319.542969 14254.667969 14466.250977
v 28765.490234 14246.522461 14340.588867
v 29641.080078 14345.970703 14393.183594
v 29770.753906 14387.980469 14383.935547
v 30470.808594 14553.738281 14367.307617
v 30608.179688 14608.640625 14412.091797
v 30918.500000 14820.308594 14400.393555
v 31110.367188 15223.101562 14491.720703
v 31012.025391 15123.104492 14391.062500
v 29638.791016 15658.944336 14431.733398
v 31255.552734 16059.542969 14426.887695
v 29858.333984 16065.736328 14417.593750
v 30025.156250 16075.856445 14499.450195
v 30125.562500 16087.646484 14498.166992
v 30390.630859 16090.367188 14534.834961
v 30905.130859 16204.438477 14428.039062
v 31286.142578 16147.032227 14490.843750
v 31105.625000 16215.130859 14466.872070
v 28900.195312 14207.759766 14437.371094
v 29214.816406 14210.559570 14439.260742
v 28865.384766 14259.264648 14421.850586
v 28857.345703 14310.994141 14406.189453
v 29691.281250 14399.458984 14518.244141
v 29007.841797 14543.983398 14409.393555
v 30154.238281 14495.122070 14414.603516
v 30724.439453 14668.453125 14471.446289
v 30959.496094 14805.518555 14501.993164
v 29102.128906 14756.503906 14401.923828
v 30975.253906 14913.664062 14431.532227
v 29240.701172 14958.493164 14467.750000
v 29412.951172 15245.289062 14479.122070
v 31223.824219 15673.872070 14474.801758
v 29822.710938 16008.273438 14481.810547
v 30377.740234 16046.317383 14634.742188
v 29930.392578 16078.380859 14438.729492
v 30568.666016 16102.808594 14527.683594
v 30699.761719 16131.910156 14494.177734
v 30779.529297 16162.706055 14457.424805
v 30896.300781 16145.987305 14529.610352
v 31229.964844 16189.467773 14457.428711
v 28970.343750 14152.140625 14423.919922
v 29154.992188 14213.750000 14465.823242
v 29425.005859 14339.645508 14559.010742
v 29017.443359 14492.400391 14443.504883
v 29822.914062 14426.867188 14474.542969
v 31016.509766 14898.176758 14512.067383
v 31102.005859 15481.306641 14393.620117
v 29736.378906 15884.284180 14468.598633
v 29765.650391 15962.501953 14446.800781
v 31317.820312 16029.127930 14495.681641
v 30217.355469 16087.253906 14522.767578
v 31035.355469 16208.847656 14471.941406
v 31209.224609 16197.869141 14484.103516
v 28911.474609 14176.872070 14436.124023
v 29036.171875 14280.544922 14501.720703
v 29072.617188 14253.184570 14506.453125
v 29005.326172 14398.850586 14469.658203
v 29326.144531 14302.166992 14535.999023
v 29005.482422 14311.414062 14487.537109
v 28861.503906 14357.953125 14392.406250
v 29976.816406 14482.849609 14524.501953
v 30227.951172 14538.790039 14492.466797
v 29106.740234 14641.458984 14458.289062
v 29164.859375 14705.404297 14490.683594
v 30715.605469 14687.669922 14526.158203
v 30852.835938 14739.492188 14532.707031
v 31016.189453 14867.031250 14552.992188
v 31085.105469 15014.215820 14544.528320
v 29556.871094 15405.794922 14549.343750
v 29804.578125 15930.240234 14545.310547
v 29929.437500 16040.766602 14540.780273
v 30057.529297 16060.597656 14550.130859
v 31281.777344 16113.525391 14468.229492
v 31086.966797 16166.551758 14559.017578
v 31403.458984 16075.228516 14580.802734
v 31314.095703 16155.851562 14547.369141
v 29168.363281 14291.586914 14544.217773
v 29122.666016 14230.023438 14491.941406
v 29184.316406 14352.671875 14565.771484
v 29106.771484 14356.701172 14534.081055
v 29086.384766 14416.655273 14516.921875
v 29170.236328 14443.269531 14564.218750
v 29791.978516 14441.469727 14549.859375
v 29100.296875 14511.228516 14503.211914
v 30211.818359 14565.353516 14568.066406
v 30473.650391 14602.935547 14502.897461
v 29180.240234 14618.015625 14535.809570
v 30612.125000 14647.951172 14514.872070
v 30972.886719 14817.781250 14569.513672
v 29345.673828 14880.090820 14626.480469
v 29267.226562 15096.981445 14417.287109
v 31069.498047 15055.762695 14500.435547
v 31204.363281 15320.142578 14588.959961
v 31205.240234 15427.841797 14542.584961
v 31354.167969 15810.685547 14578.614258
v 29776.707031 15775.594727 14611.086914
v 31302.185547 15857.399414 14506.778320
v 31348.912109 15974.024414 14532.324219
v 31382.132812 15928.965820 14575.635742
v 30295.001953 16077.191406 14560.675781
v 30579.777344 16038.953125 14659.293945
v 30764.138672 16104.281250 14561.901367
v 31024.388672 16114.331055 14612.615234
v 31187.312500 16160.666992 14573.674805
v 29275.589844 14304.385742 14548.997070
v 29238.763672 14422.560547 14598.152344
v 29603.373047 14387.449219 14557.773438
v 29180.863281 14516.758789 14560.940430
v 30344.156250 14613.573242 14603.158203
v 30925.867188 14814.175781 14618.760742
v 29262.978516 14805.935547 14559.242188
v 31095.724609 14975.296875 14597.873047
v 29389.628906 15134.956055 14554.800781
v 29524.580078 15297.404297 14619.725586
v 29683.310547 15619.526367 14569.065430
v 31281.398438 15500.820312 14617.724609
v 29723.683594 15620.087891 14645.180664
v 31270.281250 15609.325195 14554.853516
v 31340.000000 15677.528320 14615.890625
v 31407.220703 15804.666016 14651.922852
v 29866.378906 15964.090820 14597.520508
v 29904.197266 16008.581055 14578.903320
v 30861.771484 16090.164062 14606.797852
v 31454.773438 15977.045898 14641.138672
v 29407.996094 14383.203125 14616.736328
v 29237.050781 14353.531250 14580.638672
v 30046.234375 14534.125000 14600.994141
v 30271.541016 14624.752930 14655.573242
v 30573.208984 14675.596680 14593.233398
v 30797.283203 14754.785156 14608.273438
v 31039.650391 14882.530273 14604.816406
v 29399.148438 14976.618164 14654.302734
v 29372.287109 15045.613281 14587.410156
v 29449.416016 15205.355469 14584.252930
v 30199.886719 16052.870117 14601.398438
v 30885.812500 16044.210938 14677.274414
v 31454.619141 16048.495117 14651.687500
v 31377.943359 16108.312500 14604.280273
v 29260.550781 14335.503906 14575.472656
v 29540.267578 14397.163086 14608.598633
v 29795.394531 14464.460938 14598.158203
v 29914.611328 14537.587891 14669.510742
v 30128.058594 14601.192383 14677.045898
v 30392.003906 14658.847656 14662.802734
v 29241.375000 14705.736328 14568.091797
v 30673.054688 14740.474609 14651.833008
v 31010.976562 14891.990234 14661.521484
v 31150.105469 15085.885742 14632.144531
v 31195.125000 15233.936523 14622.384766
v 29778.779297 15656.257812 14698.930664
v 31379.931641 15694.271484 14666.410156
v 30058.222656 16008.231445 14644.412109
v 30143.521484 16027.828125 14636.578125
v 30667.115234 16074.980469 14599.022461
v 30019.078125 15966.310547 14692.770508
v 31206.568359 16055.533203 14695.884766
v 31235.328125 16127.461914 14619.048828
v 31320.322266 16072.425781 14678.392578
v 31371.960938 16081.262695 14651.066406
v 29354.541016 14452.799805 14654.207031
v 29720.638672 14482.416016 14665.433594
v 29632.419922 14482.893555 14701.119141
v 29248.136719 14543.115234 14605.761719
v 29279.720703 14661.265625 14614.032227
v 29365.904297 14786.185547 14672.479492
v 30684.457031 14790.333984 14721.092773
v 31042.240234 14942.138672 14702.861328
v 31089.207031 14950.381836 14659.228516
v 31123.947266 14997.647461 14648.326172
v 31299.605469 15473.217773 14661.971680
v 29831.117188 15778.729492 14679.380859
v 31378.941406 15642.230469 14707.010742
v 31457.230469 15896.029297 14688.843750
v 29961.193359 15943.171875 14684.520508
v 30790.285156 16040.576172 14670.798828
v 31472.324219 15974.255859 14699.149414
v 29394.767578 14416.121094 14644.527344
v 29336.359375 14491.419922 14655.915039
v 29292.169922 14524.060547 14634.919922
v 30399.777344 14703.001953 14727.532227
v 30538.943359 14740.859375 14715.286133
v 30874.710938 14831.558594 14678.740234
v 30826.550781 14861.405273 14740.280273
v 31200.146484 15174.278320 14684.788086
v 31270.759766 15320.221680 14738.729492
v 31290.593750 15393.240234 14708.767578
v 31345.287109 15532.487305 14711.737305
v 29645.953125 15368.904297 14759.136719
v 29901.609375 15849.152344 14709.370117
v 29947.964844 15885.199219 14722.961914
v 30683.669922 16016.273438 14703.342773
v 31106.517578 16074.989258 14675.622070
v 29479.142578 14425.122070 14657.910156
v 29498.060547 14521.735352 14740.316406
v 29404.736328 14514.843750 14695.779297
v 29379.623047 14580.460938 14692.967773
v 29330.878906 14630.664062 14659.329102
v 30105.111328 14632.886719 14735.383789
v 29449.677734 14942.319336 14726.085938
v 31026.919922 14988.746094 14751.888672
v 31111.646484 15008.103516 14702.546875
v 31148.125000 15099.146484 14746.697266
v 31182.029297 15134.952148 14731.130859
v 31250.291016 15270.804688 14757.367188
v 29752.035156 15547.404297 14750.097656
v 31395.431641 15662.234375 14764.878906
v 31428.806641 15768.806641 14734.789062
v 30808.523438 15969.424805 14773.398438
v 30879.894531 15994.689453 14741.857422
v 30082.970703 15937.969727 14755.783203
v 31450.972656 16001.106445 14716.301758
v 31075.703125 15979.107422 14765.893555
v 31322.353516 16010.296875 14731.461914
v 29487.970703 14574.814453 14758.879883
v 29725.568359 14547.091797 14751.868164
v 29457.660156 14671.438477 14759.585938
v 29883.562500 14567.520508 14726.480469
v 30009.976562 14659.677734 14803.471680
v 29392.830078 14710.876953 14709.425781
v 30613.828125 14809.431641 14770.416992
v 29458.164062 14823.889648 14760.579102
v 30809.800781 14943.608398 14822.659180
v 30903.982422 14930.205078 14764.750000
v 29492.851562 15100.904297 14723.005859
v 29477.830078 15142.045898 14679.382812
v 31140.181641 15160.708008 14795.406250
v 29546.470703 15234.924805 14720.216797
v 29622.345703 15402.785156 14687.494141
v 31311.337891 15433.572266 14783.452148
v 31339.230469 15491.252930 14751.416016
v 31361.671875 15555.832031 14757.243164
v 29963.583984 15793.776367 14801.050781
v 31448.744141 15868.793945 14745.583008
v 30496.539062 15992.031250 14747.671875
v 30708.462891 15938.891602 14825.885742
v 30181.408203 15972.743164 14738.771484
v 30268.132812 15999.514648 14714.195312
v 30344.585938 15998.306641 14727.514648
v 30972.269531 15993.896484 14749.066406
v 29564.337891 14515.801758 14749.529297
v 29632.910156 14543.318359 14769.887695
v 30194.572266 14678.836914 14769.742188
v 30589.195312 14848.850586 14819.481445
v 30728.457031 14871.515625 14793.285156
v 29515.466797 14940.833984 14800.990234
v 30909.820312 14986.771484 14805.493164
v 30919.626953 15050.708008 14840.044922
v 31212.078125 15234.619141 14785.196289
v 29702.828125 15379.023438 14830.398438
v 29847.744141 15621.718750 14806.255859
v 31400.554688 15705.740234 14793.029297
v 31192.982422 15968.093750 14773.758789
v 30163.660156 15896.159180 14846.261719
v 31396.173828 15973.091797 14745.329102
v 29572.748047 14576.640625 14794.745117
v 29509.625000 14646.499023 14791.574219
v 29578.957031 14665.329102 14836.596680
v 29845.794922 14628.556641 14811.087891
v 30102.445312 14722.558594 14854.908203
v 30371.187500 14739.177734 14783.684570
v 31089.062500 15063.237305 14772.218750
v 30926.257812 15183.769531 14900.796875
v 29610.316406 15223.885742 14819.178711
v 31121.693359 15241.767578 14835.326172
v 31210.068359 15396.340820 14848.385742
v 31265.441406 15383.483398 14815.788086
v 29744.410156 15389.339844 14868.693359
v 31320.458984 15522.228516 14821.126953
v 31365.470703 15591.884766 14803.280273
v 31375.693359 15691.906250 14818.474609
v 30090.253906 15834.618164 14867.125000
v 31095.068359 15876.175781 14836.359375
v 31217.039062 15917.157227 14802.249023
v 30902.480469 15925.208008 14821.334961
v 30035.128906 15890.760742 14778.446289
v 30632.177734 15974.050781 14776.211914
v 31419.277344 15883.538086 14780.746094
v 29714.251953 14614.014648 14825.558594
v 29821.746094 14671.285156 14858.214844
v 29616.025391 14778.275391 14896.842773
v 29930.996094 14714.550781 14881.352539
v 30460.976562 14806.041992 14822.904297
v 29529.601562 14802.773438 14830.751953
v 29598.378906 14889.914062 14890.991211
v 30687.312500 14926.609375 14852.934570
v 30836.623047 15043.678711 14875.218750
v 29548.359375 15119.181641 14788.513672
v 30992.689453 15137.584961 14850.507812
v 31011.955078 15279.080078 14894.898438
v 31027.257812 15380.782227 14913.406250
v 31182.794922 15480.586914 14875.242188
v 31134.250000 15536.337891 14896.082031
v 31052.015625 15562.401367 14923.169922
v 31197.484375 15644.798828 14877.411133
v 31312.724609 15591.714844 14841.981445
v 31057.250000 15724.797852 14902.293945
v 31342.095703 15693.950195 14836.676758
v 31139.232422 15819.233398 14854.248047
v 31162.894531 15700.070312 14879.882812
v 31021.060547 15801.695312 14886.077148
v 31162.199219 15769.758789 14865.771484
v 30090.906250 15739.498047 14946.818359
v 31304.183594 15754.153320 14841.644531
v 31001.525391 15878.327148 14850.085938
v 31293.654297 15900.303711 14803.625977
v 31402.966797 15803.892578 14810.539062
v 30510.119141 15941.150391 14844.835938
v 30291.917969 15932.722656 14839.722656
v 30433.433594 15924.000977 14879.485352
v 29624.486328 14643.308594 14841.054688
v 30036.324219 14779.620117 14923.113281
v 30231.097656 14793.572266 14891.755859
v 29542.335938 14877.167969 14839.647461
v 30742.230469 14981.699219 14872.818359
v 30801.208984 15148.419922 14943.541992
v 30921.527344 15280.738281 14933.858398
v 31043.046875 15473.911133 14921.581055
v 29991.039062 15665.962891 14912.036133
v 30907.763672 15812.047852 14912.884766
v 30776.744141 15910.009766 14855.840820
v 30874.611328 15864.654297 14884.129883
v 30609.273438 15923.851562 14867.431641
v 30690.421875 15879.711914 14924.297852
v 29712.203125 14720.936523 14899.474609
v 30481.585938 14876.279297 14880.825195
v 30724.242188 15069.296875 14933.736328
v 29566.140625 15071.378906 14825.990234
v 29711.539062 15292.342773 14894.015625
v 29806.021484 15331.047852 14963.886719
v 29837.304688 15461.708984 14909.608398
v 30959.421875 15566.338867 14954.416016
v 29999.708984 15544.150391 14991.375977
v 31057.339844 15638.425781 14917.938477
v 30891.845703 15772.156250 14939.756836
v 30772.734375 15849.642578 14929.607422
v 30184.882812 15782.001953 14990.130859
v 30200.291016 15829.094727 14947.946289
v 30524.546875 15876.532227 14971.596680
v 30215.312500 15917.814453 14838.604492
v 30364.601562 15879.024414 14955.105469
v 29685.150391 14790.945312 14933.706055
v 29776.375000 14707.505859 14892.239258
v 29764.464844 14800.709961 14948.572266
v 30190.914062 14830.213867 14937.532227
v 30296.806641 14837.868164 14912.943359
v 29576.039062 14790.758789 14870.594727
v 30434.589844 14932.690430 14944.459961
v 29677.265625 15006.078125 14949.861328
v 29610.589844 15015.427734 14885.567383
v 29651.087891 15204.350586 14880.545898
v 30826.943359 15233.483398 14963.000000
v 30784.115234 15294.541992 14995.033203
v 30891.539062 15334.367188 14958.079102
v 29901.968750 15437.455078 14975.697266
v 30937.789062 15453.531250 14956.333008
v 30897.675781 15451.042969 14972.290039
v 30875.429688 15593.305664 14985.037109
v 30926.294922 15671.253906 14957.818359
v 30894.867188 15709.647461 14960.244141
v 29974.369141 14824.617188 14962.602539
v 29855.800781 14889.863281 15000.495117
v 29689.306641 14879.438477 14955.336914
v 30420.822266 14994.416992 14995.531250
v 30555.406250 14989.226562 14943.903320
v 30605.759766 15067.070312 14977.765625
v 29713.570312 15234.864258 14924.007812
v 29846.929688 15314.102539 14998.528320
v 30726.488281 15765.921875 15000.980469
v 30265.146484 15843.681641 14963.759766
v 29741.912109 14858.838867 14967.439453
v 29924.351562 14867.620117 14991.928711
v 30272.113281 14895.533203 14964.155273
v 29776.568359 14952.297852 15008.929688
v 30120.095703 14921.153320 15009.794922
v 30222.027344 14947.049805 15009.214844
v 29697.769531 14942.468750 14968.935547
v 29723.542969 15023.034180 14987.479492
v 30516.197266 15106.417969 15033.311523
v 30647.414062 15130.240234 14996.287109
v 29672.126953 15108.066406 14930.253906
v 30626.054688 15183.185547 15028.238281
v 29755.871094 15189.971680 14975.577148
v 30740.255859 15508.873047 15037.678711
v 30798.195312 15617.889648 15013.851562
v 30783.494141 15700.673828 15005.160156
v 30163.574219 15703.786133 15034.317383
v 30706.408203 15684.585938 15034.748047
v 30456.478516 15846.442383 15022.804688
v 30666.876953 15820.154297 14994.221680
v 30570.876953 15846.805664 15000.923828
v 30273.003906 15026.084961 15049.387695
v 29847.046875 14955.666992 15028.534180
v 29793.818359 15027.728516 15031.890625
v 29793.417969 15094.811523 15028.499023
v 29830.576172 15207.257812 15024.439453
v 29880.892578 15125.330078 15068.746094
v 30588.251953 15223.833008 15054.392578
v 29992.162109 15407.455078 15049.082031
v 29897.373047 15211.828125 15060.378906
v 30711.416016 15421.906250 15042.152344
v 30242.943359 15755.715820 15055.702148
v 30323.613281 15811.905273 15028.739258
v 30534.283203 15785.322266 15048.945312
v 30365.792969 15012.070312 15022.493164
v 29947.601562 14946.310547 15036.903320
v 30108.566406 14993.618164 15050.749023
v 30011.314453 15059.013672 15077.524414
v 30425.628906 15102.791016 15054.332031
v 29918.101562 15015.118164 15057.107422
v 30452.824219 15171.174805 15073.199219
v 29933.541016 15180.829102 15079.273438
v 30630.998047 15312.239258 15054.306641
v 30183.453125 15640.780273 15081.999023
v 30646.199219 15579.324219 15069.166992
v 30552.617188 15625.557617 15094.227539
v 30595.974609 15723.981445 15056.998047
v 30105.347656 15065.803711 15080.314453
v 30245.146484 15083.312500 15080.175781
v 30351.935547 15164.083008 15092.205078
v 29994.433594 15149.878906 15092.361328
v 30144.335938 15128.486328 15098.536133
v 30108.111328 15172.917969 15107.638672
v 30387.935547 15248.761719 15105.726562
v 30041.841797 15314.228516 15099.542969
v 30497.480469 15281.498047 15086.703125
v 30446.640625 15423.154297 15121.592773
v 30027.251953 15380.091797 15078.518555
v 30570.642578 15544.425781 15095.802734
v 30458.894531 15708.649414 15089.433594
v 30381.007812 15765.842773 15074.350586
v 30270.898438 15153.951172 15100.872070
v 30265.714844 15220.468750 15115.884766
v 30318.490234 15308.016602 15125.664062
v 30135.248047 15260.774414 15120.775391
v 30156.212891 15428.441406 15126.486328
v 30104.304688 15289.953125 15118.891602
v 30188.968750 15301.238281 15128.522461
v 30317.269531 15460.339844 15134.352539
v 30212.011719 15587.085938 15112.621094
v 30484.558594 15474.103516 15117.913086
v 30247.628906 15519.362305 15135.334961
v 30432.679688 15550.141602 15122.606445
v 30386.492188 15629.011719 15117.029297
v 30275.572266 15670.396484 15104.812500
v 30359.226562 15698.946289 15101.547852
v 30247.558594 15405.704102 15136.541992
# 1406 vertices, 0 vertices normals

f 21 1 14
f 21 3 1
f 1 3 2
f 1 2 5
f 1 5 18
f 18 5 4
f 2 6 5
f 2 7 6
f 4 5 23
f 23 5 45
f 5 6 45
f 3 28 2
f 7 9 6
f 9 10 6
f 45 6 10
f 28 9 2
f 28 32 9
f 2 9 7
f 32 11 9
f 9 11 10
f 33 10 11
f 37 17 12
f 17 14 12
f 12 14 13
f 22 16 38
f 13 1 15
f 15 18 38
f 15 1 18
f 38 18 22
f 40 19 20
f 40 20 39
f 39 20 21
f 39 21 17
f 17 21 14
f 13 14 1
f 22 18 4
f 4 23 22
f 19 25 20
f 20 3 21
f 24 26 19
f 19 26 25
f 20 25 3
f 26 24 48
f 46 23 45
f 48 47 26
f 25 28 3
f 26 27 25
f 25 27 28
f 26 47 27
f 49 27 47
f 27 49 30
f 27 8 28
f 27 30 8
f 28 8 32
f 10 50 29
f 8 30 31
f 10 33 50
f 31 32 8
f 31 34 32
f 32 34 11
f 34 69 11
f 11 69 33
f 69 70 33
f 15 38 53
f 54 12 35
f 35 13 53
f 53 13 15
f 39 36 73
f 54 37 12
f 35 12 13
f 56 39 73
f 36 39 17
f 36 17 37
f 39 56 40
f 55 22 41
f 16 22 55
f 57 42 56
f 42 19 40
f 56 42 40
f 22 76 41
f 42 24 19
f 76 22 23
f 59 24 42
f 23 46 76
f 43 24 59
f 43 48 24
f 48 43 44
f 10 29 45
f 48 64 47
f 48 62 64
f 49 47 64
f 64 65 49
f 50 81 29
f 30 49 65
f 67 31 30
f 67 34 31
f 70 50 33
f 53 86 52
f 51 35 52
f 53 72 86
f 52 35 53
f 72 53 38
f 73 36 88
f 88 36 37
f 88 37 54
f 16 101 72
f 16 72 38
f 16 55 101
f 74 57 56
f 58 42 57
f 58 59 42
f 58 43 59
f 44 43 58
f 61 46 45
f 29 61 45
f 60 44 79
f 60 48 44
f 60 62 48
f 29 80 61
f 63 64 62
f 81 80 29
f 66 65 64
f 81 50 82
f 67 65 66
f 65 67 30
f 50 70 83
f 71 83 70
f 98 34 67
f 84 98 67
f 68 83 71
f 34 98 69
f 52 106 51
f 51 54 35
f 90 73 88
f 88 54 89
f 102 74 90
f 74 73 90
f 73 74 56
f 92 74 102
f 57 92 75
f 92 57 74
f 75 58 57
f 77 44 58
f 77 58 75
f 46 78 76
f 77 79 44
f 61 78 46
f 60 95 62
f 95 63 62
f 96 64 63
f 66 64 96
f 82 50 83
f 67 66 84
f 98 84 124
f 125 70 69
f 125 69 98
f 71 70 125
f 71 125 127
f 71 127 68
f 54 85 99
f 85 51 106
f 106 52 86
f 88 89 87
f 54 51 85
f 72 109 86
f 72 101 109
f 90 88 87
f 91 90 100
f 91 102 90
f 103 75 92
f 104 77 75
f 61 132 78
f 79 93 60
f 93 95 60
f 94 95 93
f 95 112 63
f 122 80 81
f 63 112 96
f 82 122 81
f 82 97 122
f 114 66 96
f 97 82 83
f 113 97 83
f 84 66 124
f 124 136 98
f 68 113 83
f 125 98 115
f 106 86 116
f 116 86 107
f 86 109 107
f 87 108 117
f 99 118 108
f 118 99 85
f 108 87 89
f 108 89 99
f 99 89 54
f 87 100 90
f 138 92 102
f 55 110 101
f 103 92 138
f 104 75 103
f 104 121 77
f 79 77 121
f 94 93 131
f 80 122 61
f 112 95 94
f 96 112 105
f 105 114 96
f 114 124 66
f 136 115 98
f 113 68 126
f 127 126 68
f 157 85 106
f 100 87 117
f 109 101 150
f 119 91 100
f 91 138 102
f 120 103 138
f 55 140 110
f 139 103 120
f 41 140 55
f 139 104 103
f 131 93 79
f 111 112 94
f 112 135 105
f 114 105 135
f 145 125 115
f 160 117 108
f 137 149 85
f 85 157 137
f 109 128 107
f 119 100 129
f 129 100 117
f 160 108 118
f 149 118 85
f 162 91 119
f 138 91 162
f 110 150 101
f 76 140 41
f 153 104 139
f 104 153 121
f 131 79 121
f 78 132 141
f 132 61 122
f 135 112 169
f 135 123 114
f 123 124 114
f 123 144 124
f 124 144 136
f 126 172 113
f 115 136 145
f 145 156 125
f 106 158 157
f 116 158 106
f 211 129 117
f 160 211 117
f 118 149 160
f 109 150 128
f 110 130 150
f 152 139 120
f 153 139 164
f 76 78 140
f 133 131 121
f 133 94 131
f 133 111 94
f 111 199 142
f 111 142 112
f 122 97 134
f 169 112 142
f 113 134 97
f 144 145 136
f 125 156 127
f 156 126 127
f 146 116 107
f 146 158 116
f 147 146 107
f 147 107 128
f 159 162 119
f 78 216 140
f 78 141 216
f 184 121 153
f 154 133 185
f 154 111 133
f 111 154 199
f 142 199 200
f 170 135 169
f 113 143 134
f 144 123 155
f 172 143 113
f 211 209 129
f 177 149 137
f 177 137 148
f 148 137 157
f 159 119 182
f 182 119 129
f 210 162 159
f 151 138 162
f 151 120 138
f 152 120 151
f 164 139 152
f 195 140 216
f 184 133 121
f 218 141 132
f 133 166 185
f 134 186 122
f 200 169 142
f 171 123 135
f 171 155 123
f 155 176 144
f 144 176 145
f 175 156 145
f 156 173 126
f 179 146 147
f 128 181 147
f 150 181 128
f 151 162 210
f 130 161 150
f 163 152 151
f 163 151 248
f 183 152 163
f 195 110 140
f 152 183 164
f 196 153 164
f 196 184 153
f 165 133 184
f 166 133 165
f 132 232 218
f 198 132 122
f 186 198 122
f 134 167 186
f 168 169 200
f 143 167 134
f 171 170 188
f 170 171 135
f 190 155 171
f 175 145 176
f 172 126 173
f 190 174 155
f 155 174 176
f 192 173 156
f 176 205 175
f 146 179 178
f 256 177 148
f 274 148 157
f 274 157 158
f 274 158 178
f 178 158 146
f 180 179 147
f 181 180 147
f 209 182 129
f 150 161 181
f 212 151 210
f 130 229 161
f 228 151 212
f 130 213 229
f 130 110 213
f 228 248 151
f 110 195 213
f 217 165 184
f 217 166 165
f 198 232 132
f 187 186 167
f 168 188 170
f 169 168 170
f 167 143 201
f 143 189 201
f 172 189 143
f 235 188 202
f 235 171 188
f 173 189 172
f 235 203 171
f 171 203 190
f 204 174 190
f 205 193 175
f 192 156 175
f 191 173 192
f 203 204 190
f 204 221 174
f 221 176 174
f 175 193 192
f 204 238 221
f 176 221 205
f 194 182 209
f 226 160 149
f 161 227 181
f 161 229 227
f 214 183 163
f 230 164 183
f 196 164 230
f 196 231 184
f 231 217 184
f 217 285 166
f 285 185 166
f 285 197 185
f 185 197 154
f 264 199 154
f 202 188 168
f 220 203 235
f 191 189 173
f 191 241 189
f 203 220 204
f 191 192 224
f 223 205 221
f 193 239 192
f 192 239 224
f 205 240 193
f 180 208 207
f 245 178 206
f 206 178 179
f 206 179 207
f 207 179 180
f 246 149 177
f 181 208 180
f 246 226 149
f 208 181 225
f 182 276 210
f 227 225 181
f 210 159 182
f 226 211 160
f 163 260 214
f 183 214 230
f 215 196 230
f 215 231 196
f 216 141 282
f 232 284 218
f 186 187 198
f 167 201 187
f 234 219 200
f 199 234 200
f 200 219 168
f 219 202 168
f 201 189 251
f 291 220 235
f 220 236 204
f 236 238 204
f 239 193 240
f 224 241 191
f 222 223 221
f 240 205 223
f 243 208 244
f 243 206 207
f 243 207 208
f 244 208 225
f 247 210 276
f 247 212 210
f 248 260 163
f 216 249 195
f 218 282 141
f 198 233 232
f 187 233 198
f 199 264 234
f 287 187 201
f 201 289 287
f 251 289 201
f 235 202 219
f 291 236 220
f 241 253 189
f 236 237 238
f 238 222 221
f 253 241 255
f 271 241 224
f 222 270 223
f 254 270 222
f 223 270 242
f 242 240 223
f 257 206 243
f 274 256 148
f 274 178 245
f 275 244 225
f 276 182 194
f 227 258 225
f 277 211 226
f 209 211 277
f 247 259 212
f 338 259 247
f 259 228 212
f 229 213 279
f 261 230 214
f 230 261 250
f 250 215 230
f 216 308 249
f 262 231 215
f 282 308 216
f 262 217 231
f 218 284 282
f 232 263 284
f 197 264 154
f 287 233 187
f 234 265 219
f 290 235 219
f 290 291 235
f 289 251 267
f 251 189 253
f 267 251 253
f 266 236 291
f 266 237 236
f 237 252 238
f 238 252 222
f 252 254 222
f 269 270 254
f 239 271 224
f 241 271 255
f 257 243 273
f 273 243 244
f 273 244 298
f 257 245 206
f 258 275 225
f 299 226 246
f 338 247 322
f 322 247 276
f 227 278 258
f 229 279 278
f 229 278 227
f 304 228 259
f 213 306 279
f 304 248 228
f 260 248 304
f 195 306 213
f 260 324 214
f 249 306 195
f 324 261 214
f 250 262 215
f 250 281 262
f 263 343 284
f 232 233 263
f 197 286 264
f 288 234 264
f 288 265 234
f 265 290 219
f 289 267 312
f 292 252 237
f 255 293 253
f 293 267 253
f 268 254 252
f 268 269 254
f 270 272 242
f 242 272 240
f 272 239 240
f 271 239 272
f 272 294 271
f 271 294 295
f 271 295 255
f 177 256 321
f 244 320 298
f 320 244 275
f 277 226 299
f 258 302 275
f 258 278 302
f 303 259 338
f 303 304 259
f 304 339 260
f 339 324 260
f 307 261 324
f 307 280 261
f 280 250 261
f 281 250 280
f 281 283 262
f 217 262 283
f 217 283 309
f 285 217 309
f 233 343 263
f 286 310 264
f 310 288 264
f 288 310 326
f 326 265 288
f 327 290 265
f 290 313 291
f 270 269 317
f 317 272 270
f 255 353 293
f 257 318 319
f 318 257 273
f 296 321 256
f 296 256 274
f 296 274 297
f 297 274 245
f 297 245 319
f 319 245 257
f 321 246 177
f 275 335 320
f 275 357 335
f 334 299 246
f 194 209 301
f 336 277 300
f 300 277 299
f 275 302 357
f 301 276 194
f 336 209 277
f 302 278 371
f 279 371 278
f 305 371 279
f 306 305 279
f 423 307 324
f 306 249 360
f 308 360 249
f 325 281 280
f 325 283 281
f 284 361 282
f 284 343 361
f 285 309 344
f 344 197 285
f 344 286 197
f 233 311 343
f 287 311 233
f 364 265 326
f 364 327 265
f 349 237 266
f 349 292 237
f 292 314 252
f 348 314 292
f 315 268 252
f 315 350 268
f 350 269 268
f 267 293 316
f 269 350 329
f 329 317 269
f 293 353 316
f 352 272 317
f 352 294 272
f 353 255 295
f 319 331 297
f 330 319 318
f 298 318 273
f 331 333 296
f 331 296 297
f 335 357 383
f 380 300 334
f 334 300 299
f 301 322 276
f 301 209 336
f 380 336 300
f 338 322 337
f 323 304 303
f 323 339 304
f 340 280 307
f 340 325 280
f 282 361 308
f 345 286 344
f 286 345 310
f 311 342 343
f 345 363 310
f 363 326 310
f 363 374 326
f 289 311 287
f 364 326 374
f 289 365 311
f 312 365 289
f 313 290 327
f 313 327 347
f 267 316 312
f 347 266 291
f 313 347 291
f 252 314 315
f 350 328 329
f 329 352 317
f 294 352 295
f 331 330 354
f 370 330 318
f 355 370 318
f 331 319 330
f 298 355 318
f 332 355 298
f 333 321 296
f 320 332 298
f 320 335 332
f 246 321 378
f 378 334 246
f 356 301 336
f 302 371 357
f 303 338 421
f 303 421 323
f 339 323 384
f 372 324 339
f 306 359 305
f 423 324 372
f 306 443 359
f 360 443 306
f 373 325 340
f 341 283 325
f 361 360 308
f 343 342 361
f 283 344 309
f 346 347 327
f 346 366 347
f 391 348 292
f 347 349 266
f 292 349 391
f 348 376 314
f 376 315 314
f 408 350 315
f 409 328 350
f 328 367 329
f 351 329 367
f 353 392 316
f 353 369 392
f 329 351 352
f 368 295 352
f 377 295 368
f 379 354 330
f 379 330 370
f 354 333 331
f 381 334 378
f 394 380 334
f 337 322 417
f 417 322 301
f 356 336 380
f 358 338 337
f 358 421 338
f 372 339 384
f 373 341 325
f 362 283 341
f 283 362 344
f 401 345 344
f 401 363 345
f 311 386 342
f 365 386 311
f 374 403 364
f 390 327 364
f 327 390 346
f 448 312 375
f 375 312 316
f 366 346 405
f 366 349 347
f 408 409 350
f 409 367 328
f 368 352 351
f 353 377 369
f 295 377 353
f 354 397 333
f 434 379 370
f 382 412 378
f 396 382 321
f 321 333 396
f 394 334 381
f 382 378 321
f 417 301 356
f 459 383 357
f 371 459 357
f 372 422 423
f 341 373 399
f 385 443 360
f 342 386 468
f 344 362 401
f 387 363 401
f 388 386 365
f 403 390 364
f 448 365 312
f 404 346 390
f 405 406 366
f 391 349 366
f 427 376 348
f 392 375 316
f 376 408 315
f 367 451 351
f 490 377 368
f 377 411 369
f 433 354 379
f 381 378 395
f 382 414 412
f 398 370 355
f 355 332 398
f 398 332 456
f 335 456 332
f 335 383 456
f 359 443 461
f 424 340 307
f 340 424 373
f 399 362 341
f 361 385 360
f 342 468 361
f 361 468 385
f 363 387 403
f 388 402 386
f 363 403 374
f 403 484 390
f 484 389 390
f 404 405 346
f 426 366 406
f 426 391 366
f 489 409 408
f 409 450 367
f 369 429 392
f 369 411 429
f 351 451 368
f 368 393 490
f 451 393 368
f 490 410 377
f 410 411 377
f 395 378 412
f 397 415 396
f 396 415 414
f 380 431 356
f 380 394 453
f 414 382 396
f 397 396 333
f 476 370 398
f 337 417 419
f 384 421 437
f 323 421 384
f 305 459 371
f 384 439 372
f 359 461 305
f 372 439 422
f 424 307 423
f 401 362 400
f 400 387 401
f 386 425 468
f 386 402 425
f 365 448 473
f 389 404 390
f 405 404 406
f 426 487 391
f 391 427 348
f 407 408 376
f 430 409 489
f 413 412 414
f 453 394 381
f 453 381 395
f 416 415 397
f 416 397 354
f 418 417 356
f 431 418 356
f 431 380 453
f 420 456 383
f 383 499 420
f 383 459 499
f 461 459 305
f 423 422 441
f 423 441 424
f 424 441 442
f 424 442 446
f 446 373 424
f 385 445 443
f 446 399 373
f 466 362 399
f 362 466 400
f 400 471 387
f 425 402 512
f 512 402 447
f 387 471 403
f 447 402 388
f 403 482 484
f 404 389 531
f 406 404 514
f 514 426 406
f 474 375 392
f 487 427 391
f 429 474 392
f 428 376 427
f 407 489 408
f 490 625 410
f 410 515 411
f 625 515 410
f 432 413 414
f 432 414 415
f 416 432 415
f 433 416 354
f 435 417 418
f 435 419 417
f 436 419 477
f 419 436 337
f 436 358 337
f 458 421 358
f 436 458 358
f 437 421 458
f 460 384 437
f 460 439 384
f 438 439 460
f 438 462 439
f 462 441 439
f 441 422 439
f 462 440 441
f 440 442 441
f 444 446 442
f 465 399 446
f 465 466 399
f 468 445 385
f 400 466 467
f 469 471 400
f 403 471 482
f 365 473 388
f 447 388 483
f 483 388 473
f 389 484 472
f 375 474 448
f 514 559 426
f 426 559 487
f 429 449 474
f 428 407 376
f 430 450 409
f 449 429 411
f 625 605 515
f 395 452 491
f 452 395 412
f 412 413 452
f 494 431 453
f 432 517 413
f 454 435 418
f 454 418 494
f 494 418 431
f 416 564 432
f 519 433 379
f 476 434 370
f 455 435 454
f 496 477 455
f 455 477 419
f 455 419 435
f 477 457 436
f 457 458 436
f 500 458 457
f 500 437 458
f 440 463 442
f 463 479 480
f 463 444 442
f 463 480 444
f 464 444 480
f 464 446 444
f 481 465 464
f 465 481 467
f 465 446 464
f 467 466 465
f 481 509 467
f 400 467 469
f 471 469 470
f 482 471 470
f 404 531 514
f 474 485 448
f 487 488 427
f 488 428 427
f 583 474 449
f 428 586 407
f 413 492 452
f 494 453 475
f 475 453 395
f 475 395 491
f 432 518 517
f 564 416 433
f 537 519 379
f 434 537 379
f 476 398 497
f 478 457 477
f 500 457 478
f 437 500 503
f 437 503 460
f 504 521 438
f 504 438 503
f 503 438 460
f 438 521 462
f 545 461 443
f 521 440 462
f 505 440 521
f 505 523 463
f 463 440 505
f 523 479 463
f 480 479 507
f 445 506 443
f 464 480 508
f 508 481 464
f 469 467 509
f 511 469 509
f 425 510 468
f 513 470 469
f 482 470 530
f 484 482 530
f 484 530 580
f 580 472 484
f 472 558 389
f 473 448 485
f 558 531 389
f 486 485 602
f 474 602 485
f 622 559 514
f 474 583 602
f 488 604 428
f 586 428 604
f 586 489 407
f 367 450 451
f 411 515 449
f 494 532 493
f 494 475 532
f 491 535 533
f 452 535 491
f 534 454 493
f 533 475 491
f 517 492 413
f 534 455 454
f 493 454 494
f 495 455 534
f 495 496 455
f 432 563 518
f 564 563 432
f 536 496 495
f 519 564 433
f 536 477 496
f 594 434 476
f 637 594 497
f 594 476 497
f 536 478 477
f 398 498 497
f 398 456 498
f 420 498 456
f 502 500 478
f 501 502 520
f 502 503 500
f 501 503 502
f 501 504 503
f 544 504 501
f 543 459 545
f 461 545 459
f 544 521 504
f 521 522 505
f 505 522 523
f 443 506 545
f 546 479 523
f 546 507 479
f 480 507 508
f 506 445 510
f 507 524 508
f 481 508 509
f 468 510 445
f 509 526 511
f 513 469 511
f 512 510 425
f 470 513 530
f 578 580 530
f 473 485 483
f 622 514 531
f 487 603 488
f 603 604 488
f 586 761 489
f 761 430 489
f 475 561 532
f 534 493 532
f 492 535 452
f 492 517 516
f 516 517 518
f 434 538 537
f 594 538 434
f 520 502 478
f 541 501 520
f 459 540 499
f 542 501 541
f 544 501 542
f 544 522 521
f 545 506 613
f 506 552 613
f 524 547 525
f 549 525 547
f 510 552 506
f 524 525 508
f 508 525 526
f 526 525 527
f 508 526 509
f 526 527 553
f 528 526 553
f 554 552 510
f 511 526 528
f 554 510 512
f 554 512 555
f 556 511 528
f 556 513 511
f 447 529 512
f 555 512 529
f 483 529 447
f 556 530 513
f 483 557 529
f 531 558 621
f 582 603 487
f 623 786 430
f 393 624 490
f 490 624 625
f 560 534 532
f 561 475 533
f 536 495 590
f 567 536 590
f 567 478 536
f 595 637 497
f 497 498 595
f 567 520 478
f 499 638 420
f 565 541 567
f 541 520 567
f 541 539 542
f 543 540 459
f 523 522 546
f 546 547 507
f 547 524 507
f 547 548 549
f 527 525 549
f 527 549 550
f 551 527 550
f 550 599 551
f 551 553 527
f 553 551 599
f 528 577 556
f 556 577 530
f 579 557 483
f 579 483 486
f 485 486 483
f 472 580 581
f 472 581 558
f 581 621 558
f 531 621 622
f 559 582 487
f 786 450 430
f 449 584 583
f 449 515 584
f 561 630 607
f 560 532 607
f 607 532 561
f 561 533 630
f 516 631 588
f 562 534 560
f 632 533 535
f 588 535 492
f 588 492 516
f 562 608 534
f 590 495 608
f 608 495 534
f 563 589 518
f 591 563 564
f 566 564 519
f 537 566 519
f 565 567 590
f 538 636 537
f 638 498 420
f 593 541 565
f 593 539 541
f 499 640 638
f 540 640 499
f 568 542 539
f 569 542 568
f 569 544 542
f 570 544 569
f 596 543 545
f 570 522 544
f 522 570 614
f 614 546 522
f 546 548 547
f 617 549 548
f 617 571 549
f 549 571 573
f 573 550 549
f 573 644 550
f 550 644 665
f 574 550 665
f 599 550 574
f 599 620 553
f 576 528 553
f 576 553 620
f 554 555 575
f 576 577 528
f 529 557 555
f 578 530 577
f 486 600 579
f 580 578 601
f 584 585 583
f 762 430 761
f 560 710 562
f 629 560 607
f 629 710 560
f 587 608 562
f 588 632 535
f 589 516 518
f 589 633 516
f 563 591 589
f 566 591 564
f 593 565 592
f 592 565 590
f 659 566 537
f 659 537 636
f 609 610 593
f 610 539 593
f 610 611 568
f 610 568 539
f 540 612 640
f 543 612 540
f 545 613 596
f 597 546 614
f 552 598 613
f 546 597 548
f 548 597 617
f 552 572 598
f 554 575 572
f 554 572 552
f 599 574 648
f 620 599 648
f 555 557 575
f 577 601 578
f 580 601 581
f 601 621 581
f 670 582 622
f 622 582 559
f 585 602 583
f 671 603 582
f 584 606 585
f 624 673 625
f 605 626 606
f 584 605 606
f 515 605 584
f 585 606 628
f 626 627 606
f 606 627 628
f 632 630 533
f 655 631 516
f 633 655 516
f 590 608 676
f 589 657 633
f 589 591 657
f 590 676 592
f 609 593 592
f 661 538 594
f 611 639 568
f 569 568 639
f 596 612 543
f 614 570 569
f 614 569 642
f 614 642 615
f 598 616 613
f 617 614 615
f 597 614 617
f 617 615 687
f 598 645 616
f 572 645 598
f 723 665 644
f 574 665 618
f 648 574 618
f 693 575 647
f 557 647 575
f 557 579 647
f 619 576 620
f 619 577 576
f 620 648 619
f 577 649 601
f 577 619 649
f 621 601 651
f 486 602 600
f 621 651 622
f 651 670 622
f 671 784 603
f 625 626 605
f 653 627 626
f 654 629 607
f 654 711 629
f 631 632 588
f 608 587 676
f 591 658 657
f 634 658 591
f 634 591 566
f 677 592 676
f 659 634 566
f 609 592 677
f 636 538 661
f 635 610 609
f 635 660 610
f 718 661 594
f 637 718 594
f 660 611 610
f 662 639 611
f 663 639 662
f 569 639 663
f 612 641 640
f 642 569 663
f 596 641 612
f 596 616 641
f 686 642 663
f 596 613 616
f 643 642 686
f 642 643 615
f 615 643 687
f 643 720 687
f 617 687 571
f 751 644 573
f 689 751 573
f 571 689 573
f 575 645 572
f 575 646 645
f 575 693 646
f 618 692 648
f 619 648 650
f 648 692 666
f 648 666 650
f 650 649 619
f 667 649 650
f 601 649 667
f 667 651 601
f 602 669 600
f 670 671 582
f 602 585 669
f 604 738 586
f 586 738 761
f 786 672 450
f 451 652 393
f 393 652 624
f 673 626 625
f 629 711 710
f 630 654 607
f 632 631 674
f 631 675 674
f 655 675 631
f 587 562 710
f 656 655 633
f 657 656 633
f 678 657 658
f 635 609 677
f 659 716 634
f 636 716 659
f 699 660 679
f 660 635 679
f 774 718 637
f 774 595 681
f 774 637 595
f 498 681 595
f 638 681 498
f 660 682 662
f 681 638 683
f 662 611 660
f 662 682 684
f 640 701 638
f 663 662 684
f 684 685 663
f 663 685 686
f 720 643 686
f 664 616 645
f 687 721 571
f 751 723 644
f 690 618 665
f 690 691 618
f 618 691 692
f 647 579 755
f 647 755 693
f 667 650 666
f 600 669 725
f 668 651 667
f 668 694 651
f 651 694 670
f 585 758 669
f 784 604 603
f 585 695 758
f 450 708 451
f 451 708 652
f 652 673 624
f 626 673 653
f 628 695 585
f 709 711 654
f 712 654 630
f 712 709 654
f 678 656 657
f 677 698 635
f 634 678 658
f 679 635 698
f 680 716 636
f 661 680 636
f 699 731 700
f 699 700 660
f 660 700 682
f 682 719 684
f 682 700 719
f 750 683 638
f 701 750 638
f 640 641 701
f 684 719 685
f 641 616 777
f 616 664 777
f 645 688 664
f 721 735 571
f 778 688 645
f 778 645 646
f 752 690 723
f 723 690 665
f 579 725 755
f 692 705 666
f 600 725 579
f 668 667 666
f 668 666 705
f 671 670 706
f 450 707 708
f 628 742 695
f 627 742 628
f 673 763 653
f 709 765 711
f 632 674 630
f 675 713 674
f 746 675 655
f 655 656 746
f 696 746 656
f 676 587 747
f 676 747 769
f 697 696 656
f 697 656 678
f 714 698 677
f 677 676 714
f 715 678 634
f 715 634 716
f 699 679 698
f 719 700 733
f 734 701 641
f 685 719 702
f 685 720 686
f 721 687 720
f 735 689 571
f 752 753 690
f 690 753 779
f 691 690 779
f 693 703 646
f 704 692 691
f 705 692 704
f 668 705 726
f 694 668 726
f 706 670 694
f 706 728 671
f 728 760 671
f 671 760 784
f 672 707 450
f 707 740 708
f 741 652 708
f 741 673 652
f 742 729 695
f 763 743 653
f 653 743 627
f 742 627 743
f 712 766 709
f 712 630 674
f 713 712 674
f 587 710 747
f 714 676 769
f 852 730 697
f 852 697 715
f 715 697 678
f 715 716 831
f 748 731 699
f 773 717 661
f 718 773 661
f 733 700 731
f 750 776 683
f 734 750 701
f 702 719 733
f 734 641 777
f 735 798 689
f 689 722 751
f 723 751 752
f 691 779 704
f 693 755 703
f 704 724 705
f 736 705 724
f 669 825 725
f 736 726 705
f 727 694 726
f 727 706 694
f 782 706 727
f 706 782 728
f 738 604 784
f 740 741 708
f 673 741 763
f 711 767 710
f 745 713 675
f 747 710 767
f 675 746 745
f 714 771 698
f 696 697 730
f 748 698 771
f 748 699 698
f 831 716 680
f 717 831 680
f 661 717 680
f 681 732 774
f 775 732 681
f 683 775 681
f 683 776 775
f 772 733 731
f 702 733 816
f 702 796 685
f 685 797 720
f 797 721 720
f 756 724 704
f 801 825 669
f 736 737 726
f 736 724 737
f 759 726 737
f 727 726 759
f 784 785 738
f 672 739 707
f 707 739 740
f 763 741 740
f 788 765 709
f 766 788 709
f 744 767 711
f 711 765 744
f 766 712 713
f 793 746 696
f 770 714 792
f 714 769 792
f 770 771 714
f 794 748 771
f 730 811 696
f 749 748 794
f 731 748 749
f 772 731 749
f 773 718 774
f 664 819 777
f 664 688 821
f 819 664 821
f 722 689 798
f 646 837 778
f 722 799 751
f 753 800 779
f 837 646 703
f 704 779 756
f 755 824 703
f 757 724 756
f 756 780 757
f 757 780 781
f 725 824 755
f 825 824 725
f 757 737 724
f 757 781 737
f 669 758 801
f 759 737 842
f 758 695 803
f 729 803 695
f 759 782 727
f 762 623 430
f 845 623 762
f 742 743 764
f 744 807 767
f 745 789 766
f 713 745 766
f 745 746 790
f 791 747 767
f 768 746 793
f 791 769 747
f 830 794 771
f 793 696 811
f 809 749 794
f 852 811 730
f 772 749 810
f 776 795 775
f 814 733 772
f 816 733 814
f 750 734 818
f 777 818 734
f 819 818 777
f 821 820 819
f 796 797 685
f 797 735 721
f 836 722 798
f 836 799 722
f 752 751 799
f 752 799 800
f 800 753 752
f 841 737 781
f 841 842 737
f 728 783 760
f 782 783 728
f 785 844 738
f 738 762 761
f 844 762 738
f 740 829 763
f 829 787 763
f 787 850 763
f 729 742 849
f 742 764 849
f 850 743 763
f 764 743 850
f 868 807 744
f 765 868 744
f 765 788 868
f 869 788 766
f 789 869 766
f 790 789 745
f 768 790 746
f 791 792 769
f 792 808 770
f 771 770 830
f 794 830 809
f 809 810 749
f 949 811 852
f 853 852 715
f 812 717 773
f 854 773 774
f 732 854 774
f 813 854 732
f 815 732 775
f 815 813 732
f 775 795 815
f 750 818 776
f 816 817 702
f 688 778 821
f 797 822 735
f 822 798 735
f 799 823 800
f 754 779 800
f 754 780 779
f 780 756 779
f 780 841 781
f 859 824 825
f 758 803 802
f 758 802 801
f 842 804 759
f 804 782 759
f 804 783 782
f 784 826 785
f 760 826 784
f 729 866 803
f 826 844 785
f 623 805 786
f 805 806 786
f 786 806 672
f 672 806 739
f 739 829 740
f 866 729 887
f 848 850 787
f 729 849 887
f 867 791 767
f 867 767 807
f 867 792 791
f 808 830 770
f 963 793 811
f 831 853 715
f 832 831 717
f 812 832 717
f 812 773 854
f 776 834 795
f 818 834 776
f 814 890 816
f 817 796 702
f 856 797 796
f 821 778 837
f 856 822 797
f 912 836 798
f 822 912 798
f 823 754 800
f 754 838 780
f 703 824 878
f 918 842 841
f 861 804 842
f 862 804 861
f 862 783 804
f 783 826 760
f 623 827 805
f 827 828 805
f 805 828 806
f 828 846 806
f 846 847 806
f 806 847 739
f 847 829 739
f 807 868 867
f 790 869 789
f 908 792 867
f 768 793 888
f 908 808 792
f 934 888 793
f 810 809 871
f 909 772 810
f 872 832 812
f 815 795 833
f 833 795 834
f 816 890 891
f 891 817 816
f 835 834 818
f 819 835 818
f 819 820 835
f 875 822 856
f 822 875 912
f 836 914 857
f 857 799 836
f 823 799 858
f 823 838 754
f 898 780 838
f 780 898 840
f 839 878 824
f 840 841 780
f 859 839 824
f 783 843 826
f 862 843 783
f 762 844 845
f 845 827 623
f 828 827 863
f 828 863 864
f 828 864 846
f 847 865 829
f 829 848 787
f 865 848 829
f 848 906 850
f 870 869 790
f 830 808 851
f 809 830 851
f 851 871 809
f 793 963 934
f 772 909 814
f 853 949 852
f 832 853 831
f 872 853 832
f 813 873 854
f 813 815 893
f 833 874 893
f 815 833 893
f 834 855 874
f 834 874 833
f 835 855 834
f 988 817 891
f 820 821 911
f 911 821 913
f 799 857 858
f 703 878 837
f 825 860 859
f 801 860 825
f 918 841 879
f 802 860 801
f 802 900 860
f 861 842 918
f 803 866 802
f 881 862 861
f 826 883 844
f 843 883 826
f 863 904 864
f 904 886 864
f 845 885 827
f 827 885 863
f 846 864 847
f 847 864 865
f 764 905 849
f 849 905 887
f 850 905 764
f 850 906 905
f 790 768 870
f 870 768 888
f 909 810 871
f 949 964 811
f 889 949 853
f 909 890 814
f 950 889 853
f 950 853 872
f 812 854 935
f 873 935 854
f 893 873 813
f 892 873 893
f 874 855 967
f 967 855 835
f 835 820 911
f 796 817 910
f 796 910 856
f 875 856 910
f 837 913 821
f 912 914 836
f 914 915 857
f 876 858 857
f 823 858 896
f 897 823 896
f 823 897 916
f 878 877 837
f 838 823 916
f 838 916 898
f 841 840 879
f 859 880 839
f 860 880 859
f 919 861 918
f 919 881 861
f 866 926 802
f 882 862 881
f 882 843 862
f 883 884 844
f 844 884 845
f 884 885 845
f 885 904 863
f 886 925 864
f 906 848 928
f 788 945 868
f 932 808 908
f 965 872 812
f 812 935 965
f 874 894 893
f 915 876 857
f 896 858 876
f 895 837 877
f 896 938 897
f 877 878 1007
f 917 898 916
f 839 939 878
f 840 898 917
f 917 879 840
f 956 879 917
f 879 956 899
f 879 899 918
f 802 926 900
f 919 941 881
f 881 941 882
f 843 902 883
f 882 902 843
f 883 902 884
f 902 903 884
f 884 903 885
f 903 904 885
f 901 886 904
f 886 923 925
f 901 923 886
f 864 925 865
f 866 927 926
f 928 848 865
f 887 929 927
f 887 927 866
f 906 930 905
f 905 930 887
f 907 867 868
f 869 945 788
f 888 947 870
f 932 851 808
f 962 871 851
f 964 963 811
f 894 892 893
f 967 894 874
f 817 988 910
f 937 914 912
f 1051 915 914
f 952 915 1051
f 876 915 952
f 895 913 837
f 916 897 955
f 939 1007 878
f 921 902 920
f 942 901 922
f 942 958 901
f 882 920 902
f 902 921 903
f 903 921 922
f 903 922 904
f 904 922 901
f 923 901 958
f 923 924 925
f 925 943 865
f 928 865 943
f 930 929 887
f 906 944 930
f 868 945 931
f 907 932 867
f 870 945 869
f 908 867 932
f 933 947 888
f 962 851 932
f 888 934 933
f 933 934 948
f 909 871 890
f 872 965 950
f 965 935 966
f 936 935 873
f 936 873 892
f 936 892 894
f 951 936 894
f 835 989 967
f 990 875 910
f 911 913 969
f 937 912 875
f 990 937 875
f 1051 914 937
f 913 895 969
f 969 895 953
f 955 897 938
f 955 970 916
f 970 917 916
f 839 1057 939
f 918 899 919
f 926 971 900
f 919 899 940
f 940 941 919
f 920 995 921
f 882 995 920
f 995 973 921
f 973 974 921
f 921 974 922
f 974 942 922
f 924 943 925
f 976 906 928
f 906 976 1012
f 907 946 932
f 907 868 931
f 932 946 960
f 959 945 870
f 947 959 870
f 962 932 960
f 934 963 948
f 1020 890 871
f 950 985 889
f 950 965 985
f 966 936 986
f 966 935 936
f 1023 891 984
f 1023 988 891
f 877 1007 953
f 877 953 895
f 991 896 876
f 954 938 896
f 970 956 917
f 992 939 1057
f 860 900 880
f 957 941 940
f 1033 971 926
f 957 972 941
f 941 972 882
f 972 995 882
f 974 1011 942
f 942 1011 1060
f 942 1060 975
f 942 975 958
f 958 975 996
f 924 998 943
f 998 976 943
f 927 1033 926
f 976 928 943
f 1000 927 929
f 906 978 944
f 931 946 907
f 980 959 947
f 947 933 980
f 981 962 960
f 982 962 981
f 948 961 933
f 982 871 962
f 982 1020 871
f 984 890 1020
f 1005 963 964
f 1005 964 949
f 949 889 1005
f 1022 985 965
f 984 891 890
f 965 966 1048
f 986 936 1026
f 951 1026 936
f 951 894 987
f 987 894 967
f 911 989 835
f 1052 911 969
f 953 968 969
f 952 991 876
f 954 1029 938
f 939 992 1007
f 1008 899 956
f 899 1008 1009
f 993 940 1009
f 1009 940 899
f 993 957 940
f 1031 995 972
f 1031 972 957
f 958 996 923
f 924 997 998
f 923 997 924
f 927 977 1033
f 1000 977 927
f 1012 978 906
f 944 1013 930
f 930 1013 929
f 929 1013 1000
f 945 959 931
f 931 959 1001
f 946 931 1014
f 1014 931 1001
f 946 979 960
f 1002 959 980
f 960 979 981
f 933 961 980
f 1003 961 948
f 983 948 963
f 1005 983 963
f 985 1005 889
f 1046 1022 965
f 1048 1046 965
f 986 1048 966
f 1024 988 1023
f 911 1052 989
f 989 1052 1028
f 937 990 1051
f 1073 952 1051
f 991 952 1073
f 1094 991 1073
f 954 896 991
f 1054 953 1007
f 970 955 1075
f 956 970 1008
f 839 880 1057
f 995 1031 973
f 1032 1011 974
f 975 1060 994
f 975 994 996
f 996 997 923
f 997 1062 998
f 1062 999 998
f 976 998 999
f 944 978 1013
f 1014 979 946
f 1038 1001 959
f 1038 959 1002
f 980 961 1002
f 982 981 1017
f 982 1017 1020
f 1067 948 983
f 1004 984 1020
f 1026 1025 986
f 1049 951 987
f 988 1024 1071
f 987 1006 1027
f 910 988 1071
f 967 1006 987
f 989 1006 967
f 989 1028 1006
f 968 1052 969
f 954 991 1074
f 1054 968 953
f 955 938 1029
f 1029 1075 955
f 970 1075 1008
f 880 900 1057
f 1009 1008 1030
f 1058 900 1010
f 900 971 1010
f 973 1032 974
f 1010 971 1033
f 1012 976 999
f 1064 1013 978
f 1036 1000 1013
f 977 1000 1036
f 1001 1016 1014
f 1038 1016 1001
f 1015 1014 1016
f 1015 979 1014
f 1015 981 979
f 981 1015 1019
f 1018 1002 961
f 1019 1017 981
f 1015 1040 1019
f 1067 1003 948
f 1020 1017 1004
f 1017 1019 1041
f 1043 983 1005
f 1044 1017 1041
f 1004 1017 1044
f 1021 1005 985
f 1022 1021 985
f 1004 1023 984
f 1046 1045 1022
f 1025 1048 986
f 1049 1026 951
f 1049 987 1027
f 1050 910 1071
f 990 910 1050
f 1094 1074 991
f 1007 992 1054
f 1055 992 1057
f 1057 900 1058
f 1030 993 1009
f 1010 1035 1058
f 1031 957 1082
f 957 993 1082
f 1032 1095 1011
f 994 1061 996
f 996 1061 1114
f 1062 997 996
f 1031 1032 973
f 1033 1035 1010
f 1012 999 1034
f 977 1035 1033
f 978 1012 1034
f 1034 1064 978
f 977 1036 1035
f 1064 1036 1013
f 1037 1016 1038
f 1039 1015 1016
f 1065 1038 1002
f 1065 1037 1038
f 1018 1065 1002
f 1039 1040 1015
f 1003 1018 961
f 1041 1019 1040
f 1041 1040 1042
f 1066 1040 1039
f 1042 1040 1066
f 1041 1068 1044
f 1041 1042 1068
f 1043 1005 1021
f 1047 1023 1044
f 1044 1023 1004
f 1069 1045 1046
f 1048 1069 1046
f 1047 1024 1023
f 1105 1024 1047
f 1090 1025 1026
f 1071 1024 1105
f 1026 1070 1090
f 1049 1070 1026
f 1027 1006 1072
f 968 1053 1052
f 1029 954 1074
f 992 1078 1054
f 992 1055 1078
f 1056 1030 1008
f 1057 1058 1059
f 1058 1084 1059
f 1081 993 1030
f 1081 1082 993
f 1011 1095 1060
f 1058 1035 1084
f 1063 1034 999
f 1065 1099 1037
f 1037 1039 1016
f 1039 1037 1086
f 1037 1099 1086
f 1085 1065 1018
f 1067 983 1043
f 1087 1101 1021
f 1022 1087 1021
f 1045 1087 1022
f 1068 1124 1047
f 1044 1068 1047
f 1105 1047 1124
f 1025 1089 1048
f 1090 1089 1025
f 1091 1070 1049
f 1027 1091 1049
f 1092 990 1050
f 1006 1028 1072
f 1093 990 1092
f 1073 1051 1093
f 1051 990 1093
f 1109 1028 1052
f 1188 1077 1075
f 1029 1188 1075
f 1078 1079 1076
f 1056 1075 1077
f 1079 1078 1055
f 1056 1008 1075
f 1057 1059 1055
f 1055 1059 1084
f 1030 1131 1081
f 1095 1032 1113
f 1031 1112 1032
f 1032 1112 1113
f 996 1114 1062
f 1083 999 1062
f 1083 1063 999
f 1084 1035 1097
f 1097 1035 1098
f 1119 1098 1036
f 1119 1036 1117
f 1036 1098 1035
f 1064 1117 1036
f 1085 1099 1065
f 1003 1085 1018
f 1003 1067 1100
f 1066 1039 1086
f 1067 1043 1101
f 1021 1101 1043
f 1139 1042 1066
f 1123 1042 1139
f 1123 1068 1042
f 1088 1045 1069
f 1089 1069 1048
f 1090 1106 1089
f 1142 1090 1070
f 1091 1027 1072
f 1091 1072 1129
f 1053 1109 1052
f 968 1054 1053
f 1188 1029 1074
f 1053 1054 1076
f 1130 1053 1076
f 1078 1076 1054
f 1077 1131 1056
f 1080 1079 1055
f 1131 1030 1056
f 1081 1131 1149
f 1084 1080 1055
f 1081 1149 1150
f 1115 1082 1081
f 1082 1115 1031
f 1031 1115 1112
f 1060 1095 994
f 1096 1063 1083
f 1152 1034 1063
f 1097 1098 1119
f 1152 1064 1034
f 1064 1152 1117
f 1118 1119 1117
f 1099 1120 1086
f 1121 1100 1067
f 1067 1101 1121
f 1138 1066 1086
f 1138 1086 1120
f 1138 1139 1066
f 1121 1101 1102
f 1087 1102 1101
f 1068 1123 1124
f 1103 1102 1087
f 1045 1103 1087
f 1045 1088 1103
f 1089 1104 1069
f 1106 1104 1089
f 1126 1106 1090
f 1090 1142 1126
f 1091 1107 1070
f 1128 1107 1091
f 1128 1091 1129
f 1129 1072 1108
f 1028 1108 1072
f 1185 1073 1093
f 1109 1108 1028
f 1094 1073 1185
f 1187 1094 1185
f 1187 1074 1094
f 1130 1109 1053
f 1079 1130 1076
f 1110 1131 1077
f 1111 1130 1079
f 1079 1080 1111
f 1133 1080 1084
f 1150 1134 1081
f 994 1194 1061
f 1136 1133 1084
f 1134 1115 1081
f 1062 1114 1135
f 1062 1135 1083
f 1083 1135 1096
f 1199 1063 1096
f 1084 1097 1136
f 1199 1152 1063
f 1118 1117 1116
f 1117 1152 1116
f 1137 1099 1085
f 1100 1153 1003
f 1003 1153 1085
f 1137 1085 1153
f 1123 1139 1157
f 1157 1124 1123
f 1158 1102 1103
f 1124 1157 1179
f 1104 1088 1069
f 1125 1105 1124
f 1124 1179 1125
f 1141 1104 1106
f 1125 1071 1105
f 1141 1106 1126
f 1125 1050 1071
f 1107 1142 1070
f 1127 1142 1107
f 1128 1127 1107
f 1129 1108 1144
f 1109 1144 1108
f 1146 1109 1130
f 1146 1130 1147
f 1077 1188 1148
f 1165 1110 1077
f 1111 1132 1130
f 1111 1133 1132
f 1133 1167 1132
f 1080 1133 1111
f 1198 1095 1197
f 1151 1114 1061
f 1197 1095 1113
f 1095 1198 994
f 1114 1151 1135
f 1199 1096 1169
f 1097 1171 1136
f 1119 1171 1097
f 1120 1099 1137
f 1137 1154 1120
f 1122 1100 1121
f 1120 1154 1155
f 1138 1120 1155
f 1122 1121 1175
f 1138 1155 1156
f 1175 1121 1177
f 1102 1177 1121
f 1156 1139 1138
f 1177 1102 1158
f 1202 1158 1103
f 1202 1103 1140
f 1140 1103 1088
f 1140 1088 1104
f 1141 1140 1104
f 1142 1143 1126
f 1125 1159 1050
f 1127 1143 1142
f 1159 1092 1050
f 1161 1127 1128
f 1129 1161 1128
f 1129 1163 1161
f 1184 1093 1092
f 1184 1185 1093
f 1074 1187 1188
f 1144 1146 1145
f 1109 1146 1144
f 1146 1147 1190
f 1165 1077 1148
f 1130 1132 1147
f 1132 1191 1147
f 1210 1131 1110
f 1149 1131 1210
f 1235 1134 1150
f 1135 1151 1168
f 1135 1168 1169
f 1135 1169 1096
f 1173 1118 1116
f 1119 1118 1171
f 1154 1137 1153
f 1122 1153 1100
f 1200 1153 1122
f 1201 1122 1175
f 1156 1157 1139
f 1126 1180 1141
f 1204 1180 1126
f 1143 1204 1126
f 1181 1159 1125
f 1127 1183 1143
f 1181 1205 1159
f 1127 1160 1183
f 1161 1160 1127
f 1161 1221 1160
f 1184 1092 1159
f 1162 1161 1163
f 1129 1144 1163
f 1163 1144 1164
f 1144 1145 1164
f 1145 1146 1190
f 1165 1148 1209
f 1147 1191 1190
f 1210 1110 1165
f 1166 1191 1132
f 1132 1167 1166
f 1167 1133 1193
f 1133 1136 1193
f 1151 1236 1168
f 1170 1134 1235
f 1170 1115 1134
f 1115 1170 1112
f 1112 1196 1113
f 1170 1196 1112
f 1113 1196 1197
f 994 1198 1194
f 1061 1236 1151
f 1199 1172 1152
f 1152 1172 1116
f 1116 1172 1212
f 1116 1212 1173
f 1118 1173 1171
f 1171 1173 1214
f 1153 1200 1154
f 1200 1122 1201
f 1174 1155 1154
f 1174 1156 1155
f 1176 1156 1174
f 1176 1174 1216
f 1218 1175 1177
f 1176 1157 1156
f 1178 1177 1158
f 1176 1179 1157
f 1178 1158 1202
f 1141 1220 1140
f 1181 1125 1179
f 1143 1182 1204
f 1183 1182 1143
f 1160 1206 1183
f 1184 1159 1247
f 1162 1221 1161
f 1186 1221 1162
f 1184 1187 1185
f 1163 1164 1208
f 1188 1187 1148
f 1145 1189 1164
f 1190 1189 1145
f 1166 1167 1211
f 1149 1210 1192
f 1211 1167 1193
f 1195 1168 1236
f 1169 1168 1234
f 1199 1169 1234
f 1237 1193 1136
f 1237 1136 1171
f 1061 1194 1236
f 1215 1154 1200
f 1215 1200 1201
f 1174 1154 1215
f 1238 1201 1175
f 1217 1174 1215
f 1174 1217 1216
f 1218 1238 1175
f 1177 1178 1218
f 1179 1176 1243
f 1219 1178 1202
f 1220 1219 1202
f 1140 1220 1202
f 1141 1180 1220
f 1273 1181 1243
f 1243 1181 1179
f 1273 1205 1181
f 1183 1206 1182
f 1207 1206 1221
f 1160 1221 1206
f 1163 1208 1162
f 1162 1208 1186
f 1223 1148 1187
f 1224 1186 1208
f 1226 1208 1164
f 1189 1226 1164
f 1189 1190 1191
f 1209 1210 1165
f 1191 1229 1189
f 1166 1229 1191
f 1211 1229 1166
f 1278 1262 1192
f 1150 1149 1192
f 1193 1266 1211
f 1192 1231 1150
f 1235 1150 1231
f 1234 1168 1280
f 1193 1237 1266
f 1195 1280 1168
f 1234 1172 1199
f 1172 1264 1232
f 1213 1170 1235
f 1196 1268 1197
f 1233 1265 1212
f 1171 1214 1237
f 1212 1265 1173
f 1173 1265 1214
f 1270 1217 1215
f 1218 1239 1238
f 1176 1216 1240
f 1240 1216 1217
f 1176 1306 1243
f 1176 1240 1306
f 1204 1203 1180
f 1243 1244 1273
f 1245 1203 1204
f 1245 1204 1182
f 1206 1246 1182
f 1159 1205 1287
f 1207 1246 1206
f 1287 1247 1159
f 1246 1207 1248
f 1248 1207 1221
f 1186 1248 1221
f 1223 1184 1247
f 1248 1224 1222
f 1187 1184 1223
f 1224 1248 1186
f 1208 1226 1224
f 1225 1249 1224
f 1225 1224 1226
f 1228 1226 1189
f 1227 1210 1209
f 1228 1225 1226
f 1228 1189 1229
f 1211 1230 1229
f 1210 1278 1192
f 1211 1266 1230
f 1233 1232 1258
f 1231 1192 1262
f 1172 1232 1212
f 1212 1232 1233
f 1233 1258 1265
f 1269 1198 1268
f 1198 1269 1194
f 1269 1267 1194
f 1172 1234 1264
f 1170 1213 1299
f 1170 1299 1196
f 1196 1299 1268
f 1197 1268 1198
f 1214 1265 1237
f 1201 1238 1215
f 1215 1238 1270
f 1284 1270 1238
f 1284 1238 1302
f 1302 1238 1239
f 1217 1301 1240
f 1218 1241 1239
f 1178 1241 1218
f 1241 1178 1219
f 1271 1241 1219
f 1272 1219 1220
f 1242 1272 1220
f 1180 1242 1220
f 1203 1242 1180
f 1285 1203 1245
f 1182 1274 1245
f 1274 1182 1246
f 1224 1249 1222
f 1276 1249 1250
f 1209 1148 1223
f 1225 1250 1249
f 1250 1251 1277
f 1251 1250 1225
f 1290 1210 1227
f 1277 1251 1252
f 1228 1255 1225
f 1251 1225 1255
f 1252 1251 1255
f 1229 1255 1228
f 1290 1278 1210
f 1253 1252 1254
f 1253 1254 1293
f 1230 1255 1229
f 1254 1252 1257
f 1257 1252 1255
f 1293 1254 1259
f 1261 1256 1259
f 1254 1257 1263
f 1255 1230 1257
f 1258 1260 1256
f 1261 1258 1256
f 1259 1254 1263
f 1266 1257 1230
f 1261 1259 1263
f 1266 1263 1257
f 1232 1264 1260
f 1232 1260 1258
f 1261 1265 1258
f 1261 1263 1265
f 1295 1281 1280
f 1281 1234 1280
f 1281 1264 1234
f 1265 1263 1266
f 1297 1235 1231
f 1282 1236 1267
f 1236 1282 1195
f 1237 1265 1266
f 1235 1297 1213
f 1194 1267 1236
f 1270 1301 1217
f 1304 1219 1272
f 1272 1242 1305
f 1305 1242 1285
f 1203 1285 1242
f 1243 1306 1244
f 1286 1274 1246
f 1275 1286 1246
f 1222 1275 1248
f 1275 1246 1248
f 1310 1247 1287
f 1310 1223 1247
f 1249 1276 1222
f 1288 1223 1310
f 1223 1288 1209
f 1250 1313 1276
f 1252 1253 1277
f 1318 1293 1256
f 1256 1293 1259
f 1294 1318 1256
f 1260 1294 1256
f 1279 1260 1264
f 1283 1295 1280
f 1281 1279 1264
f 1282 1283 1195
f 1195 1283 1280
f 1269 1298 1267
f 1298 1282 1267
f 1269 1268 1300
f 1284 1301 1270
f 1241 1302 1239
f 1304 1271 1219
f 1324 1285 1245
f 1274 1286 1325
f 1309 1273 1244
f 1309 1205 1273
f 1309 1287 1205
f 1287 1309 1340
f 1340 1310 1287
f 1222 1311 1275
f 1276 1311 1222
f 1276 1313 1311
f 1209 1288 1227
f 1288 1289 1227
f 1250 1315 1313
f 1227 1289 1290
f 1277 1315 1250
f 1253 1315 1277
f 1290 1314 1292
f 1291 1315 1253
f 1292 1278 1290
f 1293 1291 1253
f 1317 1291 1293
f 1317 1293 1318
f 1278 1292 1346
f 1294 1319 1318
f 1278 1346 1262
f 1279 1294 1260
f 1295 1279 1281
f 1296 1231 1262
f 1282 1298 1283
f 1296 1297 1231
f 1268 1299 1300
f 1303 1284 1302
f 1301 1284 1303
f 1241 1320 1302
f 1271 1320 1241
f 1322 1306 1240
f 1301 1322 1240
f 1305 1304 1272
f 1307 1305 1285
f 1307 1285 1324
f 1306 1322 1336
f 1306 1336 1244
f 1324 1245 1274
f 1244 1336 1308
f 1324 1274 1325
f 1308 1309 1244
f 1286 1339 1325
f 1309 1308 1340
f 1275 1339 1286
f 1275 1311 1339
f 1326 1288 1310
f 1312 1311 1313
f 1326 1289 1288
f 1290 1289 1314
f 1313 1316 1312
f 1315 1316 1313
f 1291 1316 1315
f 1317 1316 1291
f 1349 1295 1283
f 1295 1349 1294
f 1295 1294 1279
f 1348 1269 1300
f 1348 1298 1269
f 1298 1350 1283
f 1350 1349 1283
f 1329 1213 1297
f 1213 1329 1299
f 1299 1329 1300
f 1303 1330 1301
f 1302 1331 1303
f 1320 1331 1302
f 1322 1301 1330
f 1321 1330 1303
f 1321 1303 1331
f 1304 1334 1271
f 1271 1334 1320
f 1305 1332 1304
f 1334 1304 1332
f 1332 1305 1307
f 1324 1323 1307
f 1337 1308 1336
f 1340 1308 1337
f 1311 1341 1339
f 1326 1310 1340
f 1340 1342 1326
f 1311 1312 1341
f 1289 1327 1314
f 1327 1358 1314
f 1312 1360 1372
f 1316 1360 1312
f 1314 1358 1292
f 1317 1343 1316
f 1344 1343 1317
f 1318 1344 1317
f 1292 1358 1373
f 1318 1345 1344
f 1292 1373 1346
f 1319 1345 1318
f 1294 1345 1319
f 1328 1345 1294
f 1346 1296 1262
f 1349 1328 1294
f 1348 1350 1298
f 1333 1322 1330
f 1332 1335 1334
f 1336 1322 1333
f 1331 1320 1334
f 1307 1323 1332
f 1332 1323 1364
f 1325 1323 1324
f 1325 1338 1323
f 1336 1353 1337
f 1339 1338 1325
f 1339 1341 1338
f 1337 1353 1354
f 1340 1337 1354
f 1340 1354 1342
f 1326 1342 1289
f 1357 1341 1312
f 1312 1372 1357
f 1316 1343 1360
f 1328 1347 1345
f 1349 1363 1328
f 1296 1361 1297
f 1297 1361 1329
f 1329 1362 1300
f 1348 1300 1362
f 1363 1349 1350
f 1321 1352 1330
f 1330 1352 1333
f 1331 1365 1321
f 1334 1365 1331
f 1332 1364 1335
f 1352 1321 1365
f 1366 1334 1335
f 1366 1335 1351
f 1351 1335 1364
f 1333 1353 1336
f 1366 1365 1334
f 1353 1333 1352
f 1369 1352 1365
f 1364 1323 1368
f 1368 1323 1338
f 1357 1338 1341
f 1356 1355 1354
f 1355 1342 1354
f 1355 1327 1342
f 1359 1355 1356
f 1327 1289 1342
f 1358 1355 1359
f 1327 1355 1358
f 1358 1359 1387
f 1358 1387 1373
f 1344 1374 1343
f 1347 1374 1344
f 1345 1347 1344
f 1296 1346 1361
f 1328 1376 1347
f 1361 1362 1329
f 1363 1376 1328
f 1350 1348 1363
f 1378 1366 1351
f 1367 1365 1366
f 1368 1351 1364
f 1352 1369 1353
f 1367 1369 1365
f 1367 1366 1377
f 1356 1354 1353
f 1356 1353 1369
f 1357 1370 1338
f 1338 1370 1368
f 1380 1369 1367
f 1357 1385 1370
f 1371 1359 1356
f 1359 1371 1384
f 1359 1384 1387
f 1347 1375 1374
f 1361 1346 1373
f 1376 1375 1347
f 1389 1375 1376
f 1363 1389 1376
f 1362 1390 1348
f 1363 1390 1389
f 1348 1390 1363
f 1368 1378 1351
f 1366 1378 1377
f 1379 1378 1368
f 1381 1377 1378
f 1391 1378 1379
f 1369 1380 1356
f 1381 1367 1377
f 1381 1378 1391
f 1370 1379 1368
f 1380 1367 1382
f 1382 1367 1381
f 1392 1381 1391
f 1383 1379 1370
f 1371 1356 1380
f 1371 1380 1396
f 1385 1383 1370
f 1384 1371 1396
f 1385 1386 1383
f 1386 1385 1372
f 1357 1372 1385
f 1400 1386 1372
f 1360 1400 1372
f 1395 1387 1384
f 1388 1400 1360
f 1343 1388 1360
f 1399 1387 1395
f 1374 1388 1343
f 1399 1373 1387
f 1375 1388 1374
f 1375 1400 1388
f 1402 1400 1375
f 1403 1402 1375
f 1405 1403 1389
f 1389 1403 1375
f 1390 1405 1389
f 1390 1362 1361
f 1381 1392 1382
f 1379 1392 1391
f 1379 1383 1392
f 1382 1394 1380
f 1397 1382 1392
f 1394 1382 1397
f 1393 1392 1383
f 1380 1394 1396
f 1397 1392 1393
f 1386 1393 1383
f 1396 1394 1397
f 1384 1396 1395
f 1406 1397 1393
f 1398 1406 1393
f 1398 1393 1386
f 1400 1398 1386
f 1402 1398 1400
f 1401 1398 1402
f 1403 1401 1402
f 1399 1404 1373
f 1404 1361 1373
f 1403 1405 1404
f 1361 1404 1405
f 1361 1405 1390
f 1395 1396 1406
f 1397 1406 1396
f 1401 1395 1406
f 1401 1406 1398
f 1401 1399 1395
f 1404 1399 1401
f 1403 1404 1401
# 2808 faces, 0 coords texture

# End of File
