####
#
# OBJ File Generated by Meshlab
#
####
# Object PBR5.obj
#
# Vertices: 1286
# Faces: 2568
#
####
v 20869.654297 13922.712891 12893.296875
v 21066.746094 13912.824219 12907.545898
v 21045.679688 14051.264648 12875.866211
v 20804.021484 14011.422852 12882.266602
v 20995.804688 14015.994141 12877.098633
v 20713.220703 14096.396484 12894.580078
v 20815.242188 14134.436523 12882.582031
v 20955.750000 14114.280273 12877.908203
v 20920.066406 14190.703125 12884.006836
v 20833.347656 13794.948242 12924.508789
v 20972.328125 13801.438477 12933.657227
v 20930.830078 13884.483398 12901.570312
v 20631.052734 13852.497070 12928.165039
v 20771.339844 13867.491211 12909.905273
v 21155.914062 13965.306641 12910.070312
v 20648.746094 13960.696289 12913.579102
v 20621.777344 14059.682617 12916.201172
v 21142.835938 14028.247070 12897.772461
v 21239.878906 14028.977539 12913.151367
v 20668.619141 14156.345703 12911.805664
v 21073.453125 14101.665039 12882.776367
v 21200.314453 14124.058594 12907.725586
v 21088.406250 14237.771484 12905.625000
v 20720.769531 14205.761719 12908.526367
v 20792.253906 14241.548828 12906.466797
v 21019.138672 14265.930664 12907.105469
v 20804.857422 14310.280273 12923.803711
v 20700.722656 13737.795898 12946.430664
v 20574.775391 13735.395508 12962.370117
v 21004.156250 13718.454102 12971.984375
v 20678.371094 13814.460938 12928.187500
v 21124.783203 13813.203125 12954.511719
v 21168.695312 13904.888672 12928.684570
v 21283.251953 13917.887695 12947.206055
v 20517.650391 13943.070312 12941.783203
v 20534.000000 14040.791016 12935.386719
v 20618.425781 14308.100586 12951.973633
v 21200.291016 14220.420898 12917.746094
v 21192.669922 14329.525391 12938.787109
v 20711.166016 14310.409180 12935.091797
v 20959.976562 14339.453125 12929.623047
v 21078.451172 14349.186523 12936.832031
v 20869.843750 14376.612305 12944.644531
v 20983.976562 14441.653320 12967.680664
v 20702.121094 13672.824219 12970.978516
v 20784.898438 13698.587891 12957.570312
v 20866.138672 13660.138672 12973.667969
v 20482.619141 13764.700195 12971.179688
v 21166.191406 13701.979492 13018.402344
v 20384.039062 13902.278320 12980.573242
v 21256.224609 13783.679688 12999.179688
v 21362.607422 13905.828125 12979.861328
v 21348.640625 13974.317383 12951.416016
v 20452.257812 13998.433594 12957.458008
v 21280.980469 14016.923828 12925.470703
v 21410.832031 14171.181641 12949.573242
v 21416.871094 14116.412109 12953.166016
v 20546.746094 14149.412109 12940.133789
v 21288.521484 14256.871094 12934.981445
v 20773.150391 14413.405273 12964.742188
v 21116.513672 14462.239258 12977.989258
v 20861.568359 14476.590820 12986.206055
v 20579.779297 13655.042969 12989.942383
v 20700.328125 13592.490234 13004.940430
v 20834.892578 13581.684570 13010.993164
v 20938.691406 13615.801758 13004.149414
v 21337.476562 13791.752930 13023.555664
v 20413.400391 13808.116211 12984.842773
v 21493.468750 14016.083984 12995.429688
v 20436.884766 14074.914062 12967.301758
v 20465.957031 14207.179688 12972.812500
v 21388.587891 14220.540039 12946.899414
v 20547.455078 14267.797852 12958.542969
v 21464.755859 14335.919922 12978.314453
v 20596.412109 14387.760742 12982.776367
v 20654.826172 14457.574219 13004.881836
v 21390.777344 14476.232422 13002.474609
v 20758.853516 14517.451172 13019.104492
v 20926.539062 14532.308594 13005.008789
v 21110.962891 14543.115234 13011.358398
v 20679.628906 13532.466797 13036.816406
v 20516.933594 13675.243164 12988.911133
v 21027.648438 13624.069336 13023.499023
v 20369.125000 13651.098633 13028.556641
v 21413.636719 13758.042969 13075.413086
v 21444.423828 13854.875000 13037.894531
v 21507.699219 13944.072266 13027.722656
v 20379.822266 14177.379883 12999.997070
v 21504.552734 14082.170898 12986.083008
v 21576.728516 14218.282227 12996.979492
v 21519.255859 14296.255859 12982.859375
v 20403.275391 14303.625977 13016.164062
v 20456.507812 14380.530273 13020.622070
v 20469.205078 14437.946289 13040.467773
v 21387.755859 14366.076172 12972.782227
v 21207.599609 14454.771484 12979.203125
v 20565.160156 14496.169922 13042.428711
v 20863.701172 14558.804688 13026.145508
v 20920.683594 14631.789062 13060.682617
v 21006.496094 14745.114258 13114.796875
v 20509.154297 13529.819336 13054.094727
v 20548.513672 13424.557617 13102.814453
v 20686.476562 13466.646484 13073.734375
v 20925.833984 13540.009766 13050.596680
v 21078.314453 13535.986328 13089.625977
v 21199.914062 13597.320312 13085.419922
v 21285.644531 13668.654297 13074.018555
v 21320.195312 13620.920898 13115.398438
v 20336.814453 13868.819336 12999.927734
v 21609.556641 14032.567383 13043.762695
v 21648.751953 14126.418945 13038.662109
v 21670.214844 14036.950195 13075.836914
v 21696.388672 14177.468750 13052.987305
v 21765.050781 14264.461914 13070.543945
v 21657.585938 14277.033203 13028.678711
v 20352.519531 14335.879883 13050.456055
v 21636.652344 14376.020508 13025.083984
v 21781.271484 14321.145508 13076.877930
v 21562.103516 14435.232422 13014.355469
v 21749.802734 14351.199219 13062.985352
v 21557.939453 14514.958008 13030.876953
v 21319.199219 14608.710938 13044.850586
v 20875.931641 14705.733398 13107.583984
v 21060.863281 14628.422852 13052.019531
v 20778.367188 14615.870117 13072.238281
v 21108.849609 14732.205078 13105.975586
v 20495.947266 13460.037109 13091.558594
v 20831.419922 13477.748047 13074.971680
v 20945.384766 13468.220703 13103.564453
v 20381.841797 13600.445312 13045.049805
v 20345.947266 13702.538086 13023.192383
v 20239.255859 13709.375000 13062.316406
v 21514.886719 13712.619141 13149.550781
v 21520.253906 13802.816406 13099.920898
v 20258.228516 13848.519531 13035.307617
v 21617.716797 13901.170898 13100.500000
v 20252.220703 13934.647461 13033.200195
v 20308.375000 13978.121094 13009.287109
v 21736.306641 14018.388672 13113.663086
v 20311.644531 14071.103516 13013.995117
v 21764.525391 14134.468750 13095.278320
v 20217.003906 14053.215820 13055.686523
v 21793.183594 14190.252930 13100.680664
v 20213.982422 14155.541992 13070.850586
v 20283.599609 14162.840820 13038.166016
v 20186.929688 14233.758789 13100.656250
v 21802.494141 14323.666992 13100.731445
v 21788.466797 14472.900391 13095.153320
v 21691.222656 14488.113281 13053.860352
v 20467.152344 14504.205078 13080.820312
v 21456.066406 14586.260742 13042.947266
v 21572.183594 14572.256836 13049.922852
v 21689.328125 14525.590820 13061.338867
v 20629.552734 14638.440430 13120.158203
v 21650.892578 14600.771484 13074.309570
v 21312.666016 14692.378906 13084.327148
v 20604.271484 13383.164062 13125.131836
v 20436.849609 13381.914062 13144.101562
v 20837.699219 13390.292969 13139.940430
v 20368.789062 13484.298828 13102.473633
v 20743.697266 13409.975586 13112.705078
v 21080.294922 13452.578125 13147.170898
v 20170.533203 13612.932617 13106.573242
v 20258.152344 13619.916992 13076.161133
v 21221.251953 13526.371094 13135.999023
v 20132.013672 13727.852539 13099.851562
v 20134.242188 13851.188477 13087.993164
v 21630.705078 13783.816406 13162.370117
v 20079.390625 13951.843750 13111.091797
v 21772.800781 13995.454102 13148.846680
v 21783.767578 14049.610352 13142.591797
v 20108.292969 14044.656250 13102.633789
v 21804.839844 14193.837891 13135.001953
v 20061.224609 14164.416992 13144.690430
v 21808.714844 14308.884766 13128.468750
v 20134.533203 14299.740234 13144.630859
v 20235.996094 14343.836914 13112.026367
v 20218.496094 14446.392578 13166.337891
v 20349.296875 14405.680664 13081.436523
v 21808.699219 14458.596680 13125.583008
v 21784.251953 14516.245117 13098.849609
v 20481.421875 14576.794922 13125.630859
v 21746.228516 14656.237305 13124.151367
v 21488.339844 14699.716797 13094.602539
v 21622.873047 14698.061523 13110.090820
v 21781.984375 14639.142578 13138.308594
v 21251.468750 14766.784180 13125.707031
v 21106.511719 14797.392578 13145.572266
v 20496.525391 13324.158203 13169.958008
v 20669.736328 13324.872070 13167.838867
v 20887.093750 13374.887695 13162.817383
v 21036.445312 13379.935547 13192.909180
v 20243.376953 13530.209961 13111.498047
v 20062.130859 13591.236328 13143.023438
v 20036.275391 13727.872070 13137.736328
v 21712.119141 13883.792969 13156.610352
v 19950.746094 14032.542969 13180.180664
v 19948.367188 14117.921875 13193.997070
v 19964.552734 14248.779297 13216.275391
v 20072.912109 14236.971680 13156.417969
v 21809.404297 14446.971680 13160.098633
v 20273.240234 14511.670898 13176.963867
v 21816.238281 14546.695312 13147.675781
v 20360.324219 14492.048828 13122.848633
v 21402.558594 14780.209961 13134.531250
v 21629.439453 14773.745117 13149.773438
v 21769.279297 14769.617188 13191.146484
v 20730.730469 14717.433594 13143.072266
v 20947.580078 14772.293945 13134.930664
v 21505.521484 14768.499023 13127.650391
v 21709.025391 14802.676758 13185.729492
v 20342.425781 13338.345703 13186.910156
v 20305.746094 13378.755859 13168.755859
v 20232.300781 13452.632812 13146.366211
v 21108.964844 13365.757812 13226.403320
v 20080.097656 13493.836914 13162.951172
v 19997.580078 13560.563477 13169.860352
v 21440.378906 13602.225586 13186.335938
v 19991.857422 13647.147461 13161.317383
v 21568.417969 13658.557617 13218.111328
v 19987.753906 13813.429688 13154.738281
v 19921.531250 13852.810547 13186.617188
v 19845.076172 13928.984375 13231.765625
v 21780.576172 14058.057617 13185.862305
v 21804.589844 14261.718750 13160.306641
v 21768.871094 14213.995117 13223.953125
v 19926.744141 14290.158203 13253.682617
v 21787.283203 14225.874023 13196.252930
v 20059.294922 14368.393555 13206.608398
v 20116.146484 14466.561523 13226.183594
v 21797.382812 14411.658203 13196.109375
v 21810.162109 14573.203125 13174.242188
v 20408.439453 14592.087891 13163.174805
v 20581.726562 14710.563477 13185.012695
v 20726.908203 14815.097656 13213.850586
v 21795.695312 14689.606445 13183.304688
v 20869.587891 14790.471680 13160.271484
v 20946.191406 14856.396484 13202.681641
v 21082.613281 14837.513672 13176.183594
v 21281.152344 14835.073242 13170.027344
v 21533.820312 14805.938477 13152.836914
v 21677.603516 14879.645508 13232.628906
v 21335.011719 14875.052734 13199.176758
v 20784.283203 13310.601562 13201.000000
v 20121.783203 13358.706055 13221.565430
v 20087.312500 13418.052734 13195.562500
v 19983.650391 13437.779297 13213.522461
v 21212.726562 13451.050781 13192.850586
v 19928.056641 13487.172852 13220.755859
v 19889.265625 13690.662109 13204.994141
v 21645.605469 13731.988281 13215.658203
v 19823.550781 13851.342773 13241.992188
v 21721.214844 13850.268555 13196.931641
v 21752.451172 13938.046875 13191.170898
v 21796.859375 14542.284180 13206.312500
v 21787.972656 14680.906250 13238.899414
v 21779.046875 14788.968750 13222.103516
v 20820.876953 14854.390625 13224.287109
v 20861.740234 14897.655273 13261.283203
v 21133.927734 14881.055664 13215.430664
v 21466.126953 14881.823242 13209.630859
v 21726.636719 14858.807617 13232.259766
v 20324.558594 13293.525391 13221.546875
v 20436.181641 13304.102539 13198.698242
v 20484.146484 13257.966797 13238.858398
v 20576.201172 13233.699219 13260.608398
v 20599.574219 13281.338867 13207.235352
v 20726.871094 13246.418945 13262.277344
v 20114.150391 13303.928711 13264.930664
v 20933.935547 13328.932617 13216.223633
v 21015.904297 13312.300781 13260.101562
v 21320.527344 13451.244141 13255.341797
v 19830.898438 13533.790039 13256.797852
v 21405.257812 13526.926758 13231.103516
v 19819.947266 13715.416992 13243.729492
v 21721.156250 13831.407227 13221.240234
v 21693.078125 14014.659180 13300.863281
v 21751.365234 14396.536133 13261.175781
v 21777.097656 14442.763672 13233.626953
v 21765.849609 14578.094727 13259.313477
v 20371.150391 14594.944336 13180.933594
v 21794.623047 14737.611328 13219.637695
v 20513.402344 14741.644531 13234.960938
v 21254.001953 14924.534180 13254.390625
v 20873.507812 13267.683594 13267.999023
v 20008.357422 13348.854492 13252.468750
v 20147.505859 13253.939453 13305.851562
v 20233.632812 13308.329102 13233.260742
v 19924.308594 13381.373047 13273.728516
v 19854.371094 13459.222656 13292.139648
v 19792.441406 13566.555664 13278.351562
v 21643.410156 13691.568359 13266.926758
v 21697.951172 13772.103516 13241.567383
v 21741.757812 13971.116211 13231.344727
v 19825.789062 14011.173828 13256.467773
v 21725.019531 14177.606445 13274.375977
v 19862.818359 14176.814453 13263.610352
v 21708.136719 14358.430664 13304.769531
v 19951.318359 14363.139648 13274.228516
v 20026.021484 14434.095703 13262.337891
v 20328.671875 14668.501953 13265.953125
v 21753.095703 14836.556641 13254.446289
v 20969.009766 14937.806641 13292.838867
v 20059.402344 13287.309570 13314.106445
v 20722.011719 13190.047852 13340.223633
v 19994.013672 13340.363281 13342.208008
v 21120.242188 13315.614258 13302.795898
v 21188.841797 13381.872070 13249.373047
v 21375.763672 13449.696289 13307.231445
v 21496.917969 13559.656250 13272.419922
v 19749.025391 13634.500000 13308.687500
v 19764.878906 13755.566406 13289.099609
v 20042.777344 14529.131836 13323.485352
v 20114.568359 14597.679688 13328.658203
v 20277.638672 14596.666992 13233.939453
v 20702.072266 14842.686523 13246.582031
v 21106.658203 14941.967773 13286.542969
v 21392.033203 14932.413086 13251.562500
v 21408.533203 14935.097656 13253.709961
v 21506.593750 14959.064453 13302.059570
v 21581.339844 14949.649414 13304.238281
v 21677.376953 14914.971680 13286.125000
v 20167.984375 13213.699219 13360.267578
v 20262.019531 13183.194336 13361.057617
v 20352.818359 13214.225586 13298.908203
v 20062.445312 13287.462891 13397.309570
v 20621.148438 13185.118164 13330.184570
v 20839.527344 13190.591797 13367.592773
v 20922.632812 13236.220703 13327.583984
v 21240.613281 13350.763672 13340.441406
v 21523.119141 13562.991211 13307.937500
v 19795.912109 13543.935547 13305.549805
v 21672.884766 13808.915039 13309.975586
v 19748.888672 13844.514648 13316.876953
v 21633.640625 13932.975586 13371.068359
v 19790.775391 13933.610352 13277.598633
v 21679.970703 14787.995117 13376.154297
v 20772.580078 14925.038086 13314.231445
v 21078.013672 15003.453125 13367.332031
v 21495.140625 15005.940430 13386.089844
v 21627.285156 14949.917969 13324.392578
v 20424.320312 13163.294922 13359.906250
v 20109.888672 13243.068359 13383.964844
v 20746.615234 13141.218750 13420.589844
v 21045.767578 13241.854492 13386.830078
v 19935.367188 13413.554688 13360.705078
v 19889.167969 13487.195312 13381.795898
v 21634.968750 13694.183594 13329.729492
v 19733.603516 13759.903320 13335.147461
v 21614.060547 14146.155273 13394.967773
v 21610.345703 14341.063477 13403.367188
v 20144.390625 14662.646484 13371.462891
v 20199.781250 14670.477539 13340.403320
v 21697.845703 14701.117188 13350.659180
v 20421.892578 14749.757812 13290.305664
v 20572.833984 14824.645508 13285.756836
v 21729.240234 14811.982422 13306.134766
v 21702.685547 14884.985352 13316.542969
v 21026.150391 15028.731445 13409.902344
v 21319.347656 15047.679688 13421.970703
v 21270.666016 14984.586914 13330.263672
v 20255.703125 13138.090820 13452.822266
v 20297.578125 13148.517578 13401.810547
v 20163.095703 13204.144531 13396.589844
v 20463.031250 13132.394531 13404.423828
v 20110.593750 13257.037109 13479.943359
v 20020.958984 13350.574219 13434.490234
v 21467.281250 13480.530273 13405.946289
v 19863.136719 13560.368164 13418.550781
v 19844.578125 13658.753906 13477.908203
v 21531.533203 13556.925781 13383.076172
v 19776.570312 13612.268555 13345.052734
v 19723.623047 13913.608398 13382.125000
v 19748.156250 14026.062500 13342.798828
v 19777.289062 14106.789062 13316.889648
v 19767.820312 14214.921875 13365.244141
v 19844.933594 14270.074219 13311.723633
v 19864.226562 14356.181641 13336.833008
v 20197.833984 14738.757812 13416.471680
v 20380.750000 14793.776367 13362.628906
v 20644.890625 14884.065430 13317.307617
v 20611.736328 14957.538086 13442.982422
v 21653.412109 14927.179688 13359.832031
v 20886.730469 14978.487305 13355.112305
v 20322.617188 13065.344727 13553.895508
v 20549.867188 13117.443359 13434.536133
v 20931.433594 13191.664062 13407.165039
v 21267.208984 13342.986328 13388.069336
v 19948.441406 13457.426758 13444.067383
v 21422.242188 13452.784180 13373.262695
v 21554.427734 13592.283203 13399.498047
v 21593.917969 13685.759766 13400.526367
v 21618.628906 13771.464844 13383.301758
v 19787.343750 13689.635742 13416.640625
v 19775.144531 13799.712891 13479.547852
v 19746.794922 13750.199219 13387.768555
v 19730.121094 13815.082031 13383.660156
v 21591.445312 13868.238281 13432.217773
v 21578.498047 14069.554688 13439.367188
v 19712.183594 14078.145508 13410.591797
v 19751.572266 14295.626953 13414.583008
v 19844.087891 14410.249023 13394.916992
v 19904.896484 14478.724609 13392.886719
v 21650.787109 14520.598633 13382.395508
v 19988.074219 14620.111328 13452.692383
v 21674.712891 14640.321289 13372.132812
v 20117.357422 14746.029297 13503.068359
v 20435.660156 14843.625000 13388.461914
v 20697.058594 14948.222656 13384.339844
v 21653.812500 14880.040039 13399.761719
v 20777.113281 14984.837891 13404.241211
v 21545.382812 14999.708984 13405.146484
v 21571.234375 14988.673828 13432.258789
v 20875.789062 15026.462891 13436.489258
v 21401.457031 15049.071289 13436.429688
v 20961.285156 15067.772461 13482.590820
v 21096.406250 15055.712891 13444.566406
v 21162.345703 15084.508789 13491.802734
v 21322.416016 15063.892578 13448.344727
v 20331.306641 13104.991211 13465.111328
v 20262.312500 13109.091797 13540.471680
v 20825.136719 13105.392578 13539.365234
v 20203.935547 13166.458008 13481.381836
v 20167.091797 13200.953125 13524.315430
v 21165.470703 13281.914062 13406.437500
v 20096.271484 13302.473633 13551.922852
v 21562.052734 13805.244141 13488.457031
v 19722.291016 13936.741211 13474.798828
v 21554.105469 13916.017578 13491.847656
v 19704.289062 14001.435547 13455.273438
v 19703.388672 14041.992188 13433.705078
v 21537.662109 14037.562500 13499.383789
v 19679.167969 14175.046875 13463.412109
v 19718.208984 14185.349609 13413.970703
v 21531.105469 14181.083984 13496.140625
v 21568.060547 14386.306641 13459.803711
v 19723.205078 14394.518555 13492.603516
v 19761.447266 14345.669922 13429.919922
v 21544.425781 14478.697266 13518.158203
v 19811.544922 14511.380859 13503.207031
v 21576.080078 14498.743164 13471.026367
v 21630.810547 14816.888672 13454.444336
v 20642.865234 15019.556641 13528.484375
v 21596.904297 14959.626953 13445.156250
v 21473.234375 15064.983398 13548.912109
v 20391.396484 13055.650391 13546.163086
v 20615.841797 13092.587891 13489.799805
v 20983.119141 13173.284180 13482.294922
v 21327.986328 13361.261719 13439.549805
v 20023.121094 13400.301758 13523.925781
v 21564.179688 13625.630859 13429.552734
v 21579.310547 13748.097656 13448.926758
v 19747.970703 13936.220703 13541.278320
v 19664.138672 14145.525391 13497.901367
v 19634.603516 14255.561523 13520.008789
v 19766.468750 14455.750977 13497.506836
v 19897.074219 14542.813477 13451.088867
v 21587.720703 14627.542969 13490.434570
v 21638.154297 14745.427734 13435.005859
v 20254.148438 14827.249023 13494.892578
v 20293.912109 14831.875000 13467.349609
v 20499.431641 14911.269531 13443.125000
v 20807.390625 15080.298828 13556.531250
v 21067.435547 15108.048828 13545.625000
v 21198.777344 15114.851562 13550.357422
v 20496.333984 13081.756836 13496.927734
v 21006.332031 13159.962891 13546.143555
v 20191.345703 13184.152344 13672.763672
v 21385.777344 13388.052734 13502.353516
v 21434.140625 13424.426758 13542.523438
v 21487.947266 13499.768555 13456.206055
v 21480.402344 13477.444336 13563.934570
v 19930.275391 13552.337891 13519.402344
v 21538.984375 13610.655273 13504.741211
v 21547.402344 13670.296875 13517.652344
v 21543.845703 13768.479492 13537.314453
v 19692.750000 14059.578125 13511.836914
v 19716.244141 14026.831055 13558.303711
v 19656.619141 14163.251953 13564.613281
v 19625.265625 14229.246094 13566.250977
v 21498.898438 14065.442383 13557.404297
v 21498.382812 14273.087891 13553.895508
v 21526.166016 14538.561523 13574.206055
v 19913.105469 14607.760742 13510.956055
v 19987.531250 14668.310547 13515.621094
v 21590.849609 14738.132812 13523.685547
v 21601.990234 14870.387695 13520.648438
v 21602.597656 14930.971680 13489.752930
v 21357.517578 15101.161133 13543.160156
v 21315.044922 15103.026367 13532.944336
v 21117.865234 15166.105469 13665.595703
v 20595.138672 13070.742188 13536.621094
v 20703.867188 13083.867188 13533.190430
v 20160.351562 13219.801758 13604.856445
v 21157.253906 13235.158203 13522.316406
v 19986.332031 13486.827148 13558.135742
v 21517.000000 13548.447266 13501.918945
v 21531.828125 13621.892578 13576.065430
v 21521.941406 13809.123047 13595.716797
v 21515.302734 13894.438477 13576.544922
v 19802.583984 13903.451172 13618.821289
v 19624.722656 14336.791992 13559.640625
v 19674.701172 14435.483398 13574.846680
v 19688.898438 14521.374023 13642.249023
v 19874.175781 14638.480469 13593.943359
v 19932.859375 14691.747070 13613.193359
v 20133.951172 14781.881836 13547.079102
v 21566.308594 14689.451172 13564.839844
v 20116.554688 14813.942383 13632.918945
v 20464.027344 14949.407227 13531.866211
v 21552.570312 15002.185547 13548.851562
v 20617.333984 15046.485352 13607.394531
v 21091.203125 15151.730469 13634.566406
v 20450.664062 13034.780273 13591.781250
v 20602.845703 13048.898438 13599.399414
v 20224.082031 13137.619141 13585.154297
v 20074.654297 13361.625977 13604.105469
v 20026.792969 13454.242188 13611.710938
v 19883.957031 13711.592773 13589.997070
v 21529.232422 13715.310547 13604.678711
v 21511.974609 14482.365234 13586.483398
v 21552.968750 14727.994141 13647.734375
v 20301.826172 14893.534180 13581.057617
v 21573.285156 14963.918945 13560.051758
v 20939.052734 15135.623047 13631.691406
v 20422.628906 12992.804688 13703.932617
v 20809.566406 13071.093750 13653.201172
v 20933.083984 13102.074219 13677.038086
v 19956.082031 13635.364258 13659.050781
v 21487.390625 13960.679688 13650.586914
v 19746.363281 14029.508789 13636.271484
v 19642.892578 14233.911133 13657.844727
v 21467.205078 14272.857422 13718.529297
v 19613.228516 14394.921875 13622.647461
v 21474.847656 14230.573242 13603.656250
v 19776.171875 14567.219727 13602.106445
v 20086.714844 14843.541992 13741.690430
v 21581.638672 14855.468750 13601.007812
v 20767.591797 15098.199219 13622.438477
v 21431.015625 15075.527344 13522.957031
v 21521.052734 15037.431641 13558.541016
v 20997.537109 15160.264648 13683.347656
v 20412.039062 12985.988281 13744.331055
v 20329.990234 13024.283203 13647.067383
v 20739.714844 13052.206055 13666.748047
v 21069.230469 13173.267578 13602.732422
v 21245.886719 13265.573242 13575.662109
v 21456.677734 13413.051758 13721.104492
v 21499.507812 13504.035156 13613.405273
v 21508.630859 13821.120117 13659.048828
v 19693.623047 14120.243164 13625.630859
v 19599.240234 14370.719727 13658.553711
v 21487.373047 14424.496094 13680.491211
v 21582.273438 14920.628906 13580.555664
v 20435.792969 14975.535156 13619.726562
v 20279.582031 13060.043945 13649.629883
v 21167.291016 13214.230469 13626.338867
v 20162.626953 13254.175781 13741.383789
v 21344.525391 13309.211914 13705.458008
v 21504.562500 13475.609375 13779.105469
v 21512.810547 13536.063477 13659.690430
v 19874.712891 13882.365234 13738.627930
v 21473.976562 14080.134766 13626.433594
v 19597.529297 14438.384766 13677.577148
v 19722.902344 14590.493164 13690.300781
v 21390.449219 15121.717773 13639.649414
v 20861.398438 15145.127930 13702.456055
v 21223.847656 15163.048828 13674.650391
v 20593.589844 13022.182617 13687.788086
v 20227.371094 13122.562500 13751.682617
v 20884.142578 13071.002930 13761.639648
v 21023.804688 13129.040039 13727.258789
v 20115.527344 13313.820312 13660.851562
v 21412.263672 13363.063477 13726.840820
v 20053.716797 13459.724609 13694.827148
v 21527.630859 13608.971680 13677.345703
v 21517.916016 13715.564453 13729.763672
v 21463.007812 14133.854492 13732.795898
v 21467.050781 14331.064453 13754.910156
v 19590.355469 14394.919922 13732.824219
v 21563.162109 14952.435547 13758.277344
v 20620.607422 15071.448242 13676.698242
v 20729.191406 15112.234375 13698.605469
v 21312.447266 15156.561523 13688.321289
v 21228.550781 13238.150391 13672.179688
v 21276.753906 13245.408203 13812.094727
v 21449.660156 14232.550781 13824.295898
v 19609.353516 14328.511719 13689.787109
v 21545.519531 15013.505859 13692.094727
v 20491.408203 15040.150391 13728.043945
v 20613.724609 15093.343750 13759.742188
v 20954.373047 15172.631836 13752.276367
v 21057.394531 15188.582031 13753.626953
v 20554.316406 13004.256836 13744.877930
v 20008.906250 13553.671875 13691.833984
v 21503.945312 13799.592773 13737.296875
v 21470.263672 13934.120117 13848.113281
v 21445.707031 14112.201172 13845.807617
v 19584.650391 14438.980469 13823.971680
v 21502.013672 14539.806641 13715.925781
v 19647.945312 14569.051758 13784.865234
v 19900.724609 14722.494141 13709.469727
v 21529.667969 14658.135742 13694.941406
v 21530.615234 14772.342773 13831.998047
v 20698.953125 15137.000977 13834.310547
v 21142.583984 15200.287109 13786.427734
v 21477.441406 13432.669922 13759.736328
v 20072.802734 13460.828125 13754.277344
v 21514.781250 13468.445312 13847.558594
v 21527.675781 13620.479492 13797.464844
v 19988.824219 13727.109375 13835.362305
v 19945.066406 13829.422852 13837.990234
v 21465.693359 14015.081055 13783.625977
v 19585.511719 14493.541016 13789.533203
v 19618.835938 14500.455078 13705.577148
v 21518.437500 15052.306641 13709.941406
v 21485.423828 15085.732422 13719.464844
v 21441.904297 15116.183594 13719.884766
v 21367.148438 15166.028320 13824.503906
v 21270.306641 15192.079102 13803.592773
v 20307.562500 13021.884766 13781.204102
v 20662.593750 13022.941406 13771.219727
v 20201.261719 13174.650391 13763.371094
v 20806.832031 13045.644531 13756.971680
v 21070.130859 13139.878906 13806.770508
v 21211.744141 13210.792969 13778.767578
v 20146.769531 13311.269531 13791.419922
v 20111.466797 13428.196289 13837.462891
v 20050.222656 13625.366211 13885.222656
v 20053.572266 13744.683594 14025.984375
v 19776.173828 14132.337891 13823.589844
v 19705.070312 14186.080078 13742.482422
v 19642.302734 14334.240234 13804.246094
v 21430.431641 14336.801758 13963.976562
v 21473.521484 14428.771484 13788.063477
v 21560.730469 14870.893555 13750.486328
v 21534.830078 14971.171875 13846.777344
v 20535.136719 15107.585938 13889.805664
v 20382.306641 12995.014648 13843.796875
v 20263.568359 13064.714844 13820.940430
v 20728.234375 13033.335938 13825.045898
v 21528.736328 13562.156250 13805.221680
v 19614.568359 14441.352539 13897.887695
v 19596.988281 14541.071289 13861.014648
v 19586.458984 14485.865234 13866.760742
v 19700.220703 14631.128906 13832.724609
v 21490.458984 14669.061523 13963.003906
v 19978.039062 14831.980469 13868.935547
v 21536.542969 14884.710938 13862.236328
v 21509.753906 15047.802734 13826.230469
v 21459.605469 15112.125977 13795.330078
v 20764.318359 13043.620117 13882.541992
v 20909.716797 13091.271484 13921.611328
v 20953.576172 13090.166992 13823.724609
v 21332.470703 13280.105469 13811.039062
v 20152.910156 13406.816406 13955.557617
v 21527.750000 13514.736328 13845.574219
v 21535.816406 13620.407227 13930.850586
v 21519.570312 13695.539062 13848.988281
v 21497.597656 13796.727539 13899.970703
v 19699.875000 14299.223633 13877.455078
v 19661.316406 14383.550781 13909.375977
v 19779.736328 14700.927734 13867.211914
v 19777.632812 14676.378906 13797.843750
v 20105.628906 14951.748047 13980.857422
v 20434.115234 15047.162109 13803.509766
v 21507.148438 15023.653320 13902.882812
v 20727.447266 15162.226562 13930.021484
v 21452.097656 15120.078125 13885.042969
v 20881.000000 15187.579102 13886.157227
v 21274.251953 15198.179688 13908.291992
v 21363.199219 15173.544922 13898.583984
v 21048.923828 15212.993164 13981.005859
v 21111.656250 15207.536133 13906.051758
v 21204.087891 15204.095703 13831.163086
v 20319.605469 13025.636719 13896.693359
v 20471.017578 12993.160156 13877.004883
v 20555.322266 12997.973633 13839.694336
v 20252.962891 13102.608398 13930.966797
v 21067.222656 13142.972656 13874.794922
v 20168.220703 13322.240234 13902.014648
v 21180.976562 13205.256836 13963.573242
v 21216.330078 13213.705078 13898.604492
v 21430.093750 13349.973633 13863.294922
v 21481.560547 13409.458984 13897.921875
v 21534.716797 13503.016602 13957.598633
v 21439.207031 14433.346680 14005.734375
v 19918.246094 14820.591797 13944.078125
v 21529.068359 14925.640625 13891.941406
v 20317.554688 15051.223633 13964.549805
v 20362.900391 15006.144531 13780.916992
v 21466.832031 15077.244141 13997.324219
v 20603.351562 15152.784180 14020.391602
v 20969.164062 15205.438477 13950.596680
v 20618.898438 13026.561523 13944.802734
v 21345.861328 13288.465820 13934.748047
v 21508.664062 13450.061523 13960.773438
v 20111.039062 13637.311523 14074.764648
v 21521.960938 13691.663086 13957.857422
v 19777.548828 14246.260742 13965.962891
v 19682.892578 14633.825195 13917.757812
v 20472.744141 15080.008789 13860.231445
v 20573.822266 15133.347656 13952.579102
v 20789.486328 15180.922852 13981.940430
v 21452.498047 15109.595703 13950.546875
v 21231.152344 15205.316406 13974.627930
v 21374.183594 15172.604492 14013.204102
v 21422.507812 15141.143555 13941.590820
v 20802.544922 13061.962891 13928.900391
v 20696.509766 13037.125000 13928.029297
v 20225.687500 13186.584961 13943.500977
v 21470.537109 13404.184570 14020.018555
v 20006.468750 13890.419922 14057.586914
v 19854.464844 14019.654297 13848.297852
v 21412.210938 14167.952148 13995.629883
v 19700.544922 14440.050781 14035.053711
v 19722.345703 14370.034180 14002.099609
v 21419.753906 14238.847656 13962.686523
v 21511.740234 14784.414062 13942.161133
v 21514.806641 14875.383789 13966.102539
v 20204.509766 14990.682617 13944.082031
v 20981.271484 15208.622070 14033.883789
v 20530.634766 13031.053711 14010.336914
v 20294.380859 13074.843750 13973.558594
v 20347.218750 13056.677734 14013.752930
v 20478.226562 13027.972656 14006.763672
v 21023.599609 13134.523438 13950.390625
v 21285.222656 13257.987305 13970.010742
v 21547.466797 13596.852539 14020.930664
v 21510.703125 13722.077148 14047.915039
v 19863.416016 14157.958008 14033.824219
v 19625.785156 14482.041016 13955.384766
v 19608.046875 14530.399414 13933.117188
v 19650.392578 14602.909180 13938.704102
v 19818.498047 14752.719727 13957.287109
v 21509.919922 14974.800781 13950.841797
v 20349.363281 15081.809570 14025.564453
v 21284.777344 15199.634766 14046.763672
v 20396.117188 13023.759766 13976.376953
v 20716.857422 13078.412109 14077.138672
v 20829.406250 13098.378906 14047.301758
v 21004.841797 13144.375977 14020.202148
v 21541.189453 13543.899414 14091.987305
v 20115.904297 13531.130859 13976.953125
v 21436.886719 14038.525391 13925.277344
v 19932.808594 14041.552734 14049.603516
v 19837.523438 14276.021484 14114.849609
v 21408.468750 14294.553711 14066.704102
v 19654.781250 14581.449219 14041.695312
v 21430.126953 14451.865234 14107.028320
v 20003.939453 14906.208008 14028.569336
v 20070.535156 14961.645508 14084.524414
v 21501.242188 14910.765625 14048.255859
v 20293.035156 15071.853516 14096.777344
v 20564.138672 15154.013672 14106.431641
v 20666.035156 15169.029297 14069.098633
v 20813.964844 15189.245117 14069.592773
v 21430.628906 15114.949219 14089.123047
v 21347.865234 15183.849609 13991.317383
v 20299.064453 13112.187500 14046.044922
v 20257.925781 13170.642578 14022.873047
v 21178.097656 13223.595703 14048.098633
v 21521.556641 13504.465820 14098.955078
v 21465.632812 13881.875977 14058.823242
v 19755.957031 14704.853516 13964.917969
v 19867.060547 14837.084961 14166.630859
v 20441.398438 15117.036133 14046.012695
v 21460.312500 15056.637695 14088.793945
v 21229.691406 15212.445312 14109.312500
v 21408.785156 15141.737305 14077.354492
v 20362.402344 13106.772461 14126.406250
v 20443.271484 13039.846680 14037.800781
v 20598.343750 13085.440430 14160.083008
v 20249.958984 13298.093750 14154.083984
v 21384.630859 13327.180664 14029.210938
v 21503.435547 13712.406250 14135.078125
v 21429.125000 14020.509766 14110.053711
v 19661.492188 14520.283203 14034.341797
v 19655.570312 14604.551758 14014.695312
v 21479.158203 14684.037109 14077.712891
v 19907.070312 14850.351562 14085.257812
v 20179.880859 15018.058594 14070.267578
v 21475.980469 14982.949219 14126.628906
v 21154.355469 15221.699219 14109.069336
v 21153.953125 15217.583984 14145.139648
v 20946.515625 13162.935547 14145.176758
v 21314.376953 13313.750000 14111.895508
v 21450.339844 13416.474609 14120.898438
v 20195.212891 13450.237305 14139.317383
v 21459.310547 13878.012695 14132.814453
v 21408.105469 14171.086914 14141.894531
v 21403.800781 14263.679688 14202.787109
v 19804.835938 14773.266602 14132.238281
v 21490.751953 14792.637695 14121.766602
v 21487.552734 14836.722656 14171.988281
v 20293.662109 15084.810547 14191.095703
v 20379.808594 15112.029297 14145.454102
v 20642.359375 15166.164062 14183.556641
v 20762.988281 15190.837891 14175.708984
v 21019.318359 15205.501953 14146.441406
v 21406.847656 15117.879883 14202.874023
v 20406.410156 13088.089844 14132.332031
v 20375.498047 13129.161133 14191.168945
v 20473.470703 13122.700195 14255.792969
v 20575.957031 13107.997070 14228.183594
v 20328.605469 13160.779297 14164.720703
v 21103.273438 13214.572266 14117.012695
v 21532.412109 13605.701172 14123.003906
v 21443.205078 13914.141602 14189.222656
v 19729.046875 14687.526367 14047.082031
v 20890.056641 15195.739258 14161.266602
v 21316.988281 15189.595703 14124.208008
v 21417.207031 13435.220703 14245.319336
v 21439.111328 13885.640625 14249.618164
v 20065.261719 13856.859375 14172.703125
v 21417.166016 14023.433594 14227.416016
v 21404.675781 14137.232422 14215.541016
v 19967.861328 14158.945312 14259.347656
v 19877.371094 14314.867188 14232.567383
v 19702.363281 14568.318359 14123.560547
v 19709.296875 14638.544922 14129.447266
v 19726.441406 14680.179688 14107.231445
v 19828.708984 14812.208008 14236.966797
v 19922.601562 14884.258789 14188.715820
v 20085.179688 14983.566406 14185.705078
v 20163.781250 15025.470703 14233.001953
v 20430.564453 15123.074219 14196.475586
v 21358.746094 15171.836914 14146.202148
v 21385.863281 15150.147461 14205.997070
v 20401.783203 13174.925781 14299.881836
v 20810.810547 13144.803711 14205.318359
v 20293.751953 13221.344727 14176.419922
v 21219.380859 13309.408203 14228.570312
v 21344.480469 13389.215820 14259.328125
v 21492.392578 13535.188477 14220.209961
v 21494.003906 13606.495117 14235.041992
v 21397.132812 14108.611328 14293.701172
v 19803.808594 14381.806641 14160.442383
v 20052.132812 14966.890625 14307.542969
v 20161.462891 15020.893555 14301.842773
v 21442.951172 15078.194336 14157.471680
v 20871.687500 15190.243164 14216.410156
v 20674.791016 15166.446289 14235.422852
v 20776.091797 15181.619141 14235.937500
v 21284.013672 15195.248047 14225.430664
v 20455.490234 13148.854492 14300.230469
v 20521.853516 13105.466797 14225.946289
v 20342.605469 13204.938477 14257.307617
v 20704.857422 13155.405273 14302.825195
v 21005.382812 13255.507812 14340.482422
v 21484.742188 13685.324219 14241.851562
v 21465.226562 13761.837891 14259.274414
v 20137.978516 13738.268555 14248.126953
v 21392.734375 14226.130859 14301.858398
v 21409.261719 14349.174805 14210.504883
v 19779.691406 14461.005859 14182.374023
v 19781.671875 14520.718750 14223.115234
v 19748.527344 14583.899414 14196.270508
v 19746.175781 14645.506836 14199.279297
v 19786.929688 14667.389648 14273.027344
v 19924.558594 14895.665039 14260.757812
v 21478.398438 14914.969727 14184.396484
v 19943.585938 14907.903320 14301.698242
v 21028.455078 15194.269531 14228.296875
v 21211.757812 15198.637695 14250.266602
v 20857.033203 13222.130859 14375.158203
v 20899.527344 13205.803711 14304.404297
v 20296.158203 13373.326172 14342.665039
v 20214.441406 13521.486328 14258.125977
v 21414.947266 13934.052734 14316.215820
v 21391.306641 14042.687500 14349.524414
v 21377.732422 14151.366211 14379.968750
v 21439.166016 14603.470703 14352.439453
v 21455.355469 14669.920898 14306.617188
v 19777.449219 14728.731445 14236.403320
v 21466.130859 14804.931641 14295.835938
v 21455.822266 14981.813477 14253.116211
v 20283.375000 15074.481445 14282.095703
v 21403.093750 15058.173828 14345.156250
v 20518.587891 15128.208984 14280.276367
v 21373.873047 15121.922852 14318.010742
v 20344.382812 13271.748047 14349.587891
v 21133.126953 13329.561523 14397.053711
v 21430.457031 13794.753906 14355.802734
v 20159.228516 13794.415039 14355.607422
v 21381.378906 13981.710938 14409.671875
v 20034.992188 14025.332031 14272.402344
v 21377.636719 14239.466797 14388.577148
v 19946.931641 14302.440430 14359.163086
v 19876.900391 14402.742188 14307.174805
v 19843.111328 14828.019531 14304.185547
v 20824.548828 15143.525391 14389.701172
v 20907.171875 15175.033203 14298.801758
v 21065.548828 15178.623047 14306.221680
v 21314.257812 15184.058594 14267.570312
v 20445.453125 13210.248047 14396.396484
v 21384.939453 13445.559570 14307.062500
v 21434.236328 13724.379883 14375.969727
v 21358.640625 14088.037109 14456.218750
v 20043.185547 14164.451172 14434.858398
v 21356.726562 14192.240234 14465.519531
v 21391.138672 14319.083984 14346.985352
v 19839.478516 14584.444336 14348.474609
v 19803.585938 14609.768555 14293.529297
v 19835.964844 14775.437500 14371.292969
v 19860.376953 14807.354492 14415.083984
v 20030.144531 14945.933594 14414.458008
v 20263.701172 15047.440430 14381.064453
v 20670.390625 15127.285156 14374.098633
v 20946.667969 15136.024414 14454.688477
v 21192.707031 15121.487305 14452.298828
v 20575.357422 13148.064453 14315.444336
v 21317.414062 13457.474609 14423.634766
v 21429.849609 13557.846680 14354.900391
v 21428.775391 13642.503906 14389.955078
v 20135.839844 13890.286133 14386.620117
v 21369.607422 14309.622070 14450.586914
v 19997.962891 14340.708008 14500.488281
v 21397.357422 14417.477539 14388.292969
v 21409.439453 14418.069336 14303.963867
v 19852.638672 14485.092773 14321.302734
v 19830.287109 14679.797852 14358.622070
v 21457.123047 14862.583008 14334.087891
v 19904.550781 14872.175781 14377.418945
v 21443.787109 14922.368164 14357.100586
v 20054.992188 14946.776367 14473.824219
v 21427.035156 14976.025391 14363.791016
v 21356.251953 15073.677734 14425.708984
v 21160.199219 15169.725586 14341.002930
v 20536.441406 13197.400391 14397.383789
v 20699.593750 13198.921875 14388.390625
v 20333.171875 13337.646484 14396.652344
v 21253.388672 13401.454102 14411.548828
v 21409.355469 13492.669922 14330.729492
v 20241.113281 13583.099609 14378.646484
v 21363.351562 13909.179688 14485.410156
v 21318.550781 14018.816406 14569.830078
v 21339.072266 14251.578125 14538.086914
v 19914.759766 14662.583984 14522.130859
v 19914.953125 14848.997070 14467.563477
v 20177.628906 15023.273438 14357.908203
v 20956.363281 15115.408203 14528.885742
v 21328.232422 15056.802734 14483.406250
v 21311.238281 15137.505859 14365.302734
v 20631.064453 13211.309570 14424.132812
v 20816.845703 13245.062500 14435.658203
v 20371.916016 13323.164062 14452.653320
v 20979.654297 13288.189453 14434.647461
v 21382.349609 13560.314453 14437.497070
v 20300.869141 13488.330078 14440.298828
v 20153.474609 14020.848633 14548.005859
v 21383.099609 14426.181641 14467.359375
v 19915.304688 14515.898438 14458.776367
v 21400.367188 14559.046875 14504.712891
v 21449.703125 14709.274414 14357.996094
v 21424.570312 14890.316406 14442.425781
v 21382.490234 14954.885742 14522.682617
v 20481.578125 15038.464844 14531.920898
v 21360.816406 15010.552734 14499.904297
v 21094.556641 15128.455078 14463.185547
v 20483.828125 13232.754883 14439.216797
v 20756.916016 13271.972656 14499.365234
v 20633.019531 13273.195312 14516.122070
v 20796.515625 13333.618164 14570.835938
v 21180.275391 13411.333984 14518.456055
v 21279.015625 13450.354492 14469.608398
v 21404.621094 13695.926758 14445.736328
v 20211.802734 13790.628906 14481.153320
v 21345.621094 14359.719727 14561.777344
v 19939.845703 14401.974609 14428.442383
v 21405.425781 14672.505859 14539.995117
v 21413.265625 14773.336914 14536.512695
v 19995.207031 14879.616211 14536.227539
v 21063.164062 15079.116211 14612.526367
v 21280.441406 15099.497070 14455.783203
v 20395.808594 13260.044922 14418.774414
v 20424.541016 13301.603516 14490.685547
v 20905.980469 13294.781250 14485.632812
v 21081.615234 13342.877930 14476.485352
v 21297.701172 13515.680664 14535.543945
v 21324.878906 14148.637695 14556.597656
v 20112.574219 14056.287109 14487.972656
v 21431.125000 14741.008789 14455.785156
v 19873.023438 14742.178711 14454.254883
v 21407.490234 14870.648438 14521.164062
v 20154.472656 14985.248047 14467.802734
v 21158.023438 15081.605469 14563.256836
v 20709.937500 15083.683594 14548.211914
v 20543.818359 13286.096680 14521.061523
v 20609.093750 13311.343750 14561.597656
v 21316.716797 13556.135742 14547.582031
v 21362.515625 13608.324219 14510.498047
v 21341.453125 13693.921875 14559.568359
v 21349.183594 13760.366211 14549.415039
v 21359.798828 13830.341797 14516.417969
v 20248.779297 13790.986328 14562.625000
v 21296.886719 13936.248047 14621.894531
v 21356.867188 14495.742188 14609.913086
v 21349.791016 14947.131836 14597.980469
v 21314.037109 15000.106445 14585.085938
v 20860.482422 15106.940430 14553.875977
v 20466.769531 13328.201172 14546.863281
v 20416.585938 13386.288086 14555.160156
v 21079.619141 13412.834961 14579.943359
v 20341.603516 13465.405273 14501.196289
v 21267.031250 14118.474609 14687.565430
v 21304.912109 14190.780273 14618.887695
v 21300.873047 14353.074219 14684.630859
v 19969.697266 14450.560547 14525.081055
v 19904.425781 14810.396484 14495.878906
v 20089.394531 14910.800781 14588.996094
v 20244.511719 14974.883789 14577.474609
v 21224.906250 15056.149414 14578.469727
v 20450.404297 13430.349609 14619.469727
v 20888.970703 13355.779297 14575.933594
v 20995.792969 13378.161133 14569.031250
v 21129.482422 13431.892578 14575.981445
v 20380.222656 13447.291016 14550.884766
v 21194.591797 13479.429688 14581.584961
v 21191.140625 13584.731445 14686.571289
v 20313.449219 13651.415039 14582.167969
v 21280.986328 14230.601562 14686.449219
v 21342.816406 14852.249023 14707.258789
v 19965.566406 14787.856445 14605.720703
v 21143.162109 15038.714844 14677.455078
v 21249.792969 15017.689453 14639.031250
v 20517.439453 13380.804688 14614.914062
v 20650.396484 13356.819336 14612.771484
v 20408.835938 13509.650391 14632.899414
v 21272.132812 13789.296875 14677.128906
v 20221.808594 13942.947266 14628.058594
v 20103.941406 14269.910156 14665.952148
v 20014.236328 14523.248047 14656.531250
v 21363.076172 14640.102539 14665.099609
v 19929.705078 14587.441406 14522.999023
v 19944.359375 14739.271484 14588.994141
v 20046.125000 14897.936523 14570.299805
v 20155.505859 14900.540039 14659.339844
v 20218.687500 14967.474609 14578.950195
v 20452.013672 14987.616211 14640.590820
v 20803.984375 15065.210938 14631.476562
v 20487.902344 13480.433594 14680.078125
v 20953.496094 13462.562500 14678.705078
v 21044.392578 13476.768555 14660.300781
v 21123.162109 13501.548828 14647.037109
v 20361.013672 13592.244141 14617.211914
v 21241.023438 13614.864258 14665.368164
v 21294.773438 13629.431641 14613.541016
v 21302.005859 13675.278320 14619.502930
v 20297.126953 13807.656250 14664.671875
v 21320.763672 14596.832031 14767.809570
v 19970.984375 14683.895508 14640.060547
v 19977.736328 14824.740234 14596.880859
v 20029.968750 14835.499023 14644.488281
v 21363.802734 14905.193359 14614.743164
v 21303.207031 14943.748047 14695.886719
v 20652.103516 15044.451172 14618.047852
v 20765.732422 13417.817383 14659.857422
v 20722.757812 13460.938477 14696.344727
v 20906.291016 13454.000000 14679.827148
v 21073.416016 13578.911133 14739.260742
v 20424.859375 13547.091797 14672.630859
v 20346.464844 13743.706055 14699.230469
v 21231.148438 13722.603516 14718.676758
v 21242.742188 13896.898438 14717.722656
v 21251.591797 14039.941406 14707.453125
v 21218.271484 14098.377930 14775.889648
v 20165.480469 14115.419922 14658.083984
v 20015.162109 14604.726562 14692.648438
v 19988.878906 14731.238281 14668.608398
v 20355.318359 14944.379883 14690.094727
v 20509.951172 14973.147461 14689.770508
v 20933.033203 15023.804688 14738.396484
v 20809.529297 15006.960938 14740.147461
v 20551.560547 13506.328125 14716.645508
v 20625.566406 13483.775391 14709.113281
v 20397.107422 13647.704102 14701.747070
v 20224.716797 14036.876953 14707.575195
v 21185.558594 14008.771484 14809.595703
v 21253.138672 14229.352539 14746.875977
v 21355.599609 14742.443359 14697.312500
v 20063.402344 14671.767578 14789.236328
v 21356.111328 14799.207031 14691.951172
v 20125.066406 14867.960938 14688.835938
v 20728.021484 15018.431641 14698.233398
v 21014.095703 15048.440430 14696.968750
v 21036.453125 15015.211914 14765.702148
v 21270.982422 14984.765625 14678.845703
v 20831.570312 13506.630859 14730.672852
v 20518.164062 13610.999023 14774.583984
v 20463.435547 13597.074219 14735.146484
v 21188.751953 13663.611328 14736.625000
v 20299.548828 13930.536133 14753.486328
v 21206.798828 14197.769531 14825.285156
v 20051.441406 14402.802734 14661.929688
v 20092.539062 14443.354492 14763.324219
v 20045.841797 14771.666016 14734.762695
v 20239.511719 14872.399414 14759.944336
v 21303.888672 14878.354492 14781.229492
v 20426.099609 14902.666992 14775.475586
v 20572.105469 14952.850586 14744.497070
v 21240.000000 14934.712891 14819.359375
v 21194.955078 14984.621094 14782.924805
v 20595.218750 13583.043945 14780.061523
v 20456.960938 13743.777344 14816.126953
v 21132.242188 13572.792969 14711.428711
v 20366.025391 13871.169922 14812.693359
v 20258.269531 14112.152344 14815.763672
v 20180.521484 14247.760742 14791.089844
v 21250.197266 14389.387695 14817.092773
v 20055.380859 14594.500000 14763.964844
v 20103.267578 14820.379883 14736.540039
v 20489.433594 14892.265625 14806.824219
v 20600.908203 14897.238281 14827.972656
v 21090.632812 14982.089844 14836.873047
v 20692.167969 13578.262695 14785.878906
v 20781.132812 13625.485352 14823.710938
v 20898.718750 13580.157227 14782.424805
v 20545.074219 13694.541992 14831.878906
v 21129.636719 13763.893555 14826.230469
v 21205.917969 13793.648438 14757.656250
v 21185.992188 13876.544922 14791.487305
v 20318.257812 14018.328125 14832.220703
v 20116.470703 14355.991211 14756.278320
v 21311.144531 14498.346680 14734.054688
v 20106.591797 14552.356445 14834.533203
v 20057.011719 14742.498047 14767.519531
v 21307.839844 14813.389648 14798.079102
v 20179.197266 14832.966797 14781.723633
v 20320.417969 14846.726562 14816.541016
v 20785.458984 14930.053711 14845.572266
v 20923.003906 14981.201172 14809.474609
v 21074.492188 14955.629883 14887.093750
v 21000.984375 13612.889648 14788.247070
v 21109.439453 13689.203125 14804.941406
v 21134.380859 13851.734375 14839.999023
v 20395.957031 13770.169922 14785.860352
v 21066.207031 13883.749023 14902.573242
v 20393.468750 13971.144531 14880.748047
v 21172.099609 14134.601562 14859.372070
v 21306.341797 14684.612305 14813.250000
v 20402.046875 14786.734375 14892.227539
v 20539.302734 14847.358398 14866.421875
v 20675.595703 14864.453125 14886.367188
v 21003.519531 13689.950195 14842.251953
v 20660.003906 13649.166016 14831.145508
v 20832.830078 13678.632812 14856.663086
v 21070.101562 13816.924805 14883.224609
v 20727.500000 13710.062500 14870.851562
v 20572.064453 13811.417969 14894.489258
v 20685.650391 13797.326172 14907.808594
v 20422.804688 13882.734375 14865.267578
v 21093.144531 14059.468750 14932.919922
v 21128.089844 14005.718750 14879.462891
v 20296.541016 14176.397461 14901.651367
v 21172.007812 14314.695312 14933.365234
v 20146.714844 14438.564453 14852.208984
v 20213.343750 14290.671875 14867.766602
v 20107.804688 14668.238281 14843.892578
v 20469.039062 14729.437500 14947.340820
v 20174.957031 14789.568359 14830.120117
v 20290.529297 14773.501953 14875.289062
v 21247.109375 14866.677734 14877.613281
v 20927.583984 14938.188477 14871.732422
v 21167.916016 14946.399414 14874.359375
v 20877.400391 13791.354492 14907.728516
v 20981.904297 13783.736328 14894.357422
v 20786.187500 13794.548828 14911.861328
v 20905.701172 13886.074219 14946.915039
v 20486.511719 13831.432617 14874.595703
v 20542.109375 13944.041016 14940.142578
v 20828.080078 13933.152344 14974.888672
v 20608.052734 13949.050781 14960.222656
v 20765.183594 13934.797852 14975.265625
v 20436.039062 13976.127930 14908.865234
v 20676.060547 13932.256836 14966.039062
v 21068.158203 14000.528320 14931.412109
v 20224.542969 14349.502930 14908.474609
v 21198.121094 14307.538086 14884.925781
v 20173.142578 14504.108398 14916.085938
v 21272.250000 14547.427734 14841.912109
v 20126.500000 14704.310547 14855.432617
v 21241.187500 14648.774414 14923.130859
v 20118.701172 14771.158203 14812.594727
v 20569.740234 14804.928711 14912.706055
v 20809.070312 14852.187500 14939.333008
v 21050.744141 14933.753906 14913.904297
v 20921.962891 14890.107422 14927.761719
v 20982.019531 13886.109375 14935.650391
v 20973.062500 13962.543945 14966.380859
v 20959.582031 14052.888672 15021.119141
v 21019.005859 13989.330078 14958.632812
v 20681.798828 14025.075195 15010.552734
v 20481.523438 14046.863281 14962.166016
v 21041.152344 14118.400391 15007.455078
v 20360.873047 14076.749023 14910.604492
v 20342.074219 14194.698242 14949.554688
v 21128.511719 14150.724609 14926.390625
v 20215.496094 14469.919922 14945.742188
v 20143.033203 14584.048828 14887.537109
v 20186.998047 14561.821289 14936.019531
v 20322.205078 14684.990234 14949.922852
v 20475.363281 14682.343750 14977.046875
v 20614.470703 14695.064453 15002.734375
v 20566.476562 14622.582031 15027.791992
v 20253.501953 14708.967773 14910.744141
v 21249.701172 14781.326172 14909.173828
v 20866.951172 14020.673828 15021.273438
v 21084.892578 14141.658203 14975.436523
v 20563.480469 14043.017578 14989.401367
v 20415.933594 14146.563477 14976.578125
v 20370.351562 14313.995117 15005.109375
v 21097.910156 14252.332031 15010.743164
v 20267.042969 14352.476562 14948.936523
v 21210.335938 14518.565430 14943.810547
v 20215.111328 14630.378906 14936.626953
v 20179.806641 14697.666992 14894.324219
v 20630.048828 14744.472656 14974.824219
v 21202.787109 14869.152344 14928.019531
v 21137.515625 14872.856445 14968.054688
v 20903.785156 13970.928711 14986.483398
v 21000.314453 14071.949219 15010.242188
v 20827.871094 14151.974609 15104.903320
v 20798.835938 14030.910156 15028.480469
v 20536.562500 14109.912109 15014.717773
v 20682.185547 14138.083008 15070.328125
v 20517.470703 14174.160156 15032.427734
v 20292.892578 14402.660156 14979.859375
v 20265.312500 14499.799805 14978.478516
v 20410.798828 14498.204102 15027.504883
v 21209.480469 14455.021484 14924.978516
v 20549.949219 14540.150391 15054.284180
v 20418.847656 14612.984375 14998.518555
v 20304.152344 14567.125977 14985.056641
v 21188.808594 14671.690430 14997.778320
v 20979.861328 14839.847656 14989.965820
v 21212.863281 14816.541016 14948.505859
v 21066.091797 14799.305664 15030.864258
v 20436.880859 14257.562500 15024.065430
v 21047.742188 14283.078125 15082.992188
v 20523.214844 14334.050781 15070.573242
v 20360.171875 14420.797852 15014.044922
v 20515.339844 14456.369141 15064.483398
v 20895.537109 14714.149414 15067.074219
v 21158.957031 14681.678711 15033.172852
v 20802.980469 14804.707031 14978.660156
v 20998.707031 14741.424805 15069.743164
v 21153.964844 14807.277344 14995.628906
v 21092.914062 14749.157227 15051.847656
v 20925.333984 14135.312500 15087.941406
v 20967.986328 14181.336914 15102.619141
v 20576.941406 14254.625977 15079.058594
v 20637.712891 14407.411133 15111.591797
v 20680.058594 14471.414062 15114.919922
v 20709.925781 14546.091797 15102.927734
v 20776.408203 14659.496094 15069.576172
v 21159.615234 14555.324219 15028.876953
v 21123.964844 14707.791992 15052.765625
v 21035.044922 14815.994141 15018.519531
v 20675.810547 14209.987305 15099.315430
v 21143.082031 14410.178711 15018.909180
v 21099.859375 14488.568359 15090.027344
v 20858.808594 14619.195312 15112.796875
v 21024.746094 14606.325195 15148.115234
v 20877.847656 14198.371094 15126.697266
v 20772.890625 14223.969727 15126.272461
v 21007.736328 14228.437500 15099.520508
v 20698.121094 14299.294922 15128.234375
v 21090.640625 14400.307617 15076.947266
v 21069.009766 14595.822266 15119.162109
v 21104.074219 14567.095703 15090.728516
v 21003.583984 14655.914062 15133.776367
v 20953.580078 14252.914062 15135.160156
v 20768.865234 14367.426758 15151.957031
v 20992.775391 14314.139648 15137.984375
v 21012.343750 14420.716797 15158.150391
v 20810.291016 14429.164062 15158.490234
v 21025.347656 14506.933594 15160.225586
v 20901.230469 14303.390625 15159.693359
v 20926.048828 14351.501953 15171.956055
v 20825.933594 14494.506836 15149.222656
v 20967.363281 14559.442383 15166.727539
v 20890.560547 14578.290039 15140.381836
v 20861.070312 14352.984375 15167.294922
v 20934.615234 14471.755859 15179.000977
v 20980.580078 14460.185547 15185.605469
# 1286 vertices, 0 vertices normals

f 4 1 14
f 5 12 1
f 1 4 5
f 3 2 5
f 4 8 5
f 16 6 4
f 4 6 7
f 5 8 3
f 4 7 8
f 8 21 3
f 6 24 7
f 7 9 8
f 8 23 21
f 9 26 8
f 8 26 23
f 25 9 7
f 28 31 10
f 28 10 46
f 10 12 11
f 31 14 10
f 16 13 35
f 31 13 14
f 14 1 10
f 10 1 12
f 11 12 2
f 13 4 14
f 12 5 2
f 2 15 33
f 2 18 15
f 2 3 18
f 35 17 16
f 16 4 13
f 36 17 35
f 34 15 19
f 15 18 19
f 17 6 16
f 3 21 18
f 17 20 6
f 17 58 20
f 21 22 18
f 18 22 19
f 6 20 24
f 58 24 20
f 58 73 24
f 22 21 38
f 25 7 24
f 73 37 24
f 40 24 37
f 24 40 25
f 27 9 25
f 9 41 26
f 27 25 40
f 27 41 9
f 23 26 42
f 27 43 41
f 26 41 42
f 45 28 46
f 29 13 31
f 29 31 28
f 47 11 30
f 46 10 47
f 47 10 11
f 35 13 48
f 30 11 32
f 32 11 2
f 32 2 33
f 32 33 34
f 34 33 15
f 34 19 55
f 55 53 34
f 35 54 36
f 36 58 17
f 19 56 55
f 19 22 56
f 56 22 72
f 22 38 59
f 72 22 59
f 38 21 23
f 23 39 38
f 42 39 23
f 75 40 37
f 40 75 60
f 60 27 40
f 43 27 60
f 41 43 44
f 41 44 42
f 60 62 43
f 43 62 44
f 44 61 42
f 46 64 45
f 64 46 65
f 84 48 82
f 63 82 29
f 63 29 28
f 63 28 45
f 46 47 65
f 66 47 30
f 48 13 29
f 48 29 82
f 32 49 30
f 49 32 51
f 68 35 48
f 68 50 35
f 51 32 34
f 51 34 52
f 52 34 53
f 54 35 50
f 36 54 70
f 55 57 53
f 89 53 57
f 70 58 36
f 55 56 57
f 71 58 70
f 71 73 58
f 73 75 37
f 59 38 39
f 96 39 42
f 96 42 61
f 60 75 76
f 44 62 79
f 44 79 80
f 44 80 61
f 81 64 65
f 64 63 45
f 65 47 66
f 83 66 30
f 83 30 49
f 67 51 52
f 67 52 86
f 86 52 87
f 87 52 69
f 69 52 53
f 53 89 69
f 89 57 90
f 57 56 90
f 88 71 70
f 72 91 56
f 71 92 73
f 74 72 59
f 72 74 91
f 92 93 73
f 93 75 73
f 74 59 95
f 39 95 59
f 95 39 77
f 39 96 77
f 76 78 60
f 60 78 62
f 78 98 62
f 98 79 62
f 101 81 102
f 81 101 64
f 103 81 65
f 82 63 101
f 101 63 64
f 106 83 49
f 84 131 48
f 107 106 49
f 107 49 51
f 67 107 51
f 67 85 107
f 131 68 48
f 109 68 131
f 85 67 86
f 109 50 68
f 138 50 109
f 138 54 50
f 138 70 54
f 138 140 70
f 69 111 110
f 69 89 111
f 140 88 70
f 89 90 111
f 113 111 90
f 88 92 71
f 56 91 90
f 94 75 93
f 97 75 94
f 75 97 76
f 97 78 76
f 61 80 96
f 125 98 78
f 125 78 97
f 79 124 80
f 99 79 98
f 99 98 125
f 79 99 124
f 124 156 80
f 99 100 124
f 102 81 103
f 130 82 101
f 127 101 102
f 130 84 82
f 103 65 128
f 128 65 104
f 104 65 66
f 105 106 165
f 104 66 83
f 104 83 105
f 105 83 106
f 106 107 108
f 107 85 108
f 134 85 86
f 136 134 86
f 87 136 86
f 110 136 87
f 137 138 109
f 69 110 87
f 112 110 111
f 111 113 112
f 112 113 141
f 113 90 115
f 113 115 114
f 141 113 114
f 145 92 88
f 90 117 115
f 117 90 91
f 115 120 114
f 115 117 120
f 116 93 92
f 117 91 74
f 118 114 120
f 179 93 116
f 74 119 117
f 117 149 120
f 94 93 179
f 119 74 95
f 117 119 149
f 119 95 77
f 121 119 77
f 119 121 149
f 149 121 153
f 94 150 97
f 151 77 96
f 77 151 121
f 121 151 152
f 121 152 153
f 96 122 151
f 122 96 80
f 97 154 125
f 122 80 156
f 125 123 99
f 100 99 123
f 156 124 126
f 124 100 126
f 160 101 127
f 102 103 157
f 157 103 161
f 160 130 101
f 161 103 128
f 105 162 129
f 128 104 129
f 129 104 105
f 131 164 132
f 164 84 130
f 164 131 84
f 132 109 131
f 132 135 109
f 85 133 108
f 133 85 134
f 166 135 132
f 135 166 167
f 134 136 168
f 137 167 169
f 167 137 135
f 135 137 109
f 168 136 196
f 137 169 142
f 137 142 138
f 112 136 110
f 136 139 196
f 136 112 139
f 142 140 138
f 142 145 140
f 139 112 141
f 142 172 144
f 145 88 140
f 114 118 143
f 114 143 141
f 143 118 147
f 142 144 145
f 144 146 145
f 146 92 145
f 146 116 92
f 146 177 116
f 179 116 177
f 204 94 179
f 120 148 118
f 147 118 148
f 150 94 204
f 149 148 120
f 181 148 149
f 149 153 181
f 155 153 152
f 181 183 186
f 181 153 183
f 154 97 150
f 183 153 155
f 122 184 151
f 151 184 152
f 152 184 185
f 152 185 155
f 208 125 154
f 122 156 184
f 123 125 208
f 187 156 126
f 208 237 123
f 123 209 100
f 189 158 102
f 189 102 157
f 161 190 157
f 214 160 213
f 213 160 158
f 158 160 127
f 158 127 102
f 193 160 214
f 161 128 159
f 159 128 129
f 162 105 165
f 163 164 193
f 193 164 130
f 193 130 160
f 163 132 164
f 165 106 108
f 163 166 132
f 218 165 108
f 166 194 195
f 108 133 218
f 166 195 167
f 169 167 221
f 172 142 169
f 169 197 172
f 139 170 196
f 139 171 170
f 139 141 171
f 141 173 171
f 198 172 197
f 173 141 143
f 198 174 172
f 147 173 143
f 147 175 173
f 172 174 144
f 174 146 144
f 174 200 146
f 200 176 146
f 176 177 146
f 178 179 177
f 147 180 175
f 148 180 147
f 179 178 204
f 181 180 148
f 150 204 182
f 203 180 181
f 182 154 150
f 183 155 185
f 154 234 208
f 126 188 187
f 184 210 185
f 209 123 237
f 188 126 100
f 210 184 205
f 185 210 206
f 185 206 211
f 185 211 183
f 183 211 207
f 183 207 186
f 100 209 188
f 190 161 159
f 159 129 191
f 191 129 162
f 191 162 192
f 248 215 162
f 162 215 192
f 165 248 162
f 217 194 216
f 216 194 193
f 193 194 163
f 194 217 219
f 194 166 163
f 168 220 133
f 219 195 194
f 134 168 133
f 195 221 167
f 222 169 221
f 222 197 169
f 198 199 174
f 199 200 174
f 175 225 173
f 199 176 200
f 229 176 199
f 229 177 176
f 175 201 225
f 180 201 175
f 204 178 202
f 180 203 201
f 281 233 204
f 182 204 233
f 182 233 234
f 186 203 181
f 234 154 182
f 232 203 236
f 203 186 236
f 235 208 234
f 205 184 156
f 205 156 187
f 240 188 239
f 239 188 209
f 188 240 187
f 187 240 205
f 210 241 206
f 241 211 206
f 189 157 190
f 212 213 158
f 212 158 264
f 264 158 189
f 244 190 159
f 159 191 244
f 246 214 213
f 246 216 214
f 216 193 214
f 247 217 216
f 274 248 165
f 133 220 218
f 219 221 195
f 251 168 196
f 196 170 253
f 170 254 253
f 223 197 222
f 224 170 171
f 173 224 171
f 225 224 173
f 225 228 224
f 227 229 199
f 226 228 279
f 279 228 231
f 201 231 225
f 225 231 228
f 230 177 229
f 230 178 177
f 202 178 230
f 281 204 202
f 201 203 232
f 202 315 281
f 236 282 232
f 236 186 207
f 235 237 208
f 243 205 240
f 241 210 205
f 241 205 243
f 237 238 209
f 238 239 209
f 242 211 241
f 242 262 211
f 211 262 207
f 241 243 261
f 241 261 242
f 267 266 189
f 267 189 190
f 213 288 245
f 288 212 263
f 244 191 270
f 246 286 247
f 246 245 286
f 245 246 213
f 288 213 212
f 270 191 192
f 248 308 215
f 246 247 216
f 247 249 217
f 273 217 249
f 165 218 274
f 273 250 217
f 250 219 217
f 251 220 168
f 250 221 219
f 250 222 221
f 275 222 250
f 253 293 251
f 252 222 275
f 196 253 251
f 276 253 254
f 252 223 222
f 294 254 224
f 170 224 254
f 295 197 223
f 198 197 295
f 228 226 224
f 297 199 198
f 299 300 227
f 300 229 227
f 300 230 229
f 279 231 255
f 232 255 201
f 201 255 231
f 202 230 315
f 232 256 255
f 281 283 233
f 233 283 234
f 282 256 232
f 234 283 316
f 235 234 316
f 257 282 236
f 257 236 207
f 235 258 237
f 238 237 258
f 260 240 239
f 257 207 262
f 258 259 238
f 239 238 260
f 240 260 243
f 243 284 318
f 261 243 318
f 264 265 325
f 189 266 265
f 268 267 190
f 264 263 212
f 265 264 189
f 268 190 244
f 268 244 285
f 285 244 270
f 269 286 245
f 269 245 288
f 270 192 271
f 215 271 192
f 289 247 286
f 273 249 289
f 289 249 247
f 274 272 248
f 272 308 248
f 218 220 274
f 275 250 273
f 251 292 220
f 293 292 251
f 253 276 293
f 276 254 294
f 295 297 198
f 277 294 226
f 277 226 296
f 224 226 294
f 227 199 297
f 296 226 278
f 279 278 226
f 255 280 279
f 255 256 280
f 315 301 281
f 316 258 235
f 284 243 260
f 302 257 262
f 259 303 238
f 238 303 260
f 260 317 284
f 319 242 261
f 286 287 304
f 325 263 264
f 268 266 267
f 271 329 285
f 289 286 304
f 286 269 287
f 287 269 288
f 270 271 285
f 215 307 271
f 308 307 215
f 289 290 273
f 290 291 273
f 310 309 274
f 309 272 274
f 310 274 220
f 292 310 220
f 291 275 273
f 312 252 275
f 333 293 276
f 252 312 336
f 333 276 294
f 336 223 252
f 295 223 336
f 295 375 297
f 227 297 377
f 278 298 296
f 313 230 300
f 280 278 279
f 313 314 230
f 315 230 314
f 301 283 281
f 283 356 316
f 257 302 282
f 258 338 259
f 317 260 303
f 284 361 318
f 319 261 318
f 319 321 242
f 242 321 322
f 242 322 262
f 287 324 323
f 304 287 323
f 268 327 266
f 305 327 268
f 328 268 285
f 287 288 263
f 287 263 325
f 325 265 266
f 304 306 289
f 271 307 329
f 289 346 290
f 309 308 272
f 332 291 290
f 291 332 311
f 331 310 292
f 311 275 291
f 311 312 275
f 292 293 348
f 348 293 333
f 277 333 294
f 375 295 336
f 280 406 278
f 353 315 314
f 301 315 353
f 301 353 355
f 355 283 301
f 355 356 283
f 302 357 282
f 282 357 256
f 316 338 258
f 259 384 303
f 361 284 317
f 303 339 317
f 317 339 361
f 318 361 319
f 321 319 320
f 322 321 341
f 262 322 302
f 304 343 326
f 304 323 364
f 304 364 343
f 324 287 325
f 342 325 266
f 365 266 327
f 365 342 266
f 328 305 268
f 304 326 306
f 285 329 328
f 345 329 307
f 346 306 367
f 367 306 326
f 289 306 346
f 330 307 308
f 309 330 308
f 346 347 290
f 290 347 332
f 349 312 311
f 334 336 312
f 277 335 333
f 376 297 375
f 227 377 299
f 299 378 300
f 278 404 298
f 298 404 351
f 406 404 278
f 352 353 314
f 280 354 406
f 256 354 280
f 256 337 354
f 357 337 256
f 356 381 316
f 302 358 357
f 384 259 338
f 303 384 339
f 360 319 361
f 322 358 302
f 339 360 361
f 360 320 319
f 415 340 320
f 320 340 321
f 340 412 321
f 412 341 321
f 363 323 324
f 363 362 323
f 363 324 342
f 342 324 325
f 327 305 344
f 344 305 328
f 329 387 328
f 345 387 329
f 346 367 389
f 330 309 388
f 346 389 347
f 390 309 310
f 331 390 310
f 347 389 369
f 369 389 473
f 347 372 332
f 347 369 372
f 372 311 332
f 372 369 394
f 371 331 292
f 371 292 348
f 333 393 348
f 312 349 334
f 335 393 333
f 374 336 334
f 336 374 375
f 350 335 277
f 377 297 376
f 351 350 296
f 277 296 350
f 298 351 296
f 299 377 378
f 378 403 300
f 300 403 313
f 352 379 353
f 355 353 380
f 356 355 408
f 356 408 381
f 381 409 338
f 316 381 338
f 411 338 409
f 411 384 338
f 383 358 322
f 341 383 322
f 384 416 359
f 339 384 359
f 415 320 360
f 415 412 340
f 360 419 415
f 323 362 364
f 364 424 343
f 366 326 343
f 343 424 366
f 425 345 307
f 366 367 326
f 330 425 307
f 449 388 309
f 309 390 449
f 368 390 331
f 368 331 371
f 371 348 391
f 391 348 451
f 369 370 394
f 451 348 392
f 396 311 372
f 348 393 392
f 396 349 311
f 394 396 372
f 397 349 396
f 373 349 397
f 349 373 334
f 334 373 400
f 400 374 334
f 350 399 335
f 377 376 401
f 377 401 378
f 402 403 378
f 403 457 313
f 313 457 314
f 314 405 352
f 405 379 352
f 380 353 379
f 379 461 380
f 380 408 355
f 358 410 357
f 357 410 337
f 382 409 381
f 358 383 410
f 410 383 444
f 384 411 414
f 341 413 383
f 341 412 413
f 384 414 416
f 417 339 359
f 415 540 412
f 359 416 417
f 339 417 360
f 385 362 420
f 420 362 363
f 342 420 363
f 365 420 342
f 362 423 364
f 386 365 327
f 386 327 344
f 328 387 344
f 423 424 364
f 330 388 425
f 426 367 366
f 390 368 469
f 473 370 369
f 370 395 394
f 452 393 398
f 396 394 395
f 398 393 335
f 428 397 396
f 399 398 335
f 400 373 431
f 434 374 400
f 374 434 375
f 376 375 434
f 350 435 399
f 350 351 435
f 401 376 434
f 438 378 401
f 402 378 438
f 456 403 402
f 404 436 351
f 440 403 456
f 457 403 440
f 457 405 314
f 404 441 436
f 404 406 441
f 485 379 405
f 407 460 379
f 379 460 461
f 354 459 406
f 337 459 354
f 408 380 461
f 337 442 459
f 381 408 462
f 410 442 337
f 381 462 382
f 409 443 411
f 413 444 383
f 540 415 489
f 418 360 417
f 419 360 418
f 419 490 415
f 415 490 489
f 421 362 385
f 365 446 420
f 344 493 447
f 387 448 422
f 421 423 362
f 493 344 422
f 422 344 387
f 345 448 387
f 389 367 450
f 469 449 390
f 471 368 371
f 393 452 392
f 398 427 452
f 395 428 396
f 398 429 427
f 399 429 398
f 430 397 428
f 430 373 397
f 430 431 373
f 432 429 399
f 430 454 431
f 431 454 400
f 400 454 433
f 433 454 455
f 433 434 400
f 433 455 434
f 436 435 351
f 455 401 434
f 437 438 401
f 437 456 402
f 437 402 438
f 441 406 458
f 485 407 379
f 458 406 459
f 487 442 410
f 409 382 443
f 413 412 445
f 540 445 412
f 411 463 414
f 463 416 414
f 416 464 417
f 464 418 417
f 418 465 419
f 419 465 490
f 385 556 421
f 385 420 446
f 556 516 421
f 466 446 365
f 386 466 365
f 344 447 386
f 516 423 421
f 516 424 423
f 494 424 516
f 425 495 448
f 345 425 448
f 425 388 495
f 426 450 367
f 496 389 450
f 470 469 368
f 473 389 496
f 471 470 368
f 371 497 471
f 451 497 391
f 497 371 391
f 392 474 451
f 392 452 474
f 519 370 473
f 429 476 427
f 500 476 429
f 481 500 429
f 453 428 395
f 432 481 429
f 477 454 430
f 428 477 430
f 435 432 399
f 502 401 455
f 436 482 435
f 503 437 502
f 437 401 502
f 439 482 436
f 436 441 439
f 441 458 439
f 484 405 457
f 484 485 405
f 507 460 407
f 462 408 461
f 410 488 487
f 382 462 443
f 444 488 410
f 541 511 413
f 541 413 445
f 511 444 413
f 443 463 411
f 463 525 416
f 525 464 416
f 465 418 464
f 466 514 446
f 466 386 447
f 448 467 422
f 468 494 516
f 424 494 366
f 547 495 388
f 388 449 547
f 517 450 426
f 518 496 450
f 497 472 471
f 474 497 451
f 475 474 452
f 498 475 476
f 475 452 476
f 498 476 520
f 520 476 499
f 427 476 452
f 519 395 370
f 519 501 395
f 499 476 500
f 501 453 395
f 453 478 428
f 478 477 428
f 435 481 432
f 479 454 477
f 477 478 479
f 479 480 454
f 482 481 435
f 480 455 454
f 437 503 456
f 521 482 439
f 456 504 440
f 483 521 439
f 440 536 457
f 484 457 536
f 458 483 439
f 458 508 483
f 484 505 485
f 458 459 486
f 508 458 486
f 509 460 507
f 442 486 459
f 460 523 461
f 486 442 487
f 523 510 461
f 510 462 461
f 444 524 488
f 444 511 524
f 584 490 568
f 584 489 490
f 525 513 464
f 464 513 465
f 513 491 465
f 465 491 490
f 490 491 568
f 544 556 385
f 446 544 385
f 466 492 514
f 493 515 492
f 492 466 447
f 492 447 493
f 527 493 422
f 448 495 467
f 426 366 494
f 547 449 469
f 518 450 517
f 472 470 471
f 472 497 549
f 549 497 561
f 496 529 473
f 561 497 498
f 475 498 474
f 474 498 497
f 529 519 473
f 531 453 501
f 531 478 453
f 551 479 478
f 482 535 481
f 521 535 482
f 504 536 440
f 536 505 484
f 505 506 485
f 506 407 485
f 509 523 460
f 487 538 486
f 510 443 462
f 554 487 488
f 554 488 524
f 463 443 512
f 446 526 544
f 446 514 526
f 492 515 514
f 545 515 493
f 545 569 515
f 545 493 527
f 546 467 495
f 426 494 573
f 496 518 595
f 595 529 496
f 498 576 561
f 520 499 550
f 499 500 550
f 550 500 530
f 530 500 563
f 481 563 500
f 531 551 478
f 532 480 479
f 532 479 551
f 481 535 563
f 588 552 480
f 552 455 480
f 455 552 502
f 534 503 502
f 503 504 456
f 565 506 505
f 506 507 407
f 602 507 506
f 508 522 483
f 508 538 522
f 486 538 508
f 523 555 510
f 554 538 487
f 555 512 510
f 510 512 443
f 524 511 589
f 541 616 511
f 511 616 589
f 512 539 463
f 539 525 463
f 584 566 489
f 525 542 513
f 526 514 515
f 569 526 515
f 624 545 527
f 528 527 422
f 528 422 467
f 570 516 556
f 570 623 468
f 468 516 570
f 495 557 546
f 547 557 495
f 558 494 468
f 517 426 573
f 469 559 547
f 574 559 469
f 575 518 517
f 470 574 469
f 575 595 518
f 520 576 498
f 520 577 576
f 520 550 577
f 562 501 519
f 562 531 501
f 532 588 480
f 534 502 552
f 534 564 503
f 504 565 536
f 565 505 536
f 483 603 521
f 602 506 565
f 483 522 603
f 602 509 507
f 509 537 523
f 583 539 512
f 445 540 566
f 445 618 541
f 489 566 540
f 542 491 513
f 544 526 543
f 526 569 594
f 571 527 528
f 571 624 527
f 546 528 467
f 623 558 468
f 558 573 494
f 573 575 517
f 548 574 470
f 472 548 470
f 550 596 577
f 529 562 519
f 714 531 562
f 632 551 531
f 532 551 632
f 534 552 564
f 553 535 521
f 521 600 553
f 603 600 521
f 721 523 537
f 691 555 523
f 554 581 538
f 524 589 554
f 582 583 512
f 566 618 445
f 618 617 541
f 541 617 616
f 539 567 525
f 525 567 542
f 593 491 542
f 640 570 556
f 572 528 546
f 585 557 547
f 559 585 547
f 607 548 472
f 549 607 472
f 561 560 549
f 560 607 549
f 608 595 575
f 596 550 530
f 631 531 714
f 632 531 631
f 535 578 563
f 580 564 552
f 580 552 588
f 535 553 533
f 503 615 504
f 615 565 504
f 538 636 522
f 721 691 523
f 589 581 554
f 567 539 583
f 567 592 542
f 592 593 542
f 606 568 491
f 545 624 569
f 546 557 572
f 573 558 627
f 562 529 612
f 563 613 530
f 563 578 613
f 535 533 578
f 599 580 588
f 533 553 579
f 503 564 615
f 615 601 565
f 602 537 509
f 555 590 512
f 691 590 555
f 582 512 590
f 606 491 593
f 606 620 568
f 543 621 544
f 544 621 556
f 621 640 556
f 528 572 571
f 585 559 586
f 608 573 627
f 608 575 573
f 576 642 561
f 611 612 529
f 578 598 613
f 578 587 598
f 533 587 578
f 533 579 587
f 579 553 635
f 599 564 580
f 600 635 553
f 614 615 564
f 603 522 604
f 602 648 537
f 581 636 538
f 666 590 691
f 582 590 591
f 591 583 582
f 591 605 583
f 605 567 583
f 567 670 592
f 620 584 568
f 670 593 592
f 543 639 621
f 526 594 543
f 622 594 569
f 626 572 557
f 557 585 626
f 608 627 628
f 561 657 560
f 642 657 561
f 642 576 610
f 577 610 576
f 611 529 595
f 597 596 530
f 613 597 530
f 633 532 632
f 633 588 532
f 579 634 587
f 599 588 633
f 635 634 579
f 603 647 600
f 565 601 664
f 664 602 565
f 636 604 522
f 584 619 566
f 605 670 567
f 639 676 621
f 678 543 594
f 624 622 569
f 572 654 571
f 625 654 572
f 572 626 625
f 585 586 626
f 559 655 586
f 574 655 559
f 548 684 574
f 657 609 560
f 610 658 642
f 611 595 608
f 629 611 608
f 659 610 577
f 612 714 562
f 587 718 598
f 614 564 599
f 614 599 645
f 646 664 601
f 603 604 647
f 581 649 636
f 702 590 666
f 590 702 591
f 702 638 591
f 591 638 605
f 566 619 618
f 675 620 606
f 670 694 593
f 694 606 593
f 674 675 606
f 622 678 594
f 640 623 570
f 679 558 623
f 711 627 558
f 681 628 627
f 684 655 574
f 607 684 548
f 560 609 607
f 610 659 658
f 659 577 596
f 630 611 629
f 745 613 598
f 631 661 632
f 661 633 632
f 643 645 599
f 687 635 600
f 614 644 615
f 615 644 601
f 646 663 664
f 664 648 602
f 581 667 637
f 589 667 581
f 589 650 667
f 616 650 589
f 638 703 605
f 703 668 605
f 668 670 605
f 584 620 619
f 677 639 543
f 678 677 543
f 621 676 640
f 641 678 622
f 641 622 624
f 652 641 624
f 624 654 652
f 571 654 624
f 680 654 625
f 711 558 679
f 656 628 681
f 684 607 685
f 609 685 607
f 628 629 608
f 746 714 612
f 731 631 714
f 634 718 587
f 633 643 599
f 645 644 614
f 644 646 601
f 581 637 649
f 651 617 618
f 651 650 616
f 617 651 616
f 618 619 651
f 668 704 670
f 620 672 619
f 694 674 606
f 652 654 653
f 679 623 640
f 625 626 683
f 586 683 626
f 681 627 711
f 685 609 686
f 686 609 657
f 656 744 628
f 744 629 628
f 744 698 629
f 659 699 658
f 660 659 596
f 597 660 596
f 731 700 631
f 718 715 598
f 662 643 633
f 662 633 661
f 635 687 634
f 733 644 645
f 647 687 600
f 644 701 646
f 701 765 646
f 765 663 646
f 664 688 648
f 604 719 647
f 719 604 649
f 636 649 604
f 665 537 648
f 721 537 665
f 651 669 650
f 703 693 668
f 672 651 619
f 651 672 669
f 694 670 704
f 671 620 675
f 672 620 671
f 694 673 674
f 739 676 639
f 640 676 679
f 678 641 710
f 652 710 641
f 652 653 709
f 654 727 653
f 727 654 680
f 625 683 680
f 680 683 682
f 696 683 586
f 696 586 655
f 696 655 684
f 686 697 685
f 642 729 686
f 642 686 657
f 642 658 729
f 660 699 659
f 745 660 597
f 613 745 597
f 598 715 745
f 631 700 661
f 661 700 717
f 732 645 643
f 734 701 644
f 663 688 664
f 637 689 649
f 691 721 690
f 690 666 691
f 650 692 667
f 669 692 650
f 693 756 668
f 756 704 668
f 669 672 708
f 674 706 675
f 706 671 675
f 672 671 759
f 672 759 707
f 639 677 739
f 739 677 726
f 723 726 677
f 695 723 677
f 677 678 695
f 724 679 676
f 678 710 695
f 711 656 681
f 775 696 684
f 712 775 684
f 712 684 685
f 697 712 685
f 686 743 697
f 699 729 658
f 630 629 698
f 699 660 730
f 713 612 611
f 630 713 611
f 715 718 748
f 662 661 717
f 662 717 716
f 716 643 662
f 732 733 645
f 734 644 779
f 765 735 663
f 663 735 688
f 780 647 719
f 688 751 648
f 648 751 665
f 719 649 720
f 689 720 649
f 637 736 689
f 702 666 690
f 767 638 702
f 767 703 638
f 669 705 692
f 756 757 704
f 669 708 705
f 673 784 674
f 672 707 708
f 725 724 676
f 709 710 652
f 761 711 679
f 727 680 682
f 728 683 696
f 728 682 683
f 712 697 763
f 743 763 697
f 764 660 745
f 747 717 700
f 748 718 634
f 687 748 634
f 779 644 733
f 780 719 794
f 689 736 720
f 782 690 721
f 637 667 736
f 690 737 702
f 702 737 767
f 767 693 703
f 757 694 704
f 694 722 673
f 673 722 784
f 674 784 706
f 706 738 671
f 738 759 671
f 724 725 760
f 725 676 739
f 760 679 724
f 709 741 710
f 653 741 709
f 760 761 679
f 742 741 653
f 742 653 727
f 774 711 761
f 682 762 727
f 775 728 696
f 774 656 711
f 656 789 744
f 729 743 686
f 764 730 660
f 746 731 714
f 717 747 838
f 717 838 716
f 716 732 643
f 750 748 687
f 749 733 732
f 733 749 779
f 765 701 810
f 647 750 687
f 750 647 780
f 735 781 688
f 688 781 751
f 720 794 719
f 794 720 753
f 751 752 665
f 752 782 665
f 782 721 665
f 736 753 720
f 782 737 690
f 754 737 782
f 692 736 667
f 692 768 736
f 767 755 693
f 705 758 692
f 708 758 705
f 739 726 772
f 740 723 695
f 740 695 710
f 762 742 727
f 728 762 682
f 775 762 728
f 712 763 788
f 730 729 699
f 713 746 612
f 731 747 700
f 778 732 716
f 778 749 732
f 810 701 734
f 735 765 766
f 781 735 766
f 758 768 692
f 755 756 693
f 694 757 722
f 784 738 706
f 770 708 707
f 758 708 770
f 760 725 771
f 740 773 723
f 740 710 741
f 741 742 786
f 742 807 786
f 762 807 742
f 775 787 762
f 774 789 656
f 775 712 788
f 744 789 698
f 729 808 743
f 776 808 729
f 630 815 713
f 746 747 731
f 715 748 791
f 810 734 779
f 810 793 765
f 794 874 780
f 753 795 794
f 736 783 753
f 768 783 736
f 754 797 737
f 737 797 767
f 756 799 757
f 769 784 785
f 784 769 738
f 738 812 759
f 759 812 707
f 725 802 771
f 725 739 802
f 772 802 739
f 773 726 723
f 806 760 771
f 847 726 773
f 760 832 761
f 786 740 741
f 832 774 761
f 788 813 775
f 835 763 743
f 730 776 729
f 730 764 776
f 630 853 815
f 745 777 764
f 777 790 764
f 887 746 713
f 887 818 746
f 715 777 745
f 715 791 777
f 856 778 716
f 748 750 855
f 781 824 751
f 751 824 752
f 753 862 795
f 752 825 782
f 783 862 753
f 754 782 796
f 768 841 783
f 796 797 754
f 767 797 755
f 758 841 768
f 722 800 784
f 812 828 707
f 758 770 801
f 770 828 801
f 770 707 828
f 772 804 802
f 726 847 772
f 772 847 804
f 803 806 771
f 802 803 771
f 805 847 773
f 806 832 760
f 786 831 740
f 807 762 833
f 762 787 833
f 834 787 775
f 834 775 813
f 813 788 763
f 698 853 630
f 764 790 776
f 777 809 790
f 818 747 746
f 748 792 791
f 819 838 747
f 855 792 748
f 857 778 856
f 857 820 778
f 749 778 820
f 750 780 920
f 779 822 810
f 766 765 793
f 766 824 781
f 825 796 782
f 801 841 758
f 755 798 756
f 756 798 799
f 799 811 757
f 800 785 784
f 769 812 738
f 829 801 828
f 803 802 804
f 867 831 786
f 850 867 786
f 850 786 807
f 832 868 774
f 835 813 763
f 776 790 814
f 809 814 790
f 887 713 815
f 816 809 777
f 777 791 816
f 819 747 818
f 838 856 716
f 749 821 779
f 822 779 821
f 861 825 824
f 824 825 752
f 825 826 796
f 841 877 783
f 796 827 797
f 797 827 755
f 827 798 755
f 722 811 800
f 757 811 722
f 785 845 769
f 865 845 785
f 769 845 812
f 812 845 828
f 848 832 806
f 833 787 834
f 836 835 743
f 808 836 743
f 853 698 789
f 851 808 776
f 809 816 814
f 817 816 791
f 792 817 791
f 858 820 857
f 821 749 820
f 780 874 873
f 822 821 875
f 810 822 823
f 810 823 793
f 861 824 766
f 843 798 827
f 843 799 798
f 799 842 811
f 799 844 842
f 804 846 803
f 803 846 830
f 848 803 830
f 848 806 803
f 849 773 740
f 849 740 831
f 833 883 807
f 869 789 774
f 835 934 813
f 808 851 836
f 851 776 852
f 814 852 776
f 885 916 815
f 885 815 853
f 916 887 815
f 816 870 814
f 871 816 837
f 817 837 816
f 792 854 817
f 890 838 819
f 780 873 920
f 859 821 820
f 858 859 820
f 875 821 859
f 875 823 822
f 875 891 823
f 795 876 794
f 793 823 766
f 861 766 823
f 825 839 826
f 826 839 840
f 826 840 796
f 878 796 840
f 879 841 801
f 796 878 827
f 878 880 827
f 827 880 843
f 881 879 801
f 800 864 785
f 881 801 829
f 843 844 799
f 864 865 785
f 865 895 845
f 845 895 828
f 829 895 881
f 829 828 895
f 882 832 848
f 867 849 831
f 869 774 868
f 869 853 789
f 870 852 814
f 870 816 871
f 817 854 837
f 818 889 819
f 792 855 854
f 856 838 890
f 875 859 860
f 891 861 823
f 783 877 862
f 863 839 861
f 861 839 825
f 877 841 879
f 941 878 840
f 893 842 844
f 811 864 800
f 842 864 811
f 805 912 847
f 849 805 773
f 848 976 882
f 830 976 848
f 866 849 867
f 932 868 832
f 882 932 832
f 883 850 807
f 883 833 834
f 868 935 869
f 934 897 813
f 836 915 835
f 869 885 853
f 851 852 884
f 884 852 870
f 900 818 887
f 837 872 871
f 854 872 837
f 750 920 855
f 921 856 890
f 921 857 856
f 904 858 857
f 860 858 904
f 860 859 858
f 876 955 794
f 875 905 891
f 795 923 876
f 862 923 795
f 879 927 877
f 844 892 893
f 842 893 864
f 864 894 865
f 893 894 864
f 894 929 865
f 896 830 846
f 912 804 847
f 912 805 849
f 897 834 813
f 914 934 835
f 915 914 835
f 871 886 870
f 871 899 886
f 872 899 871
f 872 901 899
f 872 888 901
f 854 888 872
f 854 902 888
f 855 902 854
f 920 902 855
f 889 890 819
f 922 860 904
f 955 874 794
f 905 875 860
f 922 905 860
f 891 863 861
f 863 907 839
f 907 840 839
f 941 908 878
f 880 878 908
f 880 909 843
f 843 909 844
f 909 892 844
f 910 893 892
f 929 895 865
f 881 895 944
f 912 846 804
f 896 976 830
f 931 912 849
f 850 866 867
f 913 933 834
f 913 834 897
f 836 898 915
f 898 836 851
f 884 898 851
f 968 885 935
f 935 885 869
f 936 884 886
f 886 884 870
f 901 981 899
f 902 920 919
f 970 890 889
f 970 921 890
f 903 904 857
f 903 857 921
f 904 903 922
f 905 922 984
f 906 891 905
f 891 906 924
f 877 923 862
f 891 924 863
f 907 863 924
f 907 924 926
f 927 925 877
f 907 941 840
f 880 908 909
f 893 910 894
f 929 894 910
f 911 895 929
f 911 944 895
f 912 930 846
f 896 846 930
f 931 849 866
f 933 883 834
f 950 868 932
f 868 950 935
f 913 897 934
f 968 916 885
f 884 936 898
f 886 937 936
f 901 888 917
f 900 889 818
f 902 917 888
f 902 919 917
f 921 953 903
f 953 1035 903
f 903 1035 939
f 874 955 873
f 939 922 903
f 877 925 923
f 940 926 924
f 927 956 925
f 926 986 907
f 941 907 986
f 908 958 909
f 944 928 881
f 961 896 930
f 945 930 912
f 945 912 931
f 962 945 931
f 946 931 866
f 948 866 850
f 850 883 948
f 982 887 916
f 899 937 886
f 899 981 937
f 981 901 938
f 917 938 901
f 918 889 900
f 919 952 917
f 873 919 920
f 953 921 970
f 939 984 922
f 984 906 905
f 940 924 906
f 957 927 879
f 928 879 881
f 892 1001 910
f 1001 942 910
f 910 960 929
f 942 960 910
f 975 944 911
f 963 930 945
f 977 976 896
f 963 945 962
f 946 962 931
f 948 946 866
f 947 882 976
f 947 932 882
f 979 948 883
f 933 965 883
f 966 933 913
f 980 913 934
f 991 980 949
f 949 980 934
f 914 949 934
f 991 949 992
f 992 949 915
f 914 915 949
f 996 968 935
f 996 935 950
f 967 915 898
f 936 995 898
f 951 916 968
f 951 982 916
f 982 900 887
f 938 1007 981
f 900 982 918
f 917 969 938
f 917 952 969
f 918 970 889
f 952 919 954
f 1009 953 970
f 919 873 954
f 873 955 954
f 876 983 955
f 876 923 983
f 1010 906 984
f 925 956 923
f 1010 940 906
f 940 973 926
f 985 956 957
f 956 927 957
f 973 1037 926
f 986 908 941
f 959 957 879
f 959 879 928
f 943 959 928
f 960 911 929
f 975 943 928
f 928 944 975
f 930 963 961
f 977 896 961
f 964 963 962
f 978 962 946
f 948 978 946
f 979 883 965
f 947 1005 932
f 966 965 933
f 1005 950 932
f 966 913 980
f 915 967 992
f 938 1008 1007
f 1008 938 969
f 952 954 969
f 954 955 971
f 955 983 971
f 923 972 983
f 956 972 923
f 958 988 909
f 987 960 974
f 987 911 960
f 988 1001 909
f 909 1001 892
f 942 974 960
f 963 989 961
f 977 947 976
f 1002 977 961
f 990 989 963
f 1003 947 977
f 978 948 979
f 1018 947 1003
f 1018 1005 947
f 980 965 966
f 994 967 995
f 995 967 898
f 997 995 936
f 1031 951 968
f 937 997 936
f 1006 937 981
f 1008 1022 1007
f 1009 970 918
f 1033 953 1009
f 1033 1035 953
f 985 972 956
f 1010 984 1036
f 1039 986 926
f 986 1012 908
f 1012 958 908
f 943 1000 959
f 911 987 975
f 975 987 1013
f 961 989 1002
f 963 964 1028
f 978 1015 962
f 990 963 1028
f 964 962 1015
f 979 1016 978
f 1015 978 1016
f 1004 1016 979
f 1004 979 965
f 1019 965 980
f 950 1021 996
f 967 993 992
f 996 1031 968
f 937 1066 997
f 1006 1066 937
f 1032 918 982
f 954 998 969
f 954 971 1034
f 983 972 971
f 1053 940 1010
f 973 940 1053
f 999 1055 957
f 1011 926 1037
f 1011 1039 926
f 999 957 959
f 986 1039 1012
f 1000 999 959
f 1057 988 958
f 1026 943 1013
f 1026 1000 943
f 943 975 1013
f 988 1041 1001
f 990 1027 989
f 989 1027 1002
f 1002 1003 977
f 1027 990 1028
f 1017 1004 965
f 1017 965 1019
f 1021 950 1005
f 992 1048 991
f 993 1049 992
f 992 1049 1048
f 967 994 993
f 1068 951 1031
f 1095 1009 918
f 998 954 1034
f 1055 985 957
f 1011 1038 1039
f 958 1012 1040
f 1040 1057 958
f 1000 1056 999
f 987 974 1025
f 987 1025 1013
f 974 942 1086
f 1057 1041 988
f 1001 1086 942
f 1014 1003 1002
f 1002 1027 1014
f 1014 1027 1042
f 1058 1028 964
f 1029 1003 1014
f 1017 1019 1045
f 1029 1018 1003
f 1019 980 1020
f 1046 1005 1018
f 1020 980 991
f 1005 1046 1021
f 1047 1020 991
f 1050 996 1021
f 1050 1031 996
f 997 994 995
f 1066 1065 997
f 951 1068 982
f 981 1007 1006
f 1068 1032 982
f 969 998 1008
f 1095 918 1032
f 939 1036 984
f 1055 1023 985
f 1024 1010 1036
f 1024 1053 1010
f 1054 1037 973
f 1053 1054 973
f 1040 1012 1071
f 1103 1013 1025
f 1103 1026 1013
f 1056 1000 1088
f 1026 1088 1000
f 1060 964 1015
f 1043 1015 1016
f 1076 1027 1028
f 1004 1043 1016
f 1044 1043 1004
f 1045 1004 1017
f 1044 1004 1045
f 1029 1046 1018
f 991 1048 1047
f 1021 1046 1063
f 1049 993 1030
f 994 1030 993
f 994 997 1030
f 1078 1031 1050
f 1065 1030 997
f 1022 1006 1007
f 1008 1080 1022
f 1095 1033 1009
f 972 1034 971
f 1052 939 1035
f 985 1083 972
f 1036 939 1052
f 1023 1083 985
f 1038 1098 1039
f 1055 999 1056
f 1072 1057 1040
f 1057 1085 1041
f 964 1060 1058
f 1058 1059 1028
f 1043 1060 1015
f 1076 1028 1059
f 1062 1029 1014
f 1020 1045 1019
f 1062 1046 1029
f 1063 1050 1021
f 1079 1065 1066
f 1067 1066 1006
f 1006 1022 1080
f 1125 998 1051
f 998 1034 1051
f 1069 1035 1033
f 1069 1052 1035
f 972 1081 1034
f 1083 1081 972
f 1084 1037 1054
f 1084 1011 1037
f 1084 1038 1011
f 1039 1071 1012
f 1098 1071 1039
f 1074 1041 1085
f 1041 1073 1001
f 1001 1073 1086
f 1027 1075 1042
f 1075 1027 1076
f 1059 1058 1089
f 1089 1058 1060
f 1042 1062 1014
f 1061 1043 1044
f 1045 1061 1044
f 1106 1061 1045
f 1106 1045 1020
f 1046 1077 1063
f 1062 1077 1046
f 1049 1064 1048
f 1048 1064 1047
f 1049 1030 1064
f 1093 1050 1063
f 1093 1078 1050
f 1031 1078 1068
f 1067 1006 1080
f 1124 1095 1032
f 998 1125 1008
f 1070 1036 1052
f 1097 1024 1070
f 1070 1024 1036
f 1097 1053 1024
f 1084 1098 1038
f 1055 1099 1023
f 1055 1056 1099
f 1072 1040 1071
f 1025 974 1087
f 1115 1025 1087
f 1025 1115 1103
f 1103 1088 1026
f 1072 1085 1057
f 1086 1087 974
f 1041 1074 1073
f 1091 1062 1042
f 1043 1061 1134
f 1092 1020 1047
f 1047 1064 1092
f 1137 1063 1077
f 1107 1093 1063
f 1067 1079 1066
f 1109 1068 1078
f 1109 1032 1068
f 1080 1110 1094
f 1096 1033 1095
f 1111 1069 1033
f 1051 1034 1081
f 1082 1069 1111
f 1082 1052 1069
f 1082 1070 1052
f 1127 1070 1082
f 1097 1070 1127
f 1054 1053 1097
f 1071 1100 1072
f 1100 1101 1072
f 1101 1085 1072
f 1074 1132 1073
f 1075 1090 1042
f 1042 1090 1091
f 1076 1104 1075
f 1059 1116 1076
f 1089 1117 1059
f 1043 1118 1060
f 1060 1118 1089
f 1090 1075 1104
f 1104 1076 1116
f 1117 1116 1059
f 1135 1106 1092
f 1106 1020 1092
f 1091 1077 1062
f 1091 1137 1077
f 1030 1121 1064
f 1065 1121 1030
f 1137 1107 1063
f 1079 1122 1065
f 1093 1108 1078
f 1067 1140 1079
f 1140 1067 1094
f 1109 1078 1108
f 1080 1094 1067
f 1032 1109 1124
f 1096 1111 1033
f 1023 1128 1083
f 1184 1112 1097
f 1127 1184 1097
f 1112 1054 1097
f 1054 1112 1084
f 1129 1098 1084
f 1100 1071 1098
f 1113 1101 1100
f 1056 1102 1099
f 1131 1085 1101
f 1131 1074 1085
f 1131 1132 1074
f 1088 1103 1102
f 1088 1102 1056
f 1086 1073 1087
f 1043 1134 1118
f 1146 1104 1116
f 1117 1089 1118
f 1105 1091 1090
f 1135 1061 1106
f 1091 1105 1137
f 1120 1064 1121
f 1122 1121 1065
f 1123 1093 1107
f 1123 1108 1093
f 1094 1110 1179
f 1008 1110 1080
f 1096 1095 1124
f 1008 1125 1110
f 1051 1081 1141
f 1083 1141 1081
f 1128 1141 1083
f 1099 1128 1023
f 1112 1129 1084
f 1098 1130 1100
f 1130 1113 1100
f 1101 1113 1114
f 1101 1114 1131
f 1116 1117 1146
f 1145 1134 1061
f 1119 1090 1104
f 1092 1120 1135
f 1092 1064 1120
f 1122 1136 1121
f 1152 1107 1137
f 1140 1094 1179
f 1125 1181 1110
f 1126 1111 1096
f 1129 1112 1184
f 1129 1161 1130
f 1129 1130 1098
f 1143 1113 1130
f 1143 1114 1113
f 1102 1163 1099
f 1132 1131 1164
f 1073 1132 1087
f 1087 1132 1133
f 1087 1133 1115
f 1165 1103 1115
f 1103 1165 1102
f 1118 1147 1117
f 1118 1145 1147
f 1117 1149 1146
f 1134 1145 1118
f 1061 1135 1145
f 1104 1146 1119
f 1149 1117 1147
f 1090 1119 1105
f 1121 1136 1120
f 1136 1138 1148
f 1105 1152 1137
f 1138 1136 1177
f 1152 1139 1107
f 1177 1136 1154
f 1079 1154 1122
f 1122 1154 1136
f 1196 1123 1139
f 1155 1123 1196
f 1079 1140 1154
f 1123 1155 1108
f 1158 1109 1108
f 1158 1157 1109
f 1157 1124 1109
f 1157 1096 1124
f 1157 1126 1096
f 1126 1082 1111
f 1126 1159 1082
f 1159 1127 1082
f 1182 1127 1159
f 1127 1182 1184
f 1161 1129 1184
f 1161 1162 1130
f 1130 1162 1142
f 1142 1143 1130
f 1114 1143 1144
f 1114 1144 1131
f 1131 1144 1186
f 1186 1188 1131
f 1131 1188 1164
f 1132 1164 1133
f 1164 1187 1133
f 1148 1145 1135
f 1120 1148 1135
f 1146 1151 1119
f 1151 1146 1149
f 1167 1147 1145
f 1148 1167 1145
f 1136 1148 1120
f 1170 1105 1119
f 1170 1119 1150
f 1150 1119 1151
f 1151 1149 1168
f 1170 1152 1105
f 1154 1153 1177
f 1139 1123 1107
f 1154 1140 1198
f 1158 1108 1155
f 1140 1179 1156
f 1231 1110 1181
f 1157 1180 1126
f 1125 1051 1181
f 1200 1126 1180
f 1200 1159 1126
f 1181 1051 1141
f 1160 1142 1202
f 1160 1185 1142
f 1128 1207 1141
f 1162 1202 1142
f 1207 1128 1099
f 1143 1142 1185
f 1143 1185 1144
f 1219 1163 1102
f 1133 1165 1115
f 1165 1219 1102
f 1147 1168 1149
f 1147 1166 1168
f 1147 1167 1166
f 1166 1167 1169
f 1151 1168 1174
f 1174 1168 1172
f 1172 1168 1166
f 1172 1166 1169
f 1189 1169 1167
f 1189 1167 1148
f 1138 1189 1148
f 1150 1171 1170
f 1150 1173 1171
f 1151 1173 1150
f 1176 1173 1151
f 1175 1139 1152
f 1170 1175 1152
f 1176 1151 1174
f 1138 1177 1192
f 1194 1175 1170
f 1194 1170 1171
f 1175 1196 1139
f 1175 1211 1196
f 1211 1175 1194
f 1194 1171 1210
f 1210 1171 1173
f 1177 1153 1195
f 1153 1154 1198
f 1140 1156 1198
f 1155 1178 1158
f 1178 1157 1158
f 1178 1180 1157
f 1179 1110 1231
f 1180 1201 1200
f 1181 1141 1183
f 1204 1218 1160
f 1207 1183 1141
f 1184 1182 1217
f 1161 1184 1217
f 1162 1161 1206
f 1162 1206 1202
f 1160 1218 1185
f 1185 1218 1246
f 1099 1163 1207
f 1144 1185 1246
f 1144 1246 1186
f 1164 1188 1187
f 1169 1189 1221
f 1138 1190 1189
f 1169 1221 1172
f 1190 1221 1189
f 1208 1172 1221
f 1192 1191 1190
f 1192 1190 1138
f 1174 1193 1176
f 1174 1224 1193
f 1224 1174 1172
f 1224 1172 1208
f 1177 1222 1192
f 1176 1193 1173
f 1193 1210 1173
f 1222 1177 1195
f 1194 1210 1225
f 1198 1209 1153
f 1153 1209 1195
f 1197 1155 1196
f 1197 1178 1155
f 1214 1199 1178
f 1199 1180 1178
f 1156 1179 1231
f 1231 1181 1215
f 1181 1183 1215
f 1203 1205 1204
f 1201 1159 1200
f 1182 1159 1201
f 1160 1202 1203
f 1203 1204 1160
f 1161 1217 1206
f 1163 1237 1207
f 1133 1187 1220
f 1220 1165 1133
f 1190 1191 1221
f 1222 1191 1192
f 1226 1210 1193
f 1194 1225 1211
f 1211 1197 1196
f 1212 1197 1211
f 1209 1198 1213
f 1212 1214 1197
f 1197 1214 1178
f 1228 1199 1214
f 1199 1201 1180
f 1202 1233 1203
f 1203 1233 1205
f 1217 1201 1216
f 1217 1182 1201
f 1217 1216 1206
f 1206 1216 1202
f 1183 1207 1235
f 1236 1188 1186
f 1188 1236 1187
f 1236 1259 1187
f 1219 1237 1163
f 1259 1220 1187
f 1165 1220 1219
f 1223 1193 1224
f 1210 1226 1225
f 1225 1227 1211
f 1227 1225 1260
f 1211 1239 1212
f 1239 1211 1227
f 1228 1214 1212
f 1229 1228 1242
f 1198 1156 1261
f 1229 1242 1230
f 1261 1156 1231
f 1229 1199 1228
f 1230 1243 1232
f 1234 1229 1230
f 1233 1230 1232
f 1233 1232 1205
f 1216 1201 1229
f 1229 1201 1199
f 1216 1229 1234
f 1234 1233 1202
f 1234 1230 1233
f 1205 1232 1255
f 1216 1234 1202
f 1218 1204 1256
f 1235 1207 1245
f 1245 1207 1237
f 1246 1236 1186
f 1219 1220 1248
f 1219 1248 1237
f 1259 1238 1220
f 1224 1208 1223
f 1208 1221 1250
f 1250 1221 1191
f 1222 1251 1191
f 1222 1195 1251
f 1226 1260 1225
f 1209 1240 1195
f 1209 1213 1240
f 1252 1227 1260
f 1252 1239 1227
f 1241 1212 1239
f 1241 1239 1252
f 1212 1241 1242
f 1242 1228 1212
f 1242 1241 1243
f 1243 1241 1253
f 1230 1242 1243
f 1243 1253 1254
f 1243 1254 1232
f 1254 1255 1232
f 1255 1256 1205
f 1205 1256 1204
f 1257 1183 1235
f 1218 1256 1244
f 1244 1246 1218
f 1237 1258 1245
f 1246 1244 1247
f 1248 1249 1258
f 1248 1258 1237
f 1236 1246 1247
f 1220 1238 1249
f 1220 1249 1248
f 1193 1223 1226
f 1250 1191 1251
f 1195 1240 1267
f 1252 1268 1241
f 1268 1253 1241
f 1213 1269 1240
f 1261 1269 1213
f 1213 1198 1261
f 1215 1261 1231
f 1261 1215 1257
f 1215 1183 1257
f 1236 1247 1259
f 1208 1250 1223
f 1223 1266 1226
f 1226 1266 1260
f 1267 1251 1195
f 1268 1252 1260
f 1274 1253 1268
f 1261 1257 1262
f 1235 1271 1257
f 1257 1271 1262
f 1245 1270 1271
f 1235 1245 1271
f 1263 1244 1256
f 1258 1264 1270
f 1258 1270 1245
f 1244 1272 1247
f 1264 1258 1249
f 1238 1272 1249
f 1249 1272 1264
f 1259 1247 1238
f 1238 1247 1272
f 1250 1265 1223
f 1250 1251 1265
f 1251 1267 1273
f 1268 1260 1266
f 1273 1267 1275
f 1275 1267 1240
f 1276 1240 1269
f 1261 1262 1269
f 1256 1255 1263
f 1263 1255 1283
f 1263 1272 1244
f 1251 1273 1265
f 1265 1273 1279
f 1223 1265 1266
f 1266 1284 1268
f 1274 1268 1284
f 1280 1273 1275
f 1276 1275 1240
f 1277 1253 1274
f 1253 1277 1254
f 1262 1278 1276
f 1269 1262 1276
f 1255 1254 1281
f 1255 1281 1283
f 1270 1278 1271
f 1271 1278 1262
f 1263 1283 1272
f 1279 1266 1265
f 1279 1284 1266
f 1280 1279 1273
f 1279 1280 1284
f 1276 1280 1275
f 1276 1278 1286
f 1281 1254 1277
f 1283 1281 1282
f 1278 1264 1286
f 1270 1264 1278
f 1272 1283 1282
f 1272 1282 1264
f 1284 1277 1274
f 1277 1284 1285
f 1286 1284 1280
f 1285 1284 1286
f 1276 1286 1280
f 1277 1285 1281
f 1281 1285 1282
f 1285 1286 1282
f 1264 1282 1286
# 2568 faces, 0 coords texture

# End of File
