####
#
# OBJ File Generated by Meshlab
#
####
# Object PBR9.obj
#
# Vertices: 1080
# Faces: 2156
#
####
v 18655.505859 11421.372070 17226.345703
v 18501.716797 11457.431641 17244.048828
v 18754.869141 11426.452148 17223.128906
v 18897.689453 11432.824219 17216.154297
v 18639.945312 11568.698242 17239.910156
v 18502.160156 11543.573242 17254.845703
v 18776.542969 11526.532227 17229.529297
v 18994.041016 11497.594727 17220.140625
v 18776.394531 11602.230469 17239.951172
v 18946.630859 11597.345703 17236.638672
v 18962.246094 11661.868164 17248.058594
v 18782.031250 11666.786133 17255.582031
v 19056.587891 11589.612305 17238.751953
v 19013.386719 11717.582031 17263.914062
v 18486.794922 11265.516602 17263.523438
v 18630.835938 11268.604492 17244.265625
v 18334.421875 11278.419922 17309.007812
v 18313.617188 11340.483398 17307.121094
v 18411.257812 11339.064453 17270.546875
v 18554.039062 11368.750977 17233.832031
v 18762.494141 11348.538086 17226.267578
v 18849.867188 11307.294922 17230.916016
v 19102.585938 11443.283203 17226.070312
v 18439.541016 11400.553711 17254.929688
v 18261.703125 11479.788086 17298.892578
v 18402.302734 11513.564453 17266.966797
v 18328.447266 11581.098633 17299.314453
v 18442.986328 11595.150391 17276.734375
v 18590.226562 11621.897461 17259.259766
v 19114.921875 11540.774414 17236.150391
v 19189.753906 11549.278320 17249.082031
v 18537.345703 11656.777344 17280.005859
v 18708.902344 11708.176758 17278.300781
v 19160.185547 11676.060547 17270.083984
v 18869.933594 11798.050781 17306.201172
v 18967.298828 11727.720703 17266.757812
v 18525.703125 11185.610352 17283.623047
v 18599.433594 11189.450195 17271.234375
v 18438.408203 11156.291992 17320.957031
v 18724.203125 11149.085938 17273.214844
v 18433.056641 11243.273438 17284.085938
v 18816.779297 11167.633789 17262.972656
v 18316.031250 11233.138672 17352.535156
v 18774.195312 11252.727539 17242.935547
v 19045.580078 11198.427734 17260.933594
v 18979.023438 11353.885742 17226.294922
v 18246.519531 11356.286133 17349.292969
v 19237.523438 11311.026367 17263.414062
v 19179.720703 11406.588867 17241.685547
v 18247.699219 11404.107422 17321.824219
v 19325.238281 11390.234375 17276.941406
v 18287.498047 11423.948242 17297.119141
v 19212.419922 11460.886719 17246.498047
v 18205.955078 11535.284180 17331.470703
v 18364.753906 11654.709961 17319.441406
v 18441.291016 11652.958008 17295.160156
v 19277.017578 11621.073242 17278.531250
v 19330.382812 11695.442383 17303.283203
v 18569.726562 11701.958984 17295.640625
v 18733.900391 11775.796875 17307.558594
v 19229.332031 11716.210938 17292.251953
v 19082.494141 11755.593750 17282.558594
v 19308.310547 11828.779297 17344.525391
v 19173.140625 10860.592773 17367.068359
v 19288.572266 10893.504883 17368.855469
v 19314.666016 10830.774414 17410.646484
v 19289.017578 10955.669922 17344.531250
v 19384.136719 10935.067383 17363.210938
v 19114.830078 10993.442383 17312.263672
v 19382.308594 11008.812500 17343.158203
v 19204.898438 11038.717773 17312.697266
v 18608.298828 11039.058594 17333.609375
v 19419.074219 11148.110352 17325.546875
v 18707.341797 11066.488281 17303.267578
v 19001.062500 11028.391602 17294.056641
v 19491.667969 11031.500977 17360.087891
v 18832.457031 11006.786133 17308.570312
v 18896.378906 11072.607422 17287.167969
v 19001.884766 11117.385742 17276.830078
v 19550.359375 11057.634766 17372.789062
v 19121.318359 11115.931641 17287.277344
v 19518.537109 11222.345703 17335.589844
v 19135.855469 11332.290039 17241.843750
v 19271.072266 11166.384766 17297.941406
v 19407.990234 11230.817383 17312.123047
v 19470.275391 11307.325195 17318.078125
v 19382.910156 11307.084961 17299.779297
v 19559.474609 11327.257812 17338.210938
v 18188.921875 11491.572266 17336.476562
v 19464.263672 11431.384766 17313.537109
v 19547.742188 11470.671875 17339.730469
v 19372.318359 11471.245117 17286.292969
v 19308.640625 11537.170898 17274.167969
v 19443.035156 11560.412109 17310.322266
v 19486.156250 11673.736328 17340.195312
v 18479.607422 11748.530273 17339.375000
v 19385.195312 11658.787109 17307.767578
v 18567.234375 11765.082031 17330.855469
v 19340.767578 11748.560547 17318.904297
v 18808.156250 11852.951172 17339.908203
v 19028.994141 11856.893555 17333.080078
v 19074.894531 10812.453125 17391.460938
v 19196.876953 10769.556641 17430.785156
v 18922.070312 10852.162109 17361.412109
v 19039.017578 10775.767578 17423.224609
v 19036.837891 10867.105469 17355.287109
v 19143.343750 10904.961914 17344.384766
v 19389.451172 10883.156250 17389.990234
v 18809.494141 10880.286133 17373.160156
v 19018.951172 10942.553711 17319.830078
v 19488.099609 10928.148438 17394.859375
v 18697.388672 10996.271484 17333.691406
v 18776.646484 10948.189453 17338.716797
v 18897.111328 10956.535156 17317.921875
v 18378.037109 11149.553711 17367.578125
v 19612.154297 11284.322266 17357.466797
v 18217.167969 11349.940430 17393.558594
v 19646.007812 11353.708984 17367.662109
v 18154.982422 11539.165039 17384.263672
v 18222.966797 11660.193359 17379.794922
v 18256.314453 11625.928711 17343.085938
v 19604.699219 11498.460938 17367.056641
v 19541.113281 11553.683594 17342.810547
v 19480.160156 11758.630859 17355.005859
v 18694.794922 11823.372070 17339.876953
v 18946.642578 11899.925781 17356.076172
v 19161.582031 11862.370117 17342.125000
v 18858.402344 10805.906250 17429.732422
v 18763.476562 10854.516602 17422.548828
v 18545.699219 11015.122070 17381.798828
v 18484.486328 11099.625000 17336.716797
v 19626.541016 11200.618164 17380.769531
v 19656.507812 11247.600586 17392.886719
v 19673.548828 11448.716797 17408.064453
v 18140.074219 11609.201172 17420.619141
v 18153.566406 11696.958984 17450.552734
v 19633.886719 11567.742188 17396.066406
v 19571.492188 11714.890625 17387.980469
v 19427.361328 11791.505859 17350.998047
v 18870.335938 11947.995117 17389.958984
v 19137.652344 11975.464844 17397.533203
v 19381.353516 11894.016602 17388.798828
v 19252.414062 11960.739258 17401.898438
v 18940.666016 10774.520508 17440.486328
v 19121.828125 10704.221680 17486.527344
v 19145.386719 10741.670898 17449.056641
v 19410.744141 10845.768555 17422.994141
v 19547.541016 10923.124023 17437.873047
v 18154.228516 11453.280273 17420.521484
v 18138.953125 11510.079102 17417.433594
v 18112.691406 11705.394531 17493.980469
v 18302.781250 11719.098633 17381.250000
v 19638.656250 11668.918945 17425.199219
v 18639.929688 11853.973633 17369.939453
v 19610.335938 11791.986328 17448.615234
v 19492.496094 11878.470703 17412.847656
v 19320.423828 11919.497070 17388.169922
v 19024.591797 10708.603516 17495.556641
v 19222.273438 10679.971680 17530.404297
v 19269.794922 10740.799805 17473.039062
v 19345.835938 10770.838867 17471.841797
v 19587.388672 10998.797852 17422.029297
v 18449.427734 11064.835938 17402.822266
v 18329.023438 11167.367188 17416.804688
v 18273.710938 11237.018555 17418.412109
v 18208.736328 11328.482422 17436.216797
v 18133.076172 11478.369141 17456.080078
v 18104.558594 11597.458984 17482.804688
v 18220.691406 11809.697266 17487.705078
v 18379.105469 11743.105469 17367.427734
v 19665.082031 11690.731445 17460.238281
v 18501.798828 11818.447266 17381.142578
v 18783.550781 11931.093750 17391.599609
v 19628.132812 11831.806641 17492.511719
v 19553.507812 11841.715820 17427.705078
v 18974.175781 12007.091797 17419.796875
v 18952.087891 12186.242188 17544.750000
v 19427.525391 10801.112305 17473.255859
v 19510.455078 10893.951172 17428.816406
v 18688.416016 10917.064453 17392.507812
v 19658.027344 10928.635742 17545.048828
v 18588.777344 10916.983398 17478.775391
v 19640.472656 11053.625977 17438.125000
v 19673.308594 11129.275391 17430.035156
v 19696.033203 11242.041016 17431.337891
v 19731.673828 11217.012695 17477.576172
v 19745.337891 11329.399414 17482.279297
v 19724.218750 11406.916992 17459.910156
v 19797.699219 11460.111328 17554.449219
v 18083.906250 11685.113281 17523.609375
v 18465.154297 11868.321289 17427.617188
v 18607.007812 11955.688477 17448.216797
v 19439.718750 11959.494141 17438.597656
v 19055.099609 12020.210938 17423.285156
v 19284.861328 12102.675781 17488.925781
v 19349.050781 12072.458008 17483.164062
v 19123.369141 12084.864258 17465.318359
v 18932.875000 10715.856445 17522.896484
v 19379.037109 10714.971680 17547.646484
v 18394.769531 11085.295898 17456.962891
v 19733.650391 11133.090820 17504.535156
v 18196.312500 11284.202148 17568.025391
v 19682.279297 11555.892578 17437.425781
v 18071.398438 11613.550781 17563.207031
v 18070.984375 11660.814453 17549.011719
v 19729.039062 11619.028320 17520.888672
v 18149.214844 11775.158203 17503.347656
v 18408.062500 11915.343750 17483.527344
v 19556.539062 11966.080078 17492.980469
v 19491.556641 11996.343750 17478.525391
v 19092.314453 10656.619141 17555.037109
v 19552.964844 10817.378906 17547.769531
v 19607.574219 10875.199219 17540.419922
v 19734.685547 10968.743164 17598.593750
v 18510.425781 10956.015625 17521.865234
v 18328.968750 11130.194336 17500.501953
v 18267.271484 11187.960938 17551.027344
v 19780.207031 11258.272461 17528.455078
v 18154.400391 11373.807617 17534.548828
v 18100.615234 11456.169922 17607.802734
v 19721.363281 11689.720703 17544.347656
v 18071.843750 11762.887695 17584.447266
v 18127.373047 11813.583984 17549.550781
v 18633.103516 12059.166016 17516.576172
v 19640.050781 11874.767578 17541.343750
v 18863.394531 12056.737305 17464.437500
v 19412.640625 12073.378906 17500.484375
v 19493.136719 12055.708984 17522.593750
v 19192.822266 12117.940430 17489.828125
v 18833.972656 10765.080078 17508.732422
v 19475.964844 10780.355469 17528.714844
v 18733.972656 10820.866211 17495.525391
v 19719.642578 11054.760742 17526.949219
v 19819.384766 11324.072266 17576.222656
v 19805.162109 11544.269531 17603.369141
v 19678.650391 11757.373047 17511.955078
v 18198.183594 11924.766602 17586.986328
v 18310.912109 11891.547852 17505.121094
v 18725.166016 12091.974609 17516.830078
v 19573.894531 11992.985352 17539.857422
v 18827.630859 12203.882812 17575.388672
v 19354.371094 12165.088867 17546.867188
v 19413.830078 12153.946289 17559.679688
v 19307.425781 12223.958984 17576.455078
v 19028.742188 10648.339844 17584.333984
v 18668.541016 10836.740234 17534.287109
v 18290.574219 11145.212891 17593.656250
v 19794.949219 11142.191406 17575.929688
v 18043.769531 11740.845703 17634.445312
v 18250.802734 11900.389648 17539.107422
v 18537.031250 12029.594727 17524.115234
v 19049.841797 12197.888672 17544.558594
v 19133.498047 12228.111328 17562.289062
v 19093.400391 10593.302734 17669.507812
v 19174.531250 10617.827148 17600.507812
v 18821.595703 10712.123047 17615.841797
v 19394.310547 10669.899414 17606.039062
v 19519.968750 10711.640625 17636.226562
v 18614.990234 10845.201172 17594.597656
v 19716.693359 10866.068359 17664.039062
v 19794.824219 11009.968750 17649.794922
v 19834.529297 11221.053711 17614.992188
v 19838.679688 11440.238281 17620.867188
v 19860.449219 11494.163086 17694.904297
v 19707.138672 11764.742188 17576.455078
v 18080.816406 11878.486328 17633.175781
v 18399.378906 12101.043945 17628.029297
v 19623.023438 11975.803711 17613.732422
v 19541.546875 12092.370117 17600.537109
v 19509.203125 12088.663086 17562.708984
v 18686.662109 12322.435547 17691.070312
v 19432.380859 12227.475586 17627.791016
v 19503.564453 12186.740234 17652.533203
v 19094.687500 12336.950195 17638.566406
v 19211.814453 12281.124023 17601.210938
v 19374.625000 12256.953125 17621.080078
v 18975.984375 12335.974609 17645.484375
v 19207.707031 10567.646484 17712.582031
v 19302.634766 10637.862305 17606.142578
v 18824.570312 10670.555664 17702.511719
v 19561.406250 10707.416992 17678.531250
v 19851.335938 11105.227539 17683.300781
v 19900.523438 11233.165039 17726.927734
v 19869.472656 11351.190430 17663.632812
v 19823.958984 11574.694336 17660.275391
v 18059.654297 11931.599609 17702.285156
v 18886.050781 12316.831055 17644.177734
v 19296.904297 12360.741211 17666.054688
v 19321.257812 10564.218750 17735.310547
v 18995.503906 10609.810547 17680.212891
v 18913.552734 10666.479492 17625.945312
v 19439.052734 10639.292969 17673.027344
v 18755.292969 10743.791992 17623.613281
v 19627.453125 10791.061523 17636.865234
v 18532.228516 10890.775391 17646.855469
v 18451.412109 10972.057617 17620.009766
v 19794.628906 10927.087891 17723.617188
v 18248.964844 11173.026367 17688.191406
v 18163.576172 11303.570312 17662.949219
v 19901.996094 11373.379883 17738.593750
v 18080.251953 11520.164062 17601.820312
v 18032.591797 11830.421875 17671.320312
v 18148.818359 11942.206055 17628.753906
v 18318.871094 12070.016602 17640.703125
v 18486.867188 12141.226562 17624.070312
v 19160.943359 10544.957031 17776.328125
v 19063.164062 10573.292969 17730.078125
v 18606.187500 10820.682617 17678.373047
v 19664.240234 10769.717773 17715.933594
v 18455.351562 10929.922852 17727.285156
v 18374.814453 11029.514648 17666.162109
v 18321.679688 11070.631836 17716.582031
v 19927.849609 11266.705078 17779.867188
v 19896.642578 11445.255859 17773.064453
v 19811.847656 11648.064453 17721.763672
v 19753.238281 11734.884766 17652.242188
v 18089.234375 11971.849609 17703.443359
v 19591.648438 12082.455078 17692.240234
v 18609.765625 12242.011719 17655.964844
v 19453.087891 12327.509766 17718.882812
v 19081.326172 12450.475586 17712.201172
v 19405.156250 12353.202148 17702.255859
v 18795.431641 12337.203125 17674.890625
v 18999.166016 10571.544922 17773.890625
v 19494.322266 10641.889648 17721.003906
v 19601.773438 10680.656250 17782.939453
v 18667.136719 10751.001953 17740.007812
v 19739.111328 10823.063477 17751.423828
v 19887.574219 11033.144531 17824.882812
v 18128.726562 11354.686523 17681.185547
v 19935.164062 11353.629883 17835.121094
v 18058.947266 11551.044922 17679.566406
v 18031.980469 11739.314453 17700.958984
v 19695.996094 11859.700195 17667.652344
v 18144.574219 12009.788086 17692.230469
v 18271.693359 12111.167969 17699.371094
v 18452.773438 12272.052734 17737.410156
v 19391.951172 12490.174805 17779.843750
v 18916.791016 12434.866211 17719.818359
v 19213.085938 12402.760742 17683.134766
v 19313.958984 12437.789062 17718.330078
v 19353.609375 12398.415039 17706.687500
v 18810.861328 12474.065430 17766.488281
v 19115.529297 10534.720703 17841.632812
v 18913.705078 10609.134766 17752.693359
v 19369.021484 10558.132812 17784.960938
v 18550.433594 10823.877930 17797.492188
v 18480.763672 10872.088867 17859.345703
v 18402.712891 10960.507812 17801.035156
v 19916.228516 11187.381836 17775.554688
v 18233.498047 11180.363281 17753.357422
v 18097.109375 11426.048828 17700.082031
v 18033.343750 11639.244141 17698.464844
v 18199.716797 12097.573242 17735.593750
v 19563.544922 12163.124023 17724.337891
v 19523.011719 12276.250000 17757.490234
v 18559.312500 12318.268555 17728.513672
v 18620.783203 12436.442383 17793.904297
v 19064.998047 12545.416016 17768.562500
v 19189.775391 10520.248047 17879.847656
v 19274.878906 10538.362305 17788.255859
v 18830.917969 10639.097656 17779.794922
v 18717.689453 10722.850586 17725.333984
v 19791.488281 10863.010742 17806.289062
v 19850.908203 11014.501953 17759.082031
v 18309.289062 11068.036133 17800.074219
v 18164.859375 11283.903320 17776.634766
v 19937.830078 11376.689453 17890.207031
v 19827.152344 11707.782227 17907.384766
v 19683.662109 11955.614258 17795.519531
v 18089.945312 12043.774414 17826.253906
v 18327.746094 12213.798828 17757.109375
v 19572.255859 12235.125000 17816.054688
v 18450.460938 12353.835938 17808.107422
v 19470.917969 12415.265625 17799.675781
v 19191.480469 12574.468750 17779.599609
v 19307.000000 12548.134766 17781.191406
v 19438.232422 12477.228516 17809.121094
v 19251.117188 12631.342773 17829.699219
v 19356.703125 12600.135742 17838.642578
v 19134.144531 10517.053711 17960.085938
v 19267.541016 10504.186523 17955.519531
v 18990.910156 10546.236328 17898.406250
v 18769.818359 10655.115234 17845.695312
v 19502.238281 10594.602539 17856.449219
v 18660.302734 10735.637695 17815.873047
v 18574.027344 10786.995117 17883.210938
v 19919.865234 11068.189453 17891.910156
v 18252.167969 11142.616211 17851.257812
v 19960.792969 11293.236328 17868.628906
v 18077.267578 11472.490234 17790.742188
v 19920.457031 11471.543945 18004.238281
v 18030.570312 11702.972656 17769.933594
v 19757.394531 11821.215820 17829.599609
v 18031.544922 11869.450195 17727.017578
v 18048.533203 11936.107422 17775.285156
v 18375.152344 12305.737305 17810.435547
v 19518.529297 12415.178711 17864.703125
v 18920.605469 12546.269531 17789.683594
v 19034.664062 12600.140625 17804.150391
v 19166.253906 12623.772461 17814.591797
v 19374.736328 12598.840820 17877.683594
v 19211.359375 12665.583984 17856.371094
v 19054.285156 10520.293945 18012.177734
v 19315.691406 10504.914062 17951.046875
v 18906.068359 10586.015625 17838.994141
v 18889.882812 10578.394531 17935.896484
v 19691.722656 10715.378906 17885.984375
v 19761.253906 10771.766602 17936.644531
v 19847.556641 10955.360352 17814.439453
v 19885.908203 10970.222656 17914.736328
v 18343.410156 11013.578125 17920.849609
v 19944.302734 11171.722656 17882.533203
v 19891.708984 11563.580078 17971.056641
v 19870.798828 11560.090820 17834.906250
v 18030.798828 11793.909180 17814.628906
v 19624.384766 12080.208984 17790.212891
v 18132.332031 12109.893555 17835.029297
v 18123.732422 12139.201172 17922.398438
v 18152.480469 12108.270508 17798.730469
v 18280.691406 12284.324219 17862.361328
v 18246.273438 12171.572266 17775.689453
v 18386.169922 12385.750000 17883.460938
v 19554.464844 12344.846680 17867.548828
v 18556.857422 12465.377930 17849.199219
v 18520.035156 12507.218750 17911.292969
v 18650.365234 12589.308594 17913.246094
v 18654.896484 12520.932617 17851.113281
v 18715.984375 12494.832031 17806.697266
v 18948.095703 12689.425781 17881.589844
v 19066.308594 12698.470703 17876.939453
v 19311.216797 12645.399414 17884.929688
v 19160.876953 12717.768555 17922.794922
v 18779.857422 10640.791016 17903.248047
v 18705.480469 10691.322266 17884.113281
v 19587.066406 10629.548828 17893.687500
v 18380.669922 10966.194336 17911.423828
v 18159.425781 11295.882812 17863.464844
v 18075.419922 11496.686523 17881.669922
v 18041.681641 11607.573242 17819.779297
v 18039.814453 11879.562500 17864.689453
v 19711.156250 11980.886719 17946.730469
v 18080.505859 12038.386719 17909.841797
v 19652.820312 12139.791016 17961.089844
v 18197.390625 12230.656250 17896.824219
v 19598.832031 12276.734375 17939.451172
v 18420.031250 12449.126953 17932.205078
v 19485.291016 12475.681641 17878.263672
v 18623.152344 12607.486328 17952.148438
v 18854.849609 12589.485352 17833.304688
v 19252.281250 12677.202148 17960.613281
v 18941.615234 12753.696289 17936.855469
v 19101.474609 12734.356445 17920.835938
v 19219.179688 10504.969727 18032.039062
v 18710.587891 10684.800781 17951.294922
v 18581.089844 10783.374023 17964.101562
v 19817.767578 10837.033203 17961.412109
v 18230.996094 11179.923828 17967.072266
v 19958.117188 11204.108398 17968.033203
v 18107.152344 11396.171875 17799.822266
v 19953.236328 11315.730469 17949.917969
v 19860.960938 11647.784180 17966.326172
v 18057.091797 11960.435547 17916.822266
v 19620.207031 12175.826172 17882.027344
v 18170.468750 12202.433594 17956.140625
v 18438.300781 12487.066406 17983.820312
v 19463.312500 12508.296875 17920.208984
v 18568.343750 12566.644531 17944.373047
v 19351.136719 12625.623047 17910.250000
v 18728.515625 12686.338867 17982.228516
v 18833.546875 12677.250977 17907.740234
v 18851.373047 12742.279297 17979.458984
v 19138.533203 12727.432617 17974.958984
v 19133.607422 10513.481445 18060.072266
v 19386.529297 10524.375977 17943.357422
v 19457.923828 10557.054688 17920.037109
v 19594.160156 10604.967773 17994.132812
v 18573.539062 10796.159180 18018.441406
v 19942.296875 11108.235352 17987.683594
v 18131.482422 11391.150391 18060.730469
v 18050.914062 11608.121094 17952.167969
v 19826.972656 11757.649414 18032.244141
v 18059.193359 11921.500000 18010.939453
v 18123.279297 12079.976562 18050.785156
v 19596.761719 12289.642578 18011.359375
v 18289.884766 12353.684570 17944.367188
v 18574.326172 12595.293945 18006.488281
v 18721.033203 12693.731445 18034.568359
v 19004.429688 12763.304688 17970.939453
v 19284.408203 10497.407227 18129.718750
v 19011.224609 10534.577148 18058.414062
v 19402.099609 10517.205078 18013.572266
v 19545.441406 10574.456055 18005.519531
v 18679.539062 10709.291992 18024.517578
v 19654.953125 10667.912109 17922.068359
v 19745.296875 10731.525391 18023.021484
v 18437.482422 10918.291016 17955.628906
v 18283.763672 11115.347656 18032.416016
v 18151.015625 11323.510742 17952.054688
v 19959.621094 11256.341797 18011.921875
v 18034.853516 11692.368164 17899.904297
v 18030.968750 11758.857422 17950.144531
v 18054.851562 11850.646484 18060.017578
v 18228.156250 12265.084961 18020.699219
v 19546.156250 12390.300781 17929.548828
v 19338.148438 10501.115234 18105.029297
v 19863.302734 10878.215820 18104.378906
v 18446.785156 10935.861328 18084.919922
v 19899.208984 10976.703125 17981.863281
v 18091.015625 11467.685547 17996.431641
v 18076.509766 11519.195312 17999.888672
v 19700.619141 12051.684570 18036.033203
v 19651.962891 12163.686523 18012.552734
v 18167.662109 12160.904297 18063.503906
v 18242.888672 12248.843750 18171.724609
v 18223.945312 12275.818359 17949.468750
v 18918.542969 12751.634766 17998.603516
v 19214.027344 10508.221680 18127.294922
v 18881.492188 10585.343750 18036.015625
v 19538.298828 10561.048828 18087.183594
v 18760.169922 10658.080078 18066.384766
v 18636.587891 10761.500000 18101.218750
v 19942.210938 11077.822266 18125.929688
v 18305.492188 12357.669922 18037.589844
v 18502.070312 12542.294922 18067.451172
v 18634.062500 12637.564453 18095.537109
v 19222.472656 12659.951172 18062.951172
v 19412.494141 10516.126953 18130.353516
v 18825.667969 10613.209961 18050.521484
v 19698.060547 10661.968750 18176.662109
v 18726.513672 10714.324219 18186.800781
v 19921.972656 11021.500977 18045.519531
v 18250.058594 11191.523438 18144.093750
v 18198.917969 11251.694336 18052.667969
v 19838.162109 11775.165039 18178.751953
v 18037.248047 11801.625000 17991.318359
v 18081.533203 11807.651367 18198.468750
v 19755.669922 11919.820312 18031.332031
v 18092.751953 11999.230469 18061.798828
v 19658.308594 12161.306641 18102.988281
v 19425.712891 12505.045898 18069.181641
v 19322.505859 12620.077148 18006.750000
v 18970.457031 12745.271484 18039.681641
v 19637.001953 10622.645508 18097.371094
v 19800.611328 10782.722656 18128.738281
v 18595.527344 10819.772461 18177.941406
v 18502.464844 10876.097656 18074.796875
v 19884.181641 10920.145508 18065.333984
v 18179.605469 11300.223633 18105.041016
v 19946.136719 11376.291992 18061.101562
v 18049.388672 11698.980469 18065.173828
v 19803.691406 11863.229492 18167.792969
v 19511.818359 12418.255859 18041.789062
v 18378.283203 12432.416992 18067.828125
v 18788.835938 12708.656250 18110.134766
v 18894.437500 12727.930664 18108.050781
v 19833.419922 10833.649414 18190.751953
v 19895.306641 10945.640625 18188.605469
v 18521.833984 10905.651367 18222.679688
v 18331.388672 11073.120117 18112.779297
v 18178.435547 11328.336914 18164.349609
v 18656.728516 12620.032227 18252.248047
v 18714.164062 12673.381836 18140.312500
v 19107.296875 12704.032227 18087.699219
v 19006.763672 12728.565430 18084.011719
v 19075.607422 10538.410156 18179.847656
v 19117.035156 10522.462891 18147.414062
v 19513.033203 10549.755859 18192.238281
v 18952.748047 10584.100586 18184.828125
v 19957.615234 11152.611328 18124.117188
v 18124.207031 11481.211914 18185.599609
v 18108.199219 11484.592773 18132.455078
v 19896.419922 11575.949219 18165.322266
v 18067.589844 11684.373047 18142.744141
v 19865.917969 11684.828125 18153.929688
v 18086.519531 11933.980469 18130.390625
v 19732.326172 12009.963867 18139.564453
v 19712.054688 12059.773438 18211.935547
v 18385.064453 12421.032227 18180.667969
v 18450.822266 12483.644531 18190.076172
v 19307.722656 12580.781250 18122.298828
v 18502.880859 12534.018555 18163.949219
v 19187.816406 12624.218750 18198.156250
v 19626.304688 10612.268555 18203.923828
v 18787.691406 10664.354492 18158.611328
v 18697.742188 10766.964844 18296.753906
v 19939.011719 11070.332031 18247.082031
v 19954.457031 11309.820312 18118.107422
v 18213.027344 11289.547852 18221.718750
v 19927.720703 11438.418945 18185.546875
v 18071.261719 11625.248047 18114.853516
v 18075.660156 11754.020508 18188.201172
v 19641.007812 12189.077148 18180.490234
v 18159.841797 12088.549805 18233.568359
v 19582.474609 12298.601562 18115.306641
v 19558.291016 12279.319336 18282.283203
v 18329.244141 12356.242188 18193.966797
v 19483.751953 12390.335938 18201.148438
v 18579.267578 12584.080078 18206.773438
v 18688.937500 12625.075195 18295.494141
v 18864.949219 12694.091797 18217.656250
v 19154.632812 10529.667969 18215.847656
v 19616.201172 10610.068359 18310.656250
v 18900.662109 10629.897461 18266.980469
v 19698.365234 10660.508789 18305.041016
v 19739.798828 10702.351562 18223.882812
v 18459.228516 10989.242188 18266.878906
v 18315.175781 11117.362305 18183.210938
v 19961.052734 11210.226562 18218.162109
v 18174.250000 11403.029297 18257.376953
v 19922.148438 11427.434570 18265.380859
v 19893.105469 11572.945312 18272.410156
v 19596.669922 12235.500000 18268.343750
v 19455.900391 12369.509766 18325.439453
v 18551.716797 12536.059570 18323.164062
v 19303.935547 12523.818359 18255.496094
v 18771.414062 12683.681641 18199.480469
v 19078.921875 12652.667969 18231.339844
v 18928.941406 12677.768555 18258.130859
v 19030.285156 12687.365234 18179.257812
v 19379.128906 10522.264648 18238.974609
v 19151.158203 10560.174805 18320.365234
v 19539.460938 10577.747070 18316.951172
v 19782.984375 10758.822266 18250.964844
v 18604.234375 10845.905273 18279.857422
v 19958.582031 11154.962891 18219.640625
v 18278.916016 11206.284180 18266.912109
v 18118.416016 11543.332031 18232.679688
v 19867.888672 11686.229492 18248.128906
v 19833.392578 11801.834961 18359.628906
v 19816.013672 11853.114258 18298.175781
v 18238.191406 12213.343750 18267.988281
v 18476.546875 12489.562500 18288.039062
v 18978.988281 12658.021484 18288.242188
v 19033.921875 10584.574219 18289.062500
v 19846.023438 10867.253906 18294.736328
v 19894.220703 10973.388672 18333.792969
v 19920.535156 11066.207031 18387.597656
v 18242.953125 11348.604492 18377.589844
v 19887.371094 11568.953125 18350.369141
v 18107.029297 11621.315430 18253.279297
v 18121.800781 11950.738281 18271.273438
v 19773.689453 11945.168945 18286.255859
v 18142.339844 12027.483398 18268.615234
v 18317.826172 12319.948242 18315.568359
v 19386.884766 12453.527344 18265.044922
v 19183.572266 12584.691406 18288.349609
v 19101.423828 12618.919922 18293.822266
v 19264.724609 10521.815430 18240.371094
v 19438.054688 10526.237305 18204.058594
v 19107.609375 10589.044922 18365.664062
v 18939.664062 10624.325195 18311.548828
v 18803.402344 10705.198242 18336.625000
v 19746.011719 10715.455078 18352.529297
v 19868.943359 10923.798828 18358.230469
v 19856.574219 10933.341797 18430.347656
v 18289.357422 11316.481445 18448.039062
v 19944.515625 11310.107422 18268.972656
v 18139.734375 11589.685547 18335.173828
v 18094.908203 11738.456055 18259.646484
v 18231.712891 12169.745117 18356.031250
v 18409.570312 12430.646484 18302.462891
v 18616.253906 10870.863281 18367.472656
v 19907.457031 11332.556641 18425.587891
v 18175.851562 11535.580078 18396.939453
v 18132.017578 11696.716797 18362.263672
v 18107.593750 11870.287109 18272.810547
v 19685.248047 12098.366211 18297.285156
v 19526.417969 12288.570312 18355.792969
v 18400.341797 12389.545898 18405.898438
v 19307.154297 12462.158203 18403.779297
v 18614.789062 12554.203125 18379.220703
v 19074.103516 12583.603516 18408.994141
v 18731.175781 12623.472656 18348.072266
v 18962.830078 12612.007812 18411.011719
v 18871.515625 12630.110352 18387.929688
v 19205.027344 10546.960938 18313.552734
v 19342.843750 10536.406250 18315.576172
v 19715.246094 10695.202148 18409.875000
v 18411.744141 11102.163086 18383.943359
v 19939.511719 11125.967773 18355.669922
v 18367.123047 11195.585938 18444.613281
v 19942.179688 11187.967773 18353.548828
v 18193.460938 11439.698242 18366.025391
v 18122.650391 11799.445312 18348.781250
v 18199.718750 12067.722656 18419.625000
v 19648.800781 12138.987305 18361.013672
v 18350.830078 12363.121094 18328.220703
v 18673.812500 12574.539062 18402.978516
v 18753.013672 12570.542969 18473.195312
v 19472.763672 10568.761719 18379.226562
v 19593.951172 10617.120117 18410.394531
v 19015.201172 10623.802734 18384.744141
v 19805.046875 10827.750000 18412.449219
v 18386.556641 11199.058594 18484.617188
v 18229.804688 11421.511719 18427.552734
v 18222.363281 11484.957031 18462.699219
v 18151.185547 11764.764648 18431.375000
v 19593.101562 12178.390625 18459.058594
v 18272.998047 12221.774414 18388.722656
v 19411.431641 12386.134766 18394.408203
v 18414.667969 12371.379883 18455.738281
v 19146.666016 12489.012695 18554.015625
v 19201.701172 12532.211914 18395.787109
v 19170.976562 10630.237305 18507.453125
v 19297.300781 10568.714844 18406.707031
v 18922.968750 10691.296875 18437.445312
v 18528.919922 11013.580078 18456.869141
v 19907.835938 11405.954102 18378.171875
v 18156.978516 11647.855469 18417.621094
v 18173.279297 11656.972656 18457.210938
v 19818.031250 11833.866211 18447.281250
v 18154.343750 11939.484375 18397.558594
v 18238.730469 11986.151367 18561.025391
v 19774.671875 11933.162109 18416.117188
v 18316.414062 12248.226562 18455.089844
v 19509.056641 12252.026367 18510.099609
v 18492.099609 12465.036133 18419.359375
v 18533.798828 12479.899414 18453.466797
v 18615.462891 12511.083008 18481.673828
v 18792.847656 12640.592773 18342.199219
v 19356.562500 10593.976562 18478.912109
v 19656.181641 10649.976562 18411.785156
v 19062.804688 10680.006836 18528.685547
v 19669.767578 10694.033203 18494.685547
v 19730.074219 10740.044922 18462.371094
v 18820.945312 10766.643555 18472.406250
v 19772.191406 10853.780273 18536.833984
v 18701.546875 10800.416992 18380.044922
v 19908.429688 11158.754883 18460.953125
v 18492.294922 11096.683594 18515.265625
v 18315.474609 11349.085938 18534.210938
v 18200.160156 11577.560547 18476.414062
v 18287.986328 11457.754883 18568.480469
v 18169.294922 11802.162109 18468.953125
v 19421.501953 12287.460938 18623.603516
v 19441.082031 10584.300781 18442.458984
v 19222.751953 10599.629883 18460.490234
v 19580.011719 10636.840820 18496.460938
v 18974.234375 10711.678711 18520.726562
v 19804.251953 10884.008789 18503.332031
v 18611.480469 10955.126953 18489.501953
v 19865.328125 11234.117188 18577.832031
v 19885.203125 11292.476562 18516.998047
v 19727.074219 12003.848633 18474.763672
v 18258.537109 12144.596680 18466.923828
v 19271.402344 12437.423828 18518.130859
v 18692.902344 12519.405273 18538.613281
v 19494.287109 10629.025391 18521.218750
v 19081.611328 10736.189453 18622.412109
v 19679.259766 10748.424805 18560.359375
v 19721.248047 10784.249023 18544.050781
v 18832.636719 10826.388672 18549.566406
v 18373.962891 11345.547852 18622.667969
v 19847.218750 11742.045898 18413.371094
v 19784.732422 11819.913086 18673.695312
v 19773.730469 11889.870117 18560.875000
v 19724.302734 11963.897461 18610.414062
v 18258.550781 12043.498047 18558.478516
v 19652.062500 12090.648438 18522.699219
v 18331.117188 12165.811523 18565.113281
v 19560.677734 12168.227539 18608.712891
v 18404.595703 12292.525391 18536.240234
v 18477.615234 12372.147461 18531.996094
v 19237.591797 12398.745117 18656.371094
v 19020.882812 12553.408203 18510.927734
v 19274.078125 10635.917969 18552.496094
v 19159.832031 10685.875977 18602.546875
v 18702.765625 10886.744141 18505.611328
v 19875.224609 11047.452148 18515.953125
v 19856.289062 11134.544922 18582.246094
v 18427.632812 11288.185547 18624.119141
v 19846.681641 11480.910156 18627.587891
v 18248.208984 11585.158203 18570.599609
v 18201.169922 11714.083008 18522.937500
v 18315.187500 12059.344727 18638.384766
v 18394.722656 12198.623047 18629.109375
v 18551.486328 12296.409180 18719.197266
v 18604.714844 12409.457031 18625.476562
v 18834.912109 12542.385742 18568.804688
v 18884.019531 12549.467773 18564.890625
v 18958.957031 12547.992188 18551.687500
v 19411.138672 10627.873047 18547.318359
v 19587.537109 10709.245117 18604.080078
v 19745.242188 10875.332031 18608.216797
v 19796.644531 10946.750977 18585.449219
v 19824.187500 11038.787109 18608.541016
v 18577.667969 11040.033203 18549.103516
v 18305.695312 11520.622070 18629.613281
v 19859.419922 11534.744141 18543.011719
v 19849.085938 11665.492188 18508.394531
v 19684.996094 12032.130859 18582.955078
v 18478.343750 12263.591797 18668.980469
v 19297.312500 12337.992188 18720.320312
v 19294.113281 10665.699219 18607.031250
v 19533.644531 10675.558594 18588.796875
v 19626.890625 10722.224609 18588.802734
v 19679.761719 10814.236328 18632.156250
v 19685.820312 10911.193359 18717.230469
v 18846.853516 10886.715820 18622.601562
v 18703.552734 10927.005859 18551.513672
v 19849.996094 11368.039062 18629.589844
v 18208.435547 11880.156250 18540.644531
v 18235.867188 11944.875977 18572.927734
v 18454.876953 12069.805664 18813.251953
v 19463.091797 12228.382812 18687.138672
v 18613.257812 12330.746094 18742.843750
v 18955.271484 12478.091797 18715.257812
v 19023.423828 12500.217773 18630.568359
v 19411.761719 10699.036133 18649.656250
v 19221.300781 10716.206055 18660.185547
v 19017.873047 10805.986328 18660.166016
v 19750.166016 11095.972656 18742.560547
v 19817.781250 11474.165039 18741.970703
v 18239.335938 11783.205078 18596.160156
v 19824.675781 11670.132812 18681.699219
v 19806.832031 11737.817383 18698.771484
v 18310.792969 11903.791016 18691.578125
v 19739.292969 11912.170898 18678.552734
v 19680.177734 12009.081055 18708.230469
v 18462.126953 12130.787109 18779.568359
v 18675.792969 12398.723633 18707.898438
v 18664.560547 12483.856445 18575.503906
v 19095.093750 12474.117188 18639.035156
v 19490.121094 10711.217773 18649.843750
v 19336.548828 10684.240234 18637.125000
v 19555.519531 10770.595703 18698.972656
v 19121.373047 10781.995117 18697.880859
v 18832.865234 10989.842773 18704.308594
v 19745.460938 10974.310547 18681.652344
v 18664.529297 11093.682617 18676.058594
v 18529.716797 11177.222656 18629.357422
v 18321.105469 11573.505859 18661.875000
v 18299.132812 11646.460938 18651.742188
v 18289.671875 11850.280273 18667.451172
v 19613.652344 12095.271484 18678.572266
v 19415.283203 10799.412109 18761.871094
v 19606.484375 10794.311523 18691.351562
v 19618.039062 10857.183594 18748.218750
v 18934.451172 10969.795898 18753.154297
v 19668.552734 10967.316406 18782.451172
v 18814.431641 11058.613281 18750.029297
v 19785.986328 11181.935547 18723.000000
v 18567.267578 11220.523438 18694.511719
v 19819.931641 11249.400391 18682.851562
v 19817.851562 11385.237305 18721.697266
v 18435.746094 11361.922852 18690.181641
v 19826.261719 11579.456055 18722.460938
v 18317.132812 11812.311523 18702.085938
v 19752.496094 11854.706055 18740.718750
v 18541.275391 12220.800781 18795.980469
v 18777.925781 12492.333984 18639.636719
v 18877.078125 12475.592773 18716.558594
v 19275.978516 10745.929688 18704.904297
v 19056.179688 10920.721680 18779.220703
v 19704.656250 11050.355469 18783.359375
v 18916.693359 11159.174805 18889.023438
v 19779.554688 11319.501953 18789.304688
v 18454.205078 11443.069336 18746.625000
v 18381.621094 11435.207031 18689.554688
v 18372.396484 11589.395508 18720.111328
v 18387.710938 11652.846680 18752.878906
v 19701.648438 11935.721680 18804.681641
v 18337.392578 11984.769531 18708.402344
v 19616.078125 12049.298828 18806.449219
v 19301.654297 12308.691406 18798.025391
v 19175.335938 12405.995117 18721.783203
v 18762.064453 12425.228516 18738.980469
v 19214.957031 10846.348633 18778.289062
v 19299.695312 10816.113281 18771.033203
v 19550.015625 10893.851562 18816.896484
v 19122.421875 10845.316406 18747.664062
v 18710.759766 11173.094727 18766.660156
v 19749.207031 11242.113281 18810.728516
v 18605.925781 11262.754883 18751.839844
v 19778.564453 11511.476562 18854.425781
v 18441.300781 11551.331055 18773.330078
v 18386.021484 11733.080078 18768.109375
v 19805.191406 11657.581055 18775.292969
v 18394.279297 11943.228516 18783.410156
v 19518.933594 12156.930664 18760.156250
v 18597.568359 12196.064453 18885.507812
v 19392.289062 12253.309570 18773.810547
v 18656.384766 12276.868164 18857.779297
v 19128.671875 12402.212891 18793.044922
v 18898.578125 12429.820312 18808.384766
v 19506.060547 10789.205078 18741.589844
v 19371.734375 10884.278320 18842.648438
v 19013.062500 11066.295898 18875.318359
v 18639.160156 11321.872070 18811.806641
v 19764.636719 11787.022461 18797.201172
v 18350.185547 11852.608398 18744.490234
v 18706.390625 12367.315430 18787.855469
v 18822.824219 12370.458984 18877.156250
v 19053.863281 12425.919922 18795.765625
v 18971.705078 12402.001953 18876.375000
v 18966.017578 12432.857422 18814.353516
v 19314.753906 10909.007812 18852.427734
v 19621.925781 10938.606445 18807.642578
v 19154.082031 10924.917969 18825.876953
v 18849.744141 11258.854492 18916.400391
v 19725.574219 11360.143555 18897.681641
v 18624.593750 11400.527344 18844.457031
v 19753.683594 11422.777344 18875.390625
v 18464.597656 11695.745117 18838.859375
v 19777.677734 11598.943359 18877.714844
v 18436.113281 11775.205078 18825.052734
v 19712.605469 11896.102539 18843.220703
v 19357.222656 12240.903320 18899.873047
v 18843.843750 12417.642578 18805.876953
v 19157.105469 12359.420898 18885.873047
v 19439.427734 10892.736328 18844.068359
v 19481.906250 10952.532227 18878.716797
v 19391.431641 10963.465820 18896.505859
v 19205.013672 10996.523438 18894.234375
v 19095.898438 11054.603516 18905.503906
v 19696.589844 11161.968750 18852.626953
v 19690.175781 11345.399414 18936.376953
v 18552.580078 11525.830078 18852.216797
v 18558.210938 11681.011719 18911.500000
v 19765.921875 11714.779297 18874.183594
v 19663.968750 11963.671875 18889.566406
v 18443.437500 12015.059570 18822.712891
v 18545.308594 12108.802734 18889.080078
v 18759.679688 12312.966797 18910.894531
v 19063.830078 12382.603516 18897.072266
v 19470.519531 11042.912109 18930.507812
v 19625.255859 11047.920898 18864.232422
v 18640.482422 11496.052734 18901.462891
v 18657.271484 11600.384766 18954.437500
v 19711.142578 11518.774414 18979.718750
v 18554.255859 11772.365234 18928.060547
v 18491.191406 11876.100586 18880.423828
v 19559.759766 12046.444336 18968.619141
v 19543.085938 12088.408203 18904.613281
v 19274.359375 12292.306641 18914.259766
v 18916.759766 12379.338867 18927.414062
v 19400.511719 11121.949219 18977.511719
v 19521.150391 11048.743164 18918.261719
v 18787.058594 11358.956055 18930.863281
v 19760.882812 11675.725586 18910.496094
v 19718.296875 11769.183594 18950.089844
v 18579.888672 11829.915039 18952.658203
v 18479.994141 11940.015625 18868.017578
v 19100.679688 12343.778320 18982.363281
v 19344.111328 11119.736328 18979.300781
v 19143.603516 11111.021484 18953.146484
v 19176.767578 11175.417969 18992.630859
v 19288.771484 11048.754883 18940.535156
v 19030.570312 11157.827148 18945.494141
v 19442.314453 11188.750977 18999.652344
v 19581.058594 11187.835938 18947.687500
v 18873.103516 11409.884766 19001.582031
v 19643.966797 11198.739258 18912.906250
v 19616.353516 11320.346680 18985.623047
v 18780.013672 11485.181641 18985.300781
v 19722.482422 11497.240234 18960.083984
v 18709.144531 11688.528320 19015.042969
v 18604.636719 11717.814453 18954.910156
v 19693.353516 11866.045898 18956.552734
v 19601.613281 11937.709961 19039.630859
v 19647.296875 11941.007812 18963.402344
v 18595.705078 11929.692383 18967.355469
v 18578.939453 12027.301758 18943.445312
v 19413.205078 12170.352539 18987.121094
v 18625.044922 12155.654297 18941.816406
v 18731.515625 12246.247070 18967.017578
v 18847.378906 12341.207031 18944.433594
v 18965.156250 11322.432617 19001.658203
v 19504.248047 11221.560547 18995.216797
v 18961.023438 11454.752930 19061.767578
v 19671.306641 11484.233398 19002.378906
v 18832.968750 11598.488281 19059.316406
v 19692.960938 11746.575195 18994.283203
v 18675.552734 11761.788086 19011.173828
v 18679.115234 12024.930664 19026.435547
v 18636.066406 12073.822266 18983.015625
v 18840.460938 12262.977539 19041.896484
v 19213.285156 12306.426758 18973.781250
v 18914.439453 12342.447266 18988.779297
v 19226.906250 11229.673828 19025.716797
v 19119.257812 11255.099609 19019.595703
v 19288.343750 11267.792969 19047.705078
v 19118.669922 11375.264648 19079.500000
v 19332.132812 11405.355469 19111.777344
v 19043.472656 11345.132812 19042.017578
v 19390.351562 11301.042969 19057.343750
v 19456.115234 11304.781250 19045.367188
v 19534.005859 11337.153320 19031.517578
v 19662.472656 11411.833984 18987.611328
v 19574.369141 11461.340820 19056.603516
v 19652.724609 11727.409180 19039.691406
v 19358.878906 12194.428711 19028.162109
v 18804.003906 12209.024414 19056.785156
v 19279.716797 12247.198242 19028.300781
v 18960.994141 12295.522461 19064.947266
v 19027.847656 12338.420898 19012.851562
v 19182.365234 11344.593750 19078.207031
v 19415.064453 11419.539062 19111.421875
v 19491.042969 11466.652344 19106.500000
v 18892.853516 11535.259766 19064.455078
v 19572.767578 11597.375977 19095.484375
v 19633.705078 11622.733398 19053.882812
v 19591.492188 11745.185547 19093.437500
v 19632.906250 11845.646484 19044.201172
v 18767.031250 11861.934570 19082.695312
v 18682.587891 11931.798828 19034.125000
v 19539.208984 12014.500977 19054.246094
v 18757.048828 11998.645508 19080.779297
v 19481.630859 12079.272461 19047.917969
v 19182.029297 12275.485352 19066.923828
v 19258.109375 11408.555664 19112.234375
v 19499.201172 11534.223633 19127.931641
v 18829.410156 11724.763672 19093.228516
v 19575.330078 11657.393555 19103.056641
v 19555.546875 11950.405273 19087.357422
v 18771.474609 12075.013672 19078.076172
v 18789.195312 12161.391602 19066.607422
v 18910.318359 12231.974609 19102.884766
v 19144.406250 11503.530273 19140.326172
v 19357.214844 11484.331055 19141.687500
v 18973.048828 11570.745117 19113.886719
v 19035.107422 11504.438477 19111.337891
v 19515.181641 11712.536133 19146.865234
v 18911.791016 11681.031250 19123.726562
v 18994.683594 11726.676758 19176.072266
v 18885.007812 11821.167969 19147.367188
v 19557.718750 11860.167969 19110.080078
v 18833.958984 11949.640625 19129.546875
v 18861.863281 12073.290039 19138.664062
v 19415.070312 12100.497070 19099.173828
v 19283.517578 12207.737305 19088.355469
v 19068.287109 12267.528320 19109.837891
v 19135.029297 12277.301758 19088.539062
v 19248.070312 11574.349609 19177.935547
v 19303.714844 11609.044922 19188.187500
v 19139.091797 11671.191406 19200.685547
v 19421.792969 11520.922852 19146.730469
v 19058.701172 11624.932617 19165.492188
v 19459.718750 11618.980469 19166.232422
v 19506.679688 11829.636719 19148.539062
v 18906.273438 11993.235352 19173.105469
v 19484.574219 11973.491211 19128.464844
v 18925.460938 12058.012695 19177.500000
v 19204.775391 12223.547852 19119.591797
v 18992.640625 12249.593750 19120.224609
v 19190.994141 11717.823242 19221.441406
v 19449.316406 11768.982422 19184.009766
v 19444.330078 11691.985352 19183.482422
v 18957.339844 11834.354492 19181.445312
v 19462.644531 11896.778320 19167.042969
v 19371.625000 12054.707031 19158.880859
v 18881.583984 12169.191406 19121.035156
v 19251.394531 12151.972656 19161.371094
v 19317.449219 11685.640625 19212.132812
v 19362.648438 11764.856445 19218.335938
v 19057.781250 11751.573242 19200.228516
v 19088.400391 11858.340820 19223.693359
v 19421.638672 11842.403320 19193.714844
v 18953.095703 11994.253906 19194.841797
v 19379.488281 12018.337891 19173.914062
v 18954.064453 12116.235352 19178.074219
v 19222.996094 12092.540039 19210.796875
v 18970.535156 12191.054688 19151.687500
v 19049.394531 12204.985352 19166.263672
v 19038.519531 12100.811523 19211.160156
v 19155.949219 12188.076172 19166.863281
v 19147.044922 11811.055664 19230.392578
v 19227.287109 11778.362305 19235.667969
v 19303.697266 11821.072266 19229.281250
v 19142.804688 11914.851562 19234.253906
v 19020.246094 11881.868164 19208.968750
v 19377.609375 11888.399414 19206.388672
v 19045.511719 11984.904297 19223.816406
v 19225.423828 11927.336914 19234.419922
v 19279.476562 11941.335938 19226.791016
v 19326.283203 11981.178711 19207.212891
v 19066.566406 12030.489258 19223.929688
v 19196.521484 12048.593750 19232.169922
v 19156.710938 12118.466797 19211.708984
# 1080 vertices, 0 vertices normals

f 24 2 20
f 20 2 1
f 1 3 21
f 21 3 4
f 2 5 1
f 1 7 3
f 3 7 4
f 6 2 26
f 2 6 5
f 1 5 7
f 4 7 8
f 26 28 6
f 5 6 29
f 7 9 10
f 7 10 8
f 30 8 13
f 7 5 9
f 8 10 13
f 12 5 29
f 12 9 5
f 9 11 10
f 9 12 11
f 10 11 13
f 30 13 34
f 11 12 36
f 11 14 13
f 11 36 14
f 14 34 13
f 17 19 41
f 41 19 15
f 15 20 16
f 15 19 20
f 21 44 16
f 18 19 17
f 19 24 20
f 16 20 21
f 18 52 19
f 50 52 18
f 52 24 19
f 52 25 24
f 20 1 21
f 24 26 2
f 21 4 22
f 46 22 4
f 25 26 24
f 23 46 4
f 25 27 26
f 23 4 8
f 26 27 28
f 23 8 30
f 49 23 53
f 53 23 31
f 29 6 28
f 27 56 28
f 30 31 23
f 32 28 56
f 28 32 29
f 30 34 31
f 29 32 33
f 33 12 29
f 31 34 57
f 34 61 57
f 35 12 33
f 12 35 36
f 62 34 14
f 61 34 62
f 14 36 62
f 37 131 39
f 41 37 39
f 40 38 16
f 44 40 16
f 44 42 40
f 43 17 39
f 17 41 39
f 37 41 15
f 37 15 16
f 38 37 16
f 22 42 44
f 79 42 22
f 22 46 79
f 79 46 45
f 22 44 21
f 45 46 83
f 18 17 47
f 47 50 18
f 46 23 83
f 48 83 49
f 48 49 51
f 89 52 50
f 89 25 52
f 83 23 49
f 49 53 51
f 89 54 25
f 54 27 25
f 51 53 92
f 31 93 53
f 92 53 93
f 54 121 27
f 121 55 27
f 55 56 27
f 31 57 93
f 93 57 97
f 56 55 96
f 56 96 32
f 59 32 96
f 97 57 58
f 59 33 32
f 57 61 58
f 96 98 59
f 59 98 60
f 59 60 33
f 60 35 33
f 62 63 61
f 65 66 64
f 64 67 65
f 66 65 108
f 65 68 108
f 65 67 68
f 107 67 64
f 68 67 70
f 107 110 69
f 107 69 67
f 67 69 71
f 68 111 108
f 67 71 70
f 68 76 111
f 68 70 76
f 75 69 110
f 69 75 81
f 69 81 71
f 70 73 76
f 74 112 72
f 71 84 70
f 131 37 72
f 72 37 74
f 74 40 77
f 78 75 114
f 84 73 70
f 37 38 74
f 74 38 40
f 40 42 77
f 78 79 75
f 75 79 81
f 81 84 71
f 76 82 80
f 76 73 82
f 77 42 78
f 84 85 73
f 78 42 79
f 79 45 81
f 73 85 82
f 82 116 80
f 43 39 115
f 45 83 81
f 81 83 84
f 82 86 88
f 82 85 86
f 84 83 48
f 47 17 43
f 47 43 117
f 84 48 87
f 84 87 85
f 85 87 86
f 117 50 47
f 87 48 51
f 87 90 86
f 86 90 88
f 118 88 91
f 89 50 117
f 87 51 90
f 88 90 91
f 118 91 122
f 51 92 90
f 119 54 89
f 92 94 90
f 90 94 123
f 91 90 123
f 94 92 93
f 94 93 97
f 94 95 123
f 170 96 55
f 94 97 95
f 58 99 97
f 61 99 58
f 97 99 124
f 98 125 60
f 100 60 125
f 99 61 63
f 100 35 60
f 101 36 35
f 101 62 36
f 127 62 101
f 127 63 62
f 35 100 126
f 35 126 101
f 102 146 105
f 102 103 146
f 104 102 105
f 104 106 102
f 102 106 64
f 102 64 103
f 103 64 66
f 106 107 64
f 109 113 104
f 106 110 107
f 111 147 108
f 104 113 114
f 104 110 106
f 114 110 104
f 180 72 112
f 113 77 114
f 113 112 74
f 113 74 77
f 111 76 162
f 131 72 130
f 110 114 75
f 80 162 76
f 77 78 114
f 115 39 131
f 132 80 116
f 88 116 82
f 132 116 133
f 88 118 116
f 133 116 118
f 117 43 165
f 117 149 89
f 118 122 134
f 122 137 134
f 149 150 89
f 150 119 89
f 119 135 54
f 120 121 54
f 123 122 91
f 135 120 54
f 121 120 152
f 152 170 121
f 170 55 121
f 95 138 123
f 124 95 97
f 138 95 124
f 98 96 172
f 98 172 154
f 154 125 98
f 139 99 63
f 139 124 99
f 125 173 100
f 141 101 126
f 127 101 141
f 100 140 126
f 157 63 127
f 145 105 146
f 144 128 104
f 105 144 104
f 66 147 161
f 104 128 109
f 128 129 109
f 108 147 66
f 109 129 180
f 179 147 111
f 112 109 180
f 109 112 113
f 111 162 148
f 180 130 72
f 131 163 115
f 132 184 80
f 164 43 115
f 165 43 164
f 166 149 117
f 123 137 122
f 136 120 135
f 138 137 123
f 96 170 172
f 173 140 100
f 176 126 140
f 142 63 157
f 142 139 63
f 139 156 124
f 176 194 126
f 194 141 126
f 143 127 141
f 139 142 156
f 157 127 143
f 158 144 105
f 145 158 105
f 160 146 103
f 160 103 66
f 161 160 66
f 178 147 179
f 148 179 111
f 183 162 80
f 80 184 183
f 163 131 130
f 132 133 184
f 133 185 184
f 133 118 185
f 166 117 165
f 134 188 118
f 119 150 168
f 203 134 137
f 168 135 119
f 137 153 203
f 135 151 136
f 135 168 151
f 152 120 169
f 153 137 138
f 170 191 172
f 153 138 155
f 173 125 154
f 175 138 124
f 155 138 175
f 156 175 124
f 193 156 142
f 142 157 193
f 143 141 195
f 143 195 157
f 158 145 211
f 146 159 145
f 144 198 128
f 159 146 160
f 164 115 200
f 115 163 200
f 118 188 185
f 149 166 219
f 167 150 149
f 150 167 168
f 204 168 167
f 153 171 203
f 190 151 168
f 169 120 136
f 238 170 152
f 191 170 208
f 155 171 153
f 155 174 171
f 172 192 154
f 154 192 173
f 209 155 175
f 173 226 140
f 226 176 140
f 156 209 175
f 210 156 193
f 156 210 209
f 195 141 229
f 226 177 176
f 194 197 141
f 229 141 197
f 195 196 157
f 157 196 193
f 158 198 144
f 128 230 129
f 178 161 147
f 179 231 178
f 232 180 129
f 148 213 179
f 181 213 148
f 180 182 130
f 183 181 162
f 181 148 162
f 130 182 163
f 215 200 163
f 186 184 185
f 187 186 185
f 165 164 216
f 188 187 185
f 187 188 189
f 167 149 219
f 203 189 188
f 134 203 188
f 205 168 204
f 168 205 190
f 171 206 203
f 190 222 151
f 207 136 151
f 136 207 169
f 238 152 169
f 208 170 238
f 192 172 191
f 174 236 171
f 239 173 192
f 209 174 155
f 239 226 173
f 227 193 196
f 177 194 176
f 158 245 198
f 128 198 230
f 161 199 160
f 161 178 199
f 129 230 232
f 179 212 231
f 212 179 213
f 180 232 182
f 233 181 183
f 184 233 183
f 201 233 184
f 184 186 201
f 164 200 216
f 201 186 218
f 186 187 218
f 217 165 216
f 165 202 166
f 234 218 187
f 202 219 166
f 187 189 234
f 167 219 220
f 205 222 190
f 249 222 205
f 222 223 151
f 151 223 207
f 207 223 169
f 251 192 191
f 224 192 251
f 239 192 224
f 209 225 174
f 210 193 227
f 252 194 177
f 197 194 252
f 227 228 210
f 253 229 197
f 197 252 253
f 245 158 211
f 211 145 255
f 255 145 159
f 160 279 159
f 199 279 160
f 246 182 232
f 213 294 212
f 181 233 214
f 215 163 182
f 201 248 233
f 218 248 201
f 202 165 217
f 167 220 301
f 301 204 167
f 203 206 189
f 204 249 205
f 171 221 206
f 171 236 221
f 302 222 249
f 238 169 250
f 251 191 208
f 174 225 236
f 209 240 225
f 228 209 210
f 240 209 228
f 227 196 242
f 240 228 270
f 226 241 177
f 242 195 244
f 242 196 195
f 228 227 243
f 198 245 291
f 159 279 255
f 199 257 279
f 230 198 291
f 256 232 230
f 199 178 231
f 212 258 231
f 216 200 296
f 296 200 215
f 247 217 216
f 218 262 248
f 234 262 218
f 189 263 234
f 235 263 189
f 206 235 189
f 221 235 206
f 266 222 302
f 266 223 222
f 237 169 223
f 250 169 237
f 305 251 208
f 208 238 305
f 268 225 240
f 239 241 226
f 243 227 242
f 272 228 243
f 270 228 272
f 269 240 270
f 275 195 229
f 244 195 275
f 177 277 252
f 229 253 275
f 254 245 211
f 254 211 255
f 256 230 291
f 231 257 199
f 293 232 256
f 258 212 294
f 181 294 213
f 260 181 214
f 261 214 233
f 233 248 261
f 283 234 284
f 263 284 234
f 202 299 219
f 353 204 301
f 353 249 204
f 285 235 221
f 236 265 221
f 266 303 223
f 303 237 223
f 236 225 265
f 265 225 268
f 250 237 304
f 250 304 238
f 238 267 305
f 271 239 224
f 269 268 240
f 251 319 224
f 224 319 271
f 276 243 242
f 241 287 177
f 277 177 287
f 275 288 244
f 242 244 276
f 252 277 274
f 252 274 253
f 253 274 275
f 279 289 255
f 231 258 257
f 246 232 293
f 259 182 246
f 215 182 259
f 181 260 294
f 248 282 261
f 311 216 296
f 311 247 216
f 282 248 262
f 234 283 262
f 313 283 284
f 330 220 219
f 263 264 300
f 220 352 301
f 285 263 235
f 333 249 353
f 221 265 285
f 302 249 333
f 304 237 303
f 238 304 267
f 305 319 251
f 273 269 270
f 323 241 239
f 271 323 239
f 272 243 276
f 270 272 273
f 323 287 241
f 276 244 288
f 254 307 290
f 254 255 278
f 289 278 255
f 290 291 245
f 290 245 254
f 280 256 291
f 257 258 292
f 281 258 294
f 295 215 259
f 260 309 294
f 214 261 260
f 261 297 260
f 312 247 311
f 282 262 283
f 298 202 217
f 298 299 202
f 298 217 247
f 330 219 299
f 300 284 263
f 313 284 300
f 352 220 330
f 285 264 263
f 316 265 334
f 268 334 265
f 266 302 286
f 317 303 266
f 286 317 266
f 269 318 268
f 273 272 320
f 288 342 276
f 274 277 321
f 274 321 340
f 292 289 279
f 292 279 257
f 259 246 293
f 294 309 281
f 296 215 295
f 312 298 247
f 283 313 350
f 264 314 300
f 332 301 352
f 353 301 332
f 264 285 415
f 316 285 265
f 317 335 303
f 355 318 269
f 273 355 269
f 276 322 272
f 322 320 272
f 276 342 322
f 274 340 275
f 275 340 288
f 306 307 254
f 306 254 278
f 289 361 278
f 345 290 324
f 324 290 307
f 280 291 345
f 345 291 290
f 325 292 281
f 280 293 256
f 281 292 258
f 280 363 293
f 363 259 293
f 308 259 363
f 308 295 259
f 328 309 260
f 296 295 310
f 328 260 297
f 349 311 310
f 311 296 310
f 312 311 349
f 297 261 365
f 261 282 365
f 283 350 282
f 351 299 298
f 390 313 300
f 300 331 390
f 314 331 300
f 415 314 264
f 285 315 415
f 285 316 315
f 395 286 302
f 396 286 395
f 335 336 303
f 336 304 303
f 304 336 337
f 304 337 267
f 355 273 356
f 337 305 267
f 357 319 305
f 320 356 273
f 339 287 323
f 339 277 287
f 277 339 321
f 288 340 341
f 288 341 342
f 307 306 324
f 306 344 324
f 361 306 278
f 406 345 324
f 346 361 289
f 280 345 362
f 309 326 281
f 327 308 363
f 308 327 347
f 347 295 308
f 347 310 295
f 312 349 366
f 365 410 297
f 366 298 312
f 350 329 282
f 299 351 367
f 367 330 299
f 315 316 334
f 333 395 302
f 370 334 268
f 318 370 268
f 370 318 417
f 317 354 335
f 318 355 417
f 335 354 336
f 337 336 372
f 337 357 305
f 319 357 358
f 319 358 271
f 375 356 320
f 338 320 322
f 375 320 338
f 338 322 342
f 323 343 339
f 344 383 324
f 360 344 306
f 361 360 306
f 324 383 406
f 346 289 292
f 325 346 292
f 363 280 362
f 281 326 325
f 310 347 348
f 310 348 349
f 328 297 364
f 364 297 410
f 366 349 437
f 282 329 365
f 298 366 351
f 313 390 350
f 352 391 332
f 331 314 368
f 393 333 353
f 315 334 394
f 334 370 394
f 371 286 396
f 371 317 286
f 354 317 420
f 354 372 336
f 355 356 373
f 337 372 374
f 343 323 271
f 378 375 338
f 399 339 343
f 359 339 399
f 359 321 339
f 376 321 359
f 376 340 321
f 341 338 342
f 340 377 341
f 340 376 377
f 341 377 338
f 360 381 344
f 385 346 325
f 326 385 325
f 327 363 386
f 347 327 386
f 326 309 408
f 309 328 408
f 409 408 328
f 409 328 364
f 366 437 412
f 389 351 366
f 350 388 329
f 367 351 389
f 460 352 330
f 460 330 367
f 391 352 460
f 353 332 391
f 415 368 314
f 416 333 393
f 315 394 369
f 416 395 333
f 317 371 420
f 420 371 418
f 422 354 420
f 422 372 354
f 373 417 355
f 397 374 372
f 356 424 373
f 357 337 358
f 429 271 358
f 429 343 271
f 400 359 399
f 359 400 376
f 379 376 401
f 376 379 377
f 380 338 377
f 380 378 338
f 377 379 380
f 404 383 344
f 381 404 344
f 382 381 360
f 405 382 360
f 361 405 360
f 407 406 383
f 346 405 361
f 362 345 406
f 362 406 384
f 363 384 386
f 363 362 384
f 386 387 347
f 348 347 387
f 349 348 437
f 329 410 365
f 366 412 389
f 350 413 388
f 413 350 390
f 368 390 331
f 415 414 368
f 315 369 415
f 442 370 417
f 443 371 396
f 420 421 422
f 464 417 373
f 422 397 372
f 374 425 337
f 375 424 356
f 425 358 337
f 424 375 398
f 428 429 358
f 448 398 375
f 450 399 343
f 450 343 429
f 378 448 375
f 430 399 450
f 401 376 400
f 399 430 400
f 402 448 380
f 378 380 448
f 431 401 400
f 401 431 403
f 401 403 379
f 403 380 379
f 432 403 433
f 403 432 380
f 402 380 432
f 476 346 385
f 407 434 384
f 384 406 407
f 385 326 436
f 384 435 386
f 408 436 326
f 387 386 435
f 497 437 348
f 410 329 411
f 367 389 458
f 367 458 438
f 390 459 413
f 460 367 438
f 440 353 391
f 368 414 392
f 440 393 353
f 501 393 440
f 416 393 501
f 441 395 416
f 441 396 395
f 463 396 441
f 463 443 396
f 464 442 417
f 371 443 419
f 371 419 418
f 419 445 418
f 445 420 418
f 424 464 373
f 421 397 422
f 423 397 421
f 423 374 397
f 426 374 423
f 374 426 425
f 425 428 358
f 425 426 427
f 425 427 428
f 469 432 451
f 431 400 430
f 431 453 403
f 433 403 453
f 491 407 383
f 404 491 383
f 475 405 346
f 476 475 346
f 384 434 435
f 435 455 387
f 495 436 408
f 387 456 348
f 409 364 457
f 497 348 456
f 457 364 410
f 410 411 457
f 458 389 412
f 438 499 460
f 460 439 391
f 368 461 390
f 439 440 391
f 481 440 439
f 415 369 462
f 502 416 501
f 441 416 502
f 442 394 370
f 419 465 445
f 421 420 445
f 465 516 445
f 446 444 464
f 424 446 464
f 445 486 421
f 486 423 421
f 424 505 446
f 486 447 423
f 505 424 398
f 398 448 505
f 423 447 426
f 427 426 468
f 427 468 449
f 471 429 428
f 471 428 427
f 471 450 429
f 467 402 469
f 467 448 402
f 450 471 430
f 432 469 402
f 452 430 471
f 433 451 432
f 452 431 430
f 474 404 381
f 454 381 382
f 454 474 381
f 529 434 407
f 455 435 434
f 495 477 436
f 329 388 411
f 413 479 388
f 413 459 479
f 438 458 499
f 390 461 459
f 510 460 499
f 510 439 460
f 511 481 439
f 392 461 368
f 481 501 440
f 462 414 415
f 536 441 502
f 483 441 536
f 441 483 463
f 513 444 446
f 505 485 446
f 448 467 505
f 447 466 426
f 468 426 466
f 468 487 449
f 470 427 449
f 470 449 487
f 427 470 471
f 472 471 470
f 471 472 452
f 433 453 473
f 452 453 431
f 453 452 489
f 407 519 529
f 407 491 519
f 476 492 475
f 493 476 385
f 385 436 493
f 529 455 434
f 477 493 436
f 455 456 387
f 455 494 456
f 496 495 408
f 496 408 409
f 497 456 478
f 497 508 437
f 437 560 412
f 437 508 560
f 412 560 498
f 388 509 411
f 412 498 458
f 461 500 459
f 510 499 480
f 510 511 439
f 482 462 369
f 442 538 394
f 443 463 483
f 483 539 443
f 484 419 443
f 446 485 513
f 486 445 516
f 486 466 447
f 466 487 468
f 469 542 541
f 469 541 467
f 469 451 542
f 470 488 472
f 433 473 451
f 489 473 453
f 472 517 452
f 517 489 452
f 490 382 405
f 490 454 382
f 492 506 405
f 506 490 405
f 475 492 405
f 493 492 476
f 521 455 529
f 455 521 494
f 478 456 494
f 547 497 478
f 457 411 548
f 411 509 548
f 509 388 532
f 479 532 388
f 534 499 458
f 461 550 500
f 392 550 461
f 551 502 501
f 394 538 369
f 503 483 536
f 539 484 443
f 464 444 442
f 512 442 444
f 513 512 444
f 504 516 465
f 486 516 524
f 487 488 470
f 542 451 527
f 489 565 564
f 489 564 473
f 567 491 404
f 474 567 404
f 520 492 493
f 477 520 493
f 457 496 409
f 457 507 545
f 507 457 548
f 508 497 547
f 549 499 534
f 500 570 459
f 480 499 549
f 481 551 501
f 482 369 538
f 539 483 576
f 484 514 419
f 514 465 419
f 514 504 465
f 504 514 515
f 516 504 524
f 486 524 554
f 467 553 505
f 554 466 486
f 553 467 541
f 466 525 487
f 488 487 526
f 527 473 564
f 451 473 527
f 555 472 488
f 489 543 565
f 518 474 454
f 490 518 454
f 528 506 492
f 544 520 477
f 544 477 495
f 544 495 530
f 530 495 496
f 494 521 522
f 545 496 457
f 478 494 522
f 547 478 522
f 547 522 546
f 532 479 523
f 459 523 479
f 459 570 523
f 533 458 498
f 458 533 534
f 414 462 535
f 536 502 551
f 483 503 576
f 539 576 644
f 442 512 538
f 594 514 484
f 485 540 513
f 505 595 485
f 597 524 504
f 554 525 466
f 526 487 525
f 563 488 526
f 472 556 517
f 556 543 517
f 517 543 489
f 518 567 474
f 528 492 520
f 568 528 520
f 585 531 521
f 522 521 531
f 500 609 570
f 573 550 392
f 511 591 481
f 591 551 481
f 574 551 591
f 414 575 392
f 414 535 575
f 535 462 482
f 537 503 536
f 552 482 538
f 594 484 539
f 514 594 632
f 632 515 514
f 485 593 540
f 504 515 597
f 505 553 595
f 526 525 582
f 555 488 563
f 555 556 472
f 491 569 519
f 491 567 566
f 520 584 568
f 544 584 520
f 545 606 496
f 606 530 496
f 559 547 546
f 509 532 548
f 560 533 498
f 560 608 533
f 549 534 533
f 500 588 609
f 550 588 500
f 480 572 510
f 572 511 510
f 392 575 573
f 592 536 551
f 535 482 552
f 592 537 536
f 503 667 576
f 512 577 552
f 538 512 552
f 644 594 539
f 513 577 512
f 540 577 513
f 595 593 485
f 554 524 597
f 554 582 525
f 542 581 541
f 527 583 581
f 527 581 542
f 527 564 583
f 566 569 491
f 584 603 568
f 569 604 529
f 529 519 569
f 521 529 585
f 522 531 586
f 586 546 522
f 507 557 545
f 548 532 558
f 508 547 559
f 508 559 607
f 607 560 508
f 561 480 549
f 480 561 572
f 572 591 511
f 574 592 551
f 503 537 667
f 596 595 553
f 596 553 598
f 598 553 541
f 554 597 579
f 599 526 582
f 562 563 526
f 563 617 555
f 617 556 555
f 543 556 565
f 585 529 604
f 625 559 546
f 548 558 507
f 532 587 558
f 570 587 523
f 560 607 608
f 589 549 533
f 589 561 549
f 610 572 561
f 590 550 573
f 642 644 576
f 554 579 580
f 554 580 582
f 633 582 580
f 599 562 526
f 562 617 563
f 601 556 617
f 565 620 564
f 602 567 518
f 652 604 569
f 530 584 544
f 531 585 653
f 624 606 545
f 545 557 624
f 636 557 507
f 523 587 532
f 626 587 570
f 609 626 570
f 589 610 561
f 550 590 588
f 571 572 610
f 571 628 572
f 628 591 572
f 575 629 573
f 630 575 535
f 552 631 535
f 642 576 667
f 577 578 552
f 540 578 577
f 540 593 578
f 632 645 515
f 597 515 645
f 579 597 688
f 598 541 646
f 688 662 579
f 616 646 581
f 541 581 646
f 579 662 580
f 662 633 580
f 615 599 582
f 562 600 617
f 583 564 618
f 564 620 618
f 601 619 556
f 565 619 620
f 565 556 619
f 649 518 490
f 649 602 518
f 621 490 506
f 650 506 528
f 604 653 585
f 605 530 606
f 531 653 586
f 586 729 625
f 636 624 557
f 546 586 625
f 558 636 507
f 558 637 636
f 558 587 637
f 627 533 608
f 627 589 533
f 588 658 609
f 590 658 588
f 590 611 658
f 641 591 628
f 573 612 590
f 641 574 591
f 612 573 629
f 630 629 575
f 535 631 630
f 578 643 552
f 613 593 595
f 596 613 595
f 688 597 645
f 598 646 614
f 633 615 582
f 616 581 583
f 615 562 599
f 674 617 600
f 617 721 601
f 650 621 506
f 528 568 650
f 635 569 566
f 622 635 566
f 566 567 602
f 566 602 622
f 623 650 568
f 568 603 623
f 652 569 635
f 605 584 530
f 654 605 606
f 624 654 606
f 625 663 559
f 559 663 607
f 681 587 626
f 627 608 680
f 627 639 589
f 589 684 610
f 628 571 610
f 658 611 709
f 612 611 590
f 612 640 611
f 660 574 641
f 612 755 640
f 660 592 574
f 629 755 612
f 537 592 660
f 552 643 631
f 687 593 613
f 616 583 647
f 615 600 562
f 648 647 583
f 721 617 674
f 618 648 583
f 721 676 601
f 601 676 619
f 619 634 620
f 620 634 618
f 649 677 602
f 621 649 490
f 622 602 677
f 605 603 584
f 729 586 653
f 654 624 636
f 663 625 729
f 637 655 636
f 681 638 587
f 608 607 680
f 681 626 683
f 609 683 626
f 589 639 684
f 658 683 609
f 684 628 610
f 709 611 640
f 659 641 628
f 667 537 660
f 630 755 629
f 668 578 593
f 661 632 594
f 593 687 668
f 598 614 669
f 598 669 596
f 662 688 670
f 646 616 671
f 633 662 718
f 633 718 615
f 616 647 704
f 672 600 615
f 673 618 634
f 618 673 648
f 621 678 649
f 635 622 651
f 652 635 693
f 693 635 651
f 652 653 604
f 694 654 636
f 655 694 636
f 637 656 655
f 587 638 637
f 682 627 680
f 627 682 657
f 657 639 627
f 665 628 684
f 665 659 628
f 685 667 660
f 713 644 642
f 668 643 578
f 686 594 644
f 645 632 700
f 614 646 701
f 671 616 704
f 718 672 615
f 704 647 673
f 647 648 673
f 689 600 672
f 689 674 600
f 675 634 619
f 673 634 675
f 706 677 649
f 678 706 649
f 605 723 603
f 654 694 679
f 653 727 729
f 637 638 656
f 607 663 708
f 680 607 708
f 639 696 684
f 709 664 658
f 640 791 709
f 666 659 710
f 666 641 659
f 666 660 641
f 685 660 666
f 630 712 755
f 713 642 667
f 643 715 631
f 668 715 643
f 686 644 713
f 661 594 686
f 687 613 699
f 596 699 613
f 700 632 661
f 688 645 700
f 701 646 671
f 672 718 719
f 678 621 691
f 651 622 738
f 738 622 677
f 650 691 621
f 691 650 623
f 707 652 693
f 723 605 679
f 654 679 605
f 653 652 707
f 658 664 683
f 639 657 696
f 697 684 696
f 697 665 684
f 665 710 659
f 698 685 666
f 713 667 685
f 715 712 631
f 712 630 631
f 668 745 715
f 596 669 699
f 688 700 716
f 669 614 717
f 670 688 716
f 662 670 718
f 719 720 672
f 720 689 672
f 689 690 674
f 675 766 673
f 676 675 619
f 706 738 677
f 705 693 651
f 651 738 705
f 692 691 623
f 692 623 603
f 603 723 692
f 707 693 740
f 727 653 707
f 679 694 726
f 657 682 695
f 657 695 732
f 657 732 696
f 791 790 709
f 791 640 755
f 668 687 745
f 746 661 686
f 746 700 661
f 716 700 746
f 699 669 717
f 614 701 717
f 704 747 671
f 704 673 703
f 720 748 689
f 748 690 689
f 690 721 674
f 722 706 678
f 737 678 691
f 724 740 693
f 655 656 694
f 729 742 663
f 708 663 742
f 731 682 680
f 731 680 708
f 770 638 730
f 681 730 638
f 683 730 681
f 754 732 695
f 744 730 683
f 744 683 664
f 733 665 697
f 665 733 710
f 711 666 710
f 666 711 698
f 735 685 698
f 713 685 735
f 735 803 713
f 686 713 714
f 745 687 760
f 760 687 699
f 702 670 716
f 702 718 670
f 737 722 678
f 739 737 691
f 739 691 692
f 724 693 705
f 739 692 723
f 725 723 679
f 740 727 707
f 726 725 679
f 694 728 726
f 728 694 741
f 656 741 694
f 769 729 727
f 638 770 656
f 682 731 695
f 734 696 732
f 744 664 709
f 734 697 696
f 790 744 709
f 734 733 697
f 711 710 733
f 735 698 711
f 757 756 712
f 714 713 803
f 804 714 803
f 715 757 712
f 759 746 686
f 717 762 699
f 763 716 777
f 736 717 701
f 763 702 716
f 671 736 701
f 702 764 718
f 764 719 718
f 823 748 720
f 780 721 690
f 721 780 676
f 739 749 737
f 768 724 705
f 725 739 723
f 740 724 750
f 753 727 740
f 726 728 752
f 729 769 742
f 743 770 730
f 744 743 730
f 790 773 744
f 774 733 734
f 774 711 733
f 775 735 711
f 745 757 715
f 714 759 686
f 745 760 792
f 746 759 776
f 761 746 776
f 746 761 716
f 777 716 761
f 736 762 717
f 702 763 764
f 747 736 671
f 823 719 779
f 719 823 720
f 704 765 747
f 703 765 704
f 766 703 673
f 781 676 780
f 676 781 675
f 767 705 738
f 767 738 706
f 767 706 722
f 768 705 767
f 797 739 725
f 768 750 724
f 751 797 725
f 751 725 726
f 751 726 752
f 769 727 753
f 656 770 741
f 801 742 769
f 788 742 801
f 788 708 742
f 708 788 731
f 743 771 770
f 731 772 695
f 731 832 772
f 772 754 695
f 744 802 743
f 744 773 802
f 789 774 734
f 775 711 774
f 815 735 775
f 803 735 815
f 712 817 755
f 712 756 817
f 758 757 745
f 745 792 758
f 777 761 776
f 699 762 760
f 793 763 777
f 763 793 764
f 764 793 778
f 764 778 719
f 719 778 779
f 780 690 748
f 703 766 824
f 675 782 766
f 737 783 722
f 749 783 737
f 783 767 722
f 740 750 812
f 798 797 751
f 752 798 751
f 728 785 752
f 786 785 728
f 741 786 728
f 770 786 741
f 754 734 732
f 815 775 774
f 817 791 755
f 758 819 757
f 836 792 760
f 760 762 836
f 806 762 736
f 851 793 777
f 703 867 765
f 852 780 748
f 703 824 867
f 809 766 782
f 824 766 809
f 781 782 675
f 795 767 783
f 783 749 796
f 739 796 749
f 784 796 739
f 797 784 739
f 740 812 753
f 828 812 750
f 785 798 752
f 801 769 753
f 800 801 753
f 786 770 787
f 771 787 770
f 788 831 832
f 788 832 731
f 860 734 754
f 789 734 860
f 791 816 790
f 834 774 789
f 815 774 834
f 819 756 757
f 714 776 759
f 776 821 777
f 777 821 851
f 747 794 736
f 778 807 779
f 747 765 794
f 823 852 748
f 808 782 781
f 809 782 808
f 826 795 783
f 810 826 783
f 810 783 796
f 768 795 811
f 768 767 795
f 753 812 800
f 785 799 798
f 830 785 786
f 787 830 786
f 788 801 831
f 771 845 787
f 743 845 771
f 848 773 790
f 833 834 789
f 815 835 803
f 803 835 804
f 714 804 864
f 776 714 864
f 820 819 758
f 758 792 820
f 821 776 805
f 836 762 881
f 822 779 807
f 822 823 779
f 853 780 852
f 811 795 854
f 825 810 796
f 828 768 811
f 797 838 784
f 750 768 828
f 838 797 798
f 839 838 798
f 799 839 798
f 799 785 830
f 831 801 800
f 845 843 787
f 844 772 832
f 847 754 772
f 754 847 860
f 773 814 802
f 848 814 773
f 848 790 816
f 817 816 791
f 849 835 815
f 818 804 835
f 864 804 818
f 806 881 762
f 806 736 883
f 851 778 793
f 736 794 883
f 807 893 822
f 885 824 895
f 867 824 885
f 809 895 824
f 853 781 780
f 853 808 781
f 795 826 854
f 810 825 887
f 827 825 796
f 784 827 796
f 827 784 838
f 840 829 800
f 842 829 840
f 787 813 830
f 800 829 831
f 787 843 813
f 844 832 831
f 844 847 772
f 743 846 845
f 802 846 743
f 814 846 802
f 861 833 789
f 861 789 860
f 833 861 834
f 834 849 815
f 819 850 756
f 863 819 820
f 805 776 864
f 792 836 820
f 883 794 866
f 765 867 794
f 893 868 822
f 868 823 822
f 868 852 823
f 809 808 895
f 826 837 854
f 827 887 825
f 837 826 810
f 837 810 887
f 854 828 811
f 855 812 828
f 840 812 855
f 812 840 800
f 830 856 841
f 830 813 856
f 842 831 829
f 873 844 831
f 845 858 843
f 816 879 848
f 862 834 861
f 834 862 878
f 834 878 849
f 892 835 849
f 817 879 816
f 818 835 892
f 817 891 879
f 891 756 850
f 891 817 756
f 819 863 850
f 836 865 820
f 778 851 884
f 778 884 807
f 827 838 839
f 828 872 855
f 855 889 840
f 830 841 799
f 842 840 857
f 842 873 831
f 873 842 857
f 843 874 813
f 873 875 844
f 874 843 858
f 875 847 844
f 846 858 845
f 860 847 859
f 877 861 860
f 877 860 859
f 892 849 878
f 863 891 850
f 805 864 923
f 865 836 881
f 821 882 851
f 884 893 807
f 867 866 794
f 852 868 910
f 852 910 853
f 853 897 808
f 808 897 895
f 854 837 870
f 870 869 854
f 854 869 828
f 888 870 837
f 871 887 827
f 839 871 827
f 828 869 872
f 841 899 799
f 899 839 799
f 872 900 855
f 889 855 916
f 889 857 840
f 813 917 856
f 813 874 917
f 901 873 857
f 890 847 875
f 847 890 859
f 846 876 858
f 846 814 876
f 862 861 877
f 907 892 878
f 863 908 891
f 880 818 892
f 923 864 880
f 880 864 818
f 820 922 863
f 820 865 922
f 865 881 935
f 883 866 909
f 866 867 936
f 886 853 910
f 853 886 897
f 869 870 898
f 898 900 869
f 870 888 898
f 888 837 912
f 912 837 887
f 912 887 871
f 869 900 872
f 839 899 871
f 916 855 900
f 856 917 841
f 874 902 917
f 874 858 902
f 890 873 901
f 902 858 904
f 875 873 890
f 904 858 876
f 859 890 903
f 848 906 814
f 859 919 877
f 848 879 906
f 905 862 877
f 905 878 862
f 905 907 878
f 891 921 879
f 907 933 892
f 863 922 908
f 865 934 922
f 865 935 934
f 805 924 821
f 821 924 882
f 883 881 806
f 909 881 883
f 882 884 851
f 936 909 866
f 884 925 893
f 925 894 893
f 936 867 911
f 894 868 893
f 894 910 868
f 911 885 895
f 867 885 911
f 910 937 886
f 886 896 897
f 937 896 886
f 871 913 912
f 900 898 915
f 900 915 916
f 841 928 899
f 916 950 889
f 857 889 950
f 901 940 890
f 903 890 940
f 903 929 859
f 929 919 859
f 906 876 814
f 877 919 920
f 920 905 877
f 921 906 879
f 892 933 944
f 923 880 944
f 944 880 892
f 923 924 805
f 935 881 965
f 884 882 967
f 936 911 979
f 894 937 910
f 911 895 926
f 896 926 897
f 895 897 926
f 914 898 888
f 914 888 912
f 914 912 913
f 898 949 915
f 899 939 871
f 899 928 939
f 917 928 841
f 902 918 917
f 904 957 902
f 876 957 904
f 876 906 957
f 919 929 930
f 921 941 906
f 905 932 907
f 905 920 932
f 891 960 921
f 891 908 960
f 907 932 933
f 908 922 960
f 924 966 882
f 881 909 965
f 968 894 925
f 968 937 894
f 911 926 945
f 927 914 913
f 939 913 871
f 914 949 898
f 927 913 939
f 950 916 947
f 947 916 915
f 928 952 939
f 952 928 954
f 901 857 950
f 954 917 918
f 940 929 903
f 920 919 930
f 941 931 906
f 906 931 957
f 920 959 932
f 962 960 922
f 943 933 932
f 933 943 963
f 933 963 944
f 944 964 923
f 934 962 922
f 964 924 923
f 966 967 882
f 896 945 926
f 914 946 949
f 927 938 914
f 914 938 946
f 915 949 947
f 948 947 949
f 951 938 927
f 927 939 951
f 917 954 928
f 953 940 901
f 902 957 918
f 940 956 929
f 929 956 930
f 930 959 920
f 921 942 941
f 942 921 960
f 944 963 964
f 993 909 936
f 979 995 936
f 967 925 884
f 925 967 978
f 978 968 925
f 911 945 979
f 980 997 937
f 997 896 937
f 949 981 948
f 982 950 947
f 939 970 951
f 952 970 939
f 969 901 950
f 952 989 970
f 955 989 952
f 955 952 954
f 901 969 953
f 955 954 918
f 955 918 990
f 956 940 953
f 957 990 918
f 956 973 930
f 958 930 973
f 941 974 931
f 930 958 959
f 942 974 941
f 943 932 975
f 975 932 959
f 963 943 1007
f 961 960 962
f 934 1008 962
f 977 924 964
f 924 977 966
f 935 965 934
f 909 993 965
f 993 936 995
f 980 937 968
f 896 997 945
f 947 948 982
f 949 946 981
f 938 987 946
f 950 986 969
f 950 982 986
f 987 938 951
f 970 988 951
f 969 971 953
f 956 953 1001
f 953 971 1001
f 957 972 990
f 956 1001 973
f 957 931 972
f 931 974 992
f 958 975 959
f 960 974 942
f 1007 943 975
f 1006 1007 975
f 1008 961 962
f 963 1007 976
f 1008 934 1010
f 977 964 976
f 976 964 963
f 966 994 967
f 978 980 968
f 946 983 981
f 946 987 983
f 948 981 982
f 985 983 987
f 951 988 987
f 982 984 986
f 982 981 998
f 998 981 983
f 998 984 982
f 971 969 986
f 989 988 970
f 989 1000 988
f 991 989 955
f 1000 989 991
f 990 991 955
f 972 991 990
f 972 1002 991
f 1003 1002 972
f 931 1003 972
f 973 1014 958
f 931 992 1003
f 958 1014 975
f 1027 975 1014
f 974 1005 992
f 975 1027 1006
f 960 1005 974
f 961 1005 960
f 976 1007 1009
f 934 965 1010
f 977 994 966
f 1018 994 977
f 978 996 980
f 995 979 1011
f 979 945 1011
f 1012 983 985
f 998 983 1012
f 987 999 985
f 988 999 987
f 984 1023 986
f 1023 971 986
f 984 998 1020
f 988 1000 999
f 1013 1000 991
f 991 1002 1013
f 973 1025 1014
f 1015 1002 1003
f 1004 1015 1003
f 992 1004 1003
f 1005 1004 992
f 961 1016 1005
f 1006 1029 1007
f 1008 1016 961
f 976 1009 1017
f 1017 977 976
f 1010 965 993
f 993 995 1032
f 994 978 967
f 980 996 997
f 996 1033 997
f 997 1034 945
f 1011 945 1034
f 998 1012 1020
f 999 1021 985
f 984 1020 1023
f 1021 999 1038
f 1023 1022 971
f 1038 999 1000
f 1001 971 1022
f 1000 1013 1038
f 1025 973 1001
f 1001 1022 1025
f 1014 1025 1027
f 1028 1004 1005
f 1005 1016 1028
f 1027 1029 1006
f 1007 1029 1009
f 1031 1016 1008
f 1008 1010 1031
f 1017 1018 977
f 1010 993 1031
f 1031 993 1032
f 1019 978 994
f 978 1019 996
f 995 1011 1032
f 1046 1033 996
f 1034 997 1033
f 985 1035 1012
f 1020 1012 1035
f 1021 1035 985
f 1022 1023 1039
f 1002 1040 1013
f 1002 1024 1040
f 1026 1025 1022
f 1022 1039 1026
f 1015 1024 1002
f 1015 1004 1024
f 1027 1025 1026
f 1042 1029 1027
f 1043 1016 1031
f 1009 1029 1030
f 1031 1052 1043
f 1030 1017 1009
f 1018 1017 1030
f 1018 1030 1053
f 994 1018 1053
f 1031 1054 1052
f 1032 1054 1031
f 994 1053 1019
f 1019 1046 996
f 1011 1045 1032
f 1065 1033 1046
f 1011 1034 1045
f 1035 1037 1020
f 1036 1035 1021
f 1036 1021 1038
f 1020 1039 1023
f 1039 1020 1037
f 1013 1040 1038
f 1026 1039 1037
f 1024 1049 1040
f 1004 1041 1024
f 1026 1050 1027
f 1041 1004 1028
f 1027 1050 1042
f 1028 1051 1041
f 1051 1028 1043
f 1043 1028 1016
f 1042 1030 1029
f 1052 1061 1043
f 1044 1030 1042
f 1044 1062 1030
f 1053 1030 1062
f 1032 1045 1054
f 1034 1033 1067
f 1034 1067 1045
f 1047 1037 1035
f 1036 1038 1055
f 1038 1040 1055
f 1057 1026 1037
f 1026 1057 1050
f 1024 1048 1049
f 1041 1048 1024
f 1059 1048 1041
f 1041 1051 1059
f 1042 1050 1060
f 1043 1061 1051
f 1042 1060 1044
f 1053 1062 1064
f 1064 1019 1053
f 1067 1054 1045
f 1064 1046 1019
f 1046 1064 1065
f 1033 1065 1067
f 1036 1055 1035
f 1035 1055 1047
f 1056 1055 1040
f 1049 1056 1040
f 1037 1047 1057
f 1048 1056 1049
f 1068 1057 1047
f 1057 1058 1050
f 1068 1058 1057
f 1059 1056 1048
f 1050 1058 1072
f 1060 1050 1072
f 1051 1073 1059
f 1060 1072 1074
f 1073 1051 1077
f 1061 1077 1051
f 1066 1060 1078
f 1044 1060 1066
f 1062 1044 1066
f 1052 1063 1061
f 1054 1063 1052
f 1064 1062 1066
f 1063 1067 1080
f 1064 1066 1065
f 1065 1066 1080
f 1067 1063 1054
f 1065 1080 1067
f 1055 1069 1047
f 1056 1069 1055
f 1070 1069 1056
f 1068 1047 1069
f 1068 1071 1058
f 1071 1068 1069
f 1075 1069 1070
f 1076 1075 1070
f 1073 1070 1056
f 1076 1070 1073
f 1059 1073 1056
f 1074 1072 1058
f 1074 1058 1071
f 1075 1071 1069
f 1078 1074 1071
f 1079 1071 1075
f 1076 1073 1077
f 1078 1060 1074
f 1078 1071 1079
f 1079 1075 1076
f 1077 1079 1076
f 1079 1077 1063
f 1063 1077 1061
f 1066 1078 1079
f 1080 1066 1079
f 1080 1079 1063
# 2156 faces, 0 coords texture

# End of File
