####
#
# OBJ File Generated by Meshlab
#
####
# Object PBR2.obj
#
# Vertices: 1171
# Faces: 2338
#
####
v 24880.876953 14413.623047 15836.402344
v 24977.310547 14641.668945 15814.522461
v 24791.074219 14339.765625 15835.880859
v 24772.019531 14376.918945 15824.769531
v 25047.017578 14526.224609 15916.157227
v 25013.585938 14709.297852 15853.325195
v 24970.529297 14758.485352 15837.853516
v 24688.568359 14231.299805 15848.389648
v 24651.199219 14271.619141 15840.825195
v 24832.283203 14257.721680 15890.548828
v 24792.683594 14461.127930 15813.424805
v 24969.912109 14527.191406 15843.403320
v 24861.898438 14465.032227 15814.432617
v 24832.310547 14616.857422 15803.765625
v 24907.398438 14741.255859 15818.298828
v 24881.765625 14858.096680 15855.713867
v 24975.687500 14858.896484 15884.660156
v 24636.267578 14144.038086 15882.022461
v 24785.386719 14259.555664 15867.037109
v 24739.599609 14451.529297 15818.397461
v 24670.482422 14483.463867 15833.807617
v 24754.699219 14656.463867 15819.857422
v 24875.982422 14705.464844 15809.302734
v 24816.630859 14925.655273 15866.667969
v 24930.884766 14909.731445 15889.385742
v 24828.406250 14999.108398 15896.194336
v 24709.808594 14993.932617 15879.394531
v 24729.535156 15041.728516 15896.166016
v 24626.068359 15114.436523 15922.114258
v 24542.458984 14065.375000 15917.613281
v 24630.121094 14046.287109 15925.299805
v 24550.718750 14178.358398 15877.724609
v 24596.982422 14347.405273 15855.108398
v 24570.802734 14478.476562 15864.784180
v 24629.748047 14665.752930 15851.416016
v 25057.412109 14645.996094 15896.332031
v 24739.177734 14770.075195 15831.715820
v 25095.988281 14693.410156 15938.549805
v 25017.507812 14770.119141 15872.100586
v 24668.519531 14748.952148 15844.094727
v 24817.957031 14804.429688 15832.734375
v 24684.705078 14931.981445 15866.362305
v 24604.537109 14903.779297 15879.734375
v 24745.619141 15093.320312 15928.994141
v 24676.732422 15196.261719 15981.354492
v 24585.279297 15069.576172 15915.114258
v 24436.718750 14075.483398 15955.382812
v 24471.181641 14292.473633 15911.308594
v 24534.134766 14322.734375 15879.676758
v 25011.880859 14438.721680 15923.442383
v 24485.611328 14589.274414 15901.625000
v 24405.496094 14710.585938 15941.793945
v 24549.554688 14662.296875 15877.673828
v 24552.837891 14780.595703 15883.771484
v 24409.365234 14865.886719 15949.466797
v 25025.494141 14881.107422 15927.855469
v 24533.814453 15035.112305 15922.674805
v 24648.822266 15212.647461 15990.998047
v 24444.142578 14176.524414 15935.910156
v 24686.996094 14089.221680 15918.342773
v 24432.130859 14378.856445 15926.686523
v 24911.437500 14218.238281 15960.022461
v 24443.548828 14491.390625 15916.761719
v 24501.693359 14429.590820 15889.874023
v 24932.044922 14395.502930 15877.871094
v 24982.121094 14253.103516 15996.909180
v 25093.308594 14541.270508 15973.608398
v 24362.195312 14640.278320 15960.736328
v 25082.308594 14748.707031 15929.568359
v 25082.179688 14890.455078 15976.716797
v 24440.818359 14987.503906 15952.502930
v 24989.359375 15022.836914 15977.976562
v 24502.201172 14896.147461 15914.680664
v 24465.884766 15082.666016 15961.022461
v 24870.167969 15076.104492 15955.744141
v 24517.236328 15161.794922 15969.394531
v 24430.433594 13918.332031 16014.076172
v 24457.644531 14000.953125 15965.290039
v 24515.492188 13977.556641 15961.627930
v 24370.619141 14258.436523 15968.803711
v 24390.164062 14496.447266 15946.922852
v 25128.818359 14645.165039 15993.289062
v 24326.755859 14693.457031 15981.778320
v 25117.246094 14840.032227 15993.676758
v 24285.376953 14755.957031 16012.275391
v 24379.687500 14955.185547 15979.125977
v 24799.646484 15124.668945 15966.256836
v 24399.943359 13987.471680 15999.064453
v 24651.029297 13983.623047 15971.538086
v 24319.115234 14136.634766 16010.002930
v 24745.410156 14079.808594 15943.706055
v 24294.109375 14536.393555 15995.900391
v 24214.914062 14694.438477 16054.442383
v 24256.953125 14825.066406 16042.625977
v 24952.140625 15052.835938 15973.870117
v 24440.583984 15159.210938 16008.657227
v 24769.015625 15204.093750 16026.666992
v 24527.095703 15223.541016 16015.895508
v 24381.775391 13840.498047 16067.991211
v 24358.343750 13884.537109 16053.722656
v 24466.982422 13853.968750 16041.785156
v 24391.216797 14096.411133 15977.361328
v 24228.222656 14255.196289 16044.807617
v 25059.447266 14310.961914 16047.987305
v 24300.423828 14349.523438 15999.636719
v 24214.392578 14404.535156 16048.618164
v 24198.794922 14559.938477 16059.991211
v 24254.814453 14590.655273 16019.440430
v 24195.765625 14786.286133 16083.717773
v 24297.902344 14993.586914 16046.561523
v 25040.599609 15021.217773 16014.701172
v 24388.337891 15085.102539 16010.437500
v 24329.875000 13774.823242 16111.610352
v 24307.621094 13943.454102 16054.190430
v 24555.248047 13915.421875 16000.360352
v 24263.222656 14071.880859 16053.036133
v 24863.683594 14011.696289 16039.238281
v 25028.673828 14279.286133 16028.282227
v 25157.484375 14632.261719 16062.291016
v 25182.121094 14731.847656 16092.383789
v 25152.927734 14743.120117 16017.911133
v 25183.667969 14894.913086 16113.043945
v 24960.873047 15121.054688 16028.393555
v 24373.259766 15232.540039 16106.605469
v 24834.554688 15232.187500 16097.173828
v 24636.037109 15249.458008 16029.737305
v 24452.960938 15242.301758 16057.201172
v 24581.898438 15301.408203 16101.771484
v 24447.316406 13785.406250 16093.943359
v 24641.515625 13803.301758 16095.762695
v 24730.037109 13939.004883 16027.975586
v 24801.578125 13976.122070 16031.355469
v 24199.894531 14011.264648 16103.239258
v 24897.716797 14086.674805 16019.853516
v 24188.994141 14156.647461 16087.998047
v 24943.072266 14149.139648 16017.902344
v 24996.789062 14094.531250 16078.128906
v 24150.716797 14315.655273 16097.620117
v 24143.154297 14411.071289 16101.189453
v 24143.041016 14757.513672 16125.718750
v 24157.601562 14845.367188 16135.003906
v 24242.726562 14940.315430 16082.981445
v 24308.314453 15055.518555 16061.718750
v 25005.564453 15081.275391 16030.448242
v 24315.443359 15169.763672 16113.245117
v 24923.093750 15151.938477 16035.409180
v 24428.078125 15288.781250 16119.926758
v 24498.078125 15309.289062 16118.622070
v 24345.884766 13687.879883 16166.923828
v 24453.216797 13637.561523 16202.162109
v 24539.414062 13794.687500 16089.111328
v 24661.912109 13881.314453 16046.575195
v 24855.695312 13890.305664 16096.103516
v 24944.000000 13842.026367 16150.835938
v 24948.291016 13916.928711 16120.083984
v 25099.462891 13828.033203 16210.571289
v 24253.605469 13953.916016 16080.710938
v 25129.562500 13882.633789 16209.708984
v 25073.433594 13922.432617 16166.270508
v 24937.617188 14000.463867 16079.869141
v 25092.855469 13976.980469 16169.449219
v 25029.171875 13992.409180 16130.886719
v 25088.037109 14066.567383 16158.375977
v 25123.074219 14024.572266 16195.916992
v 25010.103516 14188.541992 16051.392578
v 25041.457031 14130.021484 16099.685547
v 25067.650391 14187.722656 16108.984375
v 25120.705078 14131.567383 16189.307617
v 25117.410156 14468.670898 16053.341797
v 24142.000000 14584.946289 16107.435547
v 24081.371094 14585.721680 16165.257812
v 24123.556641 14931.775391 16199.381836
v 24232.861328 15042.673828 16130.859375
v 25103.960938 14991.925781 16064.946289
v 25122.328125 15075.678711 16150.805664
v 24537.335938 15355.875977 16172.375977
v 24564.656250 13671.369141 16182.563477
v 24736.876953 13731.755859 16161.908203
v 24780.503906 13771.531250 16143.960938
v 24985.957031 13746.516602 16215.021484
v 24811.906250 13824.393555 16119.243164
v 25169.605469 13908.717773 16243.442383
v 24128.876953 14063.291992 16147.534180
v 25150.392578 14081.486328 16237.532227
v 24116.302734 14209.028320 16134.611328
v 25143.164062 14175.285156 16225.009766
v 25113.808594 14215.157227 16163.473633
v 24036.591797 14272.560547 16196.743164
v 25140.957031 14311.626953 16197.881836
v 25105.447266 14319.720703 16113.742188
v 25120.673828 14388.304688 16111.298828
v 25160.242188 14531.328125 16128.110352
v 24092.310547 14729.138672 16171.385742
v 25210.201172 14673.927734 16226.225586
v 25198.972656 14838.907227 16138.753906
v 24199.207031 15095.192383 16190.098633
v 24763.640625 15259.092773 16087.714844
v 24361.408203 15304.377930 16169.307617
v 24673.333984 15292.455078 16102.422852
v 24724.017578 15302.274414 16149.287109
v 24446.933594 15357.756836 16179.795898
v 24656.675781 13694.249023 16175.265625
v 24838.511719 13635.685547 16255.670898
v 24906.113281 13689.891602 16231.001953
v 24174.529297 13868.094727 16157.893555
v 25184.705078 13985.776367 16284.666992
v 25162.830078 14216.965820 16282.979492
v 25161.085938 14309.872070 16266.010742
v 24059.615234 14448.869141 16177.184570
v 25161.140625 14389.438477 16234.413086
v 25156.492188 14456.712891 16171.390625
v 24269.019531 15134.198242 16137.873047
v 25055.464844 15139.430664 16145.439453
v 25021.175781 15187.055664 16170.360352
v 24956.033203 15215.007812 16158.666992
v 24828.429688 15272.307617 16169.386719
v 24645.937500 15344.475586 16203.478516
v 24458.402344 15386.814453 16230.186523
v 24386.853516 15367.325195 16210.169922
v 24285.007812 13721.845703 16159.003906
v 24759.421875 13558.333984 16302.617188
v 24535.189453 13610.929688 16227.804688
v 24989.679688 13660.701172 16275.622070
v 24221.386719 13806.631836 16148.349609
v 25108.699219 13696.695312 16291.578125
v 24118.175781 13943.495117 16181.048828
v 24059.300781 13986.499023 16219.063477
v 25187.324219 14060.850586 16319.184570
v 25180.240234 14526.380859 16220.470703
v 25219.232422 14706.576172 16258.136719
v 25203.669922 14728.885742 16157.104492
v 24090.445312 14989.375977 16265.026367
v 25161.593750 14973.376953 16122.449219
v 24152.777344 15148.133789 16274.706055
v 25093.830078 15172.199219 16248.165039
v 24242.912109 15197.442383 16202.062500
v 24300.654297 15268.409180 16191.878906
v 24856.988281 15289.639648 16240.918945
v 24355.457031 15355.772461 16222.022461
v 24640.425781 13571.909180 16268.496094
v 24416.382812 13595.857422 16239.637695
v 25033.142578 13619.400391 16324.653320
v 25145.908203 13774.219727 16259.234375
v 25183.314453 13828.293945 16264.663086
v 25223.558594 13897.513672 16344.470703
v 24058.175781 13926.585938 16233.586914
v 25188.238281 14181.581055 16377.802734
v 25181.146484 14274.769531 16374.421875
v 25186.996094 14478.669922 16339.400391
v 23977.537109 14474.335938 16266.017578
v 23917.828125 14419.292969 16331.903320
v 25196.310547 14579.004883 16279.198242
v 24004.082031 14611.511719 16250.984375
v 24048.636719 14801.699219 16240.079102
v 25229.287109 14883.629883 16243.033203
v 25210.750000 14928.131836 16198.802734
v 25193.287109 15021.742188 16211.329102
v 25184.095703 15102.513672 16273.240234
v 24588.824219 15381.500000 16278.264648
v 24257.152344 15331.942383 16282.847656
v 24520.656250 15395.001953 16262.656250
v 24843.966797 13559.320312 16322.273438
v 24181.859375 13678.925781 16238.324219
v 25170.710938 13740.236328 16309.333008
v 24151.992188 13780.222656 16205.386719
v 24015.789062 13828.555664 16294.413086
v 23947.705078 14274.256836 16280.541016
v 25177.765625 14397.132812 16326.401367
v 25202.513672 14600.524414 16365.016602
v 25235.673828 14845.934570 16277.557617
v 25226.673828 15048.291016 16297.386719
v 25133.406250 15127.310547 16229.708984
v 24210.853516 15254.493164 16273.845703
v 24735.751953 15335.249023 16248.369141
v 24360.076172 15408.230469 16303.915039
v 24264.804688 15404.441406 16351.925781
v 24321.843750 15430.273438 16376.723633
v 24689.445312 13495.588867 16353.169922
v 24863.283203 13509.074219 16379.395508
v 24251.421875 13620.243164 16241.827148
v 23991.716797 13747.667969 16340.880859
v 25210.697266 13794.829102 16338.745117
v 25215.621094 14026.771484 16413.503906
v 25194.939453 14528.015625 16431.101562
v 23999.587891 14663.950195 16263.780273
v 24014.373047 15004.032227 16369.776367
v 25229.693359 15089.952148 16342.068359
v 24691.433594 15361.305664 16326.526367
v 24437.792969 15414.072266 16321.414062
v 24539.863281 13534.491211 16294.443359
v 24393.767578 13509.190430 16326.689453
v 24319.195312 13532.309570 16304.672852
v 24122.570312 13607.635742 16312.532227
v 25103.908203 13619.251953 16374.029297
v 24086.195312 13731.684570 16275.306641
v 23944.777344 14193.574219 16289.019531
v 23890.234375 14274.717773 16355.531250
v 25189.134766 14405.065430 16464.906250
v 23982.001953 14827.512695 16342.734375
v 25231.671875 14798.822266 16337.415039
v 25240.232422 14960.182617 16329.894531
v 25238.673828 15042.662109 16376.676758
v 25089.316406 15205.751953 16312.592773
v 24865.476562 15301.266602 16288.139648
v 24215.181641 15377.480469 16374.329102
v 24728.535156 13454.388672 16401.632812
v 24294.753906 13479.053711 16370.466797
v 24532.843750 13470.305664 16363.922852
v 24019.369141 13529.101562 16411.791016
v 24144.755859 13557.986328 16337.430664
v 24206.210938 13524.428711 16344.777344
v 24032.765625 13621.757812 16357.155273
v 24983.001953 13559.703125 16369.004883
v 25250.523438 13723.319336 16480.125000
v 23998.492188 14154.986328 16239.878906
v 23909.939453 14520.361328 16357.032227
v 23944.394531 14711.681641 16357.495117
v 25205.326172 14648.173828 16437.863281
v 25233.925781 14895.709961 16402.308594
v 25234.015625 14987.479492 16400.128906
v 24099.810547 15153.959961 16349.428711
v 24127.347656 15238.816406 16377.891602
v 25187.355469 15154.179688 16346.066406
v 24948.654297 15258.495117 16252.126953
v 24159.533203 15342.869141 16414.451172
v 24606.742188 15387.693359 16341.335938
v 24420.460938 15424.862305 16372.261719
v 24427.300781 13403.720703 16443.699219
v 24869.324219 13465.270508 16429.935547
v 24068.335938 13483.951172 16430.966797
v 25074.314453 13571.454102 16407.693359
v 25148.652344 13656.072266 16375.634766
v 25212.966797 13732.236328 16385.855469
v 23893.654297 14062.162109 16364.140625
v 23966.462891 14008.454102 16299.567383
v 23828.722656 14471.371094 16457.591797
v 23887.574219 14590.946289 16404.804688
v 25197.671875 14663.645508 16536.986328
v 23869.791016 14672.007812 16460.509766
v 25208.722656 14769.375977 16484.652344
v 24895.292969 15305.072266 16365.710938
v 25026.314453 15256.826172 16395.509766
v 24726.132812 15360.728516 16428.937500
v 24209.847656 15409.564453 16465.945312
v 24501.320312 15412.367188 16389.730469
v 24267.339844 13437.941406 16419.195312
v 24484.359375 13378.235352 16475.087891
v 23905.505859 13437.253906 16541.273438
v 24976.121094 13472.187500 16470.988281
v 25039.214844 13469.342773 16513.544922
v 23922.164062 13864.575195 16373.873047
v 25237.619141 13919.851562 16419.789062
v 23799.498047 14011.221680 16472.925781
v 23847.972656 14125.523438 16410.312500
v 25199.072266 14229.885742 16512.662109
v 25191.466797 14283.820312 16474.962891
v 23982.662109 14998.088867 16418.603516
v 25098.974609 15221.490234 16396.855469
v 24102.714844 13425.185547 16477.105469
v 23925.021484 13595.476562 16446.062500
v 25205.957031 13650.263672 16459.283203
v 23903.134766 13709.652344 16429.410156
v 25261.900391 13818.767578 16506.972656
v 23812.896484 14366.215820 16459.652344
v 23771.583984 14375.214844 16519.382812
v 23796.306641 14523.289062 16521.654297
v 23932.947266 14840.378906 16424.408203
v 23977.359375 15061.577148 16479.177734
v 25195.294922 15102.204102 16451.332031
v 24061.289062 15155.796875 16410.976562
v 25192.378906 15141.533203 16406.041016
v 24827.804688 15330.360352 16377.783203
v 24915.183594 15312.943359 16494.365234
v 24562.236328 15403.281250 16491.398438
v 24806.695312 15343.337891 16555.695312
v 24268.835938 15429.610352 16424.751953
v 24214.183594 13333.690430 16560.408203
v 24331.804688 13341.054688 16531.267578
v 24612.781250 13336.582031 16550.003906
v 24695.179688 13390.753906 16480.226562
v 24835.171875 13420.718750 16475.753906
v 25158.457031 13589.741211 16462.777344
v 25236.537109 13676.829102 16485.876953
v 25241.050781 13809.211914 16418.160156
v 23829.810547 14685.621094 16535.113281
v 25191.484375 14766.521484 16588.781250
v 23834.183594 14766.536133 16572.484375
v 23916.423828 14948.147461 16529.121094
v 24091.726562 15276.015625 16480.021484
v 24958.777344 15298.604492 16590.134766
v 25027.886719 15262.342773 16468.224609
v 25063.027344 15243.216797 16535.667969
v 24149.908203 15360.410156 16492.101562
v 24311.300781 15438.798828 16463.501953
v 24109.767578 13352.920898 16555.605469
v 23935.800781 13409.481445 16549.753906
v 23988.779297 13375.517578 16563.792969
v 23862.347656 13422.587891 16582.345703
v 23834.271484 13489.237305 16566.316406
v 23891.929688 13488.098633 16517.435547
v 23839.781250 13770.345703 16474.371094
v 23830.716797 13925.710938 16451.369141
v 23816.144531 14234.375000 16447.808594
v 23729.892578 14423.964844 16604.064453
v 25191.578125 14544.280273 16572.152344
v 25189.332031 14927.595703 16575.449219
v 25190.509766 15060.668945 16502.652344
v 25152.095703 15183.389648 16419.076172
v 24089.531250 15304.892578 16550.380859
v 24149.037109 15358.942383 16558.554688
v 24358.068359 15442.375977 16467.439453
v 24433.646484 15426.997070 16532.513672
v 24077.369141 13314.194336 16615.427734
v 23969.587891 13347.380859 16601.908203
v 23836.375000 13372.854492 16633.242188
v 25127.427734 13496.888672 16547.404297
v 25233.429688 13994.836914 16495.117188
v 23751.119141 14208.774414 16531.421875
v 25197.808594 14872.648438 16547.218750
v 24016.152344 15129.712891 16474.115234
v 25159.681641 15144.303711 16505.015625
v 24196.679688 15384.760742 16558.904297
v 24138.486328 13278.457031 16658.218750
v 24252.144531 13293.426758 16609.904297
v 24836.611328 13346.464844 16590.166016
v 24891.031250 13313.311523 16670.406250
v 23814.001953 13579.528320 16546.835938
v 25289.476562 13674.265625 16604.103516
v 23775.609375 13774.501953 16537.619141
v 25270.937500 13845.335938 16591.453125
v 25216.714844 14098.270508 16513.994141
v 23683.394531 14280.840820 16643.722656
v 25189.638672 14447.325195 16692.707031
v 23771.044922 14551.816406 16575.888672
v 24035.757812 15216.021484 16551.683594
v 23999.236328 15164.388672 16600.201172
v 25108.404297 15199.278320 16580.240234
v 24590.697266 15394.420898 16570.302734
v 24044.023438 13251.508789 16727.416016
v 23927.970703 13329.824219 16648.460938
v 24726.634766 13303.508789 16626.378906
v 25063.232422 13407.086914 16620.828125
v 25237.853516 13586.725586 16575.144531
v 23723.714844 14031.058594 16564.910156
v 23760.888672 14636.491211 16639.457031
v 25193.675781 15003.044922 16533.218750
v 25165.054688 15037.483398 16619.947266
v 23990.451172 15124.692383 16536.716797
v 25146.656250 15111.193359 16617.011719
v 25113.576172 15174.436523 16647.046875
v 24184.607422 15363.459961 16606.996094
v 24177.634766 13232.087891 16734.917969
v 23890.603516 13310.222656 16707.767578
v 24356.181641 13270.781250 16641.019531
v 24433.496094 13217.386719 16739.031250
v 24473.429688 13311.617188 16575.119141
v 23756.732422 13396.511719 16671.263672
v 24981.392578 13356.015625 16641.566406
v 23782.906250 13454.509766 16625.494141
v 23708.583984 13487.737305 16680.603516
v 25218.808594 13519.614258 16628.875000
v 25311.150391 13681.159180 16687.390625
v 23709.292969 13784.871094 16607.384766
v 23658.126953 13809.291992 16663.507812
v 25281.119141 13839.767578 16677.964844
v 23677.414062 14031.549805 16626.517578
v 23706.453125 14204.462891 16595.308594
v 25214.070312 14162.890625 16612.937500
v 25180.525391 14647.833008 16683.492188
v 23856.183594 14875.860352 16615.451172
v 25170.214844 14814.097656 16703.541016
v 23921.574219 15011.506836 16601.779297
v 23996.748047 15153.598633 16667.498047
v 24053.234375 15256.291992 16615.529297
v 25069.576172 15226.456055 16668.283203
v 24304.861328 15423.863281 16561.990234
v 24415.906250 15407.093750 16655.306641
v 23825.449219 13344.599609 16688.662109
v 24956.199219 13298.505859 16739.832031
v 23793.214844 13609.044922 16556.224609
v 25269.927734 13553.040039 16676.740234
v 25305.890625 13601.001953 16740.216797
v 23734.324219 13632.942383 16606.552734
v 25301.208984 13764.294922 16752.875000
v 23620.181641 13966.510742 16704.460938
v 23625.601562 14050.431641 16701.296875
v 25195.990234 14314.610352 16585.333984
v 25182.537109 14528.176758 16746.941406
v 25163.945312 14678.351562 16800.742188
v 23869.009766 14932.367188 16685.064453
v 23936.427734 15052.029297 16652.318359
v 25168.486328 14960.891602 16657.966797
v 24099.542969 15283.256836 16666.214844
v 25003.160156 15278.449219 16620.623047
v 24997.695312 15273.565430 16761.650391
v 24675.113281 15370.125000 16633.179688
v 24105.966797 13208.410156 16803.693359
v 24314.949219 13220.840820 16731.449219
v 24745.669922 13257.981445 16722.125000
v 24865.669922 13247.121094 16792.660156
v 24573.138672 13272.983398 16652.613281
v 23777.654297 13357.851562 16708.576172
v 25068.251953 13328.340820 16760.373047
v 25132.763672 13406.218750 16688.835938
v 23673.960938 13586.346680 16685.154297
v 23615.386719 14173.295898 16732.296875
v 25192.312500 14403.226562 16605.556641
v 23693.994141 14500.373047 16700.771484
v 23769.375000 14699.469727 16669.941406
v 23787.224609 14792.680664 16740.572266
v 25149.400391 14753.713867 16861.277344
v 23944.521484 15062.575195 16707.664062
v 25156.806641 14944.924805 16737.093750
v 24015.253906 15148.791992 16733.212891
v 25144.533203 15061.433594 16708.248047
v 24049.466797 15204.373047 16722.359375
v 25117.703125 15137.776367 16750.679688
v 24877.951172 15325.733398 16677.423828
v 24180.964844 15292.301758 16746.949219
v 24271.857422 15355.631836 16705.503906
v 24523.097656 15396.399414 16668.957031
v 24267.863281 13203.025391 16784.500000
v 24020.195312 13240.983398 16765.156250
v 23869.873047 13293.128906 16784.671875
v 23755.160156 13349.706055 16778.591797
v 23685.773438 13388.041992 16802.531250
v 25174.523438 13412.177734 16740.498047
v 23669.654297 13419.991211 16761.843750
v 23609.125000 13500.096680 16774.656250
v 25310.646484 13651.212891 16820.707031
v 23630.312500 13883.463867 16692.365234
v 25238.910156 14032.710938 16642.500000
v 23615.929688 14272.176758 16757.347656
v 23612.847656 14364.745117 16806.351562
v 23662.279297 14490.033203 16769.253906
v 23787.765625 14765.117188 16691.732422
v 23871.468750 14935.513672 16737.328125
v 23879.636719 14923.157227 16793.468750
v 23994.660156 15079.941406 16791.416016
v 25079.501953 15198.468750 16773.294922
v 24958.519531 15293.602539 16763.716797
v 24337.640625 15349.426758 16767.095703
v 24588.787109 15366.526367 16759.677734
v 24654.707031 15365.111328 16711.236328
v 24043.937500 13213.199219 16857.613281
v 23880.435547 13281.579102 16829.097656
v 25233.900391 13464.604492 16748.066406
v 25194.166016 14368.894531 16752.628906
v 23717.853516 14635.183594 16751.201172
v 23716.607422 14657.475586 16801.132812
v 23788.865234 14803.788086 16780.089844
v 23836.283203 14854.660156 16820.482422
v 25144.921875 14969.804688 16826.921875
v 23934.250000 15002.291016 16789.656250
v 25136.806641 15038.380859 16831.593750
v 24035.218750 15109.944336 16812.628906
v 25125.220703 15097.878906 16825.808594
v 24115.152344 13190.369141 16858.003906
v 24296.347656 13168.277344 16881.724609
v 24602.335938 13237.158203 16727.140625
v 23824.367188 13306.919922 16872.761719
v 25132.894531 13326.033203 16833.667969
v 25189.292969 13391.157227 16805.566406
v 25261.878906 13482.292969 16800.566406
v 23576.093750 13519.730469 16851.662109
v 25288.255859 13538.095703 16831.027344
v 23602.849609 13655.527344 16747.595703
v 25278.208984 13899.095703 16811.486328
v 25208.765625 14255.050781 16796.763672
v 23779.328125 14768.921875 16836.238281
v 25140.789062 14979.130859 16938.750000
v 25135.822266 15055.293945 16915.798828
v 25100.269531 15159.843750 16855.416016
v 24109.802734 15235.049805 16758.800781
v 25069.085938 15206.078125 16846.363281
v 24701.000000 15346.746094 16790.367188
v 24816.039062 15333.481445 16736.046875
v 24442.000000 15358.919922 16793.929688
v 24437.865234 13175.863281 16848.765625
v 24606.476562 13207.736328 16791.234375
v 24726.046875 13194.248047 16863.894531
v 24895.156250 13232.286133 16846.894531
v 25012.630859 13270.312500 16847.025391
v 25059.166016 13272.795898 16892.796875
v 23615.509766 13453.185547 16846.123047
v 23714.232422 13378.390625 16893.898438
v 23604.664062 13487.831055 16926.765625
v 25294.414062 13540.569336 16938.910156
v 23548.193359 13607.286133 16831.589844
v 25305.121094 13607.023438 16882.392578
v 23593.113281 13768.457031 16744.673828
v 25171.855469 14596.387695 16805.611328
v 25143.474609 14852.560547 16971.630859
v 23914.058594 14905.392578 16874.083984
v 23994.636719 14963.034180 16917.486328
v 24098.572266 15147.992188 16848.914062
v 25131.439453 15091.539062 16925.343750
v 25030.160156 15244.736328 16811.656250
v 24454.792969 13153.856445 16919.509766
v 23965.238281 13241.494141 16896.863281
v 23548.226562 13551.480469 16888.972656
v 23522.923828 13692.393555 16845.851562
v 25180.835938 14497.655273 16848.236328
v 23700.675781 14635.390625 16867.173828
v 24526.472656 15364.474609 16784.511719
v 24904.689453 13200.167969 16947.820312
v 23784.472656 13330.724609 16895.804688
v 23488.634766 13679.106445 16921.470703
v 25308.007812 13753.136719 16957.843750
v 23495.730469 13775.060547 16878.720703
v 23503.683594 13865.006836 16868.488281
v 23524.576172 13992.043945 16850.044922
v 23503.193359 14024.094727 16899.294922
v 25231.113281 14161.306641 16916.400391
v 23563.099609 14256.403320 16861.582031
v 23635.320312 14497.720703 16877.068359
v 23680.548828 14588.288086 16919.052734
v 25143.796875 14760.046875 16917.691406
v 23792.843750 14749.603516 16892.351562
v 23862.916016 14775.721680 16955.158203
v 24144.398438 15061.161133 16989.658203
v 24193.970703 15238.104492 16841.562500
v 24358.595703 15299.636719 16876.091797
v 25018.986328 15241.878906 16936.798828
v 24648.767578 15327.596680 16897.304688
v 24931.300781 15283.732422 16899.837891
v 24583.660156 13168.767578 16880.884766
v 24633.287109 13148.581055 16961.994141
v 24774.835938 13167.499023 16959.667969
v 24097.587891 13190.464844 16963.353516
v 25185.605469 13351.982422 16892.945312
v 23511.699219 13625.820312 16965.695312
v 25177.402344 14510.621094 17001.091797
v 23737.841797 14632.708008 16963.664062
v 24086.371094 14964.568359 17016.597656
v 24168.269531 15178.441406 16887.585938
v 25053.605469 15221.103516 16899.212891
v 24569.179688 15315.574219 16939.490234
v 24150.845703 13175.248047 17021.695312
v 24056.355469 13213.001953 17014.136719
v 23935.289062 13257.702148 16949.263672
v 25119.191406 13291.653320 16933.447266
v 23779.423828 13353.344727 16990.677734
v 25253.791016 13430.525391 16921.755859
v 23701.560547 13411.583008 16974.886719
v 23462.142578 13729.305664 16976.507812
v 23486.435547 14056.178711 16955.650391
v 23550.919922 14263.159180 16920.818359
v 25201.056641 14339.147461 16920.269531
v 23583.406250 14356.903320 16895.376953
v 23609.558594 14443.480469 16967.773438
v 23925.335938 14795.325195 17005.925781
v 24799.027344 15272.109375 17103.544922
v 24797.636719 15318.227539 16877.166016
v 24882.007812 15306.236328 16846.576172
v 24234.970703 13158.230469 16961.435547
v 24376.203125 13142.548828 16975.669922
v 23931.001953 13277.139648 17034.117188
v 25095.351562 13249.496094 17040.736328
v 23562.503906 13575.356445 17017.939453
v 23517.156250 13647.721680 17041.167969
v 25312.000000 13670.492188 16985.556641
v 23483.669922 13715.177734 17042.218750
v 23476.054688 13804.740234 17092.273438
v 23450.509766 13814.467773 16965.169922
v 23451.312500 13903.200195 16963.693359
v 25282.197266 13952.758789 17055.748047
v 23501.470703 14130.315430 16990.296875
v 23551.230469 14281.402344 16983.542969
v 24075.417969 14876.089844 17084.417969
v 24244.751953 15123.596680 17027.234375
v 25117.525391 15146.093750 17017.080078
v 24253.000000 15199.625977 16941.964844
v 24985.171875 15249.095703 16994.957031
v 24471.121094 15303.101562 16938.621094
v 24598.916016 13137.224609 16989.984375
v 24759.771484 13144.166016 17043.492188
v 25228.765625 13397.290039 16901.558594
v 23813.857422 13370.271484 17084.533203
v 25273.517578 13479.182617 16903.822266
v 23487.953125 14082.927734 17035.250000
v 23534.091797 14129.240234 17096.861328
v 25155.037109 14656.050781 16930.781250
v 25153.910156 14668.215820 17039.486328
v 25141.425781 15084.053711 17078.869141
v 24521.859375 13121.329102 17100.037109
v 24304.578125 13149.628906 17095.781250
v 23849.878906 13333.803711 17061.884766
v 23982.867188 13275.448242 17130.130859
v 25017.443359 13231.646484 16971.833984
v 23767.882812 13430.046875 17124.042969
v 23603.843750 13595.265625 17113.884766
v 25296.707031 13835.586914 16939.867188
v 25298.150391 13879.596680 17110.568359
v 23457.976562 13875.808594 17055.646484
v 23442.347656 13867.671875 17019.175781
v 23592.875000 14267.357422 17084.500000
v 25193.832031 14435.058594 17121.599609
v 23569.470703 14295.182617 17036.068359
v 23725.705078 14517.734375 17060.904297
v 23807.773438 14662.008789 17015.439453
v 25148.960938 14746.255859 17080.130859
v 24067.082031 13229.297852 17101.521484
v 25164.500000 13306.714844 17005.789062
v 25195.546875 13312.780273 17096.613281
v 25288.335938 13474.302734 17083.656250
v 23720.410156 13512.396484 17173.001953
v 23720.552734 13461.366211 17099.552734
v 25308.736328 13582.523438 17052.035156
v 25311.900391 13764.746094 17084.234375
v 23494.662109 14046.987305 17072.660156
v 23650.482422 14485.134766 17005.085938
v 24247.191406 14972.023438 17172.011719
v 24353.244141 15208.593750 17018.060547
v 24366.707031 15247.861328 16969.500000
v 24473.630859 15251.315430 17044.660156
v 24561.275391 15271.841797 17056.927734
v 24679.937500 15286.537109 17057.173828
v 24403.753906 13132.577148 17084.027344
v 24676.078125 13125.483398 17154.744141
v 24184.140625 13186.893555 17119.824219
v 25239.281250 13370.201172 17075.726562
v 23916.964844 13344.569336 17179.152344
v 25269.767578 13415.458984 17111.621094
v 23518.000000 13744.606445 17137.328125
v 23492.263672 13885.175781 17116.105469
v 25299.595703 13939.635742 17245.244141
v 23597.632812 14154.471680 17159.207031
v 23644.054688 14392.805664 17065.458984
v 23709.353516 14461.527344 17083.455078
v 23968.054688 14730.554688 17104.816406
v 24377.099609 15161.828125 17106.841797
v 24459.761719 15195.167969 17137.351562
v 25093.072266 15177.118164 17056.890625
v 25060.878906 15196.116211 17111.410156
v 24583.269531 15238.899414 17151.402344
v 24853.000000 15276.594727 17053.253906
v 24938.095703 15258.231445 17043.849609
v 24828.849609 13145.618164 17116.679688
v 24873.740234 13159.380859 17086.070312
v 24947.912109 13182.358398 17081.007812
v 25118.246094 13236.146484 17201.296875
v 25164.306641 13274.853516 17140.656250
v 25237.445312 13325.062500 17230.416016
v 25302.757812 13481.981445 17183.464844
v 23545.632812 13983.420898 17167.546875
v 25214.539062 14366.103516 17218.472656
v 24347.892578 15118.067383 17130.140625
v 25007.583984 15212.463867 17166.630859
v 24431.037109 13131.856445 17144.291016
v 24790.660156 13140.997070 17173.992188
v 24594.164062 13124.043945 17210.435547
v 25057.925781 13216.513672 17116.466797
v 25173.339844 13261.151367 17260.359375
v 25211.687500 13292.773438 17247.376953
v 25319.220703 13551.608398 17199.728516
v 23605.787109 13671.973633 17202.013672
v 25319.226562 13653.700195 17137.646484
v 25325.585938 13706.909180 17236.220703
v 23542.384766 13837.009766 17192.572266
v 25314.130859 13810.493164 17200.908203
v 23657.396484 14304.534180 17128.380859
v 23769.339844 14327.541016 17215.185547
v 25138.800781 15041.046875 17232.875000
v 24710.988281 13130.849609 17228.957031
v 24919.792969 13162.722656 17232.753906
v 24988.595703 13179.107422 17201.847656
v 24019.001953 13285.744141 17192.222656
v 25262.056641 13369.062500 17209.931641
v 23957.837891 13363.722656 17252.996094
v 23775.417969 13483.687500 17208.617188
v 25326.986328 13615.890625 17238.871094
v 23979.158203 14521.742188 17273.667969
v 23874.556641 14598.910156 17127.125000
v 25168.156250 14636.004883 17190.285156
v 23999.917969 14670.323242 17181.460938
v 24185.470703 14718.729492 17311.261719
v 24153.423828 14842.018555 17187.667969
v 25145.160156 15041.892578 17086.603516
v 24487.505859 15115.403320 17281.150391
v 25117.597656 15133.555664 17147.583984
v 24685.371094 15245.109375 17189.675781
v 24871.080078 15248.153320 17175.578125
v 24932.130859 15242.160156 17143.431641
v 24831.998047 13154.735352 17260.148438
v 24322.125000 13166.242188 17185.755859
v 24185.167969 13219.835938 17204.652344
v 24006.121094 13384.965820 17330.179688
v 25328.916016 13540.762695 17308.458984
v 25345.679688 13654.681641 17382.355469
v 23699.109375 14224.223633 17213.396484
v 24342.714844 15049.438477 17196.289062
v 24518.019531 15158.810547 17257.337891
v 25124.546875 15091.642578 17231.046875
v 25089.830078 15163.913086 17158.763672
v 25044.613281 15171.558594 17305.820312
v 24639.785156 15211.513672 17270.806641
v 24786.345703 15244.687500 17216.335938
v 24550.675781 13135.967773 17257.882812
v 24115.912109 13273.992188 17257.886719
v 23575.140625 13741.943359 17211.496094
v 23698.101562 13870.515625 17319.597656
v 25328.591797 13768.708008 17306.287109
v 23631.148438 13909.378906 17260.867188
v 25319.990234 13867.176758 17336.285156
v 23604.822266 14076.639648 17198.056641
v 23733.601562 14140.791016 17284.720703
v 23833.955078 14457.065430 17190.941406
v 24942.281250 13181.007812 17327.261719
v 24285.773438 13209.099609 17261.093750
v 24479.779297 13152.348633 17258.988281
v 24374.898438 13226.295898 17347.843750
v 25299.689453 13415.499023 17295.599609
v 25312.015625 13457.406250 17292.333984
v 23914.871094 13446.764648 17306.470703
v 23704.292969 13576.250977 17222.146484
v 23658.158203 13698.651367 17267.255859
v 23661.345703 14037.420898 17259.687500
v 24312.560547 14804.634766 17367.468750
v 25148.417969 14911.445312 17215.386719
v 25123.388672 15026.218750 17444.128906
v 25100.392578 15126.582031 17271.292969
v 25077.287109 15141.779297 17317.628906
v 24747.238281 15224.049805 17305.101562
v 24801.900391 13164.084961 17316.925781
v 24584.763672 13172.989258 17337.923828
v 24733.187500 13166.394531 17338.527344
v 25022.994141 13193.941406 17294.474609
v 25125.464844 13231.065430 17330.021484
v 25238.482422 13293.539062 17356.802734
v 23838.607422 13523.955078 17312.023438
v 23742.792969 13980.872070 17339.148438
v 23816.876953 14109.331055 17364.830078
v 25267.572266 14098.640625 17218.089844
v 23817.900391 14219.386719 17319.107422
v 25186.427734 14527.061523 17212.744141
v 25164.656250 14722.033203 17260.941406
v 25155.460938 14818.130859 17257.820312
v 24387.808594 14903.269531 17367.695312
v 25141.494141 14975.775391 17380.779297
v 24543.548828 15196.218750 17217.234375
v 24930.767578 13201.034180 17397.449219
v 24472.138672 13226.330078 17386.037109
v 24469.619141 13186.154297 17321.759766
v 24181.740234 13283.785156 17322.720703
v 25057.027344 13219.192383 17411.628906
v 24301.710938 13287.255859 17392.957031
v 24079.369141 13336.225586 17325.623047
v 24188.908203 13338.261719 17396.542969
v 25347.390625 13507.504883 17474.164062
v 23891.894531 13523.418945 17354.275391
v 23845.226562 13606.056641 17369.437500
v 23792.769531 13754.553711 17384.837891
v 23657.484375 13802.052734 17292.050781
v 25354.056641 13686.519531 17441.447266
v 23929.150391 14355.231445 17340.259766
v 24027.673828 14430.466797 17376.740234
v 24685.550781 15169.091797 17405.503906
v 24717.218750 15208.796875 17340.173828
v 24879.570312 15216.285156 17333.683594
v 23728.003906 13730.000977 17332.894531
v 24574.304688 15102.087891 17377.298828
v 25108.078125 15092.194336 17365.054688
v 24900.921875 15172.173828 17473.521484
v 24975.003906 15203.935547 17305.683594
v 24520.625000 13266.285156 17456.679688
v 24399.664062 13308.907227 17465.234375
v 25178.302734 13255.824219 17428.025391
v 25283.607422 13355.771484 17376.632812
v 24113.980469 13422.155273 17439.318359
v 24189.535156 13384.966797 17448.345703
v 23996.609375 13568.884766 17478.837891
v 23838.089844 13677.757812 17398.335938
v 25359.125000 13745.008789 17532.939453
v 23827.099609 13856.502930 17418.386719
v 25315.162109 13977.803711 17473.359375
v 25203.939453 14597.184570 17492.130859
v 24280.033203 14643.640625 17446.261719
v 25159.527344 14842.072266 17377.515625
v 25153.187500 14898.185547 17486.201172
v 25069.257812 15112.245117 17444.826172
v 24818.750000 15199.648438 17398.777344
v 24990.359375 15179.128906 17391.335938
v 24731.119141 13184.632812 17381.832031
v 24968.650391 13226.596680 17456.718750
v 25235.037109 13292.999023 17432.195312
v 23987.787109 13489.240234 17412.400391
v 25349.513672 13569.287109 17422.791016
v 23876.773438 13717.442383 17442.960938
v 23916.763672 13762.374023 17482.183594
v 23821.839844 13914.087891 17412.806641
v 23813.779297 14004.968750 17392.814453
v 23927.976562 14140.091797 17438.902344
v 23970.347656 14263.477539 17425.783203
v 24433.464844 14999.917969 17330.910156
v 24793.810547 13255.431641 17495.328125
v 24851.462891 13219.448242 17442.875000
v 24673.597656 13253.486328 17474.664062
v 25043.949219 13274.436523 17553.716797
v 25110.011719 13252.065430 17491.064453
v 24089.347656 13524.262695 17509.154297
v 23922.082031 13637.014648 17453.767578
v 25269.972656 14254.852539 17527.587891
v 23963.859375 14073.872070 17483.462891
v 24131.953125 14340.995117 17503.019531
v 24045.656250 14355.511719 17433.730469
v 24217.341797 14535.006836 17461.794922
v 24417.025391 14747.345703 17503.523438
v 25136.628906 14972.054688 17495.052734
v 25098.378906 15054.073242 17502.144531
v 24748.644531 15147.833984 17482.203125
v 25078.433594 15064.390625 17545.863281
v 25042.759766 15084.521484 17581.279297
v 24597.125000 13322.329102 17547.449219
v 25321.494141 13425.299805 17441.398438
v 24304.416016 13359.691406 17483.255859
v 24013.720703 13653.305664 17531.179688
v 25372.953125 13633.864258 17540.603516
v 24029.353516 14210.722656 17486.312500
v 24300.181641 14483.181641 17555.263672
v 25178.539062 14750.086914 17481.996094
v 25145.197266 14919.963867 17587.154297
v 24686.166016 15104.548828 17481.669922
v 25274.703125 13336.324219 17492.365234
v 25311.787109 13384.472656 17559.095703
v 24173.355469 13478.581055 17520.681641
v 23992.007812 13817.606445 17542.144531
v 23989.083984 13923.942383 17530.896484
v 24016.394531 14009.112305 17535.351562
v 24758.384766 15050.442383 17596.912109
v 24792.775391 15161.526367 17482.072266
v 24897.078125 15141.403320 17548.548828
v 24955.851562 13291.577148 17572.535156
v 25345.042969 13467.065430 17556.902344
v 25371.501953 13541.154297 17649.533203
v 23991.699219 13727.947266 17533.740234
v 25376.318359 13606.686523 17623.095703
v 24092.439453 13803.290039 17604.294922
v 24190.425781 14159.108398 17616.136719
v 24170.630859 14243.806641 17572.332031
v 24324.898438 14399.911133 17612.607422
v 24331.777344 14569.381836 17534.224609
v 24490.119141 14851.913086 17503.613281
v 25118.337891 15000.853516 17559.990234
v 25114.515625 13286.621094 17577.404297
v 25177.457031 13285.578125 17538.855469
v 25219.855469 13297.873047 17518.480469
v 24770.839844 13316.113281 17574.828125
v 24422.755859 13349.680664 17520.916016
v 24356.187500 13420.558594 17558.341797
v 24170.812500 13627.823242 17609.023438
v 25370.025391 13700.951172 17612.593750
v 24114.203125 13879.400391 17617.187500
v 25322.679688 13979.093750 17588.101562
v 24195.648438 14053.474609 17646.308594
v 25271.816406 14294.005859 17641.746094
v 24324.181641 14305.875000 17649.507812
v 24442.896484 14663.820312 17576.199219
v 24502.728516 14942.756836 17445.978516
v 25092.433594 15009.263672 17677.523438
v 24935.041016 15091.252930 17644.007812
v 25276.173828 13343.220703 17591.208984
v 25166.175781 13325.207031 17629.470703
v 24690.292969 13382.791016 17634.070312
v 25347.802734 13439.265625 17660.666016
v 24813.570312 13379.397461 17662.230469
v 24933.792969 13360.429688 17665.128906
v 24782.783203 13463.986328 17736.593750
v 24420.302734 13399.590820 17564.908203
v 24575.589844 13437.281250 17648.394531
v 24419.082031 13454.504883 17609.332031
v 24320.046875 13505.791992 17607.781250
v 24282.955078 13594.951172 17648.818359
v 24113.056641 13747.029297 17612.562500
v 25358.613281 13789.774414 17617.494141
v 24151.623047 13987.822266 17631.386719
v 25309.490234 14060.435547 17649.634766
v 24420.863281 14492.161133 17644.375000
v 25235.265625 14490.883789 17624.966797
v 25189.242188 14731.147461 17605.988281
v 24660.238281 14894.604492 17634.001953
v 24877.484375 15059.481445 17676.427734
v 24966.523438 15141.554688 17519.185547
v 25013.650391 15107.756836 17561.345703
v 25043.240234 13366.074219 17686.539062
v 25364.306641 13483.514648 17685.740234
v 24436.998047 13541.687500 17680.146484
v 24201.509766 13748.224609 17663.621094
v 24219.363281 13814.747070 17681.464844
v 24259.744141 13923.786133 17704.156250
v 25287.201172 14198.025391 17662.720703
v 24378.728516 14103.379883 17741.576172
v 24485.876953 14599.523438 17647.085938
v 24698.390625 14996.226562 17591.533203
v 25030.375000 15037.057617 17720.083984
v 25301.111328 13372.319336 17646.982422
v 24969.990234 13408.170898 17722.390625
v 24400.843750 13638.907227 17720.109375
v 24129.093750 13689.499023 17611.355469
v 24335.365234 13766.334961 17741.107422
v 24304.753906 13995.974609 17719.996094
v 24370.863281 14222.705078 17706.996094
v 24428.076172 14375.705078 17696.328125
v 25200.298828 14697.023438 17730.546875
v 24667.544922 14805.854492 17702.673828
v 24822.328125 15001.621094 17697.189453
v 25065.792969 15011.645508 17728.484375
v 25169.763672 13373.101562 17689.937500
v 25361.693359 13555.449219 17764.611328
v 24554.660156 13532.716797 17718.695312
v 25380.275391 13609.726562 17706.222656
v 24327.232422 13670.038086 17705.808594
v 24293.007812 13850.344727 17727.294922
v 25361.378906 13758.315430 17740.960938
v 25336.757812 13901.873047 17662.376953
v 24467.406250 14210.358398 17770.925781
v 25285.939453 14200.135742 17725.931641
v 24574.773438 14361.294922 17806.093750
v 24456.908203 14316.167969 17735.208984
v 24558.103516 14450.634766 17767.630859
v 24671.462891 14590.724609 17814.083984
v 24613.541016 14634.196289 17745.900391
v 24696.171875 14699.957031 17787.126953
v 25281.687500 13397.382812 17692.525391
v 25343.533203 13472.988281 17735.570312
v 25362.947266 13696.847656 17771.152344
v 24427.611328 13950.926758 17793.833984
v 25341.470703 13852.958008 17735.060547
v 25325.154297 13937.112305 17730.689453
v 24475.474609 14085.245117 17802.033203
v 25251.509766 14434.680664 17742.105469
v 24511.337891 14510.294922 17708.806641
v 25167.595703 14823.957031 17710.556641
v 24744.210938 14785.379883 17784.603516
v 25139.287109 14889.494141 17744.191406
v 25101.994141 14947.063477 17767.125000
v 24949.714844 15039.695312 17724.974609
v 25100.023438 13432.515625 17756.593750
v 25236.986328 13438.854492 17750.724609
v 25244.689453 13518.332031 17812.761719
v 24941.265625 13470.101562 17770.134766
v 25304.056641 13497.683594 17788.695312
v 24843.802734 13530.691406 17791.144531
v 25333.798828 13620.740234 17819.724609
v 24483.937500 13764.993164 17802.453125
v 25341.585938 13784.817383 17789.542969
v 24533.853516 13986.269531 17846.849609
v 25318.894531 13914.091797 17779.343750
v 25298.244141 14073.764648 17773.466797
v 25301.638672 14091.216797 17728.513672
v 25268.978516 14272.126953 17799.416016
v 24869.115234 14812.370117 17865.798828
v 24802.902344 14915.193359 17749.857422
v 24887.212891 14958.250000 17778.304688
v 24925.224609 14975.473633 17784.492188
v 24998.691406 15038.955078 17728.625000
v 24936.658203 13516.400391 17798.267578
v 25094.205078 13496.144531 17799.871094
v 25184.458984 13587.857422 17850.667969
v 25330.587891 13543.054688 17802.601562
v 24636.082031 13589.678711 17774.539062
v 24537.724609 13722.053711 17804.896484
v 25331.396484 13694.031250 17826.910156
v 24480.230469 13883.051758 17826.458984
v 25303.029297 13892.443359 17828.742188
v 24571.955078 14231.222656 17834.724609
v 24998.398438 14925.526367 17864.537109
v 25088.132812 14930.422852 17837.185547
v 25033.371094 14961.262695 17828.699219
v 25274.603516 13586.376953 17843.646484
v 25275.902344 13674.191406 17865.482422
v 24755.148438 13606.405273 17809.539062
v 24720.884766 13744.045898 17862.326172
v 24616.675781 13801.015625 17856.371094
v 24460.886719 13841.726562 17813.869141
v 25302.628906 13818.899414 17844.810547
v 24631.298828 13977.739258 17890.919922
v 25286.039062 14032.523438 17833.955078
v 25263.777344 14204.888672 17848.978516
v 24677.009766 14373.083984 17879.726562
v 25249.871094 14336.728516 17864.154297
v 25241.128906 14474.628906 17823.615234
v 25189.480469 14719.894531 17807.828125
v 25013.187500 14843.242188 17939.089844
v 25137.472656 14867.519531 17819.982422
v 25075.232422 13580.300781 17842.976562
v 25005.037109 13690.126953 17890.199219
v 24858.814453 13668.027344 17859.292969
v 25184.388672 13707.708008 17900.410156
v 24741.695312 13829.687500 17897.041016
v 24881.181641 13848.231445 17933.447266
v 24639.064453 13898.465820 17885.853516
v 25266.685547 13812.083984 17884.589844
v 24705.427734 13886.334961 17903.148438
v 25263.359375 13927.539062 17881.171875
v 24648.421875 14095.103516 17898.316406
v 25248.068359 14147.850586 17893.888672
v 24704.576172 14270.422852 17915.189453
v 25239.386719 14300.063477 17906.253906
v 24720.312500 14524.867188 17875.910156
v 25206.808594 14623.951172 17887.521484
v 25156.912109 14800.193359 17870.644531
v 24959.378906 14867.487305 17890.216797
v 25054.960938 14929.809570 17880.921875
v 25110.070312 14870.538086 17899.464844
v 25087.103516 13701.433594 17902.384766
v 24957.906250 13814.306641 17932.449219
v 25050.976562 13834.035156 17942.125000
v 25148.400391 13824.686523 17931.132812
v 24816.835938 13916.000000 17941.691406
v 25229.029297 13957.432617 17915.011719
v 24814.099609 13974.699219 17957.105469
v 24731.382812 13995.906250 17930.761719
v 24707.171875 14063.003906 17925.980469
v 25233.013672 14074.182617 17916.078125
v 24781.046875 14184.559570 17964.332031
v 25219.931641 14198.154297 17947.193359
v 24784.125000 14289.598633 17962.050781
v 25230.767578 14474.669922 17885.433594
v 24845.470703 14734.644531 17892.371094
v 25192.380859 14647.636719 17929.820312
v 25162.607422 14745.016602 17919.107422
v 25165.931641 13873.796875 17936.785156
v 25228.503906 13799.462891 17903.974609
v 25022.367188 14001.398438 17993.580078
v 25194.808594 13928.480469 17934.787109
v 25096.669922 13913.581055 17961.351562
v 25190.039062 14054.984375 17961.437500
v 24810.392578 14121.065430 17977.328125
v 25179.949219 14179.540039 17999.701172
v 25188.646484 14257.255859 18010.509766
v 24774.773438 14377.814453 17945.847656
v 25226.677734 14424.627930 17923.150391
v 24880.583984 14652.528320 17958.958984
v 24841.316406 14543.078125 17960.138672
v 24950.968750 14736.658203 17964.382812
v 24912.433594 13968.791992 17978.746094
v 25117.546875 14029.099609 17990.232422
v 25159.113281 13976.298828 17961.552734
v 24943.576172 14061.339844 18004.675781
v 25204.181641 14345.606445 17991.550781
v 25195.925781 14418.481445 17998.611328
v 25203.441406 14521.622070 17959.433594
v 25167.640625 14680.437500 17958.916016
v 25080.302734 14859.698242 17946.222656
v 25124.556641 14774.864258 17960.771484
v 25158.830078 14117.753906 18004.707031
v 25065.923828 14133.849609 18022.912109
v 25145.960938 14217.500977 18023.867188
v 24857.392578 14114.834961 17996.125000
v 24860.841797 14244.735352 18002.277344
v 24854.986328 14427.644531 17986.626953
v 24904.529297 14544.355469 17998.318359
v 25183.226562 14553.143555 17994.707031
v 25153.603516 14643.693359 17991.802734
v 25093.511719 14701.801758 18003.687500
v 25018.835938 14772.559570 17978.949219
v 24916.988281 14206.399414 18017.179688
v 25065.097656 14209.695312 18030.601562
v 24955.033203 14351.755859 18020.431641
v 24902.460938 14413.895508 18005.507812
v 25121.699219 14402.354492 18033.158203
v 25185.939453 14339.457031 18026.558594
v 25032.812500 14385.919922 18029.115234
v 25173.527344 14417.677734 18023.085938
v 24958.267578 14496.751953 18017.267578
v 25069.671875 14529.242188 18026.761719
v 24942.818359 14594.286133 18004.693359
v 25135.253906 14570.220703 18025.562500
v 24972.591797 14694.427734 17991.349609
v 25035.033203 14630.360352 18015.925781
# 1171 vertices, 0 vertices normals

f 1 13 12
f 12 13 2
f 12 2 5
f 3 13 1
f 65 10 1
f 3 4 13
f 12 65 1
f 2 36 5
f 2 6 36
f 2 23 15
f 15 7 2
f 7 6 2
f 39 6 7
f 15 16 7
f 7 16 17
f 8 9 4
f 3 8 4
f 4 9 20
f 11 4 20
f 1 19 3
f 19 1 10
f 11 13 4
f 11 20 14
f 11 14 13
f 14 2 13
f 14 23 2
f 38 36 6
f 17 39 7
f 56 39 17
f 17 16 25
f 30 32 18
f 18 32 8
f 32 9 8
f 9 21 20
f 19 8 3
f 21 22 20
f 22 14 20
f 22 40 37
f 22 23 14
f 22 37 23
f 6 69 38
f 39 69 6
f 37 41 23
f 41 16 15
f 41 15 23
f 24 25 16
f 24 16 41
f 25 72 17
f 24 26 25
f 27 26 24
f 27 28 26
f 26 28 44
f 27 46 29
f 27 29 28
f 28 29 44
f 31 30 18
f 18 60 31
f 9 32 33
f 8 60 18
f 19 60 8
f 33 21 9
f 49 34 33
f 34 21 33
f 34 35 21
f 35 22 21
f 50 12 5
f 35 40 22
f 42 41 37
f 40 43 37
f 43 42 37
f 72 56 17
f 41 42 24
f 95 25 26
f 25 95 72
f 42 27 24
f 43 46 42
f 42 46 27
f 57 46 43
f 26 44 75
f 44 29 45
f 74 46 57
f 46 76 29
f 74 76 46
f 76 58 29
f 29 58 45
f 47 32 30
f 78 47 30
f 31 79 30
f 48 49 32
f 49 33 32
f 91 60 19
f 10 91 19
f 48 64 49
f 64 34 49
f 53 64 51
f 64 53 34
f 12 50 65
f 53 35 34
f 36 67 5
f 52 53 51
f 54 40 35
f 54 35 53
f 121 38 69
f 52 55 53
f 55 54 53
f 39 84 69
f 56 70 39
f 70 84 39
f 43 40 54
f 55 73 54
f 54 73 43
f 73 57 43
f 26 75 95
f 75 44 87
f 44 45 87
f 30 79 78
f 79 31 115
f 59 32 47
f 59 48 32
f 61 64 48
f 63 64 61
f 65 62 10
f 63 61 81
f 50 66 65
f 63 51 64
f 81 52 51
f 63 81 51
f 68 81 92
f 68 52 81
f 82 67 36
f 36 38 82
f 83 52 68
f 83 55 52
f 55 71 73
f 71 57 73
f 71 74 57
f 74 96 76
f 98 58 76
f 77 100 88
f 77 88 78
f 78 79 77
f 78 88 47
f 47 88 102
f 102 59 47
f 80 59 102
f 80 48 59
f 80 61 48
f 81 61 80
f 118 66 50
f 50 104 118
f 50 5 104
f 92 108 68
f 83 68 108
f 38 121 82
f 69 84 121
f 85 55 83
f 85 86 55
f 86 71 55
f 74 71 86
f 75 87 95
f 97 87 45
f 126 58 98
f 77 99 100
f 101 99 77
f 79 101 77
f 115 101 79
f 89 115 31
f 31 60 89
f 91 89 60
f 90 80 102
f 90 103 80
f 103 105 80
f 105 81 80
f 65 66 62
f 105 92 81
f 67 104 5
f 82 169 67
f 121 119 82
f 108 85 83
f 93 85 108
f 94 85 93
f 94 86 85
f 94 110 86
f 72 111 56
f 56 111 70
f 112 86 110
f 123 72 95
f 112 74 86
f 96 74 112
f 96 127 76
f 98 76 127
f 100 114 88
f 114 102 88
f 114 116 102
f 116 90 102
f 10 117 91
f 134 117 10
f 62 134 10
f 103 106 105
f 106 92 105
f 169 104 67
f 108 92 106
f 119 169 82
f 107 93 108
f 121 120 119
f 109 94 93
f 84 122 121
f 142 94 109
f 110 94 142
f 111 174 70
f 143 112 110
f 112 143 145
f 87 123 95
f 146 123 87
f 97 146 87
f 125 146 97
f 58 126 45
f 97 45 126
f 127 148 98
f 148 126 98
f 126 197 97
f 129 113 99
f 113 100 99
f 114 100 113
f 129 99 101
f 157 116 114
f 91 131 89
f 103 90 116
f 135 103 116
f 103 135 138
f 103 138 106
f 139 107 106
f 106 107 108
f 170 93 107
f 140 109 93
f 140 93 170
f 109 140 141
f 141 142 109
f 233 122 84
f 84 70 233
f 233 70 174
f 72 144 111
f 123 144 72
f 96 145 124
f 96 112 145
f 96 124 127
f 125 97 197
f 128 126 148
f 199 197 126
f 126 128 199
f 149 113 129
f 101 151 129
f 224 114 113
f 151 101 115
f 115 130 151
f 157 114 224
f 130 115 152
f 152 115 89
f 152 89 131
f 131 153 181
f 131 132 153
f 131 91 132
f 153 132 117
f 116 157 133
f 117 132 91
f 117 134 160
f 133 135 116
f 160 134 137
f 137 134 136
f 136 165 137
f 62 136 134
f 62 66 136
f 185 138 135
f 139 106 138
f 170 107 139
f 119 120 231
f 121 195 120
f 195 121 122
f 142 141 172
f 172 173 142
f 110 142 173
f 147 127 124
f 198 147 124
f 148 127 147
f 128 148 176
f 176 199 128
f 129 150 149
f 224 113 220
f 151 130 202
f 130 152 179
f 153 154 181
f 179 152 181
f 224 205 157
f 181 152 131
f 153 155 154
f 154 155 156
f 156 155 159
f 157 205 133
f 155 153 117
f 156 159 158
f 155 162 159
f 117 160 155
f 158 161 182
f 158 159 161
f 155 160 162
f 159 162 161
f 182 161 164
f 160 137 162
f 183 135 133
f 137 166 162
f 162 163 161
f 164 161 163
f 162 166 163
f 183 185 135
f 166 137 165
f 163 167 168
f 163 166 167
f 163 168 164
f 66 118 165
f 66 165 136
f 167 187 168
f 165 167 166
f 165 118 167
f 167 104 187
f 167 118 104
f 138 188 139
f 104 169 190
f 119 192 169
f 171 140 170
f 193 140 171
f 119 231 192
f 193 141 140
f 172 196 173
f 110 173 143
f 174 111 175
f 173 212 143
f 212 145 143
f 111 144 175
f 175 144 213
f 144 123 213
f 213 123 214
f 123 146 214
f 215 146 125
f 145 237 124
f 198 124 237
f 199 200 197
f 219 201 147
f 198 219 147
f 148 147 201
f 176 148 201
f 220 113 149
f 177 129 151
f 202 177 151
f 202 130 178
f 178 130 179
f 179 181 180
f 180 181 154
f 180 154 156
f 156 158 244
f 244 158 182
f 164 184 182
f 186 184 168
f 168 184 164
f 186 168 187
f 185 188 138
f 186 187 189
f 104 190 187
f 189 187 190
f 191 190 169
f 209 139 188
f 169 192 191
f 209 170 139
f 171 170 209
f 192 231 194
f 120 195 231
f 141 193 254
f 141 254 172
f 212 173 196
f 215 214 146
f 197 216 125
f 216 215 125
f 198 239 219
f 199 176 217
f 203 240 202
f 280 220 149
f 222 177 240
f 240 177 202
f 204 223 203
f 263 224 220
f 150 129 177
f 150 177 222
f 202 178 203
f 203 178 179
f 204 203 179
f 204 179 180
f 204 180 223
f 180 156 243
f 265 205 224
f 243 156 244
f 226 133 205
f 182 245 244
f 206 245 182
f 226 183 133
f 227 183 226
f 184 206 182
f 228 206 184
f 185 183 315
f 315 188 185
f 186 207 184
f 184 207 228
f 267 188 315
f 209 188 267
f 191 211 189
f 191 189 190
f 208 189 210
f 210 189 211
f 192 211 191
f 253 171 250
f 253 193 171
f 192 194 229
f 193 253 285
f 122 256 195
f 233 174 175
f 213 272 175
f 214 235 213
f 213 235 272
f 212 196 236
f 145 212 236
f 237 145 236
f 197 200 216
f 260 198 237
f 176 261 217
f 199 217 200
f 260 239 198
f 201 218 176
f 218 261 176
f 219 218 201
f 280 263 220
f 149 150 241
f 221 240 203
f 150 222 241
f 263 265 224
f 225 223 180
f 225 180 243
f 266 226 205
f 315 183 227
f 247 228 207
f 207 248 247
f 207 186 189
f 208 207 189
f 209 267 250
f 250 171 209
f 211 229 210
f 211 192 229
f 194 231 230
f 285 254 193
f 231 195 255
f 256 255 195
f 232 172 254
f 196 172 232
f 196 232 234
f 215 324 214
f 215 216 238
f 324 215 238
f 216 200 238
f 200 274 238
f 261 259 217
f 217 274 200
f 218 219 275
f 222 240 290
f 241 222 290
f 203 262 221
f 262 203 223
f 262 223 242
f 243 264 225
f 266 205 265
f 246 226 266
f 246 227 226
f 335 227 246
f 228 245 206
f 296 267 315
f 208 248 207
f 208 268 248
f 210 268 208
f 210 229 268
f 229 252 249
f 252 229 194
f 250 251 316
f 250 316 253
f 231 270 230
f 231 255 270
f 286 232 254
f 122 257 256
f 233 257 122
f 175 257 233
f 258 257 175
f 175 272 258
f 234 236 196
f 234 273 236
f 236 273 237
f 260 237 273
f 259 274 217
f 260 276 239
f 276 275 239
f 275 219 239
f 290 240 278
f 240 221 278
f 293 263 310
f 310 263 280
f 292 280 149
f 292 149 241
f 223 225 242
f 295 265 263
f 266 265 295
f 243 244 264
f 244 282 264
f 244 245 282
f 315 227 335
f 247 283 228
f 229 249 268
f 252 269 249
f 251 250 267
f 194 230 252
f 286 254 299
f 256 271 255
f 256 257 271
f 258 271 257
f 286 234 232
f 272 323 258
f 272 235 323
f 304 238 274
f 259 288 274
f 326 288 259
f 275 289 218
f 261 218 289
f 276 277 275
f 221 306 278
f 306 221 262
f 311 310 280
f 291 292 241
f 291 241 290
f 312 263 293
f 312 295 263
f 294 242 225
f 332 294 225
f 264 332 225
f 281 266 295
f 282 333 264
f 245 384 282
f 283 352 245
f 283 245 228
f 268 298 248
f 298 268 249
f 251 267 297
f 249 269 284
f 230 269 252
f 230 300 269
f 285 253 316
f 317 254 285
f 270 300 230
f 317 299 254
f 286 299 357
f 255 301 270
f 255 271 301
f 301 271 287
f 321 234 286
f 287 271 258
f 323 287 258
f 303 323 235
f 214 303 235
f 214 324 303
f 341 304 372
f 238 304 324
f 274 372 304
f 260 273 325
f 274 288 372
f 260 325 305
f 259 261 326
f 305 276 260
f 308 290 278
f 308 291 290
f 306 262 279
f 309 312 293
f 309 293 310
f 311 280 292
f 279 262 242
f 279 242 313
f 313 242 331
f 294 331 242
f 264 361 332
f 245 363 384
f 335 246 266
f 334 296 315
f 296 297 267
f 248 355 247
f 364 251 297
f 284 298 249
f 316 251 364
f 269 318 284
f 337 285 316
f 317 285 337
f 319 300 270
f 357 299 367
f 270 301 319
f 287 302 301
f 370 321 286
f 234 321 322
f 322 273 234
f 325 273 322
f 372 288 343
f 288 326 343
f 326 261 345
f 289 327 345
f 289 345 261
f 277 276 376
f 275 277 289
f 308 278 306
f 307 292 291
f 307 291 328
f 328 291 308
f 329 306 279
f 279 313 329
f 313 331 349
f 281 312 360
f 281 295 312
f 333 361 264
f 282 314 333
f 282 384 314
f 266 281 351
f 245 352 363
f 351 335 266
f 315 335 334
f 298 356 248
f 316 336 337
f 284 405 298
f 318 405 284
f 300 318 269
f 299 317 367
f 318 300 340
f 319 340 300
f 301 320 319
f 320 301 302
f 286 357 368
f 324 342 303
f 305 344 276
f 344 376 276
f 394 277 376
f 277 327 289
f 310 311 330
f 346 311 307
f 346 307 328
f 328 308 347
f 330 309 310
f 311 292 307
f 313 349 329
f 331 294 382
f 382 294 332
f 283 417 352
f 354 296 334
f 248 356 355
f 364 297 403
f 336 316 364
f 318 338 405
f 339 337 366
f 339 317 337
f 338 318 340
f 367 317 339
f 286 368 370
f 287 369 302
f 369 287 371
f 323 371 287
f 408 371 323
f 303 358 323
f 408 323 358
f 303 342 358
f 304 341 324
f 341 342 324
f 325 344 305
f 277 411 327
f 394 411 277
f 381 380 306
f 380 347 308
f 380 308 306
f 381 306 329
f 400 309 348
f 330 348 309
f 359 330 311
f 346 359 311
f 349 381 329
f 400 360 309
f 309 360 312
f 350 349 331
f 362 281 360
f 361 382 332
f 351 281 362
f 402 335 351
f 334 335 402
f 283 431 417
f 354 334 353
f 247 431 283
f 354 297 296
f 336 364 365
f 366 337 336
f 385 367 339
f 419 340 319
f 370 322 321
f 372 373 341
f 341 373 342
f 373 391 342
f 358 342 391
f 389 325 322
f 389 322 370
f 374 326 345
f 393 344 325
f 345 327 411
f 396 330 359
f 378 346 328
f 396 348 330
f 333 383 361
f 333 314 383
f 401 351 362
f 402 351 401
f 352 430 363
f 430 352 417
f 353 334 402
f 403 297 354
f 247 355 431
f 366 336 365
f 385 339 366
f 338 340 386
f 357 367 387
f 368 357 388
f 319 320 419
f 369 407 302
f 302 407 320
f 391 392 358
f 374 375 343
f 389 393 325
f 343 326 374
f 476 376 344
f 476 394 376
f 374 345 412
f 345 411 412
f 397 359 395
f 395 359 346
f 395 346 377
f 377 346 378
f 377 378 424
f 347 378 328
f 379 456 347
f 397 396 359
f 416 331 382
f 416 350 331
f 427 362 360
f 401 362 427
f 403 354 353
f 468 431 355
f 364 403 418
f 434 385 366
f 387 367 385
f 340 419 386
f 387 388 357
f 320 406 419
f 368 420 370
f 370 420 389
f 407 369 421
f 371 421 369
f 421 371 437
f 392 408 358
f 371 408 437
f 343 373 372
f 375 373 343
f 373 390 391
f 393 410 344
f 413 395 377
f 396 398 348
f 415 398 396
f 456 378 347
f 379 347 380
f 380 425 441
f 400 348 398
f 381 425 380
f 400 398 399
f 381 349 458
f 350 458 349
f 400 427 360
f 399 427 400
f 416 442 350
f 384 428 314
f 384 363 428
f 402 401 429
f 353 444 403
f 405 507 298
f 365 404 366
f 366 404 434
f 406 320 446
f 320 407 446
f 448 389 420
f 390 494 391
f 494 392 391
f 409 393 389
f 375 374 438
f 409 410 393
f 394 476 411
f 410 422 344
f 422 476 344
f 414 395 413
f 423 413 377
f 424 423 377
f 415 396 414
f 414 396 397
f 414 397 395
f 378 454 424
f 457 398 415
f 379 380 441
f 457 459 398
f 459 399 398
f 381 458 425
f 361 443 382
f 428 443 383
f 443 361 383
f 314 428 383
f 480 401 427
f 429 401 480
f 462 428 363
f 363 430 462
f 418 403 444
f 417 431 532
f 418 365 364
f 418 467 365
f 298 487 356
f 448 420 368
f 449 407 421
f 409 435 474
f 409 389 435
f 410 409 474
f 374 412 438
f 477 412 411
f 414 413 440
f 440 415 414
f 456 454 378
f 456 379 501
f 501 379 441
f 458 426 425
f 442 458 350
f 480 427 399
f 480 399 459
f 382 461 416
f 443 461 382
f 463 402 429
f 463 353 402
f 417 465 430
f 465 417 532
f 466 418 444
f 432 365 467
f 356 487 355
f 298 507 487
f 432 404 365
f 405 433 507
f 445 385 434
f 387 385 445
f 419 471 386
f 470 388 387
f 435 389 448
f 436 474 435
f 408 392 437
f 437 392 475
f 410 474 493
f 493 451 410
f 451 422 410
f 477 411 476
f 412 521 438
f 453 440 439
f 439 440 413
f 439 413 423
f 452 423 424
f 478 415 440
f 502 457 415
f 502 415 478
f 441 425 426
f 504 442 416
f 460 480 459
f 428 481 443
f 464 353 463
f 444 353 464
f 532 431 468
f 467 418 466
f 468 355 487
f 445 434 508
f 338 469 405
f 386 469 338
f 386 471 469
f 388 470 472
f 388 472 368
f 492 406 446
f 492 446 447
f 407 447 446
f 407 449 447
f 436 435 448
f 421 450 449
f 437 450 421
f 494 475 392
f 495 475 494
f 496 518 375
f 373 375 518
f 375 438 496
f 422 451 476
f 452 439 423
f 440 453 478
f 523 453 439
f 501 441 560
f 499 560 441
f 456 455 454
f 499 441 426
f 458 479 426
f 428 482 481
f 429 480 483
f 430 484 462
f 430 465 484
f 444 464 466
f 467 486 506
f 467 466 486
f 506 432 467
f 404 533 508
f 508 434 404
f 405 469 488
f 470 387 509
f 406 471 419
f 492 471 406
f 472 448 368
f 472 491 436
f 436 491 473
f 436 448 472
f 474 436 473
f 519 451 493
f 477 521 412
f 523 439 497
f 497 439 452
f 424 498 452
f 454 498 424
f 479 500 426
f 455 456 501
f 458 503 479
f 442 503 458
f 504 503 442
f 457 460 459
f 461 504 416
f 481 461 443
f 480 505 483
f 428 462 482
f 463 429 483
f 531 485 466
f 531 466 464
f 532 568 465
f 486 466 485
f 533 432 506
f 468 487 548
f 533 404 432
f 534 508 533
f 445 508 509
f 471 489 469
f 387 445 509
f 471 511 489
f 470 509 536
f 510 470 536
f 470 510 490
f 490 472 470
f 492 513 471
f 491 490 512
f 491 472 490
f 447 515 492
f 473 491 512
f 449 515 447
f 449 517 515
f 450 517 449
f 516 474 473
f 475 450 437
f 516 493 474
f 518 390 373
f 520 476 451
f 542 476 520
f 496 438 521
f 476 542 477
f 522 497 452
f 498 522 452
f 478 453 524
f 523 524 453
f 498 454 455
f 583 500 479
f 525 526 502
f 502 524 525
f 502 478 524
f 503 583 479
f 526 457 502
f 528 457 526
f 505 480 460
f 505 567 483
f 567 463 483
f 567 464 463
f 465 568 484
f 548 569 468
f 535 508 534
f 405 488 433
f 508 535 509
f 513 511 471
f 513 553 511
f 537 490 510
f 512 490 537
f 515 513 492
f 514 473 512
f 473 514 516
f 518 541 390
f 390 541 494
f 519 493 574
f 496 577 518
f 451 519 520
f 496 521 544
f 578 477 542
f 558 545 497
f 499 580 560
f 500 499 426
f 455 501 560
f 583 582 500
f 526 585 528
f 529 528 585
f 529 460 457
f 529 457 528
f 547 527 461
f 527 504 461
f 461 481 547
f 481 482 564
f 460 529 505
f 612 506 486
f 507 548 487
f 507 433 548
f 535 549 509
f 549 536 509
f 536 549 510
f 537 510 551
f 537 551 552
f 538 512 537
f 538 554 512
f 554 539 512
f 513 555 553
f 539 514 512
f 515 555 513
f 515 517 555
f 540 517 450
f 574 493 516
f 495 494 541
f 495 598 475
f 450 475 540
f 540 475 598
f 544 577 496
f 521 543 544
f 558 497 522
f 559 558 522
f 497 545 523
f 498 559 522
f 580 500 581
f 545 546 523
f 580 455 560
f 580 499 500
f 546 561 524
f 524 523 546
f 561 526 525
f 525 524 561
f 504 562 503
f 481 564 547
f 529 585 565
f 567 529 589
f 567 505 529
f 530 482 462
f 591 464 567
f 591 531 464
f 530 462 609
f 484 609 462
f 611 486 485
f 612 486 611
f 549 535 616
f 489 592 469
f 550 510 549
f 551 510 550
f 552 551 570
f 618 511 553
f 538 537 552
f 556 514 539
f 516 514 556
f 596 516 556
f 517 557 555
f 517 573 557
f 540 573 517
f 577 544 576
f 543 576 544
f 605 543 521
f 579 498 455
f 579 559 498
f 545 600 546
f 584 583 503
f 526 607 586
f 526 561 607
f 584 503 562
f 562 504 527
f 563 562 527
f 586 585 526
f 547 563 527
f 547 678 563
f 564 678 547
f 482 566 564
f 565 589 529
f 566 482 590
f 590 482 530
f 530 662 590
f 531 591 485
f 614 532 468
f 468 569 614
f 615 534 533
f 469 592 488
f 549 616 550
f 550 604 551
f 593 618 553
f 552 594 538
f 594 554 538
f 593 553 571
f 539 595 556
f 555 571 553
f 595 596 556
f 555 572 571
f 557 572 555
f 557 597 572
f 596 574 516
f 574 596 636
f 557 573 597
f 540 575 573
f 622 519 574
f 540 598 575
f 577 655 518
f 518 655 541
f 521 477 605
f 605 477 578
f 545 558 630
f 627 580 581
f 582 581 500
f 562 563 631
f 564 644 678
f 564 680 644
f 566 680 564
f 566 588 680
f 587 565 585
f 601 565 587
f 590 588 566
f 589 565 601
f 602 567 589
f 602 591 567
f 530 609 662
f 591 610 485
f 506 612 533
f 488 548 433
f 534 616 535
f 592 603 488
f 489 683 592
f 511 683 489
f 604 550 616
f 551 604 570
f 594 539 554
f 539 594 595
f 598 495 541
f 624 598 541
f 598 637 575
f 576 654 577
f 655 626 541
f 675 578 542
f 675 638 578
f 559 656 558
f 657 656 559
f 599 657 559
f 579 599 559
f 630 600 545
f 579 455 627
f 627 455 580
f 582 629 581
f 600 561 546
f 606 582 583
f 641 607 561
f 586 607 643
f 586 645 585
f 585 645 587
f 602 610 591
f 611 485 610
f 484 693 609
f 568 693 484
f 613 533 612
f 613 615 533
f 548 649 569
f 615 650 534
f 603 633 548
f 488 603 548
f 650 616 534
f 617 570 604
f 617 619 570
f 619 552 570
f 595 594 620
f 620 652 595
f 621 596 595
f 622 574 636
f 573 575 672
f 623 520 519
f 520 623 542
f 624 541 626
f 637 598 624
f 675 542 623
f 543 605 625
f 543 625 576
f 577 654 655
f 578 638 605
f 639 630 558
f 656 639 558
f 630 641 600
f 641 561 600
f 642 584 562
f 645 586 643
f 563 678 631
f 660 601 587
f 608 589 601
f 608 602 589
f 602 608 610
f 613 647 615
f 649 548 633
f 617 616 651
f 604 616 617
f 618 683 511
f 634 619 617
f 619 620 594
f 619 594 552
f 635 621 595
f 573 672 597
f 637 734 575
f 672 575 734
f 715 623 519
f 622 715 519
f 653 576 625
f 653 654 576
f 626 674 624
f 605 638 625
f 676 657 599
f 627 599 579
f 628 581 629
f 628 627 581
f 690 606 583
f 641 658 607
f 607 658 643
f 601 632 608
f 608 646 665
f 665 610 608
f 611 610 665
f 611 665 666
f 666 612 611
f 613 666 647
f 613 612 666
f 667 532 614
f 615 647 648
f 648 650 615
f 651 616 650
f 619 634 620
f 620 634 701
f 652 635 595
f 621 671 596
f 673 622 636
f 625 718 653
f 638 718 625
f 687 639 656
f 676 599 627
f 676 627 628
f 640 641 630
f 639 640 630
f 582 606 629
f 584 690 583
f 688 643 658
f 562 631 642
f 660 587 645
f 590 709 588
f 632 601 660
f 646 608 632
f 646 632 661
f 665 646 696
f 647 668 648
f 669 650 648
f 651 650 669
f 603 683 633
f 592 683 603
f 618 684 683
f 702 684 618
f 701 652 620
f 571 572 779
f 671 636 596
f 671 673 636
f 622 673 715
f 624 734 637
f 626 738 674
f 719 687 656
f 677 676 628
f 629 677 628
f 659 690 584
f 642 659 584
f 704 642 631
f 688 679 643
f 643 679 645
f 709 706 588
f 590 662 709
f 663 646 661
f 609 710 662
f 664 646 663
f 646 664 696
f 665 696 666
f 667 693 568
f 532 667 568
f 668 681 669
f 668 669 648
f 651 669 699
f 698 649 633
f 712 617 651
f 712 634 617
f 652 731 670
f 670 635 652
f 779 597 685
f 572 597 779
f 685 597 672
f 714 715 673
f 623 715 716
f 623 716 675
f 655 738 626
f 719 656 657
f 657 686 719
f 686 657 676
f 641 640 658
f 678 705 704
f 631 678 704
f 706 680 588
f 708 660 645
f 661 632 660
f 664 695 696
f 696 681 666
f 681 647 666
f 647 681 668
f 682 699 681
f 699 669 681
f 649 614 569
f 649 698 614
f 701 634 700
f 701 731 652
f 618 593 702
f 593 571 820
f 713 635 670
f 635 713 621
f 735 734 624
f 735 624 674
f 717 675 716
f 675 717 638
f 718 638 717
f 654 737 655
f 737 738 655
f 720 686 676
f 677 720 676
f 740 629 606
f 689 688 658
f 658 640 703
f 689 658 703
f 642 704 659
f 705 678 722
f 644 722 678
f 644 724 722
f 680 724 644
f 679 708 645
f 691 708 679
f 692 661 660
f 664 663 725
f 609 693 710
f 667 694 693
f 695 726 711
f 695 711 696
f 711 681 696
f 682 681 711
f 614 747 834
f 698 747 614
f 697 699 682
f 697 729 699
f 729 712 651
f 699 729 651
f 700 712 730
f 712 700 634
f 571 779 820
f 671 732 673
f 673 732 714
f 653 737 654
f 737 784 738
f 739 720 677
f 629 740 677
f 703 640 639
f 741 606 690
f 689 723 688
f 679 688 723
f 723 691 679
f 680 706 724
f 708 691 707
f 708 692 660
f 661 725 663
f 710 758 662
f 694 710 693
f 726 695 664
f 726 746 711
f 834 667 614
f 697 682 728
f 762 729 697
f 730 712 729
f 633 683 684
f 731 778 670
f 778 713 670
f 672 781 685
f 672 734 781
f 733 716 715
f 738 749 674
f 735 674 749
f 750 687 719
f 752 686 720
f 740 739 677
f 721 639 687
f 741 740 606
f 703 639 721
f 690 753 741
f 659 753 690
f 704 743 659
f 705 743 704
f 724 706 745
f 692 757 661
f 662 758 709
f 661 757 725
f 760 664 725
f 726 664 760
f 728 682 746
f 746 682 711
f 697 728 762
f 774 731 701
f 593 820 702
f 792 671 621
f 713 792 621
f 764 779 685
f 685 794 764
f 671 748 732
f 685 781 794
f 733 714 732
f 733 715 714
f 716 733 841
f 841 736 716
f 716 736 717
f 782 717 736
f 717 782 718
f 782 798 718
f 752 719 686
f 751 720 739
f 752 720 765
f 689 703 768
f 659 742 753
f 659 743 742
f 743 705 744
f 723 768 770
f 768 723 689
f 744 705 722
f 744 722 769
f 724 769 722
f 723 771 691
f 706 709 745
f 707 691 771
f 745 709 756
f 708 707 692
f 710 694 761
f 760 746 726
f 667 727 694
f 727 667 834
f 791 762 728
f 700 730 808
f 700 774 701
f 775 633 684
f 698 633 775
f 774 776 731
f 776 778 731
f 792 748 671
f 780 732 748
f 798 653 718
f 653 783 737
f 737 783 784
f 749 738 784
f 752 750 719
f 750 786 687
f 767 740 741
f 721 687 786
f 753 767 741
f 742 743 754
f 755 754 743
f 743 744 755
f 724 813 769
f 745 813 724
f 745 814 813
f 771 723 770
f 745 756 814
f 816 692 707
f 725 757 801
f 709 758 772
f 801 760 725
f 710 759 758
f 710 761 759
f 694 727 761
f 806 728 746
f 791 763 762
f 729 762 730
f 762 763 730
f 763 808 730
f 684 702 775
f 895 792 713
f 735 795 734
f 781 734 795
f 749 796 735
f 751 765 720
f 766 751 739
f 766 739 740
f 766 740 767
f 811 786 750
f 799 750 752
f 767 753 742
f 703 787 768
f 721 787 703
f 816 757 692
f 709 772 756
f 759 772 758
f 761 727 805
f 818 806 746
f 763 791 835
f 808 774 700
f 808 773 774
f 774 773 776
f 776 773 777
f 777 778 776
f 778 839 713
f 839 895 713
f 792 780 748
f 780 793 732
f 732 793 733
f 796 795 735
f 797 782 736
f 798 783 653
f 785 765 751
f 785 751 766
f 799 811 750
f 765 799 752
f 828 766 767
f 786 787 721
f 829 828 767
f 742 829 767
f 787 800 768
f 788 770 768
f 815 771 770
f 756 789 814
f 771 816 707
f 772 789 756
f 772 790 789
f 772 759 790
f 854 760 801
f 761 803 759
f 760 854 804
f 761 805 803
f 807 728 806
f 807 791 728
f 835 856 763
f 763 856 808
f 775 836 698
f 820 838 702
f 777 819 778
f 819 839 778
f 820 779 764
f 797 736 841
f 797 824 782
f 782 824 798
f 798 860 783
f 749 784 865
f 785 825 765
f 786 811 810
f 787 786 810
f 810 800 787
f 829 742 754
f 768 800 848
f 744 769 869
f 769 813 869
f 815 770 788
f 771 815 831
f 831 816 771
f 816 817 757
f 757 817 801
f 803 790 759
f 804 854 802
f 804 746 760
f 804 818 746
f 835 791 807
f 857 773 808
f 702 837 775
f 838 837 702
f 781 822 794
f 793 841 733
f 795 823 822
f 795 822 781
f 796 823 795
f 859 824 797
f 865 784 783
f 809 825 785
f 809 785 766
f 826 811 799
f 827 826 799
f 827 799 765
f 827 765 825
f 809 766 828
f 812 810 811
f 800 810 845
f 845 810 812
f 800 845 848
f 830 754 755
f 830 868 754
f 830 755 744
f 830 744 869
f 768 848 788
f 817 816 831
f 790 888 789
f 817 854 801
f 803 855 790
f 818 804 832
f 804 802 832
f 807 806 818
f 856 857 808
f 698 836 747
f 840 879 820
f 820 764 840
f 780 858 793
f 794 821 764
f 794 863 821
f 822 863 794
f 858 859 797
f 841 858 797
f 796 749 865
f 824 860 798
f 811 826 844
f 812 811 844
f 847 845 812
f 754 868 829
f 789 888 850
f 817 861 854
f 803 874 855
f 874 803 805
f 833 818 832
f 833 832 892
f 833 807 818
f 833 835 807
f 856 835 894
f 857 777 773
f 839 959 895
f 792 895 780
f 764 821 840
f 822 823 863
f 824 859 882
f 860 824 882
f 783 860 865
f 825 884 827
f 842 825 809
f 826 843 844
f 884 826 827
f 846 809 828
f 868 828 829
f 868 846 828
f 886 868 830
f 849 848 845
f 869 924 886
f 830 869 886
f 870 848 849
f 813 915 869
f 814 915 813
f 788 887 815
f 815 851 831
f 851 815 887
f 852 817 831
f 852 861 817
f 853 854 861
f 875 802 854
f 891 802 875
f 874 805 876
f 891 832 802
f 892 832 891
f 805 727 876
f 834 876 727
f 903 834 747
f 906 856 894
f 857 856 906
f 877 747 836
f 837 836 775
f 838 879 837
f 820 879 838
f 895 862 780
f 862 858 780
f 793 858 841
f 825 842 884
f 843 812 844
f 846 842 809
f 845 847 849
f 849 847 916
f 916 847 867
f 870 788 848
f 789 850 814
f 852 831 851
f 790 855 888
f 918 888 855
f 861 852 873
f 861 873 853
f 854 853 875
f 892 904 833
f 833 904 893
f 857 878 777
f 921 877 836
f 837 921 836
f 879 921 837
f 839 943 959
f 823 881 863
f 882 864 860
f 883 860 864
f 860 883 865
f 897 884 842
f 885 897 842
f 826 866 843
f 826 898 866
f 898 826 884
f 868 900 846
f 812 867 847
f 867 812 843
f 849 871 870
f 814 850 915
f 870 887 788
f 887 872 851
f 851 872 852
f 872 902 852
f 852 902 873
f 873 889 853
f 853 889 890
f 853 890 875
f 928 892 891
f 903 876 834
f 833 893 894
f 835 833 894
f 894 905 906
f 857 907 878
f 908 777 878
f 908 819 777
f 943 839 819
f 908 943 819
f 840 880 879
f 840 909 880
f 840 821 909
f 923 858 862
f 910 821 863
f 863 881 910
f 858 923 911
f 931 859 858
f 931 858 911
f 931 882 859
f 796 883 881
f 796 881 823
f 865 883 796
f 898 884 896
f 896 884 897
f 846 885 842
f 900 885 846
f 867 843 866
f 916 871 849
f 870 871 926
f 887 870 901
f 917 902 872
f 889 873 902
f 874 918 855
f 891 875 928
f 892 929 904
f 894 893 919
f 877 903 747
f 879 880 921
f 881 912 910
f 881 913 912
f 864 882 932
f 883 864 983
f 883 913 881
f 914 866 898
f 897 885 899
f 945 885 900
f 945 899 885
f 946 900 868
f 886 947 868
f 925 924 869
f 869 915 925
f 867 949 916
f 926 901 870
f 872 887 901
f 889 936 890
f 890 927 875
f 876 975 874
f 892 928 929
f 919 893 904
f 919 904 939
f 919 905 894
f 906 907 857
f 959 994 895
f 994 862 895
f 994 923 862
f 821 944 909
f 821 910 944
f 983 984 883
f 913 883 984
f 931 932 882
f 896 948 898
f 896 897 933
f 933 897 899
f 947 946 868
f 866 914 867
f 949 867 914
f 871 916 926
f 917 936 889
f 917 889 902
f 927 890 936
f 952 918 874
f 928 875 927
f 919 939 940
f 905 919 940
f 905 907 906
f 905 920 907
f 942 907 920
f 942 878 907
f 921 980 877
f 877 980 979
f 958 908 878
f 922 880 909
f 944 922 909
f 910 912 944
f 864 932 983
f 898 948 914
f 924 947 886
f 948 896 933
f 850 934 915
f 950 916 949
f 950 926 916
f 888 918 850
f 951 872 901
f 917 872 951
f 874 975 952
f 954 975 876
f 903 954 876
f 939 904 929
f 877 979 903
f 942 958 878
f 880 980 921
f 922 1033 880
f 930 923 994
f 911 923 930
f 911 982 931
f 946 945 900
f 962 947 924
f 948 964 914
f 933 899 945
f 925 962 924
f 967 948 933
f 915 934 925
f 950 949 969
f 935 934 850
f 918 935 850
f 972 926 950
f 901 926 973
f 973 926 972
f 935 918 937
f 901 973 951
f 917 999 936
f 936 999 974
f 936 974 938
f 938 927 936
f 938 953 927
f 927 953 928
f 929 955 939
f 939 957 940
f 940 941 905
f 905 941 920
f 920 978 942
f 942 993 958
f 880 1033 980
f 943 981 959
f 982 911 930
f 982 932 931
f 961 983 932
f 948 966 964
f 934 965 925
f 934 986 965
f 949 914 970
f 970 914 964
f 935 986 934
f 950 971 972
f 999 917 951
f 918 952 937
f 976 928 953
f 928 976 929
f 976 955 929
f 903 956 991
f 940 957 941
f 978 920 941
f 978 993 942
f 958 1005 908
f 1005 943 908
f 1005 981 943
f 944 1035 922
f 913 960 912
f 945 946 963
f 962 946 947
f 945 985 933
f 925 996 962
f 996 925 965
f 933 985 967
f 948 967 966
f 949 970 969
f 964 968 970
f 950 969 971
f 971 969 970
f 972 971 987
f 987 973 972
f 937 1011 935
f 974 999 988
f 974 988 989
f 952 1011 937
f 938 974 989
f 953 938 989
f 952 975 1011
f 954 1015 975
f 954 903 991
f 939 955 992
f 992 1002 939
f 1002 957 939
f 957 1002 1019
f 1019 1003 957
f 957 1003 941
f 978 1032 993
f 1022 958 993
f 1022 1023 958
f 1023 1005 958
f 994 959 981
f 960 944 912
f 982 930 1006
f 982 961 932
f 962 963 946
f 985 945 963
f 996 963 962
f 997 967 985
f 967 997 966
f 968 964 966
f 968 966 997
f 970 1010 971
f 1010 970 968
f 986 935 1011
f 987 971 1010
f 1012 951 973
f 998 973 987
f 1012 999 951
f 990 953 1013
f 1013 953 989
f 990 976 953
f 955 976 1001
f 992 955 1001
f 977 954 991
f 979 956 903
f 979 1031 956
f 941 1003 978
f 1003 1032 978
f 993 1032 1022
f 979 980 1004
f 1005 1053 981
f 994 981 1053
f 994 1053 1006
f 944 960 1035
f 994 1006 930
f 1007 960 995
f 913 995 960
f 1056 961 1037
f 961 995 983
f 1056 995 961
f 984 983 995
f 984 995 913
f 996 1024 963
f 963 1024 1008
f 1012 973 998
f 999 1012 1000
f 999 1000 988
f 988 1013 989
f 1013 988 1000
f 1014 1011 975
f 1001 976 990
f 1014 975 1015
f 1001 990 1027
f 1001 1027 992
f 977 1015 954
f 991 1017 977
f 1031 991 956
f 1020 1003 1019
f 1003 1020 1032
f 1004 1031 979
f 980 1033 1004
f 1054 982 1006
f 982 1037 961
f 1008 985 963
f 1008 1038 985
f 1039 1008 1024
f 996 965 1025
f 986 1025 965
f 986 1009 1025
f 997 1041 968
f 1011 1009 986
f 1075 1013 1000
f 1011 1014 1026
f 1064 1013 1075
f 1027 1013 1064
f 1027 990 1013
f 1014 1015 1028
f 1030 992 1027
f 1015 977 1050
f 977 1017 1050
f 1016 1002 992
f 1016 1019 1002
f 1018 1019 1016
f 1018 1016 1066
f 991 1031 1017
f 1021 1022 1032
f 1053 1005 1034
f 922 1035 1033
f 982 1054 1055
f 1055 1037 982
f 1008 1039 1038
f 1038 997 985
f 1042 1024 1025
f 1024 996 1025
f 1038 1041 997
f 968 1041 1043
f 1043 1010 968
f 1061 1010 1043
f 998 987 1010
f 1010 1061 998
f 1011 1026 1009
f 998 1061 1062
f 998 1045 1012
f 998 1062 1045
f 1012 1045 1000
f 1046 1026 1014
f 1064 1047 1027
f 1029 1028 1015
f 1015 1050 1029
f 1030 1016 992
f 1066 1016 1030
f 1018 1020 1019
f 1018 1100 1020
f 1020 1100 1021
f 1020 1021 1032
f 1034 1005 1023
f 960 1036 1035
f 1006 1053 1054
f 960 1007 1036
f 1024 1042 1039
f 1040 1038 1039
f 1040 1039 1042
f 1058 1038 1040
f 1025 1060 1042
f 1025 1009 1060
f 1057 1041 1058
f 1058 1041 1038
f 1057 1043 1041
f 1009 1044 1060
f 1026 1044 1009
f 1026 1063 1044
f 1046 1063 1026
f 1000 1045 1075
f 1028 1046 1014
f 1028 1048 1046
f 1029 1048 1028
f 1047 1030 1027
f 1049 1048 1029
f 1049 1029 1050
f 1017 1051 1050
f 1031 1051 1017
f 1004 1082 1031
f 1055 1054 1067
f 1069 1037 1055
f 1069 1056 1037
f 1059 1058 1040
f 1060 1070 1042
f 1061 1043 1072
f 1076 1063 1046
f 1076 1093 1063
f 1046 1065 1076
f 1048 1065 1046
f 1048 1078 1065
f 1049 1078 1048
f 1096 1030 1047
f 1066 1030 1096
f 1051 1049 1050
f 1080 1018 1066
f 1100 1018 1080
f 1031 1082 1051
f 1004 1101 1082
f 1023 1022 1021
f 1052 1053 1034
f 1035 1085 1033
f 1036 1085 1035
f 1036 1068 1085
f 1068 1036 1007
f 1069 1055 1067
f 1069 1104 1068
f 995 1069 1068
f 1007 995 1068
f 1056 1069 995
f 1042 1070 1040
f 1058 1086 1057
f 1086 1058 1059
f 1070 1060 1044
f 1088 1043 1057
f 1044 1071 1070
f 1073 1061 1072
f 1088 1072 1043
f 1088 1073 1072
f 1063 1071 1044
f 1062 1073 1074
f 1061 1073 1062
f 1063 1093 1071
f 1062 1074 1045
f 1074 1075 1045
f 1075 1074 1092
f 1064 1075 1092
f 1077 1047 1064
f 1092 1077 1064
f 1095 1065 1078
f 1047 1077 1096
f 1049 1079 1078
f 1098 1066 1096
f 1051 1079 1049
f 1051 1081 1079
f 1080 1066 1098
f 1082 1081 1051
f 1083 1101 1004
f 1034 1120 1052
f 1033 1102 1083
f 1004 1033 1083
f 1103 1053 1052
f 1053 1103 1054
f 1067 1054 1103
f 1084 1067 1103
f 1104 1067 1084
f 1067 1104 1069
f 1070 1059 1040
f 1086 1087 1057
f 1087 1086 1106
f 1106 1086 1059
f 1089 1059 1070
f 1070 1071 1089
f 1057 1087 1088
f 1089 1106 1059
f 1088 1087 1107
f 1107 1087 1106
f 1124 1089 1071
f 1071 1093 1124
f 1091 1073 1088
f 1091 1088 1107
f 1073 1090 1074
f 1090 1094 1074
f 1091 1090 1073
f 1094 1092 1074
f 1090 1110 1094
f 1093 1076 1095
f 1065 1095 1076
f 1092 1094 1113
f 1092 1113 1077
f 1078 1115 1095
f 1097 1115 1078
f 1098 1096 1116
f 1079 1097 1078
f 1079 1099 1097
f 1081 1099 1079
f 1082 1119 1081
f 1120 1034 1023
f 1101 1083 1102
f 1085 1102 1033
f 1085 1105 1102
f 1105 1085 1068
f 1104 1105 1068
f 1107 1106 1108
f 1108 1106 1089
f 1124 1109 1089
f 1109 1108 1089
f 1091 1110 1090
f 1123 1109 1124
f 1137 1091 1107
f 1111 1093 1095
f 1110 1091 1137
f 1110 1112 1094
f 1113 1094 1112
f 1115 1111 1095
f 1114 1077 1113
f 1115 1128 1111
f 1114 1096 1077
f 1112 1150 1113
f 1096 1114 1116
f 1113 1129 1114
f 1114 1129 1116
f 1099 1117 1097
f 1097 1117 1115
f 1098 1116 1118
f 1099 1141 1117
f 1132 1080 1098
f 1081 1133 1099
f 1119 1133 1081
f 1134 1021 1100
f 1023 1021 1134
f 1082 1101 1119
f 1023 1134 1120
f 1136 1120 1134
f 1120 1136 1052
f 1101 1122 1121
f 1052 1136 1084
f 1122 1101 1102
f 1084 1103 1052
f 1122 1102 1105
f 1104 1084 1145
f 1104 1145 1105
f 1109 1127 1108
f 1108 1127 1125
f 1109 1123 1127
f 1107 1125 1137
f 1108 1125 1107
f 1126 1124 1111
f 1126 1123 1124
f 1111 1124 1093
f 1139 1127 1123
f 1139 1123 1126
f 1137 1112 1110
f 1138 1127 1139
f 1140 1112 1137
f 1128 1126 1111
f 1150 1112 1140
f 1129 1113 1150
f 1147 1128 1130
f 1115 1130 1128
f 1117 1130 1115
f 1117 1131 1130
f 1141 1131 1117
f 1132 1098 1118
f 1135 1080 1132
f 1135 1100 1080
f 1099 1133 1141
f 1134 1100 1135
f 1119 1143 1133
f 1101 1143 1119
f 1101 1121 1143
f 1122 1144 1121
f 1122 1105 1146
f 1146 1105 1145
f 1127 1138 1125
f 1128 1139 1126
f 1140 1137 1125
f 1148 1125 1138
f 1147 1138 1128
f 1138 1139 1128
f 1151 1116 1129
f 1152 1132 1118
f 1141 1142 1163
f 1135 1132 1152
f 1133 1142 1141
f 1154 1142 1143
f 1133 1143 1142
f 1153 1134 1135
f 1121 1154 1143
f 1134 1170 1136
f 1144 1154 1121
f 1136 1170 1157
f 1136 1157 1084
f 1122 1146 1144
f 1157 1145 1084
f 1140 1125 1148
f 1158 1140 1148
f 1148 1138 1147
f 1150 1140 1158
f 1149 1148 1147
f 1159 1158 1148
f 1130 1149 1147
f 1151 1129 1150
f 1150 1158 1151
f 1130 1131 1149
f 1116 1151 1118
f 1141 1163 1131
f 1151 1152 1118
f 1165 1163 1142
f 1142 1154 1165
f 1153 1135 1152
f 1134 1153 1168
f 1168 1170 1134
f 1155 1169 1154
f 1144 1155 1154
f 1146 1156 1155
f 1144 1146 1155
f 1145 1157 1156
f 1145 1156 1146
f 1164 1158 1159
f 1160 1158 1164
f 1159 1148 1149
f 1151 1158 1161
f 1161 1158 1160
f 1163 1149 1131
f 1162 1164 1159
f 1163 1159 1149
f 1161 1152 1151
f 1162 1159 1163
f 1165 1162 1163
f 1153 1152 1161
f 1166 1161 1160
f 1153 1161 1166
f 1166 1160 1164
f 1166 1164 1167
f 1167 1164 1162
f 1169 1162 1165
f 1154 1169 1165
f 1167 1162 1169
f 1168 1153 1166
f 1168 1166 1167
f 1171 1168 1167
f 1171 1167 1169
f 1170 1168 1171
f 1156 1171 1169
f 1155 1156 1169
f 1170 1171 1156
f 1157 1170 1156
# 2338 faces, 0 coords texture

# End of File
