####
#
# OBJ File Generated by Meshlab
#
####
# Object RUBL.obj
#
# Vertices: 633
# Faces: 1262
#
####
v 33344.734375 29292.423828 18172.941406
v 33462.769531 29369.882812 18177.417969
v 33391.109375 29332.457031 18154.355469
v 33353.937500 29416.064453 18190.837891
v 33456.019531 29290.373047 18168.474609
v 33277.945312 29297.185547 18218.408203
v 33541.636719 29315.693359 18209.378906
v 33296.160156 29350.150391 18192.953125
v 33295.738281 29447.453125 18220.955078
v 33426.917969 29429.642578 18202.058594
v 33369.539062 29236.281250 18218.644531
v 33426.605469 29211.455078 18244.714844
v 33279.734375 29247.373047 18254.037109
v 33557.304688 29418.068359 18241.978516
v 33515.437500 29250.445312 18232.564453
v 33586.980469 29339.628906 18250.601562
v 33237.691406 29397.121094 18265.320312
v 33506.679688 29494.201172 18265.039062
v 33320.160156 29545.921875 18298.742188
v 33661.773438 29389.080078 18342.484375
v 33583.250000 29276.261719 18279.554688
v 33258.972656 29466.869141 18269.021484
v 33438.675781 29131.308594 18358.324219
v 33485.703125 29209.117188 18263.966797
v 33562.980469 29161.275391 18399.314453
v 33728.316406 29331.335938 18451.761719
v 33654.628906 29520.865234 18385.361328
v 33592.695312 29527.677734 18338.347656
v 33368.894531 29507.982422 18252.445312
v 33205.105469 29349.019531 18313.166016
v 33696.523438 29489.058594 18416.171875
v 33378.136719 29140.820312 18351.330078
v 33506.250000 29130.505859 18389.138672
v 33322.195312 29167.462891 18341.855469
v 33175.964844 29411.513672 18401.677734
v 33535.554688 29632.509766 18414.998047
v 33238.109375 29155.888672 18497.494141
v 33189.410156 29310.382812 18416.037109
v 33596.183594 29585.984375 18398.617188
v 33308.195312 29628.480469 18422.042969
v 33463.402344 29602.275391 18359.859375
v 33648.488281 29214.619141 18443.804688
v 33220.335938 29290.337891 18332.546875
v 33217.226562 29501.949219 18367.738281
v 33267.480469 29568.324219 18355.609375
v 33543.621094 29091.335938 18464.199219
v 33276.656250 29163.595703 18404.464844
v 33684.578125 29279.292969 18428.496094
v 33427.093750 29055.902344 18440.994141
v 33155.015625 29482.056641 18504.558594
v 33374.878906 29659.787109 18440.912109
v 33319.582031 29114.687500 18419.722656
v 33750.695312 29369.187500 18483.318359
v 33158.632812 29371.933594 18490.150391
v 33205.023438 29549.960938 18452.015625
v 33451.406250 29710.759766 18499.552734
v 33408.539062 28990.601562 18493.539062
v 33360.984375 29059.083984 18451.228516
v 33494.992188 28995.529297 18505.947266
v 33286.093750 29088.964844 18488.458984
v 33513.781250 29042.976562 18484.250000
v 33335.175781 29007.320312 18512.134766
v 33605.371094 29135.021484 18485.646484
v 33174.199219 29283.070312 18537.998047
v 33762.582031 29463.501953 18506.439453
v 33140.265625 29545.634766 18675.179688
v 33706.835938 29572.816406 18495.585938
v 33496.082031 28794.208984 18577.537109
v 33579.515625 28690.419922 18609.007812
v 33459.492188 28725.320312 18594.826172
v 33401.238281 28839.410156 18572.791016
v 33538.207031 28815.628906 18584.875000
v 33402.722656 28923.128906 18534.248047
v 33488.671875 28929.375000 18538.693359
v 33330.070312 28907.966797 18583.298828
v 33585.054688 29070.978516 18527.208984
v 33255.843750 29071.539062 18563.642578
v 33662.488281 29151.791016 18554.701172
v 33206.949219 29195.328125 18534.300781
v 33795.191406 29327.603516 18610.695312
v 33827.468750 29394.847656 18646.703125
v 33788.265625 29421.230469 18554.171875
v 33769.191406 29566.259766 18573.734375
v 33161.652344 29544.056641 18569.617188
v 33286.140625 29683.171875 18527.074219
v 33649.503906 29645.886719 18509.353516
v 33528.992188 29745.152344 18561.769531
v 33581.644531 28550.294922 18620.093750
v 33476.671875 28596.455078 18619.691406
v 33508.785156 28648.083984 18604.187500
v 33424.132812 28705.814453 18614.164062
v 33623.007812 28589.439453 18626.658203
v 33381.273438 28750.130859 18623.531250
v 33599.816406 28776.601562 18621.490234
v 33585.722656 28862.312500 18606.429688
v 33566.292969 28975.402344 18566.044922
v 33291.781250 29023.923828 18543.664062
v 33605.535156 28935.873047 18617.412109
v 33275.222656 28981.083984 18604.642578
v 33239.304688 29036.839844 18645.179688
v 33221.183594 29118.048828 18608.820312
v 33675.046875 29095.478516 18643.019531
v 33733.269531 29253.404297 18546.603516
v 33436.531250 29763.378906 18580.539062
v 33552.285156 28415.804688 18643.664062
v 33509.839844 28504.574219 18636.482422
v 33679.070312 28438.500000 18657.037109
v 33762.625000 28394.429688 18718.904297
v 33383.171875 28661.785156 18664.326172
v 33699.355469 28579.900391 18677.259766
v 33323.488281 28820.875000 18646.986328
v 33622.164062 29028.058594 18604.019531
v 33264.437500 28934.292969 18667.062500
v 33188.792969 29182.777344 18656.769531
v 33824.500000 29482.714844 18644.015625
v 33213.910156 29610.876953 18520.492188
v 33361.031250 29742.408203 18573.064453
v 33711.855469 28236.902344 18704.769531
v 33639.589844 28356.921875 18653.091797
v 33631.320312 28227.478516 18690.892578
v 33699.656250 28354.011719 18677.224609
v 33480.484375 28438.128906 18676.179688
v 33372.476562 28580.824219 18722.138672
v 33752.640625 28553.375000 18721.148438
v 33302.757812 28696.205078 18756.289062
v 33653.152344 28785.931641 18667.761719
v 33643.707031 28931.281250 18673.587891
v 33662.207031 29017.167969 18679.501953
v 33842.300781 29377.525391 18692.156250
v 33158.710938 29589.617188 18685.431641
v 33283.187500 29739.117188 18637.978516
v 33589.015625 28205.400391 18717.718750
v 33450.437500 28414.576172 18725.666016
v 33522.144531 28320.244141 18697.248047
v 33765.675781 28259.556641 18735.300781
v 33333.718750 28681.990234 18713.947266
v 33679.722656 28827.025391 18716.457031
v 33699.824219 29008.765625 18775.898438
v 33207.304688 29073.400391 18738.880859
v 33727.234375 29185.927734 18643.994141
v 33773.574219 29248.945312 18665.996094
v 33146.792969 29334.484375 18669.201172
v 33143.660156 29421.722656 18550.427734
v 33133.613281 29483.671875 18655.734375
v 33823.656250 29559.451172 18682.031250
v 33225.457031 29672.689453 18601.589844
v 33729.660156 29667.195312 18627.468750
v 33595.289062 29761.257812 18611.894531
v 33636.039062 28152.093750 18743.167969
v 33688.554688 28175.929688 18724.234375
v 33570.980469 28153.421875 18784.855469
v 33528.156250 28260.585938 18730.900391
v 33803.417969 28395.835938 18770.798828
v 33797.195312 28500.167969 18770.792969
v 33235.628906 28972.519531 18716.539062
v 33679.246094 28940.792969 18740.587891
v 33703.855469 29088.683594 18718.646484
v 33207.589844 29695.800781 18761.798828
v 33778.066406 29671.607422 18702.316406
v 33737.343750 29789.410156 18781.441406
v 33781.644531 28179.019531 18779.033203
v 33431.007812 28399.226562 18776.974609
v 33750.539062 28674.697266 18750.019531
v 33722.062500 29032.824219 18842.023438
v 33880.921875 29458.394531 18775.767578
v 33836.320312 29627.777344 18761.257812
v 33339.089844 29782.716797 18658.720703
v 33631.812500 29898.343750 18831.781250
v 33402.343750 29821.207031 18681.894531
v 33700.390625 28112.544922 18791.916016
v 33520.949219 28213.123047 18798.335938
v 33814.750000 28256.386719 18804.076172
v 33860.941406 28380.060547 18876.447266
v 33353.890625 28553.041016 18778.792969
v 33801.523438 28567.027344 18791.341797
v 33266.218750 28754.718750 18793.027344
v 33214.238281 28989.576172 18785.923828
v 33173.316406 29205.222656 18726.488281
v 33741.050781 29135.087891 18767.195312
v 33895.003906 29396.662109 18855.552734
v 33509.144531 29863.363281 18726.580078
v 33423.535156 28392.171875 18819.332031
v 33869.867188 28340.884766 18905.982422
v 33357.132812 28524.617188 18815.796875
v 33227.472656 28829.429688 18850.796875
v 33709.394531 28833.398438 18781.810547
v 33708.652344 28944.017578 18825.998047
v 33729.964844 28967.507812 18927.824219
v 33669.410156 29795.113281 18712.179688
v 33407.007812 29889.597656 18813.240234
v 33551.753906 29879.490234 18762.011719
v 33470.507812 29904.367188 18803.371094
v 33641.859375 28086.076172 18831.890625
v 33570.742188 28152.646484 18900.990234
v 33784.433594 28157.986328 18843.728516
v 33836.406250 28236.777344 18894.087891
v 33866.132812 28432.794922 18894.984375
v 33780.121094 28696.847656 18845.285156
v 33724.753906 28913.792969 18880.791016
v 33750.656250 29099.011719 18877.296875
v 33849.812500 29321.558594 18803.748047
v 33874.722656 29552.242188 18793.101562
v 33175.007812 29659.722656 18819.291016
v 33258.640625 29757.783203 18740.101562
v 33332.632812 29843.169922 18791.511719
v 33457.804688 29954.505859 18912.464844
v 33584.875000 29934.119141 18866.421875
v 33462.000000 28314.296875 18864.070312
v 33348.082031 28533.330078 18879.412109
v 33739.695312 28893.970703 18969.806641
v 33734.496094 28981.164062 19015.648438
v 33739.253906 29040.408203 18926.261719
v 33839.304688 29714.220703 18842.648438
v 33239.496094 29768.583984 18862.761719
v 33759.605469 28124.523438 18912.132812
v 33424.867188 28392.894531 18907.650391
v 33882.058594 28338.705078 18989.134766
v 33358.292969 28524.867188 18932.857422
v 33287.015625 28659.359375 18877.761719
v 33827.105469 28579.623047 18863.033203
v 33736.207031 28844.738281 18873.582031
v 33202.914062 29009.605469 18849.035156
v 33777.726562 29151.664062 18895.039062
v 33819.730469 29216.810547 18951.011719
v 33941.894531 29435.447266 18967.179688
v 33814.464844 29813.527344 18904.470703
v 33283.046875 29843.265625 18942.582031
v 33669.910156 29944.841797 18922.162109
v 33535.710938 29971.380859 18929.021484
v 33678.687500 28078.515625 18903.560547
v 33616.984375 28112.210938 18929.076172
v 33715.222656 28090.125000 18856.921875
v 33535.269531 28237.855469 18987.099609
v 33491.621094 28264.367188 18890.833984
v 33202.042969 28982.476562 18939.904297
v 33187.507812 29095.732422 18895.718750
v 33144.109375 29278.255859 18979.261719
v 33812.078125 29246.568359 18815.345703
v 33151.082031 29257.111328 18858.681641
v 33133.562500 29584.484375 18882.720703
v 33694.683594 29882.027344 18855.375000
v 33861.984375 28289.535156 19013.054688
v 33879.859375 28452.658203 18987.798828
v 33214.750000 28859.123047 18943.679688
v 33120.972656 29437.353516 18834.402344
v 33956.597656 29514.187500 18994.564453
v 33117.578125 29498.039062 18799.142578
v 33112.164062 29527.474609 19002.765625
v 33918.746094 29682.035156 18964.587891
v 33616.062500 29982.185547 18960.980469
v 33859.011719 28531.763672 18960.970703
v 33404.792969 28456.433594 18977.425781
v 33806.109375 28692.714844 18939.365234
v 33927.507812 29572.062500 18926.593750
v 33169.109375 29681.984375 19021.056641
v 33801.589844 29864.201172 18945.167969
v 33788.269531 29954.958984 19037.085938
v 33751.968750 29919.431641 18956.673828
v 33381.468750 29930.859375 18939.560547
v 33803.726562 28179.130859 19008.400391
v 33857.546875 28560.894531 19057.769531
v 33920.757812 29366.886719 18981.945312
v 33981.851562 29484.695312 19077.808594
v 33866.765625 29840.994141 19016.685547
v 33230.867188 29779.314453 18954.123047
v 33509.617188 30027.953125 19083.847656
v 33677.843750 28110.664062 18993.900391
v 33801.054688 28180.683594 19053.646484
v 33757.449219 28831.820312 18970.199219
v 33206.542969 29007.181641 19029.628906
v 33851.816406 29243.732422 19099.263672
v 34000.726562 29586.707031 19121.287109
v 33147.234375 29635.861328 19049.099609
v 33991.078125 29674.937500 19127.498047
v 33964.609375 29744.873047 19110.373047
v 33198.535156 29733.285156 18993.310547
v 33339.449219 29913.626953 18988.246094
v 33723.328125 28094.978516 18975.927734
v 33614.949219 28151.683594 18998.789062
v 33555.800781 28238.699219 19030.185547
v 33468.656250 28378.455078 19037.132812
v 33512.207031 28368.304688 19105.833984
v 33379.941406 28554.720703 19068.150391
v 33272.546875 28716.404297 18996.855469
v 33189.781250 29091.099609 19015.851562
v 33906.093750 29318.417969 19071.218750
v 33113.046875 29485.281250 19023.072266
v 33917.097656 29772.513672 19038.843750
v 33316.812500 29904.816406 19107.542969
v 33401.140625 29969.070312 19059.943359
v 33730.718750 30012.687500 19072.447266
v 33424.339844 28527.175781 19124.949219
v 33877.089844 28434.933594 19054.126953
v 33198.085938 29734.585938 19174.587891
v 33287.386719 29877.099609 19222.455078
v 33481.988281 30036.412109 19159.259766
v 33604.605469 30049.054688 19108.906250
v 33774.617188 28213.824219 19114.628906
v 33587.464844 28238.328125 19077.654297
v 33756.972656 28837.441406 19047.148438
v 33727.863281 28954.208984 19118.025391
v 33225.628906 29015.515625 19159.111328
v 33889.585938 29283.470703 19187.970703
v 33980.484375 29433.220703 19120.701172
v 33121.265625 29407.509766 19058.183594
v 34015.433594 29469.589844 19222.462891
v 34053.089844 29562.898438 19250.585938
v 33243.218750 29812.013672 19160.613281
v 33393.542969 29981.585938 19204.253906
v 33579.558594 30063.369141 19173.974609
v 33729.789062 28178.353516 19088.304688
v 33634.781250 28206.074219 19083.855469
v 33513.546875 28434.027344 19162.740234
v 33866.203125 28363.837891 19086.218750
v 33861.144531 28520.851562 19108.166016
v 33278.093750 28752.853516 19078.123047
v 33832.050781 28645.429688 19107.148438
v 33236.562500 28894.804688 19076.951172
v 33735.980469 28908.591797 19081.148438
v 33736.675781 29064.058594 19165.455078
v 33757.726562 29082.351562 19007.855469
v 33188.640625 29127.605469 19119.402344
v 33785.101562 29146.169922 19064.011719
v 33127.820312 29573.285156 19063.833984
v 34072.792969 29630.652344 19295.525391
v 33203.765625 29736.287109 19360.390625
v 33327.242188 29910.164062 19382.402344
v 33865.359375 29929.300781 19108.324219
v 33858.699219 29995.140625 19199.970703
v 33603.097656 28354.283203 19175.664062
v 33825.652344 28296.587891 19121.958984
v 33411.636719 28664.359375 19228.246094
v 33385.683594 28587.041016 19121.210938
v 33797.636719 28687.238281 19193.300781
v 33296.902344 28824.781250 19185.316406
v 33261.226562 28881.849609 19152.388672
v 33745.765625 28845.687500 19130.113281
v 33733.039062 29014.539062 19112.890625
v 33759.078125 29128.175781 19195.755859
v 33815.367188 29204.525391 19189.556641
v 33138.378906 29342.154297 19208.429688
v 33972.847656 29398.175781 19216.978516
v 33128.972656 29557.224609 19161.830078
v 33141.738281 29609.314453 19193.357422
v 34049.308594 29776.382812 19302.609375
v 33937.914062 29878.548828 19168.582031
v 33786.351562 30035.632812 19183.935547
v 33682.652344 30073.287109 19213.888672
v 33746.128906 28417.501953 19237.058594
v 33693.027344 28320.019531 19192.365234
v 33765.164062 28304.449219 19180.652344
v 33800.089844 28421.449219 19202.691406
v 33832.574219 28487.050781 19172.054688
v 33834.039062 28577.914062 19174.031250
v 33160.769531 29236.732422 19169.419922
v 33957.515625 29377.359375 19284.996094
v 33144.804688 29576.042969 19323.201172
v 33998.296875 29843.748047 19251.861328
v 33539.765625 30061.244141 19281.759766
v 33344.871094 28828.357422 19275.117188
v 33713.976562 28914.556641 19187.179688
v 33699.660156 28997.974609 19227.125000
v 33725.101562 29094.742188 19246.994141
v 33745.605469 29147.476562 19285.353516
v 33794.972656 29199.332031 19272.357422
v 33127.082031 29422.009766 19242.347656
v 33166.398438 29654.992188 19303.960938
v 33928.554688 29944.013672 19240.505859
v 33765.996094 30066.837891 19292.757812
v 33660.519531 28564.923828 19297.144531
v 33557.703125 28506.023438 19240.582031
v 33783.808594 28480.945312 19236.123047
v 33460.503906 28577.466797 19216.089844
v 33793.210938 28654.683594 19218.556641
v 33267.878906 28946.449219 19229.458984
v 33718.468750 28850.687500 19215.521484
v 33205.277344 29119.673828 19228.609375
v 33166.476562 29276.208984 19302.052734
v 33812.265625 29245.228516 19374.904297
v 33901.773438 29314.296875 19321.921875
v 33125.656250 29504.347656 19199.859375
v 34097.683594 29584.978516 19403.300781
v 33251.421875 29826.402344 19311.992188
v 33374.371094 29953.974609 19388.886719
v 33614.312500 30078.636719 19393.521484
v 33734.000000 28564.080078 19279.740234
v 33428.734375 28719.654297 19288.738281
v 33739.847656 28765.175781 19233.687500
v 33318.503906 28895.312500 19295.574219
v 33242.218750 29041.080078 19266.070312
v 33209.687500 29156.011719 19306.226562
v 34069.761719 29538.179688 19355.687500
v 33190.804688 29700.015625 19477.150391
v 33447.367188 30020.855469 19196.916016
v 33937.277344 29983.144531 19366.353516
v 33852.433594 30041.863281 19331.939453
v 33609.105469 28513.648438 19266.644531
v 33515.117188 28629.904297 19288.103516
v 33713.980469 28652.548828 19289.837891
v 33704.421875 28742.337891 19285.664062
v 33384.093750 28877.367188 19342.660156
v 33664.140625 28857.890625 19300.710938
v 33289.628906 29026.199219 19349.998047
v 33672.664062 29051.347656 19307.720703
v 33239.363281 29128.523438 19350.853516
v 33197.507812 29238.892578 19369.675781
v 33692.238281 29113.548828 19336.548828
v 33680.964844 29161.335938 19416.824219
v 33138.457031 29365.582031 19351.177734
v 33165.968750 29599.490234 19576.125000
v 34095.398438 29696.869141 19371.935547
v 34032.199219 29853.800781 19339.093750
v 33511.984375 30044.210938 19421.304688
v 33636.140625 30080.332031 19330.019531
v 33722.832031 30079.156250 19378.365234
v 33805.324219 30064.339844 19380.900391
v 33594.437500 28673.888672 19333.033203
v 33484.757812 28841.035156 19364.019531
v 33625.878906 28775.453125 19338.314453
v 33422.640625 28884.333984 19363.234375
v 33639.417969 28944.474609 19322.058594
v 33621.605469 29004.919922 19348.644531
v 33280.453125 29101.644531 19391.361328
v 33251.054688 29184.554688 19425.158203
v 33749.132812 29194.574219 19379.046875
v 34119.183594 29678.492188 19430.367188
v 33225.105469 29759.197266 19522.203125
v 34095.597656 29790.935547 19430.916016
v 34004.656250 29913.707031 19368.957031
v 34007.835938 29945.679688 19456.390625
v 33445.156250 30007.339844 19387.279297
v 33477.675781 28752.443359 19329.994141
v 33556.050781 28880.574219 19371.689453
v 33595.023438 28744.605469 19349.558594
v 33399.664062 28990.843750 19405.281250
v 33455.300781 28978.541016 19410.634766
v 33558.144531 28970.652344 19385.298828
v 33567.316406 29038.996094 19404.136719
v 33301.242188 29165.718750 19474.371094
v 33336.730469 29056.531250 19410.388672
v 33630.972656 29081.546875 19382.035156
v 33509.000000 29068.453125 19445.673828
v 33137.054688 29462.822266 19402.062500
v 33946.820312 29382.714844 19419.632812
v 33286.410156 29847.970703 19540.960938
v 33418.222656 29063.224609 19451.824219
v 33590.351562 29096.808594 19427.523438
v 33347.472656 29146.324219 19493.160156
v 33659.109375 29197.582031 19500.148438
v 34013.871094 29452.115234 19381.884766
v 34080.726562 29554.060547 19461.083984
v 33581.574219 30067.396484 19509.361328
v 33412.953125 29133.183594 19504.431641
v 33504.121094 29143.195312 19507.230469
v 33263.472656 29239.589844 19512.373047
v 33189.062500 29327.472656 19477.550781
v 33904.933594 29356.634766 19488.056641
v 34130.824219 29681.539062 19540.929688
v 33952.164062 30000.960938 19462.861328
v 33781.890625 30080.484375 19507.925781
v 33896.785156 30044.236328 19530.023438
v 33690.878906 29235.421875 19539.214844
v 33224.062500 29279.683594 19496.837891
v 34054.187500 29967.554688 19673.417969
v 33723.343750 30088.851562 19547.160156
v 33332.773438 29221.816406 19570.722656
v 33602.222656 29154.953125 19478.664062
v 33765.074219 29262.064453 19505.906250
v 33153.964844 29406.386719 19465.738281
v 33999.378906 29469.460938 19560.839844
v 34046.390625 29531.914062 19589.339844
v 34113.871094 29645.500000 19588.988281
v 34109.140625 29842.439453 19536.544922
v 33366.054688 29932.250000 19585.970703
v 33978.460938 30010.923828 19606.220703
v 33433.476562 29182.818359 19562.117188
v 33203.738281 29428.994141 19655.818359
v 33867.937500 29355.595703 19574.843750
v 34136.878906 29765.103516 19553.828125
v 33418.597656 29987.712891 19540.058594
v 34066.585938 29902.091797 19527.640625
v 33474.914062 30018.164062 19615.925781
v 33742.554688 30092.382812 19724.615234
v 33278.726562 29298.046875 19622.656250
v 33657.292969 30083.921875 19565.740234
v 33857.960938 30071.070312 19621.097656
v 33475.023438 29231.673828 19638.253906
v 33538.437500 29215.466797 19597.794922
v 33626.167969 29229.919922 19581.664062
v 33261.691406 29361.378906 19696.101562
v 33750.992188 29314.794922 19656.648438
v 33216.605469 29367.732422 19607.253906
v 33160.097656 29460.857422 19529.044922
v 33961.707031 29450.107422 19624.619141
v 34134.558594 29843.564453 19663.691406
v 33990.480469 30019.326172 19690.417969
v 33946.949219 30048.580078 19724.027344
v 33368.203125 29315.742188 19753.097656
v 33317.179688 29304.896484 19683.746094
v 34118.523438 29904.056641 19710.626953
v 34019.085938 29534.970703 19690.416016
v 34142.335938 29755.763672 19655.082031
v 33563.113281 30057.433594 19623.257812
v 33871.375000 30075.869141 19819.050781
v 33524.921875 29298.480469 19760.738281
v 33389.085938 29246.994141 19648.482422
v 33849.503906 29385.730469 19695.132812
v 33255.496094 29412.880859 19769.457031
v 33981.312500 29538.533203 19789.484375
v 33175.027344 29567.406250 19649.478516
v 34066.421875 29635.492188 19742.238281
v 34111.144531 29704.695312 19716.166016
v 33814.785156 30083.667969 19691.687500
v 33921.089844 29445.218750 19719.703125
v 33928.984375 29508.210938 19836.667969
v 33190.843750 29515.890625 19707.900391
v 34116.238281 29783.257812 19791.076172
v 33310.851562 29393.171875 19830.398438
v 33956.480469 29615.757812 19974.546875
v 33201.152344 29578.554688 19775.480469
v 34131.718750 29858.343750 19758.250000
v 33546.507812 30047.414062 19788.792969
v 33624.125000 29310.986328 19753.160156
v 34019.804688 29615.400391 19847.638672
v 34052.550781 29700.789062 19883.347656
v 33377.457031 29923.335938 19753.130859
v 33449.292969 29315.761719 19794.419922
v 33553.046875 29349.873047 19860.658203
v 33789.726562 29367.851562 19740.802734
v 33855.636719 29439.894531 19807.460938
v 33925.593750 29550.650391 19919.238281
v 33207.234375 29694.378906 19639.990234
v 33242.812500 29754.464844 19679.769531
v 33431.183594 29971.484375 19793.757812
v 33977.746094 30038.257812 19831.404297
v 33208.039062 29641.998047 19762.226562
v 33254.898438 29718.449219 19870.183594
v 33328.929688 29860.496094 19779.927734
v 34082.968750 29875.798828 19906.134766
v 34097.050781 29903.349609 19875.214844
v 33948.214844 30043.398438 19921.820312
v 33722.542969 29364.025391 19805.039062
v 33274.890625 29798.011719 19726.611328
v 34061.789062 29762.164062 19904.242188
v 34064.593750 29983.521484 19838.033203
v 33512.843750 30003.132812 19949.318359
v 33593.773438 30049.984375 19901.601562
v 33662.992188 30083.753906 19828.242188
v 33239.964844 29513.082031 19846.363281
v 33393.851562 29912.636719 19899.574219
v 34093.789062 29928.208984 19864.904297
v 33718.074219 30092.533203 19776.300781
v 33360.281250 29370.960938 19849.779297
v 33287.750000 29485.437500 19913.226562
v 33827.066406 29485.126953 19926.136719
v 33280.695312 29540.347656 19956.152344
v 33221.332031 29563.330078 19842.166016
v 33246.128906 29681.136719 19906.884766
v 33990.429688 29837.851562 20060.234375
v 34008.425781 29993.097656 20006.064453
v 33434.589844 29375.105469 19887.583984
v 33689.148438 29412.876953 19913.220703
v 33845.710938 29583.527344 20035.404297
v 33255.296875 29601.953125 19933.583984
v 33332.406250 29790.625000 20045.882812
v 34023.816406 29742.818359 19965.851562
v 34051.359375 29835.109375 19956.845703
v 33465.894531 29965.738281 19960.541016
v 34032.726562 29946.876953 19996.429688
v 33834.886719 30069.828125 19927.884766
v 33591.171875 29410.203125 19942.679688
v 33768.503906 29495.564453 19985.066406
v 33314.070312 29802.214844 19942.759766
v 33477.769531 29411.662109 19950.318359
v 33391.218750 29458.687500 19978.265625
v 33575.527344 29453.988281 20002.154297
v 33322.375000 29516.800781 20000.548828
v 33284.453125 29682.244141 20001.113281
v 33906.835938 29644.566406 20042.068359
v 33624.203125 30048.683594 19970.730469
v 33729.628906 30076.458984 19938.343750
v 33479.890625 29482.523438 20029.777344
v 33399.300781 29532.976562 20057.005859
v 33648.269531 29501.066406 20041.890625
v 33724.023438 29563.587891 20082.496094
v 33297.824219 29616.544922 20020.427734
v 33321.441406 29710.066406 20060.498047
v 33939.882812 29716.642578 20058.835938
v 33388.039062 29875.044922 20028.544922
v 33991.878906 29924.513672 20085.119141
v 33723.394531 30062.439453 20021.527344
v 33889.683594 30024.169922 20117.923828
v 33555.507812 29567.267578 20118.845703
v 33441.164062 29584.611328 20105.326172
v 33360.410156 29577.433594 20067.007812
v 33397.554688 29651.128906 20122.222656
v 33823.140625 29666.089844 20118.935547
v 33952.640625 29823.400391 20104.289062
v 33412.453125 29866.642578 20092.361328
v 33946.515625 29993.234375 20148.296875
v 33531.898438 29983.419922 20062.136719
v 33951.289062 30012.542969 20083.154297
v 33637.562500 30020.095703 20101.498047
v 33448.910156 29675.699219 20163.005859
v 33642.917969 29612.113281 20147.203125
v 33759.156250 29651.775391 20145.673828
v 33369.980469 29734.894531 20109.117188
v 33826.359375 29776.277344 20198.886719
v 33379.117188 29792.888672 20114.935547
v 33929.199219 29909.535156 20165.607422
v 33545.386719 29611.511719 20148.648438
v 33528.390625 29694.126953 20201.978516
v 33723.937500 29704.062500 20192.441406
v 33628.707031 29711.320312 20215.738281
v 33710.226562 29789.054688 20248.593750
v 33501.570312 29924.968750 20134.330078
v 33826.980469 30012.716797 20173.939453
v 33461.898438 29736.042969 20182.511719
v 33870.156250 29919.070312 20221.246094
v 33739.597656 30033.552734 20115.527344
v 33622.941406 29827.941406 20275.046875
v 33540.925781 29830.203125 20228.281250
v 33476.722656 29868.066406 20164.082031
v 33621.781250 30000.857422 20139.873047
v 33589.171875 29866.761719 20247.578125
v 33866.031250 29844.722656 20204.751953
v 33557.410156 29924.589844 20188.640625
v 33682.363281 29939.515625 20245.875000
v 33785.765625 29873.662109 20267.761719
v 33785.480469 29916.609375 20271.445312
v 33872.140625 29992.623047 20209.583984
v 33760.804688 29981.410156 20221.011719
v 33733.656250 29925.082031 20265.119141
# 633 vertices, 0 vertices normals

f 5 11 1
f 1 3 5
f 1 8 3
f 2 5 3
f 4 3 8
f 11 13 1
f 6 1 13
f 15 5 7
f 8 1 6
f 8 6 17
f 2 7 5
f 14 7 2
f 9 4 8
f 10 2 3
f 10 3 4
f 4 29 10
f 12 11 5
f 15 12 5
f 8 17 9
f 18 14 2
f 18 2 10
f 12 32 11
f 15 24 12
f 13 43 30
f 6 13 30
f 30 17 6
f 16 7 14
f 9 29 4
f 10 29 18
f 34 13 11
f 7 21 15
f 16 21 7
f 17 22 9
f 19 29 9
f 11 32 34
f 20 16 14
f 28 27 14
f 22 19 9
f 28 14 18
f 22 45 19
f 37 43 13
f 26 21 16
f 26 16 20
f 30 35 17
f 27 20 14
f 29 41 18
f 23 12 24
f 33 23 24
f 23 32 12
f 21 25 15
f 31 20 27
f 36 28 18
f 36 39 28
f 19 45 40
f 42 25 21
f 38 30 43
f 17 35 44
f 44 22 17
f 22 44 45
f 19 41 29
f 18 41 36
f 25 33 24
f 15 25 24
f 34 47 13
f 37 13 47
f 26 48 21
f 20 53 26
f 40 51 19
f 19 56 41
f 38 35 30
f 54 35 38
f 53 20 65
f 65 20 31
f 55 44 35
f 27 67 31
f 44 55 45
f 28 39 27
f 56 19 51
f 48 42 21
f 50 55 35
f 33 49 23
f 32 52 34
f 32 23 49
f 25 46 33
f 47 34 52
f 37 79 43
f 38 43 79
f 38 79 64
f 54 38 64
f 55 116 45
f 86 27 39
f 116 85 45
f 85 40 45
f 36 86 39
f 36 41 56
f 32 49 58
f 32 58 52
f 63 46 25
f 42 63 25
f 42 48 103
f 103 48 26
f 53 65 82
f 143 35 54
f 143 50 35
f 31 83 65
f 67 83 31
f 84 55 50
f 86 67 27
f 36 56 87
f 61 33 46
f 61 49 33
f 60 37 47
f 47 52 60
f 26 53 80
f 144 50 143
f 66 84 50
f 84 116 55
f 85 117 40
f 40 117 51
f 36 87 148
f 59 74 57
f 49 57 58
f 58 57 62
f 57 49 59
f 59 49 61
f 46 76 61
f 52 58 62
f 63 76 46
f 62 60 52
f 78 63 42
f 78 42 103
f 80 103 26
f 66 50 144
f 36 148 86
f 117 104 51
f 51 104 56
f 70 68 90
f 70 91 71
f 70 71 68
f 68 72 69
f 94 69 72
f 68 74 72
f 94 72 95
f 71 73 68
f 68 73 74
f 96 72 74
f 71 75 73
f 73 57 74
f 75 62 73
f 73 62 57
f 96 74 59
f 97 60 62
f 75 97 62
f 59 61 96
f 76 96 61
f 78 76 63
f 97 77 60
f 77 37 60
f 77 101 37
f 79 37 101
f 64 79 114
f 53 81 80
f 82 81 53
f 65 115 82
f 83 115 65
f 116 84 130
f 104 87 56
f 89 90 106
f 90 68 88
f 88 68 69
f 88 69 92
f 89 91 70
f 89 70 90
f 69 94 92
f 93 71 91
f 126 94 95
f 93 75 71
f 96 95 72
f 76 112 96
f 112 98 96
f 99 100 77
f 99 77 97
f 78 112 76
f 100 101 77
f 79 101 114
f 64 114 178
f 81 82 115
f 67 147 83
f 67 86 147
f 116 131 85
f 85 167 117
f 119 107 121
f 106 90 105
f 105 88 119
f 105 90 88
f 88 107 119
f 107 88 92
f 122 89 106
f 122 109 89
f 92 110 107
f 108 107 110
f 109 91 89
f 109 93 91
f 92 94 110
f 110 94 126
f 109 136 111
f 111 75 93
f 111 93 109
f 113 99 111
f 98 127 95
f 127 126 95
f 111 99 75
f 96 98 95
f 99 97 75
f 113 100 99
f 78 102 112
f 139 101 100
f 114 101 139
f 102 78 140
f 103 140 78
f 178 142 64
f 81 129 80
f 142 54 64
f 142 143 54
f 83 145 115
f 145 202 115
f 130 84 66
f 116 130 146
f 116 146 131
f 181 87 104
f 87 181 148
f 120 118 150
f 120 119 118
f 120 132 134
f 119 121 118
f 105 120 134
f 120 105 119
f 135 118 121
f 134 122 105
f 122 106 105
f 135 121 108
f 121 107 108
f 154 108 124
f 123 109 122
f 110 124 108
f 110 126 124
f 123 136 109
f 124 126 163
f 136 125 111
f 125 176 113
f 113 111 125
f 127 137 126
f 112 127 98
f 112 128 127
f 112 102 128
f 155 100 113
f 139 100 155
f 103 141 140
f 81 165 129
f 115 165 81
f 189 147 86
f 131 167 85
f 148 189 86
f 167 169 117
f 104 117 169
f 169 181 104
f 181 191 148
f 132 149 151
f 170 150 161
f 149 120 150
f 132 120 149
f 161 150 118
f 161 118 135
f 134 132 152
f 134 152 133
f 122 134 133
f 123 122 133
f 137 163 126
f 155 113 176
f 128 157 138
f 177 139 155
f 157 128 102
f 157 102 140
f 178 114 139
f 141 103 80
f 141 80 201
f 129 201 80
f 165 180 129
f 202 165 115
f 144 247 66
f 130 66 203
f 166 145 83
f 149 193 151
f 150 170 149
f 152 132 151
f 162 133 152
f 135 153 172
f 135 172 161
f 135 108 153
f 162 174 133
f 154 153 108
f 133 174 123
f 125 123 174
f 124 175 154
f 125 136 123
f 163 175 124
f 185 155 176
f 156 137 127
f 156 186 137
f 185 177 155
f 128 156 127
f 128 138 156
f 239 142 178
f 245 143 142
f 245 144 143
f 247 144 245
f 130 203 158
f 147 159 83
f 158 146 130
f 189 160 147
f 159 147 160
f 204 131 146
f 148 191 168
f 151 171 152
f 171 162 152
f 172 153 173
f 173 153 154
f 187 138 164
f 156 138 187
f 157 164 138
f 179 164 157
f 180 201 129
f 83 159 166
f 146 158 204
f 148 168 189
f 190 192 169
f 193 149 170
f 170 161 232
f 162 171 182
f 173 154 197
f 197 154 175
f 174 176 125
f 186 163 137
f 156 187 186
f 222 139 177
f 179 157 140
f 140 141 179
f 141 201 238
f 165 246 225
f 166 202 145
f 203 66 240
f 226 159 160
f 204 205 131
f 131 205 167
f 167 190 169
f 169 192 181
f 191 181 192
f 195 232 161
f 172 196 161
f 196 172 183
f 173 183 172
f 162 182 184
f 184 174 162
f 175 220 197
f 198 220 175
f 163 198 175
f 186 198 163
f 199 187 188
f 188 187 164
f 164 212 188
f 223 200 179
f 200 164 179
f 238 179 141
f 165 225 180
f 240 66 247
f 213 166 159
f 226 213 159
f 167 205 190
f 192 190 206
f 191 207 168
f 192 229 191
f 232 193 170
f 151 193 194
f 194 171 151
f 232 195 215
f 161 196 195
f 234 208 171
f 208 182 171
f 184 182 209
f 184 209 219
f 184 219 174
f 174 219 176
f 185 176 219
f 221 198 186
f 187 221 186
f 187 199 221
f 222 177 185
f 188 212 211
f 164 200 212
f 236 139 222
f 236 178 139
f 236 239 178
f 180 262 201
f 202 254 165
f 254 246 165
f 158 214 204
f 158 203 214
f 168 241 189
f 207 191 229
f 229 192 206
f 194 193 231
f 194 234 171
f 216 182 208
f 173 197 183
f 209 182 216
f 220 198 253
f 210 269 221
f 199 210 221
f 188 210 199
f 188 211 210
f 200 321 212
f 200 223 321
f 179 238 223
f 180 225 262
f 245 142 239
f 166 249 202
f 213 249 166
f 265 214 203
f 204 214 227
f 227 205 204
f 189 241 160
f 205 259 190
f 259 206 190
f 228 168 207
f 207 229 250
f 207 250 228
f 231 193 230
f 233 234 194
f 215 195 260
f 196 260 195
f 216 208 234
f 197 217 183
f 209 216 218
f 243 217 197
f 219 209 218
f 220 251 197
f 221 253 198
f 185 244 222
f 321 211 212
f 236 237 239
f 224 223 238
f 248 240 247
f 202 249 254
f 256 226 160
f 205 227 277
f 241 258 160
f 168 228 241
f 193 232 230
f 252 216 234
f 252 218 216
f 197 251 243
f 185 219 244
f 221 269 253
f 235 236 222
f 249 274 254
f 203 240 255
f 265 203 276
f 265 227 214
f 258 256 160
f 205 277 259
f 267 231 230
f 267 230 278
f 278 230 232
f 278 232 215
f 242 260 196
f 233 281 234
f 196 183 217
f 281 252 234
f 219 218 284
f 220 253 251
f 235 222 244
f 285 237 236
f 238 201 262
f 246 263 225
f 245 287 247
f 273 255 240
f 255 276 203
f 228 258 241
f 279 194 231
f 260 278 215
f 279 233 194
f 260 242 268
f 242 196 217
f 284 218 252
f 284 244 219
f 270 236 235
f 285 236 270
f 286 271 224
f 286 224 238
f 238 262 286
f 225 304 262
f 305 245 239
f 225 263 304
f 287 245 305
f 248 247 287
f 288 249 213
f 264 213 226
f 206 259 266
f 291 258 228
f 266 229 206
f 228 250 291
f 229 297 250
f 267 279 231
f 268 278 260
f 283 252 281
f 253 261 251
f 210 300 269
f 321 223 323
f 271 323 224
f 305 239 237
f 254 272 246
f 263 246 272
f 248 273 240
f 264 288 213
f 276 308 265
f 264 226 256
f 265 289 227
f 277 227 289
f 257 256 258
f 277 290 259
f 259 290 266
f 266 297 229
f 280 233 279
f 280 281 233
f 251 261 243
f 284 252 283
f 283 316 284
f 253 317 261
f 318 244 316
f 270 235 244
f 323 223 224
f 304 286 262
f 272 307 263
f 254 274 272
f 273 248 324
f 288 275 249
f 294 276 255
f 346 288 264
f 308 295 265
f 265 295 289
f 328 264 256
f 257 328 256
f 290 296 266
f 257 258 291
f 250 297 291
f 243 293 217
f 283 281 292
f 292 333 283
f 253 269 317
f 316 244 284
f 338 211 321
f 307 304 263
f 273 294 255
f 249 275 274
f 308 276 294
f 264 328 346
f 277 289 309
f 279 267 312
f 312 267 311
f 311 267 278
f 268 311 278
f 279 299 280
f 282 280 299
f 282 281 280
f 242 217 314
f 217 293 314
f 282 292 281
f 243 315 293
f 243 261 315
f 333 316 283
f 269 300 317
f 319 300 210
f 270 244 318
f 211 319 210
f 211 301 319
f 211 338 301
f 322 285 270
f 355 237 285
f 286 303 271
f 287 324 248
f 275 288 358
f 358 288 346
f 295 309 289
f 290 277 309
f 290 309 394
f 394 296 290
f 257 291 347
f 268 298 311
f 312 299 279
f 242 331 268
f 313 282 299
f 282 313 292
f 261 317 315
f 337 317 300
f 302 270 318
f 323 271 340
f 322 355 285
f 303 340 271
f 355 341 237
f 341 305 237
f 307 306 304
f 381 324 287
f 343 324 381
f 294 273 344
f 345 274 275
f 294 383 308
f 275 358 345
f 329 328 257
f 347 329 257
f 266 310 297
f 297 348 291
f 312 311 350
f 331 298 268
f 312 330 299
f 331 242 314
f 293 315 314
f 313 373 292
f 332 292 373
f 292 332 333
f 317 354 315
f 335 336 316
f 336 318 316
f 319 337 300
f 302 322 270
f 377 322 302
f 321 320 338
f 342 303 286
f 286 304 342
f 366 287 305
f 305 341 366
f 306 342 304
f 344 324 343
f 272 325 307
f 344 273 324
f 274 325 272
f 367 294 344
f 383 294 326
f 383 295 308
f 309 295 327
f 296 359 266
f 266 359 310
f 310 348 297
f 291 348 347
f 311 298 350
f 351 350 298
f 350 330 312
f 351 298 331
f 352 351 331
f 330 313 299
f 314 352 331
f 314 353 352
f 315 353 314
f 354 353 315
f 317 334 354
f 335 316 333
f 317 337 334
f 336 302 318
f 321 323 320
f 320 323 339
f 323 340 339
f 342 356 303
f 381 287 366
f 367 326 294
f 327 295 383
f 328 368 346
f 328 329 368
f 351 349 350
f 349 351 352
f 371 373 313
f 371 313 330
f 372 353 354
f 332 360 333
f 374 354 334
f 360 335 333
f 319 361 337
f 301 361 319
f 375 302 336
f 390 377 302
f 320 339 363
f 365 339 340
f 357 343 381
f 357 344 343
f 357 367 344
f 346 368 358
f 309 327 384
f 394 359 296
f 329 347 396
f 369 396 347
f 359 414 310
f 348 369 347
f 414 348 310
f 370 350 349
f 350 397 330
f 372 349 352
f 353 372 352
f 354 374 372
f 334 337 376
f 336 335 375
f 361 376 337
f 390 302 375
f 301 362 361
f 338 362 301
f 362 338 320
f 377 355 322
f 364 363 339
f 364 339 365
f 380 340 303
f 356 380 303
f 307 392 306
f 274 345 325
f 345 411 325
f 393 326 367
f 309 384 431
f 431 394 309
f 385 414 359
f 330 397 371
f 386 372 374
f 386 374 399
f 388 374 334
f 360 389 335
f 376 388 334
f 375 335 389
f 361 362 376
f 377 391 355
f 364 365 425
f 378 341 355
f 409 341 378
f 365 340 379
f 380 379 340
f 409 366 341
f 306 392 342
f 443 381 366
f 307 382 392
f 325 382 307
f 325 426 382
f 426 325 411
f 427 326 393
f 427 383 326
f 412 345 358
f 445 327 383
f 358 429 412
f 368 429 358
f 474 480 327
f 327 480 384
f 359 452 385
f 348 415 369
f 414 415 348
f 415 416 369
f 396 369 416
f 350 370 397
f 349 386 370
f 386 349 372
f 371 398 373
f 398 371 397
f 387 332 373
f 387 373 398
f 374 400 399
f 332 387 360
f 374 388 400
f 389 390 375
f 403 390 389
f 362 421 376
f 391 377 390
f 404 362 363
f 362 320 363
f 407 404 363
f 364 407 363
f 364 425 407
f 391 378 355
f 379 425 365
f 356 444 380
f 356 342 450
f 342 392 450
f 381 443 357
f 393 367 410
f 445 383 427
f 445 474 327
f 431 384 480
f 395 368 329
f 395 329 396
f 415 460 416
f 401 360 387
f 376 400 388
f 376 402 400
f 401 389 360
f 376 421 402
f 404 422 421
f 390 405 391
f 390 403 405
f 362 404 421
f 441 404 407
f 391 405 406
f 406 378 391
f 409 378 406
f 425 408 407
f 379 380 457
f 443 366 409
f 392 382 451
f 367 357 410
f 345 428 411
f 412 428 345
f 395 430 429
f 395 429 368
f 480 413 431
f 394 413 359
f 452 359 413
f 417 398 397
f 397 370 417
f 432 398 417
f 417 370 434
f 399 434 386
f 434 370 386
f 398 432 387
f 419 434 399
f 387 432 401
f 400 419 399
f 420 401 432
f 432 418 420
f 402 419 400
f 419 421 433
f 402 421 419
f 440 403 389
f 401 440 389
f 437 433 421
f 401 420 435
f 422 437 421
f 435 440 401
f 423 405 403
f 441 422 404
f 423 424 405
f 424 406 405
f 408 441 407
f 463 456 406
f 456 409 406
f 463 406 424
f 380 444 457
f 469 443 409
f 356 450 444
f 450 392 451
f 428 426 411
f 445 427 543
f 412 473 428
f 473 412 429
f 431 413 394
f 395 396 459
f 385 465 414
f 414 465 415
f 465 460 415
f 432 417 418
f 434 418 417
f 433 418 434
f 436 418 433
f 433 434 419
f 437 436 433
f 436 420 418
f 420 436 435
f 446 435 436
f 440 423 403
f 435 446 440
f 446 436 442
f 437 442 436
f 442 437 438
f 422 438 437
f 440 439 423
f 441 438 422
f 439 424 423
f 440 448 439
f 442 438 447
f 441 447 438
f 447 441 408
f 455 463 424
f 455 424 439
f 379 457 478
f 410 357 443
f 532 427 393
f 532 533 427
f 533 543 427
f 445 526 474
f 430 395 459
f 448 440 446
f 446 453 448
f 447 454 442
f 408 467 447
f 449 467 408
f 408 425 468
f 379 468 425
f 379 478 468
f 469 409 456
f 428 479 426
f 479 428 473
f 543 538 445
f 445 538 526
f 480 482 413
f 459 396 461
f 452 485 385
f 385 485 465
f 460 486 416
f 446 454 453
f 442 454 446
f 447 467 454
f 439 466 455
f 466 439 448
f 462 449 468
f 449 408 468
f 493 443 469
f 493 410 443
f 382 472 451
f 382 458 472
f 426 458 382
f 458 426 479
f 429 481 473
f 481 429 430
f 413 482 503
f 396 416 461
f 416 486 461
f 454 476 453
f 466 448 453
f 484 463 455
f 466 484 455
f 457 444 470
f 450 470 444
f 471 450 451
f 500 473 481
f 459 464 430
f 503 452 413
f 461 475 459
f 465 483 513
f 465 513 460
f 460 513 486
f 453 476 466
f 489 467 449
f 462 489 449
f 456 463 492
f 450 471 470
f 532 393 410
f 464 481 430
f 459 475 464
f 475 461 497
f 461 486 497
f 465 485 483
f 466 476 506
f 506 476 487
f 499 484 466
f 506 499 466
f 491 489 462
f 491 462 468
f 477 456 492
f 490 492 463
f 490 463 484
f 477 469 456
f 457 470 494
f 471 451 472
f 536 532 410
f 473 495 479
f 500 495 473
f 452 503 548
f 497 496 475
f 452 548 485
f 488 476 454
f 488 487 476
f 488 454 467
f 488 467 489
f 507 468 478
f 457 494 478
f 510 410 493
f 458 502 472
f 479 502 458
f 479 495 502
f 474 526 534
f 474 534 480
f 500 481 464
f 523 488 489
f 498 499 506
f 484 499 490
f 529 491 468
f 468 507 529
f 493 469 477
f 494 470 501
f 470 471 501
f 471 472 511
f 502 495 521
f 534 482 480
f 496 464 475
f 485 552 483
f 513 504 486
f 505 487 488
f 523 505 488
f 508 492 490
f 508 477 492
f 514 478 494
f 477 516 493
f 516 510 493
f 501 471 511
f 536 410 510
f 512 511 472
f 502 512 472
f 503 482 522
f 548 552 485
f 504 497 486
f 499 518 490
f 542 489 491
f 529 542 491
f 490 518 508
f 514 507 478
f 514 494 501
f 514 501 509
f 502 517 512
f 500 521 495
f 552 513 483
f 542 523 489
f 518 499 553
f 499 498 553
f 508 549 477
f 516 477 549
f 516 549 557
f 510 516 520
f 524 501 511
f 534 522 482
f 545 500 464
f 496 545 464
f 497 535 496
f 498 506 527
f 527 506 487
f 528 505 523
f 515 514 509
f 509 501 524
f 510 520 536
f 524 511 525
f 511 512 525
f 517 525 512
f 521 517 502
f 500 551 521
f 496 535 545
f 548 503 522
f 505 527 487
f 553 498 527
f 530 529 507
f 530 507 514
f 515 530 514
f 520 516 557
f 509 524 519
f 552 504 513
f 497 504 535
f 555 529 530
f 531 515 509
f 519 531 509
f 537 533 532
f 521 540 517
f 551 540 521
f 551 500 545
f 522 534 546
f 527 561 553
f 528 527 505
f 508 518 554
f 531 530 515
f 525 519 524
f 544 525 517
f 526 538 550
f 550 534 526
f 528 561 527
f 528 523 542
f 555 542 529
f 554 549 508
f 555 530 531
f 519 555 531
f 532 536 537
f 540 539 517
f 546 534 568
f 547 548 522
f 556 549 554
f 536 558 537
f 537 543 533
f 519 525 566
f 544 566 525
f 544 517 567
f 539 567 517
f 568 534 550
f 546 547 522
f 535 541 545
f 557 536 520
f 558 536 557
f 538 543 573
f 538 573 589
f 567 566 544
f 550 538 589
f 545 560 551
f 548 547 580
f 535 504 541
f 574 561 528
f 562 528 542
f 562 571 528
f 575 553 561
f 555 562 542
f 519 563 555
f 564 549 556
f 557 549 564
f 573 543 537
f 566 588 519
f 559 566 567
f 569 539 540
f 589 568 550
f 551 569 540
f 545 541 560
f 581 552 548
f 581 570 552
f 552 570 504
f 571 574 528
f 574 575 561
f 553 577 518
f 577 553 575
f 555 572 562
f 518 577 554
f 554 577 556
f 563 519 579
f 558 557 564
f 588 579 519
f 565 537 558
f 537 565 573
f 560 569 551
f 546 568 601
f 546 580 547
f 580 581 548
f 541 504 570
f 576 574 571
f 563 572 555
f 577 586 556
f 586 564 556
f 578 564 586
f 578 558 564
f 565 558 578
f 588 566 598
f 566 559 598
f 539 590 567
f 567 590 559
f 569 590 539
f 546 601 580
f 560 541 602
f 591 581 580
f 574 576 582
f 562 576 571
f 582 575 574
f 582 576 593
f 584 576 562
f 562 572 584
f 583 577 575
f 563 585 572
f 579 597 563
f 586 587 578
f 565 578 587
f 565 589 573
f 601 568 589
f 600 569 560
f 560 602 600
f 570 592 541
f 541 592 602
f 576 584 593
f 582 583 575
f 583 582 593
f 585 584 572
f 583 595 577
f 595 586 577
f 586 595 587
f 587 595 596
f 565 587 609
f 599 589 565
f 600 590 569
f 603 591 580
f 581 591 570
f 594 583 593
f 583 594 595
f 611 594 593
f 596 595 594
f 563 606 585
f 597 606 563
f 607 587 596
f 587 607 609
f 597 579 608
f 608 579 588
f 598 559 610
f 559 590 610
f 589 599 616
f 589 616 601
f 601 603 580
f 624 603 601
f 570 591 592
f 611 593 605
f 605 593 584
f 585 605 584
f 594 604 596
f 612 604 594
f 594 611 612
f 606 605 585
f 604 618 596
f 605 606 613
f 618 607 596
f 613 606 608
f 608 606 597
f 609 607 618
f 626 608 588
f 598 626 588
f 609 599 565
f 609 623 599
f 623 616 599
f 601 616 624
f 600 602 592
f 603 620 591
f 612 611 614
f 614 611 605
f 614 605 613
f 618 604 612
f 615 614 613
f 598 610 626
f 600 610 590
f 627 624 616
f 592 620 617
f 592 591 620
f 621 612 614
f 618 612 621
f 621 614 615
f 629 615 613
f 629 613 608
f 622 609 618
f 623 609 622
f 610 619 626
f 627 616 623
f 619 610 631
f 631 610 600
f 592 631 600
f 624 620 603
f 617 631 592
f 629 608 626
f 622 618 621
f 622 625 623
f 625 622 621
f 627 623 625
f 627 628 624
f 632 620 624
f 628 632 624
f 632 617 620
f 631 617 632
f 629 621 615
f 619 630 626
f 630 629 626
f 628 627 625
f 619 631 630
f 633 625 621
f 629 633 621
f 633 629 630
f 628 625 633
f 632 630 631
f 628 633 632
f 632 633 630
# 1262 faces, 0 coords texture

# End of File
