####
#
# OBJ File Generated by Meshlab
#
####
# Object RUBR.obj
#
# Vertices: 733
# Faces: 1462
#
####
v 17627.548828 29821.302734 17803.697266
v 17650.898438 29893.587891 17825.302734
v 17579.617188 29758.269531 17815.708984
v 17546.408203 29806.576172 17820.080078
v 17571.613281 29894.652344 17822.273438
v 17760.738281 29786.712891 17888.626953
v 17482.714844 29869.197266 17856.119141
v 17696.275391 29817.203125 17825.230469
v 17735.847656 29901.482422 17880.740234
v 17585.769531 29994.576172 17905.845703
v 17662.330078 29959.476562 17874.345703
v 17613.369141 29699.673828 17857.619141
v 17689.771484 29746.994141 17843.472656
v 17497.970703 29757.648438 17852.144531
v 17787.056641 29850.011719 17911.160156
v 17500.193359 29661.896484 17898.185547
v 17450.441406 29669.285156 17917.414062
v 17418.736328 29716.810547 17927.837891
v 17487.005859 29955.916016 17921.933594
v 17567.587891 29557.017578 17987.201172
v 17634.703125 29641.392578 17915.451172
v 17439.162109 29849.210938 17898.548828
v 17438.273438 29893.562500 17923.574219
v 17773.017578 29952.519531 17969.607422
v 17401.554688 28560.605469 17990.361328
v 17555.898438 28570.917969 18014.796875
v 17455.019531 28656.412109 17964.064453
v 17526.482422 28727.478516 17974.208984
v 17574.648438 28741.078125 18005.859375
v 17396.974609 28739.625000 17963.824219
v 17484.158203 28777.025391 17955.695312
v 17366.947266 28826.513672 17994.863281
v 17711.017578 29676.101562 17929.048828
v 17827.226562 29853.308594 17983.769531
v 17528.521484 30023.326172 17983.652344
v 17687.507812 30003.058594 17928.755859
v 17307.787109 28745.267578 18038.898438
v 17549.355469 28857.156250 17990.837891
v 17377.599609 29740.019531 17974.912109
v 17507.871094 28488.937500 18017.068359
v 17343.402344 28619.757812 18004.753906
v 17314.878906 28832.076172 18047.525391
v 17445.394531 28859.080078 17975.140625
v 17508.970703 28945.566406 18002.789062
v 17738.644531 29720.480469 17906.857422
v 17339.041016 29887.294922 18075.623047
v 17498.734375 30000.324219 17972.496094
v 17639.458984 28633.138672 18064.574219
v 17364.160156 28920.960938 18032.505859
v 17427.730469 28988.349609 18027.164062
v 17498.683594 29575.380859 17977.853516
v 17653.884766 29546.857422 18029.980469
v 17867.416016 29859.794922 18092.884766
v 17606.490234 30060.783203 18014.500000
v 17661.552734 30073.974609 18060.740234
v 17351.625000 28529.228516 18032.839844
v 17586.294922 28514.421875 18045.919922
v 17306.904297 28640.250000 18057.941406
v 17643.781250 28893.968750 18062.128906
v 17595.619141 28955.275391 18034.349609
v 17382.810547 29043.902344 18061.304688
v 17633.025391 29488.253906 18066.107422
v 17699.224609 28745.429688 18120.716797
v 17348.373047 29052.123047 18092.978516
v 17555.667969 28972.259766 18018.095703
v 17552.677734 29113.597656 18067.734375
v 17410.033203 29511.738281 18063.669922
v 17383.539062 29654.296875 17987.669922
v 17309.097656 29726.816406 18095.986328
v 17803.332031 29714.867188 18022.490234
v 17448.365234 30035.220703 18095.728516
v 17725.664062 30026.466797 18013.652344
v 17462.257812 28448.898438 18033.402344
v 17315.589844 28518.560547 18108.712891
v 17280.033203 28622.724609 18128.228516
v 17655.242188 28961.525391 18080.250000
v 17632.177734 29135.958984 18107.384766
v 17574.322266 29470.177734 18054.443359
v 17336.132812 29805.304688 18046.578125
v 17808.052734 29987.996094 18125.277344
v 17421.773438 29984.259766 18051.867188
v 17793.007812 29984.302734 18065.589844
v 17493.263672 28318.082031 18120.703125
v 17548.802734 28373.576172 18084.572266
v 17611.744141 28416.074219 18099.593750
v 17708.708984 28656.716797 18141.289062
v 17252.804688 28785.615234 18130.019531
v 17276.667969 28890.382812 18121.687500
v 17480.990234 29105.941406 18060.818359
v 17483.855469 29481.390625 18047.746094
v 17452.400391 29528.308594 18029.396484
v 17700.820312 29543.050781 18073.361328
v 17353.283203 29560.929688 18086.689453
v 17353.208984 29693.818359 18016.335938
v 17885.970703 29891.769531 18210.150391
v 17390.732422 29940.771484 18038.994141
v 17467.992188 30103.080078 18249.691406
v 17518.160156 30073.685547 18090.771484
v 17683.992188 30103.589844 18196.693359
v 17724.863281 30071.855469 18151.820312
v 17612.130859 28292.320312 18147.990234
v 17676.015625 28246.003906 18215.906250
v 17386.691406 28386.238281 18124.140625
v 17414.427734 28438.560547 18057.740234
v 17652.744141 28497.833984 18114.904297
v 17343.373047 28416.525391 18153.933594
v 17238.242188 28666.583984 18218.908203
v 17758.644531 28701.302734 18204.064453
v 17688.652344 28941.384766 18107.865234
v 17685.478516 29156.335938 18146.339844
v 17429.068359 29185.304688 18093.412109
v 17539.191406 29207.005859 18089.861328
v 17488.619141 29256.560547 18096.406250
v 17595.636719 29194.527344 18100.707031
v 17568.210938 29295.695312 18102.828125
v 17633.285156 29312.214844 18125.880859
v 17405.304688 29388.755859 18112.669922
v 17454.179688 29341.521484 18100.587891
v 17520.730469 29357.699219 18090.660156
v 17500.974609 29421.500000 18073.345703
v 17577.968750 29400.101562 18088.636719
v 17664.025391 29429.621094 18118.291016
v 17715.226562 29461.449219 18146.156250
v 17319.912109 29610.708984 18108.589844
v 17840.619141 29789.191406 18011.927734
v 17292.787109 29855.921875 18156.013672
v 17282.380859 29939.568359 18247.894531
v 17624.515625 30093.191406 18105.603516
v 17577.404297 28235.994141 18173.287109
v 17682.167969 28354.128906 18177.708984
v 17698.529297 28505.552734 18174.130859
v 17748.429688 28828.380859 18171.291016
v 17763.832031 29022.042969 18196.947266
v 17297.193359 29047.705078 18150.224609
v 17743.416016 29227.906250 18208.273438
v 17356.775391 29160.687500 18123.041016
v 17350.826172 29275.119141 18150.414062
v 17421.498047 29274.207031 18111.552734
v 17672.054688 29273.398438 18148.015625
v 17349.853516 29381.966797 18151.542969
v 17318.460938 29474.031250 18160.441406
v 17737.251953 29542.199219 18116.111328
v 17771.201172 29607.900391 18101.564453
v 17882.697266 29792.685547 18158.904297
v 17349.443359 29987.656250 18187.775391
v 17770.402344 30036.013672 18148.369141
v 17490.960938 28174.525391 18239.654297
v 17375.775391 28304.615234 18215.101562
v 17711.566406 28345.632812 18222.271484
v 17259.320312 28592.546875 18213.421875
v 17719.167969 28447.796875 18234.794922
v 17735.250000 28585.326172 18212.664062
v 17764.250000 28643.601562 18253.429688
v 17815.330078 28824.607422 18256.470703
v 17799.490234 28929.884766 18240.128906
v 17249.820312 28957.318359 18200.244141
v 17803.400391 29056.607422 18250.916016
v 17261.398438 29165.378906 18235.740234
v 17702.142578 29380.677734 18161.402344
v 17712.812500 29271.724609 18181.105469
v 17764.552734 29367.939453 18235.462891
v 17370.869141 29488.951172 18104.011719
v 17766.802734 29488.804688 18197.982422
v 17255.261719 29750.015625 18206.087891
v 17238.599609 29815.025391 18261.281250
v 17398.984375 30026.703125 18166.857422
v 17799.000000 30047.441406 18299.154297
v 17597.919922 28128.990234 18272.474609
v 17657.154297 28168.589844 18247.697266
v 17654.292969 28134.626953 18328.669922
v 17445.523438 28248.830078 18191.468750
v 17718.767578 28241.453125 18283.738281
v 17313.185547 28449.746094 18187.878906
v 17300.148438 28427.386719 18261.611328
v 17734.464844 28485.306641 18284.197266
v 17770.093750 28627.558594 18313.648438
v 17805.449219 28740.498047 18298.441406
v 17289.835938 29286.458984 18212.925781
v 17821.238281 29643.646484 18162.835938
v 17259.138672 29903.708984 18255.703125
v 17411.164062 30097.185547 18333.064453
v 17396.158203 28233.730469 18275.222656
v 17245.902344 28611.470703 18293.712891
v 17218.626953 28890.636719 18267.978516
v 17827.222656 29072.191406 18289.968750
v 17309.960938 29191.359375 18174.861328
v 17801.371094 29466.623047 18264.408203
v 17273.585938 29592.925781 18192.583984
v 17220.162109 29595.792969 18308.285156
v 17867.162109 29697.353516 18226.429688
v 17192.558594 29760.783203 18390.212891
v 17528.419922 30121.996094 18249.453125
v 17347.726562 28302.550781 18290.509766
v 17226.421875 28737.289062 18238.746094
v 17860.898438 28966.494141 18370.929688
v 17784.726562 29200.902344 18254.435547
v 17796.722656 29270.044922 18282.279297
v 17278.843750 29377.433594 18229.466797
v 17312.285156 29405.519531 18183.369141
v 17819.955078 29564.103516 18240.169922
v 17897.878906 29825.142578 18208.556641
v 17196.578125 29887.324219 18421.548828
v 17256.835938 29975.011719 18367.097656
v 17304.470703 30004.271484 18315.132812
v 17750.773438 30079.298828 18269.152344
v 17700.564453 30131.191406 18413.968750
v 17749.693359 28558.474609 18338.480469
v 17849.892578 29020.162109 18335.302734
v 17236.414062 29037.800781 18261.904297
v 17836.847656 29245.699219 18352.982422
v 17255.619141 29294.330078 18268.654297
v 17808.505859 29344.339844 18306.751953
v 17852.609375 29993.148438 18321.113281
v 17592.662109 30134.207031 18290.531250
v 17723.294922 28312.642578 18288.443359
v 17248.439453 28631.417969 18352.914062
v 17207.402344 28880.300781 18324.025391
v 17818.009766 28788.347656 18373.611328
v 17858.173828 28937.505859 18400.984375
v 17219.378906 29105.394531 18335.314453
v 17869.765625 29084.423828 18392.701172
v 17859.527344 29543.679688 18365.166016
v 17188.113281 29819.148438 18411.291016
v 17272.923828 30046.171875 18481.500000
v 17324.619141 30068.939453 18428.390625
v 17640.277344 30134.876953 18302.740234
v 17505.873047 28133.343750 18319.330078
v 17409.523438 28191.109375 18357.978516
v 17349.292969 28285.373047 18352.363281
v 17295.869141 28451.128906 18356.097656
v 17220.955078 28783.105469 18340.695312
v 17213.361328 29341.816406 18386.646484
v 17234.531250 29276.517578 18315.914062
v 17250.113281 29444.460938 18269.511719
v 17913.361328 29779.035156 18302.548828
v 17897.687500 29952.037109 18385.318359
v 17208.619141 29938.781250 18439.998047
v 17643.310547 30155.292969 18451.716797
v 17520.871094 28128.839844 18387.306641
v 17630.761719 28153.210938 18421.240234
v 17316.705078 28386.841797 18360.740234
v 17750.751953 28615.423828 18412.287109
v 17217.250000 29460.220703 18351.802734
v 17908.464844 29672.687500 18408.435547
v 17927.433594 29844.728516 18357.039062
v 17571.988281 28107.302734 18349.035156
v 17396.980469 28225.392578 18416.814453
v 17697.769531 28249.121094 18353.814453
v 17312.037109 28455.841797 18415.542969
v 17277.779297 28599.765625 18426.539062
v 17730.406250 28496.117188 18381.984375
v 17838.955078 28905.355469 18452.113281
v 17859.683594 29000.568359 18493.027344
v 17878.804688 29043.951172 18442.814453
v 17887.875000 29099.281250 18497.613281
v 17871.378906 29204.378906 18439.613281
v 17849.117188 29408.511719 18397.746094
v 17936.822266 29930.164062 18523.718750
v 17604.460938 30162.044922 18449.890625
v 17351.833984 28296.974609 18403.486328
v 17322.013672 28515.003906 18467.826172
v 17258.062500 28817.914062 18486.115234
v 17210.628906 28971.529297 18405.494141
v 17207.693359 29012.603516 18370.130859
v 17207.294922 29196.396484 18411.306641
v 17876.917969 29477.808594 18466.640625
v 17191.019531 29647.835938 18433.513672
v 17163.994141 29857.953125 18578.820312
v 17220.972656 30017.742188 18561.757812
v 17550.804688 28164.908203 18455.705078
v 17467.812500 28171.072266 18432.681641
v 17747.019531 28692.126953 18472.666016
v 17798.716797 28806.769531 18466.660156
v 17226.091797 28852.666016 18407.728516
v 17199.546875 29383.582031 18501.359375
v 17203.996094 29390.128906 18437.509766
v 17422.699219 30133.199219 18450.361328
v 17495.833984 30161.185547 18494.687500
v 17410.023438 28274.916016 18464.017578
v 17657.925781 28349.490234 18459.464844
v 17692.849609 28447.261719 18448.294922
v 17288.363281 28693.847656 18491.421875
v 17829.925781 28993.564453 18543.423828
v 17205.033203 29202.236328 18473.917969
v 17862.277344 29333.650391 18436.740234
v 17949.458984 29766.271484 18514.833984
v 17952.199219 29846.556641 18526.037109
v 17748.103516 30111.488281 18431.587891
v 17374.253906 30126.964844 18525.193359
v 17447.451172 30165.324219 18587.429688
v 17560.763672 28259.580078 18495.671875
v 17484.865234 28258.335938 18491.630859
v 17607.417969 28295.164062 18486.732422
v 17374.490234 28342.023438 18460.839844
v 17352.037109 28516.851562 18504.498047
v 17320.972656 28688.660156 18531.191406
v 17711.226562 28605.244141 18483.490234
v 17785.265625 28906.013672 18549.832031
v 17881.994141 29421.412109 18518.349609
v 17182.484375 29612.423828 18527.173828
v 17935.791016 29997.304688 18676.046875
v 17755.724609 30138.738281 18613.646484
v 17433.283203 28343.902344 18507.904297
v 17441.990234 28448.103516 18539.949219
v 17657.097656 28526.298828 18516.320312
v 17375.083984 28572.593750 18540.082031
v 17413.787109 28605.296875 18569.892578
v 17397.916016 28786.273438 18617.914062
v 17291.341797 28861.619141 18553.472656
v 17244.359375 28901.773438 18484.755859
v 17211.964844 29103.513672 18501.068359
v 17210.185547 29273.341797 18557.548828
v 17881.896484 29251.113281 18520.845703
v 17188.527344 29523.468750 18597.160156
v 17998.402344 29733.472656 18744.644531
v 17962.527344 29929.859375 18642.980469
v 17534.380859 30191.367188 18661.185547
v 17567.228516 30179.521484 18584.066406
v 17503.339844 28432.875000 18552.199219
v 17531.736328 28488.591797 18566.599609
v 17588.970703 28412.710938 18537.498047
v 17467.923828 28606.164062 18584.619141
v 17535.484375 28634.296875 18593.359375
v 17613.044922 28592.148438 18561.351562
v 17491.726562 28740.154297 18626.417969
v 17661.796875 28664.888672 18553.517578
v 17609.361328 28716.132812 18598.052734
v 17342.689453 28777.005859 18578.855469
v 17727.375000 28782.052734 18543.531250
v 17676.291016 28808.765625 18598.261719
v 17309.296875 28986.925781 18627.568359
v 17249.117188 29070.580078 18577.140625
v 17228.585938 29209.658203 18599.748047
v 17848.263672 29130.765625 18599.253906
v 17875.521484 29274.113281 18610.144531
v 17906.648438 29514.330078 18579.390625
v 17160.179688 29811.890625 18591.328125
v 17982.931641 29791.119141 18661.253906
v 17982.503906 29856.445312 18660.904297
v 17797.416016 30090.767578 18480.976562
v 17557.298828 28775.011719 18634.236328
v 17547.960938 28937.699219 18701.388672
v 17446.560547 28797.628906 18639.011719
v 17614.695312 28799.951172 18626.984375
v 17609.408203 28886.523438 18667.484375
v 17358.929688 28895.113281 18636.814453
v 17692.125000 28938.826172 18652.519531
v 17894.087891 29421.839844 18623.093750
v 17195.787109 29524.367188 18683.066406
v 17954.621094 29664.679688 18629.312500
v 17163.583984 29740.287109 18604.962891
v 17156.865234 29786.955078 18694.490234
v 17155.250000 29924.886719 18750.716797
v 17176.593750 29948.351562 18614.939453
v 17879.927734 30037.400391 18567.322266
v 17733.011719 30174.925781 18762.472656
v 17368.474609 30170.228516 18699.775391
v 17442.482422 30194.087891 18715.189453
v 17508.978516 28843.441406 18663.791016
v 17397.349609 28899.300781 18661.033203
v 17259.808594 29182.988281 18651.882812
v 17310.197266 29132.826172 18696.121094
v 17800.769531 29095.222656 18645.582031
v 17220.298828 29308.953125 18642.289062
v 17851.371094 29230.150391 18653.884766
v 17865.865234 29309.828125 18675.222656
v 17886.316406 29356.630859 18588.421875
v 17216.332031 29481.863281 18741.533203
v 17934.037109 29572.130859 18654.933594
v 18026.187500 29802.144531 18802.193359
v 17177.101562 30033.468750 18831.517578
v 17846.160156 30104.222656 18729.279297
v 17298.718750 30121.363281 18638.630859
v 17639.228516 30172.128906 18574.453125
v 17491.755859 28975.734375 18718.935547
v 17447.550781 28974.867188 18711.439453
v 17361.197266 29106.533203 18730.160156
v 17727.888672 29083.083984 18707.244141
v 17764.617188 29044.507812 18652.501953
v 17892.363281 29427.658203 18727.945312
v 17183.554688 29660.785156 18772.322266
v 17176.910156 29633.089844 18666.843750
v 17995.853516 29965.955078 18809.820312
v 17217.755859 30097.400391 18809.218750
v 17583.152344 30216.148438 18784.171875
v 17544.111328 29071.181641 18767.527344
v 17606.035156 29048.113281 18745.761719
v 17340.705078 29274.185547 18806.380859
v 17264.716797 29300.470703 18729.259766
v 17975.892578 29637.873047 18759.099609
v 18047.164062 29859.335938 18868.650391
v 17886.662109 30066.123047 18708.873047
v 17225.892578 30072.019531 18694.183594
v 17315.818359 30162.115234 18746.123047
v 17407.232422 29083.496094 18746.724609
v 17466.351562 29125.974609 18789.199219
v 17641.013672 29178.691406 18811.753906
v 17412.966797 29213.595703 18820.492188
v 17797.648438 29198.025391 18719.740234
v 17297.242188 29329.523438 18791.955078
v 17843.888672 29322.910156 18752.886719
v 17870.578125 29385.347656 18759.826172
v 17902.539062 29465.869141 18827.304688
v 17920.371094 29502.033203 18720.189453
v 18002.421875 29912.812500 18768.691406
v 17966.064453 30006.681641 18794.529297
v 17262.123047 30145.937500 18804.970703
v 17422.490234 30231.476562 18842.994141
v 17511.630859 30221.261719 18792.689453
v 17655.066406 30195.304688 18740.527344
v 17670.455078 29065.039062 18729.826172
v 17807.429688 29275.304688 18770.777344
v 17242.558594 29457.226562 18794.242188
v 17968.164062 29585.808594 18819.214844
v 17207.392578 29669.066406 18903.234375
v 18060.998047 29741.468750 18919.617188
v 17292.042969 30209.968750 18894.406250
v 17344.751953 30210.472656 18839.394531
v 17593.468750 30235.611328 18873.832031
v 17530.753906 29176.007812 18827.968750
v 17587.208984 29165.875000 18816.605469
v 17726.238281 29222.716797 18805.636719
v 17746.478516 29344.304688 18910.265625
v 17851.664062 29396.486328 18844.402344
v 17961.003906 29550.458984 18940.859375
v 18005.791016 29613.875000 18925.798828
v 18019.957031 29671.498047 18872.378906
v 17901.601562 30114.091797 18915.574219
v 17812.046875 30136.578125 18767.707031
v 17702.140625 30218.816406 18914.667969
v 17592.675781 30269.529297 18985.566406
v 17484.128906 29243.525391 18866.476562
v 17355.136719 29366.177734 18881.150391
v 17283.804688 29450.863281 18860.933594
v 17887.353516 29462.880859 18915.974609
v 17952.843750 29548.482422 18860.785156
v 17251.101562 29593.656250 18942.574219
v 17174.126953 29741.845703 18838.105469
v 18045.279297 29929.949219 18906.960938
v 17968.437500 30055.205078 18918.183594
v 17183.835938 30082.927734 18898.945312
v 17348.794922 30254.406250 18938.074219
v 17499.048828 30269.587891 18947.863281
v 17544.351562 30306.125000 19057.197266
v 17571.601562 29329.312500 18943.451172
v 17418.287109 29324.851562 18897.007812
v 17648.644531 29288.482422 18898.492188
v 17802.876953 29357.849609 18872.767578
v 17342.980469 29478.343750 18965.792969
v 17832.132812 29421.658203 18940.062500
v 18066.568359 29803.822266 18913.068359
v 17151.597656 29967.490234 18877.890625
v 17435.166016 30270.570312 18946.255859
v 17509.021484 29354.906250 18958.019531
v 17453.826172 29371.568359 18951.556641
v 17927.515625 29514.703125 19002.962891
v 17294.718750 29540.025391 18966.734375
v 17240.771484 29667.056641 19024.044922
v 18105.443359 29902.873047 19037.093750
v 18034.931641 29988.443359 18948.697266
v 17411.458984 29454.980469 19003.986328
v 17872.648438 29481.910156 19038.949219
v 18021.263672 29593.830078 19076.464844
v 17160.724609 29790.542969 18806.548828
v 17149.734375 29876.865234 18843.392578
v 18113.695312 29951.232422 19097.652344
v 17412.136719 30320.726562 19047.800781
v 17476.244141 30313.513672 19047.763672
v 17654.283203 29399.724609 19012.859375
v 17689.355469 29359.714844 18957.460938
v 17787.921875 29419.458984 18992.417969
v 18043.095703 29626.984375 19029.792969
v 17300.910156 29604.349609 19064.234375
v 17194.451172 29767.574219 19044.490234
v 18144.746094 29802.337891 19094.910156
v 18094.556641 29843.044922 18983.490234
v 17154.310547 30116.144531 19072.732422
v 17219.765625 30182.968750 18961.800781
v 17781.744141 30178.621094 18883.978516
v 17243.910156 30236.214844 19001.966797
v 17297.208984 30284.625000 19022.162109
v 17356.025391 30302.701172 19023.095703
v 17492.804688 29442.277344 19038.386719
v 17951.835938 29540.625000 19106.986328
v 17840.902344 30151.248047 18899.216797
v 17441.253906 30395.541016 19181.347656
v 17576.800781 29412.289062 19029.011719
v 17746.966797 29438.138672 19050.767578
v 17452.218750 29499.042969 19083.126953
v 18108.105469 29709.064453 19059.669922
v 17275.550781 29675.291016 19137.007812
v 18131.734375 29762.335938 19076.234375
v 17152.089844 29900.437500 19013.289062
v 17150.832031 30028.025391 18990.998047
v 17189.923828 30178.919922 19029.146484
v 17258.603516 30313.820312 19085.619141
v 17349.345703 30378.259766 19135.597656
v 17743.150391 29483.884766 19140.523438
v 18115.490234 29648.603516 19247.880859
v 17383.484375 29538.941406 19076.941406
v 17174.250000 29794.585938 18970.058594
v 17159.341797 29883.853516 19111.443359
v 18069.988281 30012.304688 19085.865234
v 17164.150391 30179.160156 19098.488281
v 17650.417969 30313.615234 19151.082031
v 17390.156250 29613.703125 19205.949219
v 18109.054688 29661.634766 19156.976562
v 17233.310547 29715.023438 19100.703125
v 18203.576172 29839.818359 19232.310547
v 18043.900391 30090.115234 19202.132812
v 17954.804688 30151.917969 19148.716797
v 17137.142578 30110.763672 19144.062500
v 17893.113281 30186.160156 19119.015625
v 17712.054688 30254.023438 19046.232422
v 17833.642578 30228.703125 19139.390625
v 17160.742188 30264.595703 19163.791016
v 17189.263672 30269.742188 19119.804688
v 17220.978516 30294.257812 19099.771484
v 17298.792969 30395.218750 19161.421875
v 17640.925781 29486.847656 19145.888672
v 17804.255859 29495.898438 19152.794922
v 17861.058594 29499.257812 19121.601562
v 17553.638672 29522.373047 19174.593750
v 17532.929688 29480.980469 19105.613281
v 17451.750000 29558.632812 19169.269531
v 18189.232422 29727.718750 19234.490234
v 17327.988281 29647.873047 19185.861328
v 17205.283203 29780.066406 19152.324219
v 17146.695312 29965.859375 19018.763672
v 17135.177734 30317.673828 19236.105469
v 17179.632812 30393.455078 19213.693359
v 17131.126953 30436.212891 19287.367188
v 17249.234375 30394.521484 19173.423828
v 17670.111328 29536.611328 19245.884766
v 17949.345703 29553.595703 19242.011719
v 17171.599609 30485.484375 19287.677734
v 17223.236328 30483.437500 19269.621094
v 17313.751953 30471.505859 19254.082031
v 18026.220703 29589.125000 19267.730469
v 18023.150391 29587.669922 19161.091797
v 18206.677734 29712.734375 19332.443359
v 17233.892578 29781.324219 19283.996094
v 18195.195312 29773.376953 19216.357422
v 18242.888672 29783.558594 19337.736328
v 18185.773438 29927.404297 19247.576172
v 17118.884766 30147.654297 19237.777344
v 17127.433594 30229.429688 19226.021484
v 17098.076172 30410.978516 19330.056641
v 17095.431641 30501.103516 19384.279297
v 17188.521484 30571.697266 19379.654297
v 17889.935547 29541.273438 19270.457031
v 17739.419922 29526.511719 19239.341797
v 17159.195312 29911.710938 19268.917969
v 17123.730469 30065.187500 19235.261719
v 17669.400391 30375.195312 19306.121094
v 17535.015625 30367.994141 19182.878906
v 17144.201172 29949.972656 19140.253906
v 17780.001953 30291.187500 19235.294922
v 17402.839844 30470.648438 19278.796875
v 17314.734375 30527.298828 19327.835938
v 17787.417969 29566.962891 19356.498047
v 18116.355469 29641.908203 19341.136719
v 17428.287109 29677.914062 19394.941406
v 17352.468750 29687.621094 19315.869141
v 17198.773438 29851.560547 19317.070312
v 18231.117188 29914.964844 19373.607422
v 17497.136719 30458.921875 19321.658203
v 17070.681641 30425.308594 19403.294922
v 17077.291016 30536.710938 19500.212891
v 17439.394531 30523.056641 19397.560547
v 17208.562500 30610.640625 19456.351562
v 17557.478516 29565.880859 19256.900391
v 17279.574219 29767.125000 19363.570312
v 17138.822266 29992.789062 19314.939453
v 18144.574219 29996.593750 19260.761719
v 18013.320312 30130.312500 19228.437500
v 17327.166016 30584.230469 19460.984375
v 17187.082031 30638.248047 19526.794922
v 18162.416016 29673.156250 19413.406250
v 17459.373047 29630.076172 19316.548828
v 18266.478516 29854.082031 19441.789062
v 17094.599609 30259.064453 19343.699219
v 18078.550781 30100.445312 19322.695312
v 17975.867188 30209.228516 19346.843750
v 18072.349609 29620.509766 19418.294922
v 17225.019531 29871.433594 19460.023438
v 17114.375000 30577.281250 19444.664062
v 17879.919922 29573.013672 19384.945312
v 17337.173828 29747.625000 19428.210938
v 18272.093750 29804.556641 19481.041016
v 17191.347656 29951.091797 19490.970703
v 18225.162109 29962.767578 19456.675781
v 17112.414062 30127.150391 19361.605469
v 18156.371094 30035.820312 19400.480469
v 17062.046875 30357.851562 19473.970703
v 17919.888672 30237.802734 19311.230469
v 17578.078125 30474.548828 19426.611328
v 17437.101562 30556.107422 19486.570312
v 17837.650391 29625.080078 19507.384766
v 18264.582031 29772.230469 19464.277344
v 17159.222656 29981.263672 19414.738281
v 18037.847656 30170.101562 19401.126953
v 17055.783203 30473.626953 19508.980469
v 17788.416016 30361.103516 19427.320312
v 17980.728516 29594.119141 19429.644531
v 18054.693359 29629.748047 19473.533203
v 18223.501953 29720.859375 19422.154297
v 17133.154297 30105.671875 19472.466797
v 17083.189453 30286.285156 19415.412109
v 17941.310547 30258.781250 19423.958984
v 17682.021484 30435.437500 19460.824219
v 17361.583984 30598.099609 19608.345703
v 17944.941406 29623.550781 19512.550781
v 17734.835938 29617.646484 19459.447266
v 18104.062500 29648.472656 19471.496094
v 17430.074219 29739.015625 19520.304688
v 17291.509766 29811.957031 19497.960938
v 18173.812500 30036.410156 19509.660156
v 18099.175781 30140.144531 19567.851562
v 18085.099609 30140.109375 19462.589844
v 17115.476562 30141.896484 19438.714844
v 17999.572266 30234.244141 19504.283203
v 17783.919922 30388.111328 19514.509766
v 17850.859375 30347.126953 19547.203125
v 17561.832031 29672.947266 19490.398438
v 17696.781250 29683.527344 19567.500000
v 17254.935547 29913.152344 19564.349609
v 17183.974609 30079.939453 19578.960938
v 17147.574219 30140.523438 19549.310547
v 17100.804688 30273.542969 19541.050781
v 17693.226562 30456.644531 19580.066406
v 17571.080078 30512.068359 19535.031250
v 18145.984375 29714.347656 19609.308594
v 17589.900391 29740.525391 19604.693359
v 18203.191406 29712.123047 19515.679688
v 17357.560547 29813.660156 19563.482422
v 18234.968750 29903.242188 19590.992188
v 18247.707031 29910.179688 19523.595703
v 17950.242188 30274.468750 19595.701172
v 17845.580078 30355.910156 19651.224609
v 17115.277344 30582.144531 19560.621094
v 17443.093750 30572.443359 19567.787109
v 17825.845703 29671.187500 19579.845703
v 17499.380859 29747.890625 19579.197266
v 18211.078125 29766.144531 19584.505859
v 17377.437500 29868.982422 19633.927734
v 17291.634766 29979.255859 19643.087891
v 17213.781250 30098.332031 19632.708984
v 17166.968750 30273.818359 19676.841797
v 17993.042969 30236.849609 19630.933594
v 17634.457031 30485.781250 19632.740234
v 17499.201172 30551.382812 19640.792969
v 17202.673828 30636.927734 19572.328125
v 17965.234375 29660.398438 19574.123047
v 18072.048828 29683.394531 19597.792969
v 18152.720703 29790.640625 19665.865234
v 17584.835938 29806.195312 19660.148438
v 18222.925781 29842.783203 19607.755859
v 17429.023438 29863.843750 19656.578125
v 17306.187500 30086.791016 19708.890625
v 18127.693359 30102.220703 19611.697266
v 17236.824219 30151.560547 19687.910156
v 17132.800781 30311.341797 19638.019531
v 17078.402344 30422.445312 19579.566406
v 17101.916016 30542.710938 19613.105469
v 18077.648438 29717.078125 19644.140625
v 17785.203125 29730.429688 19642.095703
v 17866.230469 29717.929688 19639.369141
v 17697.769531 29807.080078 19690.972656
v 18169.683594 30022.896484 19638.708984
v 17383.402344 29981.755859 19701.548828
v 18042.064453 30160.585938 19709.001953
v 18019.056641 30206.261719 19675.589844
v 17560.613281 30506.875000 19729.015625
v 17974.179688 29717.906250 19647.998047
v 18013.875000 29796.828125 19713.013672
v 18088.210938 29791.607422 19697.648438
v 18157.779297 29868.130859 19696.376953
v 17675.263672 29956.744141 19773.595703
v 18182.650391 29942.976562 19658.599609
v 17547.552734 29913.339844 19726.167969
v 18109.658203 30057.382812 19703.029297
v 17407.687500 30101.347656 19769.871094
v 17256.966797 30297.126953 19776.267578
v 17921.833984 30285.164062 19706.632812
v 17865.564453 30321.095703 19746.423828
v 17811.970703 30377.980469 19684.345703
v 17150.421875 30495.585938 19697.642578
v 17467.390625 30550.824219 19727.337891
v 17163.892578 30577.640625 19679.369141
v 17885.800781 29784.851562 19700.343750
v 18071.728516 29843.833984 19739.923828
v 18128.275391 29961.816406 19716.066406
v 17924.746094 30184.765625 19789.765625
v 18017.572266 30162.638672 19734.750000
v 17145.642578 30412.703125 19685.996094
v 17661.146484 30454.818359 19738.455078
v 17346.015625 30584.236328 19723.724609
v 17958.363281 29880.562500 19766.074219
v 17839.818359 29881.605469 19757.880859
v 18043.146484 29950.544922 19767.171875
v 17511.632812 30163.886719 19834.851562
v 18078.859375 30029.423828 19740.679688
v 17829.841797 30295.115234 19804.300781
v 17206.250000 30355.925781 19745.455078
v 17267.296875 30575.808594 19731.753906
v 17976.527344 29939.929688 19786.335938
v 17807.041016 30002.763672 19807.224609
v 17708.529297 30101.240234 19835.111328
v 17930.390625 30089.738281 19805.042969
v 17844.226562 30083.113281 19828.798828
v 17315.949219 30265.298828 19801.062500
v 17238.060547 30383.667969 19776.490234
v 17196.972656 30525.210938 19747.447266
v 17532.539062 30475.041016 19816.060547
v 17272.458984 30529.289062 19791.234375
v 17786.728516 30210.482422 19847.011719
v 17753.773438 30273.359375 19843.912109
v 17797.841797 30343.546875 19785.369141
v 17597.054688 30465.191406 19788.177734
v 17395.246094 30535.552734 19796.509766
v 17591.755859 30184.671875 19854.669922
v 17681.187500 30236.968750 19867.113281
v 17313.375000 30418.193359 19834.902344
v 17453.513672 30508.625000 19814.732422
v 17583.394531 30315.984375 19892.468750
v 17529.884766 30307.503906 19888.675781
v 17389.337891 30313.964844 19853.009766
v 17450.042969 30358.474609 19887.400391
v 17614.957031 30384.423828 19857.181641
v 17425.054688 30466.755859 19850.947266
v 17403.289062 30416.234375 19871.544922
v 17511.851562 30400.718750 19878.589844
# 733 vertices, 0 vertices normals

f 4 5 1
f 1 2 8
f 5 2 1
f 13 3 8
f 3 4 1
f 3 1 8
f 6 13 8
f 9 8 2
f 9 2 11
f 5 11 2
f 12 3 13
f 14 4 3
f 14 7 4
f 7 5 4
f 15 8 9
f 19 5 7
f 10 5 19
f 11 5 10
f 17 3 16
f 16 3 12
f 17 14 3
f 6 45 13
f 8 15 6
f 11 36 9
f 21 12 13
f 18 7 14
f 18 22 7
f 15 125 6
f 23 7 22
f 9 24 15
f 36 24 9
f 10 19 35
f 10 36 11
f 27 30 31
f 20 51 16
f 12 20 16
f 12 21 20
f 13 33 21
f 45 33 13
f 18 14 17
f 15 34 125
f 19 7 23
f 47 35 19
f 25 30 27
f 27 28 26
f 41 30 25
f 26 28 29
f 27 31 28
f 30 41 37
f 30 37 32
f 29 28 38
f 28 31 38
f 43 30 32
f 30 43 31
f 68 18 17
f 39 22 18
f 24 34 15
f 54 36 10
f 25 27 40
f 40 27 26
f 32 37 42
f 31 43 44
f 38 31 44
f 21 33 52
f 68 39 18
f 6 70 45
f 79 22 39
f 46 22 79
f 46 23 22
f 19 23 96
f 96 81 19
f 81 47 19
f 24 36 72
f 56 41 25
f 57 26 48
f 48 26 29
f 58 37 41
f 48 29 59
f 59 38 60
f 59 29 38
f 32 42 49
f 65 38 44
f 32 49 50
f 50 43 32
f 16 51 17
f 39 68 94
f 70 6 125
f 96 23 46
f 24 53 34
f 35 54 10
f 36 54 55
f 36 55 72
f 54 128 55
f 56 58 41
f 58 87 37
f 37 87 42
f 65 60 38
f 49 42 64
f 44 43 50
f 52 20 21
f 45 92 33
f 24 82 53
f 81 71 47
f 47 98 35
f 73 25 40
f 56 25 104
f 26 57 40
f 56 74 58
f 74 75 58
f 63 48 59
f 64 42 134
f 64 61 49
f 61 50 49
f 89 44 50
f 65 44 89
f 51 91 17
f 52 62 20
f 68 17 67
f 39 94 69
f 39 69 79
f 34 53 125
f 71 98 47
f 35 98 54
f 104 25 73
f 107 58 75
f 87 58 107
f 48 63 86
f 60 76 59
f 88 134 42
f 60 65 66
f 66 65 89
f 50 111 89
f 17 91 67
f 78 20 62
f 92 52 33
f 125 53 144
f 81 166 71
f 72 82 24
f 98 128 54
f 73 40 84
f 57 84 40
f 57 105 85
f 48 105 57
f 87 88 42
f 132 63 59
f 109 59 76
f 77 60 66
f 76 60 77
f 111 50 61
f 51 90 91
f 90 51 20
f 78 90 20
f 78 62 121
f 52 92 62
f 68 124 94
f 79 126 46
f 53 80 95
f 53 82 80
f 71 97 98
f 55 100 72
f 101 84 85
f 83 73 84
f 104 73 83
f 103 106 56
f 103 56 104
f 57 85 84
f 56 106 74
f 74 150 75
f 86 105 48
f 150 107 75
f 132 86 63
f 132 59 109
f 110 76 77
f 66 114 77
f 111 61 136
f 114 66 112
f 111 113 89
f 89 113 112
f 89 112 66
f 90 78 120
f 120 78 121
f 92 122 62
f 93 68 67
f 93 124 68
f 143 92 45
f 45 70 143
f 164 79 69
f 81 96 145
f 81 145 166
f 146 82 72
f 80 82 146
f 166 181 71
f 181 97 71
f 146 72 100
f 55 99 100
f 83 129 147
f 129 101 102
f 129 83 84
f 101 129 84
f 103 104 171
f 171 104 83
f 85 130 101
f 101 130 102
f 85 105 130
f 105 86 131
f 131 86 152
f 194 87 107
f 108 152 86
f 87 156 88
f 87 184 156
f 88 156 134
f 76 135 109
f 110 135 76
f 61 64 136
f 77 114 139
f 77 139 110
f 112 113 115
f 112 115 114
f 111 138 113
f 114 115 116
f 139 114 116
f 138 117 118
f 138 118 113
f 113 118 119
f 113 119 115
f 119 121 115
f 115 121 116
f 117 120 118
f 118 120 119
f 67 90 117
f 117 90 120
f 121 119 120
f 116 121 122
f 67 91 90
f 121 62 122
f 162 93 67
f 92 123 122
f 92 142 123
f 143 142 92
f 124 188 94
f 143 70 179
f 70 125 179
f 188 69 94
f 164 126 79
f 165 126 164
f 126 165 180
f 126 127 46
f 126 180 127
f 46 127 96
f 127 145 96
f 98 192 128
f 128 99 55
f 147 129 168
f 169 129 102
f 171 83 147
f 149 102 130
f 171 148 103
f 106 103 148
f 74 106 173
f 105 131 130
f 154 108 86
f 132 154 86
f 109 133 132
f 155 132 133
f 109 135 133
f 64 134 136
f 135 110 160
f 111 136 137
f 160 110 139
f 137 138 111
f 137 117 138
f 116 159 139
f 116 122 159
f 162 67 117
f 140 162 117
f 123 159 122
f 123 142 163
f 141 188 124
f 93 141 124
f 164 69 188
f 53 201 144
f 95 201 53
f 97 192 98
f 192 214 128
f 214 99 128
f 129 169 168
f 172 169 102
f 106 148 173
f 173 150 74
f 130 151 149
f 131 151 130
f 131 152 151
f 108 153 152
f 108 154 153
f 134 156 158
f 134 158 186
f 134 186 136
f 136 186 137
f 140 117 137
f 139 159 160
f 160 159 161
f 162 140 141
f 162 141 93
f 123 161 159
f 123 163 161
f 142 143 163
f 143 179 200
f 125 190 179
f 190 125 144
f 146 167 80
f 205 146 100
f 214 226 99
f 171 147 182
f 172 170 169
f 171 182 148
f 102 149 172
f 174 173 148
f 174 150 173
f 152 175 151
f 152 153 175
f 176 153 177
f 153 154 177
f 194 184 87
f 155 154 132
f 133 157 155
f 156 184 209
f 135 196 133
f 160 161 135
f 186 178 137
f 178 140 137
f 199 140 178
f 199 141 140
f 141 199 188
f 163 143 200
f 189 164 188
f 191 164 189
f 191 165 164
f 144 201 235
f 213 95 80
f 166 145 204
f 166 204 225
f 225 181 166
f 213 80 167
f 205 167 146
f 227 147 168
f 215 172 149
f 174 148 193
f 183 150 174
f 151 215 149
f 151 175 215
f 183 107 150
f 153 176 175
f 194 107 183
f 217 184 194
f 157 185 155
f 158 156 209
f 133 196 157
f 158 178 186
f 197 135 161
f 197 196 135
f 198 199 178
f 163 200 187
f 190 200 179
f 202 180 165
f 127 204 145
f 99 205 100
f 99 226 206
f 147 227 228
f 182 147 228
f 182 193 148
f 248 172 215
f 174 230 183
f 154 219 177
f 195 219 154
f 154 208 195
f 155 208 154
f 155 185 208
f 157 196 185
f 158 211 178
f 161 212 197
f 234 199 198
f 161 163 187
f 200 222 187
f 144 235 190
f 223 165 191
f 95 245 201
f 202 165 223
f 180 203 127
f 127 203 204
f 95 213 236
f 206 205 99
f 246 227 168
f 170 168 169
f 230 216 183
f 176 207 175
f 231 194 183
f 176 177 218
f 231 217 194
f 177 219 218
f 264 184 217
f 184 264 220
f 220 209 184
f 158 209 233
f 210 221 185
f 185 221 208
f 196 210 185
f 197 210 196
f 187 212 161
f 234 188 199
f 234 189 188
f 200 190 222
f 201 245 235
f 237 203 180
f 202 237 180
f 246 168 170
f 182 228 229
f 229 193 182
f 170 172 248
f 229 174 193
f 241 174 229
f 241 230 174
f 215 175 251
f 207 251 175
f 207 176 242
f 231 183 216
f 218 242 176
f 220 233 209
f 158 233 211
f 212 210 197
f 211 198 178
f 234 198 211
f 235 244 190
f 245 95 236
f 203 224 204
f 225 204 224
f 214 192 278
f 246 239 227
f 240 170 248
f 250 216 230
f 242 251 207
f 195 254 219
f 221 195 208
f 221 254 195
f 220 232 233
f 285 256 210
f 212 285 210
f 257 285 212
f 211 233 234
f 187 257 212
f 222 190 244
f 267 191 189
f 213 167 355
f 355 167 340
f 181 277 97
f 97 277 192
f 288 340 205
f 167 205 340
f 205 206 288
f 214 238 226
f 206 226 238
f 239 228 227
f 247 229 228
f 260 229 247
f 241 229 260
f 230 241 249
f 250 230 249
f 274 231 216
f 218 219 252
f 263 264 217
f 264 265 220
f 265 232 220
f 210 256 221
f 222 257 187
f 243 189 234
f 189 243 267
f 267 337 223
f 191 267 223
f 355 340 392
f 192 277 278
f 278 259 214
f 214 259 238
f 240 246 170
f 228 239 271
f 247 228 271
f 260 249 241
f 215 251 248
f 242 297 251
f 262 216 250
f 273 242 218
f 273 218 252
f 231 263 217
f 219 253 252
f 219 254 253
f 255 254 221
f 256 255 221
f 243 234 233
f 244 336 222
f 244 235 286
f 245 286 235
f 245 258 287
f 236 258 245
f 268 202 223
f 354 202 268
f 202 354 237
f 269 203 237
f 236 213 355
f 246 270 239
f 271 239 270
f 240 270 246
f 261 249 260
f 260 294 261
f 281 248 251
f 249 261 250
f 297 281 251
f 261 282 250
f 262 274 216
f 274 263 231
f 311 263 274
f 311 264 263
f 276 232 265
f 232 243 233
f 222 266 257
f 300 351 267
f 351 337 267
f 268 223 337
f 269 237 354
f 224 203 269
f 236 355 301
f 225 289 181
f 181 289 277
f 278 318 259
f 318 374 259
f 259 374 238
f 279 247 271
f 248 280 240
f 294 247 279
f 294 260 247
f 248 281 280
f 242 272 297
f 282 262 250
f 262 310 274
f 252 283 273
f 253 283 252
f 254 255 253
f 284 264 311
f 264 284 265
f 275 265 284
f 275 276 265
f 256 313 255
f 276 243 232
f 336 266 222
f 276 267 243
f 350 336 244
f 287 286 245
f 236 301 258
f 224 373 225
f 225 373 289
f 271 270 292
f 270 240 291
f 271 292 279
f 280 293 240
f 261 294 295
f 282 261 296
f 273 272 242
f 310 311 274
f 298 273 283
f 285 313 256
f 275 267 276
f 300 267 275
f 244 286 350
f 290 277 289
f 290 278 277
f 238 302 206
f 288 206 302
f 292 270 291
f 240 293 291
f 305 280 281
f 296 261 295
f 295 306 296
f 305 281 297
f 298 272 273
f 283 253 334
f 255 334 253
f 312 284 311
f 312 275 284
f 313 335 255
f 314 275 312
f 266 299 257
f 299 285 257
f 286 315 350
f 258 316 287
f 353 268 337
f 353 354 268
f 302 340 288
f 373 357 289
f 357 290 289
f 318 278 317
f 374 302 238
f 318 410 374
f 292 319 303
f 292 291 319
f 303 279 292
f 319 291 321
f 293 321 291
f 303 294 279
f 280 321 293
f 303 306 294
f 303 304 306
f 324 321 305
f 280 305 321
f 306 295 294
f 306 304 307
f 306 307 308
f 326 324 305
f 297 326 305
f 306 328 296
f 306 308 328
f 297 329 326
f 298 329 272
f 272 329 297
f 309 262 282
f 296 309 282
f 309 296 328
f 309 310 262
f 309 332 310
f 335 365 255
f 255 365 334
f 285 367 313
f 299 367 285
f 349 314 312
f 314 300 275
f 351 300 314
f 315 286 338
f 287 338 286
f 287 339 338
f 316 339 287
f 258 301 316
f 393 224 269
f 317 278 290
f 385 318 317
f 319 304 303
f 320 319 321
f 323 320 321
f 322 304 319
f 307 304 322
f 322 319 320
f 307 322 343
f 343 308 307
f 323 322 320
f 324 323 321
f 343 322 325
f 325 322 323
f 327 323 324
f 327 324 326
f 346 328 308
f 329 330 326
f 331 332 309
f 309 328 331
f 379 329 298
f 298 363 379
f 332 311 310
f 283 363 298
f 333 311 332
f 363 283 334
f 333 312 311
f 364 312 333
f 364 349 312
f 299 348 367
f 266 336 299
f 371 269 354
f 357 358 290
f 358 317 290
f 358 409 317
f 323 341 325
f 359 325 341
f 327 341 323
f 343 325 359
f 344 341 327
f 342 359 341
f 345 341 344
f 342 341 345
f 308 360 346
f 360 308 343
f 330 327 326
f 330 344 327
f 345 344 330
f 330 347 345
f 329 347 330
f 346 331 328
f 379 347 329
f 361 333 332
f 335 366 365
f 313 367 335
f 299 336 348
f 336 404 348
f 369 404 336
f 314 382 351
f 350 369 336
f 352 337 351
f 353 337 352
f 316 405 339
f 393 269 371
f 302 372 340
f 392 340 372
f 356 302 374
f 409 385 317
f 385 410 318
f 343 376 360
f 359 376 343
f 359 375 376
f 375 359 342
f 360 377 346
f 346 377 331
f 379 378 347
f 331 361 332
f 331 377 362
f 331 362 361
f 363 334 399
f 361 364 333
f 399 334 365
f 364 361 389
f 367 366 335
f 349 364 368
f 382 314 349
f 352 351 382
f 315 338 370
f 370 338 391
f 339 391 338
f 405 391 339
f 353 371 354
f 429 372 302
f 393 373 224
f 429 302 356
f 357 373 394
f 342 386 375
f 360 376 395
f 347 411 345
f 378 411 347
f 360 395 377
f 388 362 377
f 389 361 362
f 399 379 363
f 399 365 412
f 365 366 401
f 367 380 366
f 348 380 367
f 381 382 349
f 404 369 390
f 350 315 390
f 464 352 382
f 316 383 405
f 383 316 301
f 355 392 301
f 371 384 393
f 410 356 374
f 357 408 358
f 408 409 358
f 376 375 396
f 387 342 345
f 387 386 342
f 396 375 386
f 345 411 387
f 395 376 396
f 387 411 397
f 377 395 398
f 398 388 377
f 388 389 362
f 379 399 378
f 401 412 365
f 413 364 389
f 401 366 402
f 366 380 402
f 368 364 413
f 404 380 348
f 368 381 349
f 350 390 369
f 464 382 381
f 301 406 383
f 301 392 406
f 373 393 407
f 373 407 394
f 394 418 357
f 418 408 357
f 409 419 385
f 386 420 396
f 395 396 398
f 422 411 378
f 399 422 378
f 400 389 388
f 400 413 389
f 380 403 402
f 390 414 404
f 415 368 413
f 315 427 390
f 465 352 464
f 465 353 352
f 452 371 353
f 407 393 384
f 407 417 394
f 408 443 409
f 409 443 431
f 409 431 419
f 421 386 387
f 420 386 421
f 432 396 420
f 421 387 397
f 411 422 397
f 422 399 412
f 401 424 412
f 434 413 400
f 380 404 403
f 404 436 403
f 390 427 414
f 415 381 368
f 416 427 315
f 370 416 315
f 451 370 391
f 405 383 439
f 440 406 392
f 371 452 441
f 371 441 384
f 394 417 418
f 385 419 430
f 430 410 385
f 453 443 408
f 398 396 432
f 432 420 445
f 445 420 447
f 447 420 421
f 412 423 422
f 448 423 412
f 388 398 433
f 424 401 402
f 402 403 424
f 424 403 435
f 403 436 425
f 437 413 434
f 404 414 436
f 415 413 437
f 427 426 414
f 465 452 353
f 405 439 391
f 459 391 439
f 428 392 372
f 440 392 428
f 384 441 478
f 384 478 407
f 356 410 430
f 417 442 418
f 418 442 408
f 442 453 408
f 421 397 447
f 397 422 447
f 432 446 398
f 447 422 423
f 446 433 398
f 412 424 448
f 433 400 388
f 433 434 400
f 403 425 435
f 414 426 436
f 427 490 426
f 381 438 464
f 381 415 438
f 451 416 370
f 391 476 451
f 459 476 391
f 383 460 439
f 406 460 383
f 485 372 429
f 429 356 479
f 485 429 479
f 453 468 443
f 443 468 444
f 443 444 431
f 445 454 432
f 432 455 446
f 432 454 455
f 450 423 448
f 450 448 424
f 433 461 449
f 435 450 424
f 449 457 434
f 449 434 433
f 435 425 456
f 457 437 434
f 436 426 425
f 426 472 425
f 426 490 472
f 427 416 490
f 494 441 452
f 460 406 440
f 495 478 441
f 356 430 479
f 467 468 453
f 487 454 445
f 470 447 423
f 450 471 423
f 461 433 446
f 456 450 435
f 458 415 437
f 501 464 438
f 415 501 438
f 416 492 490
f 451 492 416
f 476 475 451
f 529 452 465
f 477 441 494
f 477 495 441
f 485 428 372
f 407 478 480
f 407 480 417
f 431 514 419
f 430 419 514
f 444 505 431
f 447 469 445
f 470 469 447
f 487 445 469
f 471 470 423
f 446 455 461
f 471 450 462
f 462 450 456
f 463 484 456
f 463 456 425
f 472 463 425
f 473 437 457
f 458 437 473
f 458 474 415
f 474 501 415
f 451 475 492
f 439 466 459
f 460 466 439
f 480 481 417
f 481 442 417
f 481 482 442
f 442 482 453
f 467 453 482
f 468 556 444
f 483 455 454
f 487 483 454
f 488 470 471
f 461 455 483
f 484 462 456
f 494 452 529
f 503 466 460
f 444 556 505
f 431 505 514
f 467 486 468
f 488 469 470
f 462 522 471
f 462 484 522
f 461 500 449
f 473 457 449
f 458 473 491
f 458 491 508
f 474 458 508
f 464 493 465
f 464 501 493
f 493 529 465
f 440 503 460
f 428 511 440
f 495 477 504
f 481 497 482
f 497 467 482
f 486 467 497
f 486 556 468
f 522 488 471
f 489 461 483
f 489 500 461
f 540 484 463
f 473 449 500
f 474 508 528
f 509 475 476
f 502 493 501
f 515 479 430
f 479 515 485
f 495 504 517
f 517 518 495
f 518 496 480
f 495 518 480
f 478 495 480
f 496 481 480
f 481 496 519
f 481 519 497
f 488 498 469
f 469 498 520
f 521 498 488
f 524 489 483
f 524 483 487
f 524 487 520
f 520 487 469
f 535 522 484
f 540 463 499
f 507 499 463
f 507 463 472
f 527 473 500
f 492 526 490
f 492 543 526
f 493 502 557
f 557 529 493
f 512 477 494
f 510 503 440
f 440 511 510
f 511 428 513
f 512 504 477
f 485 513 428
f 516 517 504
f 514 515 430
f 488 522 521
f 500 525 506
f 525 500 489
f 527 500 506
f 490 507 472
f 491 473 527
f 475 543 492
f 501 474 502
f 509 543 475
f 476 459 509
f 459 545 509
f 466 545 459
f 529 512 494
f 547 504 512
f 485 515 513
f 547 516 504
f 517 516 531
f 531 518 517
f 518 533 496
f 518 531 533
f 533 519 496
f 497 519 538
f 520 523 524
f 539 484 540
f 539 535 484
f 525 580 506
f 525 489 524
f 507 490 526
f 508 491 542
f 529 557 554
f 503 545 466
f 512 529 554
f 576 510 511
f 530 516 547
f 505 558 514
f 516 530 531
f 531 530 532
f 486 497 538
f 531 536 533
f 537 519 533
f 538 519 537
f 538 559 486
f 533 536 537
f 521 551 498
f 552 520 498
f 552 498 551
f 524 523 525
f 523 520 534
f 506 564 527
f 542 528 508
f 528 553 474
f 553 502 474
f 557 502 553
f 512 554 546
f 503 510 575
f 547 512 546
f 515 514 558
f 556 555 505
f 530 547 548
f 548 532 530
f 532 536 531
f 521 522 551
f 561 552 551
f 552 534 520
f 525 523 572
f 572 523 534
f 580 525 572
f 541 499 507
f 541 507 526
f 528 542 565
f 543 509 544
f 575 545 503
f 556 567 555
f 556 486 567
f 486 559 567
f 560 559 538
f 549 532 548
f 549 548 568
f 549 536 532
f 549 587 536
f 587 550 536
f 550 537 536
f 537 550 538
f 550 560 538
f 535 551 522
f 562 539 540
f 499 562 540
f 573 542 491
f 527 573 491
f 543 544 526
f 565 553 528
f 574 557 553
f 545 566 509
f 583 575 510
f 510 576 583
f 546 582 547
f 555 558 505
f 582 548 547
f 568 548 582
f 564 573 527
f 565 542 586
f 596 511 513
f 513 515 596
f 587 549 569
f 561 534 552
f 585 535 539
f 562 585 539
f 541 562 499
f 563 564 506
f 580 563 506
f 526 544 541
f 601 574 553
f 581 544 509
f 509 566 581
f 574 554 557
f 575 566 545
f 583 594 575
f 582 546 554
f 511 596 584
f 515 558 596
f 558 555 604
f 558 604 596
f 609 568 582
f 603 549 568
f 570 559 560
f 567 559 570
f 549 603 569
f 560 550 571
f 587 571 550
f 551 588 561
f 607 562 541
f 589 564 563
f 544 600 541
f 593 554 574
f 593 582 554
f 511 584 576
f 609 595 568
f 570 597 567
f 567 597 555
f 570 560 577
f 560 571 577
f 585 551 535
f 564 589 573
f 586 542 573
f 600 544 590
f 590 544 581
f 565 601 553
f 592 566 575
f 594 592 575
f 620 594 583
f 576 584 583
f 570 577 598
f 585 605 551
f 585 562 579
f 614 572 534
f 607 579 562
f 625 563 580
f 625 580 572
f 607 541 600
f 565 586 591
f 591 601 565
f 621 574 601
f 621 593 574
f 620 583 602
f 593 609 582
f 583 584 602
f 596 610 584
f 611 555 597
f 555 611 604
f 603 568 595
f 571 578 577
f 551 605 588
f 606 605 585
f 561 614 534
f 614 625 572
f 625 616 563
f 616 589 563
f 573 589 617
f 617 586 573
f 566 592 581
f 594 620 618
f 598 597 570
f 597 598 632
f 587 578 571
f 613 599 588
f 613 588 605
f 599 614 561
f 561 588 599
f 608 621 601
f 594 618 592
f 610 602 584
f 596 604 610
f 641 587 569
f 642 598 577
f 578 612 577
f 641 578 587
f 615 606 585
f 615 579 635
f 615 585 579
f 607 635 579
f 616 617 589
f 629 601 591
f 581 592 638
f 629 608 601
f 621 609 593
f 620 602 622
f 622 602 610
f 604 623 610
f 597 632 611
f 665 569 603
f 598 642 632
f 612 642 577
f 626 625 614
f 625 644 616
f 616 636 617
f 627 586 617
f 581 638 590
f 627 591 586
f 628 629 591
f 630 608 629
f 630 621 608
f 620 619 618
f 621 595 609
f 622 610 624
f 623 624 610
f 604 611 623
f 611 631 623
f 611 632 631
f 653 612 578
f 626 614 599
f 615 635 633
f 634 644 625
f 600 635 607
f 600 590 645
f 638 637 590
f 591 627 628
f 628 627 648
f 638 592 618
f 618 619 661
f 595 621 630
f 664 603 595
f 624 623 631
f 578 641 653
f 605 655 613
f 654 599 613
f 654 613 655
f 606 655 605
f 633 655 606
f 606 615 633
f 626 599 643
f 634 625 626
f 635 600 645
f 616 644 636
f 627 617 636
f 627 647 648
f 638 618 670
f 670 618 661
f 622 619 620
f 664 595 630
f 639 622 624
f 631 640 624
f 665 603 664
f 631 632 651
f 642 652 632
f 641 569 665
f 690 653 641
f 643 599 654
f 645 633 635
f 644 646 636
f 644 659 646
f 590 658 645
f 646 627 636
f 637 658 590
f 647 627 646
f 670 637 638
f 647 662 648
f 647 660 662
f 628 649 629
f 648 649 628
f 673 661 619
f 629 663 630
f 629 649 663
f 619 622 650
f 664 630 663
f 650 622 639
f 624 640 639
f 652 651 632
f 652 642 612
f 641 665 690
f 634 626 667
f 626 643 667
f 669 634 667
f 645 656 633
f 644 657 659
f 634 657 644
f 657 634 669
f 659 657 681
f 671 646 659
f 671 647 646
f 671 659 681
f 671 660 647
f 683 660 671
f 673 672 661
f 662 649 648
f 650 673 619
f 685 650 639
f 639 640 685
f 685 640 686
f 640 631 687
f 674 651 652
f 654 675 643
f 655 666 654
f 654 666 675
f 643 668 667
f 668 643 675
f 666 655 633
f 669 681 657
f 656 645 658
f 637 678 658
f 680 678 637
f 680 637 670
f 681 683 671
f 672 670 661
f 684 662 660
f 685 673 650
f 696 664 663
f 687 686 640
f 696 665 664
f 665 696 688
f 697 687 651
f 631 651 687
f 697 651 674
f 698 689 612
f 652 612 689
f 612 653 698
f 668 691 667
f 691 668 675
f 667 691 669
f 676 675 666
f 676 666 677
f 633 677 666
f 633 656 677
f 700 669 691
f 658 678 656
f 669 679 681
f 693 678 680
f 682 693 680
f 670 682 680
f 702 681 679
f 672 682 670
f 695 682 672
f 712 684 660
f 712 660 683
f 662 684 649
f 685 672 673
f 689 674 652
f 688 690 665
f 653 690 706
f 706 698 653
f 675 676 691
f 699 691 676
f 699 676 692
f 692 676 677
f 656 692 677
f 678 692 656
f 669 700 679
f 692 678 701
f 701 678 693
f 682 703 693
f 703 695 694
f 682 695 703
f 672 685 695
f 686 695 685
f 696 663 649
f 696 649 705
f 687 697 686
f 674 720 697
f 714 690 688
f 691 699 700
f 707 699 692
f 692 701 707
f 699 708 700
f 703 701 693
f 700 708 679
f 708 709 679
f 679 709 702
f 710 703 694
f 683 681 702
f 694 695 704
f 705 649 684
f 686 704 695
f 696 705 714
f 686 697 719
f 714 688 696
f 715 720 674
f 674 689 715
f 690 714 706
f 716 706 714
f 721 698 706
f 699 707 708
f 711 708 707
f 710 711 707
f 710 707 701
f 711 709 708
f 710 701 703
f 702 709 722
f 717 711 710
f 728 712 683
f 713 705 684
f 686 719 704
f 705 713 714
f 714 713 724
f 719 697 720
f 715 689 721
f 698 721 689
f 706 716 721
f 709 711 723
f 728 683 702
f 723 711 717
f 694 717 710
f 704 718 694
f 694 718 717
f 713 684 724
f 716 714 724
f 721 725 715
f 723 722 709
f 727 702 722
f 726 722 723
f 718 726 723
f 718 723 717
f 684 728 724
f 728 684 712
f 719 730 704
f 720 730 719
f 724 732 716
f 716 732 731
f 720 715 730
f 716 731 721
f 721 731 725
f 727 729 702
f 722 726 727
f 702 729 728
f 704 730 718
f 718 730 726
f 732 724 728
f 732 728 729
f 731 733 725
f 725 733 715
f 715 733 730
f 729 727 733
f 733 727 726
f 732 729 733
f 733 726 730
f 731 732 733
# 1462 faces, 0 coords texture

# End of File
