####
#
# OBJ File Generated by Meshlab
#
####
# Object vACAR.obj
#
# Vertices: 658
# Faces: 1312
#
####
v 12334.845703 13837.999023 15738.871094
v 12323.557617 13728.679688 15769.333008
v 12396.611328 13780.467773 15755.260742
v 12413.613281 13636.708008 15814.576172
v 12275.856445 13808.370117 15750.365234
v 12470.363281 13845.026367 15797.301758
v 12263.769531 13894.256836 15737.562500
v 12273.030273 13951.660156 15743.357422
v 12146.291016 14063.522461 15763.406250
v 12256.102539 13733.981445 15782.630859
v 12170.647461 13870.899414 15765.730469
v 12445.972656 13744.812500 15778.230469
v 12422.632812 13919.282227 15785.030273
v 12363.443359 13987.736328 15777.537109
v 12126.467773 13979.257812 15766.282227
v 12088.633789 14139.036133 15779.512695
v 11987.017578 14198.566406 15806.916016
v 12459.874023 13676.849609 15829.317383
v 12509.703125 13740.744141 15832.487305
v 12544.584961 13818.739258 15842.214844
v 12083.902344 13924.844727 15795.773438
v 12524.956055 13962.028320 15833.252930
v 12535.746094 13907.894531 15830.270508
v 12065.461914 14077.170898 15780.532227
v 12229.916016 14070.576172 15767.029297
v 12137.835938 14181.064453 15784.806641
v 12041.129883 14316.806641 15806.765625
v 12180.947266 14244.096680 15804.901367
v 12018.680664 14283.118164 15802.686523
v 11965.266602 14495.427734 15852.853516
v 12061.853516 14396.821289 15827.554688
v 12315.846680 13650.882812 15812.393555
v 11992.860352 13966.260742 15857.881836
v 11991.476562 14066.132812 15815.557617
v 12451.390625 14078.885742 15832.971680
v 12207.664062 14316.768555 15834.888672
v 11994.939453 14547.202148 15863.293945
v 12131.500000 14368.807617 15831.326172
v 12042.160156 14553.627930 15869.415039
v 12335.508789 13598.554688 15869.096680
v 12193.595703 13719.997070 15817.149414
v 12055.338867 13884.297852 15824.021484
v 12049.007812 13857.070312 15851.210938
v 11949.179688 14072.286133 15850.304688
v 12344.997070 14107.924805 15802.909180
v 11926.012695 14174.518555 15836.890625
v 11948.105469 14325.908203 15830.907227
v 12454.555664 13662.000000 15899.041992
v 12532.390625 13709.761719 15897.552734
v 12105.559570 13772.342773 15859.278320
v 12692.710938 13920.575195 15917.500977
v 12002.867188 13917.837891 15919.408203
v 11902.898438 14394.607422 15867.282227
v 11902.021484 14272.368164 15851.669922
v 12287.428711 14291.832031 15851.839844
v 12184.455078 14613.296875 15950.291992
v 11912.685547 14593.553711 15904.151367
v 11922.124023 14695.585938 15923.643555
v 12135.087891 14523.625000 15889.644531
v 12033.954102 14608.591797 15889.692383
v 11955.366211 14696.110352 15923.144531
v 12698.224609 13864.276367 15928.746094
v 12052.977539 13853.372070 15926.929688
v 12700.195312 14002.113281 15926.413086
v 11944.526367 13984.577148 15955.896484
v 12628.915039 14044.571289 15904.299805
v 12421.877930 14218.827148 15877.159180
v 12225.795898 14443.928711 15893.743164
v 12285.169922 13616.903320 15876.708984
v 12192.800781 13685.690430 15872.325195
v 12508.624023 13693.062500 15962.156250
v 12168.189453 13751.008789 15958.439453
v 12571.695312 13778.380859 15874.598633
v 12000.484375 13908.137695 15969.927734
v 12823.360352 13945.453125 15981.260742
v 11892.435547 14065.875977 15956.199219
v 11851.810547 14333.712891 15942.722656
v 11871.857422 14459.694336 15934.619141
v 11863.239258 14558.043945 16000.745117
v 11976.265625 14762.535156 15965.726562
v 12373.611328 13650.867188 15939.872070
v 12647.262695 13779.440430 15941.846680
v 12089.102539 13823.780273 15968.568359
v 12973.953125 13963.535156 16067.462891
v 12867.313477 14039.430664 16011.046875
v 12667.954102 14124.335938 15949.559570
v 11872.384766 14164.743164 15934.913086
v 12447.837891 14336.723633 15944.684570
v 11835.165039 14430.429688 15993.594727
v 12284.100586 14525.500977 15960.048828
v 12245.169922 14673.664062 16012.165039
v 12165.429688 14855.472656 16056.534180
v 11921.951172 14748.607422 16014.992188
v 12129.056641 14754.000000 15988.273438
v 11947.136719 14768.713867 15988.599609
v 12113.690430 14896.049805 16052.384766
v 12079.558594 14944.785156 16066.169922
v 12041.890625 14772.189453 15969.897461
v 12390.644531 13709.698242 16035.880859
v 12461.904297 13700.089844 16013.873047
v 12247.481445 13722.649414 15990.866211
v 12615.379883 13740.078125 15963.812500
v 12694.774414 13819.780273 15945.704102
v 12906.685547 13901.654297 16041.604492
v 12109.308594 13818.096680 16008.245117
v 12018.320312 13882.181641 16033.667969
v 12602.908203 14210.784180 15958.385742
v 11848.290039 14249.620117 15950.464844
v 11800.367188 14326.759766 16012.886719
v 12021.056641 14879.091797 16026.715820
v 12818.335938 13828.032227 16018.709961
v 12329.940430 13707.887695 16013.717773
v 12585.696289 13727.558594 16010.498047
v 12661.566406 13754.483398 16006.456055
v 12740.122070 13768.515625 16034.755859
v 12719.474609 13790.175781 15985.206055
v 11915.095703 13963.333984 16027.678711
v 11868.364258 14046.623047 15993.985352
v 12914.667969 14037.777344 16030.089844
v 11813.458008 14173.868164 15996.746094
v 12826.843750 14188.880859 16056.637695
v 12829.870117 14118.876953 16021.243164
v 12658.953125 14255.938477 16009.251953
v 11759.104492 14246.502930 16038.726562
v 12506.755859 14384.003906 16001.199219
v 12395.283203 14508.893555 16012.382812
v 12362.762695 14689.495117 16103.625977
v 12237.593750 14791.446289 16069.339844
v 12648.507812 13748.454102 16072.884766
v 12189.039062 13786.253906 16054.738281
v 12135.177734 13822.363281 16079.053711
v 12973.651367 13912.113281 16094.484375
v 12080.691406 13848.830078 16081.960938
v 11952.643555 13917.043945 16063.803711
v 12991.476562 14134.598633 16108.624023
v 11662.206055 14179.255859 16096.863281
v 11725.883789 14285.646484 16071.192383
v 11790.244141 14389.406250 16043.600586
v 11804.681641 14468.847656 16065.990234
v 12333.431641 14628.292969 16044.034180
v 11889.782227 14678.848633 16029.584961
v 11957.857422 14853.983398 16067.178711
v 11990.049805 14919.624023 16076.673828
v 12831.980469 13771.186523 16085.372070
v 12014.764648 13878.827148 16119.231445
v 11795.000977 14090.661133 16029.453125
v 11827.080078 14021.570312 16043.985352
v 11666.929688 14028.304688 16129.253906
v 11733.921875 14123.575195 16057.500000
v 11632.128906 14274.296875 16141.640625
v 11706.255859 14321.860352 16100.748047
v 11700.404297 14363.700195 16136.672852
v 11819.881836 14544.952148 16099.600586
v 12014.112305 15050.563477 16134.345703
v 12460.801758 13760.350586 16148.750000
v 12763.047852 13762.514648 16104.153320
v 12978.648438 13889.030273 16146.939453
v 11779.725586 13940.393555 16137.051758
v 12048.836914 13874.960938 16190.628906
v 12102.025391 13852.437500 16143.534180
v 11673.301758 13975.971680 16158.378906
v 11870.209961 13954.618164 16069.510742
v 11578.836914 14079.751953 16161.741211
v 12974.885742 14065.138672 16068.128906
v 11593.365234 14203.020508 16141.608398
v 12637.791992 14364.293945 16064.859375
v 12443.404297 14568.276367 16081.142578
v 11968.274414 14956.287109 16141.801758
v 12238.385742 14890.275391 16128.423828
v 12135.856445 15022.859375 16125.581055
v 12038.937500 15139.040039 16161.158203
v 12039.603516 15029.210938 16108.030273
v 12538.458008 13729.752930 16070.620117
v 12261.371094 13782.463867 16106.977539
v 11917.815430 13902.897461 16136.777344
v 11568.694336 14022.663086 16193.949219
v 13069.702148 14037.052734 16150.829102
v 13052.837891 13990.781250 16118.936523
v 13044.037109 14094.532227 16127.260742
v 11580.761719 14250.783203 16182.473633
v 12839.142578 14261.872070 16114.104492
v 11672.635742 14368.211914 16187.809570
v 11771.588867 14486.135742 16144.464844
v 11768.177734 14517.634766 16217.949219
v 11821.795898 14586.592773 16151.475586
v 12366.332031 14756.912109 16152.669922
v 11879.409180 14736.447266 16160.349609
v 11932.212891 14921.412109 16213.827148
v 11927.243164 14834.797852 16119.410156
v 12079.471680 15112.394531 16151.958984
v 12120.318359 15173.172852 16211.586914
v 12154.788086 15084.930664 16175.288086
v 12891.340820 13811.202148 16114.480469
v 12149.968750 13859.123047 16210.421875
v 12326.916992 13832.448242 16258.585938
v 11640.508789 13947.215820 16205.525391
v 11965.804688 13887.648438 16180.625977
v 11541.431641 14130.039062 16194.889648
v 13007.028320 14167.492188 16155.323242
v 12686.994141 14400.358398 16130.227539
v 12905.681641 14270.515625 16183.841797
v 12801.282227 14365.884766 16195.097656
v 12658.357422 14523.761719 16237.283203
v 12541.099609 14482.439453 16088.730469
v 11858.463867 14708.796875 16227.162109
v 12501.525391 14612.465820 16166.489258
v 12268.897461 14928.750000 16184.656250
v 12352.744141 13770.687500 16135.420898
v 12540.696289 13791.538086 16247.607422
v 12846.021484 13801.548828 16173.891602
v 11836.242188 13889.355469 16220.878906
v 12981.898438 13926.835938 16248.069336
v 12076.548828 13888.915039 16260.672852
v 13047.074219 13950.522461 16143.786133
v 13027.235352 13984.257812 16230.404297
v 13028.402344 14050.398438 16300.232422
v 13026.707031 14110.739258 16290.058594
v 13047.010742 14116.739258 16171.317383
v 12943.395508 14248.617188 16219.974609
v 11568.510742 14243.478516 16257.839844
v 12619.589844 14504.720703 16175.044922
v 12587.827148 14593.335938 16239.691406
v 11810.713867 14591.969727 16219.561523
v 12612.283203 14603.791992 16289.179688
v 12518.688477 14690.099609 16262.423828
v 12384.454102 14798.033203 16205.718750
v 11927.042969 14943.865234 16292.294922
v 12284.249023 14992.918945 16257.368164
v 11971.117188 15056.802734 16217.896484
v 12014.890625 15236.603516 16249.558594
v 12001.462891 15097.644531 16175.958984
v 11719.955078 13903.487305 16219.875977
v 12762.481445 13777.663086 16166.451172
v 12849.709961 13849.906250 16306.848633
v 11955.268555 13907.101562 16312.169922
v 12174.351562 13895.423828 16309.261719
v 13017.639648 14025.298828 16340.017578
v 13020.570312 14106.318359 16386.875000
v 11514.626953 14139.897461 16251.432617
v 12999.734375 14179.875000 16304.500000
v 12975.360352 14218.662109 16273.711914
v 12948.666992 14276.307617 16406.806641
v 12906.710938 14302.715820 16276.643555
v 12743.385742 14475.106445 16295.760742
v 12832.775391 14351.306641 16217.359375
v 11858.141602 14713.182617 16297.875000
v 12196.747070 15085.681641 16220.005859
v 12055.207031 15254.772461 16223.526367
v 11974.918945 13889.485352 16237.949219
v 12600.046875 13758.280273 16148.965820
v 12786.115234 13822.863281 16288.359375
v 12997.477539 13971.625000 16325.359375
v 12808.466797 14442.834961 16383.291992
v 11744.054688 14473.019531 16310.691406
v 11665.667969 14375.927734 16231.561523
v 11812.339844 14595.526367 16288.471680
v 12675.685547 14579.684570 16390.763672
v 12404.181641 14839.369141 16272.083008
v 12202.130859 15150.614258 16288.195312
v 12088.118164 15310.169922 16272.728516
v 11788.633789 13910.227539 16357.530273
v 12698.816406 13816.113281 16323.179688
v 12262.706055 13888.927734 16344.466797
v 11553.275391 13964.887695 16267.336914
v 12112.204102 13918.203125 16333.956055
v 12028.002930 13912.386719 16315.975586
v 13010.227539 14153.384766 16362.038086
v 12574.545898 14685.294922 16376.890625
v 12314.988281 15006.027344 16320.833984
v 11963.308594 15085.874023 16279.060547
v 11981.008789 15177.096680 16322.881836
v 12022.175781 15311.658203 16314.389648
v 11633.593750 13913.751953 16265.585938
v 11683.825195 13892.526367 16316.739258
v 12434.562500 13804.165039 16247.233398
v 12638.685547 13823.196289 16363.440430
v 12916.971680 13877.116211 16271.465820
v 12049.119141 13968.947266 16396.746094
v 11510.364258 14037.847656 16255.677734
v 13006.231445 14043.449219 16491.417969
v 11509.860352 14130.406250 16294.770508
v 12980.948242 14230.277344 16490.853516
v 11605.886719 14287.752930 16318.462891
v 12432.767578 14843.776367 16327.965820
v 11909.077148 14877.436523 16355.384766
v 11948.107422 15051.066406 16327.901367
v 12059.945312 15378.986328 16312.569336
v 11612.235352 13921.483398 16352.248047
v 12830.335938 13873.323242 16467.318359
v 12951.837891 13923.439453 16360.229492
v 12201.260742 13956.957031 16422.947266
v 12323.155273 13902.286133 16412.544922
v 13014.010742 14143.486328 16506.556641
v 12112.632812 15303.120117 16305.546875
v 12142.054688 15266.575195 16404.464844
v 12561.923828 13832.791992 16387.875000
v 11546.002930 13981.279297 16391.496094
v 12388.793945 13867.293945 16383.684570
v 12708.755859 13842.020508 16438.796875
v 12768.063477 13846.535156 16407.123047
v 11947.341797 13944.855469 16381.441406
v 12885.902344 13896.633789 16464.599609
v 12118.111328 13985.722656 16424.210938
v 13016.498047 14078.808594 16494.306641
v 12453.414062 14846.035156 16392.082031
v 12342.006836 15009.039062 16387.431641
v 11984.200195 15173.080078 16372.513672
v 12197.287109 15187.556641 16328.593750
v 12018.085938 15254.064453 16390.011719
v 12487.725586 13850.412109 16412.308594
v 12637.296875 13845.019531 16478.466797
v 12675.408203 13854.041016 16557.257812
v 12272.658203 13952.816406 16466.652344
v 11517.207031 14009.586914 16358.584961
v 12039.809570 14023.622070 16448.773438
v 11523.249023 14122.275391 16333.059570
v 12994.476562 14208.605469 16581.291016
v 11814.608398 14572.451172 16362.356445
v 12575.919922 14702.328125 16448.054688
v 11932.767578 14958.146484 16369.319336
v 12053.018555 15307.260742 16387.062500
v 11685.007812 13907.179688 16368.539062
v 12449.416992 13888.434570 16515.886719
v 12582.890625 13858.019531 16546.431641
v 12977.506836 13984.400391 16499.962891
v 11569.541992 14121.188477 16394.744141
v 12241.124023 14005.130859 16513.576172
v 12152.251953 14030.514648 16482.521484
v 12169.194336 14116.753906 16569.841797
v 11625.085938 14135.881836 16443.277344
v 11722.434570 14427.528320 16347.082031
v 12877.478516 14378.267578 16441.783203
v 11850.260742 14667.911133 16349.192383
v 12520.553711 14774.124023 16471.046875
v 12416.860352 14918.241211 16489.984375
v 12288.817383 15089.112305 16412.978516
v 12171.938477 15242.993164 16371.277344
v 12023.807617 15157.529297 16474.011719
v 11629.697266 13962.337891 16420.388672
v 11866.106445 13987.797852 16445.595703
v 13022.893555 14131.458008 16595.007812
v 12092.197266 14062.853516 16486.228516
v 11595.171875 14228.538086 16383.097656
v 12954.439453 14301.990234 16785.394531
v 11778.938477 14462.061523 16408.765625
v 12649.297852 14632.002930 16512.787109
v 11877.962891 14702.014648 16407.076172
v 12549.034180 14745.839844 16567.148438
v 12437.302734 14886.095703 16547.765625
v 12255.110352 15119.601562 16476.902344
v 12207.699219 15159.056641 16491.400391
v 11790.419922 13948.583984 16417.611328
v 12642.222656 13858.959961 16672.566406
v 12715.408203 13860.123047 16660.359375
v 12940.040039 13938.660156 16503.164062
v 12348.557617 13939.808594 16522.437500
v 11579.195312 14027.421875 16423.035156
v 12311.639648 13994.135742 16590.400391
v 11946.800781 14146.943359 16517.533203
v 12108.435547 14122.166992 16535.503906
v 11980.880859 14082.956055 16491.158203
v 12080.113281 14199.223633 16568.519531
v 11667.173828 14302.673828 16400.910156
v 12993.712891 14211.524414 16758.458984
v 12018.374023 14186.187500 16542.027344
v 11783.041016 14397.078125 16456.382812
v 12935.165039 14329.494141 16717.527344
v 11827.121094 14497.750000 16450.183594
v 11877.970703 14623.399414 16460.015625
v 12357.977539 15000.594727 16538.347656
v 11939.808594 14943.654297 16414.142578
v 12165.585938 15171.648438 16511.572266
v 11742.017578 13983.773438 16460.042969
v 12507.039062 13877.510742 16566.330078
v 12558.946289 13869.790039 16638.994141
v 11812.019531 14072.666016 16493.080078
v 12057.526367 14285.506836 16594.271484
v 12141.292969 14201.553711 16609.335938
v 11731.362305 14177.530273 16487.367188
v 11934.765625 14226.951172 16538.806641
v 11748.538086 14278.488281 16474.406250
v 11920.943359 14318.857422 16545.431641
v 11982.416992 14277.944336 16560.574219
v 12031.329102 14370.345703 16605.865234
v 11826.149414 14268.046875 16511.451172
v 12908.421875 14359.369141 16627.527344
v 11853.706055 14438.107422 16498.929688
v 11985.318359 14378.166992 16580.785156
v 11905.432617 14392.242188 16537.599609
v 11956.151367 14552.622070 16565.761719
v 12787.128906 14498.243164 16592.070312
v 12487.823242 14814.251953 16614.105469
v 11948.699219 14895.910156 16464.193359
v 12099.022461 15247.442383 16447.617188
v 12761.145508 13863.274414 16562.789062
v 12890.888672 13912.436523 16595.140625
v 12990.881836 14026.840820 16598.830078
v 11646.949219 14023.910156 16455.623047
v 11857.606445 14201.086914 16521.039062
v 12274.189453 14059.022461 16639.855469
v 12207.747070 14107.088867 16600.775391
v 13012.329102 14167.895508 16694.037109
v 12126.803711 14284.237305 16648.718750
v 11900.077148 14564.175781 16511.802734
v 11928.194336 14653.277344 16521.529297
v 11996.083984 14939.605469 16532.167969
v 11998.432617 15118.168945 16457.220703
v 12281.814453 15064.481445 16558.810547
v 12206.443359 15089.724609 16588.183594
v 12954.899414 13970.173828 16619.751953
v 12393.600586 13940.790039 16615.453125
v 12254.588867 14108.854492 16682.419922
v 12138.638672 14376.629883 16712.373047
v 11995.009766 14492.870117 16600.154297
v 12078.703125 14413.280273 16655.273438
v 12660.903320 14626.551758 16611.416016
v 12000.035156 14695.474609 16598.431641
v 11931.897461 14734.818359 16500.992188
v 12259.413086 15046.040039 16610.279297
v 12069.445312 15174.451172 16500.250000
v 12108.012695 15068.080078 16599.152344
v 12468.158203 13903.065430 16645.464844
v 13004.220703 14168.412109 16823.855469
v 12177.399414 14242.276367 16688.919922
v 12873.603516 14416.854492 16747.816406
v 12118.016602 14471.276367 16719.244141
v 12028.679688 14531.863281 16630.082031
v 12555.233398 14731.532227 16674.166016
v 12385.160156 14923.836914 16642.705078
v 12016.667969 14828.839844 16597.738281
v 12341.482422 14930.188477 16701.113281
v 12132.852539 15117.893555 16566.470703
v 12827.169922 13883.349609 16599.224609
v 12347.405273 13996.583008 16694.904297
v 13015.391602 14109.429688 16785.890625
v 12208.468750 14214.112305 16722.695312
v 12185.443359 14315.523438 16767.820312
v 12091.275391 14538.083984 16697.332031
v 12053.866211 14635.520508 16661.699219
v 12090.843750 14917.649414 16664.796875
v 12202.822266 14974.132812 16707.564453
v 12506.510742 13887.071289 16709.310547
v 12905.236328 13936.462891 16766.671875
v 12467.397461 13903.789062 16786.947266
v 12300.208008 14064.115234 16731.802734
v 12162.833984 14480.780273 16802.000000
v 12153.709961 14555.894531 16798.712891
v 12113.519531 14658.637695 16739.906250
v 12069.263672 14871.440430 16652.400391
v 12454.060547 14835.483398 16692.585938
v 12397.616211 14867.580078 16745.691406
v 12058.706055 15043.993164 16579.855469
v 12138.929688 15003.552734 16664.970703
v 12623.963867 13854.766602 16783.052734
v 12758.101562 13863.447266 16844.412109
v 12407.139648 13944.847656 16697.347656
v 12227.814453 14224.974609 16792.841797
v 12248.607422 14976.916992 16701.126953
v 12566.615234 13867.416016 16734.439453
v 12405.693359 13947.115234 16802.441406
v 12339.320312 14020.273438 16787.423828
v 12990.091797 14045.551758 16770.244141
v 12261.845703 14134.917969 16757.771484
v 12827.041016 14473.370117 16862.019531
v 12660.777344 14621.592773 16783.087891
v 12514.942383 14757.616211 16754.826172
v 12096.103516 14755.882812 16708.244141
v 12508.624023 14737.341797 16852.597656
v 12337.472656 14891.575195 16768.248047
v 12148.578125 14911.542969 16722.505859
v 12867.791992 13905.148438 16691.425781
v 12305.602539 14074.968750 16819.900391
v 12984.689453 14223.636719 16900.998047
v 12727.813477 14563.798828 16755.074219
v 12588.612305 14674.115234 16847.515625
v 12197.685547 14817.333984 16805.298828
v 12201.317383 14340.059570 16834.724609
v 12199.541992 14469.225586 16901.833984
v 12157.619141 14644.754883 16811.853516
v 12176.102539 14746.608398 16812.093750
v 12264.893555 14880.262695 16802.166016
v 12321.689453 14850.273438 16835.341797
v 12521.315430 13872.820312 16818.089844
v 12634.495117 13841.464844 16884.703125
v 12698.578125 13855.442383 16791.896484
v 12466.633789 13879.659180 16919.480469
v 12783.347656 13869.990234 16874.898438
v 12270.935547 14148.685547 16853.755859
v 12688.954102 14591.138672 16886.773438
v 12440.796875 14776.750977 16887.921875
v 12237.717773 14855.410156 16810.949219
v 12816.378906 13886.962891 16966.740234
v 12391.104492 13947.117188 16900.824219
v 12947.199219 13987.208008 16829.792969
v 12314.318359 14056.916016 16987.683594
v 12279.709961 14760.150391 16921.195312
v 12366.538086 14810.110352 16884.386719
v 12922.172852 13969.017578 16929.375000
v 12331.813477 14028.692383 16924.609375
v 12202.821289 14586.327148 16905.544922
v 12313.754883 14797.792969 16898.664062
v 12615.511719 13818.119141 16983.316406
v 13009.395508 14117.147461 16835.240234
v 12242.423828 14245.239258 16902.640625
v 12212.641602 14372.756836 16908.917969
v 12900.522461 14400.143555 16885.250000
v 12231.803711 14516.324219 16991.632812
v 12590.526367 14652.724609 16958.972656
v 12229.558594 14585.308594 16961.808594
v 12241.386719 14752.479492 16890.763672
v 12328.943359 14728.427734 16985.056641
v 12500.728516 13813.810547 17062.107422
v 12578.324219 13849.584961 16867.388672
v 12437.894531 13878.126953 16991.050781
v 12395.569336 13922.913086 16985.697266
v 12711.643555 13846.825195 16921.248047
v 12287.448242 14685.556641 16994.810547
v 12439.453125 14747.021484 16951.787109
v 12525.392578 13840.166992 16955.019531
v 12359.993164 13966.267578 16998.132812
v 12664.989258 14589.851562 17050.117188
v 12557.042969 14651.891602 17055.710938
v 12243.712891 14655.182617 16953.708984
v 12387.295898 14725.058594 17005.785156
v 12283.531250 14140.203125 16996.548828
v 12259.922852 14273.836914 17071.017578
v 12565.024414 13780.148438 17117.347656
v 12756.623047 13855.382812 17006.716797
v 12862.784180 13923.743164 17033.646484
v 12959.739258 14023.246094 16979.507812
v 12322.410156 14019.876953 17110.125000
v 12270.621094 14202.483398 17055.519531
v 12938.246094 14351.200195 16991.988281
v 12273.871094 14573.339844 17060.453125
v 12379.685547 14669.406250 17094.929688
v 12417.631836 13837.695312 17141.994141
v 12616.581055 13779.304688 17142.369141
v 12688.108398 13815.441406 17083.804688
v 12719.614258 13826.169922 17140.486328
v 12972.291016 14054.384766 16998.621094
v 12261.606445 14333.716797 17109.910156
v 12983.373047 14188.742188 17045.492188
v 12256.750000 14401.287109 17088.468750
v 12907.430664 14397.204102 17068.384766
v 12754.391602 14527.136719 17082.873047
v 12639.563477 14586.846680 17163.070312
v 12307.574219 14621.529297 17081.156250
v 12374.690430 14583.037109 17207.142578
v 12333.307617 14663.236328 17069.562500
v 12555.585938 13764.786133 17208.380859
v 12806.232422 13882.553711 17082.705078
v 12972.541016 14098.742188 17080.433594
v 12839.496094 14460.627930 17023.775391
v 12280.697266 14470.319336 17133.111328
v 12313.708008 14535.122070 17163.365234
v 12480.945312 14669.195312 17091.476562
v 12474.336914 14617.030273 17206.343750
v 12483.309570 13773.809570 17231.998047
v 12359.231445 13922.321289 17154.218750
v 12304.162109 14077.900391 17136.167969
v 12888.823242 13962.159180 17133.906250
v 12881.496094 13978.188477 17223.375000
v 12984.768555 14139.949219 17038.634766
v 12285.252930 14322.416992 17202.832031
v 12957.695312 14303.291992 17024.001953
v 12740.588867 14523.875977 17244.841797
v 12513.481445 13773.296875 17287.929688
v 12606.677734 13780.903320 17257.789062
v 12685.640625 13809.122070 17227.976562
v 12788.882812 13887.262695 17238.765625
v 12929.766602 14337.965820 17237.751953
v 12802.293945 14481.437500 17196.646484
v 12551.247070 14596.723633 17238.494141
v 12390.529297 13859.444336 17251.544922
v 12335.893555 13975.547852 17256.431641
v 12292.654297 14148.759766 17175.304688
v 12909.593750 14019.533203 17236.056641
v 12284.688477 14233.303711 17190.382812
v 12696.261719 14518.576172 17367.779297
v 12342.488281 14492.760742 17257.437500
v 12441.183594 13795.588867 17289.259766
v 12594.848633 13809.285156 17333.728516
v 12678.917969 13828.978516 17303.982422
v 12957.015625 14181.353516 17259.521484
v 12960.367188 14245.336914 17251.703125
v 12322.679688 14332.408203 17332.070312
v 12315.826172 14444.625977 17240.175781
v 12428.564453 14601.993164 17221.822266
v 12544.940430 14525.866211 17400.451172
v 12364.272461 13953.755859 17339.701172
v 12317.204102 14092.238281 17298.771484
v 12944.508789 14098.493164 17241.259766
v 12971.821289 14248.182617 17085.498047
v 12380.545898 14508.132812 17303.187500
v 12565.034180 14552.831055 17348.595703
v 12618.359375 13851.073242 17369.943359
v 12845.260742 13981.659180 17336.792969
v 12909.356445 14070.689453 17318.703125
v 12309.486328 14183.391602 17310.207031
v 12899.642578 14394.540039 17172.066406
v 12377.775391 14425.566406 17396.576172
v 12767.630859 14487.040039 17324.576172
v 12438.583984 14503.362305 17374.232422
v 12393.153320 13874.958008 17315.121094
v 12847.938477 14419.355469 17330.003906
v 12641.009766 14538.547852 17358.503906
v 12450.137695 13869.542969 17369.791016
v 12516.160156 13869.992188 17392.664062
v 12396.805664 13938.758789 17376.761719
v 12727.588867 13931.593750 17395.423828
v 12327.394531 14089.029297 17338.359375
v 12953.271484 14288.759766 17218.539062
v 12465.724609 13983.048828 17449.750000
v 12661.353516 13951.856445 17439.181641
v 12383.961914 14098.472656 17439.439453
v 12787.166016 14050.208984 17446.021484
v 12918.319336 14171.925781 17394.470703
v 12334.729492 14219.593750 17382.568359
v 12920.776367 14292.005859 17343.589844
v 12371.153320 14364.960938 17419.250000
v 12796.051758 14440.363281 17398.242188
v 12865.639648 14374.837891 17383.900391
v 12488.309570 14519.997070 17384.468750
v 12429.476562 13954.193359 17417.232422
v 12618.176758 13960.116211 17449.996094
v 12445.578125 14107.234375 17496.492188
v 12707.077148 14091.715820 17499.464844
v 12874.023438 14078.197266 17399.351562
v 12922.550781 14206.022461 17383.230469
v 12734.406250 14455.703125 17455.630859
v 12516.608398 13961.874023 17449.779297
v 12630.253906 14073.064453 17501.410156
v 12365.196289 14186.360352 17440.927734
v 12882.882812 14319.759766 17409.453125
v 12627.827148 14500.412109 17442.718750
v 12530.952148 14083.986328 17509.333984
v 12814.720703 14152.226562 17484.060547
v 12437.327148 14222.617188 17512.759766
v 12853.201172 14183.579102 17469.187500
v 12365.384766 14249.011719 17442.853516
v 12851.016602 14278.277344 17477.128906
v 12799.282227 14392.781250 17470.052734
v 12423.150391 14352.513672 17483.232422
v 12679.956055 14433.000000 17508.781250
v 12614.140625 14449.182617 17508.697266
v 12501.338867 14242.539062 17555.593750
v 12756.699219 14199.071289 17523.802734
v 12742.927734 14342.431641 17527.169922
v 12493.419922 14383.076172 17514.107422
v 12433.446289 14459.293945 17429.880859
v 12553.983398 14458.815430 17495.470703
v 12576.973633 14175.815430 17544.556641
v 12678.607422 14194.194336 17542.183594
v 12643.302734 14269.384766 17565.263672
v 12523.668945 14218.251953 17556.220703
v 12751.229492 14265.108398 17539.505859
v 12542.957031 14337.763672 17558.140625
v 12612.912109 14331.074219 17572.816406
# 658 vertices, 0 vertices normals

f 1 2 5
f 2 1 3
f 1 5 7
f 8 1 7
f 2 3 4
f 3 12 4
f 12 3 6
f 3 13 6
f 3 1 13
f 11 7 5
f 1 8 14
f 13 23 6
f 15 9 7
f 9 8 7
f 16 15 24
f 9 15 16
f 2 4 32
f 10 2 32
f 10 5 2
f 10 11 5
f 13 1 14
f 11 15 7
f 21 15 11
f 8 45 14
f 25 8 9
f 16 26 9
f 25 9 26
f 16 24 17
f 16 17 29
f 4 12 18
f 10 41 11
f 12 20 19
f 20 12 6
f 42 11 41
f 6 23 20
f 42 21 11
f 13 22 23
f 22 13 14
f 15 21 34
f 22 14 35
f 14 45 35
f 34 24 15
f 25 45 8
f 45 25 36
f 28 25 26
f 25 28 36
f 27 26 16
f 29 17 47
f 26 27 28
f 27 16 29
f 27 31 28
f 31 38 28
f 29 47 30
f 29 30 27
f 27 37 31
f 31 39 38
f 40 32 4
f 41 10 32
f 19 18 12
f 20 73 19
f 42 34 21
f 33 44 42
f 42 44 34
f 46 24 34
f 46 17 24
f 38 36 28
f 37 27 30
f 37 39 31
f 38 59 36
f 59 38 39
f 19 49 18
f 19 73 49
f 50 42 41
f 20 62 73
f 50 43 42
f 20 23 62
f 43 33 42
f 22 35 66
f 34 44 46
f 45 36 55
f 46 54 17
f 54 47 17
f 36 59 68
f 37 30 58
f 37 60 39
f 32 69 41
f 4 48 40
f 4 18 48
f 18 49 48
f 70 50 41
f 73 82 49
f 23 51 62
f 23 22 64
f 52 33 43
f 33 52 65
f 64 22 66
f 44 33 65
f 67 35 45
f 46 44 87
f 55 67 45
f 53 47 54
f 68 55 36
f 57 30 47
f 57 47 53
f 56 68 59
f 57 58 30
f 60 59 39
f 37 61 60
f 37 58 61
f 69 32 40
f 41 69 70
f 48 49 71
f 63 50 83
f 63 43 50
f 43 63 52
f 52 63 74
f 64 51 23
f 76 44 65
f 108 46 87
f 44 76 87
f 35 67 107
f 54 46 108
f 53 54 77
f 68 67 55
f 94 56 59
f 60 94 59
f 60 98 94
f 60 61 98
f 61 58 80
f 61 80 98
f 81 40 48
f 71 81 48
f 50 70 83
f 70 72 83
f 103 73 62
f 62 51 75
f 75 51 64
f 35 86 66
f 86 35 107
f 107 67 88
f 108 77 54
f 78 53 77
f 68 88 67
f 53 78 57
f 56 90 68
f 91 56 94
f 79 58 57
f 78 79 57
f 93 95 58
f 58 95 80
f 81 69 40
f 70 69 72
f 69 101 72
f 71 100 81
f 101 130 72
f 102 49 82
f 105 72 130
f 105 83 72
f 103 82 73
f 62 75 104
f 83 74 63
f 106 74 83
f 84 104 75
f 85 84 75
f 74 65 52
f 119 84 85
f 85 75 64
f 118 76 65
f 85 64 66
f 86 85 66
f 107 88 123
f 89 78 77
f 88 68 90
f 56 91 90
f 91 94 92
f 91 92 128
f 93 58 141
f 58 79 141
f 96 94 98
f 110 80 95
f 110 98 80
f 98 110 97
f 81 112 69
f 81 99 112
f 112 101 69
f 102 71 49
f 111 116 103
f 103 62 111
f 111 62 104
f 105 106 83
f 117 74 106
f 65 74 117
f 118 120 87
f 118 87 76
f 122 85 86
f 120 108 87
f 125 123 88
f 109 77 108
f 109 89 77
f 138 89 109
f 125 88 90
f 78 89 79
f 89 139 79
f 89 138 139
f 92 94 96
f 95 143 110
f 95 142 143
f 96 98 97
f 100 99 81
f 144 116 111
f 113 71 102
f 114 113 102
f 116 114 82
f 114 102 82
f 116 115 114
f 103 116 82
f 104 132 111
f 105 130 131
f 147 118 117
f 117 118 65
f 146 118 147
f 146 120 118
f 84 119 164
f 122 119 85
f 122 164 119
f 122 86 107
f 107 121 122
f 124 108 120
f 123 121 107
f 123 166 121
f 124 109 108
f 109 124 137
f 109 137 138
f 126 125 90
f 79 139 153
f 140 126 90
f 91 140 90
f 128 140 91
f 140 128 127
f 169 127 128
f 95 93 142
f 96 97 170
f 172 97 110
f 115 116 144
f 129 113 114
f 132 144 111
f 131 133 105
f 106 105 133
f 117 134 162
f 134 117 106
f 162 147 117
f 146 149 120
f 135 164 122
f 149 124 120
f 135 122 121
f 136 124 149
f 181 135 121
f 166 181 121
f 150 136 165
f 136 150 137
f 136 137 124
f 166 123 125
f 151 137 150
f 138 137 151
f 152 139 151
f 139 138 151
f 153 141 79
f 169 186 127
f 93 189 142
f 170 128 92
f 169 128 170
f 170 92 96
f 143 172 110
f 172 143 154
f 172 190 97
f 173 99 100
f 174 130 101
f 101 112 174
f 173 100 71
f 113 173 71
f 129 173 113
f 129 114 156
f 156 114 115
f 115 144 156
f 160 133 131
f 104 84 132
f 145 134 106
f 133 145 106
f 147 158 161
f 162 158 147
f 147 148 146
f 147 161 148
f 148 149 146
f 148 163 149
f 84 164 178
f 163 136 149
f 163 165 136
f 164 135 179
f 152 151 150
f 166 125 204
f 204 125 167
f 139 152 183
f 139 183 153
f 140 167 126
f 127 167 140
f 185 141 153
f 141 187 189
f 93 141 189
f 189 168 142
f 143 142 168
f 154 143 168
f 170 97 190
f 154 171 172
f 112 99 208
f 208 99 155
f 173 129 250
f 193 144 132
f 174 112 208
f 156 250 129
f 157 193 132
f 130 194 131
f 194 130 174
f 194 160 131
f 162 175 158
f 160 145 133
f 160 159 145
f 175 134 145
f 162 134 175
f 84 178 132
f 176 163 148
f 163 198 165
f 198 180 165
f 135 181 199
f 165 180 150
f 166 200 181
f 180 182 150
f 182 152 150
f 182 183 152
f 167 125 126
f 184 185 183
f 153 183 185
f 141 185 187
f 207 186 169
f 188 189 187
f 192 169 170
f 207 169 192
f 154 168 231
f 192 170 190
f 154 231 171
f 190 172 171
f 233 156 144
f 155 99 173
f 155 173 209
f 250 209 173
f 194 174 195
f 195 174 208
f 161 158 196
f 158 232 196
f 232 158 211
f 175 211 158
f 145 159 197
f 159 249 197
f 194 159 160
f 145 197 175
f 178 214 132
f 161 196 176
f 161 176 148
f 214 178 177
f 164 179 178
f 177 178 179
f 198 239 180
f 199 179 135
f 255 184 182
f 204 200 166
f 183 182 184
f 185 184 223
f 223 205 185
f 167 127 186
f 205 187 185
f 207 226 186
f 227 187 205
f 227 188 187
f 231 168 229
f 192 190 191
f 248 190 171
f 191 190 248
f 275 208 155
f 144 210 233
f 210 144 193
f 233 250 156
f 132 214 157
f 197 211 175
f 159 194 213
f 249 159 213
f 176 279 163
f 198 163 279
f 177 179 218
f 218 179 199
f 201 199 181
f 200 202 181
f 202 201 181
f 220 255 180
f 180 255 182
f 202 200 221
f 221 200 204
f 204 167 206
f 204 206 221
f 246 205 223
f 206 167 186
f 226 206 186
f 188 168 189
f 188 229 168
f 247 207 192
f 191 247 192
f 231 248 171
f 209 275 155
f 233 210 251
f 193 277 210
f 277 193 157
f 214 212 157
f 249 211 197
f 194 236 213
f 236 194 195
f 266 249 213
f 266 235 249
f 214 215 212
f 176 196 264
f 264 279 176
f 216 177 217
f 177 216 215
f 214 177 215
f 239 198 279
f 218 217 177
f 199 241 218
f 199 219 241
f 239 220 180
f 201 219 199
f 202 245 201
f 220 283 255
f 203 202 221
f 203 221 222
f 222 224 203
f 222 221 206
f 222 225 224
f 222 206 225
f 225 206 258
f 246 227 205
f 228 226 207
f 247 228 207
f 231 229 230
f 230 248 231
f 248 260 191
f 195 208 275
f 262 250 233
f 232 273 196
f 234 251 210
f 234 210 277
f 157 212 277
f 265 213 236
f 277 212 290
f 265 266 213
f 290 212 252
f 215 252 212
f 215 237 252
f 216 237 215
f 237 216 238
f 238 216 217
f 238 217 267
f 240 267 217
f 218 240 217
f 218 241 240
f 241 242 240
f 241 243 242
f 219 243 241
f 243 219 201
f 245 244 243
f 245 243 201
f 202 244 245
f 203 244 202
f 224 244 203
f 226 258 206
f 228 258 226
f 188 227 270
f 270 229 188
f 270 230 229
f 191 259 247
f 287 248 230
f 232 274 273
f 211 274 232
f 273 264 196
f 236 195 263
f 281 239 279
f 267 240 282
f 220 239 281
f 240 242 282
f 242 243 332
f 243 244 253
f 283 254 255
f 184 255 254
f 253 244 257
f 224 257 244
f 223 184 256
f 256 246 223
f 285 227 246
f 228 269 258
f 286 270 227
f 259 228 247
f 271 230 270
f 260 259 191
f 230 271 272
f 272 287 230
f 287 260 248
f 274 211 249
f 276 209 250
f 262 276 250
f 235 261 249
f 265 236 291
f 291 236 263
f 266 301 235
f 252 237 280
f 220 281 283
f 331 254 283
f 256 184 254
f 268 257 224
f 268 224 225
f 284 225 258
f 268 225 284
f 269 284 258
f 228 259 269
f 260 287 294
f 274 288 273
f 261 274 249
f 296 275 209
f 276 296 209
f 251 262 233
f 298 263 195
f 275 298 195
f 251 234 300
f 266 278 301
f 265 278 266
f 303 278 265
f 238 304 237
f 317 267 282
f 343 283 281
f 253 332 243
f 305 268 284
f 286 271 270
f 260 294 259
f 272 271 307
f 321 272 309
f 321 287 272
f 288 264 273
f 298 275 310
f 310 275 296
f 299 262 300
f 251 300 262
f 292 263 298
f 289 300 234
f 289 234 277
f 302 289 277
f 302 277 290
f 291 263 313
f 313 263 292
f 252 355 290
f 279 264 314
f 261 235 301
f 315 278 303
f 314 281 279
f 316 281 314
f 304 280 237
f 238 293 304
f 238 267 293
f 317 293 267
f 316 343 281
f 363 283 343
f 319 257 268
f 319 268 305
f 305 284 306
f 306 284 269
f 259 306 269
f 320 307 286
f 286 307 271
f 294 308 259
f 272 307 309
f 287 295 337
f 294 287 337
f 322 288 274
f 261 322 274
f 262 299 276
f 288 297 264
f 314 264 297
f 355 302 290
f 265 291 303
f 328 303 291
f 293 341 304
f 363 331 283
f 318 256 254
f 346 257 319
f 320 227 285
f 320 286 227
f 308 306 259
f 407 309 307
f 294 337 308
f 321 394 287
f 287 394 295
f 352 261 301
f 298 310 323
f 311 296 276
f 299 311 276
f 312 311 299
f 355 396 302
f 340 352 301
f 313 292 356
f 356 292 298
f 252 325 355
f 315 340 278
f 340 301 278
f 327 328 291
f 313 327 291
f 314 326 316
f 303 342 315
f 328 342 303
f 317 341 293
f 242 367 282
f 332 386 242
f 254 331 345
f 318 254 345
f 346 253 257
f 318 333 256
f 256 333 246
f 347 246 333
f 305 334 319
f 347 285 246
f 306 335 305
f 371 307 320
f 308 336 306
f 407 307 371
f 308 337 336
f 339 288 322
f 323 310 374
f 324 310 296
f 324 374 310
f 324 296 311
f 312 324 311
f 433 289 302
f 356 298 323
f 252 280 325
f 315 361 340
f 329 328 327
f 326 343 316
f 367 317 282
f 242 386 367
f 345 331 363
f 319 334 346
f 305 335 334
f 306 336 335
f 335 336 370
f 337 350 336
f 337 295 350
f 338 309 407
f 338 321 309
f 295 372 351
f 339 322 373
f 322 261 352
f 339 297 288
f 395 312 299
f 395 354 312
f 395 299 300
f 289 395 300
f 340 373 352
f 297 357 314
f 356 327 313
f 357 326 314
f 330 326 357
f 401 329 327
f 360 342 328
f 342 361 315
f 360 328 329
f 326 330 343
f 342 360 365
f 317 402 341
f 363 343 381
f 345 368 369
f 253 391 332
f 253 346 391
f 369 318 345
f 369 347 318
f 347 333 318
f 346 334 348
f 371 285 347
f 349 348 334
f 335 349 334
f 407 371 393
f 336 350 370
f 351 408 350
f 295 351 350
f 420 321 338
f 321 420 394
f 295 394 372
f 322 352 373
f 375 374 324
f 353 324 312
f 354 353 312
f 289 433 395
f 323 374 422
f 396 433 302
f 398 297 339
f 411 356 323
f 325 410 355
f 297 398 357
f 358 327 356
f 397 325 280
f 280 304 397
f 378 360 329
f 342 365 361
f 360 378 362
f 365 360 362
f 381 343 330
f 317 364 402
f 363 381 366
f 365 359 361
f 380 359 365
f 317 344 364
f 363 366 345
f 380 365 383
f 344 317 367
f 368 345 366
f 366 387 368
f 368 387 404
f 368 404 369
f 393 347 369
f 393 371 347
f 349 392 348
f 371 320 285
f 370 349 335
f 370 350 408
f 419 408 351
f 419 351 372
f 353 375 324
f 398 339 373
f 323 422 411
f 373 340 376
f 325 397 410
f 398 330 357
f 361 376 340
f 358 400 327
f 327 400 401
f 359 376 361
f 341 435 304
f 380 399 359
f 359 399 376
f 378 329 401
f 330 379 381
f 379 399 385
f 378 377 362
f 377 378 403
f 381 379 385
f 377 365 362
f 382 399 380
f 385 399 382
f 377 383 365
f 366 381 387
f 382 380 383
f 384 383 377
f 389 381 385
f 388 382 383
f 383 384 388
f 389 385 382
f 386 332 425
f 382 388 389
f 332 391 425
f 387 381 389
f 414 389 388
f 390 404 387
f 387 389 390
f 405 369 404
f 391 346 416
f 418 369 405
f 346 348 416
f 393 369 418
f 407 393 406
f 372 394 432
f 394 420 432
f 471 433 396
f 398 373 376
f 304 435 397
f 330 398 379
f 399 398 376
f 379 398 399
f 402 435 341
f 424 378 401
f 412 424 401
f 424 403 378
f 415 377 403
f 377 415 384
f 384 414 388
f 384 415 414
f 414 390 389
f 391 416 474
f 417 404 390
f 405 404 417
f 406 393 418
f 407 406 452
f 409 372 432
f 409 419 372
f 375 442 374
f 396 355 410
f 411 358 356
f 434 358 411
f 400 358 434
f 412 401 400
f 402 423 435
f 364 423 402
f 424 413 403
f 413 415 403
f 414 415 427
f 414 427 390
f 417 418 405
f 418 417 430
f 392 428 348
f 418 430 406
f 392 429 450
f 370 429 349
f 392 349 429
f 452 406 430
f 338 407 452
f 338 452 420
f 421 420 452
f 432 420 421
f 422 374 442
f 422 456 411
f 434 411 456
f 436 424 412
f 425 367 386
f 426 438 415
f 413 426 415
f 438 427 415
f 464 391 474
f 439 390 427
f 428 416 348
f 465 416 428
f 428 392 450
f 430 449 440
f 452 430 440
f 370 408 429
f 408 431 429
f 419 431 408
f 409 432 441
f 443 471 396
f 396 410 443
f 422 444 456
f 410 397 462
f 400 434 445
f 435 462 397
f 412 400 445
f 437 424 436
f 437 413 424
f 438 439 427
f 474 416 465
f 417 390 439
f 417 467 430
f 449 430 467
f 452 453 421
f 409 441 458
f 419 409 458
f 432 421 453
f 432 453 441
f 459 442 375
f 353 459 375
f 455 354 395
f 422 442 444
f 412 445 463
f 436 412 463
f 477 413 437
f 464 425 391
f 446 426 413
f 426 447 438
f 446 447 426
f 448 439 438
f 448 438 447
f 467 417 439
f 448 467 439
f 450 466 428
f 450 429 451
f 452 440 470
f 453 452 470
f 419 458 469
f 431 419 469
f 454 459 353
f 485 353 354
f 485 454 353
f 455 485 354
f 460 461 434
f 434 456 460
f 445 434 461
f 463 457 436
f 457 437 436
f 437 457 477
f 425 464 506
f 447 479 448
f 428 475 465
f 466 475 428
f 440 449 467
f 431 451 429
f 442 459 483
f 444 460 456
f 410 462 494
f 472 463 445
f 446 413 477
f 468 466 450
f 467 448 479
f 467 479 480
f 476 440 480
f 480 440 467
f 469 451 431
f 440 476 470
f 470 441 453
f 470 491 441
f 441 491 481
f 458 482 469
f 441 481 458
f 442 483 444
f 461 460 493
f 461 472 445
f 488 463 472
f 488 457 463
f 488 504 457
f 364 473 423
f 364 344 473
f 504 477 457
f 505 477 504
f 425 506 367
f 344 367 506
f 478 446 477
f 489 474 465
f 475 466 468
f 451 468 450
f 491 470 476
f 458 481 482
f 513 483 459
f 454 513 459
f 487 455 395
f 433 487 395
f 461 493 472
f 489 545 474
f 468 451 490
f 510 476 480
f 476 510 491
f 497 469 482
f 485 484 454
f 486 444 483
f 471 487 433
f 493 460 486
f 486 460 444
f 494 443 410
f 423 503 435
f 423 542 503
f 488 525 504
f 473 542 423
f 505 478 477
f 478 447 446
f 500 479 447
f 465 475 489
f 500 480 479
f 500 523 480
f 523 510 480
f 491 510 496
f 451 469 490
f 484 513 454
f 492 487 471
f 499 472 493
f 530 494 462
f 472 499 495
f 462 540 530
f 495 488 472
f 462 435 540
f 495 525 488
f 500 447 478
f 475 468 508
f 496 501 491
f 490 469 497
f 501 481 491
f 481 501 482
f 482 501 497
f 484 502 513
f 519 483 513
f 485 516 484
f 455 516 485
f 515 493 514
f 514 493 486
f 443 494 498
f 515 520 493
f 520 499 493
f 464 474 553
f 508 521 489
f 489 475 508
f 516 502 484
f 486 483 519
f 498 494 530
f 540 435 503
f 473 344 565
f 553 474 545
f 507 500 478
f 509 500 507
f 523 500 509
f 518 468 490
f 517 510 523
f 518 490 497
f 511 501 496
f 497 501 524
f 516 538 502
f 514 486 512
f 512 486 519
f 487 516 455
f 471 443 492
f 443 529 492
f 443 498 529
f 533 344 506
f 544 533 506
f 464 544 506
f 521 545 489
f 522 508 468
f 523 509 534
f 518 522 468
f 517 496 510
f 517 511 496
f 502 527 519
f 519 513 502
f 537 502 538
f 528 538 516
f 487 528 516
f 492 528 487
f 536 520 515
f 525 532 504
f 532 505 504
f 542 563 503
f 534 509 507
f 534 547 523
f 522 518 556
f 523 547 517
f 511 524 501
f 497 524 518
f 519 527 512
f 502 537 527
f 536 514 512
f 536 515 514
f 499 520 495
f 540 503 552
f 532 526 505
f 563 552 503
f 541 505 526
f 478 505 541
f 553 544 464
f 522 521 508
f 534 507 554
f 549 517 547
f 517 549 511
f 535 511 549
f 535 524 511
f 556 518 524
f 528 551 539
f 492 551 528
f 492 529 551
f 520 536 559
f 520 559 495
f 561 529 498
f 530 561 498
f 525 495 531
f 533 565 344
f 521 522 546
f 536 512 558
f 539 538 528
f 531 495 559
f 531 560 525
f 560 532 525
f 543 478 541
f 543 507 478
f 554 507 543
f 555 534 554
f 547 534 555
f 535 557 524
f 527 558 512
f 540 577 530
f 576 532 560
f 576 526 532
f 578 526 576
f 566 545 521
f 566 521 546
f 548 549 547
f 558 527 550
f 550 527 537
f 537 568 550
f 539 569 538
f 551 569 539
f 529 561 551
f 577 562 561
f 577 561 530
f 578 541 526
f 473 593 542
f 473 565 593
f 555 554 587
f 573 522 556
f 573 546 522
f 548 547 555
f 573 556 557
f 524 557 556
f 536 558 581
f 569 568 537
f 538 569 537
f 575 531 559
f 561 570 551
f 575 560 531
f 592 577 540
f 540 552 592
f 564 541 578
f 544 571 533
f 564 543 541
f 572 544 553
f 545 572 553
f 554 543 564
f 572 545 566
f 580 555 587
f 580 548 555
f 580 594 548
f 549 548 535
f 567 558 550
f 568 567 550
f 581 574 536
f 536 574 559
f 574 575 559
f 570 569 551
f 576 560 575
f 552 563 584
f 563 542 584
f 599 564 578
f 533 571 565
f 544 600 571
f 572 600 544
f 573 579 546
f 566 546 579
f 588 535 548
f 535 588 557
f 583 568 569
f 583 569 570
f 570 561 562
f 584 592 552
f 571 612 565
f 586 564 599
f 586 554 564
f 587 554 586
f 579 573 606
f 588 589 557
f 558 567 581
f 582 567 568
f 575 574 604
f 575 590 591
f 562 597 570
f 591 576 575
f 577 597 562
f 591 578 576
f 542 585 584
f 593 585 542
f 565 612 593
f 580 587 601
f 601 594 580
f 603 548 594
f 603 588 548
f 595 573 557
f 574 581 604
f 583 582 568
f 590 575 604
f 597 583 570
f 577 598 597
f 598 577 592
f 599 578 591
f 593 612 585
f 601 587 586
f 605 600 572
f 566 602 572
f 605 572 602
f 579 602 566
f 623 588 603
f 623 589 588
f 589 595 557
f 607 604 581
f 607 581 608
f 608 581 567
f 608 567 582
f 596 582 583
f 610 596 583
f 590 611 591
f 610 583 597
f 599 591 611
f 601 586 620
f 573 595 606
f 608 582 596
f 610 597 616
f 597 598 628
f 599 611 618
f 586 599 618
f 600 605 571
f 602 621 605
f 601 650 594
f 650 603 594
f 609 590 604
f 607 609 604
f 614 596 610
f 597 628 616
f 617 598 592
f 584 617 592
f 584 629 617
f 633 618 611
f 629 584 585
f 612 619 585
f 640 620 586
f 579 621 602
f 624 609 607
f 613 624 607
f 613 607 608
f 613 608 631
f 625 608 596
f 596 614 625
f 615 590 609
f 609 624 615
f 615 611 590
f 614 610 616
f 633 611 615
f 598 617 628
f 585 619 629
f 640 586 618
f 571 619 612
f 571 622 619
f 622 571 605
f 621 579 630
f 605 621 622
f 650 623 603
f 595 635 606
f 608 625 631
f 624 626 615
f 624 613 626
f 627 614 616
f 628 637 616
f 639 628 617
f 639 637 628
f 640 618 633
f 619 634 629
f 642 634 622
f 619 622 634
f 621 630 642
f 621 642 622
f 589 635 595
f 579 606 635
f 636 613 631
f 626 613 636
f 636 631 625
f 636 625 632
f 614 632 625
f 614 627 632
f 633 615 626
f 637 627 616
f 633 626 638
f 633 638 640
f 617 641 639
f 629 641 617
f 634 641 629
f 640 643 620
f 634 642 641
f 643 601 620
f 650 601 643
f 579 635 630
f 650 651 623
f 623 651 589
f 637 647 627
f 637 639 647
f 640 638 643
f 648 641 642
f 630 644 642
f 645 635 651
f 635 645 644
f 635 644 630
f 589 651 635
f 636 652 655
f 632 652 636
f 636 655 626
f 655 646 626
f 646 638 626
f 653 632 627
f 653 652 632
f 653 627 647
f 641 656 639
f 639 656 647
f 646 643 638
f 641 648 656
f 643 646 657
f 643 657 649
f 644 648 642
f 649 650 643
f 654 652 653
f 655 652 654
f 654 653 647
f 656 654 647
f 657 646 655
f 658 655 654
f 658 654 656
f 658 656 648
f 644 658 648
f 649 651 650
f 651 649 657
f 651 657 658
f 645 651 658
f 644 645 658
f 658 657 655
# 1312 faces, 0 coords texture

# End of File
