v -110.886505 26.997467 -113.039658

v -106.806435 27.329773 -113.813950

v -107.813080 25.437134 -114.768524

v -109.733887 25.021057 -114.315063

v -104.829712 24.542206 -113.834351

v -109.100830 20.828796 -114.623596

v -110.635681 22.863342 -113.912384

v -114.368347 19.884384 -114.717377

v -110.956123 20.251587 -114.552055

v -106.094452 22.509323 -114.199371

v -116.279053 17.907227 -113.302002

v -116.281128 19.333931 -113.705383

v -112.330597 17.969177 -113.505264

v -114.117447 17.725769 -113.769989

v -107.426544 19.078125 -113.454559

v -105.156982 20.316803 -113.811005

v -102.521072 19.013947 -114.756943

v -104.447952 16.013336 -114.878036

v -100.556335 20.319824 -113.630867

v -107.706909 16.631075 -113.289795

v -105.351639 14.095673 -113.931671

v -101.470329 16.710510 -113.551964

v -102.227036 15.242368 -113.674385

v -111.131454 28.115082 -112.231628

v -114.197174 31.107178 -112.300903

v -117.785156 28.154358 -112.493408

v -116.527466 24.240776 -110.928345

v -119.362061 26.644501 -111.200867

v -114.095886 23.858307 -112.383789

v -106.979637 27.873291 -112.682373

v -116.125000 22.260010 -111.860352

v -119.124512 22.009399 -111.312866

v -119.227539 19.522903 -111.959290

v -113.425034 14.080078 -107.917679

v -110.460876 17.170227 -112.337219

v -101.313332 24.503586 -111.728783

v -109.085815 13.174072 -110.213379

v -103.196884 12.941803 -111.991730

v -104.294250 12.302368 -111.137939

v -158.374985 47.702576 -110.300125

v -159.746735 45.613953 -109.884735

v -159.608154 47.262878 -110.002197

v -153.908478 49.491272 -107.569489

v -156.262085 45.518677 -110.812057

v -151.868164 45.247894 -109.564087

v -151.645889 42.037643 -110.891052

v -154.788879 42.436676 -109.952026

v -149.734116 41.069267 -110.093964

v -151.291168 40.097473 -109.939560

v -139.361893 26.528076 -110.889618

v -141.341400 26.738770 -109.990479

v -139.139053 28.802917 -109.249573

v -142.358368 23.370987 -110.003204

v -140.923462 23.042435 -110.940765

v -136.872269 21.304443 -110.769363

v -141.807632 21.373932 -109.909485

v -124.363525 29.481934 -110.675385

v -131.509583 26.648987 -110.942833

v -131.599960 29.992554 -109.252075

v -134.586670 27.248169 -109.663483

v -135.052094 23.035873 -110.971252

v -121.175034 28.547714 -110.490173

v -123.921646 31.663940 -109.339813

v -127.348495 26.864136 -110.374023

v -130.806747 24.153366 -110.361893

v -138.048584 17.911865 -110.808365

v -123.556839 27.460480 -109.932129

v -131.565598 21.193787 -110.692978

v -135.492798 21.446075 -110.040192

v -139.000305 16.902985 -110.133453

v -115.158142 32.642578 -110.552246

v -113.539856 33.940033 -109.896057

v -112.243713 33.349030 -109.885071

v -118.587158 32.014771 -108.232971

v -136.659409 16.383373 -110.085068

v -131.903290 19.469696 -110.160324

v -109.495239 30.098022 -110.009644

v -123.088135 21.229004 -108.556396

v -106.618347 29.242126 -109.680359

v -101.839294 27.210693 -108.684082

v -120.790161 16.854065 -107.953735

v -117.158997 13.955872 -107.820679

v -111.917297 13.701538 -108.077209

v -98.466560 22.570713 -108.061142

v -98.149590 20.329962 -107.328186

v -99.022064 16.830017 -106.544739

v -100.314026 14.548103 -109.162354

v -105.911926 11.441711 -108.552612

v -102.055656 11.599340 -109.289719

v -160.601563 49.115723 -107.546143

v -163.085327 46.790203 -107.375702

v -156.727631 50.916107 -106.895996

v -161.354004 43.831299 -108.548096

v -150.906219 50.830933 -107.034668

v -149.216812 49.568230 -108.097504

v -150.562561 48.097778 -108.719727

v -159.299011 40.018173 -108.163818

v -156.408234 42.109406 -108.221527

v -157.718643 41.570374 -108.301941

v -150.154388 45.040329 -108.801712

v -158.967117 38.034431 -108.930519

v -161.151245 37.819366 -108.171082

v -155.001038 39.992676 -107.407745

v -160.685440 35.932999 -108.200195

v -146.297699 39.933929 -107.733902

v -151.590485 38.079651 -107.536835

v -157.130600 37.341805 -107.958275

v -146.731003 39.529945 -108.100990

v -147.699860 38.873260 -107.884827

v -132.724319 32.740540 -108.794464

v -137.992310 32.038330 -108.027344

v -133.028748 34.484741 -107.526367

v -141.433716 29.794739 -107.389648

v -142.148560 26.473022 -108.631592

v -143.167358 27.510193 -106.826660

v -125.814880 35.156555 -108.824829

v -128.170624 32.684448 -108.245300

v -126.857605 36.626221 -107.890198

v -122.106354 34.950775 -108.500671

v -142.418381 23.767944 -107.302460

v -120.584793 34.752541 -107.994095

v -119.868332 31.971985 -108.207565

v -116.304779 35.346924 -106.471680

v -139.965393 16.006866 -108.229736

v -111.615707 36.145508 -105.963501

v -124.635071 25.993568 -108.085571

v -128.284027 23.101711 -108.153580

v -134.415710 18.039978 -108.981476

v -123.528992 25.001862 -108.113266

v -136.412506 15.565430 -109.097336

v -106.475952 32.101440 -107.713989

v -126.692360 22.820221 -107.178009

v -128.653534 18.064865 -107.978096

v -137.573242 14.270508 -108.228455

v -132.530945 16.779846 -107.430664

v -102.787476 29.958374 -107.362183

v -99.279823 25.380157 -107.249863

v -111.517487 11.336121 -107.563416

v -109.925385 10.488190 -107.613403

v -103.994690 9.915985 -106.189667

v -98.825867 12.261139 -105.861938

v -153.146301 59.506592 -106.872070

v -158.271729 55.149166 -107.004578

v -157.143555 60.022461 -105.498779

v -171.484985 48.751930 -106.299538

v -169.032135 50.806629 -105.905365

v -170.634445 48.324722 -106.070129

v -167.492935 50.744385 -106.044678

v -167.301392 49.286499 -106.933655

v -151.277786 60.646973 -105.749084

v -152.189743 54.868805 -106.864586

v -164.358032 50.707397 -106.101013

v -168.375610 47.104675 -105.574371

v -157.282043 51.628311 -106.074707

v -160.392212 54.445366 -105.872681

v -160.119873 51.072632 -105.577881

v -150.631409 53.133087 -105.816498

v -164.453308 43.467041 -105.518005

v -148.253052 49.991837 -106.254082

v -162.292297 40.488708 -105.739899

v -146.942566 45.567139 -105.508331

v -164.309662 37.333855 -105.370224

v -161.807495 36.070068 -107.189575

v -155.612488 36.582642 -107.046402

v -163.099792 34.576309 -105.332886

v -160.007782 33.556305 -105.466766

v -143.800201 41.382042 -105.674728

v -150.485870 34.878906 -106.886871

v -156.177109 34.117371 -105.378479

v -148.101501 36.150925 -106.458893

v -144.160599 37.589508 -105.357254

v -148.331009 34.201866 -106.183868

v -137.067413 38.453033 -105.319061

v -134.399429 39.278107 -105.157066

v -135.369202 37.056641 -106.674561

v -148.171509 30.464767 -105.612000

v -145.437378 32.228027 -105.927490

v -145.999390 29.695740 -106.944397

v -142.268600 32.887024 -105.380249

v -131.342041 36.631592 -106.295166

v -128.746735 39.818909 -105.171844

v -122.800125 37.759201 -105.317444

v -118.717339 35.312805 -106.084961

v -140.735077 17.648987 -104.353821

v -139.878433 15.258125 -104.572693

v -108.598572 35.214630 -105.417969

v -125.045898 20.928894 -107.325287

v -138.504791 13.388611 -106.414063

v -101.413269 32.834015 -105.849121

v -127.833054 17.158783 -106.408966

v -133.730988 12.689240 -103.955139

v -125.803818 17.934692 -106.684113

v -136.771454 12.517120 -106.175110

v -123.229980 16.285645 -106.278076

v -99.802521 29.055008 -105.287582

v -122.999268 14.594910 -105.994507

v -98.230225 26.093994 -105.697418

v -118.465057 11.242554 -106.725525

v -97.544159 24.157166 -107.032272

v -95.306595 27.431702 -106.046509

v -94.095093 24.852631 -106.901062

v -92.179459 27.674942 -105.127945

v -91.397949 25.373978 -105.395630

v -92.376190 23.113052 -105.489075

v -94.583191 19.727356 -105.630981

v -114.329498 9.261322 -105.987793

v -97.917175 19.070541 -106.045380

v -106.252861 9.923401 -104.182587

v -101.719025 10.003342 -106.191925

v -153.835205 62.190918 -105.044189

v -159.024780 62.060791 -104.066650

v -160.870453 60.523621 -104.394348

v -145.873627 65.978149 -104.474365

v -150.721191 66.137451 -103.491455

v -162.220062 58.286442 -104.180603

v -144.362488 65.308380 -104.908630

v -162.656067 53.442017 -104.741943

v -171.184113 49.961334 -104.674438

v -173.310730 48.761490 -104.367218

v -149.707153 56.523529 -105.192772

v -166.830612 52.816284 -102.530518

v -171.470154 44.650391 -104.902222

v -174.156250 48.222870 -104.175949

v -146.184814 50.267216 -105.160789

v -137.581116 65.090973 -105.039352

v -170.703125 42.559204 -105.222504

v -174.129852 43.469696 -102.732178

v -174.412689 40.664955 -104.271774

v -173.565430 37.727226 -105.245377

v -174.820023 39.114887 -104.302422

v -174.913544 37.414337 -104.357300

v -132.045380 69.130920 -104.874741

v -123.871216 67.281540 -104.873062

v -122.185638 62.670059 -104.943916

v -175.918808 35.046444 -104.099655

v -174.158813 34.273750 -105.248230

v -175.556763 33.179661 -104.166855

v -120.479797 66.528748 -103.311844

v -174.503494 31.054176 -104.315880

v -172.223145 28.725830 -105.196014

v -174.153168 28.959068 -103.862518

v -163.669891 29.018250 -105.134460

v -142.270996 41.216843 -105.185326

v -172.395798 26.843266 -104.211937

v -121.977142 53.266708 -104.982849

v -168.632446 26.045837 -105.006866

v -120.057678 57.294525 -103.579376

v -166.194717 25.247711 -105.291634

v -121.779633 48.550827 -105.021614

v -158.402954 27.599426 -105.123093

v -163.616226 27.775620 -104.325760

v -164.444946 26.131475 -104.601288

v -147.939789 32.972717 -105.386131

v -147.036179 34.237244 -105.308281

v -165.845276 22.316437 -105.183578

v -119.420059 50.741638 -103.243851

v -162.036804 25.666901 -103.458298

v -152.504089 29.070679 -105.000504

v -166.981567 21.384949 -104.338196

v -161.927246 20.807129 -105.236954

v -159.889587 24.226425 -103.363464

v -163.647461 19.534119 -104.604797

v -147.220337 28.132263 -105.510254

v -151.863480 27.347046 -103.801331

v -117.422623 40.661377 -105.012436

v -159.952362 17.692902 -105.251213

v -161.000687 16.044037 -104.213287

v -143.268219 25.842377 -104.318382

v -157.190521 17.686882 -103.709053

v -158.506836 15.966705 -104.122581

v -142.415863 22.708115 -104.178589

v -101.031868 46.376007 -104.830063

v -108.507965 46.078583 -103.146530

v -101.021431 48.970123 -103.138634

v -106.871338 43.978516 -104.834290

v -113.520081 40.255371 -103.233856

v -114.272491 37.748047 -105.060394

v -108.092346 40.312141 -104.926254

v -110.199646 41.259705 -103.351410

v -111.847069 37.647766 -104.872437

v -91.800140 52.636932 -103.078781

v -89.486267 50.839752 -104.883148

v -92.639526 45.906723 -104.937088

v -95.513519 46.679443 -103.288452

v -95.724594 44.224060 -104.947525

v -100.512756 34.615906 -105.048203

v -84.591400 49.890190 -104.892601

v -138.408844 11.880737 -104.254272

v -80.428955 47.314575 -103.318359

v -80.057007 42.098877 -104.526306

v -95.485779 28.737457 -105.088890

v -129.217957 14.904816 -103.544266

v -136.723007 11.461365 -104.358887

v -127.372345 15.975922 -104.257874

v -81.082977 38.202759 -104.957428

v -79.685165 37.547699 -104.539742

v -123.708893 12.045471 -103.705750

v -87.976654 25.121094 -104.929985

v -80.964386 32.313286 -104.868042

v -79.293388 34.149502 -103.935074

v -78.885391 36.727764 -103.912605

v -79.581619 31.385796 -103.937805

v -81.877045 26.786987 -104.893784

v -119.811615 9.491943 -104.055542

v -115.244431 7.363052 -102.372330

v -79.707764 28.690779 -104.124290

v -89.842743 21.338196 -104.713013

v -90.132576 19.144739 -104.371185

v -96.850029 15.982361 -104.293213

v -80.625626 26.281281 -104.025024

v -86.339249 21.102142 -102.361816

v -108.751999 8.413834 -102.762726

v -112.869530 7.744202 -104.176971

v -92.904427 17.128998 -104.269730

v -96.453514 12.377811 -102.549095

v -102.045845 8.711151 -103.931885

v -97.464134 10.552992 -102.180016

v -152.045761 68.047577 -102.304291

v -157.027100 64.213867 -103.007080

v -155.972931 66.862915 -101.725952

v -158.344849 64.426468 -102.173584

v -160.226425 62.667286 -102.249649

v -147.638306 67.185913 -102.264984

v -161.873032 59.244713 -100.757080

v -145.143311 67.233887 -101.534424

v -163.549805 56.646187 -102.348083

v -141.227295 67.764160 -102.201416

v -165.099380 55.239746 -102.155640

v -134.993652 70.906494 -102.477417

v -131.384155 71.865875 -102.236694

v -174.499054 45.488922 -102.518982

v -129.685532 72.150360 -101.617798

v -125.469345 71.392456 -100.979614

v -122.444977 70.137817 -102.109573

v -119.984016 69.350754 -102.124092

v -175.603424 36.822514 -100.378052

v -117.757774 68.072205 -102.274048

v -115.316254 65.595627 -102.907043

v -118.827087 62.170685 -103.108505

v -110.281479 61.358704 -102.988899

v -173.909576 27.524143 -100.647842

v -118.695587 54.246033 -103.144997

v -170.310867 25.078354 -102.790649

v -168.669800 22.646442 -102.678589

v -116.276772 44.583008 -103.161797

v -103.254913 58.486938 -103.008926

v -167.547592 20.055157 -101.140953

v -97.298004 60.687256 -102.122345

v -104.985962 60.363037 -102.101563

v -166.114731 19.535339 -102.513184

v -94.901855 59.293365 -102.985397

v -94.494102 60.747223 -102.056427

v -144.194214 24.472107 -103.419617

v -150.819794 20.925171 -103.200035

v -89.522064 57.752197 -102.949493

v -88.953354 59.013073 -101.982925

v -153.985413 18.976387 -103.180679

v -145.692688 19.338501 -103.145996

v -159.589981 14.516129 -102.561142

v -155.232117 15.095642 -102.994965

v -152.140106 17.469345 -101.589645

v -85.250198 53.814148 -101.918663

v -156.330811 13.288971 -102.105072

v -87.035980 53.544373 -103.098145

v -153.749924 13.772926 -101.610443

v -142.188965 17.972168 -103.491943

v -143.272217 13.293213 -103.045410

v -147.493286 17.590881 -101.469269

v -83.221497 51.625057 -101.950691

v -81.254395 50.075813 -101.888908

v -144.472992 10.450714 -101.487213

v -139.842651 12.269775 -103.578003

v -141.258728 10.186646 -102.691772

v -78.990234 47.743633 -102.031166

v -137.051453 9.510757 -102.321228

v -76.595863 43.161560 -102.072113

v -130.671860 10.322632 -103.121124

v -133.186111 10.654129 -102.405457

v -77.552475 39.728531 -102.191940

v -130.897766 9.167206 -102.288116

v -123.046631 8.988586 -103.128448

v -124.503380 7.886421 -102.332825

v -120.708923 7.693306 -102.287537

v -79.509689 33.906200 -99.723206

v -118.170418 7.690804 -102.290314

v -79.345459 29.828409 -100.707474

v -79.099213 27.058233 -100.984871

v -112.140114 6.894073 -102.243553

v -89.218292 19.330215 -102.881226

v -79.247002 25.357246 -102.087036

v -79.497810 23.865040 -102.127815

v -106.161201 7.891296 -102.479523

v -81.567574 21.849091 -102.257156

v -93.002975 16.133781 -102.756729

v -94.458923 13.832516 -102.166031

v -104.448242 6.678719 -102.220383

v -100.879013 8.106665 -102.425972

v -153.738907 69.157227 -100.394287

v -157.584106 65.472900 -100.212158

v -151.550278 69.302185 -99.382935

v -148.468933 67.190315 -100.748932

v -160.862366 61.275345 -99.985229

v -162.218628 60.007416 -98.613281

v -146.075241 67.326187 -100.316650

v -162.579773 58.052017 -100.487793

v -163.336060 56.896317 -100.655182

v -164.631287 55.655945 -100.598877

v -166.083618 54.183411 -100.991608

v -142.992371 69.386719 -99.095459

v -137.979416 71.335945 -97.372910

v -134.273895 71.928162 -100.435425

v -167.356110 52.286293 -100.635193

v -173.149887 49.513123 -100.145630

v -169.761566 51.014511 -100.634399

v -174.619629 47.851238 -98.593994

v -131.598831 72.714600 -98.580460

v -174.839172 44.135376 -99.850952

v -174.488708 40.289505 -100.526825

v -122.373154 71.771591 -98.462494

v -120.256348 69.810120 -100.462646

v -174.759674 38.668564 -100.547516

v -117.834938 68.900650 -100.145844

v -175.803879 33.822609 -99.379120

v -115.821152 68.341370 -100.192352

v -173.879547 30.586235 -99.208130

v -111.668945 67.272461 -99.866699

v -106.223602 64.984009 -99.615723

v -171.724411 26.626158 -100.327118

v -169.707397 23.418180 -100.508881

v -99.415771 62.708008 -99.840088

v -95.054413 61.330093 -99.698151

v -165.803711 18.424328 -100.512749

v -162.702072 15.820192 -99.803314

v -159.949295 14.356304 -100.631378

v -87.141212 59.155998 -98.165787

v -156.791916 12.660580 -100.469528

v -155.341614 11.618774 -100.523735

v -153.041290 10.368439 -100.709152

v -149.398087 9.823700 -101.336685

v -82.782639 51.511467 -96.906418

v -151.757370 9.368668 -100.456581

v -148.068863 8.754425 -100.534485

v -144.003662 8.483765 -99.876953

v -140.546234 7.605103 -98.895264

v -135.772736 9.398689 -100.342392

v -75.785103 43.265427 -100.224640

v -76.724670 45.598152 -98.202316

v -132.803040 9.869400 -100.404282

v -76.994843 39.547493 -98.952698

v -78.206131 36.347702 -99.395203

v -125.982529 7.461395 -100.740967

v -122.498688 6.893539 -99.069763

v -120.110199 7.289429 -100.283295

v -116.643417 7.618540 -100.359482

v -114.952278 6.915150 -98.395950

v -110.502434 7.698135 -100.283676

v -79.586487 25.818756 -99.316528

v -108.581146 7.722046 -100.288177

v -79.915436 22.015375 -100.141396

v -84.818756 20.081532 -100.416672

v -89.559280 17.182392 -98.415665

v -91.673203 15.143237 -97.867584

v -106.266754 7.139053 -100.380432

v -82.416214 20.218388 -100.162544

v -96.053192 10.899223 -97.312012

v -103.611221 5.901627 -100.588715

v -99.034622 8.054636 -94.857101

v -156.077667 68.961937 -97.504211

v -153.615204 69.916031 -97.255981

v -150.510300 70.560638 -96.665222

v -149.077942 68.864990 -98.570068

v -160.163773 63.566292 -94.675217

v -168.332275 55.353760 -97.903564

v -166.623169 57.655701 -96.775146

v -171.871979 53.244934 -97.203125

v -140.609589 70.726097 -96.916443

v -173.619339 50.936905 -96.935974

v -133.769424 72.265800 -98.408401

v -129.102814 72.557991 -98.192482

v -126.271393 72.362801 -97.679840

v -124.713715 72.373802 -98.136703

v -176.738831 39.669159 -97.614014

v -176.588440 36.751923 -98.710815

v -119.951157 71.808624 -98.291718

v -117.045807 71.514038 -98.374390

v -113.515991 70.695862 -98.302917

v -172.465958 29.135656 -98.416443

v -106.939194 66.376587 -98.280823

v -104.897888 66.733276 -98.238281

v -170.327835 26.879848 -98.606659

v -102.668625 66.999527 -98.370667

v -167.977356 23.462343 -98.169189

v -98.529823 65.249756 -98.095581

v -165.295898 18.893967 -98.230957

v -88.789268 60.447227 -98.159370

v -93.421219 62.489029 -96.093628

v -161.604492 15.157345 -96.931610

v -159.298019 14.470747 -97.718979

v -157.438751 13.238316 -97.502625

v -155.518417 11.153066 -94.849243

v -154.169022 9.780343 -94.856918

v -148.784485 7.321960 -97.215820

v -79.340744 46.741318 -95.142151

v -132.599365 6.743164 -96.534790

v -75.632561 43.050877 -98.277145

v -130.063507 7.388458 -98.293091

v -126.455696 6.750565 -96.460983

v -80.179749 29.765808 -97.116699

v -118.659767 6.561935 -98.680542

v -111.067398 6.955460 -98.435532

v -81.012817 21.775772 -98.301880

v -109.073227 5.522110 -96.614166

v -86.218948 19.108780 -97.868103

v -83.871185 20.269226 -97.860107

v -104.353363 4.777206 -98.054077

v -100.855103 6.586121 -98.248962

v -102.942535 4.982931 -97.851814

v -157.860748 66.261215 -96.539452

v -147.815521 70.841125 -96.375549

v -161.430359 62.049236 -94.622154

v -144.475647 70.679977 -96.549622

v -175.385223 47.926018 -96.811523

v -137.678070 70.774780 -94.489319

v -133.705154 70.621643 -94.673981

v -177.060028 42.108459 -96.546509

v -122.909103 71.995415 -94.647736

v -120.612617 72.380821 -94.512924

v -177.301056 37.550552 -94.807327

v -116.616951 72.466064 -96.424133

v -177.259262 36.246464 -94.811211

v -111.923088 71.687836 -95.677246

v -109.114197 69.949585 -96.228149

v -173.643768 30.383198 -94.886116

v -104.014938 67.702087 -96.232910

v -171.341660 28.238842 -94.779449

v -100.605904 67.596588 -94.647400

v -162.993713 18.283075 -94.560623

v -88.463608 60.146652 -95.278702

v -85.717522 57.305542 -94.262756

v -152.295990 8.142962 -94.798996

v -81.905846 51.029804 -94.823967

v -144.267914 4.999786 -94.806541

v -141.598419 5.665649 -96.261841

v -78.113464 44.564056 -95.010010

v -76.412018 41.938072 -96.324677

v -76.897598 40.111965 -96.331299

v -129.639526 6.913574 -96.581589

v -77.207199 37.396561 -96.396362

v -78.212708 35.546173 -96.310059

v -79.799561 34.130203 -94.552063

v -80.654434 32.006622 -94.238525

v -122.452812 5.746826 -95.196198

v -118.672623 5.947250 -96.366302

v -81.531677 27.161087 -96.360138

v -112.254585 4.766357 -95.152954

v -81.753754 25.412048 -96.491699

v -82.641357 23.031647 -96.353149

v -93.788231 13.208082 -94.862274

v -94.877441 11.979679 -94.543884

v -96.874840 9.679563 -94.635574

v -155.761368 67.994873 -94.078354

v -150.722214 70.938858 -94.561493

v -157.433121 66.081383 -94.439438

v -147.892563 70.969612 -94.529419

v -145.665451 70.985268 -94.544998

v -163.874298 59.888901 -94.587479

v -167.646027 57.582142 -94.659637

v -166.215668 58.559837 -94.635147

v -141.898514 70.700447 -94.536865

v -169.711487 55.712509 -94.598579

v -171.805054 54.008469 -94.720795

v -172.487167 52.492924 -94.401123

v -174.331207 50.278000 -94.700867

v -175.605209 47.146111 -94.495018

v -177.061630 42.147919 -94.652031

v -129.274689 69.906311 -94.255386

v -177.338562 39.240295 -94.748573

v -117.542381 72.810989 -94.422462

v -108.910324 70.498528 -94.351547

v -105.745178 69.129677 -93.382309

v -169.910858 26.723667 -94.850082

v -167.760712 24.466042 -94.583679

v -96.852692 65.792091 -93.793747

v -165.972443 22.698887 -94.435211

v -160.145447 14.636219 -94.914948

v -158.323364 13.414564 -94.748199

v -156.735809 12.230844 -94.797028

v -149.889709 6.905448 -94.688797

v -141.583954 3.852875 -94.697426

v -78.391235 42.033020 -94.146973

v -80.086548 37.217331 -92.621948

v -138.385529 3.166016 -94.477600

v -129.507568 4.244873 -93.631348

v -81.534607 28.354980 -94.395203

v -118.806450 3.343262 -92.735138

v -82.418640 25.386566 -94.422760

v -83.397186 23.209839 -94.470276

v -85.984772 20.221573 -94.544281

v -111.029068 4.189873 -94.148560

v -90.540588 16.785095 -94.309753

v -108.429764 4.570183 -94.732674

v -91.741913 15.159061 -94.578918

v -105.773506 4.285057 -94.614334

v -99.575577 7.322029 -94.620300

v -104.454750 4.395721 -94.632072

v -150.490509 69.483887 -93.694542

v -146.083939 69.570831 -93.627266

v -156.469147 65.195084 -93.676849

v -159.477997 62.066986 -93.724037

v -151.315735 60.500462 -93.503578

v -166.519455 57.532700 -93.964737

v -162.702484 55.749924 -93.375412

v -168.799667 55.147129 -93.798416

v -140.699738 69.590851 -93.791016

v -154.201096 58.653614 -93.388229

v -173.295837 49.458694 -93.885399

v -168.282562 52.126411 -93.476929

v -139.408234 67.385742 -93.316368

v -145.364227 64.967560 -93.442642

v -133.817780 68.923004 -93.239914

v -166.490601 51.012848 -92.143272

v -157.900269 55.046143 -91.687408

v -173.369827 44.245758 -93.429077

v -139.812103 64.863190 -91.888107

v -146.811493 60.459137 -91.605423

v -170.299255 44.863800 -91.749939

v -129.091736 68.512039 -91.101318

v -123.676239 70.856567 -92.662476

v -175.578064 38.532364 -93.491058

v -119.334702 70.898987 -90.977264

v -115.492584 71.905960 -92.469315

v -171.799881 32.863937 -92.286766

v -172.068359 38.681496 -91.211304

v -111.188469 71.090805 -92.500847

v -107.966782 69.860458 -92.313644

v -169.036255 30.134888 -92.342758

v -100.742744 68.160973 -92.501068

v -162.719208 24.027527 -93.271667

v -162.219360 26.209076 -91.883163

v -159.896667 21.248791 -93.195175

v -160.117981 16.073074 -93.986923

v -91.922897 61.638195 -89.097618

v -155.732300 13.384491 -93.801926

v -157.141693 17.936985 -92.799896

v -155.314377 15.406700 -92.843414

v -153.455612 13.892254 -92.801765

v -83.010910 52.950871 -91.959534

v -154.100266 10.822784 -94.212524

v -151.255890 12.235020 -92.832405

v -151.938568 9.503906 -94.028732

v -149.065292 10.653900 -92.804993

v -80.119965 47.462276 -91.981934

v -146.390991 6.238581 -93.764725

v -79.555908 44.853462 -91.421387

v -142.555298 4.399065 -92.243164

v -140.465591 2.870300 -92.675674

v -138.314331 1.702667 -92.601410

v -136.747086 1.710251 -92.785934

v -133.615311 1.965714 -92.785965

v -130.846970 2.625793 -92.475616

v -81.769165 31.883339 -92.614746

v -83.254242 28.652374 -92.450439

v -121.518036 2.940811 -92.695847

v -84.781128 26.021057 -92.456116

v -85.689346 24.380325 -92.547546

v -87.879868 21.790695 -92.507263

v -114.372406 3.762463 -92.291702

v -89.975830 19.674072 -92.528366

v -91.650131 17.499069 -92.499054

v -93.480255 15.589058 -92.538971

v -94.951736 13.698090 -92.513733

v -109.114891 4.780746 -92.732330

v -96.813812 11.766296 -92.561401

v -107.086517 5.537582 -92.747467

v -100.406845 9.603729 -92.472809

v -149.845734 57.695206 -90.053268

v -154.717010 55.347961 -90.483124

v -159.234055 52.656166 -91.082901

v -162.551147 50.072803 -91.267822

v -168.696899 44.823074 -90.831467

v -133.706329 65.469574 -91.198502

v -139.449509 61.032669 -91.427704

v -171.393860 41.097466 -91.039001

v -125.584190 68.749649 -88.273117

v -140.693695 58.311356 -89.825211

v -135.709503 59.844555 -89.708473

v -170.301178 39.452915 -88.733688

v -110.931496 69.006981 -90.494339

v -169.369324 34.605911 -91.137169

v -107.464783 69.105072 -90.996284

v -166.408035 33.145622 -91.058823

v -163.018509 31.584476 -91.076538

v -101.862854 67.559624 -90.008705

v -99.246750 66.633041 -90.076317

v -161.078827 27.479342 -90.864944

v -96.578735 65.570320 -90.758293

v -160.650543 24.478638 -91.214569

v -157.574738 19.572510 -90.864868

v -90.492233 60.721737 -88.860321

v -86.748398 58.069759 -86.695663

v -154.842102 15.751656 -90.904984

v -152.286575 13.724152 -90.820442

v -148.706360 11.911135 -90.718544

v -144.171219 10.225307 -88.146309

v -144.731689 8.045532 -90.344727

v -80.296631 40.441315 -88.617432

v -81.558426 37.449844 -86.968964

v -82.539474 32.618286 -88.574524

v -133.325897 1.229401 -90.565735

v -136.658432 0.571852 -88.953995

v -127.158913 0.699371 -88.974640

v -123.471375 2.527344 -91.379517

v -83.938797 28.923279 -88.654358

v -85.254486 26.984528 -88.612061

v -87.232635 24.073883 -88.844574

v -88.640320 21.906734 -88.737137

v -120.700066 2.374135 -89.015114

v -118.384476 2.937080 -88.944801

v -116.474510 3.273866 -88.970932

v -90.454590 19.436892 -88.767906

v -93.589394 16.050417 -88.783951

v -110.807297 4.429630 -88.868622

v -97.380310 11.928352 -88.891586

v -100.654625 9.908211 -88.855301

v -151.808929 54.462830 -89.378326

v -159.644867 48.493851 -88.247726

v -168.144104 43.186539 -88.450844

v -132.316132 64.646782 -88.614914

v -151.183548 51.916550 -87.874283

v -124.042267 69.676979 -88.668518

v -170.105896 40.682602 -88.879715

v -121.796867 69.820496 -88.703094

v -133.913300 61.137787 -88.602768

v -144.301483 52.725143 -89.706070

v -118.591019 69.889297 -88.637856

v -145.738251 49.739487 -87.902473

v -131.866562 58.104279 -87.898285

v -168.163620 34.893074 -89.015778

v -137.535019 52.560272 -89.615181

v -133.027115 56.301971 -89.474091

v -137.785034 50.207428 -87.945419

v -110.506401 68.073318 -86.714668

v -127.641113 55.480408 -89.639572

v -165.785278 33.437759 -88.981827

v -124.197632 58.575348 -87.801735

v -120.174789 55.420807 -89.538780

v -132.164215 49.489624 -89.642120

v -162.442871 32.188751 -88.629738

v -116.430298 56.419403 -87.880981

v -160.566818 28.341579 -88.960533

v -116.793243 53.229965 -89.505280

v -117.132660 49.625595 -89.578308

v -130.381195 44.537125 -87.742393

v -128.216339 45.241364 -89.381561

v -122.370316 46.526672 -89.602737

v -159.753342 26.283094 -88.405540

v -113.925934 51.355812 -87.891739

v -159.860413 24.395315 -88.970665

v -126.089668 44.202080 -88.781891

v -93.601761 63.254341 -86.623421

v -122.562881 44.869972 -88.455582

v -117.559448 47.045319 -88.578003

v -157.341232 20.084476 -88.999802

v -88.530678 59.715580 -86.519997

v -155.629028 20.193848 -88.167084

v -149.728027 15.652100 -89.440979

v -146.848022 16.369888 -88.115051

v -81.993073 47.692348 -87.277527

v -80.863708 46.262543 -88.541992

v -81.323303 44.297211 -87.121582

v -141.151031 4.311310 -88.779114

v -138.030670 1.386235 -87.526245

v -133.557037 0.128265 -88.825882

v -131.153870 0.379532 -88.902344

v -128.856262 0.311317 -88.886391

v -124.952026 1.116756 -87.417152

v -91.962402 17.818184 -88.747711

v -113.060616 4.270683 -88.824989

v -94.752060 14.268608 -88.806244

v -106.307388 6.756668 -88.797623

v -130.937103 64.179222 -87.782227

v -159.848999 46.706238 -87.908844

v -168.369461 40.905197 -87.956161

v -120.611084 68.844238 -87.919403

v -122.444176 63.664162 -87.546677

v -117.732773 68.149399 -86.870781

v -166.515350 35.443817 -88.045227

v -117.554146 66.166626 -85.830948

v -112.900368 67.892982 -86.615196

v -161.357666 33.542877 -87.948456

v -120.822830 59.564087 -87.565231

v -119.460098 62.051193 -85.802422

v -105.631233 66.821465 -86.221527

v -116.871277 58.987549 -87.406677

v -147.555817 36.121628 -87.850319

v -110.590759 61.642853 -85.892838

v -102.549500 66.332382 -86.548309

v -141.463455 41.139709 -87.793457

v -132.673096 43.058655 -87.681725

v -152.166138 30.288982 -87.856468

v -108.989723 58.913971 -87.616821

v -159.161301 28.367729 -88.015640

v -99.714027 64.766800 -85.017426

v -96.589844 63.843845 -84.888710

v -139.786087 39.055664 -86.118233

v -152.704254 27.313559 -87.613358

v -128.255142 43.359676 -85.158234

v -150.066498 28.517933 -86.080704

v -152.910553 24.755234 -87.714447

v -126.352753 43.588722 -85.255089

v -103.448212 54.437939 -87.589020

v -102.683289 58.359863 -85.798706

v -125.280327 43.830917 -85.040146

v -91.579758 61.968517 -86.692970

v -105.425018 51.439159 -87.651054

v -114.236496 48.924805 -87.681465

v -115.146240 45.937256 -85.757980

v -120.960320 44.389965 -85.530701

v -89.949699 60.961601 -86.505371

v -101.438492 53.302094 -86.303947

v -108.055466 46.322388 -86.929764

v -150.756287 22.950378 -87.769089

v -150.023743 25.232422 -86.166992

v -104.761208 49.480499 -87.069870

v -103.561691 50.278896 -86.268127

v -103.172241 48.023407 -85.788811

v -143.490326 21.593414 -87.817154

v -142.276291 18.146774 -87.739304

v -83.518112 51.416435 -84.717873

v -141.025238 22.838760 -86.142136

v -142.498596 8.270599 -87.552673

v -81.917816 40.117554 -86.016296

v -82.994202 35.421326 -86.401245

v -135.819214 0.603588 -86.669281

v -84.302856 31.582581 -86.619751

v -109.273254 16.875366 -87.798599

v -106.388626 18.709686 -86.949554

v -109.278137 18.762390 -86.852966

v -87.727463 28.820801 -86.242798

v -93.909027 22.596100 -87.418472

v -91.386475 25.058716 -87.523895

v -92.859192 26.283203 -86.154907

v -132.332001 -0.338356 -85.483459

v -88.495361 24.359131 -87.916748

v -100.841690 16.853363 -87.752670

v -111.901733 14.354004 -86.320801

v -109.649597 11.156082 -87.670700

v -101.701630 18.042969 -87.251953

v -97.471741 19.792555 -87.510086

v -91.630920 19.987213 -87.929779

v -101.986404 10.532379 -87.924606

v -97.322906 13.782990 -87.883331

v -113.400146 10.179585 -85.096619

v -112.738922 7.847443 -87.213806

v -121.875961 1.972270 -86.014557

v -106.416412 8.055939 -87.961548

v -113.430298 5.411682 -87.905090

v -114.617310 6.135094 -86.904724

v -118.135025 3.796677 -87.106812

v -111.348389 66.774231 -85.855118

v -103.675827 63.323357 -85.397690

v -99.944160 63.427780 -83.918732

v -144.959656 34.545952 -86.006996

v -132.326797 40.301987 -85.790657

v -93.167778 62.003616 -84.750687

v -129.843552 41.428356 -84.287773

v -134.699631 34.733459 -85.786873

v -123.319176 44.531754 -83.107300

v -131.496429 36.779137 -84.305779

v -98.206726 53.103558 -85.682480

v -118.882866 44.839111 -83.833061

v -136.792282 30.308346 -85.763725

v -115.897125 44.853973 -84.763885

v -90.280899 60.243912 -84.646545

v -138.294922 25.776627 -85.863853

v -133.119293 31.711157 -83.672119

v -87.277908 57.559998 -84.753082

v -112.675430 40.476311 -84.845779

v -107.570976 44.941925 -85.954803

v -111.627686 41.395248 -85.720001

v -136.010437 27.396408 -84.483238

v -108.227295 39.231781 -85.799927

v -110.726334 39.275833 -84.994202

v -138.169617 21.970230 -85.594849

v -90.300858 49.374344 -85.612930

v -138.591705 17.743996 -85.237312

v -108.052124 35.073212 -84.896347

v -89.163452 42.222229 -85.686584

v -105.990387 33.165604 -85.792831

v -87.800842 45.880192 -84.051178

v -82.745567 48.757545 -84.759995

v -139.806534 14.028904 -85.055740

v -106.943649 31.831627 -84.855843

v -82.933105 46.658871 -84.304901

v -140.435913 10.706871 -84.592468

v -97.385483 32.235672 -85.755295

v -82.215088 44.416794 -84.643097

v -102.512329 31.526680 -84.806366

v -140.030640 7.469147 -83.995850

v -81.626648 42.533752 -84.784607

v -93.929474 29.708138 -85.669724

v -83.271042 39.484985 -85.678741

v -82.309814 40.557632 -84.776581

v -84.165710 42.507568 -83.706772

v -99.256256 30.734253 -84.232483

v -85.243256 32.587494 -85.818787

v -137.950684 3.009644 -84.792480

v -110.575401 20.790253 -84.856262

v -113.469406 18.821320 -85.127869

v -105.419449 19.899536 -84.790649

v -115.639832 15.801071 -85.307159

v -116.887428 14.592954 -84.920364

v -115.063782 13.306269 -85.211578

v -94.770935 25.345627 -84.267700

v -135.962158 1.989130 -81.119446

v -94.578506 23.780045 -84.857285

v -99.245598 21.278687 -84.578918

v -127.598503 -1.439823 -83.107635

v -113.579163 8.160759 -84.882965

v -117.257019 5.159882 -83.114868

v -119.373497 2.896895 -83.403908

v -101.284698 61.113792 -84.003098

v -93.348312 60.776306 -83.861710

v -95.650909 54.695313 -83.885872

v -124.908913 42.832672 -83.812447

v -120.486526 44.834324 -82.976616

v -126.550873 38.293533 -83.714424

v -122.624619 43.390961 -82.216125

v -117.782234 44.941582 -82.906517

v -115.500076 43.823227 -82.971222

v -88.115082 56.485565 -83.827240

v -115.242172 42.266953 -81.859756

v -126.092499 34.678082 -82.102989

v -131.429276 30.504971 -82.173660

v -112.600761 40.454193 -82.991463

v -88.520081 51.182358 -83.955544

v -132.335281 25.076317 -82.428032

v -110.798248 39.040169 -82.935127

v -135.701813 21.927505 -83.553696

v -84.798401 50.478104 -83.854828

v -109.148621 37.514393 -82.999756

v -133.955322 20.444595 -82.231422

v -137.031570 18.892471 -83.112457

v -108.155914 34.897755 -83.102180

v -138.114105 14.242783 -81.154160

v -108.183594 31.721344 -82.440979

v -104.213615 30.782654 -82.913277

v -100.706329 30.560020 -82.865211

v -98.183594 28.224808 -83.371277

v -110.668243 21.608032 -83.195435

v -113.936432 19.175690 -83.074432

v -107.671707 21.863281 -83.642822

v -106.369423 24.356781 -82.083923

v -116.168427 16.193882 -83.090393

v -99.797485 26.281677 -82.448792

v -99.689392 24.201355 -83.554077

v -117.571411 14.783119 -81.011902

v -116.790298 13.436588 -81.408081

v -114.294006 11.383705 -83.047516

v -134.134506 0.422501 -81.294342

v -130.782898 -0.859475 -81.402100

v -114.197388 8.369247 -83.093964

v -126.026131 -1.453594 -83.063232

v -121.628136 0.837249 -83.194275

v -123.322937 -0.306945 -83.113243

v -124.571136 37.412987 -82.231102

v -119.026352 39.476814 -81.823227

v -120.310242 34.116821 -81.962936

v -114.078117 42.031998 -81.065422

v -111.726906 40.761147 -81.174957

v -117.516800 37.550758 -80.268219

v -110.271935 39.748653 -80.946396

v -116.872925 33.219208 -80.181213

v -108.002182 37.372093 -80.972435

v -126.426926 23.386017 -81.983955

v -107.481712 35.093750 -80.944778

v -117.066383 30.344086 -81.904541

v -108.058952 33.942337 -81.031418

v -109.512299 33.971832 -80.143707

v -109.618225 31.098297 -81.849609

v -119.643250 21.143524 -81.949493

v -133.603180 16.969879 -80.272919

v -107.273895 30.140686 -82.153763

v -124.559387 20.699402 -80.223076

v -139.283539 10.254126 -81.220291

v -113.782196 21.637039 -82.105858

v -100.929626 29.071243 -82.001648

v -139.212952 7.260830 -81.252266

v -117.019897 17.486115 -82.109985

v -120.408051 17.652889 -80.196030

v -117.130371 8.577942 -80.766357

v -118.489914 4.304283 -81.079514

v -127.049049 -1.265022 -81.253014

v -122.559067 0.735245 -81.069748

v -112.299538 40.350555 -80.212952

v -108.807465 37.154911 -80.366058

v -137.708832 12.008072 -80.281357

v -137.445511 6.716446 -80.283630

v -131.775146 1.248856 -80.265015

v -117.945862 11.746674 -80.238556

v -120.582977 4.061188 -80.223106

v -127.562408 0.219666 -80.338043

f 1 2 3
f 4 1 3
f 5 3 2
f 4 3 6
f 7 4 6
f 8 7 9
f 6 9 7
f 3 10 6
f 8 11 12
f 3 5 10
f 8 9 13
f 13 14 8
f 11 8 14
f 6 10 15
f 9 6 15
f 5 16 10
f 16 5 17
f 18 16 17
f 19 17 5
f 16 18 20
f 18 21 20
f 22 17 19
f 18 17 22
f 18 22 23
f 23 21 18
f 24 1 25
f 26 25 1
f 26 27 28
f 27 26 29
f 30 1 24
f 1 29 26
f 2 1 30
f 29 1 7
f 31 12 32
f 12 33 32
f 1 4 7
f 31 29 8
f 29 7 8
f 12 31 8
f 12 11 33
f 2 30 5
f 10 16 15
f 34 14 13
f 9 15 35
f 13 9 35
f 34 13 35
f 19 5 36
f 15 20 35
f 15 16 20
f 20 37 35
f 37 20 21
f 23 38 21
f 37 21 39
f 38 39 21
f 40 41 42
f 40 43 44
f 41 40 44
f 45 46 44
f 46 47 44
f 46 45 48
f 47 46 49
f 49 46 48
f 50 51 52
f 50 53 51
f 53 50 54
f 54 50 55
f 54 56 53
f 57 58 59
f 60 59 58
f 60 61 50
f 61 60 58
f 61 55 50
f 62 57 63
f 58 57 64
f 64 65 58
f 55 66 54
f 64 57 67
f 58 68 61
f 69 55 61
f 56 54 66
f 66 70 56
f 62 67 57
f 65 68 58
f 71 72 73
f 73 25 71
f 25 26 71
f 74 71 26
f 26 62 74
f 75 66 55
f 26 28 62
f 61 68 76
f 76 69 61
f 66 75 70
f 77 25 73
f 77 24 25
f 78 28 32
f 27 32 28
f 79 30 77
f 24 77 30
f 32 33 78
f 29 31 27
f 31 32 27
f 79 80 30
f 11 81 33
f 80 5 30
f 80 36 5
f 14 82 11
f 82 14 34
f 34 35 83
f 36 84 19
f 83 35 37
f 84 85 19
f 19 85 86
f 22 19 86
f 87 22 86
f 23 22 87
f 88 37 39
f 87 89 23
f 89 38 23
f 39 38 89
f 90 42 91
f 90 92 40
f 40 42 90
f 40 92 43
f 41 93 42
f 91 42 93
f 94 95 96
f 43 96 45
f 44 43 45
f 93 41 97
f 41 44 98
f 98 99 41
f 97 41 99
f 100 96 95
f 100 45 96
f 98 44 47
f 99 101 97
f 102 97 101
f 103 98 47
f 101 104 102
f 105 48 100
f 48 45 100
f 103 47 49
f 49 106 103
f 107 104 101
f 48 105 108
f 108 109 48
f 109 49 48
f 106 49 109
f 110 111 112
f 52 113 111
f 110 52 111
f 52 114 113
f 114 115 113
f 51 114 52
f 116 117 118
f 52 110 60
f 118 119 116
f 51 53 114
f 117 59 110
f 60 110 59
f 120 114 53
f 60 50 52
f 116 119 63
f 117 116 63
f 63 59 117
f 63 57 59
f 120 53 56
f 119 121 122
f 63 119 122
f 122 62 63
f 72 74 123
f 74 62 122
f 124 56 70
f 72 125 73
f 74 72 71
f 67 126 64
f 65 64 126
f 126 127 65
f 69 128 55
f 126 67 129
f 55 128 75
f 62 129 67
f 68 65 127
f 76 128 69
f 129 62 28
f 130 75 128
f 131 77 73
f 132 133 127
f 68 127 133
f 133 76 68
f 70 75 130
f 130 134 70
f 124 70 134
f 129 28 78
f 133 135 76
f 128 76 135
f 135 130 128
f 77 131 79
f 131 136 79
f 78 33 81
f 79 136 80
f 81 11 82
f 36 80 137
f 137 84 36
f 37 138 83
f 138 37 139
f 37 88 139
f 88 39 140
f 141 89 87
f 140 39 89
f 142 143 144
f 145 146 147
f 148 149 146
f 147 146 149
f 142 150 151
f 143 142 151
f 149 148 152
f 153 147 149
f 143 154 155
f 149 152 91
f 156 90 152
f 153 149 91
f 154 143 92
f 151 92 143
f 154 92 90
f 90 156 154
f 90 91 152
f 94 151 157
f 92 151 43
f 94 43 151
f 93 158 91
f 94 96 43
f 94 157 159
f 159 95 94
f 93 160 158
f 160 93 97
f 95 159 161
f 95 161 100
f 160 97 102
f 160 102 162
f 99 98 103
f 103 107 99
f 162 102 163
f 101 99 107
f 102 104 163
f 100 161 105
f 103 164 107
f 165 163 166
f 105 161 167
f 104 166 163
f 107 166 104
f 164 103 168
f 107 164 169
f 166 107 169
f 106 168 103
f 168 169 164
f 105 109 108
f 106 109 170
f 105 170 109
f 170 168 106
f 170 105 171
f 172 168 170
f 173 174 175
f 176 177 178
f 175 111 173
f 179 178 177
f 178 179 113
f 112 111 175
f 113 115 178
f 111 113 179
f 118 180 181
f 180 112 175
f 117 112 180
f 117 180 118
f 118 181 182
f 117 110 112
f 182 119 118
f 182 121 119
f 183 121 182
f 122 121 183
f 183 123 74
f 122 183 74
f 124 184 56
f 123 125 72
f 124 185 184
f 186 73 125
f 129 132 126
f 127 126 132
f 73 186 131
f 129 187 132
f 124 188 185
f 124 134 188
f 131 186 189
f 129 78 187
f 135 133 190
f 130 135 191
f 133 132 192
f 190 133 192
f 191 193 130
f 134 130 193
f 188 134 193
f 192 132 187
f 131 189 136
f 78 194 187
f 192 187 194
f 195 136 189
f 81 194 78
f 80 136 195
f 81 196 194
f 80 195 197
f 196 81 82
f 80 197 137
f 82 198 196
f 199 197 200
f 197 199 137
f 199 200 201
f 202 201 200
f 203 201 202
f 84 137 199
f 34 198 82
f 201 203 204
f 199 85 84
f 83 138 34
f 198 34 138
f 201 85 199
f 204 205 201
f 85 201 205
f 138 206 198
f 207 86 85
f 205 207 85
f 206 138 139
f 88 208 139
f 86 141 87
f 140 89 209
f 210 144 211
f 212 211 144
f 213 210 214
f 144 215 212
f 210 213 150
f 142 144 210
f 216 150 213
f 150 142 210
f 215 144 155
f 143 155 144
f 217 215 155
f 145 218 146
f 145 219 218
f 216 220 150
f 148 221 152
f 219 145 147
f 147 222 219
f 222 223 219
f 153 222 147
f 155 156 217
f 224 220 216
f 151 150 220
f 154 156 155
f 152 217 156
f 224 216 225
f 153 226 222
f 220 157 151
f 227 222 226
f 226 228 227
f 91 158 153
f 158 226 153
f 226 229 228
f 229 230 228
f 230 229 231
f 232 233 234
f 157 220 224
f 235 231 229
f 157 224 159
f 226 158 160
f 235 229 236
f 234 225 232
f 160 162 226
f 229 226 162
f 235 236 237
f 238 234 233
f 225 174 224
f 224 161 159
f 239 237 236
f 165 229 162
f 239 236 240
f 240 241 239
f 225 234 174
f 163 165 162
f 165 236 229
f 165 242 236
f 224 174 243
f 224 243 161
f 240 236 242
f 240 244 241
f 174 234 245
f 243 167 161
f 242 246 240
f 245 234 247
f 246 242 248
f 244 240 246
f 165 166 242
f 169 242 166
f 174 245 249
f 105 167 171
f 169 250 242
f 249 181 174
f 167 243 171
f 251 252 242
f 252 248 242
f 169 168 253
f 170 171 254
f 246 248 255
f 249 245 256
f 174 173 243
f 172 170 254
f 168 172 253
f 257 242 250
f 250 169 258
f 255 259 246
f 171 243 173
f 253 172 254
f 254 171 179
f 253 176 169
f 252 260 248
f 255 248 260
f 171 173 179
f 258 169 176
f 257 250 261
f 252 257 260
f 253 254 177
f 258 261 250
f 179 177 254
f 176 253 177
f 260 259 255
f 259 260 262
f 249 182 181
f 263 264 176
f 258 176 264
f 182 249 265
f 111 179 173
f 181 180 174
f 180 175 174
f 263 176 178
f 262 260 266
f 266 267 262
f 115 263 178
f 261 266 260
f 268 264 263
f 266 261 269
f 115 268 263
f 267 266 270
f 269 270 266
f 268 115 114
f 268 114 120
f 120 271 268
f 272 273 274
f 272 275 273
f 265 276 277
f 182 265 277
f 278 279 275
f 182 277 183
f 271 120 56
f 280 279 278
f 183 277 123
f 275 272 278
f 280 125 277
f 123 277 125
f 281 282 283
f 284 285 272
f 56 184 271
f 278 272 285
f 186 280 278
f 285 284 283
f 285 186 278
f 186 125 280
f 186 285 286
f 283 282 287
f 188 288 185
f 186 286 189
f 289 290 287
f 285 291 286
f 135 292 191
f 188 193 288
f 285 283 291
f 191 293 193
f 288 193 293
f 294 292 190
f 292 135 190
f 189 286 195
f 192 294 190
f 291 195 286
f 294 192 194
f 295 287 290
f 283 287 295
f 295 291 283
f 294 194 196
f 295 290 296
f 291 197 195
f 196 297 294
f 297 196 198
f 200 197 291
f 295 298 202
f 202 200 291
f 291 295 202
f 295 296 299
f 299 298 295
f 300 296 301
f 299 296 300
f 302 299 300
f 298 299 303
f 298 203 202
f 304 198 206
f 305 304 206
f 306 299 302
f 303 299 306
f 298 307 203
f 204 203 307
f 204 307 308
f 207 309 86
f 310 303 306
f 298 303 311
f 205 204 308
f 205 309 207
f 206 139 312
f 312 313 206
f 308 314 205
f 314 309 205
f 208 312 139
f 86 309 141
f 88 140 208
f 315 141 309
f 140 209 316
f 316 208 140
f 315 317 141
f 209 89 141
f 317 316 141
f 209 141 316
f 318 319 320
f 321 320 319
f 318 214 319
f 322 321 319
f 319 211 322
f 318 323 214
f 212 322 211
f 324 322 212
f 210 211 319
f 319 214 210
f 324 212 215
f 323 213 214
f 325 213 323
f 326 215 217
f 325 327 216
f 216 213 325
f 328 326 217
f 221 328 217
f 221 148 146
f 217 152 221
f 329 330 232
f 329 225 327
f 225 216 327
f 329 232 225
f 331 223 222
f 332 232 330
f 227 331 222
f 333 232 332
f 334 232 333
f 232 334 233
f 335 233 334
f 230 231 336
f 231 235 336
f 233 335 238
f 337 238 335
f 238 337 338
f 338 339 238
f 234 238 339
f 339 247 234
f 340 339 338
f 244 341 241
f 339 342 247
f 244 246 343
f 340 342 339
f 246 344 343
f 342 256 247
f 245 247 256
f 257 252 251
f 345 342 340
f 242 257 251
f 346 273 340
f 340 273 345
f 344 246 259
f 345 256 342
f 347 344 259
f 348 346 349
f 347 259 350
f 261 258 264
f 346 348 351
f 249 256 345
f 262 350 259
f 352 351 348
f 261 260 257
f 345 265 249
f 353 354 264
f 261 264 354
f 352 355 351
f 350 262 267
f 346 274 273
f 356 355 352
f 355 281 351
f 268 353 264
f 357 261 354
f 357 269 261
f 351 281 346
f 345 276 265
f 281 274 346
f 273 279 345
f 353 268 271
f 354 353 358
f 267 270 359
f 357 360 269
f 360 270 269
f 357 354 361
f 355 356 362
f 279 276 345
f 363 359 270
f 274 281 284
f 361 360 357
f 360 363 270
f 362 364 355
f 281 355 364
f 275 279 273
f 284 272 274
f 277 276 280
f 365 363 360
f 364 282 281
f 276 279 280
f 358 353 366
f 287 282 364
f 271 366 353
f 362 287 364
f 284 281 283
f 366 271 184
f 366 367 358
f 367 368 358
f 369 287 362
f 287 369 370
f 367 371 368
f 366 184 185
f 287 370 289
f 372 366 185
f 367 366 372
f 372 185 288
f 371 367 373
f 289 370 374
f 372 373 367
f 288 373 372
f 293 375 288
f 373 288 375
f 289 374 376
f 191 292 377
f 377 378 191
f 293 191 378
f 375 293 378
f 376 290 289
f 290 376 379
f 378 377 380
f 290 379 296
f 292 294 297
f 377 292 297
f 377 297 381
f 379 301 296
f 380 377 382
f 381 382 377
f 297 198 304
f 304 381 297
f 381 304 383
f 382 381 383
f 302 300 384
f 383 304 385
f 384 386 302
f 305 385 304
f 306 302 386
f 386 387 306
f 313 305 206
f 306 387 310
f 307 298 311
f 305 313 388
f 311 303 310
f 307 311 389
f 312 388 313
f 387 390 310
f 307 389 308
f 390 391 310
f 392 312 208
f 391 393 310
f 311 310 393
f 389 394 308
f 314 308 394
f 309 314 394
f 394 395 309
f 395 315 309
f 316 392 208
f 392 316 396
f 317 397 316
f 397 396 316
f 398 318 320
f 399 320 321
f 318 398 400
f 318 400 401
f 402 322 324
f 401 323 318
f 324 403 402
f 323 401 404
f 324 215 405
f 404 325 323
f 215 326 406
f 406 405 215
f 326 328 407
f 407 406 326
f 408 407 328
f 325 409 327
f 328 221 408
f 327 410 411
f 327 409 410
f 412 408 221
f 218 413 414
f 413 218 219
f 413 219 223
f 223 415 413
f 411 329 327
f 221 414 412
f 414 221 146
f 146 218 414
f 330 411 416
f 411 330 329
f 330 416 332
f 415 223 331
f 417 415 331
f 331 227 417
f 227 418 417
f 227 228 418
f 333 419 334
f 419 420 334
f 228 421 418
f 228 230 421
f 336 421 230
f 420 335 334
f 420 422 335
f 423 336 235
f 337 335 422
f 235 237 423
f 424 337 422
f 424 338 337
f 239 425 237
f 338 424 426
f 241 425 239
f 241 341 425
f 426 340 338
f 427 340 426
f 244 428 341
f 340 427 349
f 428 244 343
f 343 429 428
f 349 427 430
f 349 346 340
f 429 343 344
f 344 347 429
f 430 431 348
f 430 348 349
f 432 347 350
f 352 348 431
f 350 433 432
f 356 352 431
f 350 267 433
f 434 433 267
f 267 359 434
f 362 356 435
f 361 354 368
f 359 436 434
f 358 368 354
f 359 363 436
f 365 360 361
f 437 436 363
f 365 361 368
f 365 438 363
f 438 437 363
f 368 371 365
f 371 439 365
f 438 365 439
f 369 440 370
f 439 441 438
f 441 439 442
f 439 371 442
f 442 371 443
f 373 443 371
f 443 373 444
f 375 444 373
f 444 375 445
f 446 374 447
f 446 376 374
f 375 378 445
f 378 448 445
f 448 378 380
f 376 446 379
f 446 449 379
f 449 450 379
f 301 379 450
f 380 382 451
f 300 301 450
f 450 384 300
f 452 382 383
f 383 453 452
f 453 383 385
f 385 305 454
f 454 453 385
f 305 455 454
f 388 312 456
f 456 455 388
f 305 388 455
f 387 457 390
f 312 458 456
f 391 390 457
f 457 459 391
f 460 461 311
f 389 311 461
f 394 389 461
f 461 462 394
f 463 312 392
f 312 463 458
f 393 460 311
f 394 462 395
f 393 391 459
f 460 393 464
f 463 392 396
f 459 464 393
f 395 465 315
f 396 466 463
f 465 317 315
f 467 397 317
f 396 397 466
f 468 469 398
f 468 398 320
f 398 469 400
f 320 399 468
f 400 470 471
f 321 472 399
f 322 472 321
f 402 472 322
f 471 401 400
f 404 471 409
f 324 405 403
f 405 406 407
f 401 471 404
f 407 473 474
f 404 409 325
f 475 473 414
f 409 476 410
f 408 473 407
f 475 413 477
f 408 412 473
f 412 414 473
f 413 475 414
f 478 411 410
f 415 477 413
f 478 416 411
f 332 416 479
f 332 479 480
f 480 333 332
f 481 333 480
f 482 417 418
f 419 333 481
f 482 418 483
f 483 418 421
f 421 336 483
f 419 484 420
f 485 422 484
f 420 484 422
f 336 423 483
f 422 485 424
f 486 424 485
f 424 486 426
f 237 425 423
f 487 425 341
f 488 427 426
f 341 428 487
f 488 489 427
f 487 428 490
f 489 491 427
f 428 429 490
f 491 430 427
f 490 429 492
f 491 493 430
f 429 347 492
f 430 493 431
f 494 492 347
f 494 347 432
f 494 432 433
f 495 356 496
f 431 496 356
f 356 495 435
f 434 497 433
f 497 434 498
f 499 498 434
f 434 436 499
f 436 437 500
f 500 437 438
f 438 501 500
f 369 362 440
f 438 441 501
f 441 442 502
f 440 503 370
f 374 370 503
f 374 503 447
f 504 444 445
f 447 505 446
f 448 504 445
f 380 506 448
f 504 448 506
f 505 449 446
f 380 451 506
f 507 506 451
f 452 451 382
f 384 508 386
f 452 453 509
f 454 509 453
f 509 454 455
f 508 387 386
f 387 508 457
f 455 456 510
f 458 510 456
f 457 511 459
f 463 512 458
f 513 461 460
f 460 464 514
f 460 514 513
f 464 459 511
f 511 514 464
f 462 465 395
f 512 463 515
f 515 463 466
f 467 317 465
f 467 516 397
f 515 466 517
f 516 466 397
f 516 517 466
f 400 469 470
f 518 468 399
f 399 472 518
f 470 519 471
f 402 520 472
f 403 520 402
f 519 521 409
f 471 519 409
f 405 474 403
f 407 474 405
f 409 521 476
f 415 522 477
f 410 523 478
f 478 523 524
f 478 524 416
f 522 415 417
f 479 416 524
f 417 525 522
f 482 525 417
f 481 480 526
f 526 527 419
f 419 481 526
f 527 484 419
f 483 528 482
f 484 527 529
f 483 530 528
f 529 485 484
f 530 483 423
f 529 486 485
f 531 486 529
f 486 531 532
f 423 533 530
f 533 423 425
f 532 426 486
f 425 487 533
f 532 488 426
f 532 534 489
f 489 488 532
f 535 487 490
f 534 491 489
f 491 534 536
f 493 491 536
f 431 493 496
f 494 433 537
f 496 538 495
f 538 435 495
f 433 497 537
f 362 435 539
f 539 440 362
f 499 436 500
f 502 540 441
f 503 440 541
f 443 502 442
f 502 443 542
f 542 443 543
f 543 443 444
f 505 447 544
f 544 545 505
f 543 444 504
f 449 505 545
f 545 546 449
f 504 506 547
f 546 548 449
f 449 548 450
f 506 507 547
f 548 549 450
f 384 450 549
f 549 550 384
f 550 551 384
f 552 451 452
f 451 552 507
f 508 384 551
f 553 452 509
f 452 553 552
f 553 509 455
f 508 554 457
f 553 455 555
f 457 554 556
f 510 555 455
f 557 457 556
f 511 457 557
f 512 510 458
f 511 557 514
f 462 558 465
f 558 559 465
f 467 465 560
f 469 561 562
f 561 469 468
f 562 470 469
f 468 563 561
f 563 468 518
f 562 564 519
f 562 519 470
f 518 472 563
f 519 564 565
f 565 521 519
f 566 520 403
f 567 568 474
f 521 565 569
f 566 403 474
f 474 568 566
f 567 474 473
f 473 570 567
f 473 475 570
f 475 571 570
f 572 571 475
f 569 476 521
f 572 475 477
f 477 573 572
f 410 476 523
f 476 569 523
f 477 522 573
f 522 574 573
f 522 575 574
f 575 522 525
f 576 479 524
f 479 576 480
f 525 482 575
f 577 575 482
f 577 482 528
f 578 529 527
f 531 529 578
f 532 531 579
f 532 579 580
f 487 535 533
f 532 580 534
f 581 535 490
f 490 582 581
f 582 490 492
f 536 583 493
f 492 584 582
f 496 493 583
f 494 537 584
f 584 492 494
f 497 585 537
f 538 539 435
f 497 498 585
f 585 498 586
f 586 498 499
f 586 499 587
f 541 440 539
f 587 499 500
f 540 501 441
f 502 588 540
f 588 502 542
f 447 503 544
f 543 589 542
f 545 544 590
f 590 546 545
f 591 546 590
f 589 543 592
f 548 546 591
f 504 592 543
f 504 547 593
f 591 549 548
f 507 593 547
f 593 507 552
f 508 551 594
f 595 552 553
f 594 554 508
f 594 596 554
f 556 554 596
f 595 553 555
f 556 596 597
f 597 557 556
f 557 597 514
f 597 598 514
f 513 514 598
f 512 599 555
f 555 510 512
f 461 513 598
f 598 600 461
f 599 512 601
f 462 461 600
f 600 602 462
f 602 558 462
f 601 512 603
f 559 560 465
f 512 515 603
f 604 516 467
f 515 605 603
f 517 516 604
f 604 605 517
f 515 517 605
f 562 561 606
f 562 606 564
f 607 564 606
f 608 561 563
f 563 472 608
f 609 472 520
f 607 565 564
f 610 606 561
f 472 609 608
f 520 566 609
f 565 607 569
f 561 608 610
f 611 566 568
f 611 568 567
f 567 570 611
f 606 610 607
f 566 612 609
f 612 566 611
f 611 613 612
f 613 611 570
f 570 571 613
f 614 569 607
f 608 609 610
f 571 572 613
f 615 609 612
f 573 616 572
f 569 614 523
f 613 617 612
f 613 572 617
f 618 614 607
f 607 619 618
f 607 610 619
f 615 610 609
f 572 616 617
f 620 523 614
f 574 616 573
f 614 618 620
f 612 621 622
f 621 612 617
f 523 620 524
f 616 623 617
f 623 616 574
f 622 615 612
f 624 618 619
f 625 619 610
f 617 626 621
f 618 624 620
f 626 617 623
f 524 620 576
f 574 575 623
f 627 576 620
f 576 628 480
f 627 628 576
f 629 623 575
f 628 526 480
f 629 575 577
f 630 527 526
f 526 628 630
f 527 630 578
f 577 528 629
f 528 530 629
f 631 531 578
f 629 632 633
f 632 629 530
f 531 631 634
f 530 533 632
f 634 579 531
f 579 634 635
f 580 579 635
f 535 636 632
f 535 632 533
f 637 534 580
f 637 536 534
f 535 581 636
f 582 636 581
f 636 638 639
f 637 583 536
f 636 582 638
f 584 638 582
f 584 537 638
f 638 537 640
f 537 641 640
f 642 538 496
f 643 640 641
f 644 640 643
f 585 641 537
f 644 643 645
f 585 586 641
f 643 641 586
f 645 643 646
f 587 643 586
f 541 539 647
f 643 500 648
f 500 643 587
f 646 643 649
f 643 650 649
f 643 648 650
f 501 648 500
f 650 648 501
f 501 540 650
f 651 649 650
f 650 588 651
f 588 650 540
f 647 652 541
f 503 541 652
f 653 651 588
f 542 653 588
f 652 654 544
f 544 503 652
f 653 542 655
f 590 544 654
f 655 542 589
f 589 656 655
f 589 592 656
f 656 592 657
f 658 657 592
f 592 504 659
f 658 592 659
f 549 591 550
f 504 593 660
f 660 659 504
f 550 661 551
f 662 551 661
f 594 551 662
f 593 552 663
f 595 663 552
f 594 662 596
f 596 662 664
f 665 597 664
f 597 596 664
f 666 598 665
f 555 667 595
f 665 598 597
f 666 668 598
f 669 600 668
f 668 600 598
f 600 669 670
f 602 600 670
f 670 671 602
f 555 599 667
f 558 602 671
f 599 601 672
f 671 559 558
f 559 671 673
f 672 601 674
f 673 675 560
f 675 674 604
f 560 559 673
f 560 675 467
f 675 604 467
f 674 605 604
f 674 603 605
f 603 674 601
f 619 625 624
f 676 610 615
f 677 615 622
f 678 622 621
f 621 679 678
f 621 680 679
f 676 625 610
f 676 615 677
f 677 622 678
f 680 621 626
f 681 620 624
f 620 681 627
f 624 625 682
f 626 623 683
f 624 682 681
f 683 623 629
f 628 627 684
f 625 685 682
f 680 626 683
f 629 633 683
f 681 682 686
f 578 630 631
f 683 633 687
f 688 631 630
f 633 632 689
f 688 634 631
f 634 688 635
f 690 635 688
f 691 689 632
f 690 580 635
f 691 632 636
f 690 637 580
f 692 691 636
f 637 690 693
f 637 693 694
f 639 692 636
f 694 583 637
f 692 639 695
f 694 696 583
f 639 697 695
f 697 639 638
f 496 583 696
f 696 642 496
f 697 640 698
f 697 638 640
f 698 640 644
f 538 642 699
f 699 700 538
f 539 538 700
f 644 701 698
f 701 644 645
f 701 645 646
f 646 702 701
f 702 646 649
f 649 703 702
f 651 704 703
f 649 651 703
f 651 705 704
f 653 705 651
f 653 655 705
f 654 706 590
f 590 706 591
f 550 591 707
f 550 707 661
f 661 707 708
f 658 659 709
f 709 710 658
f 659 660 709
f 708 662 661
f 593 711 660
f 712 711 593
f 713 714 662
f 664 662 714
f 714 665 664
f 593 663 712
f 666 665 715
f 715 716 666
f 663 717 712
f 663 595 717
f 716 668 666
f 595 718 717
f 595 667 719
f 595 719 718
f 669 668 720
f 670 669 721
f 671 670 721
f 672 722 599
f 671 723 673
f 723 724 673
f 675 673 724
f 674 675 724
f 725 676 677
f 677 678 725
f 726 678 679
f 727 679 680
f 627 728 684
f 728 627 681
f 685 625 676
f 729 725 678
f 726 679 727
f 684 730 628
f 683 727 680
f 727 683 731
f 628 732 630
f 628 730 732
f 728 681 733
f 681 686 733
f 686 682 685
f 685 676 734
f 676 725 734
f 687 731 683
f 630 732 735
f 736 734 725
f 736 725 729
f 686 737 733
f 738 687 633
f 739 685 734
f 735 688 630
f 737 686 740
f 685 739 686
f 633 689 738
f 686 739 740
f 741 734 736
f 739 734 741
f 690 688 742
f 737 740 743
f 691 744 738
f 738 689 691
f 740 739 743
f 745 743 746
f 744 691 692
f 739 747 743
f 692 748 744
f 745 746 749
f 692 750 748
f 750 692 695
f 746 751 749
f 752 746 743
f 747 753 754
f 743 747 754
f 755 752 743
f 755 743 754
f 695 756 750
f 746 752 751
f 756 695 697
f 751 752 757
f 758 756 697
f 754 759 755
f 760 642 696
f 755 759 761
f 758 697 698
f 752 755 762
f 755 761 762
f 698 763 758
f 764 700 699
f 698 765 763
f 698 701 765
f 765 702 766
f 702 765 701
f 700 647 539
f 702 703 766
f 766 703 767
f 768 769 647
f 652 647 769
f 654 652 769
f 654 769 770
f 655 771 705
f 654 770 706
f 771 655 656
f 591 706 707
f 656 772 771
f 772 656 657
f 658 772 657
f 772 658 710
f 710 709 773
f 662 708 713
f 709 660 774
f 773 709 774
f 660 711 775
f 775 774 660
f 714 715 665
f 711 712 776
f 712 717 776
f 668 716 720
f 669 720 777
f 721 669 777
f 778 719 667
f 667 599 778
f 671 721 779
f 778 599 722
f 723 671 779
f 672 674 780
f 780 722 672
f 674 724 780
f 678 726 729
f 728 781 684
f 782 726 727
f 731 783 727
f 784 732 730
f 730 684 784
f 727 783 782
f 732 784 735
f 728 733 781
f 729 726 782
f 781 785 684
f 731 687 783
f 785 784 684
f 786 735 784
f 733 737 781
f 784 785 786
f 787 687 738
f 788 786 785
f 781 745 785
f 687 787 783
f 789 735 786
f 781 737 745
f 787 790 783
f 688 735 789
f 783 790 782
f 688 789 742
f 745 791 785
f 782 790 729
f 738 744 787
f 791 792 785
f 737 743 745
f 793 690 742
f 791 794 792
f 739 741 747
f 795 736 729
f 794 796 792
f 749 791 745
f 797 693 690
f 690 793 797
f 741 736 798
f 787 748 790
f 748 787 744
f 749 794 791
f 795 798 736
f 798 799 741
f 790 800 729
f 801 796 794
f 800 795 729
f 802 790 748
f 803 694 693
f 693 797 803
f 741 753 747
f 790 802 800
f 750 802 748
f 749 801 794
f 753 741 799
f 694 803 804
f 798 805 799
f 795 805 798
f 804 696 694
f 750 756 802
f 749 751 757
f 806 800 802
f 696 804 760
f 749 757 801
f 754 753 807
f 800 808 795
f 807 759 754
f 802 809 806
f 809 802 756
f 759 807 810
f 801 811 812
f 759 813 761
f 759 810 813
f 800 806 808
f 814 642 760
f 801 815 811
f 757 752 816
f 816 752 762
f 801 757 815
f 765 809 756
f 762 817 816
f 761 818 762
f 806 809 808
f 765 756 758
f 758 763 765
f 815 757 816
f 819 699 814
f 642 814 699
f 820 812 811
f 811 815 820
f 816 821 815
f 822 823 809
f 699 819 764
f 815 824 825
f 821 824 815
f 809 765 822
f 824 821 826
f 827 823 822
f 822 765 827
f 765 766 767
f 767 827 765
f 767 828 827
f 700 829 647
f 827 828 830
f 767 704 828
f 768 647 829
f 767 703 704
f 768 770 769
f 704 705 831
f 706 770 832
f 771 831 705
f 707 706 832
f 833 708 707
f 772 710 834
f 833 835 708
f 836 837 838
f 713 708 835
f 834 710 773
f 713 835 839
f 840 841 842
f 843 834 773
f 839 714 713
f 844 839 841
f 845 837 836
f 846 847 836
f 843 773 774
f 839 844 714
f 845 848 837
f 845 849 848
f 836 847 845
f 715 714 844
f 840 850 841
f 841 850 844
f 851 845 847
f 852 849 845
f 847 853 854
f 716 715 844
f 844 850 716
f 850 840 849
f 850 849 852
f 776 717 855
f 856 851 847
f 857 854 858
f 717 718 859
f 859 855 717
f 720 716 850
f 856 847 854
f 857 858 859
f 850 777 720
f 852 845 851
f 856 854 857
f 719 857 859
f 719 859 718
f 850 721 777
f 721 850 852
f 857 719 778
f 721 852 779
f 857 722 856
f 857 778 722
f 852 723 779
f 724 852 851
f 724 851 856
f 780 856 722
f 723 852 724
f 724 856 780
f 786 788 789
f 792 788 785
f 860 789 788
f 789 860 742
f 793 742 860
f 796 860 788
f 796 788 792
f 860 796 793
f 793 861 797
f 861 793 796
f 797 861 803
f 862 803 861
f 796 801 812
f 812 861 796
f 863 805 795
f 864 799 805
f 863 795 808
f 760 804 865
f 866 807 753
f 753 799 866
f 866 799 864
f 867 864 805
f 805 863 867
f 814 760 865
f 813 868 761
f 818 761 868
f 864 867 869
f 812 820 870
f 871 762 818
f 863 872 867
f 823 808 809
f 762 873 817
f 873 762 871
f 819 814 874
f 814 865 874
f 863 808 875
f 808 823 830
f 819 874 764
f 820 815 825
f 816 817 821
f 867 872 876
f 872 863 875
f 808 830 875
f 874 877 764
f 820 825 870
f 873 878 817
f 764 877 700
f 825 826 870
f 824 826 825
f 821 817 879
f 821 879 826
f 880 879 817
f 823 827 830
f 880 817 878
f 872 875 881
f 882 879 880
f 879 882 826
f 883 880 878
f 884 875 830
f 829 700 877
f 883 882 880
f 870 826 885
f 886 884 830
f 887 882 883
f 828 886 830
f 888 885 826
f 889 826 882
f 889 882 887
f 890 885 888
f 768 829 891
f 892 886 828
f 887 893 889
f 704 892 828
f 891 894 768
f 895 892 704
f 831 895 704
f 896 826 889
f 894 897 768
f 770 768 897
f 826 896 888
f 898 889 893
f 895 831 899
f 897 900 770
f 896 901 888
f 832 770 900
f 902 903 904
f 888 902 904
f 896 889 898
f 898 905 896
f 832 900 903
f 901 896 905
f 831 771 899
f 902 832 903
f 707 832 902
f 906 902 888
f 888 901 906
f 902 833 707
f 907 771 772
f 833 902 906
f 838 908 909
f 909 846 838
f 908 837 910
f 838 837 908
f 911 846 909
f 912 913 911
f 772 834 907
f 906 835 833
f 839 906 901
f 901 914 842
f 838 846 836
f 834 915 907
f 901 842 839
f 911 913 846
f 906 839 835
f 842 841 839
f 842 914 840
f 840 914 916
f 910 848 917
f 837 848 910
f 913 853 846
f 917 840 916
f 917 848 849
f 849 840 917
f 846 853 847
f 775 918 774
f 843 774 918
f 711 918 775
f 853 919 854
f 858 854 919
f 918 711 776
f 858 920 859
f 920 921 859
f 855 859 921
f 922 862 861
f 861 812 922
f 803 862 804
f 804 923 865
f 923 804 862
f 812 870 922
f 924 862 922
f 925 813 810
f 925 810 807
f 807 866 925
f 923 862 924
f 925 868 813
f 926 818 868
f 927 925 866
f 866 864 869
f 871 818 926
f 925 927 928
f 865 923 874
f 929 873 871
f 924 922 870
f 927 866 869
f 873 929 930
f 869 876 927
f 876 869 867
f 923 931 874
f 874 931 877
f 923 924 931
f 878 873 930
f 930 932 878
f 933 927 876
f 876 872 881
f 934 933 876
f 932 935 878
f 924 936 931
f 924 870 936
f 881 937 876
f 870 885 936
f 935 883 878
f 883 935 938
f 881 939 937
f 939 881 875
f 884 939 875
f 829 877 931
f 940 931 936
f 931 940 829
f 938 941 883
f 937 939 942
f 887 883 941
f 885 890 936
f 943 939 884
f 884 886 943
f 941 944 887
f 891 829 940
f 894 940 936
f 891 940 894
f 936 890 894
f 892 945 886
f 893 887 944
f 904 894 890
f 944 946 893
f 897 894 904
f 945 892 895
f 904 890 888
f 893 946 947
f 898 893 947
f 900 897 904
f 947 948 898
f 904 903 900
f 948 905 898
f 907 899 771
f 949 905 948
f 949 901 905
f 950 951 908
f 909 908 951
f 952 953 950
f 914 901 949
f 908 952 950
f 911 909 951
f 951 954 911
f 949 955 956
f 956 953 952
f 910 952 908
f 912 911 954
f 954 957 912
f 949 956 914
f 912 957 958
f 917 956 952
f 952 910 917
f 958 913 912
f 917 914 956
f 913 958 959
f 916 914 917
f 853 913 959
f 834 843 960
f 843 961 960
f 853 959 962
f 843 918 961
f 853 962 919
f 858 919 962
f 962 920 858
f 918 776 963
f 921 964 855
f 964 965 855
f 776 855 965
f 965 963 776
f 925 928 868
f 928 926 868
f 929 871 926
f 926 928 929
f 927 966 928
f 932 929 928
f 928 966 967
f 928 967 932
f 932 930 929
f 968 967 966
f 933 966 927
f 969 935 932
f 967 969 932
f 966 933 968
f 970 935 969
f 967 968 971
f 937 934 876
f 972 938 970
f 935 970 938
f 971 968 973
f 938 972 974
f 974 941 938
f 975 933 934
f 933 975 968
f 975 934 937
f 975 937 942
f 974 944 941
f 944 974 976
f 977 968 975
f 939 943 942
f 976 978 944
f 979 977 980
f 945 943 886
f 975 981 977
f 982 942 943
f 944 978 946
f 980 946 978
f 982 975 942
f 983 946 980
f 981 975 984
f 945 895 985
f 953 980 977
f 947 946 983
f 986 977 981
f 980 953 983
f 977 986 953
f 987 947 983
f 895 899 985
f 948 947 987
f 899 988 985
f 983 953 987
f 988 899 907
f 949 948 987
f 989 986 981
f 989 981 990
f 986 950 953
f 950 986 951
f 987 953 955
f 986 989 951
f 955 949 987
f 989 954 951
f 954 989 957
f 907 915 988
f 956 955 953
f 958 991 959
f 915 834 960
f 962 959 991
f 991 920 962
f 991 992 920
f 961 918 993
f 992 921 920
f 992 994 921
f 964 921 994
f 963 965 994
f 994 993 963
f 918 963 993
f 965 964 994
f 971 969 967
f 969 995 970
f 995 969 971
f 970 995 972
f 971 973 995
f 974 972 996
f 996 972 995
f 979 995 973
f 995 979 996
f 977 973 968
f 996 976 974
f 996 979 976
f 977 979 973
f 979 978 976
f 979 980 978
f 982 943 945
f 984 975 982
f 997 982 945
f 945 985 997
f 990 981 984
f 985 998 997
f 998 985 988
f 990 984 982
f 997 999 982
f 998 999 997
f 957 989 990
f 999 990 982
f 988 915 998
f 957 1000 958
f 1000 957 990
f 1000 990 999
f 998 915 999
f 999 1001 1000
f 991 958 1000
f 991 1000 1001
f 915 960 999
f 999 1002 1001
f 961 999 960
f 999 961 1002
f 992 991 1001
f 961 993 1002
f 1002 994 1001
f 1002 993 994
f 1001 994 992
