v 37.748779 -174.874908 -98.736855

v 40.685944 -173.705597 -99.063934

v 39.181305 -175.345444 -99.442383

v 38.930496 -171.852676 -97.563171

v 48.332718 -172.352936 -97.722733

v 37.239624 -176.773804 -98.001404

v 50.778870 -175.199799 -99.380745

v 42.025558 -181.844086 -99.432053

v 40.801605 -182.576797 -98.461227

v 44.222229 -183.864471 -98.541870

v 51.631989 -183.708008 -99.410431

v 58.844696 -173.591858 -97.619263

v 60.731598 -176.559662 -99.190903

v 49.380627 -184.620300 -98.521606

v 67.017273 -180.695496 -99.332047

v 59.239151 -186.320831 -99.405685

v 56.272919 -186.888153 -98.755310

v 61.949234 -186.179810 -99.405907

v 68.348129 -178.086960 -97.519516

v 71.775604 -185.659180 -99.371025

v 59.868690 -188.217743 -98.387794

v 74.150879 -186.503601 -99.054321

v 61.849136 -188.617249 -98.766479

v 66.287811 -194.422821 -99.410110

v 64.345398 -193.191498 -98.643860

v 80.545517 -199.345886 -99.369537

v 65.214859 -196.740036 -98.529015

v 67.493484 -200.601135 -99.433998

v 66.043945 -201.010147 -98.655716

v 82.742188 -197.666382 -97.711060

v 67.734238 -205.473938 -99.443329

v 66.137833 -204.970932 -98.470688

v 66.175797 -208.976196 -98.497612

v 68.040634 -212.601517 -99.465889

v 80.503235 -204.817078 -99.326920

v 66.644531 -212.862793 -98.502747

v 79.495880 -209.667618 -99.393219

v 82.628906 -205.272278 -97.848999

v 68.906296 -216.738037 -98.550690

v 73.762718 -217.612152 -99.452042

v 78.817383 -215.328613 -99.328705

v 81.890686 -210.995956 -97.683075

v 72.017456 -219.524414 -97.591187

v 80.623779 -217.043701 -97.763245

v 35.628872 -174.175949 -95.035988

v 42.230724 -169.719727 -96.799683

v 48.155216 -170.239441 -97.125015

v 52.889999 -169.239624 -96.406616

v 56.165344 -170.422180 -97.359558

v 61.819443 -168.993561 -96.831177

v 38.927277 -181.717407 -96.361511

v 65.392670 -170.251633 -97.364990

v 40.054810 -183.584290 -95.867760

v 67.129639 -168.123627 -95.500694

v 43.969223 -185.021362 -96.255310

v 72.334503 -173.240387 -97.379593

v 50.923134 -185.642517 -96.514435

v 54.219788 -188.557861 -95.055420

v 58.788151 -188.957153 -96.595703

v 78.395309 -178.726532 -97.363541

v 75.845993 -184.293152 -97.459000

v 80.102905 -177.203552 -95.913330

v 61.026192 -188.874313 -96.433548

v 83.927002 -183.924011 -95.917236

v 82.438538 -186.033508 -97.349701

v 63.638367 -195.086197 -94.894318

v 64.821167 -199.687347 -94.751602

v 84.129150 -195.500854 -97.339294

v 64.992043 -204.199203 -94.581596

v 86.460938 -193.071289 -95.784973

v 65.048340 -208.801422 -94.148071

v 65.226517 -212.459900 -93.410492

v 85.702148 -201.085815 -96.055298

v 67.507935 -216.904114 -94.930176

v 84.921631 -208.731171 -97.284729

v 70.143463 -219.357529 -94.818741

v 85.406616 -212.596146 -97.203842

v 76.003174 -219.671753 -97.863403

v 83.666016 -216.457794 -97.358032

v 76.555908 -222.616241 -96.811523

v 84.536835 -217.559082 -96.550781

v 72.999367 -221.751404 -96.544907

v 80.786987 -221.085693 -96.925476

v 37.273102 -172.083832 -94.723328

v 40.783661 -169.470520 -94.615646

v 44.577232 -167.898315 -93.369720

v 47.833496 -168.139099 -94.288574

v 36.179688 -176.009674 -93.808502

v 35.506634 -177.398605 -94.285156

v 34.788437 -178.679153 -94.759407

v 54.274693 -167.632080 -94.262177

v 34.681641 -180.136551 -95.136345

v 36.310547 -185.378113 -95.640030

v 34.083466 -181.315750 -94.662346

v 34.681263 -185.387192 -94.731018

v 62.599518 -167.486938 -94.783936

v 37.995483 -188.732925 -94.649231

v 41.403931 -187.891724 -95.513855

v 73.353271 -166.013702 -93.752350

v 73.448471 -168.370697 -95.150574

v 73.309082 -171.146667 -95.791748

v 43.193588 -189.274902 -94.600983

v 47.229156 -188.557068 -94.966949

v 79.903717 -170.922852 -93.887878

v 79.018982 -172.416626 -95.133484

v 51.095154 -188.390747 -94.938049

v 55.239502 -190.199219 -93.660217

v 60.705505 -190.850220 -94.349365

v 83.685364 -179.520020 -94.974792

v 85.417358 -182.513245 -94.557007

v 87.992462 -188.666016 -94.833282

v 88.673706 -193.777496 -94.941376

v 88.748230 -200.095825 -95.040436

v 87.526855 -205.329346 -95.092285

v 87.658813 -211.313232 -94.073364

v 74.744949 -222.032516 -90.954727

v 85.984863 -216.405396 -94.101563

v 84.511436 -220.742050 -90.656082

v 80.982300 -222.196411 -94.229492

v 40.725739 -171.649017 -92.709961

v 50.106720 -166.292877 -93.651817

v 55.232773 -161.315002 -92.602890

v 42.440159 -170.268936 -91.454292

v 56.934349 -161.931229 -93.365128

v 38.730103 -174.066971 -92.797302

v 63.059692 -162.327072 -93.505020

v 60.412354 -161.156540 -92.794495

v 64.331474 -160.752304 -92.602539

v 63.042999 -165.962402 -93.647507

v 35.635368 -179.037094 -91.284370

v 67.778915 -160.528885 -92.779655

v 72.812958 -162.396271 -93.377762

v 34.140636 -183.320953 -91.114822

v 37.114094 -190.114365 -90.855316

v 75.581177 -163.485428 -92.817032

v 39.011871 -189.675232 -92.367126

v 42.567383 -190.345520 -92.142929

v 46.473656 -189.348694 -92.775085

v 81.979919 -170.206482 -92.856140

v 51.938232 -190.405090 -91.869308

v 53.027603 -189.349060 -92.719727

v 84.390747 -173.653198 -92.043579

v 61.032806 -192.940918 -93.737000

v 86.852905 -181.281998 -91.913467

v 60.030273 -197.207230 -93.378113

v 63.625549 -199.663757 -93.908356

v 89.262497 -186.838287 -91.915985

v 62.065552 -203.425858 -93.030701

v 58.721497 -201.289185 -91.172592

v 90.443237 -191.734009 -91.880630

v 90.884232 -195.904694 -91.846268

v 91.237396 -199.398376 -91.809158

v 91.750610 -205.258957 -91.847992

v 67.537628 -217.052444 -90.977219

v 91.220398 -209.855835 -91.996521

v 70.960350 -219.556519 -90.899818

v 89.653381 -214.072418 -91.107056

v 88.573349 -215.573456 -90.402222

v 80.382492 -223.653046 -90.547127

v 86.915390 -217.888168 -90.944763

v 85.719856 -219.558243 -90.693359

v 47.446411 -165.330627 -90.731079

v 54.902184 -160.719147 -90.365356

v 43.433350 -167.965637 -90.010620

v 58.209499 -160.543152 -90.608734

v 39.894211 -172.855560 -90.821198

v 62.024384 -160.188904 -90.353638

v 37.819580 -174.979431 -90.647705

v 66.092926 -159.803741 -90.593201

v 70.181641 -158.797119 -89.613525

v 72.557220 -159.341415 -89.938095

v 33.872601 -185.225525 -88.834457

v 80.026535 -164.069122 -90.173584

v 35.468513 -188.697571 -88.980148

v 82.422234 -166.835907 -89.893387

v 40.752869 -193.089005 -91.004456

v 45.473358 -191.078308 -91.835762

v 43.492432 -194.470703 -91.138275

v 47.158714 -195.368774 -91.667679

v 87.618904 -171.736298 -89.706848

v 46.230732 -195.922104 -90.721039

v 56.941406 -197.513916 -91.814529

v 88.204834 -176.502686 -91.186096

v 50.262344 -197.458527 -91.364761

v 55.045155 -200.058807 -91.180923

v 52.450527 -198.707367 -90.540009

v 91.669037 -183.295074 -91.514214

v 93.439377 -179.919693 -89.688065

v 60.600361 -203.560303 -91.070938

v 95.604889 -187.405090 -89.706543

v 94.150513 -192.496216 -91.508865

v 62.758430 -208.093338 -90.466270

v 64.712418 -212.332886 -91.134583

v 98.048828 -197.110413 -89.742783

v 95.988831 -202.785370 -91.547562

v 94.410339 -210.224426 -91.550842

v 97.387207 -208.005737 -89.947571

v 95.557861 -211.479401 -90.339355

v 92.152420 -213.575317 -90.998505

v 83.129005 -222.291901 -90.338348

v 56.030182 -158.277954 -88.715576

v 51.062134 -161.889954 -88.608765

v 45.877319 -163.181274 -87.628296

v 42.088623 -166.079224 -87.583496

v 39.576935 -168.787994 -86.768524

v 64.939087 -157.296021 -88.292603

v 33.183716 -177.060638 -86.225037

v 33.008797 -180.634674 -88.175888

v 33.051785 -182.627869 -88.897400

v 81.939125 -160.178101 -89.365662

v 38.079891 -190.727448 -88.881027

v 87.281708 -164.053391 -89.551254

v 85.063736 -159.411865 -87.735092

v 44.711472 -193.844696 -87.373047

v 92.384888 -164.629257 -87.767990

v 93.155151 -167.852875 -89.220795

v 92.623291 -168.954315 -89.617203

v 51.032379 -197.021423 -88.146301

v 99.236595 -169.470703 -87.731415

v 101.252869 -174.938416 -89.586746

v 54.861115 -198.906067 -88.814880

v 60.514038 -201.348267 -88.815804

v 61.274651 -203.398224 -90.148468

v 63.882446 -204.377380 -89.826866

v 104.934082 -180.569275 -89.256226

v 104.881866 -185.753876 -89.584892

v 67.621742 -204.151840 -88.716591

v 69.979279 -206.911240 -89.782516

v 71.601997 -205.968887 -88.811844

v 65.593018 -212.004425 -89.958412

v 104.577850 -193.160004 -89.644089

v 75.479233 -208.010925 -88.888916

v 77.921631 -210.688049 -89.799103

v 105.643677 -192.928177 -89.188721

v 98.332825 -202.325592 -89.843582

v 71.815704 -218.298340 -89.879692

v 82.130600 -210.233917 -88.809616

v 103.864563 -198.624329 -89.635292

v 105.273193 -200.078369 -88.536133

v 102.654724 -203.158035 -89.597824

v 87.261597 -213.210709 -89.795967

v 90.817383 -212.361969 -88.647217

v 99.354858 -209.966614 -89.410706

v 79.237427 -222.468689 -89.886230

v 103.235840 -206.539307 -88.292725

v 92.877670 -212.265747 -87.821075

v 85.903091 -217.808167 -90.046432

v 95.960732 -212.264297 -88.827042

v 52.240967 -157.805542 -86.488770

v 58.305660 -154.820267 -86.099426

v 40.072922 -164.758514 -85.137268

v 64.040436 -155.266022 -86.126480

v 36.775604 -171.847458 -86.822693

v 69.807251 -156.679962 -86.192978

v 75.649651 -155.570572 -86.028328

v 34.099792 -182.886185 -86.815491

v 79.986290 -157.073868 -86.011932

v 36.116951 -185.615860 -86.713547

v 38.652626 -188.876373 -87.033249

v 85.991951 -156.787384 -85.878441

v 94.055458 -158.729507 -87.588013

v 41.779453 -191.122345 -86.644325

v 98.011139 -158.843506 -87.281982

v 100.296928 -161.641785 -87.610405

v 107.079178 -165.216415 -87.159058

v 106.558823 -166.502136 -87.638023

v 104.146606 -173.743439 -87.701935

v 59.364159 -200.365372 -85.608307

v 111.530457 -173.016663 -87.489868

v 106.919128 -179.951782 -87.843674

v 64.719452 -203.087845 -85.218750

v 110.857941 -179.609970 -87.596237

v 112.145996 -178.355042 -87.027649

v 107.895386 -186.396790 -87.632263

v 73.327637 -206.786484 -85.831909

v 110.133667 -184.724136 -86.717896

v 108.069702 -192.152588 -86.369507

v 80.835526 -209.206604 -83.188751

v 83.446930 -209.699692 -86.420654

v 107.240112 -198.185043 -86.360901

v 88.884247 -211.861404 -85.737549

v 106.400391 -205.766174 -87.094727

v 103.150879 -210.990234 -86.849243

v 97.367584 -212.002335 -86.341675

v 49.305847 -157.319092 -85.213608

v 43.546997 -160.812210 -84.888489

v 56.341873 -153.235580 -85.038040

v 61.134384 -151.601044 -84.842300

v 65.564812 -150.284943 -84.809937

v 63.914063 -151.970459 -85.701942

v 68.438454 -152.158096 -85.345627

v 36.228157 -168.421188 -84.995537

v 34.064465 -170.994110 -85.011070

v 73.339226 -152.039886 -84.633011

v 73.388870 -152.554810 -85.453247

v 77.117981 -151.854828 -85.333412

v 79.853012 -151.449753 -85.200348

v 81.600098 -153.289063 -85.726120

v 82.407646 -151.067703 -85.216827

v 85.356514 -151.042496 -84.639732

v 85.810150 -151.426315 -85.406235

v 89.154198 -151.141785 -85.164505

v 93.047974 -153.681885 -85.701385

v 93.166489 -151.889984 -85.017174

v 39.384190 -189.247772 -83.349136

v 96.419418 -156.109924 -85.893448

v 96.824661 -153.988129 -84.682266

v 100.456558 -157.401657 -85.116165

v 42.919815 -192.352448 -83.623077

v 45.290634 -194.101364 -83.331390

v 104.221588 -160.315933 -84.558571

v 48.991844 -196.223984 -83.271027

v 53.138428 -198.099945 -83.482147

v 112.116974 -168.293655 -84.565002

v 113.897949 -171.795776 -84.743408

v 114.678925 -175.632416 -82.556091

v 112.547241 -184.001282 -82.680725

v 110.262451 -187.592041 -85.206299

v 110.434753 -194.609283 -85.261475

v 110.132935 -200.181625 -85.163330

v 108.994873 -206.346542 -84.994507

v 107.507202 -208.863281 -84.311768

v 101.876068 -212.715347 -84.489990

v 49.754662 -157.661514 -81.405136

v 56.845295 -153.736725 -81.353706

v 44.845093 -159.919266 -81.205597

v 60.602444 -152.229645 -81.541840

v 39.977921 -162.948486 -81.158508

v 36.964905 -165.953171 -81.158020

v 33.034760 -170.485321 -81.107300

v 66.459351 -152.333038 -82.910950

v 69.794106 -152.870514 -82.937378

v 72.908035 -152.934891 -82.920959

v 30.512512 -175.269714 -81.217926

v 76.008232 -152.684021 -82.921509

v 31.335938 -179.114914 -82.930634

v 78.819305 -152.830978 -81.800003

v 81.332870 -152.319763 -81.842499

v 83.791580 -152.071518 -82.062256

v 33.728989 -183.040619 -83.131042

v 87.909996 -152.083282 -82.542786

v 90.161110 -152.234055 -81.098450

v 36.932617 -187.020538 -83.144440

v 92.797867 -152.453674 -79.105972

v 95.312607 -153.118454 -81.595520

v 97.970680 -154.456665 -79.141449

v 100.885796 -156.429703 -80.850372

v 108.936600 -162.859222 -82.735970

v 56.935913 -200.392456 -83.036499

v 61.477982 -202.901154 -82.762756

v 113.146194 -166.808777 -80.509460

v 115.324585 -171.768158 -81.875122

v 66.803238 -205.285950 -82.690125

v 71.410583 -206.907654 -83.137756

v 112.874512 -190.145752 -81.726563

v 113.554199 -192.996582 -80.606445

v 84.688629 -211.008514 -82.914795

v 113.164795 -196.812988 -80.998047

v 87.000191 -212.279922 -81.073456

v 111.151733 -203.100952 -82.863281

v 93.984253 -212.648209 -81.238785

v 109.626419 -207.333038 -82.276489

v 105.748360 -210.711731 -82.667015

v 102.567642 -212.219055 -82.587494

v 65.341286 -150.729340 -79.338409

v 34.282410 -168.625427 -80.605713

v 66.333374 -152.469513 -81.108597

v 70.787086 -152.966827 -81.003059

v 29.485352 -180.222107 -81.900452

v 75.368134 -152.711884 -80.949951

v 36.090942 -188.316208 -82.231369

v 28.430199 -183.935059 -81.874817

v 29.148102 -186.987106 -82.177307

v 27.169302 -186.232025 -80.809265

v 28.630871 -189.279861 -81.241119

v 35.995132 -194.185669 -82.198143

v 31.259140 -192.119629 -81.361908

v 33.916756 -194.534576 -81.352783

v 41.476898 -193.379028 -82.252869

v 36.854645 -196.304871 -81.557434

v 103.861130 -158.003967 -79.929504

v 41.281616 -198.235352 -81.921753

v 46.607239 -196.603699 -82.318146

v 106.287460 -160.354126 -80.891914

v 109.812874 -163.079727 -80.729156

v 52.300537 -202.258545 -81.992981

v 56.931274 -201.573730 -82.339508

v 57.881592 -204.427185 -81.869934

v 117.859863 -174.360107 -80.732300

v 67.705811 -208.670990 -81.399292

v 117.248718 -178.206726 -81.264221

v 115.903809 -182.009583 -81.206604

v 72.704956 -209.737976 -81.077515

v 114.681641 -185.598877 -80.927246

v 76.952393 -210.910721 -81.050995

v 83.613190 -212.365555 -81.120483

v 98.439957 -212.636383 -77.489029

v 107.787407 -208.999222 -78.563416

v 53.403992 -151.977783 -76.990051

v 46.404327 -154.917847 -77.697021

v 43.736298 -158.382996 -79.309082

v 40.009399 -160.402344 -78.424805

v 36.566895 -164.368042 -79.422485

v 58.545204 -150.235214 -76.977005

v 63.915562 -149.764679 -76.878250

v 28.866760 -174.731659 -79.451691

v 70.619141 -150.907715 -79.263428

v 27.353291 -177.565323 -79.265991

v 27.143307 -181.127167 -79.437469

v 78.247971 -151.164795 -79.376587

v 27.138794 -183.066711 -78.521057

v 27.452370 -184.875580 -78.176323

v 83.680534 -151.710022 -78.914658

v 88.646393 -152.194946 -78.987953

v 28.833527 -188.298172 -77.734299

v 32.399765 -193.422394 -78.770233

v 37.398121 -197.730865 -79.433289

v 110.405785 -160.034058 -76.572891

v 41.076225 -200.605591 -79.384033

v 44.231499 -202.602600 -79.488403

v 48.453400 -205.022491 -79.355377

v 115.088623 -166.791412 -78.595825

v 61.719849 -208.668396 -79.452576

v 64.518341 -209.459686 -77.653336

v 115.864258 -188.595093 -77.166016

v 82.071564 -211.835663 -77.542908

v 88.318634 -211.895905 -77.285889

v 113.492805 -202.015961 -74.024445

v 111.666359 -205.122711 -75.414337

v 102.848862 -211.164490 -77.131165

v 42.004730 -156.441147 -75.565674

v 36.909698 -162.742126 -77.386353

v 34.487305 -165.481796 -77.291656

v 31.798706 -168.745361 -77.462708

v 29.077576 -171.373291 -76.136719

v 68.939568 -148.699768 -76.585800

v 27.854378 -175.566010 -76.583466

v 76.580795 -148.184891 -76.671524

v 27.691650 -180.297607 -77.383972

v 85.313461 -148.547180 -76.552986

v 92.151001 -150.415756 -76.558968

v 98.295288 -152.293015 -76.554451

v 32.775265 -193.189819 -77.431580

v 105.410065 -155.601837 -76.556770

v 36.480671 -196.591309 -77.347229

v 39.895805 -199.677002 -77.434753

v 43.027809 -201.885529 -77.403023

v 45.927528 -203.810486 -77.446800

v 117.376587 -166.203674 -76.776611

v 49.573833 -205.452087 -77.322617

v 120.433838 -172.247314 -75.950195

v 61.869835 -208.797333 -77.284874

v 120.195435 -178.932495 -76.522217

v 67.879807 -209.472305 -77.395172

v 72.616257 -210.058899 -77.444107

v 118.058350 -185.700806 -75.440918

v 76.727386 -210.555466 -77.244202

v 115.612671 -194.053101 -73.452881

v 94.150986 -212.128967 -77.130066

v 51.214340 -149.360565 -75.356880

v 45.056847 -152.593246 -75.395676

v 55.391190 -148.020554 -75.401054

v 59.203785 -146.718506 -75.170036

v 61.893181 -146.248627 -74.979584

v 36.741272 -160.217041 -75.419647

v 65.311996 -146.914322 -75.962784

v 64.111046 -145.985901 -75.104111

v 33.392853 -163.376236 -75.411850

v 31.299850 -165.747375 -75.407043

v 67.102005 -145.289413 -75.151192

v 29.769730 -168.375839 -75.498764

v 70.649338 -145.143951 -75.100014

v 71.307770 -146.013046 -75.828468

v 75.232445 -144.907669 -75.053505

v 77.879883 -146.074738 -75.847710

v 81.028633 -145.418365 -75.039925

v 29.414276 -178.400330 -73.242981

v 86.041214 -146.223633 -75.650665

v 29.378143 -184.237045 -75.544464

v 96.715897 -148.289856 -75.349258

v 87.859467 -145.821259 -75.063751

v 33.041840 -190.155060 -75.307129

v 99.700768 -149.137329 -74.952682

v 102.548889 -150.744354 -75.628860

v 35.852207 -192.638885 -75.387024

v 107.454918 -153.257278 -75.129875

v 107.036072 -154.237000 -75.842651

v 39.431549 -195.224350 -75.464722

v 111.431183 -156.836304 -75.428246

v 43.124504 -198.220551 -75.567329

v 47.009251 -202.334351 -76.420868

v 46.110935 -199.857513 -75.432159

v 50.133995 -201.915848 -75.368874

v 52.549744 -204.621582 -76.332733

v 115.406822 -160.083267 -75.210953

v 118.841812 -163.744781 -75.207535

v 119.752075 -167.072296 -75.183105

v 56.937500 -204.433228 -75.543266

v 67.530823 -207.248779 -75.484192

v 72.401680 -208.234192 -75.247726

v 76.394073 -209.194443 -75.027466

v 82.197128 -210.284790 -74.942139

v 117.960228 -188.556213 -73.473450

v 91.355896 -210.734131 -75.194824

v 98.468140 -210.868652 -75.317383

v 110.520027 -206.545135 -74.093872

v 105.069031 -209.242065 -73.421387

v 108.079933 -208.872345 -73.802155

v 46.860180 -151.620789 -73.293945

v 43.783234 -154.363846 -72.894867

v 52.612518 -149.274292 -73.305481

v 41.693726 -156.900391 -72.953552

v 57.714249 -147.742676 -73.081482

v 36.953201 -160.020187 -73.450882

v 32.703362 -163.742126 -73.497589

v 30.379578 -166.295593 -73.491806

v 64.683990 -146.906097 -71.734497

v 30.078323 -168.238007 -72.832138

v 68.645294 -146.105072 -71.611572

v 28.503555 -170.264725 -73.517120

v 74.434174 -145.245422 -69.739670

v 28.058327 -174.018204 -73.520515

v 85.684074 -145.437927 -71.435913

v 30.668304 -182.159500 -72.073914

v 30.838150 -185.831375 -73.472351

v 96.764694 -147.670105 -71.880463

v 106.192009 -151.153793 -72.776550

v 35.984604 -192.582443 -71.534302

v 109.727142 -154.568375 -73.281891

v 42.943863 -197.446655 -71.696899

v 40.504326 -195.741165 -71.693207

v 112.862396 -156.634766 -72.843147

v 115.302757 -158.302841 -72.603760

v 118.040001 -161.000458 -72.624527

v 46.990845 -199.850189 -71.609375

v 120.425812 -165.330948 -73.112762

v 51.187607 -202.187424 -71.736725

v 122.973755 -168.815948 -71.562195

v 63.176636 -205.961304 -70.778641

v 59.586235 -204.841507 -71.545593

v 122.177002 -173.564941 -72.117188

v 120.424210 -179.859543 -73.356873

v 113.398247 -200.044525 -72.420532

v 89.157166 -208.339447 -69.360107

v 111.832520 -203.257507 -72.406128

v 102.572510 -207.679688 -70.244629

v 50.186523 -152.390869 -72.187012

v 48.130615 -154.739319 -72.320877

v 42.316650 -159.492706 -72.278870

v 35.646362 -162.863129 -72.633270

v 59.612606 -148.618713 -71.451538

v 50.783791 -153.738464 -71.167816

v 49.952248 -155.597198 -71.064529

v 45.522400 -158.438110 -71.484756

v 37.082520 -164.447083 -72.353027

v 41.539551 -161.658127 -71.565384

v 38.339844 -164.763290 -71.540436

v 33.919891 -168.771118 -72.445549

v 29.532776 -172.046387 -72.646622

v 36.350922 -167.734924 -71.266876

v 34.661732 -171.587524 -71.510468

v 33.128845 -173.540771 -72.199181

v 78.581207 -145.039139 -69.593735

v 31.945526 -177.337494 -71.861816

v 91.737488 -146.023926 -71.415405

v 100.399292 -147.185944 -70.632706

v 102.869537 -148.139877 -70.592392

v 109.338715 -151.821442 -72.000488

v 109.798645 -149.893341 -70.508804

v 114.600197 -153.831070 -71.853539

v 118.239273 -156.334656 -71.935608

v 120.989624 -158.660751 -71.395065

v 121.487183 -164.318115 -72.282043

v 123.280930 -164.316818 -71.185204

v 67.550934 -207.173157 -69.631111

v 121.242889 -177.266815 -69.125244

v 117.757202 -187.754639 -68.104401

v 78.466232 -208.656235 -69.519897

v 84.729340 -209.044357 -69.613007

v 97.016602 -209.384766 -71.456055

v 108.745651 -205.047943 -71.012482

v 104.735779 -207.278381 -70.941956

v 60.057137 -148.525452 -68.009338

v 65.297935 -146.737442 -68.122925

v 45.544456 -158.625671 -69.473145

v 42.185913 -161.140091 -69.279785

v 68.761459 -146.061432 -68.205505

v 38.556030 -164.484695 -69.099121

v 83.393005 -144.680542 -69.129272

v 32.522675 -178.196106 -69.599701

v 34.202896 -176.773468 -67.797394

v 89.617371 -144.663269 -69.221741

v 31.493164 -181.557434 -69.609619

v 96.012489 -143.570526 -69.858452

v 93.113052 -145.217682 -70.396606

v 31.353424 -185.056396 -69.504318

v 100.340057 -143.215744 -69.860420

v 32.786755 -188.649414 -69.731758

v 105.710312 -144.113266 -69.319115

v 107.152985 -146.120789 -70.152313

v 109.598625 -145.794510 -69.210121

v 37.523071 -191.755981 -68.540344

v 114.013657 -148.226410 -69.690491

v 42.777222 -194.347321 -67.150757

v 115.949097 -149.129074 -69.225739

v 116.888054 -151.398300 -69.264984

v 118.703819 -154.171051 -69.293221

v 45.868164 -197.144409 -67.680664

v 122.381058 -161.232544 -68.195938

v 54.934265 -202.147675 -69.606567

v 123.580292 -165.342392 -65.928192

v 61.151062 -205.633698 -69.662628

v 123.985718 -168.631836 -66.891846

v 72.305222 -207.964966 -69.603775

v 119.800385 -180.392456 -69.152832

v 116.290009 -193.056641 -67.975098

v 113.995857 -197.385712 -68.639648

v 94.209839 -206.598877 -67.879272

v 110.931412 -202.829010 -68.983490

v 98.724854 -206.979370 -67.973633

v 49.906860 -153.673767 -67.122070

v 51.937820 -152.379425 -67.174194

v 45.866058 -155.054703 -64.164093

v 39.602997 -160.708496 -64.340698

v 76.865112 -141.678711 -65.262085

v 78.132080 -142.746033 -67.501221

v 84.227539 -142.999023 -67.469238

v 91.884766 -140.580383 -66.050720

v 34.136703 -182.140656 -68.016266

v 97.067543 -140.188507 -63.650360

v 103.192154 -142.200104 -65.392853

v 35.215942 -187.451355 -68.167664

v 107.628075 -144.827011 -65.610786

v 112.267105 -146.898300 -65.356339

v 115.010765 -148.003662 -65.241066

v 117.113258 -150.330856 -65.308990

v 115.880783 -151.425690 -65.754715

v 118.044212 -153.931519 -65.661270

v 52.978149 -199.679626 -63.789551

v 61.269478 -203.515625 -67.770081

v 67.123421 -204.714874 -67.822052

v 125.007629 -172.552246 -63.741211

v 71.112793 -204.994003 -67.844208

v 75.718475 -205.554291 -67.759613

v 81.265480 -205.697021 -67.793640

v 83.389343 -207.495239 -68.671021

v 85.939583 -205.887054 -67.668457

v 91.043991 -206.163452 -67.628830

v 110.767395 -203.891022 -65.097931

v 106.544899 -207.206970 -65.609253

v 57.534668 -147.629028 -65.786987

v 61.467224 -146.166992 -65.779053

v 65.583191 -144.230606 -64.473602

v 43.868580 -156.899323 -63.952766

v 70.215149 -143.795776 -65.627441

v 41.661110 -158.979401 -63.905022

v 38.180191 -162.149887 -63.974155

v 74.232285 -141.126251 -63.801163

v 37.143612 -164.207016 -63.877617

v 35.443687 -169.036728 -64.016373

v 82.620453 -140.290649 -65.123413

v 86.735901 -140.039368 -65.547913

v 101.465088 -140.533447 -63.743317

v 36.870461 -185.595703 -66.046082

v 40.219326 -190.181366 -65.971085

v 122.973045 -162.197403 -65.485168

v 60.565857 -202.497803 -64.543945

v 69.055786 -203.780762 -63.604248

v 123.129517 -178.939331 -63.613525

v 80.588509 -204.070557 -61.664063

v 86.424255 -205.266663 -62.861084

v 118.955933 -188.377441 -64.917725

v 90.999580 -205.730347 -62.515808

v 115.420624 -196.573578 -65.479980

v 95.605423 -205.837219 -62.349365

v 113.119743 -200.633575 -64.428040

v 100.817444 -205.919708 -62.124268

v 59.552544 -146.193954 -63.776360

v 57.154045 -146.727127 -63.655464

v 50.925484 -150.638077 -63.359623

v 47.855366 -153.272598 -63.253204

v 63.385880 -144.918518 -63.640503

v 69.492020 -143.178482 -63.544342

v 76.169769 -140.672272 -63.272385

v 79.578812 -139.635635 -63.549080

v 83.072014 -139.101654 -63.525421

v 87.234459 -139.230789 -63.264984

v 91.243134 -139.586502 -63.448868

v 34.957703 -174.588181 -63.923935

v 93.964928 -139.885605 -63.340790

v 35.496674 -178.436600 -63.857178

v 36.508408 -181.354767 -63.285065

v 107.170776 -142.472046 -63.899200

v 40.310982 -188.135818 -63.331375

v 116.189972 -144.987213 -63.785313

v 44.793777 -193.330368 -63.839478

v 119.507942 -146.689804 -63.174862

v 118.331543 -147.978149 -64.402069

v 121.880432 -149.918732 -63.869766

v 119.261108 -152.778168 -64.574707

v 122.059082 -152.992035 -64.401886

v 123.556946 -152.986145 -63.562256

v 124.247009 -161.063141 -64.494080

v 51.005615 -197.203430 -62.086670

v 124.699966 -156.574661 -63.548630

v 126.115662 -161.261826 -63.507065

v 126.338394 -166.127655 -63.420197

v 72.684082 -201.824890 -59.087646

v 121.405701 -183.231567 -61.908203

v 118.221832 -190.633087 -61.468262

v 105.179688 -206.023315 -62.013184

v 60.098492 -148.287720 -61.893188

v 58.099243 -149.637512 -62.374481

v 45.599457 -156.071884 -63.092911

v 55.530579 -151.819489 -62.670258

v 67.529510 -145.155457 -61.716431

v 63.574188 -147.118774 -61.741943

v 42.881500 -159.180649 -62.910347

v 51.113495 -156.443451 -62.415115

v 39.947479 -161.648819 -63.090302

v 58.344910 -151.317398 -61.661835

v 47.352997 -160.245148 -62.756622

v 71.494003 -143.560608 -61.828125

v 55.276230 -153.877106 -61.830063

v 37.775635 -166.677536 -62.943291

v 79.332062 -141.429077 -59.906006

v 49.990326 -158.645844 -61.856628

v 47.876282 -161.822754 -62.126801

v 46.719635 -164.170868 -62.049805

v 44.354584 -166.823059 -62.835358

v 36.435303 -173.943359 -62.988098

v 44.431946 -169.170349 -62.359314

v 40.769867 -174.234543 -62.803658

v 93.203369 -140.772705 -59.839844

v 95.506958 -141.088501 -59.478027

v 100.010056 -140.982727 -59.887695

v 39.333130 -179.566040 -62.700439

v 104.894020 -140.828217 -61.496998

v 108.779716 -141.442764 -61.550972

v 115.907135 -143.870300 -61.717979

v 43.574974 -186.899963 -62.512466

v 44.960983 -191.450317 -62.990494

v 47.842022 -193.208649 -62.158585

v 123.201195 -149.967636 -60.922974

v 123.937866 -153.086548 -59.783714

v 125.562637 -157.997910 -59.800621

v 58.402832 -199.805176 -60.127930

v 66.089157 -201.103271 -59.728394

v 126.236320 -162.578201 -59.768204

v 126.130981 -169.249817 -59.394211

v 125.558090 -172.381714 -59.660187

v 122.831299 -181.126099 -59.772949

v 115.009880 -196.129608 -57.127319

v 108.153656 -204.929962 -61.879272

v 111.071045 -200.238800 -58.987305

v 64.879303 -147.280762 -57.917694

v 70.257042 -145.253036 -57.886017

v 56.824471 -152.425964 -57.869354

v 74.566605 -143.381042 -58.213745

v 54.885078 -154.433350 -58.051376

v 76.492722 -143.744843 -57.311813

v 52.057373 -157.885071 -58.044495

v 83.367569 -140.837280 -59.645386

v 50.187012 -161.805969 -57.644623

v 88.264160 -141.193604 -59.458984

v 46.317627 -169.881836 -59.492432

v 43.858398 -176.400940 -59.777832

v 107.995300 -141.882568 -59.301758

v 44.821350 -181.643311 -58.643677

v 114.331268 -143.649902 -59.676392

v 117.281281 -146.018799 -58.994385

v 45.687424 -186.704300 -59.013577

v 49.750557 -194.111649 -59.977905

v 122.795151 -149.619812 -57.233490

v 125.187737 -151.279984 -57.905777

v 54.026840 -197.586243 -59.883545

v 126.489578 -166.646027 -59.283005

v 124.539001 -176.058228 -59.657837

v 84.855286 -203.255127 -58.672363

v 89.313072 -204.017334 -60.031250

v 94.203712 -203.682617 -59.274872

v 99.054794 -204.056427 -59.319458

v 102.803024 -203.786316 -59.447327

v 106.711029 -203.007385 -59.395142

v 58.739075 -151.163101 -57.667557

v 81.750732 -143.635498 -57.263062

v 90.273438 -143.840332 -57.135254

v 49.124817 -165.899628 -57.544678

v 48.130859 -172.402771 -57.451782

v 45.723755 -178.314484 -58.331970

v 99.950684 -144.494019 -55.313110

v 115.138794 -148.683151 -54.941101

v 125.679321 -153.988434 -58.788513

v 127.582809 -153.337418 -57.700542

v 126.874756 -158.162781 -58.898987

v 129.768127 -159.093506 -58.597870

v 56.453308 -197.584976 -54.885605

v 61.092804 -199.111206 -55.132339

v 130.944229 -158.308472 -57.759460

v 127.738739 -163.054703 -58.814880

v 131.462219 -164.914673 -58.529846

v 132.051453 -162.198608 -57.843567

v 130.802307 -168.137314 -58.497047

v 129.605927 -170.849335 -58.400452

v 127.949829 -173.726364 -58.157776

v 126.154297 -176.723724 -57.934814

v 80.294876 -202.706863 -54.533569

v 125.439255 -179.974396 -55.675659

v 88.929420 -203.338837 -56.712799

v 121.158554 -186.752090 -55.296844

v 64.818604 -148.858383 -57.069946

v 71.328461 -146.355194 -57.031540

v 56.548828 -155.404297 -56.774292

v 67.128418 -150.888367 -56.796402

v 54.475342 -158.471497 -56.820984

v 77.242111 -147.172424 -56.715393

v 57.311157 -157.697754 -55.391846

v 72.554443 -150.907349 -55.363464

v 84.969727 -145.774902 -56.538452

v 52.010986 -165.518692 -56.720703

v 55.514465 -163.176086 -55.172783

v 80.908508 -148.763412 -55.068146

v 88.300934 -146.665039 -55.447510

v 52.562286 -169.844727 -55.283768

v 48.353668 -176.129272 -55.624573

v 46.499512 -180.980469 -55.285889

v 108.335350 -145.923218 -55.327271

v 45.792679 -185.373627 -55.422852

v 48.663483 -192.783875 -54.444763

v 52.849648 -195.903458 -54.630798

v 126.226662 -152.915787 -55.689575

v 130.728668 -157.499557 -55.796181

v 66.414886 -200.586884 -54.460297

v 132.639130 -162.495239 -55.819656

v 132.619431 -165.715027 -55.396347

v 132.687759 -167.267075 -55.802650

v 131.575928 -169.787292 -55.893044

v 75.452133 -202.065109 -54.462250

v 129.624954 -172.897125 -55.918465

v 127.218201 -175.864517 -55.584015

v 123.180191 -183.623993 -55.592438

v 118.203896 -190.695023 -52.347702

v 94.911682 -203.658478 -52.349243

v 99.709290 -203.492477 -52.735779

v 105.186455 -202.917496 -54.040283

v 63.364624 -154.470947 -55.461304

v 68.277344 -153.972656 -55.056335

v 69.892792 -159.501205 -55.024910

v 74.496826 -157.486145 -55.031158

v 64.469238 -162.789063 -55.082832

v 88.865723 -147.833359 -54.990707

v 84.916077 -155.804901 -54.978065

v 57.919586 -167.952087 -55.055313

v 91.184326 -155.106873 -54.955360

v 70.567444 -160.539185 -54.268127

v 99.865845 -145.867523 -54.922318

v 63.802475 -164.958496 -54.269165

v 54.250732 -172.241608 -55.044388

v 78.215561 -158.038330 -54.500793

v 58.558105 -169.194214 -54.168335

v 75.315735 -159.134888 -54.159180

v 51.651917 -176.414368 -54.518066

v 82.505615 -157.556152 -54.337646

v 54.718719 -173.868454 -54.143494

v 49.285400 -179.165024 -53.958618

v 87.028229 -156.879517 -53.948608

v 103.921875 -157.376953 -54.936905

v 107.410034 -147.077820 -54.918091

v 91.347435 -156.674957 -53.979797

v 46.127014 -189.007156 -53.624969

v 103.120186 -159.207184 -54.417419

v 112.619385 -160.458801 -54.903740

v 125.299339 -153.612122 -54.894211

v 111.961365 -161.755005 -53.955994

v 50.041412 -194.772522 -53.326416

v 117.466766 -163.946716 -54.027191

v 120.687683 -164.135895 -54.887833

v 124.512268 -168.281311 -54.899559

v 131.573959 -162.723083 -54.905575

v 121.638763 -166.222977 -54.395905

v 61.818905 -200.410065 -52.445557

v 123.598114 -169.836853 -54.241669

v 72.561920 -201.972351 -54.214722

v 130.734665 -169.027893 -54.999840

v 126.645767 -173.810715 -54.526772

v 128.563782 -172.000885 -54.976204

v 85.398102 -203.437714 -54.196167

v 88.533890 -204.227631 -52.305161

v 91.806908 -204.041687 -52.162716

v 119.843719 -188.213547 -52.214584

v 116.126846 -194.282028 -52.155479

v 111.947296 -199.065216 -53.813232

v 72.889679 -161.430176 -51.901489

v 69.426758 -163.446777 -51.653564

v 65.151001 -166.015137 -50.442627

v 77.419182 -160.752686 -51.463989

v 81.277771 -159.185913 -51.980835

v 86.845245 -158.048706 -52.076660

v 49.021240 -181.313904 -50.308868

v 91.449280 -157.461670 -52.113159

v 46.187683 -186.158066 -50.301453

v 44.908478 -188.712097 -50.526546

v 102.851265 -160.346924 -52.053070

v 111.300659 -162.447174 -52.007782

v 51.978188 -197.342026 -50.787014

v 55.422668 -198.566757 -52.308289

v 116.405899 -164.782928 -51.701111

v 120.596718 -167.191116 -52.063675

v 64.013992 -200.954651 -52.401764

v 121.708206 -169.610504 -51.544601

v 71.502167 -203.083008 -52.311172

v 125.495056 -176.251770 -51.788242

v 78.303307 -204.960388 -52.199821

v 81.296272 -204.639069 -52.291946

v 124.643570 -180.461700 -52.073471

v 84.396927 -203.781204 -51.828262

v 122.389221 -184.266647 -52.123718

v 102.925781 -202.260010 -51.844788

v 112.877312 -197.525635 -51.779968

v 106.883423 -201.166931 -51.803116

v 59.468414 -170.959839 -49.910889

v 72.868774 -165.564850 -49.442871

v 73.651001 -163.361084 -50.922241

v 56.010345 -174.156448 -50.316620

v 83.065872 -163.149048 -50.920715

v 52.670166 -177.608521 -50.168182

v 85.371780 -159.648315 -51.257339

v 91.529709 -158.898590 -51.205803

v 89.219582 -163.317581 -51.091507

v 100.503052 -161.431091 -51.143883

v 94.966232 -166.189850 -51.079895

v 48.105797 -194.334915 -50.386375

v 93.269447 -168.410065 -49.269279

v 109.930603 -163.426620 -51.101830

v 100.279663 -171.843628 -51.126167

v 96.910606 -172.714157 -49.258324

v 74.068420 -180.768860 -49.353912

v 75.222015 -183.777603 -51.242195

v 81.724426 -180.978088 -50.006134

v 55.945404 -198.561218 -50.474625

v 81.489685 -183.451874 -51.242447

v 73.353149 -192.115250 -51.278755

v 69.420090 -185.787003 -49.454445

v 72.383759 -185.710876 -51.219818

v 62.879669 -200.034393 -50.019768

v 86.609070 -186.044769 -51.232639

v 90.799858 -186.141678 -49.629005

v 107.985306 -179.511398 -51.128311

v 124.440536 -177.341095 -51.085941

v 77.216690 -196.457718 -51.276741

v 103.662354 -178.958679 -49.342720

v 75.125153 -198.515274 -49.464027

v 90.522430 -189.824585 -51.196022

v 71.868683 -202.521683 -50.074310

v 111.483963 -185.965942 -51.136627

v 89.190445 -194.971268 -51.180069

v 93.277466 -191.006500 -49.382271

v 85.601585 -200.033508 -51.258377

v 77.958473 -204.616394 -50.393280

v 91.369659 -196.968460 -49.367317

v 85.301895 -201.892700 -51.210960

v 82.034454 -201.530853 -49.465904

v 82.824524 -203.055634 -50.066772

v 80.010674 -204.042297 -49.875801

v 120.909531 -183.716034 -51.156944

v 88.359436 -201.635681 -49.389214

v 118.254349 -187.702057 -51.155510

v 87.474915 -203.198792 -50.607605

v 90.628632 -203.437408 -50.145081

v 111.801300 -190.657471 -51.083614

v 109.087181 -190.902176 -49.296848

v 110.802864 -193.823822 -51.016502

v 95.003052 -202.686035 -50.270508

v 116.123596 -190.987564 -51.230644

v 106.372650 -196.337585 -49.624329

v 107.375793 -197.896912 -50.915649

v 113.559189 -195.274200 -51.277267

v 100.279694 -199.779144 -49.331459

v 65.242737 -168.119995 -49.351768

v 58.025024 -174.566406 -49.393497

v 49.630585 -183.284515 -49.446991

v 81.716599 -165.738449 -49.303936

v 87.126770 -164.939819 -49.564148

v 46.758179 -188.989777 -49.481705

v 51.283447 -194.922180 -49.489288

v 59.085991 -192.779373 -49.407585

v 82.365051 -179.111847 -49.314636

v 66.483620 -182.685974 -49.344730

v 65.216530 -186.547333 -49.369942

v 68.392525 -190.409866 -49.345909

v 68.247406 -192.380219 -49.435219

v 56.462540 -197.331940 -49.548901

v 60.946949 -195.144623 -49.307331

v 70.417389 -192.461166 -49.509186

v 62.722969 -196.727966 -49.304935

v 64.176674 -197.708344 -49.277935

v 94.084167 -187.735962 -49.288963

v 73.408417 -201.885147 -49.459911

v 65.647751 -198.666199 -49.316010

v 94.560463 -188.959625 -49.287418

v 108.136337 -185.803802 -49.258591

v 95.489403 -201.080658 -49.361870

f 1 2 3
f 2 4 5
f 3 6 1
f 2 5 7
f 3 2 7
f 6 3 8
f 3 7 8
f 8 9 6
f 8 10 9
f 11 8 7
f 7 12 13
f 11 14 8
f 10 8 14
f 7 13 15
f 16 7 15
f 11 7 16
f 16 17 11
f 15 18 16
f 13 19 15
f 15 20 18
f 17 16 21
f 20 15 22
f 18 23 16
f 21 16 23
f 23 18 24
f 20 24 18
f 24 25 23
f 26 24 20
f 27 25 24
f 20 22 26
f 24 28 27
f 29 27 28
f 24 26 28
f 30 26 22
f 29 31 32
f 28 31 29
f 31 33 32
f 33 31 34
f 28 26 35
f 34 36 33
f 37 31 28
f 34 31 37
f 35 26 38
f 35 37 28
f 38 37 35
f 34 39 36
f 37 40 34
f 39 34 40
f 40 37 41
f 41 37 42
f 39 40 43
f 44 40 41
f 45 4 1
f 4 2 1
f 45 1 6
f 46 47 5
f 4 46 5
f 47 48 49
f 50 49 48
f 49 5 47
f 51 6 9
f 49 12 5
f 52 49 50
f 53 51 9
f 49 52 12
f 12 7 5
f 54 52 50
f 12 52 19
f 9 10 53
f 55 53 10
f 54 56 52
f 56 19 52
f 19 13 12
f 57 55 10
f 57 10 14
f 57 14 11
f 17 58 11
f 57 11 58
f 59 58 17
f 60 61 56
f 19 56 61
f 22 15 19
f 17 21 59
f 56 62 60
f 63 21 23
f 63 59 21
f 22 19 61
f 60 62 64
f 64 65 60
f 63 23 25
f 25 66 63
f 65 61 60
f 66 25 27
f 61 30 22
f 27 67 66
f 61 65 68
f 67 27 29
f 29 69 67
f 68 65 70
f 68 30 61
f 69 29 32
f 32 71 69
f 71 32 33
f 33 72 71
f 30 68 73
f 30 38 26
f 72 33 36
f 73 38 30
f 74 36 39
f 38 73 75
f 75 42 38
f 37 38 42
f 39 76 74
f 76 39 43
f 42 75 77
f 44 41 42
f 78 43 40
f 44 42 77
f 77 79 44
f 78 40 44
f 78 80 43
f 81 79 77
f 80 82 43
f 79 83 44
f 78 44 83
f 83 80 78
f 81 83 79
f 46 84 85
f 84 46 4
f 46 85 86
f 84 4 45
f 86 87 47
f 86 47 46
f 45 6 88
f 89 88 6
f 47 87 48
f 89 6 90
f 48 91 50
f 90 6 51
f 92 90 51
f 92 51 53
f 53 93 92
f 94 92 93
f 95 94 93
f 50 91 96
f 50 96 54
f 95 93 97
f 53 98 93
f 99 100 54
f 54 100 101
f 97 93 98
f 102 97 98
f 101 56 54
f 53 55 98
f 98 55 103
f 104 105 100
f 105 101 100
f 55 57 106
f 103 102 98
f 103 55 106
f 106 57 58
f 59 107 58
f 105 62 101
f 56 101 62
f 59 108 107
f 62 105 109
f 63 108 59
f 63 66 108
f 109 64 62
f 110 64 109
f 64 110 111
f 111 70 64
f 64 70 65
f 70 111 112
f 70 112 113
f 68 70 73
f 73 70 113
f 72 36 74
f 113 114 73
f 75 73 114
f 114 115 75
f 75 115 77
f 76 43 82
f 116 76 82
f 115 117 77
f 81 77 117
f 82 80 116
f 83 81 118
f 118 119 83
f 80 83 119
f 85 84 120
f 121 87 122
f 86 122 87
f 123 86 85
f 85 120 123
f 124 121 122
f 84 125 120
f 125 84 45
f 126 124 127
f 88 125 45
f 126 121 124
f 91 48 121
f 121 48 87
f 127 128 126
f 121 126 129
f 130 89 90
f 131 126 128
f 130 90 92
f 130 92 94
f 129 91 121
f 132 126 131
f 91 129 96
f 94 95 133
f 132 99 126
f 129 126 99
f 129 54 96
f 99 54 129
f 97 134 95
f 99 132 135
f 97 136 134
f 136 97 102
f 99 135 104
f 100 99 104
f 102 137 136
f 138 137 102
f 139 104 135
f 138 102 103
f 140 103 106
f 103 140 138
f 141 140 106
f 58 141 106
f 139 142 104
f 104 142 105
f 109 105 142
f 141 58 107
f 107 108 143
f 144 109 142
f 144 110 109
f 66 143 108
f 143 145 107
f 66 146 143
f 145 143 146
f 144 147 110
f 146 66 67
f 110 147 111
f 145 148 149
f 146 148 145
f 69 146 67
f 146 69 148
f 147 150 111
f 69 71 148
f 111 150 112
f 150 151 112
f 112 151 113
f 151 152 113
f 153 113 152
f 74 154 72
f 153 114 113
f 154 74 76
f 153 155 114
f 76 156 154
f 155 115 114
f 157 115 155
f 117 115 157
f 117 157 158
f 118 81 117
f 80 159 116
f 160 161 117
f 118 117 161
f 159 80 119
f 122 162 163
f 162 122 86
f 86 164 162
f 124 163 165
f 124 122 163
f 164 86 123
f 127 124 165
f 120 166 123
f 165 167 127
f 166 120 125
f 167 128 127
f 125 168 166
f 168 125 88
f 88 130 168
f 128 167 169
f 130 88 89
f 169 131 128
f 131 169 170
f 170 132 131
f 94 133 130
f 132 170 171
f 95 172 133
f 171 135 132
f 171 173 135
f 95 174 172
f 174 95 134
f 135 173 175
f 134 136 176
f 139 135 175
f 176 136 137
f 137 138 177
f 178 176 137
f 177 138 140
f 137 177 179
f 179 178 137
f 180 139 175
f 140 179 177
f 142 139 180
f 179 181 178
f 179 140 182
f 140 141 107
f 182 140 107
f 180 183 142
f 181 179 184
f 182 184 179
f 183 144 142
f 182 185 184
f 185 186 184
f 182 107 145
f 144 183 187
f 185 182 149
f 183 188 187
f 145 149 182
f 187 147 144
f 148 189 149
f 190 187 188
f 147 187 191
f 191 150 147
f 148 71 189
f 192 189 71
f 190 191 187
f 192 71 72
f 72 193 192
f 191 151 150
f 194 195 191
f 152 151 191
f 72 154 193
f 191 195 152
f 195 153 152
f 153 195 196
f 156 76 116
f 195 197 196
f 196 155 153
f 198 196 197
f 157 155 199
f 196 199 155
f 198 199 196
f 158 160 117
f 119 118 200
f 200 159 119
f 201 163 202
f 203 162 204
f 202 162 203
f 162 164 204
f 167 165 201
f 163 201 165
f 162 202 163
f 205 164 123
f 167 206 169
f 168 130 207
f 170 169 206
f 133 208 130
f 209 208 133
f 133 172 209
f 210 173 171
f 173 210 175
f 134 211 174
f 212 175 210
f 210 213 212
f 212 180 175
f 134 176 211
f 176 214 211
f 176 178 214
f 212 215 216
f 216 217 212
f 180 212 217
f 181 214 178
f 217 188 180
f 181 184 218
f 216 219 220
f 220 217 216
f 186 218 184
f 218 186 221
f 183 180 188
f 188 217 220
f 185 221 186
f 222 221 185
f 149 222 185
f 190 188 220
f 149 189 222
f 223 222 189
f 224 222 223
f 225 226 220
f 226 190 220
f 222 224 227
f 189 192 223
f 223 192 224
f 224 228 227
f 227 228 229
f 230 224 192
f 192 193 230
f 231 194 190
f 229 228 232
f 224 230 228
f 194 191 190
f 228 233 232
f 233 228 230
f 226 231 190
f 231 226 234
f 193 154 230
f 194 235 195
f 230 154 236
f 233 237 232
f 236 233 230
f 234 238 231
f 194 231 238
f 156 236 154
f 238 234 239
f 194 238 240
f 239 240 238
f 240 235 194
f 235 197 195
f 241 237 233
f 233 236 241
f 197 235 240
f 237 241 242
f 156 116 236
f 197 240 243
f 241 157 242
f 241 158 157
f 244 241 236
f 244 236 116
f 242 157 199
f 245 243 240
f 242 199 246
f 241 247 158
f 243 198 197
f 241 244 247
f 246 198 248
f 246 199 198
f 247 160 158
f 159 244 116
f 243 248 198
f 244 118 247
f 247 161 160
f 247 118 161
f 244 200 118
f 200 244 159
f 201 249 250
f 201 202 249
f 204 251 203
f 202 203 249
f 206 250 252
f 167 201 250
f 205 204 164
f 206 167 250
f 166 205 123
f 253 205 166
f 253 166 168
f 253 168 207
f 252 254 206
f 206 254 170
f 130 208 207
f 170 254 255
f 171 170 255
f 209 256 208
f 171 255 257
f 209 172 256
f 171 257 210
f 258 256 172
f 259 258 172
f 210 257 213
f 259 172 174
f 211 259 174
f 213 260 261
f 213 261 215
f 262 259 211
f 212 213 215
f 262 211 214
f 261 263 264
f 264 215 261
f 215 264 219
f 181 218 214
f 264 265 266
f 216 215 219
f 264 266 219
f 266 267 219
f 221 222 268
f 267 220 219
f 266 265 269
f 267 266 269
f 220 267 270
f 222 271 268
f 225 220 270
f 267 269 272
f 271 222 227
f 270 267 272
f 273 272 269
f 270 272 274
f 225 270 226
f 229 275 227
f 276 274 272
f 270 274 226
f 275 229 232
f 274 234 226
f 234 274 277
f 232 278 275
f 279 278 237
f 232 237 278
f 277 280 234
f 280 239 234
f 281 279 237
f 281 237 242
f 245 240 239
f 280 282 239
f 282 245 239
f 245 282 283
f 243 245 283
f 283 284 243
f 248 243 284
f 285 203 286
f 285 287 249
f 250 287 288
f 203 251 286
f 289 290 288
f 290 250 288
f 250 249 287
f 203 285 249
f 291 290 289
f 250 290 252
f 204 205 251
f 292 251 205
f 293 292 253
f 253 292 205
f 291 252 290
f 291 294 295
f 252 291 254
f 293 253 207
f 291 295 255
f 254 291 255
f 296 295 294
f 296 297 298
f 296 255 295
f 299 298 297
f 296 298 255
f 299 300 301
f 301 298 299
f 255 298 257
f 302 301 300
f 303 298 301
f 302 303 301
f 298 303 260
f 260 257 298
f 304 303 302
f 257 260 213
f 305 258 259
f 260 303 306
f 306 303 304
f 306 261 260
f 304 307 306
f 307 308 306
f 263 261 306
f 259 262 305
f 308 263 306
f 308 264 263
f 309 262 214
f 214 310 309
f 311 264 308
f 214 312 310
f 264 311 265
f 312 214 218
f 218 313 312
f 313 218 221
f 313 221 268
f 314 269 265
f 269 314 315
f 269 315 273
f 315 316 273
f 317 273 316
f 275 271 227
f 272 273 317
f 276 272 317
f 318 276 317
f 274 276 318
f 277 274 318
f 318 319 277
f 280 277 319
f 319 320 280
f 282 280 320
f 246 281 242
f 282 320 321
f 284 246 248
f 321 322 282
f 282 322 283
f 323 284 283
f 287 324 325
f 324 287 285
f 286 326 285
f 327 288 287
f 287 325 327
f 251 328 286
f 292 329 251
f 330 292 293
f 289 331 291
f 332 291 331
f 333 294 291
f 291 332 333
f 334 293 207
f 294 333 335
f 207 336 334
f 294 335 296
f 296 337 297
f 296 335 337
f 336 207 208
f 297 338 299
f 338 297 337
f 299 339 300
f 299 338 339
f 208 340 336
f 340 208 256
f 341 300 339
f 300 341 302
f 340 256 258
f 302 341 342
f 258 343 340
f 302 342 304
f 344 304 342
f 344 345 304
f 343 258 305
f 307 304 345
f 345 346 307
f 347 307 346
f 347 308 307
f 305 262 309
f 348 265 311
f 265 348 314
f 268 349 313
f 349 268 350
f 315 314 351
f 351 352 315
f 271 350 268
f 352 316 315
f 350 271 353
f 275 353 271
f 354 353 275
f 318 317 355
f 354 275 278
f 319 318 355
f 356 319 355
f 279 357 278
f 358 319 356
f 281 357 279
f 357 281 359
f 320 319 358
f 358 360 320
f 246 361 281
f 284 361 246
f 320 360 321
f 362 321 360
f 321 362 322
f 363 283 322
f 363 364 283
f 323 283 364
f 324 285 326
f 286 328 326
f 329 328 251
f 365 289 288
f 288 327 365
f 292 366 329
f 331 289 365
f 292 330 366
f 365 367 331
f 334 330 293
f 332 331 367
f 367 368 332
f 333 332 368
f 369 334 336
f 335 333 370
f 333 368 370
f 335 370 337
f 369 336 340
f 340 371 369
f 372 369 371
f 371 373 372
f 374 372 373
f 373 375 374
f 371 340 343
f 373 371 376
f 376 377 373
f 375 373 377
f 305 371 343
f 376 378 377
f 305 379 371
f 376 371 379
f 309 379 305
f 376 380 378
f 347 381 308
f 310 379 309
f 380 376 382
f 311 308 381
f 310 383 379
f 381 384 311
f 383 376 379
f 383 310 312
f 382 376 383
f 348 311 384
f 384 385 348
f 382 383 386
f 313 383 312
f 313 387 383
f 386 383 387
f 385 351 348
f 349 387 313
f 314 348 351
f 388 386 387
f 350 387 349
f 350 388 387
f 353 388 350
f 316 352 389
f 353 390 388
f 316 389 391
f 316 392 317
f 392 316 391
f 354 390 353
f 390 354 393
f 317 392 394
f 393 354 395
f 317 394 355
f 278 395 354
f 396 395 278
f 357 396 278
f 396 357 359
f 281 361 359
f 361 284 397
f 364 397 323
f 323 397 284
f 322 362 398
f 363 322 398
f 399 324 400
f 324 326 400
f 401 400 326
f 402 401 326
f 326 328 402
f 403 402 328
f 325 324 399
f 404 325 399
f 328 329 403
f 327 325 404
f 329 366 403
f 405 365 327
f 406 330 334
f 407 368 365
f 368 367 365
f 408 406 334
f 369 408 334
f 368 407 370
f 369 409 408
f 410 370 407
f 370 410 337
f 369 372 409
f 411 409 372
f 337 410 338
f 372 412 411
f 413 338 410
f 413 339 338
f 372 374 412
f 413 414 339
f 414 341 339
f 375 415 374
f 414 342 341
f 414 344 342
f 375 416 415
f 346 345 344
f 416 375 377
f 416 377 378
f 346 381 347
f 378 380 417
f 417 416 378
f 417 380 382
f 381 418 384
f 417 382 419
f 418 385 384
f 420 419 382
f 386 421 382
f 420 382 421
f 385 422 351
f 388 423 386
f 421 386 423
f 352 351 422
f 352 422 389
f 423 388 390
f 390 424 423
f 394 425 355
f 356 355 425
f 395 396 426
f 361 427 359
f 358 428 360
f 360 429 362
f 398 430 363
f 400 401 431
f 431 401 402
f 403 432 402
f 433 432 403
f 405 327 404
f 366 433 403
f 434 433 366
f 434 366 330
f 435 434 330
f 435 330 406
f 436 407 405
f 365 405 407
f 435 406 437
f 438 407 436
f 437 406 408
f 408 439 437
f 410 407 438
f 439 408 409
f 440 410 438
f 410 440 413
f 439 409 411
f 440 441 414
f 413 440 414
f 412 374 415
f 442 344 441
f 414 441 344
f 416 443 415
f 344 442 346
f 442 444 346
f 416 445 443
f 346 444 381
f 445 416 417
f 417 446 445
f 381 444 418
f 446 417 419
f 419 447 446
f 447 419 420
f 420 448 447
f 422 385 418
f 422 418 449
f 448 420 421
f 421 450 448
f 422 449 451
f 450 421 423
f 451 389 422
f 423 452 450
f 453 389 451
f 424 452 423
f 389 453 391
f 424 390 454
f 390 393 455
f 455 454 390
f 453 456 391
f 391 456 392
f 392 456 394
f 393 457 455
f 457 393 395
f 456 425 394
f 457 395 426
f 425 458 356
f 396 427 426
f 427 396 359
f 356 458 358
f 358 458 428
f 361 459 427
f 459 361 397
f 430 397 364
f 364 363 430
f 460 400 461
f 461 400 431
f 462 463 404
f 462 399 460
f 400 460 399
f 464 404 463
f 465 431 402
f 404 464 466
f 404 399 462
f 465 402 432
f 464 467 466
f 466 405 404
f 468 465 432
f 468 433 469
f 467 470 466
f 432 433 468
f 469 434 471
f 472 466 470
f 436 405 466
f 434 469 433
f 466 472 473
f 471 434 435
f 473 436 466
f 472 474 473
f 473 474 475
f 438 436 473
f 473 475 438
f 476 475 474
f 439 477 437
f 438 475 440
f 475 476 478
f 478 440 475
f 439 411 479
f 479 411 412
f 440 478 441
f 480 478 481
f 480 441 478
f 412 415 479
f 442 441 480
f 415 482 479
f 415 443 482
f 480 483 484
f 484 442 480
f 485 482 443
f 445 485 443
f 486 487 484
f 484 444 442
f 487 444 484
f 488 485 445
f 489 487 486
f 490 488 445
f 445 446 490
f 444 487 418
f 489 418 487
f 447 490 446
f 490 491 492
f 490 447 491
f 448 491 447
f 493 492 491
f 491 494 493
f 418 489 495
f 418 495 449
f 496 449 495
f 450 494 491
f 450 491 448
f 449 496 497
f 493 494 498
f 497 451 449
f 452 498 494
f 452 494 450
f 498 452 499
f 452 424 499
f 454 499 424
f 499 454 500
f 455 500 454
f 457 500 455
f 500 457 501
f 457 502 501
f 503 425 456
f 426 502 457
f 503 458 425
f 427 502 426
f 459 504 427
f 459 505 504
f 397 505 459
f 360 428 429
f 505 397 430
f 506 362 429
f 505 430 507
f 398 362 506
f 506 508 398
f 508 507 430
f 430 398 508
f 509 460 461
f 461 510 509
f 460 509 511
f 462 460 511
f 510 461 431
f 512 510 431
f 462 511 513
f 431 514 512
f 514 431 465
f 513 463 462
f 514 465 468
f 468 515 514
f 463 513 464
f 468 469 515
f 516 515 469
f 517 470 467
f 469 471 516
f 518 516 471
f 470 517 519
f 470 519 472
f 520 518 471
f 471 435 520
f 472 521 474
f 435 437 520
f 522 520 437
f 437 477 522
f 478 476 523
f 481 478 523
f 477 439 479
f 477 479 524
f 524 479 525
f 480 481 526
f 479 482 525
f 480 526 483
f 483 527 484
f 484 527 486
f 488 528 485
f 527 529 486
f 529 489 486
f 488 530 531
f 530 488 490
f 532 489 529
f 533 489 532
f 533 495 489
f 533 534 495
f 535 492 493
f 534 496 495
f 534 536 496
f 537 493 498
f 496 536 497
f 536 538 497
f 451 497 538
f 498 539 540
f 539 498 499
f 541 451 538
f 499 500 539
f 451 541 453
f 453 541 542
f 453 542 456
f 456 542 503
f 427 504 502
f 428 458 543
f 505 544 504
f 545 429 428
f 429 545 506
f 546 505 507
f 547 511 509
f 547 509 510
f 510 548 547
f 510 549 548
f 514 550 512
f 511 551 513
f 552 511 547
f 547 548 552
f 549 510 512
f 550 514 515
f 551 464 513
f 511 552 551
f 552 548 553
f 549 512 550
f 517 464 551
f 548 554 553
f 554 548 549
f 550 555 549
f 550 515 516
f 517 467 464
f 549 556 554
f 516 518 550
f 549 555 556
f 555 557 556
f 558 555 550
f 558 550 518
f 559 518 520
f 519 521 472
f 555 560 557
f 560 555 558
f 518 559 558
f 520 522 559
f 560 558 561
f 559 562 558
f 521 563 474
f 558 562 561
f 563 476 474
f 522 477 559
f 559 477 562
f 564 562 477
f 564 477 524
f 523 565 481
f 481 565 526
f 526 566 483
f 567 483 566
f 483 567 527
f 528 482 485
f 568 527 569
f 568 529 527
f 528 488 531
f 570 532 568
f 529 568 532
f 532 570 533
f 571 533 570
f 490 535 530
f 535 490 492
f 533 571 534
f 535 493 537
f 572 573 571
f 534 571 573
f 573 536 534
f 574 573 572
f 498 540 537
f 536 573 538
f 538 573 574
f 575 539 500
f 576 542 541
f 577 503 542
f 501 502 578
f 579 502 504
f 579 504 544
f 544 505 580
f 545 428 543
f 546 580 505
f 581 582 508
f 507 582 546
f 545 581 506
f 508 582 507
f 581 508 506
f 551 552 583
f 583 517 551
f 517 583 584
f 554 585 553
f 519 517 584
f 585 554 556
f 556 586 585
f 519 584 587
f 586 556 557
f 557 588 586
f 519 587 521
f 588 557 560
f 563 589 476
f 589 523 476
f 562 590 591
f 590 562 564
f 592 523 589
f 564 593 590
f 593 564 524
f 523 592 565
f 592 594 595
f 595 565 592
f 524 596 593
f 566 526 595
f 565 595 526
f 596 524 525
f 595 594 566
f 597 566 594
f 525 598 596
f 597 599 600
f 600 566 597
f 598 525 482
f 566 600 567
f 601 600 599
f 567 600 569
f 598 482 528
f 528 602 598
f 567 569 527
f 603 600 601
f 603 569 600
f 528 531 602
f 603 570 569
f 569 570 568
f 531 604 602
f 603 605 606
f 606 570 603
f 606 571 570
f 607 571 606
f 530 535 608
f 572 571 607
f 607 609 572
f 535 537 610
f 574 572 609
f 540 610 537
f 609 611 574
f 538 574 611
f 540 612 610
f 611 613 538
f 540 539 612
f 613 541 538
f 614 575 500
f 542 576 615
f 501 578 614
f 614 500 501
f 615 577 542
f 502 579 578
f 503 577 616
f 616 458 503
f 458 616 617
f 617 543 458
f 580 618 544
f 543 617 619
f 620 580 546
f 619 545 543
f 581 545 619
f 552 621 622
f 622 583 552
f 621 552 553
f 621 553 623
f 623 553 585
f 624 586 588
f 625 626 521
f 521 626 563
f 626 627 589
f 589 563 626
f 591 561 562
f 628 592 627
f 589 627 592
f 628 594 592
f 590 593 591
f 629 591 593
f 630 597 594
f 593 596 629
f 631 599 597
f 632 629 596
f 596 598 632
f 633 601 599
f 602 632 598
f 603 601 634
f 634 635 603
f 605 603 635
f 606 605 636
f 637 606 636
f 637 638 606
f 531 530 604
f 604 530 608
f 607 606 638
f 535 639 608
f 535 610 639
f 610 612 640
f 640 612 641
f 575 641 612
f 612 539 575
f 642 541 613
f 614 641 575
f 643 641 614
f 576 541 642
f 643 614 644
f 644 614 578
f 644 578 645
f 646 645 578
f 646 647 645
f 646 578 579
f 544 647 646
f 648 647 544
f 646 579 544
f 618 648 544
f 580 620 618
f 617 649 619
f 582 581 650
f 651 652 583
f 583 622 651
f 652 653 584
f 584 583 652
f 654 623 585
f 587 653 655
f 585 586 654
f 656 586 624
f 587 584 653
f 588 657 624
f 658 521 655
f 521 587 655
f 521 658 625
f 588 560 659
f 660 659 560
f 626 625 661
f 626 661 627
f 660 560 561
f 661 662 627
f 561 591 660
f 628 627 662
f 628 630 594
f 631 597 663
f 663 597 630
f 631 633 599
f 664 629 632
f 665 664 632
f 633 634 601
f 632 602 665
f 604 665 602
f 605 635 636
f 638 609 607
f 638 666 609
f 610 667 639
f 666 611 609
f 640 667 610
f 667 640 641
f 668 641 643
f 669 576 642
f 644 645 670
f 576 669 615
f 671 645 647
f 615 672 577
f 671 647 648
f 648 673 671
f 577 672 616
f 616 674 617
f 620 675 618
f 617 674 676
f 677 620 546
f 676 649 617
f 546 650 677
f 650 546 582
f 619 649 650
f 650 581 619
f 678 651 679
f 680 679 651
f 652 651 678
f 680 651 622
f 622 621 680
f 681 680 621
f 678 682 652
f 621 623 681
f 653 652 682
f 656 654 586
f 653 683 655
f 683 658 655
f 588 659 657
f 684 625 658
f 684 685 625
f 685 686 661
f 625 685 661
f 686 687 662
f 662 661 686
f 687 688 628
f 687 628 662
f 689 660 591
f 690 628 688
f 630 628 690
f 591 691 689
f 629 691 591
f 691 629 692
f 693 631 663
f 692 629 664
f 631 693 633
f 664 694 692
f 694 664 665
f 693 695 634
f 633 693 634
f 696 694 665
f 695 635 634
f 696 665 604
f 695 697 698
f 698 635 695
f 636 635 698
f 697 699 698
f 636 698 700
f 608 696 604
f 637 636 700
f 698 699 701
f 700 698 701
f 700 638 637
f 702 701 699
f 700 701 703
f 704 696 608
f 702 705 701
f 704 608 639
f 705 703 701
f 700 666 638
f 703 705 706
f 666 700 703
f 666 703 611
f 611 703 706
f 707 611 706
f 707 613 611
f 613 707 642
f 668 643 708
f 708 643 644
f 615 669 709
f 671 670 645
f 615 709 672
f 673 648 675
f 675 648 618
f 616 672 710
f 674 616 710
f 620 677 675
f 650 711 677
f 712 678 679
f 679 713 712
f 713 679 680
f 712 682 678
f 714 681 623
f 715 713 680
f 715 680 681
f 714 623 654
f 653 682 716
f 717 682 712
f 654 718 714
f 718 654 656
f 653 716 683
f 681 719 715
f 656 720 718
f 720 656 624
f 682 717 716
f 721 713 715
f 719 681 714
f 714 722 719
f 720 624 657
f 723 658 683
f 723 683 716
f 657 659 720
f 684 658 723
f 724 721 715
f 715 719 724
f 722 714 718
f 725 720 659
f 726 685 684
f 718 720 725
f 659 660 725
f 727 719 722
f 722 728 727
f 722 729 728
f 730 722 718
f 722 730 729
f 731 725 660
f 718 725 730
f 689 731 660
f 729 730 732
f 725 733 730
f 733 725 731
f 734 690 688
f 690 735 630
f 735 690 734
f 732 730 733
f 691 731 689
f 736 630 735
f 731 737 733
f 630 736 663
f 692 731 691
f 731 692 737
f 736 738 663
f 663 738 693
f 692 694 737
f 739 693 738
f 695 693 739
f 695 739 740
f 741 737 694
f 694 742 741
f 694 696 742
f 697 695 740
f 743 741 742
f 742 696 743
f 744 699 697
f 702 699 744
f 702 744 745
f 704 743 696
f 705 702 745
f 705 746 706
f 667 747 639
f 667 748 747
f 707 706 749
f 668 748 667
f 667 641 668
f 707 750 642
f 750 751 642
f 644 670 708
f 709 669 752
f 753 674 710
f 674 753 676
f 754 676 755
f 649 676 754
f 650 649 754
f 711 650 754
f 717 712 756
f 717 756 716
f 757 723 716
f 758 721 724
f 759 684 723
f 723 757 759
f 724 760 758
f 684 759 761
f 760 724 719
f 726 684 761
f 762 719 727
f 763 685 726
f 686 685 763
f 727 764 762
f 728 764 727
f 686 763 687
f 687 763 765
f 728 729 764
f 732 766 729
f 688 687 734
f 734 687 765
f 733 767 732
f 766 732 767
f 737 767 733
f 738 736 768
f 767 737 769
f 768 739 738
f 739 768 770
f 770 740 739
f 741 769 737
f 740 770 771
f 740 771 697
f 743 772 741
f 772 743 773
f 774 744 697
f 773 743 704
f 775 745 744
f 773 704 776
f 776 704 639
f 745 746 705
f 776 639 747
f 749 706 746
f 777 707 749
f 750 707 777
f 708 748 668
f 751 778 642
f 669 642 778
f 778 752 669
f 670 671 779
f 671 780 779
f 673 780 671
f 709 710 672
f 780 675 781
f 675 780 673
f 781 675 782
f 782 675 677
f 782 677 783
f 755 676 753
f 711 783 677
f 711 784 783
f 754 755 784
f 754 784 711
f 712 785 756
f 785 712 713
f 713 721 785
f 716 756 757
f 721 758 785
f 719 762 760
f 786 726 761
f 726 786 763
f 763 787 765
f 763 786 787
f 764 729 788
f 766 788 729
f 765 787 734
f 788 766 789
f 735 734 787
f 789 766 767
f 790 789 767
f 736 791 768
f 790 767 769
f 741 772 769
f 771 770 792
f 697 771 774
f 774 775 744
f 775 793 745
f 794 793 775
f 793 746 745
f 746 793 795
f 795 793 796
f 797 776 747
f 794 796 793
f 747 798 797
f 796 794 799
f 795 749 746
f 795 796 800
f 748 798 747
f 749 795 800
f 796 801 800
f 799 802 796
f 802 801 796
f 801 803 800
f 800 777 749
f 803 777 800
f 804 777 803
f 804 750 777
f 750 804 805
f 751 750 805
f 805 778 751
f 778 805 806
f 752 778 806
f 670 779 807
f 806 808 752
f 779 780 809
f 781 809 780
f 709 810 710
f 756 811 757
f 811 756 785
f 812 757 811
f 760 813 758
f 812 759 757
f 785 814 811
f 813 785 758
f 762 813 760
f 761 759 812
f 785 813 814
f 814 812 811
f 815 813 762
f 816 761 812
f 812 814 816
f 813 815 817
f 762 764 815
f 761 816 786
f 814 818 816
f 786 816 819
f 764 820 815
f 764 788 820
f 821 815 820
f 786 819 787
f 816 822 819
f 788 789 820
f 787 791 735
f 787 823 791
f 820 789 824
f 791 736 735
f 789 825 824
f 790 825 789
f 790 826 825
f 769 826 790
f 791 827 768
f 828 826 769
f 768 827 770
f 769 772 828
f 770 827 792
f 773 829 772
f 771 792 774
f 773 830 829
f 775 774 831
f 794 775 831
f 773 776 830
f 776 797 830
f 831 832 794
f 799 794 832
f 748 833 798
f 832 834 799
f 802 799 834
f 802 834 801
f 833 748 708
f 834 835 801
f 835 836 801
f 801 836 803
f 836 837 803
f 803 837 804
f 807 838 670
f 708 670 838
f 804 837 839
f 804 839 805
f 839 840 805
f 806 805 840
f 808 806 840
f 752 808 841
f 709 752 841
f 709 841 810
f 810 842 710
f 781 782 843
f 782 844 843
f 842 753 710
f 782 783 844
f 783 784 845
f 755 845 784
f 846 814 813
f 846 813 817
f 814 846 818
f 847 846 817
f 846 847 818
f 821 847 817
f 815 821 817
f 822 816 818
f 819 822 823
f 818 847 822
f 847 848 849
f 850 847 821
f 823 822 851
f 847 850 848
f 820 824 821
f 819 823 787
f 852 822 847
f 821 824 853
f 821 853 850
f 852 851 822
f 791 823 851
f 851 852 854
f 852 847 849
f 848 855 849
f 791 851 856
f 857 848 850
f 857 850 853
f 824 858 853
f 849 859 852
f 848 857 855
f 853 860 857
f 849 861 859
f 861 849 855
f 854 856 851
f 860 853 858
f 824 862 858
f 862 824 825
f 852 859 863
f 858 864 860
f 864 858 862
f 865 825 826
f 827 791 856
f 866 852 863
f 862 825 865
f 856 854 867
f 852 866 854
f 827 856 868
f 869 854 866
f 856 867 868
f 827 868 792
f 792 868 867
f 870 828 772
f 871 854 869
f 854 871 867
f 870 772 829
f 872 867 871
f 792 867 872
f 873 774 792
f 874 872 871
f 830 875 829
f 872 873 792
f 831 774 873
f 876 872 874
f 832 831 873
f 873 872 877
f 877 878 873
f 872 876 877
f 873 879 832
f 879 873 878
f 876 880 877
f 833 881 798
f 834 832 879
f 878 877 880
f 880 882 878
f 879 835 834
f 883 833 708
f 884 879 878
f 885 878 882
f 878 886 884
f 886 878 885
f 884 835 879
f 883 708 838
f 836 835 884
f 837 836 884
f 884 886 837
f 886 839 837
f 886 885 839
f 885 840 839
f 779 887 807
f 779 809 887
f 809 888 887
f 781 889 809
f 781 843 889
f 810 890 842
f 891 753 842
f 783 845 844
f 753 892 755
f 845 755 892
f 893 861 855
f 894 855 857
f 857 895 894
f 855 894 893
f 895 857 860
f 896 861 893
f 896 859 861
f 897 863 859
f 897 859 896
f 863 898 866
f 898 863 897
f 826 899 865
f 900 869 866
f 866 898 900
f 828 901 826
f 902 901 828
f 902 828 870
f 869 900 903
f 903 871 869
f 903 874 871
f 874 903 904
f 830 905 875
f 904 876 874
f 905 830 906
f 907 876 904
f 906 830 797
f 798 906 797
f 906 798 881
f 908 880 907
f 876 907 880
f 833 909 881
f 882 880 908
f 908 910 882
f 883 909 833
f 909 883 911
f 885 882 910
f 910 912 885
f 883 838 911
f 840 885 912
f 838 807 913
f 911 838 913
f 913 807 914
f 912 808 840
f 808 912 915
f 887 916 807
f 914 807 916
f 841 808 915
f 915 917 841
f 916 887 888
f 810 841 917
f 888 809 889
f 917 890 810
f 845 918 844
f 891 919 753
f 845 920 918
f 919 892 753
f 919 920 892
f 845 892 920
f 860 921 895
f 922 894 895
f 923 893 894
f 893 923 896
f 894 922 923
f 921 860 864
f 864 924 921
f 925 896 923
f 864 926 924
f 926 864 862
f 897 927 898
f 896 927 897
f 925 923 922
f 926 862 865
f 865 899 926
f 925 927 896
f 898 928 900
f 928 898 927
f 901 899 826
f 927 929 928
f 929 927 925
f 900 928 903
f 928 929 930
f 902 870 829
f 930 903 928
f 929 931 930
f 829 932 902
f 931 929 933
f 934 903 930
f 935 930 931
f 932 829 875
f 903 934 904
f 931 933 935
f 935 934 930
f 875 905 932
f 933 936 935
f 937 938 939
f 906 940 905
f 907 904 934
f 941 939 938
f 938 942 941
f 943 942 944
f 938 944 942
f 906 945 940
f 939 946 947
f 946 939 941
f 948 934 935
f 906 881 945
f 942 946 941
f 908 907 910
f 907 934 910
f 949 934 948
f 942 950 946
f 881 909 945
f 949 910 934
f 935 951 948
f 942 952 950
f 946 953 947
f 909 954 945
f 909 911 954
f 948 955 949
f 946 956 953
f 956 946 950
f 957 953 956
f 950 958 956
f 950 952 958
f 912 910 949
f 913 959 954
f 911 913 954
f 956 958 960
f 961 958 962
f 962 963 961
f 913 964 959
f 913 914 964
f 912 949 915
f 949 955 965
f 958 961 966
f 961 963 916
f 914 963 964
f 955 967 965
f 916 963 914
f 966 961 968
f 968 961 916
f 915 949 965
f 917 915 965
f 888 968 916
f 888 969 968
f 970 971 972
f 965 967 917
f 967 955 970
f 889 969 888
f 917 967 890
f 973 969 889
f 967 970 974
f 973 889 843
f 890 967 974
f 975 976 972
f 842 890 974
f 970 977 974
f 977 970 972
f 844 918 978
f 844 978 973
f 973 843 844
f 842 974 891
f 974 977 891
f 976 975 918
f 977 972 976
f 976 919 977
f 976 920 919
f 976 918 920
f 977 919 891
f 895 979 922
f 895 921 979
f 921 980 979
f 980 921 924
f 924 926 980
f 926 981 980
f 937 922 979
f 981 926 899
f 982 925 922
f 980 937 979
f 922 937 982
f 901 981 899
f 925 983 929
f 983 925 982
f 901 984 981
f 984 901 902
f 985 981 984
f 981 986 980
f 902 932 984
f 933 983 982
f 987 933 982
f 987 982 937
f 933 929 983
f 980 988 937
f 980 989 988
f 989 980 986
f 985 984 932
f 943 937 988
f 943 988 989
f 986 981 985
f 944 937 943
f 990 943 989
f 933 987 936
f 939 987 937
f 944 938 937
f 905 985 932
f 986 991 989
f 986 985 992
f 989 991 990
f 986 993 991
f 985 940 992
f 940 985 905
f 992 993 986
f 947 987 939
f 990 994 943
f 993 995 991
f 993 992 995
f 991 994 990
f 951 935 936
f 992 945 995
f 945 992 940
f 994 942 943
f 995 996 991
f 997 951 936
f 997 936 987
f 952 991 998
f 999 991 996
f 952 994 991
f 995 945 996
f 998 991 999
f 996 945 999
f 997 987 947
f 997 1000 951
f 999 945 954
f 952 942 994
f 954 998 999
f 1001 951 1000
f 953 957 947
f 997 957 1000
f 957 997 947
f 951 1001 948
f 962 958 952
f 962 952 998
f 959 998 954
f 955 948 1001
f 956 960 957
f 964 962 998
f 998 959 964
f 978 1000 957
f 1001 1000 971
f 978 957 960
f 958 966 960
f 963 962 964
f 970 955 1001
f 971 970 1001
f 971 1000 978
f 1002 960 966
f 968 969 966
f 966 969 1002
f 971 978 975
f 960 1002 978
f 973 1002 969
f 971 975 972
f 1002 973 978
f 975 978 918
