v -86.624954 -153.560730 -101.658653

v -89.698761 -155.029800 -101.587296

v -86.288147 -152.045197 -100.864868

v -81.881699 -150.368713 -100.990234

v -79.204102 -150.772827 -101.680382

v -77.433365 -148.398193 -100.746490

v -71.095901 -146.479507 -101.022156

v -92.527527 -157.581238 -99.996460

v -89.255188 -157.973755 -101.475769

v -70.879410 -147.883118 -101.655823

v -82.535645 -156.566437 -101.638962

v -74.028236 -155.659485 -101.668808

v -88.681076 -160.303375 -99.922775

v -64.716301 -148.541641 -101.513077

v -61.513062 -154.830048 -101.633453

v -61.889050 -150.218674 -100.801804

v -67.821106 -161.399353 -101.688629

v -68.835617 -164.378662 -99.828217

v -57.844330 -157.719421 -101.039024

v -58.893799 -164.345337 -101.666870

v -56.301666 -162.222977 -101.075974

v -55.581055 -165.616241 -99.751434

v -59.398926 -167.004150 -99.875198

v -91.523178 -154.151047 -99.473320

v -83.466492 -149.575226 -96.821167

v -95.806244 -156.919571 -99.647491

v -78.171692 -147.336426 -97.047852

v -70.914307 -143.163940 -94.704712

v -97.851318 -159.794617 -98.471313

v -93.095062 -163.425232 -99.850258

v -98.298096 -161.448120 -98.032944

v -64.883667 -146.008789 -98.584473

v -68.283569 -144.211426 -97.284668

v -79.685242 -158.877075 -99.882767

v -61.850906 -146.954758 -96.991302

v -74.896606 -158.213135 -100.080688

v -83.528732 -167.357178 -99.557861

v -89.450562 -167.944336 -98.029129

v -58.615814 -153.195282 -98.254395

v -72.120728 -168.670776 -99.813164

v -74.077866 -171.679962 -97.968185

v -56.229893 -157.431503 -98.732513

v -72.215576 -169.796631 -99.542175

v -54.982674 -160.828522 -98.808960

v -54.306702 -164.135727 -98.771469

v -53.868042 -166.816376 -98.794205

v -58.608627 -174.612000 -99.784943

v -53.188984 -169.322296 -98.736687

v -54.182800 -171.931396 -99.344604

v -58.715454 -176.176025 -99.322998

v -60.152626 -177.843872 -98.140594

v -53.003296 -173.799561 -97.859985

v -92.539810 -152.885208 -95.982407

v -97.611870 -156.248962 -97.045471

v -89.099564 -151.253387 -94.542374

v -99.848694 -158.938171 -97.621048

v -101.569000 -159.354568 -96.679436

v -104.294769 -162.657227 -97.697525

v -104.056976 -161.579803 -96.804688

v -105.856956 -163.335938 -96.592445

v -107.490852 -165.075562 -97.299782

v -106.507813 -168.294556 -98.008087

v -108.201721 -166.965393 -97.072845

v -63.191589 -144.803070 -96.740326

v -95.989700 -165.343567 -97.976738

v -106.515015 -172.061035 -96.686401

v -104.404755 -172.366699 -97.981590

v -93.026848 -179.307922 -97.970352

v -84.719482 -178.205582 -97.937294

v -99.239990 -178.495117 -97.348633

v -93.004395 -182.062500 -96.145508

v -77.499756 -176.962402 -97.931168

v -56.062622 -159.328857 -95.122299

v -55.910545 -161.985855 -95.322662

v -70.375198 -176.406616 -97.830872

v -80.405396 -179.040283 -97.442749

v -54.675884 -165.423264 -94.907471

v -75.734535 -177.917603 -97.462769

v -70.638306 -177.765137 -96.900635

v -63.846157 -179.818939 -97.601746

v -50.627598 -172.745834 -94.840034

v -60.178528 -180.118286 -97.524414

v -54.390015 -177.660889 -97.377441

v -50.811554 -175.431763 -95.810280

v -85.058952 -148.988007 -93.955772

v -94.344421 -156.158264 -91.613525

v -100.694855 -159.794922 -94.996552

v -80.502136 -146.449219 -93.647835

v -107.445564 -168.006500 -93.517334

v -108.170349 -171.619293 -93.071625

v -60.864609 -145.887451 -93.357361

v -106.194580 -177.589111 -94.480469

v -57.088699 -153.701752 -94.695206

v -93.322815 -185.021606 -94.331512

v -101.926514 -181.540436 -94.449463

v -85.107788 -183.870605 -94.458984

v -80.094696 -182.322266 -94.714355

v -73.800415 -179.677246 -94.636414

v -69.460205 -179.730225 -94.496094

v -64.007813 -182.781250 -94.358643

v -48.768608 -173.683319 -94.049950

v -58.849915 -182.297791 -96.005188

v -52.246521 -178.544098 -95.996552

v -46.375214 -178.612167 -95.841133

v -44.141525 -176.254761 -94.194183

v -50.681717 -183.975616 -95.808998

v -47.502380 -183.041412 -95.636841

v -58.356201 -184.729004 -94.432129

v -53.553268 -185.646637 -94.306335

v -43.096588 -181.451996 -93.060043

v -73.574127 -143.786377 -93.481018

v -67.821182 -140.807404 -92.895035

v -102.676392 -161.903656 -91.290649

v -105.566185 -164.820984 -90.228821

v -64.880424 -141.797501 -93.068176

v -107.420227 -166.091675 -91.243332

v -63.233105 -142.138504 -91.023804

v -108.308594 -174.993347 -92.733704

v -109.145020 -180.467834 -92.494934

v -103.846313 -184.047913 -94.080353

v -104.120361 -186.892822 -92.619629

v -53.434765 -157.668213 -93.476532

v -54.679504 -159.028717 -94.119278

v -98.441650 -187.659241 -93.891266

v -48.012238 -166.059158 -93.874222

v -53.573730 -163.925720 -94.008553

v -94.936478 -187.505951 -93.290283

v -46.991920 -161.113876 -91.109772

v -90.522194 -186.515900 -93.337402

v -85.061241 -185.631149 -93.158630

v -79.954895 -184.799225 -93.240204

v -45.147980 -166.635315 -92.601151

v -70.208984 -182.476807 -93.166992

v -76.308105 -183.491089 -93.553955

v -42.458900 -172.611542 -93.046814

v -60.157593 -186.460144 -92.473389

v -41.357929 -177.729630 -93.027008

v -42.276123 -177.388931 -93.752457

v -56.160461 -186.520370 -92.610779

v -41.961418 -179.869843 -93.130333

v -50.230324 -185.254486 -92.643646

v -46.383816 -184.040741 -93.133385

v -74.843613 -144.112961 -90.952225

v -85.746338 -150.575958 -90.580872

v -88.834839 -153.453583 -90.786987

v -68.521194 -140.560104 -91.012726

v -96.166077 -157.735550 -89.314575

v -109.715942 -168.496628 -91.261353

v -112.380493 -173.840439 -90.886292

v -59.838333 -143.678009 -90.503433

v -111.251343 -178.533997 -92.044098

v -54.540375 -148.370483 -90.267761

v -110.779022 -184.897705 -92.052246

v -50.895573 -153.666077 -90.157326

v -107.707626 -187.481445 -91.941162

v -101.708008 -189.280151 -90.969604

v -97.240601 -189.488770 -90.069336

v -92.537079 -189.111237 -87.172211

v -88.488281 -186.867249 -89.413574

v -83.580704 -185.929749 -89.367371

v -42.505951 -163.611084 -90.232727

v -42.083023 -166.306000 -91.347084

v -75.504089 -184.450745 -92.227539

v -70.576050 -186.119873 -91.430237

v -40.550888 -169.246216 -90.868530

v -40.783112 -171.982666 -91.044586

v -62.679871 -187.790222 -91.271820

v -41.387329 -173.144135 -88.755188

v -42.998219 -177.250473 -88.622437

v -54.873077 -185.375061 -88.614197

v -47.283646 -182.973373 -91.158813

v -82.140076 -150.144073 -89.545959

v -74.040344 -147.536469 -89.362732

v -93.753830 -157.141632 -87.722321

v -98.986389 -161.286346 -87.776367

v -77.718712 -149.006531 -89.321381

v -65.794991 -142.909149 -89.247955

v -110.804276 -169.202011 -89.409042

v -112.728867 -171.239456 -89.306068

v -115.993294 -174.469299 -89.357162

v -61.254402 -142.301819 -89.007782

v -116.390564 -176.299011 -89.911636

v -58.651756 -142.410629 -89.462021

v -113.475830 -181.053009 -90.457397

v -117.934448 -179.323608 -88.016724

v -53.973534 -144.047363 -89.453812

v -51.244232 -145.935959 -89.490646

v -112.898438 -186.945999 -88.731720

v -48.389389 -148.616608 -90.003426

v -47.809113 -147.400940 -89.022385

v -45.071980 -149.898544 -89.169968

v -43.135910 -155.196930 -89.918396

v -105.873840 -192.399414 -88.810425

v -102.998962 -192.372070 -89.723022

v -42.042435 -159.750870 -89.731583

v -40.846130 -164.416016 -88.987907

v -77.269989 -185.805420 -89.196655

v -70.626709 -187.491943 -88.718994

v -68.236725 -189.106049 -85.490616

v -60.751915 -186.464340 -85.460831

v -64.487053 -187.811798 -85.708282

v -43.624817 -179.751587 -89.325363

v -50.009018 -183.676270 -89.222778

v -83.393600 -150.296402 -86.375702

v -88.642387 -152.481598 -85.525009

v -91.435486 -154.790543 -85.737427

v -79.408104 -149.801971 -87.343948

v -101.277252 -163.913940 -87.467743

v -74.820450 -147.579590 -86.885071

v -70.396317 -145.476685 -86.895462

v -66.097046 -144.254395 -86.209473

v -104.206650 -166.660217 -87.504517

v -109.792282 -170.163467 -87.542908

v -62.926872 -142.942688 -87.302429

v -113.237633 -171.160950 -85.627213

v -116.613953 -174.478455 -85.509491

v -58.399200 -143.182922 -86.819305

v -53.127686 -145.951721 -87.092407

v -117.015625 -182.214462 -88.481384

v -118.747375 -183.750305 -87.619751

v -47.589691 -148.561035 -86.705750

v -114.806610 -189.656799 -88.165039

v -45.281055 -149.300491 -87.317169

v -113.042053 -191.275269 -88.123901

v -41.954185 -154.735519 -86.956131

v -109.679321 -194.925781 -86.952637

v -102.417053 -194.108276 -87.031250

v -41.014015 -158.911911 -86.022049

v -98.583496 -192.396240 -86.853394

v -88.318054 -188.617676 -86.877014

v -40.913612 -163.577179 -86.098450

v -82.294922 -188.635498 -86.906128

v -73.163818 -190.187256 -86.359619

v -42.227432 -168.326660 -85.205872

v -71.246223 -190.144592 -85.612305

v -42.889336 -174.180908 -85.261742

v -46.867599 -179.919373 -87.234070

v -52.013321 -182.890198 -87.369507

v -86.498848 -150.217407 -84.179749

v -80.718384 -147.697632 -84.013184

v -94.192841 -157.965546 -85.467827

v -76.197136 -146.534485 -83.939819

v -98.425797 -160.732544 -84.963181

v -71.895889 -145.255524 -85.328163

v -69.427948 -144.865601 -85.170105

v -101.292442 -164.030823 -85.476105

v -104.236633 -166.861267 -85.496475

v -109.807121 -170.120560 -85.547997

v -62.756958 -145.450684 -85.531189

v -119.118652 -178.596191 -85.286560

v -58.864014 -145.795898 -85.884521

v -120.697998 -183.116699 -83.482178

v -55.881332 -148.130676 -85.229187

v -118.861816 -187.026123 -84.761719

v -51.257324 -149.543701 -85.971191

v -51.199257 -150.805878 -85.158264

v -116.426331 -190.922119 -85.207031

v -46.988892 -151.991699 -85.402832

v -44.896587 -153.680969 -85.110443

v -42.464161 -155.313660 -85.343384

v -106.604019 -198.050049 -85.923218

v -111.675995 -197.837158 -84.768372

v -98.432007 -195.386963 -84.896240

v -89.644348 -191.962402 -86.195313

v -81.942535 -190.766724 -86.195313

v -87.643188 -193.534912 -84.883850

v -77.166092 -192.617554 -84.661896

v -46.186028 -177.739365 -85.062851

v -50.788277 -181.625748 -85.243828

v -55.962070 -184.658844 -85.377396

v -93.911469 -153.586258 -83.957092

v -93.547310 -152.265091 -83.483627

v -110.725189 -162.907166 -84.489006

v -106.363022 -159.629440 -83.871437

v -102.863892 -159.156448 -84.234688

v -118.796021 -169.885986 -84.319092

v -117.300591 -167.781738 -84.033661

v -101.402130 -162.098877 -84.609009

v -106.117302 -166.323669 -84.579643

v -112.108459 -169.125732 -84.630096

v -116.186493 -172.060394 -84.725990

v -120.311157 -173.513336 -84.264709

v -73.493164 -145.696487 -83.457474

v -71.574829 -146.647583 -82.204102

v -62.261154 -146.556885 -83.358032

v -57.783356 -147.882294 -83.300476

v -54.132324 -149.813232 -81.064331

v -118.394775 -191.475586 -83.918518

v -48.908310 -151.203812 -81.098022

v -116.701294 -195.000000 -84.351990

v -45.647423 -152.466827 -81.371132

v -41.921749 -156.697693 -81.048584

v -114.625404 -199.413879 -84.560165

v -105.629517 -199.760315 -84.742722

v -109.388794 -204.374847 -84.630302

v -97.872803 -196.481720 -84.620926

v -112.754456 -203.817017 -83.724487

v -42.900230 -165.747543 -83.669357

v -103.783875 -202.939178 -84.601166

v -108.206116 -205.693726 -83.790955

v -88.325195 -194.791016 -84.592453

v -95.556030 -200.527115 -84.584930

v -45.793213 -169.255554 -83.498917

v -103.400162 -204.302094 -83.611938

v -87.811157 -198.147141 -84.529953

v -51.661865 -174.972900 -84.347687

v -48.988171 -172.274475 -83.373550

v -54.068501 -174.887650 -83.391975

v -99.509491 -203.495911 -83.628906

v -43.941986 -173.016785 -84.446152

v -45.771156 -172.749146 -84.252113

v -95.001297 -201.977325 -83.660522

v -55.220871 -179.040070 -84.320602

v -55.820541 -177.557480 -83.412422

v -89.546494 -200.068024 -83.450867

v -60.311275 -181.530243 -83.478569

v -82.699097 -196.038574 -84.449036

v -61.559250 -185.027283 -84.464493

v -52.235626 -180.478058 -84.434387

v -64.728897 -185.676941 -83.633209

v -75.483994 -193.398773 -83.716736

v -83.579346 -197.937439 -83.633362

v -71.335968 -190.192688 -80.311783

v -80.395233 -197.012131 -83.497650

v -116.204407 -161.211258 -80.128403

v -89.011810 -148.499634 -81.665039

v -93.993759 -149.692352 -80.433693

v -117.944794 -164.077911 -80.878098

v -94.757385 -152.963837 -81.638222

v -103.368256 -158.094208 -81.634796

v -106.653641 -158.576797 -81.711563

v -121.295120 -168.685730 -81.011765

v -86.072418 -147.613953 -81.526642

v -122.376831 -172.382233 -81.268982

v -81.409500 -145.944763 -79.250977

v -77.004349 -146.514801 -78.582520

v -123.653564 -176.711456 -81.212646

v -73.371254 -147.722031 -78.066605

v -123.821289 -180.335571 -80.772461

v -65.448730 -148.585449 -80.696045

v -59.638184 -148.992401 -81.391113

v -119.611816 -192.261475 -81.372070

v -43.556244 -154.007797 -81.297058

v -116.203125 -200.361816 -81.648926

v -41.156174 -159.762085 -80.095551

v -113.447998 -204.959229 -81.551270

v -41.982979 -163.816406 -81.519081

v -111.007080 -207.380371 -80.388672

v -43.964417 -166.974579 -81.320313

v -45.907654 -169.496155 -81.441269

v -49.469498 -172.462738 -79.750458

v -53.749855 -175.132568 -80.348267

v -46.211769 -171.348495 -81.630951

v -103.971252 -206.308838 -78.276245

v -57.075554 -178.653870 -80.135590

v -62.299751 -182.743225 -80.081024

v -65.952896 -186.098480 -80.212036

v -91.048096 -202.991364 -77.754089

v -74.404068 -192.769684 -79.717224

v -85.935745 -200.262390 -77.856995

v -81.939011 -198.222153 -77.977997

v -75.523003 -194.300217 -77.793564

v -106.360672 -156.583984 -80.162460

v -106.899269 -155.825134 -79.447693

v -119.368164 -163.194839 -79.645126

v -120.875519 -163.182159 -80.160561

v -125.652969 -168.115555 -79.757126

v -123.745262 -164.681595 -80.138153

v -124.478363 -168.410721 -80.650681

v -90.609909 -146.986084 -78.063721

v -126.191650 -172.363449 -80.088425

v -125.984665 -174.926407 -79.686584

v -70.542252 -148.050598 -79.686584

v -63.979156 -149.027618 -77.515961

v -123.645752 -183.650421 -79.853271

v -60.392265 -149.573639 -74.314674

v -122.586243 -188.035645 -79.555054

v -45.831665 -154.199951 -78.631104

v -117.323975 -200.835449 -80.127197

v -114.165283 -207.986816 -79.507324

v -39.125427 -163.718735 -79.446182

v -40.139282 -166.450867 -79.831055

v -39.212769 -168.636230 -78.073975

v -45.755005 -172.175903 -79.371460

v -100.401001 -206.018616 -77.336533

v -94.555801 -147.182190 -77.702133

v -97.932480 -148.564713 -78.006767

v -97.543610 -147.700516 -77.453865

v -121.035789 -163.981598 -77.943695

v -103.526733 -152.207733 -77.811188

v -125.980362 -165.504028 -75.278137

v -110.030762 -158.703629 -78.047791

v -118.597504 -163.926086 -77.801605

v -87.052559 -146.062042 -75.817284

v -77.532547 -145.661102 -75.735229

v -125.880676 -178.010559 -77.390625

v -70.061020 -147.876907 -77.577484

v -124.471802 -182.210999 -75.817871

v -124.432312 -185.766602 -72.355957

v -55.897263 -150.519440 -76.428406

v -52.058289 -151.466019 -77.117554

v -122.280991 -192.902039 -77.668579

v -48.503357 -153.850662 -77.301025

v -121.592133 -195.593323 -77.886658

v -120.937195 -199.733368 -77.581360

v -43.791763 -156.718307 -77.306519

v -119.366699 -203.787781 -78.111938

v -117.452759 -208.460938 -77.748047

v -38.947868 -162.294281 -73.752213

v -116.554932 -210.453613 -76.858887

v -37.018745 -166.629150 -73.188065

v -107.270569 -208.866470 -77.138580

v -55.855835 -180.096802 -77.119324

v -46.512939 -176.112061 -77.039551

v -48.556274 -177.187897 -76.798676

v -64.226898 -185.867340 -77.631775

v -95.916748 -204.526428 -77.590851

v -40.304077 -174.654053 -76.230225

v -70.216644 -190.680695 -77.357422

v -94.441994 -146.525375 -75.663513

v -99.698647 -147.767822 -74.335556

v -103.919983 -151.702911 -75.784286

v -124.134605 -163.864624 -75.459663

v -91.931854 -145.696014 -74.729813

v -108.900856 -155.412247 -74.939453

v -107.645889 -155.822891 -75.723869

v -121.320183 -164.115387 -75.938667

v -109.876167 -158.549164 -75.878769

v -118.601746 -164.020325 -75.985306

v -81.827538 -145.658844 -75.737000

v -127.040863 -174.965637 -72.311310

v -76.826126 -143.607727 -73.641403

v -69.631165 -146.455658 -75.842194

v -123.972473 -188.794739 -71.507813

v -120.493896 -205.159393 -74.799805

v -113.637421 -211.535095 -77.124924

v -37.757736 -171.131195 -75.742767

v -113.846863 -216.573273 -75.976013

v -56.729980 -182.265747 -76.755852

v -63.219971 -186.794830 -76.828064

v -102.233398 -211.387482 -76.704773

v -112.390808 -215.088074 -77.012405

v -95.614441 -207.572144 -76.727997

v -110.095032 -216.142090 -76.350891

v -41.714188 -176.865173 -76.040268

v -44.455063 -179.251633 -76.217361

v -46.715576 -180.956421 -76.532112

v -72.348633 -194.290039 -76.847748

v -58.655640 -188.823853 -76.665695

v -82.866089 -200.951660 -76.814087

v -52.068970 -184.704712 -76.366760

v -85.686035 -204.190369 -75.273682

v -65.622681 -194.133057 -76.700317

v -75.287170 -199.924255 -76.603912

v -78.394043 -203.226807 -74.668457

v -51.818420 -188.167725 -73.946747

v -116.169785 -154.868500 -74.094620

v -110.701080 -150.861389 -73.971359

v -112.015671 -153.540833 -74.875198

v -107.040527 -149.996338 -74.507744

v -125.205154 -160.914948 -74.021065

v -122.536957 -158.779922 -73.948456

v -123.229095 -160.509094 -74.833687

v -119.076263 -158.842041 -74.882698

v -104.638863 -149.727921 -73.461578

v -103.590332 -149.889313 -74.609146

v -94.462219 -145.799118 -73.648926

v -96.596947 -145.919342 -73.542038

v -118.797897 -162.432983 -75.037323

v -88.157738 -144.494308 -74.710045

v -87.414581 -142.870911 -73.739471

v -83.298424 -142.940247 -73.911499

v -127.094543 -171.512115 -72.042633

v -80.583572 -142.947433 -73.777260

v -66.576363 -146.286453 -72.047760

v -61.856720 -148.182037 -71.836731

v -54.757706 -151.185272 -73.748474

v -51.164764 -152.189178 -72.249420

v -46.826344 -154.518661 -73.503998

v -45.898422 -155.572617 -70.077148

v -42.033417 -158.565048 -70.118835

v -119.427307 -209.997070 -74.446045

v -116.586182 -215.506607 -74.388672

v -37.670738 -171.585892 -73.958603

v -110.197754 -217.032562 -74.552490

v -39.199554 -174.671448 -73.827850

v -102.497299 -213.277222 -74.055481

v -95.358398 -209.758423 -75.267212

v -42.623604 -178.573166 -73.456955

v -95.475632 -211.146591 -74.007751

v -99.618423 -212.343704 -74.113312

v -91.185600 -210.374466 -73.998322

v -88.897461 -208.896973 -74.740540

v -46.893917 -183.690948 -73.976471

v -83.207367 -206.259888 -74.837646

v -56.524719 -192.281586 -73.933533

v -61.431396 -194.936035 -74.251953

v -72.373138 -201.978027 -73.567383

v -64.805557 -200.019470 -72.085388

v -86.767311 -209.437836 -74.016769

v -83.734772 -208.574905 -73.103210

v -61.272263 -196.934448 -72.477173

v -112.312706 -151.904541 -72.051773

v -107.975868 -150.655884 -72.081299

v -117.449905 -155.520081 -72.022827

v -125.422821 -160.758774 -70.249207

v -122.236649 -158.483887 -72.124603

v -127.082138 -162.794632 -70.343292

v -101.391281 -149.574982 -72.914429

v -127.381592 -167.136139 -71.974762

v -96.982910 -148.846436 -72.745728

v -90.919907 -145.739731 -72.658752

v -96.733665 -150.135651 -71.944519

v -87.341248 -143.581970 -70.001144

v -84.237473 -143.678528 -69.821182

v -79.449669 -143.748856 -69.893875

v -75.836823 -143.894226 -69.968094

v -71.488777 -144.437195 -71.859741

v -126.729370 -179.712418 -72.062744

v -53.705849 -150.692291 -71.716408

v -122.495285 -194.465973 -71.549164

v -49.406883 -153.144470 -70.248779

v -121.933807 -198.560120 -72.190140

v -121.644104 -201.765915 -72.289078

v -120.991081 -204.096481 -71.915871

v -120.699715 -206.710709 -72.251244

v -119.814590 -210.491882 -72.233368

v -117.704277 -214.810318 -72.278358

v -115.872078 -216.903625 -71.878029

v -38.442863 -169.451645 -69.931335

v -40.689682 -174.540741 -71.735863

v -112.962296 -217.884552 -72.371307

v -108.664505 -216.227890 -72.111938

v -42.550087 -177.071320 -71.306511

v -104.490265 -213.592773 -71.384766

v -44.262234 -179.812561 -70.475235

v -45.821175 -182.296906 -70.566422

v -97.826721 -211.488159 -68.388336

v -94.244034 -210.845642 -67.770325

v -48.111847 -185.333130 -70.119354

v -87.679764 -209.321854 -68.550400

v -90.432198 -209.969955 -68.624390

v -54.166748 -191.508682 -69.913162

v -73.994873 -204.557892 -72.080261

v -79.801514 -207.546753 -72.124664

v -69.791473 -203.170227 -72.133148

v -110.150925 -153.145996 -70.051331

v -119.459396 -158.693314 -69.909698

v -106.472824 -152.947052 -70.089935

v -129.444839 -165.418304 -70.182594

v -99.303635 -150.703552 -69.948120

v -130.245728 -168.666916 -70.327484

v -90.101746 -147.467987 -69.346024

v -95.694366 -150.289185 -69.930115

v -130.106506 -171.705627 -70.286682

v -128.994873 -177.284439 -70.414917

v -71.759415 -144.776733 -69.559738

v -68.430214 -145.696381 -69.960602

v -127.181824 -183.125397 -70.189087

v -67.773239 -147.446472 -68.541901

v -57.650024 -150.285324 -68.807129

v -50.963318 -153.255676 -68.282959

v -53.255310 -152.534119 -66.076782

v -118.517639 -200.909363 -70.250412

v -117.613007 -204.943710 -70.844490

v -119.281464 -207.991394 -71.426086

v -38.619476 -164.543396 -69.911530

v -117.295929 -213.402161 -71.452850

v -115.599609 -211.611938 -71.038742

v -37.486420 -167.310135 -69.966980

v -112.072784 -214.643158 -69.936920

v -39.444992 -171.752457 -68.020111

v -109.307602 -215.192017 -70.122467

v -42.255924 -178.151077 -67.921234

v -50.816589 -188.240845 -69.875275

v -55.930237 -193.967773 -69.704895

v -80.447128 -207.690735 -68.388214

v -58.602722 -195.566284 -69.901611

v -75.847672 -206.029938 -68.218491

v -60.614227 -198.746094 -68.023804

v -125.765930 -162.874512 -68.330231

v -112.903320 -155.340393 -65.161133

v -109.588623 -154.261490 -64.600525

v -128.808807 -165.235321 -66.446777

v -105.729332 -153.384674 -64.808624

v -131.112457 -167.175049 -66.501358

v -131.031616 -169.307816 -68.190796

v -100.549713 -151.837646 -68.269653

v -87.062531 -145.370544 -69.082405

v -95.763100 -151.498596 -68.034302

v -130.666626 -173.763062 -68.287354

v -90.457336 -150.817337 -68.012634

v -77.098022 -145.340393 -69.041801

v -85.702576 -149.090302 -68.937332

v -86.451218 -150.590576 -67.967590

v -78.020874 -148.492950 -68.935532

v -129.765991 -178.493423 -68.101929

v -82.312546 -150.425980 -67.953461

v -73.039780 -147.971436 -68.667709

v -79.299141 -149.964539 -67.895447

v -75.630203 -149.977768 -68.002121

v -127.892090 -183.418610 -67.925659

v -70.530602 -148.817398 -67.884392

v -124.038940 -190.148193 -67.031250

v -122.224854 -193.994339 -67.629761

v -117.506042 -201.902618 -67.908081

v -45.614502 -158.222565 -65.663422

v -114.033302 -204.667755 -65.676826

v -42.726318 -163.040527 -65.573273

v -113.292297 -207.678284 -68.250549

v -39.949707 -166.419800 -68.097412

v -109.552856 -212.169067 -68.569305

v -105.779121 -212.624985 -68.389160

v -40.721214 -175.279114 -67.889671

v -100.866287 -211.643494 -68.023529

v -44.011475 -181.139130 -67.983910

v -45.566414 -183.645737 -68.025764

v -47.406116 -185.513123 -67.429703

v -47.879131 -187.205750 -68.257324

v -84.458336 -208.713684 -68.305145

v -48.537376 -189.305038 -68.082840

v -51.074463 -192.643311 -68.409912

v -70.382484 -203.877747 -68.243912

v -53.585693 -196.923828 -67.532104

v -117.980263 -157.854584 -66.216187

v -125.064819 -162.368500 -66.331657

v -133.602539 -167.778946 -65.839157

v -133.401764 -171.170593 -66.032776

v -97.887383 -152.081726 -64.338837

v -92.982330 -151.231659 -64.110443

v -132.699127 -176.156509 -65.847717

v -89.957047 -150.600006 -64.144882

v -130.459045 -181.177948 -66.189941

v -85.256973 -150.350281 -64.072205

v -81.698532 -150.008698 -64.034470

v -75.896935 -149.980072 -66.123947

v -73.166122 -148.476364 -64.094833

v -67.718048 -147.827194 -64.237946

v -127.625183 -188.343018 -63.013184

v -62.350212 -149.154602 -64.213867

v -58.654388 -150.826614 -64.326904

v -50.271606 -154.525513 -65.902344

v -47.336060 -156.738342 -65.672607

v -117.957245 -201.609802 -64.343994

v -41.927399 -167.178619 -65.348007

v -108.420280 -207.162445 -66.318977

v -106.329720 -209.894043 -66.802338

v -42.951721 -172.394867 -65.407928

v -103.698929 -208.812393 -66.104477

v -98.381500 -209.770142 -66.160843

v -44.681030 -175.275330 -64.980835

v -46.698311 -181.129593 -66.150269

v -88.754967 -211.867767 -66.344177

v -87.487549 -210.982056 -67.261963

v -81.334915 -209.425598 -67.409241

v -75.569397 -207.665909 -67.292274

v -81.415527 -212.171387 -67.185577

v -48.937309 -191.448257 -66.057434

v -66.537354 -204.238983 -67.319519

v -81.549919 -213.525574 -66.289261

v -73.617523 -212.017151 -67.204887

v -59.692230 -199.508789 -67.286682

v -50.679977 -196.846283 -66.070801

v -54.624710 -199.622253 -67.077408

v -60.649368 -205.756622 -66.831200

v -67.622070 -207.729858 -67.201691

v -78.550507 -213.626572 -66.234802

v -53.574135 -200.742722 -66.128738

v -63.728966 -207.603485 -66.560692

v -74.608856 -213.473938 -66.282158

v -67.200409 -209.804092 -66.926361

v -55.079277 -202.651108 -66.203552

v -66.361832 -209.942932 -66.146103

v -70.981537 -212.653961 -66.253273

v -123.990723 -157.925461 -64.395767

v -128.770691 -159.707123 -64.749413

v -127.614845 -157.967346 -64.087799

v -123.602951 -159.666183 -65.484863

v -129.953552 -163.390137 -65.239990

v -132.058777 -163.919174 -64.373207

v -121.817924 -157.445770 -64.253265

v -118.582031 -157.092285 -64.391655

v -115.600494 -155.984009 -64.402924

v -102.219101 -153.416809 -63.879852

v -77.394585 -149.531311 -63.955597

v -70.640717 -148.422180 -63.852646

v -123.427490 -195.279846 -63.036621

v -53.669861 -155.310730 -63.376572

v -45.630676 -165.156464 -64.890991

v -48.702271 -162.191101 -63.289108

v -108.353912 -207.209900 -64.648987

v -47.028748 -171.491623 -63.483582

v -106.688446 -209.017670 -64.400330

v -99.376053 -209.929626 -62.723145

v -46.626709 -178.162445 -63.783478

v -47.997559 -181.520477 -63.662491

v -91.296700 -211.544250 -62.653381

v -49.116798 -185.443939 -63.279114

v -83.686607 -213.910706 -62.137939

v -50.550797 -195.920471 -63.726639

v -79.694763 -213.741333 -62.338013

v -52.213329 -198.154968 -61.311722

v -76.048187 -213.297333 -61.031494

v -73.612686 -212.828873 -61.078552

v -58.398308 -203.961456 -64.098083

v -63.270081 -205.751404 -64.238937

v -66.010574 -207.945358 -63.363037

v -69.363724 -210.516220 -63.551270

v -124.273209 -158.186462 -62.206543

v -131.196823 -162.702164 -60.727478

v -128.793625 -159.995026 -60.523605

v -119.278290 -157.786621 -62.423340

v -132.520004 -165.012848 -60.355366

v -111.019897 -156.446533 -63.184814

v -134.104584 -168.288528 -60.510895

v -104.050995 -156.657837 -62.798828

v -93.976257 -154.232422 -62.810059

v -133.803833 -172.984009 -60.832390

v -130.840240 -182.106323 -60.739929

v -79.928581 -153.196289 -61.575897

v -75.431091 -150.462402 -63.109741

v -72.251083 -153.026611 -61.398094

v -68.543091 -151.365234 -62.959961

v -66.198654 -149.176575 -63.355072

v -59.643005 -151.637329 -63.335327

v -60.682800 -154.044373 -63.016571

v -62.480991 -155.807648 -61.355804

v -55.157990 -162.072357 -61.398727

v -53.580566 -160.247070 -63.068924

v -119.742104 -200.777710 -60.822876

v -49.869385 -167.839661 -62.921539

v -116.586273 -204.295776 -60.755360

v -111.882965 -207.804504 -61.073013

v -51.365479 -171.257202 -61.441406

v -49.135864 -174.216431 -62.723328

v -108.605873 -209.156738 -60.770073

v -48.918762 -179.375305 -62.365601

v -103.357254 -210.556412 -60.566330

v -49.527084 -191.617615 -61.770870

v -55.257156 -201.376297 -61.871613

v -60.530087 -204.685699 -60.820038

v -120.312012 -160.186646 -60.050354

v -112.197266 -159.638672 -60.381836

v -106.291473 -159.084961 -60.784180

v -101.677490 -160.863770 -58.266602

v -132.483917 -175.545151 -59.571716

v -91.532471 -157.881348 -59.916138

v -131.840683 -179.036804 -59.579590

v -90.623474 -156.338867 -61.075439

v -81.409683 -156.169983 -61.084747

v -127.011765 -189.339218 -60.658264

v -74.457626 -157.561249 -61.250175

v -80.215088 -158.128174 -59.805054

v -65.059937 -160.854172 -61.239044

v -69.943176 -161.630005 -59.596924

v -123.400192 -196.168945 -60.698738

v -55.783691 -166.592010 -61.139252

v -61.698120 -165.637512 -59.464821

v -114.532394 -206.022583 -60.630249

v -56.901703 -168.984924 -59.510468

v -52.103516 -174.410034 -59.724670

v -50.109680 -178.324158 -60.127075

v -49.416321 -181.800476 -60.333435

v -96.868286 -212.180008 -60.365128

v -50.225861 -185.543411 -57.999817

v -88.099846 -214.124298 -60.546478

v -49.290627 -189.399231 -58.497559

v -50.354824 -193.238937 -57.927139

v -78.586838 -214.974091 -58.558231

v -63.786469 -206.398590 -60.271332

v -68.512878 -210.074448 -60.407593

v -55.956280 -203.687912 -59.122253

v -128.131500 -161.471436 -59.713242

v -126.948456 -163.652954 -59.301544

v -131.403183 -170.706345 -58.937656

v -116.291016 -161.947754 -59.153320

v -129.466064 -170.982910 -57.394653

v -125.895081 -165.757996 -57.902832

v -108.012451 -161.182861 -58.200684

v -115.556641 -164.446289 -57.400146

v -131.733246 -177.986420 -56.804882

v -96.092285 -160.263428 -59.095215

v -84.304413 -160.375366 -59.089111

v -86.957886 -162.299133 -57.769379

v -95.323135 -162.037598 -57.851624

v -128.466431 -183.857697 -58.846680

v -80.854004 -162.291077 -57.717865

v -124.879623 -188.701584 -58.734161

v -78.173691 -161.005127 -59.108948

v -69.685699 -165.762177 -59.185608

v -74.945930 -164.970581 -57.559875

v -119.189362 -197.948029 -58.686951

v -64.095093 -168.042801 -59.304977

v -67.693695 -168.057587 -57.692505

v -62.463303 -171.143555 -58.022247

v -59.151077 -171.566711 -59.311676

v -115.302307 -204.216324 -58.849792

v -57.179443 -174.116302 -59.080063

v -112.347519 -205.893402 -55.997070

v -55.136963 -176.431686 -58.804291

v -51.757141 -179.861877 -58.965546

v -88.522278 -213.898590 -58.634583

v -82.345261 -215.008194 -58.578186

v -51.526264 -196.360214 -56.426220

v -53.779198 -200.456573 -56.614609

v -59.170231 -207.078979 -58.725327

v -74.232964 -214.452454 -58.458405

v -57.191090 -205.354065 -58.653862

v -68.308060 -212.799332 -58.639893

v -70.793915 -213.282028 -58.413612

v -125.464600 -169.846863 -57.359039

v -131.441589 -172.941986 -56.747280

v -122.786072 -171.024384 -55.810696

v -106.902771 -164.950623 -55.765076

v -113.365234 -165.557983 -56.146729

v -100.445068 -162.945068 -57.199707

v -128.275513 -183.328888 -56.794418

v -92.802734 -164.567139 -57.336731

v -97.769165 -165.362732 -55.802612

v -124.642700 -188.256912 -56.630249

v -81.929840 -165.338867 -57.368225

v -87.153687 -166.053345 -56.601746

v -91.655518 -165.530975 -56.571472

v -123.194565 -191.486572 -56.616135

v -82.899773 -166.409698 -56.562576

v -78.910400 -166.553680 -56.519562

v -74.467117 -166.106918 -56.543640

v -119.352478 -197.780640 -56.745850

v -115.915863 -203.203583 -55.681763

v -61.284622 -172.550842 -54.876755

v -57.310478 -175.496643 -56.731262

v -108.212242 -207.751572 -55.671787

v -103.759598 -208.167908 -56.748840

v -53.808334 -179.465973 -56.627075

v -93.373535 -210.839874 -56.537292

v -50.705669 -188.202011 -56.225372

v -89.313477 -212.096436 -56.811035

v -84.446472 -211.510254 -55.743286

v -77.810394 -212.799805 -56.437134

v -74.395416 -211.550171 -55.878124

v -56.616127 -203.366852 -56.384216

v -69.932938 -211.159576 -55.964214

v -60.327553 -206.557358 -56.346962

v -129.974335 -173.969666 -55.852654

v -130.180466 -177.658936 -55.826664

v -112.092163 -166.612305 -55.723259

v -116.655762 -176.062012 -55.760468

v -106.700195 -170.833069 -55.709789

v -126.134262 -183.412628 -55.837406

v -95.489090 -165.909668 -55.857788

v -114.495850 -176.315521 -55.307434

v -120.609375 -182.135178 -55.752419

v -96.983459 -167.550293 -55.134399

v -105.515556 -172.183655 -55.277191

v -91.664246 -166.210388 -54.642334

v -120.352661 -183.557968 -55.269760

v -122.862679 -186.823730 -55.600018

v -86.774597 -166.543152 -54.693481

v -123.739006 -191.410278 -54.644180

v -81.576202 -167.352905 -52.701782

v -123.999336 -194.421005 -54.998505

v -76.733971 -167.084229 -52.690918

v -72.175133 -166.457413 -52.811890

v -122.474556 -197.184174 -54.734619

v -65.596039 -169.180115 -54.257065

v -57.574669 -175.249893 -54.613426

v -54.366138 -178.805161 -54.528679

v -50.818077 -184.603012 -54.607468

v -89.994469 -210.354263 -52.472366

v -51.153728 -190.618073 -52.827145

v -86.163498 -209.921692 -53.281128

v -83.480240 -210.100464 -54.446411

v -79.421227 -209.784500 -55.215439

v -75.383530 -208.829163 -55.233894

v -70.332657 -206.531982 -55.446766

v -54.455246 -198.901550 -54.772949

v -61.707191 -203.544556 -54.723114

v -66.724449 -205.994095 -55.244469

v -106.624817 -175.325256 -52.309082

v -112.666260 -178.957657 -52.310577

v -99.794800 -172.153015 -52.264465

v -118.091904 -184.220917 -52.448822

v -88.834961 -167.878174 -53.128906

v -93.526733 -171.550781 -51.693665

v -121.599724 -187.954910 -52.981308

v -122.828156 -192.096954 -52.444679

v -122.840652 -196.544022 -52.917450

v -120.608955 -199.888931 -52.890312

v -65.474342 -168.208908 -52.122131

v -117.972328 -202.925171 -52.607014

v -62.364811 -167.243408 -53.014450

v -61.261078 -170.318588 -53.684544

v -59.471985 -167.298416 -52.960629

v -114.817802 -205.922363 -52.632114

v -51.894295 -169.741837 -53.131966

v -53.783493 -176.867493 -53.654675

v -112.005013 -207.359787 -52.454514

v -47.549530 -171.199081 -52.858395

v -47.120323 -173.284531 -53.505672

v -109.106277 -207.989319 -52.761738

v -104.601791 -207.893158 -52.886826

v -45.752884 -174.249878 -52.652840

v -48.036926 -177.625061 -53.549778

v -49.921318 -183.829819 -53.459682

v -97.744247 -208.988541 -50.944382

v -47.157364 -178.818329 -52.816025

v -94.270035 -210.076538 -52.865265

v -50.308170 -185.684967 -52.534393

v -52.813774 -195.652603 -52.623001

v -77.171753 -206.576889 -50.666016

v -71.059479 -205.091736 -52.821655

v -67.204643 -204.653534 -52.820923

v -56.244423 -199.430618 -52.724861

v -61.777248 -202.989426 -52.805359

v -64.329811 -203.084763 -52.216423

v -113.211426 -181.024445 -51.925468

v -103.170319 -177.395233 -51.715942

v -119.866333 -188.166153 -51.982834

v -89.482605 -172.306946 -49.935211

v -108.671875 -183.083649 -51.851410

v -110.994217 -187.990295 -51.885605

v -82.002319 -169.749512 -50.279785

v -102.192871 -180.203278 -50.001873

v -106.552887 -185.353058 -50.037361

v -120.195824 -198.440002 -52.029640

v -73.615112 -169.783691 -50.288818

v -111.197876 -191.468781 -51.791229

v -109.450104 -190.281006 -50.341599

v -109.657166 -200.010788 -51.963554

v -68.155693 -170.955811 -50.191650

v -61.401398 -168.510376 -50.318787

v -86.294624 -181.056320 -49.939095

v -87.125694 -184.553329 -51.810459

v -78.652130 -182.706650 -51.766998

v -89.512360 -182.376740 -49.908615

v -93.423630 -184.639328 -49.763824

v -93.093918 -189.092819 -51.826405

v -108.307007 -199.985779 -51.519653

v -113.045898 -203.830109 -52.010216

v -78.857964 -179.499023 -49.905819

v -94.030029 -191.655914 -51.553955

v -95.140869 -188.032379 -50.252777

v -87.560684 -197.373199 -51.880188

v -52.563034 -170.783081 -50.210236

v -74.751663 -185.859528 -51.784950

v -73.158981 -182.897583 -49.872334

v -88.338989 -198.855103 -51.468140

v -106.082886 -200.137985 -50.071045

v -105.675629 -206.663742 -51.948357

v -93.026001 -196.865723 -49.897034

v -47.432007 -172.544678 -50.569275

v -70.894623 -187.972534 -49.884148

v -73.263901 -188.176254 -51.382774

v -76.107285 -192.137054 -51.802521

v -103.058563 -207.398636 -50.831360

v -46.240051 -175.514725 -50.497620

v -73.129944 -193.737534 -49.925983

v -75.615112 -193.325439 -51.482300

v -81.086975 -195.692749 -51.383118

v -86.580261 -198.702148 -51.415253

v -75.496445 -195.821503 -49.993988

v -89.308853 -204.000427 -51.571983

v -46.426285 -178.106583 -50.458714

v -86.730972 -204.687790 -50.044056

v -47.442215 -180.696747 -50.756588

v -92.946167 -208.932755 -51.453613

v -91.891693 -204.503723 -50.163269

v -50.686176 -184.369003 -50.303799

v -86.175415 -208.083435 -51.581665

v -52.335518 -188.352570 -51.583073

v -57.741535 -190.291809 -50.210079

v -59.737022 -194.621689 -51.679047

v -52.793060 -192.288300 -51.817513

v -80.970581 -207.195679 -50.224617

v -63.247772 -199.151230 -51.677586

v -64.418022 -196.977615 -50.098354

v -70.729408 -203.521606 -51.637772

v -75.483521 -203.513519 -49.961811

v -58.340912 -199.311096 -51.843430

v -81.138306 -171.162903 -49.862328

v -96.906250 -183.426086 -49.945839

v -107.778549 -190.157837 -50.010326

v -67.574585 -171.668365 -49.817417

v -96.994049 -187.164032 -49.820454

v -96.369995 -192.106216 -50.046585

v -62.007427 -169.981049 -49.825287

v -98.353790 -194.459793 -49.953503

v -97.147636 -195.047852 -49.837345

v -48.569138 -173.770401 -49.761513

v -96.137169 -197.758011 -49.749348

v -95.585777 -197.515869 -49.183098

v -96.190735 -201.195129 -49.999863

v -93.963989 -200.131714 -49.386341

v -93.048279 -199.523804 -49.109619

v -101.912453 -206.271332 -50.050716

v -56.799072 -187.617920 -49.823563

v -91.418701 -200.520966 -49.524445

v -95.196907 -207.435104 -50.044006

v -48.978500 -180.778717 -49.798470

v -63.945984 -194.743103 -49.873764

v -82.658913 -199.053650 -49.950764

v -81.987251 -204.060242 -49.924786

f 1 2 3
f 4 1 3
f 1 4 5
f 5 4 6
f 6 7 5
f 8 2 9
f 5 7 10
f 1 5 11
f 2 1 11
f 11 9 2
f 5 12 11
f 10 12 5
f 9 11 13
f 10 7 14
f 15 10 14
f 15 12 10
f 16 15 14
f 17 12 15
f 18 12 17
f 19 20 15
f 18 17 20
f 20 19 21
f 17 15 20
f 22 23 20
f 24 3 2
f 25 4 3
f 26 24 8
f 4 25 27
f 27 6 4
f 8 24 2
f 6 27 28
f 7 6 28
f 29 26 30
f 30 26 8
f 30 31 29
f 32 7 33
f 8 9 13
f 7 32 14
f 34 13 11
f 30 8 13
f 32 35 14
f 16 14 35
f 12 34 11
f 36 34 12
f 13 34 30
f 37 38 30
f 35 39 16
f 34 36 18
f 40 34 18
f 30 34 40
f 15 16 39
f 36 12 18
f 40 37 30
f 15 39 19
f 41 38 37
f 19 39 42
f 37 40 43
f 43 41 37
f 42 44 19
f 44 21 19
f 18 20 23
f 21 44 45
f 20 21 22
f 22 21 45
f 22 45 46
f 40 18 47
f 47 23 22
f 47 18 23
f 47 43 40
f 22 46 48
f 48 49 22
f 47 50 43
f 47 22 49
f 51 43 50
f 49 50 47
f 50 49 52
f 53 26 54
f 53 55 24
f 53 24 26
f 26 56 54
f 57 54 56
f 55 25 3
f 55 3 24
f 56 58 57
f 59 57 58
f 29 56 26
f 31 56 29
f 60 59 58
f 58 56 31
f 58 61 60
f 33 7 28
f 31 62 58
f 61 58 62
f 63 61 62
f 64 32 33
f 65 62 31
f 62 66 63
f 64 35 32
f 66 62 67
f 31 30 65
f 38 65 30
f 65 67 62
f 67 65 68
f 69 65 38
f 68 70 67
f 69 38 41
f 68 71 70
f 65 69 68
f 72 69 41
f 44 42 73
f 71 68 69
f 73 74 44
f 45 44 74
f 72 41 75
f 72 76 69
f 74 77 45
f 75 78 72
f 76 72 78
f 77 46 45
f 41 43 51
f 75 41 51
f 78 75 79
f 75 51 80
f 80 79 75
f 48 81 49
f 49 81 52
f 80 51 82
f 52 83 50
f 51 50 83
f 84 83 52
f 83 82 51
f 25 55 85
f 54 86 53
f 54 57 87
f 85 88 25
f 87 57 59
f 27 25 88
f 33 28 64
f 61 63 89
f 89 63 90
f 63 66 90
f 64 91 35
f 67 92 66
f 39 35 91
f 91 93 39
f 92 67 70
f 42 39 93
f 94 95 70
f 93 73 42
f 71 94 70
f 71 69 96
f 76 97 69
f 97 96 69
f 76 78 97
f 97 78 98
f 78 79 98
f 48 46 77
f 99 98 79
f 99 79 80
f 81 48 77
f 99 80 100
f 101 52 81
f 52 101 84
f 80 82 102
f 100 80 102
f 83 84 103
f 103 102 83
f 82 83 102
f 103 84 104
f 84 105 104
f 106 102 103
f 104 107 103
f 107 106 103
f 108 102 109
f 106 109 102
f 110 107 104
f 88 111 27
f 86 54 87
f 111 28 27
f 111 112 28
f 59 113 87
f 113 59 60
f 64 28 112
f 60 114 113
f 114 60 61
f 64 112 115
f 61 116 114
f 116 61 89
f 115 117 64
f 91 64 117
f 90 66 118
f 118 66 92
f 119 118 92
f 119 92 120
f 120 92 95
f 70 95 92
f 119 120 121
f 122 123 93
f 120 95 94
f 73 93 123
f 124 121 120
f 120 94 124
f 122 125 123
f 73 123 126
f 74 73 126
f 125 126 123
f 94 127 124
f 94 71 96
f 122 128 125
f 126 77 74
f 94 96 129
f 129 127 94
f 129 96 130
f 97 130 96
f 131 130 97
f 128 132 125
f 81 77 126
f 98 99 133
f 97 98 134
f 134 131 97
f 134 98 133
f 81 126 101
f 101 126 125
f 133 99 100
f 125 132 135
f 101 125 105
f 105 125 135
f 105 84 101
f 100 102 108
f 108 136 100
f 137 138 135
f 105 135 138
f 108 109 139
f 136 108 139
f 110 104 105
f 137 140 138
f 105 138 140
f 110 105 140
f 109 106 141
f 107 110 142
f 106 107 142
f 142 141 106
f 143 111 88
f 88 144 143
f 144 88 85
f 144 85 55
f 55 145 144
f 145 55 53
f 146 112 111
f 111 143 146
f 86 145 53
f 147 86 87
f 87 113 147
f 115 146 117
f 146 115 112
f 89 148 116
f 90 148 89
f 149 148 90
f 150 91 117
f 149 90 118
f 118 151 149
f 118 119 151
f 91 150 152
f 152 93 91
f 119 153 151
f 93 152 154
f 154 122 93
f 153 119 155
f 121 155 119
f 121 156 155
f 124 156 121
f 156 124 157
f 154 128 122
f 124 127 157
f 127 158 157
f 158 127 129
f 129 130 159
f 130 131 160
f 128 161 162
f 162 132 128
f 134 163 131
f 134 133 163
f 133 164 163
f 162 135 132
f 135 162 165
f 135 165 166
f 133 100 136
f 136 167 133
f 164 133 167
f 166 168 135
f 137 135 168
f 137 168 169
f 169 140 137
f 170 139 109
f 170 109 141
f 142 110 171
f 142 171 141
f 172 143 144
f 173 146 143
f 86 174 145
f 86 147 174
f 113 175 147
f 173 143 176
f 176 143 172
f 146 173 177
f 113 114 175
f 177 117 146
f 116 178 114
f 178 116 148
f 148 149 178
f 149 179 178
f 180 179 149
f 181 150 117
f 149 182 180
f 181 183 150
f 149 184 182
f 185 182 184
f 186 152 183
f 150 183 152
f 184 149 151
f 187 152 186
f 184 151 153
f 188 184 153
f 152 187 189
f 190 189 187
f 189 154 152
f 189 190 191
f 188 153 155
f 189 191 192
f 189 192 154
f 155 193 188
f 156 194 155
f 157 194 156
f 195 154 192
f 158 129 159
f 128 154 161
f 159 130 160
f 161 154 195
f 196 161 195
f 131 197 160
f 131 163 197
f 162 161 196
f 163 164 198
f 198 197 163
f 196 165 162
f 164 167 198
f 166 165 168
f 199 198 167
f 200 201 167
f 170 200 136
f 136 200 167
f 136 139 170
f 140 169 202
f 203 170 141
f 110 140 202
f 171 110 202
f 202 203 171
f 141 171 203
f 204 172 144
f 144 205 204
f 205 144 145
f 145 206 205
f 206 145 174
f 147 175 174
f 172 204 207
f 207 176 172
f 208 175 114
f 173 176 209
f 176 207 209
f 177 210 211
f 210 177 173
f 173 209 210
f 212 208 114
f 114 213 212
f 213 114 178
f 178 179 213
f 177 211 214
f 215 179 180
f 180 216 215
f 214 117 177
f 214 181 117
f 180 182 216
f 181 214 217
f 217 183 181
f 186 183 217
f 217 218 186
f 219 185 184
f 220 185 219
f 184 188 219
f 187 186 218
f 190 187 218
f 218 221 190
f 188 222 219
f 220 219 222
f 190 221 223
f 191 190 223
f 222 188 224
f 193 224 188
f 192 191 223
f 193 155 194
f 223 225 192
f 193 226 224
f 193 194 227
f 227 226 193
f 225 228 192
f 194 157 229
f 229 227 194
f 195 192 228
f 158 229 157
f 230 158 159
f 160 230 159
f 228 231 195
f 195 231 196
f 232 230 160
f 232 160 197
f 232 197 233
f 196 231 234
f 234 165 196
f 198 233 197
f 233 198 235
f 165 234 168
f 199 235 198
f 199 167 201
f 236 169 168
f 202 169 237
f 238 170 203
f 238 203 237
f 237 203 202
f 205 239 204
f 204 240 207
f 174 241 206
f 209 240 242
f 209 207 240
f 241 174 175
f 175 243 241
f 244 245 210
f 209 244 210
f 243 175 208
f 208 246 243
f 211 210 245
f 246 208 212
f 212 247 246
f 248 213 179
f 179 215 248
f 247 212 213
f 213 248 247
f 249 214 211
f 214 249 217
f 250 216 182
f 182 185 250
f 249 251 217
f 185 252 250
f 253 251 249
f 185 220 252
f 220 254 252
f 251 255 217
f 218 255 221
f 255 218 217
f 255 251 253
f 253 256 255
f 222 257 220
f 254 220 257
f 255 258 221
f 255 256 258
f 224 257 222
f 221 258 223
f 258 259 223
f 257 224 226
f 225 223 259
f 259 260 225
f 261 262 226
f 228 225 260
f 226 227 261
f 229 263 227
f 261 227 263
f 229 158 264
f 230 264 158
f 265 264 230
f 264 263 229
f 232 265 230
f 265 266 264
f 266 265 267
f 233 265 232
f 233 267 265
f 168 234 236
f 236 268 169
f 237 169 268
f 269 237 268
f 269 270 238
f 170 238 270
f 270 200 170
f 238 237 269
f 205 271 272
f 239 205 272
f 273 274 275
f 273 276 277
f 240 204 239
f 271 205 206
f 275 271 243
f 243 278 275
f 279 273 275
f 279 280 273
f 241 271 206
f 243 271 241
f 278 279 275
f 280 281 273
f 276 273 281
f 281 282 276
f 283 244 209
f 209 242 283
f 244 283 284
f 243 246 278
f 279 278 246
f 245 244 284
f 279 248 280
f 248 215 280
f 281 280 215
f 246 247 279
f 216 281 215
f 282 281 216
f 247 248 279
f 285 245 284
f 216 250 282
f 245 285 211
f 211 285 249
f 253 249 285
f 285 286 253
f 256 253 287
f 257 288 254
f 258 256 289
f 288 257 290
f 259 258 289
f 289 291 259
f 290 257 262
f 226 262 257
f 228 260 292
f 290 262 293
f 262 261 294
f 263 294 261
f 293 262 295
f 294 263 296
f 295 262 294
f 297 293 295
f 228 298 231
f 296 299 294
f 295 294 299
f 263 264 266
f 297 295 300
f 296 263 301
f 263 266 301
f 301 302 296
f 298 303 234
f 299 300 295
f 299 296 302
f 304 300 299
f 231 298 234
f 301 305 302
f 306 307 308
f 267 301 266
f 304 299 309
f 303 310 234
f 307 306 311
f 312 309 302
f 299 302 309
f 313 306 308
f 313 308 314
f 302 305 315
f 315 312 302
f 234 310 236
f 310 303 311
f 313 314 316
f 301 267 317
f 305 301 317
f 316 318 313
f 311 319 310
f 319 311 306
f 318 316 320
f 267 233 321
f 321 317 267
f 305 317 322
f 315 305 322
f 319 306 313
f 320 199 201
f 235 199 323
f 323 321 235
f 233 235 321
f 317 321 324
f 324 322 317
f 268 310 319
f 319 313 318
f 200 318 320
f 236 310 268
f 320 201 200
f 319 269 268
f 319 318 270
f 269 319 270
f 318 200 270
f 325 274 273
f 326 272 327
f 273 277 325
f 328 325 277
f 329 327 272
f 330 275 274
f 274 331 330
f 332 328 277
f 333 239 326
f 239 272 326
f 329 272 271
f 271 330 329
f 330 271 275
f 332 277 276
f 333 240 239
f 334 332 276
f 335 242 240
f 334 276 282
f 335 336 242
f 337 334 282
f 242 338 283
f 338 242 336
f 284 283 338
f 250 337 282
f 339 337 250
f 340 285 284
f 250 252 339
f 341 285 340
f 285 341 286
f 287 286 341
f 286 287 253
f 254 342 252
f 289 256 287
f 342 254 288
f 342 288 290
f 343 259 291
f 290 344 342
f 344 290 293
f 343 260 259
f 292 260 343
f 344 293 297
f 292 345 228
f 297 346 344
f 345 347 228
f 298 228 347
f 346 297 348
f 347 349 298
f 348 297 300
f 303 298 349
f 349 350 303
f 308 307 351
f 351 352 308
f 350 353 303
f 300 304 354
f 311 303 353
f 353 351 307
f 314 308 352
f 352 355 314
f 307 311 353
f 316 314 355
f 355 356 316
f 320 316 356
f 320 356 357
f 312 315 358
f 199 320 357
f 357 323 199
f 323 359 321
f 315 322 360
f 361 322 324
f 362 324 321
f 363 325 364
f 325 328 365
f 366 365 328
f 367 368 369
f 363 331 325
f 366 332 368
f 331 274 325
f 332 366 328
f 369 368 332
f 327 370 326
f 326 370 333
f 367 369 371
f 330 331 363
f 363 327 329
f 329 330 363
f 240 333 335
f 371 369 332
f 371 332 334
f 334 337 371
f 372 371 337
f 337 339 372
f 373 284 338
f 373 340 284
f 374 341 340
f 375 339 252
f 374 376 341
f 252 377 375
f 377 252 342
f 378 291 289
f 343 291 378
f 344 379 342
f 344 380 379
f 380 344 346
f 347 345 381
f 381 382 347
f 348 380 346
f 382 349 347
f 300 354 348
f 382 383 349
f 383 350 349
f 384 351 353
f 384 353 350
f 385 304 309
f 354 304 385
f 358 315 360
f 362 321 359
f 361 360 322
f 362 361 324
f 386 387 388
f 387 386 327
f 389 366 368
f 387 363 390
f 390 363 364
f 366 389 365
f 391 368 367
f 387 327 363
f 392 364 325
f 325 393 392
f 393 325 365
f 365 389 393
f 370 327 386
f 370 394 333
f 394 335 333
f 335 395 336
f 396 372 339
f 338 397 373
f 398 339 375
f 340 373 397
f 397 374 340
f 399 375 377
f 376 400 341
f 400 287 341
f 400 401 287
f 402 377 342
f 289 287 401
f 403 289 401
f 404 402 342
f 404 342 379
f 378 289 403
f 404 379 405
f 343 378 406
f 405 379 407
f 343 406 292
f 345 292 406
f 407 379 380
f 380 408 407
f 381 345 409
f 408 380 410
f 409 411 381
f 381 411 383
f 381 383 382
f 412 380 348
f 354 412 348
f 384 350 383
f 355 352 413
f 351 384 414
f 352 351 413
f 414 415 351
f 413 351 415
f 356 355 413
f 413 416 356
f 417 385 309
f 384 383 418
f 416 357 356
f 309 312 417
f 418 414 384
f 358 417 312
f 323 357 416
f 416 419 323
f 419 362 323
f 359 323 362
f 388 420 386
f 421 388 387
f 421 387 390
f 390 422 421
f 391 423 368
f 420 424 386
f 422 390 364
f 364 425 422
f 364 426 425
f 389 368 423
f 423 427 389
f 370 386 424
f 426 364 392
f 392 428 426
f 427 429 389
f 370 424 394
f 393 389 429
f 392 429 428
f 429 392 393
f 335 394 430
f 431 367 371
f 430 395 335
f 431 371 372
f 431 372 396
f 395 432 338
f 336 395 338
f 338 433 397
f 339 398 396
f 374 397 433
f 375 399 398
f 377 434 399
f 434 377 402
f 403 406 378
f 407 435 405
f 407 408 435
f 410 380 436
f 380 412 436
f 437 383 411
f 385 412 354
f 436 438 410
f 416 413 439
f 439 440 416
f 385 441 412
f 436 412 442
f 438 436 442
f 437 418 383
f 443 441 385
f 442 412 441
f 415 439 413
f 419 416 440
f 385 417 443
f 441 444 442
f 438 442 444
f 414 418 445
f 446 447 414
f 415 414 447
f 362 419 448
f 358 443 417
f 445 446 414
f 440 439 449
f 419 440 448
f 448 450 362
f 361 362 450
f 447 451 415
f 439 415 451
f 451 449 439
f 360 361 450
f 358 360 452
f 443 358 452
f 453 440 449
f 448 440 453
f 450 452 360
f 448 454 450
f 453 454 448
f 450 454 455
f 456 449 451
f 457 458 459
f 459 458 460
f 461 462 463
f 462 457 464
f 464 463 462
f 463 423 461
f 460 465 466
f 459 464 457
f 461 423 391
f 467 388 468
f 421 468 388
f 460 425 459
f 463 464 469
f 388 467 420
f 421 422 466
f 466 425 460
f 464 459 425
f 469 423 463
f 422 425 466
f 420 467 424
f 469 464 425
f 470 424 471
f 423 469 427
f 429 427 469
f 472 470 471
f 425 426 428
f 428 469 425
f 470 394 424
f 428 429 469
f 394 470 430
f 473 367 431
f 472 430 470
f 474 432 395
f 395 472 474
f 395 430 472
f 433 338 432
f 475 476 374
f 374 433 475
f 476 376 374
f 400 376 477
f 401 400 477
f 477 478 401
f 403 401 478
f 478 479 403
f 479 406 403
f 479 480 406
f 345 406 481
f 481 409 345
f 408 482 435
f 410 482 408
f 482 410 483
f 483 410 438
f 411 484 437
f 438 444 485
f 437 484 486
f 437 486 418
f 487 485 441
f 444 441 485
f 418 486 445
f 441 443 488
f 486 489 445
f 443 452 488
f 488 490 441
f 490 491 441
f 487 441 491
f 446 445 489
f 492 488 493
f 447 446 494
f 446 489 494
f 447 494 451
f 450 455 452
f 488 452 493
f 492 490 488
f 495 493 452
f 494 456 451
f 456 496 449
f 455 495 452
f 497 453 449
f 453 498 454
f 453 497 499
f 499 498 453
f 493 495 500
f 492 493 500
f 496 497 449
f 498 455 454
f 455 501 495
f 500 495 501
f 497 502 499
f 503 458 457
f 458 504 460
f 458 503 504
f 457 505 503
f 506 507 462
f 462 461 506
f 505 457 462
f 462 507 505
f 504 465 460
f 508 461 391
f 509 468 421
f 509 421 466
f 466 465 509
f 391 510 508
f 509 511 468
f 511 467 468
f 467 512 424
f 467 511 512
f 513 511 509
f 512 471 424
f 471 514 472
f 513 512 511
f 510 391 367
f 515 472 514
f 472 516 474
f 510 367 473
f 516 432 474
f 517 432 516
f 432 518 433
f 519 431 396
f 433 518 475
f 519 396 398
f 398 399 519
f 520 376 476
f 376 520 477
f 434 402 521
f 477 520 478
f 521 402 404
f 522 479 478
f 521 404 523
f 523 404 405
f 523 405 524
f 480 481 406
f 524 405 435
f 435 525 524
f 435 526 525
f 526 435 482
f 527 526 482
f 527 482 483
f 483 528 527
f 483 529 528
f 530 484 411
f 483 438 529
f 531 484 530
f 529 438 532
f 531 486 484
f 438 485 532
f 533 532 485
f 531 489 486
f 489 531 534
f 535 533 487
f 485 487 533
f 536 489 534
f 537 489 536
f 491 490 538
f 490 539 538
f 537 494 489
f 492 539 490
f 537 540 494
f 492 541 542
f 456 494 540
f 492 500 541
f 496 456 543
f 498 544 455
f 501 455 545
f 501 541 500
f 455 544 545
f 497 496 502
f 499 546 498
f 546 544 498
f 503 547 504
f 547 503 505
f 548 505 507
f 506 548 507
f 505 548 547
f 508 506 461
f 549 504 547
f 550 508 510
f 549 465 504
f 465 549 509
f 551 509 549
f 510 552 550
f 513 509 551
f 514 471 512
f 512 553 514
f 513 551 554
f 552 510 473
f 553 512 513
f 513 554 553
f 473 555 552
f 516 472 515
f 555 473 431
f 556 555 431
f 517 557 432
f 556 431 519
f 518 432 557
f 557 558 518
f 475 518 558
f 519 559 556
f 560 475 558
f 559 519 399
f 476 475 560
f 399 434 559
f 476 561 520
f 562 520 563
f 520 562 478
f 478 562 522
f 521 523 564
f 522 480 479
f 523 524 564
f 564 524 525
f 565 564 525
f 566 525 526
f 525 566 565
f 481 567 409
f 566 526 527
f 527 568 566
f 569 565 566
f 566 568 569
f 411 409 567
f 527 528 568
f 567 570 411
f 569 568 571
f 570 530 411
f 528 529 568
f 568 529 571
f 531 530 572
f 571 532 573
f 532 571 529
f 573 533 535
f 533 573 532
f 538 487 491
f 536 534 574
f 492 542 539
f 456 540 575
f 575 543 456
f 543 576 496
f 501 545 577
f 576 578 496
f 502 496 578
f 579 577 545
f 578 580 502
f 545 544 579
f 580 499 502
f 499 580 546
f 581 506 508
f 506 581 548
f 547 582 583
f 582 547 548
f 508 584 581
f 584 508 550
f 549 547 583
f 583 585 549
f 586 550 552
f 586 552 587
f 588 551 549
f 587 552 555
f 514 589 515
f 590 554 551
f 590 551 588
f 591 587 555
f 514 553 589
f 592 553 554
f 593 515 589
f 554 590 592
f 515 593 516
f 594 553 592
f 589 594 593
f 594 589 553
f 555 556 591
f 594 592 595
f 516 593 517
f 596 593 594
f 556 597 591
f 598 594 595
f 557 517 593
f 598 596 594
f 593 596 599
f 599 557 593
f 596 598 600
f 601 596 600
f 560 557 599
f 596 601 599
f 597 556 559
f 560 558 557
f 559 602 597
f 599 603 560
f 476 560 561
f 602 559 434
f 434 604 602
f 604 434 521
f 563 520 561
f 521 605 604
f 605 521 564
f 480 522 562
f 564 606 605
f 481 480 607
f 606 564 565
f 608 606 565
f 481 609 567
f 610 608 565
f 609 611 567
f 610 565 569
f 570 567 611
f 571 610 569
f 612 610 571
f 530 570 611
f 611 572 530
f 612 571 573
f 612 573 613
f 614 531 572
f 573 535 613
f 531 614 534
f 615 613 535
f 614 574 534
f 535 487 615
f 487 538 615
f 536 574 616
f 537 536 616
f 616 617 537
f 540 537 617
f 540 617 618
f 618 619 540
f 575 540 619
f 541 501 620
f 575 619 621
f 577 620 501
f 621 622 575
f 543 575 622
f 622 576 543
f 544 546 623
f 623 579 544
f 578 624 580
f 580 623 546
f 576 622 624
f 578 576 624
f 625 582 548
f 548 626 625
f 626 548 581
f 626 581 584
f 584 550 586
f 627 586 587
f 587 628 627
f 585 588 549
f 590 588 629
f 628 587 591
f 590 630 592
f 591 631 628
f 592 630 632
f 631 591 597
f 597 633 631
f 598 595 634
f 635 600 598
f 601 600 636
f 633 597 602
f 599 636 637
f 636 599 601
f 603 599 637
f 560 603 638
f 602 639 633
f 560 640 561
f 602 604 639
f 563 561 641
f 563 642 562
f 480 562 642
f 642 643 480
f 644 605 606
f 480 643 607
f 609 481 607
f 609 645 611
f 608 610 646
f 647 646 610
f 647 610 612
f 645 572 611
f 645 648 572
f 649 647 615
f 613 647 612
f 648 614 572
f 649 615 650
f 615 647 613
f 574 614 651
f 538 650 615
f 574 651 652
f 650 538 539
f 616 574 652
f 616 652 617
f 652 618 617
f 539 542 653
f 541 654 542
f 654 653 542
f 620 654 541
f 620 577 655
f 654 620 655
f 579 656 577
f 656 655 577
f 654 655 657
f 621 658 622
f 659 656 623
f 579 623 656
f 653 654 660
f 656 657 655
f 660 654 657
f 623 580 659
f 661 657 656
f 580 624 662
f 580 662 659
f 663 622 658
f 622 663 624
f 662 624 664
f 664 665 662
f 665 659 662
f 656 659 666
f 666 661 656
f 660 657 667
f 661 667 657
f 663 664 624
f 663 668 664
f 659 669 666
f 667 661 670
f 665 669 659
f 671 661 666
f 664 668 672
f 672 665 664
f 669 671 666
f 671 669 673
f 661 671 674
f 670 661 674
f 673 674 671
f 675 676 677
f 678 676 675
f 679 680 676
f 681 678 675
f 679 676 678
f 625 681 682
f 625 678 681
f 679 586 680
f 680 586 627
f 582 625 683
f 682 683 625
f 626 678 625
f 679 678 626
f 584 586 679
f 626 584 679
f 684 588 585
f 684 629 588
f 629 630 590
f 634 595 632
f 595 592 632
f 634 635 598
f 685 600 635
f 600 685 636
f 685 637 636
f 637 686 603
f 686 638 603
f 640 560 638
f 640 641 561
f 604 687 639
f 687 604 605
f 563 641 688
f 563 688 642
f 687 605 644
f 643 642 688
f 689 643 690
f 643 689 607
f 644 606 608
f 609 607 689
f 645 609 689
f 691 608 646
f 689 648 645
f 651 689 692
f 691 646 647
f 647 693 691
f 648 689 651
f 693 647 649
f 614 648 651
f 694 649 650
f 651 695 652
f 695 696 652
f 539 697 650
f 696 698 652
f 618 652 698
f 539 653 697
f 619 618 698
f 621 619 698
f 658 621 698
f 699 653 660
f 663 658 700
f 701 660 667
f 700 702 663
f 703 701 667
f 668 663 702
f 667 670 703
f 703 670 704
f 665 705 706
f 706 669 665
f 669 706 707
f 705 665 672
f 673 669 707
f 674 704 670
f 708 674 673
f 675 677 709
f 676 710 711
f 676 680 710
f 709 681 675
f 681 712 682
f 681 709 712
f 680 713 710
f 713 680 627
f 682 712 683
f 714 683 712
f 715 627 628
f 714 583 582
f 714 582 683
f 583 714 585
f 684 585 714
f 716 684 714
f 684 716 717
f 628 631 718
f 717 629 684
f 630 629 717
f 630 717 632
f 632 717 634
f 633 719 631
f 720 635 634
f 685 635 720
f 685 721 637
f 633 639 719
f 637 721 686
f 685 720 721
f 722 721 720
f 686 721 723
f 724 638 686
f 723 724 686
f 638 724 640
f 721 722 723
f 725 640 724
f 640 725 641
f 724 726 725
f 726 724 723
f 726 723 727
f 688 641 725
f 688 725 726
f 727 728 726
f 726 729 688
f 644 730 687
f 729 726 728
f 690 688 729
f 690 643 688
f 729 731 690
f 731 729 728
f 608 732 644
f 692 690 731
f 690 692 689
f 691 733 608
f 734 735 731
f 733 691 736
f 731 735 692
f 691 693 736
f 737 695 735
f 651 692 695
f 735 695 692
f 693 649 738
f 649 694 738
f 696 695 737
f 650 697 694
f 698 739 658
f 653 699 697
f 739 700 658
f 660 701 699
f 740 668 702
f 706 705 741
f 740 672 668
f 705 672 740
f 707 708 673
f 704 674 708
f 711 677 676
f 677 711 709
f 742 709 711
f 742 712 709
f 715 713 627
f 712 743 714
f 743 712 742
f 628 718 715
f 714 743 744
f 716 714 744
f 716 745 717
f 716 744 745
f 746 718 631
f 747 717 745
f 631 748 746
f 749 717 747
f 748 631 719
f 720 634 717
f 717 749 720
f 750 720 749
f 749 747 750
f 639 751 719
f 720 752 722
f 720 750 752
f 750 753 752
f 727 723 722
f 754 722 752
f 722 754 727
f 752 755 754
f 751 639 687
f 687 756 751
f 728 727 754
f 756 687 730
f 754 757 728
f 757 754 758
f 644 732 730
f 728 734 731
f 608 759 732
f 734 728 757
f 757 760 734
f 759 608 733
f 760 761 734
f 735 734 761
f 761 762 735
f 693 738 736
f 737 735 762
f 762 763 737
f 738 694 764
f 696 737 763
f 763 765 696
f 698 696 765
f 697 764 694
f 766 764 697
f 765 767 698
f 739 698 767
f 699 766 697
f 700 739 768
f 768 702 700
f 701 703 769
f 706 741 770
f 707 706 770
f 708 707 770
f 770 771 708
f 705 740 772
f 741 705 772
f 771 704 708
f 710 773 711
f 710 713 773
f 773 742 711
f 774 773 713
f 774 742 773
f 774 713 715
f 775 774 715
f 776 742 774
f 774 777 778
f 777 774 775
f 774 778 776
f 775 715 718
f 742 776 743
f 779 743 776
f 776 780 779
f 775 718 746
f 779 744 743
f 744 779 745
f 781 746 748
f 745 782 747
f 783 747 782
f 783 782 784
f 784 782 785
f 719 751 786
f 753 750 747
f 747 783 753
f 783 784 787
f 786 751 788
f 789 753 783
f 789 783 787
f 755 753 789
f 755 752 753
f 790 755 789
f 751 756 788
f 790 789 791
f 792 788 756
f 755 790 758
f 730 792 756
f 758 754 755
f 790 793 758
f 794 793 790
f 795 793 794
f 760 757 758
f 796 758 793
f 797 792 730
f 796 793 795
f 730 732 797
f 758 796 760
f 759 797 732
f 795 798 796
f 797 759 799
f 798 760 796
f 759 733 799
f 799 733 736
f 761 760 798
f 798 800 761
f 801 761 800
f 761 801 762
f 763 762 801
f 801 765 763
f 764 766 802
f 739 767 768
f 802 766 699
f 803 802 699
f 804 702 768
f 699 701 803
f 803 701 769
f 740 702 805
f 806 770 741
f 769 703 807
f 772 740 805
f 741 772 808
f 808 806 741
f 703 704 807
f 771 770 809
f 704 771 809
f 810 807 704
f 806 809 770
f 704 809 810
f 811 778 777
f 780 776 778
f 780 778 811
f 775 812 777
f 812 775 746
f 813 780 811
f 777 813 811
f 779 780 814
f 746 781 812
f 815 814 780
f 779 814 745
f 816 745 814
f 785 782 745
f 745 816 785
f 748 817 781
f 817 748 719
f 817 719 786
f 818 785 816
f 816 819 818
f 786 820 817
f 785 818 784
f 820 786 788
f 821 784 818
f 822 818 823
f 784 821 787
f 818 822 821
f 788 824 820
f 825 821 822
f 791 789 787
f 791 787 821
f 821 825 826
f 821 826 791
f 791 826 827
f 824 788 792
f 792 828 824
f 790 791 827
f 794 790 827
f 792 829 828
f 829 792 797
f 797 799 829
f 798 795 830
f 830 831 798
f 798 831 800
f 736 832 799
f 833 832 738
f 738 832 736
f 831 834 800
f 800 834 801
f 738 764 833
f 834 765 801
f 833 764 835
f 802 835 764
f 767 765 836
f 802 837 835
f 768 767 836
f 803 838 837
f 837 802 803
f 769 839 803
f 702 804 805
f 807 840 839
f 807 839 769
f 805 841 772
f 808 772 841
f 810 842 807
f 806 808 843
f 809 842 810
f 843 809 806
f 844 777 812
f 777 844 813
f 780 813 815
f 781 844 812
f 845 844 781
f 846 815 813
f 845 813 844
f 815 846 814
f 813 847 846
f 845 847 813
f 781 817 845
f 816 814 819
f 848 814 846
f 847 845 849
f 846 847 848
f 849 845 817
f 814 848 819
f 819 850 818
f 847 851 848
f 852 847 849
f 819 853 850
f 848 851 854
f 848 854 819
f 847 852 851
f 853 819 854
f 820 849 817
f 850 823 818
f 855 823 850
f 850 853 855
f 856 851 852
f 857 852 849
f 856 852 857
f 857 849 820
f 822 823 855
f 855 858 822
f 820 859 857
f 820 824 859
f 825 822 858
f 858 860 825
f 860 826 825
f 859 824 861
f 827 826 862
f 861 824 828
f 863 794 827
f 864 861 828
f 863 865 794
f 828 829 864
f 795 794 865
f 865 830 795
f 830 866 831
f 866 867 831
f 834 831 867
f 867 868 834
f 765 834 868
f 836 765 868
f 835 837 869
f 768 836 870
f 871 838 872
f 871 837 838
f 838 873 872
f 870 804 768
f 838 803 839
f 839 873 838
f 840 874 873
f 840 873 839
f 874 840 875
f 805 804 876
f 877 878 843
f 842 878 875
f 841 805 876
f 841 876 877
f 875 840 842
f 877 843 841
f 878 842 843
f 840 807 842
f 841 843 808
f 842 809 843
f 879 854 851
f 851 880 879
f 881 853 854
f 856 882 851
f 881 854 879
f 851 882 880
f 855 883 858
f 883 855 853
f 853 884 883
f 856 857 882
f 885 882 857
f 857 859 885
f 860 858 883
f 886 885 859
f 859 861 886
f 860 862 826
f 861 887 886
f 827 862 863
f 861 864 887
f 864 888 887
f 863 889 865
f 888 864 829
f 829 890 888
f 891 865 889
f 865 891 892
f 893 892 891
f 865 892 830
f 829 894 890
f 895 892 893
f 799 894 829
f 830 892 866
f 866 892 896
f 799 897 894
f 832 897 799
f 895 898 899
f 832 900 897
f 892 895 899
f 896 867 866
f 899 896 892
f 900 832 901
f 902 899 898
f 901 832 833
f 896 899 903
f 903 904 896
f 902 903 899
f 833 905 901
f 903 902 906
f 896 868 867
f 868 896 904
f 904 903 906
f 833 907 905
f 907 833 835
f 868 904 908
f 836 868 908
f 907 835 869
f 870 836 908
f 837 871 869
f 870 909 804
f 873 874 910
f 911 910 875
f 910 874 875
f 804 909 876
f 875 878 912
f 912 911 875
f 876 909 913
f 914 915 877
f 915 912 877
f 912 878 877
f 877 876 913
f 913 914 877
f 916 879 880
f 881 879 917
f 917 879 916
f 916 880 882
f 884 853 881
f 917 884 881
f 885 918 882
f 919 883 884
f 916 920 917
f 916 882 918
f 884 917 919
f 916 921 920
f 885 886 918
f 883 922 860
f 883 919 922
f 917 920 923
f 916 918 921
f 920 921 924
f 925 918 886
f 926 862 860
f 925 886 887
f 927 921 918
f 863 862 926
f 921 927 928
f 918 929 927
f 929 918 925
f 930 863 926
f 888 925 887
f 930 889 863
f 888 890 925
f 889 931 891
f 931 889 930
f 891 931 893
f 932 933 934
f 933 932 935
f 936 937 933
f 938 927 929
f 939 925 890
f 940 932 934
f 925 939 929
f 941 937 942
f 943 933 937
f 890 894 939
f 944 895 893
f 893 931 944
f 943 937 941
f 939 894 897
f 945 946 934
f 941 947 943
f 948 938 949
f 949 938 929
f 941 950 947
f 898 895 944
f 944 951 898
f 943 934 933
f 949 929 939
f 939 897 949
f 943 945 934
f 897 900 949
f 952 945 953
f 900 901 949
f 902 898 951
f 945 954 953
f 954 945 943
f 901 955 949
f 951 956 902
f 952 953 957
f 954 958 953
f 959 954 943
f 943 960 959
f 960 943 947
f 958 954 959
f 959 961 958
f 901 905 955
f 947 962 960
f 906 902 956
f 956 963 906
f 962 964 960
f 965 906 963
f 966 962 967
f 907 966 905
f 906 965 904
f 968 904 965
f 966 869 962
f 964 962 969
f 966 907 869
f 968 908 904
f 869 969 962
f 908 968 970
f 968 971 970
f 870 908 970
f 971 972 970
f 871 969 869
f 972 973 970
f 969 872 974
f 872 969 871
f 870 970 973
f 975 972 976
f 977 978 910
f 910 911 977
f 873 910 974
f 872 873 974
f 972 979 973
f 979 972 975
f 909 870 973
f 977 915 975
f 979 975 915
f 977 911 912
f 973 979 909
f 912 915 977
f 909 979 913
f 914 979 915
f 979 914 913
f 917 923 919
f 920 924 923
f 926 860 922
f 980 922 919
f 923 935 919
f 981 923 924
f 921 928 924
f 980 926 922
f 982 981 924
f 982 924 928
f 932 919 935
f 981 935 923
f 983 926 980
f 936 935 981
f 984 981 982
f 940 983 980
f 981 984 936
f 930 926 983
f 919 940 980
f 942 936 984
f 919 932 940
f 985 984 982
f 933 935 936
f 927 948 928
f 986 931 930
f 936 942 937
f 982 987 985
f 930 983 986
f 946 983 940
f 942 984 985
f 938 948 927
f 982 928 948
f 942 985 941
f 982 948 987
f 987 988 985
f 931 989 944
f 989 931 986
f 989 986 983
f 940 934 946
f 950 985 988
f 983 952 989
f 990 991 988
f 990 988 987
f 948 992 987
f 950 941 985
f 988 991 950
f 987 992 990
f 944 989 951
f 983 946 952
f 992 993 990
f 952 946 945
f 994 950 991
f 991 990 993
f 948 949 955
f 995 948 955
f 948 995 992
f 989 952 996
f 997 950 994
f 950 997 947
f 992 995 998
f 989 956 951
f 996 999 989
f 993 967 997
f 993 992 967
f 955 905 995
f 952 1000 996
f 958 957 953
f 998 967 992
f 989 963 956
f 963 989 999
f 997 962 947
f 997 967 962
f 995 905 998
f 961 959 1001
f 1001 959 960
f 957 958 961
f 960 964 1001
f 1000 952 957
f 963 999 965
f 964 1002 1001
f 966 967 998
f 966 998 905
f 978 957 961
f 999 968 965
f 968 999 996
f 978 1001 1002
f 978 961 1001
f 964 974 1002
f 971 968 996
f 978 1000 957
f 996 1000 971
f 964 969 974
f 972 971 1000
f 1000 976 972
f 978 1002 974
f 978 976 1000
f 978 974 910
f 976 977 975
f 977 976 978
f 991 993 994
f 997 994 993
