v -102.439690 -106.859993 -98.417206

v -106.283875 -112.286865 -99.737389

v -107.082275 -107.493256 -97.781189

v -112.684357 -118.834686 -97.969330

v -97.374481 -108.807030 -99.665466

v -113.737350 -129.768768 -99.837845

v -92.701164 -109.660072 -97.344261

v -86.265686 -114.823898 -99.535782

v -79.311707 -140.594467 -99.744537

v -78.207428 -120.404694 -99.342850

v -73.687775 -129.784576 -99.699585

v -89.769897 -146.824188 -99.815369

v -71.845268 -130.115189 -98.635788

v -105.986099 -143.955353 -99.844894

v -72.861160 -134.884644 -99.114128

v -75.079536 -137.761429 -99.070282

v -94.046608 -149.489594 -98.779694

v -78.149399 -140.565384 -97.970161

v -82.799484 -145.797577 -99.238937

v -87.394547 -147.654053 -98.335571

v -81.472252 -143.782303 -97.851807

v -120.687347 -112.542953 -95.996429

v -118.853699 -115.465546 -97.834564

v -108.946808 -105.104156 -95.917343

v -118.664795 -129.461060 -97.760468

v -116.363220 -131.867447 -98.045288

v -85.475861 -112.323006 -95.903275

v -79.490051 -117.025406 -96.095665

v -117.335327 -139.741882 -97.859283

v -120.247498 -138.604126 -96.251617

v -113.283752 -146.094971 -97.888489

v -109.921265 -143.545044 -98.042999

v -73.297401 -124.745224 -96.447433

v -103.739380 -148.305054 -97.888855

v -113.568298 -149.202087 -96.266510

v -71.137672 -127.749161 -94.715309

v -96.814430 -150.833862 -96.113831

v -81.662766 -143.774261 -92.991020

v -120.626633 -90.206879 -95.788124

v -129.375885 -96.517975 -95.935997

v -131.178925 -94.695557 -94.181808

v -121.302116 -87.029968 -94.023575

v -106.377441 -93.453491 -95.800461

v -131.648560 -98.617432 -94.232849

v -99.490356 -104.613464 -95.885376

v -122.235382 -121.161026 -94.249176

v -123.085938 -114.734039 -94.105110

v -90.122925 -97.892380 -95.786278

v -90.673584 -94.704689 -93.960716

v -78.097397 -102.295151 -93.513176

v -79.817139 -105.512421 -95.757965

v -123.688232 -131.112595 -94.547119

v -73.992447 -116.754745 -95.790260

v -123.764526 -137.315063 -95.165039

v -75.945641 -107.689743 -93.375946

v -122.277618 -143.952698 -95.952301

v -71.819000 -117.681313 -94.796326

v -70.717682 -121.793213 -95.114571

v -114.437996 -151.416992 -95.874207

v -102.253540 -153.419678 -95.700165

v -74.514343 -135.665329 -93.053787

v -111.236328 -157.321533 -92.920898

v -78.280159 -140.381699 -92.702644

v -92.098389 -152.050140 -92.797089

v -133.210358 -87.479065 -92.234879

v -127.735138 -87.461334 -93.895828

v -134.047485 -92.482407 -93.845795

v -134.763916 -99.971519 -93.890808

v -137.541321 -96.298187 -92.186157

v -105.497711 -85.777023 -93.747955

v -110.810547 -81.584900 -90.681015

v -130.921082 -114.632484 -93.863556

v -93.990318 -88.004288 -93.708801

v -101.872101 -91.473404 -94.005196

v -88.330421 -90.417847 -93.664398

v -126.736633 -118.371216 -93.935989

v -81.803436 -95.667999 -93.457573

v -126.894989 -124.062225 -93.733292

v -127.253906 -138.710602 -92.785767

v -129.844604 -138.458740 -92.067764

v -120.303055 -153.853577 -92.329666

v -71.284424 -122.355469 -90.974976

v -102.226593 -157.433258 -91.368050

v -85.815186 -147.685333 -92.332428

v -127.701393 -81.035797 -91.843742

v -139.956024 -87.149902 -92.060020

v -131.020691 -78.704193 -90.260880

v -124.006927 -84.427307 -92.400726

v -143.883850 -99.829979 -92.099663

v -135.726929 -107.555740 -92.180389

v -104.628967 -82.459793 -90.335945

v -145.890350 -101.612610 -90.309189

v -92.986267 -86.624329 -90.524300

v -136.325226 -111.032288 -90.681824

v -86.634071 -86.934883 -89.406784

v -83.084839 -89.917236 -88.983856

v -128.458496 -118.800903 -90.686951

v -75.602249 -101.286896 -85.529694

v -128.567566 -131.306290 -91.699951

v -131.386978 -146.789673 -91.848953

v -129.705917 -151.056061 -92.128876

v -72.384605 -115.000107 -89.040237

v -74.568970 -131.496094 -90.453979

v -123.597778 -162.813568 -91.655823

v -119.152931 -164.571259 -92.201118

v -107.854263 -161.702286 -91.881104

v -83.539917 -142.042770 -89.968445

v -115.160690 -165.987488 -91.989853

v -132.976166 -75.533630 -89.967911

v -143.329330 -79.737854 -89.719788

v -141.239349 -76.362991 -87.363495

v -144.516724 -88.694855 -90.202087

v -132.439117 -72.918945 -88.251999

v -112.814606 -78.114105 -89.876396

v -152.714218 -96.835800 -90.122574

v -153.892792 -104.017365 -90.258163

v -159.557251 -102.100021 -86.836609

v -109.465805 -76.079468 -88.309525

v -95.459915 -81.931458 -89.708885

v -141.214066 -113.254822 -90.150543

v -136.238312 -113.221909 -87.465408

v -129.265137 -127.940125 -88.884583

v -130.644897 -135.069855 -89.189209

v -132.767136 -141.233887 -87.658691

v -129.469543 -153.518234 -85.431953

v -126.433441 -159.638763 -86.567657

v -126.037621 -162.710419 -87.913322

v -81.928574 -137.557068 -89.167366

v -91.052109 -147.521667 -89.244705

v -99.373184 -153.906052 -88.198914

v -114.560165 -167.377930 -86.789619

v -109.095505 -161.235962 -86.742699

v -111.583405 -166.110016 -87.500504

v -131.757584 -70.268524 -86.392838

v -128.257492 -70.552078 -87.758850

v -122.643387 -69.023392 -87.957726

v -114.473907 -70.436371 -87.889290

v -119.908943 -67.626297 -86.335022

v -147.800049 -84.641312 -86.454987

v -154.545395 -94.587112 -86.609787

v -104.058868 -74.621513 -87.603088

v -157.309814 -106.692322 -87.596680

v -96.924500 -78.496689 -87.609772

v -149.495422 -111.166016 -87.640991

v -92.875717 -80.455292 -85.423424

v -142.535492 -116.054932 -86.398193

v -131.549149 -115.594368 -86.491470

v -87.145874 -85.605072 -85.039230

v -130.298279 -119.704376 -88.346924

v -132.132858 -126.717209 -87.493927

v -134.479477 -120.762680 -86.112411

v -132.416595 -130.827332 -87.493881

v -133.190201 -135.197495 -87.008507

v -71.746605 -109.704376 -82.834152

v -131.663330 -148.409317 -85.456703

v -75.462067 -124.452034 -87.057434

v -79.097969 -131.106644 -87.143059

v -87.037369 -142.427628 -83.644699

v -121.356499 -165.515060 -87.058762

v -108.751236 -159.328476 -84.174164

v -137.861450 -75.965088 -82.722229

v -143.795898 -80.297287 -82.614677

v -124.318222 -69.955811 -84.885468

v -155.635803 -87.967712 -84.425446

v -152.371490 -86.813141 -85.940659

v -160.695862 -95.623016 -86.275635

v -115.810196 -68.368210 -84.611374

v -110.832733 -70.404160 -84.843872

v -163.846863 -99.723785 -84.597206

v -104.872635 -73.224754 -85.025978

v -157.475479 -110.962708 -84.538116

v -156.435364 -108.788422 -84.998962

v -99.344681 -76.430161 -85.138840

v -149.260468 -112.016266 -85.507233

v -146.599060 -115.247314 -84.384766

v -81.690063 -92.084595 -85.249481

v -131.557343 -126.147812 -83.062607

v -131.396606 -132.477356 -84.189964

v -132.630264 -143.423264 -81.936096

v -72.714539 -118.122650 -83.361145

v -77.182350 -128.447189 -83.147186

v -79.344162 -131.539734 -83.129997

v -81.837524 -135.296814 -83.312744

v -115.219017 -162.376678 -86.249535

v -92.057762 -146.377182 -81.193466

v -160.403778 -89.215538 -84.370056

v -170.489838 -98.211182 -84.531776

v -171.158508 -92.744598 -82.456451

v -154.742676 -84.339188 -81.336624

v -149.158569 -84.677628 -83.519669

v -125.947998 -75.158691 -81.944763

v -120.708191 -71.538208 -83.936493

v -166.894196 -107.396576 -84.529785

v -170.178040 -108.679626 -82.732117

v -173.161407 -100.102562 -82.692772

v -108.389618 -75.074585 -83.106323

v -98.622925 -80.047363 -83.657227

v -153.838348 -114.656494 -82.880066

v -138.854858 -120.314819 -83.149109

v -82.869629 -94.551514 -83.550659

v -75.363373 -102.543152 -82.803238

v -133.405518 -135.066223 -82.543579

v -129.173111 -150.503510 -81.950272

v -126.155983 -155.491226 -82.838623

v -74.702927 -124.084435 -82.847855

v -116.281395 -159.206299 -83.609680

v -102.577499 -153.177612 -81.209846

v -165.644913 -88.949684 -81.723297

v -172.279861 -92.083191 -80.695984

v -177.248001 -94.191078 -82.325912

v -180.080841 -103.514526 -82.607941

v -176.507797 -111.204079 -82.558159

v -119.067024 -76.151947 -81.587860

v -179.551300 -109.013855 -81.710663

v -108.529236 -79.228271 -81.808502

v -165.419434 -116.367470 -82.378464

v -173.223831 -114.728897 -81.507813

v -156.106720 -117.149353 -82.017838

v -99.899414 -83.685669 -81.773071

v -145.929199 -120.628906 -80.211670

v -89.506836 -95.417175 -79.931152

v -97.440674 -89.579567 -78.630203

v -135.947388 -126.108215 -82.384766

v -87.748627 -98.375458 -79.616272

v -80.329102 -103.464722 -80.821106

v -78.045471 -105.145752 -82.017715

v -75.611389 -117.975662 -82.377533

v -79.430389 -113.779007 -80.157593

v -79.137329 -121.931366 -81.918938

v -81.954201 -128.795425 -81.289978

v -84.803879 -133.655762 -81.224464

v -120.356606 -158.236176 -80.026886

v -87.343651 -138.623474 -81.427849

v -115.486168 -158.284424 -81.085617

v -168.490311 -88.808868 -78.846741

v -177.269592 -92.206787 -77.648804

v -164.113632 -88.300797 -78.132301

v -157.671021 -84.995300 -78.481964

v -182.387848 -97.467346 -79.675568

v -184.849396 -100.858917 -78.971680

v -151.748611 -81.982285 -76.688477

v -140.507370 -79.134369 -79.358917

v -130.909332 -77.160461 -78.987000

v -178.946808 -108.486526 -77.410767

v -120.758240 -77.387421 -78.734962

v -111.393509 -80.107025 -78.599236

v -104.527618 -82.329041 -79.124054

v -157.222565 -118.808548 -77.257568

v -167.361694 -115.771393 -76.578583

v -150.433502 -119.297058 -80.012085

v -138.955078 -128.781250 -79.792664

v -136.613953 -135.741226 -79.630615

v -81.882324 -108.851440 -79.582970

v -134.853027 -145.589355 -79.910828

v -128.768616 -157.039581 -79.829773

v -79.217201 -122.636917 -77.619560

v -81.747894 -129.221848 -77.432068

v -86.325226 -138.804138 -77.517693

v -109.049774 -152.222931 -80.209358

v -96.606125 -145.743774 -79.681595

v -102.237732 -148.613907 -80.162117

v -180.716278 -93.128304 -74.033417

v -181.461472 -97.654373 -75.100250

v -145.081451 -79.871109 -74.781204

v -137.154266 -80.407837 -77.955444

v -123.645081 -83.423340 -78.550156

v -126.682838 -84.008102 -77.195274

v -117.856033 -88.121277 -77.682190

v -108.686279 -90.137207 -78.520424

v -109.412766 -92.072212 -76.632767

v -98.464432 -95.241142 -78.092224

v -146.692383 -122.869507 -77.393433

v -89.818588 -98.500259 -76.382050

v -139.758118 -129.024353 -77.704346

v -136.986542 -139.027100 -75.384262

v -79.059464 -114.089020 -75.371445

v -132.292969 -156.323669 -76.477295

v -127.788696 -158.420898 -77.077209

v -84.014191 -133.860336 -76.867538

v -114.241165 -151.911591 -74.969696

v -120.599518 -157.109314 -75.125114

v -97.732315 -144.525558 -76.543030

v -91.340172 -142.917404 -76.752502

v -168.570404 -87.898041 -76.026123

v -158.434036 -83.406929 -74.976234

v -180.532288 -101.802040 -74.792267

v -136.881989 -81.036148 -75.587021

v -170.198959 -111.922379 -74.193695

v -119.428215 -87.240738 -75.540054

v -156.443939 -120.734741 -76.129547

v -102.709152 -92.950760 -74.662552

v -143.000122 -128.890015 -75.500977

v -87.836243 -102.000565 -74.433441

v -84.213188 -103.431839 -75.369530

v -135.953735 -145.986160 -75.574844

v -83.313202 -125.695694 -75.026093

v -107.876083 -146.139008 -73.980957

v -87.856895 -139.214386 -74.276886

v -175.527725 -87.735123 -73.375717

v -163.425186 -83.426346 -73.101929

v -151.322449 -80.234070 -73.456230

v -145.270233 -78.898415 -71.957870

v -174.686432 -104.891594 -73.708138

v -126.530106 -83.254143 -71.838303

v -163.342834 -117.214119 -70.338379

v -115.592972 -86.616302 -72.769226

v -107.305084 -89.601738 -73.168579

v -150.236893 -125.740845 -74.409912

v -98.397301 -94.603310 -73.665215

v -143.334839 -133.462372 -74.519958

v -139.797028 -145.472351 -74.483246

v -81.126984 -116.420288 -73.305817

v -137.311432 -151.580261 -73.746216

v -85.435318 -130.792206 -73.840256

v -136.226944 -159.400833 -69.277924

v -130.761978 -159.058044 -72.272461

v -123.586090 -159.532349 -68.528694

v -100.067451 -144.407440 -72.332642

v -118.956696 -154.521469 -71.767075

v -93.637024 -142.929901 -72.706726

v -168.890305 -80.261948 -72.663589

v -180.453308 -87.681366 -72.841766

v -180.592621 -86.021820 -72.029694

v -183.419174 -89.630501 -71.054024

v -162.314728 -77.403320 -72.199699

v -183.419342 -95.360977 -70.646561

v -153.784821 -77.842896 -71.847946

v -177.595612 -104.338272 -70.074585

v -181.159683 -100.892830 -70.061600

v -137.865082 -80.446869 -71.485107

v -171.350861 -110.444977 -70.278442

v -155.754089 -123.453369 -70.460205

v -102.424004 -93.256210 -71.036453

v -148.932861 -131.452148 -69.734375

v -91.472672 -100.438446 -71.151566

v -142.483215 -141.076447 -71.677734

v -85.217224 -110.051392 -71.278259

v -81.461685 -117.639610 -69.180969

v -81.246750 -122.331779 -70.238876

v -84.299774 -127.628845 -71.260727

v -85.613754 -133.902725 -71.173576

v -106.163246 -145.820831 -71.527130

v -111.622635 -149.537720 -71.310059

v -88.042450 -141.366425 -71.341019

v -175.215637 -82.289154 -67.958023

v -177.550842 -87.093994 -67.346436

v -167.105133 -78.584404 -68.035416

v -161.270203 -77.479126 -67.998222

v -154.087372 -77.938980 -67.824455

v -139.337997 -81.639069 -68.015594

v -134.188766 -84.770302 -68.711945

v -129.844299 -86.741692 -69.091393

v -124.574608 -88.663528 -70.048157

v -121.020203 -87.089203 -70.921356

v -168.830597 -115.699371 -67.548157

v -116.321327 -93.541443 -68.611389

v -109.307037 -90.867615 -70.940659

v -110.681671 -95.147217 -70.771233

v -96.747818 -102.677399 -70.756744

v -107.308098 -101.143066 -68.200226

v -146.005264 -136.349365 -68.069824

v -95.095093 -106.841400 -69.022827

v -141.243652 -145.788818 -67.568787

v -82.663391 -121.830475 -68.958954

v -79.734398 -126.584816 -70.335655

v -128.963776 -161.471008 -69.125877

v -80.573730 -135.632477 -70.806038

v -102.404152 -150.567657 -70.460114

v -108.836304 -152.640137 -67.970505

v -95.259949 -146.313965 -70.558990

v -83.287415 -140.427002 -69.042358

v -78.263046 -136.739288 -69.195625

v -179.238510 -94.418442 -68.163536

v -177.041962 -101.537010 -66.433228

v -174.242020 -108.659973 -66.167885

v -161.260330 -122.338623 -68.143524

v -154.515381 -128.411530 -68.149628

v -98.183456 -112.313232 -68.523071

v -94.270844 -114.655807 -68.881287

v -137.672577 -157.211670 -64.887329

v -78.235985 -128.600464 -68.036873

v -75.323982 -132.846069 -68.101967

v -115.450119 -155.784546 -68.139076

v -73.181320 -136.872406 -68.601494

v -88.329590 -144.761658 -67.326172

v -93.723633 -147.598969 -66.742828

v -80.819733 -144.176575 -67.295013

v -74.325424 -142.078461 -66.156097

v -170.960388 -75.135818 -64.700531

v -164.944763 -73.802750 -66.565048

v -159.667938 -73.272987 -66.694122

v -155.439484 -73.407944 -66.603920

v -143.766418 -76.625549 -66.441025

v -135.264618 -79.706100 -65.337936

v -126.657104 -86.959412 -63.905914

v -121.208099 -91.064636 -64.025269

v -163.127625 -120.878876 -64.475708

v -157.280273 -127.763184 -63.431885

v -112.009468 -98.227020 -62.445770

v -152.875000 -133.439514 -63.538574

v -102.080986 -108.574364 -65.636353

v -96.762489 -113.221794 -62.953964

v -93.615982 -118.753311 -64.979439

v -88.517342 -121.932304 -65.247742

v -83.514801 -125.971069 -66.018005

v -79.123657 -130.818924 -64.961899

v -129.592621 -158.429230 -66.156860

v -120.371384 -155.804245 -65.170288

v -113.139717 -154.080109 -62.657585

v -104.582603 -150.481003 -64.714073

v -163.212463 -73.355011 -63.641182

v -174.680389 -79.480942 -63.819324

v -178.155136 -83.601952 -64.353081

v -153.851471 -73.799911 -63.872482

v -178.542175 -86.858093 -63.597534

v -178.349838 -89.780602 -63.128845

v -179.114822 -93.672836 -64.433212

v -143.946960 -76.370911 -63.966339

v -138.484467 -79.826904 -63.480225

v -172.271301 -109.268440 -62.884705

v -130.313965 -84.658569 -63.928223

v -167.329712 -117.686127 -60.338623

v -105.684036 -103.979599 -62.244400

v -144.867676 -144.609924 -64.702393

v -84.425240 -123.769821 -62.971359

v -79.915222 -127.436226 -62.744263

v -131.023788 -157.469055 -61.276886

v -123.001282 -155.819153 -62.638977

v -72.630074 -136.156799 -63.730087

v -94.812820 -149.137070 -62.131882

v -87.018066 -147.256653 -64.126648

v -80.861176 -147.457458 -62.256775

v -74.594986 -144.157562 -61.101379

v -171.288605 -78.970520 -63.029617

v -173.814880 -81.821991 -60.205696

v -161.362671 -78.038574 -63.001625

v -152.719086 -77.895203 -63.030174

v -152.190628 -79.100784 -61.165718

v -176.702271 -94.907913 -61.905365

v -146.538284 -78.458252 -62.151733

v -132.410034 -87.789734 -58.618530

v -164.239014 -124.718750 -58.871094

v -118.150642 -96.507141 -60.096832

v -101.511002 -107.933876 -62.152390

v -146.455109 -144.036133 -62.505676

v -93.002045 -116.097183 -61.719482

v -89.399178 -119.136963 -62.323357

v -141.789429 -152.709839 -61.622437

v -139.815048 -155.958832 -59.462036

v -73.556236 -130.681381 -62.425014

v -106.601334 -153.110138 -61.710831

v -70.690567 -134.545837 -62.095810

v -83.905212 -150.873932 -61.362717

v -168.017212 -81.836334 -59.086121

v -175.835968 -86.301697 -58.987652

v -177.666260 -89.147743 -58.597702

v -155.918427 -78.829506 -58.838795

v -176.847595 -93.939758 -57.549500

v -176.924255 -97.750053 -58.602127

v -140.837219 -83.712280 -57.369385

v -125.634094 -91.796150 -58.231018

v -112.919449 -102.094864 -60.152466

v -108.418037 -105.220367 -60.060730

v -102.878181 -109.107414 -59.907715

v -149.548218 -146.890488 -60.069641

v -155.246674 -140.395538 -58.727295

v -97.901344 -113.437714 -59.127762

v -91.239403 -119.525177 -59.128796

v -87.094917 -122.944084 -59.315372

v -142.674072 -156.805847 -55.884766

v -83.080559 -125.533730 -58.996254

v -77.598366 -127.998199 -57.340958

v -108.905518 -158.520752 -59.410645

v -103.815109 -156.092285 -61.221680

v -70.088890 -135.821991 -59.268322

v -81.095917 -153.585907 -59.551758

v -155.733154 -79.147560 -56.075981

v -146.715134 -80.945251 -56.096130

v -174.340698 -106.136444 -55.444763

v -172.908569 -112.744461 -54.761841

v -135.861572 -159.415161 -57.867188

v -122.003448 -160.349243 -58.073425

v -74.018524 -129.971466 -56.701675

v -72.134766 -143.694016 -59.385971

v -99.469971 -160.486816 -56.671387

v -86.761719 -156.779297 -58.454590

v -60.349373 -143.875610 -59.058754

v -61.800659 -150.171478 -59.297771

v -70.954147 -157.639252 -59.335411

v -63.296799 -154.356079 -58.560715

v -165.248077 -82.252319 -56.474213

v -172.854736 -87.798141 -55.753632

v -138.632523 -86.276184 -50.646240

v -123.367920 -94.922028 -47.206726

v -117.034569 -97.718292 -52.719910

v -163.278381 -128.602661 -54.927734

v -108.247955 -105.576225 -52.616821

v -153.643768 -142.607605 -54.952576

v -89.157318 -118.033844 -54.010948

v -83.954887 -122.048141 -54.917297

v -129.721039 -163.010498 -57.390259

v -137.959595 -161.967529 -55.825623

v -119.367432 -164.865723 -56.059448

v -67.532333 -133.978516 -56.089622

v -127.872940 -165.435760 -55.881599

v -108.748657 -161.642090 -56.001709

v -61.498848 -139.420853 -55.553802

v -86.012390 -160.534546 -57.060730

v -58.500519 -146.900711 -54.438606

v -78.004211 -161.484100 -56.509247

v -71.071228 -160.003159 -55.549133

v -61.365944 -154.399551 -54.309998

v -163.469421 -84.458313 -54.477524

v -155.756531 -82.288055 -54.571472

v -148.380005 -82.743591 -54.187134

v -176.129395 -102.190964 -53.325531

v -130.868744 -90.077972 -48.084106

v -112.965675 -101.646034 -52.365692

v -100.783661 -110.155151 -54.579254

v -96.556030 -113.190552 -53.858215

v -146.190918 -154.755646 -53.650024

v -93.022499 -115.709839 -54.354637

v -130.599335 -170.551147 -55.710495

v -136.177887 -169.572327 -54.047729

v -73.372925 -133.400208 -50.671448

v -127.643539 -173.334839 -53.903656

v -95.413544 -166.479370 -53.608276

v -110.689896 -165.059509 -53.833279

v -86.080368 -162.758789 -55.272644

v -92.493195 -165.026001 -55.023804

v -172.548248 -91.168755 -51.480293

v -162.471359 -85.540665 -51.769726

v -176.191605 -109.361710 -52.795959

v -174.194153 -117.065796 -49.467773

v -168.509766 -127.684326 -50.227051

v -163.575928 -138.069824 -49.228760

v -94.252808 -116.239990 -51.248169

v -85.126099 -122.747925 -51.560059

v -140.762115 -167.503174 -53.104950

v -78.810364 -127.312500 -52.205322

v -133.686798 -177.390076 -53.462341

v -65.340050 -139.363480 -49.859089

v -130.312057 -181.082001 -53.731373

v -114.816010 -175.264191 -53.784927

v -105.627136 -171.716629 -53.703285

v -122.076324 -182.220703 -53.461502

v -60.352982 -145.046036 -49.891937

v -126.182617 -184.342804 -52.890488

v -88.008118 -164.578857 -52.273071

v -80.607391 -164.445572 -49.244202

v -59.695499 -150.694397 -50.862564

v -77.174713 -162.939438 -48.705967

v -67.466835 -157.648163 -48.670975

v -159.163055 -84.707703 -48.714249

v -175.641876 -94.576485 -48.879723

v -176.494766 -97.569893 -49.005646

v -148.285477 -84.630127 -49.276550

v -177.129501 -102.051666 -49.001755

v -176.837402 -106.429596 -48.173767

v -104.545715 -110.254211 -48.372070

v -159.601929 -143.020935 -49.189209

v -101.863434 -113.568863 -47.146851

v -156.755737 -148.213928 -47.177734

v -148.862000 -153.483337 -50.868896

v -145.273071 -162.492737 -49.676758

v -135.387421 -175.415802 -48.749451

v -132.544998 -177.828445 -49.436798

v -109.411987 -176.476868 -50.524780

v -101.102173 -172.802734 -50.315308

v -123.442902 -185.438782 -50.329742

v -92.362251 -171.100800 -48.796814

v -165.175018 -85.885719 -48.516022

v -173.542343 -91.649376 -48.859447

v -175.684570 -113.933731 -44.952225

v -118.951591 -98.978592 -44.516327

v -110.191544 -106.358612 -44.828125

v -150.711960 -155.821259 -48.816376

v -94.724716 -120.335175 -47.979370

v -84.082977 -127.828690 -46.475037

v -89.163651 -124.390396 -46.544434

v -143.103836 -167.561447 -43.784363

v -77.906403 -131.226639 -46.677551

v -61.251698 -144.833588 -48.093338

v -105.466438 -177.628296 -49.120064

v -117.256783 -185.236725 -49.337532

v -63.465302 -151.344604 -47.469635

v -99.295631 -174.355530 -49.022102

v -167.139709 -90.631531 -47.718796

v -157.811676 -88.396271 -46.279160

v -173.331940 -96.285614 -46.763626

v -149.613373 -88.890137 -46.237579

v -175.334137 -107.046295 -44.809883

v -143.466675 -87.235748 -46.548340

v -175.178680 -121.360275 -45.559601

v -175.873688 -117.176865 -44.832947

v -167.759094 -133.237900 -47.028015

v -161.849609 -141.798584 -46.777588

v -154.248154 -152.645554 -45.453491

v -67.847389 -134.839554 -42.953033

v -131.485580 -182.835938 -44.155811

v -127.162323 -185.786789 -43.394547

v -122.729691 -186.767227 -45.736938

v -70.088287 -155.337097 -45.706787

v -103.927521 -175.232208 -47.185532

v -114.272598 -181.955673 -46.909592

v -76.722176 -157.603485 -45.146484

v -84.194031 -164.225159 -45.004822

v -164.261520 -91.967743 -46.017044

v -168.727051 -97.431755 -44.286968

v -150.060425 -91.528595 -45.781158

v -163.433365 -94.822632 -44.212387

v -147.739319 -93.628174 -44.167084

v -138.691483 -91.309433 -44.158318

v -126.608688 -95.250259 -44.145958

v -173.030060 -128.862488 -45.269012

v -114.745880 -103.723846 -44.305084

v -165.111328 -144.475586 -41.609131

v -106.127136 -111.713745 -42.665222

v -100.355301 -116.046143 -43.087372

v -80.792778 -129.192474 -42.279541

v -140.038910 -172.157013 -43.278687

v -60.777809 -138.477676 -43.688931

v -135.054184 -178.657806 -43.445732

v -59.589462 -146.188751 -43.855621

v -98.821068 -172.600525 -44.675964

v -106.667534 -177.507034 -43.069286

v -118.221848 -184.713440 -43.010071

v -162.589111 -100.241196 -44.100822

v -168.381302 -105.389633 -42.691566

v -159.001556 -102.338699 -42.328209

v -170.354782 -111.051590 -42.263996

v -147.969818 -97.676270 -43.972404

v -139.999405 -99.303040 -42.202446

v -135.637497 -96.948868 -43.964375

v -173.451004 -123.745132 -40.829895

v -125.033615 -101.179962 -43.892212

v -126.317474 -104.253296 -41.869751

v -117.841904 -107.286621 -41.963379

v -163.500122 -145.687378 -43.267700

v -154.313873 -152.274902 -41.602661

v -95.512993 -120.082260 -43.184875

v -151.828949 -156.161621 -38.174805

v -87.075500 -125.424164 -42.658508

v -146.531250 -163.775757 -38.053345

v -61.733246 -144.810715 -40.238464

v -70.359703 -150.675858 -40.296009

v -73.740585 -153.707458 -41.205811

v -80.698715 -158.016220 -42.081528

v -90.356407 -164.626373 -42.452198

v -101.545578 -171.886887 -42.932407

v -158.731247 -107.697021 -42.185772

v -167.501007 -112.590302 -40.581177

v -171.815948 -121.278030 -40.035297

v -138.274796 -103.843704 -42.102356

v -150.084442 -108.260208 -42.077408

v -142.164398 -110.147186 -39.416748

v -134.499573 -105.566437 -40.418976

v -173.385696 -128.124969 -39.740662

v -172.261353 -133.275757 -40.136963

v -113.321472 -113.882431 -39.382935

v -161.755127 -149.509277 -39.217773

v -104.311768 -116.029785 -41.280273

v -95.615234 -123.032288 -40.496948

v -140.695984 -170.251221 -39.142944

v -73.519318 -133.871979 -40.170898

v -134.345718 -177.216370 -39.624298

v -67.542007 -136.329117 -40.282150

v -129.288895 -180.795166 -40.957458

v -94.998772 -163.932755 -41.828243

v -86.024925 -158.382080 -41.902653

v -92.010117 -157.778351 -39.614868

v -107.524071 -172.757187 -40.589836

v -122.013580 -182.858368 -41.630356

v -112.753311 -174.952728 -39.827385

v -115.790710 -179.834702 -41.628395

v -158.497742 -112.241516 -39.665344

v -165.649979 -115.319809 -39.972809

v -152.001633 -111.477783 -39.364990

v -127.792534 -108.857178 -40.025940

v -130.775192 -109.890335 -39.191795

v -168.917114 -144.216095 -38.027954

v -107.386047 -116.650452 -39.035034

v -100.986450 -120.786957 -39.188843

v -78.515381 -133.781006 -35.006348

v -70.358887 -142.492157 -39.886448

v -105.288979 -164.609924 -39.962009

v -97.425522 -160.597336 -39.775501

v -109.528877 -168.919662 -39.951168

v -127.497360 -183.115936 -38.187500

v -83.678619 -155.122437 -35.195557

v -122.722290 -182.366226 -34.793671

v -78.891785 -153.772736 -36.368706

v -156.590347 -112.794281 -37.480896

v -168.065353 -121.291092 -34.331944

v -148.157745 -112.212433 -35.749298

v -171.801773 -126.102264 -34.462524

v -140.160767 -110.243996 -34.931915

v -174.386353 -135.292191 -37.451202

v -122.583862 -111.647888 -35.083923

v -167.805176 -148.349487 -33.405273

v -104.819534 -119.708130 -35.285645

v -93.489258 -127.016876 -33.502579

v -96.759628 -124.986404 -34.740494

v -74.255310 -140.128876 -35.711670

v -71.955841 -148.868835 -36.910683

v -96.282623 -156.586334 -35.674500

v -102.406540 -157.603943 -34.021088

v -90.331650 -156.517151 -36.611694

v -113.318779 -172.189377 -35.420738

v -117.559883 -176.756165 -34.630867

v -158.585800 -116.124847 -34.561829

v -175.744873 -131.633667 -33.222107

v -130.827774 -110.026253 -35.167618

v -115.423859 -114.974457 -34.389557

v -157.497375 -158.749512 -33.896240

v -84.529366 -131.480927 -32.777893

v -143.903503 -170.443726 -33.475281

v -138.420654 -180.013794 -32.139038

v -76.205414 -148.185394 -35.662533

v -107.092453 -161.418839 -32.777954

v -131.142731 -184.099121 -33.686707

v -125.062164 -185.217865 -33.871277

v -162.015457 -117.059067 -32.083221

v -148.748108 -115.479294 -33.203667

v -142.457138 -114.675873 -34.144539

v -174.744141 -138.561935 -32.772583

v -136.549011 -115.229370 -33.769413

v -131.222397 -114.148499 -33.860611

v -123.986824 -114.045158 -33.333801

v -150.044922 -165.226929 -33.507813

v -77.206970 -148.308212 -30.950985

v -93.259171 -153.982452 -31.009674

v -170.781540 -119.060188 -31.438786

v -175.464752 -124.899063 -31.685760

v -152.408066 -115.696144 -28.162334

v -144.896240 -114.378975 -28.094070

v -138.903854 -114.638901 -27.754669

v -133.897461 -114.240837 -29.468857

v -128.125534 -113.960785 -29.385124

v -121.356483 -114.030777 -29.572800

v -110.786560 -116.993484 -29.394226

v -167.923889 -151.520569 -29.153809

v -159.229004 -159.714462 -30.449219

v -150.744629 -170.023209 -30.095093

v -144.595764 -175.271103 -31.295044

v -83.008896 -135.141602 -26.813789

v -79.487274 -139.611969 -28.611206

v -76.373482 -142.774078 -30.641754

v -100.142456 -155.310638 -30.577057

v -85.674797 -153.671204 -30.909668

v -136.777618 -183.689789 -31.089920

v -130.282990 -188.783539 -31.992371

v -115.788071 -175.854309 -32.043190

v -119.786285 -183.301178 -31.654972

v -122.986130 -189.540665 -30.806198

v -165.899963 -115.412292 -28.825378

v -176.506805 -123.500031 -27.354156

v -177.587708 -133.971313 -29.726074

v -177.994629 -138.996536 -28.581421

v -173.814087 -146.210449 -28.560303

v -104.146103 -121.318268 -26.832253

v -96.891701 -123.072578 -27.924252

v -157.777222 -164.541840 -28.089844

v -91.790512 -126.751595 -27.020180

v -86.442223 -130.941986 -27.300117

v -97.329491 -151.477295 -28.209076

v -84.167183 -148.115433 -30.221674

v -130.418549 -188.583130 -29.742004

v -117.247612 -178.946213 -26.507622

v -120.050896 -185.361832 -27.946575

v -170.947571 -116.254219 -26.360291

v -182.000977 -132.236542 -24.415039

v -128.072266 -117.737793 -27.401855

v -115.234192 -118.191071 -26.903618

v -164.445007 -158.301987 -27.982391

v -147.234741 -174.446594 -25.513794

v -86.702942 -141.579132 -26.655800

v -89.001884 -145.781647 -28.058495

v -141.353195 -179.378479 -26.028198

v -103.880173 -157.054245 -22.196030

v -108.525032 -163.056793 -21.367706

v -112.714493 -169.130081 -24.186687

v -116.242012 -174.667328 -24.026806

v -133.998306 -183.293610 -26.979530

v -124.380173 -186.648346 -27.833221

v -175.517685 -118.861946 -25.825104

v -159.747665 -114.998512 -23.780663

v -181.179291 -125.871582 -22.557983

v -147.503448 -117.650818 -23.672302

v -140.664154 -119.360535 -25.006775

v -181.260925 -137.808533 -24.164551

v -112.448776 -125.020615 -26.668697

v -122.495392 -124.290100 -24.899734

v -174.492279 -149.741974 -22.499512

v -169.948425 -153.516113 -24.996338

v -100.547409 -131.321091 -26.658665

v -105.322182 -131.764633 -24.868656

v -163.252686 -160.867523 -22.219360

v -157.195892 -166.372421 -22.324829

v -90.143898 -135.848053 -26.652119

v -152.686218 -170.784317 -22.745605

v -93.342468 -136.753540 -24.845863

v -89.499992 -142.680557 -24.877567

v -95.149109 -147.954941 -24.897057

v -99.908508 -152.882431 -21.694805

v -126.102432 -185.339722 -24.770805

v -120.575966 -183.777679 -25.763056

v -168.683563 -116.299072 -23.303925

v -173.485626 -117.925781 -20.622345

v -177.402222 -120.532486 -21.663338

v -132.874756 -126.315865 -24.526604

v -123.937378 -131.311676 -24.535362

v -112.759094 -134.283722 -24.807171

v -169.959106 -156.323181 -21.270752

v -110.424576 -136.739746 -24.017303

v -99.403366 -140.463852 -24.710701

v -141.493896 -183.668579 -22.594482

v -133.477386 -186.728851 -24.170044

v -126.094269 -177.275330 -20.968430

v -160.326645 -118.816345 -22.408417

v -152.081528 -120.468895 -21.305729

v -142.316223 -122.773209 -21.739258

v -181.886475 -138.922668 -18.301453

v -130.373932 -128.770874 -16.602722

v -120.679230 -133.142334 -20.031158

v -111.899788 -136.503906 -20.052902

v -104.197449 -142.043945 -20.469116

v -96.858765 -147.944672 -21.359535

v -147.475159 -179.729294 -21.456360

v -150.975281 -176.278122 -20.255768

v -119.801498 -171.858551 -21.419952

v -136.007553 -186.699203 -20.331680

v -130.805450 -186.367188 -22.098724

v -181.121567 -118.357819 -18.420206

v -182.500977 -122.280701 -20.309937

v -164.089615 -118.669510 -20.025726

v -185.346283 -128.539246 -18.192108

v -155.087250 -118.425995 -16.748260

v -185.584335 -131.980225 -16.843536

v -175.211792 -150.817627 -18.533447

v -137.308319 -125.465851 -16.345001

v -162.982666 -163.826477 -18.981689

v -155.810028 -171.498856 -20.255096

v -101.803833 -149.385742 -20.628183

v -104.663414 -149.227875 -18.861893

v -113.737503 -160.191513 -21.018375

v -113.593231 -155.723053 -19.268562

v -104.611809 -155.908203 -21.151031

v -122.019608 -164.730209 -19.226280

v -123.175400 -169.342407 -20.970482

v -143.627487 -183.173126 -20.313324

v -129.232239 -182.316376 -19.831421

v -173.915222 -115.144318 -18.260101

v -165.685440 -115.498131 -16.371185

v -184.661804 -124.392792 -16.393364

v -142.692993 -123.168671 -15.895477

v -175.550827 -154.525116 -15.965942

v -172.192322 -158.679565 -13.810547

v -121.191101 -134.597702 -18.028259

v -167.164001 -162.336365 -14.437988

v -112.961029 -139.689087 -18.296936

v -108.885727 -143.731430 -16.801941

v -103.299011 -145.816895 -17.591370

v -114.754791 -151.503510 -18.916920

v -120.889687 -157.660080 -19.041950

v -124.385269 -156.476379 -16.525711

v -148.150391 -176.911621 -13.005905

v -125.110672 -167.113098 -17.468525

v -143.158203 -181.352478 -17.517822

v -127.855736 -173.214325 -17.526913

v -137.324066 -183.150330 -17.098877

v -173.827454 -114.760941 -15.889259

v -181.525131 -118.883408 -16.150690

v -183.968994 -138.926208 -16.291504

v -180.471252 -146.637299 -15.355133

v -119.307922 -133.240555 -14.516235

v -119.644012 -135.634338 -16.084747

v -113.629562 -139.637665 -16.183167

v -110.408157 -141.757904 -14.007878

v -110.339401 -146.910278 -16.531006

v -122.970703 -152.049194 -13.137695

v -155.577484 -171.865814 -13.491699

v -129.394104 -163.908447 -17.119507

v -132.393127 -170.018433 -17.043385

v -133.098831 -177.861206 -16.778976

v -180.858109 -123.070511 -14.175949

v -171.116440 -117.638794 -15.216949

v -174.958374 -119.982758 -13.796503

v -183.915039 -127.594902 -13.811845

v -168.717072 -118.427582 -14.623306

v -159.702957 -118.355164 -14.085075

v -146.614410 -120.343903 -12.942291

v -137.102905 -128.068695 -14.530151

v -130.355347 -131.193954 -14.087669

v -113.618256 -136.312408 -14.297935

v -163.083405 -167.556458 -10.865601

v -129.299301 -154.810913 -13.068069

v -131.506683 -163.710754 -14.031929

v -133.768005 -171.749985 -14.395813

v -140.181229 -179.901215 -12.142380

v -134.045135 -177.736206 -14.350281

v -136.977966 -180.611420 -12.421238

v -184.072845 -124.982361 -10.192774

v -169.732239 -117.719337 -10.529178

v -164.500092 -118.083031 -11.476364

v -186.082458 -130.573914 -10.328312

v -161.385086 -117.676033 -9.782457

v -185.385345 -137.125153 -9.924881

v -155.264923 -117.785309 -10.208214

v -148.589035 -122.308685 -9.521759

v -142.420776 -125.432465 -8.368820

v -136.884277 -126.784775 -8.925941

v -134.156403 -129.947327 -12.103851

v -122.910141 -131.549042 -8.208015

v -110.744568 -142.992798 -8.399002

v -136.612671 -158.801697 -9.630650

v -134.854706 -164.038025 -12.977051

v -137.367554 -174.189941 -11.723999

v -178.079544 -119.718979 -10.242315

v -179.297043 -148.986664 -8.122725

v -173.501083 -159.005859 -6.265198

v -130.181976 -129.908890 -8.453842

v -117.464729 -133.915894 -5.799362

v -170.616486 -162.123474 -9.732117

v -167.817307 -166.442535 -9.065002

v -121.012833 -146.539917 -8.048706

v -139.118591 -171.240509 -9.737488

v -151.922058 -178.461761 -10.544067

v -148.927505 -177.654922 -9.435984

v -144.326797 -179.571976 -10.110088

v -173.419312 -120.596161 -9.640257

v -182.479706 -130.801346 -9.615316

v -169.637054 -125.535484 -9.561924

v -171.227371 -128.758850 -7.855450

v -182.060669 -134.753601 -7.878220

v -161.117340 -126.989655 -7.854996

v -150.910019 -125.080017 -7.860306

v -111.789429 -138.111618 -7.703949

v -163.389893 -170.630402 -8.864624

v -130.017914 -151.844589 -6.510605

v -158.018585 -172.780106 -7.882431

v -147.932404 -164.402008 -7.332916

v -147.475052 -172.119110 -9.645409

v -142.024475 -162.920319 -9.537287

v -154.762390 -175.842163 -8.122654

v -176.466309 -135.175262 -7.387260

v -180.714432 -141.814941 -7.419487

v -164.046661 -131.365845 -7.410866

v -177.799133 -138.164520 -5.609725

v -158.017624 -130.015167 -7.247963

v -148.290787 -128.435532 -7.142502

v -140.234360 -129.225693 -6.638641

v -130.409821 -133.105347 -6.713470

v -123.134499 -133.545929 -5.488617

v -167.423798 -166.322388 -5.738281

v -114.026367 -137.362579 -4.087633

v -163.552124 -167.965912 -4.135452

v -125.629105 -144.545990 -4.198669

v -138.061768 -153.573944 -5.440826

v -144.300156 -159.790619 -7.064713

v -150.724060 -169.363541 -7.617149

v -168.773651 -134.914597 -4.354927

v -180.765381 -143.272400 -3.916199

v -163.400772 -132.864685 -4.274796

v -151.157562 -129.877884 -4.355347

v -142.904358 -129.488068 -2.073990

v -133.027359 -131.016983 -2.722443

v -132.251572 -133.434372 -3.839531

v -127.760620 -134.960114 -3.847792

v -146.921097 -158.499405 -3.986997

v -136.231567 -149.153625 -3.840069

v -150.434204 -164.026199 -4.180229

v -157.756119 -170.977081 -4.576675

v -153.398590 -168.203125 -4.085706

v -170.239853 -134.232361 -0.667852

v -154.908157 -129.935440 -0.848888

v -161.957977 -131.932678 -0.520462

v -145.729889 -129.676575 -0.151424

v -137.084335 -128.846680 -2.424458

v -141.056473 -141.619003 -3.769186

v -119.547142 -135.210648 -3.705231

v -145.457565 -143.384781 -1.992013

v -147.955887 -151.254654 -3.809585

v -170.264114 -161.856400 -1.144531

v -151.983307 -152.722595 -2.094482

v -154.871353 -163.652054 -3.793774

v -157.164307 -162.739075 -2.118607

v -167.084824 -162.582245 -0.167549

v -180.292786 -139.473709 -1.075941

v -181.009384 -146.197113 -0.438957

v -175.858673 -155.686432 -1.200104

v -147.419891 -139.248627 -1.818505

v -136.301865 -132.614441 -1.899961

v -155.444427 -148.592789 -1.863417

v -150.616211 -139.229767 -0.036685

v -161.076508 -157.312637 -0.147449

v -160.898712 -163.821991 -1.805700

v -178.936096 -140.108078 -0.163503

v -167.476349 -134.902481 -0.038858

v -154.569778 -131.311951 -0.040277

v -173.325592 -155.980911 -0.134369

v -157.820145 -146.714279 -0.073523

f 1 2 3
f 3 2 4
f 5 2 1
f 4 2 6
f 5 7 8
f 5 6 2
f 5 8 9
f 9 6 5
f 8 10 9
f 10 11 9
f 9 12 6
f 11 10 13
f 14 6 12
f 13 15 11
f 15 16 11
f 9 11 16
f 17 14 12
f 9 16 18
f 9 19 12
f 20 17 12
f 18 21 9
f 19 9 21
f 20 12 19
f 22 3 23
f 1 3 24
f 23 3 4
f 1 7 5
f 4 25 23
f 25 4 26
f 6 26 4
f 7 27 8
f 27 28 8
f 26 29 25
f 29 30 25
f 10 8 28
f 26 6 14
f 26 31 29
f 32 31 26
f 28 33 10
f 32 26 14
f 31 32 34
f 32 14 34
f 13 10 33
f 35 31 34
f 33 36 13
f 37 35 34
f 34 14 37
f 37 14 17
f 21 38 19
f 39 40 41
f 39 42 43
f 39 43 40
f 40 22 44
f 43 22 40
f 22 43 24
f 24 43 45
f 22 24 3
f 45 1 24
f 22 46 47
f 43 48 45
f 46 22 23
f 1 45 7
f 49 50 48
f 7 45 27
f 27 45 48
f 48 50 51
f 46 23 25
f 51 27 48
f 52 46 25
f 30 52 25
f 27 51 53
f 54 52 30
f 55 53 51
f 30 56 54
f 27 53 28
f 53 55 57
f 57 58 53
f 56 30 35
f 29 35 30
f 31 35 29
f 28 53 58
f 58 33 28
f 35 59 56
f 33 58 36
f 35 60 59
f 13 36 15
f 61 15 36
f 35 37 60
f 60 62 59
f 18 16 61
f 63 38 18
f 21 18 38
f 37 17 64
f 38 20 19
f 17 20 64
f 65 66 67
f 41 66 42
f 67 66 41
f 67 68 69
f 41 42 39
f 41 44 67
f 70 42 71
f 68 67 44
f 44 41 40
f 68 44 47
f 72 68 47
f 73 74 70
f 74 42 70
f 74 43 42
f 22 47 44
f 73 75 49
f 73 49 74
f 72 47 76
f 43 74 48
f 49 48 74
f 76 47 46
f 77 49 75
f 77 50 49
f 46 78 76
f 78 46 52
f 51 50 55
f 54 56 79
f 56 80 79
f 56 81 80
f 57 82 58
f 56 59 81
f 36 58 82
f 81 59 62
f 16 15 61
f 18 61 63
f 60 83 62
f 60 37 83
f 37 64 83
f 20 38 84
f 84 64 20
f 85 86 87
f 85 65 86
f 65 85 88
f 65 69 86
f 65 88 66
f 69 89 86
f 69 65 67
f 88 42 66
f 88 85 71
f 88 71 42
f 68 90 69
f 71 91 70
f 89 69 90
f 92 89 90
f 91 73 70
f 90 68 72
f 93 73 91
f 72 94 90
f 75 73 93
f 93 95 75
f 75 95 96
f 97 72 76
f 75 96 77
f 97 76 78
f 96 98 77
f 50 77 98
f 99 78 52
f 55 50 98
f 99 52 54
f 99 54 79
f 80 99 79
f 100 80 101
f 57 55 102
f 101 80 81
f 102 82 57
f 103 36 82
f 104 101 105
f 81 105 101
f 103 61 36
f 61 103 63
f 62 106 81
f 38 63 107
f 81 108 105
f 83 106 62
f 106 108 81
f 107 84 38
f 109 110 111
f 109 87 110
f 110 87 112
f 86 112 87
f 109 113 114
f 89 112 86
f 114 87 109
f 112 92 115
f 87 114 71
f 115 92 116
f 71 85 87
f 92 112 89
f 117 115 116
f 114 118 119
f 71 114 91
f 114 119 91
f 92 120 116
f 91 119 93
f 92 90 94
f 120 92 94
f 95 93 119
f 120 94 121
f 121 94 72
f 78 122 97
f 122 78 99
f 99 123 122
f 123 99 80
f 80 124 123
f 124 80 100
f 101 125 100
f 101 126 125
f 126 101 104
f 126 104 127
f 63 103 128
f 128 107 63
f 129 84 107
f 129 64 84
f 64 129 130
f 130 83 64
f 108 131 105
f 83 132 106
f 108 106 133
f 108 133 131
f 134 135 113
f 111 134 113
f 113 109 111
f 135 136 113
f 137 136 138
f 112 139 110
f 115 140 139
f 139 112 115
f 137 118 136
f 113 136 118
f 118 114 113
f 115 117 140
f 137 141 118
f 116 142 117
f 118 141 143
f 119 118 143
f 120 144 116
f 142 116 144
f 145 119 143
f 120 146 144
f 95 119 145
f 146 120 121
f 147 121 72
f 148 96 95
f 147 72 97
f 147 97 149
f 150 151 149
f 122 149 97
f 122 150 149
f 152 150 122
f 123 153 152
f 122 123 152
f 123 124 153
f 154 102 55
f 155 100 125
f 156 82 102
f 103 82 156
f 157 103 156
f 128 103 157
f 107 128 158
f 158 129 107
f 127 104 159
f 159 104 105
f 160 132 83
f 159 105 131
f 132 133 106
f 111 161 134
f 162 111 110
f 163 135 134
f 110 139 162
f 163 136 135
f 163 138 136
f 164 165 166
f 167 137 138
f 165 139 140
f 165 140 166
f 137 167 168
f 140 117 166
f 117 169 166
f 141 137 168
f 170 141 168
f 117 171 169
f 142 171 117
f 171 142 172
f 173 141 170
f 173 143 141
f 172 142 144
f 144 174 172
f 145 143 173
f 175 144 146
f 144 175 174
f 95 145 148
f 146 121 151
f 121 147 151
f 96 148 176
f 147 149 151
f 177 151 150
f 98 96 176
f 150 152 178
f 152 153 178
f 55 98 154
f 179 124 100
f 100 155 179
f 156 102 180
f 157 156 181
f 181 182 157
f 128 157 183
f 159 126 127
f 159 184 126
f 184 159 131
f 130 129 185
f 133 132 184
f 131 133 184
f 186 187 188
f 161 111 162
f 164 186 189
f 139 190 162
f 165 164 190
f 191 163 134
f 134 161 191
f 190 139 165
f 167 138 163
f 169 187 186
f 192 163 191
f 186 164 166
f 192 167 163
f 169 186 166
f 169 193 187
f 187 194 195
f 167 192 168
f 193 194 187
f 168 192 196
f 196 170 168
f 171 193 169
f 173 170 196
f 197 173 196
f 171 172 198
f 145 173 197
f 172 174 198
f 174 175 198
f 148 145 197
f 146 199 175
f 200 148 197
f 199 146 151
f 176 148 200
f 151 177 199
f 176 200 98
f 200 201 98
f 177 150 178
f 153 202 178
f 153 124 202
f 154 98 201
f 102 154 180
f 155 203 179
f 155 125 203
f 204 203 125
f 180 205 156
f 125 126 204
f 205 181 156
f 182 183 157
f 206 204 126
f 184 206 126
f 158 128 183
f 129 158 185
f 184 132 206
f 185 207 130
f 83 130 207
f 160 83 207
f 208 188 209
f 186 188 208
f 210 188 195
f 208 189 186
f 211 210 195
f 189 162 190
f 164 189 190
f 187 195 188
f 195 212 211
f 212 195 194
f 213 192 191
f 212 214 211
f 192 213 196
f 213 215 196
f 194 216 212
f 194 193 171
f 216 217 212
f 194 171 198
f 198 216 194
f 215 197 196
f 216 198 218
f 219 197 215
f 218 198 175
f 199 220 175
f 221 197 219
f 221 219 222
f 197 221 200
f 177 223 199
f 221 224 200
f 200 224 225
f 202 223 177
f 202 177 178
f 225 201 200
f 225 226 201
f 124 179 202
f 154 201 226
f 154 226 227
f 227 226 228
f 180 154 227
f 228 229 227
f 205 227 229
f 227 205 180
f 229 181 205
f 182 229 230
f 229 182 181
f 231 182 230
f 232 204 206
f 183 182 231
f 231 233 183
f 206 234 232
f 233 158 183
f 233 185 158
f 206 132 234
f 207 234 160
f 160 234 132
f 235 208 209
f 209 188 210
f 209 210 236
f 208 235 237
f 238 189 208
f 208 237 238
f 211 239 210
f 211 240 239
f 241 189 238
f 189 241 162
f 242 161 162
f 243 161 242
f 211 214 240
f 191 161 243
f 214 244 240
f 245 191 243
f 245 213 191
f 212 217 244
f 245 246 213
f 246 215 213
f 246 247 215
f 247 219 215
f 248 249 216
f 216 218 248
f 175 250 218
f 222 219 247
f 250 175 220
f 199 223 220
f 251 220 223
f 202 251 223
f 252 251 202
f 225 224 253
f 225 253 226
f 252 202 179
f 179 254 252
f 228 226 253
f 254 179 203
f 203 255 254
f 255 203 204
f 256 230 229
f 230 257 231
f 232 255 204
f 231 258 233
f 234 259 232
f 207 260 261
f 207 261 259
f 259 234 207
f 260 207 185
f 262 236 210
f 262 210 239
f 263 262 239
f 264 162 241
f 264 242 162
f 242 265 243
f 266 243 265
f 267 266 265
f 243 266 245
f 244 214 212
f 245 266 246
f 267 268 266
f 249 217 216
f 246 266 269
f 269 266 268
f 270 269 268
f 248 218 250
f 222 247 246
f 246 269 222
f 269 270 271
f 250 272 248
f 271 222 269
f 272 250 220
f 222 271 221
f 272 220 251
f 221 271 273
f 251 274 272
f 224 221 273
f 274 251 252
f 252 254 275
f 253 276 228
f 276 256 228
f 229 228 256
f 277 254 255
f 257 230 256
f 255 278 277
f 231 257 279
f 255 232 278
f 279 258 231
f 259 261 280
f 280 281 259
f 232 259 281
f 261 260 282
f 258 185 233
f 283 185 258
f 185 283 282
f 282 260 185
f 209 236 235
f 237 235 284
f 284 285 238
f 238 237 284
f 239 286 263
f 240 286 239
f 241 238 285
f 240 244 286
f 287 265 242
f 242 264 287
f 287 267 265
f 244 217 288
f 288 217 249
f 268 267 289
f 289 270 268
f 290 248 272
f 271 270 291
f 292 272 274
f 293 224 273
f 292 274 252
f 252 275 292
f 294 224 293
f 294 253 224
f 275 254 295
f 253 294 276
f 295 254 277
f 257 256 296
f 261 297 280
f 258 279 298
f 258 298 283
f 284 235 299
f 236 299 235
f 262 299 236
f 299 300 284
f 300 285 284
f 241 285 301
f 301 264 241
f 264 302 287
f 286 244 303
f 287 304 267
f 303 244 288
f 305 249 248
f 289 306 270
f 307 270 306
f 248 290 305
f 291 270 307
f 272 308 290
f 309 271 291
f 308 272 292
f 309 273 271
f 292 310 308
f 275 310 292
f 311 310 275
f 311 275 295
f 276 294 293
f 276 293 312
f 295 313 311
f 256 276 312
f 313 295 277
f 312 296 256
f 314 257 296
f 315 277 316
f 314 279 257
f 316 277 278
f 314 298 279
f 317 316 278
f 318 297 282
f 261 282 297
f 281 280 319
f 278 232 281
f 281 317 278
f 282 283 320
f 282 320 318
f 298 320 283
f 321 322 323
f 324 323 322
f 321 299 322
f 322 262 324
f 300 299 321
f 299 262 322
f 321 325 300
f 262 326 324
f 325 327 301
f 301 300 325
f 301 285 300
f 263 326 262
f 327 302 301
f 301 302 264
f 286 328 329
f 330 287 302
f 287 330 304
f 328 286 303
f 331 303 288
f 289 267 304
f 289 304 306
f 288 249 305
f 305 290 332
f 333 291 307
f 308 332 290
f 333 309 291
f 332 308 334
f 309 333 335
f 273 309 335
f 310 334 308
f 293 273 335
f 310 336 334
f 335 337 293
f 336 310 311
f 312 293 337
f 337 338 312
f 296 312 339
f 339 340 296
f 277 315 313
f 314 296 340
f 340 341 314
f 342 343 297
f 280 297 343
f 298 314 341
f 341 344 298
f 343 319 280
f 297 318 342
f 319 317 281
f 345 321 323
f 323 346 345
f 323 324 346
f 321 347 325
f 325 348 327
f 327 349 302
f 329 326 263
f 263 286 329
f 302 350 330
f 351 330 350
f 328 303 331
f 330 351 304
f 352 304 351
f 353 304 352
f 353 354 304
f 288 355 331
f 304 354 306
f 288 305 355
f 356 354 353
f 306 354 357
f 306 357 307
f 357 354 358
f 333 307 357
f 356 358 354
f 358 333 357
f 359 333 358
f 359 358 360
f 333 359 335
f 361 334 336
f 359 362 337
f 337 335 359
f 362 338 337
f 311 363 336
f 338 364 312
f 364 339 312
f 340 339 365
f 315 316 366
f 365 367 340
f 341 340 367
f 316 317 366
f 343 342 368
f 369 319 343
f 342 318 370
f 370 368 342
f 367 371 341
f 344 341 371
f 320 370 318
f 372 371 367
f 320 298 344
f 344 370 320
f 321 345 347
f 347 348 325
f 373 346 324
f 348 349 327
f 373 324 326
f 326 329 373
f 302 349 350
f 373 329 374
f 329 328 374
f 375 328 331
f 305 376 355
f 376 305 332
f 360 358 356
f 332 377 376
f 332 334 377
f 362 359 360
f 360 378 362
f 378 379 362
f 336 363 361
f 362 379 338
f 364 338 379
f 363 311 313
f 313 315 380
f 365 339 381
f 381 372 365
f 372 381 382
f 365 372 367
f 383 317 319
f 369 383 319
f 343 368 369
f 372 382 384
f 370 344 385
f 385 386 370
f 368 370 386
f 372 387 371
f 371 385 344
f 384 387 372
f 388 387 384
f 389 390 347
f 347 390 391
f 347 345 389
f 392 348 391
f 348 347 391
f 349 348 392
f 393 349 392
f 349 393 350
f 350 393 394
f 374 328 375
f 350 394 351
f 355 375 331
f 395 353 352
f 356 353 396
f 355 376 397
f 376 398 397
f 399 360 356
f 398 376 377
f 334 400 377
f 361 400 334
f 401 378 360
f 401 402 378
f 378 402 403
f 403 379 378
f 379 403 364
f 403 404 364
f 380 363 313
f 404 405 364
f 364 405 339
f 381 339 405
f 406 381 405
f 366 407 315
f 382 381 406
f 317 407 366
f 408 317 383
f 383 369 409
f 410 369 368
f 368 386 410
f 387 385 371
f 390 389 411
f 345 412 389
f 391 390 411
f 345 413 412
f 391 411 414
f 413 345 346
f 346 415 413
f 414 392 391
f 346 416 415
f 416 346 373
f 373 417 416
f 393 392 414
f 393 414 418
f 417 373 374
f 393 418 419
f 419 394 393
f 374 375 420
f 394 421 351
f 421 352 351
f 375 355 420
f 395 352 421
f 395 396 353
f 422 355 397
f 356 396 399
f 398 377 400
f 401 360 423
f 361 424 400
f 424 361 363
f 424 363 380
f 405 404 425
f 425 426 405
f 406 405 426
f 427 380 315
f 315 407 427
f 428 317 408
f 317 428 407
f 409 408 383
f 369 410 409
f 406 429 382
f 410 386 430
f 384 382 429
f 386 431 430
f 431 386 385
f 429 388 384
f 431 385 387
f 387 432 431
f 433 432 388
f 387 388 432
f 434 411 389
f 434 389 412
f 412 435 434
f 412 413 435
f 436 411 434
f 437 411 436
f 411 437 414
f 436 438 437
f 439 416 417
f 414 437 418
f 437 440 418
f 439 417 374
f 418 440 419
f 441 394 419
f 394 441 421
f 355 422 420
f 442 422 397
f 399 396 443
f 442 397 398
f 399 423 360
f 423 444 401
f 401 444 402
f 424 445 400
f 402 446 403
f 403 446 447
f 424 448 445
f 447 404 403
f 448 424 380
f 380 449 448
f 404 447 425
f 449 380 427
f 428 427 407
f 409 428 408
f 450 429 426
f 406 426 429
f 409 410 451
f 452 429 450
f 430 431 453
f 453 431 432
f 454 434 435
f 413 455 435
f 415 455 413
f 434 454 436
f 456 415 416
f 457 438 436
f 458 416 439
f 438 440 437
f 439 374 459
f 460 419 440
f 421 441 395
f 461 396 395
f 443 396 461
f 462 399 443
f 462 463 399
f 399 463 423
f 444 423 463
f 463 464 444
f 400 465 466
f 464 467 444
f 444 467 402
f 465 400 445
f 446 402 467
f 445 448 465
f 446 468 447
f 469 447 468
f 470 448 449
f 425 447 469
f 471 425 469
f 425 471 426
f 471 472 426
f 426 472 450
f 451 473 409
f 428 409 473
f 473 451 474
f 430 451 410
f 451 430 474
f 429 452 475
f 474 430 453
f 388 429 475
f 475 433 388
f 432 433 476
f 476 453 432
f 435 455 454
f 415 456 455
f 477 457 436
f 416 458 456
f 439 459 458
f 460 440 478
f 374 479 459
f 479 374 420
f 441 419 460
f 420 480 479
f 480 420 422
f 461 395 441
f 442 398 466
f 466 398 400
f 467 468 446
f 448 470 465
f 449 427 481
f 427 482 481
f 482 427 428
f 472 483 450
f 483 475 450
f 473 482 428
f 452 450 475
f 475 484 433
f 485 473 474
f 453 486 474
f 486 485 474
f 476 486 453
f 433 484 476
f 487 488 475
f 484 475 488
f 484 489 476
f 488 489 484
f 486 476 489
f 489 488 490
f 454 455 491
f 492 455 456
f 454 491 436
f 455 492 491
f 491 477 436
f 477 438 457
f 438 477 478
f 478 440 438
f 493 441 460
f 443 461 494
f 495 462 443
f 442 466 496
f 464 463 497
f 466 465 498
f 499 469 468
f 499 500 469
f 500 471 469
f 470 449 481
f 472 471 500
f 501 502 481
f 482 501 481
f 501 482 503
f 504 475 483
f 503 505 501
f 473 503 482
f 503 473 506
f 506 473 485
f 487 475 504
f 507 487 504
f 485 486 508
f 507 509 487
f 508 486 510
f 509 488 487
f 489 510 486
f 511 510 489
f 490 488 512
f 489 490 511
f 492 513 491
f 491 513 477
f 456 458 492
f 513 514 477
f 477 514 478
f 514 515 478
f 459 516 458
f 478 515 460
f 479 516 459
f 441 493 517
f 461 441 517
f 480 422 442
f 442 496 480
f 462 495 518
f 463 462 518
f 466 498 496
f 497 519 464
f 519 467 464
f 520 467 519
f 465 521 498
f 520 522 467
f 467 522 468
f 468 522 499
f 521 465 470
f 481 502 470
f 502 501 505
f 502 523 524
f 505 523 502
f 504 483 525
f 523 505 503
f 503 526 523
f 506 485 527
f 527 528 506
f 485 508 529
f 530 527 485
f 485 529 530
f 508 510 529
f 488 509 512
f 490 512 511
f 531 513 492
f 513 532 514
f 492 458 531
f 460 515 493
f 533 516 479
f 533 479 480
f 494 461 517
f 534 480 496
f 496 535 534
f 495 443 494
f 496 536 535
f 518 497 463
f 536 496 498
f 520 537 522
f 522 537 499
f 500 499 538
f 470 539 521
f 502 539 470
f 538 540 500
f 472 500 540
f 539 502 524
f 483 472 540
f 540 525 483
f 539 524 541
f 524 523 526
f 525 542 504
f 526 541 524
f 503 506 528
f 526 503 528
f 541 526 543
f 504 542 507
f 526 528 544
f 545 544 528
f 544 543 526
f 545 528 527
f 544 546 543
f 507 547 509
f 546 548 543
f 530 529 549
f 549 527 530
f 550 549 529
f 550 529 510
f 509 551 512
f 511 552 510
f 512 553 511
f 532 513 531
f 554 514 532
f 531 458 555
f 556 555 458
f 557 515 514
f 514 554 557
f 516 556 458
f 558 556 516
f 515 557 493
f 516 533 559
f 534 533 480
f 497 560 519
f 498 561 536
f 562 519 560
f 520 519 562
f 563 498 564
f 564 498 521
f 537 538 499
f 521 565 564
f 565 521 539
f 566 539 541
f 567 566 541
f 541 543 567
f 542 547 507
f 568 546 544
f 545 527 569
f 545 568 544
f 568 570 546
f 570 548 546
f 569 568 545
f 571 569 527
f 571 527 549
f 547 551 509
f 510 552 550
f 551 553 512
f 532 531 572
f 573 572 531
f 572 554 532
f 531 555 573
f 516 559 558
f 534 574 533
f 575 518 495
f 497 518 576
f 576 560 497
f 498 563 561
f 537 520 562
f 564 577 563
f 537 578 538
f 577 564 565
f 579 538 580
f 540 538 579
f 539 581 565
f 525 540 582
f 539 566 581
f 543 548 567
f 551 547 583
f 569 584 568
f 585 570 568
f 583 586 551
f 587 584 569
f 584 585 568
f 571 587 569
f 550 571 549
f 553 552 511
f 588 572 573
f 589 572 588
f 572 589 554
f 590 573 555
f 555 556 590
f 590 556 558
f 557 554 591
f 554 589 591
f 590 558 592
f 557 591 593
f 493 557 593
f 592 559 533
f 493 593 517
f 533 574 592
f 534 594 595
f 594 534 535
f 535 596 594
f 495 494 575
f 596 535 536
f 536 597 596
f 597 536 561
f 561 563 597
f 537 562 578
f 598 563 577
f 578 580 538
f 579 582 540
f 525 599 542
f 567 600 566
f 548 600 567
f 583 547 542
f 570 601 600
f 600 548 570
f 602 601 570
f 570 585 602
f 553 586 603
f 604 584 587
f 604 605 584
f 605 585 584
f 551 586 553
f 553 606 552
f 607 550 552
f 588 590 608
f 590 588 573
f 588 608 589
f 609 608 590
f 590 592 609
f 610 589 608
f 608 611 610
f 589 610 591
f 612 610 611
f 592 558 559
f 591 610 593
f 613 593 610
f 610 612 613
f 593 613 517
f 517 613 614
f 534 595 574
f 517 614 494
f 575 494 614
f 615 594 596
f 575 616 518
f 576 518 616
f 596 617 615
f 617 596 597
f 560 576 618
f 562 560 618
f 578 562 619
f 579 620 582
f 525 582 599
f 621 581 566
f 622 542 599
f 623 566 600
f 583 542 622
f 624 586 583
f 604 587 625
f 605 604 626
f 552 606 607
f 605 627 585
f 553 603 606
f 607 625 571
f 587 571 625
f 627 602 585
f 607 571 550
f 611 608 609
f 611 609 628
f 609 629 628
f 628 629 630
f 629 609 592
f 611 628 612
f 592 631 629
f 632 612 628
f 628 630 632
f 592 574 631
f 633 632 630
f 612 634 613
f 612 632 634
f 633 634 632
f 613 634 614
f 595 594 635
f 636 614 634
f 634 637 636
f 636 575 614
f 616 575 636
f 636 638 616
f 616 638 576
f 597 639 617
f 639 597 563
f 618 619 562
f 598 640 563
f 619 641 578
f 640 598 577
f 577 642 640
f 643 578 641
f 643 580 578
f 644 577 565
f 643 579 580
f 620 579 643
f 565 581 644
f 566 623 621
f 583 622 645
f 624 583 645
f 646 586 624
f 646 603 586
f 647 606 603
f 647 648 606
f 603 646 647
f 607 606 648
f 625 649 650
f 625 650 626
f 604 625 626
f 627 601 602
f 649 625 607
f 626 627 605
f 629 651 630
f 651 629 631
f 651 633 630
f 631 652 651
f 653 631 574
f 574 595 653
f 595 635 653
f 654 633 655
f 655 633 651
f 637 634 633
f 633 654 637
f 635 594 615
f 656 654 655
f 654 656 657
f 635 615 658
f 637 654 657
f 659 658 615
f 638 636 637
f 659 615 617
f 618 576 638
f 660 618 638
f 639 661 617
f 662 618 660
f 639 563 661
f 619 618 662
f 563 640 661
f 619 662 641
f 663 641 662
f 641 663 643
f 577 644 642
f 581 621 664
f 582 620 665
f 665 599 582
f 666 664 621
f 621 623 666
f 599 665 667
f 622 599 667
f 667 645 622
f 600 666 623
f 668 666 600
f 669 670 671
f 668 600 601
f 669 649 670
f 672 650 669
f 670 649 648
f 601 673 668
f 645 646 624
f 650 649 669
f 674 675 672
f 649 607 648
f 627 673 601
f 675 626 672
f 675 673 627
f 626 650 672
f 675 627 626
f 653 652 631
f 651 652 676
f 677 652 653
f 652 677 676
f 655 651 676
f 678 655 676
f 655 678 656
f 657 656 679
f 680 679 656
f 657 679 637
f 680 660 679
f 660 638 637
f 660 637 679
f 617 661 681
f 682 662 660
f 682 683 662
f 642 661 640
f 662 683 663
f 581 664 644
f 620 684 665
f 667 665 685
f 645 667 685
f 685 646 645
f 686 672 687
f 672 686 688
f 669 671 687
f 673 689 668
f 648 690 670
f 687 672 669
f 672 688 674
f 673 691 689
f 648 647 692
f 675 691 673
f 676 677 693
f 653 694 677
f 693 678 676
f 678 693 695
f 694 653 696
f 696 653 635
f 656 678 695
f 635 658 696
f 695 697 656
f 680 656 697
f 658 659 698
f 659 681 698
f 681 659 617
f 660 680 699
f 661 700 681
f 683 682 701
f 702 663 703
f 663 702 643
f 685 665 704
f 704 705 685
f 706 707 687
f 707 686 687
f 706 687 671
f 708 706 671
f 666 668 689
f 646 685 705
f 708 671 670
f 674 688 709
f 670 690 708
f 710 674 709
f 647 646 705
f 692 690 648
f 647 705 692
f 675 674 710
f 711 693 677
f 694 711 677
f 693 711 695
f 658 712 696
f 712 658 698
f 680 697 713
f 699 680 713
f 700 698 681
f 660 699 714
f 661 642 715
f 701 703 683
f 683 703 663
f 642 644 715
f 716 643 702
f 643 716 684
f 643 684 620
f 664 717 644
f 704 665 684
f 666 718 664
f 705 704 719
f 686 720 688
f 721 666 689
f 719 692 705
f 689 722 721
f 675 710 691
f 689 691 722
f 711 694 723
f 724 695 711
f 725 697 695
f 695 724 725
f 726 712 698
f 727 697 725
f 728 713 697
f 697 727 728
f 726 698 700
f 699 713 728
f 728 729 699
f 699 729 714
f 660 714 682
f 682 714 701
f 700 661 715
f 644 730 715
f 644 717 730
f 717 664 718
f 686 707 720
f 704 731 719
f 732 706 708
f 718 666 721
f 720 709 688
f 692 719 731
f 690 692 731
f 733 723 694
f 733 696 734
f 733 694 696
f 723 735 711
f 734 696 712
f 735 724 711
f 725 724 736
f 736 737 725
f 727 725 737
f 727 738 728
f 729 728 739
f 714 729 740
f 740 741 714
f 701 714 741
f 715 742 700
f 743 715 730
f 744 730 745
f 745 730 717
f 684 716 746
f 717 718 745
f 746 747 684
f 684 748 704
f 748 684 747
f 749 707 706
f 720 707 749
f 706 732 749
f 748 731 704
f 708 750 732
f 721 751 718
f 690 750 708
f 690 731 750
f 721 752 751
f 753 710 709
f 754 710 753
f 754 691 710
f 754 722 691
f 722 752 721
f 754 755 722
f 752 722 755
f 733 756 723
f 734 757 733
f 757 734 712
f 712 758 757
f 758 712 726
f 727 737 738
f 726 759 758
f 739 728 738
f 726 760 759
f 740 729 739
f 760 726 700
f 700 742 760
f 701 741 761
f 742 715 743
f 761 762 701
f 762 703 701
f 762 702 703
f 730 763 743
f 730 744 763
f 764 716 702
f 765 746 716
f 766 749 732
f 767 732 750
f 731 748 767
f 767 750 731
f 751 752 768
f 753 769 754
f 768 752 755
f 770 755 754
f 733 771 756
f 733 757 771
f 723 756 735
f 758 772 757
f 724 735 736
f 772 758 759
f 738 737 773
f 738 773 739
f 739 773 740
f 774 740 773
f 740 774 741
f 775 742 743
f 775 743 763
f 762 764 702
f 716 764 765
f 776 744 745
f 777 778 747
f 767 747 778
f 745 718 779
f 732 778 766
f 748 747 767
f 778 732 767
f 720 749 780
f 781 782 720
f 751 779 718
f 709 720 782
f 782 783 709
f 753 709 783
f 751 768 784
f 769 753 783
f 768 785 784
f 754 769 770
f 755 770 785
f 755 785 768
f 771 757 786
f 787 735 756
f 772 788 757
f 789 736 735
f 737 736 789
f 790 737 789
f 759 791 772
f 791 759 760
f 773 737 790
f 792 774 773
f 793 792 773
f 794 760 742
f 742 795 794
f 741 774 761
f 774 792 761
f 795 742 775
f 764 762 761
f 796 792 797
f 763 798 775
f 792 796 761
f 763 799 798
f 800 764 761
f 800 761 796
f 763 801 799
f 801 763 744
f 800 796 802
f 764 800 765
f 746 765 800
f 744 776 801
f 746 800 777
f 776 745 779
f 747 746 777
f 777 803 778
f 804 778 803
f 766 778 804
f 804 805 766
f 766 780 749
f 780 781 720
f 779 751 784
f 806 784 785
f 807 770 769
f 807 806 785
f 807 785 770
f 808 756 771
f 786 809 771
f 810 809 786
f 786 757 810
f 808 787 756
f 787 789 735
f 794 791 760
f 793 773 790
f 790 811 793
f 811 812 793
f 793 797 792
f 812 813 793
f 793 813 797
f 814 775 798
f 813 812 815
f 816 797 813
f 802 796 797
f 816 813 815
f 816 802 797
f 777 800 802
f 802 803 777
f 803 802 816
f 804 803 816
f 779 817 776
f 766 805 780
f 784 817 779
f 817 784 818
f 806 818 784
f 806 783 819
f 807 783 806
f 783 807 769
f 771 809 808
f 810 757 788
f 808 820 787
f 787 820 789
f 820 821 789
f 822 789 821
f 789 822 790
f 791 794 823
f 790 822 811
f 795 814 794
f 824 812 811
f 814 795 775
f 825 826 812
f 815 812 826
f 815 827 816
f 816 827 828
f 816 828 804
f 829 830 776
f 829 776 817
f 805 804 828
f 831 782 781
f 783 782 831
f 817 818 832
f 831 819 783
f 833 832 818
f 818 806 833
f 834 810 835
f 810 788 835
f 809 836 808
f 788 837 835
f 820 808 836
f 772 837 788
f 836 838 820
f 839 772 791
f 821 820 838
f 794 840 823
f 822 841 811
f 824 811 841
f 824 825 812
f 842 798 799
f 799 843 842
f 815 826 827
f 843 799 801
f 843 801 830
f 830 801 776
f 828 827 844
f 845 846 844
f 846 845 847
f 844 805 828
f 844 846 848
f 844 848 805
f 846 781 848
f 780 805 848
f 849 850 846
f 829 817 851
f 848 781 780
f 781 846 850
f 850 831 781
f 831 850 819
f 832 851 817
f 806 819 852
f 833 806 852
f 833 852 832
f 853 810 834
f 810 853 809
f 854 836 853
f 809 853 836
f 835 837 855
f 839 837 772
f 854 838 836
f 791 823 839
f 821 856 822
f 856 841 822
f 840 794 814
f 814 857 840
f 814 858 857
f 859 825 824
f 860 858 814
f 814 798 860
f 860 798 842
f 825 859 861
f 861 826 825
f 827 826 861
f 861 862 827
f 827 862 863
f 844 827 863
f 845 844 863
f 845 864 847
f 847 864 865
f 849 865 866
f 847 865 849
f 829 867 830
f 846 847 849
f 849 868 850
f 829 851 869
f 850 868 819
f 870 819 868
f 819 870 852
f 869 851 871
f 851 832 871
f 871 832 852
f 872 853 834
f 834 873 872
f 834 835 873
f 855 873 835
f 854 853 872
f 823 874 839
f 823 875 874
f 875 823 840
f 840 857 875
f 859 824 876
f 861 859 877
f 877 878 861
f 878 879 861
f 862 861 879
f 864 880 881
f 880 863 862
f 865 864 866
f 845 863 880
f 843 830 882
f 880 864 845
f 868 866 883
f 849 866 868
f 868 883 884
f 867 829 869
f 870 868 884
f 884 885 870
f 852 870 885
f 852 885 871
f 855 886 873
f 872 873 887
f 873 888 887
f 873 886 888
f 889 886 855
f 872 887 854
f 890 887 888
f 890 854 887
f 855 837 889
f 837 839 889
f 891 854 890
f 854 891 838
f 892 821 838
f 856 821 892
f 841 856 893
f 841 893 824
f 894 824 893
f 824 894 876
f 877 859 876
f 895 877 876
f 895 878 877
f 842 896 860
f 896 842 843
f 878 895 879
f 843 882 896
f 862 879 880
f 864 881 866
f 883 866 897
f 867 882 830
f 897 898 883
f 884 883 898
f 898 899 884
f 867 869 900
f 885 884 899
f 899 901 885
f 871 900 869
f 900 871 902
f 871 885 901
f 901 902 871
f 886 889 903
f 904 890 888
f 904 905 890
f 891 890 905
f 889 839 906
f 891 905 907
f 908 906 839
f 838 891 909
f 908 839 874
f 892 910 856
f 910 911 856
f 911 893 856
f 911 912 893
f 912 913 893
f 894 893 913
f 876 894 914
f 866 881 897
f 879 915 880
f 897 916 917
f 917 898 897
f 898 917 899
f 899 917 918
f 901 899 918
f 886 919 888
f 903 919 886
f 919 904 888
f 906 903 889
f 909 891 907
f 909 892 838
f 892 909 910
f 874 875 908
f 920 875 857
f 857 921 920
f 921 857 858
f 922 914 894
f 914 923 876
f 924 858 860
f 860 925 924
f 923 895 876
f 860 896 925
f 881 915 926
f 915 881 880
f 927 917 916
f 867 928 882
f 918 917 927
f 929 928 867
f 929 867 930
f 867 900 930
f 900 918 927
f 900 902 918
f 902 901 918
f 919 903 931
f 931 904 919
f 903 932 931
f 904 907 905
f 904 931 907
f 931 932 933
f 903 906 932
f 910 931 933
f 906 908 932
f 934 933 932
f 910 907 931
f 932 908 935
f 907 910 909
f 936 910 933
f 910 936 937
f 875 920 908
f 912 922 913
f 922 894 913
f 938 895 923
f 896 939 925
f 938 879 895
f 879 938 915
f 940 881 926
f 939 896 882
f 940 897 881
f 916 897 940
f 939 882 941
f 942 943 944
f 944 927 916
f 941 882 945
f 927 944 943
f 945 882 928
f 928 929 945
f 930 943 929
f 943 930 927
f 900 927 930
f 932 935 934
f 946 934 935
f 933 934 936
f 935 947 946
f 934 948 936
f 947 935 908
f 934 946 948
f 946 947 949
f 936 948 950
f 908 920 947
f 936 950 937
f 950 951 937
f 911 910 937
f 937 951 911
f 952 911 951
f 911 952 912
f 953 912 952
f 912 953 922
f 914 953 954
f 953 914 922
f 921 858 924
f 923 914 954
f 924 955 921
f 955 924 925
f 923 956 938
f 955 925 939
f 939 957 955
f 958 940 926
f 959 916 940
f 959 960 916
f 941 957 939
f 960 944 916
f 960 942 944
f 945 961 941
f 942 961 943
f 929 961 945
f 961 929 943
f 962 948 946
f 946 949 962
f 963 949 947
f 948 962 964
f 948 964 950
f 965 951 950
f 947 920 963
f 965 966 951
f 966 952 951
f 952 967 953
f 967 968 953
f 968 969 953
f 954 953 969
f 915 938 956
f 958 926 956
f 956 926 915
f 959 940 958
f 970 959 971
f 970 960 959
f 970 942 960
f 970 972 942
f 957 941 973
f 961 942 972
f 972 974 961
f 941 961 974
f 974 973 941
f 975 962 949
f 976 950 964
f 964 977 976
f 965 950 976
f 978 966 965
f 966 979 952
f 952 979 967
f 968 980 969
f 969 981 954
f 971 969 980
f 980 982 983
f 971 981 969
f 954 981 923
f 984 921 955
f 985 986 983
f 923 981 956
f 987 986 985
f 971 980 983
f 983 970 971
f 958 981 971
f 970 983 986
f 955 957 988
f 981 958 956
f 971 959 958
f 986 972 970
f 986 974 972
f 974 957 973
f 974 986 957
f 989 975 949
f 949 963 989
f 977 964 975
f 964 962 975
f 963 990 989
f 990 963 920
f 978 965 976
f 991 990 920
f 966 978 992
f 991 920 921
f 966 993 979
f 979 993 967
f 993 966 992
f 992 982 993
f 993 968 967
f 994 992 995
f 993 980 968
f 993 982 980
f 921 984 991
f 982 992 994
f 985 982 994
f 982 985 983
f 994 987 985
f 994 996 997
f 984 955 988
f 987 994 997
f 957 997 988
f 987 957 986
f 957 987 997
f 998 975 989
f 999 975 998
f 975 999 977
f 989 990 998
f 976 977 1000
f 999 998 990
f 999 1000 977
f 1001 999 990
f 976 1000 978
f 995 1000 999
f 995 978 1000
f 992 978 995
f 995 999 1002
f 1001 990 991
f 995 1002 994
f 991 984 1001
f 999 996 1002
f 994 1002 996
f 1001 988 999
f 1001 984 988
f 996 999 988
f 988 997 996
