v 148.323074 80.065918 -84.744682

v 134.148361 73.609962 -84.857407

v 137.552750 79.169464 -83.003571

v 130.753052 73.153320 -83.041870

v 138.936005 62.578018 -84.852898

v 155.589966 63.940712 -84.803192

v 145.966553 60.692787 -84.859238

v 160.430756 80.158569 -84.510765

v 165.795288 73.707199 -84.751709

v 164.689270 77.934891 -83.777863

v 166.980042 74.657349 -83.241638

v 167.081787 71.041382 -82.724579

v 146.061096 57.026825 -82.903893

v 162.100037 65.870117 -82.808960

v 125.369164 80.523331 -82.922890

v 133.660522 86.098511 -81.419250

v 133.871216 83.777222 -82.879150

v 144.355728 84.837097 -82.778061

v 143.414246 87.414673 -81.233887

v 123.299606 78.966743 -82.761932

v 124.752289 65.770348 -82.972588

v 119.451195 70.575348 -79.567230

v 146.210083 82.100464 -83.039230

v 154.568390 83.612671 -82.431335

v 130.555130 61.721153 -82.939301

v 162.676880 80.792984 -81.056091

v 137.035156 60.758118 -83.041138

v 167.962921 76.563507 -80.986305

v 132.558136 54.169540 -80.962959

v 136.053665 54.981438 -82.792747

v 141.336060 54.802277 -82.599762

v 164.973648 68.431534 -81.768211

v 150.495483 58.502701 -82.201752

v 156.732864 62.282227 -81.414268

v 138.670776 89.642212 -80.497314

v 127.085876 86.726440 -80.559326

v 134.232727 90.719604 -79.141060

v 125.464645 88.438736 -79.113510

v 122.188843 82.558723 -79.198738

v 144.450470 92.021881 -79.036285

v 120.787231 77.316452 -79.354393

v 147.990234 89.346680 -80.575562

v 158.705627 88.823929 -78.995514

v 158.520050 86.362244 -80.694397

v 120.087097 66.031570 -80.241127

v 124.570221 62.094330 -81.184296

v 121.918549 58.694550 -79.997025

v 124.409485 56.588821 -80.815109

v 171.257568 87.434631 -78.976532

v 171.178894 84.048157 -80.819931

v 173.404648 81.866432 -79.654510

v 171.189117 77.140518 -79.811508

v 168.057785 73.146622 -78.019928

v 164.866684 71.036087 -78.441132

v 160.109161 66.769951 -79.864403

v 138.635834 52.798271 -79.417770

v 150.757721 59.844391 -78.619316

v 146.974899 54.986046 -78.164459

v 143.309647 52.008495 -76.021866

v 138.339661 101.293213 -78.967033

v 128.011047 97.124664 -79.019211

v 136.147858 103.512787 -77.204926

v 117.537315 90.115234 -79.043396

v 123.772064 97.618164 -77.435150

v 152.567505 102.755051 -78.907593

v 152.360229 105.352234 -77.201385

v 117.040649 81.274994 -79.048950

v 114.851456 91.457825 -77.342239

v 113.594299 75.654800 -76.592255

v 116.234100 71.304924 -78.812126

v 168.084579 99.273483 -78.871071

v 117.857239 60.634598 -78.495689

v 174.600830 84.707031 -77.274536

v 124.085114 54.964550 -74.131042

v 126.856636 52.927135 -74.164581

v 171.674988 76.699036 -77.348267

v 131.851212 51.730728 -78.230942

v 160.601364 67.432976 -78.022377

v 157.430481 63.808578 -77.966888

v 136.504150 107.449249 -76.922363

v 117.052292 97.377289 -76.946732

v 112.426758 93.431030 -76.237648

v 111.193024 87.738136 -76.527939

v 148.509766 108.593628 -76.877014

v 114.752777 82.250366 -77.527069

v 111.953835 82.222549 -76.800323

v 153.246857 108.742798 -76.266479

v 169.493652 104.369019 -76.614990

v 170.462311 101.055817 -77.057007

v 114.432861 66.914146 -76.109329

v 176.310364 99.597229 -76.792610

v 117.604599 60.342342 -76.084320

v 176.500305 87.420441 -76.802155

v 121.499847 57.095764 -73.942627

v 179.516724 93.755066 -75.655212

v 181.842163 88.254272 -74.168365

v 175.715912 80.129883 -74.707535

v 129.576889 51.607029 -74.832794

v 165.349609 67.734100 -76.327423

v 135.306717 49.919380 -74.747322

v 162.375000 64.077789 -76.130692

v 138.926773 50.825802 -75.032921

v 152.392838 57.580841 -76.268204

v 148.874634 55.245338 -75.731514

v 129.735992 114.155121 -75.020653

v 134.548019 109.767578 -75.234543

v 124.662552 111.109375 -75.002884

v 121.007362 106.820206 -75.017082

v 117.422043 101.318741 -74.819260

v 147.816345 116.142151 -73.413971

v 147.669830 114.289429 -74.768372

v 115.221024 98.637154 -73.449783

v 146.828491 110.790100 -75.301575

v 112.474884 91.508171 -72.422516

v 111.530060 85.786987 -72.520142

v 110.916847 82.111732 -74.223717

v 111.717545 78.029099 -74.315956

v 158.710083 109.493591 -73.302536

v 167.632324 107.794342 -73.073608

v 112.143341 74.147934 -74.415451

v 169.410461 107.706055 -72.484375

v 178.313110 101.530655 -72.004883

v 180.791641 84.032204 -74.340027

v 174.151398 77.762909 -74.335800

v 171.727432 73.794983 -73.878510

v 167.819427 69.670105 -73.993706

v 162.674606 65.689636 -73.419571

v 151.475891 58.694092 -73.522133

v 131.139313 119.071045 -71.390137

v 131.902832 116.586426 -73.389771

v 124.948273 113.931641 -71.700439

v 121.729248 110.934433 -71.986115

v 145.180237 119.585083 -72.813477

v 135.590820 120.396179 -71.485168

v 119.970032 107.544067 -72.307495

v 116.030670 102.366257 -71.733810

v 156.092880 116.127655 -72.901764

v 114.332642 78.562805 -69.638603

v 113.560364 74.897217 -70.207947

v 113.211121 70.496552 -72.312012

v 118.776749 60.544403 -72.473633

v 181.296021 93.217712 -72.091736

v 183.007141 90.673645 -71.105713

v 130.170471 56.463135 -73.301376

v 121.946671 59.977539 -71.526611

v 180.404861 86.278122 -71.107216

v 132.540344 51.629272 -73.468163

v 176.267288 81.428413 -72.374405

v 145.376373 61.121399 -73.246696

v 149.299164 65.958069 -71.633461

v 137.586212 60.858459 -71.535034

v 172.451065 77.743874 -72.822617

v 157.281799 70.047974 -71.266449

v 155.107544 65.388397 -73.181427

v 169.142090 75.412598 -72.918266

v 163.947144 71.021851 -72.941650

v 130.767517 124.058350 -71.129074

v 123.028351 116.392426 -71.185196

v 122.603149 121.544159 -69.282227

v 119.975128 115.599014 -69.588081

v 143.353271 123.415283 -70.839233

v 146.094727 121.442627 -71.135498

v 114.724380 107.201981 -69.695999

v 156.365784 118.450195 -69.901611

v 114.829041 93.473167 -70.258102

v 114.925201 89.033691 -70.053040

v 165.086914 113.361725 -69.794434

v 116.177734 85.136215 -69.093384

v 171.755859 111.177368 -67.741699

v 176.597900 105.605835 -70.397461

v 117.294861 70.075256 -69.604622

v 116.591003 67.499176 -71.418427

v 183.476501 99.590851 -70.572998

v 125.615570 65.411621 -71.074890

v 125.144981 67.516510 -69.614365

v 126.079468 64.228882 -71.452484

v 140.769775 67.335297 -71.345261

v 141.311859 70.078796 -69.634964

v 174.066620 81.587486 -68.838104

v 166.899414 76.446960 -69.917419

v 156.976898 72.874695 -69.580460

v 130.702332 127.152344 -68.684814

v 138.694458 127.962158 -68.049561

v 115.466125 118.153015 -67.753387

v 115.214539 113.982025 -69.239716

v 112.301338 112.020805 -67.798111

v 114.385864 101.167587 -67.920776

v 149.119385 126.437012 -66.513916

v 113.885490 96.341614 -66.093697

v 162.096680 119.937256 -67.308594

v 121.873901 76.811348 -69.493492

v 121.351669 78.790634 -68.731049

v 177.117554 107.367096 -67.793518

v 131.931503 74.440979 -68.600418

v 183.706909 102.671997 -67.717529

v 132.925735 72.757568 -69.423874

v 140.931641 73.685364 -69.052734

v 186.232910 91.101372 -66.139038

v 186.922943 99.245178 -65.841064

v 148.859543 74.944214 -69.092598

v 156.288422 76.782028 -68.970215

v 181.160645 84.760422 -66.343025

v 169.380981 80.671158 -68.173813

v 163.210175 78.970467 -68.467072

v 114.641174 120.929077 -67.122681

v 119.522949 123.600708 -67.032837

v 125.791992 127.475098 -65.991577

v 131.561462 129.104004 -66.068848

v 110.924118 117.100540 -67.280258

v 108.502113 115.311722 -65.779434

v 110.140709 108.078056 -65.755478

v 114.957306 90.212044 -66.491226

v 116.967567 85.592285 -65.549683

v 171.906372 115.828369 -66.182739

v 179.865906 109.165405 -66.820618

v 122.170563 79.970459 -66.206787

v 127.279968 76.748962 -66.425507

v 136.157791 74.670471 -66.596466

v 186.632080 104.178444 -64.891968

v 141.901154 76.006203 -64.917160

v 147.559875 76.692978 -64.502625

v 152.316559 77.503212 -63.282131

v 158.199661 78.393501 -63.434937

v 175.777313 83.037552 -64.990417

v 124.885376 130.124207 -64.905701

v 117.836548 128.555237 -64.229797

v 102.711594 115.922638 -63.756920

v 107.456306 120.592438 -63.764709

v 105.312706 114.657188 -65.451736

v 134.715698 132.066895 -62.846924

v 106.493332 107.067291 -65.504463

v 105.365143 102.655762 -63.875393

v 110.826912 95.850891 -65.363647

v 105.168365 100.219246 -62.718750

v 157.314636 126.259277 -62.189941

v 112.393845 91.993088 -64.739410

v 174.882080 116.961914 -62.750977

v 123.086456 81.809357 -64.661438

v 181.338135 111.423096 -62.338379

v 130.617584 78.905121 -64.705719

v 188.873535 104.700195 -62.273926

v 191.570679 98.612259 -64.954254

v 188.068604 92.577232 -65.478134

v 191.971069 94.931847 -65.116196

v 163.062881 79.023247 -61.063007

v 189.974854 90.810638 -64.509727

v 179.705368 85.026833 -62.609650

v 116.985306 131.699280 -61.384583

v 108.922058 128.148560 -62.744080

v 99.566452 121.300034 -63.591576

v 100.197418 109.437622 -63.628246

v 96.506714 117.662598 -63.192108

v 121.653961 132.612305 -60.438232

v 97.467010 111.633850 -62.689625

v 100.807304 105.973122 -62.736317

v 143.542236 130.534790 -62.663086

v 109.253006 95.630722 -62.720245

v 165.000977 123.734619 -62.527100

v 115.235565 90.113068 -60.921326

v 130.229279 80.772583 -59.325989

v 131.827332 78.628082 -61.088806

v 142.792908 75.800323 -61.055038

v 193.982422 98.151703 -62.049316

v 169.325668 80.157608 -60.653084

v 192.792877 91.007828 -61.904747

v 173.922394 82.074089 -60.775711

v 186.530502 88.957031 -62.302101

v 98.708984 124.063721 -60.634277

v 94.329697 121.294647 -58.934113

v 101.029533 105.901611 -57.680695

v 110.697952 94.618683 -57.484444

v 163.939270 128.280273 -55.282715

v 122.157532 85.417542 -59.303833

v 180.496948 116.563721 -58.882690

v 188.427719 108.606079 -59.615601

v 194.407227 101.095062 -60.504028

v 146.439316 75.541786 -58.842781

v 158.671417 76.790283 -59.014740

v 198.264038 93.347168 -60.851563

v 197.438965 88.929550 -61.192413

v 184.624634 84.310204 -60.700592

v 190.891510 86.648178 -60.946716

v 104.095459 129.113708 -57.421875

v 109.525085 132.562866 -54.494141

v 92.935791 125.102631 -55.863525

v 95.149200 114.129288 -59.011780

v 125.259491 136.362732 -52.836548

v 140.888092 132.968506 -57.827148

v 105.609810 101.934242 -57.241161

v 154.862122 129.765198 -56.747314

v 173.111847 123.670715 -56.349121

v 127.213692 83.373642 -58.191177

v 135.909256 78.379837 -58.612595

v 151.786057 75.285812 -58.000591

v 165.248062 76.379860 -58.735516

v 201.540314 98.404770 -52.692627

v 174.834091 78.337158 -57.171593

v 179.381638 79.549210 -57.032890

v 202.541382 91.126831 -56.529663

v 189.623413 84.062103 -56.866730

v 184.528748 81.879044 -56.730518

v 195.523407 86.339279 -56.968876

v 200.996231 88.112518 -58.789703

v 115.401154 133.772034 -55.713867

v 91.129730 115.060455 -56.301559

v 89.208282 120.079926 -55.338490

v 94.065598 110.173294 -54.468578

v 97.646179 106.212830 -55.210052

v 153.170593 133.076141 -53.692505

v 114.473251 90.701241 -57.163483

v 119.243698 86.663818 -56.010437

v 123.247581 84.443069 -55.859680

v 128.296112 81.347008 -55.181702

v 133.087906 79.270729 -54.956367

v 139.365784 76.964523 -54.771362

v 146.035019 75.783432 -54.848145

v 158.257217 75.950600 -54.786888

v 162.126389 75.958694 -54.703094

v 170.029510 76.891602 -56.900047

v 201.869339 87.538612 -56.743935

v 97.461670 129.548584 -52.573242

v 135.080017 136.534012 -51.691040

v 142.682434 135.705444 -51.874146

v 101.664734 101.354218 -55.214310

v 158.669846 131.416641 -54.491577

v 105.760010 97.086433 -55.129036

v 109.574417 93.063904 -54.506119

v 113.960854 89.403534 -54.319595

v 190.670410 109.930359 -47.882813

v 196.568420 102.976044 -53.048950

v 165.499802 75.964096 -54.763199

v 166.924744 77.505630 -51.504730

v 204.043640 94.580353 -54.187927

v 174.775192 79.171410 -54.372112

v 190.602951 85.075180 -53.102837

v 206.768646 89.687965 -54.627121

v 203.688202 89.094223 -53.748756

v 198.686417 88.126167 -53.208336

v 88.692078 126.133179 -50.959717

v 88.259369 123.715500 -53.206089

v 88.586456 120.173157 -52.898407

v 111.290466 134.765869 -51.875488

v 90.738693 115.343170 -53.249023

v 117.124786 135.599976 -52.264160

v 100.366455 104.383667 -52.518799

v 105.103943 98.246338 -53.005371

v 162.855652 129.638275 -47.138657

v 169.828186 125.739655 -48.645386

v 178.863449 119.581848 -51.524414

v 119.121872 86.419838 -51.774231

v 123.964493 84.092987 -50.501343

v 154.809677 76.408562 -51.187469

v 171.001358 77.610809 -51.186760

v 180.093506 80.454895 -51.437622

v 185.335953 82.485161 -51.980701

v 102.325378 133.495056 -49.012817

v 90.111221 122.524292 -49.982742

v 94.474945 115.375809 -50.510437

v 98.089264 110.940186 -49.097168

v 107.227478 100.670502 -49.073151

v 111.667542 95.677612 -49.296814

v 118.102966 89.687836 -49.188232

v 127.844269 82.194000 -46.374023

v 140.645737 78.190567 -47.441582

v 144.903549 77.465042 -50.072876

v 149.669937 77.175873 -50.119232

v 197.973068 102.435135 -48.502563

v 160.626282 78.097488 -49.936523

v 175.894730 79.461937 -50.426300

v 206.247879 91.119843 -47.542603

v 192.028458 83.552773 -50.878731

v 199.107605 85.376953 -50.854446

v 206.880707 87.339188 -50.866318

v 89.204865 129.023163 -49.113892

v 94.271332 131.546356 -47.909058

v 116.366425 135.870132 -44.466309

v 127.365158 136.742218 -43.027832

v 139.012695 136.194427 -44.964600

v 102.789169 105.979691 -48.986847

v 154.276550 132.515640 -41.623840

v 187.419250 115.473328 -43.016602

v 132.335281 78.908920 -43.521790

v 154.341156 78.715042 -48.112682

v 165.239151 79.750420 -48.026009

v 170.254944 80.552643 -48.256954

v 178.657928 80.660255 -47.403545

v 183.626526 81.360146 -47.407322

v 197.580765 84.296173 -47.113098

v 202.433380 86.070244 -47.192070

v 86.123978 128.726044 -45.417221

v 95.013710 132.218140 -45.157227

v 86.962593 125.307159 -45.437798

v 107.460999 135.434052 -41.921021

v 99.550568 108.593994 -45.415527

v 104.516731 103.181656 -45.399994

v 109.835602 97.671921 -45.568985

v 115.343185 92.976410 -45.115204

v 179.680130 121.267555 -43.126740

v 123.916534 85.707062 -44.983643

v 135.863983 77.435455 -43.626320

v 147.916107 77.721069 -47.192245

v 158.652512 78.438065 -47.302143

v 174.313736 80.238930 -47.239151

v 202.560532 97.262878 -44.929810

v 191.448593 82.699371 -47.041759

v 207.408173 86.839249 -46.966217

v 88.887878 131.584106 -44.057068

v 90.823700 120.774338 -44.910797

v 94.879784 114.554047 -45.259796

v 118.975937 89.801102 -45.133698

v 193.590546 110.049225 -42.854126

v 141.658554 74.884682 -43.175323

v 147.552979 74.106094 -45.405323

v 152.398987 75.914383 -46.322479

v 165.016052 78.060715 -46.481205

v 154.449234 73.814743 -45.341038

v 160.520569 74.400543 -45.869984

v 166.756393 75.324654 -45.818214

v 175.064636 77.587799 -45.426178

v 205.231491 95.552856 -43.123535

v 188.115036 80.185150 -44.710999

v 198.728424 80.756508 -44.046722

v 204.644180 82.723755 -43.665482

v 210.242676 86.265114 -45.064819

v 207.775650 84.197792 -43.565971

v 87.010284 127.966858 -43.453491

v 99.920288 111.246399 -43.883057

v 103.797607 107.380127 -43.791443

v 108.525146 102.233765 -43.474792

v 112.809479 96.824219 -43.672607

v 166.941925 126.802887 -40.610275

v 127.738953 84.078003 -41.661377

v 198.947067 103.921814 -43.100586

v 149.931793 72.915146 -41.234917

v 154.375610 72.175232 -41.799736

v 159.740265 72.847473 -42.361450

v 169.242493 73.214783 -41.354336

v 175.078415 73.439240 -41.387726

v 178.754135 74.916451 -43.499710

v 183.920471 75.834572 -43.726425

v 208.718689 89.752167 -42.252502

v 190.943359 77.635284 -43.311050

v 210.560547 85.636375 -43.318085

v 90.790680 132.440720 -40.664677

v 87.003830 130.333740 -41.560440

v 97.440186 133.970230 -37.581497

v 89.851807 126.158676 -41.001770

v 112.156494 135.714462 -37.821011

v 108.166397 135.524902 -37.419357

v 94.588654 118.249115 -41.596619

v 118.702919 136.671021 -37.328751

v 100.732391 112.995300 -41.266968

v 105.196655 108.523560 -41.160400

v 143.157913 136.865234 -38.711487

v 110.476776 101.030426 -41.248352

v 116.535828 94.155365 -41.612061

v 122.562012 89.121643 -41.536987

v 140.463196 77.916534 -39.861816

v 196.722290 106.966766 -38.340576

v 201.599396 100.859131 -37.317871

v 160.469330 70.049194 -37.894226

v 208.048050 90.099106 -39.067886

v 181.231689 74.518188 -41.292297

v 185.268845 74.026955 -40.621140

v 191.991058 76.853775 -40.759682

v 200.190125 79.933746 -41.167847

v 205.120514 80.787628 -38.822639

v 92.641418 125.207336 -39.537537

v 103.195969 135.038544 -36.325233

v 114.650154 135.847885 -37.157166

v 97.848450 118.742188 -39.811890

v 136.646606 137.137573 -36.656006

v 104.621559 113.085144 -39.840973

v 110.456238 107.333176 -39.526474

v 114.041267 102.570053 -39.749725

v 119.660583 95.044037 -39.724274

v 176.254837 122.087181 -37.388168

v 125.828995 88.708397 -39.428726

v 131.161392 84.645752 -39.299492

v 135.687927 81.631935 -39.188839

v 188.179825 114.015045 -37.960999

v 145.382187 75.384369 -39.662415

v 155.718323 71.856537 -37.850967

v 205.821655 95.914543 -39.181274

v 163.207550 69.226379 -38.331970

v 175.260071 69.333443 -38.712711

v 207.714493 85.480194 -38.740967

v 185.311005 71.022942 -38.803177

v 195.219849 73.246948 -40.248764

v 192.222839 69.491653 -38.157074

v 92.004639 132.060867 -37.479744

v 93.425415 127.945343 -37.128510

v 96.403503 121.286133 -37.587708

v 101.771606 117.354980 -35.836121

v 105.967438 111.873001 -35.462410

v 109.597656 107.526619 -35.755234

v 158.442642 132.153915 -33.145638

v 114.778938 100.535568 -35.680695

v 119.401634 95.639069 -35.837585

v 124.496513 89.654579 -35.859161

v 139.052353 79.017975 -37.423462

v 147.018463 74.550110 -37.298401

v 208.559570 95.515381 -36.907837

v 168.962585 65.581596 -38.375072

v 211.467041 91.118187 -37.859924

v 211.809601 83.433121 -38.288300

v 215.269897 85.388550 -36.109009

v 181.443817 66.372757 -38.285587

v 211.491455 78.370239 -36.652222

v 204.391571 74.403259 -38.197235

v 198.881714 71.643005 -37.929169

v 97.203125 132.315369 -35.974388

v 107.992767 134.462494 -32.076050

v 97.663177 129.073044 -34.839882

v 97.807495 125.893860 -35.063873

v 124.083374 136.177261 -32.591675

v 132.945557 136.499023 -29.219849

v 168.247772 127.921509 -32.566711

v 127.559814 86.209198 -32.040833

v 190.594986 113.066002 -31.516968

v 136.545776 78.428169 -33.272430

v 150.376556 68.704376 -33.553391

v 158.408951 66.786865 -35.174805

v 213.424072 91.205200 -35.755493

v 168.631668 63.945053 -35.352509

v 173.864716 62.838150 -35.345566

v 179.261917 63.305588 -35.932877

v 192.199310 67.076202 -35.856705

v 185.257675 64.489815 -35.749874

v 215.807861 80.018311 -36.057495

v 200.138809 70.497040 -34.883347

v 205.310074 71.816467 -34.460602

v 213.007370 73.582886 -32.926270

v 102.858322 132.891098 -34.483707

v 102.365234 127.970612 -34.634075

v 104.444283 121.104645 -34.478203

v 108.931030 113.482178 -34.246918

v 142.320374 135.806152 -27.078247

v 117.523193 99.855011 -33.352997

v 118.960693 97.456604 -32.637489

v 176.762024 122.371689 -33.495178

v 122.595825 92.665878 -32.072571

v 131.156372 82.191101 -32.037231

v 143.771484 73.050743 -33.251358

v 202.320801 101.563721 -31.080566

v 166.123611 61.345505 -33.988091

v 161.435547 61.113647 -32.472839

v 170.162842 61.353939 -33.690479

v 218.876709 86.018616 -30.721680

v 178.135605 63.654964 -31.951984

v 182.350586 65.062431 -32.486866

v 187.091339 66.420631 -32.329819

v 219.096558 78.156158 -33.091858

v 104.026733 131.830002 -30.499939

v 112.121445 134.738190 -28.175293

v 116.989059 135.802551 -28.612823

v 104.978447 124.104271 -31.885376

v 123.744171 136.143600 -28.233887

v 109.433090 115.174713 -31.473389

v 111.814682 109.778229 -31.322926

v 196.359589 107.495834 -26.994141

v 145.281372 67.511215 -32.637741

v 210.210327 95.992126 -29.395996

v 191.888763 67.208801 -31.582993

v 221.434540 79.561584 -31.917908

v 197.666779 69.084511 -31.586361

v 203.549133 70.186584 -31.459328

v 208.586258 70.650917 -31.333393

v 221.698303 74.408142 -32.166885

v 215.945511 70.639557 -30.541794

v 105.438133 122.088097 -28.151291

v 110.416199 110.600266 -28.092804

v 166.163452 127.104980 -25.515625

v 120.080406 92.674843 -26.697453

v 128.564133 79.103333 -28.941833

v 130.924072 77.801453 -30.347961

v 137.990692 68.630188 -29.443268

v 149.385132 60.215767 -29.297279

v 161.525726 58.207123 -29.234840

v 168.578217 59.054474 -29.145388

v 180.009583 61.762726 -29.451607

v 187.274185 62.815102 -29.130020

v 202.612427 64.294739 -28.650803

v 206.673019 67.457153 -30.176559

v 223.367065 78.455383 -25.237732

v 222.438690 72.377213 -25.368011

v 105.704018 131.947510 -27.927307

v 104.490540 129.659058 -27.920258

v 119.792694 134.035049 -25.321808

v 108.248260 115.822571 -27.643555

v 155.795776 132.131531 -25.771484

v 116.324951 99.997772 -28.072235

v 177.688110 120.481445 -23.834229

v 130.458420 76.388840 -28.314636

v 137.522095 64.782295 -28.406761

v 140.474091 61.937447 -28.496593

v 208.847061 99.404663 -24.008713

v 148.058701 58.579910 -29.037956

v 145.689575 58.433422 -28.130600

v 153.397522 54.357460 -28.581917

v 168.190720 53.000450 -28.992268

v 160.298645 52.160461 -28.448273

v 178.539978 60.012901 -29.003630

v 188.245148 58.066666 -28.877106

v 165.390640 49.520088 -27.142151

v 185.413773 54.288113 -27.122646

v 195.908020 58.191620 -27.029720

v 206.978638 62.666752 -26.986012

v 220.018921 68.958176 -26.996765

v 214.704407 64.159073 -26.953808

v 110.810547 131.460556 -25.369198

v 107.570328 125.713760 -25.237156

v 129.238831 134.219803 -22.224731

v 114.319641 109.642212 -25.587616

v 118.465698 98.266418 -25.768982

v 129.409302 77.462067 -26.201950

v 137.452789 64.533096 -26.228241

v 143.161102 61.065720 -25.549744

v 146.632309 57.548912 -26.130814

v 150.567963 55.427784 -25.580189

v 153.137741 53.315769 -25.788311

v 216.114105 92.827301 -23.740479

v 158.608154 51.839657 -25.695587

v 162.632935 49.814991 -26.227064

v 222.894684 85.476044 -21.781647

v 165.713028 47.703209 -25.812881

v 169.188934 46.046795 -26.745756

v 182.000916 48.791824 -27.012653

v 201.163788 50.525486 -26.982512

v 221.888336 65.497688 -25.040085

v 215.203918 57.620129 -26.887695

v 198.677185 47.430855 -25.138739

v 212.241486 51.659973 -26.696991

v 212.327499 48.784935 -25.067593

v 217.813705 56.369949 -25.052952

v 116.746780 129.116455 -24.976967

v 115.644913 121.391953 -25.096466

v 110.246910 118.390656 -25.215843

v 120.966064 124.011261 -21.403503

v 137.460129 133.154831 -19.627975

v 125.733444 109.115601 -25.091164

v 144.005371 132.806641 -20.252930

v 116.338791 108.046997 -25.204617

v 129.574051 99.227081 -25.167305

v 128.618530 105.190430 -24.509094

v 119.515045 98.230453 -25.280083

v 131.520416 98.500710 -24.240067

v 128.540466 81.701004 -25.247658

v 132.275482 91.249214 -25.081764

v 189.590210 110.499023 -20.958496

v 134.686401 84.811630 -24.770996

v 137.850891 75.385330 -25.202049

v 138.151886 79.341995 -23.979980

v 137.902695 66.605103 -25.294090

v 140.217331 73.653618 -24.281876

v 141.352142 67.834000 -25.190460

v 145.176071 66.122795 -24.269379

v 148.063293 61.467651 -25.159843

v 150.040405 61.673126 -24.319626

v 153.415710 57.620483 -24.838684

v 157.006577 55.614159 -24.235474

v 161.186890 52.691780 -23.080135

v 226.914948 77.544556 -20.614380

v 167.292419 47.054852 -22.401054

v 173.667694 43.532654 -25.000145

v 183.421005 46.192997 -25.237331

v 227.638428 66.284126 -24.787033

v 188.908020 35.865810 -25.131702

v 226.871735 61.009815 -24.875656

v 223.919952 51.550095 -24.946442

v 202.831635 37.020916 -25.082790

v 229.573425 56.327362 -22.483459

v 200.443878 34.568535 -23.398247

v 220.391357 42.785202 -24.972038

v 214.581528 36.102715 -25.031937

v 221.627563 40.069321 -23.266281

v 122.939003 130.524033 -21.345873

v 125.443970 116.125687 -21.403564

v 129.032120 110.431412 -19.689346

v 158.930664 128.274353 -21.772949

v 170.366821 122.176636 -17.728027

v 133.175339 93.759766 -19.866760

v 134.781479 88.728821 -17.583244

v 135.513733 86.377335 -21.530762

v 141.461487 70.129654 -21.668274

v 144.773010 66.017044 -21.752960

v 148.252029 62.458225 -21.756180

v 152.175537 59.421051 -22.310104

v 156.865479 55.838303 -22.392593

v 218.914185 89.982666 -19.871826

v 164.893036 49.536419 -22.386093

v 165.900955 46.151863 -21.395103

v 171.432999 41.292480 -22.142944

v 229.086548 69.940338 -21.016876

v 180.103088 36.886383 -21.632469

v 230.588058 59.206150 -21.714191

v 189.104706 33.655273 -23.653809

v 187.783737 31.657515 -21.469360

v 193.079666 30.189819 -22.863113

v 225.566406 47.654617 -23.266045

v 230.072876 52.452343 -22.639351

v 200.978882 30.762321 -23.102898

v 229.319763 47.103420 -22.888481

v 230.883743 48.801643 -22.171082

v 201.539276 29.763302 -22.339180

v 229.918381 45.538635 -22.240139

v 228.635910 42.765511 -22.445442

v 206.856232 31.042786 -22.279083

v 226.660995 39.739044 -22.696945

v 218.335999 34.501801 -23.173828

v 216.986877 32.079727 -22.154419

v 212.558273 30.122833 -19.622437

v 221.507050 34.190250 -22.185455

v 130.665604 132.061188 -21.153957

v 129.904770 126.149796 -19.460403

v 126.049469 122.893913 -21.163620

v 147.273499 130.003906 -16.282654

v 128.224884 119.193726 -19.445816

v 130.293182 104.038132 -20.108765

v 160.892578 125.844604 -16.619629

v 131.469788 99.202660 -20.444534

v 176.117920 119.407104 -18.441895

v 182.687988 113.116211 -15.644531

v 138.388138 82.464439 -19.848457

v 138.260986 79.204010 -14.892883

v 199.166260 103.902100 -16.319336

v 147.298935 57.063084 -21.201111

v 153.049652 57.007980 -21.491205

v 214.768738 91.561279 -16.033691

v 150.814941 52.743332 -20.621826

v 155.302994 49.309570 -21.317574

v 168.877090 40.445801 -21.397198

v 159.914368 44.178589 -20.853455

v 171.032288 37.015961 -21.038757

v 175.481171 32.367855 -21.261677

v 183.739517 28.507378 -21.272301

v 178.188385 29.263474 -19.662117

v 228.955688 52.824799 -18.256836

v 188.252899 27.858406 -20.529020

v 227.095093 45.380157 -18.346802

v 201.446182 27.809929 -18.126945

v 225.964539 38.388977 -20.445679

v 220.593903 33.798634 -19.272888

v 134.784561 127.076271 -19.100292

v 139.817291 131.050537 -18.915688

v 132.678284 120.347290 -19.174736

v 132.809662 110.017967 -19.130600

v 134.065033 100.066101 -18.373901

v 206.987061 97.440964 -14.728027

v 140.174561 63.350388 -17.152710

v 140.021301 69.316895 -16.579956

v 143.618652 57.927917 -18.389404

v 152.245239 48.016815 -17.524170

v 156.015015 43.780445 -17.642212

v 165.836685 37.072334 -17.686792

v 172.179413 31.800703 -17.607323

v 186.208633 26.515020 -18.278111

v 191.576843 26.189182 -17.616356

v 195.904404 27.521702 -17.743366

v 224.472900 40.217102 -18.093506

v 206.874069 26.160187 -17.048889

v 138.745972 126.504608 -15.630285

v 135.518463 120.242630 -15.605137

v 135.259705 114.809692 -15.658562

v 135.311584 108.559921 -15.936218

v 190.696533 107.342773 -16.165039

v 139.730881 57.167206 -15.763863

v 148.777420 48.376904 -15.715223

v 221.195313 84.285889 -13.357910

v 162.253342 28.538265 -17.561855

v 156.513000 34.942570 -15.710561

v 226.472717 75.266602 -13.634766

v 176.725159 27.871849 -17.574627

v 170.366364 22.507170 -17.544079

v 168.198456 21.035889 -16.011948

v 184.127563 25.487350 -17.574858

v 176.335098 19.102142 -16.801132

v 182.415344 20.124828 -17.465038

v 197.410324 22.739578 -17.374870

v 202.707306 24.743942 -17.248905

v 191.879456 18.270264 -15.177673

v 216.277435 30.627522 -13.558807

v 144.583740 126.488129 -14.984365

v 140.921219 120.846481 -15.358948

v 152.029282 125.922195 -13.662704

v 144.093384 123.647186 -13.644676

v 140.780396 112.788300 -15.286037

v 144.018082 116.570175 -13.150650

v 156.276550 123.699097 -13.270935

v 137.287476 106.597710 -14.945175

v 167.601334 117.737747 -9.779205

v 134.897003 94.446930 -13.002075

v 173.766296 114.713440 -9.734589

v 135.847473 87.489075 -9.956947

v 135.022278 85.530952 -13.153061

v 193.214722 103.812988 -10.541870

v 137.354279 66.836655 -13.926514

v 136.514572 62.364937 -14.741867

v 136.231949 57.078243 -15.095734

v 134.949295 50.480659 -15.683363

v 134.589020 53.971565 -14.722828

v 133.269028 48.811081 -14.785614

v 137.650330 41.765369 -15.686081

v 142.307724 37.269577 -14.827835

v 139.204437 38.511009 -13.418015

v 147.580139 35.478584 -15.630418

v 160.294250 26.163637 -15.773962

v 150.384918 31.331421 -15.013489

v 159.435913 22.930603 -15.169952

v 226.691437 69.692017 -7.566895

v 228.369751 61.739594 -10.896973

v 165.166275 19.477737 -15.266754

v 224.192261 43.047180 -12.817383

v 182.172043 15.461607 -15.015369

v 189.354675 17.355347 -15.168915

v 196.051086 18.770660 -12.622437

v 209.656921 23.479980 -10.440918

v 149.678345 121.898270 -13.343734

v 137.368225 101.102814 -10.064919

v 134.844910 81.585808 -11.776409

v 181.412109 109.815491 -8.778320

v 135.562225 77.141350 -11.482536

v 136.415039 73.281197 -11.036337

v 136.795105 59.473778 -11.561157

v 199.504761 99.054443 -9.548340

v 135.668488 53.773651 -11.812592

v 206.161621 94.341003 -11.241699

v 132.924026 48.074131 -12.657158

v 137.155426 40.462711 -12.768646

v 219.044922 83.779297 -10.220703

v 142.484863 35.917114 -10.604370

v 144.570145 33.630455 -10.820480

v 148.252228 28.726204 -10.905121

v 152.597702 24.390617 -12.325531

v 157.431030 21.380981 -12.429596

v 167.093094 16.490723 -12.973724

v 173.593872 14.679077 -12.506226

v 219.377106 35.648849 -5.835510

v 189.400269 14.102661 -10.852783

v 186.909943 10.650803 -7.129410

v 201.545685 19.289063 -11.187256

v 149.455978 118.518127 -10.129068

v 156.623535 119.435379 -9.701088

v 146.169098 114.716293 -9.733093

v 142.532181 111.210800 -9.930817

v 139.784302 106.439560 -9.922785

v 137.029282 93.975510 -9.849905

v 187.797363 106.234863 -9.977051

v 137.225616 67.997711 -10.613693

v 137.817719 44.923660 -11.288391

v 225.895508 56.851807 -4.841309

v 183.345856 10.254979 -7.168710

v 197.030426 13.068909 -7.387665

v 153.317688 105.436394 -9.681292

v 150.581253 99.971962 -9.694916

v 165.519638 112.260803 -9.525826

v 156.349686 104.724358 -7.691437

v 166.535995 111.241905 -8.471176

v 174.054581 112.177429 -7.968628

v 148.004730 93.663284 -9.674437

v 144.852081 86.969604 -9.759688

v 136.995239 80.691742 -9.864632

v 146.652939 86.884232 -8.512390

v 142.876953 78.958549 -9.673573

v 137.798737 74.697136 -9.933273

v 141.001236 71.543800 -9.359772

v 139.279297 65.242508 -8.973022

v 140.021851 53.928421 -5.255737

v 211.229980 85.614227 -2.870117

v 148.539001 30.028954 -5.966553

v 221.164307 78.483696 -6.231445

v 225.858887 66.994629 -6.255859

v 163.257584 16.165146 -4.165405

v 178.394791 9.656965 -6.059755

v 212.843399 26.511988 -6.880432

v 204.365845 18.577576 -9.137329

v 153.313126 99.517258 -6.402756

v 151.179993 95.213364 -5.267296

v 176.765259 109.299316 -5.554810

v 146.012848 78.666412 -1.919334

v 144.717224 74.785904 -3.846924

v 196.467285 97.332520 -5.061035

v 140.891479 63.339172 -5.596191

v 204.355469 90.770264 -2.790894

v 139.678467 46.552307 -6.595215

v 153.972885 23.608612 -6.204102

v 169.400299 12.818565 -4.363220

v 222.788269 42.661209 -5.897705

v 192.085938 11.719891 -7.098194

v 208.950195 22.035599 -5.585175

v 206.115662 19.070038 -5.119415

v 158.470016 105.876381 -4.681305

v 163.329483 107.742157 -4.098724

v 169.554260 111.119774 -4.836182

v 149.327240 90.969727 0.446609

v 148.208832 86.968384 0.260883

v 179.454025 106.570129 -4.327148

v 182.526550 102.604309 -3.465088

v 186.595947 101.173035 -5.035889

v 143.724426 44.995575 -3.116791

v 215.525879 80.333740 -2.236816

v 146.471451 38.011169 0.450317

v 221.721191 71.906006 -3.187500

v 213.151978 29.013184 -3.675659

v 184.121948 11.966915 -2.754299

v 193.810455 12.860275 -4.695801

v 171.578568 109.850739 -3.994492

v 170.784317 106.846527 -3.478439

v 186.815552 98.615112 -0.694580

v 145.117752 68.174088 -2.647652

v 143.945389 59.713909 -2.961510

v 198.540771 92.085449 -0.327637

v 143.602615 52.609222 -3.035187

v 223.082031 63.737183 -0.784180

v 157.256332 19.872885 -1.369164

v 219.866699 43.519150 -1.823730

v 223.284180 56.376221 -0.627930

v 175.230438 12.206177 -2.875549

v 212.866333 33.998352 3.063477

v 206.336212 23.448242 -3.436279

v 192.809387 16.097992 -2.790802

v 154.796051 103.539017 2.806894

v 160.631195 104.081116 2.174194

v 151.296387 99.726143 2.734016

v 168.447418 103.785645 0.485840

v 177.649628 100.895264 0.299316

v 145.958221 83.494057 3.065973

v 144.920105 72.176544 -0.984558

v 209.381592 84.291077 -1.025635

v 144.550522 45.986526 2.776611

v 150.508087 29.157898 1.383461

v 215.857880 72.620972 3.067505

v 152.898880 23.713055 0.482208

v 161.102951 18.955994 1.162132

v 174.901855 14.619867 -1.793978

v 186.427872 15.635015 -1.768536

v 209.430786 28.688446 -1.179504

v 202.282288 23.148499 -1.188049

v 148.953903 91.963730 3.202177

v 146.867096 86.711975 3.045041

v 143.888580 74.967834 2.835861

v 190.790024 90.171463 3.780529

v 143.298920 66.631226 2.531412

v 143.285065 60.838501 2.757729

v 143.421356 52.078911 2.460796

v 143.317688 54.860798 2.791573

v 204.794800 84.410095 3.511108

v 211.863281 79.078979 2.555908

v 158.271179 20.649952 1.338001

v 220.274902 51.565430 2.865723

v 170.121857 16.461349 1.069008

v 177.099548 17.111145 1.154029

v 187.949509 17.627647 1.052536

v 206.725784 28.185059 2.816071

v 193.563950 19.341309 2.638031

v 150.730774 97.216682 3.583721

v 149.382355 95.029480 2.953514

v 170.111481 100.940475 3.686722

v 147.615326 89.029434 3.035521

v 180.208893 97.130112 3.454041

v 144.937256 79.831787 3.065556

v 143.889130 72.301292 2.950783

v 144.336899 69.474373 3.522000

v 148.687622 36.519257 1.593994

v 157.525604 25.763828 1.716358

v 220.241882 64.292328 3.133057

v 158.869247 28.758627 3.523347

v 164.953018 20.994675 1.856789

v 173.440735 18.988792 1.995209

v 166.289047 23.048513 3.523877

v 215.468811 43.699493 5.132813

v 185.283539 20.077621 2.172249

v 156.010818 102.463188 3.739941

v 151.379929 92.319145 3.719199

v 146.569321 78.639832 3.663317

v 177.728394 96.430878 3.826970

v 144.983383 63.923847 3.587897

v 145.199875 50.476181 3.555711

v 196.198059 82.882912 3.898842

v 190.036942 75.900078 3.839912

v 200.941315 81.226936 5.728733

v 182.630722 61.594406 3.769449

v 148.391037 40.746677 3.519419

v 174.120499 39.643055 3.640010

v 207.559143 78.381248 5.750046

v 188.306885 65.649857 5.657366

v 180.233154 50.165005 3.743721

v 184.119598 54.373688 5.572353

v 215.264053 64.527992 5.777033

v 181.313812 44.342598 5.539312

v 176.475540 37.755947 5.517056

v 172.753754 31.192486 3.629004

v 217.939026 52.925457 5.626419

v 176.456604 21.894485 3.657135

v 175.659271 29.873627 5.508007

v 180.184235 23.080807 5.485978

v 211.414459 36.599976 5.358032

v 202.467834 29.286316 5.054810

v 191.079407 22.648422 5.438557

v 192.931580 75.222870 5.687305

v 200.204712 29.649353 5.615995

v 214.007263 43.247421 5.688869

f 1 2 3
f 4 2 5
f 6 2 1
f 2 6 7
f 8 6 1
f 2 7 5
f 9 6 8
f 10 9 8
f 9 10 11
f 9 11 12
f 7 13 5
f 12 14 9
f 6 9 14
f 15 16 17
f 18 16 19
f 17 16 18
f 20 15 4
f 15 17 4
f 4 21 20
f 3 17 18
f 3 4 17
f 20 21 22
f 23 3 18
f 4 3 2
f 23 1 3
f 24 23 18
f 23 24 1
f 21 4 25
f 24 8 1
f 26 8 24
f 5 27 4
f 27 25 4
f 10 8 26
f 10 26 28
f 29 25 30
f 28 11 10
f 27 30 25
f 27 5 13
f 31 30 27
f 13 31 27
f 14 12 32
f 6 33 7
f 13 7 33
f 6 14 34
f 33 6 34
f 35 36 37
f 38 36 15
f 38 15 39
f 15 36 16
f 35 16 36
f 35 37 40
f 15 20 39
f 20 41 39
f 19 16 35
f 42 19 35
f 35 40 42
f 41 20 22
f 42 43 44
f 19 42 24
f 19 24 18
f 44 24 42
f 45 22 21
f 26 24 44
f 21 46 45
f 47 45 46
f 46 48 47
f 49 44 43
f 44 49 50
f 46 21 25
f 26 44 50
f 46 25 29
f 26 50 28
f 48 46 29
f 50 51 52
f 28 50 52
f 52 11 28
f 11 52 53
f 11 53 12
f 12 53 54
f 54 32 12
f 32 54 55
f 56 30 31
f 14 32 55
f 55 34 14
f 33 34 57
f 33 58 13
f 31 13 58
f 58 59 31
f 56 31 59
f 60 61 62
f 61 63 64
f 63 61 38
f 65 60 66
f 63 67 68
f 38 39 63
f 67 63 39
f 61 37 38
f 40 61 60
f 40 37 61
f 60 65 40
f 37 36 38
f 67 39 41
f 69 67 70
f 65 66 71
f 70 67 41
f 71 43 65
f 70 41 22
f 40 65 43
f 42 40 43
f 22 45 70
f 45 72 70
f 49 43 71
f 72 45 47
f 73 50 49
f 73 51 50
f 74 48 75
f 29 75 48
f 52 51 76
f 75 29 77
f 52 76 53
f 54 78 55
f 29 30 56
f 56 77 29
f 55 78 79
f 34 55 79
f 57 34 79
f 57 58 33
f 80 64 81
f 81 68 82
f 62 64 80
f 68 81 64
f 83 82 68
f 61 64 62
f 63 68 64
f 84 66 80
f 62 80 66
f 62 66 60
f 68 85 83
f 86 83 85
f 85 68 67
f 87 66 84
f 85 69 86
f 88 66 87
f 67 69 85
f 66 88 89
f 89 71 66
f 90 69 70
f 90 70 72
f 91 89 88
f 72 92 90
f 71 89 73
f 49 71 73
f 91 93 89
f 73 89 93
f 92 72 47
f 47 94 92
f 95 93 91
f 47 48 94
f 93 95 96
f 51 73 97
f 51 97 76
f 77 98 75
f 78 54 99
f 56 100 77
f 54 53 99
f 78 99 101
f 79 78 101
f 100 56 102
f 101 103 79
f 57 79 103
f 58 57 103
f 59 102 56
f 103 104 58
f 59 58 104
f 105 106 107
f 106 108 107
f 109 108 106
f 105 110 111
f 112 109 81
f 106 81 109
f 106 80 81
f 112 81 82
f 105 111 106
f 106 111 113
f 113 84 106
f 106 84 80
f 82 83 114
f 111 87 113
f 87 84 113
f 115 83 116
f 83 86 116
f 86 117 116
f 118 119 88
f 87 118 88
f 117 86 69
f 69 120 117
f 119 121 88
f 120 69 90
f 121 91 88
f 122 95 91
f 94 48 74
f 93 96 123
f 123 97 93
f 93 97 73
f 76 97 124
f 124 125 76
f 77 100 98
f 125 53 76
f 53 125 126
f 126 99 53
f 126 127 99
f 101 99 127
f 127 128 101
f 103 101 128
f 103 128 104
f 129 130 131
f 105 131 130
f 131 105 107
f 107 132 131
f 133 130 134
f 132 107 108
f 108 135 132
f 110 130 133
f 108 136 135
f 136 108 109
f 130 110 105
f 109 112 136
f 110 133 137
f 82 114 112
f 110 137 118
f 83 115 114
f 111 110 118
f 118 87 111
f 118 137 119
f 115 116 138
f 116 117 138
f 117 120 139
f 120 140 139
f 140 120 90
f 122 91 121
f 90 141 140
f 141 90 92
f 142 95 122
f 92 94 141
f 96 95 142
f 142 143 96
f 94 74 144
f 144 145 94
f 143 146 96
f 74 75 144
f 146 123 96
f 147 144 75
f 97 123 148
f 149 150 151
f 97 148 152
f 152 124 97
f 75 98 147
f 153 150 154
f 128 149 144
f 152 125 124
f 150 149 154
f 147 98 100
f 125 152 155
f 128 144 147
f 155 126 125
f 126 155 156
f 156 154 127
f 127 149 128
f 156 127 126
f 154 149 127
f 102 128 147
f 102 147 100
f 128 59 104
f 128 102 59
f 157 158 159
f 158 157 129
f 129 131 158
f 160 158 132
f 129 157 134
f 132 158 131
f 161 134 157
f 130 129 134
f 134 161 162
f 132 135 163
f 162 133 134
f 135 136 163
f 162 137 133
f 164 137 162
f 114 165 112
f 165 114 166
f 114 115 166
f 164 167 137
f 137 167 119
f 168 166 115
f 138 168 115
f 119 167 121
f 167 169 121
f 139 138 117
f 121 169 170
f 171 139 140
f 121 170 122
f 172 171 140
f 140 141 172
f 122 170 173
f 171 174 175
f 174 171 172
f 145 172 141
f 176 174 172
f 172 145 176
f 94 145 141
f 142 122 173
f 174 176 177
f 142 173 143
f 177 178 174
f 151 177 176
f 151 176 145
f 178 177 153
f 144 151 145
f 177 151 150
f 150 153 177
f 144 149 151
f 146 148 123
f 179 180 148
f 152 148 180
f 181 153 156
f 180 155 152
f 156 180 181
f 153 154 156
f 180 156 155
f 182 183 157
f 159 182 157
f 184 159 185
f 185 159 160
f 160 159 158
f 161 157 183
f 186 185 163
f 185 160 163
f 163 160 132
f 163 136 187
f 187 136 112
f 188 164 162
f 112 189 187
f 189 112 165
f 164 190 167
f 169 167 190
f 168 191 192
f 191 168 138
f 169 193 170
f 138 139 171
f 191 138 171
f 194 192 191
f 195 170 193
f 196 194 191
f 171 175 191
f 175 196 191
f 170 195 173
f 196 197 194
f 178 196 175
f 178 197 196
f 174 178 175
f 198 173 199
f 173 198 143
f 178 200 197
f 181 200 178
f 200 181 201
f 153 181 178
f 143 202 146
f 180 203 204
f 180 204 201
f 201 181 180
f 202 148 146
f 180 179 203
f 205 206 184
f 182 207 208
f 209 205 184
f 206 207 182
f 182 159 206
f 159 184 206
f 208 183 182
f 209 184 186
f 186 210 209
f 184 185 186
f 186 211 210
f 211 186 163
f 188 161 183
f 161 188 162
f 211 163 187
f 164 188 190
f 212 189 165
f 212 165 166
f 166 213 212
f 213 166 168
f 214 169 190
f 213 168 192
f 215 169 214
f 192 216 213
f 169 215 193
f 192 217 216
f 217 192 194
f 194 218 217
f 193 215 195
f 218 194 197
f 219 199 195
f 197 220 218
f 195 199 173
f 197 200 221
f 221 220 197
f 222 221 200
f 200 201 222
f 204 223 201
f 143 198 202
f 224 203 179
f 179 148 224
f 148 202 224
f 225 207 226
f 226 207 206
f 205 226 206
f 227 228 229
f 230 208 225
f 208 207 225
f 228 205 209
f 229 228 210
f 210 228 209
f 208 230 183
f 210 231 229
f 229 231 227
f 231 210 211
f 232 231 233
f 211 233 231
f 187 189 211
f 189 233 211
f 233 234 232
f 235 190 188
f 189 236 233
f 236 189 212
f 212 213 236
f 237 215 214
f 238 213 216
f 237 239 215
f 238 216 240
f 217 240 216
f 218 240 217
f 215 241 219
f 218 220 240
f 219 195 215
f 199 219 242
f 242 243 199
f 223 222 201
f 243 242 244
f 243 198 199
f 203 245 204
f 243 246 198
f 244 246 243
f 198 247 202
f 202 247 224
f 248 226 249
f 250 249 228
f 226 228 249
f 228 227 250
f 250 251 252
f 225 226 253
f 226 205 228
f 254 252 251
f 251 250 227
f 251 255 254
f 256 183 230
f 232 227 231
f 251 227 232
f 255 251 232
f 188 183 256
f 232 234 255
f 256 235 188
f 257 234 233
f 258 190 235
f 257 233 236
f 236 213 259
f 258 214 190
f 214 258 237
f 260 238 240
f 240 261 260
f 239 241 215
f 262 220 221
f 242 219 241
f 241 263 242
f 263 244 242
f 245 223 204
f 245 203 264
f 244 263 265
f 266 264 203
f 247 266 224
f 266 203 224
f 265 246 244
f 198 246 267
f 247 198 267
f 265 267 246
f 268 249 250
f 269 268 250
f 269 250 252
f 248 253 226
f 230 225 253
f 254 255 270
f 234 257 271
f 235 272 258
f 236 271 257
f 236 259 271
f 273 259 213
f 213 238 273
f 274 239 237
f 239 274 275
f 240 220 261
f 275 241 239
f 262 261 220
f 241 275 276
f 262 221 277
f 222 277 221
f 276 263 241
f 223 278 222
f 278 223 245
f 276 279 263
f 279 265 263
f 265 279 280
f 247 267 281
f 281 267 282
f 267 265 282
f 282 265 280
f 249 283 284
f 249 268 283
f 268 269 285
f 284 248 249
f 252 286 269
f 286 252 254
f 253 287 230
f 254 270 286
f 288 256 230
f 255 289 270
f 255 234 289
f 256 290 235
f 234 271 289
f 272 235 290
f 258 291 237
f 291 274 237
f 273 238 292
f 292 238 260
f 260 261 293
f 293 261 262
f 293 262 277
f 277 222 294
f 222 278 294
f 278 245 295
f 264 295 245
f 276 296 279
f 264 266 297
f 297 266 298
f 296 299 279
f 281 298 247
f 266 247 298
f 282 300 281
f 300 301 281
f 302 300 282
f 282 280 302
f 280 279 303
f 280 303 302
f 285 283 268
f 284 304 248
f 305 306 269
f 253 248 304
f 286 305 269
f 288 230 287
f 286 307 305
f 286 308 307
f 308 286 270
f 290 288 309
f 288 290 256
f 271 259 310
f 291 258 272
f 259 311 310
f 311 259 273
f 273 312 311
f 312 273 292
f 313 292 260
f 260 314 313
f 314 260 293
f 315 293 277
f 277 294 316
f 294 278 317
f 318 278 295
f 264 319 295
f 297 319 264
f 298 281 301
f 279 299 303
f 320 303 299
f 302 303 320
f 321 283 285
f 283 321 284
f 306 285 269
f 288 287 322
f 323 309 288
f 270 324 308
f 289 324 270
f 325 290 309
f 324 289 326
f 272 290 325
f 326 289 271
f 326 271 327
f 271 328 327
f 328 271 310
f 328 310 311
f 312 292 313
f 274 329 275
f 314 293 315
f 315 277 316
f 276 275 330
f 330 296 276
f 318 317 278
f 295 331 318
f 295 319 331
f 332 331 319
f 299 296 333
f 334 319 297
f 334 297 298
f 300 335 301
f 333 336 299
f 335 300 302
f 299 337 320
f 336 337 299
f 320 337 338
f 320 338 302
f 285 339 321
f 285 340 339
f 306 340 285
f 306 341 340
f 284 342 304
f 343 341 306
f 344 304 342
f 253 304 344
f 344 287 253
f 343 306 305
f 305 307 343
f 322 323 288
f 345 307 308
f 308 324 345
f 324 346 345
f 346 324 326
f 347 272 325
f 326 327 346
f 291 348 349
f 328 311 350
f 311 312 350
f 349 274 291
f 312 351 350
f 351 312 313
f 317 352 294
f 353 332 319
f 334 353 319
f 334 298 354
f 298 301 355
f 355 354 298
f 301 335 355
f 338 335 302
f 284 321 356
f 356 342 284
f 340 341 357
f 358 357 341
f 341 343 358
f 343 307 358
f 359 358 307
f 307 345 359
f 360 345 346
f 327 361 346
f 348 272 347
f 348 291 272
f 327 328 362
f 313 363 351
f 313 314 363
f 315 364 314
f 315 365 364
f 365 315 316
f 330 275 329
f 316 366 365
f 366 316 294
f 366 294 352
f 367 296 330
f 368 352 317
f 368 317 318
f 332 368 331
f 368 318 331
f 369 353 334
f 296 370 333
f 334 354 369
f 371 355 335
f 336 333 370
f 338 372 335
f 372 371 335
f 337 372 338
f 337 336 373
f 372 337 373
f 321 339 374
f 375 356 321
f 339 340 357
f 376 344 342
f 377 287 344
f 322 287 377
f 323 322 378
f 359 345 379
f 309 323 380
f 360 379 345
f 347 325 309
f 360 346 361
f 327 362 361
f 350 362 328
f 351 362 350
f 349 381 274
f 381 329 274
f 382 363 314
f 329 367 330
f 352 383 366
f 383 352 368
f 332 384 368
f 384 332 385
f 353 385 332
f 367 370 296
f 385 353 369
f 354 386 369
f 387 386 354
f 354 355 387
f 372 388 371
f 372 373 389
f 374 339 390
f 375 321 374
f 391 356 375
f 392 339 357
f 376 342 393
f 394 359 379
f 347 309 380
f 360 395 379
f 361 396 360
f 397 361 362
f 349 348 398
f 362 351 399
f 398 381 349
f 399 351 363
f 400 382 314
f 314 364 400
f 365 401 364
f 401 365 366
f 366 383 401
f 383 368 402
f 384 402 368
f 403 385 369
f 370 367 404
f 369 386 403
f 405 387 355
f 355 371 405
f 373 336 370
f 371 388 405
f 389 388 372
f 373 370 406
f 373 406 389
f 390 407 374
f 391 375 374
f 374 407 391
f 339 392 390
f 393 342 356
f 357 408 392
f 357 409 408
f 409 357 358
f 322 377 378
f 409 358 359
f 359 394 409
f 323 378 380
f 379 395 394
f 360 396 395
f 397 396 361
f 362 410 397
f 362 399 410
f 411 329 381
f 400 364 412
f 329 411 367
f 412 364 413
f 401 413 364
f 413 401 414
f 383 414 401
f 402 414 383
f 415 414 402
f 416 413 414
f 402 384 415
f 414 415 417
f 417 416 414
f 385 415 384
f 403 415 385
f 418 417 415
f 419 415 403
f 386 419 403
f 418 415 419
f 404 420 370
f 387 421 386
f 421 419 386
f 421 387 405
f 421 405 422
f 388 389 423
f 405 388 422
f 423 422 388
f 406 370 424
f 406 423 389
f 424 425 406
f 423 406 425
f 390 426 407
f 390 392 426
f 408 426 392
f 377 344 376
f 409 394 427
f 427 394 428
f 394 395 428
f 395 429 428
f 396 429 395
f 430 429 396
f 396 397 430
f 431 348 347
f 363 382 432
f 433 367 411
f 434 412 413
f 435 413 416
f 413 435 434
f 367 433 404
f 416 436 435
f 436 416 417
f 418 437 417
f 417 437 436
f 418 419 438
f 419 421 439
f 439 438 419
f 439 421 440
f 370 420 441
f 421 442 440
f 424 370 441
f 422 442 421
f 441 443 424
f 443 425 424
f 444 407 445
f 444 391 407
f 445 407 426
f 393 356 391
f 391 446 393
f 426 447 445
f 448 393 449
f 447 426 408
f 448 376 393
f 408 450 447
f 451 377 376
f 450 408 409
f 409 452 450
f 409 427 452
f 452 427 428
f 453 452 428
f 380 378 454
f 453 428 429
f 455 453 429
f 455 429 430
f 380 431 347
f 430 456 455
f 456 430 397
f 456 397 410
f 410 457 456
f 457 410 399
f 399 432 457
f 432 399 363
f 382 400 458
f 412 458 400
f 433 411 459
f 433 460 404
f 461 435 436
f 420 404 460
f 437 418 438
f 441 420 462
f 463 438 439
f 439 440 463
f 464 463 440
f 440 442 464
f 465 464 442
f 442 422 466
f 466 465 442
f 441 425 443
f 422 423 466
f 425 467 423
f 467 466 423
f 446 391 444
f 447 444 445
f 468 444 447
f 469 393 446
f 450 468 447
f 470 376 448
f 471 468 450
f 450 452 471
f 472 378 377
f 473 471 452
f 378 472 454
f 452 453 473
f 473 453 474
f 475 474 453
f 453 455 475
f 476 475 455
f 476 455 456
f 431 477 348
f 457 476 456
f 348 477 398
f 478 476 457
f 398 477 381
f 457 432 478
f 479 478 432
f 432 382 479
f 479 382 480
f 381 481 411
f 480 382 458
f 458 412 482
f 434 482 412
f 433 459 460
f 434 435 483
f 461 483 435
f 460 484 420
f 436 437 485
f 484 462 420
f 437 486 485
f 437 438 486
f 438 463 486
f 464 486 463
f 441 462 487
f 464 488 486
f 487 425 441
f 425 487 467
f 465 489 464
f 465 466 489
f 488 464 490
f 467 489 466
f 444 491 446
f 444 492 491
f 492 444 468
f 449 393 469
f 468 493 492
f 451 376 470
f 493 468 471
f 471 494 493
f 494 471 473
f 495 473 474
f 474 496 495
f 497 380 454
f 498 475 476
f 476 499 498
f 478 500 476
f 477 481 381
f 501 480 458
f 481 459 411
f 458 502 501
f 502 458 482
f 502 482 434
f 502 434 483
f 461 436 485
f 484 503 462
f 486 504 485
f 462 503 505
f 462 505 506
f 506 487 462
f 506 505 507
f 504 486 508
f 488 508 486
f 490 508 488
f 487 506 467
f 509 506 507
f 506 510 467
f 467 511 489
f 464 489 490
f 511 490 489
f 467 510 511
f 512 446 491
f 469 446 512
f 491 492 512
f 469 513 449
f 512 492 514
f 448 449 513
f 515 492 493
f 516 377 451
f 515 493 494
f 516 517 377
f 517 472 377
f 495 494 473
f 474 498 496
f 498 474 475
f 380 497 518
f 431 380 518
f 477 431 518
f 500 499 476
f 478 479 519
f 477 520 481
f 502 521 501
f 502 483 522
f 461 523 483
f 503 484 460
f 523 461 485
f 524 505 503
f 525 485 504
f 525 504 526
f 524 507 505
f 504 508 527
f 526 504 527
f 490 528 508
f 528 529 508
f 508 529 527
f 509 507 530
f 510 506 509
f 511 528 490
f 528 511 531
f 509 532 510
f 511 510 532
f 532 531 511
f 530 533 509
f 469 512 534
f 513 469 534
f 534 512 514
f 535 534 514
f 492 515 514
f 513 470 448
f 514 515 535
f 535 515 536
f 536 515 494
f 494 495 536
f 536 495 537
f 538 454 472
f 454 538 497
f 495 496 537
f 496 539 537
f 496 498 539
f 540 539 498
f 498 499 540
f 477 518 541
f 542 499 500
f 500 478 519
f 541 520 477
f 479 543 519
f 543 479 480
f 521 543 480
f 521 480 501
f 520 459 481
f 521 502 544
f 545 460 459
f 544 502 522
f 523 522 483
f 525 523 485
f 525 546 523
f 547 523 546
f 526 548 525
f 546 525 548
f 549 507 524
f 550 526 527
f 527 551 550
f 551 527 529
f 551 529 552
f 553 507 549
f 553 530 507
f 552 529 528
f 553 533 530
f 533 532 509
f 554 513 534
f 535 554 534
f 555 470 513
f 555 556 470
f 556 451 470
f 554 535 557
f 556 516 451
f 557 535 536
f 516 558 517
f 536 537 557
f 559 557 537
f 537 560 559
f 560 537 539
f 499 542 540
f 500 519 542
f 520 561 459
f 544 562 521
f 545 459 561
f 562 544 522
f 545 563 503
f 503 460 545
f 522 547 562
f 524 503 563
f 523 547 522
f 550 548 526
f 564 552 528
f 553 549 565
f 566 564 528
f 528 531 566
f 567 566 531
f 531 532 567
f 532 568 567
f 533 568 532
f 565 569 553
f 569 570 553
f 533 553 570
f 568 533 570
f 558 516 556
f 571 557 559
f 472 517 538
f 560 539 572
f 518 497 573
f 574 540 542
f 575 542 519
f 575 519 543
f 543 576 575
f 576 543 521
f 521 577 576
f 577 521 562
f 562 578 577
f 562 547 578
f 578 547 579
f 579 547 546
f 546 580 579
f 580 546 548
f 549 524 563
f 550 580 548
f 580 550 581
f 550 551 581
f 551 552 582
f 581 551 582
f 552 564 582
f 564 566 583
f 566 567 584
f 568 584 567
f 584 583 566
f 585 569 565
f 570 584 568
f 570 569 586
f 513 554 587
f 513 587 555
f 554 588 587
f 588 554 557
f 589 558 556
f 588 557 571
f 590 571 559
f 559 572 590
f 572 559 560
f 497 538 591
f 539 592 572
f 573 497 591
f 592 539 540
f 540 574 592
f 541 518 593
f 575 574 542
f 541 593 520
f 575 576 594
f 576 577 594
f 577 595 594
f 577 596 595
f 561 597 545
f 597 563 545
f 596 577 598
f 598 599 596
f 598 577 578
f 600 599 598
f 579 598 578
f 598 579 601
f 580 601 579
f 601 602 598
f 600 598 602
f 580 581 603
f 603 601 580
f 604 601 603
f 602 601 605
f 582 603 581
f 549 585 565
f 606 605 601
f 604 603 582
f 601 604 606
f 582 564 583
f 583 604 582
f 569 585 586
f 604 583 607
f 584 608 583
f 586 609 570
f 584 570 610
f 608 584 610
f 570 609 610
f 611 555 587
f 587 588 611
f 589 556 555
f 555 611 589
f 612 588 571
f 558 613 517
f 612 571 590
f 590 572 614
f 614 572 615
f 572 592 615
f 615 592 574
f 593 518 573
f 616 574 575
f 616 575 594
f 594 617 616
f 617 594 595
f 617 595 596
f 596 618 617
f 596 599 618
f 599 619 618
f 619 599 620
f 599 600 620
f 620 600 621
f 549 563 622
f 600 623 621
f 602 623 600
f 623 602 624
f 624 602 605
f 585 549 625
f 624 605 626
f 627 626 605
f 605 606 628
f 628 627 605
f 607 606 604
f 583 608 607
f 607 608 629
f 628 606 629
f 586 630 609
f 607 629 606
f 609 631 610
f 610 629 608
f 629 632 628
f 629 610 631
f 629 631 633
f 632 629 634
f 631 635 633
f 633 634 629
f 633 635 634
f 612 611 588
f 636 589 611
f 636 611 612
f 612 637 636
f 638 637 612
f 636 637 639
f 638 612 590
f 538 517 613
f 640 538 613
f 641 637 638
f 642 538 640
f 614 638 590
f 643 641 638
f 643 638 614
f 538 642 591
f 614 615 643
f 641 644 645
f 644 641 643
f 646 643 615
f 643 646 644
f 647 645 644
f 646 648 644
f 648 646 615
f 648 615 574
f 649 647 644
f 649 644 648
f 574 616 648
f 561 520 650
f 648 651 649
f 652 651 648
f 651 652 653
f 648 616 654
f 655 653 652
f 648 654 652
f 616 617 654
f 656 652 654
f 655 652 656
f 657 655 656
f 656 654 658
f 618 654 617
f 658 657 656
f 618 658 654
f 659 657 658
f 618 619 658
f 620 658 619
f 660 659 658
f 597 622 563
f 620 660 658
f 621 660 620
f 660 623 661
f 623 660 621
f 661 623 662
f 624 662 623
f 585 625 663
f 664 626 627
f 628 665 627
f 666 665 628
f 586 585 667
f 665 666 668
f 667 630 586
f 666 628 632
f 630 635 609
f 668 666 632
f 631 609 635
f 630 667 669
f 635 630 669
f 635 669 670
f 668 632 671
f 634 671 632
f 672 670 669
f 670 634 635
f 671 673 668
f 670 674 634
f 674 675 634
f 634 675 671
f 675 674 676
f 589 613 558
f 589 677 613
f 589 636 677
f 636 639 677
f 678 639 637
f 637 641 678
f 679 641 645
f 573 591 680
f 593 573 681
f 649 682 647
f 649 683 682
f 649 684 683
f 684 649 651
f 650 520 593
f 684 651 653
f 685 655 657
f 657 686 685
f 657 687 686
f 687 657 659
f 659 688 687
f 688 659 660
f 660 689 688
f 689 660 661
f 549 622 690
f 689 661 662
f 690 625 549
f 624 691 662
f 691 624 626
f 691 626 664
f 692 664 627
f 692 627 693
f 693 627 665
f 585 663 694
f 585 694 667
f 693 665 695
f 695 665 668
f 694 696 667
f 668 697 695
f 667 696 669
f 695 697 698
f 696 672 669
f 673 697 668
f 673 699 697
f 670 672 700
f 698 697 699
f 700 672 701
f 699 673 702
f 701 703 700
f 704 703 701
f 670 700 674
f 674 700 676
f 699 702 705
f 703 704 706
f 673 671 675
f 700 703 706
f 706 707 700
f 673 675 708
f 702 673 708
f 708 705 702
f 676 700 709
f 676 710 675
f 707 709 700
f 710 711 675
f 675 712 708
f 709 710 676
f 711 712 675
f 710 709 713
f 713 711 710
f 714 613 677
f 640 613 714
f 714 677 639
f 714 715 640
f 714 639 716
f 714 716 715
f 639 678 716
f 642 717 591
f 718 716 678
f 591 717 680
f 678 641 679
f 679 645 719
f 573 680 720
f 681 573 720
f 719 645 647
f 719 647 721
f 647 682 721
f 722 723 593
f 723 650 593
f 684 653 724
f 725 653 655
f 725 655 685
f 561 726 597
f 687 727 686
f 688 728 687
f 728 727 687
f 597 729 622
f 728 730 727
f 689 728 688
f 622 729 690
f 692 731 728
f 730 728 731
f 689 692 728
f 662 692 689
f 732 731 692
f 692 662 691
f 732 733 731
f 664 692 691
f 732 734 733
f 693 732 692
f 732 693 695
f 732 695 734
f 695 735 734
f 698 735 695
f 735 698 736
f 737 735 736
f 672 696 738
f 736 698 739
f 701 672 738
f 699 739 698
f 738 704 701
f 740 706 704
f 705 741 699
f 740 707 706
f 742 707 740
f 742 709 707
f 713 709 742
f 742 743 713
f 743 711 713
f 640 744 745
f 744 640 715
f 642 640 745
f 715 746 744
f 716 718 715
f 718 746 715
f 679 718 678
f 747 746 718
f 718 679 747
f 720 680 717
f 747 679 719
f 748 747 719
f 719 721 748
f 722 593 681
f 682 748 721
f 683 684 724
f 653 725 724
f 726 561 650
f 597 726 749
f 685 750 751
f 750 685 686
f 686 752 750
f 752 686 727
f 729 597 749
f 753 730 731
f 753 731 733
f 733 754 753
f 733 755 754
f 734 755 733
f 755 734 756
f 756 734 735
f 756 735 737
f 757 737 736
f 757 736 739
f 757 739 758
f 704 738 740
f 699 758 739
f 758 699 759
f 759 699 741
f 740 760 742
f 741 705 708
f 708 712 761
f 741 708 761
f 743 742 760
f 745 744 762
f 717 642 745
f 745 762 717
f 746 762 744
f 763 762 746
f 746 764 763
f 747 764 746
f 764 747 765
f 765 747 748
f 766 650 723
f 751 725 685
f 726 650 766
f 767 750 752
f 767 752 768
f 752 727 730
f 730 768 752
f 768 730 753
f 690 769 625
f 770 771 754
f 694 663 772
f 770 754 755
f 756 770 755
f 737 773 756
f 756 774 770
f 774 775 770
f 773 774 756
f 757 776 737
f 773 737 776
f 776 774 773
f 777 775 774
f 774 776 778
f 777 774 778
f 758 776 757
f 758 779 776
f 776 779 778
f 758 759 779
f 779 759 780
f 741 780 759
f 779 781 778
f 780 741 761
f 711 743 782
f 782 712 711
f 783 717 762
f 784 783 762
f 785 783 786
f 784 762 763
f 717 783 785
f 720 717 785
f 784 787 788
f 787 784 763
f 785 789 720
f 787 763 764
f 764 765 787
f 790 787 765
f 791 681 720
f 765 748 790
f 748 682 792
f 722 681 793
f 792 682 683
f 683 794 792
f 722 793 723
f 795 683 724
f 724 725 795
f 766 796 726
f 797 750 798
f 751 750 797
f 750 799 798
f 799 750 767
f 767 800 799
f 801 799 800
f 800 802 801
f 800 767 768
f 802 800 803
f 800 768 803
f 729 769 690
f 804 805 803
f 803 768 771
f 753 771 768
f 806 803 771
f 806 804 803
f 663 625 769
f 769 772 663
f 771 807 806
f 771 753 754
f 807 808 806
f 807 771 770
f 808 807 809
f 696 694 810
f 696 810 811
f 807 770 775
f 809 807 812
f 775 812 807
f 696 811 738
f 777 812 775
f 740 738 813
f 812 777 814
f 813 760 740
f 815 777 778
f 815 814 777
f 815 778 781
f 781 779 816
f 779 780 816
f 817 761 712
f 817 780 761
f 784 786 783
f 818 785 786
f 784 788 786
f 789 785 818
f 786 788 818
f 791 720 789
f 748 819 790
f 748 792 819
f 793 681 791
f 795 794 683
f 820 795 725
f 766 723 821
f 822 820 725
f 822 725 751
f 751 823 822
f 823 751 797
f 824 797 798
f 825 749 726
f 798 799 824
f 826 824 799
f 825 827 749
f 799 801 826
f 801 828 826
f 801 802 828
f 729 749 827
f 828 802 803
f 803 829 828
f 769 729 830
f 829 803 805
f 805 804 831
f 831 804 832
f 806 832 804
f 772 769 830
f 832 806 808
f 808 833 832
f 694 772 810
f 809 834 808
f 835 834 809
f 812 835 809
f 835 812 836
f 812 837 836
f 812 814 837
f 760 813 743
f 838 743 813
f 814 815 839
f 839 840 814
f 743 838 782
f 815 781 816
f 816 839 815
f 816 780 841
f 782 817 712
f 817 841 780
f 842 818 788
f 843 789 818
f 843 818 842
f 844 842 788
f 845 844 788
f 788 787 845
f 787 846 845
f 846 787 790
f 791 789 843
f 846 790 819
f 819 792 847
f 847 792 794
f 793 821 723
f 795 820 794
f 821 848 766
f 766 848 796
f 823 797 849
f 796 825 726
f 797 824 849
f 828 850 826
f 828 829 850
f 805 850 829
f 833 808 834
f 851 738 811
f 852 837 814
f 840 852 814
f 839 816 853
f 841 853 816
f 842 844 843
f 843 844 854
f 854 844 845
f 854 845 846
f 855 854 846
f 846 819 855
f 856 843 854
f 819 847 855
f 843 856 791
f 791 856 793
f 857 856 854
f 858 793 856
f 857 854 855
f 858 859 793
f 860 855 847
f 861 860 847
f 794 861 847
f 793 859 821
f 820 862 794
f 863 860 861
f 794 864 861
f 864 794 862
f 862 820 822
f 863 861 864
f 865 862 822
f 865 822 823
f 864 862 865
f 865 866 864
f 849 865 823
f 866 865 849
f 866 849 867
f 849 824 867
f 826 868 824
f 850 868 826
f 827 869 729
f 729 869 830
f 833 870 832
f 830 871 772
f 871 810 772
f 870 833 834
f 810 872 811
f 835 836 873
f 738 851 813
f 837 852 874
f 875 782 838
f 817 782 875
f 841 817 876
f 853 841 876
f 856 857 858
f 877 857 855
f 860 877 855
f 877 860 878
f 859 879 821
f 878 860 863
f 864 880 863
f 821 879 848
f 881 880 864
f 866 881 864
f 882 825 796
f 866 883 881
f 867 883 866
f 824 883 867
f 824 868 883
f 825 884 827
f 850 885 868
f 885 850 805
f 805 831 885
f 834 886 870
f 811 872 851
f 834 835 886
f 873 836 887
f 813 851 888
f 887 836 837
f 887 837 874
f 888 838 813
f 839 889 840
f 817 875 890
f 853 889 839
f 890 891 817
f 876 817 891
f 891 853 876
f 858 892 893
f 892 858 857
f 858 893 894
f 859 858 894
f 859 894 879
f 895 878 863
f 880 896 863
f 848 879 897
f 848 897 898
f 899 848 898
f 848 899 796
f 796 899 882
f 825 882 884
f 827 884 869
f 900 885 831
f 869 871 830
f 869 901 871
f 902 831 832
f 832 870 902
f 871 903 810
f 810 903 872
f 835 873 886
f 904 875 838
f 905 874 852
f 840 905 852
f 890 875 904
f 905 889 906
f 889 905 840
f 853 906 889
f 853 891 906
f 894 893 907
f 893 908 907
f 894 907 879
f 897 879 907
f 907 908 897
f 895 863 896
f 897 908 898
f 909 882 899
f 881 883 910
f 883 911 910
f 884 882 912
f 911 883 868
f 913 911 868
f 868 885 900
f 868 900 913
f 831 902 900
f 901 903 871
f 851 872 914
f 873 915 886
f 916 851 917
f 888 851 916
f 887 874 918
f 838 888 916
f 904 838 919
f 905 918 874
f 890 904 920
f 905 906 921
f 921 906 920
f 890 920 891
f 920 906 891
f 892 857 922
f 892 923 893
f 922 857 877
f 877 924 922
f 925 908 893
f 893 923 925
f 924 877 878
f 908 925 926
f 908 926 898
f 927 896 880
f 898 926 909
f 909 899 898
f 881 928 880
f 928 881 910
f 882 909 912
f 912 929 884
f 869 884 929
f 900 902 930
f 901 869 929
f 902 870 931
f 932 903 901
f 931 870 933
f 903 914 872
f 933 870 886
f 915 933 886
f 917 851 914
f 873 934 915
f 887 934 873
f 887 918 935
f 838 916 919
f 935 905 936
f 905 935 918
f 920 937 938
f 936 905 921
f 920 904 937
f 921 920 938
f 892 922 923
f 878 895 939
f 940 896 927
f 880 928 941
f 909 942 912
f 943 910 911
f 943 911 944
f 913 945 946
f 912 947 929
f 945 913 900
f 929 948 901
f 932 901 948
f 932 914 903
f 915 949 933
f 915 934 949
f 917 950 916
f 887 951 934
f 887 935 951
f 952 951 935
f 935 936 952
f 953 952 936
f 937 904 919
f 938 937 954
f 955 953 921
f 936 921 953
f 921 938 955
f 878 956 924
f 878 957 956
f 925 923 958
f 878 939 957
f 959 939 895
f 895 896 959
f 896 940 959
f 925 958 926
f 958 960 926
f 880 961 927
f 941 961 880
f 926 960 909
f 962 941 928
f 928 910 963
f 963 962 928
f 909 960 942
f 943 963 910
f 944 911 946
f 946 911 913
f 912 942 947
f 900 930 945
f 929 947 948
f 930 902 964
f 902 931 964
f 965 964 931
f 914 932 966
f 964 965 967
f 917 914 966
f 931 933 949
f 931 949 965
f 966 950 917
f 968 965 949
f 934 968 949
f 968 969 970
f 968 934 969
f 951 969 934
f 969 951 952
f 916 950 971
f 952 972 969
f 919 916 971
f 953 972 952
f 953 955 972
f 919 954 937
f 954 955 938
f 973 922 924
f 922 973 923
f 956 973 924
f 958 923 973
f 956 974 973
f 974 956 957
f 974 958 973
f 957 939 974
f 975 958 974
f 939 959 974
f 974 959 940
f 958 975 976
f 975 974 940
f 975 940 927
f 960 958 976
f 927 961 975
f 975 961 941
f 975 941 962
f 963 975 962
f 942 960 976
f 977 963 943
f 963 977 975
f 976 975 942
f 977 943 944
f 944 978 977
f 975 977 978
f 975 979 942
f 978 944 946
f 979 975 980
f 942 979 947
f 978 946 945
f 945 930 978
f 979 981 947
f 980 975 982
f 978 983 984
f 983 978 930
f 985 948 947
f 980 982 986
f 978 984 975
f 930 964 983
f 975 987 982
f 967 984 983
f 948 985 932
f 982 987 988
f 985 989 932
f 967 983 964
f 975 984 987
f 966 932 989
f 990 987 984
f 984 991 990
f 984 967 992
f 970 992 967
f 984 992 991
f 989 993 966
f 967 965 970
f 950 966 993
f 965 968 970
f 992 994 995
f 994 992 970
f 994 996 995
f 970 969 994
f 971 950 993
f 972 994 969
f 994 972 996
f 971 997 919
f 998 919 997
f 955 999 972
f 954 919 998
f 955 998 999
f 954 998 955
f 1000 981 979
f 1000 979 980
f 985 947 981
f 1000 985 981
f 986 1000 980
f 989 985 1000
f 986 989 1000
f 982 988 986
f 989 986 988
f 987 990 988
f 988 990 989
f 990 991 1001
f 990 1001 989
f 991 992 995
f 991 995 1001
f 1002 993 989
f 996 1001 995
f 971 993 1002
f 1002 997 971
f 1001 996 999
f 989 1001 1002
f 1002 1001 997
f 972 999 996
f 1001 998 997
f 1001 999 998
