v 56.670502 -57.024963 -102.868324

v 62.723511 -52.409180 -100.277283

v 79.020889 -54.772263 -102.693695

v 66.194244 -71.127167 -102.869934

v 56.471054 -64.675438 -100.946136

v 65.962738 -73.289330 -101.762177

v 94.378754 -69.100372 -99.675003

v 92.166809 -69.365746 -102.715271

v 81.137115 -87.934517 -102.874123

v 71.017220 -80.056229 -102.009300

v 78.032593 -87.474579 -101.782753

v 100.132751 -79.386490 -102.443298

v 91.582245 -86.941254 -102.743927

v 42.477356 -54.598587 -100.945145

v 41.838638 -51.343689 -99.127037

v 53.526367 -51.727020 -101.170158

v 51.713028 -45.934692 -98.611191

v 47.299385 -61.326847 -99.109253

v 73.050308 -49.160660 -99.934166

v 80.995956 -50.969254 -99.286827

v 85.673172 -56.157570 -98.964287

v 57.816444 -67.660461 -99.129913

v 74.313629 -80.912247 -97.326477

v 105.474243 -85.084732 -97.554932

v 37.465302 -45.292969 -98.961678

v 38.857071 -54.761093 -96.652283

v 64.505241 -48.074036 -97.866806

v 59.682495 -65.377586 -95.646179

v 67.169296 -73.768051 -97.681549

v 90.899643 -62.328857 -95.338776

v 101.488998 -74.735222 -95.429909

v 88.503845 -92.101044 -96.335022

v 36.154953 -47.821716 -95.645897

v 43.074051 -42.271069 -95.291924

v 45.952332 -40.498146 -93.854118

v 65.265656 -45.308388 -92.087624

v 47.536682 -56.332390 -95.203857

v 75.268845 -51.172810 -95.624435

v 81.452469 -57.439499 -95.940346

v 85.101883 -89.748352 -91.578110

v 95.116348 -93.000031 -95.856506

v 63.607422 -47.325897 -93.230286

v 57.998764 -56.464020 -93.297569

v 81.430313 -56.391922 -93.242950

v 91.420044 -59.731899 -93.163742

v 75.289185 -75.887909 -91.609116

v 109.849915 -70.605576 -95.034546

v 108.091827 -79.813721 -95.075554

v 113.123810 -74.187653 -93.183220

v 107.938690 -88.436325 -92.731140

v 77.453491 -47.750977 -92.061493

v 133.169617 -24.442917 -92.797836

v 123.202118 -23.957397 -93.100296

v 130.399582 -15.670639 -92.479218

v 90.691467 -47.975769 -93.060226

v 67.410645 -60.102859 -92.893494

v 136.186218 -14.128662 -90.919235

v 140.473572 -19.107208 -92.791519

v 89.201065 -44.063492 -91.170464

v 141.690720 -12.607971 -89.118614

v 148.872238 -11.479858 -91.865936

v 130.280914 -29.237183 -90.426819

v 102.690247 -43.383392 -93.008530

v 162.146271 -23.561798 -92.843559

v 144.550262 -27.072327 -92.796326

v 115.343819 -52.103607 -92.987556

v 158.046570 -12.125061 -90.153366

v 106.182411 -40.935883 -91.140182

v 107.832214 -65.832581 -93.112556

v 163.201767 -31.241669 -89.001526

v 118.253296 -60.878590 -92.927277

v 119.955368 -66.766701 -92.760620

v 118.576141 -75.687653 -92.863831

v 93.628296 -92.762146 -91.412010

v 64.288231 -48.489761 -87.778580

v 127.380806 -4.228439 -91.130028

v 125.401283 -16.992290 -89.124519

v 122.697937 -5.938278 -89.024277

v 70.255371 -41.910339 -89.138016

v 98.353439 -23.277863 -91.026352

v 98.866127 -19.239929 -89.084251

v 111.657394 -31.077118 -91.021988

v 90.763420 -29.358784 -91.077362

v 120.097244 -24.426058 -91.213287

v 113.320335 -25.165985 -89.111115

v 71.054932 -57.243301 -89.295410

v 153.517181 -2.634979 -88.705673

v 154.780792 -4.670486 -90.593765

v 119.620056 -35.833282 -90.979622

v 128.129517 -32.109619 -86.657410

v 79.867859 -73.850967 -91.226112

v 117.595459 -48.592247 -90.542236

v 140.221313 -30.383270 -89.205597

v 164.463913 -25.313187 -89.651108

v 120.826752 -59.537292 -88.964378

v 87.614685 -78.692841 -89.381783

v 121.811707 -69.595978 -88.026382

v 121.602646 -75.223984 -87.482834

v 98.043205 -92.173134 -89.447266

v 119.787132 -81.967194 -87.599251

v 106.551727 -88.768158 -89.350204

v 110.502533 -6.194962 -89.035095

v 122.997025 -4.008911 -87.074356

v 104.873703 -7.912750 -87.244644

v 91.263062 -22.656860 -86.861145

v 133.542664 -3.560238 -88.657387

v 88.618721 -28.772486 -86.000336

v 62.119644 -43.013763 -87.837128

v 85.305725 -39.055939 -88.388611

v 143.124207 -5.459885 -88.848526

v 148.553986 -2.031381 -85.649101

v 155.573730 -14.229904 -85.984985

v 123.677795 -41.688828 -88.492645

v 151.579391 -36.312073 -88.882309

v 124.703583 -50.549141 -85.971184

v 93.805283 -68.004044 -89.243622

v 123.895386 -56.292175 -88.708771

v 120.868942 -63.592255 -87.623734

v 96.163635 -65.267570 -87.332153

v 111.643501 -86.705124 -87.388535

v 113.739891 -3.397388 -85.856400

v 102.184097 -3.754257 -87.019707

v 87.944183 -10.988159 -85.968658

v 85.611893 -16.652252 -84.931076

v 97.403908 -13.241455 -86.669334

v 70.863152 -38.990982 -84.094589

v 133.478088 -4.365679 -85.738853

v 67.752228 -52.363052 -84.147263

v 127.055733 -36.568909 -83.293755

v 80.889542 -58.308311 -82.645721

v 126.294739 -44.941711 -83.290695

v 145.454773 -42.282288 -83.662628

v 165.019852 -32.949669 -83.697647

v 164.182434 -36.557556 -85.274841

v 117.840836 -63.023071 -85.451973

v 113.076248 -67.495773 -87.236420

v 82.520721 -7.168442 -83.372498

v 94.858727 -2.767197 -83.426819

v 104.695564 -0.451889 -82.798691

v 57.044106 -37.253250 -84.737656

v 54.570755 -43.634499 -85.142746

v 51.248909 -38.122120 -85.411026

v 118.916245 -7.483212 -84.067688

v 52.936115 -45.063019 -83.403442

v 79.051117 -35.849743 -83.458603

v 86.301773 -31.186981 -82.873627

v 142.882935 -2.416821 -80.327782

v 158.311325 -23.045090 -82.274696

v 105.324738 -63.169838 -83.592499

v 91.737976 -63.981827 -81.592056

v 111.767654 -59.148483 -85.244461

v 110.793045 -56.109177 -83.406143

v 155.691376 -39.766022 -84.529114

v 88.013237 6.419952 -83.270973

v 82.295807 5.003448 -81.726303

v 97.769119 3.156677 -82.803772

v 80.037529 -9.015823 -81.583878

v 113.162079 -2.553856 -78.860291

v 51.804337 -37.749184 -81.913055

v 83.985725 -23.977135 -81.408226

v 120.473015 -7.814532 -77.929642

v 50.003757 -51.825974 -80.364838

v 50.902420 -49.995010 -83.751259

v 55.574371 -56.207077 -81.815865

v 70.246429 -55.941986 -81.776306

v 146.362762 -9.494187 -78.426552

v 118.325966 -36.931076 -78.219780

v 117.477592 -43.707169 -83.269722

v 111.175949 -46.636238 -83.171013

v 139.092545 -48.246078 -83.194618

v 162.546509 -35.651802 -79.436409

v 109.379974 -57.722733 -80.860031

v 149.814362 -44.642914 -80.343307

v 166.996429 -40.901215 -81.924225

v 77.191666 8.552582 -80.322525

v 88.555328 13.667450 -77.727219

v 76.685913 -5.512932 -80.627052

v 71.562843 -13.218063 -81.414063

v 72.893967 -19.238777 -79.534660

v 59.575607 -38.919022 -81.427734

v 128.114014 -8.001502 -73.343613

v 137.518646 -5.161858 -78.884521

v 81.877411 -38.170128 -79.549309

v 49.054634 -57.496639 -81.332253

v 87.246971 -34.576797 -79.554413

v 61.676800 -63.283447 -81.559326

v 75.677597 -63.032776 -81.290443

v 151.348984 -18.213787 -80.151054

v 112.001511 -43.156597 -79.038704

v 155.355865 -27.132885 -79.239273

v 130.286804 -41.818085 -77.965820

v 106.105911 -68.665329 -76.003456

v 142.800293 -48.094101 -77.743683

v 152.118988 -38.077637 -79.237587

v 164.293060 -41.914257 -79.603104

v 77.349197 12.238861 -77.384567

v 70.343048 3.678093 -77.185104

v 73.018105 -6.541054 -77.811508

v 107.762131 4.805023 -76.586044

v 81.142189 -25.192085 -77.809357

v 64.927086 -36.686081 -78.185440

v 59.262875 -45.803028 -77.779869

v 74.418007 -36.016861 -76.299164

v 124.009354 -10.729759 -75.355057

v 51.341038 -53.259804 -77.436066

v 52.172028 -64.190399 -75.758743

v 67.790359 -64.197510 -76.817993

v 62.543453 -66.177139 -74.546623

v 88.084198 -67.652832 -75.920044

v 110.590210 -66.930573 -76.877899

v 148.162277 -45.950577 -75.906448

v 73.943939 12.635803 -73.896698

v 86.864029 20.353470 -77.087357

v 100.179688 12.714661 -77.183693

v 65.560974 -1.610918 -75.529503

v 70.363403 -13.636253 -75.996758

v 83.022934 -31.775885 -74.005577

v 47.431702 -56.532093 -75.788857

v 140.799286 -3.841232 -73.429062

v 144.900253 -8.209892 -73.977654

v 112.909279 -41.035789 -74.185181

v 74.503258 -67.562653 -74.839691

v 105.821617 -52.283768 -76.009567

v 155.128799 -25.251762 -73.858002

v 120.116295 -37.737133 -73.977028

v 153.448471 -34.114151 -74.611694

v 107.868027 -58.612122 -73.151260

v 93.566765 -68.355453 -74.108871

v 79.886551 21.863586 -72.919586

v 96.105713 20.822815 -71.680054

v 105.159546 12.634796 -72.390533

v 61.192116 -1.050349 -72.937363

v 68.584473 -22.017756 -73.009186

v 106.288116 3.624298 -70.692993

v 114.685020 -4.259369 -72.931480

v 78.586319 -26.082308 -72.050941

v 56.923050 -43.256397 -73.239349

v 64.590202 -34.666504 -74.745636

v 45.676987 -63.845127 -75.769745

v 126.276917 -33.157593 -73.706802

v 111.497581 -65.547112 -73.108841

v 151.330551 -37.417480 -73.933105

v 66.851234 7.477597 -72.982765

v 66.908791 -14.724897 -73.102058

v 59.617722 -37.465454 -64.788879

v 69.022438 -34.707558 -69.950554

v 73.524750 -36.901093 -71.774269

v 44.037014 -51.574265 -72.389076

v 38.424007 -58.063305 -73.600037

v 40.090622 -62.869606 -73.823654

v 132.971771 -6.103050 -68.152206

v 40.868038 -64.932892 -71.518875

v 149.589035 -4.025604 -73.250252

v 53.606300 -64.678848 -70.506134

v 158.698898 -18.011694 -73.286079

v 126.263252 -31.079624 -71.984550

v 115.647446 -36.651344 -71.939148

v 130.429230 -30.818024 -71.803375

v 107.270889 -51.134762 -72.581665

v 139.620148 -32.553425 -72.571877

v 80.007309 -68.140709 -71.147934

v 146.923386 -32.888023 -69.517731

v 159.260468 -26.554291 -71.162964

v 105.603317 -66.213608 -70.201653

v 84.536224 24.678230 -66.652451

v 72.894249 19.777569 -67.440796

v 69.862396 12.970274 -67.061714

v 62.902107 1.050482 -67.498962

v 70.199806 -20.665173 -67.760330

v 54.186356 -42.667492 -67.575012

v 37.316368 -60.021523 -70.245720

v 78.747696 -33.479210 -65.102402

v 147.015793 -3.928824 -67.873657

v 59.291374 -63.671139 -70.240532

v 157.396683 -21.208843 -68.109322

v 104.845070 -54.260239 -69.631302

v 87.914001 -66.663177 -70.115036

v 159.157623 -33.227394 -68.887390

v 77.392685 24.254631 -67.453140

v 68.137894 8.280035 -66.479210

v 108.676353 19.879684 -68.955902

v 65.146194 -6.252950 -65.788063

v 68.456207 -14.699746 -67.771942

v 108.485550 9.777390 -68.425720

v 110.450417 2.465637 -67.083176

v 81.936310 -27.652746 -64.802605

v 46.872078 -50.414612 -66.803391

v 119.118500 -6.211836 -64.657913

v 46.065292 -53.025635 -70.078117

v 53.134789 -55.152374 -70.112923

v 59.041138 -50.532349 -69.269791

v 69.584137 -55.093353 -70.089996

v 79.210114 -56.284702 -69.932541

v 121.717529 -37.680054 -66.485718

v 107.830246 -47.805542 -66.715790

v 134.117432 -33.005905 -66.407845

v 97.745285 -60.065147 -69.871536

v 149.375092 -35.180248 -65.996765

v 92.021698 23.526249 -63.919945

v 100.427948 23.455635 -65.036171

v 108.358650 16.680622 -63.086273

v 63.662998 -32.685066 -65.506111

v 54.238838 -51.429955 -66.072746

v 66.060722 -52.687500 -66.732315

v 145.661896 0.397102 -64.314529

v 79.835510 -55.838501 -66.759499

v 115.707001 -43.492920 -65.738403

v 99.876534 -59.248657 -66.890808

v 139.662399 -36.567989 -64.241966

v 161.886078 -30.311844 -66.203369

v 78.534760 19.475128 -65.536903

v 63.599182 -3.445049 -62.343811

v 109.444908 19.087366 -65.031235

v 65.896866 -18.299915 -63.987793

v 73.089714 -24.797729 -64.308235

v 61.802872 -35.169544 -60.711533

v 72.828339 -31.955124 -64.243134

v 69.355377 -29.451996 -60.910919

v 58.405228 -57.294121 -65.280273

v 66.450340 -57.589554 -65.781189

v 155.618164 -12.533634 -64.560089

v 78.089470 -60.200623 -65.604225

v 90.362610 -62.134468 -65.689819

v 126.089615 -40.822437 -65.048332

v 164.650757 -26.626419 -65.183044

v 111.205193 -49.751167 -65.194878

v 105.124001 -57.807434 -65.198044

v 97.755386 -62.620750 -65.418594

v 79.554955 22.631489 -61.926785

v 76.903053 17.252556 -62.476089

v 70.301910 10.514484 -62.494919

v 67.903030 3.033880 -58.187584

v 62.286491 -9.086498 -61.491936

v 110.802467 11.013901 -59.034363

v 110.167824 5.702526 -59.882614

v 67.942642 -22.975067 -61.148811

v 108.976295 -0.921554 -62.364799

v 58.857407 -49.443558 -60.735596

v 130.240265 -10.153564 -62.696060

v 135.657074 -8.241249 -59.290833

v 56.585876 -57.531631 -59.262680

v 74.028839 -62.327946 -57.974453

v 81.728065 -62.154018 -58.829948

v 111.703606 -41.984299 -56.683197

v 164.009537 -22.879467 -59.361279

v 130.401978 -36.945587 -62.268700

v 110.166199 -50.542625 -59.447250

v 96.353233 -61.778305 -61.671471

v 150.821014 -30.520000 -60.361179

v 160.416046 -30.513416 -60.365128

v 68.931488 17.445068 -61.858131

v 82.873344 23.261978 -60.662872

v 91.371803 21.906837 -59.798630

v 106.943703 16.014145 -58.596489

v 122.014725 -8.954806 -59.501305

v 130.652435 -9.003859 -57.460690

v 147.771347 -5.888462 -58.349052

v 64.329941 -59.784367 -58.605770

v 160.136108 -17.826981 -58.330551

v 157.741394 -13.477325 -58.181030

v 91.457146 -63.232086 -58.596901

v 133.303909 -32.302349 -58.703194

v 106.412064 -56.108994 -61.034355

v 73.005287 21.362091 -58.390381

v 68.125923 9.791527 -55.117088

v 110.151047 0.167261 -59.391945

v 72.689102 -28.719852 -55.517044

v 70.668816 -35.040695 -60.244507

v 118.438141 -37.018642 -57.623707

v 146.162231 -27.922638 -58.293869

v 109.753433 -55.999290 -59.430725

v 105.362465 -62.285294 -59.621746

v 71.417786 18.773964 -54.606133

v 84.875572 15.367050 -54.620090

v 65.530586 -4.953721 -52.454357

v 69.023438 -17.902657 -51.785843

v 109.452072 9.833691 -54.525833

v 116.551361 -8.958186 -53.330780

v 68.376709 -46.661606 -57.358521

v 72.279999 -38.500885 -56.209320

v 139.772141 -5.798541 -55.377720

v 154.624496 -7.572514 -53.772701

v 133.634277 -27.010811 -57.714325

v 144.876816 -22.871071 -57.946964

v 152.839798 -21.138676 -57.875362

v 107.320938 -55.937363 -54.815979

v 101.019218 -59.426624 -54.978180

v 66.720467 5.364437 -54.880230

v 98.764969 14.842842 -54.493584

v 64.873222 0.146518 -55.461353

v 108.671997 -1.738795 -54.694679

v 71.647125 -48.754784 -55.977875

v 148.933548 -1.781918 -53.941216

v 69.434082 -56.681198 -55.885147

v 76.241234 -58.365086 -55.771683

v 160.876343 -15.415366 -55.251781

v 140.034042 -21.970707 -50.707771

v 149.413574 -19.308825 -50.617805

v 90.403572 -60.639160 -55.705959

v 154.277115 -17.146610 -52.384331

v 74.900230 11.069496 -54.362686

v 64.509750 3.474982 -50.936913

v 80.811531 11.005234 -54.358410

v 100.571648 2.676750 -54.362999

v 85.664795 6.917564 -52.895004

v 113.725220 -4.960052 -50.661484

v 124.910461 -10.341236 -50.777016

v 138.897781 -6.562325 -50.701378

v 74.466347 -39.891373 -49.775948

v 72.194427 -55.399090 -52.678589

v 75.239944 -58.436935 -53.125874

v 126.121063 -29.462376 -48.997459

v 114.049271 -38.814507 -48.992313

v 90.962341 -61.228683 -53.160446

v 108.751831 -48.051655 -49.311539

v 105.262665 -57.135292 -48.634354

v 103.972649 -61.258297 -52.078987

v 77.587326 11.834816 -50.843414

v 89.216331 6.982452 -50.777008

v 97.783699 3.936371 -50.688576

v 104.377968 0.021965 -50.866096

v 148.995193 -9.377495 -50.510784

v 79.484543 -64.618202 -52.334343

v 92.605827 -65.144005 -52.303482

v 64.838989 12.203865 -50.585323

v 73.025406 18.684006 -49.871956

v 89.655548 13.785629 -50.510921

v 97.085182 15.012207 -47.336319

v 106.373291 8.983505 -50.374718

v 65.353905 -12.291498 -48.359371

v 69.503677 -23.577438 -48.545456

v 117.140228 -6.337387 -45.572906

v 132.483582 -16.833109 -50.478825

v 72.802505 -50.075371 -49.414001

v 73.584274 -61.118435 -49.037132

v 130.877365 -22.739271 -49.063538

v 89.803436 -64.004013 -48.386757

v 81.277512 -62.957054 -45.292614

v 97.952332 -61.434280 -47.533966

v 60.711815 11.337699 -46.366180

v 63.093582 17.978241 -48.107903

v 78.276672 22.069992 -46.312378

v 86.270103 19.287666 -47.422363

v 61.311279 -1.279550 -44.568527

v 107.016434 9.879266 -47.488358

v 69.859428 -42.131844 -48.285690

v 65.987450 -30.418695 -45.044666

v 126.019775 -11.092300 -44.409630

v 69.468872 -48.631119 -48.204262

v 127.624039 -17.016363 -48.464363

v 68.171188 -55.543736 -48.053192

v 108.137550 -29.532434 -47.968437

v 106.112602 -35.250771 -48.468723

v 102.918785 -45.881737 -47.220154

v 63.871632 18.275085 -45.185455

v 60.159985 5.885826 -44.028244

v 67.418770 -13.905632 -44.817551

v 114.314011 -0.612926 -41.105995

v 66.535698 -40.731415 -44.904076

v 71.446861 -47.596230 -43.826954

v 116.939163 -24.673847 -40.191177

v 71.470001 -50.139587 -45.147297

v 71.643745 -61.166138 -45.331936

v 99.930901 -54.739880 -46.312454

v 94.977470 -61.360291 -43.619274

v 70.814392 13.371368 -44.295109

v 85.327179 20.848106 -42.571350

v 103.426033 12.198021 -42.913971

v 52.550194 -39.555855 -45.103958

v 51.416973 -28.451679 -42.920979

v 56.858940 -27.175232 -44.614235

v 69.536499 -26.944973 -41.147339

v 49.402771 -45.725906 -41.828903

v 48.942345 -44.435814 -43.233917

v 55.911488 -45.948769 -44.869766

v 61.917809 -45.696594 -42.595985

v 123.986641 -17.151276 -42.263618

v 77.051437 -50.865120 -42.360229

v 79.796867 -54.465370 -43.120625

v 85.005417 -62.531391 -43.243435

v 102.465042 -47.662895 -40.223404

v 98.358147 -54.029564 -42.616566

v 62.218849 12.467300 -40.074520

v 61.747147 5.597870 -39.139008

v 73.311783 15.376949 -39.285049

v 98.270828 17.472021 -41.608807

v 62.683029 -5.632263 -37.298798

v 40.570740 -40.304741 -43.292870

v 41.281483 -31.501022 -40.272453

v 62.754555 -31.063217 -39.179962

v 41.026672 -45.619812 -41.271744

v 123.454041 -8.307213 -39.268982

v 58.132603 -45.850960 -38.454346

v 107.387085 -34.127106 -39.876511

v 88.805199 -53.582264 -41.235016

v 70.434761 15.059492 -39.952148

v 85.229858 18.137653 -39.120888

v 103.949532 13.607573 -39.382679

v 27.423515 -45.225082 -41.226269

v 21.940037 -37.216095 -39.453148

v 23.644897 -36.272579 -41.351795

v 31.516096 -31.314676 -40.784153

v 37.507893 -37.858925 -41.495270

v 112.520859 1.752609 -39.183498

v 51.792145 -31.809937 -39.138908

v 71.685509 -24.473339 -36.436058

v 66.274979 -45.409218 -38.897942

v 126.890518 -18.466675 -39.341263

v 102.232483 -54.016205 -36.074417

v 90.781471 4.651331 -38.915207

v 101.771210 -0.881653 -38.969570

v 30.865715 -34.416962 -34.722824

v 68.163887 -16.423164 -34.228027

v 23.690895 -40.886814 -34.222519

v 37.179207 -49.660522 -36.879578

v 113.247078 -7.485039 -38.661308

v 49.199097 -50.504288 -36.420258

v 129.175842 -10.571083 -38.684677

v 131.919983 -17.260132 -38.724457

v 75.182236 -50.557808 -34.208973

v 125.234009 -25.106033 -38.157623

v 113.266388 -34.540314 -37.318771

v 82.980125 -53.595093 -32.724968

v 109.772003 -46.661636 -36.810944

v 67.503830 12.282318 -35.338928

v 76.044144 8.595959 -36.484459

v 64.165222 3.714020 -35.242554

v 84.839027 5.693687 -33.886059

v 92.775536 1.388218 -33.134953

v 49.652679 -35.402527 -35.279083

v 26.911890 -45.455215 -35.055294

v 58.631180 -34.958344 -34.747620

v 100.947929 -2.455344 -31.959776

v 65.427704 -33.847404 -33.320976

v 59.369873 -49.497726 -34.942215

v 117.312302 -10.105202 -34.314667

v 131.891541 -9.114820 -33.418114

v 64.737396 -48.199478 -34.025902

v 137.134399 -11.951385 -34.981628

v 137.855255 -20.019501 -33.989044

v 132.618164 -24.054155 -36.600616

v 123.389290 -32.891319 -36.887569

v 119.707535 -40.048546 -37.014698

v 97.581451 -57.819702 -30.674438

v 70.435852 8.391411 -33.032600

v 66.548096 -4.627899 -33.284973

v 40.126541 -38.425964 -31.575439

v 72.443741 -29.970711 -33.921143

v 71.869888 -25.898115 -30.405151

v 29.260185 -49.914482 -34.519814

v 109.421265 -5.498540 -26.857899

v 43.586788 -52.108124 -31.092941

v 142.445557 -14.706028 -32.344437

v 133.232620 -24.543713 -32.297806

v 121.310425 -37.909786 -31.998047

v 117.832611 -44.848492 -34.861076

v 113.575615 -53.189758 -34.901588

v 72.597878 1.351654 -30.012627

v 78.309036 1.687634 -33.081249

v 67.422333 -8.765060 -29.955933

v 70.247787 -15.987041 -29.289566

v 30.393280 -38.801056 -33.163391

v 54.787323 -36.890884 -28.850525

v 41.596130 -53.624336 -29.867342

v 27.432814 -50.699753 -29.695829

v 114.396317 -11.904412 -31.362385

v 57.902538 -50.465004 -29.837893

v 73.147797 -44.738132 -32.915352

v 137.382492 -11.060790 -29.842926

v 125.116226 -32.919643 -32.233330

v 103.731354 -60.049606 -29.173004

v 116.052567 -48.095024 -31.844391

v 76.744682 -1.535110 -29.086498

v 91.324890 0.857931 -26.489405

v 32.959885 -42.148163 -29.334503

v 28.715786 -48.844627 -27.643158

v 122.393738 -13.876051 -29.291819

v 73.722588 -45.227203 -29.766443

v 76.831406 -56.546982 -29.709131

v 139.028244 -17.176292 -28.917099

v 126.543449 -28.515902 -30.165543

v 115.711426 -40.606087 -27.062408

v 101.026283 -0.987866 -28.123587

v 39.670303 -41.601837 -27.889648

v 66.625473 -31.253822 -26.831894

v 27.447643 -54.300941 -29.729877

v 115.869225 -9.346230 -24.830017

v 37.181282 -64.343719 -29.858315

v 32.966866 -64.155884 -27.742683

v 68.098267 -71.908012 -29.773264

v 55.569962 -76.713745 -29.768051

v 38.163696 -74.069656 -27.854294

v 120.281326 -35.230499 -26.143341

v 66.846588 -76.702942 -29.638479

v 96.517609 -63.387192 -27.784199

v 77.538246 -60.907593 -27.951759

v 72.292542 -70.862907 -27.883526

v 112.664383 -48.350861 -26.355888

v 84.352661 -75.660751 -29.704523

v 111.755684 -56.200569 -27.491615

v 85.780457 -86.303009 -29.665321

v 97.194763 -70.762146 -27.789345

v 97.763039 -73.846069 -29.667307

v 96.331871 -89.167313 -29.573990

v 107.769966 -76.305161 -29.162560

v 108.538383 -84.398613 -28.515976

v 80.631615 -1.878006 -25.612816

v 99.272964 -3.412518 -24.769974

v 69.632065 -23.058266 -24.823151

v 47.954334 -42.422333 -26.968292

v 59.786922 -38.458912 -24.097256

v 128.704163 -11.294499 -23.938511

v 31.191341 -69.922501 -27.558731

v 135.353271 -13.484786 -22.687836

v 130.894241 -25.533325 -22.761520

v 56.366386 -78.830757 -22.542965

v 49.859634 -76.877747 -23.612320

v 112.231812 -66.287949 -27.571598

v 77.028305 -84.074669 -25.568634

v 90.382996 -88.881485 -22.498032

v 110.242188 -77.241913 -26.444244

v 100.015846 -85.813065 -24.107599

v 77.356369 -2.364398 -21.136438

v 73.377411 -11.113579 -21.011292

v 88.882118 -3.771040 -24.646690

v 71.733788 -15.572194 -23.787018

v 35.539284 -45.117126 -24.819016

v 71.796501 -25.592194 -22.617668

v 48.316513 -43.474152 -24.270119

v 26.574154 -56.567863 -23.959442

v 30.845385 -62.820808 -24.399416

v 30.600388 -72.579323 -24.528099

v 137.550323 -18.520029 -22.096699

v 115.592850 -41.062279 -22.632946

v 113.727661 -45.786602 -22.613014

v 113.636581 -52.439777 -22.906126

v 67.232819 -81.800301 -22.401215

v 113.458054 -57.740139 -22.827728

v 113.203270 -67.002670 -24.705872

v 97.973160 -87.731071 -21.803497

v 86.506035 -2.505379 -21.024353

v 96.595390 -2.745014 -20.046904

v 35.801376 -49.280548 -21.656601

v 109.350151 -7.477088 -19.709816

v 42.584305 -48.293015 -21.571129

v 114.452217 -9.262781 -19.938370

v 69.357010 -36.963776 -23.549576

v 63.320412 -45.886719 -22.796753

v 24.829214 -65.446259 -23.909531

v 127.991760 -12.846651 -21.284813

v 28.671410 -78.196022 -23.083900

v 36.983704 -79.216675 -22.517334

v 83.095444 -89.682922 -22.160011

v 109.529266 -77.768509 -22.042831

v 71.612152 -18.304247 -17.959297

v 29.814587 -53.574524 -16.070736

v 21.048346 -67.146042 -18.585396

v 57.719177 -50.878120 -21.559242

v 23.012030 -73.674515 -18.825970

v 66.407181 -47.870117 -21.177200

v 129.649109 -22.176512 -21.064079

v 120.769577 -31.605724 -19.471169

v 49.758621 -83.951324 -21.453438

v 117.538132 -36.561230 -18.814198

v 110.821526 -40.035122 -19.932098

v 59.489246 -88.084335 -22.039482

v 111.604942 -54.568039 -16.227974

v 75.473625 -91.669128 -21.897423

v 112.234955 -64.071075 -15.936870

v 111.566727 -69.886612 -16.566853

v 107.737427 -82.856865 -21.075439

v 79.935410 -6.125168 -19.322655

v 87.099739 -4.839481 -16.338011

v 69.960823 -24.105093 -18.379482

v 45.423225 -49.625969 -16.801979

v 69.415665 -33.463184 -16.258270

v 69.091461 -45.206673 -16.643532

v 59.186550 -51.416512 -16.470776

v 25.329170 -77.341103 -18.942297

v 132.107971 -19.645592 -15.493286

v 33.152313 -75.444214 -18.155823

v 44.193062 -80.756844 -18.304413

v 111.861557 -48.357979 -16.277023

v 60.485622 -90.196075 -15.648312

v 111.237640 -58.177372 -17.629768

v 65.986404 -92.350525 -18.046448

v 73.574371 -94.307465 -18.284973

v 111.806900 -75.054161 -15.327150

v 109.897881 -80.322311 -15.921967

v 87.739433 -93.543823 -17.253281

v 106.267639 -85.601410 -16.736328

v 77.634628 -11.066703 -16.302414

v 97.889168 -5.573933 -16.381741

v 73.825607 -21.089001 -15.735001

v 68.145157 -30.456295 -15.178467

v 36.372452 -48.713173 -14.685699

v 117.746529 -10.319871 -13.336422

v 129.544617 -13.314678 -14.371063

v 128.890961 -25.368376 -15.723076

v 114.124252 -42.458061 -14.970779

v 103.176025 -90.275696 -16.134186

v 86.979973 -9.757782 -15.744637

v 107.712425 -9.844879 -12.517456

v 41.220032 -47.011475 -12.238281

v 56.252117 -44.351913 -16.199406

v 26.345425 -70.587280 -14.783504

v 24.860189 -65.345100 -14.133586

v 44.191010 -76.046936 -14.763124

v 125.096878 -28.209831 -10.735310

v 118.784805 -34.720814 -10.927582

v 52.601418 -83.794327 -14.872550

v 111.354332 -50.952225 -13.423134

v 111.151451 -56.840797 -11.081131

v 67.274208 -95.587021 -10.974350

v 72.271622 -97.938461 -14.273132

v 84.986938 -101.087067 -14.234100

v 93.562592 -96.196350 -16.071930

v 77.797607 -21.058201 -9.399002

v 96.732788 -13.267189 -11.078697

v 72.096069 -25.656097 -9.505386

v 60.496979 -35.833054 -13.281158

v 46.593338 -42.183762 -10.283539

v 121.306969 -12.124575 -10.296831

v 42.780537 -71.903046 -13.987848

v 130.459732 -23.486822 -10.895599

v 49.919106 -75.295067 -13.242050

v 55.216755 -80.284515 -13.587831

v 114.055862 -43.327274 -10.668976

v 108.709892 -66.071053 -8.252144

v 109.528381 -73.862808 -7.889056

v 107.018188 -91.220856 -10.767517

v 96.133278 -99.776299 -12.581894

v 88.867256 -14.863441 -11.139107

v 31.642101 -45.590134 -9.121933

v 59.443176 -34.099556 -6.414734

v 23.382000 -58.987980 -9.092842

v 107.688858 -12.493234 -9.469353

v 35.035671 -63.829323 -11.699947

v 134.649887 -16.750122 -8.416580

v 116.626839 -39.080578 -10.281967

v 112.728310 -49.161423 -9.484562

v 63.403530 -85.875610 -9.184580

v 55.463898 -80.311539 -8.986579

v 82.256699 -102.085625 -10.913475

v 112.499237 -79.722221 -7.904541

v 93.255241 -98.317154 -10.823425

v 102.454117 -93.349960 -9.801170

v 23.405308 -64.722839 -8.693120

v 117.292351 -10.142592 -5.953561

v 33.682060 -63.614128 -9.094795

v 41.158016 -69.537460 -9.015575

v 131.635468 -10.499630 -8.208355

v 41.680065 -71.884888 -6.158546

v 79.102905 -95.651917 -10.092802

v 88.895622 -92.375717 -6.119812

v 112.564636 -86.863068 -7.567566

v 78.211090 -19.868065 -3.755814

v 87.668991 -18.463793 -4.794146

v 100.948982 -13.705557 -4.760774

v 31.976433 -70.487839 -8.448599

v 25.578836 -71.861092 -8.481880

v 127.101532 -9.346950 -6.075943

v 140.343613 -11.022347 -6.051876

v 50.009827 -74.935776 -6.161339

v 130.395767 -24.849049 -5.206207

v 123.527466 -32.497810 -4.626648

v 117.683556 -38.972717 -3.432930

v 113.164017 -44.660397 -6.565336

v 110.388962 -52.085384 -2.905014

v 68.716095 -83.195190 -7.999731

v 79.191628 -89.245842 -8.152770

v 94.236626 -94.471825 -6.786240

v 111.461746 -92.434998 -5.443054

v 28.381271 -49.324120 -3.929977

v 37.527588 -40.977665 -1.229357

v 61.182835 -27.827225 -0.854623

v 49.630226 -39.800804 -5.456573

v 24.184889 -55.118542 -0.988804

v 109.917282 -11.647809 -4.669219

v 25.794151 -70.512344 -0.412994

v 130.306503 -10.437073 -3.313759

v 134.872711 -9.113751 -4.411036

v 138.110367 -19.900890 -1.212859

v 57.042309 -79.815430 -3.003870

v 113.415802 -46.587677 -3.235569

v 110.794212 -56.506069 -3.463493

v 110.797577 -62.000988 0.242317

v 73.513580 -86.895683 -3.123967

v 110.829430 -70.659454 -5.585754

v 110.671379 -77.702049 0.384668

v 112.470085 -86.736771 0.181816

v 22.162333 -62.230808 0.400553

v 99.261909 -20.603935 -4.277568

v 115.619217 -16.996685 -4.151237

v 107.044464 -21.553978 -0.735502

v 36.050568 -77.522392 -2.238464

v 32.157757 -75.574013 -0.854214

v 89.718903 -93.050552 -3.005082

v 100.095795 -94.883621 -2.910846

v 110.966743 -94.376480 -2.911343

v 73.649849 -17.448225 -0.823360

v 26.932158 -45.828354 -0.088860

v 54.663910 -34.496311 -1.092724

v 84.121635 -17.035393 -0.901654

v 95.093651 -22.444801 -1.258285

v 102.661797 -21.193054 -0.604917

v 115.656677 -19.494900 -0.639297

v 127.125000 -13.336384 -0.695667

v 138.023483 -12.013607 -1.034378

v 131.000381 -26.617369 -0.672399

v 46.548515 -83.540421 -2.368748

v 114.631882 -37.686287 -0.800467

v 109.807472 -42.588470 -2.143093

v 56.430176 -86.337234 -2.900427

v 52.838272 -86.838303 -0.203488

v 60.311367 -92.143028 -0.780380

v 72.027382 -97.778801 -2.897578

v 110.816299 -68.989922 0.497631

v 97.212234 -104.227417 -2.819855

v 78.455811 -103.535164 -0.673336

v 113.072723 -101.851814 -2.681904

v 111.091492 -108.472115 -2.593719

v 106.485909 -111.012024 -1.077820

v 66.941513 -7.362969 -0.721554

v 49.634026 -9.131538 -0.486866

v 56.881416 -3.140839 1.988308

v 46.470398 -13.404437 -0.478849

v 43.909248 -17.744591 -0.007758

v 38.089748 -29.920837 -0.809394

v 41.237003 -22.138653 -0.238932

v 38.802589 -26.788851 0.563095

v 84.114967 -10.522852 1.643871

v 34.314037 -34.555351 -0.287566

v 30.767902 -39.953979 -0.388720

v 95.913361 -16.574697 -0.422768

v 107.848793 -29.855488 0.458672

v 112.321014 -39.585014 0.906403

v 41.232956 -80.080070 1.969761

v 108.195694 -45.013313 0.500374

v 109.217682 -55.245533 0.271461

v 70.906372 -98.648064 -0.393982

v 97.862030 -107.234657 -1.063148

v 115.385422 -100.042656 0.780495

v 92.237831 -110.379318 -0.703972

v 112.603226 -109.361900 0.639420

v 113.125885 -115.527206 1.394073

v 71.438461 -3.822738 2.125928

v 45.532516 -19.064997 4.129089

v 31.357059 -41.316170 2.513702

v 24.514559 -54.996532 2.624044

v 89.646332 -14.044352 4.083485

v 99.776733 -19.828932 4.158518

v 26.392796 -64.596550 3.746782

v 111.863991 -48.304874 2.051301

v 111.972679 -56.913177 2.001019

v 60.285137 -89.385849 2.277023

v 114.037300 -65.962364 1.889076

v 67.802544 -93.079575 3.196522

v 115.535843 -73.402679 1.784451

v 115.631622 -83.888763 1.825493

v 81.932983 -106.982872 4.329771

v 120.161850 -98.532150 1.586231

v 96.355461 -116.685097 4.562775

v 118.535599 -107.339790 1.354687

v 102.601929 -117.226006 1.775391

v 50.213684 -10.609474 4.448975

v 59.284790 -3.456387 5.080463

v 34.788494 -42.792236 3.216759

v 31.913406 -50.073338 3.103531

v 28.370972 -58.789032 3.583427

v 32.762741 -71.505112 4.812918

v 108.183365 -31.498863 6.640942

v 45.523994 -84.340569 7.202779

v 109.711006 -43.397743 6.684212

v 73.765121 -99.313797 4.224168

v 118.745888 -89.842651 8.489334

v 119.949615 -99.156456 10.371887

v 116.847130 -112.858673 7.534424

v 107.495895 -119.035927 7.045258

v 63.506844 -3.387077 6.920072

v 48.424324 -22.769310 6.655918

v 82.314117 -7.107929 6.483027

v 45.603775 -29.735853 7.870766

v 37.190491 -40.822037 6.198845

v 89.923691 -13.627768 6.906359

v 34.002472 -51.731285 6.877373

v 103.459267 -21.467075 6.457218

v 109.106262 -47.768349 8.690773

v 58.846428 -89.052429 6.019573

v 109.710487 -58.889313 8.358398

v 113.455315 -72.242477 10.364250

v 68.353500 -101.238724 6.601703

v 76.247177 -107.913567 5.216889

v 116.173141 -82.183311 9.321579

v 84.616074 -114.419975 5.340788

v 58.958580 -17.535608 6.934369

v 62.116150 -20.500774 8.693068

v 52.893089 -23.919271 8.881361

v 81.899727 -22.147964 7.001393

v 41.647278 -42.341331 8.156402

v 78.951294 -23.931999 8.777258

v 98.658371 -19.594631 6.990976

v 33.277000 -62.492687 9.837618

v 99.563622 -36.867569 7.004415

v 94.928650 -37.736752 8.882925

v 40.104000 -75.366653 9.391588

v 58.108498 -93.726791 8.001265

v 71.432526 -101.674545 8.922371

v 81.505524 -112.515984 7.884163

v 92.481339 -116.632553 8.066147

v 48.388351 -26.619324 12.244049

v 42.023769 -33.328339 10.478806

v 43.057453 -31.297075 11.711399

v 61.086884 -27.825834 10.719720

v 75.211739 -27.291237 8.934980

v 37.594318 -47.555878 10.396753

v 32.937294 -52.321083 10.896042

v 88.277710 -38.145744 10.680799

v 46.373928 -81.656921 10.025015

v 107.666473 -61.665337 10.714104

v 51.353699 -88.644211 13.798678

v 62.905884 -96.278954 13.637642

v 88.084045 -111.136353 8.901375

v 94.478836 -111.977470 11.756744

v 114.125549 -109.744781 11.302734

v 35.809059 -33.294426 14.244177

v 33.978050 -37.006535 11.309155

v 63.797222 -32.349052 12.527349

v 80.633713 -38.110950 10.862915

v 39.151630 -73.340439 16.022194

v 43.824074 -80.610924 13.714340

v 100.933220 -63.015915 10.846807

v 87.817474 -50.742691 12.758232

v 110.563889 -76.198746 11.146866

v 82.725800 -104.819527 11.683289

v 114.658997 -91.675720 15.241730

v 103.645584 -114.665649 13.261723

v 52.119446 -33.358074 12.722557

v 46.060722 -35.021893 14.398479

v 32.419785 -41.081623 14.164509

v 28.348541 -45.373840 13.076473

v 26.507845 -51.137024 14.619891

v 72.453819 -41.122341 12.741309

v 78.904449 -40.340759 12.556313

v 68.725182 -41.776691 14.493503

v 92.879257 -57.334854 14.334665

v 102.808044 -68.876434 14.046242

v 109.073517 -80.192093 14.731445

v 76.933449 -102.651115 15.673878

v 87.145493 -107.663338 15.576057

v 115.213501 -103.619705 15.262329

v 108.303787 -113.822678 17.049225

v 29.386055 -45.283440 16.664677

v 36.378372 -44.412823 18.038591

v 52.546242 -43.000267 14.618864

v 44.843842 -44.770893 18.244961

v 34.424866 -63.829254 16.116802

v 70.741882 -50.257324 14.777362

v 55.240768 -84.215546 15.691925

v 89.695641 -61.822018 16.289051

v 101.262253 -72.141647 15.015358

v 69.218887 -97.457672 16.051643

v 93.496948 -112.017067 15.667313

v 32.922676 -57.456535 18.209932

v 52.869133 -46.520611 19.922575

v 59.755707 -48.107338 21.165611

v 52.654957 -77.035248 16.501802

v 46.146729 -68.507271 18.154438

v 60.706696 -84.460342 16.540642

v 69.627602 -93.230858 16.626465

v 82.155823 -102.695618 16.702835

v 106.024643 -79.294868 19.222763

v 110.389542 -85.932678 19.448505

v 113.909187 -95.202538 19.926613

v 100.603836 -112.335983 20.119812

v 111.109100 -100.749298 20.212463

v 41.510136 -56.285988 18.312515

v 43.668957 -52.976559 20.195814

v 51.868576 -72.979767 20.139172

v 70.148422 -53.607697 21.872213

v 59.953350 -81.364952 19.679222

v 95.505783 -71.218391 21.996874

v 73.440918 -89.874664 20.092560

v 84.304611 -100.513496 19.947018

v 95.135384 -109.472748 20.155701

v 50.543365 -59.540947 20.416586

v 53.755058 -51.974586 22.063044

v 84.004105 -61.597275 21.794537

v 58.866020 -76.168488 20.939400

v 65.076233 -79.071564 21.396225

v 82.678261 -93.332184 21.883720

v 105.786758 -86.073280 22.173798

v 100.788338 -102.577980 20.295858

v 103.797379 -100.027939 22.195343

v 58.611103 -54.438828 23.635071

v 65.258774 -55.716324 23.952347

v 55.803253 -71.451233 24.018253

v 69.305038 -75.994247 24.050367

v 84.109039 -69.603073 24.100548

v 94.798523 -80.630646 22.311653

v 85.980759 -88.365425 23.958237

v 94.270538 -87.252151 23.992432

f 1 2 3
f 4 5 1
f 4 6 5
f 1 3 4
f 7 8 3
f 4 3 9
f 4 10 6
f 8 9 3
f 9 10 4
f 9 11 10
f 8 12 9
f 12 13 9
f 14 15 16
f 2 16 17
f 16 5 14
f 18 14 5
f 2 1 16
f 1 5 16
f 3 2 19
f 20 3 19
f 3 20 21
f 22 5 6
f 7 3 21
f 10 11 23
f 12 8 7
f 13 12 24
f 25 17 15
f 15 26 25
f 15 17 16
f 26 15 14
f 2 17 27
f 14 18 26
f 27 19 2
f 5 28 18
f 28 5 22
f 6 29 22
f 30 7 21
f 29 6 10
f 10 23 29
f 12 7 31
f 24 12 31
f 9 32 11
f 32 9 13
f 33 34 25
f 34 17 25
f 34 35 17
f 33 25 26
f 35 27 17
f 36 19 27
f 37 18 28
f 19 38 20
f 38 39 20
f 20 39 21
f 29 28 22
f 30 21 39
f 7 30 31
f 11 40 23
f 11 32 40
f 32 13 41
f 13 24 41
f 33 37 34
f 33 26 37
f 42 27 35
f 26 18 37
f 36 27 42
f 34 37 43
f 36 38 19
f 28 43 37
f 39 38 44
f 30 39 44
f 44 45 30
f 46 28 29
f 46 29 23
f 47 31 30
f 48 31 47
f 48 24 31
f 47 49 48
f 32 41 40
f 24 48 50
f 50 41 24
f 34 43 35
f 35 43 42
f 38 36 51
f 52 53 54
f 38 51 44
f 55 44 51
f 56 42 43
f 57 58 54
f 51 59 55
f 52 54 58
f 58 60 61
f 62 53 52
f 55 59 63
f 45 55 63
f 58 61 64
f 52 58 65
f 44 55 45
f 58 64 65
f 43 28 56
f 63 66 45
f 61 67 64
f 46 56 28
f 66 63 68
f 45 66 69
f 65 64 70
f 47 30 45
f 71 69 66
f 69 47 45
f 40 46 23
f 69 71 49
f 49 47 69
f 49 71 72
f 72 73 49
f 49 50 48
f 74 40 41
f 50 49 73
f 36 42 75
f 76 77 78
f 76 54 77
f 79 51 36
f 57 54 76
f 80 81 82
f 77 54 53
f 83 80 82
f 84 85 77
f 59 83 82
f 84 77 53
f 85 84 82
f 56 86 42
f 82 68 59
f 87 88 61
f 57 60 58
f 84 53 62
f 61 88 67
f 84 89 82
f 89 68 82
f 62 89 84
f 59 68 63
f 89 62 90
f 91 56 46
f 56 91 86
f 52 65 62
f 92 66 68
f 65 93 62
f 89 92 68
f 64 67 94
f 70 93 65
f 92 95 66
f 94 70 64
f 40 91 46
f 71 66 95
f 91 74 96
f 74 91 40
f 97 98 72
f 98 73 72
f 74 41 99
f 41 50 99
f 50 73 100
f 101 99 50
f 102 103 78
f 102 81 104
f 105 81 80
f 78 103 76
f 76 103 106
f 80 83 105
f 105 83 107
f 108 79 36
f 36 75 108
f 102 85 81
f 102 78 77
f 109 107 83
f 79 109 51
f 85 102 77
f 106 57 76
f 51 109 59
f 75 42 86
f 110 111 87
f 106 110 60
f 85 82 81
f 57 106 60
f 109 83 59
f 87 60 110
f 60 87 61
f 67 88 87
f 87 112 67
f 90 113 89
f 94 67 112
f 90 62 93
f 113 92 89
f 70 114 93
f 92 113 115
f 116 86 96
f 86 91 96
f 92 117 95
f 117 92 115
f 101 116 96
f 95 118 71
f 116 101 119
f 118 72 71
f 72 118 97
f 99 96 74
f 96 99 101
f 100 73 98
f 101 50 120
f 50 100 120
f 121 104 122
f 104 121 102
f 123 105 124
f 125 122 104
f 103 102 121
f 105 123 125
f 125 104 81
f 105 125 81
f 79 108 126
f 79 126 109
f 127 110 106
f 127 111 110
f 86 128 75
f 111 112 87
f 113 90 129
f 130 86 119
f 113 129 131
f 90 93 132
f 86 116 119
f 114 132 93
f 113 131 115
f 94 133 70
f 134 114 70
f 95 117 135
f 135 118 95
f 136 119 120
f 118 136 97
f 120 119 101
f 120 100 136
f 98 97 136
f 136 100 98
f 137 123 124
f 123 138 125
f 139 122 138
f 125 138 122
f 122 139 121
f 140 141 142
f 141 140 108
f 121 143 103
f 105 107 124
f 126 108 140
f 103 143 127
f 141 108 75
f 75 144 141
f 103 127 106
f 107 145 146
f 109 145 107
f 126 145 109
f 128 144 75
f 127 147 111
f 130 128 86
f 112 148 94
f 129 90 132
f 148 133 94
f 149 150 119
f 151 115 152
f 119 136 149
f 135 115 151
f 149 135 151
f 132 114 153
f 115 135 117
f 136 135 149
f 133 134 70
f 134 153 114
f 135 136 118
f 154 137 155
f 154 138 137
f 156 138 154
f 137 138 123
f 138 156 139
f 157 137 124
f 158 121 139
f 159 140 142
f 159 142 141
f 141 144 159
f 143 121 158
f 107 160 124
f 146 160 107
f 161 127 143
f 162 163 164
f 163 144 128
f 128 164 163
f 128 130 165
f 112 111 166
f 119 150 130
f 131 167 168
f 169 152 168
f 131 129 170
f 152 131 168
f 132 170 129
f 115 131 152
f 133 148 171
f 149 151 172
f 153 173 132
f 134 133 174
f 153 134 174
f 155 175 176
f 154 155 176
f 155 177 175
f 177 155 157
f 157 155 137
f 178 177 157
f 178 157 160
f 160 179 178
f 157 124 160
f 159 180 140
f 159 144 180
f 126 140 180
f 144 163 162
f 127 161 181
f 127 181 182
f 183 146 145
f 184 162 164
f 146 183 185
f 127 182 147
f 184 164 186
f 164 128 165
f 166 111 147
f 164 165 186
f 165 187 186
f 166 188 112
f 148 112 188
f 130 187 165
f 167 189 168
f 189 169 168
f 187 130 150
f 188 190 148
f 152 169 172
f 131 170 191
f 152 172 151
f 171 148 190
f 149 192 150
f 170 193 191
f 153 194 173
f 174 133 171
f 132 173 170
f 173 193 170
f 153 195 194
f 153 174 195
f 175 196 176
f 175 177 197
f 156 154 176
f 177 178 198
f 176 199 156
f 199 139 156
f 158 139 199
f 160 200 179
f 161 143 158
f 200 160 146
f 201 126 180
f 202 201 180
f 144 202 180
f 201 203 126
f 144 162 202
f 200 146 185
f 145 126 203
f 161 204 181
f 203 183 145
f 205 162 184
f 166 147 182
f 186 206 184
f 186 207 208
f 207 186 187
f 169 189 172
f 209 187 150
f 167 131 191
f 172 210 149
f 194 171 190
f 210 192 149
f 195 171 194
f 211 193 173
f 174 171 195
f 196 175 212
f 196 213 176
f 213 214 176
f 215 197 198
f 197 177 198
f 216 198 178
f 176 214 199
f 216 178 179
f 162 205 202
f 217 183 203
f 185 183 217
f 218 205 184
f 219 166 182
f 218 184 206
f 208 206 186
f 188 166 220
f 167 221 189
f 222 207 187
f 172 189 223
f 209 222 187
f 190 188 224
f 225 167 191
f 190 224 226
f 223 227 172
f 227 210 172
f 192 228 150
f 190 226 194
f 213 196 229
f 229 196 212
f 175 197 212
f 230 214 213
f 230 231 214
f 198 216 215
f 232 215 216
f 233 216 179
f 199 234 158
f 234 235 158
f 179 236 233
f 236 179 200
f 235 161 158
f 237 238 201
f 200 217 236
f 201 238 203
f 201 202 237
f 217 200 185
f 204 161 235
f 202 205 237
f 237 205 218
f 219 220 166
f 239 218 206
f 188 220 224
f 225 221 167
f 208 207 222
f 209 150 228
f 211 240 191
f 227 241 210
f 193 211 191
f 226 242 194
f 242 173 194
f 173 242 211
f 212 197 243
f 232 243 197
f 215 232 197
f 244 232 216
f 234 214 231
f 199 214 234
f 244 216 233
f 245 238 237
f 238 246 203
f 247 203 246
f 235 181 204
f 237 218 248
f 249 248 218
f 218 250 249
f 250 218 239
f 182 181 251
f 251 219 182
f 252 250 239
f 219 253 220
f 254 206 208
f 253 224 220
f 224 253 255
f 225 256 257
f 240 256 225
f 256 240 258
f 221 225 257
f 189 259 223
f 240 260 258
f 222 209 261
f 223 259 227
f 225 191 240
f 242 262 260
f 260 240 242
f 228 261 209
f 263 226 224
f 262 242 226
f 192 264 228
f 240 211 242
f 241 192 210
f 229 265 213
f 266 229 212
f 212 267 266
f 267 212 243
f 244 268 232
f 269 244 233
f 237 270 245
f 249 271 248
f 272 217 203
f 203 247 272
f 249 250 271
f 250 252 271
f 253 219 273
f 239 254 252
f 254 239 206
f 254 208 274
f 273 255 253
f 273 275 255
f 274 208 261
f 222 261 208
f 255 275 224
f 224 275 263
f 227 259 276
f 276 264 227
f 228 277 261
f 263 278 226
f 227 264 241
f 264 192 241
f 266 279 229
f 280 267 243
f 265 230 213
f 268 243 232
f 281 231 230
f 268 244 282
f 244 283 282
f 284 231 281
f 231 284 234
f 269 283 244
f 234 284 285
f 234 285 235
f 236 269 233
f 217 286 236
f 237 287 270
f 288 181 235
f 248 287 237
f 287 248 289
f 246 272 247
f 248 271 289
f 289 271 290
f 291 290 292
f 271 254 290
f 290 254 274
f 271 252 254
f 290 274 292
f 292 274 277
f 277 293 292
f 274 261 277
f 257 256 294
f 294 256 258
f 189 221 295
f 295 259 189
f 260 296 258
f 293 277 297
f 264 276 297
f 264 297 277
f 264 277 228
f 298 262 226
f 226 278 298
f 265 229 279
f 230 265 299
f 243 268 280
f 281 230 300
f 284 281 301
f 302 238 245
f 246 238 302
f 289 303 287
f 181 288 251
f 303 289 290
f 291 304 303
f 290 291 303
f 219 251 305
f 273 219 305
f 304 291 292
f 292 306 304
f 306 292 293
f 294 307 257
f 221 257 307
f 307 295 221
f 306 293 297
f 294 258 296
f 297 308 306
f 276 259 295
f 262 296 260
f 309 296 262
f 295 308 276
f 263 275 310
f 297 276 308
f 262 298 309
f 310 278 263
f 311 279 266
f 265 279 311
f 266 267 311
f 300 230 299
f 312 268 282
f 281 300 313
f 301 281 313
f 314 283 269
f 285 288 235
f 286 315 269
f 286 269 236
f 245 316 302
f 317 246 318
f 302 318 246
f 272 246 317
f 245 270 303
f 270 287 303
f 286 217 272
f 304 319 303
f 319 304 320
f 273 305 321
f 320 304 322
f 306 322 304
f 275 273 321
f 322 306 323
f 308 323 306
f 321 310 275
f 294 296 324
f 310 321 325
f 307 294 324
f 295 307 326
f 309 324 296
f 326 327 295
f 308 295 327
f 323 308 328
f 327 328 308
f 329 265 311
f 311 330 329
f 330 311 267
f 267 331 330
f 331 267 280
f 268 332 280
f 268 312 332
f 300 299 301
f 300 301 313
f 282 333 312
f 333 282 283
f 301 334 284
f 335 285 284
f 336 314 269
f 315 336 269
f 288 285 337
f 315 286 317
f 317 286 272
f 303 338 245
f 288 339 251
f 340 305 251
f 341 303 319
f 342 320 322
f 323 343 322
f 307 324 344
f 307 344 326
f 345 325 321
f 324 309 346
f 327 326 347
f 323 328 348
f 348 328 327
f 298 349 309
f 310 325 350
f 298 278 350
f 351 329 330
f 352 265 329
f 352 353 265
f 299 265 353
f 331 351 330
f 332 331 280
f 354 334 301
f 334 335 284
f 335 337 285
f 318 336 315
f 302 316 318
f 315 317 318
f 316 245 338
f 288 355 339
f 303 341 338
f 356 340 251
f 251 339 356
f 321 305 357
f 320 358 319
f 320 342 358
f 322 343 342
f 359 321 360
f 323 361 343
f 309 362 346
f 323 348 361
f 327 347 363
f 348 327 363
f 325 345 350
f 350 349 298
f 278 310 350
f 364 329 351
f 352 329 364
f 365 351 331
f 331 332 365
f 353 354 299
f 301 299 354
f 314 333 283
f 366 337 335
f 367 336 318
f 366 288 337
f 316 368 318
f 338 368 316
f 355 356 339
f 305 340 357
f 319 358 341
f 357 360 321
f 369 344 324
f 362 369 346
f 324 346 369
f 344 347 326
f 370 362 309
f 359 345 321
f 370 309 349
f 363 347 371
f 371 372 363
f 363 372 348
f 372 361 348
f 350 345 349
f 373 364 351
f 373 352 364
f 374 353 352
f 374 354 353
f 375 312 333
f 376 333 314
f 335 334 377
f 314 336 376
f 318 368 367
f 378 288 366
f 288 378 355
f 368 379 380
f 368 338 379
f 379 338 341
f 358 379 341
f 381 357 340
f 357 382 360
f 383 369 362
f 383 362 384
f 370 385 384
f 370 384 362
f 385 370 345
f 345 359 385
f 349 345 370
f 371 347 386
f 372 387 361
f 372 371 386
f 365 373 351
f 374 352 373
f 332 388 365
f 389 354 374
f 390 388 332
f 312 390 332
f 390 312 375
f 377 354 389
f 376 375 333
f 334 354 377
f 366 335 377
f 377 391 366
f 378 366 391
f 380 367 368
f 379 392 380
f 356 381 340
f 381 393 357
f 394 392 379
f 394 379 358
f 357 393 382
f 342 394 358
f 394 342 395
f 360 382 396
f 383 384 397
f 342 343 395
f 398 384 385
f 395 343 399
f 359 360 396
f 396 400 359
f 385 359 400
f 361 399 343
f 399 361 387
f 372 386 387
f 373 365 401
f 388 401 365
f 373 401 374
f 388 390 402
f 403 374 401
f 404 389 374
f 374 403 404
f 403 405 404
f 404 377 389
f 391 377 404
f 376 336 367
f 406 378 391
f 356 407 408
f 356 408 381
f 409 380 392
f 394 410 392
f 395 411 410
f 410 394 395
f 397 412 383
f 412 369 383
f 344 369 413
f 395 414 411
f 398 397 384
f 414 395 399
f 398 385 400
f 415 347 344
f 347 415 386
f 414 399 387
f 416 417 386
f 387 386 417
f 401 402 418
f 402 401 388
f 403 401 418
f 390 375 402
f 405 403 418
f 419 420 405
f 404 405 420
f 420 421 404
f 391 404 421
f 421 406 391
f 380 409 367
f 407 355 378
f 407 356 355
f 381 408 393
f 382 393 422
f 396 382 400
f 412 413 369
f 344 413 415
f 414 423 411
f 423 414 424
f 417 414 387
f 414 417 424
f 425 426 418
f 418 402 425
f 427 418 426
f 418 427 419
f 419 405 418
f 428 429 427
f 419 427 420
f 430 375 376
f 420 427 429
f 429 421 420
f 421 429 406
f 431 376 367
f 367 409 431
f 406 432 378
f 378 432 407
f 407 433 408
f 434 409 392
f 422 393 408
f 408 433 422
f 434 392 410
f 397 422 433
f 410 435 434
f 397 398 422
f 435 410 411
f 422 400 382
f 400 422 398
f 397 433 436
f 436 412 397
f 435 411 423
f 437 438 423
f 424 437 423
f 386 415 416
f 437 424 439
f 416 439 417
f 424 417 439
f 425 440 441
f 425 441 426
f 425 402 440
f 426 442 427
f 443 427 442
f 428 427 443
f 444 402 375
f 445 429 428
f 431 430 376
f 445 406 429
f 431 446 447
f 431 409 446
f 432 448 407
f 449 446 409
f 449 409 434
f 433 407 450
f 448 450 407
f 434 451 449
f 451 434 435
f 450 412 436
f 433 450 436
f 452 413 450
f 452 453 413
f 412 450 413
f 453 415 413
f 453 454 415
f 416 415 454
f 455 426 441
f 455 441 440
f 455 442 426
f 402 456 440
f 456 402 444
f 444 375 430
f 430 431 457
f 406 445 458
f 432 406 458
f 447 446 459
f 446 449 460
f 452 450 461
f 449 451 462
f 435 463 451
f 435 438 463
f 438 435 423
f 464 416 454
f 416 464 439
f 439 465 437
f 455 466 442
f 455 440 466
f 442 466 467
f 467 443 442
f 445 428 468
f 469 470 471
f 431 447 472
f 447 469 471
f 469 473 474
f 469 447 459
f 473 469 475
f 469 459 475
f 475 459 476
f 459 446 460
f 462 460 449
f 450 477 461
f 460 462 478
f 463 462 451
f 462 479 478
f 463 438 462
f 462 438 479
f 480 479 438
f 454 481 464
f 482 464 481
f 438 437 480
f 482 465 464
f 465 480 437
f 439 464 465
f 483 466 440
f 440 456 483
f 483 456 484
f 466 485 467
f 444 484 456
f 443 467 486
f 428 443 486
f 486 468 428
f 430 487 444
f 487 430 457
f 468 458 445
f 488 489 470
f 474 488 470
f 447 471 490
f 469 474 470
f 447 490 472
f 474 491 488
f 458 492 432
f 448 432 492
f 476 493 475
f 476 459 460
f 448 477 450
f 453 452 494
f 478 479 495
f 495 479 482
f 482 479 465
f 465 479 480
f 483 496 466
f 485 466 496
f 485 497 467
f 467 497 486
f 486 497 498
f 498 468 486
f 499 500 501
f 498 458 468
f 502 489 503
f 501 502 503
f 504 458 498
f 503 499 501
f 470 489 505
f 488 503 489
f 470 505 471
f 431 506 457
f 503 491 499
f 490 471 505
f 488 491 503
f 506 431 472
f 474 473 491
f 460 507 476
f 492 508 448
f 477 448 508
f 461 477 508
f 494 452 461
f 454 453 494
f 494 481 454
f 482 481 509
f 509 495 482
f 510 497 485
f 487 484 444
f 497 504 498
f 511 497 510
f 511 504 497
f 512 502 501
f 512 501 500
f 513 487 457
f 499 514 500
f 457 506 513
f 499 491 515
f 516 504 511
f 492 458 504
f 492 504 516
f 491 473 517
f 473 475 493
f 493 517 473
f 476 507 493
f 518 508 492
f 508 518 519
f 460 478 520
f 519 521 508
f 508 521 461
f 494 461 522
f 522 461 521
f 523 520 478
f 523 478 495
f 481 494 524
f 483 525 496
f 525 483 484
f 485 496 525
f 525 526 485
f 484 527 525
f 484 487 527
f 485 526 510
f 526 528 510
f 528 529 510
f 489 502 512
f 511 510 529
f 512 530 489
f 514 499 531
f 505 489 530
f 531 499 515
f 532 490 505
f 516 511 533
f 490 532 534
f 472 490 506
f 517 515 491
f 517 493 535
f 536 492 516
f 493 507 535
f 536 537 492
f 537 518 492
f 535 507 538
f 518 537 539
f 539 519 518
f 520 507 460
f 540 519 539
f 541 519 540
f 521 519 541
f 541 542 521
f 522 521 542
f 494 522 524
f 524 522 543
f 522 542 543
f 509 544 495
f 524 509 481
f 526 525 545
f 545 528 526
f 546 527 487
f 513 546 487
f 500 514 512
f 533 511 529
f 512 547 530
f 505 530 532
f 506 548 549
f 550 531 515
f 516 533 551
f 548 506 490
f 536 516 551
f 548 490 534
f 552 515 517
f 538 507 520
f 540 539 553
f 554 541 540
f 554 542 541
f 495 544 523
f 543 555 556
f 524 543 556
f 524 556 557
f 524 557 509
f 525 527 545
f 545 527 546
f 545 558 559
f 545 559 528
f 529 528 559
f 560 546 513
f 561 560 513
f 512 514 562
f 512 562 547
f 531 562 514
f 549 513 506
f 563 530 547
f 563 532 530
f 532 563 534
f 515 564 550
f 564 565 550
f 551 566 536
f 552 564 515
f 535 567 517
f 520 568 538
f 569 539 537
f 569 553 539
f 554 570 542
f 570 555 542
f 555 543 542
f 544 509 571
f 557 556 572
f 557 571 509
f 545 546 558
f 558 573 559
f 529 559 574
f 562 575 547
f 531 575 562
f 513 549 561
f 576 531 550
f 550 565 576
f 548 534 549
f 517 567 552
f 566 577 536
f 535 538 567
f 538 568 578
f 578 567 538
f 577 537 536
f 537 577 569
f 578 568 520
f 520 579 578
f 569 580 553
f 579 520 523
f 580 540 553
f 540 580 554
f 581 570 554
f 556 555 582
f 544 579 523
f 582 572 556
f 558 546 560
f 573 558 560
f 561 573 560
f 574 583 533
f 533 529 574
f 576 575 531
f 584 547 575
f 547 584 563
f 533 583 551
f 585 534 563
f 586 565 564
f 587 566 551
f 588 586 564
f 552 567 564
f 589 586 588
f 564 567 590
f 567 578 579
f 590 567 579
f 564 591 588
f 591 592 588
f 591 564 590
f 570 581 593
f 591 590 594
f 555 570 593
f 595 596 579
f 590 579 597
f 582 555 593
f 582 598 572
f 544 595 579
f 599 594 590
f 571 595 544
f 557 572 598
f 590 597 599
f 557 598 600
f 571 557 600
f 594 599 601
f 599 602 603
f 603 604 599
f 599 604 601
f 603 605 604
f 604 605 606
f 607 559 573
f 559 607 574
f 583 574 608
f 609 561 549
f 575 576 584
f 584 610 563
f 585 549 534
f 611 585 563
f 566 587 577
f 569 577 612
f 589 592 613
f 588 592 589
f 569 614 580
f 581 554 615
f 615 593 581
f 597 579 596
f 616 617 591
f 595 597 596
f 597 595 602
f 571 600 618
f 595 571 618
f 602 599 597
f 618 602 595
f 601 619 594
f 602 618 605
f 602 605 603
f 601 604 620
f 605 618 621
f 605 621 606
f 606 622 604
f 623 607 573
f 624 623 573
f 625 574 607
f 561 624 573
f 608 574 625
f 626 624 561
f 561 609 626
f 627 584 576
f 551 583 608
f 628 609 549
f 584 627 629
f 629 610 584
f 576 565 586
f 585 628 549
f 576 586 630
f 611 563 610
f 610 629 611
f 586 631 630
f 631 586 589
f 612 577 587
f 589 632 631
f 632 589 613
f 612 614 569
f 613 592 632
f 614 633 580
f 554 580 633
f 633 615 554
f 617 592 591
f 634 635 582
f 598 582 635
f 616 591 594
f 636 600 598
f 594 637 616
f 600 636 638
f 637 594 619
f 600 638 618
f 618 638 639
f 601 620 619
f 618 639 621
f 604 640 620
f 606 621 622
f 640 604 622
f 623 641 607
f 625 607 641
f 625 642 608
f 626 609 628
f 643 627 576
f 608 644 551
f 627 645 629
f 643 645 627
f 551 644 646
f 646 587 551
f 647 585 611
f 628 585 647
f 648 611 629
f 611 648 647
f 629 645 648
f 631 649 630
f 587 650 612
f 649 631 632
f 632 651 649
f 632 652 651
f 632 592 652
f 592 617 652
f 582 593 634
f 598 635 636
f 619 653 637
f 619 620 653
f 621 654 622
f 642 625 641
f 655 626 628
f 644 608 642
f 576 656 643
f 656 576 630
f 657 630 649
f 645 658 648
f 649 659 657
f 650 587 646
f 660 647 648
f 660 648 658
f 659 649 651
f 614 612 650
f 650 633 614
f 650 661 633
f 615 633 661
f 661 593 615
f 593 661 662
f 652 617 663
f 593 662 664
f 617 616 663
f 634 593 664
f 664 665 634
f 665 635 634
f 663 616 666
f 616 637 666
f 638 636 667
f 637 653 668
f 668 666 637
f 669 639 638
f 639 669 670
f 639 670 621
f 654 621 670
f 622 654 671
f 640 622 671
f 623 672 641
f 672 623 624
f 641 673 642
f 624 626 655
f 628 674 655
f 643 675 645
f 676 628 647
f 677 647 660
f 660 658 678
f 660 678 677
f 679 659 651
f 650 680 661
f 679 651 681
f 652 681 651
f 652 682 681
f 652 663 682
f 636 635 683
f 683 667 636
f 666 684 663
f 685 638 667
f 638 685 669
f 668 686 666
f 668 687 686
f 654 670 688
f 654 688 689
f 620 690 653
f 689 671 654
f 640 690 620
f 640 671 691
f 672 692 673
f 673 641 672
f 692 672 624
f 624 655 692
f 642 673 693
f 655 674 694
f 693 644 642
f 674 628 695
f 696 643 656
f 676 695 628
f 675 643 696
f 644 697 646
f 647 677 676
f 675 678 645
f 658 645 678
f 650 646 697
f 698 650 697
f 698 680 650
f 679 681 659
f 661 680 699
f 699 662 661
f 665 664 700
f 665 683 635
f 687 668 690
f 690 668 653
f 671 689 691
f 690 640 701
f 640 691 701
f 692 702 673
f 692 694 702
f 702 693 673
f 694 692 655
f 703 644 693
f 675 696 704
f 677 705 676
f 675 705 678
f 706 707 657
f 657 659 706
f 705 677 678
f 706 659 681
f 708 681 682
f 699 709 662
f 710 662 709
f 710 664 662
f 664 710 700
f 663 711 682
f 700 683 665
f 712 667 683
f 663 684 711
f 685 667 713
f 684 666 686
f 685 713 669
f 686 714 684
f 686 715 714
f 715 686 687
f 690 715 687
f 715 690 716
f 716 690 717
f 690 701 717
f 694 718 702
f 719 693 702
f 694 674 720
f 693 719 703
f 720 674 695
f 630 657 656
f 695 676 721
f 675 704 722
f 722 721 705
f 676 705 721
f 705 675 722
f 697 644 703
f 698 697 723
f 706 724 707
f 706 681 708
f 708 724 706
f 680 725 699
f 699 725 709
f 724 708 726
f 727 726 708
f 711 727 708
f 682 711 708
f 683 700 728
f 711 684 727
f 670 669 729
f 730 689 688
f 689 731 691
f 716 717 732
f 731 701 691
f 717 701 732
f 719 702 733
f 720 718 694
f 696 734 704
f 696 656 734
f 695 735 720
f 735 695 721
f 657 736 656
f 707 736 657
f 703 737 697
f 723 697 737
f 738 707 724
f 698 739 680
f 710 740 700
f 700 740 728
f 728 741 683
f 712 683 741
f 667 712 713
f 727 742 743
f 742 727 684
f 684 714 742
f 669 713 729
f 730 670 729
f 688 670 730
f 715 744 714
f 745 689 730
f 745 731 689
f 744 715 716
f 716 732 746
f 746 744 716
f 731 747 701
f 732 701 747
f 702 718 733
f 734 722 704
f 737 703 719
f 748 736 707
f 748 707 738
f 737 749 723
f 738 750 748
f 738 751 750
f 723 752 698
f 752 739 698
f 751 738 724
f 724 753 751
f 680 739 725
f 724 726 753
f 727 743 726
f 741 713 712
f 742 714 754
f 744 754 714
f 754 746 755
f 745 756 731
f 754 744 746
f 732 747 746
f 736 734 656
f 718 757 733
f 758 719 733
f 721 722 735
f 759 737 719
f 760 761 748
f 752 723 762
f 750 760 748
f 760 750 751
f 763 739 752
f 753 726 764
f 709 725 765
f 710 709 766
f 743 764 726
f 767 728 740
f 768 728 767
f 768 741 728
f 713 741 769
f 743 742 770
f 754 770 742
f 770 754 771
f 771 754 755
f 755 746 772
f 746 747 772
f 756 773 731
f 734 774 775
f 775 722 734
f 774 734 736
f 735 776 720
f 758 733 757
f 722 777 735
f 778 774 736
f 759 719 758
f 778 736 748
f 759 779 737
f 779 749 737
f 749 762 723
f 748 761 780
f 752 762 781
f 781 782 752
f 752 782 763
f 751 753 760
f 739 763 783
f 783 765 739
f 725 739 765
f 766 709 765
f 766 767 710
f 740 710 767
f 743 784 764
f 741 768 785
f 743 770 784
f 785 769 741
f 713 769 786
f 786 787 713
f 787 729 713
f 788 770 771
f 730 729 789
f 789 745 730
f 790 791 756
f 756 791 773
f 773 747 731
f 757 718 720
f 775 777 722
f 748 792 778
f 793 759 758
f 792 748 780
f 759 793 779
f 779 793 794
f 779 794 749
f 793 795 794
f 781 762 749
f 781 749 794
f 796 797 760
f 753 796 760
f 764 796 753
f 764 784 796
f 767 785 768
f 788 784 770
f 787 789 729
f 788 771 755
f 755 798 788
f 790 745 789
f 790 756 745
f 755 799 798
f 799 755 772
f 772 747 799
f 800 799 747
f 747 773 800
f 801 757 776
f 775 774 802
f 757 720 776
f 735 803 776
f 777 775 803
f 804 757 801
f 803 735 777
f 758 757 804
f 804 805 758
f 793 758 805
f 793 805 806
f 806 795 793
f 807 794 795
f 808 781 794
f 794 807 808
f 761 760 797
f 797 780 761
f 781 809 782
f 763 782 809
f 763 809 783
f 783 810 765
f 784 811 796
f 766 765 810
f 810 812 766
f 812 767 766
f 812 813 767
f 813 785 767
f 814 811 784
f 785 813 769
f 811 814 815
f 816 815 814
f 814 784 817
f 817 816 814
f 784 788 817
f 790 789 818
f 798 817 788
f 819 820 817
f 798 819 817
f 799 819 798
f 799 800 819
f 819 800 821
f 822 819 821
f 822 823 819
f 824 825 826
f 827 825 824
f 828 827 829
f 829 827 824
f 830 828 829
f 829 831 830
f 824 776 829
f 824 804 801
f 832 804 824
f 776 824 801
f 833 829 775
f 834 833 775
f 775 802 834
f 803 775 829
f 829 776 803
f 832 835 804
f 774 778 802
f 804 835 805
f 805 835 806
f 795 806 836
f 781 808 809
f 783 809 808
f 783 808 807
f 810 783 807
f 807 795 812
f 812 795 836
f 812 810 807
f 836 837 812
f 812 837 813
f 811 838 796
f 769 813 839
f 839 840 769
f 786 769 840
f 787 786 840
f 789 787 818
f 816 817 841
f 841 817 820
f 820 819 842
f 773 791 800
f 791 843 800
f 842 844 820
f 821 800 843
f 819 823 842
f 821 843 845
f 844 842 823
f 845 822 821
f 823 846 844
f 823 822 846
f 847 824 826
f 830 831 848
f 824 847 832
f 831 829 833
f 849 833 834
f 834 802 849
f 850 802 778
f 851 835 832
f 778 792 850
f 806 835 852
f 792 780 853
f 839 813 837
f 837 854 839
f 840 839 854
f 840 854 855
f 815 816 856
f 855 787 840
f 787 855 857
f 856 816 858
f 841 858 816
f 818 787 857
f 857 859 818
f 859 790 818
f 790 859 860
f 791 790 860
f 860 843 791
f 861 820 844
f 860 862 843
f 844 863 861
f 843 862 864
f 845 843 864
f 846 865 844
f 846 822 845
f 864 846 845
f 826 866 867
f 866 826 825
f 867 847 826
f 866 825 827
f 827 848 866
f 848 827 828
f 848 828 830
f 849 831 833
f 868 831 849
f 850 849 802
f 869 868 849
f 849 850 869
f 869 850 870
f 835 851 852
f 853 870 850
f 853 850 792
f 780 871 853
f 852 836 806
f 871 780 797
f 871 797 796
f 796 838 871
f 837 836 872
f 811 873 838
f 854 837 874
f 873 811 815
f 841 875 858
f 875 841 820
f 820 861 875
f 862 860 876
f 863 844 865
f 877 864 862
f 864 877 878
f 846 864 878
f 879 865 846
f 847 867 880
f 881 866 848
f 867 881 880
f 881 867 866
f 880 882 847
f 883 848 831
f 881 848 883
f 847 882 832
f 883 831 884
f 884 831 868
f 882 885 832
f 832 885 851
f 868 886 884
f 886 868 869
f 851 885 852
f 886 869 870
f 871 870 853
f 887 836 852
f 872 836 887
f 872 874 837
f 854 874 888
f 815 889 873
f 890 855 854
f 889 815 856
f 857 855 890
f 889 856 858
f 859 857 891
f 892 858 875
f 892 875 893
f 894 860 859
f 893 875 861
f 893 861 895
f 863 895 861
f 865 879 863
f 880 881 896
f 897 896 898
f 882 899 885
f 899 882 880
f 896 899 880
f 896 897 899
f 900 883 884
f 901 899 897
f 884 886 900
f 885 902 852
f 870 903 886
f 852 902 887
f 903 870 871
f 885 899 902
f 904 902 899
f 904 899 905
f 872 887 902
f 871 906 903
f 902 904 872
f 906 871 838
f 872 904 874
f 874 904 905
f 838 873 906
f 890 854 888
f 889 907 873
f 890 891 857
f 907 889 858
f 907 858 892
f 891 894 859
f 908 892 893
f 860 894 876
f 893 909 908
f 893 895 909
f 877 862 876
f 895 910 909
f 895 863 910
f 863 879 910
f 879 846 878
f 898 896 881
f 911 881 883
f 898 881 911
f 883 912 913
f 914 897 898
f 883 900 912
f 915 897 914
f 901 897 915
f 886 916 900
f 917 916 886
f 886 903 917
f 905 899 901
f 901 915 905
f 905 915 918
f 906 873 919
f 888 874 905
f 920 890 905
f 890 888 905
f 921 873 907
f 891 890 920
f 892 922 907
f 908 922 892
f 908 909 923
f 923 909 910
f 923 910 924
f 878 877 925
f 910 879 924
f 878 925 879
f 913 911 883
f 926 912 927
f 926 913 912
f 898 911 914
f 912 916 927
f 900 916 912
f 916 917 927
f 914 928 929
f 918 915 914
f 914 929 918
f 903 906 930
f 920 918 929
f 920 905 918
f 931 906 919
f 920 929 932
f 932 929 933
f 921 919 873
f 920 932 891
f 932 934 891
f 894 891 934
f 923 935 908
f 894 936 876
f 935 923 924
f 924 879 937
f 925 937 879
f 913 938 911
f 913 939 938
f 911 938 928
f 911 928 914
f 940 927 917
f 941 940 917
f 942 941 917
f 928 943 944
f 943 928 938
f 938 945 943
f 903 942 917
f 944 929 928
f 933 943 945
f 933 944 943
f 933 929 944
f 933 945 946
f 932 933 946
f 919 921 931
f 947 932 946
f 907 922 921
f 934 932 947
f 947 948 934
f 908 935 949
f 948 936 934
f 934 936 894
f 950 935 924
f 877 876 936
f 951 925 877
f 937 925 952
f 913 926 939
f 940 926 927
f 940 953 954
f 940 941 953
f 955 926 940
f 942 953 941
f 926 955 939
f 956 955 940
f 945 938 939
f 939 955 945
f 957 942 903
f 958 945 955
f 903 930 957
f 906 931 930
f 945 958 946
f 921 959 931
f 958 960 946
f 946 960 947
f 960 961 947
f 922 959 921
f 962 959 922
f 948 947 961
f 922 908 962
f 908 949 962
f 935 950 949
f 950 924 963
f 936 951 877
f 937 963 924
f 925 951 952
f 964 953 942
f 940 954 956
f 955 956 965
f 942 957 964
f 966 958 955
f 957 930 967
f 967 968 957
f 930 959 967
f 930 931 959
f 967 959 969
f 959 962 969
f 969 962 970
f 970 962 971
f 949 971 962
f 972 973 948
f 936 948 973
f 950 971 949
f 936 974 951
f 937 975 963
f 952 951 976
f 975 937 952
f 953 964 954
f 956 954 964
f 966 955 965
f 977 956 964
f 977 968 978
f 968 977 964
f 979 978 968
f 964 957 968
f 979 968 967
f 980 960 958
f 967 981 979
f 981 967 969
f 969 970 981
f 960 982 961
f 981 970 983
f 972 961 982
f 948 961 972
f 983 970 984
f 971 984 970
f 985 984 971
f 971 950 985
f 973 974 936
f 985 950 963
f 951 974 976
f 963 975 985
f 952 976 975
f 956 978 965
f 977 978 956
f 978 986 965
f 965 986 987
f 958 966 980
f 979 986 978
f 960 980 988
f 981 989 979
f 989 981 990
f 988 982 960
f 990 983 991
f 983 990 981
f 972 982 992
f 991 983 984
f 973 972 992
f 991 984 993
f 973 992 976
f 993 984 985
f 974 973 976
f 993 976 994
f 993 975 976
f 975 993 985
f 987 966 965
f 987 995 966
f 966 995 996
f 987 986 995
f 966 996 980
f 997 986 979
f 997 979 989
f 998 989 990
f 988 980 999
f 1000 982 988
f 1001 998 990
f 990 991 1001
f 992 982 1000
f 992 1000 1002
f 1001 991 1002
f 1002 991 992
f 991 993 994
f 992 991 994
f 976 992 994
f 995 986 997
f 995 997 998
f 996 995 998
f 996 999 980
f 996 998 999
f 997 989 998
f 1000 988 999
f 1001 999 998
f 1000 999 1002
f 1001 1002 999
