v 5.865997 23.193207 -24.300949

v 4.029976 21.291672 -25.852940

v 3.103378 24.276398 -24.163498

v 2.380852 21.683533 -25.530960

v 6.152069 19.930466 -25.813265

v -0.371101 17.562565 -25.846903

v -1.161835 18.865204 -25.091904

v -2.182640 17.552612 -24.872446

v 8.718628 19.910767 -24.316803

v -1.059631 14.662392 -25.666527

v -2.158340 15.962256 -24.849300

v -2.293922 13.112533 -24.908142

v -0.071930 14.139648 -25.893801

v 7.090790 17.240837 -25.571877

v 5.598824 14.334275 -25.840721

v -1.275604 11.340050 -25.678520

v -2.810089 8.863071 -24.935797

v 6.831341 13.713680 -25.009415

v -0.554352 10.248810 -25.892521

v 4.457588 11.509666 -25.819454

v 3.343735 9.457497 -25.881891

v -1.720016 7.179424 -25.793510

v -3.072155 5.642933 -25.031345

v 5.969986 11.428368 -24.933159

v -0.996277 6.485580 -25.846359

v 4.942524 9.111645 -24.934040

v 3.813126 7.800739 -25.172913

v -0.578323 4.996216 -25.033291

v -2.795649 3.982891 -24.990068

v -1.867098 27.445837 -22.907921

v -0.679634 27.497345 -23.283997

v -0.577377 25.778961 -23.840019

v -1.814014 25.685936 -23.003181

v -0.352203 29.098831 -22.134995

v 3.687347 26.739929 -23.656494

v -1.939579 24.043503 -22.985733

v -1.611107 22.645374 -23.396690

v 1.159607 23.455193 -24.175659

v 4.300728 28.730499 -22.163719

v 8.870972 24.091972 -23.583481

v -1.000061 20.828430 -24.050446

v -2.195442 20.886801 -22.973061

v -2.816063 18.742508 -21.593826

v -2.642684 17.368200 -21.079323

v 9.223663 26.313538 -22.153481

v 11.537292 23.653427 -22.286377

v 10.489471 21.600021 -23.502899

v -2.746692 14.476905 -21.000589

v -2.656245 12.145054 -21.750778

v 12.129395 19.114336 -22.438263

v 10.761047 19.045509 -23.390930

v 8.494720 16.664108 -24.043488

v 9.340492 15.667816 -22.688278

v -2.875852 8.751515 -22.762577

v 7.656528 13.977688 -22.965366

v -3.086189 5.715941 -23.003956

v 6.583748 10.434973 -22.952965

v -3.028264 4.324659 -23.042902

v 5.457253 8.567238 -23.026566

v -2.213194 3.855896 -21.438478

v 3.753674 6.912322 -23.059093

v 3.121002 5.660046 -22.704414

v 0.940453 4.088943 -21.849091

v -0.759737 3.610498 -21.368263

v 0.138264 33.820938 -21.334290

v -2.199781 32.669331 -21.023985

v -2.146655 34.088539 -21.013615

v -0.726257 32.168198 -21.902702

v -2.408234 31.367788 -21.005287

v -2.127880 30.032520 -21.218433

v 5.598312 30.912125 -21.912712

v -2.461903 28.446047 -21.121403

v -2.425715 27.350809 -21.051130

v 5.840973 32.380646 -21.129089

v -2.608469 26.146061 -21.050026

v 8.967354 30.811066 -21.381439

v -2.574206 24.536512 -21.041359

v -2.537227 22.995565 -21.085283

v -2.471054 21.647684 -21.114939

v 13.464445 27.734711 -21.928955

v -2.577507 20.024004 -21.059217

v 13.485107 29.526001 -21.187866

v 15.006836 27.547699 -21.611206

v 13.050552 23.638199 -21.990215

v 16.013824 22.976021 -21.963165

v 17.853760 25.206055 -20.660278

v 17.329346 22.512398 -21.638321

v 12.862061 17.525337 -22.052277

v 16.941833 18.968025 -21.716118

v 15.326843 17.620102 -21.959270

v 18.882019 21.746796 -20.477112

v 9.114525 13.473572 -22.057167

v 14.447464 14.399338 -21.978338

v -2.489044 5.592104 -20.652117

v 8.185692 11.014150 -22.087227

v 15.478912 13.672585 -21.619293

v 17.802002 15.140822 -20.316536

v 12.779846 10.350746 -21.996027

v 6.544044 7.962460 -22.203728

v 4.282623 4.687241 -21.740746

v 13.178619 8.900040 -21.618088

v 7.774323 5.396477 -21.804779

v 10.096558 3.921143 -20.227661

v -0.055969 35.010498 -19.329041

v -1.770515 34.732445 -19.153515

v -2.009597 31.090399 -19.213123

v 5.727051 33.992798 -18.687744

v -2.001326 29.004204 -19.045410

v 11.129822 31.991699 -19.016602

v -1.631196 25.824404 -17.512936

v -2.006057 24.101332 -18.980717

v -1.818744 21.846148 -18.813618

v -1.716179 19.758249 -18.853531

v 16.039551 31.546021 -18.003418

v -1.935160 16.976633 -18.583376

v 19.178223 28.941895 -18.303467

v -1.920118 14.120305 -18.190025

v 21.541748 23.396851 -19.012085

v -2.078996 12.358356 -19.230230

v -2.129371 9.189581 -18.353077

v 21.011780 20.406044 -19.684357

v 18.665741 18.470963 -20.396774

v 23.184326 21.981682 -18.178589

v 20.419235 15.731750 -19.777481

v 22.120911 17.463257 -18.560120

v -1.803547 3.674639 -18.941692

v 16.537521 11.775764 -20.370300

v 0.835269 2.961378 -19.238222

v 19.851654 12.936779 -19.803688

v 21.381348 12.554779 -18.628906

v 18.678558 9.835670 -19.746216

v 3.763611 2.836884 -19.309418

v 14.380676 7.764923 -20.415131

v 9.687134 2.157166 -18.970032

v 16.208725 5.593781 -18.646423

v 12.704376 1.816284 -18.088318

v 0.049259 35.884918 -17.536072

v -1.821737 35.701878 -17.133127

v -1.708128 34.202702 -15.503685

v 8.937500 34.307617 -17.107422

v -1.693349 23.613436 -15.433928

v 23.308350 26.388428 -17.300903

v 24.588989 25.557678 -16.619019

v -2.189700 5.554056 -16.715633

v -2.348671 6.015516 -15.458612

v 24.203918 16.768600 -17.671722

v 25.724915 19.559151 -16.655029

v 0.839050 3.323071 -15.993820

v 3.166145 1.931283 -16.319735

v 25.063416 14.334412 -16.647369

v 22.353394 10.158630 -17.728271

v 6.614494 0.772430 -16.914948

v 19.703979 8.539734 -18.541779

v 19.876266 5.797119 -17.721283

v 11.575150 -0.295746 -16.783737

v 17.587601 3.099060 -17.798752

v 23.552216 9.361649 -16.609955

v 21.038391 4.361282 -16.497559

v 18.267670 1.334656 -16.552986

v -1.359216 36.359230 -15.690002

v 3.784760 37.162109 -13.757080

v 7.833221 36.686523 -13.407104

v -1.290467 29.155491 -11.819270

v 18.130859 33.362061 -14.889648

v 11.497986 36.144775 -13.534912

v -2.138724 14.896612 -12.762794

v 22.749023 31.812012 -14.246094

v 25.170166 28.898682 -14.911621

v -2.749948 8.276400 -13.358969

v 27.256104 26.612488 -14.795654

v 26.879761 24.570213 -15.695557

v -0.341736 4.840851 -14.879730

v 28.904907 21.611755 -14.738892

v 27.736267 19.666309 -15.755188

v 27.111328 14.130798 -15.810455

v 3.095215 2.095188 -13.601456

v 28.908997 16.859436 -14.691040

v 5.451986 0.161522 -15.348213

v 25.516937 8.491547 -15.841324

v 27.926636 11.800079 -14.766418

v 9.071289 -1.105835 -16.081848

v 22.689911 2.415833 -15.823212

v 14.483231 -2.460968 -15.881676

v 24.941589 4.100794 -14.715149

v 14.050629 -3.977661 -14.788422

v 20.590759 -0.210815 -16.124855

v 18.351288 -1.517082 -15.943375

v 23.154846 0.060211 -14.828125

v 21.039459 -2.316650 -14.892273

v -0.433941 37.389511 -13.486511

v -1.378959 37.033051 -13.195686

v -1.247534 32.345268 -10.363570

v 16.538086 35.313721 -13.424316

v 21.599304 35.113586 -11.335632

v 26.932617 30.240540 -13.358887

v -2.246422 12.430834 -11.655599

v 29.429932 28.392395 -12.952393

v 31.684814 23.757004 -12.857544

v -2.165038 6.941326 -13.509937

v 30.945679 21.171516 -13.790100

v 32.232300 17.727436 -12.753052

v 30.859253 16.467468 -13.790039

v 4.480580 0.257967 -13.218487

v 30.010925 11.890228 -13.842834

v 6.745220 -1.905014 -13.667282

v 26.797668 8.077230 -14.795410

v 28.493347 7.151909 -13.852905

v 8.256237 -4.511841 -11.906754

v 30.380188 8.134926 -12.747589

v 10.994385 -4.845520 -13.345093

v 26.173340 1.730888 -13.858185

v 28.577118 4.012615 -12.744263

v 13.739277 -6.388977 -13.103790

v 17.673050 -5.706299 -13.830780

v 26.905182 -0.302238 -12.722290

v 23.240417 -3.151306 -13.902222

v 23.623062 -4.981674 -12.736298

v -0.646401 38.089172 -11.343809

v 1.225993 38.126675 -11.049973

v 2.858409 37.897591 -11.218958

v -1.165588 35.695637 -10.091469

v 5.187651 37.796692 -11.426155

v -1.149892 33.986046 -9.828587

v 8.286836 37.281834 -11.244623

v 10.538432 37.127934 -11.393787

v 13.201775 36.861244 -11.543488

v -1.359472 25.519550 -9.753288

v 15.895569 36.740906 -11.279205

v -1.460192 23.760262 -9.837111

v -1.569380 21.467690 -9.702278

v -1.659562 19.429867 -9.941887

v 26.162231 32.810608 -11.425659

v -1.879041 17.146275 -9.793129

v 29.037262 31.336960 -11.467834

v -2.593707 9.706741 -11.550720

v 31.797363 28.987347 -11.524139

v -2.479432 8.120621 -11.504934

v -1.437584 8.734028 -11.089039

v 34.092773 23.071960 -11.737671

v 1.395676 6.534576 -11.707825

v 1.339905 7.764893 -10.904037

v 34.494507 19.121872 -11.863892

v 4.990131 0.875999 -10.139374

v 4.790012 2.967606 -9.899841

v 34.051178 13.921555 -11.958878

v 31.611023 12.471771 -12.693970

v 5.562459 -2.514004 -9.743769

v 35.764771 16.506958 -10.776398

v 35.281860 12.504761 -10.834747

v 33.245911 10.173531 -11.940796

v 32.058350 6.855225 -11.929108

v 34.440857 9.414135 -10.857239

v 10.710503 -7.185760 -11.428528

v 30.731689 3.316101 -11.970627

v 14.021759 -8.536682 -11.831146

v 29.716675 0.428528 -11.983536

v 18.000553 -7.002655 -12.827118

v 18.751709 -8.926880 -12.074951

v 28.014618 -3.198395 -12.132057

v 30.808624 -0.537163 -10.883972

v 25.614517 -6.919907 -12.112823

v 29.385223 -4.812569 -10.834671

v 19.605331 -10.262756 -10.948669

v 26.311951 -8.271149 -11.029968

v -1.033027 37.637573 -9.362915

v 2.696442 37.539124 -9.244629

v 5.339828 37.298462 -9.305481

v 8.224845 36.877914 -9.326691

v -1.503855 30.761604 -9.613533

v 11.885376 36.683899 -8.939209

v -1.452593 28.919388 -9.375870

v 13.882252 37.059021 -9.118225

v 15.864899 37.056095 -9.478027

v -1.565439 26.647623 -9.416893

v 23.494080 34.959156 -9.291456

v -2.561547 22.602587 -7.668098

v -2.603491 20.938967 -7.688964

v 26.089952 33.816422 -9.221798

v -2.661644 18.561092 -7.883097

v 28.076761 32.738068 -9.308216

v -2.627861 15.413472 -7.654612

v -2.009803 13.202743 -9.601865

v 29.037504 32.078960 -9.273848

v 30.683187 31.249378 -9.416389

v -0.968903 12.424332 -9.703613

v -1.044571 11.235870 -10.434456

v 2.668030 11.028442 -9.049377

v 32.040047 30.419704 -9.212265

v 1.649673 10.079529 -10.253296

v 33.350433 29.160986 -9.425468

v 34.517876 28.094780 -9.423538

v 3.448746 9.686140 -9.566391

v 2.933197 6.306153 -9.649200

v 37.661087 23.054398 -9.296822

v 35.903076 21.966614 -10.680115

v 3.982208 4.532864 -9.949432

v 5.156586 4.525852 -8.449097

v 38.483002 20.211044 -9.378502

v 38.319901 18.522240 -9.723846

v 4.849507 -0.851832 -7.895563

v 38.240082 16.529984 -9.734612

v 37.795563 13.707008 -9.938934

v 6.721457 -5.366154 -9.130587

v 37.572937 11.211231 -9.815445

v 8.016987 -7.065521 -8.933418

v 36.217514 7.329468 -9.904892

v 33.373474 6.326706 -10.832367

v 35.037369 4.185802 -9.927048

v 32.318176 2.907364 -10.759735

v 34.035782 1.299644 -9.918533

v 10.256313 -10.196582 -7.676536

v 13.089859 -10.735779 -9.758362

v 33.226685 -1.340708 -9.880051

v 16.079773 -12.611603 -9.088577

v 12.458008 -11.621624 -8.871922

v 32.300003 -4.069473 -9.900574

v 20.285767 -11.976318 -10.028503

v 31.535172 -6.419998 -9.896996

v 29.463196 -8.702667 -10.185028

v 27.157455 -10.750916 -9.956665

v 30.812759 -8.753662 -9.427032

v -1.300178 37.135445 -7.551687

v -1.667051 36.203243 -7.502469

v -1.922375 34.624435 -7.555442

v -1.976013 32.982834 -7.593604

v 3.657410 35.391846 -5.731201

v -1.910679 31.359797 -7.575003

v 7.104492 34.374756 -5.672363

v -2.013738 29.360800 -7.572850

v -2.343802 28.111612 -7.631753

v -2.358869 26.605354 -7.636887

v -2.435008 24.836275 -7.583477

v -2.756865 23.915319 -7.588129

v 20.561920 34.471436 -3.969238

v 23.394226 33.782166 -5.310059

v -2.554953 19.600142 -7.606776

v -2.714604 17.590996 -7.638477

v -3.114509 16.780149 -7.605856

v 26.413208 33.052002 -7.259277

v -1.991112 14.527683 -7.689209

v 28.606934 31.336670 -6.069336

v 34.096466 27.973755 -7.511963

v 4.923279 9.956770 -7.819641

v 35.449585 26.028076 -7.025635

v 5.543701 6.786690 -7.686508

v 37.990829 22.545410 -7.227966

v 5.790009 2.661423 -7.153595

v 38.789806 20.818451 -7.494331

v 39.570328 17.500946 -6.919250

v 3.808371 -3.875471 -6.696239

v 39.304321 13.019775 -7.783691

v 5.046028 -4.712238 -8.373093

v 4.310158 -7.487453 -7.964031

v 5.150150 -8.769569 -7.690224

v 7.905013 -8.468651 -7.716328

v 38.574951 6.693848 -6.927246

v 36.366211 2.654602 -7.916016

v 10.612364 -12.157638 -7.738636

v 9.545471 -13.268214 -7.836205

v 7.721124 -11.879799 -7.766455

v 34.977295 -1.502563 -7.455078

v 12.513908 -14.406548 -8.332001

v 16.949646 -14.823883 -8.319748

v 20.512024 -13.282532 -8.941589

v 12.157143 -16.264786 -6.994720

v 18.675323 -16.251587 -7.235535

v 26.196655 -12.993164 -8.400269

v 24.028168 -14.184937 -8.031067

v 29.412231 -11.354248 -8.181885

v 21.237732 -16.982666 -5.994873

v -0.347800 36.574860 -5.501465

v -0.960148 34.607964 -4.652421

v -1.226354 32.902985 -5.720383

v -1.387808 30.545195 -4.791962

v -1.819055 28.375957 -5.830041

v 9.432938 33.415039 -3.902588

v -1.752560 26.130117 -5.928344

v 17.409294 33.846237 -1.821136

v -1.853647 24.132116 -5.855407

v -2.005676 22.255295 -6.078597

v -1.909327 20.782024 -5.717056

v -2.103426 18.840178 -5.993834

v -1.198294 17.351387 -3.905341

v -1.712315 16.419807 -5.706524

v -1.474419 15.706903 -5.777653

v 2.375824 14.763275 -5.274872

v 2.982605 12.986496 -6.194275

v 31.838806 26.610928 -2.000305

v 28.810333 29.120792 -2.075867

v 5.695786 10.689819 -5.821838

v 7.271431 6.345738 -5.375916

v 7.347717 4.217762 -5.578201

v 38.362503 20.755005 -4.538818

v 5.538574 0.942055 -5.246628

v 39.479958 18.383347 -4.258392

v 2.462560 -4.579823 -5.927940

v -0.733274 -5.692829 -6.627504

v -1.923209 -4.094181 -5.681099

v -2.486615 -5.355877 -5.743964

v 3.818934 -2.169976 -4.566202

v -0.929575 -8.134888 -6.695944

v -2.416810 -7.054693 -5.710056

v 2.609304 -5.450409 -6.592438

v 2.508438 -7.679476 -6.852199

v -2.493110 -9.136065 -5.736745

v -0.995148 -11.539955 -6.676846

v 40.838379 12.601501 -4.108643

v -2.442380 -11.130505 -5.777810

v 4.945724 -10.834997 -6.758411

v -2.261750 -13.166161 -5.787497

v 2.218006 -14.053593 -6.653214

v 8.129337 -10.071472 -6.933546

v 41.675751 6.088928 -2.877625

v 7.411964 -11.229714 -6.975739

v 7.681136 -13.602386 -6.960577

v 5.251045 -15.966518 -6.482460

v 3.640190 -17.560829 -4.986393

v 6.945234 -17.157280 -6.540173

v 38.068359 0.406250 -4.728027

v 10.455231 -18.113297 -6.404396

v 34.859741 -5.554321 -5.009521

v 8.748444 -19.511719 -5.243225

v 15.780884 -18.063843 -6.331940

v 33.002930 -8.466309 -5.235107

v 14.154785 -19.541687 -5.260849

v 18.503799 -19.317810 -5.024811

v 30.123367 -12.031006 -6.541016

v 26.311523 -15.920410 -5.259033

v 28.846558 -15.828125 -3.090332

v -0.436182 36.095119 -3.594833

v 0.334378 34.950039 -1.736645

v -1.547253 32.913940 -1.756028

v -1.395250 31.641376 -3.711773

v 6.574011 31.783325 -1.845642

v 2.348099 33.388783 -1.447792

v -1.751898 28.646461 -3.520302

v -1.708385 26.145452 -3.700983

v 13.132355 33.553871 -1.763062

v -1.868020 24.113817 -3.740232

v -1.744217 21.239100 -3.635065

v -1.595874 19.137222 -3.805583

v 23.250404 31.991085 -1.468796

v -0.106285 17.620148 -3.677078

v 2.099480 17.562805 -3.553757

v 5.295776 14.588043 -2.754089

v 6.692062 10.807632 -3.806274

v 34.280396 24.005859 -2.077820

v 8.603559 8.901754 -0.281425

v 36.179863 21.879639 -2.105743

v 8.400797 3.871415 -3.801426

v 8.143847 2.571357 -3.573746

v 5.052207 -0.831573 -2.589966

v -1.854292 -3.284830 -3.694364

v -0.556444 -3.263021 -4.020428

v -2.285840 -5.875497 -4.096180

v 2.393676 -2.943859 -3.545669

v 40.369965 15.680668 -3.629425

v -1.682186 -8.718226 1.408539

v -2.327442 -13.719318 -4.075751

v 41.588867 9.520874 -2.707886

v -1.002029 -14.999664 -4.940727

v -2.352608 -15.888576 -3.790842

v -0.827913 -16.659199 -4.800578

v -1.159935 -18.973579 -4.662762

v -2.394502 -17.642952 -3.857687

v -2.431503 -18.817261 -3.857736

v 41.322571 4.023438 -2.636963

v 0.774791 -20.318333 -4.739107

v -1.908454 -20.460930 -3.829222

v 4.228416 -20.561447 -4.484734

v 1.052522 -21.715240 -3.795135

v 6.814636 -20.595490 -4.473053

v 39.622559 -0.548157 -2.434082

v 37.755493 -4.581543 -2.835449

v 13.545624 -22.419327 -4.186340

v 34.466064 -9.369141 -2.599609

v 32.473450 -11.758667 -2.854980

v 20.863892 -18.907837 -4.416626

v 18.601440 -21.285889 -3.559814

v -1.047894 35.544189 -1.803548

v -1.655891 34.204033 -1.816154

v -1.986391 31.697742 -1.859694

v -1.770522 30.439453 -1.961763

v -1.947030 29.471239 -1.670412

v -2.378331 28.511858 -1.571207

v -2.715460 25.741449 -1.772326

v 9.751595 31.147022 -1.138832

v -2.622252 23.763187 -1.606789

v -2.174140 22.429447 -1.780596

v -1.640082 21.120586 -2.025770

v 20.866772 33.368027 -1.716927

v -0.217827 20.142288 -2.350998

v 3.402290 19.965256 -2.106659

v 4.142334 16.622833 -2.846649

v 25.319611 30.383041 -1.263374

v 4.516136 19.491341 -1.671921

v 27.150085 29.556435 -1.345306

v 5.974365 18.433083 -0.557007

v 30.765488 26.940338 -1.451202

v 6.804714 13.355885 -0.395981

v 8.965033 4.081190 -1.104584

v 38.196640 18.805786 -1.587891

v -0.678976 -2.943196 -1.511788

v -1.685896 -3.199958 -0.145124

v -1.643468 -5.530525 1.525129

v 4.440258 -1.870064 -0.456375

v 40.547615 14.877014 -1.473206

v -1.613514 -11.294622 1.497629

v 41.370674 12.100380 -1.114510

v -2.001881 -14.977474 -0.151871

v -1.863634 -21.201168 -1.893625

v -0.545444 -22.063354 -3.101700

v -1.692370 -23.122719 -1.947619

v -0.479378 -23.870483 -1.974342

v 3.011017 -22.972958 -1.514114

v -1.491037 -25.263008 -2.020041

v 5.016521 -22.311920 -1.858772

v 7.517351 -22.396240 -1.891830

v 11.072693 -23.494366 -1.784042

v 37.494385 -8.657196 -0.508118

v 14.180984 -23.335114 -3.393311

v 14.039946 -26.384377 -1.441532

v 29.979370 -17.678711 0.822754

v 25.312775 -19.138916 -1.683838

v 21.118530 -21.972656 -1.511719

v 18.491058 -23.801880 -1.958435

v 14.946726 -26.176208 -1.884445

v -0.025038 33.548241 -0.973367

v -0.869411 30.281509 -1.094486

v 0.329689 29.393326 -0.730703

v 3.116173 31.293436 -0.889916

v -2.104818 28.243572 0.066510

v 4.804749 27.873051 -0.696075

v 7.928575 29.965267 -0.923130

v -2.431818 25.333021 0.133822

v -0.509979 27.433578 0.763382

v -2.240789 23.773758 0.129140

v 8.502569 28.103355 -0.710806

v 14.361816 32.470722 -0.958139

v 6.152416 25.751938 0.707932

v 7.082367 26.246475 0.151947

v -0.896492 22.991776 0.100464

v 18.856512 32.579178 -0.937124

v 13.881351 29.992168 -0.563892

v 8.785354 26.991104 0.099113

v 11.199800 27.599426 0.144218

v 14.048874 27.486847 1.219658

v 2.537346 22.996986 0.734066

v 17.009506 28.143250 0.851875

v 18.285980 29.951004 -0.526016

v 5.432083 21.481861 0.777458

v 24.440512 28.850113 -0.508713

v 7.031564 17.216944 0.199032

v 30.153870 24.650574 -0.282227

v 28.703552 23.981140 0.770203

v 33.890930 22.517212 -0.846924

v 32.784485 20.904175 0.716125

v 37.557129 16.668091 0.684937

v 7.961521 -0.038921 1.774933

v 2.006372 -2.986296 4.490973

v 40.113960 13.869354 0.549286

v 41.945148 9.474602 0.295624

v -1.562775 -18.260336 2.719765

v 42.600815 5.343079 0.408839

v 42.556591 2.596672 0.372177

v -1.720999 -23.673433 1.303093

v 41.851284 -0.314930 0.275818

v -1.392555 -25.912994 -0.736793

v 40.928787 -1.651825 0.100220

v -0.091271 -26.328768 -1.032572

v 6.875122 -23.637192 -1.055163

v -0.112355 -28.898657 -1.022616

v -1.581523 -26.822721 -0.246169

v -1.543783 -28.745825 -0.112566

v 38.870270 -6.411880 -0.020447

v 4.634308 -30.170223 -0.992492

v 9.967146 -24.481005 -1.012550

v 0.064644 -30.578796 -0.794945

v -0.361593 -31.498579 -0.114862

v -1.710961 -30.918932 -0.076956

v 35.859741 -11.092590 0.028076

v 1.929157 -31.648003 -0.072388

v 7.648888 -29.971210 -0.961320

v 32.893402 -15.974609 2.282715

v 4.368668 -31.746140 0.128082

v 12.754629 -27.625397 -0.982257

v 6.937862 -31.501068 0.059692

v 15.708385 -27.516449 -0.748795

v 11.140701 -29.952656 -0.539154

v 20.709534 -24.250610 0.318848

v 9.110935 -31.172562 -0.069244

v 18.483856 -26.332031 -0.073883

v 12.895172 -30.080078 0.128418

v -0.921484 24.972633 1.031065

v 4.652569 24.332415 1.058593

v 7.872526 26.079155 2.057171

v 5.971329 23.926769 1.430413

v 10.128418 26.716055 2.030792

v 11.813711 26.904194 2.040031

v 8.093611 23.662041 2.924893

v 13.139450 25.990326 2.603699

v 7.308453 20.858402 2.410210

v 23.761395 26.899750 0.938671

v 19.745819 24.874878 1.366409

v 7.485327 18.114214 2.374624

v 19.040802 23.024551 2.783318

v 24.422531 23.434849 1.428101

v 7.572312 14.722570 3.678970

v 7.529775 11.970203 3.876526

v 8.668884 8.956020 1.850403

v 31.240479 19.728668 1.607330

v 28.734497 18.575409 3.148407

v 8.791436 6.566975 1.935715

v 8.639825 4.170143 3.424171

v 8.932843 2.154025 2.710723

v -1.068515 -3.333020 3.261893

v -0.044879 -3.167801 4.028554

v 35.703918 15.644775 2.298096

v 39.628357 11.579712 2.684204

v -1.442211 -13.206125 2.729322

v 40.904015 10.490173 2.232819

v -1.540045 -14.953937 2.877362

v 41.946388 6.638229 2.837158

v -1.524519 -19.592442 2.906466

v -1.630971 -21.310797 2.974428

v -1.774602 -26.465897 3.102057

v 40.857826 -3.257034 2.174561

v -1.938756 -28.617580 3.301982

v 38.286453 -8.993622 1.767578

v -1.560282 -32.217789 1.862972

v -1.820623 -31.641598 1.824581

v 36.329117 -12.132202 2.054199

v 1.737366 -33.044800 3.138428

v 24.967163 -22.437744 1.614990

v 18.436768 -27.793945 1.610840

v 9.650210 25.176544 2.984882

v 14.480446 23.778236 3.005762

v 11.526875 20.850332 3.056686

v 8.469164 19.317659 3.024867

v 16.326126 20.802830 3.225168

v 11.599503 17.778564 4.908356

v 10.417114 16.688354 5.260681

v 8.060310 16.739344 4.005913

v 16.407967 18.923065 4.556419

v 23.495361 21.866821 2.754517

v 23.106071 19.829079 3.350502

v 7.765546 10.334642 3.847963

v 8.065832 8.778449 3.912973

v 22.871529 17.988350 4.693871

v 8.230853 7.663747 3.873310

v 31.369324 17.278564 3.110474

v 8.332218 6.321890 3.945662

v 8.347760 5.210239 3.941476

v 28.015926 16.432785 4.743725

v -1.657739 -5.525621 3.963302

v 8.453857 0.843776 5.242546

v 32.775093 14.173584 4.488159

v 7.765700 -0.346274 5.703983

v 5.459265 -1.647533 5.163387

v -1.620179 -8.099966 3.624609

v 35.799179 11.289063 4.812439

v -2.160724 -9.943045 5.728940

v -2.098246 -11.474207 5.714958

v 40.296524 7.892578 4.798218

v -2.218375 -16.606140 5.717367

v 41.279297 5.619385 5.483154

v 41.932251 4.010376 5.058838

v -1.876117 -23.199224 3.762838

v 42.131027 1.256510 4.608253

v -1.784369 -24.747326 3.525751

v -2.270477 -25.597044 5.702900

v -2.373015 -27.662943 5.620868

v -2.627506 -30.233315 5.674944

v 38.407204 -9.711426 7.383972

v -1.550629 -32.649475 2.791565

v 4.823120 -34.177704 6.328979

v 31.542542 -19.403809 5.326172

v 29.520264 -21.276123 5.249023

v 8.668396 -33.780823 5.443359

v 24.587616 -24.389038 3.780762

v 20.070206 -28.209961 4.805176

v 10.239258 -34.244675 6.732697

v 17.855103 -29.552612 4.055664

v 14.366192 -32.138916 5.355957

v 9.156914 14.287220 5.932888

v 12.212830 15.657104 6.345093

v 17.841385 16.424881 5.372025

v 15.668141 14.450081 6.830761

v 9.407528 12.085894 6.293069

v 22.627632 15.097916 5.413010

v 9.397043 8.991663 6.107880

v 9.439857 7.181678 6.074677

v 25.293354 14.578308 5.195969

v 24.450068 13.851532 5.891251

v 9.660397 4.464854 8.017265

v 8.726471 3.236989 7.174122

v 30.707336 12.950027 5.293854

v -1.332645 -3.011578 5.854450

v -1.996373 -4.124722 5.706666

v -2.236667 -5.075373 6.271860

v 30.390076 12.038239 6.152588

v -2.448921 -5.841989 5.775140

v -2.309694 -7.026961 6.051573

v -2.158509 -8.165632 5.785059

v 32.835960 11.041626 5.929214

v -2.054350 -9.077275 5.936838

v 37.135590 9.004295 5.674255

v -2.113482 -12.611023 5.754680

v -2.095431 -14.149910 5.767943

v -2.134480 -15.787415 5.858477

v 39.061920 7.563446 5.858429

v -2.254803 -17.798759 5.735727

v -2.261132 -19.176559 5.722335

v -2.117435 -20.337934 5.868141

v -2.415472 -21.199280 5.668152

v -2.343710 -22.618359 5.690689

v -2.403401 -24.326738 5.710712

v -2.575895 -26.400145 5.696299

v 40.728119 -4.546684 6.122070

v -2.497469 -29.232471 5.861451

v -2.316448 -31.776424 5.629663

v -2.070808 -32.779198 5.586440

v 0.212568 -33.301445 5.630734

v 36.999062 -13.865799 9.081421

v 35.144043 -16.081367 7.855347

v 27.363159 -24.399475 6.813721

v 24.018982 -26.912964 5.735107

v 12.228309 -33.892338 7.370880

v 18.095947 -31.167244 6.938171

v 10.523167 13.938091 6.683680

v 12.472408 12.173847 7.068970

v 17.658030 13.967407 7.622345

v 12.463163 11.224974 7.560637

v 20.207031 14.194824 7.339844

v 13.497472 11.479061 7.886477

v 11.363619 8.840324 7.700748

v 23.270706 12.880249 8.197937

v 29.102676 11.445786 7.886932

v 7.662100 0.692900 7.801706

v -0.896947 -2.729936 7.670806

v 0.809440 -1.976260 8.347851

v -1.303883 -4.163299 7.731262

v 4.779034 -1.218239 7.734482

v 31.999680 10.453484 7.826881

v -1.554924 -10.880959 6.609253

v 33.657776 9.091064 8.121155

v -0.910339 -12.514709 7.346245

v -0.308114 -14.023698 8.061108

v 37.509323 7.393890 7.869232

v -0.466857 -15.793656 7.644356

v 39.048370 5.925385 8.046631

v -0.253127 -17.776529 7.759019

v -0.301983 -18.950005 7.642971

v 41.278893 3.703018 7.883301

v -0.063572 -21.294724 7.687607

v -1.205505 -22.622028 6.623062

v 42.019768 0.745689 8.006622

v 0.390906 -23.900730 7.712409

v -0.994110 -25.618805 6.651291

v 0.623875 -25.977768 7.798269

v 42.128590 -1.685585 7.682465

v -1.198029 -27.761131 6.524323

v 0.698696 -28.738586 7.714406

v -0.280853 -31.774410 6.800346

v 1.050146 -31.002983 7.728683

v 39.670372 -8.224987 9.274933

v 1.150516 -33.354595 7.087641

v 34.164795 -19.084690 9.558136

v 8.041165 -34.618172 8.372334

v 33.413597 -20.437590 9.646404

v 31.664623 -22.735960 9.753174

v 27.871311 -25.435043 9.379967

v 27.132713 -26.333324 9.473358

v 23.888653 -28.182968 7.566559

v 15.635048 -32.597645 7.720627

v 15.483591 12.017056 9.823708

v 17.325417 12.914856 9.691559

v 12.055549 9.136820 9.494949

v 22.087646 11.052979 10.582886

v 11.230500 6.408503 10.206282

v 26.089355 11.104370 9.079224

v 8.036449 2.629382 9.346676

v 1.619297 -0.612801 9.529655

v 5.280243 0.909950 9.552582

v 0.640572 -0.936703 9.700027

v 0.126491 -2.881292 9.531683

v 0.068817 -5.315726 9.632610

v 30.967041 10.283508 8.365784

v 0.028648 -8.519426 9.620636

v 31.863892 8.011414 9.469055

v 0.186226 -11.610814 9.982327

v 34.391907 6.603058 9.619476

v 0.121059 -15.854873 10.486995

v 37.066330 4.689560 10.074684

v 39.014908 3.356918 9.954590

v 0.477817 -19.264053 12.314610

v 40.819489 1.645878 9.942383

v 0.589937 -22.580063 10.957588

v 42.066032 -1.248158 9.978394

v 41.684692 -3.805838 9.859055

v 40.128384 -7.903236 11.739632

v 0.870380 -28.144848 10.331158

v 1.054106 -31.527323 11.169776

v 38.637371 -11.029240 11.435266

v 1.624801 -34.343670 9.581408

v 36.514652 -15.723669 9.689522

v 2.641740 -34.218361 11.536282

v 35.442955 -17.689579 9.692970

v 9.814896 -34.261887 10.415039

v 11.772984 -33.859215 9.987640

v 14.084149 -33.156898 9.780426

v 24.162754 -28.402885 9.464935

v 17.724262 -32.036922 9.452156

v 16.908813 11.132080 11.488037

v 15.059832 11.036697 11.668869

v 13.567370 10.509074 11.610950

v 12.155926 8.839435 11.784662

v 9.382702 3.338769 12.619098

v 0.490914 -0.141089 11.647161

v 2.649754 1.150592 11.502989

v 5.641350 2.004242 11.338964

v 3.317727 1.048883 11.901159

v 7.773552 2.921204 11.601542

v 0.497114 -1.099930 14.684210

v 0.270931 -4.061946 11.746445

v 24.356781 8.967957 11.714661

v 0.300175 -7.588452 12.239789

v 29.397766 7.145981 11.559448

v 34.852051 5.389084 11.518982

v 40.580109 -2.275494 13.508331

v 39.943634 -5.839821 13.634949

v 1.132951 -33.609844 11.423275

v 37.917816 -11.963593 12.014343

v 36.682251 -14.087753 11.902130

v 35.792488 -16.353048 11.723709

v 6.894863 -33.970440 13.355927

v 34.464432 -18.228386 11.748352

v 32.522873 -21.083778 11.603699

v 31.331848 -22.653267 11.492096

v 27.105881 -25.493652 11.768494

v 23.962479 -28.409958 11.655701

v 19.640625 -30.960754 11.697998

v 13.837288 9.198502 13.329376

v 11.214067 7.293404 13.686756

v 18.316284 8.606689 14.014404

v 1.667783 -0.419688 13.480911

v 6.365586 0.971066 13.397762

v 3.730605 -0.120125 13.459539

v 4.670257 -0.329812 13.724787

v 24.185303 7.903503 13.674530

v 28.472504 6.403427 13.898560

v 35.785572 4.515388 13.674210

v 37.977852 3.460377 13.472706

v 39.532288 2.377035 13.387390

v 40.670616 1.348206 13.549034

v 0.372415 -22.141293 15.056860

v 40.975220 -0.315262 13.595272

v 0.500688 -25.551163 14.530592

v 38.961151 -8.879211 13.721558

v 1.269782 -32.611153 13.530056

v 2.462158 -33.443451 13.336975

v 34.838745 -14.065063 13.754150

v 34.213867 -15.908203 13.196289

v 30.594574 -19.818359 13.591248

v 29.400879 -22.427979 13.116211

v 9.732681 -33.516129 13.467728

v 12.165825 -32.609055 13.997559

v 25.405334 -25.057190 14.683105

v 14.380714 -32.107040 13.899811

v 23.448547 -27.746094 13.793457

v 17.754349 -31.203918 13.622772

v 11.983711 6.578253 15.676407

v 15.094089 8.452744 15.462271

v 10.620875 5.778018 15.405821

v 17.469666 7.694427 15.475594

v 2.407633 -0.597178 15.607469

v 9.656233 2.285393 15.503145

v 0.425044 -1.026595 17.306690

v -0.083239 -3.636445 15.494459

v 7.252359 0.755259 15.449322

v 5.850258 0.356016 17.291000

v 21.131226 5.436157 16.046356

v -0.118166 -6.362879 18.980700

v 24.305939 4.978607 16.027557

v 29.852707 3.862549 16.073151

v 0.037451 -11.094946 19.043692

v 0.052048 -14.456120 15.762180

v 33.129272 3.580383 15.096863

v 0.291977 -18.373798 17.094168

v 35.015930 2.224899 14.896973

v 38.759125 1.553757 14.381721

v 38.402039 -2.940201 14.970856

v 33.836838 0.897034 16.173386

v 39.688110 -1.088943 14.360764

v 38.454407 -3.889160 15.397705

v 38.614594 -6.447290 15.557098

v 0.362448 -26.992451 17.019817

v 0.682963 -31.099855 14.828098

v 36.723755 -10.173981 15.506775

v 34.431580 -12.344360 15.633423

v 31.635864 -15.250336 15.851898

v 3.668409 -32.477600 15.353577

v 7.026825 -32.672134 15.217163

v 28.985535 -18.510284 16.305481

v 27.707794 -22.010223 15.220093

v 9.738541 -32.468338 15.119629

v 25.998810 -23.591713 15.372040

v 23.347240 -25.491302 17.351837

v 16.769470 -30.339355 15.615234

v 15.326155 7.102524 16.365030

v 11.931633 4.690353 16.370922

v 2.373152 -0.240547 17.485924

v 3.877262 -0.070481 17.264780

v 0.385879 -2.101549 19.225994

v 11.123772 2.158815 16.387981

v 0.202003 -4.074727 19.203140

v 17.184196 5.695023 16.432688

v 9.453274 0.522491 16.344872

v 8.055237 -0.448257 16.954300

v 7.333679 -0.177429 17.379578

v 22.661865 3.676575 16.444160

v 12.030991 -3.748487 16.400015

v -0.045512 -8.647969 19.136791

v 30.206566 2.422615 16.472694

v 20.729177 -4.033958 16.426828

v 13.016174 -6.852951 16.814774

v 15.211583 -6.844940 16.425182

v 34.618896 -2.684814 16.479069

v 0.499096 -16.241560 17.344248

v 20.998705 -8.848587 16.455933

v 18.117226 -8.980377 16.835312

v 13.233315 -8.773239 17.922852

v 0.372480 -21.355968 17.238544

v 25.568298 -10.315201 16.432545

v 36.080948 -2.484207 16.170990

v 24.116470 -10.802650 16.698036

v 19.712372 -10.916061 17.809372

v 0.326421 -24.549723 17.204868

v 34.570557 -9.264771 16.456993

v 37.262764 -6.211784 16.431675

v 23.417923 -12.495544 18.014839

v 27.625488 -14.246353 16.774826

v 32.135429 -12.768707 16.392639

v 35.699493 -9.732498 16.244522

v 26.259697 -16.103313 18.269472

v 0.622359 -28.483532 17.246864

v 0.752876 -31.216074 17.202450

v 30.033508 -15.040379 16.390732

v 28.995758 -16.475559 16.632446

v 3.707257 -31.904026 17.299377

v 2.091412 -32.071499 17.220671

v 27.171997 -18.625793 17.973404

v 6.740751 -32.046467 17.235260

v 27.452843 -20.973808 17.319496

v 9.635569 -31.823898 17.264080

v 26.149475 -22.539473 17.342270

v 24.921146 -24.201344 17.268295

v 11.845952 -31.512390 17.468521

v 13.707703 -31.144997 17.234062

v 16.144135 -29.789627 17.306396

v 4.493687 -0.665695 18.018524

v 1.847847 -2.841896 19.822666

v 4.416306 -3.537170 19.982407

v 6.747215 -2.731079 18.719452

v 8.207977 -5.896933 19.716583

v 11.133301 -8.013908 18.603668

v 0.298451 -13.513850 19.171604

v 0.693655 -15.169510 19.142788

v 1.872253 -16.301361 18.713181

v 13.913368 -10.676544 18.312752

v 1.865791 -18.232155 18.171053

v 7.210999 -15.912415 19.757263

v 2.370789 -14.951309 19.896683

v 6.189819 -17.145508 18.719238

v 14.782288 -14.382538 18.592133

v 6.945068 -18.505707 18.263737

v 21.807732 -13.100510 18.314266

v 1.518234 -21.420013 17.997688

v 11.585297 -17.748901 18.776489

v 2.505280 -22.822491 18.220764

v 16.650696 -16.396271 18.297394

v 1.628815 -24.974743 18.047256

v 13.909149 -15.414261 19.247742

v 14.123154 -16.711166 18.609085

v 11.873871 -19.118591 18.274803

v 2.529793 -28.199112 18.205603

v 1.771011 -28.822252 18.004356

v 2.509773 -30.703430 18.095036

v 25.868435 -20.435268 18.291765

v 9.490479 -30.402863 18.192831

v 14.548492 -29.033051 18.219650

v 22.218147 -24.614952 18.254974

v 24.689972 -22.564156 18.064056

v 1.764954 -5.887932 20.195915

v 1.619316 -7.892003 20.170788

v 6.786766 -6.035503 20.193542

v 1.584114 -10.360146 20.114540

v 1.816658 -13.156853 20.134809

v 11.420578 -15.003494 20.200924

v 10.117593 -10.366014 19.958454

v 12.077499 -14.661514 20.144312

v 11.459259 -16.244171 19.865677

f 1 2 3
f 4 3 2
f 1 5 2
f 4 6 7
f 8 7 6
f 6 4 2
f 5 1 9
f 6 10 8
f 11 8 10
f 11 10 12
f 10 6 13
f 2 13 6
f 14 5 9
f 13 2 15
f 12 10 16
f 14 15 5
f 2 5 15
f 13 16 10
f 12 16 17
f 15 14 18
f 16 13 19
f 13 15 20
f 20 21 13
f 19 13 21
f 16 22 17
f 19 22 16
f 17 22 23
f 24 15 18
f 20 15 24
f 21 25 19
f 22 19 25
f 20 24 26
f 21 20 26
f 25 21 27
f 25 23 22
f 26 27 21
f 27 28 25
f 23 25 28
f 28 29 23
f 30 31 32
f 32 33 30
f 31 34 35
f 33 32 36
f 35 32 31
f 36 32 37
f 32 35 3
f 3 38 32
f 37 32 38
f 39 40 35
f 38 41 37
f 42 37 41
f 3 35 1
f 38 3 4
f 4 41 38
f 41 7 42
f 42 7 43
f 40 1 35
f 7 41 4
f 7 8 43
f 8 44 43
f 8 11 44
f 40 45 46
f 40 9 1
f 40 46 47
f 12 48 11
f 9 40 47
f 12 49 48
f 50 51 47
f 9 47 51
f 51 52 9
f 14 9 52
f 49 12 17
f 14 52 18
f 51 53 52
f 17 54 49
f 55 18 52
f 53 55 52
f 54 17 23
f 23 56 54
f 55 57 18
f 24 18 57
f 24 57 26
f 56 23 29
f 29 58 56
f 57 59 26
f 26 59 27
f 29 60 58
f 59 61 27
f 61 62 27
f 62 28 27
f 62 63 28
f 28 63 64
f 29 28 64
f 64 60 29
f 65 66 67
f 65 68 66
f 68 69 66
f 68 70 69
f 68 65 71
f 70 68 34
f 71 39 68
f 34 68 39
f 34 31 70
f 72 70 31
f 31 30 72
f 73 72 30
f 74 71 65
f 75 73 30
f 76 71 74
f 75 30 33
f 39 35 34
f 77 75 33
f 39 71 45
f 33 36 77
f 36 78 77
f 78 36 37
f 37 79 78
f 71 76 80
f 37 42 79
f 80 45 71
f 45 40 39
f 81 79 42
f 76 82 80
f 42 43 81
f 83 80 82
f 45 80 84
f 45 84 46
f 83 85 80
f 48 44 11
f 84 80 85
f 84 50 46
f 47 46 50
f 86 87 83
f 85 83 87
f 84 88 50
f 87 89 85
f 85 90 84
f 88 84 90
f 89 90 85
f 89 87 91
f 53 51 50
f 53 50 88
f 53 92 55
f 88 92 53
f 88 90 93
f 56 94 54
f 92 95 55
f 93 92 88
f 55 95 57
f 89 96 90
f 93 90 96
f 56 60 94
f 97 96 89
f 92 93 98
f 56 58 60
f 95 99 57
f 59 57 99
f 95 92 98
f 98 93 96
f 61 59 99
f 99 62 61
f 62 99 100
f 98 96 101
f 98 102 95
f 99 95 102
f 102 100 99
f 100 63 62
f 101 102 98
f 101 103 102
f 104 67 105
f 67 66 105
f 104 65 67
f 66 69 106
f 107 65 104
f 106 70 108
f 106 69 70
f 107 74 65
f 108 70 72
f 108 72 73
f 76 74 107
f 76 107 109
f 73 75 110
f 75 77 110
f 110 77 111
f 77 78 111
f 111 78 112
f 78 79 112
f 109 82 76
f 112 79 113
f 113 79 81
f 43 113 81
f 114 83 82
f 113 43 115
f 43 44 115
f 116 83 114
f 116 86 83
f 48 115 44
f 115 48 117
f 86 116 118
f 117 48 119
f 49 119 48
f 119 49 54
f 86 91 87
f 119 54 120
f 86 118 121
f 91 86 121
f 121 122 91
f 91 122 89
f 121 118 123
f 54 94 120
f 121 124 122
f 125 124 121
f 97 89 122
f 60 126 94
f 124 97 122
f 96 97 127
f 126 60 64
f 64 128 126
f 124 127 97
f 64 63 128
f 127 124 129
f 129 124 130
f 129 131 127
f 101 96 127
f 100 132 63
f 128 63 132
f 101 127 133
f 133 127 131
f 103 134 102
f 100 102 134
f 134 132 100
f 130 131 129
f 133 103 101
f 131 135 133
f 135 103 133
f 136 103 135
f 137 105 138
f 137 104 105
f 105 139 138
f 139 105 66
f 66 106 139
f 104 137 107
f 140 109 107
f 111 141 110
f 109 140 114
f 141 111 112
f 114 82 109
f 118 116 142
f 119 120 117
f 142 123 118
f 123 142 143
f 120 144 145
f 144 120 94
f 125 121 123
f 125 123 146
f 126 144 94
f 146 123 147
f 128 148 126
f 146 130 125
f 130 124 125
f 149 148 128
f 132 149 128
f 150 151 146
f 130 146 151
f 149 132 152
f 132 134 152
f 131 130 153
f 153 130 151
f 153 135 131
f 136 134 103
f 153 151 154
f 135 153 154
f 152 134 155
f 154 156 135
f 157 154 151
f 136 155 134
f 156 136 135
f 158 156 154
f 136 156 159
f 137 138 160
f 138 139 160
f 161 107 137
f 161 162 140
f 140 107 161
f 108 163 106
f 110 163 108
f 73 110 108
f 164 140 165
f 164 114 140
f 112 113 141
f 113 166 141
f 167 116 164
f 116 114 164
f 166 113 115
f 115 117 166
f 167 142 116
f 168 142 167
f 169 117 120
f 170 143 168
f 142 168 143
f 170 171 143
f 145 169 120
f 143 147 123
f 147 143 171
f 144 172 145
f 173 174 171
f 147 171 174
f 144 126 172
f 126 148 172
f 147 174 175
f 149 176 148
f 175 150 147
f 150 146 147
f 175 174 177
f 157 151 150
f 149 152 178
f 157 150 175
f 157 175 179
f 180 179 175
f 178 152 181
f 155 181 152
f 179 158 157
f 154 157 158
f 179 182 158
f 159 156 158
f 155 136 159
f 155 159 183
f 181 155 183
f 184 182 179
f 183 185 181
f 159 158 186
f 183 159 187
f 186 158 182
f 187 159 186
f 187 185 183
f 182 188 189
f 189 186 182
f 187 186 189
f 190 160 191
f 161 137 190
f 137 160 190
f 191 160 139
f 192 139 106
f 192 106 163
f 162 165 140
f 165 193 164
f 194 164 193
f 194 167 164
f 195 168 167
f 117 196 166
f 196 117 169
f 168 195 170
f 197 170 195
f 170 197 198
f 169 145 199
f 171 170 173
f 172 199 145
f 170 198 200
f 173 170 200
f 173 177 174
f 200 177 173
f 201 202 200
f 177 200 202
f 149 203 176
f 149 178 203
f 202 204 177
f 180 175 177
f 204 180 177
f 178 181 205
f 206 179 180
f 204 207 180
f 206 180 207
f 205 181 208
f 209 207 204
f 185 210 181
f 208 181 210
f 207 184 206
f 179 206 184
f 207 211 184
f 212 211 207
f 210 185 213
f 184 188 182
f 185 187 189
f 213 185 214
f 212 215 211
f 188 184 211
f 211 216 188
f 216 189 188
f 185 189 214
f 216 214 189
f 215 216 211
f 214 216 217
f 191 218 190
f 190 218 219
f 220 161 219
f 219 161 190
f 139 221 191
f 222 161 220
f 221 139 223
f 192 223 139
f 222 224 162
f 222 162 161
f 224 225 165
f 224 165 162
f 226 165 225
f 165 226 193
f 110 227 163
f 228 193 226
f 193 228 194
f 229 227 110
f 141 229 110
f 230 229 141
f 231 230 141
f 141 166 231
f 232 167 194
f 233 231 166
f 232 195 167
f 234 195 232
f 195 234 197
f 169 235 196
f 236 197 234
f 169 237 235
f 197 236 198
f 238 237 199
f 169 199 237
f 236 239 198
f 238 240 241
f 240 238 199
f 199 172 240
f 176 240 172
f 172 148 176
f 198 239 242
f 201 200 198
f 242 201 198
f 243 244 176
f 176 203 243
f 242 245 201
f 202 201 246
f 178 247 203
f 202 246 204
f 245 242 248
f 245 246 201
f 247 178 205
f 249 250 245
f 246 245 250
f 209 204 246
f 250 209 246
f 209 250 251
f 252 251 250
f 207 209 212
f 212 209 251
f 208 210 253
f 212 251 254
f 213 253 210
f 213 255 253
f 254 215 212
f 254 256 215
f 213 214 257
f 216 215 217
f 257 258 213
f 255 213 258
f 215 256 259
f 257 214 217
f 260 259 256
f 217 215 259
f 257 217 258
f 259 261 217
f 258 217 261
f 261 259 262
f 261 263 258
f 262 264 261
f 265 218 191
f 218 265 219
f 265 191 221
f 266 220 219
f 266 222 220
f 222 266 267
f 268 224 222
f 222 267 268
f 268 225 224
f 269 192 163
f 225 268 270
f 163 271 269
f 270 226 225
f 270 272 226
f 226 272 273
f 163 274 271
f 274 163 227
f 273 228 226
f 273 194 228
f 194 273 275
f 276 229 230
f 277 230 231
f 194 275 278
f 278 232 194
f 279 231 233
f 280 232 278
f 166 281 233
f 166 282 281
f 283 234 280
f 280 234 232
f 282 166 196
f 283 284 234
f 196 285 282
f 286 285 196
f 235 286 196
f 236 234 284
f 285 286 287
f 288 236 284
f 238 286 235
f 289 287 286
f 236 288 290
f 286 238 289
f 235 237 238
f 236 290 291
f 292 287 289
f 238 241 289
f 289 241 292
f 291 239 236
f 292 241 293
f 241 240 293
f 294 239 291
f 294 295 239
f 240 296 293
f 176 296 240
f 239 295 242
f 244 297 296
f 296 176 244
f 295 294 298
f 298 299 295
f 242 295 248
f 299 248 295
f 243 203 247
f 247 300 243
f 248 299 301
f 301 302 248
f 248 249 245
f 302 249 248
f 247 205 208
f 208 303 247
f 302 304 249
f 252 250 249
f 208 305 303
f 304 252 249
f 304 306 252
f 306 307 252
f 251 252 307
f 305 208 253
f 306 308 307
f 254 251 307
f 254 307 309
f 309 307 308
f 308 310 309
f 254 309 256
f 311 253 312
f 256 309 260
f 255 312 253
f 310 260 309
f 260 310 313
f 312 255 314
f 259 260 262
f 315 312 314
f 313 316 260
f 255 258 263
f 262 260 316
f 263 317 255
f 314 255 317
f 263 261 264
f 262 316 318
f 264 262 318
f 263 264 317
f 318 319 264
f 320 317 264
f 319 320 264
f 319 318 321
f 321 320 319
f 265 322 219
f 265 323 322
f 219 322 266
f 221 323 265
f 221 324 323
f 223 324 221
f 223 325 324
f 266 326 267
f 192 325 223
f 192 327 325
f 267 328 268
f 269 327 192
f 269 329 327
f 268 328 270
f 271 329 269
f 271 330 329
f 274 330 271
f 331 330 274
f 331 274 227
f 332 331 227
f 227 229 332
f 229 333 332
f 229 276 333
f 334 275 273
f 230 277 276
f 335 275 334
f 336 277 231
f 336 231 279
f 278 275 335
f 337 279 233
f 338 337 233
f 233 281 338
f 278 339 280
f 281 282 340
f 280 341 283
f 285 340 282
f 283 341 284
f 288 284 341
f 342 290 288
f 291 290 342
f 292 343 287
f 342 344 291
f 294 291 344
f 293 345 343
f 343 292 293
f 293 297 345
f 293 296 297
f 344 346 294
f 244 347 297
f 346 348 294
f 243 347 244
f 298 294 348
f 298 348 299
f 349 299 348
f 301 299 349
f 247 350 300
f 351 301 349
f 301 351 302
f 247 352 350
f 352 247 303
f 353 352 303
f 304 302 351
f 303 354 353
f 354 303 305
f 355 354 305
f 356 304 351
f 356 306 304
f 305 253 311
f 311 355 305
f 356 357 306
f 357 308 306
f 312 315 311
f 315 358 311
f 358 359 360
f 358 315 359
f 308 357 310
f 310 357 361
f 315 362 359
f 361 313 310
f 361 316 313
f 314 363 315
f 362 315 363
f 314 317 364
f 363 365 362
f 364 363 314
f 365 363 366
f 367 364 317
f 320 367 317
f 363 364 366
f 364 367 368
f 368 366 364
f 320 321 369
f 370 366 368
f 367 320 369
f 371 322 323
f 322 371 266
f 372 371 323
f 372 323 324
f 326 266 371
f 324 373 372
f 324 325 373
f 325 327 373
f 373 327 374
f 328 267 326
f 327 329 374
f 374 329 375
f 329 330 375
f 376 270 328
f 330 331 375
f 375 331 377
f 331 332 377
f 272 378 273
f 377 332 379
f 379 332 333
f 334 273 378
f 333 276 379
f 379 276 380
f 276 277 380
f 381 380 277
f 277 336 381
f 381 336 382
f 382 336 279
f 279 337 382
f 383 382 337
f 339 278 335
f 337 384 383
f 384 337 338
f 338 281 384
f 384 281 385
f 281 340 385
f 339 341 280
f 385 340 386
f 340 285 287
f 387 386 340
f 387 340 287
f 341 388 288
f 388 341 389
f 342 288 388
f 287 390 387
f 287 343 390
f 390 343 391
f 345 391 343
f 345 297 391
f 392 391 297
f 347 392 297
f 346 393 348
f 347 243 394
f 393 395 348
f 394 243 300
f 395 349 348
f 396 397 398
f 399 398 397
f 350 400 300
f 397 401 399
f 402 399 401
f 397 396 403
f 350 352 403
f 403 396 350
f 397 403 404
f 405 402 401
f 353 404 403
f 401 397 404
f 353 403 352
f 401 406 405
f 407 351 349
f 408 405 406
f 401 404 409
f 404 353 354
f 406 410 408
f 404 354 409
f 401 409 411
f 406 401 411
f 412 354 355
f 409 354 412
f 410 406 411
f 356 351 413
f 412 355 311
f 409 412 414
f 415 414 360
f 415 409 414
f 412 360 414
f 311 358 412
f 358 360 412
f 360 359 415
f 411 409 415
f 415 416 411
f 417 411 416
f 416 415 418
f 356 419 357
f 415 359 365
f 357 419 361
f 362 365 359
f 418 415 365
f 418 365 420
f 419 421 361
f 420 422 418
f 361 421 316
f 420 365 423
f 421 424 316
f 318 316 424
f 366 423 365
f 420 423 425
f 318 424 321
f 370 426 366
f 426 423 366
f 425 423 426
f 424 427 321
f 427 369 321
f 427 367 369
f 368 367 428
f 427 428 367
f 370 368 428
f 427 429 428
f 430 371 372
f 431 326 430
f 371 430 326
f 373 432 372
f 373 433 432
f 433 373 374
f 434 326 435
f 326 434 328
f 375 436 374
f 328 434 376
f 436 375 377
f 377 437 436
f 272 270 438
f 438 270 376
f 377 439 437
f 439 377 379
f 439 379 380
f 380 440 439
f 440 380 381
f 381 441 440
f 441 381 382
f 441 382 383
f 335 442 339
f 384 443 383
f 384 385 443
f 339 442 341
f 386 444 443
f 443 385 386
f 386 387 445
f 446 445 387
f 387 390 446
f 447 342 388
f 391 446 390
f 344 342 447
f 446 391 448
f 346 344 449
f 344 447 449
f 391 392 450
f 393 346 449
f 392 451 450
f 392 347 451
f 347 394 451
f 452 394 300
f 398 453 454
f 398 455 453
f 398 399 455
f 300 400 452
f 400 350 456
f 456 396 454
f 454 396 398
f 455 399 402
f 350 396 456
f 402 405 455
f 349 395 457
f 405 408 458
f 407 349 457
f 408 459 458
f 408 410 459
f 460 351 407
f 459 410 461
f 461 462 459
f 351 460 413
f 461 410 411
f 461 463 462
f 461 411 417
f 463 464 462
f 462 464 465
f 417 463 461
f 466 465 464
f 467 356 413
f 464 463 468
f 464 469 466
f 417 468 463
f 417 416 418
f 419 356 467
f 469 464 468
f 468 417 470
f 468 471 469
f 422 472 417
f 417 418 422
f 470 417 472
f 468 470 471
f 473 474 419
f 421 419 474
f 475 472 422
f 425 422 420
f 425 475 422
f 476 424 421
f 476 477 424
f 427 424 477
f 426 370 478
f 426 475 425
f 477 429 427
f 370 428 478
f 426 478 479
f 430 480 431
f 430 372 480
f 481 480 372
f 432 481 372
f 435 326 431
f 482 432 433
f 433 374 483
f 483 482 433
f 374 484 483
f 436 484 374
f 485 484 436
f 437 485 436
f 486 485 437
f 434 487 376
f 486 437 439
f 376 487 438
f 439 488 486
f 272 438 378
f 439 440 489
f 489 488 439
f 440 490 489
f 491 334 378
f 492 490 440
f 441 492 440
f 335 334 491
f 335 491 442
f 441 443 492
f 441 383 443
f 493 492 443
f 444 493 443
f 444 494 493
f 442 495 341
f 496 493 494
f 341 495 497
f 494 498 496
f 444 386 494
f 389 341 497
f 386 445 494
f 498 494 445
f 388 389 499
f 446 500 445
f 450 501 391
f 449 502 393
f 451 501 450
f 453 503 454
f 395 393 502
f 394 452 451
f 504 453 455
f 455 505 504
f 506 452 400
f 503 456 454
f 506 400 456
f 502 507 395
f 458 455 405
f 457 395 507
f 508 458 459
f 507 407 457
f 507 509 407
f 508 459 510
f 407 509 460
f 462 510 459
f 462 465 510
f 469 511 466
f 511 469 512
f 512 469 471
f 512 513 511
f 467 473 419
f 512 514 513
f 471 514 512
f 470 515 471
f 514 471 515
f 513 514 516
f 470 472 517
f 517 515 470
f 517 472 518
f 518 472 519
f 520 421 474
f 472 475 519
f 520 476 421
f 475 521 519
f 479 521 426
f 475 426 521
f 521 522 519
f 429 477 523
f 478 428 524
f 478 525 479
f 429 524 428
f 524 525 478
f 521 479 526
f 526 527 521
f 527 522 521
f 525 526 479
f 431 480 481
f 528 431 481
f 481 432 528
f 435 431 528
f 432 529 528
f 529 432 482
f 530 528 529
f 482 483 529
f 483 484 529
f 531 435 528
f 531 528 530
f 532 484 485
f 435 531 434
f 533 531 530
f 530 529 532
f 529 484 532
f 485 486 532
f 534 434 531
f 486 535 532
f 534 531 533
f 434 534 487
f 530 536 533
f 486 537 535
f 486 488 537
f 538 534 533
f 438 487 539
f 438 539 378
f 534 538 487
f 533 540 541
f 533 536 540
f 488 542 537
f 488 489 542
f 543 378 539
f 487 544 539
f 533 541 538
f 544 487 538
f 490 542 489
f 538 541 545
f 492 542 490
f 378 543 491
f 539 544 543
f 546 544 538
f 546 538 545
f 544 546 547
f 542 493 548
f 542 492 493
f 549 544 547
f 491 543 442
f 544 549 550
f 550 543 544
f 551 548 493
f 543 552 442
f 543 550 552
f 493 496 551
f 550 549 552
f 495 442 552
f 498 551 496
f 497 495 552
f 445 553 498
f 500 553 445
f 389 497 499
f 552 554 497
f 552 555 554
f 499 497 554
f 446 448 500
f 556 499 554
f 499 556 388
f 555 557 554
f 388 556 447
f 556 554 557
f 449 447 556
f 448 391 501
f 558 556 557
f 502 449 556
f 556 558 502
f 503 453 504
f 559 501 451
f 559 451 452
f 456 503 560
f 560 506 456
f 507 502 558
f 505 455 458
f 558 561 507
f 509 507 561
f 509 562 460
f 465 563 510
f 563 465 466
f 460 562 564
f 460 564 413
f 563 466 511
f 467 413 564
f 565 467 564
f 513 566 511
f 467 565 567
f 467 567 473
f 566 513 516
f 516 568 566
f 568 516 514
f 567 569 473
f 515 570 514
f 568 514 570
f 517 571 515
f 518 571 517
f 571 570 515
f 570 572 568
f 573 568 572
f 474 473 569
f 573 572 574
f 569 575 474
f 570 571 576
f 575 520 474
f 518 519 577
f 571 518 577
f 572 578 574
f 578 579 574
f 574 579 580
f 570 576 572
f 581 476 520
f 576 571 577
f 578 572 576
f 579 578 582
f 477 476 581
f 522 577 519
f 576 577 583
f 576 582 578
f 581 584 477
f 584 523 477
f 582 576 585
f 522 586 577
f 583 577 586
f 524 429 523
f 585 576 587
f 527 526 588
f 583 586 589
f 583 587 576
f 525 590 526
f 522 527 588
f 586 522 588
f 589 586 588
f 583 589 591
f 587 583 591
f 590 592 526
f 588 526 592
f 589 588 593
f 536 530 532
f 532 594 536
f 535 594 532
f 536 594 595
f 535 542 594
f 542 535 537
f 594 548 595
f 536 595 540
f 594 542 548
f 596 545 541
f 540 596 541
f 540 595 597
f 598 546 545
f 596 598 545
f 540 597 596
f 595 551 597
f 551 595 548
f 599 547 546
f 598 599 546
f 597 600 596
f 601 547 599
f 597 551 602
f 602 551 498
f 603 552 549
f 604 549 547
f 498 605 602
f 549 604 603
f 605 498 553
f 547 606 604
f 604 607 603
f 553 608 605
f 608 553 500
f 603 555 552
f 603 607 555
f 500 609 608
f 500 610 609
f 610 500 448
f 611 555 607
f 607 612 611
f 555 611 557
f 448 613 610
f 613 448 501
f 501 614 613
f 558 557 611
f 501 615 614
f 504 616 503
f 616 617 503
f 559 615 501
f 616 504 505
f 618 558 611
f 452 506 559
f 561 558 618
f 509 561 619
f 510 620 508
f 509 619 621
f 621 562 509
f 620 510 622
f 563 622 510
f 621 623 562
f 564 562 623
f 511 624 563
f 624 511 625
f 566 625 511
f 566 568 626
f 573 626 568
f 569 567 627
f 628 573 574
f 569 627 575
f 628 574 580
f 629 575 627
f 575 629 520
f 580 579 630
f 631 580 630
f 520 629 581
f 582 630 579
f 632 581 629
f 633 630 582
f 584 581 632
f 585 633 582
f 523 634 524
f 525 524 634
f 634 590 525
f 592 590 635
f 588 592 635
f 635 593 588
f 593 591 589
f 636 598 596
f 596 600 636
f 636 599 598
f 601 599 636
f 600 597 602
f 636 637 601
f 636 638 637
f 638 636 600
f 639 600 602
f 600 639 638
f 602 605 639
f 606 547 601
f 606 601 637
f 640 637 638
f 637 640 606
f 638 641 640
f 641 638 639
f 639 642 641
f 639 643 642
f 643 639 605
f 604 606 607
f 644 640 641
f 643 605 608
f 645 607 606
f 646 606 640
f 606 646 645
f 640 644 646
f 610 647 609
f 645 612 607
f 612 645 646
f 610 648 647
f 612 646 649
f 610 650 648
f 651 611 612
f 613 650 610
f 613 652 650
f 613 653 652
f 651 612 654
f 614 653 613
f 505 655 616
f 559 656 615
f 560 503 617
f 618 611 651
f 618 651 657
f 559 658 656
f 659 506 560
f 559 659 658
f 659 559 506
f 655 505 458
f 458 660 655
f 618 657 661
f 561 618 619
f 660 458 508
f 508 662 660
f 661 619 618
f 508 663 662
f 663 508 620
f 621 619 664
f 665 622 563
f 623 621 664
f 664 666 623
f 666 667 623
f 667 564 623
f 566 668 625
f 667 565 564
f 667 669 565
f 566 670 668
f 670 566 626
f 626 671 670
f 669 567 565
f 669 627 567
f 626 573 628
f 628 672 626
f 673 628 580
f 580 631 673
f 674 629 627
f 630 675 631
f 633 675 630
f 674 632 629
f 585 676 633
f 584 677 523
f 677 678 523
f 634 523 678
f 679 585 587
f 676 585 679
f 634 678 680
f 680 590 634
f 591 679 587
f 680 681 590
f 681 635 590
f 682 679 591
f 681 683 635
f 593 635 683
f 591 593 684
f 684 682 591
f 593 683 684
f 643 685 642
f 642 686 641
f 685 643 608
f 687 644 641
f 641 686 687
f 609 685 608
f 688 687 686
f 609 689 685
f 649 646 644
f 609 647 689
f 644 690 649
f 644 687 690
f 689 647 691
f 647 648 691
f 692 691 648
f 692 648 650
f 654 612 649
f 650 652 692
f 649 693 654
f 693 649 690
f 690 694 693
f 652 653 695
f 653 614 695
f 695 614 696
f 657 651 654
f 693 694 697
f 696 614 615
f 615 656 696
f 698 617 616
f 699 698 616
f 699 616 655
f 655 700 699
f 697 654 693
f 701 697 694
f 655 702 700
f 654 697 657
f 655 703 702
f 660 703 655
f 660 704 703
f 697 661 657
f 697 705 661
f 705 697 701
f 660 706 704
f 662 706 660
f 707 661 705
f 620 708 663
f 620 709 708
f 661 664 619
f 664 661 707
f 622 709 620
f 622 710 709
f 707 711 664
f 665 710 622
f 563 712 665
f 563 713 712
f 664 711 666
f 624 713 563
f 624 714 713
f 625 714 624
f 625 715 714
f 625 716 715
f 668 716 625
f 668 717 716
f 670 717 668
f 670 671 717
f 626 718 671
f 626 672 718
f 719 627 669
f 720 672 628
f 673 720 628
f 674 627 719
f 673 631 721
f 631 675 721
f 722 721 675
f 723 722 675
f 675 633 723
f 724 725 632
f 725 584 632
f 680 678 726
f 726 727 680
f 681 680 727
f 682 684 728
f 683 681 729
f 729 684 683
f 686 642 685
f 685 730 686
f 685 689 730
f 688 686 730
f 731 688 730
f 731 730 689
f 732 687 688
f 733 731 689
f 689 691 733
f 687 732 734
f 688 735 732
f 735 688 731
f 735 731 733
f 736 733 691
f 734 690 687
f 736 691 692
f 734 737 690
f 736 692 695
f 652 695 692
f 694 690 737
f 738 694 737
f 656 739 696
f 740 741 617
f 740 617 698
f 698 742 740
f 698 699 742
f 560 741 743
f 617 741 560
f 699 700 742
f 738 701 694
f 743 659 560
f 658 739 656
f 658 743 739
f 743 658 659
f 700 702 703
f 706 703 704
f 744 705 701
f 701 738 744
f 706 662 745
f 662 663 745
f 746 705 744
f 663 747 745
f 663 708 747
f 705 746 707
f 708 748 747
f 748 708 709
f 707 746 749
f 711 707 749
f 750 748 709
f 709 710 750
f 749 751 711
f 752 710 665
f 752 665 712
f 750 710 752
f 666 711 751
f 712 753 752
f 753 712 713
f 751 754 666
f 753 714 755
f 714 753 713
f 667 666 754
f 755 714 715
f 715 756 755
f 715 716 756
f 669 667 754
f 754 757 669
f 716 717 756
f 758 755 756
f 759 756 717
f 717 671 759
f 756 760 758
f 760 756 759
f 671 718 759
f 669 757 761
f 718 762 759
f 718 672 762
f 669 761 719
f 759 763 760
f 672 720 762
f 759 762 763
f 762 764 763
f 764 762 720
f 764 720 673
f 764 673 721
f 765 763 764
f 721 722 764
f 674 719 766
f 765 764 767
f 722 723 764
f 764 723 767
f 632 674 724
f 767 723 633
f 676 767 633
f 725 768 584
f 677 584 768
f 679 769 676
f 768 770 677
f 770 771 677
f 678 677 771
f 682 769 679
f 772 726 678
f 773 727 726
f 774 727 773
f 681 727 774
f 774 729 681
f 729 775 684
f 728 684 775
f 732 776 777
f 776 732 735
f 778 735 733
f 736 778 733
f 734 732 777
f 737 734 779
f 734 777 779
f 778 736 780
f 736 695 780
f 737 779 781
f 696 782 695
f 743 783 784
f 783 741 785
f 741 786 785
f 696 739 782
f 739 784 782
f 743 741 783
f 741 740 786
f 737 781 738
f 786 740 742
f 739 743 784
f 786 742 787
f 742 700 787
f 788 738 781
f 700 703 787
f 789 787 703
f 706 789 703
f 744 738 788
f 790 788 781
f 789 706 745
f 746 744 788
f 788 790 746
f 789 745 791
f 747 791 745
f 791 747 748
f 792 746 790
f 746 792 749
f 793 748 750
f 751 749 792
f 792 794 751
f 752 793 750
f 751 794 795
f 751 795 754
f 753 796 752
f 796 753 755
f 797 754 795
f 757 754 797
f 798 755 758
f 758 760 798
f 761 757 799
f 761 799 800
f 761 800 719
f 719 800 801
f 763 765 802
f 801 766 719
f 803 765 767
f 766 804 674
f 674 804 724
f 767 805 803
f 767 676 805
f 724 806 725
f 807 805 676
f 725 806 808
f 725 808 768
f 807 676 769
f 682 809 769
f 772 678 771
f 682 728 810
f 810 809 682
f 726 772 773
f 728 775 811
f 811 810 728
f 812 774 773
f 729 774 812
f 812 813 729
f 775 729 813
f 813 811 775
f 776 814 777
f 776 735 815
f 735 816 815
f 816 735 778
f 778 817 816
f 814 776 815
f 778 780 817
f 777 814 779
f 695 818 780
f 819 820 783
f 821 784 822
f 820 822 784
f 784 783 820
f 819 783 785
f 818 695 782
f 823 818 782
f 782 821 823
f 821 782 784
f 824 785 786
f 786 825 824
f 825 786 787
f 781 779 826
f 827 825 787
f 789 827 787
f 790 781 826
f 828 790 826
f 789 791 827
f 790 828 792
f 828 829 792
f 748 793 791
f 794 792 829
f 793 752 796
f 798 796 755
f 799 757 797
f 830 800 799
f 760 763 802
f 800 831 801
f 765 803 802
f 766 801 804
f 803 805 832
f 804 833 724
f 833 834 724
f 834 806 724
f 806 834 835
f 807 769 836
f 835 808 806
f 835 837 808
f 768 808 837
f 768 837 770
f 770 837 838
f 770 838 771
f 771 838 839
f 772 771 839
f 839 840 772
f 772 840 773
f 812 773 840
f 840 841 812
f 841 842 812
f 813 812 842
f 843 815 816
f 843 816 817
f 817 844 843
f 814 815 843
f 817 780 844
f 845 814 843
f 780 818 844
f 820 846 822
f 846 820 819
f 846 819 824
f 819 785 824
f 847 821 822
f 845 779 814
f 821 847 823
f 848 847 822
f 848 822 846
f 823 847 818
f 849 847 848
f 826 779 845
f 826 845 850
f 826 850 851
f 826 851 828
f 851 829 828
f 829 851 852
f 794 829 852
f 853 794 852
f 853 795 794
f 854 795 853
f 854 855 795
f 855 797 795
f 798 856 796
f 855 857 797
f 799 797 857
f 798 858 856
f 857 830 799
f 858 798 760
f 858 760 802
f 830 831 800
f 858 802 803
f 801 831 859
f 832 860 803
f 801 859 804
f 833 804 859
f 832 861 860
f 834 833 862
f 832 807 861
f 863 834 862
f 832 805 807
f 807 836 861
f 835 834 863
f 835 863 837
f 837 863 864
f 838 864 865
f 809 866 836
f 836 769 809
f 837 864 838
f 810 867 866
f 809 810 866
f 865 839 838
f 810 811 867
f 840 839 865
f 840 865 868
f 869 867 811
f 868 870 840
f 811 813 871
f 871 869 811
f 841 840 870
f 842 841 870
f 870 871 842
f 813 842 871
f 843 872 873
f 872 843 844
f 844 874 872
f 873 845 843
f 845 873 875
f 874 844 818
f 876 846 824
f 818 877 874
f 876 848 846
f 878 824 879
f 876 849 848
f 824 825 879
f 877 818 847
f 847 880 877
f 847 881 880
f 881 847 849
f 845 875 882
f 825 827 879
f 827 883 879
f 845 882 850
f 882 884 850
f 850 884 851
f 885 851 884
f 886 827 791
f 791 887 886
f 851 885 888
f 791 793 887
f 851 888 852
f 887 793 796
f 796 889 887
f 888 890 852
f 891 853 852
f 852 890 891
f 854 853 891
f 856 889 796
f 892 890 893
f 854 891 855
f 890 894 891
f 857 855 891
f 891 894 857
f 890 892 894
f 857 894 830
f 830 894 892
f 892 895 830
f 830 895 831
f 895 896 831
f 897 858 803
f 803 898 897
f 831 896 859
f 896 899 859
f 803 860 898
f 833 859 899
f 899 862 833
f 862 899 900
f 900 901 862
f 860 861 902
f 901 863 862
f 836 903 902
f 902 861 836
f 901 904 863
f 863 904 864
f 865 864 905
f 866 906 903
f 903 836 866
f 906 866 867
f 865 905 907
f 907 868 865
f 868 908 870
f 871 909 869
f 909 871 870
f 910 873 872
f 911 910 872
f 911 872 874
f 878 912 876
f 878 876 824
f 873 910 875
f 877 911 874
f 913 876 912
f 881 849 913
f 849 876 913
f 914 878 879
f 915 911 877
f 916 914 879
f 910 917 875
f 917 910 911
f 877 918 915
f 918 877 880
f 880 919 918
f 919 880 920
f 880 881 920
f 911 915 917
f 875 917 882
f 879 883 916
f 917 921 882
f 922 915 918
f 915 922 917
f 883 827 923
f 882 921 884
f 922 918 919
f 827 886 923
f 884 921 924
f 925 921 917
f 925 917 922
f 926 922 919
f 885 884 924
f 925 924 921
f 922 926 927
f 925 922 927
f 925 928 924
f 885 893 888
f 893 885 924
f 887 889 929
f 893 890 888
f 927 930 925
f 927 931 930
f 931 927 926
f 926 932 931
f 924 928 893
f 933 889 856
f 934 928 925
f 934 925 930
f 935 892 893
f 935 893 928
f 931 936 930
f 931 937 936
f 856 938 933
f 928 939 940
f 930 936 934
f 936 937 941
f 856 858 938
f 935 895 892
f 928 940 935
f 935 940 895
f 939 928 934
f 942 934 936
f 858 897 938
f 896 895 940
f 942 936 941
f 939 934 943
f 939 944 940
f 945 942 941
f 946 897 898
f 898 947 946
f 896 940 899
f 899 940 944
f 944 939 943
f 934 948 943
f 948 934 942
f 944 900 899
f 944 943 900
f 943 901 900
f 901 943 948
f 949 948 942
f 949 942 945
f 947 898 860
f 901 948 949
f 950 951 902
f 951 860 902
f 949 904 901
f 952 904 949
f 903 953 950
f 950 902 903
f 952 954 904
f 864 904 905
f 904 954 905
f 903 906 955
f 955 953 903
f 905 954 956
f 907 905 956
f 907 956 957
f 867 958 955
f 906 867 955
f 907 957 868
f 867 869 959
f 959 958 867
f 957 908 868
f 909 908 960
f 960 959 909
f 869 909 959
f 909 870 908
f 913 961 881
f 961 913 912
f 912 878 962
f 878 914 962
f 920 881 961
f 912 963 961
f 963 912 962
f 961 964 920
f 961 963 964
f 919 920 964
f 965 919 964
f 966 919 965
f 926 919 966
f 887 967 886
f 932 926 966
f 887 968 967
f 929 969 968
f 968 887 929
f 970 932 966
f 971 969 929
f 971 929 889
f 972 973 974
f 969 974 973
f 969 971 974
f 975 970 966
f 976 974 971
f 933 971 889
f 937 931 932
f 932 977 937
f 977 932 970
f 978 971 933
f 972 974 979
f 980 971 978
f 981 970 975
f 976 971 980
f 981 977 970
f 976 979 974
f 933 982 978
f 938 982 933
f 975 983 984
f 978 982 980
f 937 977 941
f 985 979 976
f 979 985 984
f 981 975 984
f 984 985 981
f 897 982 938
f 986 976 980
f 986 980 982
f 987 982 897
f 946 987 897
f 986 982 987
f 977 945 941
f 946 988 987
f 947 988 946
f 977 989 945
f 989 977 981
f 976 986 985
f 990 986 988
f 988 986 987
f 947 951 988
f 986 990 985
f 991 981 985
f 947 860 951
f 945 952 949
f 950 988 951
f 952 945 989
f 981 992 989
f 991 992 981
f 991 985 990
f 988 950 953
f 953 990 988
f 952 989 954
f 989 992 993
f 955 990 953
f 989 993 954
f 958 991 990
f 956 954 993
f 990 955 958
f 956 993 957
f 993 992 957
f 958 959 991
f 992 908 957
f 992 960 908
f 960 992 991
f 991 959 960
f 914 916 962
f 994 962 916
f 994 916 883
f 962 994 963
f 995 994 883
f 923 995 883
f 965 964 963
f 963 996 965
f 996 963 994
f 994 995 996
f 997 995 923
f 886 997 923
f 886 998 997
f 995 999 996
f 999 995 997
f 997 998 999
f 967 998 886
f 973 998 967
f 967 968 973
f 996 1000 965
f 1000 996 999
f 965 1000 966
f 973 999 998
f 969 973 968
f 975 966 1000
f 999 1001 1000
f 972 999 973
f 1000 1001 975
f 999 1002 1001
f 1002 999 972
f 983 975 1001
f 972 979 1002
f 1001 1002 983
f 984 983 1002
f 1002 979 984
