v 0.966049 5.138809 -60.438187

v -1.766907 0.780060 -59.983719

v -1.529083 5.882202 -59.518005

v -0.814728 -4.693428 -60.565231

v 9.878555 2.723125 -60.444260

v 6.794464 -4.102665 -60.534966

v -2.037949 -4.413536 -59.952606

v -2.369514 -9.292542 -59.836914

v 10.240601 -2.422241 -59.630920

v 2.399994 -12.318604 -60.501671

v 6.389053 -10.704636 -60.509842

v 8.720581 -5.748322 -59.010376

v 6.648987 -12.727386 -59.651733

v 8.947205 -10.533218 -58.524109

v -2.940891 8.488235 -57.749378

v -1.673506 10.195068 -56.592651

v 2.844688 8.704315 -56.928604

v -3.112946 4.305069 -57.904785

v -3.318924 -0.331802 -57.319336

v 7.948120 8.179581 -56.730560

v -3.437706 -3.910872 -57.716339

v 13.661011 6.156158 -55.472961

v 14.568115 1.815689 -57.466156

v 13.106079 -2.785034 -57.192566

v -2.559479 -11.464836 -58.241692

v 11.414246 -8.878555 -58.093445

v 0.984482 -15.279587 -59.539902

v -2.901543 -16.234390 -57.805069

v -2.031097 -18.351746 -56.314026

v 5.469604 -17.269836 -56.093506

v 10.084106 -12.881165 -55.627228

v 7.960266 -14.058685 -57.644806

v 2.691040 -17.265228 -57.667450

v -2.833008 41.299820 -54.712799

v -2.023773 38.391113 -56.580345

v -4.008301 39.000332 -55.848839

v 3.427887 40.389709 -54.719883

v -2.998627 33.055084 -56.584587

v -4.404228 33.244904 -55.690071

v 6.639801 35.114243 -56.491974

v 0.770523 30.755539 -56.569160

v -4.037521 28.564697 -55.953953

v 6.825417 30.488312 -56.540676

v 9.775085 36.730255 -54.782455

v 14.573891 32.605408 -56.417953

v 15.218018 28.686264 -56.577904

v -4.418930 22.082705 -55.642330

v -4.225559 25.394957 -55.727142

v -2.516815 20.545082 -55.732742

v 11.943253 26.087494 -54.720337

v 17.727325 29.140022 -55.674347

v -3.970816 16.082760 -55.785202

v 17.125244 26.359474 -54.661095

v -3.923103 9.678368 -55.407471

v 3.026074 12.404297 -56.275726

v 6.110062 14.494568 -56.235245

v 9.029877 11.612122 -54.895981

v -5.100433 2.911287 -52.290138

v -5.022587 -4.164055 -52.172546

v -4.051544 -6.797691 -54.572510

v 17.853394 1.398945 -54.957672

v 15.820435 -4.352905 -55.855591

v -4.359802 -12.071671 -53.596497

v 14.539795 -10.497559 -54.564331

v -3.661667 -18.008743 -55.561752

v 8.810951 -16.842201 -55.872391

v 0.347107 -20.332397 -53.799438

v 11.065063 -14.637444 -54.568176

v -1.534527 51.658630 -53.199677

v -2.704575 48.620010 -54.568840

v -3.775455 49.364182 -53.772903

v 2.728043 48.532074 -54.573074

v -3.304436 45.879379 -54.478302

v -3.852683 42.939369 -53.717857

v -3.928192 40.506451 -53.336632

v 4.477173 50.755432 -52.764465

v 7.616516 43.451508 -54.561333

v -4.521458 37.297493 -53.697559

v -4.427792 33.349274 -53.541412

v 12.336304 41.352631 -53.109741

v 14.641815 35.287964 -54.318848

v -4.426559 28.628666 -53.730755

v -3.360008 26.068073 -54.885910

v -4.394951 25.022202 -53.719170

v -0.615906 27.617676 -54.727142

v 6.410980 27.680023 -54.718300

v -0.222260 19.794426 -54.748398

v -4.345530 17.552490 -52.780968

v 18.230133 30.194214 -53.344421

v -2.151924 15.279499 -54.826389

v 5.659803 17.126404 -54.749996

v -4.379421 14.000346 -53.697536

v -2.665863 13.003265 -54.824188

v 8.597443 15.123703 -54.733543

v 19.138176 16.047211 -54.654568

v -5.001771 6.332107 -52.171814

v 21.453369 17.990219 -52.924141

v 14.098419 8.114809 -54.728569

v -5.083409 1.316851 -52.176857

v 20.327316 8.108032 -54.662544

v 22.780029 10.976410 -52.937523

v 20.303253 1.598724 -54.534729

v -5.231440 -9.039727 -52.038498

v 22.546326 5.355957 -53.078918

v 18.544922 -5.704773 -54.391541

v -5.851284 -16.856022 -52.067627

v 21.416748 -2.658020 -53.176514

v -4.074646 -20.286987 -53.629364

v 6.710785 -20.399689 -51.559357

v 9.066910 -17.546173 -53.477722

v -2.723850 54.367279 -51.722427

v 1.724365 53.157837 -52.320984

v 3.416718 54.587524 -50.927803

v -3.235604 47.746559 -50.441246

v -3.333720 44.780388 -50.617691

v 12.675629 50.252686 -50.996765

v 13.343567 47.769501 -52.495453

v 11.562889 44.159180 -52.715717

v -2.746686 38.357040 -51.057709

v 15.658028 46.734009 -51.845245

v 16.487518 42.826080 -52.667336

v -2.908318 35.373611 -50.949081

v -3.048666 31.555246 -51.002884

v -3.270679 28.645569 -50.957783

v 19.012024 40.250725 -51.948837

v 19.824097 31.316620 -52.618530

v -3.553517 23.390776 -49.882217

v -4.005993 13.008789 -50.982277

v 22.168457 25.788269 -52.359589

v 19.529785 25.797485 -53.062836

v -4.841198 9.598993 -51.935299

v 24.589722 18.357578 -52.522003

v 23.880127 26.943787 -50.982895

v 27.177887 17.908686 -50.938866

v -4.604481 -0.446531 -51.254940

v 25.946899 11.017506 -52.610847

v -4.775723 -2.206920 -51.416138

v 28.529480 10.630692 -50.880859

v -4.891685 -7.203249 -51.684124

v 24.808838 4.414612 -52.483673

v -5.436151 -11.314094 -51.946896

v 27.266312 5.218430 -50.916153

v -5.647654 -13.556747 -51.977211

v 24.908783 -1.697990 -51.061974

v -5.843578 -19.967718 -52.017082

v 20.662781 -8.809299 -51.144173

v -4.950771 -22.859970 -52.040939

v 13.803650 -16.041779 -51.327744

v 1.236328 -24.041138 -50.544678

v -2.967175 59.731659 -49.726456

v -1.350327 59.012878 -50.600143

v -2.556038 56.322205 -50.576729

v 2.253296 58.548752 -50.575989

v 11.036942 53.589233 -50.497742

v -3.823589 42.287010 -48.414322

v 16.381348 49.353912 -49.030609

v 16.077148 47.475601 -49.770020

v 21.811199 38.903870 -48.953182

v 21.685852 35.067192 -50.839584

v -3.380733 16.097261 -48.684860

v 25.764954 31.425873 -50.571716

v -3.250484 8.072437 -49.201347

v 27.297577 23.245346 -50.576050

v 28.180206 31.631760 -48.993149

v -3.255406 5.098461 -49.207409

v -3.585290 2.197390 -49.546875

v 32.142838 14.596909 -50.726822

v -4.128462 -5.017007 -49.775742

v 34.082932 17.023422 -48.989922

v 36.431030 9.639854 -49.298279

v -3.336195 -11.096473 -43.583504

v 34.645996 8.988632 -50.682640

v 32.446198 4.172485 -50.751514

v -4.643860 -14.452894 -47.500092

v -5.090935 -17.438168 -48.515671

v 35.500671 3.812321 -49.035637

v 27.227936 -3.721592 -50.694756

v 29.910339 -3.814690 -49.053619

v -5.255367 -22.790993 -50.080418

v -3.020502 -24.615608 -50.039452

v 22.288269 -11.966583 -50.667297

v 6.237793 -24.114746 -50.201355

v 12.699905 -20.727905 -50.715454

v 13.991394 -23.092728 -49.115402

v -2.803177 61.078247 -48.166260

v 5.292572 61.048645 -48.105865

v -3.625305 57.309101 -45.974091

v 9.769379 59.109863 -47.976624

v -3.614254 52.701721 -46.023773

v 12.191284 56.500824 -48.112305

v 17.111450 50.262390 -48.486450

v -4.169525 38.419151 -47.981537

v 19.284851 48.004227 -48.608353

v -4.650560 32.277817 -47.403858

v 26.992798 43.040527 -47.486816

v 28.813911 38.836609 -48.731705

v -4.643658 25.552931 -45.761852

v -4.540159 20.531624 -46.278118

v 30.987411 32.449127 -48.714272

v 33.153580 34.084290 -47.006958

v -3.547768 12.005758 -48.019966

v 35.132156 25.041792 -48.744987

v 29.817734 23.608711 -48.910755

v -4.200847 -0.095596 -45.507790

v -4.277308 -2.943102 -46.234627

v 36.991119 17.039726 -48.679199

v 38.176392 20.389648 -47.184296

v 40.141449 8.306976 -48.771744

v 41.430298 10.524643 -48.027283

v 39.942993 3.332783 -48.142136

v 36.351532 -0.017662 -48.809750

v 37.152519 -1.736481 -47.975327

v -4.473658 -23.784752 -46.995090

v 33.642792 -4.851164 -48.734447

v -1.837095 -25.139933 -44.549568

v 24.133881 -13.206741 -49.085709

v 32.738564 -7.668770 -48.544270

v 1.007263 -25.549118 -45.935471

v 30.987122 -11.278421 -48.785667

v 7.215508 -26.346581 -48.154800

v 27.753357 -15.253492 -48.938477

v 11.441727 -25.787018 -48.475204

v 30.274841 -14.582561 -48.001823

v 28.841049 -16.510387 -48.014221

v 12.839027 -26.069687 -48.087273

v -3.776535 61.378159 -46.049683

v -2.765160 62.901825 -45.748077

v 9.383881 61.244385 -44.359131

v 12.309662 59.726013 -44.265381

v -5.000126 48.124054 -44.406601

v -5.062206 45.291023 -44.327766

v 17.158279 56.724060 -43.428040

v 18.263062 53.841152 -45.958435

v -4.978302 40.699497 -42.422764

v -4.901041 36.899605 -42.369648

v 23.182739 49.202820 -46.172302

v 31.182861 43.376709 -44.953735

v 33.313721 36.943657 -46.728607

v -4.657077 17.166849 -46.079262

v -4.614048 12.568188 -46.135738

v -4.690228 9.685440 -46.131256

v 38.856995 34.585083 -45.247040

v 39.036255 30.894180 -46.751518

v -4.508492 7.109440 -46.123650

v -4.399657 4.654739 -46.076332

v 37.364288 26.096291 -47.087753

v -4.326581 1.971993 -46.139732

v 40.566589 23.200928 -46.614532

v -4.257891 -6.468143 -46.069313

v 41.596191 14.658447 -46.620544

v 45.302490 17.408363 -43.456482

v 41.823395 9.261750 -46.097473

v -3.254148 -16.504845 -43.775906

v 40.799347 2.797264 -45.691345

v 38.214462 -0.669205 -45.830299

v 35.680557 -4.820518 -45.945663

v 33.599945 -8.202805 -46.000824

v 6.350140 -26.853607 -46.193146

v 31.658691 -13.359787 -45.980652

v 12.036301 -26.760468 -45.984375

v 29.276825 -16.870377 -45.985046

v 18.649048 -23.305786 -46.018341

v -5.598945 61.697491 -43.562965

v -4.711220 63.222027 -44.065002

v 0.256439 65.024658 -42.227539

v -5.311360 59.649086 -44.036331

v -5.140724 56.199226 -44.057335

v -5.206467 51.956345 -44.137894

v 21.235794 54.168900 -42.193512

v 23.800903 52.074875 -42.342163

v 27.655762 46.684326 -44.686523

v 28.711792 49.034760 -42.114807

v -4.197712 20.985027 -42.395458

v 37.557007 39.979752 -44.548584

v -4.153976 16.188486 -42.343651

v 40.217529 40.976067 -42.546631

v 41.546753 38.702026 -43.067413

v -3.780724 9.936998 -42.248444

v 44.346497 30.584600 -43.280334

v -3.722160 5.205216 -42.482468

v 42.121033 24.922028 -45.377319

v 45.116577 23.541962 -44.556091

v 46.637146 23.742638 -43.425232

v -3.429482 -7.361579 -43.819225

v 43.197311 9.882489 -43.429710

v -2.209216 -22.928865 -42.573120

v 43.944672 0.285431 -43.432922

v 41.413818 -2.320557 -44.498840

v -0.275112 -27.173347 -43.974968

v 43.734222 -4.362404 -42.603012

v 37.218506 -8.608398 -43.608398

v 5.695797 -29.246033 -44.326981

v 35.658936 -15.685791 -42.338867

v 31.846191 -17.893311 -44.198730

v 19.321411 -25.216309 -44.030396

v 14.233887 -28.777405 -42.755249

v 30.190063 -22.474731 -42.242310

v -4.281807 63.933449 -42.139244

v -2.435719 65.298447 -42.067932

v -4.389893 57.608006 -42.001968

v 6.823959 64.635498 -40.419434

v -4.533005 52.878819 -41.897621

v -4.766296 48.684227 -41.933228

v -5.054298 44.256142 -42.152447

v -4.373795 32.462109 -42.219406

v -4.211533 26.571978 -42.314316

v 36.117920 44.634644 -41.617676

v 45.526611 40.000164 -40.677246

v 47.302887 30.665283 -42.786194

v 49.129944 32.087276 -41.391602

v -2.723112 -4.874083 -37.647106

v 48.321289 22.816650 -42.622009

v 49.890198 23.163879 -41.428558

v 48.005402 15.214989 -42.773758

v -3.671126 -13.165388 -40.376457

v 45.812744 6.109531 -42.795441

v 47.820557 6.737007 -41.485504

v -3.183497 -20.685562 -40.143673

v -3.783307 -18.018318 -39.912209

v 47.547455 -1.068117 -42.470688

v 2.779224 -29.751148 -42.291573

v 6.648926 -30.437500 -40.994385

v 20.301514 -27.741943 -42.625244

v -2.268654 65.371124 -39.328110

v -2.271032 60.273769 -39.915260

v -2.359695 56.070984 -40.281120

v 12.741699 61.584061 -39.121338

v -1.746971 52.061584 -39.986210

v -1.710710 48.194386 -39.939827

v 16.357559 58.773224 -38.271698

v -2.094910 44.411327 -40.360481

v -2.052368 39.242599 -40.291542

v -1.958771 34.537533 -40.107513

v -1.993981 31.224657 -40.027527

v -2.394638 27.541908 -40.357895

v 28.060440 51.380920 -38.150757

v 32.606995 47.672485 -40.147217

v -2.221724 23.049616 -40.137421

v -2.337729 18.973690 -40.193985

v 41.243378 44.762985 -38.111206

v -2.133779 13.937088 -38.817348

v -2.359484 8.284805 -38.799973

v 49.258743 37.582909 -40.461380

v -2.497484 0.654224 -38.590660

v 52.112976 32.333122 -40.647049

v 52.270325 22.332298 -40.744812

v 53.999756 27.684631 -39.390747

v -3.528102 -8.835777 -40.529694

v 50.740967 14.441071 -41.012146

v 53.695068 19.202637 -39.528687

v 50.695251 6.249130 -40.830765

v 52.615723 9.172821 -39.558411

v 48.847595 0.843842 -41.142517

v 50.964050 0.914642 -39.595490

v 2.078059 -29.985315 -38.329395

v 46.290649 -4.017952 -39.812592

v 42.712952 -7.383591 -40.112244

v 41.324585 -11.274261 -39.845947

v 13.631454 -31.200195 -39.259949

v 36.198547 -21.055542 -40.600708

v 20.089600 -30.890991 -40.064331

v 24.838379 -29.775879 -39.808105

v 32.954590 -24.672607 -39.953369

v -1.421745 67.710754 -37.897308

v 5.089088 67.744476 -37.246460

v 8.537186 67.012947 -37.173492

v -2.523670 55.992630 -37.513790

v 12.105597 64.552979 -36.373398

v 19.781532 55.773193 -38.272949

v -2.144161 43.424667 -36.988457

v 23.285873 53.759567 -38.184753

v -2.107180 38.236687 -37.594528

v 35.801384 47.848602 -37.818817

v -2.215132 28.588215 -33.497101

v 44.899490 42.422615 -38.278412

v 49.451996 39.406017 -37.800354

v 53.735382 33.304077 -37.679077

v 57.038330 27.283684 -37.564484

v 56.410400 23.719971 -38.780151

v -2.331856 -8.775477 -36.440628

v 55.432007 18.120804 -38.788696

v 58.143250 23.229431 -37.529266

v -2.463943 -14.869953 -36.358017

v 54.595947 10.484146 -38.784973

v 56.480438 10.939926 -37.429070

v -0.026161 -25.820328 -35.568359

v 54.408630 2.739929 -38.833099

v 55.711304 1.373199 -37.665039

v 49.109848 -3.434006 -37.639389

v 44.278137 -10.600758 -38.727966

v 9.096737 -31.827816 -38.374382

v 41.911499 -15.294678 -38.560486

v -2.998299 67.997177 -36.347572

v -3.381159 65.344368 -35.771645

v 14.816740 62.363686 -36.242317

v -2.906097 50.685928 -35.124573

v 18.472023 59.248577 -36.085968

v 23.771500 55.400589 -36.273834

v 29.406799 52.534546 -36.137482

v -2.368404 25.504890 -32.850224

v 38.797482 46.650120 -34.126038

v -2.028296 16.497028 -32.986935

v -2.069581 10.368916 -32.875732

v -1.740228 2.758203 -32.342121

v 55.195160 35.249184 -36.263168

v 52.239075 38.038376 -36.085693

v -2.357059 -1.872238 -34.738495

v 57.969025 31.276428 -36.511383

v 59.856979 27.835754 -36.648499

v 60.815186 22.609653 -36.915756

v 57.434845 18.576694 -37.382294

v 60.614502 16.705780 -37.027679

v 64.372070 20.138702 -34.455078

v 59.970169 9.469540 -37.020912

v 58.256897 3.713867 -36.904785

v 55.760750 -1.605164 -37.018188

v 3.216128 -29.749794 -34.723244

v 52.607910 -5.292084 -36.857361

v 46.151657 -10.394531 -37.011414

v 12.781472 -32.503654 -35.678158

v 44.904785 -16.515137 -34.357178

v 17.654999 -33.831734 -34.869278

v 43.072197 -18.740479 -34.248993

v 39.589050 -22.423950 -36.904297

v 21.701380 -34.125053 -35.415501

v 23.890852 -33.345184 -36.634247

v 35.521729 -28.136017 -35.831451

v 27.939537 -32.736694 -36.337173

v -2.903784 67.551247 -34.434933

v -3.329238 64.794289 -32.233894

v 3.790427 68.366531 -34.464802

v 8.716007 65.415344 -32.461060

v -3.649796 56.377274 -30.679424

v -3.628102 60.323162 -30.652637

v 10.132629 63.312477 -29.051956

v 15.560959 61.167862 -32.722870

v -3.663390 46.475780 -30.690571

v 20.907616 57.894432 -32.573334

v 24.964918 55.536663 -32.347073

v 27.950756 53.875889 -32.338215

v 31.019424 52.301727 -32.268372

v -2.528311 35.395321 -32.768188

v -3.042119 32.761024 -30.755013

v 37.270905 48.477093 -32.470947

v -2.242014 20.437557 -33.090721

v 42.537601 44.128235 -34.311279

v 47.226425 41.926086 -33.743774

v -2.235055 6.167842 -32.911201

v 55.425110 36.653015 -32.854858

v 58.648430 31.796448 -34.292572

v -0.544281 -7.626637 -33.803955

v 61.608273 27.521240 -34.130249

v -0.768982 -17.632179 -32.623749

v 63.692749 12.545578 -33.882751

v 61.790527 5.324463 -34.088379

v 59.089142 -2.959099 -34.494507

v 8.167561 -29.692215 -33.240868

v 57.117889 -6.786194 -34.786194

v 52.747986 -10.459106 -34.020569

v 41.361694 -22.895416 -33.728088

v 25.552366 -33.291065 -34.318401

v -2.203491 65.729309 -32.701172

v 4.621338 64.635895 -30.598511

v -3.710375 53.407146 -30.573515

v -3.709783 50.140633 -30.642271

v -3.413744 40.988159 -30.648893

v -3.309428 38.961197 -30.618528

v -3.234750 24.294142 -30.609442

v 42.770775 46.146843 -27.789001

v 46.688324 43.909176 -30.065247

v -2.899408 15.292843 -31.470982

v -0.283554 -0.434347 -32.636444

v 62.435059 31.016785 -32.127319

v 65.802643 24.861038 -32.454163

v 0.450630 -20.570210 -29.782455

v 67.529663 18.256104 -31.241821

v 66.136963 14.429504 -31.916016

v 4.521482 -27.957199 -32.384388

v 65.900879 7.733337 -32.329834

v 61.836426 0.352531 -32.436096

v 10.566556 -30.493502 -29.667013

v 60.138763 -6.533020 -30.444489

v 56.287842 -11.554337 -32.459503

v 52.237671 -14.312607 -32.712204

v 47.518219 -17.950012 -32.738831

v 19.604614 -33.299805 -32.704201

v 22.994781 -33.299316 -31.354185

v 40.013489 -26.839020 -30.376801

v 29.093193 -32.948151 -30.540077

v -0.850071 64.444626 -30.724915

v 11.978887 59.879776 -27.760515

v 15.062523 58.707874 -28.452766

v 19.714787 56.343590 -28.421364

v -3.598770 43.064163 -30.590338

v -3.188455 36.599365 -30.606558

v -3.086803 34.641171 -29.989357

v -3.152714 31.332638 -30.052082

v -3.254887 29.746586 -30.580257

v -3.121311 27.613752 -30.642445

v 31.965254 51.620895 -28.689342

v -3.232066 21.207197 -30.640018

v -3.193559 18.525234 -30.791178

v -3.406543 13.346950 -30.694927

v -3.146767 10.192475 -30.692541

v 51.939545 41.738281 -27.831848

v -3.460037 8.245892 -30.761141

v -3.332683 6.011053 -30.603821

v 59.525269 35.403503 -30.519287

v 54.516541 40.261612 -27.854004

v 1.441223 -1.346035 -30.171799

v 2.253357 -6.042793 -28.287270

v 66.641235 25.697083 -29.799805

v 2.465195 -13.319462 -29.620148

v 67.584595 21.478760 -30.184570

v 68.866211 12.856720 -30.836487

v 2.110766 -25.221737 -30.863674

v 68.892090 6.624237 -29.982880

v 64.363113 0.575439 -29.871613

v 60.861694 -2.352486 -30.138588

v 59.589905 -12.144012 -28.347870

v 50.305695 -16.634155 -30.585907

v 19.730114 -33.022240 -28.637524

v 47.463806 -20.066284 -30.041321

v 25.111191 -33.556335 -30.206116

v 43.911987 -24.786331 -29.528198

v 37.155563 -28.242973 -30.548981

v -2.945761 63.760036 -28.520035

v 2.268562 63.784748 -28.636093

v -3.043133 58.874184 -28.475380

v 6.345639 64.206055 -28.653097

v -2.690781 55.178532 -28.222641

v -2.338409 51.285660 -28.266281

v -1.657318 44.963776 -27.817322

v -2.107605 37.374619 -28.435974

v 26.030403 53.256401 -28.490753

v 30.217598 50.731216 -26.932129

v -0.796585 28.595947 -26.623901

v 37.283157 48.568008 -26.676788

v -1.792458 24.970673 -28.335091

v -1.376205 18.051769 -27.926477

v -1.349213 14.621695 -27.858177

v -2.387573 10.261585 -28.739685

v -1.695526 4.378548 -28.495041

v 0.260857 2.696190 -29.910660

v 4.196289 4.214539 -29.101982

v 62.407135 34.948715 -26.825562

v 5.157898 1.155182 -28.024895

v 65.664108 30.855103 -27.896027

v 1.874496 -8.786728 -28.628540

v 71.122742 20.457825 -28.097839

v 2.358955 -15.596893 -26.766983

v 72.922974 10.441376 -27.354126

v 4.088755 -26.856171 -27.242100

v 71.578949 6.152016 -28.889435

v 69.753159 2.451653 -28.894066

v 67.451935 -0.255882 -29.243111

v 12.941618 -31.325949 -28.960804

v 64.412445 -4.584404 -29.321251

v 66.433273 -4.832947 -27.779846

v 22.324730 -34.854969 -21.599323

v 53.822632 -18.300049 -27.805420

v 26.781738 -36.951622 -27.087700

v 42.160950 -30.817032 -27.080505

v 34.009705 -33.813354 -29.161499

v -1.448479 62.149166 -27.694340

v 7.820988 62.667332 -27.689278

v -0.221668 53.514061 -27.559908

v 8.728584 54.964020 -27.589361

v 5.879456 52.056675 -25.817455

v 1.045723 49.329739 -25.831196

v 17.167633 54.754955 -27.403975

v 17.045721 52.687462 -25.900227

v 20.664810 52.753479 -26.051025

v 0.019081 35.101242 -26.208870

v 2.625061 25.537155 -27.426605

v 4.233551 24.231136 -27.739910

v 9.110138 26.459074 -25.844769

v 14.973251 21.728825 -27.702206

v 10.085136 12.689087 -27.726162

v 47.961636 43.470486 -20.796791

v -0.469482 6.645187 -27.859385

v 16.160156 19.104908 -27.248367

v 5.781517 5.710999 -27.903812

v 9.030800 6.140297 -27.324505

v 57.430481 38.883698 -24.638794

v 61.600418 37.668427 -21.370483

v 8.821701 0.566526 -27.747501

v 9.839806 2.391314 -26.907223

v 7.561165 -3.118488 -27.616449

v 65.737411 32.855453 -26.561707

v 9.808033 -1.407059 -26.812851

v 5.948196 -5.729855 -27.410988

v 69.529800 30.243538 -26.663055

v 3.723061 -12.680643 -26.578354

v 71.450562 27.127930 -26.927605

v 74.397552 18.270370 -27.064209

v 0.951027 -20.441963 -26.967079

v 11.012164 -28.440107 -27.013678

v 7.202779 -25.931242 -23.349598

v 15.726357 -29.588120 -26.798563

v 71.201599 3.469643 -26.615173

v 19.132580 -31.471287 -27.012699

v 70.383926 -0.077698 -24.672394

v 64.826355 -11.024811 -26.982178

v 57.718933 -16.430870 -26.899170

v 50.825928 -24.020355 -25.523499

v 54.589264 -20.228821 -25.037354

v 46.122925 -27.373230 -26.942932

v 31.824326 -38.056458 -26.956619

v 38.793877 -34.254932 -27.111008

v 35.877697 -36.443718 -26.632858

v 13.125183 48.713280 -25.602468

v 1.654663 40.747833 -25.814747

v 20.000603 48.099869 -22.006449

v 12.521545 42.811916 -25.717926

v 25.950806 49.373749 -22.579285

v 1.082001 31.940430 -25.842848

v 30.373043 49.877670 -24.558289

v 14.553146 34.762711 -25.708626

v 16.023712 34.634827 -24.589264

v 43.471207 45.828247 -23.924927

v 17.337234 23.696632 -25.819469

v 19.932831 23.657379 -24.095932

v 17.504524 15.741861 -24.073963

v 11.921680 7.563942 -24.085617

v 9.893005 4.841260 -24.961327

v 66.861481 33.134155 -22.730499

v 11.654751 -0.737584 -24.096069

v 8.201477 -4.329828 -25.019951

v 70.344124 30.133598 -22.750275

v 7.091721 -7.638344 -24.413803

v 5.845459 -10.256729 -25.488434

v 7.423645 -14.000666 -25.376907

v 4.133118 -18.357132 -24.395813

v 3.736198 -20.729364 -22.954292

v 76.241089 20.252319 -24.534607

v 4.149017 -23.372486 -23.384644

v 75.317352 18.121693 -26.268860

v 77.577179 10.558868 -22.966309

v 10.348199 -27.536453 -23.363495

v 75.135986 7.133232 -24.334564

v 69.937469 -3.742035 -22.840668

v 67.419495 -8.206245 -24.693298

v 19.597692 -32.469238 -21.332159

v 65.704163 -12.206787 -24.314941

v 25.921326 -37.399807 -22.583380

v 62.162262 -17.459656 -22.831787

v 57.324814 -18.139542 -22.945709

v 45.746552 -29.570465 -24.024780

v 42.063232 -32.467255 -24.291992

v 31.564888 -38.956997 -21.828932

v 16.468277 43.581879 -21.975128

v 30.034939 47.900894 -22.148878

v 15.984680 39.336121 -22.918457

v 36.443573 47.125183 -22.440430

v 18.701172 30.873890 -23.593079

v 16.897430 36.036255 -20.874985

v 23.800453 24.289398 -23.287521

v 23.707035 20.428791 -23.666821

v 22.504936 17.046791 -23.790100

v 20.301483 12.888119 -23.791424

v 25.577087 15.069824 -21.047577

v 16.223404 5.795467 -23.855486

v 11.543968 4.162594 -24.015703

v 22.120605 11.773636 -22.325684

v 9.277222 -5.502010 -24.022003

v 17.023964 -2.942509 -23.896587

v 19.478806 -0.349554 -21.791321

v 15.528305 -9.953280 -23.962582

v 9.483231 -14.358894 -24.103355

v 74.825500 24.021946 -22.637848

v 18.140656 -4.693899 -22.964733

v 16.734299 -11.850414 -23.016766

v 14.358414 -14.431873 -23.444962

v 10.742651 -15.766293 -23.044899

v 76.748131 22.327057 -20.783077

v 77.119995 20.170633 -21.040512

v 77.716644 17.660496 -22.362785

v 77.761803 15.004196 -22.563782

v 77.800217 6.699151 -22.727150

v 77.425232 3.638262 -22.839855

v 75.104767 1.691772 -23.208374

v 70.322144 -10.279444 -21.662537

v 56.118301 -19.878159 -22.409561

v 52.094902 -23.795336 -23.003235

v 50.495331 -26.462219 -22.665741

v 48.506561 -29.204346 -22.412842

v 35.308403 -37.935661 -21.505692

v 26.098885 45.060398 -21.702219

v 26.461357 42.500679 -19.982683

v 16.735020 41.245857 -20.400229

v 33.835869 45.161545 -19.994925

v 37.723408 46.044487 -20.441631

v 23.213013 30.711853 -20.494843

v 24.534515 25.507168 -20.934387

v 52.055458 40.801098 -19.334946

v 25.691429 21.660215 -20.233320

v 56.972961 40.747398 -15.629742

v 25.536522 19.161194 -20.347134

v 61.615810 39.791225 -15.290472

v 24.158524 10.159878 -21.713326

v 18.825539 5.387672 -22.133236

v 67.110756 35.248810 -20.023315

v 22.832535 4.357212 -21.925873

v 24.578766 5.959283 -21.137146

v 70.688843 33.252281 -20.509781

v 22.914307 2.093021 -20.982590

v 73.915771 30.429878 -20.643749

v 18.831985 -3.067608 -20.780365

v 76.143448 26.172409 -20.862850

v 17.727402 -9.889224 -20.665741

v 16.558990 -13.843185 -20.978775

v 11.554176 -16.083359 -21.000137

v 6.982483 -18.400925 -21.118050

v 7.348572 -20.875000 -20.547546

v 11.344391 -26.437382 -20.812592

v 77.666397 13.176947 -17.064232

v 14.019424 -28.639380 -20.802364

v 77.441727 9.538361 -17.449524

v 17.133097 -30.338629 -20.311890

v 76.133873 0.922373 -20.953114

v 74.871567 -2.336014 -20.925293

v 72.450745 -6.329590 -21.009003

v 68.152740 -14.601959 -21.044983

v 62.587738 -19.693741 -21.743515

v 65.131134 -17.519958 -21.190796

v 53.746887 -24.115372 -22.087055

v 28.776474 -37.599518 -19.780396

v 55.837097 -26.389118 -21.752655

v 46.609489 -30.706253 -21.058655

v 43.034576 -34.277893 -20.591309

v 60.952271 -24.684692 -19.624756

v 52.503021 -28.880249 -20.850952

v 40.218506 -36.943024 -18.682190

v 18.253288 36.836296 -20.024542

v 30.222878 37.811234 -19.885782

v 35.604256 41.210258 -19.767975

v 26.982803 30.869553 -19.966192

v 46.027050 42.324013 -19.402916

v 40.554996 41.198036 -19.335379

v 29.385895 31.197769 -19.066223

v 31.404938 35.079056 -18.223045

v 25.827942 25.944630 -20.065228

v 32.075958 22.856628 -19.909485

v 32.765808 26.926548 -18.003510

v 64.063553 38.539040 -18.828461

v 28.326294 16.711510 -19.638855

v 30.369595 16.342068 -18.157190

v 26.500244 11.249146 -20.198364

v 30.144592 10.969284 -18.056305

v 26.247620 6.480225 -18.676727

v 24.575226 0.814591 -17.807663

v 71.621437 32.927052 -16.021912

v 20.238464 -1.351265 -19.133034

v 19.795975 -5.778931 -18.724854

v 75.426514 23.672909 -18.839783

v 19.229652 -12.815786 -19.105892

v 11.366348 -19.284037 -18.434349

v 14.419498 -16.595245 -18.958588

v 9.620789 -20.097794 -19.732391

v 19.348270 -17.192272 -19.001923

v 14.637878 -24.248936 -18.129135

v 77.622414 5.275522 -16.974686

v 24.109283 -34.156418 -17.576401

v 73.913849 -6.866558 -15.440453

v 72.749168 -9.992176 -17.227448

v 71.234680 -11.845993 -17.982666

v 31.944090 -37.021545 -17.525398

v 69.975273 -16.031012 -15.185959

v 66.355042 -19.019989 -17.936401

v 45.491211 -34.476654 -19.320038

v 55.698425 -30.527466 -17.445557

v 34.454926 35.758255 -17.415161

v 42.499969 36.930267 -14.759644

v 33.348602 32.140266 -17.669510

v 51.069695 39.993965 -15.117691

v 46.997559 39.236557 -15.153992

v 34.929474 22.210220 -18.162308

v 36.377609 26.671318 -14.395668

v 65.265282 38.305668 -15.041702

v 38.863289 15.871137 -17.943653

v 67.658318 36.197903 -14.862385

v 32.333191 12.135845 -18.035660

v 39.302216 14.403168 -17.546265

v 32.617516 9.357933 -16.277260

v 39.488312 10.680710 -16.171368

v 27.017021 1.103893 -16.318707

v 74.296082 28.189941 -14.316650

v 74.845337 23.590942 -13.490234

v 22.828949 -6.127888 -16.561714

v 19.863297 -11.078365 -16.847504

v 19.235863 -15.001079 -17.121307

v 75.900482 17.394318 -16.006653

v 18.616844 -18.360359 -18.289299

v 21.168076 -18.384384 -16.994129

v 20.370102 -19.017914 -17.260757

v 19.229202 -26.666904 -14.708614

v 75.202301 1.869690 -14.205200

v 74.946243 -2.062553 -13.224121

v 70.796326 -14.148612 -15.265968

v 69.057579 -17.661837 -15.181168

v 32.983185 -36.577919 -12.041994

v 65.362831 -23.374874 -15.672104

v 47.513428 -35.199425 -17.004517

v 62.479790 -27.450432 -15.221191

v 56.717052 -31.074181 -15.355469

v 38.195946 32.197586 -14.458389

v 40.243408 20.992676 -14.297485

v 42.582031 14.573273 -13.624207

v 39.083019 6.441376 -16.077297

v 31.846436 -0.141441 -16.091358

v 23.886414 -8.476574 -15.979874

v 22.431519 -14.766434 -15.860733

v 24.287048 -13.403069 -14.529266

v 24.585846 -16.769073 -14.394028

v 75.212769 11.326355 -13.856934

v 23.642578 -19.961166 -14.518036

v 19.658325 -22.935699 -14.982422

v 21.640978 -31.655336 -15.383709

v 25.088009 -33.952477 -15.474041

v 29.956272 -35.131069 -13.358307

v 72.536224 -10.742320 -14.615814

v 67.495247 -19.603689 -15.131596

v 39.345169 -37.858383 -13.134827

v 66.722511 -21.468573 -15.282639

v 44.549835 -36.823181 -11.424194

v 63.915886 -25.437094 -15.359512

v 45.721054 36.921101 -13.728195

v 41.873100 31.410038 -13.870979

v 52.326691 38.121948 -13.175049

v 39.912727 27.281672 -14.070049

v 59.237568 39.147858 -13.092377

v 41.991463 29.580906 -13.065613

v 62.892754 38.598679 -13.087158

v 40.304291 23.742310 -13.689972

v 66.219498 35.334076 -11.824493

v 70.231842 32.300171 -11.983032

v 43.710495 9.571365 -13.260941

v 73.380722 24.299910 -8.906174

v 40.697739 4.544884 -13.504242

v 34.427628 -2.288872 -13.931976

v 26.740074 -8.683378 -14.432459

v 73.481964 20.137238 -9.216743

v 33.627357 -9.524013 -14.214767

v 26.923878 -15.980667 -13.468857

v 34.001591 -11.320171 -13.453072

v 23.542526 -22.928101 -13.856712

v 23.027924 -26.113705 -14.073380

v 23.477982 -29.079821 -14.055529

v 74.534790 4.087952 -10.028687

v 26.069736 -32.539402 -13.539631

v 74.299995 -5.511599 -9.497280

v 70.344406 -13.058555 -11.737804

v 69.649338 -15.806093 -11.680923

v 67.423233 -18.304586 -13.399033

v 65.470871 -21.493923 -12.164726

v 63.720085 -23.534706 -13.215855

v 63.491608 -24.555374 -11.339211

v 46.456463 34.523056 -10.877441

v 60.598297 36.934143 -11.022705

v 41.878334 27.764076 -9.048294

v 41.840771 24.515669 -7.554115

v 42.868294 19.003967 -11.116058

v 44.240658 14.191883 -11.014351

v 37.075958 -2.692486 -11.133850

v 41.007710 3.399025 -9.147202

v 72.974457 15.777832 -9.459595

v 72.697327 9.801147 -8.106018

v 34.657101 -11.745743 -11.023514

v 28.067734 -16.005325 -11.492218

v 25.152969 -20.588737 -11.386047

v 24.831604 -22.832138 -11.297943

v 24.125671 -26.293182 -11.430389

v 25.182869 -30.538124 -11.399361

v 74.969795 -3.428659 -9.399551

v 73.965904 -7.321103 -10.285416

v 29.734097 -35.250370 -9.196606

v 72.870308 -11.245817 -9.919144

v 67.513824 -18.173904 -11.356358

v 62.815842 -26.784470 -9.640839

v 59.577755 -29.512138 -9.526030

v 48.444431 -36.970055 -9.030907

v 55.860367 -31.973698 -11.547333

v 51.303154 -35.320465 -10.609436

v 50.488281 34.169853 -8.604797

v 46.964767 33.924675 -9.270916

v 44.623131 30.138107 -8.678268

v 55.989441 35.363831 -8.897827

v 63.642616 34.548737 -9.066193

v 67.452675 33.396545 -9.312317

v 69.733200 31.340572 -9.053101

v 44.640682 12.105804 -5.662643

v 44.944885 9.412235 -8.594727

v 44.105743 7.071594 -9.372299

v 33.750038 -14.583038 -9.576172

v 30.495880 -17.907631 -9.607582

v 73.070038 2.603195 -6.952858

v 28.444180 -31.064356 -7.123833

v 74.175117 -9.294820 -9.340027

v 71.799225 -14.412845 -9.397926

v 34.620296 -37.965477 -7.786681

v 70.576607 -16.344093 -8.423203

v 68.994247 -18.579758 -9.495323

v 67.416634 -20.853720 -9.502800

v 66.437004 -22.527901 -9.261101

v 64.635666 -24.542164 -9.089111

v 44.471558 -38.020374 -7.637756

v 57.660015 -31.586462 -9.592533

v 55.322384 -33.746284 -9.605553

v 42.774963 26.234921 -6.877531

v 42.634064 20.336540 -7.288147

v 65.581848 31.699257 -7.531403

v 43.081039 16.982985 -5.675728

v 68.266502 28.177114 -7.878014

v 69.981781 23.263199 -7.845909

v 47.271889 6.742955 -7.317986

v 45.799408 5.274931 -7.595428

v 46.411591 3.509096 -5.462738

v 70.471802 18.913818 -7.637024

v 40.752106 0.057556 -6.880859

v 37.220352 -6.049714 -7.570923

v 35.201881 -14.116670 -7.181267

v 32.919235 -17.274902 -7.053711

v 30.481087 -19.972618 -7.087242

v 28.774086 -26.442383 -6.989429

v 72.934059 -4.602718 -6.828266

v 31.070908 -35.040730 -7.214087

v 72.385483 -8.820785 -6.719059

v 71.241669 -12.951942 -6.871895

v 66.260986 -18.901375 -4.116272

v 40.581787 -38.492149 -7.647673

v 60.037399 -27.475309 -3.709679

v 57.893951 -30.008554 -3.731823

v 54.828400 -32.848976 -6.784637

v 51.373001 -35.643646 -7.265968

v 54.589962 31.678810 -4.684172

v 48.613403 28.944611 -6.324829

v 57.462471 33.521282 -5.251801

v 47.538879 25.971577 -6.102913

v 44.400154 22.648567 -6.084187

v 60.942619 31.854858 -4.609201

v 64.694550 29.532398 -4.528226

v 67.304291 25.965431 -5.141830

v 67.990471 20.604515 -4.657192

v 68.421631 15.579124 -4.985870

v 45.391727 -0.473949 -4.699604

v 41.450573 -3.031223 -4.805424

v 39.881783 -9.302519 -4.796654

v 37.587524 -10.535255 -6.511810

v 68.856445 9.603821 -4.722961

v 70.010254 4.745316 -5.439575

v 38.075455 -16.169510 -6.438179

v 34.027283 -19.906624 -6.395279

v 69.364792 -2.125809 -6.177227

v 40.399170 -17.955566 -4.823090

v 34.706718 -22.424145 -4.928284

v 32.082306 -24.551636 -6.411087

v 31.964836 -31.872974 -6.385036

v 66.556519 -7.794928 -5.488350

v 67.946716 -8.465612 -6.427931

v 33.730942 -29.505482 -4.944435

v 67.022942 -11.312490 -5.770325

v 68.454758 -15.184303 -6.128616

v 37.801037 -36.328243 -6.188385

v 63.321049 -21.125374 -2.828396

v 40.371826 -36.255966 -4.035500

v 62.274750 -23.920998 -3.706451

v 49.901985 25.682684 -4.357832

v 58.385624 24.498653 -4.470582

v 44.778435 21.312185 -3.537090

v 50.637878 23.726728 -2.660685

v 45.112663 19.459866 -2.890724

v 47.161804 11.227188 -3.136246

v 65.984375 16.093899 -4.259583

v 59.302876 20.303070 -2.613431

v 48.682281 6.522011 -3.356239

v 48.127815 4.254703 -4.586231

v 51.870789 3.995962 -2.677748

v 50.792442 -0.516960 -4.513435

v 53.663578 -0.813561 -2.698621

v 45.738163 -8.940142 -4.607630

v 65.645401 10.445280 -2.673092

v 50.507992 -7.348432 -2.758763

v 42.874893 -14.225231 -4.455528

v 66.545601 -2.876764 -2.697484

v 67.656075 -4.362228 -3.579788

v 45.628479 -13.845704 -2.800076

v 40.861370 -23.722195 -2.852979

v 37.654633 -24.278778 -4.517727

v 65.529533 -9.035732 -3.256416

v 36.131821 -32.392845 -4.398705

v 38.046181 -30.093782 -2.951275

v 67.202324 -14.049299 -3.662460

v 44.415440 -36.922497 -3.739853

v 54.455105 -32.115536 -3.765839

v 49.230659 -35.158005 -3.549953

v 48.025856 14.463219 -2.655852

v 59.798027 -25.044140 -2.740159

v 64.269745 -8.454050 -2.699520

v 65.778656 -15.555103 -2.721817

v 41.643295 -35.555855 -2.840617

v 55.723972 -29.707272 -2.808723

f 1 2 3
f 2 1 4
f 5 6 1
f 1 6 4
f 2 4 7
f 7 4 8
f 6 5 9
f 4 6 10
f 10 6 11
f 8 4 10
f 11 6 12
f 13 11 14
f 10 11 13
f 15 16 17
f 17 3 15
f 3 18 15
f 3 17 1
f 2 18 3
f 19 18 2
f 17 20 1
f 5 1 20
f 2 21 19
f 2 7 21
f 20 22 5
f 22 23 5
f 21 7 8
f 23 24 5
f 24 9 5
f 6 9 12
f 8 10 25
f 9 26 12
f 10 27 25
f 24 26 9
f 27 28 25
f 11 12 14
f 26 14 12
f 27 29 28
f 13 30 10
f 31 32 14
f 32 13 14
f 30 27 10
f 30 13 32
f 33 27 30
f 34 35 36
f 37 35 34
f 35 38 36
f 39 36 38
f 37 40 35
f 35 41 38
f 41 35 40
f 39 38 42
f 41 42 38
f 41 40 43
f 40 44 45
f 43 40 45
f 43 45 46
f 47 48 49
f 46 50 43
f 46 45 51
f 52 47 49
f 53 46 51
f 16 15 54
f 16 55 17
f 56 17 55
f 57 20 56
f 17 56 20
f 19 58 18
f 20 57 22
f 21 59 19
f 21 60 59
f 60 21 8
f 23 22 61
f 60 8 25
f 24 23 62
f 61 62 23
f 25 28 63
f 62 26 24
f 64 26 62
f 65 28 29
f 64 31 26
f 14 26 31
f 29 27 33
f 66 30 32
f 29 33 67
f 68 32 31
f 68 66 32
f 69 70 71
f 70 69 72
f 70 73 71
f 72 73 70
f 73 34 74
f 37 73 72
f 37 34 73
f 34 75 74
f 72 76 77
f 34 36 75
f 78 75 36
f 37 72 77
f 36 39 78
f 39 79 78
f 77 80 81
f 37 77 44
f 81 44 77
f 40 37 44
f 39 82 79
f 82 39 42
f 42 83 48
f 82 42 48
f 48 84 82
f 43 85 41
f 42 41 85
f 85 83 42
f 81 45 44
f 86 85 43
f 49 83 85
f 84 48 47
f 87 85 86
f 83 49 48
f 49 85 87
f 86 43 50
f 88 47 52
f 51 45 81
f 81 89 51
f 49 87 90
f 49 90 52
f 87 86 91
f 50 46 53
f 52 92 88
f 89 53 51
f 90 92 52
f 90 93 92
f 94 86 50
f 91 86 94
f 90 87 91
f 50 53 95
f 94 50 95
f 91 93 90
f 92 93 54
f 55 93 91
f 93 55 16
f 54 93 16
f 56 55 91
f 91 94 56
f 54 15 96
f 57 56 94
f 97 95 53
f 18 96 15
f 96 18 58
f 94 95 98
f 98 57 94
f 98 22 57
f 99 58 19
f 100 98 95
f 100 95 101
f 61 22 98
f 98 100 61
f 100 102 61
f 60 25 103
f 102 100 104
f 61 102 105
f 106 63 28
f 105 102 107
f 65 106 28
f 62 61 105
f 64 62 105
f 29 108 65
f 108 29 67
f 64 68 31
f 30 109 33
f 67 33 109
f 68 110 66
f 110 30 66
f 109 30 110
f 69 111 112
f 111 69 71
f 69 112 76
f 69 76 72
f 113 76 112
f 71 73 114
f 114 73 115
f 115 73 74
f 76 116 117
f 117 118 76
f 118 80 76
f 80 77 76
f 119 75 78
f 120 121 117
f 122 119 78
f 121 118 117
f 122 78 79
f 122 79 123
f 82 123 79
f 82 124 123
f 121 120 125
f 121 126 118
f 80 118 126
f 84 124 82
f 124 84 127
f 125 126 121
f 127 84 47
f 81 80 126
f 126 89 81
f 92 128 88
f 89 126 129
f 129 130 89
f 53 89 130
f 92 131 128
f 92 54 131
f 130 129 132
f 130 97 53
f 96 131 54
f 133 134 129
f 132 97 130
f 134 132 129
f 99 19 135
f 97 132 136
f 137 135 19
f 97 101 95
f 136 101 97
f 137 19 59
f 134 136 132
f 138 136 134
f 60 139 59
f 101 104 100
f 60 103 139
f 104 101 136
f 136 140 104
f 103 25 63
f 141 103 63
f 138 142 136
f 142 140 136
f 63 143 141
f 104 107 102
f 140 107 104
f 106 143 63
f 107 140 144
f 106 65 108
f 108 145 106
f 144 146 107
f 105 107 146
f 147 145 108
f 64 105 146
f 108 67 147
f 148 64 146
f 68 64 148
f 147 67 149
f 149 67 109
f 110 68 148
f 109 110 148
f 150 151 152
f 113 152 151
f 153 113 151
f 113 111 152
f 113 112 111
f 113 153 154
f 111 71 114
f 113 154 116
f 76 113 116
f 74 155 115
f 155 74 75
f 116 154 156
f 75 119 155
f 116 156 117
f 156 120 117
f 157 120 156
f 125 120 157
f 157 158 125
f 158 159 125
f 125 159 126
f 88 127 47
f 127 88 160
f 159 158 161
f 128 160 88
f 126 159 133
f 161 133 159
f 129 126 133
f 131 162 128
f 133 161 163
f 96 162 131
f 163 161 164
f 162 96 165
f 163 134 133
f 96 166 165
f 58 166 96
f 166 58 99
f 99 135 166
f 134 163 167
f 59 168 137
f 169 167 163
f 59 139 168
f 167 138 134
f 170 167 169
f 139 103 171
f 172 138 167
f 172 167 170
f 171 103 141
f 138 172 173
f 142 138 173
f 143 106 174
f 174 106 175
f 144 140 142
f 176 173 172
f 144 142 173
f 106 145 175
f 173 177 144
f 176 178 173
f 145 147 179
f 178 177 173
f 146 144 177
f 179 147 180
f 181 146 177
f 149 180 147
f 146 181 148
f 149 109 182
f 181 183 148
f 109 148 183
f 182 109 183
f 181 184 183
f 182 183 184
f 185 186 151
f 150 185 151
f 151 186 153
f 152 187 150
f 153 186 188
f 152 111 189
f 153 188 154
f 189 111 114
f 190 154 188
f 154 190 191
f 154 191 156
f 192 155 119
f 122 192 119
f 193 156 191
f 194 122 123
f 193 158 156
f 156 158 157
f 124 194 123
f 195 196 193
f 158 193 196
f 197 124 127
f 198 127 160
f 164 161 158
f 196 199 158
f 164 158 199
f 200 199 196
f 128 201 160
f 201 128 162
f 199 202 164
f 164 203 163
f 164 202 203
f 203 202 169
f 169 163 203
f 204 166 135
f 135 205 204
f 205 135 137
f 202 206 169
f 205 137 168
f 207 206 202
f 206 208 169
f 170 169 208
f 209 208 206
f 141 143 174
f 172 170 176
f 170 208 176
f 208 210 176
f 145 179 175
f 211 178 176
f 210 211 176
f 211 210 212
f 179 180 213
f 211 214 178
f 181 177 178
f 212 214 211
f 215 180 149
f 181 178 216
f 178 214 217
f 218 215 149
f 178 217 219
f 218 149 220
f 219 216 178
f 220 149 182
f 219 221 216
f 181 216 184
f 221 184 216
f 184 222 182
f 221 219 223
f 222 220 182
f 223 224 221
f 184 221 224
f 222 184 225
f 225 184 224
f 226 227 185
f 186 185 227
f 226 185 150
f 150 187 226
f 187 152 189
f 188 186 228
f 229 188 228
f 229 190 188
f 114 230 189
f 114 231 230
f 231 114 115
f 115 155 231
f 190 232 233
f 233 191 190
f 234 155 192
f 233 193 191
f 192 235 234
f 236 193 233
f 235 192 122
f 122 194 235
f 124 197 194
f 193 236 195
f 197 127 198
f 237 196 195
f 196 237 238
f 239 198 160
f 160 240 239
f 238 200 196
f 240 160 201
f 201 241 240
f 162 241 201
f 242 243 238
f 202 199 200
f 243 200 238
f 244 241 162
f 162 165 244
f 165 245 244
f 202 200 246
f 243 246 200
f 166 245 165
f 247 245 166
f 166 204 247
f 246 243 248
f 248 207 246
f 246 207 202
f 205 168 249
f 168 139 249
f 207 248 250
f 250 248 251
f 207 250 206
f 139 171 249
f 209 206 250
f 171 141 174
f 252 209 250
f 174 175 253
f 208 209 252
f 179 253 175
f 210 208 252
f 253 179 213
f 252 254 210
f 254 255 210
f 212 210 255
f 180 215 213
f 255 256 212
f 214 212 256
f 217 214 256
f 256 257 217
f 220 258 218
f 219 217 257
f 257 259 219
f 223 219 259
f 220 260 258
f 220 222 260
f 259 261 223
f 224 223 261
f 260 222 225
f 261 262 224
f 225 224 262
f 262 260 225
f 263 264 226
f 227 226 264
f 227 265 186
f 266 263 226
f 226 187 266
f 267 266 187
f 265 228 186
f 267 187 189
f 268 267 189
f 230 268 189
f 232 190 229
f 233 269 236
f 269 270 236
f 270 271 236
f 271 195 236
f 271 272 237
f 195 271 237
f 197 198 273
f 273 198 239
f 237 242 238
f 274 242 237
f 275 239 240
f 276 277 274
f 277 242 274
f 240 241 278
f 241 244 278
f 277 279 242
f 242 279 243
f 244 245 280
f 280 245 247
f 279 281 243
f 243 281 248
f 281 279 282
f 282 279 283
f 284 205 249
f 281 251 248
f 282 251 281
f 171 284 249
f 251 282 283
f 174 253 171
f 285 250 251
f 252 250 285
f 285 254 252
f 253 213 286
f 254 285 287
f 213 215 286
f 287 288 254
f 255 254 288
f 218 289 215
f 256 255 288
f 288 287 290
f 291 256 288
f 291 257 256
f 258 292 218
f 289 218 292
f 291 293 257
f 259 257 293
f 258 260 292
f 293 294 259
f 261 259 294
f 262 295 260
f 295 296 260
f 297 295 262
f 261 297 262
f 298 299 227
f 227 264 298
f 265 227 299
f 298 264 263
f 266 300 263
f 300 266 267
f 265 301 228
f 267 302 300
f 267 268 302
f 268 303 302
f 268 230 303
f 230 304 303
f 304 230 231
f 304 231 155
f 304 155 234
f 232 269 233
f 305 235 194
f 272 271 270
f 194 306 305
f 306 194 197
f 197 273 306
f 272 307 237
f 307 274 237
f 276 274 307
f 273 239 275
f 278 275 240
f 276 308 277
f 280 278 244
f 308 309 277
f 279 277 309
f 309 308 310
f 247 204 280
f 283 279 309
f 311 204 205
f 205 284 311
f 312 309 313
f 283 309 312
f 283 312 314
f 314 312 313
f 314 251 283
f 253 315 171
f 314 285 251
f 314 316 285
f 317 316 314
f 253 318 319
f 286 318 253
f 316 287 285
f 289 286 215
f 287 316 320
f 320 290 287
f 291 288 290
f 321 289 292
f 321 292 322
f 292 260 296
f 296 322 292
f 294 297 261
f 323 296 295
f 297 294 293
f 323 295 297
f 299 324 265
f 299 298 324
f 298 263 325
f 324 298 325
f 300 325 263
f 300 326 325
f 302 326 300
f 228 301 327
f 326 302 328
f 229 228 327
f 302 329 328
f 330 229 327
f 302 303 329
f 232 229 330
f 331 303 304
f 303 331 329
f 332 331 304
f 332 304 234
f 235 332 234
f 235 333 332
f 333 235 305
f 305 334 333
f 305 306 335
f 335 334 305
f 336 337 272
f 338 335 306
f 307 272 337
f 273 338 306
f 338 273 339
f 340 276 307
f 273 275 339
f 340 308 276
f 339 275 341
f 278 341 275
f 280 342 278
f 308 343 310
f 342 280 344
f 344 280 204
f 310 343 345
f 313 309 310
f 313 310 345
f 313 345 346
f 347 346 345
f 311 284 348
f 348 284 171
f 348 171 315
f 349 314 313
f 346 349 313
f 349 346 350
f 319 315 253
f 349 317 314
f 349 351 317
f 351 349 352
f 351 353 317
f 317 353 316
f 320 316 353
f 354 353 351
f 289 321 355
f 354 356 353
f 320 353 356
f 290 320 356
f 356 357 290
f 357 291 290
f 357 358 291
f 293 291 358
f 322 296 359
f 358 360 293
f 359 296 361
f 297 293 360
f 296 323 361
f 323 297 362
f 363 297 360
f 363 362 297
f 323 362 361
f 324 364 265
f 365 265 364
f 265 365 301
f 301 365 366
f 326 367 325
f 301 366 327
f 366 368 327
f 367 326 328
f 330 369 232
f 331 370 329
f 269 232 369
f 370 331 332
f 369 371 269
f 332 372 370
f 270 269 371
f 371 336 270
f 372 332 333
f 272 270 336
f 373 337 336
f 335 374 334
f 374 335 338
f 373 307 337
f 340 307 373
f 308 340 375
f 375 343 308
f 341 278 342
f 345 343 376
f 376 377 345
f 311 344 204
f 345 377 347
f 377 378 347
f 347 378 379
f 350 346 347
f 315 380 348
f 379 350 347
f 350 379 381
f 381 379 382
f 319 383 315
f 350 352 349
f 381 384 350
f 384 352 350
f 385 384 381
f 386 286 289
f 352 384 387
f 388 384 385
f 387 384 388
f 352 354 351
f 289 355 386
f 387 354 352
f 354 387 388
f 356 354 389
f 389 354 388
f 389 390 356
f 322 355 321
f 357 356 390
f 355 322 391
f 358 357 390
f 359 391 322
f 358 390 392
f 392 360 358
f 364 324 393
f 394 393 324
f 325 394 324
f 395 327 368
f 367 328 396
f 395 330 327
f 329 396 328
f 330 395 397
f 330 397 369
f 369 397 398
f 369 398 371
f 371 398 399
f 399 336 371
f 336 399 373
f 338 400 374
f 340 373 401
f 339 341 402
f 342 403 341
f 343 375 376
f 404 342 344
f 405 377 406
f 376 406 377
f 344 407 404
f 377 405 408
f 408 378 377
f 378 408 409
f 348 380 311
f 409 382 378
f 379 378 382
f 382 409 410
f 315 383 380
f 382 411 381
f 410 411 382
f 411 410 412
f 412 410 413
f 411 385 381
f 411 412 414
f 385 411 414
f 318 286 386
f 414 415 385
f 388 385 415
f 415 416 388
f 389 388 416
f 391 417 355
f 416 418 389
f 418 419 389
f 390 389 419
f 390 419 392
f 391 359 420
f 392 419 421
f 422 420 359
f 421 423 392
f 392 424 360
f 361 422 359
f 422 361 425
f 426 425 361
f 363 360 424
f 363 424 427
f 362 426 361
f 363 428 362
f 427 428 363
f 428 426 362
f 429 364 393
f 393 394 429
f 394 430 429
f 429 431 364
f 431 365 364
f 431 366 365
f 432 366 431
f 325 433 434
f 366 432 368
f 433 325 367
f 435 368 432
f 436 397 395
f 437 396 329
f 437 329 370
f 398 397 438
f 438 439 398
f 398 440 399
f 440 441 399
f 442 372 333
f 442 333 334
f 334 443 442
f 444 401 373
f 445 400 338
f 445 338 339
f 340 401 446
f 339 402 445
f 375 340 446
f 446 447 375
f 376 375 447
f 376 447 406
f 448 403 342
f 342 404 448
f 406 449 405
f 449 450 405
f 408 405 450
f 344 311 407
f 451 407 311
f 409 408 450
f 311 380 451
f 450 452 409
f 383 451 380
f 409 452 413
f 413 410 409
f 319 453 383
f 453 319 318
f 454 412 413
f 414 412 454
f 455 414 454
f 355 417 386
f 455 415 414
f 415 455 456
f 416 415 456
f 457 417 391
f 456 418 416
f 457 391 420
f 456 458 418
f 418 459 419
f 419 459 421
f 458 459 418
f 423 424 392
f 423 460 424
f 460 427 424
f 425 426 461
f 426 428 461
f 462 429 430
f 463 431 429
f 429 462 463
f 394 434 430
f 434 394 325
f 431 463 432
f 367 464 433
f 395 368 435
f 435 436 395
f 464 367 396
f 396 465 464
f 465 396 437
f 397 436 438
f 466 370 372
f 372 467 466
f 440 398 439
f 372 442 467
f 334 374 443
f 373 399 441
f 373 441 444
f 468 400 445
f 401 444 469
f 446 401 469
f 446 470 447
f 341 471 402
f 341 403 471
f 447 449 406
f 407 472 404
f 450 449 473
f 472 407 451
f 450 473 452
f 452 473 474
f 474 413 452
f 383 453 451
f 318 475 453
f 476 477 413
f 477 454 413
f 475 318 386
f 386 417 478
f 479 455 454
f 478 417 457
f 455 479 480
f 455 480 456
f 481 457 420
f 456 482 458
f 459 458 483
f 421 459 484
f 421 484 485
f 485 423 421
f 483 484 459
f 425 486 422
f 485 460 423
f 425 487 486
f 461 487 425
f 460 488 427
f 461 428 489
f 427 489 428
f 490 462 430
f 462 490 463
f 491 436 435
f 492 436 491
f 436 492 438
f 492 493 438
f 494 437 370
f 466 494 370
f 438 493 439
f 442 495 467
f 442 496 495
f 442 443 496
f 374 497 443
f 498 497 374
f 374 499 498
f 500 444 441
f 400 499 374
f 468 499 400
f 445 501 468
f 445 502 501
f 502 445 402
f 470 446 469
f 471 502 402
f 403 503 471
f 403 504 503
f 447 470 505
f 403 506 504
f 447 505 449
f 448 506 403
f 448 507 506
f 507 448 404
f 508 449 509
f 510 404 472
f 508 473 449
f 510 472 451
f 510 451 511
f 474 473 512
f 453 513 451
f 453 475 513
f 514 474 512
f 474 514 413
f 514 476 413
f 477 476 515
f 475 386 516
f 477 479 454
f 478 516 386
f 515 479 477
f 517 479 515
f 517 518 479
f 479 518 480
f 518 519 480
f 456 480 519
f 456 519 482
f 458 482 520
f 520 483 458
f 484 483 520
f 520 521 484
f 485 484 521
f 522 486 487
f 521 523 485
f 524 487 461
f 523 525 485
f 460 485 525
f 525 488 460
f 461 489 524
f 488 526 427
f 489 427 526
f 527 490 430
f 430 434 527
f 463 490 528
f 527 528 490
f 527 434 529
f 463 528 530
f 529 434 433
f 432 463 530
f 529 433 531
f 432 530 435
f 433 464 531
f 464 532 531
f 464 465 532
f 532 465 533
f 465 437 533
f 533 437 494
f 533 494 466
f 533 466 534
f 466 467 534
f 493 535 439
f 534 467 495
f 440 439 535
f 534 495 496
f 535 536 440
f 441 440 536
f 496 443 497
f 537 498 499
f 500 538 444
f 537 499 539
f 499 468 539
f 468 501 539
f 469 444 538
f 539 501 540
f 540 501 502
f 502 471 540
f 540 471 541
f 471 503 541
f 541 503 542
f 503 504 542
f 504 506 542
f 509 449 505
f 542 506 507
f 543 507 404
f 404 544 543
f 543 544 545
f 509 546 508
f 404 510 544
f 544 510 545
f 473 508 546
f 547 510 511
f 548 512 473
f 549 511 451
f 549 451 513
f 512 548 550
f 475 551 513
f 514 512 550
f 514 550 476
f 515 476 550
f 515 550 552
f 553 516 478
f 552 554 515
f 554 517 515
f 553 478 457
f 457 481 553
f 554 555 517
f 518 517 555
f 556 518 555
f 557 481 420
f 556 558 518
f 558 519 518
f 422 522 557
f 557 420 422
f 558 556 559
f 558 482 519
f 522 422 486
f 482 558 520
f 522 487 560
f 520 561 521
f 560 487 524
f 521 561 523
f 489 562 524
f 488 525 563
f 489 526 564
f 564 526 488
f 527 565 528
f 566 528 565
f 528 566 530
f 565 527 529
f 566 435 530
f 529 531 565
f 567 565 531
f 491 435 566
f 565 568 566
f 567 568 565
f 491 566 568
f 531 532 567
f 568 567 569
f 532 570 567
f 570 532 533
f 571 492 491
f 571 491 568
f 492 571 493
f 572 568 569
f 568 572 571
f 573 493 571
f 573 571 572
f 574 533 534
f 493 573 535
f 534 496 574
f 496 497 574
f 500 441 536
f 497 537 574
f 498 537 497
f 538 500 536
f 575 537 539
f 575 540 576
f 540 575 539
f 576 577 575
f 578 577 576
f 576 540 541
f 541 579 576
f 470 580 505
f 581 541 542
f 576 579 578
f 578 579 582
f 542 543 581
f 507 543 542
f 541 583 579
f 583 541 581
f 545 581 543
f 583 584 579
f 581 545 583
f 585 546 509
f 546 585 586
f 583 547 587
f 584 583 587
f 545 547 583
f 584 587 588
f 547 545 510
f 587 547 589
f 473 546 590
f 473 590 548
f 591 588 587
f 587 589 591
f 589 547 511
f 592 589 511
f 593 548 590
f 511 549 592
f 549 513 594
f 593 595 548
f 595 550 548
f 513 551 594
f 596 550 595
f 597 551 475
f 597 475 516
f 516 553 597
f 596 552 550
f 598 599 481
f 553 481 599
f 598 557 600
f 557 598 481
f 552 601 554
f 555 554 601
f 602 600 557
f 601 603 555
f 556 555 603
f 557 522 602
f 603 559 556
f 520 558 559
f 522 560 602
f 520 559 604
f 560 524 562
f 604 605 520
f 561 520 605
f 561 606 523
f 607 606 561
f 606 608 523
f 608 525 523
f 562 489 564
f 608 563 525
f 564 488 563
f 562 564 609
f 563 610 564
f 610 611 564
f 611 609 564
f 567 570 569
f 569 612 572
f 613 570 533
f 613 569 570
f 569 613 612
f 572 614 573
f 613 533 574
f 613 615 612
f 616 535 573
f 536 535 616
f 574 617 613
f 536 616 618
f 617 577 613
f 538 536 618
f 574 537 617
f 619 620 615
f 615 613 619
f 577 617 537
f 613 577 619
f 537 575 577
f 621 469 538
f 619 577 622
f 470 469 621
f 621 580 470
f 577 578 622
f 622 582 623
f 622 578 582
f 582 624 623
f 579 624 582
f 579 625 624
f 584 625 579
f 584 626 625
f 626 584 588
f 546 627 590
f 588 628 626
f 628 588 591
f 591 629 628
f 629 591 589
f 593 590 627
f 627 630 593
f 629 589 592
f 592 631 629
f 549 631 592
f 549 632 631
f 594 632 549
f 630 595 593
f 633 632 594
f 594 551 633
f 551 597 634
f 634 633 551
f 597 635 634
f 596 595 636
f 597 637 635
f 597 553 637
f 636 638 596
f 596 638 639
f 552 596 639
f 598 640 599
f 639 641 552
f 640 598 600
f 641 601 552
f 601 641 603
f 603 642 559
f 643 559 642
f 644 602 560
f 559 643 604
f 604 643 645
f 562 646 560
f 605 604 647
f 645 647 604
f 605 648 561
f 648 607 561
f 608 606 649
f 563 608 649
f 649 650 563
f 651 562 609
f 650 610 563
f 611 651 609
f 572 652 614
f 572 612 652
f 614 616 573
f 615 652 612
f 616 653 618
f 654 652 615
f 618 653 655
f 654 615 620
f 618 655 538
f 619 656 620
f 621 538 655
f 656 657 620
f 656 619 622
f 623 656 622
f 658 656 623
f 659 658 623
f 623 624 659
f 624 660 659
f 661 660 624
f 660 661 662
f 624 625 661
f 663 661 625
f 664 625 626
f 665 661 663
f 586 627 546
f 625 664 663
f 628 664 626
f 664 628 663
f 666 628 629
f 663 628 667
f 663 667 668
f 631 666 629
f 667 628 666
f 669 667 666
f 632 670 631
f 630 671 595
f 670 666 631
f 672 667 669
f 633 670 632
f 673 672 669
f 666 670 669
f 674 669 670
f 634 670 633
f 636 595 671
f 670 634 675
f 671 676 636
f 673 669 674
f 670 675 674
f 676 677 636
f 636 677 638
f 678 638 677
f 637 553 599
f 638 678 679
f 638 679 639
f 680 641 639
f 681 641 680
f 641 681 682
f 603 641 682
f 602 644 600
f 682 642 603
f 643 642 683
f 645 643 683
f 647 648 605
f 648 684 607
f 684 685 607
f 606 607 685
f 685 686 606
f 686 687 606
f 649 606 687
f 646 562 651
f 688 651 611
f 689 614 652
f 653 616 614
f 652 690 689
f 652 691 690
f 691 652 654
f 614 689 653
f 653 692 655
f 653 689 692
f 654 657 691
f 657 654 620
f 655 692 693
f 621 655 693
f 693 580 621
f 657 656 694
f 658 694 656
f 695 694 658
f 580 696 505
f 509 505 696
f 658 697 695
f 697 658 659
f 585 509 698
f 659 699 697
f 698 700 585
f 700 586 585
f 699 659 662
f 660 662 659
f 665 662 661
f 701 662 665
f 702 665 663
f 665 702 701
f 586 703 627
f 704 701 702
f 705 701 704
f 627 703 706
f 702 668 704
f 627 706 630
f 668 702 663
f 705 704 707
f 704 668 707
f 630 706 708
f 667 709 668
f 709 667 672
f 708 710 630
f 671 630 710
f 672 711 709
f 711 672 673
f 671 710 676
f 673 712 711
f 713 675 634
f 634 714 713
f 634 635 714
f 712 673 674
f 713 674 675
f 635 715 714
f 674 713 712
f 635 637 715
f 716 715 637
f 637 599 716
f 599 640 716
f 679 717 639
f 640 718 716
f 640 600 718
f 680 639 719
f 600 720 718
f 720 600 644
f 681 721 682
f 642 682 722
f 721 722 682
f 722 723 642
f 683 642 723
f 645 683 724
f 647 725 648
f 684 648 725
f 647 645 726
f 685 684 727
f 724 726 645
f 725 727 684
f 727 686 685
f 646 651 728
f 726 725 647
f 725 729 727
f 729 686 727
f 730 649 687
f 650 649 730
f 730 731 650
f 729 725 732
f 729 733 686
f 687 686 733
f 610 650 731
f 731 734 610
f 611 610 734
f 691 735 690
f 735 691 657
f 689 690 692
f 736 692 690
f 692 736 737
f 690 735 738
f 735 657 694
f 738 736 690
f 692 737 693
f 738 735 694
f 739 580 693
f 740 693 737
f 739 693 740
f 736 741 742
f 736 738 741
f 743 738 694
f 695 743 694
f 696 580 739
f 738 744 741
f 745 741 744
f 509 696 698
f 744 738 743
f 697 743 695
f 743 697 744
f 697 699 744
f 700 746 586
f 747 744 699
f 747 699 662
f 747 748 744
f 662 749 747
f 586 746 703
f 748 747 749
f 749 662 701
f 748 749 750
f 749 751 750
f 751 749 701
f 701 705 751
f 751 705 752
f 753 708 706
f 707 752 705
f 707 754 752
f 754 707 668
f 668 709 754
f 754 709 755
f 755 709 711
f 676 710 756
f 756 677 676
f 757 711 712
f 758 713 714
f 713 759 712
f 713 758 759
f 758 714 760
f 760 714 715
f 761 712 759
f 757 712 761
f 715 716 760
f 762 760 716
f 718 762 716
f 717 719 639
f 763 680 719
f 681 680 763
f 560 764 644
f 646 764 560
f 765 766 723
f 646 728 764
f 766 767 723
f 683 723 767
f 767 724 683
f 768 728 651
f 724 769 726
f 726 770 725
f 770 732 725
f 688 768 651
f 733 730 687
f 734 688 611
f 771 731 730
f 729 732 772
f 771 730 733
f 771 734 731
f 733 729 772
f 771 733 772
f 736 742 737
f 773 737 742
f 774 740 737
f 775 773 742
f 776 739 777
f 742 741 775
f 741 745 775
f 776 696 739
f 696 776 698
f 744 778 745
f 779 745 778
f 748 778 744
f 700 780 746
f 781 778 748
f 746 782 703
f 748 750 783
f 706 703 782
f 781 748 783
f 784 781 783
f 783 750 785
f 786 783 785
f 786 784 783
f 751 752 787
f 710 708 788
f 752 754 755
f 788 789 710
f 752 755 790
f 756 710 789
f 755 791 790
f 711 791 755
f 677 756 789
f 791 711 757
f 757 792 791
f 678 677 793
f 792 757 761
f 759 758 794
f 759 794 761
f 761 795 792
f 679 678 793
f 762 758 760
f 794 796 761
f 793 717 679
f 758 762 794
f 796 795 761
f 794 762 796
f 797 762 718
f 797 718 720
f 721 681 763
f 763 798 721
f 798 799 721
f 799 722 721
f 723 722 765
f 764 728 768
f 767 800 724
f 800 769 724
f 801 770 769
f 770 726 769
f 688 802 768
f 732 770 803
f 804 734 771
f 805 772 732
f 772 804 771
f 805 806 772
f 774 737 773
f 777 739 740
f 740 774 777
f 773 807 774
f 807 773 775
f 775 779 807
f 779 775 745
f 779 778 808
f 746 780 782
f 778 781 808
f 782 753 706
f 781 784 809
f 751 785 750
f 786 809 784
f 787 785 751
f 753 788 708
f 810 786 785
f 785 787 810
f 787 811 810
f 790 787 752
f 811 787 790
f 812 811 790
f 812 790 791
f 789 793 677
f 791 813 812
f 812 813 814
f 791 792 813
f 792 795 813
f 815 813 795
f 793 816 717
f 817 795 796
f 817 796 818
f 818 796 762
f 797 818 762
f 816 719 717
f 720 819 797
f 819 720 644
f 819 644 764
f 764 820 819
f 765 722 799
f 768 821 820
f 820 764 768
f 765 822 766
f 767 766 822
f 822 800 767
f 770 801 823
f 824 802 688
f 823 825 770
f 770 825 803
f 688 734 824
f 826 734 804
f 734 826 824
f 803 827 732
f 827 805 732
f 804 772 806
f 828 777 774
f 828 776 777
f 774 829 828
f 829 774 807
f 776 828 830
f 776 830 698
f 829 807 779
f 779 831 829
f 698 832 700
f 698 830 832
f 833 829 831
f 700 832 834
f 835 831 779
f 700 834 780
f 833 831 835
f 779 808 835
f 780 836 782
f 836 780 834
f 782 837 753
f 837 782 836
f 808 781 809
f 838 809 786
f 788 753 837
f 810 838 786
f 788 839 789
f 838 810 840
f 810 811 840
f 841 840 811
f 842 841 811
f 842 811 812
f 843 793 789
f 842 844 841
f 814 842 812
f 814 844 842
f 815 814 813
f 844 845 846
f 845 844 814
f 814 815 845
f 815 817 845
f 815 795 817
f 847 817 818
f 818 797 847
f 816 763 719
f 848 847 797
f 797 849 848
f 798 763 850
f 797 819 849
f 849 819 851
f 819 820 851
f 765 799 852
f 851 820 821
f 822 853 800
f 768 802 821
f 854 800 853
f 769 800 854
f 769 855 801
f 855 823 801
f 856 823 855
f 825 823 856
f 856 803 825
f 856 857 803
f 857 827 803
f 858 827 857
f 858 805 827
f 828 859 830
f 859 828 829
f 833 859 829
f 860 834 832
f 861 833 835
f 862 861 835
f 836 834 860
f 862 835 863
f 808 863 835
f 808 809 863
f 864 863 809
f 838 864 809
f 840 865 866
f 840 841 865
f 867 793 843
f 841 844 865
f 816 793 867
f 868 816 867
f 846 869 844
f 846 870 869
f 870 846 845
f 817 871 845
f 845 871 870
f 871 817 847
f 847 872 871
f 763 816 850
f 847 873 872
f 873 847 848
f 873 848 849
f 849 874 873
f 850 875 798
f 799 798 875
f 874 849 851
f 852 876 765
f 877 851 821
f 876 878 765
f 822 765 878
f 853 822 878
f 855 769 854
f 854 879 855
f 856 855 879
f 856 858 857
f 858 880 805
f 880 881 805
f 806 805 881
f 804 882 826
f 881 883 806
f 884 882 804
f 883 884 806
f 804 806 884
f 885 830 859
f 859 886 885
f 859 887 886
f 830 888 832
f 888 830 885
f 887 859 833
f 833 861 887
f 832 888 860
f 889 836 860
f 889 890 836
f 837 836 890
f 890 891 837
f 788 837 891
f 891 839 788
f 892 864 838
f 838 893 892
f 838 894 893
f 894 838 840
f 840 866 894
f 843 789 839
f 844 869 865
f 895 869 870
f 896 895 870
f 896 870 871
f 850 816 868
f 897 850 868
f 896 871 872
f 898 873 874
f 852 799 875
f 898 874 851
f 851 877 898
f 878 876 899
f 802 877 821
f 853 878 900
f 853 900 854
f 877 802 901
f 824 901 802
f 854 900 902
f 902 903 854
f 879 854 903
f 879 903 856
f 856 903 904
f 856 904 905
f 858 856 905
f 858 905 906
f 858 906 880
f 824 826 907
f 883 881 908
f 883 908 909
f 884 883 909
f 886 887 885
f 861 910 887
f 861 862 910
f 888 889 860
f 862 863 911
f 890 889 912
f 911 863 913
f 891 890 912
f 913 863 864
f 912 914 891
f 864 892 913
f 839 891 914
f 914 915 839
f 916 893 894
f 894 917 916
f 894 866 917
f 866 918 917
f 843 839 915
f 915 919 843
f 918 866 920
f 865 920 866
f 919 867 843
f 865 921 920
f 921 865 869
f 869 922 921
f 922 869 895
f 895 923 922
f 923 895 896
f 896 924 923
f 924 896 872
f 872 873 925
f 875 850 897
f 925 873 898
f 875 897 926
f 877 927 898
f 926 852 875
f 928 852 926
f 876 852 928
f 928 899 876
f 928 878 899
f 878 928 929
f 929 900 878
f 877 901 927
f 929 902 900
f 930 903 902
f 930 904 903
f 901 824 931
f 905 904 930
f 824 907 931
f 932 881 880
f 826 882 907
f 908 881 933
f 909 908 934
f 909 934 935
f 884 909 935
f 882 884 935
f 885 936 888
f 936 885 887
f 887 937 936
f 887 910 937
f 888 936 938
f 939 937 910
f 938 889 888
f 910 940 939
f 940 910 862
f 938 941 889
f 911 940 862
f 889 941 912
f 912 941 942
f 914 912 942
f 942 943 914
f 915 914 943
f 944 915 943
f 893 916 892
f 919 915 944
f 917 918 916
f 945 919 944
f 920 946 918
f 920 947 946
f 947 920 921
f 945 868 919
f 867 919 868
f 947 921 948
f 948 921 949
f 945 950 868
f 921 922 949
f 950 951 868
f 897 868 951
f 948 949 952
f 952 949 922
f 922 923 952
f 923 953 952
f 951 954 897
f 953 923 924
f 955 952 953
f 953 956 955
f 957 953 924
f 924 872 925
f 953 957 956
f 957 924 925
f 926 897 954
f 958 957 925
f 959 960 954
f 954 928 926
f 925 898 958
f 958 961 957
f 928 954 960
f 959 962 960
f 927 958 898
f 960 929 928
f 929 960 962
f 962 963 929
f 958 927 964
f 902 929 963
f 927 901 964
f 902 963 930
f 964 901 931
f 930 965 905
f 964 931 966
f 905 965 906
f 906 967 932
f 906 932 880
f 966 931 907
f 933 934 908
f 968 936 937
f 941 938 936
f 937 939 968
f 969 941 936
f 969 936 968
f 968 939 940
f 940 970 968
f 941 969 942
f 969 968 971
f 970 940 911
f 970 911 913
f 913 972 970
f 973 972 913
f 913 892 973
f 942 944 943
f 942 969 944
f 974 969 975
f 892 916 973
f 976 973 916
f 944 969 974
f 944 974 945
f 976 916 918
f 977 976 918
f 977 978 976
f 977 979 978
f 946 977 918
f 974 950 945
f 979 977 946
f 980 978 979
f 946 981 979
f 981 946 947
f 947 948 981
f 951 950 982
f 979 981 983
f 952 955 948
f 984 981 948
f 982 985 951
f 984 948 955
f 954 951 985
f 985 986 954
f 984 955 987
f 987 955 988
f 989 955 956
f 988 955 989
f 959 954 986
f 986 990 959
f 957 961 956
f 956 961 989
f 962 959 990
f 991 989 961
f 989 992 988
f 989 991 992
f 990 993 962
f 963 962 993
f 991 961 958
f 991 958 964
f 993 930 963
f 964 966 991
f 906 965 967
f 994 966 907
f 932 933 881
f 907 882 994
f 995 996 934
f 935 934 996
f 996 994 882
f 933 995 934
f 882 935 996
f 971 968 970
f 970 972 971
f 997 971 972
f 975 969 971
f 975 971 997
f 997 972 973
f 978 975 997
f 978 997 973
f 978 973 976
f 982 974 975
f 982 975 978
f 950 974 982
f 978 980 985
f 978 985 982
f 983 980 979
f 987 983 981
f 998 980 983
f 987 981 984
f 998 983 987
f 980 999 985
f 985 990 986
f 999 980 998
f 990 985 999
f 998 987 988
f 999 1000 990
f 1000 999 998
f 990 1000 993
f 965 1000 998
f 988 992 1001
f 1001 992 991
f 993 1000 930
f 1000 965 930
f 998 988 1001
f 966 1001 991
f 967 965 998
f 994 1001 966
f 1002 998 1001
f 967 998 932
f 998 933 932
f 933 998 1002
f 1001 996 1002
f 994 996 1001
f 995 1002 996
f 933 1002 995
