v -17.472687 2.556595 -58.919205

v -13.793259 4.935242 -59.679138

v -14.310455 2.839355 -60.580265

v -7.850882 7.400452 -59.578003

v -6.272934 5.672089 -60.506924

v -4.710873 7.151325 -59.467072

v -4.637791 3.142970 -59.558918

v -12.408661 -2.441227 -60.553078

v -6.029221 -1.583515 -60.573906

v -4.412231 -1.692526 -59.691792

v -12.063171 -7.975937 -60.601475

v -14.631714 -6.706055 -59.062424

v -4.011414 -5.428398 -59.820816

v -15.953918 -9.778366 -60.244926

v -16.940857 -8.161835 -59.172684

v -5.247040 -7.613026 -60.561230

v -13.829041 -13.194122 -60.618515

v -11.235121 -13.449448 -60.560982

v -5.115433 -12.949699 -60.496521

v -3.644142 -9.806782 -59.614048

v -15.074860 -15.416748 -60.350906

v -14.314873 -17.274635 -59.625740

v -16.356865 -16.827753 -59.694862

v -5.777872 -16.307800 -58.941162

v -16.110703 6.335480 -57.026810

v -22.473755 3.953308 -56.724335

v -21.596436 0.787994 -58.393066

v -12.106293 6.863647 -57.529175

v -18.865112 -2.844059 -58.550156

v -15.231506 -1.950954 -58.801552

v -22.852905 0.256477 -57.739716

v -5.410989 8.680828 -57.728344

v -4.627052 6.412127 -56.082756

v -5.020679 1.800560 -55.377357

v -19.586365 -8.512268 -58.008148

v -4.230011 -2.970238 -56.584595

v -17.151917 -12.902039 -58.117371

v -4.149841 -7.256226 -56.439545

v -4.114494 -11.708230 -56.216919

v -11.673401 -18.846252 -56.753296

v -16.904247 -17.647549 -56.788177

v -4.238533 -15.781494 -57.869278

v -7.178574 37.445160 -56.575851

v -14.657639 33.463120 -56.635246

v -7.905586 40.649185 -54.716969

v -5.788121 38.234940 -55.645370

v -5.581379 34.961235 -55.697903

v -6.938126 31.473866 -56.597042

v -17.298828 30.444904 -56.636238

v -7.138397 25.500565 -56.646179

v -17.260727 26.114105 -56.603951

v -20.085403 30.393066 -54.835480

v -5.438195 31.426235 -55.683792

v -11.820702 17.996796 -56.679474

v -5.548731 25.935991 -55.678108

v -13.592041 15.370285 -54.850071

v -7.103790 19.932213 -56.626049

v -5.670336 21.571634 -55.660011

v -5.795517 18.499235 -55.775719

v -7.432709 15.525085 -56.561203

v -17.856831 9.771057 -56.630753

v -21.510559 7.143707 -56.583969

v -17.819462 11.691162 -55.653503

v -23.883095 7.974785 -54.876991

v -5.686864 15.488901 -55.701035

v -7.840378 13.489792 -55.061699

v -13.724609 8.122375 -55.644775

v -27.408173 0.783617 -55.016838

v -8.021690 10.811066 -54.910637

v -6.041291 9.881210 -55.199493

v -23.645630 -3.659943 -55.468201

v -21.277466 -10.087769 -54.979614

v -17.538513 -14.244537 -55.839264

v -4.712555 -16.838766 -55.883881

v -9.149178 -19.722504 -55.718842

v -6.504030 -18.803501 -55.921871

v -16.204895 47.290848 -54.655830

v -22.846329 44.780350 -54.707073

v -20.771118 48.241211 -54.035767

v -23.788330 39.836113 -54.701256

v -26.382782 41.508835 -52.926094

v -5.520968 49.687851 -53.420052

v -7.270706 46.847961 -54.665359

v -5.571446 46.482727 -53.585499

v -17.298342 35.309647 -54.779469

v -24.710358 34.420212 -54.708782

v -27.071655 35.666931 -52.937912

v -5.887165 43.394642 -53.581570

v -26.639828 29.897430 -54.771965

v -6.220654 40.128258 -53.737995

v -31.165909 23.772598 -54.756004

v -29.582275 29.978859 -53.059097

v -20.021393 25.098881 -54.833420

v -18.657913 13.630951 -54.823311

v -34.032524 16.927765 -54.831169

v -36.362671 17.152710 -53.246918

v -5.963237 35.089306 -52.246655

v -5.808323 32.165070 -52.397640

v -35.048065 8.583786 -54.829044

v -36.165039 13.001495 -54.135437

v -5.732731 27.915443 -52.157158

v -5.904320 22.020805 -52.028946

v -13.262299 9.879272 -54.837044

v -34.300529 1.024048 -51.590332

v -28.861511 -1.605606 -54.524025

v -5.927124 17.980202 -51.877407

v -6.499821 12.600979 -53.199860

v -6.116015 7.884950 -53.111958

v -6.164266 4.884997 -53.291298

v -25.928162 -6.407318 -54.187286

v -6.018227 -2.150199 -53.658775

v -6.074661 -5.964417 -53.878006

v -6.296329 -10.598507 -53.648094

v -20.159645 -16.873535 -51.578827

v -17.069984 -18.215637 -54.236908

v -6.843777 -15.999958 -52.572304

v -9.731476 -20.410431 -53.734253

v -7.447331 -19.789719 -52.351093

v -25.823242 47.330734 -52.553909

v -31.668533 42.501389 -52.788445

v -32.527039 43.669559 -51.939819

v -21.667084 49.246948 -52.819580

v -19.463867 53.528809 -50.358765

v -13.456543 52.395020 -52.469513

v -15.330811 49.656006 -53.160645

v -7.028549 54.325806 -52.214508

v -8.268585 55.701172 -51.211456

v -7.186134 50.638977 -52.945297

v -5.672324 52.265781 -51.735741

v -32.073456 33.487000 -52.740379

v -34.382904 37.868179 -51.033394

v -33.733398 27.964844 -52.632751

v -35.589661 29.530800 -51.052162

v -33.863312 23.881302 -53.125549

v -37.797913 23.254761 -52.767960

v -38.897400 17.948486 -52.649597

v -41.115433 19.728668 -51.083481

v -40.689713 12.501923 -51.086479

v -37.941650 5.314776 -51.502319

v -4.752180 25.384460 -50.295105

v -4.829767 13.782515 -50.012024

v -30.091522 -3.279111 -51.489853

v -25.227448 -10.327393 -51.918274

v -5.810836 0.671791 -51.263840

v -5.941889 -6.535828 -46.583004

v -17.780762 -19.448151 -51.451019

v -13.943146 -22.040894 -51.201965

v -9.219425 -24.010300 -50.068481

v -7.951605 -21.681503 -51.990379

v -24.049561 50.829590 -50.313965

v -30.454163 48.533325 -46.976929

v -12.898804 57.171204 -50.316681

v -33.137291 45.355347 -47.834885

v -34.405548 41.461761 -50.411377

v -7.039173 58.830658 -50.033127

v -6.370295 55.350636 -50.056389

v -38.380997 38.963699 -50.295792

v -38.857819 37.045879 -50.895695

v -42.894867 36.222809 -48.069504

v -42.993507 31.226082 -50.911331

v -6.587811 51.820835 -47.019699

v -39.645233 25.103271 -51.103020

v -45.705414 25.374779 -50.882553

v -47.961357 20.065636 -50.899315

v -50.297890 16.312080 -50.081963

v -49.025772 15.506325 -51.035591

v -51.066063 12.864101 -50.112190

v -5.234104 37.477631 -48.512493

v -49.574707 9.953369 -51.060020

v -51.099709 9.033817 -50.108612

v -4.995628 33.863300 -48.636692

v -50.618355 4.241607 -50.148407

v -39.441193 4.449310 -51.075912

v -48.948883 3.558151 -51.078964

v -4.391318 30.628910 -48.996651

v -4.647780 27.940100 -49.981247

v -43.724609 -4.230843 -51.092262

v -48.913589 -0.258240 -50.350220

v -4.378044 22.354031 -49.930954

v -46.449379 -6.513550 -48.660034

v -4.656151 18.714447 -49.968040

v -39.475815 -7.730637 -51.056522

v -30.096313 -5.942759 -51.078232

v -5.253802 7.326112 -49.918747

v -32.995636 -14.337715 -51.059616

v -40.675171 -9.607483 -49.578644

v -25.435860 -19.669662 -51.068230

v -24.221848 -13.896393 -51.135361

v -33.204773 -17.232178 -49.482605

v -19.167358 -21.682621 -51.010242

v -25.835403 -22.091217 -49.488541

v -18.360962 -24.286987 -49.247345

v -6.535742 -12.568919 -46.417122

v -13.944687 -23.510834 -50.030586

v -6.754143 -18.281000 -46.344669

v -8.020719 -23.561678 -49.836140

v -19.659668 56.236694 -46.809570

v -28.873047 51.260254 -45.859375

v -10.871094 62.119019 -46.063232

v -7.462688 60.576721 -47.857803

v -6.505550 58.958359 -47.612228

v -34.599335 43.191544 -47.812622

v -39.243790 40.227173 -47.593201

v -42.380402 37.346161 -48.304695

v -6.604317 54.644196 -46.912537

v -45.653290 33.043076 -47.344154

v -48.497833 27.060623 -47.626511

v -6.883688 48.774700 -44.578941

v -50.633423 18.949829 -47.583923

v -6.754659 44.998806 -44.554718

v -6.368301 43.165321 -46.468056

v -51.376495 12.023865 -48.244385

v -51.022003 6.483093 -48.242676

v -51.074524 2.250487 -46.348145

v -5.463562 26.268877 -46.623245

v -5.881770 23.003658 -45.447121

v -5.855651 19.702171 -45.186012

v -5.440300 14.921130 -45.700600

v -41.989685 -12.216919 -48.807190

v -36.533997 -17.124817 -48.855804

v -37.259094 -18.757324 -47.675537

v -4.733113 1.534445 -40.756790

v -5.089940 -1.777850 -44.603447

v -31.281174 -22.074799 -48.883636

v -25.075104 -25.095947 -48.851501

v -21.586620 -26.570938 -48.157089

v -10.302826 -23.748081 -46.405155

v -35.174194 47.553284 -46.486115

v -34.184906 50.180420 -44.323914

v -16.532959 60.902222 -44.408813

v -7.845825 62.761688 -45.646210

v -7.520441 61.225639 -45.751461

v -37.440186 44.430420 -46.551453

v -40.802979 43.159119 -46.686554

v -42.991180 39.953369 -47.019958

v -51.541779 36.319443 -45.321960

v -45.781128 38.596313 -46.950897

v -49.658966 33.620728 -47.006638

v -7.627491 57.495235 -44.615166

v -51.153503 27.230408 -46.870331

v -52.930969 30.457443 -45.381676

v -53.417557 24.374603 -45.360809

v -53.071167 18.198959 -45.629303

v -53.943726 11.608124 -45.444733

v -6.590566 39.145981 -45.067825

v -6.620423 35.924328 -45.073349

v -6.558037 32.605774 -45.527016

v -52.411911 3.992164 -45.492489

v -6.171779 29.551579 -45.293171

v -51.476669 -0.867151 -45.591469

v -48.450317 -5.425911 -46.150681

v -48.876526 -9.209045 -44.699677

v -44.031624 -13.596680 -47.116150

v -4.921175 5.937233 -40.514832

v -41.035706 -19.204102 -46.865784

v -35.188843 -23.514648 -46.271240

v -32.426315 -27.715881 -44.551880

v -22.386063 -27.421326 -46.102386

v -17.847734 -25.406189 -46.297791

v -14.203529 -23.982895 -46.346329

v -6.497437 -22.409878 -44.258125

v -26.369843 55.012024 -44.004150

v -37.191864 48.247223 -44.181458

v -45.521454 43.258781 -44.189804

v -50.339905 39.514252 -44.438660

v -54.748779 36.249329 -44.186401

v -57.393738 30.309181 -45.177269

v -58.329880 21.324387 -45.218590

v -60.414795 27.501129 -43.341309

v -6.610291 52.477489 -43.316483

v -58.950607 13.322914 -45.269478

v -60.977539 17.297699 -43.710205

v -5.031681 41.430939 -40.533901

v -57.943695 5.748581 -45.271072

v -58.904541 0.215149 -43.461548

v -60.224060 6.167313 -43.879730

v -53.733337 -2.651199 -45.338242

v -55.711700 -2.727608 -44.765625

v -5.150463 27.951742 -40.853333

v -52.073486 -5.566429 -44.627090

v -45.572327 -15.487534 -44.706177

v -42.019386 -22.287506 -44.463806

v -38.016022 -25.180420 -44.583893

v -4.858837 -5.946382 -44.242729

v -4.754255 -9.598354 -44.288788

v -4.749420 -13.552475 -44.245682

v -4.882885 -16.690485 -44.311115

v -24.794830 -29.557007 -44.744995

v -4.952015 -20.562126 -44.247772

v -19.344818 -32.235779 -40.930054

v -13.866798 -26.482666 -44.123413

v -9.206215 -24.501987 -44.393173

v -16.167160 62.789124 -42.202759

v -13.586056 63.939941 -40.195251

v -26.059937 56.647919 -40.515381

v -38.158913 47.789993 -42.617126

v -48.798065 41.585632 -41.996216

v -8.602318 65.186226 -42.106232

v -6.883545 64.478149 -42.181534

v -60.130127 33.214111 -40.922119

v -57.247131 37.389614 -40.338257

v -5.460632 59.782776 -41.285767

v -63.079102 21.786530 -43.151245

v -64.004883 24.451042 -41.869446

v -63.782898 14.851700 -42.973511

v -65.816162 16.926086 -41.756348

v -62.753479 6.155151 -43.096313

v -65.309570 10.919312 -41.347168

v -5.163681 36.791321 -40.324703

v -63.739990 2.443665 -41.915649

v -4.914520 32.741970 -40.244812

v -57.462872 -3.998718 -41.634560

v -55.953667 -3.729111 -42.501526

v -52.848949 -5.673012 -42.559814

v -50.485634 -9.825974 -41.763248

v -4.884251 17.041672 -40.387344

v -4.901485 13.247899 -40.393105

v -46.548027 -16.128433 -41.929214

v -5.017130 8.811145 -40.519836

v -44.058266 -20.892944 -41.794983

v -41.890930 -24.252121 -40.619751

v -4.985317 -3.322395 -40.572029

v -37.771973 -27.258911 -40.926758

v -4.770330 -6.606016 -40.605698

v -5.111277 -12.762708 -40.809212

v -5.321672 -16.021782 -40.988476

v -26.686035 -31.570679 -42.286499

v -28.680141 -32.681366 -40.603821

v -5.259465 -20.861362 -40.311386

v -9.885399 -23.320402 -41.077885

v -12.255203 -26.097452 -40.661266

v -16.367981 64.555344 -38.516998

v -17.835358 61.802429 -40.305420

v -30.271881 54.588875 -38.732178

v -8.724884 66.515991 -38.831360

v -37.567924 49.762100 -38.687012

v -48.430756 43.522095 -37.989502

v -5.161133 65.504379 -40.200562

v -64.643616 27.818233 -40.991241

v -3.434870 61.040974 -38.235455

v -67.428650 22.098465 -41.062500

v -3.538914 55.418411 -38.577667

v -68.741821 15.220398 -39.656525

v -4.978943 47.249130 -40.244415

v -4.955429 43.772549 -40.200714

v -65.768921 3.905396 -41.278503

v -64.604309 -5.114040 -41.312073

v -68.887268 0.158661 -38.951843

v -63.098541 -6.332451 -41.495285

v -54.765610 -9.430847 -41.530022

v -4.737503 24.711981 -40.208122

v -4.847221 20.783550 -40.319855

v -55.803162 -10.341064 -41.109192

v -51.670105 -14.880699 -41.020142

v -49.263550 -17.728004 -40.290161

v -3.799618 3.078703 -39.087898

v -32.701248 -31.491261 -39.367569

v -23.720348 -33.796936 -40.550591

v -16.938950 -31.821472 -39.307503

v -12.933243 -29.398504 -38.442627

v -12.073227 65.722137 -38.308228

v -22.196915 60.616684 -38.064346

v -26.336159 57.952782 -37.876789

v -41.050507 47.941376 -38.581665

v -5.090768 67.363380 -38.178825

v -60.593567 35.683350 -37.125000

v -3.639216 65.438705 -38.309505

v -63.191406 32.990601 -37.549072

v -66.811279 27.826538 -38.444824

v -72.710327 22.655731 -37.020386

v -70.629883 20.219055 -38.709961

v -3.609808 57.682358 -38.307083

v -70.217102 14.633514 -39.150787

v -3.521610 53.160942 -38.255802

v -3.475731 50.600151 -38.378120

v -70.520020 10.474716 -39.312004

v -3.316542 47.486336 -38.304073

v -67.454102 5.950684 -39.995880

v -71.197327 8.676250 -38.924011

v -3.281695 44.929115 -38.320759

v -3.115592 42.541206 -38.295773

v -70.148148 4.431557 -38.795990

v -3.165795 40.595093 -38.306629

v -3.101509 37.563580 -38.307281

v -2.969797 34.845772 -38.311607

v -69.041550 -2.838570 -38.689087

v -67.098877 -7.173141 -39.071838

v -3.169380 32.733402 -38.374352

v -3.026474 30.534872 -38.332767

v -3.073238 27.424877 -38.446487

v -64.479431 -10.182709 -38.668549

v -2.894634 25.170923 -38.279449

v -58.010788 -12.880432 -38.698212

v -2.984228 23.002972 -38.368721

v -2.802513 20.378922 -38.346668

v -2.852634 17.018227 -38.334167

v -54.302200 -15.788208 -38.677185

v -3.153433 12.091895 -38.358421

v -3.118649 9.325300 -38.288197

v -3.127375 6.467225 -38.346996

v -46.364441 -21.745178 -38.742920

v -3.202910 -0.415116 -38.177536

v -42.079597 -26.326611 -38.573349

v -3.646538 -4.486605 -38.550331

v -38.235512 -28.751328 -38.752808

v -3.855087 -11.103971 -38.261986

v -35.635170 -30.011618 -38.419960

v -3.981945 -15.308634 -37.756786

v -29.388037 -32.429977 -38.260937

v -4.201571 -18.999973 -38.169319

v -5.247657 -22.017815 -38.472534

v -23.693991 -33.709011 -38.629852

v -8.060844 -25.548183 -38.210136

v -10.843636 -27.985348 -38.102276

v -19.887943 -33.035736 -38.528332

v -15.605988 65.804077 -34.887939

v -10.708744 67.829536 -33.860008

v -32.755760 53.301121 -34.672302

v -56.487793 41.572182 -33.629639

v -51.824249 44.603569 -34.522858

v -37.625641 51.372444 -30.711361

v -42.876404 48.516769 -35.507263

v -6.779345 67.865250 -34.417870

v -68.213867 29.889160 -35.816650

v -4.010737 66.843590 -34.521828

v -71.587097 25.587494 -36.975525

v -4.201576 62.550480 -34.401398

v -4.306927 59.376968 -34.427811

v -74.555664 18.594391 -35.711182

v -5.009453 56.260525 -33.303604

v -5.115528 53.696358 -33.081902

v -72.146851 11.585785 -36.415924

v -4.263657 50.396694 -34.684097

v -72.179382 7.856392 -36.241730

v -4.224113 47.780952 -34.477463

v -4.860580 45.753357 -33.441681

v -71.368591 4.274040 -36.153862

v -4.975929 43.724594 -33.033684

v -69.549728 0.164700 -36.976074

v -4.550491 38.788239 -33.517838

v -69.488098 -4.817780 -36.510010

v -4.425453 35.539345 -33.494263

v -4.764084 32.803764 -32.842010

v -4.852920 30.560125 -32.041710

v -4.503029 27.875648 -32.612389

v -67.035889 -9.749847 -35.699707

v -60.619263 -12.198212 -36.818115

v -4.183819 21.960718 -33.481812

v -57.096619 -14.072968 -36.757507

v -4.385490 18.955788 -32.932198

v -54.429749 -16.529022 -36.632385

v -49.079315 -20.202942 -36.797363

v -4.163586 11.784565 -33.555084

v -3.460552 8.726753 -34.812477

v -46.590790 -23.198975 -35.361572

v -3.325212 3.283363 -34.765892

v -43.075485 -26.070419 -33.402863

v -3.685482 -4.730995 -36.188393

v -36.886425 -29.033367 -33.762756

v -3.611168 -8.858578 -36.388134

v -4.313011 -12.125480 -36.594524

v -20.437153 -31.756531 -34.898331

v -7.337338 -24.536917 -31.859406

v -20.562569 60.987732 -33.614624

v -45.658401 47.949326 -34.655716

v -66.803650 34.689941 -33.972168

v -73.664612 24.017456 -34.675476

v -75.215576 19.434814 -34.470215

v -75.960632 13.467438 -34.782593

v -74.787170 8.819077 -35.498535

v -76.272095 10.917191 -34.143433

v -76.927856 6.382997 -34.205872

v -74.346741 3.200043 -35.606903

v -4.844917 41.583702 -33.126556

v -70.680481 -3.471008 -35.744720

v -77.803467 2.341003 -33.392700

v -72.640137 -6.536255 -31.549255

v -63.954681 -12.386475 -34.905334

v -59.480713 -16.419678 -32.876221

v -4.267948 15.528179 -33.120674

v -52.319946 -19.991501 -34.958374

v -4.356613 6.805347 -32.883087

v -3.653847 -1.245182 -34.226788

v -7.209839 -6.112518 -34.656921

v -7.723206 -11.852173 -33.452698

v -6.282448 -14.742018 -33.495453

v -5.509783 -18.557201 -33.169098

v -27.440334 -31.066355 -33.798340

v -15.465588 -29.745720 -34.070190

v -14.908368 66.270203 -32.479431

v -45.079727 48.404076 -30.980568

v -73.611694 27.441528 -32.880005

v -70.050659 34.501770 -30.713867

v -6.980484 66.828781 -31.994110

v -24.736031 57.207031 -32.133545

v -29.937485 53.816422 -29.090134

v -6.097475 63.910572 -31.992682

v -78.641113 21.868210 -31.242676

v -5.971668 61.090893 -32.156292

v -5.802858 58.606277 -32.156303

v -79.493164 13.814724 -33.520401

v -79.468506 7.409204 -33.405670

v -5.815220 50.127228 -31.602604

v -75.050293 -3.094910 -33.075684

v -67.263611 -11.298126 -30.922150

v -5.022369 2.684612 -33.260979

v -51.414085 -22.969902 -30.491653

v -9.174413 -0.270388 -32.599514

v -8.285023 -1.511979 -32.795891

v -7.783859 1.126602 -33.210686

v -9.132050 -3.589111 -32.850777

v -9.624512 -6.610258 -32.894638

v -31.284901 -31.116657 -31.019501

v -23.062771 -31.523136 -31.518858

v -65.291138 38.089722 -30.064697

v -48.876404 47.051216 -27.490799

v -40.628765 50.014740 -30.672638

v -10.347994 65.902283 -28.991882

v -14.863358 64.514549 -28.707336

v -76.173950 28.545349 -31.081482

v -33.386749 53.315353 -30.843079

v -24.446022 55.476803 -28.292583

v -5.705732 64.473969 -28.552643

v -83.266296 16.134003 -29.144409

v -82.275391 10.963257 -30.685059

v -5.090376 56.026882 -28.787167

v -5.053202 54.144650 -28.723387

v -81.345215 3.342682 -30.574219

v -5.016674 46.688560 -30.046432

v -4.994267 43.994591 -30.121666

v -80.168701 -2.852295 -28.625916

v -4.940895 40.672348 -30.371223

v -77.474213 -6.027710 -28.507690

v -4.734346 34.481850 -30.439163

v -4.226722 29.562397 -29.083078

v -4.534244 23.176519 -28.856520

v -63.280548 -15.050644 -30.870667

v -4.867481 17.006445 -28.662098

v -58.725525 -18.536835 -30.724335

v -4.952915 12.983109 -28.759405

v -55.734375 -20.462914 -30.501419

v -5.817976 3.832355 -28.809753

v -10.090260 1.665812 -28.158453

v -44.743057 -26.945084 -30.696243

v -10.134007 -2.424140 -28.836876

v -11.353889 -6.737247 -29.045898

v -10.708824 -9.733978 -29.191010

v -36.989418 -30.032478 -31.073128

v -25.558823 -32.753601 -29.524040

v -5.696489 -22.255611 -28.789948

v -19.530136 -29.728741 -28.949493

v -13.270649 -28.160521 -28.784142

v -62.105431 41.984150 -26.511398

v -57.030457 43.672497 -27.392502

v -77.197754 32.805515 -26.606323

v -46.480541 46.954010 -25.194489

v -42.608185 47.570480 -24.974949

v -20.008665 59.890305 -28.562580

v -35.520676 49.443176 -26.288830

v -32.506531 50.533691 -26.759369

v -78.807312 25.495789 -28.936157

v -82.048462 22.785339 -27.120728

v -5.245531 60.909363 -28.398243

v -84.800461 10.817261 -29.247452

v -4.989504 58.156219 -28.618374

v -83.901001 4.803173 -29.137878

v -4.002857 52.052547 -26.959160

v -3.366729 48.918690 -27.098217

v -3.144208 35.675507 -26.966347

v -75.387543 -8.591614 -27.985138

v -3.245178 31.237238 -26.820187

v -4.572400 26.646004 -28.834719

v -68.729980 -13.467758 -28.672485

v -4.651747 20.215849 -28.694452

v -64.204346 -19.144165 -28.530029

v -4.934055 8.491888 -28.842142

v -58.195267 -22.840271 -28.530945

v -49.963837 -28.182030 -29.969292

v -52.407837 -27.634308 -29.406982

v -46.292007 -27.894897 -30.078892

v -47.389648 -31.770622 -29.311035

v -43.642181 -33.276360 -29.976151

v -36.244919 -36.256973 -30.022446

v -37.871040 -31.149246 -30.082579

v -44.680626 -34.154869 -29.105469

v -10.132019 -12.771729 -25.459808

v -41.963696 -35.867371 -29.241432

v -28.560196 -33.216492 -30.000648

v -34.442032 -37.999092 -29.048683

v -5.973457 -19.267981 -27.996552

v -29.340214 -35.752876 -28.528877

v -69.173737 37.897049 -26.070524

v -79.747581 29.092299 -26.879318

v -15.266541 62.586639 -27.766361

v -7.279858 63.949852 -27.709158

v -20.119080 57.816628 -27.813292

v -16.861786 53.599655 -27.720354

v -24.244881 51.686073 -26.865990

v -6.654343 58.939758 -27.751663

v -17.694794 50.712994 -25.864365

v -6.296082 54.967224 -27.818558

v -6.218315 53.789658 -27.714664

v -5.677143 51.223244 -25.865414

v -85.516899 8.453518 -24.493866

v -84.611282 4.182068 -27.352539

v -3.489362 46.797852 -26.702999

v -3.469444 44.115395 -26.755535

v -3.346079 41.091606 -26.757559

v -3.227682 38.230263 -26.777889

v -3.490715 33.213047 -26.299446

v -17.749313 24.993546 -25.942993

v -18.434433 20.753250 -27.797924

v -9.566025 25.320198 -27.739239

v -4.765823 29.013451 -27.218933

v -5.925041 24.885929 -27.881315

v -10.820862 4.231689 -27.894672

v -72.437660 -13.813896 -27.168930

v -22.651062 11.867222 -27.892660

v -69.402115 -16.626953 -27.208328

v -6.396194 16.038719 -27.868546

v -66.993401 -19.160591 -27.176361

v -21.534729 4.708206 -27.913525

v -24.143936 10.065287 -26.986824

v -6.541878 9.197571 -27.890903

v -64.189690 -22.182617 -27.265175

v -60.001160 -24.604218 -27.879089

v -61.381763 -24.810326 -27.197678

v -22.119537 -6.447567 -27.946301

v -22.098099 0.503975 -27.871105

v -23.484930 -4.200218 -27.010201

v -58.180725 -26.697685 -27.422546

v -11.806145 -2.941597 -27.939270

v -23.097042 -9.501978 -27.012432

v -55.129517 -28.916267 -27.251129

v -13.208282 -9.407265 -27.948286

v -51.609772 -31.151932 -27.205444

v -20.401230 -12.461304 -27.827438

v -21.021000 -14.331137 -26.862637

v -12.199623 -10.404236 -27.895645

v -16.508106 -12.218685 -26.831947

v -11.873895 -11.857597 -26.650612

v -46.423523 -34.330017 -25.909058

v -42.389076 -36.313690 -25.391449

v -37.084694 -38.105263 -24.694916

v -20.366261 -28.796354 -27.137928

v -24.063156 -31.273945 -27.407612

v -32.361362 -38.461273 -26.009090

v -17.084061 -27.996017 -27.134193

v -27.729916 -34.802357 -23.979126

v -7.256570 -24.964972 -23.684177

v -10.379856 -27.855843 -23.601807

v -55.453316 43.480927 -23.052856

v -81.445457 26.038841 -23.674210

v -82.885033 23.232708 -25.124741

v -36.676590 46.974541 -24.127872

v -85.060677 15.160973 -24.914185

v -32.256664 47.861748 -25.842819

v -22.525146 49.860031 -25.868961

v -34.257599 43.887192 -24.250839

v -32.565704 42.235062 -25.773987

v -30.195557 43.362549 -25.912243

v -35.785049 39.659401 -24.730728

v -34.018784 36.653618 -25.907772

v -35.143112 35.414577 -24.978226

v -5.701080 37.866821 -25.850286

v -33.366882 31.991310 -25.890594

v -34.929253 31.975754 -24.959085

v -4.685150 48.391357 -25.912155

v -10.234375 28.588470 -25.895317

v -33.954754 28.757717 -24.942169

v -4.581238 43.366318 -25.987843

v -31.600548 25.719727 -25.942955

v -84.447708 0.668823 -22.669678

v -79.350403 -5.663483 -25.202148

v -4.242104 37.299866 -26.027672

v -28.424042 23.407059 -25.941442

v -31.756393 22.316216 -24.117092

v -21.940689 19.788788 -26.053881

v -76.021881 -10.621490 -24.482239

v -4.712723 30.517868 -26.067520

v -23.924393 15.647671 -25.919235

v -72.999512 -14.039001 -24.708252

v -25.080681 12.452881 -24.227146

v -25.401161 9.627892 -24.168194

v -24.588737 6.358612 -24.407688

v -26.954834 2.627712 -24.494583

v -61.303101 -26.138618 -23.315491

v -25.036480 -1.474922 -22.730492

v -22.998280 -4.435452 -22.971783

v -23.106550 -8.353549 -24.629070

v -54.491394 -31.178802 -23.354156

v -22.342678 -12.423317 -23.055157

v -50.322296 -33.493042 -23.488281

v -8.945084 -15.102628 -21.248482

v -6.596041 -18.698112 -21.401083

v -6.030447 -21.567230 -23.155912

v -18.492489 -28.095047 -25.230042

v -23.653793 -31.030312 -24.870338

v -13.387432 -28.109764 -24.970840

v -30.704693 -36.833168 -24.137253

v -75.908241 33.397163 -21.778320

v -60.446259 41.741791 -22.743103

v -78.757553 29.675262 -18.818726

v -47.699833 44.939972 -23.725800

v -45.329056 45.207855 -23.910585

v -82.569801 20.730305 -19.717587

v -36.928497 40.637154 -23.955536

v -35.861938 34.593002 -21.271271

v -85.206680 4.950562 -22.913330

v -34.746826 31.045235 -21.220394

v -34.022278 25.170578 -24.086258

v -83.150024 -3.540791 -21.632751

v -83.901367 -1.947300 -21.111382

v -35.820679 22.111950 -23.523026

v -38.448067 15.932974 -24.077492

v -40.142700 16.826492 -22.940002

v -40.293594 14.562519 -22.313126

v -36.765705 11.679565 -23.328178

v -34.380844 10.916138 -24.072186

v -72.813995 -16.313843 -21.275024

v -30.880684 4.408398 -24.036476

v -33.095390 2.684006 -22.324467

v -66.568596 -23.255585 -19.254501

v -20.703064 -14.587395 -23.107643

v -13.508546 -13.452672 -19.319447

v -44.368378 -37.328632 -21.532898

v -20.244740 -30.484016 -23.221657

v -15.391773 -30.104980 -23.073929

v -69.926147 36.983154 -21.021240

v -81.578117 26.952463 -17.834305

v -51.231773 41.570942 -20.416203

v -54.097435 40.454216 -18.605202

v -43.218700 40.609558 -20.390903

v -38.235535 37.666046 -20.622025

v -35.885269 25.543060 -21.177643

v -38.169624 22.803471 -20.384953

v -81.884262 -6.943726 -20.593048

v -42.269310 18.792976 -20.434177

v -44.464981 13.692947 -21.224823

v -76.672211 -12.227661 -21.433014

v -36.922745 8.373759 -21.540817

v -37.046242 5.312369 -22.008541

v -39.896591 0.581993 -22.185802

v -39.638390 3.573612 -21.281593

v -41.938492 -0.270308 -21.156452

v -34.099976 -2.091385 -22.184437

v -40.379562 -2.450111 -21.548115

v -69.497284 -20.217583 -19.323441

v -34.401855 -3.625927 -21.186188

v -30.007912 -3.589005 -21.956436

v -64.768585 -25.834393 -19.334320

v -23.430193 -4.788040 -21.484932

v -62.449463 -28.748291 -20.450684

v -22.165556 -8.241535 -21.180370

v -58.981415 -32.647942 -19.653717

v -53.939880 -34.274719 -20.932037

v -24.152386 -15.810707 -21.276888

v -22.526268 -15.488144 -21.711700

v -16.959938 -15.664413 -18.551537

v -50.779602 -35.450146 -21.153442

v -11.518963 -14.498516 -18.740902

v -7.412781 -21.846907 -20.603998

v -33.155975 -36.766552 -19.611267

v -36.721516 -38.039227 -17.806091

v -27.259300 -33.990837 -20.580231

v -21.833845 -31.560577 -21.279890

v -16.220936 -29.959044 -21.165974

v -9.054941 -24.896572 -20.517311

v -10.009832 -27.337217 -21.119486

v -65.096222 36.562622 -16.171997

v -59.556061 39.949646 -18.998352

v -82.527557 25.082386 -19.380478

v -44.987282 37.710083 -20.105307

v -84.094666 15.989815 -17.766920

v -84.036774 9.527916 -12.146255

v -36.155762 30.615120 -20.209007

v -46.995697 32.637299 -18.506653

v -47.050461 35.198486 -18.398495

v -42.248032 29.763737 -20.168337

v -45.057312 26.785889 -17.998260

v -84.149361 -0.607403 -15.721405

v -43.091255 23.849937 -20.082275

v -46.327621 19.525524 -19.918282

v -82.809441 -2.413505 -17.583591

v -47.749512 17.039246 -18.998291

v -46.387939 14.134796 -20.136322

v -48.680035 10.619827 -17.885765

v -44.673889 10.558323 -18.610079

v -40.155972 12.224834 -19.010691

v -80.457352 -11.340149 -19.430321

v -77.342110 -14.738464 -19.451920

v -37.628906 8.646925 -19.326157

v -38.600433 5.797667 -19.091362

v -41.881798 3.150923 -18.399670

v -42.558258 -0.937561 -16.571472

v -74.479904 -19.323303 -17.577881

v -40.266148 -3.022375 -19.368103

v -35.000458 -4.660381 -18.466923

v -31.369049 -5.443642 -19.260437

v -24.630699 -8.953960 -18.432884

v -22.911808 -9.445654 -19.199768

v -61.922493 -31.222160 -19.426331

v -24.562576 -13.525557 -18.936741

v -24.988983 -17.221512 -19.307098

v -23.789383 -18.624130 -19.484390

v -20.113440 -18.498413 -18.295067

v -47.597412 -37.150852 -16.679504

v -9.528503 -17.681362 -19.987228

v -13.519863 -25.326126 -20.073635

v -14.849014 -21.673538 -18.055481

v -23.937134 -29.125298 -17.110420

v -17.225525 -28.364681 -19.781387

v -75.712799 32.245361 -15.398193

v -62.077560 37.021790 -16.282135

v -56.675850 39.035744 -18.011379

v -83.081589 21.811361 -17.485254

v -52.260994 36.364967 -18.046547

v -83.769775 19.024176 -17.466904

v -48.657486 30.693115 -17.983036

v -46.870575 23.372887 -16.184448

v -48.312683 19.962952 -15.997437

v -82.207008 -7.546074 -16.621246

v -50.014984 12.425098 -17.514648

v -81.819077 -8.912608 -15.041771

v -44.945633 6.352264 -17.749802

v -78.149788 -13.760506 -16.214088

v -39.702454 9.942955 -18.347925

v -71.796280 -22.977943 -17.497734

v -41.125820 -1.904804 -17.346764

v -36.453705 -4.002981 -17.457886

v -68.770020 -26.092865 -17.762016

v -33.747086 -9.268681 -17.683090

v -31.363342 -9.968864 -18.213245

v -65.851288 -28.960033 -17.253502

v -28.912415 -13.882547 -17.175110

v -55.822578 -35.192566 -14.829834

v -26.524048 -19.743530 -17.486389

v -25.151932 -21.105904 -16.588264

v -12.009163 -17.512238 -18.440279

v -17.614693 -21.696754 -16.604416

v -17.832603 -24.726517 -16.593927

v -27.866608 -31.651260 -15.203552

v -30.911167 -34.985458 -15.704890

v -70.214966 34.780289 -12.051331

v -80.268311 26.511963 -14.803833

v -81.345032 22.765213 -14.529297

v -55.813824 34.999039 -15.719799

v -82.477692 20.400238 -14.913696

v -53.436977 33.424103 -15.591789

v -51.218018 31.790535 -15.862122

v -48.552490 26.982740 -15.584915

v -84.704254 3.974815 -11.990082

v -84.913315 1.794591 -14.010155

v -83.399445 -4.516388 -15.693481

v -51.425552 14.785332 -15.463715

v -50.316238 9.414589 -13.279190

v -73.810104 -20.167530 -15.208740

v -41.063965 -4.965027 -13.914001

v -68.757965 -25.786987 -14.372070

v -38.363770 -8.408295 -14.601807

v -33.967316 -10.352905 -15.426834

v -62.894699 -30.881863 -13.540497

v -32.954102 -14.864868 -13.590332

v -30.519875 -18.961597 -15.583069

v -27.368103 -21.910969 -15.702026

v -24.228424 -27.542828 -16.435387

v -43.358517 -38.635483 -15.260486

v -39.324638 -38.379356 -13.846962

v -34.116203 -37.121368 -13.613978

v -76.376556 28.833862 -11.449097

v -63.199615 34.107101 -13.131210

v -58.654633 33.991299 -13.267761

v -82.466141 14.786791 -11.046965

v -48.946564 25.818024 -12.846741

v -48.379761 21.385681 -13.559326

v -85.931961 -3.224841 -13.660629

v -51.014313 16.921715 -13.544617

v -52.672913 13.667053 -12.648132

v -48.437317 4.033279 -12.923431

v -78.332870 -11.096046 -13.784134

v -75.030090 -14.056992 -13.651825

v -45.489868 -0.231247 -13.792664

v -43.298309 -4.800880 -13.518959

v -70.750610 -21.414215 -10.393250

v -72.313721 -19.549301 -11.688263

v -58.752380 -34.252460 -11.099197

v -30.713348 -20.716854 -12.815155

v -29.917053 -26.800499 -12.048157

v -31.388573 -33.849144 -12.561329

v -64.961716 33.829361 -9.755066

v -79.231331 25.671974 -11.760147

v -79.310997 21.973680 -11.085220

v -81.338684 18.628780 -11.185017

v -55.555862 32.896503 -9.805021

v -52.621506 29.476568 -7.824684

v -51.308067 25.995907 -7.860153

v -50.711975 22.715221 -10.262756

v -52.334747 17.672382 -11.714600

v -86.012390 -3.868313 -11.898647

v -83.584808 -8.120983 -11.939146

v -53.184296 8.328491 -12.263031

v -78.759506 -9.707611 -11.353981

v -52.435181 3.922943 -11.259674

v -77.500496 -11.629941 -9.765573

v -74.375557 -13.626884 -11.622841

v -47.871456 0.721954 -9.619232

v -45.810181 -4.162109 -9.735489

v -43.366547 -6.388428 -11.331879

v -68.694611 -24.481842 -8.680389

v -39.034058 -11.156860 -11.664978

v -33.066711 -22.386230 -9.097290

v -53.313087 -37.054127 -7.634209

v -48.665253 -37.130249 -6.400776

v -43.053631 -35.587502 -7.045511

v -31.347778 -31.845095 -10.199738

v -39.397003 -36.313904 -9.170364

v -70.447388 31.648724 -8.929688

v -74.871155 27.626404 -9.322449

v -76.712067 26.284279 -10.677444

v -61.476452 34.297943 -9.737640

v -76.959106 19.860989 -10.595476

v -73.739197 22.340462 -8.841019

v -78.641861 13.736853 -10.684792

v -75.510452 17.370167 -9.106216

v -82.273834 9.826693 -10.882769

v -83.250916 2.280447 -10.907820

v -78.841621 4.918267 -10.726275

v -76.137962 11.253565 -9.007130

v -79.127960 -1.600166 -10.733686

v -76.926041 0.954623 -9.104736

v -84.313690 -4.460601 -10.918936

v -54.499268 15.111969 -9.695435

v -55.659241 7.451538 -10.286255

v -78.849480 -8.442047 -10.833746

v -76.176285 -6.766188 -9.349129

v -76.490616 -10.005344 -9.044315

v -56.119461 3.068665 -9.720551

v -71.249252 -12.560928 -9.874035

v -72.553825 -10.545258 -8.850060

v -70.611389 -15.718333 -10.002930

v -43.147766 -11.028717 -9.516113

v -65.484772 -28.013107 -7.917236

v -62.013771 -30.368973 -6.171249

v -38.798340 -18.561401 -7.514282

v -31.535156 -28.006561 -9.477905

v -45.800076 -36.569130 -6.465771

v -34.937515 -35.344769 -9.682521

v -66.647919 31.899017 -7.013969

v -62.156120 33.285511 -7.526592

v -72.054413 26.158337 -8.361664

v -69.641144 26.685953 -6.896259

v -70.728943 21.035946 -6.956931

v -54.369125 29.899525 -7.059259

v -71.732742 13.825693 -8.725433

v -73.876663 6.956806 -8.590164

v -70.714890 8.836973 -6.981834

v -52.164558 20.523842 -7.555809

v -57.488876 16.737726 -6.912829

v -58.026527 13.330481 -6.958809

v -74.097198 -1.845881 -8.645226

v -57.526127 9.261969 -6.913347

v -71.776329 1.509517 -7.010603

v -58.084518 1.545185 -8.023483

v -70.859924 -7.528046 -7.233810

v -54.406204 -0.866760 -8.443886

v -48.870728 -0.477661 -8.876411

v -51.063347 -3.493294 -8.565792

v -69.874939 -12.691660 -7.535980

v -69.649902 -17.254547 -7.657471

v -46.044159 -8.147217 -8.814857

v -46.741943 -10.875549 -6.997314

v -41.924652 -14.170898 -8.397644

v -38.518448 -20.704563 -6.988197

v -34.518616 -23.468750 -7.456604

v -34.060799 -28.088795 -7.002258

v -35.067890 -31.907202 -7.083208

v -62.734707 31.800703 -6.834919

v -68.939949 13.930799 -6.915528

v -52.531052 23.701366 -6.842085

v -71.716400 -1.891768 -7.048684

v -63.475250 2.148939 -6.842147

v -59.617325 2.876665 -6.929421

v -66.826218 -3.593191 -6.889578

v -62.199699 -0.549665 -5.081095

v -58.354580 -0.456171 -5.135063

v -68.287621 -9.298054 -6.731071

v -66.725571 -10.070105 -5.414398

v -55.322861 -1.728195 -5.853958

v -53.343803 -8.232594 -5.024436

v -66.785004 -18.490089 -5.505432

v -51.039986 -10.813839 -5.100098

v -65.292358 -24.630066 -5.625153

v -43.876991 -15.786945 -5.040441

v -41.040024 -21.722517 -5.311234

v -57.877388 -33.668850 -6.102276

v -40.296894 -27.619406 -6.857657

v -43.344799 -27.964661 -5.054872

v -45.665611 -34.368786 -5.144400

v -64.582756 -6.260321 -5.046554

v -65.685745 -16.833904 -5.073805

v -52.703987 -34.932526 -5.090645

v -61.632759 -28.544998 -5.104736

f 1 2 3
f 4 3 2
f 5 3 4
f 5 6 7
f 5 8 3
f 5 9 8
f 7 9 5
f 10 9 7
f 8 11 12
f 9 11 8
f 10 13 9
f 12 11 14
f 14 15 12
f 9 16 11
f 9 13 16
f 14 11 17
f 17 11 18
f 19 18 11
f 13 20 16
f 19 11 16
f 18 21 17
f 20 19 16
f 18 22 21
f 23 21 22
f 19 24 18
f 25 1 26
f 26 1 27
f 25 28 2
f 1 25 2
f 2 28 4
f 27 1 29
f 30 29 1
f 31 27 29
f 6 5 32
f 5 4 32
f 3 30 1
f 6 33 7
f 30 3 8
f 30 8 12
f 30 12 29
f 12 15 29
f 10 7 34
f 15 35 29
f 34 36 10
f 35 15 14
f 35 14 37
f 13 10 36
f 37 14 17
f 36 38 13
f 21 37 17
f 21 23 37
f 20 13 38
f 20 38 39
f 22 18 40
f 41 23 22
f 19 20 39
f 19 39 42
f 40 18 24
f 42 24 19
f 43 44 45
f 43 46 47
f 48 44 43
f 47 48 43
f 49 44 50
f 49 51 52
f 47 53 48
f 50 44 48
f 49 50 51
f 50 54 51
f 53 55 48
f 50 48 55
f 54 56 51
f 54 50 57
f 55 58 50
f 58 57 50
f 58 59 57
f 60 56 54
f 54 57 60
f 61 62 63
f 62 64 63
f 59 60 57
f 60 59 65
f 65 66 60
f 61 63 67
f 25 62 61
f 26 64 62
f 67 25 61
f 25 26 62
f 68 26 31
f 31 26 27
f 67 69 28
f 25 67 28
f 4 28 69
f 69 70 4
f 31 71 68
f 70 32 4
f 32 70 33
f 33 6 32
f 71 31 29
f 7 33 34
f 35 71 29
f 35 72 71
f 35 37 72
f 72 37 73
f 73 37 23
f 73 23 41
f 41 22 40
f 74 42 39
f 24 75 40
f 24 42 74
f 74 76 24
f 75 24 76
f 77 78 79
f 78 80 81
f 77 82 83
f 84 83 82
f 45 77 83
f 80 78 85
f 85 86 80
f 86 87 80
f 78 77 85
f 45 85 77
f 88 83 84
f 86 85 52
f 89 87 86
f 88 45 83
f 90 45 88
f 91 92 89
f 45 44 85
f 52 89 86
f 85 44 49
f 46 45 90
f 45 46 43
f 49 52 85
f 89 52 93
f 91 89 94
f 91 95 96
f 97 47 46
f 89 93 94
f 93 52 51
f 47 97 98
f 94 95 91
f 53 47 98
f 95 99 100
f 64 95 94
f 93 56 94
f 53 101 55
f 99 95 64
f 51 56 93
f 55 102 58
f 58 102 59
f 63 64 94
f 94 56 103
f 63 94 103
f 64 68 99
f 104 99 105
f 56 60 66
f 59 106 65
f 66 69 56
f 103 56 69
f 103 67 63
f 68 105 99
f 66 65 107
f 64 26 68
f 69 67 103
f 107 70 66
f 69 66 70
f 105 68 71
f 108 33 70
f 109 33 108
f 71 110 105
f 33 109 34
f 110 71 72
f 36 34 111
f 111 38 36
f 38 111 112
f 113 38 112
f 73 41 114
f 41 115 114
f 39 38 113
f 115 41 40
f 74 39 113
f 116 74 113
f 40 117 115
f 117 40 75
f 76 74 116
f 75 76 118
f 118 117 75
f 119 120 121
f 122 123 124
f 124 125 122
f 78 119 122
f 126 124 127
f 125 79 122
f 79 78 122
f 120 119 81
f 79 125 77
f 78 81 119
f 128 125 124
f 124 126 128
f 128 126 129
f 120 81 87
f 120 130 131
f 125 128 77
f 128 82 77
f 82 128 129
f 87 130 120
f 80 87 81
f 132 133 130
f 130 87 92
f 132 130 92
f 92 134 132
f 92 87 89
f 91 134 92
f 135 132 134
f 135 136 137
f 90 97 46
f 135 134 96
f 96 136 135
f 91 96 134
f 136 138 137
f 96 100 136
f 138 136 100
f 100 96 95
f 100 99 138
f 98 101 53
f 138 99 139
f 55 101 140
f 102 55 140
f 139 99 104
f 102 106 59
f 106 141 65
f 141 107 65
f 105 142 104
f 107 108 70
f 142 105 110
f 110 143 142
f 109 144 34
f 72 143 110
f 111 34 144
f 72 114 143
f 112 111 145
f 114 72 73
f 145 113 112
f 115 146 114
f 146 115 147
f 115 117 147
f 148 147 117
f 118 76 116
f 118 149 117
f 149 148 117
f 122 119 150
f 151 150 119
f 152 127 123
f 123 122 150
f 119 121 151
f 153 121 154
f 155 127 152
f 127 124 123
f 156 127 155
f 154 121 120
f 131 157 154
f 131 154 120
f 131 158 157
f 159 158 160
f 126 127 156
f 129 126 156
f 131 133 158
f 129 161 82
f 133 160 158
f 133 131 130
f 133 162 160
f 137 160 162
f 137 163 160
f 137 164 163
f 133 132 135
f 162 133 135
f 165 164 166
f 137 162 135
f 166 164 137
f 167 165 166
f 168 90 88
f 167 166 169
f 137 138 166
f 166 138 169
f 90 168 97
f 169 170 167
f 171 97 168
f 170 169 172
f 173 169 138
f 172 169 174
f 175 97 171
f 97 175 98
f 173 174 169
f 98 175 176
f 98 176 101
f 173 138 139
f 173 177 174
f 101 176 140
f 174 178 172
f 177 178 174
f 179 102 140
f 173 139 104
f 177 180 178
f 179 181 102
f 106 102 181
f 173 182 177
f 106 181 141
f 173 104 183
f 183 104 142
f 173 183 182
f 184 107 141
f 107 184 108
f 183 185 182
f 185 186 182
f 108 184 109
f 185 183 187
f 144 109 184
f 143 183 142
f 183 143 188
f 188 143 114
f 145 111 144
f 187 189 185
f 187 183 188
f 114 190 188
f 187 188 190
f 146 190 114
f 190 191 187
f 192 191 190
f 116 113 193
f 146 147 190
f 147 192 190
f 148 194 147
f 149 118 195
f 195 196 149
f 148 149 196
f 197 152 123
f 123 150 198
f 151 198 150
f 199 200 155
f 155 152 199
f 151 121 153
f 201 155 200
f 154 202 153
f 202 154 157
f 157 203 202
f 157 158 203
f 158 204 203
f 156 155 201
f 201 205 156
f 159 204 158
f 160 206 159
f 129 156 205
f 206 160 207
f 207 160 163
f 161 129 205
f 161 208 82
f 207 163 164
f 84 82 208
f 207 164 209
f 208 210 84
f 210 211 84
f 164 165 209
f 88 84 211
f 165 167 212
f 212 209 165
f 168 88 211
f 167 170 212
f 170 213 212
f 170 172 213
f 214 213 172
f 176 175 215
f 178 214 172
f 140 176 215
f 216 179 140
f 140 215 216
f 179 216 181
f 181 216 217
f 217 218 181
f 181 218 141
f 180 177 186
f 177 182 186
f 186 219 180
f 218 184 141
f 186 185 189
f 219 186 189
f 189 220 219
f 221 219 220
f 184 222 144
f 145 144 223
f 220 189 224
f 189 187 191
f 191 224 189
f 193 113 145
f 224 191 225
f 192 225 191
f 192 226 225
f 194 192 147
f 116 195 118
f 194 148 227
f 148 196 227
f 228 229 151
f 199 152 230
f 152 197 230
f 199 231 200
f 197 123 198
f 228 151 153
f 232 200 231
f 153 202 228
f 233 228 202
f 234 233 203
f 202 203 233
f 235 234 203
f 236 237 238
f 200 232 201
f 237 235 204
f 159 206 237
f 204 159 237
f 238 237 206
f 203 204 235
f 201 239 205
f 240 241 238
f 206 207 238
f 240 238 207
f 240 209 242
f 207 209 240
f 243 242 209
f 209 244 243
f 209 212 244
f 211 245 168
f 246 168 245
f 212 213 244
f 168 246 171
f 246 247 171
f 248 244 213
f 171 247 175
f 249 175 247
f 213 214 248
f 215 175 249
f 178 250 214
f 178 251 250
f 251 178 180
f 180 252 251
f 253 180 219
f 253 219 221
f 184 254 222
f 253 221 255
f 222 223 144
f 221 220 224
f 224 256 221
f 255 221 256
f 256 224 257
f 257 224 225
f 225 226 258
f 195 116 193
f 226 192 259
f 259 258 226
f 192 194 260
f 260 259 192
f 227 260 194
f 195 261 196
f 229 262 198
f 230 197 262
f 263 229 228
f 198 262 197
f 233 234 263
f 264 263 234
f 265 236 266
f 198 151 229
f 233 263 228
f 265 264 235
f 235 264 234
f 235 237 265
f 236 267 266
f 236 265 237
f 267 236 241
f 238 241 236
f 239 201 232
f 268 269 267
f 239 270 205
f 267 241 242
f 242 241 240
f 242 268 267
f 161 205 270
f 208 161 270
f 271 272 268
f 268 242 243
f 243 244 268
f 244 271 268
f 245 211 210
f 210 273 245
f 274 271 244
f 274 275 276
f 274 244 248
f 248 277 274
f 275 274 278
f 278 274 277
f 249 279 215
f 214 250 248
f 277 248 250
f 279 216 215
f 277 280 278
f 277 250 251
f 251 280 277
f 280 251 252
f 281 252 180
f 180 253 281
f 281 253 255
f 255 282 281
f 283 282 255
f 256 283 255
f 223 284 145
f 285 145 284
f 145 285 193
f 283 256 257
f 285 286 193
f 286 287 193
f 257 225 258
f 258 288 257
f 287 195 193
f 287 289 195
f 258 259 290
f 288 258 290
f 289 261 195
f 227 291 260
f 259 260 291
f 290 259 291
f 292 291 227
f 227 196 292
f 261 292 196
f 199 293 294
f 230 262 295
f 293 199 230
f 296 263 264
f 264 297 296
f 294 298 199
f 297 264 265
f 297 265 266
f 231 199 298
f 299 231 298
f 266 300 301
f 266 267 300
f 232 231 299
f 299 302 232
f 267 269 300
f 303 304 269
f 239 232 302
f 269 272 303
f 272 269 268
f 303 305 306
f 305 303 272
f 305 307 308
f 271 276 272
f 305 272 276
f 276 307 305
f 276 271 274
f 246 245 309
f 276 275 307
f 307 275 310
f 246 311 247
f 249 247 311
f 278 312 275
f 313 312 278
f 278 314 313
f 314 278 280
f 314 280 252
f 252 315 314
f 217 316 218
f 315 252 281
f 317 218 316
f 281 318 315
f 317 319 218
f 319 184 218
f 254 184 319
f 281 320 318
f 320 281 282
f 282 321 320
f 321 282 283
f 284 223 322
f 321 283 323
f 322 324 284
f 324 285 284
f 323 283 257
f 285 324 325
f 285 325 286
f 286 325 326
f 287 286 326
f 257 288 327
f 328 257 327
f 287 326 329
f 287 329 289
f 327 288 290
f 292 261 330
f 292 330 331
f 331 291 292
f 293 332 294
f 293 333 332
f 333 293 230
f 230 295 333
f 262 334 295
f 334 262 229
f 229 263 334
f 297 266 301
f 298 294 335
f 336 263 296
f 296 297 337
f 335 338 298
f 299 298 338
f 339 300 269
f 338 302 299
f 340 302 338
f 339 269 304
f 304 341 339
f 342 239 302
f 342 270 239
f 306 304 303
f 341 304 306
f 343 341 306
f 208 270 344
f 308 306 305
f 210 208 344
f 344 345 210
f 345 273 210
f 307 310 308
f 346 308 310
f 273 309 245
f 310 347 346
f 348 346 347
f 347 310 312
f 309 311 246
f 312 349 347
f 310 275 312
f 311 279 249
f 349 312 350
f 216 279 351
f 314 312 313
f 217 216 351
f 351 352 217
f 314 315 312
f 350 312 315
f 350 353 349
f 352 316 217
f 350 354 353
f 318 350 315
f 318 354 350
f 318 355 354
f 355 318 320
f 222 254 356
f 222 322 223
f 323 257 357
f 357 257 328
f 328 327 358
f 329 330 261
f 261 289 329
f 290 358 327
f 290 291 359
f 331 360 291
f 291 360 359
f 361 294 332
f 362 332 333
f 333 295 362
f 363 362 295
f 334 363 295
f 335 294 361
f 334 263 336
f 297 301 337
f 364 336 296
f 364 296 337
f 335 365 338
f 301 300 366
f 367 338 365
f 368 366 300
f 339 368 300
f 369 368 339
f 340 338 367
f 369 339 341
f 341 370 369
f 341 371 370
f 340 372 302
f 341 343 371
f 302 372 342
f 343 373 371
f 342 374 270
f 374 375 270
f 270 375 344
f 376 373 343
f 343 306 308
f 344 375 377
f 308 378 343
f 376 343 378
f 379 376 378
f 346 378 308
f 344 377 380
f 380 345 344
f 345 380 381
f 382 379 378
f 381 273 345
f 273 381 383
f 273 383 384
f 273 384 309
f 346 348 378
f 382 378 348
f 309 384 385
f 348 347 386
f 311 309 385
f 347 387 386
f 385 388 311
f 311 388 389
f 389 390 311
f 311 390 279
f 349 391 347
f 387 347 391
f 390 351 279
f 390 392 351
f 391 349 393
f 353 393 349
f 394 351 392
f 394 352 351
f 352 394 395
f 395 396 352
f 352 396 316
f 393 353 354
f 316 396 317
f 393 354 397
f 398 317 396
f 354 355 397
f 398 319 317
f 319 398 399
f 319 399 400
f 254 319 400
f 320 401 355
f 356 254 400
f 401 320 321
f 356 402 222
f 321 403 401
f 402 322 222
f 322 402 404
f 404 324 322
f 403 321 323
f 403 323 405
f 404 406 324
f 324 406 325
f 323 407 405
f 357 407 323
f 408 325 406
f 326 325 408
f 357 328 409
f 410 326 408
f 326 410 329
f 410 411 329
f 409 328 358
f 358 412 409
f 411 413 329
f 330 329 413
f 331 330 413
f 414 331 413
f 414 360 331
f 358 415 412
f 290 359 415
f 358 290 415
f 361 416 417
f 361 332 416
f 334 418 363
f 337 419 420
f 419 337 301
f 417 335 361
f 418 334 336
f 336 421 418
f 364 337 422
f 301 366 419
f 335 423 365
f 424 368 369
f 367 365 425
f 426 424 369
f 426 369 370
f 340 367 427
f 340 427 428
f 371 429 370
f 340 428 372
f 371 373 429
f 372 428 430
f 342 372 430
f 374 342 431
f 373 376 432
f 375 374 433
f 432 376 379
f 434 432 379
f 377 375 433
f 435 377 433
f 434 379 382
f 436 377 435
f 382 437 434
f 380 377 436
f 438 380 436
f 381 380 438
f 382 439 437
f 382 348 439
f 384 383 440
f 348 386 439
f 441 439 386
f 442 385 384
f 386 387 441
f 442 388 385
f 443 388 442
f 444 388 443
f 389 388 444
f 445 389 444
f 390 389 445
f 391 446 387
f 391 447 446
f 447 391 393
f 395 394 448
f 393 449 447
f 396 395 450
f 449 393 397
f 397 451 449
f 397 355 451
f 452 451 355
f 398 453 399
f 454 400 399
f 401 452 355
f 401 455 452
f 400 456 356
f 402 356 456
f 455 401 403
f 403 457 455
f 402 458 404
f 405 459 403
f 404 458 460
f 404 460 406
f 461 406 460
f 461 408 406
f 412 462 409
f 412 415 462
f 463 413 411
f 332 464 416
f 465 337 420
f 464 332 362
f 422 337 465
f 362 363 464
f 368 466 366
f 423 335 417
f 364 421 336
f 368 424 466
f 365 423 425
f 426 370 467
f 367 425 427
f 468 467 370
f 429 468 370
f 373 432 429
f 469 429 432
f 431 342 430
f 470 471 469
f 432 470 469
f 433 374 431
f 432 434 470
f 471 470 472
f 434 473 470
f 472 470 473
f 473 434 437
f 438 474 381
f 439 475 437
f 383 381 474
f 473 437 475
f 474 440 383
f 476 473 475
f 440 442 384
f 475 439 441
f 441 387 477
f 387 446 477
f 392 390 445
f 478 446 447
f 392 448 394
f 478 447 479
f 450 395 448
f 447 449 479
f 450 480 396
f 479 449 451
f 451 481 479
f 398 396 480
f 480 453 398
f 453 454 399
f 451 452 481
f 454 482 400
f 482 456 400
f 481 452 455
f 456 483 402
f 458 402 483
f 483 484 458
f 460 458 484
f 457 403 459
f 460 484 485
f 459 405 407
f 461 460 485
f 408 461 485
f 486 408 485
f 459 407 357
f 486 487 408
f 488 459 357
f 357 409 488
f 408 487 410
f 409 462 488
f 411 410 463
f 489 462 359
f 415 359 462
f 360 414 489
f 359 360 489
f 417 416 490
f 491 465 420
f 464 490 416
f 466 419 366
f 364 422 421
f 466 492 493
f 494 423 417
f 495 464 363
f 495 363 418
f 418 496 495
f 424 492 466
f 424 426 492
f 423 494 425
f 494 497 425
f 467 492 426
f 467 498 492
f 497 427 425
f 468 498 467
f 427 497 499
f 428 427 499
f 468 429 469
f 428 499 500
f 501 468 469
f 430 428 500
f 501 469 471
f 471 472 501
f 502 501 472
f 431 503 433
f 433 503 435
f 503 436 435
f 476 502 472
f 476 472 473
f 475 504 476
f 475 477 504
f 477 475 441
f 446 478 505
f 448 392 445
f 482 454 453
f 506 456 482
f 455 507 481
f 508 509 510
f 456 506 483
f 483 506 510
f 510 509 483
f 509 484 483
f 509 511 484
f 484 511 512
f 512 485 484
f 513 459 488
f 488 462 514
f 410 487 463
f 414 413 463
f 463 489 414
f 466 515 419
f 420 516 491
f 515 466 493
f 422 491 517
f 491 422 465
f 490 518 417
f 490 519 518
f 490 464 519
f 421 422 517
f 520 493 492
f 494 417 518
f 521 418 421
f 418 521 496
f 522 495 496
f 492 498 520
f 497 494 523
f 468 524 498
f 524 468 501
f 524 501 525
f 500 526 430
f 525 501 502
f 526 527 430
f 431 430 527
f 528 525 502
f 527 503 431
f 503 529 436
f 528 502 476
f 438 436 529
f 529 530 438
f 528 476 531
f 531 476 504
f 530 532 438
f 474 438 532
f 440 474 532
f 504 533 531
f 442 440 532
f 532 534 442
f 504 477 533
f 443 442 534
f 534 535 443
f 444 443 535
f 446 505 477
f 445 536 448
f 478 537 505
f 450 448 536
f 537 478 479
f 450 538 480
f 539 537 479
f 480 540 453
f 479 481 541
f 541 539 479
f 481 507 541
f 506 482 542
f 506 542 510
f 510 543 508
f 544 507 455
f 511 509 545
f 544 455 457
f 545 512 511
f 545 546 512
f 547 485 512
f 544 457 459
f 548 544 459
f 459 513 548
f 549 513 488
f 514 549 488
f 463 487 550
f 551 462 489
f 463 552 489
f 419 553 554
f 419 515 553
f 420 554 516
f 554 420 419
f 555 493 520
f 491 516 556
f 517 491 557
f 464 558 519
f 559 421 517
f 560 521 421
f 558 464 495
f 495 522 558
f 521 560 496
f 520 498 561
f 494 518 523
f 498 562 561
f 498 524 562
f 497 523 563
f 499 497 563
f 499 563 500
f 564 524 525
f 500 563 565
f 500 565 526
f 564 525 528
f 566 564 528
f 503 527 567
f 503 567 568
f 503 568 529
f 566 528 531
f 532 569 534
f 533 477 570
f 571 535 534
f 570 477 505
f 445 444 535
f 572 445 535
f 505 573 570
f 445 572 536
f 537 573 505
f 574 450 536
f 537 575 573
f 450 574 538
f 539 575 537
f 538 540 480
f 540 576 453
f 577 539 541
f 482 453 576
f 576 542 482
f 510 542 543
f 507 578 541
f 579 541 578
f 508 543 545
f 509 508 545
f 544 580 507
f 580 578 507
f 579 578 581
f 582 578 580
f 547 512 546
f 582 581 578
f 582 580 583
f 548 584 544
f 580 544 584
f 583 580 584
f 582 585 581
f 485 547 586
f 586 486 485
f 585 582 587
f 582 583 587
f 513 584 548
f 584 513 588
f 587 583 589
f 487 486 590
f 549 588 513
f 588 583 584
f 487 590 550
f 583 588 589
f 549 591 588
f 591 589 588
f 514 462 551
f 514 551 549
f 551 489 552
f 592 553 515
f 515 493 592
f 555 592 493
f 561 555 520
f 593 555 561
f 561 562 593
f 557 491 556
f 594 519 558
f 559 560 421
f 595 518 519
f 595 519 594
f 558 596 594
f 596 558 522
f 523 518 595
f 597 594 596
f 598 522 496
f 594 597 595
f 596 522 597
f 522 598 597
f 595 563 523
f 595 599 563
f 595 597 599
f 598 600 597
f 565 563 599
f 597 601 599
f 565 599 601
f 597 602 601
f 526 565 601
f 601 527 526
f 601 602 527
f 603 602 597
f 604 564 566
f 605 604 566
f 567 527 602
f 568 606 529
f 566 531 605
f 607 529 606
f 530 529 607
f 607 608 532
f 532 530 607
f 608 609 532
f 532 609 569
f 534 569 610
f 534 610 571
f 611 612 613
f 614 535 571
f 614 572 535
f 614 613 615
f 614 615 572
f 616 613 612
f 615 536 572
f 617 570 573
f 615 613 616
f 612 618 616
f 573 619 617
f 615 574 536
f 620 615 616
f 573 621 619
f 615 538 574
f 538 615 620
f 575 621 573
f 622 618 623
f 624 620 616
f 575 625 621
f 538 620 540
f 616 618 622
f 620 624 540
f 577 575 539
f 575 577 626
f 626 625 575
f 540 624 576
f 626 627 625
f 628 629 630
f 627 626 631
f 624 542 576
f 542 624 616
f 542 616 543
f 543 616 622
f 632 622 629
f 622 632 543
f 626 577 631
f 577 541 579
f 628 632 629
f 633 628 630
f 545 543 632
f 631 577 579
f 579 634 631
f 632 628 635
f 632 546 545
f 634 579 636
f 546 632 635
f 628 637 635
f 637 628 633
f 633 638 637
f 581 636 579
f 635 547 546
f 635 639 547
f 640 635 637
f 637 638 640
f 635 640 639
f 641 639 640
f 581 642 636
f 639 641 547
f 642 581 585
f 586 547 641
f 585 587 643
f 643 642 585
f 586 590 486
f 643 587 589
f 644 643 589
f 551 645 646
f 646 549 551
f 647 644 589
f 551 648 645
f 649 591 549
f 591 647 589
f 552 648 551
f 550 650 463
f 552 463 651
f 554 652 516
f 593 562 653
f 653 562 654
f 517 655 559
f 517 557 655
f 656 654 562
f 657 560 559
f 657 559 655
f 562 524 656
f 598 496 560
f 560 657 598
f 598 657 658
f 598 658 600
f 524 564 656
f 657 659 660
f 657 660 661
f 662 660 659
f 658 657 661
f 660 663 661
f 663 660 662
f 603 597 600
f 663 662 664
f 602 603 567
f 603 600 665
f 666 663 664
f 666 664 667
f 603 665 668
f 663 611 661
f 611 663 666
f 603 568 567
f 568 603 668
f 658 669 600
f 661 611 658
f 667 670 666
f 606 568 668
f 671 668 665
f 670 672 666
f 668 671 606
f 665 600 669
f 666 672 611
f 673 605 531
f 669 658 611
f 671 607 606
f 531 674 673
f 608 607 671
f 665 675 671
f 671 675 608
f 676 611 672
f 674 531 533
f 609 608 675
f 676 672 677
f 569 609 675
f 674 533 570
f 665 610 675
f 676 678 611
f 570 679 674
f 675 610 569
f 665 680 610
f 680 665 669
f 610 680 571
f 676 681 678
f 669 611 613
f 612 611 678
f 679 570 617
f 613 614 669
f 680 614 571
f 614 680 669
f 617 682 679
f 612 678 618
f 618 678 681
f 618 681 623
f 623 681 683
f 682 617 619
f 683 684 623
f 684 685 623
f 685 622 623
f 629 622 685
f 629 685 686
f 625 627 687
f 688 630 629
f 627 631 687
f 689 690 630
f 633 630 690
f 631 634 691
f 690 692 633
f 638 633 692
f 634 636 691
f 642 693 636
f 694 695 586
f 590 586 695
f 695 696 590
f 697 698 645
f 646 645 698
f 550 590 696
f 645 648 697
f 698 649 646
f 549 646 649
f 648 699 697
f 649 700 591
f 648 552 699
f 647 591 700
f 650 651 463
f 552 651 699
f 701 592 555
f 702 554 553
f 702 553 592
f 555 703 701
f 554 702 652
f 555 593 703
f 704 556 516
f 516 652 704
f 705 556 704
f 556 705 557
f 706 653 654
f 557 705 655
f 654 656 706
f 655 659 657
f 707 655 705
f 655 707 659
f 564 604 656
f 659 707 662
f 662 708 664
f 604 605 709
f 667 664 708
f 673 709 605
f 670 710 711
f 673 712 713
f 674 712 673
f 672 670 711
f 711 677 672
f 677 711 714
f 715 677 714
f 715 714 716
f 715 716 717
f 715 718 719
f 677 683 676
f 718 715 717
f 677 715 719
f 681 676 683
f 677 719 683
f 719 684 683
f 720 682 619
f 684 719 721
f 721 685 684
f 721 686 685
f 686 721 722
f 625 723 621
f 629 686 688
f 687 723 625
f 630 688 689
f 687 631 691
f 692 724 638
f 636 693 691
f 724 640 638
f 725 640 724
f 641 640 725
f 725 586 641
f 642 726 693
f 643 726 642
f 726 643 644
f 698 697 727
f 727 649 698
f 647 700 644
f 697 728 727
f 699 728 697
f 696 650 550
f 651 728 699
f 592 729 702
f 729 592 701
f 703 593 653
f 653 730 703
f 731 652 732
f 732 652 702
f 731 704 652
f 733 704 731
f 704 733 705
f 705 733 707
f 733 734 707
f 662 707 734
f 708 662 734
f 667 708 710
f 670 667 710
f 710 735 711
f 711 735 714
f 735 736 714
f 737 712 674
f 714 736 716
f 716 736 738
f 739 716 738
f 739 717 716
f 737 674 740
f 740 674 679
f 719 718 741
f 740 679 682
f 719 722 721
f 722 719 741
f 720 740 682
f 741 742 722
f 743 742 744
f 743 744 745
f 742 746 722
f 742 743 746
f 747 743 745
f 619 748 720
f 746 743 747
f 748 619 621
f 747 749 746
f 688 686 722
f 750 722 746
f 746 749 750
f 722 750 688
f 687 751 723
f 750 752 688
f 688 752 689
f 687 753 751
f 690 689 752
f 754 690 752
f 687 755 753
f 691 755 687
f 692 690 754
f 755 691 756
f 757 758 692
f 692 758 724
f 693 756 691
f 759 724 758
f 756 693 760
f 693 726 760
f 586 725 761
f 586 761 694
f 762 696 695
f 644 763 764
f 763 644 700
f 765 763 649
f 700 649 763
f 649 727 766
f 766 765 649
f 767 766 727
f 696 762 650
f 762 768 650
f 767 727 728
f 650 768 769
f 769 651 650
f 769 767 651
f 728 651 767
f 770 702 729
f 771 702 770
f 702 771 732
f 653 772 730
f 772 653 706
f 731 773 733
f 731 732 773
f 656 774 706
f 775 774 656
f 604 775 656
f 733 776 734
f 776 733 773
f 777 773 778
f 779 773 777
f 779 777 780
f 775 604 709
f 773 779 776
f 734 776 708
f 710 708 776
f 709 673 781
f 736 776 779
f 779 782 736
f 673 713 781
f 710 776 735
f 782 783 738
f 735 776 736
f 736 782 738
f 713 712 784
f 712 737 784
f 785 786 783
f 783 786 738
f 739 738 786
f 786 787 739
f 788 739 787
f 789 717 739
f 740 790 737
f 789 739 788
f 718 717 789
f 740 791 790
f 789 792 718
f 741 718 792
f 792 793 741
f 791 740 720
f 742 741 793
f 744 742 793
f 793 794 744
f 745 744 794
f 794 795 745
f 791 720 796
f 748 796 720
f 745 797 747
f 797 749 747
f 749 797 798
f 621 723 748
f 749 798 799
f 799 750 749
f 800 752 750
f 800 750 799
f 800 754 752
f 800 801 754
f 802 753 755
f 754 801 692
f 692 801 803
f 757 692 803
f 803 804 757
f 804 805 758
f 758 757 804
f 724 759 725
f 758 806 759
f 758 805 806
f 807 760 726
f 694 761 808
f 695 694 808
f 808 762 695
f 809 808 810
f 762 808 809
f 809 768 762
f 811 766 812
f 766 811 765
f 767 812 766
f 809 769 768
f 769 809 812
f 812 767 769
f 703 813 701
f 814 771 770
f 815 732 771
f 772 816 730
f 771 814 815
f 816 772 706
f 815 817 732
f 706 818 816
f 774 818 706
f 817 778 732
f 732 778 773
f 817 777 778
f 819 777 817
f 780 777 819
f 779 780 782
f 782 780 820
f 782 820 783
f 783 820 821
f 784 781 713
f 821 785 783
f 784 737 822
f 786 785 823
f 823 787 786
f 822 737 790
f 790 824 822
f 787 825 788
f 790 826 824
f 827 789 788
f 788 794 827
f 794 788 825
f 792 789 827
f 791 826 790
f 827 793 792
f 793 827 794
f 791 796 826
f 748 828 796
f 829 745 795
f 829 797 745
f 830 797 829
f 748 831 828
f 830 798 797
f 831 748 723
f 751 831 723
f 830 832 798
f 833 798 832
f 831 751 834
f 798 833 799
f 799 833 800
f 834 751 753
f 834 753 802
f 800 833 803
f 803 833 835
f 801 800 803
f 836 755 756
f 804 803 835
f 804 837 805
f 805 838 806
f 805 837 838
f 761 725 759
f 760 807 756
f 839 761 759
f 810 759 806
f 806 840 810
f 808 761 839
f 759 810 839
f 839 810 808
f 644 764 726
f 810 841 809
f 841 811 812
f 765 811 842
f 812 809 841
f 842 843 765
f 763 765 843
f 844 729 701
f 701 813 844
f 729 844 770
f 730 845 703
f 816 845 730
f 845 816 846
f 814 847 815
f 847 817 815
f 816 848 846
f 816 818 848
f 847 849 817
f 849 850 817
f 819 817 850
f 850 851 819
f 819 851 780
f 775 709 852
f 780 851 820
f 709 853 852
f 709 781 853
f 784 854 781
f 785 821 855
f 785 855 823
f 854 784 822
f 823 855 856
f 856 787 823
f 825 787 856
f 795 794 825
f 796 857 826
f 857 796 828
f 858 829 795
f 858 830 829
f 831 859 828
f 830 858 860
f 832 830 860
f 832 860 861
f 861 833 832
f 835 833 861
f 862 834 802
f 861 863 835
f 862 802 755
f 835 837 804
f 837 835 864
f 865 837 864
f 838 837 865
f 865 866 838
f 840 806 838
f 841 838 866
f 807 726 867
f 841 840 838
f 840 841 810
f 811 841 866
f 726 764 868
f 867 726 868
f 843 869 763
f 869 764 763
f 703 870 813
f 871 770 844
f 703 845 870
f 770 871 814
f 872 814 871
f 814 872 847
f 818 774 873
f 775 873 774
f 851 850 874
f 820 851 874
f 820 874 875
f 821 820 875
f 853 781 876
f 875 877 821
f 855 821 877
f 876 781 854
f 877 878 855
f 854 824 876
f 856 855 878
f 824 854 822
f 856 879 825
f 824 826 880
f 881 880 826
f 825 879 882
f 857 881 826
f 795 825 882
f 882 883 795
f 884 885 857
f 795 883 858
f 857 828 884
f 859 884 828
f 859 831 834
f 834 862 859
f 863 861 860
f 864 835 863
f 755 886 862
f 755 836 886
f 863 887 864
f 864 887 865
f 836 756 807
f 887 888 865
f 866 865 888
f 888 811 866
f 888 842 811
f 842 889 843
f 889 869 843
f 764 869 868
f 813 870 844
f 871 844 890
f 845 891 870
f 845 846 891
f 846 892 891
f 846 893 892
f 848 893 846
f 848 818 893
f 849 847 894
f 894 847 872
f 818 873 893
f 895 849 894
f 850 849 895
f 874 850 895
f 874 896 897
f 897 875 874
f 875 897 898
f 853 899 852
f 853 876 899
f 877 875 898
f 877 898 878
f 876 900 899
f 900 876 824
f 878 901 856
f 880 902 900
f 900 824 880
f 879 856 901
f 901 903 879
f 880 904 902
f 880 905 904
f 905 880 881
f 905 881 857
f 857 885 905
f 906 907 882
f 883 882 907
f 907 908 883
f 858 883 908
f 909 884 859
f 860 858 908
f 908 910 860
f 863 860 910
f 863 911 887
f 836 807 912
f 913 807 867
f 914 867 868
f 842 888 915
f 889 842 915
f 916 868 869
f 917 844 870
f 870 918 917
f 870 919 918
f 870 891 919
f 920 871 890
f 892 919 891
f 920 872 871
f 872 920 894
f 892 921 919
f 919 921 922
f 921 892 893
f 893 923 921
f 893 873 923
f 921 923 924
f 925 873 775
f 873 925 923
f 852 925 775
f 895 896 874
f 926 925 852
f 923 927 928
f 927 923 925
f 927 925 926
f 899 926 852
f 929 927 926
f 930 927 929
f 899 931 926
f 932 878 898
f 926 931 929
f 899 900 931
f 932 933 878
f 934 929 931
f 934 931 900
f 933 901 878
f 929 935 930
f 935 929 934
f 934 900 902
f 903 901 933
f 934 936 935
f 934 902 936
f 933 937 903
f 904 936 902
f 903 906 879
f 903 937 906
f 938 939 905
f 882 879 906
f 940 938 905
f 905 885 940
f 884 940 885
f 907 941 908
f 908 941 910
f 859 942 909
f 942 859 862
f 862 886 943
f 911 910 944
f 910 911 863
f 836 912 886
f 888 887 911
f 888 911 945
f 913 912 807
f 915 888 945
f 867 946 913
f 946 867 914
f 915 947 889
f 869 889 947
f 916 869 947
f 890 844 948
f 844 917 948
f 949 890 948
f 890 949 920
f 918 950 917
f 917 950 951
f 919 922 918
f 918 922 950
f 920 949 894
f 952 950 922
f 953 894 949
f 922 921 924
f 895 894 953
f 954 922 924
f 923 928 924
f 952 922 954
f 924 928 954
f 954 955 956
f 897 896 957
f 955 954 928
f 928 927 930
f 898 897 957
f 955 928 930
f 957 958 932
f 957 932 898
f 958 959 932
f 960 955 930
f 932 959 961
f 955 960 962
f 933 932 961
f 933 961 963
f 935 960 930
f 963 937 933
f 964 960 939
f 939 960 935
f 935 936 939
f 965 937 963
f 936 904 939
f 904 905 939
f 937 966 906
f 966 937 965
f 965 967 966
f 938 968 939
f 938 940 968
f 940 969 968
f 966 967 970
f 966 907 906
f 966 970 907
f 884 969 940
f 970 941 907
f 970 971 941
f 909 969 884
f 972 941 971
f 941 972 910
f 862 943 942
f 944 910 972
f 944 973 911
f 911 973 974
f 974 975 911
f 945 911 975
f 945 975 915
f 976 915 975
f 914 868 916
f 947 976 916
f 947 915 976
f 949 948 977
f 948 917 951
f 948 951 977
f 952 951 950
f 949 977 953
f 978 951 952
f 977 951 978
f 979 953 977
f 896 895 953
f 953 979 896
f 954 978 952
f 958 977 978
f 958 979 977
f 896 979 957
f 956 978 954
f 959 958 978
f 957 979 958
f 978 956 961
f 955 962 956
f 956 962 961
f 978 961 959
f 960 980 962
f 981 982 961
f 981 961 962
f 983 962 980
f 961 982 963
f 962 983 981
f 981 984 982
f 960 964 980
f 963 982 985
f 981 983 984
f 986 983 980
f 986 980 964
f 985 965 963
f 987 983 986
f 939 968 964
f 965 985 988
f 964 968 986
f 967 965 988
f 986 968 987
f 988 989 967
f 987 968 990
f 990 968 969
f 970 967 989
f 989 971 970
f 989 991 971
f 969 992 990
f 969 909 992
f 909 942 992
f 971 993 972
f 942 943 992
f 944 972 993
f 993 994 944
f 973 944 994
f 886 995 943
f 994 996 973
f 973 975 974
f 975 973 996
f 886 912 995
f 914 996 997
f 976 975 996
f 976 996 914
f 946 914 998
f 916 976 914
f 985 982 984
f 999 984 983
f 987 999 983
f 984 989 985
f 999 989 984
f 985 989 988
f 1000 999 987
f 999 1000 989
f 987 990 1000
f 991 989 1000
f 990 992 1000
f 1001 991 1000
f 991 993 971
f 993 991 1001
f 1002 1000 992
f 1000 1002 1001
f 992 943 1002
f 993 997 994
f 1001 997 993
f 943 995 1002
f 1002 995 1001
f 996 994 997
f 912 1001 995
f 1001 998 997
f 913 1001 912
f 914 997 998
f 1001 913 998
f 946 998 913
