v 115.256874 77.138947 -33.898399

v 117.012955 76.746849 -33.968616

v 115.410446 75.036804 -34.619621

v 118.220856 75.418610 -34.110825

v 115.738724 71.541756 -34.834034

v 120.812241 68.048065 -34.891617

v 122.962799 67.884735 -33.868217

v 115.252518 68.530914 -34.609276

v 115.069664 64.574280 -34.907223

v 113.756653 65.427032 -34.023376

v 121.673882 61.091789 -34.908272

v 113.861557 61.313377 -34.895142

v 112.560165 62.563942 -33.974663

v 125.130585 65.329269 -34.034348

v 112.096878 59.623878 -33.995369

v 116.902267 60.168732 -34.329609

v 112.927719 58.118423 -33.115402

v 125.302979 62.336094 -34.867104

v 122.778992 58.330151 -33.079025

v 127.274719 62.832119 -33.924484

v 126.739136 60.645355 -33.412659

v 114.339897 76.838913 -32.131592

v 116.079239 77.056473 -30.372955

v 113.093414 70.770500 -31.508713

v 118.014717 74.711929 -30.113808

v 120.106537 72.061691 -30.118286

v 112.319679 66.095039 -31.249355

v 112.625084 63.654099 -32.079647

v 124.247345 66.215965 -30.370789

v 111.297852 59.393288 -31.915741

v 110.064369 56.988876 -31.269068

v 111.792847 54.132202 -32.993221

v 127.367142 62.483158 -30.166809

v 127.917892 61.986835 -32.121506

v 123.202385 52.507813 -33.000786

v 116.133850 52.562218 -32.996265

v 111.253250 50.317993 -32.995499

v 107.860260 49.189148 -32.597763

v 127.728058 59.248428 -32.952148

v 114.494324 48.457458 -31.291000

v 131.292633 56.970390 -32.034042

v 117.058701 50.536209 -31.562286

v 126.812149 53.747028 -32.935234

v 130.627869 53.796150 -32.912003

v 131.675415 54.718384 -32.557617

v 125.519112 50.697952 -31.405533

v 133.408325 54.215698 -31.165649

v 131.113983 51.647385 -31.466217

v 107.075912 83.249985 -29.819733

v 108.585388 84.560059 -29.665466

v 108.948166 82.679352 -30.955048

v 111.530304 82.647186 -30.231323

v 106.635719 79.050537 -30.429657

v 112.855728 77.292542 -31.130463

v 107.801804 76.944016 -31.034624

v 114.124901 78.261902 -30.677368

v 106.119034 75.011818 -30.104767

v 107.248474 73.273163 -31.074102

v 105.302864 71.017700 -30.224106

v 111.542191 71.891388 -31.110023

v 106.302078 69.196548 -31.045662

v 105.015442 69.502182 -30.096334

v 104.737427 67.600433 -30.329807

v 105.270370 63.420418 -31.113386

v 104.086624 64.498787 -30.219894

v 103.430374 61.430706 -30.229946

v 110.428703 62.310986 -31.168045

v 104.434303 59.589878 -31.125822

v 102.530373 58.679371 -30.184204

v 102.941818 55.642380 -31.144981

v 101.481697 55.769749 -30.245483

v 108.051811 53.256020 -31.223213

v 100.159149 51.457054 -30.230850

v 101.618134 51.132980 -31.129559

v 104.580902 48.526333 -31.294754

v 99.279022 47.220612 -30.228004

v 100.851433 47.289379 -31.147747

v 106.035049 47.827122 -32.120583

v 98.602142 44.954868 -30.535484

v 103.429108 43.424240 -31.128326

v 98.979187 42.814716 -31.126911

v 106.132561 46.586792 -31.410650

v 96.883850 41.629284 -30.254940

v 98.607040 40.724689 -29.984661

v 130.436279 58.130920 -30.504028

v 108.082924 43.871521 -31.028664

v 108.736679 42.762054 -30.173027

v 119.104889 48.559082 -30.637062

v 115.752609 46.676598 -30.192371

v 124.013641 48.585663 -30.891006

v 121.802162 47.655254 -30.168074

v 128.887650 48.843082 -30.544325

v 125.800377 47.717617 -30.113602

v 134.867493 50.172668 -30.583450

v 137.223633 51.841965 -29.363281

v 108.412804 86.900696 -28.314331

v 106.154861 87.109100 -28.100662

v 105.763504 84.256889 -28.246094

v 105.858566 82.231094 -27.956566

v 110.871277 86.812584 -26.398651

v 112.466919 83.408447 -27.919189

v 105.815834 79.936157 -28.223022

v 105.731415 78.133026 -28.007965

v 105.636215 76.598877 -28.224819

v 115.264038 79.671082 -28.054199

v 105.671143 74.960464 -28.160049

v 105.827484 72.047073 -28.108032

v 119.160400 75.033325 -27.866699

v 105.899902 68.012680 -27.907532

v 104.676941 65.593491 -28.052155

v 123.568909 68.796326 -27.980225

v 104.192993 61.067169 -27.854324

v 102.872421 57.422821 -27.683380

v 100.659134 54.912056 -28.371323

v 100.177681 50.718079 -28.345413

v 128.350647 62.607239 -27.967346

v 99.582764 47.173862 -27.961075

v 98.345108 44.777214 -28.178635

v 97.198410 42.587955 -28.392151

v 97.064957 40.638741 -28.201584

v 132.808594 57.924622 -27.842651

v 96.155487 38.856384 -28.323269

v 102.290405 40.741577 -29.544861

v 98.476929 37.371460 -27.902939

v 108.178871 40.896347 -27.961769

v 101.673904 37.526672 -27.591003

v 115.796272 46.175018 -28.284302

v 119.591682 47.852821 -28.397964

v 136.258453 54.837372 -28.132294

v 123.472824 46.911652 -28.054277

v 127.361382 47.399364 -28.192669

v 138.995575 52.563862 -28.153099

v 129.849640 46.781807 -27.458349

v 134.751129 48.269173 -29.367874

v 140.916824 50.690529 -28.222107

v 140.108032 48.652817 -29.000580

v 136.507095 45.356197 -27.344213

v 141.920197 47.928665 -27.778671

v 108.321289 87.926460 -26.526649

v 105.566681 87.501396 -26.347336

v 106.449768 84.421715 -26.190887

v 112.646637 86.139435 -26.253052

v 107.812500 80.315727 -25.986145

v 114.812241 85.435608 -25.230057

v 108.582275 77.748230 -25.794678

v 120.257690 77.438049 -25.734619

v 108.128601 71.258789 -26.493469

v 107.092896 64.693604 -26.673950

v 127.751709 67.391113 -25.834473

v 106.423553 57.186028 -26.846832

v 101.811707 53.514469 -27.452263

v 104.949219 53.617828 -27.217506

v 105.496170 51.172382 -26.402023

v 101.236237 49.902893 -27.549362

v 103.287140 49.219902 -27.220108

v 103.840729 47.480305 -26.628426

v 101.887039 44.324356 -26.561066

v 135.085144 59.379395 -25.634766

v 100.140991 41.727322 -26.382935

v 96.840843 38.261726 -24.648987

v 95.292191 37.490337 -26.585903

v 95.273087 35.508343 -26.420746

v 98.509720 35.074902 -26.409866

v 117.082108 45.258949 -27.338144

v 101.339951 35.855469 -26.400896

v 106.900208 37.512779 -27.194603

v 104.251465 36.237877 -26.387959

v 136.754349 56.862732 -25.578094

v 137.335754 54.497925 -26.378052

v 112.429016 38.341911 -27.342289

v 125.337341 45.745125 -27.315432

v 108.278038 36.295731 -26.372997

v 120.018143 39.412769 -27.304144

v 111.977852 36.661274 -26.561073

v 139.766251 51.936768 -26.729614

v 114.159943 36.794014 -26.754002

v 124.842850 39.798294 -27.276146

v 142.172241 51.035339 -25.636383

v 117.415695 37.129364 -26.227657

v 131.870621 39.729782 -27.258362

v 121.483307 38.236462 -26.384293

v 124.422585 38.299500 -26.312988

v 143.415039 47.748703 -26.903442

v 128.235367 38.053585 -26.258020

v 145.144165 45.751297 -27.165104

v 131.554489 38.149593 -26.197647

v 138.974442 39.972614 -27.231749

v 148.461914 46.010223 -25.588165

v 134.481400 38.422966 -26.230806

v 137.430344 38.463917 -26.214073

v 141.661148 38.232788 -26.251907

v 151.973969 40.693298 -27.017548

v 147.665329 38.452309 -27.158430

v 148.153488 36.835831 -26.192350

v 153.702530 37.250389 -27.200573

v 153.994568 41.758301 -25.575439

v 155.731689 36.768707 -26.039795

v 152.891403 35.224159 -26.250895

v 107.647850 87.389877 -25.479492

v 111.772804 87.658554 -24.343029

v 110.085754 80.200073 -25.100739

v 113.984848 86.269485 -24.420341

v 110.628845 85.786758 -25.201698

v 112.035095 84.739136 -23.889465

v 114.682495 86.732239 -24.107918

v 115.356956 87.892952 -24.618725

v 116.842377 88.414703 -24.698273

v 113.433716 80.873108 -22.779968

v 119.211426 83.407227 -25.028687

v 110.033691 72.798889 -24.173340

v 124.617615 75.110596 -24.719849

v 109.796387 67.451080 -24.234619

v 109.486389 62.253540 -24.182251

v 128.968018 72.424225 -23.392395

v 129.877197 67.722290 -24.950317

v 108.449493 59.448730 -24.585846

v 107.635162 55.278114 -23.002430

v 106.325905 52.229050 -22.671566

v 104.994217 49.885674 -22.739094

v 103.132072 46.433796 -22.898514

v 101.304581 43.360306 -22.810871

v 99.739006 41.119930 -24.566795

v 137.702148 60.014343 -25.124725

v 93.638596 35.803276 -22.942644

v 95.637878 34.749359 -24.511169

v 98.641960 34.513481 -24.329317

v 101.329971 35.235191 -24.365150

v 103.627655 35.742451 -24.548279

v 139.293121 54.269241 -25.413254

v 107.483147 35.355560 -23.276527

v 143.229126 55.349121 -24.803528

v 143.088348 52.621429 -25.274185

v 111.852921 35.603333 -23.095848

v 116.341858 35.772007 -22.455961

v 120.374954 37.311226 -24.336065

v 149.465668 49.443420 -24.633179

v 123.949387 37.860683 -24.504673

v 149.200195 48.430786 -25.102478

v 153.184113 45.719772 -24.639252

v 156.705688 42.317749 -24.550232

v 145.519257 37.502510 -22.448801

v 158.752960 38.143478 -24.693542

v 150.290665 35.762627 -22.035709

v 153.168274 35.586655 -22.515562

v 155.612976 36.062519 -24.889496

v 158.361603 36.193657 -24.248222

v 119.750046 98.298721 -22.321058

v 121.212891 99.913902 -22.289963

v 121.454391 97.896454 -23.223244

v 123.347656 99.297363 -21.794556

v 119.477196 93.343292 -23.246582

v 117.991333 93.720016 -22.300117

v 124.420670 92.595222 -23.234100

v 117.555191 89.495544 -22.891136

v 119.123573 89.209564 -23.327185

v 116.799995 88.276802 -20.688524

v 114.295013 84.991989 -23.317764

v 115.191383 85.511703 -22.466095

v 114.833435 82.959961 -22.315002

v 129.546478 81.760437 -23.303110

v 121.822777 85.229202 -23.387505

v 113.317749 78.418854 -22.405350

v 126.829376 76.341675 -23.350403

v 130.820313 82.871094 -22.564575

v 112.113144 76.327148 -22.592743

v 112.383331 73.695145 -22.388992

v 111.276146 70.685593 -22.468262

v 111.045746 66.872574 -22.451111

v 135.685425 75.238220 -22.607849

v 108.733261 60.059109 -20.967247

v 108.119064 58.131767 -22.323975

v 137.497406 68.905212 -23.247841

v 134.271561 66.325409 -23.494858

v 139.088364 71.083450 -20.791039

v 139.910019 67.516510 -22.329712

v 139.973328 68.028984 -20.424210

v 141.374176 62.583176 -23.185410

v 139.507568 61.712860 -23.483215

v 98.003601 39.620213 -22.564743

v 142.566711 62.326305 -22.290333

v 92.819473 35.144547 -22.455070

v 93.860214 31.735157 -20.792868

v 143.566223 58.042175 -23.226990

v 96.509789 32.263138 -22.234360

v 146.745010 54.797485 -22.328888

v 106.764771 34.452698 -22.321106

v 121.076393 34.459351 -20.084686

v 150.091629 50.203011 -22.474365

v 126.084732 36.147770 -21.871078

v 130.637329 36.606880 -18.710186

v 151.985580 48.270824 -22.380148

v 134.052750 37.711395 -22.495026

v 137.127655 37.759544 -22.444336

v 154.266617 45.919960 -22.370087

v 141.264862 37.834560 -22.522440

v 157.593338 42.464436 -22.339123

v 160.085846 39.711899 -22.415787

v 160.694626 37.535351 -22.325912

v 157.305817 35.463749 -22.278320

v 160.666901 36.055714 -20.461962

v 119.801964 98.354660 -20.084862

v 121.746613 100.388077 -20.472061

v 123.800400 101.471596 -20.283552

v 125.872574 100.303055 -20.360809

v 117.459023 94.895027 -18.930191

v 126.960938 94.347900 -21.442627

v 116.857162 91.689911 -19.979233

v 128.742294 95.486237 -20.335182

v 115.246155 86.137505 -20.373642

v 129.689362 92.008286 -20.428680

v 114.919998 83.184532 -20.517309

v 113.733932 80.908516 -20.430984

v 131.900421 87.054520 -20.437500

v 112.518890 77.366852 -20.343716

v 112.403885 73.466820 -20.561600

v 133.397797 83.675156 -20.310867

v 110.880493 70.560997 -20.250458

v 111.028389 66.777359 -20.568832

v 136.041031 78.449715 -20.521637

v 109.810310 61.933781 -20.597275

v 137.481430 74.648422 -20.391514

v 105.672745 58.522758 -19.891779

v 105.664169 55.292999 -21.507805

v 98.513214 51.759300 -19.810907

v 100.430977 49.923119 -21.460472

v 104.072166 50.901752 -21.763859

v 95.614395 49.555687 -19.290062

v 93.785995 44.843132 -21.592562

v 92.676636 45.599133 -20.746220

v 90.403076 43.394199 -20.670048

v 101.863983 47.536087 -21.678286

v 90.815155 41.979889 -21.560234

v 83.491829 39.102905 -20.661518

v 85.955811 38.645458 -21.631704

v 85.768936 36.924274 -20.733980

v 99.347473 43.470055 -21.684290

v 96.278679 40.027809 -21.658720

v 87.960045 35.985558 -21.165405

v 92.567780 37.088333 -21.724237

v 90.710800 35.007378 -21.357121

v 141.806274 61.998779 -20.211365

v 92.474091 32.680519 -20.763000

v 95.972900 30.488268 -20.638176

v 98.103195 30.448500 -20.448431

v 102.612534 31.572113 -20.896454

v 144.536804 56.719955 -20.209015

v 104.854424 31.755064 -20.510435

v 108.671265 32.724403 -20.534716

v 147.091187 53.348480 -20.117355

v 114.045723 33.360203 -20.247536

v 117.019554 34.161377 -20.222023

v 151.313171 47.208862 -20.301086

v 136.088226 36.263123 -20.546417

v 155.936523 43.117218 -20.547180

v 139.159180 35.970749 -20.976135

v 145.643204 33.724609 -20.865128

v 149.409821 32.958977 -21.277744

v 157.358917 40.465157 -19.611172

v 159.731628 39.323494 -20.308563

v 155.855087 34.411530 -21.434361

v 150.837234 30.211544 -19.564644

v 157.240082 34.455963 -20.500843

v 156.373932 29.668682 -21.064747

v 157.853363 30.550232 -21.028984

v 158.578613 31.365711 -20.249046

v 124.895302 100.960587 -16.630116

v 115.634949 93.014915 -18.485580

v 112.670433 89.643539 -18.458673

v 115.081017 89.391670 -19.555676

v 111.004906 87.338326 -18.526304

v 112.008179 86.731285 -19.355156

v 128.774078 95.309265 -18.948608

v 109.757477 85.509117 -18.486977

v 110.179276 84.527802 -19.264521

v 108.377365 83.453285 -18.593708

v 113.716614 84.145058 -19.630211

v 108.318680 80.688995 -19.461931

v 107.562889 81.851189 -18.604679

v 106.375328 80.172836 -18.572365

v 112.212646 80.249359 -19.589180

v 104.667480 77.115829 -18.593445

v 105.139671 74.739616 -19.522673

v 110.823936 76.670830 -19.596733

v 103.438148 74.621552 -18.552052

v 131.198593 90.116302 -18.297943

v 105.147690 70.501038 -19.538593

v 103.653603 70.738785 -18.605560

v 110.558380 72.498299 -19.600994

v 131.990417 85.326614 -15.592239

v 103.675873 67.465225 -18.631195

v 105.078217 66.564499 -19.554207

v 109.381340 66.544334 -19.630054

v 103.239769 64.103294 -18.774033

v 133.401917 80.354111 -16.331055

v 104.017303 62.098228 -19.545456

v 101.388290 59.501373 -18.642693

v 108.555687 62.711784 -19.672756

v 135.001831 77.870422 -18.023865

v 101.837585 57.634121 -19.457037

v 99.914932 56.977699 -18.668110

v 98.443031 54.742424 -18.669136

v 96.784515 52.569820 -18.646645

v 137.133911 72.119690 -18.319092

v 91.199234 45.884834 -16.906548

v 90.130928 43.800575 -18.697815

v 83.685089 39.683784 -18.445129

v 82.706879 39.038761 -20.656734

v 84.772369 37.904625 -17.930943

v 137.284180 69.028992 -17.900375

v 87.760056 36.671753 -18.543350

v 137.807770 64.424843 -17.647223

v 91.863892 35.131466 -18.731590

v 138.847351 59.542580 -17.649025

v 143.005798 54.460938 -18.979492

v 100.734238 29.707726 -18.696579

v 140.746658 54.246956 -17.613256

v 144.995972 50.547241 -18.968384

v 110.950958 32.372673 -18.928261

v 146.633026 46.740990 -17.658443

v 126.516037 35.100906 -18.683861

v 152.020050 44.134277 -19.439972

v 135.246307 36.277145 -18.221191

v 139.147385 35.357971 -18.712013

v 143.497787 34.186172 -18.056114

v 156.363663 35.145622 -19.486717

v 145.385712 33.037884 -18.638634

v 148.013428 31.663971 -18.916203

v 159.537231 36.050255 -19.752029

v 154.333679 33.986267 -17.669506

v 156.879166 31.081417 -17.876129

v 155.796402 28.853302 -18.203323

v 157.464462 29.052954 -18.612736

v 121.077179 98.088181 -16.542147

v 127.463028 100.098076 -16.708214

v 118.543442 94.255928 -15.025881

v 115.356140 91.505249 -15.083618

v 130.155396 95.617828 -16.460751

v 112.221573 88.028091 -14.674789

v 108.769302 82.917519 -15.290039

v 130.803467 93.405975 -16.475067

v 106.774635 80.126869 -15.478287

v 104.665642 76.379028 -15.761280

v 102.931732 72.619270 -16.227997

v 131.326599 89.465546 -13.793640

v 102.988647 69.455612 -16.434982

v 103.045448 65.259773 -16.776703

v 101.789276 61.156231 -16.791824

v 100.292633 58.200104 -16.807098

v 133.843384 77.053223 -16.626038

v 98.339828 55.280823 -16.822647

v 96.038940 52.233231 -16.761803

v 133.834869 73.162888 -16.899780

v 93.443604 48.583622 -16.758751

v 133.028748 69.263885 -16.951370

v 88.094727 44.191994 -16.195679

v 82.115349 39.971481 -16.875677

v 82.783661 38.790134 -14.920723

v 133.262039 65.409927 -17.528078

v 132.027512 63.591621 -17.068916

v 87.388092 36.992714 -14.766876

v 133.161438 61.188148 -17.585136

v 92.380829 35.432514 -15.021706

v 131.043091 59.483215 -16.976349

v 131.795105 55.876400 -17.595024

v 130.159714 55.275166 -16.636444

v 93.977333 33.124702 -16.898056

v 130.362640 51.693535 -17.018753

v 131.909210 46.806774 -17.631357

v 96.639709 30.959000 -16.848145

v 99.954002 29.652187 -16.924814

v 130.635178 47.219826 -16.950211

v 103.294762 30.946621 -16.525536

v 138.245834 37.493042 -17.661213

v 106.060638 30.880568 -15.493675

v 108.617310 31.620422 -16.788769

v 131.309433 43.032471 -17.202942

v 112.540764 31.945395 -16.823662

v 143.074081 49.833694 -17.654778

v 116.102036 33.247746 -16.857710

v 120.081978 33.612568 -16.809532

v 134.921555 37.716949 -17.572903

v 123.623802 33.233795 -16.753738

v 127.092583 34.115898 -17.787945

v 125.074112 31.774055 -15.831778

v 133.226318 35.378677 -17.660629

v 149.373199 43.184048 -17.678297

v 134.139160 35.611027 -16.412071

v 130.264252 32.799820 -17.558327

v 129.218231 30.288710 -15.841646

v 136.008530 31.127344 -16.798864

v 134.700684 30.215862 -15.838875

v 148.848877 34.102905 -17.631941

v 148.584167 32.029068 -17.882973

v 151.344437 30.742973 -17.827930

v 125.999939 100.108994 -15.920166

v 123.131149 96.670807 -14.867817

v 125.364761 96.643814 -14.781448

v 128.515259 96.984467 -15.520554

v 110.104355 85.259941 -15.515846

v 130.786667 92.867386 -12.226959

v 101.542381 71.552704 -14.414131

v 100.673523 70.575134 -14.716568

v 99.455383 68.542534 -14.662317

v 99.350166 66.378983 -15.249290

v 101.881546 65.689514 -15.978729

v 97.945450 63.261494 -15.251396

v 100.082870 60.622772 -15.931951

v 97.139290 59.789799 -15.651972

v 133.374939 81.681389 -12.865662

v 95.717026 59.956535 -14.818710

v 93.423393 56.823303 -14.823120

v 97.231308 56.120338 -15.946640

v 93.467751 54.769497 -15.697526

v 91.104294 53.654968 -14.781139

v 133.282745 78.043961 -14.785423

v 90.395462 50.282421 -15.679867

v 93.910248 51.234989 -15.967693

v 89.259109 50.605221 -14.860111

v 133.524994 75.330307 -14.665115

v 87.756165 48.347569 -14.878418

v 133.177643 72.526558 -14.685219

v 88.819183 46.180763 -15.840765

v 87.366234 46.521622 -14.843492

v 86.859047 44.210495 -14.974941

v 132.738556 69.976982 -14.698624

v 80.714691 40.038151 -15.030739

v 132.081482 67.637718 -14.753601

v 131.498627 65.063362 -14.761917

v 131.294281 62.680237 -14.650024

v 130.497223 60.248848 -14.826691

v 130.300781 57.579582 -14.792023

v 129.949768 54.474648 -14.711761

v 95.159546 34.148376 -15.429688

v 129.675964 51.285896 -14.786804

v 100.981354 31.550903 -15.265503

v 129.918106 48.874596 -14.083237

v 129.894806 45.999207 -15.071533

v 109.170967 29.598423 -14.924591

v 130.015167 40.826904 -14.825928

v 116.836563 31.751274 -15.922808

v 112.142097 28.251938 -15.201001

v 116.681900 27.894644 -15.765669

v 116.524918 26.442505 -14.932186

v 122.325806 25.588051 -15.797004

v 133.870697 33.278397 -13.036194

v 120.889320 24.467159 -14.838673

v 129.243256 22.596478 -15.254692

v 135.841705 29.921280 -15.091980

v 135.887085 25.019722 -15.754322

v 137.351517 26.109207 -14.804459

v 132.371429 22.295116 -14.995911

v 137.324966 23.797073 -14.925949

v 122.064255 95.917946 -10.438051

v 116.571075 92.525215 -10.865396

v 114.933350 90.675476 -10.920845

v 127.969215 95.846130 -11.750305

v 109.593712 85.167168 -11.172718

v 107.808281 83.056870 -11.117682

v 105.983162 80.893829 -11.175665

v 104.814743 77.472031 -11.089737

v 103.388229 74.310875 -11.031460

v 98.361557 66.635994 -11.101738

v 96.983559 64.521690 -11.096630

v 132.713287 86.099777 -9.186440

v 95.308517 61.666317 -11.003996

v 94.126358 59.291771 -10.933590

v 133.817657 79.809517 -12.540741

v 91.366577 55.392281 -11.082219

v 133.986572 78.293961 -12.728874

v 90.083664 52.836601 -11.095524

v 88.955902 50.723396 -9.624016

v 134.144180 76.378456 -12.722145

v 88.005920 47.646816 -11.319168

v 134.275604 74.631699 -12.699974

v 134.063507 72.504089 -12.731098

v 87.739738 44.366184 -13.085403

v 86.922943 43.038956 -14.102859

v 82.495117 40.133705 -14.223862

v 133.794373 70.871452 -12.352142

v 133.575409 69.211533 -12.551170

v 88.816788 39.323204 -13.819664

v 133.729752 67.813881 -12.772259

v 90.457520 39.389786 -12.979523

v 133.654358 65.981773 -12.829056

v 133.187775 64.594627 -12.604107

v 133.216904 63.017662 -12.893696

v 93.782883 37.563202 -12.981674

v 132.917236 61.316143 -12.787970

v 132.990326 59.006264 -12.794785

v 132.613647 56.852646 -12.708359

v 96.517822 36.167999 -12.692200

v 131.355484 53.410244 -12.796661

v 100.445160 34.709320 -12.259827

v 99.305145 36.272263 -11.162903

v 130.876938 50.996548 -12.710205

v 104.789841 31.446213 -13.035248

v 129.364899 42.630356 -13.014282

v 109.116913 29.634892 -12.985371

v 130.006851 39.856453 -11.108727

v 111.913666 28.178253 -13.029984

v 116.114594 26.814186 -12.493683

v 119.208969 25.154142 -12.712402

v 122.509819 23.150095 -9.374611

v 137.579468 27.019989 -12.970703

v 125.665443 22.197845 -11.294189

v 131.031128 20.372040 -11.556030

v 138.495117 23.424957 -12.558777

v 136.276001 21.553970 -12.794418

v 123.703552 96.480751 -10.448563

v 126.279755 96.880493 -10.537476

v 112.577789 88.686340 -10.953485

v 129.727936 96.052612 -8.925659

v 132.413422 91.562378 -8.732574

v 102.404510 71.841927 -10.724014

v 132.832794 88.443802 -10.762863

v 100.253159 68.998619 -10.952866

v 96.842087 62.888107 -10.344873

v 92.670670 57.339264 -11.032803

v 132.938965 77.514191 -10.924744

v 132.748840 74.267517 -10.774109

v 87.479599 45.180603 -10.752991

v 89.581314 40.482735 -10.600983

v 132.126801 65.462906 -9.220619

v 92.891312 38.238243 -8.852142

v 132.225464 57.676395 -8.997421

v 132.198624 56.007645 -9.166718

v 131.146423 51.966141 -10.880951

v 102.989609 36.424126 -11.070065

v 130.814026 49.717346 -10.766479

v 105.843628 34.664276 -11.790955

v 107.500130 34.909859 -11.035736

v 130.284424 47.646774 -10.774414

v 107.147705 31.529730 -12.244415

v 129.817139 44.470825 -10.736237

v 110.832336 32.817154 -10.945938

v 111.550354 29.863037 -12.046631

v 130.268768 41.890129 -10.402481

v 113.568222 29.560242 -11.180847

v 134.447647 32.929932 -10.995789

v 138.544800 28.420776 -10.768799

v 140.095108 25.277544 -10.944153

v 140.323639 23.170549 -10.918472

v 135.374435 19.061190 -10.905676

v 140.288528 20.970123 -10.948395

v 139.012054 19.305227 -10.915753

v 127.075958 98.580963 -8.327484

v 124.856644 98.173256 -8.773407

v 116.574272 90.750984 -10.040112

v 122.456131 93.801338 -8.830231

v 119.342880 91.069588 -9.695763

v 113.430779 87.262680 -9.960352

v 120.859245 90.922714 -8.828285

v 116.451035 86.348541 -9.805771

v 109.502464 82.333679 -9.987812

v 118.624847 87.215340 -8.877159

v 106.722359 77.838654 -9.985991

v 116.632782 84.030502 -8.980560

v 113.669144 80.843613 -9.585892

v 112.042740 76.628021 -9.760025

v 110.046501 73.670441 -9.908281

v 105.094177 74.013290 -10.009356

v 133.210831 88.480728 -8.536102

v 102.470284 69.547890 -10.054558

v 111.709030 73.081528 -8.995956

v 105.568260 68.810181 -9.907528

v 98.730019 64.549339 -10.099884

v 108.898117 70.337952 -9.041344

v 102.343918 64.133446 -9.919487

v 132.524796 82.929092 -8.929245

v 105.931587 66.870224 -9.008286

v 94.897247 58.578083 -10.272568

v 103.005234 62.440601 -8.987434

v 99.622971 59.620506 -9.684006

v 132.517349 78.601227 -8.920769

v 92.411926 54.582474 -10.190308

v 97.393234 56.644352 -9.306026

v 95.539261 54.734871 -9.125839

v 132.416443 75.301201 -8.924171

v 86.361572 47.506557 -7.477345

v 132.955261 72.611877 -8.562180

v 132.739594 70.505371 -8.827774

v 132.563782 68.049492 -8.954712

v 86.781311 43.809891 -9.234497

v 132.208679 62.688877 -8.918518

v 132.081696 60.322464 -8.926300

v 98.893013 37.009918 -9.132339

v 132.363220 53.780823 -9.220215

v 102.911453 37.028320 -9.094009

v 105.760612 36.585571 -8.895630

v 108.352295 35.180435 -9.023376

v 133.088013 45.248566 -9.393707

v 110.808067 33.380463 -9.092041

v 112.826172 31.395615 -9.093842

v 133.782440 40.693306 -9.501953

v 115.331413 29.098869 -9.099686

v 135.581085 35.748901 -9.305725

v 118.685486 26.388596 -9.123795

v 137.497650 31.596558 -9.541626

v 124.987457 22.153576 -9.154675

v 130.255127 20.175011 -8.864365

v 134.609497 19.076218 -9.102951

v 140.891571 22.207169 -7.053392

v 137.388382 19.236794 -9.021244

v 140.176407 20.033335 -9.032024

v 128.991592 100.818649 -6.755515

v 128.460358 99.243690 -7.847153

v 126.544846 99.746651 -6.881451

v 132.847687 102.943451 -6.787350

v 133.436188 101.515511 -7.717590

v 124.286140 97.177437 -5.161774

v 135.884460 103.351212 -6.857620

v 138.760681 104.376503 -6.891907

v 139.778656 102.846474 -7.806416

v 122.754745 93.980110 -4.216858

v 142.072266 105.162262 -6.777042

v 144.775620 104.917030 -6.911087

v 132.606262 94.568520 -7.886015

v 146.175934 103.415833 -7.708107

v 120.392395 88.948708 -4.231689

v 147.162094 104.660507 -6.672180

v 147.934509 103.411896 -6.818222

v 146.372467 100.984100 -7.773928

v 118.769073 86.058289 -6.215942

v 147.892090 100.951851 -6.774170

v 143.467896 95.084465 -7.826896

v 116.893311 81.059570 -6.549194

v 146.733948 97.714294 -7.017456

v 134.182892 90.289986 -7.917156

v 115.745483 77.191345 -6.582581

v 144.514618 93.806671 -7.221741

v 134.088654 86.299202 -7.936323

v 141.236603 90.176086 -7.765026

v 113.625977 73.447708 -6.570404

v 139.151428 84.463882 -7.847296

v 112.238213 71.982773 -6.326043

v 133.956680 83.309097 -7.989441

v 109.792191 70.240753 -6.931610

v 106.903473 67.661659 -7.147499

v 140.809265 85.920471 -7.227783

v 106.147446 64.832558 -6.391682

v 134.096802 79.678467 -8.001228

v 104.050995 63.440384 -7.151230

v 136.725113 78.443756 -7.867689

v 102.927788 60.584229 -6.591709

v 139.322784 81.466141 -7.327286

v 101.734680 59.413120 -6.673531

v 99.899178 57.870880 -6.553635

v 138.286591 77.479774 -7.090149

v 133.734711 75.727554 -8.074463

v 94.757401 53.459927 -6.820526

v 87.935066 49.138371 -7.166706

v 136.588959 73.983856 -7.556992

v 86.192085 44.105499 -7.303761

v 136.341797 71.059158 -6.961227

v 135.304077 68.437935 -6.981857

v 88.379456 40.459095 -7.197075

v 134.149719 64.231461 -6.978546

v 92.028191 39.248688 -7.254517

v 133.218445 60.328571 -7.119751

v 97.492203 38.763184 -7.186951

v 133.576843 57.534920 -7.040833

v 101.264099 39.023071 -6.872559

v 134.230362 54.984177 -6.937256

v 104.338501 40.015381 -5.817627

v 134.563553 52.157990 -6.976471

v 109.710022 38.151184 -6.939758

v 134.637604 50.298950 -7.116394

v 110.741943 35.278320 -8.025269

v 134.735764 48.240211 -7.112320

v 134.911682 45.247780 -7.026276

v 115.455635 30.586182 -8.255127

v 116.632851 33.687469 -7.963432

v 134.999191 42.700264 -7.157257

v 135.659210 40.492371 -7.112183

v 122.992981 27.850220 -7.942406

v 121.943924 32.209564 -6.366501

v 121.601654 25.686749 -8.262947

v 137.106110 36.787640 -7.057770

v 127.641884 26.600067 -6.301250

v 128.108795 23.040222 -8.011108

v 138.878113 32.051872 -7.159729

v 141.226929 27.124146 -7.096008

v 141.264832 24.840752 -7.358154

v 136.183350 21.152222 -7.564087

v 138.908249 21.857307 -6.612823

v 134.221436 103.456551 -3.181581

v 137.411652 105.198975 -2.997013

v 139.619156 104.904007 -4.942596

v 142.306396 106.132362 -3.460083

v 119.194687 84.188202 -4.907272

v 118.588142 79.368195 -5.142731

v 118.398636 76.069550 -5.334702

v 146.929398 94.445587 -4.504578

v 145.032623 90.759064 -4.824768

v 116.657257 71.965004 -5.959625

v 143.801666 88.462791 -4.945435

v 118.225761 72.011520 -5.031059

v 108.541313 66.985878 -6.174543

v 142.706055 86.427582 -5.205688

v 114.831207 68.810989 -6.011429

v 116.315895 68.115715 -5.083221

v 109.873184 63.523109 -6.058367

v 141.538208 80.565186 -3.021729

v 112.642517 64.783669 -5.163803

v 104.730835 58.547844 -5.229794

v 97.118546 54.078308 -3.499268

v 109.810440 61.534378 -5.185921

v 91.975677 49.936600 -6.144775

v 94.003586 51.387154 -5.331772

v 88.011299 46.579750 -6.316360

v 91.129326 45.165810 -6.163162

v 92.656906 46.278942 -5.265381

v 88.239273 42.270992 -6.333950

v 137.190674 71.835556 -4.838745

v 92.577011 43.548321 -5.305176

v 92.905464 40.925842 -6.116928

v 135.554810 68.163086 -5.122437

v 134.186829 63.772247 -5.266602

v 96.660004 39.721497 -5.272034

v 133.166870 59.441620 -5.413879

v 134.049072 58.036469 -4.056641

v 102.447479 43.254822 -2.363617

v 133.941864 55.129463 -3.353851

v 110.203857 40.208862 -5.802185

v 109.960922 43.233673 -3.711975

v 133.981094 53.379467 -3.333565

v 115.273010 40.695251 -4.894226

v 111.042389 38.183838 -6.340378

v 120.606041 36.837982 -5.995399

v 116.919739 35.683746 -6.541840

v 120.850327 39.020386 -4.520935

v 134.311523 46.016384 -3.310875

v 136.111206 39.634029 -4.285461

v 128.898926 30.060783 -5.999107

v 126.557129 34.543213 -4.725830

v 132.913422 29.479248 -4.579468

v 138.348099 33.605423 -3.261017

v 134.841370 25.695572 -5.970390

v 132.501495 23.676331 -6.440186

v 138.919922 30.185360 -4.631187

v 141.568909 25.964314 -5.215431

v 139.921906 24.301468 -5.919825

v 138.772263 26.383850 -4.447327

v 128.280838 99.917519 -2.180988

v 131.795288 101.413544 -1.315506

v 125.281700 97.167175 -2.150962

v 139.733688 105.739349 -2.778938

v 143.730072 106.199364 -2.509069

v 147.437134 105.568733 -2.659416

v 121.981995 91.515778 0.671028

v 148.761932 104.098259 -2.719631

v 148.750275 102.534737 -2.537292

v 148.789261 100.580559 -3.000683

v 118.642616 80.339417 -2.866699

v 147.914398 96.601563 -3.026260

v 118.113823 78.387299 -1.433002

v 118.538605 76.372894 -3.033936

v 118.207306 73.082138 -3.153564

v 144.323242 87.011612 -1.064056

v 143.445679 84.633369 -1.244167

v 116.873535 70.195389 -1.379738

v 116.185303 68.178970 -1.318226

v 114.073120 65.011932 -2.183655

v 112.006622 62.775696 -3.058685

v 109.789070 60.550018 -3.089920

v 103.926170 56.936440 -2.755917

v 95.407486 52.139648 -3.140938

v 141.797897 78.414063 -1.365801

v 93.865990 50.096222 -3.396355

v 141.183182 76.627731 -1.262367

v 93.097321 46.830803 -3.402306

v 140.635330 74.556946 -1.210716

v 92.941338 43.960636 -3.394142

v 94.367661 43.195427 -2.777374

v 99.686676 41.822098 -2.893692

v 137.026215 62.636265 -1.311371

v 136.138306 61.084816 -1.298981

v 107.140945 43.162689 -3.550995

v 114.368118 43.501007 -3.728241

v 118.539665 42.216675 -3.779358

v 134.186707 50.664345 -3.181885

v 133.985794 48.159218 -3.243149

v 126.047852 36.977783 -3.549316

v 127.187637 40.421288 -0.423134

v 135.544785 44.502975 -1.809341

v 136.341614 42.666798 -1.500626

v 136.984772 40.505333 -1.427898

v 129.449738 35.253654 -3.268936

v 132.267181 33.489433 -3.277603

v 137.957260 37.619968 -0.984247

v 132.727905 32.077194 -4.027130

v 135.819763 31.717308 -3.209572

v 137.727310 30.218899 -3.820305

v 138.355423 104.691353 -2.378757

v 134.243713 101.628838 -2.032299

v 127.276550 99.153267 0.631248

v 123.636505 95.471008 0.691788

v 145.062668 103.846542 -2.041330

v 139.779236 97.985184 -2.008934

v 138.666046 97.131958 -1.124390

v 146.798477 99.529823 -2.056999

v 120.410049 87.993385 0.686150

v 142.074738 95.521179 -0.334076

v 146.273010 97.629974 -1.497131

v 118.094734 80.347061 -1.285689

v 147.430237 95.938484 -1.095284

v 117.594986 76.584709 -1.250336

v 146.254501 92.142090 -0.937698

v 117.254852 74.315689 -1.266741

v 145.379272 89.588257 -1.076645

v 116.899643 71.927666 -1.275425

v 142.560272 82.412964 -1.072815

v 141.978699 80.020622 -1.156616

v 113.719803 60.935715 -0.705307

v 97.840637 51.698090 -1.953400

v 110.514717 58.534828 -0.828316

v 103.354538 54.462036 -0.869198

v 100.055397 51.707550 -0.728249

v 94.471405 47.867252 -2.583755

v 96.707703 48.756126 -1.998688

v 140.268967 73.058998 -1.175034

v 97.978195 44.449516 -2.178429

v 139.814606 71.697777 -1.181290

v 99.094635 47.772064 -0.457104

v 139.716217 69.465973 -1.255577

v 139.222214 67.546463 -1.232742

v 138.388214 64.922333 -1.201263

v 104.390991 44.911957 -1.055054

v 109.985977 45.256744 -0.948204

v 134.900024 59.615704 -0.611702

v 134.963684 57.115608 -1.241215

v 116.644661 46.555450 -0.433446

v 134.623550 54.601547 -1.301380

v 122.208740 43.943176 -0.836975

v 134.893890 52.401924 -1.420234

v 135.072128 49.837177 -1.237162

v 134.936371 47.365059 -1.055866

v 129.277893 36.231781 -1.268280

v 131.761261 34.402321 -1.363655

v 134.733978 33.045540 -1.169418

v 138.930420 35.170219 -1.239809

v 139.603165 32.875446 -1.402424

v 136.962555 31.525728 -1.342991

v 138.749542 32.408943 -0.704258

v 139.549576 30.946651 -1.331758

v 129.565979 99.314819 1.065735

v 124.975449 97.543823 0.830503

v 134.905518 98.115112 1.210876

v 137.692932 95.973648 1.303741

v 119.164970 84.143181 0.940063

v 118.653580 80.159988 0.815170

v 141.492798 93.626587 1.292725

v 145.841766 95.472076 -0.272537

v 143.766602 92.221710 0.209015

v 117.711426 74.946342 0.673065

v 141.754944 89.966553 1.463654

v 117.613144 71.910538 0.751373

v 141.512207 85.265793 1.072693

v 115.894096 66.509453 0.619202

v 140.581787 81.199982 0.953552

v 115.588226 64.933159 -0.410156

v 117.815361 66.044647 0.556183

v 138.749390 79.125076 1.635208

v 139.304504 76.401680 1.036682

v 117.248306 64.160057 -0.306662

v 121.497314 61.029987 -0.239304

v 120.995468 65.861671 1.607738

v 139.127594 74.237633 1.020569

v 122.617996 62.983765 1.279388

v 111.868988 57.453598 -0.371842

v 138.846619 71.370438 1.030945

v 110.112907 46.810730 -0.422804

v 100.854973 45.943447 -0.509092

v 138.510162 67.820160 0.829224

v 131.768967 57.634506 -0.299988

v 137.407349 63.520416 0.748260

v 132.373138 59.376266 0.208939

v 131.393127 61.393829 1.611746

v 133.914703 56.620476 -0.555931

v 133.973022 52.912918 -0.577744

v 122.705627 45.424866 -0.376393

v 132.194397 48.127357 -0.339277

v 134.291061 49.237629 -0.658554

v 135.484055 44.058472 -0.695686

v 136.375504 34.569443 -0.378259

v 136.157379 40.749790 -0.575665

v 131.042328 36.326668 -0.457558

v 128.772507 97.895218 1.715559

v 124.857498 94.743973 1.641155

v 123.327911 90.493729 1.661340

v 139.416443 93.402092 1.759798

v 130.058929 81.765961 1.693001

v 121.412704 86.370071 1.620201

v 120.188042 81.225975 1.634380

v 140.348358 88.382034 1.735442

v 119.389305 76.855125 1.540810

v 118.892563 71.305786 1.611979

v 139.843140 83.814514 1.697054

v 117.582062 67.451309 1.227432

v 137.492401 74.147247 1.672052

v 137.203613 69.066513 1.667675

v 136.307999 64.399513 1.629335

f 1 2 3
f 3 2 4
f 4 5 3
f 4 6 5
f 6 4 7
f 8 5 6
f 6 9 8
f 10 8 9
f 9 6 11
f 9 12 10
f 10 12 13
f 7 14 6
f 12 15 13
f 12 9 11
f 15 12 16
f 16 17 15
f 14 18 6
f 11 6 18
f 11 16 12
f 11 19 16
f 20 18 14
f 19 18 21
f 19 11 18
f 1 22 23
f 2 1 23
f 3 22 1
f 24 22 3
f 23 25 2
f 4 2 25
f 5 24 3
f 25 26 4
f 24 5 8
f 27 24 8
f 27 8 10
f 7 4 26
f 10 28 27
f 26 29 7
f 28 10 13
f 28 13 15
f 15 30 28
f 14 7 29
f 17 30 15
f 31 30 17
f 17 32 31
f 20 14 29
f 20 29 33
f 16 19 17
f 20 33 34
f 21 20 34
f 18 20 21
f 35 36 17
f 32 17 36
f 36 37 32
f 37 38 32
f 19 35 17
f 34 39 21
f 19 21 39
f 40 38 37
f 36 40 37
f 39 34 41
f 42 40 36
f 19 43 35
f 39 43 19
f 44 43 39
f 36 35 42
f 41 45 39
f 44 39 45
f 35 43 46
f 44 45 47
f 43 44 48
f 49 50 51
f 52 51 50
f 49 51 53
f 52 54 51
f 53 51 55
f 54 55 51
f 54 52 56
f 53 55 57
f 57 55 58
f 54 58 55
f 57 58 59
f 60 58 54
f 23 22 56
f 54 56 22
f 59 58 61
f 24 54 22
f 60 54 24
f 62 59 61
f 61 58 60
f 61 63 62
f 60 27 61
f 63 61 64
f 65 63 64
f 24 27 60
f 27 64 61
f 64 66 65
f 64 27 67
f 66 64 68
f 69 66 68
f 28 67 27
f 67 68 64
f 69 68 70
f 31 68 67
f 71 69 70
f 30 67 28
f 31 72 68
f 71 70 73
f 31 67 30
f 70 68 72
f 70 74 73
f 74 70 75
f 73 74 76
f 70 72 75
f 76 74 77
f 72 31 32
f 38 72 32
f 72 78 75
f 76 77 79
f 78 72 38
f 75 80 74
f 80 77 74
f 79 77 81
f 82 80 75
f 83 79 81
f 78 82 75
f 80 81 77
f 38 82 78
f 81 84 83
f 33 85 34
f 40 82 38
f 80 84 81
f 41 34 85
f 80 82 86
f 40 86 82
f 80 86 87
f 40 42 88
f 42 35 46
f 40 88 89
f 89 87 40
f 86 40 87
f 88 42 90
f 90 91 88
f 41 47 45
f 42 46 90
f 48 46 43
f 46 48 90
f 48 44 47
f 90 48 92
f 91 90 93
f 48 47 94
f 92 93 90
f 94 92 48
f 94 47 95
f 96 50 97
f 97 49 98
f 96 52 50
f 50 49 97
f 49 99 98
f 52 96 100
f 100 101 52
f 53 99 49
f 102 99 53
f 101 56 52
f 103 102 53
f 53 104 103
f 101 105 56
f 57 104 53
f 106 104 57
f 106 57 59
f 59 107 106
f 105 23 56
f 59 62 107
f 105 108 23
f 107 62 109
f 25 23 108
f 109 62 63
f 63 110 109
f 63 65 110
f 25 108 26
f 108 111 26
f 65 66 110
f 66 112 110
f 66 69 112
f 69 113 112
f 26 111 29
f 69 71 113
f 71 114 113
f 71 73 114
f 73 115 114
f 111 116 29
f 115 73 76
f 33 29 116
f 76 117 115
f 76 118 117
f 118 76 79
f 118 79 83
f 83 119 118
f 83 120 119
f 116 121 85
f 33 116 85
f 120 83 84
f 84 122 120
f 84 80 123
f 84 124 122
f 123 124 84
f 80 87 123
f 41 85 121
f 123 87 125
f 124 123 126
f 87 89 127
f 127 125 87
f 126 123 125
f 47 41 121
f 88 91 128
f 89 88 128
f 128 127 89
f 47 121 129
f 91 130 128
f 130 91 93
f 47 129 95
f 93 131 130
f 131 93 92
f 132 95 129
f 92 133 131
f 134 133 92
f 92 94 134
f 95 132 135
f 134 94 95
f 135 136 95
f 134 95 136
f 137 134 136
f 135 138 136
f 139 97 140
f 139 96 97
f 97 141 140
f 97 98 141
f 100 96 139
f 98 99 141
f 100 142 101
f 99 143 141
f 143 99 102
f 103 143 102
f 101 142 144
f 101 144 105
f 145 103 104
f 104 106 145
f 106 107 145
f 105 144 146
f 107 147 145
f 146 108 105
f 107 109 147
f 109 110 148
f 110 112 148
f 111 108 146
f 146 149 111
f 112 150 148
f 150 112 113
f 114 151 113
f 113 152 150
f 152 113 151
f 115 151 114
f 149 116 111
f 150 152 153
f 154 151 115
f 151 155 152
f 155 151 154
f 152 155 153
f 115 117 154
f 156 153 155
f 154 156 155
f 156 154 117
f 157 156 117
f 157 117 118
f 118 119 157
f 116 149 158
f 159 157 119
f 119 120 159
f 116 158 121
f 160 120 122
f 122 161 160
f 161 122 124
f 161 124 162
f 162 124 163
f 125 127 164
f 127 128 164
f 124 126 165
f 165 163 124
f 125 166 126
f 167 165 126
f 129 121 168
f 130 164 128
f 166 167 126
f 168 169 129
f 164 166 125
f 166 164 170
f 164 130 171
f 167 166 172
f 131 171 130
f 171 173 164
f 170 164 173
f 169 132 129
f 166 170 174
f 174 172 166
f 169 175 132
f 133 171 131
f 170 173 176
f 174 170 176
f 175 135 132
f 177 173 171
f 175 178 135
f 137 133 134
f 176 173 179
f 133 180 171
f 181 179 173
f 177 181 173
f 138 135 178
f 133 137 180
f 181 177 182
f 177 171 180
f 138 178 183
f 137 136 138
f 182 177 184
f 137 138 185
f 180 184 177
f 138 183 185
f 184 180 186
f 137 185 187
f 180 137 187
f 188 185 183
f 187 189 180
f 186 180 189
f 189 187 190
f 190 187 191
f 185 188 192
f 185 193 187
f 193 191 187
f 191 193 194
f 195 193 192
f 185 192 193
f 196 195 192
f 195 196 197
f 194 193 198
f 193 195 198
f 197 198 195
f 199 139 140
f 140 141 199
f 142 100 200
f 139 199 100
f 201 199 141
f 200 202 142
f 100 203 200
f 203 100 199
f 203 199 201
f 203 204 200
f 205 206 144
f 202 205 144
f 141 143 201
f 142 202 144
f 203 201 204
f 144 206 207
f 208 204 201
f 145 201 143
f 145 143 103
f 144 207 209
f 209 146 144
f 147 210 145
f 146 209 211
f 147 212 210
f 212 147 109
f 148 212 109
f 148 213 212
f 211 149 146
f 214 215 211
f 215 149 211
f 216 213 148
f 150 216 148
f 216 150 217
f 153 217 150
f 218 217 153
f 219 218 153
f 156 219 153
f 156 220 219
f 215 158 149
f 220 156 157
f 157 221 220
f 221 157 159
f 159 222 221
f 223 158 215
f 222 159 120
f 222 120 160
f 161 224 160
f 161 162 224
f 162 225 224
f 168 121 158
f 162 163 225
f 226 225 163
f 223 168 158
f 163 165 227
f 227 226 163
f 228 165 167
f 228 227 165
f 168 223 229
f 230 167 172
f 167 230 228
f 169 168 229
f 231 232 223
f 232 229 223
f 233 172 174
f 172 233 230
f 229 175 169
f 232 178 229
f 178 175 229
f 176 234 174
f 179 234 176
f 179 181 235
f 236 232 231
f 237 235 181
f 237 181 182
f 232 236 238
f 178 232 238
f 237 182 184
f 188 183 178
f 238 188 178
f 239 238 236
f 239 196 238
f 188 238 196
f 192 188 196
f 240 196 239
f 194 241 191
f 240 197 196
f 197 240 242
f 198 243 194
f 198 244 243
f 242 245 197
f 245 244 198
f 245 242 246
f 245 198 197
f 247 248 249
f 249 248 250
f 247 249 251
f 247 251 252
f 249 250 253
f 251 249 253
f 251 254 252
f 254 251 255
f 253 255 251
f 256 254 207
f 256 207 206
f 206 205 256
f 257 202 200
f 200 204 257
f 255 207 254
f 258 205 202
f 202 257 258
f 259 258 257
f 204 208 257
f 260 255 253
f 261 207 255
f 259 257 208
f 201 262 208
f 261 255 260
f 261 209 207
f 260 263 261
f 201 145 262
f 209 261 263
f 260 253 264
f 262 145 265
f 145 210 265
f 210 266 265
f 210 267 266
f 263 211 209
f 210 212 267
f 268 267 212
f 263 214 211
f 260 264 269
f 213 268 212
f 260 214 263
f 216 270 213
f 216 271 270
f 269 272 260
f 271 216 217
f 273 215 214
f 214 260 272
f 272 269 274
f 272 273 214
f 275 272 274
f 274 276 275
f 272 275 277
f 272 278 273
f 278 272 277
f 279 221 222
f 280 277 275
f 278 223 273
f 223 215 273
f 279 222 160
f 160 224 279
f 281 224 225
f 225 282 281
f 278 277 283
f 225 284 282
f 283 231 278
f 231 223 278
f 226 284 225
f 280 283 277
f 284 226 227
f 283 280 285
f 227 228 286
f 286 284 227
f 230 286 228
f 231 283 285
f 234 233 174
f 285 236 231
f 179 235 234
f 234 235 287
f 288 236 285
f 237 287 235
f 287 237 289
f 237 184 289
f 184 186 290
f 236 288 291
f 239 236 291
f 186 189 292
f 186 292 290
f 189 190 293
f 189 293 292
f 291 294 239
f 190 191 295
f 295 293 190
f 191 241 295
f 239 294 296
f 296 240 239
f 194 243 241
f 240 296 297
f 297 242 240
f 242 297 298
f 245 299 244
f 299 245 246
f 298 300 242
f 246 242 300
f 246 300 299
f 248 301 302
f 301 248 247
f 302 303 250
f 250 248 302
f 250 303 304
f 247 305 301
f 305 247 252
f 304 306 250
f 250 306 253
f 252 307 305
f 306 304 308
f 252 256 307
f 256 252 254
f 309 256 205
f 309 205 258
f 306 308 310
f 310 253 306
f 309 258 259
f 259 311 309
f 259 312 311
f 312 259 208
f 253 310 264
f 312 208 262
f 264 310 313
f 262 314 312
f 314 262 265
f 265 315 314
f 315 265 266
f 264 313 316
f 315 266 267
f 267 317 315
f 267 318 317
f 318 267 268
f 264 316 319
f 319 269 264
f 318 268 213
f 213 320 318
f 321 269 319
f 320 213 270
f 270 271 322
f 322 271 323
f 271 217 323
f 324 323 325
f 321 274 269
f 218 323 217
f 323 326 325
f 327 325 328
f 329 327 328
f 218 326 323
f 330 329 328
f 326 331 325
f 330 328 332
f 219 326 218
f 333 330 332
f 334 333 332
f 331 326 219
f 334 335 333
f 220 331 219
f 331 336 325
f 336 328 325
f 337 328 336
f 328 337 332
f 337 334 332
f 335 334 338
f 336 331 220
f 338 334 339
f 221 336 220
f 337 339 334
f 336 221 279
f 338 339 340
f 279 337 336
f 339 337 279
f 280 275 276
f 276 341 280
f 339 279 224
f 224 281 339
f 340 339 281
f 281 342 340
f 342 281 282
f 282 284 343
f 344 343 284
f 285 280 341
f 344 284 345
f 341 346 285
f 284 286 345
f 347 345 286
f 347 286 348
f 346 349 285
f 286 230 348
f 230 233 350
f 234 350 233
f 350 348 230
f 351 350 234
f 288 285 349
f 287 351 234
f 184 290 289
f 352 288 349
f 291 288 352
f 290 292 353
f 293 353 292
f 294 291 352
f 352 354 294
f 295 355 293
f 353 293 355
f 296 294 354
f 355 295 241
f 355 241 243
f 243 356 355
f 357 356 243
f 296 354 358
f 358 359 296
f 297 296 359
f 243 244 360
f 360 357 243
f 299 360 244
f 298 297 359
f 356 357 361
f 298 359 300
f 360 299 362
f 299 300 362
f 357 360 363
f 363 361 357
f 363 360 364
f 360 362 365
f 365 364 360
f 366 304 303
f 305 307 367
f 307 368 367
f 307 369 368
f 369 370 368
f 369 371 370
f 304 372 308
f 369 307 256
f 373 370 371
f 373 371 374
f 375 373 374
f 369 256 309
f 309 376 369
f 371 369 376
f 371 376 374
f 374 377 375
f 378 375 377
f 376 377 374
f 377 379 378
f 310 308 372
f 376 309 311
f 377 376 380
f 377 381 379
f 312 376 311
f 381 377 382
f 380 376 312
f 380 383 377
f 384 381 382
f 312 314 380
f 314 383 380
f 382 377 383
f 310 385 313
f 384 382 386
f 384 386 387
f 315 383 314
f 386 382 388
f 385 389 313
f 383 388 382
f 315 388 383
f 387 386 390
f 389 316 313
f 390 386 391
f 315 317 388
f 317 392 388
f 386 388 392
f 391 386 392
f 391 393 390
f 318 392 317
f 319 316 394
f 393 391 395
f 392 395 391
f 393 395 396
f 318 397 392
f 395 392 397
f 394 398 319
f 396 395 399
f 397 318 320
f 397 322 395
f 396 399 400
f 322 399 395
f 398 321 319
f 399 401 400
f 397 320 270
f 322 397 270
f 399 324 401
f 324 402 401
f 322 324 399
f 398 403 321
f 402 324 327
f 323 324 322
f 325 327 324
f 403 274 321
f 404 329 330
f 330 405 404
f 405 330 333
f 333 406 405
f 407 406 333
f 333 408 407
f 276 274 403
f 333 335 408
f 403 409 276
f 408 335 410
f 338 410 335
f 409 411 276
f 410 338 412
f 340 412 338
f 341 276 411
f 340 342 412
f 411 413 341
f 413 414 341
f 346 341 414
f 344 345 415
f 415 345 347
f 349 346 414
f 416 417 414
f 350 418 348
f 417 349 414
f 417 419 349
f 287 289 420
f 352 349 419
f 289 290 420
f 419 421 352
f 353 422 290
f 354 352 421
f 353 423 422
f 423 353 355
f 358 354 421
f 355 356 423
f 423 356 424
f 421 425 358
f 424 356 426
f 426 356 427
f 428 359 358
f 428 358 425
f 300 359 428
f 361 427 356
f 362 428 425
f 428 362 300
f 429 430 425
f 425 430 362
f 430 365 362
f 361 363 431
f 430 432 365
f 365 432 364
f 364 432 363
f 431 363 432
f 366 303 302
f 302 433 366
f 433 302 301
f 434 304 366
f 301 435 433
f 301 305 435
f 305 436 435
f 436 305 367
f 436 367 368
f 437 304 434
f 438 368 370
f 437 372 304
f 373 375 439
f 437 440 372
f 378 439 375
f 441 378 379
f 440 310 372
f 442 441 379
f 379 381 442
f 440 385 310
f 381 384 442
f 443 384 387
f 385 444 389
f 387 445 443
f 445 387 390
f 390 446 445
f 394 316 389
f 446 390 393
f 393 447 446
f 447 393 396
f 396 448 447
f 398 394 449
f 448 396 400
f 400 450 448
f 450 400 401
f 401 451 450
f 451 401 402
f 449 452 398
f 451 402 327
f 453 451 327
f 403 398 452
f 329 453 327
f 404 453 329
f 452 409 403
f 409 452 454
f 404 405 455
f 456 455 405
f 405 406 456
f 406 407 456
f 456 407 457
f 407 408 457
f 409 458 411
f 458 409 454
f 454 459 458
f 460 408 410
f 461 458 459
f 458 461 411
f 412 462 410
f 459 463 461
f 413 411 461
f 464 461 463
f 465 464 463
f 464 413 461
f 412 466 462
f 466 412 342
f 466 342 282
f 465 467 464
f 413 464 416
f 464 468 416
f 468 464 467
f 282 469 466
f 469 282 343
f 413 416 414
f 344 470 469
f 343 344 469
f 468 467 471
f 470 344 415
f 415 347 472
f 472 470 415
f 468 473 416
f 474 472 347
f 347 348 474
f 348 418 475
f 348 475 474
f 476 468 471
f 418 477 475
f 417 416 478
f 478 416 473
f 477 418 350
f 350 351 479
f 479 477 350
f 480 351 287
f 351 480 479
f 478 419 417
f 476 481 468
f 478 473 419
f 420 482 287
f 482 480 287
f 468 481 473
f 483 482 420
f 420 290 483
f 482 483 484
f 485 483 290
f 419 486 421
f 422 481 487
f 485 290 422
f 473 481 422
f 485 422 487
f 488 489 483
f 483 485 488
f 485 490 488
f 423 473 422
f 487 490 485
f 491 489 488
f 473 486 419
f 490 491 488
f 473 423 424
f 492 486 473
f 425 421 486
f 429 486 492
f 486 429 425
f 473 424 492
f 493 424 426
f 426 427 493
f 493 492 424
f 494 492 493
f 494 429 492
f 493 361 494
f 361 493 427
f 430 429 494
f 494 361 431
f 494 431 430
f 430 431 432
f 495 366 433
f 366 495 434
f 433 496 495
f 433 435 496
f 495 496 497
f 495 497 498
f 495 498 434
f 437 434 498
f 368 438 436
f 370 499 438
f 499 370 373
f 439 499 373
f 439 378 441
f 385 440 500
f 442 384 443
f 385 500 444
f 443 445 501
f 445 502 501
f 445 503 502
f 445 504 503
f 505 504 445
f 446 505 445
f 505 506 504
f 505 507 506
f 507 508 506
f 509 394 389
f 510 506 508
f 446 447 505
f 447 507 505
f 508 511 510
f 507 512 508
f 508 513 511
f 448 507 447
f 513 514 511
f 515 449 394
f 513 508 512
f 512 507 448
f 514 513 516
f 512 517 513
f 516 518 514
f 515 519 449
f 450 512 448
f 450 451 512
f 451 517 512
f 516 520 518
f 516 513 517
f 519 452 449
f 452 519 521
f 517 522 516
f 516 522 520
f 523 520 522
f 453 517 451
f 453 522 517
f 523 522 455
f 524 523 455
f 522 453 404
f 455 522 404
f 521 454 452
f 454 521 525
f 455 456 524
f 526 524 456
f 526 456 457
f 454 525 527
f 454 527 528
f 457 408 460
f 528 459 454
f 459 528 529
f 529 463 459
f 463 529 530
f 462 460 410
f 530 531 463
f 531 465 463
f 465 531 532
f 466 533 462
f 532 467 465
f 467 532 534
f 469 533 466
f 533 469 535
f 534 536 467
f 536 471 467
f 536 537 471
f 469 470 535
f 472 535 470
f 537 476 471
f 474 475 538
f 539 476 537
f 475 477 538
f 540 541 477
f 538 477 541
f 477 479 540
f 480 540 479
f 540 542 541
f 542 543 541
f 482 484 480
f 540 480 484
f 542 540 484
f 542 484 544
f 481 476 539
f 487 481 539
f 487 539 545
f 484 483 489
f 484 489 544
f 544 543 542
f 543 544 546
f 490 487 545
f 547 546 544
f 491 490 548
f 489 491 549
f 549 544 489
f 548 549 491
f 549 548 550
f 547 544 549
f 547 549 551
f 550 552 549
f 552 551 549
f 553 496 435
f 435 554 553
f 554 435 436
f 496 553 497
f 436 555 554
f 436 438 555
f 556 498 497
f 499 557 438
f 439 557 499
f 557 439 558
f 437 498 556
f 556 500 437
f 558 439 559
f 441 559 439
f 440 437 500
f 559 441 560
f 442 560 441
f 561 560 442
f 442 443 561
f 443 501 561
f 503 504 562
f 563 562 504
f 504 506 563
f 509 389 564
f 565 506 510
f 510 511 566
f 509 567 394
f 511 514 568
f 394 567 515
f 515 567 569
f 570 514 518
f 518 571 570
f 515 569 572
f 572 519 515
f 571 518 520
f 573 571 520
f 520 523 573
f 519 572 574
f 519 574 575
f 521 519 575
f 576 523 524
f 577 576 524
f 577 524 526
f 526 578 577
f 521 575 579
f 525 521 579
f 457 578 526
f 579 580 525
f 581 577 578
f 580 582 525
f 527 525 582
f 583 576 577
f 577 581 583
f 460 578 457
f 527 582 584
f 528 527 584
f 578 460 581
f 585 528 584
f 529 528 586
f 585 586 528
f 587 583 581
f 529 586 588
f 581 462 587
f 462 581 460
f 588 589 529
f 530 529 589
f 531 530 589
f 589 590 531
f 587 533 591
f 533 587 462
f 590 592 531
f 532 531 592
f 591 593 594
f 591 535 593
f 535 591 533
f 592 534 532
f 534 592 595
f 595 536 534
f 596 593 535
f 472 596 535
f 472 474 596
f 537 536 597
f 474 598 596
f 539 537 597
f 598 474 538
f 597 599 539
f 598 538 541
f 541 600 598
f 599 545 539
f 600 541 543
f 543 601 600
f 543 602 601
f 602 543 546
f 546 603 602
f 548 490 545
f 545 604 548
f 605 546 547
f 546 605 603
f 550 548 604
f 606 605 547
f 552 550 604
f 604 607 552
f 547 551 606
f 552 608 551
f 608 606 551
f 552 607 608
f 609 610 497
f 609 497 553
f 611 555 438
f 610 556 497
f 557 611 438
f 556 612 500
f 612 613 500
f 614 561 501
f 614 501 502
f 444 500 615
f 502 616 614
f 444 615 389
f 616 502 503
f 616 503 562
f 389 615 564
f 506 617 563
f 565 617 506
f 566 565 510
f 618 566 511
f 568 618 511
f 568 514 570
f 567 619 569
f 572 569 619
f 619 574 572
f 574 619 620
f 575 574 620
f 620 579 575
f 573 523 576
f 576 621 573
f 576 622 621
f 622 576 583
f 584 582 623
f 623 585 584
f 583 624 622
f 586 585 623
f 624 583 587
f 589 625 590
f 590 625 626
f 626 592 590
f 592 626 627
f 593 628 594
f 627 595 592
f 595 627 629
f 628 630 631
f 630 628 593
f 629 536 595
f 629 632 536
f 633 630 593
f 593 596 633
f 632 634 536
f 635 631 630
f 597 536 634
f 630 636 635
f 630 633 636
f 598 633 596
f 634 637 597
f 633 598 636
f 638 635 636
f 599 597 637
f 636 600 638
f 600 636 598
f 600 601 638
f 599 639 545
f 545 639 640
f 640 604 545
f 604 640 641
f 607 604 641
f 607 641 642
f 608 643 606
f 642 644 607
f 608 607 644
f 645 643 608
f 644 645 608
f 646 610 647
f 647 610 609
f 554 648 553
f 554 555 648
f 609 553 649
f 650 553 648
f 648 555 611
f 646 612 610
f 553 650 649
f 651 648 611
f 612 556 610
f 652 649 650
f 651 611 557
f 648 653 650
f 648 651 653
f 654 651 557
f 557 558 654
f 652 650 655
f 655 650 653
f 558 559 654
f 559 656 654
f 651 654 653
f 655 653 657
f 658 653 654
f 560 656 559
f 653 658 657
f 659 654 656
f 654 659 658
f 660 659 656
f 560 661 656
f 561 661 560
f 614 661 561
f 662 500 613
f 615 500 662
f 661 660 656
f 614 663 661
f 616 663 614
f 615 662 564
f 664 659 660
f 661 665 660
f 665 661 663
f 616 666 663
f 562 666 616
f 562 563 666
f 660 667 664
f 660 665 667
f 668 665 663
f 668 663 666
f 563 617 666
f 509 564 669
f 665 670 667
f 670 665 668
f 565 671 617
f 671 565 566
f 670 668 672
f 666 673 668
f 673 666 617
f 566 618 671
f 509 669 674
f 673 617 671
f 567 509 674
f 618 675 671
f 675 618 568
f 668 673 672
f 676 673 671
f 676 671 675
f 568 570 675
f 674 619 567
f 677 676 675
f 619 674 678
f 675 571 677
f 571 675 570
f 678 620 619
f 573 679 571
f 620 678 680
f 679 573 621
f 579 620 680
f 579 680 681
f 681 580 579
f 580 681 682
f 683 621 622
f 682 582 580
f 682 623 582
f 586 623 684
f 684 588 586
f 588 684 685
f 685 589 588
f 589 685 625
f 591 686 624
f 624 587 591
f 686 591 594
f 687 627 626
f 628 688 686
f 686 594 628
f 631 689 688
f 688 628 631
f 629 627 687
f 631 690 689
f 632 629 691
f 631 692 690
f 634 632 691
f 692 631 635
f 691 637 634
f 635 693 692
f 637 691 694
f 693 635 638
f 638 695 693
f 599 637 696
f 695 638 601
f 696 639 599
f 694 696 637
f 601 697 695
f 697 601 602
f 639 696 698
f 602 603 697
f 699 603 605
f 698 640 639
f 605 606 699
f 699 606 700
f 606 643 701
f 701 700 606
f 644 642 702
f 643 703 701
f 702 704 644
f 643 645 703
f 645 644 704
f 645 704 703
f 705 706 707
f 705 708 709
f 709 706 705
f 706 646 707
f 707 646 647
f 647 710 707
f 711 709 708
f 710 647 609
f 712 713 711
f 709 711 713
f 649 714 609
f 646 706 612
f 712 715 713
f 716 713 715
f 713 717 709
f 706 709 717
f 612 706 717
f 714 649 652
f 713 716 718
f 719 652 655
f 720 721 716
f 721 718 716
f 713 718 722
f 655 723 719
f 723 655 657
f 721 724 718
f 722 718 724
f 717 613 612
f 722 725 713
f 726 723 657
f 725 717 713
f 658 726 657
f 724 727 722
f 613 717 728
f 727 725 722
f 717 725 728
f 728 662 613
f 726 658 729
f 725 727 730
f 725 731 728
f 662 728 731
f 729 658 659
f 731 725 732
f 662 731 564
f 730 732 725
f 659 733 729
f 731 732 734
f 659 664 733
f 664 735 733
f 564 731 736
f 736 669 564
f 664 737 735
f 737 664 667
f 667 738 737
f 738 667 670
f 734 732 739
f 736 731 734
f 670 740 738
f 736 741 669
f 670 742 740
f 742 670 672
f 674 669 741
f 736 734 743
f 743 741 736
f 672 744 742
f 743 734 745
f 672 746 744
f 746 672 673
f 745 734 739
f 673 747 746
f 747 673 676
f 745 748 743
f 741 749 674
f 678 674 749
f 750 676 677
f 750 677 571
f 571 751 750
f 751 571 679
f 743 749 741
f 743 748 752
f 749 743 752
f 678 749 680
f 680 749 752
f 753 679 621
f 621 683 753
f 752 681 680
f 754 681 752
f 753 683 622
f 755 682 681
f 622 756 753
f 754 755 681
f 755 757 682
f 757 623 682
f 622 758 756
f 622 624 758
f 757 684 623
f 757 759 684
f 759 685 684
f 758 624 760
f 759 761 685
f 761 625 685
f 686 760 624
f 760 686 762
f 761 626 625
f 686 688 762
f 626 761 763
f 687 626 763
f 764 762 689
f 762 688 689
f 687 763 765
f 687 765 629
f 689 690 766
f 765 767 629
f 768 766 690
f 629 767 769
f 629 769 691
f 692 768 690
f 769 770 691
f 768 771 772
f 692 693 768
f 771 768 693
f 691 773 694
f 773 691 770
f 695 771 693
f 773 774 694
f 775 776 772
f 775 772 771
f 697 771 695
f 777 775 771
f 694 774 778
f 694 778 696
f 777 771 697
f 778 698 696
f 779 776 775
f 780 779 775
f 603 777 697
f 698 778 781
f 777 780 775
f 699 777 603
f 777 699 780
f 781 640 698
f 640 781 782
f 780 699 700
f 782 641 640
f 782 783 641
f 780 700 784
f 783 642 641
f 701 784 700
f 642 783 702
f 784 703 785
f 703 784 701
f 785 704 702
f 785 703 704
f 786 711 708
f 787 788 712
f 712 711 787
f 609 714 710
f 788 789 715
f 788 715 712
f 716 715 789
f 714 652 719
f 726 790 723
f 790 726 791
f 729 792 726
f 793 730 727
f 726 792 791
f 792 729 733
f 730 793 794
f 730 794 732
f 733 795 792
f 732 794 796
f 733 735 795
f 732 796 739
f 797 792 795
f 737 798 735
f 798 737 738
f 739 796 799
f 740 798 738
f 735 800 795
f 735 798 800
f 795 801 797
f 795 800 801
f 798 802 800
f 744 740 742
f 799 745 739
f 799 803 745
f 804 801 800
f 800 802 804
f 802 798 740
f 802 740 744
f 746 747 805
f 806 747 676
f 676 750 806
f 745 803 748
f 802 807 804
f 744 805 802
f 805 744 746
f 807 802 805
f 808 809 750
f 808 750 751
f 751 810 808
f 810 751 679
f 811 808 810
f 679 753 810
f 809 808 812
f 808 811 812
f 813 810 753
f 811 810 813
f 748 814 752
f 754 752 814
f 812 811 815
f 753 756 813
f 816 811 813
f 755 814 817
f 814 755 754
f 811 816 815
f 813 756 816
f 757 817 818
f 817 757 755
f 758 816 756
f 816 758 819
f 819 758 760
f 759 818 820
f 818 759 757
f 762 819 760
f 820 761 759
f 820 821 761
f 762 764 822
f 761 821 823
f 763 761 823
f 824 825 764
f 764 689 766
f 766 824 764
f 823 826 763
f 825 824 827
f 826 765 763
f 828 824 766
f 824 828 827
f 829 827 828
f 766 768 828
f 828 772 830
f 772 828 768
f 829 831 827
f 828 830 829
f 769 832 770
f 776 829 830
f 832 773 770
f 830 772 776
f 773 833 774
f 778 774 833
f 834 835 829
f 829 776 834
f 834 836 835
f 776 779 834
f 781 778 837
f 838 834 779
f 838 836 834
f 779 780 839
f 839 838 779
f 782 781 840
f 840 841 782
f 838 842 843
f 838 839 842
f 784 839 780
f 782 841 783
f 785 842 839
f 842 783 841
f 839 784 785
f 702 783 842
f 702 842 785
f 844 705 707
f 844 707 710
f 786 787 711
f 708 845 786
f 845 708 705
f 705 844 845
f 710 846 844
f 787 847 788
f 789 788 847
f 710 714 846
f 789 848 716
f 849 716 848
f 850 714 719
f 716 849 720
f 720 849 851
f 851 721 720
f 723 790 719
f 721 851 852
f 852 724 721
f 724 852 853
f 854 790 791
f 724 853 727
f 727 853 855
f 793 727 855
f 791 856 854
f 856 791 792
f 792 857 856
f 792 858 857
f 858 792 797
f 799 796 859
f 859 860 799
f 797 861 858
f 861 797 801
f 801 862 861
f 803 799 860
f 804 863 801
f 804 864 863
f 864 804 807
f 807 865 864
f 805 747 866
f 747 806 866
f 867 806 750
f 867 750 809
f 803 868 748
f 865 807 805
f 805 866 865
f 809 869 867
f 868 870 748
f 869 809 812
f 812 871 869
f 872 814 748
f 812 873 871
f 873 812 815
f 873 815 874
f 874 815 816
f 819 874 816
f 874 819 875
f 876 818 817
f 876 877 818
f 877 820 818
f 877 821 820
f 822 764 878
f 819 762 875
f 875 762 822
f 878 764 825
f 825 827 879
f 879 827 880
f 765 826 881
f 880 827 831
f 767 765 881
f 881 769 767
f 769 881 882
f 832 769 882
f 831 883 880
f 883 884 880
f 773 832 885
f 831 829 883
f 835 883 829
f 773 885 886
f 833 773 886
f 886 887 833
f 883 835 888
f 889 888 835
f 833 890 778
f 891 889 835
f 835 836 891
f 890 837 778
f 889 891 892
f 893 892 891
f 840 781 837
f 893 891 836
f 843 893 836
f 893 843 840
f 836 838 843
f 840 843 841
f 841 843 842
f 787 894 847
f 894 787 786
f 786 895 894
f 845 895 786
f 844 846 896
f 848 789 847
f 714 897 846
f 898 894 895
f 847 898 848
f 898 847 894
f 848 898 849
f 895 899 898
f 900 899 895
f 851 849 898
f 898 852 851
f 899 901 898
f 901 852 898
f 902 719 790
f 903 899 900
f 852 901 853
f 904 901 899
f 899 903 904
f 854 905 790
f 853 901 904
f 853 904 855
f 855 904 906
f 854 856 905
f 906 793 855
f 907 856 857
f 793 906 908
f 908 794 793
f 857 909 907
f 909 857 858
f 794 908 910
f 796 794 910
f 911 909 858
f 796 910 859
f 861 911 858
f 912 803 860
f 863 862 801
f 913 803 912
f 803 913 868
f 863 864 914
f 915 806 867
f 864 865 914
f 916 865 866
f 917 866 806
f 806 915 917
f 865 916 914
f 866 917 916
f 915 918 917
f 869 919 867
f 867 919 915
f 748 870 872
f 915 920 918
f 920 915 919
f 919 869 871
f 814 872 921
f 919 922 920
f 871 874 919
f 873 874 871
f 814 921 923
f 919 874 922
f 924 920 922
f 923 925 814
f 814 925 817
f 817 925 926
f 875 922 874
f 817 926 927
f 922 875 822
f 817 927 876
f 822 878 928
f 928 878 929
f 877 930 821
f 825 929 878
f 930 931 821
f 932 929 879
f 929 825 879
f 821 931 823
f 823 931 933
f 933 826 823
f 934 932 879
f 879 880 934
f 826 933 935
f 881 826 935
f 935 936 881
f 936 882 881
f 882 936 937
f 934 880 884
f 937 832 882
f 832 937 885
f 884 883 938
f 883 888 938
f 887 890 833
f 888 939 938
f 939 888 889
f 889 940 939
f 890 941 837
f 940 889 892
f 837 941 942
f 892 943 940
f 942 944 837
f 840 837 944
f 944 945 840
f 943 892 893
f 943 893 840
f 840 945 943
f 844 946 845
f 946 844 896
f 846 947 896
f 897 947 846
f 845 948 895
f 845 946 948
f 714 850 897
f 900 895 948
f 902 850 719
f 948 949 900
f 950 902 790
f 903 900 949
f 790 905 950
f 905 951 950
f 952 903 949
f 953 904 903
f 904 953 906
f 903 954 953
f 954 903 952
f 905 856 951
f 856 955 951
f 953 908 906
f 908 953 954
f 856 907 955
f 907 909 955
f 910 908 954
f 954 956 910
f 909 957 955
f 909 911 957
f 910 956 859
f 958 859 956
f 911 861 957
f 860 859 958
f 860 958 912
f 861 959 957
f 861 862 959
f 912 958 960
f 862 961 959
f 863 961 862
f 913 912 960
f 961 962 959
f 960 868 913
f 963 868 960
f 914 961 863
f 963 964 868
f 965 962 961
f 870 868 964
f 965 961 914
f 962 966 967
f 966 962 965
f 968 872 964
f 969 967 966
f 964 872 870
f 914 970 965
f 970 916 917
f 970 917 918
f 965 970 966
f 970 914 916
f 918 924 970
f 924 918 920
f 968 921 872
f 968 971 921
f 971 923 921
f 924 972 970
f 925 923 971
f 924 973 972
f 925 971 974
f 975 966 970
f 973 924 922
f 926 925 974
f 822 973 922
f 926 974 927
f 822 928 973
f 927 974 976
f 928 972 973
f 972 928 929
f 966 977 978
f 876 927 976
f 970 972 932
f 877 876 976
f 930 877 976
f 975 977 966
f 970 932 975
f 979 977 975
f 931 930 977
f 977 979 931
f 932 972 929
f 975 980 979
f 981 975 932
f 975 981 982
f 933 931 979
f 933 979 980
f 934 981 932
f 980 935 933
f 982 980 975
f 980 936 935
f 980 983 936
f 983 980 982
f 884 981 934
f 937 936 983
f 937 983 982
f 982 981 884
f 984 937 982
f 982 985 984
f 885 937 984
f 985 986 984
f 982 884 985
f 987 884 938
f 886 885 984
f 984 986 886
f 887 886 986
f 985 884 987
f 939 987 938
f 986 890 887
f 890 986 985
f 939 940 987
f 941 890 985
f 940 985 987
f 985 944 941
f 944 985 940
f 941 944 942
f 940 943 944
f 945 944 943
f 896 988 946
f 988 896 947
f 947 989 988
f 897 989 947
f 946 988 948
f 897 990 989
f 850 990 897
f 991 988 989
f 991 948 988
f 902 990 850
f 948 991 949
f 989 990 991
f 992 991 990
f 902 993 990
f 950 993 902
f 992 990 993
f 994 993 950
f 993 994 992
f 994 950 951
f 991 952 949
f 995 991 992
f 991 956 952
f 991 995 956
f 951 996 994
f 952 956 954
f 996 951 955
f 992 994 996
f 997 992 996
f 956 995 958
f 997 996 955
f 992 998 995
f 955 957 997
f 958 995 998
f 997 967 992
f 959 997 957
f 958 998 960
f 963 998 992
f 999 997 959
f 998 963 960
f 959 962 999
f 992 1000 963
f 967 997 999
f 963 1000 964
f 999 962 967
f 1001 992 967
f 1000 968 964
f 1000 992 1001
f 978 1001 967
f 971 968 1000
f 971 1000 1001
f 1002 1001 978
f 978 967 969
f 971 1001 974
f 974 1001 1002
f 966 978 969
f 974 1002 976
f 1002 930 976
f 930 1002 978
f 978 977 930
