v -136.334946 61.349373 -32.841705

v -131.158386 64.385437 -32.790344

v -131.611053 62.763123 -33.798996

v -135.497192 60.817169 -33.648102

v -139.409973 58.922943 -32.974518

v -138.478989 58.388657 -33.650360

v -139.233673 58.455856 -32.695923

v -128.496567 63.829285 -32.686584

v -137.408203 56.759766 -33.931396

v -145.002441 54.297119 -33.648209

v -145.264969 54.825401 -32.929909

v -151.444031 50.261993 -33.677925

v -152.055283 50.338905 -32.797195

v -154.438431 47.885483 -33.667336

v -155.126389 47.950790 -32.830952

v -128.019958 61.797554 -33.854229

v -156.637054 46.222790 -33.228912

v -155.176239 45.914845 -33.316143

v -146.338379 50.105591 -33.968552

v -148.639023 48.498905 -33.731243

v -157.834000 45.129375 -33.061104

v -126.496338 64.265381 -32.292603

v -123.302734 65.036713 -32.240692

v -154.275009 44.880867 -32.271725

v -118.970917 62.677582 -33.839676

v -139.504883 50.449432 -33.945232

v -141.006622 49.242767 -33.626862

v -140.374191 47.590088 -32.326752

v -147.863754 46.598740 -32.353889

v -118.955811 65.659485 -32.000488

v -112.752075 64.889465 -33.544189

v -130.685516 45.841469 -33.912956

v -111.538971 66.847443 -31.956783

v -115.590698 66.998367 -31.959702

v -136.774323 47.676086 -33.433899

v -111.160172 63.431076 -33.806725

v -108.086792 64.776443 -31.997204

v -111.323975 51.501831 -33.858414

v -113.581528 48.744724 -33.875206

v -126.205902 44.137421 -33.930824

v -101.201050 60.254898 -32.144268

v -126.902618 42.472702 -33.310852

v -103.437988 58.504612 -33.718449

v -104.920395 55.256256 -33.761436

v -101.541260 57.802574 -32.417023

v -116.686768 40.971436 -33.907814

v -111.236847 49.541687 -33.307129

v -106.171005 51.164948 -32.134247

v -111.128967 47.350304 -33.319969

v -119.958466 40.051208 -33.174164

v -115.433334 38.618927 -33.335854

v -109.141373 40.671783 -33.851894

v -107.626358 41.300510 -32.939468

v -111.239212 38.316788 -33.684326

v -111.290268 36.800808 -32.661018

v -108.258148 39.038513 -33.073730

v -107.092712 37.698441 -32.034660

v -124.711632 69.327927 -30.907436

v -120.724472 71.668312 -30.858536

v -123.512566 68.998886 -31.774132

v -115.604958 74.221260 -31.311954

v -120.301910 70.717102 -31.792938

v -126.315804 67.778954 -31.042320

v -125.325562 67.099136 -31.767197

v -127.699707 66.549057 -31.234024

v -131.215515 63.802856 -30.226074

v -130.708420 64.800262 -31.040260

v -113.553421 74.952614 -31.023724

v -112.373169 72.877319 -31.837582

v -136.053711 59.349922 -29.065674

v -111.698753 74.358643 -30.846836

v -110.095879 73.257614 -31.116966

v -144.464905 53.763962 -30.465851

v -152.887756 48.666626 -31.351440

v -155.225342 46.388683 -30.824341

v -156.954330 45.052742 -31.365080

v -106.739746 68.058556 -31.823994

v -108.714493 71.619003 -31.338356

v -153.378967 44.087166 -30.598881

v -149.372574 43.266029 -31.419209

v -107.154182 70.417412 -30.824375

v -147.470612 43.672890 -31.592609

v -105.001518 68.534615 -30.915951

v -145.225769 44.434303 -31.850714

v -140.773636 44.288483 -31.800127

v -145.303024 43.619999 -30.945446

v -103.155334 65.939117 -31.785931

v -142.238220 43.537689 -31.118015

v -102.194138 67.055916 -30.740429

v -137.022736 43.733906 -31.579830

v -134.010529 44.404404 -32.091187

v -138.970276 43.543247 -31.039785

v -100.332397 64.343391 -31.228649

v -134.657288 43.401367 -31.162987

v -130.681015 42.623421 -31.015171

v -97.775543 59.008026 -31.799475

v -95.988113 60.555431 -30.353302

v -100.470306 56.185471 -31.921555

v -128.145782 41.390991 -31.026611

v -96.826897 55.830559 -31.819195

v -102.809250 54.293587 -32.195915

v -120.026993 39.002945 -31.301508

v -107.519760 48.811951 -30.521698

v -108.895294 46.403122 -30.959198

v -103.313950 50.629787 -31.802515

v -98.336372 51.474136 -31.566849

v -101.272476 48.080994 -30.080145

v -95.090164 52.736904 -30.120041

v -94.376907 56.022163 -30.073601

v -96.586113 50.107437 -30.060364

v -106.135391 39.504280 -31.612198

v -115.701675 37.352932 -30.803610

v -109.444077 35.511257 -30.465448

v -108.293701 34.866123 -31.428623

v -100.096733 33.668148 -31.439056

v -105.647911 33.464920 -31.440990

v -100.786789 32.087822 -31.836582

v -102.393761 31.457176 -31.696571

v -103.459846 31.693466 -30.716259

v -99.168167 31.350479 -30.980072

v -99.723816 30.100365 -30.899654

v -121.040283 70.128845 -27.281366

v -116.991959 72.782227 -29.362000

v -113.267029 73.788254 -27.043461

v -125.821243 66.503281 -27.192501

v -131.384308 61.733795 -27.360769

v -140.034332 56.626286 -29.177551

v -149.919800 50.139160 -29.178116

v -144.550537 53.371784 -29.192993

v -152.864288 48.307514 -29.160095

v -153.882690 47.024353 -29.170700

v -154.498672 45.880554 -29.486961

v -108.898743 71.247177 -27.287750

v -150.464447 43.858913 -29.263519

v -106.257965 69.551643 -27.107140

v -147.319290 44.149139 -27.966583

v -104.556374 68.629677 -26.964479

v -142.672913 44.312145 -27.792511

v -139.933716 44.344963 -28.477394

v -137.695740 44.334618 -28.018097

v -99.570335 65.361938 -29.066162

v -97.640007 64.354141 -29.182796

v -130.655670 42.844982 -29.340103

v -95.279327 61.637009 -29.935658

v -95.195671 63.373646 -28.829990

v -127.217865 41.925953 -27.497078

v -92.934807 61.861305 -28.863213

v -91.636215 60.314941 -29.166195

v -126.013489 41.420578 -29.246361

v -120.459518 40.086567 -29.343391

v -90.955826 54.306694 -29.881283

v -107.335861 47.271332 -30.042109

v -89.705307 56.873760 -29.134804

v -92.635193 50.800724 -29.877256

v -104.509842 40.746063 -30.087933

v -112.862373 38.403290 -29.071449

v -89.783600 53.302673 -29.227905

v -100.356812 42.876495 -30.000525

v -93.273178 46.885612 -29.927343

v -91.859802 49.573132 -29.508636

v -110.486061 37.093960 -29.064507

v -91.284401 46.555546 -28.964462

v -98.786194 41.644638 -29.301083

v -94.051346 44.505676 -29.028477

v -100.623665 40.574852 -29.832781

v -107.672211 35.498184 -29.064699

v -101.450600 37.042007 -30.225967

v -99.838005 39.342205 -29.087105

v -100.110687 38.184452 -29.287786

v -105.238846 34.272511 -28.485954

v -100.518913 36.921715 -29.051884

v -102.507782 33.036926 -28.133514

v -98.513313 32.970207 -29.138983

v -99.350380 30.586594 -28.911602

v -98.474731 31.571428 -29.087481

v -124.812096 68.073029 -27.129044

v -116.717377 72.246132 -27.143696

v -131.339905 63.056839 -27.169151

v -110.415306 73.246628 -26.944286

v -136.631668 58.723373 -27.207611

v -140.266678 57.546082 -26.690781

v -139.614578 56.928734 -27.240372

v -144.414795 55.086914 -26.793762

v -150.062469 51.762573 -26.726883

v -153.476563 50.000977 -27.057556

v -155.889404 48.139740 -26.887085

v -155.462524 46.974579 -27.144592

v -153.604538 44.926987 -26.927837

v -102.081871 67.064186 -24.747538

v -133.789124 43.618088 -27.275717

v -94.185722 62.746262 -24.999840

v -90.134727 59.657425 -23.903381

v -121.078094 40.551025 -27.045029

v -88.827301 57.653671 -26.215210

v -112.066437 38.127998 -27.109123

v -88.038284 54.990280 -27.031921

v -87.953308 52.198349 -27.084625

v -88.697479 49.208298 -26.999985

v -109.430786 36.564682 -26.408302

v -90.300919 47.324272 -27.303223

v -93.442863 44.656078 -25.508606

v -99.682297 40.633259 -25.811157

v -101.774551 39.239086 -25.112701

v -101.556152 36.487518 -27.302124

v -100.010956 33.821594 -28.271927

v -103.019707 34.201912 -26.997765

v -119.663071 85.892883 -25.739441

v -123.750427 84.384796 -24.422638

v -121.079468 86.953796 -24.408020

v -123.142090 81.836060 -25.802002

v -117.768547 86.527031 -25.038284

v -117.436066 84.607498 -25.819126

v -119.137268 87.400795 -25.098335

v -119.530708 84.207886 -26.090025

v -124.269142 79.101105 -26.102354

v -126.503944 80.919434 -24.407394

v -128.122299 76.762131 -26.049133

v -134.139954 73.342194 -24.450775

v -129.698120 78.597992 -24.451828

v -112.871284 78.004486 -24.944077

v -113.080086 76.270508 -26.050301

v -124.304596 70.664185 -26.164822

v -119.184570 72.924530 -26.148293

v -132.345016 71.468895 -26.117455

v -127.167351 67.758713 -26.197105

v -136.494324 67.788269 -26.176178

v -144.853119 61.920776 -25.664124

v -141.272446 64.888229 -26.117500

v -143.598511 60.722534 -26.240410

v -148.491058 57.312805 -26.199936

v -148.588409 59.536621 -25.001709

v -139.301514 59.553955 -26.245289

v -150.671722 56.838928 -25.325500

v -151.976044 55.863312 -25.080505

v -152.452301 53.338989 -26.153076

v -154.217606 53.529907 -25.169647

v -111.743095 77.093163 -25.120531

v -132.794022 63.381500 -26.275589

v -146.816406 55.542969 -26.286255

v -155.454834 50.652588 -26.079834

v -157.188797 50.571701 -25.226021

v -111.697845 75.064392 -26.106796

v -158.620544 48.144432 -25.350243

v -158.502045 45.813431 -25.428223

v -109.421272 74.410156 -25.236782

v -107.752571 72.851974 -25.112019

v -157.740265 43.972069 -23.671238

v -106.168900 71.647041 -24.924950

v -149.765045 43.883774 -24.778931

v -104.884186 70.636459 -23.945953

v -144.622452 44.126728 -25.326996

v -103.108276 69.020874 -21.981537

v -141.091217 43.786560 -24.984245

v -136.018646 42.789539 -25.176929

v -97.231613 64.604462 -21.001007

v -128.441650 41.409668 -25.077394

v -123.131287 40.285950 -25.081276

v -120.483063 39.245178 -25.059799

v -112.783813 36.515717 -23.592651

v -87.860977 55.365273 -23.331257

v -87.967560 49.648911 -22.934273

v -89.290237 47.283737 -23.287231

v -107.623680 35.075504 -23.715446

v -103.229462 37.678989 -25.031158

v -103.989166 34.739136 -25.292709

v -120.008713 88.033386 -23.293060

v -124.137497 90.248154 -22.355431

v -124.694641 86.961853 -23.973419

v -129.011475 85.974731 -22.392502

v -129.331421 82.187805 -23.988831

v -135.228149 80.108673 -22.488510

v -134.208160 78.190552 -23.934174

v -118.244675 86.226318 -23.118286

v -137.376068 73.700836 -24.070129

v -138.688782 75.600845 -22.609161

v -139.182861 68.757233 -24.643494

v -141.211746 70.122314 -23.854309

v -143.746948 67.489990 -23.599487

v -146.414063 64.400696 -23.474121

v -147.776123 62.546021 -23.427856

v -113.337547 77.744621 -23.238434

v -150.752045 59.053005 -21.693924

v -152.109573 57.215427 -21.498535

v -155.104980 52.540276 -21.665100

v -157.383911 48.667179 -21.591644

v -159.079269 46.280098 -23.523376

v -110.830429 74.921745 -21.509888

v -108.564713 72.624283 -21.636665

v -154.014969 43.286613 -23.308128

v -147.005722 42.888412 -21.560051

v -143.508270 42.974049 -23.376228

v -137.727844 41.144897 -23.693359

v -133.550171 40.254028 -23.790283

v -127.246033 38.408081 -23.573547

v -91.985023 61.312332 -21.450344

v -123.944801 38.015713 -23.582237

v -87.774742 58.456001 -21.890575

v -119.762718 36.477226 -22.213169

v -116.870697 36.675453 -22.900352

v -87.514656 52.780807 -23.159592

v -95.369522 42.954620 -23.096069

v -100.236732 40.043224 -22.034195

v -103.871277 36.058662 -21.647118

v -104.959053 33.556160 -21.622066

v -123.138908 94.659821 -21.063034

v -123.589783 94.155037 -22.002680

v -125.191078 95.560043 -21.219543

v -126.201370 93.194809 -22.219891

v -128.644531 93.594238 -21.312744

v -132.563904 88.428284 -21.892822

v -132.257034 86.936127 -22.255989

v -122.178734 90.566040 -22.219028

v -121.491722 92.094475 -21.170509

v -136.228638 83.459412 -22.052536

v -120.158844 89.057816 -21.461140

v -138.517746 80.958954 -21.867584

v -141.747925 75.644623 -22.181732

v -139.992889 79.733521 -21.459595

v -142.162018 77.423515 -21.348602

v -143.097565 74.640854 -21.370964

v -119.124237 87.220482 -20.367157

v -143.445862 73.188446 -21.706787

v -142.909058 71.584900 -22.298584

v -143.927246 71.745888 -21.313858

v -143.865799 70.378937 -21.770325

v -115.298645 81.250046 -20.719315

v -143.972549 69.301376 -21.430342

v -144.792114 68.196854 -21.729713

v -145.938049 66.947899 -21.601563

v -146.858551 65.331146 -21.687183

v -147.720490 63.640945 -20.952934

v -148.589981 62.193699 -21.623034

v -149.254166 60.886971 -21.085709

v -149.712402 59.774765 -20.896637

v -113.029160 77.374168 -21.319145

v -153.312317 55.248032 -21.483654

v -157.459244 45.003448 -21.428497

v -154.782303 43.622883 -21.554686

v -106.616959 71.516937 -19.447212

v -150.071060 43.026260 -21.536350

v -145.276978 42.431683 -21.558325

v -101.424881 67.848282 -20.580555

v -141.446228 41.133110 -21.483700

v -99.884979 66.503082 -19.485476

v -138.763947 39.820129 -21.473202

v -137.015961 38.147781 -21.519615

v -130.846298 36.597126 -21.471581

v -127.669464 36.082279 -21.257200

v -124.968094 36.147182 -21.404160

v -121.789566 36.227726 -21.525038

v -85.790321 57.648781 -21.218607

v -86.230728 56.415932 -22.112787

v -86.267525 53.465946 -22.319237

v -83.585899 56.005314 -21.281864

v -116.604645 36.145847 -21.095055

v -113.376411 35.487988 -21.303371

v -81.436462 54.823792 -21.301737

v -81.511322 51.921093 -22.184139

v -86.778893 48.072693 -22.282528

v -79.571846 51.262352 -21.130127

v -81.444664 49.053890 -22.157028

v -90.930908 44.287415 -22.315857

v -97.014267 41.178604 -21.192078

v -101.496201 39.721493 -20.898209

v -103.616364 37.841980 -20.808533

v -88.532990 43.918968 -21.938341

v -92.896179 41.653336 -20.291199

v -82.983627 45.940659 -22.211168

v -79.906906 49.319832 -21.224358

v -86.381691 43.920868 -21.926601

v -103.669533 34.169094 -21.425797

v -80.986374 45.626842 -21.213604

v -84.677406 43.156784 -21.113506

v -129.858185 97.312256 -19.256317

v -127.311035 97.417213 -19.284151

v -126.697144 95.563232 -20.697998

v -130.800049 94.408447 -20.074707

v -131.507294 95.299210 -19.382149

v -133.859802 92.584900 -19.289780

v -134.008301 90.201172 -20.227539

v -135.604004 89.677032 -19.439880

v -137.032257 87.524597 -19.371887

v -137.942001 85.266014 -19.454224

v -138.640137 83.938675 -19.530090

v -122.230255 92.829445 -17.488319

v -139.478912 82.684784 -19.461975

v -139.701538 81.469009 -19.370346

v -140.222031 80.321083 -19.002716

v -141.123032 79.200203 -19.355469

v -141.906921 77.890854 -19.455933

v -142.634155 73.501305 -19.460815

v -142.751648 71.246452 -19.376221

v -117.386795 85.642715 -17.463585

v -142.871338 68.871216 -19.448853

v -144.320313 67.456963 -20.597809

v -146.236725 65.302696 -20.762115

v -144.023178 62.769501 -20.291939

v -147.697952 62.006168 -20.652124

v -141.740967 64.955566 -18.756104

v -144.424210 59.369240 -20.425478

v -149.766373 58.433685 -20.702423

v -151.660400 55.127239 -20.547993

v -112.276489 79.441452 -17.522797

v -142.431091 58.694733 -18.970795

v -153.885971 51.408916 -20.570879

v -144.460846 56.036694 -20.450266

v -156.447021 47.690002 -20.730057

v -108.746483 73.374260 -19.368164

v -155.946930 45.614006 -20.635576

v -144.653107 51.515553 -20.503265

v -143.442902 51.525558 -20.226944

v -145.891449 43.885826 -20.530516

v -144.969360 46.908844 -20.476765

v -150.454529 44.332375 -20.626547

v -141.910522 50.617683 -18.999207

v -104.417267 70.130859 -15.718384

v -143.543396 43.813858 -18.875275

v -102.031662 67.677094 -18.723190

v -144.699310 42.353626 -19.676659

v -141.717209 41.158058 -19.633581

v -97.233154 64.272194 -19.352859

v -139.811905 40.481266 -18.367861

v -138.423737 38.106720 -19.486847

v -94.420906 61.967308 -19.192024

v -131.566498 36.204334 -19.406971

v -91.724335 60.583553 -19.137047

v -88.821465 59.581936 -19.394178

v -129.624420 35.806267 -17.609627

v -86.330605 58.180279 -19.336596

v -121.844429 37.141148 -19.538864

v -120.197586 37.561192 -19.016228

v -83.268379 56.405926 -19.270424

v -117.502251 37.447483 -19.525883

v -113.733116 37.205750 -19.507351

v -81.719185 55.181881 -19.393280

v -108.895416 35.217102 -20.525085

v -109.274338 36.621918 -19.371826

v -106.088928 38.545204 -19.480347

v -104.769928 36.928955 -20.622681

v -103.914963 39.094883 -19.439049

v -98.832527 40.535515 -18.353607

v -105.266541 34.077705 -20.770988

v -80.429367 47.100857 -16.940987

v -90.398560 41.569603 -19.327728

v -87.952972 41.944920 -19.334244

v -81.506989 45.479324 -16.400085

v -82.959137 43.852726 -16.510162

v -130.781281 96.515991 -17.806671

v -128.100311 97.951042 -17.705322

v -132.275024 94.631119 -17.504822

v -133.563232 92.832573 -18.056824

v -124.675278 95.765442 -17.349033

v -135.705261 90.520096 -16.719849

v -137.664474 84.149712 -15.733099

v -138.678452 82.090813 -16.086853

v -118.205757 86.277054 -17.500465

v -140.435425 75.641068 -17.648590

v -140.246170 72.738655 -17.369415

v -140.229828 70.110680 -17.311722

v -140.347137 67.443489 -17.705475

v -114.888176 81.972885 -17.516090

v -140.005081 64.722900 -17.575256

v -139.984039 62.289825 -17.795135

v -140.376099 58.840118 -18.286346

v -139.384628 60.362015 -17.214462

v -139.369141 58.123547 -17.624435

v -107.895966 74.423538 -17.527313

v -110.916321 79.589539 -15.463463

v -139.464172 55.713112 -17.973633

v -139.356628 52.943707 -17.805283

v -139.549210 49.471695 -17.775223

v -140.064484 46.220062 -18.016678

v -140.705673 43.986496 -18.396523

v -139.328568 44.196178 -17.546265

v -140.232941 41.949921 -18.421204

v -100.579819 64.530838 -17.453964

v -98.779877 62.598518 -17.401398

v -140.411835 38.449009 -17.623672

v -96.427399 59.952209 -17.460655

v -139.367203 35.821064 -17.730156

v -141.371368 36.515949 -17.596432

v -135.650482 35.133106 -17.584442

v -93.693558 58.963467 -17.497135

v -132.941071 35.161266 -17.617100

v -131.364212 35.479706 -17.615932

v -88.116493 57.515907 -17.222198

v -126.492050 36.374363 -16.070068

v -122.862946 37.174828 -16.879314

v -116.762482 37.685898 -17.486717

v -83.227676 54.904663 -17.169556

v -113.174438 37.256844 -17.394196

v -110.727448 37.195259 -15.790649

v -81.290672 51.698669 -15.424561

v -105.745468 39.084267 -15.680099

v -102.031967 39.693260 -15.600609

v -99.842438 39.956860 -15.569881

v -97.254791 40.492210 -15.419159

v -94.968346 40.855221 -16.059278

v -80.411446 48.965607 -13.628706

v -90.860725 41.171703 -14.698212

v -86.408737 41.861145 -15.577759

v -84.136467 42.698944 -15.235077

v -128.766235 105.555511 -15.754547

v -132.474243 103.980789 -16.353081

v -132.055237 106.876465 -14.978821

v -128.294312 103.847328 -16.397974

v -133.117218 99.930908 -16.314438

v -133.983643 100.651245 -15.790283

v -126.835602 104.587158 -15.476387

v -129.409363 98.965065 -16.543198

v -134.278564 96.992592 -15.800964

v -125.163147 98.584595 -16.441050

v -132.135132 96.521240 -16.713989

v -134.930176 92.903076 -16.025391

v -121.521973 95.321655 -15.502258

v -137.065155 86.230682 -14.039429

v -118.710724 90.923218 -15.393944

v -139.438705 79.225815 -14.887268

v -140.028931 75.328140 -15.726181

v -115.176270 85.355865 -15.591766

v -114.225464 84.746353 -15.408691

v -139.692963 65.282433 -15.244934

v -139.064316 58.646206 -15.678345

v -107.853806 75.433914 -15.435461

v -139.013962 56.213760 -15.597107

v -138.938416 54.364014 -15.668152

v -139.053986 52.232971 -15.686615

v -139.284592 48.922707 -15.721664

v -139.691376 45.573730 -15.585632

v -101.719910 64.310150 -13.957794

v -139.405182 42.096596 -15.731323

v -139.961090 39.652519 -15.837814

v -141.047653 37.305397 -16.237579

v -99.022293 61.344376 -14.146790

v -141.468689 35.260887 -15.704674

v -139.945648 35.267342 -15.828997

v -97.021469 59.730354 -13.639189

v -95.208076 58.186356 -13.596928

v -93.292648 57.878319 -14.995605

v -130.229248 36.100990 -13.924104

v -89.949760 57.223026 -15.449791

v -85.015625 53.819183 -15.062485

v -117.924454 37.174534 -14.507690

v -112.260735 36.430489 -15.549908

v -108.542084 38.595032 -15.650635

v -104.043091 39.560638 -15.232513

v -133.365112 109.747299 -13.654175

v -134.650879 104.972168 -14.018555

v -131.806931 110.369652 -13.513176

v -129.960312 109.047577 -13.500200

v -127.455055 105.974861 -13.710121

v -137.412903 101.493073 -11.247864

v -135.908447 95.987549 -13.450928

v -124.027168 100.335083 -12.640656

v -136.337280 91.473175 -13.643188

v -139.259033 83.505859 -12.070923

v -118.987839 91.246262 -13.110046

v -140.250122 79.231812 -11.457397

v -115.195496 85.613998 -13.468643

v -140.603943 75.069511 -11.743164

v -140.676880 71.479614 -12.056152

v -111.393173 79.809944 -13.528442

v -139.806458 59.096466 -13.771118

v -108.881592 75.075790 -13.129089

v -140.306946 54.990551 -13.659058

v -141.250549 50.139893 -13.764130

v -104.747559 67.792480 -13.204346

v -142.578918 45.319336 -14.035034

v -140.637604 41.055374 -14.976929

v -142.739746 42.496490 -14.597260

v -143.679169 43.482533 -13.793686

v -144.932617 40.484215 -13.760040

v -144.328156 38.075233 -14.682968

v -142.266357 37.312263 -15.029831

v -146.003677 36.872360 -13.849930

v -146.015381 34.089489 -13.775211

v -142.833145 35.127380 -14.469995

v -145.757996 32.950333 -13.002399

v -139.093231 34.907394 -13.884357

v -134.894669 35.132111 -13.837345

v -132.266739 35.581104 -13.840603

v -127.423790 36.132557 -13.800182

v -90.952393 54.249207 -13.248901

v -124.289833 36.443985 -13.736832

v -122.143806 36.922279 -13.712173

v -119.707825 36.649445 -12.675171

v -88.083755 51.692089 -12.665751

v -114.549240 37.068169 -13.551826

v -83.981537 51.198204 -13.109165

v -110.063538 40.258385 -12.551361

v -106.559494 40.224030 -13.809692

v -112.451302 37.241699 -13.826050

v -102.129166 41.004700 -13.620514

v -81.587326 49.573288 -13.245712

v -99.473343 41.065247 -13.816223

v -95.908470 41.722862 -11.711037

v -92.713745 41.554466 -11.759743

v -80.206078 45.471451 -13.542299

v -87.756287 40.962460 -13.675385

v -81.487335 44.039444 -13.809196

v -82.861748 42.823307 -13.568725

v -83.714249 41.604286 -13.630863

v -81.455681 42.646870 -13.584625

v -132.751541 110.634857 -11.342804

v -134.511169 109.749786 -11.476501

v -131.024811 110.025871 -10.655586

v -136.196289 105.867981 -11.527100

v -129.094910 108.000427 -10.808105

v -138.216919 96.732056 -11.260742

v -139.331055 90.331055 -10.916992

v -121.340424 95.049637 -11.396484

v -117.453033 86.791626 -11.440186

v -114.858643 82.496826 -11.953369

v -139.977325 65.570656 -7.744080

v -112.978760 76.892700 -11.466797

v -139.908936 56.418415 -9.977966

v -112.333740 71.755005 -9.827454

v -108.828491 69.564667 -11.945129

v -140.826050 52.268860 -9.359009

v -143.707214 45.417091 -9.032715

v -102.603760 63.431099 -12.516846

v -144.905045 41.604118 -9.878723

v -101.755432 60.561188 -10.670532

v -147.394714 34.123169 -11.196899

v -146.823486 32.602539 -12.353027

v -99.505493 59.040466 -12.107300

v -139.352448 33.211494 -12.888045

v -145.816742 29.398468 -12.656296

v -148.611084 29.439697 -10.989929

v -97.761292 58.498325 -12.691551

v -147.446411 27.646328 -11.104401

v -133.618408 33.761047 -12.871261

v -140.220306 26.789700 -12.824032

v -97.573059 54.447571 -12.461746

v -100.982605 57.376774 -10.817261

v -129.943649 34.468605 -12.879671

v -93.303253 54.003601 -12.651558

v -141.854630 24.781967 -11.054985

v -124.421738 34.833115 -12.827049

v -134.847534 27.653120 -12.805263

v -94.301064 49.075050 -12.569399

v -126.269325 33.273834 -12.783367

v -99.904526 53.539955 -10.829002

v -122.884430 34.158401 -11.850235

v -136.351852 26.211678 -12.125504

v -139.120026 24.473938 -10.445984

v -125.422005 31.948868 -12.112274

v -96.246223 47.180141 -10.839169

v -114.875763 38.083885 -11.807373

v -133.767303 26.592697 -11.936615

v -108.812080 40.589291 -11.927185

v -90.904442 46.580959 -12.576133

v -102.978691 41.483093 -11.707809

v -104.316971 40.955265 -9.846825

v -99.433342 41.920578 -11.558952

v -81.585205 47.330776 -12.657850

v -86.006531 44.464359 -12.601887

v -88.231934 42.567749 -11.041466

v -85.291496 42.255245 -11.665848

v -82.946503 43.747696 -12.702675

v -87.688736 40.965317 -11.723719

v -83.181358 42.326641 -11.650728

v -83.795998 41.117847 -11.672322

v -81.436966 41.916386 -11.676544

v -133.479248 113.607605 -9.659012

v -136.418274 114.057526 -10.589317

v -135.553741 115.480568 -9.716774

v -138.802002 113.405556 -9.758179

v -138.513504 110.670120 -10.611229

v -140.013519 110.929512 -9.665062

v -133.981430 111.600067 -10.710281

v -139.844238 108.330078 -10.287582

v -136.370148 109.059608 -10.790604

v -137.478363 104.883118 -10.894989

v -140.444641 103.712814 -10.407593

v -140.073242 97.509521 -10.380981

v -142.092102 98.834778 -9.048859

v -126.134651 101.917595 -9.035248

v -141.795700 93.309326 -8.983192

v -141.526367 88.853531 -9.204865

v -142.111450 83.950378 -9.462769

v -142.462250 76.344910 -7.817688

v -117.622772 83.092728 -7.830170

v -115.763611 79.710907 -9.785156

v -140.259338 61.660278 -7.110840

v -114.332336 75.673279 -9.927383

v -108.772804 65.413361 -9.665527

v -142.336853 48.880283 -8.521973

v -106.616180 64.099548 -9.955750

v -146.350586 37.195572 -10.000977

v -103.988029 61.987785 -10.019608

v -149.067932 34.587048 -7.950348

v -149.796875 30.603403 -10.132935

v -102.356827 58.120750 -9.784668

v -151.703522 28.027634 -10.041656

v -152.126556 25.660599 -10.943733

v -154.143677 25.614799 -10.066956

v -103.227203 54.417461 -10.232330

v -155.696823 22.920849 -10.166733

v -151.169250 21.031572 -10.976975

v -154.326447 21.946228 -10.970749

v -102.750977 51.864902 -10.680508

v -155.153900 19.951180 -10.220695

v -104.225525 50.573044 -9.886108

v -104.061768 47.698566 -10.389648

v -102.985397 46.049789 -10.746233

v -144.384399 23.556549 -10.743999

v -151.692703 19.308781 -10.002678

v -148.346069 20.477398 -10.087559

v -149.556870 20.185648 -9.973223

v -144.198074 22.701424 -10.057652

v -97.951508 43.550438 -10.772780

v -141.126709 23.844141 -9.980859

v -115.120827 38.039497 -9.762856

v -122.554909 33.727081 -9.869583

v -136.306290 25.476099 -9.947884

v -104.495789 42.299576 -9.940247

v -107.033661 43.401848 -7.826660

v -111.114136 40.002460 -9.920471

v -124.780228 31.488083 -9.929245

v -133.444672 26.651558 -9.742920

v -108.636101 40.481339 -9.706230

v -128.735138 28.889709 -9.857971

v -129.568298 28.036884 -7.846375

v -102.787010 42.705872 -10.886536

v -105.996872 40.923965 -9.701294

v -93.407715 42.944916 -10.845089

v -135.954666 114.726532 -7.746338

v -138.674286 112.814087 -7.670776

v -134.419250 114.211601 -7.781296

v -140.409485 110.402496 -7.894592

v -132.744843 112.363541 -7.543251

v -141.782700 107.912811 -7.563217

v -131.419312 110.585876 -7.481979

v -142.827637 105.170792 -7.998291

v -144.211380 104.013306 -7.505058

v -142.422119 102.995132 -9.007446

v -145.445480 100.632896 -7.772598

v -129.267136 107.527206 -7.295151

v -144.369049 99.447372 -8.650421

v -146.164505 97.146194 -7.673309

v -144.575684 95.834061 -8.709282

v -145.935913 95.264519 -7.808235

v -145.696732 93.167015 -7.916260

v -144.317078 91.651413 -8.723511

v -145.461884 90.755310 -7.944870

v -143.815491 87.341675 -8.685974

v -145.112610 87.864769 -7.885574

v -124.516266 99.030365 -6.670227

v -144.578323 84.666412 -7.923218

v -121.977112 94.503815 -7.809387

v -143.796249 81.255302 -7.840851

v -142.990143 78.483902 -7.836365

v -118.724854 88.066818 -7.878662

v -141.838257 74.057243 -7.510986

v -118.180969 85.548370 -7.765198

v -141.002808 70.159058 -6.703522

v -116.553192 80.673607 -7.827667

v -115.945435 78.354446 -7.796112

v -115.017242 75.333267 -7.800385

v -140.667114 59.098694 -6.681458

v -141.301025 53.786469 -6.840332

v -108.955002 64.678795 -7.770233

v -107.034004 63.455719 -7.895660

v -145.214447 43.409691 -8.029877

v -146.352325 40.622215 -8.057373

v -147.403473 38.098484 -8.054626

v -104.466843 60.940292 -7.562302

v -150.224747 31.623350 -7.914249

v -102.593933 59.335045 -7.919781

v -150.892700 30.496460 -8.116310

v -151.676422 29.042955 -7.995422

v -103.514130 58.071274 -7.439133

v -152.821777 27.415405 -7.970963

v -154.869888 25.358706 -8.190079

v -104.731583 54.192490 -6.704163

v -156.491562 21.857784 -8.250729

v -105.406921 49.869446 -8.071350

v -154.851868 19.106161 -8.141523

v -151.835831 19.046457 -8.225166

v -144.297241 23.237793 -7.808838

v -149.179443 20.702515 -8.103577

v -139.846130 24.906616 -8.223328

v -107.497673 40.543324 -8.207798

v -121.685257 32.726074 -9.119629

v -108.931564 38.795670 -8.866745

v -114.232704 36.435566 -8.941444

v -125.195374 29.009521 -8.385864

v -126.936607 28.312195 -7.811310

v -116.705971 32.369888 -8.686989

v -108.897232 36.052704 -8.860486

v -107.309967 36.930756 -7.834160

v -117.866302 30.164551 -7.416916

v -108.601379 34.382484 -8.255463

v -107.359100 34.581364 -7.722967

v -136.274109 112.553711 -5.811523

v -137.794144 110.953064 -3.995300

v -139.833511 108.648727 -3.862823

v -142.349854 105.694145 -4.077240

v -129.603622 107.841995 -3.904007

v -145.203232 99.960526 -4.090424

v -145.329742 92.938896 -4.268829

v -127.258347 105.064331 -4.077533

v -145.362198 89.364456 -5.603760

v -125.745361 101.654243 -3.980999

v -144.866516 85.181717 -5.935699

v -123.382690 95.288246 -5.818787

v -144.124237 82.139275 -4.177116

v -122.691681 92.938087 -5.939575

v -121.545746 89.249710 -5.934143

v -120.649139 85.683739 -5.985931

v -119.913849 82.596680 -5.939850

v -118.475739 78.382843 -5.930817

v -139.889557 63.233467 -4.323303

v -139.926483 65.066734 -4.221474

v -114.846680 71.323242 -5.912598

v -142.988785 50.823154 -4.576012

v -143.540680 46.604904 -6.221436

v -110.219238 62.645340 -5.376465

v -145.110001 43.719501 -4.243294

v -107.683044 60.959030 -6.368774

v -147.306671 37.977051 -4.324738

v -105.054260 56.411377 -6.506897

v -149.703247 29.275799 -4.251678

v -151.290161 27.263855 -6.346069

v -105.693542 54.846680 -4.968018

v -151.012817 25.056320 -6.146164

v -153.103790 25.134468 -7.231255

v -154.793747 21.778728 -7.273178

v -105.344360 50.299225 -5.594666

v -150.181656 21.996338 -7.155598

v -154.095886 19.876846 -7.321930

v -148.161346 23.033463 -6.624603

v -142.935379 24.281311 -6.782837

v -145.991638 23.666824 -6.324585

v -107.080795 43.029175 -5.866394

v -137.354431 26.624798 -4.247330

v -106.856415 40.351700 -4.680542

v -127.832542 27.651821 -4.246454

v -122.452415 27.760639 -6.943241

v -123.938286 26.990307 -6.126405

v -109.646347 31.344715 -7.005620

v -108.891014 33.006531 -7.232239

v -120.404312 25.712908 -6.071079

v -115.785339 26.077059 -7.012215

v -108.048714 31.355484 -6.031837

v -109.538834 28.571228 -6.915016

v -115.388458 24.281258 -6.153154

v -108.065964 27.966343 -5.983944

v -110.439186 26.289047 -6.346451

v -136.369431 111.226227 -3.853027

v -132.974274 109.842545 -3.719269

v -144.285126 102.850502 -3.953903

v -145.182251 96.412415 -3.952148

v -143.923859 99.281372 -3.128586

v -144.736633 89.202965 -3.994507

v -125.530762 99.909958 -3.795135

v -144.196716 84.727989 -4.078125

v -125.014183 95.804962 -1.775970

v -123.599068 93.481918 -2.061295

v -143.445038 78.562012 -4.179550

v -122.907028 90.985321 -2.085312

v -122.583618 88.978493 -2.077148

v -142.982315 76.456825 -4.045624

v -121.992828 86.838165 -2.372925

v -142.309692 74.268738 -4.127426

v -121.672729 84.599129 -2.059586

v -141.248230 72.161797 -3.957489

v -120.148743 81.810226 -3.845337

v -140.871765 70.267677 -4.064499

v -139.965775 67.719917 -4.051193

v -119.237793 78.639801 -3.838989

v -116.883545 73.566895 -3.880615

v -140.291534 59.087608 -4.056946

v -141.332184 56.376251 -4.189484

v -115.771729 68.464600 -3.525146

v -142.144867 53.720665 -4.188271

v -142.507217 52.242527 -4.233414

v -143.250244 49.123516 -4.258144

v -112.652100 63.354980 -3.755859

v -144.227341 47.213097 -4.183380

v -144.699951 45.341995 -4.230747

v -146.097656 40.657421 -4.364975

v -110.993652 58.731445 -3.459961

v -148.719086 32.135132 -4.227844

v -105.779602 52.990845 -3.639587

v -150.576462 25.632719 -4.214844

v -104.984406 50.530979 -4.023693

v -148.886917 23.738132 -4.310613

v -145.338806 24.291172 -4.311615

v -105.985626 44.499008 -4.052856

v -140.984329 25.187908 -4.271233

v -134.336807 27.367573 -4.302788

v -130.935013 27.718525 -4.254208

v -123.932007 26.833723 -4.233676

v -120.698250 25.498365 -4.171144

v -107.039749 35.944847 -2.210129

v -108.000290 33.056152 -3.381218

v -107.977882 31.285355 -4.121223

v -108.151711 28.768543 -4.089363

v -114.220139 23.567064 -3.764226

v -108.720406 26.402987 -4.161263

v -111.564102 24.510403 -4.385689

v -136.044525 110.104202 -3.091812

v -139.260254 107.018921 -3.057541

v -129.403351 105.707092 -3.011378

v -132.609238 103.043022 -2.993858

v -142.169830 103.096214 -3.044900

v -136.572723 98.512756 -2.987803

v -143.688232 95.368668 -3.089918

v -128.070221 102.869461 -2.998802

v -138.759338 94.668175 -2.951241

v -132.499939 101.435364 -2.540405

v -143.636765 91.569511 -3.150238

v -127.723747 101.092300 -2.433968

v -133.935913 98.258270 -1.405487

v -140.262543 90.902794 -2.970226

v -129.808777 99.756454 -1.113214

v -135.245636 95.288544 -1.130136

v -138.224731 90.558502 -1.480347

v -143.176849 85.474213 -3.263687

v -140.820679 87.482704 -2.839081

v -140.688049 82.948448 -2.811874

v -138.879272 85.828995 -1.402161

v -142.476868 79.095306 -3.418671

v -140.339966 77.820396 -2.684692

v -138.359894 80.581566 -1.221813

v -139.302734 72.419456 -2.569580

v -137.858398 75.091583 -1.189895

v -137.047913 71.158401 -1.592163

v -120.920776 79.815094 -1.754425

v -138.756241 68.262787 -3.222580

v -134.949265 66.085434 -2.978310

v -119.604431 76.060486 -1.719971

v -138.643280 64.210999 -3.271744

v -133.081161 67.044434 -1.594604

v -133.600571 62.776562 -3.124433

v -138.614944 60.960709 -3.209381

v -118.742676 71.027649 -1.523560

v -131.006714 61.238697 -2.817474

v -139.300201 57.374245 -3.183678

v -139.942657 55.047699 -3.182558

v -129.568527 55.291702 -3.099594

v -117.542358 66.619629 -1.599548

v -141.505310 51.855175 -3.351944

v -115.720337 62.302612 -1.965332

v -142.071777 50.292282 -3.405800

v -127.481018 57.909382 -1.299603

v -140.935852 48.248840 -3.201829

v -142.453491 48.265671 -3.387108

v -143.583801 44.975945 -3.392639

v -126.340393 52.213074 -1.545715

v -129.107407 50.912144 -3.147963

v -144.422852 42.512093 -3.471527

v -143.414948 41.018955 -3.233724

v -127.040771 49.801178 -2.675110

v -145.481033 38.332035 -3.326351

v -110.510284 54.661987 -1.672577

v -126.259628 44.196850 -3.147464

v -123.597534 45.348862 -1.600372

v -146.953827 33.456715 -3.330833

v -137.683075 28.209793 -3.258987

v -125.269836 45.085114 -2.623230

v -148.419769 28.684767 -3.355412

v -129.026474 29.286671 -3.225103

v -134.391769 29.003983 -3.250082

v -120.511703 40.533009 -3.067435

v -105.099297 48.742126 -2.142811

v -142.346680 26.439301 -3.322657

v -147.984222 25.293686 -3.411602

v -117.121841 36.985149 -3.144241

v -116.308792 37.517075 -2.856438

v -105.419060 45.553524 -2.202713

v -121.810272 28.095474 -3.204453

v -106.157990 42.730095 -2.197556

v -106.586647 39.550030 -2.203156

v -109.743118 33.640751 -2.702460

v -115.652817 39.329575 -1.557411

v -109.501236 31.127899 -3.175814

v -107.478661 33.582657 -2.286071

v -115.951019 25.147398 -3.269328

v -109.842194 26.793297 -3.333515

v -112.032417 25.069374 -3.459743

v -137.241028 89.474007 -1.144183

v -124.606529 91.379570 -1.087036

v -123.694870 86.694183 -1.130495

v -122.828606 81.729172 -1.128936

v -132.557693 68.197548 -1.187889

v -120.943237 75.248032 -1.132345

v -119.476288 68.019135 -1.143856

v -129.137695 62.933533 -1.206808

v -116.828354 60.472382 -1.159491

v -125.209000 52.771774 -1.211020

v -111.120087 53.308060 -1.167481

v -122.381699 45.810814 -1.233239

v -115.636703 41.145298 -1.213605

v -106.478577 47.937340 -1.220646

v -107.125786 45.436611 -1.203051

v -107.769577 42.918995 -1.214224

v -108.165443 39.730835 -1.251545

v -108.514374 36.267929 -1.265121

v -108.753304 34.844681 -1.623993

f 1 2 3
f 3 4 1
f 5 1 4
f 4 6 5
f 6 7 5
f 8 3 2
f 4 3 9
f 6 10 7
f 11 7 10
f 10 12 11
f 13 11 12
f 6 4 9
f 12 14 13
f 15 13 14
f 3 8 16
f 10 6 9
f 14 17 15
f 17 14 18
f 9 3 16
f 12 10 19
f 19 20 12
f 14 12 20
f 21 17 18
f 16 22 23
f 9 19 10
f 18 14 20
f 20 24 18
f 16 23 25
f 19 9 26
f 19 26 27
f 20 19 27
f 27 28 20
f 29 20 28
f 25 30 31
f 16 25 9
f 9 32 26
f 33 31 34
f 35 27 26
f 36 25 31
f 37 31 33
f 28 27 35
f 35 26 32
f 25 38 39
f 9 40 32
f 37 36 31
f 9 25 40
f 37 41 36
f 25 36 38
f 39 40 25
f 32 40 42
f 41 43 36
f 43 44 36
f 43 41 45
f 44 38 36
f 44 43 45
f 40 39 46
f 44 47 38
f 39 38 47
f 47 44 48
f 47 49 39
f 42 40 50
f 46 50 40
f 50 46 51
f 49 52 39
f 52 49 53
f 39 52 46
f 51 46 54
f 46 52 54
f 54 55 51
f 53 56 52
f 54 52 56
f 54 56 57
f 57 55 54
f 58 59 60
f 61 62 59
f 62 60 59
f 60 63 58
f 60 64 63
f 65 63 64
f 66 67 2
f 2 1 66
f 61 68 69
f 65 8 67
f 8 2 67
f 70 1 5
f 5 7 70
f 71 69 68
f 62 61 69
f 69 71 72
f 65 64 23
f 23 22 65
f 8 65 22
f 11 13 73
f 13 15 74
f 60 62 30
f 60 23 64
f 15 75 74
f 75 15 17
f 30 23 60
f 22 16 8
f 17 76 75
f 76 17 21
f 77 33 69
f 34 30 62
f 69 72 78
f 62 69 34
f 21 18 24
f 24 76 21
f 78 77 69
f 33 34 69
f 76 24 79
f 29 24 20
f 23 30 25
f 29 80 24
f 81 77 78
f 34 31 30
f 80 79 24
f 82 80 29
f 77 81 83
f 29 28 84
f 84 82 29
f 85 84 28
f 84 86 82
f 77 83 87
f 33 77 37
f 85 88 84
f 86 84 88
f 89 87 83
f 85 28 90
f 28 35 91
f 90 28 91
f 87 37 77
f 90 92 85
f 88 85 92
f 87 89 93
f 90 91 94
f 35 32 91
f 87 41 37
f 95 94 91
f 91 32 95
f 93 96 87
f 41 87 96
f 42 95 32
f 97 96 93
f 41 98 45
f 95 42 99
f 96 98 41
f 97 100 96
f 98 101 45
f 44 45 101
f 99 42 102
f 96 100 98
f 48 44 101
f 48 103 47
f 42 50 102
f 103 104 47
f 101 98 105
f 48 101 105
f 104 49 47
f 100 105 98
f 105 103 48
f 105 100 106
f 103 105 107
f 108 100 109
f 106 100 108
f 106 107 105
f 110 107 106
f 53 49 104
f 104 111 53
f 51 112 102
f 102 50 51
f 55 112 51
f 56 53 111
f 112 55 113
f 111 57 56
f 57 114 55
f 114 113 55
f 115 57 111
f 114 57 116
f 115 117 57
f 116 57 117
f 116 117 118
f 118 119 116
f 117 115 120
f 119 118 121
f 120 121 117
f 118 117 121
f 122 59 58
f 59 123 61
f 59 122 123
f 124 68 61
f 61 123 124
f 125 63 65
f 67 66 65
f 71 68 124
f 126 66 1
f 1 70 126
f 7 127 70
f 7 73 127
f 73 7 11
f 73 128 129
f 128 73 13
f 13 130 128
f 130 13 74
f 131 130 74
f 131 74 75
f 75 132 131
f 75 76 132
f 78 72 133
f 79 132 76
f 81 78 133
f 80 134 79
f 135 83 81
f 82 136 80
f 135 137 83
f 86 136 82
f 89 83 137
f 86 88 138
f 138 88 139
f 139 88 92
f 92 140 139
f 141 93 89
f 140 90 94
f 90 140 92
f 93 141 142
f 95 143 94
f 144 142 145
f 97 93 142
f 97 142 144
f 143 95 146
f 147 144 145
f 99 146 95
f 147 148 144
f 146 99 149
f 109 100 97
f 109 97 144
f 149 102 150
f 102 149 99
f 148 151 144
f 109 144 151
f 152 104 103
f 151 148 153
f 152 103 107
f 108 109 154
f 106 108 110
f 152 155 104
f 151 154 109
f 112 156 150
f 151 153 157
f 152 107 155
f 112 150 102
f 110 108 154
f 155 107 158
f 155 111 104
f 157 154 151
f 154 159 110
f 154 157 160
f 159 154 160
f 107 110 159
f 161 156 112
f 113 161 112
f 158 107 159
f 159 160 162
f 159 163 158
f 162 164 159
f 163 159 164
f 158 163 165
f 155 158 165
f 161 113 166
f 111 155 167
f 165 163 168
f 168 169 165
f 155 165 169
f 169 167 155
f 115 111 167
f 114 166 113
f 170 166 114
f 114 116 170
f 171 167 169
f 170 119 172
f 119 170 116
f 171 115 167
f 115 171 173
f 115 173 120
f 119 174 172
f 173 175 120
f 119 121 174
f 174 120 175
f 121 120 174
f 58 176 122
f 177 123 122
f 176 58 63
f 125 176 63
f 177 124 123
f 125 65 66
f 66 178 125
f 71 124 179
f 126 178 66
f 70 180 126
f 181 182 127
f 181 127 73
f 73 183 181
f 183 73 129
f 183 129 128
f 128 184 183
f 184 128 185
f 130 186 185
f 179 72 71
f 70 182 180
f 182 70 127
f 185 128 130
f 130 187 186
f 187 130 131
f 132 187 131
f 132 188 187
f 133 72 179
f 188 132 79
f 188 79 134
f 133 135 81
f 134 136 188
f 134 80 136
f 138 136 86
f 137 189 89
f 189 141 89
f 94 190 140
f 190 94 143
f 191 145 142
f 143 146 190
f 191 147 145
f 147 192 148
f 146 149 150
f 150 193 146
f 194 148 192
f 194 153 148
f 193 150 156
f 156 195 193
f 196 153 194
f 157 153 196
f 196 197 157
f 157 197 160
f 195 156 161
f 160 197 198
f 161 199 195
f 198 200 160
f 160 200 162
f 199 161 166
f 200 201 162
f 164 162 201
f 163 164 201
f 201 202 163
f 163 202 168
f 203 168 202
f 203 169 168
f 204 169 203
f 171 169 204
f 204 205 171
f 170 172 206
f 204 172 205
f 204 206 172
f 173 171 205
f 174 205 172
f 175 173 205
f 175 205 174
f 207 208 209
f 208 207 210
f 211 212 213
f 207 213 212
f 212 214 207
f 210 207 214
f 210 215 216
f 214 215 210
f 217 218 219
f 212 211 220
f 221 214 212
f 215 214 221
f 217 215 222
f 222 215 223
f 224 217 222
f 220 221 212
f 225 226 224
f 221 223 215
f 224 222 225
f 227 228 229
f 227 230 231
f 226 232 228
f 229 230 227
f 233 231 230
f 234 233 230
f 230 235 234
f 236 234 235
f 221 220 237
f 225 238 226
f 232 229 228
f 229 239 230
f 238 232 226
f 232 239 229
f 236 235 240
f 241 236 240
f 221 237 242
f 222 223 122
f 176 225 222
f 235 230 239
f 240 243 241
f 124 223 221
f 122 176 222
f 235 239 184
f 240 235 185
f 243 240 186
f 124 221 242
f 124 177 223
f 177 122 223
f 176 125 225
f 238 225 125
f 125 178 238
f 239 232 181
f 181 183 239
f 183 184 239
f 235 184 185
f 186 240 185
f 238 180 232
f 180 181 232
f 186 244 243
f 242 237 245
f 124 242 179
f 178 126 238
f 126 180 238
f 180 182 181
f 245 179 242
f 186 187 244
f 244 187 188
f 179 245 246
f 188 247 244
f 133 179 246
f 133 246 135
f 135 246 248
f 249 188 136
f 250 135 248
f 251 249 136
f 250 137 135
f 137 250 252
f 136 138 251
f 189 137 252
f 138 253 251
f 253 138 139
f 140 253 139
f 254 253 140
f 190 254 140
f 255 142 141
f 255 191 142
f 254 190 256
f 146 256 190
f 191 192 147
f 257 256 146
f 146 193 257
f 257 193 258
f 193 195 258
f 195 259 258
f 194 260 196
f 197 196 260
f 198 197 261
f 259 195 199
f 261 262 198
f 200 198 262
f 262 201 200
f 263 199 166
f 203 264 204
f 204 264 265
f 263 166 170
f 170 265 263
f 206 204 265
f 265 170 206
f 266 209 267
f 209 268 267
f 269 268 270
f 209 208 268
f 271 270 272
f 213 207 266
f 266 207 209
f 208 216 268
f 270 268 216
f 266 273 213
f 272 270 219
f 213 273 211
f 216 219 270
f 274 272 219
f 275 272 274
f 219 218 274
f 216 208 210
f 219 216 215
f 215 217 219
f 218 276 274
f 277 274 276
f 224 218 217
f 276 278 277
f 220 211 273
f 218 224 226
f 226 276 218
f 279 227 280
f 276 226 228
f 228 278 276
f 273 281 220
f 227 278 228
f 279 278 227
f 280 227 231
f 233 282 231
f 283 282 233
f 237 220 281
f 284 236 241
f 241 243 285
f 243 286 285
f 286 243 244
f 245 237 287
f 286 244 247
f 246 245 287
f 287 288 246
f 188 289 247
f 248 246 288
f 249 289 188
f 290 249 251
f 291 290 251
f 251 253 291
f 253 292 291
f 189 255 141
f 254 292 253
f 256 293 254
f 292 254 293
f 293 256 294
f 295 192 191
f 257 294 256
f 294 257 296
f 192 297 194
f 296 257 258
f 296 258 298
f 297 260 194
f 258 259 299
f 298 258 299
f 197 260 300
f 261 197 300
f 263 259 199
f 262 301 201
f 202 201 301
f 301 302 202
f 302 203 202
f 264 303 265
f 263 265 304
f 305 306 307
f 306 308 307
f 309 307 308
f 308 310 309
f 308 311 310
f 308 306 312
f 305 313 306
f 313 312 306
f 308 312 267
f 311 308 267
f 311 314 310
f 267 269 311
f 269 271 311
f 314 311 271
f 269 267 268
f 312 313 315
f 312 266 267
f 316 317 318
f 319 318 317
f 316 314 271
f 315 266 312
f 271 269 270
f 271 275 316
f 317 316 275
f 320 319 317
f 315 321 266
f 275 322 317
f 320 317 322
f 272 275 271
f 273 266 321
f 275 323 322
f 324 322 323
f 323 325 324
f 323 275 274
f 321 326 273
f 323 274 277
f 325 323 277
f 278 325 277
f 327 325 278
f 278 328 327
f 278 329 328
f 278 330 329
f 279 330 278
f 331 330 279
f 280 331 279
f 332 331 280
f 281 273 326
f 231 332 280
f 333 332 231
f 334 333 231
f 282 334 231
f 326 335 281
f 233 234 283
f 336 283 234
f 336 234 236
f 284 336 236
f 335 237 281
f 335 287 237
f 241 285 284
f 286 337 285
f 286 247 337
f 338 337 289
f 289 337 247
f 339 248 288
f 250 248 339
f 340 338 289
f 289 249 340
f 249 290 340
f 290 291 341
f 342 189 252
f 341 291 343
f 342 344 189
f 291 292 343
f 344 255 189
f 292 345 343
f 346 345 292
f 255 295 191
f 293 346 292
f 346 293 294
f 346 294 347
f 348 347 294
f 294 296 349
f 349 348 294
f 298 350 296
f 349 296 350
f 297 351 352
f 352 260 297
f 352 353 260
f 354 352 351
f 300 260 353
f 298 299 355
f 356 355 299
f 352 354 357
f 259 356 299
f 352 357 358
f 353 352 358
f 358 359 353
f 300 353 261
f 261 353 359
f 356 259 304
f 360 358 357
f 263 304 259
f 261 359 262
f 359 358 361
f 359 362 262
f 301 262 362
f 302 301 363
f 302 364 203
f 364 264 203
f 364 365 264
f 366 362 359
f 367 301 362
f 367 363 301
f 264 365 303
f 360 361 358
f 359 361 368
f 361 360 369
f 366 359 370
f 366 367 362
f 370 359 368
f 371 265 303
f 369 372 361
f 368 361 372
f 304 265 371
f 372 373 368
f 370 368 373
f 374 375 376
f 374 377 378
f 377 379 378
f 377 374 309
f 309 374 376
f 307 376 375
f 379 377 380
f 379 380 381
f 376 307 309
f 380 377 309
f 310 380 309
f 381 380 310
f 382 381 310
f 382 310 314
f 383 382 314
f 314 384 383
f 385 313 305
f 314 386 384
f 316 386 314
f 387 386 316
f 316 318 387
f 388 387 318
f 389 388 318
f 319 389 318
f 319 390 389
f 319 320 390
f 320 391 390
f 391 320 322
f 322 392 391
f 392 322 324
f 392 324 325
f 326 321 393
f 392 325 394
f 394 325 327
f 327 395 394
f 395 327 328
f 395 328 329
f 329 396 395
f 396 329 330
f 397 395 396
f 330 331 396
f 398 331 332
f 395 397 399
f 397 396 331
f 331 398 397
f 332 333 398
f 400 398 333
f 282 401 334
f 398 400 397
f 333 334 400
f 401 282 283
f 283 402 401
f 403 335 326
f 400 334 401
f 402 283 336
f 401 402 400
f 404 397 400
f 402 336 284
f 405 402 284
f 403 287 335
f 400 402 406
f 284 285 405
f 400 406 404
f 285 407 405
f 285 337 407
f 403 408 287
f 407 409 405
f 409 407 337
f 408 288 287
f 406 410 411
f 410 406 402
f 412 402 405
f 402 413 410
f 402 412 413
f 414 405 409
f 405 414 412
f 338 409 337
f 408 339 288
f 411 410 413
f 409 338 414
f 340 414 338
f 411 413 415
f 250 339 416
f 415 413 417
f 416 252 250
f 414 290 412
f 414 340 290
f 252 416 418
f 418 342 252
f 412 341 419
f 341 412 290
f 419 341 343
f 343 420 419
f 344 421 255
f 422 343 345
f 422 420 343
f 345 423 422
f 423 345 346
f 255 421 424
f 295 255 424
f 346 425 423
f 425 346 347
f 424 426 295
f 426 427 295
f 427 192 295
f 428 347 348
f 427 297 192
f 427 429 297
f 351 297 429
f 350 430 349
f 350 431 430
f 432 351 429
f 298 431 350
f 432 354 351
f 355 433 431
f 431 298 355
f 356 434 433
f 356 433 355
f 435 354 432
f 435 357 354
f 436 437 434
f 434 356 436
f 356 304 436
f 360 357 435
f 438 439 440
f 439 438 437
f 365 440 439
f 437 436 439
f 440 365 364
f 364 302 441
f 302 363 441
f 365 439 303
f 442 439 436
f 436 304 442
f 439 371 303
f 439 442 371
f 360 443 369
f 367 366 444
f 442 304 371
f 372 369 443
f 366 370 445
f 444 366 445
f 372 443 446
f 446 447 372
f 445 370 373
f 373 372 447
f 374 448 449
f 449 375 374
f 374 378 448
f 450 448 378
f 378 379 450
f 379 451 450
f 375 449 452
f 379 453 451
f 307 375 452
f 379 381 453
f 382 453 381
f 452 305 307
f 385 305 452
f 454 383 384
f 384 455 454
f 455 384 386
f 386 387 455
f 455 387 388
f 315 313 385
f 385 456 315
f 388 389 457
f 457 389 390
f 321 315 456
f 457 390 391
f 391 458 457
f 456 393 321
f 392 458 391
f 458 392 459
f 460 459 392
f 393 461 326
f 460 392 394
f 394 395 399
f 394 399 460
f 460 399 462
f 461 403 326
f 397 404 399
f 399 463 462
f 463 399 404
f 463 404 464
f 465 463 464
f 465 464 466
f 467 408 468
f 403 468 408
f 469 464 404
f 404 406 411
f 466 464 469
f 411 415 404
f 469 404 415
f 470 469 415
f 408 467 339
f 415 471 470
f 415 472 471
f 472 415 417
f 417 473 472
f 417 413 412
f 419 417 412
f 473 474 472
f 342 418 344
f 475 473 417
f 475 417 419
f 419 420 475
f 473 475 474
f 476 344 418
f 421 344 476
f 420 422 475
f 476 477 421
f 478 422 423
f 479 421 477
f 423 480 478
f 481 478 480
f 424 421 479
f 423 482 480
f 482 423 425
f 426 424 479
f 479 483 426
f 482 425 484
f 484 425 485
f 486 426 483
f 425 347 428
f 485 425 428
f 486 427 426
f 348 349 487
f 427 486 429
f 488 487 349
f 349 430 488
f 431 488 430
f 489 431 433
f 432 429 486
f 432 486 490
f 489 433 434
f 434 491 489
f 491 434 437
f 435 432 490
f 437 492 491
f 490 493 435
f 494 438 440
f 440 364 495
f 360 435 493
f 364 496 495
f 496 364 441
f 363 497 441
f 363 367 498
f 363 498 497
f 493 499 360
f 499 443 360
f 500 498 367
f 367 444 500
f 501 445 373
f 373 447 502
f 502 501 373
f 503 504 505
f 504 503 506
f 504 507 508
f 506 503 509
f 504 506 510
f 508 507 511
f 507 504 510
f 510 506 512
f 511 507 513
f 510 513 507
f 509 512 506
f 513 450 511
f 449 448 510
f 513 510 448
f 511 450 514
f 510 512 449
f 450 513 448
f 514 450 451
f 451 453 514
f 512 509 515
f 512 452 449
f 452 512 515
f 516 453 382
f 452 515 385
f 383 516 382
f 454 516 383
f 385 515 517
f 518 455 388
f 457 518 388
f 385 517 456
f 519 518 457
f 517 520 456
f 458 519 457
f 520 393 456
f 461 393 520
f 521 461 520
f 460 522 459
f 468 461 521
f 462 522 460
f 468 403 461
f 463 522 462
f 465 522 463
f 466 523 465
f 524 467 468
f 466 525 523
f 469 525 466
f 469 526 525
f 470 526 469
f 339 467 524
f 527 526 470
f 524 416 339
f 528 527 470
f 471 528 470
f 472 528 471
f 529 528 472
f 416 530 418
f 476 418 530
f 529 472 474
f 531 529 474
f 475 531 474
f 422 531 475
f 532 531 422
f 532 422 478
f 477 476 530
f 533 532 478
f 477 530 534
f 478 481 533
f 481 535 533
f 479 477 534
f 535 481 536
f 481 480 536
f 534 537 479
f 480 482 536
f 537 538 479
f 538 483 479
f 483 538 539
f 428 540 485
f 539 486 483
f 487 540 428
f 486 539 541
f 428 348 487
f 542 486 541
f 431 489 543
f 486 542 490
f 491 543 489
f 543 491 544
f 544 491 492
f 493 490 542
f 438 494 545
f 437 438 545
f 437 545 492
f 440 546 494
f 440 495 546
f 496 441 497
f 444 445 500
f 445 501 500
f 547 505 548
f 547 549 505
f 550 505 549
f 548 505 504
f 551 503 550
f 505 550 503
f 504 508 548
f 508 552 548
f 551 509 503
f 552 508 553
f 508 511 553
f 551 554 509
f 511 514 553
f 514 555 553
f 515 509 554
f 555 514 453
f 516 555 453
f 556 516 454
f 554 557 515
f 454 455 556
f 517 515 557
f 518 556 455
f 518 519 558
f 557 559 517
f 520 517 559
f 458 560 519
f 560 458 561
f 459 561 458
f 559 521 520
f 522 561 459
f 559 562 521
f 468 521 562
f 563 522 465
f 563 465 523
f 562 564 468
f 524 468 564
f 523 525 563
f 563 525 565
f 525 526 565
f 526 527 565
f 416 524 564
f 565 527 566
f 566 527 528
f 564 567 416
f 566 528 529
f 529 568 566
f 530 416 567
f 529 569 568
f 569 570 568
f 571 568 570
f 572 571 570
f 569 529 531
f 570 573 572
f 573 570 569
f 569 574 573
f 572 573 575
f 569 531 532
f 573 576 575
f 533 569 532
f 574 569 533
f 573 574 577
f 577 576 573
f 535 574 533
f 577 574 535
f 577 578 576
f 535 536 579
f 535 579 577
f 536 482 579
f 580 579 482
f 482 484 580
f 581 580 484
f 540 581 485
f 581 484 485
f 540 487 582
f 583 539 538
f 541 539 583
f 487 488 584
f 487 584 582
f 585 584 488
f 488 431 585
f 541 583 542
f 431 586 585
f 543 586 431
f 583 587 542
f 588 543 544
f 589 542 587
f 590 545 591
f 590 492 545
f 544 492 592
f 544 592 588
f 494 591 545
f 591 494 546
f 542 589 493
f 546 495 593
f 594 493 589
f 496 595 593
f 593 495 496
f 595 496 497
f 499 493 594
f 497 498 596
f 596 498 597
f 500 597 498
f 598 443 499
f 446 443 598
f 501 599 500
f 598 600 446
f 447 446 600
f 447 600 601
f 502 447 601
f 502 602 501
f 599 501 602
f 603 602 601
f 502 601 602
f 547 604 549
f 547 605 604
f 606 549 604
f 607 605 547
f 606 550 549
f 607 547 548
f 550 606 608
f 551 550 608
f 552 607 548
f 552 553 609
f 608 554 551
f 609 553 555
f 609 555 610
f 555 516 610
f 556 610 516
f 557 554 611
f 556 518 558
f 560 558 519
f 559 557 612
f 613 559 612
f 562 559 613
f 522 563 614
f 615 562 613
f 564 562 615
f 563 565 616
f 564 617 618
f 565 566 619
f 567 564 618
f 620 566 568
f 620 568 571
f 618 621 567
f 620 571 572
f 572 622 620
f 567 621 530
f 572 575 622
f 534 530 621
f 621 623 534
f 624 575 576
f 576 625 624
f 578 625 576
f 626 534 623
f 537 534 626
f 579 627 577
f 578 577 627
f 578 628 625
f 629 625 628
f 626 630 537
f 628 631 629
f 537 630 538
f 580 632 579
f 632 627 579
f 627 633 578
f 628 578 633
f 626 634 630
f 634 626 635
f 580 581 632
f 581 540 636
f 636 632 581
f 633 631 628
f 582 636 540
f 630 637 538
f 631 633 638
f 583 538 637
f 630 634 637
f 636 582 639
f 633 627 632
f 584 639 582
f 633 632 640
f 634 641 637
f 632 636 640
f 585 639 584
f 636 639 642
f 642 640 636
f 641 634 643
f 644 639 585
f 586 644 585
f 633 640 645
f 645 646 633
f 642 639 647
f 640 642 647
f 587 583 637
f 643 648 641
f 644 647 639
f 543 588 649
f 640 647 650
f 587 637 641
f 592 590 649
f 590 592 492
f 649 588 592
f 590 591 651
f 652 587 641
f 641 648 652
f 546 593 653
f 653 654 546
f 654 591 546
f 593 595 655
f 655 653 593
f 656 589 587
f 587 652 657
f 595 497 655
f 497 596 655
f 589 656 594
f 587 657 656
f 652 658 657
f 594 598 499
f 598 594 656
f 657 659 660
f 657 658 659
f 599 661 597
f 597 500 599
f 660 656 657
f 598 656 660
f 660 600 598
f 662 660 659
f 660 601 600
f 601 660 662
f 599 602 661
f 603 601 662
f 663 661 602
f 603 662 664
f 602 603 664
f 664 663 602
f 665 666 667
f 668 667 666
f 666 669 668
f 670 668 669
f 669 666 671
f 665 671 666
f 669 672 670
f 669 671 673
f 665 604 671
f 604 605 671
f 673 671 605
f 672 669 673
f 604 665 606
f 672 673 674
f 673 605 607
f 674 675 672
f 607 674 673
f 552 674 607
f 675 674 552
f 675 676 677
f 552 676 675
f 676 552 609
f 554 608 678
f 676 610 679
f 610 676 609
f 680 610 556
f 680 556 681
f 556 558 681
f 558 560 682
f 613 612 683
f 522 614 561
f 683 684 613
f 684 615 613
f 563 685 614
f 684 686 615
f 563 616 685
f 564 615 686
f 686 617 564
f 565 619 616
f 617 687 618
f 566 688 619
f 688 566 620
f 689 618 687
f 621 618 689
f 690 622 575
f 691 621 689
f 623 621 691
f 575 624 690
f 624 692 690
f 624 625 693
f 694 626 623
f 635 626 694
f 693 625 629
f 693 629 695
f 629 696 695
f 697 695 696
f 698 635 694
f 631 696 629
f 696 699 697
f 643 635 698
f 631 700 696
f 699 696 701
f 635 643 634
f 643 698 702
f 699 701 703
f 698 704 702
f 701 696 700
f 700 703 701
f 702 705 706
f 705 702 704
f 638 707 631
f 707 700 631
f 703 700 708
f 702 706 643
f 707 709 700
f 709 710 700
f 708 700 710
f 638 633 646
f 638 711 707
f 709 707 711
f 706 712 643
f 638 646 713
f 711 638 713
f 543 649 714
f 586 543 714
f 714 715 586
f 644 586 715
f 646 645 716
f 648 643 712
f 705 717 706
f 705 718 717
f 649 590 719
f 719 714 649
f 647 644 715
f 715 720 647
f 640 650 721
f 645 640 721
f 721 716 645
f 590 651 722
f 722 719 590
f 720 723 647
f 650 647 723
f 723 724 650
f 724 721 650
f 717 725 706
f 725 712 706
f 726 722 651
f 726 651 591
f 653 725 717
f 653 717 654
f 726 591 654
f 725 655 712
f 655 725 653
f 658 652 648
f 648 727 658
f 727 648 712
f 596 712 655
f 727 712 596
f 597 727 596
f 727 597 658
f 661 658 597
f 658 661 659
f 659 663 662
f 663 659 661
f 662 663 664
f 728 667 668
f 668 729 728
f 667 728 730
f 668 670 729
f 665 667 730
f 670 731 729
f 665 730 732
f 670 672 731
f 731 672 733
f 732 734 665
f 733 672 675
f 675 735 733
f 606 665 734
f 736 735 737
f 737 735 675
f 736 737 738
f 608 606 734
f 734 739 608
f 738 737 740
f 740 737 677
f 677 737 675
f 740 741 738
f 741 740 742
f 742 743 741
f 678 608 739
f 677 742 740
f 677 679 742
f 742 744 743
f 744 742 745
f 677 676 679
f 745 742 679
f 746 744 745
f 680 679 610
f 745 747 746
f 746 747 748
f 749 554 678
f 679 747 745
f 747 679 680
f 748 747 750
f 747 680 681
f 749 751 554
f 681 750 747
f 611 554 751
f 752 750 681
f 557 611 751
f 752 681 558
f 753 752 558
f 751 754 557
f 753 558 682
f 612 557 754
f 560 755 682
f 754 756 612
f 560 561 755
f 561 757 755
f 683 612 756
f 561 614 757
f 684 683 758
f 758 759 684
f 686 684 759
f 759 760 686
f 685 616 761
f 617 686 760
f 616 619 762
f 760 763 617
f 687 617 763
f 763 689 687
f 689 763 764
f 622 765 620
f 622 766 765
f 690 766 622
f 690 767 766
f 764 768 689
f 768 691 689
f 767 690 692
f 624 769 692
f 768 623 691
f 623 768 770
f 624 693 769
f 771 769 693
f 770 694 623
f 693 772 771
f 770 773 694
f 693 695 772
f 774 772 695
f 774 695 697
f 697 775 774
f 773 698 694
f 698 773 776
f 697 699 775
f 777 775 699
f 698 776 704
f 778 704 776
f 699 703 777
f 703 779 777
f 705 704 778
f 703 708 780
f 779 703 780
f 718 705 778
f 709 711 781
f 781 782 709
f 710 709 782
f 782 780 710
f 708 710 780
f 781 711 713
f 783 713 646
f 783 646 716
f 784 726 718
f 715 714 785
f 720 715 785
f 722 786 719
f 786 714 719
f 785 714 787
f 720 785 788
f 723 720 788
f 788 789 723
f 789 724 723
f 717 718 726
f 784 722 726
f 786 787 714
f 787 790 785
f 654 717 726
f 790 788 785
f 784 786 722
f 787 791 790
f 792 786 784
f 787 786 791
f 790 793 788
f 792 791 786
f 794 790 791
f 791 792 795
f 795 794 791
f 796 728 729
f 728 796 730
f 729 797 796
f 797 729 731
f 731 733 798
f 732 730 796
f 799 733 735
f 735 736 799
f 739 734 800
f 738 741 801
f 743 802 741
f 743 744 802
f 678 739 803
f 744 804 802
f 744 746 804
f 803 805 678
f 746 748 804
f 749 678 805
f 804 748 806
f 748 750 806
f 751 749 807
f 808 806 750
f 750 752 808
f 807 809 751
f 810 751 809
f 754 751 810
f 810 756 754
f 810 811 756
f 811 812 756
f 683 756 812
f 812 758 683
f 812 813 758
f 759 758 813
f 614 814 815
f 685 814 614
f 760 759 813
f 813 816 760
f 761 616 762
f 763 760 816
f 688 817 619
f 818 688 620
f 819 763 816
f 820 620 765
f 763 819 764
f 766 820 765
f 819 821 764
f 768 764 821
f 766 767 822
f 822 767 692
f 768 821 773
f 770 768 773
f 821 823 773
f 771 824 769
f 771 772 824
f 824 772 825
f 825 772 774
f 773 823 776
f 823 826 776
f 827 825 774
f 774 828 827
f 828 774 775
f 775 777 828
f 829 828 777
f 776 830 778
f 828 831 827
f 828 829 831
f 777 832 829
f 777 779 832
f 829 832 831
f 833 827 831
f 831 782 833
f 831 780 782
f 780 831 832
f 780 832 779
f 718 778 830
f 781 834 835
f 781 835 833
f 833 782 781
f 830 836 718
f 713 783 834
f 781 713 834
f 783 716 837
f 716 721 837
f 784 718 836
f 836 838 784
f 724 789 839
f 838 792 784
f 793 840 788
f 840 841 788
f 789 788 841
f 793 842 840
f 790 794 843
f 843 793 790
f 841 840 844
f 795 843 794
f 793 843 842
f 845 840 842
f 846 843 795
f 842 843 846
f 847 845 842
f 845 848 840
f 848 844 840
f 847 842 846
f 847 846 849
f 847 850 845
f 850 848 845
f 849 850 847
f 851 796 797
f 797 731 798
f 732 796 851
f 798 733 799
f 732 851 852
f 736 853 799
f 736 738 853
f 732 852 734
f 800 734 852
f 738 801 853
f 801 854 855
f 801 741 854
f 803 739 800
f 802 854 741
f 802 804 856
f 749 805 857
f 804 858 856
f 806 858 804
f 857 859 749
f 807 749 859
f 858 806 808
f 807 860 809
f 808 752 861
f 860 862 809
f 752 753 861
f 810 809 862
f 861 753 682
f 862 863 810
f 682 864 861
f 863 865 810
f 864 682 755
f 755 866 864
f 811 810 865
f 865 867 811
f 755 868 866
f 812 811 867
f 868 755 757
f 867 869 812
f 868 757 870
f 757 871 870
f 869 872 812
f 813 812 872
f 871 757 614
f 871 614 815
f 872 873 813
f 685 874 814
f 874 685 761
f 816 813 873
f 761 875 874
f 873 876 816
f 761 762 875
f 877 875 762
f 878 877 762
f 762 619 878
f 817 878 619
f 817 688 879
f 876 880 816
f 818 879 688
f 881 879 818
f 882 881 818
f 620 882 818
f 819 816 880
f 820 882 620
f 883 820 766
f 766 822 883
f 821 819 884
f 885 822 692
f 826 821 884
f 823 821 826
f 769 885 692
f 824 885 769
f 776 826 886
f 825 887 824
f 825 827 887
f 776 886 888
f 888 830 776
f 827 889 887
f 889 827 833
f 833 835 890
f 890 889 833
f 891 830 888
f 835 834 890
f 892 890 834
f 830 891 836
f 834 783 892
f 783 837 892
f 837 721 893
f 894 893 721
f 838 836 891
f 894 721 724
f 894 724 839
f 895 839 789
f 789 841 895
f 896 895 841
f 795 792 897
f 841 844 896
f 897 898 795
f 846 795 898
f 898 899 846
f 899 900 846
f 844 848 896
f 849 846 900
f 896 848 901
f 850 901 848
f 900 902 849
f 850 849 902
f 903 901 850
f 903 850 902
f 904 851 797
f 797 798 904
f 798 905 904
f 852 851 904
f 905 798 799
f 904 906 852
f 904 907 906
f 907 904 905
f 799 908 905
f 908 799 853
f 905 908 907
f 801 855 853
f 855 908 853
f 906 800 852
f 909 907 908
f 909 908 855
f 855 910 909
f 910 855 854
f 911 906 907
f 909 910 912
f 803 800 906
f 913 907 909
f 907 913 911
f 914 910 854
f 915 911 913
f 913 909 916
f 910 917 912
f 910 914 917
f 914 854 802
f 906 911 803
f 913 918 915
f 805 803 911
f 909 919 916
f 909 912 919
f 911 857 805
f 911 915 857
f 802 856 914
f 912 917 920
f 917 914 921
f 921 914 856
f 915 859 857
f 922 917 921
f 921 856 858
f 917 922 920
f 923 922 921
f 859 860 807
f 922 923 924
f 858 808 921
f 861 925 808
f 808 925 921
f 921 925 923
f 925 926 923
f 927 923 926
f 861 864 925
f 925 864 926
f 928 926 864
f 864 866 928
f 929 926 928
f 868 928 866
f 928 930 929
f 870 928 868
f 867 931 869
f 930 928 870
f 870 932 930
f 872 869 931
f 932 870 871
f 932 933 930
f 931 934 872
f 871 935 932
f 871 815 935
f 930 933 936
f 933 932 935
f 815 814 935
f 873 872 934
f 937 933 935
f 938 935 814
f 939 873 934
f 935 938 937
f 874 938 814
f 940 936 933
f 940 933 937
f 874 941 938
f 941 874 875
f 941 937 938
f 942 941 875
f 876 873 939
f 937 943 940
f 937 941 943
f 875 877 942
f 944 876 939
f 877 945 942
f 877 878 945
f 944 946 876
f 941 942 943
f 878 817 945
f 817 947 945
f 880 876 946
f 943 948 940
f 817 879 947
f 945 949 942
f 949 945 947
f 947 950 949
f 950 947 879
f 950 879 881
f 881 951 950
f 951 881 882
f 943 952 948
f 949 950 951
f 882 820 951
f 942 953 943
f 820 954 951
f 953 942 949
f 951 955 949
f 883 954 820
f 956 943 953
f 955 951 954
f 883 957 954
f 880 884 819
f 884 880 946
f 884 946 958
f 953 949 959
f 954 957 955
f 822 957 883
f 956 960 952
f 822 961 957
f 953 959 956
f 955 962 949
f 955 957 962
f 885 961 822
f 956 963 960
f 963 956 959
f 886 826 884
f 962 957 961
f 885 964 961
f 824 964 885
f 949 965 959
f 949 966 965
f 959 965 967
f 966 949 962
f 961 964 962
f 824 887 964
f 959 967 963
f 967 960 963
f 958 968 886
f 969 962 964
f 970 964 887
f 964 970 969
f 887 889 970
f 888 886 968
f 970 889 890
f 967 965 971
f 888 968 891
f 890 969 970
f 972 967 971
f 969 890 892
f 973 891 968
f 971 965 974
f 969 892 962
f 837 966 962
f 962 892 837
f 893 966 837
f 973 975 891
f 966 894 965
f 966 893 894
f 891 975 838
f 965 839 974
f 839 965 894
f 975 976 838
f 897 792 838
f 838 976 897
f 895 974 839
f 977 978 972
f 974 895 896
f 972 971 977
f 979 977 971
f 897 980 898
f 980 977 898
f 898 977 979
f 974 979 971
f 981 974 896
f 899 898 979
f 981 979 974
f 900 899 979
f 982 979 981
f 901 981 896
f 900 979 982
f 981 983 982
f 981 901 983
f 902 900 982
f 983 901 903
f 902 982 983
f 983 903 902
f 913 916 918
f 919 918 916
f 920 919 912
f 919 920 984
f 859 915 918
f 985 919 984
f 985 859 918
f 985 918 919
f 920 924 984
f 924 920 922
f 860 859 985
f 984 927 985
f 927 984 924
f 862 860 985
f 927 924 923
f 929 985 927
f 863 862 985
f 985 986 863
f 926 929 927
f 865 863 986
f 986 867 865
f 986 985 929
f 986 987 867
f 987 986 929
f 931 867 987
f 988 929 930
f 989 987 988
f 987 929 988
f 987 989 931
f 934 931 989
f 930 936 988
f 939 934 989
f 989 988 990
f 989 990 939
f 991 988 936
f 936 940 991
f 990 988 991
f 944 939 990
f 991 940 948
f 992 990 991
f 990 992 944
f 946 944 992
f 991 948 992
f 993 948 952
f 948 993 992
f 952 943 956
f 946 992 958
f 994 992 993
f 952 960 993
f 992 994 958
f 960 995 993
f 996 994 993
f 886 884 958
f 993 995 996
f 994 997 958
f 997 994 996
f 958 997 968
f 978 995 960
f 960 967 978
f 995 978 996
f 996 998 997
f 996 999 998
f 978 967 972
f 973 968 997
f 973 997 998
f 973 998 999
f 975 973 999
f 1000 999 996
f 975 999 1000
f 976 975 1000
f 1001 1000 996
f 1001 996 978
f 1000 897 976
f 897 1000 1001
f 1002 1001 978
f 978 977 1002
f 1001 1002 897
f 1002 977 980
f 897 1002 980
