v -82.157578 18.367977 5.538986

v -76.206207 21.734318 5.842178

v -75.922401 20.323589 4.697192

v -83.175095 15.520578 4.602923

v -74.195160 20.942207 5.540040

v -85.420349 15.207588 5.491882

v -89.079788 11.683972 5.538273

v -88.952087 9.276357 4.568758

v -91.826935 8.007306 5.528023

v -70.271431 18.422539 5.657524

v -74.421875 -2.596985 4.569073

v -70.382545 16.379580 4.688980

v -93.183960 3.737649 4.525693

v -94.844604 4.249045 5.503452

v -97.344208 0.551227 5.389114

v -96.086487 -0.159798 4.534002

v -69.781937 12.941299 4.635342

v -99.149475 -5.093726 4.517396

v -67.638092 15.042397 6.475769

v -87.624329 -12.999176 4.487810

v -103.379395 -9.122055 6.224487

v -101.946350 -11.829077 4.496924

v -64.963341 9.735054 6.489836

v -66.807961 4.508663 4.662363

v -108.307274 -13.861176 6.027233

v -107.674660 -17.337404 4.443129

v -110.895149 -16.959682 6.114765

v -80.838806 -7.349174 4.547311

v -91.803345 -16.138733 4.485938

v -98.308357 -21.812122 4.459642

v -106.103699 -23.682789 6.276217

v -68.540993 -1.537062 6.418903

v -79.824585 -10.380405 6.351307

v -88.016525 -16.596863 6.275692

v -96.800819 -24.399946 6.295308

v -82.735352 18.436615 7.406799

v -87.833221 13.649582 7.223694

v -74.494926 21.502556 7.460495

v -90.748993 10.257072 7.517136

v -69.631256 18.526810 7.630096

v -92.215988 8.042328 7.580048

v -94.438820 5.984535 7.837151

v -96.102425 3.184387 7.673660

v -98.851677 0.734764 7.933052

v -101.266663 -3.274231 6.746704

v -103.285675 -5.818287 6.569862

v -104.948135 -4.131828 8.118340

v -112.005501 -9.508495 8.108490

v -110.852707 -11.738075 6.524738

v -113.500244 -16.148895 6.459587

v -115.974045 -15.434219 8.127903

v -115.700134 -20.872694 6.348837

v -62.288490 10.918213 7.142258

v -119.016800 -22.343819 8.017414

v -118.222755 -26.870495 6.383087

v -64.735283 2.914901 6.493477

v -58.727966 6.684387 7.047775

v -119.244987 -30.846355 6.261476

v -55.786606 0.204254 6.562857

v -117.819946 -40.802170 6.213621

v -55.170319 2.074341 7.134171

v -64.003723 -11.909323 6.520617

v -119.625793 -36.864502 6.638123

v -71.921959 -10.906227 6.546156

v -80.103287 -15.642224 6.508509

v -86.706459 -20.640007 6.498520

v -46.496464 -15.216057 6.550266

v -90.430550 -26.582850 6.388456

v -78.081894 -17.714256 8.302734

v -97.215118 -37.486626 6.317747

v -70.780624 -13.613976 8.326319

v -86.188843 -24.325310 8.191669

v -93.985649 -31.475275 6.394413

v -118.793762 -43.960693 6.749268

v -57.307869 -14.676855 6.540193

v -88.348404 -28.819778 8.264670

v -116.030838 -49.394947 6.216005

v -63.833530 -14.878191 8.354401

v -119.296051 -50.707520 8.322662

v -92.724976 -35.076130 8.166286

v -99.232521 -42.641644 6.298040

v -45.537384 -14.899479 6.969467

v -51.939976 -18.238136 6.575271

v -95.502861 -40.457355 8.181286

v -102.066940 -48.155296 6.266702

v -111.675056 -54.644760 6.309235

v -57.804600 -17.764664 8.350565

v -97.263153 -45.081169 8.036430

v -44.049141 -18.180981 8.312429

v -106.894440 -53.877136 6.892090

v -82.352295 22.023315 10.751953

v -76.845200 23.732124 9.835175

v -88.495422 16.546387 9.951660

v -71.213074 22.229485 10.017670

v -94.516724 9.805878 8.936157

v -99.035019 4.340393 8.691208

v -108.789894 -2.567726 8.756372

v -105.338745 1.427277 10.032654

v -66.033203 19.039619 9.745148

v -114.520363 -6.730724 8.624622

v -119.403023 -11.950371 8.387009

v -117.995728 -9.005558 9.327576

v -120.628433 -15.378853 8.291298

v -122.426804 -22.677414 8.432999

v -62.489044 15.157410 10.155457

v -58.721603 10.747112 10.918518

v -122.743042 -28.945160 8.739746

v -55.648315 7.088966 11.274841

v -122.454422 -35.337341 9.529633

v -52.588303 3.980097 12.229298

v -122.058670 -39.571693 9.335083

v -121.273361 -44.001823 9.067749

v -71.918213 -33.722717 8.324179

v -120.687286 -47.871124 9.339569

v -62.202667 -28.725544 8.383405

v -49.536163 -3.278809 9.942627

v -44.863152 -11.277039 9.833923

v -83.335220 -40.737419 8.290124

v -117.634048 -57.553406 8.219620

v -114.246330 -55.792431 8.011833

v -41.073486 -16.851288 9.489319

v -50.356941 -20.899136 8.408489

v -93.593933 -47.505493 8.310785

v -101.131287 -51.609833 8.167099

v -108.977837 -57.404198 8.082619

v -49.219986 -28.207302 8.477917

v -115.693085 -63.718597 9.293289

v -119.335724 -60.713867 9.985199

v -114.303352 -61.856541 8.220836

v -75.531525 -39.062767 10.063431

v -69.485443 -35.530998 9.981720

v -100.042694 -53.808666 9.730820

v -60.786835 -31.274931 10.189270

v -106.050079 -58.597076 9.824177

v -39.886753 -23.961472 8.484274

v -37.328110 -21.420547 10.369431

v -42.679451 -29.198641 10.301872

v -75.738197 26.258179 10.664360

v -71.187065 24.840250 11.369442

v -74.567650 27.507141 11.426846

v -96.346542 13.165894 11.855804

v -101.018639 8.194569 11.126167

v -104.824127 4.863749 11.293167

v -68.084999 21.704041 11.210571

v -107.084930 1.460621 11.336605

v -116.466125 -6.646788 11.312103

v -124.330444 -13.820181 10.979248

v -125.257881 -18.189827 11.013107

v -124.931137 -20.443283 10.787415

v -124.539986 -24.322243 11.033508

v -124.036697 -27.780380 11.146347

v -123.924065 -30.320925 11.134584

v -50.273056 0.559143 11.741726

v -47.018932 -4.123009 11.377238

v -43.992264 -7.655258 11.309711

v -121.227448 -52.322517 11.065582

v -121.051147 -55.481842 10.918732

v -41.663582 -10.226421 11.292999

v -120.949631 -59.861885 11.044922

v -38.500351 -16.343443 11.362617

v -120.577850 -66.103859 11.056946

v -119.024002 -66.163589 10.018749

v -78.370018 -42.197582 11.147423

v -85.881622 -46.682957 10.939255

v -69.915833 -37.890865 10.373592

v -91.897308 -51.146519 11.102200

v -94.659935 -53.880074 10.973881

v -72.692123 -39.621399 11.104067

v -99.356384 -56.737450 10.211208

v -113.277939 -64.817398 9.966606

v -61.162010 -35.755432 10.342780

v -68.570503 -39.073860 11.243997

v -103.738472 -61.333740 10.143211

v -98.352928 -57.675423 11.090614

v -120.308556 -70.930290 11.002659

v -49.384624 -30.925480 10.244935

v -64.477943 -37.734482 11.223919

v -118.623825 -72.888390 9.966423

v -34.020218 -24.762589 11.264809

v -109.517494 -67.879608 10.042488

v -37.951454 -25.629711 10.249285

v -102.499771 -62.078987 11.046490

v -50.937614 -33.941231 10.375196

v -60.820568 -37.138031 11.350990

v -111.694771 -70.932823 10.075836

v -54.904659 -35.734612 11.057856

v -105.142349 -65.009895 10.973953

v -120.319733 -74.247299 11.568436

v -108.174538 -68.561882 10.995499

v -119.337242 -76.263245 10.510010

v -42.474369 -35.534153 10.381487

v -49.050457 -35.565018 11.265205

v -117.670990 -76.871887 10.256958

v -34.277061 -30.985935 10.396585

v -32.780739 -28.246252 11.407360

v -118.633575 -79.021233 11.249100

v -41.260502 -37.047440 11.351032

v -33.055328 -32.081993 11.375122

v -79.594742 27.007851 13.141769

v -76.675407 28.208481 15.108612

v -89.216095 21.003860 13.141190

v -92.946106 17.596436 13.155914

v -99.321838 11.969588 14.940005

v -71.857254 26.879204 15.325556

v -101.328125 9.122797 14.966366

v -69.824677 24.809847 15.274090

v -103.940964 5.197983 14.863708

v -108.641960 -1.839348 12.894958

v -108.734550 -1.180973 15.166428

v -68.371178 21.987003 16.104996

v -117.816742 -5.871357 16.260315

v -123.766029 -10.267136 13.288040

v -124.927437 -13.630755 12.932468

v -124.986359 -15.874519 13.534119

v -63.890442 16.636932 13.346603

v -124.247124 -18.161591 16.590454

v -123.705582 -21.443977 16.416592

v -123.318588 -24.367640 16.155140

v -60.217991 11.995586 14.106842

v -123.019653 -27.402254 16.172348

v -56.018608 7.744919 13.331589

v -122.380714 -33.142746 16.294960

v -122.032318 -38.477303 16.610748

v -121.712814 -44.956589 13.921997

v -48.623405 -4.210907 16.638577

v -121.606628 -48.645386 14.606689

v -121.538910 -59.438202 16.470581

v -121.006836 -65.246811 16.548157

v -40.323814 -10.642456 16.450592

v -38.051559 -15.926407 13.396957

v -77.821114 -42.871990 13.330248

v -85.361771 -47.117767 13.182575

v -73.452545 -40.840698 13.314779

v -88.219337 -50.455662 15.227324

v -69.712608 -39.856888 13.167487

v -93.336655 -53.121899 14.904428

v -120.343094 -73.412468 17.033295

v -97.370323 -56.731758 14.876091

v -63.882660 -38.686356 14.098019

v -33.480011 -24.485458 13.360046

v -100.642258 -60.181507 14.817083

v -102.538727 -62.723698 14.810822

v -57.850441 -37.976650 16.952909

v -105.110367 -66.205711 14.968605

v -54.093544 -37.433594 16.915724

v -50.357880 -36.896866 16.871614

v -120.880997 -78.967728 12.997765

v -110.433914 -73.749985 14.719238

v -31.362221 -26.988846 14.999344

v -112.386276 -75.393967 12.579651

v -45.578419 -36.669102 17.008900

v -114.106613 -79.186432 12.708908

v -120.453476 -82.723587 12.302574

v -32.670303 -32.308456 13.203224

v -115.420357 -81.024826 12.180943

v -40.603054 -37.460247 14.696201

v -117.285469 -85.617722 11.885418

v -119.816353 -85.224083 12.018467

v -120.804672 -85.490364 12.736210

v -38.961269 -36.696518 13.630003

v -115.678024 -85.865341 12.852158

v -118.485085 -89.792145 11.858139

v -120.441154 -88.924095 12.841215

v -118.821495 -92.146400 12.009510

v -116.866287 -91.621880 12.819801

v -119.851944 -91.903053 12.939667

v -118.185867 -95.162827 12.788239

v -78.820770 27.856703 15.484676

v -82.968506 25.278412 15.777657

v -90.904564 20.039268 15.303894

v -94.470200 16.612144 15.185974

v -96.820450 14.308487 15.220215

v -102.011917 7.480534 15.434235

v -115.385666 -5.311528 14.905029

v -66.179077 17.585258 15.106445

v -64.723068 15.256129 16.183954

v -57.047943 7.274233 15.318832

v -52.602478 1.128971 16.155704

v -50.869411 -1.877419 15.986830

v -122.333221 -42.859005 18.845123

v -44.937740 -7.124134 16.852684

v -121.731323 -53.266384 16.551392

v -36.040710 -16.175346 15.014069

v -79.761749 -46.919510 14.650850

v -75.124603 -45.503212 14.729282

v -32.549957 -21.769684 15.224167

v -67.277740 -41.202538 15.006338

v -108.106880 -69.649162 14.741905

v -30.538967 -30.735470 15.213936

v -112.875221 -77.380112 14.775406

v -120.435875 -81.324875 16.547729

v -112.807404 -79.849007 16.894096

v -119.685425 -85.182449 16.150635

v -114.030426 -82.496918 15.969139

v -31.174858 -35.066265 15.087463

v -115.087936 -84.127151 14.778748

v -118.870300 -87.946991 16.583008

v -35.502560 -37.990498 15.233130

v -114.971405 -87.624893 16.235321

v -115.517876 -89.646835 16.043945

v -118.631210 -92.877670 14.715408

v -117.180710 -92.579544 15.050095

v -117.846458 -95.248756 14.712015

v -78.429794 26.870445 16.045208

v -70.948776 23.930344 16.301142

v -76.656677 23.671875 16.277248

v -84.885185 20.462646 16.268250

v -89.126213 17.124802 16.932877

v -94.073349 14.204849 17.081055

v -97.668152 10.823593 17.188812

v -84.294159 19.269310 17.196594

v -81.138229 20.401482 17.101135

v -75.314163 22.674377 17.133118

v -107.184631 -1.534199 18.445068

v -123.458344 -10.415716 18.068840

v -114.616013 -6.476225 19.331238

v -112.239830 -4.982101 16.740143

v -67.395699 20.645245 19.006908

v -124.832588 -14.099031 18.229309

v -62.533195 13.323415 19.033821

v -58.021629 7.570007 19.062216

v -123.087341 -31.108337 17.870972

v -53.810219 3.237270 18.986967

v -37.714523 -11.134846 18.843750

v -35.484604 -13.366085 18.583092

v -32.109573 -21.358246 17.260834

v -91.345612 -53.521233 15.838573

v -121.606209 -66.890366 19.533310

v -81.081421 -49.587921 16.706604

v -98.159454 -59.724945 15.771122

v -84.969124 -52.789185 16.640923

v -89.135925 -57.403076 16.093355

v -75.665886 -47.079552 17.205452

v -63.299706 -39.634178 17.048569

v -72.268860 -46.040932 18.535198

v -92.584053 -60.109776 15.893425

v -102.415604 -64.965210 15.722496

v -98.790428 -64.758842 15.892282

v -31.022614 -23.993641 18.994431

v -120.512268 -78.161392 16.652679

v -108.139557 -72.450638 15.686600

v -91.292412 -61.116653 16.789480

v -30.189751 -27.725273 19.193924

v -97.315445 -65.305557 16.798668

v -104.565811 -72.604034 16.027596

v -98.961899 -67.405930 17.011154

v -101.186562 -70.062439 16.726599

v -110.025467 -76.996727 16.730709

v -103.875603 -73.150017 16.964754

v -112.061264 -78.362740 16.849983

v -39.530991 -38.542347 17.728088

v -30.296986 -31.040726 18.947472

v -30.845764 -34.358597 19.522686

v -113.180817 -81.640297 16.988001

v -114.443428 -83.657745 17.161232

v -35.205051 -37.641113 17.692635

v -114.413376 -85.858261 17.035646

v -116.261589 -91.223663 16.844852

v -83.872375 18.366928 21.271484

v -100.767815 6.014767 20.759613

v -103.414078 2.496727 20.820251

v -73.354004 21.058990 20.387878

v -111.909035 -5.461843 18.979717

v -126.228012 -17.757986 18.794083

v -64.679008 16.234306 19.247963

v -126.005829 -22.603256 18.828735

v -123.534996 -35.525936 22.631256

v -48.640579 -1.602367 19.876068

v -122.496307 -48.217087 22.133823

v -122.678505 -51.522278 19.348145

v -43.505222 -5.608376 19.127872

v -122.852974 -57.392471 20.126347

v -40.172276 -8.739302 19.085876

v -122.509560 -62.643215 19.432343

v -32.866821 -15.560646 19.160614

v -29.813385 -22.657448 19.905899

v -72.158737 -46.618008 18.749557

v -63.201694 -41.006939 18.350300

v -80.860619 -51.943527 18.727474

v -84.703934 -55.038406 18.822144

v -55.418236 -38.949196 17.856167

v -87.457260 -57.714130 18.935202

v -118.504044 -77.011688 18.732880

v -57.194107 -42.899109 18.576176

v -49.989479 -38.296356 17.925402

v -90.372147 -60.508106 18.735394

v -119.071136 -78.877151 17.588577

v -95.357231 -64.589882 19.944244

v -47.835346 -41.625374 18.041355

v -115.847588 -78.800438 17.839901

v -41.368233 -39.109219 18.229816

v -113.095833 -77.525291 18.557793

v -50.643547 -43.482372 18.858011

v -102.717682 -71.346909 18.467762

v -117.433594 -87.241882 17.543526

v -46.221859 -42.549767 19.003025

v -115.738663 -88.191132 17.357962

v -96.412048 10.914215 20.913361

v -98.265991 9.132996 20.815674

v -79.734543 17.977428 23.691338

v -76.607925 18.530502 23.467026

v -102.909668 0.845879 22.466614

v -122.645485 -10.824768 22.263489

v -69.372124 19.089392 21.395641

v -116.065781 -9.277222 22.886688

v -109.362579 -3.011280 22.238800

v -124.074760 -12.256393 22.633133

v -125.614655 -14.090937 22.583290

v -64.023193 11.760117 20.770386

v -61.318474 7.546211 20.978149

v -126.505669 -28.133444 22.247025

v -58.530914 4.848117 21.074659

v -56.075695 3.207457 21.136536

v -122.520515 -37.943558 23.458191

v -53.472172 1.527800 22.539104

v -50.857170 0.223834 22.869072

v -40.116646 -10.088264 22.605093

v -42.278336 -7.325399 22.818230

v -37.577530 -12.417019 22.652176

v -35.512146 -14.021687 22.910400

v -33.926979 -15.408314 23.052185

v -30.050827 -17.886230 20.583706

v -27.376297 -20.001554 20.758705

v -63.266541 -39.826199 20.875114

v -72.928513 -45.476994 20.716797

v -81.492966 -51.197052 20.704868

v -85.458382 -54.426960 20.644947

v -87.697884 -56.943596 20.532398

v -25.994101 -22.690502 20.576416

v -57.181114 -41.573311 21.529087

v -91.802368 -60.290134 20.527412

v -25.544098 -25.133942 20.407429

v -54.745636 -42.247211 22.392265

v -118.840103 -77.104691 21.525299

v -114.536041 -78.089645 20.595436

v -101.326378 -70.243256 20.919922

v -103.635605 -72.031998 20.842651

v -27.098534 -30.190628 20.776489

v -26.854809 -32.033993 22.850178

v -28.490152 -34.252029 22.891115

v -35.271786 -37.190075 23.420853

v -39.225243 -39.461937 24.717215

v -31.855453 -35.903740 22.314831

v -87.376373 14.589661 23.173615

v -94.300369 6.814514 25.212616

v -99.369629 4.655762 22.649780

v -71.216843 17.350746 22.367790

v -113.005310 -5.469398 22.568481

v -126.349503 -16.128841 22.635010

v -126.898102 -18.096951 22.578735

v -127.126068 -21.391769 22.703400

v -68.265907 12.897377 23.396858

v -127.064346 -23.860712 22.342842

v -63.303299 7.709503 23.398108

v -125.013214 -31.475998 23.058792

v -60.209648 5.073296 23.560833

v -57.301208 3.578121 24.693447

v -121.837067 -44.445587 22.757813

v -48.227543 -0.729812 24.763712

v -45.075855 -3.892104 23.808044

v -122.697227 -51.282021 22.567322

v -121.384949 -60.172852 24.846558

v -120.224670 -66.605225 24.612549

v -118.909882 -73.420959 24.293274

v -63.449577 -39.704956 22.789402

v -72.981003 -45.716640 22.732910

v -30.339760 -18.854027 24.309662

v -81.179077 -51.025932 22.810810

v -84.294624 -53.958817 23.138603

v -87.220612 -56.725822 22.894051

v -91.591850 -60.004597 22.670425

v -28.061274 -22.395807 24.321507

v -95.021500 -65.090698 24.438950

v -24.940424 -26.289038 22.832565

v -97.595894 -67.855377 24.432693

v -116.226921 -79.629044 21.361454

v -117.558830 -80.200607 22.462114

v -110.957550 -79.143555 22.455292

v -115.556778 -83.422684 22.098785

v -105.481216 -77.003845 24.014557

v -51.055054 -44.093613 23.491119

v -26.038651 -29.443356 22.999731

v -47.582619 -43.087200 22.764641

v -42.858597 -42.391911 24.319149

v -86.102875 10.514374 25.315216

v -80.611786 12.820900 23.904207

v -99.202179 1.719788 25.626251

v -110.265991 -4.750000 24.763184

v -121.753998 -11.945679 23.377686

v -80.840393 10.614075 25.412415

v -71.072243 10.971985 24.028910

v -112.629456 -9.350830 24.920654

v -124.934479 -17.087128 24.909424

v -114.556091 -11.866943 24.448486

v -125.881226 -21.027527 24.931396

v -125.284424 -25.180954 25.796021

v -64.073990 5.336434 24.292845

v -52.865162 1.937728 24.871826

v -120.463959 -44.682144 28.655197

v -121.281372 -48.749481 26.490723

v -42.881165 -5.183931 24.806244

v -121.394745 -52.751610 26.430969

v -38.311188 -9.041702 24.986877

v -71.993958 -46.940094 23.651817

v -63.194786 -41.389580 23.699415

v -80.215454 -52.460968 23.604443

v -56.122986 -43.861313 23.712456

v -79.022903 -56.510014 23.857609

v -85.802536 -58.712818 24.268660

v -87.577103 -60.611382 25.913870

v -91.876373 -63.205685 26.049454

v -116.713257 -79.839203 24.722290

v -72.995293 -57.459423 23.838642

v -27.542139 -26.685225 24.709419

v -98.885605 -71.010376 26.066765

v -67.014801 -57.587387 23.658712

v -100.855484 -72.945358 26.001930

v -102.447021 -74.936279 26.604731

v -114.877182 -83.344948 24.758316

v -29.129858 -31.082273 25.204563

v -108.559593 -81.950371 24.225128

v -112.690514 -82.490112 24.059334

v -45.248009 -44.445114 24.373127

v -30.964802 -34.823841 24.678886

v -47.472633 -45.975391 24.179688

v -50.797928 -48.586235 23.767582

v -35.209656 -36.469666 27.167130

v -49.030670 -48.103146 24.608364

v -60.792900 -56.080448 24.358175

v -66.980682 -59.472889 24.686710

v -51.381275 -50.911629 24.684114

v -91.923370 5.051208 26.063828

v -84.448120 7.926575 26.011810

v -105.064941 -3.140686 26.942627

v -110.413055 -7.346405 27.046936

v -77.863792 8.658783 26.134735

v -121.308136 -16.512573 26.230225

v -118.075348 -15.728519 26.516129

v -82.304428 6.254288 27.485519

v -110.463493 -9.447739 27.411942

v -112.613724 -14.815704 27.244667

v -72.549446 9.470581 25.351669

v -123.010208 -20.714211 26.469635

v -67.695518 5.190462 26.245827

v -75.468933 5.951691 27.586838

v -124.534058 -28.859558 26.411987

v -58.001225 2.012663 26.876801

v -121.084358 -35.650391 30.188354

v -53.460186 0.771212 26.746128

v -121.260056 -39.678345 28.476837

v -52.034863 -0.117593 28.465153

v -46.741623 -2.034531 28.993172

v -44.380878 -4.235561 28.616188

v -38.088387 -8.155308 28.759552

v -41.381008 -6.154049 28.632778

v -34.078529 -12.049347 29.090805

v -119.207062 -60.185364 27.206787

v -118.294922 -65.489136 26.571899

v -31.203758 -17.724438 26.833069

v -114.462311 -74.075470 27.251637

v -28.381409 -22.488056 26.918488

v -113.163513 -80.590271 25.593018

v -27.337856 -24.922239 28.289562

v -85.785767 -59.711834 27.002064

v -93.395325 -64.818863 26.850634

v -27.678368 -27.079748 26.905701

v -81.624649 -58.931160 26.945805

v -95.225838 -66.814735 26.667826

v -78.171417 -58.138748 26.725018

v -97.416763 -69.269455 26.124121

v -74.461266 -58.751049 26.760147

v -104.697098 -77.600487 26.669601

v -29.257950 -32.250034 28.665993

v -44.652161 -42.140366 26.880478

v -39.107811 -38.560486 26.937462

v -72.384865 -59.231976 26.928167

v -106.392014 -79.866737 26.324183

v -109.039841 -81.108185 26.747818

v -48.788078 -46.640297 26.658394

v -67.907784 -59.862751 26.559845

v -51.005501 -50.392857 26.561821

v -60.628590 -56.201073 26.692009

v -92.587189 2.041565 27.818954

v -98.532974 -0.848633 29.159912

v -105.682098 -5.675415 27.771591

v -105.323425 -8.417421 27.639446

v -119.645164 -16.615891 30.373238

v -85.837708 1.716553 27.794571

v -107.146149 -14.052750 27.662262

v -114.749031 -16.094072 28.615717

v -84.649200 -0.427063 30.268799

v -78.920807 0.673325 30.029938

v -103.921616 -10.386337 28.512009

v -111.488632 -16.940514 28.091599

v -104.141037 -12.542633 29.001221

v -72.941925 4.392151 28.293213

v -63.695862 2.561275 31.146378

v -56.918655 1.261054 28.711792

v -118.703995 -50.987251 29.073196

v -118.752075 -58.229828 28.598175

v -104.275253 -46.867065 29.158569

v -112.378716 -55.614990 27.384115

v -101.733887 -49.168900 27.416267

v -96.661926 -46.815552 29.027435

v -33.787987 -10.167534 30.634583

v -117.242485 -60.974655 27.388363

v -93.203003 -59.957642 27.390957

v -87.074432 -51.302429 27.491047

v -32.142326 -15.318308 29.110477

v -87.747192 -48.684418 29.137726

v -29.728966 -17.974453 29.099028

v -57.033623 -34.285721 28.267607

v -49.183441 -31.623489 27.639246

v -50.360386 -30.502975 28.564316

v -76.798965 -45.276642 28.529478

v -80.008759 -49.513237 27.506165

v -72.293526 -43.848488 28.473629

v -80.219406 -47.885803 28.449478

v -58.858971 -37.720947 27.619465

v -60.025589 -36.883209 28.440857

v -69.847748 -44.474365 27.533543

v -83.236038 -48.628387 29.294556

v -27.939724 -20.787649 28.962141

v -43.462883 -30.606064 29.605721

v -77.796570 -55.626831 27.450605

v -27.433880 -23.445423 29.095966

v -104.661194 -73.086060 27.304737

v -39.835014 -35.741455 27.771652

v -92.748825 -62.948792 27.111168

v -47.716187 -42.369324 27.599180

v -98.228302 -69.278885 27.034576

v -26.769100 -26.841049 28.940071

v -60.890381 -54.217896 27.521875

v -67.479279 -57.892273 27.481598

v -100.719696 -71.917595 27.029034

v -26.908039 -29.194584 28.969498

v -107.156883 -78.711197 27.254961

v -38.651962 -33.737457 29.341827

v -28.255140 -30.581303 29.298820

v -32.447876 -33.305786 29.521038

v -52.046219 -49.130135 27.529579

v -103.694397 -6.555481 30.514954

v -90.945313 -1.104919 31.035645

v -102.981598 -9.546684 31.500366

v -116.694901 -17.319000 30.702393

v -120.974831 -21.343838 31.129219

v -123.650482 -26.058121 30.275177

v -106.386230 -17.287277 31.381653

v -110.552673 -19.297302 30.807175

v -113.996826 -20.320339 31.207973

v -75.594315 0.972633 30.616577

v -70.583961 2.795090 30.099823

v -123.464752 -29.952637 30.405746

v -57.794384 2.166187 32.037636

v -54.234390 1.886784 31.351835

v -51.669403 1.003204 29.433395

v -49.954163 2.636101 30.407593

v -117.052124 -39.227989 31.135727

v -116.665588 -45.413208 29.766602

v -47.064087 3.311096 31.468994

v -43.478943 -0.319321 29.951813

v -43.031738 -3.735657 29.450653

v -41.261185 -0.429504 30.830200

v -115.162338 -47.734138 29.486298

v -38.626434 -6.517883 29.839569

v -110.990402 -48.698059 29.391346

v -111.502953 -47.537613 30.219147

v -106.933937 -45.628838 30.299730

v -100.375397 -43.115162 30.384544

v -112.529877 -51.990738 29.151461

v -96.851532 -43.712570 29.599136

v -117.031082 -57.514420 29.079206

v -86.680222 -45.871338 29.600876

v -33.501038 -10.181868 32.275715

v -34.026493 -13.897850 29.743031

v -35.460426 -16.804935 30.399586

v -81.911659 -46.559906 31.224518

v -81.702156 -48.476826 30.349152

v -33.220665 -21.259491 29.794107

v -52.366745 -30.459122 30.726349

v -58.244324 -34.158588 30.529091

v -76.294739 -44.458611 30.468700

v -48.953247 -29.654236 30.978470

v -60.290237 -36.402290 30.471397

v -70.952232 -42.546997 30.567387

v -46.150635 -29.122833 31.031311

v -34.080566 -25.635620 29.689491

v -35.911865 -24.351318 31.185760

v -28.494858 -26.943977 29.596361

v -100.939362 -6.232391 32.158936

v -95.881653 -4.320557 32.515076

v -118.938095 -18.160461 31.229145

v -87.405609 -1.449768 32.544708

v -122.099045 -25.837013 31.210632

v -102.905624 -14.398468 34.611084

v -83.163055 -2.138657 33.726929

v -113.561508 -30.985992 31.291172

v -108.752960 -22.731770 31.389107

v -68.291260 0.987473 34.836365

v -121.078629 -32.370102 31.215303

v -106.180389 -23.111130 33.046738

v -110.301392 -30.454731 33.056877

v -51.193851 3.207222 32.585754

v -114.356506 -36.273773 32.199280

v -44.105164 5.757446 32.746948

v -43.023651 5.141479 32.399902

v -116.109009 -42.124023 31.551941

v -114.562180 -46.707935 33.951851

v -34.559723 -6.465359 33.196121

v -110.532066 -47.250664 34.133785

v -105.530365 -44.743748 34.101105

v -100.750946 -42.098946 34.230637

v -86.384338 -34.652611 32.364983

v -90.057106 -36.776436 32.262600

v -87.776291 -36.754028 31.379404

v -80.493164 -32.099312 32.309448

v -94.506989 -41.548599 31.417309

v -78.543030 -33.046722 31.387226

v -73.332291 -28.711052 32.110405

v -64.598633 -26.906982 31.446209

v -67.735657 -26.204880 32.126999

v -85.210892 -43.719986 31.289879

v -63.858028 -25.341843 32.171623

v -59.631622 -25.146423 31.905304

v -75.072266 -42.324341 31.347584

v -35.089104 -13.582191 32.488400

v -62.591309 -35.937012 31.409864

v -51.479370 -27.277405 31.675438

v -37.135288 -16.904266 33.366615

v -58.012543 -32.027679 31.432140

v -36.769119 -20.174629 31.883392

v -42.529018 -23.509026 33.417679

v -40.021759 -24.282761 31.904160

v -46.360626 -27.017273 31.909973

v -100.609619 -8.050934 34.929077

v -95.197311 -6.902359 37.953796

v -90.579590 -4.815781 34.196808

v -102.040527 -11.128235 34.848389

v -76.735039 -0.641060 36.800079

v -72.974014 -0.240341 36.341629

v -102.632813 -19.223083 34.754028

v -103.670425 -24.204571 33.681885

v -63.670193 2.457316 35.841774

v -61.040379 2.990404 36.177940

v -57.809822 3.646217 34.356888

v -105.064346 -30.069260 33.239639

v -52.846703 5.494537 34.522579

v -47.785931 7.520161 34.572727

v -42.987930 8.328857 34.838684

v -103.542191 -29.677452 34.095581

v -111.515961 -35.466553 33.445419

v -39.568848 6.856079 34.948486

v -105.550278 -33.052490 33.917023

v -113.549423 -39.639511 34.986324

v -115.179550 -43.327839 34.118683

v -35.511414 -1.199036 34.140747

v -90.611435 -35.394119 35.908611

v -80.888977 -31.313599 34.744949

v -94.774841 -38.125702 34.762238

v -30.939148 -3.964180 34.337479

v -73.607208 -27.908287 34.488510

v -68.356827 -25.303589 34.692398

v -31.943905 -6.012339 34.399063

v -64.319214 -24.330017 34.527954

v -33.482517 -7.797800 34.806770

v -55.984192 -21.015884 33.972954

v -52.730835 -20.762115 33.481327

v -51.124310 -18.576458 34.437798

v -36.423134 -12.321297 33.589569

v -45.446503 -17.430801 33.575405

v -50.644653 -25.098679 33.303650

v -88.616150 -5.728180 36.440979

v -99.548828 -16.105804 35.703552

v -82.531944 -3.935349 36.815781

v -70.612244 -0.759857 37.894806

v -97.631897 -16.800739 37.084106

v -102.050720 -22.332916 36.582336

v -58.642525 3.343073 35.966427

v -53.635582 5.534375 36.229221

v -47.700684 8.447361 36.866325

v -41.730385 11.681137 37.133774

v -39.908752 10.296387 35.965576

v -102.468048 -27.214680 36.292206

v -102.459923 -31.725780 37.009823

v -104.455902 -33.670090 35.979065

v -105.271271 -35.515491 35.114231

v -38.499214 11.233978 37.253242

v -35.294617 4.438789 35.718933

v -100.511444 -38.533005 35.215305

v -101.531555 -35.580566 36.959595

v -105.139404 -42.811035 35.066460

v -113.056572 -45.964691 35.028946

v -30.071114 3.848579 37.615288

v -30.005096 1.261284 35.750450

v -30.634262 -2.130432 35.578033

v -82.729004 -30.145851 36.958450

v -92.715195 -34.754822 37.076080

v -28.311192 0.459518 36.540916

v -75.310089 -25.936401 37.149879

v -69.461151 -23.313873 36.981876

v -60.454590 -19.641876 37.190514

v -32.066765 -4.332970 38.662888

v -55.544746 -19.376305 36.407509

v -36.638489 -9.385147 36.271225

v -45.265869 -14.973122 35.948433

v -50.999664 -17.758293 38.278454

v -97.735123 -9.628090 38.950211

v -93.084229 -7.855270 38.966938

v -87.089325 -6.712524 37.243530

v -74.377945 -3.461502 37.609360

v -78.235878 -6.168915 37.475906

v -67.954880 0.188883 39.998108

v -65.178703 2.394928 40.234253

v -60.718254 4.626113 38.753544

v -78.737061 -8.589172 38.776825

v -78.296951 -9.922953 39.023659

v -95.345184 -17.302429 37.658615

v -94.635735 -15.232727 39.013771

v -50.903992 10.214226 37.879929

v -40.993580 16.648647 38.482105

v -40.216740 15.776920 37.691891

v -54.946495 7.345121 38.082561

v -93.902855 -18.655655 37.148216

v -101.039917 -23.198700 37.069057

v -88.323700 -15.876404 37.438263

v -35.438770 16.065586 38.470985

v -35.672333 14.119888 37.505630

v -86.578751 -13.007271 39.015507

v -78.720543 -12.511963 37.574356

v -84.047363 -15.651245 37.186253

v -32.723602 11.428463 38.410152

v -101.107681 -29.628963 37.056030

v -71.860657 -12.422806 37.240562

v -71.839691 -11.132111 37.590637

v -29.794640 5.291693 38.338345

v -65.275513 -11.649048 37.993469

v -58.764755 -13.876831 37.650864

v -55.280933 -17.894073 37.305180

v -28.138731 1.136728 38.359558

v -30.430199 -1.935902 38.919373

v -37.286011 -7.826385 38.802299

v -40.032074 -10.617393 38.458603

v -45.413788 -14.251724 38.416138

v -44.652233 16.196873 42.358505

v -53.806778 9.767696 40.529587

v -60.928185 4.916595 40.301689

v -72.886810 -4.275238 40.185242

v -37.735336 18.523285 42.022057

v -76.174500 -7.736679 40.304565

v -35.941788 16.023220 41.423363

v -75.950287 -9.045258 39.460571

v -73.734039 -7.495972 40.974457

v -32.587475 10.842083 41.282349

v -64.207756 -7.229370 40.917847

v -30.693176 6.935410 41.113243

v -58.484131 -10.772247 40.937683

v -30.416603 2.679253 39.740707

v -55.310898 -14.611053 40.378571

v -35.579697 -2.498627 39.761246

v -42.650925 -8.816101 39.689880

v -43.831871 -7.095657 41.069096

v -47.457962 -11.535744 41.044300

v -52.928276 -14.506577 41.113472

v -59.749252 8.855759 41.988861

v -65.829391 4.493155 42.027290

v -52.386185 14.631653 43.577835

v -40.099262 18.843609 41.986481

v -66.586464 1.751137 42.222397

v -67.678772 -1.658897 41.088211

v -64.759735 -4.467728 41.263535

v -63.452606 -2.792297 42.819336

v -54.896469 -5.681595 41.193504

v -47.062477 -4.203636 41.253796

v -52.484390 -2.401306 43.030945

v -33.129688 3.698696 42.113449

v -37.034939 0.869438 42.229862

v -42.066109 -2.021423 41.620300

v -56.906715 12.265976 44.080231

v -62.180378 9.046308 44.099388

v -63.616524 7.180626 44.083595

v -42.145935 20.813560 43.891716

v -37.548004 20.643402 44.543716

v -64.854843 3.636475 44.458572

v -65.085907 1.620209 43.167450

v -35.850525 16.482584 44.224388

v -60.335297 -0.393707 43.399109

v -60.130615 1.757446 44.925293

v -32.523788 10.314797 44.298935

v -30.593657 8.609960 45.937019

v -50.132690 -0.384888 44.673401

v -44.991791 -0.432861 44.587204

v -32.234814 6.164871 46.451611

v -42.219742 -0.730881 44.128128

v -37.863205 1.745804 44.463188

v -48.863815 19.238190 46.896698

v -61.152256 10.059505 47.768509

v -62.632629 6.206734 45.362106

v -34.133865 23.563309 45.289082

v -39.363007 22.690598 45.285019

v -34.270241 16.263397 45.124413

v -59.591537 3.301544 46.193924

v -32.286819 24.924835 46.695908

v -28.409668 20.541931 47.063065

v -29.946640 16.637756 45.262306

v -28.981682 13.387283 45.395695

v -51.168354 2.158569 45.993332

v -45.931183 2.212944 45.951469

v -28.586514 11.066149 46.140331

v -41.273865 2.176842 46.003448

v -44.477303 22.959347 48.763748

v -53.979073 16.399506 49.747360

v -36.139130 26.013397 47.315430

v -40.092522 25.764008 48.838753

v -58.952007 12.465626 48.151634

v -62.155487 7.827713 47.875679

v -30.834702 27.721970 47.278305

v -59.887184 4.665421 48.482750

v -26.915100 27.564667 47.347206

v -25.332310 25.687555 48.031364

v -26.324310 21.219347 48.048065

v -55.126560 3.094261 48.185341

v -27.040100 17.259476 47.759094

v -49.629143 2.983597 48.197113

v -27.654032 14.113798 48.225964

v -44.250244 3.350067 48.549500

v -28.630985 11.021067 48.065170

v -32.551636 8.089905 48.423431

v -40.350601 3.494499 48.386345

v -32.444435 29.982239 49.021549

v -38.650558 31.596039 49.294342

v -42.535034 27.602341 49.182129

v -32.677399 32.461349 49.595444

v -31.240179 30.113674 50.030460

v -48.221958 20.957207 51.779900

v -52.373627 17.900543 51.580170

v -26.875622 28.699039 50.271057

v -59.506439 9.783443 49.117523

v -58.568756 10.854317 51.867828

v -56.736206 7.216599 49.199844

v -26.466770 25.837761 50.836052

v -25.575386 21.548126 50.192017

v -52.348808 7.874512 50.783737

v -46.712418 5.763550 50.662170

v -26.316805 19.154053 50.325237

v -26.738884 16.660524 49.925407

v -29.081997 15.133636 50.845284

v -38.391846 7.385620 49.289734

v -41.028114 8.863342 50.711281

v -32.463768 11.539581 50.793736

v -37.084854 35.588623 52.517456

v -45.638992 30.509060 52.536827

v -43.246735 34.991409 52.539505

v -32.722984 33.324322 51.972466

v -48.142021 25.339462 52.714737

v -31.642120 28.662224 50.991455

v -54.344116 15.158455 52.415855

v -57.328796 11.886726 52.528343

v -27.257263 20.589584 50.929996

v -34.705475 20.737473 50.994041

v -53.028526 10.548965 52.677719

v -45.203888 11.005310 51.977295

v -38.964600 13.056419 50.966671

v -39.978249 15.767700 52.700897

v -40.302612 39.842281 53.242580

v -44.345592 38.006638 53.243076

v -42.932838 40.642769 53.753761

v -38.084641 38.052147 53.561630

v -46.536472 34.656208 53.426872

v -49.958809 29.630781 53.487957

v -35.397892 35.222874 54.069836

v -49.965416 27.670715 52.879448

v -60.254890 23.028515 53.185089

v -51.311005 20.329163 52.789539

v -56.308563 19.000277 53.118839

v -60.113377 21.028755 53.384872

v -34.138229 31.910767 54.286957

v -53.419548 18.500271 53.181343

v -54.209305 16.851660 53.784889

v -36.258759 26.439362 54.260803

v -52.091797 14.524582 52.894054

v -37.802856 21.549103 53.060303

v -43.184044 17.572586 52.961124

v -43.384644 21.324341 55.401978

v -44.387398 39.573261 55.947365

v -42.150791 39.436234 56.505886

v -45.419342 37.568226 56.338013

v -46.703793 35.780338 56.006905

v -37.830124 36.976906 56.115738

v -47.899052 33.977097 55.806366

v -49.256397 31.907434 56.124886

v -51.241943 29.848572 55.615757

v -60.025955 24.546902 55.539738

v -59.276718 23.941656 56.491737

v -57.299843 20.237976 56.003693

v -37.371941 34.067753 56.706371

v -38.469910 28.055542 55.295074

v -51.386520 18.629211 55.064667

v -49.139648 20.837646 56.535370

v -46.539429 33.526932 56.664112

v -49.894562 29.442863 56.624710

v -40.230949 29.196625 56.677223

v -43.853210 23.500626 56.659912

f 1 2 3
f 3 4 1
f 2 5 3
f 6 1 4
f 7 6 4
f 7 4 8
f 8 9 7
f 10 3 5
f 11 8 4
f 3 10 12
f 4 3 12
f 8 13 9
f 13 14 9
f 13 15 14
f 13 16 15
f 4 12 17
f 17 11 4
f 18 15 16
f 19 17 12
f 16 13 20
f 8 11 13
f 18 16 20
f 21 18 22
f 23 24 17
f 22 25 21
f 20 22 18
f 25 22 26
f 27 25 26
f 13 11 28
f 28 20 13
f 24 11 17
f 20 29 22
f 22 29 30
f 26 22 30
f 26 31 27
f 32 11 24
f 30 31 26
f 20 28 33
f 29 20 34
f 35 31 30
f 29 35 30
f 1 36 2
f 1 6 36
f 6 37 36
f 38 5 2
f 37 6 7
f 7 39 37
f 39 7 9
f 5 38 40
f 40 10 5
f 41 39 9
f 9 42 41
f 9 14 42
f 43 42 14
f 14 15 43
f 15 44 43
f 10 40 12
f 44 15 45
f 12 40 19
f 46 47 45
f 46 48 47
f 15 18 45
f 49 48 46
f 21 46 45
f 21 45 18
f 49 46 21
f 50 51 49
f 21 25 49
f 50 49 25
f 51 50 52
f 19 53 23
f 23 17 19
f 27 50 25
f 52 50 27
f 52 27 31
f 54 52 55
f 56 24 23
f 57 23 53
f 55 52 31
f 31 58 55
f 32 24 56
f 57 59 23
f 32 33 11
f 33 28 11
f 23 59 56
f 60 58 31
f 59 57 61
f 56 62 32
f 33 34 20
f 58 60 63
f 34 35 29
f 33 32 64
f 64 32 62
f 33 64 65
f 33 66 34
f 65 66 33
f 59 67 56
f 67 62 56
f 35 34 66
f 66 68 35
f 64 69 65
f 35 70 31
f 60 31 70
f 62 71 64
f 72 68 66
f 68 73 35
f 63 60 74
f 67 75 62
f 70 35 73
f 59 61 67
f 68 76 73
f 74 60 77
f 78 62 75
f 74 77 79
f 80 70 73
f 60 70 81
f 61 82 67
f 67 83 75
f 84 81 70
f 81 85 60
f 86 79 77
f 83 87 75
f 85 77 60
f 85 81 88
f 77 85 86
f 82 89 67
f 83 67 89
f 86 85 90
f 91 92 36
f 36 92 2
f 38 2 92
f 36 37 93
f 92 94 38
f 93 39 95
f 37 39 93
f 39 41 95
f 94 40 38
f 41 42 95
f 96 95 42
f 96 42 43
f 96 97 98
f 43 44 96
f 99 40 94
f 96 47 97
f 100 101 102
f 47 96 44
f 47 48 97
f 100 97 48
f 47 44 45
f 101 100 48
f 103 101 51
f 99 19 40
f 48 51 101
f 99 53 19
f 51 48 49
f 51 54 103
f 54 104 103
f 99 105 53
f 54 51 52
f 53 105 106
f 54 107 104
f 55 107 54
f 53 106 108
f 108 57 53
f 55 58 107
f 107 63 109
f 108 61 57
f 107 58 63
f 108 110 61
f 63 111 109
f 63 74 111
f 111 74 112
f 71 69 64
f 66 65 69
f 69 72 66
f 76 68 72
f 71 62 78
f 69 71 113
f 78 113 71
f 72 69 113
f 113 76 72
f 114 112 74
f 73 76 80
f 114 74 79
f 75 87 78
f 113 78 115
f 61 116 117
f 117 82 61
f 70 80 84
f 115 78 87
f 76 118 80
f 84 80 118
f 84 88 81
f 119 79 120
f 86 120 79
f 113 118 76
f 82 117 121
f 87 83 122
f 118 123 84
f 88 84 123
f 85 88 124
f 120 86 125
f 121 89 82
f 122 115 87
f 90 85 124
f 89 122 83
f 122 126 115
f 123 124 88
f 86 90 125
f 119 127 128
f 120 129 119
f 129 127 119
f 118 113 130
f 129 120 125
f 115 131 113
f 124 123 132
f 133 131 115
f 90 124 132
f 132 134 90
f 125 90 134
f 121 135 89
f 89 135 122
f 133 115 126
f 129 125 134
f 135 121 136
f 122 135 126
f 135 137 126
f 92 91 138
f 139 138 140
f 36 93 91
f 139 94 138
f 92 138 94
f 141 93 95
f 95 96 141
f 142 141 96
f 142 98 143
f 94 139 144
f 142 96 98
f 145 143 98
f 98 97 145
f 146 97 100
f 146 100 102
f 144 99 94
f 101 147 102
f 103 147 101
f 103 148 147
f 103 149 148
f 149 103 104
f 150 149 104
f 104 107 150
f 151 150 107
f 107 152 151
f 152 107 109
f 153 61 110
f 153 116 61
f 116 153 154
f 116 154 155
f 155 117 116
f 114 79 156
f 79 157 156
f 157 79 119
f 158 117 155
f 119 128 157
f 159 157 128
f 117 158 121
f 121 158 160
f 159 128 161
f 161 128 162
f 130 113 131
f 118 130 163
f 163 164 118
f 123 118 164
f 127 162 128
f 130 131 165
f 166 167 123
f 132 123 167
f 168 163 130
f 166 123 164
f 133 165 131
f 130 165 168
f 167 169 132
f 129 134 170
f 127 129 170
f 162 127 170
f 160 136 121
f 165 133 171
f 134 132 169
f 172 168 165
f 169 173 134
f 173 170 134
f 167 174 169
f 175 161 162
f 176 133 126
f 165 171 177
f 177 172 165
f 175 162 178
f 136 160 179
f 173 169 174
f 173 180 170
f 136 181 135
f 174 182 173
f 180 162 170
f 171 133 183
f 177 171 184
f 162 185 178
f 137 176 126
f 183 133 176
f 171 183 186
f 186 184 171
f 173 182 187
f 162 180 185
f 188 175 178
f 180 173 187
f 181 137 135
f 180 187 189
f 178 190 188
f 183 176 191
f 186 183 192
f 189 185 180
f 178 185 193
f 136 194 181
f 181 194 137
f 191 176 137
f 190 178 193
f 136 179 194
f 192 183 191
f 194 179 195
f 196 190 193
f 194 191 137
f 192 191 197
f 198 194 195
f 191 194 197
f 198 197 194
f 138 199 200
f 201 199 91
f 138 91 199
f 200 140 138
f 93 201 91
f 201 93 202
f 93 141 202
f 141 142 203
f 204 139 140
f 142 205 203
f 139 204 206
f 207 142 143
f 143 145 207
f 206 144 139
f 145 97 208
f 208 209 145
f 144 206 210
f 208 97 146
f 102 211 146
f 211 102 212
f 102 147 212
f 213 212 147
f 214 213 147
f 210 215 144
f 147 148 214
f 99 144 215
f 214 148 216
f 148 149 216
f 105 99 215
f 216 149 217
f 217 149 150
f 217 150 218
f 105 215 219
f 106 105 219
f 220 218 150
f 220 150 151
f 151 152 220
f 219 221 106
f 108 106 221
f 109 222 152
f 110 108 221
f 223 222 109
f 223 109 111
f 111 112 224
f 112 114 224
f 153 225 154
f 156 226 114
f 159 227 157
f 159 161 228
f 160 158 229
f 229 230 160
f 164 163 231
f 231 232 164
f 233 231 168
f 163 168 231
f 232 234 164
f 166 164 234
f 235 233 168
f 166 236 167
f 235 168 172
f 175 237 161
f 174 167 238
f 179 160 230
f 172 177 239
f 239 235 172
f 230 240 179
f 239 177 184
f 241 182 174
f 182 241 242
f 175 188 237
f 184 186 243
f 187 182 244
f 186 245 243
f 189 187 244
f 186 246 245
f 246 186 192
f 190 247 188
f 195 179 240
f 185 189 248
f 240 249 195
f 193 185 250
f 190 196 247
f 251 246 192
f 250 185 248
f 250 252 193
f 252 196 193
f 196 253 247
f 249 254 195
f 252 255 196
f 253 196 255
f 198 195 254
f 251 192 197
f 197 256 251
f 255 257 253
f 257 258 253
f 259 253 258
f 254 260 198
f 197 198 260
f 197 260 256
f 261 257 255
f 258 262 259
f 263 259 262
f 257 262 258
f 261 262 257
f 263 262 264
f 265 262 261
f 264 266 263
f 264 262 265
f 265 267 264
f 266 264 267
f 200 199 268
f 199 269 268
f 269 199 201
f 201 270 269
f 270 201 202
f 202 271 270
f 204 140 200
f 271 202 141
f 141 272 271
f 203 272 141
f 273 205 142
f 207 273 142
f 145 209 207
f 274 209 208
f 208 146 274
f 211 274 146
f 215 210 275
f 275 276 215
f 219 215 276
f 221 219 277
f 220 152 222
f 110 221 277
f 277 278 110
f 153 110 278
f 278 279 153
f 280 111 224
f 279 225 153
f 224 114 226
f 225 281 154
f 226 156 282
f 155 154 281
f 282 156 157
f 281 229 155
f 158 155 229
f 159 228 227
f 283 230 229
f 228 161 237
f 231 284 232
f 234 236 166
f 236 238 167
f 285 284 231
f 233 285 231
f 230 283 286
f 241 174 238
f 287 235 239
f 235 287 233
f 287 285 233
f 230 286 240
f 244 182 242
f 240 286 249
f 244 288 189
f 248 189 288
f 289 254 249
f 248 290 250
f 247 253 291
f 252 250 290
f 290 292 252
f 291 253 259
f 259 293 291
f 292 294 252
f 255 252 294
f 254 289 295
f 294 296 255
f 295 260 254
f 297 293 259
f 259 263 297
f 256 260 298
f 261 255 296
f 260 295 298
f 296 299 261
f 299 300 261
f 265 261 300
f 263 266 301
f 300 302 265
f 266 267 301
f 267 265 302
f 302 303 267
f 267 303 301
f 268 304 200
f 268 269 304
f 305 200 304
f 200 305 204
f 269 306 304
f 269 307 306
f 307 269 270
f 271 308 270
f 270 308 307
f 271 309 308
f 309 271 272
f 310 272 203
f 306 305 304
f 307 308 311
f 272 310 309
f 312 306 307
f 312 307 311
f 306 312 313
f 310 203 205
f 205 273 310
f 206 204 305
f 306 313 305
f 305 210 206
f 210 305 313
f 314 207 209
f 212 315 211
f 316 274 211
f 317 209 274
f 317 274 316
f 213 315 212
f 275 210 318
f 213 319 315
f 214 319 213
f 216 319 214
f 318 276 275
f 320 219 276
f 277 219 321
f 220 222 322
f 278 277 323
f 280 223 111
f 227 282 157
f 229 324 283
f 283 324 325
f 325 326 283
f 286 283 326
f 236 234 327
f 327 238 236
f 328 228 237
f 284 329 232
f 234 232 329
f 327 330 238
f 329 331 234
f 331 332 234
f 327 234 332
f 241 238 330
f 285 333 284
f 333 329 284
f 330 242 241
f 287 239 334
f 334 335 287
f 285 287 335
f 335 333 285
f 332 336 327
f 239 184 243
f 243 334 239
f 330 337 242
f 330 327 336
f 336 338 330
f 242 337 244
f 337 330 338
f 249 286 326
f 326 339 249
f 188 340 237
f 188 247 340
f 244 337 341
f 244 341 288
f 342 336 332
f 338 336 342
f 339 343 249
f 342 344 338
f 338 345 337
f 341 337 345
f 288 341 248
f 247 291 340
f 344 346 338
f 346 347 338
f 345 338 347
f 341 348 248
f 248 348 290
f 347 349 345
f 345 348 341
f 349 348 345
f 290 348 350
f 350 292 290
f 256 351 251
f 289 352 353
f 294 292 354
f 353 295 289
f 351 256 298
f 296 294 355
f 356 351 298
f 296 355 357
f 353 356 295
f 298 295 356
f 299 296 357
f 297 263 301
f 358 297 302
f 301 302 297
f 300 358 302
f 302 301 303
f 359 308 309
f 360 310 273
f 360 273 207
f 361 360 207
f 361 207 314
f 210 313 318
f 313 362 318
f 314 209 317
f 317 363 314
f 317 316 363
f 364 319 216
f 276 318 365
f 216 366 364
f 366 216 217
f 276 365 320
f 217 218 366
f 320 321 219
f 366 218 220
f 322 222 367
f 323 277 321
f 222 223 367
f 278 323 368
f 368 279 278
f 279 368 225
f 369 280 224
f 369 224 226
f 369 226 370
f 225 368 371
f 371 281 225
f 370 226 282
f 282 372 370
f 373 229 371
f 281 371 229
f 372 282 227
f 229 373 324
f 228 374 227
f 228 328 374
f 375 326 325
f 326 375 376
f 339 326 376
f 333 335 377
f 243 378 334
f 378 335 334
f 377 379 333
f 329 333 379
f 379 331 329
f 379 380 331
f 332 331 380
f 245 381 243
f 381 378 243
f 380 382 332
f 340 383 237
f 381 384 378
f 246 385 245
f 381 245 385
f 332 382 386
f 332 386 342
f 340 387 383
f 386 388 342
f 344 342 388
f 340 291 387
f 251 385 246
f 389 381 385
f 383 387 390
f 385 251 391
f 390 292 392
f 343 289 249
f 389 393 381
f 393 384 381
f 394 349 347
f 349 394 392
f 392 348 349
f 392 350 348
f 392 292 350
f 343 352 289
f 391 389 385
f 387 395 390
f 391 251 351
f 354 292 390
f 390 355 354
f 390 395 355
f 395 387 291
f 395 291 293
f 396 393 389
f 294 354 355
f 391 396 389
f 395 357 355
f 293 297 395
f 395 397 357
f 299 357 397
f 300 299 397
f 395 358 397
f 358 395 297
f 300 397 358
f 359 311 308
f 309 398 359
f 398 309 310
f 399 398 310
f 312 400 313
f 359 400 312
f 359 312 311
f 399 310 360
f 401 313 400
f 401 362 313
f 402 361 314
f 403 211 315
f 404 318 362
f 211 403 405
f 314 363 406
f 316 406 363
f 211 405 316
f 315 407 403
f 408 407 315
f 315 319 408
f 319 364 408
f 365 318 404
f 365 409 320
f 409 410 320
f 411 366 220
f 320 410 321
f 411 220 322
f 410 412 321
f 413 321 412
f 321 413 323
f 367 223 414
f 415 323 413
f 280 414 223
f 415 416 323
f 368 323 416
f 417 371 418
f 373 371 417
f 373 417 324
f 227 374 372
f 417 419 324
f 325 324 419
f 419 420 325
f 420 421 325
f 375 325 421
f 376 375 422
f 423 376 422
f 378 424 425
f 425 335 378
f 377 335 425
f 377 425 426
f 426 379 377
f 426 380 379
f 380 426 427
f 380 427 428
f 428 382 380
f 376 423 429
f 424 378 430
f 382 428 431
f 376 429 432
f 384 430 378
f 386 382 431
f 431 388 386
f 343 339 376
f 430 384 433
f 344 388 346
f 434 383 390
f 390 435 434
f 346 436 347
f 394 347 436
f 436 437 394
f 392 394 437
f 437 435 392
f 435 390 392
f 343 376 432
f 432 438 343
f 393 433 384
f 352 343 438
f 353 352 438
f 439 440 438
f 440 353 438
f 351 356 441
f 351 442 391
f 442 396 391
f 356 353 443
f 443 441 356
f 359 398 444
f 400 359 444
f 398 445 444
f 399 360 446
f 445 399 446
f 361 446 360
f 361 402 446
f 362 447 404
f 447 362 401
f 316 448 406
f 402 314 406
f 316 405 448
f 364 449 408
f 364 450 449
f 450 364 451
f 364 366 451
f 365 404 447
f 365 447 452
f 366 453 451
f 409 365 452
f 452 454 409
f 453 366 411
f 410 409 454
f 455 411 322
f 454 456 410
f 412 410 456
f 322 367 455
f 412 457 413
f 458 414 280
f 280 369 458
f 368 459 460
f 371 368 460
f 461 369 370
f 418 371 460
f 372 461 370
f 374 462 372
f 463 374 328
f 421 422 375
f 328 237 464
f 425 424 465
f 465 466 425
f 422 467 423
f 426 425 466
f 466 468 426
f 237 434 464
f 468 469 426
f 427 426 469
f 469 470 427
f 434 237 383
f 428 427 470
f 470 471 428
f 431 428 471
f 472 423 467
f 465 424 430
f 429 423 472
f 471 473 431
f 388 431 473
f 432 429 472
f 472 474 432
f 473 346 388
f 473 475 346
f 434 435 476
f 477 434 476
f 435 437 478
f 478 476 435
f 477 476 479
f 432 474 438
f 437 480 478
f 393 481 433
f 478 479 476
f 438 474 482
f 393 483 481
f 393 396 483
f 482 439 438
f 351 441 442
f 442 484 396
f 396 484 483
f 440 443 353
f 445 398 399
f 444 485 400
f 485 444 445
f 486 400 485
f 446 487 445
f 487 446 402
f 406 448 488
f 489 403 407
f 406 488 402
f 490 486 485
f 405 403 489
f 401 491 452
f 491 401 400
f 448 492 488
f 492 448 405
f 408 493 407
f 408 449 493
f 400 486 491
f 407 493 489
f 452 447 401
f 494 405 489
f 405 494 492
f 449 450 493
f 486 490 491
f 493 450 495
f 495 450 451
f 451 496 495
f 451 453 496
f 454 452 491
f 497 454 491
f 496 453 411
f 456 454 497
f 456 457 412
f 498 413 457
f 413 498 415
f 498 416 415
f 459 416 498
f 459 368 416
f 499 458 500
f 369 500 458
f 461 500 369
f 460 501 418
f 372 502 461
f 418 501 503
f 462 502 372
f 503 417 418
f 417 503 419
f 419 503 420
f 462 374 463
f 328 464 463
f 422 421 467
f 466 465 504
f 504 465 505
f 504 468 466
f 469 468 506
f 504 506 468
f 505 465 507
f 469 506 508
f 470 469 509
f 471 470 509
f 509 510 471
f 509 469 508
f 510 511 471
f 471 511 473
f 464 434 512
f 512 434 477
f 430 507 465
f 506 513 508
f 474 472 514
f 433 507 430
f 507 433 481
f 504 513 506
f 475 515 346
f 436 346 515
f 505 516 504
f 504 516 513
f 515 517 436
f 437 436 517
f 514 482 474
f 517 518 437
f 518 480 437
f 477 519 512
f 520 482 514
f 507 516 505
f 519 477 479
f 478 480 521
f 478 522 479
f 439 482 520
f 481 483 523
f 522 519 479
f 440 439 520
f 524 440 520
f 484 523 483
f 523 525 481
f 481 526 507
f 526 516 507
f 522 478 521
f 441 443 527
f 443 524 527
f 524 443 440
f 481 525 528
f 526 481 528
f 516 526 529
f 516 530 513
f 528 531 526
f 526 531 529
f 529 530 516
f 532 485 445
f 485 532 533
f 445 487 532
f 534 487 402
f 534 402 488
f 488 535 534
f 533 490 485
f 488 492 535
f 536 490 533
f 489 537 538
f 537 489 493
f 539 536 533
f 540 492 494
f 489 538 494
f 493 495 537
f 540 494 541
f 542 491 490
f 543 537 495
f 536 542 490
f 543 495 496
f 542 536 544
f 544 491 542
f 536 545 544
f 497 491 544
f 546 496 411
f 411 455 546
f 546 455 367
f 456 497 547
f 547 497 544
f 457 456 547
f 548 367 414
f 457 549 498
f 457 547 549
f 550 414 458
f 459 498 549
f 549 551 459
f 460 459 552
f 553 460 552
f 501 460 553
f 500 461 502
f 554 501 555
f 554 503 501
f 554 556 503
f 420 503 556
f 462 463 557
f 558 557 463
f 556 421 420
f 467 421 559
f 463 560 558
f 560 463 464
f 559 561 467
f 472 467 561
f 512 560 464
f 562 560 512
f 561 563 472
f 514 472 563
f 564 510 509
f 511 565 473
f 563 566 514
f 509 508 567
f 567 564 509
f 473 565 568
f 475 473 568
f 567 508 569
f 475 568 570
f 475 570 515
f 566 520 514
f 571 569 508
f 519 562 512
f 513 571 508
f 518 572 480
f 522 562 519
f 524 520 573
f 574 442 575
f 513 576 571
f 480 572 577
f 562 521 578
f 521 562 522
f 527 575 441
f 442 441 575
f 574 484 442
f 523 484 574
f 579 523 574
f 480 577 521
f 525 523 579
f 513 530 580
f 576 513 580
f 577 578 521
f 579 528 525
f 528 579 581
f 531 528 581
f 582 580 529
f 530 529 580
f 581 582 531
f 529 531 582
f 487 583 532
f 584 487 534
f 585 534 535
f 487 584 583
f 535 492 540
f 539 533 532
f 532 583 539
f 535 540 585
f 586 585 540
f 587 538 537
f 588 539 583
f 545 536 539
f 589 586 540
f 543 587 537
f 541 494 538
f 538 590 541
f 589 540 541
f 545 539 588
f 588 591 592
f 593 586 589
f 541 594 589
f 592 545 588
f 595 593 589
f 594 541 590
f 545 592 596
f 545 596 544
f 544 597 547
f 550 548 414
f 598 549 547
f 598 551 549
f 458 499 550
f 551 552 459
f 599 499 500
f 599 500 502
f 553 555 501
f 502 462 599
f 600 599 462
f 601 602 603
f 604 601 603
f 600 462 557
f 556 554 605
f 557 606 600
f 607 603 602
f 557 558 606
f 604 603 608
f 421 556 609
f 606 560 602
f 609 559 421
f 604 608 610
f 560 606 558
f 603 607 608
f 607 602 560
f 611 559 609
f 612 613 614
f 615 616 617
f 616 615 618
f 619 612 620
f 617 616 621
f 616 618 622
f 616 622 608
f 617 621 620
f 559 611 623
f 623 561 559
f 613 612 619
f 621 619 620
f 614 613 624
f 625 616 608
f 607 625 608
f 561 623 626
f 560 627 607
f 613 628 624
f 607 629 564
f 607 565 629
f 630 613 619
f 630 619 621
f 616 625 621
f 626 563 561
f 607 564 625
f 510 564 629
f 629 511 510
f 567 625 564
f 629 565 511
f 568 565 607
f 568 607 631
f 607 627 631
f 566 563 632
f 630 628 613
f 633 621 634
f 569 625 567
f 570 568 631
f 627 635 631
f 562 578 560
f 566 632 636
f 631 515 570
f 515 631 635
f 560 637 627
f 566 636 520
f 621 633 630
f 634 621 625
f 571 625 569
f 635 517 515
f 627 518 635
f 560 578 637
f 628 527 638
f 635 518 517
f 627 572 518
f 627 637 572
f 636 639 520
f 628 575 527
f 575 628 630
f 571 576 625
f 639 573 520
f 625 576 634
f 574 575 630
f 573 640 524
f 640 527 524
f 637 577 572
f 579 574 630
f 630 641 579
f 580 634 576
f 577 637 578
f 641 630 633
f 641 581 579
f 582 633 634
f 582 641 633
f 580 582 634
f 641 582 581
f 642 584 534
f 642 534 585
f 586 642 585
f 583 584 643
f 583 643 588
f 586 644 642
f 590 538 645
f 587 645 538
f 644 586 593
f 591 588 643
f 543 646 587
f 644 593 595
f 645 594 590
f 543 647 646
f 496 647 543
f 648 595 589
f 594 649 589
f 594 650 649
f 596 651 652
f 651 596 592
f 648 589 649
f 496 546 647
f 546 653 647
f 652 544 596
f 597 544 652
f 546 367 653
f 653 367 548
f 547 654 598
f 654 655 598
f 598 655 656
f 655 657 656
f 598 656 551
f 550 658 548
f 550 659 658
f 657 660 661
f 661 552 657
f 656 657 552
f 552 551 656
f 550 499 659
f 552 661 662
f 499 599 659
f 662 553 552
f 663 662 661
f 664 659 599
f 662 663 665
f 553 662 555
f 666 667 664
f 665 555 662
f 667 666 668
f 668 666 601
f 664 599 666
f 665 554 555
f 601 669 668
f 670 666 599
f 666 670 601
f 669 601 671
f 599 672 670
f 599 600 672
f 601 670 602
f 605 554 665
f 604 671 601
f 670 672 602
f 672 606 602
f 672 600 606
f 671 610 673
f 610 671 604
f 556 605 674
f 556 674 675
f 609 556 675
f 609 675 676
f 673 610 622
f 673 622 677
f 622 678 677
f 610 608 622
f 609 679 611
f 679 609 676
f 680 681 614
f 612 614 681
f 615 617 682
f 618 615 682
f 682 678 618
f 614 683 680
f 620 612 681
f 681 684 620
f 685 682 617
f 622 618 678
f 684 685 620
f 617 620 685
f 614 686 683
f 623 611 679
f 687 679 688
f 614 624 686
f 626 623 679
f 688 624 687
f 679 687 689
f 679 689 626
f 640 687 624
f 626 632 563
f 632 626 689
f 624 628 638
f 689 687 640
f 640 624 638
f 636 632 689
f 639 689 640
f 639 636 689
f 527 640 638
f 573 639 640
f 690 584 642
f 584 691 643
f 584 690 691
f 690 642 644
f 645 587 692
f 646 692 587
f 693 591 643
f 650 645 692
f 647 694 646
f 695 644 595
f 645 650 594
f 696 591 693
f 650 692 646
f 592 591 696
f 695 595 648
f 646 697 650
f 697 646 694
f 647 653 694
f 649 650 698
f 652 651 699
f 698 648 649
f 698 650 697
f 700 694 653
f 697 694 700
f 648 698 701
f 597 652 699
f 698 702 701
f 653 548 700
f 654 547 597
f 698 697 702
f 703 657 655
f 704 702 697
f 700 658 697
f 658 700 548
f 697 658 704
f 703 660 657
f 660 705 706
f 707 704 658
f 659 707 658
f 660 706 663
f 661 660 663
f 659 664 708
f 708 664 667
f 663 706 709
f 709 665 663
f 710 708 667
f 667 668 710
f 711 710 668
f 712 711 669
f 668 669 711
f 713 714 715
f 713 715 716
f 715 714 717
f 717 712 671
f 669 671 712
f 718 716 715
f 716 718 719
f 605 665 709
f 720 721 719
f 719 718 720
f 722 718 715
f 722 715 717
f 673 717 671
f 605 709 674
f 717 673 722
f 721 720 723
f 723 720 724
f 722 725 718
f 675 674 726
f 676 675 726
f 718 727 720
f 728 724 720
f 722 677 725
f 726 729 676
f 673 677 722
f 720 730 728
f 725 727 718
f 727 730 720
f 676 729 731
f 725 677 682
f 680 728 730
f 731 732 733
f 683 734 728
f 728 680 683
f 730 681 680
f 685 727 725
f 677 678 682
f 679 676 731
f 688 731 733
f 734 733 732
f 681 730 727
f 725 682 685
f 731 688 679
f 684 681 727
f 727 685 684
f 686 733 734
f 686 734 683
f 733 686 688
f 624 688 686
f 690 735 736
f 737 643 691
f 690 736 691
f 690 738 735
f 738 690 644
f 737 693 643
f 696 693 737
f 644 695 738
f 739 651 592
f 592 696 739
f 740 651 739
f 699 651 740
f 695 648 741
f 648 701 741
f 742 741 701
f 597 743 744
f 745 654 744
f 654 597 744
f 746 742 701
f 746 701 702
f 654 745 655
f 747 748 703
f 745 747 703
f 703 655 745
f 705 748 749
f 742 746 750
f 705 703 748
f 705 660 703
f 702 751 746
f 751 702 704
f 752 705 749
f 705 752 706
f 750 746 753
f 746 751 753
f 704 754 751
f 704 707 754
f 707 755 754
f 659 755 707
f 752 756 706
f 755 659 708
f 756 709 706
f 714 713 757
f 713 716 758
f 757 759 714
f 759 717 714
f 759 712 717
f 709 756 760
f 716 719 761
f 761 758 716
f 719 721 762
f 762 761 719
f 763 709 760
f 721 723 764
f 764 762 721
f 709 763 765
f 724 766 764
f 723 724 764
f 674 709 765
f 766 767 768
f 765 769 674
f 770 768 767
f 769 726 674
f 771 767 766
f 771 766 724
f 770 729 769
f 767 771 770
f 732 770 771
f 732 729 770
f 728 771 724
f 726 769 729
f 731 729 732
f 734 771 728
f 771 734 732
f 736 737 691
f 772 737 736
f 772 696 737
f 773 738 695
f 774 696 772
f 696 774 739
f 775 699 740
f 695 741 773
f 699 743 597
f 776 773 741
f 777 776 741
f 741 742 777
f 778 745 744
f 745 778 779
f 779 747 745
f 780 748 747
f 747 779 780
f 749 781 782
f 749 780 781
f 742 783 777
f 749 748 780
f 750 783 742
f 749 782 752
f 750 784 783
f 753 784 750
f 753 785 784
f 751 786 753
f 751 754 786
f 753 786 785
f 782 787 788
f 752 782 788
f 786 789 790
f 754 791 786
f 755 792 754
f 793 794 788
f 788 756 752
f 792 791 754
f 755 708 792
f 786 791 789
f 794 795 788
f 759 790 789
f 795 756 788
f 708 710 792
f 789 712 759
f 712 789 791
f 792 710 791
f 791 710 711
f 757 713 796
f 759 757 797
f 712 791 711
f 795 794 798
f 796 713 758
f 756 795 760
f 758 799 796
f 800 762 801
f 800 761 762
f 761 800 799
f 761 799 758
f 801 762 764
f 760 802 763
f 803 801 766
f 766 801 764
f 768 803 766
f 769 765 804
f 805 769 804
f 805 806 770
f 768 770 806
f 770 769 805
f 735 807 736
f 735 738 807
f 736 808 772
f 738 773 807
f 772 808 809
f 772 809 774
f 807 773 776
f 810 740 739
f 739 811 810
f 811 739 774
f 811 774 809
f 740 810 775
f 812 743 699
f 699 775 812
f 813 814 743
f 743 812 813
f 809 815 811
f 815 809 816
f 817 818 776
f 819 820 821
f 744 743 814
f 814 822 779
f 779 778 814
f 778 744 814
f 817 776 823
f 777 824 776
f 819 821 781
f 822 819 780
f 817 825 818
f 787 781 821
f 781 780 819
f 779 822 780
f 821 826 827
f 776 824 823
f 817 823 825
f 827 787 821
f 828 825 829
f 787 782 781
f 825 830 829
f 830 825 823
f 824 777 783
f 823 824 797
f 827 826 831
f 832 824 783
f 829 830 833
f 824 832 797
f 829 833 834
f 832 783 784
f 830 799 833
f 823 797 830
f 827 831 835
f 833 836 834
f 793 827 835
f 790 784 785
f 785 786 790
f 793 787 827
f 797 832 784
f 793 788 787
f 837 836 833
f 784 790 797
f 797 796 830
f 838 837 833
f 799 830 796
f 759 797 790
f 838 833 801
f 800 801 833
f 800 833 799
f 794 793 839
f 839 798 794
f 797 757 796
f 839 840 798
f 795 798 840
f 795 840 802
f 802 760 795
f 838 801 803
f 763 802 765
f 841 765 802
f 765 841 804
f 842 804 841
f 838 768 806
f 838 803 768
f 805 804 842
f 842 843 805
f 806 805 843
f 808 736 807
f 809 808 816
f 807 818 808
f 818 807 776
f 808 818 828
f 844 820 819
f 819 845 844
f 814 813 846
f 845 819 822
f 845 822 846
f 814 846 822
f 775 847 812
f 847 775 810
f 848 821 820
f 808 828 816
f 848 826 821
f 849 847 810
f 849 810 811
f 818 825 828
f 848 850 826
f 849 811 851
f 851 811 815
f 815 816 851
f 828 829 816
f 816 829 851
f 834 849 851
f 852 849 834
f 829 834 851
f 831 826 850
f 850 853 831
f 852 834 836
f 854 852 836
f 835 831 853
f 853 855 835
f 837 854 836
f 837 856 854
f 835 855 857
f 857 793 835
f 837 858 856
f 839 793 857
f 857 859 840
f 839 857 840
f 859 802 840
f 858 837 838
f 841 859 860
f 861 862 860
f 802 859 841
f 843 860 862
f 842 841 860
f 806 858 838
f 842 860 843
f 806 863 858
f 843 862 863
f 863 806 843
f 864 813 865
f 866 844 845
f 813 864 846
f 820 844 867
f 845 846 864
f 813 868 865
f 867 848 820
f 868 813 812
f 868 812 869
f 869 812 847
f 847 852 869
f 852 847 849
f 870 871 869
f 869 852 870
f 870 852 854
f 872 871 870
f 856 870 854
f 856 872 870
f 873 874 872
f 856 863 872
f 875 857 855
f 872 863 873
f 859 875 876
f 859 876 877
f 857 875 859
f 856 858 863
f 861 877 873
f 859 877 861
f 862 861 873
f 862 873 863
f 860 859 861
f 878 866 845
f 864 878 845
f 879 878 864
f 864 880 879
f 866 881 844
f 880 864 865
f 882 867 881
f 865 883 880
f 844 881 867
f 848 867 882
f 883 865 884
f 884 865 868
f 882 885 848
f 850 848 885
f 884 871 886
f 871 884 868
f 884 886 887
f 868 869 871
f 885 888 850
f 853 850 888
f 874 887 886
f 874 886 871
f 872 874 871
f 888 889 853
f 855 853 889
f 890 873 891
f 890 874 873
f 889 892 855
f 892 875 855
f 893 891 877
f 873 877 891
f 876 875 894
f 894 893 876
f 877 876 893
f 895 881 866
f 896 878 879
f 879 880 897
f 898 882 899
f 882 881 899
f 880 883 897
f 882 898 900
f 887 901 897
f 898 902 903
f 887 897 883
f 903 904 898
f 883 884 887
f 885 882 900
f 900 898 904
f 885 900 888
f 890 901 887
f 905 900 904
f 890 906 901
f 888 900 905
f 887 874 890
f 891 907 906
f 891 906 890
f 908 888 905
f 908 889 888
f 893 909 907
f 893 907 891
f 909 893 894
f 894 875 892
f 910 899 881
f 910 881 895
f 911 895 866
f 912 899 913
f 899 910 913
f 914 911 866
f 866 878 914
f 912 898 899
f 878 896 914
f 902 898 912
f 915 896 879
f 902 912 916
f 879 897 915
f 897 917 915
f 916 918 903
f 902 916 903
f 917 897 901
f 919 903 918
f 903 919 920
f 901 921 917
f 920 922 903
f 904 903 922
f 921 901 906
f 906 923 921
f 904 922 905
f 905 922 924
f 923 906 907
f 907 925 923
f 924 926 905
f 908 905 926
f 925 907 909
f 889 908 926
f 927 889 926
f 928 925 909
f 928 892 927
f 889 927 892
f 928 894 892
f 928 909 894
f 929 913 930
f 931 930 913
f 930 932 929
f 910 931 913
f 929 932 933
f 916 912 929
f 913 929 912
f 934 910 895
f 935 895 911
f 933 916 929
f 936 918 933
f 918 916 933
f 914 937 938
f 937 914 896
f 896 915 937
f 937 917 939
f 917 937 915
f 919 918 936
f 919 936 940
f 919 940 941
f 919 941 920
f 939 917 921
f 942 923 943
f 923 942 939
f 939 921 923
f 920 941 944
f 920 944 922
f 944 945 922
f 945 924 922
f 945 946 924
f 947 948 925
f 925 943 923
f 926 924 946
f 949 926 946
f 927 949 947
f 928 947 925
f 949 927 926
f 947 928 927
f 930 950 932
f 930 951 952
f 951 930 931
f 950 953 932
f 954 951 931
f 954 931 910
f 934 954 910
f 932 953 933
f 933 953 955
f 934 895 935
f 956 911 914
f 914 957 956
f 936 933 955
f 914 938 957
f 940 936 955
f 938 937 939
f 955 958 940
f 958 955 959
f 960 938 942
f 941 940 958
f 961 960 942
f 938 939 942
f 962 959 963
f 948 961 942
f 946 958 959
f 948 962 961
f 944 941 958
f 943 948 942
f 944 958 946
f 946 959 962
f 946 962 949
f 944 946 945
f 962 948 949
f 925 948 943
f 949 948 947
f 964 965 966
f 965 964 952
f 967 952 964
f 968 965 952
f 969 968 952
f 952 967 950
f 969 952 951
f 950 967 970
f 952 950 930
f 971 969 951
f 969 971 972
f 951 954 971
f 971 973 972
f 970 953 950
f 973 974 972
f 975 972 974
f 953 970 976
f 973 971 954
f 973 977 974
f 976 955 953
f 973 954 934
f 934 935 973
f 977 973 935
f 935 978 977
f 935 911 978
f 979 955 976
f 978 911 956
f 980 978 956
f 959 979 981
f 956 957 980
f 955 979 959
f 960 980 957
f 982 981 983
f 957 938 960
f 980 960 982
f 981 963 959
f 963 981 982
f 963 982 960
f 960 961 963
f 963 961 962
f 966 984 985
f 966 965 984
f 966 985 964
f 986 984 965
f 987 986 965
f 985 988 964
f 965 968 987
f 968 989 987
f 968 990 989
f 967 964 988
f 969 990 968
f 991 990 969
f 969 972 991
f 992 991 972
f 993 992 972
f 970 967 988
f 993 972 975
f 975 994 993
f 988 995 970
f 995 976 970
f 974 994 975
f 995 996 976
f 994 974 997
f 996 979 976
f 977 997 974
f 977 978 997
f 980 997 978
f 996 983 979
f 983 998 997
f 983 997 980
f 982 983 980
f 981 979 983
f 984 986 985
f 999 985 986
f 999 986 987
f 995 988 985
f 999 987 989
f 989 990 999
f 995 985 999
f 1000 990 991
f 990 1000 999
f 991 993 1000
f 993 991 992
f 999 1001 995
f 1001 999 1000
f 1002 1000 993
f 993 998 1002
f 993 994 998
f 1002 1001 1000
f 996 995 1001
f 994 997 998
f 996 1001 1002
f 996 1002 983
f 983 1002 998
