v 69.461212 14.420305 8.004702

v 73.441170 17.198288 7.735489

v 70.817291 13.727764 7.056795

v 78.866348 17.424240 7.081112

v 80.482666 19.497911 7.693666

v 66.585999 9.793235 8.050365

v 67.431824 7.574013 7.169868

v 85.123535 14.741447 7.184607

v 83.431511 17.527494 8.010609

v 70.637390 3.472326 7.029737

v 86.296753 15.161282 8.068083

v 65.790138 5.081200 8.949341

v 88.424133 12.786240 8.283997

v 91.654396 3.851701 7.094849

v 78.872902 -0.736835 7.078157

v 94.098206 5.280495 9.291199

v 93.438332 -4.515282 7.106625

v 96.722359 2.083160 8.856598

v 98.423553 -1.788350 7.207102

v 78.102982 -3.337708 8.916157

v 98.308037 -7.926224 7.203743

v 93.852959 -7.694218 8.944607

v 100.393951 -2.024601 8.123512

v 103.140709 -6.592151 8.139313

v 103.815109 -11.702600 7.100055

v 105.116913 -10.469109 8.055496

v 102.268585 -13.850021 8.679028

v 104.963852 -13.043110 8.018780

v 77.763008 20.676792 10.045126

v 71.200302 16.483459 11.758720

v 80.198952 19.056696 11.898275

v 68.394882 12.968063 12.147858

v 66.339775 8.785306 11.661594

v 62.946609 0.957291 9.023483

v 63.154861 3.502987 9.893600

v 69.887199 0.616402 8.878339

v 87.163628 14.065470 11.844620

v 60.849766 -3.925232 8.895599

v 55.602875 -7.648819 10.462189

v 57.253044 -9.254730 8.935444

v 54.236397 -14.597061 8.905972

v 62.519058 -17.494341 8.857941

v 91.026566 10.776566 9.917938

v 75.308853 -19.259098 8.892519

v 52.862774 -20.682638 10.621357

v 51.734680 -14.313828 10.613373

v 55.428608 -18.406528 8.872312

v 63.102467 -20.146866 10.627164

v 99.816139 -1.286165 11.568733

v 83.832916 -22.326042 8.901718

v 79.678619 -23.169991 10.701771

v 99.619888 -14.034531 8.971806

v 91.274353 -26.583298 8.919675

v 105.701233 -10.935059 11.384369

v 104.786209 -16.384178 9.005999

v 105.152191 -14.211349 9.257629

v 108.440125 -16.438721 11.893127

v 110.431549 -33.561249 8.951424

v 98.764000 -33.883667 8.960251

v 90.649567 -28.941956 10.456360

v 97.441383 -36.544029 10.767334

v 105.547546 -40.458630 8.961380

v 110.806519 -26.906109 9.053129

v 112.005005 -30.953064 9.318817

v 111.670387 -37.123077 9.031853

v 111.680885 -41.605255 9.041904

v 111.119621 -43.686432 9.598373

v 106.653351 -44.319836 10.786792

v 74.468521 20.434746 12.464146

v 77.603348 21.185829 12.165337

v 83.044777 16.525232 11.800762

v 64.942703 6.020256 11.833321

v 61.313629 3.448494 12.136322

v 59.704712 0.056686 10.901733

v 54.379028 -4.087299 11.339890

v 52.226364 -7.668537 11.143658

v 90.140442 11.973602 12.974243

v 50.421921 -9.991226 11.124233

v 46.591518 -15.969202 10.882229

v 47.772682 -12.863533 11.721634

v 92.943794 8.352348 13.794403

v 45.864437 -21.780365 10.763659

v 44.558823 -19.039158 11.000893

v 43.793190 -22.334864 11.647774

v 46.859341 -23.398701 11.674130

v 53.923512 -23.176212 10.790216

v 51.283714 -24.106201 11.332862

v 95.563797 6.716335 15.820160

v 97.888527 1.501041 11.811935

v 59.693619 -23.716705 10.958309

v 69.853195 -24.471050 10.890318

v 60.633728 -26.381298 12.671265

v 103.223572 -6.531708 11.830620

v 76.287140 -26.901882 10.855244

v 70.972252 -27.165665 12.557468

v 83.694801 -31.166485 10.846370

v 88.477264 -29.015854 10.797153

v 81.582405 -32.864780 12.606056

v 112.468842 -18.538879 13.434998

v 113.568848 -24.277283 11.548706

v 92.206589 -37.753155 10.883986

v 88.852280 -38.700150 12.614105

v 114.223083 -27.514099 11.584961

v 96.780731 -40.963966 10.887302

v 94.086143 -42.009918 12.639057

v 102.247192 -41.049400 10.722973

v 115.297241 -35.197754 12.107300

v 97.698822 -47.636311 12.658752

v 99.985489 -46.243919 10.943298

v 105.158638 -52.151974 10.850493

v 116.024902 -42.667908 13.574463

v 112.151733 -45.552612 10.924042

v 110.822166 -52.015385 10.844095

v 103.155273 -54.312763 12.632034

v 113.984802 -50.360199 12.603149

v 111.922623 -55.623161 12.657041

v 68.222168 18.946289 13.033104

v 73.404053 23.776291 13.341167

v 70.614777 17.652500 12.648544

v 63.585464 14.601624 14.501839

v 63.131851 10.166870 13.072861

v 78.745872 22.991684 13.704514

v 82.039322 21.409222 13.877548

v 65.204788 9.604675 12.647949

v 84.576736 19.123672 13.760597

v 59.229736 8.255775 14.506653

v 86.914383 16.698486 13.778488

v 56.930298 2.631729 14.452408

v 54.402634 -0.873820 14.425674

v 53.122856 -4.235279 13.612274

v 50.529922 -8.002708 13.802719

v 48.178070 -11.226048 13.615158

v 45.787567 -13.148396 14.311195

v 43.878250 -15.585659 14.301205

v 39.690197 -19.606102 14.398182

v 38.903122 -22.660217 14.375803

v 42.363388 -23.588516 13.742659

v 45.360180 -23.340729 13.531655

v 98.190704 3.607563 15.386581

v 51.108593 -25.992138 14.451270

v 100.293129 0.670273 13.853912

v 104.478065 -5.372246 13.891739

v 72.024734 -32.538673 12.751031

v 61.069405 -29.430550 14.461461

v 107.151428 -8.981571 13.949921

v 109.767029 -13.234741 13.632172

v 82.561325 -38.757751 12.776772

v 79.592522 -39.575306 14.498093

v 114.900635 -24.305756 14.373047

v 90.462738 -47.468048 12.712184

v 88.081604 -48.315308 14.298798

v 98.526138 -56.233727 12.750494

v 92.673767 -53.326660 14.308594

v 116.179550 -47.343441 13.800903

v 100.260757 -57.075893 12.716698

v 102.100922 -61.789375 13.223618

v 115.984268 -50.969486 13.952026

v 114.679344 -55.546448 12.846382

v 116.076141 -54.927013 13.749458

v 106.076141 -64.280548 12.695055

v 114.390114 -60.447140 12.777299

v 104.377693 -64.701202 13.651558

v 115.931190 -60.824429 13.858070

v 108.235962 -68.845032 13.696262

v 114.401779 -66.562813 12.750596

v 111.687775 -69.839012 12.780313

v 116.202988 -65.034042 13.767887

v 115.282021 -68.506660 13.720894

v 113.150856 -71.485405 13.676992

v 64.912430 21.421043 15.700924

v 72.363220 26.094131 15.759182

v 66.096680 20.300041 14.721252

v 61.749222 18.028370 15.692345

v 74.683533 25.958544 15.398767

v 60.615265 14.990715 14.849640

v 58.142834 14.394900 15.656166

v 57.062073 10.253613 14.787312

v 78.790398 24.059286 15.775869

v 55.235573 9.630341 15.605988

v 54.448105 6.163202 14.969929

v 81.941803 21.692520 15.821777

v 84.643059 18.969025 15.979065

v 51.356152 2.798529 15.026791

v 47.271671 -0.205751 16.229286

v 48.256573 -1.744530 14.673969

v 45.456108 -2.241914 16.125032

v 45.213913 -6.295826 14.648838

v 43.973259 -5.600455 15.559464

v 51.128899 -4.604321 14.548260

v 41.489128 -9.984428 15.497879

v 86.951126 16.430511 16.254364

v 46.883091 -10.435101 14.536608

v 41.618103 -12.088146 14.619154

v 38.445244 -12.971800 16.229950

v 89.541992 13.716801 15.875214

v 37.035065 -16.575106 14.856026

v 33.696373 -22.652508 14.552391

v 33.298817 -19.943581 15.978310

v 31.933756 -23.603979 15.498787

v 92.950432 9.740470 15.699841

v 33.348515 -27.771534 14.484186

v 40.056019 -25.212585 14.495077

v 31.893288 -28.342617 15.383606

v 45.110397 -32.328499 14.553121

v 35.958313 -31.001911 14.916962

v 45.538357 -24.942955 14.439954

v 51.453697 -32.592884 14.563362

v 100.925301 0.130501 17.449615

v 42.456436 -34.534985 16.218857

v 103.935936 -3.596901 17.600998

v 60.428032 -34.873360 14.599472

v 52.768497 -35.378754 16.336710

v 107.140945 -7.343525 17.660278

v 71.357559 -35.186722 14.507271

v 70.691269 -40.262840 14.641785

v 63.344490 -39.237152 16.369574

v 115.418701 -19.078461 17.250122

v 74.981087 -45.081940 16.279762

v 84.345787 -48.104614 14.756428

v 117.649536 -28.060036 17.656616

v 117.270386 -34.768456 15.395630

v 85.588440 -51.689430 16.292938

v 117.048691 -38.558090 15.954102

v 116.906746 -42.008976 16.324799

v 96.928612 -59.533859 16.219875

v 116.859322 -44.821236 16.816711

v 100.019569 -62.280571 16.034607

v 103.538879 -64.587158 15.539490

v 116.151337 -56.008209 17.543869

v 106.952621 -68.287994 15.578758

v 116.517288 -63.644783 17.688477

v 110.255997 -71.482185 15.866764

v 115.507324 -70.234833 16.692505

v 113.952209 -71.719666 15.915665

v 71.909752 25.751366 17.680841

v 65.025589 20.732323 18.068602

v 61.694736 17.580532 17.749693

v 77.153687 24.144302 18.198555

v 58.645676 14.515595 17.639366

v 55.959698 11.256390 17.567291

v 54.248169 8.243664 17.700253

v 54.062378 6.747724 18.640045

v 78.714645 21.886902 18.910645

v 51.758369 4.805406 17.548477

v 48.961109 1.911128 17.575291

v 44.157795 -4.636795 20.798828

v 41.638275 -7.582504 19.712769

v 35.270508 -16.194611 17.411255

v 89.800705 11.579041 20.538452

v 31.172689 -24.467642 21.359192

v 94.628387 7.081024 17.848663

v 32.495758 -30.516739 16.583435

v 98.072952 3.435516 17.618729

v 34.519039 -34.380875 16.548611

v 30.013224 -34.568886 19.831533

v 43.472263 -37.362705 16.533897

v 36.238068 -37.416771 17.273510

v 42.697571 -38.543072 17.400070

v 51.786995 -39.485725 16.534349

v 51.151646 -40.610542 17.380699

v 60.656616 -42.067482 16.522047

v 112.325317 -12.745789 18.361084

v 61.128414 -43.701694 17.428518

v 66.867996 -44.823959 16.535652

v 66.403229 -46.176579 17.359974

v 72.066040 -47.379158 17.078568

v 117.117065 -23.317194 17.690918

v 76.109833 -48.908508 17.001720

v 79.249916 -50.592403 17.051083

v 81.766541 -52.684753 17.084711

v 84.575180 -54.955212 17.128281

v 87.273758 -56.949902 17.095085

v 118.120697 -36.241699 18.980713

v 89.304764 -58.071510 16.852097

v 117.460587 -47.496902 18.556274

v 91.825592 -60.948311 17.546989

v 94.525330 -62.366901 17.001013

v 116.253448 -52.410439 17.531342

v 99.615189 -65.907898 16.932793

v 103.344818 -66.044434 16.305496

v 116.149872 -59.809425 17.505707

v 103.818604 -69.927094 16.733444

v 109.172653 -72.180481 16.470032

v 110.131805 -79.308144 16.528538

v 115.318863 -75.199776 16.698425

v 105.707581 -75.455414 17.722473

v 109.387360 -80.662529 17.437683

v 115.429993 -80.494186 16.656813

v 111.908257 -83.588364 17.435856

v 114.627945 -84.569916 16.907669

v 116.210930 -83.652557 17.543892

v 117.237923 -82.182579 19.854984

v 72.114754 24.279366 18.510250

v 68.235519 19.568409 18.704233

v 72.700714 20.620148 19.091843

v 66.197044 16.939459 19.489302

v 62.405239 14.611933 19.462521

v 58.872364 10.709236 19.567730

v 53.987476 5.707982 20.096350

v 81.185486 19.818176 19.874146

v 49.480434 1.664651 21.246996

v 47.402187 -1.919227 20.481657

v 38.779167 -11.273108 20.786835

v 36.858891 -14.010015 21.311951

v 33.300411 -17.963377 23.770782

v 87.331238 14.473352 21.374252

v 29.866951 -30.811958 19.396820

v 92.177887 7.520691 20.215729

v 95.072266 2.211670 19.977859

v 31.804367 -37.407890 20.688967

v 97.409996 -0.399658 20.097168

v 34.947018 -37.456966 19.325075

v 39.257004 -38.393890 19.221012

v 101.719093 -3.187012 19.769806

v 45.132763 -39.409103 19.304914

v 105.594818 -5.956329 19.725052

v 50.904221 -41.069073 19.220825

v 109.128143 -9.125206 19.701904

v 59.498619 -43.658585 19.545544

v 64.004082 -45.738892 21.113153

v 115.718719 -15.719849 20.254745

v 117.377625 -19.926937 20.139404

v 70.677780 -46.441566 19.284451

v 75.791443 -48.137623 19.263132

v 118.054047 -24.868813 19.826218

v 118.101410 -27.851761 19.492035

v 80.185555 -50.443893 19.390108

v 119.401031 -31.373322 21.112915

v 82.344131 -51.907677 20.915119

v 87.078529 -56.206772 21.205669

v 117.837585 -39.578281 19.270416

v 117.935654 -43.442764 19.424194

v 90.254395 -59.270744 21.170893

v 92.440804 -61.802036 21.235413

v 117.860413 -52.274734 20.046265

v 97.240646 -66.389008 19.162750

v 118.050774 -57.597610 20.849396

v 101.055817 -71.048981 19.340759

v 118.155983 -60.895554 21.175949

v 118.072556 -65.915237 20.698030

v 117.448364 -70.328667 19.417328

v 117.208328 -74.107841 19.438339

v 107.059128 -78.933937 21.220909

v 117.580635 -78.185204 19.437286

v 110.996056 -83.267624 21.850420

v 114.194786 -84.681908 23.667027

v 62.633030 13.670495 23.279701

v 66.119431 16.186234 21.710793

v 71.062347 18.306259 21.953796

v 74.268478 19.166931 21.748795

v 55.342281 7.826673 23.346420

v 57.022087 9.410173 23.354599

v 51.317818 4.155079 23.364080

v 82.979233 16.259338 21.658813

v 38.627792 -10.024721 24.747498

v 29.954781 -30.838577 21.072170

v 35.822342 -39.217091 20.114342

v 32.994022 -41.570995 21.254848

v 33.609436 -40.675140 20.402271

v 35.412048 -44.226871 20.635962

v 98.800339 -4.264435 21.366211

v 39.030773 -45.697277 20.273306

v 47.318466 -41.254578 20.208885

v 101.329865 -6.594498 21.387527

v 38.621979 -46.786125 21.101898

v 105.561661 -8.659561 21.620514

v 43.587955 -47.281082 20.404926

v 53.858597 -43.564438 20.273424

v 111.703766 -11.891388 23.501457

v 113.965919 -12.642439 21.387299

v 59.205063 -46.079620 22.255249

v 118.061058 -15.521750 21.651438

v 70.341858 -46.398735 21.286873

v 120.782318 -17.889006 21.642870

v 121.612564 -20.506451 21.064177

v 74.581604 -47.651554 21.336472

v 121.577858 -23.579277 21.402035

v 79.080841 -49.674950 21.295010

v 120.502060 -27.765736 21.579971

v 83.988129 -54.752869 21.967907

v 117.383667 -39.959152 25.682983

v 95.320145 -64.770531 21.237625

v 99.099701 -70.529297 21.400238

v 103.374146 -75.653000 21.547485

v 117.063477 -72.527214 23.182114

v 106.624451 -80.922592 22.208801

v 117.236252 -77.120819 23.439117

v 115.532608 -83.843956 23.500061

v 65.810501 14.202789 24.106237

v 59.445271 11.515869 23.331884

v 71.519859 14.862495 24.241669

v 53.273052 6.080733 23.308100

v 49.447056 2.611832 23.235022

v 76.255981 15.879456 22.854309

v 45.331329 -1.650114 24.370642

v 42.605919 -4.884498 24.911617

v 87.356567 12.535278 22.853790

v 36.366653 -12.861666 24.904942

v 90.388832 10.381012 23.327164

v 31.786188 -29.281258 23.800255

v 92.140991 7.180168 23.577820

v 93.597656 3.770813 25.349701

v 31.781681 -33.982853 23.517286

v 33.069897 -37.726631 23.858883

v 96.700661 -1.328364 24.893959

v 33.869705 -41.319824 23.330296

v 99.127968 -5.457960 23.364265

v 38.206024 -45.396385 23.435123

v 101.895218 -7.461514 24.643082

v 41.396580 -48.138176 23.041431

v 45.154243 -48.613316 23.142765

v 107.224487 -10.998749 24.442627

v 48.232540 -47.630234 22.017183

v 46.852242 -47.945728 23.944637

v 49.806614 -50.427269 23.348583

v 51.429119 -49.908306 22.498674

v 115.687881 -14.356121 25.509254

v 60.719612 -47.881012 23.887045

v 118.201134 -15.521221 25.357101

v 65.427765 -47.758392 22.251463

v 67.135757 -51.385086 23.867779

v 73.383820 -48.475052 22.163160

v 73.203949 -52.203785 22.359594

v 121.874481 -21.290951 27.268021

v 79.086899 -51.109154 22.156446

v 78.304962 -54.565125 22.369234

v 78.117760 -57.128052 23.928116

v 119.363701 -31.367737 28.354370

v 85.294785 -59.444214 22.459320

v 118.718163 -36.234344 24.953857

v 89.522446 -60.399506 22.064278

v 118.579414 -46.236450 24.429352

v 94.206390 -65.277832 21.977417

v 87.745956 -64.322433 23.940079

v 91.424194 -65.232643 22.614090

v 119.188934 -50.664093 23.860125

v 98.591034 -74.238190 23.746307

v 116.410019 -63.988026 26.193054

v 104.018097 -81.527191 23.847748

v 116.304016 -69.758926 24.734619

v 117.240936 -74.981438 23.341660

v 108.801582 -86.559731 22.332525

v 111.253632 -84.683311 23.666718

v 110.205711 -87.565285 23.313305

v 108.529968 -89.147255 23.206654

v 60.630226 10.875786 24.206825

v 56.339622 6.427711 24.445835

v 65.655525 9.205296 24.500174

v 55.332699 3.685979 26.880411

v 49.354115 0.523827 27.172882

v 78.854004 12.366409 24.457962

v 85.283600 9.978027 25.466431

v 81.113281 9.955627 25.973419

v 31.847374 -22.759438 25.638550

v 91.150894 4.618042 26.440918

v 34.330093 -32.059692 24.545143

v 37.013588 -36.290634 24.273422

v 37.367874 -42.421387 24.030186

v 99.389786 -4.175303 25.338276

v 41.472427 -46.895187 23.907902

v 102.711060 -8.925171 27.371368

v 41.042477 -41.078552 24.602974

v 48.256954 -47.010956 25.692459

v 110.151230 -15.070620 25.323101

v 53.580700 -51.586994 24.532600

v 57.320370 -51.738625 24.500462

v 119.258499 -17.469124 29.501404

v 65.735352 -53.152573 24.432121

v 121.971725 -25.543146 25.916729

v 74.547890 -57.849411 24.346558

v 69.029633 -56.658485 25.851042

v 121.608932 -28.119980 26.916748

v 78.934662 -63.387375 25.727997

v 84.664337 -64.941528 24.394180

v 116.653870 -41.748569 27.319824

v 88.727608 -68.786041 24.398056

v 86.022781 -69.056976 25.997032

v 93.796280 -72.687744 24.154152

v 96.515610 -81.514923 24.218151

v 117.280472 -59.702751 28.958496

v 102.536713 -81.705009 24.154518

v 98.839157 -87.528534 24.196198

v 95.915848 -85.848557 25.977852

v 114.652130 -76.366501 24.862854

v 106.732826 -88.722946 24.151634

v 112.010635 -81.229767 24.613312

v 104.624107 -91.994766 24.174969

v 97.533363 -96.994164 24.084591

v 94.605728 -94.252007 26.031792

v 103.336739 -96.535553 24.218464

v 108.486328 -86.536865 26.628662

v 107.653000 -89.697090 25.130873

v 105.971596 -92.471336 25.120743

v 104.588242 -95.166512 24.821022

v 101.916275 -99.190041 24.346615

v 103.077461 -98.841972 25.058262

v 96.823196 -98.416672 24.802597

v 99.396141 -101.535568 25.122276

v 60.661224 5.211750 27.065174

v 43.885216 -4.946381 30.477158

v 41.474060 -7.446606 28.209167

v 65.591438 6.987167 26.973358

v 74.840027 8.717651 26.514008

v 37.541092 -12.342628 28.363636

v 84.050888 7.094177 26.737152

v 33.403133 -18.461185 28.455688

v 79.769409 4.964905 28.746460

v 33.217018 -26.719864 27.178501

v 35.449211 -30.527220 27.544010

v 38.892860 -35.015476 27.566086

v 97.220062 -3.101196 27.989258

v 42.355179 -37.660831 27.804443

v 100.152283 -5.860558 27.416809

v 45.521103 -42.831985 26.901321

v 106.507706 -14.387047 27.744888

v 52.190212 -50.023941 27.468262

v 111.113358 -14.895452 28.991922

v 55.544632 -52.427612 27.226906

v 60.389954 -54.331856 27.877903

v 61.243416 -54.274635 26.130152

v 63.469372 -57.794258 27.193060

v 64.159904 -57.540169 26.316906

v 66.777016 -61.935612 26.692606

v 69.542343 -64.293129 26.562601

v 77.068924 -65.278603 26.047085

v 117.066895 -36.420570 26.998657

v 72.253441 -66.239380 26.568962

v 74.648819 -68.903877 26.500294

v 117.832001 -49.411636 27.410706

v 77.856544 -73.436256 26.267036

v 83.893402 -77.349541 26.037647

v 76.109558 -71.709122 27.783749

v 78.383560 -75.271950 27.132792

v 118.210938 -55.187851 27.354950

v 80.926498 -78.174660 27.139832

v 83.089172 -79.383057 26.294228

v 83.368164 -80.479256 27.178656

v 85.961266 -83.260834 26.738188

v 88.803772 -85.426476 26.203503

v 115.178810 -70.340775 29.019165

v 88.260780 -85.918587 27.208015

v 113.775391 -73.107788 29.360382

v 109.854187 -80.466995 29.058716

v 94.287941 -95.593933 27.031487

v 105.894180 -89.730957 29.311584

v 98.342804 -101.203224 27.206665

v 104.556198 -92.822754 28.008911

v 102.785568 -96.588501 27.227417

v 100.882385 -99.335144 27.375977

v 53.710461 2.295864 31.478481

v 45.905315 -2.914592 30.524069

v 57.893902 3.288942 31.778322

v 60.631359 3.741296 31.642654

v 64.540100 4.598511 30.964825

v 40.270927 -8.420658 30.688568

v 73.392281 6.423218 28.960999

v 34.442261 -21.426882 30.674522

v 35.209724 -22.866806 30.068687

v 87.924316 4.132324 27.852356

v 83.375244 2.793808 28.754082

v 39.620998 -30.538551 28.261967

v 88.383865 0.908463 29.022659

v 92.644135 -0.588013 28.877502

v 44.550110 -34.626064 29.744244

v 44.919094 -39.520660 29.524527

v 99.743057 -9.147720 29.665894

v 47.376621 -44.008373 29.073847

v 100.873566 -11.024414 28.818817

v 102.326843 -15.179382 28.816147

v 50.875759 -48.634567 28.861027

v 55.575714 -47.389236 29.897049

v 55.786697 -49.245605 28.638062

v 61.711273 -51.157471 30.899170

v 120.886810 -20.727524 30.325073

v 64.836990 -57.517334 29.140549

v 120.787376 -24.292641 29.842194

v 68.901100 -61.072159 29.781549

v 72.943115 -65.382233 29.125977

v 115.255615 -36.508179 29.199097

v 113.513184 -42.147339 28.941650

v 75.405724 -66.267044 29.781044

v 116.023010 -54.900940 29.503967

v 79.519241 -74.594696 29.215988

v 84.739265 -80.352417 29.098755

v 117.118484 -61.901184 29.167412

v 116.365997 -64.742813 29.436813

v 88.934639 -84.080048 29.658291

v 95.099426 -93.998032 29.752514

v 107.678864 -85.575592 29.175262

v 97.051155 -97.271515 28.214569

v 98.411896 -94.398544 29.821278

v 49.433796 0.423759 31.512695

v 35.874725 -12.610443 31.653717

v 70.198517 5.474916 30.748943

v 33.300888 -15.946175 33.880524

v 76.875427 5.226398 31.537964

v 82.089119 2.757003 31.166668

v 40.310257 -27.047974 32.078079

v 88.817696 0.109677 31.552816

v 42.200554 -29.821793 31.569485

v 93.213272 -2.794357 31.948029

v 46.978882 -34.176178 31.286789

v 96.729164 -5.880064 32.314178

v 48.427521 -39.254768 30.049149

v 51.991608 -39.186546 31.792824

v 51.722626 -47.180374 29.783562

v 99.308929 -14.898170 31.135178

v 101.690475 -16.382011 31.045959

v 105.425766 -16.360802 31.342712

v 58.962708 -48.145050 31.382904

v 109.113731 -16.300406 35.063843

v 118.322083 -17.564331 33.489075

v 91.281891 -35.391541 30.037052

v 92.070953 -33.523529 30.909912

v 88.153671 -35.448303 31.057770

v 100.336090 -33.024559 30.069046

v 96.121452 -31.918274 31.047798

v 85.890350 -40.223969 30.015034

v 85.728012 -35.985870 31.991631

v 102.810364 -32.381798 30.997036

v 64.655914 -54.180664 30.048210

v 82.767395 -45.227707 30.010897

v 78.415283 -46.447632 31.561737

v 75.267578 -52.703766 29.933361

v 69.763443 -55.182388 29.963879

v 66.417801 -52.341888 31.783562

v 72.021294 -51.443298 31.797371

v 106.386650 -40.422028 30.141285

v 106.449265 -35.741455 32.036610

v 115.420197 -58.447998 30.044355

v 118.117973 -31.230164 33.087708

v 111.937225 -42.622879 30.073597

v 108.797890 -39.168182 31.901428

v 110.993713 -39.434082 31.475586

v 111.588593 -35.323792 31.905731

v 80.738937 -73.570908 29.874357

v 112.910950 -70.192139 29.998346

v 113.932892 -70.260132 29.871964

v 109.611862 -76.516663 29.959755

v 105.206055 -87.847321 29.912035

v 108.176445 -80.982285 29.927080

v 42.774994 -2.552353 32.899658

v 38.676941 -7.124756 32.819458

v 55.373562 3.391493 34.588329

v 35.017593 -9.857330 35.364807

v 63.903557 4.125168 34.731964

v 69.177277 4.630478 34.872574

v 33.714108 -18.815392 34.673817

v 36.383827 -22.995115 34.617668

v 79.833282 4.577127 34.784309

v 85.336243 2.751115 34.719856

v 38.765923 -24.648682 34.790085

v 88.341568 0.803375 35.091675

v 90.330620 -0.546059 34.920425

v 46.528671 -28.371117 31.889549

v 55.435577 -28.233421 31.883148

v 49.335144 -25.864319 33.547485

v 48.530426 -33.809067 31.809538

v 95.017548 -4.269520 35.156746

v 55.581055 -25.951843 33.520432

v 67.453529 -29.063263 33.592758

v 99.426689 -10.805422 33.556503

v 71.455917 -31.239929 32.428543

v 76.786621 -34.095215 31.916727

v 98.790024 -14.409588 32.939915

v 100.907059 -16.680580 33.550030

v 80.598930 -32.790096 32.905605

v 83.091003 -34.173798 32.426064

v 77.994385 -45.126465 31.879795

v 113.738312 -16.910549 35.108704

v 81.849243 -41.383987 31.839161

v 91.767532 -33.530483 32.944908

v 87.752731 -35.296661 34.780586

v 96.428360 -31.766785 32.854965

v 121.430916 -23.050766 33.142502

v 100.366325 -32.154736 33.260597

v 104.250130 -33.276669 33.246399

v 119.446884 -27.564636 34.303375

v 108.329865 -32.663025 33.732132

v 113.943893 -33.519775 33.363190

v 48.765739 2.515549 36.126068

v 41.647095 -1.821716 36.247925

v 51.400070 2.917679 36.154083

v 57.829716 3.716499 35.240974

v 34.644775 -7.304016 38.943115

v 61.058357 4.205330 34.858330

v 33.555294 -13.749641 34.871208

v 74.445618 5.085579 34.849224

v 42.134293 -25.230072 35.423180

v 45.465485 -24.722961 35.426575

v 53.208977 -22.954285 34.135437

v 92.856178 -2.440277 34.891327

v 60.879974 -24.447449 34.072609

v 57.286133 -21.472443 35.355743

v 98.646225 -7.375156 37.112648

v 66.449097 -25.091686 35.494812

v 71.638878 -30.210587 34.842663

v 99.726402 -11.911137 38.406845

v 99.825729 -14.271547 35.039276

v 100.272537 -16.282673 35.212631

v 81.724518 -32.615150 34.742355

v 104.594955 -16.860428 34.887779

v 91.185310 -34.335636 34.844757

v 94.252007 -33.802189 34.346951

v 108.381744 -31.130127 34.020020

v 104.998886 -24.866165 35.801754

v 102.998444 -26.158875 34.896194

v 109.196991 -28.355583 35.856800

v 104.955109 -32.165710 34.213104

v 119.996368 -22.807526 35.509140

v 98.979958 -35.860611 34.551689

v 102.710510 -33.758705 33.850803

v 104.021584 -34.132149 34.974030

v 113.849930 -30.246094 35.073669

v 117.402473 -27.585999 35.891418

v 39.923920 0.401886 40.460144

v 54.128403 3.076876 38.636208

v 61.361343 2.622353 36.700737

v 66.215134 2.426407 36.618973

v 34.677773 -16.990067 35.785271

v 74.057709 3.363922 35.864502

v 72.036522 2.089550 36.767303

v 36.523666 -20.518723 35.693039

v 37.142670 -18.849380 36.174858

v 83.113098 2.480530 35.651489

v 45.785568 -21.481949 35.986595

v 79.793625 0.913803 36.570129

v 84.025543 -1.055006 37.538170

v 53.785275 -19.200321 36.800747

v 48.291061 -20.314720 36.781910

v 58.213909 -18.995308 36.694088

v 90.149834 -2.757736 37.054886

v 64.017960 -20.932983 35.956161

v 63.063316 -19.569668 36.683765

v 67.021034 -21.380733 36.753834

v 71.606094 -25.151123 35.914673

v 70.940063 -23.585136 36.774944

v 71.986893 -28.942764 35.653278

v 75.863083 -25.368311 36.811489

v 79.475159 -27.750793 36.735813

v 81.788483 -30.991074 35.769417

v 98.334839 -19.344692 36.824738

v 84.311005 -30.692169 36.021362

v 99.936783 -18.276535 35.859444

v 84.524406 -29.352833 36.922844

v 108.095123 -17.788170 35.906147

v 100.606323 -24.610580 36.092133

v 89.648720 -30.799393 36.808422

v 88.318344 -34.204163 35.550766

v 117.600494 -20.436575 35.910667

v 101.183105 -27.063232 36.539673

v 93.086159 -32.664391 36.456123

v 101.360153 -29.453014 38.855362

v 95.937325 -33.240135 38.460075

v 98.305077 -34.663589 36.799198

v 102.623535 -35.619705 36.951813

v 37.107384 -1.737579 40.853577

v 49.529991 3.287468 38.885422

v 34.389771 -4.924652 41.055313

v 33.784142 -9.278221 40.662037

v 33.799881 -11.934044 38.758896

v 60.690025 2.336933 38.613888

v 65.666328 2.114059 38.738262

v 36.215691 -16.984608 38.490013

v 71.525993 1.814009 38.913589

v 38.992752 -18.031296 38.977829

v 78.655914 0.540920 38.727066

v 45.171795 -19.981041 38.690216

v 51.272984 -19.812450 40.620995

v 58.250435 -18.924969 38.661346

v 63.035011 -19.548302 38.565773

v 92.275681 -3.844752 39.508266

v 67.000832 -21.323250 38.738609

v 94.437012 -4.974129 41.916428

v 98.151367 -7.715509 42.466339

v 70.330681 -23.222252 40.536232

v 75.878639 -25.186525 40.660030

v 99.967468 -9.103067 40.331989

v 99.540947 -14.173711 39.290768

v 98.043686 -17.180161 38.706448

v 98.242661 -21.852991 38.697620

v 91.442993 -31.721134 40.249069

v 94.266678 -31.985901 40.006073

v 100.759094 -34.951729 39.062988

v 102.468620 -33.878845 38.820374

v 44.544083 3.434647 40.952911

v 47.009949 5.495300 42.885361

v 54.841652 4.640388 41.583481

v 58.017082 4.217815 40.712055

v 61.305241 4.058708 40.839722

v 35.427460 -12.650391 39.905701

v 67.239502 3.412456 41.069916

v 43.614548 -18.253937 39.824310

v 77.574654 1.889019 40.716995

v 45.541359 -17.162781 41.561646

v 83.313072 0.393959 41.874901

v 88.793602 -1.935505 41.790741

v 55.132000 -19.564140 40.520550

v 57.925720 -19.528515 41.069664

v 67.435455 -22.226913 40.596581

v 101.842987 -12.425793 40.547066

v 80.190315 -27.557495 40.729927

v 99.396294 -18.642326 39.674438

v 105.698570 -18.912245 40.752163

v 104.258606 -20.259865 39.783066

v 101.541489 -25.943920 39.775845

v 105.700089 -21.525768 40.794079

v 84.770958 -29.683491 42.441792

v 102.400208 -27.513168 40.913971

v 100.160583 -30.044500 39.953445

v 97.259109 -31.373566 40.128296

v 39.323364 2.213501 41.742004

v 41.965248 6.598038 43.379459

v 33.404175 1.637783 43.379120

v 33.317261 -1.392181 41.984406

v 32.406509 -4.651924 42.355095

v 52.458748 5.280304 42.855728

v 33.621483 -6.435028 42.812885

v 40.923523 -13.574768 42.276855

v 71.448868 2.820620 42.746735

v 77.305557 1.725830 42.632668

v 52.469215 -18.069061 42.352585

v 67.764648 -21.573673 42.429810

v 69.242294 -21.406540 44.639648

v 73.220032 -22.626091 44.441452

v 78.038612 -24.724371 44.556900

v 101.967613 -12.525452 42.622772

v 104.823608 -17.301208 42.800537

v 83.721405 -27.794754 44.803169

v 90.753433 -31.714859 42.538887

v 106.255264 -24.194622 43.986027

v 95.202637 -30.335464 44.430161

v 99.261917 -30.204390 44.399570

v 30.656334 12.534784 44.431347

v 34.214172 14.310928 44.019501

v 32.687817 12.355209 43.450180

v 29.199032 10.004560 44.363480

v 29.205032 6.936453 43.464222

v 27.664165 7.251465 44.449394

v 27.994701 4.627977 44.215981

v 39.934265 13.758453 45.146072

v 44.597435 8.903931 43.582199

v 30.502556 0.073887 44.061050

v 32.119801 -2.238888 44.829613

v 50.048721 9.486465 45.274643

v 56.157360 5.877434 44.406738

v 37.970154 -7.080399 46.544434

v 61.776840 4.505156 46.295765

v 40.123001 -9.390350 46.291382

v 67.881882 3.074312 46.697540

v 44.897064 -12.596313 46.260498

v 72.707245 0.372650 45.208191

v 51.948242 -15.831604 45.877014

v 83.860916 -2.234589 44.997955

v 53.794800 -17.300358 44.375839

v 55.799011 -17.131866 44.944000

v 89.870697 -4.936460 45.486423

v 67.097900 -20.934078 44.387199

v 92.490479 -5.818405 44.881226

v 101.130859 -14.980713 44.960693

v 82.467712 -26.074699 45.359550

v 104.608948 -19.750504 45.035004

v 91.970581 -28.833776 45.346081

v 104.852295 -26.889740 44.756924

v 30.405945 13.281425 48.140869

v 34.652420 15.141602 45.569061

v 40.393940 16.375000 46.211212

v 27.372696 8.802160 50.230377

v 28.157776 10.585258 49.044983

v 45.441555 14.487793 45.711456

v 29.876316 3.523117 49.417572

v 52.828430 11.251190 47.700836

v 53.573051 8.517654 46.672306

v 35.453186 -3.373795 47.699776

v 56.475433 5.910605 46.186012

v 70.112015 1.754515 46.469696

v 58.859299 -6.416855 47.264839

v 62.721031 -4.405685 45.470680

v 61.095337 -1.949036 47.516602

v 51.903038 -14.165573 47.211243

v 59.797272 -11.695572 45.459690

v 64.915283 -18.518250 45.371960

v 57.473938 -10.844360 46.986145

v 71.477470 -1.023041 45.471077

v 83.775391 -3.794678 45.493378

v 72.042908 -20.305645 45.391991

v 98.788986 -14.829575 45.512356

v 78.988159 -23.408508 45.401314

v 104.044418 -24.889458 45.492317

v 99.182625 -28.939865 45.387539

v 33.253845 17.191971 50.086212

v 36.530243 19.490204 50.614914

v 47.325466 16.139889 47.665062

v 32.373543 -0.324184 48.201687

v 52.666077 14.825127 49.899017

v 57.175762 6.856232 47.156128

v 63.823479 7.807175 47.708389

v 35.964996 -2.457825 48.857788

v 37.708420 -4.745560 47.314598

v 64.986328 5.023956 47.114426

v 46.850586 -5.223892 47.322697

v 66.837891 6.880087 48.310825

v 43.516796 -10.209106 47.213375

v 54.755646 -4.527222 47.405876

v 51.601501 -3.146606 48.730713

v 68.309387 2.881042 48.371796

v 68.043945 1.246033 47.824219

v 27.491341 14.168007 51.720764

v 41.851578 20.289841 50.962311

v 46.712902 19.726847 52.078606

v 34.286049 0.997925 49.666389

v 60.693222 11.970428 50.640343

v 40.898010 -0.560760 49.776291

v 64.629326 9.619141 50.119946

v 50.092529 -0.506073 49.748291

v 66.643944 6.923024 50.313461

v 55.208588 0.424866 50.412231

v 65.798767 3.342407 50.452576

v 60.155518 2.652832 51.384766

v 30.906456 27.723412 51.347836

v 28.244278 22.528770 51.205738

v 28.782524 27.669598 52.057709

v 26.720016 21.761580 52.121162

v 35.539497 25.572639 51.290710

v 26.798706 17.053734 52.168194

v 34.905212 20.433777 51.132618

v 28.430450 15.850128 51.213745

v 39.850075 23.773441 51.902760

v 43.159161 21.174845 52.369179

v 27.393251 11.500928 52.192242

v 30.394547 6.742401 52.506775

v 50.794437 17.325123 52.125290

v 36.177429 2.918259 52.578140

v 57.644154 15.008502 52.326973

v 40.499878 1.926270 52.547974

v 44.152283 3.856873 54.752937

v 63.258698 10.614822 53.565704

v 64.442200 7.411835 51.777100

v 52.696106 1.307007 52.292542

v 31.912468 29.969414 54.099640

v 29.156160 28.093151 54.215588

v 26.999512 24.774647 53.960594

v 38.286777 25.790157 54.196590

v 26.842560 20.823219 54.084167

v 27.555435 16.775253 54.317520

v 42.159420 22.823895 54.360413

v 28.994278 12.031525 53.699829

v 47.110214 19.709259 53.951584

v 50.740440 17.427795 53.807301

v 35.519836 5.855469 53.542114

v 32.125504 11.334106 55.170013

v 37.496857 6.364410 54.688797

v 58.435280 15.234650 54.792336

v 61.424400 13.473904 54.172905

v 50.836746 4.280594 54.916451

v 56.033447 4.939819 54.160034

v 61.674194 8.525146 54.728302

v 31.094353 28.996880 57.903877

v 33.112846 30.744955 55.990856

v 29.399902 25.235096 55.957306

v 35.963867 30.426132 56.378983

v 42.378109 26.092865 56.685772

v 30.713333 20.694046 56.970230

v 33.227554 13.857544 56.814445

v 47.437866 23.712967 57.674850

v 52.656250 18.484968 56.147980

v 41.695663 8.122543 55.148628

v 42.843842 10.119415 56.692215

v 52.115471 8.047028 55.171013

v 61.035908 13.811932 56.107849

v 60.270508 11.446289 55.653168

v 54.633545 11.256348 57.131470

v 55.621323 6.813416 54.993286

v 32.887882 31.056900 59.720348

v 31.407593 25.877869 58.637848

v 40.509506 31.074770 59.154377

v 36.076447 16.449860 57.079609

v 35.341217 19.278305 58.656235

v 53.012009 21.795044 57.711124

v 55.216221 19.486132 57.851303

v 49.253296 11.418884 57.103485

v 56.378311 17.739407 58.522614

v 59.387871 15.711803 58.255089

v 57.947010 13.740295 58.720879

v 35.204903 32.407722 60.117928

v 32.993973 27.427635 60.567711

v 34.273804 23.793358 59.068939

v 43.283875 27.649019 60.191574

v 45.431385 25.760288 60.419113

v 47.902184 24.665184 59.637024

v 46.178200 16.833008 59.185333

v 41.780762 21.889038 60.518127

v 52.160370 22.808512 60.086090

v 48.321415 13.995056 58.665176

v 54.989685 19.750809 59.880890

v 52.930695 16.514389 59.074295

v 46.973145 18.816284 60.726303

v 34.546143 30.035278 60.817837

v 40.107437 30.669655 60.547890

v 42.448975 23.728699 60.869106

v 47.340954 24.197235 60.644287

v 53.308502 20.083218 60.847870

f 1 2 3
f 4 3 2
f 2 5 4
f 1 3 6
f 3 7 6
f 4 5 8
f 9 8 5
f 3 10 7
f 8 9 11
f 7 10 12
f 4 10 3
f 13 8 11
f 8 14 4
f 14 8 13
f 14 15 4
f 10 4 15
f 16 14 13
f 15 14 17
f 14 16 18
f 14 18 19
f 17 20 15
f 17 14 19
f 21 22 17
f 17 19 21
f 19 23 24
f 24 25 19
f 21 19 25
f 25 24 26
f 25 27 21
f 26 28 25
f 27 25 28
f 5 2 29
f 30 2 1
f 29 31 5
f 1 6 32
f 33 32 6
f 33 6 7
f 33 7 12
f 12 34 35
f 12 10 36
f 34 12 36
f 37 13 11
f 36 38 34
f 39 38 40
f 41 39 40
f 36 20 38
f 40 38 42
f 36 10 15
f 43 16 13
f 15 20 36
f 42 41 40
f 44 42 38
f 20 44 38
f 45 46 41
f 42 47 41
f 41 47 45
f 42 48 47
f 45 47 48
f 19 18 49
f 20 17 22
f 23 19 49
f 22 50 20
f 44 48 42
f 44 20 50
f 51 44 50
f 21 27 22
f 52 22 27
f 50 22 52
f 51 50 53
f 28 26 54
f 55 53 50
f 28 54 56
f 27 28 56
f 55 50 52
f 56 55 27
f 52 27 55
f 55 56 57
f 53 55 58
f 58 59 53
f 60 53 59
f 59 61 60
f 59 58 62
f 63 58 55
f 61 59 62
f 58 63 64
f 58 64 65
f 58 65 62
f 62 65 66
f 62 66 67
f 67 68 62
f 29 69 70
f 69 29 2
f 2 30 69
f 1 32 30
f 31 9 5
f 9 31 71
f 72 33 12
f 72 12 35
f 35 73 72
f 37 11 9
f 9 71 37
f 74 73 34
f 35 34 73
f 34 38 74
f 75 74 39
f 39 74 38
f 39 76 75
f 77 13 37
f 77 43 13
f 78 76 39
f 78 79 80
f 39 46 78
f 46 79 78
f 46 39 41
f 77 81 43
f 46 45 79
f 79 82 83
f 82 84 83
f 81 16 43
f 79 45 82
f 84 82 85
f 82 45 86
f 87 85 82
f 88 89 16
f 82 86 87
f 18 16 89
f 48 86 45
f 86 48 90
f 49 18 89
f 90 48 91
f 91 92 90
f 49 93 23
f 48 44 51
f 24 23 93
f 51 91 48
f 91 51 94
f 94 95 91
f 26 24 93
f 93 54 26
f 51 96 94
f 53 60 51
f 60 97 51
f 54 57 56
f 97 96 51
f 96 98 94
f 57 99 100
f 55 57 100
f 60 61 97
f 96 97 61
f 96 61 101
f 100 63 55
f 102 96 101
f 100 103 63
f 64 63 103
f 61 104 101
f 105 101 104
f 62 106 61
f 104 61 106
f 64 103 107
f 107 65 64
f 104 106 68
f 108 104 109
f 106 62 68
f 104 68 109
f 107 66 65
f 68 110 109
f 66 107 111
f 66 111 112
f 67 66 112
f 68 67 112
f 110 68 113
f 110 114 109
f 68 112 113
f 113 112 115
f 110 113 116
f 114 110 116
f 117 118 69
f 69 119 117
f 70 69 118
f 120 117 121
f 122 70 118
f 69 30 119
f 119 32 117
f 123 70 122
f 30 32 119
f 121 117 32
f 32 124 121
f 123 125 70
f 125 31 70
f 29 70 31
f 33 124 32
f 126 121 73
f 31 125 71
f 72 124 33
f 121 124 72
f 72 73 121
f 71 125 127
f 127 37 71
f 128 73 74
f 75 128 74
f 129 128 75
f 130 129 75
f 130 75 76
f 76 131 130
f 37 127 77
f 131 76 78
f 78 132 131
f 132 78 80
f 133 132 80
f 80 79 133
f 134 133 79
f 79 83 134
f 83 135 134
f 135 83 84
f 84 136 135
f 136 84 137
f 84 138 137
f 88 16 81
f 138 84 85
f 139 89 88
f 140 85 87
f 85 140 138
f 139 141 89
f 86 140 87
f 86 90 92
f 92 140 86
f 141 49 89
f 49 141 142
f 142 93 49
f 92 91 95
f 92 95 143
f 93 142 54
f 144 92 143
f 54 142 145
f 95 94 98
f 54 145 146
f 98 143 95
f 54 146 57
f 146 99 57
f 143 98 147
f 147 148 143
f 96 102 98
f 100 99 149
f 102 147 98
f 147 102 150
f 103 100 149
f 102 101 105
f 102 105 150
f 151 147 150
f 150 105 108
f 105 104 108
f 152 153 150
f 151 150 153
f 152 150 108
f 109 114 108
f 114 152 108
f 111 154 112
f 115 112 154
f 155 156 152
f 157 115 154
f 114 155 152
f 113 115 116
f 158 116 115
f 159 115 157
f 158 115 159
f 155 114 116
f 116 160 155
f 156 155 160
f 158 161 116
f 160 162 156
f 116 161 160
f 158 159 163
f 163 161 158
f 160 164 162
f 160 161 165
f 165 161 163
f 166 164 160
f 165 163 167
f 167 168 165
f 166 160 165
f 164 166 169
f 168 169 165
f 166 165 169
f 170 171 118
f 118 172 170
f 173 170 172
f 171 174 118
f 172 118 117
f 173 172 175
f 176 173 175
f 175 172 120
f 174 122 118
f 117 120 172
f 176 175 177
f 178 122 174
f 179 176 177
f 120 126 175
f 126 177 175
f 177 180 179
f 181 123 178
f 178 123 122
f 121 126 120
f 126 180 177
f 126 128 180
f 181 182 123
f 128 183 180
f 183 128 129
f 184 183 185
f 182 125 123
f 185 183 129
f 184 185 186
f 73 128 126
f 185 187 186
f 186 187 188
f 129 189 185
f 127 125 182
f 188 187 190
f 191 127 182
f 192 185 189
f 192 187 185
f 130 189 129
f 187 193 190
f 193 194 190
f 195 127 191
f 192 189 131
f 131 189 130
f 193 187 192
f 193 196 194
f 193 192 133
f 77 127 195
f 133 134 193
f 192 131 132
f 134 135 193
f 196 197 198
f 132 133 192
f 196 193 135
f 198 197 199
f 135 136 196
f 197 196 136
f 77 195 200
f 200 81 77
f 197 201 199
f 136 202 197
f 201 203 199
f 201 197 202
f 202 136 137
f 81 200 88
f 204 201 202
f 203 201 205
f 206 202 137
f 137 138 206
f 204 205 201
f 140 206 138
f 202 206 207
f 204 202 207
f 207 206 140
f 139 208 141
f 204 209 205
f 208 210 141
f 140 211 207
f 207 212 204
f 140 92 144
f 210 142 141
f 211 140 144
f 212 207 211
f 142 213 145
f 144 143 214
f 211 144 214
f 211 214 215
f 216 211 215
f 214 143 148
f 99 146 217
f 148 215 214
f 149 99 217
f 218 215 219
f 148 219 215
f 148 147 151
f 103 149 220
f 219 148 151
f 107 103 220
f 107 220 221
f 151 153 219
f 153 222 219
f 107 221 223
f 107 223 224
f 107 224 111
f 225 153 152
f 224 226 111
f 154 111 226
f 156 225 152
f 156 227 225
f 228 227 156
f 156 162 228
f 163 159 229
f 228 162 164
f 164 230 228
f 163 231 167
f 164 232 230
f 231 168 167
f 168 231 233
f 232 164 169
f 233 169 168
f 169 233 234
f 234 232 169
f 235 171 170
f 170 236 235
f 174 171 235
f 236 170 173
f 173 237 236
f 238 174 235
f 237 173 176
f 176 239 237
f 174 238 178
f 176 240 239
f 176 179 240
f 241 240 179
f 179 180 241
f 242 241 180
f 181 178 238
f 238 243 181
f 244 242 180
f 183 244 180
f 245 244 183
f 184 245 183
f 186 188 246
f 188 190 247
f 194 196 248
f 248 196 198
f 200 195 249
f 199 203 250
f 249 251 200
f 88 200 251
f 139 88 251
f 252 203 205
f 251 253 139
f 252 205 254
f 255 252 254
f 254 205 209
f 208 139 253
f 254 209 256
f 257 254 256
f 212 209 204
f 257 256 258
f 212 256 209
f 256 212 259
f 259 260 256
f 258 256 260
f 142 210 213
f 212 211 216
f 216 261 212
f 259 212 261
f 262 146 145
f 260 259 263
f 261 263 259
f 261 216 264
f 262 217 146
f 263 261 265
f 215 218 216
f 261 264 265
f 218 264 216
f 218 266 264
f 266 265 264
f 217 267 149
f 266 218 268
f 220 149 267
f 218 219 222
f 268 218 269
f 222 269 218
f 222 270 269
f 222 271 270
f 271 222 272
f 273 223 221
f 222 274 272
f 222 153 225
f 225 274 222
f 154 226 275
f 276 274 277
f 274 225 277
f 275 157 154
f 157 275 278
f 277 225 279
f 278 159 157
f 279 225 227
f 159 278 229
f 280 279 227
f 227 228 280
f 163 229 281
f 230 280 228
f 280 282 279
f 163 281 231
f 280 230 283
f 282 280 283
f 232 283 230
f 283 284 282
f 232 234 285
f 283 232 285
f 286 282 284
f 284 287 286
f 285 234 233
f 285 284 283
f 284 285 288
f 287 284 289
f 288 290 284
f 290 289 284
f 291 288 292
f 290 288 291
f 235 236 293
f 238 235 293
f 294 293 236
f 293 294 295
f 296 236 237
f 239 297 237
f 293 295 238
f 236 296 294
f 237 297 296
f 243 238 295
f 295 294 296
f 298 297 239
f 298 239 240
f 298 240 241
f 241 242 298
f 299 242 244
f 300 181 243
f 301 244 245
f 301 245 184
f 302 184 186
f 182 181 300
f 246 302 186
f 247 246 188
f 247 190 303
f 191 182 300
f 194 303 190
f 194 248 304
f 248 305 304
f 191 306 195
f 248 198 305
f 249 195 306
f 305 198 199
f 199 250 305
f 307 250 203
f 249 308 251
f 203 252 307
f 308 309 251
f 307 252 255
f 251 309 253
f 254 310 255
f 309 311 253
f 312 310 254
f 257 312 254
f 253 311 208
f 257 313 312
f 313 257 258
f 311 314 208
f 208 314 210
f 258 315 313
f 210 314 316
f 315 258 260
f 260 317 315
f 213 210 316
f 316 318 213
f 318 145 213
f 262 145 318
f 317 260 263
f 263 319 317
f 263 320 319
f 320 263 265
f 262 321 217
f 321 322 217
f 323 265 266
f 323 266 324
f 267 217 322
f 322 325 267
f 266 268 324
f 220 267 325
f 269 324 268
f 326 220 325
f 324 269 327
f 270 327 269
f 326 328 220
f 329 327 270
f 220 328 221
f 329 270 271
f 328 273 221
f 271 272 330
f 331 223 273
f 223 331 224
f 331 332 224
f 274 333 272
f 333 274 276
f 224 332 226
f 226 332 275
f 276 334 333
f 277 334 276
f 275 335 278
f 279 336 277
f 278 335 229
f 337 229 335
f 337 281 229
f 336 279 338
f 338 279 282
f 339 281 337
f 231 281 339
f 338 282 286
f 231 340 233
f 233 340 341
f 342 233 341
f 343 286 287
f 342 285 233
f 344 285 342
f 288 285 344
f 345 287 289
f 344 292 288
f 290 346 289
f 291 346 290
f 296 347 348
f 347 296 297
f 349 295 296
f 296 348 349
f 295 349 350
f 347 297 298
f 295 350 243
f 298 351 352
f 351 298 242
f 243 350 300
f 242 299 351
f 353 299 244
f 353 244 301
f 354 300 350
f 184 302 301
f 303 355 247
f 306 191 354
f 300 354 191
f 194 304 303
f 307 356 250
f 307 255 356
f 312 357 310
f 358 310 359
f 357 359 310
f 313 357 312
f 357 360 359
f 360 358 359
f 311 361 314
f 362 360 357
f 357 313 363
f 364 314 361
f 313 315 363
f 314 364 316
f 362 357 363
f 362 365 360
f 366 316 364
f 315 317 363
f 316 366 318
f 362 363 367
f 363 317 368
f 368 367 363
f 365 362 367
f 369 262 318
f 368 317 319
f 370 262 369
f 368 319 371
f 320 371 319
f 370 321 262
f 372 321 370
f 265 373 320
f 321 372 374
f 373 265 323
f 321 374 375
f 375 322 321
f 373 323 324
f 324 376 373
f 375 377 322
f 325 322 377
f 324 378 376
f 378 324 327
f 325 377 379
f 327 329 378
f 326 325 379
f 328 326 379
f 380 329 271
f 271 330 380
f 330 272 333
f 381 332 331
f 277 382 334
f 382 277 336
f 336 383 382
f 338 383 336
f 339 340 231
f 338 384 383
f 286 384 338
f 341 340 385
f 343 384 286
f 385 342 341
f 287 386 343
f 287 345 386
f 344 387 292
f 345 289 346
f 291 292 388
f 346 291 388
f 389 348 347
f 390 347 298
f 348 389 349
f 298 352 390
f 389 391 349
f 351 299 392
f 299 353 392
f 353 301 393
f 394 350 349
f 350 394 354
f 394 349 391
f 395 301 302
f 302 246 395
f 246 247 396
f 397 354 394
f 396 247 355
f 398 303 304
f 398 304 305
f 397 306 354
f 306 397 249
f 249 397 399
f 308 249 399
f 356 400 250
f 399 401 308
f 401 402 308
f 356 403 400
f 309 308 402
f 356 255 403
f 255 404 403
f 255 310 404
f 311 309 405
f 404 358 406
f 404 310 358
f 361 311 405
f 405 407 361
f 360 408 406
f 360 406 358
f 364 361 407
f 365 408 360
f 364 407 409
f 409 366 364
f 365 410 408
f 365 367 410
f 411 410 367
f 366 412 318
f 368 413 367
f 413 414 367
f 414 411 367
f 369 318 412
f 414 413 415
f 413 368 371
f 416 415 413
f 416 413 371
f 370 369 417
f 371 320 418
f 417 372 370
f 417 419 372
f 420 418 320
f 420 421 418
f 373 420 320
f 420 373 422
f 373 376 422
f 421 420 423
f 374 424 375
f 420 422 423
f 424 377 375
f 422 376 378
f 422 378 425
f 425 426 422
f 423 422 426
f 329 425 378
f 427 423 426
f 426 425 380
f 328 379 428
f 329 380 425
f 380 429 426
f 273 328 430
f 429 427 426
f 273 430 331
f 430 381 331
f 330 431 380
f 431 330 333
f 380 431 429
f 432 332 381
f 332 432 275
f 431 333 334
f 334 433 431
f 434 429 435
f 433 435 431
f 429 431 435
f 334 382 433
f 275 432 436
f 275 436 335
f 335 436 337
f 433 437 435
f 434 435 437
f 382 383 433
f 383 437 433
f 383 384 437
f 438 340 339
f 384 439 437
f 440 385 340
f 439 384 386
f 343 386 384
f 385 441 342
f 387 342 441
f 387 344 342
f 442 439 386
f 345 442 386
f 292 387 388
f 442 345 443
f 346 443 345
f 443 444 442
f 445 442 444
f 390 446 347
f 390 352 446
f 347 446 389
f 352 447 446
f 352 351 447
f 448 446 447
f 447 351 392
f 448 389 446
f 447 392 353
f 353 449 447
f 353 450 449
f 450 353 393
f 301 450 393
f 448 391 389
f 450 301 395
f 451 394 391
f 451 391 448
f 246 396 395
f 394 451 397
f 398 355 303
f 452 397 451
f 451 453 452
f 454 305 250
f 397 452 399
f 400 454 250
f 399 452 455
f 401 399 455
f 401 455 402
f 456 400 403
f 403 404 456
f 405 309 402
f 457 456 404
f 404 458 457
f 407 405 459
f 404 406 458
f 409 407 459
f 408 458 406
f 408 460 458
f 460 457 458
f 366 409 461
f 457 460 462
f 410 460 408
f 412 366 461
f 414 463 462
f 414 462 460
f 460 411 414
f 460 410 411
f 412 464 369
f 414 415 463
f 369 464 417
f 371 465 416
f 415 416 465
f 418 465 371
f 465 418 466
f 419 374 372
f 421 466 418
f 419 467 374
f 466 421 468
f 469 377 424
f 468 421 470
f 377 469 379
f 470 471 468
f 379 469 472
f 421 423 427
f 470 421 427
f 472 428 379
f 430 328 428
f 471 470 473
f 427 429 434
f 434 470 427
f 434 474 470
f 474 473 470
f 432 381 475
f 476 477 474
f 476 474 434
f 476 434 478
f 478 479 476
f 479 477 476
f 478 434 437
f 339 337 480
f 437 481 478
f 481 479 478
f 440 340 438
f 439 481 437
f 481 482 479
f 483 479 482
f 440 484 385
f 441 385 484
f 481 485 482
f 387 441 484
f 387 484 486
f 439 485 481
f 388 387 486
f 485 487 482
f 486 346 388
f 442 485 439
f 482 488 489
f 346 486 443
f 485 442 445
f 482 487 490
f 491 444 443
f 490 488 482
f 445 492 485
f 445 444 491
f 491 492 445
f 492 487 485
f 487 492 493
f 490 487 494
f 494 487 493
f 490 495 488
f 495 490 496
f 497 488 498
f 495 498 488
f 496 498 495
f 499 447 449
f 447 499 448
f 396 500 395
f 501 500 396
f 448 499 502
f 501 396 355
f 448 502 503
f 448 503 451
f 504 355 398
f 451 503 453
f 305 504 398
f 503 505 453
f 305 454 506
f 503 507 505
f 505 452 453
f 455 452 505
f 508 454 400
f 400 509 508
f 509 400 456
f 457 510 509
f 456 457 509
f 402 511 405
f 457 462 510
f 462 512 510
f 459 405 511
f 511 513 459
f 514 512 462
f 409 459 513
f 461 409 513
f 462 463 514
f 515 412 461
f 412 515 464
f 463 415 516
f 464 515 517
f 465 516 415
f 465 518 516
f 465 466 518
f 518 466 519
f 520 519 466
f 468 520 466
f 467 424 374
f 471 520 468
f 520 521 519
f 471 522 520
f 521 520 522
f 471 523 522
f 521 522 523
f 471 524 523
f 525 524 471
f 473 525 471
f 526 381 430
f 524 525 527
f 525 528 527
f 529 432 475
f 474 477 473
f 477 525 473
f 528 525 530
f 530 525 531
f 532 528 530
f 529 436 432
f 530 533 532
f 436 529 534
f 477 531 525
f 530 535 533
f 534 337 436
f 530 531 536
f 535 530 536
f 536 537 535
f 337 534 480
f 339 480 438
f 531 538 536
f 537 536 538
f 531 477 483
f 531 539 538
f 440 438 540
f 479 483 477
f 539 541 538
f 440 540 542
f 542 484 440
f 483 539 531
f 543 484 542
f 486 484 543
f 483 489 539
f 482 489 483
f 539 544 541
f 544 539 489
f 443 486 543
f 543 491 443
f 545 492 491
f 489 488 497
f 544 489 497
f 497 546 544
f 494 493 547
f 494 547 548
f 490 494 548
f 496 490 548
f 549 496 548
f 546 497 498
f 496 549 546
f 546 498 496
f 550 449 450
f 551 450 395
f 551 395 500
f 552 499 449
f 552 553 499
f 554 502 499
f 499 553 554
f 555 501 355
f 355 504 555
f 556 503 502
f 506 504 305
f 507 503 556
f 557 454 558
f 508 558 454
f 559 505 507
f 507 560 559
f 505 559 455
f 561 558 508
f 508 509 561
f 560 562 559
f 559 563 455
f 563 559 562
f 509 510 561
f 402 455 563
f 511 402 563
f 564 561 512
f 561 510 512
f 564 512 565
f 512 514 565
f 511 566 513
f 514 567 565
f 566 568 513
f 461 513 568
f 515 461 568
f 567 514 463
f 568 569 515
f 463 570 567
f 570 463 516
f 571 570 516
f 572 571 516
f 417 464 517
f 518 572 516
f 467 419 417
f 519 573 572
f 519 572 518
f 467 574 424
f 575 519 521
f 574 469 424
f 469 574 576
f 576 472 469
f 428 472 576
f 523 575 521
f 523 577 575
f 523 524 577
f 428 526 430
f 524 578 577
f 524 527 578
f 381 526 579
f 579 475 381
f 475 579 580
f 578 528 581
f 528 578 527
f 529 475 580
f 528 532 581
f 580 582 529
f 532 533 583
f 582 534 529
f 535 584 583
f 535 583 533
f 535 537 584
f 480 534 582
f 585 438 480
f 585 586 438
f 538 584 537
f 541 584 538
f 586 540 438
f 587 584 541
f 541 544 587
f 588 587 544
f 491 543 589
f 491 589 545
f 590 588 544
f 545 493 492
f 493 545 547
f 590 548 591
f 544 546 590
f 549 548 590
f 549 590 546
f 450 592 550
f 592 450 551
f 552 449 550
f 501 555 500
f 593 555 504
f 594 502 554
f 594 556 502
f 506 593 504
f 593 506 595
f 556 594 596
f 454 557 506
f 596 507 556
f 507 596 597
f 597 560 507
f 558 561 598
f 597 562 560
f 562 597 599
f 599 563 562
f 600 598 561
f 601 563 599
f 600 561 564
f 564 602 600
f 511 563 601
f 601 603 511
f 566 511 603
f 604 602 564
f 564 565 604
f 604 605 602
f 565 606 604
f 606 565 567
f 607 568 566
f 569 568 607
f 604 606 571
f 608 569 607
f 570 606 567
f 604 571 605
f 609 569 608
f 571 610 605
f 609 515 569
f 515 611 517
f 611 515 609
f 606 570 571
f 571 573 610
f 573 571 572
f 612 467 417
f 613 614 615
f 616 617 614
f 618 613 615
f 618 615 619
f 617 616 620
f 614 613 616
f 573 519 621
f 519 575 621
f 622 623 624
f 621 625 626
f 627 626 625
f 628 620 616
f 577 621 575
f 629 620 628
f 621 577 625
f 613 618 630
f 622 624 630
f 624 625 577
f 618 622 630
f 613 630 616
f 428 631 526
f 631 579 526
f 616 630 628
f 624 577 581
f 577 578 581
f 632 633 628
f 634 579 635
f 632 634 633
f 632 628 630
f 580 579 634
f 634 632 580
f 630 624 636
f 624 581 636
f 580 632 582
f 582 632 630
f 636 581 532
f 583 636 532
f 584 636 583
f 480 582 630
f 630 585 480
f 630 586 585
f 630 637 586
f 638 586 637
f 630 636 637
f 587 636 584
f 638 540 586
f 636 639 637
f 636 587 640
f 636 641 639
f 638 542 540
f 542 638 637
f 587 588 640
f 542 637 639
f 543 542 639
f 639 641 543
f 636 640 641
f 543 641 589
f 641 640 589
f 591 640 588
f 589 640 545
f 545 640 591
f 547 545 591
f 588 590 591
f 591 548 547
f 592 551 642
f 643 642 500
f 551 500 642
f 644 552 550
f 643 500 555
f 555 645 643
f 555 593 645
f 554 553 646
f 594 554 647
f 506 648 595
f 506 557 648
f 557 649 648
f 596 650 597
f 649 557 558
f 651 597 650
f 558 652 649
f 652 558 598
f 597 651 599
f 599 653 654
f 598 600 655
f 656 657 655
f 600 658 655
f 658 600 602
f 601 659 603
f 660 656 661
f 655 658 656
f 602 605 658
f 603 662 566
f 605 656 658
f 663 661 656
f 662 607 566
f 656 664 663
f 607 662 665
f 656 605 664
f 607 665 666
f 666 608 607
f 666 609 608
f 663 664 667
f 667 664 668
f 669 664 605
f 605 626 669
f 517 611 670
f 626 605 610
f 670 417 517
f 670 612 417
f 671 664 669
f 619 668 664
f 619 664 671
f 610 573 626
f 615 614 672
f 672 673 615
f 627 669 626
f 614 617 674
f 674 672 614
f 619 671 618
f 574 467 612
f 674 617 620
f 612 675 574
f 620 676 674
f 618 671 622
f 669 623 671
f 573 621 626
f 620 677 676
f 622 671 623
f 669 627 623
f 627 624 623
f 576 574 675
f 627 625 624
f 677 620 629
f 576 675 678
f 678 428 576
f 679 629 635
f 631 428 678
f 633 629 628
f 629 633 635
f 680 579 631
f 635 579 680
f 634 635 633
f 681 592 642
f 642 682 681
f 592 681 683
f 683 550 592
f 682 642 643
f 644 550 683
f 644 684 552
f 645 685 643
f 686 553 684
f 552 684 553
f 646 553 686
f 593 595 687
f 554 646 647
f 594 647 688
f 688 596 594
f 650 596 688
f 652 598 689
f 653 599 651
f 655 689 598
f 690 657 691
f 655 690 689
f 690 655 657
f 692 599 654
f 692 601 599
f 660 691 657
f 693 694 691
f 691 660 693
f 657 656 660
f 692 659 601
f 693 660 661
f 659 695 603
f 661 696 693
f 662 603 695
f 663 697 661
f 662 698 665
f 665 698 699
f 699 666 665
f 666 699 700
f 667 701 697
f 697 663 667
f 702 609 666
f 702 611 609
f 701 667 668
f 619 673 701
f 701 668 619
f 673 619 615
f 673 672 703
f 674 704 672
f 704 703 672
f 705 706 707
f 705 708 706
f 707 709 705
f 676 704 674
f 612 710 675
f 704 676 711
f 676 712 711
f 679 705 709
f 677 712 676
f 709 713 677
f 712 677 713
f 675 710 678
f 713 711 712
f 709 629 679
f 709 677 629
f 705 680 714
f 680 705 679
f 679 635 680
f 715 631 678
f 631 715 714
f 631 714 680
f 681 682 716
f 685 682 643
f 717 644 683
f 684 718 686
f 687 645 593
f 686 718 646
f 719 646 718
f 720 687 595
f 719 647 646
f 648 720 595
f 647 721 688
f 719 722 647
f 647 722 721
f 720 723 724
f 720 648 723
f 648 649 723
f 725 650 688
f 725 688 721
f 724 723 726
f 652 723 649
f 727 725 721
f 727 721 722
f 650 725 651
f 723 689 726
f 723 652 689
f 726 689 690
f 653 651 725
f 653 725 727
f 727 728 653
f 691 729 730
f 730 726 691
f 726 690 691
f 729 691 731
f 654 653 732
f 653 728 732
f 694 731 691
f 731 694 733
f 654 732 692
f 733 734 731
f 732 659 692
f 733 735 734
f 694 693 696
f 733 694 696
f 733 736 735
f 733 696 736
f 737 735 736
f 738 736 696
f 737 736 739
f 697 696 661
f 696 697 738
f 740 739 736
f 736 738 741
f 736 741 740
f 742 700 699
f 743 740 741
f 697 741 738
f 744 700 742
f 697 701 741
f 744 666 700
f 740 743 745
f 666 744 702
f 702 746 611
f 702 744 746
f 742 747 744
f 745 743 748
f 749 743 741
f 744 706 746
f 741 701 749
f 744 747 706
f 673 749 701
f 611 746 670
f 747 707 706
f 743 749 748
f 670 746 750
f 708 746 706
f 670 750 612
f 747 751 707
f 752 748 749
f 715 746 708
f 703 752 749
f 703 749 673
f 709 751 753
f 704 752 703
f 707 751 709
f 715 750 746
f 752 704 754
f 750 710 612
f 755 754 704
f 711 755 704
f 753 713 709
f 750 715 710
f 708 714 715
f 708 705 714
f 678 710 715
f 711 713 756
f 757 716 682
f 758 717 683
f 758 683 681
f 682 685 757
f 759 757 685
f 760 685 645
f 717 684 644
f 645 761 760
f 717 762 684
f 761 645 687
f 762 718 684
f 761 687 720
f 763 719 718
f 718 762 763
f 720 764 761
f 764 720 724
f 765 722 719
f 719 763 765
f 724 766 764
f 722 765 767
f 724 768 766
f 724 726 768
f 767 727 722
f 767 728 727
f 768 726 730
f 730 729 769
f 731 770 729
f 770 731 734
f 734 771 770
f 772 659 732
f 771 734 735
f 735 773 771
f 659 772 774
f 775 695 774
f 659 774 695
f 735 776 773
f 776 735 737
f 739 777 737
f 662 695 778
f 778 698 662
f 777 739 740
f 779 699 698
f 699 779 780
f 780 742 699
f 742 780 781
f 747 742 781
f 751 747 781
f 781 753 751
f 782 748 752
f 752 783 782
f 783 752 754
f 784 754 755
f 713 753 785
f 784 755 711
f 785 756 713
f 785 784 756
f 784 711 756
f 681 786 787
f 786 681 716
f 758 681 787
f 758 788 717
f 789 717 788
f 762 717 789
f 762 789 790
f 761 791 760
f 762 790 763
f 761 764 791
f 790 792 763
f 791 764 766
f 765 763 792
f 793 791 766
f 768 793 766
f 765 794 767
f 768 795 793
f 768 769 795
f 767 794 796
f 768 730 769
f 767 796 728
f 797 728 796
f 769 729 798
f 770 798 729
f 798 770 799
f 728 797 732
f 772 732 797
f 771 800 770
f 799 770 800
f 800 771 773
f 776 800 773
f 778 695 775
f 737 777 776
f 698 778 801
f 698 801 779
f 777 740 802
f 780 779 803
f 779 801 804
f 804 805 779
f 805 803 779
f 803 781 780
f 802 740 745
f 781 803 806
f 804 807 805
f 808 745 748
f 805 806 803
f 806 805 807
f 806 753 781
f 806 807 809
f 753 806 809
f 753 809 810
f 783 754 811
f 784 811 754
f 811 784 810
f 785 753 810
f 810 784 785
f 812 813 786
f 814 812 815
f 787 786 813
f 815 812 757
f 812 786 716
f 816 815 759
f 757 759 815
f 757 812 716
f 817 758 787
f 759 818 816
f 817 788 758
f 759 685 818
f 760 818 685
f 760 791 819
f 820 765 792
f 791 793 819
f 765 820 821
f 819 793 795
f 821 794 765
f 769 822 795
f 794 821 796
f 798 822 769
f 822 798 799
f 800 823 799
f 772 797 774
f 776 824 823
f 823 800 776
f 824 776 825
f 777 825 776
f 777 826 825
f 775 827 778
f 801 778 827
f 802 826 777
f 804 801 827
f 827 828 804
f 808 829 802
f 802 745 808
f 748 830 808
f 830 748 782
f 807 831 809
f 832 830 783
f 830 782 783
f 833 832 811
f 783 811 832
f 809 833 810
f 811 810 833
f 834 835 836
f 836 837 834
f 836 838 837
f 838 839 837
f 838 840 839
f 835 841 842
f 836 814 838
f 836 835 842
f 814 836 813
f 836 842 813
f 840 838 814
f 814 843 840
f 814 813 812
f 814 815 843
f 815 844 843
f 813 842 787
f 842 845 817
f 815 816 844
f 787 842 817
f 818 844 816
f 817 846 788
f 790 789 846
f 789 788 846
f 818 760 847
f 790 848 792
f 819 849 847
f 847 760 819
f 820 792 850
f 819 795 851
f 820 852 821
f 851 795 853
f 822 853 795
f 854 821 852
f 821 854 796
f 855 853 822
f 799 856 855
f 855 822 799
f 797 796 854
f 857 797 854
f 856 799 823
f 823 858 856
f 857 859 774
f 774 797 857
f 824 858 823
f 774 859 775
f 775 860 827
f 802 861 826
f 802 829 861
f 828 827 860
f 860 862 828
f 804 828 862
f 829 808 830
f 830 863 829
f 862 807 804
f 862 831 807
f 832 863 830
f 831 864 809
f 864 833 809
f 835 865 866
f 865 835 834
f 834 837 865
f 867 841 866
f 835 866 841
f 837 868 869
f 870 841 867
f 868 837 839
f 843 871 840
f 841 870 845
f 872 845 870
f 845 842 841
f 872 873 845
f 873 817 845
f 873 846 817
f 844 818 874
f 873 875 846
f 847 874 818
f 848 790 846
f 846 875 848
f 792 848 850
f 849 819 851
f 850 876 820
f 852 820 876
f 877 878 879
f 851 853 880
f 878 877 881
f 878 881 882
f 880 881 883
f 852 884 854
f 853 881 880
f 856 881 853
f 853 855 856
f 885 854 884
f 878 882 884
f 882 881 856
f 854 885 857
f 856 858 882
f 884 882 886
f 884 887 885
f 882 858 824
f 882 824 886
f 886 888 884
f 825 886 824
f 857 885 887
f 884 888 887
f 888 886 825
f 887 859 857
f 826 888 825
f 859 860 775
f 859 887 860
f 861 887 888
f 861 888 826
f 862 860 887
f 889 862 887
f 863 887 861
f 863 861 829
f 890 887 863
f 890 889 887
f 863 832 890
f 862 889 831
f 889 864 831
f 833 890 832
f 864 889 890
f 833 864 890
f 891 892 866
f 866 865 891
f 866 892 867
f 869 865 837
f 839 871 868
f 867 893 870
f 871 839 840
f 843 894 871
f 870 893 872
f 893 895 872
f 894 843 844
f 873 872 896
f 894 844 874
f 896 875 873
f 896 872 897
f 898 874 899
f 847 899 874
f 896 897 900
f 875 896 848
f 901 898 899
f 896 900 848
f 847 849 899
f 902 900 897
f 899 903 901
f 903 899 849
f 904 905 901
f 900 902 850
f 848 900 850
f 849 851 903
f 850 902 906
f 907 876 906
f 850 906 876
f 904 877 879
f 880 904 901
f 884 907 879
f 879 878 884
f 884 876 907
f 904 880 877
f 903 851 880
f 876 884 852
f 901 903 880
f 881 877 883
f 883 877 880
f 865 908 891
f 892 909 867
f 865 869 908
f 909 910 893
f 867 909 893
f 911 871 894
f 895 912 872
f 898 911 894
f 894 874 898
f 872 912 897
f 911 898 913
f 897 912 914
f 905 913 898
f 901 905 898
f 914 902 897
f 913 905 915
f 916 902 914
f 905 917 915
f 902 916 906
f 906 916 918
f 879 919 917
f 917 905 879
f 918 919 879
f 904 879 905
f 907 906 918
f 918 879 907
f 920 921 922
f 922 921 923
f 920 924 921
f 923 921 925
f 921 924 926
f 925 921 927
f 928 926 924
f 926 927 921
f 909 926 928
f 892 891 926
f 927 926 891
f 927 908 925
f 929 909 928
f 892 926 909
f 891 908 927
f 908 869 930
f 929 910 909
f 869 868 930
f 868 931 930
f 932 893 910
f 931 868 871
f 893 932 895
f 871 933 931
f 934 895 932
f 911 933 871
f 934 912 895
f 913 935 933
f 933 911 913
f 935 913 936
f 914 912 937
f 936 913 915
f 937 938 914
f 915 917 939
f 916 914 938
f 918 938 919
f 916 938 918
f 920 922 940
f 922 941 940
f 922 942 941
f 920 940 924
f 922 923 942
f 940 943 924
f 923 944 942
f 944 923 925
f 943 928 924
f 925 945 944
f 928 943 946
f 945 925 908
f 929 928 946
f 945 908 947
f 908 930 947
f 910 929 948
f 931 947 930
f 949 932 910
f 910 948 949
f 950 951 947
f 950 952 951
f 947 931 950
f 933 950 931
f 949 934 932
f 934 949 953
f 950 935 952
f 950 933 935
f 912 934 953
f 912 953 954
f 954 937 912
f 939 955 936
f 915 939 936
f 939 956 955
f 938 937 957
f 917 956 939
f 956 919 957
f 919 956 917
f 957 919 938
f 940 958 959
f 940 941 958
f 941 942 960
f 940 959 961
f 940 961 943
f 942 944 960
f 943 961 962
f 963 960 944
f 962 946 943
f 963 944 945
f 945 947 964
f 948 929 946
f 951 964 947
f 965 948 946
f 948 965 949
f 965 966 949
f 967 968 951
f 951 952 967
f 953 949 966
f 936 967 952
f 969 968 967
f 952 935 936
f 967 955 969
f 967 936 955
f 970 954 953
f 971 972 969
f 969 955 973
f 954 970 971
f 971 937 954
f 973 971 969
f 957 937 971
f 971 973 957
f 956 973 955
f 973 956 957
f 974 959 958
f 941 975 958
f 941 960 975
f 961 976 962
f 960 963 975
f 964 963 945
f 946 962 965
f 977 978 963
f 963 964 977
f 979 966 965
f 964 951 968
f 980 966 979
f 968 977 964
f 977 968 981
f 980 953 966
f 982 953 980
f 983 953 982
f 968 969 981
f 970 953 983
f 981 969 972
f 984 970 983
f 984 971 970
f 971 984 972
f 985 959 974
f 959 985 961
f 974 958 986
f 976 961 985
f 975 986 958
f 987 986 975
f 988 962 976
f 975 978 987
f 975 963 978
f 989 962 988
f 962 989 990
f 965 962 990
f 987 991 992
f 987 978 991
f 965 990 993
f 993 979 965
f 994 991 978
f 978 977 994
f 993 995 980
f 993 980 979
f 994 977 981
f 996 997 991
f 995 982 980
f 991 994 996
f 982 995 996
f 984 996 994
f 984 982 996
f 983 982 984
f 994 972 984
f 981 972 994
f 998 985 974
f 986 998 974
f 999 976 985
f 985 998 999
f 1000 998 986
f 999 988 976
f 999 1000 988
f 1000 999 998
f 992 1000 986
f 986 987 992
f 989 988 1000
f 1001 990 989
f 1001 989 1000
f 1000 992 997
f 1000 997 1001
f 993 990 1001
f 992 991 997
f 1001 997 1002
f 1002 993 1001
f 995 993 1002
f 996 1002 997
f 1002 996 995
