v 78.175690 30.974064 -15.028137

v 77.396965 30.842102 -15.134293

v 76.775124 31.299557 -15.006330

v 76.376900 30.436638 -15.222500

v 75.392265 30.496796 -15.015125

v 75.578209 29.784779 -15.057224

v 75.222916 29.724972 -14.999069

v 76.590881 29.940262 -15.548047

v 78.670990 30.522461 -15.041138

v 77.825378 30.024719 -15.675537

v 76.934364 29.308784 -15.775520

v 76.405334 28.846024 -15.550354

v 75.927002 28.419983 -15.080811

v 80.071587 29.856934 -15.184784

v 79.739746 28.784332 -15.810822

v 78.114410 28.602051 -15.940140

v 77.771080 27.780708 -15.849264

v 77.369141 26.974609 -15.544708

v 76.771118 26.796753 -15.098389

v 80.943146 29.486862 -15.060333

v 81.383423 28.624329 -15.563599

v 81.508545 29.670685 -14.996552

v 81.762482 29.212433 -14.985931

v 81.069427 27.613220 -15.921173

v 79.564392 26.830200 -15.965105

v 82.521568 28.996689 -14.995174

v 82.662308 28.595917 -15.052582

v 78.866943 25.596130 -15.678131

v 77.663818 25.467194 -15.014893

v 79.675697 25.675901 -15.888529

v 78.546875 24.942627 -15.279663

v 83.208740 28.132751 -15.045532

v 82.690674 27.379288 -15.702454

v 83.917046 27.361572 -15.397156

v 83.757408 26.720093 -15.723160

v 82.467041 26.112198 -15.943859

v 80.963257 25.175659 -15.968039

v 79.873779 23.883209 -15.688782

v 80.767952 23.858467 -15.929052

v 79.250488 23.753479 -15.344116

v 86.961723 27.808334 -14.983566

v 86.600082 27.315765 -15.006462

v 86.221756 28.006271 -14.985504

v 85.765671 27.689079 -15.019676

v 85.646179 26.577087 -15.656830

v 85.256508 27.554230 -15.050476

v 85.327454 25.686188 -15.840569

v 83.792114 24.892212 -15.950882

v 87.500023 26.910015 -14.986824

v 82.325623 23.269318 -15.961430

v 80.955315 22.487938 -15.932440

v 79.966675 22.170107 -15.664642

v 79.196533 22.359600 -15.088867

v 87.308098 26.121590 -14.973343

v 85.981506 25.567139 -15.657318

v 87.124222 25.341629 -14.947243

v 85.045959 24.313343 -15.718155

v 83.763306 23.731194 -15.884041

v 78.939087 21.070747 -15.024292

v 86.661087 25.051620 -15.002014

v 82.921814 22.299393 -15.767349

v 82.100250 21.610474 -15.826492

v 81.049080 21.139618 -15.884518

v 80.203888 20.416992 -15.610992

v 86.464439 24.308685 -14.996452

v 85.827942 23.907516 -15.085938

v 85.277863 23.274841 -15.242249

v 83.712769 22.358795 -15.543091

v 79.244629 19.603271 -14.679932

v 84.951843 22.677856 -15.009216

v 82.935043 21.458633 -15.536377

v 84.677612 21.963028 -15.010128

v 83.977600 21.493073 -14.964539

v 83.269585 21.127853 -15.004864

v 82.763672 19.818604 -15.445984

v 82.032074 19.481873 -15.656612

v 81.251022 18.826599 -15.481506

v 83.076050 20.373322 -15.007954

v 82.638824 18.326538 -15.663353

v 81.787888 18.203732 -15.544256

v 81.294060 18.028641 -15.023201

v 80.713989 18.151588 -14.950150

v 83.456665 18.786377 -15.313232

v 81.676727 17.260071 -15.492325

v 81.104591 17.273941 -15.021458

v 81.376595 16.793564 -15.025261

v 84.466309 18.081421 -15.107910

v 84.381042 17.382629 -15.590393

v 83.608582 16.710693 -15.903549

v 82.531731 16.419090 -15.829483

v 81.561951 16.206160 -15.555557

v 80.764404 16.755447 -14.860901

v 80.390747 15.271912 -15.308472

v 79.779602 15.821625 -14.672546

v 85.844330 17.556915 -14.967102

v 81.356018 15.489014 -15.649796

v 85.685822 16.704346 -15.631332

v 82.952293 15.365540 -15.975796

v 81.553856 14.877640 -15.833920

v 79.962784 13.716854 -15.757814

v 78.473572 14.368393 -14.716614

v 79.192810 13.148468 -15.624573

v 78.181877 13.613510 -15.059311

v 78.214600 13.017212 -15.047241

v 89.511154 19.039063 -15.002087

v 88.789490 18.395401 -15.048306

v 88.727203 19.267639 -15.004681

v 88.256592 18.986725 -15.007202

v 88.033318 18.191647 -15.012089

v 86.198471 17.113449 -15.007507

v 84.733704 15.435577 -15.968533

v 82.274948 14.282562 -15.990975

v 78.289551 11.893311 -15.375732

v 89.434418 18.067154 -15.029907

v 87.815079 17.426361 -15.428257

v 86.821182 17.514170 -14.976446

v 86.483032 16.520538 -15.642601

v 80.692436 12.902153 -15.994305

v 79.738495 12.258113 -15.936380

v 88.920410 17.313049 -15.499222

v 88.051819 16.719727 -15.703682

v 87.486877 15.461853 -15.863876

v 84.491882 11.440430 -15.998456

v 78.715927 11.300575 -15.713470

v 77.876099 10.406281 -15.248718

v 90.288818 17.636932 -15.004459

v 88.697021 16.508163 -15.638153

v 85.473816 13.431915 -15.989740

v 80.391434 11.329956 -16.011566

v 79.362366 10.398811 -15.950135

v 78.595688 10.076687 -15.750381

v 90.095490 16.881714 -15.007538

v 89.903343 16.162827 -14.949608

v 88.536865 15.951263 -15.649155

v 86.624756 13.969269 -15.939934

v 77.628296 9.195538 -15.133118

v 89.434929 15.844971 -15.016342

v 89.237793 15.137112 -15.061737

v 88.180725 15.064613 -15.643799

v 87.484497 14.360031 -15.788696

v 78.454590 8.846764 -15.692017

v 88.787170 14.563961 -15.029633

v 79.746605 8.497299 -16.017841

v 78.907913 8.393894 -15.845810

v 77.567780 8.131577 -15.078918

v 87.291016 13.368256 -15.635925

v 86.580505 12.472272 -15.761032

v 85.654541 11.517420 -15.884933

v 78.197937 7.630707 -15.400299

v 88.388931 13.304565 -15.024868

v 87.956299 12.991928 -15.016876

v 83.666290 9.100739 -15.990707

v 87.729515 12.270950 -15.030449

v 87.253922 11.809204 -15.088501

v 86.572144 11.624847 -15.546143

v 84.926910 10.191162 -15.913689

v 82.525848 7.581924 -15.997952

v 79.075653 6.532715 -15.706482

v 78.438232 6.293869 -15.313293

v 85.927368 10.668091 -15.651733

v 81.592041 6.432158 -16.005583

v 80.072701 5.695100 -15.939743

v 86.875557 10.482040 -15.039131

v 86.411194 10.090469 -15.096130

v 85.708374 9.847595 -15.558167

v 84.683716 9.175507 -15.821869

v 80.980011 5.494263 -16.000299

v 78.965576 5.602436 -15.589874

v 78.475777 5.466301 -15.071445

v 85.968864 8.743652 -15.075912

v 84.292297 8.287384 -15.746292

v 77.985291 4.404724 -14.898376

v 85.411377 8.226318 -15.016846

v 84.889862 7.574127 -15.151489

v 83.189270 7.056778 -15.787415

v 79.391586 4.391111 -15.829613

v 78.656738 4.064163 -15.549866

v 84.188049 6.884476 -15.136230

v 83.306152 6.463348 -15.557922

v 82.584839 5.656860 -15.631104

v 81.854889 5.251511 -15.818649

v 80.325439 4.298241 -15.958776

v 77.772881 3.776259 -15.091434

v 77.148697 3.401260 -15.095467

v 78.109436 2.788816 -15.111876

v 77.424339 2.920563 -15.096035

v 83.510742 5.759964 -15.045776

v 81.204529 4.227112 -15.837860

v 79.721298 3.239441 -15.915470

v 79.055756 2.784897 -15.716675

v 82.865601 4.804245 -15.081177

v 81.952515 4.380066 -15.558899

v 80.520752 3.479630 -15.916264

v 78.663330 1.864197 -15.035645

v 82.449158 4.001556 -15.075142

v 81.940338 3.447083 -15.150940

v 81.178406 3.232788 -15.653748

v 80.488434 2.522125 -15.767853

v 79.786537 2.074417 -15.655228

v 78.979301 1.445984 -15.132023

v 81.550957 2.189789 -15.106613

v 80.414261 1.325027 -15.170822

v 79.256813 0.817551 -15.096382

v 81.375328 1.465496 -15.104744

v 80.020119 0.618439 -15.079287

v 74.907990 31.535793 -13.065848

v 75.785843 32.011658 -13.073059

v 76.387291 31.778454 -13.316811

v 75.371704 31.124073 -13.693001

v 74.632561 30.741379 -13.174042

v 77.002090 32.094086 -13.066498

v 77.263725 31.612534 -13.762230

v 74.929932 30.219345 -13.954556

v 74.189781 30.421432 -13.099384

v 74.464142 29.941650 -13.402611

v 73.722221 30.140732 -13.098698

v 74.140930 29.531372 -13.139038

v 78.854980 31.301025 -13.679688

v 74.964844 29.247101 -14.200928

v 79.275116 31.455780 -13.067383

v 75.345581 27.328125 -13.908691

v 74.651367 27.600159 -12.855469

v 81.271217 30.413330 -13.198975

v 75.061737 26.502350 -13.116211

v 81.971100 30.016205 -13.136841

v 75.729004 25.596985 -13.489136

v 74.974380 25.772385 -13.108276

v 82.718147 29.755066 -13.068722

v 75.519974 24.811409 -13.097618

v 83.079819 29.327850 -13.287327

v 83.976051 29.005585 -12.963623

v 83.622940 28.580933 -14.135742

v 77.526123 24.639038 -14.226563

v 76.266144 24.394775 -13.023438

v 85.322769 28.658875 -13.094513

v 77.294685 23.945251 -13.100891

v 86.418175 28.763794 -13.050369

v 85.950958 28.483292 -13.074383

v 85.678223 28.961731 -13.047905

v 78.280518 23.294621 -14.148315

v 86.685448 28.266094 -13.067936

v 77.826561 22.990921 -13.094452

v 77.619812 21.975616 -13.161133

v 87.438370 27.223034 -13.158447

v 78.239746 21.337250 -13.999512

v 77.671997 20.577370 -13.577148

v 77.009766 21.488892 -12.676270

v 87.786720 26.380936 -13.065304

v 78.617249 20.348816 -14.367493

v 77.414673 19.549248 -13.620850

v 88.060173 25.901382 -13.062473

v 87.589554 25.623184 -13.694527

v 76.169891 18.835327 -13.149689

v 76.221924 19.547119 -12.713623

v 88.020813 24.699066 -12.562256

v 87.293701 24.885742 -13.955566

v 78.374512 19.110626 -14.152527

v 77.045792 18.360998 -13.806137

v 76.331696 18.076805 -13.512177

v 75.453911 18.381699 -13.130199

v 75.725754 17.902191 -13.133991

v 87.660156 23.825569 -12.832275

v 86.647949 23.759033 -14.041504

v 78.144753 18.466072 -14.052368

v 76.265625 17.030731 -13.676819

v 75.400253 16.437887 -13.150391

v 87.005936 23.358902 -13.061428

v 85.854980 22.641113 -14.030273

v 79.956055 18.214325 -14.521301

v 77.074974 17.098570 -14.006469

v 76.434204 16.110962 -13.811340

v 86.598633 22.576721 -13.058899

v 85.894470 21.456406 -13.009766

v 85.019043 21.525757 -13.990723

v 84.126221 21.097809 -14.549316

v 83.464478 20.346893 -14.857971

v 79.855225 17.565475 -14.354477

v 79.004669 17.330170 -14.138478

v 75.597191 15.906540 -13.156246

v 85.360840 20.635389 -13.152039

v 84.288147 20.454102 -14.160763

v 77.495781 16.002426 -14.086060

v 75.449402 15.189457 -13.169968

v 84.591270 19.965908 -13.106102

v 84.119659 19.589981 -14.346741

v 79.396591 16.487289 -14.303055

v 85.121071 19.022829 -13.079788

v 78.068710 14.932468 -14.363884

v 77.408325 13.840374 -14.297180

v 76.526611 14.014404 -13.831787

v 75.746521 14.576904 -13.191284

v 84.640869 18.745560 -14.398205

v 75.664063 13.567383 -13.012939

v 85.847908 18.845226 -13.091783

v 85.939545 18.338104 -14.117676

v 76.917725 12.539795 -14.114990

v 75.893372 12.468987 -13.175293

v 87.052391 19.550716 -13.052746

v 88.378922 19.829981 -13.239550

v 87.512711 19.182144 -13.641052

v 86.810829 18.670040 -13.885941

v 88.509689 20.632935 -12.533150

v 89.383057 19.523285 -13.506683

v 76.330566 11.285645 -13.497070

v 90.098267 19.276581 -13.078857

v 90.485870 18.397552 -13.081188

v 90.751556 17.918488 -13.112549

v 76.551758 9.270508 -13.665039

v 90.156036 15.570709 -12.939819

v 77.247070 7.614563 -14.336914

v 76.488037 7.649658 -13.292480

v 89.590546 14.638123 -13.188721

v 76.528687 6.520996 -13.165527

v 88.754791 12.964508 -13.212036

v 77.151855 6.253296 -13.934082

v 76.664490 4.715500 -13.193604

v 88.300995 11.824707 -13.009644

v 77.582031 5.403839 -14.384521

v 87.249756 9.966095 -13.284912

v 77.339966 4.150576 -14.220215

v 76.429214 3.591522 -13.133667

v 86.593750 8.172729 -13.254761

v 77.105774 2.501892 -13.472046

v 86.571213 7.743393 -13.125542

v 85.766602 7.023895 -13.285889

v 85.127930 6.929688 -14.150879

v 77.698944 2.448753 -14.328312

v 84.657471 5.634644 -13.260742

v 78.033936 1.641785 -14.141602

v 83.204346 4.337128 -13.955078

v 77.831421 0.924683 -13.068604

v 83.176880 3.740723 -13.043945

v 82.747681 3.204468 -13.598633

v 78.691559 0.590454 -13.751404

v 78.327408 0.261429 -13.178028

v 82.039703 1.210938 -13.230225

v 80.026970 0.183998 -13.836819

v 79.353325 -0.350494 -12.943665

v 81.720917 0.901672 -13.351574

v 81.020874 0.605957 -13.895020

v 81.484390 0.229507 -13.167164

v 80.658936 -0.308838 -13.141663

v 74.375557 31.198807 -11.090702

v 74.862762 31.462070 -11.163467

v 73.920975 30.897964 -11.350006

v 73.648994 31.376984 -11.162052

v 73.178612 31.096725 -11.174183

v 72.998741 30.352743 -11.146813

v 76.525467 31.889076 -10.841589

v 77.462212 32.373871 -11.148495

v 73.249161 29.773277 -11.156708

v 72.520493 30.060944 -11.178177

v 78.202820 32.177338 -11.157959

v 73.384766 28.959778 -11.078125

v 79.711929 31.728485 -11.244385

v 74.005859 27.026367 -10.687500

v 80.832520 31.090332 -11.237793

v 82.319580 30.206268 -11.185059

v 74.323563 26.021484 -10.901108

v 74.916809 24.656647 -11.592896

v 83.660889 29.538097 -11.052002

v 75.676758 23.812622 -12.118652

v 74.910828 24.051025 -11.345093

v 84.918777 29.009781 -11.133690

v 75.230469 23.133949 -11.449524

v 85.940063 28.573547 -11.218018

v 77.013367 23.303953 -12.831589

v 76.023193 22.528774 -11.975342

v 86.694359 28.291733 -11.121822

v 75.118225 22.288200 -11.147583

v 76.008301 20.716309 -12.105957

v 75.069275 21.000305 -11.199951

v 87.335144 27.282166 -10.911011

v 74.976440 19.921143 -11.163086

v 75.637573 19.136871 -12.296387

v 88.088554 26.122429 -11.271461

v 75.003540 18.729855 -11.527344

v 74.784180 18.002909 -11.195313

v 88.396545 25.366037 -11.306458

v 74.651855 15.940140 -11.216797

v 88.932251 24.507324 -11.243126

v 88.591797 23.906342 -11.943604

v 89.234100 23.973892 -11.330383

v 87.921143 23.264847 -12.453125

v 88.930908 23.088654 -11.903687

v 87.674072 22.517944 -12.394714

v 86.964844 21.551331 -12.455322

v 74.972900 14.794250 -11.947266

v 89.893181 23.805954 -11.139439

v 90.512939 22.698120 -11.180145

v 88.808289 21.991608 -12.118652

v 86.168457 20.934692 -12.686890

v 86.998413 20.812866 -12.456940

v 85.938049 20.062683 -12.849396

v 85.802750 19.529396 -13.039440

v 74.672363 12.877686 -11.012695

v 90.171814 21.062500 -11.950073

v 89.778442 20.775696 -12.242432

v 86.653839 19.979187 -12.706924

v 91.265282 21.418097 -11.133865

v 90.603027 21.420349 -11.488281

v 89.328506 20.404388 -12.601837

v 75.035889 11.935303 -11.594727

v 91.070503 20.661804 -11.145382

v 90.229858 20.168030 -12.207642

v 91.136597 19.564819 -11.144287

v 90.544434 19.339355 -12.267578

v 75.060059 9.852417 -11.188477

v 90.871506 18.004063 -11.218140

v 90.384567 15.830154 -10.966614

v 75.724609 7.686523 -11.750000

v 90.004990 14.899078 -11.241199

v 75.112793 4.911438 -9.430176

v 88.997803 12.777649 -11.295654

v 76.167969 4.250610 -11.937012

v 88.280571 11.324402 -11.064400

v 87.469620 9.602409 -11.098511

v 76.100586 3.184021 -11.005615

v 87.229965 8.656616 -11.216553

v 76.759277 1.681519 -11.408203

v 86.833580 7.236759 -11.159607

v 86.653114 6.514786 -11.193325

v 85.907845 6.042249 -11.403534

v 76.823730 0.758545 -10.725586

v 85.528069 5.203011 -11.213924

v 84.919449 4.823303 -11.225159

v 84.021484 4.027710 -11.602539

v 78.190521 -0.109924 -12.476318

v 77.634644 -1.057861 -11.028320

v 82.816406 1.971252 -11.543945

v 78.335114 -0.772827 -11.990723

v 78.925674 -1.096863 -12.096375

v 82.406281 0.721069 -11.130371

v 79.883095 -0.627960 -12.678146

v 78.254868 -1.786320 -11.287540

v 81.604309 -0.435242 -11.382813

v 81.162239 -1.046448 -11.435669

v 80.076172 -1.207275 -12.025269

v 79.176819 -1.915016 -11.497025

v 80.540771 -1.706787 -11.095459

v 79.905640 -2.002533 -11.267548

v 78.815460 -2.662418 -11.236094

v 78.021790 -2.472900 -11.262867

v 71.236893 31.218155 -9.250786

v 71.704994 31.497025 -9.248257

v 71.977783 31.018616 -9.247776

v 71.788620 30.267189 -9.279068

v 70.768753 30.936539 -9.262909

v 71.316185 29.982243 -9.262135

v 73.185982 31.102631 -9.237572

v 72.717751 30.820663 -9.241257

v 72.445114 31.299179 -9.246326

v 74.233246 30.912552 -9.028259

v 72.054054 29.784851 -9.262119

v 76.283081 31.317871 -8.937408

v 75.073433 31.087204 -9.560974

v 72.362793 29.110962 -9.339355

v 78.185097 32.133064 -9.010605

v 78.671700 32.457443 -9.223732

v 79.411667 32.259506 -9.221157

v 79.768730 31.831375 -9.219204

v 80.795052 31.303513 -9.396301

v 72.996094 27.102051 -8.522461

v 73.611328 25.580078 -8.490234

v 82.444420 30.394043 -9.165039

v 83.372444 29.848263 -9.053978

v 73.758301 24.843750 -8.607422

v 74.360107 23.595245 -9.725586

v 84.981079 28.905005 -9.165710

v 74.348633 21.228027 -9.632813

v 74.115662 22.060791 -9.005535

v 85.957458 28.492828 -9.201984

v 86.357880 27.940979 -9.228027

v 74.007813 19.901398 -8.904297

v 87.878448 26.130005 -9.372559

v 74.007813 17.804077 -9.176758

v 88.533142 25.418242 -9.258512

v 73.806885 15.887390 -9.134277

v 89.606552 24.371677 -9.320114

v 90.097382 23.924805 -9.208584

v 73.651367 14.431885 -8.654785

v 90.630379 23.612574 -9.218590

v 73.946777 13.527496 -9.307617

v 91.727219 21.705238 -9.211941

v 73.994789 12.297607 -8.997013

v 74.197876 10.778259 -9.435669

v 91.964531 21.163231 -9.172157

v 91.498383 20.627747 -9.632446

v 74.328400 9.501953 -9.467041

v 91.618973 19.713364 -9.224205

v 91.237915 18.821945 -9.115479

v 74.383545 8.772339 -9.366943

v 90.609695 17.193748 -9.698029

v 74.438843 8.143265 -9.322144

v 90.449997 15.951054 -9.199341

v 74.870789 6.464874 -9.432373

v 90.457275 15.183151 -9.231487

v 90.088402 14.731155 -9.237953

v 89.772461 13.960571 -9.087891

v 88.809639 12.339802 -9.293648

v 88.236816 11.306618 -9.334961

v 87.605629 9.911316 -9.130005

v 75.246582 3.474121 -9.018555

v 75.633057 2.184082 -9.178223

v 86.863953 7.374329 -9.315826

v 76.293091 0.435364 -9.307373

v 86.442818 6.888382 -8.945625

v 86.201141 6.239777 -9.257160

v 85.609879 5.278807 -9.362061

v 76.406494 -0.291561 -9.280518

v 84.956055 4.421692 -9.152954

v 83.778625 2.960144 -9.387695

v 76.744629 -1.512939 -9.351074

v 83.067871 1.591110 -9.415283

v 77.090698 -2.168945 -9.795898

v 82.114395 -0.421326 -9.544434

v 77.869217 -2.865746 -10.297577

v 77.025688 -3.067116 -9.440453

v 77.580414 -3.533325 -9.699615

v 76.896095 -3.779655 -9.349167

v 81.496628 -1.755249 -9.391846

v 79.303940 -3.114197 -10.278870

v 78.024925 -4.105191 -9.499020

v 77.421364 -4.726377 -9.334854

v 81.142120 -2.545410 -9.284912

v 80.053757 -3.349365 -9.478271

v 79.022774 -4.044525 -9.418152

v 78.406769 -4.902021 -9.325186

v 70.773567 30.942230 -7.325100

v 71.515045 30.745743 -7.321560

v 71.044998 30.463028 -7.320667

v 72.255852 30.548553 -7.319614

v 71.534988 29.551949 -7.435303

v 73.072800 30.307098 -7.214294

v 71.595947 28.791199 -7.296875

v 75.290710 30.324371 -7.453491

v 78.948418 31.984726 -7.291805

v 78.143044 31.529106 -7.214127

v 77.064957 31.010345 -7.205078

v 75.921326 30.283165 -7.097305

v 71.752197 28.171906 -7.290527

v 79.688431 31.786972 -7.289879

v 72.510742 26.852573 -7.362305

v 80.431473 31.557877 -7.264847

v 80.835495 31.141228 -7.070435

v 73.283813 25.411011 -7.307739

v 82.180946 30.716293 -7.304745

v 82.525604 30.280228 -7.029915

v 73.355591 24.408493 -7.478027

v 83.193993 30.042099 -7.319218

v 83.690002 29.454681 -7.033630

v 73.669281 23.711502 -7.335632

v 73.462891 22.906891 -7.345703

v 84.716064 28.671135 -7.141602

v 73.016846 22.540894 -6.645020

v 73.556099 21.724564 -7.341835

v 85.301270 27.994171 -6.898438

v 73.393311 21.313049 -7.313965

v 85.837921 27.686035 -7.218262

v 72.833008 20.581543 -6.464355

v 73.442390 19.738022 -7.348743

v 86.932404 26.703674 -7.365723

v 73.467285 18.652321 -7.977539

v 73.219849 19.341522 -7.199463

v 72.924805 18.640381 -6.947266

v 87.472092 25.964661 -7.067261

v 72.742798 17.795166 -6.927490

v 72.816284 16.721527 -7.326416

v 88.377167 25.302002 -7.566406

v 72.854248 15.361755 -7.354492

v 89.001015 24.551071 -6.907928

v 89.625999 24.289093 -7.279301

v 73.138611 13.851456 -7.424805

v 90.192078 23.410385 -7.109131

v 73.631950 12.821230 -7.405224

v 90.811401 22.400146 -7.010254

v 73.449341 12.072113 -7.381130

v 73.723114 11.593262 -7.386021

v 91.549500 20.948608 -7.327881

v 73.997849 11.117538 -7.562630

v 73.803093 10.361755 -7.389324

v 73.529518 10.839920 -7.384689

v 91.404510 20.228912 -7.113361

v 74.077660 9.885895 -7.583221

v 91.621826 19.716309 -7.286953

v 73.679741 9.575265 -7.395397

v 91.428543 18.961441 -7.323158

v 74.157784 8.654556 -7.404949

v 91.109283 18.350937 -7.426758

v 74.114159 7.644453 -7.381943

v 73.689255 8.376495 -7.391769

v 90.567749 17.174408 -7.305149

v 90.319214 15.759735 -7.111328

v 74.540611 6.884903 -7.366127

v 74.042305 6.668427 -7.395992

v 74.564804 5.789272 -7.357258

v 90.094971 14.969894 -6.936932

v 90.266975 14.431107 -7.319611

v 74.398323 4.955902 -7.408508

v 89.883331 14.004883 -7.317616

v 89.451859 13.139381 -7.456177

v 74.645409 4.468193 -7.386917

v 88.712364 12.315365 -6.890900

v 74.526001 3.783569 -7.458252

v 87.847687 11.169189 -7.390869

v 74.643028 3.187317 -7.649105

v 87.293884 10.367981 -7.210449

v 74.557312 2.508389 -7.431030

v 86.772171 8.525955 -7.384155

v 74.752502 1.876354 -7.697510

v 86.334686 8.056290 -7.333740

v 74.658966 1.234928 -7.436340

v 85.920738 6.718796 -7.348194

v 75.454102 -0.150513 -8.095459

v 74.803101 0.085114 -6.999836

v 85.583878 6.324913 -7.397949

v 75.121552 -0.652481 -7.582642

v 85.031311 5.482651 -7.061157

v 85.053986 4.729385 -7.472290

v 75.065063 -1.672050 -7.425446

v 84.679108 3.419922 -7.372131

v 84.236015 3.095329 -7.699867

v 75.317749 -2.310974 -7.583618

v 84.019333 2.386482 -7.375881

v 83.574005 2.064926 -7.705444

v 83.091476 1.377338 -7.602463

v 76.297363 -3.792961 -8.404785

v 75.491302 -3.604446 -7.529907

v 75.210007 -2.870262 -7.195286

v 82.498451 0.453629 -7.330872

v 82.073532 -0.724281 -7.337265

v 76.204102 -4.710144 -7.894409

v 75.609581 -4.550613 -7.071423

v 81.891998 -1.487267 -7.501808

v 76.009460 -5.326477 -7.215210

v 81.756485 -2.302422 -7.656479

v 76.727203 -4.987274 -8.192810

v 81.279236 -3.202908 -7.902954

v 77.554466 -5.179079 -8.425301

v 76.653984 -5.883797 -7.497276

v 81.731956 -3.456963 -7.407993

v 81.177124 -3.804688 -7.405396

v 80.057129 -4.574196 -7.670959

v 78.689209 -5.356934 -8.012024

v 78.582458 -5.999344 -7.465042

v 77.528725 -5.963913 -7.653679

v 79.244141 -5.346169 -7.397522

v 77.383247 -6.704946 -7.403894

v 76.593124 -6.519058 -7.433998

v 71.787521 30.266632 -7.306694

v 71.324753 29.993759 -5.401253

v 71.024940 30.068756 -6.175831

v 71.094063 29.239128 -5.518334

v 70.584473 30.190933 -5.410042

v 72.528198 30.069382 -6.864258

v 72.064789 29.796127 -5.399319

v 73.529755 29.476440 -5.997681

v 72.804665 29.598343 -5.397388

v 70.712479 28.939903 -5.551897

v 74.888794 29.703857 -6.596375

v 72.951767 29.060806 -5.257919

v 74.473450 28.736053 -5.390137

v 71.754372 27.049505 -5.616657

v 79.221504 31.506165 -6.928913

v 77.563133 30.608196 -5.359518

v 76.810776 29.753204 -5.937927

v 75.762352 29.229561 -6.072105

v 79.718430 30.696609 -5.416107

v 79.032684 30.757538 -5.372082

v 78.474220 30.427753 -5.318785

v 77.036369 29.294983 -5.332161

v 75.254868 28.388077 -5.425690

v 72.032227 26.568344 -6.414063

v 71.294319 26.774216 -5.471087

v 80.238197 30.837189 -5.367645

v 76.248970 28.414530 -5.420243

v 72.623886 24.386972 -5.577181

v 81.720039 30.423840 -5.369015

v 75.847115 27.566229 -5.406499

v 76.780739 28.128677 -5.401096

v 72.754028 25.296936 -6.641602

v 81.993912 29.963867 -5.361130

v 82.731705 29.705147 -5.403656

v 72.895874 23.881287 -6.498901

v 72.230705 24.100582 -5.457324

v 72.736038 23.158279 -5.579613

v 83.386261 28.715988 -5.218933

v 72.269524 22.879868 -5.476849

v 72.779999 21.930880 -5.617072

v 84.016739 28.616913 -5.361614

v 84.438034 27.884155 -5.365417

v 72.349327 21.648209 -5.497211

v 72.622467 21.171585 -5.565102

v 72.219833 20.860588 -5.453612

v 85.307190 26.877151 -5.357788

v 72.702202 19.939880 -5.622646

v 72.235695 19.661469 -5.506363

v 72.508835 19.184845 -5.589039

v 85.849228 26.514755 -5.361958

v 72.042297 18.906418 -5.488941

v 72.315460 18.429794 -5.556355

v 86.438416 25.831207 -5.402649

v 71.919136 18.111616 -5.445262

v 72.395142 17.198044 -5.651176

v 87.419327 25.100830 -5.384369

v 71.928711 16.919754 -5.484665

v 72.201843 16.443054 -5.572479

v 87.875061 25.158676 -6.192360

v 72.473663 15.965118 -6.454819

v 71.735336 16.164688 -5.450356

v 72.008583 15.688126 -5.462990

v 88.149635 24.687729 -5.359802

v 72.551826 14.746223 -5.547928

v 88.446640 24.119034 -5.264603

v 89.198433 23.953133 -5.391464

v 72.847649 14.229337 -5.443118

v 72.908615 13.024913 -5.460672

v 72.361694 13.980026 -5.455349

v 75.244728 15.146301 -5.424943

v 74.821365 14.271568 -5.626419

v 76.239098 14.910580 -5.420422

v 74.064423 14.288239 -5.403641

v 74.307594 13.862000 -5.895752

v 73.844551 13.584650 -5.438634

v 75.809448 14.170349 -5.665222

v 74.145981 13.163940 -6.419205

v 90.244690 22.131927 -5.350342

v 76.996948 13.566284 -5.433258

v 75.977051 13.256836 -5.894287

v 74.488983 12.545990 -6.518158

v 74.519531 11.980530 -6.618896

v 90.295807 21.473507 -5.374634

v 76.379883 12.122772 -5.584351

v 74.650757 11.216003 -6.534180

v 90.554413 20.486847 -5.305237

v 75.496094 11.209534 -5.820801

v 74.272141 10.642029 -6.936024

v 91.124313 19.466057 -5.377693

v 74.886963 9.857788 -6.163330

v 75.481354 10.728170 -5.491013

v 75.314240 9.896601 -5.481995

v 74.362671 9.326721 -6.883667

v 91.431335 18.964584 -5.366665

v 90.963676 18.684036 -5.365982

v 90.768097 17.964788 -5.430779

v 75.086426 8.298340 -6.383301

v 74.503235 7.993011 -7.083618

v 90.219353 17.586235 -5.261826

v 77.132690 7.761597 -5.082153

v 89.777573 15.587685 -5.382385

v 76.173340 7.497314 -5.820313

v 75.282715 7.127014 -6.531982

v 89.567230 14.655869 -5.347736

v 77.204498 6.654846 -5.450729

v 76.723969 6.555161 -5.533051

v 76.312073 6.180695 -5.726898

v 75.380493 5.791199 -6.396973

v 89.758018 14.153347 -5.427689

v 90.076645 13.679031 -5.399063

v 77.011047 5.878525 -5.471260

v 76.194824 5.382263 -5.465485

v 75.510567 4.817032 -5.426331

v 89.883217 12.923950 -5.398762

v 89.064194 12.385030 -5.421369

v 88.178238 12.539536 -5.354286

v 86.912354 11.111938 -5.990723

v 86.823273 11.592270 -5.381592

v 85.857254 11.033508 -5.111694

v 81.535980 7.866554 -5.487953

v 82.347443 8.531612 -5.526947

v 81.674728 8.667496 -5.444576

v 75.328850 4.281097 -5.399124

v 74.478798 3.733780 -5.470863

v 74.012634 3.454193 -5.484596

v 86.337158 10.051758 -6.217285

v 85.315887 10.020752 -5.429993

v 84.543701 8.990524 -5.772888

v 85.021255 9.381744 -5.421074

v 84.334297 9.743973 -5.171280

v 82.498352 9.559250 -4.928673

v 82.811951 7.907173 -5.975830

v 74.314651 2.995924 -5.490688

v 86.012695 8.840942 -6.604980

v 85.462036 8.783875 -6.270386

v 84.821716 8.219055 -6.248413

v 82.573364 6.947460 -5.932007

v 81.019547 7.620771 -5.446411

v 74.093391 2.220993 -5.490765

v 73.818581 2.696556 -5.486080

v 84.297241 7.139908 -6.396393

v 81.885986 6.206665 -5.433289

v 74.366524 1.744339 -5.574383

v 85.128540 7.206573 -6.711975

v 83.812500 6.085922 -6.106903

v 74.424385 0.516765 -5.527161

v 73.898407 1.464951 -5.489731

v 84.536621 6.510529 -6.493835

v 84.669922 5.977722 -6.601196

v 84.280518 5.150208 -6.163574

v 83.586731 5.335503 -5.437359

v 73.978241 0.233337 -5.493385

v 74.327293 -0.379139 -5.508415

v 83.902542 4.804893 -5.419567

v 84.589928 4.611757 -5.430052

v 74.799110 -1.195786 -5.783142

v 74.372025 -1.490177 -5.499537

v 84.215881 3.144073 -5.442162

v 74.878990 -2.427353 -5.756752

v 83.739761 2.845831 -5.463669

v 83.556145 2.110634 -5.447754

v 74.412712 -2.705498 -5.501236

v 74.750824 -3.280891 -5.571064

v 82.647507 1.578053 -5.430683

v 81.804291 1.085297 -5.441086

v 81.743774 0.439936 -5.933716

v 81.215576 0.718674 -5.473114

v 81.479553 -0.169056 -5.912170

v 75.232063 -4.135506 -5.772827

v 80.999481 -0.846626 -5.253906

v 81.187531 -1.229797 -5.415924

v 74.784500 -4.418732 -5.536170

v 81.413124 -1.791148 -5.443169

v 75.847771 -6.278057 -5.608801

v 82.172676 -3.074169 -5.507410

v 76.203537 -6.831908 -5.500728

v 82.006706 -3.931366 -5.478809

v 81.221191 -4.401455 -5.481297

v 80.023888 -5.117930 -5.497439

v 79.177124 -5.636105 -5.532104

v 79.001129 -6.368242 -5.494525

v 77.612061 -7.192085 -5.504459

v 71.696426 29.410582 -5.375312

v 71.533234 28.606125 -4.938723

v 73.272217 28.220154 -4.841385

v 72.497604 26.880226 -4.731022

v 73.209351 27.194427 -4.646816

v 72.024796 26.576572 -4.854591

v 79.532471 30.085175 -4.864639

v 78.390259 29.553665 -4.771912

v 75.244087 27.403000 -4.835800

v 75.274475 26.842026 -4.661808

v 73.563477 26.515625 -4.602966

v 80.676018 30.318008 -5.194160

v 79.130402 29.376549 -4.577168

v 77.155029 27.745895 -4.777069

v 73.418396 24.231461 -4.736511

v 81.164169 29.506866 -4.711090

v 78.974800 28.554581 -4.455660

v 76.244125 26.999002 -4.678053

v 80.934219 28.580894 -4.438032

v 78.236206 27.392021 -4.506783

v 76.806885 25.468960 -4.447274

v 72.930687 23.914551 -4.840675

v 82.487823 28.625763 -4.716003

v 79.185059 26.807419 -4.432065

v 75.309631 23.413849 -4.462443

v 73.504776 22.984001 -4.721695

v 73.010513 22.682938 -4.844330

v 83.695854 27.622070 -4.795746

v 82.652603 27.029680 -4.425301

v 81.907593 21.917480 -4.435020

v 73.571259 21.757164 -4.722656

v 74.373657 21.544800 -4.570099

v 73.090370 21.451355 -4.821903

v 84.179565 26.271667 -4.563705

v 75.600021 21.089569 -4.464117

v 73.363754 20.974960 -4.750008

v 72.878983 20.679699 -4.854424

v 85.193481 25.987793 -4.782013

v 84.275360 24.727074 -4.419520

v 77.804016 19.787796 -4.456059

v 73.495392 19.744667 -4.700378

v 72.976791 19.464645 -4.815983

v 74.786560 19.290527 -4.512089

v 73.250175 18.988251 -4.745419

v 72.783333 18.709518 -4.831722

v 85.168701 25.185791 -4.532120

v 73.925537 18.393631 -4.595215

v 73.065384 18.229389 -4.752625

v 72.570343 17.932388 -4.856735

v 75.725830 17.683788 -4.476205

v 87.229309 24.434570 -4.843079

v 86.339264 24.441772 -4.595154

v 85.817070 23.960487 -4.437831

v 85.413979 20.172699 -4.428419

v 74.693115 17.163574 -4.518848

v 73.172890 16.999836 -4.675623

v 72.669739 16.722794 -4.837479

v 73.103188 16.155746 -4.702774

v 72.476028 15.967453 -5.006813

v 78.074150 16.504467 -4.467755

v 80.832184 18.876945 -4.448463

v 73.097351 14.855682 -5.060394

v 88.111748 23.295471 -4.657349

v 87.484421 22.528618 -4.420791

v 76.395721 16.027649 -4.689606

v 75.321335 15.739761 -4.811533

v 73.910126 15.102974 -4.906322

v 88.963120 21.883972 -4.591354

v 77.562561 15.315918 -4.656219

v 76.712418 15.182983 -4.917389

v 88.524673 21.245827 -4.440640

v 79.329468 13.533674 -4.475709

v 77.446411 13.910400 -4.959137

v 78.084351 13.425140 -4.717957

v 89.781982 20.286148 -4.683426

v 88.938782 19.508881 -4.432422

v 88.298538 17.566133 -4.445621

v 82.619919 14.667046 -4.455677

v 77.240082 12.719543 -5.056793

v 78.713104 12.376373 -4.540779

v 90.738968 19.368385 -5.294205

v 89.978638 19.026550 -4.767029

v 89.316101 18.614952 -4.532951

v 87.397308 16.685730 -4.435164

v 77.881592 11.644104 -4.639107

v 76.799683 11.499466 -5.015076

v 89.640991 18.153793 -4.700897

v 76.822327 10.459900 -4.767853

v 89.203461 16.735504 -4.748901

v 88.447830 16.126465 -4.540218

v 87.794670 15.058694 -4.450221

v 82.137817 10.943794 -4.482124

v 79.580208 9.832333 -4.484363

v 77.950241 9.982002 -4.500175

v 77.069763 9.457184 -4.690582

v 86.093628 13.509399 -4.453753

v 84.524529 12.459724 -4.463060

v 89.134827 15.512245 -4.840637

v 88.674377 14.597687 -4.679077

v 79.084587 8.100494 -4.538610

v 88.010323 14.034157 -4.543522

v 78.083618 7.473953 -4.739319

v 88.447906 13.791931 -4.769348

v 85.514923 12.342505 -4.575027

v 83.502365 10.668814 -4.612840

v 80.817932 9.530693 -4.646423

v 79.217575 6.754280 -4.578328

v 88.194305 13.221725 -4.878754

v 85.684509 11.732574 -4.764633

v 84.670837 10.651276 -4.811531

v 81.620529 9.170525 -4.911720

v 80.987885 8.662521 -4.848923

v 77.650406 6.651783 -4.930405

v 89.491142 13.406978 -5.370397

v 80.268127 7.796585 -4.781906

v 79.649315 7.213593 -4.618393

v 78.652634 5.939285 -4.598358

v 77.233292 5.336678 -4.899155

v 76.488281 4.483704 -4.875427

v 80.874023 6.564129 -4.912277

v 77.591675 4.691010 -4.660782

v 75.340454 3.252716 -4.888428

v 75.896942 3.000580 -4.645126

v 74.555298 2.217224 -5.225616

v 81.341156 5.725208 -4.856995

v 79.777840 5.060234 -4.505504

v 76.360016 2.493724 -4.524130

v 75.472107 2.026787 -4.660629

v 75.077881 1.250578 -4.847900

v 82.771240 4.642853 -4.836151

v 82.122742 3.949226 -4.570208

v 75.279388 0.369049 -4.800735

v 81.063232 3.326752 -4.507228

v 79.136307 1.278644 -4.534626

v 75.958206 0.445616 -4.588583

v 74.720291 0.036842 -5.164253

v 78.549789 -0.272316 -4.518440

v 75.168640 -0.752319 -4.914398

v 83.911224 3.831604 -5.370453

v 83.033386 3.613625 -4.853271

v 82.530479 3.054733 -4.724129

v 80.391098 1.767876 -4.639969

v 76.510201 -1.087629 -4.551546

v 81.141388 1.464989 -4.889771

v 75.576645 -1.411050 -4.743256

v 75.073677 -1.671021 -4.987080

v 82.581665 2.135071 -5.160583

v 80.418259 0.893749 -4.790024

v 79.582367 -0.181450 -4.647095

v 75.618134 -2.536694 -4.767456

v 80.548187 0.267670 -4.935867

v 76.116150 -2.984108 -4.640083

v 75.151031 -2.943611 -4.971695

v 80.132263 -1.039410 -4.757416

v 79.695923 -2.644996 -4.537982

v 77.594147 -4.476105 -4.569834

v 75.980003 -4.303448 -4.766571

v 81.014282 -2.221283 -5.071350

v 75.506592 -4.610764 -4.998886

v 80.583435 -2.556557 -4.795807

v 76.896545 -4.804382 -4.644081

v 76.067764 -5.499359 -4.866089

v 80.133820 -3.524155 -4.759193

v 81.472450 -3.288733 -5.434116

v 78.267960 -5.265457 -4.842514

v 77.314911 -5.866211 -4.842983

v 76.522408 -6.335182 -4.996483

v 81.133713 -3.812439 -5.439728

v 80.020264 -4.434357 -5.185486

v 77.667542 -6.498360 -5.277512

f 1 2 3
f 2 4 3
f 5 3 4
f 4 6 5
f 5 6 7
f 2 8 4
f 6 4 8
f 2 1 9
f 9 10 2
f 8 2 10
f 10 11 8
f 6 8 11
f 11 12 6
f 7 6 12
f 12 13 7
f 10 9 14
f 14 15 10
f 15 16 10
f 11 10 16
f 16 17 11
f 12 11 17
f 17 18 12
f 13 12 18
f 18 19 13
f 20 21 14
f 21 15 14
f 20 22 23
f 23 21 20
f 16 15 24
f 24 25 16
f 17 16 25
f 26 27 23
f 21 23 27
f 15 21 24
f 18 17 28
f 18 29 19
f 25 30 17
f 28 17 30
f 28 31 18
f 29 18 31
f 21 27 32
f 32 33 21
f 24 21 33
f 33 32 34
f 33 34 35
f 35 36 33
f 24 33 36
f 25 24 36
f 30 25 37
f 30 38 28
f 31 28 38
f 36 37 25
f 38 30 39
f 38 40 31
f 41 42 43
f 44 43 42
f 44 45 46
f 34 46 45
f 45 35 34
f 35 47 36
f 47 48 36
f 37 39 30
f 42 41 49
f 42 45 44
f 45 47 35
f 37 36 48
f 48 50 37
f 50 39 37
f 38 39 51
f 38 52 40
f 40 52 53
f 42 54 45
f 54 55 45
f 55 47 45
f 50 51 39
f 52 38 51
f 54 42 49
f 55 54 56
f 55 57 47
f 48 47 57
f 57 58 48
f 50 48 58
f 52 59 53
f 56 60 55
f 58 61 50
f 61 62 50
f 51 50 62
f 62 63 51
f 52 51 63
f 63 64 52
f 59 52 64
f 65 55 60
f 57 55 65
f 65 66 57
f 66 67 57
f 58 57 67
f 67 68 58
f 61 58 68
f 64 69 59
f 68 67 70
f 68 71 61
f 62 61 71
f 72 68 70
f 72 73 68
f 71 68 73
f 73 74 71
f 71 75 62
f 63 62 75
f 75 76 63
f 63 77 64
f 64 77 69
f 74 78 71
f 78 75 71
f 77 63 76
f 77 76 79
f 79 80 77
f 81 77 80
f 81 82 77
f 76 75 83
f 83 79 76
f 84 81 80
f 85 81 84
f 84 86 85
f 87 88 83
f 79 83 88
f 88 89 79
f 80 79 89
f 89 90 80
f 84 80 90
f 84 90 91
f 91 86 84
f 91 92 86
f 92 91 93
f 93 94 92
f 95 88 87
f 90 96 91
f 93 91 96
f 88 95 97
f 89 88 97
f 89 98 90
f 96 90 98
f 98 99 96
f 93 96 99
f 99 100 93
f 101 93 100
f 100 102 101
f 103 101 102
f 102 104 103
f 105 106 107
f 108 107 106
f 108 106 109
f 95 110 97
f 97 111 89
f 98 112 99
f 104 102 113
f 105 114 106
f 109 106 115
f 115 116 109
f 116 115 117
f 117 110 116
f 110 117 97
f 117 111 97
f 98 89 111
f 100 99 112
f 112 118 100
f 118 119 100
f 102 100 119
f 114 120 106
f 115 106 120
f 120 121 115
f 117 115 121
f 111 117 122
f 111 123 98
f 119 124 102
f 113 102 124
f 113 124 125
f 114 105 126
f 121 120 127
f 122 117 121
f 123 111 128
f 112 98 123
f 119 118 129
f 124 119 129
f 129 130 124
f 130 131 124
f 125 124 131
f 132 114 126
f 120 114 132
f 132 133 120
f 127 120 133
f 121 127 134
f 134 122 121
f 111 122 135
f 135 128 111
f 118 112 123
f 129 118 123
f 125 131 136
f 133 137 127
f 134 127 137
f 137 138 134
f 138 139 134
f 122 134 139
f 139 140 122
f 135 122 140
f 136 131 141
f 138 142 139
f 129 143 130
f 130 144 131
f 141 131 144
f 136 141 145
f 140 139 142
f 142 146 140
f 135 140 146
f 146 147 135
f 128 135 147
f 147 148 128
f 123 128 148
f 144 130 143
f 144 149 141
f 145 141 149
f 146 142 150
f 150 151 146
f 129 123 152
f 153 146 151
f 147 146 153
f 153 154 147
f 154 155 147
f 148 147 155
f 148 156 123
f 152 123 156
f 152 157 129
f 144 158 149
f 158 159 149
f 154 160 155
f 148 155 160
f 156 148 160
f 143 129 157
f 157 161 143
f 144 143 162
f 158 144 162
f 163 160 154
f 163 164 160
f 164 165 160
f 156 160 165
f 165 166 156
f 152 156 166
f 161 167 143
f 162 143 167
f 158 168 159
f 168 169 159
f 164 170 165
f 166 165 170
f 170 171 166
f 152 166 171
f 157 152 171
f 168 158 162
f 172 169 168
f 171 170 173
f 173 174 171
f 174 175 171
f 157 171 175
f 161 157 175
f 162 176 168
f 168 176 177
f 177 172 168
f 174 178 175
f 178 179 175
f 179 180 175
f 161 175 180
f 180 181 161
f 167 161 181
f 167 182 162
f 176 162 182
f 177 183 172
f 184 183 185
f 185 186 184
f 187 179 178
f 180 179 187
f 181 188 167
f 182 167 188
f 182 189 176
f 177 176 189
f 189 190 177
f 183 177 190
f 185 183 190
f 191 180 187
f 181 180 191
f 191 192 181
f 188 181 192
f 188 193 182
f 189 182 193
f 190 194 185
f 195 192 191
f 195 196 192
f 188 192 196
f 196 197 188
f 193 188 197
f 197 198 193
f 189 193 198
f 190 189 198
f 198 199 190
f 199 200 190
f 194 190 200
f 201 197 196
f 198 197 201
f 201 202 198
f 199 198 202
f 200 199 202
f 202 203 200
f 202 201 204
f 204 205 202
f 203 202 205
f 206 207 208
f 208 209 206
f 206 209 210
f 208 211 212
f 212 3 208
f 3 209 208
f 209 3 5
f 213 210 5
f 210 209 5
f 214 210 213
f 213 215 214
f 216 214 215
f 215 217 216
f 212 211 218
f 218 1 212
f 212 1 3
f 5 7 213
f 219 215 7
f 215 213 7
f 217 215 219
f 220 218 211
f 9 1 218
f 219 7 13
f 219 221 217
f 221 222 217
f 218 220 223
f 13 221 219
f 223 14 218
f 218 14 9
f 224 222 221
f 20 14 223
f 19 221 13
f 22 223 225
f 223 22 20
f 19 226 221
f 224 221 226
f 224 226 227
f 228 23 225
f 23 22 225
f 226 229 227
f 23 228 230
f 230 26 23
f 226 19 29
f 230 231 232
f 27 26 230
f 230 232 27
f 226 29 233
f 233 234 226
f 229 226 234
f 32 27 232
f 233 29 31
f 231 235 232
f 232 34 32
f 236 234 233
f 237 238 239
f 235 239 238
f 232 235 46
f 46 34 232
f 233 31 40
f 40 240 233
f 236 233 240
f 238 237 241
f 241 43 238
f 238 43 44
f 44 235 238
f 235 44 46
f 240 242 236
f 241 41 43
f 240 40 53
f 243 242 240
f 49 41 241
f 241 244 49
f 243 240 53
f 53 245 243
f 243 245 246
f 247 243 246
f 49 244 248
f 49 248 54
f 53 59 245
f 249 245 59
f 246 245 249
f 250 247 246
f 248 251 252
f 252 54 248
f 54 252 56
f 249 250 246
f 253 254 250
f 255 252 251
f 252 255 256
f 256 56 252
f 60 56 256
f 60 256 65
f 249 59 69
f 249 257 250
f 253 250 257
f 257 258 253
f 258 259 253
f 260 253 259
f 259 261 260
f 262 256 255
f 256 262 263
f 263 65 256
f 66 65 263
f 263 67 66
f 69 257 249
f 258 257 264
f 259 265 261
f 261 265 266
f 262 267 263
f 263 268 67
f 70 67 268
f 77 269 69
f 257 69 269
f 264 270 258
f 259 258 270
f 265 259 270
f 265 271 266
f 267 272 263
f 268 263 272
f 272 273 268
f 70 268 273
f 273 274 70
f 274 72 70
f 73 72 274
f 274 275 73
f 74 73 275
f 275 276 74
f 74 276 78
f 269 277 257
f 264 257 277
f 277 278 264
f 278 270 264
f 270 271 265
f 271 279 266
f 273 280 274
f 275 274 280
f 280 281 275
f 276 275 281
f 276 75 78
f 269 77 82
f 278 282 270
f 271 270 282
f 271 283 279
f 281 280 284
f 284 285 281
f 285 276 281
f 75 276 285
f 285 83 75
f 82 277 269
f 277 286 278
f 282 278 286
f 284 287 285
f 85 82 81
f 277 82 85
f 85 92 277
f 286 277 92
f 286 288 282
f 271 282 288
f 288 289 271
f 283 271 289
f 289 290 283
f 291 283 290
f 292 285 287
f 83 285 292
f 292 87 83
f 92 85 86
f 286 92 94
f 288 286 94
f 291 290 293
f 287 294 295
f 287 295 292
f 295 87 292
f 94 93 288
f 93 101 288
f 101 289 288
f 289 296 290
f 293 290 296
f 296 297 293
f 298 299 300
f 298 300 301
f 301 294 298
f 294 301 295
f 295 95 87
f 103 289 101
f 299 302 303
f 303 107 299
f 299 107 108
f 109 300 108
f 300 299 108
f 109 301 300
f 289 103 104
f 296 289 104
f 296 304 297
f 305 105 303
f 303 105 107
f 116 301 109
f 295 301 116
f 95 295 116
f 116 110 95
f 104 113 296
f 113 304 296
f 305 306 105
f 304 113 125
f 126 105 306
f 306 307 126
f 308 304 125
f 126 307 132
f 308 125 136
f 132 307 133
f 133 307 309
f 137 133 309
f 137 309 138
f 310 308 145
f 308 136 145
f 311 308 310
f 138 309 312
f 142 138 312
f 310 145 149
f 311 310 313
f 312 314 142
f 142 314 150
f 149 159 310
f 159 315 310
f 313 310 315
f 151 150 314
f 315 316 313
f 317 151 314
f 317 153 151
f 154 153 317
f 159 318 315
f 315 318 316
f 154 317 319
f 154 319 163
f 318 159 169
f 169 172 318
f 318 320 316
f 164 163 319
f 319 170 164
f 320 318 172
f 320 321 316
f 183 320 172
f 320 183 184
f 184 321 320
f 322 170 319
f 173 170 322
f 321 184 186
f 186 323 321
f 173 322 324
f 324 325 173
f 173 325 326
f 326 174 173
f 178 174 326
f 326 187 178
f 186 185 327
f 323 186 327
f 325 328 326
f 187 326 328
f 327 185 194
f 194 329 327
f 323 327 329
f 328 330 187
f 330 191 187
f 191 330 195
f 329 331 323
f 332 333 330
f 195 330 333
f 196 195 333
f 334 329 200
f 329 194 200
f 331 329 334
f 201 196 333
f 334 200 203
f 334 335 331
f 201 333 336
f 201 336 204
f 203 205 337
f 337 338 334
f 334 203 337
f 335 334 338
f 339 204 336
f 339 340 204
f 205 204 340
f 340 337 205
f 341 340 339
f 341 342 340
f 337 340 342
f 338 337 342
f 343 344 206
f 343 345 346
f 347 346 345
f 345 348 347
f 211 349 350
f 349 211 208
f 349 208 207
f 349 207 206
f 206 344 349
f 206 210 343
f 343 210 214
f 214 345 343
f 345 214 216
f 216 348 345
f 351 348 216
f 352 348 351
f 211 350 353
f 351 216 217
f 217 354 351
f 220 353 355
f 353 220 211
f 354 217 222
f 222 356 354
f 220 355 357
f 223 220 357
f 356 222 224
f 358 223 357
f 358 225 223
f 224 359 356
f 227 360 359
f 359 224 227
f 358 361 228
f 228 225 358
f 227 229 360
f 361 230 228
f 231 230 361
f 234 362 360
f 360 229 234
f 360 362 363
f 361 364 231
f 362 365 363
f 239 235 364
f 364 366 239
f 364 235 231
f 236 367 234
f 362 234 367
f 365 362 368
f 366 237 239
f 367 368 362
f 369 241 237
f 237 366 369
f 367 236 242
f 370 365 368
f 368 371 370
f 370 371 372
f 369 373 241
f 243 367 242
f 368 367 243
f 243 247 368
f 371 368 247
f 244 241 373
f 371 254 372
f 372 254 374
f 254 375 374
f 248 244 373
f 373 376 248
f 250 371 247
f 250 254 371
f 375 377 374
f 251 248 376
f 253 375 254
f 375 253 260
f 260 377 375
f 260 378 377
f 251 376 379
f 251 379 255
f 378 260 261
f 261 266 378
f 266 380 378
f 255 379 381
f 381 382 255
f 255 382 262
f 382 381 383
f 382 384 262
f 267 262 384
f 267 384 272
f 380 266 279
f 383 385 382
f 384 382 385
f 385 386 384
f 272 384 386
f 386 387 272
f 272 387 273
f 279 283 380
f 388 380 283
f 383 389 390
f 385 383 390
f 386 385 391
f 391 387 386
f 387 392 273
f 273 392 280
f 388 283 291
f 391 393 387
f 392 387 393
f 393 394 392
f 280 392 394
f 284 280 394
f 394 395 284
f 395 287 284
f 291 293 388
f 293 396 388
f 390 397 385
f 391 385 397
f 397 398 391
f 391 302 393
f 302 399 393
f 394 393 399
f 399 395 394
f 400 401 390
f 397 390 401
f 398 402 391
f 302 391 402
f 302 298 399
f 395 399 298
f 298 294 395
f 287 395 294
f 396 293 297
f 297 403 396
f 302 299 298
f 404 401 400
f 397 401 404
f 404 405 397
f 398 397 405
f 402 398 405
f 405 303 402
f 402 303 302
f 403 297 304
f 406 405 404
f 406 407 405
f 305 303 405
f 405 407 305
f 403 304 308
f 403 308 408
f 409 407 406
f 306 305 407
f 407 409 306
f 409 307 306
f 409 410 307
f 408 308 311
f 411 408 311
f 309 307 410
f 312 309 412
f 309 410 412
f 411 311 313
f 313 413 411
f 412 414 312
f 314 312 414
f 313 316 415
f 415 413 313
f 317 314 414
f 317 414 416
f 319 317 416
f 416 417 319
f 316 321 415
f 321 418 415
f 319 417 419
f 319 419 322
f 418 321 323
f 323 420 418
f 322 419 324
f 324 419 421
f 325 324 421
f 325 421 422
f 422 423 325
f 328 325 423
f 420 323 331
f 331 424 420
f 425 328 423
f 425 426 328
f 330 328 426
f 426 427 330
f 332 330 427
f 335 428 331
f 424 331 428
f 428 429 424
f 332 430 333
f 335 338 428
f 428 431 429
f 333 430 336
f 338 432 428
f 431 428 432
f 336 430 433
f 339 336 433
f 339 433 341
f 338 342 434
f 432 338 434
f 429 431 432
f 432 435 429
f 341 433 436
f 342 341 436
f 436 437 342
f 437 438 434
f 434 342 437
f 432 434 438
f 438 439 432
f 435 432 439
f 437 440 438
f 440 441 438
f 439 438 441
f 441 442 439
f 435 439 442
f 443 435 442
f 444 445 446
f 446 447 444
f 448 444 447
f 447 449 448
f 346 347 450
f 347 451 452
f 452 450 347
f 446 452 451
f 451 447 446
f 453 343 346
f 346 450 453
f 347 348 451
f 451 348 352
f 352 447 451
f 454 447 352
f 449 447 454
f 455 349 344
f 344 456 455
f 456 344 453
f 344 343 453
f 351 457 454
f 454 352 351
f 353 458 459
f 458 353 350
f 458 350 349
f 349 455 458
f 457 351 354
f 353 459 460
f 460 461 355
f 460 355 353
f 461 462 355
f 457 354 356
f 356 463 457
f 357 355 462
f 356 464 463
f 462 465 357
f 465 358 357
f 464 356 359
f 359 360 464
f 465 466 358
f 466 361 358
f 363 464 360
f 363 467 464
f 363 468 467
f 466 469 361
f 469 364 361
f 468 363 365
f 365 370 468
f 366 364 469
f 370 470 468
f 470 471 468
f 469 472 366
f 366 472 473
f 473 369 366
f 470 370 372
f 373 369 473
f 372 374 470
f 470 374 474
f 473 475 373
f 476 474 374
f 373 475 376
f 476 374 377
f 378 476 377
f 475 477 376
f 477 379 376
f 378 478 476
f 478 378 380
f 381 379 477
f 477 479 381
f 479 383 381
f 479 480 389
f 479 389 383
f 478 380 388
f 478 388 481
f 482 389 480
f 482 390 389
f 483 481 388
f 483 388 396
f 482 484 390
f 396 485 483
f 400 390 484
f 396 403 486
f 486 485 396
f 484 487 488
f 488 400 484
f 400 488 404
f 486 403 408
f 404 488 406
f 408 489 486
f 490 488 487
f 488 490 406
f 490 491 406
f 409 406 491
f 408 492 489
f 491 493 409
f 411 492 408
f 492 411 494
f 493 410 409
f 493 495 410
f 411 496 494
f 410 495 497
f 410 497 412
f 496 411 413
f 497 498 412
f 414 412 499
f 412 498 499
f 499 500 414
f 414 501 416
f 414 500 501
f 501 417 416
f 501 502 417
f 413 415 418
f 503 413 418
f 504 503 418
f 502 419 417
f 504 418 420
f 502 505 419
f 424 504 420
f 424 506 504
f 421 419 505
f 421 507 422
f 421 505 507
f 422 507 508
f 508 423 422
f 508 509 423
f 425 423 509
f 510 506 424
f 426 425 509
f 509 511 426
f 427 426 511
f 510 424 429
f 511 512 427
f 332 427 512
f 512 430 332
f 513 510 429
f 512 514 430
f 515 513 429
f 433 430 514
f 515 429 435
f 514 516 433
f 436 433 516
f 517 515 443
f 515 435 443
f 515 517 518
f 518 513 515
f 516 437 436
f 443 442 517
f 518 517 519
f 518 519 520
f 516 521 437
f 440 437 521
f 440 522 441
f 442 441 522
f 522 523 517
f 517 442 522
f 519 517 523
f 520 519 523
f 523 524 520
f 525 440 521
f 522 440 525
f 525 526 522
f 526 527 522
f 523 522 527
f 524 523 528
f 528 523 527
f 444 448 529
f 446 445 530
f 445 444 530
f 444 529 530
f 529 448 449
f 449 531 529
f 452 451 450
f 451 452 532
f 452 446 532
f 446 530 532
f 449 533 531
f 450 534 453
f 450 451 534
f 451 532 534
f 449 454 533
f 533 454 457
f 457 535 533
f 456 536 455
f 536 456 453
f 536 453 534
f 537 460 459
f 537 459 458
f 458 538 537
f 458 539 538
f 539 458 455
f 455 540 539
f 540 455 536
f 457 463 535
f 541 535 463
f 542 461 460
f 460 537 542
f 463 543 541
f 544 461 542
f 544 462 461
f 544 545 462
f 463 546 543
f 546 463 464
f 547 462 545
f 547 465 462
f 547 548 465
f 464 467 546
f 549 546 467
f 550 465 548
f 550 466 465
f 550 551 466
f 549 467 468
f 468 552 549
f 553 552 468
f 554 469 466
f 466 551 554
f 553 468 471
f 555 553 471
f 471 556 555
f 469 557 472
f 557 469 554
f 470 558 556
f 556 471 470
f 473 472 559
f 472 557 559
f 474 558 470
f 560 558 474
f 474 561 560
f 562 473 559
f 474 563 561
f 564 561 563
f 562 475 473
f 563 474 476
f 565 564 563
f 562 566 475
f 567 565 563
f 568 567 563
f 569 477 475
f 475 566 569
f 478 563 476
f 568 563 478
f 478 570 568
f 479 477 569
f 569 571 479
f 571 572 479
f 570 478 481
f 481 573 570
f 480 479 572
f 572 574 480
f 574 482 480
f 573 481 483
f 483 575 573
f 574 576 482
f 484 482 576
f 575 483 485
f 575 485 577
f 485 486 578
f 578 577 485
f 576 579 484
f 486 580 578
f 487 484 579
f 581 582 486
f 582 580 486
f 487 579 583
f 581 486 489
f 489 584 581
f 583 585 490
f 490 487 583
f 586 584 489
f 491 490 587
f 490 585 587
f 586 489 492
f 492 588 586
f 587 589 491
f 493 491 589
f 492 494 588
f 590 591 494
f 591 588 494
f 589 592 493
f 495 493 592
f 592 593 495
f 590 494 496
f 496 594 590
f 595 594 496
f 496 596 595
f 497 495 593
f 497 593 597
f 498 597 598
f 597 498 497
f 498 598 499
f 596 496 413
f 596 413 599
f 598 600 499
f 499 600 601
f 602 599 413
f 500 499 601
f 601 603 500
f 413 604 602
f 501 500 603
f 603 605 501
f 604 413 503
f 503 606 604
f 502 605 607
f 605 502 501
f 503 608 606
f 502 607 609
f 503 504 608
f 610 608 504
f 609 505 502
f 611 505 609
f 610 504 506
f 612 610 506
f 507 505 611
f 507 611 613
f 506 614 612
f 614 615 612
f 613 508 507
f 616 508 613
f 614 617 615
f 508 616 509
f 509 616 618
f 509 618 619
f 614 506 510
f 619 511 509
f 614 510 513
f 617 614 513
f 617 513 620
f 511 619 621
f 512 511 621
f 621 622 512
f 513 623 620
f 624 512 622
f 512 624 625
f 625 514 512
f 625 626 514
f 513 627 623
f 623 627 628
f 628 629 623
f 626 630 514
f 630 516 514
f 513 518 627
f 630 631 516
f 518 520 627
f 627 632 628
f 632 633 628
f 521 516 634
f 516 631 634
f 627 520 524
f 632 635 633
f 521 634 636
f 521 636 525
f 524 637 627
f 632 627 637
f 635 632 637
f 638 525 636
f 526 525 638
f 524 528 639
f 637 524 639
f 639 640 637
f 635 637 640
f 641 638 636
f 641 642 638
f 526 638 642
f 642 643 526
f 527 526 643
f 643 644 527
f 644 528 527
f 644 645 639
f 639 528 644
f 645 646 639
f 640 639 646
f 643 647 644
f 644 647 645
f 645 648 646
f 640 646 648
f 649 640 648
f 529 531 530
f 530 650 532
f 650 530 651
f 530 531 651
f 652 531 533
f 652 533 653
f 652 653 654
f 652 654 651
f 652 651 531
f 532 655 534
f 655 532 656
f 532 650 656
f 650 651 656
f 657 534 658
f 534 655 658
f 655 656 658
f 653 533 535
f 659 653 535
f 660 536 534
f 534 657 660
f 658 661 657
f 659 535 541
f 536 660 540
f 657 662 660
f 657 661 662
f 541 663 659
f 537 664 542
f 664 537 538
f 538 539 665
f 539 666 665
f 539 540 666
f 540 667 666
f 667 540 660
f 663 541 543
f 544 542 664
f 664 668 544
f 668 664 669
f 664 538 669
f 538 670 669
f 538 665 670
f 666 671 665
f 660 672 667
f 672 660 662
f 543 673 663
f 674 663 673
f 545 544 675
f 675 544 668
f 676 671 666
f 666 667 676
f 676 667 672
f 673 543 546
f 673 677 674
f 545 675 678
f 676 679 680
f 679 676 672
f 546 681 673
f 677 673 681
f 678 547 545
f 548 547 678
f 678 682 548
f 549 681 546
f 677 681 549
f 683 550 548
f 548 682 683
f 549 684 677
f 685 677 684
f 551 550 683
f 684 549 552
f 684 686 685
f 683 687 551
f 553 684 552
f 686 684 553
f 553 555 686
f 688 686 555
f 555 689 688
f 690 554 551
f 551 687 690
f 690 691 554
f 689 555 556
f 556 558 689
f 692 689 558
f 558 693 692
f 557 554 691
f 558 560 693
f 694 693 560
f 557 695 559
f 695 557 691
f 560 696 694
f 696 560 561
f 561 564 696
f 697 696 564
f 564 698 697
f 562 559 699
f 559 695 699
f 564 565 698
f 700 698 565
f 565 701 700
f 702 562 699
f 565 567 701
f 703 701 567
f 566 562 702
f 567 704 703
f 566 702 705
f 568 704 567
f 706 704 568
f 568 707 706
f 566 708 569
f 708 566 705
f 709 707 568
f 710 707 709
f 709 711 710
f 712 569 708
f 708 705 712
f 709 568 570
f 711 709 570
f 570 713 711
f 571 569 712
f 712 714 571
f 715 572 571
f 571 714 715
f 713 570 573
f 573 716 713
f 574 572 715
f 717 718 573
f 718 716 573
f 719 720 721
f 720 722 723
f 723 722 724
f 717 573 575
f 576 574 715
f 725 721 720
f 725 720 723
f 723 726 725
f 723 724 726
f 575 726 724
f 717 575 724
f 715 727 576
f 728 721 725
f 725 729 728
f 729 725 726
f 726 730 729
f 730 726 575
f 575 731 730
f 577 731 575
f 576 727 732
f 577 578 731
f 579 576 732
f 733 729 730
f 733 730 731
f 734 731 578
f 578 580 734
f 732 735 579
f 728 729 733
f 736 733 731
f 736 731 734
f 580 737 734
f 737 580 582
f 582 581 737
f 579 735 583
f 735 738 583
f 736 739 740
f 736 734 739
f 739 734 737
f 739 737 581
f 581 584 739
f 585 583 738
f 739 741 740
f 584 742 739
f 742 584 586
f 738 743 587
f 587 585 738
f 586 588 742
f 589 587 743
f 743 744 589
f 744 745 589
f 741 739 746
f 746 739 742
f 746 742 588
f 588 747 746
f 747 588 591
f 591 590 747
f 592 589 745
f 745 748 592
f 746 749 741
f 593 592 748
f 593 748 750
f 746 751 749
f 746 752 751
f 752 746 747
f 752 747 590
f 590 594 752
f 595 596 594
f 750 597 593
f 597 750 753
f 754 749 751
f 751 755 754
f 755 751 752
f 752 756 755
f 752 757 756
f 757 752 594
f 757 594 596
f 598 597 753
f 753 758 598
f 596 599 757
f 600 758 759
f 758 600 598
f 600 759 601
f 754 755 760
f 760 755 756
f 756 761 760
f 756 757 761
f 757 762 761
f 757 599 762
f 599 602 762
f 601 759 763
f 763 764 601
f 603 601 764
f 603 764 765
f 605 603 765
f 766 605 765
f 765 767 766
f 768 766 767
f 769 770 771
f 772 762 602
f 602 773 772
f 602 604 773
f 774 773 604
f 605 766 607
f 768 775 766
f 776 775 768
f 777 778 779
f 780 781 777
f 781 780 770
f 770 769 781
f 774 604 606
f 606 782 774
f 607 766 775
f 783 775 776
f 784 783 776
f 776 778 784
f 777 784 778
f 777 785 784
f 785 777 781
f 769 786 781
f 786 769 787
f 606 608 782
f 788 789 608
f 789 782 608
f 607 775 609
f 609 775 783
f 790 785 781
f 781 786 790
f 787 791 786
f 788 608 610
f 610 792 788
f 783 611 609
f 611 783 784
f 785 793 784
f 793 785 790
f 786 794 790
f 786 791 794
f 610 612 792
f 795 796 612
f 796 792 612
f 611 784 793
f 790 797 793
f 797 790 794
f 611 793 613
f 793 616 613
f 616 793 797
f 797 798 616
f 798 797 794
f 794 799 798
f 799 794 800
f 794 791 800
f 795 612 615
f 801 795 615
f 615 802 801
f 616 798 618
f 618 798 799
f 800 803 799
f 802 615 617
f 619 618 804
f 618 799 804
f 799 803 804
f 805 802 617
f 617 620 805
f 806 805 620
f 804 621 619
f 621 804 807
f 806 620 623
f 623 808 806
f 807 622 621
f 622 809 624
f 622 807 809
f 624 809 810
f 808 623 629
f 811 808 629
f 629 812 811
f 810 625 624
f 626 625 810
f 810 813 626
f 630 626 813
f 813 814 630
f 814 815 630
f 815 814 816
f 817 815 816
f 812 629 628
f 815 817 630
f 628 818 812
f 630 817 631
f 631 817 819
f 819 820 631
f 818 628 633
f 821 818 633
f 631 820 634
f 820 822 634
f 821 633 635
f 636 634 822
f 635 823 821
f 822 824 636
f 823 635 640
f 636 824 641
f 825 823 649
f 823 640 649
f 826 641 824
f 642 641 826
f 826 827 642
f 643 642 827
f 827 828 643
f 647 643 828
f 828 829 647
f 647 829 645
f 649 648 825
f 645 829 830
f 648 645 830
f 830 831 648
f 825 648 831
f 654 653 651
f 651 832 656
f 832 651 653
f 656 832 658
f 653 833 832
f 833 653 659
f 661 658 832
f 832 833 661
f 834 661 833
f 835 833 659
f 659 663 835
f 834 662 661
f 671 670 665
f 672 662 834
f 836 834 833
f 836 833 835
f 663 837 835
f 837 663 674
f 669 838 668
f 838 669 670
f 670 839 838
f 839 670 671
f 840 672 834
f 834 841 840
f 841 834 836
f 842 836 835
f 674 677 837
f 675 843 678
f 843 675 668
f 668 838 843
f 839 844 838
f 671 845 839
f 671 676 680
f 680 845 671
f 679 672 840
f 836 842 841
f 842 835 837
f 837 846 842
f 846 837 677
f 847 843 838
f 838 844 847
f 848 844 839
f 848 839 845
f 845 680 679
f 679 849 845
f 840 841 849
f 849 679 840
f 682 678 843
f 843 847 682
f 850 847 844
f 844 848 850
f 851 848 845
f 845 849 851
f 841 852 849
f 852 841 842
f 683 682 847
f 677 853 846
f 853 677 685
f 854 683 847
f 847 850 854
f 848 855 850
f 855 848 851
f 851 852 855
f 852 851 849
f 842 856 852
f 856 842 846
f 853 857 846
f 857 853 685
f 685 686 857
f 687 683 854
f 846 857 856
f 686 858 857
f 858 686 688
f 688 689 858
f 854 859 687
f 854 860 859
f 860 854 850
f 860 850 855
f 855 861 860
f 858 862 857
f 862 858 689
f 691 690 687
f 687 859 691
f 861 855 852
f 852 856 861
f 857 863 856
f 863 857 862
f 689 864 862
f 864 689 692
f 692 693 864
f 865 859 860
f 866 856 863
f 863 862 864
f 864 867 863
f 867 864 693
f 693 868 867
f 868 693 694
f 695 691 859
f 859 869 695
f 869 859 865
f 870 860 861
f 856 871 861
f 856 866 871
f 867 872 863
f 872 867 868
f 694 696 868
f 863 872 866
f 872 868 696
f 696 873 872
f 873 696 697
f 697 698 873
f 695 869 699
f 860 870 865
f 872 874 866
f 873 875 872
f 875 873 698
f 698 876 875
f 876 698 700
f 700 701 876
f 702 699 869
f 877 869 865
f 877 865 870
f 872 878 874
f 878 872 875
f 878 875 876
f 876 879 878
f 879 876 701
f 701 880 879
f 880 701 703
f 881 866 874
f 703 704 880
f 702 882 705
f 882 702 869
f 869 883 882
f 883 869 877
f 877 884 883
f 884 877 870
f 870 861 885
f 874 886 881
f 886 874 878
f 878 887 886
f 887 878 879
f 887 879 880
f 887 880 704
f 704 888 887
f 888 704 706
f 706 707 888
f 884 870 885
f 887 889 886
f 889 887 888
f 889 888 707
f 707 890 889
f 890 707 710
f 710 711 890
f 705 882 712
f 871 891 892
f 891 871 866
f 866 881 891
f 890 893 889
f 893 890 711
f 711 713 893
f 714 712 882
f 894 882 883
f 883 895 894
f 895 883 884
f 895 884 885
f 885 861 871
f 896 881 886
f 886 897 896
f 897 886 889
f 889 898 897
f 898 889 893
f 882 894 714
f 881 896 891
f 713 716 893
f 715 714 894
f 899 894 895
f 892 885 871
f 897 898 719
f 719 898 720
f 898 722 720
f 722 898 893
f 893 716 722
f 718 717 716
f 894 899 715
f 900 891 896
f 896 901 900
f 901 896 897
f 897 721 901
f 719 721 897
f 722 716 724
f 724 716 717
f 727 715 899
f 902 899 895
f 902 895 885
f 900 903 891
f 901 904 900
f 901 721 728
f 728 904 901
f 732 727 899
f 891 903 892
f 900 905 903
f 905 900 904
f 735 732 899
f 899 906 735
f 906 899 902
f 902 907 906
f 907 902 885
f 885 908 907
f 892 903 909
f 910 905 904
f 904 728 910
f 905 911 903
f 733 910 728
f 738 735 906
f 906 912 738
f 906 913 912
f 913 906 907
f 907 914 913
f 907 908 914
f 915 908 885
f 915 885 892
f 915 892 909
f 911 905 910
f 910 916 911
f 917 916 910
f 910 733 917
f 917 733 736
f 914 918 913
f 917 919 916
f 919 917 736
f 919 736 740
f 743 738 912
f 912 744 743
f 744 912 913
f 913 745 744
f 745 913 918
f 918 914 908
f 740 741 919
f 918 748 745
f 918 920 748
f 920 918 908
f 908 921 920
f 921 908 915
f 922 915 909
f 903 923 909
f 903 924 923
f 924 903 911
f 924 911 916
f 916 925 924
f 925 916 919
f 919 926 925
f 926 919 741
f 915 922 921
f 909 927 922
f 909 928 927
f 909 923 928
f 741 749 926
f 748 920 750
f 920 929 750
f 929 920 921
f 921 930 929
f 930 921 922
f 925 931 924
f 931 925 926
f 922 932 930
f 932 922 927
f 926 933 931
f 933 926 749
f 750 929 753
f 753 929 930
f 932 934 930
f 927 935 932
f 935 927 928
f 928 936 935
f 936 928 923
f 924 937 923
f 924 931 937
f 933 938 931
f 758 753 930
f 758 930 934
f 939 934 932
f 939 932 935
f 935 940 939
f 935 941 940
f 941 935 936
f 923 780 936
f 780 923 937
f 937 942 780
f 937 943 942
f 943 937 931
f 749 944 933
f 754 944 749
f 758 945 759
f 945 758 934
f 945 934 939
f 939 765 945
f 939 767 765
f 767 939 940
f 940 768 767
f 768 940 941
f 936 779 941
f 779 936 780
f 771 942 943
f 946 943 931
f 931 947 946
f 947 931 938
f 760 944 754
f 759 945 763
f 945 764 763
f 764 945 765
f 941 776 768
f 941 779 776
f 777 779 780
f 780 942 770
f 771 770 942
f 943 769 771
f 787 769 943
f 943 946 787
f 933 948 938
f 948 933 944
f 949 948 944
f 944 760 949
f 949 760 761
f 761 950 949
f 950 761 762
f 776 779 778
f 946 951 787
f 951 946 947
f 947 938 951
f 952 948 949
f 952 949 950
f 950 762 772
f 772 953 950
f 953 772 773
f 773 782 953
f 782 773 774
f 950 954 952
f 954 950 953
f 782 955 953
f 955 782 789
f 789 788 955
f 791 787 951
f 951 956 791
f 956 951 938
f 938 957 956
f 957 938 948
f 957 948 952
f 952 958 957
f 958 952 954
f 953 959 954
f 959 953 955
f 788 792 955
f 958 954 959
f 955 960 959
f 960 955 792
f 960 792 796
f 796 795 960
f 956 961 791
f 956 962 961
f 962 956 957
f 963 960 795
f 791 961 800
f 957 964 962
f 964 957 958
f 958 965 964
f 966 958 959
f 966 959 960
f 966 960 963
f 795 967 963
f 967 795 801
f 801 802 967
f 803 800 961
f 958 968 965
f 968 958 966
f 967 969 963
f 969 967 802
f 961 970 803
f 961 971 970
f 971 961 962
f 962 972 971
f 972 962 964
f 964 973 972
f 973 964 965
f 966 974 968
f 974 966 963
f 802 805 969
f 804 803 970
f 975 972 973
f 974 963 969
f 969 976 974
f 976 969 805
f 805 977 976
f 977 805 806
f 804 970 807
f 807 970 971
f 971 809 807
f 809 971 972
f 972 978 809
f 978 972 975
f 973 979 975
f 979 973 965
f 965 980 979
f 980 965 968
f 977 981 976
f 981 977 806
f 806 808 981
f 810 809 978
f 978 813 810
f 978 814 813
f 814 978 975
f 816 814 975
f 816 979 982
f 816 975 979
f 982 979 980
f 983 974 976
f 983 976 981
f 808 984 981
f 984 808 811
f 811 812 984
f 982 817 816
f 817 982 819
f 819 982 980
f 980 985 819
f 983 981 984
f 985 980 968
f 968 986 985
f 983 987 974
f 984 988 983
f 988 984 812
f 812 818 988
f 820 819 985
f 985 989 820
f 986 968 974
f 974 987 986
f 818 990 988
f 990 818 821
f 822 820 989
f 985 991 989
f 991 985 986
f 992 987 983
f 992 983 988
f 988 993 992
f 993 988 990
f 993 990 821
f 986 994 991
f 986 987 994
f 821 823 993
f 824 822 989
f 989 995 824
f 995 989 991
f 995 991 994
f 987 996 994
f 987 997 996
f 997 987 992
f 997 992 993
f 993 998 997
f 998 993 823
f 999 995 994
f 994 1000 999
f 1000 994 996
f 823 825 998
f 995 826 824
f 826 995 999
f 999 827 826
f 827 999 1000
f 1000 828 827
f 828 1000 996
f 996 829 828
f 996 1001 829
f 1001 996 997
f 1001 997 998
f 998 825 1001
f 830 829 1001
f 1001 831 830
f 831 1001 825
