v -88.582764 25.965210 -17.808838

v -90.664551 24.772583 -18.056152

v -89.892334 25.875610 -17.507813

v -91.446289 25.055542 -17.639404

v -92.870972 23.218689 -18.182831

v -93.530762 24.458618 -17.214844

v -94.346924 22.958740 -17.699707

v -85.944336 26.769043 -17.907959

v -87.818481 25.805664 -18.059143

v -87.072388 26.920410 -17.446777

v -89.510132 24.674438 -18.286621

v -91.105225 23.621582 -18.369049

v -93.963013 21.904449 -18.225403

v -94.783813 21.319550 -18.045288

v -84.819946 27.991211 -17.280762

v -84.352554 27.454193 -17.706543

v -87.246460 25.387451 -18.296875

v -89.836914 23.428223 -18.488682

v -92.738312 21.808884 -18.493431

v -96.236328 21.234932 -17.111328

v -95.435669 20.112305 -18.058228

v -83.474411 27.748161 -17.511400

v -84.255043 26.653229 -18.124008

v -85.240112 25.706421 -18.371643

v -87.132324 24.423828 -18.473171

v -94.089539 20.571777 -18.409973

v -82.954224 28.075022 -17.496120

v -82.417847 27.119324 -17.496822

v -83.448669 26.568069 -17.834015

v -84.095673 26.142059 -18.212500

v -93.662476 19.742523 -18.504375

v -94.910828 19.348434 -18.383209

v -95.601807 19.261139 -18.171265

v -96.494141 19.820801 -17.439941

v -96.083252 18.460976 -18.152893

v -97.280273 19.245071 -17.102783

v -82.611046 26.363907 -17.499905

v -83.817291 25.735088 -18.144028

v -84.892075 24.821144 -18.412029

v -96.690186 17.598938 -18.056519

v -82.842484 25.469078 -17.482094

v -84.012695 24.982147 -18.148956

v -85.376228 23.165434 -18.391685

v -86.573792 22.261330 -18.477032

v -90.936150 20.117264 -18.504002

v -94.546509 17.947296 -18.518652

v -95.667603 17.680573 -18.401474

v -83.070274 24.647781 -17.462860

v -84.362762 24.237328 -18.192047

v -96.318542 16.580505 -18.388626

v -97.240967 16.571869 -17.987915

v -83.191452 24.099091 -17.509136

v -83.653488 23.808243 -17.520786

v -83.830063 23.191574 -17.571259

v -84.575195 23.115173 -18.086182

v -85.895889 21.703979 -18.405680

v -93.303436 15.505997 -18.526917

v -95.201965 16.543091 -18.523232

v -96.985840 15.670898 -18.244995

v -98.077148 15.252319 -17.615234

v -85.006378 22.172035 -18.171906

v -87.121338 20.358555 -18.485443

v -96.047211 15.285248 -18.511902

v -97.337158 14.637634 -18.097290

v -85.423981 21.077156 -18.234680

v -86.096947 20.106955 -18.381104

v -96.497925 14.124527 -18.422394

v -98.124023 13.259705 -17.411621

v -84.500175 20.606842 -17.545105

v -87.399780 17.780701 -18.498100

v -97.025024 13.292419 -18.187683

v -85.425232 19.615616 -18.080261

v -86.558571 18.473513 -18.440210

v -95.388000 12.836548 -18.539934

v -96.944458 11.978577 -18.099487

v -85.862534 18.927032 -18.262001

v -98.242676 11.930283 -17.139648

v -84.942474 18.590935 -17.535736

v -96.128906 12.130501 -18.419220

v -85.771027 18.121811 -18.182068

v -86.618866 16.690592 -18.438648

v -96.858276 10.596924 -17.767578

v -84.761093 17.988422 -17.496674

v -85.908630 16.883127 -18.221863

v -87.507416 15.687958 -18.504900

v -90.536987 13.959152 -18.522243

v -93.257370 11.056015 -18.540939

v -94.593597 11.138916 -18.545109

v -95.156372 10.352207 -18.434738

v -95.998779 10.271362 -18.138672

v -85.116798 16.555527 -17.548992

v -85.883972 16.175644 -18.185699

v -86.346321 15.422842 -18.359432

v -86.709549 14.672865 -18.440262

v -96.318420 9.671463 -17.614136

v -97.071159 10.060883 -17.600479

v -84.870697 16.031883 -17.506432

v -87.641602 13.746567 -18.510494

v -85.962891 14.513763 -18.151215

v -93.793045 9.347977 -18.519932

v -94.649048 8.778381 -18.150269

v -85.238190 14.564178 -17.549862

v -86.104553 13.770752 -18.204498

v -86.618835 13.314985 -18.390732

v -88.703964 11.855133 -18.522591

v -95.508972 8.428223 -17.601871

v -84.966164 14.084427 -17.547241

v -85.175407 13.323418 -17.530281

v -87.412399 11.994004 -18.502705

v -92.950623 8.849976 -18.541553

v -94.851196 8.158051 -17.683105

v -86.331696 12.622589 -18.267838

v -89.864594 7.324524 -18.541080

v -93.167694 7.616089 -18.357422

v -86.234192 11.791809 -18.163361

v -86.678589 11.118954 -18.344063

v -87.533813 10.081808 -18.511530

v -92.142540 7.421570 -18.531868

v -93.314331 6.839844 -18.059937

v -94.120850 6.947357 -17.523804

v -85.537018 11.827225 -17.565536

v -85.273056 11.342453 -17.557064

v -85.430779 10.780271 -17.529953

v -86.087036 10.477158 -18.040344

v -93.138000 5.403381 -17.579803

v -86.355103 9.790466 -18.195099

v -86.482193 9.123004 -18.274330

v -92.227112 5.866699 -18.204163

v -85.643318 9.844879 -17.582287

v -86.880402 8.713501 -18.408379

v -87.487305 7.777750 -18.521397

v -90.611404 5.777618 -18.541550

v -91.278229 5.444702 -18.395416

v -85.386353 9.355301 -17.563786

v -92.445068 5.108856 -17.683777

v -85.579254 8.603867 -17.570061

v -86.371338 8.251556 -18.234833

v -86.876907 7.145391 -18.424747

v -87.673927 5.855122 -18.530928

v -85.306778 8.123962 -17.567432

v -90.729370 3.953735 -18.166077

v -91.291321 3.334366 -17.595490

v -85.499916 7.371964 -17.573715

v -85.970406 7.090836 -17.967304

v -86.373871 6.551224 -18.223846

v -89.580231 4.287872 -18.526371

v -85.227211 6.892746 -17.571083

v -85.391685 6.312063 -17.522934

v -86.618851 5.827744 -18.327011

v -87.278244 4.634123 -18.481655

v -87.692986 3.226624 -18.527685

v -90.511658 2.910950 -17.661194

v -85.613365 5.385330 -17.580441

v -86.411621 4.981339 -18.186371

v -88.707642 2.674683 -18.392273

v -89.215790 2.421875 -18.160950

v -85.341446 4.906242 -17.552177

v -85.533768 4.211500 -17.442875

v -86.900108 3.768436 -18.384922

v -90.009666 2.115173 -17.602928

v -85.841400 3.718483 -17.689804

v -86.378967 3.231781 -18.122650

v -87.150627 2.038284 -18.425306

v -89.448853 1.811798 -17.668945

v -85.261711 3.674698 -17.572357

v -86.552155 2.606567 -18.227036

v -87.632309 1.320496 -18.278564

v -88.741638 1.009033 -17.617310

v -85.454979 2.919357 -17.571484

v -85.649475 2.211851 -17.542717

v -88.029602 0.824219 -17.934814

v -85.777359 1.651028 -17.635063

v -86.514252 1.311157 -18.060883

v -86.975563 1.091969 -18.176193

v -88.422913 0.482422 -17.629318

v -85.161072 1.298125 -17.541754

v -87.077179 0.080315 -17.625017

v -85.570572 0.933418 -17.576683

v -86.136429 0.565114 -17.604733

v -88.158676 -0.001375 -17.608875

v -85.762520 0.184129 -17.581566

v -86.229370 -0.102692 -17.600090

v -86.698608 -0.381737 -17.599388

v -85.490234 -0.299210 -17.588509

v -93.082199 27.155624 -15.610363

v -93.967369 26.800293 -15.673370

v -93.823128 27.352264 -15.590660

v -94.315582 27.062801 -15.598732

v -94.714844 25.991211 -16.091797

v -96.157745 25.966469 -15.593506

v -92.350456 26.965927 -15.618587

v -92.869751 26.655273 -15.933716

v -95.336914 24.962891 -16.405518

v -96.463730 25.207764 -15.671814

v -96.396240 24.142792 -16.318237

v -97.288643 24.644791 -15.632961

v -97.664429 23.897400 -15.637329

v -91.123924 27.152283 -15.659271

v -91.577148 26.612305 -16.231934

v -91.875229 27.236465 -15.605930

v -92.505859 25.793457 -16.759766

v -97.479004 23.147705 -16.213989

v -98.393890 23.392166 -15.603027

v -98.011963 22.139481 -16.349731

v -98.781189 22.525452 -15.722351

v -85.342438 30.484436 -15.579407

v -84.142967 31.213799 -15.565451

v -83.611595 30.286388 -15.579895

v -84.352203 30.049835 -15.842667

v -84.938171 29.399902 -16.357422

v -85.525085 29.043945 -16.452637

v -86.471657 29.823486 -15.582115

v -86.480469 29.152344 -15.967773

v -86.941147 29.541901 -15.581448

v -87.211823 28.855225 -15.701416

v -89.897308 27.617188 -15.187012

v -89.882172 27.234619 -15.964355

v -91.408203 25.643555 -17.164551

v -95.347656 23.289886 -16.953735

v -99.526428 21.998749 -15.660156

v -98.997620 20.986053 -16.347565

v -99.793579 21.387024 -15.702026

v -86.822777 28.203613 -16.497314

v -88.499329 28.012573 -15.669678

v -88.623535 27.234863 -16.484375

v -96.185547 22.079712 -16.909790

v -100.138367 20.817619 -15.826965

v -83.122734 29.508945 -15.642181

v -83.862427 29.260986 -16.372131

v -97.042969 20.488831 -16.917419

v -99.506287 20.011139 -16.385437

v -100.460815 20.363403 -15.703125

v -100.737793 19.850830 -15.825012

v -84.004654 28.055542 -17.197144

v -97.775391 20.085083 -16.762268

v -99.817505 18.985794 -16.456512

v -100.536621 18.831970 -16.204895

v -101.102539 19.145264 -15.657959

v -101.576416 18.032471 -15.614502

v -82.303764 29.113693 -15.566719

v -82.587448 28.458412 -16.032516

v -83.238609 28.551071 -16.547260

v -98.289307 18.723663 -16.797150

v -100.731750 18.074005 -16.269043

v -81.759087 28.175926 -15.576111

v -100.533936 17.431702 -16.442261

v -100.982910 17.097351 -16.262695

v -101.908188 17.410324 -15.672077

v -101.515381 16.596313 -15.890991

v -102.101151 16.655182 -15.675133

v -81.973824 27.505737 -15.668640

v -97.822998 18.261658 -17.060120

v -98.970215 17.343018 -16.785400

v -101.573532 15.734947 -15.719452

v -98.364014 17.184814 -17.039795

v -100.814941 15.835449 -16.342041

v -81.810547 26.622314 -14.911133

v -99.236084 15.742645 -16.862000

v -101.148193 15.006790 -15.942383

v -101.747086 14.949776 -15.670273

v -98.512817 16.253204 -17.108032

v -82.578735 24.756836 -15.684570

v -98.757690 15.308716 -17.070679

v -98.961670 14.244019 -16.940063

v -100.012695 13.548828 -16.348389

v -100.952477 13.561459 -15.696800

v -82.946289 23.541748 -15.398438

v -100.441071 12.593113 -15.726044

v -99.528320 12.518066 -16.460693

v -99.433594 11.322998 -16.318848

v -100.575684 11.810272 -15.685303

v -100.302010 11.330124 -15.689079

v -83.851677 20.246834 -15.490416

v -99.456512 9.916277 -15.693871

v -100.495338 10.577698 -15.688953

v -97.775879 10.897949 -17.134277

v -100.219803 10.097244 -15.689518

v -84.271973 18.351685 -15.580078

v -97.815674 10.186157 -16.761719

v -98.532303 9.416595 -15.697357

v -84.263672 17.435425 -15.300781

v -97.494690 9.692383 -16.617920

v -84.364868 16.308609 -15.338867

v -96.469116 9.040771 -16.903809

v -97.790039 8.356995 -14.945313

v -96.712967 8.359924 -15.670101

v -84.592896 14.411552 -15.349121

v -96.232727 8.030396 -15.885010

v -95.187500 7.919983 -17.054443

v -95.699753 7.684677 -15.668736

v -84.818970 13.282349 -15.808594

v -95.352539 6.983673 -15.602539

v -84.990784 11.524086 -15.582031

v -94.712646 6.184601 -15.693359

v -93.699219 5.197266 -16.101563

v -94.690186 4.841156 -13.767426

v -85.055939 9.797531 -15.573975

v -92.806763 4.854858 -16.962402

v -93.138672 4.632324 -16.023438

v -85.057541 8.394325 -15.523926

v -85.100975 6.957790 -15.557861

v -91.405762 2.822998 -16.666992

v -85.290100 5.707382 -15.513184

v -90.688477 2.154053 -16.782227

v -91.547852 1.846802 -15.374023

v -89.628906 1.202148 -16.820313

v -90.361328 0.686035 -15.452148

v -85.730270 3.399872 -16.135056

v -85.697388 2.725586 -15.687500

v -88.915039 0.440674 -16.813477

v -89.654701 0.420959 -15.670929

v -89.716553 -0.070068 -15.291504

v -85.844391 1.413361 -16.141792

v -88.475037 -0.356079 -16.415527

v -85.976608 0.639061 -15.396732

v -87.723412 -0.547333 -16.698181

v -86.147545 -0.114410 -15.666878

v -87.162483 -0.655876 -16.592571

v -87.883644 -1.558693 -15.689804

v -86.416740 -0.852783 -15.676567

v -86.888069 -1.131256 -15.887985

v -87.303268 -1.574501 -15.719866

v -86.611160 -1.605461 -15.682827

v -88.016098 -2.443283 -15.685570

v -86.339333 -2.084427 -15.670033

v -87.275284 -2.643639 -15.685261

v -86.534088 -2.840012 -15.676151

v -94.236145 27.127014 -13.601654

v -95.026314 27.274887 -13.686626

v -95.494919 26.996349 -13.690308

v -96.899384 26.158722 -13.701599

v -97.326645 25.482544 -13.989502

v -93.174965 27.319977 -13.680405

v -92.499352 27.450714 -13.688347

v -98.078033 24.829742 -13.745422

v -98.743652 24.288437 -13.352051

v -99.195801 23.465942 -14.265869

v -91.367432 27.617950 -14.040283

v -100.389648 22.893463 -13.497070

v -101.572266 21.689087 -13.557617

v -84.872818 31.417343 -13.644920

v -84.132523 31.220673 -13.636578

v -85.811676 30.859779 -13.648560

v -86.467102 30.484945 -13.743286

v -87.561508 29.698547 -13.352295

v -87.461426 29.207031 -14.740723

v -88.858643 28.704651 -13.785400

v -90.129974 28.217407 -13.176025

v -101.654297 20.628418 -14.261719

v -83.837662 30.782686 -13.626999

v -102.443359 19.698242 -13.925781

v -102.508789 20.373535 -13.482422

v -102.912048 18.224945 -13.735474

v -82.670799 29.851967 -13.496552

v -102.453125 17.215950 -14.327148

v -103.110573 17.332611 -13.734356

v -82.086700 29.133728 -13.581055

v -102.790253 16.802580 -13.771584

v -81.501564 27.856186 -13.606567

v -102.029984 15.401814 -13.735443

v -81.204689 27.205704 -13.645630

v -81.527588 26.034607 -13.740234

v -101.211456 13.767273 -13.622681

v -81.769531 24.802734 -13.335938

v -82.382095 23.080124 -13.501671

v -100.709854 12.140785 -13.797821

v -82.914246 20.806293 -13.252150

v -100.391762 11.278061 -13.403996

v -100.492973 10.582153 -13.752758

v -83.682129 18.569336 -13.738281

v -100.684814 9.825241 -13.762241

v -99.947464 9.627996 -13.770588

v -99.205017 9.426849 -14.990002

v -99.682686 9.179245 -13.755554

v -98.929756 8.952301 -13.772785

v -83.376709 17.523315 -11.770508

v -98.191910 8.752335 -15.053204

v -98.375771 8.044264 -13.749629

v -84.130859 15.258301 -13.746094

v -96.914429 7.769348 -14.898804

v -97.643204 7.801407 -13.723934

v -97.369972 7.324890 -13.745743

v -96.014832 7.269928 -15.146851

v -96.645821 7.116072 -13.693806

v -84.761230 11.736816 -13.529785

v -95.618172 6.451080 -14.608532

v -96.083473 6.173859 -13.757923

v -95.348839 5.974268 -13.672350

v -84.879944 10.109741 -13.682617

v -93.735352 4.074707 -14.485352

v -93.720566 3.146683 -13.745300

v -84.905060 8.311157 -13.357422

v -92.348633 2.157959 -14.745117

v -85.177246 6.445501 -13.763550

v -93.113800 2.070908 -13.673950

v -92.410118 0.867065 -13.740295

v -85.705933 4.105927 -13.672867

v -91.488525 0.249146 -14.060852

v -92.066727 0.256325 -13.772484

v -91.791473 -0.221848 -13.769844

v -85.928352 2.651825 -13.784557

v -90.806915 -0.533142 -13.790710

v -86.106346 0.997223 -13.807983

v -89.622070 -1.404175 -13.994141

v -86.292351 -0.441216 -14.381348

v -88.797119 -2.297363 -13.903809

v -86.545784 -1.618523 -13.749680

v -88.519501 -2.689396 -13.746307

v -86.798996 -2.359825 -13.752930

v -86.996979 -3.114440 -13.771187

v -88.205544 -3.197746 -13.766895

v -86.900986 -2.739670 -14.719181

v -87.465561 -3.395668 -13.764946

v -95.955643 26.721863 -11.757523

v -96.832642 26.247845 -12.101929

v -97.515564 25.822754 -11.906860

v -95.207108 26.600708 -11.342407

v -98.765968 24.764191 -11.714966

v -99.700989 23.949173 -12.260864

v -100.501831 23.585846 -12.241089

v -101.495117 22.765381 -12.524414

v -101.080032 23.649233 -11.822205

v -102.729706 22.693054 -11.796844

v -102.535889 22.163086 -12.317871

v -103.823730 22.007072 -11.803604

v -103.483582 21.617676 -11.912567

v -104.087608 21.228073 -11.820740

v -93.220215 26.867798 -11.394043

v -93.839600 26.344238 -10.722656

v -103.563721 21.029449 -12.175049

v -104.281212 20.473236 -11.823826

v -84.869652 31.420441 -11.706478

v -85.428352 31.122692 -11.837219

v -86.435684 30.738380 -11.742371

v -87.802048 29.860611 -11.830688

v -90.382065 28.365280 -11.758972

v -89.421539 28.793083 -12.143311

v -91.800613 27.587843 -12.022339

v -103.388672 20.171875 -12.703125

v -103.937744 19.617310 -12.200684

v -104.474419 19.718353 -11.826889

v -84.129692 31.222488 -11.704781

v -104.070145 19.030029 -11.882912

v -104.666611 18.955664 -11.835492

v -83.850929 30.747116 -11.713757

v -103.106689 18.880386 -13.190918

v -83.344902 30.409531 -11.713081

v -103.652130 18.287659 -11.944611

v -104.844841 18.208437 -11.806889

v -82.675507 29.814232 -11.713379

v -103.377670 17.806229 -11.822449

v -103.089737 17.663574 -12.782352

v -102.951706 17.426529 -11.822510

v -82.111710 29.226761 -11.712563

v -102.363609 17.136383 -11.831039

v -81.557495 28.920929 -11.714909

v -102.173584 16.581177 -11.562988

v -81.281525 28.439728 -11.714378

v -81.265907 27.812744 -11.714142

v -101.305420 14.760925 -11.598633

v -80.958794 26.817963 -11.912048

v -81.261230 25.571533 -12.276367

v -100.397949 12.901367 -11.453125

v -81.129395 24.463623 -11.207520

v -82.027832 21.136353 -11.235352

v -99.995667 11.831245 -11.697147

v -99.703369 10.706909 -12.100586

v -82.906982 19.214355 -11.746094

v -99.096161 10.133575 -11.649555

v -98.572113 9.423096 -11.863159

v -98.027466 8.315979 -12.819092

v -97.101013 8.370483 -11.821289

v -83.706177 14.984497 -11.664063

v -96.901466 7.605209 -12.645302

v -96.434181 7.890579 -11.836716

v -95.940918 7.311590 -11.669189

v -84.299866 12.070679 -11.716064

v -95.453247 6.520401 -12.034180

v -94.600830 5.788940 -11.827148

v -84.454468 10.619263 -11.736084

v -93.776367 4.217773 -11.983398

v -84.674500 8.759155 -11.760986

v -93.322083 2.862518 -11.815186

v -84.836182 7.334229 -11.612793

v -92.938492 1.530231 -11.870110

v -85.488403 4.544678 -11.665771

v -92.551903 0.607529 -11.840088

v -92.528755 -0.018417 -11.818356

v -85.889900 2.763733 -11.738281

v -91.696777 -0.620361 -12.169312

v -85.949966 1.766936 -11.701599

v -91.208862 -1.379883 -11.730469

v -90.042465 -2.210268 -12.217175

v -86.169182 0.246857 -11.745239

v -86.255920 -1.091034 -11.755371

v -88.795715 -3.479797 -11.945129

v -86.824707 -3.496887 -12.220947

v -87.928848 -3.669029 -12.078091

v -88.395859 -3.950539 -11.846600

v -87.187134 -3.869003 -11.845360

v -87.656387 -4.147980 -11.844666

v -96.398346 26.438419 -9.927681

v -97.427460 25.963333 -9.859283

v -98.296516 25.296164 -9.864548

v -101.327347 23.696505 -9.872643

v -100.181419 24.121740 -9.789383

v -102.705330 22.968609 -9.880341

v -103.876938 21.983118 -9.883698

v -99.243629 24.599396 -9.851860

v -104.112076 21.234787 -9.891056

v -94.632385 26.248718 -9.609680

v -104.295532 20.511414 -9.815304

v -104.743416 20.174469 -9.891106

v -85.353455 31.125854 -9.695648

v -86.883728 30.502640 -9.871460

v -87.742752 29.819744 -9.445740

v -90.016525 28.473106 -9.515594

v -90.601807 28.226418 -9.782227

v -91.847839 27.358780 -9.748779

v -92.554932 26.835052 -9.904785

v -104.937149 19.442383 -9.899616

v -83.853775 30.751549 -9.789850

v -104.389931 18.486723 -9.891240

v -83.577759 30.271759 -9.781361

v -103.599167 18.293907 -9.885557

v -83.123375 29.601379 -9.583130

v -102.909096 18.098450 -9.906300

v -102.636818 17.615219 -10.670982

v -102.168579 17.898193 -9.901344

v -82.182877 28.935040 -9.781357

v -101.811890 17.347412 -9.860352

v -81.669228 28.067245 -9.813416

v -100.770752 15.002502 -9.613770

v -81.210396 27.204376 -9.665405

v -80.651962 26.258057 -9.794235

v -100.727615 14.285522 -9.895058

v -80.747559 25.354591 -10.137451

v -100.280273 13.429321 -9.842529

v -80.589355 23.838379 -9.831055

v -80.409996 24.487305 -9.388317

v -99.514587 11.941772 -9.757324

v -80.555664 22.596069 -9.309570

v -98.831207 10.972733 -9.898483

v -80.666504 21.804993 -9.080566

v -80.849854 20.964905 -8.933594

v -81.738731 20.498245 -9.807934

v -98.537231 10.466156 -9.899651

v -81.960449 19.413300 -9.641846

v -97.335991 10.590303 -9.891935

v -98.061684 10.733002 -9.880642

v -98.243896 9.980408 -11.002075

v -82.129517 19.000290 -9.783928

v -82.591568 18.709564 -9.817146

v -96.387566 11.092524 -9.901986

v -96.590004 10.351395 -9.918896

v -95.848221 10.178141 -9.906557

v -96.641968 9.906128 -10.203613

v -82.785049 17.954575 -9.820057

v -96.015678 9.508415 -9.951424

v -83.035156 17.132446 -10.739746

v -82.114563 17.747055 -8.990723

v -82.749023 16.286865 -9.699707

v -95.967041 8.222656 -10.792480

v -83.092552 15.213074 -9.829685

v -83.347168 14.351563 -10.550781

v -82.589600 14.405151 -9.099121

v -94.699219 7.030518 -9.891602

v -82.815918 13.527222 -9.160156

v -94.054199 6.142090 -10.163086

v -83.112549 12.757080 -9.397461

v -83.560303 12.023804 -9.929199

v -83.786446 10.961090 -9.845665

v -93.333130 4.801880 -10.042480

v -83.794189 10.481995 -10.093262

v -83.300293 10.014954 -9.040039

v -84.275879 8.952881 -10.732422

v -83.581543 9.269470 -9.302734

v -92.814087 2.583466 -9.628906

v -83.917969 8.535492 -9.648682

v -84.308472 7.109070 -9.731445

v -84.561829 6.319519 -9.840088

v -92.751801 1.499634 -10.153320

v -84.929138 4.864975 -9.861694

v -92.581383 0.591141 -9.916870

v -85.118652 4.113312 -9.857422

v -92.400787 -0.116026 -10.624084

v -85.254311 3.688515 -9.873573

v -92.234894 -0.531036 -10.362305

v -85.447449 2.933434 -9.876640

v -85.640533 2.178207 -9.880108

v -91.597107 -1.762451 -10.273193

v -85.384613 1.688873 -9.825142

v -85.593567 0.580902 -9.823853

v -85.776215 0.098175 -9.910339

v -90.870972 -2.924812 -9.887451

v -85.947617 -0.563522 -9.889904

v -85.683662 -1.048203 -9.859173

v -89.986168 -3.616669 -10.197060

v -85.741150 -1.491257 -9.748535

v -88.932983 -4.153076 -10.866211

v -89.587433 -4.154587 -10.006866

v -86.061539 -2.550102 -9.896645

v -86.253052 -3.307404 -10.573135

v -85.816528 -3.046402 -9.820850

v -88.056534 -4.444794 -10.987213

v -89.051697 -4.955399 -9.915451

v -85.855469 -4.188416 -9.503418

v -86.446243 -4.062271 -10.440590

v -87.224075 -4.533081 -10.793732

v -88.346146 -5.196068 -9.974735

v -86.285309 -4.716034 -9.994293

v -87.315666 -5.330434 -10.055040

v -88.039619 -5.655586 -9.927452

v -86.361298 -5.293289 -9.920475

v -86.834663 -5.575775 -9.923023

v -97.157425 26.646042 -7.927658

v -96.417297 26.448685 -7.917946

v -97.626472 26.366028 -7.930687

v -97.819405 25.612839 -7.922283

v -98.287300 25.331070 -8.412060

v -100.640991 23.916969 -7.956463

v -102.829651 22.612896 -7.954788

v -103.420967 22.268036 -7.955585

v -96.092049 25.919144 -7.908082

v -98.512825 24.583023 -7.888977

v -99.863327 23.773979 -7.919662

v -103.613289 21.514832 -7.955471

v -104.081070 21.234421 -7.961182

v -103.807655 20.755859 -7.958565

v -85.309341 31.136909 -7.861567

v -86.430336 30.486580 -7.881229

v -87.201447 30.030930 -7.874542

v -90.478287 28.083164 -7.891336

v -91.401154 27.524033 -7.897114

v -94.203140 25.642563 -7.984497

v -104.000725 20.000183 -9.180626

v -103.052010 19.396111 -7.959793

v -87.499725 29.232590 -7.826477

v -89.734421 27.904419 -7.798683

v -91.547165 26.785168 -7.811775

v -93.309219 25.750572 -7.890228

v -103.556763 19.229370 -9.009033

v -83.849655 30.750305 -7.862225

v -84.041908 29.995941 -7.860504

v -103.109741 18.652191 -9.270142

v -102.166992 19.022919 -7.955597

v -83.767952 29.516357 -7.864269

v -101.843811 18.299347 -8.495728

v -83.476196 29.012024 -8.599243

v -84.036942 28.826172 -7.906982

v -101.084015 18.116943 -7.883057

v -82.674316 28.370605 -9.068359

v -83.517639 27.998634 -8.138733

v -84.074951 27.792778 -7.919800

v -101.248535 17.372070 -8.708496

v -82.031128 27.669189 -9.146729

v -83.179657 26.742950 -7.621948

v -100.366852 16.502052 -7.965637

v -82.323853 26.535088 -7.904900

v -100.281830 15.864155 -7.895203

v -81.391083 26.463943 -7.865757

v -81.114906 25.986404 -7.863129

v -99.706818 14.280388 -7.986206

v -80.724564 25.898575 -8.928040

v -80.377998 25.788834 -7.876450

v -79.895302 24.975607 -7.864592

v -99.708206 13.614281 -7.976013

v -79.558479 24.356857 -7.904064

v -80.025421 24.078018 -8.065079

v -98.883949 12.206055 -7.956192

v -79.752007 23.601654 -7.968922

v -80.220306 23.321533 -8.944714

v -79.478668 23.125229 -7.923515

v -79.945496 22.846527 -7.994797

v -98.337997 11.226641 -7.989904

v -79.672127 22.370117 -7.933922

v -80.138908 22.091431 -7.997879

v -79.865532 21.615005 -7.932129

v -80.332352 21.336365 -7.993843

v -97.134178 11.304352 -7.968719

v -97.871590 11.502518 -7.967480

v -80.131996 20.862495 -7.905170

v -80.992592 20.302567 -8.068810

v -81.461151 20.022125 -9.222923

v -95.911011 11.397949 -7.945587

v -96.655479 11.533628 -7.868248

v -80.719147 19.826202 -7.961636

v -81.185959 19.547516 -8.033611

v -80.912544 19.071121 -7.943851

v -81.379356 18.792450 -8.005558

v -81.847542 18.512375 -8.930729

v -82.315369 18.232712 -9.608612

v -95.279846 10.494919 -8.133739

v -81.105980 18.316025 -7.935555

v -81.572739 18.037354 -7.991596

v -95.575516 9.678146 -9.151730

v -94.769562 10.265564 -7.758057

v -81.299393 17.560928 -7.938637

v -81.766205 17.282272 -7.999649

v -82.234482 17.002121 -8.975819

v -95.229492 8.843750 -9.152344

v -94.832336 9.480225 -7.968903

v -81.492844 16.805847 -7.945000

v -81.959648 16.527145 -8.020306

v -81.686279 16.050720 -7.963577

v -82.153145 15.772003 -8.057232

v -82.621826 15.491455 -9.282337

v -81.879753 15.295593 -7.981586

v -82.346626 15.016846 -8.098114

v -94.054688 7.107178 -8.859375

v -93.463226 7.123779 -7.968384

v -82.073204 14.540497 -7.999683

v -81.799866 14.064041 -7.954815

v -82.266670 13.785339 -8.019291

v -81.993324 13.308884 -7.966000

v -82.460121 13.030197 -8.034847

v -93.044067 6.613708 -8.153809

v -93.294434 5.726440 -9.230957

v -82.186768 12.553772 -7.973942

v -82.653610 12.275070 -8.055618

v -82.380211 11.798645 -7.980865

v -82.847046 11.519958 -8.073200

v -83.315765 11.239410 -9.298306

v -92.437256 5.578979 -8.032715

v -82.573662 11.043533 -7.997555

v -83.000137 10.757555 -8.108999

v -92.299072 4.617584 -8.044189

v -82.493805 9.811996 -7.970787

v -82.960594 9.533310 -8.040596

v -92.762985 3.681389 -9.122288

v -92.311646 3.859245 -7.978516

v -82.687233 9.056870 -7.981964

v -83.154068 8.778168 -8.062420

v -92.490700 3.207932 -7.978432

v -82.880707 8.301758 -7.993748

v -83.347534 8.023041 -8.077854

v -83.816032 7.742691 -9.176735

v -92.218246 2.728012 -7.975838

v -83.074135 7.546646 -7.993416

v -83.540970 7.267960 -8.073452

v -92.411209 1.976517 -7.982101

v -83.267555 6.791565 -7.985958

v -83.734375 6.512848 -8.074413

v -92.161057 1.482887 -7.953403

v -83.460968 6.036469 -7.985748

v -83.927818 5.757744 -8.077492

v -84.396362 5.477356 -9.211735

v -92.346420 0.614813 -8.025215

v -83.654419 5.281349 -7.994186

v -84.121262 5.002625 -8.090919

v -92.523697 -0.010963 -8.024765

v -83.847862 4.526253 -8.007141

v -84.314728 4.247520 -8.099728

v -92.694489 -0.806124 -8.018852

v -84.041321 3.771126 -8.016174

v -84.508148 3.492401 -8.109535

v -84.976883 3.211868 -9.347881

v -84.234741 3.016052 -8.023300

v -84.701630 2.737274 -8.135990

v -85.170532 2.456490 -9.495953

v -91.731102 -2.480410 -7.994124

v -84.428207 2.260918 -8.040848

v -84.895103 1.982101 -8.173393

v -84.621666 1.505775 -8.059879

v -85.090004 1.225616 -9.056644

v -84.348305 1.029343 -8.008606

v -84.815163 0.750626 -8.098083

v -91.350327 -3.150299 -8.002579

v -84.541786 0.274208 -8.027672

v -84.973755 -0.007067 -8.139587

v -90.618149 -3.328929 -8.012182

v -85.203415 -0.760948 -8.951088

v -90.061539 -4.267595 -8.013002

v -84.461899 -0.957390 -8.004471

v -84.928734 -1.236061 -8.080059

v -84.655373 -1.712509 -8.023132

v -85.122215 -1.991234 -8.122437

v -85.590973 -2.271812 -9.379097

v -89.339188 -4.518518 -7.962021

v -84.848831 -2.467651 -8.052898

v -85.277580 -2.752546 -8.187148

v -85.510696 -3.503006 -9.125179

v -88.775772 -5.451309 -8.007778

v -84.768982 -3.699234 -8.038586

v -85.235817 -3.977959 -8.124386

v -88.502495 -5.927826 -8.002262

v -84.962433 -4.454361 -8.051033

v -85.429283 -4.733063 -8.129036

v -85.897491 -5.013138 -9.070084

v -87.297501 -5.848801 -9.020123

v -87.762665 -6.125900 -8.088028

v -85.160187 -5.204671 -8.061287

v -86.327370 -5.938599 -8.152157

v -87.022682 -6.323822 -8.069504

v -97.099380 25.718189 -7.867430

v -97.564819 25.138519 -7.684326

v -100.873199 23.200134 -7.726593

v -102.994537 21.911163 -7.885544

v -95.970474 25.120293 -7.343864

v -97.140373 24.788147 -7.308014

v -99.237366 23.447266 -7.425415

v -100.749054 22.407867 -7.210045

v -101.774414 21.778763 -7.193329

v -102.475403 21.232941 -7.335815

v -103.357620 20.763649 -7.884140

v -94.260147 25.257263 -7.566635

v -96.744064 24.256622 -7.062019

v -99.159607 22.881042 -7.168854

v -85.022644 30.314188 -7.843678

v -86.711243 29.686035 -7.633545

v -94.141823 24.448246 -7.148917

v -98.516479 22.340096 -6.988284

v -96.819611 23.437187 -6.978791

v -101.025322 21.207289 -7.002295

v -101.673782 20.690166 -7.074902

v -102.299561 20.260925 -7.333252

v -85.891052 29.544189 -7.316635

v -86.860748 28.921600 -7.298004

v -89.224396 27.542053 -7.345673

v -90.634460 26.432831 -7.198517

v -92.415222 25.634369 -7.455688

v -93.391693 25.047272 -7.345367

v -94.330078 23.439209 -6.973219

v -102.172424 19.490631 -7.623444

v -84.367615 29.490387 -7.751175

v -84.838257 29.232178 -7.381622

v -85.477875 28.902939 -7.119507

v -86.503601 28.543030 -7.082558

v -88.234650 27.468933 -7.111328

v -92.171936 25.115936 -7.167664

v -92.484192 24.579473 -7.049973

v -100.364563 18.935261 -7.187027

v -86.261566 27.907364 -6.955724

v -87.758545 26.779175 -6.933071

v -89.781921 25.755608 -6.947397

v -91.171722 24.831696 -6.959517

v -92.719833 23.683266 -6.961382

v -94.423691 21.880463 -6.970329

v -84.792664 28.126896 -7.278488

v -85.306396 27.773193 -7.085342

v -99.150658 18.759174 -7.000590

v -100.644226 18.512726 -7.395538

v -85.601379 26.584179 -6.955948

v -84.210571 27.194843 -7.366974

v -84.139221 26.509216 -7.205078

v -88.583794 21.528610 -6.951187

v -84.878708 25.124092 -6.929730

v -99.333893 16.554718 -7.231979

v -83.615631 25.989487 -7.150429

v -98.153717 16.531010 -7.003765

v -92.727295 20.014717 -6.970406

v -81.806152 25.411316 -7.285553

v -95.584305 17.349869 -6.988811

v -98.134346 15.442490 -7.027770

v -98.851440 15.380280 -7.186493

v -81.857910 24.346252 -6.999184

v -90.564201 18.427521 -6.967949

v -98.821533 14.240622 -7.314026

v -80.431305 25.237030 -7.765823

v -82.610809 23.145771 -6.932210

v -95.488647 13.861946 -7.002333

v -80.637207 24.468399 -7.323425

v -87.780899 18.489899 -6.958109

v -97.623642 13.465694 -7.046503

v -83.675583 21.321503 -6.940588

v -84.692093 19.550049 -6.945599

v -90.598000 15.209213 -6.978336

v -98.344727 13.190063 -7.307190

v -80.196045 23.338264 -7.309097

v -80.690796 23.051706 -7.205311

v -80.900711 22.294979 -7.200428

v -91.918259 13.141830 -6.989502

v -97.801682 12.554840 -7.370316

v -80.411018 22.569107 -7.287239

v -81.111710 21.546074 -7.204403

v -82.673279 20.629333 -7.028000

v -80.604485 21.813980 -7.303467

v -85.149773 17.132935 -6.954732

v -95.347832 12.454571 -7.178737

v -96.055222 11.955795 -7.449286

v -80.797920 21.058838 -7.319981

v -81.728973 20.537338 -7.190720

v -83.683655 18.945053 -7.003311

v -93.941490 12.664176 -7.005917

v -81.458000 20.025238 -7.286053

v -81.929642 19.747337 -7.212566

v -94.393784 11.426620 -7.204201

v -95.367416 11.561798 -7.501251

v -81.651489 19.270050 -7.315208

v -82.118042 18.991592 -7.242416

v -82.339447 18.247421 -7.238384

v -83.718079 17.391800 -7.040085

v -88.121704 12.529724 -6.978291

v -81.844925 18.514923 -7.331711

v -82.505295 17.482536 -7.248455

v -84.950607 15.483276 -6.967084

v -92.727158 10.501732 -7.004851

v -82.038376 17.759827 -7.334793

v -82.231796 17.004730 -7.337872

v -82.726624 16.728773 -7.222763

v -82.966293 15.978674 -7.180649

v -90.278671 10.282715 -6.992931

v -92.942223 9.614159 -7.059750

v -93.430664 8.713959 -7.320740

v -82.425201 16.249710 -7.314373

v -85.430786 13.108643 -6.973806

v -82.618576 15.494659 -7.291885

v -83.126526 15.189865 -7.180470

v -84.101257 13.799835 -7.062805

v -86.645386 11.069336 -6.977861

v -91.129303 7.866150 -7.007127

v -82.538841 14.262924 -7.347698

v -83.005386 13.984482 -7.261478

v -84.379028 12.307800 -7.073135

v -91.891556 6.959900 -7.232735

v -92.772705 6.982117 -7.632751

v -82.732239 13.507843 -7.337337

v -83.198814 13.229385 -7.252831

v -83.405258 12.477459 -7.234798

v -82.925674 12.752777 -7.327271

v -84.999756 10.960327 -7.024281

v -83.119102 11.997650 -7.317421

v -83.594528 11.719227 -7.229706

v -85.865997 9.047852 -6.992607

v -90.974854 6.102264 -7.122406

v -92.130981 5.896736 -7.635986

v -83.312523 11.242615 -7.307858

v -83.793076 10.932655 -7.216179

v -84.678833 9.771408 -7.089233

v -83.711777 9.737988 -7.267315

v -86.511032 7.175171 -6.997732

v -89.950012 5.563570 -7.012805

v -91.271667 5.444336 -7.237946

v -83.232750 10.010880 -7.363659

v -84.123779 8.238110 -7.239521

v -91.521362 4.472473 -7.396118

v -83.426186 9.255814 -7.353313

v -83.892715 8.977356 -7.268814

v -85.172852 7.401581 -7.100616

v -86.631340 5.180481 -7.008060

v -90.092598 4.562151 -7.022415

v -90.813293 4.081833 -7.115028

v -83.619583 8.500763 -7.343235

v -83.813049 7.745636 -7.346310

v -84.279587 7.467163 -7.263424

v -84.762939 5.987812 -7.225765

v -91.297546 2.797455 -7.261627

v -84.006485 6.990479 -7.368229

v -84.473053 6.712051 -7.272675

v -85.711670 5.670227 -7.093369

v -87.425598 3.976074 -7.008092

v -90.249046 2.820847 -7.023680

v -84.199936 6.235397 -7.371311

v -90.935516 1.981155 -7.141319

v -91.451599 1.533905 -7.362396

v -84.393333 5.480301 -7.361298

v -84.863556 5.200928 -7.270531

v -91.712646 0.777802 -7.518799

v -84.586777 4.725220 -7.358635

v -85.053329 4.446785 -7.275761

v -85.252365 3.693909 -7.263336

v -85.517334 2.964294 -7.228439

v -86.959045 2.311584 -7.056953

v -90.403336 1.019571 -7.054138

v -91.010651 0.622841 -7.173943

v -84.780197 3.970139 -7.361698

v -87.880661 0.437103 -7.022654

v -91.186249 -0.253593 -7.241119

v -91.904480 -1.200104 -7.869690

v -84.973625 3.215027 -7.351875

v -85.667511 2.154869 -7.237213

v -90.238358 -0.220402 -7.037187

v -91.226379 -1.130707 -7.341125

v -85.167023 2.459930 -7.342289

v -85.563522 0.951691 -7.294060

v -85.840775 0.206783 -7.235153

v -90.252380 -1.439766 -7.092619

v -90.898926 -2.202362 -7.517273

v -85.087296 1.228256 -7.398113

v -88.311615 -2.154846 -7.028196

v -85.280670 0.473206 -7.374599

v -86.909973 -1.005127 -7.102829

v -88.959579 -2.966553 -7.128746

v -89.285065 -3.408936 -7.315552

v -85.182419 -0.740547 -7.421570

v -85.671997 -1.035528 -7.326469

v -89.777100 -3.738770 -7.734924

v -87.014160 -2.505432 -7.108612

v -87.829254 -3.495514 -7.072126

v -85.394295 -1.513565 -7.394497

v -85.860847 -1.791969 -7.298466

v -86.069199 -2.572514 -7.266106

v -85.587677 -2.268570 -7.358837

v -85.980347 -3.776007 -7.299282

v -86.262726 -4.538101 -7.266296

v -87.946228 -4.703979 -7.276367

v -88.109375 -5.595673 -7.646179

v -85.507874 -3.500229 -7.388058

v -86.767174 -5.481674 -7.335745

v -85.701309 -4.255341 -7.378235

v -87.304604 -5.834831 -7.512169

v -85.894753 -5.010445 -7.394207

f 1 2 3
f 4 3 2
f 2 5 4
f 6 4 5
f 7 6 5
f 8 9 10
f 1 10 9
f 9 11 1
f 2 1 11
f 11 12 2
f 5 2 12
f 5 13 7
f 7 13 14
f 8 15 16
f 9 8 17
f 11 9 17
f 12 11 18
f 12 19 5
f 13 5 19
f 20 14 21
f 22 23 16
f 8 16 23
f 23 24 8
f 17 8 24
f 11 17 25
f 25 18 11
f 19 12 18
f 19 26 13
f 14 13 26
f 26 21 14
f 22 27 28
f 22 29 23
f 29 30 23
f 24 23 30
f 17 24 25
f 26 19 31
f 26 32 21
f 32 33 21
f 34 21 33
f 34 33 35
f 35 36 34
f 37 22 28
f 29 22 37
f 29 38 30
f 38 39 30
f 24 30 39
f 25 24 39
f 32 26 31
f 32 35 33
f 35 40 36
f 41 29 37
f 38 29 41
f 41 42 38
f 39 38 42
f 25 39 43
f 43 44 25
f 44 18 25
f 45 19 18
f 31 19 45
f 31 46 32
f 46 47 32
f 35 32 47
f 40 35 47
f 42 41 48
f 48 49 42
f 39 42 49
f 43 39 49
f 47 50 40
f 51 40 50
f 49 48 52
f 52 53 49
f 53 54 49
f 54 55 49
f 43 49 55
f 43 56 44
f 57 46 45
f 31 45 46
f 47 46 58
f 58 50 47
f 50 59 51
f 60 51 59
f 55 61 43
f 56 43 61
f 18 44 62
f 58 63 50
f 59 50 63
f 59 64 60
f 61 55 54
f 61 65 56
f 56 66 44
f 62 44 66
f 57 58 46
f 63 67 59
f 64 59 67
f 64 68 60
f 69 61 54
f 65 61 69
f 66 56 65
f 62 70 18
f 45 18 70
f 67 71 64
f 64 71 68
f 69 72 65
f 66 65 72
f 66 73 62
f 70 62 73
f 63 58 57
f 57 74 63
f 71 75 68
f 72 76 66
f 73 66 76
f 57 45 70
f 67 63 74
f 77 68 75
f 78 72 69
f 74 79 67
f 71 67 79
f 75 71 79
f 76 72 78
f 78 80 76
f 73 76 80
f 73 81 70
f 75 82 77
f 80 78 83
f 80 84 73
f 81 73 84
f 81 85 70
f 57 70 85
f 85 86 57
f 86 74 57
f 83 84 80
f 87 74 86
f 87 88 74
f 79 74 88
f 88 89 79
f 75 79 89
f 89 90 75
f 82 75 90
f 91 84 83
f 91 92 84
f 81 84 92
f 92 93 81
f 85 81 93
f 93 94 85
f 90 95 82
f 96 82 95
f 92 91 97
f 94 98 85
f 86 85 98
f 97 99 92
f 93 92 99
f 94 93 99
f 87 100 88
f 89 88 100
f 89 101 90
f 95 90 101
f 102 99 97
f 99 103 94
f 103 104 94
f 98 94 104
f 86 98 105
f 100 101 89
f 101 106 95
f 99 102 107
f 107 108 99
f 103 99 108
f 104 109 98
f 109 105 98
f 87 86 105
f 100 87 110
f 106 101 111
f 104 103 108
f 108 112 104
f 109 104 112
f 105 113 87
f 110 87 113
f 110 114 100
f 101 100 114
f 108 115 112
f 109 112 115
f 115 116 109
f 105 109 117
f 114 110 118
f 114 119 101
f 111 101 119
f 119 120 111
f 121 115 108
f 116 117 109
f 113 118 110
f 115 121 122
f 122 123 115
f 116 115 123
f 123 124 116
f 113 105 117
f 119 125 120
f 124 126 116
f 117 116 126
f 126 127 117
f 118 128 114
f 119 114 128
f 128 125 119
f 129 124 123
f 126 124 129
f 127 130 117
f 130 131 117
f 113 117 131
f 113 132 118
f 128 118 133
f 126 129 134
f 134 127 126
f 133 118 132
f 125 128 135
f 136 127 134
f 136 137 127
f 130 127 137
f 131 130 137
f 137 138 131
f 131 139 113
f 132 113 139
f 137 136 140
f 133 141 128
f 135 128 141
f 141 142 135
f 143 137 140
f 143 144 137
f 138 137 144
f 144 145 138
f 138 139 131
f 139 146 132
f 133 132 146
f 146 141 133
f 144 143 147
f 147 148 144
f 145 144 148
f 145 149 138
f 139 138 149
f 148 149 145
f 149 150 139
f 146 139 150
f 150 151 146
f 142 141 152
f 153 149 148
f 153 154 149
f 150 149 154
f 141 146 155
f 155 156 141
f 152 141 156
f 154 153 157
f 157 158 154
f 154 159 150
f 151 150 159
f 151 155 146
f 156 160 152
f 158 161 154
f 159 154 161
f 161 162 159
f 155 151 163
f 160 156 164
f 161 158 165
f 162 166 159
f 151 159 166
f 166 163 151
f 163 167 155
f 156 155 167
f 156 168 164
f 169 161 165
f 162 161 169
f 169 170 162
f 166 162 170
f 167 171 156
f 168 156 171
f 170 172 166
f 163 166 172
f 172 173 163
f 173 174 163
f 167 163 174
f 171 175 168
f 172 170 176
f 174 177 167
f 171 167 177
f 177 175 171
f 176 178 172
f 173 172 178
f 178 179 173
f 174 173 179
f 177 174 179
f 177 180 175
f 179 178 181
f 181 182 179
f 177 179 182
f 182 183 177
f 180 177 183
f 182 181 184
f 185 186 187
f 188 187 186
f 186 189 188
f 190 188 189
f 191 192 185
f 186 185 192
f 189 193 190
f 194 190 193
f 193 195 194
f 196 194 195
f 196 195 197
f 198 199 200
f 191 200 199
f 192 191 199
f 199 201 192
f 186 192 201
f 189 186 201
f 201 6 189
f 193 189 6
f 195 202 197
f 203 197 202
f 202 204 203
f 203 204 205
f 206 207 208
f 208 209 206
f 209 210 206
f 210 211 206
f 212 206 211
f 211 213 212
f 214 212 213
f 214 213 215
f 216 217 198
f 217 3 198
f 199 198 3
f 201 199 218
f 193 219 195
f 220 205 204
f 204 221 220
f 220 221 222
f 211 223 213
f 215 213 223
f 224 215 223
f 223 225 224
f 217 224 225
f 225 3 217
f 199 3 218
f 218 6 201
f 6 219 193
f 219 226 195
f 202 195 226
f 204 202 226
f 227 222 221
f 209 208 228
f 228 229 209
f 210 209 229
f 223 10 225
f 10 1 225
f 1 3 225
f 218 3 4
f 4 6 218
f 7 219 6
f 7 226 219
f 226 230 204
f 230 221 204
f 227 221 231
f 232 227 231
f 231 233 232
f 229 234 210
f 211 210 234
f 234 15 211
f 223 211 15
f 15 8 223
f 10 223 8
f 14 226 7
f 14 20 226
f 230 226 20
f 221 230 235
f 231 221 235
f 233 231 236
f 236 237 233
f 238 233 237
f 238 237 239
f 240 241 228
f 229 228 241
f 241 242 229
f 242 234 229
f 235 243 231
f 236 231 243
f 236 244 237
f 239 237 244
f 241 240 245
f 241 27 242
f 242 27 22
f 22 234 242
f 234 22 16
f 234 16 15
f 34 230 21
f 230 20 21
f 34 36 230
f 235 230 36
f 36 243 235
f 236 246 244
f 239 244 246
f 246 247 239
f 248 239 247
f 247 249 248
f 248 249 250
f 245 251 241
f 241 251 27
f 36 252 243
f 236 243 253
f 246 236 253
f 249 254 250
f 28 27 251
f 252 255 243
f 253 243 255
f 246 256 247
f 249 247 256
f 254 249 256
f 28 251 257
f 28 257 37
f 36 40 252
f 255 252 40
f 255 258 253
f 246 253 258
f 256 246 258
f 256 259 254
f 254 259 260
f 37 257 41
f 51 255 40
f 261 255 51
f 258 255 261
f 41 257 262
f 41 262 48
f 51 60 261
f 263 261 60
f 258 261 263
f 258 264 256
f 264 265 256
f 259 256 265
f 259 266 260
f 52 48 262
f 263 264 258
f 266 259 265
f 262 267 52
f 267 54 53
f 53 52 267
f 265 268 266
f 263 60 68
f 264 263 68
f 265 264 269
f 268 265 269
f 54 267 69
f 269 264 68
f 269 270 268
f 268 270 271
f 68 77 269
f 77 270 269
f 270 272 271
f 267 273 69
f 270 274 272
f 272 274 275
f 270 77 276
f 274 277 275
f 273 278 69
f 278 78 69
f 276 77 82
f 276 274 270
f 278 83 78
f 82 279 276
f 274 276 279
f 279 280 274
f 83 278 281
f 82 96 279
f 282 279 96
f 280 279 282
f 83 281 283
f 83 283 91
f 95 284 282
f 282 96 95
f 283 97 91
f 284 285 282
f 286 285 284
f 97 283 287
f 97 287 102
f 284 95 106
f 106 288 284
f 286 284 288
f 287 107 102
f 106 111 289
f 288 289 290
f 289 288 106
f 287 291 107
f 108 107 291
f 289 292 290
f 289 111 120
f 292 289 120
f 108 291 293
f 108 293 121
f 120 294 292
f 293 122 121
f 125 295 120
f 294 120 295
f 123 122 293
f 295 296 294
f 123 293 297
f 123 297 129
f 297 134 129
f 125 135 298
f 295 298 299
f 298 295 125
f 134 297 300
f 134 300 136
f 300 140 136
f 298 135 142
f 299 298 142
f 140 300 301
f 140 301 143
f 142 302 299
f 301 147 143
f 148 147 301
f 142 152 302
f 301 303 148
f 153 148 303
f 152 304 302
f 304 305 302
f 157 153 303
f 304 152 160
f 303 158 157
f 164 306 304
f 304 160 164
f 305 304 306
f 306 307 305
f 308 165 158
f 158 303 308
f 168 306 164
f 165 308 169
f 308 309 169
f 168 310 306
f 311 306 310
f 311 307 306
f 309 170 169
f 310 168 175
f 310 312 311
f 313 176 170
f 170 309 313
f 310 175 180
f 180 314 310
f 312 310 314
f 313 178 176
f 313 315 178
f 314 180 316
f 178 315 181
f 181 315 317
f 180 183 318
f 316 180 318
f 316 319 314
f 317 184 181
f 184 317 182
f 183 182 320
f 182 317 320
f 320 321 318
f 318 183 320
f 316 318 321
f 321 322 316
f 319 316 322
f 323 321 320
f 322 321 323
f 319 322 324
f 322 323 325
f 324 322 326
f 327 322 325
f 326 322 327
f 187 188 328
f 329 328 188
f 188 330 329
f 330 188 190
f 190 331 330
f 194 331 190
f 331 194 332
f 185 333 334
f 328 333 187
f 333 185 187
f 332 194 196
f 197 335 196
f 335 332 196
f 335 197 203
f 203 336 335
f 336 203 337
f 200 334 338
f 334 200 191
f 334 191 185
f 337 220 339
f 339 220 340
f 341 342 207
f 341 207 206
f 206 343 341
f 206 344 343
f 344 206 212
f 212 214 345
f 345 344 212
f 346 345 214
f 345 346 347
f 216 348 347
f 348 216 338
f 198 338 216
f 338 198 200
f 203 205 337
f 337 205 220
f 340 220 222
f 222 349 340
f 342 350 207
f 214 215 346
f 346 215 224
f 224 347 346
f 224 216 347
f 216 224 217
f 227 349 222
f 232 349 227
f 351 352 349
f 208 207 350
f 233 349 232
f 349 238 351
f 238 239 351
f 351 239 353
f 354 208 350
f 354 228 208
f 233 238 349
f 239 355 353
f 353 355 356
f 354 357 240
f 354 240 228
f 355 239 248
f 355 358 356
f 245 240 357
f 248 250 355
f 358 355 250
f 357 359 245
f 358 250 254
f 245 359 251
f 254 360 358
f 359 361 257
f 257 251 359
f 254 260 360
f 362 257 361
f 260 363 360
f 257 362 262
f 363 260 266
f 364 262 362
f 364 365 262
f 262 365 267
f 363 266 268
f 268 366 363
f 366 268 271
f 367 267 365
f 366 271 272
f 272 368 366
f 267 367 273
f 368 272 275
f 275 369 368
f 370 273 367
f 369 275 371
f 275 277 371
f 273 370 278
f 277 274 372
f 371 277 372
f 274 280 373
f 373 374 372
f 372 274 373
f 278 370 281
f 280 375 373
f 374 373 375
f 376 281 370
f 282 377 280
f 375 280 377
f 377 378 375
f 376 379 281
f 379 283 281
f 377 282 285
f 378 377 285
f 286 380 285
f 380 381 285
f 378 285 381
f 283 379 287
f 380 286 288
f 380 382 381
f 290 383 288
f 380 288 383
f 383 384 380
f 382 380 384
f 379 385 287
f 385 291 287
f 383 290 292
f 292 386 383
f 384 383 386
f 386 387 384
f 293 291 385
f 386 292 294
f 294 388 386
f 387 386 388
f 388 294 296
f 385 389 293
f 389 297 293
f 299 390 296
f 296 295 299
f 390 391 296
f 300 297 389
f 389 392 300
f 301 300 392
f 390 299 302
f 302 393 390
f 391 390 393
f 392 394 301
f 393 395 391
f 393 302 305
f 303 301 394
f 305 396 393
f 395 393 396
f 394 397 303
f 305 398 396
f 398 399 396
f 308 303 397
f 398 305 307
f 398 400 399
f 401 308 397
f 401 309 308
f 311 312 307
f 307 402 398
f 400 398 402
f 401 403 309
f 312 402 307
f 313 309 403
f 315 313 403
f 314 404 312
f 404 402 312
f 317 403 405
f 403 317 315
f 404 314 319
f 319 406 404
f 320 317 405
f 323 320 405
f 405 407 323
f 319 324 406
f 408 406 324
f 325 323 407
f 325 407 409
f 324 326 410
f 410 411 408
f 408 324 410
f 409 327 325
f 412 326 327
f 412 327 409
f 412 409 410
f 412 410 326
f 411 410 413
f 414 330 331
f 331 415 414
f 416 415 331
f 329 417 328
f 329 330 417
f 330 414 417
f 331 332 416
f 332 335 416
f 336 418 335
f 418 416 335
f 418 336 419
f 420 421 422
f 423 422 421
f 421 424 423
f 425 423 424
f 424 426 425
f 425 426 427
f 333 428 334
f 428 333 328
f 328 429 428
f 429 328 417
f 337 419 336
f 419 337 339
f 339 420 419
f 421 420 339
f 339 340 421
f 424 421 340
f 426 424 340
f 427 426 430
f 427 430 431
f 432 341 343
f 343 433 432
f 433 343 344
f 344 434 433
f 345 435 344
f 435 434 344
f 348 436 437
f 338 438 436
f 436 348 338
f 438 338 334
f 438 334 428
f 340 352 426
f 430 426 352
f 352 439 430
f 431 430 439
f 439 440 431
f 431 440 441
f 342 341 432
f 432 442 342
f 435 345 347
f 347 437 435
f 437 347 348
f 352 340 349
f 440 443 441
f 441 443 444
f 350 342 442
f 442 445 350
f 446 439 351
f 439 352 351
f 440 439 446
f 443 440 446
f 445 447 350
f 351 353 446
f 446 448 443
f 444 443 448
f 448 449 444
f 350 447 450
f 450 354 350
f 451 448 353
f 448 446 353
f 449 448 451
f 452 353 356
f 452 356 453
f 452 453 451
f 452 451 353
f 357 354 450
f 450 454 357
f 455 453 356
f 356 358 455
f 456 357 454
f 455 358 457
f 359 357 456
f 456 458 359
f 458 459 359
f 457 358 360
f 360 460 457
f 361 359 459
f 459 461 361
f 361 461 362
f 460 360 363
f 362 461 462
f 364 362 462
f 460 363 463
f 464 364 462
f 364 464 365
f 463 363 366
f 465 365 464
f 366 466 463
f 466 366 368
f 365 465 367
f 466 368 467
f 369 467 368
f 369 372 467
f 371 372 369
f 367 465 468
f 468 370 367
f 374 469 467
f 374 467 372
f 374 470 469
f 468 376 370
f 374 375 470
f 471 472 470
f 471 470 375
f 375 378 471
f 471 381 472
f 381 471 378
f 379 376 473
f 472 474 475
f 474 472 381
f 381 382 474
f 476 475 474
f 474 384 476
f 384 474 382
f 379 473 385
f 473 477 385
f 478 476 384
f 384 387 478
f 388 478 387
f 479 478 388
f 480 385 477
f 388 296 479
f 385 480 389
f 481 479 296
f 296 391 481
f 480 482 389
f 482 392 389
f 391 483 481
f 482 484 392
f 394 392 484
f 483 391 395
f 395 485 483
f 484 486 394
f 485 395 396
f 397 394 486
f 396 487 485
f 487 396 488
f 396 399 488
f 486 489 397
f 399 490 488
f 399 400 490
f 401 397 489
f 400 402 490
f 403 401 489
f 489 491 403
f 402 492 490
f 492 402 493
f 491 494 403
f 493 402 404
f 405 403 494
f 493 404 406
f 494 495 405
f 407 405 495
f 493 406 408
f 408 496 493
f 409 407 495
f 411 496 408
f 495 497 409
f 410 409 497
f 411 413 498
f 498 499 496
f 496 411 498
f 413 410 497
f 497 500 413
f 500 501 498
f 498 413 500
f 499 498 501
f 414 415 502
f 415 503 502
f 503 415 416
f 416 504 503
f 422 505 506
f 505 422 423
f 423 507 505
f 507 423 425
f 425 508 507
f 502 417 414
f 504 416 418
f 418 509 504
f 509 418 419
f 419 506 509
f 506 419 420
f 506 420 422
f 508 425 427
f 427 510 508
f 511 429 417
f 417 502 511
f 510 427 431
f 431 512 510
f 513 512 431
f 432 433 514
f 514 433 434
f 434 515 514
f 515 434 435
f 435 516 515
f 516 435 437
f 437 517 516
f 517 437 436
f 436 518 517
f 518 436 438
f 438 519 518
f 520 519 438
f 520 438 428
f 428 429 520
f 431 441 513
f 521 513 441
f 522 442 432
f 432 514 522
f 441 444 521
f 444 523 521
f 522 445 442
f 444 449 523
f 447 445 522
f 522 524 447
f 449 525 523
f 450 447 524
f 524 526 450
f 527 525 451
f 449 451 525
f 527 528 529
f 528 527 451
f 451 453 528
f 530 454 450
f 450 526 530
f 531 529 528
f 528 455 531
f 453 455 528
f 530 456 454
f 531 455 457
f 458 456 530
f 530 532 458
f 459 458 532
f 531 457 460
f 460 533 531
f 461 459 532
f 532 534 461
f 461 534 535
f 461 535 462
f 536 533 460
f 462 535 537
f 536 460 463
f 463 538 536
f 462 537 464
f 539 464 537
f 537 540 539
f 463 541 538
f 541 463 466
f 542 464 539
f 542 465 464
f 541 466 467
f 467 543 541
f 544 465 542
f 544 545 465
f 545 546 465
f 543 467 469
f 469 547 543
f 546 548 465
f 468 465 548
f 549 550 551
f 550 547 551
f 469 551 547
f 469 470 551
f 468 548 552
f 552 553 468
f 553 376 468
f 554 555 556
f 555 554 549
f 549 557 555
f 557 549 551
f 553 558 376
f 555 559 556
f 559 555 557
f 472 557 551
f 551 470 472
f 560 376 558
f 558 561 560
f 561 562 560
f 563 559 557
f 563 557 472
f 562 473 560
f 376 560 473
f 472 475 563
f 562 564 473
f 563 475 476
f 565 473 564
f 564 566 565
f 476 567 563
f 566 568 565
f 473 565 477
f 567 476 478
f 478 569 567
f 568 570 565
f 570 571 565
f 571 477 565
f 478 479 569
f 477 571 480
f 572 480 571
f 569 479 481
f 481 573 569
f 574 480 572
f 575 576 574
f 576 480 574
f 480 576 482
f 575 577 576
f 573 481 578
f 483 578 481
f 577 579 576
f 579 484 576
f 482 576 484
f 579 580 484
f 580 581 484
f 582 578 483
f 485 582 483
f 581 486 484
f 581 583 486
f 582 485 487
f 487 584 582
f 583 585 486
f 586 584 487
f 487 488 586
f 585 587 486
f 587 489 486
f 586 488 490
f 586 490 588
f 587 589 489
f 589 590 489
f 590 491 489
f 588 490 492
f 492 591 588
f 491 590 592
f 592 593 491
f 593 494 491
f 591 492 493
f 593 594 494
f 591 493 595
f 594 596 494
f 596 495 494
f 495 596 597
f 595 493 496
f 496 598 595
f 597 599 495
f 598 496 600
f 600 601 598
f 599 602 495
f 602 497 495
f 600 496 499
f 603 497 602
f 602 604 603
f 499 501 605
f 605 606 600
f 600 499 605
f 601 600 606
f 604 607 603
f 607 608 603
f 497 603 608
f 500 497 608
f 608 609 500
f 501 500 609
f 605 501 609
f 605 610 606
f 611 608 607
f 609 608 611
f 611 612 609
f 605 609 612
f 610 605 612
f 612 613 610
f 612 611 614
f 614 615 612
f 616 502 503
f 616 617 502
f 503 618 616
f 619 618 503
f 503 504 620
f 620 619 503
f 621 506 505
f 621 505 507
f 507 622 621
f 622 507 508
f 508 623 622
f 502 617 624
f 625 620 504
f 625 504 509
f 509 626 625
f 626 509 506
f 621 626 506
f 508 627 623
f 508 628 627
f 508 510 628
f 624 511 502
f 629 628 510
f 510 512 629
f 630 514 515
f 515 631 630
f 515 632 631
f 632 515 516
f 517 518 633
f 633 518 519
f 519 634 633
f 635 429 511
f 511 624 635
f 629 512 636
f 636 637 629
f 636 512 513
f 522 514 630
f 516 638 632
f 638 516 517
f 517 639 638
f 517 633 639
f 519 640 634
f 640 519 520
f 520 641 640
f 641 520 429
f 635 641 429
f 637 636 642
f 642 636 513
f 521 523 513
f 630 643 522
f 513 525 642
f 525 513 523
f 524 522 643
f 524 643 644
f 645 646 637
f 642 645 637
f 645 642 525
f 526 524 644
f 644 647 526
f 645 648 646
f 645 527 648
f 525 527 645
f 526 647 649
f 650 649 647
f 648 651 646
f 527 529 648
f 526 652 530
f 652 526 649
f 650 653 649
f 654 653 650
f 651 648 655
f 648 529 531
f 531 655 648
f 652 649 653
f 532 530 652
f 652 656 532
f 653 657 652
f 657 653 654
f 651 655 658
f 531 658 655
f 652 659 656
f 659 652 657
f 531 533 658
f 534 532 656
f 534 656 659
f 658 533 660
f 661 534 659
f 535 534 661
f 661 662 535
f 660 533 663
f 536 663 533
f 664 535 662
f 664 662 665
f 664 665 537
f 664 537 535
f 536 538 663
f 665 666 537
f 663 538 667
f 666 540 537
f 667 538 541
f 540 666 668
f 668 669 540
f 540 669 539
f 541 670 667
f 539 669 671
f 671 672 539
f 539 672 542
f 672 671 673
f 673 674 672
f 542 672 674
f 670 541 543
f 543 675 670
f 542 674 676
f 676 677 542
f 677 544 542
f 544 677 678
f 678 679 544
f 679 545 544
f 549 680 681
f 550 549 681
f 681 675 550
f 543 550 675
f 543 547 550
f 545 679 682
f 682 683 545
f 546 545 683
f 683 684 546
f 546 684 548
f 685 686 554
f 686 680 554
f 549 554 680
f 684 683 687
f 687 688 684
f 548 684 688
f 685 554 556
f 548 688 689
f 689 690 548
f 552 548 690
f 690 691 552
f 553 552 691
f 691 692 553
f 553 692 558
f 556 693 685
f 691 690 694
f 694 695 691
f 692 691 695
f 695 561 692
f 558 692 561
f 696 697 693
f 693 556 696
f 559 696 556
f 561 695 698
f 698 699 561
f 699 700 561
f 561 700 562
f 697 701 702
f 697 696 701
f 696 559 563
f 563 701 696
f 700 699 703
f 703 704 700
f 562 700 704
f 562 704 705
f 705 706 562
f 706 707 562
f 562 707 564
f 707 706 708
f 708 709 707
f 564 707 709
f 709 566 564
f 702 701 710
f 710 711 702
f 710 701 563
f 563 567 710
f 566 709 712
f 566 712 713
f 713 714 566
f 568 566 714
f 567 569 710
f 568 714 715
f 715 716 568
f 716 570 568
f 710 717 711
f 710 718 717
f 569 718 710
f 570 716 719
f 719 720 570
f 720 571 570
f 571 720 721
f 721 722 571
f 722 723 571
f 571 723 572
f 724 717 718
f 718 569 573
f 723 722 725
f 725 726 723
f 572 723 726
f 726 574 572
f 718 727 724
f 573 727 718
f 726 575 574
f 575 726 728
f 728 729 575
f 729 577 575
f 727 730 731
f 727 573 730
f 578 730 573
f 577 729 732
f 732 733 577
f 733 579 577
f 730 734 731
f 730 578 734
f 579 733 735
f 735 736 579
f 736 737 579
f 579 737 580
f 578 738 734
f 737 736 739
f 739 740 737
f 580 737 740
f 578 741 738
f 578 582 741
f 580 740 742
f 742 743 580
f 581 580 743
f 744 741 582
f 581 743 745
f 745 746 581
f 746 747 581
f 581 747 583
f 582 748 744
f 582 584 748
f 747 746 749
f 749 750 747
f 583 747 750
f 748 584 751
f 584 586 751
f 583 750 752
f 752 753 583
f 585 583 753
f 586 588 751
f 754 751 588
f 585 753 755
f 755 756 585
f 587 585 756
f 756 757 587
f 587 757 589
f 757 756 758
f 758 759 757
f 589 757 759
f 759 760 589
f 589 760 590
f 754 588 591
f 591 761 754
f 760 759 762
f 762 763 760
f 590 760 763
f 763 592 590
f 592 763 764
f 764 765 592
f 592 765 593
f 765 764 766
f 766 767 765
f 593 765 767
f 761 591 595
f 595 768 761
f 593 767 769
f 769 770 593
f 594 593 770
f 768 595 771
f 770 772 594
f 596 594 772
f 772 597 596
f 771 595 598
f 598 773 771
f 772 770 774
f 774 775 772
f 597 772 775
f 775 599 597
f 773 598 601
f 599 775 776
f 776 777 599
f 777 778 599
f 599 778 602
f 601 779 773
f 778 777 780
f 780 781 778
f 602 778 781
f 781 604 602
f 779 601 606
f 781 782 604
f 604 782 607
f 606 610 783
f 783 779 606
f 782 781 784
f 784 785 782
f 607 782 785
f 783 610 613
f 613 786 783
f 607 785 787
f 787 788 607
f 607 788 789
f 789 611 607
f 611 789 614
f 612 615 790
f 613 612 790
f 790 791 613
f 786 613 791
f 789 788 792
f 789 792 793
f 793 614 789
f 615 614 793
f 793 794 790
f 790 615 793
f 791 790 794
f 616 795 617
f 795 616 618
f 619 795 618
f 624 617 795
f 619 796 795
f 796 619 620
f 625 796 620
f 621 797 626
f 621 622 797
f 798 622 623
f 627 798 623
f 799 624 795
f 795 800 799
f 800 795 796
f 800 796 625
f 625 801 800
f 801 625 626
f 801 626 797
f 797 802 801
f 802 797 622
f 622 803 802
f 803 622 798
f 798 804 803
f 804 798 627
f 627 805 804
f 805 627 628
f 628 629 805
f 624 806 635
f 806 624 799
f 800 807 799
f 807 800 801
f 801 808 807
f 808 801 802
f 629 637 805
f 809 630 631
f 810 631 632
f 638 810 632
f 633 640 639
f 640 633 634
f 635 806 641
f 811 806 799
f 799 807 811
f 807 812 813
f 812 807 808
f 808 814 812
f 814 808 802
f 814 802 803
f 803 815 814
f 815 803 804
f 804 816 815
f 816 804 805
f 816 805 637
f 630 809 643
f 631 817 809
f 817 631 810
f 810 818 817
f 818 810 638
f 638 819 818
f 819 638 639
f 819 639 640
f 640 820 819
f 640 821 820
f 821 640 641
f 641 822 821
f 822 641 806
f 806 811 822
f 823 811 807
f 807 813 823
f 824 816 637
f 643 809 644
f 809 825 644
f 809 826 825
f 826 809 817
f 817 827 826
f 827 817 818
f 818 828 827
f 818 829 828
f 829 818 819
f 829 819 820
f 821 830 820
f 830 821 822
f 822 831 830
f 822 811 831
f 832 815 816
f 816 824 832
f 646 824 637
f 647 644 825
f 828 833 827
f 833 828 829
f 829 834 833
f 829 835 834
f 835 829 820
f 835 820 830
f 830 836 835
f 830 831 836
f 811 837 831
f 837 811 823
f 813 838 823
f 838 813 812
f 815 832 814
f 647 825 650
f 650 826 839
f 650 825 826
f 839 826 827
f 827 840 839
f 840 827 833
f 831 837 836
f 812 841 838
f 814 841 812
f 841 814 832
f 842 832 824
f 824 651 842
f 824 646 651
f 839 654 650
f 833 843 840
f 838 837 823
f 839 844 654
f 844 839 840
f 840 845 844
f 845 840 843
f 843 833 834
f 846 835 836
f 846 836 837
f 844 657 654
f 847 843 834
f 834 835 846
f 838 846 837
f 832 848 841
f 848 832 842
f 848 842 651
f 651 658 848
f 657 844 845
f 849 845 843
f 843 847 849
f 850 841 848
f 849 657 845
f 838 851 846
f 841 850 838
f 658 660 848
f 657 852 659
f 852 657 849
f 838 850 853
f 848 854 850
f 848 855 854
f 855 848 660
f 662 661 659
f 659 852 662
f 849 856 852
f 856 849 847
f 834 846 847
f 851 857 846
f 851 853 857
f 851 838 853
f 660 858 855
f 660 663 858
f 662 859 665
f 859 662 852
f 860 856 847
f 861 853 850
f 666 665 859
f 852 862 859
f 852 856 862
f 846 857 863
f 861 850 854
f 855 864 854
f 864 855 858
f 663 667 858
f 859 862 666
f 865 860 847
f 865 847 846
f 846 863 866
f 857 853 867
f 854 864 861
f 667 868 858
f 668 666 862
f 862 669 668
f 862 869 669
f 869 862 856
f 856 870 869
f 866 865 846
f 857 867 863
f 858 868 864
f 667 670 868
f 671 669 869
f 870 856 860
f 860 871 870
f 853 861 872
f 868 873 864
f 873 868 670
f 673 671 869
f 869 674 673
f 674 869 870
f 870 874 674
f 870 871 874
f 860 875 871
f 860 876 875
f 876 860 865
f 853 872 867
f 676 674 874
f 874 677 676
f 677 874 871
f 871 877 677
f 871 875 877
f 865 866 876
f 863 878 866
f 879 861 864
f 864 880 879
f 880 864 873
f 873 686 880
f 686 873 670
f 670 681 686
f 681 670 675
f 678 677 877
f 877 679 678
f 679 877 875
f 875 881 679
f 875 882 881
f 882 875 876
f 883 876 866
f 861 884 872
f 884 861 879
f 680 686 681
f 682 679 881
f 682 881 882
f 882 683 682
f 882 885 683
f 885 882 876
f 876 886 885
f 886 876 883
f 866 878 883
f 887 884 879
f 880 888 879
f 880 685 888
f 686 685 880
f 687 683 885
f 885 688 687
f 688 885 886
f 886 889 688
f 886 890 889
f 890 886 883
f 883 891 890
f 883 892 891
f 883 878 892
f 867 878 863
f 867 872 893
f 887 879 888
f 689 688 889
f 889 690 689
f 690 889 890
f 890 894 690
f 894 890 891
f 895 891 892
f 896 878 867
f 897 872 884
f 897 884 887
f 888 697 887
f 888 685 693
f 693 697 888
f 694 690 894
f 894 695 694
f 695 894 891
f 891 898 695
f 898 891 895
f 878 896 892
f 872 897 893
f 698 695 898
f 898 699 698
f 699 898 895
f 895 899 699
f 899 895 892
f 892 900 899
f 892 901 900
f 901 892 896
f 897 902 893
f 887 903 897
f 887 904 903
f 904 887 697
f 702 904 697
f 703 699 899
f 899 704 703
f 704 899 900
f 900 905 704
f 900 901 905
f 906 896 867
f 867 893 906
f 705 704 905
f 905 706 705
f 706 905 901
f 901 907 706
f 901 908 907
f 908 901 896
f 896 909 908
f 909 896 906
f 708 706 907
f 907 709 708
f 709 907 908
f 893 902 910
f 911 902 897
f 897 903 911
f 702 711 904
f 712 709 908
f 908 912 712
f 908 913 912
f 908 909 913
f 914 909 906
f 893 910 906
f 910 902 911
f 903 915 911
f 915 903 904
f 916 904 711
f 713 712 912
f 912 714 713
f 714 912 913
f 913 917 714
f 917 913 909
f 909 918 917
f 909 919 918
f 919 909 914
f 915 904 916
f 715 714 917
f 917 716 715
f 716 917 918
f 918 920 716
f 920 918 919
f 906 921 914
f 921 906 910
f 711 717 916
f 719 716 920
f 920 720 719
f 720 920 919
f 919 922 720
f 919 923 922
f 923 919 914
f 914 921 923
f 910 924 921
f 915 925 911
f 916 926 915
f 717 926 916
f 721 720 922
f 922 722 721
f 722 922 923
f 923 927 722
f 923 928 927
f 928 923 921
f 921 924 929
f 926 717 724
f 725 722 927
f 927 726 725
f 726 927 928
f 921 930 928
f 921 929 930
f 931 924 910
f 932 911 925
f 915 933 925
f 933 915 926
f 928 934 726
f 934 928 930
f 935 929 924
f 910 911 931
f 926 936 933
f 727 936 926
f 926 724 727
f 728 726 934
f 934 729 728
f 729 934 930
f 930 937 729
f 937 930 929
f 929 938 937
f 938 929 935
f 924 939 935
f 924 931 939
f 911 940 931
f 925 941 932
f 941 925 933
f 933 942 941
f 942 933 936
f 731 936 727
f 732 729 937
f 937 733 732
f 733 937 938
f 938 943 733
f 943 938 935
f 940 911 932
f 932 941 940
f 735 733 943
f 943 736 735
f 736 943 935
f 935 944 736
f 935 945 944
f 945 935 939
f 931 946 939
f 936 947 942
f 947 936 731
f 947 731 734
f 734 738 947
f 739 736 944
f 944 740 739
f 740 944 945
f 945 948 740
f 948 945 939
f 939 949 948
f 939 946 949
f 931 950 946
f 950 931 940
f 951 940 941
f 942 952 941
f 952 942 947
f 741 947 738
f 742 740 948
f 948 743 742
f 743 948 949
f 949 953 743
f 953 949 946
f 941 952 951
f 947 954 952
f 947 955 954
f 955 947 741
f 741 744 955
f 745 743 953
f 953 746 745
f 746 953 946
f 946 956 746
f 956 946 950
f 950 957 956
f 957 950 940
f 744 958 955
f 748 958 744
f 749 746 956
f 956 750 749
f 750 956 957
f 957 959 750
f 957 960 959
f 960 957 940
f 940 961 960
f 940 962 961
f 962 940 951
f 951 963 962
f 954 964 952
f 964 954 955
f 955 965 964
f 965 955 958
f 752 750 959
f 959 753 752
f 753 959 960
f 960 966 753
f 966 960 961
f 951 967 963
f 967 951 952
f 958 968 965
f 968 958 748
f 968 748 751
f 751 969 968
f 754 969 751
f 755 753 966
f 966 756 755
f 756 966 961
f 961 970 756
f 970 961 962
f 971 962 963
f 967 952 964
f 964 972 967
f 972 964 965
f 972 965 968
f 973 968 969
f 758 756 970
f 970 759 758
f 759 970 962
f 962 974 759
f 974 962 971
f 754 761 969
f 762 759 974
f 974 763 762
f 763 974 971
f 975 971 963
f 963 976 975
f 976 963 967
f 977 972 968
f 977 968 973
f 969 978 973
f 978 969 761
f 764 763 971
f 971 979 764
f 979 971 975
f 972 980 967
f 980 972 977
f 973 978 977
f 766 764 979
f 979 767 766
f 767 979 975
f 975 981 767
f 975 976 981
f 967 982 976
f 967 980 982
f 977 983 980
f 977 984 983
f 984 977 978
f 771 978 761
f 761 768 771
f 769 767 981
f 981 770 769
f 770 981 976
f 976 985 770
f 976 986 985
f 976 982 986
f 978 987 984
f 987 978 771
f 988 982 980
f 980 989 988
f 989 980 983
f 771 773 987
f 774 770 985
f 985 775 774
f 775 985 986
f 986 990 775
f 990 986 982
f 982 991 990
f 982 992 991
f 992 982 988
f 776 775 990
f 990 777 776
f 777 990 991
f 991 993 777
f 993 991 992
f 987 779 984
f 779 987 773
f 780 777 993
f 993 781 780
f 781 993 992
f 988 994 992
f 988 995 994
f 995 988 989
f 983 996 989
f 996 983 984
f 984 997 996
f 997 984 779
f 992 998 781
f 998 992 994
f 989 999 995
f 999 989 996
f 779 783 997
f 784 781 998
f 998 785 784
f 785 998 994
f 994 1000 785
f 1000 994 995
f 996 1001 999
f 1001 996 997
f 783 786 997
f 787 785 1000
f 1000 788 787
f 788 1000 995
f 995 1002 788
f 1002 995 999
f 997 791 1001
f 791 997 786
f 792 788 1002
f 792 1002 999
f 999 793 792
f 793 999 1001
f 1001 794 793
f 794 1001 791
