v 198.592560 46.901764 -87.653656

v 194.782547 43.834900 -88.588249

v 192.728622 44.190193 -87.643890

v 192.453964 40.463383 -88.582016

v 204.203506 48.200317 -87.562904

v 203.148438 46.258179 -88.559479

v 210.778381 49.700546 -87.614609

v 198.820908 24.270889 -88.633873

v 216.005875 49.756287 -87.889374

v 214.307861 48.755524 -88.509087

v 190.384827 34.186142 -88.403915

v 190.995987 39.370464 -87.692619

v 190.881317 27.505722 -88.453705

v 189.137527 30.993000 -87.666855

v 220.131561 50.275574 -86.597443

v 230.890167 43.121391 -88.454353

v 195.329391 24.971195 -87.786331

v 208.576416 18.890137 -88.627571

v 202.025238 21.005123 -87.902451

v 235.414764 27.769562 -88.497108

v 236.651337 41.065170 -86.588226

v 237.032410 33.013458 -88.467735

v 226.623108 17.646629 -88.560089

v 205.042099 18.545670 -86.811966

v 239.734253 30.841759 -86.747833

v 217.854828 13.760406 -88.533691

v 217.268280 10.981323 -86.875183

v 235.130371 22.874985 -86.752533

v 227.580566 14.863739 -86.777527

v 198.858124 47.543701 -85.631439

v 193.423492 45.992180 -84.581070

v 203.892944 49.074585 -85.214447

v 207.645187 49.725563 -85.138016

v 213.374939 50.841064 -85.419037

v 188.919220 35.946854 -84.648376

v 188.410278 31.083023 -84.664551

v 223.387482 53.189392 -84.733208

v 233.947327 49.584900 -86.345856

v 229.857346 46.405396 -86.689590

v 195.047714 24.252586 -85.682648

v 239.503998 46.678467 -86.455879

v 235.833282 51.522705 -84.723572

v 199.967789 21.590179 -85.831421

v 243.051758 42.376038 -86.441940

v 244.034973 32.470398 -86.401398

v 245.164917 38.424164 -85.894165

v 211.824890 11.238708 -85.944153

v 239.907043 24.781914 -86.420593

v 243.296875 25.302063 -84.690430

v 233.784485 14.538757 -86.557953

v 239.739258 17.923340 -84.439453

v 222.989655 9.362976 -86.496277

v 222.979156 7.008667 -85.014343

v 233.196320 11.148804 -84.867310

v 204.026306 55.989868 -82.432495

v 204.899780 52.256897 -84.533005

v 197.952820 49.383728 -84.296143

v 210.914505 51.690918 -84.727585

v 214.686478 57.797211 -84.567879

v 229.121094 55.891693 -84.472748

v 231.283875 57.841492 -82.803314

v 190.127502 24.777100 -82.242828

v 192.782013 22.555298 -84.029129

v 240.889709 50.828705 -82.872253

v 196.039505 19.609488 -83.760445

v 199.776764 17.948647 -83.829773

v 247.105347 39.835091 -83.132202

v 203.972198 15.661819 -83.980057

v 206.487442 13.509079 -83.894653

v 210.538055 10.106537 -84.011322

v 214.332138 6.928417 -84.178925

v 247.073242 27.669556 -83.151245

v 222.935364 4.060730 -84.372345

v 242.258270 14.745361 -81.132690

v 238.231934 12.218994 -82.625000

v 230.505249 7.111938 -84.259521

v 223.266846 63.514709 -82.200378

v 211.326416 59.789795 -82.467529

v 217.793213 63.860718 -81.045532

v 195.008774 49.781326 -81.259331

v 219.537827 60.109924 -82.890167

v 191.759766 45.031128 -81.724304

v 188.915955 39.230289 -81.826294

v 233.250427 61.548065 -82.470291

v 186.957153 33.234009 -80.065063

v 239.969757 57.414368 -82.377869

v 187.037537 28.074219 -78.672180

v 242.457764 53.781006 -82.211060

v 192.242859 22.329025 -81.599518

v 249.908203 40.270996 -82.227295

v 202.437378 15.813589 -78.144577

v 208.423187 9.957977 -80.637329

v 250.004395 31.988037 -82.054199

v 213.611740 5.543839 -81.910309

v 248.708496 24.062256 -81.980225

v 222.222900 0.489746 -81.362305

v 235.124573 6.140259 -82.167114

v 230.062180 2.811401 -82.120972

v 199.220093 58.371155 -79.402252

v 211.248291 64.415283 -80.132935

v 223.626953 65.832397 -79.367432

v 191.927704 48.868439 -79.451385

v 187.793579 41.314270 -79.544281

v 232.763397 64.262573 -79.323853

v 240.703125 60.547485 -79.328857

v 194.589432 22.150091 -79.232712

v 198.306137 19.698086 -78.508484

v 248.544067 50.298950 -79.861084

v 251.901855 43.106812 -80.241211

v 253.992188 36.301758 -79.243164

v 250.633301 21.736816 -80.318604

v 213.214737 1.675028 -80.147377

v 253.550415 27.715240 -79.147461

v 248.292236 16.186523 -80.538300

v 242.703613 10.376221 -79.599365

v 236.521057 5.214600 -79.548340

v 224.354980 -1.575439 -79.519531

v 231.596436 1.216797 -79.534180

v 195.009857 62.087616 -76.648193

v 197.838684 60.719147 -78.539276

v 190.151230 51.413147 -78.597862

v 206.343140 65.434570 -77.921387

v 214.532654 69.881104 -76.817871

v 220.611328 70.119019 -76.796387

v 230.018555 67.423584 -78.211365

v 184.908905 44.420723 -77.217659

v 234.989563 66.690460 -77.546509

v 184.509094 35.242371 -77.385902

v 239.743362 65.172638 -77.969299

v 184.756775 30.361832 -77.630310

v 244.018097 60.161255 -77.848511

v 190.276642 25.047422 -76.147461

v 247.848633 56.399902 -76.067871

v 250.261719 51.123413 -77.335938

v 257.026855 41.135605 -76.458740

v 207.952713 8.931519 -78.066742

v 256.525391 36.733765 -77.762207

v 257.911621 32.320435 -76.892090

v 257.015625 27.088043 -78.517883

v 212.115295 1.509735 -77.631348

v 214.762177 -1.052582 -77.732452

v 253.608643 21.111420 -78.207275

v 220.201996 -3.519417 -77.518478

v 254.301758 14.944397 -74.611816

v 249.193115 10.816895 -75.871582

v 239.674622 3.462402 -77.808105

v 209.670715 70.068024 -75.947403

v 198.800354 63.966385 -76.149506

v 188.833939 52.462383 -77.290726

v 189.068512 58.519478 -76.447113

v 185.833344 52.223801 -76.717552

v 180.679657 50.353317 -76.830322

v 180.657806 45.776844 -76.957825

v 179.359497 43.548546 -76.096321

v 181.895660 38.330879 -76.815475

v 227.909256 69.646057 -76.000671

v 182.407440 33.941841 -76.247757

v 241.472809 64.311890 -75.125244

v 243.854507 60.792358 -76.064209

v 185.898392 28.263054 -75.961029

v 193.693405 20.823338 -75.484283

v 200.128357 12.435669 -75.438766

v 209.415176 2.671509 -75.718262

v 261.064453 35.271973 -74.703125

v 262.756836 30.141113 -72.380371

v 212.645355 -1.922367 -73.564980

v 223.176498 -5.011047 -76.327148

v 228.123108 -5.066589 -76.259399

v 234.407227 -2.355347 -76.446899

v 243.876343 1.526402 -73.494629

v 187.806122 58.545357 -74.396179

v 195.048401 63.422745 -74.104965

v 198.750534 64.918259 -73.787994

v 209.147247 70.951843 -73.655701

v 215.665039 72.566650 -73.042480

v 181.203720 52.492836 -74.929031

v 178.185150 47.181213 -72.523651

v 220.977417 72.085938 -73.441895

v 178.201843 44.316174 -73.596512

v 228.156555 69.825256 -74.093140

v 179.035156 39.676926 -73.395729

v 235.510956 67.288269 -73.987976

v 181.722229 33.055740 -74.223068

v 248.755859 62.244629 -72.474609

v 181.086533 30.612534 -73.341835

v 187.217514 23.142448 -74.866318

v 193.743896 15.203964 -75.081879

v 186.717438 20.125826 -73.390587

v 256.197754 50.448730 -73.212891

v 260.426575 43.152527 -74.174805

v 201.747955 5.881523 -74.881844

v 196.234451 8.741898 -73.552696

v 262.269836 37.551819 -73.815918

v 202.064117 3.152788 -73.445145

v 259.391541 23.406067 -73.984009

v 219.148773 -5.343521 -73.435020

v 257.246765 18.023621 -73.940979

v 251.560303 8.281494 -70.665039

v 226.489990 -6.518738 -73.987793

v 247.389404 4.534897 -72.098633

v 232.207275 -6.323730 -72.182373

v 198.568787 69.923828 -71.777588

v 204.132446 73.998749 -70.744873

v 187.703476 62.094101 -71.396393

v 180.368988 55.021084 -71.431969

v 177.994019 51.009552 -71.356857

v 172.441452 43.147247 -71.397186

v 172.071426 37.117058 -73.275558

v 226.592651 73.557861 -70.489624

v 233.257324 70.097168 -71.627441

v 170.731201 32.666550 -72.586731

v 175.298706 29.636604 -73.268402

v 170.132141 28.949051 -70.409531

v 242.015137 67.349609 -71.574707

v 183.017426 18.693604 -73.323196

v 180.761993 19.556946 -72.989563

v 184.152817 15.474976 -72.825439

v 259.225189 51.429077 -70.215454

v 191.293518 10.267258 -73.148552

v 184.129227 11.546310 -70.638870

v 201.166626 0.720024 -72.973366

v 201.011871 -1.503647 -71.737457

v 212.493576 -9.784302 -73.277184

v 263.291107 25.811157 -70.062500

v 259.873169 23.184448 -72.066406

v 257.843140 17.948608 -71.451416

v 218.574326 -11.654297 -73.177841

v 224.924683 -8.914673 -73.042252

v 220.811813 -13.064133 -71.503967

v 239.333740 -2.721191 -70.718750

v 172.466827 57.200806 -71.285721

v 171.894836 58.747486 -69.461868

v 190.220764 69.002411 -70.851524

v 195.209869 72.103241 -70.197464

v 199.968597 73.598969 -70.159790

v 164.156723 45.072983 -71.380203

v 168.300934 54.553749 -70.892235

v 164.037903 49.007187 -70.553284

v 212.610992 76.416138 -70.014404

v 162.991119 44.445576 -70.537857

v 220.793640 74.374542 -70.061707

v 163.910080 39.591904 -70.461044

v 168.617157 35.053501 -71.500000

v 166.720444 34.715412 -70.346809

v 234.088623 72.943840 -70.083977

v 242.341431 69.255249 -70.220673

v 174.002258 23.672760 -70.557640

v 248.281738 66.066895 -70.067993

v 176.922516 20.248566 -70.657425

v 251.921722 63.549133 -70.019165

v 180.140594 16.123920 -70.409576

v 190.761703 8.289610 -71.852325

v 187.945618 7.091698 -70.457535

v 262.793945 46.532806 -66.892578

v 192.410614 1.519531 -70.144058

v 195.241577 0.103107 -71.074326

v 264.762512 38.714752 -65.993652

v 203.143173 -7.574408 -70.971931

v 265.528381 32.702118 -68.082764

v 196.534256 -3.952724 -68.326088

v 262.780823 21.623169 -68.770020

v 211.672699 -12.433215 -71.244141

v 205.877335 -10.845712 -70.380219

v 253.506592 9.169434 -68.042969

v 216.149872 -13.771141 -70.552963

v 226.409134 -10.976440 -70.446533

v 194.640961 72.772339 -67.764282

v 187.504150 69.059105 -68.266708

v 186.016357 67.707077 -68.351433

v 165.334686 55.799934 -67.712868

v 205.677582 76.786774 -67.858551

v 162.131439 50.750652 -67.606125

v 161.890381 46.669334 -68.049026

v 161.671585 43.788025 -67.493652

v 224.538269 74.071411 -68.643677

v 230.744354 74.023132 -66.542480

v 166.686584 34.819984 -66.640442

v 238.538895 71.959595 -67.177612

v 240.798187 70.447235 -68.283936

v 173.247467 24.831764 -66.661148

v 245.759125 67.787506 -68.449829

v 249.965210 65.968872 -67.744629

v 252.533447 63.781189 -67.914307

v 258.686157 52.717163 -68.455200

v 179.282043 17.812904 -66.726601

v 183.994766 11.114868 -66.564957

v 188.473343 5.945221 -66.673279

v 194.259109 -1.862110 -68.581100

v 201.123779 -6.947533 -68.339493

v 264.360229 28.484209 -66.200378

v 204.995895 -10.107758 -68.513824

v 211.600281 -11.179993 -67.136932

v 261.386780 16.213806 -66.423096

v 257.799194 11.202515 -65.452271

v 216.071487 -13.230490 -66.984352

v 247.749512 4.247375 -68.348145

v 244.481171 0.475708 -67.176575

v 221.573669 -13.935791 -66.828949

v 240.539352 -3.244995 -66.446777

v 226.702957 -11.907837 -67.468994

v 234.861084 -7.280518 -67.133789

v 170.097137 67.731705 -67.376068

v 174.146912 70.335876 -66.577911

v 175.489502 69.279846 -67.391846

v 177.333252 71.164841 -66.323242

v 156.529694 62.578293 -65.393433

v 160.888428 63.026657 -67.440308

v 156.504578 54.956387 -67.483780

v 181.993317 71.270676 -67.190453

v 168.023926 58.806641 -67.505211

v 185.849075 72.457611 -66.744446

v 184.821838 68.636047 -67.517418

v 151.370850 48.207901 -63.320740

v 154.241943 54.853466 -65.958717

v 157.518311 49.572052 -67.453560

v 197.430695 75.465515 -65.604248

v 218.284698 77.651611 -63.615479

v 212.334167 77.858246 -63.504517

v 244.591034 70.760864 -66.155151

v 247.984009 68.276978 -66.327271

v 258.410004 58.520264 -65.480225

v 261.022095 52.913254 -66.018555

v 191.313934 -0.049654 -64.134361

v 202.134842 -5.451210 -66.662537

v 208.234894 -8.143555 -66.681366

v 263.634766 23.202187 -65.498230

v 250.722839 2.191406 -64.070435

v 161.776474 67.778046 -63.350189

v 166.824417 69.643555 -63.136948

v 150.300079 61.462654 -62.707329

v 151.524292 56.403618 -65.166466

v 173.175613 72.310089 -62.622345

v 180.008301 72.522308 -64.511444

v 182.772064 74.472076 -62.775574

v 187.024277 75.324646 -62.557770

v 192.704910 76.125534 -62.617126

v 198.473450 77.744881 -62.345779

v 204.000031 78.521049 -62.320557

v 208.480591 78.505966 -62.792664

v 160.992310 39.003052 -64.129669

v 229.105255 76.717133 -62.664307

v 233.200317 76.336182 -62.951538

v 170.643250 25.154373 -64.268692

v 245.511658 71.659302 -62.716064

v 174.546066 20.023317 -64.099556

v 254.407898 66.816040 -60.201416

v 176.566986 11.644825 -63.312241

v 255.821381 63.298096 -64.167480

v 183.837662 7.079403 -64.044670

v 262.801910 48.758652 -60.555908

v 263.308838 45.721539 -63.552002

v 264.511475 41.047272 -63.522217

v 194.845123 -2.774624 -64.308525

v 200.952011 -5.524605 -64.129074

v 205.394104 -7.077290 -64.110184

v 209.321930 -8.967352 -64.673462

v 265.074280 26.467575 -64.340759

v 261.778320 16.901657 -61.883545

v 213.142303 -12.188618 -64.624130

v 260.101746 14.117416 -61.853149

v 214.872345 -15.667450 -63.264412

v 253.517975 4.617798 -63.279053

v 220.257690 -18.131042 -62.887085

v 246.560333 -1.784180 -64.313721

v 237.571777 -7.814026 -64.274170

v 232.212555 -11.358032 -64.123047

v 156.692505 65.518875 -62.550892

v 148.584076 56.631348 -62.774704

v 178.402954 74.110176 -62.545280

v 149.386963 52.623093 -63.039612

v 159.076828 35.442917 -63.166527

v 224.617889 78.050339 -58.962158

v 221.727356 78.507034 -58.881592

v 165.955597 26.237984 -63.232342

v 240.986298 74.764458 -61.704773

v 172.403595 16.440590 -63.256660

v 259.174683 58.492573 -58.718750

v 180.052383 5.899777 -63.254082

v 187.252274 -0.900818 -63.623291

v 182.974792 2.042469 -62.777885

v 187.351883 -2.442430 -62.862846

v 197.804169 -7.496857 -63.631023

v 193.908859 -6.763780 -62.660908

v 265.515137 34.935394 -62.359985

v 265.517090 30.457138 -62.517822

v 200.176315 -10.397905 -62.696365

v 265.465454 27.359253 -62.680420

v 206.319946 -11.914063 -63.336369

v 263.622864 22.044327 -62.529785

v 210.745743 -13.704910 -62.844944

v 259.021881 10.588391 -57.086235

v 257.379303 8.086329 -57.095490

v 227.735229 -15.577148 -62.586182

v 151.236725 60.934029 -56.768135

v 162.100342 66.017487 -57.824768

v 167.388779 69.283661 -60.330688

v 149.272324 57.397041 -56.317669

v 148.210144 54.873444 -60.570038

v 176.413239 72.828812 -60.623627

v 182.414520 74.624115 -60.688137

v 148.724899 51.972198 -60.725349

v 189.351181 75.275879 -60.580032

v 196.110474 77.165482 -60.464729

v 149.552521 48.893188 -60.634552

v 203.358246 78.098869 -58.722885

v 151.470947 46.341843 -60.388802

v 211.827209 79.131004 -58.883339

v 216.302246 79.188812 -58.301842

v 159.111313 33.067478 -61.002113

v 162.511169 28.441343 -60.577194

v 164.909164 25.734402 -60.570175

v 246.413254 72.667130 -55.461197

v 169.005508 19.389605 -60.643906

v 173.178284 13.639566 -60.759415

v 176.479996 9.817482 -60.767365

v 260.825623 52.909576 -58.565369

v 179.761307 5.729706 -60.713501

v 184.384491 0.445313 -60.669922

v 265.408081 44.831123 -60.288330

v 190.576996 -4.350349 -59.164093

v 267.151428 38.257103 -59.637848

v 267.706879 32.666492 -60.149811

v 196.160660 -8.438336 -59.137421

v 267.842957 27.512793 -59.981186

v 199.983704 -10.620308 -58.794785

v 265.468140 22.567520 -60.503906

v 206.021561 -12.700611 -59.174194

v 263.262207 18.896484 -60.614136

v 214.749924 -14.114206 -59.559460

v 217.557907 -15.911394 -59.667992

v 220.135162 -19.296164 -59.560177

v 240.019287 -7.509094 -60.695190

v 232.375397 -12.204712 -60.755249

v 229.824188 -15.320165 -58.938187

v 224.637421 -18.886190 -59.483719

v 156.335907 62.605389 -56.086731

v 176.322037 70.391624 -58.668701

v 169.966476 67.881836 -57.042831

v 182.605133 71.735977 -58.380775

v 150.107300 51.967987 -59.445435

v 189.883484 72.035591 -57.716965

v 193.024643 73.588989 -58.124329

v 198.866226 76.551956 -58.092308

v 156.463257 43.424164 -59.564941

v 207.897858 78.236771 -58.258179

v 159.619141 33.344223 -60.236237

v 162.816147 33.407654 -59.552155

v 234.213821 76.650421 -54.755913

v 171.166748 20.090820 -59.417725

v 250.714813 69.513977 -54.866394

v 175.294312 13.019348 -58.838623

v 257.872070 61.838379 -55.543518

v 181.643005 6.064087 -58.417786

v 186.876953 -0.173874 -58.353806

v 265.330078 21.060432 -55.559723

v 209.882736 -12.659875 -57.628304

v 261.374969 14.765721 -56.669281

v 255.671295 6.322362 -56.950714

v 253.809753 3.647660 -56.719376

v 250.707672 -0.292482 -57.351532

v 247.453110 -3.876060 -58.403015

v 240.923401 -8.694654 -58.775070

v 151.491486 53.659790 -56.479218

v 192.948486 71.398643 -56.059097

v 158.194336 46.021881 -56.504944

v 198.409348 72.542458 -57.051804

v 204.506195 73.695671 -56.334846

v 212.614746 76.705475 -56.674561

v 207.218765 74.688538 -56.818237

v 219.156281 77.748352 -54.198944

v 161.759644 39.408081 -56.703735

v 229.724457 77.699608 -54.918564

v 166.001709 32.066650 -56.850586

v 243.187897 73.635941 -54.462418

v 173.363770 21.703857 -56.506470

v 254.499756 64.900574 -52.823486

v 185.852539 6.441551 -56.754395

v 179.955322 13.310760 -56.394897

v 262.878815 53.119751 -55.830109

v 264.066528 49.437408 -54.865845

v 191.969986 0.713562 -57.663315

v 192.004196 -3.546173 -58.078903

v 266.471680 39.334412 -55.454346

v 197.291412 -3.584610 -57.885994

v 195.881424 -0.923401 -56.759216

v 200.870453 -4.460251 -56.868820

v 198.138046 -8.065216 -58.107773

v 205.187119 -9.575256 -57.549347

v 266.930908 27.785400 -54.740723

v 206.557144 -9.533718 -56.738823

v 263.512909 17.737738 -56.721420

v 214.834534 -17.253998 -56.822037

v 219.221680 -18.872917 -57.125546

v 224.343506 -16.014435 -56.106430

v 243.911026 -6.223004 -51.405170

v 240.173981 -8.398849 -55.804504

v 229.798859 -13.404545 -54.895996

v 155.573227 58.896225 -55.670013

v 165.804535 65.514145 -52.444744

v 156.970139 53.608376 -55.765388

v 170.570953 67.259537 -53.058144

v 175.771317 68.297401 -53.149776

v 182.116348 69.888443 -53.479858

v 188.770844 71.116280 -53.018936

v 196.831696 71.854095 -54.910801

v 201.412537 73.276993 -54.746964

v 161.170746 46.104538 -55.075378

v 209.606155 75.267944 -51.291870

v 223.555069 76.489365 -48.864746

v 165.359100 37.220123 -55.035461

v 226.538086 77.239990 -53.976563

v 170.143158 31.369987 -54.243347

v 172.837158 26.826477 -55.372742

v 178.484894 19.511688 -55.550690

v 184.394394 12.707581 -55.369965

v 189.124008 6.803955 -54.612915

v 265.018433 45.301208 -54.547852

v 209.008545 -12.643078 -52.101334

v 262.296509 18.218979 -54.598511

v 256.191223 7.337511 -52.683807

v 253.027252 3.667358 -53.282074

v 215.776703 -19.710165 -53.148033

v 219.047104 -20.298252 -47.473408

v 248.265106 -2.171477 -53.360184

v 233.270325 -12.216667 -51.387665

v 158.342941 63.049286 -53.019073

v 157.458862 60.380280 -52.309875

v 156.695129 57.686878 -52.075432

v 156.903351 55.751945 -52.898682

v 158.037888 52.275002 -53.038452

v 192.713226 72.087959 -52.707214

v 198.300110 73.380188 -52.860035

v 204.229935 74.358002 -52.000725

v 161.277222 45.980541 -53.184402

v 215.678146 76.927612 -50.923161

v 164.629822 38.874931 -52.493591

v 232.363068 74.767090 -52.746246

v 174.343948 28.368883 -51.913166

v 246.093018 69.398438 -50.861816

v 177.363892 24.656780 -51.925694

v 179.801559 21.522820 -52.016823

v 183.214157 16.031898 -52.212009

v 193.135498 2.705322 -52.504150

v 263.705811 40.986633 -50.769043

v 264.359497 29.941772 -48.962402

v 263.813049 24.959595 -48.984619

v 263.193726 19.960636 -51.125244

v 260.668457 16.794922 -49.152344

v 229.038422 -13.903469 -51.117283

v 240.509705 -8.023651 -49.157349

v 173.724365 66.720474 -52.201752

v 163.728836 60.315414 -52.037781

v 166.840103 61.667816 -51.612595

v 160.812057 58.297634 -51.154648

v 154.250168 57.119091 -51.012611

v 154.316010 54.009033 -51.494690

v 172.517914 62.508461 -51.480957

v 181.917236 68.835739 -52.435089

v 165.331909 59.083054 -50.640457

v 181.217194 66.440094 -51.610352

v 189.995087 68.229370 -50.799805

v 198.820328 71.250793 -49.774658

v 160.378662 43.124634 -51.421967

v 220.347961 77.077217 -49.249725

v 228.278946 74.934341 -49.016083

v 166.809570 35.127975 -50.648071

v 169.886292 31.482727 -50.555359

v 234.842636 73.112610 -48.785126

v 240.880127 71.393005 -49.780396

v 253.105225 60.963989 -47.358032

v 184.935608 12.595325 -49.969299

v 191.077713 6.537411 -48.195801

v 259.971069 51.398438 -47.299316

v 260.780029 45.129517 -45.273682

v 199.877747 -2.306565 -45.240509

v 202.128494 -5.047150 -43.704910

v 264.046387 36.066620 -48.390625

v 205.126831 -8.191589 -45.655640

v 256.882446 9.701874 -47.119995

v 210.788712 -13.571945 -47.524994

v 253.884598 3.304594 -50.752258

v 250.938538 -1.136190 -50.045937

v 222.629257 -17.586552 -48.362274

v 248.094437 -4.209527 -50.954655

v 153.730331 56.937878 -47.488144

v 158.172791 58.116978 -47.385708

v 161.774857 58.979584 -47.909035

v 180.546936 63.767570 -49.203617

v 186.786118 64.812256 -48.490051

v 153.798004 51.045319 -49.385132

v 192.891861 65.525673 -46.944702

v 208.725555 71.057312 -48.089935

v 214.174164 73.700684 -49.397858

v 175.071075 22.724533 -49.205139

v 248.552734 64.268402 -46.571960

v 179.999969 17.599434 -49.292786

v 256.034912 57.805176 -47.453369

v 260.196533 23.115234 -45.498535

v 215.927277 -19.430626 -47.094299

v 232.441299 -10.794338 -49.193771

v 226.532852 -14.166306 -49.284088

v 152.927658 53.760674 -44.087017

v 165.388885 60.216202 -47.454136

v 153.604034 49.702332 -45.615173

v 158.268555 44.353912 -47.387451

v 199.103653 67.520882 -46.818871

v 215.094971 72.043762 -47.508850

v 162.793640 38.331329 -46.893799

v 221.396606 74.702591 -46.948639

v 225.976883 73.196884 -46.853836

v 235.159851 70.176636 -46.771729

v 165.680176 33.907959 -46.143555

v 168.518494 30.013794 -45.159180

v 172.503235 24.878632 -45.547485

v 246.376495 65.757202 -46.772949

v 176.218781 20.662720 -45.479813

v 181.580658 15.004333 -45.501129

v 186.046204 10.526924 -45.674301

v 196.180481 2.275831 -45.864300

v 262.371948 28.496094 -47.014404

v 257.753784 18.743458 -44.565277

v 254.214966 5.892517 -45.736328

v 250.018860 0.516602 -43.158691

v 231.095856 -11.569927 -45.327873

v 225.275162 -15.182028 -45.364243

v 235.124756 -10.168388 -45.197433

v 247.139587 -2.942200 -43.639709

v 158.917267 57.040482 -44.570930

v 164.408112 58.817894 -42.212593

v 170.215881 60.177044 -42.141190

v 178.353638 61.629677 -42.491661

v 187.550446 63.285942 -41.936981

v 157.672852 42.636200 -45.071533

v 206.056290 68.157356 -44.194572

v 201.867081 67.098839 -43.975632

v 211.458023 69.623375 -44.377247

v 217.638000 71.304321 -43.972565

v 224.004761 73.979095 -43.015015

v 230.446289 70.950439 -43.363770

v 244.022156 63.923462 -45.431946

v 250.302185 59.713745 -45.440063

v 256.592773 50.505859 -43.787109

v 190.968475 6.694344 -45.448532

v 261.711365 34.519348 -43.131958

v 213.409943 -13.662170 -46.126434

v 256.332397 11.335403 -45.173706

v 220.833237 -16.921051 -46.232372

v 150.576172 51.790436 -43.091980

v 151.032608 48.585518 -43.517365

v 182.849243 62.091419 -42.087734

v 192.934448 65.257561 -41.548553

v 197.885468 66.801971 -41.951744

v 157.270294 40.172516 -41.447998

v 153.551178 43.459194 -40.285927

v 160.565613 37.481407 -41.938599

v 163.627945 33.858749 -41.755539

v 172.310776 22.371231 -43.541931

v 238.925415 63.013489 -41.283813

v 245.286621 59.155640 -43.550049

v 175.803955 17.619125 -43.698471

v 178.769608 14.124733 -43.518494

v 182.696259 10.499039 -43.448761

v 186.557739 7.042267 -43.678162

v 256.730225 43.337460 -40.902466

v 190.606750 3.321167 -43.537964

v 194.486984 -0.221919 -43.172859

v 258.952881 27.566040 -41.243164

v 206.742981 -7.102600 -42.949951

v 257.985413 21.570908 -41.292786

v 216.382980 -11.355743 -42.831818

v 254.048569 9.392807 -41.155273

v 224.866302 -13.971710 -44.175018

v 225.544159 -11.750412 -42.696957

v 231.607208 -9.337585 -42.637299

v 240.545349 -5.761078 -41.775635

v 149.459915 50.783051 -41.794296

v 148.883911 55.693741 -41.644547

v 157.294327 58.553802 -40.593964

v 172.730453 61.210083 -39.497116

v 175.998260 61.868877 -39.494446

v 205.776886 69.521347 -41.182632

v 212.318497 70.415756 -40.819130

v 216.846954 70.911850 -41.139622

v 222.417633 73.565155 -40.215187

v 167.643677 29.077271 -41.388000

v 232.980423 66.156738 -39.410889

v 172.453857 22.716675 -41.546448

v 176.967621 16.961548 -41.502747

v 243.612976 56.345581 -39.672729

v 181.908905 11.212372 -41.595398

v 251.137207 48.865112 -39.799316

v 186.024841 6.912872 -41.440521

v 189.261551 3.908653 -41.576019

v 197.701477 0.430239 -38.893459

v 201.389908 -2.071396 -39.254120

v 201.830933 -3.561096 -41.708008

v 258.870117 34.232544 -41.121338

v 256.834534 28.245575 -39.591431

v 212.152710 -6.174171 -41.576118

v 213.793701 -7.592270 -42.417526

v 258.151764 18.245522 -41.316460

v 219.851532 -6.426800 -41.545456

v 257.001831 16.132290 -41.125488

v 221.331757 -7.801849 -42.438747

v 256.261108 13.626099 -41.186768

v 225.713348 -6.829987 -41.697647

v 227.754196 -8.995125 -42.263424

v 250.361267 4.292725 -41.014160

v 241.224182 -2.483582 -40.030945

v 234.577087 -6.850098 -40.657349

v 148.370636 56.290554 -39.597992

v 150.393967 58.856400 -39.722343

v 148.664795 52.557384 -39.609802

v 159.608887 60.281612 -38.660133

v 164.632172 60.336430 -39.507286

v 168.547745 60.703999 -39.397446

v 179.503052 62.487007 -39.465805

v 185.500351 63.657093 -39.428310

v 191.069489 65.718506 -39.633812

v 205.722153 73.144775 -39.687515

v 203.509979 73.347008 -38.847576

v 156.721390 40.942413 -39.635101

v 210.331696 74.211998 -39.613335

v 214.319534 74.716522 -39.801598

v 160.718994 38.109741 -39.408569

v 219.158920 74.189941 -39.499176

v 164.363403 34.717896 -39.221893

v 223.398972 72.480835 -37.166473

v 168.555542 30.736084 -39.234558

v 235.715134 61.959244 -39.138214

v 177.524948 21.951477 -38.860168

v 239.208618 58.720078 -39.309021

v 184.801300 13.198395 -38.792397

v 191.378647 5.022942 -38.790779

v 254.544556 40.739410 -39.615540

v 255.881714 34.584549 -39.608246

v 208.227234 -4.373825 -39.307816

v 254.823853 18.917694 -39.808014

v 212.511810 -4.815384 -38.958336

v 216.607391 -5.925953 -39.658985

v 253.222015 14.272873 -39.840027

v 221.243866 -5.395233 -38.915222

v 250.543243 9.965553 -39.620392

v 226.448059 -5.920227 -38.310089

v 229.648544 -6.949648 -38.882813

v 247.785675 5.954041 -39.098633

v 244.733765 2.050873 -39.920532

v 153.937485 59.831474 -37.510399

v 150.076721 58.305153 -37.629150

v 152.264404 52.830109 -35.662598

v 164.540771 59.748253 -35.628799

v 155.113831 46.201965 -37.736877

v 177.330627 59.825756 -35.139683

v 180.984360 61.004307 -36.790001

v 185.941345 62.557716 -37.069397

v 193.755554 66.208549 -36.470383

v 205.538925 73.084442 -37.369808

v 159.817093 42.316711 -37.776215

v 212.621613 74.783142 -37.242718

v 219.348343 73.999748 -37.239815

v 164.646255 38.239502 -37.918747

v 227.716003 69.438232 -36.309814

v 170.869385 32.018097 -38.536316

v 169.706238 34.422722 -37.722824

v 175.672348 29.774948 -37.686890

v 177.875519 26.144867 -38.595398

v 181.030304 25.176903 -37.744980

v 236.963303 60.439583 -35.586517

v 184.890167 20.245987 -38.664749

v 185.355240 21.495529 -37.784866

v 189.788971 18.496872 -37.745270

v 247.033203 50.239746 -37.494141

v 194.131287 13.764816 -38.648094

v 194.772247 15.163551 -37.674088

v 252.568604 42.673828 -37.211914

v 200.922760 10.544342 -37.731140

v 204.099091 5.584557 -38.666382

v 253.937302 35.937653 -35.118073

v 206.474930 5.626556 -37.649353

v 212.217377 -1.100677 -38.554443

v 254.368835 31.244873 -34.789757

v 210.274628 2.029984 -37.715179

v 255.009766 27.312866 -36.186279

v 253.465576 17.980396 -37.506348

v 217.213104 -1.783924 -37.767441

v 249.562134 13.719177 -35.143311

v 245.989746 6.616806 -35.595703

v 239.794403 -0.181641 -35.837036

v 237.192261 -3.088684 -37.933838

v 234.213715 -4.383682 -35.594055

v 152.999268 58.013748 -35.136719

v 158.712204 58.889717 -35.087959

v 174.358490 59.320755 -34.824543

v 155.367737 47.675652 -35.183594

v 182.944031 61.896992 -31.915009

v 158.731400 43.045990 -33.947453

v 205.024216 69.638199 -35.764282

v 200.776947 68.144432 -35.640564

v 209.241119 70.428917 -35.804230

v 162.473770 40.054565 -35.769257

v 215.600754 72.131798 -36.269714

v 214.955872 71.102432 -35.574078

v 220.243683 70.779083 -35.292969

v 168.461823 35.178795 -35.463402

v 173.846344 30.995274 -35.609406

v 233.973450 63.771439 -35.646118

v 178.493134 27.235744 -35.818008

v 182.788467 23.900612 -35.837337

v 239.628006 57.805771 -35.514755

v 242.858856 54.138489 -35.588257

v 186.593613 20.727802 -35.806305

v 190.390900 18.000076 -35.707253

v 246.392578 48.632626 -34.812958

v 195.842789 14.287354 -35.766823

v 253.006042 36.480263 -34.635258

v 201.372177 10.111843 -35.718468

v 206.206482 5.681961 -35.745018

v 211.105759 0.941845 -35.435913

v 251.732910 22.883671 -34.768265

v 220.621643 -2.850372 -35.422791

v 248.516785 10.621124 -35.646851

v 226.203598 -5.087494 -35.658157

v 230.149658 -5.074493 -35.390701

v 155.959045 54.552238 -34.371735

v 161.303131 57.712502 -33.829742

v 170.596466 59.630096 -31.612408

v 189.681564 63.956661 -31.965330

v 197.056152 64.996201 -31.318325

v 204.226486 68.621155 -33.683136

v 162.675888 37.365189 -34.139145

v 214.392746 69.208122 -31.982899

v 225.520569 68.673706 -33.500122

v 220.246277 68.721191 -31.737946

v 168.456787 31.915173 -34.825531

v 165.763367 32.088135 -33.400932

v 229.173462 65.929321 -33.372925

v 174.207962 18.734491 -33.889278

v 177.417221 26.328487 -34.916977

v 176.023041 18.961342 -34.852455

v 236.654984 54.198242 -33.837036

v 238.074768 57.651741 -34.651737

v 179.512314 13.610146 -34.883118

v 185.195511 19.925323 -34.879887

v 174.967041 18.292755 -33.830074

v 179.102325 11.741919 -33.933109

v 243.254288 43.896210 -34.468750

v 182.405945 9.148026 -34.056934

v 188.710999 7.715408 -34.862675

v 193.880463 13.951252 -34.891212

v 186.577347 7.191599 -33.872658

v 201.659851 7.747742 -34.868301

v 247.780624 36.222672 -34.577972

v 190.177185 5.656386 -34.156567

v 246.753296 34.126434 -34.180908

v 205.521774 1.829687 -34.436279

v 248.063232 26.971443 -34.526131

v 209.533142 0.670026 -34.340122

v 244.743896 24.801270 -32.121826

v 247.909119 18.308716 -34.162842

v 245.336700 11.485546 -33.009171

v 217.412552 -0.397312 -31.815838

v 222.954117 -1.192993 -32.152786

v 240.169846 3.966873 -33.031929

v 232.838776 -1.068787 -33.287476

v 160.259567 56.411522 -31.554886

v 156.776154 54.202667 -32.019363

v 164.494949 57.947639 -31.547951

v 156.171936 48.626377 -32.084564

v 177.562668 60.536362 -31.622059

v 160.131775 43.378601 -30.725098

v 208.026138 67.151993 -31.568542

v 163.914642 38.006653 -30.863159

v 171.189575 25.685638 -31.147217

v 231.526611 60.057617 -31.296875

v 228.026199 60.666443 -28.914738

v 173.037537 23.061317 -29.903748

v 176.531372 16.020092 -28.410767

v 238.437622 46.837387 -31.734131

v 180.794495 9.541885 -28.382248

v 242.571167 36.678528 -31.748169

v 187.832916 5.751190 -30.880859

v 196.192856 3.349762 -32.131348

v 243.544617 31.166809 -31.803589

v 203.694519 0.899317 -29.552765

v 244.083649 18.490454 -32.454590

v 211.694778 0.365107 -30.116844

v 241.001038 11.068611 -32.535126

v 228.991821 2.338013 -30.697296

v 236.718689 5.902924 -32.419556

v 158.073593 51.736542 -31.033852

v 166.565521 52.615417 -30.879097

v 175.529114 58.103638 -30.956615

v 158.616272 47.217377 -30.167389

v 183.068115 60.838272 -30.990839

v 160.290009 47.540085 -29.195404

v 182.272980 56.287476 -30.791634

v 191.586517 63.038841 -30.978703

v 192.318237 59.613678 -30.723850

v 171.687073 51.102108 -29.137508

v 202.127808 63.803894 -30.505676

v 188.056824 55.115562 -29.036776

v 203.105774 61.644154 -28.927498

v 212.657440 63.798950 -28.866821

v 220.359772 64.746033 -29.450226

v 165.245560 38.940308 -28.253357

v 234.037720 52.817963 -28.920822

v 236.769897 44.206108 -27.215591

v 185.204300 6.096329 -28.175369

v 238.425812 38.839355 -27.237061

v 242.280396 32.619751 -29.638672

v 191.046707 3.012327 -26.569893

v 196.315186 2.351910 -30.222984

v 242.127930 28.040562 -29.245605

v 240.253418 21.398193 -28.456787

v 239.919556 14.454803 -29.563477

v 222.540741 1.287930 -29.981686

v 161.599640 43.840057 -28.867363

v 172.740326 47.312920 -28.941227

v 180.321335 48.577988 -28.897709

v 164.296906 42.429676 -27.255264

v 190.277725 49.519333 -28.924044

v 174.130402 44.839684 -27.194416

v 200.502502 50.563026 -28.908039

v 199.925613 47.629360 -27.096550

v 211.313354 51.649040 -28.859421

v 171.890442 28.251984 -27.471207

v 225.105820 55.120449 -28.792269

v 210.208679 48.516617 -27.010853

v 172.428741 23.911392 -26.421944

v 223.873260 52.136383 -26.986046

v 174.544083 19.360785 -26.751213

v 232.576447 50.418404 -26.959208

v 239.021851 30.907349 -26.930298

v 195.475693 2.368515 -26.747765

v 235.200684 12.860840 -27.565918

v 215.403656 0.257286 -26.106272

v 221.791382 2.662338 -26.378204

v 228.642090 4.649963 -27.575562

v 167.193771 38.351746 -27.179090

v 183.411499 45.466896 -27.094723

v 179.488220 34.554287 -27.125017

v 189.673279 46.697372 -27.131359

v 188.867615 35.757103 -27.071072

v 174.778229 31.411095 -27.087723

v 201.495575 37.119476 -27.031235

v 176.318771 28.986071 -25.273232

v 173.414978 24.449127 -25.496170

v 182.275055 32.189388 -25.255514

v 196.148682 34.058262 -25.265240

v 223.466278 39.398060 -26.956646

v 211.927017 35.842342 -26.980232

v 205.647705 34.084656 -25.222340

v 175.362503 15.427773 -26.696945

v 222.784683 36.538696 -25.162100

v 212.347687 33.255493 -25.287724

v 176.833862 9.646423 -25.811646

v 234.380157 37.478760 -26.871094

v 181.112946 5.718140 -26.296021

v 232.692474 35.156738 -25.103895

v 185.338562 3.394298 -25.508160

v 237.936401 27.085396 -25.134491

v 235.918579 19.884491 -25.445801

v 207.537567 0.012685 -25.016430

v 211.342789 0.015823 -25.552017

v 231.627441 12.486176 -25.577148

v 224.671387 5.871033 -25.432861

v 177.827057 20.499969 -25.233456

v 188.232651 26.521049 -25.144924

v 176.230896 17.556717 -25.139313

v 203.881958 30.888237 -24.967749

v 203.483063 28.441105 -23.319086

v 174.535736 11.370354 -22.820557

v 214.592300 30.999451 -24.983572

v 227.085526 32.519562 -24.952354

v 177.113556 6.246266 -22.285995

v 225.707245 30.385132 -23.441692

v 181.825500 3.967007 -23.038988

v 187.740707 3.325916 -22.174099

v 234.268402 24.899944 -24.922470

v 231.801880 24.147890 -23.164459

v 231.506958 16.428040 -24.683289

v 200.507141 2.085686 -22.390289

v 219.956696 6.042053 -23.404564

v 214.197861 4.402924 -23.377151

v 180.563232 18.782959 -23.258545

v 189.948257 24.515289 -23.542557

v 191.461945 22.557556 -22.935059

v 176.319855 12.923820 -21.508698

v 184.953979 17.625687 -21.429108

v 200.920807 23.938339 -23.123699

v 197.761154 21.462879 -21.391582

v 217.649963 28.635496 -23.194515

v 212.042068 20.804895 -23.205494

v 228.347366 15.579173 -23.217501

v 216.812103 11.066263 -23.198448

v 210.581940 18.118700 -21.365952

v 193.729248 3.648987 -22.387575

v 213.958298 11.126740 -21.448471

v 209.785446 2.710649 -21.451256

v 181.539276 5.933943 -21.467369

v 194.036163 5.180109 -21.412260

v 200.507416 3.525644 -21.400717

f 1 2 3
f 2 4 3
f 1 5 6
f 6 2 1
f 5 7 6
f 8 2 6
f 9 10 7
f 6 7 10
f 4 11 12
f 2 8 4
f 4 8 11
f 11 13 14
f 9 15 16
f 10 9 16
f 8 13 11
f 17 13 8
f 6 18 8
f 10 16 6
f 18 19 8
f 6 16 20
f 20 18 6
f 21 22 16
f 18 20 23
f 19 18 24
f 20 16 22
f 25 20 22
f 26 27 18
f 23 26 18
f 28 29 23
f 26 23 29
f 30 1 3
f 3 31 30
f 30 5 1
f 5 30 32
f 12 3 4
f 32 33 5
f 7 5 33
f 7 33 34
f 11 35 12
f 34 9 7
f 15 9 34
f 35 11 14
f 14 36 35
f 15 37 38
f 15 39 16
f 36 14 13
f 15 38 39
f 17 40 13
f 41 39 38
f 38 42 41
f 21 39 41
f 40 17 8
f 21 16 39
f 8 43 40
f 43 8 19
f 19 24 43
f 21 41 44
f 22 21 25
f 21 44 45
f 46 45 44
f 25 21 45
f 24 18 27
f 27 47 24
f 45 48 25
f 28 20 25
f 48 28 25
f 48 45 49
f 23 20 28
f 29 27 26
f 48 50 28
f 51 50 48
f 50 29 28
f 27 29 52
f 52 53 27
f 50 52 29
f 52 50 54
f 55 56 57
f 31 57 30
f 57 56 32
f 30 57 32
f 33 56 58
f 32 56 33
f 59 58 56
f 37 58 59
f 34 33 58
f 37 34 58
f 60 37 59
f 34 37 15
f 37 60 42
f 60 61 42
f 42 38 37
f 13 62 36
f 62 13 40
f 62 40 63
f 64 41 42
f 63 40 65
f 43 66 40
f 65 40 66
f 64 44 41
f 64 67 44
f 66 43 68
f 24 68 43
f 46 44 67
f 69 68 24
f 69 24 47
f 70 69 47
f 46 67 45
f 70 47 71
f 49 45 72
f 51 48 49
f 47 27 53
f 71 47 73
f 47 53 73
f 54 53 52
f 51 74 50
f 74 75 50
f 75 54 50
f 53 54 76
f 73 53 76
f 77 78 79
f 55 57 80
f 55 78 59
f 59 56 55
f 57 31 80
f 78 77 81
f 82 80 31
f 78 81 59
f 82 31 3
f 82 3 12
f 12 83 82
f 84 81 77
f 83 12 35
f 61 81 84
f 81 60 59
f 35 85 83
f 61 60 81
f 35 36 85
f 86 64 84
f 61 84 64
f 87 36 62
f 64 42 61
f 64 86 88
f 63 89 62
f 89 63 65
f 64 88 90
f 90 67 64
f 91 66 68
f 70 92 69
f 90 93 67
f 67 72 45
f 93 72 67
f 70 94 92
f 93 95 72
f 94 70 71
f 49 72 95
f 51 49 95
f 73 94 71
f 94 73 96
f 95 74 51
f 76 54 75
f 76 75 97
f 73 76 98
f 96 73 98
f 97 98 76
f 99 100 55
f 78 55 100
f 79 78 100
f 79 100 101
f 55 80 99
f 79 101 77
f 102 80 82
f 103 102 82
f 101 104 84
f 101 84 77
f 83 103 82
f 83 85 103
f 104 105 84
f 85 36 87
f 105 86 84
f 88 86 105
f 89 65 106
f 106 65 107
f 108 90 88
f 66 107 65
f 90 108 109
f 91 68 69
f 90 109 110
f 110 93 90
f 95 93 111
f 94 112 92
f 111 93 113
f 111 114 95
f 114 74 95
f 96 112 94
f 114 115 74
f 115 75 74
f 75 116 97
f 75 115 116
f 96 98 117
f 98 97 116
f 118 117 98
f 116 118 98
f 119 120 121
f 122 99 120
f 122 123 100
f 120 99 121
f 99 122 100
f 124 100 123
f 99 102 121
f 100 124 101
f 80 102 99
f 125 101 124
f 121 102 103
f 126 121 103
f 127 104 125
f 104 101 125
f 103 85 126
f 126 85 128
f 129 104 127
f 104 129 105
f 128 85 130
f 131 105 129
f 87 130 85
f 62 132 87
f 62 89 132
f 131 88 105
f 133 88 131
f 89 106 132
f 88 133 134
f 108 88 134
f 108 135 109
f 107 66 91
f 91 69 92
f 92 136 91
f 135 110 109
f 110 135 137
f 110 137 138
f 113 93 110
f 138 113 110
f 136 92 112
f 113 138 139
f 112 140 136
f 140 112 141
f 113 142 111
f 113 139 142
f 141 112 143
f 143 112 96
f 142 144 111
f 114 111 144
f 144 145 114
f 145 115 114
f 117 143 96
f 115 146 116
f 146 118 116
f 147 122 148
f 119 148 120
f 119 149 150
f 149 151 150
f 148 122 120
f 122 147 123
f 121 149 119
f 149 126 151
f 152 151 126
f 153 152 126
f 126 149 121
f 154 153 155
f 124 156 125
f 126 155 153
f 125 156 127
f 126 128 155
f 157 155 128
f 128 130 157
f 131 129 158
f 158 159 131
f 160 130 87
f 87 132 160
f 159 133 131
f 106 161 132
f 161 106 107
f 91 161 107
f 134 135 108
f 91 162 161
f 136 162 91
f 162 136 163
f 164 137 135
f 164 138 137
f 140 163 136
f 139 138 165
f 141 166 140
f 117 167 143
f 168 167 117
f 145 146 115
f 117 118 168
f 118 146 169
f 168 118 169
f 169 146 170
f 119 171 172
f 171 119 150
f 148 172 173
f 172 148 119
f 174 147 148
f 148 173 174
f 147 174 175
f 171 150 151
f 175 123 147
f 151 176 171
f 176 151 152
f 152 177 176
f 178 124 123
f 123 175 178
f 177 152 153
f 177 153 154
f 154 179 177
f 178 156 124
f 156 178 180
f 154 181 179
f 181 154 155
f 156 180 182
f 182 127 156
f 155 183 181
f 183 155 157
f 182 129 127
f 182 158 129
f 183 157 130
f 183 130 160
f 184 159 158
f 185 183 160
f 132 186 160
f 186 185 160
f 184 133 159
f 186 132 161
f 186 161 187
f 187 188 186
f 189 134 133
f 187 161 162
f 135 134 189
f 135 189 190
f 191 192 187
f 187 162 191
f 135 190 193
f 193 164 135
f 192 191 194
f 163 191 162
f 194 191 163
f 166 194 163
f 164 165 138
f 166 163 140
f 139 165 195
f 195 142 139
f 166 141 143
f 143 196 166
f 142 195 197
f 142 197 144
f 196 143 167
f 198 145 144
f 199 196 167
f 167 168 199
f 145 200 170
f 146 145 170
f 201 199 168
f 201 168 169
f 202 203 174
f 202 172 204
f 173 172 202
f 174 173 202
f 204 172 171
f 171 205 204
f 176 205 171
f 206 205 176
f 206 176 177
f 207 179 208
f 178 209 180
f 208 179 181
f 209 210 180
f 181 185 208
f 211 208 212
f 180 210 182
f 212 213 211
f 183 185 181
f 212 208 185
f 214 182 210
f 214 158 182
f 158 214 184
f 185 215 212
f 215 216 212
f 215 185 188
f 186 188 185
f 189 133 184
f 215 217 216
f 218 189 184
f 187 192 188
f 215 188 219
f 217 215 219
f 219 188 192
f 220 217 219
f 221 222 219
f 192 221 219
f 192 194 221
f 165 164 193
f 166 223 194
f 223 221 194
f 224 225 165
f 165 225 195
f 222 221 223
f 196 223 166
f 226 197 195
f 195 225 226
f 144 197 226
f 223 196 227
f 228 227 196
f 198 200 145
f 199 228 196
f 228 229 227
f 170 230 169
f 228 199 201
f 231 232 233
f 234 235 202
f 202 233 234
f 202 204 233
f 202 235 203
f 231 233 204
f 206 231 205
f 231 236 237
f 238 237 236
f 231 204 205
f 239 174 203
f 240 238 236
f 174 239 175
f 231 206 207
f 207 236 231
f 241 175 239
f 242 240 236
f 175 241 178
f 207 206 177
f 209 178 241
f 207 177 179
f 207 243 236
f 242 236 243
f 208 243 207
f 242 243 244
f 210 209 245
f 208 211 243
f 244 243 211
f 211 213 244
f 210 245 246
f 213 212 247
f 210 246 214
f 214 246 248
f 248 184 214
f 247 212 216
f 249 247 216
f 184 248 250
f 216 251 249
f 218 184 250
f 216 217 251
f 220 251 217
f 220 219 252
f 252 253 220
f 218 190 189
f 222 252 219
f 190 218 254
f 253 252 255
f 222 256 252
f 255 252 256
f 190 257 193
f 256 222 258
f 193 257 259
f 260 256 258
f 193 259 165
f 165 259 224
f 225 224 261
f 262 258 222
f 262 263 258
f 261 226 225
f 222 223 262
f 144 226 264
f 223 227 262
f 198 144 264
f 262 227 265
f 229 228 266
f 265 227 229
f 228 201 266
f 230 201 169
f 267 234 233
f 233 268 267
f 269 268 233
f 269 233 232
f 232 231 237
f 237 270 232
f 234 267 235
f 203 235 271
f 237 272 270
f 237 238 272
f 272 238 273
f 203 271 239
f 273 238 240
f 240 274 273
f 274 240 242
f 275 209 241
f 276 245 209
f 244 277 242
f 245 276 278
f 277 244 213
f 245 278 279
f 279 246 245
f 213 280 277
f 246 279 281
f 213 247 280
f 281 248 246
f 248 281 282
f 282 250 248
f 250 282 283
f 218 250 283
f 283 284 218
f 251 220 285
f 220 253 286
f 253 287 286
f 284 254 218
f 287 253 255
f 257 190 254
f 256 288 255
f 256 260 288
f 258 289 260
f 224 259 290
f 291 289 258
f 291 258 263
f 263 262 291
f 262 292 291
f 293 226 261
f 293 294 226
f 264 226 294
f 292 262 295
f 265 295 262
f 264 296 198
f 200 198 296
f 170 200 296
f 296 297 170
f 265 229 295
f 229 298 295
f 230 170 297
f 297 299 230
f 300 298 266
f 229 266 298
f 230 301 201
f 266 201 301
f 301 300 266
f 302 303 304
f 303 305 304
f 306 307 308
f 309 304 305
f 307 302 310
f 302 304 310
f 308 307 270
f 309 311 312
f 312 304 309
f 310 304 312
f 310 270 307
f 312 311 268
f 272 308 270
f 308 313 314
f 267 268 311
f 268 269 312
f 310 312 232
f 315 308 272
f 313 308 315
f 232 312 269
f 270 310 232
f 316 271 235
f 267 316 235
f 315 272 273
f 315 273 274
f 317 239 318
f 239 317 241
f 317 275 241
f 242 277 274
f 275 276 209
f 319 279 278
f 319 281 279
f 281 319 320
f 320 282 281
f 247 285 280
f 285 247 249
f 285 249 251
f 284 283 321
f 286 285 220
f 284 321 322
f 322 254 284
f 255 323 287
f 323 255 288
f 324 260 289
f 324 291 325
f 291 324 289
f 224 290 326
f 326 261 224
f 292 325 291
f 296 264 327
f 299 301 230
f 307 306 328
f 329 307 328
f 330 306 331
f 329 302 307
f 332 305 303
f 306 314 331
f 333 309 305
f 308 314 306
f 333 334 309
f 334 311 309
f 334 335 311
f 311 335 267
f 314 313 331
f 267 336 316
f 337 271 316
f 271 337 338
f 271 338 339
f 315 274 313
f 239 271 339
f 339 318 239
f 274 340 313
f 317 341 276
f 276 275 317
f 340 274 277
f 342 276 341
f 276 342 278
f 340 277 343
f 278 344 319
f 343 277 280
f 344 320 319
f 280 345 343
f 345 280 285
f 282 346 283
f 285 347 345
f 283 348 321
f 347 285 286
f 347 286 349
f 349 286 287
f 350 254 322
f 287 323 349
f 351 352 254
f 257 254 352
f 288 353 323
f 353 288 260
f 260 354 353
f 354 260 324
f 324 355 354
f 355 324 325
f 325 356 355
f 357 326 290
f 356 325 292
f 326 358 261
f 292 359 356
f 261 358 293
f 359 292 295
f 293 360 294
f 295 361 359
f 294 362 264
f 362 327 264
f 361 295 363
f 298 363 295
f 364 297 296
f 364 296 327
f 299 297 364
f 299 365 301
f 364 365 299
f 365 366 301
f 366 300 301
f 300 363 298
f 330 367 306
f 367 328 306
f 303 302 332
f 329 332 302
f 368 330 331
f 369 305 332
f 369 333 305
f 334 333 369
f 370 368 331
f 336 267 335
f 370 331 313
f 336 337 316
f 340 371 313
f 372 317 373
f 372 341 317
f 340 374 371
f 375 278 342
f 374 340 343
f 344 278 375
f 374 343 345
f 374 345 376
f 346 348 283
f 376 345 347
f 348 377 321
f 377 322 321
f 349 378 347
f 349 379 378
f 379 380 378
f 379 349 323
f 351 254 350
f 380 379 381
f 353 379 323
f 353 382 379
f 379 383 381
f 382 383 379
f 352 384 257
f 354 382 353
f 259 257 384
f 384 385 259
f 383 382 386
f 290 259 385
f 357 385 387
f 385 357 290
f 382 354 355
f 386 382 388
f 382 355 388
f 357 387 389
f 389 326 357
f 356 390 355
f 389 358 326
f 359 390 356
f 390 388 355
f 358 360 293
f 359 361 390
f 294 360 391
f 362 294 392
f 300 366 393
f 363 300 393
f 330 394 367
f 395 328 367
f 396 329 328
f 328 395 396
f 397 330 368
f 332 329 396
f 368 398 397
f 399 332 396
f 399 369 332
f 369 399 400
f 400 334 369
f 368 370 398
f 400 335 334
f 401 398 370
f 400 402 335
f 402 336 335
f 403 337 336
f 336 402 403
f 404 401 313
f 401 370 313
f 405 338 337
f 313 406 404
f 405 339 338
f 406 313 371
f 407 318 339
f 408 317 318
f 371 409 406
f 371 410 409
f 374 410 371
f 410 374 411
f 344 375 412
f 374 413 411
f 320 344 346
f 282 320 346
f 413 374 376
f 376 414 413
f 414 376 347
f 348 346 377
f 347 415 414
f 415 347 378
f 377 416 322
f 378 417 415
f 417 378 380
f 380 418 417
f 418 380 381
f 351 350 419
f 381 420 418
f 419 352 351
f 352 419 421
f 420 381 383
f 421 384 352
f 422 384 421
f 423 383 386
f 422 385 384
f 422 424 385
f 386 425 423
f 424 387 385
f 387 426 389
f 427 386 388
f 387 424 426
f 426 428 389
f 389 428 358
f 390 427 388
f 390 361 429
f 429 361 430
f 392 294 391
f 363 430 361
f 363 431 430
f 364 432 365
f 432 433 365
f 366 365 433
f 433 434 366
f 393 366 434
f 363 393 435
f 435 431 363
f 395 367 436
f 330 397 394
f 437 399 396
f 396 438 437
f 437 400 399
f 439 400 437
f 440 398 401
f 441 402 400
f 441 400 439
f 442 403 402
f 402 441 442
f 401 404 440
f 443 403 442
f 443 405 337
f 443 337 403
f 404 406 440
f 440 406 444
f 445 339 405
f 445 407 339
f 408 318 407
f 373 317 408
f 406 446 444
f 446 406 409
f 444 446 447
f 448 342 341
f 448 375 342
f 409 410 446
f 446 410 447
f 410 411 447
f 449 447 411
f 449 411 413
f 450 344 412
f 450 346 344
f 413 451 449
f 414 451 413
f 377 346 452
f 415 451 414
f 453 451 415
f 415 417 453
f 416 350 322
f 418 453 417
f 418 454 453
f 418 420 454
f 383 423 420
f 386 427 425
f 426 424 455
f 390 456 427
f 426 455 428
f 456 390 429
f 457 360 358
f 458 362 392
f 327 362 459
f 460 364 327
f 460 461 364
f 432 364 461
f 461 462 432
f 433 432 462
f 462 434 433
f 435 393 434
f 367 394 436
f 396 395 438
f 398 463 397
f 463 398 440
f 441 464 442
f 463 440 465
f 440 444 465
f 445 405 443
f 442 466 443
f 464 466 442
f 443 466 445
f 466 467 445
f 468 407 445
f 445 469 468
f 445 467 469
f 408 407 468
f 408 470 373
f 444 471 465
f 372 373 470
f 471 444 447
f 341 372 472
f 471 447 473
f 448 341 472
f 448 474 375
f 473 447 449
f 474 412 375
f 475 473 449
f 450 476 346
f 449 451 475
f 451 477 478
f 377 452 479
f 451 453 477
f 416 377 479
f 416 479 480
f 453 481 477
f 350 416 480
f 453 454 481
f 454 482 481
f 454 420 482
f 419 483 421
f 481 484 485
f 484 481 482
f 485 484 486
f 420 423 482
f 422 421 483
f 487 482 423
f 487 484 482
f 484 488 486
f 425 487 423
f 484 487 488
f 422 489 424
f 487 425 488
f 427 488 425
f 456 490 488
f 488 427 456
f 491 428 455
f 428 491 358
f 491 457 358
f 429 492 456
f 457 391 360
f 492 429 430
f 362 458 459
f 492 430 493
f 460 327 459
f 431 493 430
f 435 494 493
f 493 431 435
f 495 496 461
f 462 461 496
f 434 497 494
f 494 435 434
f 496 434 462
f 498 436 394
f 394 397 498
f 395 499 438
f 500 498 397
f 437 438 501
f 501 502 437
f 503 439 437
f 437 502 503
f 500 397 463
f 504 441 439
f 504 464 441
f 465 500 463
f 505 466 464
f 466 505 506
f 507 500 465
f 506 467 466
f 467 508 469
f 469 508 468
f 470 408 468
f 465 471 507
f 372 470 509
f 510 507 471
f 472 372 511
f 509 511 372
f 471 473 510
f 510 473 512
f 513 512 473
f 475 513 473
f 514 513 475
f 476 452 346
f 478 514 475
f 515 514 478
f 475 451 478
f 478 477 515
f 515 477 516
f 481 516 477
f 480 517 350
f 517 419 350
f 483 419 517
f 422 483 489
f 488 490 486
f 424 489 455
f 456 518 490
f 455 519 491
f 457 491 519
f 518 456 492
f 520 392 391
f 520 458 392
f 521 459 458
f 492 493 522
f 521 460 459
f 493 523 522
f 460 524 461
f 434 496 525
f 525 497 434
f 526 395 436
f 395 526 499
f 436 527 526
f 527 436 498
f 501 438 499
f 498 528 527
f 498 529 528
f 529 498 500
f 504 439 503
f 500 530 529
f 504 531 464
f 531 532 505
f 464 531 505
f 506 505 532
f 533 506 532
f 530 500 507
f 507 534 530
f 506 533 467
f 508 467 533
f 508 535 468
f 535 470 468
f 507 536 534
f 536 507 510
f 537 472 511
f 472 537 448
f 448 537 474
f 538 512 513
f 474 539 412
f 539 450 412
f 540 538 513
f 513 514 540
f 514 541 540
f 542 541 514
f 514 515 542
f 481 543 516
f 485 543 481
f 517 544 483
f 489 483 545
f 546 489 545
f 489 546 455
f 546 547 455
f 548 457 519
f 520 521 458
f 521 524 460
f 494 497 549
f 524 495 461
f 525 496 550
f 499 526 527
f 551 501 499
f 552 499 527
f 499 553 551
f 527 528 554
f 551 502 501
f 553 499 552
f 554 552 527
f 555 528 529
f 556 555 529
f 551 553 557
f 558 503 502
f 558 502 551
f 552 559 553
f 552 554 559
f 551 560 558
f 560 551 557
f 561 503 558
f 561 504 503
f 558 560 561
f 504 561 531
f 556 529 530
f 562 532 531
f 530 563 556
f 533 532 562
f 534 563 530
f 535 564 470
f 536 563 534
f 564 509 470
f 565 537 511
f 510 566 536
f 510 567 566
f 567 510 512
f 568 474 537
f 474 568 569
f 569 539 474
f 567 512 538
f 450 570 476
f 515 571 542
f 571 515 516
f 516 572 571
f 480 479 573
f 572 516 543
f 480 574 517
f 575 485 486
f 486 576 575
f 483 577 545
f 486 578 576
f 578 486 490
f 490 518 578
f 547 519 455
f 548 519 547
f 457 548 579
f 580 518 492
f 579 391 457
f 579 520 391
f 580 492 522
f 581 521 520
f 582 521 581
f 524 521 582
f 549 583 494
f 493 494 583
f 583 523 493
f 524 582 584
f 525 549 497
f 495 524 584
f 496 495 550
f 585 528 555
f 586 554 528
f 585 586 528
f 586 587 554
f 587 559 554
f 588 560 557
f 560 588 589
f 560 589 561
f 590 556 563
f 531 591 562
f 531 561 591
f 592 533 562
f 508 592 593
f 592 508 533
f 593 535 508
f 535 593 564
f 511 509 565
f 537 565 568
f 567 538 594
f 538 540 594
f 570 450 539
f 539 595 570
f 594 540 541
f 541 596 594
f 596 541 542
f 452 476 570
f 570 597 452
f 596 542 571
f 479 452 597
f 597 573 479
f 573 574 480
f 544 517 574
f 483 544 577
f 547 546 598
f 548 547 598
f 599 580 522
f 549 600 601
f 599 522 523
f 525 600 549
f 549 601 583
f 525 550 600
f 555 556 585
f 585 556 602
f 556 590 602
f 587 603 559
f 553 559 603
f 590 604 602
f 604 590 563
f 563 605 604
f 591 561 589
f 606 562 591
f 562 606 592
f 593 592 607
f 563 608 605
f 607 564 593
f 564 609 509
f 610 509 609
f 608 563 536
f 509 610 565
f 608 536 566
f 565 610 611
f 566 612 608
f 568 565 611
f 612 566 567
f 567 613 612
f 569 568 611
f 567 614 613
f 614 567 594
f 615 569 611
f 615 539 569
f 595 539 615
f 616 594 596
f 617 596 571
f 571 618 617
f 571 572 618
f 619 572 543
f 543 485 619
f 619 485 575
f 620 545 577
f 620 546 545
f 518 580 578
f 548 598 621
f 520 579 622
f 622 581 520
f 581 622 623
f 624 625 600
f 601 600 625
f 623 582 581
f 626 624 600
f 583 601 625
f 600 550 626
f 495 584 627
f 550 495 627
f 585 628 586
f 585 602 628
f 586 628 587
f 587 628 629
f 629 603 587
f 630 557 553
f 630 553 603
f 631 588 557
f 630 631 557
f 588 632 589
f 605 633 604
f 632 591 589
f 634 592 606
f 606 635 634
f 634 636 592
f 608 633 605
f 636 607 592
f 607 636 637
f 637 564 607
f 609 564 637
f 609 638 610
f 639 611 610
f 611 640 615
f 595 615 640
f 616 614 594
f 641 595 640
f 570 595 641
f 617 616 596
f 597 570 641
f 597 641 642
f 597 642 573
f 643 618 572
f 643 572 619
f 574 644 544
f 577 544 644
f 644 620 577
f 546 620 598
f 580 645 578
f 548 621 646
f 548 646 579
f 646 622 579
f 580 599 645
f 645 599 647
f 583 625 647
f 523 647 599
f 583 647 523
f 603 629 630
f 604 648 602
f 604 649 648
f 649 604 633
f 650 588 631
f 632 588 650
f 651 606 591
f 606 651 652
f 652 635 606
f 633 653 654
f 653 633 655
f 655 633 608
f 638 609 637
f 655 608 612
f 612 656 655
f 610 638 639
f 657 613 614
f 640 611 658
f 658 659 640
f 616 657 614
f 616 660 657
f 640 659 641
f 660 616 617
f 660 617 661
f 642 641 659
f 617 662 661
f 662 617 618
f 662 618 663
f 663 618 643
f 642 574 573
f 642 664 574
f 643 665 663
f 643 666 665
f 644 574 664
f 666 643 619
f 666 619 575
f 667 620 644
f 667 598 620
f 576 578 668
f 667 669 598
f 669 621 598
f 578 645 668
f 668 645 670
f 646 671 622
f 672 673 670
f 647 672 670
f 670 645 647
f 672 674 673
f 625 672 647
f 624 626 674
f 674 625 624
f 625 674 672
f 582 623 627
f 627 584 582
f 550 627 675
f 626 550 675
f 648 676 677
f 602 677 678
f 602 648 677
f 602 678 628
f 629 628 678
f 648 649 676
f 631 630 679
f 679 680 631
f 649 654 676
f 654 649 633
f 591 632 651
f 652 681 635
f 635 681 634
f 681 636 634
f 681 682 636
f 682 637 636
f 682 683 637
f 684 638 637
f 637 683 684
f 612 685 656
f 685 612 613
f 639 658 611
f 639 686 658
f 685 613 657
f 657 687 685
f 657 688 687
f 688 657 660
f 689 659 658
f 688 660 661
f 661 690 688
f 642 659 689
f 690 661 662
f 689 691 642
f 662 663 690
f 663 692 690
f 691 664 642
f 663 693 692
f 693 663 665
f 665 666 693
f 575 694 666
f 694 575 695
f 696 695 575
f 576 696 575
f 697 667 644
f 667 697 698
f 576 668 696
f 696 668 699
f 700 699 668
f 701 621 669
f 700 702 699
f 621 701 703
f 703 646 621
f 670 700 668
f 704 702 700
f 705 646 703
f 706 702 704
f 700 673 704
f 673 700 670
f 646 705 671
f 707 706 704
f 622 671 708
f 704 673 707
f 707 673 674
f 622 708 623
f 627 623 709
f 626 710 674
f 709 675 627
f 710 626 675
f 711 712 677
f 677 713 711
f 678 677 712
f 713 677 676
f 678 714 629
f 714 715 629
f 715 716 629
f 629 716 630
f 679 630 716
f 676 654 713
f 631 680 717
f 631 717 650
f 717 718 650
f 650 718 632
f 719 632 718
f 651 632 719
f 720 681 721
f 719 721 652
f 652 651 719
f 681 652 721
f 722 654 653
f 723 682 720
f 682 681 720
f 724 682 723
f 655 725 722
f 722 653 655
f 726 683 724
f 683 682 724
f 684 683 726
f 725 655 656
f 656 727 725
f 638 728 639
f 685 729 727
f 685 727 656
f 686 730 658
f 685 687 731
f 730 732 658
f 687 688 731
f 689 658 732
f 733 731 688
f 688 690 733
f 690 692 733
f 692 734 733
f 691 735 664
f 692 693 734
f 666 734 693
f 694 734 666
f 735 736 664
f 664 697 644
f 697 664 736
f 736 698 697
f 696 737 695
f 696 699 737
f 738 669 698
f 698 669 667
f 699 739 737
f 701 669 738
f 699 740 739
f 703 701 738
f 740 699 702
f 703 738 741
f 702 742 740
f 741 705 703
f 741 671 705
f 671 741 743
f 702 744 742
f 744 702 706
f 744 706 707
f 707 745 744
f 743 708 671
f 708 743 746
f 746 747 708
f 707 674 745
f 747 709 708
f 745 674 710
f 708 709 623
f 709 710 675
f 748 712 749
f 678 712 748
f 712 711 749
f 714 678 748
f 750 711 713
f 715 714 751
f 715 751 716
f 752 750 713
f 713 654 752
f 680 753 717
f 754 717 753
f 718 754 755
f 754 718 717
f 756 719 718
f 718 755 756
f 757 720 721
f 719 756 721
f 758 752 654
f 654 722 758
f 723 720 757
f 723 757 759
f 724 723 759
f 725 758 722
f 759 726 724
f 726 759 760
f 758 725 761
f 760 684 726
f 684 760 728
f 727 761 725
f 684 728 638
f 728 762 639
f 761 763 764
f 763 761 727
f 727 729 763
f 639 762 686
f 764 763 765
f 729 731 763
f 729 685 731
f 763 766 765
f 763 731 766
f 767 765 766
f 732 730 768
f 769 766 731
f 766 769 767
f 767 769 770
f 770 769 771
f 731 733 769
f 691 689 772
f 773 771 769
f 771 773 774
f 734 773 769
f 733 734 769
f 775 691 772
f 776 774 773
f 775 735 691
f 777 773 734
f 773 777 776
f 734 694 777
f 735 775 778
f 776 777 779
f 778 736 735
f 780 777 694
f 694 695 780
f 698 736 781
f 782 779 777
f 781 783 698
f 780 782 777
f 737 780 695
f 739 780 737
f 783 738 698
f 738 783 784
f 780 739 785
f 784 741 738
f 742 785 739
f 740 742 739
f 784 786 741
f 786 743 741
f 787 747 746
f 709 747 788
f 789 709 788
f 710 790 745
f 710 709 789
f 789 790 710
f 791 748 749
f 748 792 714
f 792 748 791
f 749 711 750
f 791 749 750
f 714 792 751
f 679 716 793
f 794 750 752
f 793 680 679
f 753 680 793
f 755 754 795
f 752 796 794
f 796 752 758
f 721 797 757
f 721 798 797
f 798 721 756
f 757 797 799
f 757 799 759
f 758 800 796
f 801 759 799
f 802 801 799
f 800 758 761
f 759 801 760
f 728 760 801
f 803 728 801
f 803 801 802
f 761 804 800
f 728 803 762
f 804 761 764
f 764 805 804
f 762 806 686
f 805 764 765
f 765 807 805
f 730 686 806
f 730 806 768
f 807 765 767
f 767 808 807
f 732 768 809
f 808 767 770
f 732 809 810
f 732 810 689
f 770 811 808
f 811 770 771
f 772 689 810
f 771 812 811
f 810 813 772
f 812 771 774
f 774 814 812
f 813 775 772
f 813 815 775
f 814 774 776
f 776 816 814
f 815 778 775
f 776 817 816
f 817 776 779
f 781 736 778
f 817 779 782
f 782 818 817
f 818 782 780
f 780 785 818
f 819 784 783
f 786 784 819
f 820 785 742
f 743 786 821
f 744 822 820
f 820 742 744
f 821 746 743
f 746 821 787
f 744 823 822
f 788 747 787
f 823 744 745
f 788 790 789
f 790 823 745
f 791 824 792
f 792 825 751
f 825 792 824
f 824 791 750
f 794 824 750
f 751 826 716
f 826 793 716
f 827 756 755
f 828 798 756
f 798 828 829
f 829 797 798
f 829 799 797
f 800 830 796
f 831 802 799
f 831 803 802
f 804 830 800
f 832 762 803
f 803 833 832
f 804 834 830
f 835 830 834
f 762 832 836
f 804 805 834
f 762 836 806
f 834 837 835
f 834 805 838
f 807 838 805
f 838 839 834
f 837 834 839
f 768 840 841
f 808 838 807
f 768 841 809
f 839 838 842
f 838 808 843
f 839 844 837
f 843 808 811
f 843 842 838
f 810 809 841
f 844 839 842
f 842 845 844
f 840 846 841
f 812 843 811
f 847 845 842
f 813 810 841
f 842 843 848
f 849 843 812
f 814 849 812
f 813 841 846
f 847 842 848
f 815 813 846
f 848 850 847
f 849 848 843
f 851 848 849
f 815 846 852
f 814 851 849
f 850 848 853
f 816 851 814
f 846 854 852
f 851 816 817
f 855 853 848
f 848 851 855
f 854 856 852
f 855 851 817
f 852 856 815
f 855 817 857
f 781 778 815
f 781 815 856
f 856 819 781
f 818 857 817
f 781 819 783
f 856 858 859
f 819 856 859
f 786 819 859
f 859 860 786
f 820 861 785
f 822 862 820
f 786 860 821
f 822 823 862
f 860 863 787
f 787 821 860
f 863 788 787
f 863 790 788
f 863 864 790
f 790 864 823
f 865 825 824
f 824 866 865
f 751 825 867
f 825 865 867
f 867 826 751
f 824 868 866
f 868 824 794
f 869 793 826
f 793 869 753
f 754 753 869
f 795 754 869
f 795 827 755
f 794 870 868
f 794 796 870
f 828 756 827
f 829 828 871
f 870 796 830
f 799 829 871
f 799 871 831
f 830 872 870
f 831 833 803
f 872 830 835
f 837 873 835
f 836 874 806
f 836 875 874
f 768 806 874
f 840 768 874
f 837 876 873
f 844 876 837
f 877 844 845
f 840 878 846
f 845 847 879
f 878 880 846
f 881 850 853
f 854 846 880
f 853 882 881
f 854 880 883
f 882 853 855
f 856 854 883
f 856 883 858
f 855 884 882
f 857 884 855
f 859 858 885
f 818 886 857
f 886 818 785
f 785 861 886
f 885 860 859
f 885 887 860
f 862 861 820
f 863 860 887
f 823 888 862
f 863 887 889
f 864 889 888
f 863 889 864
f 888 823 864
f 890 865 866
f 867 890 891
f 890 867 865
f 868 890 866
f 867 891 826
f 892 826 891
f 890 893 891
f 893 890 868
f 892 869 826
f 894 795 869
f 869 892 894
f 895 891 893
f 894 827 795
f 868 870 893
f 896 894 892
f 892 891 896
f 827 894 897
f 827 897 828
f 894 896 898
f 899 896 891
f 898 897 894
f 897 898 828
f 828 900 871
f 828 898 900
f 901 898 896
f 902 900 898
f 903 871 900
f 903 900 902
f 903 831 871
f 904 833 831
f 904 831 903
f 905 872 835
f 904 832 833
f 873 905 835
f 832 875 836
f 840 874 906
f 844 877 876
f 878 840 906
f 906 907 878
f 845 879 877
f 880 878 907
f 908 847 850
f 907 909 880
f 909 910 880
f 881 882 911
f 911 882 912
f 910 883 880
f 883 910 913
f 882 884 912
f 913 858 883
f 913 885 858
f 914 885 913
f 915 885 914
f 884 857 886
f 887 885 915
f 916 861 862
f 887 915 889
f 916 862 888
f 899 891 895
f 870 895 893
f 917 899 895
f 917 895 870
f 899 917 918
f 901 896 899
f 899 918 919
f 917 920 918
f 899 919 901
f 917 870 872
f 921 901 919
f 898 901 902
f 918 922 919
f 872 905 917
f 901 921 902
f 902 923 903
f 923 902 921
f 921 924 923
f 875 832 904
f 875 904 903
f 903 923 925
f 926 905 873
f 923 924 925
f 927 875 903
f 928 925 924
f 903 925 927
f 873 929 926
f 930 927 925
f 929 873 876
f 906 874 875
f 875 927 906
f 876 931 929
f 906 927 932
f 876 877 931
f 906 932 907
f 847 908 879
f 908 850 881
f 881 911 908
f 933 910 909
f 912 934 911
f 933 913 910
f 884 934 912
f 915 914 935
f 936 886 861
f 937 936 916
f 936 861 916
f 935 889 915
f 889 935 938
f 888 889 938
f 938 937 916
f 916 888 938
f 918 920 922
f 905 920 917
f 939 920 905
f 939 922 920
f 940 919 922
f 941 922 939
f 942 921 919
f 922 941 940
f 940 942 919
f 924 921 942
f 905 926 939
f 943 942 940
f 941 943 940
f 941 939 944
f 939 926 944
f 943 945 942
f 945 924 942
f 944 946 941
f 926 947 944
f 941 948 943
f 929 947 926
f 924 945 928
f 930 925 928
f 949 945 943
f 930 928 950
f 930 932 927
f 928 951 950
f 930 950 932
f 952 945 949
f 951 928 945
f 953 931 877
f 945 952 951
f 951 954 950
f 951 955 954
f 877 956 953
f 957 932 950
f 956 877 879
f 957 907 932
f 956 879 958
f 909 907 957
f 957 950 959
f 958 879 908
f 933 957 959
f 908 960 958
f 957 933 909
f 911 960 908
f 933 961 913
f 913 961 914
f 962 914 961
f 962 935 914
f 886 963 884
f 963 886 964
f 886 936 964
f 965 938 935
f 966 938 965
f 938 966 937
f 941 946 948
f 946 944 947
f 943 948 949
f 967 948 946
f 968 948 967
f 967 946 947
f 929 931 947
f 968 949 948
f 969 947 931
f 947 969 967
f 931 953 969
f 949 968 952
f 952 968 970
f 951 952 955
f 970 955 952
f 968 971 970
f 953 972 969
f 953 956 972
f 970 973 955
f 971 973 970
f 954 955 973
f 974 954 973
f 975 956 958
f 959 950 954
f 976 974 973
f 958 977 975
f 954 974 959
f 958 960 977
f 961 933 959
f 960 911 978
f 961 959 974
f 979 961 974
f 979 980 981
f 982 934 884
f 979 962 961
f 962 979 981
f 982 884 963
f 965 962 981
f 935 962 965
f 965 981 966
f 937 983 984
f 983 937 966
f 964 936 984
f 936 937 984
f 968 985 986
f 985 968 967
f 969 985 967
f 987 986 985
f 988 985 969
f 968 986 971
f 985 989 987
f 972 988 969
f 986 990 971
f 990 986 987
f 987 991 990
f 956 975 972
f 992 973 971
f 971 990 993
f 992 971 993
f 973 992 976
f 980 976 992
f 977 960 978
f 980 992 993
f 980 974 976
f 979 974 980
f 993 994 980
f 995 993 996
f 997 978 911
f 996 998 995
f 997 911 934
f 934 982 997
f 981 980 994
f 984 995 998
f 995 994 993
f 982 963 999
f 995 984 983
f 995 983 994
f 963 964 999
f 981 994 966
f 966 994 983
f 984 999 964
f 985 988 989
f 991 987 989
f 988 1000 989
f 989 1000 1001
f 972 975 988
f 991 989 1001
f 1000 988 975
f 990 991 993
f 996 993 991
f 975 977 1000
f 978 1001 1000
f 1000 977 978
f 996 991 1001
f 1002 996 1001
f 997 1001 978
f 998 996 1002
f 982 1001 997
f 1002 999 998
f 982 1002 1001
f 998 999 984
f 1002 982 999
