v -309.911377 -55.327637 -120.661377

v -299.606750 -50.509277 -121.703369

v -299.857971 -52.582031 -122.330635

v -312.564453 -64.035400 -122.213898

v -314.929688 -57.530273 -118.814453

v -291.734131 -51.569611 -121.345200

v -284.131531 -58.410706 -122.271317

v -312.940186 -71.140198 -121.316650

v -316.708984 -67.815918 -119.233398

v -311.178650 -69.001984 -122.288429

v -283.296539 -55.408936 -120.435425

v -302.587402 -82.550781 -122.249207

v -277.430786 -65.607391 -120.744110

v -278.030670 -70.446472 -122.206093

v -308.335449 -78.734558 -121.157227

v -298.798828 -90.973633 -120.956299

v -273.653748 -75.368103 -120.464661

v -275.015869 -84.164795 -122.189575

v -272.414063 -84.813339 -121.505699

v -291.801270 -94.168945 -122.187469

v -290.005859 -100.353271 -121.307739

v -270.735107 -84.980042 -120.146118

v -280.791321 -108.589111 -122.110565

v -263.451477 -99.127907 -120.587021

v -265.328583 -103.446442 -122.129593

v -261.948669 -104.607666 -121.683777

v -279.963623 -113.381104 -121.308838

v -269.866333 -116.564697 -122.013016

v -260.080963 -112.533752 -122.066193

v -258.193878 -108.285156 -120.502869

v -258.236572 -114.219604 -120.612305

v -261.379700 -117.619995 -121.280518

v -269.210938 -121.613281 -118.287109

v -309.974609 -47.307007 -116.955566

v -301.125244 -42.773682 -117.003357

v -300.700317 -48.295410 -119.654785

v -317.938721 -52.469666 -115.103149

v -320.533203 -64.768921 -117.419922

v -323.471436 -63.633636 -115.009766

v -292.828064 -45.345276 -117.053497

v -287.665283 -48.426392 -116.395752

v -322.009766 -68.954102 -115.233398

v -316.810059 -75.837891 -114.807556

v -281.602081 -54.879517 -116.338074

v -309.966309 -82.263977 -115.285645

v -275.208008 -69.076515 -115.931580

v -299.365234 -97.580566 -116.080811

v -271.710632 -77.939262 -116.158173

v -269.630188 -84.854652 -116.202774

v -293.053833 -107.535156 -115.401855

v -283.245239 -118.409668 -115.073730

v -256.772247 -107.962921 -116.128059

v -276.689331 -122.389160 -115.287109

v -255.097687 -113.768127 -116.380066

v -268.998657 -125.549072 -115.006348

v -258.388062 -120.128174 -118.773865

v -252.917694 -120.069702 -116.474731

v -258.472168 -126.857422 -115.422363

v -254.056381 -123.558105 -117.167908

v -253.219406 -126.446281 -114.432159

v -324.575195 -48.633545 -110.982910

v -319.048340 -47.037094 -113.252686

v -325.014648 -55.147461 -113.697388

v -329.409912 -56.449951 -111.145630

v -312.215088 -42.290771 -112.711426

v -327.521484 -63.740723 -113.818726

v -298.680420 -38.566711 -109.342896

v -331.694946 -64.605469 -110.827637

v -289.974182 -45.230286 -111.745850

v -325.677246 -73.631958 -113.694702

v -282.802734 -55.144043 -111.481445

v -320.550171 -80.768555 -113.987457

v -325.831421 -82.002075 -110.643494

v -314.733795 -87.728516 -113.945618

v -312.255188 -82.505966 -114.388428

v -275.986816 -70.793213 -111.625977

v -301.704590 -99.125000 -114.455078

v -304.845703 -101.160965 -114.148605

v -271.458252 -83.740784 -111.866943

v -305.292206 -105.572372 -113.383560

v -317.770813 -92.019287 -110.537506

v -296.718750 -106.426270 -114.347595

v -301.150818 -110.304932 -113.976990

v -306.395508 -111.429565 -110.617920

v -261.869141 -101.200562 -111.735840

v -289.008789 -116.548096 -114.194534

v -302.123352 -116.886963 -110.655701

v -296.429199 -116.968750 -113.951080

v -291.977600 -130.162842 -110.601624

v -287.532349 -128.905762 -113.393066

v -257.442078 -109.855957 -111.600830

v -284.402954 -127.891602 -114.089447

v -279.857422 -123.744507 -114.179398

v -268.006348 -128.418335 -114.141891

v -253.063522 -119.382080 -111.908447

v -269.646545 -141.114990 -113.386963

v -266.455566 -140.486816 -114.019501

v -251.650543 -125.720802 -112.494278

v -253.676941 -129.667908 -114.049248

v -247.734497 -133.532196 -112.705078

v -246.026123 -140.237549 -113.987762

v -241.784332 -140.492508 -112.595901

v -249.557251 -151.621460 -113.929413

v -256.858398 -150.406982 -113.253662

v -259.022461 -152.821045 -110.841309

v -248.540100 -154.443848 -112.989258

v -238.491669 -152.464996 -113.812027

v -236.646683 -149.262268 -112.581985

v -237.204407 -157.820251 -110.281799

v -248.823486 -157.304932 -110.688599

v -234.926498 -155.765900 -108.368835

v -329.940979 -49.240112 -108.955078

v -321.583496 -43.603027 -107.926270

v -312.999512 -37.919678 -107.184082

v -304.651611 -36.639648 -108.846680

v -336.884094 -56.415100 -109.054932

v -338.683594 -59.973145 -109.050537

v -336.627075 -60.492371 -110.163605

v -336.778198 -65.720062 -110.267899

v -339.629395 -70.256592 -109.701660

v -293.539063 -42.671753 -107.564209

v -330.570618 -72.964371 -110.562317

v -336.670715 -76.810181 -110.119873

v -341.136719 -77.630371 -107.157715

v -287.865234 -51.390625 -107.567383

v -328.798126 -86.740112 -110.060364

v -334.463989 -86.622803 -107.008789

v -327.912598 -96.253906 -107.124512

v -280.828125 -67.456055 -107.609863

v -321.490479 -98.433228 -109.956421

v -276.889648 -79.015625 -107.634277

v -315.240234 -105.814453 -110.098114

v -316.234863 -108.366180 -109.315552

v -321.981201 -106.625000 -105.967285

v -274.278809 -85.749023 -107.594727

v -308.867432 -117.223297 -109.513611

v -268.942871 -95.622803 -107.467285

v -303.916748 -123.730469 -109.559021

v -305.461914 -129.230469 -104.086914

v -297.544678 -131.640137 -109.378296

v -288.453491 -139.677490 -109.945526

v -289.828857 -141.397705 -109.143311

v -261.378906 -112.984863 -105.503906

v -279.423920 -139.622681 -110.276703

v -252.636139 -123.494629 -108.915527

v -279.604492 -148.416016 -110.017395

v -280.705444 -151.328613 -109.082031

v -270.063110 -146.159912 -110.263611

v -248.144165 -131.340820 -106.875000

v -264.840576 -152.143311 -110.023079

v -242.503418 -138.137085 -107.690063

v -273.885010 -156.988770 -109.847229

v -237.721497 -145.050232 -108.110107

v -265.534515 -164.985168 -109.898941

v -251.180542 -159.592041 -109.975357

v -235.433838 -152.312012 -107.755005

v -262.117432 -171.198486 -109.122559

v -265.594727 -171.455200 -106.973145

v -238.953857 -160.091248 -109.952942

v -258.146576 -171.476929 -109.909470

v -246.526001 -175.106384 -109.896858

v -232.752625 -162.084702 -108.101257

v -234.718323 -165.398804 -109.854012

v -254.313477 -175.978516 -109.155273

v -233.257767 -166.096481 -108.950150

v -244.814941 -177.720215 -109.048218

v -236.180267 -171.983215 -109.237427

v -257.203125 -179.191284 -106.230377

v -233.487549 -176.168137 -106.080215

v -327.187012 -43.270508 -104.966309

v -318.950439 -37.627220 -104.562500

v -330.478149 -42.970276 -100.515381

v -308.977356 -35.366600 -104.508789

v -336.236267 -49.281982 -101.283203

v -303.315125 -36.270741 -104.247742

v -298.486328 -39.764648 -103.788330

v -344.390625 -70.130859 -105.535156

v -348.756348 -69.322754 -100.610107

v -349.930664 -74.189453 -100.908203

v -346.935547 -78.685059 -103.366699

v -290.935547 -50.338379 -105.244141

v -340.725830 -87.057861 -105.631348

v -332.449219 -97.239014 -105.619629

v -293.049072 -62.125488 -101.102539

v -285.865234 -67.464844 -104.658203

v -343.651855 -89.858093 -102.892944

v -332.722870 -102.099121 -102.924072

v -282.240234 -76.265625 -105.114258

v -277.759766 -87.562500 -104.808594

v -313.245605 -120.635742 -103.211426

v -322.217285 -111.006104 -103.224121

v -269.074219 -102.348633 -105.020508

v -268.138153 -110.446533 -99.281982

v -301.193848 -138.413574 -102.889771

v -258.029297 -122.353516 -100.276855

v -294.604980 -146.399658 -102.801636

v -288.020477 -154.596436 -102.565430

v -252.552246 -128.921875 -100.162842

v -241.845337 -142.571640 -100.214844

v -283.794922 -159.727539 -102.626099

v -278.295166 -167.226074 -102.663574

v -269.705414 -172.379883 -105.473389

v -274.173340 -176.036133 -101.660645

v -239.330475 -152.353516 -99.627441

v -234.496689 -157.461304 -104.433105

v -263.055176 -183.927490 -104.917847

v -270.152100 -177.820313 -102.705078

v -260.883545 -182.272461 -105.868530

v -231.193970 -164.617157 -104.526062

v -229.989380 -169.141602 -104.582520

v -231.190353 -172.173172 -105.982498

v -245.600739 -180.795288 -106.646545

v -245.037903 -184.147705 -105.887573

v -255.309280 -190.225830 -105.800842

v -256.623291 -192.414886 -104.274658

v -224.719238 -178.770996 -103.828857

v -224.975754 -183.286407 -105.217941

v -246.354370 -196.970337 -105.828461

v -251.280212 -196.420654 -104.670654

v -226.307678 -189.825104 -105.794159

v -236.826782 -199.400330 -105.772675

v -246.303162 -200.445923 -104.668091

v -224.603363 -191.551178 -105.023407

v -237.151367 -201.904297 -104.764893

v -239.314941 -204.653320 -102.017090

v -229.015259 -197.359680 -105.164001

v -323.005188 -37.872707 -98.761139

v -311.973633 -34.391342 -96.175346

v -344.117920 -59.208618 -100.885254

v -305.356750 -36.344528 -100.830078

v -302.459961 -39.079712 -101.100830

v -296.327393 -50.288452 -100.918457

v -351.436951 -84.143127 -101.302490

v -349.964233 -89.012085 -101.584717

v -344.588379 -96.960602 -101.546265

v -335.534180 -106.711426 -101.523621

v -288.637695 -74.708008 -100.841797

v -329.139893 -112.918335 -101.633820

v -290.028320 -81.625000 -95.910156

v -320.185303 -116.210205 -102.402405

v -287.046875 -87.558594 -95.800781

v -279.839844 -93.588448 -99.651367

v -323.071747 -119.892822 -101.447571

v -274.606140 -101.403809 -99.355957

v -317.478149 -126.246826 -101.562805

v -308.064209 -128.968262 -102.508942

v -310.488708 -135.351440 -101.486084

v -304.933716 -143.128906 -101.243652

v -260.227905 -121.860596 -98.766357

v -299.342773 -150.196289 -101.526001

v -291.156128 -160.568359 -101.514587

v -248.161316 -135.378845 -99.281860

v -281.996582 -170.042236 -101.179688

v -232.981934 -162.597168 -99.798096

v -270.224609 -183.410156 -98.907837

v -260.678711 -191.883789 -99.083984

v -227.857452 -169.959717 -99.937164

v -252.983887 -198.337891 -98.966309

v -220.258789 -182.324707 -99.931885

v -220.066040 -187.705811 -101.990051

v -245.113281 -204.397461 -98.439453

v -216.178467 -191.268982 -100.038452

v -215.855545 -197.110016 -101.153542

v -221.881592 -195.616089 -102.103142

v -230.965012 -203.597534 -102.350525

v -217.830017 -200.635117 -101.507599

v -231.002380 -210.138672 -99.416748

v -240.203949 -209.371094 -97.514648

v -224.708862 -206.221924 -101.301514

v -213.731995 -202.643555 -98.570984

v -223.090210 -210.565125 -98.036255

v -332.024048 -43.634682 -96.392242

v -340.049927 -52.547878 -96.339539

v -346.632751 -62.359253 -96.553467

v -305.092041 -40.048340 -92.140137

v -298.659180 -51.192383 -95.882813

v -355.493652 -85.311523 -93.819336

v -353.523438 -91.492188 -95.709961

v -295.737305 -65.037659 -95.272461

v -346.958862 -103.081665 -95.269165

v -335.689453 -113.011719 -95.035828

v -329.722412 -117.996094 -95.488281

v -281.811279 -96.916016 -97.329102

v -321.485840 -127.246887 -95.347168

v -271.484375 -114.957031 -97.106201

v -314.337402 -137.618896 -95.585449

v -284.796875 -100.464844 -94.041016

v -267.352051 -120.130859 -97.199951

v -270.461914 -120.691895 -94.951660

v -306.246094 -149.720215 -95.253662

v -258.398193 -132.723633 -97.819580

v -256.910583 -126.859192 -98.382111

v -258.332764 -134.888184 -97.281128

v -299.961426 -159.048828 -95.274902

v -251.354462 -134.087158 -98.318512

v -260.534180 -136.444824 -95.166992

v -292.825195 -169.669296 -95.080566

v -243.876465 -150.612488 -97.464233

v -242.845703 -144.680969 -98.549255

v -285.203613 -176.773438 -96.668945

v -274.543945 -186.448730 -96.971436

v -235.680176 -163.605469 -95.770020

v -227.518311 -173.286133 -94.855957

v -259.054688 -196.592346 -97.343750

v -267.791992 -194.935181 -94.829102

v -254.245117 -202.309814 -94.752686

v -220.711441 -180.101440 -96.300415

v -247.768555 -205.360840 -95.303711

v -212.353394 -194.260498 -94.321289

v -210.552979 -201.564636 -96.072388

v -231.597900 -215.659424 -97.225830

v -212.645752 -208.836578 -96.873444

v -224.154419 -217.464355 -97.473999

v -217.505981 -213.772644 -97.571564

v -228.881104 -218.380127 -96.016113

v -216.353851 -215.901718 -96.031281

v -222.813461 -219.164917 -95.597656

v -328.212585 -43.473083 -91.394241

v -320.199249 -39.004414 -91.854736

v -332.996246 -46.948151 -91.315582

v -311.196350 -35.277164 -91.735085

v -336.831970 -49.647003 -92.114120

v -340.728882 -54.420227 -91.928284

v -306.583130 -36.454697 -92.151611

v -346.440796 -62.601318 -91.927856

v -352.154785 -72.514648 -92.938965

v -303.747803 -49.228516 -91.492554

v -300.894531 -61.429810 -91.444580

v -358.553711 -93.483398 -91.108398

v -354.505371 -95.556030 -94.337341

v -356.793213 -98.783936 -93.465088

v -353.951416 -100.963989 -94.290085

v -296.164551 -77.580750 -91.320313

v -353.972656 -109.663818 -93.543457

v -347.213806 -114.182678 -94.036621

v -341.870117 -110.585205 -94.418304

v -357.103760 -112.605835 -90.545410

v -351.597504 -117.479309 -90.554138

v -341.399780 -121.717041 -90.603516

v -290.837891 -93.099609 -91.556641

v -331.020020 -122.102783 -93.551025

v -334.716309 -124.932251 -90.509796

v -326.027008 -131.509521 -90.713867

v -283.248047 -108.732422 -91.759766

v -276.901123 -118.954590 -93.102295

v -317.072266 -145.041260 -91.250488

v -270.596466 -130.173828 -93.004272

v -312.904541 -152.409912 -90.552002

v -309.116180 -155.942413 -91.659210

v -300.405762 -167.481445 -92.963867

v -262.666565 -140.847900 -92.812988

v -249.927490 -154.867310 -92.703369

v -290.351563 -178.299408 -93.289063

v -295.019531 -178.941772 -90.474670

v -283.191406 -190.573242 -90.749756

v -239.800781 -164.605469 -92.925781

v -277.550781 -186.953613 -95.126953

v -277.361328 -192.316406 -93.043945

v -264.297791 -203.269531 -93.200806

v -273.414307 -200.587891 -90.559082

v -225.135254 -178.167969 -91.491211

v -219.349121 -183.443115 -91.385986

v -248.365967 -209.642334 -93.207520

v -263.088867 -207.545898 -90.655029

v -214.360687 -190.107544 -90.951660

v -240.115112 -217.655029 -90.496582

v -207.827942 -200.818115 -87.655884

v -208.024048 -203.559006 -89.765381

v -229.826294 -220.558838 -90.911621

v -209.602386 -208.121033 -91.147415

v -214.324615 -216.848267 -90.884277

v -221.665665 -220.775146 -90.679199

v -316.233276 -40.881104 -90.451721

v -335.731934 -51.675720 -90.686768

v -308.817139 -36.875244 -90.638306

v -321.544098 -46.375183 -89.660339

v -315.035156 -44.757813 -89.791290

v -337.518005 -56.969910 -89.103516

v -306.529999 -44.450073 -90.536865

v -315.573975 -47.988281 -87.260254

v -322.942230 -53.541138 -84.888184

v -310.653076 -47.649948 -89.816895

v -349.071655 -69.325195 -88.213379

v -353.443665 -75.355591 -88.296143

v -307.529541 -55.760010 -89.274170

v -358.606201 -88.285645 -88.000122

v -360.889648 -106.166992 -89.372559

v -304.365295 -68.053711 -89.075806

v -300.153320 -80.289551 -89.183105

v -359.567261 -115.149902 -89.450195

v -353.360107 -124.562134 -89.875916

v -362.692871 -119.587891 -85.536133

v -295.986328 -92.034668 -89.205078

v -299.263672 -89.572998 -87.330078

v -345.877350 -127.460388 -90.030777

v -294.746826 -99.400146 -87.260498

v -355.036865 -128.102539 -87.021729

v -345.851074 -132.362427 -86.733521

v -333.855103 -131.890076 -89.705261

v -291.621094 -105.916992 -87.649414

v -323.981445 -140.656250 -89.321777

v -327.109131 -140.989258 -87.249512

v -336.323364 -135.491577 -86.581757

v -284.821045 -115.849609 -87.352295

v -278.321777 -125.335938 -87.255859

v -318.709381 -152.666504 -89.357422

v -324.072266 -147.925781 -86.753906

v -317.459839 -155.372559 -89.644775

v -269.396729 -140.445313 -87.250000

v -311.222473 -157.513397 -90.346519

v -303.743530 -168.462982 -90.505188

v -307.039673 -174.067871 -89.599731

v -259.235352 -150.859375 -87.384521

v -299.572571 -182.906860 -89.471436

v -306.167969 -181.787109 -86.455078

v -250.340942 -160.689453 -87.113770

v -289.314575 -191.200195 -89.387573

v -242.779297 -167.646973 -87.093506

v -279.453613 -200.107422 -88.814941

v -231.524414 -177.795898 -87.160156

v -268.661621 -209.139893 -88.749512

v -275.124512 -207.041016 -86.658203

v -217.227051 -189.417969 -87.342285

v -254.855103 -215.893311 -88.928833

v -252.919434 -211.512695 -90.594482

v -212.480469 -193.635254 -86.949951

v -241.420898 -220.346680 -88.802490

v -203.060791 -211.278946 -85.497070

v -224.461853 -223.863770 -87.223145

v -206.931396 -213.940201 -88.416779

v -212.478027 -219.668945 -88.219727

v -332.149902 -61.392517 -83.055908

v -317.599487 -51.866211 -85.254883

v -340.378845 -66.364014 -83.383667

v -320.713928 -56.833496 -81.979492

v -311.838623 -55.091797 -85.510254

v -350.867432 -75.475098 -84.051025

v -355.846924 -84.042725 -83.444580

v -309.183594 -61.976563 -83.589844

v -361.913635 -95.226074 -84.597656

v -310.405884 -70.298096 -79.173462

v -363.622559 -104.209473 -84.608398

v -305.504395 -78.425781 -85.332031

v -364.240723 -112.052246 -84.883789

v -304.376099 -88.004395 -84.956299

v -361.483398 -125.085938 -84.869141

v -300.741760 -98.656250 -85.245361

v -359.297852 -133.466064 -83.015381

v -354.182739 -134.024902 -85.482666

v -345.937256 -138.725647 -85.823853

v -350.923340 -140.438843 -82.926147

v -336.491821 -142.689789 -85.819946

v -291.840302 -115.044922 -85.012695

v -328.522217 -145.463623 -85.710205

v -330.058472 -148.774902 -82.973877

v -286.084961 -125.135315 -83.230957

v -278.803223 -134.880371 -82.684692

v -325.407715 -153.129883 -83.011230

v -320.824219 -164.617920 -83.265625

v -269.297546 -150.866943 -82.802979

v -316.106354 -172.206238 -83.626373

v -264.836914 -151.458496 -84.926758

v -309.749756 -185.416016 -82.684570

v -258.541016 -161.052246 -82.699097

v -302.685120 -187.957031 -85.433594

v -301.772705 -193.240479 -82.919922

v -292.527344 -192.745605 -86.888672

v -293.283051 -196.806641 -84.922852

v -245.887329 -173.152344 -82.725586

v -284.519531 -199.461426 -86.855957

v -286.143311 -203.524414 -84.997070

v -288.123047 -206.648438 -82.146484

v -233.695313 -181.657227 -84.355469

v -278.483398 -209.666992 -84.521484

v -269.195313 -212.675781 -85.634766

v -221.069824 -191.662109 -84.721436

v -256.064453 -220.691101 -83.000000

v -268.316406 -216.804688 -82.010742

v -210.050293 -199.073242 -82.870605

v -203.214996 -206.543686 -83.836823

v -238.145508 -227.780762 -82.498047

v -221.490417 -227.184570 -84.386963

v -204.182648 -219.245117 -82.602295

v -212.217163 -223.748779 -84.812500

v -325.254456 -61.662415 -79.466446

v -314.909668 -61.892578 -79.743164

v -338.690857 -71.515198 -79.335587

v -318.954681 -61.962708 -78.445282

v -345.103149 -77.550049 -79.012451

v -359.456909 -91.916992 -80.100098

v -364.247864 -103.492188 -80.169067

v -309.813843 -77.940186 -79.129700

v -365.348267 -117.791870 -80.952637

v -308.953430 -86.589462 -78.864441

v -365.086426 -125.049072 -80.729736

v -307.504395 -94.393372 -79.140015

v -364.175659 -130.489746 -80.821289

v -361.755219 -138.671631 -81.330078

v -301.762207 -110.193848 -79.472656

v -348.838867 -142.524445 -82.504517

v -356.738098 -144.330566 -81.788147

v -345.304016 -151.450439 -81.689453

v -292.052734 -121.653442 -81.765137

v -340.671387 -152.362305 -82.138596

v -328.527863 -152.145752 -82.210632

v -337.351563 -162.362305 -78.842896

v -347.912476 -155.114868 -78.457123

v -285.930664 -135.264160 -81.463623

v -294.577148 -128.299805 -77.984375

v -332.286621 -162.614258 -81.322754

v -330.219299 -161.295654 -82.080109

v -322.652954 -166.454376 -82.237274

v -279.646240 -143.765503 -81.454163

v -317.166504 -176.353516 -81.547852

v -325.770752 -173.092773 -78.834717

v -275.247925 -151.291504 -81.272339

v -266.801270 -160.630127 -81.284668

v -307.619629 -197.625000 -78.804688

v -312.011597 -192.598633 -78.672852

v -254.690918 -171.045898 -81.121216

v -301.722656 -199.622070 -80.983887

v -254.945313 -176.316406 -77.957031

v -240.443359 -182.125977 -81.134766

v -295.734375 -207.927002 -78.299805

v -245.272949 -182.565552 -78.702637

v -286.188965 -213.498413 -78.299805

v -233.297241 -190.105225 -78.597778

v -277.426270 -216.984863 -78.367188

v -224.081543 -194.842773 -79.093262

v -267.257660 -222.633850 -78.179321

v -216.517334 -199.551270 -79.086426

v -254.424316 -225.574219 -80.757324

v -207.504150 -204.278320 -79.666992

v -247.111847 -230.624512 -78.783203

v -202.884644 -208.919922 -77.473877

v -201.244919 -211.816299 -79.867798

v -231.525391 -230.650391 -78.681641

v -200.775879 -220.478271 -76.551514

v -221.200256 -230.583008 -78.825684

v -204.358231 -225.520264 -78.422119

v -209.514893 -227.353027 -79.064697

v -335.318848 -72.583191 -78.429718

v -342.498932 -77.552582 -77.979492

v -352.627075 -88.393036 -75.541687

v -332.824646 -76.087891 -77.181396

v -358.424225 -94.964020 -75.419464

v -321.098755 -75.923340 -78.317345

v -313.018066 -73.216187 -78.354050

v -326.918701 -77.115234 -76.778320

v -362.109009 -100.719788 -75.447388

v -322.189941 -78.832275 -77.387451

v -312.014709 -80.355637 -78.371155

v -364.626770 -111.829590 -75.754150

v -316.565552 -85.459473 -77.825714

v -365.616302 -119.014465 -76.528809

v -312.571777 -96.533691 -77.546143

v -365.338867 -133.189941 -76.547363

v -310.528931 -103.104187 -77.094238

v -363.375488 -142.656250 -76.730469

v -360.087891 -148.608887 -77.383301

v -300.280334 -121.961914 -76.819092

v -355.577393 -150.845215 -78.473267

v -358.427979 -153.546387 -77.073730

v -348.221436 -169.254761 -77.726379

v -355.186035 -164.304688 -74.865234

v -337.595276 -181.199219 -78.085579

v -335.876953 -167.145752 -78.145805

v -287.474609 -143.601563 -76.662109

v -293.664063 -139.639648 -73.519531

v -340.477783 -181.479248 -77.183594

v -351.544189 -172.912109 -74.159668

v -281.070313 -154.197266 -76.603516

v -321.798096 -180.781494 -78.077011

v -331.685059 -189.282227 -77.404541

v -319.572510 -178.797852 -79.055176

v -320.791504 -192.200928 -77.997787

v -275.189453 -160.554688 -76.029297

v -337.452393 -190.036209 -74.507751

v -323.837280 -196.680176 -74.832031

v -312.280029 -196.771820 -77.904083

v -318.316650 -196.119629 -77.051270

v -264.851563 -172.227539 -74.833008

v -309.174408 -202.842285 -74.872070

v -299.803101 -210.744751 -74.657349

v -257.040039 -179.812500 -75.074219

v -246.572815 -188.301025 -77.199341

v -291.350586 -215.140625 -77.213501

v -283.094147 -222.189209 -77.545166

v -290.758636 -220.653809 -74.554688

v -236.487549 -194.689453 -77.126343

v -228.527344 -194.167236 -78.224731

v -272.955688 -226.087158 -77.750900

v -226.104614 -200.966187 -77.174561

v -275.223999 -226.922363 -77.197266

v -218.885742 -200.060059 -78.195190

v -257.454102 -227.372070 -78.466858

v -264.766357 -231.845215 -77.081177

v -259.035645 -231.437134 -77.643982

v -270.363770 -232.736816 -74.884766

v -212.888184 -205.957031 -76.327637

v -257.777893 -235.462402 -75.357422

v -251.274658 -234.498779 -77.009155

v -241.617432 -232.340820 -77.667969

v -250.167297 -237.603760 -74.632080

v -237.578491 -236.105042 -73.920441

v -200.511169 -213.720581 -75.551025

v -233.359619 -234.201660 -74.839355

v -209.005280 -233.719971 -74.755737

v -215.860229 -235.524902 -74.999268

v -332.329468 -80.693359 -72.476318

v -342.464661 -85.107819 -73.118011

v -350.996155 -94.726318 -73.290985

v -329.437500 -83.902344 -70.279297

v -356.038849 -100.747192 -73.587830

v -319.856445 -88.689941 -73.774414

v -361.841309 -108.763428 -73.932373

v -363.444275 -115.561523 -71.752197

v -364.274658 -122.076172 -70.968262

v -316.316162 -96.529297 -71.570313

v -365.625122 -129.248413 -72.094727

v -312.915527 -104.548889 -71.539063

v -366.152679 -137.142395 -68.416992

v -365.388092 -145.809479 -68.992371

v -362.653809 -152.041504 -72.633301

v -305.966797 -117.289063 -71.362793

v -300.236328 -129.714844 -71.541992

v -357.574127 -164.212891 -72.416992

v -352.947266 -174.502563 -72.412842

v -343.811035 -181.733154 -74.947998

v -290.605957 -148.975586 -72.340820

v -345.888672 -186.191406 -73.522583

v -348.161621 -185.406250 -71.904297

v -282.906006 -158.425781 -73.136719

v -338.083954 -199.526245 -73.757782

v -332.901764 -194.718262 -74.121979

v -342.088379 -197.214844 -71.358398

v -329.620117 -208.535889 -73.994659

v -268.960205 -172.960938 -72.703125

v -318.250977 -201.908203 -74.044235

v -331.057251 -211.430786 -72.780029

v -307.800293 -207.467773 -73.973419

v -261.182007 -182.659912 -72.929688

v -320.689941 -219.644165 -73.921310

v -324.794312 -219.885254 -71.562500

v -254.268555 -189.300293 -72.935303

v -315.905060 -229.057129 -72.836182

v -295.577637 -219.451660 -73.916916

v -304.785034 -234.837830 -73.753571

v -244.514160 -197.304810 -72.636963

v -305.861328 -236.877609 -71.812012

v -284.634094 -226.184814 -74.419189

v -292.972076 -240.239746 -73.830124

v -285.710571 -228.562012 -73.884827

v -234.359619 -203.111938 -72.546875

v -298.726807 -240.489258 -72.645386

v -275.990051 -233.219604 -73.878632

v -293.999023 -242.749084 -72.419556

v -276.411621 -244.809814 -73.779663

v -221.803223 -207.965332 -72.763916

v -264.625732 -237.617188 -73.839767

v -273.373138 -248.744995 -72.518005

v -211.955536 -211.750977 -72.613525

v -251.866364 -240.231812 -73.795288

v -268.567993 -247.918304 -73.736725

v -203.241455 -213.715820 -72.793945

v -267.472168 -250.850891 -72.165283

v -240.369385 -238.658340 -73.759544

v -258.498169 -252.963623 -72.571289

v -199.830139 -218.555908 -70.832031

v -255.131989 -250.964111 -73.619064

v -239.977051 -249.600952 -73.686371

v -217.479736 -238.785400 -73.746933

v -248.999634 -253.263062 -72.477417

v -199.389801 -223.814026 -70.419556

v -210.544128 -238.698730 -73.431091

v -239.940948 -252.311035 -72.493042

v -205.223267 -232.524750 -72.798080

v -227.077545 -247.531494 -73.639389

v -229.856079 -251.090942 -72.482117

v -217.936523 -242.448242 -73.567505

v -207.431976 -238.131836 -72.158173

v -210.314941 -240.716431 -72.553589

v -224.167053 -249.580811 -72.104065

v -335.697296 -85.754013 -68.700668

v -333.126434 -87.611877 -66.663773

v -342.229004 -90.718750 -67.969604

v -346.973724 -96.948036 -67.032036

v -350.668335 -102.510544 -67.213867

v -329.031464 -88.454102 -67.194946

v -356.232666 -112.091064 -67.499756

v -320.444824 -98.181641 -67.635498

v -364.272583 -128.952148 -68.061523

v -311.868164 -112.698242 -67.992188

v -311.259766 -121.634766 -65.667969

v -361.218994 -156.852356 -64.747742

v -301.589844 -136.751953 -68.365234

v -357.562897 -168.716827 -59.986755

v -295.843750 -146.322266 -67.656250

v -353.761230 -176.524658 -64.794922

v -285.677124 -160.341797 -69.316406

v -345.686646 -199.320068 -61.017090

v -280.544250 -173.494873 -63.100464

v -288.400635 -163.049118 -63.181763

v -274.638672 -173.625000 -68.570313

v -337.891235 -210.043945 -64.666992

v -264.505859 -185.239258 -67.968750

v -329.899017 -220.847168 -64.096680

v -320.285645 -230.673157 -64.019043

v -250.660400 -197.142578 -67.097656

v -236.559082 -205.111465 -67.168945

v -301.275574 -242.711121 -59.907715

v -292.629028 -245.955566 -64.895020

v -223.297363 -210.441162 -67.079956

v -275.931885 -249.870972 -67.696045

v -208.071533 -217.929199 -66.945313

v -258.753235 -255.143066 -67.262695

v -201.267578 -220.886719 -66.233398

v -198.533081 -224.249939 -66.164185

v -249.503967 -256.069336 -67.162109

v -197.857971 -228.854156 -65.847839

v -236.966797 -256.126953 -65.705078

v -200.980927 -234.668793 -67.697243

v -205.072998 -241.570023 -65.087341

v -222.893188 -251.813354 -67.676270

v -212.981201 -246.734375 -66.381348

v -340.972473 -92.733597 -66.557983

v -336.225525 -96.054901 -66.124359

v -327.437408 -96.413147 -65.812195

v -343.436249 -101.720306 -65.493835

v -350.947266 -110.239090 -65.464233

v -332.590820 -99.711853 -62.884430

v -347.983612 -112.139648 -62.836769

v -341.381348 -104.953842 -62.806084

v -354.814026 -121.199951 -62.999619

v -321.430725 -103.011108 -62.809204

v -359.933655 -128.725861 -63.148102

v -317.178162 -108.304199 -63.326904

v -363.606873 -135.779877 -63.192993

v -364.543457 -142.625244 -63.848022

v -317.721680 -113.354004 -61.806641

v -363.180908 -148.874023 -63.956055

v -306.472656 -139.209961 -61.388672

v -350.313354 -189.885620 -60.044922

v -298.104980 -150.155151 -63.021973

v -273.533203 -183.372131 -62.352539

v -266.447266 -187.784180 -64.686523

v -256.891602 -195.779785 -64.620117

v -246.494629 -203.063477 -64.353516

v -311.623962 -236.703796 -59.913696

v -235.154297 -209.072266 -64.757813

v -226.040039 -214.250000 -64.651611

v -282.675049 -251.518799 -63.950195

v -217.446289 -217.809326 -64.589355

v -274.554993 -254.169678 -64.305664

v -216.521484 -221.746094 -61.230469

v -257.685547 -258.707031 -63.522461

v -266.033691 -258.923828 -60.263184

v -199.694458 -226.896484 -59.800781

v -248.100342 -258.799072 -63.687500

v -201.414963 -238.694260 -62.320107

v -335.512299 -106.702698 -61.771851

v -340.667206 -111.445915 -61.806656

v -329.499939 -106.008911 -61.801025

v -345.932495 -118.765663 -61.762138

v -353.622864 -128.588959 -61.617401

v -358.177917 -136.406036 -61.538971

v -326.367340 -112.098511 -58.810425

v -319.002533 -117.464355 -59.281128

v -360.769775 -145.324341 -61.300293

v -354.704102 -138.862305 -58.337891

v -312.404541 -129.742432 -59.289307

v -360.378662 -157.152832 -59.994873

v -354.705261 -178.366150 -60.161407

v -301.321289 -156.130615 -58.678223

v -292.208740 -166.458069 -61.031372

v -284.562500 -176.143555 -60.822998

v -335.352905 -214.424545 -59.852783

v -327.846252 -223.667053 -60.014526

v -271.883789 -187.976563 -59.015625

v -265.662109 -194.414063 -57.128906

v -321.267334 -229.961365 -59.463867

v -257.134766 -199.695251 -59.054688

v -247.326172 -206.616699 -59.366699

v -236.539551 -213.703857 -59.299316

v -292.925812 -247.049988 -59.987427

v -283.890991 -252.386169 -60.086670

v -229.238281 -219.772949 -57.112305

v -224.476563 -223.221680 -55.107422

v -273.692383 -256.489258 -59.781738

v -213.512207 -226.976563 -56.498047

v -198.271362 -232.197021 -59.191650

v -241.578125 -260.987671 -52.450928

v -230.530273 -257.282684 -56.435669

v -224.832458 -254.912292 -59.640869

v -207.753311 -244.885895 -58.625946

v -332.608734 -110.936768 -58.369034

v -337.786682 -115.937744 -58.393257

v -344.479309 -123.824455 -58.670326

v -350.853058 -130.224365 -59.209290

v -322.396973 -117.765747 -58.281296

v -327.152588 -125.857056 -58.238739

v -336.989441 -127.648987 -58.105354

v -347.754547 -133.777008 -57.213135

v -335.203491 -129.741943 -56.759155

v -348.995117 -139.810822 -54.301514

v -353.299072 -145.810822 -55.304199

v -326.833282 -129.833618 -57.558228

v -355.333252 -152.697144 -55.164917

v -314.635010 -131.180908 -58.261795

v -316.282135 -137.830811 -58.129822

v -319.379395 -137.910645 -57.463745

v -356.128845 -159.928284 -55.082642

v -356.002350 -165.525635 -55.015900

v -309.556641 -141.190186 -58.606567

v -310.971191 -147.151123 -57.226563

v -355.107269 -172.210220 -55.200531

v -352.703979 -180.111816 -55.564880

v -304.145996 -160.632813 -54.867065

v -349.238525 -189.101074 -55.627808

v -346.188477 -195.527344 -55.797852

v -296.434326 -170.027832 -54.750000

v -338.569214 -208.913452 -55.378906

v -281.502930 -183.465820 -54.718750

v -328.954346 -219.328125 -54.559570

v -318.013672 -231.116455 -55.237305

v -257.408203 -203.273438 -56.260742

v -260.266693 -204.628174 -51.212891

v -310.812012 -236.618591 -55.470703

v -248.533203 -210.628906 -56.588867

v -302.007446 -242.028412 -55.533936

v -240.702637 -215.826691 -56.677979

v -295.331787 -244.959610 -52.838257

v -288.693176 -248.549133 -52.607422

v -276.460083 -255.504562 -55.743408

v -268.131714 -259.434326 -56.122894

v -201.395996 -231.271973 -56.030273

v -258.116577 -262.174561 -55.419922

v -247.648926 -262.813904 -51.637573

v -200.785645 -236.121460 -55.721680

v -219.921997 -250.725159 -48.693604

v -339.291107 -134.738846 -51.064667

v -344.236816 -138.625671 -51.278198

v -332.949219 -133.289063 -52.976563

v -346.054565 -144.527313 -51.138794

v -350.527710 -151.716187 -53.429810

v -334.652222 -136.196960 -50.393753

v -324.406494 -140.145142 -54.070923

v -347.671509 -155.080673 -50.887085

v -350.920776 -158.843811 -53.469788

v -315.919678 -146.984619 -54.527679

v -350.182373 -167.946838 -53.525269

v -347.206543 -163.898315 -50.936523

v -320.810608 -151.020874 -53.722534

v -348.129639 -181.286499 -53.444214

v -346.024170 -172.599854 -50.989868

v -305.650391 -164.097961 -53.490723

v -316.604858 -161.276855 -50.384033

v -341.711426 -192.635010 -51.004028

v -309.416504 -167.765625 -49.558105

v -338.244263 -203.866699 -50.964233

v -295.524994 -175.773071 -50.778015

v -290.999084 -179.542053 -50.852783

v -330.013550 -215.034180 -51.445801

v -282.654785 -187.891357 -50.639954

v -278.873718 -189.366699 -51.542480

v -267.500244 -197.813965 -51.102173

v -316.251953 -229.364655 -51.507813

v -308.537170 -235.176910 -50.871582

v -298.434326 -241.695953 -50.846191

v -249.429199 -215.777832 -50.669434

v -234.097656 -222.359375 -50.903809

v -277.293945 -253.000488 -52.020508

v -223.655823 -228.146484 -50.920166

v -265.912598 -259.397675 -50.858704

v -209.394287 -232.529419 -50.888184

v -258.152710 -262.497681 -51.730896

v -205.883911 -236.200394 -50.342651

v -205.039307 -239.096252 -51.152344

v -209.533630 -244.375015 -51.596207

v -231.947144 -256.497192 -49.221191

v -342.876709 -142.248276 -50.267193

v -329.080078 -141.390015 -50.782593

v -345.484924 -150.138611 -50.285347

v -328.614807 -149.237061 -50.207092

v -331.370636 -154.062775 -50.158733

v -324.074463 -152.530396 -51.054443

v -345.049866 -164.668365 -50.256905

v -339.014496 -163.488602 -50.008984

v -336.004181 -158.423462 -49.944969

v -324.343262 -158.703552 -49.836487

v -331.613220 -157.528320 -49.081299

v -330.271393 -161.344177 -46.367920

v -339.039642 -170.057770 -49.799408

v -334.699219 -165.580154 -46.715546

v -343.178650 -177.118317 -50.226181

v -319.900879 -163.494629 -48.113281

v -337.912109 -178.295624 -49.900177

v -344.512085 -181.758301 -50.865112

v -333.468781 -174.747620 -46.343170

v -313.584717 -165.267822 -49.123779

v -339.493408 -190.974014 -50.143845

v -334.109009 -190.549774 -50.062672

v -331.859375 -190.116577 -49.331909

v -329.026611 -187.457031 -46.663757

v -303.441406 -175.330078 -49.168457

v -335.591034 -202.163605 -50.075554

v -297.282837 -182.543335 -49.358093

v -324.521790 -202.254395 -48.994019

v -316.567169 -221.387177 -49.932106

v -329.881744 -211.225800 -50.120529

v -288.170654 -189.447632 -49.058838

v -314.277832 -219.261108 -48.594482

v -320.945007 -221.343964 -50.248909

v -279.326782 -197.609116 -49.383118

v -274.678101 -195.530884 -50.139160

v -311.888428 -223.759277 -49.384308

v -274.961792 -201.921265 -49.533478

v -312.986206 -230.101898 -50.326630

v -263.341187 -204.408447 -50.124573

v -304.311768 -231.322266 -49.183228

v -269.422058 -206.605591 -48.964600

v -258.894043 -211.933228 -48.873535

v -297.322510 -237.042786 -49.135254

v -296.012085 -234.670410 -47.025391

v -244.185547 -221.121094 -48.935547

v -287.022156 -247.147827 -50.408691

v -284.749756 -243.778320 -49.029907

v -284.936859 -240.295776 -46.581787

v -277.702026 -246.435791 -49.072266

v -235.447266 -226.750977 -48.547363

v -276.493652 -251.649414 -50.620361

v -269.613464 -250.978760 -48.990112

v -267.628174 -248.836670 -46.726929

v -229.056152 -231.324219 -47.700195

v -258.650879 -260.014404 -49.217285

v -215.669434 -234.645020 -48.880859

v -252.321777 -261.282654 -46.932739

v -210.677124 -239.284668 -48.917053

v -246.027420 -261.889160 -46.904053

v -215.668457 -243.095947 -45.462402

v -211.276245 -244.048828 -49.429138

v -239.180099 -258.851257 -47.194168

v -325.797150 -169.251755 -45.961857

v -322.668610 -165.481415 -46.173294

v -315.314697 -167.967041 -43.420166

v -317.766510 -169.193924 -42.197937

v -321.497070 -170.995972 -42.779297

v -326.409546 -176.262207 -45.814041

v -313.261475 -170.164185 -43.158203

v -308.178589 -177.865051 -42.819763

v -325.099365 -184.579971 -45.392517

v -321.428223 -178.142212 -42.282829

v -324.560547 -193.879166 -45.803223

v -321.107361 -190.014679 -42.687439

v -300.166016 -187.618164 -43.863281

v -320.164795 -198.218994 -43.009033

v -316.282135 -207.350098 -42.822754

v -296.189941 -193.514648 -42.931152

v -288.177734 -196.743164 -43.524414

v -308.362885 -218.483643 -43.027954

v -283.533081 -199.761719 -43.199707

v -272.109863 -209.968140 -43.255127

v -296.919678 -226.038818 -42.728882

v -293.962646 -231.152100 -45.086182

v -259.064941 -218.047241 -42.957153

v -279.205566 -237.466034 -45.136169

v -281.056885 -233.075684 -42.519470

v -245.019531 -226.870361 -42.959473

v -276.058716 -243.784424 -46.570923

v -265.933716 -242.624939 -45.311279

v -265.826416 -247.259918 -45.906807

v -234.791504 -235.335205 -42.708008

v -247.681671 -251.320404 -45.363052

v -259.619629 -241.305923 -42.350372

v -224.242798 -240.784912 -42.583008

v -221.152344 -239.418457 -44.798340

v -241.672852 -256.573517 -45.721092

v -251.586975 -258.709930 -45.804913

v -215.741699 -237.714355 -46.729492

v -235.991699 -255.110474 -45.376343

v -233.971191 -251.725098 -42.346191

v -245.842224 -247.919373 -42.395813

v -221.084625 -245.114288 -41.904373

v -220.450302 -247.723663 -42.904655

v -229.617310 -252.761414 -43.136963

v -312.326172 -178.322266 -42.087933

v -320.307007 -184.350449 -42.183891

v -304.103271 -187.788818 -42.072136

v -317.061981 -200.346344 -42.075031

v -296.932861 -196.680786 -42.012032

v -305.896545 -216.672623 -41.981960

v -283.755859 -203.041565 -42.015488

v -294.635742 -224.263916 -41.929916

v -271.395264 -213.622528 -41.973206

v -281.366943 -230.565918 -41.901993

v -261.671143 -219.567993 -41.891777

v -265.103516 -235.755432 -41.848160

v -248.002991 -228.015625 -41.866272

v -250.187500 -242.437744 -41.792892

v -239.888733 -234.745300 -41.830330

v -232.293213 -239.939941 -41.775074

v -230.027069 -250.352844 -41.781227

f 1 2 3
f 3 4 1
f 5 1 4
f 6 3 2
f 3 6 7
f 8 9 4
f 3 10 4
f 8 4 10
f 11 7 6
f 10 3 7
f 7 12 10
f 7 11 13
f 13 14 7
f 12 15 10
f 8 10 15
f 14 12 7
f 15 12 16
f 17 14 13
f 18 12 14
f 17 19 14
f 18 14 19
f 20 16 12
f 20 21 16
f 19 17 22
f 18 20 12
f 21 20 23
f 18 23 20
f 22 24 19
f 24 18 19
f 18 25 23
f 24 26 18
f 25 18 26
f 23 27 21
f 23 25 28
f 28 27 23
f 25 26 29
f 30 26 24
f 29 28 25
f 30 29 26
f 30 31 29
f 31 32 29
f 28 29 32
f 32 33 28
f 34 35 36
f 36 1 34
f 34 5 37
f 1 5 34
f 38 37 5
f 37 38 39
f 36 35 6
f 2 1 36
f 40 6 35
f 6 2 36
f 41 6 40
f 4 9 5
f 38 5 9
f 9 42 38
f 11 6 41
f 42 9 43
f 44 11 41
f 8 43 9
f 43 8 15
f 15 45 43
f 44 13 11
f 13 44 46
f 16 47 15
f 45 15 47
f 46 17 13
f 46 48 17
f 22 17 48
f 49 22 48
f 47 16 50
f 50 16 21
f 49 24 22
f 50 21 27
f 27 51 50
f 24 49 52
f 52 30 24
f 53 51 27
f 27 28 33
f 33 53 27
f 52 54 30
f 31 30 54
f 55 53 33
f 32 31 56
f 56 33 32
f 54 57 31
f 57 56 31
f 56 58 33
f 58 55 33
f 56 57 59
f 58 56 59
f 60 58 59
f 61 62 63
f 37 63 62
f 61 63 64
f 35 34 65
f 65 34 62
f 34 37 62
f 63 66 64
f 37 39 63
f 39 66 63
f 35 67 40
f 64 66 68
f 69 40 67
f 41 40 69
f 66 70 68
f 66 39 42
f 42 70 66
f 38 42 39
f 70 42 43
f 69 71 41
f 44 41 71
f 70 43 72
f 72 73 70
f 72 43 74
f 74 73 72
f 43 45 75
f 74 43 75
f 71 46 44
f 71 76 46
f 45 77 75
f 47 77 45
f 77 74 75
f 48 46 76
f 77 78 74
f 76 79 48
f 80 81 74
f 80 74 78
f 49 48 79
f 77 47 82
f 80 78 83
f 82 83 77
f 78 77 83
f 84 80 83
f 50 82 47
f 79 85 49
f 83 82 86
f 82 50 86
f 87 83 88
f 51 86 50
f 86 88 83
f 52 49 85
f 89 88 90
f 85 91 52
f 86 92 88
f 92 90 88
f 86 51 93
f 93 92 86
f 53 93 51
f 54 52 91
f 93 53 94
f 55 94 53
f 91 95 54
f 95 57 54
f 92 93 94
f 90 92 96
f 97 96 92
f 58 94 55
f 92 94 97
f 95 59 57
f 59 95 98
f 60 59 98
f 99 94 58
f 60 99 58
f 97 94 99
f 98 99 60
f 99 98 100
f 100 101 99
f 101 97 99
f 101 100 102
f 101 103 97
f 103 104 97
f 96 97 104
f 105 96 104
f 103 106 104
f 106 105 104
f 102 107 101
f 103 101 107
f 107 102 108
f 107 106 103
f 107 109 106
f 110 106 109
f 108 111 107
f 112 113 61
f 114 115 65
f 113 114 65
f 113 65 62
f 61 113 62
f 61 64 112
f 115 35 65
f 116 112 64
f 67 35 115
f 117 116 118
f 118 116 64
f 118 64 68
f 117 118 119
f 68 119 118
f 119 120 117
f 69 67 121
f 119 68 122
f 122 123 119
f 123 124 120
f 122 68 70
f 120 119 123
f 121 125 69
f 71 69 125
f 123 122 73
f 122 70 73
f 123 73 126
f 127 123 126
f 81 126 73
f 126 128 127
f 129 76 71
f 74 81 73
f 130 128 126
f 81 130 126
f 129 131 76
f 81 132 130
f 132 81 84
f 130 133 134
f 76 131 79
f 130 132 133
f 84 81 80
f 79 131 135
f 84 136 132
f 133 132 136
f 79 135 137
f 137 85 79
f 87 84 83
f 84 87 136
f 136 87 138
f 87 88 89
f 138 87 89
f 139 138 140
f 89 140 138
f 140 89 141
f 140 141 142
f 143 95 91
f 89 90 144
f 141 89 144
f 96 144 90
f 98 95 145
f 144 146 141
f 141 147 142
f 148 146 144
f 146 147 141
f 145 149 98
f 100 98 149
f 148 144 96
f 146 148 150
f 149 151 100
f 147 146 152
f 102 100 151
f 146 150 152
f 148 96 105
f 105 150 148
f 151 153 102
f 152 150 154
f 150 105 155
f 155 154 150
f 153 108 102
f 106 110 105
f 155 105 110
f 153 156 108
f 154 157 158
f 159 155 110
f 154 160 157
f 108 156 111
f 109 159 110
f 155 160 154
f 111 109 107
f 161 160 155
f 161 155 159
f 111 162 109
f 159 109 163
f 163 109 162
f 160 164 157
f 159 163 161
f 165 163 162
f 161 164 160
f 161 166 164
f 163 165 167
f 161 163 167
f 166 168 164
f 167 166 161
f 167 169 166
f 170 171 113
f 112 172 170
f 171 173 114
f 114 173 115
f 113 171 114
f 170 113 112
f 174 112 116
f 175 115 173
f 175 67 115
f 175 176 67
f 121 67 176
f 177 117 120
f 178 177 179
f 177 180 179
f 180 177 124
f 124 177 120
f 176 181 121
f 125 121 181
f 124 182 180
f 182 124 127
f 124 123 127
f 127 183 182
f 125 129 71
f 129 125 181
f 184 185 181
f 181 185 129
f 186 182 183
f 183 187 186
f 129 185 188
f 183 127 128
f 130 134 128
f 134 183 128
f 131 129 188
f 134 187 183
f 131 188 189
f 135 131 189
f 133 190 134
f 191 134 190
f 189 192 135
f 190 133 136
f 137 135 192
f 137 192 85
f 190 136 138
f 138 139 190
f 192 143 85
f 192 193 143
f 91 85 143
f 139 140 194
f 194 140 142
f 143 195 95
f 196 194 142
f 95 195 145
f 142 147 196
f 147 197 196
f 198 149 145
f 149 199 151
f 152 200 147
f 197 147 200
f 152 201 200
f 151 199 153
f 152 154 201
f 154 202 201
f 202 154 158
f 203 201 202
f 204 156 153
f 153 199 204
f 204 205 156
f 111 156 205
f 157 168 158
f 168 202 158
f 162 111 205
f 202 206 207
f 164 168 157
f 168 208 202
f 206 202 208
f 205 209 162
f 162 209 165
f 210 165 209
f 210 211 165
f 211 167 165
f 168 166 212
f 212 213 168
f 213 208 168
f 206 208 214
f 208 213 214
f 167 211 169
f 169 212 166
f 214 215 206
f 213 212 169
f 211 210 216
f 217 169 211
f 214 213 218
f 216 217 211
f 215 214 219
f 218 219 214
f 217 220 169
f 213 169 220
f 218 213 221
f 218 222 219
f 217 223 220
f 221 222 218
f 220 221 213
f 222 221 224
f 224 225 222
f 223 226 220
f 221 220 226
f 226 224 221
f 171 170 227
f 172 227 170
f 228 173 171
f 174 172 112
f 174 116 229
f 173 230 175
f 229 116 117
f 231 175 230
f 229 117 178
f 176 175 231
f 178 117 177
f 232 176 231
f 232 181 176
f 179 180 233
f 180 186 233
f 180 182 186
f 186 234 233
f 232 184 181
f 186 235 234
f 235 186 187
f 235 187 236
f 184 237 185
f 188 185 237
f 238 236 187
f 189 188 237
f 189 237 239
f 187 134 191
f 191 240 187
f 240 238 187
f 241 242 189
f 240 243 238
f 240 191 190
f 189 244 192
f 244 189 242
f 243 240 245
f 240 190 246
f 245 240 246
f 246 190 139
f 246 247 245
f 244 193 192
f 139 194 246
f 194 247 246
f 248 247 194
f 193 249 143
f 196 248 194
f 143 249 195
f 248 196 250
f 198 145 195
f 250 196 197
f 197 251 250
f 198 252 149
f 199 149 252
f 200 251 197
f 251 200 201
f 201 253 251
f 201 203 253
f 202 207 203
f 204 254 205
f 207 255 203
f 206 255 207
f 209 205 254
f 255 206 256
f 254 257 209
f 210 209 257
f 256 206 215
f 216 210 257
f 215 258 256
f 216 257 259
f 258 215 219
f 258 219 222
f 216 259 260
f 260 217 216
f 222 261 258
f 217 260 223
f 262 260 259
f 261 222 225
f 262 263 260
f 264 223 260
f 264 260 263
f 226 223 264
f 265 226 264
f 224 226 265
f 225 224 265
f 264 263 266
f 225 265 267
f 268 225 267
f 264 269 265
f 267 265 269
f 266 269 264
f 270 266 263
f 270 269 266
f 267 269 271
f 272 227 172
f 228 171 227
f 172 174 272
f 272 174 273
f 228 230 173
f 229 273 174
f 274 273 229
f 275 231 230
f 178 274 229
f 231 275 276
f 232 231 276
f 179 233 277
f 233 278 277
f 278 233 234
f 184 232 276
f 276 279 184
f 278 234 280
f 280 234 235
f 184 279 237
f 280 235 236
f 236 281 280
f 281 236 238
f 238 282 281
f 241 189 239
f 241 283 242
f 282 238 243
f 282 243 284
f 244 242 283
f 284 243 245
f 244 285 193
f 285 244 283
f 284 245 286
f 285 283 287
f 247 286 245
f 288 193 285
f 288 285 289
f 249 193 288
f 286 247 248
f 290 286 248
f 288 291 249
f 290 248 250
f 249 292 195
f 292 249 291
f 198 195 292
f 293 291 288
f 250 294 290
f 292 295 198
f 288 296 293
f 295 292 291
f 294 250 251
f 252 198 295
f 291 293 295
f 297 294 251
f 298 295 293
f 293 296 298
f 253 297 251
f 252 299 199
f 299 252 295
f 299 295 298
f 253 300 297
f 204 199 299
f 204 299 298
f 253 203 255
f 300 253 255
f 301 300 255
f 298 302 204
f 204 302 254
f 302 303 254
f 257 254 303
f 301 255 256
f 256 304 301
f 304 305 301
f 304 306 305
f 303 307 257
f 257 307 259
f 304 256 258
f 304 258 306
f 306 258 308
f 261 308 258
f 259 307 309
f 308 261 268
f 309 262 259
f 261 225 268
f 309 310 262
f 262 310 263
f 263 310 270
f 268 267 311
f 271 311 267
f 270 271 269
f 310 312 270
f 312 271 270
f 271 313 311
f 312 314 271
f 313 315 311
f 313 271 314
f 316 314 312
f 315 313 317
f 313 314 316
f 316 317 313
f 227 318 319
f 318 227 272
f 272 320 318
f 321 228 227
f 227 319 321
f 272 322 320
f 322 272 273
f 230 228 321
f 273 323 322
f 321 324 230
f 273 325 323
f 325 273 274
f 275 230 324
f 274 326 325
f 326 274 178
f 179 326 178
f 276 275 327
f 326 179 277
f 276 327 328
f 279 276 328
f 329 277 278
f 278 330 329
f 330 331 329
f 330 278 280
f 330 332 331
f 328 333 279
f 280 332 330
f 334 331 332
f 237 279 239
f 239 279 333
f 334 332 335
f 332 280 336
f 335 332 336
f 335 337 334
f 336 280 281
f 338 335 339
f 333 340 239
f 335 336 281
f 339 335 341
f 241 239 340
f 281 341 335
f 282 341 281
f 339 341 342
f 241 287 283
f 287 241 340
f 341 282 284
f 341 284 343
f 287 344 285
f 343 284 286
f 345 285 344
f 343 286 346
f 289 285 345
f 346 286 290
f 289 345 347
f 290 348 346
f 348 290 349
f 296 289 347
f 289 296 288
f 290 350 349
f 350 290 294
f 347 351 296
f 297 350 294
f 352 296 351
f 353 354 350
f 350 297 353
f 298 296 352
f 300 353 297
f 302 298 352
f 300 355 353
f 354 353 355
f 352 356 302
f 301 357 300
f 355 300 357
f 357 358 355
f 303 302 356
f 301 305 357
f 358 357 305
f 358 305 359
f 360 358 359
f 303 361 307
f 359 305 306
f 307 361 362
f 363 359 306
f 363 364 359
f 362 365 307
f 309 307 365
f 363 306 308
f 268 366 308
f 363 308 366
f 367 310 309
f 366 268 311
f 311 315 366
f 368 310 367
f 310 368 312
f 366 315 369
f 370 312 368
f 317 369 315
f 370 371 312
f 371 316 312
f 369 317 372
f 371 372 316
f 317 316 372
f 373 321 319
f 373 319 318
f 374 320 322
f 323 374 322
f 321 375 324
f 373 375 321
f 376 373 318
f 376 320 374
f 377 373 376
f 376 318 320
f 374 378 376
f 323 378 374
f 379 375 373
f 275 324 375
f 379 373 377
f 377 376 380
f 381 376 378
f 378 323 325
f 275 375 379
f 377 382 379
f 326 383 325
f 379 327 275
f 326 384 383
f 327 379 382
f 385 327 382
f 326 277 384
f 386 384 277
f 328 327 385
f 386 277 329
f 387 329 331
f 385 388 328
f 333 328 388
f 387 331 334
f 334 337 387
f 388 389 333
f 387 337 390
f 335 338 337
f 337 391 390
f 392 390 391
f 340 333 389
f 393 389 394
f 338 391 337
f 389 393 340
f 395 391 338
f 338 339 395
f 340 393 396
f 397 391 395
f 339 342 395
f 398 397 395
f 342 399 395
f 398 395 399
f 340 396 400
f 342 341 343
f 399 342 343
f 287 340 400
f 400 344 287
f 401 402 399
f 403 399 402
f 399 343 401
f 344 404 345
f 404 405 345
f 346 401 343
f 346 406 401
f 406 407 401
f 406 346 348
f 347 345 405
f 348 408 406
f 409 347 405
f 349 410 348
f 408 348 410
f 350 411 349
f 410 349 411
f 408 410 411
f 351 347 409
f 411 412 408
f 413 351 409
f 354 412 411
f 354 411 350
f 351 413 352
f 414 415 412
f 354 414 412
f 413 416 352
f 354 417 414
f 356 352 416
f 418 356 416
f 355 417 354
f 355 360 417
f 360 419 417
f 358 360 355
f 356 418 303
f 303 418 420
f 360 421 419
f 361 303 420
f 422 419 421
f 360 359 364
f 364 421 360
f 361 420 362
f 420 423 362
f 421 364 424
f 363 425 364
f 362 423 365
f 425 424 364
f 426 365 423
f 425 363 366
f 426 309 365
f 366 427 425
f 427 424 425
f 426 367 309
f 427 366 369
f 370 368 428
f 427 369 429
f 428 430 370
f 372 429 369
f 430 371 370
f 371 430 431
f 372 371 431
f 429 372 431
f 376 381 380
f 378 432 381
f 381 433 380
f 377 380 382
f 378 325 434
f 435 433 381
f 378 434 432
f 383 434 325
f 436 380 433
f 383 437 434
f 437 383 384
f 380 436 382
f 385 382 436
f 384 438 437
f 386 438 384
f 436 439 385
f 386 440 438
f 439 388 385
f 386 329 440
f 441 388 439
f 387 440 329
f 440 387 442
f 441 443 388
f 444 442 387
f 389 388 443
f 390 444 387
f 390 392 444
f 394 389 443
f 394 443 445
f 391 446 392
f 446 391 397
f 445 447 394
f 397 448 446
f 394 396 393
f 447 396 394
f 397 449 448
f 449 397 398
f 398 450 449
f 398 399 403
f 451 449 450
f 400 396 447
f 398 452 450
f 403 452 398
f 447 453 400
f 404 400 453
f 404 344 400
f 403 454 452
f 403 402 454
f 454 455 452
f 456 404 453
f 454 402 407
f 455 454 407
f 401 407 402
f 405 404 456
f 457 405 456
f 406 458 407
f 406 408 458
f 405 457 409
f 408 459 458
f 409 457 460
f 459 408 412
f 412 461 459
f 409 462 413
f 462 409 460
f 412 415 461
f 415 463 461
f 462 464 413
f 463 415 465
f 413 464 416
f 465 466 463
f 414 465 415
f 417 467 414
f 465 414 467
f 466 465 468
f 465 467 468
f 416 469 418
f 467 417 470
f 470 468 467
f 470 417 419
f 470 471 468
f 472 468 471
f 418 473 420
f 473 418 469
f 419 422 470
f 471 470 422
f 422 474 471
f 422 421 475
f 474 422 475
f 420 473 423
f 473 476 423
f 421 424 475
f 475 477 478
f 424 477 475
f 426 423 476
f 427 477 424
f 367 426 479
f 479 480 367
f 477 427 481
f 368 367 480
f 429 481 427
f 480 428 368
f 481 429 482
f 430 428 483
f 431 430 483
f 429 431 484
f 484 482 429
f 431 483 484
f 485 381 432
f 486 433 435
f 435 381 485
f 487 432 434
f 488 435 485
f 489 487 434
f 489 434 437
f 436 433 486
f 488 486 435
f 437 438 489
f 436 486 439
f 440 490 438
f 486 441 439
f 440 491 490
f 440 442 491
f 443 441 492
f 442 444 491
f 493 491 444
f 492 494 443
f 445 443 494
f 493 444 392
f 392 495 493
f 494 496 445
f 495 392 446
f 495 446 497
f 497 446 448
f 447 445 496
f 448 498 497
f 496 499 447
f 448 451 498
f 449 451 448
f 500 501 451
f 501 498 451
f 447 499 453
f 451 450 500
f 500 502 501
f 500 450 452
f 499 503 453
f 502 500 504
f 500 452 455
f 505 504 500
f 455 505 500
f 456 453 503
f 502 506 507
f 508 503 509
f 502 504 510
f 456 503 508
f 455 407 458
f 506 502 510
f 458 505 455
f 505 511 504
f 510 504 511
f 511 505 512
f 457 456 508
f 512 505 458
f 512 458 459
f 508 513 457
f 512 510 511
f 510 512 514
f 515 510 514
f 457 513 460
f 461 512 459
f 514 512 461
f 513 516 460
f 514 461 463
f 517 460 516
f 464 460 517
f 460 464 462
f 463 518 519
f 517 520 464
f 466 521 463
f 521 518 463
f 416 464 469
f 464 520 469
f 468 472 466
f 472 521 466
f 520 522 523
f 524 521 472
f 523 469 520
f 525 523 522
f 472 471 474
f 469 523 473
f 526 472 474
f 523 527 473
f 473 527 476
f 474 475 478
f 528 474 478
f 529 476 527
f 530 528 478
f 529 531 476
f 478 532 530
f 478 477 532
f 426 531 479
f 531 426 476
f 479 533 480
f 532 477 481
f 481 534 532
f 480 533 535
f 536 480 535
f 480 536 428
f 481 482 537
f 538 428 536
f 537 482 539
f 483 428 538
f 484 483 540
f 482 484 541
f 541 539 482
f 540 541 484
f 485 432 487
f 485 542 488
f 542 485 487
f 543 487 489
f 487 543 542
f 544 489 438
f 489 544 543
f 545 542 543
f 490 544 438
f 441 486 488
f 490 546 544
f 547 488 542
f 488 547 548
f 542 549 547
f 549 542 545
f 441 488 548
f 550 546 490
f 550 490 491
f 551 547 549
f 492 441 548
f 552 548 547
f 548 552 492
f 553 550 491
f 551 554 547
f 547 554 552
f 553 491 493
f 493 555 553
f 494 492 552
f 494 552 554
f 493 495 555
f 496 494 554
f 554 556 496
f 557 555 495
f 557 495 497
f 556 558 496
f 497 498 557
f 499 496 558
f 498 559 557
f 559 498 560
f 560 498 501
f 561 499 558
f 509 499 561
f 501 562 560
f 562 563 560
f 499 509 503
f 502 562 501
f 562 502 507
f 507 564 562
f 563 562 564
f 565 563 564
f 564 507 566
f 566 507 567
f 506 567 507
f 568 509 569
f 509 568 508
f 564 566 570
f 571 564 570
f 506 510 515
f 513 508 568
f 515 567 506
f 568 516 513
f 568 572 516
f 515 573 567
f 570 566 574
f 515 514 575
f 575 573 515
f 573 566 567
f 573 576 566
f 577 516 572
f 573 575 519
f 514 519 575
f 517 516 577
f 576 574 566
f 578 574 579
f 519 514 463
f 519 580 573
f 576 573 580
f 574 576 581
f 581 579 574
f 577 582 517
f 580 581 576
f 520 517 582
f 518 580 519
f 580 583 581
f 582 522 520
f 518 583 580
f 521 583 518
f 521 584 583
f 584 521 524
f 522 585 586
f 522 586 525
f 584 524 587
f 524 472 526
f 526 587 524
f 527 525 586
f 525 527 523
f 526 474 528
f 587 526 588
f 589 587 588
f 590 527 586
f 590 591 527
f 528 588 526
f 588 528 592
f 527 591 529
f 593 591 590
f 530 592 528
f 592 594 588
f 595 529 591
f 595 591 593
f 529 595 531
f 530 532 596
f 592 597 594
f 592 530 598
f 598 597 592
f 597 599 594
f 595 600 531
f 600 595 593
f 596 598 530
f 479 531 533
f 533 531 600
f 596 532 534
f 601 597 598
f 596 534 602
f 600 535 533
f 596 602 598
f 602 601 598
f 481 603 534
f 602 534 603
f 604 602 603
f 605 604 603
f 535 606 536
f 603 481 537
f 537 607 603
f 607 605 603
f 536 606 538
f 537 539 607
f 540 483 538
f 540 608 541
f 608 609 541
f 539 541 609
f 610 545 543
f 611 543 544
f 610 543 611
f 544 612 611
f 549 545 610
f 612 544 546
f 613 549 610
f 546 614 612
f 614 546 550
f 549 615 551
f 615 549 613
f 550 616 614
f 616 550 553
f 554 551 615
f 616 553 617
f 555 617 553
f 617 555 618
f 556 554 615
f 615 619 556
f 620 618 555
f 620 555 557
f 619 558 556
f 619 621 558
f 622 620 557
f 623 622 557
f 623 557 559
f 559 624 623
f 561 558 621
f 621 625 561
f 624 559 560
f 563 624 560
f 625 626 561
f 563 627 624
f 627 563 565
f 509 561 626
f 627 565 628
f 564 571 565
f 628 565 571
f 569 509 626
f 570 629 571
f 630 568 569
f 628 571 631
f 568 630 572
f 629 631 571
f 632 628 631
f 633 572 630
f 631 629 578
f 629 570 578
f 578 570 574
f 578 634 631
f 635 634 578
f 631 636 632
f 636 631 634
f 577 572 633
f 579 635 578
f 634 635 637
f 577 638 582
f 638 577 633
f 579 639 635
f 637 640 634
f 639 637 635
f 579 581 583
f 583 639 579
f 582 585 522
f 639 583 641
f 639 641 637
f 642 582 638
f 640 637 643
f 582 642 585
f 641 583 584
f 641 643 637
f 643 644 640
f 645 585 642
f 644 643 646
f 641 584 647
f 586 585 645
f 643 641 647
f 584 587 589
f 647 648 643
f 646 643 648
f 649 586 645
f 647 584 589
f 649 590 586
f 648 650 646
f 588 651 589
f 647 652 648
f 651 653 589
f 647 589 653
f 649 654 590
f 588 594 651
f 648 652 655
f 655 650 648
f 590 654 593
f 651 656 653
f 653 652 647
f 652 657 655
f 653 656 658
f 658 652 653
f 651 594 599
f 599 656 651
f 659 593 654
f 658 657 652
f 659 600 593
f 658 656 660
f 661 657 658
f 599 597 601
f 599 660 656
f 659 662 600
f 601 660 599
f 601 602 604
f 604 663 601
f 660 601 663
f 664 658 660
f 661 658 664
f 665 535 600
f 660 663 664
f 665 600 662
f 666 661 664
f 606 535 665
f 604 605 667
f 663 604 667
f 668 666 664
f 669 606 665
f 663 670 664
f 668 664 670
f 669 538 606
f 671 670 663
f 667 671 663
f 539 609 607
f 605 607 672
f 673 668 670
f 674 538 669
f 670 671 673
f 540 538 674
f 672 607 609
f 667 605 672
f 672 609 675
f 676 673 671
f 674 677 540
f 608 540 677
f 608 675 609
f 678 671 667
f 679 676 671
f 672 675 680
f 667 672 678
f 608 677 681
f 675 608 681
f 678 672 680
f 675 682 680
f 671 678 679
f 682 683 680
f 678 680 683
f 679 678 683
f 681 682 675
f 684 610 611
f 685 610 684
f 684 611 686
f 686 611 612
f 613 610 685
f 612 687 686
f 688 687 612
f 612 614 688
f 614 616 688
f 689 615 613
f 690 688 616
f 690 616 617
f 615 691 619
f 691 615 689
f 690 617 618
f 620 692 618
f 691 621 619
f 691 693 621
f 620 622 692
f 625 621 693
f 693 694 625
f 624 695 623
f 626 625 694
f 695 624 627
f 626 694 696
f 627 697 695
f 697 627 628
f 569 626 696
f 696 698 569
f 628 632 699
f 630 569 698
f 700 633 630
f 701 632 636
f 700 702 633
f 702 700 703
f 702 704 633
f 634 705 636
f 638 633 704
f 705 634 640
f 704 706 638
f 640 707 705
f 642 638 706
f 707 640 644
f 645 642 706
f 646 708 644
f 706 709 645
f 649 645 709
f 708 646 650
f 649 710 654
f 710 649 709
f 650 655 711
f 655 657 712
f 713 659 654
f 713 654 710
f 714 712 657
f 657 661 714
f 713 662 659
f 713 715 662
f 662 715 665
f 666 714 661
f 716 714 666
f 669 665 715
f 666 668 716
f 669 715 717
f 717 718 674
f 674 669 717
f 719 668 673
f 716 668 719
f 720 674 718
f 676 721 673
f 721 719 673
f 677 674 720
f 722 677 720
f 679 721 676
f 681 677 722
f 681 722 723
f 682 681 723
f 683 724 679
f 724 721 679
f 725 682 723
f 683 682 725
f 725 724 683
f 685 684 686
f 686 726 685
f 685 689 613
f 687 726 686
f 727 685 726
f 687 727 726
f 685 728 689
f 728 685 727
f 729 727 687
f 729 687 688
f 688 730 729
f 731 727 729
f 688 690 730
f 728 727 731
f 729 732 733
f 729 730 732
f 691 689 728
f 734 730 690
f 728 735 691
f 734 690 618
f 618 736 734
f 736 618 692
f 735 737 691
f 692 738 736
f 622 738 692
f 691 737 693
f 738 622 739
f 623 739 622
f 737 740 693
f 739 623 741
f 693 740 694
f 695 741 623
f 697 628 699
f 742 698 696
f 632 743 699
f 698 703 630
f 703 698 744
f 632 701 743
f 700 630 703
f 636 705 701
f 704 702 745
f 706 704 745
f 745 746 706
f 707 644 708
f 747 706 746
f 706 747 709
f 747 748 709
f 708 650 749
f 749 650 711
f 710 709 748
f 750 710 748
f 711 655 712
f 710 750 713
f 750 751 713
f 712 714 752
f 751 753 713
f 752 714 754
f 715 713 753
f 755 715 753
f 717 715 755
f 716 754 714
f 754 716 756
f 756 757 754
f 717 758 718
f 756 716 719
f 756 719 759
f 719 721 759
f 720 760 722
f 723 722 760
f 729 733 731
f 733 761 731
f 733 762 761
f 735 728 731
f 763 731 761
f 734 732 730
f 731 763 735
f 762 733 732
f 732 764 762
f 764 732 734
f 765 764 734
f 765 734 736
f 737 735 763
f 765 736 738
f 763 740 737
f 766 765 738
f 740 767 768
f 766 769 770
f 769 766 738
f 769 738 739
f 739 741 769
f 740 768 694
f 768 771 694
f 769 741 772
f 772 741 695
f 696 694 771
f 742 696 771
f 772 695 697
f 773 697 699
f 744 698 742
f 744 742 774
f 773 699 743
f 774 775 744
f 744 775 703
f 776 703 775
f 702 703 776
f 705 777 701
f 745 702 776
f 777 705 707
f 777 707 778
f 745 779 746
f 746 779 780
f 707 708 778
f 708 781 778
f 746 782 747
f 782 746 780
f 749 781 708
f 783 748 747
f 747 782 783
f 748 784 750
f 784 748 783
f 711 712 785
f 750 784 751
f 786 785 712
f 752 786 712
f 787 751 784
f 751 788 755
f 788 751 787
f 755 753 751
f 754 786 752
f 786 754 789
f 757 789 754
f 717 755 758
f 758 755 790
f 720 718 758
f 758 791 720
f 721 792 759
f 760 720 791
f 793 792 721
f 724 794 721
f 793 721 794
f 760 795 723
f 725 723 795
f 795 794 725
f 724 725 794
f 761 796 763
f 796 761 762
f 762 797 796
f 767 763 796
f 762 764 797
f 764 798 797
f 763 767 740
f 798 764 799
f 799 764 765
f 800 767 796
f 765 766 799
f 767 800 768
f 801 796 797
f 802 797 798
f 803 798 799
f 770 799 766
f 796 801 800
f 797 802 801
f 798 803 802
f 803 799 770
f 804 802 803
f 803 770 805
f 806 770 769
f 807 801 802
f 802 804 807
f 770 806 805
f 806 769 808
f 771 768 800
f 800 809 771
f 801 810 800
f 809 800 810
f 810 801 807
f 808 769 772
f 811 810 807
f 812 808 772
f 812 772 813
f 813 772 697
f 809 814 771
f 742 771 814
f 814 809 810
f 811 815 810
f 813 697 816
f 810 815 814
f 773 816 697
f 814 774 742
f 814 815 774
f 773 817 816
f 774 815 818
f 773 819 817
f 773 743 819
f 774 818 775
f 743 820 819
f 775 818 821
f 820 743 701
f 701 822 820
f 776 775 821
f 701 777 822
f 776 823 745
f 777 824 822
f 823 779 745
f 777 778 824
f 781 824 778
f 825 781 749
f 780 826 782
f 826 780 827
f 749 828 825
f 826 829 782
f 782 829 783
f 828 749 711
f 711 830 828
f 784 783 829
f 831 784 829
f 711 832 830
f 832 711 785
f 832 785 833
f 785 786 833
f 787 784 831
f 786 834 833
f 834 786 789
f 790 755 788
f 835 834 789
f 789 757 835
f 836 758 790
f 835 757 837
f 757 756 837
f 756 759 837
f 791 758 836
f 837 759 838
f 839 791 836
f 792 838 759
f 791 839 760
f 760 839 795
f 795 840 794
f 840 793 794
f 841 804 803
f 803 805 842
f 803 842 841
f 804 841 843
f 804 843 807
f 842 805 844
f 845 805 806
f 806 808 845
f 843 846 847
f 805 845 844
f 843 847 807
f 811 807 847
f 808 812 845
f 848 845 849
f 849 845 812
f 850 811 847
f 849 812 813
f 813 851 849
f 815 811 850
f 849 851 852
f 847 853 850
f 813 816 851
f 815 850 818
f 851 816 854
f 855 851 854
f 816 817 854
f 818 850 853
f 856 853 857
f 856 818 853
f 817 819 854
f 854 819 858
f 821 818 856
f 858 819 820
f 856 859 821
f 860 858 820
f 859 861 821
f 820 822 860
f 821 862 776
f 862 821 861
f 863 860 822
f 823 776 862
f 823 862 864
f 823 864 865
f 822 824 863
f 779 823 865
f 866 779 865
f 780 779 866
f 824 825 867
f 825 824 781
f 827 780 866
f 867 825 868
f 825 828 868
f 829 826 827
f 828 869 868
f 828 830 869
f 827 870 829
f 830 832 869
f 831 829 870
f 870 871 831
f 871 787 831
f 834 872 833
f 787 871 788
f 871 873 788
f 874 872 834
f 874 834 835
f 790 788 873
f 875 836 790
f 874 835 837
f 837 876 874
f 877 836 875
f 838 876 837
f 836 878 839
f 878 836 877
f 839 878 795
f 795 878 879
f 880 792 793
f 879 840 795
f 841 846 843
f 881 841 842
f 841 881 846
f 881 842 844
f 847 846 882
f 844 883 881
f 845 883 844
f 884 846 881
f 845 848 883
f 846 884 882
f 884 881 885
f 881 883 885
f 853 847 882
f 882 886 853
f 887 883 848
f 886 882 884
f 883 887 888
f 848 852 887
f 849 852 848
f 889 883 888
f 883 889 885
f 884 890 886
f 890 884 885
f 891 885 889
f 890 885 891
f 852 855 887
f 855 852 851
f 890 891 892
f 857 853 886
f 893 888 887
f 857 886 890
f 894 888 893
f 887 895 893
f 895 887 855
f 890 896 857
f 896 890 892
f 897 893 895
f 854 898 855
f 895 855 898
f 893 897 899
f 857 896 900
f 900 856 857
f 854 858 898
f 900 859 856
f 901 895 898
f 897 902 903
f 895 901 897
f 901 898 858
f 897 903 904
f 902 897 901
f 859 905 861
f 858 860 901
f 906 901 860
f 905 907 861
f 901 906 902
f 908 903 902
f 862 861 907
f 908 902 909
f 906 910 902
f 910 906 860
f 902 910 909
f 860 863 910
f 907 911 862
f 864 862 911
f 908 909 912
f 913 909 910
f 913 910 863
f 911 914 864
f 915 865 864
f 864 914 915
f 863 824 913
f 866 865 915
f 916 912 909
f 913 824 867
f 914 917 915
f 913 918 909
f 913 867 918
f 919 866 915
f 915 917 919
f 916 909 918
f 827 866 919
f 868 918 867
f 916 918 920
f 917 921 919
f 918 868 920
f 919 922 827
f 922 919 921
f 920 868 923
f 923 924 920
f 870 827 922
f 868 869 923
f 925 870 922
f 923 869 926
f 927 928 923
f 923 926 927
f 926 869 832
f 832 833 926
f 870 925 871
f 927 926 929
f 872 926 833
f 925 930 871
f 926 931 929
f 926 872 931
f 929 931 932
f 929 932 933
f 871 930 873
f 874 932 931
f 930 934 873
f 874 931 872
f 935 933 932
f 936 873 934
f 932 874 935
f 875 790 873
f 873 936 875
f 874 876 935
f 935 876 937
f 938 875 936
f 877 875 938
f 876 838 937
f 939 937 838
f 940 941 938
f 878 877 938
f 938 941 878
f 942 939 792
f 838 792 939
f 941 879 878
f 942 792 880
f 941 840 879
f 840 880 793
f 892 891 889
f 889 894 892
f 888 894 889
f 894 899 892
f 892 943 944
f 899 894 893
f 944 896 892
f 892 899 943
f 900 896 945
f 896 946 945
f 896 944 946
f 944 947 946
f 944 943 947
f 948 943 899
f 943 948 947
f 900 945 859
f 897 904 899
f 945 949 859
f 904 948 899
f 949 950 859
f 951 948 904
f 952 948 951
f 859 950 905
f 953 951 904
f 954 951 953
f 953 904 903
f 953 903 908
f 950 955 905
f 905 955 907
f 953 908 956
f 911 907 955
f 957 956 908
f 958 911 955
f 958 959 911
f 957 908 912
f 914 911 959
f 960 957 912
f 914 959 961
f 917 914 961
f 916 960 912
f 961 962 917
f 916 920 960
f 917 962 921
f 963 960 920
f 964 963 920
f 921 962 922
f 924 964 920
f 965 922 962
f 928 964 924
f 924 923 928
f 966 967 964
f 966 964 928
f 925 922 965
f 965 968 925
f 966 928 969
f 966 969 970
f 969 928 927
f 927 929 969
f 971 970 969
f 930 925 968
f 933 971 969
f 969 929 933
f 930 968 972
f 970 973 974
f 930 972 934
f 970 971 973
f 934 972 975
f 976 934 975
f 977 973 971
f 937 971 933
f 933 935 937
f 971 978 977
f 934 979 936
f 934 976 979
f 978 971 937
f 980 981 982
f 973 980 982
f 938 936 979
f 940 979 976
f 979 940 938
f 973 977 980
f 978 939 977
f 939 978 937
f 977 942 980
f 977 939 942
f 983 984 940
f 940 984 941
f 880 985 980
f 980 942 880
f 984 840 941
f 840 984 985
f 880 840 985
f 945 946 949
f 947 948 952
f 952 946 947
f 950 949 946
f 986 946 952
f 950 946 986
f 986 952 987
f 951 987 952
f 951 954 987
f 986 988 950
f 988 986 987
f 987 989 988
f 989 987 954
f 953 956 954
f 950 988 955
f 989 990 988
f 989 954 956
f 958 955 988
f 956 957 989
f 988 990 958
f 991 990 989
f 989 957 991
f 958 990 959
f 959 992 961
f 992 959 990
f 992 990 993
f 960 991 957
f 993 990 991
f 962 961 992
f 963 991 960
f 993 991 963
f 994 992 993
f 992 994 962
f 967 993 963
f 962 994 965
f 963 964 967
f 993 995 994
f 995 996 994
f 994 996 965
f 995 993 967
f 996 995 997
f 995 967 997
f 998 965 996
f 999 998 996
f 968 965 998
f 996 997 999
f 966 970 967
f 967 970 974
f 974 997 967
f 1000 968 998
f 999 997 974
f 999 1000 998
f 972 968 1000
f 1000 999 1001
f 1000 1001 972
f 982 999 974
f 982 974 973
f 1002 1001 999
f 999 982 1002
f 972 1001 975
f 981 1002 982
f 983 975 1001
f 940 976 975
f 975 983 940
f 983 1001 1002
f 981 980 985
f 983 1002 984
f 981 985 1002
f 1002 985 984
