v 291.437164 -46.284973 -124.997498

v 281.976074 -45.749023 -122.585205

v 284.556885 -40.341064 -119.178467

v 285.136902 -48.432343 -125.060738

v 279.767517 -50.302826 -124.329605

v 279.549561 -53.912964 -125.158173

v 270.168457 -57.923950 -124.197632

v 268.722046 -62.881348 -125.139603

v 264.382507 -64.381989 -123.627808

v 293.317383 -51.280029 -124.593994

v 298.109985 -47.856995 -121.553192

v 289.100342 -57.413254 -124.962677

v 282.517822 -63.803242 -125.092888

v 264.218506 -70.020851 -124.998596

v 294.803589 -57.990143 -121.502686

v 262.656067 -76.488571 -125.063210

v 260.165833 -75.076050 -123.473022

v 272.967407 -72.570679 -125.111099

v 287.982971 -66.580170 -121.389404

v 277.419434 -71.109863 -124.408447

v 259.247650 -81.158051 -124.247742

v 262.812012 -82.251465 -125.147858

v 280.382141 -74.561493 -121.291443

v 270.812988 -78.194214 -124.252197

v 263.247681 -84.701660 -124.594849

v 255.814453 -85.113647 -120.221558

v 268.532959 -85.086426 -121.910156

v 270.323364 -51.642334 -119.980957

v 266.348938 -57.424194 -120.334717

v 296.284424 -41.269287 -120.466187

v 302.303467 -41.012207 -119.779053

v 303.450989 -43.381226 -120.942810

v 259.322357 -68.672836 -119.372925

v 311.165039 -43.101318 -115.532227

v 305.859436 -47.183197 -120.906464

v 257.596649 -76.117485 -118.475433

v 303.699219 -55.756927 -120.781799

v 309.964844 -48.920227 -117.740356

v 299.577515 -62.243744 -120.817108

v 294.930725 -69.221527 -120.820160

v 261.390137 -87.206421 -122.416748

v 307.375183 -58.860809 -117.435364

v 256.350525 -92.069122 -120.867760

v 253.781677 -93.408539 -119.118164

v 288.476074 -78.155518 -121.026489

v 264.313721 -90.357605 -121.143997

v 272.271851 -85.408569 -121.129845

v 255.338287 -98.408752 -121.065674

v 290.880127 -78.181885 -120.287598

v 295.448242 -75.717834 -117.982178

v 251.803223 -101.187744 -118.465332

v 254.758011 -104.649979 -121.068314

v 285.720154 -90.537247 -120.902496

v 292.644043 -84.058105 -117.701050

v 288.838867 -85.717285 -120.264404

v 277.330688 -99.924538 -120.946991

v 251.824463 -110.311615 -120.103577

v 289.715210 -93.616699 -117.462097

v 268.287079 -108.006775 -120.931229

v 256.135376 -115.626099 -120.875748

v 250.357040 -114.119514 -118.296066

v 260.155029 -116.166504 -120.348389

v 271.587402 -111.970428 -117.517761

v 258.005859 -120.300781 -117.953613

v 278.937775 -37.647697 -115.607971

v 285.186523 -35.848206 -115.239563

v 274.902405 -40.754562 -115.692078

v 290.613281 -36.472412 -115.107910

v 270.591522 -45.163544 -115.589478

v 267.285522 -52.155766 -115.056824

v 303.166107 -38.062134 -114.474365

v 263.382141 -62.165649 -114.924072

v 259.429688 -69.783447 -114.977295

v 314.213867 -48.166138 -116.398438

v 316.729004 -46.046875 -114.125977

v 253.124908 -90.621384 -114.233803

v 314.074707 -57.501343 -116.756836

v 317.496582 -53.716064 -114.075439

v 304.524048 -65.129471 -117.209717

v 300.085022 -70.916656 -117.248291

v 313.757141 -64.531860 -116.879852

v 317.950928 -65.421478 -113.812378

v 309.789917 -72.351044 -116.849335

v 304.359924 -80.337280 -117.031769

v 295.463318 -81.022217 -117.141136

v 246.593414 -106.017548 -111.195801

v 244.275452 -113.258484 -112.562744

v 314.180237 -75.117737 -113.222778

v 306.531738 -81.778809 -116.150635

v 292.853027 -90.122131 -117.199799

v 247.380096 -116.507141 -116.723015

v 243.597229 -121.519897 -115.772583

v 296.903931 -92.611618 -116.650146

v 282.387390 -102.187378 -117.305725

v 253.157318 -121.191650 -117.152687

v 303.121338 -91.968811 -113.307098

v 244.876404 -126.168350 -117.005951

v 290.913177 -102.788940 -116.875336

v 299.301758 -97.457275 -113.368988

v 241.868530 -131.433441 -115.959229

v 287.893311 -107.178162 -116.398071

v 275.033691 -116.424774 -116.593628

v 262.269073 -121.514771 -117.132278

v 244.343369 -135.762268 -116.998611

v 264.119415 -126.839508 -116.885605

v 292.434570 -108.086304 -113.941895

v 238.934464 -136.776093 -113.671692

v 281.065918 -116.050331 -113.560486

v 275.638855 -123.015747 -113.263031

v 246.163147 -138.501465 -116.399658

v 242.118652 -141.557251 -113.833008

v 267.386353 -129.558838 -113.934082

v 246.814941 -141.822266 -113.914063

v 289.890930 -32.101807 -111.796753

v 286.984497 -32.238892 -110.163971

v 281.939209 -36.333862 -110.901367

v 275.331299 -41.929256 -110.452332

v 271.860199 -46.608887 -110.258209

v 304.765503 -35.247559 -111.794434

v 269.201416 -53.906464 -110.372375

v 266.620972 -61.255402 -110.439941

v 316.921875 -41.934814 -112.071289

v 263.704468 -68.221863 -110.339233

v 260.665161 -76.027954 -110.104919

v 258.420776 -80.946167 -110.331299

v 319.747314 -47.998062 -113.250061

v 327.232758 -49.390137 -112.027771

v 254.811203 -89.152832 -110.483887

v 330.352661 -56.875366 -113.085045

v 319.891724 -57.072083 -113.156166

v 249.608292 -100.328156 -110.654785

v 320.165222 -67.343567 -113.110008

v 334.649261 -56.517670 -110.549561

v 335.907104 -62.411072 -112.169922

v 334.624146 -65.831299 -112.510376

v 331.177185 -70.763763 -112.868576

v 310.577576 -82.575935 -113.278320

v 239.292969 -126.848999 -111.640381

v 325.475952 -78.502319 -112.806183

v 321.381653 -83.835266 -112.811630

v 235.111603 -137.757294 -111.567139

v 312.225342 -93.009766 -112.315430

v 306.982666 -98.849045 -112.758545

v 295.557465 -104.813721 -113.324036

v 235.581970 -141.579956 -112.860245

v 231.504120 -144.593384 -111.512817

v 313.011719 -96.066406 -110.214844

v 298.222656 -108.468018 -112.137939

v 289.278320 -113.792480 -112.400146

v 232.009247 -148.136841 -112.982719

v 225.950317 -153.569351 -111.882996

v 293.648926 -116.528885 -109.151779

v 282.281311 -123.701233 -112.678894

v 244.815063 -145.955750 -113.026192

v 228.115967 -155.559113 -113.006805

v 268.718689 -131.841461 -113.028458

v 276.709229 -134.334381 -112.761200

v 249.352402 -157.941345 -112.962387

v 223.370392 -162.113113 -112.372246

v 270.417236 -142.870850 -112.963028

v 287.684937 -123.654510 -109.327240

v 283.904480 -131.474838 -109.148865

v 262.853821 -154.073975 -112.880646

v 219.219238 -168.233093 -109.993286

v 223.957367 -167.843262 -112.980553

v 225.495117 -174.637878 -112.182983

v 271.995361 -144.961243 -112.261353

v 280.156738 -138.732635 -109.228546

v 239.969543 -169.173019 -112.816956

v 250.570068 -160.584961 -111.935059

v 232.915222 -176.622070 -112.608459

v 271.444092 -151.903687 -109.531494

v 260.265137 -159.558594 -110.638672

v 233.296082 -181.850586 -109.188965

v 293.782776 -30.242294 -107.734192

v 288.516602 -35.098145 -103.791016

v 282.758789 -39.299316 -108.640137

v 299.521149 -30.154327 -107.644653

v 280.508667 -44.504395 -108.355713

v 276.153076 -52.005775 -108.566650

v 308.390808 -32.837463 -107.963989

v 269.763428 -65.855225 -108.434082

v 276.621094 -57.720947 -106.191406

v 316.938080 -37.245117 -107.502197

v 264.761230 -79.786171 -108.254395

v 324.680664 -43.380859 -107.511719

v 271.566162 -69.781128 -105.995117

v 258.588867 -93.364014 -106.073730

v 266.735352 -82.137451 -105.984375

v 328.809570 -44.667507 -99.694580

v 251.710999 -101.705322 -106.393799

v 247.983810 -107.756348 -105.919067

v 244.173920 -114.064117 -106.525452

v 339.841187 -64.568787 -104.554199

v 240.812088 -121.382187 -106.976746

v 341.189453 -69.246765 -104.301758

v 237.932526 -128.559753 -106.645752

v 340.576416 -72.584717 -105.237061

v 339.350098 -76.051025 -105.528809

v 234.594940 -136.467545 -107.143616

v 333.864258 -81.808594 -106.479492

v 229.163193 -146.288437 -107.344269

v 326.296143 -89.737061 -105.959473

v 320.433594 -96.694397 -105.878174

v 310.855469 -104.500977 -108.260742

v 223.452759 -154.021973 -107.552490

v 313.121826 -106.780624 -105.762817

v 301.730957 -109.982712 -109.685425

v 217.684570 -163.717529 -106.830566

v 302.880859 -115.034912 -108.581238

v 297.449341 -124.224701 -108.706757

v 216.064896 -172.227142 -108.200943

v 291.549927 -132.739960 -108.889450

v 304.313965 -119.848328 -105.647583

v 293.994629 -133.155273 -108.018066

v 223.997925 -178.879150 -109.272156

v 288.022064 -141.193970 -108.767609

v 276.288452 -145.963928 -109.247742

v 217.665649 -180.142426 -108.601013

v 211.696411 -177.270020 -104.715271

v 296.747803 -135.356079 -105.375183

v 221.597275 -185.281616 -108.754333

v 275.622559 -154.966431 -108.559814

v 256.966797 -164.553711 -107.993164

v 250.385254 -171.967773 -105.815186

v 214.058228 -184.526871 -105.329880

v 284.721680 -148.134033 -108.169434

v 292.164673 -143.567215 -105.352295

v 267.380859 -160.173080 -108.401855

v 259.439880 -168.073364 -105.081390

v 267.026489 -165.874176 -105.082764

v 241.222168 -181.465332 -105.760254

v 226.923584 -186.921143 -108.141968

v 222.576828 -190.217651 -105.592957

v 230.614868 -190.072937 -105.108963

v 294.218018 -30.101196 -102.852539

v 301.145844 -29.176054 -103.019745

v 284.186523 -46.287109 -104.716797

v 312.759216 -33.384228 -103.497589

v 284.607422 -52.751953 -102.815430

v 321.139252 -36.900970 -99.775635

v 278.234619 -65.281982 -104.348633

v 282.230225 -60.874023 -102.065186

v 274.121582 -75.211601 -104.355469

v 267.618652 -87.153076 -104.284180

v 272.939087 -85.199402 -101.559540

v 333.526001 -51.511627 -99.703247

v 262.063965 -96.486572 -104.487671

v 266.373169 -96.874207 -101.583374

v 257.479980 -103.881470 -104.502014

v 246.117798 -113.914124 -105.437958

v 252.237671 -113.826057 -104.566162

v 259.246460 -108.052246 -101.878174

v 242.499512 -121.589111 -105.638306

v 246.433105 -123.516968 -104.055908

v 241.596680 -130.982422 -103.810059

v 236.682129 -135.282227 -104.696289

v 230.870636 -145.549316 -101.069824

v 336.129730 -83.536652 -105.059067

v 347.052002 -79.607361 -103.331299

v 346.350220 -84.700745 -104.847153

v 223.447571 -153.765320 -102.730713

v 325.630554 -94.271896 -105.024078

v 217.879364 -161.139099 -102.811249

v 347.413818 -90.798828 -104.911980

v 317.723511 -104.201324 -105.028244

v 349.777588 -89.907837 -103.298340

v 213.362488 -168.527100 -103.255737

v 309.568848 -116.680115 -105.014778

v 335.080414 -101.903442 -104.950867

v 210.930786 -175.384277 -103.510376

v 322.289429 -111.755333 -104.935318

v 346.630402 -104.824829 -104.825012

v 327.215820 -110.537689 -104.154785

v 301.277222 -127.247345 -105.290466

v 350.330688 -99.952515 -103.943726

v 335.438812 -104.932373 -104.210449

v 317.605225 -118.818024 -104.663666

v 308.085815 -128.490204 -104.581116

v 327.546875 -114.553101 -101.774902

v 209.064453 -186.168716 -104.081879

v 317.601807 -124.347900 -101.656738

v 346.190918 -109.904480 -101.349792

v 353.712891 -105.779297 -99.649902

v 303.005493 -136.434509 -104.494019

v 298.917725 -143.072510 -104.520569

v 212.786011 -195.174408 -104.406616

v 309.223633 -133.688965 -101.631470

v 206.457642 -191.493347 -101.487099

v 288.627686 -149.524292 -105.278564

v 217.210388 -191.360718 -104.994972

v 282.206421 -156.643494 -105.059921

v 218.239441 -198.669418 -104.772736

v 302.113892 -145.984985 -101.434326

v 293.250366 -152.872375 -104.517334

v 250.800903 -174.719788 -104.991425

v 297.779541 -152.500977 -101.725342

v 241.864502 -184.346832 -104.952484

v 266.337555 -174.676331 -104.768936

v 253.660400 -181.028198 -104.828293

v 227.094055 -198.307739 -104.851471

v 211.363281 -199.943604 -101.416016

v 286.311462 -163.784241 -104.866798

v 244.849365 -188.065063 -104.851959

v 221.574463 -200.729980 -103.906494

v 289.026611 -163.605591 -104.012329

v 248.538574 -188.237427 -104.100342

v 228.306366 -200.578613 -103.967285

v 259.628418 -183.018555 -101.680176

v 239.516113 -194.078369 -103.968018

v 279.375244 -173.622314 -104.147339

v 285.914063 -170.397461 -102.425781

v 270.253906 -178.764648 -101.512695

v 298.373474 -30.038330 -98.671875

v 295.463837 -33.773987 -97.817444

v 309.614838 -33.018780 -99.117340

v 292.112122 -41.254700 -97.805542

v 290.768555 -50.011200 -97.756165

v 286.607910 -58.812988 -100.444092

v 290.239502 -57.514160 -97.716614

v 285.411377 -69.529541 -100.585693

v 278.880005 -73.239021 -101.689758

v 289.250000 -66.562744 -97.997314

v 286.676758 -76.813965 -98.138672

v 283.178223 -77.449890 -100.671021

v 280.056885 -85.553040 -100.711487

v 274.352539 -95.526520 -100.753784

v 278.880859 -93.833984 -98.423828

v 339.946899 -61.369995 -99.715088

v 266.060303 -106.520020 -100.550049

v 272.251953 -104.535767 -97.947998

v 255.100586 -118.026367 -100.885742

v 264.192871 -114.326538 -97.762817

v 345.015930 -70.209045 -99.366577

v 252.774902 -126.060181 -97.961426

v 244.519531 -134.681946 -98.001953

v 234.964111 -143.421875 -98.629395

v 349.495728 -81.260620 -99.475586

v 227.740692 -152.657349 -98.121216

v 223.189331 -157.479980 -98.680176

v 219.057983 -162.743164 -98.494141

v 214.469482 -167.655273 -98.534912

v 209.073090 -176.200317 -97.099304

v 352.431641 -96.100098 -99.677734

v 206.237671 -181.274963 -100.032837

v 335.593628 -109.701599 -101.149323

v 204.011719 -185.955566 -100.395142

v 325.994385 -119.524933 -101.015198

v 330.205322 -120.465912 -100.841843

v 201.436523 -192.055450 -99.511475

v 338.522461 -115.690308 -100.616943

v 202.799698 -196.413605 -100.554398

v 352.280640 -109.870361 -100.322144

v 312.155518 -133.260376 -100.962601

v 200.840118 -201.365967 -97.697144

v 344.481323 -115.482910 -100.302643

v 321.180542 -132.517395 -100.885788

v 329.484375 -125.594482 -100.277222

v 305.759827 -141.035400 -101.177277

v 350.225647 -117.196045 -100.423645

v 341.791962 -120.160156 -96.999374

v 334.462524 -124.628418 -97.452271

v 206.453003 -201.372559 -100.035889

v 322.751465 -134.651230 -100.168823

v 355.230469 -121.111328 -95.027344

v 326.972168 -136.677734 -96.835938

v 310.551514 -144.529602 -100.835663

v 317.641602 -141.325958 -100.149170

v 219.537109 -205.051758 -100.471680

v 214.469238 -207.534912 -97.450562

v 306.349609 -151.667969 -100.023926

v 297.364258 -159.426758 -99.647461

v 222.503906 -208.671875 -97.737793

v 249.680664 -192.117676 -101.423584

v 265.323730 -184.986816 -99.951904

v 235.239258 -205.466797 -97.173828

v 258.733154 -190.261475 -100.176270

v 247.630859 -196.880859 -99.875000

v 278.943359 -178.118164 -100.423340

v 274.776855 -185.674805 -96.792480

v 264.893372 -189.024170 -97.552124

v 259.644775 -194.114502 -97.657959

v 249.554688 -200.203125 -96.984863

v 301.338623 -35.665771 -96.540955

v 305.116150 -33.512573 -97.119385

v 298.361572 -41.084229 -96.648682

v 306.042328 -37.418091 -93.708221

v 296.989014 -47.568253 -96.731873

v 303.175110 -40.642334 -93.454865

v 319.200012 -38.118324 -94.182365

v 300.730469 -48.178223 -93.647461

v 322.914948 -39.858322 -94.753601

v 296.785645 -54.453735 -96.508667

v 294.643555 -63.177368 -96.444824

v 298.817383 -62.609375 -93.510254

v 330.605408 -49.447876 -94.544189

v 291.292969 -72.977539 -96.281738

v 335.204163 -54.149292 -94.831482

v 288.488281 -85.702209 -94.008545

v 293.146484 -75.381104 -94.056641

v 284.169189 -95.304993 -93.882324

v 340.896179 -61.953247 -94.926025

v 277.473145 -103.502930 -96.155762

v 281.499268 -102.482491 -93.625732

v 272.128662 -112.479126 -96.425537

v 345.303345 -70.910156 -93.997314

v 278.596558 -109.158905 -93.576294

v 266.735718 -120.619568 -96.683868

v 258.768066 -122.486664 -97.235077

v 274.030029 -116.943970 -93.588562

v 260.801147 -128.147980 -96.939865

v 248.286987 -134.366119 -97.123779

v 269.034668 -124.054443 -93.841187

v 262.760254 -129.076660 -96.090088

v 347.391235 -75.771973 -90.690918

v 239.705200 -142.380981 -97.246948

v 251.706848 -139.683746 -96.773010

v 233.776550 -147.319519 -97.412018

v 242.988586 -146.972656 -96.729309

v 351.681519 -85.499542 -90.848816

v 235.228516 -152.605957 -96.505249

v 229.927734 -157.944519 -95.980957

v 246.387207 -150.058105 -93.684937

v 232.828491 -159.802979 -93.598022

v 223.878906 -168.038086 -92.699219

v 214.111572 -172.271484 -95.150391

v 211.061157 -177.963135 -90.379272

v 204.439835 -181.175858 -94.964417

v 199.584137 -185.295105 -95.003540

v 196.858765 -190.339233 -95.464478

v 195.357483 -195.818542 -95.566956

v 197.941833 -205.951050 -96.147491

v 356.155884 -116.490555 -93.118164

v 356.382202 -110.373047 -90.394775

v 351.635315 -122.195923 -97.276367

v 206.196411 -210.733765 -96.434814

v 337.682129 -130.378845 -96.685272

v 346.040466 -132.047485 -96.710144

v 203.725830 -213.415039 -93.807373

v 352.780792 -127.402100 -96.516022

v 319.852295 -148.031128 -94.022217

v 329.937958 -139.997314 -93.573242

v 214.660645 -211.923340 -95.960693

v 346.727783 -136.666016 -93.550537

v 339.119476 -136.079559 -92.960167

v 211.346680 -215.144287 -93.659424

v 308.122559 -156.232910 -94.018799

v 300.687988 -162.404297 -94.238281

v 351.388184 -134.190918 -93.749512

v 297.497803 -167.997192 -93.863281

v 222.904297 -213.847412 -93.771240

v 292.008789 -175.159210 -93.666382

v 235.632446 -210.171143 -93.734253

v 283.083496 -184.668457 -93.273560

v 261.669922 -198.506348 -96.070557

v 249.313583 -204.637207 -93.721313

v 271.032104 -195.543213 -93.554810

v 259.461426 -203.006836 -93.623535

v 304.274597 -45.508972 -92.832977

v 319.622437 -43.245605 -92.335052

v 307.963562 -48.307129 -89.851257

v 303.353271 -53.655762 -89.972168

v 318.311188 -46.686401 -89.833069

v 305.212646 -60.915771 -88.672363

v 298.622314 -73.019043 -92.079590

v 328.623322 -58.524323 -86.303345

v 293.298340 -84.785645 -92.171631

v 300.800781 -77.391602 -89.107910

v 339.325836 -64.198242 -90.552734

v 288.774902 -96.696533 -92.384155

v 294.835693 -89.004990 -89.698120

v 284.862671 -109.570061 -92.588074

v 290.479248 -103.503052 -89.822144

v 277.476807 -120.951828 -92.373657

v 264.807617 -133.656006 -93.022461

v 276.560547 -127.341309 -89.877930

v 255.347656 -141.507568 -93.957031

v 260.888672 -141.260742 -92.102539

v 263.803955 -142.269043 -89.788330

v 254.243408 -149.601563 -92.212036

v 354.254578 -93.805206 -90.813171

v 254.292480 -153.997803 -89.891357

v 241.605286 -160.279663 -92.432312

v 224.424255 -171.815918 -89.905518

v 218.795410 -174.872070 -89.988037

v 206.600403 -181.487061 -90.337524

v 199.719147 -186.473145 -90.429688

v 242.281494 -164.128906 -89.810059

v 195.580170 -191.036804 -90.789734

v 193.507935 -195.561722 -91.204865

v 355.287231 -100.438255 -87.992249

v 191.956299 -200.436157 -91.727295

v 192.010498 -206.296173 -91.765442

v 195.590393 -211.404785 -92.441650

v 201.163239 -218.112274 -91.978424

v 356.147217 -129.174805 -90.658203

v 322.804321 -149.414185 -92.884056

v 209.513794 -220.143799 -92.178406

v 308.274963 -159.005676 -92.949097

v 354.136597 -135.947021 -91.856567

v 301.802612 -164.938080 -92.946854

v 350.712280 -142.941589 -92.747269

v 296.855591 -173.832214 -92.894440

v 219.985352 -219.354736 -91.813232

v 344.484528 -155.233215 -92.754158

v 319.619751 -164.221069 -92.823692

v 306.373230 -174.241913 -92.805641

v 351.986694 -145.983643 -91.856567

v 288.272461 -183.241440 -92.882736

v 235.788330 -214.871094 -91.941650

v 231.093262 -220.192627 -89.252197

v 250.823975 -209.956543 -92.048218

v 319.296082 -167.640381 -91.812378

v 294.174561 -186.827637 -92.647339

v 287.547241 -190.244843 -92.646393

v 281.689941 -193.539719 -92.272766

v 347.380615 -154.969971 -91.591797

v 341.185913 -165.639435 -92.685715

v 305.095215 -179.216553 -91.905762

v 247.662994 -215.209473 -89.194061

v 311.759766 -177.088623 -89.496826

v 271.460449 -200.776367 -91.682617

v 267.685547 -205.531982 -89.497314

v 259.102356 -210.714844 -89.245178

v 329.418030 -171.367188 -92.733948

v 296.520508 -191.169312 -89.413696

v 344.807861 -162.556488 -91.789063

v 327.007874 -176.417145 -88.968124

v 333.730469 -172.601074 -92.148560

v 311.400269 -52.165649 -88.549500

v 322.538544 -51.997437 -88.710297

v 313.020752 -55.566040 -85.887085

v 322.812073 -55.947815 -85.834808

v 304.746094 -72.874939 -86.284180

v 301.037109 -85.206787 -88.292114

v 340.227356 -71.047485 -86.337891

v 300.144714 -93.906128 -88.683472

v 293.168030 -95.351959 -89.456757

v 295.333740 -103.798218 -88.469238

v 302.841797 -98.602539 -85.575195

v 348.508301 -83.237793 -86.851318

v 295.419922 -109.441895 -86.088867

v 287.328125 -115.084412 -88.992188

v 281.615723 -127.644531 -87.968994

v 287.918945 -121.181946 -86.070801

v 351.622803 -89.555664 -86.669312

v 274.323486 -136.916016 -88.214233

v 264.949707 -149.031128 -88.088379

v 354.101013 -96.252319 -86.597168

v 208.767273 -184.106934 -88.190186

v 254.076416 -161.048340 -87.955078

v 226.497986 -177.360352 -88.091553

v 200.773438 -195.082031 -84.447266

v 195.087463 -196.724609 -85.584961

v 191.288879 -200.736816 -85.865967

v 355.425781 -107.656738 -86.091309

v 189.526428 -209.214050 -87.498901

v 193.455078 -216.159912 -87.339844

v 356.948853 -119.238464 -81.953552

v 357.310059 -125.955315 -82.638550

v 202.270996 -222.530762 -85.525391

v 357.001831 -139.461792 -84.405273

v 213.570679 -225.262207 -86.291992

v 221.187500 -223.636719 -88.115234

v 353.237122 -151.398438 -87.488281

v 231.469727 -223.960449 -87.882080

v 319.121948 -171.285156 -89.575928

v 319.665070 -174.487488 -88.820908

v 311.383148 -180.879517 -88.819405

v 245.512146 -223.095276 -88.518921

v 278.739258 -200.777832 -89.159607

v 241.334229 -227.242188 -85.676758

v 263.186340 -214.620728 -88.450806

v 297.344604 -193.533813 -88.809280

v 273.292358 -208.054199 -88.079956

v 350.367676 -166.783203 -82.740723

v 279.589447 -209.547150 -88.708641

v 343.490479 -171.554199 -88.021484

v 337.687622 -176.424133 -88.919159

v 266.812988 -218.458008 -84.881866

v 253.047104 -225.521240 -85.386536

v 339.631836 -172.788086 -89.616699

v 275.205994 -213.493530 -85.512085

v 296.816650 -218.127289 -88.677422

v 328.738708 -189.044388 -88.706001

v 280.166748 -218.921265 -88.656036

v 337.722656 -183.181641 -87.561279

v 328.967651 -192.257507 -88.068848

v 319.389648 -200.882721 -88.683594

v 314.298401 -206.333252 -88.699799

v 325.925781 -198.544434 -87.687988

v 288.118164 -221.720215 -87.886475

v 286.242645 -225.484741 -85.317444

v 316.073730 -207.718262 -87.813477

v 328.707520 -202.865234 -83.521973

v 310.874023 -212.362793 -87.014160

v 309.421875 -64.000000 -84.863770

v 316.460815 -59.710938 -84.421021

v 323.124878 -60.972534 -84.278656

v 319.282349 -63.449707 -81.556213

v 312.073975 -73.027832 -81.108276

v 313.219971 -65.778320 -81.975830

v 307.197266 -80.272949 -83.570313

v 327.359833 -68.589966 -80.794281

v 331.449402 -67.135681 -83.912964

v 307.215820 -90.604980 -82.726563

v 339.947388 -77.449097 -83.436279

v 302.166016 -105.359375 -83.862305

v 306.677734 -106.046387 -80.380859

v 295.012695 -116.400879 -84.010742

v 298.811523 -115.208130 -81.755371

v 348.849609 -92.455750 -83.434326

v 290.574707 -125.029785 -84.144531

v 284.310059 -128.423584 -85.803223

v 293.512451 -125.948242 -81.801270

v 286.927246 -132.828247 -84.099609

v 277.358154 -137.993896 -85.881104

v 282.243164 -139.668457 -84.037842

v 271.289063 -149.872559 -83.773438

v 352.469727 -102.279297 -83.262695

v 209.603027 -190.790039 -83.642090

v 223.035156 -184.984375 -83.832520

v 265.371216 -157.707031 -82.410645

v 261.282227 -165.237305 -80.557617

v 253.583496 -168.275879 -83.653809

v 231.697754 -181.083496 -83.628418

v 188.673584 -207.379639 -79.063965

v 187.171326 -212.538559 -78.811142

v 355.171143 -114.540527 -80.240234

v 190.108734 -216.543243 -82.848679

v 193.932098 -221.290771 -82.353271

v 357.746918 -135.032654 -81.682434

v 209.543579 -228.845215 -82.055176

v 223.965668 -232.877441 -82.257324

v 354.604797 -152.183594 -82.285156

v 226.228516 -226.694580 -85.647949

v 231.382050 -231.414307 -83.985474

v 248.106567 -230.562500 -83.958740

v 273.301758 -213.853638 -84.965439

v 234.931152 -234.194824 -81.790039

v 253.908051 -233.286621 -81.570679

v 256.339844 -229.447815 -84.532379

v 275.120209 -221.788162 -84.922379

v 342.862793 -181.924805 -83.423828

v 269.232117 -230.746338 -84.599792

v 335.317383 -192.750977 -83.006836

v 279.693909 -231.122986 -84.502563

v 280.752991 -236.360107 -80.969360

v 269.522278 -235.812256 -81.026260

v 298.728027 -221.946045 -85.578125

v 320.056763 -212.488770 -83.398193

v 293.202026 -229.898193 -84.030518

v 311.492950 -220.158691 -83.417358

v 296.507874 -229.005432 -83.652344

v 286.673859 -234.935547 -80.603516

v 319.985840 -68.724854 -80.563477

v 317.294678 -74.564941 -77.751831

v 325.221649 -72.602783 -77.279701

v 314.880920 -78.878006 -77.375671

v 313.648804 -85.441895 -77.772217

v 332.702637 -76.365906 -78.057571

v 312.820313 -94.218506 -78.337402

v 341.395264 -85.882324 -78.254883

v 306.451660 -111.149902 -79.814941

v 303.656006 -117.807152 -80.154663

v 346.668945 -95.083984 -78.451172

v 299.301025 -125.485657 -80.073975

v 293.138672 -135.910400 -78.507813

v 285.199219 -146.003906 -78.470703

v 276.354279 -153.819336 -79.791992

v 269.457031 -160.912598 -79.734863

v 202.084595 -200.723145 -78.121094

v 213.454102 -195.077637 -78.196289

v 191.222656 -205.995605 -78.071289

v 243.057220 -178.100830 -78.450928

v 231.417236 -185.524719 -77.845520

v 258.021301 -170.476440 -78.054932

v 249.350067 -175.699951 -77.981323

v 355.169434 -121.008789 -76.914063

v 186.956299 -219.200470 -77.298279

v 191.008484 -223.750488 -79.460876

v 355.812988 -129.263428 -77.083008

v 197.524811 -227.940125 -79.748474

v 208.169189 -231.576172 -80.072144

v 355.087036 -147.499756 -74.544678

v 223.386719 -237.529541 -80.272095

v 353.704590 -160.510880 -74.705261

v 348.975586 -173.001953 -79.088379

v 236.284058 -238.004395 -80.748077

v 237.248520 -240.651855 -80.254883

v 236.885742 -247.184570 -74.580566

v 253.861389 -235.602783 -80.846512

v 240.071289 -241.921143 -79.691895

v 251.633545 -242.147827 -80.688690

v 342.539246 -186.141113 -76.511230

v 251.467773 -244.731445 -79.465332

v 335.610718 -196.357544 -78.973145

v 257.565918 -243.664642 -80.425812

v 329.653931 -205.625977 -79.116333

v 270.786255 -242.598877 -80.405792

v 264.169922 -245.486328 -77.778320

v 324.642212 -211.831146 -78.828979

v 270.675171 -244.505127 -78.822266

v 318.402344 -218.202393 -79.022949

v 275.999451 -242.348877 -79.318604

v 289.217285 -235.774902 -78.433105

v 307.525879 -225.733887 -79.032959

v 303.176880 -229.264404 -75.668091

v 293.105347 -235.223267 -74.846924

v 323.211243 -78.838318 -77.019836

v 321.627075 -83.056396 -76.428650

v 327.952515 -81.193207 -76.301819

v 319.238770 -86.921753 -76.338074

v 317.532471 -93.712952 -76.142334

v 335.536255 -84.963348 -76.010834

v 342.078125 -91.874268 -75.891357

v 314.889648 -104.524414 -74.826172

v 310.158447 -116.519775 -74.314209

v 303.977783 -127.676758 -74.053711

v 346.771729 -107.189667 -70.775146

v 298.283203 -136.912109 -74.115234

v 289.929688 -146.023438 -75.398438

v 198.058594 -207.244324 -75.722168

v 189.225342 -211.693604 -74.449219

v 211.113770 -201.296875 -75.758789

v 264.469727 -171.284180 -75.752441

v 242.584229 -179.903320 -77.518005

v 276.427734 -162.020874 -74.170898

v 221.882935 -196.848389 -75.971924

v 256.515381 -177.537842 -76.039063

v 243.142944 -184.454498 -76.337349

v 228.895630 -194.008789 -76.038696

v 244.512436 -185.762115 -75.143845

v 191.461670 -226.952515 -72.778076

v 355.588867 -139.540955 -74.497559

v 198.447266 -231.328857 -74.292969

v 207.616699 -239.710938 -70.416016

v 215.340332 -239.599609 -75.910156

v 223.365234 -245.661133 -71.942871

v 350.319458 -170.140381 -74.413086

v 346.601318 -178.337891 -74.609619

v 335.499115 -197.488647 -74.591431

v 255.669922 -250.918945 -71.535156

v 249.449219 -249.416992 -74.112305

v 328.985626 -206.309570 -74.630859

v 268.640137 -246.463257 -72.338867

v 319.525391 -216.310913 -74.476563

v 279.977417 -241.586365 -75.461670

v 306.450439 -226.236099 -74.514893

v 325.370483 -89.390320 -69.382233

v 323.182861 -92.055344 -69.828857

v 328.709412 -88.046631 -69.758240

v 334.724365 -90.231171 -70.113098

v 322.308350 -100.933624 -69.942139

v 318.370117 -110.028320 -71.905273

v 343.002167 -99.263184 -70.331787

v 322.656036 -107.051224 -69.233307

v 319.761597 -112.925781 -69.729614

v 315.877930 -119.978149 -69.992432

v 309.744629 -130.120361 -69.832275

v 304.066895 -137.576782 -69.747192

v 299.379883 -143.863861 -69.776855

v 348.261078 -113.761719 -69.955780

v 291.573486 -153.894699 -69.792358

v 197.683594 -211.130371 -71.823242

v 351.429932 -123.391281 -70.240723

v 280.115967 -166.241943 -70.001465

v 207.087891 -208.286621 -71.845215

v 186.373962 -219.794128 -67.073547

v 216.456177 -203.862305 -71.711914

v 268.595703 -176.353516 -70.281250

v 231.268066 -198.941650 -70.145996

v 252.001221 -186.316284 -70.488358

v 187.766663 -225.328659 -67.180267

v 351.750793 -135.970459 -69.942993

v 199.199097 -236.341187 -69.864624

v 350.997925 -147.606873 -69.826782

v 203.325684 -239.928467 -67.333496

v 349.646729 -157.205475 -69.991577

v 346.926270 -168.950928 -70.086670

v 221.598389 -248.055664 -67.795410

v 345.405762 -175.768616 -70.264038

v 343.385742 -181.616638 -70.015381

v 236.382141 -252.155579 -71.355469

v 338.570679 -190.026947 -70.207031

v 335.172119 -195.382065 -70.271973

v 246.795898 -252.560669 -71.390259

v 329.578125 -202.591797 -70.231934

v 317.632813 -213.814209 -66.328613

v 313.026123 -218.360535 -66.124146

v 307.015747 -222.180664 -66.666016

v 302.112305 -229.065430 -71.001953

v 289.625732 -236.831299 -68.273193

v 337.420959 -96.141907 -69.038834

v 325.714355 -97.655273 -69.040497

v 335.348389 -106.226807 -68.855606

v 324.960815 -112.589844 -68.704895

v 344.280945 -106.457245 -69.346443

v 336.440857 -112.142395 -65.148712

v 340.495850 -109.576874 -68.138580

v 319.625000 -123.244629 -67.828613

v 328.325745 -116.754883 -65.209106

v 312.666016 -134.254089 -67.956665

v 308.147339 -141.134766 -68.086182

v 342.353790 -121.396950 -65.173805

v 346.195313 -120.516296 -68.016357

v 304.399780 -146.130676 -68.052124

v 299.835510 -152.233719 -67.895203

v 190.209045 -215.075928 -66.197754

v 343.653778 -127.727310 -65.366333

v 291.939331 -160.680481 -67.914185

v 203.911133 -213.646484 -66.173828

v 347.149658 -130.453812 -68.047852

v 284.053833 -169.480469 -67.860107

v 228.758789 -203.762695 -67.522461

v 219.673828 -208.336914 -65.238281

v 279.000732 -174.370056 -67.686523

v 264.384277 -184.496094 -67.709473

v 242.589355 -197.500183 -67.684082

v 190.925079 -231.419556 -64.089828

v 343.304199 -136.674805 -65.223633

v 346.239624 -143.624023 -67.976440

v 344.972900 -157.974609 -67.855713

v 211.526611 -244.695923 -66.834229

v 342.943359 -166.215332 -66.989258

v 338.681641 -179.275208 -66.883301

v 232.886230 -252.491425 -67.260254

v 332.459961 -187.886597 -65.095703

v 330.214844 -193.348145 -65.464844

v 323.102539 -205.326172 -65.831055

v 241.674622 -254.083633 -64.062317

v 249.843079 -253.647995 -63.839096

v 257.314270 -251.772156 -66.623657

v 296.153992 -227.144043 -61.699646

v 267.391907 -247.495285 -66.566818

v 277.998108 -242.392136 -66.311035

v 289.047119 -233.978638 -62.112976

v 327.240234 -121.879150 -64.352051

v 324.493286 -127.362793 -62.003906

v 334.243408 -122.943802 -64.097931

v 335.844604 -120.804382 -64.911827

v 317.566650 -135.076660 -61.964233

v 309.714966 -143.946960 -62.457764

v 340.528931 -131.884384 -64.467102

v 302.000244 -153.807251 -62.591553

v 188.752197 -222.398438 -62.532715

v 192.328613 -219.185547 -62.433594

v 337.811371 -136.827881 -61.245285

v 293.422363 -163.593384 -62.563721

v 200.755981 -219.296875 -61.521484

v 189.536499 -227.769287 -60.740845

v 289.667145 -169.634796 -61.559082

v 216.356445 -214.675781 -61.699707

v 227.802490 -208.526947 -61.840454

v 286.279053 -174.103210 -61.658508

v 273.406006 -184.039001 -61.800659

v 238.036743 -203.997559 -61.649292

v 262.766602 -191.290527 -61.480011

v 248.926270 -198.646484 -62.135742

v 339.402100 -143.843262 -61.635376

v 339.201172 -150.931274 -61.646240

v 196.552628 -236.983932 -59.707031

v 336.998413 -161.380859 -61.649658

v 338.673340 -170.046387 -64.743652

v 334.423828 -175.709534 -63.803223

v 334.500000 -168.345306 -61.454956

v 331.357605 -174.674332 -61.300781

v 216.452393 -250.069275 -55.234863

v 328.591949 -182.437469 -61.228134

v 230.191162 -252.737885 -60.863770

v 326.286438 -188.925278 -61.204376

v 323.852814 -193.805237 -61.137817

v 320.946777 -199.472229 -61.297455

v 238.467529 -253.798187 -58.134033

v 311.874390 -209.882782 -61.304565

v 303.903809 -218.762268 -61.551147

v 259.075195 -250.430389 -62.132202

v 265.750244 -247.043457 -62.010986

v 277.200684 -241.269089 -62.579346

v 330.528687 -126.184753 -61.067375

v 323.708984 -132.362061 -60.998810

v 326.562683 -134.800598 -60.899937

v 312.639893 -143.434509 -61.178162

v 318.431885 -144.264893 -60.121826

v 327.283813 -138.921143 -60.189026

v 304.749512 -153.184311 -61.328979

v 312.410034 -150.882996 -60.348816

v 304.116455 -160.103638 -60.240112

v 333.034332 -140.766327 -60.528278

v 296.296997 -162.884460 -61.272095

v 192.827148 -226.673828 -57.906860

v 329.293518 -144.049286 -57.041538

v 310.707581 -159.267273 -57.108826

v 297.853149 -169.175659 -60.420532

v 214.000488 -219.485596 -57.492676

v 335.692627 -149.920380 -59.820801

v 193.992676 -233.103149 -57.823730

v 303.624329 -166.797363 -57.574341

v 226.499023 -214.786621 -59.614502

v 292.421387 -175.570801 -60.118164

v 249.114624 -200.853241 -61.110046

v 235.241211 -211.464905 -59.918457

v 219.923828 -218.448730 -57.143555

v 284.691406 -182.693848 -60.193787

v 244.542114 -208.674194 -60.292358

v 301.946533 -172.756104 -56.498535

v 273.954590 -190.270691 -60.235596

v 263.145020 -199.717300 -60.433899

v 253.753906 -205.345703 -60.298218

v 281.050781 -188.847961 -57.785156

v 331.504883 -153.378784 -56.993301

v 331.952637 -162.959732 -60.163513

v 201.992706 -241.632187 -54.956863

v 208.175659 -245.997223 -54.945297

v 325.892975 -173.705170 -60.143738

v 325.238770 -167.552551 -57.545044

v 323.024109 -180.031113 -60.254440

v 319.348480 -186.785080 -60.279755

v 316.713623 -191.989151 -60.464935

v 223.954575 -252.955536 -54.863026

v 313.168030 -199.176834 -60.426956

v 309.072754 -196.092041 -56.754883

v 307.604797 -206.477112 -60.298401

v 301.766602 -208.831116 -57.844238

v 300.385132 -214.794342 -60.115509

v 288.781006 -222.426758 -57.707764

v 289.805969 -225.594666 -59.966309

v 276.087280 -233.028442 -57.592773

v 249.566650 -251.870850 -58.159424

v 275.225464 -236.641113 -59.621826

v 263.324219 -241.606567 -57.774902

v 255.045166 -248.775208 -57.821533

v 319.802490 -149.065674 -57.099396

v 329.184753 -157.958130 -56.931767

v 197.047119 -231.539795 -55.824219

v 313.425781 -164.189880 -56.384888

v 323.903717 -164.339493 -56.863663

v 320.927673 -165.670746 -56.002609

v 228.064453 -219.316895 -53.604004

v 198.756104 -233.149414 -53.843384

v 210.968750 -227.317871 -53.815186

v 197.600281 -236.531494 -54.711914

v 314.963318 -168.292847 -53.456787

v 297.149170 -181.283203 -53.775879

v 287.993164 -189.314941 -54.249023

v 246.182129 -214.390625 -54.642578

v 269.372070 -200.219727 -56.877930

v 281.263672 -195.139648 -54.803711

v 258.016418 -210.166992 -53.676270

v 268.000977 -205.853027 -53.396545

v 318.427765 -169.534851 -53.053989

v 320.898926 -172.821289 -54.018311

v 286.463470 -194.514847 -52.952179

v 317.492615 -180.829956 -53.728271

v 311.005981 -189.343750 -54.002441

v 296.958740 -203.189911 -53.676270

v 296.401367 -208.358398 -55.794678

v 288.305634 -211.838669 -52.939182

v 289.250000 -216.775635 -55.825928

v 279.647430 -218.482544 -52.928967

v 279.278320 -224.229340 -55.867188

v 265.285156 -228.709824 -53.273315

v 267.255676 -232.069458 -56.060181

v 234.780273 -252.889252 -54.192627

v 254.890869 -242.218506 -55.851929

v 244.640015 -246.075302 -53.339691

v 245.424805 -250.663330 -56.425293

v 202.672852 -236.349609 -51.933105

v 304.530823 -176.962860 -52.978355

v 213.784668 -230.938965 -51.877686

v 232.984375 -222.855469 -49.830322

v 214.855255 -235.168579 -48.967865

v 204.557678 -241.247162 -50.495911

v 298.461731 -183.468781 -52.888741

v 206.467957 -239.323959 -49.007675

v 317.947723 -175.995895 -52.985477

v 248.046997 -219.374512 -49.871338

v 305.014587 -190.852570 -52.862869

v 274.854980 -204.965271 -52.861946

v 261.931519 -211.790283 -52.121338

v 208.729263 -244.402206 -50.561523

v 295.181580 -201.509598 -52.862743

v 259.733154 -216.471680 -49.306030

v 266.870056 -213.706085 -52.716236

v 261.837830 -218.200089 -49.074509

v 215.808441 -248.459427 -50.394135

v 267.361755 -220.153381 -52.691402

v 263.187744 -224.197693 -52.277679

v 257.233429 -222.796158 -49.019249

v 246.958115 -227.578354 -48.945095

v 250.071182 -232.226547 -52.522385

v 223.151123 -250.507568 -50.052612

v 241.067322 -235.418655 -49.084015

v 238.861206 -244.895416 -52.204041

v 246.270416 -236.442352 -52.391632

v 254.715027 -237.304565 -53.164032

v 235.033691 -244.315918 -50.065430

v 228.348633 -250.814453 -51.960938

v 234.976837 -225.277069 -48.889008

v 249.127335 -221.391113 -48.963440

v 234.503265 -241.000366 -48.860329

v 220.135895 -247.645996 -48.896450

f 1 2 3
f 1 4 2
f 4 5 2
f 5 6 7
f 5 4 6
f 6 8 7
f 9 7 8
f 10 1 11
f 4 1 12
f 6 4 12
f 12 1 10
f 13 8 6
f 9 8 14
f 12 13 6
f 13 14 8
f 11 15 10
f 14 16 17
f 12 10 15
f 13 18 14
f 16 14 18
f 19 13 12
f 20 18 13
f 16 21 17
f 19 20 13
f 18 22 16
f 19 23 20
f 16 22 21
f 22 18 24
f 20 23 24
f 18 20 24
f 22 25 21
f 26 21 25
f 23 27 24
f 22 24 25
f 24 27 25
f 28 2 5
f 7 29 28
f 3 30 1
f 28 5 7
f 9 29 7
f 30 31 32
f 29 9 33
f 32 11 30
f 11 1 30
f 31 34 32
f 14 33 9
f 11 32 35
f 17 33 14
f 35 32 34
f 33 17 36
f 35 37 11
f 21 36 17
f 36 21 26
f 38 37 35
f 15 11 37
f 15 19 12
f 37 39 15
f 15 39 40
f 19 15 40
f 26 25 41
f 42 39 37
f 41 43 26
f 44 26 43
f 40 45 19
f 41 25 27
f 46 43 41
f 23 19 45
f 27 23 47
f 41 27 46
f 47 46 27
f 43 48 44
f 40 49 45
f 47 23 45
f 46 48 43
f 50 49 40
f 51 44 48
f 48 52 51
f 47 45 53
f 49 54 55
f 45 49 55
f 46 52 48
f 53 45 55
f 53 56 47
f 46 47 56
f 57 51 52
f 52 46 56
f 58 53 55
f 56 59 52
f 52 60 57
f 56 53 58
f 60 61 57
f 59 60 52
f 59 62 60
f 63 59 56
f 62 59 63
f 64 60 62
f 65 66 3
f 3 67 65
f 68 3 66
f 67 3 2
f 2 69 67
f 69 2 28
f 69 28 70
f 68 30 3
f 29 70 28
f 68 71 31
f 31 30 68
f 72 70 29
f 72 29 33
f 33 73 72
f 31 71 34
f 36 73 33
f 35 34 38
f 74 34 75
f 38 34 74
f 26 76 36
f 74 77 38
f 37 38 42
f 77 42 38
f 26 44 76
f 78 74 75
f 78 77 74
f 39 42 79
f 79 80 39
f 40 39 80
f 42 77 81
f 50 40 80
f 76 44 51
f 79 42 81
f 77 82 81
f 81 83 79
f 80 79 83
f 83 84 80
f 50 80 85
f 49 50 54
f 54 50 85
f 81 82 83
f 84 85 80
f 57 86 51
f 87 86 57
f 57 61 87
f 88 89 83
f 84 83 89
f 55 54 58
f 85 90 54
f 87 61 91
f 92 87 91
f 84 90 85
f 58 54 90
f 90 84 93
f 89 93 84
f 58 94 56
f 61 95 91
f 96 93 89
f 58 90 93
f 95 97 91
f 92 91 97
f 56 94 63
f 61 60 64
f 64 95 61
f 94 58 98
f 93 96 99
f 93 98 58
f 92 97 100
f 64 62 63
f 93 99 98
f 63 94 98
f 98 101 63
f 101 102 63
f 102 103 63
f 103 64 63
f 95 64 103
f 100 97 104
f 103 105 95
f 97 95 105
f 105 104 97
f 101 98 106
f 102 105 103
f 100 104 107
f 102 101 108
f 108 109 102
f 104 105 110
f 110 111 104
f 107 104 111
f 102 112 105
f 113 111 110
f 114 66 115
f 66 116 115
f 116 66 65
f 116 65 67
f 67 117 116
f 67 118 117
f 118 67 69
f 66 114 68
f 119 68 114
f 70 118 69
f 118 70 120
f 68 119 71
f 121 120 70
f 121 70 72
f 122 34 119
f 71 119 34
f 121 72 123
f 72 73 123
f 73 124 123
f 122 75 34
f 36 124 73
f 124 36 125
f 125 36 76
f 75 122 126
f 126 122 127
f 76 128 125
f 126 127 129
f 78 75 126
f 126 130 78
f 76 131 128
f 129 130 126
f 130 82 78
f 78 82 77
f 131 76 51
f 86 131 51
f 82 130 132
f 133 129 127
f 129 132 130
f 129 133 134
f 88 83 82
f 88 82 132
f 134 135 129
f 136 129 135
f 132 129 136
f 137 89 88
f 87 92 138
f 136 139 132
f 139 88 132
f 139 140 88
f 137 96 89
f 137 88 140
f 138 92 100
f 96 137 140
f 138 100 107
f 138 107 141
f 140 142 96
f 142 143 96
f 144 98 99
f 99 96 143
f 143 144 99
f 107 145 141
f 141 145 146
f 98 144 106
f 147 143 142
f 106 108 101
f 143 148 144
f 106 144 148
f 108 106 149
f 145 107 111
f 145 150 146
f 148 149 106
f 146 150 151
f 109 112 102
f 148 152 149
f 149 153 108
f 108 153 109
f 111 154 145
f 154 150 145
f 151 150 155
f 110 105 112
f 112 113 110
f 109 156 112
f 111 113 154
f 153 157 109
f 113 112 156
f 156 154 113
f 109 157 156
f 154 158 150
f 155 150 158
f 155 159 151
f 156 157 160
f 161 162 153
f 160 163 156
f 154 156 163
f 164 159 165
f 153 162 157
f 155 165 159
f 165 166 164
f 157 167 160
f 157 168 167
f 155 158 169
f 167 163 160
f 163 158 154
f 165 155 169
f 163 170 158
f 169 158 170
f 165 169 171
f 166 165 171
f 172 163 167
f 170 163 173
f 171 174 166
f 114 115 175
f 115 116 176
f 177 116 117
f 176 116 177
f 178 119 175
f 114 175 119
f 179 177 117
f 117 118 179
f 118 180 179
f 181 119 178
f 180 118 120
f 120 182 180
f 181 122 119
f 182 120 121
f 183 180 182
f 184 122 181
f 123 182 121
f 182 123 124
f 185 182 124
f 186 122 184
f 182 185 187
f 127 122 186
f 124 125 185
f 125 128 185
f 185 188 189
f 127 186 190
f 185 128 188
f 188 128 131
f 191 188 131
f 127 190 133
f 86 191 131
f 86 192 191
f 87 192 86
f 87 193 192
f 133 194 134
f 87 138 195
f 195 193 87
f 194 196 134
f 134 196 135
f 197 195 138
f 198 135 196
f 136 135 199
f 200 197 138
f 199 135 198
f 199 139 136
f 138 141 200
f 139 199 201
f 140 139 201
f 146 200 141
f 202 200 146
f 140 201 203
f 142 140 203
f 203 204 142
f 147 142 204
f 143 147 205
f 151 202 146
f 202 151 206
f 204 207 147
f 143 205 208
f 148 143 208
f 207 205 147
f 152 148 208
f 152 161 149
f 151 209 206
f 205 210 208
f 153 149 161
f 152 208 210
f 159 209 151
f 205 207 210
f 209 159 164
f 152 210 211
f 212 209 164
f 211 213 152
f 161 152 213
f 211 210 214
f 168 157 162
f 213 162 161
f 211 215 213
f 164 216 212
f 213 217 162
f 218 167 168
f 164 166 216
f 219 212 216
f 220 212 219
f 168 162 217
f 172 167 218
f 215 217 213
f 215 221 217
f 217 218 168
f 219 216 222
f 217 223 218
f 172 173 163
f 224 170 173
f 170 225 169
f 216 166 174
f 226 219 222
f 227 223 217
f 172 218 223
f 217 228 227
f 223 229 172
f 229 173 172
f 224 225 170
f 222 216 174
f 229 224 173
f 230 224 231
f 225 232 169
f 169 174 171
f 222 174 233
f 231 224 229
f 174 169 232
f 233 234 222
f 223 231 229
f 233 174 232
f 235 234 233
f 232 235 233
f 115 236 175
f 236 115 176
f 178 236 237
f 236 178 175
f 176 177 238
f 237 239 181
f 237 181 178
f 238 177 179
f 180 238 179
f 180 240 238
f 240 180 183
f 184 181 239
f 184 239 241
f 183 242 240
f 240 242 243
f 187 183 182
f 183 187 242
f 184 241 186
f 187 244 242
f 189 187 185
f 244 187 189
f 245 244 189
f 246 244 245
f 189 188 245
f 190 247 133
f 188 248 245
f 245 249 246
f 188 191 248
f 245 248 249
f 250 248 191
f 191 192 250
f 248 250 249
f 251 192 193
f 247 194 133
f 252 250 192
f 252 192 251
f 250 252 253
f 254 251 193
f 254 193 195
f 252 251 254
f 255 252 254
f 197 254 195
f 254 256 255
f 256 254 197
f 197 257 256
f 197 200 257
f 200 258 257
f 200 202 258
f 201 199 259
f 198 196 260
f 198 261 199
f 259 199 261
f 203 201 259
f 260 261 198
f 262 202 206
f 262 258 202
f 259 263 203
f 263 204 203
f 264 262 206
f 259 261 265
f 263 266 204
f 207 204 266
f 209 264 206
f 261 260 267
f 267 265 261
f 264 209 268
f 265 263 259
f 266 269 207
f 207 214 210
f 212 268 209
f 270 266 263
f 269 214 207
f 212 271 268
f 270 272 266
f 265 270 263
f 272 269 266
f 270 265 273
f 272 270 274
f 211 214 275
f 267 276 265
f 277 274 270
f 272 278 269
f 271 212 220
f 274 278 272
f 269 275 214
f 276 273 265
f 275 269 279
f 215 211 275
f 273 277 270
f 280 278 274
f 269 278 279
f 215 275 221
f 220 226 281
f 280 282 278
f 277 273 283
f 220 219 226
f 221 275 279
f 284 273 276
f 278 282 279
f 221 279 285
f 228 217 221
f 285 286 221
f 226 287 281
f 279 288 285
f 281 287 289
f 228 221 286
f 290 227 228
f 226 222 234
f 291 226 234
f 287 226 291
f 292 227 290
f 224 230 225
f 287 291 293
f 294 286 285
f 295 290 228
f 228 286 295
f 223 227 292
f 292 231 223
f 296 225 230
f 232 225 296
f 286 297 295
f 292 290 295
f 296 298 232
f 299 300 230
f 296 230 300
f 234 301 291
f 293 302 287
f 292 295 303
f 298 235 232
f 235 301 234
f 293 291 301
f 230 231 299
f 296 304 298
f 300 304 296
f 235 298 304
f 301 305 293
f 303 295 306
f 304 301 235
f 231 292 303
f 299 231 303
f 304 300 307
f 305 301 308
f 309 307 300
f 301 304 310
f 299 309 300
f 301 310 308
f 299 303 311
f 304 307 310
f 303 306 312
f 312 311 303
f 311 313 299
f 314 237 236
f 236 315 314
f 315 236 176
f 316 237 314
f 176 317 315
f 176 238 317
f 316 239 237
f 318 317 238
f 238 240 318
f 316 241 239
f 319 240 243
f 320 240 319
f 190 186 241
f 321 319 243
f 243 242 322
f 319 321 323
f 243 322 321
f 244 322 242
f 323 321 324
f 322 325 321
f 322 244 246
f 321 325 324
f 325 322 246
f 246 326 325
f 325 326 324
f 327 326 246
f 246 249 327
f 328 326 327
f 194 247 329
f 249 250 253
f 249 330 327
f 330 249 253
f 331 327 330
f 252 332 253
f 253 332 330
f 333 330 332
f 255 332 252
f 194 329 334
f 334 196 194
f 335 332 255
f 255 336 335
f 256 336 255
f 336 256 257
f 260 196 334
f 257 337 336
f 337 257 258
f 334 338 260
f 258 262 339
f 340 339 262
f 264 340 262
f 267 260 338
f 340 264 341
f 264 342 341
f 342 264 268
f 271 343 268
f 343 342 268
f 344 267 338
f 343 271 345
f 220 345 271
f 345 220 281
f 267 344 276
f 274 277 346
f 274 346 280
f 344 284 276
f 283 346 277
f 347 345 281
f 280 346 348
f 282 280 348
f 348 346 349
f 347 281 289
f 350 347 289
f 349 346 351
f 289 352 350
f 273 284 353
f 353 283 273
f 283 351 346
f 348 354 282
f 279 282 288
f 352 355 350
f 351 283 356
f 288 282 354
f 354 348 357
f 352 289 302
f 351 358 349
f 349 357 348
f 285 288 359
f 302 289 287
f 353 360 283
f 356 283 360
f 356 361 351
f 362 358 351
f 354 359 288
f 358 357 349
f 285 359 294
f 302 363 352
f 355 352 363
f 358 364 357
f 365 360 353
f 366 364 358
f 354 357 367
f 359 354 367
f 286 294 297
f 357 364 368
f 367 357 368
f 302 369 363
f 369 370 363
f 294 359 367
f 294 367 371
f 297 294 371
f 293 369 302
f 367 368 371
f 295 297 372
f 306 295 372
f 373 370 369
f 371 372 297
f 305 369 293
f 313 309 299
f 305 308 373
f 309 374 307
f 369 305 373
f 306 372 312
f 313 375 309
f 310 307 374
f 373 308 376
f 375 377 309
f 374 378 310
f 311 312 379
f 313 311 379
f 375 313 379
f 374 309 377
f 308 310 376
f 374 377 378
f 376 310 378
f 375 379 380
f 375 381 377
f 381 382 377
f 378 377 382
f 382 383 378
f 314 384 385
f 384 314 315
f 314 385 316
f 315 386 384
f 386 315 317
f 387 385 384
f 317 388 386
f 384 386 389
f 390 316 385
f 386 388 391
f 390 241 316
f 388 317 318
f 320 318 240
f 392 241 390
f 318 320 388
f 393 388 320
f 394 393 320
f 241 392 190
f 323 320 319
f 394 395 393
f 320 323 394
f 392 396 190
f 323 397 394
f 397 323 324
f 396 247 190
f 396 398 247
f 397 399 400
f 399 397 324
f 398 329 247
f 399 324 326
f 328 399 326
f 401 399 328
f 398 402 329
f 331 328 327
f 401 328 403
f 403 328 331
f 403 404 401
f 330 333 331
f 331 405 403
f 334 329 402
f 331 333 405
f 402 406 334
f 407 403 405
f 335 333 332
f 333 408 405
f 409 333 335
f 408 333 409
f 410 405 408
f 409 411 408
f 412 409 335
f 412 335 336
f 408 413 410
f 411 409 412
f 414 408 411
f 338 334 406
f 406 415 338
f 408 414 413
f 336 416 412
f 416 336 337
f 412 417 411
f 337 418 416
f 337 258 418
f 416 417 412
f 339 418 258
f 411 417 414
f 416 419 417
f 415 420 338
f 419 416 418
f 418 421 419
f 421 418 339
f 339 422 421
f 417 419 423
f 419 421 423
f 422 339 340
f 424 421 422
f 422 340 341
f 424 422 341
f 341 342 425
f 426 342 343
f 420 344 338
f 427 426 343
f 428 343 345
f 345 429 428
f 347 429 345
f 347 430 429
f 430 347 350
f 431 430 350
f 431 350 355
f 355 432 431
f 433 284 434
f 353 284 433
f 361 362 351
f 361 356 435
f 433 365 353
f 360 435 356
f 362 366 358
f 355 363 370
f 432 355 436
f 437 362 361
f 366 362 437
f 365 435 360
f 368 364 366
f 436 355 370
f 361 438 437
f 439 432 436
f 361 435 440
f 438 361 440
f 366 441 368
f 441 371 368
f 365 440 435
f 442 441 366
f 436 370 443
f 438 444 437
f 445 437 444
f 443 446 436
f 441 447 371
f 370 373 443
f 372 371 447
f 447 448 372
f 438 440 449
f 449 444 438
f 448 450 372
f 312 372 450
f 443 373 451
f 312 450 452
f 373 376 453
f 379 312 452
f 380 381 375
f 383 376 378
f 453 451 373
f 379 452 454
f 454 380 379
f 383 453 376
f 382 455 383
f 456 453 383
f 380 455 381
f 382 381 455
f 454 457 380
f 455 380 457
f 455 458 383
f 384 389 387
f 385 387 390
f 391 389 386
f 459 387 389
f 391 459 389
f 459 460 387
f 393 391 388
f 387 460 390
f 460 459 461
f 462 391 393
f 460 461 463
f 392 390 460
f 393 395 462
f 460 396 392
f 397 395 394
f 464 395 465
f 395 397 400
f 465 395 400
f 396 466 398
f 467 465 400
f 467 400 399
f 465 467 468
f 469 402 398
f 399 470 467
f 470 399 401
f 467 470 471
f 470 401 404
f 406 402 469
f 469 415 406
f 404 472 470
f 403 407 404
f 470 472 473
f 472 404 407
f 410 407 405
f 407 410 472
f 410 474 472
f 474 410 413
f 475 413 414
f 413 475 474
f 475 414 417
f 474 475 476
f 417 477 475
f 478 475 477
f 479 475 478
f 423 477 417
f 477 480 478
f 480 477 423
f 421 424 423
f 425 424 341
f 420 481 344
f 480 479 478
f 482 479 480
f 423 483 480
f 483 423 424
f 424 425 483
f 484 425 342
f 342 485 484
f 485 342 426
f 426 427 485
f 427 343 428
f 428 486 427
f 482 480 483
f 428 487 486
f 487 428 429
f 483 488 482
f 488 483 425
f 425 484 488
f 429 489 487
f 489 429 430
f 430 431 489
f 489 431 490
f 491 284 481
f 344 481 284
f 431 492 490
f 434 284 491
f 492 431 432
f 493 492 432
f 432 494 493
f 494 432 439
f 439 495 494
f 437 445 442
f 366 437 442
f 496 365 433
f 439 436 446
f 365 496 440
f 445 497 442
f 441 442 497
f 446 498 439
f 495 439 498
f 447 441 497
f 448 447 499
f 449 440 500
f 497 499 447
f 499 501 448
f 446 443 451
f 500 440 496
f 448 501 450
f 445 444 502
f 444 449 500
f 501 503 450
f 504 498 451
f 446 451 498
f 500 502 444
f 497 445 505
f 497 506 499
f 501 499 507
f 452 450 503
f 506 507 499
f 502 500 508
f 503 501 507
f 502 505 445
f 503 509 452
f 451 453 510
f 504 451 510
f 454 452 509
f 456 383 458
f 510 511 504
f 453 456 512
f 453 512 510
f 508 505 502
f 507 506 513
f 507 514 503
f 503 514 509
f 458 512 456
f 514 515 509
f 454 509 515
f 457 454 516
f 455 457 458
f 505 508 517
f 497 505 518
f 513 519 507
f 515 516 454
f 510 512 520
f 506 497 518
f 521 519 513
f 516 522 457
f 522 523 457
f 458 457 523
f 514 507 519
f 523 524 458
f 512 458 524
f 524 520 512
f 525 506 518
f 513 506 525
f 516 515 526
f 517 527 505
f 518 505 527
f 525 528 513
f 515 514 526
f 518 529 525
f 529 528 525
f 459 462 461
f 459 391 462
f 530 461 462
f 461 530 463
f 462 464 530
f 531 463 530
f 463 531 460
f 530 532 531
f 462 395 464
f 460 531 396
f 531 466 396
f 531 533 466
f 464 465 534
f 465 468 534
f 469 398 466
f 468 471 535
f 467 471 468
f 536 469 466
f 537 535 471
f 470 538 471
f 537 471 538
f 470 473 538
f 415 469 536
f 538 539 537
f 539 538 473
f 540 537 539
f 536 541 415
f 539 542 540
f 473 543 539
f 543 473 472
f 542 539 543
f 543 472 474
f 474 476 543
f 544 543 476
f 420 415 541
f 543 544 545
f 541 546 420
f 475 479 476
f 476 547 544
f 476 479 547
f 481 420 546
f 479 548 547
f 546 549 481
f 548 479 482
f 550 485 427
f 486 550 427
f 550 486 487
f 482 551 548
f 552 484 485
f 485 550 552
f 549 491 481
f 551 482 488
f 484 552 488
f 553 550 487
f 487 554 553
f 554 487 489
f 554 489 490
f 488 552 551
f 490 555 554
f 490 492 555
f 434 491 556
f 555 492 557
f 492 493 557
f 557 493 494
f 494 558 557
f 433 434 559
f 558 494 495
f 433 559 560
f 560 496 433
f 495 561 558
f 498 561 495
f 496 562 500
f 563 561 498
f 500 562 508
f 498 504 564
f 564 563 498
f 564 504 511
f 565 508 562
f 566 564 511
f 511 510 520
f 513 567 521
f 517 508 565
f 567 513 528
f 521 567 568
f 568 569 521
f 526 519 521
f 511 520 570
f 570 566 511
f 528 568 567
f 514 519 526
f 526 571 516
f 522 516 571
f 571 523 522
f 570 572 566
f 526 521 569
f 524 573 520
f 573 570 520
f 565 527 517
f 569 574 526
f 571 526 574
f 571 575 523
f 523 573 524
f 565 576 527
f 574 577 571
f 573 523 575
f 575 571 577
f 578 518 527
f 528 529 579
f 573 575 580
f 570 573 581
f 578 582 518
f 529 518 582
f 582 579 529
f 575 577 583
f 574 584 577
f 578 579 582
f 568 528 585
f 528 579 585
f 583 577 586
f 578 587 579
f 569 568 585
f 585 579 587
f 588 585 587
f 585 589 569
f 569 589 574
f 577 584 586
f 589 585 588
f 584 574 590
f 589 590 574
f 589 588 591
f 584 592 586
f 592 593 586
f 591 594 589
f 594 590 589
f 595 594 591
f 594 596 590
f 596 584 590
f 593 592 584
f 532 530 464
f 597 532 464
f 533 531 532
f 598 533 532
f 598 532 597
f 599 533 598
f 534 597 464
f 599 598 600
f 597 601 602
f 597 534 601
f 533 599 466
f 534 603 601
f 599 600 604
f 605 599 604
f 599 605 466
f 603 534 468
f 535 603 468
f 536 466 605
f 606 603 535
f 535 537 606
f 537 540 606
f 605 607 536
f 541 536 607
f 608 540 542
f 608 609 540
f 542 610 608
f 608 610 611
f 543 545 542
f 542 545 610
f 607 612 541
f 545 613 610
f 541 612 546
f 545 544 614
f 615 610 613
f 613 545 614
f 614 616 613
f 614 544 617
f 544 547 617
f 613 616 615
f 616 614 617
f 618 616 617
f 549 546 612
f 547 548 617
f 619 617 548
f 549 612 620
f 618 617 619
f 491 549 620
f 550 621 622
f 553 621 550
f 556 491 620
f 623 619 548
f 548 551 623
f 550 622 552
f 551 624 623
f 551 625 624
f 551 552 625
f 552 626 625
f 626 552 622
f 555 557 627
f 557 628 627
f 556 629 434
f 630 628 557
f 629 559 434
f 630 557 558
f 558 631 630
f 561 631 558
f 496 560 632
f 496 632 562
f 563 633 561
f 631 561 633
f 634 633 563
f 565 562 635
f 563 564 636
f 636 634 563
f 566 636 564
f 637 634 636
f 635 576 565
f 636 566 572
f 572 637 636
f 637 572 638
f 527 576 578
f 580 575 639
f 581 572 570
f 637 638 640
f 639 575 583
f 580 581 573
f 640 638 641
f 581 638 572
f 580 642 581
f 643 583 586
f 639 583 643
f 642 638 581
f 644 578 576
f 642 580 645
f 578 644 587
f 642 641 638
f 580 639 643
f 645 580 643
f 587 644 646
f 588 587 646
f 647 645 643
f 643 586 593
f 642 645 641
f 591 588 646
f 593 647 643
f 646 595 591
f 648 649 645
f 650 593 584
f 594 595 651
f 596 594 651
f 584 596 650
f 647 593 652
f 651 653 596
f 650 596 653
f 650 653 654
f 593 650 654
f 654 652 593
f 652 655 647
f 598 602 600
f 602 598 597
f 602 601 600
f 600 601 656
f 604 600 656
f 657 656 601
f 604 656 658
f 601 659 657
f 601 603 659
f 659 603 660
f 658 661 604
f 604 661 605
f 603 662 660
f 603 606 662
f 607 605 661
f 663 607 661
f 540 662 606
f 609 662 540
f 609 608 611
f 664 609 611
f 607 663 612
f 665 664 611
f 663 666 612
f 615 611 610
f 611 667 665
f 667 611 615
f 668 615 616
f 620 612 666
f 615 668 667
f 668 616 618
f 668 618 669
f 669 618 619
f 669 619 670
f 623 671 670
f 553 554 672
f 670 619 623
f 673 621 553
f 674 554 555
f 555 627 674
f 621 673 622
f 553 672 673
f 554 674 672
f 623 624 671
f 675 625 626
f 626 622 676
f 625 677 624
f 625 678 677
f 678 625 675
f 675 626 676
f 622 673 676
f 629 679 559
f 630 680 628
f 630 681 680
f 631 681 630
f 679 682 559
f 560 559 682
f 681 631 683
f 632 560 682
f 633 684 631
f 683 631 684
f 632 685 562
f 634 684 633
f 635 562 685
f 684 634 686
f 635 687 576
f 634 637 640
f 640 686 634
f 687 688 576
f 640 689 686
f 689 690 686
f 641 689 640
f 690 691 686
f 692 689 641
f 644 576 688
f 691 690 693
f 690 689 693
f 694 693 689
f 688 695 644
f 689 692 694
f 646 644 695
f 694 696 693
f 695 697 646
f 641 645 649
f 692 641 649
f 698 694 692
f 698 696 694
f 649 698 692
f 646 697 595
f 699 595 697
f 647 648 645
f 698 649 700
f 700 701 698
f 699 651 595
f 648 647 655
f 648 700 649
f 699 702 651
f 701 700 703
f 702 704 651
f 705 700 648
f 704 653 651
f 655 652 706
f 705 703 700
f 654 653 707
f 654 706 652
f 648 655 706
f 705 648 706
f 704 707 653
f 654 707 708
f 708 709 654
f 706 654 709
f 656 657 658
f 657 659 658
f 710 658 659
f 659 711 710
f 659 660 711
f 710 711 712
f 658 712 661
f 712 658 710
f 660 713 711
f 660 714 713
f 660 662 714
f 715 661 712
f 661 715 663
f 715 716 663
f 662 717 714
f 717 662 609
f 717 609 664
f 718 717 664
f 665 718 664
f 663 716 666
f 718 665 719
f 667 719 665
f 716 720 666
f 720 620 666
f 719 667 721
f 721 667 668
f 556 720 629
f 556 620 720
f 722 668 669
f 723 672 674
f 628 724 627
f 725 673 672
f 674 724 723
f 724 674 627
f 624 726 671
f 675 727 678
f 727 675 676
f 672 723 725
f 728 670 671
f 624 677 726
f 673 729 676
f 728 671 726
f 727 730 678
f 727 731 730
f 731 727 676
f 676 729 732
f 673 725 729
f 677 730 726
f 730 677 678
f 731 676 732
f 733 730 731
f 731 732 733
f 680 681 734
f 683 734 681
f 735 632 682
f 734 683 736
f 684 736 683
f 735 685 632
f 737 736 684
f 738 737 684
f 685 687 635
f 738 684 686
f 686 739 738
f 740 688 687
f 691 739 686
f 740 741 688
f 695 688 741
f 693 696 691
f 695 742 697
f 696 698 743
f 743 744 696
f 742 745 697
f 745 699 697
f 701 743 698
f 745 702 699
f 746 701 703
f 702 745 747
f 702 747 704
f 748 746 705
f 703 705 746
f 704 749 707
f 708 707 749
f 709 748 706
f 705 706 748
f 711 750 712
f 750 711 713
f 713 751 750
f 713 714 751
f 752 712 750
f 752 753 712
f 712 753 715
f 754 751 714
f 715 753 716
f 714 717 754
f 755 754 717
f 756 716 753
f 717 718 755
f 757 755 758
f 720 716 756
f 759 755 718
f 759 718 719
f 760 759 719
f 760 719 721
f 761 760 721
f 721 762 761
f 668 722 762
f 762 721 668
f 629 720 763
f 764 762 722
f 669 764 722
f 764 669 670
f 728 764 670
f 724 765 723
f 679 629 763
f 763 766 679
f 728 767 764
f 768 725 723
f 628 769 724
f 628 680 769
f 767 728 726
f 723 765 768
f 725 770 729
f 725 768 770
f 730 771 726
f 772 732 729
f 726 771 767
f 773 730 733
f 773 733 732
f 772 773 732
f 729 770 772
f 730 773 771
f 682 679 766
f 774 680 734
f 682 766 775
f 735 682 775
f 736 776 734
f 735 775 777
f 685 735 777
f 737 776 736
f 776 737 778
f 685 777 687
f 779 687 777
f 687 779 780
f 780 740 687
f 737 738 739
f 739 781 737
f 782 740 780
f 741 740 782
f 741 782 783
f 739 691 784
f 741 783 695
f 785 695 783
f 695 785 742
f 786 742 785
f 691 696 744
f 784 691 787
f 787 691 744
f 788 742 786
f 742 788 745
f 787 744 743
f 788 789 745
f 746 743 701
f 745 789 747
f 747 790 704
f 749 704 790
f 790 791 749
f 749 792 708
f 709 708 792
f 792 793 709
f 748 709 793
f 752 794 753
f 794 752 750
f 794 750 795
f 795 750 751
f 795 751 754
f 754 755 757
f 757 795 754
f 756 753 794
f 795 796 794
f 796 795 757
f 757 797 796
f 798 756 794
f 797 757 758
f 759 758 755
f 798 794 796
f 796 799 800
f 801 797 758
f 801 758 759
f 796 800 798
f 797 801 802
f 720 756 798
f 801 759 760
f 760 803 801
f 763 798 800
f 763 720 798
f 760 804 803
f 760 761 804
f 800 805 806
f 761 762 804
f 806 763 800
f 762 807 804
f 766 763 806
f 808 807 762
f 808 762 764
f 724 809 765
f 769 809 724
f 805 810 806
f 808 764 811
f 812 765 809
f 806 813 766
f 813 806 810
f 812 768 765
f 811 764 767
f 680 774 769
f 767 814 811
f 770 768 812
f 775 766 813
f 770 815 772
f 815 770 816
f 816 770 812
f 767 817 814
f 771 817 767
f 771 818 817
f 771 773 818
f 773 819 818
f 773 772 819
f 819 772 815
f 734 820 774
f 821 822 813
f 775 813 822
f 820 734 776
f 777 775 822
f 777 822 823
f 779 777 823
f 737 824 778
f 780 779 823
f 780 823 825
f 824 737 781
f 825 826 780
f 826 782 780
f 826 783 782
f 739 827 781
f 784 827 739
f 826 785 783
f 828 785 826
f 828 786 785
f 828 829 786
f 830 786 829
f 788 786 830
f 831 827 784
f 831 784 787
f 832 831 787
f 788 830 789
f 743 832 787
f 832 743 833
f 789 790 747
f 791 834 792
f 835 833 746
f 743 746 833
f 792 749 791
f 748 836 746
f 836 835 746
f 793 792 837
f 748 793 836
f 796 802 799
f 802 796 797
f 838 802 801
f 801 839 838
f 840 802 838
f 841 799 802
f 802 840 841
f 801 803 842
f 799 805 800
f 805 799 841
f 801 842 839
f 842 803 843
f 804 843 803
f 810 805 841
f 804 807 843
f 841 844 810
f 844 841 840
f 845 843 807
f 845 807 808
f 846 809 769
f 847 809 846
f 847 812 809
f 840 848 844
f 808 811 845
f 811 849 845
f 850 812 847
f 846 769 774
f 844 821 810
f 846 774 851
f 813 810 821
f 821 844 848
f 811 852 849
f 852 811 814
f 812 853 816
f 853 812 850
f 854 815 816
f 851 774 820
f 814 855 852
f 817 855 814
f 856 817 818
f 815 857 819
f 858 818 819
f 819 859 858
f 819 857 859
f 857 815 854
f 817 856 855
f 818 858 856
f 822 821 860
f 860 861 822
f 820 776 862
f 823 822 861
f 778 862 776
f 863 823 861
f 825 823 863
f 864 825 863
f 865 864 866
f 867 865 866
f 825 864 826
f 824 781 868
f 865 826 864
f 865 869 828
f 865 828 826
f 868 781 870
f 828 871 829
f 827 870 781
f 829 871 872
f 872 830 829
f 830 872 873
f 827 874 870
f 827 831 874
f 830 873 875
f 789 830 875
f 875 790 789
f 790 875 876
f 876 834 791
f 877 832 833
f 876 791 790
f 833 835 878
f 878 877 833
f 834 837 792
f 835 836 879
f 879 878 835
f 837 879 793
f 836 793 879
f 880 840 838
f 880 838 839
f 839 881 880
f 881 839 842
f 881 882 880
f 842 882 881
f 842 883 882
f 883 842 843
f 880 848 840
f 882 884 885
f 884 882 883
f 843 886 883
f 886 843 845
f 880 882 848
f 884 883 887
f 887 883 886
f 886 888 887
f 889 882 885
f 890 886 845
f 845 849 890
f 891 847 846
f 851 891 846
f 882 889 848
f 885 892 889
f 891 850 847
f 888 886 890
f 893 887 888
f 849 852 890
f 860 821 848
f 860 848 889
f 890 894 888
f 850 895 853
f 889 896 860
f 890 852 894
f 853 854 816
f 820 897 851
f 888 894 898
f 899 854 853
f 861 860 896
f 855 900 852
f 901 859 857
f 854 899 902
f 853 903 899
f 900 894 852
f 855 904 900
f 904 855 856
f 905 857 854
f 900 906 894
f 901 858 859
f 905 901 857
f 854 902 905
f 907 904 856
f 856 858 907
f 897 820 862
f 858 908 907
f 908 858 901
f 909 901 905
f 907 910 904
f 901 909 908
f 911 912 896
f 896 863 861
f 863 896 912
f 862 778 913
f 866 863 912
f 913 778 914
f 915 912 916
f 824 914 778
f 863 866 864
f 912 867 866
f 912 915 867
f 867 915 917
f 917 869 867
f 867 869 865
f 869 917 918
f 871 869 918
f 871 918 919
f 828 869 871
f 872 871 919
f 870 920 868
f 872 919 921
f 921 922 923
f 873 872 921
f 921 923 873
f 924 925 923
f 923 875 873
f 875 923 925
f 925 926 927
f 876 875 925
f 876 925 927
f 927 926 928
f 929 874 832
f 831 832 874
f 927 834 876
f 834 927 837
f 837 927 930
f 878 930 931
f 931 877 878
f 877 932 929
f 832 877 929
f 930 879 837
f 879 930 878
f 885 933 892
f 933 885 884
f 884 887 933
f 933 887 893
f 911 892 933
f 891 895 850
f 896 889 892
f 933 934 911
f 935 891 851
f 934 933 893
f 888 898 893
f 851 897 935
f 903 853 895
f 935 895 891
f 896 892 911
f 936 893 898
f 898 894 906
f 937 934 893
f 893 936 938
f 898 906 936
f 903 939 899
f 935 897 940
f 893 938 937
f 941 903 895
f 939 902 899
f 939 903 941
f 897 862 942
f 943 936 906
f 900 944 906
f 944 900 904
f 944 904 945
f 945 904 910
f 911 934 912
f 946 902 939
f 934 916 912
f 916 934 937
f 947 907 908
f 946 905 902
f 910 948 945
f 907 947 910
f 909 905 949
f 942 862 913
f 916 937 938
f 948 910 947
f 950 947 908
f 905 946 949
f 938 951 952
f 948 953 945
f 949 908 909
f 916 938 952
f 908 949 950
f 915 916 952
f 915 952 917
f 917 952 954
f 917 954 918
f 918 954 955
f 955 919 918
f 914 824 868
f 919 955 922
f 955 956 922
f 919 922 921
f 924 922 957
f 922 924 923
f 958 959 957
f 958 960 959
f 924 957 959
f 959 960 961
f 926 959 961
f 962 963 961
f 870 964 920
f 959 926 924
f 925 924 926
f 928 961 963
f 870 874 964
f 961 928 926
f 963 931 928
f 931 963 965
f 966 964 967
f 967 964 874
f 965 932 931
f 967 929 965
f 930 927 928
f 965 929 932
f 928 931 930
f 874 929 967
f 932 877 931
f 935 940 941
f 940 897 942
f 941 895 935
f 968 940 942
f 936 943 938
f 940 968 941
f 951 938 943
f 906 969 943
f 906 944 969
f 941 970 939
f 970 941 968
f 971 946 939
f 971 939 970
f 970 972 971
f 973 968 942
f 951 943 969
f 944 974 969
f 968 973 975
f 973 942 913
f 951 976 952
f 945 953 944
f 977 946 971
f 976 951 969
f 974 944 953
f 977 949 946
f 969 978 976
f 969 974 978
f 948 947 950
f 913 914 973
f 954 952 976
f 948 979 953
f 979 948 950
f 949 980 950
f 949 977 980
f 973 914 981
f 982 974 953
f 980 977 983
f 954 976 978
f 974 982 978
f 984 979 950
f 984 950 980
f 980 985 984
f 914 986 981
f 955 954 978
f 953 958 982
f 984 987 979
f 987 984 985
f 979 958 953
f 978 956 955
f 986 914 868
f 956 978 982
f 988 987 985
f 989 990 991
f 956 982 958
f 960 958 979
f 868 920 986
f 957 922 956
f 960 979 987
f 986 920 992
f 987 962 960
f 987 988 962
f 993 994 995
f 957 956 958
f 988 996 962
f 996 988 991
f 997 994 993
f 997 992 998
f 996 991 995
f 994 997 998
f 992 920 998
f 960 962 961
f 995 966 996
f 966 995 994
f 963 962 996
f 998 964 994
f 998 920 964
f 965 963 996
f 994 964 966
f 965 996 966
f 966 967 965
f 970 975 972
f 975 970 968
f 971 999 977
f 971 972 999
f 973 981 975
f 977 999 1000
f 999 972 1001
f 1002 972 975
f 977 1000 983
f 999 990 1000
f 986 975 981
f 985 980 983
f 1001 972 1002
f 975 986 1002
f 1000 989 983
f 1000 990 989
f 990 999 993
f 985 983 989
f 999 1001 993
f 985 989 988
f 991 988 989
f 995 991 990
f 995 990 993
f 992 1002 986
f 1002 992 1001
f 997 993 1001
f 1001 992 997
