v -329.671967 -16.954212 -96.574234

v -334.455627 -22.699511 -97.766907

v -334.737854 -17.828003 -96.829834

v -339.790039 -23.211609 -97.623627

v -329.031677 -20.838783 -95.288948

v -341.609253 -30.436428 -98.092728

v -337.973602 -32.014282 -95.291992

v -349.319275 -30.411095 -97.878448

v -350.876556 -45.109245 -98.116211

v -359.303223 -42.909668 -97.923645

v -370.827332 -55.739685 -98.077850

v -341.661621 -44.978271 -92.616699

v -366.028687 -58.770584 -98.159500

v -376.453247 -69.062378 -98.316101

v -381.143311 -69.117950 -97.168579

v -379.770203 -74.628723 -95.388931

v -329.203522 -13.323349 -94.309776

v -319.814026 -9.598030 -92.607834

v -318.908081 -13.806686 -94.350365

v -356.203125 -26.898315 -87.124023

v -366.775391 -42.056641 -90.703125

v -319.667603 -19.351593 -93.870895

v -379.182373 -48.883423 -86.887238

v -334.183655 -35.647369 -93.617676

v -384.608398 -67.843140 -93.636963

v -359.189941 -62.879761 -91.380371

v -383.260803 -73.018219 -94.740311

v -391.977783 -81.159668 -93.937561

v -367.772797 -69.883423 -94.312012

v -373.713562 -83.670799 -93.220428

v -384.701721 -96.084633 -93.988892

v -395.153259 -98.340317 -93.578735

v -362.340576 -76.202728 -88.378662

v -393.070435 -101.362183 -93.862244

v -386.172699 -106.388763 -89.808884

v -384.126190 -32.533081 -90.122925

v -381.394501 -26.160156 -87.407532

v -378.766968 -30.236208 -87.418594

v -386.585724 -38.447998 -90.783501

v -395.324036 -49.198730 -90.508545

v -399.676758 -39.976807 -86.051270

v -381.408722 -42.491486 -86.890228

v -401.005493 -50.031784 -87.090759

v -337.424591 -10.015137 -83.640991

v -396.980560 -58.152222 -87.785767

v -344.032593 -17.249695 -84.287231

v -363.537109 -33.158081 -86.978058

v -393.092590 -56.557331 -87.266022

v -314.809113 -8.226486 -88.279449

v -308.747314 -11.553528 -85.479248

v -387.321960 -60.960083 -87.187805

v -315.533569 -24.862335 -87.638916

v -396.480042 -74.015472 -86.934998

v -323.794434 -35.908936 -85.079590

v -398.809753 -83.119507 -86.783264

v -400.197815 -87.560913 -84.521729

v -375.849121 -95.684570 -87.156250

v -396.342529 -104.652832 -90.470947

v -393.339783 -112.155396 -90.062317

v -400.948975 -113.206299 -85.860352

v -392.637695 -28.897095 -84.095215

v -375.855286 -17.907501 -83.209145

v -375.024750 -23.085983 -86.238113

v -368.492035 -27.415985 -86.110947

v -407.114502 -48.935730 -85.616455

v -366.143738 -22.353210 -82.742340

v -404.595581 -59.370636 -86.177032

v -410.612305 -51.062012 -82.433350

v -335.306427 -7.300201 -80.299713

v -355.355499 -22.656982 -83.463470

v -416.340881 -67.956787 -85.914856

v -416.924255 -59.853271 -81.406494

v -392.270386 -61.264221 -86.476181

v -307.642578 -20.783310 -84.405884

v -419.897766 -83.001831 -86.022583

v -406.057617 -85.199982 -86.274918

v -311.391846 -26.703646 -84.862061

v -416.517883 -92.665894 -86.280243

v -430.078125 -92.849609 -76.152344

v -418.498901 -95.895020 -84.142944

v -334.198242 -50.099609 -79.896484

v -413.538513 -96.045578 -83.335411

v -352.317871 -64.132813 -84.890625

v -341.927734 -61.980957 -77.031250

v -401.841309 -98.517212 -83.312134

v -366.019531 -89.096436 -79.184570

v -367.919922 -95.566895 -77.845703

v -376.705078 -110.805420 -76.103516

v -388.789551 -116.782341 -86.464386

v -397.885986 -117.969666 -86.505890

v -403.268677 -126.436829 -85.717957

v -391.874756 -126.896347 -85.875954

v -399.807617 -133.028198 -85.353333

v -390.125977 -134.439056 -82.023499

v -375.705231 -8.058044 -78.411987

v -365.416046 -2.796875 -81.368591

v -367.309448 -7.054688 -82.378448

v -353.607910 2.205933 -82.167282

v -380.699219 -15.257568 -80.726807

v -340.631317 1.315948 -81.068054

v -340.175385 -5.552952 -82.255936

v -344.563141 -13.857300 -82.707153

v -405.673340 -39.510498 -79.582031

v -322.171326 -1.204460 -75.405930

v -305.361694 -5.725510 -79.807281

v -300.495605 -12.685989 -80.663208

v -429.103516 -79.555153 -75.570313

v -300.775391 -24.562500 -73.490234

v -424.911865 -99.192993 -78.895020

v -312.332031 -36.183838 -73.147461

v -403.065186 -89.950806 -82.870483

v -405.611542 -96.890747 -81.635376

v -414.488281 -104.512939 -78.907288

v -350.776855 -72.468262 -76.931641

v -405.400513 -102.615479 -79.178589

v -406.940186 -109.052002 -77.093262

v -409.998962 -119.136658 -74.966583

v -368.638672 -104.748474 -71.132813

v -382.565430 -128.818726 -75.240234

v -410.682617 -130.994019 -75.562500

v -403.162903 -136.772705 -82.144653

v -403.452759 -148.825378 -81.837494

v -389.359283 -150.704529 -81.786591

v -402.507080 -159.966370 -82.061829

v -393.918365 -164.646301 -81.611198

v -400.847656 -170.481201 -77.056396

v -358.702362 7.580566 -71.183350

v -350.397583 8.375061 -76.008331

v -368.596191 -1.173080 -75.497803

v -393.129150 -21.593079 -71.146973

v -335.020386 6.520794 -75.174965

v -331.796783 -3.288643 -76.023361

v -412.841553 -44.045410 -70.454102

v -421.168213 -59.237061 -75.058594

v -298.145996 -6.905396 -74.219238

v -319.651367 -49.015625 -68.637695

v -423.733734 -111.972168 -77.513916

v -428.275635 -112.201263 -75.142822

v -410.681519 -105.182495 -77.738403

v -422.446289 -115.760834 -74.720940

v -355.710693 -85.503418 -68.710449

v -413.400635 -156.286926 -70.578217

v -411.741211 -163.760254 -70.104492

v -381.853516 -151.822754 -72.546875

v -387.833008 -167.366516 -75.142151

v -398.076294 -174.264221 -74.732025

v -375.218262 -3.683197 -63.260559

v -346.277344 12.158081 -73.749512

v -337.018585 15.025116 -73.592865

v -328.105133 12.170830 -73.967819

v -406.370300 -31.241425 -61.964600

v -325.106720 2.743195 -74.028824

v -317.208893 1.104309 -67.856567

v -436.083984 -86.700195 -63.949219

v -294.834961 -13.649902 -73.921875

v -435.008057 -100.876343 -72.671753

v -435.782349 -111.856323 -73.368896

v -331.757263 -63.409180 -66.567383

v -425.836548 -132.814575 -74.221344

v -438.490723 -120.539063 -69.217773

v -339.750000 -70.177734 -67.995117

v -410.427490 -110.820801 -74.634583

v -414.791687 -130.397888 -74.122925

v -428.723938 -136.894135 -70.866516

v -424.257874 -138.562195 -71.131165

v -414.211243 -136.359009 -70.811768

v -367.534180 -111.157715 -66.909668

v -374.180908 -126.223633 -70.229492

v -403.786621 -171.791748 -73.869141

v -384.943604 -170.271729 -73.807404

v -397.980774 -186.739990 -73.128540

v -383.531250 -189.563843 -73.838257

v -379.539307 -188.428528 -70.957214

v -378.242676 -170.871582 -69.186035

v -388.520416 -195.257568 -74.143585

v -394.655273 -195.079590 -72.205566

v -389.459290 -200.209351 -70.651917

v -381.216278 -196.891571 -70.621017

v -348.697968 15.139618 -66.948730

v -339.415253 18.330658 -67.161621

v -329.803375 17.796474 -67.668350

v -321.617615 15.815243 -66.635345

v -304.068024 1.585892 -66.993103

v -288.490723 -16.982056 -66.105957

v -310.855957 -42.609375 -64.275391

v -438.671875 -135.008438 -69.472412

v -434.951294 -148.644958 -69.881287

v -352.458008 -96.184570 -59.716797

v -426.229706 -159.238281 -70.063049

v -433.214478 -160.697266 -66.065674

v -425.368713 -163.982483 -66.885254

v -375.547729 -139.493286 -68.713623

v -416.080017 -160.385803 -67.595459

v -376.022339 -153.617447 -68.600342

v -409.407593 -176.705811 -66.085815

v -410.493164 -181.601563 -62.936890

v -373.637817 -193.081299 -69.625336

v -391.548950 -203.337402 -68.374023

v -382.382813 -214.564514 -69.701660

v -362.726074 -215.381577 -69.583344

v -369.224976 -232.340332 -69.595520

v -352.727783 -228.257523 -69.420898

v -347.744202 -239.760544 -69.742783

v -358.109070 -242.622559 -68.975342

v -349.813690 -246.381348 -66.897217

v -342.637817 -241.516434 -66.130333

v -356.781525 11.073914 -60.637848

v -321.499878 18.425632 -64.834709

v -423.573975 -55.202026 -59.147461

v -299.504395 -0.383972 -64.327637

v -291.913086 -3.790624 -53.567383

v -285.165283 -14.934692 -58.789063

v -441.801758 -112.898865 -60.629883

v -293.136597 -36.379395 -50.938965

v -441.956543 -134.387756 -62.725586

v -438.823486 -155.766113 -61.407227

v -432.784943 -166.964111 -65.466309

v -430.554260 -174.620789 -62.177673

v -374.006348 -167.477783 -65.421875

v -369.971191 -154.650299 -56.217285

v -405.184753 -194.470947 -62.141479

v -389.319092 -221.264221 -58.572021

v -363.365234 -198.248047 -61.812500

v -381.792572 -233.552002 -58.848633

v -354.554199 -213.276505 -59.421387

v -370.340210 -246.443970 -58.384277

v -347.937988 -222.748535 -60.302490

v -340.145264 -238.919769 -64.580811

v -351.290894 -252.150757 -65.447937

v -324.019714 -252.827423 -65.064880

v -330.809570 -262.856628 -65.427979

v -317.337097 -261.493317 -65.558052

v -319.143555 -268.342041 -62.063477

v -314.054443 -262.391754 -62.940308

v -337.550842 19.779877 -58.274170

v -320.983948 21.286446 -59.955597

v -390.060913 -17.160278 -55.773560

v -312.577026 19.315826 -60.094604

v -411.496704 -37.571045 -48.148193

v -303.030640 12.518555 -60.027344

v -282.059937 -21.289429 -55.640625

v -283.002441 -27.100098 -54.230469

v -313.643066 -52.154297 -56.361328

v -334.823578 -77.576172 -58.340820

v -342.866211 -90.604492 -56.278809

v -362.782104 -117.541870 -56.071289

v -365.319580 -129.069824 -56.269531

v -431.318878 -183.763733 -61.673523

v -425.736694 -193.996704 -61.782776

v -405.915771 -199.432434 -58.449066

v -425.559418 -199.195557 -58.146973

v -399.197876 -203.957809 -58.801514

v -341.321045 -226.745361 -55.877441

v -357.951324 -256.752197 -58.615234

v -354.968445 -261.831360 -54.356903

v -335.984375 -266.876953 -57.855469

v -309.421265 -256.419189 -55.543701

v -320.919281 -246.092407 -54.957642

v -306.931152 -261.289917 -57.873352

v -310.619141 -269.963013 -61.432648

v -348.261658 16.279808 -52.420166

v -363.122070 4.350859 -50.436523

v -303.733551 17.756622 -55.895020

v -280.597534 -19.632172 -51.592041

v -301.443359 -42.578125 -51.916016

v -324.256836 -71.645996 -48.812500

v -437.082275 -174.176758 -54.390137

v -363.761230 -138.427246 -52.631836

v -430.134613 -195.030762 -56.977051

v -364.580078 -165.876892 -51.955078

v -416.640808 -216.682587 -57.986374

v -421.213013 -213.806152 -56.378418

v -357.158203 -187.070313 -50.261719

v -354.162109 -197.355469 -53.078125

v -399.406067 -232.713806 -57.796722

v -351.061279 -209.512207 -56.490479

v -385.359650 -251.702271 -57.767944

v -360.386993 -259.444641 -57.594856

v -370.558655 -264.844971 -57.512146

v -363.802490 -267.312378 -57.545166

v -357.568237 -268.509796 -54.353279

v -360.227875 -271.135010 -53.840637

v -331.080414 -272.909546 -54.442993

v -311.120605 -275.404297 -57.312012

v -325.100342 -277.059570 -50.778076

v -306.494049 -271.594269 -58.282986

v -297.876953 -258.848633 -53.108887

v -290.401855 -271.677185 -57.561325

v -293.102661 -277.676453 -56.988892

v -286.443359 -268.128906 -53.902344

v -285.633911 -275.141846 -54.791649

v -333.321777 19.335144 -43.335938

v -320.409424 22.750473 -43.742065

v -378.856445 -9.117371 -49.904053

v -314.828369 22.725002 -51.399200

v -399.128662 -26.383545 -46.815186

v -304.993256 20.793013 -45.197868

v -423.452576 -53.976074 -44.866943

v -437.885803 -85.599609 -50.000244

v -290.480713 4.656616 -41.820313

v -442.119263 -99.577148 -40.063721

v -286.919861 -38.964844 -45.794312

v -444.589355 -126.005371 -44.012695

v -344.702148 -98.106934 -52.172852

v -442.227173 -162.590820 -45.543457

v -356.022705 -117.890686 -52.231201

v -435.596924 -187.208130 -51.416016

v -429.297363 -203.672852 -50.396484

v -412.996704 -227.562988 -53.153809

v -401.826172 -243.400696 -52.475098

v -397.188477 -252.011108 -49.771484

v -338.955200 -221.530273 -52.073730

v -383.145020 -264.104004 -51.980469

v -324.410645 -236.181396 -52.730347

v -372.987305 -270.508301 -51.112305

v -363.656677 -272.638184 -51.369385

v -307.797852 -247.447998 -51.820557

v -343.679199 -276.215210 -53.596863

v -351.905579 -279.005005 -50.542908

v -335.794403 -281.159424 -50.403687

v -318.068420 -280.659058 -49.685181

v -287.597412 -257.768799 -49.054688

v -311.187256 -283.436279 -46.592896

v -305.382080 -285.397949 -45.136230

v -277.216797 -264.658752 -49.475555

v -278.200653 -274.502136 -53.389786

v -283.510254 -279.626587 -51.846191

v -273.150635 -275.419556 -50.403900

v -384.197296 -17.651611 -43.377686

v -278.845459 -30.616699 -46.653320

v -297.934021 -50.443848 -41.446289

v -308.384277 -60.193848 -41.622070

v -334.137207 -93.682617 -45.112305

v -424.082153 -221.235352 -43.840332

v -415.533691 -231.416016 -46.312500

v -351.880859 -184.865234 -43.489258

v -402.074219 -249.736328 -46.529297

v -345.433594 -203.052612 -45.054688

v -335.764160 -216.410156 -45.096680

v -390.001404 -262.954651 -45.534424

v -381.359863 -269.196289 -47.132813

v -368.715607 -277.307861 -48.250366

v -310.689453 -235.723877 -43.723633

v -358.045746 -284.108398 -47.673462

v -348.734558 -285.860474 -49.054138

v -337.385010 -287.505981 -48.921631

v -331.394287 -290.673340 -45.491699

v -293.339844 -286.097656 -42.433594

v -260.617371 -270.465424 -49.260315

v -272.927124 -279.701080 -48.356628

v -261.788696 -276.719849 -48.265076

v -257.862122 -273.338837 -47.163391

v -346.710449 11.681152 -39.757324

v -365.470703 -1.036865 -44.494141

v -407.787842 -38.246582 -38.876465

v -299.467896 16.330017 -40.199890

v -431.492432 -73.120117 -39.336914

v -278.959106 -35.193481 -44.365479

v -443.883392 -151.615479 -25.703369

v -322.292969 -79.420410 -41.789063

v -339.091064 -107.754883 -42.527832

v -345.769043 -115.806671 -43.139832

v -354.898438 -137.153931 -43.103455

v -358.002930 -155.684326 -43.022461

v -433.950256 -198.633301 -40.653809

v -353.825684 -167.733154 -42.327637

v -321.824707 -222.639648 -42.289551

v -370.252686 -278.614349 -43.312988

v -294.068787 -245.462097 -42.591919

v -344.662323 -290.810852 -41.769775

v -273.760437 -258.800720 -42.498718

v -320.800781 -292.984619 -44.728027

v -311.918579 -296.356201 -39.554749

v -277.386841 -286.937378 -35.226563

v -251.186646 -268.550964 -43.509033

v -252.037445 -272.520813 -43.291763

v -258.892822 -277.903137 -43.871094

v -364.296631 -7.398438 -37.805664

v -356.038086 -0.900635 -33.641602

v -390.490234 -26.301758 -38.279297

v -422.278137 -57.357666 -35.266602

v -289.585571 5.868774 -34.593262

v -279.343872 -15.514282 -26.010742

v -276.809082 -28.551270 -40.382324

v -276.490173 -36.694336 -39.452393

v -287.666626 -43.313843 -40.580200

v -311.842712 -72.611694 -35.398315

v -325.294922 -93.080444 -38.266113

v -332.404907 -100.562500 -39.509644

v -332.412964 -113.476196 -36.576538

v -341.462036 -122.820557 -41.161865

v -347.947144 -134.715088 -41.656067

v -342.423584 -131.975571 -38.832031

v -348.619232 -147.146729 -38.693771

v -353.361511 -157.765915 -38.834473

v -341.177246 -189.997070 -37.938232

v -413.912048 -239.005005 -36.029297

v -339.003296 -201.967285 -38.781799

v -317.877808 -217.948517 -38.086487

v -305.737549 -228.717468 -40.059204

v -383.657013 -270.816254 -27.937500

v -298.314697 -236.232452 -41.286499

v -286.180786 -239.258789 -38.353668

v -279.093628 -247.507324 -41.240143

v -332.670166 -295.980347 -33.658203

v -252.537094 -261.334717 -41.307495

v -319.724731 -297.806519 -38.021240

v -261.525940 -251.410019 -38.143784

v -248.444031 -259.099854 -38.183838

v -301.604248 -293.262695 -40.058350

v -242.493774 -266.238556 -37.774979

v -245.137054 -269.020905 -39.746490

v -252.811890 -277.218842 -36.157471

v -328.484131 17.447266 -33.928711

v -377.064575 -20.472778 -36.827637

v -308.466309 16.109047 -27.657974

v -283.026367 -4.201416 -27.403320

v -441.417847 -107.209473 -28.123047

v -278.627747 -45.774536 -35.168472

v -300.268768 -61.730286 -34.824280

v -320.431519 -91.385376 -34.875854

v -323.313965 -109.312378 -32.703613

v -333.303467 -130.228806 -35.062439

v -337.000183 -134.202942 -37.745789

v -341.147034 -150.515320 -37.861099

v -335.862549 -147.021027 -34.891296

v -347.467896 -167.672089 -37.818481

v -342.559631 -164.208969 -34.729248

v -340.747009 -177.543884 -34.489838

v -401.882233 -253.174805 -32.449951

v -330.919556 -196.152802 -34.479431

v -313.250854 -218.015625 -37.404846

v -297.582703 -221.502167 -34.217224

v -298.503357 -226.196472 -37.373840

v -279.365601 -234.039673 -37.516586

v -357.149902 -287.266846 -27.109863

v -259.023651 -244.294968 -37.514221

v -258.885742 -239.181824 -34.136017

v -249.633453 -243.940125 -34.073303

v -238.078430 -257.433838 -37.302643

v -301.378906 -299.342896 -32.692871

v -235.203064 -261.512115 -36.419998

v -241.263046 -271.101868 -33.443970

v -339.921875 7.421875 -28.712891

v -346.409180 1.225586 -28.267578

v -362.199219 -15.719727 -27.820313

v -376.095215 -26.144897 -28.423096

v -396.360840 -37.727051 -29.492920

v -407.565430 -46.357178 -28.650635

v -299.175781 13.310181 -26.387207

v -423.016479 -66.540039 -29.379883

v -442.587646 -133.912109 -20.958496

v -272.244934 -39.381958 -25.814453

v -274.493408 -41.641541 -33.939087

v -272.067505 -47.693878 -32.260376

v -274.800171 -49.126984 -34.061249

v -273.281982 -52.156311 -31.871490

v -292.423035 -64.695900 -30.817291

v -306.146545 -76.027466 -31.497681

v -434.628662 -195.159180 -22.159424

v -440.342529 -167.587891 -21.017090

v -328.056519 -127.904602 -33.492432

v -329.962769 -141.956970 -32.820190

v -334.225403 -158.727783 -33.476624

v -327.534058 -154.462753 -29.823975

v -337.263489 -171.209000 -33.667816

v -327.527710 -191.082275 -33.634033

v -333.374817 -170.268066 -30.666809

v -317.662415 -201.660797 -33.629578

v -309.856476 -215.376099 -34.422821

v -297.439148 -211.864319 -33.610519

v -296.451599 -202.930176 -26.928467

v -291.255676 -208.174072 -29.484741

v -271.841644 -221.163803 -33.608795

v -276.745026 -230.020508 -34.184143

v -248.749100 -229.929565 -33.338348

v -244.290527 -227.105225 -30.114990

v -235.564362 -235.125610 -33.407013

v -233.035522 -256.092407 -34.110153

v -224.183350 -248.507980 -32.919281

v -306.402832 -300.788391 -26.196045

v -226.603897 -255.887360 -31.414783

v -283.409058 -295.968994 -28.661133

v -233.202118 -262.330139 -32.715912

v -326.316040 12.413208 -24.703857

v -382.398193 -29.078491 -28.270630

v -291.644043 6.814697 -23.068604

v -425.636414 -79.975586 -22.154785

v -432.788452 -92.800659 -21.950928

v -270.801331 -50.951172 -28.546631

v -273.269836 -59.372131 -29.216614

v -289.114105 -69.672890 -29.905037

v -271.884064 -62.092285 -26.571899

v -305.829895 -86.086365 -28.598328

v -292.995789 -79.932617 -26.096619

v -314.591553 -101.286865 -27.394653

v -312.327271 -114.553467 -23.269775

v -319.952637 -121.580811 -28.994141

v -323.542969 -140.198120 -29.223389

v -320.184082 -150.664612 -25.546387

v -425.564209 -218.625000 -19.048340

v -325.819519 -168.070572 -29.667114

v -322.472656 -161.068176 -26.820313

v -319.651611 -180.004929 -26.756165

v -308.876465 -197.564392 -26.556091

v -413.414307 -239.155334 -19.145996

v -283.944885 -205.078125 -25.839844

v -272.905884 -210.950439 -28.560181

v -269.132690 -218.187500 -30.792969

v -261.925781 -215.671265 -28.567993

v -230.183838 -229.365234 -26.830811

v -218.794861 -242.597046 -26.975708

v -218.816452 -248.168121 -25.237427

v -227.561584 -260.294464 -24.604969

v -284.912231 -298.272980 -24.182129

v -236.818863 -269.614563 -22.118622

v -340.195313 -3.097656 -18.007813

v -351.902344 -10.840332 -22.400391

v -367.806641 -25.173828 -24.435547

v -382.236816 -35.620117 -24.474609

v -390.147949 -46.571289 -20.495850

v -404.218262 -54.806152 -22.465332

v -280.884949 -78.303894 -22.751945

v -270.706818 -67.673157 -24.459229

v -303.085999 -96.810364 -23.506866

v -290.751709 -84.407257 -22.866730

v -307.726929 -105.556030 -23.489868

v -314.780273 -127.178406 -22.757080

v -318.605469 -139.797241 -23.322876

v -316.776855 -165.294434 -25.549561

v -311.795166 -182.352753 -25.625183

v -299.042725 -195.329346 -24.839844

v -398.485352 -253.954102 -14.385742

v -265.485840 -206.328568 -18.657471

v -244.277100 -220.611328 -24.806641

v -234.548645 -222.409714 -23.764130

v -226.164429 -226.932617 -24.238525

v -337.099609 -294.255737 -15.789063

v -218.302307 -231.383545 -24.163513

v -216.758301 -237.134628 -23.767578

v -322.798340 -298.966461 -18.788574

v -293.836304 -301.044647 -14.994019

v -273.596100 -294.441528 -19.996338

v -256.780029 -285.084229 -15.071289

v -318.041382 7.209717 -18.439697

v -298.650940 8.954590 -19.024414

v -370.761719 -33.728516 -17.207031

v -414.427246 -73.142242 -16.151855

v -282.670410 -4.445557 -18.233887

v -435.569580 -109.595703 -18.126953

v -275.808075 -25.670322 -10.013916

v -268.916504 -59.276123 -16.520264

v -268.077332 -70.140656 -19.509033

v -269.180908 -72.308990 -21.443298

v -269.857758 -79.593445 -22.003799

v -276.839050 -81.722366 -21.661381

v -298.625610 -99.476074 -21.655304

v -267.170288 -77.843681 -20.071228

v -268.741516 -85.268791 -18.694763

v -275.609375 -86.260330 -18.484844

v -296.060211 -104.076286 -18.521271

v -308.337952 -118.725052 -21.592133

v -306.078674 -122.648438 -18.678055

v -309.838654 -136.373566 -18.446793

v -310.227417 -155.228455 -19.065674

v -301.100342 -177.441345 -18.684387

v -292.522461 -191.174500 -18.603088

v -368.290039 -276.849670 -8.894531

v -238.883667 -218.208374 -18.918701

v -234.695374 -221.131058 -19.912659

v -230.634018 -222.245728 -18.987305

v -225.711731 -224.670105 -19.878906

v -220.233063 -225.190857 -18.435608

v -215.834320 -228.798462 -16.952881

v -215.367157 -237.760864 -17.130432

v -297.193054 -300.658630 -9.281250

v -249.080505 -281.362427 -2.540192

v -334.169434 -2.468750 -14.385742

v -348.076660 -15.556641 -12.941406

v -307.722931 6.459534 -14.727966

v -351.001770 -23.971680 -8.169434

v -392.750977 -54.991211 -14.789063

v -401.878174 -61.195801 -15.667236

v -290.585449 1.846680 -15.806152

v -418.464355 -84.870605 -14.352539

v -277.240662 -18.363770 -9.765381

v -436.119812 -126.376221 -12.082642

v -438.098145 -140.329590 -11.802612

v -438.103516 -152.105225 -11.057129

v -265.973297 -84.803955 -16.301270

v -265.810211 -98.070007 -18.065460

v -277.218109 -105.917618 -17.926611

v -263.131683 -97.093384 -16.216187

v -290.825958 -115.407852 -17.960423

v -263.202515 -101.915680 -15.799805

v -289.751831 -120.418579 -14.909119

v -298.995758 -127.410324 -17.884552

v -264.046234 -106.243927 -14.437378

v -302.740326 -142.413025 -17.848358

v -297.519196 -139.398315 -14.433548

v -303.024292 -156.499573 -17.750305

v -298.021606 -156.445496 -14.440491

v -289.038269 -179.330078 -14.626984

v -296.130371 -175.512939 -17.646088

v -286.892456 -187.206360 -17.572876

v -384.930908 -267.153809 -15.980469

v -260.740906 -201.185669 -14.367126

v -241.810944 -209.054871 -14.241394

v -223.476440 -217.118408 -17.137451

v -220.094772 -217.489838 -15.600922

v -218.269867 -246.887390 -12.976318

v -273.460541 -295.614532 -10.951569

v -321.857788 -2.258423 -8.584595

v -357.062866 -33.006348 -4.326660

v -374.940430 -48.409882 -4.764648

v -300.272919 -0.583496 -8.265442

v -406.091919 -73.233398 -13.330811

v -283.175171 -9.186523 -7.942627

v -418.918945 -95.057617 -10.395508

v -428.775146 -110.959229 -11.625244

v -274.507202 -32.866211 -2.156738

v -264.350464 -82.340149 -8.487061

v -432.381836 -160.589844 -4.518799

v -428.181152 -184.473633 -4.318359

v -261.182373 -104.003845 -12.077148

v -275.515411 -110.880455 -14.346259

v -422.617188 -205.617188 -3.707031

v -258.735962 -112.500893 -13.082855

v -257.249969 -125.448853 -13.990501

v -277.909882 -133.346390 -13.878183

v -291.747131 -152.216736 -13.756424

v -254.716583 -121.026093 -12.049194

v -254.784271 -127.494026 -11.728149

v -275.812408 -138.136154 -10.431438

v -414.908203 -227.654053 -6.554688

v -281.700989 -179.701263 -13.586609

v -278.613922 -175.498032 -10.217422

v -258.789337 -190.278870 -10.238022

v -260.935150 -194.651093 -13.515442

v -230.149582 -202.698334 -13.595886

v -231.708130 -196.964874 -9.990936

v -226.890564 -203.110901 -12.259216

v -222.438477 -212.762146 -13.698761

v -217.666183 -221.181351 -9.364895

v -215.247452 -231.640823 -8.533508

v -319.592407 -294.347534 -1.391113

v -222.550415 -250.020874 -6.631592

v -329.686279 -10.187500 -6.019043

v -338.489746 -20.813477 -1.698242

v -311.971222 -3.988525 -6.306824

v -363.585449 -38.781250 -4.532959

v -381.958008 -57.126892 -4.449219

v -394.018555 -69.729370 -4.125488

v -296.434082 -5.083374 -5.625122

v -427.244995 -119.341797 -9.145264

v -433.504883 -139.910339 -9.468750

v -271.431519 -47.825195 2.166016

v -258.923065 -104.411072 -5.708740

v -252.548767 -126.925049 -8.280762

v -286.951050 -153.744141 -10.526794

v -253.995361 -132.810852 -9.905823

v -249.799881 -147.066772 -9.963295

v -249.751709 -137.083099 -7.928467

v -247.947388 -143.197632 -7.794617

v -245.342957 -151.462128 -8.075378

v -242.579254 -166.663879 -9.875610

v -399.753906 -244.408936 -1.900391

v -240.351257 -164.219955 -7.731140

v -384.277588 -259.651855 -0.211426

v -237.429077 -172.432297 -7.528748

v -238.776367 -178.028000 -9.834877

v -234.690552 -178.408936 -7.048233

v -232.336838 -185.918076 -7.740372

v -229.985840 -192.110565 -7.789703

v -226.139679 -201.286133 -7.527405

v -220.781967 -212.147110 -7.820496

v -335.074707 -290.372070 -3.626953

v -217.459229 -226.076202 -4.588013

v -218.805298 -237.153473 -4.636719

v -287.927734 -298.631348 -6.389893

v -241.968292 -275.014435 0.401901

v -266.500244 -291.341309 -1.898438

v -402.278320 -85.243896 -3.310547

v -413.890137 -105.145020 -1.651367

v -280.287231 -24.381592 0.230225

v -277.135376 -25.660400 -3.659424

v -416.473633 -114.489258 -1.426270

v -425.595703 -132.943115 -3.372070

v -427.496094 -148.532227 -2.038574

v -249.590607 -133.658310 -1.800171

v -244.127747 -151.662354 -3.684326

v -223.810669 -207.923096 -1.721191

v -353.974854 -279.794434 0.183105

v -218.717102 -221.396729 -3.521851

v -234.667816 -265.359375 11.405563

v -326.706787 -15.364990 0.245789

v -350.347168 -35.249023 1.092773

v -304.913452 -10.959976 0.746124

v -373.655762 -61.365356 2.714600

v -290.596069 -16.072021 1.202148

v -387.632568 -72.187500 0.458496

v -396.022949 -87.661865 1.901611

v -401.867676 -92.568359 0.111328

v -267.653137 -68.967529 13.735352

v -419.389160 -189.150513 5.050903

v -257.164124 -108.025330 15.236572

v -409.157715 -220.294922 3.919922

v -245.736298 -146.889420 6.681885

v -404.838989 -229.694336 4.020508

v -240.572144 -161.339844 2.405518

v -364.772461 -270.264771 4.218750

v -230.024902 -191.995117 4.432617

v -222.325134 -217.684326 0.110596

v -333.203186 -287.494141 0.819580

v -221.851929 -226.911865 1.135742

v -301.957031 -287.341064 9.017578

v -230.224319 -257.269653 11.536560

v -282.484131 -289.333984 7.957275

v -256.752991 -284.561646 6.196655

v -331.998413 -24.526123 3.359741

v -314.019165 -17.865479 3.215881

v -334.617432 -33.585938 7.030762

v -347.425049 -41.885254 7.708496

v -362.448975 -52.517822 5.080566

v -301.263153 -18.487854 4.695000

v -384.009369 -76.583008 2.729736

v -294.560577 -23.637161 6.500488

v -281.043030 -37.140991 12.275879

v -408.738037 -110.742065 2.612061

v -413.724609 -135.452637 5.385254

v -419.511353 -153.228424 4.904663

v -419.858887 -170.748108 5.067627

v -262.310181 -88.972900 18.187500

v -414.836426 -203.571777 5.194824

v -387.062988 -250.449951 4.599854

v -374.523438 -255.593506 7.494141

v -351.252930 -275.644043 4.455078

v -319.313232 -288.842773 3.708008

v -252.305054 -281.953735 6.117004

v -320.106293 -25.711182 6.456757

v -349.692535 -50.114502 10.927979

v -365.791626 -64.471191 12.966324

v -374.622681 -76.118958 12.248169

v -381.850647 -84.433105 9.434631

v -285.562958 -34.046204 12.833130

v -395.244690 -98.028809 8.702942

v -404.341492 -116.024963 8.856750

v -274.642883 -49.230225 12.672852

v -406.771606 -125.498199 9.036804

v -413.946655 -157.890808 6.152405

v -409.073120 -141.414490 9.187164

v -413.201904 -173.400848 6.106323

v -410.047363 -160.863464 9.160217

v -413.631104 -193.576050 6.235107

v -408.155762 -179.947754 9.680420

v -399.780273 -210.140381 13.488831

v -401.636230 -222.608475 7.099854

v -251.185196 -134.696289 21.359619

v -391.567627 -235.705078 8.229492

v -365.592651 -259.131226 9.278564

v -330.567383 -279.093872 9.611389

v -346.979492 -272.398743 9.457703

v -315.215820 -285.392273 9.166016

v -225.587524 -233.401245 20.435547

v -274.959229 -284.288574 10.967773

v -239.469055 -269.020935 12.068054

v -243.987976 -273.815674 11.780121

v -340.869476 -49.665466 13.112610

v -319.711060 -36.959351 13.148697

v -304.654083 -31.950596 13.099341

v -375.186890 -82.942993 13.291611

v -394.432373 -106.461670 10.141785

v -382.571289 -98.808472 13.146667

v -399.721375 -123.713440 9.959534

v -395.343140 -124.666809 13.158997

v -402.028809 -136.550415 9.960236

v -398.456665 -144.067047 13.192993

v -272.155823 -58.733456 18.381470

v -403.489258 -153.336151 10.056885

v -399.387695 -168.630081 12.927124

v -403.114746 -167.487946 10.107727

v -403.019043 -182.558533 13.348572

v -407.945313 -192.488708 9.962891

v -256.691162 -115.988556 23.142090

v -398.489746 -214.950409 13.427795

v -391.016663 -226.527039 13.418030

v -378.245667 -236.247314 13.275391

v -242.443604 -162.865723 20.337891

v -363.587646 -252.294434 12.952393

v -338.987762 -265.528320 10.493713

v -339.667114 -260.391113 13.824219

v -328.294434 -271.292480 11.520630

v -227.817078 -216.281097 23.554688

v -311.824158 -281.409912 11.068115

v -227.260162 -220.971497 23.893921

v -227.853500 -245.158936 16.938232

v -299.337402 -281.818359 12.407959

v -262.470123 -275.434204 17.080872

v -350.911377 -65.755447 13.892303

v -325.917664 -50.027328 13.997498

v -310.129272 -43.206512 13.886959

v -339.676758 -57.064087 14.577515

v -299.674957 -43.223843 13.994993

v -367.793823 -87.725677 13.933075

v -281.403351 -45.855759 14.262787

v -378.711426 -104.711571 14.086945

v -390.929504 -108.098816 13.122406

v -386.990540 -121.100311 14.012787

v -392.609558 -142.456299 14.182739

v -395.232666 -169.307358 14.288818

v -384.944702 -142.726151 21.205353

v -395.687561 -195.491180 14.084137

v -393.457886 -203.951782 14.244873

v -381.543884 -222.699158 14.211487

v -364.066162 -243.760010 14.575256

v -237.037018 -180.804688 26.670166

v -355.807007 -246.764160 16.114746

v -346.691406 -245.643555 20.486816

v -232.212646 -198.372803 24.555176

v -333.905273 -255.558594 21.146484

v -305.481079 -275.027344 15.551758

v -289.724060 -277.457642 17.455811

v -244.905579 -265.802734 16.561890

v -233.677460 -254.723175 16.263420

v -244.863983 -260.662720 19.058228

v -317.639282 -53.218628 21.061462

v -340.301147 -64.860138 20.740967

v -328.033203 -59.957825 21.474548

v -350.011047 -76.772339 20.762329

v -304.667755 -49.531872 20.525726

v -285.135620 -51.037354 20.766251

v -361.340576 -90.167114 20.663818

v -366.225464 -98.864120 20.811462

v -374.037476 -110.692780 21.011658

v -276.301514 -56.159729 20.948425

v -381.950104 -127.442322 21.186035

v -268.006561 -74.231934 19.355713

v -384.092651 -162.857910 21.182861

v -384.648743 -182.075851 21.392456

v -390.366943 -191.623901 17.537598

v -381.709717 -199.963455 21.336060

v -374.586304 -217.918365 21.444092

v -249.204498 -146.813477 30.855591

v -362.346069 -231.366821 21.188599

v -323.135559 -260.318359 22.484863

v -307.036194 -269.388916 20.769897

v -275.411987 -271.533691 19.053650

v -318.791779 -59.263550 25.229752

v -334.427002 -68.796646 21.982971

v -291.890289 -54.986694 22.267136

v -346.578369 -80.255615 22.717529

v -332.985352 -73.927734 25.155975

v -354.942383 -89.880188 22.584717

v -365.316345 -110.444809 22.096283

v -274.261475 -67.112488 21.776367

v -291.895416 -59.229721 25.264225

v -370.884155 -126.493973 22.109528

v -374.559113 -137.711304 22.210114

v -273.859039 -73.825623 25.215515

v -377.376892 -149.138885 22.084656

v -267.886230 -86.158142 25.502625

v -265.425415 -91.766602 25.917480

v -376.624084 -166.743027 22.279724

v -261.109100 -104.116455 27.666138

v -376.671082 -189.395386 22.217224

v -258.463928 -113.267334 27.539795

v -371.677368 -207.576172 22.302307

v -355.897461 -230.803650 22.297485

v -363.412109 -210.790771 25.923828

v -349.368530 -232.862549 25.305542

v -331.761658 -251.078766 25.675598

v -302.251953 -261.990845 24.626343

v -228.282379 -228.838943 25.137665

v -231.007324 -238.030548 25.436760

v -277.416687 -262.351013 25.622742

v -255.702942 -256.535583 25.657532

v -240.222443 -247.804123 25.670639

v -315.532990 -72.511230 25.933319

v -335.442383 -81.972519 25.982376

v -349.874786 -96.049164 29.164764

v -332.616486 -86.135498 29.288010

v -358.077576 -110.217621 29.099945

v -288.458374 -75.887955 25.895035

v -289.245728 -80.765442 29.305634

v -364.227783 -126.320770 29.147369

v -369.884705 -145.090485 29.071289

v -273.477478 -91.130615 29.888367

v -368.797119 -161.779816 29.279022

v -370.571716 -178.729828 29.304962

v -368.292114 -192.893707 29.231140

v -255.709961 -132.851257 28.169434

v -247.237946 -160.801514 32.967529

v -344.076294 -232.092712 26.449097

v -358.216370 -209.017944 29.407593

v -341.368164 -228.490082 29.510925

v -324.921753 -242.895020 26.394287

v -327.439209 -236.090820 30.100952

v -308.349762 -254.522461 26.772705

v -232.266602 -209.734985 28.376221

v -232.498352 -219.657623 26.698273

v -293.274109 -257.398071 26.881836

v -280.876465 -257.012512 26.515961

v -288.581482 -252.429077 30.087097

v -238.813034 -238.746017 26.620667

v -241.983063 -235.869385 29.554087

v -259.637634 -251.931549 26.561127

v -315.666504 -77.442352 29.251949

v -337.980103 -99.113785 29.893539

v -320.475555 -87.755783 29.875168

v -346.274231 -107.136673 29.916733

v -298.750092 -88.090813 30.023653

v -318.865906 -93.057747 33.252731

v -333.445740 -103.883057 33.884979

v -343.133911 -110.603271 32.890137

v -351.709595 -123.882324 29.936890

v -348.666748 -127.670166 32.913574

v -357.159485 -135.685791 29.992767

v -290.828766 -93.670174 33.424068

v -361.715515 -156.007263 29.998199

v -273.458862 -98.012115 33.520172

v -356.701660 -150.782715 33.063599

v -352.818359 -164.479919 36.996460

v -264.898804 -118.007568 33.145752

v -361.967407 -173.892426 30.102386

v -362.843262 -191.824020 30.284454

v -259.035645 -135.152100 33.055664

v -349.511230 -210.722946 30.638672

v -349.708984 -203.090881 34.127441

v -338.269897 -221.235626 30.527954

v -242.847046 -177.429077 33.263916

v -238.403351 -188.757996 33.035950

v -316.097656 -241.043945 33.150879

v -321.746887 -229.442383 37.704681

v -237.760544 -196.306168 33.442307

v -297.466309 -248.906738 33.663055

v -238.619507 -206.167969 33.734421

v -241.384674 -217.245911 33.808453

v -238.998505 -222.999832 30.151077

v -280.637512 -241.212952 34.262512

v -263.058197 -242.084106 30.599396

v -249.612305 -234.077423 30.576500

v -259.305450 -235.067596 33.852722

v -261.303467 -247.539001 29.676361

v -313.456696 -105.147667 34.018585

v -342.684082 -121.004333 34.332825

v -331.166687 -109.025421 37.297226

v -293.061768 -106.375977 33.958515

v -346.089722 -135.773743 34.148376

v -353.102295 -138.047745 33.200958

v -294.618073 -111.212128 37.283531

v -341.714111 -138.991028 37.582642

v -340.487793 -126.126465 37.134094

v -349.855713 -147.858337 35.074097

v -274.606567 -114.157394 34.111465

v -278.162354 -117.506714 37.343185

v -353.066406 -181.936035 36.843994

v -269.289795 -129.869019 37.624695

v -359.316895 -189.142700 32.948853

v -257.641602 -147.128906 36.693848

v -345.345276 -199.796417 37.531616

v -339.738647 -209.658142 37.489319

v -249.147461 -165.204010 36.884460

v -249.233978 -180.076752 37.514618

v -247.347137 -189.457596 34.414185

v -314.721558 -237.141968 34.648560

v -255.792297 -203.375381 37.655655

v -253.414474 -209.783661 34.386024

v -293.220337 -242.526367 34.546906

v -286.113922 -238.133240 37.873932

v -260.913727 -212.489944 37.689766

v -261.940369 -224.643112 34.377949

v -265.174408 -221.627228 37.373238

v -313.665100 -109.881363 37.373135

v -321.630066 -117.414810 37.986038

v -332.524750 -126.096069 38.033447

v -294.494293 -116.847221 38.087482

v -331.282684 -133.603607 41.572861

v -321.261292 -122.836304 41.368835

v -311.762512 -121.664833 41.499729

v -338.471008 -146.720978 41.347656

v -345.714355 -158.397583 38.384399

v -349.330811 -174.560608 38.647827

v -343.441528 -165.405853 41.495148

v -345.617798 -186.759109 38.235657

v -345.049194 -178.957428 41.437439

v -261.833008 -155.602158 41.616226

v -333.028015 -206.407074 38.225800

v -330.128052 -201.360657 41.620697

v -253.504944 -172.418839 38.470886

v -313.356598 -214.273499 38.108719

v -313.078430 -208.960571 41.709320

v -285.373535 -213.310394 38.240021

v -257.892334 -189.306610 38.372414

v -266.593750 -201.210190 38.334332

v -270.324554 -197.677750 41.811275

v -295.136597 -122.091675 41.548843

v -329.301178 -177.298309 41.802368

v -276.161011 -132.673706 41.497780

v -273.575928 -161.254913 41.867813

v -258.000336 -172.533600 41.535797

v -260.624176 -182.445007 41.686146

v -286.521881 -208.210907 41.656738

f 1 2 3
f 4 3 2
f 5 2 1
f 4 2 6
f 2 7 6
f 8 4 6
f 8 9 10
f 6 9 8
f 9 11 10
f 7 12 6
f 9 6 12
f 9 13 11
f 13 14 11
f 14 15 11
f 15 14 16
f 3 17 1
f 17 18 19
f 20 8 21
f 5 1 17
f 17 19 22
f 5 17 22
f 21 8 10
f 7 2 5
f 11 23 21
f 22 24 5
f 11 21 10
f 7 5 24
f 25 11 15
f 24 12 7
f 26 9 12
f 27 25 15
f 13 9 26
f 28 25 27
f 27 15 16
f 26 29 13
f 29 14 13
f 14 29 16
f 16 29 30
f 27 16 31
f 30 31 16
f 27 31 28
f 31 32 28
f 29 33 30
f 31 34 32
f 31 35 34
f 36 37 38
f 39 40 41
f 42 39 36
f 43 41 40
f 44 17 3
f 40 45 43
f 46 3 4
f 46 4 8
f 20 46 8
f 20 21 47
f 45 40 48
f 18 49 19
f 47 21 23
f 19 49 50
f 11 51 23
f 50 52 19
f 22 19 52
f 11 25 51
f 51 25 53
f 22 54 24
f 54 22 52
f 54 12 24
f 28 53 25
f 55 53 28
f 32 55 28
f 26 33 29
f 32 56 55
f 31 30 57
f 58 32 34
f 58 34 35
f 59 60 58
f 58 35 59
f 61 37 36
f 37 62 63
f 36 39 61
f 63 62 64
f 39 41 61
f 37 63 38
f 38 63 64
f 65 41 43
f 36 38 42
f 20 64 66
f 65 67 68
f 20 47 64
f 64 47 38
f 42 38 47
f 43 67 65
f 44 69 17
f 70 20 66
f 18 17 69
f 3 46 44
f 20 70 46
f 67 43 45
f 40 39 42
f 47 23 42
f 40 42 48
f 67 71 72
f 48 42 23
f 45 48 73
f 73 67 45
f 23 51 48
f 73 48 51
f 74 52 50
f 67 73 53
f 75 71 76
f 73 51 53
f 53 76 67
f 71 67 76
f 52 74 77
f 76 53 55
f 76 78 75
f 75 78 79
f 77 54 52
f 79 78 80
f 12 54 81
f 76 55 56
f 80 78 82
f 26 12 83
f 83 12 84
f 26 83 33
f 32 85 56
f 85 32 58
f 33 86 30
f 85 58 60
f 57 30 86
f 87 57 86
f 57 35 31
f 57 88 35
f 60 59 89
f 35 89 59
f 60 89 90
f 90 91 60
f 90 89 92
f 92 91 90
f 92 93 91
f 94 93 92
f 95 96 97
f 98 97 96
f 99 95 97
f 97 62 99
f 98 66 97
f 62 37 99
f 37 61 99
f 98 100 101
f 66 98 102
f 66 62 97
f 102 98 101
f 41 103 61
f 103 65 68
f 66 64 62
f 41 65 103
f 44 101 69
f 44 102 101
f 66 102 70
f 102 44 46
f 46 70 102
f 72 68 67
f 18 69 104
f 105 49 104
f 104 49 18
f 105 50 49
f 106 50 105
f 107 71 75
f 79 107 75
f 106 74 50
f 108 77 74
f 80 109 79
f 54 77 110
f 56 111 76
f 76 111 82
f 82 78 76
f 12 81 84
f 82 111 112
f 82 113 80
f 112 113 82
f 109 80 113
f 85 111 56
f 85 112 111
f 84 114 83
f 85 115 112
f 33 83 114
f 86 33 114
f 85 60 115
f 115 60 116
f 116 60 117
f 118 88 57
f 117 60 91
f 89 35 88
f 119 92 89
f 91 93 120
f 121 120 93
f 119 94 92
f 121 93 94
f 94 122 121
f 122 94 123
f 124 122 123
f 124 123 125
f 125 126 124
f 127 128 98
f 98 96 127
f 127 96 129
f 96 95 129
f 98 128 100
f 95 99 130
f 99 61 130
f 100 128 131
f 101 100 132
f 132 69 101
f 103 68 133
f 133 68 134
f 68 72 134
f 69 132 104
f 71 134 72
f 134 71 107
f 135 106 105
f 108 74 106
f 108 110 77
f 110 136 54
f 81 54 136
f 137 109 113
f 138 109 137
f 113 112 139
f 139 112 115
f 137 113 140
f 139 115 116
f 114 141 86
f 57 87 118
f 91 120 117
f 119 89 88
f 119 123 94
f 122 124 142
f 124 126 143
f 144 145 123
f 145 125 123
f 125 146 126
f 145 146 125
f 95 147 129
f 148 149 131
f 150 131 149
f 128 148 131
f 151 130 61
f 151 61 103
f 131 150 152
f 131 132 100
f 152 132 131
f 132 152 104
f 153 105 104
f 79 154 107
f 135 155 106
f 108 106 155
f 79 138 156
f 79 109 138
f 138 157 156
f 84 81 158
f 157 138 159
f 138 137 140
f 160 157 159
f 84 161 114
f 116 162 139
f 113 139 162
f 140 113 162
f 140 159 138
f 140 162 117
f 117 162 116
f 140 117 163
f 163 117 120
f 163 159 140
f 164 159 165
f 163 165 159
f 166 163 120
f 167 88 118
f 88 167 168
f 120 121 166
f 168 119 88
f 166 121 122
f 166 122 142
f 142 124 143
f 123 119 144
f 143 126 169
f 145 144 170
f 169 126 146
f 146 171 169
f 146 145 170
f 146 170 172
f 173 170 174
f 172 170 173
f 171 146 175
f 146 172 175
f 175 176 171
f 176 175 177
f 178 172 173
f 175 172 178
f 148 128 179
f 127 179 128
f 179 180 148
f 149 148 180
f 181 149 180
f 95 130 147
f 181 150 149
f 182 150 181
f 133 151 103
f 182 153 150
f 153 152 150
f 152 153 104
f 153 183 105
f 107 154 134
f 183 135 105
f 154 79 156
f 155 135 184
f 184 108 155
f 185 110 108
f 185 136 110
f 136 158 81
f 84 158 161
f 114 161 141
f 186 160 164
f 159 164 160
f 87 86 141
f 164 187 186
f 141 188 87
f 87 188 118
f 165 163 166
f 164 165 187
f 166 142 165
f 165 142 187
f 187 142 189
f 190 189 191
f 168 192 119
f 142 193 189
f 193 191 189
f 193 142 143
f 192 144 119
f 144 192 194
f 194 170 144
f 143 195 193
f 195 143 169
f 194 174 170
f 195 169 171
f 171 196 195
f 171 176 196
f 174 197 173
f 177 198 176
f 178 177 175
f 178 173 197
f 177 178 199
f 199 198 177
f 197 199 178
f 199 197 200
f 201 199 200
f 202 201 200
f 203 201 202
f 203 204 201
f 203 205 204
f 206 205 203
f 207 179 127
f 129 147 127
f 181 208 182
f 134 209 133
f 153 182 183
f 154 209 134
f 135 183 210
f 135 210 211
f 211 212 135
f 184 135 212
f 154 156 213
f 213 156 157
f 214 185 108
f 157 160 213
f 160 186 215
f 186 216 215
f 216 186 187
f 188 167 118
f 187 190 216
f 190 187 189
f 190 191 217
f 217 191 195
f 191 193 195
f 195 218 217
f 219 194 220
f 194 219 174
f 221 196 176
f 174 219 197
f 222 198 199
f 200 197 223
f 222 199 224
f 224 199 201
f 200 223 225
f 201 226 224
f 202 200 225
f 202 227 228
f 226 201 204
f 203 202 228
f 203 228 206
f 205 229 204
f 206 229 205
f 206 228 230
f 206 231 229
f 230 231 206
f 231 230 232
f 232 233 231
f 234 233 232
f 147 207 127
f 235 181 180
f 181 235 236
f 147 130 237
f 236 208 181
f 238 208 236
f 239 151 133
f 208 238 182
f 240 182 238
f 182 240 183
f 183 240 210
f 212 241 184
f 242 184 241
f 108 184 242
f 214 108 242
f 136 185 243
f 213 160 215
f 161 158 244
f 161 244 245
f 141 161 245
f 141 245 188
f 167 188 246
f 190 217 216
f 247 168 167
f 192 220 194
f 218 195 196
f 196 248 218
f 196 249 248
f 221 249 196
f 221 250 249
f 251 249 250
f 176 252 221
f 252 250 221
f 223 197 219
f 252 176 198
f 252 198 222
f 227 202 225
f 228 227 253
f 204 254 226
f 204 229 254
f 229 231 254
f 231 255 254
f 255 231 256
f 257 230 258
f 257 232 230
f 257 234 232
f 233 256 231
f 259 260 234
f 260 233 234
f 261 179 207
f 261 235 180
f 261 180 179
f 262 207 147
f 237 130 151
f 133 209 239
f 238 263 240
f 241 212 264
f 214 265 185
f 185 265 243
f 266 244 158
f 247 167 246
f 216 217 267
f 267 217 218
f 247 192 168
f 267 218 248
f 220 192 268
f 249 269 248
f 269 249 251
f 270 219 220
f 251 271 272
f 271 251 250
f 219 270 273
f 223 219 273
f 252 271 250
f 252 222 271
f 223 273 274
f 222 275 271
f 223 274 276
f 276 225 223
f 275 222 224
f 225 276 227
f 275 224 277
f 226 277 224
f 227 276 253
f 277 226 278
f 228 253 258
f 278 226 254
f 277 278 279
f 258 230 228
f 279 278 280
f 280 278 281
f 281 282 280
f 259 234 257
f 256 233 283
f 283 233 284
f 283 284 285
f 286 260 259
f 233 260 284
f 259 287 288
f 286 259 288
f 260 286 284
f 286 288 289
f 289 284 286
f 288 290 291
f 291 289 288
f 207 262 261
f 235 261 292
f 235 292 293
f 147 294 262
f 293 236 235
f 294 147 237
f 236 293 295
f 296 237 151
f 151 239 296
f 295 238 236
f 263 295 297
f 295 263 238
f 239 209 298
f 299 298 209
f 300 210 240
f 209 154 299
f 300 211 210
f 301 299 154
f 154 213 301
f 214 242 302
f 303 213 215
f 136 243 266
f 136 266 158
f 188 245 304
f 305 215 216
f 246 188 304
f 246 304 306
f 247 246 306
f 268 192 247
f 248 307 267
f 307 248 269
f 220 268 270
f 308 307 269
f 308 269 251
f 309 272 271
f 275 309 271
f 275 310 309
f 310 275 277
f 277 311 310
f 276 312 253
f 277 313 311
f 253 312 314
f 314 258 253
f 313 277 279
f 279 315 313
f 280 315 279
f 278 254 255
f 315 280 282
f 315 282 316
f 255 281 278
f 258 314 317
f 255 256 283
f 281 255 318
f 318 282 281
f 318 255 283
f 318 319 282
f 258 317 257
f 287 257 317
f 287 259 257
f 283 320 318
f 320 283 285
f 285 284 321
f 288 287 290
f 287 322 290
f 323 321 284
f 323 284 324
f 289 324 284
f 325 326 290
f 326 291 290
f 289 291 327
f 326 327 291
f 326 325 328
f 328 327 326
f 329 294 237
f 237 296 329
f 300 240 263
f 213 303 301
f 330 241 264
f 241 330 242
f 330 302 242
f 265 214 331
f 243 265 331
f 266 243 332
f 266 333 244
f 245 244 333
f 304 245 333
f 216 267 305
f 247 306 268
f 308 251 272
f 272 334 308
f 334 272 309
f 309 335 334
f 273 336 274
f 309 337 335
f 276 274 338
f 337 309 310
f 312 276 338
f 310 311 337
f 339 312 338
f 311 313 340
f 314 312 339
f 313 341 340
f 341 313 315
f 315 342 341
f 317 314 343
f 316 342 315
f 342 316 344
f 344 316 319
f 282 319 316
f 345 344 319
f 319 318 320
f 322 287 317
f 319 320 345
f 345 320 346
f 321 346 320
f 320 285 321
f 346 321 347
f 323 347 321
f 325 290 322
f 324 289 348
f 348 289 327
f 349 328 325
f 327 328 350
f 328 349 351
f 350 328 351
f 352 351 349
f 353 261 262
f 354 262 294
f 294 329 354
f 296 239 355
f 293 297 295
f 297 356 263
f 356 300 263
f 357 298 299
f 211 264 212
f 302 330 358
f 331 214 302
f 332 243 331
f 215 359 303
f 215 305 359
f 360 333 266
f 304 333 361
f 361 362 304
f 306 304 362
f 267 307 305
f 362 363 306
f 268 306 363
f 364 268 363
f 268 364 270
f 365 307 308
f 366 270 364
f 308 334 365
f 336 270 366
f 336 273 270
f 338 274 336
f 311 340 337
f 367 314 339
f 314 367 343
f 342 368 341
f 369 317 343
f 368 342 344
f 317 369 322
f 344 345 370
f 346 370 345
f 370 346 347
f 325 322 371
f 347 323 372
f 324 372 323
f 324 373 372
f 325 371 349
f 348 327 374
f 349 375 352
f 374 327 350
f 352 375 376
f 352 376 377
f 352 377 351
f 377 350 351
f 353 292 261
f 353 262 354
f 354 378 379
f 378 354 329
f 296 380 329
f 296 355 380
f 357 381 298
f 356 382 300
f 299 301 357
f 264 211 383
f 384 330 264
f 358 330 384
f 358 384 385
f 331 302 386
f 302 358 385
f 385 386 302
f 360 266 387
f 333 360 388
f 333 388 389
f 333 389 361
f 390 361 389
f 362 361 391
f 391 361 390
f 362 391 392
f 363 362 392
f 393 392 391
f 307 365 305
f 363 392 394
f 364 363 394
f 364 394 395
f 395 366 364
f 336 366 396
f 397 334 335
f 396 338 336
f 396 398 338
f 397 335 337
f 338 398 339
f 399 367 339
f 400 343 367
f 368 401 341
f 343 400 402
f 343 402 369
f 403 404 402
f 369 402 404
f 404 371 369
f 371 322 369
f 370 347 405
f 406 371 404
f 405 347 407
f 372 407 347
f 408 409 406
f 373 407 372
f 324 410 373
f 349 371 375
f 371 406 375
f 348 410 324
f 411 412 406
f 375 406 412
f 412 376 375
f 377 376 413
f 292 414 293
f 354 379 353
f 415 378 329
f 293 416 297
f 329 380 415
f 239 381 355
f 239 298 381
f 417 211 300
f 383 211 417
f 303 418 301
f 385 419 386
f 331 386 419
f 331 419 420
f 332 331 420
f 420 387 332
f 266 332 387
f 360 387 421
f 421 388 360
f 389 388 390
f 422 390 388
f 423 391 390
f 393 391 424
f 424 391 423
f 394 392 393
f 424 425 393
f 425 394 393
f 425 424 426
f 425 395 394
f 395 425 427
f 427 366 395
f 428 427 425
f 429 366 427
f 396 366 429
f 398 396 399
f 430 397 337
f 399 431 432
f 339 398 399
f 430 337 340
f 432 400 399
f 400 367 399
f 433 434 432
f 434 400 432
f 401 340 341
f 400 434 403
f 403 402 400
f 435 403 434
f 368 344 436
f 437 403 435
f 344 370 436
f 435 438 437
f 437 408 403
f 403 408 404
f 437 438 439
f 404 408 406
f 437 409 408
f 409 437 440
f 373 410 441
f 409 440 411
f 411 440 442
f 411 406 409
f 377 374 350
f 411 443 412
f 442 443 411
f 443 376 412
f 443 413 376
f 292 353 414
f 444 414 353
f 353 379 445
f 416 293 414
f 446 379 378
f 378 415 446
f 415 447 446
f 448 380 355
f 447 415 380
f 449 355 381
f 297 416 450
f 450 356 297
f 357 451 381
f 301 418 357
f 383 384 264
f 452 303 359
f 384 453 385
f 453 454 385
f 385 454 419
f 455 456 454
f 419 454 456
f 456 420 419
f 455 457 456
f 457 458 456
f 420 456 458
f 458 387 420
f 421 387 459
f 421 422 388
f 460 461 305
f 422 462 390
f 462 423 390
f 460 305 365
f 423 462 463
f 423 426 424
f 426 423 463
f 463 464 426
f 428 425 426
f 463 465 464
f 428 426 464
f 464 466 428
f 428 429 427
f 466 429 428
f 429 431 396
f 429 466 467
f 466 468 467
f 431 429 467
f 469 431 467
f 399 396 431
f 431 470 432
f 469 470 431
f 471 470 469
f 470 471 433
f 472 473 471
f 433 432 470
f 473 474 471
f 474 433 471
f 474 475 433
f 475 434 433
f 435 434 475
f 368 436 401
f 475 474 438
f 435 475 438
f 438 474 476
f 477 478 476
f 438 476 439
f 436 370 405
f 476 478 439
f 478 479 439
f 479 437 439
f 440 437 479
f 480 479 478
f 407 373 481
f 441 481 373
f 442 440 479
f 479 480 482
f 441 410 483
f 482 484 479
f 479 484 442
f 348 374 483
f 410 348 483
f 442 484 443
f 485 414 444
f 353 445 444
f 414 485 416
f 380 486 447
f 380 448 486
f 449 448 355
f 381 451 449
f 487 382 356
f 356 450 487
f 357 488 451
f 357 489 488
f 382 417 300
f 418 489 357
f 452 418 303
f 455 454 453
f 457 455 490
f 459 387 458
f 458 457 491
f 491 492 458
f 491 457 490
f 459 458 492
f 492 491 493
f 492 494 459
f 305 461 359
f 493 495 492
f 495 494 492
f 421 459 494
f 494 496 421
f 422 421 496
f 497 498 422
f 498 462 422
f 462 498 499
f 499 463 462
f 499 465 463
f 500 465 499
f 365 501 460
f 501 365 334
f 468 464 465
f 502 468 465
f 464 468 466
f 502 465 503
f 501 334 397
f 504 468 502
f 504 467 468
f 505 467 504
f 397 430 506
f 469 467 505
f 469 505 471
f 471 505 472
f 340 401 430
f 472 507 473
f 473 508 509
f 509 474 473
f 510 509 508
f 509 510 477
f 474 509 477
f 476 474 477
f 511 478 477
f 511 512 478
f 480 478 512
f 512 513 480
f 482 480 513
f 484 482 514
f 515 441 483
f 514 516 484
f 443 484 516
f 413 374 377
f 517 485 444
f 444 445 517
f 518 445 379
f 379 446 518
f 519 446 447
f 486 520 447
f 486 448 520
f 447 520 519
f 448 449 521
f 448 521 520
f 449 522 521
f 449 451 522
f 453 490 455
f 490 493 491
f 495 493 523
f 524 523 493
f 495 525 494
f 523 526 495
f 525 495 526
f 527 496 494
f 527 494 525
f 497 422 496
f 527 497 496
f 498 497 528
f 498 528 529
f 498 529 499
f 529 500 499
f 500 503 465
f 500 530 503
f 504 503 530
f 502 503 504
f 504 530 531
f 531 505 504
f 505 531 532
f 505 532 472
f 430 401 533
f 507 472 532
f 507 534 508
f 473 507 508
f 535 477 510
f 477 535 511
f 536 511 535
f 511 536 537
f 538 436 405
f 539 511 537
f 539 512 511
f 512 539 540
f 541 405 407
f 541 407 481
f 513 512 540
f 482 513 514
f 441 542 481
f 441 515 542
f 483 374 543
f 374 413 544
f 517 445 518
f 485 545 416
f 416 546 450
f 547 519 520
f 450 546 487
f 548 522 451
f 488 548 451
f 382 487 549
f 417 382 549
f 383 417 549
f 418 550 489
f 383 551 384
f 453 384 551
f 490 453 552
f 490 552 493
f 553 493 552
f 493 553 524
f 553 554 524
f 524 554 523
f 523 554 555
f 523 556 526
f 556 557 526
f 555 554 558
f 555 556 523
f 525 526 557
f 558 559 555
f 557 556 560
f 555 560 556
f 557 527 525
f 560 555 559
f 560 561 557
f 557 562 527
f 562 497 527
f 563 562 557
f 528 497 562
f 563 528 562
f 529 528 564
f 529 564 565
f 529 565 500
f 565 530 500
f 506 501 397
f 531 530 566
f 567 531 566
f 567 532 531
f 533 506 430
f 567 507 532
f 534 507 567
f 510 508 534
f 401 436 568
f 510 534 569
f 510 569 535
f 569 536 535
f 536 569 570
f 570 571 536
f 571 572 536
f 537 536 572
f 573 537 572
f 573 539 537
f 574 539 573
f 405 541 538
f 574 575 539
f 539 575 540
f 540 575 513
f 481 542 576
f 516 577 443
f 413 443 577
f 544 543 374
f 543 515 483
f 578 485 517
f 485 578 545
f 579 517 518
f 545 580 416
f 416 580 546
f 518 446 581
f 519 581 446
f 582 521 522
f 583 582 522
f 487 546 584
f 583 522 548
f 487 584 549
f 488 585 548
f 585 488 489
f 489 550 585
f 549 586 383
f 586 551 383
f 550 418 587
f 452 587 418
f 588 452 589
f 359 589 452
f 589 359 461
f 558 554 553
f 590 559 558
f 560 559 591
f 560 592 561
f 557 561 563
f 559 590 593
f 591 559 593
f 561 592 594
f 591 592 560
f 594 563 561
f 591 593 595
f 592 591 595
f 596 594 592
f 594 597 563
f 592 595 598
f 528 563 564
f 596 597 594
f 564 563 597
f 597 599 564
f 599 597 600
f 564 599 601
f 600 601 599
f 601 565 564
f 602 603 601
f 565 566 530
f 565 601 604
f 604 566 565
f 604 567 566
f 567 604 605
f 533 401 606
f 605 607 534
f 534 567 605
f 401 568 606
f 534 607 608
f 569 534 608
f 569 608 609
f 609 571 569
f 436 538 568
f 571 570 569
f 609 573 571
f 573 572 571
f 573 609 610
f 574 573 610
f 481 576 541
f 575 611 513
f 611 514 513
f 515 612 542
f 577 544 413
f 612 515 543
f 578 613 545
f 517 579 578
f 518 581 579
f 581 519 614
f 614 519 547
f 615 547 520
f 615 520 521
f 546 580 616
f 521 582 615
f 617 583 548
f 584 618 549
f 548 585 617
f 550 619 585
f 586 549 618
f 620 619 550
f 550 587 620
f 551 621 453
f 452 588 587
f 552 622 553
f 623 461 624
f 624 461 460
f 553 622 558
f 558 622 590
f 595 593 625
f 596 592 626
f 598 626 592
f 598 595 625
f 627 460 501
f 626 600 596
f 597 596 600
f 628 626 598
f 598 625 628
f 626 628 629
f 600 626 630
f 600 630 631
f 632 629 628
f 626 629 630
f 632 633 629
f 630 629 634
f 630 634 631
f 631 602 600
f 602 601 600
f 506 635 501
f 602 631 636
f 604 601 603
f 603 602 636
f 636 631 637
f 603 605 604
f 607 605 603
f 637 638 639
f 636 637 639
f 603 636 607
f 607 636 639
f 639 640 608
f 607 639 608
f 640 641 642
f 608 640 643
f 643 609 608
f 640 642 643
f 643 610 609
f 574 610 644
f 574 644 645
f 575 574 645
f 541 576 646
f 611 647 514
f 543 544 612
f 578 648 613
f 579 649 578
f 649 648 578
f 581 649 579
f 545 650 580
f 650 545 613
f 580 650 616
f 547 651 614
f 547 615 651
f 546 616 584
f 582 652 615
f 582 653 652
f 654 584 616
f 653 582 583
f 654 618 584
f 583 617 653
f 585 619 617
f 620 655 619
f 655 620 587
f 656 655 587
f 656 587 588
f 621 657 453
f 588 589 656
f 657 552 453
f 623 589 461
f 622 658 590
f 590 658 593
f 627 624 460
f 593 658 625
f 628 625 658
f 627 501 635
f 632 659 633
f 633 634 629
f 631 634 660
f 634 633 661
f 659 661 633
f 661 662 634
f 661 659 663
f 662 660 634
f 662 661 663
f 660 662 637
f 660 637 631
f 662 663 664
f 662 664 665
f 637 662 666
f 665 666 662
f 506 533 667
f 666 665 668
f 638 637 666
f 533 606 669
f 666 668 670
f 671 666 670
f 671 670 672
f 671 638 666
f 568 669 606
f 671 672 673
f 673 641 671
f 638 671 641
f 673 674 641
f 641 639 638
f 639 641 640
f 675 641 674
f 675 642 641
f 675 676 642
f 643 642 676
f 538 677 568
f 676 610 643
f 644 610 676
f 645 644 678
f 538 646 677
f 541 646 538
f 575 645 679
f 575 679 611
f 542 680 576
f 577 516 681
f 542 612 680
f 577 682 544
f 682 612 544
f 613 648 650
f 654 616 650
f 683 653 617
f 683 617 619
f 619 684 683
f 618 685 586
f 685 686 586
f 655 684 619
f 551 586 686
f 687 684 655
f 621 551 686
f 655 688 687
f 688 655 656
f 689 688 656
f 656 589 689
f 623 689 589
f 658 632 628
f 663 659 690
f 667 635 506
f 664 691 665
f 691 668 665
f 667 533 669
f 675 692 676
f 677 693 568
f 692 694 676
f 644 676 694
f 678 644 694
f 647 611 679
f 514 647 695
f 695 516 514
f 682 680 612
f 696 648 649
f 648 696 650
f 614 697 581
f 581 697 649
f 614 651 697
f 650 696 698
f 698 654 650
f 699 615 652
f 699 652 653
f 654 700 618
f 699 653 701
f 653 702 701
f 685 618 700
f 653 683 702
f 703 683 684
f 552 657 704
f 624 627 705
f 632 658 706
f 659 632 706
f 627 635 707
f 690 708 663
f 635 667 709
f 708 664 663
f 708 691 664
f 668 691 710
f 670 668 710
f 670 710 672
f 669 568 711
f 672 712 673
f 674 673 712
f 693 711 568
f 675 674 712
f 712 692 675
f 694 692 713
f 677 714 693
f 715 694 713
f 715 678 694
f 715 645 678
f 679 645 715
f 714 677 646
f 646 576 716
f 716 576 680
f 647 717 695
f 681 516 695
f 718 680 682
f 577 719 682
f 720 696 649
f 696 720 721
f 722 720 649
f 722 649 697
f 696 721 698
f 723 697 651
f 723 651 724
f 721 725 698
f 724 651 615
f 615 699 724
f 700 654 698
f 700 698 725
f 726 699 701
f 701 702 726
f 685 700 727
f 683 703 702
f 685 728 686
f 729 703 684
f 728 621 686
f 729 684 687
f 730 729 687
f 730 687 688
f 688 731 730
f 688 689 731
f 689 623 731
f 731 623 732
f 622 552 704
f 623 624 732
f 658 622 733
f 732 624 705
f 734 705 627
f 707 734 627
f 690 659 706
f 709 707 635
f 708 710 691
f 667 735 709
f 669 735 667
f 669 736 735
f 669 711 736
f 711 693 737
f 714 737 693
f 646 738 714
f 738 646 716
f 716 680 718
f 718 682 719
f 681 739 577
f 739 719 577
f 697 723 722
f 740 721 720
f 720 722 740
f 721 740 725
f 723 724 741
f 727 725 740
f 742 724 699
f 743 699 726
f 699 743 742
f 727 700 725
f 744 726 702
f 727 745 685
f 746 744 702
f 702 703 746
f 728 685 745
f 703 729 746
f 746 729 747
f 728 748 621
f 729 749 747
f 657 621 748
f 729 730 749
f 750 730 731
f 730 750 751
f 750 731 732
f 732 752 750
f 622 704 733
f 753 750 752
f 732 705 752
f 754 752 705
f 658 733 706
f 752 754 755
f 705 734 754
f 756 734 707
f 707 757 756
f 707 709 757
f 690 758 708
f 759 757 709
f 735 759 709
f 736 759 735
f 711 760 736
f 737 760 711
f 737 761 762
f 714 761 737
f 738 761 714
f 738 763 761
f 679 715 764
f 763 738 716
f 764 647 679
f 765 718 719
f 695 766 681
f 766 767 681
f 739 681 767
f 723 768 722
f 724 742 741
f 768 740 722
f 723 741 768
f 740 768 769
f 727 740 770
f 740 769 770
f 743 726 744
f 727 770 745
f 743 744 771
f 772 744 746
f 744 772 773
f 772 746 747
f 774 772 747
f 772 774 775
f 774 747 749
f 749 776 774
f 751 749 730
f 749 751 776
f 777 774 776
f 704 657 778
f 751 750 753
f 779 776 751
f 777 776 779
f 751 753 779
f 780 779 781
f 781 779 753
f 755 753 752
f 753 755 781
f 780 781 755
f 780 755 782
f 755 783 782
f 754 783 755
f 783 754 734
f 756 783 734
f 758 706 784
f 690 706 758
f 756 757 785
f 759 786 785
f 757 759 785
f 786 759 787
f 759 736 787
f 708 788 710
f 787 736 789
f 672 710 788
f 760 789 736
f 760 790 791
f 760 762 790
f 762 760 737
f 761 790 762
f 790 761 792
f 713 692 793
f 794 792 761
f 793 795 713
f 715 713 795
f 763 794 761
f 715 795 764
f 763 716 794
f 764 796 647
f 717 647 796
f 718 765 797
f 718 797 716
f 719 798 765
f 739 767 798
f 798 719 739
f 741 742 768
f 799 768 742
f 800 769 768
f 801 769 800
f 799 802 768
f 771 742 743
f 769 801 770
f 768 802 800
f 803 770 801
f 804 799 742
f 804 742 771
f 745 770 803
f 744 773 771
f 804 771 773
f 728 745 803
f 803 805 728
f 773 806 804
f 773 772 807
f 748 728 805
f 773 808 806
f 773 807 808
f 775 807 772
f 808 807 775
f 778 657 748
f 774 777 775
f 809 808 775
f 775 777 809
f 779 780 777
f 809 810 811
f 810 809 777
f 777 780 810
f 810 780 782
f 782 812 810
f 783 756 782
f 812 782 756
f 756 813 812
f 756 785 813
f 814 813 785
f 785 786 814
f 786 787 814
f 815 814 787
f 789 815 787
f 816 672 788
f 815 789 817
f 712 672 816
f 789 791 817
f 789 760 791
f 791 818 817
f 819 692 712
f 790 820 791
f 819 793 692
f 792 794 821
f 797 821 794
f 794 716 797
f 765 822 797
f 765 798 822
f 823 824 825
f 824 695 717
f 695 824 823
f 766 695 823
f 767 823 798
f 766 823 767
f 800 802 826
f 802 799 827
f 800 826 801
f 828 826 802
f 802 827 828
f 799 829 827
f 801 826 830
f 830 803 801
f 829 799 804
f 830 831 803
f 829 804 832
f 803 831 805
f 832 804 833
f 833 804 806
f 805 831 748
f 833 806 834
f 835 748 831
f 834 806 808
f 748 835 778
f 808 836 834
f 809 836 808
f 778 837 704
f 811 836 809
f 733 704 837
f 838 811 810
f 810 839 838
f 812 840 810
f 839 810 840
f 840 812 813
f 840 813 841
f 842 841 813
f 813 814 842
f 708 758 843
f 843 788 708
f 844 842 814
f 814 815 844
f 817 844 815
f 791 820 818
f 820 790 845
f 792 845 790
f 846 845 792
f 792 821 846
f 822 846 821
f 846 822 847
f 821 797 822
f 717 796 824
f 847 822 798
f 825 798 823
f 798 825 847
f 826 828 848
f 827 849 828
f 849 827 829
f 826 850 830
f 829 851 849
f 826 848 850
f 849 852 828
f 849 851 852
f 853 851 829
f 853 829 832
f 830 850 831
f 853 832 833
f 833 854 853
f 833 834 854
f 831 850 835
f 855 850 856
f 855 835 850
f 857 854 834
f 834 836 857
f 835 855 778
f 837 778 855
f 836 858 857
f 858 836 811
f 837 855 859
f 860 858 811
f 859 861 837
f 733 837 861
f 733 861 862
f 811 838 860
f 863 860 838
f 862 864 733
f 838 839 863
f 706 733 864
f 865 863 839
f 864 866 706
f 866 784 706
f 841 839 840
f 839 841 865
f 867 865 841
f 842 867 841
f 868 867 842
f 868 869 867
f 844 868 842
f 818 868 844
f 844 817 818
f 818 870 868
f 820 871 818
f 816 819 712
f 871 820 845
f 846 872 845
f 764 795 873
f 847 872 846
f 764 873 874
f 874 796 764
f 875 847 876
f 874 824 796
f 824 874 877
f 877 825 824
f 877 876 825
f 847 825 876
f 852 848 828
f 850 848 856
f 878 848 852
f 852 879 878
f 879 852 851
f 880 851 853
f 878 856 848
f 851 880 879
f 879 881 878
f 882 880 853
f 883 856 878
f 854 882 853
f 856 883 859
f 878 884 883
f 859 855 856
f 882 854 885
f 857 885 854
f 883 861 859
f 886 885 857
f 886 857 858
f 860 886 858
f 862 861 887
f 886 860 888
f 860 863 888
f 863 889 888
f 889 863 865
f 890 889 865
f 784 866 891
f 891 758 784
f 867 890 865
f 890 867 869
f 891 843 758
f 892 788 843
f 869 893 894
f 870 893 869
f 870 869 868
f 893 895 894
f 816 788 892
f 870 871 893
f 870 818 871
f 896 897 893
f 896 893 871
f 898 896 871
f 845 898 871
f 872 898 845
f 793 819 899
f 900 793 899
f 872 901 898
f 795 793 900
f 900 873 795
f 902 903 901
f 901 872 875
f 901 875 902
f 900 904 873
f 900 905 904
f 903 902 906
f 874 873 904
f 872 847 875
f 904 905 906
f 875 906 902
f 904 877 874
f 906 877 904
f 876 906 875
f 906 876 877
f 881 879 880
f 907 878 881
f 880 908 881
f 909 907 881
f 881 908 909
f 880 910 908
f 907 909 911
f 910 880 882
f 884 878 907
f 912 909 908
f 913 908 910
f 910 914 913
f 907 911 884
f 909 912 911
f 910 882 915
f 910 915 914
f 914 915 916
f 883 884 861
f 915 882 885
f 887 861 884
f 885 917 915
f 884 911 887
f 915 917 916
f 885 886 917
f 911 918 887
f 886 919 917
f 919 886 888
f 862 887 920
f 862 920 864
f 921 919 922
f 920 923 864
f 924 919 888
f 888 889 924
f 866 864 923
f 925 924 889
f 889 890 925
f 891 866 923
f 923 926 891
f 894 925 890
f 890 869 894
f 927 925 894
f 925 927 928
f 927 894 929
f 894 895 929
f 897 929 895
f 892 930 816
f 895 893 897
f 930 931 816
f 897 932 933
f 931 819 816
f 932 897 896
f 819 931 934
f 932 896 898
f 899 819 934
f 898 935 932
f 899 934 936
f 899 936 937
f 898 901 935
f 937 900 899
f 938 900 937
f 901 903 935
f 939 903 940
f 938 941 905
f 942 940 941
f 940 903 943
f 900 938 905
f 940 943 941
f 905 941 943
f 903 906 943
f 943 906 905
f 913 912 908
f 944 912 913
f 945 913 914
f 918 911 912
f 945 946 913
f 945 914 916
f 913 946 944
f 912 947 918
f 944 947 912
f 916 948 945
f 917 949 916
f 916 949 948
f 920 887 918
f 944 950 947
f 948 951 952
f 917 921 949
f 919 921 917
f 949 953 948
f 949 921 953
f 954 918 947
f 948 953 951
f 954 947 955
f 954 920 918
f 922 953 921
f 920 954 923
f 922 919 924
f 924 956 922
f 954 957 923
f 958 956 924
f 925 958 924
f 926 923 957
f 928 956 958
f 957 959 926
f 928 958 925
f 843 891 926
f 926 959 843
f 928 960 956
f 959 892 843
f 928 927 960
f 960 927 961
f 959 962 892
f 929 961 927
f 930 892 962
f 933 961 929
f 929 897 933
f 963 964 930
f 931 930 964
f 934 931 964
f 933 932 965
f 964 966 967
f 967 936 964
f 934 964 936
f 968 969 965
f 935 965 932
f 937 936 967
f 970 971 967
f 972 971 970
f 965 935 968
f 967 971 937
f 969 968 939
f 972 969 939
f 972 939 971
f 942 937 971
f 939 968 935
f 942 971 939
f 935 903 939
f 937 941 938
f 937 942 941
f 939 940 942
f 946 973 944
f 946 974 973
f 945 952 946
f 946 975 974
f 948 952 945
f 946 952 975
f 950 944 973
f 976 973 974
f 973 976 950
f 975 977 978
f 974 979 976
f 951 975 952
f 955 947 950
f 951 953 980
f 950 976 955
f 953 981 980
f 981 953 922
f 955 957 954
f 957 955 976
f 982 981 922
f 982 983 981
f 922 956 982
f 984 982 956
f 985 982 984
f 959 957 986
f 984 960 987
f 960 984 956
f 984 987 988
f 987 960 961
f 959 989 962
f 987 990 991
f 963 962 989
f 990 987 961
f 930 962 963
f 961 933 990
f 992 991 990
f 989 993 963
f 994 993 995
f 994 995 992
f 993 966 963
f 966 993 994
f 992 990 969
f 963 966 964
f 994 992 970
f 994 970 966
f 933 969 990
f 933 965 969
f 972 970 992
f 967 966 970
f 972 992 969
f 978 974 975
f 979 974 978
f 975 951 977
f 951 980 977
f 976 979 996
f 978 977 979
f 997 996 979
f 977 997 979
f 980 981 983
f 976 998 957
f 998 976 996
f 999 996 997
f 985 983 982
f 997 980 983
f 999 998 996
f 980 997 977
f 998 986 957
f 998 999 986
f 985 988 983
f 988 997 983
f 984 988 985
f 991 997 988
f 999 997 991
f 989 959 986
f 986 1000 989
f 1000 986 999
f 991 988 987
f 999 1001 1000
f 999 995 1001
f 989 1000 1001
f 991 1002 999
f 1002 995 999
f 989 1001 993
f 993 1001 995
f 991 992 1002
f 995 1002 992
