v 340.980621 -22.503265 -106.763550

v 341.958832 -24.817444 -108.185257

v 337.438568 -23.650351 -107.384407

v 346.767639 -31.541138 -108.119263

v 344.345306 -32.933014 -108.169037

v 348.678894 -39.221672 -108.946907

v 359.295288 -41.367065 -108.485962

v 362.508362 -45.023041 -108.385498

v 360.776001 -52.637611 -108.689568

v 372.324280 -66.432617 -109.025085

v 375.246338 -65.239655 -107.446777

v 370.258057 -72.099487 -107.285645

v 374.284180 -73.506409 -108.711166

v 379.977661 -75.925995 -106.706055

v 377.928528 -79.396332 -105.822281

v 328.502441 -14.310730 -97.904785

v 335.806702 -23.758696 -106.132179

v 328.904846 -22.313389 -104.521202

v 321.195251 -26.448608 -99.011414

v 325.132324 -21.506683 -102.537170

v 330.199738 -31.837280 -101.135071

v 351.056641 -25.348145 -100.976563

v 335.354736 -39.659973 -99.067749

v 362.229065 -32.668503 -97.658936

v 369.377563 -42.394772 -97.890747

v 347.596680 -48.887207 -102.386230

v 351.137695 -56.711182 -99.229980

v 359.178223 -66.438293 -99.464844

v 374.014496 -82.764526 -103.920959

v 383.587646 -82.742432 -104.196228

v 384.783966 -95.666931 -104.736588

v 380.696991 -99.678345 -100.692810

v 389.271240 -95.430908 -103.086182

v 388.734253 -100.442871 -101.177673

v 318.513184 -22.106842 -99.483948

v 317.783020 -18.137650 -97.832001

v 339.076782 -13.582214 -93.779053

v 351.867706 -21.232910 -97.603455

v 343.363770 -49.085815 -99.370850

v 377.408386 -54.191284 -97.547089

v 386.713257 -69.840332 -97.059204

v 386.207031 -73.287476 -97.405273

v 389.345398 -74.442139 -93.609314

v 393.020996 -102.941650 -99.079590

v 383.155304 -111.186356 -100.289001

v 392.906616 -124.132935 -100.607056

v 383.648041 -121.118408 -99.451660

v 384.061401 -128.083374 -96.451660

v 392.027710 -128.993042 -97.248322

v 396.081055 -123.993652 -98.500244

v 312.042358 -15.194595 -95.830688

v 313.807312 -11.457321 -96.470024

v 315.686218 -9.168221 -94.848801

v 325.917969 -35.703613 -91.334961

v 347.982513 -18.844177 -95.330750

v 364.814270 -16.618530 -93.886108

v 365.599792 -21.392822 -96.757080

v 372.472168 -31.413727 -96.854706

v 375.775879 -27.312012 -93.593140

v 391.290527 -50.897095 -96.632751

v 352.311523 -76.937195 -81.179688

v 400.494995 -63.662170 -96.346191

v 401.775269 -67.398926 -94.816040

v 368.033203 -98.401855 -87.224609

v 397.554321 -93.264404 -93.479370

v 398.625732 -127.097168 -95.410278

v 385.183899 -137.338287 -96.171844

v 396.895935 -130.600220 -96.323120

v 394.514038 -148.268250 -96.576385

v 385.246063 -152.240265 -96.404900

v 397.729492 -150.690674 -94.347412

v 393.885864 -160.186371 -95.485779

v 384.347809 -164.460663 -96.581223

v 379.324219 -156.409027 -92.173828

v 376.768921 -161.801514 -91.632568

v 382.440735 -177.755554 -95.910797

v 387.413422 -172.512207 -95.923645

v 383.743896 -181.439331 -95.079102

v 381.968658 -184.226685 -94.746735

v 307.049805 -7.203613 -87.901611

v 306.538940 -10.729492 -91.084229

v 302.286377 -18.529633 -86.352295

v 326.095337 -6.724419 -86.739975

v 340.624786 2.446095 -92.042007

v 335.634216 -9.662643 -92.411377

v 336.127899 1.102890 -90.000671

v 343.567902 1.228607 -93.171837

v 349.038422 3.610046 -90.827148

v 357.881592 -2.281403 -92.379242

v 315.546326 -30.195618 -86.902588

v 347.828339 -15.501923 -93.504456

v 366.597382 -8.321503 -91.898804

v 373.511719 -16.515594 -91.633179

v 328.755493 -46.599854 -84.293457

v 383.717041 -26.777893 -91.965637

v 394.747253 -41.658203 -91.516357

v 402.044922 -56.845215 -91.547852

v 360.307617 -88.812500 -82.813477

v 403.618896 -72.168945 -92.270630

v 412.656250 -67.597412 -85.569092

v 406.812256 -82.442932 -92.702271

v 400.532593 -90.160294 -92.447449

v 411.584473 -85.040771 -90.121643

v 406.083252 -90.290283 -89.236145

v 399.311523 -96.612610 -90.461914

v 375.839844 -118.937126 -88.340820

v 401.832703 -104.948120 -85.776733

v 402.785522 -116.364624 -85.885254

v 374.728638 -177.887436 -92.044739

v 385.048584 -185.078125 -91.670410

v 381.933838 -185.846313 -93.047668

v 368.724548 -194.085144 -92.092422

v 392.428619 -185.439941 -81.447998

v 377.324066 -197.056030 -92.446320

v 380.792969 -195.791138 -91.174927

v 362.305542 -203.850677 -91.866150

v 369.046143 -211.743530 -92.206299

v 375.146729 -206.327637 -90.143066

v 356.607483 -213.734909 -92.071121

v 355.738617 -223.894409 -92.406769

v 347.012817 -226.060303 -91.761414

v 347.548492 -231.740112 -92.071259

v 341.778137 -229.945435 -89.165131

v 338.877655 5.833008 -87.806946

v 327.642212 4.051025 -86.997375

v 329.180054 -2.108032 -87.532227

v 300.418945 -12.595581 -86.163574

v 331.306763 -5.762054 -88.549896

v 357.706696 2.611328 -84.399414

v 334.620117 -60.023651 -76.869141

v 390.271973 -29.273438 -86.822266

v 416.479736 -76.944092 -86.516602

v 421.465729 -89.968475 -87.714844

v 403.084595 -99.166260 -88.439270

v 421.250732 -95.661377 -87.997498

v 410.896912 -100.316864 -88.577515

v 416.559479 -105.786133 -88.455872

v 409.099609 -104.770950 -85.376198

v 366.988281 -134.986938 -75.512695

v 404.848572 -123.725708 -82.037842

v 371.732422 -152.520020 -82.369141

v 403.991089 -133.891113 -82.919189

v 403.828613 -153.709839 -82.575684

v 364.530762 -169.978271 -77.985840

v 401.358521 -165.730499 -81.224091

v 364.830078 -184.979004 -83.478516

v 396.320068 -172.840073 -81.451416

v 391.228271 -188.925781 -81.914551

v 349.077637 -215.144043 -86.937988

v 338.145996 -225.370483 -86.602051

v 326.232422 -240.702774 -88.376404

v 341.790192 -236.281128 -88.291382

v 367.855713 -223.956543 -86.640625

v 331.298523 -244.181763 -88.258423

v 352.159546 -237.970215 -85.181641

v 328.257568 -248.359375 -86.173340

v 322.864624 -245.715424 -86.425293

v 321.805298 6.882874 -83.411255

v 328.756714 11.708252 -82.908691

v 296.229614 -5.587524 -79.266846

v 316.256042 -3.705002 -78.825027

v 325.000977 -4.289505 -83.323105

v 344.095215 12.103516 -76.102051

v 312.894531 -35.957153 -83.079651

v 374.473633 -8.849609 -78.987305

v 388.558716 -21.320801 -78.450195

v 403.125000 -44.560547 -82.835938

v 417.273499 -111.130432 -85.724426

v 407.098511 -116.810974 -84.526672

v 405.209595 -118.664795 -83.183838

v 427.474121 -105.490234 -80.945313

v 424.505371 -113.505310 -82.034668

v 420.893616 -118.498779 -84.496399

v 406.755280 -121.818481 -82.332169

v 416.265137 -126.517212 -84.729126

v 412.801361 -131.102448 -81.139633

v 423.259399 -128.043579 -81.180603

v 352.386719 -202.876770 -79.699219

v 382.560059 -205.378906 -78.550537

v 326.043945 -226.994263 -77.784180

v 319.871094 -231.367432 -77.695313

v 317.336670 -241.648026 -81.349426

v 314.662506 -249.435135 -81.040833

v 319.379395 -253.445679 -82.288696

v 378.196167 -220.667984 -77.162262

v 373.143433 -227.193451 -77.116516

v 362.223999 -237.361694 -77.073853

v 316.900635 7.706177 -78.523682

v 315.153564 12.292480 -76.587891

v 323.408569 18.867065 -73.222717

v 299.607178 -0.823485 -75.318291

v 314.668732 -1.639229 -75.331848

v 320.812134 -2.106644 -79.839905

v 299.602051 -24.527588 -76.386719

v 341.303711 -72.736084 -73.683594

v 354.283203 -91.766602 -75.986328

v 420.242432 -72.421875 -77.673828

v 363.107422 -109.443298 -74.071289

v 429.240234 -99.500000 -75.369141

v 363.537109 -144.535156 -70.316406

v 431.559204 -112.465088 -78.217163

v 432.444763 -125.164703 -79.364014

v 406.596252 -134.672363 -80.996490

v 429.954285 -134.378418 -80.262573

v 406.602905 -148.292236 -80.974915

v 427.298981 -147.969330 -80.266724

v 405.621277 -158.878464 -80.816254

v 357.598145 -188.670151 -77.726563

v 423.314087 -161.975220 -80.028381

v 410.119995 -177.068298 -80.476715

v 332.028320 -207.878906 -60.247070

v 420.100098 -176.972046 -76.537476

v 400.257965 -188.140137 -76.893250

v 413.695557 -181.580322 -77.117493

v 386.172791 -204.198059 -76.771057

v 310.308960 -240.587952 -79.662537

v 303.577026 -252.879303 -80.543884

v 314.890137 -256.442017 -80.098450

v 304.352783 -262.351074 -76.464478

v 333.858063 -257.022095 -76.880463

v 354.280273 -245.617462 -76.928619

v 307.941406 9.818298 -72.874023

v 292.781982 1.128662 -66.216797

v 290.232666 -9.587585 -73.345947

v 329.796326 17.667175 -74.758545

v 291.340454 -21.722282 -71.376587

v 361.496582 2.739563 -68.136780

v 389.947876 -20.145081 -69.563721

v 319.150391 -49.962463 -69.911133

v 401.331543 -33.350098 -69.799316

v 409.449707 -45.898422 -73.294922

v 435.341064 -136.340332 -74.250977

v 428.458008 -162.572174 -74.385010

v 325.762695 -217.468262 -63.408203

v 424.887634 -173.738159 -73.316406

v 302.393066 -243.174896 -75.540039

v 298.852081 -250.203720 -77.048172

v 289.179688 -250.780212 -74.564697

v 291.902405 -252.630920 -76.457832

v 281.894379 -259.667908 -76.192871

v 290.320587 -264.391846 -76.185699

v 420.238312 -186.873901 -75.581909

v 283.348755 -263.586914 -75.654907

v 414.055359 -197.575623 -76.079468

v 318.521667 -263.233398 -75.991699

v 408.979095 -212.495972 -76.184601

v 311.644836 -269.186035 -70.539734

v 330.958740 -271.329926 -76.182587

v 386.671997 -241.102982 -76.097809

v 400.741211 -225.328857 -76.207642

v 320.286285 -268.470520 -73.605835

v 403.029541 -226.488525 -74.372314

v 373.030640 -252.722961 -76.075806

v 345.746826 -270.729980 -76.088135

v 329.514648 -276.108887 -72.315186

v 360.878052 -258.616760 -76.484222

v 357.131836 -265.777405 -75.453735

v 312.193359 20.472656 -66.939209

v 305.649323 3.530121 -72.646164

v 287.339355 -15.589966 -71.608765

v 299.075195 -31.509766 -65.972656

v 303.422852 -40.458008 -61.333008

v 329.706055 -63.673096 -70.614258

v 418.985992 -61.275146 -66.311035

v 361.585449 -131.837891 -66.789063

v 436.526062 -107.729248 -59.202148

v 354.546875 -163.302612 -57.822266

v 350.701172 -181.233032 -61.005859

v 347.365234 -197.417969 -67.453125

v 436.099121 -144.884644 -67.711914

v 298.890137 -234.148193 -59.476563

v 310.059814 -227.568359 -61.489258

v 277.441406 -254.172852 -67.939453

v 274.281158 -264.165222 -69.878357

v 277.385742 -270.366699 -68.670410

v 292.754761 -269.690430 -69.720215

v 418.146240 -207.206940 -63.980469

v 413.465820 -218.111816 -67.323242

v 318.648926 -277.040710 -71.460938

v 389.232422 -246.026367 -70.681641

v 343.471680 -277.171875 -69.027344

v 372.898438 -261.530273 -69.801270

v 357.875977 -271.375977 -68.930664

v 299.529419 18.639771 -60.077759

v 299.679932 4.448486 -67.694580

v 284.183838 -10.308838 -66.069824

v 282.772217 -16.561523 -63.747559

v 335.808075 18.686218 -59.149841

v 337.197021 -79.124512 -62.767578

v 343.662109 -91.984863 -62.124268

v 422.618469 -67.104584 -51.953674

v 430.969849 -87.702637 -58.695801

v 439.833771 -128.759140 -52.833313

v 283.704102 -246.783203 -62.625000

v 269.434570 -257.319092 -65.583496

v 263.541718 -264.231903 -65.699966

v 267.692322 -264.650482 -68.028900

v 270.157104 -271.745728 -66.754028

v 425.418213 -194.289063 -58.687500

v 306.207947 -276.279785 -67.262329

v 294.187866 -276.985107 -64.036621

v 406.390137 -231.769531 -61.344727

v 331.950684 -284.259277 -63.885254

v 318.672852 -285.092041 -63.210449

v 384.839478 -254.336914 -66.418945

v 372.642334 -265.888184 -63.772461

v 318.434937 23.194000 -61.095337

v 282.855927 -23.848267 -57.442139

v 357.598145 4.154541 -55.901855

v 314.615234 -58.669434 -56.460938

v 326.850098 -74.044464 -56.770020

v 404.784668 -37.108643 -50.636475

v 412.875641 -46.595982 -56.038742

v 349.684692 -105.640625 -61.771729

v 349.488831 -115.941406 -58.194458

v 353.696655 -134.941956 -57.898865

v 343.656738 -192.196289 -58.974609

v 315.939453 -220.545898 -58.531250

v 431.967834 -165.047241 -50.813843

v 259.036743 -258.802368 -63.245361

v 254.146027 -264.248077 -63.957886

v 256.246613 -268.969147 -63.705078

v 268.816711 -273.788818 -63.879761

v 278.693726 -279.404175 -55.832031

v 289.389221 -274.422363 -62.675537

v 301.439941 -282.288574 -63.171387

v 327.329590 -286.739746 -60.439941

v 396.644043 -243.368652 -60.832031

v 377.693359 -264.167633 -58.572266

v 355.809814 -277.893433 -55.853516

v 307.127869 23.763691 -54.568443

v 301.717224 21.691971 -58.268921

v 291.155640 7.790039 -56.674805

v 285.667969 -0.948364 -50.800781

v 278.798828 -16.454834 -52.430664

v 278.993164 -22.238647 -54.792480

v 289.209229 -29.474594 -55.095001

v 366.206543 -3.071808 -57.340820

v 389.290527 -20.072754 -54.747314

v 303.409668 -47.320801 -54.918945

v 339.274414 -103.394775 -56.094238

v 352.321655 -149.438599 -56.327637

v 350.258057 -164.387085 -54.175537

v 438.524780 -140.971191 -51.301514

v 320.965942 -204.842728 -49.599792

v 248.975586 -256.668945 -56.328613

v 267.792969 -249.885742 -56.492188

v 245.173950 -263.564026 -57.860107

v 284.980469 -238.581116 -54.833984

v 303.130859 -222.653320 -52.652344

v 249.625092 -268.927460 -58.623688

v 256.245728 -275.203613 -52.756836

v 287.711243 -277.506897 -58.543152

v 290.755737 -287.364197 -55.691650

v 293.890015 -291.535034 -51.106689

v 388.346741 -255.655029 -53.829102

v 292.763611 -35.170654 -54.394897

v 295.268494 -42.595093 -51.349121

v 370.448730 -11.408203 -49.076172

v 332.664063 -88.951172 -54.954102

v 346.124695 -130.059357 -56.045349

v 342.826172 -143.308105 -51.394043

v 345.871826 -175.365234 -53.723755

v 340.783691 -186.062347 -53.680664

v 333.801270 -190.307434 -51.996826

v 310.134735 -215.974365 -49.839600

v 238.511353 -261.675140 -55.002258

v 289.249573 -228.840820 -50.171875

v 241.440674 -266.970856 -54.703430

v 413.235931 -226.269669 -48.072998

v 305.769531 -292.608887 -47.864258

v 396.585175 -246.914368 -43.675537

v 340.863403 -285.902679 -43.675049

v 379.767395 -264.837036 -47.349854

v 293.146240 17.652954 -48.585449

v 316.272125 23.907463 -41.627319

v 280.078186 -6.349487 -37.637695

v 336.158203 16.756104 -47.826172

v 345.051758 9.481689 -46.376953

v 282.154663 -30.763565 -51.496399

v 288.576538 -36.095623 -51.168159

v 304.799316 -58.485718 -45.321045

v 381.281616 -17.857178 -47.780273

v 389.750854 -24.925049 -45.801270

v 319.947266 -75.189697 -47.231445

v 333.489990 -112.045898 -48.597168

v 339.031982 -123.628311 -49.497070

v 429.958862 -85.424316 -41.794189

v 343.711670 -165.786316 -50.573364

v 337.547852 -149.753815 -46.234863

v 433.750610 -98.788330 -38.337891

v 341.538330 -172.661865 -51.864136

v 329.551758 -183.492676 -46.140625

v 328.037598 -191.586304 -48.765808

v 234.941406 -256.908691 -49.634277

v 245.903442 -251.180298 -49.925171

v 233.969299 -262.630585 -49.380493

v 271.046265 -239.683105 -49.350098

v 237.961365 -268.018311 -48.489746

v 266.836914 -281.878662 -47.228516

v 428.088776 -192.082001 -41.594604

v 276.892944 -291.100708 -42.206787

v 419.792603 -211.183105 -36.768555

v 325.001221 -290.570374 -42.987793

v 360.177673 -277.191345 -47.270996

v 302.917511 22.957321 -42.619568

v 283.302979 7.247101 -39.960205

v 274.905029 -24.299316 -40.502930

v 276.516296 -29.167793 -47.391541

v 281.722656 -34.331741 -43.421417

v 294.273560 -45.635925 -43.616211

v 288.770752 -39.628754 -43.916138

v 353.905884 -3.523438 -40.324219

v 323.430664 -95.566406 -41.947266

v 407.798279 -43.007568 -42.509033

v 324.780518 -100.846680 -41.176270

v 337.530396 -161.728790 -48.043762

v 333.819336 -174.239014 -46.998535

v 312.275879 -197.803833 -44.963867

v 323.717285 -185.113770 -44.234863

v 310.135376 -205.511185 -48.211609

v 251.193848 -238.784058 -45.155884

v 233.375488 -249.358765 -45.604858

v 302.298218 -213.626221 -47.446289

v 289.402100 -220.844604 -46.052734

v 275.537842 -227.983032 -46.455811

v 229.679840 -256.315918 -45.618439

v 256.190369 -277.638916 -46.257813

v 270.530945 -289.550476 -41.836670

v 326.755432 18.373291 -35.965820

v 275.536896 -31.359062 -43.455383

v 363.458862 -15.039063 -36.533203

v 299.278320 -56.101318 -41.067871

v 382.499268 -24.335693 -42.145508

v 310.159180 -71.994141 -42.604492

v 315.133301 -81.703613 -40.763184

v 392.432495 -29.974854 -42.498047

v 421.045410 -70.653442 -38.375977

v 328.046875 -116.139160 -42.013306

v 328.043579 -133.663269 -41.910278

v 330.182678 -156.459106 -41.422546

v 329.686279 -166.214111 -41.329651

v 436.572266 -115.134766 -38.399902

v 321.811279 -180.736191 -41.363403

v 223.665710 -251.194290 -43.819031

v 224.179321 -243.994324 -41.692200

v 229.686035 -244.531494 -44.246155

v 313.810547 -190.343750 -42.966797

v 303.227539 -201.142578 -42.209961

v 241.323303 -235.339172 -41.317322

v 284.967896 -216.569702 -43.292114

v 274.183777 -214.138184 -38.035645

v 264.858093 -235.744263 -45.468445

v 261.658813 -228.094727 -42.553467

v 228.131653 -260.350586 -42.910393

v 438.239624 -131.071411 -36.903320

v 291.203857 -294.183167 -39.651855

v 409.084717 -230.352783 -34.492188

v 288.183105 13.632233 -36.894653

v 341.339844 5.962891 -33.704102

v 274.382141 -32.569366 -41.025330

v 273.990204 -38.814156 -39.240097

v 288.274353 -44.751465 -40.322998

v 300.343140 -64.092865 -34.049927

v 411.037415 -60.590332 -31.707520

v 323.051758 -123.899048 -39.925171

v 323.533691 -138.094482 -40.198669

v 321.981323 -151.959290 -40.421051

v 321.695740 -169.945160 -40.249207

v 312.218506 -182.208191 -37.797180

v 297.648560 -198.488220 -37.555725

v 234.483643 -230.832092 -40.256866

v 251.055176 -220.421265 -37.519775

v 254.150513 -223.270081 -40.136719

v 225.199951 -236.669189 -39.902466

v 216.395264 -246.468109 -39.248169

v 253.693497 -231.756104 -41.302582

v 286.376770 -207.169006 -37.477844

v 218.700516 -254.299759 -36.580887

v 431.959595 -153.464844 -31.921875

v 272.467529 -291.959229 -37.076172

v 307.747437 -293.971008 -32.072266

v 385.386719 -258.283691 -35.244141

v 359.298096 -277.177979 -33.820313

v 294.855957 15.925293 -30.728516

v 308.866882 19.714600 -31.492981

v 272.408630 -38.485229 -33.962158

v 348.591797 -6.877441 -26.902344

v 274.250671 -41.308319 -36.580444

v 281.678345 -47.759605 -33.829514

v 275.154480 -45.315712 -33.456100

v 309.171265 -79.767426 -34.495972

v 391.103516 -39.411987 -31.041016

v 375.699219 -30.191406 -26.585938

v 314.095459 -96.779297 -34.046387

v 317.358887 -111.337891 -33.849365

v 404.694061 -51.601563 -30.727295

v 315.652344 -131.148193 -32.129883

v 423.462402 -92.431885 -24.917969

v 309.988770 -151.863770 -31.514648

v 313.928101 -165.455170 -35.987549

v 318.093384 -168.661804 -37.522644

v 304.705383 -182.080078 -36.032349

v 214.397888 -237.342651 -34.597290

v 228.971436 -226.443848 -34.166016

v 237.841064 -219.430664 -33.198242

v 292.525879 -193.306351 -36.193542

v 253.061523 -214.569824 -35.919800

v 275.571411 -207.398071 -35.711304

v 213.402252 -244.272247 -34.862000

v 284.491333 -202.294586 -36.125061

v 246.063858 -280.774414 -20.261597

v 257.056641 -285.062988 -31.076172

v 421.934814 -201.979004 -25.625000

v 331.790283 -287.004028 -22.338379

v 285.750427 7.642334 -24.535889

v 280.108948 -2.587402 -26.050293

v 319.889160 12.982422 -24.490234

v 273.360474 -28.024780 -26.544434

v 272.420044 -44.065811 -30.850891

v 272.748474 -53.676636 -30.195313

v 276.577301 -56.108505 -32.377274

v 286.801666 -61.024967 -32.875015

v 285.805969 -65.408012 -29.752892

v 299.519348 -74.733643 -32.578735

v 364.032104 -22.379150 -25.189941

v 307.734375 -89.418457 -32.310913

v 301.088470 -84.101563 -29.690460

v 305.440430 -96.539795 -29.059570

v 309.942261 -103.563507 -32.088135

v 307.532959 -126.792969 -25.546631

v 304.300537 -162.234558 -28.711914

v 304.212158 -171.872955 -29.597046

v 296.829468 -181.277710 -29.887085

v 233.577454 -213.539551 -27.621094

v 214.619751 -227.552246 -29.800537

v 212.336304 -233.124329 -31.246338

v 258.658020 -207.236328 -31.672852

v 250.917603 -205.332031 -26.176758

v 211.066925 -234.226807 -29.277588

v 282.624512 -192.426270 -30.838867

v 268.938721 -201.349121 -31.535034

v 211.598221 -242.795959 -25.585754

v 427.203125 -178.728729 -19.795898

v 282.215088 -294.238525 -23.940918

v 415.089355 -213.234131 -21.632813

v 390.466064 -249.457520 -24.875000

v 375.708008 -263.410400 -24.182617

v 331.865997 5.601563 -23.964844

v 271.226746 -59.936310 -27.619568

v 273.089783 -65.812988 -27.573380

v 280.379120 -68.225021 -28.713470

v 279.976318 -74.907043 -25.457825

v 298.475342 -87.503159 -28.670242

v 294.476288 -89.127373 -25.794617

v 303.510773 -102.497009 -25.518921

v 391.252930 -47.079102 -26.261719

v 401.884766 -58.945313 -26.253418

v 306.004517 -112.458801 -25.613098

v 308.934570 -138.831421 -26.121338

v 406.818359 -73.932739 -19.456543

v 300.982605 -150.631073 -21.544250

v 295.725281 -171.038696 -28.174744

v 214.544739 -220.319092 -27.515930

v 211.048859 -226.300201 -26.873657

v 288.509155 -181.953003 -28.039368

v 265.038086 -197.909180 -26.857422

v 267.742798 -190.261719 -21.592834

v 429.399414 -111.494141 -25.107422

v 429.102539 -145.122070 -20.286621

v 266.845215 -290.371582 -20.313477

v 401.798096 -235.133545 -23.737305

v 359.735352 -273.037903 -21.387695

v 298.946930 9.592529 -19.484192

v 318.396790 6.438721 -16.234070

v 338.269104 -2.902100 -19.284180

v 269.611511 -56.924561 -22.097412

v 270.840454 -67.073120 -25.018677

v 350.122070 -13.485596 -18.505859

v 270.721039 -75.181290 -23.429428

v 277.578247 -82.001083 -21.555031

v 288.079315 -89.907471 -24.791550

v 289.335571 -101.497314 -21.644165

v 300.816101 -112.584259 -24.671051

v 393.893066 -57.429688 -19.445313

v 298.760376 -119.403503 -21.527130

v 301.414795 -132.373184 -21.765442

v 419.520813 -99.911377 -18.023315

v 297.175659 -159.554367 -21.639038

v 289.755371 -168.278671 -21.665283

v 212.624573 -216.929565 -21.674072

v 217.308350 -211.477051 -22.186523

v 230.177826 -203.365723 -21.139038

v 284.761658 -176.490356 -21.757385

v 210.106735 -223.834061 -19.699463

v 248.632309 -198.564270 -21.518066

v 209.793686 -232.509796 -17.469360

v 426.858398 -136.975098 -18.206543

v 218.927368 -254.544830 -17.995728

v 234.436615 -272.152252 -7.808685

v 408.525391 -217.955811 -16.162109

v 311.798096 -289.058350 -16.489258

v 294.273865 3.203125 -15.191162

v 283.849609 -0.367676 -18.381836

v 278.539825 -14.697632 -12.057861

v 274.836487 -31.591553 -9.790771

v 339.787109 -11.038086 -12.239258

v 268.263916 -73.060059 -17.538086

v 355.452148 -27.905762 -11.636719

v 269.566895 -77.983948 -20.480560

v 366.863281 -32.868591 -16.800781

v 270.222046 -90.033882 -20.835526

v 267.727844 -89.088730 -19.163910

v 268.296722 -94.265579 -17.473953

v 369.215820 -39.996613 -13.427734

v 282.937927 -101.523224 -20.709198

v 274.773560 -99.116585 -17.470901

v 384.374023 -52.560791 -16.403320

v 294.207947 -119.086121 -20.403931

v 395.238281 -66.475586 -16.392578

v 295.324097 -138.396301 -20.613678

v 290.709320 -137.739410 -17.367126

v 289.672607 -120.535530 -17.258736

v 289.818970 -161.931641 -20.487122

v 245.890991 -181.392487 -13.645355

v 258.238586 -187.924927 -20.465118

v 247.596695 -191.614990 -20.403076

v 220.322006 -205.634277 -19.251465

v 224.159058 -197.830322 -15.327881

v 275.060547 -177.052216 -20.381165

v 271.080109 -174.619537 -17.315918

v 257.925537 -183.196411 -17.542358

v 425.141113 -121.225952 -17.891602

v 250.508820 -282.769836 -8.478699

v 419.235840 -192.761719 -14.530762

v 285.806152 -291.158691 -14.990723

v 364.838013 -261.345703 -10.640625

v 348.695801 -274.104492 -13.707031

v 330.369629 -284.041016 -15.359375

v 282.982666 -9.567383 -9.623047

v 327.573242 -4.249023 -11.406738

v 269.675751 -55.154541 -8.007813

v 265.320648 -91.776306 -14.293579

v 264.831543 -103.567078 -16.350189

v 264.071960 -113.991264 -16.960632

v 260.664032 -115.774261 -15.040192

v 376.042236 -59.069336 -8.878418

v 275.228149 -131.033936 -16.676880

v 278.931091 -146.393494 -16.768738

v 272.894165 -140.181519 -13.253998

v 285.620514 -159.357056 -17.269043

v 273.120728 -160.397949 -16.716339

v 269.469604 -156.958099 -13.339951

v 257.878845 -177.592163 -16.579712

v 402.589844 -95.861206 -9.907227

v 413.930664 -102.847656 -16.117920

v 227.436768 -189.696411 -11.978882

v 219.771790 -203.423462 -15.708252

v 216.458313 -208.589111 -14.864258

v 211.100586 -223.089355 -11.420410

v 418.498047 -120.900391 -15.996948

v 214.505127 -239.895935 -11.245850

v 224.192123 -261.107788 -4.538551

v 420.302002 -160.508789 -9.935791

v 424.244873 -176.871704 -14.480469

v 406.167969 -211.269531 -9.449219

v 280.503906 -285.962891 -8.042969

v 393.210938 -228.683105 -7.137695

v 374.289429 -249.918945 -6.553467

v 293.665771 -1.968018 -10.841675

v 314.155121 -0.742249 -11.686035

v 342.248444 -18.399414 -6.387939

v 267.145508 -73.936523 6.123535

v 262.901855 -96.568848 -5.623047

v 258.095032 -117.579346 -10.269775

v 260.988098 -118.483849 -13.317505

v 257.083862 -125.723297 -12.259216

v 264.682678 -122.860146 -13.366081

v 253.074005 -141.272018 -12.833069

v 252.250000 -134.468948 -10.402466

v 251.241364 -138.157440 -11.166931

v 391.753418 -75.697113 -10.088135

v 252.418304 -149.924591 -12.686569

v 246.470215 -163.031204 -12.716949

v 231.168030 -180.413147 -10.835266

v 236.504135 -173.989227 -12.440521

v 233.539856 -181.911057 -12.715240

v 254.569702 -174.597046 -13.347565

v 221.654541 -197.856445 -9.855194

v 215.828613 -210.555664 -6.890381

v 409.693115 -112.032227 -9.998535

v 418.896240 -140.634521 -9.853516

v 416.859375 -176.422607 -8.968750

v 310.696289 -278.299316 -4.357422

v 325.247925 -277.875977 -6.231445

v 282.134888 -14.613525 -6.724121

v 298.988434 -10.083435 -5.436310

v 280.302856 -21.869873 -5.022217

v 312.341888 -7.474487 -6.370689

v 327.571228 -11.053467 -6.526489

v 351.015137 -29.953125 -6.031250

v 362.791504 -47.763672 -4.057617

v 252.598679 -127.720886 -0.255371

v 246.816406 -144.865341 -7.072021

v 385.068115 -75.994629 -7.487061

v 241.989136 -155.435059 -7.119446

v 238.503418 -161.551453 -7.163452

v 235.305359 -165.738129 -5.830566

v 393.467773 -89.318893 -7.857178

v 226.527023 -186.757050 -5.717529

v 402.827759 -106.555420 -7.900513

v 409.580688 -129.375732 -7.811401

v 215.335205 -227.741699 0.409180

v 414.929199 -144.582977 -7.768066

v 415.430664 -160.745361 -7.460205

v 407.661987 -190.218445 -1.633179

v 257.469849 -279.871948 0.055176

v 404.952271 -198.853271 -1.468262

v 353.838379 -263.895386 -5.934570

v 343.746826 -268.332275 -5.669922

v 293.566071 -14.209717 -3.227173

v 317.672241 -12.517761 -4.396271

v 275.790833 -37.429688 1.904297

v 335.544678 -20.244263 -4.335571

v 272.396027 -50.721680 4.083496

v 342.852295 -32.188232 1.432739

v 245.888931 -143.291931 -0.938171

v 371.314453 -64.959717 0.550781

v 240.816589 -154.738800 -2.071716

v 237.383041 -160.968750 -1.933594

v 229.115234 -182.741455 0.543213

v 383.924805 -89.220947 -0.017090

v 222.471680 -198.125824 -2.281006

v 394.131348 -101.277222 -2.222656

v 401.249512 -122.066895 -2.027100

v 409.000000 -145.372009 -1.857300

v 220.356506 -251.708862 4.558472

v 218.909058 -242.096985 11.212830

v 410.672852 -159.603134 -1.964111

v 409.550171 -172.546631 -1.498657

v 236.835693 -270.753662 -0.741455

v 264.037109 -277.472168 3.343750

v 390.971436 -218.419678 -1.311279

v 291.334961 -272.203735 6.181274

v 381.008789 -228.702271 -0.170898

v 371.496094 -244.466797 -2.437500

v 330.397949 -271.136230 -3.615234

v 350.715088 -258.978760 -3.373047

v 309.898285 -20.649326 6.163620

v 284.303467 -28.462891 6.483398

v 318.795410 -19.125732 2.258789

v 264.168030 -87.664551 13.372070

v 346.189453 -41.434692 3.345947

v 360.507813 -59.058319 5.694458

v 368.705566 -76.295532 6.605713

v 383.690918 -106.825562 5.393799

v 219.895020 -213.127441 1.845215

v 392.802979 -118.455566 2.507385

v 403.712158 -144.157959 0.089478

v 400.063110 -146.714188 2.823730

v 405.081055 -166.545380 -0.105835

v 401.542969 -166.413391 2.578247

v 226.193176 -257.737762 7.677185

v 402.175415 -188.923340 -0.215881

v 246.611328 -272.207031 3.246582

v 395.056763 -200.102661 0.055054

v 387.515320 -212.096802 0.031311

v 278.501221 -272.972656 7.420898

v 375.223633 -232.636719 2.365234

v 365.007813 -243.470703 0.810547

v 330.557373 -264.588257 2.129272

v 306.841431 -268.401520 6.841614

v 348.773193 -253.030273 2.631348

v 288.814697 -29.340790 9.460114

v 295.327393 -25.508057 6.522217

v 331.336060 -35.912567 6.738922

v 332.675079 -31.817627 3.745972

v 349.766602 -49.390869 6.717529

v 260.735840 -103.874954 11.980957

v 372.615723 -92.902832 7.373535

v 387.686157 -118.922852 3.720581

v 382.927002 -120.503998 7.087524

v 391.729980 -139.687988 3.505920

v 386.653076 -147.794098 7.653076

v 395.568359 -154.125519 3.714539

v 396.872314 -169.011688 3.924561

v 392.218384 -158.589844 6.708374

v 234.411774 -261.902466 9.718262

v 398.664551 -187.190262 2.512695

v 392.250488 -174.695923 6.843262

v 393.222900 -189.840393 4.147217

v 387.141602 -198.494125 6.766418

v 267.618927 -271.703857 9.638672

v 376.309357 -218.941284 6.927734

v 370.098694 -228.778503 7.005371

v 334.712708 -250.378296 7.000488

v 323.895996 -259.022949 6.475830

v 335.807373 -254.437256 4.234741

v 354.371094 -243.117126 7.085419

v 283.702820 -33.789612 9.795441

v 274.401733 -52.131592 9.533081

v 308.805573 -27.718674 7.119408

v 307.512207 -31.399536 9.942719

v 315.810486 -36.488220 10.933746

v 339.272461 -43.570068 9.565674

v 353.687012 -61.055664 7.747192

v 352.666748 -73.947510 14.347168

v 247.629456 -146.072754 20.372070

v 363.420898 -80.373779 10.022705

v 236.702026 -176.855164 26.354980

v 228.885315 -192.441406 9.955078

v 378.328979 -124.070160 10.542419

v 220.252930 -229.470215 17.873291

v 385.569214 -166.371094 7.600159

v 382.640747 -150.059937 10.610413

v 385.476807 -183.319458 7.950684

v 251.006653 -263.681274 10.910583

v 381.117920 -185.886993 10.896484

v 382.001526 -196.232727 7.696899

v 371.148560 -212.977615 7.744141

v 370.721436 -205.788422 10.831665

v 263.310638 -270.862000 10.242767

v 362.351929 -221.462219 7.638000

v 357.687378 -216.536011 11.869629

v 293.255005 -263.911865 7.923645

v 342.987915 -235.500061 7.744080

v 325.021973 -243.659668 12.085205

v 314.969238 -257.358795 7.666870

v 329.001160 -248.666138 7.737274

v 313.077148 -253.855225 10.358765

v 293.870850 -35.393768 11.246780

v 286.628296 -42.378357 12.694641

v 295.865753 -38.997467 13.980103

v 284.044678 -51.339844 14.826416

v 272.515320 -67.946777 15.619385

v 269.070068 -79.193359 20.589844

v 321.777283 -41.093872 13.853058

v 336.147522 -49.580017 14.194946

v 343.685791 -56.774902 13.606445

v 254.436768 -123.958862 17.041016

v 362.727051 -95.663147 13.965637

v 368.841858 -97.828247 10.808350

v 362.464600 -105.589844 15.067871

v 369.864258 -116.865082 11.505066

v 223.636292 -217.130508 24.887268

v 375.546753 -136.172623 11.678467

v 376.450317 -152.190918 11.775696

v 222.288437 -242.635498 14.569241

v 376.447021 -170.754456 11.727875

v 236.174835 -255.748352 14.743744

v 381.082153 -171.932495 10.733948

v 372.299561 -186.066406 11.784943

v 366.066162 -200.968628 12.257935

v 272.618042 -266.138672 11.811523

v 259.223328 -258.798767 14.663269

v 345.014648 -227.324219 12.169922

v 287.355469 -257.653320 15.819946

v 279.297485 -262.556030 14.594543

v 333.540527 -236.686523 12.555664

v 310.083618 -248.789795 12.488281

v 302.505341 -41.726089 15.484589

v 321.101318 -45.978455 15.351959

v 303.860413 -45.529213 18.246914

v 338.477966 -64.624146 18.495804

v 319.398468 -49.935730 18.376877

v 262.673096 -103.338135 24.352783

v 338.944580 -59.890015 15.564026

v 345.595703 -73.918610 17.761536

v 255.042969 -128.241211 25.964111

v 353.109436 -90.156372 15.356415

v 349.193237 -92.527832 18.458374

v 232.661865 -192.395279 28.292908

v 361.050568 -114.610535 18.562134

v 365.481445 -129.941132 18.185303

v 226.190674 -211.073730 24.217285

v 231.167877 -199.314438 28.510010

v 369.465820 -152.496826 18.386475

v 222.832336 -233.423035 19.233887

v 369.441406 -165.360352 18.554932

v 369.122070 -177.116211 18.003418

v 238.029144 -249.284790 15.851639

v 362.572998 -185.245178 22.408142

v 262.279358 -252.417236 15.773315

v 351.919800 -205.042480 22.022949

v 340.277344 -224.628418 18.156738

v 298.032654 -245.697510 22.385864

v 318.685059 -236.730713 21.369141

v 292.877747 -53.017212 18.915833

v 312.353424 -55.142273 19.155563

v 288.616241 -63.881271 22.842445

v 279.653137 -67.994141 21.989258

v 297.960510 -57.458092 22.372856

v 265.574951 -91.618927 24.407715

v 341.129578 -78.457489 19.260437

v 336.837036 -80.822998 22.561737

v 346.307495 -98.303650 19.477478

v 352.695923 -113.194656 19.331451

v 343.245117 -106.094360 22.836365

v 360.761475 -128.979980 19.640137

v 358.653809 -143.730957 23.447510

v 240.036987 -240.372803 20.309692

v 363.407593 -163.541504 22.581543

v 256.072327 -247.501465 19.648926

v 358.949890 -192.917908 22.711304

v 270.090759 -245.611328 23.142212

v 281.645996 -249.128906 22.628174

v 336.584229 -218.842636 23.127441

v 331.440430 -228.218323 22.165527

v 290.388611 -69.578583 26.074203

v 310.483704 -59.565887 22.419235

v 273.007355 -82.590240 26.432465

v 312.553558 -69.929291 23.132385

v 308.829041 -73.467377 26.543182

v 329.656281 -85.398865 23.142273

v 327.443054 -90.564056 26.527710

v 346.921875 -115.098389 23.044678

v 347.599243 -124.746429 26.599823

v 231.891296 -204.194946 30.473358

v 354.033630 -144.045990 26.738892

v 224.431793 -220.795746 25.957458

v 232.135117 -231.022034 26.699234

v 356.748657 -163.961121 23.583374

v 352.143982 -156.363708 26.794220

v 249.386475 -237.022980 26.711700

v 356.018799 -179.885681 23.610657

v 351.958618 -178.250519 26.799194

v 269.447021 -240.692871 26.839569

v 351.703369 -192.639343 23.726196

v 347.197876 -191.401917 26.803589

v 337.851929 -204.322937 26.734436

v 342.037415 -205.816895 23.717102

v 298.565430 -239.526245 23.860840

v 299.035034 -235.013550 26.735291

v 326.364197 -221.963684 26.914185

v 295.147919 -79.384781 27.172028

v 279.936188 -87.547989 27.007263

v 266.624695 -100.402100 26.932037

v 307.145752 -82.233917 27.084442

v 299.809418 -84.171913 30.613956

v 263.831360 -112.330566 29.903046

v 322.427490 -96.988770 27.275131

v 311.807800 -94.951691 30.497269

v 257.317139 -129.485596 29.913330

v 326.807953 -106.705353 30.662582

v 336.606262 -110.344238 26.960510

v 248.554626 -156.623077 32.657104

v 339.616333 -121.756470 27.521423

v 238.198486 -179.423767 30.010010

v 345.251587 -142.753067 27.323090

v 233.748871 -194.634674 30.060028

v 233.167603 -209.099762 30.580101

v 229.970215 -213.723785 27.154747

v 337.882324 -158.965637 30.546509

v 342.475647 -159.517975 27.382538

v 241.576111 -222.582886 27.296776

v 244.720856 -218.782288 30.617477

v 339.507324 -173.362671 30.729645

v 344.519470 -175.425354 27.464813

v 259.750427 -231.409882 27.522873

v 342.459717 -188.145691 27.610413

v 338.365723 -186.456940 30.751465

v 281.129150 -230.571106 27.455093

v 322.930237 -214.387726 27.624451

v 283.689362 -225.215088 30.906403

v 306.565002 -226.769531 27.561188

v 321.155396 -208.850525 30.896423

v 305.117950 -221.929321 30.833771

v 282.599121 -92.290741 30.511734

v 268.939789 -105.357315 30.422897

v 282.251038 -104.302917 31.146248

v 300.406586 -103.407738 31.133358

v 270.638214 -113.210266 31.251678

v 273.489929 -117.343674 34.522812

v 284.773926 -107.969543 34.132233

v 311.402588 -106.729065 31.155807

v 305.829163 -109.383743 34.803665

v 257.822723 -140.548981 34.659798

v 321.813202 -118.921509 31.193192

v 325.746063 -134.530441 34.808533

v 245.990051 -168.602417 34.432205

v 332.752747 -138.050873 31.347198

v 336.581482 -127.640625 30.701599

v 245.353577 -189.784637 34.875259

v 241.307449 -193.968399 31.373543

v 340.245605 -142.977219 30.672424

v 333.224121 -157.035980 31.583740

v 328.847534 -153.191528 34.804810

v 251.798248 -209.551834 31.344757

v 327.962097 -178.129776 34.926117

v 332.817139 -179.807526 31.450470

v 261.446838 -226.792633 30.830795

v 270.157654 -214.998627 31.587509

v 255.982239 -206.674622 34.589691

v 320.197144 -194.056152 31.509277

v 284.515930 -215.751099 31.376038

v 314.132477 -191.696472 34.970856

v 302.614380 -207.341400 31.429382

v 296.998230 -204.778076 34.917572

v 301.651276 -154.771454 34.986092

v 251.385803 -156.542831 34.583313

v 262.561340 -162.796326 34.931366

v 280.385071 -210.341522 35.058701

f 1 2 3
f 4 5 2
f 3 2 5
f 6 5 4
f 6 4 7
f 8 9 7
f 6 7 9
f 8 10 9
f 11 10 8
f 10 12 9
f 12 10 13
f 11 13 10
f 14 13 11
f 14 15 13
f 16 17 18
f 18 19 20
f 1 17 16
f 17 1 3
f 17 21 18
f 19 18 21
f 17 3 5
f 21 17 5
f 4 2 22
f 23 5 6
f 24 7 22
f 22 7 4
f 7 25 8
f 9 26 6
f 9 27 26
f 27 9 28
f 28 9 12
f 12 13 15
f 15 29 12
f 15 14 30
f 30 29 15
f 29 30 31
f 31 32 29
f 33 31 30
f 33 34 31
f 20 16 18
f 35 36 20
f 1 16 37
f 35 20 19
f 37 22 1
f 22 2 1
f 21 5 23
f 22 38 24
f 23 6 26
f 26 39 23
f 24 25 7
f 39 26 27
f 25 11 8
f 11 25 40
f 40 41 11
f 41 42 11
f 42 14 11
f 42 30 14
f 42 43 30
f 32 31 34
f 44 34 33
f 34 45 32
f 44 46 34
f 45 34 46
f 47 45 46
f 46 48 47
f 48 46 49
f 50 49 46
f 51 52 36
f 52 53 16
f 16 36 52
f 36 35 51
f 20 36 16
f 21 54 19
f 55 22 37
f 55 38 22
f 38 56 57
f 54 21 23
f 38 57 24
f 24 57 58
f 59 58 57
f 58 25 24
f 59 60 58
f 58 40 25
f 60 40 58
f 61 28 12
f 60 41 40
f 61 12 29
f 62 41 60
f 63 41 62
f 42 41 43
f 43 41 63
f 29 32 64
f 43 65 30
f 65 33 30
f 65 44 33
f 44 50 46
f 49 50 66
f 49 67 48
f 66 68 49
f 68 67 49
f 68 69 67
f 69 70 67
f 69 68 71
f 72 69 71
f 69 73 70
f 73 69 72
f 74 73 75
f 73 76 75
f 73 72 77
f 77 76 73
f 76 77 78
f 76 78 79
f 53 52 80
f 81 80 52
f 51 82 81
f 52 51 81
f 53 83 16
f 84 85 86
f 87 84 88
f 85 84 87
f 35 82 51
f 88 89 87
f 85 87 37
f 85 16 83
f 35 90 82
f 89 37 87
f 37 16 85
f 35 19 90
f 89 91 37
f 92 91 89
f 37 91 55
f 55 91 38
f 56 38 91
f 91 92 56
f 56 92 93
f 56 93 59
f 59 57 56
f 54 23 94
f 23 39 94
f 59 93 95
f 27 94 39
f 96 59 95
f 96 60 59
f 60 96 97
f 62 60 97
f 98 61 29
f 43 63 99
f 99 63 100
f 99 101 43
f 43 101 102
f 102 65 43
f 103 102 101
f 102 103 104
f 105 65 102
f 32 106 64
f 65 105 44
f 106 32 45
f 44 105 107
f 106 45 47
f 44 107 50
f 108 50 107
f 47 48 106
f 108 66 50
f 74 67 70
f 74 70 73
f 109 75 76
f 76 79 109
f 77 110 78
f 79 111 109
f 111 112 109
f 110 77 113
f 110 111 78
f 78 111 79
f 112 111 114
f 110 115 111
f 115 114 111
f 116 112 114
f 116 114 117
f 118 114 115
f 119 116 117
f 118 117 114
f 117 120 119
f 121 119 120
f 120 122 121
f 123 121 122
f 124 86 125
f 86 126 125
f 127 81 82
f 88 84 124
f 86 124 84
f 126 86 128
f 128 86 85
f 83 128 85
f 88 129 89
f 89 129 92
f 90 19 54
f 54 94 90
f 130 94 27
f 131 96 95
f 130 27 28
f 28 61 130
f 97 63 62
f 63 97 100
f 98 29 64
f 99 100 132
f 132 103 99
f 103 101 99
f 133 103 132
f 105 102 104
f 133 104 103
f 105 104 134
f 133 135 104
f 134 104 136
f 134 107 105
f 135 136 104
f 136 135 137
f 138 136 137
f 106 48 139
f 67 139 48
f 140 66 108
f 67 141 139
f 66 140 142
f 67 74 141
f 66 142 68
f 143 68 142
f 74 75 141
f 143 71 68
f 75 109 144
f 71 143 72
f 145 72 143
f 109 146 144
f 145 147 72
f 147 77 72
f 146 109 112
f 110 113 148
f 110 148 115
f 116 119 149
f 121 149 119
f 150 149 123
f 121 123 149
f 151 150 123
f 122 152 123
f 151 123 152
f 118 153 117
f 120 117 153
f 152 154 151
f 122 120 155
f 154 156 151
f 157 151 156
f 153 155 120
f 152 122 155
f 158 159 125
f 160 80 127
f 127 80 81
f 53 80 161
f 124 125 159
f 158 125 126
f 126 162 158
f 124 163 88
f 83 161 162
f 161 83 53
f 128 83 126
f 83 162 126
f 129 88 163
f 82 90 164
f 92 129 165
f 164 90 94
f 93 92 165
f 165 166 93
f 167 96 131
f 96 167 97
f 97 167 100
f 134 136 138
f 107 134 138
f 168 107 138
f 169 108 107
f 168 169 107
f 138 137 168
f 168 137 135
f 169 170 108
f 171 172 135
f 168 135 172
f 173 169 168
f 172 173 168
f 140 108 170
f 170 169 174
f 174 169 175
f 173 175 169
f 175 176 174
f 177 175 173
f 177 176 175
f 141 75 144
f 77 147 113
f 112 178 146
f 116 178 112
f 149 178 116
f 179 115 148
f 180 150 151
f 181 180 151
f 179 118 115
f 181 151 182
f 151 157 182
f 182 157 183
f 157 184 183
f 118 185 153
f 156 184 157
f 155 154 152
f 186 187 153
f 155 153 187
f 158 188 189
f 189 190 159
f 159 158 189
f 191 80 160
f 80 191 192
f 163 124 159
f 188 158 193
f 161 80 192
f 193 158 162
f 161 193 162
f 82 194 127
f 194 82 164
f 95 93 166
f 131 95 166
f 195 130 61
f 196 61 98
f 196 98 64
f 197 132 100
f 198 64 106
f 198 106 139
f 135 133 199
f 171 135 199
f 170 174 140
f 200 139 141
f 201 172 171
f 201 202 172
f 177 173 172
f 176 140 174
f 202 177 172
f 142 140 203
f 203 140 176
f 202 204 177
f 142 203 205
f 142 205 143
f 176 177 204
f 176 204 206
f 203 176 206
f 205 203 206
f 206 207 205
f 146 208 144
f 205 207 143
f 207 145 143
f 146 178 208
f 207 206 209
f 209 210 207
f 145 207 210
f 145 210 147
f 113 147 210
f 178 149 211
f 211 149 150
f 209 212 210
f 148 113 213
f 212 214 210
f 213 215 148
f 148 215 179
f 216 181 182
f 182 217 216
f 217 182 183
f 217 183 218
f 179 185 118
f 218 183 184
f 218 219 217
f 185 186 153
f 154 220 156
f 184 156 220
f 218 184 220
f 221 155 187
f 221 220 154
f 154 155 221
f 222 189 188
f 223 160 224
f 225 159 190
f 222 188 192
f 224 160 127
f 225 163 159
f 192 188 193
f 226 224 127
f 192 193 161
f 194 226 127
f 165 129 227
f 166 165 228
f 229 164 94
f 229 94 130
f 166 230 131
f 167 131 230
f 231 167 230
f 61 196 195
f 100 167 231
f 196 64 198
f 133 132 197
f 171 199 201
f 144 200 141
f 202 232 204
f 232 206 204
f 233 209 206
f 234 211 150
f 233 235 209
f 236 181 216
f 209 235 212
f 214 213 210
f 113 210 213
f 237 238 236
f 239 240 238
f 217 236 216
f 237 236 217
f 239 238 237
f 239 237 241
f 240 239 241
f 242 212 235
f 242 214 212
f 213 214 242
f 241 237 219
f 217 219 237
f 241 243 240
f 213 242 244
f 244 215 213
f 215 185 179
f 218 245 219
f 246 215 244
f 247 219 245
f 245 218 220
f 220 248 245
f 215 249 185
f 185 249 186
f 215 246 250
f 250 249 215
f 248 251 245
f 250 246 252
f 249 253 186
f 253 221 187
f 254 248 220
f 251 248 255
f 252 249 250
f 187 186 253
f 253 256 221
f 220 221 254
f 254 221 256
f 253 257 256
f 254 256 257
f 189 258 190
f 160 223 191
f 222 192 259
f 191 259 192
f 260 224 226
f 227 129 163
f 164 261 194
f 164 262 261
f 227 228 165
f 130 263 229
f 228 230 166
f 195 263 130
f 264 100 231
f 197 100 264
f 265 198 139
f 133 197 199
f 201 199 266
f 267 200 144
f 144 208 268
f 269 268 208
f 232 270 206
f 269 208 178
f 178 211 269
f 233 206 270
f 150 180 234
f 234 180 181
f 236 271 272
f 236 272 181
f 238 240 273
f 273 240 274
f 274 240 243
f 243 275 274
f 241 275 243
f 241 276 275
f 219 276 241
f 242 277 244
f 247 276 219
f 244 277 278
f 278 246 244
f 251 247 245
f 252 246 278
f 251 279 247
f 279 251 255
f 249 252 280
f 255 248 281
f 253 249 280
f 248 254 281
f 280 282 253
f 257 253 282
f 254 257 283
f 283 281 254
f 282 283 257
f 258 222 284
f 189 222 258
f 285 222 259
f 259 191 285
f 285 191 223
f 286 223 224
f 286 224 260
f 260 287 286
f 288 163 225
f 287 260 226
f 195 196 289
f 196 198 290
f 264 291 197
f 197 292 199
f 139 200 265
f 292 266 199
f 201 266 202
f 293 202 266
f 202 293 232
f 272 234 181
f 238 271 236
f 273 294 238
f 273 274 295
f 296 295 297
f 297 295 274
f 296 297 298
f 274 298 297
f 298 274 275
f 277 242 299
f 276 247 300
f 301 276 300
f 300 247 279
f 278 302 252
f 303 304 279
f 255 303 279
f 302 280 252
f 281 303 255
f 305 282 280
f 306 283 282
f 258 307 190
f 285 284 222
f 190 307 288
f 288 225 190
f 226 308 287
f 227 163 288
f 288 309 227
f 226 194 261
f 262 164 229
f 310 229 263
f 263 311 310
f 230 228 312
f 311 263 289
f 289 263 195
f 230 313 231
f 196 290 289
f 264 231 313
f 198 314 290
f 265 314 198
f 315 314 265
f 197 291 292
f 316 315 265
f 267 144 268
f 232 293 270
f 268 269 317
f 269 211 317
f 234 272 318
f 233 270 319
f 295 296 320
f 321 320 296
f 319 235 233
f 322 321 296
f 322 296 323
f 298 323 296
f 299 242 235
f 298 275 323
f 323 275 324
f 325 275 276
f 325 276 301
f 300 326 301
f 300 304 326
f 279 304 300
f 304 303 327
f 328 280 302
f 305 280 328
f 329 282 305
f 283 330 281
f 303 281 330
f 283 306 330
f 331 258 332
f 284 332 258
f 331 307 258
f 333 284 285
f 223 333 285
f 286 334 223
f 286 287 335
f 335 287 336
f 336 287 308
f 226 337 308
f 337 226 261
f 309 338 227
f 227 338 339
f 229 340 262
f 340 229 310
f 339 228 227
f 339 312 228
f 311 289 290
f 313 230 312
f 341 290 314
f 316 265 200
f 316 200 342
f 200 267 342
f 267 268 343
f 344 270 293
f 211 234 345
f 234 318 345
f 319 270 344
f 320 346 347
f 320 321 346
f 348 346 321
f 349 271 294
f 347 295 320
f 272 271 350
f 347 294 273
f 271 238 294
f 347 273 295
f 348 321 322
f 351 348 322
f 323 352 322
f 325 324 275
f 324 325 353
f 301 353 325
f 301 354 353
f 354 301 326
f 326 355 354
f 326 304 355
f 328 356 305
f 356 329 305
f 329 306 282
f 329 330 306
f 334 333 223
f 261 357 337
f 261 262 357
f 262 358 357
f 339 338 359
f 290 360 311
f 290 341 360
f 341 314 315
f 315 361 341
f 315 316 361
f 342 361 316
f 362 361 342
f 343 268 363
f 363 268 364
f 364 268 317
f 365 364 317
f 317 211 365
f 272 366 318
f 367 346 348
f 368 350 271
f 348 369 367
f 349 294 347
f 369 348 351
f 351 352 369
f 322 352 351
f 299 235 319
f 324 352 323
f 324 353 354
f 277 370 278
f 355 304 371
f 370 302 278
f 371 304 327
f 328 302 372
f 330 373 303
f 374 330 329
f 375 332 284
f 331 376 307
f 288 307 376
f 377 334 286
f 286 335 377
f 288 378 379
f 380 336 308
f 288 379 309
f 337 380 308
f 337 357 380
f 357 381 380
f 357 358 381
f 358 262 340
f 382 340 310
f 383 339 359
f 384 339 383
f 311 385 310
f 385 311 360
f 386 360 341
f 313 291 264
f 341 387 386
f 361 387 341
f 362 387 361
f 388 292 291
f 389 390 362
f 362 342 343
f 343 389 362
f 391 266 292
f 343 342 267
f 343 363 389
f 392 389 363
f 392 365 393
f 363 364 392
f 364 365 392
f 394 211 345
f 211 394 365
f 346 395 396
f 367 395 346
f 397 395 367
f 345 318 366
f 396 398 347
f 350 366 272
f 347 346 396
f 349 368 271
f 347 398 349
f 397 367 369
f 369 352 399
f 324 400 352
f 299 319 401
f 354 402 324
f 402 354 355
f 403 370 277
f 302 370 372
f 404 371 327
f 328 372 356
f 327 303 373
f 329 356 374
f 374 405 330
f 406 332 375
f 332 406 331
f 284 333 375
f 375 333 407
f 407 333 334
f 378 288 376
f 335 336 408
f 336 409 408
f 409 336 380
f 410 409 380
f 410 380 381
f 381 411 412
f 358 411 381
f 411 358 340
f 359 338 413
f 411 340 382
f 310 385 382
f 312 339 384
f 414 385 360
f 414 360 386
f 313 312 415
f 416 414 386
f 291 313 415
f 362 390 387
f 388 391 292
f 417 390 389
f 389 418 417
f 389 392 418
f 393 418 392
f 394 419 420
f 394 393 365
f 421 419 394
f 421 394 345
f 398 396 422
f 423 422 396
f 396 395 423
f 345 366 421
f 424 421 366
f 424 350 425
f 426 425 368
f 350 368 425
f 395 397 427
f 366 350 424
f 398 426 368
f 398 368 349
f 399 397 369
f 399 352 428
f 428 352 400
f 324 429 400
f 402 429 324
f 277 299 401
f 277 401 403
f 327 373 404
f 356 372 374
f 330 405 373
f 406 376 331
f 379 378 430
f 409 431 408
f 431 409 410
f 379 413 309
f 381 412 410
f 309 413 338
f 413 432 359
f 382 433 411
f 359 434 383
f 384 383 434
f 385 435 382
f 385 436 435
f 312 384 437
f 437 415 312
f 415 438 291
f 386 439 416
f 387 439 386
f 440 439 387
f 388 291 438
f 440 387 390
f 441 440 390
f 417 441 390
f 417 442 441
f 442 417 418
f 391 443 266
f 442 418 444
f 444 418 420
f 293 266 443
f 420 418 393
f 445 446 447
f 420 419 448
f 394 420 393
f 419 449 448
f 447 450 422
f 424 451 449
f 423 427 447
f 445 447 427
f 449 419 421
f 451 426 452
f 422 423 447
f 424 449 421
f 424 425 451
f 425 426 451
f 426 453 454
f 454 453 422
f 395 427 423
f 427 455 445
f 453 398 422
f 453 426 398
f 344 293 456
f 455 427 397
f 399 455 397
f 400 429 428
f 371 457 355
f 370 458 372
f 375 459 406
f 459 375 407
f 334 377 407
f 376 430 378
f 430 460 379
f 408 431 461
f 461 431 410
f 460 413 379
f 461 410 462
f 412 463 410
f 462 410 463
f 463 412 411
f 463 411 433
f 464 433 382
f 437 384 434
f 436 385 414
f 465 438 415
f 439 466 416
f 439 440 466
f 440 467 466
f 467 440 441
f 468 467 441
f 468 441 442
f 469 468 442
f 469 442 444
f 470 469 444
f 448 471 470
f 472 473 474
f 472 446 475
f 476 475 446
f 470 444 420
f 446 472 450
f 448 470 420
f 474 477 472
f 477 450 472
f 474 473 452
f 446 445 476
f 448 449 471
f 474 452 454
f 447 446 450
f 449 451 471
f 478 471 451
f 452 478 451
f 474 454 477
f 477 422 450
f 445 479 476
f 456 293 443
f 454 452 426
f 477 454 422
f 479 445 455
f 344 456 480
f 480 319 344
f 481 429 402
f 355 457 402
f 370 403 458
f 371 482 457
f 371 404 482
f 374 372 483
f 405 374 484
f 373 405 484
f 485 406 459
f 486 406 485
f 376 406 486
f 335 408 377
f 462 487 461
f 460 488 413
f 487 462 489
f 489 462 490
f 463 490 462
f 491 489 490
f 490 463 464
f 433 464 463
f 359 432 434
f 382 492 464
f 492 382 435
f 493 434 494
f 437 434 493
f 492 435 436
f 437 493 415
f 414 495 436
f 492 436 495
f 414 496 495
f 497 465 415
f 496 414 416
f 496 416 466
f 496 466 498
f 498 466 467
f 468 498 467
f 438 499 388
f 500 468 501
f 501 468 502
f 468 469 502
f 502 470 501
f 470 502 469
f 503 501 470
f 475 504 505
f 505 506 472
f 507 503 471
f 473 506 508
f 470 471 503
f 475 505 472
f 475 476 504
f 508 509 473
f 473 472 506
f 510 504 476
f 471 511 507
f 452 473 509
f 511 452 509
f 471 478 511
f 478 452 511
f 476 479 510
f 399 512 455
f 428 512 399
f 401 319 480
f 429 513 428
f 403 401 514
f 457 481 402
f 458 483 372
f 373 515 404
f 459 516 485
f 407 516 459
f 407 377 517
f 376 486 430
f 430 486 518
f 460 430 518
f 408 461 519
f 519 461 487
f 487 489 520
f 520 489 491
f 520 491 521
f 521 491 522
f 490 522 491
f 432 413 488
f 522 490 523
f 490 464 523
f 524 522 523
f 524 523 525
f 464 525 523
f 494 432 526
f 432 494 434
f 525 464 492
f 492 527 525
f 527 528 525
f 527 529 528
f 527 492 495
f 495 530 527
f 527 530 529
f 493 497 415
f 530 495 496
f 496 498 531
f 438 465 499
f 500 498 468
f 499 391 388
f 501 532 500
f 533 532 501
f 533 503 534
f 506 505 535
f 536 535 505
f 533 501 503
f 537 536 505
f 538 508 539
f 537 504 540
f 507 534 503
f 506 539 508
f 537 505 504
f 541 534 507
f 507 511 541
f 542 541 509
f 509 508 538
f 510 540 504
f 509 541 511
f 538 542 509
f 510 479 543
f 428 513 512
f 480 544 401
f 481 513 429
f 545 481 457
f 546 458 403
f 457 482 545
f 515 482 404
f 458 547 483
f 484 515 373
f 483 548 374
f 374 548 484
f 516 407 517
f 517 377 408
f 408 519 517
f 460 549 488
f 522 550 521
f 522 551 550
f 488 526 432
f 551 522 524
f 524 552 551
f 553 551 552
f 525 528 524
f 552 524 554
f 554 524 528
f 554 555 552
f 528 529 554
f 529 556 554
f 493 557 497
f 530 556 529
f 557 558 497
f 530 559 556
f 559 530 496
f 465 497 558
f 496 531 559
f 560 531 498
f 499 465 561
f 560 498 500
f 500 562 560
f 563 532 533
f 564 536 565
f 566 563 533
f 564 535 536
f 566 533 534
f 536 537 565
f 565 537 540
f 534 541 566
f 567 568 541
f 506 535 539
f 539 567 542
f 391 499 569
f 567 541 542
f 539 542 538
f 543 540 510
f 443 391 569
f 569 456 443
f 456 570 480
f 544 514 401
f 513 481 571
f 481 545 571
f 403 514 546
f 546 572 458
f 547 458 572
f 547 548 483
f 548 573 484
f 485 516 574
f 574 486 485
f 518 486 575
f 518 549 460
f 488 549 576
f 520 521 577
f 521 550 577
f 550 578 577
f 578 550 551
f 488 579 526
f 578 551 553
f 553 580 578
f 553 581 580
f 552 555 553
f 582 553 555
f 582 555 556
f 554 556 555
f 557 493 494
f 583 582 584
f 556 584 582
f 558 557 585
f 556 559 584
f 584 531 586
f 559 531 584
f 586 531 587
f 561 465 558
f 587 531 560
f 560 562 587
f 499 561 588
f 562 500 589
f 589 500 532
f 590 589 532
f 590 532 563
f 591 592 564
f 592 593 535
f 535 564 592
f 563 566 590
f 566 594 590
f 565 591 564
f 591 565 595
f 541 568 594
f 535 596 539
f 566 541 594
f 596 567 539
f 565 597 595
f 565 540 597
f 569 499 588
f 540 543 597
f 456 569 598
f 479 599 543
f 456 598 570
f 479 455 600
f 600 455 512
f 480 570 544
f 512 513 571
f 546 601 572
f 545 482 602
f 515 602 482
f 516 603 574
f 516 604 603
f 517 604 516
f 575 486 574
f 517 605 604
f 517 519 605
f 606 605 519
f 518 575 549
f 576 549 575
f 519 487 606
f 606 487 520
f 576 607 488
f 520 577 606
f 579 488 607
f 608 577 578
f 578 580 608
f 579 609 526
f 610 608 580
f 610 580 581
f 609 611 526
f 610 612 613
f 612 610 581
f 612 614 613
f 581 553 582
f 494 526 611
f 581 582 583
f 615 494 611
f 581 616 612
f 583 616 581
f 617 612 616
f 557 494 615
f 615 618 557
f 583 619 616
f 617 616 619
f 585 557 618
f 584 586 583
f 586 619 583
f 585 620 558
f 586 587 619
f 587 621 619
f 619 622 623
f 620 561 558
f 621 622 619
f 587 562 621
f 624 621 562
f 624 562 589
f 589 590 624
f 625 626 627
f 593 628 629
f 630 624 590
f 630 626 631
f 632 631 626
f 590 594 630
f 593 627 596
f 628 593 592
f 627 626 596
f 568 596 626
f 568 626 630
f 596 535 593
f 594 568 630
f 568 567 596
f 633 569 588
f 598 569 633
f 600 599 479
f 634 512 571
f 544 635 514
f 635 546 514
f 571 545 636
f 545 602 636
f 548 637 573
f 515 484 573
f 515 638 639
f 605 640 604
f 574 603 575
f 575 641 576
f 577 642 606
f 613 643 610
f 643 613 614
f 614 644 643
f 644 614 617
f 614 612 617
f 645 644 617
f 644 645 646
f 623 645 617
f 619 623 617
f 618 620 585
f 620 618 647
f 623 648 645
f 623 649 648
f 622 649 623
f 649 650 648
f 622 651 649
f 652 653 649
f 624 622 621
f 651 622 624
f 651 652 649
f 653 652 654
f 651 631 652
f 654 652 631
f 655 656 561
f 627 629 657
f 561 656 588
f 654 632 625
f 627 593 629
f 624 631 651
f 631 632 654
f 631 624 630
f 658 629 628
f 658 628 659
f 632 626 625
f 628 592 659
f 592 591 659
f 595 660 591
f 595 597 660
f 656 661 588
f 661 633 588
f 597 543 662
f 599 662 543
f 661 598 633
f 599 600 663
f 544 570 664
f 664 665 544
f 635 544 665
f 666 546 635
f 601 546 666
f 636 667 571
f 572 668 547
f 669 548 547
f 515 639 602
f 638 573 637
f 573 638 515
f 670 603 604
f 604 640 670
f 603 671 575
f 641 575 671
f 607 576 641
f 607 672 579
f 609 579 672
f 673 577 608
f 610 643 608
f 643 644 674
f 644 675 674
f 644 646 675
f 676 675 646
f 677 675 676
f 676 646 645
f 615 647 618
f 645 678 676
f 677 676 678
f 678 645 648
f 677 679 680
f 677 678 679
f 679 681 680
f 648 650 678
f 679 678 650
f 682 620 647
f 679 650 653
f 653 683 679
f 649 653 650
f 684 683 653
f 685 686 687
f 686 684 688
f 561 620 682
f 688 625 686
f 684 653 688
f 687 686 625
f 687 657 685
f 654 688 653
f 625 657 687
f 682 655 561
f 657 629 689
f 688 654 625
f 657 625 627
f 629 658 689
f 689 658 659
f 659 690 689
f 690 659 591
f 591 660 690
f 655 691 656
f 691 661 656
f 691 692 661
f 598 661 692
f 570 598 692
f 664 570 692
f 693 665 664
f 512 634 600
f 665 693 635
f 601 668 572
f 602 694 636
f 547 668 669
f 695 602 639
f 637 548 669
f 695 639 638
f 696 640 605
f 670 640 697
f 671 603 670
f 670 697 671
f 696 605 698
f 605 606 698
f 699 671 697
f 671 700 641
f 641 672 607
f 672 641 700
f 577 673 642
f 609 672 701
f 643 673 608
f 701 702 609
f 609 615 611
f 702 615 609
f 702 647 615
f 675 677 703
f 677 680 703
f 704 681 679
f 683 704 679
f 682 647 705
f 683 706 704
f 684 706 683
f 706 684 707
f 708 707 684
f 708 684 686
f 686 685 708
f 709 682 705
f 685 657 710
f 657 689 710
f 655 682 709
f 709 711 655
f 691 655 711
f 712 691 711
f 662 713 597
f 692 691 712
f 712 714 692
f 664 692 714
f 664 714 715
f 664 715 693
f 693 716 635
f 571 717 634
f 718 635 716
f 718 666 635
f 717 571 667
f 601 666 668
f 695 694 602
f 669 719 637
f 695 638 720
f 638 719 720
f 719 638 637
f 640 696 721
f 640 721 697
f 696 698 721
f 697 722 699
f 606 723 698
f 671 699 700
f 699 722 700
f 724 700 722
f 700 724 672
f 606 725 723
f 606 642 725
f 724 701 672
f 701 726 702
f 680 681 727
f 704 727 681
f 728 705 647
f 729 727 704
f 704 706 729
f 706 707 729
f 707 730 729
f 707 708 730
f 731 708 685
f 709 705 732
f 731 685 710
f 733 710 689
f 732 734 709
f 689 690 733
f 711 709 734
f 734 735 711
f 690 660 713
f 735 712 711
f 597 713 660
f 736 712 735
f 662 737 738
f 737 662 599
f 599 663 737
f 714 712 736
f 736 739 714
f 739 715 714
f 739 740 715
f 740 693 715
f 600 634 741
f 740 716 693
f 717 667 742
f 666 718 743
f 743 668 666
f 667 636 744
f 744 636 694
f 743 745 668
f 746 669 745
f 745 669 668
f 695 747 694
f 748 719 746
f 720 748 747
f 748 720 719
f 720 747 695
f 746 719 669
f 749 697 721
f 750 721 698
f 722 697 751
f 751 697 749
f 722 751 724
f 673 725 642
f 726 724 751
f 724 726 701
f 643 752 673
f 643 674 752
f 702 726 753
f 647 702 754
f 680 727 703
f 728 755 705
f 732 705 755
f 710 733 731
f 734 732 756
f 690 757 733
f 735 734 758
f 662 738 713
f 758 759 735
f 736 735 759
f 758 760 759
f 739 736 759
f 759 761 739
f 760 761 759
f 760 762 761
f 763 663 600
f 741 763 600
f 761 740 739
f 762 764 761
f 761 764 740
f 716 740 764
f 634 765 741
f 764 718 716
f 764 766 718
f 718 766 767
f 767 743 718
f 667 768 742
f 743 767 745
f 769 770 746
f 769 746 745
f 771 772 694
f 773 748 770
f 746 770 748
f 747 771 694
f 748 773 771
f 771 747 748
f 774 721 750
f 775 721 774
f 775 749 721
f 698 723 750
f 751 776 777
f 726 751 777
f 777 753 726
f 702 753 778
f 675 779 674
f 754 702 778
f 675 703 779
f 728 647 754
f 754 755 728
f 732 755 780
f 780 756 732
f 756 758 734
f 756 781 758
f 782 781 756
f 757 690 713
f 781 783 758
f 760 758 783
f 783 784 785
f 783 785 760
f 737 663 763
f 762 760 785
f 785 786 762
f 787 786 785
f 763 741 788
f 765 788 741
f 789 762 786
f 762 789 764
f 790 791 786
f 786 791 789
f 765 634 717
f 765 717 742
f 791 766 789
f 764 789 766
f 766 792 767
f 793 742 768
f 792 794 767
f 744 768 667
f 745 767 794
f 769 794 795
f 769 745 794
f 796 797 798
f 799 770 795
f 744 694 772
f 770 769 795
f 796 773 799
f 773 796 798
f 771 797 772
f 771 798 797
f 770 799 773
f 798 771 773
f 750 800 774
f 800 750 723
f 725 801 723
f 723 801 800
f 802 749 775
f 803 802 775
f 776 751 749
f 749 802 776
f 802 804 776
f 725 673 801
f 777 805 753
f 805 777 776
f 805 778 753
f 779 752 674
f 754 778 806
f 755 754 806
f 755 806 807
f 703 727 808
f 809 780 755
f 708 810 730
f 708 731 810
f 811 810 731
f 733 811 731
f 811 733 757
f 780 782 756
f 782 783 781
f 783 782 812
f 738 813 713
f 784 783 812
f 784 787 785
f 784 814 787
f 814 784 815
f 790 787 814
f 787 790 786
f 790 814 816
f 788 765 817
f 792 790 816
f 816 818 819
f 817 765 742
f 790 792 791
f 792 816 819
f 820 819 821
f 791 792 766
f 822 742 793
f 819 794 792
f 794 819 820
f 823 820 824
f 794 820 823
f 744 825 768
f 823 795 794
f 825 744 772
f 826 799 823
f 827 828 829
f 828 827 830
f 795 823 799
f 826 796 799
f 772 828 825
f 796 826 829
f 797 829 828
f 796 829 797
f 828 772 797
f 831 774 800
f 803 775 774
f 774 831 803
f 800 832 831
f 800 801 832
f 804 803 831
f 831 833 804
f 834 832 801
f 804 802 803
f 801 673 835
f 673 836 835
f 837 776 804
f 805 776 837
f 752 836 673
f 805 838 839
f 805 839 778
f 806 778 839
f 703 840 779
f 839 807 806
f 840 703 808
f 807 809 755
f 729 808 727
f 841 809 807
f 810 808 729
f 810 729 730
f 809 841 780
f 841 842 780
f 843 842 841
f 844 842 843
f 782 780 842
f 812 842 844
f 782 842 812
f 757 713 845
f 844 846 812
f 713 813 845
f 784 812 815
f 815 812 846
f 815 846 847
f 848 738 737
f 737 763 848
f 847 849 815
f 763 850 848
f 814 815 851
f 851 815 849
f 788 850 763
f 818 851 849
f 816 814 851
f 851 818 816
f 850 788 817
f 818 849 852
f 852 821 818
f 852 853 821
f 819 818 821
f 854 855 817
f 817 742 822
f 853 824 821
f 817 822 854
f 793 854 822
f 820 821 824
f 823 824 856
f 857 858 825
f 854 768 858
f 768 854 793
f 826 856 859
f 826 823 856
f 858 768 825
f 830 860 825
f 860 830 827
f 828 830 825
f 826 859 829
f 829 859 827
f 831 832 833
f 832 834 833
f 833 834 861
f 861 804 833
f 835 834 801
f 837 804 861
f 862 837 861
f 862 861 863
f 837 862 838
f 837 838 805
f 864 862 865
f 779 866 752
f 862 867 838
f 839 838 867
f 868 839 867
f 868 867 864
f 807 839 868
f 840 808 869
f 868 870 807
f 871 870 868
f 841 807 870
f 870 843 841
f 870 871 843
f 872 810 811
f 844 843 873
f 874 844 873
f 811 875 876
f 875 811 757
f 757 845 875
f 844 874 846
f 877 846 874
f 847 846 877
f 813 848 878
f 738 848 813
f 879 847 877
f 849 847 879
f 849 879 880
f 850 881 848
f 880 852 849
f 882 852 880
f 881 850 855
f 881 855 883
f 850 817 855
f 853 852 882
f 883 858 857
f 883 855 858
f 824 853 884
f 855 854 858
f 884 885 824
f 856 824 885
f 859 856 885
f 886 857 825
f 825 860 886
f 827 887 860
f 859 887 827
f 863 861 834
f 834 888 863
f 889 863 888
f 890 888 834
f 891 834 835
f 834 891 890
f 892 888 890
f 865 862 863
f 888 892 889
f 865 863 889
f 836 752 893
f 865 889 864
f 893 752 866
f 862 864 867
f 889 894 864
f 894 889 895
f 866 779 840
f 868 864 894
f 894 871 868
f 896 894 895
f 894 896 871
f 896 897 871
f 896 898 897
f 873 871 897
f 871 873 843
f 876 872 811
f 899 873 897
f 874 873 899
f 899 877 874
f 877 899 900
f 878 848 901
f 881 901 848
f 880 879 902
f 903 901 881
f 881 883 903
f 853 882 904
f 903 883 905
f 906 905 883
f 883 857 906
f 904 884 853
f 907 885 884
f 908 885 907
f 886 906 857
f 860 887 886
f 908 859 885
f 859 908 887
f 909 890 891
f 891 835 836
f 910 889 892
f 891 911 909
f 911 891 836
f 892 890 910
f 911 836 893
f 912 910 890
f 912 890 913
f 895 910 912
f 910 895 889
f 866 840 869
f 912 914 895
f 914 912 915
f 914 898 895
f 898 914 915
f 895 898 896
f 897 898 916
f 899 897 916
f 916 917 899
f 918 876 875
f 899 917 919
f 919 900 899
f 845 813 920
f 921 920 813
f 813 878 921
f 877 900 902
f 922 900 923
f 902 879 877
f 900 922 902
f 901 921 878
f 924 921 901
f 902 922 925
f 922 926 925
f 925 882 902
f 903 924 901
f 880 902 882
f 903 927 924
f 925 904 882
f 904 925 928
f 927 903 905
f 929 930 928
f 931 928 930
f 928 931 904
f 931 930 907
f 932 927 905
f 931 884 904
f 933 927 932
f 931 907 884
f 906 932 905
f 934 907 930
f 932 906 886
f 887 933 932
f 908 907 934
f 887 934 933
f 932 886 887
f 934 887 908
f 911 935 909
f 913 890 909
f 911 936 935
f 893 937 911
f 935 913 909
f 911 937 936
f 937 893 866
f 935 938 913
f 938 935 939
f 937 866 940
f 915 912 913
f 938 941 913
f 866 869 940
f 938 942 941
f 869 943 940
f 915 913 941
f 944 941 942
f 915 941 945
f 915 945 898
f 946 869 808
f 945 941 944
f 810 946 808
f 916 898 945
f 945 917 916
f 947 917 945
f 948 810 872
f 947 949 917
f 876 950 872
f 919 917 949
f 918 875 951
f 952 951 875
f 875 845 952
f 845 920 952
f 923 919 949
f 953 954 949
f 955 952 921
f 955 956 952
f 921 952 920
f 949 954 923
f 919 923 900
f 957 958 954
f 926 923 954
f 955 959 956
f 922 923 926
f 924 955 921
f 954 958 926
f 955 924 959
f 957 960 958
f 957 961 960
f 926 958 960
f 960 929 926
f 927 959 924
f 959 927 962
f 925 926 928
f 928 926 929
f 960 930 929
f 930 960 963
f 964 962 965
f 966 967 963
f 962 927 933
f 934 930 963
f 962 933 965
f 934 963 965
f 965 933 934
f 935 968 939
f 968 935 936
f 968 936 937
f 937 969 968
f 940 969 937
f 970 968 969
f 968 971 939
f 939 942 938
f 971 968 970
f 969 972 970
f 969 940 972
f 970 972 973
f 939 971 942
f 974 971 970
f 943 972 940
f 975 942 971
f 975 971 976
f 944 942 975
f 943 869 977
f 977 869 946
f 944 975 978
f 979 978 976
f 980 946 810
f 945 944 947
f 981 978 979
f 810 948 980
f 982 944 978
f 944 982 947
f 978 981 982
f 983 948 984
f 950 948 872
f 985 982 981
f 948 950 984
f 949 947 982
f 982 985 949
f 918 950 876
f 950 918 984
f 986 981 987
f 918 988 984
f 985 981 986
f 988 983 984
f 918 951 988
f 953 985 986
f 985 953 949
f 956 988 951
f 951 952 956
f 986 987 989
f 957 953 986
f 989 990 986
f 991 988 956
f 954 953 957
f 988 992 993
f 986 990 957
f 988 991 992
f 956 959 991
f 961 957 990
f 994 990 989
f 992 991 995
f 996 997 994
f 996 998 997
f 998 995 997
f 990 966 961
f 966 990 994
f 959 962 991
f 964 995 991
f 966 994 997
f 967 997 995
f 962 964 991
f 967 995 964
f 960 961 963
f 961 966 963
f 997 967 966
f 965 967 964
f 967 965 963
f 970 973 974
f 974 973 976
f 972 943 973
f 976 971 974
f 977 976 973
f 973 943 977
f 999 976 977
f 979 976 999
f 946 1000 977
f 978 975 976
f 1001 977 1000
f 980 1000 946
f 999 977 1001
f 1000 980 1001
f 999 987 979
f 948 983 980
f 980 983 1001
f 1001 983 999
f 983 996 999
f 987 981 979
f 989 987 999
f 983 988 993
f 999 996 989
f 1002 983 993
f 983 998 996
f 1002 998 983
f 992 1002 993
f 992 995 1002
f 996 994 989
f 995 998 1002
