v 206.091614 -82.761353 -39.876343

v 209.296387 -80.854012 -39.859802

v 207.499191 -83.830017 -40.843922

v 210.248489 -80.935410 -39.948032

v 210.408752 -81.864761 -40.656258

v 205.647339 -83.682861 -39.929993

v 211.386032 -80.481102 -39.918987

v 212.549316 -81.343628 -39.914337

v 211.610535 -82.459152 -40.828995

v 204.008087 -85.751785 -40.253662

v 202.525146 -87.106644 -39.999756

v 203.640717 -87.600388 -40.726685

v 213.523682 -83.202179 -39.955322

v 203.911621 -89.877594 -40.847664

v 212.650391 -85.209198 -40.627014

v 213.743408 -84.875366 -39.745850

v 210.241699 -89.699417 -40.789398

v 202.202286 -92.195946 -39.162315

v 204.935730 -92.249146 -40.373016

v 212.675171 -87.281937 -40.264832

v 207.509644 -91.787292 -40.771973

v 212.163513 -89.274139 -39.949646

v 211.608398 -90.117249 -39.893921

v 210.131439 -91.694519 -39.907227

v 207.738098 -93.310486 -39.912781

v 207.018677 -81.706055 -36.370850

v 210.248138 -80.157043 -37.879150

v 205.356003 -82.588501 -36.643555

v 212.052826 -80.135139 -38.297394

v 203.779129 -83.102783 -36.259766

v 202.244781 -84.992188 -37.615234

v 195.199280 -88.772461 -37.616333

v 197.322266 -87.552246 -37.866699

v 196.109894 -89.985931 -38.908348

v 192.002808 -92.764694 -38.877396

v 190.996765 -92.087555 -38.056152

v 200.925308 -88.605225 -39.137131

v 189.938232 -94.130539 -37.895142

v 213.471924 -80.937988 -38.175415

v 201.577148 -86.446045 -38.658203

v 191.626556 -95.056282 -38.860126

v 196.412369 -94.657471 -39.025784

v 214.550293 -82.699158 -38.017334

v 194.174561 -96.464172 -38.612915

v 198.922836 -95.414902 -38.951538

v 215.102051 -85.884277 -37.621338

v 197.339691 -96.196838 -38.633514

v 214.167542 -87.546875 -37.985352

v 203.222870 -94.814148 -38.801239

v 205.172470 -93.379639 -39.502625

v 199.447052 -96.751709 -38.048889

v 204.539276 -95.484741 -38.257080

v 213.262695 -90.460449 -37.369141

v 207.662781 -93.978516 -38.908691

v 202.409485 -96.156799 -38.046387

v 210.483154 -92.872070 -37.465820

v 206.862885 -95.074219 -38.007813

v 204.849426 -81.538330 -34.406189

v 198.674194 -85.099548 -36.273682

v 197.642273 -85.267792 -36.171509

v 196.462555 -86.233643 -36.073120

v 192.909958 -88.887756 -34.286133

v 189.954712 -91.783325 -36.172363

v 211.729065 -79.061737 -34.704346

v 213.093063 -79.631752 -36.911453

v 188.399139 -93.780937 -36.136108

v 187.648468 -94.377007 -36.050598

v 214.113007 -78.835815 -36.075348

v 215.740723 -78.476425 -36.023224

v 216.598572 -79.469818 -36.711456

v 214.581604 -80.318176 -37.134232

v 189.323608 -95.519409 -37.362305

v 187.313934 -95.727737 -36.175545

v 217.063690 -78.383354 -36.053440

v 217.732056 -79.118835 -36.056976

v 188.331482 -97.361923 -36.438843

v 187.147858 -96.823608 -36.217979

v 218.546448 -82.202339 -36.771851

v 191.439209 -96.899170 -37.554565

v 215.854431 -83.764175 -37.252106

v 187.925385 -98.548210 -35.581436

v 195.761292 -99.698792 -35.623840

v 220.246094 -81.967796 -35.489319

v 220.505524 -85.431030 -35.228210

v 217.588623 -86.601074 -36.686523

v 198.514526 -98.105591 -36.301514

v 219.515625 -86.447266 -35.551880

v 217.219116 -89.599731 -35.389954

v 200.353729 -97.774780 -36.156738

v 215.333374 -91.359222 -35.368774

v 204.395386 -96.607056 -36.389282

v 202.320679 -97.914581 -35.602936

v 213.035706 -93.018158 -35.591309

v 208.066772 -95.998169 -35.825928

v 206.214844 -96.525757 -35.946899

v 204.909363 -97.411194 -35.544067

v 197.436981 -84.636887 -33.956055

v 199.793152 -83.420044 -34.377930

v 195.764343 -86.445602 -34.542725

v 202.778778 -81.891052 -34.351563

v 207.176819 -81.111542 -34.123352

v 205.878174 -81.267395 -33.745117

v 189.709061 -91.522392 -34.389404

v 213.786560 -77.893616 -34.126709

v 188.265991 -93.142586 -34.040527

v 215.364380 -77.235870 -34.075134

v 216.645325 -77.449097 -34.376770

v 186.435608 -96.226166 -34.562500

v 219.938660 -77.492287 -34.028564

v 217.975616 -78.314941 -35.198914

v 187.038696 -97.479523 -35.544922

v 220.222336 -78.580765 -34.875656

v 185.229980 -98.536446 -34.385437

v 222.281677 -77.570541 -34.064854

v 186.211548 -101.104004 -35.042328

v 184.642761 -100.124481 -34.193237

v 224.909012 -77.908867 -34.092457

v 225.818985 -79.364204 -34.959343

v 221.771851 -82.450790 -35.074867

v 189.364807 -99.906769 -35.316689

v 191.246399 -103.957916 -35.094360

v 229.715439 -79.097252 -33.984192

v 195.449036 -100.973419 -35.246380

v 231.117004 -80.076843 -34.293640

v 199.273987 -99.268066 -35.341003

v 231.216858 -82.452652 -34.953033

v 195.331451 -104.680908 -35.072357

v 227.084167 -86.331665 -34.910889

v 233.586426 -80.801697 -32.875488

v 223.442383 -89.101166 -34.963150

v 220.265411 -91.004883 -34.922409

v 198.465820 -103.752808 -34.915039

v 233.809326 -83.062347 -33.293457

v 210.285522 -95.945068 -35.118286

v 194.496475 -106.792480 -33.627991

v 189.789398 -105.786926 -33.557800

v 217.946289 -92.952271 -34.878326

v 205.283661 -99.804810 -34.772339

v 230.697754 -84.529053 -34.678833

v 208.870605 -98.280273 -33.794189

v 214.276733 -95.670959 -34.790100

v 232.126709 -86.166443 -33.292755

v 204.524780 -102.057617 -33.751465

v 228.398560 -87.924561 -33.556519

v 225.415894 -90.513184 -33.460999

v 220.976074 -93.071655 -33.537720

v 215.327393 -96.687012 -33.777832

v 202.272324 -81.372688 -32.293297

v 199.374146 -82.904678 -32.216408

v 198.972733 -83.540283 -32.026245

v 204.294708 -81.061218 -32.379448

v 195.928436 -85.987015 -30.690552

v 206.116196 -80.768982 -32.061554

v 205.432755 -80.641251 -32.188263

v 192.867828 -88.549866 -30.115723

v 209.298157 -78.914124 -32.318939

v 214.284210 -77.166275 -32.099678

v 213.449875 -77.091408 -32.156754

v 211.606827 -77.851723 -32.193645

v 216.208313 -76.761162 -32.190224

v 217.462860 -76.699768 -32.231392

v 186.200623 -95.510712 -32.501373

v 219.914597 -76.869438 -32.176086

v 185.122253 -97.164879 -32.533569

v 221.899323 -77.086105 -32.269928

v 184.085205 -98.516357 -31.894043

v 182.804825 -101.199509 -32.326019

v 224.462555 -77.454956 -32.276825

v 184.167114 -101.754135 -33.458740

v 182.306992 -103.520844 -32.371613

v 185.481537 -103.488785 -33.544151

v 183.560532 -104.163132 -33.206245

v 229.465393 -78.248817 -32.273682

v 182.402878 -105.445427 -32.404160

v 184.523956 -106.644852 -33.233494

v 231.677551 -78.856140 -32.161133

v 183.518127 -107.487701 -32.374382

v 185.503006 -108.552979 -32.869461

v 233.472046 -79.474609 -31.536011

v 189.899185 -109.054810 -33.083527

v 235.910645 -81.576416 -31.667236

v 198.337036 -106.329102 -33.378906

v 194.893799 -108.492188 -32.880127

v 235.819580 -85.637543 -32.711975

v 227.286377 -90.399956 -33.161705

v 211.682129 -100.076660 -32.727295

v 202.208984 -107.130325 -31.608978

v 192.327072 -111.132782 -31.564407

v 234.909729 -87.206787 -33.001678

v 223.326660 -93.019104 -33.208237

v 204.971680 -104.012695 -32.806152

v 219.397827 -96.495605 -32.976318

v 217.031250 -98.190430 -32.598633

v 198.081482 -109.637299 -31.544876

v 206.082642 -105.503296 -31.544952

v 229.494202 -92.475266 -33.071243

v 224.364136 -95.246368 -33.054749

v 237.261475 -86.395874 -31.593750

v 213.305542 -101.195221 -31.537170

v 234.183716 -89.400208 -32.847961

v 218.967041 -98.788269 -31.650696

v 235.975586 -90.685608 -31.428772

v 228.915588 -93.858521 -32.839661

v 225.488525 -96.123901 -32.597656

v 223.797607 -98.130371 -31.151367

v 233.808838 -92.492767 -31.487305

v 229.546143 -95.941284 -31.449280

v 202.560059 -81.898071 -31.468018

v 201.502655 -82.713989 -30.347656

v 204.627075 -81.862854 -30.937744

v 204.481735 -82.470947 -30.276184

v 203.363892 -82.688995 -30.117188

v 209.372925 -79.954224 -30.309570

v 211.522034 -78.438721 -30.554199

v 213.439850 -77.784912 -30.306885

v 206.110931 -82.179932 -30.231689

v 188.973190 -92.649048 -30.434814

v 214.989136 -77.509766 -30.202881

v 217.389648 -77.156982 -30.103516

v 186.315857 -95.750366 -30.634766

v 219.952881 -76.959930 -29.962891

v 184.731598 -97.710999 -29.132324

v 221.652832 -77.164871 -30.104004

v 182.558777 -100.723938 -30.781250

v 224.420563 -78.044235 -26.522217

v 181.166260 -103.444885 -28.216309

v 227.851746 -77.955627 -29.540894

v 181.738770 -105.274658 -30.489258

v 231.826370 -78.384720 -30.361170

v 182.365479 -107.631226 -30.412598

v 182.856567 -109.366379 -30.002441

v 235.618530 -79.483345 -30.340271

v 185.052826 -109.962822 -31.486757

v 184.868896 -112.511200 -30.154724

v 187.288544 -110.829803 -31.693665

v 237.185394 -79.978035 -30.150406

v 238.847260 -81.168365 -30.230896

v 239.515625 -82.879272 -30.591797

v 187.491211 -114.089127 -30.792542

v 189.393829 -114.385620 -31.101135

v 239.572021 -88.510010 -30.744873

v 191.749054 -113.983154 -31.353485

v 210.981934 -102.973816 -31.426712

v 195.393005 -114.773132 -31.180328

v 238.726440 -91.158508 -30.882874

v 206.971222 -108.814636 -31.029480

v 202.027954 -110.331207 -31.151886

v 199.178238 -112.562317 -31.215973

v 208.814255 -107.737579 -31.126450

v 193.082581 -115.703369 -30.746460

v 221.296844 -100.141846 -30.760864

v 217.702393 -102.990326 -30.883545

v 212.537918 -105.617645 -31.111359

v 215.334473 -104.532753 -31.028748

v 227.551880 -97.554688 -30.575195

v 225.610107 -99.625000 -29.228027

v 203.152100 -111.750000 -29.941895

v 199.164063 -114.719238 -30.074707

v 235.630737 -94.942474 -30.956299

v 231.476440 -97.842773 -30.657959

v 230.957275 -98.989258 -29.696533

v 237.615234 -95.903320 -29.716309

v 200.187149 -84.279724 -26.719238

v 197.143555 -85.424805 -28.124512

v 193.429016 -87.797150 -27.912537

v 201.756897 -84.069092 -26.491699

v 210.278076 -80.371094 -28.220703

v 212.447113 -79.429932 -28.238281

v 186.310791 -96.671387 -26.292969

v 214.996140 -78.606445 -28.364258

v 183.770340 -98.757507 -28.394409

v 221.492249 -78.034821 -26.454834

v 182.172760 -100.911484 -26.717957

v 222.519165 -78.022400 -26.430542

v 181.495728 -102.230751 -28.123047

v 180.990051 -105.754761 -28.369629

v 181.331360 -108.637329 -28.597473

v 232.802795 -78.473518 -28.471313

v 181.473694 -112.157776 -28.926941

v 238.071594 -79.607933 -28.446411

v 181.850357 -113.369812 -28.680908

v 239.999756 -80.733215 -28.474121

v 186.747559 -116.436768 -28.204834

v 241.640625 -82.152039 -28.244629

v 243.851563 -84.516846 -27.445557

v 242.610352 -90.108398 -27.783691

v 192.209839 -117.983887 -28.222656

v 196.679688 -117.561523 -29.075195

v 225.146362 -101.201172 -27.986816

v 206.811523 -111.599609 -29.178467

v 218.091797 -106.517578 -28.085938

v 200.174805 -116.417480 -29.046875

v 240.982910 -94.986061 -27.818604

v 222.281738 -103.380859 -27.896484

v 213.639648 -109.569092 -27.831055

v 210.574463 -111.652405 -27.721741

v 218.573242 -107.395508 -27.385254

v 205.353760 -115.321045 -27.762939

v 199.574219 -118.570801 -27.852051

v 233.448242 -98.796387 -29.382813

v 229.556030 -101.744751 -27.792358

v 239.180664 -97.179688 -28.599609

v 233.934021 -100.829590 -27.780762

v 239.466675 -98.764282 -27.719360

v 195.244980 -87.605957 -24.636230

v 203.614990 -83.875214 -26.371277

v 191.308838 -90.310791 -24.831421

v 189.886368 -91.749054 -24.859497

v 210.630859 -81.133301 -26.238281

v 206.524261 -83.425293 -26.227539

v 215.268539 -79.378174 -25.988281

v 185.222534 -98.327148 -25.912109

v 218.708252 -78.529785 -26.280762

v 181.704727 -101.742462 -26.605255

v 181.136429 -102.520660 -26.613586

v 180.488068 -103.143776 -26.615768

v 180.083862 -103.835098 -26.600342

v 179.607895 -104.310303 -26.614262

v 180.023499 -104.557266 -26.830017

v 179.422897 -105.231934 -26.662476

v 228.090210 -78.651672 -26.433228

v 178.774109 -106.871887 -26.632431

v 178.474487 -107.711044 -26.621262

v 178.375519 -109.688568 -26.688660

v 232.812866 -79.002808 -24.461426

v 178.468719 -110.976700 -26.734131

v 178.270370 -111.924835 -26.531036

v 237.074463 -79.267944 -24.199951

v 180.131622 -114.082291 -26.947968

v 239.793411 -79.636421 -24.650925

v 241.439117 -80.552063 -26.463501

v 182.805542 -115.956543 -27.011597

v 242.510925 -81.172699 -26.382507

v 243.713348 -82.053177 -26.409546

v 186.303284 -118.127441 -26.840698

v 246.031982 -86.075912 -26.259766

v 191.340454 -119.612854 -26.722900

v 245.230835 -87.406616 -27.061646

v 246.370972 -87.654663 -26.328247

v 194.735382 -120.309448 -26.660217

v 244.895996 -91.953674 -26.665283

v 196.672058 -120.478088 -26.594543

v 225.637360 -103.480957 -26.906616

v 222.965027 -106.121948 -25.799927

v 198.450012 -120.382202 -26.512207

v 243.128876 -97.516235 -26.700562

v 213.873688 -112.795288 -27.285858

v 203.610107 -118.480713 -27.248779

v 201.511810 -119.818207 -26.608215

v 231.035126 -104.136902 -27.113541

v 217.626831 -111.771973 -25.939819

v 211.995483 -114.786377 -27.276825

v 208.514038 -116.888916 -27.254150

v 227.038177 -104.761841 -25.897400

v 203.707306 -119.387878 -26.516846

v 234.973297 -102.086731 -27.400230

v 214.362549 -115.022949 -26.003174

v 207.053467 -118.716675 -26.532715

v 241.090759 -99.843262 -27.178955

v 235.081482 -104.856506 -27.221527

v 239.177551 -102.562531 -27.236633

v 242.014771 -100.382996 -26.480347

v 234.521454 -106.018738 -26.443604

v 240.913513 -102.204834 -26.380737

v 239.979126 -103.542725 -26.352783

v 235.924683 -106.030762 -26.348877

v 197.884705 -86.598633 -24.406250

v 200.296646 -87.215027 -22.490906

v 202.893799 -85.487061 -24.591553

v 187.724365 -94.799194 -24.437988

v 214.627182 -80.300964 -24.428650

v 209.980743 -83.171387 -24.093506

v 208.983643 -84.625488 -23.037598

v 216.296524 -79.905273 -24.457520

v 184.006348 -100.419922 -24.148438

v 221.559204 -80.602295 -23.359375

v 181.809814 -102.550171 -24.951660

v 180.958252 -103.707596 -24.354980

v 224.745834 -79.895874 -23.346436

v 179.125687 -105.701904 -23.376221

v 178.075500 -107.523560 -24.727295

v 226.662109 -79.526947 -24.505981

v 177.649658 -110.542023 -24.893555

v 230.062744 -79.437378 -24.141602

v 179.079041 -114.472046 -25.171387

v 177.383636 -113.305222 -22.846375

v 242.070679 -80.381790 -24.418869

v 181.450562 -118.416260 -24.130371

v 243.385071 -80.921341 -23.348587

v 244.988358 -81.846230 -22.893402

v 245.490967 -83.372803 -24.787109

v 184.950195 -119.485840 -24.769043

v 247.251282 -84.175850 -22.551392

v 186.550552 -121.139587 -22.854248

v 248.004730 -85.950012 -22.865967

v 248.958191 -87.719879 -22.441650

v 247.623779 -89.113434 -24.031982

v 194.908478 -122.291412 -22.652771

v 245.613159 -93.945801 -24.345947

v 202.136719 -120.246094 -25.382813

v 227.215637 -107.882446 -25.062134

v 223.730103 -109.342224 -25.170410

v 221.495605 -111.591209 -25.017700

v 231.271820 -106.686279 -25.332092

v 244.689941 -98.891327 -23.661133

v 217.648438 -115.459229 -24.855469

v 212.980469 -117.127563 -25.210449

v 209.400391 -119.230957 -24.278320

v 207.280762 -120.596313 -22.697510

v 212.164063 -119.909180 -22.345703

v 232.454102 -107.606934 -24.450684

v 242.732056 -103.656738 -22.250488

v 238.458008 -106.730469 -23.488281

v 195.317322 -88.728210 -22.660950

v 198.230362 -87.667542 -22.480164

v 193.346680 -91.632813 -21.516602

v 191.215820 -92.106934 -22.497559

v 188.754822 -94.445801 -22.400391

v 203.032043 -86.589722 -22.532288

v 187.373962 -96.037720 -22.694824

v 205.056854 -86.126038 -22.598877

v 217.072266 -81.821289 -23.016846

v 185.914383 -99.234436 -21.051514

v 213.117188 -84.064453 -22.778809

v 184.171722 -101.610840 -20.665161

v 182.090088 -103.623169 -20.793701

v 223.090088 -80.995605 -21.747559

v 177.903503 -108.000183 -22.896973

v 227.610794 -80.384521 -20.485596

v 177.246857 -111.097107 -22.754326

v 177.363007 -112.398331 -22.592651

v 177.880219 -114.550125 -22.937439

v 177.948303 -115.541290 -22.860413

v 240.969910 -80.262817 -22.641113

v 179.823090 -118.879913 -22.772873

v 180.793610 -119.621277 -22.599426

v 245.824860 -82.798409 -22.736725

v 183.069916 -121.101868 -22.243774

v 248.112366 -85.175926 -22.452606

v 189.900055 -121.707947 -22.773376

v 192.446564 -122.244598 -22.540649

v 249.216492 -88.520279 -22.140503

v 249.074951 -90.331543 -22.612061

v 197.122345 -122.012421 -22.772766

v 198.931610 -121.770752 -22.722626

v 247.333496 -96.540649 -22.483398

v 200.686218 -121.576416 -22.654297

v 202.330124 -121.140747 -22.781006

v 203.923157 -121.078125 -22.717896

v 227.054688 -109.906250 -23.097656

v 220.231201 -115.320435 -22.979980

v 216.889526 -117.750854 -22.779541

v 243.997314 -102.344391 -21.293945

v 235.312866 -109.711792 -20.572021

v 241.404526 -105.088379 -22.579102

v 197.111084 -90.612793 -21.040527

v 189.827118 -95.076660 -20.638916

v 203.577637 -88.972168 -21.016846

v 187.951172 -97.356445 -20.503906

v 205.062424 -88.812378 -20.852417

v 207.769302 -87.980896 -20.724243

v 210.822754 -86.702637 -20.832764

v 215.091797 -85.490234 -20.767578

v 179.796143 -106.106812 -20.911621

v 219.154175 -83.828369 -20.573853

v 223.882568 -81.199219 -20.404297

v 178.651489 -109.892471 -19.066101

v 177.585388 -110.788773 -20.856689

v 232.269897 -80.920898 -19.188477

v 177.679138 -114.075531 -20.375732

v 236.265945 -80.776733 -19.702637

v 177.725266 -116.081009 -20.960068

v 240.237061 -81.143555 -19.410156

v 179.255142 -119.087555 -21.068604

v 243.865845 -82.087662 -18.919800

v 180.563477 -121.065018 -20.832153

v 246.016342 -83.291504 -19.592773

v 181.963379 -122.461555 -20.842442

v 247.137177 -84.336258 -19.789307

v 182.887451 -123.084106 -20.876907

v 188.181946 -122.289368 -22.170868

v 183.982986 -123.880325 -20.864235

v 186.275772 -123.982666 -21.523529

v 249.099762 -87.004471 -18.759033

v 185.742126 -124.736748 -20.896732

v 189.874420 -124.584839 -21.552063

v 250.012543 -89.883881 -20.112915

v 188.929230 -125.629501 -20.868706

v 193.918030 -124.533691 -21.447998

v 190.715744 -125.493401 -20.858688

v 192.642029 -125.355072 -20.902252

v 250.274429 -91.742439 -19.711914

v 198.110168 -124.454224 -20.909790

v 249.752289 -93.617706 -20.615295

v 194.477936 -125.274719 -20.847229

v 199.528503 -124.189026 -20.887817

v 248.061981 -97.917854 -20.616333

v 201.482513 -123.775757 -20.828369

v 205.223343 -122.954224 -20.641968

v 247.126221 -99.162964 -20.633179

v 246.337952 -100.328613 -20.612793

v 210.779297 -121.883057 -20.160156

v 228.661621 -111.774780 -20.292725

v 224.759033 -113.923340 -20.465088

v 231.699402 -110.402466 -20.571655

v 217.311890 -118.453369 -20.792847

v 220.743515 -116.416260 -20.710327

v 219.120605 -118.067139 -20.439453

v 240.012695 -108.083984 -19.443359

v 238.395294 -109.223145 -19.689453

v 195.389648 -94.246094 -19.020508

v 199.226563 -92.187500 -19.046875

v 191.580078 -97.684814 -18.458496

v 186.495926 -101.314941 -18.721802

v 202.403809 -93.273438 -16.604004

v 205.980469 -90.074219 -18.517578

v 182.329895 -104.863312 -18.765381

v 209.302979 -89.818481 -16.824707

v 212.212357 -87.701660 -18.687500

v 181.077087 -106.511322 -18.704163

v 217.936340 -86.218079 -16.919922

v 215.538696 -87.330566 -17.003418

v 220.957428 -84.246521 -16.783325

v 179.761963 -108.152832 -18.907959

v 225.961792 -82.398987 -16.783447

v 227.859329 -82.053894 -16.707275

v 178.439575 -110.898972 -18.939819

v 229.306564 -81.781036 -16.805420

v 178.191437 -113.801575 -18.872559

v 177.968323 -115.543457 -18.979462

v 178.416016 -116.416107 -18.873535

v 178.277588 -117.250908 -18.963295

v 179.811218 -119.926941 -18.695007

v 181.119385 -121.446098 -18.892914

v 182.394455 -122.909439 -18.234619

v 247.776169 -85.201759 -17.395386

v 183.734085 -123.957497 -19.640289

v 185.418961 -124.918419 -18.436420

v 187.260620 -125.506805 -17.501373

v 250.065353 -88.836121 -16.810333

v 189.866241 -125.887711 -18.673950

v 192.084229 -126.030365 -18.988770

v 194.462372 -126.034134 -18.990479

v 249.957565 -93.952576 -18.517700

v 197.515625 -125.568970 -18.968994

v 201.516113 -124.629089 -18.989014

v 249.399872 -95.776672 -18.094360

v 247.923111 -98.513435 -18.637939

v 246.737732 -100.541138 -18.306152

v 245.826370 -102.483078 -16.744751

v 244.049194 -102.935913 -18.717285

v 214.872803 -121.488525 -18.775879

v 243.825806 -103.707550 -18.703857

v 243.347961 -104.317017 -18.598877

v 229.722168 -114.086426 -18.729004

v 217.706055 -120.725098 -18.747070

v 242.132813 -106.463287 -18.075195

v 235.178711 -112.063721 -18.882080

v 224.895020 -119.450867 -16.956055

v 223.112305 -117.500000 -18.979492

v 197.915527 -94.958984 -17.069824

v 195.028687 -97.149414 -17.357910

v 197.029984 -97.031250 -16.181641

v 192.465820 -99.500122 -17.284668

v 206.744629 -91.639648 -16.451172

v 189.878754 -101.899902 -17.006592

v 186.909302 -104.540527 -17.060181

v 184.610291 -106.637207 -17.178467

v 212.873169 -89.383789 -16.441406

v 223.884766 -83.096558 -16.762573

v 182.332947 -109.925873 -17.189880

v 179.338623 -110.655640 -18.340088

v 180.614746 -113.045776 -17.354126

v 232.083496 -81.861633 -16.692749

v 232.948975 -82.007324 -16.539795

v 235.906769 -81.706787 -16.652710

v 237.835052 -81.709717 -16.643555

v 180.396851 -115.408279 -16.845947

v 240.872910 -81.743774 -16.697540

v 180.187988 -118.181396 -16.969971

v 180.632202 -120.284210 -17.484863

v 243.365494 -82.387535 -16.558460

v 245.564316 -83.403465 -16.670929

v 246.931900 -84.269012 -17.032501

v 184.068283 -124.013687 -15.158524

v 186.827301 -125.386536 -15.165105

v 189.626068 -125.811172 -15.179588

v 250.180206 -90.877808 -16.572388

v 192.055939 -126.184967 -16.941956

v 194.410309 -126.105576 -17.048401

v 197.836823 -125.797882 -17.165642

v 247.578064 -98.994537 -16.623535

v 206.941406 -124.160156 -16.148438

v 246.535187 -101.433167 -16.706177

v 212.059082 -122.874512 -17.264648

v 245.736115 -103.015518 -16.818298

v 245.061981 -103.624336 -16.805893

v 244.979095 -104.109756 -16.720703

v 243.848969 -105.211441 -16.785172

v 243.399277 -105.897842 -16.771851

v 220.431641 -120.941742 -17.173828

v 243.046295 -106.736900 -16.788208

v 241.945938 -107.492584 -16.899597

v 218.756195 -123.191162 -14.649902

v 241.748596 -108.035698 -16.811584

v 239.934708 -109.575455 -16.920715

v 232.286621 -115.151855 -16.796143

v 238.610260 -110.757172 -16.854614

v 238.222824 -111.450699 -16.833862

v 235.798340 -113.000732 -16.851563

v 199.130859 -98.700684 -14.252899

v 196.013199 -99.650146 -14.769470

v 190.009369 -103.351074 -14.957886

v 202.093750 -96.733185 -14.339478

v 204.693359 -95.103516 -14.640137

v 210.468750 -91.238281 -15.505859

v 187.760376 -105.390808 -15.019653

v 219.896912 -87.582642 -14.403320

v 225.465698 -85.275879 -14.432312

v 215.410400 -90.364746 -14.437378

v 212.774902 -92.311523 -13.681152

v 185.624634 -107.254181 -15.053040

v 184.338745 -108.838867 -15.029968

v 183.245544 -110.538696 -15.098389

v 232.354614 -83.940491 -14.478516

v 182.522034 -112.193542 -15.053467

v 181.501709 -115.357292 -14.938416

v 237.987961 -83.080688 -14.598633

v 180.792786 -117.040794 -15.107300

v 242.107208 -83.103683 -14.745789

v 180.679810 -119.061134 -15.173538

v 182.958191 -122.864487 -15.133484

v 245.887009 -84.528717 -14.766913

v 247.495041 -85.066628 -14.791470

v 248.485947 -85.626381 -14.822380

v 184.938492 -124.473984 -15.130947

v 249.627426 -88.072403 -14.847687

v 248.714966 -91.901672 -13.341309

v 191.597168 -125.892288 -15.129272

v 192.880554 -125.819870 -15.124893

v 248.746338 -94.693115 -14.932617

v 194.173782 -125.653015 -15.107193

v 195.949677 -125.373871 -15.024719

v 197.625732 -125.131470 -14.356079

v 199.059265 -125.420731 -14.837769

v 201.817993 -125.290108 -15.139282

v 246.355591 -98.569794 -12.152832

v 204.431763 -125.314056 -13.669922

v 245.178223 -102.875916 -14.990234

v 244.442383 -103.940918 -14.786133

v 209.674805 -124.581299 -14.612305

v 242.855225 -105.802002 -13.905273

v 214.818359 -123.946289 -14.821289

v 240.014771 -108.774902 -13.013672

v 235.072693 -113.786774 -11.662598

v 233.596924 -114.900269 -14.342773

v 227.546082 -119.094604 -14.466797

v 224.961792 -120.812744 -13.898926

v 190.963928 -103.792908 -14.318054

v 207.839096 -95.578125 -13.348145

v 188.667725 -105.842178 -14.346497

v 205.080322 -97.397095 -13.505737

v 195.194458 -102.397522 -14.079674

v 201.496399 -100.703430 -13.825104

v 189.138794 -106.858521 -14.095913

v 186.375977 -108.275276 -14.263855

v 198.139587 -104.655472 -13.916580

v 184.573364 -110.344177 -14.348633

v 224.729431 -87.883911 -13.614624

v 215.760315 -92.774780 -12.974503

v 217.590332 -91.492065 -13.654663

v 202.939453 -100.631226 -13.070068

v 185.650146 -110.550491 -14.120846

v 183.990662 -112.140137 -14.195709

v 195.728516 -108.743240 -14.014458

v 227.572510 -87.004028 -13.611694

v 219.434998 -91.928314 -12.987183

v 216.941269 -92.861420 -12.951141

v 200.958801 -102.835648 -13.135986

v 231.657822 -86.619934 -13.296021

v 226.336548 -88.350769 -12.906769

v 224.718170 -88.922302 -12.857849

v 228.124069 -87.844864 -12.957947

v 199.025146 -105.549866 -13.067383

v 182.353821 -116.414001 -14.229919

v 235.243134 -86.169312 -13.447815

v 198.128906 -107.352417 -13.112854

v 194.495544 -112.074409 -14.013031

v 196.802551 -109.619423 -13.352661

v 185.228394 -118.666016 -14.141087

v 240.885895 -83.836670 -14.128326

v 182.095947 -118.891014 -14.274384

v 192.752319 -116.882141 -14.028465

v 241.011566 -86.215790 -13.504242

v 196.021698 -111.897827 -13.215576

v 246.418304 -85.678238 -14.069393

v 235.203079 -88.060364 -12.089081

v 184.542908 -122.430542 -14.248184

v 194.775635 -114.684128 -13.280090

v 246.970947 -88.163322 -13.410530

v 193.848022 -118.016510 -13.256958

v 192.221771 -121.011429 -14.056408

v 243.903442 -88.899246 -12.138268

v 187.236282 -123.626244 -14.178843

v 248.615845 -87.035156 -14.425903

v 193.613403 -120.172791 -13.325317

v 191.359375 -124.545067 -14.252201

v 248.797852 -89.530640 -13.799805

v 248.356476 -90.068222 -12.918243

v 195.091568 -123.114441 -13.612167

v 194.367920 -124.546082 -14.311890

v 196.201248 -123.858551 -13.542450

v 247.348633 -94.987366 -12.581787

v 246.781250 -96.516235 -12.370117

v 201.216827 -125.233734 -12.939697

v 203.346237 -125.342659 -13.133537

v 245.938599 -99.811707 -11.813477

v 208.132690 -125.261963 -12.887695

v 245.450745 -101.076538 -11.525391

v 213.180115 -125.460205 -11.232910

v 231.083466 -117.352631 -11.303284

v 219.432693 -124.032104 -11.502441

v 214.961670 -93.552490 -11.392822

v 207.490417 -97.705566 -11.387451

v 205.258667 -99.727234 -11.233887

v 216.681458 -93.355469 -10.958984

v 203.085449 -101.648285 -11.485352

v 220.580566 -91.881592 -11.629883

v 200.966980 -104.686432 -11.059570

v 227.124573 -89.570313 -9.069977

v 229.988571 -88.155396 -11.528076

v 198.710510 -107.891609 -11.307373

v 233.483978 -88.094421 -11.733398

v 233.500732 -89.927429 -9.088684

v 197.410355 -110.739685 -11.416504

v 234.920761 -89.481934 -10.995148

v 240.692200 -87.834473 -12.304230

v 236.089050 -90.248306 -10.962826

v 195.685547 -114.922485 -11.206543

v 237.752930 -89.796967 -11.703415

v 241.842880 -91.569382 -11.705116

v 238.395691 -91.188553 -10.955589

v 194.817871 -118.623749 -11.413330

v 240.787766 -92.175369 -10.947113

v 246.794724 -91.218636 -11.989105

v 245.196442 -93.491547 -11.742493

v 242.479858 -93.048676 -10.950546

v 195.754333 -121.710297 -11.555786

v 243.920303 -93.949791 -10.933563

v 246.982788 -93.300232 -12.148193

v 245.741028 -95.405823 -10.970642

v 198.003174 -123.763138 -11.415985

v 202.811035 -124.913818 -11.440918

v 204.729919 -125.270462 -11.505066

v 209.209991 -125.770363 -11.217712

v 242.078339 -106.054077 -10.277588

v 240.341461 -108.134491 -9.540039

v 211.056091 -125.552124 -11.689941

v 215.135559 -125.385376 -10.739746

v 216.909698 -125.423515 -9.285849

v 227.503326 -119.763618 -11.212311

v 224.176086 -121.923401 -11.170288

v 209.908569 -97.266113 -9.060547

v 216.795654 -93.718872 -9.030762

v 214.008301 -96.030518 -7.294800

v 207.511292 -99.842041 -7.212952

v 219.863190 -92.501648 -9.126831

v 225.552979 -89.604042 -9.150864

v 220.807175 -92.485260 -8.983032

v 202.888824 -103.417969 -7.097900

v 229.169098 -89.504303 -8.998077

v 200.198288 -106.644562 -7.285034

v 200.929230 -105.661621 -7.262329

v 199.062943 -108.386017 -7.226196

v 235.088120 -90.673813 -9.225822

v 197.357483 -112.269958 -7.088623

v 197.001221 -114.756714 -6.190186

v 237.714386 -91.777145 -9.056156

v 195.744873 -118.341309 -8.429688

v 239.895721 -92.903656 -8.706009

v 195.917694 -120.736603 -8.933105

v 242.054169 -93.848434 -8.775757

v 197.464844 -123.066574 -9.368508

v 244.617310 -95.520203 -8.969482

v 245.786743 -97.407410 -9.012451

v 199.713791 -123.762924 -8.650954

v 245.810287 -99.785736 -9.004272

v 203.866882 -124.197998 -6.458984

v 208.813904 -125.628113 -9.261414

v 244.179260 -103.384552 -9.347656

v 242.893356 -104.992043 -7.363647

v 210.184464 -125.789520 -9.301346

v 238.190170 -110.389648 -8.679443

v 211.792145 -125.942535 -9.248634

v 213.005188 -125.882050 -9.246750

v 235.837646 -112.573486 -8.610596

v 214.186630 -125.807838 -9.255661

v 232.449219 -115.379150 -8.677246

v 215.696365 -125.590088 -9.265247

v 218.762421 -124.433167 -9.376495

v 228.260742 -118.158081 -6.807129

v 223.850494 -122.050224 -9.330139

v 219.443985 -124.473572 -9.298523

v 209.799255 -98.007401 -7.343994

v 204.041763 -102.205505 -7.193970

v 220.318115 -94.004639 -7.167114

v 217.322433 -94.610352 -7.224609

v 224.076691 -92.528320 -7.865784

v 227.172791 -90.549194 -8.377197

v 202.200958 -104.251648 -7.224915

v 222.892258 -94.494293 -6.522018

v 232.720230 -90.613800 -8.455750

v 228.292755 -92.355743 -7.920837

v 198.127197 -109.880280 -7.269165

v 233.757996 -93.515015 -7.673889

v 229.344727 -94.661133 -6.524109

v 237.005096 -92.339203 -8.410034

v 236.052048 -93.793274 -7.474335

v 237.627563 -94.208191 -7.095032

v 239.792450 -94.379456 -7.081909

v 242.418686 -94.980255 -7.003845

v 196.643173 -122.505081 -7.163086

v 244.397705 -96.675812 -7.649170

v 197.872879 -123.576675 -6.729797

v 244.191895 -98.969437 -5.221436

v 201.728088 -124.137131 -5.544983

v 245.230835 -100.581726 -6.956543

v 244.862244 -102.750542 -7.211304

v 207.924316 -124.467041 -6.728271

v 243.835297 -103.898361 -7.173615

v 242.128372 -105.965088 -7.361023

v 241.392700 -107.071907 -7.203583

v 211.804688 -124.726074 -7.258789

v 239.932251 -108.261856 -7.171326

v 238.095642 -110.114960 -7.174438

v 215.147217 -125.323975 -8.709473

v 217.732117 -123.845947 -7.276367

v 220.852539 -122.677734 -7.009766

v 210.602539 -98.796875 -6.567871

v 209.414063 -101.300537 -5.471191

v 214.897827 -96.764282 -6.550476

v 219.273804 -95.255737 -6.468948

v 213.215576 -99.823975 -5.551819

v 215.977081 -98.985016 -5.667328

v 206.006348 -104.912354 -4.442871

v 202.492859 -106.235413 -5.104675

v 217.734116 -98.136536 -5.956726

v 221.960968 -97.488220 -6.011841

v 200.012741 -108.934448 -5.239868

v 218.823029 -98.702942 -5.436829

v 226.441025 -97.064819 -5.997681

v 198.056274 -112.464844 -5.191406

v 224.593262 -98.250854 -5.292603

v 197.276184 -114.350494 -5.418579

v 232.104248 -95.431152 -6.027710

v 226.689941 -98.084045 -5.176025

v 228.459167 -97.622437 -5.284607

v 196.674805 -117.839844 -5.140625

v 235.629730 -95.367432 -5.272217

v 233.158936 -96.745605 -4.203613

v 237.438812 -95.326813 -5.186096

v 195.912689 -121.559120 -5.395874

v 240.455856 -95.423004 -5.160599

v 196.323105 -122.604408 -5.627772

v 242.363235 -95.677200 -5.267036

v 197.164917 -123.800697 -5.451020

v 196.139557 -123.328247 -5.487350

v 198.750275 -124.193115 -5.686646

v 200.009705 -124.219696 -5.313656

v 244.232056 -100.095169 -5.207642

v 243.800720 -101.784180 -5.243530

v 205.418732 -122.920776 -3.680908

v 244.339966 -102.949547 -6.944092

v 241.440674 -104.173401 -5.083618

v 241.381836 -105.876465 -6.392578

v 238.125977 -107.608398 -5.157227

v 214.345367 -123.064453 -5.361328

v 236.027832 -109.891602 -5.388672

v 231.023438 -112.611816 -3.274902

v 217.198486 -121.511353 -3.378174

v 222.914032 -120.065308 -3.548584

v 220.855713 -121.092285 -3.811523

v 207.926270 -104.566406 -3.496216

v 210.486694 -102.454590 -3.639893

v 214.476440 -100.506592 -3.814453

v 206.849579 -105.821899 -3.437378

v 205.150909 -107.397095 -3.569702

v 201.722900 -111.184448 -3.765137

v 219.665527 -99.687988 -3.799805

v 222.370560 -99.801392 -3.427490

v 223.459518 -99.674072 -3.500732

v 198.596191 -115.968689 -3.169312

v 197.202332 -118.295624 -3.517731

v 231.531250 -99.135132 -1.492920

v 230.104736 -99.225616 -1.471741

v 235.582184 -96.970764 -3.921417

v 238.175903 -96.242584 -4.543640

v 196.593475 -121.783531 -3.519470

v 238.261749 -98.731293 -4.089462

v 241.403381 -96.879517 -4.381887

v 237.311401 -99.308167 -3.263000

v 196.609238 -122.930817 -3.527321

v 197.157257 -123.886940 -3.532091

v 199.445953 -124.123314 -3.507465

v 243.054474 -99.752441 -4.361084

v 238.817627 -102.427750 -3.850098

v 240.265747 -103.160263 -4.296478

v 201.341278 -123.736923 -3.525497

v 204.006165 -123.093109 -3.514221

v 238.413086 -104.950317 -3.844971

v 209.637329 -121.556396 -3.046143

v 236.073853 -107.857056 -3.123169

v 211.985886 -122.030701 -3.365967

v 233.870605 -109.811523 -3.167236

v 213.908142 -121.894165 -3.385986

v 225.878662 -117.325684 -3.162598

v 227.848633 -113.736328 -1.543945

v 213.353516 -101.800293 -1.619141

v 208.612854 -105.704361 0.413330

v 218.041504 -101.156982 -0.740723

v 207.466888 -107.402100 0.354980

v 205.593262 -108.533691 -1.631836

v 203.568115 -111.205078 -2.255859

v 220.904968 -101.233185 0.335693

v 222.186768 -100.457275 -1.122070

v 224.096497 -100.254883 -1.158691

v 226.516998 -99.968140 -1.099487

v 202.207031 -114.697998 -1.963257

v 228.346939 -99.478638 -1.422485

v 201.159546 -116.883240 -2.135498

v 198.112488 -119.204773 -2.764008

v 200.881226 -119.008995 -2.209473

v 234.573486 -99.891296 -1.678711

v 233.982361 -100.364197 -1.053223

v 201.709030 -120.547615 -2.300165

v 197.076263 -122.878662 -3.404251

v 198.526123 -122.532036 -2.640305

v 202.915756 -120.156036 -1.547058

v 203.980438 -120.758118 -2.051208

v 201.086197 -122.851074 -2.885071

v 235.788574 -104.408112 -2.080322

v 204.224045 -122.452148 -3.026123

v 207.508301 -120.246460 -1.705811

v 232.858826 -105.608704 -0.645752

v 232.208862 -107.693848 -1.320801

v 210.084915 -119.703674 -1.668091

v 214.855469 -119.477783 -1.704712

v 219.123108 -119.304932 -1.158691

v 222.076660 -117.849365 -1.298828

v 215.546021 -102.217224 0.354980

v 212.824539 -103.072205 0.414124

v 218.355316 -101.782257 0.467041

v 206.308350 -109.317886 0.427673

v 221.961609 -101.063873 0.512817

v 204.894165 -112.723816 0.531006

v 223.439072 -100.906784 0.482727

v 225.135361 -100.846649 0.503601

v 226.815826 -101.219658 0.456284

v 228.720764 -100.306885 -0.730286

v 203.831055 -115.643555 -0.017578

v 232.208710 -100.531502 -0.530605

v 229.376205 -101.771812 -0.307724

v 226.612000 -102.533882 1.314140

v 204.162354 -117.923706 -0.174561

v 230.309448 -104.877411 -0.143921

v 205.060486 -115.981262 1.006378

v 205.133820 -118.492088 0.120575

v 227.949890 -104.955170 1.319733

v 233.911133 -103.614868 -0.767334

v 207.395020 -118.857391 0.409241

v 230.568726 -107.298462 -0.409973

v 209.316376 -118.607422 0.276245

v 228.117676 -107.624329 1.367004

v 213.124329 -117.944092 0.485840

v 228.627930 -109.553223 0.425781

v 218.616089 -116.512207 -0.018433

v 217.941849 -115.323395 0.974640

v 215.757858 -116.422668 0.882904

v 215.711639 -118.400757 -0.602478

v 226.841553 -112.679688 -0.309570

v 226.646851 -110.837646 0.965820

v 221.787109 -115.520752 -0.153320

v 218.841248 -115.271698 0.846924

v 221.902649 -114.047150 0.843414

v 213.043640 -104.119751 1.173401

v 216.948364 -103.467293 1.366877

v 209.350464 -107.089928 1.289703

v 214.370728 -104.605476 1.379725

v 207.538361 -109.712357 1.245850

v 221.892044 -102.590965 1.370449

v 206.091858 -112.993225 1.246902

v 223.916901 -101.659973 1.067627

v 211.215881 -116.886620 1.318592

v 206.877625 -117.506912 1.250160

v 215.467499 -115.374657 1.313074

v 221.472183 -113.009018 1.332464

v 218.421158 -114.226257 1.326302

v 214.856537 -116.215141 1.162148

v 215.334839 -116.228745 2.322901

v 221.013458 -114.089294 1.013763

v 218.408295 -115.033760 2.337379

v 221.481766 -113.838806 2.351852

f 1 2 3
f 2 4 5
f 3 2 5
f 6 1 3
f 4 7 8
f 8 9 4
f 5 4 9
f 3 10 6
f 9 3 5
f 11 10 12
f 3 12 10
f 9 8 13
f 12 14 11
f 9 13 15
f 3 14 12
f 16 15 13
f 3 9 17
f 15 17 9
f 18 14 19
f 20 15 16
f 17 15 20
f 14 3 17
f 17 21 14
f 21 19 14
f 17 20 22
f 23 17 22
f 23 24 17
f 21 17 24
f 19 21 25
f 24 25 21
f 2 26 27
f 26 2 1
f 1 28 26
f 7 27 29
f 27 7 4
f 27 4 2
f 1 6 28
f 30 28 6
f 30 6 10
f 30 10 31
f 32 33 34
f 34 35 32
f 36 32 35
f 34 33 37
f 35 38 36
f 39 8 29
f 8 7 29
f 31 10 11
f 11 40 31
f 11 37 40
f 33 40 37
f 38 35 41
f 34 37 18
f 34 42 35
f 13 8 39
f 39 43 13
f 41 35 42
f 11 14 37
f 42 44 41
f 37 14 18
f 18 45 34
f 45 42 34
f 16 13 43
f 46 16 43
f 47 44 42
f 16 46 48
f 16 48 20
f 45 18 49
f 45 47 42
f 18 19 50
f 20 48 22
f 50 49 18
f 45 51 47
f 50 52 49
f 49 51 45
f 53 22 48
f 19 25 54
f 50 19 54
f 51 49 55
f 53 23 22
f 52 50 54
f 49 52 55
f 23 56 24
f 25 24 54
f 57 52 54
f 56 54 24
f 28 30 58
f 31 33 59
f 60 59 33
f 61 60 33
f 32 61 33
f 62 32 63
f 27 26 64
f 33 31 40
f 36 63 32
f 29 64 65
f 64 29 27
f 63 38 66
f 36 38 63
f 38 67 66
f 68 69 70
f 70 71 68
f 71 65 68
f 39 29 65
f 67 38 72
f 73 67 72
f 69 74 75
f 75 70 69
f 71 39 65
f 41 72 38
f 72 76 73
f 77 73 76
f 71 70 78
f 71 43 39
f 41 79 72
f 70 75 78
f 43 71 80
f 41 44 79
f 72 79 76
f 79 81 76
f 80 71 78
f 80 46 43
f 44 82 79
f 78 83 84
f 80 78 85
f 46 80 85
f 44 47 86
f 86 82 44
f 47 51 86
f 87 78 84
f 85 78 87
f 85 88 46
f 48 46 88
f 86 51 89
f 89 51 55
f 53 48 88
f 88 90 53
f 55 52 91
f 91 92 55
f 89 55 92
f 53 56 23
f 53 93 56
f 56 94 54
f 57 54 94
f 52 57 94
f 94 95 52
f 91 52 95
f 95 96 91
f 93 94 56
f 97 98 59
f 59 60 97
f 97 60 61
f 61 99 97
f 100 58 30
f 98 100 30
f 31 59 98
f 98 30 31
f 32 99 61
f 62 99 32
f 101 26 28
f 28 102 101
f 102 28 58
f 63 103 62
f 65 64 104
f 26 101 64
f 103 63 66
f 66 105 103
f 106 69 104
f 69 68 104
f 104 68 65
f 67 105 66
f 107 69 106
f 67 73 108
f 107 74 69
f 107 109 110
f 110 74 107
f 73 77 108
f 111 108 77
f 112 110 109
f 75 74 110
f 108 111 113
f 114 112 109
f 77 76 111
f 75 110 112
f 76 81 111
f 113 111 81
f 81 115 113
f 115 116 113
f 114 117 118
f 112 114 118
f 112 83 75
f 75 83 78
f 83 112 119
f 120 115 81
f 118 119 112
f 81 79 82
f 82 120 81
f 115 120 121
f 117 122 118
f 84 83 119
f 120 82 123
f 118 122 124
f 125 82 86
f 123 121 120
f 124 126 118
f 89 125 86
f 127 121 123
f 119 118 128
f 87 88 85
f 125 89 92
f 125 123 82
f 92 91 96
f 129 126 124
f 128 118 126
f 128 130 119
f 84 119 130
f 87 84 131
f 88 87 131
f 90 93 53
f 92 132 125
f 132 127 125
f 123 125 127
f 126 129 133
f 131 84 130
f 94 93 134
f 127 135 121
f 136 121 135
f 90 88 137
f 137 93 90
f 95 138 96
f 92 96 138
f 138 132 92
f 128 126 139
f 131 137 88
f 94 140 95
f 138 95 140
f 139 126 133
f 137 141 93
f 134 93 141
f 134 140 94
f 142 139 133
f 141 140 134
f 140 143 138
f 139 144 128
f 128 145 130
f 130 146 131
f 132 138 143
f 137 131 146
f 141 137 147
f 148 100 98
f 98 149 148
f 149 98 150
f 150 98 97
f 151 58 100
f 100 148 151
f 99 152 97
f 153 102 154
f 151 154 102
f 102 58 151
f 99 155 152
f 155 99 62
f 153 156 101
f 102 153 101
f 62 103 155
f 157 104 158
f 159 158 104
f 104 64 159
f 156 159 64
f 64 101 156
f 106 157 160
f 157 106 104
f 161 107 160
f 160 107 106
f 67 162 105
f 162 67 108
f 163 109 161
f 161 109 107
f 162 108 164
f 109 163 165
f 108 113 164
f 113 166 164
f 165 114 109
f 116 166 113
f 166 116 167
f 114 165 168
f 168 117 114
f 116 169 167
f 167 169 170
f 169 116 115
f 171 172 169
f 170 169 172
f 117 168 173
f 169 115 171
f 172 174 170
f 173 122 117
f 174 172 175
f 176 122 173
f 121 171 115
f 171 175 172
f 175 177 174
f 121 136 171
f 176 124 122
f 175 178 177
f 179 124 176
f 124 179 129
f 136 180 171
f 180 175 171
f 180 178 175
f 136 135 180
f 133 129 181
f 140 141 147
f 132 182 127
f 135 127 182
f 180 135 183
f 181 184 133
f 142 144 139
f 144 145 128
f 132 143 182
f 184 142 133
f 142 185 144
f 145 146 130
f 147 137 146
f 140 147 186
f 143 140 186
f 143 187 182
f 183 135 182
f 183 188 180
f 142 184 189
f 145 144 185
f 145 190 146
f 191 187 143
f 190 192 146
f 147 146 192
f 192 193 147
f 186 191 143
f 194 183 182
f 185 190 145
f 191 186 195
f 185 142 189
f 189 196 185
f 190 185 196
f 190 197 192
f 193 186 147
f 189 184 198
f 199 186 193
f 196 189 200
f 190 196 197
f 193 192 201
f 202 189 198
f 200 189 202
f 197 196 203
f 203 204 197
f 205 197 204
f 192 197 205
f 202 206 200
f 196 200 206
f 206 203 196
f 204 203 207
f 208 148 149
f 149 209 208
f 149 150 209
f 151 208 210
f 208 151 148
f 97 152 150
f 151 210 154
f 211 210 208
f 208 212 211
f 212 208 209
f 159 213 214
f 213 159 156
f 213 156 153
f 158 215 157
f 215 158 159
f 159 214 215
f 153 216 213
f 216 153 154
f 216 154 210
f 103 217 155
f 105 217 103
f 157 218 160
f 157 215 218
f 219 161 160
f 219 160 218
f 105 162 217
f 220 217 162
f 219 221 161
f 221 163 161
f 162 222 220
f 162 164 222
f 222 164 166
f 165 163 221
f 221 223 165
f 224 166 167
f 223 168 165
f 168 223 225
f 226 224 167
f 167 170 226
f 168 225 227
f 170 228 226
f 227 173 168
f 170 174 228
f 227 229 173
f 174 230 228
f 176 173 229
f 230 174 177
f 177 231 230
f 229 179 176
f 178 231 177
f 179 229 232
f 178 233 231
f 233 234 231
f 129 179 232
f 233 178 235
f 232 236 181
f 232 181 129
f 178 180 235
f 181 236 237
f 237 238 181
f 234 233 239
f 235 239 233
f 235 180 188
f 238 198 181
f 181 198 184
f 239 235 240
f 188 183 194
f 198 238 241
f 188 242 235
f 240 235 242
f 187 191 195
f 187 194 182
f 199 243 186
f 243 195 186
f 201 199 193
f 188 194 244
f 244 242 188
f 241 245 198
f 187 195 246
f 246 247 187
f 244 194 248
f 201 192 205
f 195 243 249
f 194 187 247
f 247 248 194
f 244 250 242
f 240 242 250
f 201 205 251
f 199 201 252
f 243 199 253
f 253 249 243
f 246 195 249
f 202 198 245
f 251 252 201
f 252 254 199
f 254 253 199
f 206 207 203
f 207 255 204
f 205 204 255
f 251 205 256
f 257 247 246
f 244 248 258
f 255 256 205
f 259 202 245
f 206 202 259
f 207 206 259
f 259 260 207
f 255 207 260
f 260 261 255
f 259 245 262
f 263 209 150
f 150 264 263
f 264 150 152
f 152 265 264
f 266 209 263
f 155 265 152
f 212 209 266
f 267 214 213
f 211 216 210
f 268 215 214
f 268 214 267
f 215 268 218
f 220 269 217
f 218 270 219
f 270 218 268
f 166 271 222
f 272 223 221
f 271 166 224
f 224 273 271
f 223 272 274
f 275 273 224
f 223 274 225
f 224 226 275
f 228 276 226
f 276 228 230
f 276 230 277
f 227 278 229
f 230 231 277
f 277 231 279
f 232 278 280
f 278 232 229
f 279 231 234
f 280 236 232
f 234 281 279
f 237 236 280
f 282 237 280
f 239 283 234
f 281 234 283
f 237 282 284
f 284 238 237
f 283 239 240
f 238 284 285
f 238 285 241
f 250 283 240
f 286 241 285
f 283 250 287
f 248 247 257
f 248 257 258
f 244 288 250
f 241 286 245
f 251 256 289
f 290 257 246
f 287 250 288
f 254 252 291
f 290 246 249
f 258 257 292
f 244 258 288
f 286 293 245
f 251 289 294
f 252 251 294
f 294 291 252
f 254 291 253
f 253 295 249
f 295 296 249
f 249 296 290
f 292 257 290
f 288 258 292
f 256 255 261
f 294 297 291
f 291 295 253
f 245 293 262
f 292 290 298
f 292 299 288
f 261 260 300
f 261 301 256
f 301 289 256
f 262 293 302
f 262 300 259
f 260 259 300
f 261 300 303
f 301 261 303
f 302 300 262
f 300 302 304
f 264 305 263
f 305 264 265
f 266 306 212
f 155 307 265
f 155 217 308
f 308 307 155
f 211 212 306
f 267 309 268
f 213 216 267
f 216 211 310
f 211 306 310
f 217 269 308
f 309 267 216
f 216 310 309
f 311 270 268
f 219 270 311
f 312 269 220
f 312 220 222
f 221 219 313
f 313 219 311
f 222 271 312
f 272 221 313
f 273 275 314
f 315 314 275
f 275 226 315
f 316 315 226
f 226 317 316
f 318 317 319
f 318 319 320
f 319 317 226
f 226 276 319
f 276 320 319
f 321 227 225
f 322 320 276
f 322 276 277
f 277 323 322
f 277 324 323
f 321 278 227
f 321 325 278
f 277 326 324
f 277 279 326
f 327 326 279
f 328 280 278
f 327 279 281
f 281 329 327
f 328 330 280
f 330 282 280
f 282 330 331
f 329 281 332
f 332 281 283
f 333 284 331
f 284 282 331
f 284 333 334
f 332 283 335
f 285 284 334
f 285 334 336
f 287 337 283
f 335 283 337
f 286 285 338
f 336 338 285
f 338 336 339
f 288 340 287
f 340 337 287
f 338 341 286
f 339 341 338
f 342 340 288
f 294 289 343
f 296 298 290
f 299 342 288
f 343 344 294
f 297 294 344
f 295 291 297
f 292 298 299
f 342 299 345
f 341 346 286
f 293 286 346
f 301 343 289
f 297 347 295
f 296 295 347
f 298 348 299
f 348 349 299
f 349 345 299
f 301 350 343
f 344 351 297
f 296 352 298
f 353 348 298
f 354 343 350
f 347 297 351
f 347 352 296
f 352 353 298
f 349 348 355
f 302 293 304
f 304 303 300
f 301 303 350
f 304 293 346
f 356 350 303
f 351 357 347
f 348 353 358
f 358 355 348
f 304 356 303
f 357 352 347
f 346 359 304
f 359 356 304
f 350 356 360
f 356 359 361
f 361 360 356
f 359 346 362
f 350 360 363
f 361 359 362
f 362 364 361
f 364 365 361
f 365 366 361
f 360 361 366
f 363 360 366
f 367 263 305
f 265 307 305
f 368 263 367
f 369 306 266
f 369 266 263
f 369 263 368
f 308 269 370
f 369 310 306
f 371 268 309
f 309 372 371
f 372 309 310
f 371 311 268
f 310 373 372
f 311 374 313
f 311 371 374
f 271 375 312
f 375 271 273
f 313 374 376
f 273 377 375
f 377 273 314
f 377 314 315
f 272 313 376
f 377 315 378
f 378 315 316
f 378 316 317
f 379 225 274
f 274 272 376
f 378 317 318
f 318 380 378
f 318 320 380
f 320 381 380
f 379 382 225
f 320 322 381
f 382 321 225
f 381 322 323
f 323 324 381
f 324 383 381
f 384 321 382
f 324 326 383
f 321 384 325
f 383 326 327
f 325 328 278
f 327 385 386
f 385 327 329
f 331 330 387
f 388 385 329
f 387 333 331
f 329 332 388
f 333 387 389
f 334 333 389
f 334 389 390
f 390 391 334
f 335 392 332
f 388 332 392
f 336 334 391
f 391 393 336
f 392 335 394
f 337 394 335
f 336 393 395
f 336 395 396
f 396 339 336
f 397 339 396
f 339 397 341
f 342 398 340
f 399 341 397
f 354 344 343
f 345 349 400
f 341 399 346
f 344 354 401
f 349 355 400
f 401 402 344
f 351 344 403
f 350 404 354
f 403 344 402
f 399 405 346
f 401 354 404
f 403 406 351
f 357 407 352
f 407 353 352
f 358 353 408
f 358 409 355
f 351 406 357
f 408 353 407
f 346 405 362
f 406 407 357
f 408 407 410
f 363 404 350
f 363 411 404
f 412 364 362
f 411 363 366
f 366 365 413
f 414 367 305
f 414 305 307
f 367 415 368
f 415 367 414
f 307 416 414
f 307 417 416
f 417 307 308
f 418 417 308
f 418 308 370
f 419 369 368
f 370 420 418
f 369 421 310
f 369 419 421
f 420 370 269
f 310 421 373
f 422 374 371
f 269 423 420
f 423 269 312
f 372 424 371
f 424 372 373
f 312 375 423
f 376 374 422
f 371 424 422
f 377 425 375
f 377 426 425
f 378 426 377
f 378 380 426
f 379 274 376
f 376 427 379
f 381 428 380
f 379 429 382
f 381 383 428
f 430 428 383
f 429 384 382
f 383 327 430
f 431 430 327
f 431 327 386
f 432 386 385
f 385 433 432
f 330 328 434
f 434 387 330
f 385 435 433
f 388 435 385
f 389 387 434
f 388 436 435
f 390 437 391
f 392 436 388
f 438 436 392
f 437 393 391
f 394 438 392
f 439 395 393
f 394 337 440
f 337 340 441
f 441 440 337
f 442 397 396
f 441 340 398
f 443 397 442
f 342 444 398
f 345 445 342
f 342 445 444
f 443 446 397
f 446 399 397
f 400 447 345
f 447 445 345
f 400 448 447
f 355 449 400
f 400 449 448
f 409 449 355
f 446 405 399
f 402 401 450
f 358 408 409
f 410 409 408
f 403 402 450
f 406 403 451
f 362 405 412
f 411 450 404
f 401 404 450
f 450 451 403
f 406 452 407
f 452 410 407
f 405 453 412
f 364 412 365
f 366 454 411
f 451 452 406
f 365 412 455
f 413 365 455
f 413 454 366
f 414 456 415
f 456 414 416
f 457 417 418
f 415 458 368
f 415 456 458
f 416 417 457
f 457 418 420
f 459 457 420
f 419 460 421
f 368 458 419
f 420 423 459
f 421 461 373
f 460 419 458
f 421 460 461
f 375 425 423
f 462 424 373
f 373 461 462
f 424 462 463
f 424 463 422
f 426 380 464
f 465 376 422
f 465 422 463
f 376 465 427
f 428 464 380
f 427 466 379
f 379 466 429
f 428 467 464
f 428 468 467
f 428 430 468
f 430 431 468
f 384 469 325
f 429 469 384
f 470 468 431
f 431 386 470
f 325 471 328
f 325 469 471
f 470 386 432
f 470 432 472
f 432 433 472
f 328 471 434
f 473 434 471
f 433 474 472
f 474 433 435
f 389 434 473
f 474 435 436
f 475 390 389
f 436 476 474
f 437 390 475
f 437 475 477
f 438 478 436
f 476 436 478
f 479 393 437
f 437 477 479
f 438 480 478
f 439 393 479
f 438 394 481
f 480 438 482
f 483 482 438
f 481 483 438
f 439 484 395
f 440 481 394
f 482 483 485
f 483 481 486
f 396 395 484
f 441 481 440
f 396 484 442
f 486 485 483
f 441 486 481
f 487 443 442
f 485 486 488
f 486 441 489
f 488 486 490
f 398 489 441
f 489 491 486
f 491 490 486
f 492 443 487
f 445 493 444
f 398 444 493
f 443 494 446
f 493 489 398
f 491 489 495
f 494 443 492
f 493 495 489
f 447 496 445
f 493 445 496
f 446 494 497
f 448 498 447
f 496 447 498
f 448 449 499
f 409 499 449
f 499 498 448
f 497 500 446
f 446 500 501
f 501 405 446
f 410 502 409
f 499 409 502
f 405 501 453
f 450 503 504
f 451 450 504
f 505 503 450
f 452 506 410
f 411 505 450
f 504 507 451
f 507 508 451
f 452 451 508
f 508 506 452
f 502 410 506
f 454 505 411
f 455 509 413
f 509 510 413
f 510 454 413
f 511 456 416
f 512 458 456
f 416 513 511
f 513 416 457
f 457 459 513
f 456 511 512
f 423 514 459
f 459 514 513
f 423 425 514
f 460 515 516
f 515 460 458
f 458 512 515
f 460 516 461
f 425 517 514
f 517 425 426
f 461 518 462
f 426 464 517
f 519 463 462
f 462 518 519
f 464 520 517
f 521 465 463
f 463 522 521
f 522 463 519
f 466 427 523
f 523 427 465
f 464 524 520
f 467 524 464
f 525 429 466
f 526 429 525
f 467 468 527
f 469 429 528
f 527 468 470
f 470 529 527
f 470 530 529
f 470 472 530
f 531 530 472
f 472 532 531
f 532 472 474
f 474 533 532
f 475 389 473
f 533 474 476
f 476 534 533
f 534 476 478
f 478 535 534
f 535 478 480
f 479 536 439
f 480 537 535
f 537 480 482
f 484 439 536
f 482 485 537
f 485 538 537
f 485 539 538
f 484 540 442
f 539 485 488
f 442 540 487
f 488 541 539
f 541 488 490
f 490 491 542
f 542 541 490
f 491 495 543
f 542 491 543
f 494 492 544
f 493 545 495
f 545 543 495
f 494 544 497
f 496 498 546
f 546 545 496
f 493 496 545
f 497 544 547
f 499 546 498
f 547 548 497
f 500 497 548
f 548 549 500
f 501 500 549
f 549 550 501
f 453 501 550
f 550 551 453
f 552 502 506
f 551 553 453
f 412 453 553
f 553 554 412
f 503 505 555
f 555 504 503
f 552 506 556
f 455 412 554
f 554 557 455
f 509 455 557
f 558 505 454
f 555 559 504
f 559 560 504
f 507 504 560
f 508 507 560
f 508 556 506
f 510 558 454
f 555 505 558
f 511 561 512
f 511 562 561
f 562 511 513
f 512 561 515
f 563 561 562
f 513 564 562
f 564 513 514
f 518 461 516
f 516 565 518
f 516 515 565
f 566 564 514
f 567 566 514
f 568 514 517
f 519 569 522
f 569 519 518
f 514 568 567
f 523 570 466
f 465 521 523
f 568 517 520
f 466 570 525
f 520 571 568
f 524 572 520
f 467 572 524
f 467 527 572
f 526 528 429
f 571 520 572
f 573 571 572
f 529 572 527
f 574 469 528
f 572 529 573
f 469 574 575
f 469 576 471
f 576 469 575
f 529 530 573
f 471 576 577
f 578 573 530
f 530 531 578
f 579 473 471
f 471 577 579
f 531 580 578
f 532 533 531
f 531 533 580
f 475 473 579
f 533 581 580
f 579 582 475
f 533 534 581
f 582 583 475
f 477 475 583
f 534 535 581
f 479 477 583
f 583 584 479
f 536 479 584
f 537 585 535
f 537 538 585
f 586 538 539
f 541 587 539
f 540 588 487
f 541 589 587
f 492 487 588
f 589 541 542
f 589 542 543
f 588 544 492
f 590 589 543
f 543 591 590
f 591 543 545
f 545 546 591
f 592 548 547
f 546 499 593
f 549 548 592
f 549 592 594
f 595 593 499
f 550 549 594
f 499 502 595
f 551 550 596
f 596 553 551
f 553 596 597
f 597 598 553
f 554 553 598
f 552 595 502
f 598 599 554
f 554 599 557
f 557 599 600
f 556 508 601
f 557 600 602
f 602 603 557
f 603 509 557
f 508 560 601
f 604 552 556
f 509 603 605
f 605 606 509
f 510 509 606
f 558 607 555
f 601 560 559
f 601 604 556
f 510 606 608
f 510 608 609
f 558 510 609
f 609 610 558
f 610 607 558
f 559 555 607
f 561 611 515
f 561 563 611
f 612 563 562
f 612 562 564
f 613 564 566
f 614 615 515
f 614 515 611
f 616 518 565
f 515 615 565
f 563 612 611
f 564 613 612
f 566 567 613
f 567 617 613
f 618 523 521
f 618 521 522
f 518 616 569
f 565 615 616
f 570 619 525
f 619 570 523
f 620 522 569
f 569 621 620
f 621 569 616
f 617 567 568
f 568 622 617
f 571 623 568
f 523 618 619
f 620 618 522
f 622 568 623
f 525 619 526
f 571 624 623
f 625 574 528
f 625 528 526
f 624 571 626
f 571 573 626
f 574 625 575
f 526 619 625
f 626 573 627
f 627 573 578
f 628 576 575
f 575 625 628
f 576 628 577
f 578 629 627
f 578 580 629
f 579 577 630
f 577 628 630
f 580 631 629
f 579 630 582
f 631 580 581
f 582 630 583
f 581 632 631
f 632 581 535
f 583 630 633
f 584 583 633
f 584 633 634
f 634 536 584
f 632 535 585
f 635 536 634
f 484 536 635
f 538 636 585
f 635 637 484
f 636 538 586
f 540 484 637
f 586 539 587
f 540 637 588
f 637 638 588
f 589 639 587
f 589 640 639
f 641 588 638
f 589 642 640
f 590 643 642
f 589 590 642
f 588 641 544
f 591 644 643
f 590 591 643
f 544 641 547
f 591 645 644
f 547 641 592
f 646 591 546
f 646 645 591
f 592 641 647
f 593 648 546
f 646 546 648
f 594 592 647
f 594 649 550
f 596 550 649
f 649 597 596
f 649 650 597
f 593 595 651
f 598 597 650
f 599 598 650
f 650 652 599
f 599 652 600
f 651 595 653
f 600 652 602
f 603 602 652
f 652 605 603
f 653 595 552
f 654 606 605
f 604 653 552
f 608 606 654
f 654 609 608
f 609 655 610
f 655 656 610
f 607 610 656
f 607 657 559
f 657 658 559
f 601 559 658
f 658 604 601
f 613 659 612
f 616 615 660
f 613 661 659
f 661 613 617
f 616 660 621
f 662 615 614
f 663 611 612
f 663 612 659
f 617 622 661
f 662 660 615
f 614 664 662
f 614 611 664
f 665 663 659
f 665 659 661
f 622 666 661
f 622 623 666
f 664 611 663
f 663 667 664
f 665 661 666
f 623 668 666
f 618 669 619
f 620 670 671
f 670 620 621
f 668 623 624
f 618 671 669
f 671 618 620
f 662 664 672
f 673 666 668
f 624 674 668
f 674 624 626
f 663 675 667
f 675 663 665
f 665 666 673
f 676 619 669
f 671 677 669
f 671 678 677
f 678 671 670
f 664 679 672
f 668 674 673
f 626 627 674
f 619 680 625
f 680 619 676
f 669 681 676
f 669 682 681
f 669 677 682
f 679 664 667
f 676 683 680
f 683 676 681
f 684 679 667
f 685 674 627
f 627 629 685
f 625 686 628
f 625 680 686
f 667 687 684
f 687 667 675
f 688 675 665
f 675 689 687
f 685 690 674
f 691 628 686
f 674 690 673
f 692 685 629
f 631 692 629
f 628 691 630
f 675 688 689
f 673 688 665
f 673 693 688
f 690 685 692
f 691 686 694
f 695 689 688
f 696 630 691
f 691 694 696
f 697 694 686
f 673 690 693
f 692 698 690
f 631 632 692
f 695 688 699
f 630 696 633
f 699 688 693
f 698 692 632
f 634 633 696
f 700 696 694
f 699 693 701
f 702 693 690
f 700 694 703
f 702 690 704
f 704 690 698
f 632 585 698
f 636 698 585
f 696 705 634
f 706 701 693
f 706 693 702
f 698 636 704
f 634 705 635
f 696 700 705
f 637 635 705
f 704 707 702
f 586 704 636
f 708 705 700
f 637 705 708
f 700 709 708
f 587 704 586
f 710 706 702
f 704 587 707
f 637 708 638
f 702 711 710
f 711 702 707
f 708 709 638
f 639 707 587
f 707 640 711
f 707 639 640
f 712 710 711
f 711 640 642
f 711 642 712
f 713 641 638
f 712 643 644
f 643 712 642
f 714 641 713
f 644 645 715
f 647 641 714
f 645 646 715
f 646 648 716
f 716 715 646
f 717 594 647
f 593 718 648
f 717 649 594
f 719 649 717
f 719 650 649
f 652 650 719
f 718 593 651
f 654 605 652
f 720 651 653
f 655 609 654
f 656 721 607
f 721 657 607
f 658 722 604
f 723 621 660
f 724 660 662
f 621 723 670
f 724 723 660
f 725 724 662
f 662 672 725
f 726 678 670
f 670 723 726
f 672 727 725
f 678 726 677
f 727 672 679
f 728 682 677
f 679 729 727
f 681 730 683
f 679 684 729
f 731 680 683
f 684 687 729
f 687 732 729
f 689 732 687
f 680 733 686
f 733 680 731
f 733 731 734
f 686 733 697
f 732 689 735
f 689 695 735
f 697 733 736
f 737 694 697
f 738 697 736
f 735 695 739
f 695 699 739
f 697 740 737
f 697 738 740
f 703 694 737
f 703 737 740
f 740 741 703
f 742 740 738
f 739 699 743
f 701 743 699
f 740 742 741
f 706 743 701
f 742 744 741
f 709 700 703
f 703 745 709
f 703 746 745
f 746 703 741
f 747 741 744
f 748 743 706
f 741 747 746
f 748 706 710
f 749 746 747
f 638 709 745
f 750 745 746
f 710 712 748
f 638 745 750
f 749 751 746
f 752 748 712
f 638 750 713
f 713 750 746
f 746 751 713
f 712 644 752
f 714 713 751
f 715 752 644
f 752 715 753
f 716 753 715
f 754 753 716
f 716 648 754
f 648 718 754
f 718 755 754
f 756 652 719
f 651 755 718
f 652 756 757
f 758 755 651
f 654 652 757
f 720 758 651
f 604 759 653
f 759 720 653
f 759 604 760
f 655 721 656
f 760 604 722
f 721 761 657
f 658 657 761
f 761 762 658
f 722 658 762
f 724 763 723
f 764 726 723
f 723 765 764
f 723 763 765
f 724 725 766
f 728 677 767
f 767 677 726
f 726 764 767
f 681 682 768
f 768 682 728
f 728 769 768
f 728 767 769
f 727 729 770
f 681 768 730
f 683 771 731
f 771 683 730
f 729 772 773
f 772 729 732
f 731 771 734
f 774 732 735
f 736 733 734
f 775 738 736
f 775 736 734
f 776 735 739
f 739 777 776
f 778 742 775
f 738 775 742
f 739 779 777
f 739 743 779
f 742 778 744
f 744 778 780
f 779 743 781
f 744 780 747
f 781 743 748
f 747 780 782
f 782 749 747
f 748 783 781
f 784 749 782
f 783 748 752
f 749 784 751
f 784 785 751
f 752 786 783
f 714 751 785
f 785 647 714
f 647 785 787
f 752 753 786
f 788 786 753
f 787 717 647
f 787 719 717
f 753 754 788
f 754 789 788
f 789 754 755
f 790 756 719
f 790 791 756
f 755 792 789
f 792 755 758
f 654 757 793
f 720 794 758
f 794 792 758
f 655 654 793
f 794 720 795
f 793 796 655
f 759 797 720
f 795 720 797
f 796 798 655
f 760 799 759
f 797 759 799
f 721 655 798
f 722 800 760
f 721 801 761
f 801 802 761
f 762 761 802
f 722 762 802
f 802 803 722
f 800 722 803
f 763 724 804
f 763 804 765
f 766 804 724
f 725 805 766
f 805 725 727
f 767 806 769
f 767 764 806
f 764 765 807
f 805 727 770
f 768 808 809
f 808 768 769
f 764 807 806
f 810 770 729
f 809 730 768
f 808 769 806
f 729 773 810
f 771 730 809
f 806 811 808
f 774 772 732
f 771 812 734
f 771 813 812
f 813 771 809
f 814 774 735
f 813 809 808
f 735 776 814
f 775 734 812
f 815 812 813
f 816 813 808
f 817 775 812
f 813 816 815
f 778 775 817
f 812 815 817
f 818 817 815
f 778 817 780
f 817 818 780
f 818 819 780
f 780 820 782
f 820 780 819
f 821 782 820
f 822 781 783
f 784 782 821
f 823 784 821
f 783 824 822
f 783 786 824
f 785 784 823
f 823 825 785
f 787 785 825
f 786 788 826
f 787 825 827
f 719 787 827
f 827 828 719
f 829 788 789
f 790 719 828
f 828 830 790
f 791 790 830
f 756 791 831
f 757 756 832
f 756 831 832
f 829 794 833
f 829 792 794
f 792 829 789
f 832 834 757
f 793 757 834
f 834 835 793
f 833 794 795
f 796 793 835
f 797 836 833
f 797 833 795
f 760 837 836
f 836 799 760
f 799 836 797
f 798 801 721
f 837 800 803
f 800 837 760
f 802 838 803
f 839 765 804
f 839 804 766
f 766 805 840
f 841 807 765
f 765 839 841
f 766 840 839
f 842 806 807
f 807 841 842
f 839 843 841
f 841 843 844
f 843 839 840
f 805 845 840
f 805 770 845
f 810 846 770
f 846 810 773
f 773 772 846
f 806 842 811
f 841 847 842
f 847 841 844
f 842 847 848
f 772 849 846
f 849 772 774
f 774 814 849
f 848 811 842
f 850 847 844
f 816 808 811
f 811 848 851
f 850 848 847
f 814 852 849
f 814 776 852
f 811 851 816
f 848 853 851
f 853 848 850
f 776 854 852
f 776 777 854
f 816 855 815
f 816 851 855
f 856 851 853
f 857 855 851
f 857 851 856
f 779 858 777
f 859 818 815
f 815 860 859
f 815 855 860
f 818 859 819
f 819 859 861
f 779 862 858
f 779 781 862
f 863 820 819
f 863 819 861
f 862 781 822
f 822 864 862
f 865 821 820
f 820 863 865
f 823 821 865
f 824 866 864
f 864 822 824
f 867 864 866
f 866 824 868
f 865 825 823
f 824 786 868
f 826 869 786
f 869 868 786
f 870 827 825
f 871 827 870
f 829 872 788
f 828 827 871
f 871 873 828
f 874 873 871
f 873 830 828
f 830 873 874
f 874 791 830
f 791 874 875
f 874 876 875
f 829 833 877
f 791 875 831
f 832 831 875
f 875 834 832
f 834 875 876
f 835 876 878
f 876 835 834
f 877 836 837
f 836 877 833
f 878 796 835
f 796 878 798
f 801 798 879
f 838 880 837
f 838 881 882
f 837 803 838
f 801 881 802
f 838 802 881
f 883 840 845
f 840 884 843
f 884 840 883
f 770 846 845
f 843 885 844
f 843 884 885
f 845 886 883
f 887 845 846
f 844 885 850
f 845 887 886
f 846 888 887
f 888 846 849
f 850 885 889
f 890 850 889
f 849 852 888
f 891 853 850
f 891 850 890
f 853 891 856
f 892 888 852
f 892 852 854
f 777 892 854
f 777 893 892
f 858 893 777
f 855 857 860
f 894 857 895
f 860 896 859
f 857 894 860
f 859 896 861
f 893 858 862
f 861 896 897
f 862 898 893
f 861 897 863
f 862 864 898
f 899 897 896
f 900 863 897
f 897 899 900
f 899 896 901
f 864 902 898
f 864 867 902
f 865 863 900
f 867 903 902
f 867 866 903
f 903 866 868
f 868 904 903
f 865 905 825
f 905 865 900
f 905 900 899
f 904 868 869
f 899 906 907
f 908 904 869
f 869 826 908
f 905 899 907
f 909 908 826
f 825 905 870
f 909 826 788
f 906 910 907
f 788 872 909
f 905 871 870
f 911 872 829
f 905 874 871
f 874 905 907
f 874 907 910
f 910 912 876
f 911 829 913
f 910 876 874
f 829 877 913
f 912 878 876
f 914 878 912
f 914 879 878
f 877 915 913
f 915 877 880
f 916 879 917
f 837 880 877
f 878 879 798
f 801 879 916
f 882 880 838
f 916 881 801
f 918 885 884
f 919 884 883
f 920 885 918
f 921 886 887
f 922 921 887
f 885 920 889
f 887 923 922
f 923 887 888
f 889 924 890
f 924 889 920
f 925 890 924
f 925 891 890
f 925 926 891
f 927 856 891
f 927 891 926
f 888 928 923
f 928 888 892
f 856 929 857
f 927 929 856
f 892 930 928
f 895 857 929
f 931 892 893
f 892 931 930
f 860 894 896
f 932 930 931
f 898 931 893
f 933 896 894
f 894 934 933
f 935 932 931
f 898 936 931
f 901 896 933
f 931 937 935
f 935 938 932
f 937 931 936
f 902 936 898
f 902 903 936
f 935 939 938
f 940 935 937
f 936 904 937
f 904 936 903
f 940 939 935
f 937 904 940
f 906 899 901
f 933 941 901
f 934 941 933
f 942 939 940
f 908 940 904
f 906 901 941
f 940 909 942
f 940 908 909
f 939 942 943
f 906 941 910
f 872 943 942
f 942 909 872
f 941 944 945
f 911 946 943
f 943 872 911
f 941 945 912
f 941 912 910
f 946 913 947
f 946 911 913
f 945 914 912
f 945 879 914
f 917 879 945
f 915 947 913
f 880 948 947
f 917 949 916
f 880 947 915
f 949 881 916
f 881 949 948
f 948 882 881
f 882 948 880
f 918 950 920
f 918 951 950
f 951 918 884
f 884 919 951
f 919 883 886
f 886 921 919
f 920 950 952
f 922 953 921
f 924 920 952
f 954 925 924
f 953 922 955
f 955 922 923
f 925 956 926
f 925 954 956
f 957 927 926
f 926 956 957
f 928 955 923
f 958 927 957
f 929 959 895
f 959 929 927
f 927 958 959
f 955 928 960
f 895 959 961
f 930 960 928
f 961 894 895
f 962 959 958
f 959 962 961
f 962 958 963
f 930 932 960
f 934 894 961
f 964 960 932
f 965 962 963
f 966 960 964
f 964 967 966
f 963 968 965
f 932 938 964
f 964 938 967
f 969 934 961
f 944 961 962
f 944 962 965
f 939 967 938
f 961 944 969
f 967 943 970
f 943 967 939
f 941 934 969
f 965 971 944
f 970 943 972
f 969 944 941
f 971 965 973
f 972 946 974
f 972 943 946
f 971 945 944
f 971 973 975
f 945 971 975
f 974 946 947
f 976 977 978
f 978 979 976
f 979 978 974
f 974 947 979
f 980 975 981
f 982 983 976
f 981 982 980
f 982 981 984
f 945 975 917
f 917 975 980
f 976 948 982
f 948 976 979
f 979 947 948
f 982 949 980
f 982 948 949
f 917 980 949
f 985 951 919
f 950 985 986
f 985 950 951
f 919 987 985
f 987 919 921
f 950 986 952
f 988 986 985
f 985 987 988
f 989 987 921
f 989 921 953
f 952 990 924
f 952 986 990
f 924 990 954
f 953 991 989
f 955 991 953
f 992 956 954
f 956 992 957
f 954 990 992
f 993 987 989
f 957 963 958
f 963 957 992
f 992 990 963
f 987 993 988
f 955 966 991
f 960 966 955
f 989 991 993
f 994 991 966
f 988 995 986
f 996 990 986
f 988 993 995
f 993 991 994
f 968 963 990
f 997 986 995
f 994 966 967
f 990 973 968
f 973 990 996
f 997 996 986
f 970 994 967
f 973 965 968
f 994 972 993
f 972 994 970
f 998 995 993
f 974 993 972
f 995 978 997
f 978 995 999
f 995 998 999
f 993 974 998
f 973 981 975
f 973 996 981
f 997 1000 996
f 997 983 1000
f 983 997 1001
f 997 977 1001
f 977 997 978
f 998 978 999
f 978 998 974
f 996 984 981
f 984 996 1002
f 996 1000 1002
f 977 983 1001
f 977 976 983
f 1000 984 1002
f 1000 982 984
f 1000 983 982
