v 124.861404 82.627220 3.649895

v 122.964745 79.842194 3.621408

v 123.041420 84.025429 4.433479

v 128.182526 82.743774 4.466980

v 122.664551 76.600067 4.159668

v 120.638672 78.922997 5.198975

v 129.937439 80.044380 3.628761

v 131.868774 80.347626 4.499207

v 125.548737 73.580215 3.589460

v 133.398422 77.264236 3.679413

v 134.849182 77.530502 4.400208

v 125.240967 70.503540 4.259644

v 136.696091 70.879250 3.608544

v 128.595367 67.483368 3.583291

v 127.768494 66.365112 4.310547

v 138.630249 70.974442 4.565643

v 137.673096 69.214508 3.734818

v 132.377182 64.701797 3.596698

v 130.074554 64.290009 4.224792

v 139.022156 68.942963 4.640358

v 136.776291 67.339951 3.650284

v 138.176971 66.570755 4.573135

v 135.661011 64.861160 4.097359

v 133.300781 63.027222 4.696167

v 118.687065 85.535393 6.246689

v 122.761475 86.476318 6.717041

v 122.435440 84.558060 5.226913

v 118.410309 83.228180 5.856110

v 120.940735 81.533554 5.174011

v 126.676575 85.403809 7.504395

v 118.305420 80.507019 6.390869

v 120.061035 76.323914 6.148438

v 131.690063 81.577148 6.353516

v 135.391052 78.561272 6.613159

v 137.199783 75.537476 6.514221

v 127.365723 63.984619 6.709961

v 139.261993 69.147285 8.270706

v 138.347015 64.730560 8.397049

v 132.713013 61.408203 6.590332

v 135.993408 61.867867 6.505264

v 155.721405 62.349812 6.592011

v 152.287109 58.712921 5.567834

v 150.860260 59.493561 6.406548

v 156.744904 60.847668 5.590889

v 147.132904 57.085617 6.340286

v 147.613770 55.364319 5.556219

v 145.564285 54.686520 6.457031

v 158.428116 62.227913 6.584564

v 159.441772 44.451385 5.523567

v 146.414551 52.739941 5.581398

v 144.894211 52.083485 6.476242

v 161.308899 61.194016 6.111343

v 150.079208 47.665497 5.519253

v 147.232529 49.883507 5.554588

v 130.715912 42.347748 6.863480

v 130.092682 40.918182 5.763313

v 127.117493 41.739380 7.265228

v 126.818130 39.277557 5.835381

v 163.871765 58.191879 5.589016

v 147.184479 47.881866 6.443207

v 164.144135 61.786377 7.584229

v 165.374176 59.303650 6.031769

v 130.823441 39.764740 5.416071

v 126.551804 35.781628 5.443199

v 125.502228 37.789898 6.345383

v 125.026711 34.942406 6.370537

v 136.855988 40.400574 6.027771

v 127.934677 33.725853 5.425831

v 127.069847 32.680714 6.283455

v 168.953888 59.715820 7.120422

v 171.205078 57.492737 6.070313

v 137.549911 38.461353 5.442195

v 169.164795 56.932945 5.599741

v 150.626312 45.821472 6.294952

v 174.632507 57.652832 7.262329

v 136.270386 32.920868 5.422578

v 156.556503 43.866592 6.007996

v 143.548172 36.470760 5.502390

v 143.875519 39.222374 7.267754

v 133.564636 31.686371 5.914108

v 130.999847 31.645775 6.314880

v 174.955032 54.489090 5.623388

v 136.662811 31.361221 5.955048

v 176.954956 54.446274 6.288574

v 164.923706 43.158035 5.546745

v 146.348984 32.784592 5.468942

v 176.865875 51.741928 5.652679

v 160.368286 42.455597 6.025177

v 147.680786 36.239441 7.032227

v 147.079895 34.166779 5.728638

v 142.354675 30.882729 5.981934

v 176.349899 49.433537 5.624598

v 178.523621 52.094238 6.621231

v 163.032288 41.863586 6.106689

v 147.562347 30.960602 6.749712

v 177.691574 48.473900 6.595123

v 149.037231 33.065269 6.830963

v 172.275955 44.251591 5.606070

v 176.574585 47.029392 6.450775

v 175.345627 46.354080 6.037521

v 168.371857 41.599121 5.830215

v 164.133911 40.233765 7.266113

v 173.976685 44.186890 6.446228

v 172.077896 42.089111 6.089752

v 170.472473 39.843872 7.172150

v 146.859283 21.139858 5.742256

v 146.098572 19.273087 5.406460

v 144.915863 21.753403 6.714020

v 143.851929 18.988098 6.838409

v 155.836609 21.194023 5.872147

v 156.953674 19.982510 5.453924

v 149.048431 13.298731 5.406870

v 147.270508 13.412460 5.803284

v 144.932861 14.977966 7.052002

v 155.868713 22.948257 7.148325

v 163.615448 21.594677 5.645061

v 153.774689 12.994965 5.437223

v 160.431473 23.442507 7.129255

v 165.373901 23.101868 7.029541

v 150.071442 11.365749 6.439430

v 164.063843 19.440235 5.497878

v 166.184814 20.126038 6.192627

v 152.358246 11.272951 6.382534

v 164.864014 18.070053 6.253906

v 158.021698 13.791382 6.283630

v 153.793091 11.615131 6.299698

v 117.424080 88.082336 8.258575

v 119.426834 89.046875 8.214722

v 116.585205 85.659180 8.107178

v 123.705078 87.934082 8.086914

v 116.298615 81.693008 8.675232

v 127.884979 86.728638 10.377441

v 117.007507 79.089172 8.642456

v 118.384521 76.294861 8.212402

v 130.132767 84.917084 11.152161

v 131.900391 82.805023 11.113770

v 119.138062 74.749023 8.085938

v 121.857178 69.348694 8.424316

v 137.236389 76.253174 12.013794

v 123.215698 66.654602 8.358887

v 138.586853 73.000732 8.989746

v 125.430115 63.659180 8.344360

v 139.406097 70.361076 8.666473

v 127.772217 60.682861 8.945007

v 131.611893 59.976990 8.676941

v 137.340088 62.032448 8.426575

v 136.073578 60.127144 8.728509

v 127.515900 50.089630 8.815430

v 130.879837 49.639317 7.405478

v 127.414330 46.876282 7.403873

v 126.086945 47.426964 8.284534

v 125.880783 46.062195 8.272175

v 148.717697 60.822998 9.285225

v 151.416046 60.712067 8.414673

v 146.476135 58.500816 8.783478

v 132.086594 52.667248 9.237740

v 138.509033 49.440186 8.873901

v 136.564896 48.133644 7.435022

v 155.478485 62.705070 8.462812

v 127.098846 43.732513 7.552460

v 125.960388 44.657951 8.304169

v 157.539734 62.895733 8.457222

v 145.072815 55.487823 8.406158

v 130.124985 43.610718 7.317870

v 126.085030 43.480976 8.266651

v 160.230759 62.649704 8.463058

v 126.119446 42.196415 8.493462

v 144.091095 51.361828 8.581299

v 126.181015 40.698792 8.419937

v 163.142578 63.362732 8.974686

v 125.392708 39.341492 8.279028

v 137.521545 42.543968 7.326116

v 170.534973 62.523834 8.213043

v 145.344955 48.147369 8.742523

v 142.343445 44.742874 7.563919

v 125.004044 37.824814 8.246319

v 144.374741 46.071884 9.174622

v 124.804253 35.590309 8.186760

v 171.454239 61.288635 7.810699

v 147.986938 46.201202 8.231689

v 126.440063 32.673649 8.173580

v 173.452057 61.141998 8.714233

v 175.081726 59.640930 8.564697

v 146.621643 39.994995 7.552673

v 150.622559 44.499268 8.262085

v 131.361191 31.005920 8.299706

v 155.404724 41.974487 8.800995

v 135.216949 29.872894 8.635681

v 179.216309 55.217285 10.345703

v 148.238953 41.498505 9.076187

v 149.563599 37.727295 7.965820

v 179.105652 52.485977 8.640991

v 140.642853 28.751511 8.726395

v 159.921295 40.277267 9.006363

v 153.127808 34.475109 8.878906

v 151.321472 32.431862 7.531097

v 178.447327 48.682816 8.520203

v 145.237411 28.893311 8.826244

v 177.190384 46.407898 8.538086

v 138.089279 24.180954 7.679932

v 137.686142 22.295662 7.391708

v 136.301727 23.917950 8.294998

v 136.316086 21.930248 8.237140

v 150.858383 28.989071 8.906258

v 175.034882 43.539116 8.661774

v 153.011566 31.381653 8.999512

v 143.091644 25.519287 7.752457

v 145.332611 24.074402 7.318678

v 138.221039 19.902445 8.206070

v 169.273285 36.998993 8.185242

v 173.484894 40.047096 9.050430

v 164.813965 36.914993 9.247414

v 149.397247 27.591476 8.879105

v 150.272659 25.735060 7.593718

v 168.861908 36.063354 9.012970

v 142.666672 20.619614 7.272306

v 141.145081 18.362309 7.505081

v 148.719574 23.016600 7.092138

v 140.678665 17.303886 8.256790

v 160.492493 25.941078 7.675833

v 154.548996 25.788235 7.612313

v 152.390274 28.122108 9.200686

v 142.429321 15.737930 8.147583

v 161.705475 27.600281 8.924507

v 168.957581 24.209106 7.765320

v 144.483398 13.199837 8.300224

v 146.289780 12.141129 8.157501

v 167.364227 20.898285 7.089890

v 169.615723 20.865021 7.549026

v 171.551941 23.359222 9.115692

v 171.987671 21.319336 9.257446

v 170.880829 19.936211 8.330444

v 153.025543 9.899673 10.297424

v 167.457825 18.364746 7.913330

v 162.922974 15.552673 8.270996

v 157.969482 11.977173 8.229980

v 118.193642 91.286362 10.374138

v 116.330200 89.067726 10.302063

v 121.798882 90.696960 10.311951

v 115.257690 87.237297 11.218506

v 115.249786 84.803993 11.204773

v 124.943634 89.084564 10.358704

v 116.875473 76.054237 12.773529

v 117.464233 74.727417 11.822266

v 117.545441 72.952271 12.411255

v 134.605515 79.533081 14.077454

v 122.145416 65.008408 12.320557

v 125.489502 60.951172 11.189209

v 141.103760 71.691650 11.687744

v 140.102173 74.038086 13.969482

v 142.009521 70.254272 10.261780

v 140.970306 68.934174 9.392988

v 126.734863 58.868835 9.824341

v 145.239197 69.345825 10.466675

v 140.055573 65.150742 9.327125

v 147.150421 67.857933 9.429306

v 128.588608 58.863647 9.284227

v 148.170105 69.338394 10.204330

v 127.237091 56.162788 9.325457

v 125.615501 56.783108 10.319908

v 138.860748 61.612118 9.330114

v 135.816757 58.810051 9.310814

v 126.844360 53.591385 9.530945

v 145.680023 60.281593 9.361967

v 125.877502 53.698463 10.267500

v 151.275818 69.193954 9.985474

v 157.344467 68.279793 9.500694

v 126.160728 51.665359 10.134399

v 155.982391 69.677277 10.314728

v 135.807190 52.145813 9.304550

v 128.049103 51.637867 9.215946

v 154.935547 64.096405 9.388211

v 126.324188 49.356155 10.357933

v 162.062866 68.230682 10.435669

v 143.633804 55.774689 9.322123

v 157.823166 64.168343 9.357892

v 126.786377 46.061356 10.286621

v 164.090103 66.971634 10.179443

v 164.206940 64.887581 9.444073

v 142.746552 51.366146 9.266663

v 166.663010 66.067444 10.449799

v 166.899689 64.490051 9.536835

v 140.976044 49.276733 9.281249

v 127.386719 42.720093 11.099609

v 168.726929 64.328369 9.925415

v 126.420166 38.443298 9.112000

v 128.076538 38.820419 10.184387

v 128.617554 35.748840 9.884827

v 172.162354 63.574402 12.240967

v 126.315247 34.825531 8.952728

v 129.550171 33.811340 9.765198

v 147.151382 45.222107 9.194275

v 130.838959 31.900299 9.311218

v 174.409576 62.205505 12.552124

v 149.356018 43.577484 9.267612

v 152.623871 37.759304 9.297396

v 132.768723 30.689896 10.305176

v 158.134064 39.549126 9.339645

v 134.327057 28.829458 10.449646

v 136.632996 28.054367 9.335785

v 136.726105 25.254833 9.916901

v 142.372742 27.251995 9.018175

v 137.639542 25.913116 9.047211

v 180.963379 51.093994 9.919434

v 179.545288 48.768127 9.181000

v 154.974365 33.009361 9.312346

v 136.392883 24.026779 10.262817

v 181.549927 46.618484 9.747101

v 136.961319 21.309784 10.183548

v 178.299240 45.901413 9.317112

v 183.748169 48.706451 11.362000

v 180.866379 43.804794 9.561943

v 175.797333 42.393456 9.359425

v 161.724579 29.059752 9.322248

v 138.701508 19.901428 10.492828

v 169.828979 34.434971 9.367424

v 183.333862 44.762058 11.162949

v 174.666153 39.037601 9.395565

v 178.973007 38.212097 9.426620

v 140.197800 17.257442 10.128658

v 180.495178 38.880768 9.761749

v 182.993332 41.570313 11.252281

v 142.234650 15.520690 10.165825

v 171.007935 26.662008 9.348722

v 179.171265 34.819958 9.629974

v 176.789398 31.799240 9.391774

v 169.579315 25.632553 9.012939

v 143.983078 13.759106 10.134613

v 181.428253 34.597702 11.176132

v 178.099213 31.307499 9.625534

v 145.615662 12.521137 10.152161

v 176.100571 27.534000 9.479038

v 147.539322 11.379040 10.199005

v 178.525131 26.807505 11.168297

v 180.266525 30.424425 11.212818

v 150.763092 9.873985 11.607971

v 174.502075 23.487762 9.989075

v 172.587799 18.395416 11.046478

v 156.307449 10.244339 10.341080

v 170.724182 17.396698 10.804474

v 165.200409 13.603149 10.671692

v 159.953064 11.102356 10.596985

v 115.851692 89.749634 12.242332

v 118.876488 91.460983 11.704712

v 115.453995 88.322746 12.178692

v 121.191673 90.963516 13.492859

v 123.526825 90.112030 13.700562

v 125.303780 89.122482 13.671600

v 115.645264 82.226959 12.100769

v 127.858536 87.060394 12.337280

v 116.363228 78.790642 12.131485

v 120.570068 67.559082 12.239868

v 125.605560 58.740921 12.207237

v 143.373291 70.674103 12.377197

v 145.860016 70.286469 12.390762

v 125.704559 57.008640 12.181580

v 148.289337 70.567322 12.436859

v 126.170959 53.826622 12.236084

v 151.311188 71.003723 12.592407

v 156.789719 70.712036 12.342896

v 126.937988 50.608643 12.692871

v 162.189453 69.035889 12.360596

v 166.085754 67.147156 12.381042

v 169.686951 65.354004 12.396484

v 130.119873 38.233673 13.887451

v 176.834839 60.038940 12.464355

v 133.274292 32.282715 13.876221

v 179.356232 57.253662 12.502930

v 182.685059 53.326538 12.618652

v 137.954285 23.923004 11.685303

v 186.686218 48.647461 13.080505

v 143.897308 18.738678 11.754669

v 142.043091 16.951843 10.839020

v 186.565811 41.767746 11.513618

v 182.473770 38.495819 11.233982

v 146.789246 13.499084 11.602264

v 185.820557 36.484982 11.416027

v 187.489502 38.305176 12.247559

v 185.318680 33.622074 11.484848

v 188.123718 35.662994 12.967285

v 148.918213 11.871262 13.664551

v 183.104919 29.033712 11.367748

v 184.065491 28.453033 11.713135

v 187.312210 31.551805 13.249945

v 181.656937 24.356813 11.430176

v 176.496857 22.529951 11.226244

v 155.629272 8.314020 12.383333

v 179.604736 21.299625 11.402145

v 184.535400 25.840778 12.832092

v 158.697998 8.894341 12.045208

v 176.530945 17.989914 11.406033

v 161.688232 9.503864 11.978767

v 183.661514 22.782780 13.137135

v 171.716599 14.482435 11.378727

v 169.170700 12.479462 11.994576

v 164.591278 10.314383 12.163322

v 179.858643 18.360291 12.767395

v 173.053345 14.168388 11.841858

v 174.655243 13.613632 12.910568

v 118.137634 90.270386 14.444092

v 116.238617 89.367401 14.103531

v 115.756409 86.665115 14.237488

v 116.211060 82.720184 14.281372

v 126.908569 87.284943 14.351074

v 117.077087 78.769806 14.928467

v 129.961853 84.449402 14.145020

v 132.217743 81.838989 14.414795

v 118.326576 69.798447 14.988892

v 120.889160 66.557396 14.745117

v 138.405121 75.832611 16.128906

v 123.788025 63.230560 14.794312

v 143.236389 72.469482 14.001343

v 126.190704 59.421707 13.941589

v 148.406326 72.694580 14.115601

v 153.678955 72.680054 14.157959

v 127.222305 56.160465 14.581787

v 156.606506 72.870728 14.775024

v 127.483185 53.589661 14.721191

v 163.324829 70.565613 14.201660

v 167.707397 68.499817 14.243774

v 128.893982 47.012024 16.357544

v 170.600525 66.944519 14.225464

v 172.782349 65.972351 14.719360

v 175.586777 63.717346 14.631836

v 177.430847 61.617065 14.184814

v 179.896790 59.433197 14.261597

v 181.835754 57.678345 14.282776

v 135.669022 29.043669 14.286713

v 184.332214 55.110291 14.276825

v 138.360855 26.014610 13.990051

v 186.507507 52.628510 14.142914

v 141.114319 23.570389 13.979492

v 188.230972 50.805603 14.324448

v 189.695831 47.203575 13.494904

v 190.334167 48.235764 14.293396

v 143.951950 21.225403 14.123718

v 192.737305 45.748184 14.006973

v 189.005356 42.542488 13.212944

v 146.392029 16.981689 14.284912

v 193.448486 42.714851 13.341587

v 189.469086 38.698238 13.282992

v 195.259705 43.512985 13.990356

v 197.878021 40.347252 13.343777

v 199.721695 41.077042 14.507446

v 188.673508 33.834938 13.279087

v 200.446594 39.051140 14.109207

v 186.284714 28.445885 13.190685

v 199.923050 35.762196 13.378525

v 201.197998 36.894112 14.288147

v 151.760559 9.443855 14.856689

v 201.609375 34.142990 14.203430

v 185.585159 24.944925 13.225681

v 198.900146 24.803543 13.295152

v 158.686539 8.336092 15.752411

v 201.520447 31.663765 13.974213

v 199.558823 28.919008 13.348983

v 161.766312 8.775012 15.115540

v 181.404785 18.356308 13.186341

v 186.083984 12.419189 13.206724

v 167.621643 9.700401 15.911591

v 171.338928 11.703979 14.201660

v 200.559387 26.491730 14.099365

v 173.800903 12.039673 14.333435

v 176.347122 13.170731 13.212772

v 178.463074 11.933502 13.225710

v 197.306808 20.365896 13.318336

v 199.636383 22.380795 14.061829

v 189.906952 11.338907 13.236177

v 193.684326 14.515942 13.258320

v 181.446259 9.578003 14.700806

v 198.244812 18.777779 14.219696

v 196.188416 17.634787 13.360870

v 184.479675 10.893188 13.431419

v 183.815430 9.542725 14.386597

v 196.797180 15.705202 14.310905

v 195.347992 13.980158 14.353165

v 194.081375 12.468525 14.270844

v 191.680298 10.630089 14.194611

v 189.290665 9.525111 14.520837

v 119.914513 89.416504 16.217163

v 118.346832 87.542084 16.901360

v 117.264832 86.463654 16.268433

v 123.821960 88.259674 16.411835

v 118.337280 81.937622 16.704712

v 125.609863 85.959595 16.820404

v 118.279419 79.850952 17.383789

v 128.590515 82.815430 16.991821

v 117.619102 74.294327 17.988892

v 118.418655 69.839981 18.497726

v 134.382568 78.582077 16.371094

v 140.925049 74.522110 16.301361

v 143.735565 74.053497 16.529266

v 126.276932 60.104218 17.575348

v 145.927643 73.970612 16.628641

v 148.893372 73.947723 16.096558

v 152.144058 73.919403 16.111206

v 161.961182 71.827271 15.710449

v 128.171463 51.502075 16.945480

v 165.901764 70.709122 16.942902

v 168.133728 69.586205 16.942108

v 171.617920 67.669174 17.273926

v 130.185730 40.875122 16.659912

v 132.712677 33.792999 16.446899

v 180.090881 60.249634 16.602051

v 182.769073 57.381454 16.414886

v 185.672241 54.087955 16.767517

v 187.736206 51.436707 16.966553

v 140.948303 25.090820 18.910645

v 189.397430 49.281006 16.811646

v 144.079285 22.410686 19.215454

v 191.696136 47.258316 16.648010

v 145.423706 20.138916 16.815186

v 193.901611 45.651947 16.060547

v 198.458298 42.938660 16.346802

v 149.073730 14.467285 19.678955

v 201.647339 36.568169 16.523560

v 156.014465 8.312725 17.121155

v 202.144424 31.809998 15.940430

v 169.722122 9.810411 16.339174

v 172.035904 10.452342 15.967122

v 174.523270 10.544952 15.861450

v 201.279907 26.105164 16.641357

v 199.544601 20.356079 16.605774

v 182.414627 8.128830 16.006561

v 197.196793 16.353802 16.581909

v 185.168365 6.927406 16.128300

v 187.419830 7.274551 16.115623

v 192.053391 10.159180 15.823730

v 119.749947 88.206482 16.946457

v 121.847824 83.983566 17.167667

v 119.471756 82.987656 17.096378

v 124.989220 83.432098 17.505096

v 120.499954 79.852966 19.504608

v 118.134964 76.724915 20.409424

v 129.500488 81.193680 17.878662

v 123.636414 62.548264 19.602844

v 148.354980 73.822968 18.109741

v 151.704651 74.342567 18.044922

v 154.533676 74.206161 18.074280

v 126.436646 58.090210 18.874268

v 157.605743 73.763687 18.062078

v 127.339783 54.756104 18.324707

v 160.575333 72.916153 18.212173

v 129.520950 44.527073 18.049805

v 176.142838 64.935753 19.143738

v 178.484192 62.728607 19.795898

v 134.998322 29.789444 18.098389

v 137.268051 27.896606 19.100586

v 184.168945 54.789795 19.693359

v 147.531494 16.895508 19.729248

v 198.769485 43.149334 19.033051

v 150.732422 11.010178 17.925415

v 153.372040 9.815460 19.302795

v 201.958405 32.174213 21.583130

v 164.745422 9.164596 19.676643

v 168.716751 9.615944 21.373215

v 172.126358 10.128194 18.724300

v 177.886353 8.916353 18.671021

v 182.263962 6.979012 18.386536

v 193.750153 12.069733 22.087036

v 187.904663 6.905914 18.138184

v 124.447571 81.497070 19.486694

v 120.265259 78.639404 20.867920

v 125.685364 80.087891 21.588135

v 127.996643 79.711426 22.052979

v 131.475830 78.247314 22.007080

v 117.617378 74.019394 22.279297

v 119.058838 68.021301 20.335938

v 133.961060 77.113525 21.808105

v 121.133850 65.283936 19.860535

v 140.224564 73.600037 23.778961

v 125.981201 55.824951 20.808594

v 158.705780 72.279480 23.849731

v 128.008392 50.097412 20.717773

v 164.548462 70.372986 23.870605

v 128.934143 46.570793 21.209717

v 130.113831 41.404572 21.458130

v 172.198807 67.364899 20.659790

v 131.166443 38.135559 20.809875

v 132.723389 34.269318 21.810944

v 179.741547 60.998291 21.774719

v 133.628784 32.202793 20.991974

v 186.802979 50.003662 20.011475

v 189.648651 47.543762 20.018799

v 191.644409 46.283630 20.832336

v 196.051239 44.757835 20.300842

v 151.984924 11.353882 19.885376

v 200.978271 37.552567 22.050537

v 199.639236 41.221741 21.934937

v 157.619080 9.549622 20.913940

v 201.506714 34.996796 22.303711

v 202.042969 29.384766 21.750122

v 200.519745 23.412476 21.986572

v 199.315796 20.642113 21.904541

v 197.878845 18.062363 21.991211

v 185.147354 6.253289 23.718693

v 190.893173 8.399376 21.676758

v 118.881790 76.290085 23.034485

v 118.116562 68.681198 23.409927

v 137.990326 74.537292 23.785614

v 120.847534 62.915405 21.776611

v 143.944824 72.552734 23.686157

v 123.033325 60.253174 21.668213

v 148.698090 72.114868 24.227539

v 152.766205 72.685211 23.839844

v 155.207489 72.476318 23.956055

v 126.017700 52.688690 23.663940

v 176.056946 64.571960 22.090088

v 178.214508 62.703796 21.976807

v 135.328781 29.981220 23.132507

v 183.780273 53.726074 21.850098

v 184.574219 51.406677 21.432129

v 138.738617 27.922119 23.950684

v 184.758118 49.946655 21.194885

v 144.657867 24.682056 23.414978

v 182.985901 46.533623 22.010925

v 184.317078 46.810669 21.237427

v 146.145874 22.442291 22.295227

v 188.395752 47.077637 20.884766

v 183.522308 45.384125 22.009003

v 187.389252 45.684601 21.781891

v 148.746155 18.094391 22.048279

v 194.174957 45.158752 22.104858

v 197.369141 43.578247 21.971680

v 151.847412 15.906036 22.827026

v 153.583984 12.451111 21.559448

v 199.393677 40.362671 22.676270

v 161.859894 9.124229 21.810150

v 166.341522 9.050013 23.650761

v 171.326385 11.476799 25.560333

v 181.926514 7.052269 24.648849

v 196.039856 15.169647 21.846436

v 189.221786 7.195265 23.668671

v 119.906067 75.433609 25.888802

v 123.177002 77.578125 24.139648

v 118.232307 71.532227 25.650291

v 128.631348 77.040039 24.206543

v 135.127441 75.353760 24.041504

v 119.015808 64.221191 24.139648

v 120.269775 60.925293 25.197754

v 126.944153 49.583740 23.814697

v 127.987183 44.129345 25.088379

v 167.460236 68.343384 25.629517

v 129.939209 39.012604 23.792236

v 173.433594 64.368896 25.755859

v 130.761505 36.073952 23.745430

v 133.171844 31.903055 23.799690

v 180.353027 57.532093 24.052246

v 136.432449 29.504059 25.051208

v 181.526367 53.544189 24.207031

v 181.497070 49.454102 24.263672

v 181.280273 45.550903 24.200195

v 183.325378 44.071228 23.702911

v 187.888870 44.632080 23.596558

v 148.886902 22.736025 23.781075

v 151.177567 20.375114 23.458130

v 191.297363 44.594116 24.004395

v 195.314941 43.232605 24.343506

v 152.118774 19.187256 24.191162

v 154.264282 13.866669 23.861755

v 158.362061 11.023727 23.917419

v 160.937531 9.804054 23.756454

v 199.331055 32.847656 28.595703

v 168.751419 9.748505 23.767670

v 200.141357 26.769882 25.315918

v 176.003113 10.268127 25.409668

v 179.571945 8.340515 25.384949

v 196.483154 19.352203 26.190674

v 194.815430 15.916748 25.457520

v 193.222412 12.605713 24.442871

v 191.341400 9.235779 23.943970

v 187.607880 6.655174 23.759514

v 121.477966 75.382385 26.173401

v 118.367981 74.331566 25.616558

v 128.222900 74.150940 26.410828

v 132.241699 73.925659 25.662598

v 118.481972 67.506897 25.660217

v 118.578514 64.941391 25.691101

v 138.564331 72.424622 25.495117

v 144.003632 71.484009 25.554077

v 120.988312 58.482258 25.620911

v 152.040070 71.037598 26.790039

v 123.025818 54.650269 25.605286

v 123.711487 52.480713 25.653442

v 160.827637 69.242188 27.782227

v 126.732300 45.953140 26.235352

v 131.121918 36.421768 26.062134

v 175.816895 61.689453 25.583008

v 133.208252 33.392334 26.526855

v 178.483398 56.592224 25.791992

v 134.397186 31.117584 25.646484

v 179.043823 53.111023 25.660339

v 142.527649 27.043091 26.963379

v 179.141418 50.287254 25.633545

v 179.160034 46.360260 25.507202

v 181.577393 44.156311 24.982178

v 179.768936 44.227722 25.840759

v 186.122070 42.919922 28.551636

v 150.753296 21.876945 26.786621

v 193.747314 41.985233 29.729797

v 153.915283 17.105957 25.079102

v 155.239929 18.351318 27.262573

v 197.911133 39.866699 26.806641

v 157.292114 15.527344 26.238525

v 160.376923 12.523499 26.084808

v 164.739929 10.945129 25.964211

v 168.039215 10.609833 25.683762

v 172.428192 12.344940 29.798462

v 198.755371 23.639282 25.776123

v 184.548035 7.720062 26.843765

v 190.220703 11.802734 27.735840

v 186.914917 8.999359 27.808350

v 119.939713 73.614822 26.621143

v 119.779022 68.699829 26.508017

v 126.498993 71.861160 26.741913

v 120.004845 66.978844 27.122887

v 131.664795 72.647217 26.958496

v 120.604797 65.685646 28.217197

v 127.732971 69.925308 28.249741

v 119.093872 63.997498 27.558777

v 133.500793 71.380859 28.218994

v 134.340576 72.031982 27.617432

v 118.812485 62.248528 27.460890

v 137.757813 71.308899 27.874146

v 121.257263 57.763680 27.602921

v 141.368408 70.411621 28.983032

v 143.825623 70.300385 29.476563

v 122.706589 55.053886 27.597733

v 147.971069 70.130249 29.530151

v 123.336090 53.016907 27.682449

v 153.973999 69.469177 29.615845

v 124.124031 50.563694 27.590523

v 166.094238 67.149536 27.722900

v 127.887238 42.804520 29.362644

v 170.947632 63.113525 29.553955

v 174.171021 60.304565 29.710083

v 135.676025 31.600098 27.411621

v 177.105896 53.991600 29.655640

v 176.731445 47.206970 29.555786

v 178.221130 44.105209 28.166626

v 146.039551 25.090599 29.353149

v 180.191788 42.933319 28.003845

v 147.765320 23.974312 29.329788

v 182.915222 42.467957 28.503845

v 152.873932 21.014923 29.437866

v 195.918243 40.889549 29.666016

v 159.093536 16.314056 27.546448

v 162.078217 14.592850 27.206528

v 198.323242 36.671803 29.653931

v 167.281128 12.090988 26.864941

v 165.333191 13.707703 27.783081

v 169.831299 12.236176 27.593872

v 198.823242 27.859619 27.457520

v 196.976563 24.385254 27.648438

v 176.725784 10.904922 29.395752

v 179.552429 10.044067 29.656403

v 129.101624 69.032860 28.570419

v 120.591446 63.581833 28.508039

v 121.871964 59.300690 28.447773

v 134.951904 69.860229 28.647194

v 131.239105 66.169983 28.595268

v 127.096008 62.648193 28.557278

v 135.421783 68.641876 29.160889

v 130.952469 64.125206 29.081806

v 141.065674 69.313599 30.178467

v 133.758316 64.204201 30.353495

v 123.515602 56.631973 28.578876

v 126.417557 59.838573 28.877718

v 129.330627 60.585888 30.151669

v 125.527954 55.974930 30.063927

v 124.355164 52.212883 29.574280

v 159.051468 68.219147 30.125107

v 125.310684 48.810646 29.495399

v 164.011322 67.125946 29.683472

v 126.720253 45.511513 29.389694

v 167.415161 65.179138 29.831421

v 131.543579 36.632538 29.408722

v 133.836411 34.368103 29.415924

v 176.711670 55.463371 29.990234

v 136.496307 32.273727 29.509216

v 139.652527 30.093018 29.593262

v 177.046204 50.637489 29.691711

v 142.329910 28.259186 29.574432

v 144.305649 26.900024 29.644836

v 175.544708 46.596283 30.389877

v 176.076172 42.398956 29.380493

v 177.757599 40.612823 29.429718

v 176.205338 40.554283 29.645912

v 179.719818 40.874405 29.532944

v 150.399078 22.606339 29.478729

v 190.509338 42.599854 29.768433

v 159.287354 18.355408 31.014282

v 197.652893 39.049953 29.631577

v 162.341095 16.869690 31.184509

v 198.705322 32.891674 29.815796

v 197.620605 28.587708 29.794678

v 194.985596 25.476624 30.151611

v 193.473511 20.731567 29.901855

v 190.510071 15.416748 29.877808

v 182.586639 9.690773 29.785744

v 184.736816 10.352173 29.876587

v 136.148010 66.665215 30.386307

v 139.092484 67.413727 30.622940

v 145.266846 68.545044 30.773193

v 138.095139 64.491020 30.813972

v 142.096008 66.757355 32.256332

v 136.219757 61.453556 30.542332

v 129.269958 58.703232 30.455420

v 148.262207 68.845703 30.435760

v 134.750671 55.023266 30.488512

v 139.164703 61.667465 32.155945

v 140.278595 64.591133 32.222744

v 136.998993 60.040726 30.896179

v 125.630341 53.310234 30.402952

v 150.180496 65.669312 30.980835

v 135.023926 49.584167 30.461411

v 154.639404 68.081482 30.469513

v 155.908081 63.833618 30.621849

v 136.080139 54.939869 30.845093

v 138.062302 57.426437 32.121124

v 158.142334 67.044434 30.569828

v 154.556335 63.298584 31.077148

v 128.106934 46.433228 30.415064

v 136.453430 49.916061 30.904846

v 164.248093 65.472641 30.563694

v 137.618408 53.073120 31.989380

v 165.035034 60.655670 30.626778

v 158.453003 61.310547 31.022949

v 136.253571 45.189774 30.457727

v 130.290665 41.606201 30.390167

v 139.164795 46.555908 32.353516

v 137.456848 45.689636 30.900940

v 164.305847 59.460693 31.134399

v 169.826447 62.071709 30.584293

v 159.786438 59.528320 32.119385

v 138.252411 42.031830 30.984467

v 137.026215 39.953957 30.480488

v 172.734192 59.837608 30.560242

v 170.275665 56.424904 30.617153

v 168.386841 56.246765 31.091675

v 136.506119 37.098572 30.461517

v 134.260712 35.422447 30.206284

v 138.002594 38.229195 31.156189

v 137.809341 34.289276 30.771393

v 170.782959 52.918640 31.071655

v 175.755646 52.962456 30.582886

v 172.277679 51.073486 30.636368

v 138.973145 32.185303 31.011597

v 175.665741 50.181488 30.559734

v 171.220947 47.442993 31.135864

v 141.107056 30.865723 31.673340

v 172.023804 46.086273 30.834686

v 146.062744 28.903076 31.867065

v 174.720215 43.446014 30.608093

v 170.283447 43.948975 32.813477

v 173.860596 41.704468 32.062866

v 149.811218 25.962189 31.830780

v 175.111145 41.083099 31.511841

v 176.598694 39.666199 31.644897

v 178.509659 39.821457 31.581879

v 181.984848 39.935303 31.958527

v 186.456772 41.140442 31.715668

v 154.543701 22.301620 31.576965

v 157.842377 20.595909 32.010254

v 191.967285 40.656250 31.514160

v 195.308594 36.111816 32.053467

v 191.763092 39.157715 32.510864

v 165.685776 15.958801 31.669220

v 194.898712 33.005219 32.472191

v 195.326660 29.871338 31.675781

v 172.154358 13.905125 31.830223

v 192.336853 27.278152 32.466618

v 190.259918 23.838257 32.388321

v 191.104980 21.422821 31.052246

v 178.954346 11.660599 30.708218

v 188.651123 16.928711 31.057373

v 188.009430 19.330414 32.316589

v 183.431702 12.458496 30.986694

v 185.655090 15.285706 32.126465

v 181.214813 13.497009 32.134567

v 147.206543 65.874023 31.984863

v 145.183670 64.667847 32.663742

v 141.285263 61.657951 32.651588

v 143.835541 62.827740 33.667435

v 146.934814 63.518677 33.395874

v 142.189575 59.868000 33.729004

v 140.772964 57.622681 32.791061

v 152.874756 61.941406 32.865234

v 139.565491 52.355568 32.801666

v 142.963196 56.927422 34.497223

v 159.219116 57.816895 33.182861

v 140.476563 45.565315 33.507324

v 164.793457 56.059326 33.051147

v 139.646606 41.119019 33.167114

v 167.209961 54.219727 33.127930

v 139.146057 37.333138 33.376556

v 139.787811 33.862488 33.389038

v 169.314209 47.764282 33.005371

v 140.827881 31.818115 33.268684

v 144.291382 30.804565 33.388535

v 144.991196 31.518860 33.925606

v 147.326111 29.615547 32.404018

v 150.172791 30.472763 32.777634

v 170.362579 42.899658 32.766541

v 150.329437 31.983528 33.925640

v 155.752975 29.315285 32.753063

v 155.431396 28.071274 32.406151

v 175.515656 37.913239 32.491158

v 152.655380 25.789093 32.341499

v 171.592590 39.169296 32.676727

v 172.830994 35.014194 32.512848

v 171.271118 34.612915 32.860779

v 165.350174 28.034214 32.445442

v 179.911621 38.096298 33.823563

v 159.795288 31.367207 34.286888

v 160.816406 20.158028 32.372437

v 176.275238 35.476196 34.051636

v 174.061523 34.040131 33.111694

v 169.127228 33.052490 34.188568

v 169.810425 30.659485 32.821106

v 181.760498 38.193237 33.243042

v 172.989243 32.460899 32.534061

v 186.394928 39.777878 32.483139

v 183.384003 38.029907 32.651703

v 168.991776 28.309845 32.440926

v 175.726929 33.375961 34.307354

v 181.530151 36.900513 34.100464

v 185.309021 34.765137 32.512070

v 173.730179 26.375263 32.468277

v 184.279053 32.597839 32.818420

v 168.535645 16.753021 32.386379

v 161.351196 18.431427 32.092369

v 175.859070 29.206310 34.076538

v 174.307297 21.312534 32.453735

v 186.428619 28.017456 32.498360

v 185.815430 25.640686 32.814514

v 182.614136 31.989258 34.066406

v 176.749756 24.605309 34.341263

v 176.853577 20.772583 33.952454

v 177.449570 15.129929 32.444958

v 177.900024 16.594894 32.876114

v 186.739807 22.956177 32.523056

v 183.861328 22.896149 34.057739

v 185.218933 20.820831 32.642868

v 183.544464 17.793640 32.739319

v 181.460632 18.698593 34.264206

v 181.409988 15.924500 32.786285

v 180.061157 17.961525 34.277916

v 146.342468 62.180328 35.633698

v 143.997299 61.877205 35.521999

v 144.045013 59.898193 35.908554

v 148.395264 61.800415 35.170044

v 145.999512 53.889709 35.815857

v 150.395996 59.792816 35.888428

v 141.574036 53.006824 34.143234

v 153.474976 57.907227 35.845947

v 145.123276 49.897186 34.487164

v 141.580017 49.722759 34.207321

v 158.410950 56.602722 35.394165

v 146.305511 45.056488 34.334255

v 141.938354 45.250298 34.266407

v 148.010773 45.366592 34.633377

v 162.140625 55.014404 35.590515

v 149.271759 46.778366 35.939728

v 141.021072 40.251945 34.264908

v 164.180420 53.179535 35.839233

v 140.663544 36.227615 34.228989

v 150.040039 33.488037 34.301979

v 167.457642 47.244385 35.788940

v 154.151520 42.086777 34.719101

v 154.307785 44.008240 35.927460

v 152.789764 41.636383 34.346306

v 141.572983 33.199821 34.242729

v 159.339340 37.103630 34.368862

v 160.572449 37.954224 34.913574

v 161.141266 39.094009 35.936615

v 167.223709 44.530502 36.252663

v 168.603882 43.416000 35.417969

v 168.465942 39.814575 35.837769

v 163.097305 34.087563 34.457638

v 156.351242 30.925194 33.999195

v 169.395264 38.058105 34.522461

v 167.358521 35.557251 34.992554

v 165.801956 33.810928 34.549297

v 163.811676 35.719666 35.567505

v 165.294312 30.508850 34.094902

v 180.413437 36.236023 34.421616

v 176.947510 29.046638 34.371960

v 181.866150 29.808350 34.379383

v 183.858154 26.955444 34.001343

v 182.998566 24.768677 34.382324

v 145.301422 60.774490 36.294601

v 147.244171 54.142017 36.261379

v 153.778076 56.106445 36.311298

v 161.262268 54.101067 36.287453

v 147.303833 50.128113 35.962387

v 149.732330 47.759277 36.265778

v 154.796112 45.403503 36.275917

v 165.931305 47.299469 36.324615

v 161.376404 40.611275 36.283108

v 167.356476 40.681213 36.274609

v 165.031586 36.784210 36.240654

f 1 2 3
f 3 4 1
f 2 5 6
f 7 1 4
f 8 7 4
f 2 1 7
f 5 2 9
f 8 10 7
f 7 9 2
f 11 10 8
f 9 12 5
f 9 7 10
f 10 13 9
f 13 14 9
f 14 12 9
f 11 13 10
f 15 12 14
f 13 11 16
f 16 17 13
f 14 13 18
f 15 14 19
f 17 16 20
f 21 13 17
f 18 13 21
f 18 19 14
f 17 20 22
f 21 17 22
f 18 21 23
f 23 21 22
f 23 24 18
f 19 18 24
f 25 26 27
f 27 28 25
f 26 3 27
f 28 27 29
f 29 27 3
f 30 4 26
f 3 26 4
f 3 2 29
f 28 29 6
f 31 28 6
f 2 6 29
f 32 31 6
f 33 8 4
f 32 6 5
f 34 8 33
f 11 8 34
f 32 5 12
f 11 34 35
f 16 11 35
f 12 15 36
f 36 15 19
f 37 20 16
f 22 20 37
f 37 38 22
f 39 36 19
f 24 39 19
f 23 22 38
f 40 23 38
f 24 23 40
f 40 39 24
f 41 42 43
f 42 41 44
f 45 43 42
f 42 46 45
f 45 46 47
f 48 44 41
f 49 42 44
f 47 46 50
f 51 47 50
f 52 44 48
f 46 42 49
f 49 53 46
f 50 46 53
f 51 50 54
f 55 56 57
f 58 57 56
f 54 50 53
f 44 52 59
f 54 60 51
f 52 61 62
f 58 56 63
f 58 64 65
f 65 64 66
f 63 64 58
f 52 62 59
f 67 63 56
f 59 49 44
f 63 68 64
f 64 69 66
f 62 70 71
f 60 54 53
f 67 72 63
f 69 64 68
f 62 71 73
f 59 62 73
f 53 74 60
f 70 75 71
f 68 63 76
f 73 49 59
f 63 72 76
f 74 53 77
f 78 67 79
f 68 76 80
f 80 81 68
f 69 68 81
f 71 82 73
f 78 72 67
f 53 49 77
f 80 76 83
f 75 82 71
f 72 78 76
f 84 82 75
f 49 73 85
f 76 78 86
f 84 87 82
f 77 49 88
f 78 89 90
f 91 83 76
f 90 86 78
f 86 91 76
f 82 87 92
f 92 73 82
f 93 87 84
f 85 88 49
f 85 94 88
f 92 85 73
f 91 86 95
f 96 87 93
f 92 87 96
f 86 90 97
f 92 98 85
f 95 86 97
f 96 99 92
f 100 92 99
f 94 85 101
f 101 102 94
f 100 98 92
f 85 98 101
f 98 100 103
f 101 98 104
f 104 98 103
f 101 104 105
f 106 107 108
f 108 107 109
f 106 110 111
f 111 107 106
f 112 113 107
f 107 113 114
f 110 115 116
f 111 117 107
f 117 112 107
f 116 111 110
f 116 118 119
f 113 112 120
f 117 111 121
f 116 119 122
f 111 116 121
f 122 121 116
f 117 123 112
f 123 120 112
f 122 124 121
f 124 125 121
f 117 121 125
f 126 123 117
f 125 126 117
f 127 128 25
f 25 128 26
f 129 127 25
f 130 26 128
f 129 25 28
f 131 129 28
f 26 130 30
f 131 28 31
f 130 132 30
f 31 133 131
f 31 134 133
f 30 135 33
f 4 30 33
f 134 31 32
f 135 136 33
f 134 32 137
f 34 33 136
f 32 138 137
f 12 138 32
f 35 34 139
f 12 140 138
f 139 141 35
f 140 12 36
f 16 35 141
f 36 142 140
f 141 143 16
f 36 144 142
f 37 16 143
f 144 36 39
f 144 39 145
f 40 38 146
f 40 147 39
f 145 39 147
f 146 147 40
f 148 149 150
f 151 148 150
f 152 151 150
f 43 153 154
f 155 153 43
f 43 45 155
f 156 157 158
f 158 149 156
f 41 154 159
f 154 41 43
f 152 150 160
f 161 152 160
f 159 162 41
f 163 155 45
f 150 149 164
f 160 150 164
f 48 41 162
f 45 47 163
f 165 161 160
f 162 166 48
f 163 47 51
f 165 160 57
f 167 165 57
f 48 166 52
f 168 163 51
f 57 169 167
f 52 166 170
f 164 57 160
f 52 170 61
f 57 164 55
f 158 164 149
f 58 169 57
f 171 169 58
f 164 158 172
f 173 61 170
f 51 174 168
f 158 157 175
f 58 65 171
f 65 176 171
f 174 51 60
f 175 157 177
f 65 66 176
f 178 176 66
f 61 173 70
f 67 56 55
f 70 173 179
f 70 62 61
f 79 172 158
f 55 164 172
f 172 67 55
f 60 180 174
f 66 181 178
f 179 173 182
f 60 74 180
f 79 158 175
f 66 69 181
f 79 67 172
f 183 179 182
f 79 175 184
f 70 179 75
f 74 185 180
f 183 75 179
f 186 181 69
f 69 81 186
f 185 74 77
f 185 77 187
f 183 84 75
f 81 80 186
f 188 186 80
f 84 183 189
f 190 191 184
f 184 89 79
f 191 89 184
f 78 79 89
f 83 188 80
f 192 84 189
f 187 77 88
f 93 84 192
f 191 97 89
f 89 97 90
f 83 193 188
f 194 187 88
f 91 193 83
f 195 196 191
f 97 191 196
f 94 194 88
f 192 197 93
f 93 197 96
f 193 91 198
f 95 198 91
f 194 94 102
f 197 199 96
f 99 96 199
f 95 97 196
f 200 201 202
f 203 202 201
f 196 204 95
f 204 198 95
f 100 99 199
f 199 205 100
f 103 100 205
f 102 101 105
f 196 206 204
f 200 207 208
f 208 201 200
f 201 209 203
f 102 105 210
f 205 211 103
f 211 104 103
f 211 105 104
f 210 212 102
f 207 213 214
f 212 210 215
f 214 208 207
f 216 201 208
f 209 201 217
f 218 208 214
f 216 208 108
f 218 108 208
f 216 217 201
f 209 217 219
f 216 108 109
f 115 218 214
f 218 106 108
f 220 221 222
f 221 115 214
f 217 216 109
f 109 223 217
f 219 217 223
f 218 110 106
f 107 114 109
f 220 115 221
f 115 220 118
f 115 110 218
f 114 223 109
f 220 224 225
f 114 226 223
f 220 225 119
f 118 220 119
f 118 116 115
f 113 226 114
f 226 113 227
f 225 228 119
f 113 120 227
f 122 119 228
f 228 225 229
f 230 231 225
f 232 225 231
f 229 225 232
f 126 233 123
f 233 120 123
f 229 234 228
f 122 228 234
f 234 124 122
f 125 124 235
f 232 234 229
f 126 125 236
f 234 235 124
f 125 235 236
f 128 127 237
f 238 237 127
f 239 128 237
f 129 238 127
f 240 238 129
f 240 129 241
f 128 239 130
f 242 130 239
f 129 131 241
f 130 242 132
f 30 132 135
f 134 243 133
f 134 244 243
f 244 134 137
f 137 245 244
f 245 137 138
f 34 246 139
f 140 247 138
f 247 140 142
f 142 248 247
f 249 141 250
f 249 143 141
f 143 249 251
f 144 248 142
f 143 251 252
f 37 143 252
f 37 252 38
f 253 248 144
f 254 252 251
f 38 252 255
f 252 254 256
f 253 144 257
f 258 256 254
f 145 257 144
f 253 259 260
f 257 259 253
f 255 261 38
f 38 261 146
f 145 147 262
f 262 257 145
f 259 263 260
f 252 256 264
f 255 252 264
f 261 147 146
f 259 257 156
f 265 260 263
f 266 256 258
f 261 262 147
f 267 256 266
f 255 264 261
f 262 156 257
f 265 263 268
f 266 269 267
f 156 262 270
f 156 271 259
f 263 259 271
f 268 263 271
f 267 272 256
f 271 148 268
f 273 268 148
f 274 267 269
f 264 256 153
f 275 262 261
f 272 153 256
f 156 149 271
f 148 271 149
f 276 272 267
f 264 275 261
f 151 273 148
f 277 273 151
f 262 275 270
f 155 264 153
f 156 270 157
f 267 274 278
f 153 272 154
f 155 275 264
f 277 151 152
f 276 267 279
f 159 154 272
f 152 161 277
f 267 278 279
f 276 159 272
f 275 155 163
f 159 276 162
f 270 275 280
f 281 282 278
f 279 278 282
f 166 162 276
f 163 280 275
f 276 279 170
f 283 157 270
f 284 161 165
f 165 167 284
f 170 166 276
f 280 283 270
f 282 281 285
f 168 280 163
f 282 170 279
f 284 167 169
f 280 168 174
f 169 286 287
f 286 169 171
f 171 176 286
f 285 173 282
f 282 173 170
f 157 283 177
f 280 177 283
f 174 177 280
f 286 288 287
f 289 173 285
f 176 290 286
f 290 176 178
f 286 290 288
f 291 288 290
f 178 181 290
f 182 173 289
f 180 292 174
f 177 174 292
f 290 181 291
f 292 180 185
f 292 190 177
f 293 291 181
f 183 182 294
f 292 185 295
f 184 175 177
f 190 292 295
f 190 184 177
f 186 293 181
f 295 296 190
f 297 293 186
f 295 185 187
f 297 186 188
f 187 298 295
f 296 295 298
f 296 191 190
f 188 299 297
f 299 188 300
f 193 300 188
f 299 300 301
f 298 187 194
f 296 195 191
f 300 193 302
f 301 300 303
f 302 303 300
f 192 304 305
f 192 305 197
f 195 296 306
f 298 306 296
f 193 198 302
f 303 200 202
f 202 301 303
f 307 301 202
f 303 302 207
f 303 207 200
f 307 202 203
f 306 206 195
f 206 196 195
f 304 308 305
f 199 197 305
f 102 212 194
f 302 198 213
f 203 309 307
f 308 310 305
f 305 310 199
f 310 205 199
f 204 213 198
f 213 207 302
f 308 304 311
f 310 308 312
f 313 205 310
f 298 194 212
f 203 209 309
f 206 306 222
f 204 206 222
f 312 313 310
f 205 313 211
f 212 314 298
f 298 314 306
f 222 213 204
f 209 315 309
f 215 316 212
f 306 314 222
f 317 312 308
f 318 211 313
f 316 314 212
f 313 312 319
f 210 105 211
f 222 221 213
f 213 221 214
f 209 320 315
f 319 318 313
f 209 219 320
f 210 211 318
f 318 316 210
f 215 210 316
f 319 312 321
f 222 314 224
f 322 321 312
f 222 224 220
f 219 223 323
f 323 320 219
f 316 318 319
f 316 324 314
f 321 325 319
f 316 319 326
f 314 327 224
f 223 328 323
f 223 226 328
f 329 325 321
f 326 319 325
f 324 327 314
f 224 327 225
f 325 330 326
f 226 331 328
f 329 330 325
f 326 324 316
f 331 226 227
f 326 332 324
f 326 330 332
f 227 333 331
f 334 330 335
f 334 332 330
f 227 120 333
f 324 230 327
f 327 230 225
f 332 230 324
f 336 333 120
f 337 230 332
f 337 231 230
f 233 336 120
f 337 338 231
f 236 339 126
f 233 126 339
f 338 340 231
f 340 232 231
f 234 232 340
f 340 235 234
f 341 342 235
f 236 235 342
f 342 339 236
f 340 341 235
f 237 343 344
f 237 238 343
f 345 343 238
f 239 237 344
f 344 346 239
f 238 240 345
f 347 239 346
f 242 239 347
f 348 242 347
f 241 131 349
f 348 350 242
f 350 132 242
f 131 351 349
f 131 133 351
f 135 132 350
f 133 243 351
f 136 246 34
f 138 352 245
f 247 352 138
f 139 250 141
f 248 353 247
f 249 354 251
f 353 248 253
f 354 355 254
f 354 254 251
f 260 353 253
f 356 353 260
f 357 258 355
f 355 258 254
f 260 358 356
f 266 357 359
f 357 266 258
f 260 265 358
f 359 360 269
f 359 269 266
f 358 265 268
f 274 269 360
f 358 268 361
f 268 273 361
f 360 362 274
f 362 363 278
f 362 278 274
f 161 284 277
f 281 278 363
f 363 364 281
f 285 281 364
f 169 287 284
f 287 365 284
f 289 285 364
f 182 289 294
f 294 366 183
f 291 367 288
f 367 291 293
f 293 297 367
f 368 183 366
f 368 189 183
f 369 189 368
f 301 370 299
f 304 192 189
f 189 369 304
f 301 307 370
f 304 369 311
f 370 307 309
f 311 369 371
f 370 309 315
f 372 370 315
f 308 311 317
f 315 373 372
f 315 320 373
f 317 311 374
f 322 312 317
f 371 374 311
f 374 322 317
f 320 323 373
f 375 321 322
f 376 372 373
f 328 373 323
f 374 375 322
f 321 375 329
f 375 374 377
f 373 328 376
f 377 374 378
f 331 376 328
f 377 329 375
f 377 379 329
f 333 376 331
f 380 377 378
f 380 379 377
f 335 330 329
f 379 335 329
f 333 381 376
f 379 382 335
f 333 336 381
f 382 379 383
f 384 383 379
f 334 335 382
f 337 332 334
f 382 385 334
f 337 334 386
f 385 386 334
f 387 336 233
f 383 385 382
f 385 388 386
f 386 338 337
f 339 387 233
f 389 385 383
f 339 342 390
f 339 390 387
f 386 388 391
f 338 386 391
f 342 341 392
f 393 388 385
f 341 340 394
f 392 390 342
f 394 338 391
f 338 394 340
f 394 395 341
f 395 396 341
f 392 341 396
f 397 391 388
f 391 398 394
f 398 395 394
f 397 399 391
f 391 399 398
f 400 344 343
f 343 401 400
f 343 345 401
f 344 400 346
f 345 402 401
f 345 240 402
f 240 241 402
f 241 403 402
f 241 349 403
f 404 350 348
f 351 403 349
f 403 351 405
f 406 350 404
f 350 406 135
f 351 243 405
f 406 136 135
f 406 407 136
f 244 245 243
f 407 246 136
f 408 245 352
f 352 409 408
f 246 410 139
f 410 250 139
f 352 247 409
f 247 411 409
f 247 353 411
f 412 249 250
f 413 411 353
f 249 412 354
f 414 355 412
f 354 412 355
f 414 359 357
f 357 355 414
f 415 359 414
f 413 353 416
f 416 353 356
f 356 358 416
f 359 415 360
f 417 360 415
f 416 358 418
f 419 360 417
f 361 418 358
f 360 419 362
f 361 273 277
f 362 419 363
f 420 363 419
f 421 277 284
f 363 420 364
f 422 364 420
f 364 422 423
f 423 424 364
f 424 289 364
f 289 424 294
f 287 288 365
f 424 425 294
f 366 294 425
f 288 367 365
f 426 366 425
f 426 368 366
f 297 299 367
f 368 426 427
f 428 367 299
f 368 427 429
f 369 368 429
f 430 428 299
f 299 370 430
f 431 369 429
f 431 371 369
f 430 370 432
f 433 434 431
f 371 431 434
f 370 372 432
f 435 434 433
f 372 436 432
f 437 434 435
f 434 438 371
f 374 371 438
f 439 436 372
f 438 434 440
f 437 440 434
f 372 376 439
f 438 378 374
f 440 441 438
f 378 438 441
f 442 440 437
f 376 381 439
f 441 380 378
f 440 443 441
f 442 444 443
f 440 442 443
f 441 445 380
f 443 445 441
f 379 380 445
f 379 445 384
f 443 444 446
f 383 384 447
f 446 448 443
f 449 448 446
f 450 336 387
f 383 447 389
f 448 445 443
f 448 449 451
f 447 452 389
f 384 453 447
f 452 393 389
f 393 385 389
f 387 390 454
f 451 455 448
f 455 456 448
f 445 448 456
f 384 445 453
f 390 392 457
f 457 454 390
f 397 388 393
f 452 447 453
f 397 393 458
f 396 457 392
f 393 452 459
f 396 395 460
f 461 460 395
f 453 445 456
f 452 453 459
f 398 461 395
f 455 462 456
f 459 458 393
f 399 463 398
f 461 398 463
f 458 464 397
f 399 397 464
f 458 465 464
f 464 463 399
f 456 462 453
f 458 459 465
f 463 464 465
f 459 453 466
f 467 453 462
f 466 453 467
f 468 459 469
f 463 465 470
f 471 466 467
f 459 466 472
f 472 469 459
f 465 459 473
f 465 473 474
f 470 465 474
f 472 466 471
f 471 475 472
f 473 459 468
f 468 474 473
f 475 469 472
f 475 476 469
f 469 476 477
f 468 469 477
f 477 478 468
f 478 479 468
f 400 480 346
f 400 481 480
f 481 400 401
f 401 482 481
f 402 482 401
f 346 480 347
f 347 480 483
f 402 403 482
f 348 347 483
f 482 403 484
f 404 348 483
f 483 485 404
f 484 403 486
f 403 405 486
f 404 485 487
f 404 487 406
f 407 406 487
f 245 488 243
f 245 489 488
f 407 490 246
f 489 245 408
f 490 410 246
f 491 250 410
f 250 491 412
f 492 412 491
f 493 411 413
f 494 412 492
f 495 414 494
f 494 414 412
f 415 495 496
f 495 415 414
f 416 493 413
f 417 415 496
f 497 419 417
f 361 498 418
f 498 361 421
f 277 421 361
f 419 497 499
f 499 420 419
f 420 499 500
f 501 422 500
f 500 422 420
f 502 421 284
f 423 422 501
f 365 502 284
f 503 502 365
f 424 504 425
f 503 365 367
f 426 425 504
f 504 505 426
f 367 428 503
f 505 427 426
f 429 427 505
f 506 429 505
f 506 431 429
f 506 507 431
f 430 432 508
f 433 431 507
f 507 509 433
f 432 436 510
f 435 433 509
f 509 511 435
f 436 512 510
f 511 437 435
f 512 436 439
f 513 437 511
f 513 442 437
f 442 513 514
f 444 442 514
f 381 515 439
f 381 336 450
f 444 516 446
f 449 446 516
f 387 517 450
f 451 449 516
f 454 517 387
f 451 516 518
f 451 518 455
f 460 457 396
f 455 518 462
f 461 519 460
f 461 463 520
f 520 519 461
f 520 463 521
f 462 518 522
f 462 522 467
f 467 522 523
f 470 521 463
f 521 470 524
f 523 471 467
f 471 523 525
f 474 526 470
f 526 524 470
f 475 471 525
f 474 468 479
f 479 527 474
f 526 474 527
f 477 528 478
f 479 478 528
f 527 479 528
f 529 480 481
f 480 529 483
f 481 530 529
f 529 485 483
f 529 530 485
f 481 531 530
f 531 481 482
f 531 482 484
f 530 532 485
f 533 531 484
f 485 532 487
f 405 534 486
f 405 243 534
f 487 535 407
f 243 488 534
f 490 407 535
f 489 408 409
f 409 411 536
f 411 493 536
f 537 495 494
f 537 538 495
f 538 496 495
f 539 496 538
f 417 496 539
f 540 493 416
f 541 417 539
f 416 542 540
f 543 417 541
f 543 497 417
f 542 416 418
f 418 498 542
f 497 543 499
f 544 421 502
f 423 501 545
f 424 423 545
f 546 424 545
f 504 424 546
f 428 547 503
f 428 548 547
f 549 506 505
f 548 428 430
f 548 430 508
f 508 432 510
f 439 550 512
f 514 513 551
f 439 515 550
f 381 552 515
f 444 514 551
f 552 381 450
f 551 516 444
f 450 553 552
f 450 517 553
f 516 554 518
f 555 454 457
f 457 460 555
f 556 555 460
f 519 556 460
f 519 520 557
f 520 521 557
f 558 557 521
f 521 524 558
f 558 524 559
f 525 476 475
f 526 559 524
f 476 525 560
f 477 476 560
f 560 528 477
f 561 526 527
f 528 561 527
f 531 533 530
f 486 533 484
f 562 530 533
f 562 532 530
f 563 533 486
f 486 534 563
f 487 532 562
f 487 562 564
f 487 565 535
f 487 564 565
f 566 490 535
f 567 488 489
f 568 489 409
f 490 569 410
f 568 409 570
f 571 491 410
f 409 536 570
f 571 492 491
f 536 493 540
f 572 540 542
f 573 541 539
f 543 541 573
f 498 574 542
f 575 499 543
f 574 498 421
f 421 576 574
f 576 421 544
f 544 577 576
f 501 500 578
f 544 579 577
f 579 544 502
f 545 501 578
f 579 502 503
f 503 580 579
f 546 581 504
f 503 582 580
f 582 503 547
f 505 504 581
f 581 549 505
f 507 506 549
f 549 583 507
f 507 583 509
f 509 583 584
f 509 584 511
f 511 584 585
f 512 550 510
f 586 511 585
f 586 513 511
f 586 551 513
f 587 515 552
f 588 551 589
f 588 516 551
f 553 587 552
f 517 590 553
f 517 454 590
f 554 516 591
f 554 592 518
f 522 518 592
f 592 593 522
f 523 522 593
f 523 593 594
f 523 594 595
f 595 525 523
f 526 596 559
f 561 596 526
f 561 528 597
f 564 562 533
f 564 533 563
f 598 563 534
f 488 567 534
f 566 535 565
f 567 489 599
f 489 568 599
f 490 566 569
f 410 569 600
f 570 601 568
f 600 571 410
f 601 570 536
f 602 492 571
f 601 536 603
f 602 494 492
f 602 537 494
f 603 536 540
f 572 603 540
f 537 604 538
f 604 605 538
f 605 539 538
f 605 606 539
f 542 574 607
f 575 500 499
f 575 578 500
f 608 545 578
f 546 545 608
f 608 609 546
f 609 581 546
f 610 582 547
f 581 611 549
f 547 548 610
f 549 611 612
f 613 548 508
f 583 549 612
f 612 614 583
f 508 510 615
f 616 617 614
f 618 615 510
f 614 619 583
f 614 617 619
f 583 619 584
f 620 617 616
f 617 621 619
f 621 617 620
f 585 584 619
f 619 621 585
f 510 550 618
f 550 622 618
f 623 586 585
f 586 623 624
f 625 622 550
f 550 515 625
f 624 551 586
f 624 589 551
f 625 515 626
f 515 587 626
f 588 589 627
f 587 553 626
f 590 626 553
f 588 591 516
f 590 454 628
f 454 555 628
f 556 629 555
f 519 557 556
f 558 630 557
f 558 559 631
f 525 595 632
f 632 560 525
f 596 631 559
f 528 560 597
f 597 633 561
f 563 634 635
f 634 563 598
f 563 635 564
f 534 567 598
f 564 635 565
f 636 567 599
f 565 637 566
f 566 637 638
f 569 566 638
f 568 639 599
f 569 638 600
f 639 568 601
f 603 640 601
f 604 537 602
f 603 607 640
f 607 603 572
f 573 539 606
f 542 607 572
f 573 575 543
f 641 607 574
f 641 574 576
f 642 641 576
f 643 578 575
f 642 576 577
f 577 644 642
f 645 578 643
f 608 578 645
f 644 577 579
f 579 646 644
f 609 608 645
f 579 580 646
f 580 647 646
f 647 580 582
f 647 582 610
f 648 611 581
f 610 548 649
f 648 650 611
f 548 613 649
f 612 611 650
f 650 651 612
f 615 613 508
f 614 612 651
f 651 616 614
f 652 653 616
f 616 653 620
f 654 621 620
f 620 653 654
f 615 618 655
f 618 656 655
f 654 585 621
f 657 585 654
f 623 585 657
f 618 622 656
f 658 623 657
f 656 625 659
f 656 622 625
f 623 658 624
f 589 624 658
f 658 627 589
f 625 626 660
f 660 590 661
f 590 660 626
f 590 662 661
f 590 628 662
f 663 554 591
f 663 592 554
f 628 629 662
f 629 628 555
f 630 664 556
f 556 664 629
f 556 557 630
f 592 665 593
f 630 558 666
f 558 667 666
f 595 594 668
f 667 558 631
f 632 595 669
f 670 632 669
f 560 632 670
f 560 670 671
f 560 671 597
f 561 672 596
f 671 633 597
f 561 633 672
f 634 673 635
f 598 674 634
f 598 567 674
f 567 636 674
f 637 565 635
f 673 675 635
f 637 635 675
f 637 675 676
f 599 677 636
f 676 638 637
f 677 599 639
f 677 639 678
f 679 638 676
f 600 638 679
f 600 679 571
f 639 601 640
f 571 679 602
f 602 679 680
f 680 604 602
f 681 640 607
f 604 680 682
f 681 607 683
f 682 605 604
f 606 605 682
f 607 684 683
f 607 641 684
f 573 685 575
f 641 686 684
f 686 641 642
f 687 644 646
f 609 645 688
f 689 687 646
f 581 609 688
f 648 581 688
f 646 647 689
f 688 690 648
f 647 691 689
f 647 610 691
f 610 649 691
f 690 650 648
f 692 650 690
f 613 693 649
f 650 692 694
f 651 650 694
f 613 615 693
f 694 695 651
f 695 652 651
f 652 616 651
f 696 652 695
f 695 697 696
f 653 652 696
f 698 654 653
f 699 655 656
f 699 656 659
f 700 658 657
f 701 702 659
f 701 659 625
f 625 660 701
f 627 658 703
f 704 701 660
f 588 627 703
f 703 591 588
f 661 705 704
f 661 704 660
f 661 662 705
f 705 662 706
f 706 662 629
f 707 706 629
f 592 663 665
f 630 707 664
f 664 707 629
f 630 666 708
f 665 709 593
f 593 709 668
f 593 668 594
f 595 668 669
f 631 596 710
f 670 711 671
f 712 710 596
f 633 671 712
f 672 712 596
f 712 672 633
f 634 713 673
f 713 634 674
f 674 636 713
f 713 675 673
f 636 714 713
f 715 675 713
f 713 714 715
f 677 714 636
f 716 715 714
f 677 716 714
f 717 676 675
f 675 715 717
f 718 715 716
f 677 678 716
f 715 719 717
f 716 678 718
f 678 720 718
f 676 721 722
f 721 676 717
f 720 678 639
f 639 723 720
f 676 722 679
f 724 679 722
f 723 639 640
f 640 725 723
f 679 724 726
f 725 640 681
f 726 680 679
f 680 726 727
f 681 728 725
f 680 727 729
f 728 681 683
f 680 729 682
f 683 730 728
f 731 606 682
f 683 684 730
f 730 684 732
f 685 606 731
f 606 685 573
f 732 684 686
f 643 575 685
f 733 643 685
f 642 734 686
f 645 643 733
f 734 642 644
f 735 645 733
f 644 687 734
f 735 736 645
f 688 645 736
f 689 691 737
f 738 692 690
f 691 649 737
f 693 737 649
f 739 695 694
f 739 740 695
f 615 741 693
f 697 695 740
f 741 615 655
f 742 697 740
f 655 743 741
f 742 696 697
f 696 744 653
f 696 742 744
f 655 699 743
f 653 744 698
f 698 657 654
f 745 699 659
f 746 658 700
f 658 746 703
f 704 702 701
f 702 704 747
f 748 747 704
f 704 705 748
f 591 703 749
f 749 663 591
f 748 750 751
f 706 748 705
f 748 706 750
f 751 750 752
f 707 750 706
f 750 707 752
f 630 752 707
f 665 663 753
f 752 630 708
f 753 709 665
f 709 753 754
f 666 755 708
f 668 709 754
f 755 666 667
f 667 756 755
f 667 631 756
f 669 711 670
f 712 671 711
f 719 715 718
f 721 717 719
f 719 757 721
f 720 758 718
f 757 719 718
f 718 758 757
f 720 723 758
f 759 758 723
f 724 722 721
f 721 760 724
f 760 721 757
f 757 761 760
f 757 762 761
f 760 763 724
f 763 760 761
f 762 757 758
f 758 759 762
f 723 725 759
f 724 763 726
f 764 763 761
f 765 726 763
f 764 766 763
f 764 761 762
f 767 759 725
f 764 768 769
f 768 764 762
f 768 762 759
f 759 767 768
f 728 767 725
f 767 770 768
f 767 771 770
f 767 728 771
f 682 729 731
f 728 730 771
f 732 771 730
f 731 772 685
f 732 773 771
f 774 685 772
f 773 732 686
f 686 775 773
f 685 774 733
f 775 686 734
f 776 733 774
f 735 733 776
f 687 777 734
f 687 778 777
f 778 687 689
f 736 690 688
f 689 737 778
f 736 779 690
f 737 780 778
f 738 690 779
f 737 781 780
f 738 782 692
f 737 693 781
f 694 692 782
f 693 783 781
f 782 739 694
f 693 784 783
f 740 739 785
f 785 786 740
f 784 693 741
f 786 787 740
f 740 787 742
f 787 786 788
f 789 742 787
f 699 790 743
f 742 789 744
f 699 745 790
f 791 657 698
f 791 700 657
f 745 659 702
f 702 792 745
f 702 747 792
f 703 746 793
f 749 703 793
f 747 748 794
f 794 748 751
f 749 795 663
f 751 752 708
f 663 795 796
f 663 796 753
f 754 796 797
f 796 754 753
f 798 754 797
f 798 668 754
f 668 798 799
f 631 800 756
f 668 799 669
f 799 711 669
f 800 631 710
f 801 712 711
f 801 800 710
f 801 710 712
f 766 802 763
f 803 763 802
f 766 764 769
f 804 727 726
f 726 765 804
f 763 803 765
f 805 803 802
f 727 804 729
f 806 765 803
f 803 805 806
f 807 802 766
f 808 766 769
f 729 804 809
f 806 804 765
f 805 802 807
f 770 769 768
f 766 810 807
f 810 766 808
f 808 769 770
f 805 811 812
f 805 813 811
f 731 729 809
f 813 805 807
f 814 808 770
f 814 770 771
f 815 809 804
f 808 814 816
f 731 809 817
f 816 810 808
f 813 807 810
f 809 818 817
f 809 815 818
f 810 819 813
f 813 819 820
f 731 821 772
f 821 731 817
f 771 773 814
f 822 818 815
f 816 814 823
f 823 814 773
f 817 818 821
f 773 775 823
f 824 819 810
f 825 772 821
f 819 824 826
f 825 774 772
f 827 825 821
f 821 818 827
f 828 818 822
f 824 810 816
f 823 829 816
f 830 823 775
f 830 775 734
f 774 825 776
f 818 828 827
f 831 824 832
f 832 824 816
f 816 829 832
f 833 827 828
f 834 825 827
f 833 828 835
f 834 776 825
f 834 735 776
f 836 832 829
f 829 837 836
f 837 829 823
f 734 777 830
f 736 735 834
f 834 838 736
f 839 834 827
f 823 830 837
f 833 840 827
f 841 837 830
f 842 830 777
f 827 840 839
f 836 837 843
f 777 778 842
f 837 841 843
f 830 842 841
f 844 841 842
f 838 834 839
f 841 844 843
f 840 845 839
f 838 779 736
f 846 838 839
f 838 846 779
f 842 780 844
f 780 842 778
f 845 847 839
f 839 847 846
f 848 844 780
f 849 846 847
f 781 848 780
f 779 846 738
f 845 850 847
f 848 781 851
f 738 846 782
f 782 846 849
f 850 852 847
f 783 851 781
f 849 739 782
f 785 849 847
f 739 849 785
f 847 852 785
f 783 784 853
f 852 854 785
f 854 852 855
f 856 854 855
f 786 785 854
f 741 853 784
f 853 741 857
f 786 854 858
f 854 856 858
f 741 743 857
f 788 786 858
f 858 859 788
f 790 857 743
f 859 787 788
f 859 860 787
f 789 787 860
f 861 744 789
f 860 861 789
f 744 862 698
f 744 861 862
f 698 862 791
f 863 790 745
f 863 745 864
f 791 862 865
f 791 865 700
f 792 864 745
f 746 700 865
f 865 866 746
f 866 865 867
f 793 746 866
f 792 747 794
f 749 793 866
f 751 868 794
f 749 866 869
f 795 749 869
f 869 870 795
f 708 871 868
f 708 868 751
f 870 796 795
f 870 872 797
f 870 797 796
f 873 797 872
f 874 797 873
f 875 871 708
f 798 797 874
f 755 875 708
f 876 874 877
f 875 755 756
f 798 874 876
f 876 799 798
f 878 879 880
f 800 875 756
f 799 876 879
f 801 879 878
f 800 878 875
f 879 801 799
f 801 878 800
f 801 711 799
f 805 812 806
f 881 804 806
f 806 882 881
f 882 806 812
f 812 883 882
f 812 811 883
f 804 881 815
f 884 882 883
f 813 820 811
f 885 882 884
f 884 883 886
f 885 881 882
f 887 883 811
f 887 811 820
f 883 887 886
f 881 888 815
f 881 885 888
f 815 888 822
f 820 889 887
f 819 826 820
f 889 890 887
f 820 826 889
f 828 822 888
f 824 831 826
f 888 891 828
f 889 826 831
f 828 891 835
f 892 889 831
f 831 832 836
f 892 831 836
f 835 893 833
f 893 835 891
f 894 892 836
f 843 894 836
f 833 895 840
f 895 833 893
f 896 894 843
f 845 840 895
f 896 843 844
f 896 844 897
f 895 898 845
f 897 844 848
f 848 899 897
f 850 845 898
f 848 851 899
f 851 900 899
f 898 855 850
f 852 850 855
f 851 783 900
f 901 853 902
f 853 901 900
f 900 783 853
f 903 901 902
f 856 855 904
f 905 903 906
f 853 857 902
f 906 903 902
f 906 902 907
f 908 856 904
f 902 857 909
f 858 856 908
f 904 910 908
f 859 858 908
f 902 909 907
f 911 910 912
f 910 911 908
f 913 906 907
f 860 859 914
f 915 906 913
f 916 907 909
f 857 863 909
f 857 790 863
f 860 914 861
f 859 908 914
f 911 917 908
f 911 918 917
f 912 919 920
f 907 916 913
f 921 861 914
f 922 911 912
f 862 861 923
f 861 921 924
f 912 920 922
f 864 916 909
f 909 863 864
f 923 861 924
f 918 911 922
f 920 925 922
f 913 925 920
f 918 922 926
f 862 867 865
f 862 923 867
f 921 927 924
f 928 923 924
f 929 922 925
f 924 927 930
f 913 931 925
f 864 932 916
f 922 929 933
f 929 925 931
f 864 792 932
f 923 928 867
f 928 924 930
f 916 931 913
f 934 929 931
f 928 935 867
f 935 928 930
f 794 932 792
f 867 935 869
f 936 930 937
f 931 916 932
f 867 869 866
f 935 930 936
f 938 929 934
f 868 932 794
f 872 869 935
f 934 939 938
f 932 868 931
f 940 934 931
f 868 871 931
f 869 872 870
f 934 940 941
f 935 873 872
f 935 942 873
f 935 936 942
f 943 944 936
f 941 939 934
f 942 936 944
f 871 940 931
f 942 877 873
f 877 942 944
f 880 940 871
f 940 880 941
f 873 877 874
f 945 946 947
f 946 948 947
f 941 947 948
f 880 947 941
f 875 880 871
f 877 944 945
f 879 877 945
f 945 880 879
f 880 945 947
f 876 877 879
f 875 878 880
f 884 949 885
f 949 884 950
f 884 886 950
f 950 886 951
f 885 949 952
f 952 888 885
f 951 886 890
f 890 886 887
f 890 953 951
f 954 888 952
f 955 890 889
f 954 956 888
f 957 890 955
f 889 958 955
f 891 888 956
f 955 958 957
f 890 957 953
f 958 889 892
f 891 956 959
f 960 957 958
f 958 961 960
f 961 958 892
f 962 957 960
f 891 959 963
f 962 964 957
f 891 963 893
f 892 965 961
f 965 892 894
f 966 893 963
f 895 893 966
f 960 961 965
f 894 896 965
f 967 965 896
f 965 967 968
f 966 969 895
f 962 970 971
f 962 972 970
f 962 960 972
f 968 960 965
f 897 967 896
f 973 967 897
f 898 895 969
f 973 968 967
f 972 960 968
f 897 899 973
f 974 970 972
f 975 976 970
f 973 899 900
f 973 900 901
f 970 974 975
f 973 901 968
f 898 969 977
f 905 968 901
f 855 898 978
f 978 898 977
f 974 972 968
f 978 904 855
f 901 903 905
f 904 978 979
f 974 980 975
f 910 904 979
f 981 968 905
f 980 974 915
f 915 974 968
f 979 982 910
f 968 981 915
f 905 906 981
f 982 979 983
f 910 982 912
f 984 985 980
f 980 915 984
f 982 919 912
f 919 982 983
f 919 983 984
f 915 986 984
f 906 915 981
f 984 986 919
f 915 913 986
f 917 914 908
f 920 919 986
f 986 913 920
f 921 914 927
f 987 927 914
f 987 914 917
f 987 917 926
f 926 917 918
f 987 926 988
f 926 933 988
f 933 926 922
f 987 937 927
f 937 930 927
f 987 988 989
f 937 987 989
f 929 938 933
f 988 933 938
f 988 938 989
f 990 937 989
f 936 937 990
f 991 989 938
f 989 991 990
f 943 990 991
f 936 990 943
f 946 991 938
f 991 946 943
f 939 948 938
f 938 948 946
f 939 941 948
f 944 943 946
f 944 946 945
f 950 951 992
f 950 992 949
f 949 954 952
f 949 992 954
f 951 993 992
f 951 953 993
f 954 994 956
f 994 954 992
f 992 993 994
f 956 994 995
f 957 996 953
f 993 997 994
f 953 996 993
f 995 959 956
f 997 993 996
f 959 995 963
f 964 997 996
f 964 996 957
f 997 998 994
f 966 963 995
f 997 971 998
f 997 964 971
f 964 962 971
f 999 995 994
f 999 966 995
f 969 966 999
f 1000 994 998
f 998 976 1000
f 976 998 971
f 971 970 976
f 994 1000 999
f 999 977 969
f 999 1000 977
f 978 977 1001
f 1001 979 978
f 1001 977 1000
f 1002 1000 976
f 1000 1002 1001
f 976 985 1002
f 976 975 980
f 980 985 976
f 1001 1002 979
f 983 979 1002
f 1002 984 983
f 984 1002 985
