v -139.235962 56.944275 0.350647

v -136.820801 56.501190 -0.970001

v -138.578094 53.977142 -1.148857

v -134.670181 56.546234 -1.045714

v -141.932159 53.522316 0.485893

v -141.489502 50.840393 -0.939606

v -139.848755 50.929398 -1.253123

v -146.155762 48.330387 0.379425

v -133.606323 51.948700 -1.224963

v -133.084900 55.252808 -0.849792

v -145.084229 46.830505 -0.834595

v -143.722687 46.502266 -1.274805

v -130.855896 52.620850 0.359497

v -132.618774 51.231453 -0.906281

v -146.026245 43.993164 -1.038055

v -147.698669 44.982910 0.327057

v -134.538788 47.285736 -1.241679

v -136.435364 41.587387 -1.275314

v -145.017365 42.635925 -1.307787

v -131.425293 49.305603 0.341522

v -147.290161 40.856430 -1.089828

v -149.256042 42.228523 0.520332

v -149.996704 39.738441 0.369049

v -148.152237 37.659103 -1.241501

v -161.990692 31.655163 0.076630

v -162.316452 29.664871 -1.258982

v -164.889954 30.960022 0.074585

v -166.389709 27.399567 -1.159302

v -134.097046 44.927612 -0.856812

v -166.326477 25.481743 -1.429493

v -169.020996 26.306274 0.135498

v -156.712006 28.342789 -1.007721

v -146.636780 35.014683 -1.254155

v -148.701508 34.980087 -0.581451

v -155.741394 26.769690 -1.387746

v -167.739502 23.504395 0.079590

v -135.680664 41.014652 -1.020111

v -143.607697 35.606277 -1.314653

v -134.178833 40.171082 0.222778

v -163.450195 22.757744 -1.381355

v -137.420532 38.074036 -1.033691

v -142.651001 34.739502 -0.962006

v -146.787292 33.263763 0.169220

v -151.278076 27.003937 -0.836731

v -153.507324 29.368591 0.485657

v -143.377869 32.439270 0.322067

v -136.809204 36.145813 0.147217

v -139.641357 34.253387 0.355087

v -160.245026 20.647003 -1.392916

v -148.984253 25.886841 -0.578247

v -149.499146 24.373276 -1.340042

v -162.397522 19.635498 0.032898

v -150.053421 20.922262 -1.379607

v -147.826050 23.531738 -0.479736

v -153.197952 17.926628 -1.384737

v -157.316071 17.494263 -1.125793

v -147.922699 21.704918 -0.538544

v -148.440445 20.701439 -0.438843

v -149.586945 19.031391 -0.452820

v -154.663269 16.217995 -0.439201

v -158.101013 16.469727 -0.052185

v -150.304321 17.881659 -0.333931

v -152.712021 16.510914 -0.452042

v -144.777618 54.826324 0.785461

v -147.160934 55.896751 2.498760

v -143.561996 57.319122 1.004791

v -138.252380 60.130005 1.095947

v -133.707092 62.493549 2.530939

v -132.219711 60.114296 0.991478

v -135.629395 58.693787 0.310211

v -146.332581 52.284409 0.841263

v -148.853241 48.694061 0.820770

v -148.455688 52.566254 2.227081

v -131.686737 56.553329 0.392166

v -129.287720 60.606079 2.322815

v -129.241486 57.434891 0.999252

v -154.290894 46.790039 1.936035

v -153.023453 44.700577 0.658058

v -128.239014 53.229843 1.185089

v -153.300201 41.172226 0.778397

v -162.708908 34.106628 0.806808

v -166.648804 32.073242 0.958252

v -164.508820 35.497620 2.011139

v -127.902466 56.166748 1.836670

v -153.401184 36.787048 2.001190

v -155.608276 41.818039 2.237839

v -160.662369 35.362869 2.064705

v -159.049316 34.304321 2.064575

v -159.267059 32.824463 0.945618

v -171.048431 28.884140 2.281342

v -171.444092 26.937592 1.910767

v -128.383270 49.819061 1.175583

v -150.388062 36.616402 0.378357

v -132.221069 45.526611 0.385071

v -129.022705 47.094238 1.263428

v -149.912186 34.070892 1.731262

v -154.102966 32.205017 2.113098

v -169.898315 23.276489 0.912231

v -131.021851 43.190979 1.215881

v -146.819534 30.603821 2.157791

v -132.042786 39.704437 1.214050

v -150.883179 29.946487 2.090759

v -134.259888 36.559692 0.834656

v -164.441711 18.125366 0.987854

v -132.710144 37.306396 1.536682

v -134.796265 34.510284 1.180511

v -140.598801 30.583618 0.961838

v -146.880859 27.185158 2.001312

v -138.202866 32.279358 0.793503

v -136.976746 31.873337 1.529877

v -140.066879 29.764191 1.924377

v -146.710693 24.193542 1.232178

v -161.003387 16.032471 1.143524

v -158.837387 15.158850 1.468609

v -145.681549 22.261166 3.395065

v -155.220917 15.003473 2.414139

v -148.354950 19.297491 3.097683

v -152.471497 16.254837 2.623901

v -172.507813 61.073730 2.858521

v -171.348480 64.574554 4.325737

v -170.783829 62.136047 2.767548

v -165.788834 65.514343 4.099243

v -166.355286 63.664551 2.890564

v -172.439880 58.427353 2.503805

v -161.988312 63.576462 2.925133

v -164.800781 62.650562 2.545299

v -173.603516 57.136108 2.983521

v -175.418686 59.009995 4.347111

v -160.805206 64.923767 4.162750

v -155.549561 60.002411 2.557771

v -171.140182 54.500275 2.502253

v -156.598724 63.453484 4.081062

v -155.736328 61.457684 2.877300

v -172.424744 52.051575 4.062927

v -166.978821 48.685852 2.922791

v -182.560654 42.567047 2.676117

v -185.544144 39.961121 2.432411

v -186.698608 41.962280 3.802124

v -149.100067 60.844666 3.995026

v -179.154434 43.584000 2.816917

v -181.993774 44.856323 4.030701

v -177.613205 44.980537 3.985935

v -148.565979 59.110954 2.824364

v -166.186264 49.881023 2.493083

v -179.531403 42.176899 2.417601

v -154.641663 48.640461 2.518449

v -164.651520 45.758392 2.482692

v -187.940674 39.052124 3.777954

v -185.404617 36.387848 2.467751

v -138.756714 66.096436 3.286865

v -135.589249 68.978271 4.276733

v -133.515503 66.735260 2.715755

v -139.208969 64.743073 2.831497

v -132.195236 68.394989 4.196196

v -142.433350 61.550049 3.183838

v -139.678223 61.733124 2.436188

v -145.203308 62.068115 4.508057

v -144.715820 58.967224 2.410156

v -169.997589 40.647240 2.454740

v -166.337708 44.396973 2.866669

v -167.976440 47.563599 4.016174

v -150.145676 52.342018 2.544989

v -129.718109 62.756744 2.707825

v -168.835297 42.249146 2.804108

v -171.057129 43.898857 4.070358

v -185.917236 33.464600 3.897583

v -182.604614 32.745193 2.913513

v -129.118408 65.882095 4.243393

v -180.599380 33.114944 2.411101

v -165.895142 42.615555 2.476996

v -155.905365 46.133270 2.483280

v -150.385254 49.994156 2.190125

v -169.020264 33.499428 2.417795

v -164.213882 36.872650 2.441462

v -156.864487 41.231976 2.489013

v -125.968170 60.990723 4.456757

v -176.163452 29.326773 2.431055

v -176.599121 27.889587 3.292480

v -126.353699 59.424683 4.178589

v -159.890167 36.607613 2.458586

v -167.798340 32.835815 1.965332

v -172.847687 25.744179 2.467926

v -174.550537 25.938808 3.463867

v -126.238281 55.834839 4.001953

v -125.785950 52.176666 5.109131

v -153.141968 34.093803 2.498845

v -127.149902 48.499756 3.410156

v -171.187286 20.469482 3.291809

v -128.196564 43.792862 3.877625

v -147.519501 29.318783 2.418178

v -169.280731 18.574493 3.252075

v -129.544128 41.603142 3.529480

v -167.025940 16.591934 3.302643

v -130.540787 38.752983 3.681755

v -131.541107 37.194969 3.511337

v -132.419678 35.872520 3.502945

v -142.244873 28.349243 2.527832

v -133.828796 33.889336 3.409317

v -144.019012 26.159943 2.582596

v -136.252365 31.550438 3.449631

v -138.554428 29.784430 3.269783

v -145.373047 24.621185 2.447449

v -160.957169 14.601458 3.538528

v -141.077087 27.851358 3.521900

v -142.439926 25.928692 3.446297

v -144.085663 24.112095 3.428291

v -146.952988 20.761835 3.520828

v -157.061249 14.511950 4.204262

v -173.140808 67.239014 4.901001

v -174.232849 66.342239 4.483181

v -175.742188 66.970398 4.893311

v -180.771606 64.586792 5.901733

v -179.513397 62.720718 4.508331

v -183.025208 60.555862 6.236298

v -180.415497 59.959396 4.496483

v -174.204758 62.464401 4.338154

v -168.469971 66.873535 4.788208

v -169.982666 68.661987 6.166382

v -162.782959 67.923431 4.849411

v -181.376465 56.005890 4.655457

v -182.731201 58.237000 5.847534

v -180.427811 54.607765 4.392445

v -155.980698 69.569977 6.070404

v -155.788986 67.526352 4.633371

v -156.387863 64.536819 4.439069

v -175.318176 56.427467 4.251091

v -181.784241 51.785156 4.697754

v -183.320251 52.717026 5.963104

v -150.490906 67.957558 6.054825

v -151.653320 66.377007 4.678352

v -173.264862 50.936825 4.384713

v -182.788025 48.504337 4.673523

v -180.709290 49.863266 4.363410

v -182.775238 46.697014 4.367229

v -185.970154 45.206055 4.716614

v -184.730988 48.732544 5.920776

v -177.621765 46.405647 4.355033

v -190.898682 42.578979 6.046265

v -189.522095 41.507935 4.799438

v -147.926346 62.023499 4.497538

v -128.215530 75.155922 4.635485

v -132.744568 74.013977 5.009521

v -128.200775 76.871582 5.278290

v -190.384888 39.088654 5.020813

v -135.347534 70.361694 4.891357

v -136.777008 71.371460 6.150635

v -146.072952 63.436310 5.365318

v -190.317322 35.897202 4.431564

v -125.276901 76.481537 4.952423

v -133.575577 70.575104 4.585235

v -191.935577 36.307774 5.286728

v -139.089478 68.820007 6.061737

v -168.641541 45.409531 4.396963

v -187.901062 36.586365 4.012329

v -142.444519 66.367432 6.030640

v -145.169724 64.401855 6.006470

v -123.590698 78.099121 6.403076

v -120.661377 77.022705 7.336151

v -122.856674 74.607880 4.747417

v -122.250938 71.204056 4.650476

v -190.772369 33.861694 5.293259

v -188.960861 33.139427 4.926270

v -121.106232 73.785248 5.603699

v -128.463501 67.241142 4.593082

v -120.781540 70.613182 5.550369

v -187.363647 32.088142 5.131927

v -121.937279 67.727097 4.661602

v -185.449860 31.137817 5.201355

v -120.273697 68.079063 5.676620

v -180.531738 28.843170 4.982056

v -122.413956 64.793045 4.661585

v -120.941345 64.800339 5.512238

v -122.894287 62.127491 4.812485

v -121.511734 62.351151 5.578987

v -122.220467 61.345753 5.559280

v -122.575829 60.326508 5.351189

v -124.520935 58.069679 4.735626

v -176.958130 26.470337 5.337646

v -123.037872 58.264000 5.582333

v -175.370621 25.296631 5.283936

v -123.729858 56.323696 5.624687

v -124.623291 54.444153 5.535095

v -174.175858 21.973022 7.245483

v -124.774338 52.752960 8.313232

v -171.840118 19.197144 7.061829

v -170.141235 17.528442 6.833496

v -129.049713 41.959232 5.659513

v -169.310333 16.615753 7.511139

v -167.452530 15.385719 8.230682

v -133.036499 35.625137 5.928711

v -135.057861 32.931122 5.644653

v -139.594238 29.779907 5.571899

v -142.261627 26.828644 5.465942

v -143.604340 25.201035 5.428925

v -145.163727 23.266998 5.357544

v -147.177704 21.331757 5.391235

v -160.231415 14.235628 6.758575

v -148.884888 19.580475 5.303833

v -152.195496 17.066483 5.353760

v -155.036987 15.575912 6.001465

v -182.505157 64.735764 6.325661

v -185.843643 65.047028 7.370972

v -184.188019 65.470566 7.220520

v -179.506348 67.784027 7.053101

v -187.211243 61.763016 6.359619

v -188.077896 62.955784 7.311111

v -189.577240 60.841888 7.199280

v -174.549683 70.045166 7.893066

v -189.459839 57.968601 6.311825

v -190.837402 58.350159 7.169678

v -170.345703 70.804932 7.674805

v -156.426910 76.579880 6.791893

v -159.859909 74.878220 6.459090

v -160.072632 76.444580 7.106201

v -162.092163 74.396744 6.524338

v -166.899658 71.286865 6.825134

v -165.787186 70.514099 6.415009

v -191.768677 53.933365 6.530945

v -152.316589 76.748886 7.388336

v -151.984253 75.359512 6.493223

v -154.871399 77.487854 7.866516

v -157.356293 71.152168 6.422696

v -184.024643 56.685478 6.266392

v -190.563187 53.366528 6.263438

v -163.356705 69.433441 6.035889

v -193.251465 55.435059 7.914063

v -193.748535 53.408081 7.830261

v -184.723724 51.076416 6.261785

v -192.441238 49.491985 6.318306

v -142.675720 74.354019 7.434494

v -149.705872 68.935669 6.429108

v -141.910172 72.820488 6.528774

v -195.116104 48.337280 8.108988

v -191.558411 44.407745 6.317490

v -193.913879 44.573059 7.806396

v -188.456787 45.887230 6.171577

v -140.108429 74.383224 7.422943

v -137.378174 74.954895 7.463898

v -136.645599 73.682289 6.546539

v -135.204285 74.075928 6.405212

v -134.365234 75.676514 7.208008

v -126.914673 80.189697 8.908081

v -127.648804 78.638184 7.129883

v -131.853485 77.477295 8.505371

v -146.054108 65.000999 6.392364

v -140.385712 69.746063 6.477483

v -191.716980 39.258003 7.357117

v -191.591248 37.657890 7.119263

v -193.232010 37.844337 8.058395

v -192.953003 35.627411 7.531494

v -121.733383 78.736626 7.472267

v -191.473663 33.415558 7.141235

v -120.156471 75.173897 7.582214

v -189.183075 31.887161 7.092834

v -120.300003 71.726059 7.648438

v -186.666901 30.555740 7.131775

v -120.513489 68.844727 7.599609

v -183.615997 28.140778 7.516434

v -122.304932 62.030548 7.718262

v -180.543823 27.516785 7.132263

v -178.656586 24.651642 7.744385

v -123.954224 57.005859 9.082520

v -127.341232 45.395264 8.546143

v -129.210999 43.008347 11.223877

v -130.715271 41.086121 11.404297

v -132.694092 37.258118 8.081055

v -135.876923 33.201660 7.607544

v -142.159424 29.158386 7.240845

v -144.573715 27.678461 7.372314

v -146.497803 25.929756 7.466476

v -147.211792 24.702072 7.243347

v -148.799255 22.917824 7.281250

v -150.084641 21.320740 7.296844

v -152.349396 18.749451 7.241577

v -157.468842 15.210945 9.471558

v -172.340500 72.433899 9.002258

v -173.241592 72.537735 9.371277

v -178.575195 69.498047 9.000793

v -184.576141 65.743507 9.864807

v -186.766495 64.201248 9.730469

v -188.688980 62.554901 9.444244

v -190.358719 60.984367 9.204956

v -165.760254 76.206787 8.977478

v -161.891846 78.707764 9.257385

v -191.940674 59.261444 9.218811

v -159.857300 79.191925 9.475677

v -193.500793 57.649284 9.196228

v -196.054672 55.428673 9.209301

v -197.158203 53.996693 9.089661

v -197.963013 51.908310 8.394196

v -199.147568 52.407837 9.138077

v -200.905121 50.138397 8.689636

v -203.890854 48.369843 9.070450

v -201.998581 50.292408 9.454453

v -152.901733 78.426300 11.328094

v -194.739059 51.112503 8.012390

v -198.690643 50.029007 8.153823

v -204.065903 46.236076 8.200836

v -205.655701 46.522636 9.116974

v -206.740356 44.801643 9.173965

v -205.158035 43.902550 8.129532

v -146.299652 76.078323 9.764221

v -205.731979 40.807972 8.123692

v -207.116882 41.540077 9.078613

v -195.010956 43.417450 8.134043

v -207.090759 38.907341 8.974548

v -142.294647 75.229446 9.914734

v -205.309479 36.216461 8.088717

v -206.682251 35.737183 9.012573

v -138.385574 75.542450 9.589050

v -194.805313 36.098835 8.109036

v -135.825195 76.647827 10.229492

v -192.626038 32.487225 8.103861

v -204.356567 31.967117 8.093880

v -205.947998 32.054138 8.990173

v -122.280586 81.151474 9.502399

v -124.436005 81.139069 9.379517

v -204.913635 28.460480 8.990845

v -120.348259 78.897339 9.272324

v -203.061722 27.619200 8.073115

v -120.023247 75.530029 9.566528

v -203.463165 24.696983 8.760864

v -187.876862 30.210312 7.810638

v -200.018845 21.101013 8.122856

v -185.384872 27.391617 8.114431

v -201.604004 21.091522 8.868774

v -195.016357 18.369053 8.067459

v -199.896973 19.147705 9.043457

v -122.453125 67.643066 11.316406

v -197.101776 17.660088 8.877380

v -187.445221 18.906517 8.096928

v -180.875839 25.782663 8.090234

v -193.835022 16.757370 9.115662

v -177.884354 20.663887 8.143642

v -190.588348 16.991943 8.792938

v -186.335236 17.521042 8.878082

v -174.433578 20.007904 8.099690

v -181.905319 18.818665 8.739441

v -178.516006 18.830034 8.645010

v -172.732071 18.699341 7.859772

v -173.833923 18.062706 8.265991

v -176.090942 17.606743 9.122742

v -125.915436 49.656952 11.109619

v -171.535110 16.118782 9.158691

v -137.948196 32.044380 10.402496

v -144.677048 27.857088 9.341952

v -164.848755 14.422057 10.263351

v -148.870102 23.321112 9.878998

v -151.658829 19.906403 9.260925

v -154.787018 16.847466 9.662842

v -175.154907 72.976013 14.676758

v -178.920258 70.421875 12.983887

v -182.549591 67.763344 12.965149

v -163.260742 78.728760 10.816406

v -170.407959 75.157349 12.471191

v -189.659058 60.653473 12.914429

v -191.017273 59.681488 11.216309

v -193.540833 56.867554 12.429688

v -155.427460 79.373840 11.659874

v -157.785522 79.840408 12.127563

v -195.416138 55.470314 12.298462

v -198.460373 53.443886 11.869202

v -205.035202 47.793461 11.535988

v -147.363281 76.870453 11.569756

v -207.895294 40.462509 11.876160

v -208.103226 36.709358 11.961975

v -207.352905 34.289368 10.731689

v -130.031403 80.347237 13.149445

v -126.746643 80.971642 11.083904

v -207.324066 31.429554 12.278564

v -122.828690 81.621590 11.289989

v -125.167160 81.502365 11.383759

v -121.401100 80.640556 11.391872

v -120.698616 78.317513 11.440262

v -120.764160 75.554726 11.454254

v -205.420532 27.612396 10.363770

v -204.182495 23.469604 10.626953

v -121.584961 71.956787 11.507324

v -200.638916 17.956543 11.015137

v -198.451691 15.563477 12.788605

v -125.304443 57.681885 13.211182

v -125.718414 54.200104 13.122375

v -187.736267 15.392212 12.170166

v -181.341736 17.383179 10.795349

v -178.013412 17.124161 11.002533

v -127.365784 46.373642 11.313843

v -170.722626 15.137874 11.473389

v -133.245605 37.062317 11.187012

v -168.140717 14.807871 11.796440

v -136.821823 32.596649 13.504395

v -144.500336 27.706436 11.170837

v -146.842194 25.335602 11.463806

v -150.879730 20.550055 12.909920

v -159.910065 14.652203 12.557709

v -152.398239 19.145882 12.914764

v -166.125427 78.730255 14.861572

v -172.840210 73.888458 13.415283

v -185.975952 64.396973 13.156006

v -187.784180 61.816162 13.762207

v -191.457336 57.978027 13.371338

v -200.178894 52.051262 15.128906

v -202.221680 50.010712 18.567383

v -206.349854 45.191994 14.938965

v -207.313904 41.685547 16.429932

v -145.840118 76.235565 14.890587

v -141.624771 75.367676 18.355591

v -207.780136 33.136242 13.020477

v -132.521805 79.260895 13.707428

v -138.926147 75.726364 17.647461

v -127.158356 80.527740 13.118713

v -124.650169 79.498566 13.101769

v -122.250977 77.668396 12.438232

v -206.667831 29.066284 12.835144

v -123.458817 77.229736 13.335571

v -205.079651 23.958923 12.560852

v -122.801697 74.655640 13.079224

v -123.134918 72.375122 13.681641

v -123.824585 68.710144 14.387451

v -201.615860 17.633301 13.054810

v -124.195557 65.816650 14.399414

v -124.508179 61.883545 13.289795

v -193.510803 14.183071 13.030441

v -126.979919 49.379486 13.282532

v -184.952133 15.329300 14.234497

v -128.765625 45.971157 13.220276

v -131.332642 41.755615 13.398804

v -175.149689 15.711802 14.129509

v -172.098694 15.349825 14.753136

v -134.512695 36.282227 13.682617

v -138.714203 30.203751 12.963379

v -165.697327 15.275234 14.266586

v -144.053406 26.279053 13.223206

v -147.590118 23.896324 13.263954

v -149.420761 22.044889 13.117035

v -153.355087 18.089901 12.903885

v -156.385315 15.804581 12.864998

v -158.412476 15.143272 13.028999

v -172.762238 74.951141 15.157837

v -179.560059 69.750122 16.057129

v -177.649170 71.339355 16.698486

v -163.286270 79.915672 16.274933

v -182.420532 67.435143 14.949951

v -160.850052 79.973526 16.410828

v -184.421631 63.842102 16.751221

v -157.683228 79.898651 16.150146

v -188.415161 58.510742 14.828369

v -191.763550 56.697388 14.956055

v -195.770660 55.305328 14.839355

v -153.975952 78.643555 17.803955

v -188.925705 57.633362 14.926392

v -135.285278 77.848083 17.970703

v -130.449997 79.564697 16.586914

v -128.340332 79.524780 17.956543

v -206.714722 30.405029 15.247559

v -125.469429 78.908737 16.847885

v -123.902466 76.881912 15.717285

v -205.298096 26.168762 15.777832

v -204.148102 21.330872 16.365356

v -125.968063 62.019096 15.190521

v -201.760529 17.285324 16.439697

v -199.203644 14.979801 19.110535

v -127.749969 55.905056 14.971497

v -195.632599 13.507401 18.252785

v -130.599915 48.007904 15.072296

v -129.079834 48.556213 14.244873

v -129.100555 52.188240 15.017792

v -190.902679 13.678471 15.775818

v -179.893524 15.659768 16.396904

v -131.844482 44.897125 15.069214

v -132.750549 41.760376 14.965088

v -169.155930 15.625626 15.152802

v -138.267578 31.288330 17.285156

v -140.789841 28.244015 14.944344

v -143.717682 26.286530 15.280640

v -148.927856 23.987305 16.951904

v -160.973602 16.439194 15.279724

v -163.070572 15.731415 14.865120

v -150.687866 22.690308 15.426514

v -153.481201 22.355652 16.280029

v -156.160522 19.404297 15.350708

v -167.978638 78.026855 18.180847

v -165.277466 79.203781 17.024292

v -173.366684 74.819542 17.792053

v -175.295776 73.051636 17.854736

v -182.038574 66.458252 17.059082

v -185.492676 58.772327 18.122559

v -196.966492 54.152039 18.505402

v -193.576782 55.227295 18.580933

v -198.975861 52.824158 18.651001

v -187.604492 57.870483 16.493164

v -189.329651 55.906250 19.012451

v -149.049744 77.445488 20.543610

v -207.117676 37.601685 19.070068

v -206.682617 33.705811 19.585693

v -132.637238 78.770721 20.688721

v -124.559631 75.700317 21.168945

v -124.612671 71.177979 19.789185

v -125.779053 65.691162 20.953369

v -126.777634 61.837631 21.494873

v -127.772949 56.925453 18.093018

v -129.954529 51.537964 18.351563

v -192.997971 13.300404 18.263374

v -131.283691 48.073242 18.978516

v -187.190994 14.594284 17.022217

v -132.382446 45.782166 19.142578

v -184.141266 15.440903 17.307007

v -134.110107 41.756287 19.259766

v -177.585571 15.499525 16.794998

v -174.929214 15.666489 16.899078

v -135.137695 37.323242 17.214844

v -171.403320 16.676392 18.183105

v -166.253601 17.123413 16.166489

v -156.274658 22.365326 17.354370

v -160.036957 19.730804 16.454239

v -163.471512 18.515442 16.484909

v -142.235397 27.993896 20.062012

v -145.230957 26.128174 19.067871

v -165.760498 77.772705 20.327148

v -174.917236 71.906830 20.938965

v -180.741211 66.168091 18.879883

v -161.534180 77.152344 21.882813

v -182.118896 63.443848 18.683472

v -154.620255 77.997620 20.931274

v -183.340454 60.686188 18.737671

v -200.394409 51.599854 18.984375

v -202.737366 47.853027 20.797852

v -202.802002 46.192383 22.393066

v -144.175552 75.614265 19.787537

v -129.408478 78.339005 22.647583

v -204.194763 29.680847 22.646149

v -204.095337 24.921387 20.395508

v -202.998779 20.164551 20.174805

v -201.582474 17.789368 20.384521

v -128.694519 56.122314 23.078125

v -190.054245 14.262360 19.603760

v -179.598816 16.039810 18.903290

v -176.983643 16.930626 20.613480

v -173.854477 17.273468 20.398743

v -166.133789 19.246155 18.975098

v -160.773743 21.804077 19.429199

v -140.082642 30.398926 20.250977

v -170.251587 75.670166 21.055664

v -172.910522 73.307617 21.852783

v -177.631836 67.677002 22.042480

v -181.403320 62.418106 20.854980

v -192.787354 53.625244 20.803223

v -196.930664 52.229492 20.855469

v -151.875885 77.836578 20.909119

v -183.297852 58.969757 20.686646

v -186.520813 56.280792 20.723999

v -187.365570 54.887695 21.322144

v -188.332199 52.561279 23.917480

v -203.497314 43.634766 22.768311

v -204.679199 39.679810 22.744263

v -140.019394 75.809845 22.760429

v -139.182983 76.248116 20.917633

v -135.905151 77.684906 21.035645

v -126.708405 77.435860 22.822266

v -203.716461 27.296188 22.601929

v -124.398689 72.778015 21.789001

v -197.238724 14.354202 20.739563

v -193.629440 14.611885 21.861923

v -131.296814 51.464233 23.341187

v -186.147797 16.300598 22.060852

v -182.930176 16.932648 21.723633

v -180.024017 17.060745 21.097107

v -136.751343 37.588226 22.716064

v -135.308533 42.121223 22.857361

v -166.586670 21.991089 21.422485

v -164.212097 22.190735 20.488647

v -171.842682 18.183167 20.934448

v -156.319122 25.409599 22.779747

v -153.704254 25.696686 22.448059

v -139.007202 35.105438 24.479614

v -150.838104 26.265289 22.684082

v -146.102249 27.236328 22.370300

v -163.946289 75.471680 24.708008

v -178.950928 64.460815 22.901611

v -156.604004 76.740723 23.226563

v -180.510742 58.436096 23.115479

v -198.729736 47.791901 26.414551

v -148.679260 76.372925 22.741577

v -183.069458 57.390869 21.637695

v -191.202637 50.608032 26.326538

v -184.861267 53.533691 22.208923

v -181.970947 53.986626 23.292023

v -142.266891 75.076691 23.120605

v -137.155487 76.902664 22.811493

v -204.699188 34.953598 23.032776

v -134.857544 77.439087 22.818848

v -131.690079 77.883331 23.082336

v -204.277252 31.842018 22.948853

v -125.703964 76.544373 22.942108

v -124.741783 74.039246 24.686483

v -203.077332 24.539934 22.635193

v -202.615601 22.412582 22.589355

v -125.122818 68.791878 24.861649

v -201.833008 19.249634 22.549683

v -198.964783 16.225769 22.554718

v -197.159271 15.318054 22.603043

v -189.680542 15.506302 22.528839

v -132.567810 48.454651 22.848877

v -134.064758 45.435394 22.875977

v -181.083710 19.560059 23.726318

v -176.736084 19.988251 22.929901

v -172.059341 22.030624 23.320675

v -166.515518 24.059792 23.147308

v -160.061417 24.596191 22.620361

v -141.025696 32.666565 24.673645

v -143.107925 30.413940 24.535034

v -166.417969 74.313721 24.859375

v -171.511230 71.227539 24.837891

v -175.513184 67.072510 24.571289

v -161.026489 75.963623 24.810303

v -177.488525 62.164551 24.450195

v -194.623093 50.104797 26.443237

v -178.628723 57.167969 24.268250

v -149.779587 73.815521 25.453552

v -186.727325 51.702332 24.665634

v -145.716919 73.795654 24.943115

v -179.020325 54.287598 23.957764

v -183.613037 51.862366 23.527477

v -201.926392 38.708618 24.257813

v -185.128296 50.085144 24.765686

v -179.190613 51.982117 23.851105

v -182.324585 47.284248 24.158432

v -139.186279 75.114746 23.517822

v -180.651611 47.616943 23.611385

v -201.569244 35.769333 23.987152

v -134.681885 76.587280 23.480225

v -138.079559 73.296631 24.788391

v -140.669922 72.318359 26.151855

v -179.053162 48.112488 23.943451

v -136.441040 73.719360 24.451355

v -201.363342 33.405441 23.869629

v -128.789429 76.152588 24.267090

v -178.537964 43.504211 23.898773

v -179.612427 43.163757 24.456772

v -200.927155 29.952332 23.996765

v -126.394760 74.441376 25.304443

v -177.512207 43.900635 24.093140

v -177.556702 41.028046 24.323090

v -201.001953 26.295273 24.083496

v -124.236008 72.115295 24.863640

v -174.359558 39.059875 24.488342

v -176.222626 38.625473 24.736603

v -124.639679 70.251831 24.865074

v -200.338379 22.682251 24.115967

v -174.703674 36.616230 23.823206

v -199.023438 20.504395 24.452148

v -126.985214 61.889191 24.776428

v -172.399963 35.430176 24.087891

v -174.253937 35.167664 23.602577

v -175.979065 34.566101 24.316345

v -175.103500 32.258945 23.591595

v -176.647705 31.596210 24.521561

v -196.748779 18.536133 24.666748

v -169.230103 32.721313 24.100098

v -128.448425 57.627747 24.703857

v -169.419556 31.036186 23.583067

v -175.475403 28.880180 24.074265

v -129.584167 55.607056 24.807312

v -173.748642 27.254135 23.552896

v -194.258118 17.422363 24.610168

v -130.608582 53.954712 24.674683

v -163.951706 29.248329 23.637978

v -164.071167 31.055252 24.959900

v -175.407379 26.044456 23.938660

v -189.587875 17.915924 24.470886

v -176.162033 22.960928 23.613880

v -178.339371 22.304077 24.393311

v -184.838058 17.941406 23.881592

v -167.763000 25.253235 23.548527

v -135.078003 48.557251 24.984985

v -136.881348 45.861061 24.716919

v -160.717224 29.487785 24.192982

v -136.368652 41.496094 23.730957

v -156.902100 27.523193 23.676857

v -159.140381 26.012421 23.427135

v -154.084915 28.389465 24.649582

v -152.935318 27.572567 24.019262

v -147.800049 30.625610 26.771240

v -163.078979 74.160767 26.823975

v -169.521484 70.077759 27.052124

v -172.224365 68.694580 26.719238

v -174.958374 65.650879 26.612671

v -158.178589 74.522705 26.966309

v -176.163666 63.031006 26.618896

v -155.593048 74.373383 26.976501

v -176.119446 61.588306 26.878540

v -152.030090 73.419464 26.922165

v -200.406921 43.640373 26.835968

v -177.133789 56.657547 26.586060

v -189.596558 49.546448 26.945129

v -200.460083 40.072327 26.670105

v -146.401199 71.203857 26.391724

v -185.363342 47.351379 27.023773

v -176.992676 53.240723 26.580566

v -142.704010 71.847290 26.337463

v -199.690674 36.112671 26.829346

v -176.160889 48.081177 26.810547

v -181.670197 44.572632 26.556030

v -136.753418 71.088257 28.529663

v -199.548828 32.762146 26.522461

v -133.089111 72.888672 26.031982

v -133.609314 71.040497 27.906494

v -129.576675 72.780090 26.119873

v -129.732788 70.892502 27.469467

v -179.896332 40.754536 28.380646

v -126.403946 70.717178 26.197601

v -198.298340 26.314651 28.046387

v -125.955711 67.024796 26.691422

v -172.610840 42.936523 27.174988

v -197.828613 22.858887 26.128418

v -177.230469 35.679871 26.489258

v -169.881836 36.729980 26.458984

v -126.942566 64.836365 27.126732

v -177.379456 32.387291 26.528870

v -128.257813 62.624207 27.056519

v -194.137329 19.970207 26.055969

v -130.798828 59.983521 27.933105

v -176.873291 29.952385 26.363037

v -192.306610 18.687012 25.549500

v -131.274170 56.644775 26.545654

v -165.964966 32.830688 26.234619

v -176.663757 28.288986 26.537323

v -190.000397 20.188782 28.160721

v -132.895447 53.890137 26.458496

v -177.421539 25.669281 26.533936

v -179.238647 23.347900 26.470581

v -185.770416 19.406708 26.440125

v -182.170715 21.118713 26.509277

v -137.977173 45.714355 26.504150

v -138.809814 42.453613 26.647095

v -161.362183 31.279419 28.449951

v -158.514999 31.196587 30.293869

v -139.728882 37.832092 26.546997

v -153.842773 30.712952 28.270142

v -149.913574 30.057129 26.742920

v -141.090942 35.526489 26.506348

v -144.668457 33.148193 27.192383

v -165.463867 70.935303 27.771362

v -172.432495 66.687805 27.431625

v -161.509277 72.505371 28.033447

v -166.844910 68.651489 27.749695

v -174.490631 63.502354 27.465416

v -162.072876 71.049316 29.037842

v -163.834686 69.162537 29.427567

v -168.246490 65.505203 27.719849

v -169.770386 62.033180 27.557552

v -155.563293 72.172119 28.072266

v -156.639832 70.373993 29.442188

v -198.037415 46.856049 27.234558

v -175.607529 58.793671 27.426079

v -192.622925 49.493103 27.185654

v -194.086456 46.585358 27.628006

v -170.885956 58.076515 27.577110

v -166.741791 62.151794 29.350861

v -175.822739 54.850502 27.419449

v -189.194427 47.285034 27.775787

v -148.662964 70.712402 27.490845

v -197.352539 42.714172 27.624146

v -150.881714 68.701080 29.415543

v -171.838226 54.985043 27.560532

v -191.253662 45.806396 28.894653

v -194.907959 43.066223 28.986206

v -198.272217 39.542725 27.743042

v -147.952087 68.847412 29.181641

v -184.720062 44.776123 28.436279

v -186.798157 44.071655 29.668823

v -196.400787 39.201889 29.134598

v -169.188477 57.293457 28.971191

v -142.770416 70.345581 28.703125

v -172.713043 51.390076 27.540070

v -175.182678 49.499039 27.389221

v -171.483643 52.036179 28.071533

v -196.862213 36.232208 29.069855

v -140.136642 70.764038 28.657959

v -197.301453 33.184769 29.010895

v -171.693726 47.508732 27.773407

v -181.369415 42.199860 28.536133

v -198.104248 31.126068 28.395264

v -130.308090 68.077148 27.867596

v -170.773926 42.723892 27.705566

v -132.963440 68.920563 29.060257

v -127.407684 67.221825 27.576164

v -169.708496 42.716431 28.413330

v -179.022949 38.438332 28.170898

v -130.019592 64.447113 28.099152

v -179.358643 34.982056 28.214844

v -196.987366 24.153534 28.367859

v -168.411682 38.367065 28.088745

v -131.634949 64.541809 29.304642

v -132.120270 61.952400 29.455967

v -194.708130 22.259537 28.489380

v -179.312012 31.694214 28.060059

v -166.840332 35.156250 27.743652

v -133.127563 56.741455 28.814880

v -192.509521 20.910614 28.393402

v -134.779663 53.214142 28.774414

v -179.406738 26.874146 27.948242

v -165.745331 36.193359 30.244385

v -182.087158 23.158203 27.942383

v -137.062256 49.297974 28.833740

v -184.863647 21.855957 28.036865

v -139.375656 45.664368 30.500458

v -139.584747 41.723801 28.549774

v -156.424362 31.521484 30.226776

v -140.589615 37.892708 28.487579

v -151.218750 31.973999 28.810791

v -145.641998 34.539856 28.666229

v -141.623611 36.900955 28.801926

v -165.664520 65.493660 29.362259

v -160.376953 65.737213 29.490862

v -154.071777 65.678528 29.603340

v -160.243591 64.299072 29.882751

v -165.317871 61.111084 29.995605

v -166.359131 57.909424 30.693359

v -191.190063 43.601196 29.845215

v -149.448059 67.598267 29.937622

v -193.110291 41.173828 29.560974

v -153.550446 63.465088 31.074646

v -187.945221 42.344727 31.075027

v -190.636993 41.201385 31.129211

v -145.463257 67.565247 31.123413

v -167.861816 54.951111 30.383789

v -193.377014 37.018311 29.466064

v -191.489014 38.753593 30.884216

v -141.760681 69.373901 29.630493

v -142.185547 67.951965 30.907898

v -136.420593 70.021667 29.340881

v -167.593872 52.161194 30.953369

v -167.681763 49.086365 31.015686

v -183.553284 40.020401 30.853394

v -193.767303 34.126534 29.388153

v -138.987701 68.469009 29.676220

v -140.174591 65.917816 31.444832

v -133.869736 67.825241 29.557531

v -136.757172 66.196114 29.660816

v -191.444519 34.036896 30.956299

v -196.851257 29.273159 29.137451

v -168.477783 45.062927 30.700928

v -194.212769 31.239395 29.485565

v -180.887939 36.342529 30.200195

v -194.132080 28.519592 29.420532

v -135.064804 62.099983 29.732677

v -137.752670 63.388336 31.228065

v -196.614868 26.068542 29.158875

v -192.458130 25.291534 29.397980

v -167.304871 40.633774 30.717346

v -180.820801 33.591721 30.350708

v -132.906525 59.147888 29.339104

v -181.411133 31.683655 30.607056

v -192.423325 21.852509 29.057968

v -135.064636 57.366547 29.891052

v -166.863098 38.076385 30.365234

v -188.330231 22.265442 29.402283

v -188.483948 24.607361 30.937225

v -182.505615 28.805359 30.539551

v -136.935669 55.299408 31.087250

v -183.618958 26.471184 30.889374

v -185.670563 23.230713 30.164108

v -138.385223 50.978302 31.014984

v -183.597534 24.345154 30.172974

v -163.496613 34.048096 30.652924

v -138.867554 48.553497 30.876373

v -161.402313 32.320526 30.514877

v -140.905762 44.056580 30.923798

v -148.961060 39.856476 30.932770

v -148.216431 38.037678 29.623110

v -144.555252 39.627277 29.614456

v -154.746643 35.691216 31.082367

v -153.269470 34.899414 29.959412

v -141.143402 41.664459 29.641907

v -154.165375 32.269745 29.456665

v -141.777359 38.590096 29.344049

v -146.984085 35.449432 29.358429

v -164.771027 59.388550 31.153137

v -159.583511 62.672729 31.084564

v -163.933716 58.936584 31.373686

v -153.465454 62.150177 31.419195

v -166.146332 55.362770 31.290535

v -147.146027 66.145737 31.442799

v -190.126404 37.892487 31.211941

v -166.394165 51.041962 31.335379

v -184.361725 38.816669 31.236900

v -189.718445 33.793823 31.203156

v -165.306412 39.433289 31.305880

v -137.349655 59.660080 31.420090

v -167.266937 44.748718 31.260155

v -191.751282 29.786865 31.127068

v -182.100952 33.913879 31.181984

v -183.846191 29.545052 31.185722

v -138.048813 55.916031 31.443947

v -185.870346 24.738251 31.175798

v -150.654785 40.513428 31.357018

v -164.689148 36.483887 31.031921

v -139.743652 50.852909 31.397610

v -144.486969 42.678589 31.364985

v -140.522614 46.628162 31.357460

v -158.176208 32.507614 31.296276

v -155.824982 35.708660 31.310692

f 1 2 3
f 4 3 2
f 5 3 6
f 7 6 3
f 5 6 8
f 3 4 9
f 10 9 4
f 9 7 3
f 11 8 6
f 6 7 12
f 11 6 12
f 13 14 10
f 9 10 14
f 12 15 11
f 16 11 15
f 12 7 17
f 17 18 12
f 9 17 7
f 15 12 19
f 20 14 13
f 19 21 15
f 14 17 9
f 18 19 12
f 22 21 23
f 17 14 20
f 19 24 21
f 21 24 23
f 25 26 27
f 26 28 27
f 29 17 20
f 28 26 30
f 28 30 31
f 18 17 29
f 32 26 25
f 19 33 24
f 34 24 33
f 30 26 35
f 30 36 31
f 29 37 18
f 33 19 38
f 32 35 26
f 39 37 29
f 18 38 19
f 35 40 30
f 18 37 41
f 42 33 38
f 33 43 34
f 38 18 41
f 44 32 45
f 39 41 37
f 41 42 38
f 42 46 33
f 46 43 33
f 39 47 41
f 47 42 41
f 47 48 42
f 32 44 35
f 40 35 49
f 50 51 44
f 35 44 51
f 52 40 49
f 51 53 35
f 51 50 54
f 49 35 53
f 53 55 49
f 55 56 49
f 54 57 51
f 53 51 57
f 53 57 58
f 58 59 53
f 55 53 59
f 56 55 60
f 61 56 60
f 59 62 55
f 62 63 55
f 60 55 63
f 64 65 66
f 67 1 66
f 67 68 69
f 70 1 67
f 1 5 66
f 64 66 5
f 67 69 70
f 71 64 5
f 4 2 70
f 2 1 70
f 72 73 71
f 5 1 3
f 69 74 70
f 69 75 76
f 70 74 4
f 5 8 71
f 77 72 78
f 76 74 69
f 72 71 8
f 10 4 74
f 78 72 22
f 8 16 72
f 22 72 16
f 13 10 74
f 16 8 11
f 74 76 79
f 80 78 22
f 81 82 83
f 84 79 76
f 15 22 16
f 80 85 86
f 87 81 83
f 79 13 74
f 21 22 15
f 80 22 23
f 82 81 27
f 88 81 87
f 81 88 89
f 27 81 25
f 90 82 31
f 31 91 90
f 13 79 92
f 23 93 80
f 93 85 80
f 31 82 27
f 92 20 13
f 89 25 81
f 31 27 28
f 93 23 24
f 20 94 29
f 45 89 88
f 93 24 34
f 20 92 95
f 94 20 95
f 96 93 34
f 88 97 45
f 45 25 89
f 98 31 36
f 95 99 94
f 45 32 25
f 39 29 94
f 96 34 43
f 40 36 30
f 39 94 99
f 43 100 96
f 39 99 101
f 45 102 44
f 101 103 39
f 36 40 52
f 36 104 98
f 103 47 39
f 48 46 42
f 100 43 46
f 104 36 52
f 103 101 105
f 48 47 106
f 107 100 46
f 102 108 50
f 103 106 47
f 106 109 48
f 46 48 107
f 44 102 50
f 103 105 106
f 109 107 48
f 109 106 110
f 56 61 52
f 52 49 56
f 107 109 110
f 110 111 107
f 50 108 112
f 50 112 54
f 104 52 61
f 61 113 104
f 61 114 113
f 54 115 57
f 61 60 116
f 116 114 61
f 57 117 58
f 58 117 59
f 117 62 59
f 60 63 118
f 118 116 60
f 62 118 63
f 119 120 121
f 121 122 123
f 119 121 124
f 123 122 125
f 121 123 126
f 124 121 126
f 124 127 119
f 128 119 127
f 125 126 123
f 129 125 122
f 130 124 126
f 126 125 130
f 127 124 131
f 125 132 133
f 130 131 124
f 133 130 125
f 134 127 131
f 134 131 135
f 136 137 138
f 139 133 132
f 140 141 142
f 139 143 133
f 143 130 133
f 130 144 131
f 135 131 144
f 136 140 145
f 145 137 136
f 146 147 130
f 147 144 130
f 148 137 149
f 150 151 152
f 152 153 150
f 151 154 152
f 145 149 137
f 155 153 156
f 157 155 158
f 143 157 158
f 135 144 147
f 145 140 159
f 130 143 65
f 147 160 135
f 160 161 135
f 153 152 68
f 68 156 153
f 162 146 130
f 152 163 68
f 155 156 158
f 143 158 65
f 164 140 165
f 166 149 167
f 156 66 158
f 65 162 130
f 159 140 164
f 168 163 152
f 156 67 66
f 65 158 66
f 149 145 169
f 169 167 149
f 156 68 67
f 162 65 73
f 147 170 160
f 164 160 170
f 73 65 64
f 146 171 147
f 170 159 164
f 71 73 64
f 73 172 162
f 145 159 173
f 163 75 68
f 146 162 172
f 170 174 159
f 75 69 68
f 172 77 146
f 77 171 146
f 170 147 175
f 174 173 159
f 172 73 72
f 147 171 175
f 75 163 176
f 72 77 172
f 175 174 170
f 169 145 177
f 167 169 177
f 177 178 167
f 179 75 176
f 77 86 171
f 175 171 86
f 76 75 179
f 86 77 78
f 180 174 175
f 76 179 84
f 173 174 83
f 78 80 86
f 83 181 173
f 145 173 90
f 90 177 145
f 180 87 174
f 87 83 174
f 82 181 83
f 181 90 173
f 90 182 177
f 175 86 85
f 182 183 177
f 178 177 183
f 84 184 79
f 82 90 181
f 185 79 184
f 85 186 175
f 180 175 186
f 182 90 91
f 92 79 185
f 87 180 88
f 186 88 180
f 182 91 31
f 98 182 31
f 85 93 96
f 88 186 97
f 92 187 95
f 182 188 183
f 182 98 188
f 96 186 85
f 97 186 102
f 186 96 100
f 102 45 97
f 187 189 95
f 99 95 189
f 102 186 190
f 98 191 188
f 189 192 99
f 100 190 186
f 191 98 193
f 192 101 99
f 101 192 194
f 101 194 105
f 193 98 104
f 190 108 102
f 195 105 194
f 195 196 105
f 193 104 113
f 105 196 106
f 100 107 197
f 190 100 197
f 198 106 196
f 197 199 190
f 108 190 199
f 110 106 198
f 198 200 110
f 197 107 111
f 111 110 200
f 200 201 111
f 199 202 108
f 108 202 112
f 193 113 203
f 111 201 204
f 197 111 204
f 204 205 197
f 199 197 205
f 202 199 205
f 113 114 203
f 205 206 202
f 206 115 202
f 112 202 115
f 115 54 112
f 57 115 207
f 203 114 208
f 117 57 207
f 116 208 114
f 117 118 62
f 209 210 211
f 212 211 213
f 213 211 210
f 210 209 120
f 214 213 215
f 120 216 210
f 213 210 216
f 217 218 219
f 120 209 217
f 213 216 128
f 128 215 213
f 215 220 221
f 120 217 122
f 219 122 217
f 122 121 120
f 119 216 120
f 128 222 215
f 220 215 222
f 128 216 119
f 219 223 224
f 122 219 129
f 224 129 219
f 129 224 225
f 226 128 127
f 222 227 220
f 227 228 220
f 222 128 226
f 229 230 224
f 129 225 132
f 132 125 129
f 222 226 231
f 232 228 227
f 222 231 233
f 227 222 233
f 233 232 227
f 226 127 134
f 231 226 134
f 233 234 232
f 235 236 232
f 235 232 234
f 230 225 224
f 233 231 237
f 238 235 239
f 240 225 230
f 237 234 233
f 235 234 141
f 141 138 235
f 239 235 138
f 225 240 132
f 237 142 234
f 142 141 234
f 241 242 243
f 141 140 136
f 136 138 141
f 239 138 148
f 244 239 148
f 245 246 242
f 240 230 247
f 132 240 139
f 135 161 134
f 231 134 161
f 137 148 138
f 148 248 244
f 249 241 243
f 241 250 242
f 245 242 250
f 244 248 251
f 250 151 245
f 252 245 151
f 151 150 252
f 237 231 253
f 248 148 254
f 255 252 150
f 150 153 255
f 247 256 157
f 240 247 157
f 157 139 240
f 231 161 253
f 257 258 259
f 249 257 259
f 241 249 259
f 256 255 155
f 237 253 165
f 165 142 237
f 254 148 149
f 260 250 241
f 151 250 154
f 153 155 255
f 155 157 256
f 248 261 251
f 139 157 143
f 142 165 140
f 261 248 262
f 259 258 263
f 241 259 260
f 154 250 264
f 149 166 254
f 254 262 248
f 264 250 260
f 166 262 254
f 263 260 259
f 160 253 161
f 154 264 168
f 265 260 263
f 168 152 154
f 160 164 253
f 165 253 164
f 166 266 262
f 267 264 260
f 266 166 268
f 265 269 260
f 269 267 260
f 168 176 163
f 264 176 168
f 167 270 166
f 270 268 166
f 264 267 271
f 269 272 267
f 272 271 267
f 271 176 264
f 272 273 271
f 273 272 274
f 176 271 273
f 178 270 167
f 274 275 273
f 275 276 273
f 176 273 276
f 179 176 277
f 276 277 176
f 178 278 270
f 184 84 179
f 277 276 279
f 184 179 277
f 278 178 280
f 280 178 183
f 279 281 277
f 184 277 281
f 281 282 184
f 185 184 282
f 92 185 187
f 183 188 280
f 283 280 188
f 284 187 185
f 187 284 189
f 188 285 283
f 285 188 191
f 191 286 285
f 192 189 287
f 286 191 193
f 193 288 286
f 192 287 194
f 288 193 289
f 194 290 195
f 196 195 290
f 196 290 198
f 290 291 198
f 203 289 193
f 200 198 291
f 291 292 200
f 201 200 292
f 292 204 201
f 204 292 293
f 205 204 293
f 205 293 294
f 206 205 294
f 206 294 295
f 115 206 295
f 295 296 115
f 207 115 296
f 297 203 208
f 117 207 296
f 296 298 117
f 298 299 117
f 118 117 299
f 208 116 300
f 299 300 118
f 116 118 300
f 301 302 303
f 304 301 303
f 302 301 305
f 306 302 305
f 306 305 307
f 308 211 304
f 301 304 212
f 209 211 308
f 212 304 211
f 307 305 309
f 310 307 309
f 209 311 218
f 301 214 305
f 312 313 314
f 315 314 313
f 316 218 311
f 301 212 214
f 316 315 317
f 218 217 209
f 214 212 213
f 214 309 305
f 309 318 310
f 319 320 321
f 320 312 321
f 215 221 214
f 313 322 315
f 317 315 322
f 316 317 218
f 214 323 309
f 324 318 309
f 218 317 325
f 326 318 327
f 320 313 312
f 317 322 325
f 325 219 218
f 221 323 214
f 323 328 309
f 324 309 328
f 318 329 327
f 320 322 313
f 325 322 223
f 318 324 329
f 330 320 319
f 325 223 219
f 323 221 228
f 328 323 228
f 221 220 228
f 322 320 331
f 330 332 320
f 331 223 322
f 333 329 334
f 334 335 333
f 328 336 324
f 329 324 336
f 336 334 329
f 224 223 229
f 223 331 229
f 232 236 228
f 328 228 236
f 336 328 236
f 334 238 335
f 337 332 330
f 331 320 332
f 235 336 236
f 336 238 334
f 337 338 339
f 339 332 337
f 235 238 336
f 340 339 338
f 338 341 340
f 342 343 344
f 332 345 331
f 344 343 243
f 243 242 344
f 341 344 242
f 339 346 332
f 229 331 345
f 244 238 239
f 347 238 244
f 342 257 343
f 242 340 341
f 339 340 246
f 332 346 345
f 345 230 229
f 257 249 343
f 340 242 246
f 346 339 246
f 343 249 243
f 246 252 346
f 252 255 346
f 345 346 255
f 348 347 244
f 245 252 246
f 256 247 345
f 247 230 345
f 256 345 255
f 348 244 251
f 251 349 348
f 350 349 251
f 257 351 258
f 350 251 261
f 261 352 350
f 353 263 258
f 262 352 261
f 352 262 354
f 355 263 353
f 266 354 262
f 263 355 265
f 356 354 266
f 356 266 268
f 355 357 265
f 269 265 357
f 356 268 358
f 269 357 272
f 358 268 270
f 272 357 359
f 358 270 360
f 272 359 274
f 275 274 359
f 275 359 276
f 278 360 270
f 276 359 279
f 360 278 361
f 279 359 362
f 281 279 362
f 361 278 280
f 283 361 280
f 281 284 282
f 282 284 185
f 284 363 189
f 287 189 363
f 363 364 287
f 365 287 364
f 287 365 194
f 366 194 365
f 194 366 290
f 367 291 290
f 367 292 291
f 292 367 368
f 369 293 368
f 369 370 293
f 292 368 293
f 370 294 293
f 370 371 294
f 371 295 294
f 295 371 372
f 296 295 372
f 372 298 296
f 298 372 373
f 298 373 374
f 208 375 297
f 374 299 298
f 299 374 300
f 208 300 375
f 376 308 377
f 378 377 308
f 304 303 378
f 379 303 302
f 302 380 379
f 380 302 306
f 381 380 306
f 304 378 308
f 306 307 381
f 307 382 381
f 383 384 315
f 376 383 311
f 308 376 311
f 310 382 307
f 385 382 310
f 315 384 314
f 311 209 308
f 384 386 312
f 383 315 316
f 387 385 310
f 321 312 386
f 312 314 384
f 383 316 311
f 387 310 326
f 388 387 326
f 326 389 388
f 326 390 389
f 390 391 389
f 318 326 310
f 390 326 327
f 391 390 392
f 393 394 392
f 395 319 321
f 327 396 390
f 396 397 390
f 392 390 397
f 393 392 398
f 399 393 398
f 398 392 397
f 398 400 399
f 396 333 397
f 400 398 401
f 319 395 402
f 396 327 329
f 401 403 400
f 400 403 404
f 397 405 398
f 405 401 398
f 319 402 330
f 333 405 397
f 333 396 329
f 404 403 406
f 405 403 401
f 330 402 407
f 335 405 333
f 403 405 408
f 403 408 406
f 408 409 406
f 407 337 330
f 337 407 410
f 410 338 337
f 238 347 335
f 408 405 411
f 338 410 412
f 405 335 347
f 411 413 408
f 409 408 414
f 344 341 412
f 341 338 412
f 409 414 415
f 347 349 405
f 349 411 405
f 416 257 417
f 342 417 257
f 413 414 408
f 257 416 351
f 347 348 349
f 414 418 415
f 351 416 419
f 411 349 350
f 418 414 420
f 258 351 419
f 414 413 420
f 350 413 411
f 419 421 258
f 352 413 350
f 258 421 353
f 418 420 422
f 353 421 355
f 413 352 354
f 413 354 423
f 422 420 424
f 413 423 425
f 413 424 420
f 424 426 422
f 423 354 356
f 427 424 413
f 427 413 425
f 423 356 358
f 424 428 426
f 425 423 358
f 359 357 429
f 430 428 424
f 425 431 427
f 427 430 424
f 425 358 432
f 360 432 358
f 432 431 425
f 430 427 433
f 432 360 361
f 434 431 432
f 361 434 432
f 427 431 435
f 435 433 427
f 435 431 436
f 362 284 281
f 434 361 437
f 283 437 361
f 431 434 438
f 438 436 431
f 439 438 434
f 437 439 434
f 283 440 437
f 440 441 437
f 439 437 441
f 441 442 439
f 443 363 284
f 440 283 285
f 441 444 442
f 440 285 286
f 288 441 440
f 286 288 440
f 441 288 444
f 444 288 289
f 290 366 367
f 368 367 445
f 445 446 368
f 369 368 446
f 370 369 446
f 203 447 289
f 371 370 448
f 448 372 371
f 373 372 448
f 297 447 203
f 373 448 449
f 449 374 373
f 374 449 450
f 450 300 374
f 375 300 450
f 378 451 377
f 378 452 451
f 378 453 452
f 453 378 303
f 453 303 379
f 384 454 386
f 454 384 383
f 383 455 454
f 455 383 376
f 376 377 455
f 456 381 382
f 457 456 382
f 457 382 385
f 457 385 387
f 387 458 457
f 459 321 460
f 321 386 460
f 387 461 458
f 461 387 388
f 388 462 461
f 388 389 462
f 462 389 391
f 394 462 391
f 391 392 394
f 393 463 394
f 395 321 459
f 463 393 399
f 399 400 463
f 464 402 395
f 465 400 404
f 404 406 465
f 466 465 406
f 466 406 409
f 409 467 466
f 342 468 469
f 468 342 344
f 467 409 415
f 415 470 467
f 471 417 472
f 472 417 342
f 342 469 472
f 471 416 417
f 471 473 416
f 470 415 418
f 419 416 473
f 419 473 474
f 474 421 419
f 421 474 475
f 418 422 476
f 477 476 422
f 421 475 478
f 355 421 478
f 478 357 355
f 477 422 426
f 478 429 357
f 426 479 477
f 479 426 428
f 430 479 428
f 433 480 430
f 481 362 359
f 481 482 362
f 433 435 483
f 284 362 482
f 435 436 483
f 482 443 284
f 436 438 484
f 483 436 484
f 438 439 484
f 484 439 485
f 442 485 439
f 486 363 443
f 363 486 364
f 444 485 442
f 485 444 487
f 366 365 488
f 444 289 487
f 367 366 488
f 289 489 487
f 488 490 367
f 445 367 490
f 446 445 491
f 289 447 489
f 491 492 446
f 370 446 492
f 448 370 492
f 449 448 493
f 494 447 297
f 493 495 449
f 495 450 449
f 297 375 494
f 496 454 455
f 377 451 497
f 377 497 455
f 379 498 453
f 498 379 380
f 498 380 381
f 381 499 498
f 499 381 456
f 457 500 456
f 500 457 458
f 501 462 394
f 394 502 501
f 502 394 463
f 400 503 463
f 400 504 503
f 504 400 465
f 505 402 464
f 505 506 402
f 407 402 506
f 410 407 506
f 467 507 466
f 468 344 508
f 344 412 508
f 509 412 410
f 510 469 468
f 507 467 470
f 469 510 472
f 472 511 471
f 472 510 511
f 473 471 511
f 511 512 473
f 513 470 418
f 511 514 512
f 513 418 476
f 473 512 474
f 476 515 513
f 474 512 475
f 512 516 475
f 516 512 514
f 515 476 477
f 475 516 478
f 478 516 517
f 517 429 478
f 429 517 518
f 515 477 479
f 479 519 515
f 518 520 429
f 429 520 521
f 521 359 429
f 519 479 480
f 480 479 430
f 481 359 521
f 433 522 480
f 483 522 433
f 443 482 523
f 484 524 483
f 443 523 486
f 525 486 523
f 364 486 525
f 526 364 525
f 527 485 487
f 365 364 526
f 488 365 526
f 487 528 527
f 526 529 488
f 529 490 488
f 445 490 530
f 491 445 530
f 489 447 531
f 530 532 491
f 532 492 491
f 532 533 492
f 492 533 448
f 533 534 448
f 494 531 447
f 534 493 448
f 450 495 535
f 535 536 450
f 375 450 536
f 375 536 537
f 494 375 537
f 538 496 455
f 538 497 451
f 452 539 540
f 454 496 541
f 497 538 455
f 452 540 451
f 452 542 539
f 542 452 453
f 543 386 541
f 541 386 454
f 542 453 498
f 498 544 542
f 543 460 386
f 543 545 460
f 498 499 544
f 459 460 545
f 546 499 456
f 546 456 500
f 458 547 500
f 548 458 461
f 548 461 462
f 459 545 549
f 500 550 546
f 500 547 550
f 395 459 549
f 503 502 463
f 505 464 395
f 395 549 505
f 412 551 508
f 509 410 506
f 552 468 508
f 551 412 509
f 553 510 468
f 468 552 553
f 507 470 554
f 555 511 510
f 554 470 513
f 514 511 555
f 555 556 514
f 554 513 557
f 557 513 515
f 556 516 514
f 516 556 517
f 558 515 519
f 559 521 520
f 519 480 560
f 480 561 560
f 521 559 481
f 562 481 559
f 563 561 480
f 482 481 562
f 480 522 563
f 523 482 562
f 564 565 566
f 483 567 522
f 523 562 566
f 566 565 523
f 567 483 524
f 484 568 524
f 523 565 525
f 525 565 564
f 525 564 569
f 485 568 484
f 569 526 525
f 526 569 570
f 527 568 485
f 529 526 570
f 571 528 487
f 487 489 571
f 489 531 571
f 490 572 530
f 530 572 573
f 532 530 573
f 573 574 532
f 533 532 574
f 574 575 533
f 494 576 577
f 575 534 533
f 534 575 578
f 578 493 534
f 493 578 579
f 579 495 493
f 495 579 580
f 580 576 536
f 531 494 577
f 580 535 495
f 576 537 536
f 535 580 536
f 576 494 537
f 496 581 582
f 581 496 538
f 538 583 581
f 496 582 541
f 538 451 583
f 584 583 451
f 451 540 584
f 585 539 542
f 542 544 585
f 544 499 586
f 586 499 546
f 548 587 588
f 587 548 462
f 462 589 587
f 547 458 548
f 548 588 547
f 462 501 589
f 546 590 586
f 550 590 546
f 591 550 547
f 592 505 549
f 465 593 504
f 593 465 466
f 594 593 466
f 508 551 595
f 466 507 594
f 552 508 595
f 507 554 594
f 553 555 510
f 517 556 596
f 517 596 597
f 557 515 558
f 518 517 597
f 519 560 558
f 520 518 598
f 559 520 598
f 559 598 599
f 562 559 600
f 562 600 601
f 601 566 562
f 602 563 522
f 567 602 522
f 601 564 566
f 564 601 603
f 604 567 524
f 564 603 605
f 606 604 524
f 606 524 568
f 605 569 564
f 569 605 607
f 607 570 569
f 568 527 608
f 527 609 608
f 610 570 607
f 529 570 610
f 527 528 609
f 609 528 611
f 571 612 611
f 611 528 571
f 572 529 610
f 531 612 571
f 529 572 490
f 612 531 577
f 580 613 614
f 615 576 614
f 613 580 579
f 576 615 612
f 612 577 576
f 616 573 572
f 614 576 580
f 616 574 573
f 575 574 617
f 618 582 581
f 540 619 584
f 585 620 539
f 545 543 621
f 585 622 620
f 622 585 544
f 545 623 549
f 624 622 544
f 624 544 586
f 501 625 589
f 625 501 502
f 588 591 547
f 591 590 550
f 626 502 503
f 626 503 627
f 503 504 627
f 505 592 628
f 506 505 628
f 555 553 629
f 554 630 594
f 555 596 556
f 630 554 557
f 557 558 631
f 518 597 598
f 632 558 560
f 560 633 632
f 560 561 633
f 599 600 559
f 601 600 634
f 635 602 567
f 567 604 635
f 606 568 636
f 637 636 608
f 608 636 568
f 637 609 638
f 609 637 608
f 611 638 609
f 612 639 611
f 615 640 639
f 615 639 612
f 640 614 613
f 615 614 640
f 641 616 572
f 616 617 574
f 642 581 583
f 583 643 642
f 643 583 584
f 581 642 618
f 584 619 643
f 582 618 541
f 540 644 619
f 540 539 644
f 541 621 543
f 621 541 618
f 644 539 620
f 622 645 620
f 623 545 621
f 624 645 622
f 587 646 588
f 647 587 589
f 623 648 549
f 649 645 624
f 647 646 587
f 649 624 586
f 590 650 586
f 646 591 588
f 592 549 648
f 586 650 649
f 650 590 591
f 591 651 650
f 591 652 651
f 652 591 646
f 653 627 504
f 653 504 654
f 593 654 504
f 655 506 628
f 506 655 656
f 656 657 551
f 656 551 509
f 656 509 506
f 551 657 595
f 553 552 595
f 595 629 553
f 555 629 658
f 557 659 630
f 557 631 659
f 597 596 660
f 558 632 631
f 600 599 634
f 661 561 563
f 563 662 661
f 662 563 602
f 662 602 635
f 603 601 663
f 664 635 604
f 604 606 664
f 665 664 606
f 666 665 636
f 636 665 606
f 636 637 666
f 667 607 668
f 669 639 670
f 669 671 639
f 638 611 671
f 607 667 610
f 671 611 639
f 670 639 640
f 640 613 672
f 610 667 572
f 673 672 613
f 674 572 667
f 641 572 674
f 673 579 578
f 613 579 673
f 575 675 673
f 673 578 575
f 617 676 575
f 616 676 617
f 677 618 642
f 621 618 677
f 678 644 620
f 645 678 620
f 623 621 679
f 678 645 680
f 589 625 647
f 680 645 649
f 625 681 647
f 625 626 681
f 626 625 502
f 623 679 648
f 682 648 679
f 680 649 683
f 683 649 650
f 651 683 650
f 652 646 684
f 592 648 682
f 685 683 651
f 685 651 652
f 682 628 592
f 686 683 685
f 682 687 628
f 687 655 628
f 688 657 656
f 656 655 688
f 654 593 689
f 657 688 690
f 690 595 657
f 689 593 594
f 595 690 691
f 595 691 629
f 689 594 692
f 692 594 630
f 693 555 658
f 596 555 693
f 693 694 596
f 660 596 694
f 659 631 695
f 695 631 696
f 632 696 631
f 597 697 598
f 632 698 696
f 698 632 633
f 633 699 698
f 699 633 561
f 661 700 699
f 661 699 561
f 700 661 662
f 601 634 663
f 662 635 701
f 702 603 663
f 664 701 635
f 702 605 603
f 702 703 605
f 666 704 665
f 705 704 666
f 605 703 607
f 703 668 607
f 637 705 666
f 706 669 707
f 705 671 706
f 638 705 637
f 707 669 670
f 706 671 669
f 638 671 705
f 670 708 707
f 640 708 670
f 708 640 672
f 674 709 641
f 710 641 709
f 675 575 676
f 710 616 641
f 710 676 616
f 677 642 711
f 711 642 643
f 643 712 711
f 713 712 643
f 643 619 713
f 713 619 644
f 621 714 679
f 714 621 677
f 713 644 678
f 715 713 678
f 678 680 715
f 716 646 647
f 647 681 716
f 627 681 626
f 717 715 680
f 682 679 718
f 684 646 716
f 719 685 652
f 720 682 718
f 680 683 686
f 680 721 717
f 721 680 686
f 685 719 722
f 685 722 686
f 723 653 654
f 719 724 722
f 682 720 687
f 725 721 686
f 686 722 725
f 724 726 722
f 727 655 687
f 722 728 725
f 727 688 655
f 728 722 726
f 654 729 723
f 729 654 689
f 730 690 688
f 730 688 727
f 731 727 687
f 687 732 731
f 733 725 728
f 690 730 691
f 727 734 730
f 734 727 731
f 735 729 689
f 736 691 730
f 629 736 658
f 629 691 736
f 730 734 736
f 728 737 733
f 726 738 728
f 689 692 735
f 737 728 738
f 739 735 692
f 693 658 736
f 693 736 740
f 741 733 737
f 692 630 739
f 693 740 694
f 630 659 739
f 737 742 741
f 743 739 659
f 660 694 744
f 742 737 738
f 745 741 742
f 742 746 745
f 659 695 743
f 747 660 744
f 747 597 660
f 748 743 695
f 697 597 747
f 695 696 748
f 746 749 745
f 750 748 696
f 696 698 750
f 598 697 751
f 751 599 598
f 752 745 749
f 753 749 754
f 754 755 753
f 756 755 754
f 750 698 757
f 749 753 752
f 698 699 757
f 752 753 758
f 751 759 599
f 634 599 759
f 753 755 760
f 761 755 756
f 753 760 758
f 700 757 699
f 634 759 762
f 761 763 755
f 764 757 700
f 755 763 760
f 765 634 762
f 758 766 767
f 758 760 766
f 763 761 768
f 700 662 764
f 634 765 663
f 701 769 764
f 662 701 764
f 770 768 771
f 769 701 772
f 773 760 763
f 768 770 763
f 664 772 701
f 760 773 766
f 705 770 771
f 772 664 665
f 703 774 775
f 773 763 770
f 770 706 773
f 665 704 772
f 702 774 703
f 776 767 766
f 770 705 706
f 705 771 704
f 668 703 775
f 775 777 668
f 766 778 776
f 773 706 707
f 779 778 766
f 779 766 773
f 773 707 779
f 778 780 776
f 780 778 781
f 708 779 707
f 667 777 674
f 778 779 781
f 668 777 667
f 781 779 672
f 779 708 672
f 673 781 672
f 675 782 781
f 675 781 673
f 782 675 676
f 782 676 710
f 783 677 711
f 711 784 783
f 784 711 712
f 784 712 785
f 677 783 714
f 785 712 713
f 786 785 713
f 787 714 783
f 714 787 679
f 786 713 788
f 715 788 713
f 679 787 789
f 788 715 790
f 679 789 718
f 718 789 791
f 790 715 717
f 792 681 627
f 653 792 627
f 717 793 790
f 652 794 719
f 794 652 684
f 721 793 717
f 724 719 794
f 792 653 795
f 723 795 653
f 796 718 791
f 724 794 797
f 718 796 720
f 798 793 721
f 798 721 725
f 720 796 799
f 799 687 720
f 732 687 799
f 724 797 726
f 723 800 795
f 723 729 800
f 801 798 725
f 733 801 725
f 797 802 726
f 731 803 734
f 803 731 732
f 729 735 800
f 738 726 802
f 800 735 804
f 734 805 736
f 805 734 806
f 741 801 733
f 807 736 805
f 804 735 739
f 807 740 736
f 807 805 808
f 802 809 738
f 740 744 694
f 810 740 807
f 744 740 810
f 810 807 808
f 742 738 809
f 809 746 742
f 804 739 811
f 811 739 743
f 747 744 810
f 697 747 810
f 741 745 801
f 748 811 743
f 810 812 697
f 813 801 745
f 814 811 748
f 746 815 749
f 816 813 745
f 749 815 754
f 697 812 817
f 748 750 814
f 817 751 697
f 754 815 818
f 816 745 752
f 819 751 817
f 756 754 818
f 820 814 750
f 821 751 819
f 820 750 757
f 821 759 751
f 818 822 756
f 816 752 758
f 822 761 756
f 757 764 820
f 823 820 764
f 824 762 759
f 816 758 825
f 761 822 826
f 820 823 827
f 824 828 762
f 765 762 828
f 823 769 827
f 758 767 825
f 829 768 761
f 761 826 829
f 823 764 769
f 663 765 828
f 828 774 663
f 663 774 702
f 768 829 771
f 771 829 830
f 769 831 827
f 769 772 831
f 704 830 832
f 832 772 704
f 772 832 831
f 771 830 704
f 833 834 775
f 767 776 835
f 777 775 834
f 835 780 836
f 776 780 835
f 777 834 837
f 777 837 674
f 838 780 839
f 674 837 840
f 780 781 839
f 709 840 841
f 709 674 840
f 782 710 841
f 782 839 781
f 841 710 709
f 842 783 784
f 843 784 785
f 843 785 786
f 844 783 842
f 784 845 842
f 784 843 845
f 786 846 843
f 844 787 783
f 847 844 842
f 848 847 842
f 843 849 845
f 786 788 846
f 842 845 848
f 843 850 849
f 850 843 846
f 788 790 846
f 787 851 789
f 851 787 844
f 845 849 848
f 844 852 851
f 853 716 681
f 854 846 790
f 855 716 853
f 792 853 681
f 855 684 716
f 789 851 791
f 793 854 790
f 856 855 853
f 857 850 846
f 857 846 854
f 794 684 855
f 849 850 858
f 854 859 857
f 859 854 793
f 855 860 794
f 860 855 856
f 861 791 851
f 850 857 858
f 862 856 853
f 862 853 792
f 791 861 796
f 851 863 861
f 859 864 857
f 794 860 797
f 860 856 865
f 856 866 865
f 793 798 859
f 867 862 792
f 867 792 795
f 861 868 796
f 868 861 863
f 869 797 860
f 869 860 870
f 862 871 866
f 862 867 871
f 857 864 872
f 873 799 796
f 796 868 873
f 874 864 859
f 859 875 874
f 795 800 867
f 872 864 876
f 875 859 798
f 801 875 798
f 864 874 876
f 877 867 800
f 732 799 878
f 799 873 878
f 797 869 802
f 732 878 803
f 877 800 879
f 734 803 806
f 874 880 876
f 880 874 875
f 802 869 881
f 879 800 804
f 882 879 804
f 808 805 806
f 801 813 875
f 875 813 880
f 809 802 881
f 883 808 806
f 884 880 813
f 806 885 883
f 882 804 811
f 808 886 810
f 887 880 884
f 746 809 888
f 886 808 883
f 815 746 888
f 812 810 886
f 883 817 886
f 883 889 817
f 815 888 890
f 891 811 814
f 892 887 884
f 812 886 817
f 889 893 894
f 892 884 813
f 819 817 889
f 889 821 819
f 889 894 821
f 890 818 815
f 814 895 891
f 813 816 892
f 818 890 896
f 895 814 820
f 897 892 816
f 822 818 896
f 759 821 824
f 824 821 898
f 820 899 895
f 822 896 826
f 828 898 900
f 826 896 901
f 898 828 824
f 816 825 897
f 820 827 899
f 902 897 825
f 829 826 901
f 828 900 774
f 901 903 829
f 904 774 900
f 830 829 903
f 831 905 827
f 832 903 905
f 905 831 832
f 775 774 904
f 832 830 903
f 835 825 767
f 904 833 775
f 833 904 906
f 906 834 833
f 837 834 907
f 836 780 908
f 837 907 909
f 780 838 908
f 910 782 911
f 912 840 837
f 837 909 912
f 911 782 841
f 782 910 839
f 839 910 838
f 912 841 840
f 841 912 911
f 852 844 847
f 847 848 852
f 913 848 849
f 848 913 914
f 848 914 852
f 849 858 913
f 863 851 852
f 914 913 858
f 852 914 915
f 852 915 863
f 916 914 858
f 858 917 916
f 872 858 857
f 866 856 862
f 916 915 914
f 858 918 917
f 918 858 872
f 860 865 870
f 919 865 866
f 863 920 868
f 870 865 919
f 866 921 919
f 920 863 915
f 922 920 915
f 870 919 923
f 919 921 924
f 921 866 871
f 925 868 920
f 926 918 872
f 871 927 921
f 877 871 867
f 868 925 873
f 926 872 876
f 924 921 928
f 929 878 873
f 873 930 929
f 930 873 925
f 878 931 803
f 878 929 931
f 932 926 876
f 876 933 932
f 869 870 934
f 871 935 927
f 935 871 877
f 803 931 806
f 936 931 929
f 936 929 930
f 937 936 930
f 876 880 933
f 881 869 934
f 885 806 931
f 938 931 936
f 877 879 935
f 938 885 931
f 939 936 937
f 940 927 935
f 941 879 882
f 942 933 880
f 881 934 809
f 943 935 879
f 939 938 936
f 935 943 940
f 879 941 943
f 944 809 934
f 941 882 811
f 941 945 943
f 938 893 885
f 938 894 893
f 880 887 942
f 809 944 888
f 885 893 883
f 894 938 939
f 939 946 894
f 946 939 947
f 948 941 811
f 888 944 890
f 949 945 941
f 811 891 948
f 889 883 893
f 887 950 942
f 890 944 951
f 941 948 949
f 950 887 892
f 895 948 891
f 952 894 946
f 951 896 890
f 953 896 951
f 948 954 949
f 954 948 895
f 894 952 821
f 946 955 952
f 950 892 956
f 957 958 949
f 954 895 899
f 821 952 898
f 955 898 952
f 953 901 896
f 901 953 959
f 956 892 902
f 897 902 892
f 949 954 957
f 955 900 898
f 900 955 960
f 959 961 901
f 957 962 958
f 900 960 963
f 954 827 957
f 954 899 827
f 901 961 903
f 903 961 964
f 902 825 965
f 962 903 964
f 962 905 903
f 962 957 905
f 827 905 957
f 904 900 963
f 904 963 966
f 906 904 966
f 825 967 965
f 825 835 967
f 968 834 906
f 969 970 971
f 970 972 973
f 835 836 967
f 834 968 907
f 907 968 974
f 973 975 970
f 975 973 972
f 976 974 971
f 977 971 970
f 977 970 975
f 971 977 976
f 838 975 908
f 907 974 909
f 909 974 976
f 912 976 977
f 977 910 911
f 910 977 975
f 975 838 910
f 976 912 909
f 977 911 912
f 916 978 979
f 978 916 917
f 917 918 978
f 916 979 922
f 978 918 980
f 922 915 916
f 979 981 922
f 979 980 981
f 980 979 978
f 918 982 980
f 982 918 926
f 923 919 924
f 983 925 920
f 983 920 922
f 981 983 922
f 926 932 982
f 984 924 928
f 982 985 980
f 985 982 932
f 934 870 923
f 927 928 921
f 925 937 930
f 937 925 983
f 986 923 924
f 986 924 984
f 923 986 934
f 928 927 940
f 932 933 985
f 928 940 984
f 937 947 939
f 940 987 984
f 988 980 985
f 937 989 947
f 933 990 985
f 990 933 942
f 989 937 983
f 991 940 943
f 981 989 983
f 981 980 988
f 991 987 940
f 934 992 944
f 992 934 986
f 992 986 984
f 993 984 987
f 991 943 945
f 984 993 992
f 990 988 985
f 988 990 942
f 942 950 988
f 944 992 951
f 946 947 989
f 994 989 981
f 958 991 945
f 945 949 958
f 995 987 991
f 953 951 992
f 992 993 953
f 995 991 958
f 955 946 989
f 960 989 994
f 993 987 995
f 955 989 960
f 959 953 993
f 996 981 988
f 993 961 959
f 993 995 961
f 950 997 988
f 997 950 956
f 994 998 960
f 956 902 997
f 998 994 981
f 963 960 998
f 999 981 996
f 964 961 995
f 958 962 995
f 995 962 964
f 1000 998 981
f 1001 988 997
f 997 965 1001
f 902 965 997
f 966 963 998
f 966 998 1000
f 981 999 1000
f 1002 988 1001
f 906 966 1000
f 988 1002 996
f 965 967 1001
f 996 972 969
f 1000 968 906
f 968 1000 999
f 969 999 996
f 1002 972 996
f 972 1002 1001
f 968 999 974
f 971 999 969
f 972 970 969
f 974 999 971
f 972 1001 975
f 836 1001 967
f 1001 836 908
f 975 1001 908
