v -68.717255 -118.126465 10.938507

v -70.053467 -119.273010 10.303650

v -70.150169 -117.495728 11.408325

v -80.926880 -125.765320 10.417267

v -83.177292 -128.492691 9.948238

v -84.479126 -127.979309 10.662964

v -72.125854 -120.697815 10.385529

v -74.931030 -123.876495 9.961544

v -75.388428 -122.358765 10.534546

v -78.389946 -123.907013 10.286560

v -78.983826 -126.198853 9.925760

v -84.658531 -129.810440 10.184225

v -69.301094 -120.739441 9.986729

v -67.751175 -118.295837 11.572449

v -83.884636 -132.964905 9.888856

v -85.028015 -131.651215 10.200829

v -77.512871 -135.958771 9.895067

v -65.771118 -125.704605 10.226257

v -66.509079 -126.555145 9.965525

v -85.550476 -134.676147 10.261154

v -84.635094 -137.237015 9.901495

v -86.012756 -137.985306 10.444397

v -85.393188 -140.468155 10.245697

v -64.049194 -129.663391 10.389587

v -63.862244 -125.378418 11.539948

v -61.695251 -131.353210 11.589539

v -83.346817 -141.972961 9.859030

v -84.380798 -143.666870 10.226196

v -63.899246 -133.459717 9.966705

v -62.918030 -133.782211 10.288757

v -83.331161 -146.072998 10.184387

v -64.279091 -136.890106 9.947906

v -80.806282 -147.076920 9.860514

v -67.231850 -142.894379 9.908618

v -61.834351 -134.841888 11.189758

v -63.106628 -137.407349 10.256226

v -76.256836 -149.440491 9.858421

v -83.183594 -148.134766 11.254883

v -80.300018 -148.691833 10.203247

v -62.317291 -137.798767 10.853333

v -64.161957 -141.739319 9.955784

v -62.494812 -139.829437 10.784058

v -63.196167 -140.644882 10.294006

v -61.397396 -141.521790 12.557671

v -75.226318 -151.567627 10.178284

v -76.821777 -152.527039 11.379028

v -62.383118 -142.642426 10.831879

v -64.616043 -145.994736 9.921490

v -63.416779 -143.959778 10.168549

v -69.388367 -151.363892 9.876730

v -63.835648 -146.588882 10.108871

v -62.482567 -145.087814 10.896591

v -65.064270 -148.427414 9.930815

v -62.763214 -147.607315 10.951244

v -71.239288 -152.793213 10.217438

v -72.464760 -154.615326 11.598793

v -65.926987 -150.103073 10.115639

v -63.799564 -149.327469 10.889635

v -67.982742 -152.866302 10.683853

v -65.350998 -151.147614 10.831562

v -69.804901 -153.755920 11.299622

v -39.771912 -94.994064 13.014984

v -36.021301 -92.894325 13.046112

v -35.968216 -94.276192 12.482525

v -37.970276 -95.084534 12.378342

v -34.724712 -93.257813 13.136761

v -40.494125 -97.188049 12.331299

v -43.759682 -97.837128 13.127472

v -44.835621 -99.461205 12.456924

v -48.241821 -101.016174 12.668762

v -47.926422 -102.265839 12.155344

v -50.350422 -101.653343 13.082611

v -53.236217 -104.475739 12.411800

v -56.654728 -104.747314 13.580536

v -54.674805 -105.588951 12.264130

v -57.469498 -107.815796 12.272125

v -35.113647 -94.490486 13.200800

v -37.768600 -97.417618 12.187572

v -67.127777 -111.927826 13.203009

v -60.781429 -107.699654 13.492569

v -67.991837 -114.425781 12.124664

v -69.092285 -113.902161 12.733032

v -35.286007 -95.412720 13.012325

v -36.750732 -96.220009 12.317004

v -40.379028 -98.571777 12.078003

v -48.075928 -103.234634 12.032770

v -54.353027 -106.990356 11.992718

v -69.846741 -116.275269 11.934662

v -73.796265 -116.640472 13.486572

v -36.034035 -96.263863 13.228688

v -67.799347 -115.633591 11.916158

v -82.988098 -123.230713 13.258667

v -79.202393 -120.716728 13.410751

v -36.721489 -97.202812 13.249837

v -38.250519 -99.050354 12.380260

v -38.974731 -100.067673 12.331308

v -76.904785 -119.726685 13.119141

v -36.747082 -98.059967 13.183949

v -44.796143 -104.486023 12.045057

v -86.093445 -126.059052 13.265564

v -87.213844 -128.010971 13.173233

v -37.557907 -99.077347 13.143848

v -38.172878 -100.238327 13.110608

v -39.554100 -101.120018 12.375890

v -40.740913 -102.400467 12.315351

v -88.668091 -129.848053 13.710327

v -38.788227 -101.443863 13.092766

v -88.064209 -131.111649 12.708984

v -39.959358 -102.589958 13.206732

v -41.873581 -103.625381 12.311143

v -42.466728 -104.771454 12.337004

v -43.138710 -105.825241 12.318260

v -46.683350 -107.982849 12.029228

v -41.069771 -103.887962 13.199009

v -43.886124 -106.715347 12.292246

v -41.745796 -104.933434 13.175713

v -42.415310 -105.920677 13.214542

v -88.499069 -133.376038 12.788651

v -87.496582 -132.588379 11.993164

v -43.064419 -106.997322 13.087967

v -44.511978 -107.761856 12.311155

v -47.108311 -111.633797 12.109967

v -43.692589 -108.128860 13.057767

v -45.175426 -108.793869 12.296158

v -45.895638 -109.813721 12.233423

v -49.768280 -115.082306 11.999249

v -44.415482 -109.004593 13.088928

v -62.300491 -125.484680 11.900845

v -45.133503 -110.167641 13.179840

v -45.155907 -111.086090 12.787406

v -88.158020 -135.779999 12.677612

v -46.010212 -112.034477 13.126385

v -46.918217 -113.117325 12.335278

v -46.221317 -113.032463 13.068614

v -88.224625 -138.391739 12.707581

v -46.404556 -114.074181 12.784771

v -47.998493 -115.541801 12.275665

v -50.605347 -119.729462 11.976929

v -51.416695 -122.358490 11.965790

v -47.276299 -115.265877 13.150318

v -88.355438 -140.186142 12.811279

v -48.441513 -117.164505 12.249443

v -47.465988 -116.355156 13.097266

v -47.659531 -117.117012 13.108109

v -47.843441 -117.840698 13.122564

v -48.018169 -118.536568 12.873407

v -49.067482 -119.124092 12.249153

v -56.258667 -126.779785 11.924894

v -87.548401 -142.145874 12.457275

v -53.182526 -125.008583 12.012132

v -48.337986 -119.380470 13.075243

v -50.137238 -121.297653 12.207962

v -48.405842 -120.480988 12.933277

v -87.384277 -144.731689 13.177246

v -48.996365 -120.991188 13.417706

v -49.452278 -122.168144 12.921267

v -50.057014 -123.148613 12.921216

v -50.704048 -124.364357 12.938875

v -54.790825 -127.433052 12.063808

v -60.203766 -131.153168 11.930189

v -51.862183 -125.579659 12.915695

v -55.598194 -128.711197 12.143728

v -52.494293 -126.769417 12.915058

v -85.784668 -147.923096 13.236694

v -53.559174 -128.163544 12.934472

v -56.668320 -130.418640 12.208360

v -60.373962 -133.637924 12.198647

v -54.688835 -129.469086 12.825252

v -57.686455 -131.797684 12.252253

v -55.781536 -130.747360 12.932914

v -56.891678 -132.101303 12.940928

v -60.483772 -134.453003 12.935055

v -61.141262 -135.453613 12.825839

v -82.758789 -150.766602 12.274170

v -60.825844 -136.416092 12.745686

v -81.614868 -150.267487 11.657837

v -61.092461 -137.465881 12.700935

v -61.445618 -138.170471 12.694672

v -60.972153 -139.101776 12.884846

v -61.458035 -139.882263 12.647002

v -82.399292 -154.534729 13.441101

v -80.684814 -153.091553 11.927109

v -61.217873 -141.094849 12.955648

v -61.685989 -142.456284 12.983093

v -61.846405 -143.146362 12.838305

v -76.143608 -154.064911 11.711609

v -62.087158 -143.956390 12.381996

v -61.807152 -144.572754 12.798027

v -76.845619 -156.981812 11.843536

v -79.284180 -157.625122 13.247986

v -62.524338 -146.761536 12.745142

v -63.129761 -147.964111 12.798874

v -63.762619 -149.027756 12.902328

v -64.634689 -150.203873 12.964859

v -65.441246 -151.898514 12.701636

v -71.009155 -155.338440 11.866516

v -66.593658 -152.114944 12.886368

v -68.511032 -153.956680 12.892651

v -72.282471 -157.553162 12.260078

v -75.101105 -158.376953 12.040924

v -69.522995 -155.509674 12.863113

v -70.448456 -156.819000 12.759294

v -76.613831 -159.534973 13.269592

v -73.971130 -159.600342 13.036194

v -53.880554 -77.205688 14.994751

v -51.766151 -75.638756 14.926048

v -52.616772 -77.762512 14.225784

v -54.842125 -78.457115 14.890701

v -51.146118 -75.385689 15.143658

v -50.708118 -77.225815 14.308769

v -55.516632 -80.744438 14.278687

v -56.515244 -80.506577 14.847351

v -52.326584 -78.942230 14.017593

v -48.848820 -79.380615 15.056343

v -58.595734 -83.503609 14.508942

v -49.907303 -79.402313 14.285637

v -50.834503 -82.371918 14.023239

v -56.446968 -83.507690 13.989639

v -49.245815 -79.706825 15.154961

v -58.707993 -86.281616 13.977060

v -60.295006 -86.358582 14.390388

v -49.322739 -81.590225 14.259163

v -49.228882 -88.037109 13.996113

v -48.448326 -81.761841 15.220309

v -61.068420 -90.709183 13.947610

v -62.587166 -90.773560 14.296989

v -62.253113 -88.924248 14.729553

v -64.221390 -90.810303 15.532364

v -48.227066 -84.170761 14.327293

v -64.653061 -93.897804 14.379768

v -47.501900 -84.361137 15.176769

v -63.985470 -95.641785 13.923418

v -66.240158 -96.754829 14.266823

v -46.877499 -86.554771 15.141180

v -47.702469 -86.414093 14.294128

v -68.471741 -97.267700 15.414551

v -68.520264 -99.557854 14.371582

v -66.996819 -99.653862 13.921938

v -69.627945 -102.269409 13.962162

v -71.003479 -100.120064 15.513184

v -47.446968 -88.170441 14.256546

v -72.966858 -103.322311 15.297623

v -46.588196 -88.319481 15.264730

v -60.045898 -105.755859 13.896954

v -72.575958 -104.719162 14.374817

v -45.863522 -90.405754 15.110556

v -46.662170 -90.265175 14.291809

v -56.280273 -102.860962 13.917587

v -71.000641 -104.922104 13.881031

v -46.393593 -91.949570 14.247154

v -73.991013 -107.538666 14.094860

v -75.658997 -106.740692 15.398895

v -48.222855 -94.540283 13.977953

v -46.406952 -93.257385 14.209305

v -73.643448 -108.876076 13.866980

v -45.550846 -92.149529 15.119783

v -67.667679 -109.891052 13.859100

v -76.069794 -110.704468 14.067833

v -77.393280 -109.564606 15.310287

v -72.036255 -112.976440 13.831751

v -51.606453 -99.664108 13.947441

v -79.423492 -112.111237 15.366341

v -79.195648 -114.661079 14.170486

v -45.633183 -93.525505 15.106441

v -45.890388 -94.905876 14.267643

v -77.041481 -113.573029 13.838027

v -45.218830 -95.174980 15.059074

v -47.317108 -98.277893 13.882454

v -45.018723 -96.605255 15.041039

v -45.747704 -96.126900 14.270008

v -80.385033 -117.399353 13.836544

v -83.335999 -118.802338 14.189209

v -45.319450 -97.381744 14.128891

v -52.999695 -102.015076 13.656986

v -85.305359 -121.041183 14.003807

v -86.482849 -119.805435 15.213257

v -67.257988 -110.606033 13.731432

v -70.530853 -113.192810 13.621704

v -76.409409 -117.545898 13.770779

v -83.379333 -120.234344 13.852287

v -87.038284 -123.183762 14.057228

v -88.580811 -122.380943 15.311516

v -41.645699 -95.021431 14.888817

v -36.716843 -92.268585 14.803062

v -44.250244 -97.191231 14.799816

v -34.919991 -92.516769 14.995643

v -41.452869 -95.519707 14.788767

v -79.316406 -119.038574 13.778969

v -84.335968 -123.554626 13.482498

v -88.961197 -126.433228 14.152527

v -90.413895 -126.129333 15.244415

v -36.217175 -94.244469 15.395479

v -36.896996 -96.177200 15.055351

v -37.933258 -97.493408 15.243217

v -90.428772 -128.966064 15.234314

v -38.888489 -99.595184 14.828827

v -40.389526 -101.061516 15.236008

v -89.721436 -131.640671 15.153198

v -42.502945 -103.538254 15.302132

v -44.099701 -106.270180 15.173370

v -89.180817 -133.487778 14.930298

v -44.968750 -108.017670 14.950500

v -88.888184 -134.563828 14.851563

v -45.721802 -109.119225 15.120667

v -88.659088 -136.000992 14.646729

v -46.841812 -112.043907 14.840286

v -88.612793 -137.374496 14.865540

v -47.351536 -113.823357 14.668618

v -88.956558 -138.919464 16.549271

v -48.000179 -114.987457 14.914592

v -88.685020 -140.625854 14.442299

v -48.379265 -116.505684 14.933455

v -48.310280 -117.733963 14.845490

v -88.702225 -142.413239 14.578629

v -88.785187 -144.715622 14.707386

v -50.575722 -123.259003 15.645203

v -88.575729 -146.154938 14.672359

v -51.370731 -124.414978 14.795685

v -52.647163 -125.800751 15.910713

v -53.674603 -126.905174 15.781639

v -86.971191 -148.997253 13.933167

v -54.577518 -128.128555 15.680668

v -88.685371 -147.510880 14.660752

v -55.650597 -129.366135 14.841522

v -87.799019 -149.683884 14.623374

v -56.740753 -130.473770 14.862038

v -57.985184 -131.648102 14.764130

v -61.289871 -133.694153 14.774704

v -61.929749 -134.775146 14.751375

v -85.744080 -152.685104 13.891747

v -61.458206 -136.490662 13.611130

v -62.997829 -136.781937 14.809475

v -86.492058 -152.458817 14.879133

v -62.136292 -137.797256 13.798920

v -63.880726 -139.994034 14.803817

v -62.372589 -139.666855 13.714569

v -86.915596 -152.744888 14.619106

v -62.601044 -141.429779 13.730423

v -84.422653 -155.948624 13.915813

v -64.224152 -142.962677 14.796671

v -85.594986 -155.114899 14.747189

v -63.105652 -143.942444 13.863342

v -64.484779 -145.939026 14.800907

v -64.960907 -148.501770 14.652939

v -79.209167 -159.100662 13.591579

v -66.154739 -150.747284 14.596451

v -80.392761 -164.152481 14.731056

v -76.216599 -164.083572 13.655079

v -79.796738 -164.165070 14.062954

v -70.357452 -156.317078 16.569763

v -71.816338 -158.636292 14.438866

v -74.326797 -160.925278 13.754730

v -75.004089 -161.995911 13.743656

v -72.924118 -160.944473 14.704665

v -78.626785 -165.066681 14.009689

v -79.071976 -165.337997 14.709656

v -74.012337 -163.926208 14.662420

v -76.485451 -166.103241 14.701487

v -74.407265 -164.980484 14.668325

v -61.681625 -75.642517 16.196316

v -66.612106 -78.579041 16.163393

v -61.888100 -75.161278 17.030830

v -65.737061 -77.398193 17.015957

v -68.778702 -79.311195 16.813873

v -60.319000 -75.037193 16.910105

v -60.114063 -75.739258 16.218803

v -67.819633 -80.145264 16.051445

v -69.955521 -80.562302 16.828543

v -69.484688 -82.273666 16.032042

v -70.765091 -81.848709 16.896606

v -59.258286 -75.860085 17.165102

v -60.984009 -77.911987 15.909260

v -68.483253 -82.397141 15.876639

v -71.335052 -83.454178 16.819248

v -58.357052 -77.395363 17.016003

v -71.741875 -84.613739 16.520826

v -59.096191 -77.842392 16.160793

v -61.775871 -84.138809 15.888681

v -70.202423 -85.528030 15.841339

v -72.469162 -85.837090 16.582632

v -58.434006 -78.776695 17.051325

v -58.860962 -80.003693 16.181772

v -71.647141 -87.500504 15.873529

v -73.586441 -88.152542 16.360355

v -52.287277 -75.148003 16.770317

v -51.655666 -75.898178 16.943756

v -55.076427 -77.132813 16.783566

v -59.535149 -81.616028 16.028519

v -56.144505 -78.595985 16.735220

v -58.293018 -79.956161 16.952145

v -57.378654 -79.624901 16.741096

v -58.458172 -80.738266 16.892204

v -58.582615 -81.403946 16.066349

v -73.991211 -91.426132 15.842133

v -75.880646 -92.704376 16.234694

v -76.085770 -88.960800 17.849670

v -60.216568 -83.700851 15.636044

v -67.699631 -93.760254 15.827445

v -50.116608 -79.457329 16.927826

v -61.682808 -86.184898 15.623518

v -63.388741 -87.422729 15.890533

v -75.373764 -94.668022 15.823154

v -77.305740 -95.923973 16.129520

v -78.965805 -95.280319 17.401184

v -64.839340 -89.808487 15.877016

v -63.285477 -88.822975 15.654194

v -80.920761 -99.202751 17.227634

v -49.580902 -81.850098 17.067108

v -77.052376 -98.339417 15.790737

v -78.425995 -98.183640 16.016666

v -65.963707 -93.310318 15.574398

v -70.901360 -98.096970 15.799279

v -80.185287 -101.001190 16.122475

v -79.395256 -101.662292 15.809099

v -83.165176 -104.994064 16.149406

v -83.552612 -103.002769 17.229172

v -82.102890 -105.455376 15.771552

v -48.748672 -84.457420 17.032776

v -75.996277 -104.925217 15.752528

v -84.794083 -107.542656 16.145912

v -85.802353 -106.554153 17.191406

v -73.213966 -101.786263 15.745199

v -48.023956 -86.510376 16.935455

v -86.515350 -110.270309 16.056885

v -87.889023 -109.350204 17.257988

v -77.642731 -107.963860 15.735878

v -84.524506 -109.882324 15.730676

v -89.221893 -113.329178 16.090927

v -91.267731 -113.249634 17.241791

v -47.418625 -89.401031 17.097534

v -87.636879 -113.458374 15.719639

v -91.448395 -115.968048 16.032242

v -80.543350 -111.594315 15.715586

v -83.716370 -114.838623 15.709221

v -90.822197 -117.149780 15.692629

v -95.417267 -118.297737 16.901999

v -94.851768 -119.235977 15.993286

v -96.245415 -119.933609 16.604200

v -46.603745 -92.831299 16.941666

v -96.758125 -120.999146 16.542217

v -94.838699 -121.268051 15.661922

v -85.817688 -117.473785 15.669209

v -89.407578 -121.159477 15.661215

v -96.204666 -122.706390 15.837648

v -97.341530 -123.035461 16.560822

v -81.575134 -114.654144 15.423271

v -83.557144 -116.473526 15.461708

v -46.192383 -94.655380 16.821625

v -96.013069 -124.372734 15.732927

v -97.348129 -124.507164 16.746956

v -96.680717 -124.783569 15.947517

v -45.894958 -96.121284 16.769287

v -95.577187 -127.820175 16.703693

v -91.214836 -125.531113 15.576647

v -94.577744 -127.997986 15.949413

v -45.332230 -97.580551 16.143936

v -36.859726 -92.838226 15.625472

v -40.805347 -95.473312 15.621987

v -44.101498 -97.820618 15.687139

v -45.051727 -98.746529 16.050407

v -92.507080 -129.240494 15.892487

v -94.635681 -128.371902 16.739634

v -38.521973 -95.526581 15.800740

v -46.125793 -100.018158 16.871178

v -38.079895 -96.439697 15.601448

v -40.693878 -98.715897 15.885930

v -45.130371 -101.045044 16.114803

v -93.549004 -129.339752 16.861908

v -43.554779 -102.397224 15.854870

v -46.283058 -101.825790 16.875130

v -91.623993 -129.993958 15.912323

v -92.427956 -130.030106 16.712036

v -45.049469 -102.916664 16.048355

v -46.387547 -104.283821 16.887516

v -91.312950 -130.885101 16.687248

v -45.179916 -105.678703 15.916397

v -46.858688 -107.558922 16.846886

v -90.281235 -131.879333 17.173859

v -90.618744 -132.034439 16.582542

v -89.767204 -133.964554 16.448622

v -46.957180 -110.395737 16.495728

v -89.340981 -135.635361 16.404877

v -89.389946 -137.031342 16.619980

v -48.010559 -114.332077 16.704041

v -48.603168 -116.959320 18.368254

v -88.296661 -141.409607 16.599930

v -49.130001 -119.892998 16.925171

v -88.408600 -143.593109 16.561554

v -49.612679 -120.730652 18.664860

v -88.311752 -145.481979 16.549255

v -51.659588 -124.805862 18.569681

v -88.251587 -147.160065 16.550232

v -55.713654 -129.482834 17.102966

v -87.302719 -149.618408 16.603210

v -56.884956 -130.664032 17.372253

v -58.352859 -131.813965 16.961945

v -61.537819 -133.896484 16.614101

v -62.240765 -135.031342 16.553787

v -62.946789 -136.565628 16.680008

v -63.258957 -138.498505 17.983591

v -85.595215 -152.833710 16.853241

v -63.820698 -140.615891 16.920181

v -64.187576 -143.100677 16.787552

v -83.324097 -157.205566 16.670471

v -64.485168 -145.267197 16.621872

v -65.112541 -148.600464 17.035378

v -80.472992 -162.193115 16.633240

v -65.878922 -150.085312 16.888405

v -66.972046 -151.918335 18.473129

v -67.817513 -152.908020 18.439514

v -68.489235 -153.832855 18.354580

v -69.512222 -155.057037 18.517944

v -72.059753 -158.846420 16.632935

v -72.973732 -160.939636 16.522480

v -78.540771 -164.314392 16.536255

v -74.081345 -164.130615 16.484854

v -76.515381 -165.545105 16.509354

v -65.859413 -78.390945 18.742203

v -61.282604 -75.807137 18.759697

v -67.690872 -79.676682 18.833141

v -70.199799 -81.353806 18.746523

v -71.412071 -82.375420 18.726641

v -60.101753 -76.028900 18.772148

v -72.068855 -83.554276 18.722883

v -59.219727 -77.601974 18.754547

v -72.720428 -84.636139 18.578581

v -73.375610 -85.692741 18.556078

v -74.559479 -87.003273 18.551090

v -77.089958 -88.875504 18.696526

v -59.283379 -79.765205 18.938286

v -79.017937 -90.476639 18.734936

v -53.114258 -76.285309 17.525097

v -54.248402 -77.430298 17.601294

v -80.325859 -92.012093 18.686615

v -79.922058 -93.158646 17.962189

v -55.556404 -78.489014 17.525309

v -77.360825 -92.258850 17.377190

v -82.116348 -93.887207 18.665491

v -51.390617 -78.520798 17.567513

v -52.729660 -78.510406 17.834591

v -56.642273 -79.878998 17.547562

v -59.378807 -81.301239 18.319397

v -81.765747 -95.394508 17.841690

v -83.804276 -95.266098 18.755592

v -58.359516 -81.463562 17.593765

v -59.053116 -82.764954 17.746571

v -60.325085 -81.319214 19.289734

v -61.013062 -84.114540 19.057915

v -84.489594 -98.053825 17.826664

v -85.261124 -96.841133 18.689186

v -86.917130 -98.567513 18.667892

v -55.824341 -82.405396 17.826923

v -86.956665 -99.993698 17.992157

v -88.928284 -100.289696 18.683174

v -60.203705 -84.987389 18.009842

v -81.318031 -98.061035 17.603336

v -85.687614 -100.131134 17.693604

v -89.473419 -102.575623 17.891090

v -90.906601 -102.272041 18.637821

v -51.619446 -82.448181 17.846357

v -62.600662 -86.261185 19.209702

v -92.311249 -104.280731 18.677952

v -59.313919 -85.653870 17.807243

v -61.939407 -87.418427 18.080013

v -83.532539 -101.306755 17.613827

v -91.302902 -104.852051 17.869507

v -61.262047 -87.933586 17.778723

v -63.528152 -88.270370 19.006554

v -85.914085 -104.665955 17.615961

v -89.833710 -104.318588 17.656660

v -93.871712 -105.748741 18.669073

v -50.069916 -83.729469 17.624138

v -63.273014 -89.854439 18.024557

v -93.637230 -107.650085 17.840900

v -94.607117 -107.072678 18.606216

v -64.999847 -90.559608 19.213348

v -93.215988 -108.441910 17.635777

v -95.636032 -108.746765 18.640566

v -63.082104 -91.534546 17.778831

v -88.465836 -108.094498 17.621161

v -94.714043 -110.637856 17.685194

v -96.129684 -110.151833 18.634478

v -60.462158 -90.322266 17.792315

v -64.422379 -92.326988 18.105152

v -54.223145 -95.980957 17.797874

v -96.219688 -111.569580 18.539268

v -64.540222 -93.982391 17.833744

v -95.161186 -112.377075 17.744289

v -91.497528 -111.942047 17.580711

v -96.424591 -113.503265 18.505222

v -49.813583 -87.540527 17.822308

v -48.465668 -87.841888 17.463715

v -95.304153 -114.699112 17.754416

v -96.329407 -115.099091 18.459091

v -65.483337 -95.398491 18.315720

v -63.581863 -97.400665 17.999054

v -64.510925 -97.940643 18.659241

v -94.400757 -116.386826 17.282135

v -60.221416 -97.989655 17.775782

v -95.428101 -116.773613 17.665253

v -96.210464 -116.099289 18.677309

v -96.165512 -117.330406 18.680658

v -48.266197 -91.948570 17.762741

v -63.334412 -98.801819 18.706329

v -96.036751 -118.773270 18.451056

v -48.566673 -94.313248 17.819216

v -60.288170 -98.917633 18.014313

v -61.182571 -99.595581 18.781128

v -96.845291 -119.674866 18.485481

v -96.844559 -120.747772 18.501263

v -57.103149 -98.226578 18.037849

v -58.778389 -99.780945 18.715332

v -60.425560 -100.196686 18.688755

v -96.788513 -121.884171 18.592255

v -53.984283 -97.587036 18.275986

v -50.234512 -95.926086 18.114243

v -56.102226 -98.915329 18.682846

v -46.870117 -96.036674 17.579224

v -48.184517 -95.989136 18.162399

v -96.598694 -123.452957 18.765320

v -48.887680 -97.183350 19.126892

v -94.892853 -126.978882 18.678406

v -47.147003 -97.401917 18.716705

v -46.558105 -99.494247 18.736773

v -46.786560 -101.639481 18.865601

v -91.564453 -129.665039 18.335693

v -46.683289 -102.951256 18.779541

v -46.750183 -104.997162 18.761566

v -90.107910 -130.952759 18.263184

v -88.868286 -131.669434 18.628540

v -47.324715 -108.214043 18.956512

v -87.858398 -134.030884 17.713501

v -87.702805 -132.747406 18.547791

v -88.928558 -134.136826 17.290985

v -47.537361 -110.032677 18.785461

v -88.524445 -135.866730 17.292549

v -47.361820 -110.930222 18.677738

v -86.369873 -134.086990 18.476288

v -88.021118 -137.402252 17.370331

v -47.989365 -113.300591 18.739052

v -85.570801 -136.416321 17.624092

v -84.835693 -135.046829 18.578735

v -48.259949 -115.658142 18.630463

v -83.559441 -136.282776 18.532135

v -82.687744 -138.694138 17.776337

v -87.012253 -141.639908 17.446781

v -82.191147 -137.458221 18.528015

v -83.565796 -139.623428 17.570318

v -81.428406 -138.958862 18.494904

v -48.909710 -118.558052 18.672649

v -83.345917 -141.594193 17.661194

v -87.095734 -144.484131 17.411652

v -50.420879 -122.349091 18.818710

v -81.503998 -142.682587 19.090240

v -50.705513 -123.366508 18.603737

v -83.937408 -144.332123 17.796082

v -86.847290 -147.753189 17.301270

v -52.267509 -125.958603 18.595327

v -52.995155 -127.128944 18.606659

v -84.657654 -147.800568 17.718155

v -54.050842 -128.334549 18.587599

v -55.171249 -129.526871 18.580704

v -82.285278 -145.394180 19.162811

v -57.681396 -131.473206 18.597260

v -83.278320 -148.253540 18.597168

v -57.561211 -131.961273 18.601711

v -59.803619 -133.288712 18.676544

v -60.723907 -134.061951 18.643881

v -61.382011 -135.148148 18.739765

v -62.055420 -136.158676 18.628687

v -62.259102 -136.953659 18.714531

v -83.430176 -151.484619 17.934387

v -62.430779 -137.867798 18.608219

v -62.841724 -139.422089 18.631264

v -63.100296 -140.590408 18.561985

v -63.478779 -141.690063 18.424469

v -63.317013 -143.138245 18.612864

v -81.990723 -154.565918 17.967285

v -63.795460 -144.707672 18.567024

v -64.075829 -145.730118 18.429705

v -64.311264 -146.510468 18.533964

v -79.966675 -154.918701 19.089600

v -80.326385 -157.033386 17.762817

v -81.274963 -158.146973 17.362427

v -64.585136 -147.402084 18.233894

v -64.905136 -148.783722 18.595802

v -75.548218 -158.077148 18.968506

v -65.474075 -150.034637 18.509958

v -75.945251 -159.235962 17.995239

v -65.900543 -150.991623 18.530483

v -75.857315 -160.597656 17.578468

v -78.656555 -162.459671 17.396988

v -68.980865 -153.887268 18.598404

v -71.010338 -156.398987 18.584305

v -73.623413 -159.291138 17.756775

v -75.413895 -162.952118 17.459574

v -74.195969 -160.736786 17.343994

v -76.598969 -164.066772 17.372223

v -61.774189 -77.214470 19.455980

v -68.238556 -81.011215 19.403757

v -70.250000 -82.779526 19.459332

v -60.889801 -77.976036 19.713032

v -68.733154 -82.614258 19.703571

v -71.554962 -84.577118 19.602037

v -72.693161 -85.595932 19.454132

v -61.655937 -82.241058 19.693689

v -70.247330 -86.594185 19.717064

v -73.855667 -87.119446 19.616135

v -72.034958 -87.589035 20.061493

v -74.751831 -88.294922 20.501465

v -76.405960 -89.211662 20.612823

v -63.330517 -84.962143 19.705130

v -80.269180 -91.918228 20.866882

v -81.721352 -93.309807 21.205231

v -68.156311 -88.928162 19.884037

v -84.391975 -95.348602 22.111923

v -85.843124 -96.439293 22.142532

v -70.849884 -88.603821 20.681213

v -87.318893 -98.487564 20.598572

v -68.726059 -89.757362 20.512207

v -89.364655 -100.187439 20.707169

v -65.149712 -88.444359 19.636162

v -91.043861 -101.844780 20.748682

v -92.588570 -103.388123 22.116905

v -66.532104 -92.157494 19.774902

v -68.290871 -91.263672 20.654755

v -94.439041 -106.816872 20.661957

v -95.368896 -108.722542 20.580322

v -67.337570 -93.538467 20.596191

v -67.202667 -94.996109 20.424072

v -95.769958 -111.042007 20.610901

v -95.991455 -112.783768 20.506104

v -67.050476 -96.672043 20.525208

v -95.920532 -114.689575 20.540222

v -65.817116 -98.506454 20.617645

v -95.591675 -116.460938 20.618652

v -64.263428 -100.197601 22.360352

v -95.038818 -119.017303 20.347656

v -62.404297 -100.701996 21.388306

v -95.605957 -119.709961 19.562988

v -60.883362 -100.846527 21.030914

v -94.847900 -121.961670 19.773682

v -59.163185 -100.365425 20.646484

v -93.616699 -122.629272 20.378601

v -57.334435 -99.877861 20.602486

v -56.338608 -100.132370 20.952072

v -55.057766 -99.378128 20.583633

v -51.662170 -98.619019 19.824585

v -53.170868 -99.717590 21.063324

v -48.111725 -98.175385 19.451599

v -92.550537 -126.969177 19.546265

v -49.225739 -100.132385 20.092545

v -51.293671 -100.989044 21.421425

v -90.379883 -128.196655 20.391174

v -47.616943 -100.184494 19.446991

v -49.452301 -102.117737 21.178192

v -48.023651 -104.201233 20.813110

v -89.063965 -130.207031 20.508301

v -47.913059 -106.801979 20.762163

v -86.402954 -132.482025 22.568726

v -49.496468 -108.923584 21.200882

v -48.522583 -110.747406 19.698059

v -50.995850 -111.630035 21.172668

v -50.768951 -114.025085 20.364792

v -84.413704 -134.100433 24.264999

v -49.279945 -115.455734 19.353745

v -51.331337 -116.849503 20.200127

v -49.639816 -117.884598 19.319633

v -52.475243 -119.848801 20.175186

v -81.755981 -136.783997 21.257324

v -80.706177 -137.913605 20.033813

v -50.599121 -120.394478 19.383423

v -53.460068 -121.965393 20.161957

v -79.712585 -139.406540 19.533615

v -52.334503 -124.092896 19.336182

v -54.405396 -123.269241 20.239372

v -55.682400 -124.213676 20.647209

v -55.183350 -125.645355 19.851196

v -56.870838 -126.147156 20.595894

v -78.282120 -138.273743 20.627167

v -80.297363 -141.774414 19.435331

v -53.277344 -125.570816 19.301788

v -56.974304 -128.164703 19.895081

v -58.178680 -128.219681 20.610435

v -75.028442 -140.115326 19.514177

v -75.473083 -138.603973 20.496445

v -54.889709 -127.840149 19.293365

v -59.181656 -130.511444 20.338409

v -56.135620 -129.360291 19.250916

v -72.974426 -139.622375 20.019470

v -72.933044 -141.014709 19.516340

v -81.193619 -145.744781 19.459387

v -69.078690 -139.046814 20.031494

v -70.485535 -138.521729 20.634888

v -62.027588 -133.898315 20.310059

v -82.158875 -148.013062 19.287735

v -63.464355 -135.295563 20.159241

v -65.971680 -139.882813 19.536163

v -63.960388 -138.462921 19.289909

v -65.834961 -137.078613 20.189819

v -65.307373 -138.620346 19.532211

v -82.082153 -150.686401 19.044617

v -71.245964 -154.366714 19.468288

v -79.551453 -153.386948 19.446348

v -64.207520 -141.235184 19.256584

v -64.714020 -143.865112 19.297131

v -66.039047 -146.462799 19.484585

v -64.992531 -145.728546 19.265392

v -66.877594 -149.430862 19.431194

v -68.811493 -151.018570 19.485592

v -65.342957 -147.449539 19.213375

v -67.716858 -151.271317 19.205338

v -75.050880 -156.728333 19.445080

v -72.533844 -156.480347 19.212402

v -75.736145 -90.074020 22.343903

v -72.782860 -89.417511 22.609619

v -89.105316 -98.432053 22.485580

v -90.205078 -99.710983 22.324570

v -70.213303 -89.688324 22.667847

v -91.625687 -101.409561 22.281137

v -68.919609 -90.397102 24.435799

v -93.648224 -105.983002 22.055115

v -68.589394 -91.541031 24.526112

v -67.877899 -93.562294 22.657532

v -94.201385 -110.316010 22.363983

v -67.800613 -96.163727 22.635651

v -94.274673 -112.488350 22.364166

v -93.884888 -114.015923 22.630371

v -66.528320 -98.727097 22.611053

v -65.008316 -99.378365 22.483551

v -93.391357 -118.444717 22.660156

v -92.890320 -120.960358 22.574402

v -62.859116 -102.994431 23.214264

v -59.038120 -101.850235 21.540787

v -60.198059 -102.971191 22.051025

v -92.358704 -123.387825 22.392212

v -54.638550 -101.211929 21.597168

v -54.905079 -104.818420 21.616873

v -56.203041 -105.537201 21.922226

v -57.679199 -106.456024 23.150879

v -50.443851 -103.050919 21.631968

v -88.915268 -129.473816 22.384155

v -53.957291 -108.611710 21.986160

v -49.108231 -106.117035 21.540903

v -51.910355 -109.936378 21.598055

v -53.257599 -111.786530 22.065376

v -55.074280 -110.135376 23.188828

v -54.219910 -116.247231 22.815765

v -82.842041 -135.266266 24.272369

v -54.271336 -118.623077 22.550011

v -55.097286 -121.609879 22.477123

v -55.163162 -122.741211 22.442696

v -56.314064 -124.530914 22.491463

v -57.315269 -126.122826 22.437378

v -58.163013 -127.500305 22.433674

v -75.583313 -138.195435 24.283150

v -59.419830 -128.295685 22.884605

v -60.119019 -129.863190 22.631744

v -61.761414 -131.952240 22.278198

v -63.519470 -133.521301 22.259521

v -71.260025 -137.667542 22.193359

v -72.701393 -138.270081 21.958191

v -68.393982 -136.585815 22.224121

v -76.222511 -90.707794 24.410810

v -83.706909 -95.163879 24.451889

v -89.697289 -98.724815 24.394371

v -74.126137 -90.056419 24.395641

v -90.830582 -99.688072 24.316540

v -72.766464 -89.944130 24.543800

v -91.815720 -100.990936 24.304615

v -71.122498 -89.625977 24.446976

v -92.537926 -103.235825 24.355621

v -93.190819 -105.461784 24.338249

v -93.815308 -108.697716 24.281158

v -68.942772 -93.876701 24.502769

v -69.179932 -96.846634 23.854401

v -70.717667 -96.134758 25.147305

v -93.726395 -110.283073 24.335220

v -71.378937 -99.156334 25.004438

v -93.833725 -113.024002 24.303459

v -68.051392 -98.006897 23.284454

v -69.779007 -100.350121 23.708454

v -67.195686 -99.453636 23.389530

v -93.336792 -113.717529 23.292236

v -91.742950 -113.264648 23.781738

v -92.397186 -112.492401 24.383667

v -85.567673 -108.167358 24.940918

v -86.281372 -110.038696 23.862854

v -82.799103 -109.277649 23.757294

v -91.107666 -110.991089 24.975616

v -91.757217 -114.848846 23.378059

v -92.915833 -115.612122 23.136292

v -70.769386 -103.278542 23.805740

v -85.765503 -111.243286 23.422806

v -81.663330 -107.678101 24.899475

v -79.912231 -109.360596 23.871765

v -69.586807 -103.552460 23.494925

v -63.692383 -104.085724 23.507320

v -80.996826 -110.388557 23.432617

v -91.756256 -119.743805 23.341356

v -71.004433 -105.823967 23.793762

v -77.824097 -112.884155 23.759247

v -70.477516 -107.993111 23.529367

v -73.013412 -106.473061 25.182804

v -71.268448 -110.232368 23.782074

v -75.619629 -118.298767 23.421764

v -90.562454 -123.607605 23.323990

v -70.015251 -111.857086 23.482595

v -74.827026 -117.152466 23.703857

v -70.496979 -114.871033 23.755608

v -72.790390 -112.897736 25.089630

v -55.989777 -110.587631 23.502630

v -68.769493 -118.207581 23.453054

v -87.035217 -129.525909 23.308670

v -84.338745 -128.066635 23.369522

v -56.053436 -115.449860 23.492170

v -71.689117 -116.527405 24.818741

v -69.619904 -119.453384 23.712219

v -71.792511 -120.789185 24.585419

v -72.738525 -117.331543 24.935913

v -78.027710 -129.319824 23.385969

v -57.093056 -120.917297 23.475929

v -71.559891 -119.003143 24.720825

v -72.827393 -122.383789 23.771790

v -54.892761 -113.320755 23.239826

v -70.485657 -121.164505 24.480011

v -83.351753 -129.566895 23.742859

v -67.607056 -122.926529 23.719742

v -73.367401 -125.346535 23.411640

v -86.127563 -130.587021 23.713745

v -85.395157 -130.762527 24.389406

v -64.884735 -123.598892 23.446739

v -72.177795 -125.373703 23.676636

v -70.337158 -125.544838 24.989441

v -85.535889 -132.307800 24.279999

v -78.516113 -130.456360 23.775085

v -55.267067 -117.913605 23.320189

v -72.849548 -127.935997 23.648682

v -74.791794 -129.150085 23.421581

v -80.046448 -131.900879 24.927399

v -57.768955 -123.892189 23.441401

v -71.272400 -129.059296 25.003754

v -74.518860 -130.790894 23.993225

v -55.997231 -121.259956 23.248833

v -63.261810 -126.338928 23.748428

v -67.883057 -125.061646 24.995178

v -58.768936 -125.545509 23.413452

v -80.662102 -136.354553 24.307205

v -59.804642 -127.117119 23.388763

v -78.705444 -137.411316 24.298248

v -60.756989 -128.621445 23.732971

v -60.822376 -129.858597 24.329178

v -74.271515 -138.067001 24.310913

v -61.259377 -131.007401 24.364639

v -72.596748 -137.648804 24.311981

v -63.563980 -132.365219 24.460388

v -63.759022 -133.141281 24.365570

v -68.762230 -136.126129 24.308807

v -69.597466 -135.961517 24.438324

v -76.164230 -92.014008 25.203201

v -82.620514 -95.782761 25.136375

v -88.689880 -100.076447 25.344854

v -90.631134 -101.577110 25.156494

v -80.673431 -95.899643 25.398724

v -76.061157 -92.956680 25.421284

v -70.782074 -91.214394 25.379564

v -91.789124 -104.682045 25.096283

v -91.162003 -105.652130 25.317125

v -72.209526 -96.841064 25.413090

v -69.944229 -93.757004 25.203854

v -73.523071 -101.774536 25.400059

v -92.427856 -107.846100 25.109314

v -87.393723 -107.513245 25.324081

v -81.851807 -106.097290 25.349693

v -91.334442 -108.881409 25.322603

v -92.353973 -110.448029 25.170441

v -77.707611 -107.144928 25.370901

v -72.515266 -102.557770 25.149702

v -78.596069 -108.473267 25.031128

v -74.467209 -107.917023 25.373472

v -73.108368 -109.746384 25.102924

v -74.348267 -112.089233 25.371300

v -75.121338 -113.197266 25.099152

v -69.628143 -124.458679 25.136192

v -83.750854 -131.740509 25.130295

v -83.599182 -133.120789 25.089172

v -80.339417 -132.686050 25.199083

v -79.650269 -134.812805 25.265495

v -68.974663 -125.788017 25.322289

v -81.157745 -135.073975 24.998779

v -73.916031 -132.148651 25.033207

v -73.390045 -133.583359 25.294201

v -62.803284 -128.882050 25.029877

v -70.644257 -129.966919 25.299410

v -63.257263 -130.363708 25.330879

v -74.472290 -136.394897 25.265976

v -66.119751 -132.057678 25.333574

v -77.396667 -136.823486 25.019348

v -69.664581 -134.676941 25.244690

v -65.158020 -132.542694 25.118591

f 1 2 3
f 4 5 6
f 7 8 9
f 10 9 8
f 10 11 4
f 5 12 6
f 1 13 2
f 7 2 13
f 13 8 7
f 8 11 10
f 11 5 4
f 13 1 14
f 5 15 12
f 15 16 12
f 5 11 17
f 14 18 13
f 18 19 13
f 13 19 8
f 8 19 11
f 15 20 16
f 17 15 5
f 17 11 19
f 20 15 21
f 22 20 21
f 21 15 17
f 21 23 22
f 24 18 25
f 24 19 18
f 25 26 24
f 21 17 27
f 23 21 27
f 27 28 23
f 24 29 19
f 17 19 29
f 24 26 30
f 29 24 30
f 27 31 28
f 30 32 29
f 17 29 32
f 27 17 33
f 31 27 33
f 32 34 17
f 35 36 30
f 32 30 36
f 17 34 37
f 33 17 37
f 38 31 39
f 40 36 35
f 39 31 33
f 34 32 41
f 42 36 40
f 32 36 43
f 43 36 42
f 43 41 32
f 37 39 33
f 44 43 42
f 45 46 39
f 47 43 44
f 41 43 47
f 34 41 48
f 37 45 39
f 47 49 41
f 49 48 41
f 37 34 50
f 49 51 48
f 52 49 47
f 52 51 49
f 48 53 34
f 53 50 34
f 50 45 37
f 54 51 52
f 53 48 51
f 45 50 55
f 55 56 45
f 54 53 51
f 50 53 57
f 53 54 58
f 57 53 58
f 50 57 59
f 55 50 59
f 57 58 60
f 59 57 60
f 59 61 55
f 56 55 61
f 62 63 64
f 64 65 62
f 64 63 66
f 65 67 62
f 68 62 67
f 67 69 68
f 70 68 69
f 70 71 72
f 71 73 72
f 74 75 76
f 64 66 77
f 67 65 78
f 70 69 71
f 79 80 76
f 76 81 79
f 82 79 81
f 77 83 64
f 83 84 64
f 65 64 84
f 84 78 65
f 78 85 67
f 69 67 85
f 85 71 69
f 86 87 71
f 73 71 87
f 75 73 87
f 81 88 82
f 89 82 88
f 88 3 89
f 84 83 90
f 85 86 71
f 76 75 87
f 87 91 76
f 81 76 91
f 10 92 93
f 90 94 84
f 78 84 94
f 85 78 95
f 95 96 85
f 88 81 91
f 97 89 3
f 93 97 9
f 78 94 98
f 85 99 86
f 88 91 14
f 14 3 88
f 97 3 7
f 93 9 10
f 4 6 92
f 100 92 6
f 100 6 101
f 98 102 78
f 95 78 102
f 7 3 2
f 7 9 97
f 4 92 10
f 102 103 95
f 96 95 103
f 85 96 104
f 104 105 85
f 105 99 85
f 14 1 3
f 101 6 106
f 104 96 103
f 103 107 104
f 6 108 106
f 105 104 107
f 107 109 105
f 99 105 110
f 110 111 99
f 111 112 99
f 86 99 113
f 87 86 113
f 109 114 105
f 110 105 114
f 112 115 99
f 108 6 12
f 111 110 114
f 114 116 111
f 115 113 99
f 12 16 108
f 116 117 111
f 112 111 117
f 118 108 119
f 117 120 112
f 115 112 120
f 113 115 121
f 87 113 122
f 119 108 16
f 121 115 120
f 120 123 121
f 113 121 124
f 125 113 124
f 113 125 122
f 122 126 87
f 91 87 126
f 124 121 123
f 123 127 124
f 14 91 128
f 119 16 20
f 118 119 20
f 127 129 124
f 125 124 129
f 122 125 130
f 20 131 118
f 130 125 129
f 130 132 122
f 126 122 133
f 128 25 14
f 132 133 122
f 20 22 131
f 133 132 134
f 14 25 18
f 22 135 131
f 133 134 136
f 126 133 136
f 136 137 126
f 126 138 91
f 139 91 138
f 137 136 140
f 22 141 135
f 137 142 126
f 137 140 143
f 143 142 137
f 141 22 23
f 142 143 144
f 138 126 142
f 142 144 145
f 145 146 142
f 146 147 142
f 138 142 147
f 128 91 148
f 149 141 23
f 91 139 150
f 147 146 151
f 147 152 138
f 139 138 152
f 128 26 25
f 147 151 153
f 152 147 153
f 150 148 91
f 23 154 149
f 152 153 155
f 28 154 23
f 152 155 156
f 139 152 156
f 139 156 157
f 157 158 139
f 150 139 158
f 150 159 148
f 148 160 128
f 26 128 160
f 158 161 150
f 162 148 159
f 154 28 31
f 150 161 163
f 159 150 163
f 31 164 154
f 163 165 159
f 148 162 166
f 160 148 166
f 26 160 167
f 162 159 165
f 165 168 162
f 166 162 168
f 169 167 160
f 30 26 167
f 168 170 166
f 160 166 169
f 167 35 30
f 169 166 170
f 170 171 169
f 31 38 164
f 167 169 171
f 171 172 167
f 35 167 172
f 172 173 35
f 164 38 174
f 35 173 175
f 35 175 40
f 176 174 38
f 175 177 40
f 176 38 39
f 40 177 178
f 178 179 40
f 40 179 42
f 42 179 180
f 164 174 181
f 176 39 46
f 176 182 174
f 181 174 182
f 180 44 42
f 44 180 183
f 176 46 182
f 44 184 47
f 184 185 47
f 182 46 186
f 187 47 185
f 47 187 52
f 187 188 52
f 186 189 182
f 182 190 181
f 191 52 188
f 189 190 182
f 52 191 54
f 46 45 56
f 186 46 56
f 191 192 54
f 58 54 192
f 192 193 58
f 193 194 58
f 56 189 186
f 60 58 194
f 194 195 60
f 61 196 56
f 60 195 197
f 59 60 197
f 59 197 198
f 61 59 198
f 196 199 56
f 56 200 189
f 201 61 198
f 196 61 201
f 200 56 199
f 201 202 196
f 202 199 196
f 203 200 204
f 200 199 204
f 205 206 207
f 207 208 205
f 209 210 206
f 207 206 210
f 208 207 211
f 208 211 212
f 210 213 207
f 211 207 213
f 210 209 214
f 212 211 215
f 214 216 210
f 213 210 216
f 216 217 213
f 211 213 218
f 215 211 218
f 214 219 216
f 217 218 213
f 218 220 215
f 221 215 220
f 216 222 217
f 217 223 218
f 216 219 224
f 224 222 216
f 220 225 221
f 225 226 221
f 227 221 226
f 227 226 228
f 224 229 222
f 223 220 218
f 225 230 226
f 229 224 231
f 217 222 229
f 229 223 217
f 223 225 220
f 230 225 232
f 232 233 230
f 229 231 234
f 234 235 229
f 223 229 235
f 236 233 237
f 232 238 233
f 237 233 238
f 237 239 240
f 234 241 235
f 223 235 241
f 238 239 237
f 239 242 240
f 241 234 243
f 238 232 244
f 242 239 245
f 241 243 246
f 246 247 241
f 223 241 247
f 232 225 248
f 239 249 245
f 247 250 223
f 223 248 225
f 239 238 244
f 249 251 245
f 252 245 251
f 250 253 223
f 246 250 247
f 253 250 254
f 244 249 239
f 251 249 255
f 250 246 256
f 244 257 249
f 255 258 251
f 259 251 258
f 232 248 244
f 249 260 255
f 256 254 250
f 223 253 261
f 261 248 223
f 257 260 249
f 262 258 263
f 254 256 264
f 264 265 254
f 255 266 258
f 263 258 266
f 253 254 265
f 265 264 267
f 268 261 253
f 266 255 260
f 265 267 269
f 269 270 265
f 253 265 270
f 270 268 253
f 263 266 271
f 263 271 272
f 269 273 270
f 273 268 270
f 268 274 261
f 248 261 274
f 275 276 272
f 274 74 248
f 248 74 244
f 257 244 277
f 277 278 257
f 260 257 278
f 260 279 266
f 271 266 279
f 272 271 280
f 275 281 276
f 281 282 276
f 283 284 63
f 63 62 283
f 285 273 269
f 280 275 272
f 286 63 284
f 287 283 62
f 62 68 287
f 285 287 68
f 273 285 68
f 268 273 68
f 68 70 268
f 70 72 268
f 274 268 72
f 72 73 274
f 74 274 73
f 74 80 244
f 277 244 80
f 80 79 277
f 278 277 79
f 278 89 260
f 89 279 260
f 279 288 271
f 288 280 271
f 66 63 286
f 75 74 73
f 80 74 76
f 278 79 82
f 279 93 288
f 275 280 289
f 290 291 281
f 82 89 278
f 93 92 288
f 280 288 92
f 92 289 280
f 281 275 289
f 66 286 77
f 292 77 286
f 89 97 279
f 93 279 97
f 292 83 77
f 293 83 292
f 281 289 100
f 290 281 100
f 90 83 293
f 100 289 92
f 293 94 90
f 294 94 293
f 290 100 101
f 295 290 106
f 98 94 294
f 296 98 294
f 106 290 101
f 102 98 296
f 296 103 102
f 296 107 103
f 107 296 297
f 298 295 106
f 109 107 297
f 299 109 297
f 298 106 108
f 114 109 299
f 116 114 299
f 300 116 299
f 108 118 298
f 118 301 298
f 117 116 300
f 120 117 300
f 300 123 120
f 123 300 302
f 118 303 301
f 302 127 123
f 127 302 304
f 303 118 131
f 131 305 303
f 304 129 127
f 132 130 306
f 131 307 305
f 307 131 135
f 134 132 306
f 306 308 134
f 135 309 307
f 136 134 308
f 308 140 136
f 140 308 310
f 135 311 309
f 310 312 140
f 311 135 141
f 143 140 312
f 144 143 312
f 312 313 144
f 311 141 149
f 149 314 311
f 145 144 313
f 146 145 313
f 151 146 313
f 155 153 151
f 314 149 154
f 314 154 315
f 156 316 157
f 317 315 154
f 316 158 157
f 316 318 158
f 161 158 318
f 318 319 161
f 319 163 161
f 320 163 319
f 164 321 154
f 317 154 321
f 320 165 163
f 322 165 320
f 323 317 321
f 322 168 165
f 168 322 324
f 321 325 323
f 324 170 168
f 170 324 326
f 170 326 327
f 327 171 170
f 327 172 171
f 172 327 328
f 328 329 172
f 321 330 325
f 329 173 172
f 329 331 173
f 329 332 331
f 175 173 331
f 164 330 321
f 330 333 325
f 334 331 332
f 330 164 181
f 177 175 331
f 177 331 334
f 332 335 334
f 334 178 177
f 335 336 334
f 337 333 330
f 334 179 178
f 334 336 179
f 180 179 336
f 338 336 335
f 337 330 339
f 340 338 335
f 339 330 181
f 339 341 337
f 336 183 180
f 183 336 338
f 183 338 44
f 184 338 340
f 338 184 44
f 340 342 184
f 184 342 185
f 343 342 340
f 187 185 342
f 342 188 187
f 190 339 181
f 191 188 342
f 191 342 343
f 344 192 343
f 339 190 345
f 343 192 191
f 193 192 344
f 346 193 344
f 194 193 346
f 339 347 341
f 195 194 346
f 346 197 195
f 198 197 346
f 200 203 189
f 190 189 203
f 203 345 190
f 339 345 348
f 347 339 349
f 201 350 202
f 350 351 202
f 349 339 348
f 199 202 351
f 204 199 351
f 203 204 352
f 352 353 203
f 345 203 353
f 353 348 345
f 354 204 351
f 352 204 354
f 355 356 349
f 357 352 354
f 353 352 357
f 348 355 349
f 357 348 353
f 355 348 358
f 356 355 358
f 357 359 348
f 358 348 359
f 360 361 362
f 363 362 361
f 364 363 361
f 362 365 366
f 360 362 366
f 364 361 367
f 368 364 367
f 367 369 368
f 369 370 368
f 366 365 371
f 360 372 361
f 366 372 360
f 367 361 372
f 369 367 373
f 370 369 374
f 366 371 375
f 372 373 367
f 374 369 376
f 375 377 366
f 372 366 377
f 373 372 378
f 369 379 376
f 373 379 369
f 380 376 379
f 377 375 381
f 381 382 377
f 378 379 373
f 379 383 380
f 384 380 383
f 385 386 206
f 209 206 386
f 206 205 385
f 387 385 205
f 372 377 382
f 388 378 372
f 387 205 208
f 389 387 208
f 382 381 390
f 388 372 382
f 208 391 389
f 382 390 392
f 392 393 382
f 393 388 382
f 384 383 394
f 384 395 396
f 212 391 208
f 392 391 212
f 212 393 392
f 395 384 394
f 393 397 388
f 378 388 397
f 215 393 212
f 397 393 215
f 383 379 398
f 394 383 398
f 214 209 386
f 214 386 399
f 397 400 378
f 379 378 401
f 221 397 215
f 400 397 221
f 401 378 400
f 395 394 402
f 402 403 395
f 404 395 403
f 379 401 405
f 219 214 399
f 400 406 401
f 405 398 379
f 404 403 407
f 399 224 219
f 399 408 224
f 227 400 221
f 406 400 227
f 405 401 406
f 398 402 394
f 403 402 409
f 409 410 403
f 407 403 410
f 228 406 227
f 405 406 228
f 228 411 405
f 398 405 411
f 398 412 402
f 412 409 402
f 407 410 413
f 413 410 409
f 226 411 228
f 409 414 413
f 408 231 224
f 230 411 226
f 413 415 416
f 414 417 413
f 415 413 417
f 408 418 231
f 398 411 236
f 412 398 236
f 233 411 230
f 236 411 233
f 419 417 414
f 415 420 421
f 236 240 412
f 412 422 409
f 409 419 414
f 234 231 418
f 234 418 423
f 240 422 412
f 420 415 417
f 421 420 424
f 421 424 425
f 237 240 236
f 409 422 419
f 240 242 422
f 426 417 419
f 420 417 427
f 424 420 427
f 423 243 234
f 426 427 417
f 428 429 424
f 243 423 430
f 419 422 242
f 427 431 424
f 428 424 431
f 432 429 428
f 430 246 243
f 245 252 242
f 419 242 252
f 426 419 252
f 426 433 427
f 431 432 428
f 431 427 434
f 431 435 432
f 436 437 438
f 430 256 246
f 430 439 256
f 426 252 251
f 251 259 426
f 433 426 259
f 433 434 427
f 437 432 435
f 437 440 438
f 259 262 433
f 437 435 441
f 258 262 259
f 431 434 442
f 435 431 443
f 440 437 441
f 441 444 440
f 445 440 444
f 262 446 433
f 446 434 433
f 441 435 443
f 446 447 434
f 442 434 447
f 443 431 442
f 264 256 439
f 439 448 264
f 263 446 262
f 445 444 449
f 449 450 445
f 441 449 444
f 449 451 450
f 446 263 272
f 447 446 272
f 442 447 276
f 276 443 442
f 267 264 448
f 448 452 267
f 272 276 447
f 441 443 449
f 451 453 450
f 269 267 452
f 443 276 282
f 443 454 449
f 449 455 451
f 453 451 455
f 452 456 269
f 282 454 443
f 457 284 283
f 283 458 457
f 283 287 458
f 269 456 285
f 454 282 291
f 284 457 286
f 458 287 285
f 285 459 458
f 459 285 456
f 459 456 460
f 291 282 281
f 449 454 461
f 455 449 461
f 453 455 462
f 457 463 292
f 463 457 458
f 464 460 456
f 286 457 292
f 463 458 459
f 291 461 454
f 293 292 463
f 463 465 293
f 463 466 465
f 466 463 459
f 467 460 464
f 461 468 455
f 462 455 468
f 459 469 466
f 469 459 460
f 469 460 467
f 467 464 470
f 290 295 291
f 461 291 295
f 465 294 293
f 294 465 466
f 471 461 295
f 471 472 461
f 468 461 472
f 473 467 470
f 294 297 296
f 297 294 466
f 473 469 467
f 474 473 470
f 472 471 475
f 297 466 469
f 471 295 298
f 475 471 298
f 469 299 297
f 299 469 473
f 476 473 474
f 299 473 476
f 477 476 474
f 475 298 478
f 476 300 299
f 478 298 479
f 298 301 479
f 301 480 479
f 476 302 300
f 302 476 477
f 304 302 477
f 481 304 477
f 301 303 480
f 303 482 480
f 482 303 305
f 481 129 304
f 305 483 482
f 481 130 129
f 306 130 481
f 483 305 307
f 306 481 484
f 484 308 306
f 309 483 307
f 310 308 484
f 312 310 484
f 484 485 312
f 486 309 311
f 313 312 485
f 311 314 486
f 485 487 313
f 151 313 487
f 314 488 486
f 155 151 487
f 314 315 488
f 156 155 487
f 156 487 489
f 315 490 488
f 156 489 316
f 490 315 317
f 316 491 318
f 319 318 491
f 317 492 490
f 317 323 492
f 322 493 324
f 323 494 492
f 326 324 493
f 493 495 326
f 494 323 325
f 327 326 495
f 495 496 327
f 328 327 496
f 496 497 328
f 329 328 497
f 497 498 329
f 332 329 498
f 498 499 332
f 494 325 333
f 499 500 332
f 335 332 500
f 333 501 494
f 500 502 335
f 501 333 337
f 340 335 502
f 341 501 337
f 502 503 340
f 501 341 504
f 343 340 503
f 503 505 343
f 344 343 505
f 505 506 344
f 507 504 341
f 346 344 506
f 506 508 346
f 341 347 507
f 508 509 346
f 509 510 346
f 198 346 510
f 510 511 198
f 511 512 198
f 201 198 512
f 512 350 201
f 350 513 351
f 354 351 513
f 513 514 354
f 515 507 347
f 347 349 515
f 356 515 349
f 357 354 514
f 514 516 357
f 517 515 356
f 358 517 356
f 357 516 359
f 358 359 516
f 516 517 358
f 362 518 519
f 518 362 363
f 518 363 364
f 364 520 518
f 365 362 519
f 364 521 520
f 521 364 368
f 368 370 521
f 370 522 521
f 371 365 523
f 365 519 523
f 370 374 522
f 524 522 374
f 371 525 375
f 525 371 523
f 376 524 374
f 526 524 376
f 376 380 526
f 527 526 380
f 380 528 527
f 384 528 380
f 384 396 528
f 396 529 528
f 381 375 525
f 530 381 525
f 531 529 396
f 385 532 386
f 532 385 387
f 387 533 532
f 534 531 535
f 387 536 533
f 536 387 389
f 390 381 530
f 396 537 531
f 535 531 537
f 538 534 535
f 532 539 386
f 540 532 533
f 389 541 536
f 541 389 391
f 392 390 530
f 392 530 542
f 537 396 395
f 535 543 538
f 543 544 538
f 539 532 540
f 541 391 392
f 392 545 541
f 545 392 542
f 537 404 535
f 540 533 536
f 540 536 541
f 542 546 545
f 546 542 547
f 546 547 548
f 543 535 404
f 544 543 549
f 550 544 549
f 551 550 549
f 399 386 539
f 552 540 541
f 552 541 545
f 404 537 395
f 551 549 553
f 554 551 553
f 552 545 546
f 546 548 555
f 404 556 543
f 549 543 556
f 553 549 557
f 553 558 554
f 559 554 558
f 540 560 539
f 561 555 548
f 557 549 556
f 557 558 553
f 558 562 559
f 540 552 560
f 563 546 555
f 564 555 561
f 556 404 407
f 556 565 557
f 558 566 562
f 546 563 552
f 555 567 563
f 567 555 564
f 568 564 561
f 565 569 557
f 558 557 570
f 570 566 558
f 571 562 566
f 408 399 539
f 539 572 408
f 572 539 560
f 573 564 568
f 407 565 556
f 557 569 570
f 566 574 571
f 575 571 574
f 560 552 563
f 567 564 573
f 576 573 568
f 570 577 566
f 574 566 577
f 574 578 575
f 407 416 565
f 573 579 567
f 416 407 413
f 569 565 416
f 570 580 577
f 577 581 574
f 578 574 581
f 582 578 581
f 567 583 563
f 573 584 579
f 584 573 576
f 570 569 580
f 572 418 408
f 585 563 583
f 583 567 579
f 586 582 581
f 585 560 563
f 584 587 579
f 569 416 415
f 415 421 569
f 586 581 588
f 579 585 583
f 580 569 421
f 580 589 577
f 581 577 589
f 588 590 586
f 423 418 572
f 560 591 572
f 591 560 585
f 421 425 580
f 572 592 423
f 425 589 580
f 588 593 590
f 588 581 589
f 589 593 588
f 593 594 590
f 592 572 591
f 595 596 587
f 589 425 429
f 596 595 597
f 429 425 424
f 593 589 429
f 594 593 598
f 599 579 587
f 599 587 596
f 598 600 594
f 601 594 600
f 600 602 601
f 430 423 592
f 591 585 603
f 593 429 598
f 591 603 592
f 604 596 597
f 598 429 432
f 600 436 602
f 436 605 602
f 606 603 585
f 607 596 604
f 598 432 437
f 600 598 437
f 436 600 437
f 430 592 603
f 607 599 596
f 585 579 599
f 604 608 607
f 436 438 605
f 438 609 605
f 610 609 438
f 438 440 610
f 439 430 603
f 599 611 585
f 599 607 611
f 612 607 608
f 608 613 612
f 614 610 440
f 440 445 614
f 585 611 615
f 607 612 611
f 585 616 606
f 615 616 585
f 611 617 615
f 617 611 612
f 439 603 448
f 603 618 448
f 618 603 606
f 606 616 619
f 445 620 614
f 620 445 450
f 606 619 618
f 619 616 621
f 450 622 620
f 452 448 618
f 618 619 621
f 450 453 622
f 618 621 623
f 452 618 623
f 456 452 623
f 456 623 624
f 462 622 453
f 464 456 624
f 468 622 462
f 470 464 624
f 624 625 470
f 468 626 622
f 625 627 470
f 468 472 626
f 474 470 627
f 627 628 474
f 475 626 472
f 629 626 475
f 477 474 628
f 478 629 475
f 629 478 630
f 628 631 477
f 479 480 478
f 630 632 633
f 632 630 478
f 478 634 632
f 634 478 480
f 481 477 631
f 631 635 481
f 636 634 480
f 480 482 636
f 635 637 481
f 633 632 638
f 634 636 632
f 482 483 636
f 639 636 483
f 637 640 481
f 632 641 638
f 641 632 636
f 636 639 641
f 484 481 640
f 638 641 642
f 640 643 484
f 644 642 641
f 639 483 309
f 645 644 641
f 639 646 641
f 484 643 485
f 647 644 645
f 648 645 641
f 309 646 639
f 309 486 646
f 649 647 645
f 648 641 646
f 487 485 650
f 488 646 486
f 650 489 487
f 645 651 649
f 651 645 648
f 652 646 488
f 651 648 646
f 490 652 488
f 316 489 653
f 649 651 654
f 651 646 652
f 316 653 655
f 651 656 654
f 316 655 491
f 656 651 652
f 657 652 490
f 491 658 319
f 490 492 657
f 319 658 659
f 320 319 659
f 652 660 656
f 320 659 661
f 661 322 320
f 660 652 657
f 661 662 322
f 493 322 662
f 660 663 656
f 657 492 494
f 662 664 493
f 495 493 664
f 496 495 664
f 663 660 665
f 496 664 666
f 666 667 496
f 497 496 667
f 667 668 497
f 668 669 497
f 498 497 669
f 669 670 498
f 498 670 499
f 501 657 494
f 670 671 499
f 665 660 672
f 657 672 660
f 671 673 499
f 499 673 500
f 657 501 672
f 500 674 502
f 502 674 675
f 675 676 502
f 502 676 503
f 503 676 677
f 678 672 501
f 677 679 503
f 503 679 505
f 504 678 501
f 679 680 505
f 680 681 505
f 682 678 683
f 678 684 683
f 684 678 504
f 685 505 681
f 685 506 505
f 686 506 685
f 506 686 508
f 687 682 683
f 508 686 688
f 689 687 683
f 507 684 504
f 508 688 690
f 690 509 508
f 683 691 689
f 683 692 691
f 692 683 684
f 507 692 684
f 693 512 511
f 512 694 350
f 513 350 694
f 695 513 694
f 695 689 691
f 691 692 696
f 697 695 691
f 513 695 514
f 514 695 697
f 691 696 697
f 692 698 696
f 692 515 698
f 692 507 515
f 514 697 516
f 516 697 696
f 517 698 515
f 516 696 698
f 698 517 516
f 699 519 518
f 518 700 699
f 700 518 520
f 700 520 521
f 521 701 700
f 701 521 522
f 519 702 523
f 519 699 702
f 700 701 703
f 522 524 701
f 702 699 700
f 700 703 702
f 524 704 701
f 704 524 526
f 525 523 702
f 701 704 703
f 526 705 704
f 705 526 527
f 702 530 525
f 706 702 703
f 704 705 707
f 527 708 705
f 708 527 528
f 709 705 708
f 528 710 708
f 710 528 529
f 529 711 710
f 702 547 530
f 702 706 547
f 712 703 704
f 707 705 709
f 708 710 709
f 711 529 531
f 531 713 711
f 531 534 713
f 712 706 703
f 712 704 707
f 534 714 713
f 714 534 538
f 530 547 542
f 538 544 714
f 707 709 715
f 716 544 550
f 550 717 716
f 709 718 715
f 717 550 551
f 551 719 717
f 547 706 548
f 548 706 712
f 718 720 715
f 719 551 554
f 554 721 719
f 707 722 712
f 721 554 559
f 559 723 721
f 712 561 548
f 559 724 723
f 712 722 561
f 722 707 715
f 724 559 562
f 568 561 722
f 720 725 715
f 726 725 720
f 575 727 571
f 576 568 722
f 576 722 715
f 576 715 725
f 575 728 727
f 575 578 728
f 726 729 725
f 578 582 728
f 576 725 584
f 729 730 725
f 582 731 728
f 582 586 731
f 725 587 584
f 587 725 730
f 730 595 587
f 586 732 731
f 586 590 732
f 595 730 733
f 590 734 732
f 595 733 597
f 734 590 594
f 734 594 601
f 733 735 597
f 734 601 736
f 601 602 736
f 604 597 735
f 737 604 735
f 736 602 738
f 738 602 605
f 737 739 608
f 608 604 737
f 740 738 605
f 740 605 609
f 740 609 610
f 608 741 613
f 741 608 739
f 610 614 740
f 740 742 738
f 740 614 742
f 743 612 613
f 741 743 613
f 744 738 742
f 614 620 742
f 745 617 612
f 743 745 612
f 617 746 747
f 617 745 746
f 615 748 616
f 615 749 748
f 749 615 747
f 615 617 747
f 621 616 748
f 620 622 742
f 750 621 748
f 742 751 744
f 751 742 622
f 621 750 623
f 748 752 750
f 752 748 753
f 754 744 751
f 624 623 750
f 755 750 752
f 624 750 755
f 752 756 755
f 624 755 625
f 625 755 756
f 622 626 751
f 757 625 756
f 627 625 757
f 751 626 754
f 629 754 626
f 627 757 628
f 758 754 629
f 757 759 628
f 630 758 629
f 628 759 631
f 633 760 630
f 759 635 631
f 761 635 759
f 761 762 635
f 763 762 761
f 633 638 760
f 637 635 762
f 764 762 763
f 762 640 637
f 640 762 764
f 642 765 638
f 764 766 640
f 642 644 765
f 766 643 640
f 766 764 767
f 767 768 766
f 766 485 643
f 766 768 485
f 767 769 768
f 770 644 647
f 485 768 650
f 647 771 770
f 769 772 768
f 768 772 650
f 771 647 649
f 489 650 772
f 772 769 773
f 653 772 773
f 774 771 649
f 489 772 653
f 773 775 653
f 775 773 776
f 777 778 776
f 779 778 777
f 771 774 780
f 649 781 774
f 655 653 775
f 776 782 775
f 776 778 782
f 654 781 649
f 783 778 779
f 779 784 783
f 785 786 780
f 785 780 774
f 491 655 775
f 491 775 782
f 778 787 782
f 782 658 491
f 787 778 783
f 784 788 783
f 782 659 658
f 659 782 787
f 783 789 787
f 790 786 785
f 785 791 790
f 663 654 656
f 787 661 659
f 789 783 788
f 785 774 781
f 654 792 781
f 792 654 663
f 787 662 661
f 662 787 789
f 789 664 662
f 664 789 788
f 664 788 667
f 793 794 790
f 666 664 667
f 668 667 795
f 791 793 790
f 785 781 792
f 665 796 663
f 669 668 795
f 669 795 797
f 798 793 791
f 792 663 796
f 670 669 797
f 797 671 670
f 797 799 671
f 799 797 800
f 800 801 799
f 801 800 793
f 673 671 799
f 793 798 801
f 665 802 796
f 665 672 802
f 799 500 673
f 799 674 500
f 803 785 792
f 804 792 796
f 791 785 803
f 805 799 801
f 801 798 805
f 803 792 804
f 804 796 802
f 675 674 799
f 675 799 805
f 805 676 675
f 798 806 805
f 805 677 676
f 677 805 806
f 672 678 802
f 798 807 806
f 807 798 791
f 802 682 804
f 682 802 678
f 806 679 677
f 807 808 806
f 806 808 679
f 680 679 808
f 809 807 791
f 791 803 810
f 808 681 680
f 681 808 807
f 807 811 681
f 791 810 809
f 685 681 811
f 811 807 809
f 686 685 811
f 686 811 809
f 809 688 686
f 810 812 809
f 813 804 682
f 809 812 688
f 812 810 803
f 804 813 803
f 682 687 813
f 690 688 812
f 812 509 690
f 510 509 812
f 812 693 510
f 693 812 803
f 814 803 813
f 510 693 511
f 813 687 814
f 512 693 803
f 803 694 512
f 694 803 814
f 814 695 694
f 695 814 687
f 695 687 689
f 815 710 711
f 711 713 815
f 716 714 544
f 816 718 709
f 816 709 710
f 816 710 815
f 719 817 717
f 719 721 817
f 818 817 721
f 718 819 720
f 718 816 819
f 820 818 721
f 721 723 820
f 820 723 724
f 819 821 720
f 562 571 724
f 571 822 724
f 726 720 821
f 821 823 726
f 727 822 571
f 823 824 726
f 728 822 727
f 729 726 824
f 822 728 825
f 825 728 731
f 730 729 824
f 824 826 730
f 731 732 825
f 827 825 732
f 733 730 826
f 827 732 828
f 828 732 734
f 735 733 826
f 826 829 735
f 734 736 828
f 829 830 735
f 736 831 828
f 830 737 735
f 831 736 738
f 831 738 832
f 737 833 739
f 738 744 832
f 834 745 743
f 834 743 741
f 835 741 739
f 835 739 833
f 745 834 746
f 834 741 835
f 832 744 836
f 747 746 749
f 837 746 834
f 746 837 749
f 838 837 834
f 839 834 835
f 753 749 837
f 834 839 838
f 835 840 839
f 753 748 749
f 837 841 753
f 837 838 841
f 836 744 754
f 753 756 752
f 753 841 756
f 754 842 836
f 839 843 838
f 841 844 756
f 757 756 844
f 843 839 840
f 844 841 838
f 842 754 758
f 759 757 844
f 838 845 844
f 845 838 843
f 761 844 845
f 846 843 847
f 758 760 842
f 844 761 759
f 843 846 845
f 760 758 630
f 763 761 845
f 763 845 846
f 764 763 846
f 764 846 848
f 765 760 638
f 848 767 764
f 765 644 849
f 848 850 767
f 770 849 644
f 767 850 769
f 850 773 769
f 851 773 850
f 773 851 776
f 776 851 852
f 777 776 852
f 852 853 777
f 780 770 771
f 779 777 853
f 853 854 779
f 854 855 779
f 786 856 780
f 784 779 855
f 855 857 784
f 857 788 784
f 788 857 858
f 788 858 859
f 795 859 860
f 794 861 862
f 862 790 794
f 862 786 790
f 788 859 667
f 859 795 667
f 860 863 797
f 863 861 794
f 795 860 797
f 863 800 797
f 863 793 800
f 793 863 794
f 864 815 713
f 713 865 864
f 865 713 714
f 865 714 716
f 865 716 717
f 717 866 865
f 866 717 817
f 816 815 867
f 815 864 867
f 817 818 866
f 818 868 866
f 867 869 816
f 868 818 820
f 820 870 868
f 871 819 816
f 869 871 816
f 870 820 724
f 724 872 870
f 821 819 871
f 724 873 872
f 873 724 822
f 822 874 873
f 824 823 875
f 874 822 825
f 876 826 875
f 877 876 875
f 825 878 874
f 824 875 826
f 879 876 877
f 825 880 878
f 880 825 827
f 876 881 826
f 876 882 881
f 879 882 876
f 880 827 828
f 829 826 881
f 881 882 883
f 884 885 886
f 886 880 884
f 880 828 884
f 887 888 889
f 890 885 888
f 891 885 884
f 828 892 884
f 881 883 829
f 893 882 879
f 888 894 889
f 894 888 885
f 829 883 830
f 895 889 896
f 885 891 894
f 891 884 892
f 882 897 883
f 897 882 893
f 883 897 898
f 889 899 896
f 889 894 899
f 828 831 892
f 830 883 737
f 900 891 892
f 900 892 831
f 893 901 897
f 883 833 737
f 833 883 898
f 894 891 899
f 902 896 899
f 897 901 903
f 904 903 901
f 904 905 903
f 900 906 891
f 900 831 832
f 898 897 903
f 840 835 833
f 899 906 902
f 907 900 832
f 903 908 898
f 908 903 905
f 906 899 891
f 907 832 836
f 909 902 906
f 833 898 840
f 905 910 908
f 910 905 911
f 912 840 898
f 908 913 898
f 913 908 910
f 907 906 900
f 907 842 914
f 842 907 836
f 847 840 912
f 907 915 906
f 907 914 915
f 843 840 847
f 898 916 912
f 917 918 910
f 913 910 918
f 909 919 920
f 906 915 921
f 922 898 913
f 917 923 918
f 924 909 906
f 912 925 847
f 918 923 926
f 909 924 919
f 915 914 927
f 842 760 914
f 846 847 925
f 918 928 913
f 906 929 924
f 914 930 927
f 930 914 760
f 925 912 916
f 906 921 929
f 927 930 931
f 913 932 922
f 928 918 926
f 933 924 929
f 930 760 931
f 932 913 928
f 934 924 933
f 931 760 935
f 848 846 925
f 915 927 921
f 927 936 921
f 925 937 848
f 937 925 916
f 929 938 933
f 939 929 921
f 927 940 936
f 760 765 935
f 898 922 916
f 938 929 939
f 933 938 934
f 916 922 937
f 932 941 922
f 934 938 942
f 943 939 921
f 943 921 936
f 939 943 938
f 940 943 936
f 850 848 937
f 922 944 937
f 945 932 928
f 938 943 942
f 937 944 850
f 945 928 946
f 850 944 851
f 947 941 932
f 948 849 770
f 922 941 944
f 852 851 944
f 944 941 852
f 932 949 947
f 770 950 948
f 949 932 945
f 853 852 941
f 945 951 949
f 950 770 780
f 853 941 947
f 853 947 854
f 854 947 949
f 949 951 857
f 855 854 949
f 855 949 857
f 950 780 856
f 857 951 858
f 858 951 952
f 786 953 856
f 952 954 858
f 862 955 953
f 786 862 953
f 859 858 954
f 954 956 859
f 860 859 956
f 956 957 860
f 863 958 959
f 861 863 959
f 959 955 861
f 955 862 861
f 863 860 957
f 957 958 863
f 864 865 960
f 865 961 960
f 866 962 865
f 866 868 962
f 864 960 867
f 962 961 865
f 868 963 962
f 963 868 870
f 960 869 867
f 960 964 965
f 964 961 962
f 871 966 821
f 966 871 869
f 964 960 961
f 870 872 963
f 966 869 960
f 960 965 966
f 967 963 872
f 966 823 821
f 963 968 962
f 968 963 967
f 873 967 872
f 969 966 965
f 966 970 823
f 970 966 969
f 964 971 965
f 873 972 967
f 874 972 873
f 875 823 970
f 971 969 965
f 968 967 972
f 969 877 970
f 962 973 974
f 973 962 968
f 970 877 875
f 964 962 974
f 973 968 975
f 975 968 972
f 874 976 972
f 976 975 972
f 976 874 878
f 879 877 969
f 975 890 973
f 890 975 976
f 880 976 878
f 969 971 879
f 977 971 964
f 887 974 973
f 973 890 887
f 976 886 890
f 886 976 880
f 964 974 977
f 971 978 879
f 895 974 887
f 890 888 887
f 886 885 890
f 893 879 978
f 887 889 895
f 974 979 977
f 979 974 895
f 971 904 978
f 980 971 977
f 895 896 979
f 904 971 980
f 901 893 978
f 901 978 904
f 981 904 980
f 982 977 979
f 977 982 980
f 979 896 902
f 905 904 981
f 980 982 981
f 983 982 979
f 982 911 981
f 983 979 902
f 905 981 911
f 983 902 909
f 982 920 911
f 920 982 983
f 909 920 983
f 911 917 910
f 917 911 920
f 920 923 917
f 920 919 923
f 926 923 919
f 919 984 926
f 984 919 924
f 926 946 928
f 946 926 984
f 924 934 984
f 985 927 931
f 931 935 985
f 940 927 985
f 986 985 935
f 765 986 935
f 987 940 985
f 985 986 988
f 934 989 984
f 985 988 987
f 849 986 765
f 989 946 984
f 986 990 988
f 990 986 849
f 934 942 989
f 991 943 940
f 992 940 987
f 987 988 992
f 946 993 945
f 946 989 993
f 994 989 942
f 942 991 994
f 991 942 943
f 948 990 849
f 995 989 994
f 992 991 940
f 994 991 992
f 992 988 996
f 989 995 993
f 995 994 997
f 990 998 988
f 990 950 998
f 950 990 948
f 997 994 992
f 988 998 996
f 945 993 951
f 992 996 999
f 992 999 997
f 998 856 996
f 998 950 856
f 952 951 993
f 993 995 952
f 997 1000 995
f 997 999 1000
f 996 955 999
f 996 953 955
f 953 996 856
f 999 955 959
f 954 952 995
f 995 956 954
f 956 995 1000
f 1000 957 956
f 999 957 1000
f 999 958 957
f 999 959 958
