v -73.923340 -0.808418 -104.099030

v -71.804665 0.006134 -104.151070

v -72.482452 -1.771759 -104.661385

v -71.378784 -2.885498 -104.293243

v -73.521729 -3.138062 -104.092590

v -71.550308 -3.980469 -104.008820

v -70.631134 -6.828583 -104.113251

v -70.570778 -4.466858 -104.045044

v -69.410690 -6.291968 -104.430420

v -67.622185 -5.724693 -104.088074

v -68.575745 -7.764008 -104.070854

v -67.539825 27.827515 -102.215363

v -68.465614 27.628296 -102.060265

v -67.804581 29.409233 -102.143341

v -67.806458 24.591187 -102.887390

v -68.789673 24.674805 -102.241821

v -63.786743 27.070465 -101.334930

v -65.387756 25.540649 -102.761536

v -66.449173 24.971313 -103.018723

v -69.433014 21.517517 -102.618439

v -63.057739 21.717255 -102.679016

v -67.944519 21.617432 -103.016685

v -61.680664 24.522736 -100.801270

v -69.845764 19.005737 -103.017036

v -71.181885 19.733002 -102.148438

v -63.537903 18.940155 -103.028473

v -72.185303 17.334106 -101.773682

v -71.575256 16.461304 -102.620850

v -69.967712 16.547546 -103.054672

v -75.682709 14.297058 -102.278625

v -74.276054 13.262817 -103.066704

v -75.521301 11.189011 -103.062675

v -76.826538 11.714783 -102.116089

v -62.510803 18.827454 -102.631577

v -61.745117 21.873535 -101.988007

v -64.956238 14.344849 -103.045563

v -77.431885 9.170288 -102.455383

v -66.720276 6.959869 -103.076202

v -62.776794 16.261848 -102.629959

v -61.934635 16.893814 -102.092758

v -76.616394 7.340515 -103.112503

v -65.865662 10.540161 -103.062027

v -78.270752 7.806473 -102.099182

v -78.276672 6.659683 -102.112305

v -63.412231 13.592899 -102.403419

v -76.948059 4.552238 -102.722504

v -64.670532 11.847214 -102.805939

v -75.706390 3.404358 -103.104790

v -63.703442 11.419355 -102.096832

v -64.433426 9.255114 -102.257256

v -77.529053 1.702370 -102.505798

v -69.475220 3.222473 -103.090836

v -75.470825 1.025024 -103.154755

v -78.084900 -0.630112 -103.068558

v -79.872314 -0.634705 -102.286438

v -65.564659 5.348633 -102.070938

v -79.888123 -4.063379 -103.130951

v -81.018188 -2.985748 -102.276215

v -66.905006 4.448719 -102.437912

v -70.314789 0.128113 -103.336975

v -72.632416 0.770752 -103.560608

v -74.650513 -0.603455 -103.513672

v -67.575241 2.682358 -102.392540

v -75.957397 -3.240288 -103.158386

v -68.426697 1.547089 -102.874115

v -81.669754 -4.231617 -101.852570

v -74.369873 -3.223145 -103.478943

v -80.883667 -5.980453 -102.449158

v -67.287766 -0.080059 -102.380844

v -69.880493 -2.922485 -103.425293

v -67.141113 -3.063110 -102.893616

v -78.298401 -8.886963 -103.164711

v -80.412231 -9.084534 -101.722717

v -72.424988 -6.045471 -103.230392

v -79.082275 -10.229980 -102.653931

v -65.751793 -3.995431 -102.195229

v -71.297363 -7.111267 -103.531555

v -66.834351 -5.189240 -103.153625

v -71.588783 -9.290649 -103.166992

v -76.077972 -13.732483 -103.165062

v -79.555130 -11.117355 -102.253693

v -78.375000 -12.237732 -102.317505

v -65.683456 -6.050110 -102.522690

v -67.539978 -7.121902 -103.675308

v -68.955933 -8.438965 -103.531738

v -66.457764 -9.455200 -102.842529

v -67.770325 -9.948059 -103.144341

v -78.128906 -15.605652 -102.497070

v -79.208740 -13.286072 -100.936035

v -64.956894 -7.514336 -102.089256

v -65.527458 -9.795763 -102.176666

v -77.549316 -17.068451 -103.104797

v -79.064697 -16.871063 -102.215820

v -67.548553 -12.073410 -102.994530

v -66.274872 -11.929705 -102.156288

v -77.640259 -19.913818 -102.781006

v -68.225342 -15.303264 -103.114288

v -75.933716 -20.250000 -103.205933

v -66.763016 -13.927928 -102.176041

v -66.802704 -15.854206 -102.228561

v -76.338715 -23.304260 -103.165283

v -77.799683 -22.086426 -102.583740

v -67.393448 -18.215443 -102.583740

v -68.390137 -19.643383 -103.126862

v -77.797852 -23.877350 -102.339111

v -70.122978 -25.827454 -103.181717

v -75.938721 -25.288940 -102.460205

v -66.934708 -20.287069 -102.187408

v -68.203003 -22.335552 -103.092705

v -71.408234 -27.099854 -102.560791

v -66.709488 -22.728374 -102.075592

v -67.372559 -24.612984 -102.179077

v -68.430420 -24.225922 -102.932617

v -67.973984 -25.913727 -101.969002

v -69.064430 -27.164246 -102.274841

v -69.592468 -28.017401 -102.259209

v -66.775085 29.514282 -101.138245

v -68.804077 29.790619 -100.362915

v -67.552727 30.661560 -100.136353

v -64.941650 30.305725 -100.662292

v -69.371582 28.091431 -100.416504

v -60.512085 30.693970 -100.332703

v -61.199951 29.674194 -100.869415

v -70.177979 24.602295 -100.131348

v -58.924408 31.067596 -100.010101

v -59.058960 30.032639 -100.096848

v -61.726501 27.212753 -100.784851

v -71.799316 21.996552 -99.662109

v -59.409851 27.119781 -99.364319

v -72.610352 20.452637 -99.683594

v -60.444824 25.541718 -99.675415

v -73.204102 18.533447 -100.246094

v -74.767029 17.009277 -100.125488

v -60.478516 22.666016 -100.732422

v -76.579834 14.337952 -100.693359

v -78.146057 11.334045 -100.315796

v -59.402649 21.694649 -99.918701

v -59.067154 18.950272 -98.437553

v -78.765030 9.825073 -98.747986

v -79.434204 7.530945 -99.823303

v -59.724884 17.161409 -98.436241

v -60.911041 15.502617 -99.253159

v -78.451660 3.462280 -100.846680

v -62.967529 11.961357 -100.152786

v -79.011597 2.473816 -100.225586

v -80.613556 0.111328 -100.363525

v -64.207809 8.755356 -99.274231

v -81.948029 -2.607819 -100.201660

v -65.203552 5.346565 -100.272484

v -66.421120 3.546504 -99.930176

v -81.795288 -6.681793 -100.473755

v -66.428101 0.824586 -100.351486

v -65.487419 -1.799563 -100.218742

v -80.182312 -11.200745 -100.828857

v -65.271423 -3.218713 -100.294930

v -65.323990 -5.993896 -99.716339

v -79.781738 -15.075752 -100.425049

v -65.173645 -7.916634 -100.288834

v -80.615845 -18.107788 -100.314453

v -65.737335 -10.141991 -100.210938

v -80.360352 -20.377075 -100.350342

v -66.072716 -12.500631 -100.268387

v -66.151878 -14.459993 -100.391273

v -79.080566 -23.611694 -100.648438

v -66.165726 -16.970058 -99.782593

v -77.262024 -26.648193 -100.349121

v -65.741043 -20.551132 -99.099854

v -72.152283 -28.488770 -100.471191

v -66.272194 -23.957905 -97.391022

v -70.477409 -28.475845 -100.438828

v -68.887619 -27.447426 -99.883057

v -67.516479 31.859863 -97.935791

v -64.117920 33.269531 -97.862305

v -70.271240 31.078499 -96.321777

v -70.875488 29.999023 -96.754639

v -70.950195 27.521484 -98.333008

v -61.210129 32.843262 -98.126221

v -72.378906 25.221436 -98.271484

v -58.155121 32.833405 -98.157043

v -57.516037 31.620209 -98.568848

v -74.509766 22.037292 -96.170654

v -58.061035 29.704821 -99.319092

v -55.969788 28.773178 -98.372894

v -74.968262 20.034462 -96.327576

v -56.457947 27.059509 -98.961761

v -58.486206 23.653000 -99.137146

v -75.846008 17.505493 -97.989502

v -77.476067 14.116882 -98.312134

v -55.087112 28.115767 -98.197495

v -55.872620 25.829224 -98.289017

v -78.389053 12.290962 -97.384766

v -56.892517 23.832520 -98.238403

v -57.436249 21.401749 -98.011139

v -80.305725 4.849339 -98.380859

v -62.755562 12.068321 -98.255112

v -79.977417 3.067688 -98.950439

v -80.814247 1.721741 -97.448456

v -82.142082 -2.411106 -98.301178

v -82.322212 -4.812410 -98.352341

v -65.763763 4.981335 -98.321045

v -66.839813 2.309654 -97.998291

v -82.112335 -6.930220 -98.657837

v -66.465912 0.168549 -97.539429

v -81.089020 -9.829780 -98.509155

v -65.758179 -1.815674 -98.324829

v -80.633179 -12.578468 -98.579285

v -66.034058 -3.789612 -96.886475

v -80.587830 -14.590232 -98.504211

v -66.856323 -7.675201 -98.092041

v -81.923523 -18.601665 -97.375244

v -66.984314 -8.380737 -98.320679

v -66.727295 -11.801147 -98.353027

v -81.778549 -20.654205 -97.539307

v -66.643188 -13.329834 -97.545166

v -80.936676 -23.027863 -97.259521

v -66.047195 -15.667374 -98.317200

v -80.513863 -24.647377 -96.483932

v -78.689697 -26.631104 -98.498169

v -77.162048 -28.016357 -98.451904

v -73.112671 -28.881348 -99.161255

v -67.104599 -25.219875 -97.167938

v -71.918510 -29.332462 -98.473251

v -70.656708 -28.623291 -96.806091

v -67.874542 32.873199 -96.571381

v -65.477371 34.452026 -96.313049

v -61.841187 35.579102 -96.180664

v -73.232788 27.207703 -96.403809

v -57.213928 34.636353 -95.948730

v -58.630737 33.621338 -97.345703

v -75.264648 24.560215 -95.340820

v -56.628555 33.051697 -96.398010

v -55.918762 33.734253 -95.579590

v -54.806580 30.834778 -95.865173

v -76.348755 18.534363 -95.850342

v -53.996155 28.467201 -96.174622

v -77.305573 14.470806 -95.925964

v -77.160400 16.777435 -94.618896

v -54.404175 24.820892 -96.006104

v -78.198380 10.207443 -95.232117

v -54.761490 21.939331 -94.514038

v -80.515625 5.824046 -96.355034

v -57.340935 20.041798 -95.349945

v -59.525440 16.813480 -96.414917

v -80.809341 4.949894 -96.402962

v -80.716835 3.725661 -96.521141

v -61.668884 14.426514 -95.953613

v -62.754791 13.247742 -95.786865

v -64.045502 10.840942 -96.314819

v -65.359222 8.404419 -96.284302

v -81.421173 -1.256470 -96.470642

v -66.834351 5.810181 -96.130493

v -81.867767 -4.589367 -96.379456

v -68.129578 3.697388 -96.011627

v -67.763947 1.664551 -95.951843

v -81.679070 -6.820379 -96.388336

v -80.542961 -10.412441 -96.482605

v -80.419159 -13.566113 -96.349899

v -81.305733 -16.114815 -96.582954

v -69.552612 -10.282646 -94.469238

v -68.898438 -11.701355 -95.385742

v -67.129089 -15.085938 -94.629883

v -65.959587 -17.424217 -96.448730

v -77.863106 -28.233755 -95.509987

v -65.613480 -20.429092 -96.261963

v -65.556335 -21.991550 -96.376236

v -76.191025 -29.147087 -96.554932

v -72.796890 -29.563049 -96.552734

v -60.405396 37.311279 -95.160645

v -62.281174 37.752075 -94.321655

v -60.380333 38.775452 -94.280457

v -56.223816 38.963806 -95.064087

v -58.620422 39.000122 -94.580383

v -56.752159 40.518951 -94.266861

v -62.103127 36.321411 -95.324402

v -62.913696 36.642914 -94.260010

v -65.396477 35.240486 -93.913177

v -67.303162 34.087513 -94.302536

v -68.493217 32.598682 -94.272644

v -54.570099 39.593872 -94.293854

v -71.428169 30.361160 -94.250641

v -57.050446 35.938721 -95.337357

v -73.296570 28.717041 -93.953003

v -74.530334 27.410301 -93.449768

v -75.908081 25.617920 -93.367554

v -54.681274 36.033936 -93.935608

v -54.321533 34.541626 -94.283203

v -76.562988 23.767090 -94.570435

v -53.348511 33.695374 -94.514465

v -77.390015 20.370911 -94.485535

v -52.751617 31.388382 -94.530609

v -77.362610 18.131424 -94.614624

v -52.230225 33.257141 -94.090164

v -52.619141 28.990219 -94.678894

v -76.972298 15.137604 -93.044281

v -52.146088 27.293367 -94.382202

v -52.601013 25.264755 -94.425476

v -53.663429 23.359045 -94.416092

v -80.130157 5.144251 -94.826172

v -57.999329 19.166504 -93.463440

v -59.186161 18.223450 -91.473267

v -80.040291 3.004658 -94.200638

v -66.141968 11.663300 -93.474854

v -66.419434 10.261719 -94.253906

v -66.807617 8.296875 -94.960938

v -80.671967 -0.012630 -94.536713

v -69.210510 6.800537 -94.398682

v -70.930542 4.734856 -94.743408

v -80.437286 -2.511187 -94.551605

v -71.237305 2.055603 -94.526367

v -71.721924 3.041046 -94.492737

v -80.504097 -5.297733 -94.240631

v -69.112732 -0.371216 -93.990234

v -67.683655 -1.309082 -94.408447

v -78.549026 -9.436539 -94.108002

v -67.367920 -3.028126 -94.450378

v -78.629944 -11.631416 -93.889099

v -79.477783 -15.028564 -94.033569

v -67.958435 -5.092041 -94.228027

v -68.917023 -8.718842 -94.602539

v -81.092079 -17.624203 -94.459259

v -81.638794 -19.229143 -94.491249

v -69.718506 -12.788452 -93.755127

v -81.483345 -21.431961 -94.456024

v -80.493698 -24.014435 -94.508850

v -66.925659 -16.685425 -93.837891

v -67.045532 -18.327667 -92.859619

v -66.260498 -21.664551 -94.427002

v -67.705872 -25.268803 -94.410400

v -74.711319 -28.999397 -93.161652

v -73.481140 -29.245811 -93.211090

v -71.683426 -28.192322 -92.887207

v -60.845642 39.359741 -92.516113

v -57.698257 41.147491 -92.388611

v -62.247082 38.580345 -91.633636

v -63.475052 36.788536 -92.414246

v -55.187988 41.141968 -93.059448

v -64.870453 34.022751 -88.692993

v -66.785522 32.447571 -92.006592

v -53.392883 41.392151 -92.372742

v -53.804077 39.181248 -93.628815

v -67.804016 30.346436 -91.109131

v -69.734512 30.632195 -93.001221

v -71.743965 29.614227 -92.103973

v -51.754028 38.131287 -92.832764

v -77.513306 23.681320 -92.271118

v -78.043762 22.393089 -92.422913

v -51.958862 35.035645 -93.185181

v -78.240601 19.348679 -92.436401

v -50.420166 37.106201 -91.883545

v -50.287048 33.255249 -91.929184

v -51.141174 30.841911 -92.269333

v -51.321442 29.646824 -92.368805

v -76.408386 13.271332 -93.099976

v -50.147400 27.845734 -91.611267

v -75.647232 11.928701 -91.906006

v -50.979183 25.578346 -92.323349

v -76.733215 10.014496 -92.367188

v -52.587173 23.838345 -92.502594

v -77.754242 7.447327 -92.089478

v -53.362179 22.665070 -92.333260

v -56.518620 20.744049 -91.662231

v -78.128464 5.701509 -92.061180

v -65.860199 12.795929 -92.237305

v -68.510986 9.828613 -92.378174

v -78.589905 1.766510 -92.492523

v -73.513977 6.545868 -90.218689

v -74.092377 5.081482 -90.778015

v -74.144836 3.157227 -91.968262

v -78.666046 0.400192 -92.890915

v -72.470947 2.752594 -93.626953

v -79.431213 -1.920479 -93.814560

v -73.584229 1.423889 -93.090332

v -77.673012 -0.057739 -92.713959

v -76.376190 0.675293 -92.207275

v -78.163452 -2.026245 -93.524025

v -75.591331 -1.257050 -93.501526

v -72.431519 0.491226 -93.545990

v -78.655243 -5.564789 -93.559090

v -68.913513 -2.705387 -93.539810

v -69.653061 -6.308289 -93.550629

v -77.052704 -9.601685 -93.554680

v -77.081848 -10.881104 -93.236450

v -70.474365 -8.783882 -93.619102

v -77.872925 -12.586060 -92.524506

v -76.324982 -11.977539 -92.460449

v -71.201599 -11.422974 -93.382721

v -73.201424 -12.210815 -92.690369

v -77.944374 -16.653839 -90.892929

v -71.510979 -12.443848 -92.513916

v -80.443039 -18.758045 -92.676018

v -80.621933 -22.015472 -92.729126

v -68.489380 -15.729492 -92.003418

v -68.331268 -17.340576 -90.762787

v -78.143585 -26.562332 -92.270203

v -67.163696 -20.754639 -92.532471

v -68.990723 -22.964600 -90.993896

v -75.630638 -27.734509 -90.973068

v -68.779785 -25.511627 -92.673340

v -58.641121 41.048843 -90.402084

v -56.523933 41.892578 -90.044479

v -54.715225 42.888023 -90.394859

v -62.735165 37.596832 -88.769119

v -64.392395 35.807732 -90.427307

v -52.808403 42.631245 -90.319176

v -73.587563 28.405819 -90.402176

v -50.344307 40.149506 -89.990112

v -71.268196 29.090950 -90.304657

v -76.288239 25.591320 -90.480835

v -50.014175 38.933838 -91.053650

v -77.519890 24.086143 -90.432167

v -78.227722 22.039402 -90.573380

v -46.922668 39.877075 -90.556030

v -49.219971 38.220825 -91.354431

v -42.481873 42.945313 -90.333191

v -40.841003 43.004761 -90.399658

v -40.353210 41.870239 -91.134949

v -43.756470 40.973877 -90.154846

v -43.195007 39.974182 -91.013062

v -78.351456 19.461239 -90.551071

v -39.425171 43.448975 -90.314941

v -37.464111 43.680969 -90.699158

v -43.166016 38.426819 -91.361549

v -49.427673 34.801147 -91.489182

v -35.677094 41.559967 -91.330902

v -78.370201 17.798431 -90.567123

v -45.850647 32.754055 -91.459053

v -34.956116 42.725220 -90.694336

v -49.021042 32.545113 -91.685478

v -77.038284 15.925282 -90.375038

v -50.151794 31.303101 -91.702454

v -32.731224 41.755840 -90.346146

v -32.873108 40.600952 -90.724945

v -47.603199 32.462452 -92.562965

v -42.218163 30.523758 -91.370819

v -48.113239 31.813639 -92.432007

v -47.149574 31.354767 -91.588806

v -48.922241 28.827942 -91.019653

v -75.418953 13.688263 -90.350388

v -32.906555 38.150543 -91.086670

v -44.556740 30.930298 -91.015656

v -32.675598 33.607285 -91.326004

v -31.659424 37.486595 -90.392120

v -44.892517 30.007324 -90.295105

v -48.203644 27.446838 -89.843292

v -73.568024 11.897491 -90.030365

v -49.294098 26.571991 -90.537415

v -73.650330 10.494263 -90.378448

v -31.504761 35.668404 -90.712814

v -50.471725 24.844790 -90.693665

v -34.885071 30.156647 -91.345230

v -52.958858 23.287621 -89.802872

v -73.848442 8.914551 -90.024780

v -76.774017 7.075722 -90.559647

v -30.899048 33.537628 -90.393860

v -32.057495 32.379112 -91.044586

v -40.064819 27.917175 -91.255737

v -41.811218 26.964600 -90.411621

v -61.797852 17.098145 -88.561768

v -64.471558 15.023865 -88.321045

v -77.557159 6.130148 -90.595276

v -36.874756 27.922913 -90.785797

v -67.393707 11.878540 -90.142334

v -69.349045 11.324951 -89.370422

v -75.949295 5.456238 -90.467392

v -40.973694 26.200653 -90.183655

v -77.614319 3.981079 -91.782959

v -75.847237 4.341125 -91.286942

v -32.485474 29.495117 -90.522827

v -37.631836 26.644043 -89.680176

v -70.644043 10.346558 -90.242065

v -72.125244 8.642532 -90.263184

v -77.524048 1.675903 -91.878967

v -75.805054 -13.952637 -91.066895

v -76.859467 -14.990906 -90.762878

v -72.143250 -14.370850 -90.800781

v -74.417877 -15.266479 -89.967255

v -78.440186 -19.118542 -90.522064

v -70.328293 -16.064575 -90.250854

v -78.782898 -23.102032 -90.784149

v -68.323730 -18.945572 -90.608276

v -77.577087 -25.799461 -90.696205

v -69.396301 -21.697800 -90.272034

v -70.217529 -25.531433 -90.623047

v -74.262497 -28.187698 -90.766891

v -61.470901 38.956726 -88.424133

v -58.421173 40.737213 -88.470398

v -54.030682 42.592812 -88.421211

v -52.750763 42.514023 -88.551727

v -63.336288 36.117737 -88.465408

v -50.747612 41.073608 -88.090561

v -65.659729 31.200623 -88.495758

v -43.505951 45.873489 -88.387711

v -45.519287 43.523193 -89.154419

v -46.379517 44.197308 -88.477448

v -47.529686 42.799957 -88.463715

v -71.485062 28.226837 -88.615051

v -74.076012 26.819729 -88.455231

v -42.117470 45.959381 -88.400314

v -42.701416 45.002441 -89.130371

v -46.712646 41.723389 -89.384521

v -48.500916 41.268616 -88.612366

v -76.546852 24.252905 -88.545616

v -38.757965 45.220215 -88.603394

v -43.204102 43.576721 -89.738281

v -66.066536 29.494192 -88.103737

v -68.263260 27.897156 -88.362732

v -77.291977 22.354549 -88.590607

v -35.452423 44.384949 -88.635864

v -77.590210 18.396187 -88.572144

v -33.023438 42.819607 -88.634346

v -75.364136 15.033936 -88.597595

v -31.617096 42.063683 -88.423752

v -31.177132 39.882198 -88.660385

v -73.370239 13.697388 -89.007813

v -30.173096 36.051392 -88.470703

v -47.734634 26.275085 -89.232971

v -71.471146 12.673584 -88.902618

v -44.078064 28.557861 -89.717590

v -46.250366 26.148132 -89.180908

v -60.048523 19.652008 -88.175049

v -57.501221 21.626221 -87.619141

v -49.557678 24.394699 -88.798782

v -72.361908 10.331238 -89.918793

v -47.651886 24.966187 -88.102325

v -43.002441 24.780636 -89.098572

v -66.680534 12.921207 -86.843048

v -75.360535 7.029953 -89.939079

v -68.931458 11.820801 -88.218323

v -28.827042 33.178059 -88.393524

v -28.929474 31.850037 -88.355225

v -30.121094 30.738678 -89.092438

v -41.130661 23.736084 -88.609131

v -31.314026 28.932755 -89.631195

v -33.102371 27.534637 -89.318329

v -35.253418 26.993896 -89.026123

v -38.388000 25.149261 -88.551727

v -33.994232 26.855057 -88.411850

v -28.245239 30.196808 -87.617554

v -28.202637 27.594168 -88.527710

v -29.149414 26.912140 -89.214722

v -30.969780 25.811279 -89.285889

v -32.079811 24.450684 -88.471695

v -28.444885 25.531006 -88.397522

v -29.492798 24.353516 -88.191895

v -76.503021 -17.003479 -89.817123

v -70.402374 -17.802917 -89.724213

v -77.239197 -20.635132 -89.799545

v -70.930695 -21.011963 -89.739990

v -77.031784 -23.559998 -89.789017

v -69.345459 -19.293091 -89.930481

v -70.993134 -24.028076 -89.805496

v -74.310745 -26.644470 -89.818146

v -59.426575 39.517105 -86.454590

v -60.757004 38.420334 -86.316284

v -53.325493 41.622398 -86.423386

v -55.198971 40.207817 -84.701645

v -61.600342 35.283173 -86.107849

v -51.210930 40.957111 -86.597694

v -43.862865 45.930557 -86.582565

v -42.454483 46.180199 -86.610313

v -46.240837 44.687187 -86.458771

v -47.805256 43.030800 -86.523819

v -64.205856 33.237877 -86.602386

v -39.714542 45.588799 -86.528145

v -49.328430 41.234531 -86.259056

v -64.576065 31.783684 -86.696609

v -72.573517 25.579956 -86.381744

v -64.096283 30.570187 -86.743164

v -74.233795 23.301678 -86.237427

v -38.014648 45.782856 -86.447571

v -64.157631 29.040192 -86.439240

v -69.295158 25.212830 -86.104645

v -35.914387 45.106564 -86.621582

v -67.538284 25.886993 -86.123444

v -76.309189 19.645103 -86.755760

v -34.313889 44.055023 -86.577682

v -76.349365 18.456690 -86.726784

v -31.723339 41.930511 -86.570251

v -74.784683 16.075256 -86.613129

v -30.534100 39.475319 -86.296585

v -71.711487 14.944651 -86.327423

v -62.480400 21.552353 -86.770729

v -62.425293 20.097656 -86.718872

v -61.479340 20.854889 -86.726685

v -69.875084 13.342972 -86.727325

v -59.701965 20.876160 -86.625275

v -63.601318 17.940216 -86.353088

v -28.650635 37.447632 -84.856262

v -55.540070 22.501266 -85.995605

v -53.130939 23.037191 -84.204277

v -64.901978 15.566467 -86.636108

v -28.140747 35.817444 -85.627319

v -48.892872 23.791740 -86.582184

v -51.585419 22.994936 -83.454956

v -66.243439 13.925232 -86.476563

v -68.069077 12.616440 -86.748222

v -46.709930 23.930420 -86.948242

v -27.727417 32.965038 -87.156311

v -43.617065 22.411316 -86.452271

v -41.253891 22.579956 -87.000793

v -27.450195 30.505287 -86.553009

v -35.629349 24.971802 -86.416687

v -34.523315 25.377808 -86.779175

v -26.255371 27.817993 -86.242310

v -32.154846 23.803467 -87.802307

v -32.616272 21.832947 -86.555786

v -25.977783 24.058716 -85.972290

v -30.278809 22.011963 -87.181152

v -31.077477 21.107544 -86.629852

v -27.447540 21.548828 -85.925171

v -57.135567 39.528576 -84.695648

v -59.945015 37.756195 -84.699890

v -53.584740 40.583458 -84.730637

v -52.087124 39.895050 -84.925385

v -43.940735 44.672150 -84.499390

v -46.116768 43.028286 -84.276169

v -59.379517 34.932648 -84.122360

v -47.546127 41.583744 -84.394569

v -50.507339 39.680206 -84.373749

v -60.240234 33.043762 -84.828125

v -40.541470 44.135468 -84.208038

v -62.424133 31.227509 -85.369141

v -38.818733 44.975777 -84.602081

v -37.846554 45.843197 -84.586151

v -61.852036 30.326452 -84.728943

v -59.625122 32.337402 -84.138153

v -36.607693 44.903320 -84.565948

v -62.249634 29.631954 -85.494873

v -72.542267 23.269806 -85.752670

v -62.953857 28.243225 -85.780670

v -35.204315 43.376007 -84.515350

v -59.469559 29.153610 -84.737885

v -60.654846 27.606110 -85.375305

v -67.767639 23.889900 -85.732498

v -74.923462 18.934250 -85.818016

v -62.951294 24.425743 -85.648056

v -64.706421 21.693359 -85.743195

v -61.694336 23.803242 -85.163696

v -60.864990 23.892578 -84.435303

v -73.044434 16.985901 -85.782516

v -32.396957 40.956390 -84.589600

v -63.292267 21.519073 -86.004990

v -61.187531 21.949615 -85.725220

v -60.204132 22.167381 -84.735703

v -30.814644 39.133080 -84.318039

v -65.635071 16.819393 -85.817879

v -68.335632 14.257294 -85.785263

v -59.568680 22.246887 -84.854538

v -57.349426 22.774963 -84.637024

v -29.221863 37.890572 -84.437897

v -54.179970 22.950109 -82.914146

v -48.049934 23.238813 -84.825073

v -45.262970 21.996094 -84.778809

v -25.142578 34.855408 -84.142578

v -26.266846 32.841270 -85.767578

v -24.406738 31.120483 -85.126404

v -25.780212 29.862671 -85.683319

v -36.730537 23.630005 -84.574036

v -40.111610 21.958252 -85.058594

v -35.205261 23.522888 -84.828247

v -23.592773 31.651855 -84.447754

v -20.864441 30.373047 -85.025208

v -21.390900 28.762085 -85.533936

v -25.031403 26.881355 -85.628250

v -33.807465 20.728760 -84.730530

v -35.515442 22.500610 -83.635010

v -19.673035 30.117920 -84.611206

v -19.178345 27.272316 -85.318542

v -24.634827 23.912109 -85.595062

v -32.785015 19.944771 -84.651443

v -19.991638 24.806442 -85.551346

v -29.830139 20.483704 -85.556824

v -17.792236 26.573273 -84.510315

v -25.882751 21.005798 -85.598007

v -28.006241 20.007568 -85.224518

v -18.174866 23.219009 -85.107910

v -18.501160 19.893127 -85.566360

v -24.719482 18.009949 -85.583282

v -27.075989 18.804230 -84.854889

v -25.976013 17.129234 -85.079926

v -16.892212 20.217072 -85.123535

v -16.733398 22.567749 -84.295898

v -25.409851 15.302750 -85.172791

v -23.929031 13.234283 -85.590256

v -16.778076 17.476196 -85.159546

v -16.436340 14.334717 -85.571091

v -25.593796 13.445587 -84.790039

v -24.459406 11.372925 -84.610062

v -14.824280 14.822144 -85.179749

v -21.009415 11.337189 -85.565536

v -22.192795 9.843872 -84.115845

v -11.356812 14.364532 -84.542389

v -11.651886 13.167847 -85.187195

v -12.853210 12.604065 -85.561668

v -20.311951 9.249268 -84.824219

v -14.892672 7.313049 -85.585556

v -16.270752 6.461945 -85.051636

v -9.415771 10.002930 -84.963379

v -8.713806 5.073914 -85.587601

v -14.735704 5.331909 -85.047180

v -7.754395 6.061630 -85.213867

v -6.820831 7.511169 -83.670532

v -11.498184 4.151489 -85.175629

v -6.471357 5.645010 -84.574669

v -8.454029 3.852478 -85.136047

v -6.995010 4.367981 -84.586494

v -9.835735 2.829773 -84.644684

v -58.377838 37.481735 -83.807671

v -54.752365 39.084717 -83.896317

v -51.957237 38.721008 -83.998047

v -43.694355 42.851959 -82.466217

v -52.771805 37.396912 -83.613884

v -57.171875 34.399536 -83.678421

v -45.116943 42.085274 -82.576935

v -45.587921 40.427307 -82.410858

v -48.267822 38.641754 -82.277054

v -51.046570 36.340347 -82.261475

v -55.583008 34.256165 -83.247711

v -37.297424 44.028442 -83.849365

v -40.708984 42.378174 -82.635986

v -52.647949 34.833130 -82.492371

v -57.295837 31.700752 -83.376221

v -59.920166 30.680923 -84.148865

v -39.374256 42.671997 -83.470749

v -34.258911 40.969513 -83.800674

v -58.443176 28.396698 -83.901855

v -36.506836 40.012054 -83.508469

v -39.078369 39.454590 -82.212219

v -56.102371 28.532104 -82.090515

v -36.063347 38.642014 -82.701904

v -58.852844 24.631561 -83.233215

v -57.553192 25.883698 -82.291962

v -33.328339 39.719482 -83.206665

v -31.674927 38.969238 -82.938049

v -57.690491 24.090240 -82.863037

v -56.718384 24.133698 -82.348633

v -55.532497 22.943199 -82.794067

v -28.888657 37.369194 -82.597473

v -27.188980 36.797009 -82.749565

v -49.136414 23.446815 -82.709381

v -23.751923 35.761818 -82.586525

v -46.820068 22.368797 -83.024109

v -21.878693 34.359528 -82.773712

v -43.643456 20.473015 -82.865189

v -19.924965 33.425873 -82.563866

v -20.624817 31.852051 -83.811157

v -41.460739 20.272087 -82.819069

v -39.831200 20.972004 -82.994293

v -36.281170 22.089401 -82.120819

v -18.985565 31.084717 -83.173035

v -33.746841 19.376183 -82.825165

v -32.307316 19.021240 -83.177368

v -16.468811 26.807358 -82.904175

v -30.270950 18.484253 -82.227783

v -28.933807 18.471985 -82.556793

v -27.705933 17.525208 -82.679565

v -15.102722 23.679688 -82.697388

v -15.336548 20.437256 -83.627808

v -13.410660 21.829941 -80.880615

v -26.917664 12.168121 -81.107788

v -27.954102 14.962490 -80.777466

v -14.216309 19.635899 -83.193329

v -25.405457 10.822388 -82.931763

v -14.453979 16.671509 -84.020996

v -12.263321 19.029678 -82.592072

v -12.164307 16.068115 -83.618896

v -11.427917 17.184952 -82.747620

v -11.133484 15.070587 -83.523682

v -9.587372 13.293884 -83.423218

v -19.755798 6.574097 -82.780396

v -18.014893 5.580826 -83.067993

v -7.306458 12.715082 -82.690834

v -7.062012 11.324707 -83.281982

v -6.066944 11.289182 -82.669769

v -6.480494 12.351866 -82.390381

v -14.592743 3.228912 -82.847290

v -6.147446 9.362694 -82.667221

v -12.931686 2.086273 -82.677216

v -9.743622 1.498901 -82.830078

v -6.488628 3.723167 -82.954498

v -6.345160 2.626701 -82.571342

v -7.771240 1.741089 -82.991211

v -6.535458 1.530701 -82.641235

v -42.840027 41.570190 -81.774582

v -45.936523 38.346024 -81.785614

v -50.708008 34.537445 -81.810608

v -54.852570 31.647232 -81.878670

v -40.369122 38.845093 -81.735603

v -46.762695 34.376953 -81.762337

v -39.515205 37.921265 -81.373291

v -42.757080 35.499355 -81.440399

v -51.646240 29.932556 -81.751465

v -37.391457 38.444427 -81.794220

v -45.554382 33.656982 -81.376221

v -49.636963 30.602509 -81.492493

v -38.083008 37.186035 -80.387787

v -53.165009 27.557648 -81.494324

v -35.169098 37.350174 -80.496277

v -45.292786 31.699951 -80.213287

v -54.418823 25.896507 -81.703751

v -32.966309 37.589783 -80.759460

v -50.192932 27.721375 -80.334991

v -52.830841 25.233948 -80.884872

v -53.510468 23.988098 -81.747406

v -30.314354 36.778748 -80.887573

v -52.710712 23.423662 -80.767555

v -27.677963 36.311096 -80.797882

v -51.422543 24.302658 -80.866791

v -49.152458 24.791534 -80.456604

v -26.050983 36.432713 -80.786041

v -47.115662 23.572536 -80.471863

v -23.473444 35.274231 -80.688843

v -46.191406 21.920311 -80.881775

v -44.830299 20.698471 -80.873367

v -21.419662 34.226128 -80.488785

v -43.352074 19.977503 -80.892715

v -19.437351 33.585396 -80.547775

v -18.290112 32.696716 -79.815872

v -37.555466 21.882423 -80.701172

v -39.923794 20.335724 -80.862503

v -41.094376 19.876068 -80.926674

v -35.329823 21.103977 -80.727844

v -17.171877 29.570145 -80.860809

v -33.725990 18.914253 -80.959610

v -15.848526 27.596697 -80.765724

v -31.119995 18.112789 -80.686012

v -30.657318 17.335402 -80.774734

v -13.408630 23.389771 -80.663811

v -29.293854 17.197418 -80.783875

v -12.622407 20.351074 -80.200180

v -11.098572 18.266132 -80.852951

v -25.701904 9.934357 -80.917847

v -24.146164 8.962433 -80.916199

v -21.909943 7.210510 -80.887085

v -8.021117 13.954666 -80.320648

v -19.173279 5.224640 -81.006714

v -20.996271 5.643002 -78.916245

v -15.620033 3.128325 -80.803391

v -5.780870 7.459244 -78.861504

v -14.068215 2.566788 -80.487694

v -12.684715 1.644285 -80.691132

v -6.072855 5.267638 -77.740715

v -11.207703 1.105980 -80.712524

v -6.258030 0.722382 -80.813446

v -8.223404 -0.429672 -80.834122

v -39.763306 34.357666 -79.852676

v -36.981018 35.871338 -79.845200

v -45.448242 30.028320 -79.864967

v -51.573547 25.738068 -80.190796

v -33.435242 36.339355 -79.904839

v -49.109253 26.885864 -79.902267

v -33.970764 31.701599 -79.805038

v -31.691895 35.662842 -79.805664

v -30.300842 34.981750 -79.203491

v -32.029694 34.336731 -79.463684

v -46.242493 24.639435 -79.893784

v -28.605988 34.425232 -78.903992

v -26.877197 35.484436 -80.051086

v -32.822632 31.149658 -79.484589

v -33.630157 28.401810 -79.800949

v -26.118774 32.697510 -79.016174

v -31.114441 31.644897 -78.260223

v -23.288986 34.156128 -79.708466

v -37.174385 23.621521 -79.880081

v -43.335327 21.481232 -79.929810

v -40.493408 21.750092 -79.912201

v -33.910461 25.003540 -79.787109

v -23.895081 31.751709 -77.397827

v -31.337646 27.397217 -78.304443

v -20.309593 33.236046 -78.407547

v -32.557983 25.663353 -79.134338

v -18.931953 32.972740 -76.901138

v -32.720673 22.792480 -79.505066

v -34.806061 21.736847 -80.139359

v -17.403728 30.677795 -78.752815

v -31.885864 19.177811 -79.614136

v -16.992050 29.017899 -78.548431

v -15.484073 27.075188 -78.708084

v -30.856995 18.923347 -78.743408

v -30.001955 17.108044 -78.952965

v -13.466166 23.413452 -78.828835

v -28.272215 14.359917 -78.851196

v -27.272636 12.543203 -78.871948

v -27.731009 12.349792 -78.890907

v -12.061460 19.884365 -77.599876

v -26.060068 9.798264 -78.988831

v -9.795387 16.363628 -78.453537

v -25.079681 9.152050 -78.886070

v -23.751516 8.193935 -78.874039

v -22.316477 6.905889 -78.823212

v -7.210474 13.414055 -76.740211

v -18.829552 4.520114 -78.920898

v -5.454770 12.104619 -77.872635

v -5.435119 10.883888 -79.044052

v -16.253601 3.189224 -78.953613

v -9.883451 0.482899 -78.860794

v -6.479273 1.085644 -76.826363

v -8.768383 -0.845712 -78.827667

v -7.096889 -0.313575 -76.945358

v -7.125824 -0.948256 -78.867218

v -29.630356 33.233398 -78.029739

v -26.774109 31.933533 -78.220612

v -28.074051 30.617157 -77.630997

v -29.245605 28.469757 -77.482239

v -26.773102 29.711151 -76.618286

v -21.308350 31.188354 -76.369141

v -29.541443 25.412382 -77.369598

v -20.004936 32.296997 -76.885292

v -17.793705 32.181084 -76.917587

v -29.938599 21.688354 -77.494263

v -17.711975 30.707670 -76.865082

v -17.950317 28.394806 -76.280884

v -16.758114 26.670715 -75.143921

v -16.129456 26.114502 -75.155029

v -28.692627 17.057648 -77.925293

v -27.489746 16.818359 -76.950562

v -13.751358 22.364859 -76.706726

v -25.092926 11.828674 -76.992981

v -12.388367 19.163525 -75.002014

v -10.977783 16.800568 -75.852661

v -22.654541 9.996193 -74.971313

v -21.513596 7.042847 -76.847412

v -8.340694 14.578028 -75.243439

v -18.317230 4.781311 -76.869110

v -5.536311 12.019389 -75.004509

v -16.996588 3.750786 -76.941467

v -13.840996 3.659058 -77.443420

v -15.832893 4.071564 -76.879929

v -10.530975 2.227417 -75.335205

v -8.427878 -0.005539 -76.912201

v -27.332916 27.145409 -75.028839

v -26.522278 28.221222 -74.855682

v -22.113247 29.599365 -74.827515

v -18.855835 31.101318 -76.276245

v -20.296555 30.070679 -75.573730

v -26.969971 24.814941 -74.579620

v -18.850220 29.138855 -75.736450

v -26.625977 21.072205 -74.528534

v -19.498642 26.924072 -73.331909

v -26.893433 18.883011 -75.067627

v -15.440186 23.212158 -74.598633

v -26.169113 16.702278 -75.067886

v -25.384827 15.726669 -74.914368

v -13.554321 21.331757 -74.933014

v -24.747559 13.768234 -74.945313

v -9.630554 15.215408 -74.757385

v -20.905029 8.868805 -74.208496

v -18.798218 6.596069 -75.072021

v -6.701107 12.481667 -74.803757

v -16.626633 5.558197 -75.009888

v -5.394964 9.167220 -73.091591

v -13.170267 3.840546 -75.933167

v -6.281381 2.505216 -75.191330

v -8.471130 1.353760 -75.029785

v -6.650390 1.370728 -74.956314

v -26.447998 26.661987 -74.340149

v -23.558655 26.967407 -73.526245

v -24.497314 25.635284 -73.485321

v -21.085663 27.398926 -73.274658

v -24.599854 21.799988 -73.557861

v -23.449097 23.610016 -72.429932

v -17.376930 25.641174 -72.997055

v -16.813156 24.371460 -72.981659

v -26.092285 18.560730 -74.464355

v -16.567810 21.894653 -72.698486

v -23.850098 15.578415 -73.895142

v -22.639160 18.936646 -72.541626

v -14.176071 20.155792 -73.083557

v -21.680847 14.075874 -72.556854

v -12.277451 16.016296 -72.922913

v -20.157623 10.665100 -72.533264

v -19.829926 8.740112 -73.032166

v -9.618958 14.407555 -73.083832

v -17.364532 7.404602 -72.719147

v -8.763733 11.774841 -72.472137

v -7.699188 11.883270 -73.101837

v -16.000229 6.130501 -73.138062

v -6.361763 11.378773 -73.040710

v -5.251156 11.576124 -73.053894

v -13.248291 5.148323 -73.065552

v -11.562771 3.333038 -73.138069

v -5.797878 6.746313 -73.175674

v -6.138828 4.044788 -73.102699

v -8.266464 2.527496 -72.793213

v -6.386512 1.978872 -73.104507

v -21.041206 26.038696 -72.337036

v -22.518570 24.717010 -72.132690

v -18.122993 23.949219 -72.172104

v -21.660645 20.775192 -72.138458

v -17.882507 21.122849 -72.119209

v -20.768707 15.966919 -72.133469

v -13.166962 15.957764 -72.369415

v -13.820984 14.866150 -72.113510

v -18.343811 9.951843 -72.141914

v -10.754639 13.406250 -72.234924

v -9.628143 10.379211 -72.111610

v -13.255798 6.948261 -72.150024

v -13.103027 5.998505 -72.407837

v -7.002655 9.760788 -72.177414

v -10.752945 4.587799 -72.215004

v -7.165298 6.902679 -72.178566

v -7.286713 4.305847 -72.279205

f 1 2 3
f 4 3 2
f 3 5 1
f 4 6 3
f 5 3 6
f 7 8 9
f 10 9 8
f 10 11 9
f 7 9 11
f 12 13 14
f 12 15 13
f 13 15 16
f 12 17 18
f 18 19 12
f 15 12 19
f 15 20 16
f 21 18 17
f 19 22 15
f 20 15 22
f 17 23 21
f 21 19 18
f 20 24 25
f 21 26 19
f 22 19 26
f 22 24 20
f 24 27 25
f 24 28 27
f 26 24 22
f 24 29 28
f 28 30 27
f 30 28 31
f 30 32 33
f 29 24 26
f 28 29 31
f 32 30 31
f 34 21 35
f 26 21 34
f 36 29 26
f 33 32 37
f 29 38 31
f 26 34 39
f 38 32 31
f 39 34 40
f 32 41 37
f 36 26 39
f 29 36 42
f 38 29 42
f 43 37 41
f 41 44 43
f 39 45 36
f 38 41 32
f 41 46 44
f 45 47 36
f 42 36 47
f 48 46 41
f 49 47 45
f 47 50 42
f 46 48 51
f 50 47 49
f 50 38 42
f 48 41 38
f 38 52 48
f 52 53 48
f 51 48 53
f 53 54 51
f 54 55 51
f 56 38 50
f 54 57 55
f 58 55 57
f 56 59 38
f 52 38 59
f 60 61 52
f 53 52 61
f 61 62 53
f 52 59 63
f 54 53 64
f 63 65 52
f 61 2 1
f 1 62 61
f 64 53 62
f 66 58 57
f 64 62 67
f 64 57 54
f 57 68 66
f 65 60 52
f 60 2 61
f 1 67 62
f 69 65 63
f 2 60 4
f 1 5 67
f 60 65 69
f 4 60 70
f 67 5 6
f 60 69 71
f 71 70 60
f 68 57 72
f 73 68 72
f 8 4 70
f 67 74 64
f 72 75 73
f 6 4 8
f 8 74 6
f 67 6 74
f 64 72 57
f 71 69 76
f 71 8 70
f 8 7 74
f 77 74 7
f 76 78 71
f 77 79 74
f 74 72 64
f 8 71 78
f 78 10 8
f 75 72 80
f 81 75 82
f 72 74 79
f 82 75 80
f 78 83 84
f 84 10 78
f 77 7 11
f 83 78 76
f 10 84 11
f 77 11 85
f 79 77 85
f 79 80 72
f 84 85 11
f 83 86 84
f 85 84 86
f 79 85 87
f 82 80 88
f 88 89 82
f 86 83 90
f 86 87 85
f 80 79 87
f 86 90 91
f 88 80 92
f 93 88 92
f 86 94 87
f 91 95 86
f 94 86 95
f 92 96 93
f 87 94 97
f 87 98 80
f 80 98 92
f 99 94 95
f 99 97 94
f 98 96 92
f 100 97 99
f 97 98 87
f 96 98 101
f 102 96 101
f 100 103 97
f 103 104 97
f 98 97 104
f 102 101 105
f 101 98 106
f 105 101 107
f 104 103 108
f 98 104 109
f 106 98 109
f 106 110 101
f 107 101 110
f 108 109 104
f 111 109 108
f 111 112 109
f 112 113 109
f 106 109 113
f 112 106 113
f 106 112 114
f 114 115 106
f 110 106 115
f 115 116 110
f 117 118 119
f 120 117 119
f 117 14 118
f 14 13 118
f 121 118 13
f 14 117 12
f 120 122 123
f 12 117 17
f 13 16 121
f 16 124 121
f 123 17 120
f 117 120 17
f 125 126 122
f 126 123 122
f 126 127 123
f 17 123 127
f 20 124 16
f 124 20 128
f 126 129 127
f 25 128 20
f 128 25 130
f 127 23 17
f 131 23 127
f 27 130 25
f 132 130 27
f 35 21 23
f 133 132 27
f 35 23 134
f 133 27 30
f 30 135 133
f 30 33 135
f 136 135 33
f 35 134 137
f 33 37 136
f 138 35 137
f 34 35 138
f 138 40 34
f 43 136 37
f 43 139 136
f 139 43 140
f 141 40 138
f 140 43 44
f 39 40 142
f 39 142 45
f 46 143 44
f 142 144 45
f 45 144 49
f 51 143 46
f 50 49 144
f 145 143 51
f 146 145 51
f 55 146 51
f 50 144 147
f 58 146 55
f 146 58 148
f 50 147 56
f 56 147 149
f 66 148 58
f 59 56 150
f 56 149 150
f 150 63 59
f 66 68 151
f 150 152 63
f 63 152 69
f 68 73 151
f 69 152 153
f 76 69 153
f 154 73 75
f 153 155 76
f 75 81 154
f 154 81 82
f 155 156 76
f 82 89 154
f 76 156 83
f 90 83 156
f 157 89 88
f 90 156 158
f 93 157 88
f 157 93 159
f 91 90 158
f 158 160 91
f 93 161 159
f 95 91 160
f 160 162 95
f 161 93 96
f 99 95 162
f 163 99 162
f 96 102 161
f 102 164 161
f 100 99 163
f 165 100 163
f 102 105 164
f 100 165 103
f 105 166 164
f 167 108 165
f 103 165 108
f 105 107 166
f 111 108 167
f 110 168 107
f 166 107 168
f 112 111 169
f 169 114 112
f 110 116 170
f 168 110 170
f 114 171 115
f 115 171 116
f 171 170 116
f 120 172 173
f 172 119 118
f 118 174 172
f 118 175 174
f 120 119 172
f 118 121 175
f 176 175 121
f 173 177 122
f 120 173 122
f 178 176 124
f 177 179 125
f 124 176 121
f 177 125 122
f 125 179 180
f 124 128 178
f 125 180 126
f 130 181 128
f 182 126 180
f 129 126 182
f 183 182 180
f 132 184 130
f 133 184 132
f 183 185 182
f 129 182 185
f 129 131 127
f 131 129 186
f 135 187 133
f 187 135 188
f 185 183 189
f 185 186 129
f 23 131 186
f 186 134 23
f 185 189 190
f 186 185 190
f 135 136 188
f 191 188 136
f 186 190 192
f 137 134 186
f 136 139 191
f 192 137 186
f 137 192 193
f 138 137 193
f 140 44 194
f 40 141 142
f 194 44 143
f 144 142 195
f 196 194 143
f 196 143 145
f 145 197 196
f 197 145 146
f 195 147 144
f 198 197 146
f 146 148 198
f 148 199 198
f 200 149 147
f 199 148 66
f 149 200 150
f 199 66 151
f 200 201 150
f 202 199 151
f 152 150 201
f 201 203 152
f 151 204 202
f 204 151 73
f 153 152 203
f 203 205 153
f 204 73 154
f 155 153 205
f 154 206 204
f 155 205 207
f 206 154 89
f 207 156 155
f 157 206 89
f 208 206 157
f 209 158 156
f 159 208 157
f 208 159 210
f 209 211 158
f 211 160 158
f 211 212 160
f 210 159 213
f 213 159 161
f 162 160 212
f 212 214 162
f 214 163 162
f 161 215 213
f 214 216 163
f 215 161 164
f 165 163 216
f 164 217 215
f 218 217 164
f 166 218 164
f 218 166 219
f 219 166 220
f 168 220 166
f 114 169 221
f 114 221 171
f 168 170 222
f 220 168 222
f 223 170 171
f 223 222 170
f 173 224 225
f 226 173 225
f 172 174 224
f 173 172 224
f 173 226 177
f 175 176 227
f 226 228 229
f 229 177 226
f 176 178 227
f 230 227 178
f 229 179 177
f 229 228 231
f 231 179 229
f 231 228 232
f 180 179 231
f 178 128 230
f 181 230 128
f 180 231 233
f 233 183 180
f 130 184 181
f 187 234 184
f 133 187 184
f 183 233 235
f 235 189 183
f 236 237 187
f 187 188 236
f 188 191 236
f 238 189 235
f 190 189 238
f 191 139 239
f 192 190 238
f 238 240 192
f 192 240 193
f 239 139 140
f 140 241 239
f 242 138 193
f 140 194 241
f 138 242 243
f 244 241 194
f 141 138 243
f 245 244 194
f 141 243 142
f 243 246 142
f 194 196 245
f 142 246 195
f 195 246 247
f 245 196 197
f 195 247 248
f 147 195 248
f 147 248 249
f 250 197 198
f 147 249 200
f 200 249 251
f 250 199 252
f 250 198 199
f 200 251 253
f 200 253 201
f 253 254 201
f 199 255 252
f 199 202 255
f 203 201 254
f 255 202 204
f 204 256 255
f 203 207 205
f 204 206 256
f 206 257 256
f 206 208 257
f 209 156 207
f 208 258 257
f 259 211 209
f 208 210 258
f 211 259 212
f 260 212 259
f 260 214 212
f 216 214 261
f 261 262 216
f 165 216 262
f 218 263 217
f 262 264 165
f 264 167 165
f 263 218 219
f 167 264 265
f 266 263 219
f 167 265 111
f 169 111 265
f 219 220 266
f 267 266 220
f 220 222 267
f 223 267 222
f 268 269 270
f 271 272 273
f 268 270 272
f 268 274 269
f 275 269 274
f 275 274 276
f 225 277 276
f 277 225 224
f 278 277 224
f 279 271 273
f 276 274 226
f 226 225 276
f 278 224 174
f 174 280 278
f 271 268 272
f 268 226 274
f 174 175 280
f 268 271 281
f 175 282 280
f 226 268 281
f 175 227 282
f 227 283 282
f 226 281 228
f 284 283 227
f 285 271 279
f 281 271 285
f 230 284 227
f 281 285 286
f 230 181 287
f 281 286 232
f 281 232 228
f 286 288 232
f 181 289 287
f 289 181 184
f 184 234 289
f 288 233 232
f 232 233 231
f 290 233 288
f 291 289 234
f 290 288 292
f 187 237 234
f 291 234 237
f 293 233 290
f 293 235 233
f 236 294 237
f 235 293 295
f 295 238 235
f 238 295 296
f 297 238 296
f 240 238 297
f 242 193 240
f 241 298 239
f 243 242 299
f 241 244 298
f 243 299 300
f 244 245 298
f 246 243 300
f 298 245 301
f 248 247 302
f 302 303 248
f 197 301 245
f 303 249 248
f 303 304 249
f 197 305 301
f 197 250 305
f 251 304 306
f 306 307 251
f 249 304 251
f 305 250 308
f 250 252 308
f 253 251 307
f 307 309 253
f 309 307 310
f 252 311 308
f 254 253 309
f 252 255 311
f 309 312 254
f 313 254 312
f 203 254 313
f 255 256 311
f 314 311 256
f 315 207 203
f 203 313 315
f 256 316 314
f 317 316 256
f 257 317 256
f 318 207 315
f 207 318 209
f 209 318 319
f 258 317 257
f 319 259 209
f 317 258 320
f 258 210 320
f 210 321 320
f 210 213 321
f 260 322 214
f 213 323 321
f 213 215 323
f 261 214 322
f 215 324 323
f 215 217 324
f 325 262 261
f 262 325 326
f 324 217 263
f 262 326 264
f 264 327 265
f 328 265 327
f 266 329 263
f 265 328 169
f 328 221 169
f 329 266 267
f 267 330 329
f 171 221 328
f 171 328 223
f 267 223 331
f 331 330 267
f 332 333 272
f 272 270 332
f 270 334 332
f 334 270 269
f 335 334 269
f 336 273 333
f 272 333 273
f 269 275 335
f 335 275 276
f 276 277 337
f 336 279 273
f 277 338 337
f 277 278 338
f 339 340 336
f 336 340 279
f 278 341 338
f 278 342 341
f 342 278 280
f 342 280 343
f 343 280 282
f 340 339 344
f 279 340 285
f 284 230 287
f 287 345 284
f 346 345 287
f 285 340 344
f 287 289 346
f 285 344 347
f 346 289 348
f 347 286 285
f 347 344 349
f 286 347 288
f 350 347 349
f 350 292 347
f 288 347 292
f 289 291 348
f 291 237 348
f 351 292 350
f 292 351 290
f 352 290 351
f 293 290 352
f 236 353 294
f 295 293 352
f 191 353 236
f 295 352 354
f 239 355 353
f 353 191 239
f 356 296 295
f 295 354 356
f 297 296 356
f 239 357 355
f 356 358 297
f 239 359 357
f 297 358 360
f 297 360 240
f 359 239 298
f 360 361 240
f 242 240 361
f 361 299 242
f 359 298 362
f 298 301 362
f 246 363 247
f 363 302 247
f 303 302 364
f 362 301 365
f 364 304 303
f 364 306 304
f 306 366 307
f 367 307 366
f 365 301 305
f 368 307 367
f 369 365 305
f 310 307 370
f 370 307 368
f 305 371 369
f 372 370 368
f 369 371 373
f 308 371 305
f 368 374 372
f 371 375 373
f 374 376 372
f 373 376 374
f 373 375 376
f 309 310 370
f 309 370 372
f 372 377 309
f 377 372 376
f 311 371 308
f 312 309 377
f 378 375 371
f 378 371 311
f 377 379 312
f 375 378 376
f 379 377 376
f 376 378 379
f 311 314 378
f 312 379 313
f 378 380 379
f 315 313 379
f 379 318 315
f 381 378 314
f 314 382 381
f 379 380 318
f 316 382 314
f 383 380 378
f 378 381 383
f 382 384 385
f 384 382 316
f 318 380 319
f 380 383 319
f 316 317 384
f 386 383 381
f 381 382 386
f 382 387 386
f 387 382 385
f 383 259 319
f 259 383 386
f 384 317 388
f 386 387 389
f 317 320 388
f 386 260 259
f 260 386 322
f 320 390 388
f 322 386 389
f 320 321 390
f 391 390 321
f 323 391 321
f 322 389 392
f 261 322 392
f 323 324 391
f 325 261 392
f 392 393 325
f 324 394 391
f 325 393 326
f 395 264 326
f 394 324 263
f 264 395 327
f 396 327 395
f 263 397 394
f 328 327 396
f 396 398 328
f 329 397 263
f 328 398 223
f 331 223 398
f 333 399 400
f 399 333 332
f 332 334 399
f 400 401 336
f 400 336 333
f 335 402 334
f 339 336 401
f 335 403 402
f 403 335 276
f 404 339 401
f 403 276 337
f 343 282 405
f 406 339 404
f 407 342 343
f 343 405 407
f 405 282 283
f 283 408 405
f 339 406 409
f 342 407 341
f 408 283 284
f 409 344 339
f 284 345 410
f 410 408 284
f 411 410 345
f 345 346 411
f 409 412 413
f 413 349 409
f 409 349 344
f 411 346 348
f 414 415 416
f 417 418 412
f 411 348 419
f 420 421 416
f 420 416 415
f 414 416 418
f 418 417 414
f 413 412 422
f 413 423 349
f 418 416 422
f 412 418 422
f 424 416 421
f 423 350 349
f 425 419 348
f 424 422 416
f 422 426 413
f 423 413 426
f 425 348 237
f 424 421 427
f 426 428 423
f 237 429 425
f 350 423 428
f 350 430 351
f 237 294 429
f 427 431 432
f 424 427 432
f 426 433 428
f 434 426 422
f 433 435 428
f 430 350 428
f 428 435 436
f 436 430 428
f 436 433 426
f 435 433 436
f 430 437 351
f 352 351 437
f 429 294 353
f 353 438 429
f 424 432 439
f 436 426 440
f 436 437 430
f 441 422 424
f 440 437 436
f 437 354 352
f 439 432 442
f 353 355 438
f 424 439 441
f 434 440 426
f 437 440 443
f 354 437 444
f 355 445 438
f 443 440 434
f 446 354 444
f 446 356 354
f 355 447 445
f 355 357 447
f 439 442 448
f 441 439 448
f 446 449 356
f 358 356 449
f 422 450 434
f 358 451 360
f 361 360 451
f 357 452 447
f 453 357 359
f 441 450 422
f 299 361 300
f 357 453 452
f 441 448 454
f 454 455 441
f 450 456 434
f 456 457 434
f 246 300 458
f 458 459 246
f 359 460 453
f 359 362 460
f 363 246 459
f 456 450 461
f 462 302 363
f 462 364 302
f 462 463 364
f 362 464 460
f 455 450 441
f 456 465 457
f 464 466 467
f 466 464 362
f 450 455 468
f 456 461 469
f 364 470 306
f 306 470 471
f 362 365 466
f 461 450 468
f 306 471 366
f 365 472 466
f 467 368 367
f 466 472 467
f 467 374 368
f 374 467 472
f 365 373 472
f 369 373 365
f 374 472 373
f 473 385 384
f 384 474 473
f 385 473 387
f 474 384 388
f 475 387 473
f 475 389 387
f 475 473 476
f 477 388 390
f 389 478 392
f 478 389 475
f 391 477 390
f 477 391 479
f 478 393 392
f 479 391 394
f 480 326 393
f 481 479 394
f 395 326 480
f 480 482 395
f 482 396 395
f 394 397 481
f 396 483 398
f 484 397 329
f 329 330 484
f 398 483 331
f 331 483 484
f 331 484 330
f 399 485 486
f 485 399 334
f 487 404 401
f 401 400 487
f 400 399 486
f 334 402 485
f 404 487 488
f 489 402 403
f 403 337 489
f 490 404 488
f 406 404 490
f 338 491 337
f 492 493 494
f 494 493 495
f 496 407 405
f 405 497 496
f 405 408 497
f 492 498 499
f 493 492 499
f 493 500 495
f 495 500 501
f 491 338 341
f 408 502 497
f 503 499 498
f 504 493 499
f 406 490 501
f 491 341 505
f 506 341 407
f 506 407 496
f 502 408 410
f 503 415 499
f 504 499 415
f 500 412 501
f 501 409 406
f 341 506 505
f 410 507 502
f 504 417 493
f 500 493 417
f 501 412 409
f 504 415 414
f 417 412 500
f 507 410 411
f 415 503 420
f 417 504 414
f 503 421 420
f 507 411 419
f 508 421 503
f 419 509 507
f 508 427 421
f 509 419 425
f 508 510 431
f 508 431 427
f 509 425 429
f 429 511 509
f 510 512 431
f 432 431 512
f 432 512 513
f 429 438 511
f 513 442 432
f 514 511 438
f 438 445 514
f 443 444 437
f 515 442 513
f 446 444 516
f 514 445 517
f 515 448 442
f 434 518 443
f 518 519 443
f 444 443 519
f 520 361 521
f 446 516 522
f 446 522 449
f 449 451 358
f 520 300 361
f 445 523 517
f 448 515 454
f 516 444 519
f 516 524 522
f 451 449 522
f 458 300 520
f 447 523 445
f 518 434 457
f 519 524 516
f 517 470 463
f 470 517 523
f 447 452 523
f 519 518 525
f 459 526 363
f 523 471 470
f 527 452 453
f 457 525 518
f 462 363 526
f 463 462 528
f 364 463 470
f 471 523 452
f 454 515 529
f 452 366 471
f 366 452 527
f 464 527 453
f 464 453 460
f 525 457 465
f 527 464 366
f 529 530 454
f 530 531 454
f 455 454 531
f 367 366 464
f 464 467 367
f 465 456 469
f 469 532 465
f 525 465 532
f 531 533 455
f 455 533 468
f 533 534 468
f 461 468 534
f 534 535 461
f 469 461 535
f 535 536 469
f 532 469 536
f 537 535 534
f 531 538 539
f 539 540 531
f 533 531 540
f 533 541 534
f 534 542 537
f 540 541 533
f 541 542 534
f 540 539 543
f 541 540 544
f 544 542 541
f 544 540 543
f 476 473 474
f 474 545 476
f 545 474 388
f 477 545 388
f 478 475 476
f 546 476 545
f 547 545 477
f 546 478 476
f 545 547 546
f 479 547 477
f 548 546 547
f 549 547 479
f 478 546 393
f 547 549 548
f 546 550 393
f 480 393 550
f 546 548 550
f 479 481 549
f 551 548 549
f 548 482 550
f 480 550 482
f 548 551 482
f 552 551 549
f 552 549 481
f 396 482 551
f 481 397 552
f 396 551 483
f 484 552 397
f 483 551 552
f 552 484 483
f 553 486 485
f 485 554 553
f 400 555 487
f 400 556 555
f 400 486 556
f 485 402 554
f 488 487 555
f 554 402 557
f 402 489 557
f 488 558 490
f 558 488 555
f 492 559 560
f 559 492 494
f 494 561 559
f 562 561 494
f 489 563 557
f 563 489 337
f 560 498 492
f 494 495 562
f 560 564 498
f 495 501 562
f 501 565 562
f 565 501 490
f 490 558 565
f 337 566 563
f 337 491 566
f 567 496 497
f 497 502 567
f 503 498 564
f 491 568 566
f 491 505 568
f 567 502 569
f 503 564 570
f 571 568 505
f 496 572 506
f 572 496 567
f 508 570 573
f 570 508 503
f 505 574 571
f 505 506 574
f 574 506 572
f 502 507 569
f 507 575 569
f 509 575 507
f 508 573 576
f 577 575 509
f 576 510 508
f 510 576 578
f 579 577 509
f 509 511 579
f 578 512 510
f 512 578 580
f 512 580 513
f 511 581 579
f 582 583 584
f 511 514 581
f 581 514 585
f 520 586 584
f 520 584 583
f 514 517 585
f 515 513 580
f 520 521 586
f 583 458 520
f 458 583 587
f 515 580 588
f 361 451 589
f 521 361 589
f 451 590 589
f 591 458 587
f 585 517 528
f 515 588 592
f 451 522 593
f 593 594 451
f 451 594 590
f 591 459 458
f 517 463 528
f 524 593 522
f 459 591 595
f 528 596 585
f 519 597 524
f 595 526 459
f 462 526 596
f 528 462 596
f 515 592 529
f 597 593 524
f 598 529 592
f 597 519 525
f 525 599 597
f 529 598 530
f 600 599 525
f 525 532 600
f 601 538 598
f 538 530 598
f 531 530 538
f 536 535 602
f 536 600 532
f 535 537 603
f 603 602 535
f 539 538 601
f 542 603 537
f 601 604 539
f 605 603 542
f 605 606 603
f 607 539 604
f 544 605 542
f 543 539 607
f 605 544 608
f 606 605 608
f 608 609 606
f 607 610 543
f 544 543 610
f 610 608 544
f 610 609 608
f 611 486 553
f 486 611 556
f 553 612 611
f 612 553 554
f 613 555 556
f 557 612 554
f 614 558 555
f 613 614 555
f 559 561 615
f 561 616 615
f 616 561 562
f 617 612 557
f 615 560 559
f 562 618 616
f 562 565 618
f 614 619 558
f 617 557 620
f 621 564 560
f 621 560 615
f 565 619 618
f 619 565 558
f 620 557 563
f 563 622 620
f 622 563 566
f 570 623 624
f 564 623 570
f 623 564 621
f 620 625 626
f 625 620 622
f 622 566 568
f 622 568 571
f 570 624 627
f 627 573 570
f 622 628 625
f 628 622 571
f 629 567 569
f 571 630 628
f 567 629 572
f 630 571 574
f 573 631 576
f 631 573 627
f 628 632 625
f 628 633 632
f 633 628 630
f 574 634 630
f 572 634 574
f 634 572 629
f 569 635 629
f 635 569 575
f 630 636 633
f 636 630 634
f 575 577 635
f 634 637 636
f 577 579 635
f 576 631 578
f 633 638 639
f 633 636 638
f 634 629 640
f 631 641 578
f 642 636 637
f 640 629 635
f 640 635 579
f 642 643 636
f 638 644 639
f 636 643 638
f 641 645 578
f 644 638 643
f 642 582 643
f 581 640 579
f 580 578 645
f 634 646 637
f 640 647 634
f 640 581 647
f 643 648 644
f 643 584 648
f 643 582 584
f 583 582 642
f 634 647 646
f 586 648 584
f 637 646 642
f 586 521 649
f 649 648 586
f 642 587 583
f 587 642 646
f 650 580 645
f 589 649 521
f 588 580 650
f 591 587 646
f 581 585 647
f 651 589 590
f 646 595 591
f 595 646 647
f 647 596 595
f 647 585 596
f 594 593 652
f 595 596 526
f 597 652 593
f 599 653 597
f 652 597 653
f 592 654 655
f 598 592 655
f 655 654 656
f 601 598 655
f 656 657 655
f 601 655 657
f 536 602 658
f 536 658 659
f 600 536 659
f 599 600 659
f 658 602 660
f 657 604 601
f 603 660 602
f 656 661 662
f 656 663 657
f 662 663 656
f 604 657 664
f 660 603 606
f 663 664 657
f 604 664 607
f 665 666 660
f 665 660 606
f 667 668 662
f 663 662 668
f 664 663 669
f 669 607 664
f 609 665 606
f 665 609 670
f 668 671 663
f 669 663 671
f 672 670 609
f 607 669 610
f 610 672 609
f 668 667 673
f 610 669 674
f 672 610 675
f 673 676 668
f 671 668 676
f 674 675 610
f 671 674 669
f 674 671 677
f 675 674 678
f 678 679 675
f 678 680 679
f 676 677 671
f 678 674 677
f 677 676 681
f 682 681 676
f 678 683 680
f 677 684 678
f 683 678 684
f 677 681 685
f 684 677 686
f 687 683 684
f 686 677 685
f 684 688 687
f 686 685 689
f 688 684 690
f 686 690 684
f 688 690 691
f 692 693 689
f 693 694 689
f 686 689 694
f 690 695 691
f 686 696 690
f 696 695 690
f 696 686 694
f 695 696 697
f 694 693 698
f 698 699 694
f 696 700 697
f 699 696 694
f 701 698 702
f 699 698 701
f 699 703 696
f 700 696 703
f 701 702 704
f 701 705 699
f 703 699 705
f 704 706 701
f 705 701 706
f 705 707 703
f 708 611 612
f 556 709 613
f 709 556 611
f 611 708 709
f 612 617 708
f 613 710 614
f 710 613 709
f 711 615 616
f 614 710 619
f 709 712 710
f 712 709 708
f 708 713 712
f 714 711 616
f 713 708 617
f 714 616 715
f 715 616 618
f 715 618 619
f 619 716 715
f 619 717 716
f 717 619 710
f 617 620 626
f 621 615 711
f 710 712 717
f 713 718 712
f 617 626 713
f 627 624 623
f 623 719 627
f 623 621 719
f 621 711 720
f 712 721 717
f 721 712 718
f 713 722 718
f 722 713 626
f 723 626 625
f 621 724 719
f 724 621 720
f 722 626 723
f 631 627 719
f 625 632 723
f 724 725 719
f 723 726 722
f 632 726 723
f 727 725 724
f 724 728 727
f 728 724 720
f 719 725 631
f 729 722 726
f 633 726 632
f 631 725 641
f 639 726 633
f 730 727 728
f 726 731 732
f 731 726 639
f 725 733 641
f 733 725 727
f 727 730 733
f 641 734 645
f 734 641 733
f 731 648 735
f 648 731 639
f 648 639 644
f 649 736 735
f 648 649 735
f 649 737 736
f 738 650 645
f 645 734 738
f 649 589 737
f 737 589 651
f 738 588 650
f 739 588 738
f 592 588 739
f 594 652 740
f 741 654 739
f 654 592 739
f 742 740 652
f 653 742 652
f 654 741 743
f 653 599 744
f 744 742 653
f 743 661 654
f 661 656 654
f 745 746 743
f 746 661 743
f 659 747 599
f 744 599 747
f 659 658 748
f 748 747 659
f 746 662 661
f 660 666 658
f 749 658 666
f 748 658 749
f 745 750 746
f 746 750 662
f 750 667 662
f 666 751 749
f 665 751 666
f 751 665 670
f 751 670 752
f 667 750 753
f 672 752 670
f 753 673 667
f 754 752 672
f 675 755 672
f 755 754 672
f 676 673 753
f 755 675 679
f 756 755 679
f 676 753 757
f 757 682 676
f 680 756 679
f 756 680 683
f 682 757 758
f 683 687 756
f 757 759 758
f 681 682 758
f 760 761 687
f 762 758 759
f 758 685 681
f 685 758 762
f 687 763 760
f 685 762 764
f 763 687 688
f 762 765 766
f 766 764 762
f 766 765 767
f 764 689 685
f 767 768 766
f 766 689 764
f 763 688 691
f 689 766 692
f 692 766 768
f 768 767 769
f 695 770 691
f 768 769 692
f 693 692 769
f 770 695 771
f 697 771 695
f 772 773 769
f 773 698 769
f 698 693 769
f 774 772 775
f 771 697 700
f 700 776 771
f 773 772 774
f 773 777 698
f 777 773 774
f 777 702 698
f 703 778 700
f 776 700 778
f 778 703 707
f 707 779 778
f 704 780 706
f 705 706 780
f 705 780 781
f 781 782 705
f 707 705 782
f 779 707 782
f 782 781 783
f 784 711 714
f 784 714 715
f 784 720 711
f 715 785 784
f 785 715 716
f 785 716 717
f 728 720 784
f 717 786 785
f 786 717 721
f 721 787 786
f 787 721 718
f 718 722 787
f 784 788 728
f 784 785 788
f 722 729 787
f 789 785 786
f 788 785 789
f 790 728 788
f 791 788 789
f 786 792 789
f 792 786 787
f 793 728 790
f 788 791 790
f 789 794 791
f 729 726 732
f 793 730 728
f 794 789 795
f 795 789 792
f 787 729 792
f 796 793 790
f 729 797 792
f 798 730 793
f 798 793 796
f 794 799 791
f 795 799 794
f 792 797 795
f 729 800 797
f 731 735 732
f 798 733 730
f 800 729 732
f 736 732 735
f 733 801 734
f 801 733 798
f 802 795 797
f 803 797 800
f 732 804 800
f 732 736 804
f 800 804 803
f 736 737 651
f 734 805 738
f 805 734 801
f 651 804 736
f 804 806 803
f 804 651 806
f 651 590 806
f 807 738 805
f 808 806 594
f 590 594 806
f 738 807 739
f 740 809 808
f 594 740 808
f 810 741 739
f 739 807 810
f 740 811 809
f 811 740 742
f 810 812 741
f 742 813 811
f 812 743 741
f 814 813 742
f 812 815 743
f 814 742 744
f 745 743 815
f 744 816 814
f 817 745 815
f 744 747 816
f 817 818 745
f 749 819 748
f 819 820 748
f 747 748 820
f 820 821 747
f 821 816 747
f 750 745 818
f 819 749 822
f 750 818 823
f 822 749 751
f 751 824 822
f 753 750 823
f 751 752 824
f 823 825 753
f 824 752 826
f 754 826 752
f 754 827 826
f 753 825 828
f 755 827 754
f 827 755 829
f 757 753 828
f 829 755 756
f 829 756 761
f 757 828 759
f 756 687 761
f 830 762 759
f 830 765 762
f 830 831 765
f 832 760 763
f 767 765 831
f 763 833 832
f 691 833 763
f 691 834 833
f 769 767 831
f 770 834 691
f 769 831 835
f 769 835 772
f 770 836 834
f 837 834 836
f 835 775 772
f 836 770 771
f 776 838 771
f 836 771 838
f 702 777 839
f 776 840 838
f 704 702 839
f 840 776 778
f 778 841 840
f 839 842 704
f 780 704 842
f 778 779 843
f 843 841 778
f 842 781 780
f 781 844 783
f 782 783 844
f 843 779 845
f 782 844 845
f 779 782 845
f 796 790 791
f 846 796 791
f 791 799 846
f 847 798 796
f 847 796 846
f 795 802 799
f 848 846 799
f 848 799 802
f 797 849 802
f 798 850 801
f 850 798 847
f 851 848 802
f 802 849 851
f 803 849 797
f 852 847 846
f 846 848 852
f 805 801 850
f 850 853 805
f 852 850 847
f 849 809 851
f 849 808 809
f 808 849 803
f 803 806 808
f 854 805 853
f 855 853 850
f 855 850 852
f 856 848 851
f 856 851 809
f 805 854 807
f 853 855 854
f 807 857 858
f 857 807 854
f 807 858 810
f 859 855 852
f 852 848 860
f 811 856 809
f 810 858 812
f 857 861 858
f 859 862 855
f 863 812 858
f 864 860 848
f 865 856 811
f 858 861 863
f 852 860 859
f 865 848 856
f 811 813 865
f 848 866 864
f 866 848 865
f 867 860 864
f 812 863 815
f 863 861 868
f 813 814 865
f 859 860 869
f 870 815 863
f 869 860 871
f 871 860 867
f 816 865 814
f 870 817 815
f 866 819 864
f 865 821 866
f 821 865 816
f 817 870 872
f 866 821 820
f 818 817 872
f 820 819 866
f 873 871 867
f 864 874 867
f 873 867 874
f 864 822 874
f 822 864 819
f 875 823 818
f 876 873 874
f 876 874 822
f 875 877 823
f 822 824 876
f 825 823 877
f 825 877 878
f 824 826 876
f 879 876 826
f 826 880 879
f 880 826 827
f 828 825 878
f 829 880 827
f 878 881 828
f 880 829 761
f 761 882 880
f 759 828 881
f 761 883 882
f 881 830 759
f 883 761 760
f 884 883 760
f 885 831 830
f 884 760 832
f 832 886 884
f 885 887 831
f 832 833 888
f 888 886 832
f 888 833 889
f 834 889 833
f 834 890 889
f 835 831 887
f 890 834 837
f 835 891 775
f 837 836 892
f 893 775 891
f 774 775 893
f 893 894 774
f 895 892 836
f 777 774 894
f 895 836 838
f 777 894 839
f 840 895 838
f 843 896 841
f 842 897 781
f 844 781 897
f 896 843 845
f 845 898 896
f 844 897 899
f 844 899 900
f 845 844 900
f 900 898 845
f 854 901 857
f 901 854 855
f 855 862 901
f 861 857 901
f 902 861 901
f 901 903 902
f 903 901 862
f 862 904 903
f 869 862 859
f 868 861 902
f 904 862 869
f 902 905 868
f 905 902 903
f 906 863 868
f 863 906 870
f 869 907 904
f 908 872 870
f 908 870 906
f 872 909 818
f 869 871 907
f 871 910 907
f 910 871 873
f 875 818 909
f 909 911 875
f 911 877 875
f 877 911 912
f 910 873 876
f 913 877 912
f 910 876 879
f 878 877 913
f 913 914 878
f 910 915 916
f 915 910 879
f 915 879 880
f 881 878 914
f 914 917 881
f 880 882 915
f 830 881 917
f 918 916 915
f 918 915 882
f 882 883 918
f 885 830 917
f 883 886 918
f 886 883 884
f 887 885 919
f 888 918 886
f 919 920 887
f 888 889 921
f 922 921 889
f 890 922 889
f 835 887 923
f 891 835 923
f 837 922 890
f 837 924 922
f 924 837 892
f 893 925 894
f 892 926 924
f 892 895 926
f 927 928 895
f 928 926 895
f 895 840 927
f 841 929 927
f 841 927 840
f 896 929 841
f 896 930 929
f 930 896 898
f 898 899 930
f 898 900 899
f 903 931 905
f 931 903 904
f 905 931 932
f 908 909 872
f 868 933 906
f 933 868 905
f 905 932 933
f 934 909 908
f 908 935 934
f 935 908 906
f 931 904 907
f 935 906 933
f 911 909 934
f 936 931 907
f 937 934 935
f 907 910 936
f 911 934 937
f 911 937 912
f 910 938 936
f 937 939 912
f 940 938 910
f 910 916 940
f 914 941 917
f 940 916 942
f 916 943 942
f 941 944 917
f 943 916 918
f 943 918 945
f 885 917 944
f 885 944 919
f 918 921 945
f 918 888 921
f 920 946 887
f 921 922 947
f 946 923 887
f 947 922 948
f 923 949 891
f 924 948 922
f 893 891 949
f 948 924 950
f 949 925 893
f 925 951 894
f 928 950 924
f 924 926 928
f 950 928 952
f 928 927 952
f 839 894 951
f 952 927 929
f 897 842 953
f 954 929 930
f 953 955 897
f 954 897 955
f 897 954 930
f 899 897 930
f 956 932 931
f 936 956 931
f 957 933 932
f 932 958 957
f 932 956 958
f 959 935 933
f 959 933 957
f 937 935 959
f 956 936 958
f 959 939 937
f 936 960 958
f 958 960 961
f 936 938 960
f 913 912 939
f 913 939 962
f 914 913 962
f 962 963 914
f 964 938 940
f 963 941 914
f 938 964 960
f 940 942 964
f 941 963 965
f 966 960 964
f 942 943 964
f 967 960 966
f 966 964 943
f 941 965 944
f 965 968 944
f 967 966 969
f 945 966 943
f 966 945 969
f 919 944 968
f 968 970 919
f 971 969 945
f 945 921 971
f 920 919 970
f 946 920 970
f 947 971 921
f 971 947 972
f 946 970 973
f 923 946 973
f 947 948 972
f 972 948 974
f 923 973 975
f 923 976 949
f 976 923 975
f 950 977 974
f 948 950 974
f 925 949 978
f 978 949 976
f 925 978 979
f 925 979 951
f 950 980 977
f 950 952 980
f 952 981 980
f 982 839 951
f 842 839 982
f 981 952 929
f 842 982 983
f 983 953 842
f 929 954 981
f 954 984 981
f 953 983 985
f 954 955 984
f 955 985 984
f 953 985 955
f 986 959 957
f 957 987 986
f 987 957 958
f 986 939 959
f 961 987 958
f 962 939 986
f 988 986 987
f 988 962 986
f 989 987 961
f 962 988 963
f 967 961 960
f 989 961 967
f 990 988 987
f 990 987 989
f 988 965 963
f 965 988 990
f 991 989 967
f 990 989 991
f 967 969 991
f 965 992 968
f 992 965 990
f 970 968 992
f 990 993 992
f 993 990 991
f 969 971 991
f 994 993 991
f 994 991 971
f 995 970 992
f 995 992 993
f 971 972 994
f 970 995 973
f 996 995 993
f 993 994 996
f 974 994 972
f 975 973 995
f 994 974 997
f 995 996 975
f 994 997 996
f 998 997 974
f 974 977 998
f 976 999 978
f 999 976 975
f 999 975 996
f 980 998 977
f 951 979 978
f 951 978 999
f 997 1000 996
f 999 1001 951
f 996 1001 999
f 997 998 1000
f 1000 998 980
f 980 981 1000
f 982 951 1001
f 1001 996 1000
f 1002 1001 1000
f 1001 983 982
f 1001 1002 983
f 1000 984 1002
f 1000 981 984
f 1002 984 983
f 985 983 984
