v 62.740234 7.940002 -101.055115

v 65.263916 8.301636 -101.522827

v 64.763672 6.282166 -102.567093

v 63.870361 4.598175 -102.160034

v 62.127319 6.141785 -101.166504

v 68.648193 7.457520 -101.046387

v 68.476563 5.279114 -102.432098

v 69.514771 6.132202 -101.698364

v 66.457642 2.573730 -102.636627

v 71.806641 6.400513 -99.776855

v 70.581055 3.163635 -102.166870

v 64.165894 2.750671 -101.816528

v 63.562012 0.083427 -102.535965

v 61.660339 0.129684 -101.734848

v 70.189331 1.713013 -102.623573

v 64.440674 -2.890259 -102.648727

v 60.216888 -2.810913 -100.017761

v 63.798279 -5.548462 -102.198242

v 72.404297 2.312988 -101.717285

v 72.701233 0.603027 -102.279541

v 72.403564 -3.106792 -102.625534

v 73.515137 -2.291824 -102.195068

v 65.149658 -6.812195 -102.654228

v 74.799316 -1.667725 -101.209473

v 64.692322 -8.265320 -102.460907

v 63.165588 -8.726929 -101.758545

v 73.545898 -4.287399 -102.111389

v 71.461060 -6.824280 -102.611504

v 65.790161 -10.437012 -101.570648

v 67.361588 -10.376099 -102.585373

v 72.586914 -8.607994 -101.986206

v 71.248444 -9.464783 -102.611633

v 68.243385 -11.713257 -102.412415

v 67.162773 -13.142883 -101.766968

v 72.812256 -10.351273 -101.684692

v 71.692444 -11.068481 -101.962280

v 71.892822 -12.069092 -101.141602

v 54.990479 28.446655 -100.165710

v 55.209457 27.185791 -100.663628

v 52.873657 27.833191 -100.282166

v 52.308014 24.736755 -100.660828

v 51.200195 28.028809 -99.312500

v 50.419189 24.106079 -100.092285

v 49.769897 26.098328 -99.011810

v 56.699738 29.399902 -98.895264

v 58.904297 26.339539 -100.102295

v 49.010010 22.637863 -100.283936

v 47.955322 21.373062 -99.848679

v 46.890240 22.063618 -99.836441

v 50.220276 21.550030 -100.701447

v 60.573669 21.521729 -100.670898

v 51.187866 18.455917 -99.917801

v 55.088379 17.439898 -100.693230

v 61.201172 23.110931 -100.224609

v 53.742134 16.856995 -100.127563

v 56.829468 14.570435 -100.700378

v 62.491821 22.604267 -99.684021

v 62.009705 18.934265 -100.601425

v 63.215820 20.151489 -99.557373

v 56.187927 12.616150 -99.989929

v 65.605835 15.605713 -100.183838

v 65.492462 12.016357 -100.637184

v 59.719604 8.245789 -100.643837

v 57.207855 9.797234 -99.789276

v 64.642792 10.189514 -100.714401

v 66.748718 14.151398 -99.783936

v 59.158447 6.758209 -100.079193

v 66.988892 11.717926 -99.742920

v 67.621643 9.943542 -100.214233

v 60.769226 3.453758 -100.091583

v 70.037903 9.384399 -99.683655

v 60.830017 0.428314 -101.015869

v 59.691589 -0.004822 -99.871918

v 72.675293 3.918945 -100.331055

v 60.478027 -4.954102 -99.845490

v 74.988281 1.223633 -100.179688

v 62.169434 -7.901211 -100.679260

v 77.498718 -0.905350 -99.801392

v 63.136353 -9.978851 -101.003662

v 61.468994 -10.415413 -100.111450

v 77.472473 -2.076187 -99.575806

v 75.389160 -4.539307 -100.273438

v 62.885681 -13.447388 -100.504547

v 74.127197 -7.541016 -100.225098

v 65.899506 -13.532425 -100.913994

v 63.433624 -15.696089 -100.672211

v 61.289063 -15.852783 -99.135742

v 73.089722 -11.356567 -100.457520

v 68.279114 -13.820923 -101.142517

v 67.945984 -15.830322 -100.723602

v 62.301270 -18.931427 -100.420990

v 63.257080 -19.715302 -100.771072

v 73.340851 -14.097656 -99.826172

v 69.619141 -15.810181 -100.149292

v 73.470886 -13.297089 -99.717773

v 67.747772 -19.128265 -100.738907

v 62.066528 -21.994469 -100.456177

v 59.969482 -21.217514 -99.184784

v 69.552490 -17.332275 -99.801025

v 65.138672 -22.734039 -100.754196

v 63.924286 -24.296448 -100.670990

v 61.794678 -24.925537 -99.294067

v 68.809326 -20.621094 -99.856201

v 66.922241 -22.598236 -100.061157

v 65.772278 -24.761353 -100.074646

v 64.395119 -25.943756 -99.772797

v 44.550262 36.903099 -97.784775

v 47.527618 36.497955 -97.916138

v 46.320251 35.604370 -98.623169

v 44.556946 32.833557 -98.472656

v 44.001709 33.380127 -97.868164

v 42.359711 33.532288 -97.792938

v 42.152100 31.772705 -98.480713

v 41.000298 33.851753 -97.818558

v 41.007751 31.667439 -97.780495

v 48.992798 35.287544 -97.975464

v 47.737854 33.693115 -98.747673

v 44.018677 30.955719 -98.768456

v 43.635956 28.782318 -98.191879

v 51.709595 30.964844 -97.822632

v 50.649780 29.343079 -98.797279

v 46.902618 24.864174 -98.546738

v 53.237549 30.576416 -98.001587

v 55.035530 31.603027 -97.122314

v 47.550659 23.540131 -99.078308

v 46.318161 22.237854 -97.872192

v 45.129364 23.361404 -96.315918

v 47.250717 20.556099 -98.157654

v 58.775635 29.168762 -97.712646

v 62.213379 25.172302 -97.127197

v 49.772034 18.128111 -97.426697

v 52.394089 16.330017 -98.172897

v 63.499390 23.281677 -98.005371

v 65.208252 22.080566 -97.917847

v 53.472061 13.384378 -97.803772

v 66.324707 20.621094 -98.052429

v 55.201130 12.097991 -98.392769

v 67.043457 18.292236 -98.026733

v 56.412739 9.568027 -98.407234

v 67.700928 16.483276 -97.265137

v 68.736328 12.814087 -96.686035

v 56.848259 7.159035 -97.922638

v 57.974335 5.606308 -98.209656

v 69.127197 11.107910 -97.759033

v 58.474792 2.728912 -98.042419

v 56.770546 3.797865 -95.885796

v 71.459839 9.581299 -98.374023

v 58.921432 -1.007511 -98.292267

v 73.227783 8.632324 -97.815186

v 74.464355 5.350098 -97.355469

v 59.588501 -5.432220 -98.126793

v 75.241211 3.324219 -97.873047

v 60.178303 -7.943112 -98.174393

v 78.349060 1.530579 -97.790833

v 59.851860 -10.128680 -97.999695

v 79.029510 0.325607 -97.729065

v 59.968384 -12.942886 -98.208466

v 75.907227 -8.888428 -96.711914

v 59.385986 -16.474640 -98.285034

v 56.333839 -18.813622 -97.921555

v 57.224182 -19.972031 -98.728851

v 60.574341 -18.737549 -99.179260

v 56.190826 -21.072165 -97.922569

v 74.576904 -10.987671 -97.867188

v 58.113708 -23.359833 -98.105103

v 74.617920 -14.597076 -97.824951

v 73.958405 -15.702026 -97.925415

v 71.623047 -17.845459 -97.922852

v 59.209717 -25.564636 -96.775757

v 61.174438 -27.682190 -97.872215

v 70.135254 -21.822266 -97.895020

v 62.593155 -28.162384 -97.941162

v 67.954834 -26.290161 -96.144531

v 65.018539 -26.828735 -98.369629

v 39.478760 38.520081 -95.651733

v 40.741333 37.963928 -96.512909

v 39.250244 36.456879 -96.228455

v 44.859985 37.927979 -96.623901

v 43.760437 36.777588 -97.141174

v 42.966927 38.613953 -95.863770

v 42.878174 34.815918 -97.184692

v 40.742065 34.703156 -97.021942

v 39.546265 33.417374 -96.068054

v 45.702637 39.554688 -94.279297

v 47.718018 38.768555 -94.523926

v 39.832977 31.364868 -95.944977

v 40.471642 28.887573 -94.616974

v 40.936028 26.443882 -92.284782

v 53.031448 34.006348 -96.253235

v 50.882324 34.938629 -96.617920

v 43.392273 26.592285 -96.498901

v 56.414093 31.867004 -95.919922

v 55.025974 33.599594 -95.688690

v 44.907303 21.444286 -94.226501

v 47.200527 19.426914 -96.104752

v 61.023987 28.938843 -94.894287

v 51.030594 16.400768 -94.386902

v 65.019867 23.203323 -95.937134

v 52.709473 13.723174 -95.767151

v 66.461212 22.185879 -95.953796

v 67.847115 20.798576 -95.846786

v 54.107563 11.917648 -95.719833

v 68.301025 19.378571 -95.873352

v 55.762489 9.565233 -95.959824

v 56.247341 7.316609 -96.074829

v 56.724361 5.501107 -95.918259

v 70.879250 11.734879 -94.642944

v 73.302795 10.084442 -95.979248

v 56.900856 2.493336 -95.883286

v 57.665787 0.279488 -95.852058

v 74.729492 8.317139 -95.750488

v 58.852844 -2.639886 -96.171646

v 77.130127 3.745117 -95.921875

v 59.040859 -6.638357 -95.895554

v 79.100067 2.482038 -95.824669

v 59.297005 -8.912271 -95.932236

v 79.444511 1.339462 -95.904533

v 59.264645 -11.927048 -95.408096

v 79.165451 -1.022644 -95.987305

v 58.059814 -13.634682 -95.895203

v 78.145569 -4.410156 -96.033691

v 56.384315 -16.699951 -96.256317

v 55.092316 -19.730316 -95.763672

v 55.380623 -21.273767 -96.077690

v 75.804199 -12.364990 -96.040039

v 56.997719 -23.649277 -96.167198

v 72.986572 -18.538391 -96.025635

v 60.359329 -28.106758 -95.577271

v 70.827393 -23.084229 -96.074951

v 62.725868 -28.602276 -96.621124

v 65.664429 -27.736542 -96.013916

v 37.312561 40.984131 -92.674805

v 36.770996 37.440430 -94.622253

v 39.767944 40.346924 -93.985901

v 37.537537 36.304077 -95.072525

v 34.314667 34.575417 -94.847107

v 33.882935 36.580322 -94.290405

v 32.338379 36.252075 -93.415100

v 32.978638 32.813171 -93.583008

v 35.402222 32.521759 -94.608215

v 38.181335 32.167969 -95.048859

v 36.199341 29.500244 -93.294250

v 39.270020 29.960327 -94.897156

v 53.486504 35.737350 -92.621796

v 52.150391 36.500122 -93.417969

v 42.080338 23.972679 -92.592705

v 58.461197 31.823776 -92.410095

v 60.405968 30.092316 -93.882813

v 45.689949 20.426517 -93.352676

v 47.427711 18.973267 -93.178528

v 48.691364 18.105873 -93.930786

v 62.905983 25.533104 -92.811363

v 65.721985 22.575863 -93.116028

v 52.520706 14.426636 -93.870483

v 67.855560 20.438629 -93.443970

v 68.668625 18.538761 -93.468842

v 56.062622 9.947609 -93.353271

v 68.942261 15.533930 -93.361099

v 56.866028 6.478046 -93.854980

v 69.548439 13.311462 -94.166504

v 56.977905 2.610628 -94.011780

v 74.457184 9.851089 -94.535645

v 57.953461 0.651215 -94.036682

v 59.059082 -1.215424 -93.776611

v 59.081757 -3.198292 -93.979187

v 77.801193 4.063599 -94.137207

v 58.717934 -5.877197 -93.926300

v 59.669189 -8.623955 -93.193604

v 78.669739 2.084686 -93.254639

v 59.757263 -10.587822 -93.636292

v 79.121620 0.209294 -93.878998

v 79.172195 -1.805132 -94.004021

v 56.648125 -14.236233 -94.076942

v 55.444786 -16.195223 -94.121307

v 78.530052 -5.096073 -93.199539

v 78.242584 -7.687775 -92.611328

v 54.950558 -21.192970 -92.264725

v 77.348145 -10.294281 -92.890259

v 56.884247 -23.958832 -93.379395

v 76.731079 -13.090637 -94.125122

v 75.402344 -16.093657 -94.088135

v 58.806488 -26.728792 -94.027687

v 73.676987 -18.906630 -94.225037

v 71.454224 -23.592346 -93.989868

v 61.768208 -28.321178 -92.542877

v 64.576958 -28.415197 -92.625198

v 68.528534 -26.676819 -93.879105

v 66.450066 -27.910591 -93.521988

v 29.561279 40.854370 -91.989380

v 33.080177 42.880737 -92.048706

v 32.577103 41.426575 -92.892731

v 30.078949 38.898376 -92.880402

v 25.543793 36.933472 -92.150146

v 26.040833 35.047104 -92.986237

v 24.593750 35.668110 -92.193756

v 35.999695 39.673340 -93.132385

v 32.360718 38.088715 -93.106018

v 30.894104 36.619812 -93.073608

v 28.836487 37.686035 -92.546936

v 24.659546 33.972504 -92.327209

v 31.492188 32.923584 -93.009811

v 28.435974 32.770508 -92.612183

v 39.638184 41.291382 -92.397461

v 26.800110 31.787354 -91.508636

v 43.677727 41.293278 -90.218933

v 32.549133 31.226440 -92.765991

v 45.339005 41.193970 -92.044220

v 46.693363 41.429245 -91.993530

v 48.491791 41.000793 -92.011963

v 50.117126 39.971512 -91.951141

v 34.365173 27.831177 -92.391479

v 33.554344 26.863632 -92.102524

v 31.519043 29.866821 -91.574951

v 51.678619 38.637268 -91.927811

v 36.328125 27.669434 -91.883850

v 39.951042 26.926315 -91.937241

v 56.954277 33.079041 -91.072144

v 43.819107 21.908756 -91.228897

v 59.502945 31.198324 -91.945541

v 60.729744 29.833893 -92.035706

v 50.134399 17.670868 -91.386230

v 55.895386 11.973267 -90.440918

v 69.254242 13.929186 -91.732727

v 58.080078 6.282715 -91.684570

v 70.547050 11.963593 -90.933075

v 59.547607 2.849731 -90.391602

v 72.781425 10.452808 -90.761032

v 75.113678 9.567720 -92.208466

v 61.107422 -0.198608 -90.694336

v 77.053818 6.414985 -91.967422

v 60.214844 -1.799988 -92.189453

v 59.389038 -5.999664 -91.942993

v 77.109093 5.172150 -90.009979

v 77.986023 -1.823334 -92.051758

v 58.735165 -12.078965 -92.131332

v 57.327072 -13.391258 -91.907837

v 55.343636 -15.809738 -91.074280

v 54.413479 -17.200373 -91.926338

v 53.998753 -18.857243 -92.064346

v 53.982716 -20.154343 -91.625313

v 76.948669 -13.242504 -91.809830

v 58.855225 -26.092682 -92.162537

v 76.280472 -15.410385 -92.148560

v 75.069061 -17.178413 -92.247543

v 60.453445 -27.333099 -91.908325

v 73.465050 -19.212082 -91.942413

v 71.657501 -23.354944 -91.957794

v 70.774200 -24.724518 -92.168991

v 28.639587 41.686340 -90.475220

v 31.791214 43.415268 -90.178894

v 33.470188 43.737610 -90.145950

v 26.887756 40.858948 -90.152344

v 36.450943 43.198456 -90.057678

v 25.835907 38.340973 -90.679932

v 23.597168 36.617390 -90.200562

v 22.060303 34.409531 -90.085815

v 23.477417 33.729431 -91.378845

v 21.462708 33.280697 -90.199890

v 39.303795 41.976776 -90.310730

v 22.487183 31.710754 -90.973877

v 21.135803 32.054279 -90.072144

v 24.991241 31.280640 -91.175797

v 23.210205 29.569290 -91.080589

v 22.097900 26.875763 -90.497925

v 46.183464 41.600151 -90.127121

v 23.439117 27.065948 -91.141907

v 48.472107 41.543022 -90.011742

v 30.587524 28.963806 -91.164818

v 23.113831 25.035706 -90.645325

v 27.989349 24.234314 -91.157150

v 49.998619 40.601318 -90.019043

v 27.326996 23.238159 -90.937408

v 24.187805 22.791199 -89.639740

v 22.245361 23.616516 -89.154602

v 51.716469 38.256500 -90.116211

v 32.561493 27.110977 -91.541641

v 32.549561 24.609497 -91.114990

v 27.606895 22.154907 -90.231689

v 34.326839 26.287598 -91.478485

v 30.736313 23.482056 -90.679138

v 53.876560 35.232117 -89.835052

v 37.058502 24.684875 -90.646973

v 33.197632 23.181152 -90.402344

v 40.401443 24.238861 -91.042267

v 39.561646 23.094971 -89.234741

v 41.205227 22.886843 -89.413078

v 58.343842 31.433304 -89.847046

v 47.324738 19.883911 -90.480103

v 60.975967 26.997654 -89.709717

v 63.443584 24.116776 -88.666214

v 64.502617 22.745743 -88.173096

v 53.019775 16.226685 -87.409180

v 67.828201 16.359285 -86.443375

v 59.219482 9.486389 -87.842285

v 74.695679 9.180500 -90.136917

v 62.534668 -2.966187 -89.309937

v 61.560791 -4.519333 -89.717529

v 60.460449 -6.071438 -90.195923

v 76.135941 4.068769 -88.224716

v 60.751465 -8.223145 -90.246094

v 76.611885 0.460246 -89.581451

v 61.192871 -9.855225 -88.765991

v 76.246895 -0.628410 -88.207855

v 60.121948 -12.246155 -88.121094

v 56.933807 -14.856689 -90.072754

v 77.379761 -4.978577 -89.439941

v 78.157860 -6.609611 -90.122330

v 78.391556 -8.186916 -90.216148

v 77.455292 -10.168612 -90.363586

v 56.437866 -22.089600 -89.802063

v 59.162994 -23.943848 -89.572998

v 76.165390 -14.819189 -90.143867

v 75.363312 -16.208349 -90.059433

v 61.510345 -26.907501 -90.253143

v 72.813644 -19.366472 -90.468506

v 71.592255 -22.352516 -90.200073

v 70.030632 -24.239534 -88.928497

v 65.526642 -26.874939 -89.899109

v 69.156570 -25.692728 -88.317108

v 67.831863 -26.119484 -88.362579

v 28.483541 42.447884 -88.283524

v 26.111101 41.165474 -88.193871

v 30.975092 43.403488 -88.256737

v 33.223259 43.816502 -88.278702

v 25.484360 40.025146 -88.035004

v 24.414917 39.059315 -86.400604

v 36.831833 43.312462 -88.178558

v 21.663330 36.274223 -86.928955

v 19.718750 34.192764 -87.336182

v 19.580811 32.812256 -88.317383

v 38.932407 42.152527 -88.319427

v 19.202515 31.652779 -87.846802

v 20.386780 29.348206 -88.271790

v 43.510910 41.010941 -88.397980

v 19.806152 26.894234 -88.498779

v 45.688660 40.457657 -88.164413

v 19.883331 25.600677 -88.379364

v 48.183029 40.727207 -87.988495

v 20.918884 24.005463 -88.010651

v 49.400204 40.445431 -88.215012

v 50.177299 38.046089 -87.633965

v 21.834290 19.844818 -88.343262

v 23.113281 19.989014 -88.510803

v 25.510307 20.921509 -88.626282

v 53.142696 34.365051 -86.600998

v 29.122314 20.148926 -87.975830

v 37.067047 22.481689 -88.815430

v 33.663719 20.652832 -88.160889

v 56.427765 32.340012 -88.077393

v 57.379822 30.386108 -87.687073

v 42.680134 22.327663 -85.167412

v 44.725525 21.904816 -87.635620

v 58.756531 28.078735 -87.972748

v 48.242188 20.697021 -88.137695

v 50.724609 19.990967 -88.131836

v 60.446701 25.726013 -87.301926

v 65.392365 20.423538 -86.307251

v 54.537247 14.292236 -86.256836

v 67.782288 14.965158 -86.326706

v 67.834503 12.924319 -86.102623

v 61.427124 5.455078 -87.565430

v 70.257286 10.380775 -87.716797

v 72.507996 8.774994 -88.142700

v 63.355469 1.832672 -87.595459

v 75.482300 6.527222 -89.005310

v 72.982819 6.145836 -87.299393

v 64.220947 0.103394 -87.423828

v 75.610992 5.553329 -88.151535

v 63.739746 -2.708862 -88.175049

v 64.290649 -5.144775 -88.555054

v 62.208374 -7.872162 -88.930176

v 75.109848 3.468127 -87.647812

v 74.530121 1.911140 -87.910324

v 74.886032 0.817755 -88.262978

v 64.026794 -6.509048 -88.269897

v 76.193253 -2.703489 -86.297279

v 58.311890 -14.968628 -88.714844

v 56.924271 -15.905243 -88.276581

v 54.440666 -17.318512 -88.368187

v 54.272003 -19.236389 -88.337761

v 75.572296 -6.337842 -86.426155

v 55.370003 -21.042671 -88.401482

v 76.980133 -9.143999 -88.076981

v 77.799782 -9.465005 -88.094765

v 58.952957 -22.493164 -88.172791

v 74.771484 -12.493440 -86.389717

v 63.077637 -24.867676 -88.667480

v 74.220032 -15.997849 -88.184082

v 72.226067 -17.887329 -88.094116

v 71.093826 -19.763823 -88.722504

v 69.880920 -19.328232 -87.786407

v 66.173340 -24.965820 -87.715454

v 28.414371 41.688232 -86.051712

v 26.951897 40.971405 -86.102478

v 25.777176 39.675323 -85.576477

v 31.957428 42.376038 -86.042725

v 22.759499 37.454231 -86.038498

v 34.713974 42.186951 -86.226532

v 18.068726 33.610481 -85.751953

v 17.972870 32.484222 -86.464844

v 37.121872 42.424698 -86.341553

v 16.670105 30.819000 -85.146179

v 18.391968 28.920486 -86.443848

v 42.024704 40.259708 -85.920975

v 17.939941 27.523834 -86.430237

v 15.850647 26.215881 -86.358734

v 18.563965 25.611771 -87.650757

v 15.979126 25.035126 -86.636292

v 44.310524 38.825535 -84.340210

v 19.214722 20.029999 -86.978271

v 17.910156 19.844330 -86.026611

v 47.895855 39.428970 -86.283524

v 20.695679 20.620468 -87.696411

v 48.362740 38.574432 -86.082672

v 50.036102 36.085876 -85.867798

v 22.306396 19.165100 -87.751648

v 20.392822 17.440674 -85.907471

v 25.895542 19.359985 -86.444595

v 24.562042 17.684753 -85.877258

v 28.410675 16.567947 -84.472672

v 30.794205 18.183655 -86.402802

v 54.156494 32.125854 -85.608154

v 36.231735 20.171692 -86.568420

v 34.760281 18.994598 -86.305450

v 33.085606 19.075958 -86.666473

v 39.247574 21.711609 -86.875916

v 55.959229 30.158195 -86.136353

v 41.389385 21.815071 -84.520020

v 56.327148 27.867859 -86.360413

v 43.459137 22.965515 -84.186737

v 45.628296 22.837769 -85.628784

v 48.860985 22.145996 -86.124634

v 56.474335 26.451721 -85.722351

v 51.313599 21.716553 -86.312988

v 59.869171 24.817474 -85.953003

v 52.359619 19.120422 -86.608887

v 62.132988 22.666626 -85.875580

v 57.445007 13.026550 -84.614685

v 61.473389 8.061157 -86.444580

v 62.394165 6.412964 -86.283447

v 69.786163 8.653588 -85.962280

v 63.474854 5.328369 -86.378296

v 71.642838 7.014442 -86.195190

v 65.544556 4.499344 -86.219513

v 64.793091 1.793243 -86.336060

v 70.832825 2.732285 -85.782532

v 72.520203 2.206650 -86.994446

v 66.998535 -1.516846 -86.043701

v 69.956909 0.548676 -85.478546

v 71.694702 -1.111450 -86.903778

v 74.280548 0.162476 -87.552521

v 67.222809 -5.346924 -85.548599

v 74.914780 -1.324097 -86.970703

v 72.106689 -2.621338 -86.325439

v 70.294815 -2.136732 -86.250092

v 70.596191 -3.373428 -85.927917

v 65.429474 -7.409363 -85.870361

v 75.864197 -1.223663 -86.232605

v 74.967377 -2.694946 -85.932037

v 63.466064 -9.157715 -86.274170

v 61.523972 -10.708557 -86.329651

v 60.391785 -13.067463 -86.345551

v 59.603210 -15.317444 -86.448914

v 58.917725 -16.078381 -87.247192

v 55.848267 -18.637314 -87.382050

v 58.606689 -17.541382 -87.278366

v 61.333130 -16.904297 -85.485085

v 56.807739 -20.439880 -87.605225

v 75.202850 -8.712029 -85.957291

v 60.457947 -19.649170 -87.001404

v 74.494202 -10.558876 -85.849701

v 74.316399 -12.154829 -85.886948

v 61.121338 -22.772583 -87.689941

v 72.753769 -15.787354 -86.920410

v 69.428772 -15.160767 -85.781403

v 68.499878 -16.090088 -86.177612

v 66.337952 -18.380245 -85.487946

v 68.490479 -18.867493 -87.031311

v 63.598694 -21.958008 -86.822632

v 65.151733 -20.614380 -85.565430

v 74.373611 -13.845024 -86.294571

v 65.393059 -22.238068 -86.444931

v 68.915955 -23.028198 -87.516296

v 67.236450 -21.883240 -86.889343

v 67.948166 -24.548340 -87.506714

v 27.862198 39.036880 -82.533234

v 30.316406 39.770905 -82.504089

v 22.808434 37.367912 -83.320198

v 19.569817 35.646786 -83.495560

v 16.985718 32.465225 -84.688232

v 36.056519 39.888062 -84.006836

v 33.618103 39.119446 -82.685608

v 15.196350 29.045593 -84.675476

v 40.182205 39.851257 -85.111176

v 38.990723 39.283417 -84.031799

v 14.740112 26.714966 -85.321167

v 13.118896 25.662018 -84.397949

v 14.551758 23.538086 -85.209717

v 41.317165 38.778549 -84.916756

v 42.110527 39.485889 -84.279785

v 39.293335 36.780945 -83.779053

v 42.879639 37.497192 -84.410034

v 41.418640 36.404724 -84.775658

v 15.112915 19.036835 -84.873291

v 12.243530 22.999268 -83.426758

v 46.200989 38.008972 -84.341690

v 42.710785 35.075867 -84.350296

v 44.162491 35.477428 -84.344765

v 16.521301 17.973572 -85.084869

v 14.986801 16.860901 -84.804321

v 13.857849 17.338470 -84.488525

v 47.112778 36.533234 -83.835464

v 6.748047 14.567474 -83.751114

v 9.206135 14.890442 -84.180450

v 9.762070 13.214722 -85.176208

v 8.094818 12.329651 -85.373535

v 5.521362 13.340668 -83.404419

v 48.786377 34.488190 -84.027710

v 13.592209 14.304321 -84.796539

v 11.620609 13.449219 -84.483490

v 15.904419 15.786011 -84.169617

v 4.911621 11.303284 -83.493408

v 7.905060 10.090637 -85.420013

v 14.109375 12.887329 -84.894440

v 12.238266 12.846832 -85.031860

v 12.983032 11.604919 -85.167450

v 5.731140 8.872879 -83.992554

v 19.468750 14.905090 -83.968506

v 9.328217 8.655640 -84.966095

v 51.571594 32.740410 -83.843063

v 8.486870 7.779419 -84.261963

v 22.346558 14.515869 -85.043823

v 12.947144 9.261665 -83.847717

v 27.036524 16.475647 -84.819473

v 25.384430 15.230591 -84.894501

v 24.051144 13.904358 -84.587051

v 23.105057 13.201416 -84.160156

v 30.807159 17.677839 -84.347992

v 33.111565 18.398350 -84.353561

v 55.166748 28.145615 -85.276917

v 52.296875 28.445709 -83.460190

v 39.261036 20.989113 -84.390305

v 35.572556 19.022415 -84.482056

v 46.768341 24.713257 -83.930420

v 44.483337 23.988007 -83.879639

v 55.130493 24.505249 -83.791260

v 49.729248 23.544434 -84.403564

v 52.541016 23.257446 -83.971924

v 58.729370 22.086426 -84.687256

v 54.123535 20.787354 -84.147461

v 54.425964 16.302856 -84.231201

v 62.807617 20.490234 -85.024292

v 55.068512 14.535721 -84.420868

v 62.319733 19.016388 -83.827362

v 66.007202 15.081116 -84.376953

v 59.115417 12.409424 -84.032013

v 61.836067 9.494385 -84.313477

v 65.069122 11.746918 -83.653549

v 62.467224 8.273132 -85.221313

v 63.082291 8.724152 -84.292053

v 66.891327 10.281326 -84.691406

v 65.431396 9.484680 -84.117249

v 64.068924 7.510681 -85.204071

v 66.167786 8.757324 -84.853485

v 67.896667 8.275391 -85.289612

v 70.024841 6.390778 -85.441238

v 66.323425 5.137009 -85.512573

v 69.337463 3.928894 -85.343643

v 66.982483 4.156113 -85.386536

v 66.475342 1.620850 -85.484192

v 68.950409 -1.889099 -85.468628

v 68.187256 -2.094543 -85.501198

v 71.916992 -4.967896 -85.352608

v 65.980835 -8.806152 -85.389389

v 62.425781 -11.207886 -85.718140

v 74.595459 -5.027313 -85.577881

v 61.738098 -13.569916 -85.414429

v 73.636475 -8.774872 -85.381554

v 72.740479 -12.740417 -85.364830

v 66.976379 -15.012878 -85.404076

v 73.207733 -13.452881 -85.549500

v 25.962524 37.649841 -81.835327

v 23.570620 36.681595 -80.781029

v 16.562885 33.535057 -80.869568

v 29.420319 39.010010 -82.021362

v 15.204597 32.195694 -81.230484

v 14.266113 29.636276 -82.963623

v 12.514282 28.057938 -82.607788

v 10.796906 26.034307 -82.574310

v 36.025024 38.128235 -83.088135

v 10.181885 23.964996 -82.184082

v 35.201538 36.885132 -82.018555

v 7.030602 21.932358 -82.624649

v 8.120338 22.890396 -82.527374

v 8.150795 20.909424 -83.458694

v 11.242050 22.212852 -82.546173

v 9.673103 22.447601 -82.602600

v 5.912994 19.973816 -82.544769

v 6.013214 18.677643 -83.378876

v 11.533875 21.007690 -83.427917

v 3.235031 17.636703 -82.571365

v 37.078003 35.135010 -82.494080

v 4.698883 16.718212 -83.510483

v 3.342468 15.522507 -82.806671

v -2.454315 12.814362 -82.487274

v -2.820984 11.331665 -83.565933

v -4.432400 12.712784 -82.569153

v -0.570679 12.663025 -82.539490

v -4.970024 10.768459 -82.707947

v 38.864014 34.717346 -82.835266

v 8.778176 16.601868 -83.590576

v 12.793396 17.818268 -83.689301

v -3.856201 9.040833 -83.452576

v -5.106361 9.046398 -82.653412

v 44.760010 37.523682 -83.780212

v 11.746368 15.621521 -83.655273

v 1.649720 13.039917 -82.179504

v 0.520157 11.280457 -83.485855

v 45.447235 34.462280 -83.425941

v 40.892822 34.295715 -83.503815

v -3.844147 6.809593 -83.549774

v -5.406574 7.857241 -82.609497

v 3.220184 10.664368 -83.259415

v 3.588172 11.286026 -82.655174

v 3.881165 8.962662 -83.538376

v 1.933044 6.798309 -83.571228

v -5.163128 6.471474 -82.688469

v 43.600342 34.368958 -83.755066

v 4.495544 12.555054 -82.591553

v -2.290894 5.729980 -83.621231

v 46.719788 34.594849 -83.403175

v 41.677200 31.452148 -83.271210

v -3.904846 3.886597 -83.523666

v -5.289268 4.960078 -82.657135

v 40.343445 29.718414 -81.877319

v -5.411827 3.086540 -82.641960

v 16.954590 15.201843 -83.640396

v 44.181885 29.434860 -83.368935

v 4.167023 7.349731 -83.000061

v -0.713638 4.647278 -83.289825

v -1.145416 3.889587 -82.757721

v -3.634503 1.788574 -82.681992

v -5.442686 1.615225 -82.701881

v 50.517090 31.830078 -83.406235

v 3.273254 6.140320 -82.693436

v 1.600739 3.070343 -82.710464

v 43.041138 27.722809 -82.157837

v 4.695377 6.396606 -82.568481

v 2.855469 4.557709 -82.717346

v 20.817505 12.076477 -83.526459

v 15.545837 10.573486 -83.642746

v 10.323792 7.132813 -83.736267

v 8.146240 5.451660 -82.409180

v 46.141632 26.465332 -83.410950

v 44.271240 27.056755 -83.086426

v 42.523560 24.884644 -82.671082

v 16.171692 8.667358 -83.201080

v 30.024979 18.322281 -82.162964

v 27.512226 16.013910 -82.669228

v 26.151697 14.666193 -82.598526

v 22.491180 11.693604 -83.325806

v 33.263489 19.869568 -82.362335

v 36.184113 20.640991 -82.455261

v 25.182665 13.627571 -82.650513

v 19.136448 9.345612 -82.669922

v 14.453674 6.500092 -83.395721

v 12.842865 5.292404 -83.102402

v 42.398613 22.571152 -82.526398

v 40.483883 21.473339 -82.535652

v 38.196663 21.190948 -82.421188

v 24.365177 11.729713 -82.555473

v 21.699936 10.179123 -82.469772

v 16.156433 6.995888 -82.565613

v 14.830935 5.003029 -82.640343

v 51.827026 24.588440 -83.453728

v 54.118713 23.738464 -83.494232

v 57.695862 21.115051 -83.679077

v 55.560364 20.600464 -83.400932

v 55.703796 16.024399 -83.465218

v 61.337585 18.766869 -83.484390

v 59.421997 13.946457 -83.414986

v 65.225464 14.891521 -83.789398

v 63.951660 14.070770 -83.394028

v 62.924545 10.294434 -83.489487

v 21.342297 35.840111 -80.589462

v 19.205845 34.654499 -78.903519

v 25.351578 36.794510 -80.453827

v 12.463776 29.474537 -79.928467

v 28.675339 37.443146 -81.424171

v 10.471817 27.351151 -80.725220

v 32.279602 38.266174 -81.678024

v 27.690430 35.084488 -79.815460

v 9.375717 25.183279 -80.932861

v 7.498129 23.726013 -80.761452

v 36.122879 33.426514 -81.500290

v 6.674897 22.360765 -80.675415

v 29.772705 34.391937 -80.978821

v 31.186707 33.613842 -81.469414

v 5.739676 20.812576 -79.745178

v 3.616974 18.889442 -80.910934

v 1.956512 17.886047 -78.678329

v 30.253540 31.229370 -80.837585

v 2.165100 16.555214 -81.057495

v -4.153734 13.054695 -81.121445

v -4.313210 11.361701 -79.414215

v 37.273743 33.824265 -81.763550

v 34.302795 29.318024 -81.476334

v 1.710083 15.519257 -81.054565

v 1.642151 14.398507 -81.458008

v -4.747980 9.717916 -80.947105

v 32.817566 29.480896 -81.065704

v -4.730199 8.008644 -79.568405

v -5.249257 4.652481 -79.187408

v 32.074829 28.555786 -80.307861

v 33.155334 25.748016 -81.207184

v 40.533813 26.795067 -81.507713

v 34.335510 24.384705 -81.515800

v -5.527328 1.030815 -80.831932

v -2.156189 1.321777 -81.252502

v 32.720367 22.303101 -81.246429

v 5.018799 4.250977 -81.417236

v -3.582840 0.793701 -80.450684

v 1.469421 2.420959 -81.820496

v 0.435104 1.264862 -80.819061

v 41.279297 25.452499 -81.732941

v 37.373779 22.286072 -81.598198

v 29.782578 20.635468 -80.428741

v 28.886429 18.945129 -80.749329

v 31.572266 20.661865 -81.308594

v 3.439087 3.353516 -81.482910

v 40.592621 23.421021 -81.589630

v 26.853973 16.441223 -80.393250

v 5.945587 2.145081 -79.423645

v 25.099762 14.626144 -80.417938

v 7.678349 2.985291 -80.696747

v 24.210274 11.728264 -80.657013

v 10.219940 4.146790 -81.387390

v 18.071075 8.333038 -81.819275

v 20.735773 9.361074 -80.855988

v 17.236353 6.992247 -80.643829

v 11.883045 3.501148 -80.660194

v 23.664459 10.481857 -80.689453

v 21.750574 9.333797 -80.634834

v 16.014027 5.432625 -80.629585

v 14.171968 4.439315 -80.449318

v 18.327026 33.983276 -78.549500

v 15.712830 32.514893 -78.545395

v 21.315414 34.567764 -78.624359

v 22.278717 35.223114 -79.577942

v 14.236173 30.938614 -78.577156

v 10.401466 27.853634 -78.719467

v 24.772095 34.143005 -79.315826

v 8.279501 24.511681 -78.642471

v 7.287201 22.392593 -78.557800

v 25.281860 30.549362 -78.637070

v 26.674530 29.795109 -79.212677

v 29.142029 30.502930 -79.866577

v 1.519611 17.056540 -79.057709

v -4.255433 12.975598 -77.468170

v -2.021635 14.540631 -76.887268

v -0.486298 14.957230 -78.777710

v 28.581909 28.634033 -79.192902

v 28.195801 26.360161 -77.983215

v 30.870361 26.077454 -79.614502

v 29.831299 22.582544 -79.137329

v -5.691584 1.207700 -78.813263

v 28.810425 21.143480 -78.541779

v -5.263367 0.341423 -78.909538

v 27.142151 18.586914 -78.525543

v 26.360725 17.097092 -78.696609

v 0.574577 0.600113 -79.242432

v 24.429138 16.997559 -77.999695

v 23.126343 14.973633 -78.791870

v 3.660065 1.584778 -79.033569

v 21.800903 12.768677 -78.919373

v 7.891815 1.920914 -78.820709

v 20.068939 10.083923 -79.358887

v 10.119446 2.552696 -78.777138

v 17.632233 8.413727 -79.007507

v 15.745270 7.341965 -78.170837

v 14.378510 5.824432 -78.855881

v 11.596387 3.573610 -78.616127

v 21.413513 32.384644 -76.880981

v 16.073540 31.491760 -76.749939

v 14.954865 29.946472 -75.919250

v 11.871449 29.318987 -76.684029

v 10.879295 28.346889 -76.753159

v 19.414337 31.698486 -76.317749

v 8.716049 24.521118 -76.634094

v 22.424316 30.797119 -76.277588

v 24.388794 30.130112 -77.448608

v 6.332825 19.567261 -77.145203

v 7.640869 21.123901 -76.727783

v 2.928207 17.492790 -76.805908

v 0.694786 16.495659 -76.950127

v -0.276876 15.395658 -76.685562

v -4.896975 11.614348 -76.954498

v 25.878204 27.921875 -77.371002

v -5.344123 7.802670 -76.989868

v 25.911163 25.409004 -77.269669

v -6.040828 4.042206 -76.964569

v 25.326385 22.933598 -77.316360

v 27.967041 21.636070 -77.934906

v -5.995905 0.926762 -76.690331

v 24.738007 19.526001 -77.248962

v -5.865936 0.075470 -76.980766

v 22.602539 16.599854 -76.604553

v -4.856472 -0.376402 -76.971863

v 20.053406 12.924193 -76.747742

v -2.666578 -0.564182 -76.894897

v 1.104801 0.355473 -77.041428

v 18.038513 10.434311 -76.573242

v 3.627618 1.039868 -76.903267

v 5.763946 1.159204 -76.909225

v 7.215872 1.452635 -76.070068

v 12.282715 6.234901 -73.493805

v 10.048386 3.037167 -75.838684

v 13.311462 28.334900 -74.458801

v 11.817352 28.345688 -74.867722

v 10.166077 24.821045 -74.515015

v 20.901184 29.893799 -75.053101

v 17.588623 28.561646 -74.382446

v 9.556732 23.764221 -74.691284

v 23.743210 28.344574 -74.820587

v 7.925751 18.789497 -72.936310

v 6.103241 17.911285 -74.688843

v 2.443810 15.256409 -74.701660

v 0.552750 14.524536 -74.694092

v -0.825836 14.134491 -74.694489

v -4.132423 12.293171 -74.860825

v -4.852726 10.208893 -74.746117

v 24.504860 26.859169 -74.820602

v -5.188721 7.038889 -74.805099

v 23.546204 23.921463 -74.814941

v 23.099487 21.258362 -74.812988

v -5.509491 4.224926 -74.776062

v 22.907349 19.729248 -75.563232

v -5.508049 1.496334 -74.807320

v 19.963257 17.318329 -75.059570

v 18.934875 14.320557 -75.348755

v -4.089053 -0.235237 -74.826874

v 16.624695 10.300080 -74.807434

v -1.645374 -0.360260 -74.870911

v 2.015083 1.004196 -75.016998

v 14.784912 8.035988 -74.905884

v 4.721733 1.853790 -74.599243

v 9.082497 3.529419 -73.053986

v 12.544495 25.958313 -73.655212

v 15.075836 26.649109 -73.573303

v 13.167633 24.380249 -72.928009

v 17.270691 26.995422 -73.887787

v 14.920514 26.170784 -72.910080

v 16.326508 25.206329 -73.515320

v 22.551178 27.420105 -73.892166

v 10.424164 21.750336 -72.484131

v 9.301453 20.878357 -72.890106

v 15.650909 24.856339 -72.923660

v 16.958069 23.601257 -73.652039

v 15.380966 22.333595 -72.997467

v -2.794479 10.806274 -72.962708

v 22.393494 24.708595 -73.947968

v 19.305206 23.219604 -73.755013

v 16.002258 21.979767 -72.742340

v 5.291504 16.092285 -73.940918

v 7.472229 16.484833 -72.433990

v -0.947449 12.029297 -73.137085

v -3.977856 11.108196 -73.032425

v 0.509759 13.236420 -73.055130

v 3.930969 12.574707 -72.595520

v -3.916672 9.745453 -73.010345

v 21.964844 22.305542 -73.994812

v 19.412537 21.759674 -72.878632

v 5.550049 13.352905 -72.531921

v 20.569275 20.822426 -73.506165

v -3.862823 6.517019 -72.713318

v 18.744110 18.908493 -72.481934

v -4.578857 1.994278 -73.048592

v 17.966034 17.034882 -72.786652

v 16.280792 15.330170 -72.469177

v -4.066895 0.801933 -73.108711

v 15.105209 12.954742 -72.375549

v 12.519836 9.210159 -72.382416

v -0.937584 0.500854 -72.888855

v 2.907751 2.467468 -72.925171

v 6.377281 2.881042 -73.033417

v 11.506531 5.954926 -72.862305

v 13.855804 23.629150 -72.332367

v 14.195145 22.585388 -72.158989

v 9.478546 18.552505 -72.051399

v 14.847748 20.477966 -72.019699

v 0.616653 11.738403 -72.299805

v 18.004425 20.264923 -72.062370

v 7.643127 13.852921 -72.076836

v -2.401642 8.804871 -72.139771

v 14.635231 15.416443 -72.015213

v 4.463135 11.154068 -72.066147

v -2.210907 6.833435 -72.097534

v 11.283913 9.858215 -72.043541

v -3.104248 3.734718 -72.196762

v 7.837933 4.795868 -72.078575

v 2.690689 3.895447 -72.125778

v -2.775146 1.742279 -72.205482

f 1 2 3
f 3 4 1
f 5 1 4
f 2 6 7
f 3 2 7
f 6 8 7
f 3 9 4
f 3 7 9
f 10 11 8
f 7 8 11
f 12 4 9
f 9 13 12
f 14 12 13
f 7 15 9
f 11 15 7
f 13 9 16
f 13 16 14
f 15 16 9
f 17 14 16
f 16 18 17
f 19 20 11
f 15 11 20
f 20 21 15
f 22 21 20
f 18 16 23
f 24 22 20
f 16 15 21
f 21 23 16
f 18 23 25
f 25 26 18
f 27 22 24
f 21 22 27
f 28 23 21
f 26 25 29
f 27 28 21
f 29 25 30
f 28 30 23
f 25 23 30
f 31 28 27
f 30 28 32
f 32 28 31
f 32 33 30
f 34 29 30
f 33 34 30
f 35 32 31
f 33 32 36
f 36 32 35
f 36 34 33
f 34 36 37
f 38 39 40
f 39 41 40
f 42 40 43
f 43 44 42
f 43 40 41
f 38 45 46
f 46 39 38
f 47 48 49
f 41 50 43
f 50 47 43
f 39 51 41
f 48 47 50
f 46 51 39
f 41 51 50
f 48 50 52
f 51 53 50
f 54 51 46
f 52 50 55
f 53 55 50
f 55 53 56
f 51 54 57
f 57 58 51
f 59 58 57
f 53 51 56
f 55 56 60
f 58 56 51
f 59 61 58
f 61 62 58
f 62 56 58
f 60 56 63
f 64 60 63
f 62 65 56
f 66 62 61
f 65 63 56
f 63 67 64
f 68 62 66
f 63 65 1
f 62 68 69
f 65 62 69
f 1 65 2
f 1 5 63
f 67 63 5
f 65 69 6
f 2 65 6
f 67 5 70
f 6 69 71
f 12 5 4
f 70 5 12
f 71 10 6
f 10 8 6
f 12 72 70
f 73 70 72
f 14 72 12
f 72 17 73
f 74 11 10
f 72 14 17
f 19 11 74
f 18 75 17
f 19 74 76
f 76 20 19
f 77 75 18
f 76 24 20
f 24 76 78
f 77 18 26
f 26 79 77
f 79 80 77
f 26 29 79
f 24 78 81
f 81 82 24
f 24 82 27
f 80 79 83
f 27 82 84
f 29 83 79
f 27 84 31
f 83 29 85
f 85 29 34
f 85 86 83
f 86 87 83
f 31 84 35
f 88 35 84
f 85 34 89
f 36 35 88
f 88 37 36
f 37 89 34
f 85 89 90
f 91 86 92
f 93 94 37
f 94 89 37
f 86 85 90
f 37 88 95
f 95 93 37
f 94 90 89
f 86 90 96
f 96 92 86
f 94 96 90
f 92 97 91
f 98 91 97
f 99 96 94
f 96 100 92
f 100 101 92
f 97 92 101
f 97 102 98
f 103 96 99
f 103 104 96
f 100 96 104
f 97 101 102
f 104 105 100
f 101 100 105
f 105 106 101
f 102 101 106
f 107 108 109
f 109 110 107
f 110 111 107
f 112 113 114
f 112 111 110
f 110 113 112
f 115 114 113
f 109 108 116
f 110 109 117
f 118 113 110
f 116 117 109
f 118 110 117
f 113 119 115
f 118 119 113
f 117 116 120
f 120 121 117
f 118 117 121
f 118 122 119
f 123 121 120
f 124 38 123
f 123 40 121
f 40 42 121
f 121 122 118
f 45 38 124
f 38 40 123
f 42 44 121
f 44 122 121
f 122 44 125
f 122 125 126
f 126 127 122
f 125 44 43
f 43 47 125
f 47 49 125
f 126 125 49
f 128 126 49
f 129 46 45
f 49 48 128
f 128 48 52
f 46 129 130
f 52 131 128
f 54 46 130
f 57 54 130
f 131 52 132
f 57 130 133
f 52 55 132
f 133 134 57
f 134 59 57
f 55 135 132
f 59 134 136
f 135 55 60
f 60 137 135
f 59 136 138
f 138 61 59
f 137 60 64
f 64 139 137
f 61 138 140
f 66 61 140
f 140 141 66
f 64 142 139
f 142 64 67
f 66 141 68
f 67 143 142
f 144 68 141
f 144 69 68
f 67 70 143
f 69 144 71
f 145 146 143
f 70 145 143
f 71 144 147
f 70 73 145
f 145 73 148
f 149 10 147
f 71 147 10
f 148 73 17
f 149 150 10
f 10 150 74
f 17 75 148
f 148 75 151
f 74 150 152
f 152 76 74
f 77 151 75
f 153 151 77
f 154 76 152
f 76 154 78
f 80 153 77
f 80 155 153
f 78 154 156
f 80 157 155
f 78 156 81
f 157 80 83
f 158 84 82
f 83 87 157
f 87 159 157
f 81 158 82
f 160 159 161
f 159 87 162
f 161 159 162
f 91 87 86
f 91 162 87
f 163 160 161
f 164 84 158
f 84 164 88
f 161 162 98
f 88 164 95
f 98 162 91
f 161 165 163
f 98 165 161
f 166 93 95
f 166 167 93
f 93 168 94
f 167 168 93
f 165 98 102
f 168 99 94
f 102 169 165
f 99 168 103
f 102 170 169
f 103 168 171
f 171 104 103
f 170 102 106
f 106 172 170
f 173 105 104
f 105 174 106
f 174 172 106
f 173 174 105
f 175 176 177
f 178 179 180
f 176 180 179
f 179 181 176
f 177 176 182
f 183 177 182
f 178 184 108
f 108 107 178
f 179 178 107
f 181 182 176
f 185 108 184
f 181 114 182
f 183 182 114
f 179 107 111
f 181 179 111
f 112 114 181
f 115 183 114
f 181 111 112
f 115 186 183
f 115 187 186
f 187 115 119
f 188 187 119
f 189 120 190
f 120 116 190
f 188 119 191
f 192 124 193
f 189 193 124
f 120 189 124
f 120 124 123
f 119 127 191
f 127 119 122
f 192 45 124
f 129 45 192
f 194 127 126
f 194 126 128
f 128 195 194
f 130 129 196
f 195 128 131
f 131 132 197
f 198 133 130
f 198 134 133
f 132 199 197
f 134 198 200
f 199 132 135
f 201 136 200
f 136 134 200
f 202 199 135
f 202 135 137
f 138 136 201
f 201 203 138
f 137 204 202
f 140 138 203
f 204 137 139
f 204 139 142
f 142 205 204
f 142 206 205
f 206 142 143
f 141 207 144
f 206 143 146
f 144 207 147
f 147 207 208
f 209 146 145
f 209 145 148
f 210 209 148
f 208 149 147
f 208 211 149
f 212 210 148
f 211 150 149
f 148 151 212
f 213 152 150
f 214 212 151
f 214 151 153
f 215 154 213
f 152 213 154
f 216 214 153
f 155 216 153
f 154 215 217
f 155 218 216
f 156 154 217
f 156 217 219
f 155 157 218
f 218 157 220
f 156 219 81
f 81 219 221
f 220 157 159
f 222 220 159
f 158 81 221
f 222 159 160
f 223 222 160
f 160 163 223
f 163 224 223
f 225 164 158
f 163 226 224
f 164 225 95
f 165 226 163
f 225 166 95
f 226 165 169
f 168 167 227
f 171 168 227
f 228 169 170
f 171 227 229
f 229 104 171
f 229 173 104
f 170 172 230
f 170 230 228
f 174 231 172
f 231 230 172
f 174 173 231
f 232 175 233
f 176 175 234
f 176 234 180
f 233 175 235
f 233 236 237
f 238 237 236
f 235 175 177
f 236 233 235
f 184 178 180
f 239 236 240
f 235 177 183
f 236 235 241
f 241 240 236
f 239 240 242
f 241 235 183
f 242 240 243
f 240 241 243
f 241 183 186
f 190 116 185
f 116 108 185
f 186 243 241
f 243 186 187
f 244 189 245
f 245 189 190
f 244 193 189
f 191 246 188
f 193 247 192
f 246 191 127
f 129 192 247
f 127 194 246
f 248 129 247
f 248 196 129
f 249 194 195
f 195 250 249
f 195 251 250
f 196 252 130
f 195 131 251
f 197 251 131
f 252 253 198
f 252 198 130
f 199 254 197
f 253 200 198
f 201 200 253
f 199 202 254
f 201 253 255
f 203 201 255
f 255 256 203
f 204 257 202
f 258 140 256
f 203 256 140
f 257 204 205
f 205 259 257
f 258 260 141
f 141 140 258
f 259 205 206
f 207 141 260
f 206 261 259
f 206 146 261
f 146 209 261
f 208 207 262
f 261 209 210
f 210 263 261
f 211 208 262
f 264 263 210
f 210 212 264
f 264 212 265
f 211 262 266
f 211 266 150
f 265 212 267
f 213 150 266
f 212 214 267
f 268 267 214
f 214 216 268
f 266 269 215
f 266 215 213
f 268 216 270
f 215 269 217
f 217 269 271
f 218 270 216
f 271 219 217
f 271 272 219
f 273 220 222
f 273 222 274
f 219 272 221
f 221 272 275
f 274 222 223
f 276 221 275
f 221 276 158
f 224 277 223
f 278 158 276
f 225 158 278
f 277 224 226
f 226 279 277
f 280 225 278
f 225 280 166
f 281 166 280
f 226 282 279
f 167 166 281
f 282 226 169
f 227 167 281
f 228 282 169
f 283 227 281
f 283 284 227
f 284 229 227
f 285 228 230
f 173 229 284
f 230 286 285
f 173 284 287
f 286 230 231
f 231 173 287
f 287 288 231
f 286 231 288
f 289 290 291
f 291 292 289
f 291 290 232
f 293 294 295
f 291 232 296
f 292 291 297
f 292 298 299
f 299 294 293
f 296 297 291
f 297 298 292
f 298 294 299
f 294 300 295
f 296 238 297
f 298 297 238
f 294 298 301
f 301 302 294
f 300 294 302
f 234 232 303
f 232 234 175
f 296 232 233
f 233 237 296
f 237 238 296
f 302 304 300
f 305 234 303
f 238 239 298
f 239 301 298
f 306 302 301
f 180 305 307
f 234 305 180
f 239 238 236
f 304 302 306
f 308 184 307
f 307 184 180
f 309 184 308
f 306 301 239
f 184 309 185
f 310 185 309
f 306 239 242
f 242 311 306
f 306 312 313
f 306 311 312
f 314 245 310
f 185 310 245
f 245 190 185
f 187 242 243
f 315 311 242
f 245 314 244
f 242 187 316
f 315 242 316
f 188 316 187
f 317 193 244
f 247 193 317
f 246 194 318
f 248 319 320
f 319 248 247
f 249 318 194
f 196 248 320
f 320 252 196
f 251 321 250
f 321 251 197
f 197 254 321
f 202 322 254
f 322 202 257
f 258 323 260
f 324 257 259
f 323 325 260
f 207 260 325
f 324 259 261
f 326 324 261
f 325 327 207
f 327 262 207
f 327 328 262
f 326 261 263
f 263 329 326
f 329 263 264
f 328 330 262
f 331 329 264
f 265 331 264
f 266 262 330
f 331 267 332
f 331 265 267
f 330 333 266
f 333 269 266
f 268 332 267
f 269 334 271
f 218 335 270
f 335 218 220
f 220 336 335
f 336 220 273
f 271 334 272
f 273 337 336
f 337 273 274
f 338 337 274
f 272 334 275
f 339 338 274
f 274 223 339
f 340 339 223
f 223 277 340
f 280 278 341
f 342 279 282
f 280 341 343
f 281 280 343
f 281 343 344
f 283 281 344
f 282 345 342
f 344 346 283
f 282 228 345
f 284 283 346
f 346 347 284
f 228 285 345
f 284 347 348
f 287 284 348
f 349 350 290
f 290 289 349
f 290 350 351
f 289 352 349
f 353 290 351
f 352 289 292
f 292 299 352
f 354 352 299
f 299 293 354
f 295 355 293
f 355 354 293
f 232 290 353
f 295 356 355
f 295 357 356
f 357 295 300
f 358 356 357
f 353 359 303
f 353 303 232
f 358 357 360
f 358 360 361
f 300 362 357
f 360 357 362
f 362 300 304
f 362 363 360
f 361 360 363
f 305 303 359
f 361 363 364
f 305 365 307
f 364 363 366
f 308 365 367
f 365 308 307
f 362 366 363
f 367 309 308
f 304 306 313
f 368 362 304
f 313 368 304
f 364 366 369
f 362 370 366
f 310 367 371
f 367 310 309
f 370 372 366
f 369 366 372
f 369 373 374
f 371 375 310
f 312 376 313
f 368 313 376
f 375 314 310
f 362 368 370
f 373 369 372
f 376 377 368
f 370 368 377
f 373 372 378
f 315 379 311
f 312 311 379
f 379 377 376
f 376 312 379
f 370 377 380
f 244 314 375
f 375 381 244
f 372 370 380
f 380 378 372
f 377 379 382
f 316 382 315
f 379 315 382
f 380 377 383
f 382 383 377
f 382 316 384
f 384 316 188
f 244 381 317
f 384 385 382
f 188 246 384
f 386 385 384
f 384 246 386
f 247 317 387
f 318 386 246
f 319 247 387
f 320 319 387
f 249 388 318
f 389 320 387
f 388 249 250
f 252 320 389
f 321 388 250
f 389 390 252
f 253 252 390
f 390 391 253
f 392 321 254
f 392 254 322
f 256 255 393
f 258 256 393
f 393 323 258
f 394 257 324
f 395 328 327
f 330 328 395
f 395 333 330
f 329 331 396
f 396 331 397
f 398 331 332
f 331 398 397
f 399 269 333
f 332 400 398
f 400 332 268
f 399 401 269
f 401 334 269
f 400 268 402
f 270 402 268
f 334 401 403
f 404 402 270
f 404 270 335
f 335 336 404
f 405 336 337
f 275 334 406
f 406 407 275
f 276 275 407
f 407 408 276
f 276 408 409
f 276 409 278
f 410 277 279
f 278 409 341
f 279 411 410
f 279 342 411
f 412 343 341
f 343 412 413
f 342 414 411
f 343 413 344
f 415 344 413
f 346 344 415
f 414 342 345
f 346 415 347
f 347 415 416
f 285 414 345
f 347 416 417
f 286 418 414
f 414 285 286
f 417 348 347
f 348 417 419
f 418 286 288
f 287 348 419
f 419 420 287
f 288 287 420
f 421 349 352
f 352 422 421
f 350 423 424
f 423 350 349
f 349 421 423
f 425 422 352
f 424 351 350
f 352 354 425
f 426 425 354
f 426 354 355
f 353 351 424
f 424 427 353
f 356 428 355
f 356 429 428
f 356 358 429
f 358 361 429
f 429 361 430
f 359 427 431
f 427 359 353
f 361 432 430
f 361 433 432
f 433 361 364
f 431 434 359
f 305 359 434
f 435 433 364
f 305 436 365
f 436 305 434
f 364 437 435
f 438 367 365
f 365 436 438
f 437 364 369
f 439 437 374
f 367 438 440
f 369 374 437
f 440 371 367
f 441 375 371
f 371 440 441
f 374 442 439
f 373 442 374
f 442 373 443
f 444 443 373
f 444 373 378
f 441 445 375
f 375 445 381
f 380 446 378
f 383 382 447
f 383 448 380
f 446 380 448
f 383 447 448
f 381 449 317
f 449 381 445
f 447 382 385
f 387 317 449
f 449 450 387
f 451 386 318
f 318 452 451
f 450 389 387
f 450 453 389
f 452 318 388
f 388 454 452
f 454 388 455
f 389 453 456
f 388 321 455
f 390 389 456
f 321 392 455
f 391 457 253
f 255 253 457
f 458 392 322
f 457 393 255
f 257 394 322
f 459 323 393
f 459 460 323
f 324 461 394
f 325 323 460
f 460 462 325
f 461 324 326
f 325 462 327
f 327 463 395
f 463 327 462
f 464 461 326
f 326 329 464
f 463 465 395
f 463 466 465
f 395 465 333
f 467 464 329
f 468 465 466
f 467 329 469
f 333 465 468
f 469 329 396
f 468 399 333
f 396 470 469
f 397 470 396
f 397 471 470
f 471 397 398
f 399 472 401
f 401 472 473
f 473 474 401
f 398 400 471
f 475 470 471
f 401 474 403
f 402 471 400
f 476 334 403
f 336 477 404
f 477 336 405
f 406 334 476
f 405 478 477
f 405 337 478
f 337 479 478
f 337 338 479
f 479 338 339
f 339 480 479
f 339 340 480
f 407 481 408
f 340 482 480
f 482 340 277
f 481 483 408
f 482 277 410
f 408 483 484
f 484 409 408
f 409 484 483
f 410 485 482
f 486 409 483
f 341 409 486
f 411 485 410
f 486 412 341
f 411 487 485
f 412 488 413
f 413 488 415
f 415 488 489
f 490 415 489
f 490 489 491
f 411 414 487
f 416 415 490
f 416 490 417
f 418 420 492
f 487 418 492
f 418 487 414
f 418 288 420
f 493 421 422
f 422 494 493
f 493 423 421
f 422 495 494
f 495 422 425
f 426 495 425
f 496 423 493
f 355 497 426
f 424 423 496
f 497 355 428
f 498 424 496
f 430 499 429
f 424 498 427
f 500 499 430
f 430 432 500
f 501 427 498
f 432 502 500
f 501 431 427
f 432 503 502
f 503 432 433
f 504 431 501
f 434 431 504
f 433 505 503
f 435 505 433
f 506 505 507
f 507 508 506
f 507 505 435
f 509 434 504
f 435 437 507
f 509 436 434
f 437 439 507
f 507 510 508
f 510 511 508
f 510 507 439
f 436 512 438
f 510 439 513
f 438 441 440
f 441 438 512
f 512 514 441
f 513 439 442
f 515 441 514
f 510 513 516
f 442 516 513
f 516 517 510
f 445 441 515
f 443 516 442
f 518 519 444
f 443 444 519
f 516 443 519
f 444 378 446
f 446 518 444
f 518 446 520
f 520 446 521
f 445 522 449
f 448 521 446
f 448 447 523
f 523 524 448
f 524 525 448
f 525 521 448
f 447 385 526
f 523 447 526
f 522 527 449
f 386 526 385
f 450 449 527
f 526 386 528
f 386 451 528
f 450 527 529
f 451 452 530
f 453 450 529
f 454 531 452
f 454 532 531
f 529 533 453
f 532 454 534
f 456 453 533
f 533 535 456
f 455 534 454
f 536 534 455
f 537 456 535
f 390 456 537
f 455 392 536
f 391 390 537
f 457 391 537
f 538 458 322
f 322 394 538
f 394 461 539
f 539 461 540
f 460 541 462
f 461 542 540
f 463 462 541
f 464 542 461
f 541 543 463
f 544 542 464
f 466 463 543
f 544 464 545
f 545 464 467
f 546 547 466
f 472 468 466
f 472 466 547
f 399 468 472
f 467 469 548
f 473 472 547
f 547 546 549
f 550 547 549
f 469 470 548
f 474 473 551
f 551 473 547
f 547 550 551
f 552 548 470
f 470 475 552
f 551 553 474
f 550 554 551
f 554 550 555
f 555 556 554
f 475 557 552
f 403 474 553
f 551 554 553
f 558 403 553
f 559 553 554
f 475 560 557
f 560 475 471
f 560 471 402
f 553 559 558
f 561 560 402
f 476 403 558
f 561 402 404
f 404 562 561
f 404 563 562
f 477 563 404
f 481 406 476
f 477 564 563
f 477 478 564
f 565 478 479
f 479 480 565
f 407 406 481
f 478 566 564
f 566 478 565
f 567 564 566
f 568 565 480
f 480 482 568
f 569 483 481
f 567 566 570
f 566 568 570
f 568 566 565
f 569 571 483
f 485 568 482
f 483 571 572
f 572 486 483
f 568 573 570
f 573 568 485
f 574 575 576
f 577 578 576
f 579 580 570
f 581 412 486
f 412 581 488
f 581 574 488
f 570 573 579
f 487 573 485
f 576 489 574
f 576 491 489
f 491 576 578
f 574 489 488
f 492 582 579
f 492 579 573
f 583 491 578
f 583 578 584
f 492 584 582
f 490 491 583
f 583 584 492
f 573 487 492
f 585 583 492
f 490 583 417
f 583 585 417
f 420 585 492
f 417 585 419
f 585 420 419
f 493 586 587
f 586 493 494
f 494 495 586
f 495 426 588
f 426 497 588
f 493 587 496
f 428 589 497
f 589 428 429
f 589 429 499
f 499 500 590
f 500 502 590
f 498 591 501
f 591 498 592
f 503 505 502
f 593 502 505
f 501 594 504
f 501 595 594
f 595 501 591
f 596 593 505
f 506 596 505
f 506 508 596
f 597 596 508
f 508 598 597
f 504 599 600
f 504 594 599
f 601 599 594
f 594 595 601
f 504 600 509
f 508 511 598
f 600 599 602
f 603 599 601
f 511 604 598
f 605 598 604
f 599 603 602
f 509 606 512
f 512 436 509
f 512 606 514
f 607 602 603
f 608 602 607
f 511 609 604
f 609 610 604
f 604 610 611
f 606 612 514
f 613 614 615
f 615 616 613
f 613 616 617
f 618 514 612
f 611 610 619
f 620 615 614
f 515 514 618
f 510 517 511
f 609 511 517
f 609 621 610
f 616 622 617
f 616 623 622
f 619 610 624
f 620 625 615
f 625 626 615
f 616 615 626
f 623 627 622
f 619 624 625
f 625 620 619
f 623 616 626
f 628 609 517
f 624 626 625
f 623 626 629
f 630 515 618
f 627 623 629
f 629 631 627
f 515 630 445
f 517 516 519
f 628 517 632
f 626 633 629
f 519 518 634
f 634 635 519
f 519 632 517
f 520 634 518
f 632 519 635
f 630 522 445
f 632 635 636
f 637 632 636
f 520 521 638
f 525 639 521
f 639 638 521
f 525 524 639
f 640 522 630
f 630 641 640
f 528 642 526
f 523 526 642
f 642 643 523
f 643 524 523
f 524 643 639
f 640 527 522
f 531 644 645
f 530 531 645
f 529 527 640
f 530 452 531
f 640 641 646
f 533 640 646
f 644 532 647
f 532 644 531
f 533 529 640
f 647 534 648
f 647 532 534
f 649 533 646
f 650 648 534
f 533 649 535
f 534 536 650
f 535 649 537
f 650 536 651
f 537 649 652
f 536 392 651
f 537 652 457
f 651 392 458
f 458 653 651
f 652 654 457
f 457 654 655
f 653 458 538
f 457 655 393
f 459 393 655
f 538 394 656
f 656 394 657
f 460 459 655
f 655 658 460
f 657 394 539
f 539 659 657
f 659 660 657
f 661 460 658
f 662 660 663
f 659 663 660
f 659 539 540
f 661 662 664
f 664 662 663
f 541 460 661
f 665 661 664
f 542 659 540
f 541 661 665
f 664 663 665
f 663 659 542
f 666 541 665
f 663 667 665
f 663 542 667
f 542 544 667
f 543 541 666
f 665 668 666
f 665 667 668
f 667 669 668
f 667 544 669
f 544 545 669
f 670 669 545
f 666 546 543
f 666 668 546
f 466 543 546
f 545 467 670
f 670 671 669
f 668 549 546
f 549 668 669
f 669 671 549
f 467 548 670
f 670 548 671
f 548 672 671
f 550 549 555
f 549 671 555
f 548 552 672
f 555 671 556
f 556 671 672
f 673 556 672
f 672 552 673
f 673 554 556
f 559 476 558
f 554 673 559
f 552 674 673
f 552 557 674
f 674 557 560
f 560 675 674
f 675 560 561
f 561 562 675
f 476 559 676
f 676 559 673
f 675 677 674
f 562 677 675
f 673 678 676
f 476 676 481
f 674 679 673
f 674 677 680
f 562 563 677
f 679 678 673
f 674 680 679
f 567 677 563
f 563 564 567
f 569 676 678
f 481 676 569
f 571 569 678
f 680 677 567
f 571 678 679
f 680 567 577
f 572 571 679
f 680 575 679
f 679 575 681
f 576 575 680
f 580 567 570
f 572 681 486
f 681 572 679
f 577 576 680
f 567 580 577
f 581 486 681
f 574 681 575
f 574 581 681
f 577 584 578
f 584 577 580
f 579 582 580
f 580 582 584
f 588 497 589
f 682 495 588
f 588 683 682
f 499 684 589
f 586 685 587
f 586 495 682
f 499 590 684
f 686 684 590
f 590 687 686
f 502 687 590
f 687 502 593
f 592 498 496
f 592 496 587
f 593 596 687
f 688 687 596
f 688 597 689
f 597 688 596
f 592 690 591
f 691 689 597
f 595 591 690
f 592 692 690
f 693 694 695
f 597 605 691
f 696 691 605
f 695 694 697
f 698 693 695
f 698 695 699
f 605 597 598
f 697 696 700
f 701 698 699
f 702 690 692
f 700 696 605
f 695 697 700
f 699 703 701
f 601 595 690
f 690 702 601
f 703 704 701
f 705 706 707
f 708 706 705
f 706 709 707
f 600 602 509
f 710 601 702
f 700 711 695
f 695 711 699
f 703 699 711
f 605 712 700
f 711 613 703
f 704 703 617
f 706 713 709
f 713 714 709
f 715 509 602
f 700 716 711
f 617 703 613
f 717 718 708
f 706 708 718
f 715 606 509
f 607 603 601
f 712 605 604
f 700 712 716
f 602 719 715
f 720 607 601
f 720 601 710
f 713 721 714
f 722 714 721
f 612 606 715
f 719 602 608
f 604 611 712
f 613 711 614
f 723 717 724
f 718 717 723
f 723 725 718
f 706 718 726
f 721 727 722
f 728 607 720
f 716 614 711
f 622 729 617
f 724 729 622
f 725 726 718
f 713 706 730
f 730 721 713
f 715 731 612
f 715 719 731
f 719 608 728
f 728 608 607
f 720 710 732
f 724 622 723
f 727 721 733
f 733 734 727
f 720 732 728
f 710 735 732
f 611 619 712
f 716 620 614
f 622 627 723
f 728 732 719
f 716 712 619
f 627 725 723
f 730 706 726
f 733 721 730
f 620 716 619
f 733 736 734
f 612 731 618
f 609 737 621
f 610 621 624
f 738 719 732
f 726 725 739
f 730 740 741
f 741 733 730
f 733 742 736
f 742 743 736
f 731 744 618
f 737 609 628
f 725 627 739
f 739 745 726
f 726 740 730
f 741 742 733
f 731 719 744
f 738 732 735
f 624 621 737
f 740 726 746
f 618 744 630
f 735 747 738
f 631 748 627
f 739 627 748
f 749 726 745
f 749 746 726
f 741 740 746
f 719 738 744
f 628 750 737
f 624 737 751
f 751 626 624
f 633 626 751
f 633 752 629
f 748 631 753
f 754 738 755
f 738 747 755
f 750 751 737
f 631 629 752
f 628 632 637
f 750 628 637
f 744 738 641
f 756 755 747
f 757 633 751
f 752 753 631
f 738 754 641
f 520 638 758
f 758 759 520
f 759 634 520
f 759 760 634
f 635 634 760
f 761 750 637
f 744 641 630
f 755 645 754
f 645 755 756
f 762 639 763
f 639 762 758
f 758 638 639
f 636 635 760
f 760 764 636
f 751 750 765
f 757 751 765
f 757 766 633
f 766 767 633
f 752 633 767
f 753 752 767
f 643 763 639
f 637 636 764
f 761 765 750
f 644 754 645
f 756 530 645
f 756 768 530
f 642 769 770
f 770 643 642
f 643 770 763
f 637 764 771
f 761 637 771
f 765 761 772
f 773 766 757
f 530 768 451
f 642 528 769
f 771 772 761
f 767 766 774
f 775 641 754
f 754 644 775
f 528 451 768
f 768 769 528
f 774 766 773
f 776 641 775
f 776 646 641
f 647 775 644
f 648 775 647
f 775 648 776
f 648 650 776
f 646 777 649
f 777 646 776
f 776 778 777
f 650 778 776
f 650 779 778
f 651 779 650
f 649 780 652
f 780 649 777
f 780 777 778
f 654 652 780
f 779 781 778
f 651 653 779
f 778 781 780
f 656 781 779
f 653 538 779
f 654 782 655
f 654 780 782
f 779 538 656
f 783 780 781
f 780 783 782
f 784 781 656
f 781 784 783
f 656 657 784
f 655 782 658
f 783 658 782
f 658 783 784
f 662 658 784
f 784 660 662
f 660 784 657
f 661 658 662
f 785 588 589
f 589 786 785
f 786 589 684
f 683 787 682
f 683 588 785
f 686 687 788
f 789 685 586
f 789 586 682
f 687 688 788
f 788 688 790
f 789 682 787
f 689 790 688
f 791 587 685
f 685 789 791
f 792 789 787
f 790 689 793
f 592 587 791
f 793 689 691
f 794 793 691
f 795 791 789
f 694 796 794
f 796 694 693
f 789 797 798
f 794 691 697
f 697 694 794
f 799 796 693
f 692 592 791
f 789 798 795
f 696 697 691
f 693 698 799
f 799 698 800
f 791 795 692
f 800 698 701
f 701 801 800
f 797 802 798
f 802 797 792
f 803 801 701
f 803 701 704
f 804 705 707
f 805 804 707
f 707 709 805
f 806 692 795
f 807 795 798
f 808 803 704
f 692 806 702
f 704 809 808
f 708 809 717
f 805 709 810
f 798 811 807
f 811 798 802
f 809 704 617
f 810 709 714
f 710 702 806
f 809 617 729
f 729 717 809
f 810 714 812
f 812 714 722
f 729 724 717
f 812 722 727
f 813 812 727
f 735 710 806
f 727 734 813
f 811 814 815
f 735 806 795
f 807 811 815
f 813 734 736
f 816 795 807
f 817 807 815
f 807 817 816
f 795 816 735
f 736 743 818
f 748 745 739
f 742 741 819
f 743 742 818
f 735 816 747
f 817 815 820
f 748 821 745
f 819 822 742
f 822 818 742
f 821 749 745
f 741 746 823
f 823 824 741
f 819 741 824
f 825 747 816
f 817 820 826
f 827 828 829
f 749 821 830
f 749 830 746
f 826 816 817
f 758 829 828
f 830 823 746
f 756 747 825
f 820 829 762
f 829 758 762
f 753 821 748
f 831 816 826
f 820 762 826
f 758 828 832
f 830 821 833
f 825 816 831
f 763 826 762
f 758 832 759
f 760 759 832
f 834 760 832
f 825 831 756
f 826 763 770
f 764 760 834
f 753 835 821
f 833 821 835
f 831 768 756
f 768 831 826
f 826 769 768
f 826 770 769
f 764 834 836
f 753 837 835
f 836 771 764
f 757 765 838
f 757 838 773
f 837 753 767
f 765 772 839
f 838 765 839
f 839 840 838
f 773 838 840
f 837 767 841
f 771 836 842
f 772 771 842
f 842 843 772
f 839 772 843
f 773 840 844
f 773 844 774
f 767 774 845
f 845 841 767
f 844 845 774
f 846 786 684
f 684 847 846
f 684 686 847
f 785 848 849
f 848 785 786
f 686 850 847
f 849 683 785
f 850 686 788
f 787 683 849
f 790 851 788
f 849 848 852
f 852 787 849
f 790 793 851
f 851 793 853
f 792 787 852
f 853 793 794
f 794 854 853
f 796 854 794
f 797 789 792
f 796 799 854
f 800 801 799
f 852 855 856
f 857 792 852
f 803 858 801
f 804 859 860
f 852 856 857
f 808 858 803
f 808 861 858
f 705 860 861
f 860 705 804
f 804 805 859
f 792 857 802
f 809 861 808
f 809 708 861
f 705 861 708
f 856 862 857
f 810 812 805
f 811 802 857
f 814 811 857
f 857 862 814
f 862 863 864
f 862 864 814
f 864 815 814
f 863 865 864
f 736 866 813
f 820 815 864
f 820 864 865
f 866 736 818
f 865 867 827
f 822 868 818
f 868 866 818
f 820 865 829
f 829 865 827
f 867 828 827
f 828 867 869
f 832 828 869
f 832 869 870
f 822 819 871
f 872 832 870
f 872 834 832
f 834 872 873
f 824 871 819
f 823 830 874
f 824 823 874
f 874 871 824
f 875 834 873
f 833 874 830
f 836 834 875
f 833 835 876
f 836 875 842
f 842 875 877
f 837 878 835
f 878 876 835
f 839 877 879
f 879 840 839
f 840 879 880
f 843 842 877
f 843 877 839
f 840 880 881
f 881 844 840
f 881 845 844
f 841 845 881
f 881 882 841
f 878 837 882
f 841 882 837
f 786 883 848
f 786 846 883
f 884 846 847
f 884 847 850
f 850 885 884
f 886 885 850
f 886 850 788
f 887 886 788
f 887 788 851
f 846 884 888
f 846 888 883
f 851 889 887
f 848 883 852
f 889 851 853
f 883 890 852
f 853 854 889
f 891 852 890
f 892 893 854
f 892 854 799
f 855 852 891
f 892 799 801
f 801 894 892
f 801 858 894
f 858 895 894
f 858 861 896
f 896 895 858
f 861 860 896
f 859 805 897
f 855 898 856
f 898 855 891
f 812 897 805
f 898 862 856
f 898 863 862
f 897 812 899
f 863 898 900
f 813 899 812
f 899 813 901
f 900 902 863
f 903 863 902
f 863 903 865
f 866 901 813
f 866 904 901
f 865 903 867
f 903 902 905
f 866 906 904
f 903 869 867
f 905 869 903
f 872 905 907
f 866 868 906
f 905 872 869
f 908 906 868
f 873 872 907
f 909 873 907
f 822 908 868
f 869 872 870
f 871 910 822
f 910 908 822
f 875 873 909
f 871 911 910
f 874 911 871
f 909 877 875
f 909 912 877
f 879 877 912
f 913 911 874
f 874 833 914
f 914 913 874
f 833 876 915
f 915 914 833
f 882 881 916
f 916 917 882
f 917 878 882
f 917 915 878
f 876 878 915
f 886 918 885
f 918 886 919
f 919 886 887
f 884 885 888
f 887 920 919
f 887 889 920
f 921 888 885
f 921 883 888
f 922 921 885
f 889 923 920
f 890 883 921
f 893 889 854
f 923 889 893
f 890 921 924
f 892 925 893
f 891 890 924
f 892 926 925
f 926 892 894
f 894 927 926
f 927 894 895
f 896 928 895
f 928 896 929
f 929 896 860
f 860 930 929
f 930 860 859
f 859 897 930
f 895 928 927
f 897 931 930
f 924 932 891
f 898 891 932
f 897 899 931
f 932 900 898
f 899 933 931
f 900 932 902
f 934 902 932
f 899 901 933
f 902 934 935
f 901 936 933
f 905 902 935
f 937 905 935
f 901 938 936
f 901 904 938
f 937 907 905
f 907 937 939
f 939 940 907
f 904 941 938
f 941 904 908
f 908 904 906
f 909 907 940
f 909 940 942
f 910 943 941
f 908 910 941
f 912 909 942
f 943 910 911
f 944 943 911
f 879 912 942
f 880 879 942
f 942 945 880
f 946 944 913
f 944 911 913
f 881 880 945
f 916 881 945
f 946 913 914
f 946 914 915
f 915 917 947
f 919 948 918
f 918 922 885
f 948 919 920
f 949 922 918
f 918 948 949
f 950 948 920
f 922 949 951
f 949 948 952
f 948 950 952
f 953 949 952
f 954 921 922
f 954 922 951
f 949 953 951
f 920 955 950
f 955 920 923
f 923 893 956
f 952 957 953
f 923 956 955
f 954 924 921
f 893 925 956
f 958 951 953
f 959 953 957
f 930 960 929
f 954 951 961
f 962 951 958
f 958 953 959
f 959 963 958
f 926 964 965
f 964 926 927
f 966 929 960
f 930 931 967
f 932 924 954
f 961 951 962
f 926 965 925
f 928 929 968
f 929 966 968
f 960 930 967
f 958 963 962
f 969 927 928
f 969 928 968
f 967 931 970
f 954 961 932
f 927 969 964
f 932 961 934
f 962 971 961
f 972 962 963
f 969 973 964
f 933 970 931
f 962 974 971
f 974 962 972
f 970 933 975
f 961 971 934
f 935 934 971
f 974 972 976
f 935 971 974
f 933 936 975
f 937 935 974
f 974 939 937
f 939 974 976
f 936 977 975
f 938 977 936
f 939 976 978
f 978 940 939
f 940 978 979
f 938 980 977
f 942 940 979
f 981 942 979
f 980 938 941
f 982 942 981
f 943 983 980
f 980 941 943
f 982 945 942
f 916 945 982
f 984 983 944
f 943 944 983
f 984 946 985
f 984 944 946
f 915 985 946
f 916 986 917
f 917 986 947
f 985 915 947
f 957 952 950
f 950 987 957
f 987 950 955
f 957 987 959
f 959 987 988
f 988 987 955
f 989 955 956
f 956 925 989
f 989 988 955
f 990 988 989
f 925 965 989
f 988 990 963
f 963 959 988
f 991 968 966
f 967 970 960
f 968 991 969
f 991 966 960
f 963 992 972
f 965 993 989
f 994 991 960
f 994 960 970
f 992 963 990
f 995 990 989
f 965 973 993
f 973 965 964
f 996 969 991
f 970 975 994
f 990 995 992
f 989 993 995
f 973 996 993
f 996 973 969
f 996 991 994
f 997 994 975
f 976 972 992
f 994 997 996
f 992 995 976
f 993 998 995
f 993 996 998
f 975 999 997
f 978 976 995
f 995 979 978
f 1000 996 997
f 977 999 975
f 995 981 979
f 997 999 1001
f 1000 997 1001
f 1002 999 977
f 981 995 998
f 999 1002 1001
f 998 996 1000
f 982 981 998
f 980 1002 977
f 983 1001 1002
f 982 998 1000
f 983 1002 980
f 984 1001 983
f 986 982 1000
f 985 1001 984
f 916 982 986
f 985 1000 1001
f 1000 947 986
f 947 1000 985
