v 70.652390 85.394348 -73.482956

v 69.148026 88.776581 -71.769249

v 81.984688 92.139847 -73.427551

v 66.086807 77.547417 -69.798508

v 71.341194 78.604584 -73.463852

v 91.128799 74.529312 -73.456207

v 100.612640 88.110214 -73.365570

v 85.923325 71.080353 -70.450180

v 50.822845 60.523102 -71.709686

v 59.750671 60.514221 -73.340637

v 55.641922 58.200485 -73.650665

v 106.287720 87.567474 -71.333466

v 109.149277 79.941505 -73.265556

v 94.932373 66.980896 -73.478302

v 54.416687 49.897339 -71.774910

v 82.669525 58.900330 -73.530556

v 91.718613 69.974022 -71.720375

v 74.754517 45.600014 -73.579033

v 61.097824 40.718494 -73.551735

v 110.368866 66.355324 -73.322739

v 92.404434 60.346939 -73.466965

v 101.148483 54.435017 -73.446709

v 67.232040 39.570873 -72.459198

v 85.518951 48.748337 -73.544632

v 82.967972 46.417847 -72.413597

v 108.841057 59.568100 -72.879471

v 92.354576 48.207657 -73.032982

v 99.800255 52.740749 -71.380463

v 55.538727 87.365448 -69.761047

v 60.342621 92.624237 -71.551361

v 60.017494 86.290573 -71.576981

v 78.939514 97.192444 -69.830322

v 91.667969 94.742676 -70.014404

v 99.618835 92.235352 -70.520508

v 32.652771 50.218056 -71.839157

v 39.160217 59.189743 -69.805176

v 73.898788 73.297607 -69.746506

v 52.674572 64.232193 -69.825821

v 43.000565 43.186729 -71.780182

v 29.749847 46.171387 -70.010223

v 41.087341 41.224396 -69.993332

v 76.826996 63.414421 -69.763573

v 50.284634 41.469925 -71.693321

v 89.201965 63.469604 -71.373901

v 86.617676 64.240814 -69.749641

v 58.370281 39.706341 -71.446503

v 110.354645 76.942291 -69.242706

v 110.810394 72.656143 -69.994164

v 111.250183 67.384308 -70.070610

v 65.353775 41.326080 -69.169617

v 75.387779 44.871574 -70.168434

v 107.028931 59.612511 -70.137650

v 84.732475 47.031586 -66.329979

v 94.827454 52.533947 -66.886765

v 49.822418 96.778534 -69.653900

v 64.428261 103.917908 -67.913696

v 67.810822 101.406342 -69.520103

v 43.302475 92.368637 -67.943588

v 47.133438 86.568092 -69.672516

v 60.341103 95.160461 -69.732117

v 53.954346 79.346130 -69.699722

v 81.768677 101.806641 -67.826508

v 81.833710 99.600586 -69.362732

v 50.127930 79.230667 -67.885406

v 43.069984 71.037552 -69.771507

v 32.592804 67.298943 -65.987869

v 90.980621 97.837616 -67.774597

v 34.430420 60.971252 -66.564697

v 27.876770 55.336792 -66.154297

v 33.219391 40.720100 -69.561539

v 110.019966 83.343307 -67.760292

v 50.214355 39.752052 -68.666138

v 108.392792 74.741089 -65.529633

v 107.395386 66.910690 -69.183838

v 102.497253 60.372501 -69.114189

v 46.478638 99.745880 -67.296082

v 55.072418 103.868164 -67.194946

v 37.892700 89.310585 -67.789780

v 65.653519 106.160034 -67.280029

v 71.572418 106.900574 -67.481010

v 34.618713 90.351517 -65.961670

v 40.274048 73.313042 -67.863037

v 86.593864 103.715363 -67.185059

v 34.716309 75.665619 -64.600845

v 102.683586 94.530182 -64.363861

v 24.590607 47.300064 -66.008408

v 105.472710 90.406769 -65.329468

v 27.985931 41.328285 -66.401436

v 34.782829 36.738342 -64.316055

v 46.643501 33.576851 -64.251396

v 61.122147 39.210457 -66.192291

v 104.275848 66.337448 -66.111237

v 74.346497 44.338669 -66.334656

v 99.162521 57.569305 -66.526093

v 47.556122 105.751465 -62.312500

v 36.048462 98.678772 -63.286987

v 65.598999 108.580017 -64.235321

v 75.758133 109.400848 -64.163391

v 32.259247 86.685997 -65.703247

v 87.271271 105.388672 -64.313782

v 30.526184 71.747177 -63.759834

v 28.831039 65.337051 -63.637115

v 21.097427 40.694939 -64.256577

v 58.377121 33.943970 -65.821793

v 58.822380 30.933624 -64.078468

v 68.159897 34.437653 -65.909607

v 63.504211 31.789581 -62.779922

v 86.585083 47.986454 -64.326187

v 81.821838 39.689011 -64.114014

v 28.452759 92.941071 -61.462494

v 66.109650 112.076904 -63.379272

v 29.469055 83.351158 -63.720215

v 80.727966 112.330383 -63.529541

v 84.401550 114.631165 -61.740616

v 94.185654 99.159866 -61.971123

v 27.190338 65.275482 -60.613049

v 26.012146 54.005890 -62.854050

v 100.227928 98.855408 -61.405243

v 22.313652 48.148605 -62.594620

v 19.885193 27.217171 -64.199333

v 16.299942 30.696442 -61.829399

v 105.037308 89.135757 -58.432381

v 28.597450 29.775375 -64.185753

v 107.513092 83.073708 -58.878197

v 23.637207 24.584930 -62.327351

v 32.792892 26.551773 -62.297127

v 102.222992 69.546471 -61.602325

v 37.146332 27.008949 -64.178055

v 97.715775 63.266518 -62.613548

v 92.944733 57.235645 -63.084663

v 38.888443 18.592926 -62.368263

v 86.635681 52.581856 -62.159554

v 42.875656 20.371460 -64.167618

v 68.200768 31.953690 -64.091324

v 44.738297 18.391174 -62.447601

v 74.258682 27.841965 -63.936893

v 66.642059 24.058533 -63.302078

v 82.509918 35.093334 -63.852764

v 81.978615 27.809105 -63.469028

v 33.209412 101.220428 -61.426636

v 53.817627 112.237671 -58.922852

v 66.453613 118.313843 -55.624512

v 81.016617 115.837463 -60.736328

v 25.825500 86.449982 -58.869873

v 28.426537 74.078354 -60.725502

v 94.520691 113.075195 -60.128433

v 96.637459 107.608353 -61.715038

v 24.509064 58.738342 -60.501358

v 16.303833 52.034729 -59.944305

v 17.756989 48.855911 -62.106583

v 18.544464 42.493622 -62.474533

v 102.262566 95.730972 -58.743801

v 15.879608 43.342377 -61.727386

v 14.012497 33.756287 -61.817947

v 10.389908 42.428665 -59.754456

v 21.404465 23.739677 -61.279850

v 26.606331 13.917412 -61.118637

v 95.890694 59.320702 -59.951523

v 34.551708 10.619022 -62.197906

v 86.043839 47.223923 -60.624023

v 45.238144 14.693680 -62.274418

v 58.651680 26.327118 -61.904915

v 85.310944 38.435947 -59.951385

v 63.510578 24.028761 -61.663017

v 53.704926 20.449011 -61.646294

v 46.350826 13.958843 -61.139771

v 69.481644 25.363800 -61.173584

v 66.346878 17.879059 -60.339302

v 81.172981 26.419579 -60.683167

v 33.142212 102.962463 -58.838684

v 28.635712 95.893188 -59.183350

v 24.945663 76.240234 -59.534164

v 83.898842 115.269501 -57.708195

v 90.062035 113.915939 -58.319191

v 24.051270 66.511917 -60.018906

v 20.599213 66.460541 -57.741425

v 98.714531 103.033081 -58.252296

v 104.392509 76.004654 -54.729168

v 25.089539 21.596054 -57.541962

v 93.396355 54.272141 -59.579895

v 90.283340 46.562607 -59.586243

v 37.353561 11.353012 -58.568542

v 59.006317 24.088821 -58.329758

v 73.786522 20.735840 -55.844360

v 69.111771 17.471329 -57.327232

v 80.304161 23.247772 -58.114716

v 37.324280 108.870300 -57.484680

v 29.106873 101.852539 -57.136658

v 24.746796 95.055740 -55.343048

v 21.790466 81.148438 -55.070160

v 78.892792 118.452576 -54.814514

v 93.545845 104.002365 -57.725845

v 14.781624 57.449646 -57.436691

v 12.867188 51.688278 -57.640717

v 11.781265 47.236172 -56.929596

v 99.888092 90.300194 -57.663605

v 11.329369 37.652863 -56.836571

v 18.684967 31.112358 -56.601631

v 22.861404 25.661848 -55.039112

v 101.654411 69.129372 -54.837112

v 30.653320 16.993561 -57.264069

v 57.469109 17.509727 -55.497177

v 86.154533 36.055191 -52.866795

v 83.691498 32.239845 -52.801147

v 63.524452 14.145209 -57.299950

v 32.242065 107.086243 -54.478149

v 41.256531 113.157898 -53.758850

v 58.218872 119.665283 -53.007507

v 21.146973 87.761505 -53.934906

v 20.553040 70.656097 -55.092224

v 88.013641 108.389656 -53.302368

v 15.122482 62.320480 -54.536652

v 14.634361 54.283920 -54.206276

v 96.088181 94.203751 -51.493782

v 100.860420 84.488083 -53.809822

v 19.011230 40.820953 -54.448151

v 99.136246 60.962196 -52.527390

v 97.242088 57.175465 -53.685638

v 94.564377 51.950573 -52.921577

v 91.992592 44.943523 -53.428398

v 34.931183 14.236237 -55.352753

v 45.241287 11.358566 -55.284851

v 88.580505 39.141201 -53.454361

v 81.330826 23.985575 -55.079727

v 76.601669 20.311611 -52.869381

v 73.966705 124.112793 -50.849365

v 15.747864 68.687836 -51.972717

v 100.068787 73.540909 -53.682083

v 29.875839 21.941254 -54.599659

v 30.866968 31.069305 -50.825172

v 100.725571 64.883057 -50.874168

v 37.572296 17.744751 -52.862366

v 46.227966 13.740646 -52.888611

v 53.053528 16.149109 -52.447754

v 60.301895 16.921906 -52.323715

v 62.597183 14.384995 -53.243595

v 68.863678 20.566940 -52.686298

v 33.264038 113.306396 -51.252686

v 39.157166 118.423157 -50.469818

v 25.402298 100.979622 -50.857674

v 53.179688 123.281494 -50.069031

v 63.214706 124.978638 -50.963470

v 21.525627 91.660309 -50.828529

v 16.956024 82.925774 -50.889473

v 80.401451 120.449997 -49.479370

v 89.781921 108.421249 -50.232178

v 17.065475 51.853333 -50.256714

v 18.790283 46.725098 -51.370941

v 99.970703 84.250259 -51.207840

v 23.384186 38.759750 -50.967110

v 100.430878 74.962906 -50.644215

v 40.004120 19.924347 -52.456299

v 90.342133 47.908455 -51.914917

v 87.120605 41.878479 -52.406738

v 81.377464 43.618835 -49.266281

v 76.963303 33.187576 -52.408119

v 49.314621 18.119125 -50.742741

v 29.413757 112.709145 -49.533875

v 25.188019 107.426842 -50.195099

v 46.140232 122.093567 -49.369446

v 16.833092 94.266708 -50.408428

v 67.870636 126.797760 -49.268921

v 14.355484 88.790207 -50.355339

v 12.358131 80.372627 -50.316639

v 85.357239 114.614372 -49.074493

v 12.306175 68.826996 -50.145252

v 12.797468 61.543701 -47.206711

v 96.217102 101.799454 -48.992920

v 100.529663 93.210876 -49.323517

v 103.229309 83.778931 -50.049866

v 31.685587 37.484772 -50.614243

v 106.559128 72.385368 -50.045746

v 104.912689 67.980934 -49.956375

v 45.463104 31.276951 -50.634926

v 94.414078 54.360657 -46.723259

v 56.127541 31.135696 -46.940453

v 59.415928 27.653809 -50.471756

v 85.151772 49.104660 -46.874428

v 74.596619 35.026051 -50.659336

v 67.338181 35.667267 -50.529785

v 69.809280 26.736694 -50.642479

v 40.037933 122.772400 -40.937439

v 48.302223 122.842117 -45.612152

v 16.981812 103.769989 -44.067261

v 20.015564 110.062683 -41.356812

v 61.167866 128.263855 -43.515961

v 14.858093 97.688309 -46.149902

v 69.210037 125.924194 -45.908585

v 12.358902 91.973167 -46.325836

v 10.990524 83.316292 -47.532562

v 77.865479 121.541473 -46.140320

v 10.645584 72.873367 -47.716660

v 9.855381 67.446396 -45.916695

v 92.206612 106.689842 -45.023865

v 26.147705 48.991852 -46.461792

v 108.599442 80.402657 -47.267181

v 43.744995 34.867683 -47.265991

v 108.782562 73.337044 -44.525604

v 103.579468 65.285820 -45.126778

v 68.271179 45.245956 -46.197128

v 63.507301 39.274826 -48.342087

v 100.430206 58.832779 -44.846069

v 57.700813 37.489304 -46.511086

v 8.576721 85.773819 -46.287186

v 6.011414 76.822243 -44.244293

v 18.534286 56.461517 -45.741608

v 100.164513 95.912025 -43.657623

v 106.725342 84.036667 -43.355057

v 35.371582 43.048317 -46.269348

v 41.670517 39.512192 -46.424774

v 43.026611 40.507263 -43.821899

v 80.404938 53.937126 -44.443623

v 79.814621 51.203094 -46.573074

v 87.145424 55.306343 -46.219006

v 76.121872 51.428505 -44.948116

v 46.676697 125.814941 -41.636841

v 27.774178 116.589661 -39.156982

v 54.634361 129.221130 -41.488159

v 12.152588 97.153030 -42.687653

v 75.861572 126.629593 -41.134308

v 6.304276 87.765358 -42.183762

v 36.409546 47.757874 -40.795288

v 108.103928 77.116913 -42.851791

v 58.619728 39.753006 -43.238808

v 109.395645 69.272629 -43.914642

v 66.558617 42.757969 -42.795132

v 86.486771 54.896873 -42.914474

v 77.930855 49.934044 -42.896252

v 93.294106 54.711227 -43.172199

v 108.301094 64.929390 -43.980530

v 106.860817 60.806133 -44.110558

v 14.571205 104.272995 -40.973694

v 70.060493 133.365234 -38.914368

v 83.262085 120.152138 -41.040771

v 5.257460 74.442894 -39.666779

v 93.041153 107.378250 -39.232483

v 9.866081 67.887573 -39.880524

v 15.724808 61.922302 -38.865540

v 20.940613 57.556931 -38.882996

v 33.073639 51.282593 -37.461914

v 46.196503 42.521881 -41.524078

v 57.501053 42.142242 -40.031403

v 109.667999 71.757820 -38.707809

v 75.962891 44.339554 -42.321083

v 84.698288 47.383297 -42.656754

v 107.747345 65.200233 -37.602516

v 103.738251 60.070324 -36.551571

v 102.002144 56.023296 -41.971416

v 91.673126 48.747574 -41.355339

v 6.200401 92.344444 -34.273865

v 77.983093 129.416656 -40.005981

v 3.451381 79.769196 -38.756378

v 102.477585 89.903366 -39.325623

v 107.065613 79.219269 -39.331947

v 63.401096 42.419483 -34.533894

v 72.395096 42.288216 -33.844398

v 82.791672 44.261089 -37.448044

v 37.433289 125.699677 -34.781921

v 26.492981 119.175049 -34.269043

v 54.128540 131.671509 -37.785400

v 60.541622 133.011200 -36.398132

v 76.680756 133.451141 -33.058899

v 86.417679 120.869751 -37.022614

v 82.417404 126.602814 -34.335266

v 91.572266 115.130859 -37.784058

v 94.595551 111.101425 -37.967590

v 98.359467 105.354218 -38.592255

v 98.104721 107.883347 -37.618614

v 103.017685 99.302658 -37.677704

v 105.386963 90.862305 -38.626404

v 108.753952 87.282860 -37.775101

v 41.070908 46.400513 -38.102844

v 111.363853 78.482368 -38.241112

v 52.812492 44.083038 -37.068771

v 101.414185 54.931217 -34.152847

v 44.339294 129.488525 -34.186646

v 68.749916 135.070038 -32.457672

v 13.569304 68.282776 -35.352959

v 20.440418 62.624832 -36.168419

v 101.728394 102.216972 -33.580139

v 30.036911 55.520416 -34.301758

v 44.010487 48.006832 -35.926506

v 111.609741 71.615334 -33.725437

v 110.313133 67.040077 -33.450909

v 17.794159 111.515396 -32.532928

v 12.796494 102.584724 -34.137421

v 4.981887 77.291748 -27.708691

v 88.714386 124.651520 -31.753754

v 93.792778 117.170868 -32.355286

v 97.407440 110.383331 -32.790348

v 108.091461 89.900276 -33.522575

v 40.214508 50.620033 -21.999413

v 109.593056 85.120071 -33.276672

v 111.247437 78.161797 -33.288689

v 52.987984 43.782253 -32.830582

v 107.053139 62.550953 -34.110992

v 103.659012 58.124737 -33.753319

v 86.652573 45.296539 -33.394730

v 78.296631 41.287773 -33.302132

v 98.620880 51.964981 -33.406006

v 50.091534 131.763565 -26.123779

v 64.217720 135.386185 -28.910492

v 9.131927 100.930023 -30.733582

v 82.734009 131.037735 -31.409027

v 9.564728 69.794373 -28.241730

v 13.221100 64.715065 -24.399597

v 103.495628 91.619476 -32.560291

v 105.114479 82.606468 -32.593773

v 103.653793 72.515663 -32.736515

v 58.907768 39.535137 -31.834522

v 64.147751 37.063946 -32.677353

v 103.133087 66.993111 -32.129604

v 74.384735 35.674797 -33.015072

v 83.874214 36.482464 -32.952751

v 94.439369 42.099144 -32.975967

v 97.772095 45.529652 -31.150646

v 31.263641 126.020905 -28.748169

v 19.866058 118.934113 -28.524536

v 41.489792 129.906387 -27.000061

v 13.512024 111.020432 -29.288727

v 55.362087 133.294922 -23.871941

v 73.925140 132.874969 -25.458862

v 80.757454 132.355392 -25.501923

v 5.626891 88.238541 -26.883059

v 22.499634 60.720551 -28.126343

v 97.014870 103.035477 -27.092140

v 98.189087 96.854683 -27.127378

v 99.816742 90.411400 -27.173813

v 102.411987 85.403984 -28.996490

v 102.458260 80.523697 -26.821930

v 55.742329 44.309097 -25.880157

v 64.964798 37.199738 -30.160095

v 101.384880 57.768826 -26.970375

v 75.933945 35.289932 -30.184860

v 98.514946 51.380806 -27.039616

v 89.620010 38.063557 -30.080660

v 7.197987 97.078262 -26.731293

v 94.580910 111.882050 -26.696754

v 30.425869 54.662109 -23.664230

v 45.760017 47.531261 -26.570313

v 67.025169 39.449615 -28.465256

v 77.950653 38.270370 -28.543671

v 94.502617 45.202229 -27.721102

v 85.184494 38.877682 -27.889740

v 21.390018 120.247505 -24.211365

v 29.398254 125.547394 -21.026932

v 14.724457 113.998512 -24.298828

v 7.940384 106.693626 -23.308777

v 64.844414 133.129242 -25.688263

v 85.961098 129.257263 -23.115845

v 90.072891 121.607239 -24.381760

v 105.837402 72.912018 -25.510132

v 105.977539 66.546463 -25.652374

v 74.281029 38.532124 -24.627975

v 80.907761 37.653870 -24.470894

v 4.013786 98.829689 -23.258804

v 0.429874 83.416672 -22.534355

v 1.059064 75.608337 -22.740370

v 94.964981 112.900162 -23.458160

v 97.309052 106.411781 -22.812317

v 22.961205 58.125114 -22.609661

v 100.087288 96.184799 -21.799347

v 51.449207 48.148777 -23.387648

v 106.307579 79.877663 -23.260254

v 67.820770 41.408466 -21.644148

v 105.820419 55.976685 -24.694523

v 102.493279 52.382896 -24.578568

v 99.290962 48.764957 -24.449594

v 94.958145 43.997517 -24.233833

v 86.072624 37.656059 -24.194660

v 14.141815 117.741470 -19.225830

v 37.583630 130.342682 -18.058975

v 45.160007 131.751434 -16.384857

v 3.330792 69.630676 -18.963921

v 13.462555 63.193352 -22.510406

v 103.606812 85.968887 -20.852112

v 107.886559 74.521561 -22.123081

v 58.169624 43.752762 -22.342651

v 108.416496 69.123001 -21.837048

v 108.053886 62.864437 -21.973907

v 74.849884 41.098404 -21.909105

v 105.728859 58.328999 -21.820726

v 83.214157 40.974304 -23.090603

v 96.156448 49.188225 -21.800634

v 9.667244 112.249420 -18.873383

v 53.866913 132.859451 -17.615234

v 61.799015 132.245590 -15.850739

v 69.497070 131.333511 -16.052429

v 80.672852 128.555222 -19.091949

v 2.084740 86.476219 -18.469559

v 85.153442 119.327484 -18.333710

v 93.145020 105.089111 -18.042114

v 12.135590 59.146877 -18.935711

v 20.861198 55.583672 -20.736198

v 96.970367 97.060783 -18.763672

v 34.837048 48.932823 -18.363304

v 103.485611 79.252045 -20.271988

v 51.409256 43.720318 -20.275986

v 102.019257 66.858521 -21.324152

v 54.940945 41.987907 -17.379021

v 66.271469 40.169132 -19.066792

v 98.773018 55.833374 -21.235653

v 79.805893 39.911057 -18.494362

v 88.948151 44.415955 -18.558786

v 26.443741 126.084106 -18.134590

v 3.111842 97.487175 -14.125603

v 2.066811 77.679169 -18.375374

v 5.675903 64.531815 -18.286514

v 100.026932 87.911873 -18.616394

v 43.344742 45.808258 -17.868269

v 101.710815 73.204590 -17.689270

v 98.248436 67.507713 -14.706871

v 98.286461 61.721123 -17.896057

v 95.718437 52.601021 -18.110315

v 73.976723 38.783760 -17.913906

v 13.989838 118.163086 -13.359070

v 6.913991 109.070503 -8.827938

v 4.086185 104.340729 -12.287107

v 77.459641 127.900146 -15.564819

v 91.097153 105.907898 -15.871567

v 10.940136 59.422722 -15.165222

v 92.884140 100.651550 -13.677032

v 97.404602 90.816376 -14.492065

v 100.094604 76.909027 -14.024464

v 67.895638 41.162292 -15.921234

v 91.568214 54.363049 -17.358822

v 85.702431 45.469978 -17.020025

v 25.633148 121.985107 -10.097595

v 0.971027 92.967690 -12.808208

v 0.650912 84.875122 -12.377991

v 1.491357 72.454704 -9.847208

v 21.128334 54.537888 -14.806107

v 33.116650 49.366631 -13.155609

v 43.088753 48.670952 -13.550423

v 50.738396 47.386509 -13.752076

v 58.722435 45.739708 -14.378288

v 92.762451 58.810310 -14.145922

v 87.392754 50.859676 -14.146227

v 76.079506 42.077278 -13.916779

v 10.243263 113.344017 -9.658417

v 35.381855 125.205261 -10.641022

v 45.634102 126.777199 -9.614380

v 56.099716 126.139099 -8.558502

v 69.226440 128.106445 -12.860840

v 80.745140 121.464432 -8.390663

v 86.160080 117.810173 -11.458771

v 5.639374 58.719383 -10.727730

v 94.087616 89.702301 -12.966721

v 30.578602 45.909279 -10.413014

v 94.335678 80.495834 -13.462704

v 92.216919 71.589928 -13.715372

v 92.970932 65.240913 -13.876307

v 89.131203 65.551590 -12.712959

v 86.973206 58.538593 -13.741468

v 62.884132 42.845375 -10.872475

v 77.912933 47.849861 -12.331133

v 68.388474 44.070061 -11.072884

v 4.423435 98.291969 -8.845569

v 66.663109 125.167999 -8.788910

v 2.880212 89.572166 -9.337050

v 1.646842 66.281563 -9.958620

v 91.962433 107.152267 -9.226116

v 8.356421 53.919899 -10.396019

v 91.259918 101.558853 -8.169250

v 87.904755 71.781464 -8.745148

v 55.451900 40.677910 -10.023578

v 82.862900 58.825096 -9.059940

v 77.309769 50.432632 -8.284977

v 4.683465 79.312622 -4.253495

v 86.895622 116.492775 -6.795792

v 1.818361 57.425224 -9.022612

v 90.366348 111.269409 -3.615601

v 21.937241 40.120411 -10.243838

v 14.264305 43.490219 -8.433603

v 89.070007 93.895554 -6.309204

v 87.715759 80.288284 -4.906250

v 40.200123 35.309052 -10.241503

v 38.514717 33.941711 -8.517915

v 84.504845 64.348007 -8.642031

v 22.007317 119.707901 -2.793579

v 6.380258 110.348068 -3.835344

v 32.122272 122.718811 -3.151001

v 40.481995 124.863419 0.975281

v 2.829088 92.368126 -5.366775

v 3.368044 87.067535 -5.297926

v 5.514283 75.644218 -1.003430

v 3.814934 69.048592 -2.897507

v 3.006393 61.823288 -4.609016

v 6.574737 50.211475 -7.759190

v 9.766884 48.346359 -6.724418

v 19.224337 41.788692 -6.566384

v 22.981571 39.312592 -6.644233

v 42.192711 35.124245 -6.537995

v 48.987972 37.169884 -6.862411

v 52.211090 37.337177 -6.853994

v 73.129662 43.678391 -4.458077

v 3.670479 103.550949 -4.747931

v 45.707596 127.260635 -0.604004

v 3.491629 97.375359 -5.349583

v 53.364132 127.980804 -1.767681

v 69.732117 125.490791 -0.841980

v 84.785583 120.750961 -4.061707

v 3.153067 56.822140 -4.786193

v 87.755531 103.031097 -4.091531

v 6.715847 50.901146 -5.110764

v 87.810455 98.305443 -4.457778

v 15.751908 53.966167 -6.321859

v 26.181835 50.251060 -6.404771

v 22.347187 54.622627 -3.802773

v 38.004868 47.350185 -6.283043

v 88.026978 76.079384 0.031265

v 87.719025 65.617943 -4.304840

v 43.709316 44.875977 -6.167037

v 84.094933 58.136383 -4.640804

v 49.743752 41.026543 -5.270704

v 60.128166 35.831955 -4.502802

v 79.254333 49.513477 -4.471676

v 6.543479 108.009346 -2.520789

v 6.199890 96.333221 -3.375015

v 61.922768 127.392357 -0.503700

v 7.625591 87.545563 -2.359818

v 94.980927 115.377548 2.072449

v 14.457533 55.288490 -4.052170

v 87.052704 91.418503 -0.773481

v 85.125679 86.476006 -2.533613

v 29.878132 55.683800 -3.708427

v 90.579300 68.485092 -0.894684

v 87.947922 57.496902 -4.037430

v 86.701958 49.516144 -4.221432

v 54.497963 35.484322 -2.308643

v 60.922356 32.673775 -2.567468

v 79.669495 32.199890 -4.394472

v 81.706230 29.330589 -2.524482

v 90.285316 37.859280 -4.201012

v 92.419434 32.821404 -1.575775

v 23.785156 117.613037 -1.819458

v 15.064230 107.729614 -2.384706

v 10.510471 97.269432 -2.349496

v 86.009979 119.935028 4.395538

v 7.267300 67.465340 0.757696

v 93.384796 108.913910 -1.416656

v 11.241876 59.050308 -0.724411

v 92.074417 102.406425 1.082287

v 28.997580 55.861229 -1.618950

v 36.213551 49.733265 -0.632256

v 86.886337 84.349335 0.402229

v 42.922119 44.916111 3.333938

v 90.002472 62.655628 -0.985413

v 90.374199 53.064327 -0.797241

v 88.844574 47.825142 -0.647909

v 60.087105 29.153801 -1.925987

v 92.587532 39.424709 -0.782543

v 63.966198 23.672098 -1.894570

v 71.316109 18.787191 -2.545532

v 70.827026 17.190037 -1.717052

v 91.836472 23.372753 -2.400463

v 83.051956 14.059649 -2.422093

v 89.601288 17.672295 -2.292304

v 31.298279 117.288971 3.869080

v 17.660736 102.161133 2.336426

v 14.207001 97.045952 1.108551

v 12.065442 89.952522 2.759136

v 8.380396 82.449821 2.161285

v 94.528351 108.091248 1.298359

v 14.672745 54.655197 8.099274

v 21.903282 52.272491 2.405899

v 28.013588 52.892548 0.208954

v 93.157219 62.790798 0.484776

v 54.950699 36.655792 1.654303

v 94.358749 56.009964 0.314518

v 59.357067 32.618633 1.590459

v 94.716766 47.230625 -0.345829

v 95.700150 49.392776 0.973984

v 97.000320 41.255676 0.584124

v 70.242355 16.519203 2.951511

v 96.808159 33.010204 -0.062531

v 96.150352 24.410889 1.135342

v 77.322891 12.817907 1.687988

v 89.118248 19.291084 4.325195

v 83.241440 13.315392 2.256165

v 26.551102 111.080780 4.864227

v 58.681946 125.576324 2.912445

v 66.561852 123.861732 3.516144

v 100.615715 108.096802 2.215961

v 88.677277 95.261757 6.550686

v 86.309731 86.463776 6.547989

v 28.339155 50.261154 3.543594

v 87.068130 81.583282 6.217209

v 89.957916 69.814186 6.344345

v 47.642647 40.929821 7.030495

v 63.740501 24.366741 2.947554

v 95.093689 43.872406 3.913330

v 97.182037 32.578506 2.363647

v 44.610687 122.249756 7.972168

v 55.077850 123.822586 7.908356

v 22.478653 102.473236 5.123817

v 73.814301 122.606186 5.196594

v 90.285583 115.990715 8.662384

v 96.270660 112.961761 7.061157

v 100.747986 106.560791 6.905693

v 95.554840 101.861992 7.041252

v 21.334782 49.263100 7.266472

v 88.211685 76.569565 6.367760

v 53.505280 34.988945 3.518341

v 92.220490 55.871826 6.818909

v 56.794674 25.812202 3.307926

v 91.454712 41.712280 8.277222

v 64.222046 16.726814 3.571526

v 89.512199 26.986740 6.970154

v 92.551849 35.503693 6.991898

v 71.715683 15.868104 4.987770

v 77.912582 14.149525 4.810298

v 38.091919 117.733490 9.434937

v 31.640102 111.018356 6.091377

v 28.248720 105.357010 5.862492

v 61.116455 124.627182 7.028076

v 17.646461 98.210350 8.181507

v 7.435091 81.963524 8.041058

v 78.807861 119.117218 8.980469

v 6.085613 73.747032 7.815730

v 9.659706 59.573380 11.344893

v 37.651199 48.095654 8.758514

v 48.642487 44.476410 9.384430

v 89.543182 61.191910 7.940704

v 53.729607 27.696524 6.142784

v 59.760498 16.885677 6.387756

v 69.275055 17.028091 8.206345

v 84.927612 21.572083 5.914669

v 23.877258 99.836281 9.552082

v 63.162003 122.588745 13.887970

v 11.779372 94.782951 11.230668

v 8.044119 89.836571 10.897848

v 6.308208 67.791779 12.596715

v 92.829590 109.215729 9.383301

v 91.145935 98.631546 9.255280

v 28.606754 49.387093 10.836197

v 86.112289 77.379387 9.155121

v 86.708893 70.032654 8.973602

v 53.503616 30.465759 10.570038

v 56.613304 23.301931 10.672175

v 61.837250 17.098520 10.765003

v 82.611771 26.292160 7.361591

v 53.407173 121.872635 14.221741

v 30.368774 108.519516 15.938599

v 28.314178 104.256485 10.416962

v 15.301376 98.056664 13.007813

v 5.115360 84.561440 10.235217

v 4.292628 75.622749 11.182940

v 90.077942 105.851837 10.903839

v 17.594490 51.201923 12.405527

v 85.332443 85.378441 11.866737

v 88.626358 67.439491 11.966595

v 90.462151 51.700321 10.988516

v 85.324821 38.625023 10.919376

v 80.865204 30.764595 10.911045

v 74.540947 23.649982 10.832319

v 24.988853 103.957375 12.200928

v 5.207722 84.971748 13.553856

v 78.995628 115.245087 12.502319

v 71.754456 118.731415 16.553131

v 85.417847 108.476074 12.706894

v 89.740479 104.588623 14.710480

v 13.603033 55.545822 12.558241

v 88.230095 94.497978 12.254715

v 87.397079 78.211555 13.402496

v 38.702206 49.214825 14.900352

v 48.558891 45.361576 18.177860

v 54.373657 39.816021 13.712906

v 86.522530 60.478214 15.878944

v 85.106567 54.503658 11.467909

v 56.035221 31.180416 12.659768

v 79.775574 47.224979 11.269184

v 68.096657 26.012754 10.977190

v 76.618179 41.248421 11.312517

v 74.036621 31.901262 11.311743

v 39.382172 113.052002 16.748413

v 50.890244 119.607056 16.524719

v 26.151249 105.503464 16.145966

v 5.227818 77.600334 15.761307

v 76.779358 116.197647 16.414467

v 82.555801 112.114502 16.343811

v 10.959611 60.501873 14.238987

v 93.930542 96.643166 15.859795

v 27.110525 57.599960 12.964885

v 92.927780 90.327736 16.197395

v 89.213028 85.904472 13.884731

v 33.446571 50.650234 14.250072

v 30.680552 59.536591 14.693796

v 87.267807 67.921997 16.519440

v 86.162308 56.241188 16.010910

v 82.022766 51.727100 16.329994

v 80.921524 48.398441 15.870663

v 78.566559 44.264553 15.374090

v 66.581108 31.878092 13.102594

v 67.066711 29.016518 12.692521

v 76.092712 39.279957 16.180239

v 9.974838 89.073868 20.165833

v 6.960247 82.634232 15.935890

v 86.083290 108.809998 17.673492

v 15.370483 58.224068 15.402756

v 28.087471 64.155373 16.846474

v 40.077755 55.121174 16.497332

v 87.925240 79.407608 17.420883

v 62.163319 37.960472 16.553940

v 68.860550 33.773762 16.424316

v 49.503693 115.875183 17.610565

v 65.784149 116.159241 17.423096

v 5.534376 68.973862 23.538361

v 5.848316 63.637779 23.037453

v 89.168518 104.319504 20.209702

v 92.617432 98.014648 20.980957

v 38.370346 65.009567 16.905340

v 44.042755 59.549179 17.077763

v 90.638451 85.173180 19.152351

v 42.896008 49.824677 18.373083

v 86.541924 75.427780 19.965935

v 83.953186 59.778957 17.546906

v 52.825634 42.048084 19.361519

v 59.158180 38.395256 20.023420

v 76.929741 45.842659 18.835699

v 72.856331 40.950905 17.596558

v 28.679686 102.489594 20.831909

v 39.385498 105.460541 21.470032

v 50.844055 110.843506 19.997894

v 7.294226 82.498238 20.708561

v 78.240906 110.207840 20.636276

v 8.500192 59.127357 23.706001

v 19.875175 63.911835 23.216766

v 35.659042 66.606735 23.184578

v 93.878967 92.699097 23.353760

v 44.530540 64.921410 19.986908

v 49.096222 61.494621 19.392527

v 47.711285 53.571236 19.013893

v 85.333435 64.048508 20.290298

v 82.405785 57.035416 20.064781

v 80.760132 50.618839 20.367439

v 67.761620 38.986221 22.596342

v 13.548996 91.936005 24.360840

v 51.308228 107.528625 21.241440

v 63.680176 111.589142 20.605675

v 62.352657 108.627716 20.996918

v 6.254349 76.226334 22.964161

v 82.968674 104.773834 21.012810

v 12.847662 60.105728 22.762817

v 26.004904 66.850151 26.185850

v 50.836464 61.521912 26.285156

v 49.953011 52.246193 22.017723

v 89.530060 80.447342 25.471863

v 57.668655 43.450554 23.549751

v 86.920441 56.355457 20.929249

v 86.600464 49.168812 21.335056

v 79.965096 44.448677 21.576973

v 22.287033 97.624146 24.276611

v 30.517693 98.963135 29.247681

v 35.542171 101.495575 27.869049

v 43.733185 103.021545 27.686157

v 56.821850 104.391083 25.344360

v 64.781708 104.580811 24.049316

v 81.749268 99.139771 24.778198

v 42.811066 64.194122 30.675629

v 93.973015 87.256851 25.246216

v 53.349510 55.821136 24.261963

v 89.296814 68.511986 24.641907

v 63.548721 41.391335 24.793304

v 90.342773 59.294575 25.661896

v 6.940926 81.924477 25.908203

v 4.723877 76.657227 25.799820

v 4.093366 72.181580 25.779612

v 92.188721 70.498238 30.266727

v 59.132618 49.518124 24.792152

v 91.233116 51.194336 27.120333

v 66.473198 41.306896 27.641411

v 84.388954 46.895130 27.215565

v 14.621552 86.404373 30.163605

v 24.473846 93.344238 32.985107

v 56.621414 103.272644 29.563507

v 3.782689 65.195435 31.851162

v 6.508795 61.079861 29.720337

v 21.280392 64.495140 29.554077

v 33.500412 65.808136 32.942535

v 84.613892 94.940796 29.728760

v 92.174400 84.938538 33.545959

v 92.281265 78.679237 27.553535

v 61.211716 51.007156 28.367897

v 90.984169 65.165672 32.424713

v 76.483551 47.676315 28.930103

v 38.320633 97.389893 32.996826

v 8.620377 78.237083 29.697342

v 71.691536 100.400330 29.957214

v 15.977432 63.014492 33.349289

v 94.578491 82.184586 31.184465

v 93.011452 77.760895 30.056416

v 54.886589 60.959488 31.314896

v 85.328575 55.522797 31.145416

v 85.795166 51.270020 29.793549

v 66.847397 47.090549 28.998070

v 51.570313 99.222656 32.489014

v 68.417908 97.487549 33.862000

v 98.523201 71.938301 30.994064

v 62.206688 54.967865 31.725960

v 71.707901 51.984123 31.277992

v 87.756683 62.124016 35.990868

v 62.794067 96.667908 34.493195

v 47.474659 64.850731 35.551079

v 63.487801 59.938789 32.730259

v 98.978516 71.662308 33.497833

v 15.961876 86.166931 38.577972

v 48.496189 95.126404 39.086670

v 8.531586 72.990540 38.232117

v 57.560852 93.976440 38.751709

v 11.524408 59.716080 39.448029

v 21.506897 63.479309 37.937256

v 84.221008 84.931641 35.222229

v 74.526276 86.337646 37.500122

v 41.038666 64.211533 40.484192

v 53.536819 63.551865 36.783401

v 63.518753 59.899536 35.337036

v 92.291191 77.370705 36.120384

v 68.722580 56.512005 37.703262

v 96.464142 68.470154 35.967705

v 75.633713 55.478607 36.957241

v 28.709457 92.920349 38.991882

v 39.746597 93.661774 42.039490

v 66.392395 89.822998 38.721802

v 7.235926 60.966465 41.320930

v 80.400787 82.064941 36.358994

v 87.810822 72.963585 36.290695

v 79.667542 78.113403 38.588867

v 61.453735 58.298431 39.113617

v 12.907593 76.383560 42.320251

v 35.277924 63.789764 41.268250

v 54.958344 60.316818 39.852173

v 84.187164 66.813980 38.945801

v 75.201317 59.126408 39.508099

v 83.283005 62.666988 39.539551

v 19.129883 83.598633 43.815918

v 30.755737 90.488037 43.630859

v 47.174606 92.311676 43.426476

v 19.232941 60.444824 42.760468

v 26.296951 60.122208 44.331085

v 67.378326 85.524078 43.467316

v 81.137634 68.821228 44.995483

v 70.209755 58.196709 46.372620

v 56.809219 90.795013 43.417923

v 8.681183 54.136658 44.217865

v 35.550995 60.735352 46.045532

v 74.831131 75.119751 45.200989

v 46.263172 61.767178 45.759460

v 76.424286 56.179008 44.302841

v 83.339935 59.766846 44.712276

v 24.277710 83.703087 46.894653

v 14.475525 75.622925 45.142242

v 45.109711 89.817352 44.302887

v 11.659332 66.328720 47.894669

v 7.158890 58.119888 44.405624

v 64.259766 83.697632 44.424591

v 15.078568 53.116707 46.217575

v 57.634609 60.763859 46.514694

v 33.313431 87.375748 47.284660

v 18.579742 74.789856 48.857361

v 44.690018 87.475311 47.401428

v 61.296997 79.040649 46.952881

v 13.014961 52.373611 47.589115

v 67.746902 76.024536 46.160309

v 77.045013 67.172760 47.467537

v 70.656250 69.689850 47.996338

v 80.738647 61.191246 47.483086

v 71.402145 59.975395 47.575218

v 28.372498 83.391846 47.643845

v 48.324516 81.564819 47.757813

v 43.265289 77.249817 50.842773

v 13.087006 58.927795 49.630417

v 21.077253 55.699608 51.344715

v 35.862682 59.355965 51.958031

v 43.763218 61.113522 51.564835

v 52.812061 62.553364 49.223572

v 60.262794 62.307137 48.777313

v 68.806129 62.495785 48.727310

v 31.548248 79.235229 50.116699

v 21.884094 73.023041 50.720581

v 16.926086 62.578583 51.879272

v 51.632729 76.298492 49.950165

v 16.743881 55.571751 50.590515

v 27.463505 57.092472 52.159409

v 67.002869 70.964478 51.005249

v 48.477875 61.386135 52.052383

v 68.566849 64.150703 54.736198

v 31.448669 74.181763 54.652710

v 52.640808 73.927429 53.282471

v 62.628578 62.065559 54.702934

v 23.082062 69.743011 54.729950

v 48.121666 73.569397 56.379517

v 22.560305 57.989410 57.932480

v 57.389526 70.595604 56.845673

v 39.576790 59.833466 58.625576

v 61.880554 68.509651 56.039764

v 48.326569 61.908134 58.882320

v 31.992834 58.232910 58.856632

v 56.548218 62.915493 57.241241

v 25.159706 65.324898 59.032768

v 41.953419 70.155151 59.009518

v 54.504639 66.856613 59.123337

f 1 2 3
f 4 1 5
f 3 5 1
f 6 3 7
f 3 6 5
f 6 8 5
f 9 10 11
f 7 12 13
f 7 14 6
f 15 9 11
f 14 7 13
f 10 16 11
f 17 6 14
f 18 11 16
f 11 19 15
f 13 20 14
f 18 19 11
f 21 14 22
f 20 22 14
f 18 23 19
f 22 16 21
f 18 16 24
f 18 24 25
f 22 20 26
f 22 24 16
f 22 27 24
f 25 24 27
f 27 22 28
f 29 30 31
f 30 32 2
f 2 31 30
f 32 3 2
f 3 32 33
f 2 4 31
f 2 1 4
f 33 7 3
f 34 7 33
f 35 36 9
f 37 4 5
f 10 9 38
f 9 39 35
f 39 9 15
f 12 7 34
f 8 37 5
f 40 35 39
f 41 40 39
f 8 6 17
f 38 42 10
f 39 15 43
f 16 10 42
f 8 44 45
f 17 44 8
f 45 16 42
f 44 16 45
f 43 15 46
f 19 46 15
f 44 17 14
f 44 21 16
f 21 44 14
f 13 47 48
f 20 13 48
f 20 48 49
f 50 46 19
f 19 23 50
f 23 18 51
f 51 18 25
f 20 49 26
f 52 26 49
f 25 27 53
f 52 22 26
f 22 52 28
f 27 28 54
f 55 56 57
f 58 55 59
f 29 55 60
f 57 60 55
f 29 59 55
f 60 57 32
f 29 60 30
f 60 32 30
f 59 29 61
f 62 63 57
f 57 63 32
f 61 64 59
f 62 33 63
f 33 32 63
f 61 65 64
f 29 31 4
f 4 61 29
f 66 65 36
f 61 38 65
f 36 65 38
f 34 33 67
f 4 38 61
f 68 36 35
f 69 68 35
f 36 38 9
f 4 37 38
f 40 69 35
f 37 42 38
f 41 70 40
f 71 13 12
f 8 45 37
f 42 37 45
f 47 13 71
f 39 43 72
f 72 41 39
f 73 48 47
f 43 46 72
f 48 74 49
f 50 23 51
f 52 49 74
f 52 74 75
f 53 51 25
f 75 28 52
f 53 27 54
f 55 58 76
f 76 77 55
f 55 77 56
f 78 76 58
f 77 79 56
f 79 80 56
f 58 64 78
f 80 62 56
f 59 64 58
f 81 78 82
f 78 64 82
f 83 62 80
f 62 57 56
f 62 83 67
f 66 84 82
f 67 33 62
f 65 82 64
f 65 66 82
f 68 66 36
f 85 34 67
f 86 69 40
f 85 87 34
f 40 88 86
f 87 12 34
f 88 40 70
f 71 12 87
f 89 88 70
f 41 89 70
f 90 89 41
f 41 72 90
f 90 72 91
f 46 91 72
f 73 92 48
f 74 48 92
f 91 46 50
f 75 74 92
f 93 91 50
f 50 51 93
f 92 94 75
f 51 53 93
f 28 75 94
f 94 54 28
f 77 76 95
f 96 95 76
f 81 96 76
f 95 97 77
f 78 81 76
f 97 79 77
f 97 80 79
f 97 98 80
f 98 83 80
f 99 81 84
f 82 84 81
f 83 98 100
f 101 84 66
f 100 67 83
f 66 69 102
f 68 69 66
f 86 88 103
f 89 103 88
f 90 91 104
f 90 104 105
f 106 104 91
f 106 91 93
f 105 104 107
f 108 53 54
f 93 53 109
f 109 106 93
f 110 96 81
f 95 111 97
f 110 81 99
f 112 110 99
f 98 97 111
f 113 98 111
f 99 84 112
f 98 113 100
f 84 101 112
f 100 113 114
f 115 100 114
f 102 101 66
f 115 67 100
f 116 102 69
f 117 116 69
f 117 69 86
f 67 115 85
f 118 85 115
f 86 119 117
f 119 86 103
f 120 121 103
f 71 87 122
f 123 120 103
f 89 123 103
f 124 73 47
f 123 125 120
f 125 123 126
f 90 123 89
f 127 92 73
f 90 128 123
f 92 127 129
f 92 129 94
f 94 129 130
f 126 128 131
f 128 90 105
f 94 130 54
f 130 108 54
f 108 130 132
f 128 105 133
f 131 128 133
f 104 106 107
f 134 107 106
f 105 135 133
f 134 106 109
f 134 109 136
f 136 137 134
f 138 136 109
f 139 136 138
f 95 96 140
f 110 140 96
f 111 95 141
f 111 142 143
f 144 110 112
f 111 143 113
f 145 144 112
f 114 113 143
f 145 112 101
f 114 146 147
f 147 115 114
f 145 101 102
f 102 116 145
f 116 117 148
f 115 147 118
f 149 148 117
f 150 117 119
f 119 151 150
f 85 118 152
f 151 153 150
f 153 154 155
f 103 151 119
f 85 152 122
f 154 153 151
f 87 85 122
f 121 151 103
f 154 151 121
f 71 122 124
f 124 47 71
f 120 156 121
f 156 120 125
f 123 128 126
f 125 157 156
f 129 158 130
f 125 126 159
f 157 125 159
f 158 132 130
f 132 160 108
f 159 126 131
f 53 108 160
f 131 161 159
f 105 107 162
f 131 133 135
f 160 163 53
f 109 53 163
f 134 164 107
f 164 162 107
f 135 105 165
f 137 164 134
f 165 105 162
f 165 161 135
f 131 135 161
f 138 109 163
f 161 165 166
f 166 159 161
f 167 137 136
f 137 168 164
f 136 169 167
f 169 136 139
f 95 170 141
f 95 140 170
f 140 171 170
f 140 110 171
f 142 111 141
f 110 144 171
f 144 145 172
f 173 114 143
f 173 174 114
f 146 114 174
f 145 175 172
f 175 145 116
f 149 176 175
f 146 177 147
f 116 148 175
f 149 175 148
f 118 147 177
f 149 117 150
f 177 152 118
f 155 149 153
f 153 149 150
f 124 178 73
f 127 73 178
f 156 157 179
f 158 180 132
f 180 160 132
f 160 180 181
f 159 182 157
f 160 181 163
f 183 162 164
f 165 162 183
f 159 166 182
f 138 163 139
f 167 169 184
f 185 137 167
f 137 185 168
f 186 184 169
f 187 170 188
f 170 187 141
f 188 170 171
f 189 171 144
f 190 144 172
f 143 191 173
f 176 172 175
f 192 174 173
f 174 177 146
f 177 174 192
f 193 176 149
f 149 194 193
f 149 195 194
f 152 177 192
f 155 195 149
f 196 152 192
f 196 122 152
f 155 197 195
f 197 155 154
f 154 198 197
f 196 124 122
f 198 154 121
f 198 121 156
f 156 199 198
f 178 200 127
f 129 127 200
f 201 179 157
f 182 201 157
f 165 183 202
f 203 204 163
f 204 139 163
f 164 205 183
f 169 139 204
f 185 167 184
f 205 164 168
f 185 205 168
f 187 206 207
f 206 187 188
f 207 208 141
f 207 141 187
f 188 171 189
f 141 208 142
f 144 209 189
f 143 142 191
f 144 190 209
f 172 210 190
f 172 176 210
f 173 211 192
f 210 176 212
f 193 212 176
f 193 194 213
f 211 214 192
f 213 194 195
f 214 196 192
f 198 195 197
f 124 196 215
f 215 178 124
f 216 198 199
f 199 156 179
f 158 129 200
f 200 217 158
f 217 218 158
f 180 158 218
f 218 219 180
f 181 180 219
f 220 181 219
f 221 201 182
f 182 222 221
f 220 223 181
f 163 181 223
f 222 182 166
f 223 203 163
f 183 205 202
f 166 165 202
f 222 166 202
f 204 224 169
f 186 169 224
f 184 186 225
f 224 225 186
f 142 226 191
f 173 191 211
f 210 227 190
f 210 212 227
f 195 216 213
f 198 216 195
f 214 215 196
f 215 228 178
f 216 199 229
f 230 216 229
f 200 178 228
f 231 200 228
f 199 179 229
f 201 229 179
f 221 229 201
f 232 229 221
f 233 232 221
f 222 233 221
f 233 222 234
f 202 234 222
f 235 202 205
f 205 236 235
f 237 236 185
f 205 185 236
f 185 184 237
f 184 225 237
f 238 239 207
f 207 206 238
f 238 206 240
f 208 207 239
f 239 241 208
f 188 240 206
f 241 242 208
f 240 188 189
f 189 243 240
f 208 242 226
f 226 142 208
f 243 189 209
f 209 244 243
f 245 191 226
f 244 209 190
f 190 227 244
f 212 193 213
f 214 211 246
f 247 213 216
f 216 248 247
f 214 249 215
f 216 250 248
f 228 215 249
f 249 251 228
f 216 230 250
f 251 231 228
f 230 232 252
f 230 229 232
f 217 200 231
f 220 219 253
f 254 253 255
f 233 252 232
f 220 253 254
f 255 256 254
f 234 257 252
f 203 254 256
f 252 233 234
f 223 220 254
f 223 254 203
f 204 203 256
f 235 234 202
f 256 225 204
f 237 225 256
f 224 204 225
f 235 236 237
f 258 239 238
f 259 258 238
f 241 239 260
f 259 238 240
f 240 261 259
f 240 243 261
f 242 262 226
f 243 244 261
f 263 261 244
f 264 263 244
f 265 191 245
f 265 211 191
f 244 266 264
f 266 244 227
f 246 211 265
f 266 227 212
f 212 267 266
f 212 213 247
f 247 267 212
f 246 268 214
f 214 268 269
f 269 270 214
f 270 249 214
f 271 248 250
f 270 251 249
f 250 230 271
f 251 270 272
f 251 272 273
f 231 251 273
f 274 271 230
f 217 275 218
f 274 230 257
f 257 230 252
f 219 218 275
f 276 274 277
f 253 219 278
f 274 257 277
f 253 278 255
f 279 280 281
f 280 279 255
f 255 279 256
f 281 280 277
f 279 281 256
f 257 281 277
f 256 281 237
f 257 235 281
f 257 234 235
f 281 235 237
f 260 239 282
f 260 282 283
f 241 260 283
f 284 285 259
f 259 261 284
f 286 242 241
f 287 284 261
f 262 242 288
f 289 287 261
f 262 288 226
f 289 261 263
f 290 289 263
f 291 226 288
f 263 264 290
f 226 291 245
f 264 292 290
f 265 245 291
f 264 266 292
f 293 292 266
f 294 246 265
f 266 267 293
f 268 246 294
f 295 247 248
f 295 248 271
f 269 296 270
f 296 272 270
f 271 274 297
f 296 298 272
f 297 274 276
f 273 299 231
f 255 300 301
f 217 231 302
f 277 301 303
f 276 277 303
f 301 280 255
f 275 278 219
f 280 301 277
f 241 283 286
f 288 242 286
f 290 304 289
f 290 305 304
f 292 305 290
f 293 305 292
f 267 247 306
f 247 295 306
f 269 268 307
f 307 308 269
f 295 271 309
f 308 296 269
f 309 297 310
f 297 309 271
f 297 276 310
f 303 311 310
f 303 310 276
f 273 272 298
f 298 299 273
f 312 313 314
f 313 315 300
f 300 303 301
f 278 313 300
f 299 302 231
f 314 313 278
f 300 255 278
f 314 278 275
f 275 217 302
f 239 258 282
f 283 282 316
f 285 317 258
f 258 259 285
f 316 318 283
f 287 319 284
f 319 287 289
f 291 288 320
f 321 289 304
f 295 309 322
f 311 322 309
f 309 310 311
f 308 323 296
f 298 296 323
f 324 311 303
f 298 325 299
f 300 315 326
f 312 314 327
f 312 315 313
f 312 328 315
f 326 324 300
f 303 300 324
f 314 329 327
f 330 299 325
f 329 314 275
f 299 330 331
f 299 331 302
f 275 302 329
f 317 282 258
f 286 283 318
f 332 285 284
f 333 286 318
f 284 319 332
f 288 286 333
f 321 319 289
f 320 288 333
f 304 305 321
f 320 334 291
f 335 305 293
f 265 291 334
f 334 336 265
f 336 294 265
f 337 293 267
f 267 338 337
f 338 267 306
f 268 294 336
f 339 306 295
f 322 340 295
f 322 311 341
f 324 341 311
f 341 324 342
f 328 326 315
f 327 328 312
f 325 343 330
f 326 328 344
f 327 345 328
f 345 344 328
f 331 330 346
f 345 327 329
f 347 348 331
f 302 331 348
f 302 348 329
f 348 349 329
f 345 329 349
f 350 319 321
f 351 320 333
f 321 305 352
f 351 334 320
f 305 335 352
f 293 337 335
f 338 306 339
f 307 268 336
f 336 353 307
f 308 307 353
f 353 354 308
f 323 308 354
f 354 343 323
f 298 323 343
f 325 298 343
f 355 324 326
f 330 343 346
f 326 344 356
f 347 331 346
f 344 345 357
f 349 357 345
f 317 358 282
f 316 282 358
f 317 285 359
f 318 316 360
f 360 361 318
f 361 333 318
f 319 350 332
f 333 362 351
f 321 352 350
f 363 351 364
f 363 334 351
f 365 334 363
f 365 336 334
f 336 365 366
f 367 336 366
f 367 366 368
f 367 368 369
f 336 367 353
f 369 370 367
f 353 367 370
f 340 339 295
f 370 369 371
f 322 372 340
f 372 322 341
f 353 370 373
f 373 370 371
f 373 354 353
f 341 374 372
f 373 343 354
f 374 341 342
f 324 355 342
f 356 355 326
f 348 347 375
f 349 348 375
f 317 359 358
f 360 316 376
f 358 376 316
f 333 361 377
f 364 351 362
f 337 378 335
f 337 338 378
f 379 378 338
f 339 379 338
f 368 380 369
f 379 339 381
f 339 340 381
f 340 372 382
f 374 382 372
f 383 384 343
f 384 346 343
f 385 359 285
f 385 285 332
f 332 386 385
f 386 332 350
f 377 362 333
f 387 352 335
f 364 388 363
f 363 388 389
f 335 378 387
f 365 363 389
f 390 365 389
f 390 366 365
f 390 368 366
f 368 390 380
f 371 369 380
f 380 391 371
f 340 392 381
f 340 382 392
f 371 391 393
f 393 394 371
f 371 394 373
f 374 395 382
f 374 355 395
f 373 394 343
f 343 394 383
f 355 374 342
f 384 396 346
f 396 347 346
f 396 397 347
f 344 357 356
f 397 375 347
f 398 399 357
f 357 399 356
f 357 349 398
f 349 375 400
f 400 398 349
f 360 376 401
f 360 401 361
f 361 402 377
f 403 385 386
f 403 386 350
f 404 364 362
f 364 404 388
f 405 387 378
f 378 379 406
f 391 380 407
f 407 408 391
f 393 391 408
f 409 393 408
f 394 393 409
f 383 394 409
f 355 410 395
f 384 383 409
f 356 411 355
f 411 410 355
f 412 384 409
f 412 396 384
f 396 412 397
f 356 413 411
f 399 413 356
f 398 414 399
f 400 415 398
f 414 413 399
f 415 400 416
f 398 415 414
f 359 417 358
f 359 385 418
f 419 401 376
f 420 418 385
f 403 420 385
f 361 421 402
f 377 422 362
f 362 423 404
f 350 352 424
f 352 387 424
f 406 379 425
f 390 426 380
f 379 381 425
f 407 380 427
f 427 428 407
f 428 429 407
f 408 407 429
f 429 430 408
f 409 408 430
f 395 410 431
f 411 432 410
f 397 412 433
f 375 397 433
f 411 434 432
f 375 435 400
f 411 413 434
f 416 400 435
f 434 413 414
f 436 434 414
f 416 436 415
f 414 415 436
f 418 417 359
f 417 419 376
f 376 358 417
f 421 361 401
f 402 422 377
f 403 350 437
f 437 350 424
f 362 422 423
f 390 389 438
f 438 426 390
f 427 380 426
f 439 425 381
f 381 392 439
f 440 382 395
f 440 395 431
f 431 410 441
f 441 410 432
f 432 434 441
f 375 433 435
f 441 434 442
f 435 443 416
f 442 434 444
f 436 444 434
f 443 436 416
f 436 443 444
f 417 445 446
f 445 417 418
f 418 447 445
f 418 420 447
f 403 448 420
f 403 437 448
f 402 449 422
f 404 450 451
f 388 404 451
f 389 388 451
f 438 389 451
f 405 378 406
f 382 440 392
f 428 430 429
f 409 430 452
f 452 453 409
f 409 453 412
f 433 412 453
f 454 441 442
f 442 455 454
f 442 444 455
f 420 448 447
f 437 456 448
f 421 449 402
f 437 424 456
f 424 457 456
f 404 423 450
f 387 457 424
f 458 387 405
f 438 451 459
f 438 459 460
f 460 426 438
f 439 461 425
f 428 427 462
f 392 440 463
f 430 428 464
f 464 452 430
f 463 440 431
f 431 441 465
f 465 441 454
f 433 453 466
f 466 467 433
f 435 433 467
f 435 467 468
f 435 468 443
f 443 468 469
f 455 444 470
f 469 470 443
f 444 443 470
f 447 471 445
f 472 419 417
f 473 401 419
f 387 458 457
f 474 458 405
f 475 406 425
f 425 461 475
f 460 462 426
f 427 426 462
f 462 476 428
f 464 428 476
f 464 477 452
f 431 478 463
f 477 479 452
f 478 431 465
f 452 479 453
f 453 479 480
f 454 481 465
f 453 480 466
f 482 466 480
f 455 481 454
f 455 483 481
f 467 466 482
f 484 467 482
f 484 468 467
f 484 469 468
f 469 484 483
f 470 483 455
f 469 483 470
f 472 417 446
f 445 471 446
f 447 485 471
f 472 473 419
f 485 447 448
f 473 486 401
f 421 401 486
f 421 487 449
f 422 449 488
f 488 489 422
f 490 456 457
f 489 423 422
f 489 450 423
f 489 491 450
f 450 491 451
f 459 451 492
f 493 475 494
f 492 460 459
f 461 494 475
f 460 495 462
f 439 494 461
f 392 496 439
f 476 497 464
f 392 463 498
f 497 477 464
f 477 497 499
f 498 463 478
f 479 477 499
f 500 478 501
f 478 465 501
f 479 499 480
f 499 482 480
f 499 502 482
f 484 482 502
f 503 481 483
f 504 503 483
f 483 484 504
f 471 505 446
f 472 446 505
f 506 448 456
f 421 486 487
f 449 487 488
f 457 507 490
f 457 458 507
f 507 458 474
f 406 474 405
f 406 508 474
f 508 406 475
f 475 493 508
f 495 460 492
f 509 462 495
f 494 439 496
f 476 462 509
f 509 497 476
f 496 392 510
f 498 510 392
f 499 497 511
f 498 478 500
f 511 512 499
f 512 513 499
f 502 499 513
f 513 514 502
f 465 481 515
f 515 501 465
f 484 502 514
f 503 515 481
f 504 484 514
f 471 516 505
f 517 485 448
f 448 506 518
f 490 506 456
f 519 489 488
f 491 520 451
f 492 451 520
f 493 521 508
f 522 495 492
f 522 523 495
f 509 495 523
f 509 524 497
f 498 500 510
f 511 497 524
f 500 501 525
f 513 526 514
f 501 515 525
f 526 504 514
f 504 526 527
f 527 503 504
f 472 505 528
f 448 518 517
f 529 506 490
f 507 530 490
f 491 489 519
f 474 531 507
f 493 532 521
f 520 522 492
f 532 493 494
f 494 533 532
f 494 496 533
f 509 523 524
f 510 534 496
f 535 534 510
f 500 535 510
f 536 535 500
f 511 524 512
f 513 512 537
f 525 536 500
f 526 513 537
f 537 538 526
f 515 539 525
f 527 526 538
f 515 503 539
f 503 527 539
f 471 540 516
f 540 471 485
f 541 472 528
f 472 541 473
f 473 542 486
f 486 543 487
f 544 487 543
f 487 544 488
f 490 530 529
f 488 544 519
f 491 519 545
f 545 546 491
f 520 491 546
f 521 547 508
f 547 521 532
f 522 548 523
f 533 549 532
f 548 524 523
f 548 550 524
f 496 534 533
f 524 550 551
f 551 552 524
f 552 551 553
f 524 552 512
f 553 554 552
f 552 537 512
f 555 536 525
f 552 554 537
f 537 554 538
f 538 554 556
f 525 557 555
f 556 539 538
f 557 525 539
f 527 538 539
f 528 505 516
f 528 516 540
f 517 540 485
f 542 473 541
f 518 506 558
f 486 542 543
f 506 529 558
f 543 559 544
f 529 530 560
f 544 545 519
f 530 507 531
f 474 561 531
f 561 474 508
f 508 547 561
f 520 546 562
f 547 532 563
f 564 548 522
f 549 563 532
f 534 549 533
f 551 550 565
f 551 565 553
f 534 535 566
f 554 553 567
f 536 566 535
f 554 568 556
f 557 539 556
f 558 517 518
f 529 560 558
f 545 544 559
f 530 531 569
f 570 546 545
f 571 561 547
f 562 546 572
f 571 547 563
f 520 562 564
f 522 520 564
f 573 574 563
f 548 564 575
f 548 575 576
f 576 550 548
f 549 573 563
f 549 577 573
f 573 577 578
f 565 579 553
f 549 534 566
f 579 567 553
f 577 549 566
f 554 567 568
f 555 566 536
f 557 556 568
f 528 540 580
f 517 581 540
f 528 582 541
f 583 542 541
f 584 558 560
f 560 530 585
f 586 531 587
f 587 531 561
f 561 571 588
f 572 546 570
f 563 589 571
f 589 563 574
f 589 574 590
f 574 573 591
f 591 573 592
f 576 565 550
f 573 578 592
f 578 577 593
f 594 593 577
f 577 566 594
f 595 594 566
f 596 555 557
f 597 581 517
f 583 598 542
f 517 558 597
f 558 599 597
f 543 542 600
f 584 599 558
f 560 585 584
f 601 545 559
f 585 530 569
f 531 586 569
f 602 570 545
f 587 561 588
f 588 571 603
f 564 562 572
f 604 564 572
f 571 605 603
f 589 605 571
f 604 606 564
f 590 607 605
f 605 589 590
f 606 575 564
f 608 609 607
f 607 590 608
f 591 608 590
f 590 574 591
f 592 610 608
f 608 591 592
f 576 611 565
f 612 579 565
f 610 592 593
f 610 593 613
f 578 593 592
f 614 579 612
f 594 615 613
f 613 593 594
f 579 614 567
f 595 615 594
f 567 614 568
f 555 616 566
f 616 595 566
f 617 596 568
f 557 568 596
f 596 616 555
f 581 580 540
f 580 582 528
f 618 581 597
f 541 582 583
f 542 598 600
f 597 599 619
f 600 620 543
f 584 619 599
f 620 601 543
f 559 543 601
f 585 619 584
f 621 619 585
f 621 585 569
f 545 601 602
f 570 602 622
f 572 570 622
f 603 623 588
f 605 623 603
f 607 623 605
f 607 609 623
f 606 624 575
f 625 575 624
f 608 626 609
f 576 575 625
f 610 626 608
f 565 627 612
f 628 614 612
f 614 617 568
f 628 617 614
f 617 628 629
f 595 616 630
f 630 616 631
f 632 596 617
f 629 632 617
f 596 632 616
f 633 616 632
f 632 629 634
f 634 633 632
f 633 634 635
f 581 618 580
f 580 636 582
f 618 637 580
f 637 636 580
f 638 637 618
f 619 618 597
f 618 619 638
f 621 638 619
f 601 639 602
f 587 640 586
f 572 622 641
f 587 588 642
f 641 604 572
f 642 588 623
f 604 641 643
f 606 604 643
f 644 609 626
f 626 645 644
f 576 625 646
f 645 626 610
f 646 611 576
f 645 610 613
f 613 647 645
f 627 565 611
f 627 648 612
f 628 612 648
f 630 615 595
f 649 628 648
f 628 649 629
f 649 650 629
f 631 651 630
f 631 616 633
f 634 629 650
f 650 652 634
f 653 651 631
f 634 652 635
f 633 654 631
f 653 631 654
f 654 655 653
f 635 656 633
f 654 633 657
f 656 658 633
f 658 657 633
f 655 654 657
f 582 659 583
f 582 636 659
f 637 660 636
f 637 661 660
f 661 637 638
f 638 662 661
f 621 662 638
f 621 663 662
f 663 621 569
f 569 586 663
f 640 587 642
f 664 643 641
f 665 623 609
f 666 665 609
f 624 606 643
f 667 666 609
f 609 644 667
f 624 646 625
f 667 644 645
f 613 615 647
f 627 668 648
f 615 630 669
f 648 668 670
f 670 649 648
f 671 669 630
f 651 671 630
f 672 670 673
f 670 672 649
f 672 650 649
f 653 671 651
f 672 673 674
f 650 672 652
f 674 652 672
f 653 655 675
f 635 652 676
f 676 652 674
f 635 676 677
f 635 677 656
f 656 677 658
f 655 657 678
f 679 680 658
f 657 658 680
f 681 659 636
f 660 681 636
f 600 682 620
f 683 620 682
f 620 683 601
f 602 639 622
f 664 641 622
f 664 622 684
f 684 643 664
f 685 624 643
f 686 646 624
f 667 687 666
f 667 645 687
f 646 688 611
f 689 627 611
f 689 668 627
f 647 615 690
f 615 669 690
f 653 691 671
f 692 674 673
f 691 653 675
f 693 676 674
f 677 676 693
f 655 678 675
f 677 679 658
f 678 657 680
f 694 598 583
f 598 694 600
f 682 600 695
f 695 600 694
f 660 696 681
f 697 601 683
f 697 639 601
f 698 622 639
f 622 698 699
f 684 622 699
f 699 700 684
f 623 665 642
f 643 701 685
f 666 702 665
f 624 685 686
f 687 702 666
f 646 686 688
f 611 688 703
f 669 704 690
f 705 670 668
f 705 673 670
f 671 704 669
f 671 691 704
f 704 691 706
f 674 692 707
f 706 691 708
f 708 691 675
f 693 674 707
f 709 693 710
f 709 677 693
f 711 675 678
f 712 711 678
f 677 709 679
f 680 679 712
f 680 712 678
f 583 713 694
f 583 659 713
f 659 681 714
f 681 715 714
f 715 681 696
f 716 682 695
f 660 717 696
f 717 660 661
f 683 682 716
f 717 661 662
f 662 663 718
f 719 639 697
f 586 640 720
f 642 721 640
f 700 701 684
f 643 684 701
f 687 645 722
f 645 647 722
f 611 703 689
f 690 723 647
f 689 724 668
f 725 690 704
f 724 705 668
f 725 704 706
f 725 706 726
f 726 706 708
f 693 707 710
f 675 727 708
f 711 712 728
f 679 709 728
f 728 712 679
f 714 713 659
f 729 696 717
f 696 729 715
f 730 683 716
f 662 731 717
f 697 683 730
f 732 731 662
f 718 732 662
f 718 663 586
f 586 720 718
f 719 698 639
f 640 733 720
f 699 698 734
f 733 640 721
f 734 701 699
f 721 642 665
f 699 701 700
f 735 685 701
f 702 687 736
f 687 722 736
f 703 688 737
f 722 647 723
f 689 703 737
f 689 737 738
f 689 738 724
f 725 739 690
f 707 692 673
f 740 725 726
f 726 708 727
f 727 741 726
f 742 709 710
f 728 742 727
f 711 727 675
f 742 728 709
f 727 711 728
f 743 695 694
f 715 744 714
f 715 745 744
f 731 746 717
f 745 715 729
f 719 697 730
f 718 747 732
f 718 720 747
f 747 720 748
f 734 698 719
f 701 734 749
f 749 735 701
f 665 702 750
f 688 686 751
f 688 751 737
f 724 738 752
f 724 753 705
f 753 673 705
f 739 725 740
f 707 673 753
f 754 710 707
f 726 741 740
f 742 754 755
f 754 742 710
f 742 755 756
f 756 727 742
f 744 713 714
f 746 757 717
f 745 729 757
f 717 757 729
f 758 732 747
f 759 719 760
f 720 733 748
f 761 719 759
f 734 719 761
f 749 734 761
f 762 735 749
f 763 721 665
f 735 762 764
f 764 685 735
f 665 750 763
f 764 686 685
f 686 764 751
f 736 750 702
f 751 765 737
f 766 722 723
f 737 765 752
f 737 752 738
f 767 723 768
f 752 769 724
f 723 690 768
f 770 724 769
f 690 739 768
f 771 768 739
f 753 724 770
f 770 772 753
f 754 753 772
f 739 773 771
f 772 774 754
f 739 740 773
f 707 753 754
f 755 754 774
f 755 774 775
f 740 741 773
f 755 775 773
f 773 756 755
f 773 741 756
f 727 756 741
f 713 776 694
f 694 777 743
f 757 746 778
f 778 745 757
f 743 716 695
f 743 730 716
f 730 760 719
f 747 779 758
f 779 747 748
f 780 759 760
f 781 761 759
f 733 721 782
f 761 762 749
f 763 782 721
f 764 762 783
f 784 763 750
f 785 786 764
f 751 764 786
f 736 784 750
f 787 788 784
f 736 787 784
f 765 751 786
f 722 766 787
f 736 722 787
f 765 789 752
f 767 766 723
f 790 770 769
f 770 791 792
f 770 792 772
f 793 774 772
f 768 771 794
f 794 771 795
f 796 775 774
f 773 795 771
f 775 794 795
f 773 775 795
f 777 694 776
f 713 744 776
f 745 778 744
f 743 777 730
f 732 797 731
f 758 798 732
f 777 760 730
f 779 798 758
f 748 733 779
f 781 759 780
f 799 761 781
f 761 799 762
f 800 782 763
f 784 801 800
f 800 763 784
f 784 788 801
f 764 783 785
f 766 802 788
f 766 788 787
f 803 765 786
f 765 803 789
f 769 752 789
f 790 791 770
f 793 772 792
f 794 804 768
f 794 805 804
f 793 796 774
f 794 775 805
f 796 805 775
f 777 776 806
f 807 777 806
f 732 798 797
f 777 807 760
f 760 807 780
f 733 808 779
f 781 780 807
f 733 782 809
f 799 810 762
f 810 811 762
f 783 762 811
f 802 812 801
f 801 788 802
f 802 813 812
f 814 786 785
f 786 814 803
f 813 802 815
f 802 766 815
f 803 816 789
f 767 815 766
f 817 769 789
f 818 768 804
f 804 819 818
f 817 790 769
f 790 817 791
f 792 791 820
f 820 793 792
f 805 821 804
f 793 820 821
f 821 796 793
f 796 821 805
f 744 822 776
f 744 778 822
f 822 778 746
f 776 822 823
f 806 776 824
f 824 776 823
f 825 797 798
f 807 806 824
f 798 779 825
f 826 781 807
f 809 808 733
f 826 799 781
f 782 827 809
f 827 782 800
f 801 828 800
f 829 801 812
f 811 830 783
f 830 785 783
f 813 831 812
f 831 813 832
f 833 832 813
f 813 815 833
f 815 767 833
f 789 816 834
f 834 817 789
f 818 767 768
f 817 834 835
f 835 791 817
f 791 835 836
f 836 820 791
f 804 837 819
f 804 821 837
f 838 746 731
f 731 797 838
f 823 839 824
f 840 807 824
f 824 841 840
f 824 839 841
f 842 825 779
f 826 807 840
f 840 841 826
f 808 842 779
f 843 826 841
f 843 799 826
f 843 810 799
f 827 800 844
f 828 844 800
f 828 801 845
f 843 811 810
f 801 829 845
f 829 812 831
f 832 846 831
f 814 785 830
f 832 847 846
f 847 832 833
f 848 816 803
f 847 833 767
f 849 847 767
f 767 818 849
f 850 835 834
f 819 849 818
f 836 835 850
f 836 850 851
f 820 836 852
f 851 852 836
f 821 820 852
f 837 821 852
f 853 822 746
f 746 838 853
f 822 853 854
f 855 823 822
f 822 854 855
f 823 856 839
f 839 857 841
f 858 841 857
f 841 858 843
f 859 843 858
f 811 843 859
f 846 860 831
f 830 861 814
f 814 861 848
f 848 803 814
f 847 862 846
f 816 848 863
f 816 863 834
f 849 819 864
f 850 834 865
f 819 837 864
f 797 866 838
f 866 797 825
f 842 866 825
f 867 866 842
f 856 857 839
f 842 868 867
f 868 842 808
f 830 811 859
f 831 860 829
f 863 848 869
f 849 862 847
f 870 862 849
f 863 865 834
f 864 870 849
f 865 871 850
f 871 851 850
f 837 852 872
f 851 873 852
f 838 874 853
f 853 874 875
f 855 856 823
f 874 838 866
f 857 856 876
f 877 868 808
f 808 809 877
f 877 809 878
f 827 878 809
f 844 878 827
f 879 844 828
f 828 845 879
f 880 845 829
f 830 859 881
f 861 830 882
f 848 861 883
f 884 846 862
f 883 869 848
f 884 862 870
f 885 865 863
f 884 870 872
f 870 864 872
f 872 864 837
f 872 852 886
f 852 873 886
f 871 873 851
f 875 854 853
f 855 887 856
f 888 874 866
f 867 888 866
f 888 867 868
f 876 858 857
f 889 858 876
f 889 859 858
f 878 844 890
f 844 879 890
f 859 889 881
f 880 829 860
f 881 882 830
f 861 882 891
f 891 883 861
f 883 891 892
f 893 846 884
f 869 883 892
f 894 895 865
f 884 872 896
f 872 886 896
f 895 871 865
f 886 873 895
f 895 873 871
f 897 856 887
f 876 856 897
f 879 845 880
f 889 898 881
f 860 846 893
f 891 899 892
f 893 884 900
f 899 869 892
f 869 885 863
f 896 900 884
f 900 896 901
f 865 885 902
f 865 902 894
f 886 901 896
f 886 894 901
f 894 886 895
f 854 887 855
f 876 897 903
f 876 898 889
f 876 903 898
f 898 882 881
f 893 904 860
f 893 900 905
f 882 906 891
f 899 891 906
f 901 905 900
f 899 885 869
f 907 875 874
f 854 875 887
f 897 887 908
f 909 888 868
f 909 868 877
f 897 910 903
f 911 878 890
f 879 912 890
f 898 903 913
f 903 914 913
f 860 915 880
f 913 882 898
f 860 904 915
f 904 893 916
f 893 905 916
f 905 917 916
f 913 918 882
f 906 882 918
f 905 919 917
f 918 920 906
f 919 905 901
f 901 921 919
f 906 920 899
f 885 899 920
f 920 902 885
f 921 894 902
f 901 894 921
f 875 922 887
f 907 874 888
f 908 887 923
f 910 897 908
f 924 903 910
f 877 878 925
f 911 925 878
f 879 880 912
f 914 903 924
f 914 926 913
f 913 926 918
f 926 927 918
f 928 927 926
f 917 919 929
f 920 918 927
f 902 920 927
f 922 875 907
f 887 922 923
f 907 888 930
f 888 909 930
f 909 877 925
f 912 911 890
f 880 915 931
f 914 928 926
f 917 932 916
f 917 929 932
f 928 933 927
f 902 927 933
f 921 934 919
f 902 933 935
f 934 921 935
f 902 935 921
f 936 922 907
f 922 936 937
f 923 922 937
f 938 908 923
f 930 909 925
f 939 911 912
f 931 940 912
f 880 931 912
f 914 924 941
f 904 916 932
f 933 928 942
f 919 943 929
f 943 919 934
f 936 907 930
f 908 938 944
f 944 910 908
f 944 924 910
f 945 925 911
f 924 944 941
f 939 912 940
f 940 931 946
f 928 914 941
f 947 928 941
f 948 915 904
f 904 932 948
f 942 928 947
f 949 943 934
f 934 935 950
f 950 949 934
f 936 951 937
f 930 952 936
f 953 923 937
f 923 953 938
f 925 954 930
f 925 955 954
f 938 953 944
f 944 956 941
f 956 944 953
f 955 925 945
f 939 957 911
f 940 957 939
f 945 911 957
f 915 946 931
f 946 915 948
f 941 956 947
f 958 932 929
f 933 942 950
f 933 950 935
f 937 951 959
f 936 960 951
f 960 936 952
f 959 953 937
f 953 959 961
f 930 954 952
f 953 961 962
f 953 962 956
f 945 957 963
f 956 962 964
f 956 964 947
f 965 964 966
f 948 932 958
f 964 965 947
f 942 947 965
f 929 943 958
f 942 965 967
f 942 967 950
f 949 968 943
f 949 967 968
f 950 967 949
f 969 959 951
f 969 951 960
f 959 970 961
f 959 969 970
f 952 954 960
f 969 971 970
f 954 955 972
f 955 945 972
f 945 963 972
f 962 961 970
f 957 940 973
f 940 946 974
f 946 948 975
f 976 948 958
f 976 958 977
f 966 968 965
f 977 943 978
f 943 977 958
f 978 968 966
f 978 943 968
f 965 968 967
f 979 969 960
f 960 980 979
f 981 980 960
f 971 969 979
f 960 954 981
f 972 981 954
f 971 982 970
f 972 963 983
f 957 983 963
f 973 940 984
f 957 973 983
f 985 962 970
f 970 982 985
f 940 974 984
f 962 985 964
f 946 975 974
f 948 986 975
f 986 948 976
f 966 964 985
f 985 987 966
f 978 966 987
f 971 979 988
f 982 971 989
f 978 990 977
f 978 987 990
f 980 988 979
f 980 991 988
f 991 980 981
f 992 971 988
f 981 983 993
f 981 972 983
f 993 983 973
f 984 993 973
f 989 985 982
f 989 994 985
f 975 995 974
f 985 994 996
f 986 976 997
f 985 996 987
f 976 977 990
f 992 989 971
f 994 989 992
f 974 998 984
f 997 976 999
f 996 990 987
f 976 990 999
f 1000 988 991
f 1001 988 1000
f 1000 991 981
f 981 993 1000
f 1001 992 988
f 998 993 984
f 992 1002 994
f 995 998 974
f 994 1002 999
f 995 975 997
f 986 997 975
f 996 994 999
f 996 999 990
f 1000 993 998
f 1001 1000 995
f 995 1000 998
f 995 997 1001
f 992 1001 1002
f 1002 1001 997
f 999 1002 997
