v -120.860916 89.975060 -77.061974

v -116.775208 92.611481 -77.945251

v -122.617386 85.789719 -77.426651

v -121.855865 81.655472 -78.028954

v -123.342239 81.211876 -77.194305

v -123.078278 75.479660 -77.330048

v -87.580917 94.262848 -77.782158

v -110.238098 94.799011 -77.941315

v -88.363571 97.486053 -76.159714

v -120.509766 69.193466 -78.064453

v -121.979202 68.648262 -77.162117

v -81.069321 88.841110 -75.974983

v -85.114304 85.453880 -77.864281

v -101.069550 75.846275 -77.958008

v -104.418945 55.419815 -78.049217

v -100.930565 63.407867 -77.949585

v -87.771255 79.076767 -76.104523

v -99.297943 73.090797 -76.128899

v -116.711159 59.098137 -77.972137

v -110.146988 52.524857 -77.878120

v -118.161926 92.228081 -70.440094

v -114.051422 97.750938 -65.430290

v -112.094604 98.794312 -71.472961

v -103.869934 99.536133 -74.971191

v -90.111458 101.380615 -75.743134

v -120.325882 85.201080 -69.814575

v -75.865158 105.146027 -72.152451

v -77.307953 101.228516 -75.836441

v -121.122963 79.374802 -69.750549

v -66.083466 95.161957 -75.780334

v -119.283485 62.174644 -70.985809

v -68.694565 86.155861 -75.870331

v -62.044525 95.750534 -74.020676

v -98.412140 67.489799 -75.819550

v -116.035751 54.489410 -72.027893

v -82.864502 73.920532 -74.092102

v -98.021942 59.322784 -76.213409

v -104.629242 49.569862 -73.301361

v -94.602432 56.350300 -74.194901

v -92.250824 105.410645 -72.444336

v -67.859009 83.160538 -74.021362

v -52.657883 86.306763 -73.915871

v -95.691795 66.701546 -74.176582

v -58.673363 72.590378 -73.986259

v -56.092102 74.572151 -72.085907

v -93.955048 48.184708 -74.188240

v -95.433220 45.300842 -72.364548

v -57.066711 54.014679 -74.017075

v -76.843872 46.093750 -74.116982

v -87.371948 45.240265 -72.347992

v -51.799026 63.816257 -72.153221

v -66.370125 45.196686 -74.076553

v -69.930237 41.466370 -72.297531

v -105.065552 104.306976 -70.705536

v -99.453491 106.243774 -71.412170

v -83.646851 109.634033 -71.786255

v -70.182144 109.811707 -71.877701

v -70.831665 112.729126 -69.502930

v -62.483150 106.528687 -71.936569

v -120.708740 69.511436 -69.891632

v -56.339787 95.964264 -72.063393

v -50.951557 95.912552 -71.846420

v -50.669449 85.134628 -72.109238

v -46.101898 86.602844 -71.775124

v -111.601501 46.761780 -71.595947

v -44.047630 70.910904 -71.985443

v -106.884842 42.665939 -72.096298

v -100.209259 40.668533 -72.158524

v -80.852806 40.438950 -72.191818

v -47.033905 59.979660 -71.985077

v -86.184502 37.666931 -70.561340

v -40.984711 65.215118 -70.090805

v -58.540146 47.161102 -70.296570

v -67.272202 40.540619 -70.743446

v -77.407684 33.924347 -69.214890

v -49.495071 52.015549 -70.221863

v -108.810989 102.632706 -64.807449

v -84.352875 112.790161 -69.031799

v -117.443321 92.461121 -65.203590

v -62.030273 110.301025 -69.847473

v -55.074493 106.984985 -69.462708

v -115.150993 54.829773 -66.162079

v -46.553345 92.802612 -68.710632

v -42.174072 80.326538 -69.939148

v -109.360100 44.552444 -65.947067

v -100.890968 38.186859 -69.418053

v -40.113464 70.222107 -70.097961

v -94.871826 34.453720 -68.718323

v -35.805908 76.405853 -66.687195

v -85.749405 34.089233 -70.164803

v -35.494385 69.947777 -68.006943

v -37.844742 62.397327 -68.288925

v -39.475067 55.644783 -70.085815

v -54.174839 38.220551 -69.952316

v -67.868347 36.041702 -68.477676

v -36.264206 41.300980 -70.123901

v -46.906258 38.001091 -70.179916

v -36.672638 54.020477 -68.283432

v -33.287918 41.543514 -68.215515

v -41.823784 36.819393 -69.837547

v -35.062630 38.423626 -68.323784

v -95.202301 111.108704 -66.585632

v -119.777954 84.705994 -65.556114

v -61.271362 113.230469 -66.147461

v -69.797592 115.605713 -62.810257

v -120.225845 78.136131 -65.270432

v -50.486740 106.071991 -66.301216

v -118.454147 63.782143 -65.819061

v -40.267952 88.859436 -66.221878

v -102.854454 38.864120 -65.452423

v -31.173599 68.458069 -65.520203

v -81.771927 29.340256 -67.587914

v -32.076378 59.529358 -67.972847

v -71.182961 29.638634 -68.264816

v -57.729828 37.082581 -68.232635

v -29.623558 53.568668 -67.562439

v -50.079346 34.570972 -64.618500

v -27.892063 44.517525 -67.918228

v -33.884552 39.583515 -64.836906

v -33.714180 36.559620 -64.601128

v -91.690987 113.002823 -62.951141

v -80.246292 115.024246 -62.981049

v -120.763031 67.211540 -63.914154

v -47.827942 112.073364 -64.300903

v -42.010914 102.680267 -66.039658

v -32.422882 89.349747 -66.060257

v -32.581841 79.100502 -65.967651

v -94.645630 31.438925 -63.618397

v -87.674957 28.018887 -63.725086

v -69.794388 26.850388 -64.805656

v -43.837776 37.188820 -65.437042

v -41.548248 35.555508 -64.501961

v -27.650478 41.217842 -64.544678

v -113.303909 92.433075 -63.885410

v -115.700760 82.276649 -63.469513

v -117.773613 77.854568 -62.982944

v -40.228897 111.403381 -60.667816

v -119.416641 57.037132 -63.618851

v -36.045715 102.788086 -60.586517

v -34.979271 99.329773 -62.483978

v -115.596581 47.622948 -62.583378

v -109.637917 40.449070 -62.118446

v -29.527832 88.133957 -62.622124

v -29.020721 76.352432 -61.105446

v -28.469467 67.351791 -60.908508

v -28.465622 58.761520 -61.563507

v -76.685524 24.895369 -63.621021

v -27.767136 52.036873 -63.183578

v -66.311134 23.960833 -63.514977

v -25.042328 49.459930 -62.554512

v -54.355774 24.958984 -64.485733

v -53.913193 23.075310 -63.112057

v -22.136749 38.850128 -62.326729

v -27.411804 31.180431 -64.303009

v -41.581772 22.870651 -64.218979

v -31.703560 26.284439 -61.427929

v -78.235664 119.545837 -62.075226

v -103.264198 105.875565 -59.302536

v -106.421616 100.200859 -60.119659

v -64.321838 119.609375 -60.246216

v -114.822861 88.531693 -59.199158

v -53.417969 118.315918 -60.151611

v -120.067436 61.838150 -56.326813

v -118.499062 53.503147 -61.782715

v -30.908112 100.971054 -60.314026

v -26.984924 94.867409 -62.185997

v -20.860596 88.285172 -58.377686

v -25.756256 86.440247 -62.045425

v -99.522636 35.221458 -61.242073

v -85.518150 30.584602 -58.391785

v -67.468437 24.579651 -59.425415

v -59.079430 23.567413 -59.394070

v -48.407478 24.029633 -61.116814

v -40.907810 22.332977 -60.979599

v -25.637724 33.155685 -61.309265

v -90.365906 119.634766 -58.991669

v -79.073059 121.774170 -58.755127

v -95.605400 112.608887 -58.860809

v -110.941879 94.539528 -59.210144

v -118.352051 80.530655 -59.130249

v -122.818329 75.591156 -57.431335

v -123.230286 69.967125 -55.915558

v -40.547852 117.940910 -57.249817

v -31.463287 107.432648 -59.895874

v -115.832138 53.940536 -59.308819

v -111.723900 48.473248 -59.380184

v -26.852661 99.062988 -58.390869

v -106.213829 41.972088 -59.954742

v -23.422760 82.432404 -59.586716

v -24.473724 74.635422 -59.052780

v -24.997742 64.745377 -59.741623

v -77.339073 26.636292 -59.603333

v -21.365143 53.335434 -58.338409

v -17.392303 42.996948 -59.706070

v -54.510300 27.220581 -58.456970

v -43.098751 27.308044 -60.280663

v -17.998804 37.669945 -59.720909

v -23.178085 35.858055 -57.954002

v -32.580063 27.822876 -60.272491

v -94.425766 120.137779 -58.026558

v -86.525711 124.192261 -57.840805

v -104.538841 112.257385 -58.069405

v -107.206543 103.994934 -58.745544

v -111.289551 102.927879 -58.233826

v -117.293747 94.801514 -58.346054

v -69.024063 122.113708 -57.146118

v -119.685921 88.498993 -58.291382

v -52.928219 121.061279 -57.268311

v -122.540512 82.454437 -58.254608

v -117.507416 55.571522 -55.920715

v -18.858917 92.372223 -56.238251

v -96.727173 36.851089 -55.803581

v -99.597343 38.804203 -52.251801

v -20.008942 77.292595 -58.055927

v -20.779675 67.727097 -57.922092

v -20.290882 59.474808 -57.534470

v -73.630379 28.543266 -57.949638

v -65.283264 28.348797 -57.580276

v -20.677727 51.760735 -57.033371

v -18.652653 47.438686 -57.174717

v -16.704010 41.319870 -56.951866

v -52.062935 29.369797 -56.485413

v -41.335205 29.997818 -56.921768

v -85.730499 125.661758 -50.625977

v -100.167969 116.067184 -53.558899

v -75.339355 125.382263 -55.797852

v -115.202957 100.053169 -54.005836

v -63.577103 124.528748 -55.412109

v -119.522461 91.960014 -54.053780

v -29.456116 114.694458 -54.643555

v -21.553253 102.721603 -53.153061

v -105.838127 43.198914 -52.230831

v -17.878891 80.537949 -54.727005

v -81.558380 30.342255 -51.747272

v -70.679337 28.542664 -54.199108

v -21.804520 58.143906 -52.236008

v -23.092148 50.828644 -54.631042

v -58.630402 28.429098 -52.411102

v -23.487213 44.260620 -56.507721

v -42.250916 35.664764 -56.405777

v -26.592682 42.268631 -54.857254

v -27.196030 37.136765 -56.698223

v -106.833740 109.946030 -53.932343

v -110.410477 104.006866 -53.339767

v -121.144272 86.789780 -53.936646

v -50.350342 125.353394 -49.145020

v -125.212631 78.372009 -53.949150

v -127.312820 71.938049 -52.363892

v -33.760269 119.629517 -49.688477

v -112.410507 49.468025 -52.145649

v -109.664085 48.135681 -51.594696

v -14.164108 84.645142 -50.707184

v -16.649029 71.767532 -49.955757

v -89.914474 33.246250 -52.150269

v -74.031006 27.715588 -51.894051

v -66.107086 27.237015 -51.878799

v -28.980652 50.449707 -52.125244

v -37.898972 40.779449 -54.586540

v -52.864326 32.111931 -49.241146

v -104.217026 108.747948 -51.453766

v -112.615181 97.171021 -51.082188

v -63.166260 127.790039 -51.519043

v -117.557747 90.615555 -50.918362

v -125.112404 65.254280 -50.829758

v -118.842041 54.605080 -52.192169

v -22.047462 106.251740 -49.346016

v -16.738708 94.346085 -49.793640

v -19.315277 63.332352 -49.437378

v -36.261276 46.740509 -48.083649

v -39.623993 42.344849 -49.923035

v -46.123016 37.633575 -49.267986

v -94.795959 119.213730 -48.014801

v -73.000366 132.406128 -40.642822

v -108.749146 102.560242 -50.125427

v -121.608398 81.851036 -49.254547

v -125.703697 74.376259 -49.634441

v -39.402283 123.944427 -44.238770

v -27.773651 116.473022 -49.322571

v -116.192162 53.778469 -49.750107

v -100.575623 40.885483 -51.275627

v -101.730530 47.187096 -50.559109

v -91.875031 37.062988 -51.043968

v -13.058228 76.886330 -48.162659

v -80.802719 34.363579 -49.263977

v -25.731987 56.136673 -47.574158

v -59.262741 29.922989 -49.204109

v -78.474731 130.304749 -42.976685

v -88.046143 127.543274 -46.401672

v -100.840332 113.055038 -47.931335

v -109.674438 105.701111 -46.691895

v -112.786514 100.836624 -47.503815

v -117.183380 94.811661 -47.706982

v -119.523148 89.297974 -47.945496

v -120.768242 68.049896 -48.788410

v -116.193802 77.686119 -44.146828

v -31.589783 120.239250 -43.490967

v -115.712570 58.209244 -48.825386

v -22.581558 112.640701 -47.674133

v -17.751373 105.724342 -48.080399

v -108.490562 52.118454 -47.932426

v -14.334213 95.643829 -47.915207

v -95.027901 44.837196 -48.043564

v -92.267120 41.848389 -49.134109

v -11.200958 85.675049 -47.746063

v -84.226425 41.916130 -48.112469

v -70.808289 39.788246 -48.179684

v -68.897018 37.966400 -49.112030

v -61.791889 39.461884 -48.960793

v -21.091919 65.161537 -45.997284

v -54.943604 41.223541 -47.976852

v -44.569885 42.249695 -48.188751

v -48.615021 44.073883 -46.026886

v -97.995621 121.319695 -45.839676

v -104.379974 115.059280 -46.144653

v -108.016571 110.093529 -45.445068

v -60.321411 130.593018 -44.006592

v -117.118378 86.546089 -44.126556

v -44.813904 126.793335 -43.328003

v -113.050751 58.631977 -46.527046

v -113.236237 67.364708 -44.543919

v -21.798080 113.582199 -42.300049

v -14.829330 102.867874 -43.602295

v -9.467300 86.908997 -42.899750

v -11.511121 77.417046 -43.940086

v -15.165762 71.272545 -42.564430

v -63.076057 40.063313 -41.993752

v -31.171295 56.592560 -46.446510

v -37.640060 51.340683 -46.457687

v -95.608871 122.972687 -38.480103

v -88.302704 127.612328 -40.947754

v -106.636147 112.578453 -38.163307

v -105.584908 51.490353 -42.524117

v -12.670265 95.610725 -43.762863

v -89.827576 43.183128 -41.990124

v -98.379517 46.197926 -42.664066

v -82.606705 41.393040 -42.211098

v -18.794783 67.835869 -42.380154

v -71.669159 39.086182 -42.259270

v -23.820206 62.455215 -42.315964

v -30.188103 57.769276 -42.157364

v -42.684692 50.552551 -39.577759

v -54.150269 43.392303 -41.830978

v -102.770927 117.255287 -38.309761

v -112.788231 105.355515 -41.186363

v -72.401184 134.652679 -38.560669

v -115.232239 100.400749 -40.476303

v -58.685913 133.708191 -40.411743

v -116.406914 88.476135 -40.296036

v -117.332222 82.157928 -37.721825

v -38.324532 127.481873 -40.864807

v -30.150322 123.711258 -39.501678

v -114.511833 69.974518 -39.564796

v -112.115990 63.408031 -40.327217

v -108.233284 57.063736 -41.560734

v -9.390198 97.348785 -41.833221

v -6.945724 87.330719 -40.290771

v -8.763575 77.531433 -41.819103

v -81.305885 133.723190 -38.318130

v -109.252525 107.444031 -38.133202

v -47.148895 130.960175 -40.045105

v -116.297607 77.018356 -37.521713

v -23.652596 119.086288 -39.524490

v -16.260056 111.806152 -40.037491

v -104.088776 58.085754 -39.834976

v -94.808380 50.012634 -41.138847

v -97.388840 47.302109 -41.611710

v -84.380905 45.502350 -41.091080

v -75.792587 42.745026 -41.170792

v -6.111609 80.523865 -37.528503

v -60.575089 44.861908 -40.969475

v -71.518311 45.774841 -39.043762

v -20.826408 68.408508 -31.001621

v -26.227722 64.152946 -37.231445

v -35.680077 57.339508 -35.512756

v -91.423706 127.036400 -37.742752

v -62.639191 135.770309 -32.773567

v -110.993027 99.836418 -38.922714

v -57.306267 135.147034 -34.596191

v -112.988823 91.519653 -38.634430

v -39.531708 130.493195 -33.933716

v -103.117210 60.203911 -39.200172

v -91.960609 53.851563 -39.157249

v -7.619997 103.239029 -35.087570

v -87.163216 53.082214 -37.385315

v -4.984823 95.316864 -34.238945

v -61.389214 46.145386 -38.205307

v -53.235703 46.102386 -38.217346

v -78.314194 133.445358 -34.550465

v -95.398438 118.953659 -35.713959

v -100.186966 115.348503 -36.851227

v -104.629044 106.166275 -36.571758

v -108.812637 98.734261 -36.028732

v -114.266983 87.107849 -35.098816

v -108.545082 69.202957 -34.136326

v -102.605499 64.330536 -34.403629

v -13.580658 108.341820 -30.582474

v -91.771126 58.376205 -34.104134

v -73.101349 49.602234 -37.163696

v -63.079033 49.519455 -36.848671

v -54.077618 49.725609 -36.839066

v -44.857674 52.459949 -36.475204

v -92.809280 124.506584 -32.543396

v -95.684608 120.491089 -32.079803

v -71.259705 135.135406 -32.463745

v -99.705032 116.011833 -32.969635

v -101.701248 113.343552 -33.194984

v -103.777100 110.570084 -33.130543

v -105.765335 106.992516 -32.988625

v -50.107929 134.333542 -32.568878

v -113.392220 92.922379 -32.107780

v -112.744202 80.552902 -32.928543

v -37.256363 129.590637 -28.629669

v -26.441544 121.443031 -31.192200

v -19.486256 115.970795 -28.785278

v -85.292412 58.511261 -32.407806

v -76.353897 54.027222 -33.137238

v -7.074597 77.528976 -28.929522

v -11.593887 73.380569 -30.570068

v -50.752186 50.238644 -31.824097

v -76.208923 134.246933 -32.059265

v -81.546234 132.477325 -32.238968

v -51.738602 134.400955 -27.434546

v -109.662613 100.525398 -32.151588

v -106.996582 72.832710 -33.277729

v -98.513496 67.008224 -33.361252

v -105.400543 73.850731 -30.919523

v -92.127777 62.105576 -33.229156

v -71.472298 52.194633 -30.793839

v -5.368403 87.125740 -28.358261

v -61.510406 50.804031 -30.383560

v -29.623701 62.225670 -28.478521

v -38.900536 53.191650 -27.780540

v -84.251099 123.602623 -28.124023

v -104.146729 105.957771 -26.257687

v -57.303406 134.511871 -27.532227

v -112.370369 85.381302 -26.306858

v -102.503937 72.827019 -25.583000

v -96.371559 67.610504 -25.998289

v -89.898979 62.910217 -26.861753

v -75.941040 56.635483 -29.327072

v -6.166425 93.541702 -29.325430

v -74.863617 128.287262 -26.875854

v -67.438713 130.774750 -26.314087

v -99.022079 112.600891 -26.864868

v -108.516670 96.555443 -26.206505

v -106.812218 75.753136 -26.721422

v -29.098503 126.019028 -26.461670

v -80.538666 59.981487 -27.798180

v -7.175663 96.529915 -25.050629

v -65.963226 53.842030 -28.151354

v -52.182320 51.225918 -27.314758

v -21.351181 65.993561 -28.232265

v -9.754183 70.071136 -27.452827

v -91.262238 118.200912 -25.918549

v -61.384232 132.275940 -22.527954

v -43.105137 134.537964 -25.726009

v -36.931931 131.375122 -26.198914

v -22.291725 120.620529 -26.691833

v -15.499834 111.127174 -24.344603

v -74.092590 56.181747 -26.675432

v -59.678993 49.589752 -25.403828

v -3.626192 77.825233 -26.019508

v -21.972076 60.407188 -25.961349

v -31.116058 56.237114 -27.034798

v -87.445328 120.207909 -22.753372

v -73.567162 128.452057 -23.036316

v -95.389694 110.984955 -25.483116

v -101.170441 100.138840 -25.787106

v -104.121033 91.753021 -25.847752

v -106.450195 82.800896 -25.804844

v -20.840769 118.926300 -21.565264

v -82.850624 56.840508 -24.504768

v -74.324364 52.242096 -25.168242

v -66.806793 49.202106 -24.687393

v -5.387850 92.080559 -20.202965

v -3.753968 85.859718 -19.359642

v -53.922455 49.052029 -22.421555

v -5.196596 72.085266 -20.492477

v -10.422264 66.277351 -21.279999

v -67.802185 130.554550 -22.775024

v -91.408073 112.442505 -20.611092

v -49.616577 134.039185 -22.351074

v -95.033447 104.498566 -20.689041

v -100.336700 92.314934 -20.701752

v -34.298584 128.384705 -19.112854

v -26.231220 123.899689 -20.577438

v -98.965965 71.028427 -20.680058

v -91.936600 64.706467 -20.606874

v -46.093086 50.308731 -17.424500

v -28.779671 55.894699 -20.876251

v -73.756905 125.877213 -20.612427

v -43.036385 129.596527 -17.541992

v -101.835602 80.679451 -20.456133

v -16.400843 113.865814 -18.518162

v -12.897461 108.884544 -18.495064

v -87.684799 60.971745 -17.536579

v -7.258965 98.313766 -19.286053

v -83.463066 57.481110 -16.730709

v -75.676086 53.138988 -17.903385

v -37.068760 53.404564 -17.973732

v -21.240974 58.146835 -20.197609

v -81.149651 119.400711 -18.532532

v -85.141800 114.833878 -18.976967

v -88.552620 110.011345 -19.601418

v -59.443390 128.647095 -14.879639

v -92.115906 103.610161 -19.572388

v -50.517151 130.636230 -17.312744

v -96.199310 93.020042 -19.783669

v -97.721756 82.924568 -19.948891

v -95.476410 73.180511 -19.857735

v -25.046696 119.598061 -14.812637

v -63.525948 48.728664 -16.103905

v -54.799313 49.303551 -16.122581

v -9.095047 63.055664 -18.477585

v -69.148438 127.057648 -15.155807

v -77.223419 122.415787 -14.799789

v -88.502762 108.966072 -17.286026

v -92.828041 100.616089 -17.271332

v -32.077175 124.487976 -16.364723

v -95.933456 90.921303 -17.137894

v -96.621155 80.255028 -17.213257

v -94.505531 71.778625 -17.313766

v -7.327131 96.132607 -15.311874

v -25.890472 54.298798 -16.437378

v -3.658926 67.182404 -12.781515

v -13.436615 57.182838 -15.305618

v -87.807419 113.967873 -14.634747

v -93.314636 105.992996 -15.315613

v -96.963486 97.938354 -15.551605

v -99.284424 93.105881 -15.688461

v -100.092575 86.519058 -15.822556

v -99.595428 80.707680 -15.403229

v -97.944496 72.612724 -15.519653

v -94.583984 64.553635 -15.694458

v -92.580132 56.003326 -10.810686

v -7.407600 102.303040 -7.672487

v -82.461540 53.640125 -14.060627

v -70.698944 48.947887 -13.765984

v -5.507187 88.073624 -7.510963

v -4.769178 80.992523 -9.342987

v -44.623581 46.936096 -13.374786

v -3.834912 74.304611 -12.566284

v -71.651421 122.150749 -13.309479

v -76.341438 120.797058 -11.954102

v -65.227249 124.043518 -13.131554

v -57.480835 127.291855 -12.991486

v -90.151001 107.837021 -10.886444

v -95.892502 98.486481 -13.077827

v -99.936958 88.718819 -12.910343

v -38.405151 127.288727 -9.484924

v -97.940750 81.877647 -12.204300

v -99.152130 74.715195 -11.695915

v -99.058815 69.609253 -12.163399

v -95.880692 64.212845 -13.191971

v -14.534944 114.267082 -7.453351

v -58.875443 45.290527 -12.979065

v -34.458054 49.569855 -13.690887

v -4.283376 61.893513 -12.996476

v -23.415070 51.782845 -13.054382

v -48.080658 128.718262 -9.347229

v -92.598305 98.595543 -11.563004

v -94.651627 88.518517 -12.088806

v -95.352547 78.421387 -9.048874

v -21.556248 119.775520 -8.675568

v -99.321846 61.785667 -11.166855

v -10.115860 107.735413 -7.252690

v -6.637250 98.136635 -8.707705

v -82.441025 51.433060 -10.845816

v -67.846573 46.791260 -11.036016

v -6.242275 93.907410 -8.160110

v -35.961506 46.707092 -7.647766

v -27.707979 49.613541 -7.947462

v -18.323172 53.331219 -8.161751

v -7.673812 55.907101 -4.846191

v -69.128883 122.468567 -8.138428

v -85.825340 113.790298 -8.132751

v -63.232605 124.532684 -7.820435

v -57.227646 124.924744 -6.075867

v -30.192856 124.091805 -9.371819

v -98.126083 68.940910 -7.573975

v -100.959274 60.720825 -8.814865

v -94.704315 48.661968 -10.653111

v -77.306519 43.102398 -10.656711

v -85.188774 41.396946 -8.885840

v -67.423294 40.864944 -8.947828

v -6.710716 74.336441 -5.454133

v -51.978188 42.767578 -8.448692

v -47.615475 43.677628 -7.550501

v -42.805092 45.396656 -7.795384

v -90.911118 87.873520 -4.008148

v -93.552589 89.091354 -7.774933

v -38.698265 124.976151 -5.898926

v -95.017654 83.723122 -5.896011

v -21.815842 119.287186 -3.843018

v -102.153702 55.524101 -8.516380

v -95.339195 46.094467 -8.893450

v -103.605972 46.882843 -8.802542

v -89.979057 36.095020 -8.790705

v -107.091553 39.394989 -5.591642

v -100.031998 37.236191 -8.802145

v -102.128830 35.330151 -7.035990

v -92.899605 32.947525 -7.048096

v -74.314720 37.535358 -8.512794

v -62.201248 36.635605 -8.115240

v -55.705032 39.597481 -7.839609

v -6.125401 66.991486 -2.044983

v -13.241736 53.807549 -6.015543

v -76.825058 117.519714 0.540527

v -47.977287 124.888000 -5.316650

v -36.325745 122.121460 0.808594

v -95.942230 78.724686 -5.413086

v -98.575294 68.914459 -3.819199

v -15.814484 112.775505 -3.158661

v -102.419556 56.176102 -5.698425

v -104.828148 48.502758 -4.971924

v -11.147556 100.850540 -4.501015

v -105.407341 32.272499 -6.732849

v -9.092194 84.476532 -5.956884

v -100.293304 28.233423 -6.879964

v -85.837029 32.452595 -5.024953

v -8.920788 80.395744 -4.979841

v -68.454269 33.987228 -5.136124

v -52.595261 43.473755 -6.395691

v -45.314625 47.997940 -6.260094

v -47.885109 49.709534 -2.336975

v -20.580053 53.815960 -2.166977

v -89.321129 108.272385 -0.156647

v -46.748291 123.907043 1.167725

v -88.691994 97.415428 0.676614

v -98.685226 59.270214 0.816772

v -13.346773 102.369339 -0.811346

v -12.563374 93.425072 -3.394268

v -106.999084 30.213333 -3.502518

v -11.747221 89.313995 -1.421837

v -100.024620 25.645817 -5.132097

v -106.028473 25.442598 -4.576534

v -104.132889 21.194622 -5.033747

v -79.083504 21.125181 -4.982334

v -58.583817 44.864517 -2.855774

v -6.110847 72.189285 -1.133884

v -64.054565 37.721130 -2.626434

v -68.265785 31.479071 -4.232539

v -100.367859 13.485632 -4.174938

v -95.250824 10.850308 -4.675994

v -69.909523 27.789581 -4.246497

v -92.565819 12.233607 -4.956998

v -72.743660 24.112919 -4.374478

v -35.897194 53.714600 -1.339432

v -26.961607 53.445709 -0.371521

v -79.237846 18.916988 -4.228137

v -92.065880 12.029903 -1.113262

v -13.941559 54.943314 -2.919449

v -55.546631 122.700638 3.084595

v -26.296600 116.148758 0.814819

v -95.645874 66.842255 3.218483

v -100.725487 53.401642 0.360161

v -13.873726 92.545914 -0.770651

v -101.427673 42.635811 0.616249

v -104.742004 22.827087 -1.753113

v -99.970833 14.389898 0.476435

v -6.416833 77.667542 -1.355866

v -67.911911 35.516560 0.431904

v -78.561935 21.774673 0.703268

v -13.114635 62.918587 0.637503

v -85.732956 112.558350 6.145897

v -63.906525 121.146446 7.880905

v -92.976936 76.933777 2.781342

v -18.767794 108.321159 -0.540797

v -21.690346 94.515465 -0.641753

v -21.690401 104.677101 1.194348

v -24.091398 93.204857 1.415919

v -101.983215 28.778736 0.655113

v -9.756519 86.155472 4.649335

v -50.357338 50.895699 1.468552

v -60.060257 47.014835 1.342018

v -62.509033 42.190125 0.274338

v -42.232208 54.039497 2.455109

v -71.865631 27.630325 0.075043

v -9.599279 67.406998 0.467751

v -16.869024 56.765030 0.906898

v -91.169174 109.725830 1.937698

v -93.867920 103.559326 3.903534

v -87.933090 89.316887 5.627819

v -30.120968 113.677498 1.872343

v -27.343763 106.278648 1.342090

v -30.256584 96.566589 1.315904

v -29.783363 92.151169 1.745316

v -96.360092 50.447739 2.398415

v -97.258896 45.571434 1.032871

v -15.013439 91.503517 4.540222

v -91.975975 36.404686 0.904751

v -90.614250 15.101888 0.713010

v -83.522850 33.050011 0.880891

v -73.217628 36.314587 0.964581

v -76.226501 37.936996 2.636410

v -69.524544 40.023575 1.555550

v -7.058383 76.658821 6.490225

v -78.699036 116.046028 6.894989

v -93.723625 107.687111 6.081085

v -70.728737 119.108215 7.948700

v -53.445084 121.653961 7.975555

v -92.550598 98.201218 5.205204

v -32.291122 115.081360 7.860291

v -92.098206 83.853806 6.534195

v -31.884424 104.744026 5.216421

v -97.827332 61.902302 6.568054

v -97.778358 56.488983 5.075233

v -31.353096 97.941383 5.283589

v -29.794624 91.841965 3.926109

v -97.666397 51.116962 5.647987

v -20.220680 94.718506 6.891205

v -96.248825 45.850479 5.967865

v -93.301514 38.794022 5.631123

v -81.977272 34.243576 6.037971

v -55.353180 48.791992 5.359779

v -66.235977 42.972168 4.758362

v -33.635139 54.314297 8.413361

v -7.853034 66.539536 7.276814

v -10.740302 59.280380 8.141865

v -92.693161 101.912598 6.716003

v -42.584259 120.468323 8.261780

v -92.154556 95.728905 7.623447

v -94.200150 77.523178 7.522011

v -97.255920 67.466652 6.056013

v -30.489269 110.066681 9.306931

v -28.717661 96.093918 6.696491

v -86.151672 36.166134 7.612726

v -73.124573 36.946503 5.944336

v -59.683388 42.848938 8.695480

v -14.004534 55.904091 9.602781

v -21.010944 52.896545 9.511896

v -83.621040 109.807129 11.003548

v -87.065521 106.589119 9.792297

v -92.277710 89.951530 8.332565

v -29.239971 104.224937 7.251334

v -95.584694 55.242168 10.740276

v -94.085625 49.830032 10.808999

v -90.793694 41.242058 7.683517

v -12.359644 91.518364 10.703705

v -8.910548 85.884827 10.382954

v -75.249649 33.139221 8.459518

v -49.130913 52.992226 13.495270

v -8.174875 74.994812 13.284905

v -79.454926 112.741333 14.817200

v -66.659546 118.543091 11.186401

v -57.852295 119.105804 9.604034

v -90.296822 98.978409 10.953995

v -50.974907 118.761566 9.547729

v -37.369297 115.099518 9.438965

v -93.451096 76.205894 11.025200

v -94.834450 65.840485 10.381157

v -27.904312 105.751160 11.016479

v -24.451569 102.437973 10.746124

v -18.630548 95.927048 13.694946

v -56.987942 48.602623 13.514534

v -41.895683 54.043373 13.376232

v -8.818951 67.097664 12.956253

v -92.971397 84.975670 14.491302

v -37.638031 113.814850 11.838196

v -96.651604 59.392380 12.588165

v -94.139473 43.515759 12.352936

v -90.523491 38.017246 13.004696

v -83.098877 33.262581 13.413401

v -35.066017 56.708282 13.362427

v -61.884861 42.340790 14.169986

v -75.562637 33.517605 13.915185

v -31.483452 56.027771 10.887558

v -25.797836 58.018505 11.345356

v -10.651127 62.438141 16.808533

v -17.071590 56.946136 11.208031

v -17.707413 59.548164 15.320770

v -89.029327 105.438110 16.692535

v -70.463196 113.838989 16.243408

v -91.993118 100.844322 15.939629

v -94.313538 92.455162 15.207611

v -55.033661 114.236206 16.091003

v -40.874115 112.331055 13.274109

v -95.904510 66.845695 15.448303

v -26.531555 98.491913 17.263763

v -98.252930 51.053535 13.955893

v -8.181717 80.863251 19.635208

v -45.826595 112.063080 16.326607

v -94.329826 80.537598 18.058929

v -36.695786 106.273224 16.124054

v -98.346275 57.710304 18.000374

v -95.175789 42.378765 15.511280

v -87.549194 37.625656 14.398335

v -68.706863 45.273743 14.478220

v -64.344231 50.044792 16.341904

v -77.978531 39.712883 14.397931

v -47.167213 56.881416 16.311592

v -34.569244 62.318939 17.221405

v -25.735538 59.397434 16.873810

v -5.028298 68.674942 20.274204

v -93.261780 96.011230 21.804932

v -95.739006 93.593605 19.382212

v -59.440231 111.032715 17.690186

v -43.559265 106.333366 16.876343

v -55.905983 107.428925 19.904114

v -37.112213 103.200577 17.279991

v -95.666382 72.842567 21.127457

v -95.225235 49.032974 16.545731

v -14.991150 90.363861 21.357849

v -87.903656 41.080101 16.324429

v -59.370609 61.236923 16.427176

v -84.161430 42.400379 17.533386

v -78.559341 43.955460 18.186325

v -40.584450 62.861496 16.666641

v -5.687930 74.282745 19.385536

v -18.998543 58.857830 18.992081

v -87.966827 102.301392 18.996094

v -76.911896 106.897400 18.991760

v -63.189724 108.274933 19.103119

v -96.523956 87.711212 19.910400

v -50.937168 105.883774 21.563553

v -96.605675 55.779968 21.874443

v -93.330383 50.676548 21.810022

v -60.296734 62.248272 17.713312

v -55.841179 63.938255 20.511688

v -64.582970 58.430897 20.547728

v -46.344448 65.851517 19.435539

v -70.134995 50.636639 19.214798

v -36.760586 64.981018 20.010315

v -6.559512 63.066223 20.032265

v -11.723360 58.601063 19.586174

v -78.964478 102.334656 22.906616

v -70.268890 106.127136 21.592224

v -62.669716 106.813019 21.712402

v -96.570526 83.310936 21.529236

v -37.525375 100.869507 22.711456

v -28.739838 98.431580 21.883179

v -95.611107 64.360855 22.386255

v -75.933769 49.932220 22.258492

v -53.168594 63.235535 25.858017

v -67.672882 54.747025 22.594982

v -28.084621 62.290661 24.335396

v -15.515066 57.185791 26.742523

v -97.433517 90.641708 26.772766

v -64.644562 103.310669 22.964417

v -55.753784 102.958786 23.584595

v -48.336243 102.055428 23.051437

v -98.473488 70.336227 25.026428

v -90.938004 60.812202 22.262154

v -22.980591 91.339172 29.640747

v -83.919930 54.783531 22.308407

v -60.881874 58.239735 26.075554

v -43.757084 65.339844 27.051760

v -68.031784 53.794250 26.056644

v -84.702255 98.292847 26.949341

v -101.984581 85.676476 26.595711

v -100.686142 76.192482 25.508570

v -86.756210 57.554996 29.373020

v -14.268372 84.925690 27.094131

v -75.657104 53.866676 27.711609

v -10.250040 77.236450 28.027679

v -28.293205 61.007339 26.907814

v -9.626270 58.392792 26.318573

v -72.219482 99.749031 29.401123

v -105.279213 80.044998 26.319754

v -104.675621 74.900299 26.198685

v -63.857483 101.161438 29.462830

v -54.057465 100.966858 28.975708

v -101.621323 70.009682 29.654345

v -33.677063 97.377106 28.942017

v -97.879753 63.372795 31.428371

v -8.101669 70.662201 30.119995

v -7.353048 63.020493 30.848324

v -100.248474 86.704376 29.558441

v -86.279633 93.231155 29.625542

v -104.279587 82.516586 29.432747

v -102.731110 73.928467 29.805832

v -95.547073 61.225296 31.277124

v -17.109192 84.040009 29.110321

v -63.845818 62.023540 29.917763

v -50.845356 66.211807 30.670105

v -42.998390 66.565811 30.518204

v -31.897522 63.112328 34.587051

v -24.216362 60.063984 32.353088

v -9.162729 57.986782 31.155678

v -96.461380 83.962616 30.041016

v -82.894180 91.599182 30.053452

v -74.994980 91.849487 32.811768

v -57.056137 97.693970 32.735107

v -46.790710 96.517822 34.932495

v -35.380493 94.891235 31.921631

v -22.844414 88.232300 32.676758

v -80.660164 53.654984 32.521179

v -70.305939 59.071907 33.765228

v -58.467098 64.529144 32.669640

v -20.379883 83.302246 36.203857

v -16.358429 57.107506 32.899170

v -85.693573 85.865112 32.298218

v -68.317505 92.192627 33.878845

v -96.261719 77.620361 32.187805

v -93.513428 75.577271 34.597656

v -97.869843 68.618042 32.938538

v -94.686394 54.776939 32.133575

v -86.064911 54.084641 31.599213

v -86.766121 52.076241 33.181519

v -48.102394 65.857147 34.400116

v -10.227097 67.868599 33.171082

v -76.879944 86.433136 36.638916

v -84.506363 82.664551 36.534180

v -38.279327 94.030029 35.404541

v -97.919128 59.718060 38.262268

v -29.146606 87.630371 38.095703

v -95.141266 55.286987 38.870186

v -36.498169 64.026855 35.370483

v -21.493977 51.984375 37.342148

v -11.490124 56.431877 37.597282

v -71.086075 88.009583 37.019104

v -90.294312 74.232178 38.650208

v -63.522141 92.073395 37.022949

v -47.204590 93.546875 37.851685

v -62.598724 60.636906 41.327118

v -55.822235 61.865112 37.257263

v -46.624786 61.919678 37.597046

v -17.948685 73.925293 42.685364

v -11.955864 64.628113 41.195129

v -28.443119 54.384277 37.307831

v -81.741150 79.065674 37.878510

v -75.104095 81.391815 39.205811

v -61.513672 88.678833 38.909668

v -93.934143 67.742744 39.289078

v -33.922211 86.153320 40.240906

v -86.090881 55.532661 39.315990

v -81.335701 54.118301 40.747101

v -71.466782 59.600250 41.100433

v -26.099213 81.474182 42.539185

v -40.860352 59.484924 39.902924

v -37.126053 56.147491 42.396027

v -24.319717 46.747337 37.745197

v -14.090122 47.983887 37.842537

v -11.446003 50.898643 38.606876

v -19.535105 44.649227 38.482124

v -82.926880 75.819946 39.386986

v -68.497986 82.064880 39.874969

v -77.331528 71.546341 39.465721

v -47.303268 89.532715 41.042236

v -80.152588 62.757534 39.417202

v -75.640778 65.673889 41.231354

v -82.571960 55.887390 41.310066

v -31.944489 51.303726 43.371246

v -10.587266 54.318848 41.125347

v -24.386223 43.603989 42.341309

v -59.361816 82.391052 43.046936

v -53.533447 84.375732 43.072937

v -71.363770 73.132080 41.695740

v -36.799347 84.993591 43.226273

v -68.998825 61.357784 46.802673

v -70.118134 61.969543 44.495270

v -54.656998 60.216904 43.040894

v -52.087940 58.734711 47.137390

v -44.338562 56.926105 46.661240

v -15.469696 62.566406 46.558899

v -28.989855 45.162430 46.472275

v -13.583115 54.687347 47.507324

v -13.970873 48.340977 46.583794

v -19.610470 43.098511 47.105003

v -51.457672 81.806458 43.527603

v -65.024658 73.007935 43.941650

v -70.290222 67.647842 43.900391

v -46.351089 80.739075 45.209915

v -33.687294 80.046051 45.283291

v -22.159210 73.634399 45.234215

v -20.222977 69.625122 45.856293

v -55.229858 73.933472 46.321747

v -67.880920 67.244659 46.923004

v -43.764046 76.333496 45.388096

v -61.068344 61.253098 47.133499

v -57.397671 60.021008 47.531593

v -29.577148 71.488647 46.754517

v -38.361115 53.362137 46.672226

v -33.583511 46.758804 46.857407

v -44.308914 74.012512 47.014923

v -58.269516 68.333282 47.526855

v -52.789711 69.316956 47.734726

v -32.026123 69.040161 47.699280

v -18.688141 63.320801 48.171692

v -29.066336 38.250259 50.091171

v -34.632275 41.102257 49.618980

v -58.507477 62.883202 52.142868

v -36.240707 65.905579 52.464966

v -50.276901 56.675896 52.143665

v -40.250221 46.956963 50.253586

v -21.876602 59.593185 50.975464

v -17.369629 49.608139 50.868317

v -22.527580 41.535553 50.686317

v -40.226196 64.902100 53.345337

v -27.785004 61.439114 52.747284

v -22.211426 48.063934 51.166908

v -28.605549 38.753452 54.409081

v -52.702576 64.007278 54.593323

v -29.513123 58.791656 53.282257

v -45.014118 53.167633 56.553501

v -26.438904 52.040070 53.646240

v -38.637726 46.327560 56.611752

v -27.312256 44.750618 54.736816

v -32.035172 42.289108 56.682980

v -50.110992 61.244995 56.643066

v -40.185738 59.947342 56.752193

v -31.872528 53.523308 56.792824

f 1 2 3
f 3 2 4
f 5 3 4
f 4 6 5
f 7 8 9
f 8 4 2
f 6 4 10
f 11 6 10
f 12 13 7
f 8 7 13
f 14 8 13
f 14 4 8
f 10 4 15
f 16 4 14
f 16 15 4
f 17 14 13
f 17 18 14
f 10 19 11
f 15 19 10
f 15 20 19
f 2 21 22
f 2 1 21
f 2 22 23
f 23 8 2
f 9 24 25
f 9 8 24
f 26 3 5
f 27 28 25
f 28 9 25
f 5 6 29
f 9 28 12
f 9 12 7
f 28 30 12
f 17 13 12
f 19 31 11
f 30 32 12
f 14 18 16
f 33 32 30
f 17 12 32
f 34 18 17
f 16 18 34
f 19 35 31
f 17 32 36
f 36 34 17
f 34 37 16
f 20 35 19
f 15 16 37
f 15 38 20
f 39 38 15
f 23 24 8
f 26 1 3
f 24 40 25
f 27 25 40
f 30 28 27
f 33 30 27
f 33 41 32
f 41 36 32
f 41 33 42
f 43 34 36
f 37 34 43
f 20 38 35
f 44 36 41
f 36 39 43
f 43 39 37
f 41 42 44
f 15 37 39
f 45 44 42
f 39 46 38
f 46 39 36
f 47 38 46
f 36 44 48
f 49 46 36
f 49 50 46
f 51 48 44
f 49 36 52
f 48 52 36
f 52 53 49
f 23 54 24
f 55 24 54
f 24 55 40
f 55 56 40
f 26 21 1
f 40 56 27
f 57 27 56
f 5 29 26
f 57 58 59
f 59 27 57
f 6 60 29
f 27 59 61
f 60 6 11
f 11 31 60
f 27 61 33
f 59 62 61
f 42 33 61
f 63 42 61
f 62 63 61
f 63 62 64
f 38 65 35
f 63 64 66
f 38 67 65
f 63 45 42
f 63 66 45
f 67 38 47
f 44 45 51
f 47 68 67
f 66 51 45
f 47 46 50
f 68 47 69
f 50 69 47
f 51 66 70
f 68 69 71
f 50 49 53
f 53 69 50
f 72 70 66
f 48 51 70
f 52 48 73
f 73 74 52
f 53 75 69
f 53 52 74
f 76 48 70
f 23 77 54
f 78 56 55
f 79 22 21
f 58 57 78
f 56 78 57
f 80 59 58
f 80 81 62
f 59 80 62
f 35 82 31
f 65 82 35
f 62 83 64
f 83 84 64
f 64 84 66
f 85 65 67
f 86 67 68
f 66 84 87
f 68 71 88
f 88 86 68
f 87 84 89
f 88 71 90
f 91 87 89
f 87 72 66
f 72 87 92
f 76 70 72
f 76 72 93
f 71 69 75
f 92 93 72
f 90 71 75
f 76 73 48
f 74 75 53
f 74 73 94
f 74 95 75
f 93 96 76
f 94 73 97
f 73 76 97
f 98 96 93
f 99 96 98
f 76 96 97
f 96 100 97
f 100 96 101
f 77 55 54
f 78 55 102
f 29 103 26
f 104 58 105
f 104 80 58
f 60 106 29
f 104 81 80
f 107 81 104
f 62 81 107
f 108 60 31
f 107 83 62
f 108 31 82
f 83 107 109
f 65 85 82
f 109 84 83
f 89 84 109
f 67 110 85
f 110 67 86
f 111 91 89
f 87 91 92
f 90 112 88
f 113 92 91
f 75 112 90
f 92 98 93
f 113 98 92
f 112 75 114
f 75 95 114
f 95 74 115
f 98 113 116
f 94 115 74
f 95 115 114
f 115 94 117
f 94 97 117
f 116 118 98
f 118 99 98
f 96 99 101
f 101 99 119
f 101 120 100
f 102 55 77
f 77 23 22
f 121 78 102
f 122 58 78
f 26 79 21
f 103 79 26
f 103 29 106
f 60 123 106
f 124 107 104
f 107 124 125
f 123 60 108
f 107 125 109
f 126 109 125
f 109 126 127
f 127 89 109
f 86 128 110
f 128 86 88
f 127 111 89
f 88 112 129
f 129 128 88
f 91 111 113
f 130 112 114
f 115 130 114
f 130 115 117
f 97 100 131
f 117 97 131
f 100 132 131
f 133 99 118
f 133 119 99
f 132 100 120
f 78 121 122
f 22 134 77
f 134 22 79
f 122 105 58
f 135 79 103
f 79 135 134
f 103 106 135
f 136 135 106
f 125 124 137
f 108 138 123
f 108 82 138
f 125 139 140
f 82 141 138
f 126 125 140
f 141 82 85
f 85 142 141
f 140 143 126
f 126 143 127
f 110 142 85
f 144 127 143
f 145 127 144
f 127 145 111
f 145 113 111
f 146 113 145
f 113 146 116
f 147 129 112
f 146 148 116
f 112 130 147
f 147 130 149
f 118 116 148
f 148 150 118
f 131 132 117
f 117 151 130
f 151 149 130
f 118 150 133
f 149 151 152
f 101 119 120
f 132 151 117
f 133 120 119
f 133 153 154
f 154 120 133
f 132 155 151
f 120 154 132
f 152 151 155
f 154 155 132
f 156 155 154
f 157 122 121
f 158 121 102
f 158 102 77
f 77 134 159
f 105 122 157
f 160 105 157
f 104 105 160
f 135 161 134
f 162 104 160
f 162 124 104
f 123 136 106
f 162 137 124
f 123 138 163
f 137 139 125
f 164 138 141
f 140 165 166
f 143 140 166
f 167 168 166
f 143 166 168
f 168 144 143
f 169 142 110
f 169 110 128
f 147 170 129
f 171 147 149
f 172 149 152
f 150 153 133
f 152 155 173
f 155 174 173
f 154 153 175
f 156 154 175
f 156 174 155
f 157 176 177
f 121 176 157
f 176 121 178
f 121 158 178
f 159 158 77
f 134 179 159
f 161 179 134
f 161 135 180
f 180 135 136
f 136 181 180
f 136 123 181
f 123 182 181
f 162 183 137
f 182 123 163
f 137 183 184
f 138 164 185
f 137 184 139
f 139 184 165
f 165 140 139
f 186 185 164
f 141 186 164
f 165 187 166
f 142 186 141
f 186 142 188
f 187 167 166
f 168 167 189
f 169 188 142
f 189 144 168
f 189 190 144
f 190 145 144
f 145 190 191
f 169 128 170
f 170 128 129
f 146 145 191
f 170 147 192
f 146 191 193
f 193 148 146
f 150 148 193
f 147 171 192
f 193 194 150
f 171 149 172
f 150 194 153
f 172 152 195
f 195 173 196
f 195 152 173
f 197 153 194
f 174 196 173
f 197 198 153
f 175 153 198
f 199 196 174
f 199 156 175
f 156 199 174
f 200 201 176
f 176 201 177
f 176 178 200
f 200 178 202
f 203 204 202
f 178 158 202
f 158 203 202
f 203 158 159
f 203 179 204
f 205 204 179
f 206 157 177
f 159 179 203
f 157 206 160
f 179 161 205
f 207 205 161
f 208 160 206
f 161 180 207
f 180 209 207
f 160 208 162
f 183 162 208
f 209 180 181
f 163 138 185
f 185 210 163
f 187 165 184
f 211 167 187
f 188 212 213
f 212 188 169
f 189 167 214
f 190 189 214
f 169 170 212
f 190 214 215
f 215 191 190
f 191 215 216
f 170 192 217
f 216 193 191
f 217 171 218
f 171 217 192
f 218 171 195
f 193 219 220
f 171 172 195
f 194 193 220
f 220 221 194
f 222 195 196
f 222 196 223
f 197 194 221
f 199 223 196
f 199 175 198
f 197 221 198
f 224 201 200
f 225 200 202
f 201 226 177
f 177 226 206
f 204 205 227
f 228 206 226
f 205 207 229
f 208 206 228
f 230 184 183
f 187 231 211
f 213 232 188
f 233 167 211
f 233 214 167
f 234 170 217
f 217 218 235
f 193 216 236
f 237 193 236
f 219 193 237
f 238 218 195
f 239 219 237
f 222 238 195
f 220 219 239
f 221 220 239
f 223 240 222
f 241 242 239
f 242 241 240
f 240 223 242
f 242 221 239
f 242 199 198
f 242 223 199
f 221 242 198
f 225 224 200
f 202 243 225
f 224 226 201
f 244 243 202
f 202 204 244
f 204 227 244
f 229 227 205
f 245 229 207
f 209 245 207
f 228 246 208
f 245 209 247
f 247 209 181
f 246 183 208
f 181 248 247
f 246 249 183
f 248 181 182
f 230 231 184
f 184 231 187
f 185 186 250
f 188 251 186
f 188 232 251
f 233 211 252
f 253 214 233
f 254 212 170
f 214 253 215
f 254 170 234
f 216 215 253
f 255 234 217
f 255 217 235
f 218 256 235
f 218 238 256
f 257 258 237
f 241 237 258
f 222 240 259
f 241 239 237
f 258 240 241
f 260 225 243
f 244 260 243
f 227 261 244
f 227 229 261
f 226 262 228
f 263 261 229
f 263 229 245
f 228 262 246
f 264 248 182
f 163 264 182
f 249 230 183
f 264 163 210
f 210 265 264
f 250 265 210
f 210 185 250
f 266 267 231
f 186 251 250
f 211 231 267
f 267 252 211
f 212 254 213
f 236 216 268
f 255 235 256
f 236 257 237
f 258 257 269
f 240 258 270
f 270 271 240
f 222 259 238
f 225 272 224
f 273 262 226
f 274 260 244
f 274 244 261
f 275 263 245
f 275 245 247
f 276 275 247
f 247 248 276
f 246 277 249
f 276 248 264
f 230 249 278
f 264 265 279
f 231 230 278
f 278 266 231
f 265 250 279
f 279 250 251
f 251 280 281
f 232 280 251
f 232 213 280
f 282 281 280
f 282 280 213
f 254 282 213
f 283 233 252
f 282 234 284
f 283 253 233
f 282 254 234
f 253 268 216
f 234 255 284
f 268 285 236
f 284 255 256
f 236 285 257
f 269 270 258
f 238 286 256
f 259 286 238
f 271 259 240
f 287 224 288
f 226 224 287
f 289 272 225
f 289 225 260
f 273 226 287
f 289 260 290
f 260 274 290
f 274 291 290
f 274 261 291
f 292 291 261
f 292 261 263
f 292 263 293
f 263 275 293
f 276 294 275
f 295 275 294
f 249 277 296
f 276 264 294
f 297 294 264
f 264 279 297
f 278 298 266
f 266 298 299
f 297 279 300
f 251 300 279
f 281 300 251
f 266 299 301
f 266 301 267
f 281 282 302
f 301 252 267
f 302 282 303
f 252 301 304
f 302 303 305
f 284 303 282
f 252 304 283
f 303 306 305
f 307 306 303
f 303 284 307
f 306 307 308
f 268 253 309
f 286 307 284
f 286 308 307
f 256 286 284
f 271 310 308
f 310 311 312
f 308 286 259
f 310 271 311
f 308 259 271
f 257 285 269
f 270 269 311
f 311 271 270
f 288 272 313
f 272 288 224
f 314 313 272
f 314 272 289
f 315 314 289
f 289 290 315
f 316 246 262
f 293 275 317
f 277 246 318
f 317 275 295
f 278 249 296
f 319 320 294
f 294 297 319
f 321 298 278
f 300 319 297
f 299 322 301
f 304 301 323
f 283 304 324
f 253 325 309
f 326 306 308
f 285 309 327
f 285 268 309
f 312 311 328
f 269 327 328
f 285 327 269
f 328 311 269
f 288 329 330
f 288 313 329
f 288 330 287
f 315 331 314
f 273 316 262
f 292 293 317
f 316 318 246
f 295 294 320
f 321 278 296
f 321 322 298
f 299 298 322
f 300 332 319
f 332 300 281
f 322 333 301
f 302 334 335
f 323 301 333
f 334 302 305
f 304 323 324
f 336 305 306
f 283 324 325
f 253 283 325
f 325 337 309
f 326 338 306
f 337 339 309
f 327 309 339
f 339 340 327
f 308 310 326
f 312 328 341
f 312 342 310
f 313 343 329
f 313 314 343
f 344 315 290
f 273 345 316
f 290 346 344
f 290 291 346
f 346 291 292
f 318 316 347
f 317 348 292
f 295 349 317
f 318 350 277
f 277 350 351
f 351 296 277
f 352 295 320
f 320 319 353
f 319 354 353
f 354 319 332
f 332 281 335
f 355 333 322
f 335 281 302
f 355 323 333
f 334 305 336
f 356 357 323
f 324 323 357
f 306 338 336
f 357 325 324
f 326 310 342
f 340 328 327
f 330 358 287
f 273 287 358
f 314 331 343
f 359 315 344
f 345 347 316
f 292 348 346
f 360 318 347
f 318 360 350
f 361 295 352
f 362 296 351
f 320 353 352
f 362 321 296
f 363 321 362
f 353 354 364
f 322 321 363
f 365 364 354
f 354 332 366
f 355 322 363
f 365 354 366
f 332 335 366
f 365 366 367
f 335 334 366
f 334 367 366
f 355 356 323
f 336 368 367
f 336 367 334
f 357 356 369
f 338 368 336
f 368 338 326
f 370 371 368
f 368 326 370
f 337 325 372
f 337 373 339
f 342 370 326
f 374 328 340
f 374 341 328
f 330 375 358
f 330 329 375
f 358 345 273
f 315 359 331
f 345 376 347
f 346 377 344
f 359 344 377
f 378 360 347
f 346 379 377
f 379 346 348
f 360 380 350
f 348 317 349
f 295 361 349
f 352 353 381
f 364 381 353
f 381 364 382
f 364 365 382
f 363 383 355
f 367 384 382
f 367 382 365
f 355 385 356
f 371 384 367
f 367 368 371
f 369 356 385
f 371 370 386
f 370 387 386
f 387 370 342
f 339 374 340
f 387 312 341
f 312 387 342
f 358 375 388
f 358 388 345
f 389 329 343
f 343 390 389
f 343 391 390
f 391 343 331
f 391 331 359
f 347 376 378
f 359 392 391
f 359 377 392
f 379 392 377
f 348 393 379
f 348 349 393
f 380 351 350
f 394 352 381
f 395 394 381
f 363 396 383
f 382 397 381
f 397 382 384
f 355 383 385
f 371 398 384
f 398 371 399
f 386 399 371
f 387 399 386
f 399 387 400
f 372 373 337
f 374 339 373
f 387 401 400
f 341 374 401
f 401 387 341
f 329 402 375
f 403 402 329
f 345 388 404
f 389 403 329
f 405 389 390
f 390 406 405
f 390 407 406
f 391 407 390
f 408 407 391
f 378 409 360
f 392 379 410
f 379 393 410
f 349 411 393
f 349 361 411
f 351 380 412
f 361 352 394
f 351 413 362
f 362 414 363
f 414 396 363
f 397 395 381
f 415 397 384
f 384 398 415
f 416 398 399
f 357 369 417
f 357 417 418
f 357 418 325
f 372 325 418
f 400 401 419
f 420 388 421
f 388 375 421
f 402 421 375
f 388 420 404
f 405 403 389
f 345 404 376
f 422 409 378
f 408 391 423
f 423 391 392
f 410 423 392
f 409 380 360
f 413 351 412
f 361 394 411
f 424 411 394
f 413 414 362
f 424 425 426
f 425 424 394
f 394 395 425
f 427 425 395
f 395 397 427
f 427 397 415
f 415 398 416
f 428 416 399
f 385 429 369
f 430 399 400
f 430 400 419
f 374 373 431
f 401 432 419
f 374 432 401
f 433 421 402
f 434 407 408
f 376 435 378
f 412 380 409
f 393 436 410
f 393 411 436
f 426 411 424
f 437 426 425
f 425 427 438
f 427 415 439
f 416 440 415
f 396 441 383
f 385 383 441
f 416 428 440
f 441 429 385
f 430 428 399
f 429 417 369
f 373 372 431
f 403 433 402
f 442 420 421
f 421 433 442
f 443 376 404
f 405 406 444
f 407 444 406
f 407 434 444
f 435 422 378
f 434 408 423
f 445 423 410
f 409 422 412
f 426 446 411
f 412 447 413
f 437 425 438
f 438 427 439
f 439 415 448
f 440 448 415
f 441 396 449
f 440 428 450
f 430 450 428
f 430 419 451
f 431 372 452
f 451 419 432
f 372 418 453
f 431 432 374
f 453 452 372
f 443 404 420
f 420 442 443
f 403 454 433
f 454 403 405
f 405 444 454
f 376 443 455
f 455 435 376
f 445 434 423
f 422 456 412
f 436 445 410
f 457 412 456
f 447 412 457
f 411 446 436
f 458 413 447
f 426 437 446
f 458 414 413
f 414 458 459
f 459 396 414
f 449 396 459
f 440 460 448
f 460 440 450
f 430 461 450
f 429 462 417
f 461 430 451
f 462 453 417
f 418 417 453
f 453 463 452
f 452 464 431
f 464 432 431
f 463 464 452
f 442 465 466
f 465 442 433
f 465 433 454
f 442 466 443
f 444 467 454
f 444 434 467
f 468 467 434
f 434 445 468
f 469 468 445
f 445 436 469
f 436 470 469
f 436 446 470
f 437 470 446
f 459 458 471
f 448 472 439
f 472 448 473
f 460 473 448
f 473 460 474
f 429 441 475
f 476 429 475
f 460 450 474
f 461 474 450
f 451 477 461
f 478 479 453
f 443 466 480
f 455 443 480
f 481 465 454
f 454 467 481
f 455 482 435
f 422 435 482
f 467 468 483
f 482 456 422
f 469 484 468
f 469 470 484
f 457 485 447
f 485 486 447
f 486 458 447
f 487 437 438
f 438 439 488
f 441 449 475
f 477 451 489
f 432 489 451
f 462 478 453
f 432 464 490
f 463 453 479
f 463 490 464
f 491 466 465
f 466 491 480
f 467 483 481
f 482 492 456
f 468 484 483
f 456 485 457
f 470 493 484
f 493 470 437
f 437 487 493
f 458 486 471
f 488 487 438
f 494 459 471
f 459 494 495
f 439 496 488
f 496 439 472
f 449 459 497
f 472 498 496
f 473 499 472
f 473 474 499
f 476 462 429
f 489 432 500
f 500 432 490
f 490 463 501
f 463 479 501
f 465 502 491
f 465 481 503
f 465 503 502
f 481 504 503
f 455 505 482
f 504 481 483
f 506 504 483
f 482 507 492
f 483 508 506
f 483 484 508
f 485 456 492
f 484 509 508
f 509 484 493
f 510 509 493
f 471 486 511
f 493 487 510
f 487 488 510
f 495 497 459
f 498 472 499
f 475 449 497
f 474 461 512
f 512 477 513
f 461 477 512
f 476 478 462
f 489 513 477
f 514 479 478
f 514 501 479
f 515 480 491
f 516 491 502
f 505 480 515
f 505 455 480
f 504 517 503
f 482 505 507
f 506 517 504
f 518 517 506
f 508 518 506
f 492 519 485
f 520 518 508
f 486 485 519
f 509 520 508
f 509 521 520
f 511 486 519
f 521 509 510
f 510 522 521
f 511 494 471
f 522 510 488
f 488 496 522
f 475 497 523
f 474 512 499
f 524 500 490
f 478 525 514
f 490 501 524
f 526 524 501
f 514 526 501
f 491 516 515
f 516 502 527
f 502 503 527
f 517 527 503
f 517 528 527
f 528 517 518
f 529 528 518
f 518 520 529
f 520 530 529
f 520 531 530
f 521 532 531
f 521 531 520
f 532 521 533
f 533 521 522
f 522 534 533
f 496 534 522
f 534 496 535
f 535 496 498
f 497 495 536
f 536 523 497
f 537 498 499
f 538 537 499
f 512 538 499
f 476 475 539
f 476 540 478
f 513 489 541
f 489 500 541
f 542 525 478
f 515 516 543
f 516 527 544
f 543 516 544
f 543 545 515
f 515 545 505
f 546 505 545
f 528 547 527
f 528 548 547
f 507 505 546
f 528 529 548
f 548 529 530
f 530 549 548
f 550 519 492
f 530 531 549
f 531 551 549
f 531 532 551
f 532 533 552
f 553 533 534
f 534 554 553
f 555 495 494
f 534 535 554
f 498 537 535
f 539 475 523
f 512 556 538
f 476 539 540
f 513 556 512
f 540 542 478
f 513 541 556
f 500 557 541
f 500 524 557
f 514 525 558
f 526 559 524
f 526 514 558
f 560 492 507
f 561 547 548
f 550 492 560
f 548 562 561
f 562 548 549
f 551 562 549
f 532 563 551
f 532 552 563
f 533 553 552
f 494 511 564
f 564 555 494
f 565 553 554
f 555 566 495
f 565 554 535
f 566 536 495
f 536 567 523
f 568 535 537
f 568 537 538
f 538 569 568
f 539 523 570
f 569 538 556
f 557 571 541
f 557 524 572
f 572 524 559
f 559 526 573
f 526 558 574
f 575 543 544
f 576 544 527
f 545 543 575
f 527 547 576
f 575 577 545
f 577 546 545
f 560 507 546
f 546 578 560
f 579 519 550
f 519 579 564
f 564 511 519
f 580 563 552
f 552 553 580
f 553 565 580
f 581 580 565
f 535 582 565
f 535 568 583
f 582 535 583
f 570 523 567
f 583 584 582
f 568 569 583
f 556 585 569
f 583 569 585
f 586 542 540
f 585 556 587
f 587 556 541
f 541 588 587
f 586 525 542
f 589 588 541
f 541 571 589
f 546 577 578
f 562 590 561
f 591 590 562
f 550 592 579
f 551 593 562
f 563 593 551
f 555 564 594
f 581 565 582
f 595 581 582
f 596 597 595
f 595 582 596
f 597 596 598
f 599 597 600
f 600 601 599
f 598 600 597
f 582 584 596
f 598 596 584
f 601 600 602
f 598 602 600
f 585 584 583
f 598 584 603
f 585 603 584
f 603 585 604
f 585 587 605
f 604 585 605
f 586 606 525
f 572 571 557
f 573 572 559
f 526 607 573
f 574 607 526
f 608 544 576
f 544 608 575
f 609 560 578
f 592 560 609
f 560 592 550
f 590 591 593
f 562 593 591
f 579 592 610
f 564 579 594
f 610 594 579
f 563 611 593
f 611 563 612
f 612 563 580
f 613 555 594
f 581 612 580
f 613 566 555
f 581 595 614
f 595 597 614
f 615 614 597
f 566 616 536
f 615 597 599
f 536 616 567
f 567 616 570
f 617 599 601
f 570 618 539
f 617 601 619
f 602 619 601
f 540 539 618
f 602 598 620
f 598 603 620
f 540 618 621
f 586 540 621
f 622 620 603
f 603 604 622
f 623 624 625
f 623 605 587
f 588 624 623
f 588 623 587
f 571 624 589
f 589 624 588
f 558 525 574
f 572 573 626
f 627 576 547
f 628 592 609
f 629 561 590
f 590 593 611
f 581 630 612
f 614 630 581
f 566 613 631
f 566 631 616
f 632 570 616
f 599 617 633
f 618 570 632
f 618 632 634
f 634 621 618
f 619 635 617
f 633 617 635
f 635 636 633
f 619 602 620
f 620 635 619
f 636 635 637
f 620 638 635
f 635 638 637
f 571 625 624
f 639 605 623
f 640 606 586
f 622 604 641
f 620 622 638
f 642 622 641
f 643 637 644
f 641 604 605
f 638 622 642
f 642 645 638
f 644 637 646
f 646 637 638
f 645 647 638
f 648 572 649
f 571 572 648
f 606 574 525
f 638 647 650
f 646 638 650
f 651 644 646
f 649 572 626
f 650 651 646
f 652 626 573
f 652 573 607
f 652 607 574
f 653 578 577
f 547 561 627
f 629 627 561
f 613 594 654
f 630 655 612
f 630 614 656
f 656 614 615
f 616 631 657
f 632 616 657
f 658 615 599
f 657 634 632
f 658 599 633
f 633 636 659
f 659 636 637
f 637 660 659
f 661 586 621
f 660 637 643
f 623 625 639
f 586 661 640
f 639 641 605
f 625 571 648
f 662 642 641
f 647 663 650
f 664 652 606
f 574 606 652
f 576 665 608
f 665 576 627
f 575 608 666
f 666 577 575
f 666 653 577
f 578 653 628
f 628 609 578
f 592 628 610
f 667 590 611
f 654 594 610
f 667 611 612
f 667 612 655
f 654 668 613
f 668 631 613
f 669 668 670
f 656 615 658
f 668 657 631
f 657 668 669
f 657 669 671
f 672 658 633
f 621 634 673
f 633 659 672
f 661 621 673
f 639 625 674
f 674 675 639
f 675 676 639
f 641 639 676
f 677 674 625
f 625 648 677
f 676 662 641
f 662 678 642
f 679 606 640
f 679 664 606
f 645 642 678
f 660 643 644
f 647 645 678
f 644 651 660
f 663 647 678
f 680 652 664
f 663 651 650
f 626 652 680
f 627 681 665
f 681 627 682
f 627 629 682
f 590 683 629
f 654 610 684
f 684 685 654
f 670 654 685
f 654 670 668
f 670 685 686
f 671 670 686
f 686 687 671
f 630 656 688
f 669 670 671
f 656 689 688
f 656 658 689
f 671 690 657
f 691 689 658
f 634 657 690
f 691 658 672
f 692 691 672
f 691 692 693
f 694 695 693
f 676 675 696
f 660 672 659
f 662 676 696
f 693 663 694
f 692 672 660
f 640 661 697
f 662 696 694
f 663 693 692
f 697 679 640
f 694 678 662
f 678 694 663
f 651 692 660
f 692 651 663
f 608 665 698
f 699 681 682
f 700 666 608
f 701 628 653
f 682 629 702
f 629 683 702
f 610 703 684
f 590 704 683
f 590 667 704
f 684 705 685
f 706 655 630
f 630 707 706
f 685 705 686
f 705 708 686
f 686 708 709
f 687 686 709
f 688 707 630
f 688 710 707
f 709 671 687
f 671 709 711
f 689 710 688
f 712 710 689
f 689 713 712
f 713 689 691
f 673 634 690
f 693 714 691
f 697 661 673
f 715 716 675
f 695 714 693
f 675 674 715
f 696 675 716
f 696 695 694
f 677 648 717
f 679 718 664
f 719 680 664
f 680 649 626
f 681 699 665
f 720 699 682
f 682 702 720
f 628 701 721
f 702 683 722
f 721 610 628
f 703 610 721
f 704 667 723
f 723 667 655
f 723 655 724
f 703 725 684
f 725 705 684
f 706 724 655
f 726 709 708
f 671 711 690
f 691 727 713
f 727 691 714
f 728 714 695
f 716 715 729
f 696 716 728
f 695 696 728
f 697 718 679
f 648 649 717
f 718 719 664
f 730 680 719
f 731 649 680
f 730 731 680
f 608 698 700
f 732 698 665
f 699 720 665
f 733 665 720
f 653 666 701
f 702 722 720
f 722 683 734
f 683 704 734
f 725 735 705
f 708 705 735
f 706 707 736
f 708 735 726
f 707 710 736
f 711 726 735
f 709 726 711
f 710 712 737
f 738 712 713
f 739 740 673
f 673 690 739
f 727 738 713
f 740 697 673
f 714 728 741
f 674 677 742
f 715 674 742
f 729 728 716
f 697 743 718
f 717 649 731
f 698 744 700
f 745 666 700
f 665 733 732
f 746 666 745
f 720 747 733
f 701 666 746
f 720 722 747
f 748 701 746
f 748 721 701
f 747 722 734
f 749 721 748
f 721 749 703
f 749 725 703
f 750 723 724
f 750 724 751
f 735 725 752
f 706 751 724
f 752 753 735
f 753 711 735
f 711 753 754
f 710 737 736
f 754 690 711
f 712 738 737
f 739 690 754
f 742 755 715
f 729 715 755
f 742 677 756
f 677 717 756
f 741 728 729
f 757 718 743
f 700 744 745
f 732 744 698
f 704 758 734
f 759 749 748
f 750 704 723
f 759 725 749
f 725 759 752
f 706 760 751
f 736 760 706
f 761 737 738
f 738 762 761
f 762 738 727
f 763 714 741
f 756 717 764
f 765 766 729
f 741 729 766
f 767 764 717
f 731 768 767
f 718 757 769
f 719 718 769
f 768 731 770
f 717 731 767
f 771 730 719
f 730 771 770
f 730 770 731
f 733 772 732
f 773 745 744
f 772 733 774
f 747 774 733
f 745 773 746
f 775 774 747
f 734 775 747
f 748 746 776
f 734 758 775
f 777 759 748
f 704 750 758
f 759 777 752
f 751 778 750
f 778 751 760
f 753 752 779
f 754 753 779
f 737 780 736
f 780 737 761
f 781 697 740
f 763 762 727
f 743 697 781
f 727 714 763
f 755 765 729
f 766 763 741
f 771 768 770
f 732 772 744
f 776 746 773
f 782 748 776
f 777 748 782
f 750 783 758
f 784 777 782
f 777 784 752
f 779 752 784
f 760 780 785
f 780 760 736
f 780 761 786
f 786 761 762
f 762 787 786
f 763 787 762
f 788 755 789
f 766 790 787
f 791 755 742
f 755 788 765
f 765 788 790
f 787 763 766
f 765 790 766
f 764 792 791
f 756 791 742
f 756 764 791
f 792 764 793
f 764 767 793
f 767 768 793
f 757 743 794
f 771 793 768
f 771 719 769
f 774 775 795
f 796 795 775
f 773 797 776
f 776 798 782
f 798 776 797
f 797 799 798
f 782 800 784
f 800 782 798
f 778 801 750
f 779 784 800
f 760 785 778
f 802 780 786
f 754 803 739
f 804 802 786
f 787 804 786
f 740 739 803
f 803 781 740
f 805 789 791
f 804 787 806
f 806 790 807
f 805 791 808
f 787 790 806
f 789 807 788
f 790 788 807
f 755 791 789
f 809 743 781
f 808 791 792
f 809 794 743
f 757 794 769
f 769 810 771
f 772 774 811
f 811 744 772
f 744 812 773
f 744 811 812
f 773 812 813
f 773 813 797
f 796 775 814
f 814 775 758
f 799 797 813
f 758 783 814
f 799 815 798
f 801 783 750
f 816 785 780
f 816 780 802
f 802 817 816
f 802 806 817
f 806 802 804
f 818 805 819
f 818 820 805
f 805 821 819
f 805 820 789
f 820 822 789
f 805 808 821
f 822 807 789
f 821 808 823
f 808 792 823
f 810 793 771
f 769 794 824
f 824 825 769
f 769 825 810
f 774 795 811
f 826 812 811
f 827 812 826
f 827 813 812
f 828 813 827
f 813 828 799
f 814 783 829
f 829 783 801
f 798 815 830
f 830 800 798
f 779 800 830
f 830 831 779
f 778 785 832
f 785 816 832
f 803 779 831
f 754 779 803
f 807 817 806
f 833 817 807
f 819 821 834
f 820 835 822
f 807 822 833
f 823 792 836
f 792 793 836
f 810 825 837
f 811 795 826
f 838 796 814
f 827 826 839
f 827 839 828
f 799 828 840
f 828 839 840
f 799 840 815
f 815 840 841
f 830 815 841
f 778 842 801
f 778 832 842
f 832 816 843
f 831 844 803
f 817 843 816
f 843 817 845
f 833 845 817
f 818 819 846
f 846 820 818
f 847 834 821
f 848 822 835
f 836 793 810
f 795 838 849
f 838 795 796
f 849 826 795
f 829 838 814
f 838 829 850
f 829 851 850
f 851 829 801
f 801 842 851
f 845 852 843
f 803 844 853
f 854 845 833
f 834 846 819
f 846 835 820
f 846 848 835
f 822 848 833
f 847 821 823
f 781 803 853
f 853 855 781
f 809 781 855
f 856 836 810
f 856 810 837
f 824 857 825
f 837 825 857
f 826 849 858
f 826 858 839
f 859 850 851
f 851 860 859
f 861 840 839
f 862 841 840
f 860 851 842
f 842 863 860
f 841 862 830
f 863 842 832
f 830 864 831
f 865 832 843
f 854 852 845
f 848 854 833
f 836 847 823
f 847 836 856
f 855 866 809
f 794 809 866
f 794 867 824
f 838 868 869
f 868 838 850
f 869 849 838
f 850 870 868
f 849 869 858
f 850 859 870
f 858 861 839
f 870 859 860
f 860 871 870
f 840 861 862
f 860 863 871
f 830 862 864
f 832 865 863
f 843 872 865
f 852 872 843
f 864 844 831
f 844 873 853
f 846 874 848
f 848 874 854
f 847 875 834
f 873 855 853
f 875 847 876
f 876 847 877
f 877 847 856
f 837 878 856
f 866 867 794
f 867 857 824
f 867 879 857
f 837 857 879
f 868 880 869
f 869 880 881
f 871 880 868
f 868 870 871
f 869 881 858
f 858 882 861
f 882 858 881
f 861 883 862
f 884 862 883
f 862 884 864
f 885 886 864
f 886 844 864
f 852 854 887
f 873 844 886
f 854 874 888
f 834 889 874
f 846 834 874
f 834 875 889
f 873 890 855
f 856 878 877
f 878 837 891
f 881 880 892
f 882 881 892
f 893 861 882
f 880 894 892
f 894 880 871
f 883 861 893
f 895 894 896
f 871 896 894
f 896 871 863
f 863 865 896
f 884 885 864
f 872 897 865
f 852 898 872
f 898 897 872
f 897 898 899
f 898 852 887
f 887 899 898
f 900 875 876
f 886 890 873
f 855 890 901
f 866 855 901
f 866 901 867
f 902 882 892
f 902 892 903
f 882 902 893
f 892 895 903
f 895 892 894
f 884 904 885
f 905 865 897
f 885 904 906
f 886 885 906
f 897 899 907
f 888 887 854
f 900 889 875
f 900 876 908
f 876 877 908
f 909 877 878
f 909 878 891
f 901 879 867
f 891 837 910
f 837 879 910
f 911 893 902
f 895 912 903
f 913 883 893
f 913 893 911
f 914 883 913
f 914 884 883
f 896 865 905
f 884 914 904
f 890 886 906
f 915 888 874
f 874 889 915
f 900 916 889
f 916 900 917
f 908 917 900
f 890 918 901
f 918 919 901
f 877 920 908
f 909 920 877
f 879 901 919
f 879 919 910
f 909 891 910
f 902 921 922
f 903 921 902
f 912 921 903
f 922 911 902
f 923 914 913
f 913 911 923
f 911 922 923
f 924 912 895
f 896 924 895
f 896 905 924
f 925 904 914
f 897 907 905
f 906 904 925
f 899 926 907
f 887 888 927
f 928 927 888
f 906 929 890
f 915 928 888
f 916 915 889
f 930 917 908
f 908 931 930
f 920 931 908
f 909 932 920
f 909 910 933
f 932 909 933
f 934 933 910
f 933 935 932
f 921 936 922
f 921 912 936
f 912 924 936
f 937 923 922
f 937 922 938
f 938 922 936
f 939 914 923
f 914 939 925
f 907 924 905
f 940 936 924
f 940 938 936
f 926 924 907
f 941 938 940
f 924 926 940
f 942 940 926
f 942 926 927
f 926 899 927
f 927 899 887
f 929 906 925
f 943 920 932
f 910 919 944
f 910 944 934
f 935 945 932
f 937 946 923
f 946 947 923
f 923 947 939
f 948 946 937
f 937 938 948
f 938 941 948
f 939 947 949
f 925 939 949
f 942 941 940
f 928 941 927
f 941 942 927
f 925 949 929
f 915 950 951
f 928 915 951
f 916 952 915
f 952 916 917
f 918 890 929
f 917 953 952
f 917 954 953
f 954 917 930
f 930 931 954
f 943 931 920
f 919 955 944
f 956 943 932
f 932 945 956
f 944 957 958
f 958 934 944
f 933 959 935
f 960 947 946
f 947 960 949
f 961 946 948
f 961 960 946
f 948 962 961
f 941 962 948
f 960 963 949
f 962 941 928
f 951 962 928
f 964 949 963
f 949 964 929
f 965 929 964
f 929 965 918
f 965 966 918
f 966 955 918
f 919 918 955
f 955 957 944
f 945 959 956
f 959 945 935
f 934 958 933
f 960 967 963
f 967 960 961
f 962 968 961
f 969 963 967
f 962 951 968
f 951 950 968
f 963 969 964
f 915 970 950
f 915 971 970
f 971 915 952
f 965 964 969
f 953 971 952
f 969 972 965
f 972 966 965
f 931 973 954
f 973 931 943
f 943 974 973
f 956 974 943
f 933 958 959
f 961 968 967
f 967 975 969
f 976 967 968
f 968 950 970
f 967 977 975
f 968 970 976
f 967 976 977
f 975 977 978
f 972 969 975
f 972 975 978
f 972 978 966
f 979 966 978
f 955 966 979
f 957 955 979
f 974 956 980
f 980 981 974
f 959 980 956
f 970 982 976
f 982 970 971
f 983 978 977
f 953 984 971
f 953 954 984
f 954 985 984
f 979 978 986
f 954 973 985
f 974 985 973
f 957 979 986
f 974 981 985
f 987 958 957
f 987 959 958
f 959 987 988
f 980 959 988
f 976 982 977
f 984 982 971
f 977 989 983
f 978 983 990
f 986 978 990
f 987 986 991
f 957 986 987
f 980 992 981
f 988 987 991
f 980 988 992
f 977 982 993
f 977 993 989
f 984 993 982
f 990 983 989
f 989 994 990
f 995 984 985
f 996 990 994
f 990 996 986
f 991 986 996
f 997 985 981
f 996 998 991
f 981 992 999
f 988 991 998
f 998 992 988
f 993 1000 989
f 993 984 1000
f 984 995 1000
f 994 989 1001
f 997 995 985
f 996 994 1002
f 999 998 996
f 981 999 997
f 992 998 999
f 1001 989 1000
f 1000 995 1001
f 997 1001 995
f 1002 1001 997
f 1001 1002 994
f 997 999 1002
f 996 1002 999
