v 25.591370 -183.165329 -100.850311

v 38.169956 -182.785950 -103.094917

v 26.046631 -184.453156 -103.362633

v 24.407009 -189.492004 -101.812897

v 35.556957 -199.438538 -103.343193

v 52.929443 -189.342438 -103.352783

v 48.659790 -199.057953 -101.229095

v 40.276184 -210.289124 -103.441513

v 55.674278 -201.049866 -103.083580

v 54.101402 -215.719971 -103.307091

v 64.028854 -209.280762 -103.112228

v 64.799683 -217.317917 -103.255264

v 63.366131 -224.135071 -101.129883

v 30.017815 -184.792786 -95.437317

v 45.973850 -190.042908 -98.154785

v 40.101120 -187.545380 -97.779633

v 25.537964 -199.466339 -97.481369

v 30.718567 -208.008423 -100.563751

v 41.731567 -203.127594 -101.483841

v 56.922455 -190.884903 -100.976830

v 37.888733 -210.358582 -101.637375

v 63.481087 -201.454437 -99.383392

v 37.028717 -216.740234 -98.499451

v 47.244568 -217.384399 -99.782257

v 63.910469 -211.692810 -94.512512

v 58.014984 -227.945190 -99.571228

v 59.258060 -190.083359 -96.764465

v 20.423008 -208.757782 -99.401367

v 23.003986 -214.592133 -99.595245

v 18.692749 -216.010391 -95.489868

v 67.110977 -223.329956 -97.765579

v 57.956390 -231.535187 -97.699928

v 24.340120 -191.750580 -93.526093

v 28.878418 -218.123352 -97.521240

v 43.140991 -228.768036 -95.857162

v 59.775078 -239.296661 -97.624847

v 69.137939 -234.256454 -97.054749

v 67.766296 -242.041016 -95.723755

v 35.667629 -189.383789 -93.528625

v 39.610039 -195.002899 -91.090652

v 16.513260 -209.247604 -94.303482

v 51.096710 -192.758331 -93.843773

v 59.719025 -200.872681 -93.913010

v 13.290977 -228.481720 -95.839172

v 10.168640 -221.849884 -92.167168

v 0.812004 -230.364838 -95.915543

v -4.113319 -242.107849 -95.906303

v -7.717094 -240.165848 -93.547119

v 18.176376 -251.232025 -95.903694

v 6.582588 -245.347534 -95.861877

v -14.778137 -256.599426 -96.283257

v -4.824829 -258.157837 -93.083252

v 70.674248 -222.463287 -92.384506

v 56.235641 -240.326141 -95.766830

v 41.378662 -253.257553 -95.829529

v 76.685547 -232.837479 -95.673431

v 59.217575 -251.381393 -95.709305

v 51.688599 -259.072510 -91.821838

v 19.735102 -194.219315 -91.576591

v 13.102119 -204.442429 -91.971169

v 47.722523 -197.856842 -93.508865

v -7.503265 -233.542511 -92.690491

v -4.906967 -228.374405 -92.047020

v -14.443600 -247.120010 -91.532951

v 58.207031 -208.563293 -92.792236

v -18.096870 -256.529785 -90.003593

v 13.672546 -253.278442 -90.950073

v 79.087082 -228.286346 -91.667572

v 30.257294 -256.944275 -91.236145

v 41.381958 -257.805481 -93.293579

v 77.556335 -237.652863 -91.916122

v 63.910950 -252.617310 -92.135651

v -2.094864 -207.114105 -91.955734

v 0.714211 -194.435577 -91.862076

v 30.698555 -189.597992 -89.315002

v -12.324631 -240.352280 -89.033913

v 51.300701 -204.234467 -89.420715

v 59.370888 -212.360535 -89.165688

v -11.233124 -264.255188 -88.593719

v 67.433319 -216.881653 -88.035721

v 75.341408 -222.779144 -88.055893

v 37.768883 -255.584305 -89.658875

v 87.417496 -236.066605 -91.515045

v 78.461235 -248.038895 -91.781204

v 72.054352 -255.745483 -89.482971

v -4.712830 -204.355042 -88.476379

v -3.221809 -191.089188 -89.146858

v 7.852780 -192.231720 -88.458939

v 11.049124 -192.120621 -82.721916

v -7.676025 -220.735291 -88.314041

v -11.263817 -232.085220 -89.575920

v 47.765995 -197.662048 -86.071266

v 0.222168 -263.025696 -89.485657

v 15.252670 -261.057556 -86.759300

v 89.158417 -234.085541 -87.831436

v 47.913963 -259.665100 -85.727051

v 84.712219 -244.757278 -86.094849

v 59.519714 -261.994659 -89.685516

v 74.153137 -255.987427 -86.711914

v -5.962529 -192.574051 -84.377670

v 4.467979 -189.231598 -82.559349

v -6.587515 -200.436508 -83.933853

v 24.895416 -187.945862 -85.036591

v -8.662800 -218.004456 -83.552734

v 37.625648 -189.593475 -84.668755

v -10.333565 -230.738754 -83.159279

v 55.778927 -203.018768 -87.448196

v -13.612976 -246.503571 -82.969360

v 71.098274 -209.417114 -87.751717

v -13.389771 -253.248352 -86.206879

v 66.712509 -206.041138 -86.134132

v 88.842041 -214.486694 -87.853951

v 84.381149 -211.012634 -86.006577

v -9.086504 -263.472168 -85.432388

v 25.470875 -258.999146 -85.409554

v 32.316345 -257.859955 -83.969299

v 99.438881 -218.369873 -87.350716

v 100.590790 -225.278503 -87.776154

v 37.205704 -254.583557 -84.899338

v 105.261230 -224.815170 -83.742615

v 67.451508 -264.327026 -85.491455

v 56.259949 -204.161865 -84.489319

v -3.710510 -264.677124 -82.094360

v 96.720581 -213.325684 -80.815186

v 95.899597 -234.693832 -84.801392

v 79.673889 -256.914673 -85.103455

v 19.412874 -186.829956 -78.957184

v 26.114418 -190.860931 -83.943375

v 39.510071 -199.840332 -83.205750

v 58.945313 -209.050995 -81.649353

v 73.346771 -212.159058 -82.649750

v -13.626259 -256.522003 -79.777344

v 82.652504 -212.795135 -80.056412

v 16.794146 -256.995422 -80.648682

v 51.571289 -265.969727 -82.567261

v -3.438041 -186.961487 -77.622414

v -3.362036 -199.081253 -81.043198

v -2.928187 -209.762573 -80.988075

v 27.866161 -194.319824 -79.896896

v -4.416756 -218.429901 -81.131119

v -5.678993 -226.248444 -81.501556

v -8.781799 -238.208450 -81.728546

v 46.019890 -205.954651 -81.000763

v -10.383255 -262.043030 -76.914276

v 106.654358 -213.318024 -72.515686

v 108.514519 -221.297516 -77.068329

v 97.060440 -237.985855 -77.128204

v 80.731384 -259.803467 -79.238770

v 63.550968 -268.998291 -77.333252

v -3.536404 -190.383255 -74.782684

v 6.984535 -184.842239 -78.374893

v 35.069706 -199.274918 -75.509399

v 42.467693 -204.234879 -75.417007

v -6.909412 -234.870285 -76.587784

v 3.427795 -265.589172 -74.684326

v 29.512978 -257.931641 -77.129608

v 38.990906 -264.103027 -77.455261

v 100.407974 -231.789612 -76.512978

v 90.148560 -248.267700 -76.803467

v 42.559814 -269.428162 -75.032349

v 20.876158 -181.003433 -78.100037

v -3.615567 -199.051498 -74.840591

v 53.214348 -206.472855 -73.794792

v -7.468803 -245.458450 -75.677658

v 65.558586 -209.859329 -74.030212

v 73.492264 -271.221436 -74.913696

v -1.650615 -182.121338 -72.795624

v 14.234379 -177.919617 -72.934944

v 26.515034 -180.792572 -73.685043

v -4.619789 -213.588669 -67.574387

v -7.764393 -263.528503 -72.319191

v 97.611618 -212.186874 -70.368347

v 18.664368 -264.925171 -74.126831

v 34.969604 -267.963226 -74.293243

v 87.051849 -259.738220 -67.691284

v 8.055807 -182.619598 -73.006790

v 22.486338 -174.833633 -72.424210

v 38.680946 -198.143951 -73.588493

v -5.857399 -229.400345 -71.447128

v 46.191330 -202.290512 -73.289421

v -5.099316 -238.676392 -70.245010

v -7.447929 -247.462662 -71.846535

v 109.837494 -215.038834 -73.163887

v 106.625031 -223.265732 -70.853485

v 99.678650 -229.197556 -71.272186

v 95.208282 -242.325287 -71.274780

v 56.373291 -274.575256 -71.755615

v 7.788338 -175.028473 -72.185913

v 16.518778 -170.526474 -72.047577

v -2.738472 -184.495468 -69.328751

v -1.904739 -193.241226 -69.117432

v 34.848179 -190.734222 -67.488312

v -4.187593 -221.685333 -69.573204

v 41.005161 -199.431839 -70.051178

v 53.252766 -207.121414 -70.205780

v 62.591309 -207.655685 -67.126190

v 73.207542 -209.755768 -67.706268

v 85.682678 -211.321335 -67.970062

v 16.458839 -269.262512 -66.465996

v 27.413300 -269.541107 -66.971039

v 4.188011 -174.057877 -69.746483

v 8.608051 -166.600677 -68.902916

v 0.001709 -178.390915 -69.356804

v -4.887517 -198.618622 -63.911674

v -5.017952 -247.842804 -68.651779

v -5.155397 -257.103485 -69.398506

v -5.307502 -265.142059 -64.234688

v 3.472565 -267.328400 -66.056046

v 102.916290 -234.163391 -70.210800

v 38.100922 -272.880920 -66.218018

v 98.689026 -244.807190 -70.199768

v 57.637886 -274.896484 -65.917603

v 74.223412 -270.530945 -67.430969

v 16.735203 -164.796951 -66.922371

v 2.474808 -184.869598 -68.479568

v 30.408936 -183.127686 -67.075409

v -4.941868 -204.684601 -66.101402

v -5.841346 -228.133591 -66.094368

v -5.777122 -235.240280 -66.106873

v -5.710389 -241.690903 -65.859772

v -5.615700 -259.666229 -64.135429

v 96.225159 -208.420105 -63.682373

v 110.439636 -226.121078 -64.974365

v 106.729538 -231.467072 -65.893356

v 104.780128 -237.046402 -65.887238

v 93.817261 -256.061646 -65.916351

v 9.336281 -168.820618 -59.089493

v 7.933647 -180.417068 -59.628174

v 29.248978 -164.951706 -65.589149

v 0.780002 -190.733826 -65.138107

v -5.644835 -220.683502 -65.853767

v 39.280106 -193.049530 -62.655151

v 52.003601 -200.469864 -58.885681

v 76.593292 -207.009460 -65.834946

v -5.181366 -252.760010 -64.841042

v 111.214417 -211.400009 -57.706253

v 103.717072 -242.175354 -64.899307

v 100.539551 -248.036957 -65.399948

v 84.340866 -265.666138 -65.970215

v 35.312744 -182.427673 -62.089767

v 33.776917 -166.492386 -60.504929

v -2.767038 -191.291595 -62.496445

v -2.991272 -208.658676 -60.399292

v 5.592751 -262.985992 -63.235733

v 13.999325 -263.827087 -64.906891

v 20.775696 -264.645813 -62.812439

v 49.114685 -278.295044 -53.896729

v 95.471794 -252.427887 -62.001549

v 71.315002 -275.152954 -63.188232

v 18.537056 -159.903870 -60.674377

v 25.050629 -158.656448 -55.411530

v -1.876642 -221.409546 -56.560493

v -2.406624 -233.141403 -56.998333

v -4.067795 -244.232666 -59.976295

v 73.052673 -206.173889 -56.549820

v 8.235291 -259.228760 -59.210083

v 11.610731 -259.163513 -59.164154

v 111.297813 -219.052811 -53.515194

v 106.703926 -226.551102 -61.364044

v 99.574158 -238.639008 -61.436317

v 91.606323 -261.653503 -52.418091

v 79.539513 -275.194550 -51.386978

v 2.768995 -189.508301 -56.264160

v -1.893362 -197.594940 -60.061172

v 38.709305 -175.285248 -60.148079

v 42.233433 -189.582275 -59.235161

v -4.006594 -251.749496 -59.684601

v 99.169495 -206.584900 -55.946625

v 23.005768 -266.530945 -56.906494

v 102.029266 -238.346680 -57.536255

v 14.840213 -157.180923 -55.618008

v 9.417065 -164.476547 -54.502411

v 31.652435 -163.914505 -52.365044

v -0.834785 -187.971039 -55.028381

v 89.590988 -208.321304 -54.200851

v 9.337679 -256.697327 -54.786415

v 114.484406 -212.102493 -55.672241

v 38.347778 -276.223022 -52.869019

v 69.362198 -277.838745 -55.745605

v 8.821493 -173.180206 -53.471489

v -1.029285 -211.785095 -49.575623

v -2.161188 -248.403748 -55.972153

v -0.464008 -241.249115 -55.037472

v 110.236168 -207.344666 -54.899506

v 97.577576 -248.929413 -54.430664

v 16.176289 -147.159988 -55.283775

v 10.008484 -157.347168 -53.661057

v 4.418086 -182.857895 -54.828468

v 34.227142 -171.512360 -51.694473

v -0.354644 -196.399323 -48.988388

v 49.855782 -198.091553 -48.457916

v -3.401983 -237.457809 -47.250378

v 57.754051 -201.804169 -49.827766

v 83.970245 -206.906952 -48.676605

v 103.457565 -209.529068 -52.928284

v 22.522034 -272.670288 -48.910034

v 108.889038 -222.940826 -49.509995

v 15.685730 -148.842651 -50.919250

v 20.660889 -145.364304 -52.263451

v 25.943783 -153.144974 -50.970997

v 10.908379 -167.750320 -47.738197

v -0.346445 -183.651535 -48.462826

v 38.056839 -183.154770 -51.749466

v 39.797321 -187.938690 -47.904694

v 70.996735 -206.020691 -48.987625

v 30.438751 -277.923706 -48.605469

v 103.478271 -243.357117 -47.760864

v 63.646606 -280.532532 -49.745728

v 6.146362 -180.160690 -45.420532

v -3.380058 -220.196960 -47.704224

v -3.938168 -230.905365 -46.624256

v 100.979462 -209.745850 -45.585281

v 12.860064 -260.903992 -48.660660

v 102.750885 -212.769470 -48.784241

v 109.135132 -233.417038 -45.350220

v 44.241882 -282.315063 -48.118164

v 21.028580 -156.556580 -47.517792

v 30.473106 -171.831650 -47.592690

v 35.124901 -182.268036 -47.539276

v -0.006210 -239.539734 -42.653885

v 99.997864 -253.188126 -44.650940

v 83.622330 -270.691010 -46.216431

v 24.923187 -181.648483 -47.529762

v 9.206314 -173.623871 -45.973656

v -4.454211 -195.613007 -43.377827

v -5.042071 -210.017715 -44.393951

v 51.447594 -188.779663 -47.189754

v 58.896458 -193.543472 -47.112755

v 67.995705 -199.540176 -45.942291

v 80.702606 -204.020599 -45.666092

v 89.483444 -204.096100 -45.406013

v 10.124374 -257.352020 -42.306206

v 111.130814 -223.701385 -44.947540

v 64.171547 -280.846558 -42.756042

v 16.623428 -179.714081 -45.007477

v -0.717535 -182.545090 -40.683846

v 50.560883 -187.405975 -40.345123

v -4.959450 -220.235489 -42.937126

v 102.626160 -197.413742 -45.206329

v 114.231682 -215.328735 -45.252567

v 111.932495 -200.596283 -43.118561

v 21.442533 -272.906067 -42.567436

v 32.422485 -281.491882 -42.250458

v 106.336548 -248.048279 -42.496216

v -2.105453 -187.402954 -39.858253

v 21.136108 -183.852966 -39.236633

v 30.341858 -184.692566 -39.525024

v 41.632690 -184.781097 -38.704468

v 65.798012 -198.889099 -37.170807

v -3.316721 -233.986771 -41.620602

v 69.874001 -204.784668 -42.444817

v 88.615723 -206.815308 -41.606445

v 107.856384 -195.960831 -39.496399

v 48.993423 -283.361603 -41.886841

v 111.755676 -235.715866 -41.357971

v -1.699089 -208.742661 -38.798286

v -3.171085 -243.248016 -40.986378

v -3.023594 -250.785767 -41.989998

v 73.835724 -206.198746 -37.002975

v 81.047638 -212.244141 -32.852295

v 95.934387 -204.795685 -39.733215

v -3.042917 -259.197601 -41.560196

v 7.876968 -268.244080 -41.999275

v -1.245201 -264.948792 -40.616913

v 114.880035 -198.321014 -38.592628

v 114.501389 -209.021057 -37.834137

v 18.700500 -278.340546 -40.842682

v 115.272163 -216.299652 -37.863758

v 102.139252 -253.915939 -35.388062

v 86.076172 -271.237946 -37.180054

v -1.459097 -197.328735 -38.874458

v -2.232559 -220.640686 -38.996025

v -1.515354 -239.039948 -33.821056

v -0.628991 -253.798859 -33.256836

v -1.094626 -259.966034 -36.424873

v 107.304306 -201.546295 -37.143524

v 35.533508 -283.834290 -33.592041

v 109.887695 -243.514648 -34.678406

v 69.390701 -280.831482 -37.386780

v 0.394608 -182.355774 -34.773926

v -0.649033 -190.793289 -34.449387

v -0.099922 -199.174927 -34.082123

v -1.257046 -216.161682 -34.478043

v 50.440857 -191.859955 -34.228348

v -2.533457 -225.676575 -35.255196

v 98.630402 -207.389618 -35.104614

v 3.122894 -269.808228 -32.340607

v 11.013245 -276.933716 -33.550720

v 21.411285 -281.698120 -33.185669

v 56.879135 -283.574036 -36.191162

v 7.648121 -183.124405 -29.799538

v 21.876930 -184.507172 -30.553986

v -1.529617 -206.442398 -34.851231

v 34.363335 -187.880035 -33.823532

v 70.491455 -209.742676 -34.261093

v -0.724544 -246.524490 -31.790073

v 109.828903 -213.814392 -31.437866

v 114.468216 -231.532974 -31.581161

v 49.082306 -285.040039 -31.407715

v 98.305542 -264.757568 -31.180359

v 67.126984 -283.429626 -35.193359

v 45.840084 -197.099335 -33.928123

v 0.422028 -227.764267 -31.411041

v 59.155857 -210.142502 -33.689579

v -0.013994 -236.450104 -30.978130

v 66.784561 -213.993973 -33.738285

v -1.263298 -264.057800 -30.819916

v 110.638657 -220.556046 -28.951660

v 105.677475 -255.265091 -33.186707

v 83.604797 -278.061005 -31.994751

v 0.162346 -191.273422 -28.716976

v 0.940219 -205.864838 -29.814037

v 54.668861 -206.212189 -25.570213

v 94.559486 -212.610825 -28.338379

v 59.805023 -288.275757 -26.818237

v -1.076635 -179.592285 -26.499548

v 29.808304 -184.665039 -27.747498

v 37.149021 -189.738922 -27.604736

v -1.339331 -211.311630 -26.291294

v -0.457767 -220.409271 -28.131817

v 44.317509 -197.398682 -30.098602

v -0.687643 -230.638138 -26.930344

v -0.893661 -240.214233 -27.353718

v 80.698013 -214.637787 -26.380127

v -1.537125 -274.357727 -27.810566

v 10.398926 -283.362000 -28.705811

v 24.946960 -287.218140 -26.719727

v 113.778351 -246.241318 -25.222137

v 41.983551 -288.929504 -26.630432

v 103.534515 -258.333984 -26.760986

v 11.400326 -179.933975 -27.516174

v -2.015305 -202.618958 -26.038708

v -1.350349 -250.155762 -27.612839

v 67.433144 -212.748032 -24.946728

v -1.957443 -261.607849 -27.681200

v 83.583023 -210.838074 -23.635651

v 2.398880 -282.012878 -27.302856

v 3.709587 -177.207291 -22.572777

v 21.620544 -179.705948 -22.701475

v -0.881382 -193.387405 -25.299601

v 1.874481 -217.467026 -23.890564

v 50.811722 -200.959320 -23.784157

v 2.891426 -247.067230 -22.388931

v 2.242706 -262.524109 -24.195362

v 99.917641 -217.980423 -14.694870

v 2.384453 -282.255829 -23.349838

v 113.036087 -228.691666 -21.581821

v 110.366394 -253.087051 -18.202377

v 95.336731 -267.878418 -20.320679

v 90.454514 -273.483826 -16.727478

v 3.889566 -189.640427 -23.251593

v 2.572060 -201.277023 -24.014343

v 33.957504 -183.536224 -17.322433

v 40.615498 -192.563370 -19.749863

v 3.312916 -227.242462 -21.988544

v 3.324020 -235.372131 -22.050892

v 59.348904 -204.879974 -23.782217

v 68.358192 -208.078049 -23.764366

v 12.279602 -287.524719 -22.246704

v 52.164261 -288.142212 -21.968872

v 102.871246 -260.413239 -20.126709

v 79.683472 -279.819550 -19.657349

v 3.523341 -168.570633 -22.291628

v 11.296311 -166.246597 -22.482386

v 1.611298 -205.645630 -18.453323

v 2.546495 -214.090088 -18.490374

v 2.785366 -219.580750 -19.260309

v 90.597748 -211.235580 -13.298538

v 3.148651 -289.065613 -19.740395

v 29.734493 -287.931061 -17.582520

v 40.536133 -287.555908 -19.218262

v 113.051201 -247.718399 -18.025543

v 66.619263 -284.555206 -19.663116

v 11.985092 -161.774445 -17.405693

v -1.516569 -170.198380 -17.571388

v 24.956253 -171.359879 -16.892347

v 31.947029 -178.959579 -17.506512

v 4.128980 -242.289139 -15.424866

v 4.750916 -257.209259 -15.295000

v 4.422860 -249.211014 -14.918536

v 79.656441 -209.321014 -14.173706

v 3.768286 -271.037354 -17.793234

v 15.499100 -289.031311 -16.436981

v 54.705017 -282.570007 -17.277710

v -0.717342 -183.957062 -17.728481

v 0.500764 -197.339676 -18.076511

v 37.308090 -186.349167 -13.366790

v 3.511313 -230.872742 -15.523613

v 58.876923 -205.978760 -13.701027

v 71.252808 -210.033264 -12.434692

v 3.171549 -263.258514 -18.107098

v 4.102459 -279.311859 -17.570892

v 49.874634 -280.765808 -7.939728

v 64.327194 -281.143829 -18.217743

v 107.801636 -258.551910 -17.481794

v 102.008591 -266.191620 -16.749844

v 21.005211 -154.490311 -16.527569

v 33.655041 -158.741745 -16.576813

v 0.046814 -170.025299 -12.521957

v 41.148865 -167.333878 -16.682796

v 40.800636 -173.955872 -14.157127

v 45.995342 -196.750061 -13.433720

v 2.114369 -221.964569 -9.071039

v 6.033563 -265.471130 -14.977190

v 111.780434 -237.685135 -8.694698

v 61.928558 -281.012878 -8.960907

v 110.231918 -251.714783 -11.924438

v 71.763992 -278.756989 -14.312546

v 102.214355 -260.175140 -11.709717

v 20.251148 -152.729767 -11.957008

v 8.270836 -163.150833 -11.894165

v 34.247093 -157.407913 -11.455250

v 42.134689 -164.399963 -13.769041

v 0.582278 -187.823105 -8.445162

v 37.171127 -179.584457 -11.722897

v 1.818951 -239.172989 -8.854778

v 2.640500 -275.501160 -12.489697

v 4.315945 -286.243835 -13.340435

v 29.255493 -287.654053 -10.180542

v 76.523346 -277.886658 -11.238464

v 1.183685 -174.260651 -7.264641

v 38.117348 -167.656433 -10.559999

v 1.722364 -195.540680 -7.555798

v 35.391342 -193.188095 -12.390301

v 45.053284 -201.960831 -12.392899

v 53.686676 -208.337799 -12.479309

v 68.834534 -214.033249 -8.271912

v 1.994357 -267.008575 -11.582552

v 11.647034 -287.033905 -8.431152

v 109.002365 -226.687363 -7.998083

v 35.510452 -282.902283 -4.063522

v 13.397593 -161.626999 -9.622622

v 20.488533 -158.480469 -8.303772

v 9.025665 -169.975052 -10.421539

v 31.443520 -163.417450 -9.997519

v 32.864529 -180.583633 -10.224968

v 1.626646 -207.318054 -7.699331

v 1.883570 -215.521118 -7.860668

v 36.412651 -195.063095 -5.648825

v 1.873723 -228.468307 -8.397692

v 46.136227 -202.585693 -6.517357

v 1.369449 -256.257294 -8.333999

v 1.500265 -249.462509 -8.612108

v 95.158432 -211.130661 -7.185120

v 107.748138 -248.108047 -9.232521

v 94.272614 -265.640198 -6.042297

v 9.697676 -172.867981 -3.072595

v 3.657978 -203.058655 -3.435452

v 32.567444 -182.287949 -5.428419

v 56.227295 -209.164795 -6.952972

v 84.763237 -208.211761 -2.497498

v 1.588840 -285.308899 -7.986176

v 106.319244 -253.770508 -7.208466

v 70.314636 -278.579834 -4.845581

v 30.817497 -158.674011 -5.375923

v 36.987473 -168.060272 -5.488498

v 2.885664 -184.149048 -5.793056

v 3.135330 -216.529938 -1.880344

v 3.035761 -235.741440 1.102201

v 53.621201 -204.400040 -3.817566

v 66.782791 -212.229874 -5.386566

v 1.277658 -276.930695 -1.683083

v 101.422485 -213.982132 -1.663544

v 111.776512 -226.800400 -1.465900

v 2.968727 -282.447784 -2.070679

v 23.388763 -285.911621 -4.574188

v 53.267609 -275.260620 -6.782578

v 112.980637 -246.141953 -5.865753

v 17.663250 -152.615280 -3.205750

v 28.702339 -150.165787 -3.697273

v 3.831036 -173.563385 -1.407608

v 42.307693 -158.229034 -1.754734

v 49.110695 -170.233154 -5.132022

v 3.432039 -196.801971 2.093667

v 44.326122 -187.693222 -5.124059

v 51.854897 -177.387985 -2.712479

v 1.135954 -268.394165 -1.785607

v 46.869293 -274.572266 -3.287506

v 107.288300 -255.179443 -0.500916

v 94.286339 -261.565277 -3.578529

v 19.031006 -144.772263 -1.142849

v 14.326683 -157.619720 1.766552

v 9.674271 -166.383392 -0.815323

v 29.522411 -145.463531 -1.358068

v 51.678608 -168.651428 -1.271019

v 51.791790 -188.335678 -2.772957

v 51.227432 -197.446701 -1.422321

v 71.107788 -210.526108 -1.446808

v 2.799366 -247.872589 1.655241

v 37.610275 -275.048004 -3.276733

v 21.149017 -280.398926 -1.445801

v 114.687843 -231.747101 2.445541

v 45.481003 -273.404297 2.834381

v 114.017044 -241.908432 2.252686

v 93.582558 -264.650482 0.651459

v 82.174591 -274.112488 1.285645

v 21.757149 -130.144897 0.457184

v 29.874889 -133.840759 0.556122

v 30.189110 -137.614929 -1.236906

v 45.679626 -151.083221 -1.207151

v 44.406998 -143.839569 2.000443

v 2.194063 -175.553833 2.597305

v 52.236416 -157.348022 2.267178

v 2.728336 -185.220520 1.930841

v 3.746015 -226.345505 6.295171

v 95.586960 -209.151611 5.578705

v 111.430359 -223.367996 8.093872

v 59.914955 -278.567871 1.282166

v 29.559158 -124.498947 1.554802

v 19.066126 -124.329384 2.782085

v 34.568748 -130.330353 0.992943

v 16.013824 -137.334900 3.337875

v 1.504328 -168.699051 4.579922

v 7.016571 -165.959625 4.183006

v 57.377754 -168.833435 2.278427

v 54.590050 -183.686829 4.297533

v 55.093819 -204.199188 3.995186

v 5.011507 -255.442764 6.783687

v 79.639839 -206.985123 6.197296

v 92.861923 -206.283554 6.318832

v 4.415352 -276.087708 3.683964

v 33.118553 -274.849304 3.661926

v 102.340958 -253.617554 3.113098

v 21.280392 -115.665306 2.695049

v 22.330959 -112.381409 4.563908

v 35.984322 -122.206421 4.510622

v 9.225121 -150.202545 4.386406

v 50.039322 -139.745972 5.088005

v 56.342018 -156.415100 3.567165

v 63.658413 -165.300674 4.121458

v 1.907449 -209.845367 6.901865

v 51.793774 -195.204559 4.084224

v 67.407837 -208.157684 4.786652

v 5.079697 -267.579651 4.948044

v 16.976345 -277.679779 3.782654

v 113.175049 -237.417969 5.390869

v 23.412796 -100.955154 4.903294

v 27.924332 -96.221207 8.004181

v 30.029879 -103.003845 4.659156

v 19.882580 -124.630417 11.326870

v 42.189911 -121.666649 4.813915

v 2.819382 -159.002838 4.766586

v 57.523659 -149.924347 4.956848

v -0.094293 -168.203690 10.897505

v 69.843742 -162.873199 7.846716

v 68.988785 -174.534485 4.592489

v 59.050350 -188.206177 4.487241

v 64.608200 -185.770081 6.402672

v 64.288734 -204.545929 6.031351

v 2.684919 -240.144592 7.455315

v 18.298820 -273.202362 4.159454

v 34.642803 -269.164246 4.852234

v 58.658203 -273.839722 7.519287

v 46.753716 -271.283539 9.561401

v 97.409897 -256.681183 7.954643

v 70.125648 -275.307556 7.871628

v 86.072258 -268.554840 8.007980

v 39.781860 -114.012100 7.677582

v 7.867226 -141.171539 10.200607

v 3.753647 -153.811737 8.712875

v 50.380722 -129.294205 6.746002

v 62.908455 -147.503693 7.953962

v -1.313460 -204.333420 10.690413

v 68.883896 -182.847321 8.024864

v 71.429062 -195.046127 6.494530

v 22.191528 -269.071960 7.815308

v 104.632599 -245.317963 8.502197

v 26.574005 -93.987823 13.212769

v 21.941326 -99.710861 14.988266

v 19.894745 -111.136909 12.099075

v 11.247818 -134.279495 12.297485

v 54.089252 -128.632843 9.884596

v 1.849112 -156.097260 11.927610

v 60.850674 -140.307037 9.825541

v -0.007249 -177.270050 11.240587

v -0.712262 -185.642761 11.243844

v -0.864548 -195.503281 11.447655

v 74.077385 -176.173676 8.784157

v -1.002056 -217.370819 9.791958

v 74.848022 -190.210022 9.824371

v 0.206017 -228.666077 8.590027

v 83.356659 -190.038010 12.871811

v 0.000763 -248.587357 8.384171

v 0.788159 -264.462158 8.139071

v 6.664970 -264.908264 12.016159

v 98.840752 -204.136978 14.552979

v 107.635468 -214.189636 15.442108

v 14.974152 -264.477112 14.253784

v 112.353798 -227.847321 15.284775

v 109.614807 -238.861359 13.095093

v 66.677292 -269.281250 9.923569

v 72.943527 -267.516174 8.103249

v 94.571411 -248.395569 8.799973

v 39.478302 -102.987991 11.873222

v 47.999645 -117.172531 11.599787

v 57.225128 -144.757187 15.522326

v 66.347389 -160.526154 18.641174

v 0.154015 -213.034668 11.686703

v 77.253014 -173.061493 14.482426

v 75.809853 -179.450027 12.095146

v 0.011157 -223.879166 11.518568

v -0.177750 -232.697739 11.529016

v -0.237934 -241.091156 11.454377

v 0.038570 -252.658524 11.441794

v 0.160469 -263.537750 11.473034

v 87.599289 -247.927399 10.162392

v 76.167717 -243.325806 12.263742

v 69.239883 -249.343735 10.260704

v 41.238052 -265.832031 11.064819

v 67.598267 -260.490448 10.093670

v 57.559891 -265.596558 10.258377

v 100.150635 -242.331329 15.304443

v 32.571442 -91.821213 17.298004

v 14.543663 -123.116058 12.636196

v 2.190982 -149.113953 17.922081

v 2.486936 -166.424164 13.239133

v 3.998417 -176.406357 13.074656

v 4.509621 -188.984192 12.622280

v 4.983771 -205.330734 12.232690

v 71.067879 -164.642120 19.419662

v 5.680662 -220.159744 12.142202

v 5.813039 -233.073807 12.113909

v 5.944946 -249.179428 12.039252

v 8.115685 -261.640839 15.446030

v 30.609955 -264.687622 16.339722

v 68.897896 -249.649292 13.497643

v 82.606987 -246.837524 15.189331

v 68.846840 -257.233002 14.397564

v 50.765221 -261.039001 14.992981

v 94.566788 -243.303345 16.731781

v 60.651093 -260.497253 16.133392

v 18.038818 -106.971527 18.518158

v 13.486535 -120.033478 17.559586

v 43.888760 -115.491905 15.914430

v 9.572413 -141.195465 19.130280

v 48.586021 -129.555618 18.081928

v 5.944465 -204.927444 20.271835

v 6.674617 -216.736282 20.178661

v 85.524536 -183.387451 14.690937

v 108.968887 -218.398560 17.093109

v 17.239120 -95.624077 18.048683

v 4.048988 -179.943359 28.294071

v 7.108997 -229.003586 20.022522

v 7.586394 -240.676056 19.788786

v 91.079308 -186.197372 20.513371

v 23.248764 -263.419067 19.708435

v 47.399265 -256.021667 16.505753

v 104.422409 -230.539215 16.483803

v 16.545246 -87.840645 19.679794

v 36.024475 -97.948624 23.733097

v 41.739319 -109.136848 23.884985

v 12.081909 -111.016602 21.846970

v 2.107706 -159.216827 19.455566

v 54.836555 -140.611649 22.139008

v 58.090267 -145.859985 19.485565

v 79.084633 -173.768738 19.538658

v 7.098145 -253.305252 24.260880

v 101.715820 -202.404373 28.239319

v 8.286926 -257.418762 20.769592

v 44.308029 -256.035004 22.645752

v 56.530975 -259.004150 22.366638

v 14.501701 -97.856506 20.969376

v 23.410501 -86.315552 25.297461

v 46.695057 -123.383469 25.361607

v 4.818787 -189.351166 28.224171

v 66.683525 -154.069122 20.716133

v 77.583832 -170.969330 23.954803

v 85.624695 -174.904083 20.463207

v 2.697436 -146.781052 24.479771

v 2.433859 -150.691147 28.702923

v 3.779983 -166.490799 28.044825

v 63.790268 -147.534973 25.363998

v 68.287567 -149.879517 26.776184

v 86.947845 -176.955719 25.788183

v 4.877575 -243.524109 28.763947

v 14.441162 -255.828613 25.640869

v 30.008904 -261.011322 27.823425

v 99.889038 -233.098145 26.645966

v 72.359863 -254.451828 26.192596

v 88.256592 -243.412918 27.104980

v 83.119507 -249.240555 26.384979

v 19.079954 -87.500229 27.621044

v 16.343489 -93.296608 27.811777

v 13.649225 -120.805946 30.872576

v 15.121407 -123.554100 25.408352

v 43.903038 -129.805573 27.287575

v 49.108124 -137.739227 27.297668

v 3.950670 -207.606873 29.426928

v 4.136469 -227.376709 29.566811

v 3.879908 -237.505829 29.578316

v 106.158569 -213.372375 27.072510

v 106.730766 -224.342331 26.917160

v 60.417236 -256.056152 28.991211

v 13.479820 -102.957428 30.455244

v 26.505936 -99.897392 27.938627

v 9.023605 -139.850632 30.661560

v 4.827118 -199.923386 28.624456

v 82.511810 -167.627060 27.165573

v 3.703501 -214.912949 29.799116

v 38.128235 -254.808929 30.566406

v 34.782330 -113.800461 28.058802

v 74.753716 -154.341568 30.650936

v 96.581871 -193.844681 29.126965

v 8.238297 -242.346466 31.489670

v 18.267506 -255.898849 30.862259

v 100.108246 -223.335876 29.302795

v 71.363983 -248.806396 34.160156

v 17.891769 -96.287292 31.504646

v 32.019802 -114.304550 31.233509

v 15.407165 -109.329346 31.775545

v 14.122833 -126.538307 36.409180

v 34.078777 -121.696434 32.435440

v 7.298252 -151.990479 33.013283

v 1.271455 -149.039642 32.294590

v 0.505885 -155.950104 32.489838

v 1.393952 -172.892395 31.115604

v 1.875832 -186.886078 30.706059

v 93.773636 -190.590210 36.516777

v 100.229218 -206.458893 30.585556

v 101.165741 -217.862579 30.216522

v 92.601196 -233.708160 30.542328

v 23.862280 -109.895424 31.780861

v 66.708374 -149.030975 34.830109

v 1.695984 -191.271164 37.548717

v 2.275200 -199.529678 37.912628

v 22.060883 -249.232040 31.183517

v 41.181881 -252.241028 34.167969

v 51.305725 -250.625275 39.807678

v 78.746704 -242.578949 39.777100

v 19.871332 -109.923538 38.653019

v 50.906933 -141.978760 40.554581

v 1.715054 -167.610062 38.287369

v 59.060715 -147.452789 40.280273

v 1.799587 -181.270065 37.985466

v 74.682991 -160.496368 39.233288

v 2.329659 -207.439651 37.592484

v 3.097813 -217.892685 37.719925

v 83.916946 -171.969315 36.510208

v 3.372631 -228.196655 37.805031

v 99.514923 -206.426910 37.134644

v 20.983124 -245.062958 42.092529

v 89.781525 -235.195267 40.097015

v 27.777224 -120.071167 42.447495

v 32.496300 -127.528275 43.823578

v 70.850319 -158.701782 41.361328

v 5.187004 -239.036316 36.579468

v 95.890839 -226.817276 39.893616

v 18.177080 -116.536461 39.518372

v 12.434648 -135.466064 42.341156

v 41.711182 -134.601898 41.030807

v 2.157019 -158.029022 40.247269

v 8.155197 -156.922562 44.221405

v 83.206909 -179.969116 41.628250

v 12.607422 -241.420029 39.779236

v 39.279346 -250.325073 39.682800

v 12.860312 -144.014221 48.070236

v 7.245239 -230.780121 42.796295

v 97.638794 -215.130585 42.107788

v 59.307312 -246.047791 41.363098

v 75.628891 -239.569580 41.886475

v 20.423203 -118.249588 42.809143

v 4.959311 -179.205093 46.884811

v 5.911810 -192.307190 46.943817

v 90.719238 -193.231644 46.587982

v 93.911377 -204.269882 46.271851

v 46.134445 -247.356445 41.482666

v 22.978981 -126.330132 43.291492

v 39.858078 -137.424210 48.405113

v 4.036827 -173.069946 47.200123

v 57.539284 -149.266495 49.046410

v 6.055580 -203.901047 47.246407

v 74.408775 -168.497711 48.436871

v 6.160637 -214.311768 47.647072

v 6.584490 -223.837158 47.725990

v 17.721970 -234.006287 44.257919

v 26.643097 -240.428680 43.057358

v 32.737549 -244.392761 43.633179

v 94.715332 -220.658447 44.224182

v 87.103668 -227.344040 45.671112

v 58.273804 -243.071472 48.272339

v 22.873886 -129.098694 48.660530

v 4.030396 -164.247665 48.697174

v 82.667755 -179.344238 48.065109

v 93.576187 -213.604141 45.977417

v 45.237122 -244.197510 48.492798

v 11.378365 -156.296661 52.421997

v 46.525875 -141.989960 50.552200

v 2.943640 -183.233231 50.595001

v 63.109406 -159.728424 51.240219

v 9.430939 -229.726730 49.607849

v 68.175781 -239.616028 49.947754

v 78.009026 -234.146362 50.968628

v 26.708746 -138.959244 49.403244

v 17.503546 -143.284729 51.265442

v 2.854858 -189.097946 50.828148

v 81.370636 -181.927063 49.955418

v 17.728394 -236.464066 53.641228

v 24.836823 -238.843536 53.828728

v 86.146423 -226.016724 53.331543

v 25.698097 -144.298019 54.373840

v 44.498203 -144.142960 53.564964

v 8.163660 -163.641647 55.836971

v 3.082893 -168.467773 52.873890

v 4.062382 -194.797287 55.754269

v 4.302444 -203.016357 55.010059

v 3.918625 -209.408829 53.771111

v 4.281555 -214.611496 54.407181

v 3.878738 -221.324493 53.878296

v 10.432846 -221.765015 54.488220

v 42.259323 -239.857666 54.250214

v 53.554428 -240.916443 53.403076

v 4.214874 -178.808655 55.800201

v 53.815826 -155.210297 55.747009

v 76.551262 -177.884125 56.602112

v 83.814941 -191.905884 56.448608

v 86.260864 -204.340088 56.709534

v 89.575806 -214.322342 53.952820

v 66.445740 -236.092407 56.495117

v 43.814693 -148.830200 55.218700

v 7.733063 -174.933990 56.572266

v 61.334717 -164.585052 61.927063

v 68.843437 -171.177948 60.410248

v 24.364136 -229.706696 54.904968

v 42.636948 -235.948669 59.333862

v 57.239136 -236.851563 56.380615

v 85.171265 -219.007324 57.569214

v 71.183533 -229.853760 58.974854

v 24.860344 -150.256454 62.052612

v 13.567938 -161.960114 56.953606

v 37.472187 -149.735474 62.839569

v 12.765282 -192.952988 56.411537

v 30.362289 -228.148804 59.818909

v 53.012634 -234.181824 60.080627

v 14.528259 -184.377625 63.075684

v 14.815384 -195.569122 65.641052

v 8.291176 -204.997757 63.094872

v 11.893932 -217.430176 63.642807

v 80.603485 -193.276733 59.222542

v 17.990372 -221.106781 60.026871

v 82.493652 -211.615372 59.406921

v 77.905518 -220.943542 62.981934

v 21.669029 -156.705414 65.015961

v 11.216812 -171.225174 64.760895

v 15.936661 -162.053955 66.067474

v 30.454994 -213.899689 60.319382

v 23.782898 -210.819733 65.766876

v 76.736053 -184.609573 63.378098

v 40.025078 -224.975708 60.119091

v 80.681824 -197.546112 63.035309

v 71.018280 -226.614594 63.483673

v 39.370396 -153.827103 64.806061

v 42.034485 -220.615295 65.044708

v 47.212128 -229.797058 63.384613

v 78.922607 -211.434082 66.384277

v 78.033173 -215.000458 65.921356

v 63.492188 -226.528748 65.034729

v 43.466576 -159.960175 70.950623

v 61.051224 -170.113403 67.254395

v 15.625519 -211.197906 65.282196

v 33.564240 -214.280304 66.829529

v 76.666260 -193.775757 67.480927

v 50.407352 -225.879639 65.788223

v 14.858521 -181.134460 69.208740

v 52.674751 -165.712311 70.498421

v 70.182159 -181.709900 67.641533

v 43.231972 -218.080444 69.132385

v 76.590485 -204.216263 71.070648

v 56.674866 -220.854462 66.063538

v 23.067932 -161.122345 71.502716

v 30.911743 -158.217407 72.422791

v 18.427765 -166.690720 70.915436

v 19.596252 -198.562286 69.128387

v 62.222172 -180.183105 71.156860

v 27.877502 -206.360138 70.595703

v 38.971481 -212.543823 71.169373

v 58.794861 -217.204468 71.040955

v 73.149506 -212.108459 71.282349

v 53.277435 -215.387024 71.301819

v 44.781773 -162.225204 77.184746

v 21.983032 -172.713837 75.920044

v 23.700073 -193.817902 71.931000

v 65.621170 -187.470093 73.785301

v 69.845673 -208.222931 73.628448

v 27.070251 -179.663666 79.231445

v 54.279430 -171.089264 77.420555

v 63.059052 -187.508148 77.254944

v 29.541466 -193.490723 75.459198

v 38.140076 -205.554871 75.312149

v 47.322865 -212.577972 75.447914

v 62.372162 -205.557861 73.723549

v 29.526432 -165.513885 79.388039

v 34.055237 -164.735229 77.441559

v 46.323753 -195.992203 75.557739

v 52.078621 -191.381500 77.575851

v 36.197258 -192.510010 77.366425

v 60.920410 -199.089630 75.595444

v 55.543457 -196.018066 77.429146

v 40.400986 -171.186844 77.623695

v 36.905876 -188.218933 79.339828

v 57.502563 -183.377884 79.390305

v 47.255615 -185.723389 78.798592

v 40.810455 -173.962723 79.388588

f 1 2 3
f 4 3 5
f 2 5 3
f 2 6 5
f 7 5 6
f 8 7 9
f 8 9 10
f 11 10 9
f 10 11 12
f 10 12 13
f 2 1 14
f 4 1 3
f 15 2 16
f 5 17 4
f 2 15 6
f 17 5 18
f 5 19 18
f 7 6 20
f 19 5 7
f 18 19 21
f 7 8 19
f 8 21 19
f 20 9 7
f 9 20 22
f 21 23 18
f 21 8 24
f 22 11 9
f 24 8 10
f 11 25 12
f 13 26 10
f 2 14 16
f 6 15 27
f 17 18 28
f 27 20 6
f 18 29 28
f 29 30 28
f 29 18 23
f 22 20 27
f 23 21 24
f 25 11 22
f 23 24 26
f 25 31 12
f 10 26 24
f 12 31 13
f 26 13 31
f 31 32 26
f 4 14 1
f 4 17 33
f 34 30 29
f 34 29 23
f 34 23 35
f 26 32 23
f 32 35 23
f 35 32 36
f 31 37 32
f 32 37 36
f 37 38 36
f 4 33 14
f 14 39 16
f 39 40 16
f 17 28 41
f 15 16 40
f 15 42 27
f 41 28 30
f 42 43 27
f 35 44 30
f 45 44 46
f 27 43 22
f 30 34 35
f 47 48 46
f 49 44 35
f 44 50 46
f 47 46 50
f 25 22 43
f 50 51 47
f 51 50 52
f 50 44 49
f 31 25 53
f 54 49 35
f 54 55 49
f 36 54 35
f 31 53 37
f 56 37 53
f 54 36 38
f 57 55 54
f 38 37 56
f 54 38 57
f 55 57 58
f 33 17 59
f 17 41 60
f 15 40 42
f 40 61 42
f 45 41 30
f 62 63 46
f 42 61 43
f 45 30 44
f 45 46 63
f 46 48 62
f 64 48 47
f 61 65 43
f 47 51 64
f 51 66 64
f 43 65 25
f 67 52 50
f 68 56 53
f 55 69 49
f 69 55 70
f 71 56 68
f 70 55 58
f 56 71 38
f 38 71 72
f 38 72 57
f 72 58 57
f 73 74 60
f 74 59 60
f 14 33 75
f 75 39 14
f 60 59 17
f 40 39 75
f 73 60 45
f 63 73 45
f 45 60 41
f 62 48 76
f 61 77 65
f 76 48 64
f 65 78 25
f 66 51 79
f 52 79 51
f 25 78 53
f 50 49 67
f 80 81 53
f 49 69 67
f 81 68 53
f 82 69 70
f 71 68 83
f 83 84 71
f 70 58 82
f 72 71 84
f 84 85 72
f 86 87 74
f 88 74 87
f 86 74 73
f 88 59 74
f 59 88 89
f 33 59 75
f 90 73 63
f 91 90 63
f 63 62 91
f 61 40 92
f 92 77 61
f 91 62 76
f 65 77 78
f 78 80 53
f 93 79 52
f 52 67 93
f 93 67 94
f 95 68 81
f 83 68 95
f 58 96 82
f 84 83 95
f 95 97 84
f 58 72 98
f 85 98 72
f 85 84 99
f 100 101 87
f 87 86 100
f 102 100 86
f 103 75 59
f 104 86 73
f 75 103 105
f 73 90 104
f 105 40 75
f 92 40 105
f 106 91 76
f 92 107 77
f 107 78 77
f 108 76 64
f 109 80 107
f 110 64 66
f 107 111 109
f 78 107 80
f 80 109 112
f 109 113 112
f 79 93 114
f 81 80 112
f 67 69 94
f 94 69 115
f 115 69 116
f 112 117 118
f 118 95 112
f 82 96 119
f 112 95 81
f 118 117 120
f 97 99 84
f 85 121 98
f 99 121 85
f 89 103 59
f 108 106 76
f 107 92 122
f 122 111 107
f 110 66 114
f 79 114 66
f 109 111 113
f 93 94 123
f 112 113 124
f 117 112 124
f 69 82 119
f 116 69 119
f 125 95 118
f 95 125 97
f 58 98 96
f 99 97 126
f 121 96 98
f 126 121 99
f 88 87 101
f 101 89 88
f 127 103 89
f 86 104 102
f 128 105 103
f 128 129 105
f 106 104 91
f 90 91 104
f 129 92 105
f 122 92 129
f 130 111 122
f 108 64 110
f 131 111 130
f 132 110 114
f 113 111 131
f 113 131 133
f 114 93 123
f 134 123 94
f 133 124 113
f 94 115 134
f 119 96 116
f 120 125 118
f 116 96 135
f 121 135 96
f 136 101 100
f 102 137 100
f 127 89 101
f 102 138 137
f 128 103 127
f 127 139 128
f 102 104 138
f 140 138 104
f 104 141 140
f 139 129 128
f 141 104 106
f 106 142 141
f 106 108 142
f 129 143 122
f 130 122 143
f 108 110 132
f 123 144 114
f 117 124 145
f 145 146 117
f 120 117 146
f 147 97 125
f 126 97 148
f 135 121 149
f 148 121 126
f 150 100 137
f 101 151 127
f 139 152 129
f 152 153 129
f 154 141 142
f 153 143 129
f 142 108 154
f 132 114 144
f 155 123 134
f 115 156 134
f 115 116 156
f 116 135 157
f 125 120 158
f 159 148 97
f 135 149 160
f 148 149 121
f 136 151 101
f 136 100 150
f 127 151 161
f 137 138 162
f 127 161 139
f 163 130 143
f 108 132 164
f 131 130 165
f 116 157 156
f 158 120 146
f 158 147 125
f 160 157 135
f 147 159 97
f 149 148 166
f 136 167 151
f 168 161 151
f 162 150 137
f 169 161 168
f 139 161 169
f 170 162 138
f 140 170 138
f 169 152 139
f 163 143 153
f 108 164 154
f 163 165 130
f 164 132 144
f 133 131 165
f 144 123 171
f 123 155 171
f 124 133 172
f 155 134 173
f 145 124 172
f 174 156 157
f 174 157 160
f 159 175 148
f 148 175 166
f 167 136 150
f 167 176 151
f 176 168 151
f 168 177 169
f 169 178 152
f 152 178 153
f 179 141 154
f 180 153 178
f 153 180 163
f 181 154 164
f 182 164 144
f 144 171 182
f 173 134 156
f 145 183 146
f 174 173 156
f 184 185 146
f 158 146 185
f 147 158 185
f 185 186 147
f 186 159 147
f 187 160 149
f 186 175 159
f 166 187 149
f 167 188 176
f 189 168 188
f 168 176 188
f 190 167 150
f 177 168 189
f 162 191 150
f 178 169 192
f 170 140 193
f 193 140 141
f 179 193 141
f 192 194 178
f 180 178 194
f 181 179 154
f 164 182 181
f 163 195 165
f 196 165 195
f 133 197 198
f 172 133 198
f 199 155 173
f 173 174 200
f 183 184 146
f 188 201 202
f 188 202 189
f 188 203 201
f 190 203 167
f 188 167 203
f 190 150 191
f 162 204 191
f 180 195 163
f 181 182 205
f 165 196 197
f 182 206 205
f 182 171 206
f 133 165 197
f 207 171 155
f 155 208 207
f 208 155 199
f 200 199 173
f 185 184 209
f 210 174 160
f 186 185 209
f 209 211 186
f 211 175 186
f 187 166 212
f 213 212 166
f 175 213 166
f 214 189 202
f 215 201 203
f 203 190 215
f 214 177 189
f 214 216 177
f 190 191 215
f 169 177 216
f 162 217 204
f 216 192 169
f 217 162 170
f 218 193 179
f 179 219 218
f 219 179 181
f 181 205 220
f 171 221 206
f 171 207 221
f 172 198 222
f 172 222 145
f 184 183 223
f 223 224 184
f 210 200 174
f 209 184 224
f 224 225 209
f 212 210 160
f 209 225 211
f 160 187 212
f 175 211 226
f 202 201 227
f 215 228 201
f 214 229 216
f 230 215 191
f 230 191 204
f 231 170 193
f 232 194 192
f 231 193 218
f 233 180 194
f 181 220 219
f 197 196 234
f 206 235 205
f 206 221 235
f 234 198 197
f 198 234 222
f 223 183 236
f 225 237 211
f 211 237 238
f 238 226 211
f 226 239 175
f 213 175 239
f 215 230 228
f 240 229 241
f 204 242 230
f 229 240 216
f 240 192 216
f 217 170 243
f 240 232 192
f 233 194 232
f 233 195 180
f 233 196 195
f 244 207 208
f 244 208 245
f 245 208 199
f 246 245 199
f 246 199 200
f 212 247 210
f 238 248 226
f 213 249 212
f 239 249 213
f 250 214 202
f 214 250 229
f 250 251 229
f 201 228 227
f 217 243 204
f 170 252 243
f 252 170 231
f 253 218 219
f 253 219 220
f 220 254 253
f 220 205 254
f 196 255 234
f 254 205 235
f 221 207 244
f 245 256 244
f 257 245 246
f 183 145 236
f 258 223 236
f 258 259 223
f 224 223 259
f 224 259 260
f 260 225 224
f 225 260 237
f 260 248 237
f 238 237 248
f 239 226 261
f 249 239 262
f 251 241 229
f 228 230 263
f 264 242 204
f 265 240 241
f 243 264 204
f 240 265 266
f 266 232 240
f 266 233 232
f 231 218 252
f 196 233 255
f 254 235 267
f 235 221 267
f 221 244 256
f 222 234 268
f 245 257 256
f 268 145 222
f 145 268 236
f 200 269 246
f 270 260 259
f 248 261 226
f 250 202 271
f 271 202 272
f 227 272 202
f 251 273 241
f 263 230 242
f 242 274 263
f 218 253 252
f 256 267 221
f 234 255 275
f 275 268 234
f 257 269 276
f 269 257 246
f 258 236 277
f 269 200 278
f 258 270 259
f 210 278 200
f 248 260 270
f 279 212 249
f 262 239 261
f 271 251 250
f 280 227 228
f 274 242 264
f 281 243 252
f 254 282 283
f 282 254 267
f 267 256 282
f 256 257 276
f 284 236 268
f 277 236 284
f 247 278 210
f 270 285 248
f 212 279 247
f 249 262 279
f 251 271 286
f 287 286 271
f 271 272 287
f 272 227 280
f 280 228 288
f 274 288 263
f 273 289 241
f 263 288 228
f 264 290 274
f 241 289 265
f 290 264 243
f 266 291 233
f 253 254 292
f 254 283 292
f 233 293 255
f 276 283 282
f 276 282 256
f 255 294 275
f 295 268 275
f 276 269 296
f 270 258 297
f 261 248 285
f 298 299 286
f 287 298 286
f 251 286 299
f 251 299 300
f 301 287 272
f 251 300 273
f 274 302 288
f 274 290 302
f 289 303 265
f 266 265 303
f 304 266 303
f 233 291 293
f 293 305 255
f 305 294 255
f 268 295 284
f 258 284 295
f 284 258 277
f 296 269 306
f 278 306 269
f 270 307 285
f 308 247 279
f 287 301 298
f 301 272 280
f 280 288 309
f 281 290 243
f 304 291 266
f 252 310 281
f 311 252 253
f 292 311 253
f 295 275 312
f 313 276 296
f 258 295 314
f 314 297 258
f 315 270 297
f 315 307 270
f 278 247 316
f 262 308 279
f 298 300 299
f 298 317 300
f 273 300 317
f 317 318 273
f 289 273 318
f 288 302 309
f 318 319 289
f 303 289 319
f 319 304 303
f 252 311 310
f 320 292 283
f 320 283 276
f 294 312 275
f 314 295 312
f 306 278 316
f 307 321 285
f 285 321 261
f 247 308 316
f 261 321 322
f 261 322 262
f 308 262 322
f 301 317 298
f 323 317 301
f 318 317 323
f 301 280 324
f 309 324 280
f 302 290 325
f 319 318 323
f 290 326 325
f 326 290 281
f 326 281 310
f 319 327 304
f 327 291 304
f 291 327 328
f 328 293 291
f 329 293 328
f 293 329 305
f 330 305 329
f 305 330 294
f 294 330 331
f 313 332 276
f 331 312 294
f 312 333 314
f 297 314 333
f 315 297 333
f 308 322 334
f 301 335 323
f 335 301 324
f 302 336 309
f 335 324 309
f 327 319 337
f 311 338 310
f 328 327 337
f 311 292 320
f 331 339 312
f 312 339 340
f 341 340 339
f 342 313 296
f 340 333 312
f 343 296 306
f 306 316 343
f 344 307 315
f 344 321 307
f 345 336 302
f 345 302 325
f 323 335 346
f 323 347 319
f 347 348 319
f 326 310 338
f 349 329 328
f 350 311 320
f 330 329 351
f 320 276 332
f 331 330 352
f 331 352 339
f 339 353 341
f 332 313 342
f 343 342 296
f 354 343 316
f 355 344 315
f 316 308 354
f 334 354 308
f 346 335 309
f 323 346 347
f 337 319 348
f 356 326 338
f 338 311 350
f 337 349 328
f 357 350 320
f 349 351 329
f 357 320 358
f 358 320 332
f 330 351 359
f 330 359 360
f 339 361 353
f 361 339 352
f 362 358 363
f 363 364 362
f 341 353 365
f 358 332 363
f 365 366 341
f 341 366 340
f 363 332 342
f 363 342 367
f 368 355 333
f 343 367 342
f 333 355 315
f 321 344 369
f 322 321 369
f 369 370 322
f 371 345 325
f 356 371 325
f 326 356 325
f 372 356 338
f 372 338 350
f 373 350 357
f 358 362 374
f 362 375 374
f 330 360 352
f 362 364 375
f 361 376 353
f 340 366 368
f 340 368 333
f 377 367 343
f 343 354 377
f 355 378 344
f 344 378 369
f 334 322 379
f 370 379 322
f 380 309 336
f 381 345 371
f 382 371 356
f 372 383 356
f 337 348 384
f 385 372 350
f 337 384 349
f 359 351 349
f 357 358 374
f 386 361 352
f 353 376 365
f 365 376 366
f 364 363 387
f 363 367 388
f 367 377 389
f 354 334 390
f 390 334 379
f 345 380 336
f 345 381 380
f 391 309 380
f 392 346 309
f 309 391 392
f 371 382 381
f 346 392 347
f 382 356 393
f 347 392 394
f 348 347 394
f 356 383 393
f 394 384 348
f 372 385 383
f 350 373 385
f 349 384 395
f 359 349 395
f 396 357 374
f 359 395 360
f 375 364 387
f 361 386 376
f 366 376 386
f 363 388 387
f 397 368 366
f 389 388 367
f 355 368 398
f 378 355 398
f 354 390 399
f 400 370 369
f 390 379 401
f 384 394 402
f 403 383 385
f 404 384 402
f 385 373 405
f 384 404 395
f 404 406 395
f 396 373 357
f 360 395 406
f 352 360 386
f 407 375 387
f 386 397 366
f 397 408 368
f 408 398 368
f 399 377 354
f 378 409 369
f 409 400 369
f 379 370 410
f 401 379 410
f 382 411 381
f 393 412 382
f 383 412 393
f 385 405 403
f 404 402 413
f 373 396 405
f 375 407 374
f 360 414 386
f 414 397 386
f 401 415 390
f 410 370 400
f 380 411 416
f 416 391 380
f 411 380 381
f 382 412 411
f 394 392 417
f 417 418 394
f 419 412 383
f 402 394 418
f 383 420 419
f 418 421 402
f 420 383 403
f 413 402 421
f 405 422 403
f 396 423 405
f 360 424 414
f 425 407 387
f 408 397 414
f 426 387 388
f 388 389 426
f 427 426 389
f 377 427 389
f 398 428 378
f 377 399 429
f 399 390 415
f 409 430 400
f 415 401 410
f 391 416 431
f 431 392 391
f 417 392 431
f 411 412 432
f 432 412 419
f 403 422 420
f 423 422 405
f 433 423 396
f 374 433 396
f 406 404 434
f 435 433 374
f 407 435 374
f 414 424 436
f 425 435 407
f 426 425 387
f 426 437 425
f 429 427 377
f 409 378 428
f 428 430 409
f 429 399 415
f 431 416 438
f 438 439 431
f 411 440 416
f 439 417 431
f 411 432 440
f 420 441 419
f 420 422 441
f 442 413 421
f 433 443 423
f 413 434 404
f 360 406 434
f 360 434 424
f 433 435 444
f 444 435 425
f 414 445 408
f 446 425 437
f 428 398 447
f 428 448 430
f 449 410 400
f 450 410 449
f 416 440 451
f 440 452 451
f 439 453 417
f 440 432 452
f 452 432 419
f 417 454 418
f 441 452 419
f 454 421 418
f 454 442 421
f 441 422 455
f 422 456 455
f 456 422 423
f 423 443 456
f 442 457 413
f 413 457 434
f 434 457 458
f 458 436 424
f 443 433 444
f 424 434 458
f 425 446 444
f 426 446 437
f 459 446 426
f 427 459 426
f 398 408 447
f 415 460 429
f 461 400 430
f 449 400 461
f 410 450 462
f 439 463 464
f 438 463 439
f 438 416 451
f 452 465 451
f 454 417 453
f 441 466 452
f 467 441 455
f 468 445 414
f 459 469 446
f 429 470 427
f 470 429 471
f 460 471 429
f 428 472 448
f 415 473 460
f 462 473 410
f 415 410 473
f 464 463 474
f 475 463 438
f 464 474 476
f 439 464 476
f 439 476 477
f 477 453 439
f 465 452 466
f 441 467 466
f 443 478 456
f 443 479 480
f 436 458 481
f 444 479 443
f 481 468 436
f 414 436 468
f 446 482 444
f 447 408 445
f 483 459 427
f 428 447 472
f 460 484 471
f 461 430 448
f 485 475 438
f 485 438 451
f 451 486 485
f 486 451 465
f 453 487 454
f 456 488 455
f 489 457 442
f 478 443 480
f 458 457 490
f 444 491 479
f 482 491 444
f 492 482 446
f 446 469 492
f 471 484 493
f 494 484 473
f 484 460 473
f 495 461 448
f 495 496 461
f 494 473 462
f 461 496 449
f 497 498 476
f 475 485 499
f 476 474 497
f 498 500 476
f 476 500 477
f 501 477 500
f 501 453 477
f 454 487 502
f 467 455 503
f 489 490 457
f 458 490 481
f 504 479 491
f 504 491 482
f 483 469 459
f 470 483 427
f 505 472 447
f 484 494 506
f 448 472 507
f 462 508 494
f 509 496 495
f 496 450 449
f 474 510 497
f 463 475 499
f 474 463 511
f 499 511 463
f 497 510 512
f 512 498 497
f 513 500 498
f 485 486 514
f 501 500 513
f 501 515 453
f 467 503 466
f 442 454 502
f 455 488 503
f 502 489 442
f 456 516 488
f 456 478 516
f 482 517 504
f 517 482 492
f 492 518 517
f 518 492 469
f 469 483 518
f 519 483 470
f 508 506 494
f 507 495 448
f 520 508 462
f 496 509 450
f 450 520 462
f 511 510 474
f 499 485 521
f 512 513 498
f 485 514 521
f 512 522 513
f 501 513 522
f 486 523 514
f 453 515 487
f 487 524 502
f 524 525 502
f 525 526 502
f 489 502 526
f 489 527 490
f 527 489 526
f 479 504 528
f 504 517 528
f 529 518 483
f 519 529 483
f 530 505 447
f 470 471 519
f 472 505 507
f 471 493 531
f 484 506 493
f 507 509 495
f 510 532 533
f 510 511 532
f 511 534 532
f 535 510 533
f 510 535 512
f 511 499 534
f 522 512 535
f 522 515 501
f 522 536 515
f 487 515 536
f 465 537 486
f 536 524 487
f 465 538 537
f 538 465 466
f 525 524 539
f 540 503 488
f 488 516 540
f 541 526 525
f 478 480 516
f 480 542 543
f 527 481 490
f 542 480 479
f 544 445 468
f 447 445 530
f 471 531 519
f 545 507 505
f 545 509 507
f 509 546 450
f 534 547 532
f 521 534 499
f 523 486 548
f 537 548 486
f 549 524 536
f 466 503 538
f 525 539 541
f 541 550 526
f 543 516 480
f 527 526 550
f 481 527 551
f 551 468 481
f 479 528 542
f 544 530 445
f 517 518 552
f 529 552 518
f 509 545 553
f 506 508 554
f 450 546 520
f 555 535 533
f 534 521 547
f 555 556 535
f 521 514 557
f 522 535 556
f 523 557 514
f 536 522 556
f 556 549 536
f 549 539 524
f 558 538 503
f 558 503 540
f 540 516 559
f 560 550 541
f 550 561 527
f 468 551 544
f 517 562 528
f 544 563 530
f 563 564 530
f 552 529 565
f 565 529 566
f 566 529 519
f 493 567 531
f 568 545 505
f 568 553 545
f 567 493 506
f 567 506 554
f 553 546 509
f 508 520 554
f 533 569 570
f 533 532 569
f 533 570 555
f 521 557 571
f 570 572 555
f 555 572 573
f 573 556 555
f 556 573 549
f 574 523 548
f 573 575 549
f 576 575 573
f 575 539 549
f 538 558 537
f 575 541 539
f 541 575 560
f 516 543 559
f 561 550 560
f 528 577 542
f 505 530 564
f 519 531 566
f 531 567 578
f 568 579 553
f 553 580 546
f 569 581 570
f 582 569 532
f 532 583 582
f 584 572 570
f 532 547 583
f 571 547 521
f 572 585 573
f 576 573 585
f 586 575 576
f 575 586 587
f 575 587 560
f 540 559 558
f 561 560 588
f 589 543 542
f 527 561 588
f 527 588 551
f 577 528 562
f 517 565 562
f 517 552 565
f 531 590 591
f 531 591 566
f 590 531 578
f 505 564 592
f 593 578 567
f 594 568 505
f 546 580 595
f 554 520 596
f 520 546 596
f 597 598 599
f 581 597 599
f 599 584 581
f 581 584 570
f 584 599 600
f 600 572 584
f 601 600 599
f 571 583 547
f 557 602 571
f 603 585 600
f 572 600 585
f 574 604 557
f 574 557 523
f 548 537 558
f 559 605 558
f 543 589 559
f 544 551 606
f 563 544 606
f 607 564 563
f 562 565 591
f 565 566 591
f 505 592 594
f 608 593 567
f 567 554 608
f 568 594 579
f 580 553 579
f 595 580 579
f 595 596 546
f 609 597 610
f 598 597 609
f 611 598 609
f 612 597 581
f 582 612 581
f 581 569 582
f 601 598 611
f 599 598 601
f 583 613 614
f 613 583 571
f 571 602 613
f 557 604 602
f 601 603 600
f 585 603 615
f 576 585 615
f 586 576 616
f 560 587 617
f 542 618 589
f 619 551 588
f 577 618 542
f 620 606 551
f 621 562 591
f 591 590 622
f 593 590 578
f 623 579 594
f 554 596 608
f 610 624 609
f 625 609 624
f 597 612 610
f 626 611 609
f 582 627 612
f 628 601 611
f 614 582 583
f 629 603 601
f 603 629 615
f 630 615 629
f 574 548 631
f 576 615 616
f 616 632 586
f 587 586 632
f 617 587 632
f 588 560 617
f 617 633 588
f 588 633 619
f 620 551 619
f 634 577 621
f 621 577 562
f 606 607 563
f 591 635 621
f 591 622 635
f 593 622 590
f 636 623 594
f 623 595 579
f 637 638 639
f 639 625 637
f 624 610 640
f 625 639 641
f 641 626 625
f 626 609 625
f 628 626 641
f 626 628 611
f 642 627 614
f 582 614 627
f 614 613 642
f 643 629 628
f 644 613 602
f 628 629 601
f 643 630 629
f 616 615 630
f 645 646 630
f 631 548 558
f 616 630 646
f 646 647 616
f 558 605 631
f 646 648 647
f 632 616 647
f 617 632 647
f 617 647 649
f 617 649 633
f 650 559 589
f 577 634 618
f 634 621 651
f 621 635 651
f 651 635 622
f 651 622 652
f 592 564 607
f 622 593 652
f 607 636 592
f 594 592 636
f 653 654 593
f 593 608 653
f 595 623 655
f 608 596 656
f 595 657 596
f 638 658 639
f 641 639 658
f 610 612 640
f 612 627 659
f 660 659 627
f 660 627 642
f 661 628 641
f 628 661 662
f 628 662 643
f 643 662 645
f 643 645 630
f 631 663 574
f 648 646 664
f 648 649 647
f 665 648 664
f 650 605 559
f 649 648 665
f 649 665 619
f 649 619 633
f 618 650 589
f 620 619 665
f 651 666 634
f 666 651 652
f 623 636 667
f 623 667 655
f 656 653 608
f 595 655 657
f 596 657 656
f 668 638 637
f 637 669 668
f 669 637 625
f 625 670 669
f 670 625 624
f 624 640 670
f 640 612 671
f 672 641 658
f 672 661 641
f 673 660 642
f 642 613 673
f 661 672 674
f 661 674 662
f 675 602 604
f 604 676 675
f 604 574 677
f 574 663 677
f 678 646 645
f 678 664 646
f 605 679 631
f 678 680 664
f 605 681 679
f 680 665 664
f 681 605 650
f 665 682 620
f 683 650 618
f 618 684 683
f 634 684 618
f 634 685 684
f 606 686 687
f 634 666 688
f 607 606 687
f 593 654 652
f 689 636 607
f 689 690 636
f 653 691 654
f 692 691 653
f 655 667 693
f 692 657 655
f 692 653 656
f 655 693 692
f 692 656 657
f 694 658 638
f 694 695 658
f 671 612 659
f 672 658 695
f 613 644 673
f 602 675 644
f 662 674 696
f 604 677 676
f 645 662 697
f 698 663 631
f 679 698 631
f 645 699 678
f 700 678 699
f 679 681 701
f 702 701 681
f 700 680 678
f 681 650 702
f 650 703 702
f 650 683 703
f 682 665 680
f 704 703 683
f 683 684 704
f 705 704 684
f 606 620 686
f 705 684 685
f 688 685 634
f 706 707 708
f 654 709 652
f 708 710 706
f 709 654 711
f 654 691 711
f 691 710 711
f 710 691 706
f 706 692 693
f 667 712 693
f 667 636 690
f 706 691 692
f 713 638 668
f 694 638 713
f 640 714 670
f 640 671 714
f 660 715 659
f 660 673 715
f 716 673 644
f 672 696 674
f 716 644 717
f 675 717 644
f 718 675 676
f 675 718 717
f 676 677 718
f 719 718 677
f 697 720 645
f 719 677 663
f 663 698 719
f 721 719 698
f 679 701 698
f 721 698 701
f 722 721 701
f 701 702 722
f 682 680 700
f 702 703 722
f 723 722 703
f 703 704 723
f 682 686 620
f 685 723 704
f 685 704 705
f 685 688 724
f 709 725 652
f 707 726 708
f 727 707 706
f 710 708 726
f 726 728 710
f 711 729 709
f 730 727 693
f 706 693 727
f 728 731 710
f 690 712 667
f 732 669 670
f 670 714 733
f 695 694 734
f 735 671 659
f 734 736 695
f 672 695 736
f 696 672 736
f 662 696 697
f 719 737 718
f 645 720 699
f 738 719 721
f 699 682 700
f 739 682 699
f 686 682 739
f 666 652 725
f 607 687 740
f 740 689 607
f 727 726 707
f 726 727 728
f 731 729 711
f 689 712 690
f 711 710 731
f 712 730 693
f 741 668 669
f 741 669 732
f 733 732 670
f 671 733 714
f 715 735 659
f 717 718 742
f 743 721 722
f 722 744 743
f 744 722 723
f 745 686 739
f 723 685 724
f 688 666 746
f 746 666 725
f 709 747 725
f 709 729 747
f 740 748 689
f 731 747 729
f 748 712 689
f 712 748 730
f 741 749 713
f 741 713 668
f 694 713 750
f 750 751 694
f 752 732 733
f 734 694 751
f 733 671 735
f 753 715 673
f 716 753 673
f 696 736 754
f 717 742 716
f 755 697 696
f 737 719 738
f 720 756 699
f 738 721 743
f 739 699 756
f 756 745 739
f 744 723 757
f 687 686 758
f 724 688 759
f 688 746 759
f 725 747 760
f 731 761 747
f 762 749 741
f 763 713 749
f 741 732 762
f 732 752 762
f 734 764 736
f 754 755 696
f 718 765 742
f 755 766 697
f 720 697 766
f 737 765 718
f 756 720 767
f 756 768 745
f 723 759 757
f 759 723 724
f 758 740 687
f 750 713 763
f 769 735 715
f 715 770 769
f 715 753 770
f 764 754 736
f 716 771 753
f 755 754 772
f 766 755 772
f 773 720 766
f 745 768 774
f 686 745 758
f 775 744 757
f 759 746 776
f 746 725 777
f 760 777 725
f 761 760 747
f 778 730 748
f 731 728 779
f 727 730 780
f 728 727 781
f 781 779 728
f 782 763 749
f 749 762 783
f 733 784 752
f 785 733 735
f 734 751 764
f 771 770 753
f 754 764 786
f 786 787 754
f 772 773 766
f 773 767 720
f 738 788 737
f 768 756 767
f 767 774 768
f 738 743 789
f 790 743 744
f 744 775 790
f 757 759 776
f 740 758 791
f 748 740 792
f 778 748 792
f 793 761 731
f 780 781 727
f 749 783 782
f 762 794 783
f 794 762 752
f 782 795 763
f 750 763 795
f 784 733 785
f 735 796 785
f 735 769 796
f 771 716 742
f 765 737 797
f 767 773 798
f 788 797 737
f 767 798 774
f 738 799 788
f 789 799 738
f 775 757 776
f 791 792 740
f 800 777 760
f 793 760 761
f 778 780 730
f 779 793 731
f 782 783 795
f 751 750 795
f 795 801 751
f 764 751 801
f 801 786 764
f 769 770 796
f 772 754 787
f 802 798 773
f 789 743 790
f 745 774 803
f 803 758 745
f 776 804 775
f 804 776 805
f 776 777 805
f 777 776 746
f 806 792 791
f 760 793 800
f 806 778 792
f 807 781 780
f 807 779 781
f 783 794 808
f 795 783 808
f 808 809 795
f 752 810 794
f 801 795 809
f 784 785 811
f 785 796 811
f 786 801 809
f 809 812 786
f 796 770 813
f 813 770 814
f 815 770 771
f 771 816 815
f 771 742 816
f 742 817 816
f 765 817 742
f 817 765 797
f 818 803 774
f 803 819 758
f 791 758 819
f 800 805 777
f 819 820 791
f 820 806 791
f 806 821 778
f 778 821 780
f 793 779 807
f 794 810 808
f 822 808 810
f 809 808 822
f 810 752 784
f 822 812 809
f 770 815 814
f 773 772 823
f 823 802 773
f 817 797 824
f 788 825 797
f 805 826 804
f 800 826 805
f 827 800 793
f 827 793 828
f 829 780 821
f 830 812 822
f 814 815 813
f 786 831 787
f 832 815 816
f 831 772 787
f 772 831 833
f 833 823 772
f 817 824 834
f 797 825 824
f 798 802 835
f 836 788 799
f 837 799 789
f 774 798 838
f 789 839 837
f 838 818 774
f 803 840 819
f 804 826 841
f 820 819 840
f 821 842 829
f 829 807 780
f 822 810 830
f 812 830 843
f 843 844 812
f 844 786 812
f 834 816 817
f 823 845 802
f 825 788 836
f 835 838 798
f 799 837 836
f 839 789 790
f 790 775 846
f 775 804 846
f 818 840 803
f 826 800 841
f 841 800 827
f 806 820 847
f 793 807 828
f 810 848 830
f 848 810 784
f 784 811 848
f 849 811 796
f 786 844 850
f 851 852 815
f 852 813 815
f 815 832 851
f 850 831 786
f 816 834 832
f 802 845 835
f 818 838 853
f 790 846 839
f 804 854 846
f 854 804 841
f 827 855 841
f 847 821 806
f 842 821 847
f 830 848 843
f 849 796 813
f 813 856 849
f 839 846 857
f 857 846 854
f 858 820 840
f 847 820 858
f 855 827 828
f 828 807 859
f 860 807 829
f 861 843 848
f 811 861 848
f 811 849 861
f 813 852 856
f 862 832 834
f 824 863 834
f 845 823 833
f 835 853 838
f 837 839 857
f 840 818 864
f 864 865 840
f 865 858 840
f 828 866 855
f 866 828 859
f 859 807 860
f 860 829 842
f 843 861 867
f 867 861 849
f 843 867 844
f 868 831 850
f 862 869 832
f 834 863 862
f 845 833 870
f 863 824 825
f 871 825 836
f 835 845 872
f 836 873 871
f 873 836 837
f 837 874 873
f 837 857 874
f 854 875 857
f 818 853 864
f 841 875 854
f 876 875 841
f 841 877 876
f 855 877 841
f 877 855 866
f 847 858 878
f 878 879 847
f 847 879 842
f 860 880 859
f 881 867 849
f 867 881 844
f 868 850 844
f 832 882 851
f 882 832 869
f 863 825 871
f 853 835 883
f 864 853 883
f 858 865 884
f 884 878 858
f 877 866 885
f 884 879 878
f 859 885 866
f 842 879 860
f 881 849 856
f 856 852 886
f 851 882 852
f 831 868 887
f 870 831 887
f 870 833 831
f 888 862 863
f 870 889 845
f 872 845 889
f 872 883 835
f 890 857 875
f 885 859 880
f 891 880 860
f 860 879 892
f 893 881 856
f 881 893 868
f 856 894 893
f 868 844 881
f 869 862 888
f 863 895 888
f 872 896 883
f 874 857 890
f 883 896 864
f 897 875 898
f 876 898 875
f 884 899 879
f 892 879 899
f 892 891 860
f 893 894 900
f 856 886 894
f 893 900 868
f 868 900 901
f 902 886 852
f 887 868 901
f 903 882 869
f 870 887 901
f 904 895 863
f 863 905 904
f 863 871 905
f 906 871 873
f 873 907 906
f 908 873 874
f 909 874 890
f 897 890 875
f 876 877 898
f 877 910 898
f 885 910 877
f 911 885 880
f 886 900 894
f 902 852 882
f 902 882 903
f 869 912 903
f 912 869 888
f 913 870 901
f 870 913 889
f 871 906 905
f 896 872 914
f 873 908 907
f 909 908 874
f 897 909 890
f 864 915 916
f 865 864 916
f 884 865 916
f 917 884 916
f 885 911 910
f 884 917 899
f 880 891 911
f 891 892 918
f 900 919 901
f 920 903 912
f 901 919 913
f 895 912 888
f 895 904 912
f 921 922 889
f 889 922 872
f 922 914 872
f 914 915 896
f 909 897 923
f 864 896 915
f 898 923 897
f 923 898 924
f 924 898 910
f 910 911 925
f 917 926 899
f 926 927 899
f 892 899 927
f 911 891 918
f 900 886 928
f 886 902 929
f 930 919 900
f 902 920 929
f 920 902 903
f 913 919 930
f 931 920 912
f 912 904 931
f 921 889 913
f 905 931 904
f 909 907 908
f 923 924 932
f 926 917 916
f 933 910 925
f 918 925 911
f 927 918 892
f 900 928 930
f 929 928 886
f 934 920 931
f 905 935 931
f 936 905 906
f 907 909 937
f 914 938 915
f 939 909 923
f 923 932 939
f 915 938 916
f 916 938 940
f 926 916 940
f 933 924 910
f 927 925 918
f 927 926 941
f 929 942 928
f 929 943 944
f 920 943 929
f 943 920 934
f 935 905 936
f 906 937 936
f 907 937 906
f 909 939 937
f 939 945 946
f 947 938 914
f 939 948 945
f 939 932 948
f 940 938 949
f 932 924 948
f 924 933 948
f 926 940 941
f 925 927 933
f 941 950 927
f 944 942 929
f 951 913 930
f 921 913 951
f 934 931 935
f 922 947 914
f 939 946 937
f 945 948 952
f 947 949 938
f 948 953 952
f 940 949 954
f 948 933 953
f 940 954 955
f 955 941 940
f 933 956 953
f 933 927 956
f 927 950 956
f 928 951 930
f 951 928 942
f 921 951 957
f 958 922 921
f 936 937 959
f 959 937 946
f 960 946 945
f 961 949 947
f 960 945 952
f 952 953 962
f 956 962 953
f 955 950 941
f 950 955 956
f 934 963 943
f 964 921 957
f 935 963 934
f 958 921 964
f 936 959 935
f 935 959 946
f 958 965 922
f 947 922 965
f 965 961 947
f 952 966 960
f 961 967 949
f 954 949 967
f 952 962 968
f 968 956 955
f 962 956 968
f 969 942 944
f 970 951 942
f 944 971 969
f 971 944 943
f 970 957 951
f 963 971 943
f 935 972 963
f 958 973 965
f 935 946 972
f 974 972 946
f 960 974 946
f 960 966 975
f 966 968 976
f 966 952 968
f 968 955 976
f 954 977 955
f 969 970 942
f 958 964 973
f 973 961 965
f 960 975 974
f 975 966 978
f 976 978 966
f 954 967 977
f 977 976 955
f 979 957 970
f 980 971 963
f 981 980 963
f 981 963 972
f 974 981 972
f 961 973 982
f 975 981 974
f 967 961 982
f 983 976 977
f 964 957 979
f 984 980 981
f 973 964 985
f 982 973 986
f 987 981 988
f 988 981 975
f 988 975 989
f 989 975 978
f 978 990 989
f 982 990 983
f 982 983 967
f 990 978 983
f 967 983 977
f 978 976 983
f 991 969 971
f 969 991 970
f 970 992 979
f 985 964 979
f 987 984 981
f 986 973 985
f 993 994 995
f 993 995 987
f 993 987 988
f 993 996 997
f 993 989 996
f 989 993 988
f 986 996 982
f 990 982 996
f 996 989 990
f 970 991 992
f 991 971 980
f 998 992 991
f 985 979 992
f 985 992 998
f 995 999 984
f 998 1000 985
f 995 984 987
f 999 995 1001
f 994 1001 995
f 985 1000 986
f 994 993 997
f 994 997 986
f 996 986 997
f 980 984 991
f 1002 991 984
f 998 991 1002
f 984 999 1002
f 1002 1000 998
f 1001 1002 999
f 1000 1002 1001
f 1001 994 1000
f 986 1000 994
