v -196.775879 -0.874207 -99.674347

v -202.412827 -7.851929 -99.747543

v -201.140717 -0.560379 -98.856262

v -205.841675 -10.809509 -97.067505

v -187.075317 4.360107 -98.383057

v -186.360977 2.064392 -99.645889

v -181.726898 -6.695146 -99.657288

v -178.943207 -0.479454 -99.584969

v -197.476898 -17.171570 -99.741859

v -204.094849 -16.721191 -97.937012

v -178.982819 -8.355797 -97.870392

v -191.415497 9.993774 -94.261902

v -205.926208 -3.073669 -96.455688

v -200.674438 0.433472 -96.482727

v -187.912933 8.579834 -95.923035

v -177.099548 3.351685 -95.973488

v -174.035675 -0.546661 -96.778381

v -173.238312 -6.245560 -97.654839

v -196.363480 -19.964722 -97.941101

v -170.734283 -7.275016 -95.968666

v -195.550537 -24.300079 -97.783882

v -203.942230 -21.850464 -97.573914

v -176.599045 -12.752411 -97.710281

v -203.223389 -27.601685 -95.707275

v -184.761261 -20.978577 -96.113342

v -182.473785 12.080963 -93.952324

v -204.251831 1.674683 -94.356140

v -175.225586 6.578033 -95.627724

v -206.882813 -15.804962 -91.630371

v -166.965485 -5.547798 -95.497040

v -206.243591 -21.270962 -93.182739

v -171.050873 6.049423 -93.955971

v -167.752899 -8.787903 -95.593979

v -199.655075 -30.338913 -95.256836

v -190.707169 -25.478149 -95.425186

v -174.863403 -18.401321 -95.408188

v -169.675598 -16.468763 -92.764648

v -182.219971 -23.127609 -95.451714

v -193.571045 12.083496 -93.756805

v -203.188828 5.996643 -93.500549

v -201.597992 10.320435 -91.455688

v -182.467102 18.133636 -93.770691

v -206.965958 1.926991 -92.321251

v -178.469391 16.575272 -93.701431

v -207.616272 -4.501370 -91.208572

v -170.255524 10.864944 -93.636787

v -165.003479 1.402164 -93.519402

v -205.552094 -27.916870 -93.277649

v -163.243500 -5.881721 -92.771118

v -204.363037 -31.770020 -91.560303

v -164.375702 -10.870780 -93.026138

v -199.890060 -31.657928 -92.985916

v -192.687546 -27.794006 -92.312668

v -185.986404 -25.684967 -92.860306

v -177.694550 -21.748840 -92.860916

v -186.916870 19.090271 -92.131226

v -194.587738 18.015198 -91.628296

v -182.424637 24.748596 -89.805511

v -199.168015 14.931351 -91.067108

v -204.086212 6.370468 -90.633133

v -171.384415 19.454926 -90.070923

v -163.413879 7.119954 -90.156784

v -209.288376 -11.394226 -86.796448

v -207.445374 -19.507828 -89.227600

v -161.504135 -1.502947 -89.091255

v -161.420349 -6.249230 -88.905380

v -198.644974 -36.208282 -92.013374

v -202.683472 -37.523926 -90.255737

v -163.155762 -10.974208 -88.814774

v -165.343216 -14.111431 -89.034180

v -183.885773 -27.101837 -91.984818

v -172.239960 -22.290100 -90.131950

v -184.327576 -31.062714 -90.203758

v -197.041504 -38.808914 -90.271690

v -193.951721 20.650635 -89.425964

v -186.571045 25.527954 -89.083405

v -175.996246 29.101379 -86.402313

v -172.221909 23.652252 -89.798737

v -202.870651 8.337975 -87.238831

v -205.313644 -2.309462 -87.539993

v -165.414719 18.719040 -89.862968

v -163.520813 21.826599 -87.990875

v -155.641769 12.916473 -87.848999

v -157.670929 9.903870 -89.781540

v -157.651535 6.272028 -89.484947

v -159.634308 2.819531 -89.233780

v -206.897430 -25.119324 -88.630798

v -206.345398 -31.130806 -88.696991

v -167.575165 -17.273521 -88.680130

v -169.089874 -21.387512 -89.166710

v -192.463531 -45.108154 -90.167358

v -171.279663 -26.533678 -89.598373

v -202.433899 -43.003235 -89.580444

v -175.331406 -31.457695 -90.028084

v -181.020691 -38.874176 -90.124283

v -173.052689 -30.139908 -88.797386

v -175.342575 -32.724503 -87.997910

v -176.703812 -36.251183 -89.247765

v -193.573227 21.556244 -87.183136

v -185.121750 26.906525 -86.403259

v -198.047577 18.299908 -86.655334

v -200.726288 14.260506 -87.246735

v -169.914001 25.678741 -87.772858

v -204.701157 4.626518 -86.415543

v -208.371368 -6.625671 -86.403999

v -212.998169 -18.454163 -85.893616

v -211.712402 -22.489014 -86.677368

v -158.152496 7.349869 -84.835754

v -211.592438 -26.318607 -88.093536

v -161.860596 1.754395 -85.976807

v -164.848877 -6.902483 -87.567017

v -210.609375 -32.513123 -87.152954

v -204.054260 -45.049103 -86.599518

v -171.185852 -18.503601 -85.156311

v -172.879272 -25.894287 -85.649292

v -192.734619 -47.344482 -86.790161

v -177.285263 -35.669716 -86.221062

v -181.537445 -43.182625 -83.752838

v -184.570877 -44.840763 -87.377144

v -196.538727 30.599396 -85.099037

v -192.896271 34.753204 -85.158707

v -189.049713 34.958374 -85.989120

v -196.345734 26.818665 -86.108566

v -189.058228 26.726837 -86.154327

v -183.938568 34.675919 -86.028839

v -199.152390 24.213043 -85.170326

v -201.591125 18.882198 -85.483856

v -180.336243 35.984482 -84.210732

v -169.028290 27.977325 -84.204704

v -203.637939 10.284668 -86.387665

v -204.792648 15.410484 -85.668594

v -217.991913 5.322009 -85.340363

v -209.177872 11.721275 -85.906342

v -215.985077 4.910095 -86.291512

v -219.664368 -2.804741 -86.280975

v -220.693069 0.394830 -85.324631

v -206.872009 -1.161346 -86.339241

v -163.199280 25.923431 -86.159637

v -216.818909 -10.581200 -86.298477

v -159.515808 29.678131 -84.180695

v -154.235016 25.198929 -85.972130

v -154.994293 17.109364 -86.118263

v -150.747879 17.338812 -83.704117

v -153.432999 14.556282 -83.989655

v -213.639679 -30.828239 -85.426056

v -167.948944 -1.265219 -82.029633

v -169.032959 -8.730347 -84.955872

v -212.828659 -35.583679 -86.162857

v -212.533905 -40.365967 -85.852722

v -211.259369 -46.152161 -84.452271

v -198.345200 -50.013733 -84.435364

v -189.109741 -47.661148 -83.289185

v -191.310974 36.418213 -82.621826

v -194.096375 33.695816 -79.368118

v -188.114990 37.886597 -82.045471

v -170.693192 38.847961 -83.998611

v -181.690155 40.007202 -80.398071

v -201.718048 15.925964 -79.354019

v -206.333801 13.056030 -82.743530

v -157.952789 33.340027 -84.026070

v -215.272598 6.752017 -83.095657

v -219.592590 0.520538 -83.153168

v -221.254227 -3.180740 -82.824951

v -156.877136 36.056702 -82.330536

v -140.235794 36.995697 -83.947128

v -222.858780 -6.744802 -82.951050

v -221.469696 -11.133457 -83.614319

v -152.155243 26.749245 -84.164139

v -143.088501 25.602251 -83.995491

v -218.168579 -17.511292 -83.883545

v -136.988785 34.879734 -83.895935

v -137.005447 31.125084 -82.968315

v -146.278076 21.449995 -83.628281

v -156.048874 11.152220 -81.379112

v -163.487411 3.573623 -81.935608

v -214.368408 -31.750000 -83.047974

v -216.029053 -27.147705 -82.456787

v -171.422699 -12.392612 -79.726189

v -172.201157 -17.338493 -78.678131

v -174.706970 -25.229040 -79.120941

v -175.363220 -31.959423 -81.449860

v -209.105026 -51.070251 -84.276909

v -203.921967 -52.592010 -83.781143

v -179.865021 -42.719524 -81.405899

v -170.101059 41.640755 -80.760834

v -164.120651 41.530373 -81.182220

v -197.982178 22.814186 -79.365601

v -158.619919 39.414970 -81.601463

v -210.867569 6.198009 -82.015388

v -153.546387 38.854614 -80.349365

v -221.784439 -13.331045 -79.309769

v -143.132217 39.917419 -79.236267

v -136.631042 37.608551 -80.189903

v -136.848419 27.139244 -79.384636

v -141.420074 22.668129 -79.483948

v -148.778915 17.257401 -81.128647

v -159.959167 6.305092 -80.974266

v -168.420776 -7.991272 -79.840271

v -215.445313 -39.463844 -79.951172

v -215.069275 -44.581421 -77.819214

v -212.919250 -49.578979 -80.246277

v -211.841370 -52.409966 -80.612717

v -177.228622 -36.671528 -81.303253

v -204.011017 -53.840347 -80.971512

v -194.875320 -54.892090 -80.131866

v -192.016968 -52.251282 -81.170837

v -182.832031 -46.331154 -81.719955

v -186.130615 -49.294594 -81.182404

v -189.589127 39.235706 -79.241707

v -165.565460 41.452221 -76.385025

v -207.604797 4.864456 -79.003479

v -219.739456 -6.306494 -78.964348

v -133.178497 39.589584 -77.459984

v -133.940018 31.208401 -79.323639

v -221.095825 -17.990799 -79.723068

v -220.576111 -22.806168 -79.474548

v -147.031891 16.344723 -79.287933

v -151.362335 11.700039 -79.247833

v -219.084839 -28.649551 -79.686096

v -163.701874 -2.873667 -78.984352

v -218.020782 -33.563324 -78.979248

v -176.904175 -31.419209 -78.864235

v -209.749115 -60.704895 -80.425163

v -180.817230 -40.651581 -76.201843

v -185.616699 -47.332825 -72.778229

v -185.163193 39.931992 -76.863708

v -191.562103 31.805586 -76.563736

v -176.210159 41.166069 -77.327721

v -172.359741 40.973553 -75.360687

v -193.973587 23.223190 -76.589043

v -196.755920 14.847397 -76.678879

v -152.024673 42.885895 -76.066864

v -203.922791 3.548104 -77.018539

v -144.993057 42.500854 -77.279739

v -213.216095 -5.072968 -78.343964

v -219.121765 -14.255203 -75.013977

v -132.723022 32.071053 -74.609726

v -219.786316 -18.923111 -72.804260

v -141.810455 21.036655 -75.524284

v -148.310730 14.300625 -74.312210

v -154.039886 5.986131 -77.383453

v -157.216537 1.692575 -77.611038

v -158.950745 -2.056921 -77.213173

v -217.432373 -38.060371 -75.582581

v -161.960266 -6.185252 -77.498360

v -166.672577 -11.766083 -77.471436

v -214.179276 -50.300022 -75.973129

v -213.271591 -55.154423 -75.976868

v -206.148224 -63.052387 -76.579742

v -209.940125 -61.024189 -75.904442

v -187.936340 -50.425903 -74.067291

v -192.534363 -54.980263 -75.970787

v -176.631012 38.765301 -76.251328

v -181.280472 31.669123 -76.352013

v -156.442139 42.750145 -75.495758

v -184.742157 20.810062 -76.229797

v -188.802780 15.854527 -76.451187

v -193.461151 10.966966 -76.391602

v -198.787247 4.628294 -76.289261

v -136.440643 42.942963 -73.390259

v -203.480286 -1.099930 -75.784821

v -209.181366 -6.123127 -75.658424

v -131.032623 40.165527 -74.519035

v -214.554977 -10.601645 -74.857498

v -136.988525 26.894707 -74.998528

v -149.803619 12.047640 -73.247253

v -158.525452 3.689894 -70.367188

v -163.590775 -4.816221 -70.166473

v -165.245773 -9.610266 -69.991028

v -169.710388 -21.992973 -71.216187

v -173.517822 -28.936920 -72.223511

v -199.832840 -58.119980 -75.008377

v -176.303101 33.932320 -71.682129

v -161.569733 42.683273 -71.661316

v -179.840576 27.090652 -71.309875

v -152.527069 43.088684 -71.286209

v -183.306427 19.379564 -70.343369

v -143.411865 43.935303 -72.471558

v -186.474777 13.954792 -68.970314

v -190.483231 9.244156 -69.225822

v -196.768188 3.579460 -70.217010

v -125.933685 45.395508 -71.532715

v -113.255692 42.374756 -74.248901

v -127.291351 26.995708 -74.344482

v -220.536957 -25.184807 -71.298126

v -108.931839 42.852196 -73.287567

v -107.464111 38.760231 -74.111496

v -139.246857 20.693083 -73.586708

v -134.097870 24.022705 -73.576874

v -219.012878 -29.866669 -69.047775

v -122.713898 26.228912 -72.565369

v -105.797638 36.509277 -72.431831

v -152.706390 8.629387 -69.787003

v -215.849228 -41.837250 -71.533394

v -213.656586 -47.048737 -73.876404

v -213.030624 -50.326115 -75.024597

v -204.950989 -51.521606 -74.851242

v -205.505066 -45.888168 -71.567886

v -208.191559 -61.473801 -75.033577

v -194.072540 -47.503265 -71.376251

v -192.806152 -52.709656 -74.792114

v -183.010696 -43.024414 -70.958557

v -169.440704 41.321617 -69.422211

v -135.866226 48.774048 -69.756332

v -203.551178 -2.424694 -70.052826

v -210.723358 -7.239594 -70.169006

v -218.201843 -11.671745 -70.157410

v -120.616699 46.609375 -69.939423

v -221.606781 -17.265686 -68.254272

v -113.038986 44.884533 -69.771576

v -106.982376 41.105743 -69.237732

v -134.150757 23.292324 -67.290733

v -142.588013 18.361000 -66.618652

v -125.430511 23.302521 -70.364876

v -129.795929 21.956614 -66.495018

v -117.513008 21.760727 -72.305595

v -216.589096 -36.038666 -71.229462

v -112.983170 26.482168 -72.231522

v -104.374550 31.918686 -72.065926

v -99.728973 31.920273 -68.615265

v -162.322464 -0.557860 -70.074013

v -177.637329 -36.636711 -69.505447

v -159.944641 45.515228 -69.927994

v -172.036148 36.463470 -66.197548

v -153.548828 47.182831 -70.001755

v -145.075897 48.267929 -69.413879

v -128.943420 48.495316 -69.366394

v -222.342163 -20.678627 -68.539803

v -102.818222 37.678154 -68.251350

v -119.358788 20.830505 -69.480743

v -102.185524 29.426830 -68.033798

v -112.451782 24.640446 -69.045052

v -116.207344 19.688715 -71.446663

v -114.173683 19.227924 -68.406998

v -115.670158 17.649712 -67.549446

v -210.903809 -39.778599 -70.768311

v -167.488159 -17.212669 -68.822426

v -205.834625 -41.801086 -70.784897

v -194.324921 -44.573975 -70.396332

v -173.667374 -27.845886 -67.330017

v -179.500351 -38.899841 -67.663124

v -167.179031 41.686760 -65.944534

v -156.461243 47.599762 -65.818283

v -150.296738 48.731995 -66.431488

v -177.140305 31.104389 -63.982758

v -180.659058 26.061169 -64.726913

v -142.864502 49.496555 -65.111267

v -139.380569 49.754662 -64.970810

v -184.946350 19.385654 -66.178284

v -132.821762 48.952431 -65.130692

v -196.056732 6.318184 -66.495148

v -201.235840 2.505096 -65.404015

v -206.055756 -1.359299 -66.306946

v -211.265793 -5.411737 -66.388329

v -218.705383 -10.002502 -66.681198

v -115.486610 43.785484 -66.985764

v -219.638290 -25.765350 -67.082275

v -147.640106 12.983742 -65.845474

v -150.130829 9.150059 -65.711761

v -152.050278 5.533163 -66.446037

v -154.120148 2.670855 -67.508278

v -123.229736 19.622494 -66.773163

v -210.416229 -38.123730 -67.392403

v -159.337463 -4.643496 -68.204460

v -109.097488 21.232170 -68.082748

v -160.526352 -9.514637 -66.195168

v -163.178864 -14.111176 -66.603149

v -201.396011 -36.467850 -67.218796

v -199.236313 -38.994995 -68.629761

v -170.622620 -19.652405 -66.903748

v -186.493698 -41.655518 -69.036133

v -189.215714 -38.652046 -67.145416

v -178.370544 -33.955246 -67.112320

v -147.543549 49.729050 -65.005577

v -189.780380 14.738657 -65.574409

v -192.633972 10.611879 -65.866196

v -220.188065 -12.922237 -65.820374

v -120.516647 46.221138 -65.227890

v -219.736038 -14.891676 -60.551079

v -111.842934 39.323154 -61.996849

v -106.693207 35.169922 -64.676239

v -140.331024 22.685913 -63.434387

v -216.057495 -29.026649 -66.268799

v -211.382050 -31.207718 -66.902596

v -154.907257 -0.997730 -64.999352

v -202.823349 -32.371811 -67.059952

v -201.690323 -31.174467 -66.185371

v -158.873810 -5.090424 -64.699799

v -196.978424 -31.784042 -66.957237

v -103.426895 23.865215 -64.148956

v -108.856888 21.633240 -63.949646

v -179.047501 -21.976044 -65.031250

v -181.524521 -25.410202 -66.863525

v -192.251373 -30.799728 -66.974869

v -161.341278 52.974792 -63.092499

v -158.700516 52.827576 -64.705811

v -167.361908 46.096977 -63.665573

v -165.053772 45.548340 -64.860321

v -144.579132 55.627655 -64.666267

v -153.082352 57.405762 -62.915771

v -155.183029 49.439545 -64.839554

v -170.888214 40.494675 -64.041946

v -173.354889 35.893482 -63.646164

v -139.757904 57.466827 -63.008133

v -126.785385 53.117493 -64.572189

v -185.379898 16.652664 -61.867004

v -188.147064 12.243484 -61.573547

v -196.570404 3.435898 -62.819641

v -119.027939 47.612331 -64.019455

v -207.334747 -4.802689 -61.410294

v -221.521088 -19.204374 -60.261936

v -220.879211 -22.794769 -63.733521

v -216.592896 -28.209015 -64.261566

v -133.802185 25.155609 -63.635956

v -148.933868 19.211182 -62.401245

v -151.534836 12.810974 -62.374451

v -127.014313 24.435394 -61.790997

v -119.033752 22.423096 -60.583252

v -154.429443 5.842262 -62.622925

v -209.514297 -30.822662 -64.033974

v -105.327087 31.107880 -60.757843

v -201.549881 -31.455139 -63.921356

v -193.341705 -30.463928 -64.130524

v -174.405441 -17.219635 -64.324066

v -165.211121 -8.790283 -62.793945

v -182.073593 -25.083233 -63.229874

v -157.708694 56.706272 -61.787590

v -152.007706 60.026237 -61.733742

v -144.942474 61.252197 -62.423233

v -163.014542 51.027065 -58.269272

v -137.999115 60.673004 -62.486282

v -170.673462 37.801006 -58.286133

v -125.334335 55.700470 -62.595398

v -174.729736 30.591042 -61.703979

v -177.698181 27.034458 -61.655396

v -180.506073 22.570915 -61.594849

v -190.340683 9.447668 -60.687881

v -191.919922 6.180475 -61.013748

v -215.044312 -10.394180 -59.097290

v -222.459549 -23.492205 -60.202808

v -134.819305 27.811771 -61.907082

v -140.417114 27.044022 -62.278214

v -146.207458 22.692444 -62.286697

v -217.620728 -31.322876 -62.401489

v -107.563118 35.825893 -60.113770

v -214.906937 -33.801544 -62.235519

v -158.300537 0.263214 -62.152802

v -208.530670 -35.004669 -62.577728

v -107.014984 26.048340 -61.084106

v -112.626694 25.955719 -60.324615

v -201.841675 -34.186985 -61.920753

v -169.937805 -11.716309 -60.522400

v -174.561157 -17.021301 -59.982147

v -177.565903 -21.734766 -58.545135

v -195.966324 -33.922745 -61.580944

v -185.121719 -29.771395 -61.617493

v -190.935120 -33.677361 -61.431065

v -159.788269 55.230515 -58.054993

v -147.799179 63.194023 -57.866222

v -139.398895 63.457642 -59.330536

v -168.627502 42.474892 -58.132706

v -131.198593 61.818695 -59.317200

v -173.976929 30.930069 -58.045776

v -124.229927 57.111301 -59.266464

v -120.273186 55.379265 -58.629848

v -117.167786 52.216934 -58.138245

v -195.560776 3.071925 -60.219116

v -201.257996 -0.634459 -59.470993

v -111.860413 47.432991 -56.393875

v -139.117767 27.830812 -60.008514

v -145.295700 22.630043 -59.075981

v -149.202850 18.497942 -59.190277

v -131.771790 26.397385 -59.264297

v -218.502502 -31.302841 -60.014526

v -125.416565 22.562134 -56.742702

v -151.291245 10.648037 -57.196434

v -151.845932 8.170135 -58.374153

v -156.499451 3.388725 -60.205978

v -104.903114 33.676819 -58.050003

v -160.532135 -1.196881 -59.259003

v -166.116150 -7.631317 -60.163879

v -212.765015 -34.726837 -57.768120

v -180.179855 -24.558945 -57.950294

v -182.393356 -27.170876 -57.803596

v -154.004883 59.866158 -57.840092

v -142.880707 65.424400 -57.924545

v -135.994034 66.242653 -58.058517

v -124.537064 62.549271 -58.316582

v -180.811768 19.795944 -52.929077

v -188.467880 12.223273 -58.145203

v -193.834167 6.608569 -58.349159

v -196.772751 3.491035 -58.371971

v -209.680725 -5.590848 -58.268311

v -218.145599 -17.194031 -58.704620

v -219.375107 -23.240444 -58.962006

v -109.031693 44.103451 -57.405426

v -137.535065 24.340239 -58.069805

v -105.375801 37.227741 -57.991890

v -152.322296 5.199247 -58.361221

v -153.899063 2.371894 -57.979912

v -118.572800 24.364887 -56.381134

v -111.719910 29.093079 -57.119141

v -168.722260 -5.067565 -57.396603

v -170.937408 -8.466278 -58.239410

v -203.801407 -32.249939 -57.721619

v -198.073029 -31.671448 -57.706665

v -143.127930 64.083374 -55.451168

v -151.179443 55.936836 -54.844513

v -135.484467 65.129509 -55.405106

v -161.362076 45.062233 -54.458740

v -166.484055 38.777657 -55.411026

v -126.650787 62.824707 -55.225849

v -169.628418 34.629539 -55.714600

v -175.715576 24.704529 -50.324951

v -119.057304 54.627396 -55.476013

v -189.807510 8.345009 -52.462769

v -114.684357 48.919373 -55.314545

v -201.466827 -2.076416 -54.781860

v -213.960907 -12.894148 -55.143799

v -217.005341 -21.182945 -51.080959

v -217.432907 -25.380005 -54.236664

v -142.176849 23.720121 -51.966381

v -144.064514 22.134369 -55.911987

v -151.117004 16.855072 -55.131653

v -216.243881 -26.330498 -57.193436

v -106.910240 41.292641 -53.578236

v -131.413971 23.826412 -56.220901

v -106.801056 35.464783 -53.632568

v -205.450882 -28.699411 -56.541588

v -153.862488 8.359619 -54.259094

v -163.050507 -3.180511 -54.901260

v -157.417191 -0.394483 -52.011257

v -201.807297 -29.326172 -57.182262

v -170.657394 -9.993312 -53.038090

v -172.807465 -10.733795 -51.815186

v -192.262146 -23.537388 -56.508228

v -190.199631 -24.443359 -57.352695

v -176.771118 -16.506531 -56.328491

v -184.146317 -22.729507 -56.435684

v -181.658081 -21.551941 -54.773804

v -156.009674 51.537170 -54.085907

v -140.315674 60.532753 -54.775978

v -129.714600 59.587891 -54.973480

v -131.313522 57.334259 -51.931164

v -123.325912 52.344036 -54.101803

v -172.877350 29.253777 -50.629333

v -122.468079 53.370148 -54.906464

v -185.646759 13.521835 -52.473358

v -207.113556 -7.398926 -54.169830

v -112.209076 44.363174 -53.238907

v -148.753708 21.951874 -52.483337

v -135.255249 23.760279 -51.126350

v -205.607574 -29.493637 -53.846504

v -112.623817 30.642159 -53.473541

v -116.401489 25.721931 -53.436096

v -122.191284 21.689217 -53.215683

v -124.940697 19.526711 -46.926468

v -199.305191 -29.315310 -52.947052

v -189.301163 -21.830421 -52.330414

v -196.334198 -26.163683 -52.614334

v -155.769806 48.556236 -49.674892

v -164.724319 41.224541 -50.424076

v -169.922104 33.597164 -50.482880

v -128.242081 54.003120 -50.670197

v -121.650650 51.927296 -49.315990

v -116.271790 47.651268 -50.034893

v -194.493652 2.186378 -50.118530

v -210.839111 -10.706488 -50.702850

v -111.489136 40.068741 -52.853958

v -153.893524 13.348207 -51.516327

v -113.000107 35.381134 -52.111130

v -130.191238 22.923923 -50.625710

v -153.810120 3.620998 -51.478004

v -215.822357 -30.185928 -53.488350

v -113.338806 27.745872 -49.351749

v -163.298447 -5.111578 -52.052254

v -203.473526 -33.338501 -53.526520

v -178.288712 -16.074799 -51.959549

v -210.034058 -39.473648 -53.380905

v -214.212097 -38.264160 -52.815048

v -162.126587 44.544514 -50.219547

v -145.368927 51.965721 -49.829857

v -137.209534 53.567894 -49.865524

v -167.383331 37.877251 -50.507813

v -177.284576 17.961456 -48.844696

v -185.095047 10.205109 -50.000229

v -199.918762 -2.196373 -50.734024

v -206.325485 -6.901008 -50.787247

v -213.475998 -13.994076 -49.257416

v -217.192810 -17.050308 -48.986115

v -111.573822 41.216633 -49.453369

v -147.345093 22.238098 -50.144356

v -150.344727 18.324593 -49.482040

v -218.447174 -28.850754 -48.916504

v -112.003815 33.383110 -49.438194

v -127.199280 22.278971 -46.931080

v -182.325150 -13.329575 -51.304512

v -188.966187 -18.476715 -50.486633

v -115.198151 23.570652 -49.384323

v -121.463203 19.630848 -49.491432

v -177.417648 -9.493934 -50.005585

v -214.835831 -38.052822 -49.151428

v -171.901520 -9.807308 -48.430969

v -153.882675 -2.546248 -51.192871

v -165.882568 -9.488754 -51.193119

v -201.772827 -30.530411 -49.956360

v -212.891617 -40.610043 -49.572815

v -203.740341 -35.764992 -50.623985

v -207.563080 -39.448269 -50.675705

v -144.611694 49.975006 -48.607517

v -158.153381 41.654842 -48.580933

v -165.214966 36.895538 -46.768555

v -130.174515 52.836208 -47.001183

v -180.256180 11.252079 -49.012543

v -112.247627 48.715221 -48.288574

v -183.542999 6.348995 -49.395836

v -200.281128 -4.202042 -49.864868

v -187.992645 0.689474 -49.489815

v -206.315857 -10.421485 -49.222786

v -195.782806 -5.047379 -49.189640

v -108.275986 45.745060 -49.000259

v -218.953400 -21.387783 -48.827301

v -141.733673 21.732113 -44.573837

v -151.744385 15.223343 -48.751389

v -96.884521 38.105457 -49.233624

v -96.858200 40.043625 -48.675934

v -155.050415 8.360931 -45.155029

v -153.017426 2.429657 -42.954758

v -182.739197 -14.090874 -45.590164

v -190.023529 -18.189270 -46.510895

v -86.111877 32.403774 -49.117489

v -197.685501 -24.190559 -46.256104

v -104.342636 16.311546 -49.304028

v -150.894516 -2.557419 -48.142838

v -116.202713 15.825745 -49.317570

v -97.928711 16.300293 -49.300415

v -160.024704 -10.940928 -45.038548

v -168.597092 -10.764124 -44.868095

v -207.334290 -35.028404 -48.801453

v -156.074219 -9.871042 -47.017311

v -113.235397 12.167755 -46.495865

v -83.295151 17.317162 -49.246796

v -89.873802 15.062620 -48.383255

v -95.434792 14.775585 -48.103489

v -78.117867 23.464642 -49.067196

v -76.949493 20.532423 -48.318703

v -83.894608 15.340987 -48.159969

v -148.753937 47.174599 -44.369049

v -169.184616 30.868563 -44.870956

v -171.808395 26.716526 -45.031300

v -124.634392 52.737610 -44.521286

v -174.635834 20.193354 -45.010658

v -112.165855 49.683075 -44.110348

v -177.915100 13.502575 -45.019165

v -180.563995 7.208263 -45.114960

v -213.869171 -15.937778 -44.109051

v -207.048248 -14.428852 -44.192242

v -197.441315 -7.878620 -44.808685

v -188.324310 -2.909477 -45.412064

v -147.331726 17.288467 -41.730591

v -97.833092 43.192886 -46.298058

v -102.806732 46.210854 -44.807289

v -152.386703 14.303833 -44.061218

v -218.719666 -25.206919 -44.423622

v -219.317276 -20.557737 -44.883617

v -136.009964 23.072044 -45.550739

v -130.694336 22.392448 -45.219475

v -216.414246 -31.489990 -46.006355

v -212.504425 -38.232826 -46.277878

v -177.204224 -12.199299 -45.416618

v -94.825043 41.067081 -44.463928

v -88.842369 38.525780 -44.768570

v -202.649658 -28.414749 -46.206497

v -120.619766 13.642462 -45.301483

v -207.163910 -32.690525 -46.119621

v -83.251991 33.636822 -45.525608

v -149.733841 -7.577181 -46.904655

v -110.076721 11.794720 -45.754978

v -104.057129 12.882418 -45.562405

v -76.804138 25.640015 -45.716324

v -75.237350 21.375944 -44.793217

v -85.737045 16.419641 -43.201767

v -77.565727 19.456303 -43.889420

v -136.981125 53.329483 -42.617981

v -142.095535 52.311401 -41.238739

v -133.059036 53.614471 -44.537163

v -184.025635 1.638475 -45.000763

v -216.949661 -16.233339 -45.026218

v -217.144302 -29.252625 -44.432182

v -198.682205 -19.846802 -45.771774

v -198.260742 -16.901337 -44.114510

v -213.522217 -25.583984 -44.123848

v -149.665955 -2.082115 -42.577263

v -82.091721 37.615963 -44.983913

v -150.632355 -6.918854 -44.339050

v -74.803101 37.670914 -44.347504

v -70.694077 35.261169 -45.194218

v -155.220154 -9.918961 -44.266865

v -115.649292 12.448952 -44.403923

v -71.851746 29.006905 -45.139839

v -95.795883 14.833296 -42.388603

v -72.642044 25.015316 -44.428162

v -156.530960 42.704552 -40.613556

v -165.682343 35.498642 -40.798416

v -175.140564 25.740824 -42.741821

v -132.057144 51.508163 -42.314892

v -180.677979 19.836426 -41.167358

v -119.530548 48.183006 -41.771843

v -181.463684 15.700889 -42.083801

v -112.552063 45.761292 -42.928238

v -182.999130 9.047974 -42.083389

v -188.511688 1.076237 -42.152481

v -196.346283 -5.705872 -42.128021

v -197.607544 -9.759993 -43.759708

v -101.641960 41.449043 -42.733582

v -192.544907 -10.915619 -43.852608

v -136.007965 23.493963 -41.765785

v -184.395279 -7.503212 -43.142738

v -180.450745 -7.957100 -43.694817

v -93.470245 39.060120 -40.900982

v -176.161560 -10.332977 -44.049561

v -130.639923 22.432798 -38.226376

v -157.812958 6.981388 -41.854401

v -173.531982 -7.409927 -43.324883

v -122.183296 18.070171 -42.544895

v -163.072083 -6.847359 -42.889534

v -161.823151 -8.730576 -43.909286

v -84.884750 38.969776 -39.579674

v -154.906097 -5.733864 -43.312981

v -111.925919 14.827770 -42.620445

v -77.603516 37.327599 -41.748108

v -71.013412 36.030510 -42.081070

v -71.694244 31.828735 -41.635742

v -73.933990 24.610779 -40.539825

v -151.520462 46.527565 -40.533234

v -170.080811 31.261780 -40.626221

v -175.065063 27.301987 -39.662964

v -186.872940 12.539581 -41.745697

v -191.817505 4.061970 -41.693390

v -113.087418 46.024780 -40.135826

v -102.893936 41.459904 -40.581253

v -197.420319 -8.076759 -39.273426

v -190.870728 -7.743011 -41.355713

v -151.799774 13.855301 -38.549011

v -154.272507 10.229867 -39.029037

v -182.664536 -6.533550 -38.842239

v -177.286560 -5.233147 -38.452919

v -169.873123 -6.597946 -41.017845

v -156.150452 2.083618 -41.463776

v -164.078674 -5.116417 -38.387836

v -154.429230 -3.670708 -40.731415

v -157.862839 -4.756405 -38.307793

v -110.864410 14.407665 -38.061188

v -120.022064 16.490768 -38.482243

v -105.774773 15.990593 -39.157150

v -99.617043 16.095024 -39.270294

v -89.228462 13.748400 -38.158985

v -77.734863 19.313309 -39.096039

v -80.682693 16.565592 -39.796989

v -155.782867 47.540314 -39.222900

v -162.317688 42.079239 -39.156860

v -144.580185 53.758129 -37.040142

v -147.907074 52.000366 -38.891174

v -137.773941 54.208069 -36.620155

v -169.463593 37.103695 -37.127808

v -181.391510 24.068241 -37.079346

v -125.907539 51.742302 -36.995346

v -186.734009 18.711937 -36.894806

v -190.776855 13.107376 -37.267273

v -110.442329 47.613041 -37.183910

v -201.172012 -1.279549 -39.882889

v -197.804932 -4.565933 -40.270111

v -205.012238 -6.252658 -39.795200

v -199.404526 -6.353638 -38.633133

v -191.060608 -6.747009 -38.849991

v -144.477814 18.490494 -32.836914

v -97.158531 43.333351 -38.339714

v -135.919800 20.775906 -32.036926

v -155.402344 5.625998 -36.943253

v -125.880402 19.833809 -38.206436

v -157.338593 -0.430344 -37.823746

v -75.875610 31.773117 -38.770447

v -76.729401 25.020554 -38.597504

v -84.769806 13.747315 -36.470963

v -151.659943 50.376053 -36.447578

v -158.774597 45.959301 -36.774685

v -164.330719 41.555763 -36.013969

v -176.213684 30.517841 -36.891365

v -195.831055 8.247042 -37.234985

v -199.787994 2.595328 -36.907959

v -203.999069 -2.304502 -36.850128

v -204.163544 -5.864796 -36.760857

v -112.062508 46.912331 -35.902409

v -198.042358 -2.913101 -36.273384

v -186.342422 -2.136749 -36.326508

v -184.153809 -3.695190 -37.821014

v -148.813919 16.508627 -34.324890

v -131.687515 23.368931 -35.108017

v -174.060135 -0.560135 -37.963734

v -155.115952 10.161713 -35.507187

v -173.546631 1.891205 -36.357826

v -87.441612 40.403839 -36.780544

v -95.852470 42.983284 -36.773903

v -80.558395 36.736931 -36.068996

v -123.430771 15.684738 -36.792198

v -117.865555 11.129456 -37.669319

v -77.029564 30.659054 -35.990246

v -99.870613 10.128738 -37.613533

v -98.803764 14.370071 -37.883282

v -110.245209 6.137512 -35.393085

v -78.385780 25.491795 -35.819359

v -93.251656 10.104183 -37.340824

v -82.208900 16.510120 -35.903294

v -89.102715 12.860794 -36.768318

v -151.314514 47.077393 -35.703300

v -168.261261 37.069702 -34.847046

v -139.600327 52.637390 -35.913502

v -158.475098 41.875603 -34.205280

v -172.293533 31.272766 -33.036774

v -142.944427 47.824837 -35.807037

v -144.681168 46.113396 -34.221436

v -178.809692 25.546448 -34.451782

v -126.389618 50.349869 -35.900139

v -182.094055 19.624462 -30.622967

v -186.254883 17.592777 -32.657482

v -191.948334 10.552338 -34.024094

v -122.957619 42.242531 -35.807938

v -197.390961 4.592748 -34.579750

v -134.599854 42.232574 -33.729248

v -194.790833 1.447525 -36.143051

v -182.070923 3.953377 -36.088852

v -186.405426 5.435211 -34.403587

v -101.995117 43.086563 -35.829269

v -106.194992 36.434532 -35.786331

v -176.779358 4.602020 -35.838779

v -170.034393 5.131264 -35.742531

v -119.557785 36.633057 -32.775330

v -151.920792 13.054970 -33.646683

v -159.926956 2.375946 -35.644863

v -127.234467 19.790524 -32.957771

v -88.350098 39.130829 -35.771736

v -94.161530 23.669460 -35.794109

v -107.694778 34.278381 -34.153595

v -102.009430 26.830612 -33.416107

v -119.853149 9.834015 -35.530891

v -116.405556 5.285263 -35.227051

v -104.769661 6.475334 -34.942249

v -90.078552 14.570648 -35.435570

v -98.869530 7.761711 -34.281006

v -93.541916 9.822159 -34.023834

v -162.320801 37.067226 -32.840935

v -157.316666 39.640347 -33.638714

v -149.625717 41.606003 -33.588867

v -143.102203 42.034279 -33.013535

v -189.600815 10.196800 -32.381470

v -128.936096 39.057266 -31.530716

v -176.537888 6.435272 -32.603928

v -168.742188 6.956566 -32.238716

v -160.709595 4.172255 -31.955324

v -112.703125 32.678879 -33.377167

v -154.298492 7.919636 -32.810768

v -107.962021 29.823357 -33.461414

v -156.811050 4.291306 -33.291290

v -97.038513 22.387039 -31.834930

v -116.560745 6.192221 -31.658939

v -94.363678 18.067097 -29.637035

v -109.794502 7.053209 -31.364798

v -157.956696 38.941345 -29.931305

v -175.074219 25.557739 -30.412842

v -151.430145 40.234612 -30.145309

v -136.237473 38.885406 -29.712404

v -182.604004 13.543451 -32.147728

v -129.643372 37.746525 -29.702995

v -173.087692 9.087716 -32.002853

v -176.197998 13.524628 -30.202400

v -151.624481 14.253654 -27.912735

v -112.668564 31.341785 -29.297302

v -153.776077 9.593567 -26.694580

v -121.379456 15.817495 -28.004089

v -104.267464 25.339306 -30.180031

v -117.771660 7.405708 -29.170120

v -103.392639 7.054142 -30.505234

v -97.480042 9.004111 -31.048851

v -90.441368 11.263771 -29.338379

v -167.013107 34.339386 -29.003296

v -172.321198 26.361046 -25.991272

v -145.461792 41.175407 -29.264622

v -172.347473 10.678650 -28.982452

v -165.340088 8.761639 -26.639233

v -119.183113 34.906464 -28.975842

v -128.826889 20.237247 -27.196144

v -134.723114 20.186705 -25.923508

v -100.779655 24.173161 -28.468353

v -115.006500 3.124272 -29.230282

v -108.996162 3.546813 -28.763493

v -96.652977 7.415115 -29.121738

v -171.066742 30.991501 -22.148468

v -152.406723 42.535034 -27.361069

v -145.112213 43.200504 -27.351482

v -171.564697 21.084106 -26.250854

v -171.598831 17.488525 -26.662155

v -134.412247 40.813580 -27.506783

v -124.358551 38.661869 -27.448116

v -114.989258 37.067795 -27.588703

v -111.513672 32.254227 -28.347839

v -142.465225 19.504364 -26.995270

v -156.865189 8.007187 -26.512171

v -107.858841 35.617889 -26.582949

v -104.886322 32.688534 -27.901114

v -98.564041 28.378784 -27.904297

v -90.284744 18.934940 -28.004221

v -115.710770 7.347433 -27.165039

v -88.070084 16.724358 -27.587452

v -101.151260 5.332760 -26.833700

v -88.209923 11.422760 -26.933945

v -94.604256 7.384681 -26.970499

v -168.703476 36.520641 -24.897491

v -159.886734 41.240005 -25.176743

v -154.943802 41.167313 -24.490234

v -149.502808 42.408783 -25.102007

v -144.277725 41.959404 -24.751091

v -134.341934 39.543640 -24.853197

v -161.275085 13.767490 -25.978401

v -124.777596 37.577866 -25.038212

v -114.658081 36.575829 -25.035479

v -149.160110 13.876928 -23.751373

v -154.995300 11.124847 -22.916954

v -101.318466 31.568546 -24.959518

v -96.056541 28.953188 -24.179441

v -91.359459 26.846081 -24.113901

v -87.222237 20.176231 -23.837158

v -113.924088 4.012858 -23.521019

v -104.692482 2.110901 -25.702766

v -110.952492 2.013582 -22.818501

v -87.360695 13.238852 -21.552216

v -95.952972 2.450331 -25.729134

v -88.805885 7.468910 -25.206097

v -158.620239 39.701714 -21.358356

v -168.361984 36.007889 -21.472961

v -146.923569 38.128044 -23.122559

v -137.982208 35.967670 -24.034622

v -169.133392 22.499847 -22.994202

v -129.155838 34.790665 -23.112633

v -159.657394 14.916077 -22.968624

v -119.302330 34.983932 -23.550453

v -141.586716 18.341473 -22.878723

v -107.690918 32.015831 -22.602032

v -134.489136 22.911919 -21.531830

v -124.796730 20.896954 -22.701416

v -101.594421 27.481720 -18.722198

v -117.543091 13.474983 -23.335541

v -108.996918 1.090771 -21.407581

v -100.589500 0.076982 -21.099815

v -89.209732 5.232975 -21.039064

v -94.035606 1.094240 -21.423195

v -171.262329 26.907757 -21.278778

v -163.407700 20.568207 -22.081123

v -142.578400 35.458637 -19.050224

v -151.020874 15.082825 -22.308613

v -123.433525 34.272461 -17.459114

v -117.552719 33.683598 -15.637049

v -147.898392 16.066738 -21.128197

v -127.781647 24.810043 -19.841740

v -117.947388 20.585938 -20.181396

v -98.354385 26.694654 -20.498901

v -90.373978 22.757133 -20.673340

v -112.389069 11.010071 -21.142395

v -108.066292 2.061229 -20.627125

v -166.602127 31.187979 -18.785885

v -148.848587 36.064995 -18.740063

v -163.215027 22.983265 -18.871716

v -135.831451 33.879963 -15.812248

v -128.864960 34.867714 -19.681679

v -153.554169 18.977228 -18.812695

v -134.245621 22.569996 -16.599213

v -100.310272 20.131210 -18.704544

v -107.733551 10.069222 -20.290031

v -97.920097 19.163404 -20.419926

v -105.309814 11.347855 -18.653255

v -102.923477 9.678566 -20.458609

v -89.029709 12.931252 -20.453327

v -97.344963 1.526436 -20.555252

v -151.731537 29.074871 -18.618248

v -151.244690 18.411591 -17.425674

v -146.684357 19.050781 -15.592083

v -141.587555 18.377037 -16.097836

v -129.939529 25.141685 -15.166977

v -123.039742 25.398186 -16.056377

v -109.007446 31.483444 -15.654354

v -116.050812 22.202343 -14.925650

v -105.971619 28.548187 -16.350830

v -111.168800 17.217403 -18.557129

v -105.739136 25.068909 -16.426620

v -105.596207 18.874039 -18.327286

v -148.395020 29.237801 -14.866385

v -142.104324 32.373352 -14.900036

v -127.629181 32.500401 -14.912485

v -107.902634 28.527468 -14.645132

v -136.912689 32.422440 -14.810636

v -138.630859 22.248558 -14.827900

v -122.633438 27.521763 -14.774794

v -120.297043 31.933281 -14.747458

f 1 2 3
f 3 2 4
f 1 5 6
f 2 1 6
f 7 2 6
f 6 8 7
f 9 10 2
f 7 9 2
f 7 8 11
f 11 9 7
f 5 1 12
f 13 14 3
f 3 14 1
f 3 4 13
f 5 8 6
f 5 15 16
f 5 16 8
f 4 2 10
f 17 8 16
f 8 17 11
f 18 11 17
f 10 9 19
f 11 19 9
f 20 18 17
f 21 22 10
f 19 21 10
f 18 23 11
f 19 11 23
f 23 21 19
f 21 24 22
f 20 23 18
f 23 25 21
f 12 26 15
f 27 12 14
f 13 27 14
f 14 12 1
f 15 5 12
f 15 26 28
f 28 16 15
f 10 29 4
f 30 17 28
f 16 28 17
f 29 10 22
f 22 31 29
f 32 30 28
f 22 24 31
f 30 20 17
f 30 33 20
f 23 20 33
f 24 21 34
f 35 34 21
f 25 35 21
f 33 36 23
f 25 23 36
f 37 36 33
f 35 25 38
f 25 36 38
f 39 40 41
f 42 26 39
f 40 39 12
f 40 27 43
f 27 40 12
f 12 39 26
f 43 27 13
f 26 42 44
f 45 13 4
f 44 46 32
f 32 26 44
f 28 26 32
f 32 46 47
f 48 31 24
f 30 32 47
f 49 30 47
f 24 50 48
f 49 51 30
f 33 30 51
f 24 34 52
f 50 24 52
f 37 33 51
f 34 35 53
f 53 52 34
f 54 53 35
f 54 35 38
f 37 55 36
f 38 36 55
f 55 54 38
f 56 57 58
f 59 57 56
f 56 58 42
f 59 56 41
f 42 39 56
f 56 39 41
f 41 40 60
f 42 58 44
f 60 40 43
f 45 43 13
f 44 61 46
f 61 62 46
f 29 63 4
f 47 46 62
f 29 31 64
f 65 47 62
f 49 47 65
f 66 49 65
f 67 50 52
f 51 49 66
f 50 67 68
f 66 69 51
f 52 53 67
f 69 70 51
f 37 51 70
f 71 53 54
f 54 55 71
f 67 53 71
f 55 37 72
f 55 72 71
f 72 73 71
f 67 71 73
f 67 73 74
f 58 75 76
f 57 75 58
f 57 59 75
f 77 78 58
f 79 41 60
f 58 78 61
f 44 58 61
f 80 60 43
f 61 78 81
f 80 43 45
f 82 81 78
f 45 4 63
f 61 81 62
f 81 83 84
f 29 64 63
f 84 62 81
f 62 84 85
f 85 86 62
f 31 87 64
f 86 65 62
f 87 31 48
f 48 88 87
f 88 48 50
f 68 88 50
f 37 70 89
f 90 72 37
f 90 37 89
f 74 68 67
f 91 68 74
f 72 90 92
f 93 68 91
f 94 73 72
f 74 73 91
f 92 94 72
f 73 94 95
f 73 95 91
f 94 92 96
f 96 97 94
f 95 94 98
f 97 98 94
f 76 99 100
f 99 76 75
f 100 58 76
f 75 101 99
f 101 75 59
f 59 102 101
f 77 58 100
f 59 41 102
f 103 78 77
f 79 102 41
f 104 79 60
f 82 78 103
f 80 104 60
f 45 105 80
f 63 105 45
f 83 81 82
f 64 106 63
f 106 64 107
f 83 108 84
f 64 87 107
f 87 109 107
f 84 108 85
f 108 86 85
f 110 65 86
f 109 87 88
f 66 65 111
f 88 112 109
f 111 69 66
f 69 111 70
f 112 88 68
f 112 68 93
f 93 113 112
f 114 115 90
f 92 90 115
f 115 96 92
f 91 113 93
f 91 116 113
f 98 97 117
f 95 98 118
f 119 95 118
f 91 95 119
f 119 116 91
f 120 121 122
f 122 123 120
f 124 123 122
f 122 125 124
f 120 123 126
f 123 101 126
f 101 127 126
f 100 124 125
f 124 101 123
f 125 128 77
f 100 99 124
f 100 125 77
f 99 101 124
f 128 129 77
f 102 127 101
f 127 130 131
f 132 133 134
f 133 131 130
f 130 127 102
f 130 104 133
f 132 134 135
f 136 132 135
f 77 129 103
f 104 134 133
f 79 130 102
f 79 104 130
f 137 134 104
f 103 129 138
f 135 134 139
f 137 104 80
f 139 134 105
f 138 140 141
f 134 137 105
f 138 82 103
f 80 105 137
f 142 82 138
f 139 105 63
f 142 83 82
f 141 142 138
f 63 106 139
f 143 142 141
f 83 142 144
f 144 108 83
f 108 110 86
f 107 109 145
f 110 111 65
f 110 146 147
f 112 145 109
f 111 110 147
f 112 148 145
f 147 70 111
f 114 89 147
f 113 148 112
f 70 147 89
f 149 148 113
f 114 90 89
f 113 150 149
f 96 115 97
f 116 151 113
f 150 113 151
f 118 98 117
f 119 152 116
f 118 152 119
f 153 122 121
f 120 154 121
f 122 153 155
f 155 125 122
f 128 125 155
f 120 126 154
f 156 128 157
f 127 131 158
f 131 159 158
f 159 131 133
f 128 156 160
f 133 161 159
f 161 133 132
f 160 129 128
f 132 162 161
f 132 136 162
f 136 163 162
f 136 135 163
f 129 160 140
f 164 165 160
f 166 163 135
f 166 135 167
f 168 140 160
f 129 140 138
f 135 139 167
f 140 168 141
f 168 160 165
f 165 169 168
f 167 139 170
f 170 139 106
f 169 165 171
f 168 143 141
f 172 169 171
f 169 173 168
f 173 143 168
f 143 144 142
f 106 107 170
f 144 174 108
f 108 175 110
f 145 176 177
f 177 107 145
f 110 175 146
f 176 145 148
f 114 147 178
f 179 180 114
f 115 114 180
f 97 115 181
f 151 182 150
f 151 183 182
f 184 118 117
f 151 116 152
f 121 154 153
f 155 157 128
f 156 157 185
f 185 186 156
f 127 187 126
f 156 186 188
f 188 164 156
f 160 156 164
f 161 189 159
f 161 162 189
f 188 190 164
f 165 164 190
f 167 191 166
f 165 192 193
f 193 171 165
f 193 172 171
f 191 167 170
f 169 172 194
f 194 195 169
f 173 169 195
f 195 196 173
f 143 173 196
f 144 143 196
f 177 170 107
f 196 174 144
f 174 197 108
f 175 108 197
f 146 198 147
f 148 199 176
f 199 148 149
f 200 149 150
f 180 181 115
f 201 150 182
f 182 202 201
f 117 97 181
f 202 182 183
f 181 203 117
f 183 204 202
f 151 204 183
f 117 203 184
f 204 151 205
f 206 205 151
f 151 152 206
f 184 207 118
f 152 118 207
f 207 208 152
f 208 206 152
f 209 155 153
f 154 209 153
f 157 155 209
f 126 187 154
f 210 186 185
f 127 158 187
f 211 158 159
f 211 159 189
f 189 162 211
f 211 162 212
f 192 165 190
f 212 162 163
f 212 163 166
f 166 191 212
f 213 214 193
f 172 193 214
f 191 170 215
f 194 172 214
f 170 216 215
f 177 216 170
f 196 195 217
f 174 196 217
f 217 218 174
f 219 216 177
f 218 197 174
f 175 197 220
f 219 177 176
f 176 221 219
f 175 220 146
f 220 198 146
f 176 199 221
f 178 147 198
f 178 179 114
f 199 149 200
f 150 201 200
f 180 222 181
f 203 181 222
f 202 204 223
f 184 203 224
f 205 223 204
f 208 207 225
f 226 157 209
f 209 227 226
f 154 227 209
f 157 226 228
f 228 185 157
f 227 154 187
f 185 228 229
f 185 229 210
f 227 187 230
f 187 231 230
f 210 188 186
f 231 187 158
f 190 188 232
f 231 158 233
f 190 232 192
f 232 234 192
f 211 233 158
f 211 235 233
f 235 211 212
f 213 192 234
f 192 213 193
f 212 191 235
f 191 215 236
f 214 213 237
f 238 215 216
f 217 195 239
f 218 217 240
f 197 218 241
f 242 197 241
f 242 220 197
f 242 243 220
f 221 199 244
f 220 243 245
f 220 245 198
f 198 245 246
f 198 246 178
f 246 179 178
f 200 201 247
f 201 202 248
f 222 224 203
f 202 223 248
f 249 250 223
f 225 251 208
f 205 249 223
f 206 208 252
f 252 205 206
f 226 253 228
f 226 227 253
f 229 228 253
f 227 254 253
f 227 230 254
f 210 255 188
f 256 254 230
f 255 232 188
f 256 230 257
f 230 231 257
f 231 258 257
f 231 259 258
f 259 231 233
f 260 213 234
f 233 261 259
f 233 262 261
f 260 263 213
f 262 233 235
f 264 262 235
f 235 191 264
f 191 236 264
f 237 213 263
f 238 236 215
f 237 265 214
f 194 214 265
f 265 239 194
f 195 194 239
f 239 240 217
f 240 266 218
f 241 218 266
f 267 242 241
f 268 245 243
f 244 199 200
f 246 245 269
f 270 179 246
f 270 271 179
f 271 180 179
f 180 271 222
f 248 247 201
f 223 250 248
f 207 184 224
f 225 207 224
f 252 208 251
f 252 272 205
f 249 205 272
f 253 254 273
f 255 210 274
f 254 256 275
f 232 255 276
f 234 232 276
f 256 277 275
f 278 234 276
f 278 260 234
f 257 279 256
f 279 257 258
f 258 280 279
f 258 259 280
f 281 280 259
f 263 282 283
f 263 283 284
f 216 285 238
f 237 263 284
f 286 287 283
f 265 237 284
f 265 288 239
f 288 265 289
f 287 284 283
f 265 284 289
f 240 239 288
f 216 219 290
f 287 291 284
f 292 291 287
f 290 219 221
f 267 241 293
f 267 243 242
f 268 269 245
f 244 200 294
f 200 295 294
f 295 200 247
f 296 295 247
f 297 295 296
f 297 298 295
f 296 247 248
f 299 296 248
f 248 250 299
f 296 272 297
f 272 296 299
f 300 297 301
f 225 224 302
f 301 297 272
f 249 299 250
f 301 252 251
f 299 249 272
f 252 301 272
f 303 210 229
f 253 303 229
f 254 275 273
f 255 274 276
f 279 277 256
f 278 304 260
f 260 304 282
f 260 282 263
f 281 259 261
f 262 305 261
f 262 306 305
f 262 264 306
f 307 306 264
f 282 308 283
f 264 236 307
f 238 309 236
f 310 283 308
f 283 310 286
f 287 286 311
f 288 289 312
f 288 313 240
f 216 290 285
f 284 314 289
f 314 315 289
f 266 293 241
f 284 291 314
f 314 291 316
f 221 317 290
f 291 292 318
f 319 318 292
f 320 319 292
f 316 291 318
f 243 267 321
f 317 221 244
f 321 268 243
f 244 294 317
f 298 297 300
f 224 222 322
f 225 300 251
f 301 251 300
f 303 323 274
f 274 210 303
f 303 253 324
f 273 324 253
f 274 323 276
f 323 325 276
f 276 325 278
f 326 278 325
f 304 278 326
f 304 327 282
f 308 282 327
f 305 281 261
f 307 236 309
f 328 309 238
f 238 285 328
f 310 311 286
f 312 313 288
f 287 311 329
f 266 240 313
f 329 292 287
f 292 329 320
f 316 330 314
f 331 332 319
f 318 319 332
f 316 318 332
f 333 316 332
f 330 316 333
f 332 334 333
f 333 334 335
f 317 294 336
f 246 269 337
f 294 298 336
f 270 246 337
f 336 298 338
f 295 298 294
f 338 298 339
f 271 270 340
f 339 298 300
f 340 322 271
f 222 271 322
f 339 300 225
f 224 322 341
f 339 225 302
f 341 302 224
f 303 342 323
f 343 325 323
f 325 343 344
f 273 345 324
f 345 273 275
f 326 325 344
f 345 275 346
f 304 347 348
f 347 304 326
f 277 346 275
f 277 279 349
f 350 327 304
f 351 280 281
f 327 350 308
f 352 281 305
f 305 353 352
f 305 306 353
f 354 353 306
f 306 355 354
f 355 306 307
f 356 310 308
f 285 357 328
f 357 285 290
f 315 312 289
f 266 313 358
f 359 293 266
f 360 361 293
f 267 293 361
f 361 321 267
f 330 362 314
f 317 363 290
f 321 361 364
f 320 331 319
f 364 268 321
f 331 365 332
f 269 268 364
f 363 317 336
f 334 332 365
f 330 333 335
f 362 330 335
f 366 269 364
f 367 269 366
f 337 269 367
f 338 368 363
f 368 338 369
f 363 336 338
f 270 337 370
f 369 338 339
f 270 370 340
f 371 372 369
f 373 322 340
f 371 369 339
f 302 341 371
f 339 302 371
f 323 342 343
f 342 303 324
f 374 326 344
f 326 374 347
f 277 349 346
f 348 350 304
f 279 375 349
f 376 375 279
f 279 280 376
f 376 280 351
f 352 351 281
f 307 377 355
f 308 350 378
f 307 309 377
f 377 309 379
f 378 356 308
f 380 310 356
f 311 310 380
f 380 381 311
f 382 313 312
f 329 311 381
f 358 359 266
f 357 290 383
f 359 360 293
f 384 383 290
f 315 314 362
f 320 329 381
f 363 384 290
f 364 361 385
f 384 386 387
f 385 388 364
f 388 366 364
f 363 368 384
f 389 387 386
f 365 331 390
f 391 335 334
f 384 368 386
f 334 365 391
f 386 368 389
f 337 367 370
f 392 393 370
f 389 368 372
f 340 370 393
f 372 394 389
f 340 393 373
f 394 373 393
f 368 369 372
f 373 394 372
f 372 341 373
f 322 373 341
f 371 341 372
f 395 396 397
f 396 398 397
f 399 396 400
f 401 398 396
f 401 343 398
f 398 342 397
f 343 342 398
f 342 402 397
f 399 401 396
f 342 324 402
f 401 399 374
f 403 402 324
f 401 374 344
f 343 401 344
f 347 374 399
f 345 403 324
f 347 399 348
f 399 404 405
f 405 348 399
f 348 405 350
f 349 406 346
f 349 375 406
f 375 376 407
f 408 376 351
f 405 409 378
f 350 405 378
f 351 352 408
f 353 410 352
f 410 353 354
f 378 409 356
f 411 379 309
f 328 411 309
f 328 412 411
f 412 328 357
f 357 413 412
f 414 382 312
f 358 313 415
f 416 358 415
f 414 312 315
f 413 357 383
f 315 417 414
f 358 416 359
f 417 362 418
f 362 417 315
f 360 359 419
f 383 420 413
f 420 383 384
f 361 360 419
f 361 419 385
f 381 421 320
f 331 320 421
f 384 422 420
f 422 384 387
f 421 390 331
f 335 418 362
f 418 335 391
f 423 422 389
f 422 387 389
f 424 370 425
f 389 394 423
f 365 390 391
f 425 367 366
f 425 370 367
f 426 423 393
f 394 393 423
f 424 392 370
f 393 392 426
f 427 428 400
f 400 396 427
f 395 427 396
f 400 428 429
f 395 397 430
f 400 429 404
f 429 431 404
f 404 399 400
f 432 402 403
f 433 404 431
f 434 403 345
f 433 405 404
f 434 345 435
f 345 346 435
f 346 436 435
f 406 436 346
f 405 433 409
f 407 406 375
f 407 376 437
f 438 376 408
f 437 376 438
f 352 410 408
f 439 355 377
f 355 439 354
f 409 380 356
f 412 440 411
f 414 441 442
f 382 442 443
f 414 442 382
f 443 415 382
f 313 382 415
f 413 444 412
f 441 414 417
f 380 445 381
f 419 359 416
f 444 413 446
f 420 446 413
f 381 445 421
f 385 419 447
f 420 448 446
f 385 447 388
f 420 422 448
f 366 388 425
f 390 421 449
f 391 450 418
f 391 449 450
f 451 448 422
f 449 391 390
f 424 425 452
f 453 454 424
f 392 424 454
f 423 455 422
f 451 422 455
f 454 426 392
f 426 456 423
f 423 456 457
f 455 423 457
f 395 458 427
f 459 429 428
f 429 459 460
f 429 460 431
f 402 461 397
f 460 462 431
f 432 461 402
f 462 433 431
f 403 434 463
f 462 464 433
f 464 465 433
f 465 409 433
f 409 465 466
f 467 438 408
f 408 468 467
f 468 408 410
f 354 439 410
f 377 379 439
f 409 466 469
f 469 380 409
f 443 442 470
f 470 471 443
f 470 442 441
f 415 443 471
f 471 472 415
f 441 473 470
f 416 415 472
f 440 412 444
f 474 440 444
f 473 441 417
f 417 475 473
f 476 477 416
f 419 416 477
f 477 478 419
f 447 419 478
f 479 421 445
f 474 444 446
f 478 480 447
f 388 447 480
f 450 449 421
f 480 481 388
f 425 388 481
f 448 482 446
f 452 425 481
f 452 453 424
f 454 483 426
f 456 426 484
f 485 459 428
f 428 427 485
f 458 485 427
f 460 459 486
f 458 395 430
f 486 487 460
f 397 461 430
f 460 487 462
f 488 462 487
f 462 488 464
f 403 463 432
f 435 463 434
f 464 488 465
f 489 436 406
f 406 407 490
f 407 437 490
f 437 438 491
f 438 492 491
f 492 438 467
f 468 492 467
f 468 410 493
f 410 439 493
f 494 439 379
f 379 411 494
f 495 494 411
f 380 469 496
f 497 471 470
f 495 411 440
f 496 445 380
f 497 470 473
f 498 445 496
f 474 495 440
f 498 479 445
f 478 477 499
f 475 417 418
f 499 500 478
f 501 475 418
f 446 482 474
f 479 502 421
f 450 421 502
f 500 480 478
f 502 501 450
f 418 450 501
f 480 503 481
f 504 481 503
f 452 481 504
f 504 453 452
f 505 482 448
f 448 451 505
f 451 506 505
f 506 451 455
f 506 455 457
f 484 426 483
f 457 484 506
f 456 484 457
f 486 459 507
f 459 508 507
f 508 485 458
f 509 486 507
f 459 485 508
f 487 486 509
f 461 510 430
f 511 510 461
f 512 488 487
f 487 509 512
f 461 513 511
f 513 461 432
f 432 463 513
f 463 435 514
f 515 488 512
f 436 489 435
f 465 488 515
f 466 465 515
f 437 516 490
f 515 517 466
f 516 437 491
f 518 492 468
f 518 468 493
f 517 469 466
f 439 494 519
f 494 520 519
f 495 520 494
f 520 495 521
f 522 523 497
f 471 497 523
f 472 471 523
f 523 524 472
f 416 472 524
f 495 525 521
f 498 496 526
f 527 497 473
f 524 476 416
f 495 474 525
f 475 527 473
f 482 525 474
f 479 498 528
f 525 505 529
f 525 482 505
f 477 530 499
f 503 480 531
f 532 531 480
f 480 500 532
f 529 505 533
f 503 534 504
f 534 535 504
f 536 533 537
f 453 504 535
f 453 535 538
f 506 533 505
f 506 537 533
f 453 538 454
f 483 539 537
f 454 538 540
f 537 506 484
f 540 483 454
f 483 540 539
f 537 484 483
f 541 508 458
f 542 507 508
f 541 458 430
f 542 509 507
f 509 542 543
f 430 510 541
f 509 543 512
f 544 543 542
f 545 543 544
f 513 463 546
f 514 546 463
f 512 543 515
f 545 547 543
f 547 515 543
f 548 406 490
f 547 517 515
f 547 545 517
f 491 492 516
f 493 549 518
f 493 519 549
f 519 493 439
f 517 550 469
f 469 550 496
f 526 496 550
f 551 524 523
f 552 497 527
f 530 476 524
f 498 526 528
f 476 530 477
f 521 525 529
f 529 553 521
f 502 479 528
f 528 554 502
f 499 530 500
f 501 502 554
f 554 555 501
f 556 557 475
f 555 556 501
f 475 501 556
f 529 558 553
f 531 534 503
f 558 529 533
f 559 560 536
f 533 536 560
f 560 558 533
f 559 536 537
f 537 539 559
f 540 559 539
f 508 541 561
f 562 510 511
f 513 563 511
f 546 563 513
f 564 545 544
f 435 489 514
f 545 564 565
f 548 489 406
f 516 548 490
f 566 517 545
f 492 567 516
f 567 492 518
f 549 519 568
f 550 517 566
f 566 569 550
f 551 523 522
f 497 552 522
f 526 550 569
f 530 524 570
f 528 526 569
f 569 571 528
f 527 572 552
f 527 475 572
f 571 554 528
f 530 573 500
f 553 574 521
f 555 554 575
f 573 532 500
f 531 532 576
f 577 574 553
f 576 534 531
f 558 577 553
f 535 578 538
f 559 540 578
f 577 579 574
f 580 574 579
f 540 538 578
f 581 561 541
f 581 541 510
f 582 508 561
f 582 542 508
f 562 581 510
f 583 542 582
f 542 583 544
f 584 562 511
f 544 583 564
f 511 563 584
f 489 585 514
f 548 585 489
f 548 586 585
f 565 566 545
f 586 548 516
f 567 586 516
f 518 587 567
f 518 588 587
f 588 518 549
f 568 588 549
f 589 568 519
f 590 589 519
f 569 566 591
f 520 590 519
f 592 593 551
f 592 551 522
f 524 551 593
f 570 524 593
f 571 569 591
f 521 574 594
f 554 571 595
f 475 596 572
f 595 575 554
f 596 475 557
f 597 598 559
f 575 599 555
f 600 557 556
f 535 601 597
f 574 580 602
f 556 555 599
f 599 600 556
f 597 578 535
f 578 597 559
f 535 534 603
f 532 573 604
f 604 576 532
f 603 534 605
f 559 598 560
f 534 576 605
f 604 605 576
f 606 577 558
f 607 602 580
f 606 608 577
f 580 579 607
f 608 609 577
f 579 577 609
f 607 579 609
f 610 582 561
f 611 561 581
f 581 562 611
f 610 583 582
f 561 611 610
f 562 612 611
f 612 562 584
f 584 563 612
f 613 564 583
f 564 613 565
f 586 614 585
f 565 615 566
f 616 614 586
f 567 616 586
f 587 617 567
f 567 618 616
f 617 587 588
f 588 619 617
f 588 568 619
f 618 567 617
f 617 619 620
f 617 620 618
f 568 589 619
f 566 615 621
f 621 591 566
f 520 622 590
f 623 592 522
f 522 552 623
f 593 624 570
f 591 595 571
f 521 622 520
f 594 622 521
f 595 591 625
f 625 591 621
f 626 625 621
f 627 530 570
f 530 627 573
f 595 625 575
f 627 628 573
f 601 629 597
f 629 630 597
f 598 597 630
f 602 594 574
f 603 601 535
f 598 630 560
f 631 625 626
f 560 632 558
f 599 575 633
f 573 634 604
f 635 600 599
f 575 625 636
f 637 638 605
f 633 635 599
f 608 606 639
f 608 639 609
f 607 609 639
f 634 640 604
f 605 604 640
f 633 575 636
f 631 636 625
f 635 633 641
f 642 636 631
f 643 644 636
f 642 631 645
f 642 643 636
f 642 645 646
f 643 642 647
f 642 646 647
f 610 611 648
f 612 563 649
f 546 649 563
f 649 546 650
f 514 650 546
f 651 565 613
f 514 652 650
f 585 652 514
f 565 651 653
f 614 654 585
f 653 615 565
f 616 655 614
f 653 621 615
f 655 616 618
f 656 657 589
f 658 620 619
f 619 657 658
f 657 619 589
f 618 620 659
f 659 620 658
f 593 592 623
f 623 660 593
f 661 621 662
f 593 663 624
f 622 664 665
f 666 623 552
f 622 594 664
f 624 663 570
f 661 626 621
f 552 667 666
f 663 627 570
f 667 552 572
f 667 572 596
f 668 594 602
f 602 669 668
f 629 601 670
f 661 671 626
f 603 670 601
f 630 632 560
f 671 672 626
f 672 631 626
f 628 634 573
f 632 673 558
f 606 558 673
f 600 674 557
f 673 675 606
f 639 606 675
f 672 676 631
f 600 635 674
f 675 669 639
f 669 602 607
f 607 639 669
f 637 605 640
f 640 634 677
f 674 635 641
f 633 678 641
f 678 633 679
f 631 676 680
f 680 645 631
f 636 679 633
f 679 636 644
f 646 645 680
f 680 681 646
f 643 647 682
f 681 683 646
f 647 646 683
f 684 583 610
f 610 685 684
f 685 610 648
f 583 684 686
f 613 583 686
f 651 613 686
f 654 652 585
f 655 654 614
f 618 687 655
f 656 589 688
f 688 589 590
f 665 688 590
f 622 665 590
f 662 621 653
f 687 618 659
f 660 663 593
f 661 662 671
f 664 594 689
f 690 691 692
f 692 668 690
f 594 668 689
f 691 690 630
f 690 668 632
f 596 557 667
f 691 630 629
f 690 632 630
f 673 632 668
f 673 668 675
f 675 668 669
f 670 603 638
f 693 634 628
f 603 605 638
f 694 676 672
f 677 634 693
f 677 693 695
f 694 696 697
f 637 640 698
f 699 674 641
f 695 698 677
f 640 677 698
f 694 697 676
f 641 678 699
f 697 700 676
f 701 679 644
f 700 680 676
f 644 643 682
f 680 700 702
f 702 681 680
f 682 647 683
f 703 648 611
f 704 611 612
f 704 612 649
f 705 649 650
f 686 706 651
f 705 650 652
f 652 707 705
f 708 651 706
f 651 708 653
f 709 707 652
f 652 654 709
f 653 708 710
f 654 655 711
f 711 655 687
f 711 687 712
f 688 665 656
f 687 659 712
f 713 712 659
f 659 658 713
f 653 710 662
f 714 713 658
f 658 657 714
f 665 664 656
f 710 715 662
f 656 692 657
f 716 714 657
f 692 656 664
f 666 717 623
f 691 716 657
f 691 657 692
f 664 689 692
f 715 671 662
f 718 716 719
f 717 666 667
f 668 692 689
f 720 671 715
f 719 716 721
f 667 557 722
f 627 723 628
f 716 629 721
f 629 716 691
f 719 721 724
f 670 721 629
f 721 670 638
f 672 671 720
f 638 724 721
f 557 674 725
f 726 724 727
f 728 694 672
f 724 638 727
f 726 727 729
f 637 727 638
f 699 725 674
f 725 699 730
f 727 698 729
f 731 696 694
f 695 693 729
f 729 698 695
f 727 637 698
f 696 731 732
f 730 699 678
f 732 697 696
f 679 730 678
f 697 732 733
f 733 700 697
f 700 733 734
f 700 734 702
f 644 682 701
f 681 702 734
f 648 735 685
f 735 648 703
f 611 704 703
f 649 736 704
f 686 684 706
f 649 737 736
f 649 705 737
f 737 705 707
f 738 707 709
f 711 738 709
f 711 709 654
f 711 739 738
f 711 712 739
f 740 710 708
f 712 713 739
f 710 740 741
f 713 714 742
f 714 716 743
f 741 715 710
f 663 660 744
f 716 718 743
f 663 745 627
f 723 627 745
f 746 718 719
f 722 717 667
f 719 724 747
f 747 746 719
f 741 720 715
f 724 748 747
f 628 723 749
f 748 724 726
f 750 748 726
f 693 628 749
f 672 720 728
f 749 751 693
f 752 726 729
f 725 753 754
f 751 729 693
f 753 725 730
f 731 733 732
f 679 755 730
f 755 679 756
f 701 756 679
f 682 757 701
f 734 758 681
f 683 681 758
f 682 683 759
f 760 703 761
f 762 685 763
f 760 763 735
f 685 735 763
f 735 703 760
f 762 764 685
f 764 684 685
f 703 704 761
f 765 761 704
f 736 765 704
f 737 707 766
f 767 708 706
f 738 768 707
f 769 768 738
f 739 769 738
f 770 708 767
f 771 739 772
f 770 740 708
f 713 772 739
f 773 771 772
f 773 772 774
f 774 772 713
f 742 774 713
f 743 775 742
f 714 743 742
f 623 776 660
f 741 740 777
f 623 717 778
f 743 746 775
f 743 718 746
f 744 745 663
f 745 779 723
f 750 747 748
f 741 777 720
f 780 722 557
f 781 749 723
f 780 557 725
f 728 720 777
f 781 751 749
f 754 780 725
f 726 752 750
f 752 729 751
f 694 728 731
f 753 730 755
f 731 782 733
f 734 733 782
f 782 783 734
f 757 756 701
f 734 783 758
f 682 784 757
f 683 758 759
f 759 784 682
f 785 763 760
f 760 786 785
f 763 785 762
f 786 760 761
f 787 786 761
f 765 787 761
f 788 765 736
f 736 737 788
f 764 706 684
f 766 788 737
f 707 768 766
f 764 767 706
f 769 739 789
f 790 789 739
f 790 739 771
f 791 790 771
f 791 771 773
f 773 792 791
f 793 770 767
f 774 792 773
f 794 774 775
f 742 775 774
f 740 770 777
f 795 775 796
f 746 796 775
f 776 797 660
f 797 744 660
f 798 778 717
f 747 799 796
f 800 745 744
f 747 796 746
f 717 722 798
f 781 801 799
f 750 799 747
f 750 781 799
f 802 777 803
f 781 723 779
f 752 781 750
f 802 728 777
f 781 752 751
f 728 802 804
f 805 780 754
f 804 731 728
f 754 806 805
f 753 806 754
f 804 807 731
f 782 731 807
f 808 806 753
f 756 809 755
f 753 755 808
f 810 806 808
f 809 808 755
f 783 782 807
f 807 811 783
f 757 809 756
f 809 757 812
f 808 809 812
f 758 783 811
f 758 811 813
f 812 757 814
f 784 814 757
f 758 813 759
f 784 759 813
f 815 785 786
f 765 816 787
f 762 817 764
f 817 762 785
f 786 818 815
f 765 819 816
f 765 788 819
f 820 817 785
f 820 785 815
f 820 815 821
f 788 766 822
f 817 823 764
f 766 824 822
f 824 766 768
f 768 825 824
f 820 823 817
f 768 769 825
f 769 826 825
f 823 767 764
f 823 820 827
f 826 769 789
f 789 828 826
f 828 789 790
f 820 829 827
f 830 828 790
f 823 793 767
f 823 827 793
f 790 791 794
f 790 794 830
f 791 792 794
f 831 832 830
f 830 794 795
f 792 774 794
f 831 830 795
f 833 770 793
f 775 795 794
f 827 834 793
f 795 835 831
f 835 795 801
f 801 836 835
f 796 799 801
f 801 795 796
f 834 827 837
f 797 838 744
f 770 833 777
f 834 833 793
f 800 744 838
f 777 833 803
f 839 836 801
f 779 745 800
f 781 839 801
f 798 722 780
f 780 840 798
f 841 803 833
f 803 841 802
f 779 839 781
f 841 833 834
f 780 805 840
f 834 842 841
f 804 802 841
f 843 844 834
f 842 834 844
f 804 841 842
f 845 805 806
f 807 804 842
f 845 806 810
f 807 842 811
f 842 813 811
f 810 846 845
f 810 808 847
f 848 813 842
f 784 813 848
f 847 808 849
f 848 814 784
f 849 808 812
f 814 850 812
f 850 849 812
f 818 786 787
f 818 787 816
f 851 818 816
f 821 815 818
f 816 819 851
f 818 851 852
f 818 852 853
f 788 822 819
f 818 853 821
f 853 854 821
f 821 829 820
f 829 821 854
f 832 855 826
f 828 832 826
f 856 827 829
f 830 832 828
f 855 832 857
f 856 837 827
f 857 831 835
f 831 857 832
f 857 835 836
f 836 858 857
f 836 859 858
f 843 834 837
f 778 776 623
f 859 836 839
f 860 843 837
f 800 838 861
f 800 861 779
f 860 862 843
f 798 840 778
f 861 863 779
f 863 859 839
f 839 779 863
f 862 844 843
f 844 864 842
f 845 846 865
f 864 866 842
f 848 842 866
f 865 810 867
f 810 865 846
f 867 810 847
f 848 850 814
f 852 851 868
f 869 819 822
f 870 853 852
f 852 868 870
f 822 824 869
f 826 855 825
f 871 829 854
f 855 872 825
f 873 829 871
f 829 873 856
f 874 875 872
f 857 872 855
f 857 874 872
f 874 857 858
f 776 876 797
f 876 838 797
f 837 877 860
f 861 838 878
f 863 861 859
f 805 879 840
f 880 844 862
f 879 805 845
f 864 844 880
f 881 845 865
f 882 867 847
f 847 849 882
f 883 882 849
f 849 850 883
f 850 848 884
f 884 883 850
f 885 868 851
f 885 851 819
f 886 819 869
f 887 853 870
f 887 854 853
f 869 824 875
f 872 824 825
f 854 887 871
f 824 872 875
f 874 888 875
f 873 837 856
f 874 889 888
f 889 874 858
f 837 873 890
f 889 858 859
f 890 877 837
f 878 859 861
f 778 840 891
f 891 892 778
f 877 862 860
f 862 877 880
f 879 845 881
f 893 864 880
f 893 866 864
f 881 865 894
f 894 865 867
f 866 884 848
f 882 895 867
f 894 867 895
f 896 882 883
f 884 896 883
f 897 885 819
f 898 870 868
f 897 819 886
f 899 870 898
f 870 899 887
f 875 900 869
f 887 899 871
f 875 901 900
f 902 871 899
f 871 902 873
f 903 873 902
f 890 873 903
f 904 890 903
f 890 904 905
f 876 776 906
f 776 778 906
f 859 907 889
f 905 877 890
f 906 778 892
f 876 878 838
f 908 909 904
f 878 907 859
f 905 904 909
f 840 879 891
f 905 909 893
f 905 880 877
f 909 910 893
f 880 905 893
f 910 911 893
f 893 911 866
f 912 879 881
f 912 881 894
f 913 884 911
f 911 884 866
f 895 882 914
f 915 884 913
f 914 882 896
f 916 914 896
f 896 884 915
f 915 916 896
f 868 917 918
f 917 868 885
f 898 918 919
f 918 898 868
f 917 885 897
f 919 920 898
f 899 898 920
f 899 920 921
f 869 900 886
f 902 899 921
f 902 921 922
f 923 900 901
f 903 902 922
f 903 922 924
f 907 923 901
f 875 888 901
f 901 889 907
f 889 901 888
f 904 903 924
f 925 904 924
f 926 876 906
f 904 925 908
f 907 878 927
f 908 928 909
f 928 910 909
f 929 910 928
f 910 929 930
f 910 930 911
f 911 930 931
f 913 911 931
f 932 894 895
f 933 934 895
f 915 913 935
f 914 933 895
f 936 933 914
f 916 915 937
f 937 936 916
f 916 936 914
f 918 938 919
f 897 939 917
f 940 920 919
f 920 941 921
f 920 940 941
f 886 900 942
f 900 923 942
f 921 941 922
f 924 922 941
f 941 943 924
f 944 942 923
f 924 943 945
f 924 945 925
f 944 923 927
f 927 923 907
f 946 926 906
f 892 946 906
f 878 876 926
f 926 927 878
f 925 947 908
f 947 925 945
f 948 892 891
f 908 947 928
f 879 949 891
f 947 950 928
f 879 951 949
f 951 879 912
f 932 951 912
f 912 894 932
f 895 934 932
f 913 931 935
f 934 933 952
f 933 936 953
f 936 937 954
f 953 936 955
f 939 918 917
f 938 918 939
f 897 886 956
f 938 940 919
f 886 942 956
f 956 942 957
f 941 940 958
f 944 957 942
f 959 957 944
f 960 945 943
f 944 927 959
f 945 960 961
f 959 927 926
f 946 962 926
f 959 926 962
f 892 948 946
f 945 961 947
f 948 891 963
f 949 963 891
f 949 951 964
f 950 965 928
f 928 965 929
f 930 929 965
f 930 965 966
f 967 964 951
f 931 930 966
f 951 932 967
f 967 932 934
f 966 935 931
f 952 968 934
f 952 933 953
f 935 937 915
f 937 935 954
f 954 955 936
f 969 938 939
f 939 897 969
f 970 938 969
f 969 897 956
f 970 940 938
f 970 958 940
f 956 957 971
f 943 941 972
f 943 972 973
f 971 957 974
f 959 974 957
f 960 943 973
f 974 959 962
f 948 963 975
f 964 963 949
f 950 976 965
f 977 964 967
f 978 965 976
f 967 968 977
f 966 965 978
f 979 980 978
f 978 981 966
f 968 967 934
f 977 980 979
f 966 981 935
f 981 978 980
f 980 977 968
f 980 982 981
f 982 980 968
f 953 982 968
f 968 952 953
f 981 954 935
f 954 981 982
f 955 954 982
f 955 982 953
f 956 971 969
f 983 970 969
f 970 983 958
f 983 969 971
f 972 941 958
f 983 971 974
f 984 983 974
f 984 974 962
f 985 984 962
f 962 946 985
f 948 986 946
f 975 986 948
f 987 975 963
f 963 988 987
f 989 947 961
f 988 963 964
f 964 990 988
f 947 991 950
f 964 992 990
f 992 964 977
f 950 993 994
f 950 994 976
f 994 979 976
f 992 977 979
f 994 992 979
f 976 979 978
f 995 958 983
f 958 995 996
f 996 972 958
f 983 984 995
f 972 997 973
f 973 997 960
f 946 986 985
f 989 991 947
f 991 993 950
f 998 993 991
f 994 993 990
f 994 990 992
f 996 999 972
f 999 996 1000
f 996 995 1000
f 972 999 997
f 995 984 985
f 999 1001 997
f 995 985 1000
f 987 1001 999
f 987 999 1000
f 1002 961 960
f 1002 960 997
f 986 1000 985
f 997 1001 1002
f 1000 975 987
f 1000 986 975
f 961 1002 998
f 988 1001 987
f 998 989 961
f 990 1002 1001
f 990 998 1002
f 990 1001 988
f 991 989 998
f 990 993 998
