v -74.896362 -82.197021 -101.158203

v -59.656368 -73.664856 -101.647888

v -58.234985 -75.959839 -103.308517

v -76.522278 -87.631729 -103.410782

v -43.363770 -71.998596 -103.258301

v -70.246574 -96.333130 -103.443283

v -79.595764 -94.115028 -101.110107

v -40.811569 -70.604309 -102.903915

v -41.762177 -79.426407 -103.013397

v -47.329010 -91.274902 -103.266464

v -54.227158 -92.018433 -103.122604

v -66.839958 -99.869568 -101.565109

v -62.520344 -122.496124 -103.444321

v -59.129635 -117.374207 -101.551338

v -49.560959 -123.528061 -103.421021

v -64.822205 -135.419678 -103.529121

v -68.702316 -129.223541 -103.016922

v -68.223198 -135.883804 -100.150116

v -49.683701 -137.214172 -103.409393

v -64.357338 -141.863235 -100.447487

v -60.205902 -148.645065 -103.488464

v -49.609879 -145.296173 -103.418266

v -51.245865 -151.862030 -103.380684

v -69.998993 -74.925659 -100.015839

v -56.831467 -65.934814 -99.475288

v -56.169189 -68.677673 -101.227325

v -40.917542 -67.095840 -99.611496

v -81.344727 -89.198151 -99.275269

v -82.694962 -105.424095 -101.529083

v -38.634109 -74.667908 -97.989395

v -42.274841 -87.096008 -101.577835

v -39.014587 -89.739059 -100.926910

v -47.573212 -94.776703 -101.353180

v -74.410461 -118.294388 -101.530045

v -51.644699 -102.150879 -101.432159

v -52.649612 -118.095734 -101.459717

v -45.825745 -113.856415 -97.553436

v -69.009636 -124.367401 -101.238434

v -47.002167 -122.281784 -98.595047

v -44.920166 -132.118851 -98.326874

v -61.160389 -146.906174 -99.573372

v -48.237274 -142.588654 -100.310730

v -57.179291 -153.090759 -101.496124

v -45.684814 -150.094238 -99.767120

v -50.122253 -158.704712 -101.016663

v -53.601936 -159.161469 -101.064453

v -56.063690 -54.381165 -97.121002

v -50.200951 -56.014648 -99.347336

v -65.518951 -66.708069 -99.358383

v -73.067810 -65.635437 -94.467102

v -40.808044 -57.457565 -99.156593

v -85.305626 -99.272339 -98.896828

v -83.523926 -105.227013 -98.311935

v -38.647041 -81.337265 -97.961166

v -78.360802 -113.753487 -98.042313

v -36.957085 -90.054932 -94.288391

v -39.081543 -95.012726 -97.405746

v -42.584717 -99.779404 -97.331940

v -72.672836 -120.202698 -98.150589

v -45.659851 -108.002182 -97.577148

v -65.907913 -132.048141 -95.268265

v -57.120956 -151.448593 -97.014709

v -43.928772 -160.588562 -97.773438

v -52.174511 -160.893723 -96.799355

v -48.450439 -49.448425 -95.531738

v -64.975281 -59.723724 -96.983276

v -37.050842 -55.537842 -96.584045

v -79.598389 -82.726173 -96.220947

v -34.943329 -63.691460 -97.035355

v -85.658707 -86.302460 -93.831635

v -85.609207 -89.615341 -93.526230

v -85.354797 -94.407211 -96.220352

v -76.154144 -108.090385 -97.168472

v -35.634583 -85.772484 -93.566864

v -70.194153 -119.866135 -96.186157

v -70.808937 -111.226227 -95.577774

v -42.736183 -124.135521 -96.864708

v -40.663712 -134.557465 -95.379745

v -41.482086 -146.287048 -96.755066

v -46.155899 -166.954132 -96.239502

v -65.950546 -55.794067 -93.746674

v -53.915619 -51.097473 -93.981689

v -34.548141 -47.388290 -93.620255

v -35.172791 -51.400055 -95.355896

v -80.365845 -72.936447 -94.082886

v -32.178772 -61.252487 -93.709900

v -33.428497 -72.189697 -93.920868

v -76.429077 -99.645126 -95.497192

v -70.040382 -106.535934 -94.055305

v -39.362564 -95.830200 -92.550476

v -41.979752 -101.443802 -92.319733

v -42.425980 -116.124611 -92.410553

v -64.720596 -139.757690 -92.563377

v -48.093037 -159.246124 -92.625038

v -55.397251 -147.123428 -92.089584

v -39.113342 -156.198929 -93.376366

v -39.559639 -167.408966 -94.129601

v -41.048023 -40.619583 -93.276245

v -59.079693 -49.260910 -93.067535

v -73.600891 -61.053085 -93.236115

v -28.276291 -42.534111 -93.449295

v -89.921753 -80.811142 -92.001160

v -87.733276 -82.388489 -93.489151

v -25.306274 -59.304398 -93.463577

v -21.879288 -49.602722 -91.743958

v -78.817398 -95.898857 -91.909744

v -30.385406 -74.426895 -91.827148

v -76.422302 -99.517494 -89.749672

v -70.964111 -113.096054 -91.680054

v -70.484741 -120.560272 -91.745987

v -69.973816 -130.511902 -93.240662

v -40.563385 -126.794724 -90.777718

v -39.953949 -140.606308 -92.678314

v -40.570221 -148.733765 -92.371414

v -40.897877 -161.659210 -91.944519

v -68.591949 -54.274605 -90.507584

v -61.053867 -49.488937 -90.815002

v -52.413940 -46.206593 -88.261642

v -43.117584 -41.906418 -88.066162

v -74.068802 -59.073322 -90.988083

v -31.929522 -39.899231 -90.397705

v -80.124390 -64.489960 -91.341774

v -93.328613 -76.152603 -91.362137

v -89.831772 -70.763588 -91.276443

v -24.939846 -42.832100 -90.971741

v -17.426785 -42.005142 -89.484871

v -17.102509 -44.342911 -91.405136

v -84.707359 -85.274033 -91.062782

v -17.902809 -58.791943 -91.343475

v -23.315460 -61.230473 -91.710060

v -20.871391 -71.054787 -91.282402

v -29.475555 -78.877403 -91.218857

v -74.653091 -105.321823 -89.747589

v -36.179100 -94.324623 -87.078445

v -38.690918 -102.265442 -91.271027

v -71.732536 -120.225815 -84.909340

v -38.260849 -111.760971 -91.163132

v -72.024170 -132.464645 -90.432343

v -73.891663 -139.324890 -90.293793

v -60.459869 -137.828217 -89.690887

v -56.767746 -139.909882 -91.801125

v -42.826309 -134.797729 -89.710098

v -44.542023 -149.692200 -91.863007

v -49.691856 -141.098984 -89.777794

v -44.769165 -145.991211 -90.208603

v -61.703918 -55.317200 -87.354645

v -72.060593 -60.468414 -87.497505

v -79.211670 -65.261299 -87.704697

v -90.465523 -72.175003 -86.429153

v -27.578094 -44.556000 -87.609741

v -92.384659 -78.221840 -86.009109

v -14.022495 -48.099815 -88.259438

v -76.270607 -94.581741 -85.581543

v -82.574280 -86.716736 -84.888184

v -27.183838 -77.615067 -88.848236

v -28.208679 -84.119659 -86.455994

v -33.337982 -89.498535 -87.625702

v -71.420074 -111.066650 -87.998299

v -70.989632 -114.083420 -84.705711

v -37.031818 -102.295525 -86.869324

v -79.335678 -135.793167 -86.534264

v -65.483704 -142.045593 -86.987610

v -73.176971 -143.852112 -87.890564

v -52.114212 -140.926300 -86.580711

v -69.089020 -57.838661 -86.561279

v -47.631744 -51.646362 -87.621147

v -20.268372 -46.577637 -85.986633

v -15.232605 -52.866867 -85.509399

v -19.244217 -63.342785 -84.157776

v -70.717590 -101.356880 -86.849792

v -22.089630 -73.340668 -84.564430

v -24.275494 -78.490921 -85.656059

v -74.651474 -129.703781 -85.542053

v -37.038746 -111.749001 -86.823784

v -81.813431 -142.516647 -87.322266

v -39.322800 -119.773933 -86.711472

v -79.272301 -145.884949 -87.705399

v -41.227169 -125.553909 -86.007080

v -43.458023 -134.652649 -85.720795

v -45.489502 -139.206451 -86.323212

v -102.538696 -70.542099 -86.057053

v -80.798737 -62.675842 -85.898483

v -82.698814 -60.326111 -83.502205

v -61.944866 -56.017590 -83.200363

v -51.677032 -56.266174 -82.593552

v -37.069580 -51.987610 -83.946289

v -18.194534 -51.409424 -83.858994

v -68.221069 -102.716255 -84.306335

v -31.171738 -87.578522 -80.781868

v -40.777985 -95.033485 -84.069283

v -39.657272 -102.005829 -84.054993

v -39.292709 -106.406235 -81.506821

v -40.628120 -117.250160 -83.438309

v -74.595284 -145.441986 -81.373413

v -59.742188 -142.196716 -85.564697

v -45.406006 -147.249695 -86.220001

v -57.725281 -146.434937 -83.534302

v -114.876953 -66.293434 -82.790726

v -104.383270 -61.294022 -83.952667

v -105.472687 -68.692818 -84.420227

v -96.860184 -61.049110 -83.712593

v -88.736389 -61.013081 -83.504272

v -101.503693 -75.237915 -82.405212

v -78.689392 -59.986816 -82.498291

v -70.367920 -57.280853 -82.708412

v -94.197723 -80.423828 -82.446045

v -43.649231 -53.548401 -82.339447

v -32.806519 -58.221497 -81.973358

v -26.998505 -57.716881 -83.874283

v -28.994934 -65.712997 -81.501541

v -25.796967 -69.593048 -83.813232

v -27.364388 -75.281036 -82.705406

v -65.631744 -98.163109 -80.528351

v -52.968872 -99.654785 -84.094666

v -59.833618 -105.148270 -84.134743

v -37.687462 -91.119461 -81.824333

v -47.679890 -94.738647 -83.050278

v -66.030243 -114.450836 -83.569313

v -71.195313 -121.079834 -81.018578

v -35.825546 -106.784836 -81.730949

v -77.162758 -132.074768 -81.387970

v -39.831024 -126.609314 -81.931656

v -40.703876 -137.016968 -83.365532

v -48.393616 -150.653717 -83.554626

v -41.709087 -142.615112 -83.261230

v -42.736336 -147.656876 -84.228973

v -108.816338 -61.799370 -81.046463

v -118.880783 -63.672974 -79.873993

v -126.726463 -66.099106 -82.074226

v -131.437714 -70.449776 -82.185181

v -116.588165 -71.518433 -82.259773

v -98.089386 -63.658386 -78.980972

v -87.511223 -64.629517 -78.472015

v -67.770508 -60.535522 -81.827545

v -57.691238 -59.236206 -81.885742

v -66.907837 -64.355667 -79.183350

v -43.722870 -57.856384 -81.705673

v -96.668640 -85.426941 -79.887634

v -77.056641 -98.751190 -80.403503

v -31.395081 -66.077759 -79.715576

v -56.558353 -95.658974 -81.357559

v -28.922413 -78.082443 -76.742149

v -59.297760 -109.996094 -81.685974

v -50.366791 -102.534485 -82.323959

v -48.891853 -107.041443 -81.719025

v -65.586807 -112.933342 -80.166992

v -35.305145 -114.854889 -81.615799

v -78.890808 -145.079773 -78.158768

v -65.429207 -147.337494 -79.692810

v -57.051147 -148.332611 -80.199402

v -41.239166 -137.481110 -79.568695

v -43.091270 -147.261444 -79.493805

v -131.661560 -71.404373 -76.883919

v -125.733429 -69.150101 -76.715576

v -111.505775 -63.776001 -78.791977

v -126.522217 -73.080544 -76.757591

v -116.913925 -75.469803 -78.318878

v -107.319275 -79.585266 -79.603088

v -53.741234 -62.447769 -78.911392

v -42.374866 -64.180893 -79.013145

v -36.672703 -60.651733 -80.237961

v -56.139778 -95.372070 -79.199020

v -47.912888 -92.899109 -78.959854

v -40.215286 -91.189667 -78.919342

v -74.327301 -118.351364 -79.965355

v -47.268024 -106.579742 -77.436638

v -76.931297 -125.799088 -79.405884

v -32.107712 -110.236282 -77.756462

v -37.037659 -131.032059 -76.252411

v -48.337128 -150.999725 -78.716980

v -116.682129 -67.560638 -77.924988

v -106.165802 -67.549103 -78.080750

v -95.978294 -67.619232 -77.568314

v -77.862259 -66.621513 -76.368896

v -100.231049 -85.201431 -76.955154

v -59.952461 -63.075947 -75.352585

v -89.841461 -96.715942 -75.748474

v -35.380035 -67.400497 -76.029984

v -28.374374 -68.480370 -76.847435

v -28.783295 -74.225967 -76.481682

v -69.964615 -102.093750 -73.712891

v -60.296021 -100.024109 -77.718811

v -46.688034 -97.202637 -77.267548

v -32.113266 -87.886482 -75.898041

v -38.972961 -94.697205 -75.364563

v -64.451035 -112.815506 -75.988495

v -73.038925 -117.065811 -75.677750

v -36.452103 -105.708191 -77.038803

v -79.845146 -134.067566 -75.718407

v -78.724213 -140.215958 -74.567444

v -35.523300 -113.363586 -75.465660

v -34.920067 -126.556549 -71.967285

v -68.988998 -145.335770 -75.371277

v -37.995960 -141.797989 -76.488548

v -57.590145 -147.140747 -73.673882

v -41.199829 -152.203888 -77.851212

v -139.798615 -75.450165 -75.986092

v -139.895355 -71.519897 -74.531403

v -131.712723 -79.250114 -76.094025

v -115.313797 -68.028587 -75.600754

v -121.164360 -82.690994 -76.471992

v -102.026863 -68.106979 -74.956581

v -126.225822 -80.183762 -72.295944

v -107.447617 -81.914734 -76.634354

v -91.682327 -66.177750 -74.898010

v -85.607483 -66.199722 -74.875191

v -114.478615 -85.769089 -76.335426

v -68.701767 -64.319397 -75.150726

v -104.156990 -90.606995 -75.979736

v -48.885612 -61.181389 -73.386093

v -83.189148 -102.452286 -70.817322

v -54.836426 -101.328369 -74.480225

v -53.723911 -108.006409 -71.627022

v -75.241898 -122.213013 -71.092728

v -44.685547 -107.420776 -74.511070

v -37.596123 -107.788460 -74.794205

v -48.033691 -150.913193 -74.968063

v -39.948315 -146.538742 -74.523705

v -42.850624 -153.194244 -75.539337

v -127.903008 -62.022034 -74.543854

v -126.686867 -67.522766 -74.744545

v -110.677567 -61.096573 -74.516640

v -112.780350 -66.575790 -74.672226

v -133.042084 -77.484772 -72.285355

v -137.922318 -76.314575 -71.358536

v -88.817688 -63.050018 -74.352119

v -88.154907 -60.722092 -72.750519

v -118.604027 -82.936790 -72.600739

v -75.786064 -62.377411 -74.256386

v -64.165833 -60.421280 -72.707199

v -110.305222 -87.589111 -71.786804

v -97.077553 -93.517975 -69.763214

v -40.066074 -61.367035 -71.689476

v -35.012592 -68.453766 -72.921951

v -29.025024 -79.628876 -73.079620

v -68.568329 -104.587219 -70.928055

v -32.613892 -92.535675 -70.843323

v -77.717583 -133.454208 -71.229179

v -34.656441 -118.411987 -71.547577

v -65.081245 -143.634445 -73.495567

v -34.369442 -135.220551 -70.137459

v -36.383347 -139.379364 -69.616226

v -51.314087 -147.570572 -73.456474

v -139.753052 -66.439621 -71.911484

v -128.550400 -60.232643 -71.653473

v -142.285095 -71.897827 -71.416275

v -116.642593 -57.890221 -71.960007

v -107.955154 -56.751465 -71.777481

v -103.710510 -56.920513 -72.089233

v -95.135605 -55.109718 -72.284668

v -84.958290 -55.024933 -72.088646

v -74.810669 -55.436340 -72.095284

v -64.623146 -56.481842 -72.255371

v -59.336926 -55.111225 -71.638832

v -46.625885 -57.992188 -71.652725

v -91.618317 -98.737091 -68.976120

v -27.460907 -73.922287 -72.103851

v -24.317780 -77.348404 -70.686455

v -30.348602 -87.484901 -71.017563

v -53.698639 -105.486031 -70.604942

v -40.377045 -100.135551 -70.634262

v -76.297485 -116.929298 -71.038147

v -65.485168 -110.278122 -70.907753

v -38.371201 -104.929626 -70.751236

v -33.109749 -108.600769 -70.470360

v -76.356293 -139.453369 -71.052620

v -69.092789 -141.408356 -69.961540

v -64.762924 -144.784225 -69.188568

v -55.623508 -147.917175 -70.758835

v -47.011105 -149.121857 -69.816818

v -136.787323 -66.513443 -67.855888

v -120.917755 -60.552521 -67.443237

v -139.547333 -75.073784 -69.558311

v -112.566406 -60.159103 -67.125168

v -101.808670 -58.061401 -66.996796

v -134.130280 -80.849983 -69.284134

v -89.949097 -56.203125 -69.260559

v -126.979904 -85.050247 -68.193237

v -120.691040 -85.552246 -69.485168

v -75.452026 -56.046265 -68.779236

v -65.305611 -56.940933 -67.034927

v -107.721680 -90.910461 -69.058815

v -48.065018 -57.676178 -67.158333

v -40.720318 -58.591255 -67.884583

v -33.059406 -67.634270 -68.989021

v -26.728661 -71.279205 -68.658562

v -17.140869 -79.602867 -68.310394

v -21.408234 -82.456413 -70.296249

v -79.894409 -116.076721 -68.436340

v -26.130066 -87.514961 -70.187836

v -28.974575 -95.465652 -67.826530

v -32.246674 -98.292610 -70.439651

v -70.823242 -132.104904 -70.412987

v -31.106554 -113.942947 -68.678856

v -30.813696 -119.736656 -69.243805

v -31.749577 -128.174103 -69.812584

v -42.744186 -143.380493 -67.454620

v -130.122772 -64.043427 -67.107208

v -80.765076 -58.644974 -66.881882

v -118.091560 -90.863342 -68.278648

v -112.315033 -93.156158 -68.892822

v -111.593399 -95.697174 -66.927368

v -100.928833 -100.409515 -68.874420

v -35.922192 -59.602173 -67.856148

v -31.178650 -63.398346 -68.542770

v -23.522915 -63.341843 -65.893188

v -89.146484 -109.182251 -68.019531

v -18.543808 -71.415115 -68.366928

v -23.940590 -89.107750 -66.143112

v -72.267258 -126.923172 -66.231903

v -30.888279 -100.712288 -67.552742

v -31.215187 -109.388428 -62.065212

v -33.829418 -125.616020 -64.473083

v -34.512150 -135.321274 -64.571686

v -60.868954 -145.510803 -67.203461

v -56.060707 -146.582336 -67.271332

v -41.159817 -140.079697 -65.003326

v -134.808990 -69.610046 -65.268738

v -135.397110 -73.814659 -65.496078

v -116.848679 -66.053833 -66.575531

v -102.059082 -68.799767 -66.852348

v -128.291458 -82.903900 -64.660248

v -91.306488 -68.669983 -66.772034

v -120.667450 -90.332001 -62.267029

v -68.756226 -63.979065 -66.755867

v -80.914604 -68.730789 -65.413101

v -70.373505 -65.757538 -65.915237

v -60.621201 -63.082886 -65.868408

v -46.399509 -59.371307 -65.978699

v -37.926910 -60.362885 -61.006893

v -104.162910 -102.834259 -66.253845

v -96.166595 -110.420395 -66.458000

v -17.155273 -71.378189 -61.380997

v -87.042122 -117.289352 -66.468773

v -15.263226 -76.969131 -63.725117

v -78.618576 -123.864662 -66.413574

v -17.109930 -83.141808 -65.225891

v -71.054947 -132.208908 -65.174088

v -33.134331 -116.965782 -64.579140

v -62.718437 -142.602478 -65.190582

v -125.414856 -64.875580 -64.158669

v -135.143768 -79.384094 -61.790649

v -111.955017 -68.942474 -62.485779

v -102.512695 -72.678055 -61.802612

v -96.029083 -72.144318 -62.757263

v -87.252762 -70.451294 -63.760437

v -70.567413 -66.436157 -63.875854

v -59.929016 -64.761856 -61.868530

v -55.845245 -64.562912 -61.138290

v -101.895241 -105.625923 -59.467545

v -94.248711 -109.773224 -61.178474

v -84.171089 -117.856667 -62.977806

v -76.459839 -123.649170 -62.668949

v -20.068451 -85.086685 -61.085052

v -24.305576 -90.467331 -59.038567

v -29.447922 -95.085922 -63.436386

v -29.679169 -101.342682 -62.055542

v -65.464920 -130.217117 -64.964630

v -55.796719 -133.681580 -62.825500

v -58.585609 -133.364349 -64.714226

v -47.329655 -139.541168 -64.681602

v -127.937523 -64.779129 -61.761444

v -135.936981 -69.012093 -61.941986

v -120.307732 -65.372833 -62.002731

v -135.846664 -73.711487 -61.597855

v -88.815498 -75.107933 -59.582794

v -79.452934 -74.443230 -58.687309

v -67.880051 -69.792358 -60.366302

v -111.207069 -99.813004 -53.138184

v -23.699234 -64.361244 -61.087772

v -66.304321 -129.109253 -61.895813

v -26.954620 -121.483170 -58.471825

v -30.215042 -126.099426 -61.682350

v -50.750946 -138.926575 -59.388535

v -29.856873 -132.885513 -60.846802

v -43.750038 -141.383469 -57.267162

v -32.557770 -137.687759 -61.136658

v -126.948151 -68.742294 -60.484093

v -115.032104 -71.011841 -58.123322

v -128.474884 -89.384216 -55.936127

v -56.489471 -67.529129 -60.550552

v -46.254498 -69.526871 -59.427361

v -38.948761 -68.433502 -60.881134

v -36.687744 -70.945137 -59.235046

v -24.330063 -73.204292 -60.794682

v -87.659027 -118.160385 -58.512550

v -78.509918 -126.641884 -59.450706

v -27.186111 -111.073547 -60.478348

v -36.451862 -141.677002 -57.880623

v -136.279785 -80.752518 -56.041821

v -96.116730 -73.240097 -57.388275

v -87.437271 -71.872101 -56.948845

v -68.983093 -68.913559 -57.305534

v -61.912647 -67.844788 -57.219650

v -55.397430 -67.216705 -57.275772

v -94.551491 -111.001793 -58.137199

v -29.341850 -73.133873 -57.857647

v -24.773888 -80.222702 -57.874908

v -24.284191 -97.409790 -54.986046

v -25.769558 -109.563080 -58.138382

v -65.782036 -132.384018 -58.420563

v -59.135345 -135.829575 -56.911247

v -28.168869 -128.183685 -58.230331

v -29.461422 -137.807892 -57.810509

v -135.606964 -85.454475 -53.540665

v -106.270439 -71.842880 -54.696373

v -120.385574 -93.390915 -54.588364

v -77.904594 -69.331253 -56.446228

v -43.769260 -67.750793 -54.442242

v -32.606266 -69.314438 -53.705704

v -92.822014 -108.866898 -55.296974

v -86.010101 -114.675644 -55.866051

v -80.692352 -118.917641 -55.774960

v -25.285973 -82.872551 -53.368156

v -75.988922 -124.147507 -55.677128

v -24.629271 -92.468880 -53.890015

v -68.635498 -129.825470 -55.229866

v -27.618240 -119.310394 -53.491425

v -29.027269 -125.936142 -50.698917

v -44.847557 -139.547577 -51.900253

v -31.229141 -134.444031 -53.435555

v -129.584656 -79.464752 -50.179443

v -124.181778 -71.595459 -54.656342

v -110.691544 -69.138191 -52.438435

v -100.198410 -68.405930 -50.804356

v -87.785461 -69.055145 -50.405197

v -79.848419 -67.371025 -51.302807

v -75.033905 -65.501167 -51.419666

v -67.811211 -65.316895 -53.194252

v -59.336746 -65.208115 -53.013359

v -54.323532 -65.283508 -51.287674

v -102.711967 -105.949356 -52.638500

v -24.675861 -77.202423 -53.865547

v -92.106979 -113.317444 -52.804047

v -25.013878 -87.509583 -53.695381

v -26.761002 -106.158798 -53.393608

v -27.261108 -112.695107 -53.470795

v -36.162155 -138.172516 -54.272171

v -122.010895 -75.932190 -50.735138

v -129.535828 -86.486069 -50.093750

v -120.117973 -91.316864 -52.161152

v -64.219193 -63.377430 -51.278351

v -115.369354 -95.475372 -49.487610

v -53.909119 -67.013428 -49.561127

v -32.198792 -74.428802 -52.804901

v -87.219666 -118.114029 -50.554157

v -79.753143 -124.523041 -50.530449

v -73.826004 -128.759491 -52.201927

v -64.597023 -134.341599 -51.611641

v -52.244457 -137.293671 -49.713646

v -37.336761 -139.264832 -52.297577

v -125.924004 -89.253845 -47.899231

v -61.930962 -65.392502 -49.493256

v -44.298676 -73.757690 -49.256714

v -94.705406 -111.046112 -47.535522

v -29.150970 -81.007080 -49.570129

v -25.717331 -89.954048 -48.393677

v -26.844990 -105.392998 -49.440048

v -65.732895 -131.558746 -47.860168

v -28.850689 -116.719231 -50.000610

v -29.874146 -139.713989 -50.111816

v -115.017136 -72.134979 -46.453461

v -121.427734 -78.068695 -46.329002

v -105.973816 -69.085648 -46.096176

v -97.485611 -68.660919 -46.137291

v -82.833496 -68.569000 -47.935028

v -74.101425 -67.703613 -49.140305

v -62.109901 -72.183426 -49.394943

v -71.372314 -74.432983 -46.508057

v -108.526634 -100.692215 -47.066742

v -101.381203 -105.691132 -46.984070

v -37.363190 -79.896301 -46.923157

v -45.238098 -77.016724 -46.552094

v -25.194870 -95.444672 -47.250198

v -25.159718 -111.171211 -48.606934

v -23.922655 -118.508575 -48.817123

v -44.432022 -144.475250 -45.847534

v -33.606201 -146.290283 -47.768738

v -23.872040 -138.105042 -48.061188

v -126.291374 -85.364098 -45.679672

v -121.122009 -96.186432 -43.720184

v -56.693176 -79.559174 -47.264282

v -57.126343 -75.059723 -47.711021

v -29.571304 -88.190948 -46.157288

v -77.653458 -124.164780 -44.817993

v -26.870537 -101.086617 -45.223976

v -53.938263 -134.545776 -46.266907

v -21.464537 -128.319412 -46.192528

v -49.554581 -139.634827 -42.683823

v -21.333153 -140.545013 -47.257221

v -22.656944 -149.377594 -46.030167

v -110.104607 -72.859802 -45.719124

v -118.992744 -83.492310 -42.337852

v -94.438782 -73.768234 -45.629578

v -126.029861 -87.806351 -42.392662

v -106.016907 -76.118408 -43.929596

v -88.002472 -73.467712 -44.971313

v -78.588745 -75.129639 -44.344147

v -111.683372 -101.755493 -44.436890

v -69.813629 -80.987793 -45.354340

v -72.174194 -83.055237 -43.612946

v -58.846252 -82.792267 -44.875183

v -102.559547 -108.653061 -43.969917

v -50.606941 -82.394180 -40.313427

v -36.951111 -84.198059 -40.355927

v -93.091408 -113.289650 -42.603867

v -69.696915 -128.686462 -44.836304

v -62.597237 -129.567719 -42.221577

v -24.526978 -120.540466 -40.291126

v -24.082424 -124.713364 -42.414337

v -31.553528 -149.847000 -45.865524

v -47.704414 -153.810577 -45.787872

v -35.390892 -155.752014 -45.679420

v -47.624443 -156.786530 -45.272202

v -23.474434 -152.592285 -45.620060

v -20.814095 -145.491898 -41.097527

v -28.164431 -156.866409 -44.054966

v -97.143036 -78.521774 -41.969051

v -82.591660 -79.254761 -42.023682

v -118.130234 -96.331131 -42.081001

v -109.260689 -102.158707 -42.379147

v -68.610138 -85.688110 -39.869995

v -42.981888 -83.095436 -39.532776

v -85.344749 -117.572495 -40.885513

v -31.674988 -92.426971 -40.143860

v -68.160751 -126.187164 -42.433838

v -26.095194 -107.227112 -38.771988

v -47.936707 -145.965881 -41.604385

v -44.661392 -148.915009 -42.023857

v -22.309521 -132.183273 -39.521004

v -48.233673 -154.072556 -42.153645

v -43.660744 -157.624863 -42.246307

v -34.297024 -156.908005 -42.298981

v -25.498421 -150.679932 -38.317238

v -26.915100 -153.708466 -41.670883

v -106.607056 -96.644066 -41.983540

v -96.209229 -85.558937 -41.850983

v -97.924553 -90.855331 -39.904697

v -76.854980 -85.287476 -40.813599

v -105.041344 -102.457954 -40.155060

v -60.875427 -83.745560 -36.924362

v -72.493660 -124.891670 -39.543667

v -27.400257 -100.046707 -40.603592

v -60.233398 -133.065414 -40.275085

v -54.600067 -135.792511 -40.548492

v -22.664223 -127.350014 -37.705383

v -22.921219 -133.974701 -36.823536

v -36.672131 -152.319763 -41.729233

v -88.844467 -109.581512 -39.715706

v -89.399536 -101.989563 -37.154205

v -80.945152 -117.154221 -39.349686

v -30.866943 -103.793541 -36.831787

v -53.135941 -144.688690 -37.788528

v -48.177464 -145.098724 -33.594376

v -37.421997 -149.491547 -38.322830

v -92.861153 -92.666962 -37.991688

v -89.129814 -92.899155 -36.242615

v -80.540665 -93.616302 -35.482224

v -74.831482 -90.935486 -35.617676

v -70.719269 -87.570091 -31.736042

v -77.786148 -116.759819 -34.483852

v -36.739468 -84.705833 -32.647591

v -63.620667 -133.734863 -36.911865

v -25.583748 -112.250343 -31.800034

v -58.941818 -141.750122 -37.146576

v -24.150202 -140.792679 -36.596611

v -30.294489 -147.224350 -37.473606

v -85.230057 -102.101364 -35.741665

v -44.274155 -80.801498 -31.450127

v -83.520874 -106.610062 -34.522930

v -33.490021 -95.608597 -34.411713

v -70.860901 -127.025688 -34.137421

v -34.242912 -102.455154 -32.954849

v -62.578575 -140.144958 -32.527893

v -57.644871 -142.445038 -33.265289

v -20.426121 -132.383606 -31.625435

v -42.210182 -145.353577 -32.072445

v -35.169857 -145.699738 -31.915855

v -78.865112 -93.366409 -31.029724

v -84.965561 -101.362190 -31.439545

v -53.577648 -81.472275 -30.458038

v -75.732468 -125.677643 -31.987396

v -32.428375 -108.388885 -32.312157

v -64.773117 -85.797409 -27.574860

v -83.741135 -110.663765 -31.386688

v -36.686150 -89.558609 -26.879553

v -35.884598 -98.631721 -29.587494

v -70.726273 -135.016602 -31.709930

v -22.386303 -119.750359 -29.225677

v -20.184029 -128.911789 -29.242222

v -20.519928 -140.111389 -27.907654

v -25.714020 -143.327194 -27.647858

v -57.841171 -85.176651 -24.709991

v -82.209908 -104.797943 -26.277275

v -38.921959 -83.984932 -26.875313

v -78.851959 -119.779999 -28.110260

v -32.140305 -105.512405 -28.757404

v -76.527222 -132.801849 -27.992249

v -69.231750 -138.652008 -29.063400

v -24.592899 -110.228783 -28.146217

v -60.012787 -145.618286 -28.672913

v -38.476364 -148.504669 -26.478577

v -73.508583 -92.263306 -26.705368

v -48.399475 -81.244759 -24.876982

v -42.688679 -81.043831 -25.306074

v -83.858139 -112.273849 -26.990356

v -35.238941 -100.839264 -26.534599

v -27.898733 -102.535522 -26.950279

v -70.954010 -141.939957 -28.161774

v -22.840240 -115.178398 -25.087624

v -66.869263 -144.486771 -27.757629

v -25.018740 -123.311813 -26.234474

v -21.482088 -132.776855 -26.405390

v -47.639175 -148.393433 -25.255310

v -69.986450 -92.954491 -24.626057

v -72.929924 -101.215286 -26.060223

v -36.297993 -78.085686 -25.850702

v -84.641632 -106.835442 -22.040836

v -29.563057 -91.820145 -26.272665

v -28.919559 -84.253326 -24.371309

v -82.414856 -122.831009 -26.150787

v -83.896973 -126.482323 -24.819275

v -85.115227 -129.568832 -24.775509

v -72.191444 -143.597687 -24.829437

v -55.873711 -147.706833 -25.630646

v -33.460205 -151.918701 -23.236572

v -119.059204 -109.775215 -24.635719

v -113.011543 -112.635246 -24.593138

v -123.082855 -115.740417 -24.760231

v -104.386047 -119.612534 -24.542629

v -58.258850 -91.209328 -24.467230

v -103.462166 -127.571671 -24.723915

v -69.139664 -100.762321 -23.835365

v -39.218887 -81.290741 -21.724152

v -44.386932 -84.733978 -23.280609

v -58.203075 -93.430664 -23.113808

v -75.960869 -102.581177 -21.331955

v -107.317467 -127.990204 -22.931576

v -63.018967 -97.492508 -22.750534

v -86.037651 -110.852074 -22.893429

v -98.189293 -126.229630 -24.717455

v -99.094444 -124.021454 -21.954712

v -30.991619 -78.736214 -23.330559

v -87.582520 -117.115723 -22.066864

v -26.786238 -82.243210 -23.085625

v -84.483551 -122.064636 -21.899689

v -88.570107 -126.138962 -22.772446

v -23.327078 -90.489975 -21.229122

v -90.204498 -135.394485 -24.729374

v -23.859360 -102.893997 -22.150772

v -91.594467 -137.853500 -22.927528

v -82.794708 -151.046494 -24.739120

v -22.292280 -108.211067 -17.829636

v -59.604050 -150.414749 -24.632401

v -73.104324 -151.003922 -24.723286

v -21.830811 -120.653069 -23.551750

v -74.318153 -152.716614 -23.677155

v -19.576508 -127.870224 -23.333103

v -65.972229 -153.097595 -23.322937

v -50.934753 -152.924255 -23.974823

v -16.876959 -136.720978 -22.081272

v -19.301888 -144.312439 -22.844940

v -125.496361 -112.606735 -21.933044

v -125.043137 -117.658310 -22.939537

v -112.189384 -109.933159 -18.580551

v -127.116272 -121.951019 -21.925400

v -109.963806 -135.394196 -22.883991

v -123.391983 -130.027679 -22.310806

v -104.445473 -117.826660 -18.343887

v -94.664612 -110.614975 -22.695869

v -94.988678 -105.069061 -21.823273

v -99.993195 -108.924225 -18.946606

v -29.848295 -79.317612 -19.293892

v -94.617004 -124.089371 -18.431534

v -86.219551 -124.801956 -20.059006

v -94.998352 -141.328568 -22.799835

v -88.074356 -151.695099 -22.044434

v -23.190580 -117.272903 -20.125687

v -75.751877 -152.769196 -18.077576

v -66.742172 -154.901978 -18.595703

v -20.825504 -123.866882 -18.136086

v -60.584923 -154.218018 -20.089844

v -22.890198 -150.383240 -22.039581

v -123.106003 -109.529861 -17.902596

v -125.326950 -119.957840 -15.444214

v -121.279633 -130.641327 -18.312317

v -94.200714 -118.168793 -20.091400

v -51.145348 -88.081551 -18.704597

v -113.104263 -135.443405 -17.695190

v -23.259727 -83.859116 -18.176899

v -22.261433 -89.848129 -17.361881

v -104.402199 -142.844940 -17.027863

v -96.741074 -146.212296 -19.453964

v -21.848238 -97.125969 -17.907494

v -22.126770 -101.553947 -17.655758

v -87.091507 -150.992523 -19.268494

v -18.749847 -133.670395 -17.204674

v -49.841904 -156.614197 -19.375000

v -30.848902 -156.328491 -19.190308

v -16.965370 -146.780975 -14.521660

v -19.645401 -150.978119 -18.731598

v -93.134911 -108.834656 -16.131905

v -110.479797 -113.829964 -15.224564

v -84.151466 -109.597572 -16.654408

v -93.980743 -118.006851 -16.782837

v -40.788582 -81.549660 -12.756302

v -63.193844 -94.727432 -14.629883

v -78.712509 -107.648323 -15.910881

v -70.908516 -100.860580 -15.529468

v -27.086592 -76.776657 -16.911837

v -86.809540 -124.364799 -14.323822

v -108.090393 -138.654465 -15.700821

v -84.752594 -127.235985 -16.563004

v -93.814224 -145.806747 -15.742432

v -21.483486 -115.940018 -16.759254

v -57.220398 -157.948669 -18.154007

v -47.556396 -161.193176 -16.332275

v -27.595928 -158.469910 -18.301941

v -121.057777 -126.924149 -15.691803

v -103.475464 -119.325996 -13.574829

v -34.505077 -77.495705 -12.046705

v -114.928055 -132.284744 -13.822800

v -98.095985 -124.019958 -13.268616

v -26.074070 -78.952858 -11.567616

v -100.157463 -140.542877 -13.240780

v -23.730808 -105.045746 -12.977805

v -93.512291 -145.974197 -11.920250

v -23.335779 -114.874413 -12.846877

v -20.407080 -125.431862 -12.876450

v -40.126488 -162.998520 -15.077835

v -18.549330 -154.370575 -13.949348

v -29.051067 -160.892868 -13.859383

v -124.992317 -114.199013 -11.260223

v -120.916191 -107.436996 -12.796997

v -114.888084 -107.871719 -11.078625

v -87.362411 -105.271179 -14.296154

v -76.365341 -99.972923 -14.162241

v -53.600533 -88.256607 -13.880943

v -93.256065 -115.916100 -12.672079

v -88.449074 -127.113640 -12.944061

v -23.254654 -86.372253 -11.450668

v -22.059155 -92.945091 -12.386982

v -70.436722 -153.866333 -10.208130

v -60.527306 -157.038574 -10.579575

v -50.697521 -161.032166 -9.614090

v -17.416101 -140.734116 -6.239044

v -124.565399 -110.807770 -10.146635

v -109.444344 -112.560677 -10.859880

v -124.495987 -122.964462 -9.776335

v -105.293915 -116.978645 -8.555435

v -94.127235 -109.236496 -8.340719

v -71.969498 -99.402557 -7.792542

v -56.336754 -91.800766 -9.756805

v -109.747818 -137.303665 -10.597237

v -115.047348 -133.292130 -10.244949

v -79.893814 -152.518433 -8.371155

v -18.861897 -146.261017 -7.742828

v -42.265625 -161.253754 -9.006866

v -119.115173 -107.239738 -9.511173

v -83.529144 -104.045395 -7.983749

v -118.614738 -130.480621 -9.948166

v -95.124344 -114.232468 -8.217552

v -101.008629 -122.398285 -9.273422

v -66.690086 -97.270966 -6.277939

v -46.995392 -87.831284 -8.054913

v -39.605461 -85.181564 -9.903275

v -30.058323 -82.301735 -10.339996

v -88.246468 -128.007126 -9.641361

v -94.999275 -117.353935 -8.904814

v -104.095169 -141.369064 -10.203354

v -22.561932 -94.597862 -6.453049

v -21.517347 -100.640083 -8.477997

v -19.277660 -123.257622 -5.991776

v -18.252316 -129.281433 -6.120482

v -18.226719 -135.140762 -5.517044

v -21.030373 -151.868042 -9.423904

v -29.613068 -158.480194 -9.708282

v -123.671188 -114.229164 -9.457550

v -115.812965 -120.665642 -9.375971

v -113.500916 -122.697876 -7.581362

v -34.171997 -84.095764 -4.303795

v -110.732285 -133.447891 -7.475647

v -28.260532 -86.218521 -5.557697

v -20.800161 -107.272675 -6.087759

v -22.376404 -112.588715 -8.145256

v -81.157631 -152.933746 -6.049751

v -20.003176 -118.544563 -6.886143

v -74.412094 -156.400436 -8.624634

v -64.190353 -159.187286 -8.733826

v -55.603638 -161.829407 -8.198486

v -32.931046 -155.815002 -8.930603

v -82.313515 -110.014145 -6.987383

v -90.578445 -115.615746 -7.125172

v -55.171318 -91.031403 -6.151711

v -101.094994 -122.649284 -7.114658

v -107.735329 -127.077415 -7.426726

v -107.785896 -133.867584 -5.565548

v -101.978516 -141.032852 -6.151474

v -96.706879 -144.846527 -4.158264

v -91.873695 -147.197418 -6.564758

v -19.866360 -112.636795 -6.158804

v -65.356308 -160.195435 -6.297363

v -43.212135 -156.784058 -5.890381

v -31.517319 -151.217896 -5.513000

v -72.358185 -104.341232 -4.605988

v -53.636139 -93.520653 -4.153633

v -40.309235 -83.386002 -1.756287

v -93.028069 -120.870888 -1.284920

v -102.508736 -132.064941 -5.394012

v -24.476219 -90.395409 -1.996437

v -89.703102 -152.712128 -4.619053

v -84.843178 -156.857529 -5.175789

v -20.125319 -114.357872 0.572971

v -21.379641 -126.020233 -4.517045

v -78.784027 -160.578735 -4.614502

v -24.111717 -133.585709 -5.026584

v -61.432583 -163.757446 -3.733185

v -27.909874 -142.394531 -5.195744

v -59.556099 -163.938171 -2.378441

v -35.286968 -149.441162 -5.072392

v -51.282108 -161.479721 -2.273346

v -49.146679 -87.872551 3.389737

v -61.857773 -99.503952 1.005785

v -74.291588 -106.338074 3.403767

v -88.038170 -115.524590 -1.659061

v -27.793175 -82.373833 -2.432430

v -97.713470 -135.349869 -0.979736

v -22.398575 -97.239998 -2.109543

v -90.596970 -149.029282 -0.707214

v -19.875725 -121.165039 1.503042

v -22.191498 -129.517273 -0.312973

v -73.055466 -166.847290 -3.036484

v -29.516024 -139.580841 -0.779419

v -66.049072 -167.402740 -2.883305

v -37.297241 -147.402313 -1.776581

v -43.559845 -154.539658 -2.093079

v -33.160164 -78.778900 -0.395737

v -55.386002 -93.385841 2.924902

v -84.136017 -112.564102 3.655126

v -22.351952 -102.723183 2.095764

v -84.683380 -156.824600 -0.385986

v -76.891670 -165.384399 2.620842

v -67.433022 -166.660690 3.893059

v -48.952576 -149.374954 2.211683

v -54.441223 -158.882507 -1.280945

v -35.489277 -77.776825 3.882864

v -44.344681 -82.932068 3.436466

v -30.261253 -78.929214 3.786440

v -90.431396 -120.785698 3.888624

v -28.576241 -85.819000 3.911667

v -93.901039 -128.166061 3.921668

v -26.170391 -95.397858 2.616593

v -93.166550 -143.405792 3.931510

v -87.951141 -153.583847 3.818737

v -21.297476 -114.520294 2.441757

v -22.793373 -126.388702 2.328047

v -82.338509 -161.625488 2.706287

v -33.482513 -135.544403 2.351233

v -58.834270 -155.907532 4.103298

v -60.136429 -97.670914 5.200243

v -95.423584 -135.857819 3.799633

v -31.822161 -106.091873 2.524391

v -40.556995 -116.543594 2.484953

v -38.619907 -108.435341 5.432327

v -48.996975 -129.165222 2.371263

v -54.885216 -141.704559 4.134070

v -52.486439 -129.151352 4.409048

v -53.874596 -148.334747 2.319967

v -35.163109 -82.957336 6.320765

v -48.440979 -90.175705 6.155402

v -69.766357 -106.599380 5.999187

v -78.731415 -113.508209 4.831413

v -30.228481 -94.667122 6.260305

v -83.863724 -124.158340 4.157815

v -32.590031 -98.539337 6.391953

v -74.488403 -139.985641 4.146911

v -44.812080 -118.073280 5.334274

v -51.022789 -125.996582 5.077553

v -64.738876 -137.303360 4.258841

v -76.201431 -163.851227 4.021812

v -43.137985 -92.850662 6.398083

v -59.690720 -102.778748 6.460861

v -65.787949 -108.091309 6.388134

v -77.365265 -121.744347 6.220638

v -74.028999 -120.810944 8.001895

v -80.526016 -124.248535 6.018017

v -36.507462 -105.467850 9.922935

v -73.530159 -133.806244 6.193710

v -68.877045 -133.265045 7.846497

v -47.260963 -120.046127 10.024987

v -51.378685 -126.353630 9.373947

v -61.330200 -131.911880 8.092697

v -48.776630 -101.021904 10.058720

v -34.712299 -95.950638 9.823437

v -61.323193 -109.938576 9.941603

v -66.726486 -119.980721 8.182423

v -41.383965 -112.179672 9.981100

v -60.057426 -129.294769 9.957520

v -63.983498 -121.634071 9.963913

v -44.059429 -117.673645 9.117188

f 1 2 3
f 3 4 1
f 5 3 2
f 6 4 3
f 7 4 6
f 8 9 5
f 5 6 3
f 9 10 5
f 6 5 11
f 5 10 11
f 6 11 12
f 13 14 15
f 13 16 17
f 13 15 16
f 16 18 17
f 15 19 16
f 16 20 18
f 16 21 20
f 16 22 21
f 19 22 16
f 21 22 23
f 24 25 26
f 24 26 2
f 1 24 2
f 27 2 26
f 1 4 28
f 2 27 5
f 7 28 4
f 5 27 8
f 7 12 29
f 9 8 30
f 7 6 12
f 31 9 32
f 29 12 14
f 10 9 31
f 11 10 33
f 33 12 11
f 14 34 29
f 10 31 33
f 12 35 14
f 33 31 32
f 12 33 35
f 14 35 36
f 37 36 35
f 34 14 38
f 13 38 14
f 17 38 13
f 36 15 14
f 15 36 39
f 39 40 15
f 15 40 19
f 41 20 21
f 40 42 19
f 22 19 42
f 41 21 43
f 21 23 43
f 44 22 42
f 23 22 44
f 45 46 23
f 43 23 46
f 47 48 49
f 48 25 49
f 25 24 49
f 50 49 24
f 25 48 27
f 25 27 26
f 48 51 27
f 52 28 7
f 27 30 8
f 52 7 29
f 53 52 29
f 30 54 9
f 32 9 54
f 29 55 53
f 54 56 32
f 56 57 32
f 55 29 34
f 57 33 32
f 57 58 33
f 35 33 58
f 34 59 55
f 58 60 35
f 37 35 60
f 59 34 38
f 39 36 37
f 38 17 61
f 17 18 61
f 62 41 43
f 46 62 43
f 45 23 44
f 63 45 44
f 46 45 64
f 47 65 48
f 48 65 51
f 49 66 47
f 51 65 67
f 49 50 66
f 68 50 24
f 68 24 1
f 69 51 67
f 28 68 1
f 28 70 68
f 71 70 28
f 71 28 72
f 72 28 52
f 69 27 51
f 27 69 30
f 52 73 72
f 52 53 73
f 74 54 30
f 53 55 73
f 75 76 73
f 75 73 59
f 59 73 55
f 59 38 75
f 39 37 77
f 18 20 61
f 40 39 77
f 40 77 78
f 40 78 79
f 79 42 40
f 42 79 44
f 46 64 62
f 63 44 79
f 64 45 63
f 63 80 64
f 81 47 66
f 47 81 82
f 66 50 81
f 82 65 47
f 65 83 84
f 84 67 65
f 50 68 85
f 68 70 85
f 86 69 67
f 87 69 86
f 87 30 69
f 72 73 88
f 74 30 87
f 76 88 73
f 74 56 54
f 88 76 89
f 90 58 57
f 90 91 58
f 60 58 91
f 37 60 92
f 75 38 61
f 77 37 92
f 20 93 61
f 41 93 20
f 41 62 93
f 94 95 62
f 62 64 94
f 63 79 96
f 63 96 97
f 97 80 63
f 98 82 99
f 82 81 99
f 50 100 81
f 83 65 98
f 82 98 65
f 85 100 50
f 98 101 83
f 102 85 103
f 85 70 103
f 86 84 83
f 84 86 67
f 83 101 104
f 104 86 83
f 104 101 105
f 71 72 106
f 72 88 106
f 87 86 104
f 107 87 104
f 88 108 106
f 74 87 107
f 88 89 108
f 76 109 89
f 56 90 57
f 109 76 75
f 75 110 109
f 92 60 91
f 75 111 110
f 75 61 111
f 61 93 111
f 112 77 92
f 78 77 112
f 62 95 93
f 78 113 79
f 113 114 79
f 79 114 96
f 80 94 64
f 96 115 97
f 116 117 99
f 99 117 118
f 81 116 99
f 98 118 119
f 118 98 99
f 81 120 116
f 81 100 120
f 121 98 119
f 122 120 100
f 122 100 85
f 121 101 98
f 102 123 124
f 124 122 102
f 85 102 122
f 101 121 125
f 125 105 101
f 125 126 127
f 128 102 103
f 125 127 105
f 103 70 128
f 105 127 129
f 128 70 71
f 130 104 105
f 71 106 128
f 105 129 130
f 104 130 107
f 129 131 130
f 131 107 130
f 107 131 132
f 133 108 89
f 107 132 74
f 133 89 109
f 90 56 134
f 135 91 90
f 110 111 136
f 91 135 137
f 137 92 91
f 111 138 136
f 139 138 111
f 93 139 111
f 112 92 137
f 140 93 141
f 95 141 93
f 78 112 142
f 78 142 113
f 143 144 141
f 142 145 113
f 143 141 95
f 145 114 113
f 143 114 145
f 115 95 94
f 95 115 143
f 96 114 143
f 143 115 96
f 94 97 115
f 94 80 97
f 146 117 116
f 147 116 120
f 120 148 147
f 148 120 122
f 148 122 124
f 149 124 123
f 121 119 150
f 151 123 102
f 150 125 121
f 150 126 125
f 102 128 151
f 127 126 152
f 127 152 129
f 128 153 154
f 153 128 106
f 106 108 153
f 132 131 155
f 155 156 132
f 156 157 132
f 74 132 157
f 109 158 133
f 56 74 157
f 157 134 56
f 158 109 159
f 110 136 109
f 134 160 90
f 135 90 160
f 161 138 139
f 162 139 93
f 162 163 139
f 140 162 93
f 141 164 140
f 141 144 164
f 142 144 145
f 144 143 145
f 116 165 146
f 116 147 165
f 118 117 146
f 166 119 118
f 149 148 124
f 118 146 166
f 123 151 149
f 119 166 150
f 128 154 151
f 150 167 126
f 126 167 152
f 129 152 168
f 168 169 129
f 153 108 170
f 170 108 133
f 171 155 131
f 172 155 171
f 133 158 170
f 172 156 155
f 159 109 136
f 135 160 137
f 138 173 136
f 137 160 174
f 139 175 161
f 176 137 174
f 175 139 163
f 177 175 163
f 176 112 137
f 112 176 178
f 178 179 112
f 142 112 179
f 179 180 142
f 144 180 164
f 144 142 180
f 181 182 149
f 147 182 183
f 147 148 182
f 149 182 148
f 151 181 149
f 184 146 165
f 146 184 185
f 146 185 166
f 186 150 166
f 150 186 167
f 167 168 152
f 168 167 187
f 131 129 169
f 131 169 171
f 188 170 158
f 158 159 188
f 157 156 189
f 190 191 134
f 160 134 191
f 192 174 160
f 173 138 161
f 193 176 174
f 194 177 163
f 140 195 162
f 195 140 164
f 196 197 195
f 195 164 196
f 180 196 164
f 198 199 200
f 199 201 200
f 202 200 201
f 200 202 182
f 203 200 181
f 200 182 181
f 202 183 182
f 147 183 204
f 204 205 147
f 165 147 205
f 165 205 184
f 151 206 181
f 203 181 206
f 166 185 207
f 166 207 186
f 151 154 206
f 167 186 187
f 186 208 209
f 209 187 186
f 169 187 209
f 187 169 168
f 209 210 211
f 209 211 169
f 171 169 211
f 171 211 212
f 172 171 212
f 213 188 214
f 156 172 212
f 215 214 188
f 134 157 189
f 189 216 134
f 216 190 134
f 191 190 217
f 217 214 191
f 188 159 215
f 159 218 215
f 218 159 136
f 192 160 191
f 219 136 173
f 174 192 220
f 221 173 161
f 220 193 174
f 178 176 193
f 193 222 178
f 175 177 194
f 163 162 194
f 222 179 178
f 223 179 222
f 195 197 162
f 197 196 224
f 180 179 223
f 223 225 180
f 225 196 180
f 225 226 196
f 226 224 196
f 227 198 228
f 229 228 198
f 230 229 231
f 199 198 227
f 231 229 198
f 199 232 201
f 232 199 227
f 233 201 232
f 233 202 201
f 231 198 203
f 198 200 203
f 233 183 202
f 204 183 233
f 234 205 204
f 184 205 235
f 205 234 235
f 184 235 185
f 234 236 235
f 185 237 207
f 237 185 235
f 154 238 206
f 208 186 207
f 207 237 208
f 154 239 238
f 208 210 209
f 239 154 153
f 208 240 210
f 211 210 212
f 239 153 170
f 213 170 188
f 213 214 241
f 242 189 212
f 217 241 214
f 156 212 189
f 217 190 216
f 214 243 244
f 243 214 215
f 243 215 218
f 245 244 243
f 218 246 243
f 191 214 244
f 191 244 245
f 218 219 246
f 192 191 245
f 219 218 136
f 219 173 221
f 193 220 247
f 175 194 248
f 247 222 193
f 249 194 162
f 249 162 197
f 197 250 249
f 250 197 224
f 251 225 223
f 252 226 225
f 252 224 226
f 253 229 230
f 254 229 253
f 229 254 228
f 255 227 228
f 256 230 257
f 230 231 257
f 227 255 232
f 203 258 231
f 257 231 258
f 238 258 203
f 206 238 203
f 234 204 236
f 259 235 236
f 259 237 235
f 260 237 259
f 261 208 237
f 260 261 237
f 240 261 260
f 240 208 261
f 170 213 239
f 262 213 241
f 263 262 241
f 263 241 217
f 217 216 264
f 264 263 217
f 265 246 219
f 266 245 243
f 267 265 219
f 192 245 266
f 267 219 221
f 220 268 247
f 175 248 161
f 222 269 223
f 269 251 223
f 225 251 252
f 224 270 250
f 252 270 224
f 253 230 256
f 271 228 254
f 228 271 255
f 272 255 271
f 255 272 232
f 273 232 272
f 232 273 233
f 204 233 274
f 274 236 204
f 275 258 238
f 276 259 236
f 275 238 277
f 260 278 240
f 277 238 239
f 278 279 240
f 210 240 279
f 212 210 279
f 212 279 280
f 213 281 239
f 212 280 242
f 262 282 213
f 262 263 283
f 283 282 262
f 264 283 263
f 216 189 284
f 264 216 284
f 284 285 264
f 286 246 265
f 265 287 286
f 246 286 243
f 266 288 192
f 192 288 220
f 289 267 221
f 288 268 220
f 290 161 248
f 247 268 291
f 222 247 292
f 249 293 194
f 250 293 249
f 252 251 294
f 250 270 295
f 252 294 296
f 270 252 296
f 297 298 253
f 297 253 299
f 271 254 300
f 299 253 301
f 256 301 253
f 300 272 271
f 272 300 302
f 299 301 303
f 256 257 304
f 302 273 272
f 304 301 256
f 258 304 257
f 233 273 305
f 305 306 233
f 304 307 301
f 274 233 306
f 304 258 275
f 308 236 274
f 236 308 276
f 275 307 304
f 275 309 307
f 259 276 310
f 309 275 277
f 239 311 277
f 278 280 279
f 311 239 281
f 281 213 282
f 189 242 284
f 282 283 312
f 264 285 283
f 313 243 286
f 266 243 313
f 267 314 265
f 267 289 314
f 315 288 266
f 288 315 316
f 268 288 316
f 161 289 221
f 316 291 268
f 290 289 161
f 290 248 293
f 248 194 293
f 269 222 292
f 269 294 251
f 295 293 250
f 317 295 270
f 294 318 296
f 270 296 319
f 319 317 270
f 318 319 296
f 298 320 321
f 298 321 253
f 322 323 320
f 323 321 320
f 253 321 254
f 324 325 297
f 300 254 321
f 323 300 321
f 297 299 324
f 324 299 303
f 322 302 323
f 300 323 302
f 326 322 327
f 305 302 322
f 303 301 328
f 326 305 322
f 273 302 305
f 306 305 326
f 329 306 326
f 307 328 301
f 306 329 274
f 308 329 330
f 274 329 308
f 307 309 331
f 330 276 308
f 310 260 259
f 332 309 277
f 310 333 260
f 333 334 260
f 278 260 334
f 280 278 334
f 334 335 280
f 242 280 335
f 336 281 282
f 335 284 242
f 284 337 285
f 266 313 315
f 314 289 338
f 291 339 247
f 292 247 339
f 290 293 340
f 340 293 295
f 292 341 269
f 341 342 269
f 294 269 342
f 317 343 295
f 317 319 318
f 344 345 320
f 320 298 344
f 298 346 344
f 320 345 347
f 298 297 346
f 322 320 347
f 297 325 346
f 322 347 348
f 349 322 348
f 350 327 349
f 349 327 322
f 327 350 351
f 327 351 352
f 327 329 326
f 327 352 330
f 330 329 327
f 307 331 328
f 352 353 330
f 354 330 353
f 330 354 276
f 310 276 354
f 355 310 354
f 331 309 332
f 333 310 355
f 356 277 311
f 357 335 334
f 281 336 311
f 358 335 357
f 358 359 335
f 312 336 282
f 284 335 359
f 336 312 360
f 359 337 284
f 361 360 312
f 286 362 363
f 362 286 287
f 283 361 312
f 285 361 283
f 285 337 361
f 286 363 313
f 287 314 362
f 314 287 265
f 364 315 313
f 316 315 364
f 316 364 365
f 365 291 316
f 338 289 290
f 290 366 338
f 339 291 365
f 290 367 366
f 367 290 340
f 340 368 367
f 369 295 343
f 318 294 342
f 317 370 343
f 344 371 345
f 344 346 371
f 345 372 347
f 373 346 325
f 348 347 374
f 375 349 348
f 324 376 325
f 351 350 377
f 303 378 324
f 376 324 378
f 379 378 303
f 380 351 377
f 351 380 352
f 328 379 303
f 352 380 381
f 353 352 381
f 381 354 353
f 331 379 328
f 382 379 331
f 355 354 383
f 331 332 382
f 355 384 333
f 277 356 332
f 334 333 385
f 357 334 385
f 385 386 357
f 386 358 357
f 386 387 358
f 387 388 358
f 336 363 311
f 389 311 362
f 363 362 311
f 359 358 388
f 363 336 360
f 388 390 359
f 337 359 390
f 363 360 313
f 391 392 337
f 361 337 392
f 360 361 313
f 361 392 364
f 313 361 364
f 364 392 365
f 393 314 338
f 338 366 393
f 394 339 365
f 367 393 366
f 395 339 394
f 339 395 396
f 396 292 339
f 295 368 340
f 368 295 369
f 341 292 396
f 369 343 370
f 397 318 342
f 317 318 397
f 397 370 317
f 398 345 371
f 345 398 372
f 371 346 373
f 347 372 374
f 375 348 374
f 373 325 376
f 349 375 350
f 350 375 377
f 399 380 377
f 379 400 378
f 400 379 401
f 382 401 379
f 354 381 383
f 401 402 400
f 384 355 383
f 402 401 403
f 382 332 356
f 382 356 403
f 401 382 403
f 404 333 384
f 385 333 404
f 405 385 404
f 406 405 404
f 405 386 385
f 403 356 407
f 408 405 406
f 311 389 356
f 407 356 389
f 408 386 405
f 386 408 387
f 388 409 390
f 389 362 314
f 337 390 409
f 337 409 391
f 314 410 389
f 392 391 411
f 410 314 393
f 392 411 365
f 411 412 365
f 412 394 365
f 396 395 413
f 396 413 414
f 369 415 368
f 369 416 415
f 396 414 341
f 416 369 370
f 416 370 397
f 342 417 397
f 418 398 371
f 371 419 418
f 398 420 372
f 371 373 419
f 372 420 374
f 376 419 373
f 421 375 374
f 421 374 420
f 378 422 376
f 377 375 399
f 399 375 421
f 423 399 421
f 399 381 380
f 400 424 378
f 425 399 423
f 426 425 423
f 399 425 381
f 425 426 427
f 425 427 428
f 381 425 383
f 428 383 425
f 429 383 428
f 383 429 384
f 430 404 384
f 403 431 402
f 431 403 407
f 407 432 431
f 408 406 433
f 432 407 434
f 433 435 408
f 408 435 387
f 434 407 389
f 434 389 436
f 388 387 437
f 437 409 388
f 436 389 410
f 438 410 393
f 438 393 367
f 394 439 395
f 440 367 368
f 440 368 415
f 416 440 415
f 341 414 342
f 342 414 417
f 441 398 418
f 441 420 398
f 442 419 376
f 442 376 422
f 443 421 420
f 443 444 421
f 421 444 445
f 378 424 422
f 423 421 445
f 445 446 423
f 426 423 446
f 447 427 426
f 400 402 424
f 447 428 427
f 428 447 448
f 449 429 428
f 429 449 430
f 450 431 432
f 432 451 450
f 434 451 432
f 437 387 435
f 452 436 453
f 436 452 434
f 409 437 454
f 455 456 409
f 391 409 456
f 411 391 456
f 456 457 411
f 453 436 410
f 457 412 411
f 458 410 438
f 412 439 394
f 440 438 367
f 413 395 439
f 440 458 438
f 459 460 461
f 458 440 460
f 460 440 461
f 440 416 461
f 416 397 461
f 397 417 461
f 441 418 462
f 463 462 418
f 464 441 462
f 465 418 419
f 419 442 465
f 443 420 464
f 441 464 420
f 466 446 445
f 426 446 467
f 426 467 447
f 468 447 467
f 448 447 468
f 428 448 449
f 430 384 429
f 431 469 402
f 431 450 469
f 430 406 404
f 470 406 430
f 433 406 470
f 434 452 451
f 454 435 433
f 437 435 454
f 454 455 409
f 410 471 453
f 471 410 458
f 471 458 460
f 460 459 471
f 412 472 439
f 473 413 439
f 474 459 461
f 413 473 475
f 475 414 413
f 461 476 474
f 476 461 417
f 414 475 477
f 417 414 477
f 478 462 463
f 463 465 478
f 465 463 418
f 462 478 464
f 479 443 464
f 444 443 479
f 424 480 422
f 467 446 466
f 481 448 468
f 448 481 449
f 482 449 481
f 483 430 449
f 449 482 483
f 483 482 484
f 483 485 430
f 430 485 470
f 483 484 485
f 470 485 433
f 486 451 452
f 454 433 485
f 452 487 486
f 453 487 452
f 455 457 456
f 471 487 453
f 488 412 457
f 472 412 488
f 439 472 473
f 417 489 476
f 477 489 417
f 442 490 465
f 479 464 478
f 422 480 442
f 445 444 491
f 491 466 445
f 467 466 492
f 468 467 493
f 468 493 494
f 481 468 494
f 494 495 481
f 482 481 495
f 451 496 450
f 484 497 485
f 496 451 486
f 485 497 498
f 454 485 498
f 498 455 454
f 455 499 457
f 457 499 500
f 457 500 488
f 471 501 487
f 501 471 459
f 472 488 500
f 459 502 501
f 502 459 474
f 473 472 503
f 503 475 473
f 477 475 504
f 504 489 477
f 478 465 490
f 442 505 490
f 479 506 444
f 505 442 480
f 506 491 444
f 507 480 424
f 492 466 491
f 508 467 492
f 507 424 402
f 493 467 508
f 402 469 507
f 482 495 509
f 510 484 482
f 450 496 511
f 512 511 496
f 486 512 496
f 512 486 513
f 455 498 514
f 486 487 513
f 513 487 515
f 499 455 516
f 515 487 517
f 487 501 517
f 472 500 518
f 519 503 472
f 476 520 474
f 503 521 475
f 504 475 521
f 478 522 523
f 478 490 522
f 478 523 479
f 479 524 506
f 525 491 506
f 526 527 508
f 526 508 492
f 508 527 528
f 493 508 528
f 493 528 529
f 494 493 529
f 529 530 494
f 530 495 494
f 530 531 495
f 510 482 509
f 532 450 511
f 510 497 484
f 533 497 510
f 533 498 497
f 512 534 511
f 498 533 514
f 455 514 535
f 516 455 535
f 499 536 500
f 536 537 500
f 501 502 517
f 537 518 500
f 519 472 518
f 538 476 489
f 504 521 538
f 504 538 489
f 523 522 539
f 524 479 523
f 522 490 505
f 525 506 524
f 507 540 480
f 491 526 492
f 540 507 541
f 530 529 542
f 507 469 543
f 531 509 495
f 469 450 532
f 509 531 544
f 509 545 510
f 532 511 534
f 533 510 545
f 545 514 533
f 512 546 534
f 546 512 513
f 547 513 515
f 517 548 515
f 548 517 549
f 502 549 517
f 502 550 549
f 474 550 502
f 550 474 520
f 476 551 520
f 551 476 538
f 521 551 538
f 539 524 523
f 540 522 505
f 480 540 505
f 526 491 525
f 552 540 541
f 528 542 529
f 543 541 507
f 553 530 542
f 553 531 530
f 531 553 544
f 545 509 544
f 544 554 545
f 534 555 532
f 545 556 514
f 546 555 534
f 546 513 547
f 514 557 535
f 516 535 557
f 557 499 516
f 548 547 515
f 536 499 558
f 559 548 549
f 537 536 558
f 558 560 537
f 518 537 560
f 519 518 560
f 519 521 503
f 519 561 521
f 551 521 561
f 562 524 539
f 563 539 522
f 524 564 525
f 526 525 565
f 566 527 526
f 527 566 528
f 528 566 567
f 541 543 552
f 528 567 542
f 553 542 567
f 567 568 553
f 567 569 568
f 469 570 543
f 568 544 553
f 570 469 532
f 554 544 568
f 532 555 571
f 572 554 573
f 554 572 545
f 572 556 545
f 556 557 514
f 499 557 574
f 499 574 558
f 558 575 560
f 559 549 550
f 560 575 576
f 519 560 576
f 520 577 550
f 578 577 520
f 579 561 519
f 551 578 520
f 551 561 578
f 524 562 564
f 539 563 562
f 580 522 540
f 565 525 564
f 580 540 552
f 566 526 565
f 581 552 543
f 543 570 581
f 569 567 566
f 569 582 583
f 583 568 569
f 532 571 570
f 568 583 554
f 573 554 583
f 583 582 573
f 584 556 572
f 557 556 584
f 584 574 557
f 547 548 585
f 574 586 558
f 586 575 558
f 559 550 587
f 576 588 519
f 589 550 577
f 579 519 588
f 579 588 590
f 579 578 561
f 578 579 590
f 578 590 591
f 592 564 562
f 562 563 592
f 580 563 522
f 593 592 563
f 594 564 592
f 580 552 595
f 564 594 565
f 592 596 594
f 565 594 597
f 566 565 597
f 598 566 597
f 570 599 581
f 569 566 598
f 600 569 598
f 600 598 601
f 602 582 569
f 569 600 602
f 599 570 571
f 571 603 599
f 555 603 571
f 573 582 604
f 573 605 572
f 606 555 546
f 584 572 605
f 546 547 585
f 584 586 574
f 548 607 585
f 607 548 559
f 559 608 607
f 608 559 587
f 576 575 609
f 609 610 576
f 589 587 550
f 588 576 610
f 577 611 612
f 578 611 577
f 611 613 612
f 612 613 614
f 578 591 611
f 615 613 611
f 591 590 616
f 591 615 611
f 613 615 617
f 592 593 596
f 593 563 580
f 580 595 593
f 595 552 581
f 618 596 593
f 618 594 596
f 597 594 618
f 619 598 597
f 620 581 599
f 598 619 601
f 599 603 621
f 600 601 622
f 622 602 600
f 604 582 602
f 603 555 606
f 605 573 623
f 546 624 606
f 605 625 584
f 546 585 624
f 586 584 625
f 607 626 585
f 626 607 608
f 575 586 627
f 577 628 589
f 577 629 628
f 588 630 590
f 629 577 612
f 612 631 629
f 631 612 614
f 614 632 631
f 613 632 614
f 632 613 633
f 634 591 616
f 634 615 591
f 633 613 617
f 617 615 635
f 593 595 620
f 593 620 618
f 595 581 620
f 636 618 620
f 597 618 619
f 637 618 636
f 618 637 619
f 637 636 638
f 621 620 599
f 621 636 620
f 619 639 601
f 639 619 637
f 621 640 636
f 622 601 639
f 621 603 640
f 602 622 641
f 603 606 640
f 573 604 623
f 585 642 624
f 625 643 586
f 642 585 626
f 643 627 586
f 644 608 587
f 587 645 644
f 627 609 575
f 587 589 645
f 628 645 589
f 588 610 646
f 630 588 646
f 590 630 647
f 647 616 590
f 629 632 648
f 632 629 631
f 648 632 633
f 648 633 635
f 615 634 635
f 633 617 635
f 636 640 638
f 638 649 650
f 638 640 649
f 602 641 604
f 640 606 649
f 606 624 649
f 649 624 651
f 642 651 624
f 625 652 643
f 652 627 643
f 645 653 644
f 653 645 628
f 610 609 646
f 628 654 653
f 654 628 629
f 629 655 654
f 655 629 648
f 655 648 635
f 634 655 635
f 638 656 637
f 657 637 656
f 658 637 657
f 637 658 639
f 650 656 638
f 659 622 639
f 659 639 658
f 657 656 650
f 622 660 641
f 661 649 651
f 625 605 662
f 661 651 642
f 608 663 626
f 663 608 644
f 609 627 664
f 644 665 663
f 653 665 644
f 647 666 616
f 666 667 616
f 667 634 616
f 667 655 634
f 657 668 658
f 659 660 622
f 657 650 668
f 623 604 669
f 650 649 668
f 668 649 670
f 605 623 662
f 649 661 670
f 662 671 625
f 642 672 661
f 652 625 671
f 671 673 652
f 672 642 626
f 672 626 663
f 627 652 664
f 674 663 665
f 675 665 653
f 646 676 630
f 647 630 676
f 677 654 655
f 655 678 677
f 678 655 667
f 658 679 659
f 680 658 668
f 604 641 681
f 604 681 669
f 623 669 662
f 682 661 672
f 652 673 683
f 664 652 683
f 674 672 663
f 675 674 665
f 653 654 675
f 647 676 666
f 684 641 660
f 659 679 660
f 680 679 658
f 641 684 681
f 668 670 680
f 685 670 661
f 671 662 686
f 686 687 671
f 673 671 687
f 672 688 682
f 674 688 672
f 664 689 609
f 646 609 689
f 676 646 690
f 676 691 666
f 667 666 691
f 691 692 667
f 692 678 667
f 681 684 693
f 679 680 694
f 680 670 694
f 670 685 694
f 662 669 695
f 695 686 662
f 661 696 685
f 696 661 682
f 697 673 687
f 697 683 673
f 698 682 688
f 688 699 698
f 697 700 664
f 664 683 697
f 699 688 674
f 689 664 700
f 674 701 699
f 674 675 701
f 654 701 675
f 646 689 690
f 654 677 702
f 702 677 678
f 660 703 684
f 703 660 679
f 679 694 703
f 681 704 669
f 704 705 669
f 695 669 705
f 685 706 694
f 706 685 696
f 686 707 687
f 682 698 696
f 697 687 707
f 700 697 708
f 699 709 698
f 700 710 689
f 699 711 709
f 701 711 699
f 712 689 710
f 712 690 689
f 713 690 712
f 713 676 690
f 702 714 654
f 691 676 713
f 692 702 678
f 684 715 693
f 715 684 703
f 681 693 704
f 703 694 716
f 715 703 716
f 717 695 705
f 694 706 718
f 719 695 717
f 686 695 719
f 720 719 717
f 696 721 706
f 707 686 719
f 721 696 698
f 707 719 708
f 698 722 721
f 708 697 707
f 698 723 722
f 698 724 723
f 724 698 709
f 709 711 724
f 725 711 701
f 725 701 654
f 654 714 725
f 692 726 702
f 727 728 729
f 729 728 730
f 693 715 731
f 731 704 693
f 730 732 729
f 704 731 705
f 716 733 715
f 734 717 705
f 733 731 715
f 735 705 731
f 731 736 735
f 737 716 694
f 694 718 737
f 732 738 729
f 705 735 734
f 731 739 736
f 731 733 739
f 740 718 706
f 732 730 741
f 742 741 730
f 743 720 717
f 744 740 706
f 720 743 745
f 744 706 721
f 721 746 744
f 747 741 742
f 741 747 723
f 748 719 720
f 738 732 749
f 746 721 722
f 732 741 749
f 741 723 749
f 723 747 722
f 748 750 719
f 750 708 719
f 751 749 752
f 700 708 750
f 750 753 700
f 749 723 752
f 700 753 710
f 752 723 724
f 754 724 711
f 752 724 755
f 712 710 756
f 754 755 724
f 752 755 757
f 725 754 711
f 712 756 758
f 757 755 759
f 754 759 755
f 758 713 712
f 754 725 714
f 714 760 754
f 761 713 758
f 761 691 713
f 714 702 760
f 691 761 762
f 702 726 760
f 692 691 762
f 762 726 692
f 727 729 763
f 729 764 763
f 727 765 728
f 764 766 763
f 729 738 764
f 738 767 764
f 730 728 765
f 764 768 766
f 765 769 730
f 768 764 767
f 740 770 771
f 718 740 771
f 770 744 772
f 734 743 717
f 737 733 716
f 770 740 744
f 743 773 745
f 747 742 774
f 720 745 748
f 775 746 747
f 747 746 722
f 767 738 776
f 738 749 751
f 738 751 776
f 777 751 752
f 776 751 777
f 710 753 778
f 756 710 778
f 779 752 757
f 780 757 759
f 758 756 781
f 782 759 754
f 760 782 754
f 762 783 726
f 784 727 763
f 785 784 763
f 763 766 785
f 786 766 768
f 771 770 772
f 787 772 744
f 769 742 730
f 734 735 788
f 735 736 788
f 789 786 768
f 768 767 789
f 773 790 745
f 787 744 746
f 746 775 787
f 748 745 790
f 790 791 748
f 792 767 793
f 776 793 767
f 748 794 750
f 794 795 750
f 795 753 750
f 793 776 777
f 777 779 796
f 779 777 752
f 778 781 756
f 782 780 759
f 781 797 758
f 761 758 797
f 798 782 760
f 798 760 799
f 762 761 800
f 726 799 760
f 800 801 762
f 783 762 801
f 726 783 799
f 801 799 783
f 784 765 727
f 802 771 772
f 769 765 803
f 785 766 786
f 771 802 718
f 804 718 802
f 787 805 772
f 806 734 788
f 788 736 807
f 808 737 718
f 734 806 743
f 739 807 736
f 718 804 808
f 809 733 737
f 774 742 769
f 773 810 790
f 811 787 775
f 787 811 805
f 767 812 789
f 775 813 811
f 813 775 747
f 812 767 792
f 794 748 791
f 777 814 793
f 753 815 778
f 781 778 815
f 779 757 780
f 782 816 780
f 798 816 782
f 761 797 800
f 799 817 798
f 801 818 799
f 785 786 819
f 803 820 769
f 802 772 805
f 809 807 739
f 773 806 821
f 806 773 743
f 739 733 809
f 773 821 810
f 809 737 808
f 819 786 822
f 823 774 769
f 786 789 822
f 790 810 824
f 793 825 792
f 814 825 793
f 826 753 795
f 796 827 814
f 796 814 777
f 753 828 815
f 796 779 827
f 797 781 829
f 816 798 817
f 799 830 817
f 818 830 799
f 801 800 831
f 818 801 831
f 831 832 818
f 784 833 834
f 834 835 784
f 765 784 835
f 803 765 835
f 804 802 836
f 836 837 808
f 788 807 838
f 837 809 808
f 805 839 802
f 806 788 838
f 837 807 809
f 808 804 836
f 823 769 820
f 839 805 811
f 774 823 840
f 812 822 789
f 840 747 774
f 790 841 791
f 840 813 747
f 811 813 840
f 825 812 792
f 794 791 842
f 795 794 842
f 826 795 842
f 753 826 828
f 815 828 781
f 828 829 781
f 843 779 780
f 780 844 843
f 845 816 817
f 797 846 800
f 817 830 845
f 818 832 830
f 834 833 847
f 803 835 848
f 833 784 785
f 785 819 849
f 848 820 803
f 848 850 820
f 851 836 802
f 802 839 851
f 852 807 837
f 853 838 807
f 810 821 824
f 824 841 790
f 822 854 855
f 854 822 812
f 812 825 854
f 841 842 791
f 814 827 825
f 779 856 827
f 780 816 844
f 846 857 800
f 831 800 857
f 858 830 832
f 834 847 859
f 835 834 859
f 833 785 849
f 836 851 860
f 837 836 860
f 819 861 849
f 851 839 862
f 850 863 820
f 852 864 807
f 864 853 807
f 865 806 838
f 865 838 853
f 806 865 866
f 867 821 806
f 861 819 822
f 806 866 867
f 861 822 855
f 823 820 863
f 821 867 824
f 841 824 867
f 863 868 823
f 869 839 811
f 811 868 869
f 840 823 868
f 868 811 840
f 825 870 854
f 842 871 872
f 870 825 827
f 826 842 872
f 843 856 779
f 829 828 873
f 829 874 797
f 874 875 797
f 846 797 875
f 844 816 845
f 857 876 831
f 877 858 832
f 876 877 831
f 877 832 831
f 878 859 847
f 878 847 833
f 835 859 848
f 878 833 849
f 879 859 878
f 859 850 848
f 878 849 879
f 859 879 850
f 879 880 850
f 849 861 879
f 860 852 837
f 839 869 862
f 881 867 866
f 863 869 868
f 861 855 882
f 855 854 882
f 841 867 883
f 883 871 841
f 842 841 871
f 884 885 826
f 828 826 885
f 827 856 886
f 885 887 828
f 843 888 856
f 873 828 887
f 888 843 889
f 844 889 843
f 844 890 889
f 845 890 844
f 830 858 845
f 877 891 858
f 891 877 876
f 851 892 860
f 893 892 851
f 851 862 893
f 861 880 879
f 860 892 852
f 853 864 894
f 850 895 863
f 882 880 861
f 895 850 880
f 880 896 895
f 880 882 896
f 894 865 853
f 893 862 869
f 895 869 863
f 867 881 883
f 896 882 897
f 854 898 882
f 898 854 870
f 870 899 898
f 899 870 827
f 827 900 899
f 884 826 872
f 885 884 901
f 886 900 827
f 901 887 885
f 886 856 888
f 874 829 873
f 889 902 888
f 902 889 890
f 858 903 845
f 846 904 857
f 903 858 891
f 891 904 903
f 904 891 876
f 876 857 904
f 905 864 852
f 906 894 864
f 894 906 865
f 892 905 852
f 907 866 865
f 864 905 906
f 907 881 866
f 893 869 908
f 896 897 895
f 909 895 897
f 882 898 897
f 897 898 909
f 883 910 871
f 900 911 899
f 911 900 886
f 911 886 912
f 887 901 913
f 913 873 887
f 913 914 873
f 912 886 915
f 873 914 874
f 902 915 888
f 886 888 915
f 914 875 874
f 914 916 875
f 902 917 915
f 916 918 875
f 890 917 902
f 918 904 875
f 917 890 919
f 904 918 920
f 846 875 904
f 921 890 845
f 845 903 921
f 920 903 904
f 865 922 907
f 922 865 906
f 923 906 905
f 905 924 923
f 905 892 924
f 893 925 892
f 908 925 893
f 908 869 895
f 883 881 926
f 895 909 908
f 927 908 909
f 883 926 910
f 898 927 909
f 871 910 928
f 899 927 898
f 872 871 928
f 884 872 928
f 911 929 899
f 914 913 930
f 914 931 916
f 917 932 915
f 918 916 933
f 932 917 934
f 933 935 918
f 920 918 935
f 935 936 920
f 903 920 936
f 919 934 917
f 921 919 890
f 936 921 903
f 907 937 881
f 926 881 937
f 938 906 923
f 892 939 924
f 892 925 939
f 940 884 928
f 899 929 927
f 901 884 913
f 911 941 929
f 941 911 912
f 941 912 915
f 931 914 930
f 942 915 932
f 933 916 931
f 943 942 932
f 932 934 943
f 936 935 944
f 945 919 921
f 921 936 945
f 946 937 907
f 907 947 946
f 907 922 947
f 946 948 937
f 906 938 922
f 948 926 937
f 908 949 925
f 948 950 926
f 950 910 926
f 951 949 908
f 951 908 927
f 950 952 910
f 928 910 952
f 952 940 928
f 927 929 953
f 940 913 884
f 954 929 941
f 930 913 955
f 956 931 930
f 957 941 915
f 957 915 942
f 931 956 958
f 958 933 931
f 935 933 958
f 945 944 959
f 944 945 936
f 919 945 959
f 943 934 919
f 960 938 923
f 924 960 923
f 949 939 925
f 927 961 951
f 953 961 927
f 952 962 940
f 963 962 964
f 940 962 955
f 962 958 955
f 958 962 963
f 929 954 953
f 940 955 913
f 965 958 963
f 956 955 958
f 941 957 954
f 955 956 930
f 966 965 967
f 966 968 965
f 965 968 944
f 944 958 965
f 935 958 944
f 968 959 944
f 943 919 959
f 969 946 947
f 970 969 947
f 947 922 970
f 922 938 970
f 970 938 960
f 924 971 960
f 972 924 939
f 946 950 948
f 946 969 950
f 924 972 971
f 969 973 950
f 939 974 972
f 974 939 949
f 974 949 951
f 950 973 952
f 951 961 974
f 975 952 973
f 961 953 974
f 975 962 952
f 964 962 975
f 974 953 976
f 964 977 963
f 953 959 976
f 953 954 959
f 963 977 965
f 965 977 978
f 965 978 967
f 976 959 979
f 979 966 967
f 959 966 979
f 980 959 954
f 980 954 957
f 966 959 968
f 942 980 957
f 959 980 943
f 943 980 942
f 969 970 981
f 970 982 981
f 982 970 960
f 982 960 971
f 971 983 982
f 973 969 981
f 971 984 983
f 984 971 972
f 983 984 985
f 984 972 986
f 986 972 974
f 975 987 964
f 988 984 986
f 988 986 974
f 988 989 984
f 976 988 974
f 990 991 977
f 978 977 991
f 988 976 979
f 967 978 991
f 992 979 967
f 993 981 982
f 994 981 993
f 982 995 993
f 995 982 983
f 994 973 981
f 985 996 983
f 983 996 995
f 975 973 994
f 994 987 975
f 989 985 984
f 987 997 964
f 998 999 996
f 996 992 998
f 997 977 964
f 997 1000 977
f 992 996 985
f 985 989 992
f 1000 990 977
f 979 989 988
f 992 991 998
f 979 992 989
f 992 967 991
f 990 993 995
f 993 987 994
f 996 999 995
f 995 999 990
f 993 990 997
f 993 997 987
f 998 990 999
f 990 1000 997
f 998 991 990
