# https://github.com/mikedh/trimesh
v 6.10890224 -21.36874160 -20.63747531
v 5.01929328 -19.48387822 -21.54210521
v 8.01185110 -13.85012497 -19.76147583
v 11.87737638 -14.59870177 -18.90753199
v 12.44576423 -15.55405739 -20.35131472
v 9.78726594 -20.97858007 -17.59863702
v 13.41860565 -23.45604304 -22.50400812
v 8.74533039 -18.50763918 -17.21263158
v 11.63086326 -25.47308188 -21.96871410
v 10.46323641 -14.68849030 -21.50857383
v 11.71353724 -20.21087918 -17.59430279
v 7.94286218 -15.81074061 -18.56996076
v 9.54498939 -23.70037800 -21.48074909
v 8.57419353 -20.21179370 -17.75640115
v 10.12402322 -24.01541008 -22.20527316
v 7.51896718 -19.21866007 -18.24791913
v 5.58858102 -20.39001773 -20.37804506
v 5.16140845 -19.68713776 -20.93149660
v 9.94832876 -15.32403877 -22.13340156
v 5.47737361 -19.82173845 -20.37478378
v 10.92310930 -17.46752133 -22.44313539
v 8.43636725 -16.47170159 -17.96390111
v 7.97781942 -16.75644015 -22.86790796
v 9.78011330 -18.86030370 -22.96392124
v 10.49179675 -13.61512865 -19.85405577
v 10.20384292 -20.98312754 -17.52519843
v 5.38346233 -16.61495069 -21.70186055
v 8.57522279 -22.44340434 -22.74690471
v 11.19822352 -20.20202268 -17.36211679
v 6.97501613 -22.36274924 -21.59194257
v 10.96505213 -21.58262823 -17.87526557
v 12.65758735 -16.09180746 -18.33697771
v 5.93044185 -21.41154796 -21.93708865
v 12.41535048 -16.19215204 -17.95541272
v 13.54286356 -25.94920950 -20.37649358
v 11.95740206 -25.02591208 -22.61204911
v 14.43812902 -21.90577036 -20.23914264
v 14.13080547 -21.27909811 -19.83740348
v 5.15109999 -18.24549680 -22.16936631
v 11.71979958 -23.05428642 -19.01093811
v 10.18968240 -20.61692456 -17.30616576
v 9.37921088 -17.87861781 -17.07595439
v 6.14239046 -21.68593957 -21.62323098
v 12.79616982 -21.15036012 -18.47570513
v 9.83531418 -23.93271129 -21.80162703
v 13.73270003 -20.57546490 -21.72838966
v 11.62796899 -25.15943709 -21.01724977
v 5.45118623 -16.41305571 -21.10854145
v 4.98535349 -18.73308738 -21.89993124
v 14.57061275 -21.68686448 -20.72576113
v 13.05401594 -22.05283066 -22.39566103
v 7.18130298 -14.29593686 -20.26447918
v 7.87191812 -14.31547280 -19.47349190
v 10.57780443 -24.42412595 -21.51549985
v 13.44884160 -20.32821067 -19.01491037
v 8.09083489 -20.28239327 -18.37307747
v 9.56201605 -22.02122712 -19.09459840
v 13.64824405 -19.14627858 -21.22622462
v 13.03741021 -17.78228334 -18.37826883
v 7.15818274 -20.26609979 -18.87612270
v 5.40069689 -18.49277299 -20.45742857
v 9.02664543 -14.26825247 -21.64103194
v 14.29375484 -21.06766742 -21.22232459
v 14.62160704 -24.97487895 -21.65068399
v 6.34324227 -18.24004480 -22.74777806
v 6.75387767 -21.85870636 -20.53667463
v 11.19091804 -22.73239734 -18.95922438
v 13.96541298 -20.87980911 -21.58025902
v 8.80736756 -22.91761478 -22.59010663
v 8.85942621 -20.30473903 -17.55429412
v 11.87214661 -18.56682644 -17.34794290
v 9.00482463 -20.83173868 -18.09051684
v 12.22957042 -15.00402734 -19.30836761
v 14.38781228 -23.44230982 -20.09075975
v 12.12078429 -22.94416791 -22.82286139
v 8.82819571 -22.70075979 -20.17025232
v 5.49747165 -20.64951293 -21.88805513
v 11.91191701 -15.93346943 -21.31871083
v 7.96733098 -13.67870622 -20.56997948
v 14.21975799 -26.39639904 -21.74182000
v 14.55554896 -22.96986978 -20.28704183
v 8.31149937 -22.44099452 -20.09196401
v 10.77449385 -24.12949204 -22.53327573
v 14.41795508 -20.95822779 -20.88305557
v 14.48988565 -21.74509939 -21.11787312
v 7.53010765 -16.32651105 -22.68707093
v 13.81253086 -21.69032551 -21.89693824
v 10.47431159 -17.20259547 -17.10232979
v 12.06715329 -20.62160155 -22.58153783
v 8.43837020 -23.07838054 -21.95330085
v 11.82561692 -24.36410076 -22.79231036
v 9.20606455 -13.43328262 -20.11173434
v 13.63643608 -19.10494096 -19.34123229
v 12.99936695 -26.48465516 -22.44645891
v 12.12873722 -17.86177575 -22.07196945
v 8.24013286 -13.64718367 -19.96474659
v 13.07605271 -19.96815948 -18.58146407
v 7.34801759 -13.86902360 -20.61855776
v 7.88111467 -18.56943323 -23.07055462
v 9.28520252 -18.91994675 -16.88913242
v 8.96676957 -15.31054024 -22.28224354
v 5.25883819 -17.00911059 -21.41235949
v 11.11451440 -15.72866409 -21.85662730
v 9.91941318 -13.62227829 -20.41589410
v 10.64620675 -16.00660942 -22.16249370
v 7.65744664 -14.33391941 -21.66376003
v 7.28832628 -22.38027274 -22.31153493
v 8.75046267 -14.61633846 -21.91667477
v 12.76468780 -15.90148132 -18.98124781
v 14.47411712 -25.13058824 -20.74399961
v 13.66344367 -27.57081034 -21.76293950
v 10.79515312 -15.56898966 -21.93938667
v 9.45224049 -22.58320711 -19.76739669
v 5.82703956 -20.94039844 -20.44157735
v 7.97345803 -19.31697717 -17.89681621
v 11.02749979 -24.34146768 -20.71154772
v 11.35201803 -13.99095981 -19.13700954
v 4.96189061 -18.67774879 -21.56171106
v 6.86841760 -21.68259733 -22.69430905
v 14.05294300 -26.83538305 -21.38631968
v 11.02963179 -23.40940726 -19.84106886
v 9.33556907 -20.67865854 -17.55397703
v 12.20933300 -18.01789047 -17.53031501
v 8.52463655 -21.61093050 -19.21631364
v 9.31362645 -23.59272189 -21.69827917
v 9.55052909 -13.53090376 -20.36211652
v 7.31695295 -18.50433034 -23.00226118
v 5.61364471 -15.93528811 -21.65098528
v 9.80262180 -19.63170987 -16.88910120
v 11.76590709 -19.52155775 -17.45177575
v 9.45414151 -22.29494194 -19.45030598
v 7.68017293 -17.08930778 -18.28410475
v 8.70712357 -15.87531842 -22.56075635
v 12.95062724 -19.37667476 -21.97732806
v 8.37667132 -23.04168594 -21.22743810
v 8.51311641 -22.77251510 -20.51213936
v 8.49161195 -22.09646498 -19.67828445
v 7.36772979 -14.05213358 -21.31243946
v 10.88324080 -20.66334412 -22.91219745
v 10.32804571 -23.85727555 -22.51261826
v 12.12970502 -16.48214421 -17.54773336
v 5.47258523 -20.62288812 -20.79178064
v 14.71252323 -23.83562247 -20.63317949
v 5.85850228 -15.65540744 -21.80859632
v 8.64792685 -19.57967200 -17.29558576
v 12.06005199 -21.04382625 -18.01098712
v 12.05259908 -25.84854890 -21.35401314
v 12.04741214 -15.84827199 -17.88868261
v 12.93080138 -23.00785729 -19.00947947
v 9.83605963 -23.91970136 -22.00161746
v 6.88349500 -15.19724978 -22.08072322
v 7.20755338 -20.86058311 -22.84857090
v 14.40143764 -24.63129678 -21.99926718
v 13.03909319 -16.41762610 -19.83903548
v 10.31318705 -13.58031352 -19.47084115
v 7.41077148 -14.94079493 -19.40103207
v 5.90217761 -15.33762799 -21.39233041
v 8.03634942 -17.39158439 -17.89756098
v 8.44023624 -20.91929759 -18.66457331
v 13.40538228 -17.99780578 -19.08110710
v 8.63894812 -15.21742266 -18.47421510
v 6.92501297 -21.73305788 -19.96846510
v 14.17667551 -20.50777681 -20.09441381
v 10.56366981 -24.31926432 -21.17618637
v 6.48937043 -17.35537100 -22.73570748
v 10.43814801 -19.75863373 -16.99555345
v 13.76226914 -18.97573775 -20.93273613
v 14.01100901 -23.64975512 -19.73809502
v 9.36665188 -13.39376525 -19.65300755
v 11.82231632 -22.73940338 -18.71507944
v 14.00637642 -19.39673497 -20.18958717
v 11.11917196 -19.12875199 -17.05009886
v 9.52792940 -23.64151452 -21.20826385
v 5.80590861 -15.62733952 -21.09045874
v 8.02552741 -18.57421174 -17.71270353
v 13.33460841 -26.33905883 -22.68381465
v 6.18146324 -20.74895569 -19.89879925
v 14.41511484 -25.55987645 -21.97288289
v 12.64180608 -24.33418483 -22.79768244
v 13.02116994 -18.63357693 -18.36963480
v 8.93351123 -13.64486652 -20.86589563
v 8.10479349 -22.64492511 -22.47613541
v 13.53836342 -22.28349565 -22.19169973
v 6.73950756 -14.25464088 -21.33714234
v 7.03318442 -18.97001443 -18.62177469
v 8.01880183 -13.83292953 -21.04653549
v 8.87670050 -23.25320888 -22.28584590
v 13.66625918 -18.32879928 -20.60567469
v 14.20726420 -25.39564660 -20.46639641
v 9.89344319 -17.99589921 -16.95988100
v 11.20977121 -24.93905126 -21.25516037
v 12.67710618 -24.74215372 -20.02493289
v 11.54922917 -25.16901289 -22.31122234
v 10.38036523 -18.68320772 -16.79274061
v 9.32923791 -16.20892841 -17.65292514
v 10.76526511 -24.30454079 -20.90830675
v 5.91081886 -19.11694788 -22.56096849
v 5.94565351 -16.25277551 -22.18678891
v 11.22701871 -21.26758810 -17.72616024
v 14.33789003 -25.97784448 -21.03563786
v 11.19056587 -15.84957847 -17.58180025
v 12.67885336 -23.44495032 -22.72699596
v 5.63496057 -19.20541020 -20.13613688
v 12.35091848 -15.23645587 -19.79157251
v 6.61162993 -19.03243275 -22.79546399
v 12.81817220 -15.93402127 -19.46539313
v 13.94512363 -24.28872403 -19.87639534
v 7.98239190 -15.11783858 -22.24916858
v 10.54404837 -21.86465091 -18.31550200
v 12.50417524 -25.13046325 -20.37904558
v 12.44930958 -16.32879869 -21.08514533
v 12.59935482 -21.12403109 -22.44809552
v 12.11340268 -21.88568671 -18.30548503
v 12.23916562 -15.53846296 -20.70946135
v 11.58065869 -22.05827869 -18.21860380
v 13.48038397 -27.58877673 -21.57223439
v 12.43216820 -15.33078666 -18.99233935
v 9.12232417 -14.41201228 -18.66423977
v 11.57113614 -24.62113432 -20.60278293
v 12.75779520 -16.77941503 -18.12466093
v 5.28065675 -17.69893227 -20.84989860
v 11.29080803 -23.17405140 -22.89075551
v 7.29599920 -18.51038753 -18.40565020
v 9.57419261 -15.96151545 -22.43354760
v 7.64343291 -20.89486243 -18.96671567
v 13.71599304 -25.13820419 -20.06438614
v 5.55436764 -20.99385022 -21.51290074
v 9.51814962 -21.26292893 -18.26498687
v 11.89485018 -14.54937841 -19.48293926
v 6.98861839 -14.90566879 -19.96630198
v 7.08518210 -20.96984990 -19.36740657
v 6.30732467 -19.75639369 -19.53266506
v 10.72333546 -23.06113216 -22.88950300
v 5.54028524 -16.67502452 -22.05897950
v 5.09382777 -18.42361043 -21.11690609
v 12.38478640 -25.07596200 -22.75593468
v 11.53470404 -14.39667960 -20.07149796
v 9.55001925 -23.45687416 -22.43598797
v 9.41337181 -19.85823630 -23.06099956
v 11.06825499 -18.28210584 -16.94189720
v 12.75261352 -16.03428094 -20.26730022
v 10.02983579 -14.63465928 -21.68144481
v 5.72248495 -17.79520629 -22.50250748
v 8.80458570 -13.87213272 -19.19746003
v 13.35621034 -18.95200754 -18.85819203
v 10.67923918 -22.69191395 -19.14719761
v 7.30218751 -20.08003703 -18.63355120
v 12.28959184 -25.66769155 -20.84612258
v 11.49575390 -14.96784338 -18.14422322
v 8.24051672 -14.01038810 -21.38041150
v 7.73804826 -22.34700172 -20.33298235
v 12.46201797 -24.65514946 -22.80722663
v 10.81508898 -24.45729265 -22.24721607
v 10.04184270 -22.21446802 -22.95897910
v 14.06433244 -26.44262054 -22.06176398
v 8.93019880 -22.11967433 -22.90321606
v 14.09856885 -23.00795163 -21.91616115
v 6.44103635 -21.31511103 -20.09563076
v 8.51436959 -21.57708917 -22.98046731
v 9.79918311 -13.42334812 -19.88012511
v 8.76938058 -16.33739506 -17.81659296
v 6.47383312 -16.41145805 -22.53507402
v 5.54635311 -16.94044302 -20.61290678
v 9.01554079 -15.27586980 -18.20392930
v 13.78283093 -20.67329185 -19.40841278
v 5.17840967 -20.03727281 -21.17547615
v 7.36706253 -22.33666116 -20.55172355
v 8.54575697 -23.18554403 -21.46328927
v 12.99894335 -26.86338235 -22.03928718
v 6.22174877 -20.14456190 -22.58697342
v 14.51692790 -25.72655466 -21.40485836
v 7.87941240 -20.67559659 -23.01201837
v 10.42451704 -23.23613256 -20.04991205
v 13.09081747 -18.84049964 -21.73192299
v 7.93111042 -21.58499287 -19.43081233
v 13.74923995 -26.68311936 -22.26915685
v 7.36696333 -21.39575217 -19.55570603
v 14.44756184 -23.09503972 -21.58796328
v 12.88857716 -22.95494662 -22.62609466
v 13.45048770 -17.31888403 -19.61302412
v 11.82186845 -14.63656609 -19.99257451
v 12.02420247 -24.73195716 -20.38067028
v 9.80205724 -23.16571249 -20.29993582
v 9.87018316 -13.50813195 -19.45773165
v 10.21645643 -23.64769999 -20.60188989
v 11.72683000 -18.07365393 -22.29749044
v 12.67589447 -23.55382255 -19.22454988
v 6.66093320 -21.26166260 -19.79690388
v 13.10367136 -25.06144203 -22.77983808
v 12.51118444 -17.77903094 -21.80388229
v 6.25876954 -15.13150961 -20.71111828
v 7.73753285 -19.74657930 -18.28993350
v 10.69374691 -14.17066646 -20.82885845
v 6.24263874 -21.03803140 -20.05662206
v 12.50511591 -26.52949872 -21.50862040
v 8.45220917 -20.96262202 -23.05311361
v 10.81101675 -23.74910965 -22.73939031
v 6.33714480 -21.58890332 -22.42465114
v 10.10353859 -14.15536205 -18.46599339
v 13.88177536 -19.91514029 -19.66236737
v 13.78724030 -25.53275281 -22.63268099
v 14.77955071 -23.70870923 -21.08702897
v 9.45891883 -14.02524328 -18.79853114
v 8.64771620 -20.72141514 -18.32114552
v 12.26722370 -23.75302355 -19.50458262
v 9.81473799 -17.52911513 -22.72828681
v 5.60306928 -21.04332262 -21.74981866
v 12.33838669 -22.77369675 -18.73764799
v 7.10648410 -17.38908291 -22.92281562
v 7.14158337 -22.38767579 -20.82273883
v 13.86527588 -23.92602392 -22.32872083
v 5.42625460 -19.17178068 -22.22110636
v 13.11958600 -16.46227922 -19.44900640
v 6.17026062 -18.51878289 -19.51674368
v 9.01233560 -18.14602121 -22.98729297
v 11.19065005 -23.63955858 -22.84189135
v 6.55958632 -20.64839199 -22.66527183
v 8.76172886 -13.54871191 -19.49372627
v 7.69124473 -13.98196809 -20.03880389
v 5.30232092 -20.06201111 -21.75475768
v 6.84471962 -19.82147838 -18.96140433
v 7.77265997 -15.06075104 -19.04942045
v 13.62895802 -27.01561811 -20.91918690
v 11.87656340 -17.43563683 -17.24957761
v 10.03564134 -21.75789939 -18.56743415
v 12.56132383 -17.57411302 -17.85332608
v 10.00732261 -21.66793222 -23.02601912
v 11.26826971 -21.92923570 -22.88661831
v 9.19690460 -21.39610535 -18.63551792
v 8.12642944 -14.43915860 -21.76863669
v 13.94574889 -22.43381074 -19.57350688
v 12.37976013 -26.01593365 -21.08688377
v 11.50570444 -14.16411998 -19.53669999
v 8.84169336 -17.76338580 -17.32704526
v 6.52815226 -15.47883051 -22.08125760
v 12.45709790 -26.50274599 -21.85031685
v 6.72825215 -16.13838327 -19.49653329
v 12.37565510 -19.39623652 -17.79348484
v 11.12916551 -16.74136147 -22.18705801
v 11.73463582 -23.26143646 -22.87494707
v 11.39623161 -14.16500744 -18.87266292
v 13.34863761 -24.22179051 -19.61079050
v 8.09510283 -22.65930013 -20.50502688
v 13.30358289 -27.11036079 -20.93911334
v 13.73399438 -18.33450499 -20.16046414
v 14.14645182 -21.62816859 -21.61105078
v 6.11891266 -16.95571372 -19.83325479
v 13.49253178 -17.47949510 -20.03283011
v 8.57676608 -13.53047914 -20.21599406
v 7.73150430 -22.69008753 -20.81150798
v 10.12183338 -22.90617915 -22.84613240
v 14.65681691 -25.05182179 -21.16056823
v 11.45020915 -14.76111346 -20.69530872
v 11.28919229 -19.07432384 -22.60310821
v 9.63704463 -16.49000255 -17.47756280
v 13.42986231 -26.49425117 -20.66020910
v 11.02881849 -21.90527518 -18.17394835
v 12.05524404 -16.98695409 -21.82297754
v 9.51096215 -23.58839814 -22.11898551
v 14.71178308 -24.44753683 -21.31724045
v 5.17467002 -17.49118497 -22.12277331
v 8.86534673 -13.49917876 -20.53210953
v 6.82503479 -14.08585456 -20.94648317
v 11.02739862 -23.91124992 -20.35880435
v 11.71278047 -16.74012606 -17.33660418
v 9.55624579 -14.84563389 -21.94093175
v 6.31718948 -21.73790739 -20.99722858
v 14.16718676 -20.06428396 -20.85675752
v 12.94901399 -25.94383093 -22.71821094
v 10.29483436 -18.45441011 -22.80248816
v 12.78220541 -17.19283126 -21.25713229
v 13.00176544 -24.35375530 -19.69922969
v 10.54651789 -15.57220386 -17.68256047
v 11.73730289 -25.11447315 -22.47698779
v 13.85197403 -19.21161927 -19.82278707
v 12.21682298 -20.50794901 -17.96098731
v 10.21968771 -21.21132386 -23.02964468
v 9.38471378 -20.40503823 -17.25294558
v 11.22413794 -16.97557774 -17.18264308
v 13.35480470 -17.62233939 -20.72373339
v 13.56694745 -27.67532457 -21.30832058
v 13.93272113 -26.06825366 -20.56201750
v 13.33580809 -18.86692602 -21.49771956
v 10.16950465 -16.46065357 -22.42991156
v 13.07728006 -21.86972681 -18.81341516
v 6.19650977 -20.39856942 -19.77028062
v 8.33999842 -17.76629451 -17.58091612
v 13.56351348 -17.92718063 -19.49281395
v 12.07215351 -21.93039812 -22.72658037
v 6.85284964 -17.34106437 -18.97231883
v 9.81837706 -13.80879943 -18.93640764
v 11.87201258 -14.97784845 -18.38988290
v 10.02752488 -14.02097696 -21.04493999
v 8.18965884 -17.48791259 -22.97896634
v 10.44620671 -13.81620386 -20.43113687
v 11.39438071 -18.60536207 -17.07610361
v 10.09436953 -15.86220082 -17.63873605
v 13.40648889 -23.53282354 -19.33504192
v 10.75481121 -13.79674549 -19.03536195
v 10.82914729 -22.12955030 -22.97077392
v 14.05848011 -25.99694931 -22.42689936
v 7.21150072 -13.84144708 -20.91310373
v 10.80617681 -14.48616451 -18.26405467
v 12.07940421 -24.37929661 -20.09622190
v 6.55734302 -22.02665902 -22.09463855
v 9.18693157 -23.04508840 -20.55628912
v 12.56017152 -19.49246602 -22.23136760
v 6.28336318 -15.83685365 -20.18358719
v 6.85696240 -14.51135059 -21.59776659
v 10.14152146 -23.27923528 -22.74004315
v 5.18256426 -17.16905700 -21.74399934
v 10.96046552 -13.90509161 -20.03626863
v 7.39834850 -14.89785198 -22.04150283
v 12.67934766 -18.92797904 -18.03564276
v 13.14265854 -16.64205549 -19.12716139
v 11.56039445 -15.94254141 -17.65275689
v 7.56246141 -22.68246009 -21.58405765
v 8.21670414 -19.39350817 -17.62964034
v 9.55890261 -23.49598709 -20.88258824
v 7.33135005 -15.74729797 -22.44358074
v 5.79999026 -16.49460122 -20.41871536
v 9.96489043 -14.57490511 -18.22496817
v 13.92680063 -25.41030075 -22.54909984
v 13.33212028 -21.27646107 -18.93297884
v 12.96305700 -16.77093017 -18.46602474
v 5.51482420 -17.06544419 -22.28668868
v 14.11339316 -19.78251003 -20.44555938
v 11.54287547 -20.88800332 -17.69314356
v 13.50512427 -22.17056478 -19.17471877
v 7.49245205 -21.85748505 -19.87893378
v 6.61832813 -14.68993879 -20.60337323
v 12.67859588 -16.27958994 -20.71018537
v 12.80511705 -22.21909437 -18.72831614
v 10.17927336 -23.96093035 -20.99221422
v 8.93685122 -23.24442407 -20.96990949
v 6.61838947 -20.52098052 -19.44568216
v 7.30070377 -22.45310912 -22.03257023
v 7.28807495 -22.55374860 -21.06483723
v 5.82073263 -21.29854662 -21.15356393
v 5.68534148 -20.31465127 -22.20973937
v 14.67150665 -22.78914351 -20.59241879
v 10.73139220 -24.52590565 -21.90073899
v 9.61854545 -23.17698756 -22.65920750
v 10.68177171 -20.73141628 -17.39981332
v 12.31516858 -26.18405482 -22.15949792
v 14.69109194 -23.62087267 -21.36825434
v 9.05455014 -13.90886099 -21.22323371
v 9.03497516 -19.54210662 -23.06003091
v 13.97359963 -26.66174951 -21.00929923
v 9.07939457 -16.88002392 -22.77487637
v 11.41559190 -25.23806461 -21.60443287
v 6.58267893 -21.98359250 -21.22900831
v 7.30206825 -15.93186463 -18.98037883
v 9.68725627 -19.15527785 -16.79020623
v 7.54978804 -21.55977364 -22.87029900
v 7.55852924 -18.12021159 -18.15590106
v 6.68020065 -18.82635534 -18.98551369
v 9.17849646 -19.57226948 -16.99083041
v 6.18985053 -15.08459460 -21.64088096
v 8.32779792 -20.17749607 -18.06708836
v 5.80040912 -18.65573651 -19.93713866
v 10.76540293 -14.63488194 -21.27686194
v 11.35941041 -15.24513422 -21.21986766
v 8.46727225 -14.33010122 -19.05108813
v 11.56698517 -23.54306902 -19.63972254
v 10.60171355 -13.92137405 -18.69680550
v 14.04079626 -21.88671193 -19.66903741
v 6.59311897 -17.24078987 -19.29144706
v 5.82548456 -21.10437197 -20.59864363
v 14.39728071 -24.53902774 -20.36770548
f 402 363 98
f 363 52 98
f 409 184 138
f 250 106 138
f 184 157 363
f 184 363 138
f 138 363 402
f 138 186 250
f 330 250 62
f 186 181 250
f 431 52 363
f 138 402 186
f 186 362 181
f 98 79 402
f 402 79 186
f 52 319 98
f 98 96 79
f 186 79 362
f 96 98 319
f 3 96 319
f 79 349 362
f 79 96 349
f 181 362 126
f 126 362 92
f 362 349 92
f 3 318 96
f 318 3 53
f 96 169 349
f 349 169 92
f 53 244 318
f 96 318 169
f 92 169 260
f 459 151 335
f 420 413 208
f 151 459 409
f 151 409 413
f 413 409 106
f 208 330 108
f 208 413 330
f 459 157 184
f 459 184 409
f 138 106 409
f 413 106 330
f 157 174 363
f 363 174 291
f 106 250 330
f 330 62 108
f 291 431 363
f 447 62 250
f 447 250 181
f 431 230 52
f 447 181 393
f 181 104 393
f 52 53 319
f 319 53 3
f 181 126 104
f 92 260 126
f 126 260 104
f 53 464 244
f 104 260 25
f 260 169 284
f 260 155 25
f 260 284 155
f 244 303 318
f 391 169 318
f 391 318 303
f 169 391 284
f 284 391 466
f 284 466 399
f 284 399 155
f 144 335 198
f 335 151 420
f 128 157 459
f 144 128 459
f 144 459 335
f 151 413 420
f 101 208 108
f 62 366 108
f 366 62 242
f 447 242 62
f 242 447 393
f 156 52 230
f 52 156 53
f 393 395 293
f 393 104 395
f 104 25 395
f 395 25 412
f 25 117 412
f 464 218 244
f 155 117 25
f 117 155 399
f 218 303 244
f 391 303 299
f 391 299 466
f 234 27 128
f 128 27 102
f 420 262 335
f 208 133 86
f 234 128 144
f 234 144 198
f 208 86 420
f 133 208 101
f 48 174 157
f 366 101 108
f 431 291 408
f 393 10 242
f 293 10 393
f 230 431 408
f 293 395 412
f 237 293 412
f 237 412 333
f 117 333 412
f 464 161 218
f 161 264 218
f 399 341 117
f 399 466 341
f 411 27 234
f 198 335 262
f 102 27 411
f 48 128 102
f 157 128 48
f 366 19 101
f 242 19 366
f 408 291 421
f 10 293 462
f 337 230 408
f 462 293 353
f 156 230 337
f 156 322 53
f 281 237 333
f 53 322 464
f 322 161 464
f 264 422 218
f 218 422 303
f 466 299 403
f 422 299 303
f 426 411 234
f 426 198 262
f 426 234 198
f 262 420 86
f 23 86 133
f 224 133 101
f 224 101 19
f 174 263 421
f 291 174 421
f 408 421 347
f 237 353 293
f 156 453 322
f 333 117 229
f 341 466 403
f 195 422 264
f 403 299 422
f 262 165 243
f 426 262 243
f 361 411 426
f 165 262 309
f 309 262 86
f 309 86 23
f 133 450 23
f 224 450 133
f 224 384 450
f 102 221 48
f 384 224 19
f 112 19 242
f 263 174 48
f 10 112 242
f 353 463 462
f 347 337 408
f 337 453 156
f 281 229 204
f 281 333 229
f 229 117 4
f 161 322 12
f 341 4 117
f 243 361 426
f 39 361 243
f 23 394 309
f 450 394 23
f 235 102 411
f 235 221 102
f 19 105 384
f 112 105 19
f 221 263 48
f 10 103 112
f 462 463 10
f 214 353 237
f 214 237 281
f 322 453 12
f 22 264 161
f 12 22 161
f 341 403 249
f 392 341 249
f 422 373 403
f 165 65 243
f 65 165 309
f 49 361 39
f 361 49 118
f 118 411 361
f 235 411 118
f 221 61 263
f 263 61 461
f 421 263 461
f 463 103 10
f 78 103 463
f 347 421 314
f 463 353 214
f 337 347 468
f 5 214 281
f 204 5 281
f 229 73 204
f 229 4 73
f 217 73 4
f 341 392 4
f 197 312 243
f 197 243 65
f 127 65 309
f 309 99 127
f 99 309 394
f 450 315 394
f 306 315 450
f 306 450 384
f 105 339 384
f 61 221 235
f 112 103 105
f 461 61 203
f 421 461 314
f 214 78 463
f 390 337 468
f 453 337 390
f 158 22 12
f 32 4 392
f 195 397 422
f 422 397 373
f 403 373 201
f 201 249 403
f 243 312 39
f 21 384 339
f 235 20 61
f 339 105 103
f 132 12 453
f 4 32 217
f 392 34 32
f 261 195 264
f 195 355 397
f 416 249 201
f 49 320 2
f 320 49 312
f 312 49 39
f 205 197 65
f 205 65 127
f 2 118 49
f 315 99 394
f 266 118 2
f 18 118 266
f 306 370 315
f 18 235 118
f 384 21 306
f 235 18 20
f 358 339 103
f 203 61 20
f 78 358 103
f 78 214 211
f 314 468 347
f 204 241 5
f 453 390 456
f 154 204 206
f 73 109 206
f 73 206 204
f 456 132 453
f 217 109 73
f 132 158 12
f 261 264 22
f 392 148 34
f 249 148 392
f 397 88 373
f 249 416 148
f 440 77 312
f 197 440 312
f 21 370 306
f 314 461 232
f 211 214 432
f 314 457 468
f 5 432 214
f 5 241 432
f 468 457 390
f 204 154 241
f 32 109 217
f 355 88 397
f 141 148 416
f 379 365 201
f 201 365 416
f 365 141 416
f 77 320 312
f 315 448 99
f 24 448 315
f 370 24 315
f 17 20 18
f 386 203 20
f 211 358 78
f 232 461 203
f 232 457 314
f 380 241 154
f 185 390 457
f 206 313 154
f 185 223 390
f 456 390 223
f 109 313 206
f 313 109 415
f 456 158 132
f 32 415 109
f 261 334 195
f 334 42 195
f 355 195 42
f 42 190 355
f 88 355 190
f 141 34 148
f 379 201 373
f 379 373 88
f 320 227 2
f 77 227 320
f 270 197 205
f 227 266 2
f 142 266 227
f 142 18 266
f 142 17 18
f 177 20 17
f 177 386 20
f 358 211 371
f 386 232 203
f 371 211 432
f 432 380 371
f 432 241 380
f 457 232 321
f 185 457 321
f 154 348 380
f 154 280 348
f 313 280 154
f 185 16 223
f 456 175 158
f 158 387 22
f 32 425 415
f 387 334 22
f 22 334 261
f 34 220 32
f 440 197 270
f 317 270 205
f 317 205 152
f 205 127 152
f 99 152 127
f 354 21 286
f 114 142 469
f 114 17 142
f 286 21 339
f 358 286 339
f 358 371 290
f 436 232 386
f 232 436 321
f 380 348 188
f 321 60 247
f 247 185 321
f 280 313 415
f 185 247 16
f 415 388 280
f 115 223 16
f 160 388 425
f 415 425 388
f 115 175 456
f 223 115 456
f 418 175 115
f 175 387 158
f 32 220 425
f 387 8 334
f 34 141 220
f 141 326 220
f 334 100 42
f 379 240 365
f 240 324 365
f 365 324 141
f 298 77 440
f 298 440 270
f 298 270 317
f 272 152 99
f 307 227 77
f 272 99 448
f 239 272 448
f 439 142 227
f 24 239 448
f 469 142 439
f 354 370 21
f 294 17 114
f 95 286 358
f 294 177 17
f 290 95 358
f 288 177 294
f 436 177 288
f 386 177 436
f 60 321 436
f 348 345 188
f 247 292 16
f 425 59 160
f 220 59 425
f 8 387 175
f 326 59 220
f 8 100 334
f 123 326 141
f 324 123 141
f 194 240 379
f 324 240 396
f 119 298 317
f 119 317 152
f 455 152 272
f 272 296 455
f 298 33 77
f 307 77 33
f 239 296 272
f 43 227 307
f 307 33 43
f 43 439 227
f 43 367 439
f 439 367 1
f 439 1 469
f 1 114 469
f 258 114 1
f 258 294 114
f 288 294 258
f 371 380 383
f 380 188 167
f 231 60 436
f 225 247 60
f 348 280 345
f 245 59 180
f 418 145 175
f 175 145 8
f 326 414 180
f 326 180 59
f 326 123 414
f 71 123 324
f 100 190 42
f 88 194 379
f 71 324 396
f 88 190 194
f 455 119 152
f 239 377 296
f 1 66 258
f 288 258 162
f 371 274 290
f 162 277 288
f 383 274 371
f 277 231 288
f 231 436 288
f 380 58 383
f 380 167 58
f 56 292 247
f 59 93 160
f 292 115 16
f 418 115 14
f 145 458 8
f 8 458 100
f 100 454 190
f 454 194 190
f 298 405 33
f 259 455 296
f 43 33 405
f 452 367 43
f 354 24 370
f 286 95 407
f 162 258 66
f 66 267 162
f 345 427 188
f 225 60 231
f 171 427 345
f 345 388 171
f 345 280 388
f 225 56 247
f 59 245 93
f 460 115 292
f 460 14 115
f 14 145 418
f 70 145 14
f 454 100 458
f 107 405 298
f 107 298 119
f 327 296 377
f 30 43 405
f 452 43 30
f 24 139 239
f 310 66 367
f 367 66 1
f 162 430 277
f 188 368 167
f 188 427 368
f 277 225 231
f 388 375 171
f 159 56 225
f 56 159 304
f 56 460 292
f 304 14 460
f 56 304 460
f 70 378 145
f 123 71 414
f 378 458 145
f 129 454 458
f 129 166 454
f 194 172 240
f 396 240 172
f 454 166 194
f 107 119 182
f 28 182 119
f 28 119 455
f 256 28 455
f 437 405 107
f 259 256 455
f 327 259 296
f 405 437 30
f 438 367 452
f 310 367 438
f 354 139 24
f 286 89 354
f 267 66 310
f 407 89 286
f 134 407 95
f 290 134 95
f 274 134 290
f 277 430 275
f 275 430 137
f 275 225 277
f 225 275 124
f 124 159 225
f 160 375 388
f 160 93 375
f 14 304 72
f 122 70 72
f 72 70 14
f 180 97 245
f 414 97 180
f 338 414 71
f 378 70 122
f 338 71 130
f 130 396 172
f 71 396 130
f 29 172 166
f 194 166 172
f 437 417 30
f 30 438 452
f 251 162 267
f 251 82 162
f 82 430 162
f 383 58 46
f 430 82 137
f 84 368 427
f 124 275 137
f 93 300 375
f 159 124 329
f 329 72 304
f 159 329 304
f 72 329 228
f 245 97 55
f 6 122 228
f 228 122 72
f 414 338 97
f 378 129 458
f 130 172 29
f 28 69 182
f 254 256 259
f 327 254 259
f 354 389 139
f 417 438 30
f 438 350 310
f 267 310 350
f 267 350 343
f 343 251 267
f 343 82 251
f 274 46 134
f 274 383 46
f 58 68 46
f 58 63 68
f 82 76 137
f 167 63 58
f 167 368 63
f 131 124 137
f 171 163 427
f 375 163 171
f 163 375 300
f 57 124 131
f 265 300 93
f 124 57 329
f 265 93 245
f 55 265 245
f 329 325 228
f 44 338 376
f 26 122 6
f 130 11 376
f 130 376 338
f 26 378 122
f 378 26 41
f 444 41 26
f 29 11 130
f 41 129 378
f 129 41 166
f 166 41 444
f 166 444 29
f 443 69 28
f 90 107 182
f 182 187 90
f 351 256 254
f 351 28 256
f 90 437 107
f 437 90 417
f 139 377 239
f 89 389 354
f 268 438 417
f 212 89 407
f 136 82 343
f 136 76 82
f 76 113 137
f 113 131 137
f 6 228 325
f 325 209 6
f 424 97 338
f 424 338 44
f 209 357 6
f 26 6 31
f 11 146 376
f 444 26 31
f 444 31 199
f 11 428 146
f 444 428 29
f 444 199 428
f 29 428 11
f 187 182 69
f 410 28 351
f 410 443 28
f 389 328 139
f 417 90 268
f 135 438 268
f 135 350 438
f 435 343 350
f 350 135 435
f 136 343 435
f 46 87 134
f 63 368 84
f 38 163 300
f 300 265 38
f 246 57 131
f 329 57 325
f 57 246 325
f 6 357 31
f 69 443 238
f 69 238 187
f 233 351 254
f 377 400 327
f 139 328 377
f 328 400 377
f 187 125 90
f 183 212 407
f 134 183 407
f 406 136 435
f 134 87 183
f 76 136 406
f 63 346 68
f 283 113 76
f 427 50 84
f 163 50 427
f 325 246 209
f 55 97 424
f 67 209 246
f 67 357 209
f 433 44 146
f 376 146 44
f 199 213 428
f 428 213 146
f 199 31 215
f 199 215 213
f 400 254 327
f 400 222 254
f 222 400 340
f 238 140 15
f 400 328 340
f 75 340 328
f 359 187 238
f 238 15 359
f 75 328 389
f 187 359 125
f 150 359 15
f 125 359 45
f 125 268 90
f 212 389 89
f 268 125 13
f 13 135 268
f 13 435 135
f 13 173 435
f 183 51 212
f 406 435 419
f 46 68 87
f 406 285 283
f 283 76 406
f 283 273 113
f 113 246 131
f 424 44 385
f 44 433 385
f 146 213 433
f 215 31 357
f 140 238 443
f 410 140 443
f 233 222 316
f 254 222 233
f 389 202 75
f 359 150 45
f 279 202 389
f 125 45 13
f 279 389 212
f 279 212 51
f 7 279 51
f 419 435 173
f 285 406 419
f 283 285 364
f 84 85 63
f 50 85 84
f 113 273 121
f 163 37 50
f 246 113 121
f 424 429 331
f 55 424 331
f 55 331 265
f 385 429 424
f 67 40 357
f 213 308 433
f 215 308 213
f 83 410 297
f 410 351 297
f 410 83 140
f 297 351 233
f 297 233 316
f 316 222 91
f 340 252 222
f 252 91 222
f 202 179 75
f 179 340 75
f 51 183 7
f 7 183 311
f 183 87 257
f 434 419 173
f 434 285 419
f 68 346 87
f 63 85 346
f 364 273 283
f 50 37 441
f 246 121 67
f 121 465 67
f 467 38 265
f 265 331 467
f 433 149 385
f 433 308 149
f 215 357 170
f 170 357 40
f 91 297 316
f 236 91 252
f 179 252 340
f 301 289 202
f 301 202 279
f 301 279 7
f 164 173 13
f 183 257 311
f 164 434 173
f 257 87 346
f 434 196 285
f 278 346 85
f 364 121 273
f 163 38 37
f 40 67 465
f 40 465 305
f 398 385 149
f 429 385 398
f 36 83 297
f 91 36 297
f 236 36 91
f 236 369 36
f 36 374 83
f 179 289 252
f 202 289 179
f 45 54 13
f 13 54 164
f 257 153 311
f 257 278 153
f 196 434 164
f 285 196 116
f 346 278 257
f 116 364 285
f 85 446 278
f 85 302 446
f 50 302 85
f 441 302 50
f 37 38 467
f 168 331 429
f 168 429 398
f 170 40 287
f 40 305 287
f 308 170 287
f 287 149 308
f 308 215 170
f 36 369 374
f 374 193 83
f 83 193 253
f 253 140 83
f 253 15 140
f 253 442 15
f 7 423 301
f 423 7 311
f 442 150 15
f 311 153 423
f 442 45 150
f 451 54 442
f 442 54 45
f 451 191 54
f 164 54 191
f 164 191 196
f 364 116 219
f 364 219 282
f 121 364 282
f 121 282 404
f 441 143 302
f 121 404 465
f 143 441 81
f 37 81 441
f 465 404 305
f 305 404 192
f 37 467 81
f 81 467 74
f 305 192 372
f 467 331 74
f 287 305 372
f 398 287 342
f 149 287 398
f 94 374 369
f 252 289 369
f 301 176 289
f 236 252 369
f 193 9 253
f 9 442 253
f 9 451 442
f 278 446 153
f 446 64 153
f 196 191 47
f 446 360 64
f 47 116 196
f 219 116 47
f 302 360 446
f 74 143 81
f 331 168 74
f 342 287 372
f 168 398 207
f 369 289 176
f 369 176 94
f 445 193 374
f 445 374 94
f 423 401 301
f 445 9 193
f 178 401 423
f 178 423 153
f 9 336 451
f 153 64 178
f 147 191 451
f 47 191 147
f 219 47 248
f 219 248 282
f 302 352 360
f 302 143 352
f 210 404 282
f 404 210 192
f 143 74 470
f 168 470 74
f 207 470 168
f 398 342 207
f 176 301 401
f 9 445 336
f 336 295 451
f 147 451 295
f 64 271 178
f 271 64 352
f 360 352 64
f 47 147 332
f 248 47 332
f 352 143 110
f 143 470 110
f 401 276 176
f 401 255 276
f 178 255 401
f 178 80 255
f 271 80 178
f 271 120 80
f 200 271 352
f 110 200 352
f 210 282 248
f 200 110 189
f 470 189 110
f 372 192 35
f 372 35 226
f 382 189 226
f 207 189 470
f 189 207 226
f 226 342 372
f 207 342 226
f 94 269 445
f 255 111 276
f 445 269 336
f 80 111 255
f 120 111 80
f 381 120 449
f 271 200 120
f 449 120 200
f 449 323 381
f 449 382 323
f 382 356 323
f 382 449 189
f 189 449 200
f 192 210 356
f 192 356 35
f 35 356 382
f 226 35 382
f 176 111 94
f 94 111 269
f 276 111 176
f 336 216 295
f 120 381 111
f 344 147 295
f 344 332 147
f 344 323 356
f 210 344 356
f 216 336 269
f 111 216 269
f 216 381 295
f 295 381 344
f 381 323 344
f 344 248 332
f 344 210 248
f 381 216 111