# https://github.com/mikedh/trimesh
v 30.82331271 -30.93853376 58.01609809
v 30.87231906 -22.58521134 64.58247885
v 24.48160697 -21.72628194 52.46734136
v 34.40148622 -18.70579728 59.86788023
v 41.26713562 -27.45927932 60.84131306
v 16.88592922 -23.81830933 66.34144802
v 21.46247272 -38.24090125 64.46373659
v 38.51935950 -25.48772096 54.35764930
v 31.97285663 -19.59587136 61.96266228
v 20.70546731 -20.87226468 53.05865241
v 15.19516704 -25.82188893 60.55578870
v 35.17496687 -35.88101231 58.60359181
v 40.90567166 -26.92717483 62.66336152
v 28.95963143 -27.91954763 57.46523334
v 26.29876829 -36.86164240 59.84986924
v 15.52337951 -23.06600718 62.63482542
v 39.47019271 -30.38191258 63.23353997
v 15.28044011 -34.51695473 64.16135876
v 38.16046151 -18.47737536 55.39030639
v 43.44638432 -20.13303552 59.15155976
v 15.82238583 -24.65246362 59.17484703
v 15.01138690 -34.22151980 61.98683715
v 29.83364164 -17.78384797 58.92865975
v 39.36927867 -17.87433816 56.79610073
v 37.42847305 -20.20407213 53.41328072
v 21.35586376 -17.51648050 57.36763396
v 15.57317813 -26.91169786 59.58517309
v 25.35276267 -16.70168874 59.88928265
v 25.62059978 -39.36563692 60.29193630
v 16.67044558 -21.20699381 58.17385979
v 14.83572363 -31.50026528 62.64758422
v 25.93332768 -41.57722609 61.37444673
v 19.57665481 -36.65349883 65.09857048
v 29.61998454 -29.62127440 57.96988646
v 42.11730649 -26.89727447 56.10618782
v 18.12075264 -20.67272861 65.53304832
v 27.18259540 -41.77847096 60.82239446
v 38.32740535 -22.32912915 53.47836132
v 37.77922171 -28.32216254 64.39459389
v 30.43260773 -21.60077484 52.10952284
v 30.82135669 -41.73108091 60.17323755
v 44.56976344 -20.65677130 57.94344765
v 38.19490482 -21.12451324 53.20282743
v 40.92331915 -23.11596628 62.16966150
v 15.68289629 -23.81282245 64.22423668
v 16.12355635 -32.09643455 65.63056715
v 16.78843348 -28.30824601 66.83838067
v 23.25352807 -39.48025722 63.82625686
v 17.29530788 -22.92236804 66.38677825
v 37.06735907 -25.40890716 63.92611736
v 41.26426432 -27.97416280 58.54975076
v 27.86126383 -41.21805419 60.19637231
v 16.79739903 -31.35498590 66.25173645
v 22.68607543 -38.76244185 64.52027286
v 32.97827808 -23.46890546 52.61851775
v 20.83252026 -22.19806624 52.89562411
v 42.66805576 -26.30630178 56.64270710
v 22.32223324 -17.53596231 63.56894250
v 43.04561585 -25.47661627 57.16339519
v 24.29554270 -19.94429292 66.05899245
v 16.15558592 -29.94355467 66.10440209
v 32.31491723 -33.53726106 57.96526249
v 16.86382271 -21.19567777 57.36211913
v 26.62894296 -36.14784909 67.12523098
v 17.85223538 -36.67242534 62.11616078
v 41.11995621 -27.91490642 56.54569534
v 24.66572645 -39.74935732 60.57882539
v 39.49388654 -29.25522556 63.79485632
v 15.11895748 -25.34948959 63.74252159
v 29.04598718 -17.55644488 60.00262368
v 33.62949413 -35.45451767 64.52086676
v 28.65705616 -26.68131991 66.80156686
v 33.80681079 -22.69539877 52.17617479
v 39.16594451 -21.29051925 61.78117041
v 22.83841361 -20.88403522 66.82987110
v 34.56439907 -19.92028372 52.96999412
v 28.53837142 -28.51453317 67.20063647
v 20.80483621 -18.34011968 64.56329449
v 17.13368147 -28.89008883 58.38618146
v 23.49800364 -39.25044388 64.27947396
v 34.21257818 -21.62216197 51.99013607
v 19.81426493 -37.10947787 61.08678175
v 24.96762262 -38.22622385 65.51051570
v 38.77615034 -17.63920220 58.11701681
v 20.22584200 -17.24761871 61.26635293
v 36.94484477 -24.42475327 63.62744454
v 36.84970827 -28.54289993 56.11140907
v 19.25020636 -21.60699664 52.86582619
v 35.79878941 -22.81832894 52.49866204
v 19.18740808 -18.32527635 57.50953710
v 43.62194479 -19.58475508 57.54592613
v 23.63888606 -38.03052977 65.60509874
v 30.75863651 -23.85114147 52.89257214
v 18.75682677 -22.05543806 53.17593781
v 23.23865583 -36.16837415 60.18078825
v 17.03604073 -21.84913256 56.22893493
v 24.90689415 -40.60616949 60.84939302
v 21.68325191 -37.93403944 64.87368564
v 17.41148598 -34.44813158 60.46348410
v 17.48737301 -23.80708013 55.99385503
v 17.87984113 -23.55853799 55.51232473
v 44.08919297 -22.94632838 60.57133273
v 44.43862173 -20.80327074 58.53822826
v 22.98961712 -21.88903989 52.30937947
v 36.76243097 -33.55751298 58.92035957
v 37.08405000 -27.12878521 64.38255253
v 31.05466128 -40.86851836 59.63531802
v 21.38250307 -16.81626221 60.36430881
v 38.82395963 -24.80675050 63.26658018
v 36.62412211 -31.81668364 57.84027892
v 17.46260820 -21.11479969 55.60164611
v 20.08449480 -17.43328175 58.48972821
v 20.32023377 -27.37207839 57.88607211
v 19.30507015 -33.22803976 66.45533850
v 23.50469186 -39.72993162 60.88490403
v 33.57816613 -30.70071787 65.91156657
v 27.15865416 -20.73798382 53.24177236
v 30.61847610 -18.00886575 59.47346079
v 40.49192414 -27.80774756 62.93308173
v 30.83097029 -18.69114900 55.20048608
v 31.82574135 -27.60080906 56.81932487
v 19.60964210 -20.63486415 53.63548272
v 25.39390389 -22.19925219 52.33022669
v 35.82905131 -35.96653942 59.40610423
v 44.68120669 -21.81098992 58.41759019
v 35.30161148 -36.62112325 59.19539943
v 38.55847604 -28.69093326 64.20304033
v 15.80923010 -27.72769916 65.89890055
v 42.44254003 -26.60101905 57.45173729
v 33.46045748 -20.30536606 52.55474316
v 18.94760663 -22.58189319 67.35957509
v 36.95062894 -34.29517302 62.40221502
v 29.70026469 -33.45162058 67.05178547
v 23.66051352 -23.22472636 67.28480891
v 21.62063905 -24.79708665 67.95874973
v 21.98981438 -19.98404344 53.92402884
v 36.09035499 -30.88148208 57.19339567
v 22.25482789 -22.05561278 52.29162283
v 23.50709267 -17.01367645 57.75497958
v 39.89286706 -22.14498492 62.05886694
v 37.31708669 -17.89910443 58.54395885
v 26.83082970 -40.67468057 62.84603244
v 35.04199317 -24.71775745 54.19081267
v 39.63137749 -18.10462176 56.45611106
v 19.27356383 -17.72373145 61.12072600
v 38.88700146 -26.13123230 54.79287932
v 35.39293446 -18.68678547 54.49035477
v 31.13033861 -37.70711234 58.86444147
v 37.58926377 -23.10885150 53.40655116
v 15.84927598 -23.81284353 59.24476003
v 35.69114992 -36.24591612 61.35222652
v 41.99844058 -27.29635284 57.62112727
v 41.35478262 -24.10676962 55.24528034
v 25.14961024 -22.96725186 52.57738593
v 32.17629513 -24.35525311 53.72795285
v 26.45779571 -22.13528387 66.20079622
v 20.92029789 -36.54091626 65.57688216
v 32.64730553 -27.88311213 56.70324791
v 18.47624127 -32.44815867 66.51494637
v 16.51195449 -35.50197174 64.56420719
v 34.10317772 -38.87097066 59.81834963
v 40.91590367 -20.40533055 55.19773339
v 22.07918866 -25.05799284 56.53549682
v 37.93983902 -29.43828490 56.79164659
v 21.95064717 -17.22453287 62.67070365
v 37.56044415 -18.20164208 59.26948176
v 36.57128410 -20.51709891 52.79329302
v 31.77142052 -21.25196332 52.12183886
v 24.22817137 -31.25148809 59.19210486
v 19.01373012 -19.20433670 64.63150790
v 32.28905988 -39.92714420 61.73457395
v 15.98952813 -34.71095832 61.18866311
v 19.95555271 -34.30662269 66.22729036
v 16.10991853 -26.13320820 66.06476482
v 23.12881169 -34.20816072 67.29409048
v 24.65426100 -17.08465790 62.47493623
v 16.21955853 -30.17742904 59.23617415
v 32.22107502 -40.64657084 61.16466067
v 39.74607081 -30.11783048 62.93041721
v 31.13854695 -28.92242081 57.43155185
v 35.20046259 -21.76839754 52.01398062
v 16.51111029 -34.38620454 65.41839822
v 19.31747319 -19.42398113 65.15124417
v 19.20469182 -35.66588126 65.49856612
v 20.30479130 -17.39538720 61.75910576
v 33.21371916 -38.68780000 58.84231205
v 15.03315146 -33.36549189 63.82771544
v 22.90262776 -21.26270238 52.67685911
v 15.42766300 -22.98003486 61.33918700
v 30.00784224 -20.70316610 63.94355461
v 26.12320774 -32.77389551 59.34039656
v 43.06849286 -21.74422362 60.96758272
v 30.62965300 -18.42190642 61.03709376
v 18.69708165 -18.02453558 60.78521300
v 36.05202555 -19.71515741 53.32759270
v 15.87978414 -24.40662446 65.05438396
v 39.89209796 -22.77226972 62.34396520
v 44.51920130 -22.31931573 58.10100780
v 33.89295333 -18.63510933 54.74834222
v 17.67773300 -29.80173179 58.53745611
v 34.74811227 -29.89653271 56.76804181
v 41.30182311 -19.17966149 56.10985430
v 28.52208551 -39.47079917 59.68776420
v 19.09404722 -34.54837243 65.91362434
v 16.71534602 -35.29325794 61.21880812
v 33.74670110 -39.19812853 60.80762295
v 15.51049187 -34.80961798 64.29146194
v 14.94968738 -27.13955085 61.20147444
v 34.47582836 -37.77256189 59.11290236
v 17.25120795 -30.02166405 66.84930880
v 32.76365575 -40.57948281 60.04202531
v 16.99750972 -27.11586805 67.09324558
v 22.61480675 -36.61331515 66.21767345
v 17.06473422 -22.91584239 66.14658943
v 18.42865023 -24.98732011 56.64197067
v 37.80674276 -25.79005069 63.78972785
v 20.30908710 -18.67106836 64.95406401
v 16.85422417 -22.33831618 65.52602280
v 25.72983296 -25.84538198 56.71809272
v 37.95771159 -30.61366164 64.42530395
v 16.35645779 -24.73735983 57.99574323
v 42.30939753 -24.18829963 55.76351307
v 18.34753413 -19.61800795 56.25855883
v 15.65155432 -22.91443520 60.33164424
v 24.85482786 -17.31354975 57.25548067
v 17.83739090 -32.21603253 66.41244659
v 27.62292002 -33.44493483 67.44357044
v 28.29858661 -17.39337191 58.65685031
v 18.31525094 -21.47761611 53.71835769
v 22.63559575 -17.82403277 64.17797902
v 35.41898662 -18.07160962 57.95001869
v 27.39880422 -41.34537118 62.19754671
v 36.29893277 -23.85380967 53.51549122
v 43.07224273 -24.55100271 61.16635512
v 33.54237154 -18.22870391 58.25529024
v 34.65622036 -32.44262653 57.48416078
v 38.28344366 -23.97105471 53.97465556
v 17.70472181 -19.48145029 57.71288161
v 41.13748104 -25.25065137 62.60392983
v 31.69081450 -20.05608212 62.55429846
v 17.17249561 -20.66284280 57.09117906
v 40.65341007 -18.31417443 58.91788562
v 19.58631207 -18.29996450 63.53262402
v 28.11985815 -17.42992990 58.06903637
v 19.97205979 -22.51496232 53.45223987
v 18.19857935 -27.28259897 67.78001143
v 21.20617755 -17.96624535 64.04518994
v 14.89911348 -28.09523627 63.71612881
v 42.52299433 -20.34125751 56.19729711
v 19.77112893 -22.37803847 67.56285506
v 14.88263429 -33.28467950 61.78852213
v 23.05025472 -26.31914790 57.43688993
v 28.10002568 -17.54029879 61.24250364
v 24.76924640 -23.36898396 67.04483129
v 29.52369241 -21.08699154 52.61790199
v 28.57936102 -27.21301132 57.19488316
v 23.35043024 -35.29684058 59.98960183
v 31.45384506 -23.47510535 52.51298832
v 43.44480668 -24.16561623 60.17647003
v 44.57177104 -21.83214782 59.81055071
v 42.95658596 -21.06143667 60.49647432
v 35.47011155 -33.21004794 64.97523594
v 17.49857614 -31.55750905 59.21854196
v 28.31865826 -41.95870800 60.69653825
v 41.91468810 -26.35659815 60.45420227
v 21.60174177 -38.57331236 64.17476336
v 16.96620533 -25.57515139 57.48541501
v 17.33119193 -20.70178101 56.40858546
v 17.25436436 -21.46989771 55.80091397
v 41.21997523 -26.02986984 55.07509129
v 14.80675945 -29.15455018 62.50208890
v 36.77756245 -17.95728583 56.54329644
v 39.16429812 -19.85075224 60.94743303
v 40.90275818 -28.31117014 57.28806868
v 16.38568786 -20.89901258 62.70613646
v 15.03206762 -26.86925755 64.02851244
v 25.55235358 -26.44564066 57.17817317
v 29.22950795 -42.05702578 60.68766736
v 41.11637211 -22.14693884 61.80013943
v 32.37305116 -19.58673036 53.42527823
v 35.34028643 -33.62260317 57.92324089
v 41.23119901 -27.37781732 55.93688727
v 23.10896440 -37.77972749 65.62460600
v 19.82554891 -17.33899520 59.35969553
v 38.87109039 -30.24330043 64.01717485
v 15.29918944 -25.55716884 64.28439734
v 18.33649055 -21.87654434 53.49921775
v 31.67344497 -32.39193773 58.00625394
v 24.10634573 -25.09142435 67.51417153
v 18.29057661 -30.96368402 66.96455087
v 30.25666430 -40.39821071 59.55358918
v 28.93255138 -19.02877446 63.15880327
v 34.25979670 -36.12196114 63.37366356
v 26.80422576 -22.49357239 52.29182467
v 26.44981319 -31.04501230 58.90362241
v 24.02794976 -22.35046409 52.32474911
v 19.66352921 -27.73977590 68.08500802
v 18.34058774 -18.89983945 57.58380170
v 33.58087341 -39.61482268 60.17845132
v 16.51320155 -35.08804300 65.04440756
v 18.59588441 -18.43085033 62.53290025
v 16.60925260 -26.88151138 58.20084993
v 16.41746407 -20.61834059 61.57568293
v 25.99272672 -27.98936318 67.50343472
v 15.20324920 -24.43460323 61.13388084
v 19.31552319 -17.75889063 58.80700141
v 35.06009192 -20.01780853 52.93201461
v 43.60771208 -21.84748890 60.79740705
v 38.51740617 -20.30297146 53.85431749
v 19.47457951 -37.28556209 61.38670784
v 26.10460055 -41.01174063 60.55781936
v 15.39674567 -34.35755642 61.44132812
v 31.92452785 -35.98992084 58.39672861
v 25.81845479 -16.85273976 61.04226339
v 19.03431862 -36.76671598 61.16950577
v 21.52504039 -16.86453861 61.08730172
v 41.61243981 -23.42591414 62.04931260
v 23.42991470 -40.03018590 61.09083120
v 28.77170124 -41.61616238 61.72703464
v 16.86128994 -20.71911149 63.86536513
v 27.29870093 -37.27768842 66.30164898
v 15.33566387 -32.41647820 64.63523725
v 15.11077898 -24.55461827 62.29039831
v 23.49963807 -22.04668183 67.05713106
v 19.05802205 -24.11377777 55.81142113
v 22.64920502 -39.75124274 61.43691640
v 19.12634126 -37.38602974 61.75888144
v 44.51438495 -21.36128756 59.04773261
v 39.81390463 -25.75623162 63.17681699
v 41.47588086 -27.19020847 59.89951240
v 15.65694877 -30.08399081 65.54673465
v 35.98552171 -35.90717366 59.76755566
v 29.66869797 -33.84298476 58.74017524
v 15.02623491 -28.96920835 64.39315976
v 21.81379518 -31.57593145 59.16841229
v 42.17384151 -22.02715203 61.39409937
v 17.76809685 -22.75460122 54.83471752
v 36.30378363 -31.48921109 57.58417552
v 23.88263070 -20.82628303 53.08835227
v 31.22563268 -18.01996831 58.54521641
v 44.27611658 -22.06878054 57.03713607
v 17.34966082 -20.15423724 64.09856805
v 32.72320800 -34.22420975 65.83642499
v 38.83402504 -28.01573436 55.99106812
v 21.14746092 -33.14776775 67.08020536
v 28.39348622 -33.30720959 58.99667059
v 18.23950136 -24.75292278 67.68977137
v 34.51659425 -24.64210375 64.39933724
v 18.88445215 -21.60689854 53.07991427
v 35.56638495 -24.14993169 53.69732451
v 22.24954857 -37.08858816 60.45030653
v 21.29074547 -33.27070093 59.61184332
v 37.46379872 -21.31829119 52.63977446
v 39.21601138 -23.48877361 54.22009863
v 36.27641364 -30.55528651 65.09230366
v 33.78754866 -25.50685012 55.00232096
v 18.67663978 -18.18062221 61.55854825
v 32.52692859 -37.04196516 58.46030710
v 17.40668078 -33.11102734 66.00449232
v 18.20096561 -23.03638514 54.74970296
v 36.90362006 -26.10886728 64.19227264
v 41.54381255 -18.22892978 57.43666171
v 41.66016520 -27.65711090 57.87872270
v 36.21652963 -34.15136982 58.75773020
v 35.65531696 -32.45200330 65.13092218
v 39.84638902 -17.77195464 58.14743202
v 17.79745443 -21.62643800 54.23033821
v 36.81863879 -22.75564477 52.84758755
v 25.42318615 -28.76078704 58.35713905
v 17.04524318 -25.61089998 67.05626699
v 32.72558280 -23.83887103 53.03488489
v 33.61420693 -35.67481316 58.06686379
v 21.95376671 -22.68471084 67.54447076
v 26.03261424 -20.96357235 65.94202913
v 39.53899254 -29.50275452 57.77426337
v 31.21074002 -18.36426543 56.09184292
v 28.21211915 -17.67769587 57.15095990
v 24.58368671 -19.58294818 65.76467422
v 25.03694877 -37.63844574 60.15718040
v 20.01208235 -36.20136604 65.40436881
v 18.31529291 -26.90412019 57.61358780
v 42.21183507 -20.98905000 60.80305773
v 44.65646712 -21.39034328 58.56186467
v 43.45578403 -24.44851788 58.38560613
v 30.17812961 -24.34362728 53.71239447
v 26.55882957 -21.02153154 52.97052573
v 38.75822839 -29.67914124 57.31004619
v 19.40033197 -35.54331156 60.50058603
v 18.18315339 -18.99611676 63.38764141
v 39.81220393 -18.41838707 59.40919308
v 24.31088220 -17.41514044 63.39375034
v 37.50219417 -26.67320740 55.00449169
v 27.28734212 -35.88635710 59.61093690
v 16.12908336 -23.66614547 58.53020212
v 15.97109717 -22.58897649 63.96695806
v 19.35200398 -30.08489800 67.55897900
v 16.84006104 -25.02550279 66.72537686
v 28.63048018 -34.29761635 59.08458295
v 26.06769031 -19.78927208 54.24850728
v 38.83108291 -31.57713906 60.13885192
v 16.79551757 -24.47116654 57.25983310
v 32.39940443 -20.46590276 52.51843932
v 20.30797650 -38.39066282 62.19085341
v 17.86811114 -28.81667018 58.22008586
v 20.85657893 -18.61259932 65.01847492
v 20.47902961 -35.27956549 65.96232995
v 41.08648635 -26.84437868 55.48148754
v 29.69191198 -18.22455501 56.39166490
v 34.89391389 -23.71742255 53.08184266
v 24.62520630 -38.63256355 60.36566469
v 23.46440981 -40.32876630 61.89100337
v 18.11574683 -20.43664825 55.21259356
v 20.08462610 -38.07093763 61.72173469
v 16.41665186 -21.36980400 59.01972084
v 25.70057565 -17.20304154 62.27174976
v 22.04314804 -18.29638985 55.98625589
v 20.34890479 -38.04657361 64.00159085
v 15.04225273 -34.03039138 61.57353729
v 16.03238974 -31.64333591 59.73157449
v 21.61753521 -16.96759764 61.56678256
v 33.77519125 -37.75272868 62.33562108
v 24.56155835 -36.09233633 60.05276483
v 22.43127701 -39.22209566 63.69214837
v 21.69176135 -17.06503197 57.97955611
v 40.36654837 -17.83869593 57.71508137
v 40.22139458 -29.18137288 62.85332265
v 43.46066624 -23.94608234 60.82086882
v 15.88759833 -21.86068094 60.60786338
v 34.92022788 -25.23181605 54.60230341
v 40.61013063 -17.98713627 57.07096848
v 39.10738274 -17.59834058 57.63550828
v 35.68212667 -18.51942069 54.90975775
v 18.56925478 -35.70615831 60.74643175
v 19.01875752 -18.17702068 58.05899640
v 34.70107805 -31.47368550 57.27382840
v 32.71892165 -18.39089456 55.89987329
v 30.13802475 -24.59882369 54.11575322
v 17.93954969 -20.13386031 56.01628898
v 15.87010363 -33.55573969 65.19703637
v 35.49106610 -18.26906367 58.84598727
v 28.20186085 -18.55027637 55.92591342
v 34.77794943 -28.25926300 56.23999482
v 15.35915515 -34.75269005 62.28069887
v 35.25848482 -22.48739168 52.23905259
v 17.61192989 -20.06350217 56.76561083
v 32.87886000 -18.92107674 54.32933781
v 32.58411046 -23.50429806 64.36558516
v 40.88241679 -27.40952635 62.39271702
v 18.94829796 -27.82753960 57.93509089
v 18.39550822 -37.14766835 62.83163137
v 42.96373934 -24.38806220 61.53408575
v 43.87663771 -22.47509277 60.90549132
v 31.50239482 -29.90684663 57.63505616
v 26.41355939 -17.96679728 56.48278694
v 16.51119137 -22.89422995 65.34256610
v 43.89414949 -22.86463610 60.86315141
v 26.42891771 -33.68867701 67.56706957
v 20.68918115 -17.44692174 62.32300788
v 20.98602466 -34.47035616 59.93275178
v 26.43934962 -39.34889682 64.27292966
v 34.75130536 -19.17306647 53.77152008
v 23.71133387 -37.29331680 66.18142673
v 40.09319908 -26.30537256 54.97325438
v 33.00618595 -37.95006619 62.80546953
v 22.52961519 -38.97388731 60.90460230
v 33.25651972 -39.52332180 61.18058060
v 34.09123591 -20.64197605 62.09487628
v 18.57594386 -37.23668387 62.28493154
v 17.92228699 -21.10523341 54.61236188
v 19.32782945 -37.75021617 62.50510307
v 15.43652856 -33.09686713 60.72521233
v 39.37582901 -29.94529517 63.73734311
v 28.44666396 -35.00162594 67.10730298
v 16.09570657 -35.52619271 63.28063091
v 22.83234960 -20.22685672 66.51578058
v 25.53286130 -21.47185260 52.67391681
v 26.23630170 -25.30772333 67.01046150
v 31.72220530 -38.87800484 58.92850836
v 14.83606209 -29.48485657 61.92517273
v 17.85861371 -18.97422543 62.68182169
v 20.80105005 -22.29783601 67.55950060
v 16.61909202 -20.69494311 63.24982233
v 17.52988250 -23.26278049 55.45818017
v 34.03472304 -19.26211406 60.86882913
v 19.25764427 -20.45384883 54.05424694
v 19.87682967 -19.93037142 54.40028600
v 40.49943455 -18.40087962 56.41924953
v 26.41603814 -41.32600011 62.21815036
v 18.29482878 -25.90288124 57.19495004
v 19.42372365 -23.47474250 55.00395755
v 34.93442780 -23.48964637 52.79433520
v 17.66865310 -35.16570868 65.44716518
v 15.66409072 -22.18443217 61.47975465
v 25.00305961 -41.11615128 61.76368919
v 41.77533482 -20.06172588 60.30989704
v 41.75123535 -25.03383578 55.43969178
v 24.24745628 -17.55354055 56.87098198
v 32.45675803 -21.47797378 63.29154516
v 36.70871982 -23.91473203 63.43388689
v 40.05774859 -26.89628668 63.26412377
v 30.49693501 -41.44398591 59.89157060
v 18.59762011 -20.02902092 55.31088111
v 20.74257825 -16.97521760 60.07751765
v 36.56509580 -17.87696892 57.21936041
v 36.24931863 -25.69284832 54.68166718
v 36.42600151 -21.86644539 52.19424055
v 42.90127811 -24.85681992 60.19064233
v 26.74685036 -23.06786435 52.41128860
v 42.97747907 -19.84516837 59.28188325
v 25.51222357 -40.15692107 63.41896117
v 30.80347353 -19.25255306 54.30781216
v 41.41134928 -18.38077230 58.49235024
v 17.60274990 -26.62733340 67.55562251
v 37.09446372 -18.92669255 54.53096040
v 33.25058788 -39.85849281 59.63256064
v 17.24829704 -27.87905989 67.19064934
v 33.06683539 -20.99966152 52.12655215
v 15.72448215 -34.99688915 61.71726411
v 36.90574183 -29.96164211 56.90580892
v 38.27645125 -29.45653770 64.35651680
v 44.73513283 -21.77741001 57.52454896
v 17.45175794 -21.96829432 65.95300304
v 30.84810895 -35.73343021 58.66168360
v 24.36120706 -34.58485967 59.82272554
v 29.68563019 -39.09135777 59.39838306
v 39.29964798 -28.73750156 56.62757981
v 16.17677760 -33.80252438 60.54490051
v 33.22256370 -31.85730045 65.98405942
v 19.41881042 -37.73098731 62.15184745
v 17.70486153 -32.84173177 59.64067858
v 37.07382767 -32.89394015 64.02535302
v 30.02034012 -39.73629122 59.45313384
v 43.28397434 -21.24668752 56.44724246
v 24.40736184 -39.79695075 63.72663570
v 37.03614186 -33.67007030 59.34079105
v 32.33527735 -19.28155871 53.81447465
v 20.50466019 -37.17799640 65.13679179
v 24.66843942 -17.95841197 64.19412972
v 34.06403996 -21.31100002 52.02672982
v 15.84676988 -22.99870639 59.51088357
v 21.11394875 -32.46502063 59.37307894
v 18.69904697 -37.32759311 63.33881366
v 18.27033009 -22.08581012 53.63227865
v 27.00915858 -28.39537658 58.01877639
v 17.17695566 -19.69174084 59.23000381
v 17.37912393 -22.35200277 55.11774987
v 31.00952617 -19.79366904 53.60868293
v 34.84049626 -35.11090254 63.89423895
v 20.23035221 -18.33871993 64.20646410
v 35.06673095 -32.24065958 57.47610627
v 22.51472730 -16.63949403 60.50920008
v 17.12754245 -23.76612931 56.46999405
v 35.50803492 -23.51155179 63.47964967
v 22.65775210 -32.90403293 67.53729027
v 34.85796952 -18.49094426 55.06706719
v 22.29192522 -34.76022298 66.90072175
v 16.32623096 -22.75453657 64.91662417
v 43.73030015 -19.63076511 58.01481053
v 26.99798968 -36.84259370 66.69418794
v 43.27554193 -20.53386587 59.78840478
v 23.95617526 -16.71845706 61.28618551
v 36.08776662 -26.86390564 64.62091328
v 29.43712735 -22.61845625 52.17153371
v 15.53250062 -35.03736465 63.03978643
v 20.95554425 -38.42316768 61.30479974
v 19.56165527 -32.15404487 66.95791951
v 41.73937755 -19.58718577 59.89305250
v 37.12072859 -24.55331802 54.04310014
v 17.25865021 -36.21976079 64.11957696
v 33.64147485 -34.67314649 65.15499620
v 40.24064168 -29.41400823 60.12887021
v 36.07840625 -33.84812929 58.47079245
v 26.84499743 -18.01725962 63.22330496
v 38.83709486 -30.04294637 57.76659799
v 32.81219619 -38.83360824 62.19467984
v 30.79326743 -20.16732693 53.19040174
v 35.20878265 -18.01706912 57.27007254
v 40.83475289 -22.83128176 54.97258636
v 18.56546794 -18.21582243 58.93632343
v 42.21748816 -27.21281230 56.99665883
v 15.45567129 -33.77169227 64.61029190
v 44.62188078 -21.88446663 59.06897933
v 20.28029660 -31.40080725 67.46842463
v 29.62596003 -21.47094000 52.30786343
v 17.63887585 -24.47472963 67.25506530
v 33.48607547 -38.80969653 61.68381670
v 20.17833336 -19.02460034 55.61769920
v 21.91386494 -17.86728550 56.58435901
v 30.34242584 -28.34046952 57.39451074
v 18.09289037 -34.34030436 65.84412783
v 16.37596062 -30.95799333 66.05929042
v 38.97571563 -31.45254554 62.83091149
v 24.77874372 -16.86365336 61.73874700
v 27.23073709 -17.76410431 56.81543119
v 20.80040405 -17.08993260 58.65000064
v 15.94444945 -29.34147035 59.38237821
v 23.90249220 -27.33870257 57.93855127
v 29.78962406 -36.83533625 59.10017055
v 31.01261023 -26.46378107 56.30793736
v 39.96767155 -27.41054574 63.36429021
v 28.38051879 -19.22524432 54.93463242
v 34.83350318 -24.02835573 53.54539222
v 39.56553411 -20.43398838 54.40081725
v 37.32120114 -32.86663537 59.10610471
v 31.91110232 -18.13674939 58.74267352
v 37.88307362 -32.38208939 63.65389417
v 18.84487374 -24.75267614 56.43447637
v 25.72794328 -40.66883931 62.80035718
v 24.06796330 -30.17131509 67.87470013
v 14.93638300 -30.08281337 63.81039639
v 15.67978716 -33.67673627 60.69044265
v 18.00182792 -18.63804705 61.15977636
v 43.35841363 -23.84716850 56.54140720
v 34.62259620 -18.96787100 54.04276542
v 21.58180018 -33.94922047 66.93610844
v 20.34575720 -26.56064362 57.55270387
v 29.55026277 -41.12746244 59.85960112
v 36.43611979 -29.79471937 64.99636895
v 31.64553934 -35.39698437 65.75253275
v 34.15046056 -24.94417839 54.48207595
v 42.14672982 -18.49565391 57.81876906
v 44.34507012 -22.23618076 60.43853734
v 34.95384542 -26.51089137 55.41333143
v 23.45560688 -35.98831683 66.73016117
v 37.38796761 -20.90054277 61.73206971
v 27.06928832 -39.95973281 60.07001949
v 42.90195281 -23.46612149 61.50545008
v 42.00442046 -27.35211139 56.39813203
v 16.51427213 -31.12145861 59.32560282
v 42.30325504 -27.06840434 56.59819058
v 20.99895982 -36.31414666 60.45276231
v 22.09640353 -22.15604994 52.44275205
v 24.09745750 -40.67119427 61.52695464
v 33.72443112 -23.03334988 52.33464617
v 38.98571439 -30.56769063 63.75716329
v 17.95480887 -36.47305326 64.54824288
v 44.10853195 -21.32654761 56.96139332
v 40.04973588 -28.62054211 56.87026664
v 32.29429627 -40.45368976 59.44262592
v 18.98682893 -26.50526614 68.05644318
v 38.78383153 -31.90980701 62.07282444
v 24.48042036 -38.53339252 65.19642689
v 28.91379579 -31.81924835 67.26795293
v 44.74402906 -20.95171801 57.69153562
v 26.50026744 -41.63938010 61.67902501
v 15.63959499 -28.73236024 59.66680076
v 17.59886934 -25.05561445 56.86755423
v 22.55382683 -39.10912387 64.11077045
v 36.76707475 -34.74155945 61.40055084
v 40.32735116 -27.72046338 63.16477558
v 25.82488615 -41.45226565 61.13579800
v 16.61711160 -29.50078480 58.79113925
v 36.08962400 -28.37784431 64.94256765
v 36.84134358 -24.03810806 53.72270184
v 35.62510788 -23.77159460 53.34119124
v 23.91552848 -18.02807390 56.18886045
v 15.36555415 -30.24377639 60.29480505
v 35.84436214 -20.74985749 52.43902299
v 16.86710260 -20.01299209 62.37454880
v 18.18362220 -29.63952278 58.45913758
v 18.60715651 -25.98601631 67.93939992
v 17.80875603 -23.08126688 66.80441320
v 33.66438646 -19.02249064 54.06955204
v 35.62325108 -23.45863429 52.98159337
v 21.72109207 -18.28928837 64.69040051
v 20.92704359 -23.46692697 67.83344894
v 35.64223991 -21.42359631 52.06165830
v 28.55808728 -30.09929858 67.30279689
v 18.00001062 -19.88236928 64.51646473
v 35.44081482 -28.40162845 56.13774779
v 38.04513326 -21.56889814 53.03834295
v 26.55968158 -17.54542757 62.57069359
v 43.48023696 -24.47779896 57.69053766
v 39.79107345 -27.68227842 55.92462901
v 17.88071373 -18.71552795 60.11167917
v 42.73565071 -25.81205483 56.34389378
v 17.68245214 -20.73651016 65.16429091
v 39.60248806 -30.61746753 61.11585463
v 27.44612362 -36.26768896 66.95095167
v 38.04013050 -32.20709942 59.47337902
v 29.18900729 -39.36896055 63.64257067
v 37.27057871 -27.46121898 55.50581719
v 35.94907110 -25.16677110 54.42995133
v 43.29491790 -20.05726410 56.84265703
v 22.85001059 -16.59622617 59.22215430
v 19.15456506 -22.22692971 53.22134324
v 16.09740066 -21.39672277 60.29428186
v 15.76834972 -22.03310652 61.74400195
v 20.16837460 -20.13630011 66.24425528
v 29.19719637 -32.20457200 58.61370342
v 18.44588956 -19.92299452 64.95981400
v 18.15070895 -19.51025186 56.70326526
v 21.79455039 -35.52050348 66.34012070
v 32.92042319 -21.05726020 62.76664011
v 24.02449226 -32.19377787 67.75723243
v 42.32773235 -25.80670709 59.86207244
v 33.83994433 -28.65155630 56.62830139
v 40.54360662 -28.97114846 61.19309942
v 28.48050783 -20.01700859 53.95585139
v 42.11692221 -26.58535268 55.80711384
v 39.59766461 -19.11126737 55.28029036
v 14.93746479 -26.77989192 63.61191212
v 14.85929300 -33.12904956 62.59064032
v 27.81743782 -17.58157475 61.68691728
v 18.63641577 -29.89401891 67.40301446
v 34.31409228 -18.17770503 56.35972288
v 14.85455374 -30.98965454 63.30771444
v 33.82419626 -32.02127305 57.46730224
v 16.97399971 -29.95025958 58.74469019
v 38.14873346 -18.11143555 55.96237947
v 23.85544849 -40.49393245 62.21721577
v 17.86643889 -25.24944970 67.58580392
v 18.38835801 -36.94326191 64.03358571
v 15.42090194 -25.96151478 59.91423679
v 23.03080619 -16.71389963 61.19797475
v 38.11410417 -30.59443900 57.77128180
v 15.35755171 -28.85470331 65.13751460
v 37.04753925 -21.87766760 52.53565584
v 27.20776467 -34.50747696 59.43017295
v 42.14625952 -26.40447250 58.82474793
v 40.93809837 -28.23377072 59.78366551
v 36.63581604 -32.06860254 64.77348567
v 29.25135261 -21.95263314 52.15827038
v 39.44634130 -30.20644689 58.94936239
v 32.02085731 -18.16168501 57.27442112
v 19.49048069 -37.88667025 62.97226841
v 40.65210816 -25.65297637 54.86315223
v 38.22488068 -26.29961345 63.82810580
v 25.21299860 -30.30842183 58.87038938
v 21.43731993 -32.36610731 67.41969926
v 30.48936250 -41.77659531 61.04281845
v 30.42928791 -22.08628652 52.04289135
v 16.57057480 -25.48404945 57.87855564
v 16.80625795 -36.00579274 62.07912355
v 30.79596324 -25.85612117 55.82982974
v 36.35300446 -21.57239964 52.14367231
v 17.36419953 -35.79046224 64.92401233
v 15.82964569 -35.23575593 63.91702165
v 35.84490772 -29.17916891 56.40994374
v 17.16048483 -21.92748852 65.64745546
v 41.70471155 -23.96803129 62.17232994
v 39.85966309 -28.03626379 63.48396506
v 24.23014790 -33.43351459 67.63986018
v 24.17070831 -40.63434119 61.23991159
v 15.09121154 -31.76636255 61.09016020
v 44.22605048 -22.78507867 57.23855639
v 26.93564016 -22.76355580 52.30036752
v 33.90003055 -37.84853774 58.68872660
v 27.24068542 -30.44440572 67.56978620
v 43.08265898 -25.31588330 56.86968618
v 23.99598242 -18.62230052 55.44913544
v 18.11562627 -36.85815925 63.77588058
v 43.16263443 -21.91384412 56.31710578
v 36.68252041 -26.22942083 54.87490096
v 19.38311316 -31.19887134 58.98484431
v 22.94390958 -33.28692895 59.62832904
v 28.68930990 -28.89652286 57.91720122
v 21.49568094 -36.43194006 65.81303675
v 17.39811581 -20.59033364 64.61975659
v 30.63503838 -27.21222273 66.54392029
v 39.63221492 -23.48212215 62.63272185
v 34.70883363 -37.72858686 61.01990983
v 20.50531601 -17.06187147 60.79768633
v 42.15672249 -22.60104050 61.64635262
v 36.67363109 -29.49420282 56.60125192
v 30.53602756 -41.40364229 61.42878053
v 34.56655370 -25.84388750 55.14230682
v 32.45469813 -29.32497338 66.19389134
v 36.17221771 -19.40959089 53.70266953
v 35.41696641 -25.74336794 54.86080782
v 21.28648801 -37.91972789 60.93124684
v 42.40072745 -25.53513423 61.16291041
v 16.56139275 -24.50137847 66.20848494
v 18.79366776 -23.00129403 54.45968339
v 33.76673471 -38.53953488 58.99493945
v 29.98086661 -18.02126192 57.30515173
v 19.35041732 -37.46339264 64.10519513
v 35.16353739 -21.03806586 52.21994900
v 14.93913745 -30.85505765 61.49670094
v 36.19133407 -20.10385004 53.00609267
v 31.47763701 -41.61261652 60.55886649
v 43.43901994 -22.69557715 56.45539929
v 31.65806378 -40.14652907 59.28093588
v 24.38201600 -25.77827014 56.89167188
v 29.13087754 -20.77778014 52.95663151
v 41.72582176 -26.40642536 61.42835198
v 25.73819804 -35.13244908 67.37347481
v 16.87252944 -23.49943284 56.70628442
v 21.64449050 -21.47481569 67.21636273
v 37.19454701 -18.64191458 59.93838557
v 25.99644159 -38.53292020 60.10155451
v 15.53148630 -25.94599812 65.03267146
v 38.97454042 -27.28795036 63.78976334
v 27.74631789 -30.37458747 58.49847055
v 22.33049078 -39.34199731 63.29881579
v 36.66807205 -19.45788086 60.77749112
v 35.34126005 -23.00172779 52.49982995
v 15.19498874 -27.58459228 60.43934657
v 26.74007725 -29.39605702 58.37992651
v 31.74460919 -24.70148948 54.26499287
v 28.49866736 -37.61284745 65.71848745
v 25.32524865 -41.04543579 62.33253638
v 28.19005442 -23.61706820 52.80889362
v 17.06700616 -21.29562820 56.50155668
v 44.56403467 -22.28103779 58.97557806
v 15.20918984 -25.28056321 60.71769668
v 19.14363827 -19.79904352 55.11783641
v 40.62397868 -21.10298081 54.81563419
v 44.10349815 -23.27472370 57.95185937
v 27.53465879 -32.16028490 67.53843453
v 38.34696161 -24.76422295 54.20399121
v 16.79214014 -20.14815855 59.89140850
v 27.06241841 -24.39743765 54.32233468
v 29.13365440 -23.68277765 65.69846083
v 25.43605753 -29.67413595 67.70335666
v 32.56452689 -36.71957881 64.17246538
v 22.84913803 -37.10060490 65.99967818
v 32.02806943 -38.39032622 63.10572098
v 14.89567032 -32.58479550 63.44594941
v 33.22645115 -20.08170140 52.76751106
v 43.26124398 -19.44280488 58.57754263
v 33.70440317 -34.02063266 57.78479765
v 24.86321219 -40.58260123 62.84357879
v 34.02956419 -22.14256185 51.99384443
v 34.03069539 -23.28378170 52.55283003
v 20.97472601 -38.77372371 62.85780270
v 17.32354116 -20.35552088 57.08022655
v 17.39392885 -36.51912081 62.50529294
v 27.59461350 -25.52490792 66.72509641
v 28.54615520 -19.03260126 55.17759477
v 27.17325138 -17.05993056 60.08072367
v 16.26999371 -20.90505519 60.76744905
v 25.14287501 -35.86946125 67.09710825
v 17.68668302 -20.56905927 55.82973086
v 33.52812824 -26.26729901 55.67713120
v 25.01756037 -41.09381319 62.09432268
v 15.00669178 -28.88891121 61.00267456
v 25.10122970 -26.55108702 67.53021798
v 24.97981174 -32.07501924 59.33515886
v 39.68689523 -25.72492342 54.65279071
v 32.81091095 -39.55300156 59.09410458
v 16.91770268 -21.16316212 64.56406780
v 16.56231383 -20.75386918 59.48240864
v 40.70774833 -19.07627842 59.81349623
v 15.03074309 -31.50653709 64.16551724
v 18.14503473 -36.03828172 65.06433778
v 39.13561909 -17.85502314 58.64039291
v 24.29028481 -36.84960515 66.60631592
v 20.21957045 -30.11695142 67.78250304
v 30.31201024 -35.11870145 66.49562128
v 16.28430630 -21.53926063 63.46628511
v 41.36238072 -20.35338245 60.72163434
v 16.59349797 -23.37667981 57.26795571
v 16.23662302 -22.13443409 64.19025736
v 21.63398157 -21.76288851 52.33038425
v 37.23649228 -27.93149901 64.50698636
v 18.26033346 -23.62023567 67.40379167
v 42.91081118 -24.93611243 56.29832111
v 17.65483121 -22.34040962 54.63679614
v 42.34918299 -24.27788838 61.88980284
v 36.45813501 -24.78705965 54.18203556
v 39.20276177 -25.38480240 63.27695290
v 38.97435636 -19.27945565 60.47278853
v 33.68638064 -24.75798005 54.29572729
v 14.95727759 -25.78394153 61.54385925
v 32.31143635 -41.05085520 60.57651437
v 21.05804477 -21.37394377 52.62736442
v 31.89087144 -20.15631025 52.85925847
v 31.61055328 -36.15305803 65.36689119
v 30.64130716 -22.48128445 52.07848249
v 25.09613046 -40.98693755 61.01081569
v 35.21952391 -37.24963343 60.39212253
v 20.23210621 -21.80000072 52.69667362
v 23.27690886 -17.11994304 62.74972524
v 33.56273633 -25.99795302 65.23201888
v 41.60603659 -27.79129488 56.77467281
v 19.76874920 -17.30516369 60.33189442
v 37.94127814 -30.12981493 57.31937989
v 31.28808183 -26.32390572 66.12595000
v 30.24010737 -21.53204245 64.33328854
v 40.00053348 -26.26447586 63.19081230
v 19.90956875 -24.58662918 68.05121288
v 20.67575888 -24.11199285 55.75958300
v 24.73897357 -25.04189660 56.03694331
v 27.44418360 -41.85453922 61.23385251
v 17.28249742 -19.96155269 58.01434131
v 29.49131158 -36.24253773 66.31985616
v 22.09587556 -39.36324987 62.95106547
v 16.68816662 -35.72614818 61.65657481
v 42.20945523 -19.13651441 59.11114705
v 18.10670345 -18.57697378 59.17639872
v 24.80868652 -33.45943262 59.61090977
v 17.48850270 -36.52713304 63.29621118
v 29.05020904 -17.55261267 59.56024685
v 33.53233455 -26.98816362 56.09802585
v 18.54671994 -22.56607317 67.14677266
v 37.75000973 -28.90282219 56.41672793
v 42.26666826 -25.11473094 55.75439171
v 37.42527110 -33.83044261 61.57945590
v 35.97655805 -18.00206740 56.58562898
v 33.22266058 -18.35826959 59.10620785
v 29.62990243 -19.73749590 54.13268808
v 19.74364885 -24.70824911 56.38157992
v 23.11508931 -29.64900464 67.99359211
v 39.16501423 -21.35671666 53.83961981
v 17.99604020 -22.51740027 54.29138938
v 23.20687776 -16.56092878 59.74991708
v 35.65225485 -34.19055740 58.30262011
v 28.67915117 -21.90851856 65.21245077
v 19.39432278 -21.77403301 67.13967284
v 29.35821867 -22.93905323 52.26357161
v 36.22625595 -24.31026820 53.86690851
v 22.69001472 -20.26262303 53.59350120
v 18.45293948 -18.17986021 60.41133139
v 28.88615627 -35.54387919 66.83594322
v 24.87376241 -39.28205278 64.38185002
v 17.07461911 -19.58446609 60.56449383
v 25.44605629 -33.56061534 67.61848074
v 35.01495409 -24.91504271 64.39835047
v 21.70368863 -35.47339598 60.14246102
v 18.80079805 -36.16791369 65.18784356
v 44.85552927 -21.35554478 58.01175445
v 26.52902794 -35.35375277 67.32013152
v 41.77155059 -27.70872278 57.20034370
v 18.75973275 -21.06782946 53.75102321
v 15.04680277 -34.27648362 63.37571708
v 17.01714017 -34.29485314 65.64334946
v 28.03987157 -19.63465068 54.41042278
v 38.82094891 -27.52481073 55.65971853
v 19.90945830 -29.25512375 58.43955569
v 35.65116108 -21.56238841 62.36492935
v 34.94774842 -36.59561320 62.18558920
v 35.12795479 -25.93270505 64.70520484
v 16.63321659 -28.05273769 58.46856144
v 27.55759178 -24.15251965 66.36028800
v 36.47279151 -33.82021694 63.72049036
v 34.65518937 -32.36269338 65.48488024
v 35.78838419 -32.72820627 57.86904712
v 16.48631120 -29.43259651 66.49953388
v 30.85521649 -24.09873160 53.26978713
v 17.52848128 -19.03913679 60.75909666
v 26.41091150 -26.98436302 57.39538548
v 16.30476636 -27.25848792 66.52875735
v 42.83012251 -24.48847893 56.11457321
v 19.86195263 -21.54778672 52.70765046
v 19.49417140 -18.76947193 64.44226844
v 15.20304821 -24.45464110 62.83109799
v 22.46410385 -39.44688245 61.14539480
v 36.84330494 -30.98355287 64.87044308
v 40.12462112 -28.27282685 63.30133012
v 20.82002595 -38.24298447 64.09453091
v 32.03438553 -22.67359148 52.10996205
v 40.62854005 -26.82206499 62.92656536
v 33.20070055 -30.12979843 57.20792955
v 33.96328221 -18.96732755 60.43953976
v 28.18445856 -39.03937640 64.36194336
v 36.97551031 -29.19097849 64.78960038
v 41.77193691 -25.52148617 62.18434418
v 22.09040766 -28.77333044 68.08105879
v 22.17856767 -39.56317544 61.85039300
v 33.03083575 -35.03857632 58.01480464
v 40.27367430 -19.39968187 60.32910144
v 28.13669019 -24.82727705 54.82386911
v 33.09223531 -21.95835128 51.95819348
v 14.95719598 -26.11942991 63.21497888
v 40.27184802 -24.78034436 62.81869090
v 27.93443705 -41.81667055 61.52688377
v 18.54136367 -22.63754693 54.02817719
v 26.99304358 -18.41889449 63.67211631
v 32.89494476 -40.25787829 60.76104892
v 16.82991577 -20.42397017 58.78342709
v 40.00648453 -24.69445938 54.64023204
v 39.84490876 -29.12268603 63.44574843
v 20.00665916 -37.77082251 61.43581972
v 34.78364905 -35.59960176 58.27929819
v 38.10110111 -32.92855109 61.03260815
v 20.61284994 -21.11087615 67.09527949
v 34.61386212 -18.33861603 55.57534819
v 36.96480121 -18.16131893 55.87944309
v 19.36078995 -18.60314110 56.85150230
v 38.22734367 -31.40172761 58.74714891
v 20.73970196 -18.07528225 56.65487934
v 34.94549956 -37.43896682 59.47295847
v 42.43948135 -25.04178538 61.77844264
v 40.88436701 -21.91025656 54.93545486
v 38.13091403 -31.55970916 64.07116511
v 18.04579052 -18.86575583 58.38911699
v 37.96158452 -22.81758938 62.68568237
v 29.73939866 -18.92683520 55.16719779
v 38.16344285 -19.70337596 54.11101920
v 32.28550761 -18.70388351 54.99752266
v 21.24880286 -18.95414260 55.28043449
v 17.39538830 -20.78592686 64.89524135
v 15.49390492 -27.61412312 65.34288844
v 44.12450284 -21.89355724 60.44132350
v 18.76716039 -18.65174153 63.39743891
v 22.22431478 -23.22854456 54.23802303
v 28.60660684 -25.19447783 66.37181909
v 24.22152452 -18.44850365 64.86171453
v 24.74186226 -16.72720362 58.45083583
v 18.92063641 -19.09085981 56.49397219
v 35.27603801 -29.21974051 65.27770596
v 36.23984196 -35.00627823 62.53309590
v 15.83919446 -25.56177859 65.48610785
v 15.12790766 -24.33820262 61.65659102
v 37.17061703 -19.09655495 60.42314837
v 15.85908917 -35.31912220 62.22045610
v 42.67809428 -23.03011494 61.57320525
v 43.73133761 -19.75349426 58.36888446
v 33.29941180 -19.26701054 53.65214303
v 31.60346461 -19.64758451 53.55334471
v 15.29239551 -32.33608556 60.69775739
v 31.49281668 -18.51742814 55.60082232
v 35.57076203 -20.40023986 52.60377789
v 16.81562773 -36.02161800 63.72944909
v 27.20785473 -20.11385419 64.98543134
v 15.11626451 -33.34464782 64.08489227
v 16.48927041 -35.86462653 62.53684202
v 18.19649724 -22.08294774 66.57822674
v 42.86128200 -25.82634851 57.35206643
v 34.28222040 -22.28967642 63.13372888
v 40.62483793 -28.75565390 58.79671555
v 40.33373730 -29.39499215 61.75311954
v 41.05461912 -24.86630822 62.57456946
v 30.98368714 -29.59093287 66.65487960
v 17.58596656 -21.35437653 54.99100450
v 38.68859743 -31.10277723 59.06181062
v 21.30814625 -38.72803516 63.56351203
v 28.83468635 -20.03441640 64.14318733
v 22.21946194 -39.50190938 62.31959378
v 24.70262825 -28.36156665 67.76163154
v 22.19755952 -26.94832127 68.06542067
v 19.32993860 -17.50386541 60.00476261
v 36.71365547 -34.25115966 62.97411085
v 16.29315063 -28.02052653 58.77376636
v 35.43962749 -18.69088335 59.84829120
v 24.87460995 -37.69720806 66.04736035
v 41.03389552 -25.93184261 62.66188184
v 38.77093950 -23.37278981 53.96172199
v 15.66803440 -26.91022099 65.51951938
v 16.74563987 -34.73009979 60.85408278
v 35.59883920 -35.60033756 62.67168548
v 36.66203313 -27.58134796 55.59859862
v 29.21973210 -41.18419856 62.11333906
v 31.94570323 -37.97617544 63.48147658
v 36.24992926 -35.59114237 60.70228228
v 41.83652847 -21.60142310 61.28642357
v 31.31893995 -27.21649325 56.78234676
v 35.12272911 -35.71351585 63.06381740
v 41.67910566 -27.23881467 58.72271848
v 31.33726451 -18.45125631 60.58716456
v 42.34942506 -25.39539586 61.60046416
v 35.73427286 -30.55326569 56.96533760
v 39.12656668 -28.75387819 63.93702086
v 25.98756859 -31.45682843 67.72604529
v 16.66012047 -21.65113438 57.60027540
v 20.57817415 -33.86268324 66.62870028
v 31.27929503 -25.29110874 55.09108023
v 23.85521399 -29.43803264 58.71691661
v 43.06281291 -19.09390881 57.83800637
v 32.48330589 -33.50415411 66.09690477
v 14.87704854 -31.13274507 61.93625409
v 18.20164619 -35.05849955 65.58437739
v 40.35390054 -20.16873221 60.94160247
v 27.31956178 -32.87898690 59.18025207
v 24.58991690 -16.64839525 60.51393949
v 28.14191704 -34.06392384 67.32345392
v 32.14402183 -30.92494492 66.35049883
v 39.10913664 -26.58244439 63.59966220
v 20.76146147 -25.89662675 57.21382746
v 22.83308144 -28.73035901 58.50503026
v 31.90583197 -41.40895138 60.14945338
v 29.83956451 -30.68248243 58.17737201
v 20.31870939 -17.13541426 59.66481208
v 20.71849734 -37.62357124 64.94633625
v 42.95179752 -25.41878662 57.95933396
v 17.29196341 -24.47668060 56.68737995
v 34.56870548 -31.15670194 65.60637398
v 31.05796987 -37.78896289 64.22389018
v 15.80692029 -34.48087823 64.88478377
v 31.90243776 -19.18091931 61.51461632
v 26.62319026 -26.63668857 67.20357915
v 34.83944148 -34.36501228 57.95279827
v 32.06505407 -18.36091605 59.83751347
v 40.94872778 -27.67281608 61.99104176
v 31.89911038 -18.96509079 54.47041957
v 37.73568081 -25.25096047 54.29484112
v 26.57282869 -23.05812311 66.42269730
v 44.07495414 -23.25446151 59.95648261
v 25.12497678 -22.66912097 52.28244690
v 19.63140719 -26.49398850 68.15648611
v 31.54437517 -41.28596914 59.84567541
v 29.42815925 -23.44061728 52.54803611
v 19.13229930 -23.44195989 67.74242366
v 23.49009134 -18.09547933 64.60437208
v 24.21854750 -23.09055491 53.17890798
v 38.39178983 -32.14437596 60.05469153
v 26.49819038 -20.45207397 65.51550974
v 25.93194689 -17.12906442 57.78214697
v 17.01414455 -22.90351554 56.14552838
v 40.22656359 -21.24628975 61.55767141
v 21.09765212 -29.90068534 67.94588099
v 35.91659222 -18.18307716 55.78778186
v 36.99443724 -31.74946421 58.01925163
v 21.04984537 -19.13442589 65.58635958
v 19.32475607 -26.01114347 57.23321699
v 39.61528748 -19.20264951 60.31182156
v 36.69584137 -19.90816892 61.12492693
v 24.03216600 -35.21373182 67.16398131
v 33.47674073 -21.41435385 51.97249360
v 31.76637846 -22.31483623 52.00533170
v 15.59466154 -31.85528385 65.16605984
v 16.91923699 -22.51074649 56.37401236
v 17.13045989 -19.89472023 63.18400959
v 35.43763074 -32.44121747 57.63341898
v 19.44337155 -17.98615047 62.49869109
v 15.04345735 -34.16281861 62.41951627
v 33.25334624 -22.39456734 52.05811938
v 23.53699086 -19.43905956 54.47047928
v 39.37970562 -21.67786340 61.93048453
v 26.82467121 -41.49894201 60.59050524
v 34.68060026 -18.11626100 56.80434387
v 33.61313852 -21.10474272 52.08025208
v 16.00155834 -27.22429762 58.96627893
v 42.92107243 -19.39317124 57.05456763
v 14.83859119 -27.35067428 61.71751134
v 37.74395086 -31.75404608 58.55227287
v 36.85210473 -18.40149571 55.28302127
v 17.84290575 -28.30236280 67.46889833
v 25.71280154 -18.68080267 55.50525576
v 37.16467767 -34.22625068 60.77106614
v 16.29290240 -24.08144952 58.15034324
v 25.47193219 -37.08656934 66.57003000
v 21.42861720 -19.92264648 66.35406947
v 18.42586523 -18.23909450 59.57599002
v 16.57092135 -21.52427795 64.30794371
v 18.04712085 -36.59791149 61.60223348
v 22.67047050 -24.05954390 67.67368160
v 17.44551390 -26.15094018 57.47086095
v 37.90480761 -23.26751074 53.59123964
v 15.99647637 -24.82095770 58.79707733
v 39.94994269 -23.99519938 62.72754839
v 35.19466576 -20.06556866 61.38704610
v 40.06957219 -29.60874132 59.74388966
v 22.15955773 -30.55303489 67.92368608
v 21.92423284 -30.40537476 58.89464341
v 32.89544568 -25.55942704 65.30983189
v 30.50718077 -24.99419707 54.69934111
v 19.12999806 -36.99854173 64.63952989
v 28.85190514 -25.89286816 56.12635918
v 27.91335496 -22.85861268 65.87260797
v 44.62088750 -21.53931547 57.27240665
v 42.22622090 -18.93256986 56.92064466
v 16.77344075 -20.04651270 60.37970164
v 37.61156218 -24.17289517 53.88374669
v 37.61427925 -28.10073096 55.92702277
v 33.35899169 -26.94401071 65.58475984
v 20.74793327 -23.29140687 54.69617293
v 18.41801007 -34.40419208 60.20014777
v 37.15820960 -17.85651895 58.02885096
v 34.44312862 -20.59793466 52.40002861
v 33.43624512 -37.38601533 58.42123770
v 41.96515263 -21.81550622 55.59118666
v 16.29208511 -22.17143722 58.55409228
v 22.93801426 -26.27970155 67.90756643
v 15.17244056 -29.78783651 64.83125346
v 43.88479855 -19.99806972 57.38434450
v 18.82283942 -27.77478090 67.89713453
v 35.35509078 -30.06473995 56.78710777
v 39.63143867 -22.16975990 54.23672941
v 15.23075238 -27.11589085 64.68073670
v 34.80978822 -19.46924542 53.41310664
v 22.01335024 -23.83493747 55.24591409
v 23.99978074 -37.39394366 60.24159930
v 28.83955179 -30.91162605 58.46185993
v 39.09789252 -31.24821841 60.56972933
v 20.69925533 -36.94281933 60.70472383
v 43.01917942 -25.14497244 56.56250372
v 42.22353113 -18.62943773 57.34486566
v 41.97315919 -26.09996575 55.50668002
v 24.25967726 -21.02324875 66.51618515
v 22.11544771 -16.90693117 58.19101615
v 39.60237654 -20.70075191 61.40327901
v 23.07899347 -16.78044937 58.40085681
v 15.80325570 -22.53096167 63.32508507
v 19.82692799 -18.84931999 56.11009271
v 22.71305757 -17.42723867 57.12139063
v 40.55839728 -28.59557685 62.27675879
v 24.51353442 -27.76328151 58.08567660
v 21.92698626 -38.91115725 61.08196163
v 36.60077496 -23.33000330 53.15200308
v 22.51387218 -34.26056697 59.85793360
v 39.20799320 -24.96541513 54.39719594
v 17.55006772 -19.17771006 59.49046406
v 32.72059188 -40.19205479 59.39729964
v 31.72754292 -25.27777005 65.51029605
v 23.23157575 -38.60295355 64.84706311
v 33.89070702 -30.45953621 57.11633750
v 35.21649698 -34.17657553 64.54409005
v 22.38462465 -38.11099480 60.67823548
v 38.29999521 -24.14198993 63.19543206
v 39.37715003 -19.91015476 54.59578165
v 31.60596849 -26.99458874 66.21319068
v 18.83348105 -23.61507989 55.22955563
v 16.16147769 -23.12505619 58.50916541
v 32.98713140 -32.05424995 57.61299200
v 29.32396606 -41.87456948 60.31819934
v 37.10212670 -34.13782364 60.13462103
v 15.70531585 -32.35915434 60.18677059
v 40.53878734 -28.69868387 57.77637551
v 21.79025989 -37.15631749 65.48490509
v 20.34707999 -17.99358876 63.57317352
v 31.02343651 -20.82041584 52.49012238
v 20.07012722 -38.24116188 62.60831615
v 29.20546687 -35.26553349 59.05180936
v 41.08009774 -24.83966424 55.08354353
v 15.30087488 -30.57771460 64.99898302
v 34.91308355 -27.79044360 65.22477737
v 29.49424743 -29.22771773 67.05817994
v 38.50973678 -17.70828002 57.20327995
v 24.13084112 -16.57544621 59.99023579
v 34.22493275 -34.97873478 57.99726772
v 31.49921507 -33.04859791 66.48882496
v 34.91467880 -37.62588525 59.69368247
v 43.40447717 -20.63645615 56.67488938
v 26.43128199 -19.21025341 64.72055614
v 17.92014107 -21.45531924 65.97401955
v 32.20868708 -41.09876964 59.97116558
v 16.31017456 -32.35713517 59.83890519
v 34.02712578 -33.78404972 65.43008617
v 35.57290789 -34.65307617 63.72762637
v 22.40533288 -18.78127824 55.24930117
v 34.10102004 -18.15666527 57.47030071
v 29.44859977 -19.76875888 63.59640514
v 22.31932967 -32.55660484 59.43214943
v 26.88888542 -40.15312378 63.41843927
v 37.84154562 -27.25838416 55.42418460
v 37.48454371 -30.07147957 64.62096548
v 44.32764161 -20.63187722 57.31236151
v 40.97066177 -27.95946439 61.55108284
v 43.51542845 -23.66854906 61.00796479
v 41.06805421 -20.87985462 61.14008072
v 33.30761595 -19.43648871 53.44182157
v 25.14681467 -16.71312624 58.71356414
v 24.70495579 -34.56312176 67.43664348
v 36.27632490 -21.21625944 52.24620250
v 34.51561792 -24.35748156 53.88053620
v 15.81738477 -32.06203935 65.36984072
v 34.87660994 -37.18429622 61.48228449
v 23.86970816 -27.45924035 67.83944088
v 25.91067790 -16.79075233 59.12837843
v 15.74190124 -29.01310564 65.76673609
v 38.48207809 -18.34366569 59.54783179
v 18.40765191 -18.40949528 61.89953061
v 16.09182737 -25.64817204 58.65552221
v 28.09528579 -26.63017367 56.90968903
v 39.05161807 -20.81073061 53.91142852
v 25.71400556 -17.24000247 57.49635822
v 20.65505229 -17.64537618 63.00385796
v 28.96326604 -40.21073297 59.69978488
v 25.10124887 -36.71603243 66.76893804
v 32.53159753 -19.85717209 53.06983216
v 39.33601721 -22.63287435 54.14332736
v 23.33618961 -22.57766003 52.69543406
v 39.02527515 -22.82909575 62.53407691
v 18.27537994 -31.45570811 59.08964040
v 16.03904766 -22.09321378 59.54328393
v 20.15342467 -20.65751680 53.37216226
v 21.48604697 -16.76137152 59.57491344
v 30.45882918 -34.28106540 66.66071249
v 36.48658316 -35.06954466 60.02240387
v 25.53719718 -17.58781059 63.35815006
v 18.84561679 -20.26999007 54.62281255
v 30.46906500 -23.21950561 52.38098911
v 43.42642028 -22.37688119 61.13095397
v 38.22916039 -32.19364704 63.39158066
v 31.64286892 -21.65901294 52.00259252
v 37.17552134 -25.86135827 54.64177505
v 40.01866121 -24.07651964 54.62382922
v 34.28568074 -37.62212266 61.86435770
v 33.04400784 -25.34049457 54.99784263
v 17.05339797 -32.93637741 59.82006289
v 17.20888267 -27.21381337 57.89094231
v 23.07976307 -37.99518497 60.50350607
v 16.96536918 -35.05365059 65.36094039
v 44.29401132 -22.71972917 60.39243218
v 18.85449966 -21.45213981 66.59860458
v 39.98962202 -19.50953991 55.14926048
v 20.60834627 -38.42562299 63.33963758
v 16.97923971 -31.33623356 59.21805362
v 21.31457684 -19.73442771 54.32913533
v 27.96664385 -25.47862541 55.77876860
v 35.87637066 -35.77033850 61.82655227
v 32.45462801 -22.88861699 52.20064339
v 26.64462774 -21.96530715 52.44618846
v 27.42082358 -31.75637392 58.91255726
v 30.15862367 -32.43263844 66.93910409
v 21.42914438 -20.52658670 66.76865017
v 20.57693437 -22.69935735 53.69881267
v 39.41873833 -29.96200049 58.45534149
v 42.81426435 -23.90785340 56.10538078
v 33.80232292 -23.75398002 53.01698136
v 20.68383714 -37.81700631 61.09002229
v 22.05623267 -37.65885500 65.25374039
v 44.01087896 -21.29955302 59.99009346
v 22.79148926 -18.06572644 56.18156192
v 39.32617857 -30.67341821 59.65552657
v 29.14375481 -42.05353653 60.89954821
v 31.32801625 -40.03870452 62.26216573
v 38.70760199 -30.44570532 58.15187342
v 32.44323520 -39.24501811 58.96620518
v 24.76160849 -19.05428774 55.00480219
v 18.03932638 -35.99486510 61.09035804
v 37.12886176 -22.46650516 62.60895876
v 41.82011596 -26.55498587 55.52619477
v 33.60846777 -24.30982845 53.77859239
v 29.34813493 -20.39383865 53.37033029
v 32.65780074 -27.68625515 66.00566587
v 17.36147572 -23.79146027 66.77242385
v 28.73425624 -41.74110706 60.27263130
v 30.62541413 -31.09677266 66.81481813
v 18.85407946 -28.68865694 67.76415004
v 19.18558448 -24.34868712 67.92618956
v 23.55203853 -39.98113464 63.20141413
v 19.83189410 -20.91874059 66.72756853
v 17.01161017 -19.74068412 61.99834967
v 15.70604055 -30.98482581 59.83998150
v 44.51522883 -22.51481000 59.63904188
v 43.41575300 -24.50900908 57.11432089
v 35.94491911 -18.95178921 54.24116726
v 34.69548464 -37.98018283 60.08633535
v 19.91367541 -34.92559563 60.19139492
v 38.70631796 -21.82250787 53.58424687
v 43.34297528 -24.37729335 59.13916101
v 42.58165150 -26.03359336 58.17265627
v 38.58951359 -20.33518030 61.30166963
v 37.02043635 -19.64052886 53.73436051
v 30.23823678 -39.65023650 62.99657248
v 19.44530014 -20.04660625 65.79869900
v 44.04899064 -20.60713361 59.05035568
v 29.14494459 -40.86536765 62.42420439
v 22.41550713 -16.96816865 62.00945140
v 15.31621600 -24.06051050 63.20213770
v 19.68255362 -22.99918343 54.32758442
v 16.67078618 -22.37349359 57.18517666
v 37.82580704 -31.34232361 64.33649552
v 26.34867686 -20.22216769 53.74502051
v 37.85587363 -33.09346957 62.53504112
v 17.90445929 -19.61182364 64.06432987
v 25.65855450 -34.88075556 59.75615476
v 29.26838589 -17.71110752 60.44080157
v 26.66901991 -27.63220654 57.69606851
v 17.74611415 -22.01822439 54.21851941
v 20.13799365 -37.53156551 64.66360691
v 41.58621620 -26.41327951 61.81174713
v 39.15424729 -18.44199298 55.79833162
v 17.52720863 -19.24456099 62.33429173
v 18.32755738 -20.81123621 54.43812437
v 27.82283521 -38.29167564 65.24364017
v 30.27100771 -23.35263632 65.15529429
v 38.22393694 -19.02154398 54.83573025
v 43.98032120 -23.51912584 57.48651859
v 41.47008059 -26.29048468 62.20390986
v 18.48092768 -20.51254257 65.66835120
v 14.89009782 -26.34936254 62.47580496
v 17.84163311 -24.45152374 56.32056773
v 42.79779394 -25.21140957 59.24587321
v 25.84538141 -18.24591664 56.00824065
v 21.74699228 -31.60299865 67.71996951
v 43.96960295 -23.48175857 59.00467627
v 17.12613631 -22.01708161 55.66756568
v 18.72361108 -19.02329306 64.02160852
v 15.34198079 -23.47588827 62.02946921
v 41.49399006 -20.83931169 55.40635412
v 28.03539571 -39.83073689 63.52810018
v 20.97676582 -16.92163791 59.17727675
v 20.40362931 -19.63626601 54.69143746
v 36.80605799 -32.63786277 64.50276153
v 42.01947263 -24.90365333 62.09230787
v 19.20091489 -17.61856449 59.69336290
v 36.08829594 -26.60795899 55.16962476
v 30.48170106 -41.92891844 60.46832444
v 29.03387567 -18.28010788 56.26695105
v 30.54750618 -37.35072465 64.98088869
v 25.88207524 -37.73234933 66.04027667
v 44.64953507 -22.10786096 59.82279898
v 39.90696266 -29.70469301 58.96680866
v 42.46224243 -18.79253855 58.24185871
v 36.81487398 -26.77143634 55.11044363
v 23.15560431 -19.45201188 66.00440529
v 17.77008763 -26.83453588 57.64380502
v 35.79707317 -26.27600146 64.59634746
v 37.17857872 -32.16657978 58.38886939
v 21.32832828 -38.97757569 61.61711888
v 17.47784293 -19.73111209 63.56657666
v 30.42502891 -20.72151240 52.78621844
v 34.64854760 -38.02706266 60.46019134
v 17.20652892 -36.38817765 62.85772290
v 16.27826113 -24.49713823 65.78813141
v 18.25068892 -23.98488677 55.80339734
v 20.23415535 -17.60481640 57.89678064
v 15.89419024 -22.08035455 62.92274605
v 36.03401289 -34.96562364 62.93005459
v 42.49507394 -20.05041698 59.88993954
v 44.27101307 -21.16603155 59.50888997
v 21.27236916 -26.77775020 68.16061720
v 19.46814340 -33.39260671 59.70384260
v 19.38653414 -17.78154340 61.80453640
v 24.70412818 -31.69558019 67.77095950
v 38.99587885 -28.42457942 56.29254423
v 40.31584896 -19.84134779 55.10958928
v 38.40988153 -23.38050847 62.87221516
v 28.39770762 -17.39943145 60.47805130
v 25.77208201 -32.45400260 67.71729660
v 37.93297702 -22.68476311 53.35161987
v 44.20903368 -23.07814900 58.63958930
v 17.60687624 -21.81148265 54.58171167
v 39.03899388 -24.30272614 54.31847441
v 37.70421592 -20.82952696 53.01080151
v 27.37293075 -18.99838784 64.08143087
v 18.12651036 -26.30231650 67.83040915
v 36.98852428 -23.55618618 53.45915191
v 14.84095633 -27.91402257 63.08998877
v 30.59887595 -18.18212068 56.81893965
v 40.64832193 -28.68016840 58.12528892
v 36.23520100 -33.49833597 64.29075879
v 16.46233733 -26.84983020 66.70586771
v 20.04275565 -19.12648358 65.29196594
v 14.79191153 -27.79071419 62.41731594
v 43.57495649 -24.02303324 56.86771699
v 39.86528726 -30.27387082 62.01149669
v 15.66908159 -23.77032666 59.69400373
v 28.94335276 -18.34241329 62.15411267
v 29.60176548 -41.73571319 61.45218107
v 41.75116605 -26.56645200 61.02207034
v 26.60311596 -17.11706851 58.21821654
v 31.73579394 -18.09343346 57.86091124
v 26.34793235 -40.54445807 60.34494428
v 22.23301639 -16.69203404 58.96033587
v 23.66602750 -18.98167149 65.53440840
v 26.42449738 -38.72695992 64.94562067
v 17.09265451 -31.37518038 66.39884419
v 25.41160953 -24.29488859 67.04042500
v 23.49030024 -40.13292455 62.75745070
v 31.90465033 -22.01204330 51.97442390
v 42.38886704 -19.50527590 56.57156194
f 1243 461 1172
f 1243 1010 461
f 536 1010 1243
f 536 1086 1010
f 1010 1086 446
f 1010 446 663
f 1010 614 461
f 1010 663 614
f 446 199 663
f 614 199 147
f 614 663 199
f 1086 991 446
f 446 991 199
f 147 199 555
f 1086 120 991
f 199 978 555
f 991 1013 199
f 199 1013 978
f 120 1013 991
f 978 1013 436
f 1013 376 436
f 517 130 1123
f 517 402 130
f 1123 130 1161
f 1161 130 76
f 402 820 130
f 868 402 1213
f 402 868 820
f 130 820 76
f 868 1262 820
f 1262 1243 820
f 820 1243 76
f 1011 1262 868
f 1011 280 1262
f 1262 280 1243
f 1243 1172 76
f 307 1172 195
f 307 76 1172
f 280 536 1243
f 769 195 1172
f 902 511 547
f 511 1011 547
f 1011 536 280
f 1172 461 769
f 1011 511 1086
f 1011 1086 536
f 461 614 147
f 461 1330 769
f 461 147 1330
f 514 769 1330
f 511 601 989
f 511 120 1086
f 514 1330 147
f 511 989 120
f 147 555 432
f 120 989 441
f 1383 120 441
f 1383 408 120
f 408 1013 120
f 408 376 1013
f 376 1424 436
f 706 436 1424
f 436 706 978
f 1424 725 706
f 517 1277 168
f 1123 1110 517
f 517 1110 1277
f 168 402 517
f 168 1213 402
f 539 1110 1123
f 1123 778 539
f 1123 1161 778
f 1161 1014 778
f 307 1161 76
f 1014 1161 307
f 778 1014 658
f 1396 868 1213
f 576 868 1396
f 1014 307 780
f 1014 780 167
f 1317 576 1396
f 576 1011 868
f 780 307 195
f 547 1011 576
f 902 576 1317
f 576 902 547
f 780 195 1337
f 1337 195 769
f 928 601 902
f 902 601 511
f 830 989 601
f 514 147 19
f 432 1128 147
f 147 1128 19
f 830 441 989
f 979 1128 432
f 1383 441 594
f 555 1103 432
f 978 1103 555
f 979 432 1103
f 408 1424 376
f 377 408 1383
f 725 1424 776
f 706 725 1122
f 1213 168 40
f 667 81 539
f 667 539 778
f 1396 1213 255
f 778 1246 667
f 778 658 1246
f 167 658 1014
f 785 1396 255
f 785 1317 1396
f 167 780 25
f 25 780 1337
f 699 902 1317
f 699 928 902
f 25 1337 990
f 928 1130 601
f 514 1337 769
f 1337 514 1361
f 1130 830 601
f 990 1337 1361
f 1130 1368 830
f 1361 514 19
f 1368 441 830
f 1361 19 1356
f 1368 454 441
f 19 1128 710
f 19 710 1356
f 441 454 594
f 1128 979 710
f 377 1383 594
f 900 1103 978
f 1103 272 979
f 979 272 1220
f 1424 408 377
f 1103 900 272
f 900 978 706
f 1424 377 776
f 706 1122 900
f 900 504 272
f 272 504 1220
f 725 1233 1122
f 725 1437 1233
f 1122 1233 577
f 900 1122 504
f 1277 732 40
f 168 1277 40
f 1445 1277 1110
f 584 1213 40
f 81 1110 539
f 181 81 667
f 255 1213 584
f 1246 736 667
f 658 167 1246
f 167 25 1419
f 1347 1317 785
f 399 699 1347
f 1347 699 1317
f 399 928 699
f 399 1312 928
f 1130 928 1312
f 1130 1312 751
f 1361 701 990
f 1130 751 656
f 1130 656 1368
f 1361 1356 701
f 1356 487 701
f 497 454 1368
f 1356 144 487
f 225 454 497
f 144 1356 710
f 225 594 454
f 710 24 144
f 225 1258 594
f 487 144 430
f 979 1220 710
f 710 1220 24
f 144 24 430
f 1258 377 594
f 24 1220 431
f 1258 1099 377
f 24 431 430
f 430 431 425
f 1099 1000 1436
f 1099 1436 377
f 1220 504 431
f 1437 725 776
f 504 1122 577
f 1436 244 377
f 377 244 776
f 776 244 1437
f 577 1160 504
f 1437 235 1233
f 577 1233 231
f 577 231 1160
f 40 732 723
f 1445 732 1277
f 964 1445 1110
f 81 964 1110
f 736 181 667
f 1246 353 736
f 117 785 255
f 1419 1246 167
f 353 1246 1419
f 1347 785 117
f 990 309 25
f 25 309 1419
f 309 990 1202
f 701 1202 990
f 603 309 1202
f 1202 701 1288
f 1202 1288 1411
f 1288 202 1411
f 1288 701 202
f 656 497 1368
f 701 487 202
f 497 1187 225
f 225 1187 139
f 1153 202 487
f 225 139 1258
f 487 430 1179
f 487 1179 1153
f 139 1000 1258
f 1258 1000 1099
f 430 362 1179
f 139 1184 1000
f 425 362 430
f 431 366 425
f 504 84 431
f 431 84 366
f 228 1437 244
f 504 1160 84
f 1000 1244 1436
f 235 1437 340
f 1160 141 84
f 1251 1436 1244
f 244 1436 1251
f 228 23 1437
f 1437 23 340
f 1233 235 231
f 231 235 440
f 231 141 1160
f 141 847 84
f 366 84 847
f 723 584 40
f 870 732 1445
f 1111 870 1445
f 964 1111 1445
f 824 964 81
f 824 81 181
f 386 255 584
f 386 117 255
f 1419 309 1257
f 309 603 1257
f 1312 399 1119
f 603 1202 1411
f 1306 656 751
f 1187 497 656
f 1187 656 1306
f 1411 202 249
f 202 1153 1446
f 424 139 1187
f 424 1182 139
f 1182 1184 139
f 362 621 1179
f 425 621 362
f 685 1000 1184
f 512 425 366
f 425 512 621
f 685 1244 1000
f 228 244 1251
f 1251 831 228
f 23 228 894
f 235 340 605
f 141 231 440
f 141 1253 847
f 242 366 847
f 366 242 512
f 1244 1221 1251
f 228 831 894
f 141 166 1253
f 235 901 440
f 440 901 4
f 506 181 736
f 584 476 386
f 1419 43 353
f 1119 399 1347
f 43 1419 1257
f 1232 1312 1119
f 1257 603 162
f 1232 1306 751
f 1232 751 1312
f 162 603 1411
f 1232 416 1306
f 249 1374 162
f 588 1306 416
f 1411 249 162
f 588 1187 1306
f 26 1187 588
f 1446 249 202
f 26 424 1187
f 1125 1446 1153
f 684 1446 1125
f 1125 1153 1179
f 1125 1179 91
f 1179 1060 91
f 1179 621 1060
f 621 1388 1060
f 1182 1439 1184
f 1439 685 1184
f 512 1388 621
f 907 1244 685
f 28 1251 1221
f 28 831 1251
f 1244 907 1221
f 894 831 70
f 894 118 23
f 23 118 340
f 118 605 340
f 901 235 605
f 166 141 440
f 847 390 242
f 605 118 901
f 440 4 1036
f 440 1036 166
f 390 847 1253
f 964 1118 1111
f 1118 964 824
f 353 718 736
f 913 136 1347
f 136 1119 1347
f 162 808 1257
f 1374 808 162
f 588 416 982
f 982 26 588
f 684 249 1446
f 1401 26 982
f 424 26 1401
f 91 1167 1125
f 558 91 1060
f 595 1182 424
f 1182 1376 1439
f 821 1388 512
f 890 821 512
f 890 512 242
f 831 1413 70
f 890 242 567
f 894 70 118
f 844 242 390
f 242 844 567
f 1036 790 166
f 118 1084 901
f 901 1084 4
f 1253 166 790
f 844 390 962
f 1253 790 863
f 962 390 1107
f 390 1253 1107
f 1253 863 1107
f 732 294 723
f 294 1295 723
f 563 732 870
f 1295 584 723
f 1111 1118 952
f 1295 476 584
f 444 824 181
f 181 506 444
f 339 386 476
f 736 718 506
f 353 671 718
f 339 117 386
f 913 117 339
f 117 913 1347
f 43 671 353
f 136 1291 1119
f 905 43 1257
f 1291 1232 1119
f 808 905 1257
f 1374 1163 808
f 992 587 416
f 416 1232 992
f 416 587 982
f 533 1374 249
f 1225 249 684
f 684 1239 1225
f 1125 1167 684
f 684 1167 1239
f 112 424 1401
f 112 595 424
f 42 91 558
f 91 42 1167
f 595 1376 1182
f 1388 821 1060
f 1439 1376 1269
f 1269 685 1439
f 108 685 1269
f 685 108 907
f 1066 28 1221
f 314 1413 831
f 28 1066 831
f 1351 70 1413
f 70 1351 118
f 1351 1084 118
f 1006 1036 796
f 790 1036 1006
f 1051 1084 1351
f 1084 955 4
f 955 1036 4
f 796 1036 955
f 863 790 1006
f 1295 294 123
f 3 1295 123
f 563 294 732
f 476 1295 3
f 952 870 1111
f 952 1118 1294
f 1118 824 73
f 444 73 824
f 188 339 476
f 671 38 718
f 43 905 671
f 992 1232 1291
f 1377 992 1291
f 1377 587 992
f 1186 982 587
f 980 982 1186
f 1225 533 249
f 1239 637 1225
f 90 1401 982
f 42 644 1167
f 558 1009 42
f 821 558 1060
f 112 284 595
f 595 284 1376
f 1074 1376 284
f 1074 1269 1376
f 1074 503 1269
f 821 890 509
f 503 108 1269
f 509 890 1404
f 108 551 907
f 551 1221 907
f 1404 890 567
f 314 831 1066
f 1221 551 1066
f 1084 1051 955
f 1051 484 955
f 955 484 796
f 567 844 962
f 567 962 495
f 1006 273 863
f 1107 863 273
f 855 188 104
f 104 188 3
f 123 296 104
f 123 1090 296
f 294 1090 123
f 855 867 188
f 104 3 123
f 747 1090 294
f 747 294 563
f 911 563 870
f 911 870 952
f 10 339 867
f 867 339 188
f 3 188 476
f 1268 136 10
f 10 913 339
f 136 913 10
f 1268 1291 136
f 1268 486 1291
f 671 905 1333
f 486 1377 1291
f 486 587 1377
f 905 808 985
f 807 587 486
f 1001 1186 587
f 1001 980 1186
f 533 1163 1374
f 533 1225 637
f 980 90 982
f 1239 1167 644
f 434 1401 90
f 1401 434 306
f 1009 103 42
f 306 112 1401
f 1009 558 821
f 306 284 112
f 284 306 1380
f 509 1009 821
f 1009 509 20
f 715 1066 551
f 495 1404 567
f 715 561 1066
f 1066 561 314
f 253 1351 1413
f 1051 1351 193
f 1351 253 193
f 273 1006 796
f 1107 1064 962
f 962 1064 495
f 1064 1107 273
f 495 1064 852
f 1183 1064 273
f 1064 1242 852
f 104 138 855
f 296 138 104
f 855 873 945
f 855 138 873
f 867 855 945
f 563 911 747
f 952 1274 911
f 945 10 867
f 73 1294 1118
f 945 88 1268
f 1268 10 945
f 1268 88 122
f 122 486 1268
f 671 1333 38
f 122 485 486
f 1263 1333 1170
f 1333 905 1170
f 1273 486 485
f 1273 502 807
f 807 486 1273
f 1001 587 807
f 985 808 1163
f 1001 298 980
f 298 90 980
f 1239 1152 637
f 1152 1239 644
f 298 434 90
f 42 922 644
f 579 306 434
f 579 434 298
f 922 42 103
f 922 103 383
f 306 579 1380
f 1340 103 1009
f 20 1340 1009
f 284 1033 1074
f 1380 1033 284
f 877 1074 1033
f 877 503 1074
f 560 20 509
f 1340 20 560
f 877 763 503
f 763 108 503
f 560 509 1404
f 108 316 551
f 763 316 108
f 715 551 316
f 314 561 593
f 593 1413 314
f 1413 593 704
f 1413 704 253
f 704 193 253
f 484 1143 796
f 193 1081 1051
f 1051 1081 484
f 484 1081 1143
f 382 495 852
f 852 1242 382
f 1183 273 1336
f 1183 1101 1064
f 1064 1101 1242
f 138 632 873
f 138 1264 632
f 1264 138 296
f 154 1264 296
f 296 1090 154
f 56 873 632
f 154 1090 508
f 1090 747 508
f 911 508 747
f 873 88 945
f 56 632 1264
f 1274 952 1294
f 797 444 506
f 506 718 368
f 349 122 88
f 925 122 349
f 1415 368 718
f 1415 718 38
f 925 485 122
f 1358 485 925
f 1273 485 1358
f 1333 1263 38
f 1273 412 502
f 905 985 1170
f 502 1001 807
f 223 1001 502
f 692 1001 223
f 753 1163 533
f 298 1001 692
f 644 521 1152
f 521 644 922
f 987 579 298
f 383 125 922
f 1135 1380 579
f 1340 328 103
f 383 103 328
f 1405 328 1340
f 1340 560 1405
f 85 420 763
f 316 763 420
f 261 560 1404
f 420 715 316
f 1342 561 715
f 715 420 1342
f 1342 593 561
f 415 704 593
f 1081 193 704
f 1108 1336 796
f 593 176 415
f 796 1336 273
f 261 1404 495
f 495 382 261
f 1336 74 1183
f 1183 1120 1101
f 911 1093 508
f 1274 1093 911
f 154 508 803
f 873 94 88
f 1096 1264 154
f 94 349 88
f 56 1264 245
f 1299 1264 1096
f 634 73 444
f 506 368 89
f 229 925 349
f 229 1358 925
f 229 469 1358
f 1358 412 1273
f 1358 469 412
f 1170 985 578
f 438 502 412
f 438 223 502
f 438 692 223
f 637 753 533
f 341 753 637
f 238 298 692
f 238 987 298
f 922 198 521
f 922 125 198
f 891 579 987
f 891 1135 579
f 125 383 582
f 328 582 383
f 1380 1135 914
f 914 1033 1380
f 1305 1405 560
f 261 1305 560
f 1108 796 1143
f 874 593 1342
f 176 593 874
f 672 704 415
f 1433 1081 704
f 704 672 1433
f 1081 9 1143
f 192 261 382
f 1242 1047 382
f 382 1047 192
f 1242 1101 1047
f 803 508 1093
f 56 686 873
f 873 686 94
f 803 1093 93
f 93 1093 258
f 258 1093 1274
f 258 1274 1294
f 287 349 94
f 245 686 56
f 940 803 93
f 634 1294 73
f 634 258 1294
f 1299 245 1264
f 1299 1096 997
f 385 154 803
f 1096 154 385
f 385 803 940
f 797 634 444
f 349 287 229
f 89 797 506
f 368 1191 89
f 469 229 367
f 38 1140 1415
f 38 1263 1039
f 1170 578 1263
f 469 1026 412
f 412 1026 834
f 412 834 438
f 438 834 445
f 445 692 438
f 692 445 238
f 1152 341 637
f 1152 521 746
f 1194 891 987
f 1194 987 238
f 125 805 198
f 1194 675 891
f 1135 891 675
f 582 805 125
f 1405 260 328
f 260 582 328
f 914 1135 675
f 914 194 1033
f 1033 194 877
f 194 145 877
f 877 145 763
f 763 145 85
f 308 1305 261
f 185 420 85
f 185 458 420
f 1342 165 874
f 1272 672 415
f 415 176 1272
f 672 573 1433
f 1081 1433 9
f 625 74 1336
f 1183 74 1120
f 258 634 55
f 825 55 634
f 371 93 258
f 371 258 55
f 825 634 797
f 287 367 229
f 368 149 1191
f 368 1415 149
f 1140 149 1415
f 1026 469 367
f 38 1039 1140
f 111 268 834
f 1026 111 834
f 1163 578 985
f 834 268 445
f 445 268 827
f 445 827 238
f 782 753 341
f 886 238 827
f 886 545 238
f 545 1194 238
f 198 805 1416
f 1386 582 260
f 1386 805 582
f 260 1405 1305
f 192 308 261
f 458 1342 420
f 458 165 1342
f 625 1336 1108
f 1143 625 1108
f 573 672 1272
f 240 467 9
f 9 467 1143
f 1272 176 391
f 1047 336 192
f 1101 279 1047
f 1101 1120 140
f 543 287 94
f 371 55 1302
f 1302 55 825
f 825 797 491
f 968 543 94
f 968 94 686
f 93 371 940
f 825 491 1302
f 664 797 89
f 491 797 664
f 1096 813 997
f 664 89 1191
f 385 813 1096
f 1353 367 287
f 543 1353 287
f 1353 1417 367
f 1417 1026 367
f 1039 1263 354
f 1371 1026 1417
f 269 111 1026
f 269 268 111
f 804 268 269
f 222 578 1163
f 241 827 268
f 1163 753 222
f 1152 746 341
f 521 1362 746
f 198 1362 521
f 198 809 1362
f 1416 805 1328
f 805 1386 1328
f 995 260 1305
f 194 357 145
f 1408 85 145
f 357 1408 145
f 1408 185 85
f 995 1305 308
f 1116 185 1408
f 1116 458 185
f 165 458 1259
f 336 1275 192
f 1275 308 192
f 874 391 176
f 292 1433 573
f 292 573 969
f 9 1433 292
f 1143 467 625
f 1047 279 336
f 279 1101 140
f 409 1302 491
f 409 491 664
f 968 686 245
f 940 155 385
f 371 155 940
f 1316 371 1302
f 155 371 1316
f 409 664 655
f 543 906 1353
f 813 385 437
f 437 385 155
f 1353 906 859
f 1422 1191 149
f 149 1140 1422
f 859 1417 1353
f 859 546 1417
f 1417 546 1371
f 1371 269 1026
f 1371 96 269
f 804 269 96
f 804 241 268
f 63 241 804
f 222 753 782
f 63 827 241
f 30 827 63
f 30 886 827
f 971 545 886
f 843 545 971
f 1416 809 198
f 812 1194 545
f 1328 1370 1416
f 914 675 941
f 941 612 914
f 914 612 194
f 612 357 194
f 1254 357 612
f 995 622 260
f 1386 260 622
f 1254 1408 357
f 995 452 622
f 301 1408 1254
f 995 308 452
f 301 1116 1408
f 452 308 1275
f 764 1008 1275
f 764 1275 336
f 1259 1212 165
f 391 874 58
f 165 58 874
f 694 467 240
f 467 694 931
f 931 1314 74
f 625 931 74
f 279 764 336
f 988 74 1314
f 140 197 279
f 988 1120 74
f 906 543 968
f 245 1344 968
f 1344 245 1299
f 602 409 655
f 664 1191 655
f 155 800 437
f 1316 1302 602
f 602 1302 409
f 233 655 1191
f 1191 1422 233
f 233 1422 654
f 963 813 437
f 963 437 1148
f 1148 437 800
f 237 1422 1140
f 1113 96 1371
f 578 222 153
f 971 886 30
f 1416 384 809
f 1416 1370 384
f 843 812 545
f 1154 1194 812
f 1089 1370 1328
f 1194 1154 917
f 917 675 1194
f 917 941 675
f 1328 1386 1286
f 622 1286 1386
f 452 456 622
f 456 1286 622
f 301 1254 480
f 1008 627 1275
f 452 1275 627
f 389 1116 301
f 1116 243 458
f 243 1259 458
f 58 165 1212
f 230 1272 391
f 931 625 467
f 1116 996 243
f 1259 243 1212
f 58 230 391
f 538 573 1272
f 292 240 9
f 694 240 1234
f 573 538 969
f 240 292 1234
f 694 1234 190
f 694 190 498
f 279 197 44
f 279 44 764
f 1265 140 1120
f 197 140 1265
f 988 1265 1120
f 774 360 968
f 1344 774 968
f 813 1173 997
f 602 1247 1316
f 350 1247 602
f 655 350 602
f 233 350 655
f 360 906 968
f 155 1316 800
f 800 1316 864
f 864 1316 1247
f 1155 654 1422
f 884 813 963
f 1058 1148 800
f 1058 800 864
f 337 859 906
f 354 1263 578
f 1100 1371 546
f 1100 1113 1371
f 96 1345 804
f 1056 804 1345
f 1056 63 804
f 746 613 341
f 1056 30 63
f 414 971 30
f 809 384 673
f 1326 612 941
f 612 1326 1357
f 612 1357 1254
f 1357 480 1254
f 102 1286 456
f 764 317 1008
f 996 1116 389
f 931 694 1021
f 247 58 1212
f 1272 230 1095
f 1420 292 969
f 694 498 1021
f 931 1021 1314
f 292 1420 1234
f 1234 1029 190
f 197 761 44
f 1299 1158 1344
f 997 1158 1299
f 864 1247 143
f 143 1247 350
f 143 350 912
f 912 350 233
f 912 233 654
f 360 337 906
f 483 337 360
f 1173 813 884
f 483 859 337
f 354 1418 1039
f 483 546 859
f 578 1279 354
f 153 1279 578
f 782 1301 222
f 613 1301 782
f 341 613 782
f 613 746 1430
f 746 1362 1430
f 809 673 1362
f 414 843 971
f 1370 1334 384
f 1370 1089 1334
f 832 1154 812
f 917 1326 941
f 1286 1089 1328
f 1326 659 1357
f 480 1357 1114
f 480 389 301
f 764 44 317
f 243 996 1372
f 230 58 247
f 538 1272 1095
f 1420 969 538
f 1212 549 247
f 247 549 78
f 247 78 665
f 247 665 230
f 230 665 1095
f 538 1226 1420
f 1420 1029 1234
f 988 1412 1265
f 864 143 620
f 568 654 1155
f 568 912 654
f 1344 490 774
f 1344 1158 490
f 237 1155 1422
f 237 811 1155
f 1148 1292 963
f 1039 237 1140
f 1418 237 1039
f 1279 1418 354
f 483 552 546
f 1100 546 552
f 1113 1345 96
f 944 1301 613
f 1362 1329 1430
f 1164 30 1056
f 30 1164 414
f 687 812 843
f 687 832 812
f 303 917 1154
f 1089 1286 102
f 456 1241 102
f 451 1241 456
f 456 452 451
f 1114 1357 659
f 317 741 1008
f 1114 1395 480
f 389 480 1395
f 389 1372 996
f 549 1212 243
f 1029 1420 1226
f 761 1142 44
f 243 1372 946
f 243 946 549
f 78 549 217
f 78 405 665
f 538 1095 999
f 538 999 1226
f 499 988 1314
f 499 1412 988
f 1265 1412 197
f 360 774 1400
f 864 1281 1058
f 429 620 143
f 143 912 861
f 861 912 568
f 101 360 1400
f 101 483 360
f 1400 774 1204
f 1204 774 490
f 997 1173 1158
f 237 1418 811
f 1150 1148 1058
f 972 1279 1216
f 1216 1279 153
f 853 1345 1113
f 613 858 944
f 858 1430 1178
f 1430 1329 1178
f 1430 858 613
f 1362 673 1329
f 1205 1056 1345
f 1164 1056 1205
f 1334 1367 384
f 1267 843 414
f 259 1334 1089
f 259 507 1334
f 832 303 1154
f 303 1326 917
f 1089 427 259
f 102 427 1089
f 1326 303 659
f 1241 427 102
f 451 452 627
f 1008 860 627
f 1008 741 860
f 1314 1021 553
f 389 1395 1349
f 498 880 1021
f 1349 1372 389
f 498 190 880
f 1226 999 1440
f 1029 1016 190
f 553 499 1314
f 946 217 549
f 78 217 405
f 665 1105 1095
f 1095 1440 999
f 1412 1201 197
f 197 1201 761
f 499 86 1412
f 864 620 1281
f 683 143 861
f 683 429 143
f 568 1155 811
f 811 1087 568
f 1418 972 1193
f 1418 1193 811
f 735 1058 1281
f 1281 620 356
f 356 620 429
f 1279 972 1418
f 1193 972 727
f 1158 1173 883
f 1292 1148 1150
f 884 963 1292
f 972 1216 727
f 1216 153 496
f 496 153 222
f 552 788 1100
f 496 222 898
f 788 1113 1100
f 788 853 1113
f 944 222 1301
f 898 222 944
f 394 1345 853
f 1329 750 1178
f 750 676 1178
f 1329 59 750
f 673 59 1329
f 1367 1335 384
f 1164 1267 414
f 843 1267 687
f 507 1367 1334
f 428 832 687
f 832 493 303
f 303 493 688
f 688 275 303
f 303 275 659
f 1241 451 427
f 275 1114 659
f 317 44 1142
f 1016 1029 1226
f 1016 880 190
f 1349 669 1372
f 170 1372 669
f 1105 665 405
f 1440 1390 378
f 1440 378 1226
f 348 499 553
f 1142 761 1201
f 1372 170 946
f 86 1201 1412
f 1087 811 8
f 8 811 1193
f 840 8 1193
f 1087 861 568
f 1193 727 840
f 429 683 770
f 270 840 727
f 490 325 1204
f 490 883 325
f 1158 883 490
f 1400 1204 325
f 599 735 1281
f 101 100 483
f 884 883 1173
f 727 1216 270
f 483 100 552
f 270 1216 496
f 1180 270 496
f 552 100 1077
f 898 858 1180
f 676 1180 858
f 858 898 944
f 1178 676 858
f 750 57 676
f 750 59 57
f 673 1020 59
f 394 1205 1345
f 384 1076 673
f 540 1267 1164
f 507 696 1367
f 259 427 234
f 451 234 427
f 627 860 451
f 275 482 1114
f 482 320 1114
f 320 1395 1114
f 320 342 1395
f 741 317 1142
f 1021 880 2
f 2 447 1021
f 1349 1395 342
f 447 553 1021
f 342 669 1349
f 1016 1226 378
f 1016 909 880
f 1142 1201 109
f 170 217 946
f 170 183 217
f 348 919 499
f 919 86 499
f 429 767 356
f 505 770 683
f 835 356 767
f 463 840 270
f 101 1400 1366
f 325 607 1400
f 883 903 325
f 1058 735 1150
f 356 599 1281
f 1366 100 101
f 219 1292 1150
f 1256 219 1150
f 1256 1150 735
f 270 1180 1315
f 784 163 884
f 219 884 1292
f 700 35 1315
f 100 1366 1077
f 1315 1180 700
f 898 1180 496
f 700 1180 676
f 35 700 676
f 788 401 853
f 1132 394 853
f 221 1132 853
f 1076 1020 673
f 384 1335 1076
f 493 832 428
f 1402 275 688
f 482 275 851
f 275 1402 851
f 1142 966 741
f 759 669 342
f 1098 909 1016
f 447 348 553
f 759 677 669
f 691 669 677
f 1390 60 378
f 378 1098 1016
f 691 170 669
f 217 1105 405
f 1105 1440 1095
f 1134 1440 1105
f 1390 1440 1134
f 86 50 1201
f 170 691 183
f 683 861 505
f 840 146 8
f 429 770 767
f 146 840 463
f 215 1400 607
f 215 1366 1400
f 325 903 607
f 407 463 270
f 407 270 1315
f 163 903 883
f 163 883 884
f 884 219 784
f 277 219 1256
f 35 407 1315
f 407 35 282
f 1366 647 1077
f 401 788 552
f 1077 401 552
f 57 35 676
f 221 853 401
f 59 1020 57
f 150 1164 1205
f 540 1164 150
f 687 1267 224
f 224 428 687
f 1402 688 16
f 1379 451 860
f 1185 851 1402
f 1024 860 741
f 482 851 1136
f 482 1136 320
f 1142 109 966
f 909 2 880
f 677 759 993
f 60 374 378
f 378 374 1098
f 1201 50 109
f 677 36 691
f 1428 217 183
f 1298 1390 1134
f 475 60 1390
f 475 1390 1298
f 691 36 1364
f 691 1364 183
f 861 1087 1278
f 1278 505 861
f 599 256 735
f 1256 735 256
f 35 628 282
f 267 401 1077
f 57 630 35
f 401 267 733
f 1020 630 57
f 394 150 1205
f 150 1432 540
f 696 720 1367
f 189 493 428
f 688 1373 16
f 451 984 234
f 1402 16 1185
f 1024 239 860
f 1136 842 320
f 320 842 342
f 109 862 966
f 842 759 342
f 475 75 60
f 1181 60 75
f 60 1181 374
f 1428 1105 217
f 919 933 86
f 1364 1339 183
f 183 1339 1428
f 1428 1339 1105
f 8 1278 1087
f 392 1278 8
f 770 623 767
f 407 929 463
f 356 1048 599
f 835 1048 356
f 903 163 1070
f 784 1070 163
f 1256 942 277
f 784 252 1070
f 277 784 219
f 1139 267 1077
f 252 784 277
f 630 628 35
f 1020 580 630
f 733 221 401
f 1020 129 580
f 1076 129 1020
f 394 1132 1141
f 394 1141 21
f 1367 720 1335
f 1267 540 224
f 234 507 259
f 189 688 493
f 1373 688 189
f 1379 860 239
f 395 851 1185
f 741 966 1024
f 759 842 993
f 374 1181 156
f 1098 374 909
f 109 50 216
f 324 1181 75
f 689 1105 1339
f 1134 1105 689
f 1147 919 348
f 1364 1287 1339
f 1339 1287 1325
f 1339 1325 689
f 689 1325 1134
f 1134 1325 977
f 1134 977 1298
f 505 1278 754
f 146 392 8
f 1381 770 505
f 1381 505 754
f 1366 215 647
f 903 1106 607
f 903 1070 1106
f 1048 256 599
f 282 628 66
f 489 647 215
f 489 215 1106
f 1106 215 607
f 942 256 1352
f 1256 256 942
f 647 1139 1077
f 616 1070 252
f 277 597 252
f 277 942 597
f 302 733 267
f 129 152 580
f 1335 129 1076
f 21 150 394
f 428 224 189
f 234 1052 772
f 234 984 1052
f 16 1373 947
f 984 451 1379
f 1038 958 1379
f 984 1379 958
f 1185 16 1343
f 1024 966 329
f 395 854 851
f 851 854 1136
f 329 966 862
f 109 216 862
f 1360 2 909
f 1360 447 2
f 374 156 909
f 1360 1196 348
f 447 1360 348
f 993 740 677
f 740 522 677
f 522 36 677
f 75 475 789
f 75 789 324
f 1196 1147 348
f 36 522 1227
f 36 1227 1364
f 1227 1287 1364
f 475 1298 789
f 754 1278 392
f 146 463 1237
f 835 767 623
f 121 1048 835
f 256 1048 14
f 1139 647 489
f 616 113 1106
f 616 1106 1070
f 597 616 252
f 942 1189 597
f 942 1352 1189
f 1352 256 544
f 267 1139 1283
f 221 1255 1132
f 733 1255 221
f 1255 1141 1132
f 152 129 1335
f 21 1141 714
f 224 540 1432
f 189 224 305
f 696 507 772
f 234 772 507
f 45 395 1185
f 1136 218 842
f 842 218 993
f 86 1392 50
f 216 50 361
f 789 373 324
f 933 1392 86
f 875 919 1147
f 1298 977 789
f 1325 1287 910
f 1325 910 977
f 392 1389 754
f 1237 392 146
f 929 1237 463
f 674 929 407
f 121 835 895
f 526 282 66
f 1048 589 14
f 589 1048 121
f 589 121 180
f 1106 381 489
f 449 1106 113
f 597 113 616
f 757 544 256
f 757 256 14
f 1071 113 597
f 369 1189 1352
f 369 1352 544
f 630 580 628
f 302 267 1283
f 720 152 1335
f 720 330 1050
f 11 1432 150
f 696 330 720
f 806 224 1432
f 265 330 696
f 1005 189 305
f 1005 1373 189
f 323 947 1373
f 947 1343 16
f 1379 239 1038
f 69 1185 1343
f 854 395 45
f 862 216 728
f 1136 854 557
f 1136 557 218
f 1151 1360 909
f 814 1360 1151
f 909 156 1151
f 1360 814 1196
f 361 50 1392
f 324 254 1181
f 134 254 324
f 740 993 218
f 373 134 324
f 481 373 789
f 875 933 919
f 740 214 522
f 977 481 789
f 522 49 1227
f 49 1019 1227
f 1227 1019 1287
f 896 1287 1019
f 910 1287 896
f 910 250 977
f 896 131 910
f 1381 754 1389
f 770 1381 623
f 895 835 623
f 674 407 282
f 180 121 158
f 158 121 895
f 1391 1139 489
f 489 381 1391
f 1106 449 381
f 757 14 589
f 34 757 589
f 597 1189 1071
f 733 1124 1255
f 1141 1255 27
f 714 1141 27
f 150 21 714
f 11 150 714
f 11 806 1432
f 806 305 224
f 323 1373 1005
f 984 958 1363
f 329 239 1024
f 45 1185 69
f 862 728 329
f 854 45 557
f 557 455 218
f 1181 254 156
f 879 875 1147
f 131 250 910
f 34 589 180
f 876 66 628
f 1391 1283 1139
f 799 544 757
f 580 876 628
f 580 924 876
f 152 924 580
f 302 1124 733
f 720 1050 152
f 696 772 265
f 865 1005 305
f 865 323 1005
f 1363 1052 984
f 958 1038 953
f 239 881 1038
f 329 881 239
f 728 216 361
f 562 361 1392
f 1088 1151 156
f 935 1151 1088
f 814 1151 935
f 156 254 1088
f 1196 814 879
f 373 1138 134
f 933 875 1157
f 933 1157 1392
f 740 218 214
f 481 977 250
f 1196 879 1147
f 214 49 522
f 49 662 1019
f 662 896 1019
f 1389 392 682
f 1237 682 392
f 623 442 895
f 453 180 158
f 544 799 369
f 930 113 1071
f 1059 1071 1189
f 369 1059 1189
f 1283 934 302
f 152 1050 363
f 1255 1124 27
f 865 305 806
f 500 1038 881
f 329 1069 881
f 1069 329 728
f 361 106 728
f 557 45 196
f 361 562 106
f 254 1443 1088
f 1088 1443 935
f 814 935 998
f 666 1138 373
f 814 998 879
f 998 72 879
f 879 1203 875
f 896 857 131
f 1094 131 347
f 131 1094 250
f 662 49 1319
f 662 857 896
f 857 347 131
f 682 1237 929
f 442 623 1381
f 344 929 674
f 158 895 442
f 1410 344 674
f 282 1410 674
f 526 1410 282
f 1391 381 404
f 404 381 449
f 274 876 924
f 729 1059 369
f 152 363 924
f 1035 1124 302
f 11 208 806
f 806 208 865
f 786 1435 772
f 1365 323 865
f 786 772 1355
f 772 1052 1355
f 13 1363 958
f 958 953 13
f 1038 500 953
f 953 500 600
f 286 45 69
f 792 45 286
f 728 106 1069
f 557 196 455
f 134 289 254
f 254 289 1443
f 935 477 829
f 1443 477 935
f 829 998 935
f 481 666 373
f 455 1399 218
f 218 6 214
f 879 72 760
f 1203 1157 875
f 214 6 49
f 760 1203 879
f 6 1319 49
f 1319 585 662
f 585 857 662
f 1043 1389 682
f 697 158 442
f 453 158 697
f 66 638 526
f 876 638 66
f 1175 757 34
f 930 449 113
f 794 295 799
f 794 799 757
f 79 934 1283
f 729 169 1059
f 799 729 369
f 934 1035 302
f 596 1124 1035
f 1050 51 363
f 798 11 714
f 798 208 11
f 1126 865 208
f 772 1435 265
f 1355 1052 1363
f 13 953 650
f 600 650 953
f 500 881 793
f 881 1069 793
f 792 196 45
f 196 1004 455
f 72 998 829
f 1392 1157 1218
f 1399 455 1004
f 1399 773 218
f 218 773 6
f 1094 1323 250
f 6 397 1319
f 397 585 1319
f 857 585 712
f 712 347 857
f 1381 670 442
f 670 1381 1389
f 929 1156 682
f 344 1156 929
f 34 180 1073
f 1073 180 1
f 1391 404 1283
f 1175 34 1073
f 794 757 1175
f 924 1210 274
f 930 1071 1146
f 1071 1059 1146
f 729 799 295
f 924 363 1210
f 1124 596 646
f 27 1124 646
f 721 51 1050
f 330 721 1050
f 798 714 27
f 265 5 330
f 1435 5 265
f 1435 1240 5
f 1429 865 1126
f 1429 1365 865
f 786 1240 1435
f 786 1085 1240
f 965 323 1365
f 1355 1085 786
f 965 947 323
f 1363 448 1355
f 13 448 1363
f 69 1343 947
f 500 793 600
f 1069 856 793
f 106 856 1069
f 562 1218 106
f 1138 289 134
f 289 838 1443
f 477 838 1082
f 1443 838 477
f 1082 829 477
f 1218 562 1392
f 792 1004 196
f 666 135 1138
f 1218 1157 1318
f 481 250 666
f 666 250 882
f 1157 1203 1318
f 397 6 773
f 585 397 370
f 370 712 585
f 670 1389 1043
f 87 1043 682
f 1410 897 344
f 1 180 453
f 876 274 638
f 404 449 660
f 363 1425 1210
f 51 1425 363
f 5 721 330
f 5 698 721
f 5 1240 698
f 1355 448 1085
f 13 119 448
f 965 69 947
f 13 650 119
f 276 286 69
f 1171 792 286
f 856 39 793
f 106 1218 856
f 792 1040 1004
f 1138 135 1165
f 1399 174 773
f 773 174 1427
f 397 773 1427
f 1323 882 250
f 1203 760 1318
f 513 712 370
f 739 670 1043
f 739 1043 87
f 1156 87 682
f 897 1156 344
f 164 897 1410
f 526 164 1410
f 453 697 954
f 375 574 638
f 274 375 638
f 375 274 1210
f 79 1283 404
f 449 755 660
f 1296 295 794
f 1296 794 1175
f 755 449 930
f 652 934 79
f 839 729 295
f 1035 934 652
f 51 1022 1425
f 177 596 1035
f 51 721 1022
f 646 657 27
f 798 27 657
f 208 798 837
f 1240 1023 698
f 1023 1240 1188
f 965 702 69
f 600 742 650
f 702 276 69
f 600 793 127
f 127 793 39
f 276 1171 286
f 653 39 856
f 856 1218 653
f 1165 289 1138
f 1082 72 829
f 882 135 666
f 174 1399 1004
f 174 943 1427
f 212 513 370
f 712 1421 347
f 765 87 1156
f 897 765 1156
f 387 164 526
f 526 638 387
f 574 387 638
f 1175 1073 690
f 200 79 404
f 404 660 200
f 191 295 1296
f 1425 1022 1387
f 1059 335 1146
f 169 729 839
f 652 177 1035
f 721 571 1022
f 721 698 571
f 1085 1188 1240
f 1085 448 1188
f 950 119 650
f 650 742 950
f 950 742 68
f 742 600 1054
f 127 1054 600
f 994 792 1171
f 1040 792 994
f 135 1032 1165
f 304 72 1082
f 882 1406 135
f 1040 174 1004
f 760 1219 1318
f 347 661 1094
f 661 1323 1094
f 670 201 442
f 739 87 765
f 697 442 1198
f 442 201 1198
f 765 897 519
f 519 897 164
f 453 954 1206
f 288 453 1206
f 878 164 387
f 1425 1300 1210
f 1210 1300 375
f 1175 690 1296
f 709 652 79
f 930 335 755
f 295 191 839
f 596 1327 646
f 571 1144 1022
f 1327 657 646
f 745 798 657
f 745 837 798
f 779 208 837
f 698 1023 678
f 479 1429 1126
f 1023 426 1431
f 1423 1365 1429
f 1188 426 1023
f 1423 965 1365
f 448 426 1188
f 119 973 448
f 448 973 426
f 702 965 1423
f 950 973 119
f 68 742 1054
f 127 39 957
f 39 653 957
f 1250 838 289
f 1082 838 304
f 653 1218 1002
f 1406 1032 135
f 768 1318 1025
f 1218 1318 768
f 77 760 72
f 1318 1219 1025
f 1427 370 397
f 1421 661 347
f 661 640 1323
f 712 513 1421
f 201 670 1169
f 1169 670 739
f 954 697 1198
f 954 1198 1206
f 288 1 453
f 878 387 716
f 574 716 387
f 690 1073 1
f 709 79 200
f 191 1296 1065
f 930 1146 335
f 1059 169 335
f 1144 1387 1022
f 698 678 571
f 779 1126 208
f 479 1126 779
f 702 1423 248
f 973 950 68
f 957 653 1002
f 1165 1250 289
f 72 304 77
f 994 128 1040
f 128 174 1040
f 1406 882 1091
f 128 943 174
f 640 1091 1323
f 882 1323 1091
f 760 77 1219
f 1053 1169 739
f 1053 739 765
f 765 519 137
f 519 164 338
f 878 110 164
f 716 1104 878
f 1104 110 878
f 1310 1127 574
f 375 1310 574
f 1 333 690
f 375 1300 1310
f 690 1065 1296
f 1065 690 346
f 346 690 333
f 1425 1387 1300
f 263 709 200
f 263 200 1266
f 660 1266 200
f 755 1266 660
f 892 839 191
f 652 709 177
f 177 1327 596
f 1062 479 779
f 1023 1431 678
f 271 1429 479
f 1423 1429 271
f 973 179 426
f 248 276 702
f 1054 127 520
f 957 520 127
f 1032 904 1165
f 904 1250 1165
f 1250 1031 838
f 304 838 1031
f 128 994 1252
f 1218 768 1002
f 768 116 1002
f 77 749 668
f 668 1219 77
f 212 516 513
f 435 201 1169
f 1198 201 708
f 708 201 435
f 1198 708 1206
f 137 1053 765
f 137 519 338
f 110 338 164
f 62 288 1206
f 716 574 1127
f 333 1 288
f 346 333 398
f 1387 724 1300
f 709 263 1290
f 629 709 1290
f 629 177 709
f 1387 1307 724
f 419 1327 177
f 1144 1307 1387
f 1176 571 678
f 745 779 837
f 426 179 1431
f 17 179 973
f 68 472 973
f 68 1054 520
f 1238 957 618
f 520 957 1238
f 334 1171 276
f 1166 1171 334
f 618 355 1238
f 1171 717 994
f 1002 618 957
f 77 304 815
f 1091 297 1406
f 1350 191 1065
f 530 263 1266
f 1407 1266 755
f 1407 755 541
f 541 755 335
f 756 169 839
f 892 756 839
f 629 419 177
f 1282 1290 263
f 1282 263 530
f 530 1266 1407
f 571 1307 1144
f 1176 1307 571
f 1062 271 479
f 179 592 1431
f 1431 592 641
f 31 1423 271
f 1423 31 707
f 1423 707 248
f 973 472 17
f 472 68 285
f 334 276 248
f 248 610 334
f 618 1002 116
f 1078 618 116
f 1252 994 717
f 815 749 77
f 1068 116 768
f 1025 1068 768
f 643 1025 1219
f 1427 212 370
f 1421 513 246
f 236 435 1169
f 1169 1053 236
f 236 1053 550
f 550 1053 137
f 1104 716 1393
f 1393 716 1127
f 333 288 62
f 1310 981 1127
f 1300 981 1310
f 724 1027 1300
f 1300 1027 981
f 1065 719 1350
f 719 1065 346
f 719 346 398
f 335 1235 541
f 169 1235 335
f 756 1235 169
f 1407 541 352
f 352 541 1235
f 352 1235 756
f 1229 419 629
f 1229 629 1290
f 1229 1290 1282
f 1176 400 1307
f 1209 1327 419
f 1012 657 1327
f 1012 745 657
f 179 17 592
f 17 472 635
f 707 610 248
f 68 520 220
f 355 618 1078
f 717 1171 1166
f 959 904 1032
f 1031 815 304
f 1406 959 1032
f 297 1102 1406
f 1321 1068 1025
f 297 1091 640
f 643 1321 1025
f 1427 943 939
f 297 640 1168
f 668 643 1219
f 1168 1421 246
f 1421 1168 661
f 661 1168 640
f 513 1129 246
f 822 708 435
f 1115 550 137
f 961 1206 708
f 1115 137 338
f 62 1206 961
f 523 333 62
f 1307 1027 724
f 1307 1097 1027
f 191 524 892
f 756 1192 352
f 1192 756 892
f 400 1097 1307
f 1209 419 1229
f 1327 1209 1012
f 678 976 1176
f 678 1431 976
f 31 271 1062
f 285 635 472
f 220 285 68
f 220 520 1238
f 355 949 1238
f 1102 959 1406
f 128 1252 61
f 943 128 61
f 943 61 939
f 47 1427 939
f 212 1427 47
f 961 708 822
f 938 1115 338
f 110 938 338
f 313 62 961
f 313 523 62
f 333 523 1215
f 398 333 1215
f 981 1027 680
f 524 191 1350
f 352 459 1407
f 1192 892 524
f 530 1407 1159
f 459 352 1192
f 1332 1407 459
f 1282 530 99
f 99 530 1159
f 527 1229 1282
f 1209 471 1012
f 251 1062 779
f 251 31 1062
f 1238 949 220
f 1217 717 1166
f 331 717 1217
f 1252 717 331
f 904 609 1250
f 1250 609 1031
f 609 815 1031
f 1055 749 815
f 61 1252 331
f 1168 1322 297
f 1322 246 1129
f 246 1322 1168
f 516 212 47
f 516 1129 513
f 822 435 236
f 281 1115 938
f 572 110 1104
f 572 1104 1393
f 364 572 1393
f 364 1393 105
f 105 1393 1127
f 598 393 1215
f 398 1215 719
f 1097 680 1027
f 611 1209 1229
f 641 976 1431
f 745 251 779
f 703 31 251
f 17 1276 592
f 635 1276 17
f 31 703 819
f 31 819 707
f 635 285 986
f 845 334 610
f 1166 334 845
f 1078 937 355
f 1145 904 959
f 609 1409 815
f 1055 815 1409
f 116 528 1078
f 1102 1145 959
f 116 1068 528
f 1102 297 849
f 210 47 939
f 47 210 516
f 1129 705 1322
f 1322 705 396
f 210 1129 516
f 236 372 822
f 1115 1083 550
f 281 1083 1115
f 908 938 110
f 572 908 110
f 598 1215 523
f 604 105 1127
f 604 1127 981
f 981 680 604
f 393 1350 719
f 719 1215 393
f 1192 920 459
f 257 1192 524
f 1332 1159 1407
f 920 1192 257
f 1176 976 400
f 1229 527 611
f 99 527 1282
f 471 1209 611
f 592 1276 1348
f 635 606 1276
f 635 986 606
f 819 610 707
f 285 1346 986
f 1346 285 220
f 949 355 937
f 695 609 904
f 1369 1145 1102
f 810 749 1055
f 668 749 810
f 396 583 849
f 810 643 668
f 849 1322 396
f 1322 849 297
f 705 1129 290
f 705 566 396
f 1129 210 290
f 1222 372 236
f 1222 236 550
f 1222 550 1083
f 908 281 938
f 393 422 1350
f 1350 257 524
f 459 920 1332
f 920 257 95
f 388 1159 1332
f 611 527 172
f 527 99 1041
f 976 641 899
f 251 745 1012
f 592 1348 641
f 845 610 819
f 1346 220 722
f 220 949 722
f 1166 845 1017
f 528 937 1078
f 1217 1112 331
f 1248 61 331
f 1112 1248 331
f 1145 695 904
f 1409 1414 1055
f 1102 849 1369
f 1068 1321 1297
f 643 1297 1321
f 61 591 939
f 939 591 53
f 1442 210 939
f 210 226 290
f 705 290 566
f 975 1083 281
f 313 961 358
f 908 975 281
f 535 105 604
f 680 535 604
f 680 1208 535
f 680 1097 1208
f 15 422 393
f 257 1350 422
f 257 422 95
f 400 976 1097
f 1332 920 631
f 388 1332 631
f 99 1159 433
f 433 1159 388
f 418 471 611
f 172 527 1041
f 471 418 1012
f 641 1348 899
f 819 187 845
f 845 187 1017
f 949 365 722
f 322 1166 1017
f 1112 1217 322
f 322 1217 1166
f 949 937 365
f 1145 554 695
f 46 591 61
f 849 583 730
f 849 730 1369
f 939 53 1442
f 583 396 566
f 210 1442 226
f 961 822 372
f 961 372 358
f 313 148 523
f 523 148 598
f 393 598 15
f 920 95 631
f 631 95 351
f 99 1313 1041
f 1313 99 433
f 611 172 312
f 205 1041 1313
f 312 418 611
f 251 1012 418
f 1348 132 899
f 251 418 22
f 703 251 22
f 1348 1276 1034
f 819 703 926
f 986 531 606
f 986 1378 531
f 986 1346 1378
f 722 1378 1346
f 722 365 262
f 46 61 1248
f 1369 554 1145
f 554 175 743
f 554 743 695
f 695 1409 609
f 1223 1068 1297
f 528 1068 1223
f 359 1442 53
f 730 583 345
f 1442 359 226
f 133 1297 643
f 290 226 159
f 290 159 566
f 566 159 114
f 1222 1162 372
f 975 1222 1083
f 358 372 1162
f 358 148 313
f 12 908 572
f 364 12 572
f 203 598 525
f 124 126 364
f 124 364 105
f 203 15 598
f 976 1131 1097
f 1174 95 422
f 1177 433 388
f 1041 205 172
f 22 418 312
f 703 22 1117
f 1034 1276 606
f 1117 926 703
f 187 819 926
f 722 262 1378
f 581 322 1017
f 322 581 1112
f 1112 581 439
f 1248 1112 439
f 46 1248 439
f 182 46 439
f 937 1223 1061
f 1223 937 528
f 591 46 182
f 53 591 182
f 927 53 182
f 695 743 1409
f 1409 918 1414
f 743 918 1409
f 1414 918 457
f 359 53 927
f 1369 730 554
f 457 810 1414
f 1414 810 1055
f 133 1223 1297
f 590 226 359
f 159 226 590
f 227 643 810
f 1067 643 227
f 12 975 908
f 148 525 598
f 126 12 364
f 124 105 535
f 535 1208 1271
f 1097 1131 1208
f 422 15 379
f 1177 388 631
f 1313 433 315
f 518 172 889
f 889 172 205
f 172 518 312
f 22 312 518
f 1007 518 889
f 1007 889 734
f 1348 1034 132
f 22 518 1007
f 1117 22 443
f 443 22 1007
f 443 1007 564
f 1034 606 936
f 1117 443 926
f 936 606 531
f 936 531 1426
f 1378 1426 531
f 18 1017 187
f 262 365 1230
f 937 1230 365
f 581 1080 439
f 1061 1230 937
f 1061 343 1230
f 1270 850 343
f 1270 343 1061
f 175 1245 743
f 1223 1270 1061
f 615 175 730
f 730 175 554
f 133 473 1270
f 927 590 359
f 810 457 227
f 133 1067 473
f 133 1270 1223
f 590 114 159
f 566 345 583
f 643 1067 133
f 12 748 975
f 358 478 148
f 478 525 148
f 332 124 535
f 332 535 1271
f 1174 422 379
f 899 1131 976
f 631 351 1177
f 899 649 1131
f 433 1177 82
f 433 82 315
f 1137 889 205
f 1137 205 1313
f 889 1137 734
f 734 1137 65
f 734 65 828
f 734 1018 1007
f 1018 734 828
f 1007 1018 474
f 564 926 443
f 474 564 1007
f 18 926 564
f 18 187 926
f 1378 1199 1426
f 1378 262 1199
f 18 581 1017
f 619 570 1230
f 1230 570 262
f 262 570 1199
f 619 1230 343
f 1080 581 18
f 850 619 343
f 850 915 887
f 915 850 1270
f 1109 1245 175
f 1245 918 743
f 679 473 64
f 473 679 915
f 473 915 1270
f 345 615 730
f 923 1067 227
f 457 923 227
f 1067 923 64
f 1067 64 473
f 590 204 114
f 748 1162 1222
f 748 1222 975
f 478 358 1162
f 791 15 203
f 626 791 203
f 15 791 379
f 1174 351 95
f 1284 1200 351
f 1177 351 1200
f 899 132 649
f 315 1137 1313
f 1137 327 65
f 65 327 468
f 1034 1003 132
f 828 65 468
f 828 1398 1018
f 1398 474 1018
f 474 1398 893
f 1231 1426 1199
f 1231 936 1426
f 474 893 1015
f 474 1015 738
f 474 738 564
f 869 71 570
f 570 71 1199
f 619 869 570
f 564 207 18
f 207 564 738
f 1080 18 207
f 850 887 619
f 915 679 887
f 1080 300 182
f 182 439 1080
f 615 556 175
f 1245 787 918
f 457 918 787
f 1285 927 182
f 566 1057 345
f 923 457 787
f 114 173 1057
f 114 1057 566
f 1311 1162 186
f 1311 478 1162
f 126 209 12
f 525 478 532
f 525 1260 203
f 1177 1200 771
f 771 1303 1177
f 1177 1303 82
f 310 1137 315
f 327 1137 310
f 529 468 327
f 828 468 450
f 828 450 1398
f 1034 936 1403
f 1403 936 1231
f 548 1231 1199
f 71 548 1199
f 1015 569 738
f 160 738 569
f 738 160 207
f 619 887 869
f 300 207 160
f 1080 207 300
f 1285 182 300
f 556 1109 175
f 833 1245 1109
f 833 787 1245
f 927 492 590
f 1285 492 927
f 114 204 173
f 1057 615 345
f 748 186 1162
f 748 12 209
f 783 478 1311
f 478 783 532
f 983 126 124
f 525 532 1260
f 332 983 124
f 1131 1271 1208
f 791 410 379
f 1174 379 410
f 1046 1131 649
f 351 1174 1284
f 310 315 82
f 1303 310 82
f 1303 974 310
f 974 327 310
f 327 974 413
f 529 327 413
f 1034 1403 1003
f 529 470 468
f 470 450 468
f 450 470 726
f 1049 1231 548
f 450 893 1398
f 869 1384 71
f 636 160 569
f 737 160 636
f 679 559 887
f 300 160 737
f 679 64 559
f 1285 300 737
f 1109 556 624
f 1063 184 204
f 406 204 184
f 1057 556 615
f 64 923 1261
f 923 833 1261
f 923 787 833
f 492 1063 590
f 204 590 1063
f 204 406 173
f 173 406 1057
f 209 126 983
f 1224 983 332
f 872 1224 332
f 1046 872 1271
f 872 332 1271
f 1271 1131 1046
f 410 791 29
f 410 1284 1174
f 771 1190 1303
f 771 1200 465
f 1190 771 465
f 132 1293 649
f 974 1303 565
f 974 565 413
f 1003 1293 132
f 413 403 529
f 470 529 403
f 403 1214 470
f 1403 1049 1042
f 293 1049 548
f 1231 1049 1403
f 816 293 71
f 71 293 548
f 726 542 450
f 752 893 542
f 542 893 450
f 752 1015 893
f 1384 816 71
f 1015 752 569
f 752 542 713
f 713 569 752
f 636 569 713
f 887 801 869
f 559 321 887
f 321 801 887
f 846 737 636
f 636 1149 846
f 1285 737 846
f 624 833 1109
f 1285 846 492
f 492 846 921
f 184 1063 492
f 921 184 492
f 1057 693 556
f 406 693 1057
f 556 693 624
f 841 1311 186
f 186 748 775
f 209 775 748
f 1260 626 203
f 1331 1224 872
f 791 626 29
f 649 151 1046
f 1200 1284 67
f 565 1303 1190
f 649 1293 151
f 1394 413 565
f 1003 1042 1293
f 1042 1003 1403
f 1214 726 470
f 1384 1079 816
f 1289 542 726
f 1289 713 542
f 777 713 1289
f 801 1384 869
f 801 1359 1384
f 1149 636 777
f 777 636 713
f 846 1149 921
f 921 1149 33
f 64 1133 559
f 537 157 380
f 537 380 33
f 693 213 624
f 213 848 624
f 624 848 833
f 848 1261 833
f 64 1261 1133
f 184 921 33
f 184 33 380
f 184 380 406
f 406 380 157
f 406 157 758
f 406 758 693
f 841 186 775
f 841 783 1311
f 515 209 983
f 532 291 1260
f 161 515 983
f 1224 161 983
f 161 1224 1331
f 1331 872 1397
f 29 67 410
f 1046 151 872
f 1284 410 67
f 67 465 1200
f 948 1190 465
f 565 948 1394
f 1293 1042 932
f 413 1394 403
f 1042 421 932
f 1049 421 1042
f 293 464 1049
f 1045 464 293
f 403 1030 1214
f 816 1045 293
f 726 1214 826
f 816 1079 1045
f 1289 726 826
f 1359 956 1079
f 1359 1079 1384
f 1385 1359 801
f 321 1385 801
f 1149 777 417
f 1354 1149 417
f 559 1385 321
f 33 1149 1354
f 559 1133 1385
f 537 33 1354
f 537 1354 1075
f 693 758 213
f 213 817 462
f 213 462 848
f 1261 848 1133
f 515 1195 775
f 1195 841 775
f 209 515 775
f 29 626 1438
f 1438 67 29
f 762 1397 872
f 151 762 872
f 465 67 115
f 1249 762 151
f 948 465 115
f 948 565 1190
f 1293 1249 151
f 1280 1249 932
f 932 1249 1293
f 421 1280 932
f 1049 464 421
f 1045 818 464
f 1030 826 1214
f 956 1045 1079
f 417 777 1289
f 1354 417 951
f 1354 951 1075
f 83 1385 1037
f 1075 1211 537
f 283 817 1211
f 1133 1037 1385
f 157 537 1211
f 157 1211 758
f 758 1211 213
f 213 1211 817
f 283 462 817
f 1133 462 1037
f 848 462 1133
f 783 841 639
f 532 783 291
f 299 515 161
f 1331 299 161
f 1397 299 1331
f 299 206 970
f 1397 206 299
f 762 206 1397
f 1249 206 762
f 318 948 115
f 586 466 206
f 1249 586 206
f 1280 586 1249
f 421 586 1280
f 326 1394 948
f 575 586 421
f 464 575 421
f 1394 326 960
f 1394 960 403
f 403 960 1030
f 1289 826 888
f 1289 888 1028
f 417 1289 1028
f 951 417 1028
f 1359 1441 956
f 83 1441 1359
f 1385 83 1359
f 1075 951 7
f 92 642 83
f 1075 7 98
f 1304 1211 1075
f 283 1211 1304
f 1037 92 83
f 462 283 92
f 462 92 1037
f 841 1195 639
f 639 107 783
f 617 291 107
f 107 291 783
f 515 299 211
f 626 1260 52
f 866 211 299
f 1438 626 52
f 866 299 970
f 466 970 206
f 67 311 97
f 67 1438 311
f 115 67 97
f 318 115 97
f 171 466 586
f 171 178 466
f 575 171 586
f 326 633 960
f 1309 575 464
f 464 1338 1309
f 818 1338 464
f 1045 1338 818
f 888 826 1030
f 681 1338 1045
f 956 681 1045
f 1375 681 956
f 1028 888 795
f 423 1028 795
f 956 460 1375
f 1441 460 956
f 266 951 1028
f 266 1028 423
f 642 916 460
f 642 460 1441
f 642 1441 83
f 266 423 648
f 1197 80 916
f 1197 916 642
f 266 7 951
f 54 266 648
f 7 266 54
f 92 1197 642
f 98 7 54
f 98 54 1197
f 1075 98 1304
f 1304 98 283
f 283 98 1197
f 283 1197 92
f 1228 1195 515
f 617 1260 291
f 1228 515 211
f 617 52 1260
f 466 178 970
f 326 948 318
f 744 326 318
f 744 633 326
f 575 1309 171
f 411 960 633
f 1030 960 411
f 711 1030 411
f 888 1030 711
f 795 888 1444
f 681 1341 1338
f 1324 795 1444
f 1375 1341 681
f 460 1236 1375
f 423 795 1324
f 48 423 1324
f 648 423 48
f 80 534 916
f 648 48 80
f 54 80 1197
f 54 648 80
f 501 617 107
f 501 107 1092
f 1092 107 639
f 1092 639 1228
f 639 1195 1228
f 1438 52 311
f 970 178 866
f 871 97 311
f 871 318 97
f 871 744 318
f 171 766 178
f 1309 766 171
f 1044 1309 1341
f 1338 1341 1309
f 1444 888 711
f 1444 836 1324
f 1375 1236 1341
f 48 1324 823
f 80 823 534
f 534 510 916
f 916 510 1236
f 916 1236 460
f 80 48 823
f 501 1092 41
f 1092 1072 41
f 1228 1072 1092
f 1320 617 501
f 1320 501 1207
f 211 1072 1228
f 52 617 1320
f 866 1072 211
f 52 1320 1121
f 866 781 1072
f 311 52 1121
f 731 866 178
f 871 311 1121
f 178 766 731
f 651 744 871
f 744 651 633
f 494 411 633
f 711 411 494
f 711 494 836
f 1044 766 1309
f 711 836 1444
f 1236 142 1341
f 823 836 802
f 510 608 142
f 836 823 1324
f 1236 510 142
f 534 608 510
f 534 823 608
f 501 41 1207
f 1072 1382 41
f 1382 1207 41
f 781 1382 1072
f 1320 37 1121
f 37 1320 264
f 264 1320 1207
f 731 1382 781
f 731 781 866
f 651 871 1121
f 651 1121 37
f 1434 731 766
f 494 633 32
f 32 633 651
f 836 494 645
f 1044 319 1434
f 766 1044 1434
f 802 836 645
f 232 319 1044
f 488 802 645
f 142 232 1044
f 823 802 488
f 142 1044 1341
f 608 823 488
f 608 488 142
f 142 488 232
f 1207 1382 278
f 1207 278 264
f 264 885 37
f 1308 264 278
f 885 264 1308
f 1308 278 1382
f 731 1308 1382
f 967 885 1308
f 32 651 37
f 32 37 885
f 1434 1308 731
f 645 32 885
f 1434 967 1308
f 967 645 885
f 32 645 494
f 319 967 1434
f 645 967 488
f 488 967 232
f 232 967 319