# https://github.com/mikedh/trimesh
v -14.26954327 -49.00213281 63.36169620
v -19.11278260 -38.13340102 69.11971684
v -9.18258323 -46.13090318 67.39825595
v -19.41735485 -40.90249916 64.62819588
v -13.13603785 -37.53257839 69.81842936
v -14.25203238 -42.00210203 62.76331363
v -9.71458444 -44.33619031 69.46990812
v -9.20643861 -38.67455900 63.96221454
v -15.50378836 -33.97466818 65.51324930
v -6.70292080 -44.10089829 66.80350914
v -11.94961248 -35.27433309 67.72622220
v -17.52083317 -44.38027260 65.50200596
v -11.56994993 -49.91110195 64.50217527
v -11.61483883 -40.43933054 62.92708248
v -11.12216683 -43.10935730 70.89580986
v -16.18727091 -41.73280368 70.53785398
v -10.15952621 -39.01603021 63.26622116
v -11.60055367 -45.66710796 71.24410867
v -16.56135738 -35.36707553 68.35481483
v -14.09148342 -49.20232852 66.75125631
v -14.49079396 -48.29621218 62.29555262
v -7.11796076 -40.85960063 68.01332324
v -16.45905658 -46.28141594 63.43799411
v -13.86599697 -47.72334931 60.61394402
v -12.17510197 -35.60152452 68.19571931
v -15.58272645 -47.36553389 62.88168047
v -6.75893537 -44.89698980 66.08776167
v -13.58674927 -42.64649883 71.52582394
v -8.74540438 -41.21330214 62.94829907
v -14.78754285 -39.64549983 70.59617800
v -9.86915802 -38.68270700 63.46089687
v -15.50316004 -47.94381790 64.30205895
v -19.56302962 -36.38123948 67.39749221
v -10.74516978 -36.45981662 68.92769184
v -9.56513896 -46.74192090 66.95261470
v -17.39908966 -44.97481692 63.62126134
v -14.03547058 -48.73863398 62.43748935
v -13.31703059 -49.11210081 62.24947161
v -7.81738768 -46.25500873 61.38870778
v -19.98827242 -40.56182083 65.79140222
v -13.90000982 -45.37450751 71.40303572
v -17.79069780 -35.19489610 67.37849987
v -12.67504431 -34.07983449 65.44201889
v -12.18254754 -40.91786202 70.93566091
v -19.10831405 -39.52419651 68.17952682
v -7.99354038 -38.61116679 68.54186425
v -7.69584756 -46.27006618 64.85334611
v -17.34825532 -35.13555720 67.71042660
v -13.16936806 -50.10834060 65.04632146
v -12.59274811 -38.48109198 63.53613675
v -11.37983167 -40.74563130 70.77616718
v -14.27851145 -36.79169498 69.26447439
v -9.44814818 -47.50552402 61.13354158
v -9.24774386 -36.93829404 65.92341878
v -20.61378936 -37.76995624 66.96409604
v -9.82054445 -39.72924434 70.19145267
v -7.03969553 -40.77229795 67.12790716
v -16.13075189 -40.50152530 70.59001190
v -13.11424148 -42.56648120 71.46506950
v -19.16497048 -39.41201107 64.58169045
v -11.04164672 -45.01413368 70.82808912
v -12.56791004 -50.18545657 66.81810542
v -11.87155350 -45.76164567 71.38410049
v -7.78147999 -46.38457742 64.36586708
v -11.03206106 -36.69449658 69.23280794
v -7.18851330 -45.21224145 63.07765209
v -8.13347497 -43.46311373 68.78259886
v -6.55530739 -43.48792280 65.45381104
v -13.73821919 -35.37202896 68.22641968
v -12.62446119 -49.09740578 61.81346020
v -12.14729356 -34.45211329 65.08310699
v -7.09758959 -42.35995017 64.46999746
v -20.48084323 -39.54829201 65.99806790
v -10.58264857 -37.37239543 63.70461852
v -16.28632538 -44.80779426 62.11345936
v -7.49315348 -39.80556841 68.14319727
v -11.88026517 -37.33823110 69.79734530
v -17.88437573 -39.06094329 69.81608983
v -16.64452838 -44.01857221 68.34549062
v -16.68769034 -34.44162922 66.94916557
v -11.12865267 -39.67147605 63.07899202
v -12.02933240 -48.18699195 70.00570490
v -19.11156079 -35.98473248 66.53077348
v -9.17822039 -47.40011403 63.70158267
v -13.09495483 -34.74513088 67.43400962
v -16.61767937 -44.53388734 67.66569940
v -15.74199322 -34.07908477 66.77404202
v -10.64613455 -35.33836503 65.92934056
v -8.19428447 -42.38150293 69.14832175
v -15.31400864 -47.45354315 66.82750816
v -9.10923776 -44.53809085 61.59038325
v -6.54439788 -43.13209787 66.17641680
v -8.61921271 -37.91828580 66.15843118
v -16.32754203 -34.13904073 66.65884037
v -12.92839016 -47.91055957 70.05894105
v -13.45903312 -43.43604468 62.12027096
v -19.59609598 -39.73534552 64.74385749
v -8.94027906 -37.53657432 68.80362255
v -15.19961636 -42.37421214 71.23016138
v -9.12920846 -45.62370549 68.01363157
v -8.47321464 -45.81101187 67.03374258
v -16.19929762 -37.97667946 69.75559996
v -12.48701939 -44.83009409 71.68817367
v -11.82252949 -48.33154222 69.50852665
v -9.14067760 -39.54480092 63.47446380
v -20.63941393 -38.41082112 65.66672774
v -10.22898993 -48.20683813 62.92804428
v -11.32632243 -46.00211616 60.98080860
v -13.13568850 -34.28274640 66.67561666
v -19.52901726 -36.47457153 66.06647452
v -12.52787422 -43.10743276 62.15462221
v -11.13749879 -47.60799933 69.48796171
v -15.50903493 -47.44458672 66.39073610
v -10.86681499 -39.16163542 70.40325295
v -11.57567816 -39.64367559 70.59501711
v -19.82308977 -36.51707362 66.97640765
v -14.51863837 -49.13524804 64.23459004
v -12.58349200 -48.27137099 60.18620517
v -10.27116032 -47.77196154 60.86724685
v -8.94993805 -46.99231890 65.00207626
v -11.16236764 -35.43363176 64.45635354
v -15.24169675 -42.52087876 62.73087881
v -7.18166430 -41.06779196 68.20902597
v -13.55035934 -49.71109787 63.59799098
v -13.46026937 -47.64290016 69.72124443
v -7.11672114 -45.61854338 63.68346318
v -16.20296973 -41.31465370 63.33008804
v -17.93305152 -43.53016736 63.42692129
v -6.66564207 -42.57028622 66.94710428
v -7.22820547 -44.74646609 67.06921141
v -7.15345577 -44.55375806 63.27951473
v -14.64791431 -45.93832988 61.35823356
v -20.33166174 -39.43962370 65.18025972
v -10.94233023 -35.99083657 68.23871096
v -19.45532753 -41.33162695 64.73574151
v -12.14730875 -39.41386496 70.57299700
v -11.27313690 -35.37455189 67.37515922
v -14.71818406 -40.74592923 63.23661464
v -10.50218197 -45.30393153 61.24973173
v -6.77154902 -41.79641534 67.18769934
v -17.63542693 -35.53430887 65.27209473
v -10.51050014 -48.28354841 62.07071511
v -6.66617851 -44.83025418 64.78049074
v -8.21995052 -38.35038938 68.98244038
v -11.36341262 -49.35768659 63.77168357
v -10.99733943 -43.72528232 61.83789800
v -13.83327101 -49.73445305 64.66861410
v -11.26608340 -47.22511024 60.51930206
v -18.51242736 -35.70737179 67.58471059
v -7.81240234 -39.15550933 68.87802236
v -20.19092380 -36.92670091 67.38820527
v -13.14515434 -36.33785073 69.13233273
v -16.47557958 -35.75342940 64.70712399
v -18.44209550 -36.91736883 69.35433660
v -8.97071313 -47.36540227 61.51388144
v -10.85344569 -47.88988408 68.41249813
v -6.93402360 -45.07722857 66.14749500
v -8.88066962 -46.01492668 61.18494162
v -12.76438441 -35.87064579 64.12410701
v -20.35305819 -37.50369595 65.84819740
v -10.56845678 -35.73780585 67.31970920
v -7.50040333 -45.30573445 62.16275654
v -17.68883646 -42.04357329 68.39122833
v -15.27554667 -36.86008105 69.21547146
v -19.39871335 -37.60182449 69.05263585
v -16.41775668 -44.96645933 67.53896011
v -13.03980161 -38.45714363 70.17627773
v -15.96204547 -46.69831435 62.15191788
v -11.10571737 -49.27391630 64.68696779
v -17.03772290 -45.05403370 65.64961825
v -15.51914950 -34.18080451 65.26361467
v -8.63648737 -37.69066110 67.81735637
v -18.69302995 -42.37286541 64.08238084
v -16.36119342 -35.81913165 68.78172301
v -18.62172806 -43.08605571 64.50433400
v -12.31472214 -50.13395225 63.87777871
v -17.22456352 -43.12235099 63.06211848
v -12.91128212 -48.84290401 68.63431030
v -14.52110895 -46.82904503 60.99369697
v -10.43337730 -48.29804564 65.25804966
v -14.28217250 -49.30913614 65.68766510
v -9.69981763 -37.50326405 69.58762339
v -14.27458418 -33.71996864 65.51984281
v -8.07253155 -39.54398028 69.39289622
v -11.35502393 -49.20164623 67.46385985
v -7.40631007 -46.05787397 64.30954838
v -8.05510755 -40.92651766 69.30401630
v -10.79964820 -47.85239292 60.50827218
v -12.86595925 -49.80166895 63.16124772
v -12.94055147 -49.17862321 62.11653265
v -18.14858711 -42.33682744 67.35375880
v -18.20275393 -36.65952253 64.89344336
v -10.75019150 -43.17593027 70.61371793
v -17.24410101 -34.59819785 66.82641699
v -13.68987279 -39.67970306 70.64748059
v -17.25939291 -35.75298382 68.72452748
v -15.91809428 -47.18471805 64.00984374
v -17.80872016 -36.92857440 69.40140718
v -9.85415986 -45.76333523 68.66683958
v -12.47575475 -47.35011642 70.92604224
v -19.88178284 -39.05225347 67.38901602
v -10.28634058 -47.95828110 61.26127962
v -9.45256544 -43.52247835 69.59495966
v -14.24348625 -40.21847699 70.82707972
v -18.20226435 -38.02649153 69.67380731
v -18.63118723 -41.16335912 67.65743190
v -11.35144889 -48.41248916 60.79408698
v -16.72190445 -34.34167962 66.06992446
v -8.00668880 -44.24186994 68.23662043
v -18.47010515 -38.48560621 69.53622202
v -14.55040754 -46.32826337 69.71086509
v -11.80288469 -36.45790637 69.17288014
v -20.31901813 -39.85446262 65.34424422
v -6.82731555 -41.56226940 66.39598689
v -12.11033846 -49.30326006 62.30229841
v -8.93226035 -47.17110995 61.12162664
v -20.29141137 -38.15959000 67.40526069
v -14.76023267 -35.48884370 64.43243434
v -19.05027678 -37.35089439 69.33725170
v -9.83018459 -36.34844311 67.79040890
v -17.92890138 -40.58036700 69.10414683
v -9.75535541 -36.28366960 66.41351119
v -13.99865625 -46.99856781 69.82313965
v -9.91047759 -36.77187345 68.75501325
v -15.16222920 -48.10995052 63.41453554
v -6.68239811 -43.38112678 66.96819658
v -13.75022702 -34.35181543 64.91916512
v -14.35429108 -34.29578834 64.97512201
v -18.70429735 -41.91370534 66.84491006
v -19.03677018 -36.31598926 68.46775090
v -11.89104223 -44.87577573 71.43069020
v -18.38001835 -35.50408903 66.14364420
v -13.29804558 -50.00180923 64.32999818
v -17.16743794 -45.23756869 63.82857511
v -20.68016390 -37.47199280 66.41081140
v -7.43606073 -45.72604595 62.31374452
v -18.15948596 -35.68978950 68.07651883
v -10.96925578 -48.89635274 63.76359697
v -10.97379234 -36.84409610 63.81713175
v -11.22837530 -49.36816461 66.47012491
v -18.67155270 -42.97199626 65.19583589
v -18.42259666 -38.03129908 64.57014662
v -13.73509282 -49.77508934 65.86696914
v -15.63255332 -47.54295948 63.46739362
v -7.51558514 -46.10076625 62.45396186
v -16.34047923 -44.00265936 68.94678774
v -7.66974079 -43.77372712 62.71164072
v -14.17145793 -41.23721264 71.14442264
v -13.92882646 -49.00941607 67.35981593
v -18.70849173 -37.54486844 69.53020616
v -19.82855964 -40.75047250 65.03059937
v -13.38996997 -45.82201520 71.48215263
v -15.33441498 -46.82182075 67.45109910
v -16.51465274 -45.21856568 66.68649615
v -12.18841170 -46.91097708 71.22991157
v -13.11584714 -36.70932467 69.40047869
v -9.10567897 -40.36246365 69.92214021
v -10.75437787 -47.24400075 69.16186677
v -17.34938630 -38.07497616 64.25671878
v -12.82746408 -47.79986796 60.28705483
v -10.40445528 -47.65944650 67.26990762
v -14.56896106 -42.51024488 71.42585180
v -9.85560720 -47.86286810 62.14045445
v -9.28555454 -40.90706401 62.79133228
v -10.72340432 -40.89646184 70.58178753
v -17.15988146 -44.18739376 62.71493779
v -10.90647642 -48.90974021 65.72566156
v -7.38054323 -42.47792037 68.47523870
v -14.73673803 -47.74458382 61.47466274
v -20.43060232 -37.32900439 67.27102494
v -12.86288222 -44.12213445 71.75586965
v -11.41515486 -47.82917561 69.71328976
v -19.72139255 -37.97978955 68.47144363
v -10.22858651 -36.21889086 68.20855550
v -10.42641396 -46.57690800 69.00424079
v -20.18483119 -37.39301487 68.00807656
v -16.86441121 -34.93476098 65.31453044
v -18.15314221 -35.25131218 66.73951534
v -15.72437599 -43.62688385 62.47276481
v -16.74198310 -45.78378815 62.72413044
v -16.61098584 -45.67789963 65.44383989
v -7.78450241 -46.42657790 61.74380235
v -11.90033002 -41.96199660 62.48514726
v -12.66004921 -35.08476627 64.43992633
v -16.97045638 -44.84523988 62.41340239
v -11.70302019 -44.29602758 71.35987953
v -18.13389249 -42.01396792 63.73884057
v -12.85240355 -46.65749594 71.25231666
v -10.37453073 -35.68028321 66.58054616
v -7.61377509 -46.34570852 63.29405905
v -6.79655205 -41.82009948 67.46696500
v -14.51485152 -48.97478919 66.25307292
v -9.71087238 -46.45904003 67.67866528
v -18.62120099 -36.52097957 69.01357467
v -10.99690957 -38.04053073 63.49297561
v -9.82523056 -44.02556370 61.71718669
v -11.10734584 -42.33435669 62.29005440
v -9.06461253 -37.67313400 65.10353538
v -15.25983787 -47.10320234 61.46392690
v -8.46156868 -38.01997261 67.10472167
v -11.69451203 -34.95873963 64.65260501
v -19.36576540 -41.74802103 65.48828742
v -13.12789248 -46.87833056 70.96307983
v -15.87850030 -46.03935715 67.21913169
v -11.52576024 -37.42512578 63.65108843
v -13.45584079 -40.88283530 71.06194428
v -11.40141255 -38.67138779 70.32420293
v -7.43061026 -43.02424216 63.40525186
v -15.15546096 -38.63091789 70.05221313
v -10.37384508 -47.22978493 60.67296904
v -17.12051959 -41.36500427 63.52115641
v -11.55693590 -35.65274979 64.22037256
v -8.17402172 -46.59199456 61.28497930
v -16.09405011 -42.44881901 70.43093961
v -12.41922246 -50.19222657 65.93394987
v -10.40080692 -36.24787887 64.26787852
v -9.51020866 -41.45175067 70.04734407
v -17.52179053 -43.59145403 66.91266759
v -16.40559426 -43.50608821 69.28733701
v -10.02569772 -46.61102647 60.81731974
v -9.06630974 -46.54780994 66.40084223
v -18.26342899 -43.54068325 63.87564519
v -10.06221297 -42.43299806 70.22072089
v -13.98678377 -44.93156316 61.65832240
v -20.31346712 -39.41786101 66.52511205
v -11.19170931 -48.75016650 62.10293751
v -8.20953214 -45.26120299 61.48210834
v -15.50237935 -43.69623433 70.60130136
v -11.88041715 -46.83560575 71.17241780
v -7.68315281 -46.38859130 62.64488117
v -12.53751464 -34.57691038 64.79718340
v -11.73926828 -38.13403896 63.52255539
v -10.02169282 -43.79792552 69.91524246
v -12.58014242 -50.28113777 64.73742107
v -8.60573239 -41.61159118 69.55568273
v -15.34827433 -35.09598242 68.07330991
v -10.26351086 -35.96674860 64.66571511
v -9.81464284 -40.84330118 70.22791377
v -11.24370834 -48.54485910 68.30634116
v -11.92054748 -36.50547783 63.88098707
v -6.49585761 -43.85899382 65.99830998
v -19.48868352 -36.82551045 68.65487875
v -10.51184610 -45.57711516 69.95615632
v -11.83713975 -50.00949339 66.02569885
v -14.01505376 -43.30379715 71.72762128
v -17.40647521 -44.80088678 63.28290500
v -15.13872036 -47.59259501 62.15383996
v -12.27076616 -49.05201923 61.70907867
v -8.72324841 -45.07014774 68.15905366
v -14.73935832 -33.59448953 65.93701732
v -10.57951847 -41.69422198 70.50497121
v -15.53426321 -44.40013458 70.08811021
v -7.19954084 -43.72358972 67.73393753
v -14.07885220 -44.53765141 71.88080566
v -10.63760982 -38.22700546 70.15620821
v -6.91843679 -42.77579974 67.68057800
v -15.61990239 -35.97821240 68.82234914
v -16.39890357 -42.57669060 69.99211659
v -20.80162251 -38.81985055 65.74980407
v -12.91840479 -41.96196970 62.61110958
v -12.96124289 -45.71864709 71.68945735
v -17.93165447 -43.04926064 63.42594166
v -8.31720497 -38.98481602 65.00795053
v -7.84053294 -40.67658662 64.32066306
v -8.79197630 -37.82310196 65.60473370
v -12.95472077 -50.08585706 63.88314272
v -14.03199117 -46.04755417 70.69374543
v -15.01559476 -34.20805935 66.99274529
v -13.33152518 -49.62975446 66.92544550
v -17.92230342 -36.00875319 68.77451415
v -7.16817748 -41.12235037 65.50129208
v -15.97948393 -46.26008267 66.59642046
v -7.52187397 -41.44872635 68.82002872
v -16.27850250 -39.04173745 70.18282402
v -18.84419077 -42.82441975 64.82345829
v -19.85343137 -36.69317699 66.49480363
v -15.49674060 -45.64357483 68.72589817
v -15.50916680 -47.83339530 65.33552245
v -13.30005263 -48.45011212 68.95313653
v -17.79023009 -44.29167341 64.47447680
v -7.36200928 -43.82391408 63.16142498
v -8.56853459 -44.39159436 68.58236743
v -15.03895787 -45.12090517 61.72474215
v -14.38935885 -44.04691996 71.77741888
v -19.18594076 -42.07676422 64.67292391
v -9.40500456 -42.53356949 62.22116049
v -6.99930776 -44.94097886 66.50377486
v -9.53848684 -42.50353974 69.86646264
v -9.83437036 -37.56907612 63.99259069
v -16.18523974 -46.70665814 64.27823563
v -17.55754797 -36.44108210 64.75726922
v -17.01207924 -37.64863541 69.60055958
v -20.38531029 -37.07331229 66.89914354
v -18.14914843 -43.04586220 66.39684781
v -15.73872390 -37.52838495 69.52905422
v -16.14624144 -46.52368054 65.61799522
v -14.46950515 -36.88402012 64.01881381
v -7.74431143 -39.72215681 65.55802998
v -14.07793547 -35.06754945 64.53806706
v -10.16302378 -37.75737884 69.91383526
v -14.50366606 -36.08508423 68.81755576
v -20.85863553 -37.72760340 66.35478077
v -9.10191440 -37.97162053 64.53834004
v -7.85259185 -39.03423868 66.91018796
v -14.69103439 -35.46331122 68.42910900
v -18.79656836 -42.14453555 66.39030031
v -11.95968194 -49.77375606 67.16166014
v -9.45752084 -44.76968374 69.00902174
v -19.69736558 -38.24182983 65.05725265
v -10.81017430 -36.10930115 64.15246776
v -11.70428037 -41.77385196 71.00456682
v -17.60672500 -44.25878550 63.13143045
v -15.21884658 -43.02452236 71.20500053
v -12.15810952 -34.38750872 66.01185453
v -12.58647406 -49.56213028 62.73152164
v -14.49508558 -38.07314618 63.82678175
v -12.28190565 -43.08346150 71.44282656
v -14.59834853 -48.07837249 67.59686067
v -17.33090529 -44.25035139 66.40164616
v -14.56101818 -48.67672097 66.70613085
v -8.01325108 -38.71411613 67.27145133
v -13.41507775 -48.85188292 68.23046758
v -7.87115958 -44.77471022 67.74488921
v -12.36210355 -49.36066936 67.98079311
v -11.88891293 -48.93579796 61.52960605
v -20.00221733 -40.58739800 65.46406955
v -18.70198435 -40.17176635 68.34219714
v -9.61079262 -47.71891217 63.11399827
v -14.84763741 -48.71920970 65.43992634
v -10.09297627 -45.05804240 69.59369056
v -13.26385540 -48.54570392 60.96831204
v -19.85440765 -40.07146047 64.86548889
v -19.04266391 -42.01617521 65.92614685
v -18.82029381 -40.83268342 64.25513357
v -20.78731884 -38.70871392 66.24794415
v -18.98697278 -41.56617335 64.31990428
v -12.06193652 -50.19983662 65.12265869
v -8.96309132 -43.61130499 69.29196516
v -16.17562483 -46.58437351 65.17860548
v -12.31271694 -48.20618897 60.05892500
v -11.92317090 -37.88685896 70.04021717
v -14.23205475 -38.29085781 69.97032060
v -17.45659053 -35.69989680 65.06570569
v -15.99115118 -36.08537504 64.45042839
v -16.44306814 -36.71444964 69.25308854
v -14.07540461 -48.14286262 68.40112902
v -17.61481750 -41.73056169 63.59031903
v -12.30268522 -48.43530415 69.69655566
v -11.42778609 -37.04921182 69.58655781
v -14.56530206 -37.65205665 69.67145312
v -10.47744347 -48.36881017 63.88979213
v -12.90429819 -36.76202062 63.85348170
v -14.02645742 -38.93928715 70.29906407
v -14.27664168 -34.61436150 67.45022210
v -9.56028991 -41.27479641 62.59637947
v -13.41197842 -44.94453674 71.85607585
v -16.54115042 -46.03818785 64.82027391
v -8.39858348 -39.52990495 69.59977431
v -11.81072621 -50.12665672 64.55097159
v -18.00870606 -39.32897715 69.63219613
v -11.29485661 -49.59087340 65.10831299
v -19.66564767 -41.01014417 66.06994663
v -8.49168854 -39.38733073 64.32095523
v -12.83836777 -49.46413466 67.70940332
v -19.83615244 -36.86714683 68.10179490
v -8.66147093 -37.69370698 68.32596050
v -8.35543461 -46.98877333 62.05363555
v -14.57767216 -35.95521459 64.26922528
v -14.93278193 -43.89116171 62.16619509
v -17.81810758 -40.09542499 63.97972388
v -7.10401754 -45.39905091 63.44535957
v -10.71687457 -46.37616917 60.82777059
v -17.84832329 -40.12114365 69.46160519
v -7.14239803 -40.58689175 66.43789868
v -17.22382332 -37.11968842 64.49143217
v -12.46085097 -45.46642532 71.68447526
v -8.85432843 -42.65220680 69.47712244
v -8.12714218 -42.64692152 62.72876160
v -8.37469424 -40.77450262 63.47358351
v -11.58483843 -49.82742169 66.18919373
v -18.38554760 -40.30941109 64.16623551
v -11.25595076 -35.11080314 66.72445784
v -11.97954170 -43.49481748 71.37731300
v -19.48056840 -41.60628007 65.18695474
v -13.17885139 -48.86466405 61.63525444
v -11.91873372 -47.09520505 60.56267685
v -18.86981055 -36.00035929 65.90306286
v -11.20933367 -46.20162852 70.75033276
v -8.37851165 -46.32906670 61.19634530
v -14.06765304 -33.60753190 65.97256163
v -11.92679705 -34.48061928 65.43282175
v -11.45366988 -49.17892388 62.86085040
v -16.37098080 -45.49753749 61.96353745
v -12.51281635 -42.46483623 71.36978056
v -7.60593320 -45.91179219 65.71728116
v -8.33576736 -38.72783057 69.43222562
v -9.34886607 -39.92771697 63.16149918
v -9.33254576 -36.87628480 67.74790766
v -16.22862950 -40.99298543 70.55545739
v -15.91397241 -44.75393375 68.93773129
v -12.94595567 -50.19499926 65.86015342
v -9.94442368 -47.33159042 66.68861413
v -15.81337758 -33.88192448 66.29359426
v -11.64574487 -47.13455177 70.85886131
v -6.52166492 -44.40389259 65.32703158
v -19.13877098 -40.78200316 67.16705456
v -7.67678616 -40.00128852 68.95550893
v -19.51656952 -36.72475403 65.74401505
v -11.73312295 -43.50598631 61.97639260
v -11.84893824 -48.95652069 68.48434184
v -8.92263528 -38.59734297 69.85264165
v -18.86329998 -35.78476223 66.85988356
v -14.80045952 -47.08110927 68.40842921
v -15.68898285 -34.93296024 64.87067697
v -7.63076847 -39.53713765 66.45446003
v -17.19427980 -40.07875026 70.07140345
v -17.60971204 -36.33794863 69.16155570
v -12.55047053 -45.56633061 61.24152959
v -11.01266062 -48.45804293 61.41876289
v -12.28026395 -48.74584696 60.86464884
v -9.70014986 -36.47691368 65.31345712
v -10.99333106 -46.13895591 70.43383393
v -17.88517557 -37.39081822 69.54283470
v -16.29420600 -46.52154814 62.96202239
v -11.29996736 -46.90060135 70.49958477
v -17.22491515 -45.02615308 64.78997705
v -11.87039985 -49.95467196 63.74546601
v -13.16114037 -33.91043521 65.31435127
v -14.35151379 -43.08832582 62.38892640
v -16.09754908 -37.55341128 64.15838913
v -15.92977096 -34.68550249 67.63112247
v -15.56173107 -40.82316254 63.32048880
v -15.78956362 -45.75093474 61.64289523
v -8.46312708 -40.59446344 69.58573519
v -14.06565116 -49.47452911 63.99921038
v -6.70950344 -43.20876066 64.99708901
v -11.17454181 -44.26584556 71.00182738
v -10.88560435 -48.64317021 62.72523364
v -10.02101936 -47.38233566 60.77646349
v -13.84250627 -48.22051860 61.05769566
v -12.55104006 -40.42217308 63.05733138
v -16.41268026 -43.01001042 69.70473092
v -19.58844878 -37.01188020 65.53066063
v -16.54618146 -34.78127070 67.58776266
v -6.66251053 -44.46967777 64.56557816
v -6.88189406 -43.85875081 64.00211260
v -13.52393010 -46.48297214 60.92475775
v -10.84901530 -35.15081267 65.58442861
v -9.49222789 -47.35793252 65.06729835
v -9.42780039 -45.46214826 68.48010819
v -12.25334350 -49.98784824 63.38074753
v -10.63407048 -35.38771252 64.95901927
v -10.22980619 -42.26740551 62.27377876
v -11.37182712 -42.57081925 70.97986425
v -18.87356261 -39.18508249 68.72530884
v -6.60914268 -44.37455224 66.25110096
v -10.71313928 -41.07819609 62.62803950
v -9.98492644 -38.94749637 70.20261502
v -8.66207952 -42.51030954 62.43709320
v -19.89969257 -37.23088650 68.61471014
v -17.00844259 -40.27403537 63.73417936
v -7.56638816 -43.27245174 68.39373105
v -13.25994071 -35.69954545 64.18791360
v -15.88618130 -39.09202365 63.76775875
v -10.82688472 -46.76175591 69.81915911
v -15.33308769 -45.07112696 69.61422532
v -17.84304331 -42.40260049 67.81624561
v -13.35894069 -35.19987753 67.99430564
v -8.91873247 -38.02338751 69.65038668
v -20.98614450 -38.25104331 66.20780175
v -13.55902017 -39.18343282 63.54027197
v -16.36143105 -45.82833401 66.14251123
v -17.97601874 -43.66721430 65.72586552
v -15.60105947 -40.31377202 70.68311546
v -15.08455748 -34.73378133 67.64857738
v -10.53793185 -39.93340711 70.43346112
v -7.83400704 -45.70339237 66.36190262
v -13.33679983 -37.45877351 63.79733123
v -8.04775243 -43.55491952 62.37192334
v -7.46446253 -39.79244317 67.46914615
v -14.13920991 -47.57207591 68.92400497
v -11.95457725 -47.57163922 70.70924991
v -16.61929951 -39.55255086 70.29295520
v -14.62734288 -47.13119931 61.00438341
v -14.62632551 -33.79585572 66.33252524
v -17.42263464 -38.66396655 69.91254250
v -15.86804144 -34.28097174 65.36649295
v -9.97131642 -38.36129524 70.14786495
v -16.37711437 -42.70255708 62.95658286
v -17.00769556 -39.77715813 70.23491556
v -15.66824572 -44.44753889 69.69593372
v -9.85279217 -38.02670700 63.75450550
v -12.23241081 -34.68458158 66.99559128
v -13.75753043 -47.24160139 60.62534009
v -17.47013277 -34.75505377 66.43197617
v -9.79138595 -47.34636498 66.17087974
v -15.81860920 -41.47736932 70.81672712
v -15.87882021 -46.30032432 61.63591720
v -9.75184974 -47.77199200 63.90603230
v -14.68675753 -47.60268006 68.00417636
v -7.96298240 -40.07547658 64.66591227
v -13.13328006 -33.92628409 65.90826497
v -17.39986645 -43.40164907 67.48361644
v -14.91945896 -46.54359141 68.76953683
v -17.34674623 -34.75859622 65.98733123
v -9.07085005 -37.19435186 66.96359031
v -9.91751649 -47.74981598 65.10129979
v -13.55265220 -34.55963076 67.25845219
v -9.42508641 -47.02646590 66.11220224
v -18.64584246 -36.20076967 65.36886401
v -12.86309261 -41.32695651 71.16784854
v -13.46072165 -43.97536711 71.82951731
v -8.42561119 -44.25016291 61.84179369
v -14.64313309 -48.97059216 64.64495603
v -9.60391376 -45.48087303 61.23964108
v -14.06704664 -48.62689785 67.73183805
v -12.13027244 -49.58999824 62.88002309
v -13.80354888 -48.51403950 61.63138463
v -14.97337212 -40.64743270 70.89930326
v -14.97887676 -45.99172984 69.28695670
v -14.95632154 -48.21364566 62.98093874
v -8.97462117 -47.45933695 62.14632304
v -13.63542115 -40.55829154 63.18192891
v -7.23216023 -40.62621873 65.93197685
v -13.10835211 -45.01581631 61.52138621
v -9.80885762 -36.85163671 64.50187815
v -7.77744416 -45.25144524 61.79452973
v -12.27536943 -38.54112462 70.28753439
v -15.83932742 -45.54555217 67.97236954
v -9.93616400 -36.10395867 65.71931744
v -14.74308913 -44.48500778 71.11485554
v -11.81392012 -48.35167742 60.23105028
v -14.39175129 -45.16270154 71.04592063
v -16.82491982 -41.32544381 70.07149608
v -16.47494653 -43.79474377 62.59438533
v -14.03552961 -34.07478407 66.70330219
v -12.37903073 -48.82791290 68.96039229
v -12.49157244 -35.99483970 68.73918344
v -17.96096312 -38.93197337 64.23760603
v -12.48399004 -46.64080523 60.77086882
v -16.80770807 -45.58174560 62.44637611
v -13.13613022 -39.85153329 70.71395826
v -10.62657698 -39.32744266 63.17671141
v -11.30857720 -47.84883814 60.33604990
v -10.49737364 -44.21544131 70.29121855
v -8.11355740 -46.76399883 63.34137424
v -9.58408790 -37.39715926 69.38900510
v -12.54749900 -48.10940903 70.09225427
v -17.42384552 -41.53988918 69.19093031
v -14.95730639 -45.16993963 70.27756180
v -7.18874250 -41.81924075 68.20366302
v -11.72427897 -49.49705980 63.31005807
v -19.77646890 -37.75163632 65.24668293
v -11.55970202 -48.64142996 68.66149676
v -6.77680832 -45.14580688 64.73979553
f 528 228 183
f 9 183 171
f 9 350 183
f 183 490 528
f 602 528 490
f 183 350 490
f 350 585 490
f 331 284 227
f 227 528 331
f 331 528 71
f 528 43 71
f 491 71 43
f 228 528 227
f 228 171 183
f 602 43 528
f 587 9 171
f 9 503 350
f 109 602 490
f 636 490 585
f 490 636 109
f 503 87 350
f 350 87 585
f 284 331 301
f 399 227 284
f 301 331 71
f 552 301 71
f 399 514 228
f 399 228 227
f 552 71 491
f 514 171 228
f 277 208 587
f 414 491 43
f 548 491 414
f 208 9 587
f 602 414 43
f 208 503 9
f 368 585 87
f 636 585 368
f 563 468 218
f 563 399 284
f 159 563 284
f 159 284 312
f 312 301 121
f 563 218 399
f 312 284 301
f 337 121 552
f 301 552 121
f 218 514 399
f 491 548 552
f 277 587 514
f 514 587 171
f 605 208 277
f 88 548 414
f 595 208 605
f 593 602 109
f 414 602 593
f 94 208 595
f 208 94 503
f 636 608 109
f 87 503 94
f 454 636 368
f 94 80 544
f 94 544 87
f 312 239 340
f 452 468 563
f 452 563 159
f 340 159 312
f 312 121 410
f 316 410 121
f 337 316 121
f 444 218 468
f 153 218 444
f 153 514 218
f 153 277 514
f 153 443 277
f 141 487 277
f 141 277 443
f 487 232 605
f 487 605 277
f 88 414 289
f 482 414 593
f 194 94 595
f 85 109 608
f 593 109 85
f 194 80 94
f 608 636 454
f 531 368 87
f 544 531 87
f 452 159 340
f 239 312 410
f 316 239 410
f 397 468 452
f 444 468 397
f 443 153 391
f 630 552 548
f 232 278 595
f 595 605 232
f 289 414 482
f 278 194 595
f 42 194 278
f 568 608 454
f 85 608 568
f 575 454 368
f 48 194 42
f 48 80 194
f 48 544 80
f 531 575 368
f 544 19 531
f 305 452 340
f 305 340 239
f 397 452 578
f 397 530 444
f 337 626 316
f 391 153 444
f 552 521 337
f 552 630 521
f 610 141 443
f 610 487 141
f 548 222 630
f 88 222 548
f 83 232 487
f 83 278 232
f 512 278 83
f 149 42 278
f 454 69 568
f 42 149 237
f 48 42 237
f 336 575 531
f 575 336 454
f 69 454 336
f 544 196 19
f 544 48 196
f 578 452 50
f 295 305 239
f 295 239 74
f 239 316 74
f 316 592 74
f 316 389 592
f 316 626 389
f 475 444 530
f 521 626 337
f 192 391 475
f 475 391 444
f 192 443 391
f 192 610 443
f 543 610 192
f 508 610 543
f 487 508 110
f 508 487 610
f 110 83 487
f 222 88 289
f 289 482 161
f 512 149 278
f 11 593 85
f 25 85 568
f 11 85 25
f 336 531 19
f 336 405 69
f 370 196 48
f 370 48 237
f 19 174 336
f 336 174 357
f 336 357 405
f 305 295 332
f 332 50 452
f 332 452 305
f 8 389 626
f 397 578 416
f 8 626 403
f 530 397 416
f 298 626 521
f 242 192 475
f 376 83 110
f 137 482 593
f 161 482 137
f 11 137 593
f 25 568 638
f 401 69 405
f 152 69 401
f 174 19 196
f 401 405 357
f 295 643 81
f 295 17 643
f 74 592 31
f 81 332 295
f 295 74 17
f 17 74 31
f 530 564 259
f 564 530 416
f 298 403 626
f 242 475 259
f 259 475 530
f 521 365 298
f 521 54 365
f 630 54 521
f 160 508 543
f 160 110 508
f 54 630 222
f 116 83 376
f 512 83 116
f 498 222 289
f 498 289 220
f 289 161 220
f 33 149 512
f 161 137 274
f 137 11 134
f 137 134 274
f 149 230 237
f 134 11 25
f 230 370 237
f 568 69 638
f 69 152 638
f 517 196 370
f 196 517 174
f 174 445 357
f 401 52 152
f 105 31 592
f 416 578 571
f 571 578 50
f 8 592 389
f 105 592 8
f 403 463 8
f 653 543 192
f 54 93 365
f 160 543 653
f 235 110 160
f 606 54 222
f 376 110 235
f 33 512 116
f 230 149 33
f 220 161 274
f 25 212 34
f 134 25 34
f 212 25 638
f 294 370 230
f 294 517 370
f 357 164 401
f 401 164 52
f 264 17 497
f 17 31 497
f 105 497 31
f 541 571 50
f 363 463 403
f 298 363 403
f 653 242 409
f 653 192 242
f 93 606 300
f 54 606 93
f 393 235 402
f 393 376 235
f 393 116 376
f 151 393 270
f 393 151 116
f 498 606 222
f 116 151 33
f 498 172 606
f 300 606 172
f 465 33 151
f 230 33 465
f 220 274 498
f 172 498 466
f 98 498 274
f 274 224 98
f 34 274 134
f 274 34 224
f 224 34 647
f 212 65 34
f 212 638 152
f 445 174 517
f 294 154 517
f 164 357 445
f 154 198 517
f 14 50 332
f 14 332 81
f 479 105 8
f 242 259 639
f 298 365 363
f 515 365 93
f 515 93 404
f 106 160 653
f 300 404 93
f 570 402 106
f 402 160 106
f 402 235 160
f 300 421 404
f 402 270 393
f 55 270 402
f 270 276 151
f 172 466 46
f 151 276 560
f 151 560 465
f 98 466 498
f 144 466 98
f 465 342 230
f 465 560 342
f 224 647 98
f 65 647 34
f 560 165 219
f 342 560 219
f 342 294 230
f 256 212 152
f 212 449 65
f 52 256 152
f 294 342 219
f 294 219 154
f 154 523 198
f 164 445 395
f 497 29 264
f 557 81 643
f 105 29 497
f 105 479 29
f 623 416 571
f 463 363 601
f 639 409 242
f 365 398 363
f 515 398 365
f 106 653 409
f 570 106 359
f 402 570 55
f 570 435 217
f 570 217 55
f 276 270 55
f 276 55 217
f 172 421 300
f 46 421 172
f 273 276 217
f 276 273 560
f 98 647 569
f 273 165 560
f 647 182 569
f 182 647 65
f 182 449 400
f 182 65 449
f 256 77 212
f 212 77 449
f 219 250 154
f 523 154 250
f 445 198 392
f 517 198 445
f 102 445 392
f 102 395 445
f 450 52 164
f 52 5 256
f 164 395 450
f 14 81 557
f 564 416 623
f 463 479 8
f 364 479 463
f 639 259 564
f 601 364 463
f 409 639 60
f 398 515 624
f 144 46 466
f 98 569 144
f 165 273 2
f 400 569 182
f 449 77 400
f 523 392 198
f 450 5 52
f 5 77 256
f 557 643 455
f 455 643 17
f 455 17 264
f 29 559 264
f 14 541 50
f 29 479 478
f 623 571 541
f 639 564 532
f 363 398 601
f 409 133 106
f 359 106 133
f 435 570 359
f 435 325 217
f 421 580 404
f 46 580 421
f 201 273 217
f 2 219 165
f 400 588 569
f 441 77 5
f 77 441 400
f 400 441 355
f 392 374 102
f 309 450 395
f 309 395 102
f 450 309 442
f 138 564 623
f 60 639 470
f 470 639 561
f 601 371 364
f 601 398 371
f 133 409 97
f 97 409 60
f 359 73 435
f 515 474 624
f 515 580 474
f 404 580 515
f 201 217 325
f 76 580 46
f 144 150 46
f 569 496 144
f 45 2 273
f 511 496 569
f 210 219 2
f 210 250 219
f 569 588 511
f 250 205 523
f 355 588 400
f 523 586 392
f 586 374 392
f 5 450 442
f 5 167 441
f 167 628 441
f 441 628 307
f 441 307 355
f 355 307 114
f 309 453 442
f 5 442 167
f 455 386 557
f 455 264 386
f 264 559 386
f 29 478 559
f 479 308 478
f 564 138 532
f 364 308 479
f 308 364 72
f 60 470 481
f 398 624 371
f 213 359 133
f 73 325 435
f 580 76 57
f 45 273 201
f 46 150 76
f 496 150 144
f 555 2 45
f 205 250 210
f 588 558 511
f 205 586 523
f 355 114 588
f 588 114 558
f 628 136 307
f 136 115 307
f 115 114 307
f 114 576 558
f 102 374 309
f 453 167 442
f 628 167 642
f 360 541 283
f 283 541 14
f 360 623 541
f 308 247 478
f 639 532 561
f 371 72 364
f 432 133 97
f 426 359 213
f 426 73 359
f 580 57 474
f 206 45 201
f 150 22 76
f 555 45 427
f 150 496 507
f 507 496 184
f 496 458 184
f 221 2 555
f 473 2 221
f 511 458 496
f 2 473 460
f 56 257 458
f 511 56 458
f 210 2 460
f 56 338 257
f 558 56 511
f 205 210 78
f 586 205 78
f 338 56 265
f 265 56 576
f 576 56 558
f 586 583 374
f 453 195 167
f 628 642 136
f 374 30 309
f 296 553 386
f 386 559 613
f 297 557 553
f 553 557 386
f 283 14 297
f 297 14 557
f 478 579 559
f 127 561 532
f 311 470 561
f 97 60 481
f 40 73 426
f 214 624 474
f 325 229 506
f 506 201 325
f 22 57 76
f 201 506 206
f 507 22 150
f 555 427 221
f 210 460 78
f 114 51 576
f 114 115 51
f 78 590 586
f 590 583 586
f 195 642 167
f 309 30 453
f 296 386 91
f 91 386 613
f 146 297 553
f 146 553 296
f 559 579 613
f 6 623 360
f 6 138 623
f 561 127 311
f 481 470 311
f 436 4 434
f 4 432 434
f 432 97 434
f 97 481 434
f 432 4 251
f 213 133 251
f 251 133 432
f 474 57 214
f 22 291 57
f 140 57 291
f 123 291 22
f 22 507 123
f 206 427 45
f 187 373 507
f 184 187 507
f 458 534 187
f 184 458 187
f 458 257 534
f 338 317 257
f 265 351 338
f 516 78 460
f 51 265 576
f 516 590 78
f 136 44 115
f 30 195 453
f 374 574 30
f 509 297 146
f 627 613 579
f 111 283 509
f 509 283 297
f 111 360 283
f 247 579 478
f 122 532 138
f 381 247 308
f 122 127 532
f 546 381 308
f 72 546 308
f 72 536 546
f 434 481 447
f 447 481 311
f 436 135 4
f 371 536 72
f 251 4 135
f 536 371 214
f 426 213 251
f 426 251 484
f 426 484 302
f 624 214 371
f 302 40 426
f 302 462 40
f 462 73 40
f 462 325 73
f 229 325 462
f 57 140 214
f 651 291 123
f 373 651 123
f 373 123 507
f 163 427 206
f 317 335 257
f 257 335 534
f 351 323 338
f 634 460 473
f 554 265 51
f 351 265 554
f 115 44 51
f 590 499 58
f 583 590 58
f 574 374 583
f 30 204 195
f 583 58 574
f 139 296 615
f 615 296 91
f 139 146 296
f 96 360 111
f 529 6 96
f 96 6 360
f 122 138 6
f 122 6 529
f 279 127 122
f 589 311 127
f 287 447 177
f 447 311 589
f 436 434 287
f 434 447 287
f 484 251 135
f 135 385 484
f 214 68 536
f 462 406 229
f 291 129 140
f 649 427 163
f 221 427 649
f 338 323 317
f 649 473 221
f 15 193 351
f 193 323 351
f 351 554 15
f 516 460 634
f 51 44 411
f 136 642 611
f 136 611 44
f 590 516 499
f 574 619 30
f 327 615 91
f 327 91 613
f 627 327 613
f 96 111 625
f 625 111 509
f 627 579 247
f 589 127 279
f 546 131 381
f 362 287 177
f 635 177 447
f 635 447 589
f 173 287 362
f 173 436 287
f 135 436 173
f 135 173 385
f 214 92 68
f 214 140 92
f 506 229 191
f 268 356 651
f 356 291 651
f 206 506 191
f 191 567 206
f 163 206 567
f 534 335 187
f 323 388 317
f 323 333 388
f 323 645 333
f 193 645 323
f 411 554 51
f 516 634 16
f 619 204 30
f 204 306 195
f 306 642 195
f 16 499 516
f 58 597 574
f 499 597 58
f 509 518 625
f 518 146 108
f 108 146 139
f 39 327 627
f 518 509 146
f 324 96 625
f 324 529 96
f 324 469 529
f 383 469 324
f 469 122 529
f 469 279 122
f 635 589 279
f 131 162 381
f 162 247 381
f 362 177 266
f 385 173 322
f 536 545 546
f 536 68 545
f 92 341 68
f 140 129 92
f 129 291 226
f 226 291 356
f 373 268 651
f 187 89 373
f 187 335 89
f 317 388 335
f 477 388 203
f 333 203 388
f 645 430 333
f 358 473 649
f 634 473 358
f 611 494 44
f 248 306 204
f 306 611 642
f 597 499 16
f 574 597 99
f 99 619 574
f 204 619 248
f 139 472 108
f 472 139 615
f 158 327 489
f 489 327 39
f 162 39 627
f 279 469 383
f 247 162 627
f 177 635 266
f 236 131 66
f 128 173 362
f 322 173 128
f 131 546 545
f 66 131 545
f 68 505 545
f 341 505 68
f 375 484 385
f 433 462 302
f 129 341 92
f 129 226 341
f 406 462 433
f 373 89 268
f 335 477 89
f 388 477 335
f 358 649 542
f 193 15 537
f 15 554 286
f 314 16 634
f 554 411 417
f 411 44 417
f 417 44 494
f 597 16 99
f 158 615 327
f 313 39 282
f 162 236 39
f 75 279 383
f 75 635 279
f 285 266 75
f 75 266 635
f 412 362 266
f 131 236 162
f 128 362 412
f 66 471 236
f 471 66 545
f 143 471 545
f 505 143 545
f 175 385 322
f 655 143 505
f 556 505 341
f 241 484 375
f 241 302 484
f 241 433 302
f 226 556 341
f 226 10 556
f 356 353 10
f 226 356 10
f 356 268 353
f 268 562 353
f 319 649 163
f 333 7 203
f 430 7 333
f 634 358 314
f 15 286 537
f 99 262 619
f 619 262 248
f 262 345 248
f 248 28 306
f 345 28 248
f 28 59 306
f 611 306 59
f 320 472 615
f 320 615 158
f 489 39 313
f 640 518 108
f 518 324 625
f 547 324 518
f 132 533 383
f 132 383 324
f 285 75 493
f 493 75 533
f 533 75 383
f 282 39 236
f 285 412 266
f 245 282 236
f 471 245 236
f 330 245 126
f 471 126 245
f 412 322 128
f 655 126 143
f 126 471 143
f 175 375 385
f 505 27 655
f 27 505 556
f 556 387 27
f 10 387 556
f 573 433 241
f 406 433 573
f 89 67 562
f 89 562 268
f 89 438 67
f 477 438 89
f 477 203 438
f 494 611 59
f 413 99 16
f 489 539 320
f 489 313 539
f 320 158 489
f 640 108 472
f 216 313 155
f 547 518 640
f 155 313 282
f 132 324 547
f 493 533 598
f 155 282 467
f 641 285 493
f 641 412 285
f 467 282 330
f 330 282 245
f 126 290 330
f 655 290 126
f 186 290 655
f 655 27 186
f 387 157 27
f 394 406 573
f 229 406 394
f 130 387 10
f 353 130 10
f 353 423 130
f 191 229 318
f 353 209 423
f 562 67 209
f 562 209 353
f 408 438 203
f 7 408 203
f 199 408 7
f 430 199 7
f 319 542 649
f 193 61 645
f 193 537 61
f 358 328 314
f 413 16 314
f 640 486 260
f 320 539 310
f 313 216 539
f 486 640 472
f 486 472 148
f 148 472 320
f 148 320 310
f 594 179 132
f 594 132 547
f 53 216 155
f 598 584 299
f 598 533 584
f 533 179 584
f 179 533 132
f 290 467 330
f 290 646 467
f 641 346 412
f 186 646 290
f 186 64 646
f 346 322 412
f 47 64 186
f 27 47 186
f 495 47 27
f 157 495 27
f 387 495 157
f 387 577 495
f 318 229 394
f 130 577 387
f 603 191 318
f 567 191 603
f 79 567 603
f 382 209 67
f 382 67 408
f 79 163 567
f 438 408 67
f 319 163 246
f 358 542 328
f 554 417 483
f 494 59 612
f 260 24 594
f 260 486 440
f 440 486 148
f 594 547 260
f 260 547 640
f 644 148 310
f 644 310 188
f 310 539 188
f 539 119 188
f 539 53 119
f 216 53 539
f 179 594 24
f 584 179 24
f 641 493 598
f 467 622 155
f 646 622 467
f 64 84 646
f 36 322 346
f 36 380 322
f 380 175 322
f 375 175 380
f 47 120 64
f 321 47 495
f 577 321 495
f 423 101 130
f 130 101 577
f 209 349 423
f 382 349 209
f 246 163 79
f 382 408 550
f 384 345 262
f 99 384 262
f 632 440 644
f 260 118 24
f 118 260 440
f 440 148 644
f 188 632 644
f 188 119 207
f 207 202 519
f 202 207 119
f 53 202 119
f 584 24 269
f 584 269 299
f 519 202 263
f 519 263 142
f 155 202 53
f 622 202 155
f 622 263 202
f 142 263 107
f 107 263 428
f 428 263 622
f 168 641 598
f 84 428 622
f 646 84 622
f 599 428 84
f 599 84 549
f 120 84 64
f 47 321 120
f 419 318 394
f 577 101 321
f 3 101 423
f 423 349 3
f 349 100 3
f 382 100 349
f 550 100 382
f 408 199 550
f 352 542 319
f 645 343 430
f 352 328 542
f 554 483 286
f 328 413 314
f 494 612 417
f 345 612 28
f 28 612 59
f 384 99 413
f 520 440 632
f 632 188 207
f 118 440 520
f 118 540 24
f 540 269 24
f 168 598 299
f 168 280 641
f 599 107 428
f 280 36 346
f 280 346 641
f 36 234 380
f 607 599 549
f 120 549 84
f 241 375 380
f 12 573 241
f 609 549 120
f 321 609 120
f 419 394 573
f 86 318 419
f 609 321 35
f 318 86 603
f 35 321 3
f 3 321 101
f 79 603 86
f 591 352 319
f 384 413 328
f 612 271 417
f 118 431 540
f 431 118 520
f 520 632 207
f 142 326 519
f 107 326 142
f 107 451 538
f 599 451 107
f 607 451 599
f 526 380 234
f 380 526 12
f 12 241 380
f 12 419 573
f 609 607 549
f 609 596 607
f 35 596 609
f 3 293 35
f 86 246 79
f 100 293 3
f 550 293 100
f 550 199 293
f 591 319 246
f 343 275 430
f 483 417 103
f 345 384 354
f 345 354 612
f 207 425 520
f 70 431 520
f 207 519 425
f 538 326 107
f 524 280 168
f 23 36 280
f 23 280 524
f 607 180 451
f 23 234 36
f 254 419 170
f 170 419 12
f 596 180 607
f 596 502 180
f 419 254 166
f 419 166 86
f 35 502 596
f 293 502 35
f 500 246 86
f 430 275 199
f 631 328 352
f 103 286 483
f 631 384 328
f 417 271 103
f 631 354 384
f 485 431 70
f 431 618 540
f 269 347 299
f 347 168 299
f 347 26 168
f 451 238 538
f 26 524 168
f 180 238 451
f 390 234 23
f 390 526 234
f 457 526 390
f 526 457 281
f 170 12 526
f 170 526 281
f 572 170 281
f 170 572 254
f 500 591 246
f 275 261 199
f 591 500 566
f 591 566 352
f 352 650 631
f 271 612 456
f 354 456 612
f 425 519 326
f 485 618 431
f 348 70 520
f 348 520 425
f 618 269 540
f 538 492 326
f 347 269 21
f 538 238 492
f 26 244 524
f 524 244 23
f 23 244 197
f 23 197 390
f 439 457 390
f 439 281 457
f 396 572 281
f 281 439 396
f 372 254 572
f 304 254 372
f 502 261 180
f 254 304 166
f 166 304 629
f 166 629 86
f 500 86 629
f 293 261 502
f 500 629 377
f 199 261 293
f 566 650 352
f 633 631 650
f 645 522 343
f 61 522 645
f 631 633 354
f 537 18 61
f 537 286 18
f 18 286 231
f 231 286 103
f 354 633 41
f 103 476 231
f 271 456 103
f 41 252 354
f 252 456 354
f 326 492 425
f 21 269 618
f 38 618 485
f 38 485 190
f 37 21 618
f 37 618 38
f 21 621 347
f 621 26 347
f 621 225 26
f 26 225 244
f 180 169 238
f 32 197 244
f 32 390 197
f 32 439 390
f 439 32 378
f 396 439 378
f 180 261 267
f 572 113 372
f 572 396 113
f 377 604 620
f 566 500 377
f 566 377 620
f 566 620 211
f 650 566 211
f 367 633 650
f 488 522 61
f 18 488 61
f 367 41 633
f 231 63 18
f 63 231 476
f 456 252 361
f 456 476 103
f 361 476 456
f 485 70 190
f 215 348 425
f 70 348 215
f 492 215 425
f 37 38 124
f 492 145 652
f 37 621 21
f 238 145 492
f 1 621 37
f 1 37 124
f 621 1 225
f 32 244 225
f 238 169 145
f 267 169 180
f 396 378 113
f 372 113 90
f 253 372 90
f 253 304 372
f 253 629 304
f 629 253 604
f 377 629 604
f 650 211 367
f 504 488 18
f 329 504 18
f 41 367 252
f 18 63 329
f 252 288 361
f 476 361 255
f 70 215 190
f 190 415 38
f 415 190 215
f 415 215 617
f 652 617 492
f 492 617 215
f 189 38 415
f 189 415 617
f 189 124 38
f 145 527 652
f 145 13 527
f 1 117 225
f 169 13 145
f 32 225 117
f 169 461 13
f 267 461 169
f 32 614 378
f 253 513 604
f 253 600 513
f 223 211 604
f 604 211 620
f 367 211 223
f 343 565 275
f 522 565 343
f 303 367 223
f 488 525 522
f 504 525 488
f 367 303 252
f 288 303 200
f 303 288 252
f 288 200 255
f 476 255 329
f 476 329 63
f 361 288 255
f 551 189 617
f 527 551 652
f 652 551 617
f 189 551 366
f 13 459 527
f 124 535 1
f 366 124 189
f 1 535 117
f 147 117 535
f 614 32 117
f 117 147 614
f 614 181 429
f 267 240 461
f 429 378 614
f 378 429 292
f 261 240 267
f 113 378 292
f 420 113 292
f 90 113 420
f 600 253 90
f 600 90 418
f 90 420 418
f 446 600 418
f 581 600 446
f 513 600 581
f 604 513 581
f 223 604 581
f 223 581 125
f 275 156 261
f 275 258 156
f 303 223 125
f 275 565 258
f 303 125 95
f 504 272 525
f 525 565 522
f 303 95 200
f 200 582 255
f 504 329 255
f 366 551 176
f 176 551 527
f 366 233 124
f 124 233 535
f 459 176 527
f 233 147 535
f 233 366 334
f 334 366 176
f 147 233 49
f 461 480 13
f 147 181 614
f 461 240 480
f 181 147 243
f 181 292 429
f 261 185 240
f 420 20 616
f 616 418 420
f 446 418 616
f 446 616 379
f 261 339 185
f 156 339 261
f 446 125 581
f 125 446 379
f 125 379 95
f 95 379 648
f 156 112 339
f 258 112 156
f 648 448 82
f 565 112 258
f 82 104 272
f 112 525 272
f 112 565 525
f 95 648 200
f 504 582 272
f 582 82 272
f 582 648 82
f 200 648 582
f 255 582 504
f 13 437 459
f 334 176 459
f 334 49 233
f 437 334 459
f 480 437 13
f 315 334 437
f 480 344 437
f 49 243 147
f 49 501 243
f 501 49 334
f 501 334 315
f 437 344 315
f 185 480 240
f 292 181 243
f 243 501 369
f 20 292 243
f 20 243 369
f 20 420 292
f 249 20 369
f 249 616 20
f 422 249 369
f 422 369 464
f 369 62 464
f 422 616 249
f 422 379 616
f 178 422 464
f 422 178 379
f 178 464 424
f 407 654 510
f 407 185 654
f 185 339 654
f 448 178 637
f 637 178 424
f 178 648 379
f 637 424 510
f 648 178 448
f 104 637 510
f 104 510 654
f 112 654 339
f 448 637 104
f 82 448 104
f 104 654 272
f 112 272 654
f 62 315 344
f 480 407 344
f 501 315 62
f 407 62 344
f 369 501 62
f 185 407 480
f 464 62 424
f 510 62 407
f 62 510 424