# https://github.com/mikedh/trimesh
v -89.04755961 -19.81695352 68.63178256
v -83.67698999 -7.83282033 58.56370695
v -78.18108940 -27.65475410 65.29126361
v -89.21769797 -13.33792522 63.04437905
v -80.46942137 -14.17097903 57.78629588
v -93.79542286 -22.85816323 66.33331044
v -92.26229031 -28.04851604 62.59610775
v -80.64921798 -17.13499315 60.80529153
v -80.99302456 -14.20432919 63.58226464
v -83.45162214 -12.64968184 68.05705551
v -82.16036671 -24.71829117 66.00839899
v -82.07725932 -11.33886614 64.36406105
v -80.82511590 -16.12617513 66.70671361
v -86.60974836 -9.94852943 56.39009650
v -84.24088162 -11.89563510 67.36648290
v -83.93741442 -20.83308126 59.94331593
v -80.88415209 -18.39374485 68.32489744
v -91.48403343 -14.42656458 60.79146672
v -80.85456458 -9.31955459 60.43554096
v -93.52644411 -15.95958380 59.89051160
v -92.46074253 -21.57522755 58.90664684
v -80.96636143 -11.64306768 61.66943677
v -80.65844345 -15.14123144 57.94692949
v -82.33096660 -28.47919678 63.09123662
v -82.83042070 -15.52760050 69.41096616
v -96.12855767 -24.28621991 64.73930910
v -82.44358176 -14.23652477 69.01479960
v -85.94886443 -12.63846364 67.08140079
v -80.69444660 -16.73341318 58.71842290
v -79.85023453 -19.05750108 63.62602302
v -77.97749476 -24.94794821 65.38276273
v -83.56273324 -11.59948613 66.84930130
v -80.69596228 -18.16932014 60.91388803
v -95.22189186 -25.11978779 64.95685763
v -81.60818548 -12.78820089 64.91802136
v -82.51610161 -18.08846469 57.65877254
v -95.62023277 -17.88105627 58.42941530
v -82.49632541 -13.69556873 68.39302344
v -85.91854081 -21.01741478 59.65639304
v -81.02028758 -28.03036020 64.31155938
v -87.19211015 -13.62531599 54.49877240
v -86.97641984 -26.00392070 65.36562572
v -78.07486902 -28.03221514 63.62187900
v -85.20475861 -26.52833324 64.58306394
v -84.32050993 -7.98274186 59.78507679
v -81.43988374 -15.41833046 67.98802901
v -93.69347696 -15.45935230 58.22280688
v -80.65948656 -13.01512569 61.16792637
v -95.81691296 -19.76950373 59.91093928
v -78.43735602 -25.02267217 66.14061646
v -91.13922567 -17.12788001 66.24007632
v -81.87678224 -20.04618206 60.33811072
v -79.78569707 -19.29067012 65.92936753
v -81.02580391 -25.68742879 61.54369151
v -79.62163942 -8.97297921 58.42014559
v -81.85632005 -20.93405627 68.81353035
v -84.34191826 -21.84207716 68.67418414
v -85.47837259 -25.89334604 65.20802419
v -83.74696397 -22.96499897 67.82461451
v -83.13183703 -24.69202580 60.86865559
v -79.09408442 -25.57014868 66.23302232
v -83.06642644 -20.88307355 69.19269791
v -91.70015873 -15.83046743 63.24648264
v -90.28263791 -14.17218215 62.57214680
v -82.10705542 -7.70269269 58.32744950
v -88.35257420 -12.19341592 62.50344787
v -94.87237711 -24.15974529 65.54250820
v -86.58066940 -15.27222539 68.74814782
v -79.77552994 -23.23780239 61.98564967
v -86.13997600 -21.56636737 59.86873669
v -79.68784604 -28.44556004 63.17104863
v -85.84255842 -19.30576597 57.71172596
v -84.28232235 -28.30343588 62.62456799
v -88.18373346 -14.22420801 66.64109518
v -95.30767528 -22.52767382 64.90156356
v -95.91835729 -23.99663635 64.91370241
v -81.77980130 -14.89274400 68.39978769
v -83.33757609 -18.78793121 58.17271178
v -81.89895541 -22.16799365 68.41351781
v -83.30233487 -9.35431252 63.54675203
v -94.70897304 -22.54579124 60.02731402
v -86.14764438 -14.41553520 54.79667481
v -86.38698819 -28.32853885 63.08902994
v -81.20956683 -17.35255557 58.36519015
v -79.76041024 -19.20064962 65.35985274
v -83.37605194 -8.23923827 61.53723793
v -92.01610559 -14.89629321 54.84895583
v -88.93351646 -11.33686838 59.53959302
v -79.65715931 -24.75245969 66.68030364
v -82.62116233 -19.07682708 59.17338914
v -85.29557596 -18.28497429 56.77916076
v -79.92049916 -9.64644260 57.06885952
v -78.91623606 -24.49864725 62.76353736
v -91.53972609 -14.34736306 54.69568794
v -95.01756005 -23.54952404 65.67661140
v -95.35310378 -24.09363122 61.23554323
v -94.33332663 -26.22540640 61.84800764
v -96.22024913 -24.10750458 61.97510041
v -94.18892893 -27.55197409 63.02797914
v -81.32462318 -10.54705203 61.95944456
v -81.75966817 -18.91393055 59.85110417
v -82.32328092 -17.27499523 69.28864966
v -96.57207968 -25.43881675 63.56361127
v -94.07165618 -17.50468156 55.82928220
v -81.21676398 -14.48576958 65.68842505
v -84.01535480 -17.79918174 70.06764429
v -86.72504428 -23.30080632 60.41605529
v -79.81312396 -19.84724147 62.63339693
v -79.51991701 -19.82498727 64.64126034
v -82.09255111 -10.39472084 63.35786745
v -90.82016166 -16.34685956 55.25817155
v -94.55962356 -19.16564524 62.77373527
v -80.02768651 -22.64928347 67.62052003
v -81.92370062 -28.40199159 63.56502289
v -84.34588844 -23.83146444 66.98456634
v -89.13575748 -19.47589339 68.55461947
v -81.04088507 -28.75381997 63.85364834
v -85.25022541 -10.94042145 65.28468456
v -80.60252570 -15.57445964 61.59537781
v -82.22298553 -22.99245279 60.80075246
v -85.83710162 -28.13164039 63.23938800
v -80.75899142 -26.31594228 65.25201823
v -94.80431276 -20.60809883 63.91990184
v -85.37312399 -27.18478977 61.57418482
v -82.74846923 -12.59230188 67.34783690
v -85.03008470 -13.38632998 54.88354988
v -80.48569732 -15.64914779 60.69847698
v -81.26188232 -17.84112492 59.31674321
v -80.48505218 -19.49258599 61.33767625
v -81.19815750 -21.80575015 68.36915297
v -80.80624413 -13.42071576 61.89901411
v -82.67993181 -10.47824512 55.94923419
v -81.27826904 -9.73653806 61.28023272
v -85.44293193 -24.27313409 66.67506884
v -94.85461376 -17.00753485 55.82930351
v -79.70628923 -20.44232341 66.99074672
v -82.17467012 -22.92658009 67.90236184
v -80.27668460 -17.33137921 64.49908307
v -91.13444099 -14.69131148 62.10770220
v -83.75951843 -10.40990524 65.34293095
v -89.14627071 -23.25870790 67.19060340
v -91.50401534 -20.44181724 58.04220476
v -91.38761605 -20.24556036 67.33313112
v -94.34201009 -19.32972347 63.60601803
v -92.36817324 -17.17801945 64.43317755
v -84.89344559 -9.23759091 62.51966950
v -93.66172272 -19.94533768 65.28750872
v -87.78376051 -21.53322620 59.66073510
v -82.97803108 -23.06774614 60.62295060
v -90.14154016 -28.46188823 63.35239714
v -83.49381263 -18.51842123 57.56336105
v -93.79512595 -16.60959019 55.47767046
v -85.33234007 -12.71788309 67.81280957
v -81.67369788 -10.52955403 62.74588243
v -83.89457845 -25.98467696 61.08904707
v -95.90203842 -18.57461701 58.62737298
v -89.66728559 -28.19420289 62.51432132
v -92.01312612 -18.64415708 66.19235260
v -80.33157736 -17.50763585 62.63975194
v -95.12470638 -19.54418524 57.48864058
v -78.78831709 -22.91755857 66.23398203
v -80.21570156 -18.08732387 66.15559357
v -81.20372107 -20.06097965 68.61669475
v -82.04973791 -8.54763998 61.33412111
v -86.76441095 -19.94539551 69.26919973
v -95.34586246 -22.30193303 64.62736117
v -95.71600590 -24.38529689 65.03725382
v -91.66902363 -25.35409916 60.98440465
v -89.91880707 -12.21078977 56.14082968
v -77.11051914 -27.21908107 64.48471320
v -95.43165322 -22.43668411 60.37950257
v -95.32868316 -18.15232349 59.69607618
v -95.60623468 -21.93279175 63.50523717
v -89.14708025 -12.65514726 61.94357303
v -93.69916252 -27.85954951 62.89073459
v -88.04071866 -27.01798808 64.76585061
v -96.00750725 -18.82653737 57.59360652
v -78.92929316 -22.42222690 63.49488103
v -93.08787339 -21.60873065 58.87902961
v -88.03174026 -19.05332244 69.11054931
v -83.01084206 -8.62183938 56.99672083
v -88.69841732 -11.37796065 55.91548514
v -81.32818895 -8.74215125 57.07450000
v -82.61070062 -8.99061592 62.56198839
v -79.57980611 -20.82974450 62.71578907
v -90.69055111 -20.99868520 67.77865141
v -80.41694944 -14.85987585 58.25816070
v -92.75378281 -14.87062897 59.03978369
v -83.60239981 -16.37782971 69.87759480
v -79.03320986 -28.81997855 63.74456475
v -87.43211932 -17.72977318 56.15590545
v -86.27449749 -9.11541636 59.65398578
v -84.75553544 -18.63553689 57.20841963
v -80.54707116 -16.46500838 60.17431130
v -78.89438792 -21.82119268 64.99477999
v -83.72623281 -10.00137544 64.71296046
v -88.30990848 -14.68711356 67.09550993
v -86.76532685 -20.80084656 59.36565174
v -78.85353121 -26.27174827 65.96460916
v -87.44978276 -24.67591532 66.47333759
v -86.17865134 -8.97276058 58.00465655
v -92.23808303 -15.46644085 61.39705003
v -84.13716965 -8.72765997 56.93443463
v -82.87010100 -27.45746452 63.86152383
v -80.96097543 -16.72790964 67.76201647
v -93.74958827 -21.26202988 58.65129267
v -95.93326647 -21.86131128 61.05447305
v -94.82325047 -18.26377465 61.05564565
v -87.13256302 -11.47276777 63.30098133
v -82.41420538 -20.78420533 69.05987340
v -95.44069265 -17.23202183 57.71411745
v -87.72129367 -11.38920487 62.23252394
v -88.55748771 -22.22502063 67.83315780
v -78.92076162 -28.09885600 63.16987542
v -92.90572512 -26.62278998 64.91042225
v -81.71433130 -15.74461875 57.11597571
v -94.09026123 -18.04882114 62.22560074
v -94.61150051 -20.70105902 64.49982620
v -80.99666248 -13.07087046 62.58991249
v -83.82186582 -8.24906017 57.44121687
v -93.16394407 -23.72850112 60.31120600
v -80.13390374 -13.71342712 58.40904841
v -91.43202782 -13.32403092 56.35488853
v -84.59771407 -17.36903141 56.29380786
v -94.04135356 -20.49952449 58.01104535
v -79.11091594 -10.24504792 58.13730466
v -80.52514122 -9.21623992 56.96820571
v -80.18865182 -18.67040949 62.27313371
v -79.25117915 -27.07421400 65.48564966
v -88.59930988 -10.75670833 57.52495267
v -95.72007106 -19.37669215 57.81885364
v -94.79446358 -22.09802298 65.37912218
v -85.06633449 -24.47310853 60.69940577
v -83.17056974 -25.36801462 61.01225171
v -96.40174012 -23.72853654 63.04165199
v -91.59088527 -26.86935462 64.97913512
v -80.37812363 -28.78037968 64.34849797
v -84.40791912 -28.13337929 62.33891494
v -90.19537957 -20.45760271 58.36294430
v -78.59695126 -28.78692891 64.22981716
v -93.72083753 -23.81057117 66.11640241
v -82.51975993 -12.06257288 66.14891614
v -82.73633797 -7.87922723 60.49501703
v -81.22976822 -23.12882720 67.71320763
v -91.40553628 -28.36150923 63.21452186
v -89.78888496 -27.78779552 64.27368653
v -96.23194305 -25.83371783 63.27218668
v -79.63986074 -20.14217467 63.12968498
v -85.17412580 -16.77125708 70.05718070
v -85.35661650 -18.11387602 70.00601657
v -82.32695367 -8.14156892 57.59315010
v -95.91640231 -20.01210830 59.36438307
v -80.94761335 -28.14040811 62.55877529
v -83.72352108 -21.21832276 69.00216319
v -96.51729693 -25.14068316 62.80950436
v -80.68455798 -17.12404208 67.12490782
v -81.07157871 -17.94173260 59.91216616
v -93.79114568 -27.32134185 62.38109629
v -94.28297057 -17.49684283 61.15619296
v -80.43629276 -16.86368950 65.55844112
v -83.43070362 -13.84811212 69.20318155
v -86.47455697 -23.87040216 67.13087221
v -78.46901289 -25.03531671 63.22057062
v -81.03607541 -17.12727975 68.13189117
v -81.07361438 -8.61296922 60.14469589
v -95.04984749 -25.48207673 61.71659862
v -82.14902088 -27.99440222 63.80653902
v -87.78942792 -22.70733782 60.18383093
v -76.97921881 -27.89987714 64.41052626
v -79.00832760 -23.32977405 62.87011167
v -95.48514387 -17.31369073 56.77276280
v -86.00134635 -8.84345199 59.02713943
v -80.94353396 -13.80876776 57.01243080
v -90.47512181 -18.08754478 56.14705686
v -85.82512765 -12.01917738 66.16732093
v -82.27859592 -11.19106561 55.85346802
v -95.79867614 -22.46421552 60.75814481
v -82.63928527 -20.12916531 60.03918562
v -90.00006053 -17.70770792 67.40023857
v -91.31861441 -28.15647104 62.49489439
v -81.84933801 -25.13465142 61.17037211
v -79.23641990 -24.84280770 62.41448328
v -80.56207603 -25.28236705 66.01000159
v -86.98824992 -13.35558614 67.04560936
v -77.64106684 -25.74451913 64.75524488
v -80.01987602 -13.04529884 59.25939599
v -90.36924412 -21.39759955 59.14988137
v -82.62337189 -17.54477353 57.13711900
v -84.05844615 -8.71968123 62.22364416
v -84.48713658 -27.84397120 62.03804355
v -87.85232387 -10.37837690 56.75133707
v -80.02358655 -12.39973889 59.61468529
v -87.46300268 -10.83252891 61.39201490
v -82.38946454 -12.66347152 66.68423602
v -81.50605659 -20.59736902 68.73051729
v -93.69965527 -19.45922431 56.99809670
v -84.95952078 -20.01107860 59.12529474
v -96.08100435 -22.59465727 61.87200629
v -88.51527205 -22.22635726 59.91385689
v -96.46649085 -24.44783836 62.43936423
v -89.97793606 -18.90477726 56.73091109
v -77.97457346 -25.50024694 65.71038814
v -95.58841310 -23.81286855 65.26370363
v -95.62254200 -19.80152607 60.58013379
v -84.35036648 -20.35069856 59.55268270
v -93.73548976 -25.70620884 65.17414560
v -80.53688482 -19.47749934 68.07817956
v -81.52650318 -18.42190012 59.63385784
v -78.29256940 -24.46299054 63.67318127
v -91.25254116 -17.70286897 66.44413636
v -89.38412032 -12.02499149 60.10914765
v -87.07586481 -17.14779103 69.19268878
v -80.02003744 -28.43484761 64.68138394
v -83.74840609 -28.14925739 63.15452977
v -90.25267415 -19.70905813 57.47192939
v -78.90267684 -22.09016162 63.92732087
v -88.40408260 -27.96516923 62.26558885
v -79.90502107 -25.83650147 62.03144126
v -80.30584603 -24.20894681 66.85752438
v -90.68411495 -28.05744646 63.96168535
v -88.20828891 -18.65766518 56.62637321
v -94.95681219 -18.33149668 56.42451922
v -93.20540359 -18.06994354 55.99608918
v -81.17990851 -12.18617768 62.70583663
v -81.78776558 -17.15474240 68.93695550
v -90.29029369 -27.99816879 62.29476653
v -95.29418082 -20.46202869 62.33419269
v -95.56945228 -21.68044295 60.05497703
v -82.70948053 -9.59180440 63.34843220
v -90.14673156 -26.72168301 65.10561619
v -81.89181293 -22.44249764 60.82669708
v -90.91438092 -16.16152585 65.55644054
v -96.64495902 -24.73165901 63.00396260
v -88.82957814 -14.46823494 66.08545185
v -94.44331201 -21.12667007 58.77610453
v -80.79891235 -14.46719474 62.63197699
v -91.85023409 -14.27113127 54.97788016
v -84.54102070 -15.66802379 55.52939350
v -86.57870319 -27.77019945 62.00928875
v -84.26650248 -13.74458461 69.04318895
v -87.16266995 -14.16588987 67.69620154
v -77.74975011 -26.07239848 63.84362893
v -79.37240709 -23.54731561 66.93058296
v -89.00256421 -15.88789746 67.31736535
v -92.20436696 -23.53305218 60.18263179
v -79.67498324 -29.00188692 64.10326455
v -78.52517192 -26.35572588 62.97486819
v -83.12442080 -11.20582211 65.86867865
v -89.27918993 -26.33388286 65.33169266
v -80.09144415 -18.61077038 62.85101142
v -81.24479166 -17.03143585 58.04655929
v -82.50402421 -22.27388811 68.35402189
v -81.86088641 -26.95446000 61.76994603
v -86.14023207 -13.31746150 54.65180416
v -77.91805258 -28.42339748 63.96218957
v -82.55043012 -16.63456409 56.79385420
v -86.32010478 -18.08572818 69.79848168
v -95.69763738 -24.98104596 61.85402098
v -82.52369552 -15.55172475 56.52390878
v -77.89032001 -28.39656012 64.38566381
v -83.35994663 -17.23743733 69.84521059
v -80.88355301 -15.28638181 65.41484221
v -84.17285036 -27.30178566 63.77404154
v -82.06489561 -11.85698575 64.95056317
v -86.21466150 -16.13241755 69.34522577
v -82.87218247 -21.23213386 60.37193712
v -92.42425027 -26.04856724 61.30533548
v -80.60661485 -11.66628199 60.80640125
v -86.91824475 -12.82507722 66.12224370
v -93.53308306 -16.71290782 61.39053340
v -96.02893160 -18.54733397 57.58015095
v -95.15574566 -20.50700717 58.54374330
v -80.91339899 -14.76300944 57.43626240
v -85.51895796 -10.54373122 64.39585877
v -88.04468899 -23.24224376 60.37127525
v -94.07119486 -22.21971691 59.53603392
v -83.41666191 -15.15291392 55.93827052
v -81.44786102 -16.75600600 57.69587389
v -80.35083495 -8.75762342 59.46798081
v -77.89700269 -27.59378610 63.57557393
v -81.90810990 -15.82619663 68.84483356
v -89.16359523 -11.93231544 55.66317817
v -86.88741317 -15.33112799 54.97824976
v -80.44374807 -18.74749700 61.45037368
v -83.50241841 -11.49541724 55.52847464
v -78.03889138 -24.59114085 64.93421062
v -90.67747530 -22.69449767 59.87789819
v -93.39217187 -20.90959514 66.15355427
v -92.71678717 -28.15443572 62.95240928
v -84.51716774 -18.53952396 70.00984081
v -87.23347781 -14.53953486 54.66709401
v -82.47975772 -7.76205937 59.90505087
v -82.41453668 -8.16854332 61.07742707
v -79.35776674 -10.13083498 58.85807852
v -88.04266375 -12.72917468 54.70878551
v -90.23992528 -20.17750945 67.97451237
v -78.04906924 -24.84674393 64.08073188
v -81.45152499 -19.60711074 60.41690337
v -81.23690530 -25.72846192 65.39310450
v -84.12088471 -15.24209413 55.56864283
v -93.11907439 -27.46364952 62.14388598
v -90.76399667 -13.77839283 54.72538283
v -92.04675874 -16.47481696 63.75779523
v -83.58447651 -20.21530137 59.72191063
v -94.63902157 -17.42343868 60.29993229
v -95.35762587 -18.48051803 56.73374967
v -79.51905668 -10.53905547 57.44893152
v -79.91125089 -20.59584044 67.48430193
v -81.51470606 -7.89340683 59.59055496
v -84.11338409 -27.77225183 63.35456423
v -80.01801885 -19.78532398 62.12048329
v -88.73770461 -15.11667936 67.02737002
v -88.70045102 -10.91386387 56.99866787
v -89.60483267 -11.79350637 59.01631942
v -96.27599753 -25.85307212 63.54482547
v -82.54915154 -27.88973596 62.22996951
v -92.93669209 -28.14270450 63.32412784
v -84.68566851 -17.25993260 70.11287058
v -92.87850081 -19.42976098 56.92868769
v -96.17341522 -23.34809202 63.80154005
v -85.36913688 -19.36738539 69.73249064
v -77.85567714 -26.93574160 63.56924245
v -94.21415477 -23.08894227 60.17926049
v -79.91028460 -20.61327822 62.14563381
v -81.65082970 -14.14193272 56.66322414
v -84.38845095 -13.19069531 68.66204879
v -91.79111660 -23.70328282 66.52763622
v -85.97729116 -17.34186707 56.08996822
v -95.79899426 -18.11534758 56.75562818
v -85.49411545 -19.73530439 58.54007508
v -91.37343065 -28.30173987 63.49750294
v -96.14085930 -25.41938107 64.26683717
v -94.87992982 -19.81732754 62.85889296
v -87.49204037 -12.68115556 65.09080069
v -91.91430958 -21.43573716 67.19376120
v -77.30295307 -26.81674188 65.34066469
v -96.03555295 -22.86588384 61.50094495
v -82.02963949 -14.21770261 68.14469007
v -77.70743698 -25.81962140 64.34701968
v -80.55720263 -16.50577496 61.15731722
v -82.10649223 -13.51189415 67.41458101
v -94.23209270 -22.73761260 66.11565346
v -81.84298136 -20.93719296 60.62581555
v -88.03817535 -11.01194654 60.74531363
v -86.33276124 -13.37045934 67.65796458
v -93.99136131 -15.99314517 58.88093138
v -88.29085435 -15.46967224 54.98652715
v -82.52532034 -25.98854682 61.23376100
v -78.53582845 -22.99744178 65.22059691
v -82.36017822 -19.36907967 69.35465504
v -83.46132788 -26.84114591 61.48380491
v -95.97366148 -19.23303496 58.70822408
v -91.01364158 -15.70344808 64.38905302
v -92.72263378 -20.40606491 66.47799778
v -89.07372601 -14.95518752 66.46285088
v -93.32449233 -27.51400936 64.04290288
v -78.82901064 -25.18379752 66.34430308
v -92.62631941 -20.56745407 58.04498971
v -81.21978085 -15.14818472 66.97797924
v -81.34207737 -20.46820993 60.74308247
v -95.91095543 -20.74267524 59.85589472
v -88.44475282 -16.92304876 55.63774956
v -79.64574838 -27.57742214 65.16969606
v -83.40632067 -19.20688419 58.80964181
v -88.79209620 -26.25206466 61.34857497
v -79.82289197 -12.39255989 58.09169171
v -84.76796843 -8.78437111 61.65106276
v -94.14737365 -27.61545654 63.42496700
v -83.04831941 -20.05230162 69.51664101
v -78.65773446 -22.90901584 65.84417609
v -93.41512607 -20.47989811 57.89175713
v -93.40957554 -22.83226299 59.80337000
v -88.83322475 -28.45071355 63.14468524
v -80.47835305 -27.68493816 64.75763942
v -79.26159357 -28.57653041 64.80159692
v -93.93577316 -18.82824955 63.74334715
v -87.87155667 -10.11200667 57.31736668
v -82.31801161 -16.29370882 69.19297456
v -79.17308990 -21.66044718 66.35363468
v -86.96739066 -25.17008078 60.91412602
v -80.64514845 -15.80599355 62.89959617
v -84.15741766 -14.00233486 55.26031728
v -78.92520869 -21.92582596 65.59801713
v -91.22118018 -13.47312216 59.50398211
v -87.04840816 -27.71722329 63.97088985
v -79.80374359 -11.81332231 57.65426305
v -91.54802889 -27.67903103 64.37116215
v -83.53981750 -14.22076331 55.64244252
v -91.34295565 -13.54448609 55.51631205
v -83.24838811 -24.88507468 65.78191804
v -95.18847451 -17.36088635 56.08439009
v -80.68495865 -28.33936695 62.83913367
v -84.59871455 -11.13965018 55.41758235
v -83.77286586 -26.71641359 64.20161176
v -92.18470006 -22.61601654 59.62673632
v -80.81631496 -10.27237106 60.80287870
v -95.74570898 -21.22026436 61.73411100
v -91.56615075 -22.09004085 67.15243221
v -83.25891882 -13.09331687 55.57788926
v -80.40534957 -27.58252211 62.39520206
v -79.44583173 -9.29141561 57.73558268
v -79.27619736 -23.40719814 62.48748461
v -83.71712046 -15.36780372 69.71802617
v -87.91733009 -12.14369440 54.97811684
v -80.06153605 -27.06828193 62.29693707
v -91.40715899 -27.01548340 61.67195026
v -94.85744120 -16.64023216 55.92101373
v -83.22737975 -12.00732587 55.53733923
v -88.94032763 -28.36963491 63.52270034
v -90.19263029 -13.38789084 61.31039842
v -92.93927182 -14.73732423 55.90357291
v -87.86196082 -13.77705775 66.49017856
v -81.06865133 -22.74298196 61.16502016
v -87.02806275 -16.71821424 55.63138693
v -90.57305473 -15.62018779 65.17083506
v -95.79550006 -17.85030343 56.68884964
v -80.35460879 -18.15379909 61.87005185
v -82.18178352 -13.99780577 56.29430687
v -77.40322406 -27.98173728 64.79910559
v -80.41290635 -15.38674975 59.83408070
v -94.28960520 -16.06774346 58.20318821
v -80.62578108 -28.87545159 63.68811659
v -83.40172769 -17.97397150 57.07108513
v -78.89208225 -23.64072784 66.59160745
v -80.16943402 -26.43966262 65.43691163
v -86.43669007 -11.65342618 64.98169424
v -81.59653594 -8.91871794 61.17597018
v -94.62355456 -19.05791809 56.84596956
v -85.45908916 -27.51300102 63.72552735
v -82.64668869 -11.29326522 65.39509957
v -78.91104871 -26.85084015 62.75843075
v -83.43838197 -22.01893434 60.40123177
v -88.91761927 -20.13790787 68.62651016
v -92.13945184 -15.77639702 62.22165844
v -93.11708037 -22.15110924 66.64867831
v -80.26366457 -20.54053201 67.90432253
v -83.81297929 -19.69654552 59.16618399
v -92.51283355 -22.39849114 66.83902525
v -93.12398221 -14.86666503 58.01503772
v -83.96240857 -9.11869992 63.12690673
v -79.82923715 -24.45488383 61.95338385
v -90.87426325 -20.88718014 58.60330312
v -84.23448765 -12.61971691 55.18863816
v -77.02880206 -27.34937908 65.06521566
v -94.03327989 -26.09320342 64.83563284
v -91.55979228 -13.32139390 57.45275441
v -81.51860578 -23.40702070 61.04006184
v -80.30536931 -17.31647115 63.40679026
v -78.16840081 -24.20783590 64.57340626
v -95.03295592 -19.33983823 61.80302053
v -86.93486691 -11.73504264 64.31914847
v -85.86887362 -10.87882805 64.53938014
v -81.28641922 -24.01510684 66.93904472
v -77.00969514 -27.86045225 64.21136196
v -83.84318563 -17.53143863 56.57672376
v -79.18068004 -25.83037283 62.48605103
v -84.15111325 -8.19070677 60.68836420
v -88.00650098 -13.32944503 65.34076537
v -79.53353192 -26.85069561 62.46351281
v -89.93589616 -27.23641431 64.72172477
v -85.84275579 -9.07270874 60.54120414
v -93.34549761 -25.09352304 60.97753762
v -93.49361024 -18.03470106 63.46972965
v -93.17628373 -15.96873619 55.24493430
v -79.92893398 -12.94857896 58.71385068
v -88.58190488 -27.57066100 64.41501815
v -91.79243062 -16.08662447 55.16642801
v -81.89830983 -27.10195048 64.36466378
v -81.65856590 -17.31553188 57.74396275
v -84.63569955 -23.09069616 67.74579227
v -78.97039822 -22.66474817 63.14373333
v -91.66273902 -27.76484304 62.12776879
v -89.55893924 -16.82301235 67.39113928
v -95.33269293 -21.15555415 59.38106893
v -84.31412664 -11.43733567 66.69691580
v -90.12043297 -14.27902660 54.59996739
v -80.50415140 -16.65183716 61.75156172
v -81.58467859 -14.37271351 67.22383731
v -80.11128798 -21.21507176 61.76358113
v -85.79638525 -11.16462293 55.33285857
v -86.16516550 -9.91940553 61.89962097
v -77.54099590 -25.94675302 65.05162065
v -80.60453877 -21.28250969 61.27715225
v -92.59589752 -17.99627000 65.23051345
v -90.55379511 -12.42699677 57.21215084
v -80.49774239 -28.72342278 63.40463857
v -91.57806977 -26.38469817 65.26673066
v -83.94742068 -10.20511476 55.89498516
v -91.47236089 -22.97652901 66.85048885
v -84.64408559 -12.20806359 67.71104187
v -84.50827186 -19.41580127 58.52217169
v -80.38598055 -14.48068933 60.20557414
v -93.23180091 -24.45695269 65.97128840
v -90.51957997 -14.78796476 54.68511617
v -94.23087135 -25.51941625 61.36358232
v -90.28088972 -25.68303889 65.78215267
v -94.77237937 -16.24988393 56.59118795
v -86.47500860 -9.67131901 60.82062009
v -89.38974349 -13.03632048 54.83730959
v -79.75227663 -22.13627055 67.53562151
v -87.38433519 -28.45869158 62.91796838
v -81.78862765 -9.44238436 61.92678975
v -80.29675103 -23.60323486 67.26255256
v -88.08587752 -20.28864741 58.66794337
v -84.68955587 -8.25897685 58.34274971
v -89.90527914 -21.52117379 67.84703861
v -93.04848414 -19.34184746 65.61471003
v -90.02297872 -28.45920769 62.94082615
v -80.67408503 -12.10114275 56.76713535
v -78.93123730 -21.79826754 64.47063551
v -81.63954621 -22.57008641 68.17978307
v -83.84382054 -11.01833514 65.96688556
v -82.19993235 -9.52518837 62.65006401
v -81.51941838 -13.71521710 65.80121639
v -86.68885749 -19.20892205 57.48021156
v -96.52310205 -24.53084963 63.76580253
v -96.43515392 -24.90762980 64.25152888
v -80.16498764 -19.13097675 67.34903423
v -85.92726564 -9.29891804 56.82774828
v -80.20900093 -9.70716032 59.85944581
v -83.02248422 -8.51058135 62.14104299
v -80.36441335 -24.18008208 61.56729946
v -80.38938146 -13.01813226 60.43449812
v -85.06444678 -11.86904680 66.83974584
v -81.33051930 -10.45774162 56.14989095
v -79.92391861 -18.61643333 64.86523511
v -79.34687367 -21.72228858 66.89386931
v -90.86439863 -12.76888608 56.71507668
v -80.20499864 -8.97285533 57.46299009
v -94.33370941 -18.64368744 62.52160833
v -91.61109684 -21.64550765 59.07094004
v -94.27877925 -19.59997650 64.05803199
v -83.36614339 -13.24822807 68.82791487
v -94.61751177 -20.29935001 58.01020986
v -89.60878268 -11.77928370 56.54995186
v -86.30582050 -10.68065151 55.60506800
v -79.42366876 -20.60048807 66.35201133
v -96.28806185 -24.19353689 64.26746443
v -79.84969882 -22.14415507 62.02575865
v -89.66335249 -14.63032340 65.05708036
v -80.28256987 -15.13174754 59.16066574
v -81.28624269 -13.52422313 64.48063771
v -89.71016125 -27.41411854 61.87950429
v -91.45096168 -16.46977910 64.97385012
v -87.32273465 -27.21455940 61.69713371
v -84.04614146 -12.49807223 68.05852683
v -83.73083514 -16.70990164 56.29633003
v -93.00919478 -18.09075872 64.60097755
v -82.18644445 -18.88776483 59.37181205
v -93.71065788 -16.00865403 55.40096202
v -91.03961851 -28.36407182 62.85633645
v -84.18121693 -20.08293594 69.56991429
v -82.75340979 -25.48098475 65.20764641
v -94.32031594 -24.00979991 60.65736857
v -92.37576698 -27.76991233 64.12774807
v -81.45367949 -12.69238437 56.36129505
v -79.09388591 -23.96364564 66.74440628
v -79.56265039 -21.70105990 67.27258924
v -81.18151207 -15.91672361 57.62666652
v -90.23558163 -16.45057222 66.57704469
v -92.10179463 -27.28648758 64.63402769
v -87.03654328 -25.24756747 66.02306710
v -86.27438446 -10.38909432 62.77486543
v -89.98071828 -11.89344830 57.99541765
v -89.56275012 -14.27822771 64.26872797
v -84.51445886 -21.43566900 60.08372146
v -81.68076196 -19.15508566 68.95440424
v -80.17068854 -11.82521506 57.20059082
v -96.36075313 -23.77398804 62.32888772
v -92.52984126 -21.17516889 66.85074428
v -95.91795700 -26.08400261 63.77620181
v -86.43859169 -12.37173422 54.73925565
v -83.19955993 -12.00715060 67.11451360
v -81.67366482 -27.36785241 64.32633809
v -81.59829826 -7.82259896 59.01546290
v -82.42687444 -23.26172467 67.56412767
v -79.82114555 -27.83102285 62.70449839
v -77.69162849 -26.73759916 65.66344946
v -94.90864375 -21.39383408 59.28658388
v -92.19117099 -14.61648356 59.85617757
v -79.67104224 -25.88939263 65.98736727
v -80.50004988 -17.57588165 61.44645862
v -86.51364359 -9.38639161 60.12398462
v -80.32553825 -21.54396728 67.92649361
v -81.55771116 -9.44089778 56.58212224
v -92.91588689 -27.90472268 63.79988770
v -82.75900677 -7.62997071 59.20256102
v -81.81106958 -17.94862895 58.35215050
v -81.93287071 -13.07746594 66.11858347
v -84.86978483 -10.02131751 55.89827213
v -90.46480247 -15.96200103 65.87636899
v -80.96105053 -8.46061783 57.64712807
v -87.75959101 -12.25819970 63.72374112
v -82.43274634 -18.22240268 69.40793986
v -93.33314650 -21.81120069 66.49900523
v -82.71726579 -19.63334161 59.70700550
v -86.13591612 -19.54398106 69.54454525
v -88.95631712 -25.32597214 61.02020195
v -93.38090624 -27.95364507 63.42604812
v -82.54778991 -28.11789868 63.49442262
v -80.60196016 -18.40781034 67.87478438
v -86.45166541 -28.16996379 62.37368345
v -95.86892607 -17.97022461 57.43532568
v -82.51805243 -27.41296723 61.93444685
v -79.39601183 -11.01663268 58.75645082
v -80.38075248 -17.41458669 62.11433774
v -80.65652365 -15.82051745 63.80657357
v -80.27438617 -14.88042383 58.82782467
v -83.94196885 -28.32279098 62.84594497
v -84.95478422 -15.74241266 69.80556370
v -77.37891969 -27.49362141 65.22408105
v -83.79914072 -25.65251833 65.04198518
v -94.46623866 -27.02320872 63.95317268
v -95.56989616 -20.30241973 58.74280556
v -86.82599371 -19.02639146 69.51985853
v -80.72126479 -17.57642207 60.49581988
v -78.44774718 -25.98184545 66.06869135
v -88.73273068 -21.04741728 59.17433276
v -79.51331725 -9.25809155 58.86469262
v -86.40138620 -25.64262866 61.01096297
v -84.05280541 -9.69816789 64.25474113
v -84.16094977 -13.11997818 55.18847979
v -91.11866220 -15.20465386 63.11850029
v -83.46497633 -28.24071048 62.55692715
v -86.60720522 -26.59652902 64.84106871
v -96.04650156 -22.48525908 62.43345215
v -92.17302901 -17.44258877 65.20238842
v -93.23693176 -27.08752482 64.50753148
v -78.43248976 -24.29620063 66.11025662
v -89.90961732 -16.92042458 55.57208269
v -84.32837197 -22.86974268 60.42628360
v -94.99597165 -20.58343783 63.45818338
v -84.41749281 -10.79528572 65.71278348
v -80.33846479 -13.25381252 57.54193241
v -78.25937340 -25.94190762 63.26051736
v -80.51177158 -25.61841751 61.71410872
v -89.03768872 -11.12349310 58.44912475
v -92.84603343 -14.77734990 55.52497619
v -84.63194146 -10.22203483 64.90182787
v -84.91435254 -14.87544574 55.17475775
v -93.43658379 -15.07125476 57.26572624
v -80.82185723 -19.86479601 60.95296223
v -95.87734313 -23.76669947 61.48108583
v -79.79331515 -23.91721773 66.96351609
v -92.06151495 -13.83686721 56.52096384
v -93.75121266 -19.09032680 64.50314907
v -81.80964857 -11.54643180 63.94932363
v -93.54684680 -17.19788352 62.12656641
v -80.86183109 -18.92800128 60.77798768
v -82.03855153 -23.97926701 60.93744080
v -95.58348151 -25.88476730 62.42246467
v -93.49802269 -15.12057183 56.44988378
v -95.86191672 -25.92162792 62.81275382
v -80.13172192 -23.22886782 61.69927082
v -93.36596748 -16.18812145 60.74078496
v -86.72570237 -19.94659585 58.50706490
v -82.36145737 -9.89547224 56.21069938
v -80.00843964 -19.09612764 66.69160666
v -89.60400187 -20.86680009 58.83441068
v -79.35762648 -28.93208516 64.48918132
v -83.31573031 -16.22749442 56.31278077
v -94.71837138 -24.18248830 60.94653410
v -80.61432023 -22.47653561 61.37763530
v -78.96164860 -22.90354501 66.60039797
v -81.43141223 -24.30549718 66.64862568
v -93.35253442 -26.27403194 61.56173929
v -84.33083224 -16.45943881 70.03243190
v -86.13499532 -21.12316365 68.88929186
v -80.69093979 -22.85583758 67.73019149
v -95.73102759 -20.47251197 59.22532641
v -82.24966027 -28.24292417 62.55618932
v -82.10150877 -12.15096768 55.96024568
v -82.03613822 -19.43884964 59.95876238
v -90.39758792 -22.10060081 59.60276204
v -80.37373799 -10.78906375 60.26923824
v -84.89411147 -24.85077535 66.09151046
v -92.39297407 -17.27844097 55.57229604
v -91.74665186 -28.16056116 63.75011932
v -94.83013334 -25.32352949 61.47948740
v -95.46471093 -26.53879980 63.12640037
v -78.99642699 -27.77003138 65.22577381
v -80.57148826 -10.06679970 56.49013502
v -81.44085494 -12.43136568 63.67198105
v -91.45309997 -16.91532215 65.75686714
v -88.57277773 -13.23142226 64.04511874
v -92.00269970 -19.35568233 56.90974442
v -78.37213168 -28.52470688 64.66254329
v -79.82007184 -12.38884923 58.94492262
v -78.26742406 -23.97807007 64.11190571
v -87.57128809 -9.91285213 57.58394533
v -82.97573783 -14.56656301 69.31438546
v -85.76511081 -27.04929521 64.18626620
v -93.47074347 -21.50666418 66.34837670
v -92.89248315 -16.37429523 62.01070142
v -90.36340487 -28.34844210 63.62719276
v -83.80080496 -23.75322535 60.62128877
v -82.70160579 -13.11536750 68.03163702
v -82.61832215 -10.49223097 64.29846253
v -82.33115144 -21.38780277 60.55883271
v -88.06658927 -15.00347939 67.55072334
v -84.99162667 -14.36647902 69.18212076
v -88.92966422 -25.68537304 65.77187251
v -89.52935565 -12.65935677 55.15354377
v -80.53297998 -14.18661608 60.89613209
v -86.13146061 -10.74805127 63.85955968
v -85.88716170 -9.05514659 57.26158417
v -93.11966983 -25.12022922 65.67610966
v -80.41910132 -18.11857574 67.19391983
v -84.00721568 -24.27806590 66.56292090
v -92.61415101 -14.27043021 57.08880093
v -85.22182079 -9.59138537 56.26156703
v -85.93026757 -11.63048263 65.51808941
v -85.95287044 -28.26712516 62.59450487
v -95.73545883 -20.56881016 60.91109591
v -95.44330457 -18.95150326 60.31084619
v -80.00162675 -10.28589410 59.69638971
v -91.17326316 -19.93219584 67.40505118
v -88.06748053 -24.08572919 66.85829767
v -77.55176880 -26.68375673 63.92388738
v -81.61230432 -15.53080416 68.42624647
v -80.59959938 -16.00770668 62.25368252
v -94.42240975 -16.78658484 59.70388182
v -89.15884811 -18.19382975 56.31097494
v -81.60512487 -26.02456797 61.47728927
v -81.32654261 -21.77380334 60.94590952
v -84.90250955 -20.75884283 69.25831858
v -95.85884619 -21.06935515 60.81843040
v -85.13782669 -8.33044188 59.28069301
v -86.61432616 -18.12597959 56.47675175
v -80.13431670 -25.72506728 65.90536313
v -90.90708857 -18.05952722 66.83418716
v -78.62768686 -23.90065793 63.26350830
v -87.89653354 -28.50915483 63.37159573
v -80.41655052 -22.56229793 67.78236726
v -79.40021045 -20.25243687 65.84514062
v -94.66744902 -26.74899019 62.48098538
v -91.11151645 -20.76241671 67.56270859
v -82.28852649 -18.37021963 58.46534756
v -86.31842221 -26.41071485 61.25526349
v -83.17116981 -10.32995351 64.87608733
v -89.01669819 -14.05324805 65.14447138
v -79.56237358 -21.73262528 62.42523474
v -80.83274008 -24.26374228 61.31696498
v -80.36569235 -8.58662000 58.11939691
v -88.19683011 -26.95106364 61.62270799
v -81.78622060 -18.36398553 59.02497287
v -87.04278900 -20.53174366 59.08082717
v -79.73783157 -10.17600342 57.12330892
v -87.31497313 -28.16472044 63.61920252
v -95.41662230 -26.28564520 64.02045552
v -81.44345667 -16.79576562 68.60732665
v -95.89230997 -21.40086932 60.43766963
v -80.91017642 -18.22914070 60.43614157
v -95.08336050 -17.39696571 59.16308090
v -94.22314731 -15.87338348 56.04343336
v -94.60477431 -22.64838036 65.77945927
v -81.76837139 -8.12968054 60.34902182
v -91.68894426 -13.78037929 59.12518394
v -84.90964732 -8.55906130 57.64105986
v -90.45249486 -15.14222146 64.50444842
v -88.88834690 -13.39994027 54.58741013
v -85.50752925 -15.76901458 55.30163691
v -92.30997818 -14.11404260 58.02380607
v -88.77277405 -13.90643654 54.48466585
v -85.02795543 -11.96002405 55.09910799
v -94.12525812 -21.45230327 65.72438218
v -95.89047612 -23.35758196 64.47211070
v -90.80556091 -12.71708168 58.02746933
v -89.36580974 -24.73025181 66.36296015
v -84.62792744 -9.47016595 63.38683036
v -95.09115238 -26.89485337 63.57588627
v -81.08479263 -19.09336509 68.54839619
v -83.72135807 -12.02915778 67.54721768
v -81.53229777 -28.62414916 63.19967302
v -85.51733796 -22.57032051 68.11374051
v -93.07835874 -18.66181749 56.33684780
v -94.44424684 -26.43423043 64.44095107
v -80.89726206 -11.32289662 56.43017831
v -91.58075561 -24.65938275 66.15429229
v -88.72359579 -21.18647098 68.31355369
v -87.55871777 -9.94202917 58.35235216
v -94.67797490 -27.17359458 63.09241849
v -85.98193890 -23.88533774 60.55034441
v -94.12132623 -20.46931240 65.06080941
v -95.51165669 -22.13935589 64.12958998
v -93.26792216 -15.34353143 55.39805448
v -83.26998414 -19.04630616 69.72199035
v -89.23374581 -28.18258418 63.84646604
v -80.32188339 -22.12911846 61.57022716
v -92.07514232 -17.90280749 65.76676945
v -87.98574152 -18.97449928 56.93781930
v -80.08695646 -10.99458774 56.94174941
v -85.60665439 -22.13058920 60.14959112
v -91.60379454 -18.37947009 56.23439192
v -88.81757775 -19.58065920 57.64391367
v -83.13682809 -9.85120396 64.14568983
v -86.24921340 -14.33500754 68.33592578
v -96.05946418 -25.18727575 62.31605803
v -96.04557995 -24.94806119 64.60438151
v -81.56129813 -11.42139965 63.13132339
v -79.03726368 -9.42696013 58.05186435
v -83.98123247 -14.50231463 69.55261410
v -78.32353889 -26.71815239 65.79629081
v -84.35926058 -27.55403242 61.79406974
v -80.30741682 -24.72007238 66.53217054
v -88.73234078 -11.86373969 61.20611736
v -80.50354282 -16.04974593 59.54006232
v -78.74531509 -25.50590817 62.82995701
v -85.50367500 -13.43963770 68.29308070
v -80.60320697 -8.35616869 58.66768382
v -94.84964870 -16.71764756 58.28189331
v -83.06173342 -9.29779650 56.44836841
v -89.80570300 -15.16352618 65.62897781
v -80.12795124 -11.64495721 59.90564351
v -80.80323499 -17.05682349 59.72163300
v -81.31668088 -18.65500360 60.14235685
v -89.80812452 -12.58752363 60.44366669
v -82.31140134 -24.06066816 66.74598582
v -86.15787368 -16.97484262 69.74354347
v -90.54256731 -15.03507504 63.99841357
v -79.25455889 -23.00352664 67.00211745
v -80.77263462 -15.42696567 64.47600923
v -84.73255749 -11.28973619 66.15168410
v -89.83188421 -19.07677415 68.01389146
v -79.38599082 -20.48266472 63.84983130
v -95.38480288 -20.07983358 61.49000979
v -92.13736979 -20.15783336 66.80786958
v -92.70986195 -17.02948060 63.36776666
v -84.99215785 -28.26639089 62.86725495
v -95.63029837 -21.64391108 62.83983955
v -84.41732613 -19.04806160 57.92558281
v -87.87170909 -16.18371270 68.28258991
v -87.98193471 -10.37543428 59.10814267
v -95.87231463 -19.70077544 58.60633101
v -88.49722550 -28.39807994 62.81874101
v -92.45959847 -27.03372145 61.73834931
v -94.60837241 -16.14838554 57.29743101
v -81.73368371 -28.51482804 62.97355837
f 685 227 782
f 782 227 92
f 912 181 685
f 685 181 183
f 685 183 227
f 183 692 227
f 181 251 183
f 183 251 692
f 625 685 782
f 132 757 625
f 625 757 685
f 588 912 757
f 782 92 848
f 477 291 413
f 912 685 757
f 629 92 227
f 92 629 501
f 203 181 912
f 203 220 181
f 629 227 692
f 181 220 251
f 251 65 692
f 385 132 276
f 276 132 625
f 625 782 878
f 182 169 635
f 132 588 757
f 635 291 182
f 635 585 413
f 635 413 291
f 690 912 588
f 782 848 892
f 664 413 585
f 413 664 230
f 811 912 690
f 413 230 477
f 619 291 477
f 291 619 14
f 811 203 912
f 811 619 203
f 14 619 811
f 619 806 203
f 230 664 737
f 230 737 790
f 230 790 477
f 619 790 806
f 619 477 790
f 692 844 629
f 203 859 220
f 790 737 881
f 790 201 806
f 806 859 203
f 881 201 790
f 806 201 859
f 881 737 933
f 859 201 605
f 859 605 220
f 251 2 65
f 251 220 2
f 881 933 272
f 881 272 201
f 201 272 605
f 605 2 220
f 272 828 605
f 2 605 828
f 493 132 385
f 276 508 385
f 772 625 878
f 493 588 132
f 628 635 169
f 169 182 382
f 182 14 636
f 628 585 635
f 182 291 14
f 690 636 811
f 892 878 782
f 636 14 811
f 585 868 664
f 848 501 901
f 92 501 848
f 629 844 501
f 844 55 501
f 414 737 664
f 55 844 910
f 844 692 65
f 737 414 88
f 65 910 844
f 737 88 933
f 272 933 192
f 828 272 192
f 65 2 687
f 45 2 828
f 2 45 687
f 543 865 385
f 543 508 722
f 543 385 508
f 382 636 504
f 865 493 385
f 772 508 276
f 772 276 625
f 546 223 745
f 489 169 382
f 382 182 636
f 580 588 493
f 223 546 628
f 223 628 169
f 580 636 690
f 580 690 588
f 609 878 892
f 546 585 628
f 546 868 585
f 546 863 868
f 892 848 407
f 848 901 407
f 863 858 868
f 858 414 868
f 414 664 868
f 901 501 55
f 858 484 414
f 55 719 901
f 65 675 910
f 675 65 687
f 55 910 379
f 55 379 719
f 88 444 933
f 683 192 933
f 444 683 933
f 45 557 687
f 687 557 392
f 354 865 126
f 354 672 865
f 126 865 543
f 722 126 543
f 672 504 580
f 672 580 865
f 508 499 722
f 803 382 504
f 504 636 580
f 865 580 493
f 803 489 382
f 810 745 752
f 489 223 169
f 878 656 772
f 656 878 609
f 810 546 745
f 863 546 810
f 668 609 892
f 407 668 892
f 407 486 668
f 407 226 486
f 901 226 407
f 719 394 901
f 484 311 414
f 484 917 311
f 311 88 414
f 675 409 910
f 311 444 88
f 409 379 910
f 409 675 687
f 409 687 392
f 379 857 265
f 379 409 857
f 409 392 857
f 561 828 192
f 561 192 683
f 243 392 557
f 857 392 243
f 828 561 45
f 45 561 557
f 598 561 683
f 557 86 243
f 243 86 393
f 243 393 857
f 861 41 864
f 861 395 41
f 41 672 354
f 41 395 672
f 599 395 861
f 599 504 395
f 672 395 504
f 402 803 599
f 722 499 482
f 803 402 489
f 599 803 504
f 508 772 499
f 499 772 656
f 597 937 741
f 597 741 752
f 752 745 511
f 511 745 489
f 489 745 223
f 741 863 810
f 741 810 752
f 609 273 656
f 539 741 937
f 741 539 863
f 668 273 609
f 47 188 539
f 188 863 539
f 188 858 863
f 188 680 858
f 394 226 901
f 680 484 858
f 620 719 379
f 19 620 379
f 906 311 917
f 19 379 265
f 311 906 444
f 527 19 265
f 527 265 857
f 164 527 857
f 598 683 444
f 393 164 857
f 557 561 467
f 557 467 86
f 391 864 41
f 82 41 354
f 391 41 82
f 82 354 126
f 402 576 94
f 861 864 402
f 864 576 402
f 94 337 402
f 861 402 599
f 482 126 722
f 738 489 337
f 482 499 488
f 337 489 402
f 656 488 499
f 511 489 738
f 425 518 656
f 425 656 273
f 937 47 539
f 937 521 47
f 521 446 47
f 446 188 47
f 226 466 486
f 446 20 188
f 20 680 188
f 680 18 484
f 484 18 510
f 816 719 620
f 394 719 816
f 484 510 917
f 917 174 906
f 293 444 906
f 293 598 444
f 906 212 293
f 581 598 293
f 467 289 86
f 86 621 393
f 598 581 561
f 86 289 621
f 576 594 94
f 864 594 576
f 391 594 864
f 94 87 886
f 87 94 594
f 447 594 391
f 886 337 94
f 886 738 337
f 855 886 507
f 886 511 738
f 488 656 518
f 886 855 511
f 507 597 855
f 855 597 752
f 855 752 511
f 271 937 597
f 937 911 521
f 734 273 668
f 486 734 668
f 486 466 734
f 446 521 911
f 705 226 394
f 20 755 680
f 680 202 18
f 139 18 202
f 18 139 510
f 174 917 510
f 174 510 64
f 19 527 133
f 174 66 906
f 906 66 212
f 164 393 621
f 293 212 663
f 663 581 293
f 467 561 581
f 621 184 164
f 581 146 467
f 467 146 289
f 212 209 663
f 581 663 146
f 663 805 146
f 146 870 540
f 146 540 289
f 289 540 621
f 383 391 82
f 82 126 740
f 126 482 740
f 564 886 87
f 391 383 447
f 507 650 135
f 886 650 507
f 650 886 564
f 564 87 567
f 567 87 594
f 567 594 111
f 518 377 488
f 597 507 271
f 211 937 271
f 211 911 937
f 822 446 911
f 822 20 446
f 755 202 680
f 64 510 139
f 496 620 19
f 19 133 496
f 4 64 665
f 4 174 64
f 164 602 527
f 4 66 174
f 4 693 66
f 209 212 66
f 693 209 66
f 209 805 663
f 80 621 540
f 80 184 621
f 551 209 693
f 805 374 146
f 146 374 870
f 209 551 805
f 805 551 552
f 80 540 721
f 540 870 721
f 82 740 862
f 383 82 862
f 650 152 135
f 564 152 650
f 447 111 594
f 400 482 488
f 567 152 564
f 488 377 400
f 507 135 491
f 777 152 567
f 271 507 491
f 211 271 703
f 373 273 734
f 854 911 211
f 854 822 911
f 822 755 20
f 794 202 755
f 816 914 394
f 775 914 816
f 534 139 202
f 775 816 620
f 496 775 620
f 139 534 723
f 723 64 139
f 665 64 723
f 723 920 665
f 527 602 133
f 860 665 920
f 613 602 184
f 602 164 184
f 785 4 665
f 785 693 4
f 613 154 602
f 329 184 80
f 184 329 613
f 693 785 551
f 552 374 805
f 434 551 785
f 551 526 552
f 870 374 739
f 721 870 739
f 400 740 482
f 447 730 111
f 152 104 135
f 152 777 104
f 271 491 516
f 491 429 516
f 516 703 271
f 703 37 211
f 5 373 734
f 211 37 854
f 405 822 854
f 565 466 226
f 705 565 226
f 370 755 822
f 914 705 394
f 370 794 755
f 794 534 202
f 63 534 794
f 63 723 534
f 496 133 100
f 63 920 723
f 453 920 63
f 100 133 602
f 602 154 100
f 860 640 665
f 665 640 841
f 841 785 665
f 110 613 329
f 110 154 613
f 434 785 841
f 841 558 434
f 896 329 80
f 526 551 434
f 721 196 80
f 196 896 80
f 118 374 552
f 739 374 118
f 196 721 739
f 196 840 896
f 552 526 812
f 812 118 552
f 338 862 740
f 338 740 400
f 514 447 383
f 462 730 447
f 518 359 377
f 135 104 491
f 323 104 777
f 406 491 322
f 322 491 104
f 359 518 425
f 216 359 425
f 273 216 425
f 703 156 37
f 156 172 37
f 37 172 854
f 5 734 466
f 172 405 854
f 565 705 788
f 370 822 405
f 259 370 405
f 705 914 292
f 748 370 259
f 368 914 775
f 794 370 748
f 496 368 775
f 403 63 794
f 403 453 63
f 100 22 496
f 453 860 920
f 798 110 329
f 841 512 558
f 896 798 329
f 369 434 558
f 369 526 434
f 739 140 196
f 140 840 196
f 526 369 812
f 118 733 739
f 739 733 140
f 862 514 383
f 567 111 777
f 377 359 761
f 761 359 356
f 491 406 429
f 322 104 323
f 516 429 371
f 216 356 359
f 371 703 516
f 373 216 273
f 703 371 156
f 815 172 156
f 466 222 5
f 292 788 705
f 208 259 405
f 22 368 496
f 794 748 928
f 515 860 453
f 154 900 100
f 110 900 154
f 110 747 900
f 515 640 860
f 110 12 747
f 798 12 110
f 913 640 515
f 913 841 640
f 334 512 841
f 840 798 896
f 369 558 512
f 275 812 369
f 812 275 118
f 140 733 612
f 118 275 923
f 118 923 733
f 733 923 612
f 761 338 400
f 514 462 447
f 377 761 400
f 730 777 111
f 177 371 429
f 659 216 373
f 452 371 177
f 156 371 452
f 466 565 222
f 208 405 172
f 788 292 286
f 623 592 292
f 623 292 914
f 623 914 368
f 928 403 794
f 100 324 22
f 644 453 403
f 515 453 644
f 644 332 515
f 332 691 913
f 515 332 913
f 691 455 913
f 913 334 841
f 455 334 913
f 530 12 798
f 840 530 798
f 334 74 512
f 348 840 140
f 284 369 512
f 28 275 369
f 612 348 140
f 369 284 28
f 923 575 612
f 275 624 923
f 275 28 624
f 923 624 575
f 224 862 338
f 338 647 224
f 338 761 647
f 429 231 177
f 406 231 429
f 177 934 452
f 252 452 934
f 23 373 5
f 187 23 5
f 5 222 187
f 156 49 815
f 156 452 49
f 208 172 815
f 286 565 788
f 592 286 292
f 217 748 259
f 217 259 208
f 22 48 368
f 22 324 131
f 928 145 403
f 145 644 403
f 100 900 324
f 747 783 900
f 364 747 12
f 530 364 12
f 455 74 334
f 348 530 840
f 512 74 284
f 428 514 862
f 647 761 356
f 528 406 322
f 160 406 528
f 378 356 216
f 216 659 378
f 231 406 160
f 934 177 231
f 49 452 252
f 187 222 708
f 222 565 708
f 708 565 286
f 630 217 208
f 48 804 623
f 48 623 368
f 563 748 217
f 563 928 748
f 563 145 928
f 324 219 131
f 145 727 644
f 332 644 727
f 783 324 900
f 332 784 691
f 412 455 691
f 412 197 455
f 74 455 197
f 284 74 197
f 284 197 445
f 348 612 32
f 153 28 284
f 153 590 28
f 590 624 28
f 624 590 15
f 624 15 575
f 555 224 647
f 730 274 777
f 191 462 514
f 323 777 894
f 876 528 323
f 322 323 528
f 231 160 372
f 714 934 231
f 23 659 373
f 815 49 304
f 592 520 286
f 208 815 550
f 630 208 550
f 623 804 592
f 630 563 217
f 476 563 630
f 22 131 48
f 648 145 563
f 648 727 145
f 783 9 324
f 784 332 727
f 747 642 783
f 784 660 691
f 35 747 364
f 660 412 691
f 445 153 284
f 575 32 612
f 575 873 32
f 15 873 575
f 224 428 862
f 777 274 894
f 191 514 428
f 288 555 647
f 288 647 356
f 876 296 528
f 378 659 351
f 372 714 231
f 659 23 351
f 714 770 934
f 770 252 934
f 23 187 29
f 29 187 708
f 304 49 814
f 641 708 286
f 815 304 926
f 815 926 550
f 550 112 630
f 131 804 48
f 476 630 112
f 112 144 476
f 219 336 131
f 648 584 727
f 9 219 324
f 783 642 9
f 747 35 642
f 660 784 51
f 530 242 364
f 673 348 32
f 530 348 242
f 242 348 673
f 445 197 341
f 15 590 646
f 823 274 730
f 823 730 462
f 191 823 462
f 829 191 428
f 829 428 91
f 91 428 224
f 894 876 323
f 288 356 569
f 569 356 378
f 634 160 528
f 372 160 634
f 461 252 770
f 351 23 29
f 461 49 252
f 827 814 49
f 520 641 286
f 304 814 926
f 127 520 592
f 131 119 804
f 476 648 563
f 746 648 476
f 219 9 336
f 584 890 727
f 727 890 784
f 364 689 35
f 364 242 689
f 412 660 344
f 800 197 412
f 153 445 909
f 15 646 873
f 153 426 590
f 224 555 91
f 321 823 191
f 321 191 829
f 555 288 523
f 321 829 891
f 891 829 91
f 528 296 634
f 574 714 372
f 770 714 574
f 770 574 328
f 29 708 641
f 49 461 827
f 461 852 827
f 327 550 926
f 804 127 592
f 327 433 550
f 550 433 112
f 144 112 433
f 632 476 144
f 9 481 336
f 648 746 584
f 784 890 51
f 689 614 35
f 344 800 412
f 800 341 197
f 32 873 673
f 341 897 445
f 897 909 445
f 590 426 646
f 274 301 894
f 274 823 301
f 301 823 321
f 555 523 91
f 786 894 301
f 91 193 891
f 876 894 786
f 615 891 193
f 193 91 523
f 296 876 419
f 419 876 786
f 574 372 679
f 461 770 328
f 907 641 520
f 497 926 814
f 194 520 127
f 433 327 732
f 732 144 433
f 336 119 131
f 336 821 119
f 481 821 336
f 9 707 481
f 890 310 51
f 573 344 660
f 242 294 689
f 673 294 242
f 10 797 673
f 673 873 10
f 873 646 10
f 426 633 646
f 193 72 615
f 151 193 523
f 151 523 36
f 419 225 296
f 931 72 193
f 634 296 225
f 471 225 419
f 335 372 634
f 679 372 335
f 351 29 84
f 852 461 328
f 641 907 29
f 827 852 207
f 194 907 520
f 207 497 827
f 814 827 497
f 119 127 804
f 123 144 732
f 123 632 144
f 476 632 746
f 584 607 890
f 642 922 9
f 105 642 35
f 614 105 35
f 51 310 660
f 310 573 660
f 932 800 344
f 673 125 294
f 68 897 800
f 800 897 341
f 673 797 125
f 321 891 301
f 315 301 891
f 615 895 891
f 786 458 419
f 786 301 315
f 288 36 523
f 151 931 193
f 471 419 458
f 569 36 288
f 84 36 569
f 335 634 225
f 351 84 569
f 351 569 378
f 128 84 29
f 171 328 574
f 171 574 679
f 907 915 29
f 277 207 852
f 277 852 328
f 194 915 907
f 207 298 497
f 127 440 194
f 497 327 926
f 930 327 497
f 119 440 127
f 327 930 173
f 327 173 732
f 9 922 707
f 831 573 310
f 344 573 932
f 294 441 689
f 932 68 800
f 125 441 294
f 426 340 633
f 891 895 315
f 786 142 458
f 315 142 786
f 239 142 315
f 591 72 931
f 151 78 931
f 151 36 78
f 36 84 688
f 206 335 225
f 206 225 471
f 206 471 458
f 90 78 838
f 838 78 36
f 838 36 688
f 81 679 335
f 376 81 335
f 376 335 206
f 128 688 84
f 915 128 29
f 277 328 171
f 207 277 437
f 437 298 207
f 440 8 194
f 930 497 726
f 440 119 577
f 821 577 119
f 481 159 821
f 218 632 123
f 632 218 746
f 707 548 481
f 147 584 746
f 584 147 607
f 642 362 922
f 890 158 310
f 105 362 642
f 831 279 573
f 125 797 441
f 10 633 797
f 909 426 153
f 633 10 646
f 615 604 895
f 756 604 615
f 72 756 615
f 458 179 206
f 179 458 21
f 21 458 142
f 142 542 21
f 239 315 895
f 430 72 591
f 78 464 931
f 72 430 756
f 591 931 464
f 90 464 78
f 688 846 838
f 430 591 537
f 591 464 537
f 128 846 688
f 649 90 838
f 649 838 846
f 915 257 128
f 915 716 257
f 194 716 915
f 8 716 194
f 298 726 497
f 8 440 682
f 682 440 577
f 481 548 159
f 746 884 147
f 890 607 158
f 158 831 310
f 578 614 689
f 689 441 578
f 68 801 897
f 801 909 897
f 909 801 426
f 633 340 261
f 142 239 542
f 206 179 376
f 239 895 604
f 631 21 542
f 542 239 759
f 430 297 756
f 472 376 179
f 847 604 756
f 297 430 537
f 81 171 679
f 537 464 90
f 649 308 101
f 846 308 649
f 257 308 128
f 128 308 846
f 743 277 171
f 257 916 308
f 716 853 257
f 257 853 916
f 577 706 682
f 821 706 577
f 159 706 821
f 454 831 158
f 38 441 797
f 633 38 797
f 633 27 38
f 426 801 340
f 27 633 261
f 542 287 631
f 759 287 542
f 759 718 287
f 604 759 239
f 604 718 759
f 718 604 847
f 297 847 756
f 198 847 297
f 305 297 404
f 404 297 537
f 404 537 696
f 90 696 537
f 696 90 649
f 96 743 171
f 101 773 649
f 916 101 308
f 277 743 437
f 853 749 916
f 749 853 33
f 716 33 853
f 8 33 716
f 682 33 8
f 682 384 33
f 706 517 682
f 173 885 732
f 123 732 885
f 578 459 614
f 573 924 932
f 68 932 312
f 578 441 438
f 38 438 441
f 438 38 27
f 438 27 77
f 340 801 902
f 261 340 902
f 902 791 261
f 261 791 27
f 21 472 179
f 21 495 472
f 21 631 495
f 287 774 631
f 81 762 171
f 81 654 762
f 654 81 423
f 423 81 376
f 198 718 847
f 297 305 198
f 649 773 696
f 398 773 101
f 916 398 101
f 98 437 743
f 33 384 749
f 517 384 682
f 123 885 218
f 707 138 548
f 218 884 746
f 454 927 831
f 614 459 105
f 573 279 924
f 924 312 932
f 578 438 77
f 27 820 77
f 27 791 25
f 631 387 495
f 774 387 631
f 345 495 387
f 774 287 718
f 762 96 171
f 696 773 278
f 52 278 773
f 52 773 398
f 398 916 749
f 669 298 437
f 669 437 98
f 749 384 129
f 726 298 669
f 517 228 384
f 517 706 228
f 159 228 706
f 922 138 707
f 922 260 138
f 831 927 817
f 459 362 105
f 831 817 279
f 279 817 924
f 365 68 312
f 578 46 459
f 77 46 578
f 365 801 68
f 791 902 503
f 423 376 472
f 718 148 774
f 198 148 718
f 148 198 39
f 305 39 198
f 404 16 305
f 696 278 404
f 398 749 742
f 228 411 384
f 159 350 228
f 548 350 159
f 607 388 158
f 158 388 454
f 13 362 459
f 205 459 46
f 77 820 46
f 820 27 381
f 710 902 801
f 221 423 472
f 345 472 495
f 299 387 774
f 774 148 299
f 70 148 39
f 16 39 305
f 70 39 16
f 666 70 16
f 278 16 404
f 366 16 278
f 129 742 749
f 726 669 235
f 726 235 930
f 173 420 885
f 885 166 218
f 218 166 75
f 75 884 218
f 884 866 147
f 147 866 607
f 866 388 607
f 260 922 362
f 13 459 205
f 46 820 205
f 381 851 820
f 365 710 801
f 710 767 902
f 767 503 902
f 791 503 189
f 221 654 423
f 345 221 472
f 375 387 299
f 148 70 299
f 358 743 96
f 893 299 70
f 98 743 898
f 743 358 898
f 443 278 52
f 460 52 398
f 460 443 52
f 398 742 460
f 300 669 98
f 930 235 420
f 420 173 930
f 548 30 350
f 13 260 362
f 205 256 13
f 820 264 205
f 27 478 381
f 365 919 710
f 791 189 25
f 919 249 710
f 375 345 387
f 375 299 268
f 366 666 16
f 366 278 443
f 898 300 98
f 300 333 669
f 669 333 235
f 350 108 228
f 30 108 350
f 75 232 884
f 884 232 866
f 820 851 264
f 312 919 365
f 25 478 27
f 189 503 767
f 762 779 96
f 168 562 221
f 345 168 221
f 96 779 266
f 358 96 266
f 268 299 893
f 70 666 893
f 532 666 366
f 799 366 443
f 898 255 300
f 333 300 255
f 384 411 129
f 411 228 108
f 867 885 420
f 885 867 166
f 75 166 867
f 138 30 548
f 793 388 866
f 793 454 388
f 793 927 454
f 670 927 793
f 927 670 143
f 13 162 260
f 143 817 927
f 116 924 817
f 924 116 312
f 180 919 312
f 478 325 381
f 851 381 325
f 180 357 919
f 357 249 919
f 710 249 767
f 654 595 762
f 562 654 221
f 595 779 762
f 460 825 443
f 420 235 616
f 638 867 420
f 75 867 76
f 76 303 75
f 303 232 75
f 138 626 30
f 856 232 303
f 856 866 232
f 260 626 138
f 442 856 95
f 856 793 866
f 856 442 793
f 793 442 695
f 535 442 6
f 535 695 442
f 695 670 793
f 695 535 435
f 695 435 670
f 538 435 535
f 670 435 837
f 670 837 143
f 837 435 186
f 396 817 143
f 837 396 143
f 116 817 396
f 256 162 13
f 837 186 396
f 533 396 186
f 396 1 116
f 533 1 396
f 205 808 256
f 116 180 312
f 1 180 116
f 264 851 17
f 533 180 1
f 180 715 357
f 25 189 361
f 357 250 249
f 249 250 418
f 767 249 418
f 654 562 595
f 751 358 266
f 107 375 268
f 893 107 268
f 532 893 666
f 358 751 898
f 799 532 366
f 825 799 443
f 583 460 742
f 583 825 460
f 898 753 255
f 898 751 753
f 255 103 333
f 616 235 333
f 638 420 616
f 30 248 108
f 26 76 867
f 95 856 303
f 442 95 6
f 260 162 626
f 6 241 538
f 535 6 538
f 435 538 498
f 435 498 186
f 256 808 162
f 186 606 533
f 880 533 606
f 205 701 808
f 264 701 205
f 264 17 701
f 533 880 165
f 325 17 851
f 533 165 715
f 697 715 165
f 715 180 533
f 102 325 478
f 102 478 25
f 102 25 361
f 697 357 715
f 357 697 250
f 779 595 97
f 595 562 766
f 97 266 779
f 168 345 375
f 731 107 893
f 731 893 532
f 331 532 799
f 825 331 799
f 255 247 103
f 411 424 129
f 103 616 333
f 616 617 638
f 638 617 26
f 30 925 248
f 26 867 638
f 30 109 925
f 26 167 76
f 626 109 30
f 303 76 167
f 303 167 67
f 67 95 303
f 67 241 95
f 95 241 6
f 162 85 626
f 538 241 589
f 538 589 498
f 498 606 186
f 880 606 213
f 162 808 758
f 701 618 808
f 250 697 421
f 421 390 250
f 390 418 250
f 361 189 106
f 767 418 106
f 767 106 189
f 562 168 367
f 766 562 367
f 698 375 107
f 731 883 107
f 836 751 266
f 836 266 97
f 149 731 532
f 583 742 579
f 129 579 742
f 753 247 255
f 617 616 103
f 925 178 248
f 26 617 899
f 26 899 167
f 85 109 626
f 427 589 241
f 162 53 85
f 498 589 606
f 589 213 606
f 880 768 165
f 325 102 667
f 102 361 694
f 106 418 390
f 97 595 401
f 766 401 595
f 375 698 168
f 796 883 731
f 796 233 883
f 796 731 149
f 120 149 532
f 331 120 532
f 513 331 825
f 780 247 753
f 424 579 129
f 247 415 103
f 415 432 103
f 248 185 108
f 103 432 617
f 617 432 899
f 899 34 167
f 593 241 67
f 141 589 427
f 141 213 589
f 808 618 758
f 768 697 165
f 667 102 694
f 652 390 421
f 106 887 361
f 367 936 766
f 763 513 825
f 763 825 583
f 751 780 753
f 780 415 247
f 108 424 411
f 108 185 424
f 671 432 415
f 248 178 185
f 34 899 432
f 925 316 178
f 925 610 316
f 109 610 925
f 167 34 67
f 593 427 241
f 162 758 53
f 213 768 880
f 17 307 701
f 697 768 826
f 325 872 17
f 826 421 697
f 667 694 450
f 694 361 450
f 367 168 465
f 258 836 97
f 480 698 107
f 883 480 107
f 480 883 233
f 780 751 882
f 751 836 882
f 850 432 671
f 34 593 67
f 34 807 593
f 17 872 307
f 325 667 872
f 652 421 826
f 936 401 766
f 506 936 367
f 465 506 367
f 401 258 97
f 465 168 698
f 720 480 233
f 796 60 233
f 99 836 258
f 331 547 120
f 513 547 331
f 583 889 763
f 871 415 780
f 671 415 871
f 185 842 424
f 877 432 850
f 34 432 545
f 34 306 807
f 879 427 593
f 53 835 85
f 758 835 53
f 408 701 307
f 408 618 701
f 390 887 106
f 652 887 390
f 450 361 887
f 465 698 480
f 258 175 99
f 583 579 889
f 889 579 639
f 836 99 882
f 424 842 579
f 871 850 671
f 871 713 850
f 850 713 877
f 545 432 877
f 545 306 34
f 109 195 610
f 109 835 195
f 85 835 109
f 807 879 593
f 879 869 427
f 758 637 835
f 141 875 213
f 618 637 758
f 618 136 637
f 408 136 618
f 408 307 536
f 469 887 652
f 720 465 480
f 234 720 233
f 750 60 796
f 750 796 149
f 750 149 120
f 843 547 513
f 622 513 763
f 754 763 889
f 69 889 639
f 69 754 889
f 579 842 639
f 882 468 780
f 99 468 882
f 871 780 468
f 869 141 427
f 307 872 536
f 57 826 768
f 826 254 652
f 450 887 469
f 936 572 401
f 936 506 572
f 401 175 258
f 643 506 465
f 120 547 750
f 845 465 720
f 155 720 234
f 622 843 513
f 754 622 763
f 468 713 871
f 185 178 571
f 728 877 713
f 545 877 728
f 215 807 306
f 215 587 807
f 875 768 213
f 875 57 768
f 163 684 872
f 536 872 684
f 57 254 826
f 667 295 163
f 667 163 872
f 667 450 295
f 643 572 506
f 7 401 572
f 60 234 233
f 281 60 750
f 845 643 465
f 839 845 720
f 155 839 720
f 547 843 750
f 728 215 545
f 545 215 306
f 807 587 596
f 879 807 596
f 835 483 195
f 596 869 879
f 637 483 835
f 869 818 141
f 637 479 483
f 262 875 141
f 136 479 637
f 62 652 254
f 56 450 210
f 295 450 56
f 652 62 469
f 450 469 210
f 175 401 7
f 839 645 845
f 99 175 468
f 175 699 468
f 185 571 842
f 468 456 713
f 316 789 178
f 610 789 316
f 200 818 869
f 262 141 818
f 136 627 479
f 408 627 136
f 408 658 627
f 469 62 210
f 280 7 572
f 54 750 843
f 54 281 750
f 389 175 7
f 326 572 643
f 155 234 448
f 502 69 639
f 842 502 639
f 270 502 842
f 571 270 842
f 178 832 571
f 178 309 832
f 178 789 309
f 215 236 587
f 610 549 789
f 195 549 610
f 479 470 483
f 658 408 536
f 295 684 163
f 281 234 60
f 541 622 754
f 124 645 839
f 754 69 541
f 175 389 417
f 417 699 175
f 686 468 699
f 686 456 468
f 832 270 571
f 713 456 728
f 479 161 470
f 479 627 161
f 570 875 262
f 570 57 875
f 62 79 210
f 736 54 843
f 280 651 7
f 572 326 280
f 843 622 736
f 7 651 389
f 280 326 157
f 643 645 326
f 845 645 643
f 69 282 541
f 69 502 282
f 157 326 645
f 686 655 456
f 655 728 456
f 661 728 655
f 661 215 728
f 215 661 236
f 802 869 596
f 869 802 200
f 483 449 195
f 483 470 449
f 200 262 818
f 536 600 658
f 570 59 57
f 56 130 295
f 318 736 622
f 839 155 451
f 541 318 622
f 124 839 451
f 502 93 282
f 389 245 417
f 651 245 389
f 157 651 280
f 645 124 339
f 270 93 502
f 431 417 245
f 317 157 645
f 317 645 339
f 832 93 270
f 699 417 686
f 686 417 778
f 417 431 778
f 655 686 778
f 661 655 487
f 236 661 560
f 236 560 330
f 236 330 587
f 330 596 587
f 349 802 596
f 330 349 596
f 662 200 802
f 134 262 200
f 536 684 600
f 295 130 684
f 352 254 57
f 352 62 254
f 352 79 62
f 54 824 281
f 824 448 234
f 234 281 824
f 556 541 282
f 832 263 93
f 245 651 608
f 832 309 263
f 320 655 778
f 487 655 320
f 246 487 320
f 342 309 397
f 789 397 309
f 487 560 661
f 560 487 246
f 449 549 195
f 134 115 262
f 115 570 262
f 684 130 834
f 59 352 57
f 210 79 56
f 155 448 353
f 353 451 155
f 559 736 318
f 318 541 556
f 282 908 556
f 282 93 908
f 908 263 735
f 93 263 908
f 157 608 651
f 608 150 245
f 245 150 431
f 608 473 150
f 608 157 935
f 320 778 431
f 795 431 150
f 320 431 795
f 309 342 263
f 888 320 795
f 397 439 342
f 789 549 397
f 397 549 439
f 349 330 560
f 349 560 176
f 176 42 349
f 349 42 802
f 802 42 662
f 776 200 662
f 200 776 134
f 627 764 161
f 658 764 627
f 658 921 764
f 59 570 115
f 658 600 921
f 834 113 684
f 684 113 600
f 611 79 352
f 130 79 611
f 79 130 56
f 500 353 448
f 500 448 824
f 505 824 54
f 505 500 824
f 736 505 54
f 559 505 736
f 531 318 556
f 347 556 908
f 347 531 556
f 735 347 908
f 935 157 317
f 317 702 935
f 339 702 317
f 473 608 935
f 150 509 795
f 795 509 888
f 246 320 888
f 246 888 566
f 246 566 560
f 566 176 560
f 176 725 42
f 439 549 386
f 449 386 549
f 449 470 386
f 809 134 776
f 809 115 134
f 676 137 352
f 676 352 59
f 834 130 769
f 130 611 769
f 352 137 611
f 704 124 451
f 531 559 318
f 904 339 124
f 509 150 473
f 473 833 509
f 833 473 935
f 935 601 833
f 888 509 833
f 849 888 833
f 566 888 849
f 42 725 58
f 470 31 386
f 42 58 662
f 58 776 662
f 470 161 729
f 809 676 115
f 676 59 115
f 904 124 704
f 290 339 904
f 263 342 819
f 735 263 819
f 702 601 935
f 702 339 290
f 813 601 702
f 83 833 601
f 485 566 849
f 725 176 566
f 386 285 439
f 386 31 285
f 44 58 725
f 470 729 31
f 776 490 809
f 764 729 161
f 809 918 676
f 764 921 524
f 553 137 676
f 244 611 137
f 244 769 611
f 353 704 451
f 500 505 677
f 559 677 505
f 422 347 735
f 819 422 735
f 83 601 813
f 342 439 819
f 849 833 83
f 285 170 439
f 31 582 285
f 44 725 792
f 792 725 566
f 776 58 490
f 809 490 918
f 676 918 553
f 113 921 600
f 137 553 244
f 353 253 704
f 353 500 253
f 380 347 422
f 380 531 347
f 416 904 704
f 416 290 904
f 554 819 170
f 121 849 83
f 439 170 819
f 849 121 529
f 849 529 485
f 285 582 170
f 792 566 485
f 792 485 529
f 44 712 58
f 712 490 58
f 764 524 729
f 11 918 490
f 11 765 918
f 921 657 524
f 918 765 553
f 921 343 657
f 244 553 319
f 603 244 319
f 113 343 921
f 603 769 244
f 113 834 769
f 214 677 559
f 214 559 531
f 554 422 819
f 702 290 238
f 813 238 73
f 813 702 238
f 929 83 813
f 929 813 73
f 170 269 554
f 529 363 792
f 792 363 44
f 44 363 494
f 31 302 582
f 302 436 582
f 44 494 712
f 712 494 653
f 31 729 302
f 490 712 653
f 653 11 490
f 657 729 524
f 319 553 905
f 744 319 89
f 603 319 744
f 744 89 657
f 343 744 657
f 603 744 113
f 113 744 343
f 769 603 113
f 677 253 500
f 704 253 416
f 380 214 531
f 554 380 422
f 416 253 771
f 290 771 238
f 290 416 771
f 121 83 929
f 410 529 121
f 410 363 529
f 50 302 729
f 50 657 457
f 50 729 657
f 11 653 399
f 11 399 765
f 399 283 765
f 553 765 905
f 905 765 283
f 457 657 89
f 905 89 319
f 380 43 214
f 355 43 554
f 43 380 554
f 771 253 492
f 73 238 724
f 724 238 771
f 929 314 121
f 170 544 269
f 121 314 410
f 582 544 170
f 436 544 582
f 568 653 494
f 50 678 302
f 283 830 905
f 905 830 681
f 905 681 89
f 677 214 71
f 71 492 253
f 253 677 71
f 355 214 43
f 709 929 73
f 709 73 724
f 314 929 709
f 204 363 410
f 204 494 363
f 494 204 568
f 678 436 302
f 399 653 568
f 50 717 678
f 399 122 283
f 50 457 717
f 89 681 61
f 89 61 457
f 214 190 71
f 190 214 355
f 938 771 492
f 938 724 771
f 24 709 724
f 24 724 938
f 554 360 355
f 269 360 554
f 709 114 314
f 114 709 24
f 519 360 269
f 544 519 269
f 711 519 544
f 283 122 830
f 199 61 681
f 457 61 717
f 492 190 586
f 190 492 71
f 938 492 586
f 190 355 240
f 360 240 355
f 700 314 114
f 519 787 360
f 267 410 700
f 700 410 314
f 410 267 204
f 674 204 267
f 519 711 787
f 674 568 204
f 568 122 399
f 678 711 436
f 436 711 544
f 122 525 830
f 830 525 681
f 678 717 903
f 903 717 199
f 61 199 717
f 586 874 938
f 190 346 586
f 938 874 24
f 522 874 586
f 522 586 346
f 24 874 117
f 117 874 522
f 24 117 114
f 40 674 267
f 711 3 787
f 475 3 781
f 674 122 568
f 122 674 474
f 122 474 525
f 463 525 474
f 678 3 711
f 229 525 463
f 229 463 781
f 903 3 678
f 199 229 781
f 199 781 903
f 903 781 3
f 229 681 525
f 681 229 199
f 190 240 346
f 760 346 240
f 787 240 360
f 787 760 240
f 117 522 346
f 267 700 114
f 237 114 117
f 267 114 237
f 475 760 787
f 40 267 237
f 3 475 787
f 40 237 313
f 40 313 474
f 674 40 474
f 463 474 313
f 313 475 781
f 463 313 781
f 346 237 117
f 237 346 760
f 475 237 760
f 313 237 475