# https://github.com/mikedh/trimesh
v -30.81146293 -116.14348420 54.45883805
v -43.11207211 -112.98981040 65.13264246
v -33.83079973 -117.02649045 63.90954432
v -40.29246193 -105.27024611 57.63808223
v -31.64455039 -105.61925762 62.37294863
v -33.30900945 -108.03694215 53.97054140
v -34.13781181 -104.17106014 60.43343162
v -31.62861635 -103.81283061 58.67306108
v -37.73238864 -117.70970087 57.05564439
v -33.47177988 -122.96461593 60.70133323
v -31.02357245 -107.97171599 54.82617364
v -31.54088311 -105.37934229 60.87267215
v -31.43252531 -105.00444114 59.96639614
v -36.09879929 -104.65224930 55.81628813
v -40.36216328 -105.22150645 59.04258672
v -36.85309304 -105.35426792 55.45398960
v -39.09461313 -104.82622281 57.40738159
v -35.35618867 -114.31321702 54.99018652
v -31.53454021 -105.95260088 60.97705626
v -35.57028229 -105.85363528 54.79447197
v -31.30965064 -103.92063877 58.23689788
v -30.99976950 -114.06152777 54.06056566
v -31.48523660 -109.78434862 53.92612202
v -31.61741578 -116.30272293 53.98684159
v -31.88613056 -121.13838090 56.04888811
v -43.22405480 -112.85395019 66.56974563
v -30.94539126 -119.96326964 55.78209296
v -41.16363708 -113.35944116 59.24403484
v -31.59615854 -107.41842491 65.66123929
v -37.16598839 -116.97447312 65.38582257
v -40.51516912 -105.61931191 59.77126445
v -33.38762200 -103.74107109 58.65933125
v -33.15046488 -117.59877720 62.05728185
v -43.00138237 -113.19508363 67.20485795
v -31.00134832 -107.98781014 54.28935826
v -32.38318042 -123.05205058 57.45408846
v -41.41662804 -114.69211170 64.73529936
v -33.01519440 -105.80293476 64.44594045
v -37.82050964 -105.33279961 61.10215703
v -38.28924000 -107.97779095 65.16268217
v -34.01434531 -109.59754451 69.71785355
v -31.48501130 -115.55590612 57.03896334
v -32.00300921 -105.15451305 62.31992479
v -30.76103587 -105.43352563 55.87156058
v -33.50682009 -115.62269103 64.09803733
v -32.00622258 -106.29842620 64.96343389
v -37.40697750 -108.00491773 66.06929638
v -43.26948172 -110.69314766 62.78218154
v -31.44906794 -105.16309984 60.44002565
v -42.00395975 -113.47740533 68.68521218
v -38.47541711 -109.68988794 55.93963063
v -40.59550924 -107.75581616 63.19614833
v -42.98593445 -113.26182728 65.72009851
v -41.57363801 -106.02740526 58.99163482
v -34.22337849 -109.16581824 54.19164519
v -31.23536875 -106.96012872 56.83130517
v -33.98805631 -114.56112288 66.19436740
v -33.59150269 -114.29687362 65.70450490
v -42.90445259 -109.95302805 64.09280107
v -36.43125304 -109.16451300 68.87725507
v -34.54331219 -113.81222302 54.48431492
v -31.71857847 -122.49446940 57.36681271
v -38.52113367 -116.89364087 57.37492336
v -32.95565644 -103.72499668 56.07163878
v -31.06899623 -112.23617422 54.11207666
v -30.80672408 -117.16527700 56.03994982
v -36.13059738 -122.95255056 61.51602445
v -31.02646174 -107.12391467 53.91692512
v -40.12845039 -108.24427347 64.32208362
v -36.73953875 -107.39937996 54.97425548
v -43.00816797 -108.87531767 62.22243551
v -32.79041451 -112.39573141 62.65063187
v -38.64985325 -115.02226336 56.93369266
v -31.54774740 -105.80272641 61.85768549
v -35.20772443 -117.04172188 65.35856639
v -41.88762517 -114.24361350 64.39923537
v -42.49391008 -108.83765264 63.05898152
v -31.82100204 -105.43657438 63.61588085
v -31.52573506 -105.94362780 62.97735307
v -36.84854199 -110.68625072 55.11680284
v -36.45565095 -114.58594452 55.58368122
v -30.90418431 -104.60236892 55.34427581
v -39.69492800 -110.41246190 67.96108105
v -37.94162402 -120.96585568 60.15049710
v -38.42621595 -105.80911130 56.03369427
v -31.64981830 -107.42850027 63.52778992
v -31.87906586 -105.00094621 61.55805953
v -39.63497130 -113.18395182 57.28255526
v -37.30106232 -121.10356857 62.41610592
v -31.36005522 -106.57937938 57.96122693
v -36.06408314 -105.22881877 55.28521205
v -35.27765202 -104.21530450 56.42587276
v -38.07211651 -107.32831550 55.57769349
v -37.06873884 -106.45529695 63.49206541
v -43.61648464 -111.74633276 64.80015009
v -30.85027134 -105.28290003 54.88072555
v -36.62780966 -119.73644491 63.46861660
v -35.81347650 -119.02014470 63.95067349
v -39.21049998 -119.05007314 61.57259402
v -31.53464698 -106.51589208 63.07962616
v -36.95294269 -120.94976800 58.43830784
v -32.07335607 -121.80945057 59.68254395
v -30.99034769 -106.94180432 55.77989594
v -32.39742127 -113.88128594 53.70143281
v -31.08739525 -109.23338470 54.33006276
v -35.58458838 -109.40268089 54.55200888
v -38.27157631 -118.46833980 57.87886026
v -39.31536144 -117.37313214 58.55402558
v -31.88956971 -109.39336898 67.23617394
v -34.70440703 -113.58584955 68.12768579
v -31.63970532 -107.36146873 64.96877050
v -33.13193197 -123.58895507 59.53425402
v -33.59533611 -110.74723659 53.98574222
v -40.24769969 -105.57381242 57.40858443
v -34.80575561 -109.68917891 69.86101077
v -31.06525643 -103.67013498 56.14575114
v -32.15408315 -105.24377651 62.98476264
v -39.55280690 -105.51184516 60.30572574
v -31.15733032 -113.95492065 55.46814737
v -30.90123775 -107.22206842 54.56659821
v -42.63289985 -110.67271726 61.11921012
v -32.55592480 -123.25895346 58.67540001
v -35.01429967 -118.95094795 63.76711133
v -41.03002644 -114.57606744 67.23040157
v -40.79239407 -107.00073249 61.94093733
v -42.18788711 -110.17737737 60.00910555
v -30.91152841 -115.08081968 54.68621956
v -34.89704095 -107.03764383 66.24093681
v -36.37532460 -112.86187253 69.69915753
v -36.47074819 -118.11048140 64.46718654
v -33.71395702 -110.05511190 69.51284839
v -35.37121472 -121.41427293 62.72722437
v -39.79193096 -108.81220006 56.86020834
v -35.24923273 -104.67499171 61.10733453
v -42.26905889 -107.16363119 60.21867528
v -34.22178543 -122.77991078 57.78998650
v -34.06566709 -104.01262653 56.05261519
v -41.71455979 -106.68036570 58.78930416
v -37.89883715 -115.64708189 67.27693622
v -31.28212618 -120.11798474 55.50889975
v -34.01118057 -117.54548702 55.19755758
v -33.35181357 -108.32367373 68.98740928
v -43.17233222 -110.85220747 64.87809716
v -39.04276827 -107.10091002 63.28840793
v -38.54996225 -105.30428502 60.57713688
v -37.27681382 -113.88108714 69.30279787
v -42.71432255 -112.76130397 63.02643923
v -32.67266156 -105.14554669 63.07319189
v -31.00248375 -104.06540419 57.56763959
v -42.91561892 -112.84285313 63.85871743
v -37.32066554 -107.54389627 55.21775024
v -40.05395139 -108.73090793 65.14639608
v -39.25868041 -118.76003838 60.13275312
v -35.37843478 -114.24903479 67.99971020
v -37.99244191 -118.43887571 63.78621068
v -32.88459403 -117.42775589 61.45470421
v -35.07374653 -104.41279730 55.70290312
v -36.48831098 -109.78991410 54.86662522
v -34.89260265 -112.12357200 54.37804444
v -39.20878549 -115.44538587 67.10713489
v -37.16640204 -118.71944586 63.90842544
v -32.61893456 -112.07295890 65.95577532
v -41.84499530 -114.39644944 62.73740698
v -35.75950676 -108.65288870 68.58964914
v -35.39157834 -107.75622898 67.41529466
v -31.71791918 -110.54898434 56.04563016
v -31.26045866 -103.63954940 57.59061454
v -32.73242036 -111.66218578 53.76395085
v -42.76481178 -108.46485119 61.12851782
v -34.22396313 -104.42509281 55.25429651
v -42.79281774 -113.21412421 64.29419665
v -36.44244398 -118.70547562 56.74078239
v -35.72596516 -111.63569714 54.66908182
v -41.78358609 -114.18249978 67.25923014
v -31.20661631 -104.83844083 59.11317610
v -35.57676410 -118.29332963 64.33785321
v -32.14465487 -107.78707649 68.14905976
v -33.19022322 -115.52587872 62.61980475
v -32.02475670 -103.58994233 58.21870879
v -41.28797179 -105.78461805 59.42019906
v -32.17901328 -109.49964108 62.79777544
v -40.56883195 -116.41994862 61.48515204
v -36.26279505 -117.37122396 65.16027187
v -32.38829468 -103.56509176 56.67606271
v -31.99526564 -107.19741490 66.86264009
v -33.07298699 -110.40119834 68.77968785
v -40.58456941 -109.75144731 66.35571903
v -40.45162113 -116.60194983 62.02938282
v -32.42470037 -104.38941958 60.88504564
v -37.68722764 -114.80889044 56.31683275
v -32.97992359 -109.06668301 53.94360245
v -33.56806935 -122.09315104 61.48004072
v -31.60239049 -106.71866633 61.20879297
v -33.45571262 -105.97769334 54.12750262
v -42.22277910 -113.94941933 67.87417841
v -32.94212071 -107.34446003 67.61061833
v -39.59409957 -104.99393085 58.78129133
v -36.99192305 -115.71875273 67.31118814
v -40.24442288 -116.78780820 62.49813916
v -36.58299964 -105.11920661 61.37086020
v -37.89227920 -105.37235401 55.90075924
v -32.43143747 -111.21910048 66.84805821
v -35.78619930 -104.59107688 60.62570346
v -34.63572128 -122.61536066 61.79474170
v -41.32437858 -107.86138916 58.32416580
v -31.73449259 -122.12534513 58.65450571
v -41.20409117 -105.60968216 58.28664139
v -30.89332613 -105.16004644 56.54931276
v -31.65239096 -114.72222588 53.61289082
v -42.32459666 -107.91758775 59.89230500
v -38.73533329 -117.38740864 57.76127911
v -37.63260698 -121.21723191 59.86262720
v -32.63896471 -122.46890842 60.36332453
v -42.72774513 -113.64139890 67.19829869
v -30.79109599 -117.12718778 55.36901149
v -30.77678941 -105.87492030 55.09545658
v -35.39995862 -105.40200582 62.52418311
v -40.24203535 -112.07345410 69.44693183
v -31.61503285 -107.40978443 64.37216279
v -33.33910610 -120.91019893 56.28888761
v -35.37688676 -120.43702585 63.16167790
v -31.46381664 -112.45379559 55.79515390
v -43.30158962 -111.63560090 65.57261023
v -31.65227945 -111.00247950 53.73509407
v -41.83824823 -107.38648638 58.93275257
v -32.57108074 -116.86833117 54.48085655
v -33.21387397 -104.62596932 61.84127955
v -42.12001650 -111.60891387 67.24451580
v -32.91311281 -113.63554309 63.30332015
v -32.55706033 -123.04060314 59.51120723
v -42.63599217 -108.15653559 61.39855745
v -39.50949978 -116.40028054 64.50053382
v -36.53180355 -108.53900787 67.79520435
v -30.80999604 -118.72754355 56.34544091
v -32.58407688 -110.30336748 53.85514488
v -32.82940727 -103.97293553 55.24323313
v -42.36849292 -112.74401993 68.10882969
v -37.97600006 -104.58614108 58.56147930
v -36.59414276 -104.48557136 56.35162897
v -43.44120929 -112.56977311 65.47746110
v -31.35327474 -104.01231230 55.13470631
v -31.71926282 -104.96604470 60.97149303
v -33.01899950 -119.32289059 61.77383684
v -39.28784754 -111.97998262 69.89986574
v -43.58929569 -111.48126579 64.76306721
v -40.20989156 -107.31239864 57.11349926
v -31.30487168 -104.78415349 54.45482381
v -35.11741029 -118.61739297 56.04873894
v -31.60168592 -107.70369753 66.45409511
v -31.59738314 -108.30226974 66.33703260
v -36.54786776 -107.80910610 66.42902329
v -37.40776086 -110.40087756 55.34745720
v -33.33008797 -115.50654371 54.36376924
v -38.45832312 -105.24315407 56.29133724
v -33.57388839 -112.97590095 54.01639768
v -33.51863622 -117.78307062 62.89652206
v -37.29626582 -122.04464542 61.19979112
v -40.62617532 -113.58827366 58.42316032
v -40.96853909 -115.56709508 61.32772920
v -36.86686709 -117.55331042 56.56075835
v -31.44785735 -103.64168606 55.77776295
v -42.76736411 -113.53100343 66.46638580
v -31.71716467 -108.80735299 66.94152951
v -43.21551762 -109.79127401 63.09524035
v -31.13990509 -104.97913068 58.52680835
v -42.19856077 -113.99216094 66.65684832
v -41.08944448 -105.82985488 58.05159829
v -36.44668086 -110.98360014 70.08035569
v -32.81306946 -110.89184205 68.09079530
v -37.34499981 -107.51318888 65.11445857
v -36.24347823 -122.24329165 59.19119260
v -37.59995401 -104.44243795 57.69074985
v -41.31065838 -112.52670602 68.97223356
v -34.74710814 -114.37916815 67.36418573
v -32.96231507 -116.03910825 61.56391112
v -39.64325501 -115.54068176 58.00679250
v -39.46423656 -112.80887694 70.17619983
v -35.89252774 -104.19222990 58.25060983
v -34.48799011 -104.07261180 59.27803756
v -35.13540888 -119.90782202 56.57819314
v -34.37801808 -109.98355944 69.91577758
v -31.56839978 -106.54502240 64.25083396
v -41.15704306 -105.91591330 59.85294851
v -42.13317273 -113.96651320 63.87595106
v -40.33007648 -105.10657333 58.45443610
v -32.53141467 -108.26940228 68.59498324
v -34.09231976 -123.83982252 59.78242669
v -39.96891458 -110.10485021 57.17930900
v -34.97532417 -116.03323703 66.25364730
v -34.33416132 -112.10615201 68.86106280
v -31.62830786 -105.38950903 61.44694461
v -42.23941535 -110.05729458 65.18767294
v -30.98861597 -115.54359934 56.02731136
v -42.75113798 -109.49276769 61.04267764
v -31.10576561 -105.82815336 57.46099147
v -42.08996572 -114.04795048 65.81701294
v -31.91969893 -105.91692541 64.29493677
v -42.60242767 -110.05199420 64.73114755
v -32.89631796 -113.22549599 64.81337017
v -34.07967993 -113.21194445 67.73061127
v -31.31394767 -113.40616859 53.54003262
v -38.91994086 -113.08746239 70.09780749
v -31.38555356 -121.72809941 56.75753114
v -31.20648260 -105.65514021 54.21068043
v -37.17005381 -111.78621570 70.28832646
v -35.47931463 -106.18480998 64.11331895
v -42.41844020 -113.53083738 63.65133945
v -36.24089150 -116.61542168 66.11527832
v -36.28209949 -105.53732564 62.27734939
v -31.55866544 -106.64716989 59.93503137
v -30.96705138 -117.53136306 54.37635545
v -31.22931939 -105.60779789 58.32404412
v -35.07212014 -112.84857888 68.93047031
v -42.12378607 -111.56302789 60.40640401
v -33.78377303 -105.83815001 64.23400886
v -33.52662784 -111.04607689 68.83893712
v -33.00075553 -104.26452309 60.92387163
v -34.64170979 -106.35626179 64.82793270
v -33.41821928 -116.44708234 63.18761756
v -41.31641338 -111.62136576 68.15213261
v -39.23920337 -106.26432547 56.39818736
v -33.06033040 -114.51782324 62.50039678
v -32.38308431 -109.81592584 68.07562665
v -31.47972388 -122.20523707 57.66965239
v -37.52869865 -108.99321446 67.63972922
v -36.80580707 -116.65906551 65.95892332
v -35.27111661 -112.10118315 69.47013137
v -37.13305842 -110.93840445 69.97621579
v -42.30144275 -113.18891255 62.27536710
v -31.09125735 -103.79677547 57.50966255
v -33.84310290 -105.15338021 62.85520375
v -33.19818001 -113.76244490 65.39854445
v -39.22001183 -109.25107619 66.71525179
v -32.05104910 -117.75372433 59.36861080
v -31.48627033 -103.53800213 56.52105349
v -33.68556831 -104.81022849 62.19534683
v -36.13444045 -111.58572466 70.10420886
v -35.51485180 -115.65251390 66.87018671
v -31.97768556 -104.48329168 60.52682841
v -31.56503858 -106.22490418 62.31092112
v -32.04516743 -103.69580588 58.62306095
v -32.33647801 -118.62748195 60.40475626
v -30.82197668 -104.55914061 56.45060300
v -32.90195827 -105.30532876 63.56361819
v -36.88999770 -110.07603573 69.36196652
v -34.10340224 -108.71792679 69.29210779
v -42.94827990 -109.28601681 62.97619139
v -31.19944676 -110.73742135 54.31086833
v -32.88490782 -103.77088886 59.13963530
v -34.57031373 -105.79625694 63.85291223
v -39.40255331 -104.99173311 57.23273198
v -36.73965304 -122.46268241 60.42084722
v -42.28859950 -107.60650943 61.15493608
v -39.23435692 -118.57056626 62.32023998
v -31.86063702 -109.89263234 53.85327077
v -37.11025450 -105.73862578 62.30826063
v -40.53975545 -113.18519758 69.53566555
v -34.74755697 -108.12375750 54.31139840
v -30.88686732 -104.01150570 56.42347049
v -39.57772485 -107.60382831 56.60947385
v -32.69423956 -111.14321716 61.58397363
v -34.82992842 -117.22718348 64.88750036
v -32.50795284 -110.84358171 67.57522481
v -41.69085154 -108.73663360 63.89958403
v -35.73468369 -110.80831103 70.03162691
v -41.46521363 -112.85849287 69.00518108
v -31.20694095 -108.98862751 55.10864151
v -40.34143847 -114.79654322 67.58673449
v -31.23915085 -104.39506359 58.66169613
v -39.08632633 -108.18217820 64.96625404
v -33.01279386 -120.99986667 61.49711545
v -34.21951766 -107.32622760 67.31015839
v -32.03891864 -115.86524386 58.41003653
v -43.18276666 -109.50946091 62.50677574
v -34.48837251 -117.83497698 64.17541998
v -32.73064591 -112.58467813 59.33368021
v -38.37913369 -104.92098746 59.54477444
v -31.39301831 -117.18552607 57.37043533
v -38.31921681 -109.60128410 67.86528880
v -43.44592356 -110.72937633 63.50377324
v -40.87986224 -109.00780388 64.89213792
v -37.91624995 -120.84978060 61.92423827
v -35.77767227 -106.82812703 65.20120838
v -32.87280549 -123.33197756 57.96056892
v -42.79686795 -108.91316747 61.15229464
v -41.75996280 -106.58196944 60.23026448
v -38.49970479 -118.75777632 58.47548304
v -42.70398616 -113.41863359 67.87743085
v -39.55921776 -104.89074611 58.19306102
v -37.48430373 -120.17991294 58.33737832
v -33.96165789 -104.44705485 61.36946806
v -35.06993886 -104.00188132 58.52511842
v -34.04107870 -123.60930631 58.72104088
v -38.38951532 -111.03073434 69.45090898
v -41.99899155 -108.75995288 63.63140829
v -39.42361387 -105.25457122 56.94714514
v -32.09894706 -110.43234912 66.34715648
v -37.93551086 -105.79121576 61.87772719
v -33.46790944 -112.59858733 67.61475123
v -34.34527288 -116.24752038 65.31036339
v -39.48941131 -115.76817015 65.56023593
v -30.98874702 -106.05520491 54.35637967
v -34.39191442 -119.34212455 56.01287179
v -31.33001362 -115.48875720 53.80239012
v -42.06757633 -106.79347210 59.41858483
v -43.40759417 -110.89956534 64.52949974
v -39.65610558 -115.49046639 66.45523707
v -33.37180888 -123.73917863 58.91305979
v -41.52815335 -108.88714341 58.69621359
v -31.54383062 -121.56515112 56.39958514
v -37.61740865 -109.85369346 68.74314270
v -34.32880339 -117.02947406 64.54192223
v -33.30892481 -106.38688986 65.50945377
v -38.42686663 -104.70509394 57.16064154
v -43.10377802 -112.29276323 63.61489998
v -35.42957262 -104.10137304 57.15848055
v -36.26101567 -110.11292822 69.66124594
v -41.54547226 -111.64929823 59.35011970
v -35.73150993 -113.68778355 68.77191706
v -31.00819968 -118.43082427 56.92023415
v -34.03326029 -118.20568601 63.51962832
v -41.17591833 -106.30565311 60.43849705
v -35.29470679 -111.03252776 69.98085989
v -38.96033408 -110.78598220 68.89566090
v -41.18361217 -114.80663620 60.74183362
v -32.61736420 -103.86744784 59.56594010
v -32.20362024 -109.28935750 53.86079165
v -30.92202979 -107.00668464 55.02647719
v -31.80310374 -119.68860135 59.35393860
v -33.15626721 -114.76757647 63.36298343
v -37.05022713 -116.28163455 56.32556280
v -38.61315514 -119.98777399 61.66869529
v -31.53061679 -108.46263484 53.89881299
v -38.96240145 -109.80370726 56.32675238
v -31.88637795 -107.89322356 60.78867083
v -32.01955330 -110.21268943 65.58250257
v -31.54529042 -104.11790349 59.05174338
v -39.04169672 -114.38236130 69.00114836
v -35.78829179 -121.63798138 57.99444398
v -42.58189509 -107.85716147 60.79751772
v -36.65917754 -104.82172577 60.61382117
v -41.02725652 -112.57402100 69.33899458
v -40.69090117 -109.40099239 57.79807232
v -34.42776662 -116.07591631 65.62937432
v -34.90192613 -123.35290047 59.06973340
v -36.86239962 -112.21947578 70.22200559
v -33.70345401 -119.81284803 62.54567348
v -31.01290506 -105.10181186 57.64718869
v -42.95295792 -112.64083925 67.07700715
v -36.82369720 -104.39004922 56.93553929
v -41.11667520 -114.46875279 67.81243002
v -40.25043097 -116.50804597 59.77862725
v -36.67490595 -104.29208804 57.91383582
v -31.88542356 -109.32615136 66.10878539
v -31.40507873 -106.05246385 53.92437501
v -40.39995140 -111.01601530 68.26058567
v -40.41476571 -115.12008888 58.94409829
v -32.45467150 -106.45096562 65.60058656
v -42.85194694 -112.29790295 66.98490820
v -32.32865452 -111.33862321 65.13650779
v -42.27829855 -107.99675404 61.95823702
v -31.72317534 -105.32609420 62.00082359
v -34.60476357 -110.93048793 54.25927458
v -38.91693475 -119.60785925 61.11076682
v -32.00861660 -118.04633088 54.66010622
v -38.47188624 -120.31414467 60.58963809
v -34.50853656 -121.19393052 56.89148805
v -31.00433551 -104.42429148 57.82298443
v -30.78702347 -104.69061252 55.91126315
v -40.37666331 -112.15544613 57.87719506
v -37.05525663 -104.66933794 59.85780796
v -42.89929509 -111.53335753 66.13397098
v -40.56745448 -115.98354062 63.64700855
v -43.10875402 -113.29160488 66.69325804
v -32.49809273 -122.88140098 57.25190182
v -37.79821842 -115.20653558 68.07872248
v -37.64058921 -114.64455202 68.80298253
v -33.26578141 -104.92748048 54.36534183
v -36.10032313 -117.04455267 56.02571605
v -32.29057697 -113.55632085 58.02530357
v -30.90032808 -120.10193578 56.54699994
v -41.40648880 -107.98155473 62.95221955
v -41.37479070 -113.58246592 68.93242260
v -35.57725450 -122.12752887 62.20800623
v -41.24830400 -105.55168600 58.59164946
v -43.47287703 -111.10039172 63.54549587
v -31.73226169 -106.30183651 53.86562826
v -41.63045957 -114.66964308 63.65001492
v -36.42116101 -119.71847621 57.11834582
v -35.82543226 -121.06270440 62.94220503
v -31.74173635 -108.22305826 57.54696755
v -32.23659696 -104.11505660 60.19423865
v -34.67097557 -119.80826381 63.30382055
v -40.03761243 -113.63566869 69.39812664
v -40.67172021 -107.97154884 57.56726401
v -33.42781279 -104.01321842 60.22738160
v -35.67606417 -123.00458375 61.66428830
v -41.00937921 -106.69441628 57.92798522
v -33.70308914 -106.88818965 66.53248205
v -38.76059003 -106.40768138 62.37105936
v -41.17176799 -115.38979439 62.15165685
v -34.14229552 -123.03747656 61.18983836
v -35.50799270 -123.50105058 60.66378613
v -32.39490692 -122.59144796 59.82497239
v -30.76937727 -105.26119008 55.33515603
v -30.79884054 -118.28480757 55.15192924
v -33.45639771 -123.14578532 57.79750888
v -33.62009086 -115.30974048 64.69061468
v -31.93319185 -120.77053434 59.72224052
v -31.22355522 -108.23095393 55.49224787
v -35.54355285 -108.13413753 54.54170620
v -32.33170218 -105.79578540 64.32996414
v -36.57975516 -108.44978443 54.87649583
v -41.81041381 -106.36264966 59.62593707
v -32.45840366 -111.73964976 63.92890044
v -35.77434545 -104.30052231 59.16766808
v -31.31196450 -111.90224874 54.80860351
v -31.18547521 -119.56228576 57.75003601
v -35.58578370 -106.45333730 54.60929623
v -34.70923905 -104.40809826 60.85968859
v -31.27510878 -109.73690834 54.05329506
v -40.24228414 -106.18348748 61.02921073
v -31.94016061 -104.13861457 59.78469687
v -30.89551978 -118.18077540 54.66122772
v -40.48709895 -114.30415747 68.56421571
v -41.56209800 -107.08423524 61.36038032
v -32.60488418 -104.69216928 61.80303680
v -41.87724031 -107.16052326 61.04967463
v -31.91569858 -112.74076080 53.60294105
v -36.58255524 -104.51127923 59.40166137
v -31.05004023 -115.01173503 53.84690992
v -34.92029455 -118.07253115 64.37802631
v -42.55895078 -113.55155618 64.72795332
v -36.79324160 -120.13479558 57.62197832
v -31.00484625 -112.25072514 53.72914659
v -35.42162690 -117.12117182 55.74241086
v -38.35542401 -112.59101071 56.27644479
v -41.45975366 -110.23062369 58.90346880
v -33.26901029 -104.39938129 54.76509641
v -41.24553002 -110.62770257 66.97949189
v -41.02551969 -115.52470345 63.41053899
v -31.27359949 -110.83477018 53.87383806
v -39.76117668 -114.44103690 57.68108480
v -32.57454301 -112.13575418 65.39974297
v -32.20863020 -123.06475573 57.92947625
v -31.81004575 -104.86529250 54.22110465
v -42.95203206 -110.78410066 61.91678345
v -43.21897999 -112.50802080 64.26271713
v -40.12376350 -105.93442631 57.15801393
v -33.64332712 -104.03743866 55.48137798
v -35.51044881 -113.21294930 54.81903573
v -38.68409641 -105.62966226 61.10273502
v -31.67654803 -113.84302412 56.66373730
v -38.94213131 -118.67100760 62.71629359
v -33.18455709 -109.05728784 69.14217234
v -32.89265596 -104.04578642 60.27657919
v -37.32277410 -105.04079850 55.87114785
v -32.21292171 -104.81289221 54.24635509
v -40.61471801 -112.76485478 58.28871764
v -38.94089312 -115.03749238 68.09746672
v -32.41903217 -119.66920705 60.77062443
v -38.32665683 -118.82739914 63.25105422
v -41.92638557 -113.28290727 61.07092050
v -31.35821515 -110.67064189 54.93927850
v -43.40562295 -112.28845608 65.84133154
v -32.99403506 -118.45296452 55.12948592
v -31.39383625 -108.12111377 56.34260267
v -33.43082371 -121.36424938 61.76865866
v -32.51050834 -104.60531964 54.42667824
v -31.50932905 -106.40470431 60.40424282
v -33.27073795 -104.17511398 55.07491362
v -35.88832345 -104.86507870 55.47715238
v -37.65775968 -117.70437764 64.51680525
v -34.44651617 -105.01234987 62.29770142
v -32.76116304 -105.14642532 54.13335823
v -39.96085136 -105.29221821 59.44602498
v -33.21036146 -122.35733792 57.05188710
v -34.44988752 -106.14615843 54.30357377
v -32.50604171 -110.08064075 59.22419879
v -32.62032471 -112.32177266 64.57131515
v -38.39332490 -117.08054343 64.64959910
v -39.27662607 -111.86252627 56.79964259
v -41.82426552 -113.74439984 61.47629009
v -36.80377582 -105.98551098 55.17293030
v -42.46819735 -113.68732695 65.42616615
v -33.45359549 -123.49922374 60.13532341
v -36.54187016 -115.46933102 67.60311184
v -33.16021886 -113.93357388 64.80658391
v -34.48915757 -118.86453179 63.54589722
v -32.58327090 -120.48907653 60.98873487
v -31.61251878 -105.62514355 63.06802270
v -41.73839111 -110.33741060 66.07904218
v -38.83982478 -118.85386047 59.18343000
v -32.09622276 -109.56154806 67.70890865
v -31.78612049 -108.77125320 64.96010852
v -38.98007628 -112.51894209 70.35147883
v -32.38453174 -103.92043709 59.71221415
v -35.56932702 -109.15277675 69.25071946
v -42.38238292 -107.57513026 60.03611899
v -32.60117072 -114.97829152 59.68336921
v -34.51906860 -104.75012737 55.05308922
v -31.28857813 -105.27416395 59.48089873
v -32.91150490 -112.93484361 60.72372078
v -36.21727292 -122.74883488 59.85194111
v -31.06225253 -120.35087265 57.41566757
v -33.85871884 -115.39503891 65.30835845
v -31.69261286 -122.49790764 58.27830574
v -40.67524254 -105.92168529 60.21077196
v -38.67994366 -104.71255839 58.17863056
v -32.29822312 -103.57704268 58.03583821
v -31.60505620 -104.61861286 60.03906497
v -38.62522606 -104.94665920 56.69547981
v -31.75819840 -107.58937174 59.10648888
v -31.74616879 -107.92055792 67.76786900
v -39.72927518 -116.66816360 63.95017794
v -34.92622203 -123.04536666 58.65249379
v -42.60668632 -111.61127812 61.51774170
v -38.17629350 -106.72865006 63.27079953
v -34.12061442 -107.21218723 54.14456849
v -31.44880172 -120.11477162 58.52435212
v -30.79936364 -106.12324398 55.35454221
v -34.15057319 -108.08579584 68.59180694
v -41.67585113 -113.06023688 60.28322788
v -31.17619378 -104.41962468 54.88513312
v -39.24598045 -110.53119836 56.57010324
v -39.18403377 -105.22657178 59.96782802
v -32.97512422 -119.47510565 55.44831577
v -31.42129601 -105.68365162 59.86386911
v -34.78242112 -123.61381912 60.83038534
v -36.18525192 -119.03433201 63.90841490
v -38.20496377 -113.14274307 70.02167207
v -42.28854600 -112.49304782 61.47051456
v -38.19193439 -112.41410198 70.34815217
v -33.94909530 -116.23878218 64.64319791
v -31.13044486 -121.08657090 56.69477639
v -32.61228099 -116.81688664 60.44785730
v -34.00664733 -113.98768189 66.85154293
v -40.44806605 -115.37530239 65.09027760
v -31.29425841 -107.27263025 53.78958146
v -31.87022055 -107.23451708 53.76022079
v -31.75715150 -106.96166563 65.86595007
v -32.68733582 -106.31830225 53.92377793
v -34.11080929 -122.02288325 57.15039297
v -35.01770605 -123.60640593 59.94046501
v -37.96924306 -105.06898645 60.36871761
v -31.06224585 -113.88089431 54.87012503
v -41.43155213 -114.94826267 62.80884841
v -32.85867194 -112.70083648 61.92308924
v -30.89688319 -106.85912032 54.35361218
v -32.35988030 -109.65081896 61.08701338
v -41.08213267 -114.53721749 60.02177277
v -40.73658426 -114.96955549 65.94768031
v -36.44596989 -114.15358343 68.82748120
v -33.72250048 -103.77172161 56.49952391
v -31.27171473 -109.80535823 54.80895291
v -42.56713375 -111.63663200 66.71510032
v -32.98904798 -113.77362702 61.97518469
v -31.49439266 -119.15284095 54.95059878
v -34.04013378 -120.18297491 56.23397436
v -39.83001811 -116.94886603 59.18066461
v -32.92677985 -113.42669760 62.65438806
v -43.27778860 -110.43759790 64.01872163
v -32.16602821 -110.47259502 64.64349362
v -34.98995288 -116.54188645 65.65094447
v -40.26524935 -109.87830333 66.76011037
v -41.01513374 -105.67626385 59.49254293
v -31.73625281 -106.53136596 64.78424012
v -34.18748630 -105.49915498 54.42496755
v -34.80864485 -103.94200300 57.42558880
v -31.43870974 -104.15257024 54.89255893
v -32.19471790 -104.74376244 61.47586968
v -34.47739593 -114.83139499 66.65482584
v -35.62374857 -117.42308067 65.10327640
v -31.26218266 -121.61655242 57.61469573
v -32.24436856 -104.24537218 54.67797419
v -32.98415682 -114.73495004 61.38427736
v -35.96473712 -105.07550395 61.60186236
v -36.21550972 -104.86766045 60.99807316
v -41.04294701 -114.24716285 59.66870378
v -33.39697656 -119.24357945 62.39224976
v -42.19363346 -108.48419284 59.64293594
v -40.65656084 -110.39188257 57.88010357
v -38.71082748 -107.61986568 55.95397716
v -42.18442961 -108.51421813 63.06012779
v -41.47994555 -114.61517070 61.64425711
v -43.36203919 -110.43137449 63.47567985
v -41.01704449 -114.92818862 65.11923711
v -39.33393997 -105.09909822 59.48576352
v -32.33946408 -121.63713241 60.27295036
v -38.48791892 -111.86570785 70.08869991
v -30.96443729 -105.99639358 56.25729257
v -35.25668577 -104.37861888 60.33575282
v -37.44236873 -108.75178003 55.30004286
v -32.31136579 -121.20895759 56.13879653
v -31.92495556 -103.90453969 59.25777849
v -39.24176073 -105.55491686 56.63205561
v -42.73027825 -112.14050355 62.29240467
v -38.71639123 -104.84999333 59.08067211
v -39.75169768 -106.76362957 56.68020716
v -30.91671290 -103.98506162 55.82561714
v -37.97468884 -111.66871779 55.87922609
v -31.40708604 -106.19805775 59.02804256
v -41.33206790 -111.16439323 58.85790954
v -37.68545117 -118.43154192 57.28948064
v -41.24617749 -114.11910266 68.40975719
v -32.00153668 -105.53806756 54.01385064
v -37.70554045 -106.20524007 62.70584905
v -31.16849515 -108.45340516 54.03880132
v -32.30642588 -108.71385370 68.36693944
v -41.36090950 -106.91916225 58.29456907
v -38.21878793 -104.58785238 57.38150009
v -35.85489578 -120.90422175 57.46256567
v -38.92763092 -115.79665170 66.37343984
v -39.65814541 -117.78713219 59.71680251
v -37.49028795 -106.54243409 55.33823773
v -31.42940741 -121.18322381 58.35549054
v -31.08298756 -105.13625251 54.50146986
v -30.95822207 -116.88588464 56.39803888
v -43.14900144 -109.86979912 62.37510049
v -34.18972864 -119.97220622 62.86310879
v -33.28048432 -103.62315298 57.68418500
v -35.65736734 -116.60887322 66.04614749
v -38.11779620 -108.99472763 55.63551025
v -31.53167966 -105.14004701 54.22591478
v -31.69028177 -107.21529943 62.26568686
v -38.02399918 -116.10571341 66.32728970
v -40.57095530 -106.61383280 61.53712736
v -39.03133749 -106.10990256 61.79747799
v -32.92471446 -111.79832863 67.43139329
v -33.26704138 -107.86775733 68.49963326
v -42.17727170 -113.90724200 63.18851018
v -43.23105394 -111.56816731 63.20047135
v -40.07980704 -115.14088046 67.06774357
v -36.80153942 -120.84451708 62.88010167
v -42.60901544 -108.52588262 62.26884653
v -34.02878744 -121.35153366 62.17918923
v -40.45759856 -116.66050707 60.77012556
v -38.75790755 -113.97408806 56.78632874
v -41.81517073 -112.46370468 68.50671168
v -34.09261060 -103.78046724 57.69968583
v -32.51442404 -111.41982097 62.95167262
v -37.06693752 -104.79603897 60.22196264
v -31.40202219 -103.53242209 56.96355212
v -40.08702096 -115.26040520 58.44155586
v -41.07861998 -109.67249772 65.83754099
v -35.88290338 -107.36820742 66.15887551
v -38.20223838 -116.46338649 65.55080772
v -31.67584770 -103.90094955 55.20152427
v -33.84868069 -104.01179771 59.54286001
v -41.62011495 -114.39226220 66.25300056
v -31.19824888 -109.75532022 54.28639877
v -31.41575416 -106.13644406 63.64465683
v -42.92459123 -108.67669217 61.82119434
v -34.68043876 -122.28138840 62.04833599
v -35.54011077 -115.41395218 55.33941321
v -32.91029676 -112.45239741 66.56910603
v -37.43927975 -104.72622260 56.33501503
v -37.68205930 -120.21998782 58.67846724
v -34.30243221 -105.13713545 54.70142440
v -39.99424966 -117.62245903 61.19484622
v -36.11736331 -106.01027216 63.39836595
v -38.56195352 -108.76541108 66.32858563
v -34.98587226 -104.90332695 61.80595177
v -33.00473845 -113.88745165 64.01422076
v -43.48769880 -111.90463416 64.44410042
v -36.10934306 -115.24145852 67.68004201
v -33.25248737 -112.80326254 67.04960171
v -41.01838974 -105.45386340 58.96226452
v -36.64114740 -112.54126374 55.25125417
v -31.71843323 -117.86554397 58.49409934
v -34.81146524 -120.75504246 62.84845765
v -34.84368411 -108.68880399 69.11747107
v -39.81226676 -104.96227106 57.70907517
v -34.50644826 -115.99865265 54.98675676
v -32.49424667 -107.08826106 67.17972979
v -39.86041398 -106.70600522 62.18517879
v -40.76170431 -105.25461858 58.11466149
v -37.86717378 -106.80817755 55.49048281
f 469 82 700
f 700 82 624
f 241 700 624
f 469 700 359
f 469 359 343
f 44 469 208
f 208 469 343
f 241 748 261
f 241 261 116
f 241 116 700
f 700 116 359
f 261 335 116
f 335 743 116
f 359 149 343
f 208 343 448
f 743 167 116
f 116 330 359
f 359 330 149
f 116 167 330
f 149 468 343
f 448 343 468
f 167 21 330
f 330 21 149
f 21 369 149
f 149 369 468
f 468 265 448
f 241 670 748
f 624 82 96
f 96 82 505
f 505 82 469
f 469 44 505
f 44 621 505
f 44 691 621
f 208 691 44
f 208 295 691
f 64 335 261
f 64 184 335
f 448 295 208
f 721 335 184
f 721 610 335
f 335 610 743
f 610 179 743
f 743 179 167
f 179 610 349
f 179 349 341
f 341 8 179
f 179 8 167
f 349 426 341
f 8 21 167
f 426 597 341
f 341 597 695
f 341 695 8
f 695 437 8
f 437 369 21
f 8 437 21
f 265 468 369
f 312 448 265
f 312 295 448
f 369 175 265
f 312 265 602
f 602 265 175
f 695 523 437
f 670 247 546
f 247 670 624
f 247 624 717
f 717 624 96
f 96 505 216
f 505 621 216
f 675 670 546
f 748 670 675
f 670 241 624
f 691 103 621
f 691 56 103
f 236 261 748
f 236 748 675
f 64 261 236
f 295 56 691
f 295 90 56
f 64 654 721
f 721 184 64
f 721 32 610
f 32 349 610
f 349 496 426
f 312 90 295
f 312 702 90
f 523 695 597
f 602 702 312
f 556 426 496
f 426 556 597
f 611 369 437
f 611 437 523
f 611 175 369
f 597 556 492
f 597 492 523
f 523 492 339
f 523 339 611
f 13 602 175
f 611 13 175
f 13 628 602
f 628 702 602
f 611 49 13
f 13 49 628
f 717 724 247
f 717 304 724
f 402 717 96
f 402 304 717
f 216 402 96
f 546 558 569
f 539 571 675
f 539 675 569
f 569 675 546
f 675 571 236
f 236 571 550
f 64 236 550
f 56 491 567
f 90 491 56
f 90 613 491
f 749 349 32
f 702 613 90
f 749 496 349
f 702 310 613
f 628 310 702
f 628 570 310
f 317 556 496
f 317 492 556
f 19 628 49
f 19 570 628
f 492 317 189
f 189 339 492
f 611 242 49
f 611 339 242
f 49 242 12
f 19 49 12
f 304 455 724
f 216 621 428
f 558 575 569
f 724 546 247
f 103 428 621
f 56 567 103
f 137 64 550
f 137 654 64
f 654 669 740
f 740 721 654
f 740 392 721
f 392 32 721
f 279 749 32
f 279 32 392
f 7 496 749
f 391 496 7
f 391 317 496
f 19 193 570
f 317 227 527
f 317 527 189
f 671 189 527
f 189 671 339
f 671 242 339
f 87 242 671
f 291 12 242
f 291 242 87
f 291 19 12
f 706 546 724
f 455 706 724
f 649 402 216
f 216 428 649
f 569 575 478
f 575 558 546
f 103 510 428
f 539 569 478
f 567 510 103
f 170 571 539
f 170 550 571
f 669 392 740
f 692 7 749
f 692 749 279
f 310 435 613
f 520 7 692
f 520 391 7
f 570 435 310
f 193 435 570
f 227 317 391
f 19 340 193
f 527 43 671
f 671 43 87
f 462 291 87
f 462 87 43
f 462 74 291
f 74 19 291
f 74 340 19
f 462 5 74
f 402 649 68
f 455 402 68
f 304 402 455
f 649 428 120
f 428 11 120
f 575 546 706
f 510 11 428
f 759 601 478
f 478 601 539
f 539 601 170
f 157 550 170
f 550 157 92
f 92 137 550
f 92 654 137
f 416 669 654
f 416 654 92
f 613 579 491
f 278 392 669
f 649 120 35
f 487 642 706
f 455 487 706
f 11 35 120
f 668 759 478
f 572 14 601
f 14 157 601
f 601 157 170
f 416 453 669
f 453 278 669
f 516 392 278
f 516 279 392
f 692 279 516
f 520 692 203
f 203 134 520
f 391 520 134
f 391 336 227
f 43 5 462
f 74 5 340
f 706 642 575
f 487 640 642
f 478 575 668
f 572 601 759
f 239 92 157
f 239 157 14
f 450 92 239
f 450 416 92
f 516 530 692
f 742 692 530
f 203 692 742
f 134 763 391
f 193 725 435
f 391 763 336
f 340 725 193
f 340 100 725
f 336 148 227
f 227 148 527
f 591 5 43
f 591 79 5
f 79 340 5
f 79 100 340
f 148 117 527
f 527 117 43
f 43 117 591
f 455 68 487
f 68 639 487
f 668 575 194
f 668 194 578
f 91 572 759
f 272 416 450
f 272 453 416
f 238 278 453
f 530 516 278
f 238 530 278
f 435 579 613
f 530 471 742
f 441 203 742
f 441 678 203
f 203 678 134
f 763 134 677
f 574 336 763
f 574 331 336
f 100 86 725
f 148 336 344
f 336 331 344
f 78 591 117
f 575 642 194
f 567 166 510
f 759 668 91
f 668 20 91
f 20 668 578
f 14 757 239
f 677 134 678
f 677 678 200
f 79 752 100
f 117 148 78
f 78 752 591
f 752 79 591
f 487 639 640
f 642 578 194
f 519 20 578
f 14 572 557
f 572 91 557
f 757 14 557
f 450 239 711
f 272 450 711
f 377 530 238
f 471 530 377
f 377 645 742
f 742 471 377
f 645 39 441
f 742 645 441
f 441 39 678
f 39 200 678
f 200 356 677
f 356 309 677
f 763 677 309
f 763 309 217
f 574 763 217
f 100 752 86
f 148 344 78
f 78 297 752
f 20 16 91
f 91 16 557
f 491 166 567
f 711 239 757
f 238 453 272
f 698 377 238
f 645 377 626
f 145 645 626
f 331 574 350
f 350 315 331
f 344 331 315
f 78 344 512
f 512 297 78
f 640 619 642
f 578 642 619
f 510 367 11
f 166 367 510
f 584 16 20
f 20 519 584
f 557 16 201
f 414 711 757
f 711 414 389
f 711 389 609
f 609 272 711
f 609 238 272
f 145 39 645
f 39 398 200
f 200 398 356
f 309 761 217
f 761 306 217
f 574 217 306
f 306 350 574
f 315 38 344
f 512 344 38
f 667 752 297
f 667 282 752
f 11 105 35
f 367 105 11
f 584 201 16
f 254 201 85
f 254 557 201
f 254 612 557
f 612 757 557
f 612 414 757
f 17 414 612
f 609 698 238
f 688 626 377
f 688 377 698
f 626 118 145
f 118 552 145
f 145 552 39
f 356 761 309
f 649 35 68
f 584 519 715
f 584 715 201
f 715 85 201
f 696 254 85
f 254 696 396
f 396 612 254
f 351 612 396
f 351 17 612
f 389 414 17
f 389 197 609
f 197 698 609
f 197 688 698
f 552 728 39
f 39 728 398
f 356 94 761
f 46 297 512
f 46 667 297
f 708 639 68
f 519 578 511
f 778 85 715
f 351 396 4
f 351 4 773
f 773 17 351
f 773 389 17
f 285 389 773
f 285 197 389
f 285 15 197
f 197 576 688
f 15 576 197
f 576 626 688
f 118 626 31
f 626 576 31
f 398 707 356
f 282 219 752
f 306 318 350
f 350 318 315
f 6 619 640
f 619 511 578
f 321 85 778
f 321 549 696
f 696 85 321
f 549 114 696
f 696 114 396
f 396 114 4
f 4 777 773
f 777 285 773
f 768 285 777
f 768 15 285
f 768 666 15
f 666 31 576
f 666 576 15
f 608 118 31
f 608 522 118
f 398 728 500
f 398 500 707
f 707 94 356
f 282 111 219
f 315 413 38
f 667 111 282
f 667 29 111
f 315 318 413
f 512 38 458
f 46 512 458
f 641 667 46
f 641 29 667
f 640 191 6
f 114 549 267
f 114 267 4
f 267 207 4
f 4 207 777
f 485 777 207
f 485 768 777
f 768 485 54
f 54 180 768
f 768 180 666
f 666 283 31
f 283 608 31
f 118 522 552
f 618 707 500
f 707 618 94
f 458 38 413
f 358 511 619
f 70 715 519
f 70 778 715
f 699 549 321
f 491 579 166
f 207 54 485
f 514 180 54
f 283 666 180
f 435 650 579
f 522 728 552
f 435 725 181
f 761 383 306
f 413 318 499
f 641 46 458
f 433 640 639
f 433 639 708
f 68 35 708
f 708 35 105
f 6 358 619
f 70 519 511
f 70 151 778
f 778 699 321
f 549 699 267
f 386 180 514
f 180 386 283
f 422 608 283
f 608 422 522
f 776 500 728
f 144 618 500
f 219 86 752
f 111 595 219
f 94 383 761
f 318 306 383
f 641 249 29
f 775 458 413
f 427 191 640
f 640 433 427
f 23 433 708
f 367 655 105
f 367 166 655
f 778 151 93
f 93 683 778
f 699 778 683
f 267 699 498
f 207 267 138
f 207 405 54
f 207 138 405
f 54 405 514
f 386 422 283
f 422 386 528
f 522 727 728
f 776 144 500
f 219 595 86
f 111 29 595
f 270 383 94
f 318 383 128
f 185 641 458
f 185 249 641
f 521 23 708
f 708 105 521
f 6 191 55
f 70 511 513
f 579 480 166
f 135 514 405
f 386 514 135
f 526 422 528
f 727 522 422
f 526 727 422
f 727 776 728
f 618 370 40
f 40 270 94
f 618 40 94
f 128 383 746
f 128 499 318
f 196 413 499
f 196 775 413
f 185 458 775
f 23 427 433
f 521 105 751
f 105 655 751
f 358 55 511
f 358 6 55
f 166 564 655
f 513 151 70
f 166 553 222
f 480 553 166
f 267 498 710
f 138 267 710
f 353 528 386
f 251 383 270
f 383 251 746
f 499 128 372
f 372 196 499
f 249 185 614
f 23 224 355
f 521 542 23
f 23 542 224
f 191 235 113
f 427 235 191
f 355 427 23
f 751 348 521
f 113 55 191
f 655 348 751
f 655 564 348
f 55 106 511
f 498 699 246
f 386 135 353
f 727 526 125
f 181 650 435
f 725 86 181
f 618 144 370
f 47 251 270
f 128 746 165
f 165 372 128
f 177 185 775
f 775 196 177
f 177 614 185
f 427 355 235
f 521 348 542
f 699 683 360
f 699 360 246
f 125 776 727
f 125 52 776
f 776 69 144
f 40 47 270
f 249 250 29
f 730 196 372
f 235 355 224
f 513 511 106
f 151 693 93
f 151 513 693
f 683 93 723
f 498 246 495
f 138 710 225
f 210 405 138
f 599 135 405
f 135 599 440
f 135 440 231
f 135 231 353
f 125 526 482
f 52 69 776
f 69 370 144
f 40 370 762
f 251 47 233
f 249 263 250
f 251 165 746
f 263 249 614
f 165 622 372
f 622 730 372
f 709 614 177
f 286 709 177
f 730 177 196
f 286 177 730
f 224 542 535
f 542 348 535
f 113 463 55
f 55 463 106
f 158 513 106
f 513 158 693
f 683 723 51
f 205 498 495
f 205 710 498
f 225 710 205
f 210 138 225
f 599 405 210
f 440 599 169
f 526 528 461
f 482 52 125
f 86 595 181
f 250 595 29
f 762 370 333
f 762 47 40
f 263 614 109
f 251 233 165
f 165 233 164
f 709 594 614
f 164 772 165
f 622 165 772
f 224 535 301
f 529 235 224
f 529 168 235
f 348 65 535
f 348 517 65
f 113 235 168
f 564 517 348
f 166 517 564
f 80 693 158
f 693 723 93
f 360 683 51
f 579 603 376
f 650 361 579
f 461 528 353
f 370 69 152
f 594 109 614
f 772 346 622
f 622 142 730
f 346 142 622
f 286 730 142
f 529 224 301
f 255 113 168
f 463 113 255
f 173 106 463
f 173 158 106
f 80 252 693
f 133 246 360
f 443 205 495
f 735 353 231
f 461 353 735
f 482 526 684
f 482 69 52
f 152 333 370
f 263 454 250
f 762 325 47
f 47 325 233
f 555 709 286
f 142 555 286
f 255 168 104
f 104 168 529
f 159 463 255
f 173 463 159
f 166 222 517
f 723 693 252
f 133 495 246
f 210 169 599
f 361 603 579
f 169 753 440
f 753 231 440
f 71 231 753
f 71 735 231
f 461 735 77
f 526 461 684
f 684 461 77
f 482 381 69
f 250 454 595
f 263 109 454
f 333 379 762
f 379 325 762
f 323 594 709
f 325 164 233
f 325 60 164
f 60 598 164
f 164 598 772
f 142 346 41
f 41 555 142
f 529 301 209
f 209 104 529
f 65 22 535
f 159 255 61
f 517 646 65
f 173 80 158
f 51 723 252
f 434 133 360
f 434 360 51
f 376 480 579
f 225 205 409
f 681 225 409
f 681 210 225
f 210 385 169
f 684 395 364
f 482 684 364
f 482 364 381
f 69 381 152
f 152 665 333
f 397 109 202
f 397 454 109
f 109 594 202
f 709 186 323
f 186 555 131
f 709 555 186
f 41 131 555
f 598 115 772
f 115 346 772
f 209 253 104
f 65 127 22
f 61 551 159
f 173 551 769
f 551 173 159
f 769 80 173
f 252 769 701
f 252 80 769
f 51 252 701
f 701 434 51
f 682 409 443
f 443 409 205
f 595 663 181
f 595 436 663
f 454 436 595
f 454 397 436
f 381 187 152
f 665 152 187
f 363 202 594
f 363 323 269
f 594 323 363
f 323 186 269
f 379 411 325
f 411 60 325
f 417 115 598
f 346 115 281
f 346 281 41
f 301 535 531
f 301 404 209
f 22 531 535
f 65 646 127
f 255 104 61
f 701 625 434
f 133 434 625
f 288 495 133
f 288 443 495
f 374 753 169
f 374 71 753
f 181 361 650
f 735 71 347
f 77 735 347
f 436 460 663
f 436 397 460
f 83 333 665
f 411 345 60
f 186 131 316
f 60 345 598
f 345 417 598
f 281 131 41
f 404 301 531
f 209 24 253
f 61 104 253
f 517 119 646
f 551 61 18
f 769 551 18
f 288 133 625
f 719 374 169
f 169 385 719
f 684 77 395
f 181 515 741
f 663 515 181
f 663 460 515
f 397 162 460
f 460 162 544
f 202 756 162
f 397 202 162
f 745 187 381
f 333 83 379
f 268 115 417
f 365 281 115
f 404 24 209
f 61 253 774
f 18 61 774
f 81 769 18
f 222 119 517
f 190 537 701
f 625 701 537
f 625 537 582
f 625 582 288
f 443 288 682
f 409 682 538
f 294 210 681
f 294 385 210
f 71 264 347
f 77 347 59
f 364 745 381
f 202 729 756
f 756 729 767
f 202 363 729
f 269 399 729
f 363 269 729
f 316 399 269
f 186 316 269
f 379 83 424
f 424 411 379
f 394 411 424
f 411 394 345
f 131 290 316
f 328 417 345
f 327 290 281
f 328 268 417
f 281 290 131
f 268 365 115
f 365 423 281
f 1 531 22
f 701 769 190
f 538 681 409
f 538 126 681
f 71 374 264
f 347 264 662
f 347 662 59
f 741 361 181
f 59 298 77
f 77 298 395
f 460 580 515
f 580 460 544
f 364 592 745
f 399 767 729
f 316 300 399
f 83 665 456
f 290 300 316
f 394 328 345
f 281 423 327
f 311 24 404
f 311 404 531
f 311 531 1
f 127 1 22
f 293 127 646
f 646 119 293
f 719 385 294
f 741 72 361
f 741 515 72
f 364 395 292
f 745 592 540
f 456 424 83
f 327 313 290
f 327 423 337
f 268 337 365
f 305 337 268
f 365 337 423
f 524 311 1
f 24 226 253
f 215 1 127
f 18 755 81
f 222 293 119
f 553 293 222
f 682 703 538
f 121 681 126
f 121 294 681
f 48 719 294
f 374 686 264
f 686 662 264
f 229 515 580
f 229 72 515
f 544 299 580
f 332 299 544
f 332 544 162
f 298 292 395
f 162 756 332
f 364 292 592
f 745 540 187
f 187 540 665
f 110 290 313
f 337 129 327
f 337 446 129
f 337 305 446
f 465 226 24
f 524 1 506
f 566 141 226
f 253 141 774
f 253 226 141
f 774 755 18
f 470 703 682
f 703 126 538
f 48 294 547
f 719 686 374
f 229 661 72
f 229 580 764
f 299 764 580
f 59 143 298
f 332 588 299
f 756 58 332
f 58 756 767
f 767 637 58
f 399 300 637
f 399 637 767
f 290 110 300
f 218 424 456
f 327 129 419
f 327 419 313
f 424 244 394
f 394 244 690
f 394 690 328
f 690 305 328
f 328 305 268
f 658 465 24
f 311 658 24
f 506 1 215
f 88 470 288
f 470 682 288
f 376 600 480
f 314 126 418
f 314 121 126
f 121 547 294
f 380 686 719
f 686 406 662
f 299 588 764
f 59 662 143
f 662 406 143
f 58 588 332
f 313 154 110
f 540 456 665
f 313 419 154
f 419 129 653
f 633 305 690
f 141 566 627
f 127 66 215
f 81 190 769
f 293 66 127
f 738 537 190
f 738 582 537
f 88 582 738
f 88 288 582
f 470 559 703
f 480 600 373
f 703 418 126
f 361 648 603
f 72 648 361
f 72 661 648
f 380 719 48
f 637 57 58
f 292 298 656
f 228 292 656
f 300 274 637
f 300 110 274
f 110 154 274
f 218 244 424
f 244 596 690
f 633 690 596
f 633 446 305
f 658 311 524
f 566 226 465
f 536 755 774
f 141 536 774
f 479 81 755
f 431 190 81
f 293 718 66
f 42 718 293
f 380 48 486
f 245 686 380
f 764 588 45
f 686 245 406
f 508 45 588
f 508 588 58
f 58 606 508
f 57 606 58
f 472 656 298
f 637 274 672
f 637 672 57
f 292 228 592
f 419 766 154
f 228 320 540
f 592 228 540
f 419 653 766
f 540 320 456
f 320 442 456
f 442 218 456
f 129 146 653
f 446 631 146
f 446 146 129
f 446 633 631
f 658 566 465
f 27 524 506
f 536 479 755
f 479 431 81
f 738 190 73
f 88 738 73
f 553 42 293
f 553 480 42
f 258 418 559
f 418 703 559
f 603 600 376
f 661 657 648
f 661 322 657
f 547 486 48
f 322 229 430
f 322 661 229
f 764 430 229
f 486 245 380
f 444 606 57
f 298 143 472
f 57 672 444
f 766 338 154
f 218 596 244
f 633 596 302
f 633 302 631
f 658 524 140
f 524 27 140
f 481 27 506
f 215 481 506
f 190 431 73
f 543 88 73
f 470 88 543
f 470 543 559
f 314 617 121
f 617 547 121
f 732 486 547
f 430 764 45
f 143 406 223
f 406 245 223
f 223 472 143
f 154 338 274
f 766 653 587
f 653 146 477
f 653 477 587
f 228 739 320
f 739 273 320
f 273 442 320
f 438 631 302
f 218 442 277
f 277 596 218
f 596 277 302
f 566 658 627
f 403 141 627
f 248 479 536
f 141 248 536
f 260 431 479
f 215 234 481
f 215 66 234
f 63 73 9
f 543 73 63
f 718 420 66
f 718 42 378
f 543 258 559
f 480 373 42
f 28 418 258
f 28 314 418
f 697 732 617
f 732 547 617
f 648 657 603
f 430 178 322
f 95 486 765
f 95 245 486
f 289 444 672
f 274 289 672
f 472 223 459
f 274 338 289
f 656 472 459
f 228 656 237
f 237 739 228
f 631 477 146
f 438 477 631
f 739 366 273
f 366 442 273
f 357 442 366
f 302 494 438
f 277 357 494
f 277 494 302
f 442 357 277
f 140 25 658
f 27 303 140
f 248 141 403
f 479 172 260
f 248 172 479
f 481 635 27
f 73 431 9
f 234 605 481
f 66 420 234
f 378 420 718
f 373 378 42
f 28 623 314
f 623 617 314
f 603 676 600
f 623 632 617
f 657 676 603
f 657 322 676
f 319 430 45
f 765 486 732
f 606 634 508
f 400 634 606
f 400 606 444
f 245 95 565
f 223 245 565
f 656 459 237
f 459 449 237
f 237 366 739
f 357 483 494
f 494 525 438
f 659 403 627
f 234 420 605
f 605 420 518
f 63 276 543
f 543 276 258
f 378 518 420
f 373 770 378
f 373 334 770
f 258 744 28
f 600 334 373
f 600 636 334
f 676 636 600
f 676 275 636
f 676 178 275
f 632 697 617
f 178 676 322
f 430 319 178
f 765 732 415
f 565 459 223
f 338 587 722
f 338 766 587
f 388 237 449
f 494 483 525
f 237 50 366
f 366 483 357
f 694 627 658
f 25 694 658
f 303 27 635
f 9 431 260
f 481 674 635
f 276 744 258
f 770 518 378
f 518 770 620
f 636 342 334
f 636 156 342
f 156 275 33
f 156 636 275
f 178 33 275
f 178 319 33
f 45 3 319
f 415 732 697
f 634 45 508
f 765 415 548
f 240 565 95
f 289 664 444
f 565 449 459
f 477 476 587
f 237 388 50
f 438 476 477
f 366 50 483
f 694 220 627
f 303 410 140
f 410 25 140
f 248 280 172
f 280 248 403
f 659 280 403
f 220 659 627
f 9 260 172
f 63 9 704
f 63 704 211
f 481 605 674
f 63 211 276
f 211 744 276
f 334 429 770
f 770 429 620
f 28 744 457
f 342 429 334
f 342 561 429
f 156 561 342
f 156 33 561
f 415 697 147
f 150 548 415
f 3 45 634
f 412 3 634
f 412 634 400
f 664 412 400
f 765 240 95
f 765 548 240
f 444 664 400
f 722 664 289
f 338 722 289
f 565 26 449
f 449 26 34
f 587 198 722
f 388 449 34
f 587 476 198
f 705 525 483
f 560 438 525
f 438 560 476
f 172 280 489
f 467 280 659
f 220 467 659
f 577 220 694
f 489 9 172
f 704 9 489
f 108 744 211
f 620 605 518
f 108 457 744
f 429 509 620
f 679 28 457
f 679 623 28
f 561 509 429
f 563 632 623
f 243 561 33
f 329 697 632
f 33 256 243
f 147 697 329
f 319 256 33
f 319 3 256
f 150 415 147
f 664 362 412
f 75 362 664
f 2 240 548
f 75 664 722
f 240 26 565
f 26 240 474
f 198 139 308
f 722 198 308
f 476 139 198
f 368 525 451
f 160 525 368
f 560 525 160
f 560 139 476
f 50 195 705
f 50 705 483
f 280 467 489
f 220 643 467
f 220 577 643
f 410 303 62
f 324 303 635
f 704 107 211
f 674 324 635
f 107 108 211
f 605 620 716
f 660 457 108
f 509 716 620
f 651 679 457
f 660 651 457
f 452 651 660
f 509 590 102
f 561 590 509
f 651 563 679
f 679 563 623
f 371 590 243
f 243 590 561
f 329 632 563
f 256 680 243
f 421 256 3
f 412 421 3
f 150 171 548
f 412 362 375
f 171 2 548
f 673 722 308
f 75 722 673
f 240 53 474
f 2 53 240
f 174 195 214
f 160 733 407
f 139 726 326
f 139 326 308
f 474 34 26
f 474 214 34
f 451 174 124
f 368 124 733
f 139 160 726
f 214 388 34
f 214 195 388
f 451 195 174
f 451 124 368
f 160 368 733
f 560 160 139
f 195 451 705
f 705 451 525
f 388 195 50
f 694 25 475
f 410 475 25
f 489 712 534
f 489 467 712
f 489 534 704
f 534 107 704
f 387 108 107
f 716 674 605
f 716 206 674
f 509 102 716
f 590 689 102
f 425 651 452
f 425 563 651
f 583 563 425
f 243 680 371
f 583 329 563
f 421 680 256
f 731 147 329
f 307 150 147
f 147 731 307
f 412 375 421
f 307 171 150
f 362 532 375
f 362 75 532
f 533 2 171
f 585 2 533
f 262 53 585
f 585 53 2
f 262 585 296
f 652 750 687
f 401 733 652
f 401 407 733
f 401 713 407
f 326 30 183
f 308 183 673
f 308 326 183
f 262 474 53
f 266 262 296
f 266 296 750
f 326 726 30
f 174 266 750
f 174 750 652
f 407 713 160
f 160 713 726
f 214 262 266
f 474 262 214
f 214 266 174
f 124 174 652
f 124 652 733
f 467 643 712
f 475 577 694
f 475 410 36
f 410 62 36
f 136 712 643
f 507 643 577
f 607 545 324
f 545 62 324
f 62 303 324
f 107 534 390
f 324 674 607
f 206 607 674
f 714 660 108
f 716 102 206
f 660 714 452
f 590 371 689
f 689 371 213
f 685 329 583
f 680 447 371
f 163 329 685
f 680 421 447
f 731 329 163
f 375 589 421
f 589 375 532
f 533 171 284
f 284 171 307
f 296 585 76
f 76 585 533
f 296 76 37
f 532 75 673
f 750 296 37
f 687 750 37
f 638 232 401
f 652 687 638
f 652 638 401
f 401 581 747
f 713 401 747
f 713 747 726
f 726 747 30
f 507 136 643
f 507 577 475
f 36 62 545
f 534 712 439
f 439 712 136
f 390 387 107
f 387 390 758
f 593 108 387
f 593 714 108
f 737 425 452
f 371 568 213
f 685 583 425
f 421 720 447
f 589 493 720
f 421 589 720
f 307 731 284
f 532 123 589
f 76 284 488
f 76 488 37
f 473 37 541
f 76 533 284
f 638 37 473
f 176 123 532
f 638 473 615
f 638 615 232
f 673 176 532
f 130 176 183
f 183 176 673
f 687 37 638
f 401 232 581
f 30 573 130
f 30 130 183
f 581 573 747
f 747 573 30
f 101 390 534
f 534 439 101
f 607 122 545
f 593 387 758
f 504 206 102
f 689 504 102
f 689 213 504
f 714 737 452
f 568 192 213
f 737 259 425
f 259 685 425
f 447 568 371
f 447 720 568
f 163 685 501
f 731 163 488
f 98 493 123
f 589 123 493
f 488 284 731
f 123 176 98
f 488 541 37
f 232 155 581
f 581 155 573
f 130 630 98
f 573 630 130
f 130 98 176
f 384 507 475
f 384 475 36
f 439 136 616
f 758 390 101
f 206 230 607
f 607 230 122
f 504 230 206
f 153 714 593
f 153 737 714
f 737 182 259
f 501 685 259
f 720 736 568
f 720 771 736
f 188 647 501
f 163 501 647
f 647 188 541
f 493 771 720
f 163 647 488
f 647 541 488
f 473 541 199
f 493 221 771
f 615 554 562
f 98 221 493
f 473 554 615
f 615 562 155
f 161 155 97
f 161 97 630
f 98 630 221
f 232 615 155
f 155 161 573
f 573 161 630
f 507 393 136
f 545 384 36
f 439 616 101
f 616 136 393
f 122 384 545
f 122 408 384
f 101 616 271
f 271 616 445
f 101 212 758
f 212 101 271
f 212 593 758
f 586 230 213
f 504 213 230
f 586 213 10
f 192 10 213
f 737 153 760
f 182 737 760
f 568 736 192
f 182 760 188
f 182 501 259
f 501 182 188
f 199 354 554
f 188 199 541
f 89 734 562
f 473 199 554
f 221 132 771
f 490 132 221
f 97 734 490
f 630 490 221
f 155 562 734
f 155 734 97
f 97 490 630
f 507 384 393
f 384 408 393
f 230 112 122
f 122 112 408
f 271 604 212
f 604 271 445
f 84 212 352
f 352 212 604
f 230 586 112
f 212 84 593
f 466 153 84
f 84 153 593
f 466 760 153
f 466 464 760
f 192 502 10
f 760 464 99
f 188 760 99
f 736 754 192
f 192 754 502
f 199 188 99
f 354 99 432
f 199 99 354
f 771 132 754
f 771 754 736
f 562 554 89
f 616 393 445
f 644 445 393
f 644 393 287
f 287 393 408
f 644 604 445
f 287 408 112
f 84 352 257
f 257 466 84
f 466 257 464
f 432 464 257
f 99 464 432
f 432 257 382
f 754 204 502
f 484 204 754
f 354 432 382
f 354 382 554
f 554 382 89
f 734 89 497
f 734 497 484
f 484 754 132
f 734 484 490
f 490 484 132
f 644 503 604
f 604 503 352
f 112 586 287
f 257 352 503
f 10 502 586
f 67 257 503
f 629 502 204
f 382 257 67
f 382 67 89
f 89 67 497
f 484 497 204
f 503 644 287
f 629 503 287
f 586 629 287
f 502 629 586
f 67 503 629
f 497 67 629
f 497 629 204