# https://github.com/mikedh/trimesh
v -45.62950562 -87.73645837 89.25378402
v -61.94304348 -79.87408974 87.71952978
v -62.43797421 -80.82452206 86.22350708
v -49.67134146 -67.52841325 83.67718312
v -59.15522968 -84.68021046 90.30216724
v -47.17560000 -87.97887222 89.20444540
v -46.66644770 -68.00461078 85.91172875
v -49.40258102 -82.51595220 92.05975988
v -38.46173808 -74.67484144 76.97728253
v -51.21207908 -81.67205045 76.32151637
v -53.71542224 -82.02694529 91.53644877
v -38.94019059 -79.57836900 77.96789716
v -51.35367396 -84.73101828 78.85593958
v -40.83840508 -77.32018539 91.44701939
v -37.13472303 -72.74007252 79.25112618
v -57.10451141 -77.58269831 89.39431767
v -60.15517996 -87.59424569 89.85447370
v -50.50584087 -87.64975296 89.27619637
v -38.39744950 -72.28382273 78.03939109
v -55.95036857 -70.29150926 89.48930371
v -59.17008164 -80.80128466 79.08861016
v -41.01911734 -77.49893367 75.77530863
v -49.91713772 -85.75698392 91.84782037
v -38.47835353 -82.29656764 87.43622053
v -44.04828445 -74.37895933 76.81028583
v -42.43458752 -71.21110577 92.72784844
v -45.61581650 -88.01240922 88.41913609
v -44.17521165 -73.96401248 77.12884834
v -45.75609037 -76.40228082 75.98428987
v -50.91715170 -66.68828222 84.70437838
v -38.42356687 -68.45946513 90.75791935
v -57.78548417 -78.55282369 78.82365552
v -52.77623133 -86.80682097 86.75030518
v -37.76504861 -76.80949874 81.00327612
v -62.10395616 -80.40669360 88.53744611
v -63.69341731 -86.36971081 87.27571319
v -38.06497338 -71.54153281 78.82670404
v -60.96105455 -85.27227007 89.94849147
v -56.39558790 -86.91676171 90.74766726
v -48.35231780 -84.96060910 91.82963376
v -56.37717360 -69.62161673 87.73390409
v -45.38219065 -72.09584641 79.01281399
v -34.72455783 -71.15076469 84.49416657
v -54.63916788 -80.72174547 76.91685318
v -52.23088459 -67.33118472 82.21963319
v -44.39250218 -66.59374618 92.42680166
v -44.71168579 -67.12982620 89.78596793
v -48.15878501 -66.93391524 87.00100616
v -41.27518188 -74.41739954 76.64102707
v -48.21379982 -66.95575922 92.56636443
v -61.44103681 -81.19834893 83.32606735
v -46.13906164 -66.41494598 91.35361173
v -34.81044371 -71.72152788 84.67244392
v -56.15201057 -69.72452197 87.07702278
v -63.78189080 -82.33337096 88.05203279
v -42.66490206 -75.81587039 75.92754358
v -41.37517144 -79.46742532 91.00551608
v -61.69114071 -88.50240464 89.07673587
v -48.57366664 -69.92058722 79.49324308
v -39.38877932 -68.15148455 90.10007549
v -48.39495736 -66.38757499 88.99438943
v -53.00104679 -79.80747955 76.48028454
v -44.64042309 -69.27545718 84.61102079
v -50.55208706 -70.30771195 77.72694917
v -36.97965730 -69.30230074 89.59975422
v -58.52565152 -75.56926568 88.07647344
v -34.72408868 -71.33924779 86.78263802
v -50.43151218 -87.62286031 89.79743571
v -47.13697620 -71.61936019 78.39761862
v -62.37694416 -85.33962696 84.85987593
v -56.70532211 -71.43501998 88.48331944
v -42.96602687 -68.64410916 86.68415803
v -62.25071403 -80.38365628 86.63851529
v -60.76066591 -83.41387198 82.15165501
v -40.54158301 -84.41998659 88.22022668
v -40.34259610 -80.65968491 76.59746290
v -56.68088468 -71.04031445 87.69992793
v -58.16788110 -88.24193512 88.65046446
v -37.93865431 -69.54569047 83.80043706
v -63.22282313 -87.66914950 87.64377533
v -49.08781107 -86.19483189 91.64695879
v -46.97356638 -66.43296512 92.20113107
v -37.48633924 -72.62281420 78.15432998
v -41.70794243 -75.97998529 75.92011792
v -56.83103010 -85.49809149 83.92980550
v -57.36883981 -73.95158987 88.42528414
v -54.54997738 -86.81837139 91.08944549
v -49.79839814 -66.13790315 90.42020590
v -51.68246369 -71.64576700 77.22584606
v -54.88004847 -87.44548608 90.52470022
v -41.09737296 -67.49650618 91.70865074
v -63.95572172 -85.04915042 87.39330869
v -39.45370731 -70.37798887 80.97639806
v -46.53390332 -67.78619024 93.36021593
v -44.93146107 -67.99680328 87.13994723
v -46.27536104 -73.23109467 77.22092881
v -50.95104651 -70.99427753 91.65361731
v -44.62778404 -84.64307002 90.80708983
v -51.87903611 -68.91810008 78.55136629
v -61.22220642 -87.59141587 86.11260915
v -47.04938418 -67.05640217 93.17449170
v -50.35971202 -66.10311968 87.11323874
v -55.04094986 -73.62075707 89.84970112
v -47.35639406 -76.38187560 92.95371386
v -49.64640041 -78.22064601 92.17682786
v -47.56146404 -86.25395664 80.71655603
v -40.04468696 -86.47304262 84.15435010
v -37.07859375 -76.35074766 82.89387984
v -53.07273639 -69.80705960 77.99746451
v -44.46524305 -86.08075237 78.20780186
v -53.84618512 -79.14694999 90.68417736
v -50.37226577 -69.72256431 91.87619687
v -43.36273539 -87.84996069 86.94452873
v -52.30014331 -66.21986302 85.89128587
v -53.75696600 -85.92690848 84.82876940
v -55.93665141 -84.54506914 91.10300333
v -58.08285298 -87.56650852 89.80966077
v -51.54572281 -70.01546778 77.72372213
v -42.22276772 -72.64237641 78.70300734
v -56.43508252 -73.08404154 82.68409821
v -60.69079721 -78.41411834 87.60802400
v -47.88514099 -66.47370522 91.75197661
v -47.66935556 -86.78386077 82.67085744
v -36.68370228 -74.69048997 82.69814548
v -53.15821896 -85.76016590 84.32902743
v -58.91891265 -75.87873435 87.18211225
v -54.39306924 -68.81169575 82.60222236
v -55.73104789 -67.77574179 88.24507261
v -57.86465882 -74.17572571 87.75359618
v -43.34323155 -70.03456484 83.70404516
v -37.59474665 -68.95953979 87.28386645
v -37.61370319 -79.60243118 87.92144851
v -54.76889217 -70.52111809 80.01832269
v -36.44000834 -70.32760300 82.34460288
v -57.23549055 -86.11219057 84.80727927
v -50.02539375 -69.60614644 78.68703788
v -58.81727633 -78.39629142 80.32533965
v -53.40823658 -69.22545520 78.57837226
v -40.18656691 -70.15126369 82.38504287
v -38.47249999 -78.87874682 79.05547242
v -60.93567080 -88.02785968 89.55632312
v -43.40872462 -88.03366801 84.77604637
v -38.47132904 -77.05597273 77.70352803
v -40.22112562 -67.81925266 90.88120654
v -52.91608205 -67.80993093 90.60975082
v -63.32663808 -86.49841617 86.57496028
v -54.37208211 -85.29262184 91.32244439
v -43.41441954 -78.84468312 75.62603942
v -41.71213080 -84.23030054 89.28525681
v -49.04311715 -74.19528890 76.55510590
v -53.26202315 -87.28469899 90.65958804
v -37.73065501 -71.98915114 78.45922676
v -42.78051610 -86.49826444 79.60681441
v -55.51452265 -85.50093215 84.01157642
v -55.29125098 -70.55537630 83.41977020
v -40.57759896 -82.08166637 77.30333741
v -44.33509675 -85.41811429 77.78072585
v -57.84034107 -74.08844898 87.34381949
v -51.54102745 -69.50253865 91.30613328
v -38.02621519 -70.68883770 80.22855517
v -57.61819935 -85.61248354 84.08951508
v -51.26957621 -67.58249099 81.79492868
v -45.03828918 -87.97250451 85.03801492
v -54.36653118 -73.61097218 78.07000182
v -61.61217197 -80.19532074 88.81275951
v -47.78127353 -72.74226395 93.09184374
v -44.37030347 -66.88811384 92.92097878
v -55.87122835 -72.57532724 81.16128867
v -51.82163190 -66.63975156 84.54874935
v -53.96057903 -66.30083067 87.81631188
v -62.18570639 -88.06260314 87.31738640
v -38.52245760 -82.24986871 80.87620279
v -58.46253881 -79.88164622 78.83139753
v -51.77625803 -86.85933961 86.72822283
v -45.45251568 -88.07504517 87.80033279
v -58.14072247 -81.14958079 90.10412669
v -47.12680788 -69.49308515 93.28012966
v -51.33341289 -68.71968080 78.96325638
v -39.84153788 -86.40556039 83.24503346
v -44.02917593 -87.59482160 88.16187525
v -58.39625012 -86.60603292 90.23059342
v -55.98265484 -84.08753338 79.77320611
v -55.88091475 -80.63162727 90.52154711
v -48.42538206 -80.95307528 76.22187379
v -60.11987286 -81.98958947 89.87014678
v -44.60107476 -87.01456954 80.66899250
v -55.68612774 -71.79017999 89.58719787
v -51.21249947 -79.95927853 76.24694788
v -61.70010434 -86.31446733 84.91946914
v -54.09388515 -83.70339601 77.58553305
v -40.08081371 -79.16481816 76.23455676
v -59.83571661 -82.54512782 80.03001679
v -60.84207501 -81.86128856 81.64530255
v -53.70959896 -87.54113033 88.33844786
v -44.77088548 -87.64472648 82.77588726
v -60.67881524 -78.62260876 88.47256652
v -62.12877942 -83.81609689 84.13794745
v -52.38922568 -81.05645683 91.62192443
v -62.83969117 -81.99591065 85.65163413
v -47.22886126 -83.12144729 91.97035061
v -63.32967281 -85.49863664 86.17727343
v -61.80619427 -80.68820365 84.71111513
v -43.94693799 -75.74159269 76.00683770
v -60.71590928 -83.81477366 82.49594052
v -51.49025967 -66.79760875 90.73965564
v -57.33179895 -86.86840537 90.46765334
v -42.58811834 -87.64870734 86.51652996
v -43.07736573 -67.20725315 92.72035802
v -39.34011926 -71.39430228 79.21338098
v -48.93719666 -79.41809671 92.21707729
v -44.79638596 -76.19608146 75.88162802
v -37.45233877 -73.35353503 77.98525406
v -40.04369136 -70.88392176 80.35549437
v -46.46739706 -73.09636363 93.38846539
v -56.44890622 -81.44090255 77.46389232
v -57.65907861 -81.13426967 78.03881218
v -35.54709725 -69.71161159 85.34742587
v -36.69980507 -70.55386655 81.67730361
v -62.09373540 -81.46983244 84.55281589
v -37.54966342 -74.71704201 79.23235385
v -39.70136523 -68.20890189 89.46841842
v -56.50980609 -70.45371704 88.75818298
v -49.12716748 -70.00144447 78.87958643
v -53.02899912 -66.23430869 86.30212696
v -49.85445107 -82.47306058 76.42037996
v -55.67869286 -86.24307501 85.26782488
v -54.10013393 -87.47024085 90.42237641
v -42.27566786 -86.02959768 79.27656110
v -37.16557874 -76.33400212 88.77317681
v -49.94857295 -66.50885783 86.04362715
v -52.09234684 -67.06741941 83.29987897
v -44.14476371 -78.26656049 75.67815234
v -47.27181495 -70.70483257 93.21470971
v -62.96577907 -81.16041957 87.42293570
v -58.64372392 -88.16086320 89.16814289
v -46.04611562 -79.20587154 92.32933656
v -62.06759923 -80.08965586 87.24240387
v -61.52105146 -82.45323806 82.94713276
v -57.53110532 -84.52055812 82.16034211
v -63.94625584 -84.79680478 88.35072806
v -58.87806633 -87.84939346 89.46786425
v -50.33503002 -80.47184919 76.19176943
v -51.21078198 -66.05262273 86.70057192
v -43.81291872 -84.38073572 77.34581512
v -39.14857220 -77.41268288 90.28754274
v -61.07075552 -81.56461821 82.31251203
v -64.05703660 -84.33749767 87.52970033
v -63.25727486 -81.78354062 87.00498893
v -45.15302368 -81.68062151 76.31441529
v -41.98566405 -78.82408422 91.53649526
v -57.73258854 -87.97275982 87.57687659
v -34.92539339 -70.27336556 84.88305943
v -56.32731397 -75.95160972 89.35083408
v -54.43244626 -67.28785616 89.83587132
v -54.96858425 -70.48841386 81.23583546
v -37.82218233 -73.97135531 89.86191237
v -56.56415328 -77.72347030 78.30284994
v -45.54303419 -70.17217512 82.30577684
v -50.71179522 -67.18844823 83.50921035
v -48.86142794 -77.90557839 76.17364143
v -39.08362821 -68.33980587 91.30686451
v -53.96284432 -75.87072694 77.37508864
v -41.30270430 -87.41660084 82.64717720
v -60.75624758 -80.40826286 82.36939546
v -41.92414660 -80.01835784 75.77994195
v -53.31028175 -67.28993746 83.90790152
v -39.54683016 -83.79915978 79.93535336
v -40.27926960 -74.44925605 76.57721900
v -60.89467810 -85.23376194 83.86946676
v -62.86269525 -88.17714163 88.48232520
v -40.99173764 -85.52831294 87.87807942
v -58.97136423 -83.83242678 81.33926534
v -36.94341394 -72.22984628 80.05660297
v -60.64659435 -85.75906377 90.01119337
v -60.69661006 -87.16524091 89.89684401
v -59.53364219 -88.29757393 88.92825288
v -48.66894088 -76.80545001 92.67228577
v -41.50665998 -87.47839657 84.61814027
v -44.59302390 -69.19415897 93.24795375
v -36.72992266 -69.38193044 85.49060717
v -41.21126370 -69.60988439 92.35963578
v -48.23519236 -70.94515722 78.46173221
v -62.16345056 -83.09147723 89.37722507
v -44.78685964 -70.54507055 82.28355857
v -52.22427304 -70.33915973 77.58094714
v -60.91410244 -82.00425638 89.67283142
v -59.81743209 -86.70212986 90.00968913
v -39.04870923 -76.01128590 76.55509694
v -55.27970851 -72.76779407 79.21822345
v -56.80524119 -86.41146039 90.76822292
v -57.84383029 -87.89229812 89.52737404
v -40.51504651 -85.77617558 80.46098371
v -55.99447163 -74.97585306 78.97469953
v -51.77460262 -82.46195334 91.91534962
v -62.78913282 -85.64101921 85.39089772
v -57.95643338 -75.46726560 84.04481159
v -56.53854998 -71.89510994 88.91876742
v -48.77535979 -68.40020953 82.60476809
v -46.55176160 -85.27277335 91.39249507
v -61.95841725 -80.85769674 88.91760337
v -34.82482729 -72.98074667 86.35763991
v -46.70585273 -72.30431932 77.89791575
v -37.56465342 -76.39537992 89.17696024
v -63.65916785 -86.88578662 88.24929300
v -36.33220640 -77.20463476 86.14781065
v -53.11809513 -85.28574527 91.56103931
v -56.51979118 -69.42471493 88.78847719
v -50.98539954 -85.07756107 80.66102770
v -48.75380392 -81.43444891 92.12477123
v -60.50356687 -82.77826074 89.91519637
v -41.87000829 -87.70116311 83.32899944
v -36.86892398 -71.51459837 80.45185246
v -37.35251702 -71.99560488 78.63364917
v -47.53113824 -73.71563194 76.66444210
v -38.55649018 -71.39836175 90.84768224
v -45.26558524 -72.67082175 78.21606702
v -49.88639866 -71.20572169 77.34884757
v -50.87675506 -70.90662214 77.36643188
v -37.22565826 -72.98713767 78.62243255
v -55.97382747 -73.69412779 89.46162245
v -49.02355439 -87.50325770 87.30964601
v -61.01601480 -83.07939675 82.26802625
v -60.12764400 -88.45395232 88.71884535
v -60.69017842 -81.23586067 81.42715718
v -47.86148131 -68.38479649 83.73085250
v -50.68413140 -68.32701598 91.54325468
v -57.61420770 -74.75596504 88.57077454
v -52.45352176 -83.46752563 91.86491069
v -38.72333091 -80.66350724 88.61796184
v -45.30461324 -80.55653476 76.09737332
v -39.39160788 -73.08826792 91.15993077
v -55.82215514 -68.72205745 89.54638102
v -47.12369215 -79.12208722 76.06019283
v -60.85116164 -83.53256442 89.87884840
v -63.33329565 -84.03655831 85.96270794
v -53.64157209 -66.21531920 87.15149816
v -46.64648037 -85.57347634 77.67629793
v -38.32109766 -68.43848758 89.35242688
v -53.65475902 -67.71296038 83.13329579
v -59.56190571 -76.85217381 87.13567396
v -47.35206983 -72.46290104 77.43490273
v -45.31158517 -88.07097594 86.54354197
v -43.36357324 -79.93126321 75.80596916
v -48.31147968 -67.47140571 85.45779672
v -58.94677703 -85.24448424 83.55936812
v -45.89804095 -70.65425871 93.39985907
v -52.99027766 -71.57409897 90.73067685
v -48.03628565 -87.40726612 90.82800445
v -53.20806423 -67.62647522 82.06869647
v -55.52877574 -86.83907368 91.02697251
v -50.30306553 -85.16853238 79.39796249
v -36.61685015 -74.16238828 88.66108787
v -62.13398342 -83.00279574 83.96720043
v -37.40536713 -75.58093729 81.33222480
v -55.36161024 -77.66330023 77.57318383
v -44.53734149 -73.18351845 77.87781879
v -53.20724468 -68.53716560 79.21777065
v -61.33952603 -84.40231064 89.79071734
v -45.98190592 -73.60364923 93.36624415
v -38.34555165 -83.44021236 85.25604518
v -38.74859597 -76.97804013 76.87953369
v -54.85454352 -84.19662748 79.31392825
v -50.60005883 -85.25842678 91.85184024
v -49.77577294 -67.20659229 91.66889784
v -51.99474155 -87.03923292 91.05250461
v -61.83598453 -84.93001959 84.18172085
v -55.56613405 -83.31521121 77.74268622
v -62.21724801 -87.62576714 86.52112085
v -39.66492595 -73.43605888 77.14870202
v -53.63601537 -69.94545983 78.38471962
v -44.85252548 -80.57077677 91.88412755
v -57.76512464 -77.48416267 79.47728537
v -51.35688695 -65.82761791 89.50268867
v -43.14900014 -69.05871438 85.69755124
v -47.21676829 -74.69689594 93.18876183
v -38.68365394 -71.48146103 78.94432020
v -46.23842040 -80.02063668 76.05432435
v -36.39885679 -70.70827704 81.91762410
v -44.56841690 -85.01810904 77.47467337
v -40.30032043 -73.92427331 76.89487654
v -44.37176388 -85.77676663 90.13370030
v -42.84397362 -87.44573508 87.29502980
v -49.76425168 -69.28972407 79.46616113
v -38.18430717 -75.65941815 77.29806339
v -47.26330065 -87.56735248 90.36037003
v -37.26575847 -79.92302568 86.40550877
v -52.61639878 -69.36085695 90.90610978
v -36.39900264 -76.65293499 87.69847573
v -59.71751180 -77.41157663 88.42888374
v -63.42160400 -82.87060830 86.42796846
v -52.73537614 -67.62668083 81.36985458
v -51.86981090 -87.36755674 90.61082804
v -54.64498160 -67.82788203 85.67642657
v -60.59745206 -82.54994418 81.13824422
v -63.01144242 -84.05926202 85.37103634
v -55.38237655 -70.23661415 84.32073820
v -51.34269171 -67.79087211 81.00977268
v -53.57247468 -84.47899307 91.58354600
v -40.44745936 -83.11781614 78.26119764
v -39.79579033 -81.38442262 77.61841216
v -50.04099525 -81.76732057 92.02514970
v -61.19994256 -84.36923738 83.29463835
v -51.88284716 -87.48926677 89.09621697
v -54.56886661 -87.76437771 88.75959697
v -57.84680710 -81.66077601 78.11481267
v -37.57232879 -75.64396694 80.64324446
v -58.80959261 -77.36482224 88.93604209
v -49.12249131 -66.57063623 91.44196162
v -43.10403364 -88.06258854 85.82241480
v -46.42043521 -87.53938996 84.21413695
v -38.83967725 -84.32855945 82.02919927
v -47.00337145 -85.96619129 78.15659174
v -48.36157561 -72.11045873 92.86926266
v -40.60545162 -79.77431967 90.45251577
v -56.16033137 -74.02201501 79.93006728
v -44.14472877 -73.57959414 77.51647983
v -42.47588056 -80.39820698 91.24903635
v -40.61947203 -77.07603538 75.89967382
v -55.66490528 -82.79909602 77.45878660
v -46.61803583 -86.41900515 91.02026845
v -53.55327546 -70.89860693 78.00699868
v -51.38677213 -67.09600338 83.34214669
v -60.94326813 -88.45277532 89.21365590
v -47.39774231 -83.87591036 76.76424899
v -37.24589324 -71.58688919 79.38561742
v -43.50314876 -87.74899906 82.62428173
v -59.63982443 -81.16152385 89.81437049
v -47.47723696 -66.50949416 89.70553864
v -61.55000893 -79.77724149 85.88408340
v -47.33460966 -66.42325314 91.33104773
v -58.38094168 -76.49130358 88.73230145
v -40.61854060 -68.70441056 92.13346167
v -38.89592727 -70.15668457 81.26831170
v -46.10573304 -66.33136152 92.17717195
v -52.16482583 -78.79535515 91.16915654
v -36.10452624 -75.48086677 84.75768083
v -47.08570444 -84.50291265 77.02287354
v -35.81355403 -75.64712131 86.81165275
v -46.15315547 -81.29502929 76.22507209
v -48.88710547 -82.45502615 76.44046708
v -42.98767038 -75.29048988 76.20498731
v -51.00697126 -65.83577822 87.90822500
v -62.40101644 -85.90291008 89.55363501
v -52.38149772 -73.70582400 90.89914661
v -40.46773653 -71.70821597 79.17565470
v -35.69286211 -74.38983048 87.56990827
v -48.43160053 -83.07075773 92.03569151
v -45.80866032 -80.55329749 92.06577477
v -58.54846525 -78.77742246 79.42206105
v -42.36769243 -69.55025687 92.76509079
v -56.95519964 -75.28380294 80.27438396
v -54.43046577 -78.48986055 76.98230927
v -58.55722509 -77.58056797 80.88123291
v -49.33130029 -85.46751450 91.94640438
v -55.37597990 -86.50147714 91.12668775
v -50.61199936 -84.12285261 77.04146971
v -51.68213382 -67.86902154 91.07380653
v -40.51108350 -73.09725069 77.44244657
v -50.37698861 -86.95884118 86.29546097
v -35.40504194 -70.54626356 83.55623974
v -60.13493125 -83.05721909 81.02847513
v -62.81885214 -84.60506013 85.15776431
v -35.80626705 -75.30385927 85.56445689
v -46.43078107 -67.56867862 87.06782747
v -51.13922304 -78.19184240 76.29583536
v -58.86046506 -84.56543947 82.57366555
v -45.24595059 -66.60503216 91.05233981
v -43.32886263 -70.11044679 92.98741359
v -45.60149080 -66.53079756 92.86678955
v -59.68062816 -77.24605760 86.37998083
v -42.11118449 -67.16690048 92.28007428
v -50.24616138 -65.93776527 88.26475941
v -51.02264865 -65.76136823 88.85474832
v -58.35445182 -75.69899017 85.25618390
v -37.64875582 -70.27070995 90.30752915
v -38.48654597 -83.52218457 85.87263163
v -36.95048507 -72.82151557 80.28378709
v -55.67967007 -87.52968769 90.49054365
v -47.96420644 -76.34246355 76.20323040
v -40.58506160 -72.51998702 78.16029919
v -43.67370686 -88.07666523 85.68132183
v -54.71803525 -69.63232658 82.20286368
v -50.62275203 -83.12227272 91.99787948
v -43.43018290 -82.24055213 76.46917063
v -50.87540289 -69.00702725 91.55488145
v -38.92992568 -74.00273007 76.88500878
v -39.79757744 -69.11507194 91.77777963
v -42.17215213 -70.40218578 82.96080932
v -49.90973154 -79.23346072 92.04066824
v -54.20631474 -66.98165725 86.33607771
v -59.09247651 -78.97250354 80.06625885
v -55.48204158 -79.00342270 77.33544162
v -59.98466702 -88.33827924 87.96768451
v -52.19906503 -73.37194376 77.05605373
v -55.33434718 -68.81629066 85.82563358
v -54.92696636 -67.13826746 87.41342352
v -57.09636969 -82.96724356 78.06168336
v -54.78104586 -69.28235795 83.51761341
v -49.22526426 -67.34915262 84.67836670
v -48.57874078 -83.22607276 76.61411484
v -45.77260498 -85.37932840 77.51711184
v -48.36375734 -68.99301876 92.86626450
v -46.15391028 -87.12304605 82.17229010
v -37.71713002 -79.76325018 82.77669723
v -36.67646925 -73.35520210 81.82566780
v -53.39632646 -87.49825842 90.21641457
v -42.26964844 -87.65070343 85.75468456
v -45.88286333 -86.32551836 78.83638930
v -62.21178969 -82.48484796 84.20889576
v -45.46646904 -71.39228744 80.05198373
v -59.16752181 -83.21821796 90.26899815
v -50.69893654 -78.72980405 91.77536452
v -37.47751753 -77.02837031 82.13216368
v -44.47978484 -67.27636535 93.08975172
v -53.39742588 -68.53687623 90.54878888
v -48.41587745 -70.75675167 92.83644956
v -60.85033407 -87.62588357 89.77906559
v -40.44681910 -67.92207247 90.17498508
v -63.65007032 -83.49141110 86.74409504
v -58.69163030 -76.58939535 84.20556784
v -37.11692914 -68.92650890 88.34374804
v -56.87860381 -73.22135397 88.81359734
v -52.83090239 -84.11519124 77.55046650
v -41.37687538 -73.13286834 77.75876151
v -34.75536537 -70.26316985 85.62137596
v -37.59592474 -80.25936728 87.45301088
v -50.30621470 -65.98880979 89.56667257
v -36.98812414 -74.07475584 81.45928323
v -60.10936391 -77.89049528 86.14489643
v -52.77543173 -71.31091414 77.51039966
v -57.65834651 -74.15710623 85.90982198
v -52.33157203 -77.17360970 90.86785712
v -39.39656879 -72.18625374 78.14203723
v -55.79095075 -87.35238693 86.90026926
v -46.95238786 -79.38048834 92.33628380
v -40.70355397 -86.75910195 81.66457256
v -44.18526389 -66.72468306 92.69775998
v -44.85464627 -86.86635979 89.73382691
v -55.10891460 -69.14068865 84.82360920
v -47.21470519 -70.53114342 79.88218703
v -58.59655127 -83.08280875 79.42890265
v -61.23831030 -88.50132570 88.17614493
v -55.26015689 -87.86448559 89.71175032
v -44.48145202 -82.02242636 76.38314853
v -55.09696098 -71.54028720 80.09812401
v -47.65089712 -86.01626751 79.36665409
v -40.59877255 -85.03547444 79.59907252
v -53.72694803 -83.50874742 77.29044967
v -49.25494784 -85.49909929 78.88885827
v -40.01670977 -78.23488279 76.07499287
v -43.74188322 -86.97547782 88.82169542
v -53.44514993 -82.99384205 91.71233513
v -50.07487655 -68.56616463 80.50272215
v -48.76010425 -68.77421924 81.69953431
v -55.38024725 -67.60440864 89.36715429
v -60.68794433 -79.13598527 84.80831259
v -45.35849404 -86.58923426 79.69330179
v -34.39029638 -71.09997009 86.05896906
v -45.40845094 -87.34576685 89.62943938
v -47.38821963 -66.70794658 88.82384201
v -36.91693164 -68.92962489 88.99327956
v -52.61525942 -84.23318469 91.75380038
v -51.83887225 -84.17342893 77.22872474
v -39.79522825 -83.59349334 88.09144551
v -63.48862306 -86.98236034 88.58566844
v -53.33395052 -68.34629730 79.74976830
v -39.95641940 -72.05866449 78.43807135
v -40.34908775 -85.28001205 87.46597884
v -38.37624408 -80.31710351 80.24537036
v -42.16370010 -76.71064115 92.23786974
v -58.51240433 -75.99319958 88.45536128
v -51.57838472 -83.99294929 91.95471531
v -38.73429629 -68.88656837 91.14657948
v -62.54749965 -87.78785147 89.25367055
v -40.30600292 -83.57319730 78.71111766
v -56.13708651 -83.86647089 78.97027589
v -57.49765858 -73.42129419 87.66110574
v -57.50757195 -84.45313546 90.78686447
v -40.75474620 -87.06349959 82.22923327
v -49.77907219 -72.67519836 76.82469200
v -47.71646001 -69.29645093 81.59950038
v -44.77374631 -70.34295742 93.30369888
v -43.53804866 -67.05054744 90.78715781
v -59.61730763 -77.04631190 87.83407591
v -44.53952936 -87.88870360 83.83278992
v -48.14108066 -81.83391046 76.31561657
v -49.68131676 -67.85344977 91.94877066
v -46.61685733 -87.80015174 89.67539375
v -46.03151855 -75.05053361 76.30119189
v -61.09628454 -81.24136797 89.41560709
v -49.45585389 -73.96699458 92.41406586
v -36.94233142 -78.42519274 87.57953498
v -49.98118591 -66.71717884 91.30827787
v -54.04290981 -69.59136900 79.11948281
v -37.92952896 -73.07586639 77.56814464
v -41.09468406 -73.02984177 92.13333117
v -35.23364836 -71.00981621 83.68367847
v -59.83352011 -80.05432586 80.39693251
v -58.32708348 -80.50407973 78.52911781
v -50.05563427 -74.72750597 76.54481012
v -63.59409789 -82.44323323 87.10940362
v -48.79425463 -69.32133143 80.50357708
v -58.38518998 -84.23574489 81.80989177
v -42.32273761 -87.17516483 87.10888863
v -48.40126459 -72.92078632 76.83677087
v -37.88054845 -81.87070929 85.79506661
v -56.94757952 -72.03993605 87.94953705
v -47.07626421 -86.07093760 78.72714512
v -36.99341654 -70.18336390 82.00505139
v -53.35555321 -86.77354665 91.14222491
v -46.16149608 -66.95491075 89.19011621
v -55.87749205 -87.86984527 89.90317625
v -61.49381236 -79.91853435 85.37452446
v -41.49934622 -75.27547249 76.18078847
v -61.58549820 -83.42861333 83.25487624
v -42.04556107 -79.46316799 75.64961209
v -42.63717713 -73.49765714 77.59334124
v -56.90690443 -80.54266513 77.71954620
v -52.37316762 -69.16768356 78.26104292
v -55.28921489 -74.34998496 78.57795086
v -54.72578666 -82.34296485 91.28429783
v -40.44532940 -85.61303757 87.20887405
v -35.41826227 -69.80130129 87.23894966
v -51.26977440 -83.28769593 76.74285952
v -57.90742893 -83.90181500 80.66101286
v -37.85058903 -75.27378707 78.26638260
v -55.66771234 -68.61657987 86.78410696
v -36.05344768 -75.41209590 87.65808867
v -52.19052331 -85.75859509 91.63503481
v -61.66678317 -79.63074843 88.21177843
v -56.17007577 -85.02628146 82.95493504
v -44.33319684 -74.74901116 76.54268558
v -62.80897364 -82.25571072 88.96822154
v -57.64878495 -79.62524805 78.29353637
v -42.77955946 -74.67457310 76.61760136
v -58.97658943 -83.88878622 90.35524973
v -39.12535868 -85.48218550 83.36417370
v -45.53055274 -75.74348486 76.10361346
v -37.11344577 -75.34377137 82.03456188
v -39.28319204 -68.08149611 90.88465368
v -46.91071481 -69.41029641 82.37269473
v -63.99748688 -82.84552316 87.74478602
v -42.59123881 -67.03685562 91.94878877
v -43.63584118 -86.37898233 79.05575040
v -46.39700249 -83.34483190 76.63410507
v -36.39156212 -75.06844453 83.72183310
v -52.77426662 -82.28242429 91.79899307
v -61.96676716 -84.23068213 84.03468722
v -55.18029806 -73.35198026 78.80282529
v -60.90789114 -80.92893544 82.28484756
v -59.71602260 -79.49075190 80.81687504
v -57.79791436 -86.79354530 85.43661912
v -58.92516125 -85.87795481 84.26788633
v -46.42185014 -69.15137564 83.59031345
v -56.61881873 -84.36867998 81.19083663
v -43.95574383 -71.28106517 81.18878448
v -57.19803809 -74.32305664 83.47308130
v -56.70075908 -76.39819832 79.00849837
v -63.73461263 -85.98178406 88.28572613
v -53.05879313 -65.87423490 89.18495631
v -39.06711658 -84.25956811 86.44385832
v -51.14876494 -77.77405925 91.55340398
v -51.07882672 -69.58038073 78.13288313
v -48.94560558 -74.68694237 92.67661897
v -49.64597814 -76.67973945 92.30770829
v -37.93685853 -77.42493344 80.46884017
v -59.02552828 -78.93382657 89.37678371
v -63.46448867 -85.92150775 88.74035491
v -49.94178554 -84.64399817 91.96514165
v -56.67890072 -74.16090423 89.09923726
v -53.66708571 -85.91384110 91.34617065
v -59.01591781 -88.32272450 88.40485295
v -52.11484303 -84.90728461 91.74483507
v -46.80415459 -75.07885648 76.29809412
v -49.80089747 -65.97949389 88.65692592
v -57.66889128 -74.10576940 88.10836434
v -37.19266075 -72.46371214 78.64298761
v -40.24770543 -68.75979654 87.03032760
v -59.55115782 -77.48293953 85.26704492
v -56.95423987 -72.50915861 88.48676856
v -36.88718586 -70.98874035 80.82293576
v -47.67545895 -67.02771121 92.96958547
v -48.38154808 -66.44683570 91.25707501
v -52.79361393 -74.24772646 77.14841775
v -56.64603607 -70.74719214 88.30102228
v -42.05634100 -70.86185804 81.81896517
v -56.21049945 -87.26361981 90.63049076
v -47.75196556 -66.41574505 90.55002077
v -43.08455221 -84.47017746 77.61427809
v -38.16392281 -70.15622904 81.34955784
v -62.97798722 -83.65694243 89.20088404
v -34.53923522 -70.49677358 86.10165743
v -54.42071930 -82.70361100 77.09488675
v -61.14005072 -88.04567348 86.88148544
v -59.52504863 -84.86632247 83.20785780
v -59.86015812 -88.21128604 89.23725946
v -60.61855847 -79.17091282 88.90736909
v -37.22801208 -73.79819761 79.66379462
v -35.55465034 -71.85656967 87.93058283
v -54.52427648 -71.18766020 78.94182809
v -57.43545508 -77.78661174 78.94635146
v -46.12686056 -66.87774624 93.20968136
v -41.64848241 -71.25429736 80.85186366
v -56.25840032 -72.55960337 89.22474152
v -60.49803237 -78.23930421 87.02256237
v -40.19657500 -68.30310558 91.87212681
v -53.18482842 -66.31793219 89.88964558
v -44.28178958 -68.09359988 93.16467971
v -47.83852936 -87.02200835 91.13824283
v -61.02824403 -86.69609748 84.92219177
v -41.36453362 -82.63753308 89.79893717
v -63.88690080 -86.08102851 87.70062316
v -42.34058811 -71.84300674 80.04533890
v -45.45655662 -84.74647968 77.18669876
v -36.43131661 -71.51260806 81.55075903
v -41.27763981 -67.52813402 92.11035359
v -40.48625489 -75.72058515 76.14952731
v -38.72380883 -69.81591438 82.40174565
v -62.97986048 -87.44467903 86.84018829
v -37.07361757 -71.43818095 79.92132311
v -56.99372764 -87.53677364 90.22438972
v -53.53788218 -66.97955722 85.27522919
v -50.75694767 -75.78309702 76.49336536
v -60.28593638 -81.50742326 80.50547736
v -59.83726078 -86.18735545 90.07931506
v -48.73211806 -68.29111784 92.67286860
v -39.29376509 -84.31624952 86.89432652
v -42.53484180 -85.15751486 78.25841322
v -45.75545419 -67.89640353 93.36672662
v -53.42667502 -67.10714496 90.33313366
v -35.98472349 -72.66229109 83.03225007
v -38.15730181 -76.77447986 78.85676503
v -42.38447315 -81.17434632 76.17219479
v -55.95919331 -68.23435397 88.06627478
v -59.87946516 -81.46239695 79.69781222
v -61.25627477 -86.63591433 89.86890208
v -61.10244317 -78.99527448 86.86267769
v -43.04810121 -86.42124915 88.91511260
v -43.88839635 -71.64598045 80.48490026
v -52.99582229 -80.96299990 76.50353175
v -41.88385028 -87.32479375 81.39625674
v -55.02162271 -75.96211941 77.83636798
v -47.76029838 -78.27585960 92.52338968
v -54.01177082 -86.41218851 85.83959757
v -56.25467415 -70.32373994 89.17795374
v -52.15996365 -87.39329240 88.23328136
v -48.85191605 -85.86931701 80.83384104
v -51.42745625 -84.67489847 78.27159279
v -50.82156341 -87.38771486 90.78443629
v -57.18920235 -87.65092740 86.80699098
v -49.17830544 -66.28368804 87.91124797
v -59.66316835 -78.51558789 82.61772239
v -50.81068493 -77.20136692 76.33568764
v -39.98338735 -77.09602212 76.07633351
v -37.05990569 -73.56452958 80.45917518
v -45.24528482 -74.67188464 93.17699247
v -42.95808005 -77.61718503 75.52823461
v -39.24838282 -85.20091481 85.03560530
v -56.18210976 -68.24907893 88.67089297
v -38.27620733 -81.40159680 81.23515245
v -53.11429868 -87.53532250 89.38361441
v -39.09263549 -68.82378482 86.87013172
v -44.43084065 -77.46919652 75.68763069
v -43.51099987 -83.39721447 76.94056985
v -53.61373127 -82.24484229 76.72974329
v -55.82929152 -83.83288961 78.59986447
v -36.93494753 -73.64868499 89.11580687
v -47.28952802 -67.90258635 93.27277222
v -43.95282149 -76.75027198 92.63117752
v -57.11443147 -72.60120862 87.14677032
v -56.26350091 -83.07603389 90.91037926
v -55.26565556 -85.91744661 84.81684713
v -44.08002265 -78.43864459 92.22308963
v -44.66598396 -66.63610744 91.40810064
v -62.93177111 -81.65826928 88.71989214
v -35.49265851 -72.35777577 83.84774379
v -37.53656029 -69.77897745 82.74077410
v -45.74999941 -77.29718284 75.90629365
v -41.63035966 -85.31760718 78.98984290
v -37.92881484 -81.19760764 87.20333094
v -59.03042371 -81.52421464 78.82680445
v -54.62452380 -68.65824143 84.18518791
v -53.76493706 -73.57771173 77.66206239
v -54.61130818 -67.91067237 89.95328593
v -38.86950844 -84.81446826 84.27879824
v -59.67138016 -79.15605635 81.26620112
v -39.04573165 -83.62982576 80.73206387
v -41.93067529 -67.31306032 91.01813831
v -58.96988138 -75.97622479 87.52034236
v -41.31613264 -72.23090638 78.85713048
v -59.31021133 -83.22953184 80.45184236
v -61.86147880 -85.97726954 89.75813799
v -59.11861082 -88.16290571 87.56097289
v -47.10160476 -82.59419296 76.44372492
v -54.33276114 -68.10846737 84.42825871
v -49.47410422 -84.71130828 77.29166689
v -48.19985663 -86.75566765 83.27610671
v -45.27506565 -66.44449795 91.93654754
v -49.17714452 -69.36815437 92.47905572
v -43.91848403 -87.42526278 81.59631490
v -54.76354148 -83.99632855 78.23778420
v -59.20384086 -77.33730394 88.75585713
v -43.32566440 -87.15922270 80.69862124
v -41.37981307 -70.56136204 82.19767567
v -50.04344875 -71.71164672 77.10052139
v -50.58902538 -87.38240491 87.83800842
v -47.48523474 -68.90593264 82.93525461
v -37.74602699 -75.42415194 79.07291673
v -51.52857265 -76.40080633 91.27821331
v -47.38741118 -66.90068216 88.02672329
v -45.59486853 -73.17023699 77.50884601
v -55.94639225 -86.78100184 85.99189404
v -47.37618030 -84.98475591 77.34028635
v -41.96534695 -82.82742876 77.04672135
v -55.94714946 -81.94191079 77.34628615
v -41.54531124 -87.36031292 81.92951000
v -37.32975118 -74.65482607 80.51163232
v -43.65205919 -76.59647668 75.69592861
v -37.47164810 -77.89544810 88.61126582
v -49.86718994 -84.88930247 77.49765862
v -41.33190087 -86.88506070 81.03228307
v -59.48600292 -84.14266713 82.15057098
v -34.86986696 -70.63991554 86.91700643
v -50.55592788 -86.56503942 91.49904601
v -39.10948963 -79.87061475 89.34382172
v -61.56533657 -81.24352533 89.22040009
v -52.83690416 -75.53334827 76.98546194
v -54.01081764 -69.94375750 90.34345086
v -50.74390639 -66.88466438 91.06080422
v -39.26046650 -69.12973081 85.38554840
v -63.21804031 -87.80376232 88.52989429
v -45.80400854 -69.03843458 93.36871825
v -35.91654338 -69.86019461 88.37007175
v -44.84537388 -83.09957568 91.35150431
v -42.45278506 -87.16716124 80.85813656
v -46.66672410 -66.63410688 93.02886076
v -40.47609832 -75.06255958 76.32276034
v -54.20895439 -83.88615077 77.88549300
v -36.88856138 -70.00572757 89.59746315
v -39.25496459 -81.93617951 78.91667068
v -62.23723616 -80.33034691 88.22526757
v -51.37550542 -87.49355787 90.03470797
v -62.95524329 -85.23750542 89.21322756
v -60.71463596 -87.48174489 85.88516798
v -54.05619777 -68.17924802 83.06368641
v -36.61988932 -76.21417720 88.25149853
v -60.67271612 -84.36198513 82.96704608
v -47.08955904 -86.73143565 91.05133424
v -52.24524087 -66.16778933 89.96311607
v -62.97290111 -87.37322366 89.08743615
v -56.46507081 -81.43705243 90.56981250
v -42.15006926 -87.78807678 84.37170430
v -55.82891437 -76.12859825 78.35511148
v -37.88396894 -68.94153574 90.49448578
v -38.97340854 -78.78026790 77.38766763
v -45.47996553 -77.67149546 92.63796957
v -47.89242223 -69.52140579 93.07444371
v -42.80465969 -69.71926200 84.35446175
v -52.84309530 -87.48481242 89.96601469
v -58.10449163 -87.48427770 86.19021649
v -52.19720068 -82.03624859 76.49757509
v -47.84025777 -87.91067421 88.36706311
v -37.09624598 -72.00025452 79.48276906
v -59.26181786 -78.26570116 81.85346897
v -53.58702660 -66.68225205 89.97413519
v -58.79698055 -77.20078539 82.82517532
v -50.82439641 -84.75390182 77.81445690
v -57.32695962 -83.32653603 78.61322794
v -57.76013963 -88.11489704 88.21229769
v -45.87787641 -84.20597449 91.43234098
v -51.42044589 -79.82455941 91.66836181
v -44.99157707 -79.22383863 92.12545373
v -55.88164716 -72.86177030 80.60528153
v -41.81830609 -67.52891037 92.40106670
v -62.71110535 -80.83507446 88.29200062
v -54.47927371 -87.13201044 90.92381270
v -42.86119779 -87.06230022 87.96161916
v -42.69566866 -83.03446813 76.92660303
v -60.78222730 -78.56009837 88.07199079
v -47.24432248 -86.25711135 80.07816326
v -64.08079873 -83.92239140 88.06627815
v -43.18647364 -76.73891543 92.49985435
v -52.33479167 -66.62706857 90.33236852
v -36.34909976 -69.74452829 84.10439115
v -52.71549384 -82.91778907 76.77095275
v -51.00563642 -86.06044727 91.69623463
v -61.40928655 -81.65800705 82.98779270
v -48.13543609 -86.02093234 91.59143238
v -44.37819884 -86.88206085 80.14669990
v -36.03126500 -71.11137327 82.41873154
v -46.92412469 -84.30663959 91.71057486
v -62.89716944 -83.08110760 85.26617666
v -58.14603916 -76.65169498 81.43072510
v -47.55652129 -66.57015853 92.32343232
v -48.19384373 -73.77512564 76.60225369
v -54.80986947 -85.26306584 83.38415362
v -61.38527750 -88.63925809 88.81043435
v -64.09984844 -84.83325836 87.93202972
v -59.63582462 -87.90586566 89.57062633
v -52.03990442 -87.13498781 87.50938104
v -48.69419933 -87.61249866 90.41888104
v -60.80906515 -80.03987137 89.17225357
v -53.87014193 -68.26094802 81.47692659
v -63.49358708 -87.51444556 88.02311283
v -59.67420156 -86.93485198 85.15970027
v -41.69774613 -86.39707678 87.62475438
v -44.67756801 -86.42385084 79.03572627
v -50.97887266 -87.48782500 88.49581472
v -49.35221640 -75.84802837 76.36591431
v -58.13063277 -82.29631813 78.30245747
v -40.28817391 -83.34651710 88.66600308
v -55.04469876 -68.37950475 85.73330512
v -57.34652486 -73.33414895 86.47637798
v -56.11358174 -78.42422736 77.77998040
v -43.44752692 -67.97846913 88.14710832
v -62.56879868 -83.96348140 89.36788928
v -41.10061153 -86.59346196 86.57919686
v -56.27635534 -74.65136222 79.61610240
v -46.59794151 -69.89174921 93.34893714
v -34.95055918 -72.58188154 86.83762254
v -49.75106627 -86.49606933 84.19407064
v -60.37524638 -82.75648579 80.92984382
v -36.88270895 -77.96795327 84.64434281
v -52.63407275 -85.52240305 83.43645531
v -43.94112780 -87.85264459 87.51173752
v -55.75238970 -67.58537741 88.91560390
v -40.07955437 -77.91556777 90.85297254
v -44.11519536 -66.66412003 91.94604850
v -49.82936046 -85.86939466 82.17207988
v -39.53676036 -81.37185244 88.99436236
v -37.07452703 -68.95717338 89.46788939
v -59.19106481 -76.49750167 88.15380467
v -55.63404886 -69.07875418 89.66353513
v -46.41083979 -86.73310167 81.17130720
v -42.76995372 -87.46937186 81.54203618
v -54.94867152 -77.43101899 89.92204401
v -46.11577459 -84.42400110 76.98824654
v -40.62199757 -70.71628580 81.30116481
v -58.07328876 -76.28117706 82.36867986
v -60.05413739 -78.69255595 83.69016709
v -60.96316934 -82.46689267 81.91120714
v -36.82750103 -71.38457920 89.33774823
v -53.01676873 -77.96663768 76.65744513
v -43.16479203 -71.09172615 81.72671421
v -52.75689415 -66.52473433 85.40175623
v -47.74286966 -69.95654851 80.24395267
v -44.47783723 -83.50700962 76.82657171
v -54.66840495 -66.71502010 88.48997180
v -52.40237309 -67.89914144 80.07006618
v -43.10139146 -85.12325291 89.76698113
v -63.06480672 -86.93052589 86.46647282
v -37.28190606 -77.63542790 83.20026190
v -46.57169017 -74.06479543 76.64166501
v -49.08410935 -85.31790822 77.96127503
v -49.09227460 -71.06721829 77.75379972
v -45.03595966 -87.20319714 81.51190355
v -37.40263073 -79.68591833 84.28743817
v -56.93373932 -85.78583617 90.83722484
v -35.77169291 -73.71223633 84.25020177
v -47.32948471 -87.70501754 86.42814649
v -52.11129729 -67.64727592 80.96972783
v -41.40463415 -71.67657083 79.85814711
v -46.11565067 -73.80908017 76.90151426
v -57.21763836 -83.86871243 80.05445848
v -51.93733937 -66.07950123 86.36985089
v -37.41796262 -71.31439436 79.47731627
v -57.30550067 -88.13253701 89.07613897
v -50.04374912 -87.56257181 90.33974060
v -56.09358165 -68.11954006 89.17256688
v -60.05982203 -83.91519279 82.15605724
v -56.16186403 -81.17229917 77.35705143
v -41.86380560 -87.26304053 86.13690699
v -42.60570960 -73.76551627 92.69346945
v -35.92661360 -70.54596928 82.76943011
v -63.68630298 -85.46737586 86.78741551
v -43.05936299 -68.92974928 92.95534482
v -51.51624880 -79.14243609 76.30249826
v -49.89121342 -87.29415977 90.92056492
v -46.52151480 -87.05633272 90.64160502
v -54.28373506 -69.00600578 80.82277108
v -46.32283818 -82.66080229 91.85591860
v -61.31132111 -79.57987632 88.63098847
v -53.63353945 -79.52604172 76.62168824
v -42.24194576 -73.90390266 77.20779137
v -53.81913080 -66.19599520 88.75444041
v -63.63839349 -83.20295461 88.71883899
v -37.43981400 -73.82127359 78.20059143
v -54.62424301 -71.33328972 90.07912961
v -54.33905871 -69.69013477 79.73619197
v -59.49764339 -87.13409690 89.92923684
v -45.91748435 -70.58103745 81.16063009
v -41.64444677 -77.08740000 75.68852411
v -53.16414493 -67.95842128 80.74839561
v -60.37213937 -87.78404844 86.41605269
v -52.74019151 -68.23957171 79.38362654
v -39.84112087 -85.54735898 86.23890210
v -38.09737348 -77.44704622 79.82587242
v -55.41319535 -68.09305379 89.58119779
v -37.57563751 -70.56219459 80.66147671
v -37.49341964 -74.26012391 78.48135301
v -43.29089812 -82.79278834 90.84386460
v -36.93901942 -77.68477941 88.01471319
v -43.94597150 -72.15357421 79.43260165
v -36.17244502 -71.72149647 82.28125747
v -59.30588787 -82.74581276 79.62151455
v -57.98290071 -77.05083004 80.34665931
v -35.48754551 -71.51822341 83.39527852
v -47.50064432 -75.49237678 76.27073733
v -43.05004523 -73.12434545 78.09446326
v -47.66970599 -72.89786457 76.99069024
v -41.57303242 -84.30086323 78.23078253
v -58.38459482 -87.10190075 90.05932635
v -52.42309678 -65.75139177 87.56129373
v -37.38614052 -72.06604458 89.76575659
v -42.94843557 -71.74204395 80.28268318
v -61.39935612 -85.12609054 83.98881944
v -41.81816587 -81.38350646 90.53833272
v -36.40192624 -77.31684557 86.90711989
v -60.57171594 -88.17054026 87.18246698
v -58.79742913 -83.46999749 80.46459446
v -60.06746455 -84.24681891 90.14169884
v -41.08368073 -78.97696892 75.68932646
v -40.44815231 -69.72194456 83.72398981
v -43.31648200 -86.03896174 78.67513052
v -58.02620736 -77.35240299 89.14204256
v -39.36800971 -85.68484175 84.29231816
v -38.34632642 -72.80447807 77.58270519
v -55.01113930 -67.46830899 86.94112733
v -38.50496485 -73.88817769 77.06486774
v -48.49375077 -66.70771351 91.95327234
v -35.65891793 -69.87954521 87.95238043
v -57.94724813 -74.37383750 86.85999166
v -35.98817365 -75.86397649 87.25167602
v -46.03752393 -87.86301750 85.57379840
v -53.89657745 -66.35596311 89.34543171
v -38.17009921 -72.86392299 90.31127599
v -41.29511754 -75.42284592 92.03154002
v -52.09570237 -79.91239092 91.44856568
v -56.44815619 -82.34325683 90.76143753
v -57.59081275 -75.67306920 81.74138739
v -39.60337911 -74.22424647 76.75846680
v -50.00345006 -81.41393311 76.28010439
v -37.85713523 -74.77104057 77.55437905
v -58.49224216 -82.52190888 90.29495475
v -49.78343538 -70.43621278 92.19689859
v -34.61421697 -70.88911743 84.73933139
v -37.95371570 -79.13926089 81.38870592
v -35.24308465 -69.81822678 86.54701220
v -38.75307430 -73.22803352 77.26580953
v -39.49556063 -85.57474933 81.97024832
v -41.93571927 -83.75627925 77.64894519
v -43.61466541 -70.75001657 82.39818674
v -54.73719898 -84.37684986 91.33308703
v -36.06156640 -69.49422508 86.14250255
v -54.71160344 -81.79698410 76.94851417
v -37.82375284 -81.35198688 86.67817540
v -42.02246519 -86.63504005 80.16771831
v -39.26069306 -72.56736350 77.76396780
v -36.19259598 -69.25216248 87.35718993
v -38.20868683 -83.10822730 83.43147153
v -47.96431247 -82.14927014 92.04946319
v -44.77761776 -87.85619393 88.31449009
v -56.64063383 -71.88209980 86.32832591
v -56.06876831 -87.74861880 87.59930839
v -39.67370384 -85.55065598 85.66489470
v -34.42000753 -71.08687951 85.50772565
v -51.80528138 -67.32492355 90.87744716
v -35.51903239 -70.01012912 84.29553307
v -39.45478822 -69.80026582 82.82702104
v -56.78423090 -72.72124501 85.43791562
v -47.97080457 -71.53911390 77.94292119
v -34.42518024 -70.65988900 85.62336447
v -52.26908241 -83.49136421 76.93284089
v -52.82557543 -87.53836610 88.77104300
v -36.16509144 -69.36520838 88.31269368
v -43.13316557 -80.89528622 76.05856674
v -39.13886209 -76.13011070 90.58624292
v -55.69228381 -69.75013599 85.79335907
v -37.20712793 -70.54533693 80.92930756
v -53.94996209 -81.06050808 91.22402988
v -56.26835709 -69.35693595 89.22075561
v -39.32018961 -82.32317177 88.34585149
v -37.54238265 -70.96606819 79.93928072
v -34.88014012 -70.58106701 84.44648957
v -57.24393057 -83.45957627 78.83778863
v -49.13405290 -71.29377689 92.54625698
v -38.76227401 -83.29369110 86.95420001
v -48.46267811 -67.57178339 92.70065231
v -59.33341819 -81.81740808 79.09098268
v -42.44617529 -83.13051257 90.28189443
v -50.01285923 -66.32787834 90.86357419
v -55.41052243 -79.93827256 77.20170536
v -51.11440100 -66.38083358 90.51520651
v -42.63784500 -87.90616595 83.85801742
v -61.91523433 -87.94309244 89.43995195
v -49.55924597 -83.64067278 92.00658639
v -51.59857979 -74.25135509 76.82075605
v -36.86586313 -73.08885561 80.90495542
v -47.87953837 -87.90161851 89.79117886
v -42.36854901 -87.63913115 82.23027273
v -45.33859780 -74.92763348 76.40209386
v -61.43305238 -79.44143743 86.47393144
v -37.19137414 -70.98614137 80.24651245
v -50.65807690 -71.83429408 77.03306587
v -38.64644353 -75.93197936 76.83459061
v -54.43649025 -77.28889802 77.23102330
v -35.85566976 -75.77624949 86.36787443
v -48.63446593 -71.90316716 77.32902809
v -54.78269880 -82.85547370 91.30782075
v -46.36185878 -66.69559744 90.07222546
v -41.57289291 -81.41350933 76.39272334
v -39.03111120 -75.10190469 76.63462847
v -50.61223937 -80.93040286 91.95296717
v -38.09935635 -74.80338348 77.25448768
v -41.40488067 -68.34984916 88.13108786
v -58.91577653 -76.08497930 86.43963249
v -60.36018659 -80.45095837 81.14021279
v -38.09401170 -79.98978397 88.25309118
v -49.26096893 -87.77795596 88.81246847
v -52.10593365 -65.87536446 89.58182842
v -48.63845047 -79.79486148 76.15301032
v -36.50869850 -70.06237030 82.85686300
v -41.13544832 -86.03615907 80.06720143
v -62.86274960 -80.96947885 87.89912861
v -39.50313293 -74.91794598 76.52654467
v -37.24678849 -79.87477401 85.63361895
v -40.69428754 -81.65956608 89.73869332
v -47.00947495 -72.24140935 93.26475006
v -57.77832707 -84.92156342 90.68091647
v -39.41720614 -73.03398464 77.40833702
v -56.82086364 -71.92413839 86.94250939
v -38.88389110 -68.53674711 88.52215167
v -57.28497999 -83.81630259 90.79332229
v -43.62909040 -87.96901011 83.95960320
v -47.23700025 -69.79983979 80.98065804
v -57.03527515 -82.23770751 77.78082273
v -36.18154897 -72.04052245 88.57933614
v -62.63677969 -87.16068205 89.38571000
v -48.67917904 -78.12687058 92.43817207
v -45.80698115 -85.77529345 90.92429898
v -59.19356045 -80.41719524 79.23108531
v -57.21857975 -85.03222120 83.13693851
v -42.98471203 -78.43402436 91.99659628
v -38.56107704 -70.85345421 79.90411288
v -45.39214807 -78.68952824 75.87819774
v -55.13153620 -86.05852455 91.20243723
v -40.91450398 -68.13974408 89.01305980
v -44.09913859 -88.03575728 84.93683404
v -53.54104015 -77.18817941 76.93468894
v -60.21418825 -83.54667111 81.72153859
v -47.66138853 -85.49571609 91.66817140
v -57.41534960 -73.20845057 87.29337638
v -58.58654207 -82.78265294 78.92763331
v -63.76695051 -82.88529490 88.44198925
v -44.89468301 -75.32421455 76.22400528
v -60.76743173 -88.60920876 88.78728572
v -63.27903759 -81.70358119 88.38478636
v -50.67248268 -76.23569415 91.73863037
v -36.76355292 -72.36162413 80.76987545
v -56.47813644 -83.38005278 78.14610256
v -53.90998738 -68.73247200 80.07055231
v -38.75523601 -82.21755469 87.88213054
v -59.85011468 -82.10960415 79.72932477
v -45.10204676 -86.46072379 90.22662442
v -47.18977974 -71.11970775 79.04177929
v -39.51694580 -79.44745108 76.78517702
v -35.84194831 -70.20028338 83.46457403
v -48.72957462 -85.75468547 80.09900404
v -41.54571950 -68.69619621 92.45923407
v -42.70127257 -72.31270089 79.31969925
v -41.05602205 -79.73509020 75.87372032
v -54.73005272 -84.41836737 80.33797738
v -52.97251055 -67.27544750 90.48093850
v -57.57530819 -76.81789028 79.87356714
v -37.88841352 -74.00518391 77.43108817
v -44.35249744 -81.93448314 91.45163708
v -42.14899468 -67.40905628 90.44665927
v -49.61760996 -68.41696534 92.11967852
v -54.14637094 -86.76217319 86.44586818
v -63.44227856 -84.77628012 88.89888477
v -41.25739087 -73.98318479 76.91909098
v -41.41605347 -69.98553410 83.61905192
v -36.46786617 -71.07787436 81.58021603
v -57.94092895 -83.46909908 79.59481733
v -53.55095769 -87.08410540 90.93067887
v -45.15646008 -87.62889040 89.09809370
v -42.88583631 -87.99572618 85.28100634
v -57.51880835 -75.75078408 88.90867813
v -38.79870754 -81.50595361 79.58755153
v -54.29205643 -71.49826151 78.49840070
v -45.49306178 -67.34866394 88.45499281
v -59.84104942 -78.13216741 84.45018178
v -58.86478387 -82.40185132 78.84834136
v -54.02943302 -67.51787386 84.98432050
v -41.38864983 -86.51415717 87.11689633
v -49.84366737 -83.71246970 76.81180404
v -38.76054280 -69.44538905 83.83327343
v -40.76470297 -69.24474931 85.34454903
v -36.27850837 -76.69816688 85.46804848
v -60.29248539 -79.61585681 82.18137879
v -44.61148948 -71.90607042 93.27388202
v -52.75324420 -67.15942744 83.39856466
v -61.46551624 -83.98060087 83.32705845
v -42.03689086 -78.50239936 75.56291114
v -40.35393088 -67.85550627 91.65695253
v -46.29928548 -68.68399648 84.75880266
v -43.33444540 -85.17907688 77.93838944
v -50.67381307 -82.72547614 76.54513070
v -46.99823033 -80.70291928 92.18049047
v -56.84153394 -75.91329169 79.48069744
v -45.88463922 -88.06277155 87.54645808
v -53.04923948 -77.77945531 90.65309497
v -53.09702175 -84.97858514 81.78074187
v -49.58466450 -70.49558570 77.93468078
v -60.22907249 -79.17702586 89.10712061
v -60.37651371 -80.51020499 89.48340777
v -53.80992780 -84.19538796 78.50981877
v -39.39371111 -84.11540876 87.29198827
v -43.34180134 -83.93042168 90.43345741
v -52.80159392 -86.42024006 91.32319065
v -42.65760490 -86.16712381 88.76373030
v -51.37589344 -86.89771794 91.26294574
v -49.13185911 -72.10045227 77.06732589
v -57.43644633 -87.21258244 90.26756520
v -41.30204052 -71.17626898 92.37795817
v -53.41153056 -87.22636219 87.66815970
v -46.90836545 -66.47580198 92.74102177
v -45.88449951 -87.51624830 83.40335307
v -37.13449683 -73.18362025 79.50016616
v -41.32950504 -87.27738560 85.10079016
v -43.64250455 -73.84863956 92.98910363
v -43.93874049 -80.04471527 91.77991220
v -49.35743426 -87.77742672 89.42784792
v -40.14206904 -86.39958700 85.05246029
v -54.40162067 -68.42115071 90.14714265
v -46.86968346 -66.51462804 90.54433190
v -44.59110184 -69.94213977 83.39176236
v -58.72907414 -79.30443280 79.29211975
v -47.82423906 -75.23884295 93.05798076
v -47.77101483 -79.45729827 92.32250883
v -60.25254814 -78.25553158 85.65149509
v -51.93711723 -65.54028617 88.73927386
v -46.14692497 -69.79277100 82.29991809
v -43.02393053 -66.94543327 92.56125391
v -44.78882806 -66.99627322 93.08212303
v -46.22251171 -71.52121329 79.21541089
v -55.36141053 -87.88149549 89.24833997
v -36.12358658 -70.15101880 88.63946883
v -62.31143249 -88.29404033 88.21736120
v -44.84741352 -76.34010616 92.89772126
v -56.14225481 -85.38927623 91.05722386
v -35.33173784 -71.17186087 87.70025569
v -62.76812112 -87.87496112 87.45394582
v -46.38074800 -86.37795799 79.49716516
v -44.62912508 -88.06655993 87.20441755
v -54.34601746 -83.07634332 77.21525876
v -59.51463301 -88.10721527 87.28833823
v -59.88567663 -84.50751989 82.81462294
v -58.45683924 -80.32435285 89.83489710
v -48.92121503 -85.18988817 77.58832803
v -58.97777595 -85.24974245 90.29215149
v -44.67447668 -71.99572883 79.58944652
v -52.12279597 -76.13699336 76.69240303
v -49.85577684 -86.95930950 91.22480872
v -40.78844312 -86.67946431 85.62553606
v -48.82384328 -67.13285066 92.26605279
v -40.22389821 -71.27583376 91.87157393
v -38.57590646 -83.94692617 82.53205835
v -48.43202385 -84.11427713 91.91635883
v -50.74722639 -67.56081979 91.35685955
v -49.83081374 -79.01830302 76.16948001
v -38.51269765 -69.07451259 85.84063067
v -46.01887685 -86.70115356 80.56381230
v -60.99448509 -80.21314374 83.29730993
v -35.31043408 -73.39863151 84.85705528
v -36.28914785 -72.35461162 82.24528335
v -44.26664369 -73.09741910 93.18218298
v -43.92789313 -86.66097397 79.64381607
v -50.69590060 -73.41147543 91.78527714
v -45.05844875 -85.05565820 90.88877033
v -58.23015231 -85.85690274 90.42020234
v -42.23123409 -77.11449107 75.63556052
v -38.19899064 -76.66433497 89.70955190
v -44.96314255 -71.59733473 80.12461870
v -46.69790756 -77.04624546 92.82718295
v -36.71749827 -71.71646127 80.83324044
v -36.91527508 -75.12462366 88.86838867
v -56.47101382 -87.73779137 90.10818703
v -37.10662620 -79.22499899 85.04336881
v -59.18676771 -87.46833954 89.79779315
v -63.48041496 -87.11816472 87.32454563
v -62.57567548 -82.32477660 84.95711293
v -48.32236360 -85.65701954 78.54785384
v -52.59723203 -84.29803504 77.83148525
v -42.89580603 -87.83247291 83.08564741
v -39.05791262 -85.22656343 82.68208110
v -50.69895098 -66.16511729 90.27847158
v -62.74115561 -81.51428126 86.01512171
v -55.77102817 -85.62309022 91.10102086
v -54.66750497 -70.73939145 79.52890134
v -50.73920527 -85.84888510 83.11883703
v -46.03934055 -76.82463856 92.85763641
v -57.05088158 -75.77810827 89.11310847
v -43.67287716 -72.74713949 78.63100907
v -39.97137411 -85.49350719 80.92019744
v -54.67539583 -66.88123693 89.35257879
v -35.08428517 -73.75439041 86.06139064
v -57.89055500 -79.31266337 78.55272176
v -36.34500452 -73.23436267 82.59430395
v -38.46361872 -77.94993700 78.44755488
v -60.38222554 -84.97395553 83.45635384
v -56.49510710 -88.07073429 89.06651643
v -35.42595097 -69.71877708 86.24010964
v -62.57632932 -86.91211298 85.91147127
v -61.67734385 -87.57897881 89.67790020
v -38.04240391 -68.55368636 90.44301018
v -48.16123344 -67.19768727 86.30073728
v -53.49121892 -83.68621739 91.65407211
v -51.29284658 -68.36900288 79.57859450
v -60.82693445 -79.66388709 83.91293104
v -47.77148318 -87.30047376 85.02225789
v -51.89010342 -68.59511827 91.11951668
v -34.53808747 -71.83052141 85.64092624
v -43.07895857 -80.04147428 91.56667589
v -50.21019552 -66.68687929 85.11297760
v -38.15943001 -78.30277277 89.14617106
v -60.21968428 -85.56055011 83.93488080
v -58.75037042 -80.90813345 78.71800526
v -43.98891562 -86.27513240 89.66663164
v -42.91499390 -76.88656075 75.62430789
v -45.00289051 -86.14774382 78.12270001
v -46.91363438 -77.74123265 76.03902532
v -55.51947488 -84.71337851 81.88973849
v -38.03222861 -81.25602572 82.13075331
v -55.06317817 -70.01689435 89.91938785
v -56.38562727 -88.00008909 88.44825820
v -62.05424105 -86.01748886 84.92884527
v -38.95849471 -80.39195491 78.40304267
v -52.79581497 -65.66860769 88.53755317
v -48.74998807 -66.27180506 90.33872705
v -39.60976012 -79.59667786 89.82950607
v -57.65678017 -83.06069807 90.60726863
v -53.72473068 -75.65538588 90.22534156
v -49.31020906 -66.11459446 89.68137065
v -55.09147568 -67.10803929 88.09662643
v -61.60515888 -82.24645894 89.44967816
v -34.92442608 -72.83450028 85.39338172
v -52.76735873 -66.80480110 84.51271972
v -36.52904123 -72.18648634 81.47279877
v -51.94026505 -70.79257941 91.19632718
v -50.62272038 -72.94105606 76.79113230
v -60.22527564 -82.06532258 80.39869315
v -42.67990356 -67.66407896 92.73799867
v -55.18673082 -83.70519506 91.20238468
v -37.95884871 -69.72504825 90.59099389
v -48.55061963 -75.14213160 92.83001604
v -35.91728618 -73.75997609 87.98816601
v -60.38200354 -79.38360176 83.06580344
v -42.13189298 -84.98271589 89.15509259
v -41.02165329 -87.32732610 83.51516125
v -59.20281226 -77.57846829 83.52423919
v -38.09819057 -82.79995987 84.20436689
v -61.52678138 -87.09375001 85.52490302
v -57.34750753 -88.03873888 89.45074345
v -38.30658534 -68.38326403 90.10513619
v -35.32264730 -74.18578061 86.93312188
v -35.33306243 -72.99703718 87.35106274
v -52.62591485 -84.61512306 79.75926767
v -61.35654078 -82.60321569 82.64530916
v -50.22055449 -67.83887877 82.17701521
v -49.14375737 -66.92011699 91.80521071
v -45.86894708 -82.87358034 76.53087086
v -57.13048606 -74.28072743 88.81107464
v -59.96290569 -80.87080100 80.16694261
v -51.85635458 -65.66017392 87.84398038
v -39.24147386 -77.31051626 76.38287596
v -58.97906723 -76.51376719 85.52808981
f 1375 1013 1339
f 1339 1242 1375
f 1339 985 660
f 1339 660 1242
f 660 985 1035
f 707 1035 865
f 707 660 1035
f 660 707 849
f 660 1120 1242
f 660 849 1120
f 373 1242 1120
f 883 849 707
f 169 30 422
f 169 114 30
f 945 114 169
f 1325 30 243
f 114 965 30
f 243 230 1325
f 965 243 30
f 114 224 965
f 243 102 230
f 224 1013 965
f 965 1013 243
f 224 336 1013
f 1375 243 1013
f 243 442 102
f 102 48 230
f 336 1339 1013
f 243 1375 442
f 442 472 102
f 1375 1242 442
f 48 102 751
f 751 102 472
f 336 170 1339
f 1242 473 442
f 442 473 472
f 751 472 675
f 985 1339 170
f 948 985 170
f 948 1306 985
f 985 1306 1035
f 472 473 675
f 1242 373 473
f 473 527 675
f 1344 675 527
f 254 865 1306
f 1035 1306 865
f 473 373 527
f 730 707 865
f 730 883 707
f 1120 849 373
f 373 849 1297
f 849 883 1093
f 849 1093 1297
f 88 527 1297
f 527 373 1297
f 1093 1091 1297
f 259 4 298
f 1370 162 422
f 231 422 162
f 422 259 1370
f 45 231 162
f 231 45 1202
f 259 30 4
f 259 422 30
f 298 4 325
f 4 499 325
f 422 231 169
f 231 1348 169
f 4 30 1325
f 4 1325 499
f 1202 1348 231
f 1348 945 169
f 266 1348 1202
f 266 339 1194
f 266 722 1348
f 1348 722 945
f 1194 722 266
f 722 224 945
f 499 344 325
f 1194 490 722
f 945 224 114
f 1325 344 499
f 1194 393 490
f 722 490 224
f 1325 230 344
f 393 1028 490
f 490 336 224
f 1028 496 490
f 490 496 336
f 230 1317 344
f 7 344 1317
f 170 336 496
f 1317 230 48
f 128 496 1028
f 7 1317 48
f 496 1345 170
f 496 128 1345
f 1345 948 170
f 926 1345 128
f 810 48 751
f 926 948 1345
f 810 751 61
f 61 751 675
f 1306 926 555
f 1306 948 926
f 61 675 1344
f 555 254 1306
f 254 730 865
f 784 730 254
f 527 88 1344
f 1344 88 1340
f 883 205 1093
f 1297 1091 88
f 383 136 178
f 383 223 136
f 178 1319 383
f 383 59 223
f 1319 553 383
f 383 602 59
f 383 553 602
f 602 946 59
f 397 553 1319
f 553 554 602
f 602 1135 946
f 602 581 1135
f 949 961 397
f 602 554 581
f 553 397 1370
f 553 1370 554
f 554 1370 298
f 993 949 995
f 961 162 397
f 397 162 1370
f 1370 259 298
f 949 993 391
f 949 391 961
f 554 298 807
f 554 807 581
f 1135 581 641
f 581 807 641
f 961 391 45
f 961 45 162
f 993 349 391
f 993 903 349
f 391 349 45
f 1135 641 1243
f 845 903 127
f 903 339 349
f 903 845 339
f 45 349 1202
f 349 266 1202
f 339 266 349
f 807 298 325
f 807 654 641
f 641 654 1243
f 782 845 127
f 845 782 795
f 845 795 339
f 339 795 1194
f 782 393 795
f 393 1194 795
f 325 654 807
f 1243 654 63
f 782 539 912
f 912 539 495
f 782 912 393
f 1206 63 654
f 912 1028 393
f 325 1206 654
f 912 627 1028
f 495 627 912
f 344 1206 325
f 1206 7 63
f 7 1206 344
f 734 1028 627
f 734 128 1028
f 48 464 7
f 48 810 464
f 464 810 1191
f 128 734 759
f 759 926 128
f 1191 810 611
f 611 810 560
f 759 969 926
f 61 560 810
f 611 560 428
f 555 926 969
f 61 428 560
f 332 998 969
f 998 555 969
f 998 254 555
f 61 1344 428
f 784 1235 730
f 1344 1340 428
f 883 1067 205
f 688 428 1340
f 1067 829 205
f 829 1093 205
f 829 1091 1093
f 829 593 1091
f 683 1340 88
f 1091 593 408
f 88 1091 408
f 88 408 683
f 282 1214 223
f 282 1165 69
f 223 59 282
f 282 59 1165
f 663 136 1214
f 1214 136 223
f 619 99 663
f 663 99 178
f 663 178 136
f 59 540 1165
f 1165 540 1246
f 995 99 619
f 995 178 99
f 540 59 946
f 357 995 619
f 995 1319 178
f 946 1135 540
f 1246 540 510
f 995 949 1319
f 1319 949 397
f 540 991 510
f 566 357 1161
f 357 566 995
f 540 1135 991
f 995 566 993
f 991 656 510
f 566 903 993
f 1161 903 566
f 1161 980 903
f 991 1135 1243
f 980 127 903
f 991 284 656
f 991 1243 258
f 991 258 284
f 656 284 1052
f 284 1237 1052
f 127 498 782
f 1243 1237 258
f 258 1237 284
f 1052 1237 130
f 539 782 498
f 1243 63 1237
f 539 1078 495
f 1237 63 130
f 1078 627 495
f 130 63 858
f 63 374 858
f 63 7 374
f 7 72 374
f 7 95 72
f 41 759 734
f 464 95 7
f 95 464 1191
f 95 1191 915
f 428 1110 611
f 1191 611 47
f 998 784 254
f 428 1236 1110
f 611 1110 467
f 47 611 467
f 1235 145 730
f 730 145 1173
f 1236 428 688
f 730 1173 883
f 1173 1067 883
f 1236 52 1110
f 688 430 1236
f 683 688 1340
f 688 683 430
f 1110 52 467
f 1236 430 52
f 1030 408 1371
f 1030 683 408
f 683 122 430
f 683 1030 122
f 52 430 434
f 122 82 430
f 1030 1371 1266
f 52 798 467
f 1030 1266 50
f 1030 894 122
f 1030 50 894
f 122 894 82
f 430 82 434
f 1227 894 50
f 1227 50 682
f 52 434 798
f 894 1227 82
f 682 836 1227
f 82 1227 434
f 434 46 798
f 1227 469 434
f 46 434 469
f 1227 836 469
f 1071 1108 955
f 955 1108 317
f 1108 1071 341
f 1071 302 341
f 955 317 1214
f 955 282 1071
f 1071 282 69
f 1071 69 302
f 955 1214 282
f 69 1165 1246
f 69 1246 42
f 69 316 302
f 118 663 64
f 663 1214 64
f 316 69 42
f 619 109 138
f 109 619 118
f 118 619 663
f 42 1262 316
f 1262 1003 316
f 138 357 619
f 1246 1284 42
f 1246 510 1284
f 42 1284 1262
f 1262 739 1003
f 138 1161 357
f 1003 739 1015
f 1262 1284 739
f 1015 739 944
f 1284 656 739
f 1284 510 656
f 739 656 944
f 1015 944 686
f 944 656 1052
f 482 498 127
f 980 482 127
f 944 488 686
f 944 1052 488
f 804 686 488
f 1182 804 488
f 1052 130 488
f 130 858 488
f 488 858 1182
f 804 1182 1023
f 858 1198 1182
f 1023 1182 1198
f 858 374 1198
f 54 734 627
f 1198 374 72
f 95 915 72
f 72 915 1115
f 759 307 969
f 1177 1191 47
f 332 933 998
f 933 784 998
f 47 583 1177
f 47 467 583
f 1191 1177 915
f 1177 1115 915
f 467 774 583
f 1371 408 593
f 1371 593 364
f 1177 583 788
f 798 774 467
f 583 774 928
f 583 928 788
f 1088 50 1266
f 798 928 774
f 788 643 91
f 144 788 91
f 928 643 788
f 643 471 91
f 643 1244 471
f 471 716 91
f 798 46 928
f 928 1244 643
f 928 46 1244
f 101 836 682
f 1244 46 537
f 836 101 702
f 469 537 46
f 836 702 469
f 469 167 537
f 702 167 469
f 1058 19 1027
f 458 1058 1130
f 1058 533 19
f 152 1027 19
f 533 1058 458
f 19 533 37
f 19 37 152
f 341 96 1010
f 341 811 96
f 480 533 458
f 480 567 533
f 1108 605 1223
f 605 1108 1010
f 1108 341 1010
f 811 341 302
f 317 1108 1223
f 811 316 356
f 1009 416 356
f 356 416 811
f 567 209 533
f 317 805 318
f 811 302 316
f 480 790 567
f 118 318 285
f 64 317 318
f 118 64 318
f 317 64 1214
f 1009 119 480
f 119 790 480
f 533 376 37
f 356 1304 1009
f 356 316 1304
f 1304 119 1009
f 790 445 567
f 567 445 209
f 209 376 533
f 109 118 285
f 1304 316 1003
f 119 1304 1170
f 119 1170 962
f 119 962 790
f 790 962 445
f 370 594 138
f 962 213 445
f 1304 1003 1170
f 1170 713 962
f 445 213 209
f 152 37 966
f 152 966 313
f 1170 1003 1015
f 1170 1015 713
f 376 209 1144
f 376 1144 37
f 966 37 1083
f 594 1161 138
f 989 1161 594
f 713 703 962
f 1144 160 37
f 1083 37 160
f 209 213 93
f 209 93 1144
f 713 1015 703
f 703 938 962
f 962 938 213
f 1144 433 690
f 1144 93 433
f 1144 690 160
f 989 980 1161
f 703 1015 686
f 213 938 93
f 938 139 93
f 93 139 433
f 690 433 718
f 686 804 703
f 703 804 938
f 139 1069 433
f 718 433 1069
f 938 804 139
f 396 539 498
f 804 1023 139
f 139 1023 1069
f 1023 830 1069
f 54 627 1078
f 1023 1198 830
f 41 734 54
f 1198 72 678
f 72 1115 678
f 830 1198 762
f 307 759 41
f 678 762 1198
f 1081 969 307
f 1081 332 969
f 678 1147 762
f 1115 1147 678
f 1115 1177 1147
f 762 1147 1132
f 1147 221 1132
f 1173 145 1067
f 145 457 1067
f 1147 518 221
f 1147 1177 518
f 1132 221 338
f 457 1270 1067
f 1270 829 1067
f 829 364 593
f 1270 364 829
f 221 518 60
f 338 221 60
f 364 1266 1371
f 1177 144 518
f 1177 788 144
f 518 144 60
f 60 144 640
f 60 640 1365
f 91 1205 144
f 640 1205 261
f 640 144 1205
f 640 261 31
f 1088 682 50
f 1205 91 716
f 471 874 716
f 208 471 1244
f 874 471 208
f 1244 537 167
f 208 1244 167
f 101 94 702
f 702 1245 167
f 369 1041 380
f 1181 369 380
f 1041 369 1049
f 369 1130 1049
f 1130 1058 1027
f 1049 1130 1027
f 1027 595 1049
f 1181 458 369
f 369 458 1130
f 595 1027 152
f 83 595 152
f 963 953 1010
f 1010 953 314
f 963 28 25
f 963 96 28
f 984 458 1181
f 313 83 152
f 677 83 313
f 1010 314 605
f 1010 96 963
f 96 811 28
f 984 617 458
f 811 416 28
f 617 524 458
f 1223 605 580
f 28 617 984
f 28 416 617
f 317 1223 805
f 524 480 458
f 318 805 1104
f 285 318 89
f 416 1009 617
f 617 1009 524
f 524 1009 480
f 370 138 109
f 677 313 425
f 160 999 1083
f 966 1083 1103
f 999 160 690
f 999 1079 1083
f 1103 1083 1079
f 690 777 999
f 1079 218 1103
f 681 1103 218
f 777 690 718
f 999 777 609
f 999 609 1079
f 1079 609 218
f 681 218 378
f 609 134 218
f 1197 718 1069
f 378 218 134
f 609 1122 134
f 134 974 378
f 1197 79 718
f 718 79 777
f 777 1122 609
f 1122 1167 134
f 134 1167 974
f 777 79 884
f 1122 777 884
f 1122 884 1167
f 1167 460 974
f 884 1068 1167
f 1167 1068 460
f 884 79 280
f 460 1068 1084
f 884 217 1068
f 830 1197 1069
f 884 280 217
f 1197 1272 79
f 1084 1068 252
f 1068 217 252
f 1272 1197 830
f 217 525 252
f 79 1272 280
f 217 1313 525
f 1272 131 280
f 280 1054 217
f 830 762 1272
f 1054 1313 217
f 762 131 1272
f 280 131 1054
f 1313 1054 1059
f 131 1059 1054
f 762 1132 131
f 933 1235 784
f 131 1132 521
f 131 521 1059
f 1059 521 1075
f 521 561 1075
f 515 145 1235
f 1132 338 521
f 561 931 1075
f 521 338 561
f 338 1365 561
f 338 60 1365
f 561 1365 931
f 931 1365 1316
f 640 1316 1365
f 31 1316 640
f 706 716 874
f 706 1205 716
f 261 1205 706
f 1088 768 682
f 682 768 101
f 208 1353 874
f 101 768 94
f 208 167 514
f 1245 514 167
f 729 702 94
f 702 729 1245
f 1245 729 514
f 268 1041 837
f 268 49 380
f 268 380 1041
f 49 1181 380
f 1049 486 1041
f 1029 486 1049
f 1101 638 589
f 1029 1049 595
f 1101 589 953
f 953 589 314
f 1101 632 1155
f 632 441 1155
f 441 1181 49
f 953 963 1101
f 1101 963 25
f 632 1101 25
f 635 1181 441
f 632 25 635
f 605 314 895
f 1181 635 984
f 605 895 580
f 25 28 635
f 635 28 984
f 1223 580 805
f 805 580 1104
f 318 1104 89
f 285 89 530
f 370 109 421
f 863 677 425
f 966 425 313
f 966 720 425
f 863 425 720
f 1103 720 966
f 1103 681 720
f 863 720 312
f 312 720 681
f 681 1183 312
f 1286 312 1183
f 1286 1183 715
f 378 1183 681
f 974 1183 378
f 155 396 498
f 460 890 974
f 1007 460 597
f 1084 597 460
f 1084 43 597
f 1084 252 1072
f 1046 1084 1072
f 252 525 1072
f 525 692 1072
f 525 1048 692
f 1048 525 1313
f 1048 623 692
f 623 823 692
f 1059 1048 1313
f 823 623 1031
f 1059 623 1048
f 20 933 332
f 1075 623 1059
f 933 1335 1235
f 1075 833 1031
f 623 1075 1031
f 65 839 1248
f 65 1248 833
f 931 65 833
f 931 833 1075
f 326 1270 457
f 364 587 1266
f 1266 587 1088
f 854 1355 839
f 854 65 1316
f 854 839 65
f 1316 65 931
f 1355 854 573
f 31 573 854
f 31 854 1316
f 573 261 487
f 261 573 31
f 706 487 261
f 726 768 1088
f 874 432 706
f 874 1169 432
f 874 1353 1169
f 1353 514 708
f 514 1353 208
f 729 708 514
f 84 56 614
f 203 818 211
f 614 49 268
f 614 268 837
f 1125 837 1041
f 1155 211 638
f 1155 203 211
f 441 56 203
f 1041 486 1125
f 56 441 614
f 589 638 674
f 638 1101 1155
f 1155 441 203
f 614 441 49
f 1175 1029 595
f 314 589 674
f 212 1175 595
f 595 83 212
f 441 632 635
f 677 212 83
f 677 319 212
f 314 674 895
f 150 580 895
f 1351 1104 580
f 89 1104 1351
f 89 1351 494
f 677 15 319
f 530 109 285
f 863 15 677
f 863 273 15
f 312 1286 273
f 863 312 273
f 1286 1159 273
f 1286 1349 1159
f 1286 715 1349
f 255 482 980
f 890 715 1183
f 155 482 255
f 974 890 1183
f 498 482 155
f 460 1007 890
f 396 1078 539
f 1046 43 1084
f 1072 1066 1046
f 558 1072 692
f 692 823 558
f 222 1081 307
f 222 745 1081
f 1081 20 332
f 745 20 1081
f 1031 1252 823
f 833 1248 1252
f 1031 833 1252
f 828 1235 1335
f 1235 828 515
f 515 828 387
f 145 1322 457
f 1322 326 457
f 1355 475 839
f 1270 587 364
f 706 432 487
f 1169 1353 976
f 976 1353 708
f 84 1282 1330
f 1330 56 84
f 1330 818 56
f 84 614 837
f 1125 717 837
f 818 203 56
f 638 211 29
f 29 674 638
f 319 987 212
f 895 674 1008
f 150 895 1008
f 580 150 1351
f 494 530 89
f 15 1229 319
f 421 1190 370
f 421 109 530
f 700 594 370
f 1300 989 594
f 1300 594 700
f 989 1300 133
f 273 1229 15
f 273 477 1229
f 477 273 1159
f 133 980 989
f 255 980 133
f 1004 1349 715
f 890 1004 715
f 1007 1004 890
f 1046 1066 43
f 43 1066 1323
f 1072 558 1066
f 67 558 823
f 1248 699 1252
f 1137 699 1248
f 20 1335 933
f 1248 839 1137
f 475 942 839
f 475 1355 315
f 515 1322 145
f 1355 573 315
f 1270 326 587
f 326 1178 587
f 1088 587 1178
f 1088 1178 726
f 487 315 573
f 502 768 726
f 432 281 487
f 1169 450 281
f 1169 281 432
f 976 450 1169
f 818 1330 757
f 84 992 1282
f 717 84 837
f 717 992 84
f 29 211 763
f 763 211 818
f 1125 486 1112
f 1175 9 1029
f 29 1008 674
f 212 1043 1175
f 212 987 1043
f 987 319 1000
f 494 1351 1097
f 1229 1000 319
f 164 421 783
f 1190 421 164
f 783 421 530
f 700 370 1190
f 1229 698 1000
f 1229 755 698
f 477 755 1229
f 477 1159 1098
f 755 477 1098
f 1159 505 1098
f 1349 505 1159
f 1349 1004 1276
f 1276 1004 731
f 1007 731 1004
f 43 776 1007
f 43 1007 597
f 53 43 1323
f 1066 558 1323
f 1063 41 54
f 77 307 41
f 823 1252 67
f 77 685 307
f 685 222 307
f 1335 988 828
f 839 942 1137
f 475 1014 942
f 515 387 1322
f 387 159 1322
f 1322 485 326
f 159 485 1322
f 112 1178 326
f 502 726 799
f 502 857 768
f 94 768 177
f 279 729 832
f 279 708 729
f 976 708 279
f 757 1330 1282
f 757 763 818
f 418 992 717
f 1125 418 717
f 486 9 1112
f 1029 9 486
f 1114 9 1175
f 1114 1175 1043
f 1000 1043 987
f 479 909 1008
f 150 1008 909
f 1351 150 600
f 1351 600 1097
f 808 1000 220
f 530 494 783
f 698 220 1000
f 545 133 1300
f 528 755 1098
f 1276 505 1349
f 1276 731 1309
f 1007 776 731
f 776 959 731
f 53 1323 1347
f 558 67 920
f 71 222 685
f 71 745 222
f 487 1267 315
f 485 112 326
f 799 1178 112
f 1178 799 726
f 487 1225 1267
f 281 1225 487
f 281 26 1225
f 177 768 857
f 450 468 26
f 450 26 281
f 832 94 177
f 976 468 450
f 94 832 729
f 1282 1204 757
f 1282 992 1204
f 763 757 232
f 22 992 418
f 1112 754 1125
f 763 778 29
f 9 1114 1105
f 1008 29 479
f 29 778 479
f 1000 626 1043
f 600 150 909
f 1000 808 626
f 684 494 1097
f 220 698 817
f 755 817 698
f 255 133 545
f 1098 505 528
f 505 1276 1309
f 43 53 776
f 776 53 1275
f 53 1347 1275
f 558 301 1323
f 920 301 558
f 1063 1131 41
f 1131 77 41
f 607 685 77
f 71 685 607
f 297 745 71
f 20 187 1335
f 988 1335 187
f 1350 387 828
f 387 1350 159
f 112 485 159
f 112 1045 799
f 346 582 832
f 832 582 279
f 279 582 976
f 148 757 1204
f 754 418 1125
f 288 754 1112
f 763 232 1145
f 1112 9 288
f 288 9 1105
f 778 763 1145
f 1332 778 1145
f 1105 1114 384
f 1043 384 1114
f 778 1332 479
f 626 384 1043
f 600 909 723
f 1263 1097 723
f 723 1097 600
f 783 494 684
f 1190 649 700
f 289 1300 700
f 289 545 1300
f 817 406 220
f 873 255 545
f 528 817 755
f 168 255 873
f 168 155 255
f 1309 124 505
f 731 124 1309
f 959 124 731
f 1275 959 776
f 54 396 1063
f 1078 396 54
f 1347 1323 1307
f 1307 1323 301
f 77 1131 770
f 680 71 607
f 297 71 680
f 297 20 745
f 187 20 704
f 475 1036 1014
f 1350 97 159
f 97 112 159
f 596 1267 1225
f 1225 26 596
f 177 919 832
f 832 919 346
f 468 976 582
f 1201 468 582
f 1277 468 1201
f 468 1277 26
f 232 757 148
f 992 22 1204
f 288 1376 754
f 260 909 479
f 260 753 909
f 626 732 384
f 1097 1263 827
f 684 1097 827
f 1190 164 649
f 649 289 700
f 817 354 406
f 528 354 817
f 120 155 168
f 528 505 124
f 1070 396 155
f 396 1070 1063
f 920 67 1367
f 770 607 77
f 1367 67 1252
f 699 1367 1252
f 704 20 297
f 942 767 1137
f 1014 767 942
f 988 347 828
f 828 347 1350
f 475 315 1036
f 1036 315 331
f 331 1267 596
f 315 1267 331
f 97 1045 112
f 1045 1086 799
f 1086 516 799
f 516 502 799
f 516 857 502
f 233 857 516
f 857 233 177
f 233 919 177
f 616 148 1204
f 1105 1376 288
f 361 1376 1105
f 384 361 1105
f 260 479 1332
f 384 855 361
f 143 855 384
f 465 753 260
f 732 143 384
f 723 909 753
f 753 1263 723
f 808 732 626
f 649 164 620
f 997 808 220
f 639 354 528
f 528 124 639
f 120 1070 155
f 1275 1347 1307
f 1063 913 1131
f 770 1131 913
f 770 1152 607
f 699 1137 1357
f 1357 1137 352
f 1137 767 352
f 256 767 1014
f 1014 1036 256
f 97 1279 1045
f 413 233 516
f 1128 919 233
f 919 1128 346
f 214 582 346
f 343 148 616
f 22 1022 1204
f 22 418 1022
f 1145 232 148
f 1332 1145 333
f 732 1310 143
f 684 827 262
f 783 684 262
f 164 783 742
f 732 808 997
f 997 220 666
f 220 406 666
f 657 120 168
f 657 1070 120
f 1070 657 531
f 1275 436 959
f 1307 463 1275
f 913 1063 1070
f 770 913 1152
f 1367 1366 920
f 301 920 1366
f 577 607 1152
f 1357 1367 699
f 607 577 676
f 676 680 607
f 680 522 297
f 522 704 297
f 187 704 320
f 187 320 103
f 187 103 988
f 103 347 988
f 1045 1279 1086
f 166 233 413
f 166 1128 233
f 1128 214 346
f 1204 1022 616
f 1022 418 754
f 1376 550 754
f 550 1022 754
f 1376 191 550
f 1166 1376 361
f 465 260 1271
f 1149 262 827
f 827 1263 1149
f 262 1149 1106
f 732 140 1310
f 742 783 262
f 732 997 140
f 853 620 164
f 918 289 649
f 918 415 289
f 289 415 545
f 545 415 873
f 406 34 666
f 354 34 406
f 639 124 108
f 646 108 124
f 959 646 124
f 646 959 436
f 463 436 1275
f 531 913 1070
f 913 1032 1152
f 1152 1032 158
f 1152 158 577
f 446 1366 1367
f 577 158 129
f 129 676 577
f 680 676 86
f 86 522 680
f 704 522 670
f 670 320 704
f 347 444 1350
f 1086 413 516
f 214 359 582
f 359 1201 582
f 1171 1022 550
f 265 343 616
f 191 1171 550
f 377 1145 148
f 1166 191 1376
f 333 260 1332
f 855 1166 361
f 143 12 855
f 753 465 943
f 1310 12 143
f 1149 1263 943
f 943 1263 753
f 1106 742 262
f 164 742 853
f 620 293 649
f 649 293 918
f 451 873 415
f 451 168 873
f 1040 657 168
f 646 436 108
f 296 531 657
f 1307 301 1366
f 86 676 327
f 327 1373 86
f 86 1373 522
f 1373 670 522
f 103 444 347
f 331 1077 1036
f 256 1036 1077
f 1086 1279 591
f 596 26 973
f 1022 265 616
f 1022 1171 265
f 1076 343 265
f 343 330 148
f 377 148 330
f 1166 76 191
f 1145 377 333
f 1121 260 333
f 1271 977 465
f 12 400 855
f 1338 12 1310
f 140 1338 1310
f 355 742 1106
f 620 853 293
f 1210 918 293
f 451 1040 168
f 34 354 513
f 639 513 354
f 639 108 513
f 463 1199 436
f 531 1032 913
f 1307 1366 438
f 1032 126 158
f 126 129 158
f 1367 1357 446
f 66 676 129
f 66 571 676
f 327 676 571
f 767 256 1287
f 973 26 1231
f 1111 1171 191
f 76 1111 191
f 377 1121 333
f 156 76 1166
f 1271 260 1121
f 156 1166 400
f 1271 188 977
f 400 1166 855
f 400 12 399
f 1338 399 12
f 943 1106 1149
f 853 658 293
f 658 1210 293
f 140 997 569
f 451 415 918
f 1047 569 666
f 108 436 923
f 474 531 296
f 531 1116 1032
f 438 1366 1033
f 1366 628 1033
f 1366 446 628
f 1357 352 1287
f 670 1373 1188
f 1188 320 670
f 352 767 1287
f 256 1283 1287
f 1077 331 14
f 444 97 1350
f 591 413 1086
f 664 166 413
f 26 1277 1231
f 343 249 330
f 140 569 1189
f 1174 918 1210
f 997 666 569
f 666 34 1047
f 939 657 1040
f 108 923 952
f 923 436 1199
f 1116 531 474
f 1199 463 1107
f 1307 1107 463
f 438 1107 1307
f 628 446 846
f 1287 846 1357
f 446 1357 846
f 1188 1303 320
f 253 103 320
f 1283 256 245
f 591 664 413
f 733 1076 265
f 733 265 1171
f 1076 249 343
f 377 184 1121
f 814 1111 76
f 1271 1121 242
f 465 977 983
f 943 465 983
f 943 452 1106
f 742 257 853
f 1174 451 918
f 513 108 952
f 1199 1107 305
f 789 129 126
f 789 66 129
f 327 1188 1373
f 1287 229 846
f 229 1287 303
f 1283 303 1287
f 245 256 1077
f 1279 97 444
f 331 596 1037
f 570 596 973
f 1037 596 570
f 570 973 882
f 359 756 1201
f 1277 1201 756
f 733 1171 1111
f 544 249 1076
f 330 439 377
f 814 878 1111
f 439 184 377
f 977 188 62
f 983 977 62
f 452 355 1106
f 1338 140 840
f 840 140 1189
f 742 355 257
f 893 1040 451
f 513 1047 34
f 1047 513 504
f 952 504 513
f 939 296 657
f 957 952 923
f 1199 1289 923
f 846 1002 388
f 628 846 388
f 1033 628 388
f 571 431 327
f 431 1188 327
f 1303 253 320
f 1343 103 253
f 1343 444 103
f 14 331 1037
f 1231 882 973
f 664 1356 166
f 166 1239 1128
f 1356 1239 166
f 1128 1239 375
f 375 214 1128
f 733 484 1076
f 249 439 330
f 1051 814 76
f 156 1051 76
f 188 1271 242
f 943 983 452
f 452 492 355
f 257 355 914
f 701 658 853
f 853 257 701
f 1006 451 1174
f 1006 893 451
f 957 504 952
f 1289 957 923
f 520 474 296
f 1199 1126 1289
f 305 1107 1018
f 438 1018 1107
f 1018 438 1033
f 584 932 789
f 789 932 66
f 819 1002 846
f 66 932 571
f 229 1326 819
f 229 819 846
f 802 431 571
f 303 1326 229
f 936 1343 253
f 1343 532 444
f 882 1231 769
f 1277 756 1231
f 375 359 214
f 1111 484 733
f 878 484 1111
f 586 184 439
f 242 1121 184
f 1338 840 575
f 372 1210 658
f 372 658 701
f 1174 1210 372
f 1047 760 569
f 893 939 1040
f 939 866 296
f 1126 1199 305
f 1032 1116 126
f 1018 1033 592
f 1002 592 388
f 592 1033 388
f 389 571 932
f 389 802 571
f 802 407 431
f 16 253 1303
f 1283 1341 1326
f 1283 1326 303
f 245 1341 1283
f 1077 927 245
f 1077 14 927
f 1279 444 809
f 1158 664 591
f 1250 769 1231
f 1231 756 1250
f 484 544 1076
f 794 586 439
f 399 1338 575
f 914 355 492
f 453 893 1006
f 504 1334 1047
f 520 296 866
f 520 1377 474
f 1377 1116 474
f 1116 340 126
f 789 126 340
f 1002 819 1118
f 1326 1118 819
f 1188 1025 1303
f 1025 16 1303
f 1341 825 1326
f 245 927 1341
f 104 359 375
f 1285 359 104
f 1285 756 359
f 878 764 484
f 1372 794 439
f 439 249 1372
f 1042 242 184
f 188 740 62
f 400 1011 156
f 983 1092 452
f 452 1092 492
f 1308 257 914
f 866 939 893
f 760 1047 1334
f 679 1377 520
f 1126 305 386
f 386 305 1018
f 340 584 789
f 592 1002 132
f 431 1025 1188
f 407 1025 431
f 16 936 253
f 444 532 809
f 809 1158 1279
f 1037 570 14
f 1158 591 1279
f 1356 664 665
f 1239 104 375
f 947 544 484
f 544 1372 249
f 184 586 1042
f 242 740 188
f 983 62 44
f 156 1011 1051
f 1092 983 44
f 400 399 1011
f 840 547 575
f 257 1308 32
f 32 701 257
f 449 372 701
f 840 1189 267
f 1174 372 1006
f 453 1006 137
f 1189 569 172
f 569 760 172
f 864 893 453
f 864 866 893
f 1361 520 866
f 1334 504 1060
f 504 957 1060
f 470 1377 679
f 470 1116 1377
f 1116 470 340
f 386 1018 1056
f 1018 526 1056
f 526 1018 592
f 584 389 932
f 1002 1118 132
f 389 697 802
f 1326 329 1118
f 1326 825 329
f 1158 665 664
f 1250 1302 856
f 1250 856 769
f 277 1239 1356
f 1285 1302 756
f 756 1302 1250
f 947 1372 544
f 484 764 947
f 645 794 1372
f 1042 10 242
f 814 1051 689
f 44 62 740
f 137 1006 372
f 1189 787 267
f 172 787 1189
f 411 172 760
f 679 520 1361
f 1362 957 1289
f 1192 1241 679
f 1241 529 679
f 679 529 470
f 414 1341 927
f 414 927 57
f 570 250 14
f 57 14 250
f 927 14 57
f 769 773 882
f 277 1356 665
f 1239 277 104
f 794 440 586
f 689 244 878
f 814 689 878
f 440 225 1042
f 1042 586 440
f 10 1042 225
f 689 1051 728
f 1051 1011 728
f 44 740 1055
f 618 914 492
f 492 1092 618
f 618 634 914
f 1308 914 634
f 137 786 453
f 786 864 453
f 752 866 864
f 866 752 1361
f 760 1334 1268
f 411 760 1268
f 752 940 1361
f 940 1192 1361
f 679 1361 1192
f 957 1362 1060
f 1362 1289 1126
f 705 340 470
f 705 470 529
f 340 705 121
f 121 584 340
f 132 526 592
f 879 196 584
f 389 584 196
f 196 697 389
f 1341 1127 825
f 1341 414 1127
f 936 1212 1343
f 1212 532 1343
f 570 1143 250
f 570 882 1143
f 1302 1285 856
f 244 947 764
f 244 764 878
f 861 740 242
f 242 10 861
f 1207 689 728
f 1092 44 971
f 1011 399 779
f 779 399 575
f 449 701 32
f 137 372 449
f 840 267 547
f 1334 1060 1268
f 556 1241 1192
f 1102 529 1241
f 1102 737 529
f 737 705 529
f 879 584 121
f 630 196 879
f 329 825 930
f 414 57 1017
f 1324 1143 1232
f 250 1143 1324
f 809 662 1158
f 1232 1143 773
f 773 1143 882
f 856 236 872
f 769 856 872
f 769 872 773
f 236 856 1285
f 1139 104 277
f 937 645 1372
f 379 714 947
f 379 947 244
f 500 440 794
f 244 689 157
f 157 689 1207
f 765 740 861
f 1055 740 765
f 971 618 1092
f 575 547 779
f 547 267 292
f 267 787 1305
f 411 787 172
f 752 1358 940
f 1362 1126 360
f 360 1126 606
f 606 1126 386
f 705 630 121
f 630 879 121
f 1118 1162 132
f 1162 526 132
f 630 982 196
f 982 697 196
f 697 1215 802
f 930 1082 329
f 1215 407 802
f 667 1025 407
f 1127 414 1017
f 1017 57 417
f 57 250 417
f 809 532 662
f 1324 417 250
f 665 1158 662
f 872 1232 773
f 535 1285 743
f 236 1285 535
f 743 1285 104
f 937 1372 947
f 714 937 947
f 44 1055 971
f 1011 779 728
f 32 1308 1238
f 1238 449 32
f 491 137 449
f 491 651 137
f 267 1305 292
f 651 786 137
f 1305 787 1050
f 787 411 1050
f 1060 1362 785
f 1362 360 785
f 606 386 1056
f 705 2 630
f 780 1056 526
f 165 697 982
f 1118 329 1082
f 1215 667 407
f 1212 936 111
f 662 512 665
f 105 665 512
f 105 277 665
f 105 1139 277
f 1139 743 104
f 645 424 500
f 645 500 794
f 500 225 440
f 157 379 244
f 1208 861 10
f 1208 10 225
f 971 215 618
f 216 618 215
f 599 618 216
f 1308 634 173
f 599 634 618
f 1238 1308 173
f 1238 491 449
f 1200 864 786
f 864 1200 752
f 1200 1358 752
f 1320 556 940
f 1268 1296 411
f 940 556 1192
f 1296 1268 637
f 1060 637 1268
f 556 613 1241
f 637 1060 785
f 360 606 476
f 737 2 705
f 1056 476 606
f 35 982 630
f 35 165 982
f 526 24 780
f 165 902 697
f 1082 1162 1118
f 1162 24 526
f 1259 16 1025
f 1127 930 825
f 535 1209 236
f 872 236 448
f 448 236 1209
f 1240 535 743
f 885 765 861
f 1207 110 157
f 971 815 215
f 815 971 1055
f 1024 1207 728
f 173 634 599
f 598 491 1238
f 779 547 1123
f 598 651 491
f 786 651 1200
f 1358 1200 1274
f 1320 940 1358
f 613 429 1241
f 1102 1241 429
f 1056 1087 476
f 780 1087 1056
f 697 902 1215
f 1082 930 911
f 711 1127 1017
f 1212 435 532
f 435 662 532
f 371 1176 1232
f 1232 1176 1324
f 448 371 872
f 1232 872 371
f 424 645 937
f 437 424 937
f 1196 1208 225
f 500 1196 225
f 861 624 885
f 765 693 1055
f 1055 693 815
f 405 216 215
f 728 779 1024
f 173 599 1141
f 1141 1238 173
f 1123 547 292
f 1305 1050 536
f 1274 1320 1358
f 1296 1050 411
f 637 785 1026
f 785 360 758
f 1102 237 737
f 237 2 737
f 841 630 2
f 841 35 630
f 24 1087 780
f 667 1259 1025
f 911 930 1127
f 1259 936 16
f 1001 417 1324
f 1324 1176 1001
f 512 662 435
f 512 435 871
f 1209 535 1240
f 105 489 1139
f 1139 210 743
f 489 210 1139
f 210 1240 743
f 1196 500 424
f 501 714 379
f 885 624 1073
f 861 1208 624
f 379 157 501
f 693 765 885
f 1256 419 693
f 693 419 815
f 419 1136 815
f 1207 1024 110
f 215 815 1136
f 405 215 1136
f 599 216 1328
f 1024 779 228
f 599 21 1141
f 1141 598 1238
f 1123 228 779
f 1117 1200 651
f 292 1305 536
f 536 1050 579
f 202 613 1320
f 613 556 1320
f 73 1102 429
f 73 237 1102
f 237 73 234
f 1124 2 237
f 1124 237 234
f 875 841 2
f 1124 875 2
f 35 841 875
f 661 476 1087
f 300 902 165
f 902 1216 1215
f 1216 667 1215
f 1090 1017 417
f 1038 871 435
f 981 371 448
f 512 871 489
f 512 489 105
f 437 937 501
f 714 501 937
f 437 456 1196
f 437 1196 424
f 456 1073 624
f 624 1196 456
f 1196 624 1208
f 1073 1256 885
f 1331 501 157
f 693 885 1256
f 110 1331 157
f 21 599 1328
f 598 1117 651
f 228 1123 1057
f 1117 264 1200
f 821 1057 1123
f 292 821 1123
f 264 1274 1200
f 821 292 536
f 202 1320 1274
f 579 1050 179
f 1050 1296 179
f 1296 637 179
f 3 613 202
f 429 613 3
f 73 429 3
f 785 758 1026
f 758 360 476
f 564 1082 911
f 111 435 1212
f 1090 417 1001
f 981 448 1209
f 796 456 437
f 813 796 437
f 813 437 501
f 456 563 1073
f 796 563 456
f 548 1256 1073
f 1073 563 548
f 419 1256 548
f 1136 419 497
f 644 1331 110
f 1024 644 110
f 781 21 1328
f 781 1328 216
f 216 405 781
f 228 644 1024
f 1374 598 1141
f 153 644 228
f 1117 598 1374
f 153 228 1057
f 650 264 1117
f 264 51 1274
f 821 536 741
f 51 219 1274
f 219 202 1274
f 202 1298 3
f 637 107 179
f 107 637 1026
f 3 234 73
f 1124 1157 875
f 1157 775 875
f 775 35 875
f 35 300 165
f 775 300 35
f 1082 564 1162
f 564 1218 1162
f 1218 24 1162
f 1218 1087 24
f 1259 183 936
f 1017 1090 711
f 111 1080 435
f 1080 1038 435
f 1240 1061 1209
f 796 1260 820
f 813 1260 796
f 813 337 1260
f 501 337 813
f 820 563 796
f 501 1331 337
f 548 563 523
f 337 412 1260
f 412 337 1331
f 190 548 523
f 367 548 190
f 419 548 367
f 497 419 367
f 508 412 1331
f 910 405 1136
f 1331 907 508
f 644 907 1331
f 735 1374 1141
f 1141 21 735
f 644 1278 907
f 153 1278 644
f 324 1117 1374
f 153 835 1278
f 835 153 1057
f 264 650 51
f 835 1057 821
f 741 835 821
f 741 536 816
f 536 579 816
f 202 219 199
f 199 1298 202
f 579 1360 263
f 1360 579 179
f 234 3 248
f 758 476 1065
f 1087 727 661
f 300 826 902
f 590 1216 902
f 911 1127 711
f 936 183 111
f 1038 198 871
f 198 1113 871
f 1113 489 871
f 210 309 1240
f 1240 309 1061
f 1260 954 820
f 820 954 867
f 1260 412 954
f 563 1294 523
f 1294 563 820
f 1294 820 867
f 954 748 867
f 1293 954 412
f 954 549 748
f 549 954 1293
f 367 190 838
f 838 190 523
f 608 1293 412
f 497 910 1136
f 1293 608 546
f 508 608 412
f 910 781 405
f 549 1293 546
f 781 1089 21
f 1089 735 21
f 546 608 1254
f 1254 608 508
f 557 508 907
f 1254 508 557
f 724 1374 735
f 1278 557 907
f 889 557 1278
f 324 1374 724
f 324 650 1117
f 1278 803 889
f 835 803 1278
f 246 650 324
f 650 246 887
f 887 51 650
f 816 579 263
f 248 3 1298
f 758 1234 1026
f 55 1124 234
f 758 1065 1234
f 1157 1124 55
f 775 1157 986
f 1065 476 661
f 826 300 775
f 826 590 902
f 1087 1218 727
f 427 667 1216
f 427 1259 667
f 176 183 1259
f 1038 1080 11
f 371 834 1176
f 200 981 1209
f 1113 210 489
f 748 1294 867
f 549 13 748
f 523 1294 838
f 1294 1217 838
f 1217 1294 748
f 838 1217 801
f 13 1217 748
f 351 13 549
f 1160 367 838
f 801 1160 838
f 1160 497 367
f 1168 351 549
f 546 1168 549
f 1352 193 724
f 193 324 724
f 880 1168 546
f 1254 880 546
f 351 747 308
f 1273 880 1254
f 1273 1254 557
f 351 1168 747
f 106 1168 880
f 106 880 1273
f 186 557 889
f 1273 557 186
f 747 1168 106
f 246 324 193
f 935 803 835
f 935 835 741
f 887 509 51
f 1100 935 741
f 816 1100 741
f 51 1292 219
f 311 816 263
f 1360 311 263
f 390 601 199
f 601 1298 199
f 179 107 1360
f 248 1298 601
f 234 248 642
f 55 234 642
f 1154 1157 55
f 1154 986 1157
f 633 775 986
f 775 633 826
f 1218 564 75
f 851 183 176
f 911 711 149
f 149 711 1090
f 851 1080 183
f 1080 111 183
f 621 11 1080
f 834 1001 1176
f 11 198 1038
f 834 371 981
f 1061 200 1209
f 210 401 309
f 801 766 1160
f 1160 766 868
f 1217 766 801
f 576 766 1217
f 1163 735 1089
f 1163 1089 1193
f 576 1217 362
f 362 1217 13
f 1163 1352 735
f 1352 724 735
f 13 1368 1172
f 362 13 1172
f 351 1368 13
f 351 308 1368
f 308 747 929
f 1273 934 106
f 1369 246 193
f 956 934 1273
f 956 1273 186
f 123 747 106
f 503 106 934
f 503 934 956
f 803 186 889
f 246 238 887
f 246 1369 238
f 956 186 800
f 800 186 803
f 800 803 935
f 51 509 1292
f 199 219 1292
f 390 199 1292
f 248 601 642
f 1026 1234 107
f 622 661 727
f 1216 286 185
f 590 286 1216
f 185 427 1216
f 1218 568 727
f 427 176 1259
f 564 911 75
f 911 149 75
f 1039 621 851
f 851 621 1080
f 1219 1090 1001
f 834 1219 1001
f 647 1113 198
f 1113 401 210
f 910 1193 1089
f 1193 910 497
f 1085 868 766
f 1089 781 910
f 576 1085 766
f 193 1352 941
f 1369 193 941
f 123 106 503
f 238 353 887
f 509 887 353
f 1292 509 892
f 1295 1100 816
f 816 311 1295
f 1360 107 278
f 691 633 986
f 1234 1065 1265
f 1065 996 1265
f 661 996 1065
f 1346 633 283
f 1346 826 633
f 622 996 661
f 826 1346 590
f 1346 286 590
f 568 622 727
f 75 271 568
f 75 568 1218
f 185 1044 427
f 427 1044 176
f 75 149 1359
f 851 176 1044
f 851 1044 1039
f 1090 950 149
f 1219 950 1090
f 647 198 11
f 647 294 1113
f 8 1061 309
f 294 401 1113
f 401 8 309
f 497 868 1153
f 1160 868 497
f 497 1153 1193
f 1193 1153 1005
f 192 1163 1193
f 1005 192 1193
f 1163 922 1352
f 394 1352 922
f 1368 308 1213
f 123 929 747
f 195 503 956
f 956 800 195
f 800 426 195
f 1100 426 935
f 935 426 800
f 426 1100 1295
f 1292 892 390
f 335 519 390
f 390 892 335
f 852 1094 311
f 852 311 1360
f 278 852 1360
f 601 390 642
f 881 1154 55
f 642 881 55
f 1230 278 107
f 1234 1230 107
f 1234 1265 1230
f 283 633 691
f 283 286 1346
f 310 185 286
f 1359 271 75
f 1044 1342 1039
f 1359 149 950
f 771 621 1039
f 98 950 1219
f 11 621 1109
f 834 98 1219
f 981 870 834
f 483 401 294
f 8 401 483
f 8 447 1061
f 1061 447 200
f 868 541 1153
f 1153 541 1005
f 1085 541 868
f 1184 541 1085
f 1184 1085 576
f 1184 576 964
f 964 576 182
f 192 922 1163
f 182 576 362
f 1352 394 941
f 509 353 395
f 892 509 395
f 1094 1295 311
f 310 511 185
f 185 511 1044
f 1359 1221 271
f 1359 950 1221
f 1280 381 950
f 98 1280 950
f 98 834 870
f 1280 98 870
f 1269 447 1096
f 1269 200 447
f 200 891 981
f 870 981 891
f 294 647 552
f 8 483 1096
f 8 1096 447
f 541 791 1005
f 541 1020 791
f 1020 541 1184
f 461 922 192
f 1005 461 192
f 1172 182 362
f 1368 1213 1172
f 322 1369 941
f 615 238 1369
f 1228 123 503
f 1228 503 195
f 1228 195 585
f 585 195 426
f 892 395 335
f 426 1295 1134
f 1134 1295 1094
f 142 1134 1094
f 642 390 519
f 1187 1094 852
f 1187 852 278
f 986 1154 881
f 278 1230 507
f 916 283 691
f 916 334 283
f 1265 996 917
f 996 622 917
f 334 286 283
f 334 310 286
f 622 568 271
f 511 636 1044
f 636 1342 1044
f 950 738 1221
f 1342 771 1039
f 950 1329 738
f 771 1109 621
f 950 381 1329
f 552 1109 1354
f 552 11 1109
f 11 552 647
f 1269 1096 669
f 40 891 1269
f 891 299 870
f 870 299 1280
f 552 328 294
f 572 294 328
f 200 1269 891
f 294 572 483
f 483 572 1096
f 1184 625 1020
f 964 625 1184
f 791 461 1005
f 791 1150 461
f 964 182 655
f 655 182 1172
f 322 941 394
f 922 322 394
f 1301 1213 308
f 308 929 1301
f 615 1369 322
f 797 929 123
f 238 197 353
f 238 615 197
f 1301 929 797
f 197 462 353
f 395 353 462
f 1228 797 123
f 410 797 1228
f 410 1228 163
f 163 1228 585
f 1134 585 426
f 163 585 1134
f 519 335 247
f 247 642 519
f 642 247 881
f 278 507 409
f 1180 691 986
f 1230 1265 972
f 622 1195 917
f 622 906 1195
f 906 271 1221
f 271 906 622
f 334 511 310
f 636 1133 1342
f 1354 1109 771
f 1280 299 1140
f 1280 1140 381
f 891 40 1151
f 891 1151 299
f 1020 272 791
f 625 272 1020
f 603 272 625
f 964 655 625
f 74 322 922
f 461 74 922
f 603 625 655
f 1172 1333 655
f 1213 1333 1172
f 322 74 1203
f 615 322 1203
f 924 1213 1301
f 197 615 648
f 924 1333 1213
f 921 924 1301
f 921 1301 797
f 1321 921 797
f 410 1321 797
f 410 1034 1321
f 1034 410 163
f 1148 163 1134
f 142 1148 1134
f 142 1094 1187
f 481 142 1187
f 409 1187 278
f 972 507 1230
f 972 1265 917
f 917 1195 604
f 738 877 906
f 1221 738 906
f 1133 771 1342
f 669 454 1269
f 454 40 1269
f 552 1318 328
f 1096 572 669
f 1150 74 461
f 970 1150 791
f 791 272 970
f 1150 204 74
f 822 970 272
f 822 272 603
f 204 1203 74
f 204 1150 970
f 466 822 603
f 655 239 603
f 466 603 239
f 1203 648 615
f 466 239 1142
f 631 239 655
f 631 655 1333
f 1142 239 631
f 896 631 1333
f 1333 924 896
f 125 896 924
f 125 924 921
f 115 896 125
f 125 921 459
f 1321 459 921
f 1034 960 1321
f 881 247 898
f 898 240 881
f 163 1148 342
f 240 986 881
f 1180 986 240
f 1148 142 481
f 1180 843 691
f 843 916 691
f 207 409 507
f 507 972 207
f 358 916 792
f 916 358 334
f 207 972 382
f 972 604 382
f 972 917 604
f 1195 877 604
f 906 877 1195
f 738 551 877
f 334 1021 511
f 511 1021 636
f 578 1133 636
f 381 1164 1329
f 1133 1354 771
f 1140 1164 381
f 454 669 363
f 299 1151 420
f 299 420 1140
f 1318 552 1354
f 1318 562 328
f 328 562 572
f 204 970 847
f 204 402 1203
f 1258 970 822
f 847 970 1258
f 466 1258 822
f 648 1203 366
f 695 1258 466
f 70 197 648
f 154 1142 631
f 85 1142 154
f 631 896 154
f 154 896 115
f 772 154 115
f 744 772 115
f 115 125 174
f 125 459 174
f 201 975 335
f 247 335 975
f 247 975 92
f 321 459 1321
f 960 321 1321
f 898 247 92
f 163 342 1034
f 1148 481 342
f 1255 342 481
f 409 481 1187
f 409 1255 481
f 113 409 207
f 207 382 113
f 877 180 382
f 877 382 604
f 358 1021 334
f 551 180 877
f 738 538 551
f 1329 1164 538
f 1329 538 738
f 116 1354 1133
f 1053 1354 116
f 848 420 888
f 1140 420 1164
f 1053 1318 1354
f 420 1151 888
f 398 562 1318
f 562 673 572
f 572 673 363
f 572 363 669
f 40 454 1151
f 847 402 204
f 366 1203 402
f 1258 1311 847
f 695 1311 1258
f 70 648 366
f 345 695 466
f 1142 345 466
f 85 345 1142
f 197 70 295
f 85 161 345
f 295 462 197
f 154 772 85
f 161 85 226
f 226 85 772
f 201 335 395
f 174 744 115
f 806 459 321
f 862 960 1034
f 862 1034 342
f 342 1211 862
f 1211 342 1255
f 843 443 916
f 175 1211 1255
f 443 792 916
f 113 1255 409
f 358 792 38
f 925 1255 113
f 382 925 113
f 1255 925 1062
f 180 925 382
f 180 1062 925
f 38 1021 358
f 1186 1062 180
f 551 559 1186
f 551 1186 180
f 5 636 1021
f 538 559 551
f 578 636 5
f 5 1129 578
f 1164 979 538
f 420 848 979
f 420 979 1164
f 578 116 1133
f 398 1318 1053
f 363 23 454
f 454 888 1151
f 673 629 363
f 1016 366 402
f 269 402 847
f 847 1311 269
f 1327 1311 695
f 345 1327 695
f 345 653 1327
f 653 345 161
f 653 161 135
f 395 462 201
f 226 135 161
f 772 744 226
f 744 1179 226
f 712 92 975
f 174 33 744
f 92 712 898
f 1179 744 33
f 459 806 174
f 174 900 33
f 900 174 806
f 668 1180 240
f 806 321 862
f 862 321 960
f 1119 806 862
f 862 1211 175
f 1255 27 175
f 1062 27 1255
f 27 1 6
f 1 27 1062
f 1186 1 1062
f 274 1021 38
f 1021 274 5
f 1 1186 559
f 1261 1129 5
f 979 559 538
f 578 1251 116
f 848 709 979
f 81 848 888
f 629 886 363
f 886 23 363
f 23 81 454
f 888 454 81
f 398 306 562
f 562 306 673
f 1337 366 1016
f 269 1016 402
f 269 1311 1327
f 462 295 201
f 812 135 226
f 1179 812 226
f 659 240 898
f 33 1226 1179
f 240 659 668
f 806 908 900
f 1226 33 900
f 1226 900 746
f 900 908 746
f 908 806 1119
f 1233 908 1119
f 1233 1119 862
f 6 1233 862
f 1099 1233 6
f 792 274 38
f 175 6 862
f 27 6 175
f 588 1099 6
f 1 588 6
f 559 385 1
f 1 385 588
f 979 385 559
f 1299 116 1251
f 1299 1053 116
f 848 81 709
f 147 398 1053
f 147 306 398
f 824 23 886
f 824 81 23
f 189 1337 1016
f 189 1016 269
f 70 366 1337
f 710 269 1327
f 652 653 135
f 812 652 135
f 534 812 1179
f 898 712 304
f 304 659 898
f 668 1138 1180
f 843 1180 1138
f 403 1074 746
f 403 746 908
f 403 908 18
f 1233 18 908
f 68 403 18
f 68 18 1233
f 842 68 968
f 68 1233 1099
f 968 68 901
f 901 68 1099
f 5 274 1261
f 749 968 978
f 385 1099 588
f 978 968 901
f 385 901 1099
f 958 1129 1261
f 958 1251 1129
f 348 901 385
f 348 385 979
f 1251 578 1129
f 1264 749 978
f 348 978 901
f 709 348 979
f 1264 978 348
f 1264 348 709
f 1299 147 1053
f 629 1220 886
f 1220 824 886
f 824 1264 709
f 629 673 306
f 81 824 709
f 295 146 201
f 975 201 146
f 975 36 712
f 1226 534 1179
f 304 565 659
f 565 668 659
f 668 850 1138
f 1074 194 1226
f 746 1074 1226
f 1138 443 843
f 761 1074 403
f 842 761 403
f 68 842 403
f 792 736 274
f 842 859 761
f 392 859 842
f 725 1261 274
f 749 392 842
f 968 749 842
f 725 1281 1261
f 958 1261 1281
f 365 392 749
f 958 1299 1251
f 1264 365 749
f 610 365 1222
f 824 1222 1264
f 1264 1222 365
f 1299 1146 147
f 1220 629 671
f 1220 610 1222
f 1220 1222 824
f 306 147 671
f 306 671 629
f 710 189 269
f 1314 70 1337
f 1314 951 295
f 1314 295 70
f 905 1327 653
f 295 951 146
f 146 36 975
f 652 812 860
f 534 1226 1064
f 565 850 668
f 1074 761 194
f 736 725 274
f 392 506 859
f 392 151 506
f 181 290 1281
f 290 958 1281
f 392 1185 151
f 958 455 1299
f 365 1185 392
f 1299 455 1146
f 671 87 1220
f 610 1220 87
f 365 610 1185
f 1146 671 147
f 1314 1337 189
f 1314 189 1363
f 905 710 1327
f 652 905 653
f 1291 36 146
f 36 904 712
f 1291 904 36
f 904 304 712
f 534 750 812
f 1226 194 1064
f 761 404 194
f 1138 792 443
f 1138 736 792
f 506 761 859
f 151 227 506
f 725 287 181
f 725 181 1281
f 151 1185 227
f 1185 90 227
f 290 181 206
f 876 90 1185
f 290 455 958
f 87 350 876
f 87 876 610
f 610 876 1185
f 455 350 87
f 1146 455 671
f 671 455 87
f 710 1363 189
f 368 1314 1363
f 951 1314 719
f 860 905 652
f 750 860 812
f 565 304 831
f 831 850 565
f 194 404 1064
f 761 1247 404
f 543 1247 761
f 506 543 761
f 736 275 725
f 275 287 725
f 275 17 287
f 227 543 506
f 287 990 181
f 227 612 543
f 90 478 612
f 227 90 612
f 181 1012 1224
f 1224 206 181
f 350 687 478
f 39 687 350
f 876 478 90
f 39 455 290
f 455 39 350
f 350 478 876
f 710 100 1363
f 905 844 710
f 710 844 100
f 368 1363 100
f 719 1314 368
f 905 994 844
f 951 719 146
f 1291 146 719
f 1291 719 80
f 904 1291 80
f 534 1064 750
f 404 1336 1064
f 1312 1336 1247
f 404 1247 1336
f 574 1138 850
f 1138 1315 736
f 543 1312 1247
f 612 1312 543
f 17 990 287
f 990 1012 181
f 1288 721 291
f 687 721 1288
f 478 1288 612
f 1224 721 687
f 1224 39 206
f 1224 687 39
f 687 1288 478
f 39 290 206
f 100 694 368
f 844 694 100
f 844 994 694
f 719 368 1253
f 171 368 694
f 1019 694 994
f 860 994 905
f 1253 80 719
f 171 1253 368
f 1257 1019 994
f 1257 994 860
f 1253 171 1249
f 860 793 1257
f 80 1253 270
f 750 793 860
f 80 831 904
f 80 270 831
f 251 793 750
f 831 304 904
f 793 251 869
f 1064 251 750
f 869 251 1336
f 1336 251 1064
f 793 869 78
f 574 850 831
f 1312 869 1336
f 967 78 869
f 967 869 1312
f 1315 275 736
f 967 235 78
f 612 967 1312
f 517 17 275
f 235 967 1364
f 612 1364 967
f 241 235 291
f 291 235 1364
f 1288 1364 612
f 990 1290 1012
f 117 241 291
f 1290 241 117
f 291 1364 1288
f 1290 117 1012
f 1012 117 1224
f 117 721 1224
f 117 291 721
f 1249 171 542
f 542 171 694
f 542 694 1019
f 542 1019 493
f 493 1019 1257
f 493 1257 793
f 270 1253 1249
f 1249 542 897
f 542 1156 897
f 270 1249 58
f 1156 542 493
f 672 493 793
f 831 270 574
f 78 672 793
f 270 58 574
f 323 1156 493
f 323 493 672
f 276 323 672
f 1138 574 1315
f 1315 574 1095
f 78 276 672
f 696 1156 323
f 696 323 276
f 1315 517 275
f 235 276 78
f 696 276 235
f 990 17 1290
f 1290 17 899
f 241 696 235
f 899 696 241
f 1290 899 241
f 897 58 1249
f 423 897 1156
f 58 1095 574
f 58 897 423
f 141 58 423
f 1095 58 141
f 1095 517 1315
f 517 1095 141
f 696 423 1156
f 141 17 517
f 141 423 17
f 899 423 696
f 17 423 899