# https://github.com/mikedh/trimesh
v -104.92176643 -11.79343784 27.16927764
v -104.98393717 -12.11808543 24.62017068
v -119.99044368 -14.38572741 28.93453350
v -108.93882558 -8.07322382 19.92114022
v -107.13438597 -23.91693210 36.77764768
v -104.19022386 -21.63027305 28.74873423
v -106.12178836 -14.19369694 23.08374074
v -104.24542096 -9.71980336 22.69581438
v -119.95988406 -15.59764677 24.39420815
v -120.14648507 -14.65830302 28.53146790
v -118.38586762 -26.07525672 23.08186407
v -120.67559829 -24.90346540 24.33715942
v -118.40858652 -11.39030345 27.69218717
v -109.44208416 -7.98236998 25.41413239
v -105.68641474 -14.59340847 24.03223289
v -112.34712342 -17.23456521 32.65519620
v -119.33520346 -28.21129567 25.47105731
v -102.80958349 -13.13978794 32.60330919
v -117.40280016 -10.87044514 18.75797530
v -119.03676674 -14.41204622 29.93522731
v -104.54980698 -15.34002647 25.80486865
v -103.85320277 -20.81664105 36.36338899
v -102.41375132 -13.28554117 30.29315466
v -119.07957829 -21.24483634 21.87286623
v -117.88143392 -21.93767780 20.95998158
v -104.60835146 -13.64856104 26.34087772
v -106.61951215 -13.06433160 21.13418200
v -114.70127538 -19.97264858 32.77659033
v -104.70387537 -12.40481856 27.84503836
v -112.72616775 -15.96253917 16.56103804
v -119.10456414 -17.51886367 27.25421922
v -118.69793073 -12.98781841 16.99509079
v -104.71633925 -15.98449602 25.62283540
v -116.74514280 -15.09859957 14.54520263
v -105.47544938 -11.68458514 21.88864623
v -116.93758577 -9.48868526 21.92639651
v -115.49211441 -29.71174368 30.53790269
v -105.78355495 -15.03791198 23.88304855
v -104.67986054 -11.41402907 25.56933597
v -109.32507159 -29.30755969 33.89709891
v -109.42856905 -9.37817610 28.72692988
v -114.92963757 -21.50196156 33.09464830
v -109.92331648 -18.90037909 34.62091959
v -111.41131994 -19.25888429 34.13255211
v -118.18647272 -14.80147618 15.23082304
v -114.45504216 -8.68235996 19.41289169
v -110.11745382 -8.81862913 16.08555897
v -118.67197906 -15.35583733 15.72731844
v -101.03051613 -14.97411578 31.39642803
v -104.81707336 -12.20038863 25.68491862
v -119.30685819 -13.10954611 28.48609202
v -105.37305577 -11.57958887 27.90867873
v -120.17064949 -26.10275138 23.63748015
v -106.95473161 -27.68648758 35.72672916
v -105.72688424 -8.88195693 25.05103093
v -105.19508152 -19.65581505 36.38473627
v -111.17221733 -27.20324971 27.90229601
v -106.30104407 -12.15023057 20.72395449
v -111.51859347 -13.02523462 14.74756050
v -108.40415292 -28.76116738 35.39086076
v -104.14815793 -23.54287453 33.08931909
v -120.50974443 -23.37670286 25.14193925
v -119.80363722 -20.93361830 25.51285773
v -119.20805629 -27.26567401 24.35982899
v -112.36247112 -29.82943801 31.08409340
v -108.69575989 -23.76004382 25.73287839
v -110.34589344 -11.51246663 30.76743992
v -117.81231122 -20.36526958 19.31719395
v -116.78740111 -21.62270919 20.22571624
v -114.05328921 -16.14717540 31.25976609
v -107.55650156 -11.11491682 30.35459577
v -104.59188941 -10.77315390 25.60004532
v -103.24792520 -19.25016255 28.44879550
v -104.37707396 -14.50365067 34.41659481
v -103.86389817 -13.92995357 33.91419149
v -101.34579690 -13.43466462 32.13634264
v -109.02094118 -14.72906016 19.44260783
v -117.25167571 -14.50225509 30.05654374
v -115.03389002 -24.30525678 33.38370432
v -101.13853896 -14.42070179 31.29736429
v -109.04207164 -16.42934482 33.87135974
v -106.11634833 -23.62188863 27.72699711
v -104.63245155 -9.25711704 21.85941861
v -117.49067306 -24.03134359 22.00390894
v -118.34683632 -17.76854334 28.53214805
v -110.34431332 -19.47392947 21.30932284
v -119.43289362 -17.71657333 26.20366360
v -111.94770941 -12.04347827 13.61676544
v -119.93221942 -19.16924991 22.55698645
v -118.01650686 -19.66687075 29.71801371
v -121.00003932 -25.01208308 26.19070929
v -107.76589060 -8.08669471 22.52279249
v -119.63296639 -13.20610257 25.13076494
v -112.38317134 -11.43142533 13.12165284
v -119.78581679 -13.23568935 26.16403615
v -107.88123196 -16.18621152 21.76868676
v -116.13048859 -9.73419833 27.34406255
v -113.17465235 -9.25666486 27.75965595
v -104.72750941 -9.62252804 25.17330772
v -108.39317723 -17.48865279 34.62515767
v -114.64310525 -11.77626202 12.98387604
v -118.12746150 -29.52747617 27.73716442
v -112.71482745 -19.88465871 19.60912804
v -112.21749801 -29.17189857 29.90446327
v -117.93001190 -10.34823035 21.57918229
v -119.49936084 -19.64004245 26.69670578
v -116.63639981 -10.78042217 28.69926004
v -107.75700199 -8.34762496 26.04655384
v -120.08821832 -21.97463364 26.15019730
v -104.71033633 -24.70572576 36.04820698
v -112.57678904 -16.33431377 32.06930618
v -116.21351419 -29.01485392 30.86237052
v -107.58243375 -9.18296198 27.68915194
v -114.23324397 -29.80539754 30.01170580
v -111.51990462 -15.89118321 32.34463898
v -119.78904252 -13.61488262 28.10265381
v -114.71984965 -16.11235794 15.44072974
v -114.88406455 -29.56779666 31.36207867
v -112.04554503 -7.92037927 19.79072127
v -110.27603164 -24.86881854 25.89127015
v -119.28364548 -22.46091024 22.67423180
v -111.87896036 -8.91204776 15.51709389
v -111.87732671 -26.74339593 35.24174712
v -104.47706376 -19.25044706 26.87193915
v -119.88615654 -15.29859157 28.17464802
v -108.82023240 -10.59073322 15.72776155
v -113.99220682 -28.29377603 27.62169093
v -119.74441085 -20.61078851 24.26505254
v -102.91723505 -15.49382595 27.98319075
v -120.51054691 -25.35968647 23.92761232
v -119.56936499 -26.22107564 23.24260874
v -116.34490402 -24.92288313 32.63204640
v -109.16301006 -9.87029608 15.16141976
v -107.36860731 -21.68728741 25.13373917
v -111.35131996 -7.86250859 18.99213646
v -120.99250427 -25.47448922 26.65052692
v -105.19562171 -12.47767283 29.76040242
v -107.07582622 -12.12544545 19.42646459
v -108.36575132 -19.64178151 35.68144050
v -119.38799956 -15.07843678 16.64262720
v -108.17380456 -28.55864761 33.87797430
v -116.06696202 -29.36321332 28.21034365
v -117.73369994 -29.52342561 27.79105594
v -106.11309850 -25.57780131 36.63818785
v -103.23237944 -21.84214433 34.79605074
v -110.30446427 -9.54984765 28.87650546
v -104.76452315 -22.78011023 36.47091760
v -104.09735017 -16.59801847 26.50916709
v -104.66646885 -9.31451925 21.49318160
v -110.03493456 -7.73724114 23.79917817
v -113.93780858 -15.08629195 30.91009350
v -115.96225947 -9.14877913 20.96093688
v -111.15884551 -28.32488736 29.30143394
v -120.55687301 -28.11694980 26.84215406
v -111.30337315 -9.41637095 14.75034898
v -118.87666596 -14.86950981 29.71505528
v -109.95783287 -15.57060439 19.04861604
v -106.49772392 -26.98689263 36.18930903
v -108.02846879 -8.73760785 17.38507501
v -111.42007848 -7.89197709 21.95562818
v -105.16529167 -19.11833886 26.09930143
v -119.18862473 -23.54115541 30.01755573
v -103.13206704 -13.16985770 29.77032148
v -108.76357796 -28.70965728 32.61412208
v -107.55991703 -12.17271847 18.74307346
v -102.94215366 -17.86570495 36.02954816
v -117.88067327 -27.76810839 30.66469592
v -119.86878754 -14.77401229 29.23957853
v -120.76276196 -25.50581123 27.57183960
v -110.18686990 -7.77420437 22.83353061
v -111.55106693 -22.37403470 35.20277143
v -118.79132201 -19.71322565 28.59644947
v -118.27068459 -11.75639081 28.35745627
v -114.04169092 -29.57425031 32.15460274
v -112.70746780 -10.18730530 13.75096307
v -118.20622113 -26.98655218 30.80035595
v -113.02221376 -25.90320229 25.56259875
v -119.71305837 -13.05524515 26.83075329
v -117.19088903 -10.94446164 28.64467297
v -112.85672391 -21.95783236 34.38958960
v -105.64357214 -9.33772438 25.95093870
v -105.28552548 -15.29157360 24.75842933
v -105.05259768 -9.01507117 21.40686422
v -109.29912181 -17.57763008 21.17248858
v -111.65411849 -15.61490069 17.17864660
v -117.49465237 -15.08813477 29.94569112
v -103.70212559 -12.99260251 29.54007201
v -107.15491749 -17.94939441 35.35717239
v -116.43302852 -28.19134684 26.37639892
v -116.83676079 -17.44488247 30.02117260
v -114.62619812 -17.95166317 16.65126264
v -119.56433002 -16.78922729 26.19476507
v -107.84819936 -21.90634118 36.40219238
v -111.86802592 -9.29667917 28.13719123
v -114.82484031 -9.57418981 16.51111283
v -103.02937719 -13.44903403 33.32878271
v -120.01048425 -28.64480235 26.87698904
v -103.71587102 -20.52643265 28.64625863
v -108.56292588 -24.67840477 26.79652419
v -103.81675058 -13.04357414 31.89549283
v -117.92535499 -25.80174653 22.97258472
v -110.93756216 -7.87942562 20.76309531
v -108.22648724 -8.10578119 20.96918040
v -107.19544237 -24.64310858 27.83844354
v -101.30791026 -16.78846599 31.65187500
v -103.69226751 -21.46893329 29.73566050
v -119.19136485 -29.04019008 28.54089379
v -104.29253714 -12.79679920 29.68841905
v -112.88525628 -12.65089014 30.38450139
v -116.91044784 -26.97299254 24.72201044
v -106.56447794 -8.47625426 20.82858092
v -104.55489720 -13.39748147 33.07095044
v -108.16145088 -23.08125178 25.49993325
v -115.23644148 -10.39788558 14.93661305
v -107.58223704 -27.24606988 36.51561476
v -105.12932379 -14.08065379 33.79845207
v -116.94250453 -11.72707627 15.11870831
v -105.88325372 -11.18696282 20.47606375
v -108.10145961 -10.68039538 30.34707400
v -115.97170673 -16.75212956 30.37569520
v -121.22080591 -26.13707993 25.82209067
v -114.81983425 -8.49187404 25.93384358
v -118.19136994 -28.49466673 29.93044985
v -104.90741012 -25.24494145 35.54797902
v -114.70757105 -10.67936736 28.91194328
v -119.86530526 -23.54844686 29.06741879
v -105.71439713 -18.94177743 36.19879943
v -112.03426001 -24.97892846 25.00826718
v -104.41631700 -20.25383866 36.46152012
v -109.02253271 -8.23610203 26.24818506
v -110.50437467 -10.19026161 29.81931076
v -118.34598792 -10.97566762 21.54799879
v -111.80276749 -10.71751536 13.26481640
v -103.65144665 -22.83096855 34.54823143
v -118.63938525 -14.59694098 15.65163808
v -107.34806203 -26.51614976 30.41383987
v -117.97389363 -21.01295260 20.20590088
v -102.52243813 -20.06567234 34.93552439
v -110.09512202 -10.98738903 14.52809058
v -108.20517670 -10.75647893 16.62549778
v -105.29383791 -13.03163306 32.14358093
v -119.95099622 -27.59996148 28.63295371
v -112.78820803 -23.62810503 34.73110285
v -119.48307541 -27.29022589 29.44111270
v -106.52951677 -22.80983439 26.70397477
v -105.02262821 -11.07402422 22.27054104
v -120.38484570 -25.67294826 28.48318325
v -108.03828571 -10.03655372 29.49004722
v -120.07912234 -18.00588632 23.48059305
v -104.59356743 -14.11774482 26.05712867
v -118.15488038 -10.83647159 27.11112451
v -115.26470672 -15.59992363 14.87604653
v -115.46947389 -9.81373281 27.87596732
v -110.03033710 -8.28915351 26.91421137
v -113.84056859 -19.04919017 17.99994787
v -112.49551146 -30.17308436 33.11728007
v -119.37736583 -12.53234040 25.06932759
v -119.91014376 -15.43478019 25.22250847
v -115.62757307 -21.40862354 32.70605844
v -117.47476744 -9.57696396 23.90427551
v -110.32358969 -7.95510025 19.01799651
v -119.71810253 -24.03858777 29.49707219
v -117.89376260 -25.14943302 22.52395074
v -114.92831308 -13.73877263 13.58108678
v -108.11982566 -8.75539039 27.24848627
v -117.24028415 -9.38471960 23.33342894
v -116.29751352 -27.75044704 31.76600202
v -110.31256423 -24.24767693 36.05912234
v -109.45506315 -7.76295569 23.40302659
v -116.34067083 -20.29897955 31.82764309
v -107.21415472 -9.67337067 17.30582673
v -107.27469987 -10.13904610 28.77295315
v -102.01765656 -18.98444564 34.08980335
v -119.49015134 -15.85755650 27.94519302
v -120.53288065 -16.06563813 20.87319645
v -110.58195673 -9.05466063 15.44348317
v -116.80700513 -13.13626149 14.07966838
v -108.55092309 -9.21049764 16.18197265
v -116.42819542 -19.88334330 18.12258717
v -111.09040064 -26.37545924 35.77541623
v -117.08898457 -11.28267542 16.51241917
v -114.17427394 -15.17699446 14.94990778
v -106.83609981 -25.24758095 29.08415829
v -103.55002521 -15.23922023 27.24177679
v -115.28814419 -20.63577077 32.70237066
v -120.30951530 -14.66300300 19.99465966
v -104.98914323 -25.03460070 33.68460234
v -117.43906817 -15.44517138 14.99521659
v -119.08924206 -16.33438379 27.92606083
v -109.85717053 -20.98757631 35.67765127
v -105.64507637 -22.43704291 27.31862967
v -102.80736707 -19.97904065 30.16520247
v -105.27111317 -12.02906041 28.61112868
v -115.09724602 -22.89289197 21.58923620
v -109.66902264 -7.91798748 21.51888725
v -117.19167357 -26.97078415 31.54233237
v -118.48311003 -10.71043631 25.07941967
v -109.67422070 -24.23875225 25.61532327
v -119.32370363 -13.34846135 18.49369937
v -118.44580952 -17.22352241 16.50974223
v -119.41842539 -24.67428002 30.05511432
v -116.08937086 -16.54421602 15.35489473
v -108.94188820 -13.60329046 32.47822102
v -106.36568520 -14.63228161 22.85738577
v -119.25587175 -17.08866275 17.13225198
v -114.47946079 -11.45078660 29.40201003
v -118.54239308 -11.04552507 22.25196868
v -117.78540378 -17.19134840 29.15144425
v -115.47503345 -8.78182083 21.63982304
v -102.11549266 -13.29780636 30.67938633
v -113.52091523 -18.61900272 32.75486071
v -117.52354443 -17.76301973 16.42365210
v -110.83349317 -30.02336719 34.32554832
v -104.45026526 -9.25547728 22.78831787
v -105.13978117 -9.27552275 20.44827705
v -105.39855227 -11.01788642 27.40899662
v -120.09183242 -14.41368245 26.98422831
v -116.04352243 -27.40093577 25.60874327
v -104.78489501 -12.30336783 26.29249546
v -106.81957176 -8.56996281 19.51917072
v -106.29954439 -11.79313977 29.86305735
v -119.88006889 -16.18620986 24.94534106
v -110.63517644 -29.13110664 31.09148694
v -107.48226256 -15.01518996 21.55105521
v -114.89144384 -9.90115490 15.66710472
v -112.65950273 -27.85932169 27.82895898
v -108.22323501 -9.16454245 28.12734276
v -118.95914320 -18.32023609 27.64008711
v -116.01050859 -14.19289266 13.87374162
v -117.69920792 -21.17114977 30.87907225
v -116.89651569 -12.32554725 14.47444141
v -105.02670445 -10.97984330 26.77799810
v -105.25993021 -8.98589323 20.73428602
v -106.71135619 -12.12017348 19.99321426
v -103.53109368 -12.97732073 30.41763834
v -114.43565559 -28.61311413 27.81440244
v -102.86926477 -20.75279481 31.72195219
v -115.60687565 -8.54398962 24.69020443
v -108.46801202 -19.51247999 22.88182953
v -120.55100094 -24.04034059 27.89929417
v -111.46775189 -9.72684006 28.83460674
v -118.44456579 -21.86202602 21.36383711
v -112.43923101 -8.73959803 16.03273476
v -119.35609123 -18.80362396 26.70120105
v -120.28893479 -27.36868736 24.79759259
v -115.96569197 -21.75305602 20.29681531
v -118.55038290 -21.37592898 21.18253910
v -114.62396098 -8.33727534 22.46068240
v -102.21188127 -13.75385636 33.94188045
v -115.05248625 -16.70957105 30.96762509
v -119.15486839 -26.56861254 30.10081122
v -107.44527701 -12.26456029 32.04393390
v -106.54613797 -25.62401997 36.73502740
v -106.66964048 -8.92060981 26.40381459
v -110.16737432 -10.47919990 14.30663349
v -118.68224996 -22.43007624 21.93378811
v -119.16795321 -21.14267270 28.75632784
v -109.24118164 -20.19087345 22.67007886
v -119.72439034 -18.40783344 19.38517144
v -103.72335250 -15.89896750 26.90264229
v -107.34237977 -25.07648377 36.80224143
v -118.06289786 -13.58022956 15.22354749
v -104.43656700 -13.13807660 32.43893469
v -120.55107229 -16.53226884 19.90599014
v -117.40200618 -18.94174120 30.14671329
v -112.42863243 -21.01146718 34.37489761
v -107.61798207 -12.93861852 19.51446721
v -115.88577076 -10.21496451 16.64554421
v -116.01879348 -17.30927265 30.55851429
v -120.27092946 -16.93152350 18.87600267
v -115.87657026 -28.68624861 27.21075586
v -118.98044591 -15.35876264 16.07479547
v -118.18264447 -16.66766552 15.97216672
v -120.06642675 -18.14977707 19.87805391
v -104.98645134 -24.55106603 32.03460583
v -104.71312345 -12.46913674 26.70961926
v -110.48127983 -12.25995155 15.14989950
v -107.28133263 -11.76704725 31.00923020
v -106.27013179 -27.11528205 35.60703318
v -110.48518287 -29.92035568 33.92701840
v -109.52505813 -8.21809338 18.29692407
v -113.97468394 -12.22886308 12.99587715
v -107.60092238 -8.52653924 18.81094386
v -117.66251049 -22.10314305 31.25629860
v -112.70871689 -10.49518697 29.21335318
v -114.25530093 -25.31809742 24.26700691
v -106.61909818 -8.40434343 24.52129732
v -114.25174274 -17.00824296 31.52468130
v -120.30338625 -23.71379197 28.27759521
v -105.97783439 -15.41278956 23.72862333
v -117.21820815 -16.11804135 29.67074937
v -119.66800016 -23.21231331 23.21645662
v -113.18804923 -8.75728244 16.38994600
v -113.02018487 -9.28411767 15.15185018
v -112.82704903 -14.23570259 14.86603141
v -104.60405271 -15.17625448 34.89916494
v -119.78560911 -14.14868266 24.93564694
v -107.76206624 -28.37737831 35.18821976
v -104.53493790 -23.68075960 31.47116759
v -119.86609849 -27.00313980 24.15313857
v -108.21087761 -26.61354014 29.46760505
v -101.55812330 -17.83793883 31.92465673
v -106.23378358 -16.85276155 23.89190779
v -113.91258340 -18.32881750 17.38615680
v -105.90732450 -11.90036908 21.20835324
v -114.61109651 -26.23489292 25.05932855
v -119.69696385 -14.36131087 29.45342988
v -105.65741391 -8.74773436 21.18003806
v -120.57327093 -26.55503407 24.30756194
v -116.85361435 -9.87601113 20.29496477
v -103.32428784 -16.01453542 27.39686961
v -120.28164013 -17.50699015 19.68581032
v -109.11064608 -10.87794457 30.71083787
v -118.35750132 -13.11082566 29.40216173
v -105.31270705 -9.39123001 20.09042165
v -113.65677871 -8.27155384 20.15383182
v -118.43788360 -27.96647628 25.33742234
v -108.40741569 -8.08361493 24.96845249
v -116.63656254 -29.73226689 28.65213081
v -105.06146324 -9.78448713 25.89496373
v -115.33652688 -16.68865131 15.59592995
v -117.76271692 -10.91916339 28.04403449
v -111.47698670 -20.16681012 34.48773562
v -104.89344269 -11.17104479 23.00784483
v -107.08640645 -20.62381962 24.77239737
v -112.31013590 -7.76796816 24.40067636
v -111.63872715 -15.02153668 31.86894887
v -119.35311057 -26.74167246 23.73251996
v -104.49900045 -9.43104092 24.41324598
v -116.82358366 -29.48381777 29.95690571
v -121.09653830 -25.93018907 25.07543463
v -106.69722066 -26.77041626 32.18939934
v -110.59671522 -28.96688223 35.54772019
v -120.09033585 -25.55754269 29.13483266
v -116.93433970 -10.40176349 28.00296014
v -106.37040432 -17.64480673 24.06787067
v -105.79823280 -13.81402492 23.59390549
v -117.50585642 -10.38476059 27.35461075
v -120.15026223 -26.80070754 24.11121085
v -105.25442462 -10.30217576 20.63435500
v -120.70794606 -24.43014679 24.81002326
v -118.86647817 -16.71516602 27.96962637
v -118.44462256 -24.19510042 31.00265312
v -109.74987925 -28.71595903 35.95105349
v -113.14774066 -9.69368472 28.32336142
v -118.52896333 -10.65527100 23.91305294
v -119.12353069 -21.86359183 22.29579232
v -112.11840553 -30.21361984 33.02845622
v -110.61219598 -8.10765178 18.07110409
v -112.53342654 -13.42766357 14.27928112
v -110.83598492 -8.17390749 26.29554846
v -115.71143835 -9.80433027 17.71801019
v -104.31678143 -22.86241602 30.34853675
v -111.52862507 -13.25367136 31.08947050
v -119.01604992 -12.18551911 27.57340754
v -113.31901057 -13.76364753 14.04818406
v -108.89423110 -16.69781153 21.02804188
v -104.25506163 -10.02005563 24.15403199
v -114.18857536 -18.82328974 32.49283426
v -119.50254078 -13.42409065 22.90856835
v -109.82529548 -11.73475134 15.42186208
v -119.01260478 -11.65772796 24.50368141
v -108.15103378 -7.95596726 23.25232537
v -105.73555087 -13.49538997 33.17233031
v -116.04313757 -29.84485472 29.83394446
v -109.35059107 -29.35368346 34.98754683
v -107.60096882 -8.06589625 24.04387824
v -110.73592703 -8.62921390 27.39870159
v -109.33528472 -9.82742883 29.75716050
v -118.90174955 -25.86690598 22.86281177
v -104.22478602 -13.55492891 27.04613595
v -109.03252435 -28.58767002 36.07598967
v -120.13042875 -26.33631769 29.04689561
v -108.82683822 -8.82816065 27.77645206
v -120.15649163 -16.24033008 23.52526596
v -109.74454547 -27.91728487 36.22011224
v -107.65432454 -11.00536702 17.65324231
v -119.54175485 -16.76952814 17.31711936
v -105.07847501 -14.24539796 25.21132856
v -103.68816318 -13.57464059 27.97474666
v -110.99262235 -7.71590213 23.51352655
v -103.77303184 -14.40561580 27.24886245
v -110.48414848 -23.05625122 24.07941260
v -112.42431538 -10.74329843 13.22936908
v -112.45271112 -16.71819795 17.43648435
v -119.69729887 -17.25774230 17.89944851
v -114.49346986 -19.45314116 17.96708847
v -120.46073405 -17.29706588 21.03498528
v -119.08420834 -13.14040930 17.76259455
v -116.45714642 -24.16559729 22.19967231
v -110.88681719 -7.76183994 24.54249584
v -117.00638150 -20.48870843 19.01978693
v -113.12527931 -8.56485771 17.10531996
v -120.08242055 -24.50821328 28.99770161
v -120.09611785 -15.05988627 18.35851972
v -108.73052856 -8.94490571 16.47905942
v -118.84734898 -11.60022275 26.92609508
v -109.11025926 -27.21026397 29.40069263
v -119.13408140 -21.97301184 29.38552284
v -115.41186536 -14.27323683 13.90372499
v -104.26953549 -9.45541233 22.71752785
v -119.50285880 -13.91195060 17.67348174
v -118.70309858 -15.92328160 15.96864674
v -109.19644304 -8.40303900 17.69548840
v -118.57970908 -11.84314961 20.37204408
v -120.46596209 -15.42708143 20.73582993
v -104.53768679 -23.85206582 36.20250398
v -105.98515386 -8.51315766 23.13469161
v -112.86636922 -27.78162822 34.33308691
v -101.90495593 -13.90474678 30.10283738
v -119.28343649 -23.21989694 22.69872345
v -112.82850411 -29.60811373 33.60732258
v -114.60196867 -8.13353665 24.57035529
v -107.11959885 -9.10543860 17.59742637
v -120.10062985 -18.47543813 22.87018539
v -110.84394802 -15.40615854 17.83135085
v -103.47861045 -21.80568322 31.06558698
v -106.18735537 -18.21328475 24.59486609
v -103.80607225 -19.13777934 27.58477990
v -119.45587484 -14.80656724 29.54769910
v -119.97595799 -15.35562960 26.76005997
v -116.41936016 -23.65377169 21.80059574
v -119.97983031 -21.77437292 26.83514163
v -119.72676106 -19.83738807 22.36132902
v -115.14347316 -8.84904960 20.16937562
v -118.81461929 -12.46894588 19.12252933
v -116.50186233 -29.81135656 29.13615524
v -119.29338593 -17.34339397 26.74661989
v -106.71539612 -15.29199691 22.71871295
v -112.84414983 -21.08045002 20.81590490
v -106.37232037 -22.66519742 36.67928681
v -119.93685664 -26.10929203 29.38555427
v -106.14541663 -22.35163537 26.72020321
v -104.45435921 -21.35806923 28.03697555
v -105.54712787 -9.60162113 19.73833279
v -119.50412012 -20.00334934 21.61997921
v -115.97280838 -25.35309352 32.85499319
v -106.79739393 -15.53824934 34.26139440
v -120.36136891 -17.60482163 20.38034569
v -118.09507165 -14.58628732 29.97556539
v -118.75031100 -19.14471909 18.65407249
v -106.27806591 -24.65240475 28.98439364
v -108.56327644 -8.24414011 18.95430428
v -120.22845101 -15.76250333 22.73871890
v -111.43671151 -28.78477811 29.76301742
v -108.66092555 -9.43061606 28.71513381
v -107.32410795 -8.64635584 18.28488843
v -104.96294702 -12.06943768 27.91726317
v -105.84103470 -8.66553426 24.46206235
v -105.48751247 -21.44591003 26.82291454
v -116.06449904 -19.22502107 17.43353472
v -120.28779368 -24.53071417 23.72025214
v -102.11877051 -19.03188745 31.28013457
v -101.60471715 -16.71008178 30.55699686
v -106.69445763 -8.33257755 22.24681900
v -118.97212664 -16.48049001 16.48314260
v -118.83616128 -27.88268770 29.81008583
v -121.14146912 -26.77141970 25.62900400
v -108.30667882 -12.48521212 32.00158691
v -119.65637001 -19.89386504 25.51203777
v -114.28514459 -22.32069220 21.38570425
v -115.43996909 -8.59985984 25.53963380
v -105.90028540 -9.06575424 25.77151700
v -106.81509198 -17.00385652 23.28906494
v -117.82270265 -29.47958180 29.26427836
v -109.07279012 -13.13801670 17.78051490
v -107.20535470 -8.74973397 18.06399188
v -113.28134957 -16.98594175 16.92079726
v -117.93163838 -11.19808194 19.44826461
v -113.85925574 -26.63135444 25.90388822
v -100.91151929 -15.47730104 32.77424898
v -108.04341405 -27.45910886 30.90405831
v -118.25740088 -19.12648550 29.13756582
v -110.11970871 -27.71470871 29.23773099
v -117.58226228 -10.14870868 21.20925313
v -113.04454323 -29.59020782 30.19055196
v -118.55627784 -21.61176184 30.01078996
v -102.37317671 -18.94573772 30.19370964
v -115.50700223 -15.18831081 30.42760374
v -106.74415494 -13.37109669 32.99428013
v -106.86797612 -11.69562942 30.48213290
v -117.23660612 -13.98606997 29.98632958
v -105.39264329 -12.16262392 29.19164756
v -107.20905606 -25.83757587 29.54821664
v -112.07730460 -7.93174838 19.04164683
v -116.99084479 -23.54960694 32.09904049
v -109.86814461 -22.31249424 23.78115957
v -112.50368301 -25.41227315 34.92552151
v -116.97323376 -16.52098886 15.35948547
v -120.61421412 -26.99013831 27.76352764
v -108.48889932 -12.26819435 17.69143522
v -113.32113173 -7.85125352 24.41901577
v -106.27095153 -10.99362440 28.65475578
v -112.17912972 -21.91489612 34.76398230
v -108.51592506 -18.01923435 22.08024650
v -105.69310799 -24.37461878 36.66567029
v -104.35722505 -10.31674509 23.38795304
v -117.92728281 -10.11283003 22.70603424
v -118.99225770 -19.12849766 27.88862938
v -112.19747735 -21.92078849 22.09969431
v -108.09433201 -12.95268470 32.40512197
v -119.51717838 -25.33776255 22.97017731
v -111.45468409 -8.03164571 17.82804986
v -111.58398648 -26.05513868 26.45336319
v -113.42285140 -29.34255733 29.46727263
v -120.25643761 -23.74604720 24.01858410
v -105.12162343 -22.83016651 28.47121943
v -119.15935574 -12.78692582 20.55852622
v -117.96526085 -10.87627130 20.55933087
v -109.42008157 -22.72836044 24.37614458
v -118.10900749 -15.44548859 15.35555398
v -105.61471906 -13.12840464 23.52291407
v -113.64336370 -29.92423838 32.19888406
v -102.38875692 -17.29686898 28.84400990
v -120.93536435 -26.13764996 24.69917245
v -105.43225793 -8.65824603 22.76217573
v -114.08101218 -8.32016746 25.90301940
v -115.16788808 -27.85692803 26.54833715
v -103.89864330 -22.00071509 29.96512465
v -110.14236658 -7.85717558 24.92976081
v -114.84086146 -10.41737846 14.42414014
v -107.92030405 -14.16799934 20.28223967
v -105.47481776 -25.96002048 35.91016813
v -109.40763136 -9.31319825 15.56769206
v -108.92782586 -8.69671983 16.85631497
v -114.07523298 -27.79491479 33.29115729
v -102.03816165 -18.74838815 35.01837288
v -116.17574230 -24.91228577 22.87160079
v -108.41359922 -8.17608627 25.67185589
v -118.61257217 -20.36097985 29.23801297
v -119.87233889 -28.57858752 26.31095666
v -114.63008797 -27.07308036 25.93065611
v -108.76316197 -12.17631919 31.60055511
v -106.39699359 -8.93570930 18.74165817
v -117.91824900 -10.07359578 24.88546090
v -106.92655611 -10.87745271 18.55398275
v -120.38870946 -24.55702726 28.35311156
v -116.64113799 -10.31302658 18.41111990
v -102.88809488 -20.57167608 30.89359446
v -107.64319715 -14.58984590 33.61462539
v -101.02598233 -14.10136629 33.21984586
v -120.78231140 -27.33469003 27.19506237
v -114.49280186 -9.12822515 17.46183845
v -102.43618728 -14.24664499 34.54357003
v -113.89111671 -15.87556504 15.70085408
v -104.23546753 -10.00442942 23.60982989
v -114.28900099 -9.19849387 27.35821412
v -102.20378453 -15.60699119 35.20148296
v -119.52841679 -21.38006249 28.09013802
v -114.15644843 -7.94427222 23.84194543
v -117.30864229 -9.58265386 24.62502545
v -119.19487380 -12.22566533 24.09979966
v -111.37457478 -18.09960388 33.59722717
v -116.37609202 -9.49452063 26.69987524
v -106.83228456 -11.32866368 29.82136686
v -103.08045238 -17.40037596 27.76604380
v -106.51374077 -8.61464758 20.08930270
v -109.85929174 -12.85111554 31.65655177
v -104.07308833 -15.14777025 26.45919390
v -119.45028222 -20.80129147 22.51471461
v -109.72652790 -21.64163773 23.28932068
v -109.48383019 -21.72721996 35.97040996
v -105.61260274 -24.98905991 30.97502906
v -106.87345583 -14.09465415 21.67904679
v -105.01843965 -20.30212709 26.78243839
v -110.08233935 -25.58052357 36.25492867
v -107.50036395 -27.83314993 36.15392492
v -108.88668092 -7.85856588 23.70005166
v -109.14739462 -23.40252125 36.36132761
v -109.64211989 -28.38523881 30.70791359
v -105.31900509 -8.79630535 22.16630826
v -104.86152386 -8.92487748 22.96211698
v -102.01748263 -19.01558900 32.90055787
v -116.46492473 -17.02617042 15.58496812
v -117.57610296 -11.35575123 17.78110483
v -119.84441972 -19.52290971 23.08864480
v -106.13936306 -12.83179340 21.79374279
v -117.83824995 -13.01287191 15.24779170
v -116.28873278 -13.52086808 13.74115687
v -103.73961563 -22.88843154 35.82773048
v -105.73252774 -24.53495722 29.79393226
v -106.30868740 -21.59990843 26.06756314
v -106.87443652 -11.41000127 19.10249896
v -108.37994116 -13.06018537 18.62008268
v -103.88676177 -14.07705654 27.25470190
v -105.66626866 -17.13313525 24.76493816
v -105.73974744 -9.10331484 19.58747950
v -112.31736575 -7.75098569 23.24091868
v -107.72476244 -21.24797374 24.52162931
v -117.65264573 -21.62293277 20.55625945
v -116.25770893 -17.73919202 16.04371462
v -119.56475453 -19.30232817 20.34481067
v -115.43118331 -11.46199174 13.53432132
v -106.54015953 -26.17428639 31.20865186
v -113.73140082 -21.50692623 20.75499624
v -107.10020086 -13.43730889 20.77457067
v -105.02024612 -14.90773096 25.12214715
v -106.04455329 -23.88697858 28.31014276
v -119.35682850 -12.50046794 27.21065724
v -118.31936769 -24.63573808 22.32069817
v -113.67579933 -13.40599306 13.63259607
v -118.06542835 -27.42523349 24.75846033
v -102.14981895 -18.11367054 29.92363008
v -113.31998924 -20.44054040 19.69090776
v -118.49398640 -23.27488607 22.04971891
v -107.71850112 -8.23391029 20.46525658
v -107.74344896 -8.74703544 26.90589932
v -104.24961907 -19.03438936 36.32472346
v -108.81452907 -15.52603465 20.32888043
v -117.53973226 -14.12215145 14.57388553
v -104.58198279 -18.21618648 36.20203332
v -117.08894498 -25.05485013 22.67606247
v -111.49324384 -17.19415759 33.06929884
v -109.27828056 -26.05302641 36.55440473
v -106.82621196 -26.34960746 36.64838785
v -107.44303696 -8.24083654 21.35450993
v -120.19540153 -15.75567192 18.25791405
v -104.38713325 -9.35694670 23.35506897
v -115.67823180 -29.68355933 28.90115238
v -119.56423655 -22.26871147 28.76498233
v -107.48013557 -27.86179878 33.21334421
v -107.16345624 -19.03768411 23.83556121
v -117.62938872 -15.46381060 29.74480357
v -111.30858079 -10.63787551 13.52256873
v -116.55658956 -11.23511980 15.40097888
v -116.99856611 -17.13245054 15.72927594
v -106.58718927 -25.78969273 30.39670879
v -101.03147095 -16.16445240 32.65314209
v -117.74136723 -20.01859270 30.24758353
v -109.56338813 -8.02813502 19.05003772
v -117.97602175 -23.36527456 21.87697845
v -119.72570638 -21.70205438 23.67340580
v -114.64936761 -14.31363047 14.00980759
v -119.20227930 -20.64282582 21.66858030
v -114.94112224 -8.67363683 20.67061851
v -110.44723819 -17.96347356 33.91814176
v -106.49695971 -10.33088064 18.74867966
v -115.47180462 -12.34793240 13.28457244
v -104.40697177 -23.29064235 30.87631975
v -119.97988632 -18.85908822 21.08585777
v -113.46736287 -10.60149603 13.37672794
v -105.37844064 -14.12494735 24.57040989
v -112.38870860 -8.75397182 27.10846537
v -115.02048938 -16.18697048 30.78175955
v -110.26188075 -9.56719356 14.89588759
v -105.35578247 -25.85826010 34.69804341
v -108.39229512 -20.53581956 23.51095874
v -105.69506737 -12.48379277 22.45134280
v -102.09878748 -17.52959858 29.60681662
v -119.32574131 -22.99274306 29.61322991
v -109.27864817 -9.56470226 15.38554607
v -107.70611182 -17.03855601 22.34589636
v -109.06430112 -10.19265504 15.28851604
v -117.86740135 -12.59887385 15.81237912
v -113.82909101 -23.29003365 34.03677580
v -113.72158638 -21.89196606 33.80949505
v -118.47536863 -20.97135133 29.85811427
v -104.69790336 -22.71733038 29.04853909
v -117.63345669 -19.00563742 17.63050616
v -106.27574667 -19.93843673 25.24589164
v -109.39306265 -18.97390456 21.84514960
v -107.12101646 -20.64156214 36.30459400
v -111.13746620 -14.28964745 16.44020516
v -110.82259624 -23.87007565 24.60614274
v -118.51872535 -23.39932745 30.68962174
v -109.30264836 -7.85354623 22.49224057
v -102.95926366 -19.10689191 36.18302979
v -107.81022714 -8.32253990 19.53208967
v -117.35523839 -12.04133315 29.11982859
v -108.44374285 -8.47723265 17.92049246
v -105.52445254 -11.13621513 21.10068615
v -108.23461600 -18.60842393 35.22476502
v -118.96193904 -23.35110263 22.41291885
v -118.95158195 -29.35746881 27.98258672
v -106.59179917 -10.74722221 18.92432701
v -114.88262686 -8.94361421 26.64694651
v -117.48271053 -26.04936961 23.36427700
v -116.27061245 -15.45631074 14.67784269
v -111.92701574 -26.77813468 27.05583556
v -114.24305647 -20.59938968 33.26999079
v -113.71921792 -29.98189356 30.60884228
v -104.40861344 -12.90155494 27.24071176
v -119.67506811 -13.88945919 22.25657247
v -112.86975241 -15.32584678 15.93889171
v -107.52520687 -9.71056481 28.41289473
v -112.20763311 -7.79978812 22.78652568
v -105.36406306 -13.19304674 24.56303312
v -104.43137088 -9.53579934 21.99305906
v -106.26879925 -8.42493197 22.58351226
v -113.49460759 -16.84744699 31.85910889
v -119.64164532 -13.62925882 19.51243581
v -116.36548944 -18.19296206 30.70237762
v -120.26840576 -16.36322393 18.61828108
v -102.88438798 -14.06393424 28.65584368
v -115.64729008 -23.46828181 21.89767678
v -118.89963456 -12.26677490 21.71502268
v -107.80057579 -14.42273309 20.65797358
v -113.55912831 -28.65788948 33.36740187
v -109.05452430 -11.69321789 16.30574071
v -103.30453612 -13.44487007 28.85929177
v -107.26775595 -11.42099420 18.53100142
v -119.48448656 -13.34435106 20.96721032
v -113.09507144 -22.80223806 22.49539438
v -106.45666092 -8.43738861 23.78896559
v -108.04845051 -28.35298548 35.95811148
v -104.97472771 -16.70549219 25.47987195
v -107.10474444 -22.39524071 25.89598842
v -105.78695651 -20.65518959 36.47360144
v -104.48360141 -10.17646268 22.24923148
v -107.29618968 -19.83689765 24.10772290
v -114.15467054 -26.09725047 33.79924032
v -108.15283143 -18.69525229 22.76937626
v -113.84700673 -8.74210616 17.83449793
v -101.53231332 -16.21201122 35.03125884
v -108.99683848 -27.97595725 30.63612903
v -117.49036839 -22.71194108 21.30808134
v -117.04425180 -24.46651516 22.26697048
v -107.39068783 -13.02611517 32.60532092
v -109.98041177 -27.36285444 36.22365799
v -120.54168530 -15.54076395 19.99655756
v -105.47823089 -25.65670836 36.18081745
v -101.47496911 -17.48400252 34.33015912
v -116.30806698 -9.24076582 26.20308017
v -110.63611626 -7.89907257 19.71671284
v -119.15666127 -19.83957291 20.31493843
v -119.68934468 -27.61262678 24.85198197
v -120.48182543 -16.06783163 19.33518078
v -115.30587212 -18.73538472 31.72407568
v -102.07637945 -13.20086614 32.30623096
v -117.67691326 -9.72247933 23.47022627
v -110.33514847 -26.18377859 27.31913218
v -118.83961091 -24.40972840 22.42167034
v -104.51244355 -10.75928232 23.85896379
v -118.22487379 -10.65790426 26.20413386
v -119.64649925 -20.64154617 23.25490494
v -114.79208654 -20.86312484 33.04520887
v -116.65275474 -9.08447231 25.16517647
v -120.42332560 -17.27950701 21.99729838
v -106.04522465 -14.67720501 34.01154652
v -120.53276722 -16.54260363 21.34525860
v -117.70015782 -29.64329443 28.87748586
v -109.87419851 -18.51077585 21.19681107
v -105.30063515 -12.31680374 23.61986791
v -118.14688804 -18.41383453 28.97909453
v -116.91539293 -10.14761761 19.42579439
v -117.74132009 -29.10348994 29.75197857
v -118.56256700 -18.71408126 28.43660421
v -115.26818381 -13.29170619 13.44025401
v -107.88965889 -16.21557085 34.23067600
v -115.94506128 -18.83489360 31.34281617
v -115.04968876 -14.50771811 30.44280002
v -119.98504309 -28.38990069 27.90347553
v -102.55184200 -16.92965819 28.47028642
v -108.17925646 -13.92702451 32.97474927
v -109.22292980 -7.98774669 21.05263151
v -107.01715272 -18.07264140 23.54133820
v -108.75560737 -22.42947229 36.31828737
v -103.35528438 -18.34741861 36.18381428
v -105.38109246 -17.68517410 25.33953103
v -120.13763784 -14.70438578 28.02272637
v -109.28189725 -10.55123677 30.47481977
v -111.27645415 -23.70548941 35.53643939
v -114.63523609 -13.13326802 13.33321962
v -108.41389599 -15.99474425 21.09771994
v -109.69680749 -29.15055116 32.25131496
v -117.22612272 -12.23855862 15.01074634
v -117.78549784 -13.93088024 14.83033947
v -111.50245169 -16.31912163 17.96937000
v -110.73801582 -9.92315424 14.21458315
v -119.67223219 -16.00988508 26.74756823
v -105.98363790 -8.74891002 20.27953438
v -116.28258336 -21.61882928 32.28261449
v -110.40854729 -7.89899570 21.77033281
v -110.31066324 -24.91958507 36.14291335
v -118.71965436 -20.85750816 20.90959288
v -113.82943945 -14.42439753 14.45485402
v -105.87878587 -17.02575730 35.46515220
v -102.56721557 -20.33184871 34.32260396
v -119.53524927 -12.57836464 26.70700383
v -121.01195439 -25.03364858 25.27769877
v -117.58733343 -23.44417142 31.62727113
v -119.91169355 -15.35096396 17.57185470
v -104.45532194 -17.33807584 26.26137162
v -119.44851377 -15.59449729 16.70386195
v -101.27473702 -17.10352113 33.20862357
v -118.00428393 -11.81761178 28.69010872
v -112.47174014 -21.46027627 21.42371912
v -112.91615431 -24.08235609 23.77648659
v -112.83349241 -8.23460109 18.28329729
v -105.57051146 -12.63621491 30.90908775
v -106.38303244 -8.83224949 19.00517969
v -110.99309916 -21.81215456 22.69401666
v -106.52654423 -13.96307368 22.19828082
v -110.27808727 -13.53534283 16.67824469
v -115.13341474 -15.66618536 30.60276640
v -120.03649765 -22.26661144 24.57112760
v -115.55247086 -26.36994620 32.82293685
v -112.98660843 -11.35318593 13.00063801
v -108.30295908 -9.56702006 15.94822944
v -111.72634648 -12.53271536 14.21292128
v -113.69028504 -8.50623320 18.49401800
v -110.88681689 -17.33114055 19.39592167
v -115.47577570 -8.44343494 23.98751589
v -108.01057728 -11.87925747 31.43522687
v -116.11344023 -24.28390860 22.44125704
v -111.87434521 -9.91949422 14.02292025
v -106.29000219 -12.44368062 31.51945887
v -105.63349574 -9.81375135 26.65059884
v -112.04038763 -18.21345210 18.89947803
v -120.45346789 -15.42149555 19.31690823
v -113.80386203 -12.92435741 13.32145174
v -107.24789699 -8.16850018 23.45240433
v -110.28927214 -8.35599918 17.37134010
v -119.42736018 -12.33706265 25.62311816
v -115.57026865 -18.04024020 31.19983511
v -114.90996365 -17.91078585 31.56859597
v -113.56660620 -24.89557804 34.38306219
v -114.71445728 -29.00933732 32.03929930
v -120.04927984 -22.34051304 27.53398262
v -119.74833748 -28.21884891 25.62351140
v -101.06985754 -15.97730882 34.05284341
v -106.40156442 -16.01087365 23.47131463
v -117.61018852 -25.16955306 31.71623128
v -104.80048525 -9.05341232 22.27894876
v -114.77932178 -21.65319286 20.37334824
v -117.02288497 -12.84530515 14.34224478
v -113.38376526 -21.15049130 33.85774157
v -101.83024041 -13.55113692 33.35399627
v -109.30608724 -14.19580856 18.55543901
v -119.29544633 -14.15871287 16.93903704
v -107.57352179 -17.86678208 22.92152846
v -105.01704980 -22.40519974 28.14404370
v -114.03805753 -11.04199503 13.13731076
v -111.08551869 -29.85286790 32.48811001
v -102.71632877 -15.76360129 35.44694903
v -110.72059186 -19.04986184 20.75573373
v -103.61863287 -15.17895809 35.17002859
v -119.25367238 -28.66486904 28.96177152
v -106.64461010 -12.72188394 32.17279077
v -113.06915301 -12.32908129 13.25933019
v -107.63431927 -8.94266237 17.28901320
v -119.89270442 -14.62625584 23.20568866
v -108.87495287 -8.40377829 26.94937403
v -104.44771720 -10.68536395 24.94137463
v -114.36985826 -23.13119611 33.65332146
v -116.36606142 -22.81966863 32.40742106
v -108.22688283 -11.09601796 30.78895289
v -110.41391170 -9.88232869 14.39479953
v -119.12578117 -18.31178448 18.17766089
v -111.61225277 -11.27230715 13.42523949
v -118.34354508 -16.50713003 28.71046465
v -116.27484657 -22.50999441 20.98098933
v -117.22587499 -9.79631472 21.45821160
v -115.28610495 -9.41519464 18.10992602
v -116.35829366 -25.48420667 23.35929625
v -119.77266986 -28.77800005 27.64333090
v -113.42850722 -19.53346408 18.67255912
v -103.18731155 -21.79365895 33.84687053
v -113.93907416 -30.06469573 31.00642076
v -104.26532415 -9.87109310 24.33354320
v -113.76516473 -24.57565601 34.24203800
v -117.36153601 -14.31842283 14.48914211
v -119.19661552 -20.01037799 27.82984077
v -105.28371783 -16.06111809 24.85769661
v -111.82000687 -23.38247868 23.69929211
v -108.94836497 -24.75427582 36.66640041
v -117.07318661 -22.74463031 31.90649015
v -115.92524022 -24.19351408 32.84714984
v -110.25953499 -12.16113476 31.11125902
v -109.67578790 -16.20327089 33.47006120
v -102.52777457 -19.32146401 35.76637739
v -120.12194918 -14.65916226 18.81218604
v -106.59168813 -14.02164927 33.63535711
v -115.52011736 -27.14392370 32.57045677
v -120.38363555 -15.59533944 21.64944498
v -114.21074237 -19.91395224 18.55788525
v -118.16288756 -18.12973165 17.11475770
v -102.20192362 -16.91518796 35.61312684
v -117.90928495 -19.50826991 18.34353578
v -108.05762382 -9.89559316 16.31005847
v -115.64820962 -11.89139244 13.42947614
v -117.72988090 -13.48359895 29.76727954
v -113.87761251 -8.99637602 16.68649551
v -113.40954557 -8.02792198 22.82615668
v -115.33845275 -12.79865861 13.28380392
v -104.52937958 -13.05437900 26.77807053
v -112.96771778 -11.17600234 29.60508270
v -118.15220626 -22.61018562 21.56598958
v -104.57034058 -10.60843929 22.95204521
v -107.15345534 -10.12858691 17.64440800
v -117.67210493 -10.57006548 20.29525883
v -120.09462336 -18.71471337 21.91986658
v -108.63533620 -25.83637008 28.06412151
v -119.94331998 -15.90556877 17.63884771
v -102.94230749 -13.84478719 34.00150060
v -110.18091107 -16.09331677 33.15356302
v -114.71056271 -20.73265331 19.41916209
v -105.84615998 -18.94262584 25.29017594
v -119.53002284 -21.31871770 23.01473231
v -107.44093710 -23.57524190 26.64020566
v -101.80100425 -16.09729633 29.60093201
v -112.06637115 -9.29128709 14.83738228
v -107.10184151 -16.02044901 22.57991288
v -116.36620741 -15.53180040 30.14450777
v -110.52221076 -15.12808395 32.47670700
v -103.24361725 -21.18048946 35.97276895
v -105.84506858 -11.47317081 28.68294251
v -103.52873473 -22.08187440 31.80333225
v -105.23097296 -23.83137753 29.65353751
v -104.50959757 -10.87670039 24.63952728
v -116.81533910 -18.96802437 17.32125881
v -119.92350142 -24.56530566 23.23534946
v -107.22435266 -27.89517425 34.65482782
v -113.12647483 -30.16141768 32.10182734
v -113.86406557 -20.60390369 19.58233114
v -103.15895162 -13.02945664 31.72862127
v -117.10635165 -9.65857033 26.22474743
v -103.24256174 -20.27879152 36.18776821
v -117.50067499 -18.12234707 29.58580204
v -108.14508670 -20.65392953 36.07007933
v -104.69196038 -12.75094925 30.35407870
v -107.97704396 -9.64481238 28.70444656
v -105.61062991 -15.90801151 34.98655464
v -108.60025509 -27.15370146 36.56792327
v -115.17775109 -29.96279478 29.98241235
v -119.01436608 -26.39881646 23.29754434
v -119.37305088 -24.43413614 22.76038201
v -115.33318878 -20.28922758 18.68466887
v -105.74855354 -16.18894627 24.28067784
v -119.61813190 -20.76567848 27.15272537
v -117.02219413 -18.21101489 30.13662318
v -119.61361691 -21.08969787 27.57802804
v -107.87424612 -9.29579202 16.65711529
v -113.13816547 -15.79800051 31.52954465
v -116.79754032 -16.62504974 29.87734950
v -107.49047768 -10.65054282 29.70574510
v -111.49089212 -8.40717892 16.80762423
v -118.78479885 -17.51095461 27.88475368
v -103.27876276 -16.48835538 27.45318586
v -120.20075425 -14.91952835 21.51858795
v -101.97895102 -14.85447273 29.55469168
v -108.83081868 -24.08648749 36.69968670
v -106.60126289 -27.25434589 34.11465959
v -120.69971409 -23.58598331 26.91832680
v -119.28547283 -16.58533268 27.29770767
v -107.09869734 -12.22636307 31.88023249
v -119.74064179 -19.73870601 24.14593897
v -108.32046552 -13.71798171 19.36660495
v -115.79391620 -25.94902646 24.11398335
v -120.18029996 -27.85090507 28.05636982
v -112.85442759 -8.10074645 25.87654182
v -117.13133781 -29.05320154 27.25228805
v -120.98045834 -26.30892867 27.21014649
v -118.69519015 -11.21132576 25.89266607
v -110.74885326 -16.09282697 18.51691445
v -118.85674113 -17.08047442 27.83702269
v -119.32619421 -18.74056348 19.02448759
v -106.06082927 -13.11057804 32.62329863
v -119.73210057 -16.23005183 17.32204138
v -113.40631538 -8.71527224 26.79059353
v -105.04237935 -9.13888733 24.74630300
v -114.33633439 -29.99662212 31.14281273
v -118.99089025 -11.61079825 25.34946952
v -103.90898721 -13.03839158 28.51491934
v -107.79977626 -10.26354027 16.82340259
v -104.92984176 -18.10554232 25.98410101
v -105.80645966 -25.58656069 31.86431819
v -104.49091981 -10.05484191 24.99762567
v -102.89320724 -20.73026215 35.51208115
v -115.99157314 -10.50710521 16.10272944
v -102.50175638 -18.57288492 35.91726314
v -111.49654806 -29.11963767 34.93480005
v -115.27348781 -25.08263279 23.44616050
v -120.11034282 -22.20010817 25.25220757
v -120.51875676 -16.50329927 19.60376335
v -116.23704187 -20.60989843 19.00047067
v -114.48899037 -8.41287637 21.62007482
v -101.33721248 -15.22378288 30.67986969
v -119.09875712 -14.30034377 16.40243138
v -119.31143566 -18.03097177 26.73183830
v -114.25587757 -17.79541714 31.93045471
v -108.37983850 -21.76256797 24.34491798
v -118.82731523 -13.58859866 16.41147847
v -119.64938035 -20.22937008 26.17945307
v -106.19951080 -24.05583888 36.74403086
v -104.61277332 -9.12229752 23.65514836
v -118.38955280 -12.16609811 18.01183230
v -113.16054260 -8.16967532 19.43149523
v -101.74021426 -17.33356381 35.22471371
v -117.43801609 -11.83482332 15.99436069
v -100.85820168 -13.95521810 32.32454832
v -104.95366141 -21.70487869 36.56083172
v -105.08843708 -10.88234434 21.74147505
v -101.19422704 -13.85075449 31.52489809
v -108.54638723 -7.95346287 22.41989970
v -118.84865353 -18.19702602 17.70189889
v -109.56779832 -29.25169133 35.50741379
v -110.98572832 -9.14636765 28.19709569
v -102.07879558 -15.56020606 29.14922028
v -110.56849160 -25.42623209 26.34954104
v -115.15653296 -17.67674334 16.23899847
v -114.85513442 -28.30930513 32.49726317
v -107.60012044 -9.47443552 16.85191629
v -119.71400263 -19.44373681 21.24248661
v -115.73041004 -15.38614604 14.64731639
v -119.14372088 -29.18119671 27.16425405
v -119.68669927 -19.22921360 24.97451574
v -112.29742662 -19.25731434 33.68138015
v -105.56566649 -10.05241528 19.87706363
v -113.80653455 -8.27110647 20.87813582
v -117.25431015 -19.92781108 30.75715098
v -113.92221061 -14.38770301 30.69019437
v -113.93829372 -9.34202799 15.70758114
v -113.10876010 -24.56370191 34.65255105
v -111.11871719 -11.43694560 13.90360709
v -111.74443569 -20.61482828 21.06572111
v -119.39217062 -16.10122345 16.72940921
v -106.49931412 -9.76824225 18.45940392
v -105.84978851 -8.61517473 22.04941142
v -116.01909625 -11.41509101 14.25781569
v -109.89628369 -9.00778105 15.84020580
v -114.58503920 -29.17082353 28.57203699
v -118.53436194 -26.91967015 23.98656763
v -118.65531129 -20.12971371 19.89000910
v -118.70773491 -12.15700702 19.82058236
v -110.91609508 -21.20506211 22.18606177
v -102.86819555 -13.61089339 29.13818228
v -109.60208370 -16.57960751 20.25893922
v -104.62646117 -9.87118479 21.54492628
v -111.13778527 -7.88883776 19.99350021
v -120.35609191 -14.82112554 19.60563341
v -118.10820504 -29.62736433 28.18244712
v -111.82125316 -8.07926542 17.68069761
v -117.88923658 -11.98155994 16.88911359
v -114.13114762 -27.17097953 33.48145106
v -106.59045230 -9.29379285 18.22995217
v -110.02275930 -22.50993414 35.90217909
v -104.48485348 -12.66425715 27.76156063
v -101.22494732 -15.52651152 34.31058475
v -109.58866553 -7.95073398 20.28085781
v -116.21536059 -9.60634946 19.43698185
v -103.28617905 -14.67932141 27.79137459
v -105.37329251 -23.64177877 28.98454024
v -109.72058415 -12.43773508 16.17947141
v -106.06578340 -13.32937893 22.50122028
v -112.40284536 -8.24181305 17.43551062
v -114.11140863 -13.63725921 30.39815142
v -112.04566995 -22.57648728 22.81208569
v -115.24274217 -22.25098097 20.90336118
v -109.65939048 -13.61932047 32.16537613
v -108.23616427 -23.35061491 36.58566163
v -115.62000013 -19.82460470 32.16086351
v -115.52343236 -9.15938585 19.57448102
v -104.71534747 -9.17040022 24.32558118
v -114.47342719 -10.79706662 13.62539111
v -112.87802476 -12.91771489 13.72796049
v -116.64090433 -26.07592880 32.30192754
v -111.96189599 -19.80470915 20.19378406
v -117.60905401 -17.58536581 29.35124465
v -119.80670936 -14.45562142 24.08366678
v -112.02267809 -15.02503715 16.32099990
v -111.06430899 -7.93569158 25.36995234
v -105.23529945 -11.81565080 22.98137296
v -105.42132150 -22.73911330 36.60223900
v -116.87974637 -17.94849599 16.35086202
v -119.88261343 -19.29963095 21.87819923
v -116.86016812 -14.46434155 14.30059616
v -119.34223892 -12.92997799 23.39896856
v -112.75772215 -9.46397896 14.70121124
v -110.54192766 -10.93795840 30.35400829
v -116.03468584 -20.77995351 32.31493557
v -106.75369538 -19.29520575 36.04380840
v -105.53463396 -8.61285109 23.57929739
v -116.55989643 -9.52191053 20.79804269
v -106.52913153 -9.54802765 27.23018017
v -102.79115197 -18.32761592 28.66607287
v -119.12991284 -28.80776775 26.38201463
v -105.01108335 -8.89603237 23.94344990
v -119.13850879 -27.85030434 25.07438817
v -119.94835420 -14.04111664 26.01049075
v -111.78116448 -13.78649845 15.27873243
v -118.13351030 -15.81084323 29.37790909
v -119.88655380 -22.38347644 23.86542070
v -106.35134999 -11.38564649 19.84946626
v -111.98452124 -7.90094251 21.22577388
v -109.09547873 -7.89852377 24.63154496
v -104.00464973 -23.45337469 33.73697995
v -110.02556818 -20.21394205 35.26449206
v -102.26746410 -16.21976781 28.82229641
v -110.66583695 -13.20505376 15.84271813
v -116.55132120 -19.36249849 31.09153060
v -110.72959221 -27.56940882 35.86875425
v -104.25029131 -9.69669768 23.58724105
v -116.57417226 -10.41107430 17.52650779
v -101.20997529 -15.94463267 31.08528427
v -114.81727310 -19.09114755 32.23174682
v -108.69915942 -8.15368599 19.46509590
v -104.81446606 -11.39856283 24.00137451
v -117.76298772 -16.48476486 29.23339696
v -111.09246333 -8.43695887 26.87964956
v -103.91894722 -23.48254240 35.78573102
v -106.04718637 -9.47516039 18.98423977
v -110.13097659 -20.69715350 22.29570119
v -105.34819519 -9.83069065 20.14405214
v -117.34112247 -21.33875415 20.16907747
v -101.42335401 -15.93861874 30.63958213
v -103.60073340 -16.76301293 35.91874598
v -104.85766058 -10.36821300 26.05322846
v -101.70917298 -14.64210480 34.58522865
v -112.69350224 -14.18246643 31.04637502
v -105.64950942 -10.39235657 27.19030302
v -119.88767117 -14.12491602 18.89140578
v -112.84901272 -18.12986746 18.06431164
v -113.96233869 -23.60648286 22.81479652
v -119.93831829 -16.63189988 17.84427405
v -114.69588219 -8.97350869 18.39342270
v -119.61727074 -22.28357741 23.27928529
v -105.07044630 -17.14353812 35.78349083
v -113.42608281 -11.77795197 29.77199111
v -119.10866846 -13.57971780 29.29052128
v -120.67306369 -27.79137791 26.04299892
v -117.49570922 -22.56032877 31.55635526
v -113.30827440 -26.17504220 34.34210217
v -116.57426172 -9.20894439 22.49740589
v -111.31188639 -21.12509908 35.00945674
v -115.25232829 -22.46205873 33.00130574
v -106.47883346 -9.13613772 18.43703970
v -120.57650251 -27.46320037 25.15981987
v -120.02208131 -13.98854035 27.53810746
v -119.85926824 -18.60025730 24.27150344
v -116.16257353 -12.72995459 13.65177298
v -106.07390321 -10.05847284 27.41191107
v -102.96798091 -17.81415717 28.04806979
v -112.17845031 -24.48005832 35.18629049
v -107.06190042 -8.49110842 25.42646649
v -119.97799139 -17.34765321 18.50858772
v -112.80223294 -14.70586975 15.32369282
v -113.78292117 -22.64368327 21.95078142
v -118.44702169 -22.51068653 30.55250816
v -117.25503197 -23.31433433 21.60347379
v -104.22958568 -22.71231659 36.24303697
v -115.09077694 -24.07049940 22.67477122
v -121.03005163 -26.97782836 26.44399036
v -104.80056583 -12.11122294 26.92954270
v -119.43067631 -25.86337878 29.95893176
v -101.25436315 -14.15411696 33.87857420
v -119.85219653 -21.12887426 26.31830090
v -119.79416317 -17.50194269 24.88176433
v -114.30597308 -16.79088421 16.10501648
v -107.86962495 -25.82115308 28.73750865
v -114.89609944 -12.31465904 13.06063380
v -118.89089943 -15.76407384 28.85854099
v -106.80137613 -22.35003161 36.61924772
v -112.29863812 -8.46731989 16.57471575
v -107.64577461 -8.27496625 25.11198462
v -114.28911013 -24.52835158 23.45791246
v -104.88175616 -13.03291933 25.94702066
v -112.69838574 -8.03817371 21.05528114
v -118.79572759 -11.20878678 23.30515195
v -102.53912193 -20.28628224 33.48342532
v -116.01574454 -21.30795529 19.78049338
v -107.43921588 -26.22900311 36.75350716
v -112.34765770 -10.09967287 28.98434400
v -117.68666264 -10.25055223 26.60294823
v -105.13551372 -11.54172903 27.42885115
v -118.40837990 -10.58501717 23.15972503
v -116.47999116 -8.98016622 23.52652416
v -106.47710836 -8.72545016 25.62422596
v -117.61336328 -9.90513267 22.30556556
v -104.42765303 -12.67277779 28.76137512
v -111.57285960 -29.79645820 34.41821465
v -104.33234279 -20.73723171 27.80257945
v -118.19442945 -29.07922409 26.90720134
v -104.99553336 -13.58093058 25.51974861
v -108.19719803 -22.39822914 24.93957853
v -108.89822467 -10.12791550 30.09323350
v -114.92895990 -25.38727485 33.42239951
v -114.39041142 -9.89769370 15.00866443
v -110.18345745 -14.34270160 17.64809033
v -103.68243265 -17.29669065 27.13511939
v -102.98612053 -21.32124466 33.19480391
v -108.77159505 -9.73096634 29.40913365
v -119.71671484 -14.67859006 17.49720353
v -106.16036524 -8.58935103 20.93837624
v -111.00065806 -18.62013500 20.19786169
v -105.09038465 -12.90667094 25.12183885
v -102.67771335 -13.13099842 31.12998447
v -118.70985429 -16.16950779 28.56877358
v -117.46798550 -28.08439261 25.77042550
v -107.14799792 -18.77370717 35.75172485
v -119.70607584 -20.20024787 23.13218447
v -102.62753780 -14.47647128 28.68331296
v -115.61627004 -8.61161418 22.99159068
v -116.58099058 -20.97389194 31.94367723
v -115.10211003 -10.22755633 28.53142703
v -115.94682286 -12.13483466 29.43586669
v -115.94961561 -18.27782106 16.51857369
v -120.33752007 -16.74430142 22.69511252
v -120.70969583 -23.56201763 26.26113275
v -118.66305173 -17.61687371 16.96618536
v -105.71507991 -8.97305393 19.79432078
v -104.69221662 -9.53471437 21.30214391
v -119.84950379 -14.08117882 21.20637216
v -115.67844376 -13.99240042 30.21064154
v -117.23890979 -10.08947702 26.94369637
v -113.49795733 -20.02988814 33.44112775
v -105.87523205 -20.92856708 26.13670221
v -119.83226855 -21.47330190 24.40376105
v -116.91517464 -22.52660283 21.01505263
v -111.15489604 -19.93825010 20.96480865
v -116.49734574 -8.95253123 24.23424078
v -115.32641556 -23.44838611 33.12097113
v -110.76411399 -21.62942365 35.52793835
v -112.24763043 -28.75667944 34.58068756
v -111.33960845 -7.80588921 22.75644301
v -115.23235485 -19.33110712 17.65454326
v -118.21344775 -28.49133702 26.07444826
v -110.28674559 -9.93675037 29.58200875
v -107.15010459 -8.41062388 20.27368304
v -120.91621628 -27.05096054 25.21025121
v -114.96767596 -18.80295237 17.16819275
v -108.84068360 -11.21608539 16.16377712
v -114.74323600 -11.30338835 13.18862332
v -103.38400547 -20.35601344 29.16124185
v -112.56013386 -19.04039760 18.97238754
v -106.07930288 -26.45449131 33.38016120
v -110.49520917 -7.87620840 20.63829022
v -117.64581694 -26.10289418 31.53760219
v -101.11323543 -13.64175402 32.96819771
v -114.03739810 -10.01556808 14.46851958
v -104.87458257 -12.37853094 28.81168024
v -104.17156577 -18.23602394 26.85771757
v -113.57975575 -8.09674914 21.88209316
v -108.09172920 -11.65583844 17.62745476
v -106.76706948 -10.41904445 28.58465166
v -104.33681741 -24.21488206 34.78490021
v -112.39458822 -7.91329854 22.20655649
v -108.36078336 -25.39996980 36.77130417
v -120.29415611 -27.89693260 25.51742804
v -115.88757348 -16.12514395 30.33860213
v -116.75145155 -28.36339696 31.00916511
v -113.10991270 -28.74155226 28.71079315
v -118.54233946 -25.66023814 30.90455357
v -119.33098453 -19.68762775 27.24617058
v -112.84127587 -30.12258270 31.62017764
v -117.04012099 -20.54052829 31.27876623
v -108.75780935 -11.36473499 31.09838271
v -104.77524882 -11.37784195 26.34061145
v -113.55469331 -10.32060601 13.78776173
v -110.91583660 -8.75107101 15.98163478
v -112.73404692 -18.76974809 33.25113000
v -114.65337446 -12.68137984 29.93133254
v -109.53587277 -8.64272276 27.67530035
v -120.10914771 -25.28219789 23.45797503
v -116.32126527 -23.13237009 21.44534851
v -112.10102944 -28.42709980 34.79951626
v -113.68848917 -27.37353283 26.73978461
f 393 1146 1254
f 393 493 1146
f 1146 1133 1254
f 1133 603 1254
f 603 1133 135
f 585 119 135
f 1037 1254 603
f 889 1146 493
f 1146 889 585
f 585 135 1133
f 585 1133 1146
f 1130 135 119
f 119 1185 202
f 1130 119 202
f 1130 202 1327
f 1002 276 155
f 1169 122 1002
f 1002 122 276
f 276 122 1350
f 276 47 1121
f 276 1350 47
f 394 122 1169
f 122 394 343
f 394 393 343
f 1037 122 343
f 122 1037 1350
f 393 1254 343
f 343 1254 1037
f 47 913 504
f 47 504 625
f 1037 913 1350
f 1350 913 47
f 504 770 625
f 159 625 770
f 493 393 983
f 913 1037 603
f 913 381 504
f 603 449 913
f 383 770 543
f 913 449 381
f 504 543 770
f 504 381 543
f 261 603 135
f 603 261 449
f 449 730 381
f 449 261 730
f 585 889 1088
f 135 824 261
f 543 381 1197
f 730 1197 381
f 585 1088 119
f 1130 824 135
f 1197 730 4
f 261 4 730
f 1130 1327 824
f 261 824 1140
f 261 1140 4
f 1258 1185 119
f 824 1327 1140
f 160 202 1185
f 906 1002 155
f 155 869 906
f 745 869 155
f 155 276 745
f 745 276 624
f 175 1169 1002
f 276 1121 624
f 1121 496 624
f 624 496 278
f 496 1121 625
f 47 625 1121
f 1113 393 394
f 278 496 941
f 625 159 496
f 496 159 941
f 1113 983 393
f 770 547 159
f 547 567 159
f 941 159 567
f 567 547 891
f 770 383 547
f 493 983 813
f 901 493 813
f 889 493 901
f 383 320 547
f 891 547 320
f 543 768 383
f 383 768 320
f 768 1319 320
f 543 1197 768
f 320 1319 657
f 1197 706 768
f 768 706 1319
f 1319 211 657
f 1197 4 706
f 416 119 1088
f 706 211 1319
f 416 1258 119
f 4 203 706
f 706 716 211
f 706 203 716
f 1327 855 1140
f 1140 203 4
f 295 1327 202
f 1327 295 855
f 1140 855 203
f 1258 1337 1185
f 873 202 160
f 202 873 295
f 855 295 1095
f 855 1095 203
f 1337 160 1185
f 1337 786 160
f 203 1095 92
f 160 786 1315
f 160 1315 873
f 873 170 295
f 295 170 766
f 295 766 1095
f 869 745 948
f 906 175 1002
f 948 745 751
f 624 751 745
f 751 899 133
f 278 751 624
f 751 278 899
f 1169 1330 394
f 1113 394 1330
f 899 1033 1103
f 899 278 1033
f 941 1033 278
f 514 1033 941
f 1103 1033 514
f 1103 514 1136
f 941 634 514
f 567 634 941
f 634 1227 514
f 634 567 891
f 813 983 643
f 643 1216 813
f 634 891 1301
f 1301 891 871
f 320 871 891
f 813 1216 901
f 657 871 320
f 1301 871 333
f 901 1088 889
f 333 871 408
f 657 1284 871
f 408 871 1284
f 1284 657 211
f 1110 1258 416
f 1284 211 408
f 211 1119 408
f 92 716 203
f 211 555 1119
f 211 716 555
f 92 555 716
f 170 873 1315
f 555 92 912
f 269 766 170
f 766 269 1095
f 1095 269 463
f 92 1095 463
f 269 668 463
f 133 948 751
f 1349 1169 175
f 1349 1330 1169
f 1278 1113 1330
f 1278 325 1113
f 1103 1136 271
f 514 1227 1136
f 1113 325 195
f 1113 195 983
f 1136 1227 1202
f 195 643 983
f 634 687 1227
f 1202 1227 687
f 195 954 643
f 1202 687 415
f 954 1216 643
f 1301 687 634
f 1216 46 901
f 408 183 333
f 46 1088 901
f 46 416 1088
f 333 183 149
f 735 416 46
f 735 1110 416
f 616 671 1119
f 1119 671 408
f 408 671 183
f 1258 1110 1333
f 1337 1258 1333
f 616 1119 789
f 555 789 1119
f 481 170 1315
f 912 789 555
f 789 912 508
f 150 170 481
f 912 92 463
f 150 269 170
f 463 467 912
f 912 804 508
f 668 467 463
f 912 467 804
f 269 150 668
f 481 491 150
f 150 1186 668
f 467 1186 418
f 467 668 1186
f 491 620 150
f 150 620 1186
f 724 869 948
f 355 724 948
f 175 741 1349
f 133 355 948
f 355 133 753
f 980 899 1103
f 1103 271 980
f 214 325 1278
f 1136 1118 271
f 368 195 325
f 1118 1136 1202
f 415 535 1202
f 687 315 415
f 1301 315 687
f 333 315 1301
f 46 1216 1153
f 525 735 46
f 1110 735 1077
f 1077 1333 1110
f 183 671 924
f 1333 984 1337
f 984 786 1337
f 984 688 786
f 508 1173 616
f 508 616 789
f 786 688 1315
f 688 481 1315
f 650 688 984
f 1173 508 804
f 426 481 688
f 804 467 387
f 426 491 481
f 467 418 1255
f 1186 620 14
f 484 741 175
f 906 869 233
f 899 753 133
f 214 1278 621
f 980 271 1065
f 1070 325 214
f 1118 990 271
f 368 325 1070
f 452 195 368
f 452 954 195
f 954 1153 1216
f 1153 525 46
f 83 149 183
f 672 671 616
f 1173 804 387
f 650 592 688
f 426 688 592
f 1255 387 467
f 1186 14 418
f 1162 620 491
f 14 620 1162
f 233 869 724
f 484 933 741
f 1155 1349 933
f 933 1349 741
f 484 175 906
f 484 906 233
f 1155 1330 1349
f 621 1330 1155
f 621 1278 1330
f 980 753 899
f 535 1109 1202
f 535 1204 1109
f 452 368 1194
f 415 1204 535
f 149 315 333
f 924 83 183
f 671 672 924
f 616 1178 672
f 1173 1178 616
f 549 1173 387
f 1255 1235 387
f 418 629 1255
f 1255 629 108
f 592 1051 426
f 1162 426 1051
f 491 426 1162
f 629 418 14
f 629 14 230
f 1162 451 14
f 1323 933 101
f 101 933 898
f 724 355 950
f 1323 1155 933
f 1323 693 1155
f 693 621 1155
f 980 126 753
f 990 1065 271
f 1118 737 990
f 737 1118 1202
f 1202 1109 737
f 1070 1194 368
f 1194 638 452
f 452 638 1141
f 415 1302 1204
f 954 452 1141
f 315 1302 415
f 1141 1153 954
f 149 1302 315
f 152 735 525
f 152 525 1153
f 152 309 735
f 309 1077 735
f 309 348 1077
f 672 314 924
f 348 1333 1077
f 348 984 1333
f 348 650 984
f 672 1178 1086
f 1173 549 1178
f 513 592 650
f 387 1235 1268
f 387 1268 549
f 1235 1255 108
f 592 513 617
f 617 1051 592
f 1051 451 1162
f 451 254 14
f 14 254 230
f 950 233 724
f 950 94 233
f 484 233 898
f 898 933 484
f 355 753 239
f 126 239 753
f 693 1120 621
f 621 1120 214
f 1065 240 980
f 214 1120 725
f 636 990 737
f 1204 1129 440
f 1302 1129 1204
f 1174 1153 1141
f 152 1153 1174
f 309 152 1224
f 924 314 83
f 309 1224 1293
f 309 1293 348
f 1086 314 672
f 1293 650 348
f 55 1178 549
f 55 1061 1178
f 1293 1267 903
f 903 513 650
f 903 650 1293
f 1268 55 549
f 903 1267 1311
f 903 338 513
f 903 1311 338
f 562 513 338
f 513 562 222
f 222 617 513
f 1235 108 1268
f 230 108 629
f 108 230 943
f 101 981 1323
f 981 693 1323
f 898 233 94
f 239 1115 355
f 1115 950 355
f 980 240 126
f 1065 990 477
f 477 990 636
f 281 1194 1070
f 1204 440 1109
f 845 1141 638
f 410 1141 845
f 410 1174 1141
f 1174 410 953
f 36 152 1174
f 36 1174 953
f 83 788 149
f 36 1224 152
f 1267 1293 1224
f 314 1086 718
f 1154 1086 1178
f 1154 1178 1061
f 1268 563 55
f 1311 837 338
f 338 837 562
f 1268 108 707
f 776 617 222
f 1200 254 451
f 943 230 254
f 126 1322 239
f 126 240 1322
f 1065 477 240
f 725 1120 217
f 1070 725 281
f 214 725 1070
f 636 737 775
f 1109 775 737
f 1194 281 675
f 675 638 1194
f 19 638 675
f 845 19 991
f 845 638 19
f 991 575 845
f 575 410 845
f 1129 1302 788
f 575 953 410
f 149 788 1302
f 953 575 1269
f 83 501 788
f 1269 36 953
f 314 501 83
f 1269 1224 36
f 266 1224 1269
f 266 1269 830
f 314 718 501
f 1154 429 1086
f 266 830 260
f 266 1267 1224
f 1154 1061 99
f 55 563 1061
f 266 260 1311
f 1311 260 651
f 1311 1267 266
f 651 837 1311
f 837 823 562
f 1268 354 563
f 707 354 1268
f 823 222 562
f 617 1060 1051
f 1051 1200 451
f 776 1060 617
f 1353 943 254
f 101 738 981
f 382 1251 101
f 382 101 898
f 94 382 898
f 239 1322 461
f 636 801 477
f 1109 1184 775
f 218 1109 440
f 1184 1109 218
f 569 991 19
f 1129 809 440
f 609 105 575
f 609 575 991
f 105 1269 575
f 788 8 1129
f 501 8 788
f 105 598 1269
f 1266 598 105
f 830 1269 598
f 1086 429 718
f 1154 99 429
f 181 1061 563
f 99 1061 181
f 635 651 260
f 837 1017 823
f 1051 1060 1200
f 222 654 776
f 943 707 108
f 707 943 265
f 474 943 1353
f 265 943 474
f 940 382 94
f 940 94 950
f 940 950 88
f 1115 88 950
f 239 377 1115
f 461 377 239
f 981 1120 693
f 1322 240 1334
f 240 477 1334
f 217 1090 725
f 725 1090 281
f 771 218 440
f 771 440 1093
f 569 19 675
f 609 991 569
f 232 105 609
f 1129 8 809
f 1266 830 598
f 446 830 1266
f 718 1193 501
f 446 260 830
f 635 260 446
f 429 1193 718
f 651 635 837
f 823 654 222
f 743 1200 1060
f 647 1060 776
f 468 254 1200
f 468 1353 254
f 940 911 382
f 1251 738 101
f 799 461 1322
f 801 636 683
f 809 1093 440
f 1093 809 246
f 232 307 105
f 307 1266 105
f 501 1193 8
f 429 960 1193
f 420 99 181
f 837 635 1017
f 354 181 563
f 823 1017 654
f 654 97 776
f 776 253 647
f 776 97 253
f 1060 98 743
f 468 1200 743
f 194 468 743
f 647 98 1060
f 1098 1353 468
f 985 738 1251
f 900 88 1115
f 377 900 1115
f 900 377 59
f 981 331 1120
f 799 1144 461
f 866 217 1120
f 1322 1334 799
f 1090 1134 281
f 775 683 636
f 775 1184 683
f 1134 675 281
f 1087 569 675
f 505 609 569
f 232 609 505
f 809 597 989
f 8 597 809
f 1193 646 8
f 1193 960 458
f 646 1193 458
f 429 99 1068
f 429 1068 960
f 834 635 297
f 635 1264 1017
f 635 834 1264
f 1017 1264 654
f 707 113 354
f 647 1295 98
f 98 194 743
f 194 1098 468
f 98 445 194
f 327 265 474
f 863 1251 382
f 911 863 382
f 1156 911 940
f 1156 940 88
f 450 1156 900
f 1156 88 900
f 59 450 900
f 461 1144 377
f 331 866 1120
f 799 1334 591
f 477 165 1334
f 477 801 165
f 1087 675 1134
f 526 569 1087
f 1125 505 569
f 809 989 246
f 646 597 8
f 1259 446 1266
f 446 297 635
f 181 908 420
f 354 1175 181
f 1305 654 1264
f 1305 97 654
f 327 113 265
f 265 113 707
f 647 253 1295
f 445 98 1295
f 41 474 1353
f 738 1231 981
f 1231 926 981
f 377 1190 59
f 1190 377 1144
f 799 591 1144
f 1090 866 754
f 217 866 1090
f 1090 32 1134
f 1134 489 1087
f 771 405 218
f 1093 35 771
f 1125 569 526
f 989 424 246
f 1259 1266 307
f 646 1010 597
f 1054 834 297
f 908 181 1175
f 251 1264 834
f 113 1175 354
f 438 1305 1264
f 785 1175 113
f 97 1305 438
f 435 97 438
f 435 253 97
f 1263 341 445
f 341 194 445
f 341 1098 194
f 1098 341 146
f 327 474 546
f 474 41 546
f 863 848 1251
f 1231 738 985
f 985 1251 848
f 264 848 863
f 701 863 911
f 701 911 1156
f 450 701 1156
f 926 1231 277
f 926 331 981
f 678 866 331
f 1144 591 566
f 165 591 1334
f 32 489 1134
f 1184 138 683
f 218 58 1184
f 405 58 218
f 526 1087 489
f 771 35 405
f 1093 246 35
f 505 796 232
f 796 307 232
f 1259 307 796
f 597 833 989
f 462 446 1259
f 1010 833 597
f 458 1010 646
f 1010 458 944
f 944 458 960
f 420 1208 99
f 438 1264 251
f 253 435 107
f 107 1295 253
f 445 1295 1263
f 113 1022 785
f 1022 113 327
f 1353 1098 146
f 546 1022 327
f 146 41 1353
f 1282 1022 546
f 341 1318 146
f 41 146 469
f 41 469 546
f 848 679 985
f 985 679 1231
f 863 701 264
f 59 1181 450
f 926 678 331
f 1190 1144 894
f 678 754 866
f 754 32 1090
f 683 138 801
f 138 1184 334
f 58 334 1184
f 652 462 1259
f 1063 297 446
f 1063 446 462
f 960 1068 944
f 1068 99 1208
f 1063 1054 297
f 834 1054 497
f 497 251 834
f 272 1335 1175
f 785 272 1175
f 422 435 438
f 422 179 435
f 435 179 107
f 1263 1318 341
f 679 277 1231
f 701 450 456
f 1181 59 1190
f 362 678 926
f 894 1144 566
f 1083 32 754
f 138 165 801
f 608 505 1125
f 246 1163 35
f 424 1163 246
f 608 796 505
f 989 1198 424
f 796 1168 1259
f 833 1198 989
f 652 1259 1168
f 652 257 462
f 914 462 257
f 914 1063 462
f 908 1211 420
f 1232 908 1175
f 1175 1335 1232
f 422 438 251
f 107 225 1295
f 225 1263 1295
f 385 1263 225
f 1263 385 231
f 1263 231 1318
f 1318 469 146
f 469 1282 546
f 329 679 848
f 329 848 264
f 701 733 264
f 395 456 450
f 733 701 456
f 1181 395 450
f 679 710 277
f 710 926 277
f 763 1181 1190
f 763 1190 894
f 678 1083 754
f 165 684 591
f 299 526 489
f 791 1125 526
f 405 35 748
f 35 1163 748
f 1198 1163 424
f 72 1068 1208
f 944 1068 72
f 879 1063 914
f 879 1054 1063
f 497 1054 879
f 13 422 251
f 173 179 422
f 987 385 225
f 248 1022 1282
f 1282 469 1276
f 231 469 1318
f 329 1167 679
f 876 733 456
f 962 710 679
f 962 679 1167
f 1237 395 1181
f 926 710 867
f 867 362 926
f 894 566 1279
f 684 566 591
f 791 526 299
f 405 748 677
f 1125 791 608
f 1163 843 748
f 1198 843 1163
f 652 93 257
f 1168 93 652
f 833 1010 1198
f 1211 316 420
f 316 1208 420
f 1232 1211 908
f 251 497 13
f 13 173 422
f 886 179 173
f 987 225 306
f 987 231 385
f 1022 248 785
f 1276 248 1282
f 1161 1237 1181
f 763 1161 1181
f 235 1079 362
f 362 867 235
f 362 1079 678
f 1279 763 894
f 678 1079 1083
f 566 929 1279
f 58 27 334
f 677 58 405
f 748 1145 677
f 612 748 843
f 802 796 608
f 796 460 1168
f 1198 2 843
f 72 1208 332
f 1208 316 332
f 699 497 879
f 13 497 455
f 107 306 225
f 272 785 248
f 231 861 469
f 469 861 1276
f 264 500 329
f 395 876 456
f 566 684 929
f 930 502 1083
f 684 165 367
f 1083 502 32
f 489 32 502
f 138 367 165
f 1212 791 299
f 286 608 791
f 286 802 608
f 1303 802 286
f 802 460 796
f 1198 1010 2
f 39 1010 944
f 178 879 914
f 699 455 497
f 414 769 886
f 886 769 179
f 179 769 107
f 769 1296 107
f 1296 306 107
f 1036 1335 272
f 248 1036 272
f 1170 231 987
f 329 34 1167
f 733 500 264
f 1237 876 395
f 784 1237 1161
f 763 1279 516
f 930 1083 1079
f 677 27 58
f 1145 27 677
f 286 791 1212
f 1303 783 802
f 783 460 802
f 1160 1168 460
f 397 93 1168
f 1160 397 1168
f 72 39 944
f 95 914 257
f 1348 72 332
f 95 178 914
f 1232 593 1211
f 455 51 13
f 51 173 13
f 1352 1219 306
f 306 1219 987
f 219 1036 248
f 248 1276 219
f 231 1170 861
f 861 219 1276
f 778 34 329
f 733 876 252
f 252 876 282
f 1167 611 962
f 710 611 45
f 962 611 710
f 282 876 1237
f 645 282 1237
f 1237 784 645
f 48 235 45
f 235 867 45
f 45 867 710
f 1161 763 185
f 185 763 516
f 684 1048 929
f 367 1048 684
f 1212 489 502
f 1212 299 489
f 138 334 696
f 27 696 334
f 1145 748 612
f 942 1160 460
f 1010 50 2
f 39 50 1010
f 93 95 257
f 1348 39 72
f 593 1232 1335
f 414 982 769
f 982 1296 769
f 67 861 1170
f 778 329 500
f 733 1105 500
f 733 252 1105
f 1167 288 611
f 288 1167 34
f 45 611 48
f 117 282 645
f 372 140 235
f 235 48 372
f 235 140 1079
f 140 1283 1079
f 1079 1283 930
f 1283 502 930
f 502 1283 972
f 972 1212 502
f 1131 1212 972
f 1131 286 1212
f 1145 893 27
f 843 787 612
f 1040 783 1303
f 843 2 787
f 783 942 460
f 1180 93 397
f 95 93 1180
f 178 95 1229
f 316 1265 332
f 178 699 879
f 116 699 178
f 1211 1007 316
f 593 1007 1211
f 116 51 455
f 116 455 699
f 1220 886 173
f 51 1220 173
f 1352 306 1296
f 1296 982 1352
f 1219 1170 987
f 219 861 413
f 1105 778 500
f 282 117 252
f 185 30 1161
f 140 372 884
f 140 882 1283
f 495 1283 882
f 696 367 138
f 612 437 1145
f 1040 1303 286
f 783 1040 942
f 2 1286 787
f 317 95 1180
f 1265 1 332
f 332 1 1348
f 317 1229 95
f 886 1220 414
f 1170 1219 209
f 413 861 67
f 219 413 947
f 778 1105 302
f 48 611 503
f 48 503 372
f 30 784 1161
f 1117 372 503
f 884 372 1117
f 1059 994 884
f 994 140 884
f 1059 884 1117
f 994 882 140
f 157 1279 929
f 929 77 157
f 929 1048 77
f 495 972 1283
f 622 77 1048
f 1048 367 622
f 696 622 367
f 664 696 27
f 893 664 27
f 1145 7 893
f 39 319 50
f 1 1244 1348
f 316 52 1265
f 116 178 1229
f 1007 52 316
f 3 51 116
f 1036 655 1335
f 209 67 1170
f 67 1347 413
f 413 1347 947
f 252 302 1105
f 30 645 784
f 1279 157 516
f 495 882 717
f 910 972 495
f 972 910 1131
f 910 820 1131
f 286 1131 820
f 942 9 1160
f 1160 258 397
f 258 1180 397
f 39 1348 319
f 1244 319 1348
f 3 407 51
f 51 407 1220
f 593 1335 655
f 1352 209 1219
f 71 655 1036
f 219 71 1036
f 67 969 1347
f 71 219 947
f 34 589 288
f 589 34 778
f 589 778 302
f 288 589 373
f 373 503 611
f 611 288 373
f 503 556 1117
f 882 994 717
f 910 495 717
f 622 696 797
f 797 696 664
f 437 7 1145
f 506 1040 286
f 975 942 1040
f 258 1160 9
f 1180 258 317
f 860 1229 317
f 548 1265 52
f 1 1265 548
f 1007 293 52
f 1229 3 116
f 593 321 1007
f 982 582 1352
f 593 655 321
f 1220 20 414
f 1352 1304 1147
f 1352 1147 209
f 209 454 67
f 581 655 71
f 67 454 969
f 947 378 71
f 947 904 378
f 904 947 1347
f 117 421 252
f 252 421 302
f 645 1249 117
f 568 1249 645
f 30 568 645
f 478 1117 556
f 868 185 516
f 1215 994 1059
f 793 717 994
f 506 286 820
f 544 942 975
f 9 942 544
f 521 317 258
f 1244 376 319
f 1 29 1244
f 1 548 29
f 548 52 293
f 293 1007 583
f 20 1220 407
f 414 20 982
f 454 658 969
f 378 581 71
f 726 373 589
f 589 302 674
f 117 1249 421
f 373 556 503
f 485 568 30
f 185 485 30
f 868 485 185
f 516 1055 868
f 516 157 1055
f 1215 793 994
f 793 827 717
f 622 709 77
f 622 797 709
f 827 910 717
f 827 820 910
f 975 1040 506
f 7 437 15
f 612 742 437
f 15 437 742
f 787 742 612
f 475 9 544
f 322 258 9
f 293 1331 548
f 10 1229 860
f 321 583 1007
f 10 3 1229
f 20 582 982
f 655 581 321
f 658 1347 969
f 658 633 1347
f 674 726 589
f 421 1249 1101
f 1249 191 1101
f 191 1249 568
f 478 1059 1117
f 478 1215 1059
f 370 793 1215
f 157 77 709
f 664 324 797
f 893 7 304
f 322 9 475
f 50 1286 2
f 319 1257 50
f 317 521 860
f 1138 376 1244
f 29 1138 1244
f 548 1331 29
f 1331 293 583
f 321 137 583
f 582 1304 1352
f 20 540 582
f 78 582 540
f 1112 1210 1147
f 1147 1210 209
f 1210 454 209
f 633 904 1347
f 421 1101 302
f 300 556 373
f 305 478 556
f 324 864 797
f 1075 364 827
f 364 820 827
f 275 506 820
f 664 893 529
f 304 529 893
f 275 975 506
f 7 38 304
f 544 975 275
f 742 182 15
f 787 479 742
f 1248 322 475
f 192 322 1248
f 1286 1274 787
f 870 258 322
f 1257 1286 50
f 870 521 258
f 376 986 319
f 521 125 860
f 125 10 860
f 10 168 3
f 168 407 3
f 1304 582 78
f 1304 851 1147
f 1112 1147 851
f 407 520 20
f 904 352 378
f 904 633 559
f 559 352 904
f 691 726 674
f 691 674 302
f 1101 691 302
f 1165 726 691
f 312 373 726
f 300 373 312
f 300 305 556
f 486 1215 478
f 1055 157 902
f 1236 370 1215
f 1128 157 709
f 1075 827 793
f 1075 793 370
f 364 275 820
f 15 38 7
f 544 840 1298
f 1298 475 544
f 1274 479 787
f 1286 1257 1274
f 1257 319 986
f 376 782 986
f 1138 782 376
f 870 125 521
f 1270 29 1331
f 29 1270 1138
f 168 10 125
f 520 407 168
f 20 156 540
f 723 186 156
f 186 540 156
f 540 186 78
f 520 156 20
f 1304 78 579
f 1304 579 851
f 658 559 633
f 312 726 1165
f 868 1055 902
f 305 486 478
f 1236 1215 486
f 709 797 864
f 96 864 324
f 664 1003 324
f 529 1003 664
f 275 364 840
f 840 544 275
f 182 38 15
f 742 697 182
f 742 479 697
f 1248 475 1298
f 1274 250 479
f 87 192 1248
f 1274 1257 26
f 322 192 870
f 986 26 1257
f 1045 274 870
f 870 192 1045
f 289 274 1045
f 442 289 1045
f 1045 528 1056
f 1045 1056 442
f 274 125 870
f 289 442 1288
f 1138 1270 1064
f 168 125 274
f 1252 274 289
f 289 1288 1252
f 1252 168 274
f 520 168 1252
f 156 520 1252
f 1252 1182 156
f 723 156 1182
f 1004 579 78
f 581 890 321
f 186 1004 78
f 851 151 1112
f 378 1046 581
f 1046 907 581
f 454 427 658
f 1150 559 658
f 378 352 1046
f 601 352 559
f 1101 1297 691
f 1297 1165 691
f 1213 485 868
f 909 1213 868
f 902 909 868
f 157 1128 902
f 412 1075 370
f 1236 412 370
f 539 1075 412
f 539 364 1075
f 488 840 364
f 838 1298 840
f 1274 26 250
f 192 87 528
f 986 471 26
f 528 1045 192
f 31 1056 528
f 31 1038 1056
f 951 442 1056
f 951 1288 442
f 782 1138 1064
f 951 308 1199
f 1331 208 1270
f 583 208 1331
f 1182 1288 951
f 1182 951 1199
f 1288 1182 1252
f 321 890 137
f 723 1004 186
f 151 851 579
f 581 907 890
f 151 1210 1112
f 1210 151 1034
f 1210 427 454
f 907 1046 939
f 427 1150 658
f 1150 303 559
f 303 601 559
f 191 568 404
f 568 485 404
f 300 977 1300
f 977 300 312
f 1300 305 300
f 1300 977 1096
f 1300 1096 305
f 1096 486 305
f 1096 949 486
f 486 359 1236
f 709 457 1128
f 359 374 1236
f 709 864 457
f 374 412 1236
f 1003 96 324
f 539 488 364
f 304 390 529
f 38 390 304
f 1298 249 1248
f 1080 528 87
f 1080 31 528
f 782 480 986
f 85 1056 1038
f 782 1064 480
f 85 308 1056
f 1056 308 951
f 1270 187 1064
f 208 187 1270
f 723 1182 391
f 391 1182 1199
f 391 1035 1004
f 723 391 1004
f 151 579 895
f 151 895 744
f 939 1046 352
f 551 1165 1297
f 1165 1011 312
f 312 1011 759
f 485 1213 404
f 312 759 977
f 977 979 1096
f 541 949 1096
f 486 1057 359
f 96 457 864
f 992 488 539
f 838 840 488
f 1298 838 249
f 21 182 697
f 479 21 697
f 479 250 21
f 87 1248 1230
f 328 1038 31
f 187 163 1064
f 583 137 208
f 391 1199 1035
f 1035 1340 1004
f 1340 579 1004
f 1340 744 895
f 1340 895 579
f 1034 427 1210
f 352 601 818
f 1321 551 1297
f 1101 1321 1297
f 1101 191 1321
f 1011 1165 551
f 759 979 977
f 541 1096 979
f 1124 541 68
f 902 1128 184
f 1057 486 949
f 541 1057 949
f 1057 541 1124
f 1128 457 184
f 374 539 412
f 539 374 740
f 992 539 740
f 992 838 488
f 182 964 38
f 26 482 250
f 480 471 986
f 328 31 1080
f 163 800 1064
f 800 480 1064
f 308 1035 1199
f 190 1035 308
f 137 1021 208
f 890 1021 137
f 151 744 70
f 70 1034 151
f 427 1005 1150
f 818 939 352
f 854 601 303
f 191 404 1321
f 404 255 1321
f 909 902 1285
f 96 1003 752
f 529 390 922
f 838 515 249
f 1230 1248 249
f 250 659 21
f 250 482 659
f 26 685 482
f 471 685 26
f 480 685 471
f 800 1127 480
f 685 480 794
f 794 480 1127
f 1035 220 1340
f 744 1340 220
f 350 70 744
f 854 818 601
f 1213 255 404
f 279 759 1011
f 279 1011 551
f 492 759 279
f 457 96 752
f 529 922 1003
f 390 1029 922
f 838 992 515
f 38 1029 390
f 964 1029 38
f 344 328 1080
f 328 85 1038
f 794 482 685
f 308 85 1159
f 190 308 1159
f 369 220 190
f 190 220 1035
f 350 744 220
f 241 890 907
f 939 1058 907
f 115 1005 427
f 1150 1005 303
f 580 818 854
f 580 939 818
f 580 1058 939
f 551 1321 1316
f 1325 255 1213
f 1325 1213 909
f 1285 902 184
f 825 359 1057
f 1124 825 1057
f 752 184 457
f 825 692 359
f 692 374 359
f 692 740 374
f 1029 403 922
f 1230 249 515
f 182 21 33
f 482 1142 659
f 1107 87 1230
f 344 87 1107
f 1080 87 344
f 208 335 187
f 350 388 70
f 388 1034 70
f 241 907 1058
f 388 790 1034
f 1034 111 427
f 115 427 111
f 1316 1321 487
f 1321 255 487
f 68 541 979
f 842 1285 184
f 595 184 752
f 692 1104 740
f 752 1003 564
f 922 564 1003
f 992 89 515
f 676 1230 515
f 1107 1230 1047
f 482 794 1142
f 847 85 328
f 23 1127 800
f 800 163 23
f 335 163 187
f 335 208 1021
f 350 220 369
f 1034 790 111
f 996 303 1005
f 854 640 580
f 255 1325 957
f 909 1285 1325
f 759 492 979
f 68 979 492
f 936 1285 842
f 184 595 842
f 1104 692 536
f 1166 740 1104
f 403 564 922
f 740 1166 992
f 564 403 436
f 992 1166 89
f 676 89 524
f 89 676 515
f 182 33 964
f 1047 1230 676
f 1142 284 659
f 794 1292 1142
f 85 844 1159
f 510 794 1127
f 844 1019 1159
f 190 1159 1019
f 190 1019 1031
f 792 190 1031
f 369 190 792
f 1021 1016 335
f 200 1021 890
f 111 16 115
f 580 464 1058
f 970 854 303
f 970 640 854
f 640 973 580
f 255 957 976
f 255 976 487
f 1028 551 1316
f 103 957 1325
f 875 536 825
f 536 692 825
f 931 752 564
f 931 564 856
f 536 1166 1104
f 564 436 856
f 524 1166 536
f 524 89 1166
f 1291 1047 676
f 1107 560 344
f 106 344 560
f 1142 1292 284
f 599 847 328
f 847 844 85
f 844 847 573
f 573 1019 844
f 1031 1019 365
f 200 1016 1021
f 241 200 890
f 363 200 241
f 388 350 916
f 388 1081 790
f 464 241 1058
f 970 303 996
f 580 973 464
f 1316 487 976
f 1028 279 551
f 1076 492 279
f 86 936 842
f 595 761 842
f 595 752 931
f 734 536 875
f 1291 676 524
f 524 536 660
f 524 660 1291
f 835 1291 660
f 835 1047 1291
f 835 128 1047
f 90 365 1019
f 90 1019 573
f 23 310 1127
f 1127 310 510
f 792 915 369
f 369 915 350
f 350 915 916
f 241 464 363
f 16 713 115
f 713 1005 115
f 996 1005 713
f 970 81 640
f 1028 1316 976
f 957 704 976
f 704 957 103
f 1076 279 1028
f 103 1325 1158
f 1158 1325 1285
f 842 761 86
f 875 825 1124
f 931 812 595
f 660 536 734
f 403 1029 686
f 964 686 1029
f 659 360 21
f 128 1107 1047
f 284 360 659
f 284 129 411
f 106 328 344
f 1292 129 284
f 630 90 573
f 335 1287 163
f 1287 23 163
f 388 916 1081
f 464 212 363
f 1081 311 790
f 311 111 790
f 1158 1285 936
f 761 595 812
f 403 686 436
f 964 33 806
f 21 360 33
f 284 411 360
f 1344 599 328
f 172 847 599
f 794 510 1292
f 172 573 847
f 630 573 172
f 310 1094 510
f 23 1287 310
f 792 1031 1191
f 335 1016 1287
f 1191 850 792
f 792 850 915
f 850 828 915
f 828 916 915
f 16 111 311
f 849 538 640
f 538 973 640
f 839 973 538
f 996 653 970
f 997 1028 976
f 997 976 1015
f 976 704 1015
f 1261 1076 1028
f 1158 936 1310
f 492 1205 68
f 936 86 1310
f 237 1124 68
f 237 68 1205
f 339 86 761
f 812 339 761
f 856 812 931
f 660 734 24
f 686 964 806
f 128 835 999
f 33 360 148
f 360 411 148
f 560 1107 128
f 1292 1041 129
f 963 599 1344
f 172 599 963
f 1292 510 1041
f 310 76 1094
f 729 365 90
f 1031 365 1191
f 81 849 640
f 973 216 464
f 839 216 973
f 464 216 212
f 713 653 996
f 653 736 970
f 736 81 970
f 1116 704 103
f 1158 1116 103
f 237 875 1124
f 358 86 339
f 812 856 722
f 339 812 722
f 875 24 734
f 436 722 856
f 999 835 660
f 33 148 806
f 128 63 560
f 129 1039 411
f 106 560 1084
f 1344 328 106
f 963 649 172
f 630 757 90
f 729 1111 365
f 1111 1191 365
f 1016 829 1287
f 18 829 1016
f 200 18 1016
f 363 18 200
f 828 1196 916
f 1081 916 1196
f 1196 459 1081
f 1081 459 311
f 212 196 363
f 212 216 75
f 212 75 196
f 1261 1028 997
f 1261 492 1076
f 1116 1158 1310
f 1310 1203 1116
f 1203 1310 86
f 1203 86 358
f 237 347 875
f 358 339 747
f 347 24 875
f 810 747 339
f 810 339 722
f 722 436 518
f 436 686 518
f 686 859 518
f 859 686 806
f 806 883 859
f 148 883 806
f 411 1039 148
f 1084 560 63
f 1099 1039 129
f 1030 1344 106
f 1041 1099 129
f 1030 963 1344
f 1032 963 1030
f 1032 649 963
f 357 630 172
f 1094 80 510
f 729 90 757
f 310 1287 76
f 839 74 216
f 216 74 75
f 1351 713 16
f 997 1015 925
f 1116 530 704
f 1205 690 237
f 347 237 25
f 998 810 722
f 998 722 518
f 859 998 518
f 999 732 128
f 1308 128 732
f 1280 883 148
f 148 1039 1280
f 1308 63 128
f 106 1247 1030
f 357 172 649
f 1287 829 76
f 1191 1111 1346
f 196 18 363
f 81 100 849
f 100 538 849
f 311 1351 16
f 695 925 1015
f 704 695 1015
f 1261 997 925
f 530 695 704
f 1261 69 492
f 1261 346 69
f 492 69 1205
f 1116 887 530
f 887 1116 1126
f 1203 1126 1116
f 690 25 237
f 342 347 25
f 747 1203 358
f 347 447 24
f 447 660 24
f 859 1066 998
f 859 883 1066
f 1039 656 1280
f 1247 1084 63
f 1247 106 1084
f 1039 1189 656
f 1039 1099 1189
f 510 80 1041
f 757 630 357
f 1191 270 850
f 1191 1346 270
f 850 1152 828
f 1152 1196 828
f 196 75 995
f 713 1351 653
f 346 1261 925
f 346 925 1149
f 1205 69 1309
f 661 1203 747
f 347 342 447
f 747 810 425
f 447 999 660
f 760 810 998
f 1217 732 999
f 1280 1332 883
f 109 1247 63
f 1189 853 656
f 523 1030 1247
f 1032 1030 523
f 1099 1078 1189
f 1041 1078 1099
f 357 649 720
f 80 1078 1041
f 330 729 757
f 1111 729 330
f 76 1091 1094
f 18 928 829
f 1152 850 270
f 928 18 196
f 1196 1152 28
f 74 995 75
f 28 459 1196
f 538 1023 839
f 311 1306 1351
f 1306 1108 1351
f 1108 653 1351
f 530 887 695
f 1309 69 346
f 887 1238 695
f 1309 690 1205
f 1238 887 600
f 600 887 1126
f 1126 892 600
f 661 1126 1203
f 342 356 447
f 121 999 447
f 1217 999 121
f 760 425 810
f 1183 732 1217
f 732 1183 1308
f 1183 896 1308
f 1066 883 1332
f 1074 1308 896
f 1074 63 1308
f 656 1332 1280
f 1074 109 63
f 109 523 1247
f 523 919 1032
f 919 649 1032
f 1078 1001 1189
f 357 720 499
f 499 757 357
f 1094 1091 80
f 330 757 577
f 76 1329 1091
f 1346 1111 330
f 829 1329 76
f 74 839 396
f 459 28 311
f 28 1306 311
f 561 1149 925
f 695 561 925
f 1238 561 695
f 892 1126 661
f 447 356 121
f 425 689 747
f 161 760 998
f 998 1066 161
f 1332 161 1066
f 853 1233 656
f 853 614 1233
f 1044 523 109
f 1044 919 523
f 1189 1001 853
f 80 49 1078
f 577 757 499
f 1091 49 80
f 1239 330 577
f 1294 270 1346
f 349 928 196
f 270 1171 1152
f 196 995 349
f 995 644 349
f 28 1152 1171
f 74 644 995
f 780 1306 28
f 1108 44 653
f 736 653 44
f 1149 952 346
f 1309 346 952
f 816 690 1309
f 988 25 816
f 816 25 690
f 356 342 988
f 988 342 25
f 511 121 356
f 689 661 747
f 760 1307 425
f 606 896 1183
f 665 760 161
f 1307 760 665
f 62 1074 896
f 1299 109 1074
f 226 499 720
f 1091 571 49
f 1329 641 1091
f 1346 330 1294
f 928 1329 829
f 644 74 937
f 1171 285 28
f 396 839 1023
f 285 836 28
f 836 780 28
f 736 43 81
f 952 1149 1355
f 294 1355 1149
f 1149 561 294
f 294 561 1238
f 803 1238 600
f 600 1148 803
f 988 705 356
f 392 1183 1217
f 124 161 1332
f 124 1332 519
f 1332 656 1233
f 62 1299 1074
f 1001 614 853
f 1078 49 1195
f 577 499 750
f 499 226 750
f 1239 384 330
f 384 1294 330
f 1246 641 1329
f 928 1246 1329
f 1294 1171 270
f 1246 928 349
f 349 644 1246
f 74 396 937
f 81 43 100
f 1309 952 1355
f 795 1355 294
f 816 1309 1240
f 816 731 988
f 705 988 731
f 356 705 773
f 1148 600 892
f 511 356 773
f 1082 587 661
f 689 1082 661
f 392 1217 121
f 689 425 134
f 606 62 896
f 161 124 665
f 1233 519 1332
f 1299 1044 109
f 1233 614 1176
f 1001 1206 614
f 1078 1206 1001
f 1078 1195 1206
f 389 720 649
f 389 226 720
f 1239 577 750
f 1294 872 1171
f 538 100 772
f 736 44 43
f 522 1355 795
f 1240 1309 1355
f 731 816 1240
f 1214 1242 1238
f 1238 803 1214
f 892 965 1148
f 892 661 587
f 610 587 1082
f 134 1082 689
f 134 425 1307
f 340 919 1044
f 340 649 919
f 340 389 649
f 162 1239 750
f 644 1209 1246
f 937 935 644
f 872 259 1171
f 1171 259 285
f 259 836 285
f 538 188 1023
f 259 42 836
f 538 772 188
f 836 927 780
f 780 927 1306
f 44 1108 423
f 927 366 1306
f 1306 366 1108
f 1108 366 423
f 522 84 1355
f 1355 84 1240
f 1242 795 294
f 1242 294 1238
f 705 731 832
f 773 705 832
f 392 121 511
f 1275 1082 134
f 1233 1176 519
f 494 226 389
f 49 571 1195
f 162 765 1239
f 384 1239 765
f 571 1091 921
f 384 765 1222
f 641 921 1091
f 1222 872 1294
f 384 1222 1294
f 259 872 946
f 644 935 1209
f 396 1023 1218
f 42 259 1226
f 1023 188 877
f 1023 877 1218
f 42 927 836
f 43 44 423
f 490 795 905
f 490 522 795
f 905 795 1242
f 84 731 1240
f 832 731 700
f 1148 888 803
f 773 832 1027
f 965 888 1148
f 965 892 587
f 511 773 1027
f 483 965 587
f 483 587 610
f 610 1082 1275
f 1183 392 606
f 682 134 1307
f 1307 550 682
f 1307 665 550
f 665 124 519
f 1176 73 519
f 749 1176 614
f 1206 554 614
f 1206 1195 554
f 637 494 389
f 571 728 1195
f 226 494 262
f 262 750 226
f 162 750 262
f 443 1222 765
f 1246 921 641
f 1246 1139 921
f 872 1222 967
f 1209 1139 1246
f 872 967 946
f 1218 937 396
f 1226 259 946
f 42 1226 756
f 188 1290 877
f 877 1290 1218
f 42 756 927
f 927 756 180
f 772 100 43
f 139 188 772
f 43 139 772
f 366 1225 423
f 423 1225 1188
f 423 1188 43
f 84 700 731
f 1027 1012 511
f 511 1012 392
f 807 1275 134
f 682 807 134
f 606 441 62
f 665 1272 550
f 1272 665 519
f 519 73 1272
f 340 637 389
f 162 262 301
f 301 765 162
f 1222 443 881
f 967 1222 881
f 881 586 967
f 814 1139 1209
f 586 946 967
f 937 1207 935
f 1218 1290 1172
f 1290 188 139
f 180 594 927
f 927 594 366
f 1188 139 43
f 594 1225 366
f 490 817 522
f 522 817 84
f 84 817 700
f 1256 1242 1214
f 1214 803 888
f 1012 552 392
f 552 606 392
f 213 610 1275
f 213 1275 807
f 807 682 533
f 441 880 62
f 533 682 550
f 62 880 1299
f 550 1272 534
f 749 703 1176
f 554 749 614
f 443 765 301
f 935 648 1209
f 1209 648 814
f 1226 946 1312
f 711 1207 937
f 1226 1312 945
f 1218 711 937
f 756 1226 945
f 756 945 755
f 1172 227 1218
f 180 756 755
f 290 139 1188
f 1225 290 1188
f 905 817 490
f 1214 888 1256
f 602 1354 1027
f 1012 1027 1354
f 888 965 764
f 764 965 483
f 552 12 606
f 66 483 610
f 66 610 213
f 12 441 606
f 245 213 807
f 291 533 550
f 1044 1299 91
f 703 73 1176
f 554 703 749
f 554 1195 205
f 169 637 340
f 1195 728 205
f 728 885 205
f 571 921 728
f 263 700 817
f 712 817 905
f 905 628 712
f 1242 628 905
f 1073 628 1242
f 1256 1073 1242
f 832 602 1027
f 552 130 12
f 483 66 764
f 441 12 880
f 66 213 245
f 245 807 533
f 91 1299 880
f 550 534 291
f 1272 73 198
f 534 1272 198
f 554 205 703
f 885 402 205
f 434 262 494
f 301 262 434
f 443 923 881
f 586 881 923
f 921 1139 814
f 946 586 968
f 946 968 1312
f 227 711 1218
f 755 594 180
f 1020 139 290
f 139 1020 1172
f 139 1172 1290
f 594 1313 1225
f 817 712 263
f 263 470 700
f 700 470 832
f 602 832 470
f 552 1012 130
f 888 764 228
f 615 12 130
f 298 228 764
f 764 66 298
f 12 431 880
f 1000 66 245
f 136 1044 91
f 1324 198 73
f 136 340 1044
f 73 578 1324
f 578 73 703
f 169 340 136
f 578 703 402
f 205 402 703
f 921 885 728
f 814 1089 921
f 132 968 586
f 935 978 648
f 814 648 978
f 711 858 1207
f 1207 858 935
f 79 945 1312
f 945 79 755
f 243 594 755
f 1313 290 1225
f 201 263 712
f 470 131 602
f 201 712 628
f 955 628 1073
f 1012 1354 130
f 228 1256 888
f 12 615 431
f 221 880 431
f 880 221 91
f 136 91 221
f 245 533 291
f 291 534 932
f 534 198 6
f 6 198 1324
f 1324 578 292
f 578 553 292
f 553 578 402
f 247 494 637
f 822 885 921
f 822 921 1089
f 978 935 166
f 968 132 79
f 858 166 935
f 79 1312 968
f 711 708 858
f 711 227 56
f 762 1172 1020
f 227 1172 762
f 628 955 201
f 777 201 955
f 1256 386 1073
f 1354 602 53
f 298 66 199
f 1000 199 66
f 82 245 291
f 932 534 6
f 206 6 1324
f 206 1324 292
f 247 637 169
f 247 434 494
f 532 301 434
f 1343 443 301
f 1343 923 443
f 923 132 586
f 1089 814 978
f 56 708 711
f 171 1313 594
f 263 11 470
f 201 11 263
f 1073 1049 955
f 602 131 53
f 1049 1073 386
f 130 1354 53
f 1256 228 386
f 228 298 120
f 82 291 932
f 1053 169 136
f 932 6 607
f 607 6 758
f 206 758 6
f 639 292 553
f 402 673 553
f 885 673 402
f 885 273 673
f 822 273 885
f 1089 978 1071
f 755 79 961
f 755 961 243
f 227 808 56
f 193 762 1020
f 227 762 808
f 171 594 243
f 1313 662 290
f 662 1020 290
f 11 1026 470
f 131 470 1026
f 11 201 777
f 777 955 1049
f 439 409 53
f 53 409 130
f 409 615 130
f 558 221 431
f 82 1000 245
f 1053 136 221
f 82 932 607
f 619 206 639
f 206 292 639
f 1053 247 169
f 1245 301 532
f 1343 301 1245
f 822 627 273
f 822 1089 627
f 166 1071 978
f 537 79 132
f 961 1114 243
f 193 1020 662
f 53 131 439
f 406 1049 386
f 228 120 1100
f 558 431 615
f 607 698 82
f 1143 698 607
f 758 1143 607
f 206 619 758
f 1260 673 273
f 537 132 923
f 1089 971 627
f 767 1071 166
f 1071 971 1089
f 767 166 858
f 537 961 79
f 808 762 1253
f 171 1137 1313
f 1137 662 1313
f 193 662 857
f 1026 428 131
f 428 439 131
f 400 439 428
f 1123 428 1026
f 1123 1026 11
f 1123 11 777
f 1320 615 409
f 228 177 386
f 1100 177 228
f 1320 558 615
f 199 120 298
f 199 1000 82
f 1243 1053 221
f 1243 221 558
f 473 247 1053
f 473 434 247
f 619 639 517
f 532 434 473
f 639 553 337
f 553 673 337
f 351 1343 1245
f 1343 1328 923
f 627 238 273
f 1277 961 537
f 1234 243 1114
f 1234 171 243
f 1253 762 193
f 171 862 1137
f 1123 777 210
f 1049 210 777
f 345 439 400
f 345 409 439
f 177 406 386
f 199 1100 120
f 558 1320 1221
f 82 204 199
f 698 204 82
f 453 758 619
f 473 1053 590
f 517 453 619
f 639 337 517
f 351 1245 532
f 1260 1281 673
f 673 1281 337
f 273 878 1260
f 273 238 878
f 1328 1157 923
f 537 923 1157
f 767 971 1071
f 858 708 229
f 961 1277 917
f 961 917 1114
f 708 56 229
f 229 56 808
f 1234 862 171
f 268 1137 862
f 400 428 64
f 1123 210 702
f 826 345 400
f 826 400 64
f 1049 318 210
f 1228 409 345
f 318 1049 406
f 1228 1320 409
f 604 177 1100
f 993 1100 199
f 642 1053 1243
f 758 1009 1143
f 1009 758 453
f 1008 517 337
f 1008 337 1281
f 176 1343 351
f 897 537 1157
f 971 1069 627
f 627 1069 238
f 1018 971 767
f 897 1277 537
f 22 767 858
f 858 229 22
f 808 1092 229
f 857 1151 193
f 1151 1253 193
f 662 1137 857
f 1123 64 428
f 1123 702 64
f 406 632 318
f 570 632 406
f 406 177 570
f 1228 1221 1320
f 1100 831 604
f 993 831 1100
f 199 204 993
f 542 204 698
f 542 698 1143
f 590 1053 642
f 1009 542 1143
f 453 739 1009
f 517 1008 739
f 1328 1343 176
f 1328 176 296
f 1006 1069 971
f 1018 1006 971
f 811 1277 897
f 22 1018 767
f 1253 531 808
f 1092 808 531
f 1234 268 862
f 268 669 1137
f 1137 669 857
f 702 417 64
f 345 1339 1228
f 1339 1221 1228
f 570 177 604
f 154 1243 558
f 154 558 1221
f 681 542 1009
f 242 473 590
f 244 532 473
f 739 453 517
f 244 351 532
f 557 351 244
f 176 351 557
f 878 958 1260
f 811 917 1277
f 22 229 1092
f 588 1114 917
f 1164 1092 531
f 874 268 1234
f 268 1042 669
f 669 1151 857
f 1179 826 64
f 417 1179 64
f 210 1289 702
f 1179 17 826
f 702 1289 417
f 210 318 1289
f 920 345 826
f 920 1339 345
f 920 826 17
f 318 632 618
f 779 570 604
f 831 779 604
f 154 642 1243
f 993 204 1250
f 283 542 681
f 739 681 1009
f 242 244 473
f 399 739 1008
f 958 1281 1260
f 1328 296 1157
f 238 145 878
f 238 1069 145
f 22 1241 1018
f 1006 1018 1241
f 588 1234 1114
f 669 1042 1151
f 1357 618 632
f 632 570 1357
f 1250 204 283
f 283 204 542
f 1050 590 642
f 1050 242 590
f 242 938 244
f 399 1008 61
f 1281 61 1008
f 958 878 145
f 1223 917 811
f 189 1289 318
f 1339 920 631
f 779 1357 570
f 631 1221 1339
f 618 1357 326
f 197 154 1221
f 1221 631 197
f 831 57 779
f 584 283 681
f 938 242 1050
f 681 739 663
f 557 244 938
f 375 663 399
f 663 739 399
f 61 375 399
f 1281 958 61
f 974 897 1157
f 296 974 1157
f 897 974 1135
f 1006 680 1069
f 897 1135 811
f 680 1006 1241
f 147 1241 22
f 1223 588 917
f 22 1092 147
f 1234 588 280
f 1092 1164 147
f 874 1234 666
f 268 874 1042
f 1042 874 666
f 1042 1253 1151
f 1253 5 531
f 1179 1317 17
f 1289 1317 417
f 1317 1179 417
f 1177 631 920
f 17 1177 920
f 618 189 318
f 1357 779 326
f 127 618 326
f 326 779 57
f 831 993 57
f 642 154 852
f 852 1050 642
f 584 1250 283
f 681 727 584
f 681 663 727
f 1067 694 663
f 663 375 1067
f 167 176 557
f 167 296 176
f 267 296 167
f 61 958 1187
f 974 296 267
f 958 145 234
f 123 588 1223
f 123 280 588
f 280 666 1234
f 1085 531 5
f 1164 531 1085
f 1042 5 1253
f 666 966 1042
f 1289 189 1317
f 1317 1177 17
f 371 1317 189
f 127 189 618
f 1273 1177 1317
f 574 57 993
f 498 993 1250
f 401 498 1250
f 401 1250 584
f 852 938 1050
f 852 207 938
f 727 236 584
f 663 694 727
f 223 167 557
f 167 1341 267
f 1187 958 234
f 626 1135 974
f 145 1069 680
f 811 1135 1223
f 680 1241 1201
f 147 1164 596
f 1241 147 507
f 507 147 596
f 1085 596 1164
f 1042 361 5
f 371 189 127
f 1106 197 631
f 956 154 197
f 956 852 154
f 993 498 574
f 236 401 584
f 223 557 938
f 846 223 938
f 1341 167 223
f 61 1187 287
f 974 267 1102
f 145 1201 234
f 680 1201 145
f 1085 5 361
f 966 361 1042
f 1338 361 966
f 371 1052 1317
f 127 336 371
f 1106 631 1177
f 1317 1052 1273
f 574 326 57
f 852 956 207
f 223 112 1341
f 375 61 287
f 1187 1336 287
f 234 1336 1187
f 1201 1336 234
f 626 974 1102
f 1223 1135 509
f 1241 507 1201
f 1223 509 123
f 1192 280 123
f 280 819 666
f 774 197 1106
f 956 197 774
f 572 498 401
f 236 572 401
f 694 236 727
f 694 432 236
f 112 223 846
f 1067 432 694
f 375 287 1067
f 1102 267 1341
f 1085 144 596
f 353 144 1085
f 819 280 1192
f 819 714 666
f 353 1085 361
f 714 966 666
f 1273 102 1177
f 1177 102 1106
f 102 1273 143
f 143 1273 1052
f 326 1342 127
f 774 207 956
f 153 326 574
f 815 574 498
f 815 498 572
f 938 565 846
f 432 572 236
f 287 1326 1067
f 918 1341 112
f 1102 1341 918
f 1336 746 287
f 509 1135 626
f 1201 507 110
f 110 507 144
f 596 144 507
f 1262 361 1338
f 966 714 1338
f 1342 336 127
f 153 1342 326
f 565 938 207
f 1326 432 1067
f 287 746 1326
f 626 1102 798
f 626 798 1356
f 1201 224 1336
f 1336 224 746
f 626 1356 509
f 1201 110 224
f 509 1356 123
f 123 1356 1192
f 1132 774 1106
f 102 1132 1106
f 153 574 670
f 574 815 670
f 846 565 430
f 353 361 1262
f 143 1132 102
f 371 142 1052
f 1052 142 143
f 841 774 1132
f 419 143 142
f 142 371 1122
f 1122 371 336
f 1122 336 1342
f 153 545 1342
f 565 207 841
f 841 207 774
f 605 1342 104
f 104 1342 545
f 112 846 430
f 432 721 572
f 118 918 112
f 798 1102 918
f 1314 798 512
f 798 1314 1356
f 110 144 821
f 144 353 715
f 714 1024 1338
f 819 1024 714
f 1262 1338 1024
f 143 419 1132
f 605 1122 1342
f 719 419 142
f 719 142 1122
f 670 545 153
f 465 565 841
f 323 545 670
f 430 565 465
f 118 112 430
f 721 432 1326
f 1326 1043 721
f 512 798 918
f 1326 746 1043
f 224 379 746
f 110 821 623
f 110 623 224
f 821 144 158
f 476 1024 819
f 215 1262 1024
f 1262 715 353
f 215 715 1262
f 527 1132 419
f 527 841 1132
f 719 1122 605
f 841 527 465
f 527 419 719
f 545 323 104
f 1025 527 719
f 1025 719 114
f 465 37 430
f 164 670 815
f 37 118 430
f 572 164 815
f 721 164 572
f 174 918 118
f 1043 746 379
f 623 379 224
f 821 158 623
f 433 1192 1356
f 158 144 715
f 476 819 1192
f 1024 476 444
f 605 104 576
f 527 1025 465
f 114 719 605
f 114 605 576
f 323 576 104
f 865 323 670
f 670 164 865
f 174 512 918
f 1314 433 1356
f 158 715 215
f 433 476 1192
f 476 433 444
f 114 781 1025
f 576 781 114
f 576 65 781
f 323 65 576
f 465 1062 37
f 613 37 1062
f 118 37 613
f 613 174 118
f 512 174 613
f 1013 721 1043
f 1043 379 1013
f 512 1072 1314
f 1072 433 1314
f 158 379 623
f 444 472 1024
f 1024 472 215
f 1025 781 959
f 1062 465 1025
f 1025 959 1062
f 781 65 1345
f 65 323 865
f 141 164 721
f 1013 141 721
f 54 1013 379
f 158 667 379
f 667 215 472
f 215 667 158
f 1345 959 781
f 1014 1062 959
f 1014 959 1345
f 1345 65 934
f 865 934 65
f 1014 613 1062
f 1014 256 613
f 865 40 934
f 164 40 865
f 141 40 164
f 256 512 613
f 512 1271 1072
f 40 141 398
f 54 398 1013
f 1013 398 141
f 667 805 54
f 667 54 379
f 667 472 805
f 448 1014 1345
f 256 1014 448
f 1345 380 448
f 380 1345 934
f 380 934 40
f 256 1271 512
f 466 380 40
f 398 466 40
f 60 466 398
f 1271 433 1072
f 1097 466 60
f 433 1097 444
f 805 1097 60
f 54 60 398
f 1097 472 444
f 472 1097 805
f 805 60 54
f 313 448 380
f 256 448 313
f 1271 256 313
f 466 313 380
f 1271 313 1097
f 466 1097 313
f 433 1271 1097