# https://github.com/mikedh/trimesh
v -162.43034893 53.11922978 -93.42499651
v -159.00080294 66.10545400 -95.16379968
v -155.19433089 68.61966481 -91.60614817
v -166.45868181 63.09138295 -96.07345309
v -146.76625766 67.63999939 -91.73501000
v -151.09370507 70.34420538 -92.30664185
v -153.57032868 67.05389572 -93.96760672
v -158.16032025 58.99340658 -94.84018596
v -163.65351488 66.65458910 -94.57819067
v -165.75496422 60.75188151 -96.35763082
v -165.19135056 51.87854654 -92.22445505
v -149.94209022 63.47034247 -92.67086508
v -164.55424295 53.94764077 -92.12835183
v -166.42223421 58.50577474 -96.32379086
v -169.51653252 51.96946247 -95.22586144
v -152.77284558 63.14223907 -93.74836879
v -155.57566374 62.14619983 -94.50695925
v -160.63151951 57.16883968 -92.20372938
v -167.40884657 56.67364373 -96.15664737
v -167.75799050 62.56200058 -95.18181028
v -165.13806826 64.79580314 -95.84440502
v -157.03648693 68.11832522 -94.98647554
v -150.34145233 63.56771564 -92.89869373
v -164.37817046 65.95104145 -95.62422299
v -167.42601901 52.09175784 -92.98495822
v -165.44827348 51.21483817 -92.64692600
v -163.16330748 68.69957676 -94.99345797
v -166.73393187 57.99464337 -96.29408537
v -157.95472501 57.96556313 -92.45947143
v -153.53612327 64.71074767 -90.41001954
v -150.21785773 70.16395709 -92.02452947
v -149.24294499 66.74522215 -92.67447351
v -153.27189960 64.76990053 -93.90661607
v -153.49999246 61.76157329 -92.50369608
v -158.56516559 55.21879207 -92.64583998
v -162.90210721 62.69704400 -95.87190980
v -163.31758905 52.54595964 -92.04622043
v -148.12706220 64.59851609 -92.09742423
v -169.66313043 52.37588271 -95.15908038
v -165.14107764 65.47878749 -95.32816008
v -149.86639460 64.26631956 -92.84470373
v -156.77025193 56.60091139 -92.87798659
v -153.76425111 61.14407384 -93.16240459
v -146.82404666 64.95872886 -91.36156468
v -157.49512005 69.95571920 -94.53247921
v -156.87165205 56.80191582 -93.55893447
v -147.46148553 67.07533866 -92.03498022
v -154.37374868 65.23425975 -90.60993462
v -154.53435088 62.57875738 -94.25584162
v -157.55621413 59.15004566 -92.50837246
v -155.59942491 59.72087686 -94.10860647
v -164.63070212 56.18168576 -95.43866455
v -167.40481183 50.94132994 -93.56595315
v -159.19202239 62.00999826 -92.24634402
v -154.99730306 59.51367324 -93.36936882
v -159.07037934 59.31886744 -92.39842235
v -151.04827627 65.08696711 -89.97176241
v -158.55520738 66.45504887 -92.26768560
v -155.50717905 64.99633368 -91.02041567
v -157.39567155 57.16203903 -92.46067928
v -156.21561180 57.94052344 -93.89287222
v -165.00064447 65.73960708 -95.52195410
v -156.00458104 67.76317250 -94.77573870
v -169.25014568 55.41397554 -94.78011223
v -154.38018221 65.70633726 -94.22362241
v -159.86626656 62.91084194 -92.36743798
v -168.84166326 57.67878084 -96.23998007
v -167.93907537 61.49224054 -96.16208918
v -154.74200900 63.23595508 -91.30821222
v -160.62534262 53.66484841 -92.59148988
v -154.91554009 66.54423360 -94.38209641
v -158.92562069 69.77556314 -94.83926141
v -166.01963352 54.18612966 -95.15274037
v -149.16483605 63.82095488 -90.69518972
v -157.68258405 55.80141734 -93.16109602
v -159.87696395 59.70532226 -92.43488403
v -149.50702960 68.75977721 -90.92677690
v -160.98823325 54.44307367 -91.99281382
v -155.35798311 69.84976261 -92.51963060
v -158.89992456 60.95742743 -95.16739003
v -156.95232418 56.56654106 -92.66268243
v -150.34484733 62.76002493 -92.25614379
v -164.40522114 51.69931184 -92.85938426
v -147.67176342 64.11424610 -91.19864555
v -147.40494100 68.38241109 -91.09213751
v -150.08552825 63.10455403 -91.46794514
v -168.98885736 51.47569832 -94.94882999
v -152.23377305 64.17565932 -93.63729524
v -159.38007638 66.84352878 -95.23634346
v -164.56045466 57.24586007 -92.79106861
v -163.39603320 57.95332853 -95.68319771
v -154.81888293 62.31586678 -91.87142393
v -152.05081370 62.16016471 -92.58464474
v -161.34814133 60.81023157 -92.62868414
v -153.30162059 66.34054315 -90.39511565
v -148.35930127 63.63661744 -91.22655552
v -165.69803888 52.68594632 -94.36481564
v -164.46493459 62.25944619 -96.13044521
v -158.21507238 68.98397428 -95.14811503
v -154.50350685 61.40816265 -92.50895141
v -151.47194037 63.15709550 -93.34139246
v -164.94853835 54.13810416 -92.24615410
v -145.99267003 66.45948919 -91.01981348
v -151.86071398 66.36784584 -93.46293163
v -161.04496839 66.46967388 -93.26561916
v -163.69466812 62.99503347 -95.98851080
v -166.72232310 51.22019637 -93.64112816
v -167.87014716 55.76746042 -96.05166673
v -152.68462429 69.60640449 -91.76991341
v -163.99073385 65.45419642 -94.44018967
v -160.02283419 56.68224892 -92.12080238
v -160.55498018 68.23243934 -93.57183780
v -163.49635588 61.92929097 -93.39035776
v -155.56420943 60.90344061 -92.55207839
v -162.94077660 52.46004705 -92.68659327
v -164.71029923 61.70349725 -93.77409202
v -160.25493748 66.17239685 -95.34109875
v -159.92085643 55.11513939 -93.98289898
v -164.06479746 67.54613187 -94.97028566
v -168.61604141 51.11593103 -94.29213165
v -167.92066958 62.08893714 -96.07220077
v -165.91656341 64.64960509 -95.42573737
v -169.46437071 60.21066832 -95.50938863
v -157.55661939 64.37567589 -94.86213844
v -161.26003428 53.73554067 -92.07143024
v -163.71266414 55.78635997 -95.15670541
v -148.04961918 68.93667576 -91.39432540
v -157.18111982 63.60145800 -94.80051294
v -152.98425483 68.75528655 -91.15532016
v -149.86058462 65.59381636 -89.85881327
v -162.43737589 67.44083454 -95.46087643
v -147.79099284 69.61241186 -92.08166598
v -164.05466401 52.72384509 -91.99548282
v -152.75370227 61.82649249 -92.75938871
v -159.93296614 68.91271671 -93.55351706
v -160.83664770 58.13911945 -95.29244655
v -154.41642924 61.74485334 -94.12534302
v -167.08997554 53.03483206 -94.97422572
v -155.47986614 69.94940891 -93.45858836
v -150.39589304 69.90209745 -92.43385682
v -168.16534785 54.36500668 -93.84001023
v -147.56552959 64.24196486 -90.94153816
v -160.77988539 59.78666847 -92.52997792
v -163.33656537 67.21539371 -95.49082082
v -151.80333493 63.68640632 -90.74427269
v -155.79220046 63.44769554 -91.40217394
v -165.53511548 64.92907376 -95.72502853
v -157.56199952 56.45036152 -92.44133708
v -164.92623116 58.04757757 -95.98400953
v -153.67875103 61.50986986 -93.74079856
v -165.79418078 54.30774672 -92.53720417
v -153.65509867 64.22639066 -90.57965054
v -166.57474992 53.69321454 -95.10454282
v -151.27902548 67.22921080 -90.23140416
v -168.78474477 57.92501789 -94.67101243
v -153.08797224 67.60492208 -90.62377542
v -159.94723539 58.43425707 -95.17856980
v -151.33951339 70.06581425 -92.18038859
v -166.58622056 63.88392184 -95.85793692
v -157.31349150 64.11815799 -91.62997224
v -159.76812381 54.77251621 -93.67353767
v -168.86825337 51.69987524 -94.12162193
v -165.44002225 61.96315783 -96.25508100
v -156.33016643 67.41932114 -94.83261665
v -149.94503045 65.18031250 -89.90920910
v -165.60650630 53.81426042 -92.36775925
v -167.49493935 60.45009696 -96.32757203
v -162.12621100 61.09952479 -95.83495881
v -152.95368909 67.65493112 -93.66298169
v -156.63335754 58.89465231 -94.39069097
v -154.91677678 67.66588122 -94.47102048
v -169.49576990 56.08559398 -96.00437514
v -148.01171760 68.93055875 -92.15116519
v -156.83966855 58.22130646 -92.68966237
v -162.43292015 56.56931799 -95.13954482
v -163.11858958 54.64770584 -94.64207532
v -156.72228549 69.65945134 -94.53083612
v -155.15448105 64.04761416 -94.39152723
v -154.63596081 69.82172282 -93.38154876
v -158.88616340 54.87811017 -93.11160081
v -146.86219883 65.24609530 -91.47459815
v -154.11772194 68.49457356 -91.20677405
v -148.88940281 63.33457715 -91.69639302
v -155.16682526 62.86159555 -94.40202908
v -165.57137625 62.74965723 -96.19360623
v -160.12573944 69.36428938 -95.01769596
v -170.15549747 54.91101601 -95.80305579
v -155.67572254 65.45168001 -94.48564864
v -164.93371381 63.36537276 -94.36802789
v -161.04129161 65.23905572 -92.95415459
v -155.88272920 60.25296090 -92.69403442
v -166.18539442 51.82463187 -93.91682371
v -166.41415492 54.42026657 -92.81490367
v -156.50652228 60.00644655 -92.61383538
v -165.66384829 63.85028559 -96.04067552
v -151.93075677 65.13771934 -90.06167638
v -167.14717604 63.34933002 -95.34018424
v -169.61351789 56.71256747 -95.11247200
v -152.60444902 68.26083769 -93.42630326
v -157.91912245 61.86566452 -94.96012662
v -161.80750095 62.57688078 -95.65762250
v -164.90500025 63.61096634 -96.04610082
v -163.54425752 53.50112106 -94.18191701
v -161.29776348 53.68745908 -93.38046199
v -154.36795182 69.81648144 -92.15540598
v -148.18214315 64.49627242 -90.42897523
v -155.87426714 63.43499358 -94.53031477
v -157.30462707 56.72822028 -93.80272463
v -157.79636637 69.58146701 -93.15167507
v -148.48977252 65.66260270 -89.98324716
v -167.89529748 58.90933581 -96.32902507
v -166.13123914 63.74919845 -96.00704922
v -154.36416186 61.88787072 -92.21319865
v -166.02334116 59.78094169 -96.41999361
v -153.49035506 67.36795493 -93.90129699
v -163.10222717 53.84570209 -94.23221024
v -169.99877152 54.54477382 -95.50955310
v -168.84751498 60.37731556 -96.11374882
v -150.96147959 64.89534801 -93.27781241
v -150.11571933 63.05409409 -92.57224050
v -162.02153677 68.15323118 -95.33785836
v -159.28542688 69.26990202 -93.45076403
v -163.27932269 53.36481742 -91.96445439
v -169.38332650 58.15640094 -96.17023174
v -159.55312788 58.74151089 -92.38220729
v -157.88003085 56.83118555 -94.16467939
v -153.91841912 61.18999674 -92.92733295
v -146.86835740 65.47869638 -90.50899133
v -163.61245963 60.75866515 -96.12128737
v -155.96501408 66.39652747 -91.26256557
v -162.41697043 68.94601639 -94.84998047
v -164.30688809 57.96116274 -92.86522834
v -158.48647879 57.07480236 -92.26560299
v -156.92895782 60.10981018 -92.52929632
v -154.37533097 64.66602266 -94.21986166
v -159.63764960 61.12613360 -92.37425932
v -150.15065597 64.03690681 -90.48084895
v -166.29053985 64.21873618 -95.38356044
v -169.08263185 51.90611919 -95.15060034
v -148.89030339 64.78482487 -92.55300608
v -151.91297696 69.06496135 -92.98834783
v -156.41318902 62.62838064 -94.66916015
v -162.39707165 56.53860297 -92.18767190
v -162.36190454 67.00510392 -94.01041137
v -156.87663290 69.70185386 -92.85478962
v -167.20130486 53.19123225 -92.98813885
v -146.82077701 66.47914193 -91.75729486
v -150.14128043 64.72137591 -92.96677208
v -154.56090342 69.30487276 -91.75404925
v -153.46759908 62.16149133 -93.87793962
v -163.02806330 63.83824799 -95.76766139
v -164.52142499 66.23195250 -95.51842221
v -168.27136922 60.60783757 -96.20969310
v -157.22647515 64.95706336 -91.56073262
v -148.80672979 68.16179417 -92.45275221
v -169.86736450 53.26951082 -95.45228411
v -157.52594060 62.08852174 -92.05977098
v -162.54606604 64.06079763 -93.39939230
v -146.22318333 66.51936047 -91.38108632
v -157.42900481 66.92207710 -91.92148624
v -160.63222413 55.28839906 -94.33357265
v -164.34165532 52.83511069 -94.00365280
v -149.61508378 68.08279333 -90.47553809
v -166.77075322 61.50995520 -96.27215219
v -166.73507237 64.08350692 -95.69943073
v -159.11899964 63.72885978 -95.10025201
v -162.01430577 58.65636438 -92.58758410
v -165.59212731 52.51846893 -92.23299014
v -168.56486642 59.06944001 -94.71191416
v -154.20929447 67.09440286 -90.78604557
v -159.00331871 55.12466159 -92.44785251
v -162.81112372 57.23069288 -92.42949667
v -154.49199289 68.40763186 -94.10292826
v -166.03937848 58.02000907 -93.40870010
v -155.33909648 60.20550665 -92.86058471
v -166.74404373 57.67629783 -93.63127713
v -146.89686461 65.85960935 -91.72851347
v -156.92076672 57.60664483 -94.07309214
v -162.13295105 53.13009159 -92.12441094
v -167.88960627 54.39536193 -95.64906162
v -155.60783020 58.41962624 -93.42814915
v -168.99982965 61.32794542 -95.78997174
v -149.50837013 70.02322308 -92.31194248
v -159.42861386 55.61248939 -92.18075093
v -151.38652606 69.68367050 -91.79896048
v -155.22682752 68.99944147 -94.24080082
v -163.22026679 58.52180938 -92.73157473
v -164.77649732 65.67893799 -95.03215666
v -161.56857212 69.22570028 -94.74599586
v -151.71392536 64.26065250 -90.27512433
v -163.49720127 65.99315001 -95.64510803
v -168.47166303 61.71252600 -96.02611907
v -156.65295456 70.04902901 -93.46017620
v -166.21287969 60.51135847 -94.02406663
v -154.93495586 61.88330750 -94.32054877
v -160.54892066 60.82065834 -95.48132241
v -164.74251491 51.79025860 -92.25697318
v -160.36228588 60.11868910 -95.40448709
v -160.81950244 62.33032413 -92.58785427
v -159.41707776 68.60151140 -95.20632719
v -162.17083643 68.47237170 -94.41236196
v -167.20100126 63.53987477 -95.62991940
v -161.69743404 57.42078332 -95.22296425
v -147.09669913 68.26530982 -91.73193518
v -162.26052187 58.08764646 -95.50962048
v -158.26084976 65.49183480 -91.96384420
v -159.09471506 54.96460444 -93.43797129
v -154.08520146 65.98972071 -90.55334881
v -166.18695977 61.15488966 -96.32364779
v -160.12726203 67.15119193 -95.27676473
v -156.44916882 58.13133146 -92.85361826
v -160.66759421 67.79858619 -95.29683162
v -164.33708514 51.67356998 -92.56870479
v -153.29333222 65.26841337 -90.33110289
v -167.83644381 51.74167243 -94.58808925
v -150.56041430 68.60455420 -90.80507943
v -163.25329509 56.71830093 -95.33509247
v -161.49255967 65.95927358 -95.47887513
v -161.85928792 59.40443142 -95.68790116
v -166.25072370 59.30098208 -96.39855257
v -151.73724162 67.66601848 -93.34265788
v -150.08364970 67.02330193 -90.09795905
v -162.89004497 52.41646463 -92.36138409
v -164.51218493 59.74227223 -96.23220268
v -160.26678455 62.93935081 -95.33151966
v -160.07055024 64.61398408 -92.47113492
v -160.97341201 59.09651276 -95.46226705
v -165.63054952 64.99101038 -95.58680264
v -152.37213237 63.63975487 -93.68343104
v -147.58823931 67.32880606 -90.30819677
v -166.89331062 63.20336341 -95.98074826
v -156.43962880 62.71330308 -91.80121659
v -153.93774848 67.93680237 -93.98805074
v -150.43227948 65.81593093 -93.09465876
v -165.38405452 53.33446238 -94.64131866
v -150.86293335 65.72865082 -89.92567645
v -170.10404834 57.56313305 -95.45107814
v -159.00930391 58.50536484 -92.37669235
v -148.76065592 63.73603419 -90.84540780
v -169.50799126 52.45949455 -95.46835457
v -160.27040068 61.62133835 -95.41696810
v -150.02658480 68.26333716 -92.82005773
v -168.34430403 52.13904915 -95.00448558
v -169.49101485 57.59100413 -96.15198259
v -158.21068281 55.32010122 -92.92904726
v -158.65291514 57.48834717 -94.63499752
v -165.72367309 51.91537816 -92.34312299
v -161.10018934 69.14370787 -95.09208209
v -156.28453911 69.16534662 -92.21320040
v -166.18540290 63.84952037 -95.12424969
v -159.23676744 61.97289181 -95.20948182
v -167.87141163 56.44938461 -94.01035840
v -162.86375984 59.40729041 -95.85486484
v -157.39422661 58.02767307 -92.52952383
v -159.85472349 54.19380228 -92.80475464
v -158.74988155 68.79258447 -93.04814126
v -153.02006027 69.29589484 -91.49324783
v -152.31857389 65.69883928 -90.12007569
v -153.56676889 61.25895888 -93.40765831
v -165.29544256 64.77749706 -95.07247473
v -162.24413859 63.28779678 -95.69334844
v -154.00862829 67.70758129 -90.89835470
v -168.22650391 60.31385706 -94.76709213
v -158.69068715 61.55405157 -95.10364242
v -165.03057764 60.30694825 -96.33564711
v -162.75565959 55.81324062 -92.08274403
v -160.51233060 67.33410612 -93.24125730
v -150.64697349 67.67580302 -90.30523824
v -164.06415951 53.52219798 -92.02615631
v -146.38821189 66.11173743 -90.62056752
v -151.04732918 63.95369026 -93.25554605
v -151.06049383 62.64724959 -92.82263254
v -158.54024135 58.20712652 -92.39654444
v -159.00693624 69.49966209 -95.06054699
v -156.49110309 69.88712661 -94.31100095
v -154.59630336 62.84814800 -91.51571667
v -157.48025663 68.59713530 -95.07652104
v -168.06138476 62.67323560 -95.51797789
v -169.74814740 59.86898452 -95.73534768
v -168.59492125 55.94056590 -96.07350018
v -146.60373966 65.46158445 -90.70905485
v -162.02213265 56.18360899 -92.09895938
v -154.06357602 62.27190855 -91.95458045
v -149.51617731 64.63515643 -90.16746391
v -163.90593436 54.12417306 -94.61447246
v -156.92940791 59.80131423 -94.65657888
v -153.25485676 63.20578947 -91.19198444
v -163.58347820 60.22532180 -93.09802241
v -148.75618886 67.85466797 -90.40198101
v -158.21229817 56.32045296 -93.99702066
v -162.32999664 62.04099219 -95.81460095
v -156.79454327 69.90644288 -93.12449156
v -152.88603322 69.43149178 -93.06540871
v -169.69464179 54.17847217 -95.73120945
v -161.59924580 69.11658176 -94.29577548
v -163.17632543 64.77176801 -93.86486999
v -167.21317074 58.61433789 -96.33918521
v -159.46307027 55.07980291 -93.78933801
v -168.23710764 51.34868315 -93.61241859
v -154.21978774 61.23234747 -92.72057569
v -158.81986101 56.32681265 -92.22489290
v -152.57591152 62.53839346 -91.85231717
v -148.52899226 65.61730388 -92.38774788
v -166.89643591 60.96401610 -94.39137249
v -152.33197356 64.83154309 -93.68503480
v -155.64921373 60.36006897 -94.33144896
v -168.08270492 53.09238662 -93.46493987
v -164.73371169 59.25245254 -93.24867128
v -170.22850438 55.60494518 -95.76279261
v -157.02006624 66.73661488 -94.84298240
v -156.36721701 57.58096991 -92.97256232
v -155.68896405 64.05208623 -91.16486900
v -159.09060917 56.01196258 -94.18042418
v -160.39012174 63.72156488 -95.31895495
v -156.54466345 59.28706208 -92.69749583
v -164.70211337 60.38916671 -93.44737860
v -169.73793755 58.58876061 -95.29141227
v -167.40246764 55.53343150 -93.57944582
v -157.49762592 67.57035441 -94.98792306
v -153.14748464 69.67315622 -92.92193283
v -150.48170622 69.28744978 -91.37273809
v -166.64505073 50.95244086 -93.00660538
v -152.64423457 62.08836211 -92.40029171
v -157.97670502 56.17330761 -93.78733830
v -165.78806176 58.28224232 -96.19865066
v -160.57286074 63.52648944 -92.55500164
v -159.37375718 59.81007938 -95.21763057
v -157.47974840 57.57536190 -94.35285065
v -156.56478953 61.06098630 -92.38711849
v -151.11555304 62.96163968 -93.12353815
v -151.91563460 62.14796030 -92.85400372
v -157.69794599 56.03862942 -92.52633558
v -153.87002392 66.45992417 -94.08666703
v -169.13498947 53.17332952 -94.42827749
v -154.56601522 63.71025258 -94.24483558
v -161.92092975 53.01540206 -92.47553592
v -153.01696610 62.00928662 -93.61709971
v -164.58397443 61.53709360 -96.23936567
v -149.53473226 63.09918383 -91.53060119
v -158.20449258 55.54667732 -93.43376775
v -167.44555735 57.46317375 -93.90128266
v -154.46148817 60.46384306 -93.24700363
v -161.87686374 68.96829151 -95.03571121
v -154.66316253 69.98207475 -92.54204074
v -156.46400946 57.15938955 -93.15132553
v -158.39699105 70.01810409 -94.57080753
v -149.39910112 69.84875206 -91.82925596
v -160.84571445 69.46676561 -94.90257416
v -155.56079177 59.41290534 -93.00971383
v -146.42232681 67.67953061 -91.47057729
v -153.57616129 63.43156412 -94.00109186
v -163.91140776 64.03795527 -94.06890492
v -165.97499686 51.07267522 -92.98571257
v -169.71727638 54.29846455 -95.13239057
v -160.62426904 62.07976672 -95.45904054
v -158.31754292 60.28095019 -92.37665895
v -165.67013255 63.58044917 -94.75012713
v -151.27954041 62.44739833 -92.72622187
v -162.76066579 53.25716157 -91.97663458
v -161.20498691 56.52080782 -94.88577844
v -168.27972872 51.78420655 -93.47758902
v -146.05824651 66.84953450 -90.61500427
v -156.13779308 65.83666424 -91.26013732
v -154.25424195 60.62297015 -93.44233560
v -164.23400147 63.26071919 -96.03610888
v -161.99135640 54.34048294 -91.94117113
v -164.25262117 58.05113502 -95.84692167
v -166.64917694 56.63940399 -93.38657380
v -163.00494341 63.24506311 -93.44320161
v -155.84841898 59.68501283 -92.82403270
v -169.24762790 57.53759305 -94.91470861
v -154.47403144 60.68936670 -93.81126100
v -162.12718785 55.56812072 -94.75580287
v -162.15321516 53.71885452 -93.79837144
v -160.54214879 58.67086760 -92.42167449
v -160.55799940 68.39811133 -95.22850634
v -169.09012743 51.06332638 -94.77324982
v -168.32300567 62.05572500 -95.32181826
v -163.16054687 54.78037795 -91.97728003
v -151.03293833 68.05595776 -93.13471070
v -169.69712342 53.25364517 -95.07963455
v -159.20196876 63.13771522 -95.13491300
v -161.34359172 54.56765247 -94.15090027
v -158.46142261 67.70184238 -92.53692233
v -162.28750542 64.17847343 -95.60068925
v -164.51736086 64.83944239 -95.83237610
v -156.40504796 58.70334543 -94.23888157
v -148.11548335 65.30066849 -92.20014273
v -161.79805087 60.43051117 -95.75010410
v -168.86948443 54.63382807 -94.37326482
v -159.46815176 56.21806139 -94.39991034
v -159.34373575 54.60025520 -92.62681503
v -162.69737977 52.61262624 -92.21709324
v -147.82643206 67.92105152 -90.60607445
v -157.79037323 63.11122167 -91.89259154
v -151.80753459 69.06296739 -91.14571071
v -152.23540626 67.21819321 -90.37695412
v -153.80406998 61.95495265 -92.25708431
v -151.22164098 63.33163344 -91.10867179
v -164.00915578 51.86356831 -92.29038588
v -151.82899636 69.47581030 -92.76869116
v -153.25768892 61.57528140 -92.80794375
v -153.81228711 62.47524827 -94.05629919
v -169.24870247 60.55469187 -95.94157839
v -160.19327206 61.69559933 -92.42434596
v -146.40467969 67.47396174 -90.68678807
v -163.93199393 52.19036627 -93.21798747
v -169.29736338 54.50116658 -95.83340278
v -160.09312346 65.47815579 -92.64735895
v -168.76001212 56.14266507 -94.51582743
v -161.10453611 63.17781983 -95.43732657
v -154.74538052 60.71390290 -93.99532439
v -147.97374995 69.26790272 -91.74279318
v -153.93624351 61.64229766 -93.92542955
v -155.14629174 59.77608251 -93.86367457
v -149.84672792 67.79095168 -92.82431302
v -148.96075071 64.23166920 -90.41522984
v -159.37921748 62.54826269 -95.18298768
v -152.14515345 69.83934188 -92.61469865
v -147.53835136 65.14684493 -91.89270162
v -158.83307238 70.08272767 -94.30713072
v -167.26597720 54.45642102 -93.26542855
v -147.76022217 66.37184826 -90.07644347
v -155.84502327 58.14371354 -93.59528319
v -168.26886445 61.43221507 -95.08517037
v -170.14787778 56.37719763 -95.86360803
v -168.41548245 53.43571208 -95.47223160
v -147.64024847 68.97208404 -91.94740197
v -151.98350428 62.15181068 -93.11310581
v -161.45616187 69.33506419 -94.44543731
v -154.79251526 61.08938577 -94.14451462
v -157.78945802 60.10245188 -94.89508408
v -155.97159044 66.27332733 -94.61608873
v -165.61179296 56.99524080 -93.02745720
v -148.46783410 66.44752974 -92.40838801
v -162.43748153 65.29120859 -95.57206427
v -157.52204760 67.76530489 -92.18781096
v -167.15705941 51.52879334 -92.98348908
v -166.10375371 57.03147170 -95.98136362
v -156.96177718 65.67936418 -94.78372232
v -150.89221774 62.77462953 -91.78027456
v -160.47443180 55.41264099 -92.04331735
v -166.08502236 62.82067993 -94.64530542
v -147.22908727 66.02227057 -91.93117356
v -166.91402163 59.65972098 -96.41174092
v -154.86702088 63.80924936 -91.05507239
v -159.90336645 69.67413233 -93.93920683
v -163.09313247 59.19123553 -92.81569389
v -155.52556831 58.83603926 -93.19926399
v -148.02608321 64.13203783 -90.74746846
v -147.43306007 64.83452229 -90.50866766
v -148.81470715 64.98628532 -90.06477208
v -149.67460391 63.03607190 -92.06329504
v -156.85526867 60.75986104 -94.74210697
v -161.57374954 63.75882551 -92.95495973
v -163.89487430 55.26475181 -92.14032358
v -154.67820779 60.04947657 -93.55917106
v -151.27300045 62.53818983 -92.10014331
v -161.22652388 56.19184705 -92.05290398
v -158.72456899 67.94038790 -95.16483368
v -155.33846054 68.13518886 -94.56009070
v -159.00599280 64.16682595 -92.11654353
v -156.12435665 57.66936165 -93.46205211
v -150.50677166 63.70194606 -90.75577968
v -153.56844549 62.80050782 -91.55072799
v -170.31852719 57.23425691 -95.69417906
v -155.88548579 58.56790907 -93.03886396
v -148.93541995 68.71541975 -92.44313974
v -149.53811514 63.99534951 -92.62863250
v -147.34593123 68.58254290 -91.50411556
v -155.57031515 62.57324895 -91.76993926
v -160.52604103 54.35054649 -92.10134341
v -161.62649717 67.87816784 -93.92109076
v -157.00050050 61.72696935 -92.14118025
v -158.19659890 63.49475555 -94.94849457
v -156.99942610 63.56256474 -91.63455349
v -166.67391674 60.27060617 -96.37711866
v -155.33774077 69.72639381 -93.96569594
v -151.67074063 68.07857407 -90.58125377
v -152.70023339 63.75049379 -90.71547383
v -149.70119865 69.42743040 -91.49458325
v -160.29736242 55.94600830 -92.08708937
v -149.09856283 66.38026769 -89.92431570
v -163.99596743 56.32632453 -92.40834086
v -169.66456857 59.64940910 -95.93466763
v -163.93848941 60.12082224 -96.17804810
v -152.45749877 64.45350836 -90.29512047
v -155.68507919 61.81699177 -92.14979248
v -150.52715837 64.87607726 -90.00408020
v -148.27185972 66.57693929 -89.98334931
v -157.05385200 61.93112562 -94.80798907
v -162.89769933 68.34887233 -95.27159195
v -166.61357258 59.55828317 -93.94932122
v -157.83312803 60.98793133 -92.29023462
v -159.66817567 69.83333283 -94.74785283
v -162.29438048 60.71482138 -92.83451925
v -159.19985384 58.90393808 -95.08229064
v -166.61055959 52.82365769 -92.60082633
v -158.63202321 63.34454498 -92.03670542
v -156.86462133 57.36780898 -92.66699524
v -155.74219719 69.50874057 -94.27483680
v -161.28103030 57.62706254 -92.31766011
v -146.21815723 66.07124972 -90.84288289
v -157.37821614 62.76005127 -94.83614949
v -157.12619577 58.91615978 -94.58616888
v -158.24042799 59.41592945 -92.42622295
v -159.07046733 60.69579763 -92.35581300
v -163.33138012 65.41444245 -95.68172685
v -156.68572749 56.83909430 -93.27148902
v -159.20624099 55.32093942 -92.30171136
v -147.70482563 67.99228201 -92.09692163
v -167.23048197 51.50034774 -94.14741327
v -157.32174434 70.06121407 -94.20239354
v -164.89673441 55.60076532 -92.49359379
v -159.13720869 64.42520408 -95.10767348
v -168.56857660 53.83152424 -94.02818741
v -161.65332426 59.88205112 -92.64968925
v -148.89441981 65.75800973 -89.93522869
v -162.53056547 66.53254731 -95.53205640
v -150.13550454 68.88094297 -92.69805119
v -159.14846313 57.88287441 -94.87525004
v -150.92886352 63.07688190 -91.41344004
v -153.61985520 68.95339494 -93.51269321
v -157.11840332 59.00024291 -92.60322926
v -155.19036986 67.15847263 -91.10050864
v -160.88796915 64.95114603 -95.35365472
v -149.74555365 66.97906387 -92.81166452
v -149.87474331 67.63357450 -90.28638218
v -156.49243084 64.69783691 -91.33432863
v -158.62005214 69.88664757 -93.71291949
v -147.61075647 65.45981594 -90.21239617
v -160.68224039 69.38301198 -94.12120929
v -168.22429748 55.43026390 -94.06727985
v -156.93402826 66.14678387 -91.56008660
v -169.46973230 54.59521408 -94.86392238
v -169.03905172 60.73790354 -95.34940530
v -156.18409998 57.65161626 -93.16130387
v -147.25933540 64.41329696 -91.33971077
v -146.08050588 67.44368434 -90.96752176
v -152.65914511 62.76690613 -91.59234841
v -152.84456633 65.35892390 -93.81698788
v -159.25129221 59.96047317 -92.39605238
v -149.38111543 63.10279364 -91.64479363
v -163.98336244 61.00961804 -96.20463143
v -155.07442231 61.61492798 -92.28098813
v -151.34975293 66.49683738 -90.07087392
v -169.08451657 53.70123172 -95.65618567
v -148.89676609 63.61401924 -91.99382281
v -162.12843172 62.86487561 -93.01345632
v -163.48670148 64.55304677 -95.78115699
v -160.38874726 53.92401643 -93.03522768
v -152.74757679 61.84956834 -93.38786735
v -155.52649488 61.16506141 -94.39801402
v -147.09672806 64.58031457 -90.83320343
v -162.64442464 61.67040843 -93.04836708
v -148.46556092 69.78835441 -92.21899154
v -158.06317114 66.96007095 -95.06035549
v -158.07159693 60.59209830 -94.97031728
v -157.45623905 60.31126735 -92.39477503
v -165.69897118 55.81997553 -95.56782557
v -156.29833699 61.82626013 -92.09745709
v -163.58567566 67.60081848 -95.36357172
v -165.20658188 62.37072109 -94.14113080
v -161.46971158 62.35145099 -92.74751592
v -160.14583865 64.73782742 -95.24932735
v -155.46557954 64.59548953 -94.43042288
v -146.36939375 65.84906857 -91.24596821
v -157.63898645 61.24652189 -94.89823262
v -152.19803452 62.83825769 -93.52123708
v -164.79416091 66.15566047 -95.28571204
v -148.62603004 68.56474170 -90.93315903
v -162.35956729 52.87049515 -92.89076181
v -170.27133436 58.85356292 -95.69110007
v -159.83155786 54.46683191 -92.31784279
v -168.62335929 62.13353957 -95.66336916
v -166.89184867 52.47311235 -94.60155677
v -152.33776887 62.42169516 -93.49359181
v -169.23454855 52.31287361 -94.51456086
v -152.41661880 66.97909027 -93.62050528
v -148.75247251 66.81488644 -90.01449179
v -155.95994663 61.58617327 -94.55377822
v -160.40763961 56.28271284 -94.67774411
v -154.53084278 64.34700546 -90.82241735
v -151.38945589 70.06626634 -92.43058057
v -152.40270241 66.57156195 -90.24409328
v -165.55664983 59.45855818 -96.33509366
v -166.54138758 61.70286209 -94.46905610
v -157.27007329 69.23996626 -94.94998296
v -162.74751776 54.38184316 -91.93199132
v -161.35030645 55.29227475 -91.96680516
v -156.18994223 67.05184457 -91.46060623
v -145.82217096 66.90528368 -91.04060346
v -158.48343712 62.36119480 -95.05436738
v -169.46285532 51.58968415 -95.03121402
v -154.63353117 60.51900317 -93.03268930
v -149.54090023 70.18104584 -92.17192233
v -170.10830593 56.72873779 -95.49077729
v -160.22823762 69.82376201 -94.48402087
v -148.76450649 63.93580311 -92.17011674
v -159.79418940 69.86797876 -94.20352012
v -156.13660705 68.75856008 -91.95913521
v -148.50853780 69.76454961 -91.96688989
v -146.78826811 66.12057295 -90.39729584
v -158.50631392 65.23733982 -95.03853634
v -146.60547266 65.14747868 -91.01483962
v -152.07630517 62.26619415 -93.30646405
v -163.71751077 61.82365999 -96.11219841
v -157.91697060 66.07852879 -94.99349197
v -152.70377877 61.78028421 -93.10715064
v -169.28345136 59.79893858 -95.18783638
v -150.75936450 62.92971868 -92.89171435
v -166.85774271 55.56338531 -95.74855592
v -157.39505888 69.01341136 -92.61532102
v -166.94839481 61.84369841 -96.24000315
v -167.85156998 62.78472040 -95.81484145
v -153.77555709 63.45429131 -91.05404312
v -151.09264211 65.61125868 -93.30460158
v -165.14939986 51.67100067 -93.33397543
v -168.39248173 54.52065169 -95.76753096
v -154.92539484 60.74987561 -92.77913033
v -153.07826431 63.98724776 -90.58669776
v -157.91464845 70.09597630 -93.85391337
v -153.01715029 64.13768147 -93.84204596
v -155.21643308 59.21388572 -93.62629545
v -160.68157251 53.75207933 -92.29757962
v -163.31375232 53.07788057 -93.81920496
v -151.87646306 68.54645563 -93.18407701
v -168.06247211 59.61640101 -96.28281496
v -163.05110271 68.58289292 -95.15442974
v -158.23563644 61.90296688 -92.12103773
v -159.71728460 57.35978386 -92.23503684
v -156.83244505 68.71444136 -94.94546744
v -148.00470586 64.00502035 -91.57181520
v -154.64224498 66.54861985 -90.79431339
v -150.72076180 69.95250945 -91.91618067
v -166.10520419 55.57806482 -92.93094536
v -167.32688025 58.69086109 -94.04562844
v -153.21873074 61.47602668 -93.10269063
v -164.20867243 62.76155646 -93.84658394
v -161.45415145 63.89457538 -95.48023139
v -149.71830802 65.23868335 -92.84717935
v -158.20651837 69.58944149 -95.02344614
v -164.20443727 67.26366733 -95.22145641
v -146.85992988 64.58624392 -91.10008574
v -155.69273498 58.98741508 -93.95587205
v -146.88430978 66.84989072 -90.35477783
v -166.66619259 51.98419161 -92.63045771
v -163.67460067 57.17952025 -92.56074358
v -155.01348627 59.80574284 -93.14720269
v -169.20180472 54.06477072 -94.58034661
v -158.53648262 69.41505296 -93.26763529
v -147.31985229 64.67591258 -91.61013726
v -167.65695170 57.64959396 -96.28476544
v -151.50083327 67.19358088 -93.33141350
v -165.10957328 54.74460147 -95.10228697
v -168.72984228 52.29065547 -93.91689925
v -152.86634713 69.80354060 -92.32907427
v -154.25894472 69.94457252 -92.84254073
v -156.16338473 59.71887754 -94.38439426
v -159.36224230 69.14007745 -95.14290159
v -162.41034230 55.21227534 -91.96535928
v -162.26925865 65.56940360 -93.59481080
v -153.57947425 61.37601076 -93.57637965
v -166.42070969 63.20023883 -94.90800040
v -151.96975447 69.87673977 -92.26322814
v -170.09198222 58.25076869 -95.91926345
v -160.96486771 68.86394917 -95.15382679
v -168.41874803 51.12100527 -94.42674188
v -148.75248346 67.38123211 -92.48277632
v -151.16724844 62.48430762 -92.36776003
v -152.30147673 62.41620581 -92.05928282
v -156.66656043 68.08318041 -91.93758952
v -161.32339704 67.24127525 -95.41360845
v -161.58022091 65.03717198 -95.46216881
v -165.91411130 58.85967609 -93.52027470
v -154.43908858 60.50847863 -93.67517691
v -165.11338071 64.25079816 -94.74404528
v -164.48671861 65.11232157 -94.67323469
v -148.70567473 69.04905377 -91.35566423
f 283 696 656
f 656 696 702
f 684 6 140
f 140 6 283
f 31 696 6
f 283 6 696
f 696 31 447
f 696 447 702
f 656 702 132
f 140 283 620
f 283 656 620
f 519 684 501
f 501 684 140
f 132 568 656
f 132 173 568
f 132 528 173
f 132 513 528
f 513 132 702
f 702 447 779
f 581 447 31
f 620 656 568
f 528 304 611
f 173 528 611
f 757 765 519
f 765 684 519
f 158 684 765
f 304 5 611
f 158 6 684
f 765 285 158
f 735 31 6
f 158 735 6
f 158 285 735
f 702 127 513
f 528 570 304
f 528 513 570
f 581 31 735
f 779 127 702
f 513 127 570
f 570 450 304
f 285 421 735
f 735 421 581
f 447 581 779
f 127 85 570
f 77 581 421
f 581 77 779
f 779 77 671
f 779 671 127
f 85 506 570
f 671 85 127
f 671 494 85
f 568 342 620
f 241 501 140
f 241 140 620
f 568 173 255
f 173 611 255
f 420 758 757
f 420 757 519
f 757 109 765
f 304 450 5
f 109 285 765
f 639 450 570
f 496 285 109
f 285 496 421
f 316 77 421
f 570 506 639
f 496 316 421
f 85 494 506
f 77 389 671
f 77 263 389
f 494 671 389
f 727 241 620
f 727 620 480
f 480 620 342
f 255 516 342
f 342 568 255
f 393 501 241
f 393 519 501
f 393 420 519
f 444 757 758
f 205 109 757
f 205 357 109
f 263 77 316
f 316 368 263
f 516 480 342
f 769 516 255
f 769 255 611
f 758 420 179
f 47 611 5
f 444 205 757
f 5 450 259
f 692 259 450
f 109 357 496
f 450 639 692
f 496 579 368
f 368 316 496
f 368 628 263
f 389 263 628
f 330 494 389
f 494 330 506
f 727 480 199
f 727 623 241
f 199 623 727
f 623 393 241
f 627 516 769
f 769 611 47
f 139 758 179
f 139 444 758
f 247 47 5
f 247 5 259
f 496 129 579
f 506 462 639
f 462 692 639
f 199 321 169
f 480 321 199
f 601 578 623
f 623 578 393
f 273 623 199
f 578 420 393
f 32 627 769
f 578 179 420
f 535 32 769
f 769 47 535
f 139 293 444
f 79 205 444
f 79 249 205
f 249 357 205
f 129 357 249
f 357 129 496
f 129 182 579
f 368 322 628
f 680 389 628
f 330 746 506
f 330 389 680
f 578 601 177
f 177 375 578
f 286 601 623
f 286 623 273
f 333 273 199
f 333 199 169
f 480 754 321
f 516 754 480
f 375 179 578
f 375 139 179
f 613 139 375
f 613 293 139
f 293 79 444
f 249 79 349
f 3 182 249
f 182 129 249
f 103 692 462
f 156 579 182
f 154 368 579
f 506 746 462
f 628 322 680
f 590 330 680
f 286 561 732
f 688 601 732
f 732 601 286
f 561 286 273
f 333 561 273
f 177 688 742
f 688 177 601
f 177 742 45
f 177 45 375
f 627 754 516
f 32 334 627
f 45 613 375
f 544 535 47
f 247 544 47
f 392 79 293
f 692 103 259
f 245 79 392
f 349 79 245
f 349 3 249
f 462 603 103
f 497 579 156
f 497 154 579
f 154 322 368
f 330 523 746
f 590 523 330
f 561 215 171
f 333 215 561
f 215 333 169
f 679 169 321
f 754 679 321
f 627 104 754
f 544 403 535
f 293 613 722
f 544 247 277
f 722 392 293
f 277 247 259
f 722 630 245
f 722 245 392
f 103 667 259
f 349 701 3
f 701 362 3
f 362 182 3
f 603 667 103
f 462 370 603
f 703 370 462
f 154 646 322
f 322 583 680
f 746 703 462
f 583 590 680
f 377 732 22
f 561 63 732
f 63 561 171
f 99 688 377
f 377 688 732
f 7 171 215
f 742 688 99
f 169 679 215
f 679 754 104
f 446 45 72
f 334 104 627
f 446 613 45
f 334 32 535
f 521 722 613
f 700 722 521
f 700 630 722
f 181 277 667
f 259 667 277
f 245 630 209
f 245 209 349
f 701 625 362
f 182 362 156
f 362 685 156
f 685 497 156
f 497 646 154
f 703 228 370
f 646 583 322
f 746 523 703
f 583 618 590
f 22 732 63
f 71 63 171
f 71 171 7
f 374 742 99
f 679 7 215
f 742 374 72
f 72 45 742
f 334 535 741
f 446 521 613
f 403 741 535
f 403 544 488
f 277 488 544
f 630 547 751
f 630 700 547
f 209 630 751
f 751 713 209
f 713 349 209
f 667 44 181
f 667 705 44
f 713 701 349
f 667 603 705
f 705 603 381
f 270 362 625
f 370 381 603
f 362 270 685
f 370 228 381
f 685 646 497
f 703 631 228
f 523 210 631
f 523 631 703
f 646 336 583
f 523 618 210
f 523 590 618
f 433 71 7
f 760 374 99
f 104 433 679
f 433 7 679
f 374 186 72
f 717 104 334
f 595 446 72
f 595 521 446
f 698 521 595
f 240 403 488
f 698 700 521
f 520 488 277
f 520 277 181
f 547 222 751
f 356 751 222
f 356 713 751
f 713 356 772
f 772 701 713
f 772 625 701
f 772 691 625
f 270 95 685
f 336 130 583
f 130 618 583
f 419 377 22
f 22 164 419
f 63 164 22
f 99 377 560
f 374 760 186
f 641 433 104
f 186 595 72
f 595 448 698
f 240 741 403
f 520 240 488
f 698 632 700
f 547 700 632
f 752 520 181
f 632 222 547
f 752 181 44
f 705 744 44
f 772 356 537
f 537 691 772
f 381 744 705
f 691 734 625
f 734 270 625
f 95 270 734
f 631 551 228
f 336 646 685
f 99 560 300
f 560 377 419
f 657 560 419
f 657 419 410
f 410 419 164
f 300 760 99
f 641 104 717
f 448 595 186
f 448 186 348
f 219 717 334
f 698 530 632
f 240 520 38
f 752 38 520
f 135 222 632
f 135 356 222
f 744 752 44
f 381 654 744
f 230 734 691
f 230 308 734
f 654 381 228
f 734 308 95
f 95 308 358
f 95 358 685
f 206 631 552
f 631 206 551
f 685 358 336
f 631 210 552
f 618 130 165
f 165 552 618
f 618 552 210
f 89 560 657
f 533 164 63
f 71 533 63
f 65 71 433
f 476 760 300
f 641 65 433
f 767 760 476
f 767 186 760
f 348 186 767
f 741 219 334
f 248 219 741
f 248 741 240
f 289 698 448
f 530 698 289
f 530 395 632
f 395 135 632
f 112 484 135
f 484 356 135
f 484 537 356
f 752 744 638
f 537 484 260
f 537 260 691
f 260 230 691
f 230 463 308
f 551 654 228
f 308 314 358
f 314 196 358
f 196 336 358
f 336 57 130
f 57 165 130
f 89 310 560
f 560 310 300
f 533 410 164
f 405 641 717
f 405 717 219
f 348 443 448
f 289 448 443
f 530 289 231
f 530 231 395
f 112 135 395
f 634 230 260
f 634 463 230
f 463 48 308
f 314 308 48
f 550 654 551
f 30 196 314
f 196 57 336
f 384 552 165
f 57 589 165
f 533 540 410
f 71 188 533
f 188 71 65
f 476 300 312
f 405 33 641
f 219 88 405
f 240 41 248
f 289 443 231
f 569 41 240
f 231 27 301
f 38 569 240
f 231 301 395
f 484 112 367
f 733 752 638
f 84 638 744
f 84 744 654
f 48 30 314
f 30 587 196
f 552 384 517
f 552 517 206
f 589 384 165
f 410 708 657
f 312 300 310
f 2 89 657
f 235 65 641
f 33 235 641
f 221 767 476
f 221 348 767
f 592 348 221
f 371 88 219
f 371 219 248
f 443 592 729
f 443 348 592
f 443 729 231
f 27 231 729
f 699 38 752
f 699 752 733
f 484 58 260
f 58 634 260
f 84 733 638
f 48 463 59
f 84 654 142
f 550 142 654
f 551 206 550
f 290 196 587
f 196 290 57
f 290 589 57
f 657 708 2
f 540 708 410
f 666 188 65
f 235 666 65
f 773 221 312
f 221 476 312
f 371 248 41
f 395 301 573
f 569 38 699
f 395 573 112
f 112 573 367
f 733 648 699
f 367 58 484
f 48 59 30
f 517 339 206
f 339 550 206
f 517 384 237
f 589 290 384
f 704 2 708
f 188 540 533
f 312 310 773
f 2 117 89
f 221 773 131
f 435 33 723
f 723 33 405
f 88 723 405
f 27 119 301
f 699 12 569
f 220 12 699
f 648 220 699
f 84 183 733
f 634 254 463
f 254 629 463
f 142 96 84
f 587 30 152
f 517 237 74
f 339 517 74
f 540 704 708
f 540 188 124
f 117 310 89
f 773 619 131
f 235 33 435
f 662 743 729
f 662 729 592
f 27 743 119
f 27 729 743
f 23 371 41
f 23 41 569
f 573 301 119
f 12 23 569
f 183 220 648
f 183 648 733
f 634 58 306
f 96 183 84
f 634 306 254
f 463 629 59
f 59 683 30
f 550 96 142
f 96 550 339
f 152 721 587
f 290 237 384
f 117 318 310
f 773 310 318
f 666 124 188
f 178 666 235
f 329 723 88
f 144 221 131
f 329 88 371
f 592 144 662
f 221 144 592
f 101 371 23
f 244 105 573
f 105 367 573
f 105 58 367
f 59 629 412
f 412 683 59
f 683 152 30
f 237 564 74
f 721 290 587
f 290 145 237
f 124 704 540
f 178 207 666
f 235 435 178
f 435 723 451
f 244 573 119
f 711 12 220
f 509 58 105
f 220 183 553
f 509 306 58
f 183 96 643
f 339 439 96
f 439 643 96
f 237 145 564
f 619 773 318
f 117 2 665
f 318 117 665
f 329 451 723
f 101 16 329
f 101 329 371
f 662 252 743
f 244 119 9
f 430 101 23
f 244 9 762
f 711 430 12
f 430 23 12
f 509 326 306
f 339 86 439
f 339 74 86
f 721 580 290
f 580 145 290
f 207 178 435
f 184 207 435
f 184 435 451
f 252 662 144
f 762 190 244
f 190 105 244
f 509 105 190
f 553 372 220
f 190 326 509
f 82 553 643
f 553 183 643
f 254 160 629
f 412 546 683
f 499 74 564
f 716 721 152
f 499 564 145
f 124 615 704
f 318 665 626
f 128 124 666
f 207 128 666
f 291 131 619
f 144 131 291
f 49 184 451
f 24 252 144
f 451 329 16
f 288 743 670
f 119 743 288
f 220 372 711
f 372 553 458
f 82 458 553
f 576 412 629
f 152 683 546
f 74 622 86
f 74 499 622
f 565 499 145
f 774 536 318
f 665 2 704
f 615 665 704
f 124 266 615
f 536 619 318
f 575 266 124
f 24 144 291
f 16 503 49
f 16 49 451
f 669 16 101
f 669 101 430
f 82 643 770
f 306 562 254
f 326 562 306
f 160 576 629
f 716 580 721
f 626 774 318
f 128 575 124
f 619 608 291
f 743 252 670
f 669 503 16
f 669 430 677
f 677 430 711
f 372 706 711
f 770 439 541
f 643 439 770
f 439 86 541
f 576 146 412
f 622 541 86
f 412 146 546
f 546 69 152
f 565 640 499
f 152 69 716
f 716 387 580
f 580 387 145
f 145 387 565
f 774 485 536
f 536 608 619
f 24 291 486
f 486 291 608
f 207 604 128
f 242 604 207
f 252 24 62
f 62 670 252
f 62 40 670
f 288 110 119
f 110 9 119
f 677 711 706
f 396 762 9
f 529 706 372
f 529 372 458
f 555 190 762
f 555 326 190
f 770 431 458
f 82 770 458
f 326 66 562
f 770 541 558
f 562 160 254
f 146 69 546
f 650 608 536
f 485 650 536
f 774 626 740
f 740 626 414
f 414 626 665
f 665 266 414
f 615 266 665
f 604 575 128
f 207 184 242
f 147 62 24
f 328 62 147
f 328 40 62
f 40 288 670
f 110 288 778
f 396 9 110
f 396 258 762
f 762 258 555
f 431 529 458
f 66 326 426
f 562 599 160
f 640 402 499
f 499 402 622
f 622 402 541
f 650 485 251
f 740 485 774
f 511 740 414
f 414 266 482
f 575 482 266
f 21 24 486
f 17 184 49
f 122 40 328
f 40 360 288
f 122 360 40
f 778 288 360
f 503 669 250
f 437 250 677
f 250 669 677
f 706 437 677
f 652 437 706
f 529 652 706
f 431 709 529
f 431 93 709
f 770 93 431
f 555 426 326
f 558 93 770
f 66 599 562
f 558 423 93
f 771 423 558
f 402 771 541
f 558 541 771
f 599 495 160
f 387 716 376
f 650 486 608
f 511 414 325
f 325 414 482
f 575 693 482
f 604 693 575
f 693 604 200
f 604 591 200
f 242 591 604
f 147 24 21
f 17 242 184
f 503 295 49
f 137 295 503
f 250 137 503
f 778 360 777
f 110 778 452
f 437 514 250
f 514 137 250
f 437 150 514
f 452 396 110
f 437 652 150
f 529 709 652
f 709 93 134
f 423 134 93
f 576 160 495
f 376 565 387
f 69 376 716
f 202 650 465
f 465 251 106
f 465 650 251
f 195 486 202
f 485 361 251
f 202 486 650
f 482 518 325
f 195 21 486
f 693 518 482
f 17 591 242
f 295 681 17
f 49 295 17
f 238 360 122
f 258 396 452
f 652 763 150
f 709 763 652
f 709 359 763
f 709 738 359
f 134 738 709
f 299 66 426
f 771 34 423
f 565 383 640
f 640 383 402
f 332 146 576
f 332 571 146
f 565 376 92
f 146 571 69
f 69 571 376
f 376 571 92
f 106 251 36
f 361 36 251
f 361 485 740
f 361 740 511
f 361 511 201
f 511 325 455
f 455 325 518
f 693 351 518
f 212 21 195
f 159 147 21
f 681 591 17
f 122 328 265
f 328 147 265
f 653 295 137
f 531 653 137
f 514 531 137
f 452 778 777
f 150 531 514
f 150 763 472
f 258 649 555
f 299 426 555
f 423 502 134
f 134 502 738
f 402 498 34
f 402 34 771
f 730 257 495
f 383 498 402
f 257 576 495
f 257 332 576
f 571 588 92
f 92 383 565
f 36 361 201
f 511 455 201
f 341 455 518
f 518 351 341
f 364 351 693
f 200 364 693
f 159 21 212
f 147 159 265
f 668 591 681
f 653 681 295
f 238 350 360
f 350 777 360
f 406 653 531
f 452 777 189
f 512 531 150
f 258 452 469
f 472 512 150
f 359 472 763
f 43 464 359
f 43 359 738
f 502 43 738
f 43 502 227
f 34 400 227
f 502 34 227
f 423 34 502
f 66 54 599
f 730 495 599
f 383 213 498
f 574 332 257
f 332 661 571
f 574 661 332
f 571 661 588
f 588 645 92
f 92 645 213
f 92 213 383
f 465 106 98
f 106 36 707
f 185 202 465
f 36 201 391
f 4 195 185
f 185 195 202
f 455 391 201
f 4 212 195
f 159 302 265
f 238 122 265
f 302 238 265
f 350 764 457
f 777 350 457
f 457 189 777
f 649 258 469
f 776 472 359
f 555 649 664
f 464 776 359
f 299 555 664
f 299 505 66
f 505 54 66
f 498 100 400
f 498 400 34
f 599 54 730
f 645 114 100
f 213 645 100
f 213 100 498
f 707 98 106
f 36 391 707
f 331 212 4
f 331 159 212
f 159 331 715
f 200 668 364
f 591 668 200
f 715 302 159
f 681 653 554
f 302 197 238
f 197 350 238
f 764 543 457
f 543 189 457
f 189 739 452
f 43 442 464
f 442 43 227
f 661 429 588
f 574 429 661
f 588 429 114
f 588 114 645
f 465 98 185
f 455 168 391
f 341 351 296
f 364 296 351
f 80 364 668
f 80 668 658
f 658 668 554
f 681 554 668
f 378 197 302
f 197 764 350
f 531 512 406
f 406 512 51
f 452 739 469
f 113 655 649
f 649 655 664
f 400 695 227
f 442 227 695
f 400 100 720
f 114 720 100
f 429 194 114
f 98 438 163
f 438 98 707
f 163 185 98
f 707 644 438
f 4 185 714
f 168 229 391
f 341 168 455
f 80 296 364
f 4 121 331
f 331 121 715
f 302 715 378
f 386 554 653
f 20 197 378
f 764 197 20
f 653 406 386
f 543 663 189
f 739 189 663
f 464 557 776
f 469 113 649
f 442 557 464
f 400 720 695
f 114 275 720
f 505 236 54
f 236 730 54
f 257 730 594
f 574 257 594
f 594 429 574
f 194 429 234
f 438 10 163
f 714 163 264
f 163 714 185
f 229 644 707
f 229 707 391
f 121 4 714
f 427 80 658
f 427 658 532
f 532 658 554
f 715 675 378
f 378 478 20
f 759 406 51
f 512 472 51
f 515 472 776
f 776 557 515
f 442 55 557
f 442 695 749
f 191 275 114
f 194 191 114
f 594 659 429
f 659 234 429
f 309 163 10
f 309 264 163
f 427 298 80
f 386 532 554
f 675 478 378
f 759 386 406
f 116 739 663
f 51 472 515
f 739 113 469
f 596 299 664
f 55 442 749
f 695 720 749
f 644 365 438
f 341 489 168
f 296 489 341
f 296 80 298
f 68 121 714
f 121 292 715
f 478 525 20
f 764 20 543
f 116 113 739
f 55 724 557
f 505 299 94
f 720 275 749
f 365 10 438
f 68 714 264
f 296 298 319
f 675 715 292
f 605 386 759
f 20 687 543
f 663 543 687
f 664 655 596
f 596 94 299
f 749 275 449
f 505 94 143
f 194 470 191
f 191 470 275
f 10 577 309
f 577 264 309
f 365 644 586
f 229 586 644
f 229 168 489
f 167 68 264
f 296 319 489
f 292 121 68
f 525 687 20
f 605 759 170
f 170 759 51
f 724 745 515
f 724 515 557
f 55 749 549
f 470 449 275
f 749 449 549
f 236 505 143
f 236 607 730
f 607 594 730
f 10 365 214
f 324 365 586
f 264 577 167
f 167 253 68
f 229 489 586
f 218 68 253
f 218 292 68
f 327 319 298
f 298 427 327
f 282 675 292
f 675 123 636
f 675 636 478
f 8 532 386
f 404 687 525
f 687 116 663
f 170 51 487
f 116 294 113
f 51 515 745
f 487 51 745
f 194 415 470
f 214 577 10
f 586 489 353
f 489 319 353
f 597 327 427
f 427 532 597
f 532 8 597
f 282 123 675
f 404 116 687
f 294 416 113
f 655 113 416
f 655 388 596
f 617 143 94
f 236 143 76
f 76 607 236
f 607 456 594
f 456 659 594
f 353 324 586
f 218 504 292
f 504 282 292
f 379 123 282
f 597 8 621
f 636 525 478
f 363 404 525
f 605 8 386
f 116 404 294
f 745 724 61
f 416 388 655
f 596 617 94
f 234 624 194
f 415 194 624
f 642 607 76
f 642 456 607
f 545 167 577
f 686 214 365
f 324 686 365
f 305 353 319
f 504 218 585
f 157 136 327
f 157 327 597
f 621 157 597
f 605 346 8
f 487 428 170
f 61 724 524
f 470 567 449
f 449 567 549
f 470 415 174
f 50 624 234
f 456 606 659
f 234 659 50
f 50 659 606
f 577 214 545
f 686 320 214
f 167 728 253
f 167 545 728
f 319 327 136
f 8 346 621
f 605 170 428
f 278 428 487
f 487 745 278
f 61 278 745
f 55 281 724
f 281 55 549
f 320 545 214
f 211 728 545
f 467 149 324
f 324 353 467
f 319 136 305
f 379 282 504
f 123 710 636
f 636 710 525
f 404 363 593
f 404 593 294
f 593 416 294
f 281 524 724
f 596 388 548
f 596 548 617
f 76 56 642
f 606 456 56
f 642 56 456
f 397 211 545
f 425 686 324
f 14 320 686
f 149 425 324
f 353 91 467
f 218 253 728
f 682 136 157
f 621 682 157
f 710 363 525
f 346 605 428
f 549 637 281
f 548 267 617
f 567 637 549
f 470 174 311
f 470 311 567
f 76 225 56
f 56 225 338
f 338 606 56
f 373 606 338
f 373 50 606
f 415 624 174
f 397 545 320
f 686 425 14
f 353 305 91
f 136 303 305
f 416 408 388
f 524 563 61
f 524 281 563
f 408 548 388
f 563 281 637
f 287 267 548
f 267 143 617
f 50 354 624
f 624 354 174
f 320 14 397
f 218 728 224
f 504 585 379
f 673 123 379
f 673 710 123
f 226 346 428
f 61 208 278
f 416 593 408
f 232 287 408
f 408 287 548
f 567 311 411
f 411 637 567
f 143 475 76
f 76 475 225
f 311 174 600
f 29 50 373
f 354 50 29
f 174 354 600
f 397 14 28
f 28 14 425
f 728 211 224
f 585 218 224
f 585 673 379
f 417 269 710
f 269 363 710
f 491 346 226
f 363 737 593
f 737 775 593
f 226 428 278
f 226 278 208
f 775 408 593
f 61 46 208
f 563 46 61
f 46 563 609
f 637 445 563
f 637 411 445
f 267 475 143
f 411 311 600
f 338 225 731
f 600 354 60
f 731 373 338
f 354 29 60
f 397 28 753
f 224 211 67
f 766 673 585
f 585 224 766
f 673 417 710
f 346 682 621
f 269 737 363
f 208 390 226
f 408 775 232
f 563 445 609
f 475 18 225
f 731 225 18
f 373 233 29
f 233 60 29
f 539 28 425
f 539 425 149
f 67 211 397
f 52 539 149
f 52 149 467
f 67 344 224
f 91 305 317
f 303 317 305
f 460 303 136
f 136 682 460
f 337 417 673
f 471 155 417
f 417 155 269
f 226 413 491
f 737 269 155
f 413 226 390
f 737 274 775
f 424 390 208
f 208 46 424
f 274 232 775
f 445 42 609
f 267 602 475
f 411 42 445
f 602 18 475
f 731 233 373
f 67 397 753
f 344 766 224
f 175 317 303
f 460 175 303
f 491 682 346
f 276 274 737
f 440 424 46
f 534 232 274
f 440 46 75
f 609 75 46
f 287 272 267
f 272 602 267
f 411 81 42
f 411 600 81
f 600 60 81
f 539 19 28
f 52 467 91
f 126 317 175
f 566 673 766
f 566 337 673
f 337 471 417
f 155 441 737
f 274 276 534
f 534 90 232
f 609 42 75
f 90 748 232
f 748 287 232
f 287 748 272
f 148 81 60
f 19 753 28
f 52 660 539
f 317 52 91
f 398 413 390
f 276 737 441
f 276 441 468
f 468 534 276
f 731 18 111
f 111 233 731
f 233 401 148
f 233 148 60
f 753 380 67
f 172 344 67
f 344 526 766
f 175 460 473
f 682 491 261
f 198 471 337
f 261 491 413
f 471 510 155
f 390 424 398
f 243 602 272
f 233 111 401
f 126 52 317
f 460 682 473
f 566 697 337
f 198 337 697
f 510 471 198
f 413 118 261
f 413 398 118
f 510 352 155
f 352 441 155
f 736 614 534
f 614 90 534
f 584 748 90
f 748 584 272
f 148 432 81
f 243 18 602
f 108 380 753
f 108 753 19
f 380 172 67
f 539 108 19
f 172 187 344
f 187 526 344
f 126 175 176
f 766 526 566
f 473 176 175
f 440 398 424
f 352 468 441
f 440 75 180
f 534 468 736
f 42 345 75
f 584 90 614
f 81 345 42
f 35 345 432
f 81 432 345
f 610 271 432
f 584 243 272
f 243 382 18
f 382 111 18
f 401 284 148
f 111 582 401
f 755 660 52
f 126 755 52
f 566 526 409
f 409 697 566
f 261 473 682
f 118 483 261
f 198 64 510
f 118 398 161
f 161 398 307
f 307 398 440
f 352 418 468
f 180 307 440
f 180 75 345
f 35 432 271
f 148 284 610
f 148 610 432
f 382 559 111
f 712 108 539
f 712 539 660
f 473 261 176
f 697 64 198
f 64 490 510
f 352 510 633
f 633 418 352
f 736 468 418
f 556 243 584
f 284 401 582
f 542 284 582
f 559 582 111
f 108 508 380
f 508 108 719
f 172 380 508
f 187 409 526
f 454 697 409
f 483 176 261
f 490 633 510
f 651 307 180
f 35 492 345
f 556 366 243
f 382 243 366
f 755 712 660
f 394 172 508
f 73 712 755
f 385 755 126
f 176 385 126
f 635 64 697
f 64 635 490
f 204 483 118
f 204 118 161
f 418 633 141
f 161 307 651
f 522 736 418
f 180 345 355
f 355 345 492
f 614 556 584
f 690 582 559
f 280 719 108
f 280 108 712
f 153 712 73
f 394 187 172
f 217 409 187
f 385 176 216
f 635 697 454
f 141 633 490
f 522 193 736
f 614 736 193
f 355 651 180
f 35 674 492
f 674 35 271
f 284 78 610
f 366 761 382
f 382 761 559
f 690 559 761
f 542 582 690
f 647 508 719
f 280 712 153
f 394 217 187
f 217 454 409
f 483 216 176
f 474 216 483
f 635 750 490
f 474 483 204
f 490 616 141
f 522 418 141
f 78 572 610
f 479 366 556
f 761 366 479
f 542 78 284
f 647 719 527
f 280 527 719
f 335 73 755
f 385 335 755
f 203 216 474
f 750 616 490
f 204 161 651
f 193 151 614
f 151 556 614
f 674 725 492
f 572 271 610
f 674 271 572
f 690 78 542
f 508 647 394
f 138 280 153
f 153 73 335
f 217 394 256
f 203 335 385
f 385 216 203
f 726 203 474
f 635 454 750
f 651 355 70
f 522 246 193
f 492 70 355
f 151 102 556
f 166 102 151
f 138 527 280
f 138 153 335
f 262 335 203
f 481 217 256
f 454 217 481
f 474 1 726
f 204 1 474
f 70 492 725
f 102 13 556
f 13 479 556
f 761 689 690
f 479 689 761
f 689 466 690
f 690 466 78
f 647 340 394
f 647 527 340
f 343 527 138
f 676 138 335
f 340 256 394
f 256 340 39
f 262 203 726
f 750 454 434
f 616 750 434
f 204 672 1
f 651 672 204
f 616 407 141
f 407 522 141
f 672 651 70
f 246 151 193
f 78 125 572
f 125 674 572
f 725 674 125
f 15 340 239
f 239 340 527
f 239 527 343
f 335 97 676
f 39 340 15
f 97 335 262
f 481 434 454
f 1 507 726
f 756 616 434
f 756 407 616
f 70 436 672
f 407 246 522
f 246 598 151
f 493 725 279
f 725 125 279
f 78 459 125
f 466 689 223
f 466 223 459
f 466 459 78
f 434 481 678
f 507 262 726
f 672 507 1
f 436 115 672
f 70 493 436
f 598 166 151
f 725 493 70
f 166 268 102
f 268 13 102
f 133 223 369
f 13 369 479
f 479 369 689
f 689 369 223
f 676 343 138
f 192 676 97
f 39 481 256
f 262 192 97
f 115 507 672
f 598 246 25
f 436 323 115
f 436 493 323
f 598 268 166
f 279 37 493
f 268 369 13
f 459 133 37
f 459 37 279
f 459 279 125
f 223 133 459
f 343 87 239
f 15 694 39
f 15 239 87
f 481 39 678
f 718 192 262
f 718 262 507
f 678 756 434
f 115 83 507
f 756 461 407
f 407 461 25
f 407 25 246
f 133 369 268
f 676 315 343
f 343 315 87
f 15 87 694
f 315 676 192
f 694 678 39
f 694 162 678
f 756 678 162
f 756 162 461
f 315 477 87
f 477 315 612
f 192 612 315
f 162 694 477
f 83 115 313
f 323 313 115
f 493 500 323
f 747 598 25
f 598 747 268
f 133 297 37
f 493 37 500
f 500 37 297
f 87 477 694
f 162 477 120
f 162 120 399
f 83 718 507
f 399 461 162
f 313 323 500
f 11 297 133
f 747 347 268
f 347 11 268
f 268 11 133
f 477 768 120
f 768 477 612
f 768 612 107
f 399 25 461
f 399 538 25
f 25 538 747
f 538 347 747
f 53 120 768
f 192 107 612
f 53 768 107
f 53 107 453
f 718 107 192
f 718 453 107
f 120 53 399
f 83 453 718
f 399 53 422
f 83 26 453
f 538 399 422
f 313 26 83
f 11 422 26
f 500 26 313
f 297 11 26
f 297 26 500
f 347 538 422
f 347 422 11
f 422 53 453
f 26 422 453