# https://github.com/mikedh/trimesh
v -56.82304410 -141.10651755 43.98391004
v -57.37152576 -159.97012668 56.86560698
v -56.90733757 -140.31382409 39.69006831
v -54.30423280 -144.20440206 39.51247940
v -56.57997556 -145.12250341 42.39200902
v -55.93329413 -155.86003590 49.08938593
v -60.70207747 -160.29208607 56.88729554
v -55.99470629 -157.58065191 51.21601120
v -55.61823496 -154.31862874 52.72299896
v -61.09032078 -152.33060030 53.61455194
v -56.14016513 -154.76817332 53.93870162
v -56.80121660 -160.66313648 53.89144504
v -54.28125332 -146.02943086 46.07223840
v -58.67402606 -160.44081267 53.79712941
v -55.61446807 -147.85164371 50.68791012
v -54.61389959 -148.63336475 43.24594792
v -54.22717752 -141.36154164 41.29290949
v -57.62679479 -159.82896447 52.92558045
v -56.82282740 -160.94810871 55.76015431
v -55.64600433 -141.40338616 45.66425020
v -61.45491987 -150.84495718 51.93110619
v -62.60918810 -153.73730238 51.96427314
v -61.36380666 -159.87725138 56.74431501
v -55.20991675 -151.96812786 51.38822237
v -56.24296233 -147.15368869 50.37170937
v -54.75552430 -152.73473105 46.70390079
v -55.81872715 -141.24133068 39.34332596
v -56.53849119 -160.58005376 55.28993416
v -54.43213242 -151.38591680 45.26498145
v -60.86110531 -149.58179744 49.07213350
v -56.79750283 -155.93104333 49.02333832
v -56.60581374 -154.80566874 48.00286020
v -60.68746413 -159.80873350 57.05997347
v -54.15434097 -142.15625160 41.23438462
v -53.98758988 -143.24308435 39.82639892
v -56.23416183 -140.80343167 44.23985766
v -59.24396717 -161.80484663 56.21747609
v -58.60188492 -144.82057771 45.63860091
v -55.60598529 -139.98445475 39.38004541
v -55.16747599 -144.64072884 48.21156707
v -61.01731916 -149.24644689 49.45669034
v -58.28559738 -149.12156700 46.51449132
v -55.40315409 -145.79638743 49.10909842
v -58.00195745 -150.20367916 52.66327165
v -56.84415385 -151.55420909 46.32370158
v -58.94149842 -151.73977916 53.72596724
v -60.17736308 -159.45110958 53.71239017
v -54.20582747 -150.13294630 45.58034575
v -55.34837328 -140.91410683 44.79352146
v -54.24795782 -143.58561321 43.64397058
v -54.17473970 -141.96806098 39.87827668
v -63.03864169 -153.22536181 52.83304243
v -62.14619260 -152.91236311 53.53053234
v -55.53648014 -155.77984506 50.88228140
v -61.09259340 -159.25325504 54.27075030
v -57.07739383 -160.38758688 56.45777702
v -54.19378824 -144.49196764 43.60452402
v -58.57036964 -150.97878498 53.17412497
v -61.58848630 -150.67689816 50.01560836
v -53.90490106 -144.46043286 39.68045675
v -61.27363112 -159.13819828 56.87364600
v -57.90363109 -142.33869434 44.24617088
v -57.14195186 -161.59543549 54.50137337
v -60.65123207 -158.71736094 56.96504374
v -59.76442406 -159.36260594 57.15102205
v -55.47501161 -154.85678626 48.59669073
v -58.61567157 -157.52004253 56.80769403
v -60.00464743 -156.04130952 56.27743149
v -56.78530904 -158.60727395 56.32568649
v -57.23158386 -147.30797541 44.57139459
v -54.98790051 -139.69330291 40.79290656
v -54.76474656 -147.07971729 49.17773140
v -55.33825023 -146.33408969 42.11863667
v -59.62893904 -154.58248435 55.50181593
v -57.26263569 -141.98676111 40.63290234
v -58.46487619 -159.18949959 52.62418928
v -55.78848132 -151.53016977 52.46422630
v -56.77021458 -159.73456028 52.78837934
v -55.81479393 -143.92646590 47.86526692
v -54.79014287 -142.16986807 45.91158433
v -58.36987005 -143.75456137 44.10591699
v -55.65593551 -150.65898358 51.99134411
v -54.89544015 -148.79725078 50.10164628
v -54.64425107 -142.82317028 46.16803838
v -56.76968055 -159.83634885 56.23655197
v -56.91387078 -143.92676895 47.49025050
v -54.34339580 -148.45516931 43.05944491
v -56.54538357 -160.62880100 54.20308698
v -57.16426716 -140.60961603 42.33403031
v -55.32741324 -153.68986209 46.83874291
v -58.28760139 -159.39206467 57.07581233
v -54.00593651 -146.41614636 42.86152111
v -57.61395209 -140.82360691 41.85515095
v -56.95343946 -155.20378226 55.11373513
v -63.23505981 -155.47018190 54.66697700
v -56.27970976 -139.57102907 40.83503403
v -55.71677779 -156.60502368 50.79197534
v -56.65867949 -143.07888636 40.74502860
v -56.00406028 -143.01974477 39.98228939
v -58.59971489 -155.89866207 56.15540030
v -59.92483387 -157.67933307 56.84833601
v -56.40079511 -140.50792354 43.26520493
v -57.24722858 -158.22154924 56.60919046
v -61.10442462 -150.84800217 52.22019432
v -59.98356599 -156.54781241 51.38005143
v -62.80636449 -155.72057243 53.39360410
v -55.85257479 -157.36045196 51.64358855
v -60.21159075 -148.76958173 50.23297770
v -58.48569280 -146.28956175 48.44330978
v -56.87776657 -154.37069922 47.77126586
v -56.31414445 -158.16587683 55.28364121
v -57.82466509 -160.90621398 56.78460596
v -55.49165389 -155.10237431 49.60557751
v -55.09651935 -140.17445491 42.63228616
v -55.75010865 -156.44382915 52.92511883
v -61.95431002 -153.53502818 51.23899180
v -57.49028549 -141.04242161 40.45526301
v -60.39325988 -160.31880195 54.57525572
v -54.94584286 -141.21333980 44.65756136
v -62.84689974 -153.36502326 53.29887343
v -55.02384302 -150.22726281 50.75502205
v -61.80205023 -156.97371575 53.21515354
v -55.26104725 -154.14622200 47.77950894
v -58.17363694 -155.16399383 55.70440465
v -59.20307106 -155.28526060 55.89840864
v -58.78607098 -146.98776233 49.09818961
v -56.10045224 -153.73055371 53.53417428
v -57.71282930 -151.99398862 53.79771615
v -57.52333595 -161.40829977 56.01936442
v -62.41556183 -154.44062154 54.55212098
v -54.06251905 -143.18692309 39.37372373
v -63.01521811 -157.40550151 55.72168680
v -63.31846612 -156.38008834 55.06169161
v -56.38588580 -159.44161933 52.93716937
v -58.10198162 -153.75487770 54.88467154
v -56.62376610 -150.31751301 52.58141138
v -56.13569380 -159.12454529 53.89319654
v -62.39391397 -156.44242470 53.44599987
v -59.19915593 -153.17132140 48.82581658
v -55.13337799 -139.63252751 41.38771666
v -58.04142465 -144.94948614 47.30902369
v -57.31415431 -157.53250359 50.63910005
v -62.14146083 -151.35674159 51.85064335
v -56.15508352 -157.61607965 54.65278308
v -59.72242619 -160.62699305 57.01312376
v -55.27836784 -154.07153801 50.91022764
v -54.67670698 -145.74570496 48.43682857
v -59.06310229 -156.77927710 50.91968388
v -55.70303323 -155.63850004 49.30917765
v -58.70549750 -152.72303699 48.25444909
v -53.84055226 -144.63934316 40.29758106
v -59.59976538 -147.40535958 47.23778099
v -53.89729205 -145.20843807 40.30664912
v -59.14574921 -155.12089965 49.71416736
v -57.19078724 -153.14187573 47.28710996
v -56.12036134 -158.16258850 51.87898955
v -54.06795531 -148.09523248 43.10235900
v -58.38462827 -145.74419931 45.01317537
v -56.62433735 -144.33558825 47.96722380
v -63.11545268 -153.91974717 52.71511958
v -53.98774021 -145.45553142 41.74978349
v -54.83965367 -139.75152040 39.75428566
v -54.05002065 -149.33955103 44.56500551
v -57.04286782 -156.75121364 49.80388583
v -54.17446097 -148.31469406 43.03046075
v -62.07004246 -157.88042233 56.37290224
v -62.41330105 -152.95242787 51.46595950
v -59.67067572 -151.87754555 48.72656692
v -56.95634107 -139.72630755 40.33811366
v -57.36163225 -140.17225001 40.21073945
v -55.94915419 -157.99020294 52.99924460
v -56.05234126 -149.36257438 44.63743873
v -55.80380049 -154.10960939 53.13634476
v -55.16575774 -152.76229315 45.99743135
v -54.31337281 -142.67613720 43.44945607
v -58.55629901 -144.85354472 46.12575323
v -54.74525244 -146.47914818 41.78705211
v -56.25360017 -159.68307530 53.54048361
v -56.66501962 -146.46855490 43.44783583
v -60.14989027 -149.16272544 48.20419469
v -58.02037827 -141.82762862 43.00319024
v -55.55253904 -145.38629449 41.54035740
v -61.72289093 -151.91314720 50.45262159
v -57.70504625 -141.49497501 43.12221233
v -55.29256129 -154.33403256 49.87221589
v -56.59608007 -157.06933677 50.04277756
v -54.85174244 -152.77699937 47.76618281
v -54.93598444 -140.28774692 39.31363156
v -61.83691490 -155.64506076 52.31472284
v -54.65308778 -151.86142319 45.39354551
v -59.40103551 -159.22980699 53.10618478
v -54.13430856 -145.58017455 43.51014878
v -54.09083074 -149.11231473 43.80978917
v -60.71252555 -148.91912223 49.64323854
v -60.94888354 -158.26196561 53.39418611
v -55.07319317 -147.67834614 49.94619753
v -55.04569597 -148.50426693 43.38810260
v -57.79774014 -158.27292482 56.88545523
v -62.49169677 -156.53013743 55.71334241
v -59.05659445 -161.28584501 56.70029962
v -62.86769231 -155.49098017 55.00350540
v -54.86873755 -149.40447535 43.83426048
v -62.66623587 -154.57565203 52.47522460
v -58.12673043 -143.65593213 43.46019252
v -54.92693366 -152.15307135 49.06111156
v -59.72037138 -159.98184939 57.18802479
v -56.17117045 -145.24547588 48.84319284
v -56.14880477 -149.23934669 51.77675986
v -58.18348241 -143.75894915 45.55540199
v -57.74631893 -150.86103309 53.09814664
v -54.30379209 -144.63431763 46.32716354
v -59.52840382 -153.78865680 54.98986009
v -57.54135232 -146.54795059 44.48554182
v -58.35757782 -153.27164466 48.19720358
v -54.92641783 -151.33311413 50.07169557
v -56.04020100 -157.99954884 52.27818350
v -61.21737768 -157.84190419 56.69940537
v -57.17186849 -159.55190029 52.58663004
v -56.62650094 -140.20145339 42.12180660
v -56.04890229 -151.17495563 52.59712079
v -62.05093056 -159.00005020 56.45066770
v -55.31076380 -143.51556038 47.54036322
v -63.21291019 -155.93042845 54.33809489
v -56.07502842 -144.28402095 41.12912170
v -57.13883516 -160.26158941 53.34798884
v -58.23072288 -157.02258179 56.57209038
v -57.90282713 -142.14439468 42.04661248
v -54.31673779 -144.34793746 45.40857264
v -53.91913796 -145.78570496 41.53060069
v -59.98660902 -153.47473190 49.55570129
v -55.25175949 -144.03100265 40.11371720
v -55.74958380 -142.45700313 39.49279925
v -56.41674246 -155.79424598 54.88058056
v -54.58743521 -147.17096393 48.82197859
v -54.48884463 -144.75779234 47.40508468
v -54.62094760 -152.26548813 45.87012005
v -54.08567826 -143.93627944 41.58004793
v -61.12126132 -153.38448124 50.39497819
v -56.72449475 -139.66532875 39.80844464
v -56.03819724 -155.75793671 48.79476647
v -54.93268164 -151.68959671 45.26103539
v -59.28586740 -156.63597770 56.56261779
v -58.76454089 -153.73877250 54.97100678
v -57.54286190 -161.75611090 55.17243255
v -56.83561632 -161.28613209 54.78202434
v -54.97118017 -152.97511484 48.46034200
v -54.70816129 -150.36379478 44.33780403
v -56.22539547 -158.94598244 54.86451979
v -54.91265026 -140.08960718 41.86654623
v -56.46565632 -139.49407251 40.23184724
v -58.61614935 -154.35135423 48.89383353
v -60.92268370 -153.05900456 54.18383118
v -59.68615715 -158.44474942 57.04172229
v -57.48513920 -155.98332245 55.82287221
v -61.99551451 -154.02274553 54.51450980
v -58.79815488 -158.61640314 57.08597591
v -57.57499457 -141.11267078 42.50613309
v -55.33488464 -154.63322790 48.94574425
v -56.77720709 -145.61004473 49.00758744
v -58.96047317 -145.94734719 46.32512845
v -56.22329707 -157.84476284 51.07291991
v -57.31848034 -152.83987758 54.10151532
v -58.41959518 -143.75570345 44.95391956
v -61.36410829 -149.91499508 49.76554595
v -62.57535281 -158.52567703 55.59094541
v -55.83925677 -140.28267358 43.34313094
v -53.99780697 -147.06526545 42.31756590
v -54.44258557 -140.61058133 41.26494610
v -54.68867829 -147.65169487 42.60505315
v -58.91791140 -145.89509184 46.90352731
v -56.24044633 -156.99685627 50.04659247
v -56.52841851 -141.50890575 39.62641692
v -54.28291032 -145.17232818 46.40661905
v -55.81398651 -142.52166307 46.81283995
v -58.54830230 -144.94947610 44.99643430
v -58.86632705 -146.31448737 47.90116306
v -54.36374759 -145.42380688 46.97860138
v -63.30448234 -154.93697139 54.08071176
v -58.03074357 -149.27463171 51.97483393
v -57.28473885 -147.45251912 50.44978996
v -55.22134482 -147.20624530 49.90169507
v -54.27200269 -146.44141117 41.42353322
v -55.17742284 -148.61168973 50.59166023
v -55.87617388 -139.40009155 40.32157295
v -62.52520225 -151.95681841 51.29974439
v -62.01942664 -159.56444385 55.83014484
v -57.71747257 -145.13652969 47.93945162
v -54.95750718 -139.63396857 40.14792513
v -56.01157609 -157.60957051 53.88253871
v -57.88010395 -158.32512668 51.61489933
v -62.05404818 -150.77244188 50.67342806
v -54.27664236 -142.54675955 42.69168256
v -61.94928087 -156.01011554 55.71614184
v -56.37978585 -158.91759575 55.74677154
v -61.64149960 -150.31459460 50.96653454
v -56.15196221 -151.52354179 45.86157846
v -55.93240099 -142.03123083 46.30353638
v -57.94011057 -141.46312976 42.03068494
v -58.07404654 -142.26694844 42.57797654
v -58.24826132 -148.07059691 45.99677271
v -59.31842839 -148.19484391 50.22918729
v -54.40927140 -146.05102665 47.92258817
v -55.80677234 -154.15821124 47.24270077
v -60.06340287 -161.20021634 55.20777385
v -57.46990676 -140.31956483 40.94706627
v -56.03869010 -146.04799595 49.53306983
v -55.21293685 -140.52598148 43.79582753
v -57.96896309 -155.98725295 56.02573871
v -59.10732059 -149.58925852 51.99807403
v -56.34604959 -150.86997618 52.68364675
v -55.42737855 -139.36192801 39.76184806
v -54.19910110 -142.17878431 39.38035608
v -55.13531075 -149.75506334 50.90920964
v -54.23564381 -150.97590406 45.36377231
v -56.92367117 -156.34796691 55.64915771
v -55.00308731 -153.21078901 46.44024179
v -56.70655641 -159.06629400 52.08781948
v -57.11936698 -143.49649782 46.90261738
v -54.94581425 -143.03978263 39.27310400
v -54.11352511 -142.57233539 40.42312051
v -62.99172229 -156.41916193 54.18072044
v -61.63702794 -149.91101780 50.41341282
v -60.56875678 -152.26406045 49.62631223
v -57.98756976 -161.67080245 54.79605272
v -55.69601160 -139.82014573 42.01264604
v -60.29881005 -150.54274217 48.79141029
v -54.54132743 -142.26390587 44.58474359
v -58.44672352 -143.87391752 44.62751302
v -58.27267041 -142.62249113 43.56838006
v -63.15518180 -157.04691238 54.86394796
v -61.27949055 -154.72890444 55.28031231
v -63.16183747 -154.97210581 53.44806890
v -54.41702503 -150.31219090 44.28323633
v -61.54787779 -154.80032314 51.49165592
v -61.04622055 -156.07222828 51.89115557
v -56.24007519 -147.24417348 43.50526280
v -57.76110947 -145.43922487 43.98714457
v -56.61720904 -146.69767223 49.96205865
v -58.72852405 -158.37838600 52.04742868
v -61.62119952 -160.07635860 56.27449064
v -60.16738504 -149.63305628 51.54813032
v -55.69939694 -155.05077294 48.21020740
v -55.21020737 -140.68772399 39.22952036
v -54.83966978 -144.67097063 47.95827702
v -55.31366258 -154.06609378 47.35690085
v -56.28747285 -159.79212314 54.90921370
v -54.08937152 -148.16107275 44.50582514
v -58.57709069 -161.71617217 54.93184578
v -54.64328864 -144.05158999 47.32163527
v -56.38105952 -158.46740649 51.51220358
v -55.81150961 -149.81929978 51.86916837
v -59.21610684 -157.95112617 51.98672900
v -59.62794372 -160.18475633 53.95789270
v -62.46404122 -157.38233189 54.15710326
v -57.63424394 -140.69297746 40.78320516
v -60.66789354 -149.04935116 50.16557181
v -55.76221771 -156.63124683 51.98274041
v -58.84865606 -146.00280465 45.88731519
v -63.30947964 -154.06382122 53.29483127
v -57.44810311 -142.24597409 41.17993516
v -57.56235402 -146.79013294 49.75033230
v -60.27437199 -155.91046943 51.11187380
v -58.17450422 -146.76596251 49.34903584
v -55.72875697 -146.81368612 50.04342215
v -59.89624096 -157.64301078 52.16432791
v -62.74564280 -158.28087175 55.83338106
v -55.18526699 -154.00106478 49.24757942
v -54.96289210 -145.54027117 48.62411873
v -55.77640623 -148.25611422 43.74113257
v -59.62315309 -161.84399206 55.82568705
v -55.72979532 -154.70918406 47.91684403
v -53.99951419 -147.30747327 42.89807915
v -56.61721931 -158.08269651 51.06610399
v -57.27745884 -153.87509348 54.65176304
v -57.53490725 -143.49558294 42.35125999
v -54.98814680 -143.56201468 47.43746173
v -55.28455533 -141.85071113 46.10718262
v -58.22015518 -156.14942300 49.80803955
v -56.89577500 -152.06701098 53.56502827
v -59.26266470 -149.12066208 51.37997864
v -60.34432055 -153.43039501 54.59834333
v -60.61949522 -156.11389436 56.22875596
v -62.37341761 -153.73962886 54.07386595
v -55.73874208 -140.69388519 44.51266814
v -54.53896261 -148.09462733 48.89207199
v -56.48326749 -157.02993331 55.37934826
v -56.66283794 -143.96617912 41.50541301
v -55.28192253 -153.01829337 51.47840954
v -56.78373632 -142.03611676 40.02417747
v -55.82276862 -153.71856609 46.85791712
v -54.46228487 -141.33697795 39.28148048
v -57.52877266 -150.59469272 46.45289074
v -54.76460349 -149.53806653 49.82974659
v -54.19245144 -143.43688848 42.49783382
v -60.04677103 -147.89698498 48.36312226
v -54.45867516 -144.07390157 46.64200365
v -58.53420987 -155.34569454 49.43610149
v -53.90789747 -144.77833278 40.93800802
v -54.58031237 -140.53891264 39.48795061
v -55.69418622 -156.11545666 50.02540308
v -57.44605028 -154.60240864 55.14452760
v -58.16880562 -142.58313522 44.03772214
v -62.56761906 -158.06622861 54.88731769
v -57.38030811 -142.09925248 44.69285040
v -54.72378947 -141.32789798 44.10813666
v -58.04295933 -146.21140508 44.84205854
v -57.71812172 -156.59747724 49.91548491
v -60.77524017 -150.15564988 49.12718167
v -57.83811109 -154.24550086 48.27922374
v -59.20832176 -147.13122351 48.75027540
v -59.19611528 -161.91766847 55.64567137
v -57.88822955 -143.50836430 45.77487268
v -58.63082093 -160.02879010 57.08889605
v -55.41033150 -140.02133342 42.59058622
v -61.73259947 -159.40710162 55.14743352
v -57.07159512 -143.27792100 41.47126015
v -55.60885608 -148.50731390 51.05585895
v -54.41624842 -141.71013331 42.70399223
v -55.83212750 -141.17639534 45.28990325
v -57.37215421 -155.70845911 49.02965767
v -58.60280689 -147.14136800 45.94688573
v -54.31474236 -144.04416071 44.55333200
v -57.54818206 -143.29007785 46.14080988
v -54.63358103 -149.32264833 48.97651212
v -56.65480058 -152.88005630 53.74287892
v -55.95155831 -147.84067535 50.88163518
v -57.21552881 -140.61994764 39.93021296
v -55.30239656 -139.82275170 41.93458253
v -59.12748311 -152.67660121 54.32544554
v -56.15225348 -139.99296160 42.13037788
v -55.40567547 -151.17421188 45.19677347
v -54.50774971 -142.91546078 45.71904508
v -57.21642950 -145.83906862 43.62180616
v -62.57835478 -152.56496648 52.78307329
v -56.54617627 -142.27991629 46.06970216
v -57.71786782 -160.62822874 53.71514442
v -61.42226816 -151.08957158 49.91756837
v -56.66788037 -149.41529300 52.05382959
v -54.39600245 -142.86754213 44.50942365
v -58.94738397 -150.39703312 47.56718188
v -57.01365949 -158.60707467 51.58375549
v -54.36115901 -141.07610731 39.78156827
v -60.49742057 -149.44244577 51.05486024
v -55.97104470 -156.93862827 54.03600667
v -56.24211850 -153.71225309 47.02408207
v -54.92389708 -150.71823923 50.37177537
v -59.52644585 -150.48686222 52.64246777
v -62.70330835 -152.60511338 51.69921737
v -60.54589289 -148.67191423 48.63562919
v -57.55672340 -154.98734535 48.60512972
v -61.55692657 -156.64005920 56.15862836
v -57.79530465 -147.68947582 45.34309652
v -55.69888329 -152.87006143 52.77966388
v -56.19170765 -158.76555028 52.73139411
v -55.60029749 -139.49924584 41.08474060
v -54.45773356 -143.00725754 45.27066518
v -54.64356877 -140.77300648 42.39161163
v -57.98706067 -147.85098222 50.62973348
v -56.12001275 -155.86961573 54.39860027
v -54.63600272 -140.21898995 41.11311590
v -58.78227904 -150.15802912 52.53996957
v -60.72268955 -154.78646222 50.70992940
v -57.31156168 -149.02015862 45.56112879
v -54.89602107 -144.99618579 40.63870734
v -59.21606054 -156.15288731 50.46121168
v -55.45359504 -152.73813018 52.12220471
v -58.15395673 -148.52374029 51.29001559
v -54.25555928 -147.38685082 42.22348236
v -58.17159063 -161.01115586 54.16549428
v -60.55591655 -154.47019925 55.29197057
v -57.12935894 -148.53484723 51.48725682
v -61.27057465 -159.93755206 55.14916363
v -55.36383494 -151.37080414 51.72762056
v -58.63728013 -151.17655299 47.58092146
v -57.34286846 -145.62651967 48.70467808
v -55.98240166 -156.76820988 50.07376096
v -55.50757066 -144.65985960 48.38789474
v -58.45573964 -145.12140618 46.90080026
v -61.17808186 -151.73741189 53.05529778
v -54.44780152 -151.65781425 46.14934320
v -58.22616237 -161.81149182 55.87712502
v -57.06844673 -157.43280364 56.18497487
v -60.14248634 -150.39724384 52.35796893
v -55.35120328 -139.56418073 39.51103432
v -56.26578139 -155.10702754 48.21483340
v -60.56400170 -154.32833406 50.34520061
v -63.04635574 -154.44550997 54.11679188
v -54.67065171 -142.02257412 44.95122419
v -54.25383730 -145.56638913 45.30037561
v -61.79241691 -158.58197158 54.39610504
v -56.41525540 -154.35695517 54.16091152
v -54.19632112 -147.95210423 45.57348324
v -60.29484416 -161.25550881 56.38216218
v -54.99603477 -140.63365394 43.58076261
v -55.47529373 -154.29176000 52.15877876
v -59.92215197 -148.12726215 49.58247717
v -54.64378379 -151.35609132 47.55240513
v -62.97917575 -153.22486337 52.27498770
v -54.86608434 -140.49698562 42.81473571
v -55.89661720 -157.16503113 50.67496151
v -54.54593616 -142.24907176 39.14085017
v -60.90411325 -160.82961706 55.79243939
v -55.84288935 -155.62401964 53.56835308
v -56.83234064 -153.65796429 47.31336955
v -61.23504938 -149.97853581 51.03568402
v -56.01120025 -146.27926231 42.67112595
v -54.19928477 -141.32622119 40.62385524
v -56.35469272 -160.19443496 54.45840104
v -56.43214500 -157.47787325 50.44535084
v -55.46129306 -147.48041367 43.01990260
v -55.09133925 -141.58026480 45.70549537
v -55.60244578 -150.34246190 44.86928781
v -56.98247860 -159.22276185 56.64526904
v -54.38156243 -147.93348914 47.46884729
v -57.59926555 -156.89700393 56.32396708
v -59.04971862 -161.68162669 55.05638814
v -56.16414550 -156.87980962 54.72507442
v -60.44626373 -157.08501511 56.61457741
v -57.28436193 -157.96778976 51.08662752
v -54.22317733 -142.09658689 42.18731902
v -58.38323851 -152.55488868 54.21705585
v -55.01981774 -147.35634446 42.59426225
v -60.84482286 -157.30560483 52.59673619
v -54.60327854 -151.92216729 47.00063162
v -62.25323620 -154.87440624 52.16722985
v -57.18570282 -150.91764879 53.06152365
v -54.32989580 -143.12558529 39.14172829
v -56.77085540 -141.77546405 45.20214942
v -56.31816676 -156.29797356 49.27391825
v -56.28004365 -140.38365512 39.44317012
v -56.70084040 -148.31229907 44.62530255
v -58.06640029 -161.32693096 56.45970223
v -53.89890146 -145.85824117 41.03631625
v -57.17692177 -161.49673468 55.24960140
v -54.85447232 -143.82044557 39.57820079
v -62.56452449 -151.83541236 51.80082480
v -59.52742744 -149.55664553 47.75078799
v -56.62988895 -154.07836682 54.28866825
v -61.56057857 -152.38402789 50.45174716
v -56.07897851 -152.87504647 53.32200419
v -59.31557116 -147.29970419 46.80272062
v -54.45022606 -140.52325021 40.24900352
v -55.48555127 -140.42300062 43.79455229
v -58.25760280 -159.87528485 53.13280538
v -56.56729880 -157.71326948 55.71490819
v -62.92760577 -152.74138810 52.22061247
v -56.82753713 -139.90586710 41.14070518
v -55.24484615 -139.45234192 40.18424112
v -59.00566344 -148.19153970 46.77491159
v -54.24401210 -145.29350442 44.57768998
v -54.73897137 -152.68448934 47.08589764
v -58.30016290 -157.39588506 51.01368911
v -56.62322579 -150.36965060 45.60699875
v -55.65926755 -155.68642950 52.78365978
v -56.65065183 -160.08027801 53.34309605
v -54.48089842 -147.86984324 48.31900028
v -57.10106624 -160.83938228 53.93539017
v -55.08389497 -152.28024754 50.72842744
v -55.05799339 -153.65025908 47.93177239
v -59.85673560 -152.42403303 54.05276695
v -59.34275676 -146.88366330 47.89072784
v -58.82011453 -160.71772865 56.99690131
v -54.55023072 -141.77438110 43.93688101
v -56.35808396 -158.86189478 52.06915781
v -59.33373198 -146.76575963 47.18191824
v -62.02769393 -155.20576684 55.25736471
v -58.12986745 -144.56133453 43.99582187
v -54.38341800 -145.97950043 47.50985197
v -54.40000935 -145.20123136 40.45075557
v -57.33122555 -149.56111294 52.22992224
v -57.46110055 -160.89569523 56.56410582
v -56.46962670 -159.62665523 55.61182451
v -59.85018710 -151.40124786 53.35476988
v -55.05955699 -141.83795616 45.96126118
v -58.38197670 -147.62974527 50.19175803
f 162 484 311
f 484 239 311
f 288 311 548
f 288 162 311
f 39 239 484
f 188 484 162
f 188 162 399
f 162 542 399
f 442 399 542
f 250 311 239
f 250 284 311
f 460 162 288
f 542 162 460
f 311 284 548
f 455 548 284
f 548 71 288
f 460 288 71
f 39 530 239
f 188 39 484
f 542 507 442
f 250 96 284
f 455 284 96
f 140 71 548
f 140 548 455
f 39 343 530
f 343 39 188
f 343 188 391
f 391 188 399
f 399 442 391
f 239 530 3
f 71 249 460
f 71 140 249
f 268 460 249
f 325 428 455
f 428 140 455
f 343 27 530
f 507 51 442
f 507 320 51
f 239 169 250
f 507 34 320
f 547 96 250
f 17 507 542
f 507 17 34
f 460 268 542
f 542 268 17
f 96 430 455
f 325 455 430
f 249 457 268
f 249 140 428
f 428 114 249
f 249 499 457
f 249 114 499
f 414 428 325
f 428 414 114
f 442 312 391
f 442 51 312
f 239 170 169
f 418 17 268
f 457 418 268
f 266 414 325
f 414 307 114
f 114 307 494
f 114 494 499
f 501 343 391
f 427 170 3
f 3 170 239
f 34 237 320
f 547 250 169
f 219 96 547
f 96 219 430
f 17 520 34
f 418 520 17
f 418 292 520
f 430 266 325
f 418 175 292
f 563 418 457
f 543 414 266
f 307 414 543
f 405 499 494
f 457 499 405
f 343 501 27
f 3 530 27
f 34 394 237
f 520 394 34
f 292 394 520
f 102 430 219
f 102 266 430
f 50 292 175
f 50 394 292
f 405 563 457
f 384 543 266
f 384 49 543
f 543 49 307
f 307 119 494
f 405 494 119
f 307 49 119
f 272 3 27
f 51 35 312
f 51 320 35
f 427 117 170
f 170 117 355
f 305 169 170
f 305 170 355
f 305 547 169
f 394 192 237
f 102 219 89
f 50 57 394
f 36 266 102
f 563 175 418
f 266 36 384
f 488 405 119
f 319 27 501
f 312 501 391
f 35 131 312
f 3 272 427
f 427 389 117
f 547 305 93
f 93 89 547
f 89 219 547
f 57 192 394
f 57 550 192
f 102 1 36
f 50 550 57
f 563 439 175
f 50 175 422
f 422 175 439
f 405 327 563
f 327 439 563
f 488 327 405
f 419 49 384
f 511 119 49
f 119 511 80
f 27 319 232
f 389 427 272
f 237 398 320
f 355 298 305
f 257 89 93
f 1 102 89
f 422 550 50
f 36 419 384
f 456 439 327
f 119 80 488
f 456 327 488
f 488 80 432
f 419 20 49
f 511 49 20
f 527 501 312
f 232 272 27
f 75 117 389
f 75 360 117
f 305 298 93
f 257 184 89
f 1 89 184
f 550 492 192
f 528 36 1
f 422 489 550
f 36 528 419
f 456 228 439
f 228 422 439
f 228 489 422
f 488 432 456
f 377 511 20
f 80 84 432
f 319 501 527
f 272 232 389
f 98 75 389
f 227 355 117
f 117 360 227
f 298 181 93
f 181 257 93
f 1 184 404
f 404 528 1
f 489 492 550
f 228 456 211
f 211 456 432
f 511 574 80
f 377 574 511
f 131 527 312
f 99 389 232
f 320 398 35
f 75 98 416
f 416 360 75
f 227 298 355
f 299 298 227
f 181 184 257
f 181 62 184
f 489 13 492
f 228 13 489
f 228 273 13
f 211 273 228
f 297 377 20
f 377 297 274
f 574 377 376
f 232 535 99
f 232 319 535
f 99 98 389
f 98 99 224
f 181 298 329
f 329 298 299
f 81 329 299
f 62 404 184
f 435 419 528
f 419 435 297
f 297 20 419
f 376 80 574
f 4 319 527
f 231 99 535
f 387 416 98
f 375 360 416
f 360 375 227
f 375 204 227
f 227 204 299
f 329 402 181
f 402 62 181
f 492 347 192
f 396 211 432
f 84 396 432
f 349 84 80
f 396 84 349
f 349 80 376
f 274 222 377
f 377 222 376
f 527 131 4
f 4 131 60
f 535 319 4
f 35 60 131
f 224 99 231
f 35 151 60
f 398 151 35
f 98 224 387
f 81 299 204
f 277 211 396
f 349 235 396
f 396 235 277
f 535 464 231
f 5 387 224
f 329 263 402
f 209 62 402
f 13 514 492
f 528 423 318
f 318 435 528
f 435 86 297
f 297 86 274
f 86 159 274
f 79 222 274
f 464 535 4
f 4 569 464
f 569 4 60
f 182 224 231
f 464 182 231
f 5 416 387
f 433 375 416
f 375 567 204
f 263 329 328
f 328 329 81
f 209 402 263
f 412 404 62
f 404 423 528
f 13 273 514
f 211 277 273
f 318 86 435
f 277 235 568
f 159 79 274
f 376 222 40
f 60 153 569
f 237 161 398
f 5 433 416
f 62 209 412
f 404 412 423
f 222 79 477
f 40 344 376
f 349 376 344
f 151 153 60
f 506 224 182
f 506 5 224
f 192 92 237
f 567 81 204
f 81 275 328
f 568 235 302
f 235 349 344
f 40 222 477
f 151 533 153
f 151 398 533
f 398 229 533
f 161 229 398
f 337 375 433
f 275 81 567
f 141 318 423
f 277 514 273
f 277 568 514
f 153 282 569
f 177 464 569
f 282 177 569
f 282 153 533
f 464 73 182
f 92 161 237
f 179 433 5
f 337 567 375
f 347 92 192
f 567 337 158
f 263 328 38
f 209 263 176
f 412 478 423
f 318 287 86
f 147 302 235
f 235 344 147
f 177 73 464
f 177 522 73
f 506 179 5
f 176 263 38
f 209 478 412
f 318 141 287
f 344 368 147
f 207 477 79
f 344 40 368
f 506 182 73
f 337 406 158
f 158 275 567
f 328 275 38
f 275 358 38
f 423 478 141
f 159 207 79
f 43 40 477
f 43 368 40
f 477 207 306
f 477 306 43
f 533 468 282
f 269 177 282
f 337 433 213
f 406 337 213
f 347 48 163
f 358 260 38
f 147 234 302
f 368 43 281
f 522 510 73
f 229 267 533
f 506 73 510
f 506 510 336
f 161 92 229
f 336 179 506
f 433 179 70
f 70 213 433
f 541 358 158
f 358 275 158
f 260 270 38
f 176 38 270
f 209 176 478
f 141 478 276
f 302 556 568
f 72 234 147
f 259 207 159
f 281 147 368
f 338 306 207
f 364 43 306
f 364 281 43
f 269 282 468
f 522 177 269
f 70 179 336
f 213 452 406
f 452 421 406
f 406 421 158
f 421 541 158
f 270 478 176
f 287 141 109
f 568 556 514
f 86 287 475
f 475 159 86
f 302 385 556
f 234 385 302
f 196 72 147
f 207 259 338
f 281 196 147
f 364 15 281
f 468 533 267
f 336 510 369
f 531 70 336
f 70 452 213
f 300 421 452
f 492 48 347
f 260 358 541
f 541 152 260
f 565 260 152
f 260 565 270
f 287 109 363
f 475 287 363
f 83 234 72
f 83 385 234
f 306 25 364
f 522 197 510
f 197 522 269
f 229 372 267
f 229 92 372
f 369 531 336
f 561 270 565
f 556 424 514
f 385 424 556
f 159 475 259
f 338 259 280
f 306 338 25
f 197 269 16
f 269 468 87
f 16 269 87
f 267 372 157
f 510 197 369
f 92 347 163
f 514 497 492
f 270 561 478
f 276 109 141
f 426 364 25
f 15 364 426
f 468 165 87
f 267 165 468
f 202 197 16
f 165 267 157
f 92 163 372
f 463 70 531
f 421 300 549
f 549 541 421
f 561 565 395
f 561 276 478
f 109 276 410
f 126 363 109
f 475 363 259
f 385 393 424
f 361 280 259
f 83 393 385
f 83 72 196
f 193 87 165
f 157 193 165
f 157 372 193
f 163 193 372
f 172 531 369
f 463 452 70
f 42 549 300
f 180 541 549
f 565 152 395
f 276 561 410
f 126 109 410
f 363 361 259
f 283 196 281
f 83 196 283
f 283 281 417
f 280 25 338
f 281 15 417
f 87 247 16
f 87 333 247
f 193 333 87
f 16 247 202
f 512 369 197
f 512 172 369
f 172 463 531
f 452 42 300
f 452 463 42
f 42 537 549
f 541 180 152
f 561 194 496
f 561 496 410
f 363 575 361
f 361 458 280
f 202 512 197
f 395 152 449
f 514 205 497
f 395 194 561
f 424 205 514
f 393 215 424
f 393 446 215
f 393 121 446
f 393 83 121
f 575 458 361
f 280 471 25
f 426 417 15
f 202 431 512
f 202 247 431
f 553 463 172
f 463 553 392
f 42 463 392
f 449 152 180
f 496 126 410
f 301 363 126
f 363 301 575
f 313 121 83
f 283 313 83
f 426 25 471
f 471 438 426
f 29 333 193
f 193 314 29
f 193 163 314
f 537 180 549
f 301 126 496
f 438 208 426
f 553 172 512
f 48 314 163
f 553 45 392
f 42 392 440
f 42 440 537
f 41 395 449
f 395 41 194
f 496 108 301
f 351 283 417
f 471 570 438
f 426 208 417
f 417 208 351
f 241 431 247
f 247 333 190
f 333 29 190
f 512 296 553
f 512 431 296
f 492 524 48
f 497 524 492
f 380 458 575
f 121 24 446
f 458 467 280
f 467 279 471
f 280 467 471
f 190 241 247
f 553 296 45
f 180 30 449
f 496 194 356
f 108 496 356
f 380 575 301
f 24 388 446
f 458 380 467
f 313 473 121
f 473 24 121
f 351 82 283
f 82 313 283
f 82 473 313
f 279 570 471
f 136 208 438
f 136 310 208
f 310 351 208
f 48 480 314
f 440 392 474
f 180 537 326
f 41 449 30
f 301 108 443
f 446 558 215
f 341 380 301
f 388 558 446
f 380 309 467
f 309 279 467
f 82 351 220
f 310 220 351
f 438 570 526
f 438 526 136
f 326 537 440
f 30 180 408
f 180 326 408
f 30 264 41
f 301 443 341
f 279 309 461
f 570 279 44
f 570 210 526
f 392 150 474
f 440 474 168
f 326 440 168
f 264 322 41
f 41 322 194
f 322 356 194
f 356 443 108
f 461 309 447
f 279 461 44
f 210 570 44
f 241 190 174
f 445 431 241
f 174 445 241
f 236 190 29
f 431 504 296
f 504 431 445
f 29 314 236
f 504 45 296
f 392 45 214
f 150 392 214
f 424 215 205
f 505 356 322
f 356 505 443
f 558 146 215
f 483 447 309
f 380 483 309
f 82 220 77
f 44 461 58
f 316 174 190
f 190 236 316
f 314 480 236
f 45 504 155
f 155 214 45
f 408 326 437
f 59 264 30
f 30 408 59
f 322 264 291
f 473 466 24
f 341 483 380
f 77 453 473
f 77 473 82
f 466 473 453
f 58 210 44
f 128 526 210
f 524 480 48
f 437 326 183
f 59 408 437
f 291 264 59
f 505 21 443
f 21 341 443
f 388 146 558
f 466 388 24
f 390 445 174
f 236 480 26
f 524 551 480
f 168 474 150
f 322 291 295
f 322 295 505
f 21 104 341
f 104 483 341
f 461 573 58
f 447 573 461
f 220 540 77
f 77 540 453
f 58 46 210
f 526 379 136
f 310 136 379
f 316 90 174
f 26 316 236
f 59 285 291
f 285 59 437
f 295 143 21
f 295 21 505
f 573 46 58
f 310 379 220
f 480 551 26
f 168 150 139
f 323 326 168
f 183 326 323
f 183 323 539
f 291 285 536
f 536 295 291
f 143 295 536
f 210 521 128
f 303 390 174
f 174 90 303
f 214 155 409
f 139 150 214
f 139 230 168
f 323 168 230
f 215 146 205
f 183 285 437
f 104 479 483
f 479 573 483
f 447 483 573
f 46 521 210
f 526 128 379
f 110 445 390
f 345 90 316
f 110 504 445
f 26 345 316
f 504 110 409
f 409 155 504
f 214 251 139
f 251 214 409
f 139 251 230
f 205 146 185
f 285 546 536
f 143 434 21
f 388 495 146
f 466 495 388
f 9 466 453
f 9 495 466
f 262 425 379
f 379 425 220
f 220 425 540
f 262 379 128
f 303 90 371
f 345 371 90
f 32 110 390
f 32 390 303
f 524 187 551
f 497 187 524
f 205 246 497
f 230 238 323
f 539 323 238
f 183 167 285
f 21 479 104
f 173 9 453
f 560 46 573
f 429 521 46
f 128 521 262
f 123 345 26
f 26 551 123
f 123 551 559
f 187 559 551
f 497 246 187
f 251 486 230
f 183 539 167
f 285 167 448
f 536 434 143
f 495 554 146
f 479 10 573
f 573 10 560
f 429 46 560
f 425 538 540
f 521 243 135
f 521 135 262
f 371 345 123
f 409 110 450
f 450 110 32
f 409 450 251
f 486 251 154
f 238 230 486
f 539 238 116
f 167 539 116
f 448 546 285
f 9 554 495
f 127 453 540
f 127 173 453
f 538 127 540
f 429 243 521
f 123 342 371
f 485 32 303
f 485 303 371
f 123 559 66
f 246 559 187
f 397 251 450
f 154 251 397
f 554 357 146
f 434 479 21
f 434 53 479
f 53 10 479
f 9 503 554
f 11 503 173
f 9 173 503
f 127 11 173
f 491 127 538
f 11 127 491
f 212 429 560
f 374 538 425
f 212 243 429
f 425 262 374
f 485 371 342
f 342 123 66
f 420 450 32
f 462 486 154
f 116 238 486
f 116 22 167
f 498 546 448
f 167 498 448
f 434 536 52
f 10 252 560
f 252 381 560
f 560 381 212
f 135 374 262
f 240 485 342
f 31 32 485
f 31 485 240
f 559 258 66
f 559 246 258
f 246 367 258
f 205 367 246
f 525 22 116
f 498 167 22
f 52 536 546
f 374 135 401
f 32 31 420
f 378 397 450
f 185 367 205
f 462 154 362
f 146 54 185
f 462 116 486
f 462 334 116
f 334 525 116
f 357 54 146
f 22 160 498
f 160 546 498
f 434 52 120
f 120 53 434
f 53 383 10
f 11 459 503
f 383 252 10
f 401 538 374
f 149 6 66
f 6 240 66
f 240 342 66
f 258 149 66
f 378 450 420
f 258 113 149
f 258 367 113
f 22 525 203
f 546 160 52
f 115 357 554
f 233 11 491
f 401 94 538
f 491 538 94
f 243 124 135
f 240 529 31
f 6 529 240
f 164 31 529
f 407 378 420
f 407 420 31
f 154 397 465
f 465 397 378
f 185 113 367
f 54 113 185
f 335 462 362
f 334 462 335
f 120 383 53
f 74 243 212
f 125 124 243
f 113 400 149
f 113 97 400
f 362 154 465
f 54 97 113
f 334 335 189
f 189 525 334
f 203 160 22
f 332 359 160
f 332 160 203
f 160 359 52
f 120 52 359
f 503 459 517
f 255 252 383
f 233 459 11
f 212 381 470
f 491 94 233
f 470 74 212
f 243 74 125
f 401 254 94
f 401 135 124
f 6 271 529
f 31 164 407
f 476 6 149
f 149 400 476
f 148 465 378
f 362 465 105
f 332 203 106
f 359 487 120
f 120 487 383
f 503 444 554
f 444 503 517
f 331 381 252
f 331 470 381
f 401 124 254
f 271 186 529
f 164 529 186
f 271 6 476
f 400 500 476
f 400 97 500
f 465 148 105
f 203 525 106
f 332 278 359
f 278 487 359
f 255 331 252
f 94 315 233
f 315 94 254
f 308 254 124
f 124 125 100
f 124 100 308
f 142 164 186
f 148 378 552
f 500 271 476
f 138 106 525
f 223 278 332
f 444 115 554
f 444 289 115
f 487 130 383
f 383 130 255
f 233 386 459
f 459 386 517
f 386 233 315
f 74 470 68
f 68 125 74
f 100 226 308
f 271 509 186
f 407 552 378
f 552 407 142
f 407 164 142
f 54 107 97
f 189 335 122
f 122 138 525
f 189 122 525
f 278 95 487
f 95 201 487
f 487 201 130
f 201 566 130
f 517 144 444
f 130 566 255
f 331 255 566
f 515 254 308
f 308 226 515
f 186 509 142
f 97 8 500
f 54 357 107
f 105 335 362
f 115 171 357
f 144 289 444
f 517 111 144
f 293 331 566
f 293 382 331
f 470 331 382
f 68 470 382
f 254 482 315
f 242 100 125
f 242 125 68
f 515 482 254
f 226 100 242
f 242 67 226
f 519 142 373
f 373 142 509
f 373 509 261
f 261 509 500
f 509 271 500
f 8 261 500
f 519 552 142
f 339 148 552
f 107 8 97
f 523 335 105
f 106 321 332
f 115 289 171
f 321 223 332
f 223 95 278
f 133 201 95
f 144 248 289
f 545 517 386
f 545 111 517
f 382 293 451
f 545 386 315
f 545 315 482
f 382 518 68
f 518 242 68
f 482 515 103
f 226 198 515
f 519 290 552
f 350 373 261
f 290 339 552
f 261 8 350
f 352 148 339
f 523 105 365
f 357 216 107
f 357 171 216
f 354 321 106
f 133 95 223
f 201 199 566
f 111 248 144
f 111 294 248
f 199 293 566
f 518 101 242
f 101 67 242
f 67 198 226
f 515 198 103
f 519 373 441
f 8 156 350
f 8 107 156
f 365 105 148
f 365 148 352
f 216 156 107
f 365 195 523
f 122 335 523
f 490 138 122
f 354 138 490
f 354 106 138
f 321 354 330
f 223 321 330
f 133 223 330
f 111 545 294
f 217 382 451
f 518 382 217
f 545 482 69
f 373 350 441
f 350 156 564
f 289 137 171
f 248 137 289
f 545 69 294
f 69 482 103
f 317 441 350
f 317 350 564
f 216 564 156
f 216 454 564
f 171 454 216
f 195 490 122
f 403 330 354
f 132 201 133
f 199 201 132
f 256 198 67
f 290 519 441
f 339 290 76
f 564 134 78
f 564 454 134
f 191 365 352
f 191 352 339
f 171 178 454
f 523 195 122
f 137 178 171
f 248 346 137
f 199 451 293
f 166 217 451
f 101 518 217
f 103 513 69
f 441 18 290
f 290 18 76
f 317 218 441
f 18 441 218
f 317 564 78
f 178 134 454
f 490 403 354
f 132 133 330
f 132 166 199
f 199 166 451
f 513 103 198
f 101 256 67
f 317 78 218
f 191 339 76
f 47 55 195
f 47 195 365
f 366 132 330
f 294 572 248
f 69 85 294
f 572 294 85
f 544 76 18
f 555 78 134
f 134 178 555
f 47 365 191
f 55 490 195
f 366 330 265
f 330 403 265
f 572 346 248
f 253 256 101
f 78 225 218
f 218 225 18
f 137 508 178
f 346 508 137
f 403 490 415
f 69 513 85
f 217 64 101
f 101 64 253
f 2 513 198
f 198 91 2
f 436 544 18
f 436 18 225
f 78 555 225
f 555 178 88
f 353 47 191
f 415 490 472
f 472 490 55
f 366 221 132
f 221 166 132
f 2 85 513
f 65 256 253
f 256 91 198
f 225 557 436
f 225 555 557
f 191 76 353
f 14 76 544
f 14 544 436
f 557 555 12
f 88 12 555
f 14 353 76
f 508 88 178
f 166 61 217
f 221 61 166
f 2 56 85
f 61 64 217
f 64 65 253
f 63 436 557
f 63 557 12
f 88 63 12
f 415 286 403
f 265 403 286
f 64 61 33
f 33 65 64
f 65 206 256
f 206 91 256
f 436 469 14
f 469 436 63
f 245 63 88
f 88 28 245
f 88 508 28
f 118 472 55
f 118 55 47
f 346 28 508
f 415 472 286
f 572 28 346
f 28 572 85
f 33 206 65
f 206 413 91
f 2 91 413
f 118 47 353
f 502 286 472
f 286 366 265
f 340 221 366
f 85 19 28
f 56 19 85
f 23 61 221
f 2 571 56
f 23 33 61
f 112 571 2
f 2 413 562
f 469 63 324
f 348 14 469
f 348 469 324
f 304 118 353
f 304 353 516
f 28 19 245
f 340 366 286
f 19 56 571
f 340 23 221
f 145 562 206
f 2 562 112
f 413 206 562
f 516 353 14
f 348 516 14
f 534 63 245
f 304 472 118
f 502 472 304
f 19 534 245
f 19 571 129
f 7 33 23
f 33 145 206
f 63 244 324
f 534 244 63
f 534 129 244
f 19 129 534
f 340 286 502
f 571 532 129
f 129 532 481
f 145 33 7
f 112 200 532
f 112 532 571
f 562 145 200
f 562 200 112
f 304 516 370
f 516 348 411
f 348 244 411
f 244 348 324
f 481 411 244
f 502 304 370
f 481 244 129
f 23 340 493
f 23 493 7
f 37 481 532
f 493 37 200
f 200 37 532
f 145 7 493
f 145 493 200
f 370 516 411
f 37 370 411
f 37 411 481
f 340 502 493
f 493 502 370
f 493 370 37