# https://github.com/mikedh/trimesh
v -75.70575093 20.05118659 16.57193221
v -77.47676008 18.10721198 20.69685858
v -78.82944143 14.38774450 22.91001724
v -80.89182780 10.82006384 25.87060414
v -78.97341137 19.98786495 12.93064466
v -76.82393448 10.07575902 25.91056448
v -80.03023043 14.96193985 13.11465338
v -80.53195161 14.24138745 19.85224060
v -74.64082825 21.13383272 19.53527490
v -81.70792332 10.06893984 23.22636412
v -82.60637343 10.33647330 24.61697323
v -80.66557821 13.79335899 20.38472283
v -75.42383940 11.68894908 22.44802866
v -80.06106696 15.33326690 12.78575949
v -79.68718694 19.10570293 13.26530218
v -77.76853402 16.48086598 12.90896952
v -81.92063223 11.28746738 24.37096168
v -75.73585134 22.39391222 18.91088135
v -79.21998589 14.76914698 17.23455690
v -74.69904644 25.07719710 17.39678388
v -75.72660277 14.50352245 20.67312529
v -76.15906517 14.02460525 23.58941789
v -79.03960753 14.69943159 13.84684447
v -76.79923824 20.47047059 19.55910527
v -82.60686142 8.74673680 25.58118114
v -79.29487420 19.47504760 17.34285316
v -79.28038753 12.83205213 24.26222553
v -78.52030933 17.34329287 20.66575027
v -82.17835500 9.93730984 23.77173511
v -77.40571330 12.32842140 21.67337941
v -79.41532755 14.48543827 18.16778906
v -80.59728701 14.88513169 19.91810284
v -80.05781016 14.86439091 17.89841845
v -80.22612255 15.20601049 17.68314101
v -79.75501502 14.60407840 18.02706788
v -75.77832031 16.84777478 18.80536474
v -79.48891009 9.79627993 23.43141838
v -81.21002745 9.37556942 23.61948772
v -78.13118759 21.34171223 13.92698650
v -77.41696785 16.84180224 13.74915595
v -78.36840301 9.53204106 24.13301944
v -76.46222825 12.39356845 21.79033029
v -78.97480904 19.29849589 18.74020607
v -76.39056069 16.59058915 18.07959764
v -80.26429036 16.14164768 17.84288929
v -75.94089654 24.31840260 17.88377763
v -79.68548753 16.06171952 12.33101821
v -77.45910183 16.86564732 21.51649649
v -76.21307591 24.95299115 16.93774861
v -75.05950879 24.58266111 18.08120230
v -75.27807639 11.37932696 22.70110508
v -82.09994587 9.81904093 26.24309654
v -79.82817824 12.13582502 24.89887341
v -80.79303195 12.39612301 21.28806185
v -77.06570461 17.60435341 21.17618528
v -80.17879549 15.44964935 15.81058707
v -76.67166344 16.32405069 18.00431230
v -75.47025001 18.28806767 18.02710943
v -78.04533376 17.13843834 21.08545894
v -76.44030411 17.98574877 21.09868439
v -79.12236968 19.49982622 16.75411816
v -76.64145162 21.28807313 16.64760089
v -77.10575059 9.69516016 24.11437106
v -75.79444797 16.24139827 19.34740371
v -77.09943196 13.58661877 20.68142112
v -75.99407356 15.81602588 22.36251370
v -82.53171920 8.90300257 25.03605999
v -77.58008193 21.48695846 14.50290598
v -77.36907312 14.07039852 20.10071559
v -82.45324827 10.17187565 24.14506917
v -78.19860348 13.28105778 20.51762822
v -81.89319953 8.41117103 25.61555006
v -74.91649239 12.40294351 22.19098208
v -79.12374605 14.07021477 18.95102725
v -79.90543959 17.37118151 19.19931074
v -77.65875051 19.54956987 13.22859526
v -77.27833869 19.74208539 13.73921289
v -78.30191708 16.09719758 21.72021841
v -80.17853250 15.50617192 13.27636559
v -79.55911624 14.03119942 18.98449385
v -75.04498495 18.18566868 18.96288269
v -78.24189358 20.09904265 12.98227363
v -76.57821556 18.60634431 15.21584512
v -76.19734933 14.05230903 20.75034610
v -76.41772287 16.11779392 18.68622728
v -77.53075824 21.11371685 14.16096136
v -73.99559241 11.74499992 23.06872655
v -75.71651680 10.18247906 23.58412024
v -80.07735453 8.87599641 26.81369715
v -78.14368138 22.10744617 16.88934240
v -74.57548798 18.71083865 20.54720014
v -78.81925419 15.27072696 12.70202967
v -75.63341232 15.84480969 19.83146926
v -80.24040376 10.36274595 26.33690608
v -77.87187351 21.18508273 13.89412734
v -75.42499442 17.81183819 18.58266570
v -78.95776749 10.39706617 22.95027234
v -74.30011321 21.05502510 19.41860326
v -74.07897065 15.15431474 21.83170386
v -79.72534653 16.77266535 12.41694370
v -78.92163553 19.91414894 15.76376758
v -76.08612843 20.60279030 16.04877327
v -78.32336003 20.22871077 18.68020006
v -81.06324827 12.96058655 21.89360668
v -75.46316102 12.74284607 21.81795099
v -74.34322768 15.82858930 20.89805236
v -82.81573391 9.82865213 25.32998364
v -77.71341325 22.94246483 16.92830553
v -77.23882474 15.90515178 17.64573315
v -80.66754328 8.75452977 26.87643543
v -75.59203082 15.81493998 22.31372091
v -77.39927109 16.11504117 17.00981436
v -80.40972712 16.44917548 13.95557428
v -78.54091058 15.06493821 15.47059089
v -81.60336361 9.68199794 23.41272948
v -78.85754915 15.92872915 21.52430866
v -77.57740750 13.52863904 23.94839452
v -75.56792868 22.14332834 17.38164566
v -78.11699526 15.41788792 14.37987552
v -77.27868566 11.64777700 22.23103325
v -74.96174366 22.34458648 19.06249756
v -80.16427270 17.22026541 16.18340366
v -75.47371241 18.95331749 17.56273990
v -78.12993037 13.81209491 19.92707869
v -75.14655713 15.81020987 22.22232310
v -77.97663117 20.93276919 15.57011113
v -79.62535640 11.77448645 21.62025515
v -76.85536225 22.00374167 16.83753759
v -77.20042866 17.56937668 13.41562828
v -79.18693232 14.78524275 14.94391222
v -79.33528334 14.69173135 14.20960367
v -77.66030295 13.61713733 20.45388050
v -76.21142882 19.17609010 15.53475452
v -75.54808997 20.23970791 17.47843742
v -80.88408968 11.73436598 21.73090991
v -78.55293241 20.86758297 16.95240457
v -82.11137013 8.39871117 25.90848830
v -78.96972414 8.66020337 26.21350134
v -80.34072804 15.78165841 16.85818291
v -80.07151829 8.51777305 25.69142247
v -74.26667339 16.84703390 20.65068780
v -81.38234920 11.89654033 24.03848543
v -75.87293745 15.05610475 20.19332664
v -81.25215808 8.77576185 24.75766472
v -81.36775127 12.01191031 23.36597554
v -78.55024603 13.56783083 20.01975527
v -78.08212871 11.52164560 25.59479642
v -73.88192390 13.66250561 22.30175518
v -74.57167420 10.71080133 23.75504942
v -80.35923099 16.05403608 15.50294965
v -77.69597131 16.08613723 14.61115295
v -76.01416916 23.93600941 16.95606817
v -77.92342697 12.71812446 21.20623214
v -76.13533705 17.45832698 17.37287515
v -78.51389397 20.67408613 16.82254810
v -80.26487820 15.66758255 13.54780288
v -74.31067330 22.95562932 18.74305266
v -74.01025154 13.59832585 22.66160487
v -78.40264096 8.92648227 26.32122437
v -77.49468061 23.15322460 16.80629622
v -79.03460918 12.64388746 20.89847240
v -77.55265237 21.88737089 18.20051022
v -81.20380673 10.71432471 22.51829816
v -76.06857027 15.50748929 19.72210602
v -80.16816285 16.70050058 17.60766299
v -74.94110303 21.23905713 19.55403005
v -74.78779339 23.82673205 18.44288989
v -74.12700974 14.71218575 21.51119575
v -74.62896476 16.03581292 20.53188612
v -79.50666415 8.67304752 26.68172606
v -79.92730331 14.76510402 21.73286373
v -74.22643293 15.94357297 21.05518866
v -79.89677134 12.92026573 23.93903213
v -76.75696591 23.15341667 18.03385305
v -80.85591695 13.82136683 20.82769591
v -80.62247598 11.61417020 25.17985339
v -78.94240035 9.79481393 23.55515752
v -75.97761628 12.75525966 21.69566254
v -74.77947955 13.81841236 23.20723532
v -77.81274664 15.63780782 17.05523403
v -80.64764621 14.61592929 20.63168577
v -79.55068277 14.90079940 15.31306249
v -82.54469430 9.41176776 24.53277226
v -73.92161387 23.48173709 18.21931799
v -76.02665888 20.80229230 16.74364947
v -76.52604327 19.19606243 15.00488067
v -74.70051118 11.96218565 22.49924755
v -74.14440436 14.68512008 22.23132602
v -79.93082775 17.59470453 17.51990121
v -78.59122831 14.99146344 13.33043212
v -78.73677016 13.02619293 20.58245343
v -74.98404183 19.31778957 20.40731924
v -81.14327465 12.68330746 21.76898859
v -75.30481920 14.13288701 23.25759073
v -80.01114259 18.49914349 14.11093858
v -77.19682911 11.91612777 25.20128679
v -80.82959872 12.91766221 21.03613289
v -76.73364842 19.40153588 14.58055201
v -82.25377753 8.47535557 25.66890171
v -75.60087812 18.70318086 17.09776429
v -78.50951599 12.32933880 21.36341491
v -79.96084534 13.67440553 19.67555078
v -74.27530614 18.00980113 20.07855221
v -80.49569857 13.50954860 22.41954835
v -78.41666781 15.77153738 12.56029502
v -77.64589178 17.37783625 12.73733042
v -75.53035689 19.22772909 16.99811454
v -79.41541803 18.87485375 18.33766706
v -81.65185130 11.48036240 24.64648909
v -78.10570967 22.27093517 17.12495875
v -82.08841543 9.73934862 23.78469733
v -74.36543114 15.77438994 21.83290319
v -80.03211996 11.78380205 21.58748807
v -74.38427499 14.75763368 22.41525743
v -82.20438585 10.62326071 23.86067688
v -80.01884481 15.93192272 12.60244571
v -77.76230009 10.92110326 22.74281226
v -75.81151725 20.47588839 16.82697852
v -80.04659989 15.41662910 21.00020898
v -80.85955383 10.96264305 22.20974327
v -79.07137983 9.46624460 23.95197831
v -74.76618716 16.87511733 20.00453687
v -74.18637232 18.06490795 20.28316415
v -76.41362014 13.36575524 21.15839842
v -75.63533093 19.59367020 16.57995509
v -78.66070805 15.07077602 16.69241133
v -82.61708343 8.94293001 26.24549533
v -75.71329664 13.78853157 21.13498559
v -80.66579149 13.76808390 21.79930240
v -79.30601435 18.14583625 19.33355260
v -79.39765573 18.97526948 16.42718707
v -74.29083241 13.47985147 22.98606773
v -80.12104487 16.99937996 18.41639284
v -80.30997924 15.53772788 17.69864692
v -78.44120786 20.80503942 13.40007455
v -77.89684280 15.76338691 22.15905222
v -76.42629209 24.82056672 17.02077096
v -77.52376177 16.12284646 16.32644757
v -77.84936104 15.43473325 17.49735839
v -80.00977338 17.22993026 12.89096361
v -76.88561967 17.18446784 16.10256792
v -82.14221081 9.31372740 24.18899755
v -80.67549592 10.55033359 22.51406613
v -81.23576333 9.86756216 23.10920416
v -81.08050585 12.66348989 21.54613602
v -78.57649524 11.84221511 21.77107576
v -79.31566315 17.28046360 20.07593747
v -80.84530680 12.94875001 22.60829413
v -76.94859406 14.55443139 19.87695323
v -73.91058817 12.05812945 23.10692596
v -78.87941355 15.00841323 15.93032496
v -75.57874384 12.72198037 24.26273464
v -76.44516495 21.03825009 16.27456781
v -76.11974700 9.53633584 24.86655474
v -78.90579129 9.56937459 26.63380500
v -76.30738388 20.32585950 19.81109508
v -74.82985287 17.48489568 21.21205100
v -80.40472758 15.91692332 19.67799561
v -75.24796344 18.58330241 18.49670679
v -80.40275893 16.03340790 14.32342037
v -80.82327233 9.76232506 23.12459151
v -76.84153879 21.17019686 16.00551980
v -80.40829681 16.42472140 14.92200323
v -77.82325336 20.52569673 13.45421570
v -75.68339171 19.14926389 16.56933874
v -81.73471645 11.54744463 23.75748515
v -76.04007453 18.18669573 16.72376380
v -75.05505543 21.30062521 17.88100383
v -77.10095552 18.47319884 13.62515678
v -75.41945614 25.36836093 17.44821417
v -77.85618115 21.85795233 17.95995152
v -79.57876710 13.62797981 23.22250846
v -75.79548819 9.79726006 25.03231304
v -80.34639990 16.68854438 15.94220995
v -76.39189779 22.13843954 16.98473114
v -76.81948405 18.11036786 15.05877849
v -76.27628278 21.65811543 17.02590373
v -75.63326015 11.27850241 22.68532517
v -77.01289098 11.15063623 25.59443500
v -78.83304850 18.81363751 19.26430480
v -77.04582731 21.20110264 16.14704726
v -75.10645798 10.88030697 24.75584229
v -82.11407137 10.07119927 26.09367787
v -80.87610662 13.70279278 21.26089047
v -77.96218911 14.59043229 18.92933103
v -77.30275050 16.06091611 22.11326619
v -80.02531446 13.42931821 23.10898668
v -75.79072396 22.40219873 17.21909102
v -78.37505805 21.72119708 17.08531674
v -77.01267942 16.65964859 16.73189766
v -78.55721959 12.68234518 20.98698767
v -79.47622116 14.80442567 17.02937552
v -81.69218830 8.27576956 26.33670554
v -82.44412224 10.36696619 25.40871787
v -78.47314863 15.05194707 14.08715367
v -79.92496547 18.28784022 15.08189872
v -74.23154410 16.08368823 21.46277809
v -75.66814292 14.27958151 23.32491832
v -79.73033381 18.97860864 14.56479880
v -74.26142319 12.07218894 22.61238870
v -77.45348084 21.43417399 15.03120308
v -76.04689784 10.39853010 25.48154208
v -80.01280777 17.35233082 18.90586931
v -74.39254010 25.08469245 17.64899886
v -75.59280858 17.98760978 21.15494563
v -80.72638840 14.04450685 20.40666257
v -79.62058587 18.44825932 17.17248965
v -75.33930824 24.14942444 17.17626229
v -79.45196066 14.18593180 22.74355652
v -79.31146421 19.24246499 15.99575357
v -78.91474977 16.67043124 12.20598624
v -78.23281729 15.05795116 17.74029490
v -76.23754230 9.91180511 25.54829203
v -80.38112552 16.29072710 15.94574235
v -74.41427501 24.49924363 18.11902349
v -75.78756044 11.65950769 24.95224641
v -77.06026168 17.47178561 14.97834308
v -80.33861615 8.37585481 26.71524096
v -80.59169878 12.09379039 21.35811940
v -79.58054080 8.58669286 25.89842071
v -78.02111250 18.21504904 20.37198599
v -75.35831373 17.61637289 18.88335463
v -78.59170288 14.77990253 17.87608867
v -76.03152096 12.08514660 24.79540799
v -76.16740027 19.04767648 20.54151808
v -80.28391259 14.55041839 21.52791774
v -81.18641367 12.48500230 22.49063538
v -76.72321583 14.11409829 20.42598654
v -80.47162086 12.88583819 23.42139337
v -75.70831813 10.48135991 23.31445437
v -78.91507372 13.46403646 20.00319144
v -80.46492847 9.26060606 23.87431796
v -78.34181552 14.55267685 22.91615152
v -75.36976685 21.71130167 19.33445311
v -78.89260381 19.78993504 16.24832039
v -74.70768610 15.92611371 21.99293973
v -77.30052176 20.19171683 19.45902324
v -77.44151544 21.26461787 16.55389339
v -78.85752704 20.18334674 18.09104375
v -81.69236302 11.23798646 22.85381262
v -79.57004282 19.54929894 13.66161991
v -78.43526224 20.78021369 14.91291439
v -79.25281588 14.90189798 15.70634777
v -75.21767737 11.18080378 24.77381318
v -81.16325366 11.96237020 21.87249476
v -79.95606267 15.14434788 16.36329781
v -80.37339888 14.82130555 19.05053116
v -75.60975144 19.64360570 20.31968681
v -77.33325787 9.75118569 26.21119297
v -80.06618916 11.03389577 22.19408328
v -81.07208802 8.74239972 26.84812888
v -80.17034575 9.25257502 23.97450698
v -79.11623003 10.83979047 26.09479021
v -79.59692106 14.66545208 13.52838452
v -79.42326204 18.00715586 12.54302049
v -81.17081647 9.03122240 24.17141281
v -77.43176271 15.38213772 22.55880497
v -75.27716096 13.57222721 21.40991027
v -81.18879642 12.39790704 22.81584856
v -79.31908138 11.25835312 22.14773777
v -79.77704653 17.59748714 12.68695624
v -77.85516014 20.64481758 18.79974006
v -78.00792815 15.61094221 13.36379141
v -79.04582299 19.94941125 15.22315586
v -77.52553180 9.34066430 24.64346370
v -75.18028667 10.51660125 23.40181273
v -77.23836320 12.96360912 21.17668218
v -79.37525877 15.41130479 21.60410250
v -73.89864344 12.77668872 22.49448227
v -75.90249862 20.41913705 19.84884357
v -75.92561239 12.92426379 24.25328487
v -77.86080539 12.14121652 21.71635371
v -75.35856141 19.16743823 17.92606624
v -76.04344944 16.14066025 19.14109196
v -76.95322876 15.83639856 18.31601301
v -80.92190693 8.42519000 26.78744975
v -78.24431843 14.72158592 18.43086900
v -76.42074306 21.18921952 16.61983839
v -74.55848596 13.85038649 21.55646641
v -79.50754976 9.16031732 26.75951258
v -76.86635824 14.40665638 23.34146330
v -82.70738564 9.60801969 25.78190249
v -75.67725571 20.33528040 17.15597879
v -77.41295905 16.56592417 15.08041520
v -77.00700623 15.19927904 19.12189829
v -80.33095642 12.58594356 24.05857398
v -81.34633706 9.11801693 26.72751514
v -77.41206714 18.10600383 13.02873225
v -78.12182593 18.01511431 12.55342100
v -78.53566400 13.06273687 24.21693149
v -74.80618963 22.20784635 17.83601609
v -80.26305044 17.36729129 15.06627983
v -77.41907994 11.31114052 25.62157355
v -81.43607012 11.94149196 22.70985714
v -77.31051858 21.63460176 18.56229739
v -74.02785917 22.69221119 18.23429464
v -78.35135435 14.39463219 18.96941373
v -76.67506725 11.58388255 22.33854873
v -79.91144111 17.75299527 16.73788322
v -78.13599852 16.72780177 12.47001315
v -76.06801107 21.33610476 17.03161048
v -82.75914779 9.76159089 24.57464644
v -75.47533413 10.14661394 24.95018328
v -81.75358870 8.75633748 24.81390218
v -75.51070308 16.81071077 21.73261864
v -78.77453409 14.89944521 15.09638979
v -80.11653439 15.20288282 17.16217262
v -73.97572279 12.62431819 23.06569878
v -74.32503819 23.56843596 18.52013988
v -75.88449348 9.66572531 24.35563610
v -76.07491332 11.43861807 22.50826856
v -75.28358462 19.61091166 18.00126170
v -81.78674526 10.54930747 25.78077509
v -75.78556259 18.78543918 16.61446069
v -80.34747795 10.32697195 22.75821675
v -78.14202656 8.92672322 26.08903178
v -79.64216311 14.97581583 16.26068861
v -77.54613271 21.68558008 16.78299048
v -78.65838036 13.83767017 23.44710969
v -78.77840809 20.57314407 17.13160338
v -78.80303692 11.55402974 25.56338282
v -74.62285780 10.80729310 23.40544219
v -80.33083660 15.77839369 20.15487704
v -75.26722215 16.89054153 19.48826994
v -80.21849543 16.43606210 13.01083880
v -75.92347721 16.88357718 18.50193402
v -75.37204241 20.81550092 17.69380331
v -74.48123868 12.42590267 23.69891854
v -79.07297853 19.01510192 12.64887865
v -75.39359747 9.93984755 24.67736468
v -75.15903963 25.46161545 17.26009604
v -78.30503346 20.46606541 16.21152420
v -75.21376051 10.15381390 23.85969955
v -74.65015107 23.73094476 17.59171936
v -80.32460115 14.38256451 19.19267463
v -81.19178490 11.72652465 24.65886988
v -74.58927920 22.58833462 18.95585133
v -74.42280460 17.91411552 20.83396061
v -80.47222644 15.75424062 19.56865151
v -75.25984970 12.35418833 24.29557380
v -80.41207957 16.79411826 15.21554973
v -79.98133944 15.02351973 14.53519138
v -77.20655404 20.55456500 14.05730891
v -74.44326695 17.21102057 20.20658218
v -79.43273622 19.19063335 12.79841124
v -75.53617001 19.76877391 17.33601487
v -77.97776460 20.85994148 16.45053906
v -76.43581299 10.06885496 23.68107882
v -77.59787160 14.80887879 18.97200143
v -74.90179299 15.46883164 20.59459825
v -79.36985120 19.74745698 13.08205900
v -81.98352645 8.48345130 26.59394119
v -74.74691003 25.19285503 17.69983128
v -74.27063286 19.21863166 19.46667667
v -82.88083875 9.21578911 25.16346294
v -80.60188299 8.95089015 24.47529617
v -79.23780131 13.06200963 20.41661462
v -75.11330816 19.10459233 18.47767071
v -79.32359809 14.82363940 22.18864935
v -78.63343743 8.82976457 25.62269845
v -81.88394143 9.20096908 24.12781769
v -77.02029435 19.41221359 14.07123802
v -78.84172544 20.78468376 13.56199489
v -75.55648963 16.63520802 19.33351605
v -76.70415905 9.43376234 24.63189368
v -80.07202647 15.20670700 15.38112622
v -80.43796302 12.09686968 24.69879359
v -76.85467407 17.57436001 15.58477470
v -76.64223389 15.39815298 22.66118105
v -77.51762030 21.42237719 16.69403311
v -75.77912330 23.27547206 18.50242352
v -79.76543483 14.78312025 13.77331874
v -78.69311393 15.08139590 22.34574187
v -81.69108519 10.65600578 22.89695749
v -74.72677407 13.09790455 21.84845743
v -80.09253029 10.90934695 25.97871870
v -79.42096998 19.72799878 14.13032821
v -77.14108723 21.21745237 16.45298139
v -75.70380266 9.92166218 24.01277429
v -81.72747507 11.49391720 23.39989390
v -75.96800809 20.14850959 15.91559008
v -77.91740793 15.71803917 16.05680044
v -74.14444344 19.27804014 19.96581166
v -73.98689116 20.85638251 19.10040569
v -73.93702360 22.26951313 18.49301193
v -80.59615137 14.15605428 21.35525040
v -80.25967851 13.12597223 20.40900426
v -79.82595487 11.44963913 25.51755866
v -76.84542910 23.58178074 17.69259708
v -80.43725922 9.59354301 23.45232802
v -78.36340156 21.12335818 14.25123728
v -81.47986960 8.36377825 25.68930289
v -78.93100284 14.92838692 16.87491554
v -79.76487470 8.35628579 26.50344146
v -82.93287683 9.65552386 25.07054947
v -81.10144859 8.26417374 26.13438455
v -80.35753686 17.26563105 13.89532353
v -80.62993200 8.67677758 25.14766315
v -75.63786625 17.41504640 18.45852278
v -76.47302248 23.23494649 18.17926539
v -74.32671437 16.88247158 21.20391499
v -76.32057982 14.68207862 20.21130986
v -81.75918751 10.99784013 25.30970442
v -78.42692864 21.44312916 17.53652311
v -78.80801799 19.93597431 16.60795038
v -76.81115291 21.22547135 15.31268566
v -80.27202237 14.96006540 18.18711221
v -74.52783055 20.02018216 18.78159200
v -82.23374799 10.88007814 24.36923200
v -80.38937673 13.38146684 22.80854365
v -76.93491359 18.38871437 14.50240594
v -74.12345334 20.53558527 19.54125539
v -80.06217889 12.45570016 20.95723785
v -80.47735770 15.02983095 19.31403328
v -76.38262532 10.91742239 25.48108715
v -78.23285086 15.29723925 16.95369850
v -79.83581310 14.07258551 19.05151712
v -79.65729052 13.18181062 20.23349364
v -80.13382553 15.24115219 13.95198116
v -77.72047192 9.88459925 23.72821085
v -79.78623102 14.88124727 14.81959253
v -76.03666400 24.58415021 16.94055008
v -79.77606940 14.75742191 12.94096742
v -74.92358573 17.66788563 19.42692929
v -79.34024833 16.13616545 21.00924094
v -81.77278858 11.29565953 23.14640272
v -75.74068835 20.81394709 17.27908604
v -75.99004018 19.85504840 15.64136717
v -76.09468492 22.67021685 17.04591672
v -80.13668305 8.28993040 26.41771994
v -75.00722463 16.24788261 20.10852513
v -79.97252156 13.04303774 20.37289074
v -76.42945392 10.86751981 22.90015078
v -79.46621098 9.08833480 24.47976759
v -77.32371239 23.27858942 17.46740059
v -75.37551686 23.02660739 18.72169350
v -75.28661532 25.00173448 17.76224434
v -74.18714396 16.35626014 21.07699836
v -77.93195973 19.14028783 19.75553092
v -78.87299247 10.28485467 26.38548110
v -75.85154167 20.30581839 16.37089715
v -76.39603220 10.53072471 23.20232875
v -77.79540801 12.52678615 24.77646580
v -76.11124336 16.65523013 21.87184608
v -77.73159945 21.79414544 16.80096778
v -78.31488870 20.60116915 15.84642489
v -80.73032772 12.37035184 24.03457111
v -77.31685701 10.33615102 23.30346961
v -77.88017525 15.68379907 16.66026947
v -74.99324965 20.12080412 18.27405386
v -79.26805882 14.87115033 16.62998361
v -81.42782161 10.94547111 22.48892078
v -74.07876020 21.28138535 18.70290889
v -79.16462614 12.11155738 21.38324481
v -78.31828333 20.57452021 16.58100036
v -80.36599493 15.51626621 18.70136397
v -74.22415748 18.23404597 20.45184557
v -79.21959455 19.08374164 18.62980173
v -73.94937635 13.68224201 22.03162328
v -80.46732366 15.57200366 19.39422785
v -80.95040739 9.91022582 26.46801908
v -79.85828120 15.04308998 15.63156052
v -82.45618208 8.60698482 26.30226060
v -76.61018482 9.32358974 24.92324134
v -82.87846211 9.17708647 25.77128838
v -79.87869510 16.41958928 20.26194660
v -80.08828336 17.13609898 17.24094063
v -75.07069979 11.94927925 24.36743342
v -76.48636502 15.07342041 19.75693194
v -80.78155219 8.20422883 26.49565962
v -82.41970310 10.61805463 24.88508080
v -79.82668736 14.23658801 22.35108393
v -76.52369647 17.10219419 17.16325747
v -76.13133038 10.71106185 25.44114729
v -77.19541255 16.75579272 15.82907565
v -78.27881854 10.71224247 26.11231378
v -78.18321517 10.17691968 23.29817671
v -80.50363967 13.37721642 20.44311974
v -80.18888469 14.05363524 19.36208751
v -79.00092408 20.51035833 14.01645124
v -80.00921033 17.52668579 18.61508815
v -75.86563112 21.64171501 17.23279440
v -76.91122106 21.22660213 14.98676767
v -81.77920506 8.99396421 24.41066159
v -77.66393251 9.04098891 25.57444483
v -74.15750411 24.45400891 17.87733430
v -75.33635966 15.16391215 20.49397405
v -81.92355997 8.88732736 26.58360555
v -79.85472546 9.99921944 23.13761723
v -77.81048271 18.64451877 12.83292562
v -79.76656544 14.88862770 17.20003163
v -75.14939834 22.58597285 17.52864939
v -74.59878876 11.67486563 24.06549767
v -79.80885530 18.25265892 12.91473684
v -79.23078406 14.78388078 12.95414910
v -77.84034110 15.04894558 18.34445072
v -78.66979233 19.55217734 12.74270494
v -80.79557990 12.66949376 23.34889866
v -81.34406640 11.80680627 22.15451442
v -79.94900499 9.97925203 26.57104811
v -76.18788975 21.01013819 16.77432004
v -78.50778024 15.03621847 17.24516510
v -79.81590219 18.17369541 17.74465075
v -74.31466728 14.71934412 21.30241373
v -80.00234835 14.41655332 18.63590256
v -74.83589200 12.97195835 23.68527074
v -74.15190873 12.02461803 23.56110217
v -76.44649260 17.66674305 16.46973270
v -80.34608815 11.95845294 21.41374934
v -77.34913636 23.51106991 17.25762843
v -78.87798669 14.68571766 17.78313132
v -74.45249338 21.75910731 18.24336614
v -74.07166474 13.48434748 21.94255059
v -79.41903374 18.89950512 16.80456495
v -76.19014070 18.59876566 16.04051278
v -76.66493668 16.63366276 21.87139253
v -74.19385084 12.71070018 22.28158439
v -75.23999127 15.80912469 20.16889823
v -74.60374578 18.09865388 19.57261121
v -77.38535559 15.42810886 18.31699234
v -81.12513494 8.23127774 26.61651839
v -77.38879782 21.26691609 15.70540620
v -79.12215106 14.47125015 18.20313254
v -79.72924274 18.41390259 16.04353344
v -79.48432332 13.69280909 19.57837462
v -77.82460754 21.36003858 14.80855785
v -79.18375587 13.66187704 23.42614266
v -80.22475623 15.60106637 16.12023962
v -77.62072439 10.15400736 26.19123969
v -78.20179555 15.32156793 15.12114038
v -76.90954198 24.15284880 16.92291719
v -73.92761681 22.28592817 18.71213617
v -74.03257483 11.83432942 22.90751418
v -79.49350675 19.15068654 15.33775969
v -79.18013510 12.06182364 25.09118886
v -77.04855810 23.53857161 16.78821875
v -78.62538687 18.42171906 12.52788791
v -75.98249875 17.22559496 17.99925699
v -75.10877318 14.25530870 21.09337410
v -75.56841599 18.30272156 17.47640267
v -77.85622137 9.09244039 25.21537693
v -76.39108810 15.81687209 19.09472887
v -76.36565815 20.41328679 15.28194357
v -76.60387618 21.03903062 15.38522168
v -76.75245626 20.17045065 14.53599838
v -75.07218370 13.58726428 23.48351494
v -80.28766846 17.22453205 13.53052233
v -81.06826258 12.42884695 23.26866377
v -77.64246455 16.07195102 15.62760707
v -76.25445823 9.74135156 24.14663083
v -78.34279961 21.24163327 17.91666964
v -78.75286901 20.75634528 17.45276076
v -78.70112224 9.07216056 24.90018548
v -76.06903107 25.07623203 17.32999928
v -77.26156402 18.83112406 13.37838239
v -74.11440908 15.50107674 21.43638059
v -79.64435240 9.49493474 26.73872969
v -75.19547584 10.03113135 24.24314829
v -76.74445199 20.51070849 14.78384451
v -76.99657061 18.70506966 14.10379320
v -76.99953125 9.29867048 25.54815661
v -80.39902493 9.34052392 26.81150305
v -76.79976462 13.22233799 24.22019201
v -80.24307161 15.44281951 14.59884488
v -77.26311094 22.55153287 16.80455968
v -78.96473982 19.87501985 16.87333260
v -80.24464373 16.65928920 16.81671515
v -78.75917341 14.40108092 18.58666610
v -77.67325468 20.21442580 13.39771728
v -75.83493025 18.06336580 17.16908272
v -78.64308079 14.04666893 19.30406313
v -76.47366053 18.90868354 20.57241342
v -77.11880987 17.75876997 13.78898170
v -74.90820956 10.64304886 24.54478431
v -78.17853356 13.92716191 23.50873348
v -76.46521142 19.83322740 14.98448889
v -74.14667744 19.21887796 19.72939845
v -79.97619137 18.19819622 13.41585346
v -80.29982096 16.12307595 17.09318944
v -77.58763429 14.33104564 19.65375323
v -78.14223071 21.24034432 16.79766431
v -76.84237631 13.07133173 21.22333380
v -75.00768914 24.62050379 17.23475715
v -80.37184432 17.23475453 14.29004456
v -76.73658976 22.79447654 16.87919277
v -74.23787330 17.20431942 20.86418107
v -78.73196607 20.40417001 15.15653328
v -82.66330456 8.76128665 25.95375554
v -76.64578736 22.05956257 18.73327601
v -75.33211875 25.12809530 17.11870883
v -75.18436011 17.21057190 21.46296599
v -80.44618145 12.57749325 20.94328355
v -78.96589506 20.31634045 14.53498982
v -75.27611655 19.62344774 20.29455986
v -76.91574356 24.19189629 17.20783915
v -75.71728967 25.37470797 17.17322774
v -77.79295733 20.92203489 16.20292430
v -77.19198487 21.44474778 15.06760415
v -77.13563807 9.99922018 23.69564681
v -79.68299010 18.31761651 16.62295715
v -77.92250948 9.43444316 26.41105525
v -74.18285507 24.11786664 17.76718397
v -77.72973897 9.33490903 26.27919838
v -75.98081620 10.13957583 25.43241496
v -79.65941618 10.72315788 22.54396474
v -74.46711514 16.97807273 21.29618394
v -77.64546849 14.54847081 23.12239695
v -79.09017891 13.70815836 19.60172976
v -78.80885203 17.91620121 20.00926084
v -79.81617686 17.30279570 19.47122158
v -74.41820954 10.91578440 23.88386811
v -77.44194420 21.07650319 16.08546553
v -77.28149487 10.44461114 25.99582245
v -79.19131959 17.16700068 12.26595207
v -74.03256659 14.64255169 21.69994381
v -82.32060338 8.69326283 25.10623178
v -75.49956374 21.38072265 17.50927080
v -79.66672701 15.19729856 12.47497689
v -80.02751119 17.79156327 15.64464038
v -82.02950376 10.45141899 23.47249157
v -76.94415994 21.56525916 16.74955685
v -74.58712878 11.27430263 22.96944124
v -78.13203786 19.23242185 12.84763245
v -76.98718906 9.46052088 25.84168491
v -79.52802528 12.54041831 20.90804925
v -74.82767385 14.71561002 21.01320469
v -74.17596897 11.47896234 23.61672265
v -78.89516332 15.83792800 12.36529831
v -80.28269525 16.12313629 18.69126503
v -77.15960249 10.76334390 22.91898309
v -74.90137809 10.43503757 24.31720715
v -78.40378198 15.27162987 16.22774042
v -79.28887081 19.42485292 17.90543884
f 237 654 696
f 696 270 431
f 654 270 696
f 690 49 431
f 49 237 696
f 49 696 431
f 20 690 431
f 453 431 270
f 453 270 537
f 654 537 270
f 522 49 690
f 631 237 49
f 631 695 237
f 695 654 237
f 304 431 453
f 489 654 695
f 46 654 489
f 537 654 46
f 160 49 636
f 636 49 522
f 160 631 49
f 20 683 690
f 431 304 20
f 537 50 453
f 152 522 690
f 108 695 631
f 108 610 695
f 304 702 20
f 535 695 610
f 453 315 304
f 50 315 453
f 46 489 500
f 46 50 537
f 235 463 39
f 685 665 636
f 522 685 636
f 522 152 685
f 690 308 152
f 683 308 690
f 108 631 160
f 304 586 702
f 489 695 535
f 174 500 489
f 5 463 235
f 235 95 264
f 451 463 5
f 264 95 86
f 235 39 95
f 463 451 341
f 463 341 580
f 86 95 68
f 95 39 68
f 491 463 580
f 463 491 39
f 90 108 160
f 210 610 108
f 315 586 304
f 471 50 46
f 5 235 82
f 82 235 264
f 580 341 477
f 39 491 626
f 68 39 626
f 152 308 529
f 90 210 108
f 20 434 683
f 504 610 210
f 651 610 504
f 651 535 610
f 489 535 271
f 271 162 489
f 162 174 489
f 315 50 167
f 445 451 5
f 669 264 443
f 443 264 86
f 15 341 451
f 443 86 583
f 583 68 698
f 583 86 68
f 580 477 693
f 301 68 626
f 580 693 342
f 342 491 580
f 636 665 160
f 210 90 289
f 434 20 702
f 271 535 651
f 315 184 586
f 500 471 46
f 50 471 536
f 50 536 167
f 471 18 536
f 445 15 451
f 15 195 341
f 341 195 477
f 301 698 68
f 693 477 364
f 626 491 342
f 529 685 152
f 683 288 308
f 315 409 184
f 162 395 174
f 174 689 500
f 597 5 82
f 445 5 429
f 264 669 82
f 445 594 15
f 594 678 15
f 659 443 583
f 364 477 634
f 364 687 693
f 687 342 693
f 126 626 342
f 301 626 126
f 665 545 160
f 529 275 685
f 90 160 681
f 210 289 652
f 210 652 504
f 586 184 702
f 395 689 174
f 500 689 471
f 429 5 597
f 497 15 678
f 195 15 497
f 443 659 645
f 698 506 583
f 299 634 477
f 698 301 622
f 622 301 126
f 342 546 126
f 160 545 681
f 128 685 275
f 288 529 308
f 702 184 396
f 162 362 395
f 167 409 315
f 689 18 471
f 597 82 723
f 669 723 82
f 669 77 76
f 443 77 669
f 195 299 477
f 643 659 583
f 644 583 506
f 262 698 622
f 506 698 262
f 546 342 687
f 665 418 545
f 418 665 685
f 128 418 685
f 128 275 721
f 529 288 275
f 90 420 289
f 504 339 651
f 184 157 632
f 184 409 157
f 395 337 689
f 536 121 167
f 590 723 76
f 637 597 723
f 429 597 637
f 355 361 445
f 355 445 429
f 669 76 723
f 445 361 594
f 594 647 678
f 645 77 443
f 647 497 678
f 643 645 659
f 643 583 644
f 253 506 262
f 622 281 262
f 546 687 101
f 281 622 712
f 546 697 126
f 126 697 712
f 126 712 622
f 418 128 470
f 470 128 721
f 288 277 275
f 136 90 681
f 136 420 90
f 592 288 683
f 683 434 592
f 733 504 652
f 162 271 103
f 162 103 362
f 437 409 167
f 157 409 437
f 362 539 395
f 539 337 395
f 437 167 121
f 536 334 121
f 637 389 311
f 389 590 388
f 389 637 723
f 590 389 723
f 355 429 714
f 714 429 637
f 76 655 590
f 590 655 388
f 76 77 655
f 77 645 462
f 462 645 198
f 684 195 497
f 676 198 645
f 195 296 299
f 195 392 296
f 299 296 634
f 506 185 644
f 253 185 506
f 687 364 101
f 262 281 378
f 262 378 253
f 712 697 478
f 712 478 281
f 546 432 697
f 281 478 62
f 378 281 62
f 432 555 447
f 432 447 697
f 697 447 338
f 697 338 478
f 338 721 478
f 478 721 62
f 555 470 447
f 447 470 338
f 681 418 555
f 555 418 470
f 721 338 470
f 62 721 277
f 681 545 418
f 721 275 277
f 155 136 681
f 288 582 277
f 288 118 582
f 592 118 288
f 420 26 289
f 592 434 391
f 434 702 391
f 26 652 289
f 733 339 504
f 208 339 733
f 339 208 558
f 339 43 651
f 339 558 43
f 651 43 271
f 43 103 271
f 689 24 18
f 18 334 536
f 311 389 400
f 206 389 388
f 714 637 311
f 269 388 655
f 714 100 355
f 361 355 100
f 594 361 240
f 77 462 655
f 528 676 645
f 643 528 645
f 644 102 643
f 481 643 102
f 644 185 102
f 364 634 101
f 185 253 601
f 546 101 335
f 601 253 378
f 335 432 546
f 335 555 432
f 62 401 378
f 62 277 401
f 155 681 555
f 505 155 555
f 582 401 277
f 582 118 717
f 666 26 420
f 136 666 420
f 733 652 26
f 184 485 396
f 632 485 184
f 337 24 689
f 24 256 18
f 256 334 18
f 389 206 400
f 129 206 388
f 361 100 240
f 240 647 594
f 655 660 269
f 462 660 655
f 462 198 660
f 676 186 198
f 676 528 186
f 634 296 624
f 634 624 310
f 634 310 101
f 101 310 335
f 505 555 335
f 378 401 601
f 601 401 527
f 155 505 666
f 155 666 136
f 582 527 401
f 582 717 527
f 118 592 717
f 592 391 268
f 702 612 391
f 612 702 396
f 437 9 157
f 166 437 121
f 256 370 334
f 714 311 47
f 129 16 206
f 714 47 100
f 388 269 129
f 425 240 100
f 425 647 240
f 198 511 660
f 198 186 511
f 83 186 133
f 186 528 133
f 684 392 195
f 481 528 643
f 102 541 481
f 296 392 719
f 185 218 102
f 601 527 185
f 310 231 335
f 231 505 335
f 61 505 231
f 61 666 505
f 666 61 26
f 717 592 268
f 603 733 26
f 581 733 603
f 581 208 733
f 396 485 553
f 98 632 157
f 362 103 280
f 362 280 709
f 709 539 362
f 98 157 9
f 166 9 437
f 728 311 400
f 673 129 269
f 425 100 216
f 113 647 425
f 660 673 269
f 660 511 673
f 113 497 647
f 186 83 511
f 684 497 113
f 441 392 684
f 541 1 481
f 624 296 719
f 102 218 541
f 624 231 310
f 383 185 527
f 383 218 185
f 614 61 231
f 717 268 427
f 612 268 391
f 75 558 208
f 43 280 103
f 334 166 121
f 334 370 348
f 311 728 718
f 47 311 718
f 47 216 100
f 40 129 673
f 425 156 113
f 528 414 133
f 265 414 528
f 528 225 265
f 481 225 528
f 481 1 225
f 541 218 1
f 624 700 231
f 527 134 383
f 307 61 614
f 527 717 427
f 268 550 427
f 396 553 612
f 303 208 581
f 632 484 485
f 75 208 303
f 558 230 43
f 43 230 280
f 632 98 512
f 348 166 334
f 205 728 400
f 16 400 206
f 156 260 113
f 83 276 511
f 263 684 113
f 83 133 615
f 263 441 684
f 133 414 615
f 274 392 441
f 392 274 122
f 122 719 392
f 624 719 399
f 446 207 1
f 1 207 225
f 218 446 1
f 383 446 218
f 427 134 527
f 307 26 61
f 307 603 26
f 268 612 550
f 485 484 553
f 710 230 558
f 75 710 558
f 205 400 16
f 47 718 14
f 14 216 47
f 16 129 40
f 14 425 216
f 79 425 14
f 79 156 425
f 673 511 317
f 276 317 511
f 276 83 468
f 263 113 260
f 615 468 83
f 122 399 719
f 624 399 700
f 134 446 383
f 700 614 231
f 307 614 700
f 553 508 612
f 484 632 512
f 230 247 280
f 709 280 247
f 256 24 2
f 205 92 728
f 363 16 40
f 664 260 156
f 468 317 276
f 265 200 414
f 207 265 225
f 207 200 265
f 122 567 399
f 373 123 446
f 134 373 446
f 412 373 134
f 700 399 307
f 427 412 134
f 550 612 508
f 233 581 603
f 98 9 91
f 91 9 192
f 539 321 337
f 337 321 24
f 694 192 166
f 9 166 192
f 166 348 694
f 256 325 370
f 348 370 325
f 92 718 728
f 523 14 718
f 7 14 523
f 79 14 7
f 156 79 519
f 664 156 519
f 150 263 260
f 615 414 267
f 314 274 441
f 274 667 122
f 667 567 122
f 446 123 207
f 550 412 427
f 189 603 307
f 603 189 233
f 233 439 303
f 581 233 303
f 91 192 257
f 24 321 2
f 2 672 256
f 256 672 325
f 363 205 16
f 718 92 595
f 523 718 595
f 7 519 79
f 673 317 40
f 468 575 317
f 56 260 664
f 608 468 615
f 608 615 267
f 263 314 441
f 414 670 267
f 414 200 670
f 640 200 207
f 123 640 207
f 189 307 399
f 508 81 550
f 508 553 454
f 484 454 553
f 484 483 677
f 512 483 484
f 258 75 303
f 423 75 258
f 75 423 710
f 566 230 710
f 512 98 91
f 205 190 92
f 595 92 190
f 363 190 205
f 442 519 7
f 7 472 442
f 384 40 317
f 519 442 664
f 575 384 317
f 442 466 664
f 56 150 260
f 150 314 263
f 139 314 150
f 139 274 314
f 165 567 667
f 567 189 399
f 550 458 412
f 729 560 233
f 560 439 233
f 258 303 439
f 566 710 423
f 247 230 566
f 512 91 438
f 709 28 539
f 539 28 321
f 2 55 672
f 55 60 672
f 672 60 325
f 354 523 595
f 40 151 363
f 472 523 354
f 472 7 523
f 40 384 151
f 468 241 575
f 466 56 664
f 56 628 150
f 267 154 608
f 670 154 267
f 200 640 670
f 679 274 139
f 274 679 667
f 45 667 679
f 45 165 667
f 123 58 640
f 165 189 567
f 81 458 550
f 165 233 189
f 619 81 508
f 677 454 484
f 512 438 483
f 247 525 709
f 709 525 28
f 595 190 23
f 190 363 295
f 595 23 354
f 151 119 363
f 442 472 521
f 466 442 562
f 608 241 468
f 628 139 150
f 573 608 154
f 373 58 123
f 45 233 165
f 729 233 45
f 508 454 619
f 59 321 28
f 59 2 321
f 325 305 348
f 694 348 305
f 23 190 295
f 363 119 295
f 649 151 384
f 562 442 521
f 521 182 562
f 649 384 575
f 573 241 608
f 154 670 638
f 640 638 670
f 234 679 139
f 234 45 679
f 58 499 640
f 556 45 234
f 458 259 412
f 259 373 412
f 454 444 619
f 483 557 677
f 181 258 439
f 181 423 258
f 305 192 694
f 525 116 28
f 116 59 28
f 55 2 48
f 60 305 325
f 55 616 60
f 23 406 131
f 23 295 406
f 131 354 23
f 406 295 630
f 119 630 295
f 131 472 354
f 151 630 119
f 131 182 472
f 131 130 182
f 482 630 649
f 151 649 630
f 182 521 472
f 182 130 343
f 182 343 551
f 238 482 649
f 575 238 649
f 182 417 562
f 182 551 417
f 575 290 238
f 573 290 241
f 241 290 575
f 346 56 466
f 562 346 466
f 346 562 417
f 346 628 56
f 346 407 628
f 499 426 640
f 640 426 638
f 373 96 58
f 259 96 373
f 347 556 234
f 556 729 45
f 560 729 556
f 444 454 203
f 677 203 454
f 677 223 203
f 557 223 677
f 483 438 557
f 219 247 566
f 48 2 59
f 286 55 48
f 406 130 131
f 114 406 630
f 732 114 630
f 251 130 406
f 343 130 251
f 251 406 114
f 343 251 493
f 493 551 343
f 732 251 114
f 482 732 630
f 493 251 226
f 226 251 732
f 549 732 482
f 549 482 238
f 292 417 551
f 290 112 238
f 591 407 346
f 346 417 591
f 57 290 573
f 573 44 57
f 407 139 628
f 154 44 573
f 34 139 407
f 44 154 638
f 34 234 139
f 507 234 34
f 507 347 234
f 259 322 96
f 458 81 259
f 486 566 423
f 116 78 59
f 78 48 59
f 78 236 48
f 732 516 226
f 602 226 516
f 549 516 732
f 493 226 602
f 180 516 549
f 312 602 516
f 239 516 180
f 312 516 239
f 551 19 292
f 19 551 493
f 112 549 238
f 112 180 549
f 239 180 112
f 112 109 239
f 290 109 112
f 292 591 417
f 57 109 290
f 33 34 407
f 499 36 426
f 58 96 499
f 259 81 322
f 81 424 322
f 524 424 81
f 556 514 560
f 619 524 81
f 32 439 560
f 181 439 32
f 557 686 223
f 219 566 486
f 305 691 192
f 257 192 691
f 544 305 60
f 236 286 48
f 286 616 55
f 493 611 19
f 602 611 493
f 602 323 611
f 323 602 312
f 19 31 292
f 292 31 591
f 57 375 109
f 591 33 407
f 591 31 35
f 591 35 33
f 44 638 85
f 33 507 34
f 85 638 426
f 507 33 605
f 96 36 499
f 347 507 435
f 514 556 347
f 32 560 514
f 444 203 141
f 141 203 538
f 223 538 203
f 686 538 223
f 181 486 423
f 405 691 305
f 219 525 247
f 405 305 544
f 116 525 368
f 312 377 323
f 19 611 623
f 109 620 239
f 375 620 109
f 19 623 31
f 80 35 31
f 605 33 35
f 85 57 44
f 85 426 642
f 426 36 374
f 96 464 36
f 322 464 96
f 8 514 347
f 424 524 222
f 619 444 222
f 306 32 514
f 557 501 686
f 501 557 438
f 91 257 438
f 486 326 219
f 616 544 60
f 116 473 78
f 473 236 78
f 611 323 668
f 596 312 239
f 596 377 312
f 668 323 377
f 239 620 596
f 623 611 668
f 596 620 449
f 31 623 74
f 74 80 31
f 80 605 35
f 57 85 375
f 374 642 426
f 579 507 605
f 374 36 64
f 36 464 64
f 435 507 579
f 424 464 322
f 435 8 347
f 619 222 524
f 306 514 8
f 438 706 501
f 438 257 706
f 525 219 171
f 525 171 368
f 368 459 116
f 459 473 116
f 236 357 286
f 377 397 668
f 623 668 74
f 385 620 375
f 85 385 375
f 517 605 80
f 517 579 605
f 464 93 64
f 222 531 424
f 578 435 579
f 444 169 222
f 175 32 306
f 175 181 32
f 284 486 181
f 171 219 326
f 171 572 368
f 473 333 236
f 236 333 707
f 236 707 357
f 285 377 596
f 397 377 285
f 671 668 397
f 285 596 449
f 620 385 449
f 385 85 642
f 374 164 642
f 202 579 517
f 464 424 93
f 424 618 93
f 222 169 531
f 578 8 435
f 106 169 444
f 141 106 444
f 172 141 538
f 686 501 297
f 336 706 257
f 486 284 229
f 486 229 326
f 368 572 459
f 286 357 469
f 469 616 286
f 3 333 473
f 74 668 671
f 671 397 124
f 124 397 680
f 680 397 285
f 642 249 385
f 569 249 642
f 80 74 625
f 164 374 64
f 64 93 164
f 164 93 143
f 93 618 587
f 487 579 202
f 424 531 618
f 578 579 487
f 169 450 531
f 175 284 181
f 686 297 538
f 99 538 297
f 125 257 691
f 336 257 125
f 326 229 204
f 326 204 171
f 544 616 469
f 572 309 459
f 459 309 473
f 309 3 473
f 285 449 680
f 449 385 680
f 671 708 74
f 680 385 249
f 708 625 74
f 642 164 569
f 625 517 80
f 625 202 517
f 93 587 143
f 531 450 618
f 169 604 450
f 8 12 306
f 8 578 12
f 172 106 141
f 538 656 172
f 99 656 538
f 501 212 297
f 706 212 501
f 111 691 405
f 405 544 66
f 111 405 66
f 3 419 333
f 333 419 675
f 333 675 707
f 124 146 671
f 671 331 708
f 671 146 331
f 502 249 569
f 502 569 164
f 625 457 518
f 143 502 164
f 518 532 202
f 518 202 625
f 143 587 21
f 532 487 202
f 618 450 587
f 450 726 587
f 450 604 726
f 169 106 604
f 104 229 284
f 212 706 336
f 248 204 229
f 544 469 66
f 627 419 3
f 71 146 124
f 69 680 249
f 502 328 249
f 457 625 708
f 21 502 143
f 692 578 487
f 197 306 12
f 578 197 12
f 106 168 604
f 172 168 106
f 656 715 172
f 193 284 175
f 327 229 104
f 327 248 229
f 111 125 691
f 171 204 510
f 171 510 572
f 707 381 357
f 469 357 381
f 675 117 707
f 680 132 124
f 69 132 680
f 71 124 132
f 328 69 249
f 708 331 457
f 328 502 84
f 84 502 21
f 639 228 21
f 639 21 587
f 726 639 587
f 513 487 532
f 692 487 513
f 692 54 578
f 54 197 578
f 172 715 168
f 297 188 99
f 212 188 297
f 510 287 572
f 287 309 572
f 287 272 309
f 309 272 3
f 627 3 272
f 419 390 675
f 191 331 146
f 71 191 146
f 65 69 328
f 457 331 191
f 228 84 21
f 104 284 193
f 214 188 212
f 675 390 117
f 707 117 381
f 627 27 419
f 65 132 69
f 84 224 328
f 84 228 224
f 457 725 518
f 513 532 518
f 692 513 609
f 692 609 319
f 54 692 319
f 306 245 175
f 306 197 245
f 245 193 175
f 336 214 212
f 125 194 336
f 248 327 359
f 287 173 272
f 173 627 272
f 27 627 173
f 27 390 419
f 224 65 328
f 161 457 191
f 161 725 457
f 358 228 639
f 513 518 725
f 54 319 135
f 148 715 656
f 345 245 197
f 22 66 469
f 66 22 111
f 248 359 648
f 648 598 248
f 598 329 510
f 248 598 510
f 204 248 510
f 329 287 510
f 287 329 386
f 287 386 173
f 65 367 132
f 132 367 153
f 682 367 65
f 291 161 191
f 291 191 71
f 291 71 153
f 153 71 132
f 178 224 228
f 358 639 475
f 379 475 639
f 379 639 726
f 213 513 725
f 168 613 604
f 168 559 613
f 245 345 599
f 599 193 245
f 394 327 104
f 179 214 336
f 336 194 179
f 194 125 298
f 394 359 327
f 111 298 125
f 145 648 359
f 381 22 469
f 65 224 682
f 725 554 127
f 554 725 161
f 213 725 127
f 604 379 726
f 609 513 213
f 715 559 168
f 197 54 345
f 148 559 715
f 656 99 148
f 99 158 148
f 188 158 99
f 193 394 104
f 480 359 394
f 111 22 298
f 480 145 359
f 648 145 142
f 142 598 648
f 598 547 329
f 598 142 547
f 547 386 329
f 173 386 467
f 153 201 291
f 105 228 358
f 105 178 228
f 554 360 127
f 554 161 291
f 379 604 613
f 319 609 220
f 193 599 340
f 214 158 188
f 394 193 340
f 646 179 194
f 266 145 480
f 117 663 381
f 145 266 142
f 142 266 17
f 27 173 467
f 142 209 547
f 436 386 547
f 467 386 436
f 467 53 27
f 547 209 436
f 682 42 367
f 30 153 367
f 30 367 42
f 291 201 554
f 201 153 372
f 127 350 213
f 220 135 319
f 135 552 54
f 552 345 54
f 599 345 552
f 394 340 526
f 214 179 232
f 480 394 526
f 22 381 663
f 390 543 117
f 266 480 509
f 509 17 266
f 17 209 142
f 682 224 42
f 120 30 42
f 30 372 153
f 554 201 246
f 246 201 372
f 360 554 246
f 617 475 379
f 617 379 613
f 135 220 163
f 559 148 369
f 232 158 214
f 390 635 543
f 390 27 635
f 27 53 635
f 176 53 467
f 571 17 509
f 571 509 11
f 571 209 17
f 571 294 209
f 294 503 209
f 503 436 209
f 436 503 467
f 503 176 467
f 178 42 224
f 73 105 358
f 475 73 358
f 243 220 609
f 213 243 609
f 559 369 613
f 163 552 135
f 474 599 552
f 158 408 148
f 606 232 179
f 179 646 606
f 526 215 480
f 543 663 117
f 215 509 480
f 11 509 215
f 350 243 213
f 163 220 244
f 371 194 298
f 298 22 371
f 294 571 107
f 120 372 30
f 13 178 105
f 73 13 105
f 617 73 475
f 705 350 127
f 360 705 127
f 613 369 617
f 10 474 552
f 250 369 148
f 148 408 250
f 474 340 599
f 232 408 158
f 606 428 232
f 215 526 340
f 194 371 252
f 22 663 371
f 663 543 196
f 663 196 371
f 70 11 215
f 495 571 11
f 488 53 176
f 635 53 488
f 571 495 107
f 176 503 413
f 294 413 503
f 42 398 120
f 300 73 617
f 415 350 705
f 369 633 617
f 720 340 474
f 720 215 340
f 194 252 646
f 70 402 11
f 488 421 635
f 635 421 543
f 488 176 4
f 176 413 4
f 13 42 178
f 350 415 243
f 244 220 243
f 633 369 87
f 87 369 250
f 163 10 552
f 607 408 232
f 428 607 232
f 568 428 606
f 646 252 606
f 488 4 476
f 13 411 42
f 13 73 187
f 217 246 372
f 300 187 73
f 97 705 360
f 97 360 246
f 300 617 633
f 163 244 115
f 115 10 163
f 29 474 10
f 29 720 474
f 568 606 440
f 720 70 215
f 606 252 440
f 371 324 252
f 147 543 421
f 543 147 196
f 495 11 402
f 413 283 4
f 42 411 398
f 278 411 13
f 120 217 372
f 217 97 246
f 97 589 705
f 589 415 705
f 243 415 261
f 261 244 243
f 408 607 250
f 428 568 593
f 476 421 488
f 421 476 353
f 294 283 413
f 533 730 398
f 533 398 411
f 730 217 120
f 120 398 730
f 211 29 10
f 428 593 607
f 324 440 252
f 371 196 324
f 382 294 107
f 94 476 4
f 283 561 4
f 382 283 294
f 51 278 13
f 51 187 722
f 51 13 187
f 300 722 187
f 589 261 415
f 242 10 115
f 250 607 727
f 242 211 10
f 29 70 720
f 568 440 316
f 316 440 324
f 196 393 324
f 421 353 147
f 565 107 495
f 476 94 353
f 561 94 4
f 577 97 217
f 97 37 589
f 589 490 261
f 38 244 261
f 250 727 87
f 38 115 244
f 461 242 115
f 183 211 242
f 183 29 211
f 568 344 593
f 29 402 70
f 316 324 279
f 393 279 324
f 196 147 393
f 147 576 393
f 147 353 576
f 52 561 283
f 577 217 730
f 51 722 366
f 177 37 97
f 633 722 300
f 633 87 422
f 727 711 87
f 115 38 461
f 461 38 584
f 727 607 593
f 593 344 282
f 402 29 183
f 455 495 402
f 279 393 576
f 283 382 52
f 411 330 533
f 542 730 533
f 542 533 330
f 278 330 411
f 366 330 278
f 278 51 366
f 577 730 548
f 177 97 577
f 722 633 422
f 589 37 490
f 38 261 490
f 38 356 584
f 727 593 674
f 674 593 282
f 316 344 568
f 455 402 183
f 515 316 279
f 576 713 279
f 565 495 455
f 576 353 540
f 94 600 353
f 382 107 565
f 227 52 382
f 548 730 542
f 422 366 722
f 37 332 490
f 37 352 332
f 87 149 422
f 332 38 490
f 711 149 87
f 356 38 332
f 674 711 727
f 356 404 584
f 356 144 404
f 461 716 242
f 584 716 461
f 302 282 344
f 242 67 183
f 242 716 67
f 344 316 574
f 455 183 67
f 574 316 515
f 279 713 515
f 600 540 353
f 600 94 561
f 382 565 227
f 177 577 520
f 577 548 520
f 41 177 520
f 422 433 366
f 37 221 352
f 177 221 37
f 221 177 41
f 352 221 534
f 456 332 352
f 456 356 332
f 456 352 534
f 456 144 356
f 498 144 456
f 302 704 282
f 404 716 584
f 574 302 344
f 6 574 515
f 515 713 6
f 6 713 349
f 713 576 629
f 657 540 600
f 542 448 548
f 330 88 542
f 542 88 448
f 548 699 520
f 699 548 448
f 88 330 366
f 41 534 221
f 433 422 149
f 711 658 149
f 731 658 711
f 731 711 674
f 534 498 456
f 704 674 282
f 72 404 144
f 6 302 574
f 25 455 67
f 629 349 713
f 25 565 455
f 565 25 688
f 255 629 540
f 576 540 629
f 255 540 657
f 387 662 561
f 600 561 662
f 561 52 387
f 699 63 520
f 63 699 448
f 520 63 41
f 650 448 88
f 650 88 479
f 366 479 88
f 366 433 479
f 365 41 63
f 149 658 433
f 41 653 534
f 430 658 731
f 403 430 731
f 674 403 731
f 140 534 653
f 704 403 674
f 313 403 704
f 492 72 144
f 492 144 498
f 404 72 716
f 6 704 302
f 662 657 600
f 688 227 565
f 52 227 588
f 588 387 52
f 448 650 63
f 465 63 650
f 465 650 410
f 410 650 479
f 433 410 479
f 658 410 433
f 41 365 653
f 410 658 254
f 254 658 430
f 403 273 430
f 273 313 724
f 403 313 273
f 704 6 313
f 349 313 6
f 25 67 716
f 25 716 199
f 629 255 349
f 657 380 255
f 563 227 688
f 63 465 365
f 564 465 410
f 410 254 564
f 465 641 365
f 273 254 430
f 365 641 653
f 641 460 653
f 653 460 140
f 661 273 724
f 498 534 140
f 724 313 703
f 199 716 72
f 349 703 313
f 25 199 563
f 349 255 701
f 563 688 25
f 89 380 657
f 657 662 89
f 227 563 588
f 452 588 563
f 351 387 588
f 465 564 641
f 585 641 564
f 661 585 564
f 661 564 254
f 585 460 641
f 661 254 273
f 140 460 320
f 416 585 661
f 496 492 498
f 137 199 72
f 349 701 703
f 199 137 563
f 563 137 293
f 701 255 380
f 89 662 351
f 387 351 662
f 588 452 351
f 460 585 138
f 496 498 140
f 138 585 416
f 724 416 661
f 703 159 724
f 724 159 416
f 137 72 293
f 452 563 293
f 351 110 89
f 138 320 460
f 530 140 320
f 494 320 138
f 159 494 138
f 159 138 416
f 72 496 293
f 496 72 492
f 701 170 703
f 380 170 701
f 293 621 452
f 452 621 376
f 380 89 170
f 452 376 351
f 351 376 110
f 530 570 140
f 320 494 530
f 140 570 496
f 703 170 159
f 159 170 494
f 621 293 496
f 621 496 570
f 376 318 110
f 110 318 89
f 89 318 170
f 570 530 318
f 318 530 494
f 621 570 318
f 318 494 170
f 376 621 318