# https://github.com/mikedh/trimesh
v 423766.95430000 163902.51660000 168734.60830000
v 427285.48520000 168185.98280000 166968.67000000
v 426101.22630000 165224.19950000 165668.56230000
v 425955.90660000 170518.94990000 173329.05060000
v 431103.77210000 172527.76470000 168587.45280000
v 463552.61880000 142714.03470000 164765.71470000
v 466968.99970000 144856.65260000 163523.12790000
v 461846.80630000 145232.83430000 167860.67430000
v 465988.33020000 143094.87670000 163081.72580000
v 461405.82820000 146980.53520000 165659.20500000
v 420400.08130000 165348.90100000 176616.62000000
v 465508.87240000 145950.83060000 171606.01360000
v 464448.36460000 142274.30910000 167568.74320000
v 465556.46260000 141530.04540000 170656.82370000
v 463101.21440000 148415.77730000 171673.00130000
v 461502.20970000 150984.50430000 168962.46010000
v 463531.94980000 152458.63160000 170435.37640000
v 421186.54540000 168043.06280000 180613.94340000
v 462787.03660000 153804.94090000 175585.51140000
v 418457.45130000 165972.55830000 182736.94640000
v 471456.48730000 139180.75840000 173759.78700000
v 468779.09110000 151250.13110000 180969.52650000
v 464533.20260000 156075.93910000 177839.24290000
v 473516.98310000 135317.40570000 180455.12700000
v 468078.76770000 132240.47350000 175166.34290000
v 470832.58490000 147591.55740000 183897.94140000
v 461605.00550000 159703.09120000 181813.36150000
v 416431.58680000 165770.42940000 188443.75210000
v 421246.39170000 164100.79040000 192389.17630000
v 419803.52590000 166711.45070000 187617.81570000
v 422738.49410000 169341.58060000 187415.63590000
v 405937.57610000 113768.82370000 184819.67120000
v 401946.85100000 117280.85850000 184823.65230000
v 403106.13870000 114675.43560000 182501.79770000
v 449792.37280000 122250.02460000 178779.99930000
v 453915.26220000 123952.74680000 177682.11460000
v 451882.66670000 124101.64850000 181235.01650000
v 460625.11730000 126213.82160000 181970.18020000
v 459783.41180000 127687.92160000 173658.36920000
v 464635.28090000 130916.38680000 174091.93710000
v 388186.61680000 123543.89620000 190954.37050000
v 389337.68590000 129546.25130000 193009.31070000
v 389666.95870000 127861.84810000 188783.96440000
v 390354.22520000 134980.72770000 192885.49040000
v 390639.99830000 132797.13710000 189768.48150000
v 414459.37030000 161680.96020000 193331.94560000
v 416029.46100000 163938.23900000 198321.33850000
v 423735.70890000 170817.83050000 194580.32340000
v 440088.06240000 116113.49060000 182016.06930000
v 441772.53890000 116107.37720000 179162.67530000
v 447035.33800000 117737.17340000 179743.91850000
v 441893.96960000 122297.63380000 186710.50680000
v 404826.56890000 118001.35450000 192095.42130000
v 398783.71830000 120475.53880000 190309.88390000
v 397964.95340000 117732.52430000 187022.73970000
v 445531.33750000 123972.05010000 185872.12100000
v 393459.15170000 121281.07150000 190042.00050000
v 393689.31810000 124012.44270000 195308.42630000
v 474062.72690000 141748.82530000 184495.58940000
v 469468.26050000 153373.57440000 188155.74770000
v 466664.89980000 158026.60050000 190688.19830000
v 414015.55790000 160063.03700000 197846.96400000
v 423518.76330000 164203.72200000 194788.34560000
v 406491.83920000 110174.23430000 185517.14560000
v 412579.08970000 115006.79140000 192230.67970000
v 438642.48670000 121187.54840000 185044.45650000
v 436909.42980000 118750.45020000 185272.23350000
v 454190.62840000 122849.20970000 184992.85770000
v 392298.09370000 136354.84760000 200458.02760000
v 391668.11460000 141202.01950000 200179.83150000
v 395653.12900000 147323.23990000 199596.14580000
v 389807.46330000 144586.25570000 198838.78880000
v 402327.04630000 153726.31950000 198507.28040000
v 400864.10950000 145240.62500000 199329.79330000
v 405936.29680000 149999.44020000 199047.43640000
v 400092.15030000 153179.44670000 199711.87590000
v 458727.60340000 162423.88330000 184489.72670000
v 426052.37150000 167625.40400000 196892.95050000
v 426359.92860000 172488.48530000 195312.11270000
v 410693.97990000 107755.64370000 183592.93900000
v 413472.29590000 110523.57300000 188823.46550000
v 416416.47260000 109198.98750000 186335.70260000
v 431547.14670000 116821.47720000 188237.14970000
v 435821.69900000 120829.31100000 190534.23670000
v 411506.80650000 117673.35270000 195039.45230000
v 443653.37950000 121709.59680000 192428.86380000
v 404406.99660000 119996.78430000 197592.85940000
v 463951.27320000 125381.70310000 186578.30260000
v 471011.32230000 130281.80370000 184832.86020000
v 474014.95730000 135504.08070000 191962.78240000
v 397478.34160000 141019.79640000 202749.69650000
v 405605.59200000 149571.87350000 203520.97330000
v 408437.50860000 154102.07100000 199707.55440000
v 407267.41340000 155195.93740000 201051.62390000
v 409998.22950000 157690.24630000 200865.47890000
v 414387.03040000 160583.43370000 208085.05650000
v 419715.34120000 165917.78640000 206085.62230000
v 423804.44500000 165432.21440000 204357.16710000
v 454572.31840000 167339.31720000 188791.86270000
v 455866.78280000 165515.10840000 197770.11030000
v 451322.28530000 169604.69660000 191222.12380000
v 429592.29670000 175243.15300000 196281.80310000
v 432741.10200000 173621.77630000 201320.84480000
v 434041.25730000 176110.24090000 199433.94570000
v 417743.51360000 112755.52300000 188034.66270000
v 416853.85680000 116795.00140000 192825.43890000
v 422925.95100000 115694.09360000 191146.44450000
v 421365.76420000 111258.58820000 185922.20250000
v 426388.14930000 112700.07910000 184754.22300000
v 426600.94110000 116478.86940000 188277.22230000
v 422464.72680000 118340.14650000 193452.56740000
v 427155.77080000 119416.52200000 189715.99950000
v 430822.82030000 119932.70640000 190580.15670000
v 426350.46140000 121372.64470000 192777.14930000
v 451140.56630000 121575.38050000 192503.30510000
v 401285.52080000 124423.56000000 199954.47970000
v 393587.44450000 128771.64850000 201309.11140000
v 397511.36210000 131546.13230000 201316.95620000
v 471404.96410000 146577.92690000 192012.70940000
v 469265.54920000 154633.31020000 193604.82670000
v 410417.95450000 156815.38790000 206843.32510000
v 462007.75110000 159055.65230000 196586.82610000
v 416604.12190000 162694.38140000 211582.89650000
v 446312.35220000 170517.48820000 200315.74260000
v 446269.88160000 171539.25900000 193245.76380000
v 427900.80030000 171538.02080000 207716.04070000
v 442139.87350000 172881.99790000 194697.83180000
v 438869.73860000 175274.11130000 199640.34380000
v 429815.21510000 120433.10880000 196612.22090000
v 456066.30170000 122597.28880000 190149.31730000
v 469175.19050000 129029.42720000 191207.29420000
v 399445.80640000 130044.82850000 203554.74540000
v 400001.89250000 132627.14580000 209877.69200000
v 400697.50070000 139175.43920000 207766.88810000
v 405067.10790000 150606.32320000 208442.63600000
v 432465.84420000 172666.18600000 208561.49140000
v 439151.36670000 173858.45190000 207094.19760000
v 411787.30290000 116637.10020000 202746.15430000
v 425050.01030000 118889.02190000 199829.61220000
v 437223.13190000 122620.07920000 198260.90880000
v 462105.58820000 125414.17270000 192815.57380000
v 403375.71840000 122481.99780000 207673.49870000
v 471021.77120000 138818.72050000 197179.14500000
v 402523.87090000 143911.46840000 212821.05100000
v 405902.92580000 149510.58910000 211043.88400000
v 466923.49320000 152481.49450000 200817.63250000
v 427137.28620000 164896.39640000 210656.00960000
v 451804.24130000 165807.64070000 207021.90870000
v 416845.49960000 116918.29240000 203102.56000000
v 422216.56340000 117075.46760000 205270.11110000
v 428240.76870000 121250.28000000 201427.39320000
v 445517.38080000 122291.53340000 200792.59020000
v 455713.89360000 122530.23880000 197659.08820000
v 467830.17390000 133175.35870000 198211.18550000
v 471841.68210000 144423.79770000 200165.91500000
v 469740.80500000 147721.92920000 200964.81380000
v 460469.14850000 155410.20750000 202417.02060000
v 412010.85170000 148973.00630000 215668.28610000
v 425335.60970000 161806.37500000 213148.35990000
v 428454.81040000 168600.91350000 212815.35230000
v 445123.57700000 167048.30800000 210727.67090000
v 460299.50910000 130306.98930000 205727.69130000
v 463349.60070000 130362.17650000 197397.81550000
v 401876.44750000 134036.96670000 214187.57910000
v 455392.36880000 157880.77910000 210715.06580000
v 422320.45860000 161256.29260000 217620.08710000
v 411379.92140000 118836.34830000 208713.33010000
v 433793.57730000 121865.64840000 206296.53700000
v 448733.61080000 125429.43220000 204678.33050000
v 469304.97520000 139089.96080000 202827.60950000
v 406514.80320000 145376.99880000 216034.09850000
v 467254.70260000 140707.23010000 206456.76270000
v 432430.65470000 165497.89730000 216786.81090000
v 430835.36520000 122493.94920000 208965.47340000
v 438720.23410000 125502.48740000 207736.27390000
v 470656.64990000 142706.40020000 204566.95720000
v 405720.55800000 137970.08750000 219276.02850000
v 460231.31770000 144863.94260000 207571.56110000
v 415236.89610000 151804.22550000 222105.45030000
v 450891.32490000 163488.11590000 212118.11680000
v 418009.69050000 120551.78320000 210964.29280000
v 427819.33900000 123160.02180000 211560.81370000
v 444517.97130000 129291.38710000 209477.02790000
v 452839.68260000 128494.99580000 206085.33800000
v 408364.90820000 127374.90480000 217858.27190000
v 463389.18540000 136027.77080000 205674.67300000
v 410338.30800000 141440.84130000 219719.52030000
v 451399.51100000 148632.05050000 215157.86640000
v 418939.02850000 155916.34380000 222288.76930000
v 427054.38290000 156614.57740000 219337.56770000
v 431693.47670000 158757.53910000 219658.39410000
v 441525.05380000 160412.50830000 222954.63650000
v 423209.11110000 123834.33510000 213311.53570000
v 414674.42820000 123673.87630000 216628.04290000
v 453762.92230000 135945.63040000 208988.59870000
v 455272.27440000 143504.56420000 211302.81400000
v 423866.10640000 154018.86130000 223316.16390000
v 446700.86060000 157646.86830000 220373.30690000
v 429203.04560000 131303.36290000 215597.47600000
v 439195.58090000 130721.05270000 213874.64030000
v 412880.46240000 135011.05800000 218694.72850000
v 421716.48260000 130744.44960000 215226.28940000
v 446233.01390000 135831.05390000 214149.45810000
v 419510.65710000 135101.79410000 218951.72830000
v 414743.31830000 139729.01210000 222385.97510000
v 434500.38720000 151928.68200000 224250.80080000
v 434566.70020000 157803.56510000 224622.24110000
v 430821.04690000 134864.20770000 219492.77250000
v 416610.60010000 149044.46520000 227195.31100000
v 420776.89180000 144709.57620000 228151.31620000
v 430460.12030000 148587.60270000 224511.69480000
v 445054.87350000 147226.81820000 221102.31040000
v 439802.32750000 135502.28420000 218598.53810000
v 434320.91080000 139506.25990000 221612.49900000
v 425655.48350000 137300.68540000 225453.70780000
v 444144.02380000 141259.08290000 219848.26470000
v 436156.20040000 144204.99710000 224490.77390000
v 427842.10730000 145417.44040000 226685.53290000
v 439546.31650000 156507.23810000 224765.64670000
v 406944.68390000 124238.80190000 180575.79060000
v 404481.65400000 120367.04760000 180097.94560000
v 399665.21270000 123537.52870000 180636.91100000
v 394069.85610000 125787.14410000 185854.47090000
v 402020.59340000 128982.55990000 185589.50550000
v 406653.78000000 130775.07330000 185062.16790000
v 399020.26390000 137244.58710000 187916.25760000
v 403316.53030000 138062.60370000 184175.98620000
v 406145.56460000 137921.37270000 184293.87460000
v 402468.98470000 142362.43510000 191028.22580000
v 408288.62370000 143594.98350000 186642.32290000
v 395908.02000000 130629.03600000 190112.72050000
v 392809.29610000 136006.72110000 189275.01360000
v 398483.22800000 140287.50910000 195984.53740000
v 402538.88290000 147551.01990000 192210.35550000
v 407495.77550000 146179.34680000 188235.20460000
v 398713.12370000 147799.50100000 194752.91660000
v 401322.32000000 151771.29780000 196492.20580000
v 463318.36300000 144053.10340000 159993.80670000
v 466155.51580000 142279.80440000 158239.81410000
v 440752.65490000 163865.26740000 169806.78280000
v 437344.64190000 163943.48760000 165561.31080000
v 438508.04040000 167666.60400000 167091.37530000
v 434802.07270000 172231.15820000 167986.76010000
v 437861.88280000 171910.00090000 174281.09030000
v 429954.30050000 173135.42850000 177756.42720000
v 441319.75610000 168123.25530000 173183.48090000
v 453873.38580000 153377.39130000 173688.69130000
v 442110.42230000 162830.78920000 172685.21800000
v 456261.86410000 153806.30170000 176896.39410000
v 445649.65870000 159805.32620000 174198.69290000
v 445869.42220000 159997.67240000 177277.60060000
v 430662.14900000 172659.55180000 183694.99560000
v 448766.74200000 158336.58230000 179062.98550000
v 445278.68190000 164712.67350000 179735.67610000
v 440848.81130000 171157.30730000 185567.27240000
v 457668.04520000 159052.68960000 181402.66040000
v 454107.96600000 160621.28980000 180281.18060000
v 453137.28130000 164903.55060000 184473.98930000
v 445672.90750000 169463.00370000 188065.64430000
v 428187.41660000 174193.48400000 188593.42580000
v 462518.80140000 140813.61380000 160683.06460000
v 462031.15800000 140382.87140000 170215.42690000
v 458617.50440000 135787.13730000 172158.46300000
v 455284.40350000 129756.40180000 171917.44540000
v 453706.88080000 132621.33230000 172622.94480000
v 462035.31140000 132834.16490000 171815.28490000
v 467302.80070000 136746.23080000 174573.40280000
v 432345.49400000 162517.96760000 165391.38150000
v 430806.06780000 165929.36760000 166788.45920000
v 408080.41710000 119935.44160000 182668.47260000
v 412343.41200000 122363.28230000 181514.25780000
v 417009.95820000 117024.48220000 183974.26000000
v 415306.10660000 120738.25880000 181048.27580000
v 446055.69200000 130681.20050000 177418.75320000
v 444686.94890000 125207.20850000 180283.04610000
v 443062.52700000 132441.15740000 179368.97940000
v 431999.01140000 131518.03690000 181890.63080000
v 430947.41920000 123266.98490000 184719.73070000
v 427086.65370000 127501.44320000 183376.38670000
v 435073.60760000 133457.16910000 181945.50170000
v 418859.21540000 120788.43450000 180303.19790000
v 422924.59110000 119874.88510000 183488.69400000
v 422130.31530000 122519.78970000 182265.25320000
v 442267.64440000 123301.29750000 181901.24560000
v 412260.05400000 116284.27750000 186815.11780000
v 425518.89400000 120504.01010000 188122.75480000
v 433152.45650000 120940.53070000 186717.44480000
v 450147.91750000 128138.78010000 177296.59940000
v 448903.43140000 131325.12140000 177034.66000000
v 430633.33810000 160746.11800000 167685.74700000
v 426117.55350000 160463.60060000 174452.67970000
v 419734.18680000 162005.03380000 181113.81530000
v 433259.47410000 161732.69100000 171416.65170000
v 456923.28450000 140189.27810000 174277.81470000
v 454038.81490000 148007.07130000 172321.13900000
v 448003.31710000 152252.95470000 172033.57210000
v 441353.63590000 155761.07330000 172689.15300000
v 435511.26960000 160730.12010000 172707.59280000
v 438454.43830000 148402.39310000 178391.30760000
v 433665.82830000 157110.11880000 176225.65890000
v 423685.64270000 159027.21840000 182585.35790000
v 428092.75420000 160024.05370000 179857.71380000
v 453435.77580000 135472.15870000 175334.74400000
v 446087.83920000 144106.93550000 177405.47480000
v 440552.90780000 138464.73780000 178857.32530000
v 428963.79670000 145757.44520000 181733.92790000
v 427652.85450000 152960.39680000 180875.19850000
v 419661.59110000 159156.10540000 186768.68310000
v 410756.64540000 135225.91400000 186412.63190000
v 436076.68220000 139276.84510000 180854.56690000
v 425693.85150000 136226.38490000 184175.79760000
v 408554.84360000 138769.87970000 186839.16500000
v 433856.01640000 142085.02930000 183003.04220000
v 410908.45670000 145466.14910000 187369.69530000
v 417775.80610000 155214.57340000 186012.73920000
v 422926.95550000 142977.49080000 183692.05200000
v 419034.25370000 139782.19100000 184778.35680000
v 428594.51700000 157361.54610000 183003.44120000
v 417946.11420000 127293.27790000 184066.02940000
v 410319.83920000 131371.17140000 186064.17120000
v 427002.93690000 140362.52880000 185592.06580000
v 409501.46680000 148268.65680000 189749.25850000
v 411131.58370000 154156.95620000 194110.64550000
v 408211.23370000 147999.88650000 195419.98610000
v 414700.81650000 156420.39160000 196437.86060000
f 1 2 3
f 1 4 2
f 4 5 2
f 6 7 8
f 7 6 9
f 10 8 7
f 1 11 4
f 8 12 13
f 14 13 12
f 8 15 12
f 8 16 15
f 15 16 17
f 11 18 4
f 19 15 17
f 20 18 11
f 21 14 12
f 22 12 15
f 12 22 21
f 15 19 22
f 22 19 23
f 24 25 21
f 22 26 21
f 27 22 23
f 28 29 30
f 29 31 30
f 32 33 34
f 35 36 37
f 36 38 37
f 36 39 38
f 38 39 40
f 41 42 43
f 38 40 25
f 42 44 43
f 43 44 45
f 46 47 28
f 29 28 47
f 29 48 31
f 49 50 51
f 51 52 49
f 32 53 33
f 52 51 35
f 33 54 55
f 53 54 33
f 56 35 37
f 57 55 54
f 57 58 41
f 42 41 58
f 21 59 24
f 59 21 26
f 22 60 26
f 22 27 61
f 62 47 46
f 29 63 48
f 32 64 65
f 52 66 49
f 66 52 67
f 35 56 52
f 37 68 56
f 38 68 37
f 58 57 54
f 38 25 24
f 42 69 44
f 70 44 69
f 70 71 72
f 73 74 75
f 76 71 74
f 76 74 73
f 22 61 60
f 77 61 27
f 78 48 63
f 48 78 79
f 80 81 64
f 80 82 81
f 65 64 81
f 83 67 84
f 85 53 32
f 32 65 85
f 67 52 84
f 52 86 84
f 86 52 56
f 53 87 54
f 38 88 68
f 58 54 87
f 38 89 88
f 38 24 89
f 90 24 59
f 70 69 91
f 91 71 70
f 74 71 91
f 75 74 92
f 93 75 92
f 93 92 94
f 95 96 62
f 47 62 96
f 97 29 47
f 63 29 97
f 63 98 78
f 99 100 77
f 100 99 101
f 98 79 78
f 102 103 104
f 82 105 81
f 81 106 65
f 106 81 105
f 105 107 106
f 107 105 108
f 107 108 109
f 110 107 109
f 111 107 110
f 110 112 111
f 84 113 83
f 114 111 112
f 112 113 114
f 87 53 85
f 86 56 68
f 68 115 86
f 116 58 87
f 58 116 117
f 117 42 58
f 24 90 89
f 69 42 117
f 69 117 118
f 118 91 69
f 119 59 26
f 119 26 60
f 120 119 60
f 92 121 94
f 61 120 60
f 95 94 121
f 61 77 122
f 96 95 121
f 96 123 47
f 98 63 97
f 123 97 47
f 101 124 100
f 101 125 124
f 79 126 102
f 103 102 126
f 124 125 127
f 127 128 124
f 104 103 128
f 107 111 106
f 106 85 65
f 113 129 114
f 113 84 129
f 68 130 115
f 130 68 88
f 88 89 131
f 116 118 117
f 89 90 131
f 91 118 132
f 132 133 91
f 133 134 91
f 90 59 119
f 74 91 134
f 135 121 92
f 61 122 120
f 122 77 100
f 79 98 126
f 126 136 103
f 128 103 136
f 128 137 124
f 136 137 128
f 138 85 106
f 114 139 111
f 84 140 129
f 86 140 84
f 85 138 87
f 141 130 88
f 116 87 142
f 131 141 88
f 132 118 116
f 90 119 143
f 74 134 144
f 92 74 144
f 144 145 92
f 135 92 145
f 135 145 121
f 146 120 122
f 126 98 147
f 124 148 100
f 149 106 111
f 111 150 149
f 150 111 139
f 114 151 139
f 114 129 151
f 151 129 140
f 86 152 140
f 152 86 115
f 130 153 115
f 132 116 142
f 131 90 154
f 155 143 119
f 155 119 120
f 120 156 155
f 120 146 156
f 157 146 122
f 158 121 145
f 96 121 158
f 97 159 98
f 147 98 159
f 147 160 126
f 136 126 160
f 161 124 137
f 106 149 138
f 115 153 152
f 142 87 138
f 130 162 153
f 162 130 141
f 141 131 163
f 133 132 142
f 163 131 154
f 154 90 143
f 134 133 164
f 122 165 157
f 100 148 165
f 165 122 100
f 123 166 97
f 159 97 166
f 124 161 148
f 136 160 137
f 151 150 139
f 149 167 138
f 168 151 140
f 153 169 152
f 167 142 138
f 143 170 154
f 144 134 164
f 171 145 144
f 156 157 172
f 156 146 157
f 158 145 171
f 173 160 147
f 173 137 160
f 174 151 168
f 175 168 140
f 175 140 152
f 162 141 163
f 170 143 155
f 155 176 170
f 144 164 177
f 176 155 156
f 171 144 177
f 157 165 178
f 172 157 178
f 179 96 158
f 179 123 96
f 147 159 173
f 165 148 180
f 161 180 148
f 149 150 181
f 150 151 182
f 182 151 174
f 152 183 175
f 152 169 183
f 153 184 169
f 162 184 153
f 142 185 133
f 162 163 154
f 164 133 185
f 186 162 154
f 170 186 154
f 186 170 172
f 170 176 172
f 176 156 172
f 171 177 187
f 171 187 158
f 188 178 165
f 123 179 189
f 159 166 190
f 159 190 191
f 189 166 123
f 191 173 159
f 192 137 173
f 161 137 192
f 150 193 181
f 182 193 150
f 167 149 194
f 181 194 149
f 175 174 168
f 169 184 183
f 184 162 195
f 162 186 195
f 164 185 177
f 178 195 186
f 186 172 178
f 196 178 188
f 187 179 158
f 189 197 166
f 190 166 197
f 161 192 198
f 180 161 198
f 182 199 193
f 174 199 182
f 185 142 167
f 185 167 194
f 199 174 175
f 175 200 199
f 200 175 183
f 201 185 194
f 194 181 202
f 202 181 193
f 202 193 199
f 183 203 200
f 183 195 203
f 195 183 184
f 201 194 202
f 204 202 199
f 201 202 204
f 177 185 201
f 203 195 196
f 178 196 195
f 205 177 201
f 201 204 205
f 177 205 187
f 165 198 188
f 206 191 190
f 198 165 180
f 173 191 207
f 173 207 192
f 208 204 199
f 188 203 196
f 179 187 205
f 209 179 205
f 197 209 210
f 197 211 190
f 211 206 190
f 212 188 198
f 209 189 179
f 197 189 209
f 206 207 191
f 208 199 200
f 200 213 208
f 203 213 200
f 208 213 214
f 215 204 208
f 205 204 215
f 188 216 203
f 216 212 217
f 188 212 216
f 209 205 210
f 210 218 197
f 211 197 218
f 219 206 212
f 207 206 219
f 219 212 198
f 219 192 207
f 192 219 198
f 215 208 214
f 213 217 214
f 213 216 217
f 213 203 216
f 215 210 205
f 215 218 210
f 218 215 214
f 214 217 218
f 211 218 217
f 211 217 206
f 217 212 206
f 220 221 222
f 223 224 222
f 220 222 224
f 224 225 220
f 225 224 226
f 226 227 225
f 225 227 228
f 227 226 229
f 228 227 229
f 229 230 228
f 33 221 34
f 33 223 222
f 33 222 221
f 231 224 223
f 231 232 224
f 232 226 224
f 232 233 226
f 229 234 230
f 234 235 230
f 57 223 55
f 223 33 55
f 223 57 41
f 41 43 223
f 43 231 223
f 232 231 45
f 231 43 45
f 232 45 44
f 226 233 229
f 236 237 234
f 44 70 232
f 233 232 70
f 234 229 233
f 233 236 234
f 76 236 71
f 236 76 237
f 72 236 70
f 70 236 233
f 72 71 236
f 76 73 237
f 238 9 239
f 7 9 238
f 10 7 238
f 240 241 242
f 242 243 244
f 243 5 245
f 242 246 240
f 246 242 244
f 245 244 243
f 16 247 17
f 240 246 248
f 17 247 249
f 249 19 17
f 250 248 251
f 251 248 246
f 244 245 252
f 247 253 249
f 253 247 250
f 250 251 253
f 251 246 254
f 244 255 246
f 253 256 249
f 256 19 249
f 256 23 19
f 256 253 257
f 251 254 253
f 254 246 255
f 23 256 27
f 257 253 254
f 254 258 257
f 258 256 257
f 258 254 259
f 255 244 252
f 77 27 256
f 77 256 258
f 254 255 259
f 260 102 252
f 255 252 102
f 99 77 258
f 258 259 101
f 99 258 101
f 259 127 125
f 259 255 127
f 259 125 101
f 255 102 127
f 102 104 127
f 127 104 128
f 9 261 239
f 6 261 9
f 13 14 262
f 262 14 263
f 264 265 266
f 266 39 264
f 40 39 266
f 266 265 263
f 267 266 263
f 263 14 267
f 267 14 21
f 266 267 25
f 25 40 266
f 21 25 267
f 268 3 269
f 3 2 269
f 269 242 241
f 268 269 241
f 2 243 269
f 2 5 243
f 269 243 242
f 220 270 221
f 271 270 220
f 270 32 34
f 221 270 34
f 271 272 270
f 272 271 273
f 274 275 276
f 277 278 279
f 277 280 278
f 280 276 278
f 272 273 281
f 281 282 272
f 282 281 283
f 279 278 283
f 278 282 283
f 276 284 278
f 284 276 275
f 285 64 32
f 66 284 50
f 49 66 50
f 32 270 285
f 270 272 285
f 278 286 282
f 287 286 278
f 278 284 66
f 66 287 278
f 80 64 285
f 80 285 105
f 105 285 272
f 286 105 272
f 83 287 67
f 272 282 286
f 67 287 66
f 80 105 82
f 105 110 108
f 109 108 110
f 286 110 105
f 286 112 110
f 113 287 83
f 112 286 287
f 287 113 112
f 264 288 289
f 289 288 274
f 39 288 264
f 275 274 288
f 288 36 275
f 36 288 39
f 284 51 50
f 275 35 51
f 51 284 275
f 36 35 275
f 5 4 245
f 18 31 4
f 245 4 31
f 31 252 245
f 31 18 30
f 252 31 260
f 260 31 48
f 79 260 48
f 102 260 79
f 30 18 28
f 94 95 93
f 18 20 28
f 239 261 238
f 3 290 1
f 3 268 290
f 261 10 238
f 261 6 10
f 268 241 290
f 6 8 10
f 290 291 1
f 290 241 240
f 1 292 11
f 292 1 291
f 291 290 293
f 293 290 240
f 294 8 262
f 8 13 262
f 294 16 8
f 16 294 295
f 296 247 295
f 16 295 247
f 296 297 247
f 240 298 293
f 240 248 298
f 263 294 262
f 299 300 297
f 296 299 297
f 297 300 298
f 247 297 250
f 297 298 250
f 292 291 301
f 291 302 301
f 302 291 293
f 248 250 298
f 289 265 264
f 265 289 303
f 263 265 303
f 263 303 294
f 304 303 305
f 304 294 303
f 295 304 296
f 304 295 294
f 306 307 299
f 296 304 299
f 299 307 300
f 298 300 302
f 292 301 308
f 298 302 293
f 20 292 28
f 292 20 11
f 220 225 271
f 276 289 274
f 276 280 305
f 305 289 276
f 309 225 228
f 310 280 311
f 310 305 280
f 303 289 305
f 312 309 228
f 310 311 313
f 230 312 228
f 310 313 299
f 310 304 305
f 304 310 299
f 230 314 312
f 299 313 306
f 314 230 235
f 315 316 317
f 307 306 316
f 315 307 316
f 301 307 315
f 301 318 307
f 307 318 300
f 315 308 301
f 318 301 302
f 318 302 300
f 281 273 319
f 281 319 283
f 271 320 273
f 273 320 319
f 283 319 279
f 225 320 271
f 319 320 309
f 311 279 319
f 279 311 277
f 319 309 311
f 280 277 311
f 225 309 320
f 317 311 309
f 309 312 314
f 309 314 317
f 311 317 316
f 311 316 321
f 321 313 311
f 316 306 321
f 313 321 306
f 322 314 235
f 314 322 315
f 314 315 317
f 315 322 323
f 315 323 308
f 292 308 62
f 62 46 292
f 28 292 46
f 234 324 235
f 324 322 235
f 234 237 324
f 323 322 324
f 323 325 308
f 325 62 308
f 75 324 237
f 237 73 75
f 75 93 324
f 323 324 93
f 93 325 323
f 93 95 62
f 93 62 325