# https://github.com/mikedh/trimesh
v 409096.00000000 131595.00000000 207970.00000000
v 408424.00000000 126744.00000000 201659.00000000
v 410510.00000000 126729.00000000 206128.00000000
v 411496.00000000 124749.00000000 205424.00000000
v 415148.00000000 122948.00000000 207862.00000000
v 414183.00000000 129823.00000000 211883.00000000
v 459436.00000000 135131.00000000 210807.00000000
v 449725.00000000 129132.00000000 214997.00000000
v 460866.00000000 131638.00000000 208846.00000000
v 452697.00000000 125710.00000000 208444.00000000
v 460921.00000000 126886.00000000 205368.00000000
v 461692.00000000 131701.00000000 208425.00000000
v 461770.00000000 132466.00000000 208714.00000000
v 469670.00000000 125054.00000000 185974.00000000
v 470505.00000000 132253.00000000 197573.00000000
v 467082.00000000 128347.00000000 199188.00000000
v 468557.00000000 123857.00000000 186167.00000000
v 466784.00000000 123354.00000000 177497.00000000
v 469174.00000000 126988.00000000 175427.00000000
v 472370.00000000 131622.00000000 185264.00000000
v 418252.00000000 125850.00000000 185356.00000000
v 430381.00000000 127585.00000000 181246.00000000
v 430055.00000000 126030.00000000 180722.00000000
v 427950.00000000 122009.00000000 183119.00000000
v 417886.00000000 124567.00000000 185616.00000000
v 414396.00000000 125176.00000000 186215.00000000
v 413724.00000000 126492.00000000 186002.00000000
v 418870.00000000 133408.00000000 186087.00000000
v 454656.00000000 168180.00000000 192871.00000000
v 458890.00000000 168572.00000000 200237.00000000
v 460412.00000000 164890.00000000 189155.00000000
v 461909.00000000 163937.00000000 190101.00000000
v 462916.00000000 162214.00000000 186400.00000000
v 458615.00000000 163053.00000000 185208.00000000
v 423147.00000000 119148.00000000 187638.00000000
v 412781.00000000 122174.00000000 197891.00000000
v 414911.00000000 123600.00000000 187945.00000000
v 412611.00000000 125115.00000000 187723.00000000
v 427381.00000000 158132.00000000 159319.00000000
v 421376.00000000 156295.00000000 168200.00000000
v 420903.00000000 160250.00000000 157518.00000000
v 418211.00000000 163068.00000000 158981.00000000
v 418521.00000000 163681.00000000 151292.00000000
v 422851.00000000 161492.00000000 151420.00000000
v 427446.00000000 160446.00000000 151597.00000000
v 470382.00000000 156200.00000000 188619.00000000
v 471146.00000000 151798.00000000 198790.00000000
v 470634.00000000 153388.00000000 186317.00000000
v 472162.00000000 146373.00000000 185467.00000000
v 466890.00000000 151474.00000000 181501.00000000
v 468552.00000000 154351.00000000 183923.00000000
v 459099.00000000 153580.00000000 218790.00000000
v 455860.00000000 156149.00000000 219673.00000000
v 453045.00000000 148986.00000000 222405.00000000
v 462066.00000000 149121.00000000 216327.00000000
v 463000.00000000 149957.00000000 215921.00000000
v 461104.00000000 156645.00000000 217534.00000000
v 460422.00000000 156686.00000000 218317.00000000
v 406496.00000000 157803.00000000 210463.00000000
v 403371.00000000 152511.00000000 201948.00000000
v 404988.00000000 151790.00000000 211386.00000000
v 404526.00000000 145418.00000000 211293.00000000
v 411596.00000000 146199.00000000 217163.00000000
v 411664.00000000 150224.00000000 217368.00000000
v 411639.00000000 156255.00000000 216192.00000000
v 411815.00000000 161279.00000000 197315.00000000
v 417714.00000000 155609.00000000 191265.00000000
v 409841.00000000 153853.00000000 195288.00000000
v 417685.00000000 148938.00000000 189437.00000000
v 408398.00000000 146043.00000000 191910.00000000
v 402391.00000000 145996.00000000 201411.00000000
v 405775.00000000 158448.00000000 202898.00000000
v 465538.00000000 156552.00000000 209062.00000000
v 465073.00000000 151168.00000000 208959.00000000
v 462857.00000000 149116.00000000 215820.00000000
v 469260.00000000 141073.00000000 207537.00000000
v 472557.00000000 144569.00000000 198676.00000000
v 416639.00000000 121004.00000000 206745.00000000
v 422358.00000000 123532.00000000 210485.00000000
v 418256.00000000 124463.00000000 210600.00000000
v 420274.00000000 118946.00000000 205884.00000000
v 459141.00000000 167673.00000000 209635.00000000
v 455044.00000000 165930.00000000 215474.00000000
v 459755.00000000 164381.00000000 214822.00000000
v 460311.00000000 164089.00000000 214416.00000000
v 460649.00000000 166679.00000000 207737.00000000
v 453798.00000000 170926.00000000 210576.00000000
v 468752.00000000 134555.00000000 203573.00000000
v 462752.00000000 126515.00000000 203931.00000000
v 462112.00000000 126280.00000000 204402.00000000
v 462380.00000000 125884.00000000 203771.00000000
v 412088.00000000 125976.00000000 187671.00000000
v 414302.00000000 134334.00000000 187182.00000000
v 411649.00000000 122914.00000000 198019.00000000
v 409064.00000000 133986.00000000 191091.00000000
v 430474.00000000 173347.00000000 211503.00000000
v 424193.00000000 169955.00000000 219195.00000000
v 433399.00000000 168257.00000000 219120.00000000
v 438767.00000000 172801.00000000 210017.00000000
v 429985.00000000 175346.00000000 200960.00000000
v 421406.00000000 174533.00000000 211435.00000000
v 450524.00000000 120833.00000000 204561.00000000
v 448457.00000000 128095.00000000 214365.00000000
v 447813.00000000 118252.00000000 203820.00000000
v 436874.00000000 121185.00000000 205130.00000000
v 438356.00000000 116323.00000000 198826.00000000
v 447757.00000000 117728.00000000 200896.00000000
v 433507.00000000 157811.00000000 225223.00000000
v 426044.00000000 151790.00000000 225329.00000000
v 433509.00000000 152173.00000000 224797.00000000
v 432926.00000000 145630.00000000 225239.00000000
v 442607.00000000 146762.00000000 224006.00000000
v 442503.00000000 151752.00000000 226402.00000000
v 442352.00000000 157036.00000000 224957.00000000
v 449278.00000000 116190.00000000 185080.00000000
v 454165.00000000 117502.00000000 196056.00000000
v 439114.00000000 118560.00000000 184494.00000000
v 443517.00000000 120677.00000000 178847.00000000
v 450866.00000000 119567.00000000 174648.00000000
v 456054.00000000 117601.00000000 183911.00000000
v 424556.00000000 174691.00000000 193192.00000000
v 430091.00000000 175370.00000000 193889.00000000
v 438347.00000000 174523.00000000 201132.00000000
v 439847.00000000 172499.00000000 195109.00000000
v 433104.00000000 173343.00000000 190262.00000000
v 427495.00000000 175292.00000000 190048.00000000
v 451523.00000000 124868.00000000 172850.00000000
v 460586.00000000 131830.00000000 172645.00000000
v 459489.00000000 126314.00000000 172014.00000000
v 458369.00000000 120399.00000000 174954.00000000
v 447661.00000000 124730.00000000 175174.00000000
v 450340.00000000 135275.00000000 173804.00000000
v 435455.00000000 132755.00000000 216359.00000000
v 426255.00000000 127142.00000000 211986.00000000
v 436667.00000000 129353.00000000 214526.00000000
v 433298.00000000 122233.00000000 210142.00000000
v 434857.00000000 123129.00000000 209925.00000000
v 447290.00000000 128857.00000000 215088.00000000
v 441219.00000000 135190.00000000 219889.00000000
v 440823.00000000 167631.00000000 143859.00000000
v 441947.00000000 170612.00000000 152781.00000000
v 440675.00000000 165520.00000000 151426.00000000
v 438534.00000000 163538.00000000 150868.00000000
v 437076.00000000 163288.00000000 142130.00000000
v 440087.00000000 167177.00000000 133866.00000000
v 441818.00000000 170956.00000000 143468.00000000
v 458762.00000000 162337.00000000 184219.00000000
v 451108.00000000 159431.00000000 180713.00000000
v 450900.00000000 163177.00000000 185128.00000000
v 446729.00000000 162640.00000000 181460.00000000
v 445918.00000000 166319.00000000 186484.00000000
v 449119.00000000 167941.00000000 189574.00000000
v 427465.00000000 179248.00000000 165243.00000000
v 433284.00000000 175429.00000000 172813.00000000
v 435099.00000000 178297.00000000 164299.00000000
v 439001.00000000 173191.00000000 171429.00000000
v 438121.00000000 176879.00000000 163626.00000000
v 435169.00000000 179601.00000000 155196.00000000
v 426974.00000000 182135.00000000 155656.00000000
v 416000.00000000 171954.00000000 163004.00000000
v 415652.00000000 167218.00000000 172829.00000000
v 415500.00000000 170115.00000000 174845.00000000
v 416265.00000000 170931.00000000 175491.00000000
v 419000.00000000 174875.00000000 162868.00000000
v 415054.00000000 173108.00000000 155189.00000000
v 415085.00000000 168949.00000000 161324.00000000
v 441378.00000000 163484.00000000 161007.00000000
v 442631.00000000 166421.00000000 169404.00000000
v 442312.00000000 159888.00000000 168866.00000000
v 440455.00000000 156726.00000000 167562.00000000
v 437704.00000000 160362.00000000 159496.00000000
v 442305.00000000 168485.00000000 162366.00000000
v 426860.00000000 179838.00000000 127637.00000000
v 435100.00000000 179513.00000000 134548.00000000
v 434642.00000000 179702.00000000 125345.00000000
v 438363.00000000 177931.00000000 125609.00000000
v 435624.00000000 180478.00000000 119931.00000000
v 427204.00000000 181143.00000000 121644.00000000
v 434623.00000000 181037.00000000 145061.00000000
v 438041.00000000 177730.00000000 155042.00000000
v 438156.00000000 178966.00000000 144179.00000000
v 427916.00000000 181300.00000000 134890.00000000
v 427576.00000000 183904.00000000 144832.00000000
v 415038.00000000 174264.00000000 142835.00000000
v 413629.00000000 170402.00000000 152950.00000000
v 418580.00000000 178111.00000000 155299.00000000
v 418859.00000000 181389.00000000 145730.00000000
v 414506.00000000 176803.00000000 132947.00000000
v 413258.00000000 175961.00000000 133130.00000000
v 413311.00000000 171123.00000000 141575.00000000
v 427417.00000000 161371.00000000 141843.00000000
v 421450.00000000 162684.00000000 141931.00000000
v 416287.00000000 165389.00000000 141969.00000000
v 421767.00000000 163096.00000000 134787.00000000
v 405196.00000000 174355.00000000 104523.00000000
v 409864.00000000 177150.00000000 107467.00000000
v 408163.00000000 178605.00000000 102438.00000000
v 411875.00000000 180692.00000000 101945.00000000
v 409236.00000000 181374.00000000 97978.00000000
v 405809.00000000 178548.00000000 98810.00000000
v 403722.00000000 174797.00000000 100126.00000000
v 411624.00000000 172484.00000000 127737.00000000
v 413207.00000000 176429.00000000 126874.00000000
v 415800.00000000 179762.00000000 125992.00000000
v 413582.00000000 177372.00000000 122915.00000000
v 410904.00000000 173377.00000000 122430.00000000
v 442476.00000000 171863.00000000 127743.00000000
v 441359.00000000 167903.00000000 126650.00000000
v 438489.00000000 164261.00000000 127408.00000000
v 441322.00000000 164549.00000000 120993.00000000
v 443061.00000000 167600.00000000 122213.00000000
v 421346.00000000 163225.00000000 127562.00000000
v 426747.00000000 162693.00000000 133997.00000000
v 416103.00000000 166212.00000000 135083.00000000
v 414948.00000000 166613.00000000 128419.00000000
v 416154.00000000 165537.00000000 122953.00000000
v 420142.00000000 163450.00000000 122959.00000000
v 427618.00000000 162457.00000000 122466.00000000
v 427356.00000000 162212.00000000 127708.00000000
v 447792.00000000 180586.00000000 81402.00000000
v 445541.00000000 183912.00000000 77994.00000000
v 443103.00000000 181401.00000000 90971.00000000
v 446034.00000000 179179.00000000 90803.00000000
v 449713.00000000 177549.00000000 82688.00000000
v 452446.00000000 180216.00000000 79046.00000000
v 451974.00000000 182451.00000000 76102.00000000
v 445576.00000000 175528.00000000 106587.00000000
v 443454.00000000 173012.00000000 109772.00000000
v 444956.00000000 170945.00000000 105516.00000000
v 440568.00000000 171221.00000000 109018.00000000
v 442786.00000000 167550.00000000 105407.00000000
v 447830.00000000 167033.00000000 101589.00000000
v 447330.00000000 175072.00000000 100147.00000000
v 424562.00000000 163110.00000000 104309.00000000
v 416341.00000000 162792.00000000 107464.00000000
v 415574.00000000 162190.00000000 104601.00000000
v 411343.00000000 165037.00000000 108288.00000000
v 409629.00000000 164719.00000000 103395.00000000
v 414831.00000000 162034.00000000 100096.00000000
v 425002.00000000 162019.00000000 99912.00000000
v 426995.00000000 186695.00000000 104336.00000000
v 434002.00000000 187096.00000000 108690.00000000
v 434542.00000000 187486.00000000 105642.00000000
v 441129.00000000 184697.00000000 108831.00000000
v 441299.00000000 185015.00000000 105835.00000000
v 440781.00000000 183646.00000000 101321.00000000
v 433802.00000000 186922.00000000 100399.00000000
v 431117.00000000 188120.00000000 71176.00000000
v 435562.00000000 185445.00000000 80771.00000000
v 439782.00000000 186902.00000000 70944.00000000
v 446270.00000000 187044.00000000 70045.00000000
v 440164.00000000 188213.00000000 60724.00000000
v 434444.00000000 187857.00000000 60914.00000000
v 415666.00000000 162111.00000000 92852.00000000
v 410394.00000000 164911.00000000 92550.00000000
v 411745.00000000 165603.00000000 83684.00000000
v 417351.00000000 162644.00000000 84236.00000000
v 422812.00000000 160073.00000000 91860.00000000
v 434813.00000000 187642.00000000 91778.00000000
v 425369.00000000 188082.00000000 98519.00000000
v 427528.00000000 189475.00000000 82076.00000000
v 426033.00000000 189995.00000000 92182.00000000
v 405256.00000000 174261.00000000 92674.00000000
v 407480.00000000 180923.00000000 92647.00000000
v 409215.00000000 183785.00000000 91265.00000000
v 409835.00000000 179393.00000000 84003.00000000
v 454766.00000000 152867.00000000 47270.00000000
v 448271.00000000 156167.00000000 40902.00000000
v 454905.00000000 154771.00000000 40791.00000000
v 454801.00000000 158559.00000000 35604.00000000
v 461639.00000000 156177.00000000 34861.00000000
v 461622.00000000 153261.00000000 41086.00000000
v 416411.00000000 175309.00000000 77014.00000000
v 418198.00000000 180376.00000000 75629.00000000
v 412147.00000000 184330.00000000 83842.00000000
v 419845.00000000 183562.00000000 76336.00000000
v 424565.00000000 179479.00000000 61690.00000000
v 423631.00000000 178604.00000000 61661.00000000
v 448426.00000000 142542.00000000 65212.00000000
v 445586.00000000 144722.00000000 62184.00000000
v 449452.00000000 146656.00000000 64672.00000000
v 452341.00000000 147149.00000000 68441.00000000
v 450649.00000000 144849.00000000 71656.00000000
v 450226.00000000 139301.00000000 70231.00000000
v 448779.00000000 139778.00000000 66311.00000000
v 445710.00000000 140958.00000000 64216.00000000
v 445489.00000000 142768.00000000 62525.00000000
v 422781.00000000 160241.00000000 70795.00000000
v 424416.00000000 158321.00000000 81762.00000000
v 421515.00000000 164010.00000000 70911.00000000
v 424677.00000000 162263.00000000 60272.00000000
v 425895.00000000 157439.00000000 61198.00000000
v 425333.00000000 155300.00000000 71465.00000000
v 439815.00000000 165725.00000000 36309.00000000
v 441549.00000000 168976.00000000 36999.00000000
v 441262.00000000 165600.00000000 35694.00000000
v 441993.00000000 162181.00000000 37402.00000000
v 438133.00000000 163097.00000000 38311.00000000
v 437136.00000000 165024.00000000 38352.00000000
v 439348.00000000 169380.00000000 37503.00000000
v 436510.00000000 157936.00000000 44500.00000000
v 436071.00000000 156889.00000000 48022.00000000
v 432295.00000000 157127.00000000 51485.00000000
v 433474.00000000 162380.00000000 43663.00000000
v 437220.00000000 163590.00000000 38860.00000000
v 437923.00000000 157434.00000000 43802.00000000
v 442043.00000000 183113.00000000 44335.00000000
v 442476.00000000 186465.00000000 48761.00000000
v 443471.00000000 183431.00000000 43867.00000000
v 448214.00000000 186024.00000000 49045.00000000
v 448472.00000000 182834.00000000 43413.00000000
v 446081.00000000 179395.00000000 39519.00000000
v 444139.00000000 179630.00000000 40790.00000000
v 432030.00000000 172318.00000000 45084.00000000
v 427594.00000000 172429.00000000 49287.00000000
v 429764.00000000 178055.00000000 51797.00000000
v 436754.00000000 180388.00000000 48119.00000000
v 439414.00000000 175907.00000000 43137.00000000
v 438437.00000000 171335.00000000 39591.00000000
v 436106.00000000 169426.00000000 39748.00000000
v 431720.00000000 170929.00000000 43734.00000000
v 479512.00000000 186095.00000000 60017.00000000
v 473523.00000000 185151.00000000 65713.00000000
v 478978.00000000 185962.00000000 68408.00000000
v 475464.00000000 183397.00000000 70843.00000000
v 481946.00000000 184053.00000000 73235.00000000
v 484671.00000000 188303.00000000 67590.00000000
v 478479.00000000 169769.00000000 34885.00000000
v 474309.00000000 174144.00000000 39361.00000000
v 480551.00000000 174733.00000000 36502.00000000
v 483133.00000000 179785.00000000 39339.00000000
v 486489.00000000 180973.00000000 33135.00000000
v 485854.00000000 177744.00000000 29304.00000000
v 487426.00000000 171198.00000000 30235.00000000
v 454303.00000000 177409.00000000 79415.00000000
v 450782.00000000 176240.00000000 83223.00000000
v 454668.00000000 173309.00000000 79807.00000000
v 461993.00000000 172283.00000000 77336.00000000
v 463332.00000000 178135.00000000 73983.00000000
v 457006.00000000 182899.00000000 71396.00000000
v 454622.00000000 185653.00000000 67861.00000000
v 446956.00000000 188049.00000000 60799.00000000
v 460394.00000000 185128.00000000 65671.00000000
v 454567.00000000 187930.00000000 60201.00000000
v 454527.00000000 184888.00000000 48941.00000000
v 448048.00000000 187094.00000000 54563.00000000
v 455306.00000000 186528.00000000 54761.00000000
v 460995.00000000 186370.00000000 60679.00000000
v 463058.00000000 184976.00000000 55487.00000000
v 461961.00000000 182444.00000000 48533.00000000
v 454869.00000000 177833.00000000 34792.00000000
v 449548.00000000 170674.00000000 36146.00000000
v 449595.00000000 177503.00000000 36199.00000000
v 450083.00000000 179848.00000000 37247.00000000
v 454530.00000000 181496.00000000 36819.00000000
v 460379.00000000 179195.00000000 37867.00000000
v 461868.00000000 177036.00000000 34511.00000000
v 455442.00000000 170604.00000000 33743.00000000
v 487165.00000000 169196.00000000 91685.00000000
v 483676.00000000 159387.00000000 86882.00000000
v 486841.00000000 157459.00000000 87576.00000000
v 485644.00000000 152772.00000000 80652.00000000
v 489003.00000000 148890.00000000 80720.00000000
v 490621.00000000 147194.00000000 82321.00000000
v 492533.00000000 156053.00000000 90572.00000000
v 491095.00000000 168085.00000000 94081.00000000
v 484313.00000000 149189.00000000 72033.00000000
v 487839.00000000 147029.00000000 71666.00000000
v 483728.00000000 147980.00000000 60546.00000000
v 486702.00000000 146025.00000000 60400.00000000
v 490331.00000000 146550.00000000 71649.00000000
v 479852.00000000 161075.00000000 80112.00000000
v 474083.00000000 172006.00000000 76085.00000000
v 473297.00000000 163194.00000000 74656.00000000
v 478313.00000000 158556.00000000 72973.00000000
v 481251.00000000 153806.00000000 76360.00000000
v 483568.00000000 170135.00000000 87297.00000000
v 481421.00000000 171134.00000000 81631.00000000
v 479515.00000000 152071.00000000 42546.00000000
v 475013.00000000 151147.00000000 48073.00000000
v 474063.00000000 152351.00000000 43041.00000000
v 474225.00000000 154468.00000000 39149.00000000
v 480505.00000000 153920.00000000 40093.00000000
v 483213.00000000 150993.00000000 44295.00000000
v 479250.00000000 149312.00000000 47826.00000000
v 480522.00000000 152772.00000000 68776.00000000
v 475623.00000000 152159.00000000 64987.00000000
v 480928.00000000 149870.00000000 60264.00000000
v 479202.00000000 184226.00000000 55515.00000000
v 476073.00000000 181990.00000000 50462.00000000
v 472950.00000000 184099.00000000 55611.00000000
v 474009.00000000 185944.00000000 59911.00000000
v 484665.00000000 189036.00000000 60077.00000000
v 485959.00000000 187230.00000000 52155.00000000
v 482785.00000000 184964.00000000 46671.00000000
v 482948.00000000 184453.00000000 44629.00000000
v 470798.00000000 180868.00000000 42746.00000000
v 470816.00000000 181835.00000000 44048.00000000
v 484195.00000000 186387.00000000 46911.00000000
v 486101.00000000 183474.00000000 40068.00000000
v 478780.00000000 148739.00000000 53590.00000000
v 474345.00000000 151200.00000000 59290.00000000
v 473871.00000000 150772.00000000 54054.00000000
v 482952.00000000 148695.00000000 48175.00000000
v 483399.00000000 147003.00000000 53179.00000000
v 488107.00000000 188811.00000000 47928.00000000
v 487650.00000000 190993.00000000 53082.00000000
v 487333.00000000 192139.00000000 59878.00000000
v 490689.00000000 194635.00000000 52758.00000000
v 454933.00000000 181820.00000000 40335.00000000
v 463582.00000000 183253.00000000 43263.00000000
v 427279.00000000 179189.00000000 55665.00000000
v 422994.00000000 174686.00000000 59799.00000000
v 428375.00000000 180303.00000000 55315.00000000
v 424895.00000000 173346.00000000 54544.00000000
v 437826.00000000 186759.00000000 56247.00000000
v 441719.00000000 187840.00000000 54294.00000000
v 440621.00000000 185421.00000000 49942.00000000
v 429500.00000000 157105.00000000 55939.00000000
v 430114.00000000 153243.00000000 60226.00000000
v 427687.00000000 161662.00000000 55359.00000000
v 432412.00000000 154610.00000000 54288.00000000
v 453537.00000000 150474.00000000 58918.00000000
v 447562.00000000 152430.00000000 52858.00000000
v 454936.00000000 152890.00000000 53410.00000000
v 448067.00000000 154483.00000000 48474.00000000
v 461820.00000000 153556.00000000 49556.00000000
v 461312.00000000 152623.00000000 54017.00000000
v 426084.00000000 167810.00000000 54320.00000000
v 423401.00000000 167449.00000000 62659.00000000
v 427426.00000000 166048.00000000 49053.00000000
v 489945.00000000 185457.00000000 37481.00000000
v 492485.00000000 191089.00000000 46598.00000000
v 494291.00000000 188921.00000000 38745.00000000
v 491167.00000000 183692.00000000 29424.00000000
v 488597.00000000 183042.00000000 30711.00000000
v 480927.00000000 178710.00000000 76819.00000000
v 475253.00000000 177681.00000000 74720.00000000
v 486142.00000000 180631.00000000 81909.00000000
v 485482.00000000 185447.00000000 74589.00000000
v 488374.00000000 192836.00000000 67471.00000000
v 488322.00000000 187477.00000000 75655.00000000
v 491414.00000000 189779.00000000 76173.00000000
v 491345.00000000 195396.00000000 67909.00000000
v 491732.00000000 195108.00000000 59380.00000000
v 487571.00000000 153847.00000000 36728.00000000
v 485791.00000000 160424.00000000 35107.00000000
v 491358.00000000 158689.00000000 29808.00000000
v 490274.00000000 169189.00000000 27748.00000000
v 494712.00000000 167109.00000000 25747.00000000
v 492792.00000000 158185.00000000 28359.00000000
v 490159.00000000 154164.00000000 36668.00000000
v 454501.00000000 164148.00000000 33457.00000000
v 448495.00000000 159368.00000000 35346.00000000
v 448630.00000000 165081.00000000 34035.00000000
v 461231.00000000 162801.00000000 31737.00000000
v 456152.00000000 165401.00000000 82143.00000000
v 451201.00000000 172911.00000000 84128.00000000
v 452396.00000000 166146.00000000 86044.00000000
v 452627.00000000 160912.00000000 87168.00000000
v 455128.00000000 158706.00000000 83737.00000000
v 460259.00000000 157534.00000000 78413.00000000
v 462548.00000000 164775.00000000 80607.00000000
v 479436.00000000 160245.00000000 34958.00000000
v 472927.00000000 161444.00000000 35866.00000000
v 485494.00000000 153633.00000000 37851.00000000
v 432286.00000000 165429.00000000 43005.00000000
v 429123.00000000 163586.00000000 48853.00000000
v 439087.00000000 171334.00000000 39168.00000000
v 445514.00000000 176990.00000000 39039.00000000
v 442817.00000000 180764.00000000 42418.00000000
v 421355.00000000 165240.00000000 70911.00000000
v 409222.00000000 168345.00000000 84090.00000000
v 406432.00000000 167985.00000000 92592.00000000
v 407578.00000000 165131.00000000 100416.00000000
v 404173.00000000 167606.00000000 99904.00000000
v 444340.00000000 181741.00000000 105418.00000000
v 443807.00000000 182117.00000000 109773.00000000
v 444164.00000000 176927.00000000 109985.00000000
v 445031.00000000 179189.00000000 100996.00000000
v 441843.00000000 143693.00000000 97143.00000000
v 447790.00000000 146980.00000000 98375.00000000
v 441145.00000000 147188.00000000 96883.00000000
v 437872.00000000 142218.00000000 93073.00000000
v 441492.00000000 139406.00000000 99121.00000000
v 448400.00000000 139888.00000000 99432.00000000
v 448403.00000000 143645.00000000 99010.00000000
v 440822.00000000 175667.00000000 127348.00000000
v 438873.00000000 177779.00000000 135874.00000000
v 441164.00000000 175323.00000000 133844.00000000
v 442772.00000000 173680.00000000 122137.00000000
v 441769.00000000 176698.00000000 120961.00000000
v 414447.00000000 167744.00000000 133820.00000000
v 413694.00000000 167727.00000000 127840.00000000
v 412133.00000000 171829.00000000 133679.00000000
v 413439.00000000 168359.00000000 121231.00000000
v 408494.00000000 168049.00000000 108349.00000000
v 405155.00000000 168163.00000000 103970.00000000
v 408116.00000000 173743.00000000 108382.00000000
v 415355.00000000 166342.00000000 142039.00000000
v 414399.00000000 167539.00000000 151891.00000000
v 441462.00000000 173000.00000000 163745.00000000
v 440625.00000000 171294.00000000 171604.00000000
v 440218.00000000 175369.00000000 154644.00000000
v 416693.00000000 164262.00000000 168428.00000000
v 416239.00000000 165948.00000000 161433.00000000
v 457667.00000000 153205.00000000 175854.00000000
v 452672.00000000 149162.00000000 174399.00000000
v 452040.00000000 155209.00000000 177529.00000000
v 446543.00000000 149553.00000000 177500.00000000
v 448169.00000000 156199.00000000 177389.00000000
v 456607.00000000 156792.00000000 179069.00000000
v 439798.00000000 176264.00000000 144051.00000000
v 425922.00000000 164960.00000000 223811.00000000
v 433294.00000000 165519.00000000 224143.00000000
v 440807.00000000 164025.00000000 221784.00000000
v 463243.00000000 160085.00000000 209106.00000000
v 460617.00000000 162204.00000000 214887.00000000
v 465047.00000000 161687.00000000 200437.00000000
v 416599.00000000 169694.00000000 198235.00000000
v 419636.00000000 169283.00000000 191422.00000000
v 416052.00000000 168654.00000000 198260.00000000
v 417359.00000000 162689.00000000 191460.00000000
v 409649.00000000 163221.00000000 203350.00000000
v 411207.00000000 164551.00000000 202286.00000000
v 413854.00000000 169534.00000000 209453.00000000
v 408339.00000000 161017.00000000 209473.00000000
v 416232.00000000 164451.00000000 218023.00000000
v 415799.00000000 168623.00000000 214610.00000000
v 457233.00000000 161421.00000000 217632.00000000
v 460223.00000000 158121.00000000 217811.00000000
v 466249.00000000 160276.00000000 188835.00000000
v 469568.00000000 155642.00000000 197410.00000000
v 463837.00000000 160478.00000000 185278.00000000
v 463466.00000000 162089.00000000 186595.00000000
v 418656.00000000 167669.00000000 219066.00000000
v 418475.00000000 165624.00000000 220677.00000000
v 417862.00000000 158904.00000000 221484.00000000
v 447028.00000000 176490.00000000 37730.00000000
v 446572.00000000 168771.00000000 36236.00000000
v 439128.00000000 153238.00000000 52603.00000000
v 446672.00000000 150716.00000000 57954.00000000
v 438908.00000000 151792.00000000 57632.00000000
v 440554.00000000 153710.00000000 48526.00000000
v 429672.00000000 184283.00000000 60288.00000000
v 431736.00000000 184106.00000000 57753.00000000
v 435345.00000000 181631.00000000 50798.00000000
v 431382.00000000 181148.00000000 53485.00000000
v 441513.00000000 182660.00000000 44884.00000000
v 445086.00000000 157831.00000000 41506.00000000
v 444406.00000000 160526.00000000 36747.00000000
v 444968.00000000 165678.00000000 36131.00000000
v 452504.00000000 142082.00000000 83882.00000000
v 453575.00000000 146663.00000000 90824.00000000
v 453347.00000000 143239.00000000 91423.00000000
v 453322.00000000 139711.00000000 92147.00000000
v 452821.00000000 139431.00000000 84204.00000000
v 415661.00000000 185076.00000000 97685.00000000
v 416983.00000000 187323.00000000 92192.00000000
v 417975.00000000 187931.00000000 82222.00000000
v 440143.00000000 142369.00000000 62246.00000000
v 434135.00000000 144801.00000000 65227.00000000
v 439998.00000000 143651.00000000 61493.00000000
v 440595.00000000 139794.00000000 64062.00000000
v 436280.00000000 140260.00000000 67359.00000000
v 434999.00000000 142742.00000000 66751.00000000
v 422728.00000000 184021.00000000 73960.00000000
v 416338.00000000 183280.00000000 102103.00000000
v 415415.00000000 181383.00000000 108465.00000000
v 419434.00000000 183453.00000000 107709.00000000
v 435165.00000000 164559.00000000 104163.00000000
v 434295.00000000 166907.00000000 110985.00000000
v 425079.00000000 164116.00000000 109100.00000000
v 437261.00000000 158979.00000000 100632.00000000
v 434751.00000000 162634.00000000 127405.00000000
v 437780.00000000 163996.00000000 133091.00000000
v 435584.00000000 162899.00000000 134134.00000000
v 435244.00000000 162592.00000000 122104.00000000
v 434244.00000000 161165.00000000 151220.00000000
v 434769.00000000 162371.00000000 141755.00000000
v 420736.00000000 180013.00000000 155283.00000000
v 419983.00000000 182909.00000000 145321.00000000
v 421516.00000000 179099.00000000 134108.00000000
v 420410.00000000 180706.00000000 126010.00000000
v 420636.00000000 181713.00000000 122065.00000000
v 416073.00000000 179992.00000000 122534.00000000
v 421712.00000000 174147.00000000 172047.00000000
v 421835.00000000 176786.00000000 164100.00000000
v 416411.00000000 130936.00000000 213927.00000000
v 414885.00000000 132100.00000000 213955.00000000
v 423077.00000000 134438.00000000 217354.00000000
v 421105.00000000 134712.00000000 217391.00000000
v 416492.00000000 169910.00000000 199504.00000000
v 420295.00000000 172841.00000000 191839.00000000
v 420861.00000000 173384.00000000 201012.00000000
v 423091.00000000 173984.00000000 190284.00000000
v 420874.00000000 173297.00000000 190649.00000000
v 419014.00000000 152472.00000000 222990.00000000
v 422447.00000000 145588.00000000 223218.00000000
v 425825.00000000 157972.00000000 224277.00000000
v 416174.00000000 172083.00000000 211326.00000000
v 429914.00000000 119887.00000000 205493.00000000
v 422318.00000000 117093.00000000 199676.00000000
v 430534.00000000 115738.00000000 197794.00000000
v 434541.00000000 158151.00000000 160055.00000000
v 435304.00000000 154651.00000000 166810.00000000
v 428020.00000000 154763.00000000 167065.00000000
v 432583.00000000 116672.00000000 187234.00000000
v 435062.00000000 120716.00000000 180015.00000000
v 435305.00000000 125762.00000000 179719.00000000
v 445603.00000000 135628.00000000 174504.00000000
v 437000.00000000 137841.00000000 178432.00000000
v 443767.00000000 168671.00000000 218864.00000000
v 448386.00000000 162939.00000000 221111.00000000
v 449149.00000000 156154.00000000 223223.00000000
v 463346.00000000 147187.00000000 177501.00000000
v 462759.00000000 151690.00000000 178805.00000000
v 457750.00000000 148933.00000000 173417.00000000
v 461867.00000000 156764.00000000 181701.00000000
v 463106.00000000 160551.00000000 184876.00000000
v 466408.00000000 133573.00000000 171855.00000000
v 465847.00000000 127000.00000000 172845.00000000
v 463498.00000000 121210.00000000 175827.00000000
v 463241.00000000 120307.00000000 184464.00000000
v 460730.00000000 122168.00000000 196468.00000000
v 460058.00000000 121554.00000000 196531.00000000
v 461470.00000000 125371.00000000 203839.00000000
v 449868.00000000 172228.00000000 209696.00000000
v 453232.00000000 172226.00000000 199903.00000000
v 448274.00000000 174180.00000000 200546.00000000
v 449736.00000000 151416.00000000 224369.00000000
v 449706.00000000 145605.00000000 222662.00000000
v 447362.00000000 170803.00000000 192798.00000000
v 442040.00000000 170010.00000000 190351.00000000
v 449546.00000000 135998.00000000 220100.00000000
v 448786.00000000 128846.00000000 215355.00000000
v 441057.00000000 139842.00000000 222405.00000000
v 449598.00000000 137762.00000000 221065.00000000
v 450669.00000000 136450.00000000 219783.00000000
v 453036.00000000 141383.00000000 220352.00000000
v 466182.00000000 140394.00000000 173328.00000000
v 468671.00000000 142521.00000000 176036.00000000
v 470009.00000000 139944.00000000 175475.00000000
v 470502.00000000 134081.00000000 175051.00000000
v 458714.00000000 141518.00000000 172521.00000000
v 437708.00000000 146395.00000000 180340.00000000
v 445524.00000000 140305.00000000 175263.00000000
v 436720.00000000 139913.00000000 178541.00000000
v 431526.00000000 140754.00000000 183344.00000000
v 420625.00000000 138584.00000000 220089.00000000
v 412628.00000000 140909.00000000 215797.00000000
v 422889.00000000 138558.00000000 220224.00000000
v 435247.00000000 140353.00000000 221955.00000000
v 424873.00000000 145283.00000000 224030.00000000
v 452464.00000000 142083.00000000 173371.00000000
v 411642.00000000 143725.00000000 188438.00000000
v 408385.00000000 137508.00000000 191743.00000000
v 405694.00000000 132243.00000000 198519.00000000
v 404740.00000000 139727.00000000 201824.00000000
v 461227.00000000 142654.00000000 214209.00000000
v 469338.00000000 139465.00000000 207526.00000000
v 472321.00000000 137729.00000000 198935.00000000
v 421543.00000000 144004.00000000 188056.00000000
v 429635.00000000 148835.00000000 182923.00000000
v 422874.00000000 148125.00000000 187523.00000000
v 472583.00000000 139197.00000000 185012.00000000
v 460329.00000000 142682.00000000 214838.00000000
v 452926.00000000 147584.00000000 222351.00000000
v 406935.00000000 138789.00000000 210827.00000000
v 498201.00000000 178922.00000000 24812.00000000
v 492495.00000000 178783.00000000 25106.00000000
v 498212.00000000 186488.00000000 30392.00000000
v 504596.00000000 177197.00000000 27611.00000000
v 497685.00000000 166961.00000000 25418.00000000
v 498265.00000000 145281.00000000 55219.00000000
v 491325.00000000 144238.00000000 60645.00000000
v 491190.00000000 145237.00000000 53536.00000000
v 497649.00000000 146874.00000000 47275.00000000
v 504882.00000000 146646.00000000 52114.00000000
v 504827.00000000 145776.00000000 59953.00000000
v 498299.00000000 144780.00000000 61084.00000000
v 495244.00000000 180205.00000000 84059.00000000
v 491014.00000000 180971.00000000 84360.00000000
v 497450.00000000 167657.00000000 93745.00000000
v 502673.00000000 167032.00000000 90762.00000000
v 501157.00000000 179924.00000000 80350.00000000
v 497255.00000000 191986.00000000 75680.00000000
v 497677.00000000 155492.00000000 91073.00000000
v 497610.00000000 146916.00000000 82211.00000000
v 505135.00000000 155963.00000000 89354.00000000
v 496743.00000000 145755.00000000 68131.00000000
v 505021.00000000 147344.00000000 71951.00000000
v 497793.00000000 193308.00000000 47137.00000000
v 497621.00000000 196280.00000000 53104.00000000
v 497579.00000000 197224.00000000 58826.00000000
v 505121.00000000 195452.00000000 53688.00000000
v 505147.00000000 192857.00000000 48011.00000000
v 487662.00000000 178869.00000000 84454.00000000
v 488024.00000000 177957.00000000 26293.00000000
v 487068.00000000 146467.00000000 53797.00000000
v 487086.00000000 148309.00000000 47423.00000000
v 489705.00000000 151881.00000000 41216.00000000
v 490950.00000000 151535.00000000 41363.00000000
v 510800.00000000 170270.00000000 31645.00000000
v 511912.00000000 177310.00000000 31224.00000000
v 508978.00000000 183054.00000000 36356.00000000
v 514860.00000000 177472.00000000 38506.00000000
v 515865.00000000 175665.00000000 37526.00000000
v 511885.00000000 149240.00000000 52673.00000000
v 512141.00000000 148877.00000000 49876.00000000
v 515579.00000000 154326.00000000 48571.00000000
v 514941.00000000 154597.00000000 55960.00000000
v 511027.00000000 149458.00000000 61369.00000000
v 510003.00000000 188057.00000000 69752.00000000
v 512747.00000000 174866.00000000 80727.00000000
v 512305.00000000 166524.00000000 85473.00000000
v 518111.00000000 167604.00000000 81357.00000000
v 516375.00000000 175166.00000000 75245.00000000
v 515322.00000000 183517.00000000 68708.00000000
v 513444.00000000 157016.00000000 85689.00000000
v 504539.00000000 148464.00000000 80503.00000000
v 512407.00000000 150925.00000000 78398.00000000
v 515271.00000000 155474.00000000 75795.00000000
v 518560.00000000 159780.00000000 79062.00000000
v 510796.00000000 150207.00000000 69601.00000000
v 513887.00000000 153154.00000000 68200.00000000
v 510418.00000000 189995.00000000 49376.00000000
v 512878.00000000 191453.00000000 55229.00000000
v 506120.00000000 196867.00000000 59717.00000000
v 513154.00000000 192884.00000000 61111.00000000
v 516617.00000000 185279.00000000 56990.00000000
v 514242.00000000 185228.00000000 50830.00000000
v 496629.00000000 189575.00000000 38611.00000000
v 503696.00000000 187199.00000000 38148.00000000
v 503590.00000000 186302.00000000 32978.00000000
v 498718.00000000 148757.00000000 44362.00000000
v 492146.00000000 147689.00000000 47469.00000000
v 499408.00000000 152159.00000000 33689.00000000
v 504859.00000000 148893.00000000 41148.00000000
v 504250.00000000 146477.00000000 48527.00000000
v 498342.00000000 157721.00000000 27080.00000000
v 505175.00000000 158061.00000000 28435.00000000
v 497826.00000000 198132.00000000 68328.00000000
v 503537.00000000 189711.00000000 74052.00000000
v 504797.00000000 195905.00000000 67666.00000000
v 517041.00000000 167671.00000000 42111.00000000
v 517725.00000000 160220.00000000 47636.00000000
v 518513.00000000 158724.00000000 42685.00000000
v 516050.00000000 154312.00000000 43568.00000000
v 516677.00000000 156484.00000000 40515.00000000
v 517086.00000000 158680.00000000 39600.00000000
v 519482.00000000 167601.00000000 74325.00000000
v 517388.00000000 159929.00000000 72771.00000000
v 516359.00000000 163293.00000000 67989.00000000
v 516872.00000000 160668.00000000 54182.00000000
v 518355.00000000 167900.00000000 64782.00000000
v 514076.00000000 153440.00000000 62807.00000000
v 517486.00000000 167926.00000000 49083.00000000
v 517673.00000000 166798.00000000 55255.00000000
v 517582.00000000 176016.00000000 60199.00000000
v 518644.00000000 185892.00000000 62579.00000000
v 517999.00000000 175556.00000000 65270.00000000
v 516738.00000000 174556.00000000 49922.00000000
v 517351.00000000 175427.00000000 71808.00000000
v 517394.00000000 185192.00000000 66618.00000000
v 512973.00000000 179873.00000000 44052.00000000
v 516379.00000000 174218.00000000 40585.00000000
v 516002.00000000 167981.00000000 36192.00000000
v 509927.00000000 184045.00000000 41696.00000000
v 511774.00000000 150080.00000000 42356.00000000
v 512079.00000000 152348.00000000 37050.00000000
v 511058.00000000 159608.00000000 34630.00000000
v 505276.00000000 151416.00000000 35251.00000000
v 505003.00000000 168747.00000000 28033.00000000
v 511007.00000000 192083.00000000 66226.00000000
v 435877.00000000 133374.00000000 79022.00000000
v 435310.00000000 140236.00000000 84468.00000000
v 435135.00000000 140323.00000000 75024.00000000
v 438336.00000000 134235.00000000 73027.00000000
v 438981.00000000 126182.00000000 76725.00000000
v 436438.00000000 126701.00000000 82681.00000000
v 434822.00000000 133679.00000000 85037.00000000
v 453357.00000000 133186.00000000 85026.00000000
v 453552.00000000 133396.00000000 93571.00000000
v 448969.00000000 133436.00000000 100036.00000000
v 454219.00000000 125469.00000000 95921.00000000
v 455486.00000000 125403.00000000 87604.00000000
v 444604.00000000 134335.00000000 68069.00000000
v 448585.00000000 133784.00000000 70024.00000000
v 450521.00000000 133027.00000000 73238.00000000
v 449267.00000000 125480.00000000 73098.00000000
v 445176.00000000 125748.00000000 72082.00000000
v 451740.00000000 138588.00000000 79930.00000000
v 452348.00000000 133684.00000000 79691.00000000
v 453992.00000000 124862.00000000 81570.00000000
v 452547.00000000 125605.00000000 76806.00000000
v 453862.00000000 147912.00000000 75264.00000000
v 450850.00000000 144521.00000000 74849.00000000
v 454334.00000000 149245.00000000 80487.00000000
v 435663.00000000 143112.00000000 88549.00000000
v 438382.00000000 148250.00000000 94223.00000000
v 434347.00000000 148923.00000000 88702.00000000
v 432603.00000000 145112.00000000 82750.00000000
v 435604.00000000 137480.00000000 90872.00000000
v 432541.00000000 146192.00000000 72949.00000000
v 432997.00000000 143715.00000000 73281.00000000
v 442582.00000000 117288.00000000 78665.00000000
v 440950.00000000 126157.00000000 73536.00000000
v 444993.00000000 117748.00000000 76847.00000000
v 445338.00000000 108904.00000000 80890.00000000
v 440601.00000000 109772.00000000 82171.00000000
v 437507.00000000 116652.00000000 83150.00000000
v 434193.00000000 116132.00000000 96485.00000000
v 436857.00000000 125421.00000000 99498.00000000
v 435666.00000000 125773.00000000 93793.00000000
v 435395.00000000 116446.00000000 91059.00000000
v 431522.00000000 107403.00000000 94320.00000000
v 432266.00000000 107248.00000000 100866.00000000
v 437011.00000000 116001.00000000 100439.00000000
v 449551.00000000 116860.00000000 77978.00000000
v 453111.00000000 115776.00000000 80243.00000000
v 449362.00000000 109523.00000000 81960.00000000
v 449047.00000000 116886.00000000 102012.00000000
v 442932.00000000 125359.00000000 102391.00000000
v 442947.00000000 116608.00000000 103509.00000000
v 441181.00000000 108589.00000000 106542.00000000
v 448682.00000000 109138.00000000 104716.00000000
v 441825.00000000 133533.00000000 101547.00000000
v 437686.00000000 137107.00000000 96945.00000000
v 436499.00000000 133606.00000000 98033.00000000
v 434796.00000000 133451.00000000 91931.00000000
v 435590.00000000 126346.00000000 88354.00000000
v 442044.00000000 134425.00000000 68692.00000000
v 433237.00000000 103076.00000000 108626.00000000
v 427112.00000000 102767.00000000 102787.00000000
v 426153.00000000 101277.00000000 95709.00000000
v 421886.00000000 99763.00000000 97399.00000000
v 424532.00000000 98620.00000000 104165.00000000
v 433555.00000000 99097.00000000 109660.00000000
v 445029.00000000 103948.00000000 81896.00000000
v 450496.00000000 103797.00000000 82997.00000000
v 452680.00000000 109132.00000000 83822.00000000
v 453337.00000000 103645.00000000 85377.00000000
v 453137.00000000 98162.00000000 80958.00000000
v 446557.00000000 98050.00000000 80856.00000000
v 450444.00000000 103734.00000000 106640.00000000
v 441257.00000000 102951.00000000 110209.00000000
v 441569.00000000 100086.00000000 111389.00000000
v 427028.00000000 103655.00000000 89693.00000000
v 431506.00000000 105513.00000000 89421.00000000
v 431251.00000000 103089.00000000 86598.00000000
v 430677.00000000 99661.00000000 84760.00000000
v 423706.00000000 99562.00000000 88937.00000000
v 455485.00000000 116456.00000000 84580.00000000
v 455810.00000000 116320.00000000 90357.00000000
v 455729.00000000 108898.00000000 87711.00000000
v 452988.00000000 116611.00000000 97557.00000000
v 448596.00000000 125199.00000000 101000.00000000
v 454220.00000000 107841.00000000 98902.00000000
v 457221.00000000 108703.00000000 92921.00000000
v 436018.00000000 115269.00000000 85515.00000000
v 436616.00000000 109660.00000000 84894.00000000
v 425729.00000000 94665.00000000 95874.00000000
v 427641.00000000 94756.00000000 89365.00000000
v 432801.00000000 94303.00000000 84121.00000000
v 432043.00000000 92603.00000000 89212.00000000
v 464505.00000000 93565.00000000 99188.00000000
v 462474.00000000 98145.00000000 93308.00000000
v 457981.00000000 98474.00000000 98992.00000000
v 455199.00000000 94402.00000000 106184.00000000
v 459483.00000000 89174.00000000 105461.00000000
v 468935.00000000 88960.00000000 98927.00000000
v 469903.00000000 95036.00000000 92279.00000000
v 462386.00000000 94522.00000000 80034.00000000
v 461670.00000000 98928.00000000 87909.00000000
v 467353.00000000 93699.00000000 85652.00000000
v 472449.00000000 88158.00000000 91255.00000000
v 470916.00000000 87902.00000000 84580.00000000
v 465011.00000000 88834.00000000 78025.00000000
v 439607.00000000 98674.00000000 82149.00000000
v 441599.00000000 93857.00000000 81452.00000000
v 448035.00000000 94270.00000000 77326.00000000
v 444059.00000000 89423.00000000 81511.00000000
v 437293.00000000 90727.00000000 84659.00000000
v 441077.00000000 103166.00000000 83474.00000000
v 456618.00000000 102430.00000000 89142.00000000
v 457369.00000000 103162.00000000 94174.00000000
v 457353.00000000 98590.00000000 84497.00000000
v 454686.00000000 103692.00000000 99798.00000000
v 453208.00000000 97210.00000000 105785.00000000
v 444901.00000000 85826.00000000 86573.00000000
v 448538.00000000 85119.00000000 83675.00000000
v 450880.00000000 89225.00000000 77370.00000000
v 454601.00000000 84862.00000000 81005.00000000
v 453470.00000000 83269.00000000 87150.00000000
v 448135.00000000 84510.00000000 90390.00000000
v 441249.00000000 84526.00000000 100695.00000000
v 438588.00000000 90401.00000000 106210.00000000
v 434420.00000000 89476.00000000 101308.00000000
v 440612.00000000 86610.00000000 96537.00000000
v 446188.00000000 82143.00000000 97082.00000000
v 447774.00000000 81349.00000000 100146.00000000
v 444121.00000000 83882.00000000 104373.00000000
v 457885.00000000 88762.00000000 76213.00000000
v 460266.00000000 84898.00000000 80033.00000000
v 466070.00000000 84203.00000000 81366.00000000
v 462350.00000000 82041.00000000 85265.00000000
v 457745.00000000 81915.00000000 85710.00000000
v 451834.00000000 83960.00000000 105942.00000000
v 447367.00000000 88745.00000000 107582.00000000
v 449103.00000000 81407.00000000 103506.00000000
v 454752.00000000 80847.00000000 103727.00000000
v 461221.00000000 84565.00000000 104521.00000000
v 443788.00000000 93712.00000000 107558.00000000
v 434478.00000000 96175.00000000 108905.00000000
v 455443.00000000 95254.00000000 76747.00000000
v 427922.00000000 93988.00000000 103272.00000000
v 431900.00000000 89843.00000000 97057.00000000
v 452903.00000000 83155.00000000 92566.00000000
v 459151.00000000 82078.00000000 94767.00000000
v 452805.00000000 81432.00000000 96829.00000000
v 448079.00000000 83968.00000000 93473.00000000
v 459006.00000000 82026.00000000 90975.00000000
v 460499.00000000 79385.00000000 98046.00000000
v 454511.00000000 79717.00000000 98181.00000000
v 463943.00000000 82306.00000000 90845.00000000
v 465815.00000000 81953.00000000 84945.00000000
v 468058.00000000 82150.00000000 88197.00000000
v 465101.00000000 82272.00000000 93377.00000000
v 464601.00000000 81067.00000000 97319.00000000
v 466996.00000000 82530.00000000 98062.00000000
v 461860.00000000 81429.00000000 101639.00000000
v 471260.00000000 85000.00000000 86093.00000000
v 471942.00000000 86136.00000000 91700.00000000
v 469282.00000000 84404.00000000 98478.00000000
v 469303.00000000 82635.00000000 93362.00000000
v 442035.00000000 86496.00000000 92435.00000000
v 435195.00000000 152589.00000000 172865.00000000
v 441793.00000000 152951.00000000 174755.00000000
v 435647.00000000 151079.00000000 176012.00000000
v 428888.00000000 154077.00000000 174044.00000000
v 441580.00000000 154267.00000000 171656.00000000
v 420721.00000000 172630.00000000 179176.00000000
v 421148.00000000 172672.00000000 186138.00000000
v 424494.00000000 174247.00000000 187024.00000000
v 428098.00000000 173892.00000000 179176.00000000
v 418223.00000000 172081.00000000 179420.00000000
v 417146.00000000 161637.00000000 175833.00000000
v 422139.00000000 155128.00000000 178908.00000000
v 417262.00000000 160917.00000000 183478.00000000
v 416311.00000000 163588.00000000 183834.00000000
v 415227.00000000 166352.00000000 176663.00000000
v 419196.00000000 157615.00000000 171107.00000000
v 419536.00000000 157102.00000000 173006.00000000
v 438901.00000000 171111.00000000 176524.00000000
v 441225.00000000 167944.00000000 181945.00000000
v 440882.00000000 169487.00000000 176732.00000000
v 444270.00000000 163960.00000000 178168.00000000
v 443786.00000000 165044.00000000 174759.00000000
v 443730.00000000 158765.00000000 172822.00000000
v 444759.00000000 156852.00000000 174563.00000000
v 417728.00000000 169426.00000000 184965.00000000
v 415572.00000000 170063.00000000 177033.00000000
v 432434.00000000 173065.00000000 185843.00000000
v 432443.00000000 173035.00000000 180468.00000000
v 438879.00000000 170156.00000000 185618.00000000
v 422547.00000000 154651.00000000 177113.00000000
v 429163.00000000 153138.00000000 178860.00000000
v 422922.00000000 154323.00000000 178884.00000000
v 467342.00000000 162023.00000000 35610.00000000
v 465134.00000000 170535.00000000 33421.00000000
v 473806.00000000 169743.00000000 36684.00000000
v 469207.00000000 154108.00000000 37218.00000000
v 468457.00000000 181518.00000000 72049.00000000
v 468580.00000000 180143.00000000 73351.00000000
v 468054.00000000 172827.00000000 76836.00000000
v 468495.00000000 153733.00000000 60491.00000000
v 467930.00000000 149965.00000000 54120.00000000
v 468225.00000000 152888.00000000 48836.00000000
v 467114.00000000 181277.00000000 41689.00000000
v 466933.00000000 183680.00000000 43629.00000000
v 466627.00000000 183702.00000000 46301.00000000
v 468870.00000000 183769.00000000 54034.00000000
v 468194.00000000 185458.00000000 60529.00000000
v 467261.00000000 158327.00000000 73249.00000000
v 462169.00000000 154387.00000000 69822.00000000
v 466413.00000000 155203.00000000 68477.00000000
v 461190.00000000 153609.00000000 62337.00000000
v 468121.00000000 152659.00000000 42496.00000000
v 468123.00000000 163434.00000000 77073.00000000
v 466940.00000000 176863.00000000 35604.00000000
v 469110.00000000 184876.00000000 65386.00000000
v 435257.00000000 162854.00000000 114598.00000000
v 427037.00000000 162102.00000000 116161.00000000
v 442570.00000000 166645.00000000 115195.00000000
v 415964.00000000 179818.00000000 116094.00000000
v 420527.00000000 182021.00000000 114910.00000000
v 426303.00000000 184453.00000000 113112.00000000
v 411531.00000000 166328.00000000 115208.00000000
v 409977.00000000 167621.00000000 115361.00000000
v 410456.00000000 173385.00000000 115002.00000000
v 442598.00000000 180814.00000000 115277.00000000
v 439505.00000000 179801.00000000 119320.00000000
v 443620.00000000 175111.00000000 115870.00000000
v 441187.00000000 182816.00000000 114129.00000000
v 434657.00000000 183910.00000000 114124.00000000
v 420042.00000000 162811.00000000 115636.00000000
v 443779.00000000 171174.00000000 115581.00000000
v 412209.00000000 176594.00000000 113425.00000000
v 450396.00000000 174200.00000000 92552.00000000
v 450681.00000000 165638.00000000 93194.00000000
v 446191.00000000 160565.00000000 101159.00000000
v 451152.00000000 160642.00000000 91478.00000000
v 447405.00000000 177639.00000000 91234.00000000
v 423470.00000000 150214.00000000 187082.00000000
v 418711.00000000 151963.00000000 189362.00000000
v 429430.00000000 149687.00000000 182989.00000000
v 428590.00000000 175170.00000000 188902.00000000
v 432953.00000000 173133.00000000 189253.00000000
v 439322.00000000 170310.00000000 188534.00000000
v 418052.00000000 163777.00000000 186914.00000000
v 419541.00000000 170126.00000000 188452.00000000
v 423475.00000000 173950.00000000 187879.00000000
v 446917.00000000 157544.00000000 177454.00000000
v 443211.00000000 151587.00000000 176494.00000000
v 445068.00000000 163702.00000000 180663.00000000
v 442584.00000000 167948.00000000 185556.00000000
v 419153.00000000 155583.00000000 189706.00000000
v 424714.00000000 174463.00000000 187811.00000000
v 427411.00000000 174322.00000000 187329.00000000
v 436378.00000000 151166.00000000 178467.00000000
v 428608.00000000 153131.00000000 82574.00000000
v 428661.00000000 152039.00000000 71382.00000000
v 432043.00000000 149089.00000000 63939.00000000
v 433254.00000000 157288.00000000 96486.00000000
v 429599.00000000 155866.00000000 90465.00000000
v 455895.00000000 150167.00000000 65796.00000000
v 457636.00000000 153543.00000000 73390.00000000
v 455251.00000000 151407.00000000 81285.00000000
v 438972.00000000 148004.00000000 60583.00000000
v 446100.00000000 147913.00000000 60805.00000000
v 453207.00000000 152706.00000000 90215.00000000
v 447016.00000000 152578.00000000 98273.00000000
v 439192.00000000 154239.00000000 98490.00000000
v 452604.00000000 148596.00000000 62269.00000000
v 462236.00000000 165439.00000000 200117.00000000
v 441926.00000000 169593.00000000 219460.00000000
v 442252.00000000 171872.00000000 133606.00000000
v 428142.00000000 175948.00000000 172840.00000000
v 426519.00000000 185941.00000000 108794.00000000
v 408606.00000000 174022.00000000 83033.00000000
v 461126.00000000 171085.00000000 31800.00000000
v 431540.00000000 147511.00000000 82836.00000000
v 434601.00000000 108727.00000000 105043.00000000
f 1 2 3
f 2 4 3
f 3 5 6
f 6 1 3
f 7 8 9
f 9 10 11
f 11 12 9
f 9 13 7
f 14 15 16
f 16 17 14
f 14 18 19
f 19 20 14
f 21 22 23
f 21 24 25
f 21 26 27
f 27 28 21
f 29 30 31
f 30 32 31
f 32 33 31
f 31 34 29
f 35 36 37
f 36 38 37
f 37 26 25
f 25 35 37
f 39 40 41
f 40 42 41
f 41 43 44
f 41 45 39
f 46 47 48
f 47 49 48
f 49 50 48
f 48 51 46
f 52 53 54
f 54 55 52
f 55 56 52
f 52 57 58
f 59 60 61
f 60 62 61
f 61 63 64
f 61 65 59
f 66 67 68
f 68 69 70
f 68 71 60
f 68 72 66
f 73 56 74
f 74 75 76
f 74 77 47
f 47 73 74
f 78 79 80
f 78 5 4
f 4 36 78
f 36 81 78
f 82 83 84
f 82 85 86
f 86 30 82
f 30 87 82
f 88 12 89
f 89 90 91
f 91 16 89
f 16 88 89
f 92 93 27
f 27 38 92
f 92 94 2
f 2 95 92
f 96 97 98
f 98 99 96
f 99 100 96
f 100 101 96
f 102 103 104
f 103 105 104
f 104 106 107
f 107 102 104
f 108 109 110
f 109 111 110
f 110 112 113
f 110 114 108
f 115 116 107
f 115 106 117
f 115 118 119
f 119 120 115
f 121 100 122
f 122 123 124
f 124 125 122
f 122 126 121
f 127 128 129
f 127 130 119
f 119 131 127
f 131 132 127
f 133 134 135
f 134 136 135
f 135 137 138
f 135 139 133
f 140 141 142
f 140 143 144
f 144 145 140
f 145 146 140
f 147 148 149
f 149 150 151
f 151 152 149
f 149 34 147
f 153 154 155
f 155 156 157
f 157 158 155
f 155 159 153
f 160 161 162
f 160 163 164
f 164 165 160
f 165 166 160
f 167 168 169
f 167 170 171
f 171 142 167
f 167 141 172
f 173 174 175
f 174 176 175
f 176 177 175
f 175 178 173
f 179 159 158
f 179 180 181
f 181 174 179
f 179 182 183
f 184 185 165
f 184 186 187
f 184 188 189
f 189 190 184
f 191 44 192
f 192 43 193
f 193 194 192
f 194 191 192
f 195 196 197
f 196 198 197
f 197 199 200
f 197 201 195
f 202 189 203
f 203 188 204
f 204 205 203
f 203 206 202
f 207 145 208
f 145 209 208
f 208 210 211
f 211 207 208
f 212 213 194
f 212 214 215
f 212 216 217
f 212 218 219
f 220 221 222
f 222 223 220
f 220 224 225
f 225 226 220
f 227 228 229
f 229 230 231
f 231 232 229
f 229 233 227
f 234 235 236
f 236 237 238
f 238 239 236
f 236 240 234
f 241 242 243
f 243 244 245
f 243 246 247
f 247 241 243
f 248 249 250
f 250 221 251
f 251 252 250
f 250 253 248
f 254 240 239
f 239 255 254
f 254 256 257
f 257 258 254
f 259 260 247
f 259 246 222
f 222 249 259
f 259 261 262
f 263 200 264
f 264 199 265
f 265 266 264
f 266 263 264
f 267 268 269
f 268 270 269
f 269 271 272
f 272 267 269
f 273 266 274
f 274 275 276
f 274 277 278
f 278 273 274
f 279 280 281
f 279 282 283
f 279 284 285
f 279 286 287
f 288 289 257
f 257 290 288
f 288 291 292
f 292 293 288
f 294 295 296
f 294 297 298
f 298 299 294
f 299 300 294
f 301 302 303
f 303 304 301
f 301 305 298
f 298 306 301
f 307 308 309
f 309 310 311
f 311 312 309
f 309 313 307
f 314 315 316
f 316 317 314
f 314 318 319
f 314 320 321
f 322 323 324
f 324 325 326
f 326 327 324
f 327 322 324
f 328 329 330
f 329 331 330
f 330 332 333
f 330 334 328
f 335 224 336
f 336 337 335
f 335 338 339
f 335 340 225
f 341 342 251
f 251 226 341
f 341 340 343
f 343 344 341
f 345 346 347
f 346 344 347
f 347 348 349
f 347 350 345
f 351 352 353
f 351 354 355
f 351 356 357
f 357 358 351
f 359 360 361
f 361 362 363
f 361 364 365
f 361 366 359
f 363 367 368
f 368 369 370
f 370 371 368
f 371 363 368
f 372 373 374
f 372 375 376
f 372 362 360
f 372 377 378
f 379 380 381
f 379 382 383
f 383 384 379
f 384 385 379
f 386 375 387
f 387 388 386
f 386 369 367
f 367 376 386
f 389 390 391
f 389 392 322
f 389 393 394
f 394 395 389
f 396 397 398
f 396 390 395
f 396 399 400
f 400 331 396
f 401 402 403
f 401 380 385
f 401 404 405
f 405 388 401
f 406 394 407
f 407 393 408
f 408 409 407
f 409 406 407
f 410 354 311
f 311 345 410
f 410 350 411
f 410 356 355
f 412 413 278
f 412 277 414
f 414 316 412
f 316 415 412
f 416 252 417
f 417 342 346
f 346 308 417
f 417 418 416
f 419 420 292
f 292 421 419
f 421 303 419
f 303 422 419
f 423 424 425
f 425 426 267
f 425 427 428
f 428 423 425
f 429 291 430
f 429 413 415
f 429 315 431
f 431 421 429
f 432 332 400
f 400 406 432
f 432 433 434
f 432 435 436
f 437 325 438
f 437 373 378
f 378 439 437
f 437 440 326
f 408 327 441
f 327 442 441
f 441 443 444
f 441 445 408
f 446 447 448
f 447 449 448
f 448 450 451
f 448 452 446
f 453 454 455
f 453 352 358
f 358 456 453
f 456 270 453
f 457 458 459
f 457 460 461
f 457 462 463
f 457 338 337
f 464 382 465
f 465 328 464
f 328 447 464
f 464 466 383
f 467 468 431
f 431 321 467
f 467 320 299
f 467 305 304
f 469 313 470
f 469 295 300
f 300 319 469
f 469 318 471
f 472 256 473
f 473 273 472
f 472 413 430
f 430 290 472
f 474 475 476
f 476 263 474
f 263 473 474
f 473 255 474
f 477 244 478
f 477 479 227
f 227 480 477
f 477 246 245
f 481 482 483
f 483 484 481
f 484 485 481
f 481 486 487
f 488 489 490
f 490 207 488
f 488 491 492
f 492 176 488
f 215 493 494
f 494 495 202
f 202 496 494
f 494 216 215
f 238 497 498
f 498 499 195
f 498 201 476
f 498 475 238
f 500 43 501
f 501 190 500
f 190 493 500
f 500 214 193
f 502 156 503
f 502 168 172
f 172 504 502
f 504 157 502
f 42 505 506
f 505 166 506
f 166 501 506
f 501 42 506
f 507 508 509
f 509 510 511
f 511 148 509
f 509 512 507
f 513 180 504
f 513 141 146
f 146 490 513
f 513 489 181
f 98 514 515
f 514 108 515
f 108 516 515
f 516 98 515
f 517 85 518
f 517 57 73
f 73 519 517
f 519 86 517
f 520 521 522
f 522 523 66
f 66 524 522
f 522 525 520
f 526 524 527
f 527 72 59
f 527 65 528
f 527 529 526
f 84 530 531
f 531 53 58
f 531 57 518
f 518 84 531
f 32 519 532
f 532 533 46
f 532 51 534
f 532 535 32
f 536 528 537
f 528 538 537
f 538 514 537
f 537 97 536
f 539 354 353
f 539 352 540
f 539 295 470
f 470 312 539
f 541 542 543
f 543 422 541
f 541 302 544
f 544 424 541
f 414 545 546
f 546 253 416
f 416 547 546
f 546 548 414
f 317 547 549
f 549 418 307
f 307 471 549
f 549 318 317
f 550 426 544
f 544 306 550
f 550 297 551
f 550 454 268
f 540 455 552
f 455 551 552
f 552 297 296
f 552 295 540
f 553 554 555
f 555 482 487
f 487 556 555
f 555 557 553
f 265 558 559
f 559 260 262
f 262 560 559
f 559 275 265
f 561 562 563
f 563 287 561
f 287 564 561
f 561 565 566
f 276 560 567
f 567 261 248
f 248 545 567
f 567 277 276
f 568 569 570
f 570 241 568
f 568 260 558
f 558 198 568
f 571 230 572
f 571 573 234
f 571 240 574
f 574 231 571
f 575 576 577
f 575 213 219
f 575 218 578
f 578 209 575
f 144 579 580
f 579 191 580
f 580 213 577
f 577 144 580
f 187 581 582
f 582 159 183
f 582 182 583
f 583 187 582
f 204 583 584
f 583 173 584
f 584 178 585
f 584 586 204
f 164 587 588
f 587 153 588
f 588 159 581
f 581 164 588
f 589 590 6
f 6 80 589
f 80 134 589
f 589 591 592
f 520 593 594
f 594 595 121
f 121 596 594
f 594 597 520
f 598 65 64
f 598 63 599
f 599 109 598
f 598 600 538
f 601 529 536
f 536 101 601
f 601 595 593
f 593 526 601
f 105 136 602
f 602 79 81
f 602 603 604
f 604 105 602
f 605 170 606
f 605 607 39
f 39 579 605
f 579 171 605
f 608 106 604
f 604 35 608
f 608 24 609
f 609 117 608
f 610 611 131
f 610 118 609
f 609 23 610
f 610 22 612
f 613 516 614
f 614 114 615
f 614 53 530
f 614 83 613
f 50 616 617
f 617 618 507
f 617 512 619
f 619 50 617
f 534 619 620
f 619 147 620
f 147 33 620
f 33 534 620
f 621 19 622
f 622 18 623
f 623 129 622
f 622 128 621
f 624 625 626
f 626 120 624
f 624 130 623
f 624 18 17
f 627 90 11
f 627 10 102
f 102 626 627
f 627 625 91
f 99 613 628
f 628 83 87
f 628 629 630
f 630 99 628
f 615 113 631
f 631 112 632
f 632 54 631
f 631 53 615
f 124 630 633
f 633 629 29
f 29 152 633
f 633 634 124
f 635 138 636
f 138 103 636
f 103 8 636
f 8 635 636
f 632 637 638
f 638 139 635
f 638 639 640
f 640 632 638
f 641 642 643
f 641 644 621
f 641 128 645
f 645 616 641
f 646 647 648
f 647 612 648
f 612 649 648
f 649 646 648
f 650 63 651
f 651 592 650
f 592 652 650
f 652 599 650
f 653 654 652
f 653 591 133
f 653 139 637
f 653 112 111
f 655 618 645
f 645 132 655
f 132 647 655
f 655 510 508
f 70 656 657
f 657 93 95
f 657 658 659
f 659 70 657
f 76 660 661
f 661 13 88
f 88 662 661
f 662 76 661
f 663 664 649
f 649 28 663
f 663 93 656
f 663 69 665
f 666 77 662
f 666 15 20
f 666 644 643
f 666 642 49
f 667 668 640
f 640 7 667
f 7 660 667
f 660 55 667
f 62 659 669
f 659 1 669
f 669 590 651
f 651 62 669
f 670 450 671
f 670 435 672
f 672 673 670
f 673 674 670
f 675 676 677
f 677 678 675
f 678 679 675
f 675 680 681
f 682 443 683
f 682 366 684
f 682 685 686
f 686 687 682
f 684 365 688
f 365 689 688
f 689 690 688
f 688 685 684
f 689 371 691
f 691 676 681
f 691 680 692
f 692 689 691
f 693 409 694
f 694 445 695
f 695 696 694
f 694 697 693
f 442 439 698
f 698 377 359
f 359 683 698
f 683 442 698
f 699 334 333
f 333 436 699
f 699 435 671
f 671 449 699
f 700 369 405
f 405 701 700
f 701 677 700
f 677 370 700
f 701 384 702
f 702 466 446
f 702 452 703
f 703 701 702
f 704 673 705
f 673 706 705
f 705 707 708
f 708 704 705
f 709 680 679
f 679 710 709
f 709 711 712
f 712 713 709
f 714 686 715
f 715 685 716
f 715 717 718
f 715 719 714
f 716 690 720
f 720 721 722
f 720 723 724
f 724 716 720
f 722 692 725
f 725 680 713
f 713 726 725
f 725 723 722
f 727 696 728
f 728 729 730
f 730 731 728
f 728 732 727
f 672 434 733
f 733 433 693
f 693 734 733
f 733 735 672
f 736 737 703
f 703 738 736
f 738 739 736
f 736 740 678
f 738 451 741
f 741 450 674
f 674 742 741
f 742 738 741
f 743 445 444
f 444 687 743
f 743 744 745
f 745 695 743
f 746 747 748
f 747 749 748
f 748 750 751
f 751 746 748
f 752 724 753
f 753 723 726
f 726 754 753
f 754 752 753
f 755 756 754
f 755 757 712
f 755 711 747
f 755 758 759
f 760 761 762
f 760 756 759
f 759 763 760
f 763 731 760
f 764 719 718
f 718 752 764
f 764 756 762
f 762 765 764
f 766 763 767
f 763 746 767
f 767 768 708
f 767 707 766
f 706 734 769
f 769 697 727
f 769 732 766
f 769 707 706
f 770 740 739
f 739 771 770
f 771 749 770
f 770 711 710
f 772 773 742
f 772 774 704
f 772 768 751
f 772 750 771
f 775 729 745
f 745 714 775
f 714 765 775
f 765 730 775
f 776 777 778
f 778 779 776
f 776 780 781
f 781 782 776
f 783 556 784
f 784 486 785
f 785 786 784
f 784 787 783
f 788 285 789
f 789 284 790
f 790 791 789
f 789 792 788
f 790 793 794
f 794 557 783
f 783 795 794
f 794 796 790
f 283 797 798
f 798 799 553
f 553 793 798
f 798 284 283
f 800 801 802
f 802 803 800
f 800 777 804
f 804 484 800
f 803 805 806
f 805 566 806
f 806 565 778
f 778 803 806
f 807 780 808
f 808 809 807
f 807 810 811
f 811 812 807
f 813 814 815
f 815 816 813
f 813 817 818
f 818 819 813
f 809 791 820
f 820 796 821
f 821 822 820
f 820 810 809
f 823 824 825
f 824 819 825
f 819 826 825
f 825 827 823
f 828 486 485
f 828 829 830
f 828 814 824
f 824 785 828
f 831 829 804
f 804 782 831
f 831 832 815
f 815 830 831
f 833 565 564
f 564 788 833
f 833 792 808
f 808 779 833
f 834 818 835
f 818 836 835
f 835 837 838
f 835 839 834
f 840 822 841
f 841 842 843
f 843 844 841
f 841 845 840
f 846 826 847
f 826 834 847
f 847 839 848
f 848 846 847
f 849 817 850
f 850 851 849
f 849 852 853
f 853 836 849
f 821 795 854
f 854 787 855
f 855 856 854
f 854 842 821
f 855 786 857
f 857 858 823
f 823 859 857
f 857 860 855
f 861 832 781
f 781 812 861
f 861 862 850
f 850 816 861
f 863 853 864
f 864 852 865
f 865 866 864
f 866 863 864
f 867 868 869
f 869 870 867
f 867 871 872
f 872 873 867
f 874 875 876
f 875 873 876
f 876 877 878
f 876 879 874
f 865 880 881
f 881 845 882
f 882 883 881
f 881 884 865
f 885 862 811
f 811 840 885
f 885 845 880
f 880 851 885
f 843 856 886
f 886 860 887
f 886 868 875
f 886 888 843
f 887 859 889
f 889 827 846
f 889 890 869
f 869 887 889
f 891 883 892
f 892 893 894
f 894 895 892
f 892 896 891
f 897 898 899
f 899 900 897
f 897 901 902
f 902 903 897
f 894 904 905
f 905 879 906
f 906 907 905
f 905 908 894
f 909 871 910
f 910 903 909
f 909 911 912
f 912 913 909
f 914 890 848
f 848 915 914
f 914 898 910
f 910 870 914
f 882 844 916
f 916 888 874
f 874 904 916
f 916 893 882
f 917 839 838
f 838 863 917
f 917 918 899
f 899 915 917
f 919 920 921
f 921 922 919
f 919 896 895
f 895 923 919
f 924 912 925
f 925 911 902
f 902 921 925
f 925 920 924
f 926 920 923
f 923 907 926
f 926 927 928
f 928 929 926
f 930 920 929
f 929 931 930
f 930 932 924
f 906 878 933
f 933 877 934
f 934 928 933
f 933 927 906
f 934 872 935
f 872 913 935
f 913 931 935
f 935 936 934
f 937 918 866
f 937 884 891
f 937 896 922
f 937 901 900
f 938 939 940
f 940 941 938
f 938 607 606
f 606 942 938
f 943 944 945
f 945 946 943
f 946 587 943
f 943 163 947
f 948 949 950
f 948 951 952
f 948 161 505
f 948 953 954
f 955 956 957
f 957 958 959
f 959 503 957
f 503 955 957
f 960 958 961
f 961 942 960
f 942 169 960
f 169 959 960
f 952 962 963
f 962 947 963
f 963 163 162
f 162 952 963
f 946 964 965
f 965 966 955
f 955 154 965
f 154 946 965
f 967 968 969
f 967 949 954
f 954 40 967
f 40 941 967
f 970 271 456
f 456 971 970
f 970 972 465
f 465 973 970
f 974 339 975
f 339 976 975
f 976 438 975
f 975 325 974
f 977 428 978
f 978 427 979
f 979 403 978
f 978 402 977
f 980 411 981
f 411 982 981
f 982 398 981
f 398 980 981
f 983 350 349
f 349 984 983
f 984 391 983
f 983 390 982
f 985 986 987
f 987 988 977
f 977 387 987
f 987 375 985
f 989 427 272
f 272 973 989
f 989 382 381
f 381 979 989
f 976 463 990
f 990 462 985
f 985 374 990
f 990 373 976
f 971 357 991
f 991 356 980
f 991 397 329
f 991 972 971
f 984 343 992
f 343 974 992
f 974 323 992
f 992 392 984
f 993 210 578
f 578 994 993
f 994 572 993
f 572 995 993
f 996 585 997
f 997 178 998
f 998 570 997
f 997 569 996
f 999 496 1000
f 496 1001 1000
f 1001 497 1000
f 497 999 1000
f 1002 1003 492
f 492 1004 1002
f 1002 479 478
f 478 1005 1002
f 1006 178 177
f 1006 1003 1005
f 1006 244 242
f 242 998 1006
f 994 217 1007
f 1007 216 999
f 999 235 1007
f 1007 573 994
f 1008 491 211
f 211 995 1008
f 1008 230 228
f 228 1004 1008
f 1001 205 1009
f 205 996 1009
f 1009 569 196
f 1009 499 1001
f 1010 232 1011
f 1011 1012 1013
f 1013 459 1011
f 459 1010 1011
f 223 480 1014
f 1014 233 1010
f 1014 458 336
f 1014 224 223
f 1015 664 665
f 665 1016 1015
f 1015 949 969
f 969 1017 1015
f 1018 125 1019
f 125 1020 1019
f 1019 966 964
f 964 1018 1019
f 1021 521 1022
f 1022 597 1023
f 1022 944 962
f 962 1021 1022
f 1024 150 511
f 511 1025 1024
f 1025 961 1024
f 1024 958 1026
f 1027 634 151
f 151 1026 1027
f 1026 956 1027
f 1027 966 1020
f 1016 67 1028
f 1028 523 1021
f 1021 950 1028
f 1028 949 1016
f 1023 596 1029
f 1029 126 1018
f 1029 1030 945
f 945 1023 1029
f 1025 646 1031
f 1031 664 1017
f 1031 968 940
f 1031 939 1025
f 1032 293 1033
f 1033 420 1034
f 1034 805 1033
f 805 1032 1033
f 1035 258 1036
f 1036 289 1032
f 1032 802 1036
f 802 1035 1036
f 1037 986 1038
f 1038 462 1039
f 1039 797 1038
f 1038 282 1037
f 1034 543 1040
f 1040 542 1041
f 1040 280 563
f 1040 562 1034
f 1039 461 1042
f 1042 460 1013
f 1013 1043 1042
f 1042 482 554
f 554 1039 1042
f 1044 1012 574
f 574 1035 1044
f 1044 801 483
f 483 1043 1044
f 1045 542 423
f 423 1037 1045
f 1045 282 281
f 281 1041 1045
f 1 658 2
f 2 94 4
f 3 4 5
f 6 590 1
f 7 639 8
f 9 8 10
f 11 90 12
f 9 12 13
f 14 20 15
f 16 625 17
f 14 17 18
f 19 644 20
f 21 28 22
f 21 23 24
f 21 25 26
f 27 93 28
f 29 629 30
f 30 1046 32
f 32 535 33
f 31 33 34
f 35 603 36
f 36 94 38
f 37 38 26
f 25 24 35
f 39 607 40
f 40 953 42
f 41 42 43
f 41 44 45
f 46 533 47
f 47 77 49
f 49 642 50
f 48 50 51
f 52 58 53
f 54 668 55
f 55 75 56
f 52 56 57
f 59 72 60
f 60 71 62
f 61 62 63
f 61 64 65
f 66 523 67
f 68 67 69
f 68 70 71
f 68 60 72
f 73 57 56
f 74 56 75
f 74 76 77
f 47 533 73
f 78 81 79
f 78 80 5
f 4 94 36
f 36 603 81
f 82 87 83
f 82 84 85
f 86 1046 30
f 30 629 87
f 88 13 12
f 89 12 90
f 91 625 16
f 16 15 88
f 92 95 93
f 27 26 38
f 92 38 94
f 2 658 95
f 96 101 97
f 98 1047 99
f 99 123 100
f 100 595 101
f 102 10 103
f 103 137 105
f 104 105 106
f 107 116 102
f 108 600 109
f 109 654 111
f 110 111 112
f 110 113 114
f 115 120 116
f 115 107 106
f 115 117 118
f 119 130 120
f 121 595 100
f 122 100 123
f 124 634 125
f 122 125 126
f 127 132 128
f 127 129 130
f 119 118 131
f 131 611 132
f 133 591 134
f 134 79 136
f 135 136 137
f 135 138 139
f 140 146 141
f 140 142 143
f 144 576 145
f 145 1048 146
f 147 512 148
f 149 148 150
f 151 634 152
f 149 152 34
f 153 1049 154
f 155 154 156
f 157 180 158
f 155 158 159
f 160 166 161
f 160 162 163
f 164 186 165
f 165 185 166
f 167 172 168
f 167 169 170
f 171 143 142
f 167 142 141
f 173 182 174
f 174 489 176
f 176 1003 177
f 175 177 178
f 179 183 159
f 179 158 180
f 181 489 174
f 179 174 182
f 184 190 185
f 184 165 186
f 184 187 188
f 189 495 190
f 191 45 44
f 192 44 43
f 193 214 194
f 194 213 191
f 195 499 196
f 196 569 198
f 197 198 199
f 197 200 201
f 202 495 189
f 203 189 188
f 204 586 205
f 203 205 206
f 207 1048 145
f 145 576 209
f 208 209 210
f 211 491 207
f 212 219 213
f 212 194 214
f 212 215 216
f 212 217 218
f 220 226 221
f 222 246 223
f 220 223 224
f 225 340 226
f 227 479 228
f 229 228 230
f 231 1012 232
f 229 232 233
f 234 573 235
f 236 235 237
f 238 475 239
f 236 239 240
f 241 1050 242
f 243 242 244
f 243 245 246
f 247 260 241
f 248 261 249
f 250 249 221
f 251 342 252
f 250 252 253
f 254 258 240
f 239 475 255
f 254 255 256
f 257 289 258
f 259 262 260
f 259 247 246
f 222 221 249
f 259 249 261
f 263 201 200
f 264 200 199
f 265 275 266
f 266 1051 263
f 267 426 268
f 268 454 270
f 269 270 271
f 272 427 267
f 273 1051 266
f 274 266 275
f 274 276 277
f 278 413 273
f 279 287 280
f 279 281 282
f 279 283 284
f 279 285 286
f 288 293 289
f 257 256 290
f 288 290 291
f 292 420 293
f 294 300 295
f 294 296 297
f 298 305 299
f 299 320 300
f 301 306 302
f 303 468 304
f 301 304 305
f 298 297 306
f 307 418 308
f 309 308 310
f 311 354 312
f 309 312 313
f 314 321 315
f 316 548 317
f 314 317 318
f 314 319 320
f 322 392 323
f 324 323 325
f 326 440 327
f 327 393 322
f 328 972 329
f 329 397 331
f 330 331 332
f 330 333 334
f 335 225 224
f 336 458 337
f 335 337 338
f 335 339 340
f 341 344 342
f 251 221 226
f 341 226 340
f 343 348 344
f 345 310 346
f 346 342 344
f 347 344 348
f 347 349 350
f 351 358 352
f 351 353 354
f 351 355 356
f 357 1052 358
f 359 377 360
f 361 360 362
f 361 363 364
f 361 365 366
f 363 362 367
f 368 367 369
f 370 676 371
f 371 364 363
f 372 378 373
f 372 374 375
f 372 376 362
f 372 360 377
f 379 385 380
f 379 381 382
f 383 466 384
f 384 404 385
f 386 376 375
f 387 402 388
f 386 388 369
f 367 362 376
f 389 395 390
f 389 391 392
f 389 322 393
f 394 399 395
f 396 331 397
f 396 398 390
f 396 395 399
f 400 332 331
f 401 388 402
f 401 403 380
f 401 385 404
f 405 369 388
f 406 399 394
f 407 394 393
f 408 445 409
f 409 433 406
f 410 355 354
f 311 310 345
f 410 345 350
f 410 411 356
f 412 415 413
f 412 278 277
f 414 548 316
f 316 315 415
f 416 253 252
f 417 252 342
f 346 310 308
f 417 308 418
f 419 422 420
f 292 291 421
f 421 468 303
f 303 302 422
f 423 542 424
f 425 424 426
f 425 267 427
f 428 988 423
f 429 421 291
f 429 430 413
f 429 415 315
f 431 468 421
f 432 436 332
f 400 399 406
f 432 406 433
f 432 434 435
f 437 326 325
f 437 438 373
f 378 377 439
f 437 439 440
f 408 393 327
f 327 440 442
f 441 442 443
f 441 444 445
f 446 466 447
f 447 334 449
f 448 449 450
f 448 451 452
f 453 270 454
f 453 455 352
f 358 1052 456
f 456 271 270
f 457 337 458
f 457 459 460
f 457 461 462
f 457 463 338
f 464 383 382
f 465 972 328
f 328 334 447
f 464 447 466
f 467 304 468
f 431 315 321
f 467 321 320
f 467 299 305
f 469 471 313
f 469 470 295
f 300 320 319
f 469 319 318
f 472 290 256
f 473 1051 273
f 472 273 413
f 430 291 290
f 474 255 475
f 476 201 263
f 263 1051 473
f 473 256 255
f 477 245 244
f 477 478 479
f 227 233 480
f 477 480 246
f 481 487 482
f 483 801 484
f 484 829 485
f 481 485 486
f 488 176 489
f 490 1048 207
f 488 207 491
f 492 1003 176
f 215 214 493
f 494 493 495
f 202 206 496
f 494 496 216
f 238 237 497
f 498 497 499
f 498 195 201
f 498 476 475
f 500 193 43
f 501 185 190
f 190 495 493
f 500 493 214
f 502 157 156
f 502 503 168
f 172 141 504
f 504 180 157
f 42 953 505
f 505 161 166
f 166 185 501
f 501 43 42
f 507 618 508
f 509 508 510
f 511 150 148
f 509 148 512
f 513 181 180
f 513 504 141
f 146 1048 490
f 513 490 489
f 98 97 514
f 514 600 108
f 108 114 516
f 516 1047 98
f 517 86 85
f 517 518 57
f 73 533 519
f 519 1046 86
f 520 597 521
f 522 521 523
f 66 72 524
f 522 524 525
f 526 525 524
f 527 524 72
f 527 59 65
f 527 528 529
f 84 83 530
f 531 530 53
f 531 58 57
f 518 85 84
f 32 1046 519
f 532 519 533
f 532 46 51
f 532 534 535
f 536 529 528
f 528 65 538
f 538 600 514
f 537 514 97
f 539 312 354
f 539 353 352
f 539 540 295
f 470 313 312
f 541 424 542
f 543 420 422
f 541 422 302
f 544 426 424
f 414 277 545
f 546 545 253
f 416 418 547
f 546 547 548
f 317 548 547
f 549 547 418
f 307 313 471
f 549 471 318
f 550 268 426
f 544 302 306
f 550 306 297
f 550 551 454
f 540 352 455
f 455 454 551
f 552 551 297
f 552 296 295
f 553 799 554
f 555 554 482
f 487 486 556
f 555 556 557
f 265 199 558
f 559 558 260
f 262 261 560
f 559 560 275
f 561 566 562
f 563 280 287
f 287 286 564
f 561 564 565
f 276 275 560
f 567 560 261
f 248 253 545
f 567 545 277
f 568 198 569
f 570 1050 241
f 568 241 260
f 558 199 198
f 571 231 230
f 571 572 573
f 571 234 240
f 574 1012 231
f 575 209 576
f 575 577 213
f 575 219 218
f 578 210 209
f 144 143 579
f 579 45 191
f 580 191 213
f 577 576 144
f 187 186 581
f 582 581 159
f 582 183 182
f 583 188 187
f 204 188 583
f 583 182 173
f 584 173 178
f 584 585 586
f 164 163 587
f 587 1049 153
f 588 153 159
f 581 186 164
f 589 592 590
f 6 5 80
f 80 79 134
f 589 134 591
f 520 525 593
f 594 593 595
f 121 126 596
f 594 596 597
f 598 538 65
f 598 64 63
f 599 654 109
f 598 109 600
f 601 526 529
f 536 97 101
f 601 101 595
f 593 525 526
f 105 137 136
f 602 136 79
f 602 81 603
f 604 106 105
f 605 171 170
f 605 606 607
f 39 45 579
f 579 143 171
f 608 117 106
f 604 603 35
f 608 35 24
f 609 118 117
f 610 612 611
f 610 131 118
f 609 24 23
f 610 23 22
f 613 1047 516
f 614 516 114
f 614 615 53
f 614 530 83
f 50 642 616
f 617 616 618
f 617 507 512
f 619 51 50
f 534 51 619
f 619 512 147
f 147 34 33
f 33 535 534
f 621 644 19
f 622 19 18
f 623 130 129
f 622 129 128
f 624 17 625
f 626 116 120
f 624 120 130
f 624 623 18
f 627 91 90
f 627 11 10
f 102 116 626
f 627 626 625
f 99 1047 613
f 628 613 83
f 628 87 629
f 630 123 99
f 615 114 113
f 631 113 112
f 632 668 54
f 631 54 53
f 124 123 630
f 633 630 629
f 29 34 152
f 633 152 634
f 635 139 138
f 138 137 103
f 103 10 8
f 8 639 635
f 632 112 637
f 638 637 139
f 638 635 639
f 640 668 632
f 641 616 642
f 641 643 644
f 641 621 128
f 645 618 616
f 646 510 647
f 647 611 612
f 612 22 649
f 649 664 646
f 650 599 63
f 651 590 592
f 592 591 652
f 652 654 599
f 653 111 654
f 653 652 591
f 653 133 139
f 653 637 112
f 655 508 618
f 645 128 132
f 132 611 647
f 655 647 510
f 70 69 656
f 657 656 93
f 657 95 658
f 659 71 70
f 76 75 660
f 661 660 13
f 88 15 662
f 662 77 76
f 663 665 664
f 649 22 28
f 663 28 93
f 663 656 69
f 666 49 77
f 666 662 15
f 666 20 644
f 666 643 642
f 667 55 668
f 640 639 7
f 7 13 660
f 660 75 55
f 62 71 659
f 659 658 1
f 669 1 590
f 651 63 62
f 670 674 450
f 670 671 435
f 672 735 673
f 673 774 674
f 675 681 676
f 677 737 678
f 678 740 679
f 675 679 680
f 682 687 443
f 682 683 366
f 682 684 685
f 686 744 687
f 684 366 365
f 365 364 689
f 689 721 690
f 688 690 685
f 689 364 371
f 691 371 676
f 691 681 680
f 692 721 689
f 693 433 409
f 694 409 445
f 695 729 696
f 694 696 697
f 442 440 439
f 698 439 377
f 359 366 683
f 683 443 442
f 699 449 334
f 333 332 436
f 699 436 435
f 671 450 449
f 700 370 369
f 405 404 701
f 701 737 677
f 677 676 370
f 701 404 384
f 702 384 466
f 702 446 452
f 703 737 701
f 704 774 673
f 673 735 706
f 705 706 707
f 708 768 704
f 709 713 680
f 679 740 710
f 709 710 711
f 712 757 713
f 714 744 686
f 715 686 685
f 715 716 717
f 715 718 719
f 716 685 690
f 720 690 721
f 720 722 723
f 724 717 716
f 722 721 692
f 725 692 680
f 713 757 726
f 725 726 723
f 727 697 696
f 728 696 729
f 730 761 731
f 728 731 732
f 672 435 434
f 733 434 433
f 693 697 734
f 733 734 735
f 736 678 737
f 703 452 738
f 738 773 739
f 736 739 740
f 738 452 451
f 741 451 450
f 674 774 742
f 742 773 738
f 743 695 445
f 444 443 687
f 743 687 744
f 745 729 695
f 746 758 747
f 747 711 749
f 748 749 750
f 751 768 746
f 752 717 724
f 753 724 723
f 726 757 754
f 754 756 752
f 755 759 756
f 755 754 757
f 755 712 711
f 755 747 758
f 760 731 761
f 760 762 756
f 759 758 763
f 763 732 731
f 764 765 719
f 718 717 752
f 764 752 756
f 762 761 765
f 766 732 763
f 763 758 746
f 767 746 768
f 767 708 707
f 706 735 734
f 769 734 697
f 769 727 732
f 769 766 707
f 770 710 740
f 739 773 771
f 771 750 749
f 770 749 711
f 772 771 773
f 772 742 774
f 772 704 768
f 772 751 750
f 775 730 729
f 745 744 714
f 714 719 765
f 765 761 730
f 776 782 777
f 778 565 779
f 776 779 780
f 781 832 782
f 783 557 556
f 784 556 486
f 785 858 786
f 784 786 787
f 788 286 285
f 789 285 284
f 790 796 791
f 789 791 792
f 790 284 793
f 794 793 557
f 783 787 795
f 794 795 796
f 283 282 797
f 798 797 799
f 553 557 793
f 798 793 284
f 800 484 801
f 802 1053 803
f 800 803 777
f 804 829 484
f 803 1053 805
f 805 562 566
f 806 566 565
f 778 777 803
f 807 812 780
f 808 792 809
f 807 809 810
f 811 862 812
f 813 819 814
f 815 832 816
f 813 816 817
f 818 1054 819
f 809 792 791
f 820 791 796
f 821 842 822
f 820 822 810
f 823 858 824
f 824 814 819
f 819 1054 826
f 825 826 827
f 828 785 486
f 828 485 829
f 828 830 814
f 824 858 785
f 831 830 829
f 804 777 782
f 831 782 832
f 815 814 830
f 833 779 565
f 564 286 788
f 833 788 792
f 808 780 779
f 834 1054 818
f 818 817 836
f 835 836 837
f 835 838 839
f 840 810 822
f 841 822 842
f 843 888 844
f 841 844 845
f 846 827 826
f 826 1054 834
f 847 834 839
f 848 890 846
f 849 836 817
f 850 862 851
f 849 851 852
f 853 837 836
f 821 796 795
f 854 795 787
f 855 860 856
f 854 856 842
f 855 787 786
f 857 786 858
f 823 827 859
f 857 859 860
f 861 816 832
f 781 780 812
f 861 812 862
f 850 817 816
f 863 837 853
f 864 853 852
f 865 884 866
f 866 918 863
f 867 873 868
f 869 890 870
f 867 870 871
f 872 877 873
f 874 888 875
f 875 868 873
f 876 873 877
f 876 878 879
f 865 852 880
f 881 880 845
f 882 893 883
f 881 883 884
f 885 851 862
f 811 810 840
f 885 840 845
f 880 852 851
f 843 842 856
f 886 856 860
f 886 887 868
f 886 875 888
f 887 860 859
f 889 859 827
f 889 846 890
f 869 868 887
f 891 884 883
f 892 883 893
f 894 908 895
f 892 895 896
f 897 903 898
f 899 918 900
f 897 900 901
f 902 911 903
f 894 893 904
f 905 904 879
f 906 927 907
f 905 907 908
f 909 913 871
f 910 898 903
f 909 903 911
f 912 932 913
f 914 870 890
f 848 839 915
f 914 915 898
f 910 871 870
f 882 845 844
f 916 844 888
f 874 879 904
f 916 904 893
f 917 915 839
f 838 837 863
f 917 863 918
f 899 898 915
f 919 923 920
f 921 901 922
f 919 922 896
f 895 908 923
f 924 932 912
f 925 912 911
f 902 901 921
f 925 921 920
f 926 929 920
f 923 908 907
f 926 907 927
f 928 936 929
f 930 924 920
f 929 936 931
f 930 931 932
f 906 879 878
f 933 878 877
f 934 936 928
f 933 928 927
f 934 877 872
f 872 871 913
f 913 932 931
f 935 931 936
f 937 900 918
f 937 866 884
f 937 891 896
f 937 922 901
f 938 942 939
f 940 968 941
f 938 941 607
f 606 170 942
f 943 947 944
f 945 1030 946
f 946 1049 587
f 943 587 163
f 948 954 949
f 948 950 951
f 948 952 161
f 948 505 953
f 955 966 956
f 957 956 958
f 959 168 503
f 503 156 955
f 960 959 958
f 961 939 942
f 942 170 169
f 169 168 959
f 952 951 962
f 962 944 947
f 963 947 163
f 162 161 952
f 946 1030 964
f 965 964 966
f 955 156 154
f 154 1049 946
f 967 941 968
f 967 969 949
f 954 953 40
f 40 607 941
f 970 973 271
f 456 1052 971
f 970 971 972
f 465 382 973
f 974 340 339
f 339 338 976
f 976 373 438
f 975 438 325
f 977 988 428
f 978 428 427
f 979 380 403
f 978 403 402
f 980 356 411
f 411 350 982
f 982 390 398
f 398 397 980
f 983 982 350
f 349 348 984
f 984 392 391
f 983 391 390
f 985 462 986
f 987 986 988
f 977 402 387
f 987 387 375
f 989 979 427
f 272 271 973
f 989 973 382
f 381 380 979
f 976 338 463
f 990 463 462
f 985 375 374
f 990 374 373
f 971 1052 357
f 991 357 356
f 991 980 397
f 991 329 972
f 984 348 343
f 343 340 974
f 974 325 323
f 992 323 392
f 993 995 210
f 578 218 994
f 994 573 572
f 572 230 995
f 996 586 585
f 997 585 178
f 998 1050 570
f 997 570 569
f 999 216 496
f 496 206 1001
f 1001 499 497
f 497 237 999
f 1002 1005 1003
f 492 491 1004
f 1002 1004 479
f 478 244 1005
f 1006 998 178
f 1006 177 1003
f 1006 1005 244
f 242 1050 998
f 994 218 217
f 1007 217 216
f 999 237 235
f 1007 235 573
f 1008 1004 491
f 211 210 995
f 1008 995 230
f 228 479 1004
f 1001 206 205
f 205 586 996
f 1009 996 569
f 1009 196 499
f 1010 233 232
f 1011 232 1012
f 1013 460 459
f 459 458 1010
f 223 246 480
f 1014 480 233
f 1014 1010 458
f 1014 336 224
f 1015 1017 664
f 665 69 1016
f 1015 1016 949
f 969 968 1017
f 1018 126 125
f 125 634 1020
f 1019 1020 966
f 964 1030 1018
f 1021 523 521
f 1022 521 597
f 1022 1023 944
f 962 951 1021
f 1024 1026 150
f 511 510 1025
f 1025 939 961
f 1024 961 958
f 1027 1020 634
f 151 150 1026
f 1026 958 956
f 1027 956 966
f 1016 69 67
f 1028 67 523
f 1021 951 950
f 1028 950 949
f 1023 597 596
f 1029 596 126
f 1029 1018 1030
f 945 944 1023
f 1025 510 646
f 1031 646 664
f 1031 1017 968
f 1031 940 939
f 1032 289 293
f 1033 293 420
f 1034 562 805
f 805 1053 1032
f 1035 240 258
f 1036 258 289
f 1032 1053 802
f 802 801 1035
f 1037 988 986
f 1038 986 462
f 1039 799 797
f 1038 797 282
f 1034 420 543
f 1040 543 542
f 1040 1041 280
f 1040 563 562
f 1039 462 461
f 1042 461 460
f 1013 1012 1043
f 1042 1043 482
f 554 799 1039
f 1044 1043 1012
f 574 240 1035
f 1044 1035 801
f 483 482 1043
f 1045 1041 542
f 423 988 1037
f 1045 1037 282
f 281 280 1041